<?xml version="1.0" encoding="UTF-8"?>
<!DOCTYPE svg PUBLIC "-//W3C//DTD SVG 1.1//EN" "http://www.w3.org/Graphics/SVG/1.1/DTD/svg11.dtd">
<!-- Creator: CorelDRAW -->
<svg xmlns="http://www.w3.org/2000/svg" xml:space="preserve" width="32px" height="32px" style="shape-rendering:geometricPrecision; text-rendering:geometricPrecision; image-rendering:optimizeQuality; fill-rule:evenodd; clip-rule:evenodd"
viewBox="0 0 32 32"
 xmlns:xlink="http://www.w3.org/1999/xlink">
 <defs>
  <style type="text/css">
   <![CDATA[
    .fil23 {fill:none}
    .fil24 {fill:none;fill-rule:nonzero}
    .fil9 {fill:white}
    .fil21 {fill:#5584AE}
    .fil11 {fill:#B1B5B8}
    .fil16 {fill:#5C9AC9;fill-rule:nonzero}
    .fil20 {fill:#5D8DB7;fill-rule:nonzero}
    .fil26 {fill:#91C7ED;fill-rule:nonzero}
    .fil25 {fill:#94C2E2;fill-rule:nonzero}
    .fil10 {fill:#B1B5B8;fill-rule:nonzero}
    .fil0 {fill:black;fill-opacity:0.000000}
    .fil1 {fill:black;fill-opacity:0.011765}
    .fil2 {fill:black;fill-opacity:0.027451}
    .fil3 {fill:black;fill-opacity:0.039216}
    .fil4 {fill:black;fill-opacity:0.054902}
    .fil5 {fill:black;fill-opacity:0.066667}
    .fil6 {fill:black;fill-opacity:0.078431}
    .fil7 {fill:black;fill-opacity:0.094118}
    .fil27 {fill:#ABD8FC;fill-rule:nonzero;fill-opacity:0.121569}
    .fil18 {fill:#4272A0;fill-opacity:0.219608}
    .fil19 {fill:#3B658C;fill-opacity:0.501961}
    .fil14 {fill:#B0E2FC;fill-rule:nonzero;fill-opacity:0.780392}
    .fil13 {fill:url(#id0)}
    .fil17 {fill:url(#id1)}
    .fil8 {fill:url(#id2)}
    .fil12 {fill:url(#id3)}
    .fil15 {fill:url(#id4);fill-rule:nonzero}
    .fil22 {fill:url(#id5);fill-opacity:0.560784}
   ]]>
  </style>
  <linearGradient id="id0" gradientUnits="userSpaceOnUse" x1="16.0626" y1="9.4233" x2="16.0626" y2="30.2153">
   <stop offset="0" style="stop-color:#5589C4"/>
   <stop offset="0.0705882" style="stop-color:#5795C9"/>
   <stop offset="0.258824" style="stop-color:#649FCF"/>
   <stop offset="0.909804" style="stop-color:#9FCFF5"/>
   <stop offset="1" style="stop-color:#8BBEE8"/>
  </linearGradient>
  <linearGradient id="id1" gradientUnits="userSpaceOnUse" x1="15.1779" y1="12.7778" x2="15.6244" y2="27.1407">
   <stop offset="0" style="stop-color:#507FA9"/>
   <stop offset="1" style="stop-color:#74A5CF"/>
  </linearGradient>
  <linearGradient id="id2" gradientUnits="userSpaceOnUse" x1="14.7397" y1="2.73202" x2="16.352" y2="15.5618">
   <stop offset="0" style="stop-color:#EBEBEB"/>
   <stop offset="1" style="stop-color:#B2B2B2"/>
  </linearGradient>
  <linearGradient id="id3" gradientUnits="userSpaceOnUse" x1="15.6114" y1="11.9864" x2="15.4815" y2="6.10896">
   <stop offset="0" style="stop-color:#8F8F8F"/>
   <stop offset="1" style="stop-color:#B8B8B8"/>
  </linearGradient>
  <linearGradient id="id4" gradientUnits="userSpaceOnUse" x1="15.8701" y1="30.2932" x2="16.2551" y2="10.0434">
   <stop offset="0" style="stop-color:#4E87B4"/>
   <stop offset="1" style="stop-color:#548EBA"/>
  </linearGradient>
  <linearGradient id="id5" gradientUnits="userSpaceOnUse" x1="14.9877" y1="9.97608" x2="15.6043" y2="30.4763">
   <stop offset="0" style="stop-color:#295283"/>
   <stop offset="0.521569" style="stop-color:#4676A6"/>
   <stop offset="1" style="stop-color:#6EA3CF"/>
  </linearGradient>
 </defs>
 <g id="Слой_x0020_1">
  <metadata id="CorelCorpID_0Corel-Layer"/>
  <g id="_72700016">
   <path id="_76234656" class="fil0" d="M15.1248 26.9966c6.2885,0 13.9093,1.97844 16.3945,3.39111 0.572863,0.324819 0.341355,1.43157 0.341355,1.55441 0,0.0059058 -0.0271667,0.0118116 -0.0744131,0.0177174l-31.4945 0c-0.107486,-0.00826812 -0.167725,-0.0165362 -0.167725,-0.0248044 0.036616,0.088587 -0.261036,-0.666175 0.321276,-1.08431 2.21586,-1.59457 8.69452,-3.85413 14.6795,-3.85413z"/>
   <g>
    <path id="_71816936" class="fil1" d="M15.2004 27.3002c6.16093,0 13.6731,1.793 16.1335,3.11472 0.583493,0.308283 0.368522,1.34298 0.368522,1.46936 0,0.029529 -0.585856,0.0543334 -1.59102,0.0755943l-27.9203 0c-1.12683,-0.0212609 -1.78946,-0.0460653 -1.78946,-0.0755943 0,-0.151189 -0.324819,-0.648457 0.350805,-1.05005 2.27373,-1.3666 8.57404,-3.53403 14.448,-3.53403z"/>
    <path id="_71617600" class="fil2" d="M15.2759 27.6049c6.03455,0 13.2869,1.61347 15.7212,2.84542 0.591761,0.291747 0.395689,1.25321 0.395689,1.38314 0,0.059058 -2.32807,0.100399 -5.6991,0.126384l-18.784 0c-3.64624,-0.0259855 -6.21527,-0.0685073 -6.21527,-0.126384 0,-0.15237 -0.317732,-0.640189 0.364979,-1.0158 2.26665,-1.26857 8.45238,-3.21276 14.2164,-3.21276z"/>
    <path id="_72640872" class="fil3" d="M15.3515 27.9085c5.90698,0 12.8995,1.43629 15.309,2.57729 0.601211,0.27521 0.421674,1.16462 0.421674,1.29691 0,0.214971 -30.0936,0.200797 -30.0936,0 0,-0.154732 -0.313008,-0.631921 0.377971,-0.981544 2.25956,-1.17053 8.33072,-2.89266 13.9849,-2.89266z"/>
    <path id="_71896288" class="fil4" d="M15.4271 28.2132c5.7806,0 12.5132,1.25794 14.8968,2.30799 0.611841,0.258674 0.448841,1.07604 0.448841,1.21187 0,0.214971 -29.49,0.199616 -29.49,0 0,-0.155913 -0.308283,-0.624834 0.390964,-0.948472 2.25247,-1.07249 8.21025,-2.57139 13.7534,-2.57139z"/>
    <path id="_103761288" class="fil5" d="M15.5016 28.5168c5.65303,0 12.127,1.07958 14.4846,2.03986 0.62129,0.240957 0.477189,0.986269 0.477189,1.12446 0,0.214971 -28.8876,0.199616 -28.8876,0 0,-0.158276 -0.302377,-0.616566 0.403957,-0.914218 2.24539,-0.974457 8.08977,-2.25011 13.5219,-2.25011z"/>
    <path id="_48213344" class="fil6" d="M15.5771 28.8215c5.52665,0 11.7396,0.901225 14.0723,1.77056 0.63074,0.22442 0.503174,0.897682 0.503174,1.03824 0,0.214971 -28.2841,0.200797 -28.2841,0 0,-0.158276 -0.296471,-0.607116 0.418131,-0.879965 2.2383,-0.876421 7.96811,-1.92884 13.2904,-1.92884z"/>
    <path id="_49778888" class="fil7" d="M15.6516 29.1251c5.40027,0 11.3545,0.72287 13.6613,1.50244 0.640189,0.207884 0.530341,0.809095 0.530341,0.953197 0,0.214971 -27.6805,0.199616 -27.6805,0 0,-0.161819 -0.291747,-0.601211 0.431124,-0.846892 2.23121,-0.778385 7.84645,-1.60874 13.0577,-1.60874z"/>
   </g>
  </g>
  <path class="fil8" d="M29.5928 8.34962l-0.0437029 6.38772c0,0.591761 -0.141739,-0.780747 -0.733501,-0.780747l-2.65407 0 -14.2613 0 -3.14425 0 -3.36158 -0.690979 -2.65407 0 -0.066145 0 0 -0.00236232c-0.561051,-0.0342537 -1.01107,-0.505537 -1.01107,-1.07486l0.059058 -4.54274c-0.223239,-0.754762 0.490182,-1.60992 1.08312,-1.60638l1.37369 0.00826812c0.497269,-0.11221 0.734682,-0.868153 1.10557,-1.67134 0.248044,-0.537428 0.474827,-1.41149 1.06659,-1.41149 2.65525,0 5.3105,0 7.96575,0 0.591761,0 0.783109,0.874059 1.03233,1.41149 0.667356,1.44692 1.65481,1.64418 2.73557,1.6489 3.30489,-0.0212609 6.59206,0.181899 9.89458,0.197254 1.41621,0.310645 1.32644,1.01698 1.61347,2.12727z"/>
  <path class="fil9" d="M28.8392 7.02909c0.591761,-0.00354348 1.07604,0.484276 1.07604,1.07604l-0.0236232 5.84556c0,0.591761 -0.484276,1.07722 -1.07604,1.07722l-2.65407 0 -14.2613 0 -3.14425 0 -3.36158 -0.690979 -2.65407 0 -0.066145 0 0 -0.00236232c-0.561051,-0.0342537 -1.01107,-0.505537 -1.01107,-1.07486l0.0649638 -5.07308c0,-0.591761 0.484276,-1.07958 1.07722,-1.07604l1.37369 0.00826812c0.245681,-0.0555145 0.42758,-0.268123 0.594124,-0.564595 0.219696,0.257493 0.242138,-0.582312 0.463015,-0.297652 -0.296471,2.05876 -1.54968,1.99498 -2.43083,1.8497l0 0.00354348 -0.0059058 0 -0.00354348 -0.00354348c-0.0129928,0 -0.0307102,0.00944928 -0.0437029,0.022442l0 0.00472464c-0.0153551,0.0153551 -0.0248044,0.0342537 -0.0271667,0.0472464l0.00236232 0 0 0.0059058 -0.00354348 0.0118116 -0.0649638 5.06127 0.00354348 0c0,0.0200797 0.00826812,0.0401595 0.0200797,0.0519711 0.0118116,0.0129928 0.0307102,0.0236232 0.0472464,0.0259855l0.0106304 0 2.65407 0 0.199616 0.022442 3.25292 0.668537 3.0533 0 14.2613 0 2.65407 0c0.0177174,0 0.0377971,-0.0106304 0.0519711,-0.0248044 0.0141739,-0.0141739 0.0248044,-0.0342537 0.0248044,-0.0531522l0.00354348 -0.00354348 0.0236232 -5.84202 -0.00354348 0 0 -0.0059058 0.00354348 0c-0.00118116,-0.0153551 -0.0106304,-0.0354348 -0.0236232,-0.0472464l-0.00472464 -0.00472464c-0.0106304,-0.0106304 -0.0283479,-0.0188986 -0.0460653,-0.0188986l-0.0059058 0 0 -0.00354348 -10.7509 0.0673261 -0.00708696 0c-2.73793,-0.701609 -2.40366,-1.65244 -2.72848,-1.98671 0.166544,-0.285841 0.409863,0.540972 0.614203,0.272848 0.598848,0.608298 1.33353,0.714602 2.11782,0.718146 3.58482,-0.022442 7.16964,-0.0460653 10.7545,-0.0673261zm-23.3291 -2.119c0.188986,-0.444116 0.425218,-0.874059 0.840986,-0.874059 2.65525,0 5.3105,0 7.96575,0 0.287022,0 0.480732,0.205522 0.631921,0.47837 -0.222058,0.41695 0.0803189,0.758305 -0.116935,0.975639 -0.288203,-0.476008 -0.62129,-0.188986 -1.47054,-0.450022l-6.3511 0c-0.291747,0 -1.2792,0.380334 -1.39613,0.505537 -0.282297,-0.0980363 0.205522,-0.520892 -0.103942,-0.635464z"/>
  <polygon class="fil10" points="1.73276,9.14691 1.70323,9.15517 1.71623,8.14528 29.5172,8.08504 29.5928,8.40041 29.5881,9.08549 "/>
  <path class="fil11" d="M29.9755 9.01698l0.00236232 0.0720508 -0.00354348 0.94611 -0.0543334 -0.0165362 -0.941385 0.00236232 0.00354348 -0.931936 -0.00354348 0 0 -0.0059058 0.00354348 0c-0.00118116,-0.0153551 -0.0106304,-0.0354348 -0.0236232,-0.0472464l-0.00472464 -0.00472464 -0.0188986 -0.0118116 1.03706 -0.00236232 0.00354348 0zm-28.1967 1.06777l0.0118116 -0.914218 0.00472464 -0.0921305 2.67415 -0.0059058 -0.00944928 0.00236232 -0.222058 0.0236232 -1.37015 -0.00826812 0 0.00354348 -0.0059058 0 -0.00354348 -0.00354348c-0.0129928,0 -0.0307102,0.00944928 -0.0437029,0.022442l0 0.00472464c-0.0153551,0.0153551 -0.0248044,0.0342537 -0.0271667,0.0472464l0.00236232 0 0 0.0059058 -0.00354348 0.0118116 -0.0118116 0.89532 -0.979182 0.00236232 -0.0165362 0.00472464zm24.5303 -1.0595l-8.15828 0.0507899 -0.00708696 0 -0.126384 -0.0330725 8.29175 -0.0177174z"/>
  <path class="fil12" d="M29.5928 8.15119l-0.0437029 6.38772c0,0.591761 -0.141739,-0.780747 -0.733501,-0.780747l-2.65407 0 -14.2613 0.198435 -3.14425 0 -3.36158 -0.690979 -2.65407 0 -0.066145 0 0 -0.00236232c-0.561051,-0.0342537 -1.01107,-0.505537 -1.01107,-1.07486l0.059058 -4.54274c-0.223239,-0.754762 0.490182,-1.60992 1.08312,-1.60638l1.37369 0.00826812c0.497269,-0.11221 0.734682,-0.868153 1.10557,-1.67134 0.248044,-0.537428 0.474827,-1.41149 1.06659,-1.41149 2.65525,0 5.3105,0 7.96575,0 0.591761,0 0.783109,0.874059 1.03233,1.41149 0.667356,1.44692 1.65481,1.64418 2.73557,1.6489 3.30489,-0.0212609 6.59206,-0.0165362 9.89458,-0.00118116 1.41621,0.310645 1.32644,1.01698 1.61347,2.12727zm-1.02761 4.60771l0.0307102 -4.48487 -0.0921305 -0.393326c-0.0944928,-0.434667 -0.159457,-0.727595 -0.662631,-0.862247 -3.25173,-0.0177174 -6.50111,-0.0165362 -9.75284,0.00236232l-0.00708696 0c-0.67208,-0.00236232 -1.32881,-0.073232 -1.96073,-0.385058l-0.00354348 0c-0.656725,-0.326 -1.23313,-0.884689 -1.6737,-1.84143 -0.0271667,-0.0578769 -0.0555145,-0.125203 -0.0838624,-0.194891 -0.206703,-0.524435 -0.160638,-0.558689 -0.511442,-0.635464l-6.96412 0c-0.652001,0 -0.476008,0.317732 -0.68153,0.803189l-0.00826812 0.0153551 -0.178355 0.400413 0.00118116 0c-0.388602,0.88587 -0.715783,1.63236 -1.61937,1.8367l-0.222058 0.0236232 -1.30873 -0.00826812c-0.022442,0.0153551 -0.0566957,0.0531522 -0.095674,0.103942l-0.00354348 0c-0.0531522,0.0708696 -0.0909494,0.151189 -0.0909494,0.210247l0 0.00826812 0.00236232 0.00354348 0.0389783 0.296471 -0.059058 4.53093 0.00354348 0c0,0.0200797 0.00826812,0.0401595 0.0200797,0.0519711 0.0118116,0.0129928 0.0307102,0.0236232 0.0472464,0.0259855l0.0106304 0 2.65407 0 0.199616 0.022442 3.25292 0.668537 3.0533 0 14.2613 -0.198435 2.40366 0zm-25.7599 -5.7239l0 0.00354348 0.0118116 -0.00354348 -0.0118116 0z"/>
  <path class="fil13" d="M1.94891 9.05123c-0.514986,0.125203 -1.37487,0.518529 -1.22723,1.74576 0.207884,1.73276 0.901225,8.25041 0.901225,9.70678 0,1.45637 0.131109,8.06378 0.131109,8.06378 0,0 -0.138196,2.0812 2.28909,1.94183l24.1654 -0.0614203c2.42728,0.139377 2.28909,-1.94183 2.28909,-1.94183 0,0 0.0059058,-6.60741 0.0059058,-8.06378 0,-1.45637 0.693341,-7.97401 0.901225,-9.70678 0.147645,-1.22723 -0.71224,-1.62055 -1.22723,-1.74576l-28.2286 0.0614203z"/>
  <path class="fil14" d="M0.780747 10.0162l30.5826 0c0.0555145,0.200797 0.0755943,0.438211 0.0413406,0.719327l-0.0330725 0.282297 -30.6239 0 -0.0259855 -0.220877c-0.0377971,-0.310645 -0.0118116,-0.568138 0.059058,-0.780747z"/>
  <path class="fil15" d="M2.01034 10.0552c-0.179536,0.0507899 -0.398051,0.14292 -0.556327,0.305921 -0.166544,0.170087 -0.277573,0.446479 -0.226783,0.879965 0.693341,5.86328 0.796102,11.6191 0.796102,17.532l0.00236232 0.00826812c0,0.00354348 -0.105123,1.54968 1.76111,1.44338l0.0271667 -0.00236232 24.4984 -0.0496087 0.0271667 0.00236232c1.86623,0.106304 1.76111,-1.43983 1.76111,-1.44338l0.00236232 -0.00826812c0,-5.91289 0.102761,-11.6687 0.796102,-17.532 0.0507899,-0.433486 -0.0602392,-0.709877 -0.226783,-0.879965 -0.158276,-0.163 -0.37679,-0.255131 -0.556327,-0.305921l-8.69452 -0.0188986 0 0.0259855 -19.4112 0.0425218zm1.80363 21.1688l0 -0.00118116c-2.95763,0.153551 -2.7899,-2.43437 -2.7899,-2.44146l0.00236232 0c-0.0862247,-5.87982 -0.100399,-11.586 -0.791378,-17.4221 -0.0933117,-0.790196 0.150007,-1.33117 0.503174,-1.6926 0.342537,-0.349624 0.779566,-0.518529 1.1032,-0.596486l0.116935 -0.0165362 8.74649 -0.0188986 0 -0.073232 19.4632 0.0425218 0.116935 0.0165362c0.323638,0.0779566 0.760667,0.246863 1.1032,0.596486 0.353167,0.361435 0.596486,0.902407 0.503174,1.6926 -0.690979,5.83611 -0.705153,11.5423 -0.791378,17.4221l0.00236232 0c0,0.00708696 0.167725,2.59501 -2.7899,2.44146l0 0.00118116 -24.4984 0.0496087z"/>
  <path class="fil16" d="M2.01034 10.0552c-0.0779566,0.022442 -0.164181,0.0519711 -0.248044,0.0921305l0 -1.05714 0.0791378 -0.0200797 0.116935 -0.0165362 27.6344 -0.0602392 0 1.00162 -27.5825 0.0602392z"/>
  <path class="fil17" d="M15.4012 11.4584c4.69393,0 8.50081,3.80688 8.50081,8.50081 0,4.69393 -3.80688,8.50081 -8.50081,8.50081 -4.69393,0 -8.50081,-3.80688 -8.50081,-8.50081 0,-4.69393 3.80688,-8.50081 8.50081,-8.50081zm-3.99232 3.15134c1.71386,0.0106304 3.9935,0.0602392 5.70619,0.0649638 0.344899,0 0.383877,-0.00236232 0.634283,0.237413l2.0753 2.1568c0.235051,0.225602 0.198435,0.288203 0.198435,0.617747 0,2.32452 0,4.65141 0,6.97712 -0.0614203,0.377971 -0.281116,0.531522 -0.609479,0.530341 -2.28909,-0.0153551 -5.14041,-0.0614203 -7.4295,-0.0755943 0,0 0,0 0,0.00118116 -0.74295,0.0271667 -1.0158,-0.279935 -1.00162,-0.79374l-0.0401595 -9.13391c-0.00472464,-0.406319 0.0555145,-0.441754 0.466558,-0.582312z"/>
  <path class="fil18" d="M11.4112 14.1113c0.786653,0.00472464 1.68788,0.0188986 2.59619,0.0307102 1.08312,0.0141739 2.18633,0.0330725 3.10763,0.0342537l0 -0.00236232 0.00944928 0c0.512624,0 0.575225,0.00118116 0.970914,0.379153l0.0129928 0.0129928 2.0753 2.1568c0.34608,0.33545 0.344899,0.465377 0.338993,0.851617l0 0.00236232 -0.00118116 0.109848 0.00236232 0 0 6.97712 -0.00826812 0.0803189c-0.0507899,0.31537 -0.184261,0.551602 -0.377971,0.71224l-0.00236232 0.00236232c-0.198435,0.163 -0.442935,0.236232 -0.721689,0.236232l-0.00236232 -0.00236232c-1.11856,-0.00708696 -2.37177,-0.0236232 -3.6238,-0.036616l-0.00236232 0c-1.29691,-0.0165362 -2.60328,-0.0330725 -3.75373,-0.0389783l-0.0318913 0.00118116c-0.501993,0.0165362 -0.872878,-0.0968552 -1.12565,-0.31537 -0.279935,-0.242138 -0.39687,-0.576406 -0.389783,-0.974457l-0.0401595 -9.13273 0 -0.00118116c-0.00354348,-0.324819 0.0330725,-0.523254 0.196073,-0.714602l-0.00118116 -0.00118116c0.146464,-0.173631 0.320094,-0.243319 0.609479,-0.341355l0.163 -0.0259855zm-0.00236232 0.49845c1.71386,0.0106304 3.9935,0.0602392 5.70619,0.0649638 0.344899,0 0.383877,-0.00236232 0.634283,0.237413l2.0753 2.1568c0.235051,0.225602 0.198435,0.288203 0.198435,0.617747 0,2.32452 0,4.65141 0,6.97712 -0.0614203,0.377971 -0.281116,0.531522 -0.609479,0.530341 -2.28909,-0.0153551 -5.14041,-0.0614203 -7.4295,-0.0755943 0,0 0,0 0,0.00118116 -0.74295,0.0271667 -1.0158,-0.279935 -1.00162,-0.79374l-0.0401595 -9.13391c-0.00472464,-0.406319 0.0555145,-0.441754 0.466558,-0.582312z"/>
  <path class="fil19" d="M20.0868 25.4965c-0.190167,0.137015 -0.41695,0.198435 -0.673261,0.198435l-0.00236232 -0.00236232c-1.11856,-0.00708696 -2.37177,-0.0236232 -3.6238,-0.036616l-0.00236232 0c-1.29691,-0.0165362 -2.60328,-0.0330725 -3.75373,-0.0389783l-0.0318913 0.00118116c-0.342537,0.0118116 -0.624834,-0.036616 -0.849254,-0.139377l0.190167 -0.461834c0.155913,0.0755943 0.367341,0.113391 0.643732,0.102761 0,-0.00118116 0,-0.00118116 0,-0.00118116 2.28909,0.0141739 5.14041,0.0602392 7.4295,0.0755943 0.13229,0 0.248044,-0.0248044 0.341355,-0.0791378l0.331906 0.381515z"/>
  <path class="fil20" d="M12.9514 23.9409c-0.281116,0 -0.510261,-0.22442 -0.510261,-0.500812 0,-0.276392 0.229145,-0.500812 0.510261,-0.500812l5.39672 0c0.282297,0 0.510261,0.22442 0.510261,0.500812 0,0.276392 -0.227964,0.500812 -0.510261,0.500812l-5.39672 0z"/>
  <path class="fil20" d="M12.9703 21.9684c-0.281116,0 -0.510261,-0.22442 -0.510261,-0.500812 0,-0.276392 0.229145,-0.500812 0.510261,-0.500812l5.39672 0c0.281116,0 0.510261,0.22442 0.510261,0.500812 0,0.276392 -0.229145,0.500812 -0.510261,0.500812l-5.39672 0z"/>
  <path class="fil20" d="M12.8841 19.9959c-0.281116,0 -0.510261,-0.22442 -0.510261,-0.500812 0,-0.276392 0.229145,-0.500812 0.510261,-0.500812l5.39672 0c0.281116,0 0.510261,0.22442 0.510261,0.500812 0,0.276392 -0.229145,0.500812 -0.510261,0.500812l-5.39672 0z"/>
  <path class="fil21" d="M16.1807 17.8721c-0.0200797,-0.0531522 -0.0212609,-0.111029 -0.0307102,-0.168906l-0.0626015 -0.347261 -0.0307102 -2.67769 3.2411 3.10763 -3.11708 0.0862247z"/>
  <path class="fil22" d="M15.4012 11.4584c4.69393,0 8.50081,3.80688 8.50081,8.50081 0,4.69393 -3.80688,8.50081 -8.50081,8.50081 -4.69393,0 -8.50081,-3.80688 -8.50081,-8.50081 0,-4.69393 3.80688,-8.50081 8.50081,-8.50081zm5.30814 3.1974l-0.00472464 -0.00472464c-1.35833,-1.35479 -3.23402,-2.19342 -5.30341,-2.19342 -2.06939,0 -3.94508,0.838624 -5.30341,2.19342l-0.00472464 0.00472464c-1.35479,1.35833 -2.19342,3.23402 -2.19342,5.30341 0,2.06939 0.838624,3.94508 2.19342,5.30341l0.00472464 0.00472464c1.35833,1.35479 3.23402,2.19342 5.30341,2.19342 2.06939,0 3.94508,-0.838624 5.30341,-2.19342l0.00472464 -0.00472464c1.35479,-1.35833 2.19342,-3.23402 2.19342,-5.30341 0,-2.06939 -0.838624,-3.94508 -2.19342,-5.30341z"/>
  <path class="fil23" d="M12.5853 19.5577l-0.582312 0c-0.318913,0 -0.639008,0 -0.960283,0m8.96501 -0.00118116l-1.43157 0.00708696m0.00826812 -5.10616c0,-0.133471 -0.115754,-0.242138 -0.258674,-0.242138l-0.181899 0 0 0.00236232c-0.0413406,-0.00944928 -0.0826812,-0.0141739 -0.125203,-0.0141739l-0.537428 0 0 0.0106304 -3.79861 0 0 -0.0106304 -0.538609 0c-0.0425218,0 -0.0850436,0.00472464 -0.124022,0.0141739l0 -0.00236232 -0.18308 0c-0.141739,0 -0.258674,0.108667 -0.258674,0.242138m-0.497269 11.1454l0.0118116 0m7.94212 -1.14336c0,-0.151189 -0.125203,-0.27521 -0.27521,-0.27521l-0.109848 0 -0.0236232 -0.00118116 -7.35863 -0.0212609 0 -0.00118116c-0.303558,0 -0.466558,0.00118116 -0.765392,0.00118116 -0.151189,0 -0.27521,0.124022 -0.27521,0.274029l0 0.0507899 0 0.0212609c0,0.271667 -0.00472464,0.538609 -0.00472464,0.818544"/>
  <line class="fil24" x1="19.6262" y1="24.5929" x2="19.6262" y2= "24.789" />
  <path class="fil24" d="M19.6498 24.7985c0.0448841,0.0188986 0.0862247,0.0389783 0.109848,0.0543334"/>
  <polyline class="fil24" points="19.6297,24.7902 19.6498,24.7985 19.6498,24.5681 "/>
  <polyline class="fil24" points="19.6262,24.789 19.6297,24.7902 19.6368,24.5811 "/>
  <polyline class="fil24" points="19.6498,24.5681 19.7596,24.4595 19.6498,24.4595 "/>
  <polyline class="fil24" points="19.6368,24.5811 19.6498,24.5681 19.6498,24.4595 19.6415,24.4595 "/>
  <polygon class="fil25" points="19.6262,24.5929 19.6368,24.5811 19.6415,24.4595 19.6262,24.4595 "/>
  <polygon class="fil25" points="12.0809,25.6028 12.0927,25.6028 12.0927,24.9095 12.0809,24.9095 "/>
  <path class="fil26" d="M11.7632 14.1113l5.31404 0 0.845711 1.00162 -6.94759 0c0.115754,-0.674443 0.157094,-0.877602 0.787834,-1.00162z"/>
  <polygon class="fil27" points="11.9722,15.3161 11.9722,24.9355 11.0557,24.9355 11.0557,15.3161 "/>
  <polygon class="fil27" points="19.997,17.0205 19.997,24.7347 19.0805,24.7347 19.0805,17.0205 "/>
 </g>
</svg>
