<?xml version="1.0" encoding="UTF-8"?>
<!DOCTYPE svg PUBLIC "-//W3C//DTD SVG 1.1//EN" "http://www.w3.org/Graphics/SVG/1.1/DTD/svg11.dtd">
<!-- Creator: CorelDRAW -->
<svg xmlns="http://www.w3.org/2000/svg" xml:space="preserve" width="32px" height="32px" style="shape-rendering:geometricPrecision; text-rendering:geometricPrecision; image-rendering:optimizeQuality; fill-rule:evenodd; clip-rule:evenodd"
viewBox="0 0 32 32"
 xmlns:xlink="http://www.w3.org/1999/xlink">
 <defs>
  <style type="text/css">
   <![CDATA[
    .fil9 {fill:white}
    .fil21 {fill:#82BFEF}
    .fil22 {fill:#91C7ED}
    .fil11 {fill:#B1B5B8}
    .fil16 {fill:#5C9AC9;fill-rule:nonzero}
    .fil10 {fill:#B1B5B8;fill-rule:nonzero}
    .fil0 {fill:black;fill-opacity:0.000000}
    .fil1 {fill:black;fill-opacity:0.011765}
    .fil2 {fill:black;fill-opacity:0.027451}
    .fil3 {fill:black;fill-opacity:0.039216}
    .fil4 {fill:black;fill-opacity:0.054902}
    .fil5 {fill:black;fill-opacity:0.066667}
    .fil6 {fill:black;fill-opacity:0.078431}
    .fil7 {fill:black;fill-opacity:0.094118}
    .fil18 {fill:#4272A0;fill-rule:nonzero;fill-opacity:0.219608}
    .fil14 {fill:#B0E2FC;fill-rule:nonzero;fill-opacity:0.780392}
    .fil13 {fill:url(#id0)}
    .fil19 {fill:url(#id1)}
    .fil17 {fill:url(#id2)}
    .fil8 {fill:url(#id3)}
    .fil12 {fill:url(#id4)}
    .fil15 {fill:url(#id5);fill-rule:nonzero}
    .fil20 {fill:url(#id6);fill-opacity:0.560784}
   ]]>
  </style>
  <linearGradient id="id0" gradientUnits="userSpaceOnUse" x1="16.0626" y1="9.4233" x2="16.0626" y2="30.2153">
   <stop offset="0" style="stop-color:#5589C4"/>
   <stop offset="0.0705882" style="stop-color:#5795C9"/>
   <stop offset="0.258824" style="stop-color:#649FCF"/>
   <stop offset="0.909804" style="stop-color:#9FCFF5"/>
   <stop offset="1" style="stop-color:#8BBEE8"/>
  </linearGradient>
  <linearGradient id="id1" gradientUnits="userSpaceOnUse" x1="15.5075" y1="14.018" x2="15.211" y2="26.0741">
   <stop offset="0" style="stop-color:#67A1D1"/>
   <stop offset="1" style="stop-color:#95C7EE"/>
  </linearGradient>
  <linearGradient id="id2" gradientUnits="userSpaceOnUse" x1="15.1779" y1="12.7778" x2="15.6244" y2="27.1407">
   <stop offset="0" style="stop-color:#5684AD"/>
   <stop offset="1" style="stop-color:#7AABD6"/>
  </linearGradient>
  <linearGradient id="id3" gradientUnits="userSpaceOnUse" x1="14.7397" y1="2.73202" x2="16.352" y2="15.5618">
   <stop offset="0" style="stop-color:#EBEBEB"/>
   <stop offset="1" style="stop-color:#B2B2B2"/>
  </linearGradient>
  <linearGradient id="id4" gradientUnits="userSpaceOnUse" x1="15.6114" y1="11.9864" x2="15.4815" y2="6.10896">
   <stop offset="0" style="stop-color:#8F8F8F"/>
   <stop offset="1" style="stop-color:#B8B8B8"/>
  </linearGradient>
  <linearGradient id="id5" gradientUnits="userSpaceOnUse" x1="15.8701" y1="30.2932" x2="16.2551" y2="10.0434">
   <stop offset="0" style="stop-color:#4E87B4"/>
   <stop offset="1" style="stop-color:#548EBA"/>
  </linearGradient>
  <linearGradient id="id6" gradientUnits="userSpaceOnUse" x1="15.094" y1="12.6762" x2="15.6067" y2="30.5472">
   <stop offset="0" style="stop-color:#295283"/>
   <stop offset="0.521569" style="stop-color:#4676A6"/>
   <stop offset="1" style="stop-color:#6EA3CF"/>
  </linearGradient>
 </defs>
 <g id="Слой_x0020_1">
  <metadata id="CorelCorpID_0Corel-Layer"/>
  <g id="_79288944">
   <path id="_48893088" class="fil0" d="M15.1248 26.9966c6.2885,0 13.9093,1.97844 16.3945,3.39111 0.572863,0.324819 0.341355,1.43157 0.341355,1.55441 0,0.0059058 -0.0271667,0.0118116 -0.0744131,0.0177174l-31.4945 0c-0.107486,-0.00826812 -0.167725,-0.0165362 -0.167725,-0.0248044 0.036616,0.088587 -0.261036,-0.666175 0.321276,-1.08431 2.21586,-1.59457 8.69452,-3.85413 14.6795,-3.85413z"/>
   <g>
    <path id="_103630808" class="fil1" d="M15.2004 27.3002c6.16093,0 13.6731,1.793 16.1335,3.11472 0.583493,0.308283 0.368522,1.34298 0.368522,1.46936 0,0.029529 -0.585856,0.0543334 -1.59102,0.0755943l-27.9203 0c-1.12683,-0.0212609 -1.78946,-0.0460653 -1.78946,-0.0755943 0,-0.151189 -0.324819,-0.648457 0.350805,-1.05005 2.27373,-1.3666 8.57404,-3.53403 14.448,-3.53403z"/>
    <path id="_78879496" class="fil2" d="M15.2759 27.6049c6.03455,0 13.2869,1.61347 15.7212,2.84542 0.591761,0.291747 0.395689,1.25321 0.395689,1.38314 0,0.059058 -2.32807,0.100399 -5.6991,0.126384l-18.784 0c-3.64624,-0.0259855 -6.21527,-0.0685073 -6.21527,-0.126384 0,-0.15237 -0.317732,-0.640189 0.364979,-1.0158 2.26665,-1.26857 8.45238,-3.21276 14.2164,-3.21276z"/>
    <path id="_49479184" class="fil3" d="M15.3515 27.9085c5.90698,0 12.8995,1.43629 15.309,2.57729 0.601211,0.27521 0.421674,1.16462 0.421674,1.29691 0,0.214971 -30.0936,0.200797 -30.0936,0 0,-0.154732 -0.313008,-0.631921 0.377971,-0.981544 2.25956,-1.17053 8.33072,-2.89266 13.9849,-2.89266z"/>
    <path id="_49448488" class="fil4" d="M15.4271 28.2132c5.7806,0 12.5132,1.25794 14.8968,2.30799 0.611841,0.258674 0.448841,1.07604 0.448841,1.21187 0,0.214971 -29.49,0.199616 -29.49,0 0,-0.155913 -0.308283,-0.624834 0.390964,-0.948472 2.25247,-1.07249 8.21025,-2.57139 13.7534,-2.57139z"/>
    <path id="_73460096" class="fil5" d="M15.5016 28.5168c5.65303,0 12.127,1.07958 14.4846,2.03986 0.62129,0.240957 0.477189,0.986269 0.477189,1.12446 0,0.214971 -28.8876,0.199616 -28.8876,0 0,-0.158276 -0.302377,-0.616566 0.403957,-0.914218 2.24539,-0.974457 8.08977,-2.25011 13.5219,-2.25011z"/>
    <path id="_73698832" class="fil6" d="M15.5771 28.8215c5.52665,0 11.7396,0.901225 14.0723,1.77056 0.63074,0.22442 0.503174,0.897682 0.503174,1.03824 0,0.214971 -28.2841,0.200797 -28.2841,0 0,-0.158276 -0.296471,-0.607116 0.418131,-0.879965 2.2383,-0.876421 7.96811,-1.92884 13.2904,-1.92884z"/>
    <path id="_49334248" class="fil7" d="M15.6516 29.1251c5.40027,0 11.3545,0.72287 13.6613,1.50244 0.640189,0.207884 0.530341,0.809095 0.530341,0.953197 0,0.214971 -27.6805,0.199616 -27.6805,0 0,-0.161819 -0.291747,-0.601211 0.431124,-0.846892 2.23121,-0.778385 7.84645,-1.60874 13.0577,-1.60874z"/>
   </g>
  </g>
  <path class="fil8" d="M29.5928 8.34962l-0.0437029 6.38772c0,0.591761 -0.141739,-0.780747 -0.733501,-0.780747l-2.65407 0 -14.2613 0 -3.14425 0 -3.36158 -0.690979 -2.65407 0 -0.066145 0 0 -0.00236232c-0.561051,-0.0342537 -1.01107,-0.505537 -1.01107,-1.07486l0.059058 -4.54274c-0.223239,-0.754762 0.490182,-1.60992 1.08312,-1.60638l1.37369 0.00826812c0.497269,-0.11221 0.734682,-0.868153 1.10557,-1.67134 0.248044,-0.537428 0.474827,-1.41149 1.06659,-1.41149 2.65525,0 5.3105,0 7.96575,0 0.591761,0 0.783109,0.874059 1.03233,1.41149 0.667356,1.44692 1.65481,1.64418 2.73557,1.6489 3.30489,-0.0212609 6.59206,0.181899 9.89458,0.197254 1.41621,0.310645 1.32644,1.01698 1.61347,2.12727z"/>
  <path class="fil9" d="M28.8392 7.02909c0.591761,-0.00354348 1.07604,0.484276 1.07604,1.07604l-0.0236232 5.84556c0,0.591761 -0.484276,1.07722 -1.07604,1.07722l-2.65407 0 -14.2613 0 -3.14425 0 -3.36158 -0.690979 -2.65407 0 -0.066145 0 0 -0.00236232c-0.561051,-0.0342537 -1.01107,-0.505537 -1.01107,-1.07486l0.0649638 -5.07308c0,-0.591761 0.484276,-1.07958 1.07722,-1.07604l1.37369 0.00826812c0.245681,-0.0555145 0.42758,-0.268123 0.594124,-0.564595 0.219696,0.257493 0.242138,-0.582312 0.463015,-0.297652 -0.296471,2.05876 -1.54968,1.99498 -2.43083,1.8497l0 0.00354348 -0.0059058 0 -0.00354348 -0.00354348c-0.0129928,0 -0.0307102,0.00944928 -0.0437029,0.022442l0 0.00472464c-0.0153551,0.0153551 -0.0248044,0.0342537 -0.0271667,0.0472464l0.00236232 0 0 0.0059058 -0.00354348 0.0118116 -0.0649638 5.06127 0.00354348 0c0,0.0200797 0.00826812,0.0401595 0.0200797,0.0519711 0.0118116,0.0129928 0.0307102,0.0236232 0.0472464,0.0259855l0.0106304 0 2.65407 0 0.199616 0.022442 3.25292 0.668537 3.0533 0 14.2613 0 2.65407 0c0.0177174,0 0.0377971,-0.0106304 0.0519711,-0.0248044 0.0141739,-0.0141739 0.0248044,-0.0342537 0.0248044,-0.0531522l0.00354348 -0.00354348 0.0236232 -5.84202 -0.00354348 0 0 -0.0059058 0.00354348 0c-0.00118116,-0.0153551 -0.0106304,-0.0354348 -0.0236232,-0.0472464l-0.00472464 -0.00472464c-0.0106304,-0.0106304 -0.0283479,-0.0188986 -0.0460653,-0.0188986l-0.0059058 0 0 -0.00354348 -10.7509 0.0673261 -0.00708696 0c-2.73793,-0.701609 -2.40366,-1.65244 -2.72848,-1.98671 0.166544,-0.285841 0.409863,0.540972 0.614203,0.272848 0.598848,0.608298 1.33353,0.714602 2.11782,0.718146 3.58482,-0.022442 7.16964,-0.0460653 10.7545,-0.0673261zm-23.3291 -2.119c0.188986,-0.444116 0.425218,-0.874059 0.840986,-0.874059 2.65525,0 5.3105,0 7.96575,0 0.287022,0 0.480732,0.205522 0.631921,0.47837 -0.222058,0.41695 0.0803189,0.758305 -0.116935,0.975639 -0.288203,-0.476008 -0.62129,-0.188986 -1.47054,-0.450022l-6.3511 0c-0.291747,0 -1.2792,0.380334 -1.39613,0.505537 -0.282297,-0.0980363 0.205522,-0.520892 -0.103942,-0.635464z"/>
  <polygon class="fil10" points="1.73276,9.14691 1.70323,9.15517 1.71623,8.14528 29.5172,8.08504 29.5928,8.40041 29.5881,9.08549 "/>
  <path class="fil11" d="M29.9755 9.01698l0.00236232 0.0720508 -0.00354348 0.94611 -0.0543334 -0.0165362 -0.941385 0.00236232 0.00354348 -0.931936 -0.00354348 0 0 -0.0059058 0.00354348 0c-0.00118116,-0.0153551 -0.0106304,-0.0354348 -0.0236232,-0.0472464l-0.00472464 -0.00472464 -0.0188986 -0.0118116 1.03706 -0.00236232 0.00354348 0zm-28.1967 1.06777l0.0118116 -0.914218 0.00472464 -0.0921305 2.67415 -0.0059058 -0.00944928 0.00236232 -0.222058 0.0236232 -1.37015 -0.00826812 0 0.00354348 -0.0059058 0 -0.00354348 -0.00354348c-0.0129928,0 -0.0307102,0.00944928 -0.0437029,0.022442l0 0.00472464c-0.0153551,0.0153551 -0.0248044,0.0342537 -0.0271667,0.0472464l0.00236232 0 0 0.0059058 -0.00354348 0.0118116 -0.0118116 0.89532 -0.979182 0.00236232 -0.0165362 0.00472464zm24.5303 -1.0595l-8.15828 0.0507899 -0.00708696 0 -0.126384 -0.0330725 8.29175 -0.0177174z"/>
  <path class="fil12" d="M29.5928 8.15119l-0.0437029 6.38772c0,0.591761 -0.141739,-0.780747 -0.733501,-0.780747l-2.65407 0 -14.2613 0.198435 -3.14425 0 -3.36158 -0.690979 -2.65407 0 -0.066145 0 0 -0.00236232c-0.561051,-0.0342537 -1.01107,-0.505537 -1.01107,-1.07486l0.059058 -4.54274c-0.223239,-0.754762 0.490182,-1.60992 1.08312,-1.60638l1.37369 0.00826812c0.497269,-0.11221 0.734682,-0.868153 1.10557,-1.67134 0.248044,-0.537428 0.474827,-1.41149 1.06659,-1.41149 2.65525,0 5.3105,0 7.96575,0 0.591761,0 0.783109,0.874059 1.03233,1.41149 0.667356,1.44692 1.65481,1.64418 2.73557,1.6489 3.30489,-0.0212609 6.59206,-0.0165362 9.89458,-0.00118116 1.41621,0.310645 1.32644,1.01698 1.61347,2.12727zm-1.02761 4.60771l0.0307102 -4.48487 -0.0921305 -0.393326c-0.0944928,-0.434667 -0.159457,-0.727595 -0.662631,-0.862247 -3.25173,-0.0177174 -6.50111,-0.0165362 -9.75284,0.00236232l-0.00708696 0c-0.67208,-0.00236232 -1.32881,-0.073232 -1.96073,-0.385058l-0.00354348 0c-0.656725,-0.326 -1.23313,-0.884689 -1.6737,-1.84143 -0.0271667,-0.0578769 -0.0555145,-0.125203 -0.0838624,-0.194891 -0.206703,-0.524435 -0.160638,-0.558689 -0.511442,-0.635464l-6.96412 0c-0.652001,0 -0.476008,0.317732 -0.68153,0.803189l-0.00826812 0.0153551 -0.178355 0.400413 0.00118116 0c-0.388602,0.88587 -0.715783,1.63236 -1.61937,1.8367l-0.222058 0.0236232 -1.30873 -0.00826812c-0.022442,0.0153551 -0.0566957,0.0531522 -0.095674,0.103942l-0.00354348 0c-0.0531522,0.0708696 -0.0909494,0.151189 -0.0909494,0.210247l0 0.00826812 0.00236232 0.00354348 0.0389783 0.296471 -0.059058 4.53093 0.00354348 0c0,0.0200797 0.00826812,0.0401595 0.0200797,0.0519711 0.0118116,0.0129928 0.0307102,0.0236232 0.0472464,0.0259855l0.0106304 0 2.65407 0 0.199616 0.022442 3.25292 0.668537 3.0533 0 14.2613 -0.198435 2.40366 0zm-25.7599 -5.7239l0 0.00354348 0.0118116 -0.00354348 -0.0118116 0z"/>
  <path class="fil13" d="M1.94891 9.05123c-0.514986,0.125203 -1.37487,0.518529 -1.22723,1.74576 0.207884,1.73276 0.901225,8.25041 0.901225,9.70678 0,1.45637 0.131109,8.06378 0.131109,8.06378 0,0 -0.138196,2.0812 2.28909,1.94183l24.1654 -0.0614203c2.42728,0.139377 2.28909,-1.94183 2.28909,-1.94183 0,0 0.0059058,-6.60741 0.0059058,-8.06378 0,-1.45637 0.693341,-7.97401 0.901225,-9.70678 0.147645,-1.22723 -0.71224,-1.62055 -1.22723,-1.74576l-28.2286 0.0614203z"/>
  <path class="fil14" d="M0.780747 10.0162l30.5826 0c0.0555145,0.200797 0.0755943,0.438211 0.0413406,0.719327l-0.0330725 0.282297 -30.6239 0 -0.0259855 -0.220877c-0.0377971,-0.310645 -0.0118116,-0.568138 0.059058,-0.780747z"/>
  <path class="fil15" d="M2.01034 10.0552c-0.179536,0.0507899 -0.398051,0.14292 -0.556327,0.305921 -0.166544,0.170087 -0.277573,0.446479 -0.226783,0.879965 0.693341,5.86328 0.796102,11.6191 0.796102,17.532l0.00236232 0.00826812c0,0.00354348 -0.105123,1.54968 1.76111,1.44338l0.0271667 -0.00236232 24.4984 -0.0496087 0.0271667 0.00236232c1.86623,0.106304 1.76111,-1.43983 1.76111,-1.44338l0.00236232 -0.00826812c0,-5.91289 0.102761,-11.6687 0.796102,-17.532 0.0507899,-0.433486 -0.0602392,-0.709877 -0.226783,-0.879965 -0.158276,-0.163 -0.37679,-0.255131 -0.556327,-0.305921l-8.69452 -0.0188986 0 0.0259855 -19.4112 0.0425218zm1.80363 21.1688l0 -0.00118116c-2.95763,0.153551 -2.7899,-2.43437 -2.7899,-2.44146l0.00236232 0c-0.0862247,-5.87982 -0.100399,-11.586 -0.791378,-17.4221 -0.0933117,-0.790196 0.150007,-1.33117 0.503174,-1.6926 0.342537,-0.349624 0.779566,-0.518529 1.1032,-0.596486l0.116935 -0.0165362 8.74649 -0.0188986 0 -0.073232 19.4632 0.0425218 0.116935 0.0165362c0.323638,0.0779566 0.760667,0.246863 1.1032,0.596486 0.353167,0.361435 0.596486,0.902407 0.503174,1.6926 -0.690979,5.83611 -0.705153,11.5423 -0.791378,17.4221l0.00236232 0c0,0.00708696 0.167725,2.59501 -2.7899,2.44146l0 0.00118116 -24.4984 0.0496087z"/>
  <path class="fil16" d="M2.01034 10.0552c-0.0779566,0.022442 -0.164181,0.0519711 -0.248044,0.0921305l0 -1.05714 0.0791378 -0.0200797 0.116935 -0.0165362 27.6344 -0.0602392 0 1.00162 -27.5825 0.0602392z"/>
  <path class="fil17" d="M15.4012 11.4584c4.26517,0 7.7992,3.14425 8.4075,7.24051l0 1.45283 0 1.06777c-0.608298,4.09626 -4.14233,7.24051 -8.4075,7.24051 -4.69393,0 -8.50081,-3.80688 -8.50081,-8.50081 0,-4.69393 3.80688,-8.50081 8.50081,-8.50081zm8.4075 7.24051c0.0614203,0.411044 0.0933117,0.831537 0.0933117,1.2603 0,0.428761 -0.0318913,0.849254 -0.0933117,1.2603l0 -2.5206z"/>
  <path class="fil18" d="M15.3787 19.5565l0.222058 -0.222058 0.236232 -0.131109 0.724051 -0.175993 0.394508 -0.0968552 0.138196 0.292928 0.095674 -0.022442 0.250406 0.0059058 0.487819 0.137015 0.164181 0.0826812 0.308283 0.230326 0.624834 0.15237 0.236232 0.131109 0.333087 0.333087 0.0448841 0.0543334 0.26458 0.353167 0.165362 0.165362 0.359073 0.0602392 0.259855 0 0.328363 0 0.0874059 0.204341 0.0212609 0.00472464 0.369703 0.0791378 0.0248044 0.380334 0.0389783 0.626015 0.0177174 0.302377 -0.262218 0.157094 -0.229145 0.135833 -0.0791378 0.473645 -0.059058 0.164181 -0.255131 0.450022 -0.00118116 0.00472464 -0.274029 0.471283 -0.106304 0.181899 -0.206703 0.0519711 -0.348442 0.0862247 -0.0744131 0.25395 -0.125203 0.212609c-0.00236232,0.00236232 -0.812638,0.981544 -1.3229,1.18589 -0.220877,0.088587 -0.548058,0.257493 -0.618928,0.294109l-0.256312 0.35671 -0.0755943 0.0826812 -0.445298 0.393326 -0.363797 0.320094 -0.330725 -0.353167 -0.277573 -0.296471 -0.201978 -0.216152 0.0933117 -0.279935 0.128746 -0.387421 0.141739 -0.511442 0.0165362 -0.525616 0.0059058 -0.0685073 0.15237 -0.879965c-0.135833,-0.0401595 -0.313008,-0.0980363 -0.558689,-0.34608l-0.00118116 -0.00118116c-0.192529,-0.192529 -0.542153,-0.777204 -0.660269,-0.979182l-0.362616 -0.418131 -0.14292 -0.165362 0.0236232 -0.214971 0.0389783 -0.350805 0.00354348 -0.0236232 0.0791378 -0.489 0.181899 -0.313008 0.188986 -0.150007c-0.201978,-0.55987 -0.222058,-0.729957 0.387421,-1.25321zm0.831537 0.581131l-0.138196 0.138196 -0.0283479 0.0259855c-0.131109,0.11221 -0.12166,0.14292 -0.0767754,0.265761l0.00236232 0.00826812 0.0838624 0.238594 0.116935 0.334268 -0.277573 0.220877 -0.318913 0.252768 -0.0448841 0.277573 -0.0141739 0.129928 0.248044 0.285841 0.0685073 0.102761c0,0 0.35671,0.633102 0.514986,0.790196l0.00118116 0.00118116c0.0779566,0.0779566 0.124022,0.0921305 0.157094,0.10158 0.259855,0.0720508 0.440573,0.131109 0.675624,0.707515l0.029529 0.271667 -0.171268 0.992175 -0.0177174 0.543334 -0.00354348 0.0271667c0.200797,-0.118116 0.60003,-0.348442 0.84453,-0.446479l0.00118116 0c0.059058,-0.022442 0.664993,-0.636646 0.896501,-0.874059l0.120478 -0.4075 0.0803189 -0.27521 0.278754 -0.0685073 0.419312 -0.103942 0.167725 -0.289384 0.00118116 0.00118116 0.207884 -0.367341 0.102761 -0.617747 0.0377971 -0.230326 0.200797 -0.118116 0.0980363 -0.0578769 -0.0850436 -0.0188986 -0.0318913 -0.0744131 -0.0437029 -0.00472464 -0.566957 -0.095674 -0.271667 -0.139377 -0.294109 -0.294109 -0.0448841 -0.0543334 -0.26458 -0.353167 -0.219696 -0.219696 -0.584674 -0.141739 -0.181899 -0.0862247 -0.313008 -0.23387 -0.27521 -0.0779566 -0.36616 0.0874059 -0.394508 0.0933117 -0.137015 -0.292928 -0.188986 0.0460653zm-0.680348 1.75639l-0.00118116 0.0059058"/>
  <path class="fil18" d="M16.3768 13.6802l-0.0519711 0.11221 -0.0437029 0.0767754 -0.0188986 0.0259855 0.00708696 0.022442 0.341355 0.250406 0.582312 0.42758 -0.605935 0.393326c-0.564595,0.367341 -0.564595,0.338993 -0.564595,0.350805 -0.0118116,0.194891 -0.0354348,0.503174 -0.516167,1.2036l-0.0401595 0.0507899 -0.613022 0.677986 -0.0165362 0.0177174 -0.29529 0.296471 -0.0437029 0.0744131 0.131109 -0.118116 0.236232 0.739406 0.164181 0.511442 0.120478 0.373247 -0.190167 0.116935 0.372066 0.797283 -0.676805 0.656725 -1.26857 -0.636646 -0.167725 -0.134652 -0.0448841 -0.0555145 -0.23387 -0.0106304 -0.390964 -0.128746 -0.197254 -0.12166 0.0626015 -0.0626015 -0.338993 0.0838624 -0.185442 -0.0377971 -0.979182 -0.395689 -0.288203 -0.116935 -0.0200797 -0.257493 -0.187805 0.00472464 -0.153551 -0.225602 -0.465377 -0.687435 -0.126384 -0.188986 0.0555145 -0.216152 0.0507899 -0.196073 -0.425218 -0.336631 -0.235051 -0.187805 0.0531522 -0.292928 0.115754 -0.627196 0.0755943 -0.190167 0.45829 -0.677986 0.0543334 -0.175993 0.12166 -0.205522c0.355529,-0.360254 0.846892,-0.687435 1.37723,-0.969733l0 -0.00236232c0.631921,-0.334268 1.33707,-0.613022 1.93238,-0.805551 0.578769,-0.20316 1.17407,-0.206703 1.67607,-0.14292 0.487819,0.0626015 0.884689,0.187805 1.09848,0.257493l0.533885 0.174812 -0.235051 0.50908zm-1.13746 0.251587l-0.0389783 -0.144102c-0.108667,-0.0236232 -0.22442,-0.0437029 -0.34608,-0.059058 -0.375609,-0.0472464 -0.815001,-0.0472464 -1.2225,0.095674l-0.0118116 0.00354348c-0.538609,0.173631 -1.18825,0.429942 -1.77883,0.74295l-0.00118116 -0.00236232c-0.401595,0.21379 -0.774841,0.455928 -1.05241,0.714602l-0.0389783 0.126384 -0.0626015 0.133471 -0.441754 0.653182 -0.0413406 0.225602 0.445298 0.351986 0.256312 0.201978 -0.0200797 0.0779566 0.00118116 0 0.218515 0.308283 0.0543334 0.100399 0.382696 0.927211 0.00708696 0.029529 0.576406 0.23387c0.0673261,-0.0236232 0.184261,-0.0614203 0.23387,-0.0708696l0 -0.00118116c0.249225,-0.0354348 0.496087,0.163 0.618928,0.279935l0.139377 0.0448841 0.0673261 -0.0153551 -0.290565 -0.501993 -0.0578769 -0.160638 -0.0602392 -0.327181 0.0248044 -0.274029 0.0578769 -0.146464 0.140558 -0.355529 0.379153 0.0437029 0.238594 0.0271667 0.0933117 -0.163 0.0791378 -0.103942 0.33545 -0.336631 0.582312 -0.643732c0.303558,-0.44766 0.314189,-0.584674 0.318913,-0.669718 0.0177174,-0.283479 0.0283479,-0.415768 0.457109,-0.740588l-0.128746 -0.187805 -0.114573 -0.418131zm-2.88794 5.718c0,0 0.383877,-0.11221 0.148826,-0.0791378l-0.0118116 0.00118116 -0.0744131 0.0153551 -0.0626015 0.0626015z"/>
  <path class="fil19" d="M15.9232 13.4711l-0.0519711 0.11221 -0.151189 0.217334 -0.252768 0.170087 0.367341 0.248044 0.480732 0.351986c-1.38904,0.901225 -0.304739,0.360254 -1.21896,1.68906l-0.613022 0.677986 -0.341355 0.342537 -0.257493 0.44766 0 0.00118116 -0.561051 -0.0649638 -0.0578769 0.146464 0.0602392 0.327181 0.381515 0.659088 0.153551 0.118116 0.52916 -0.480732 0.164181 0.511442 -0.236232 0.145283 0.55987 1.20124 0.505537 0.0283479 0.157094 0.0791378 -0.363797 0.382696 -1.5674 -1.12683 -0.235051 -0.296471 -0.278754 0.066145 -0.390964 -0.128746c0,0 -0.217334,-0.229145 -0.27521,-0.220877 -0.059058,0.00708696 -0.354348,0.0944928 -0.354348,0.0944928l-0.979182 -0.395689 -0.0153551 -0.196073 -0.382696 -0.927211 -0.218515 -0.308283 0.00472464 0.33545 0.403957 0.677986 -0.214971 0.0059058 -0.465377 -0.687435 0.13229 -0.510261 -0.68153 -0.538609 0.115754 -0.627196 0.497269 -0.735863 0.0779566 -0.251587c0.726414,-0.734682 2.09656,-1.32881 3.11826,-1.65835 0.988631,-0.347261 2.0564,-0.0106304 2.45563,0.118116zm-0.47837 6.68537l0.274029 -0.23387 0.235051 -0.235051 0.724051 -0.175993 0.137015 0.292928 0.490182 -0.116935 0.487819 0.137015 0.390964 0.292928 0.724051 0.175993 0.333087 0.333087 0.292928 0.390964 0.294109 0.294109 0.566957 0.095674 0.292928 0 0.059058 0.138196 0.274029 0.059058 0.0389783 0.626015 -0.429942 0.255131 -0.116935 0.70279 -0.255131 0.450022 -0.274029 0.471283 -0.626015 0.155913 -0.155913 0.527979c0,0 -0.862247,0.959102 -1.15517,1.07604 -0.294109,0.118116 -0.800827,0.411044 -0.800827,0.411044l-0.29529 0.412225 -0.445298 0.393326 -0.277573 -0.296471 0.137015 -0.411044 0.157094 -0.568138 0.0188986 -0.585856 0.175993 -1.01816 -0.175993 -0.431124c0,0 -0.351986,-0.0177174 -0.546877,-0.21379 -0.197254,-0.196073 -0.608298,-0.920124 -0.608298,-0.920124l-0.390964 -0.451203 0.0389783 -0.350805 0.0791378 -0.489 0.468921 -0.372066 -0.214971 -0.644914 0.0779566 -0.177174z"/>
  <path class="fil20" d="M15.4012 11.4584c4.69393,0 8.50081,3.80688 8.50081,8.50081 0,4.69393 -3.80688,8.50081 -8.50081,8.50081 -4.69393,0 -8.50081,-3.80688 -8.50081,-8.50081 0,-4.69393 3.80688,-8.50081 8.50081,-8.50081zm5.30814 3.1974l-0.00472464 -0.00472464c-1.35833,-1.35479 -3.23402,-2.19342 -5.30341,-2.19342 -2.06939,0 -3.94508,0.838624 -5.30341,2.19342l-0.00472464 0.00472464c-1.35479,1.35833 -2.19342,3.23402 -2.19342,5.30341 0,2.06939 0.838624,3.94508 2.19342,5.30341l0.00472464 0.00472464c1.35833,1.35479 3.23402,2.19342 5.30341,2.19342 2.06939,0 3.94508,-0.838624 5.30341,-2.19342l0.00472464 -0.00472464c1.35479,-1.35833 2.19342,-3.23402 2.19342,-5.30341 0,-2.06939 -0.838624,-3.94508 -2.19342,-5.30341z"/>
  <path class="fil21" d="M23.8087 20.1518c0,29.1463 0,-29.1451 0,0z"/>
  <path class="fil22" d="M15.9728 13.3719l-0.0519711 0.11221 -0.151189 0.217334 -0.252768 0.170087 0.26458 0.178355c-0.513805,-0.134652 -1.31345,-0.266942 -2.06585,-0.00236232 -1.0217,0.329544 -2.39185,0.923668 -3.11826,1.65835l-0.0779566 0.251587 -0.497269 0.735863 -0.0129928 0.0708696 -0.301196 -0.237413 0.115754 -0.627196 0.497269 -0.735863 0.0779566 -0.251587c0.726414,-0.734682 2.09656,-1.32881 3.11826,-1.65835 0.988631,-0.347261 2.0564,-0.0106304 2.45563,0.118116zm0.140558 0.915399l0.251587 0.184261c-0.205522,0.133471 -0.357892,0.235051 -0.468921,0.316551l-0.180718 -0.122841 0.252768 -0.170087 0.145283 -0.207884z"/>
  <path class="fil22" d="M15.27 20.1093l0.157094 0.0791378 -0.157094 -0.0791378zm0 0.327181l0.105123 0.0531522 -0.105123 -0.0531522zm5.65658 1.59457l0.0200797 0.31537 -0.2445 0.145283 -0.167725 -0.036616 -0.059058 -0.138196 -0.292928 0 -0.566957 -0.095674 -0.294109 -0.294109 -0.292928 -0.390964 -0.333087 -0.333087 -0.724051 -0.175993 -0.390964 -0.292928 -0.487819 -0.137015 -0.490182 0.116935 -0.137015 -0.292928 -0.724051 0.175993 -0.235051 0.235051 -0.0980363 0.0826812 -0.154732 -0.465377 0.0614203 -0.140558 -0.0614203 -0.186623 0.0779566 -0.177174 0.274029 -0.23387 0.235051 -0.235051 0.724051 -0.175993 0.137015 0.292928 0.490182 -0.116935 0.487819 0.137015 0.390964 0.292928 0.724051 0.175993 0.333087 0.333087 0.292928 0.390964 0.294109 0.294109 0.566957 0.095674 0.292928 0 0.059058 0.138196 0.274029 0.059058 0.0389783 0.626015 -0.0200797 0.0118116z"/>
 </g>
</svg>
