<?xml version="1.0" encoding="UTF-8" standalone="no"?>
<!-- Created with Inkscape (http://www.inkscape.org/) -->

<svg
   xmlns:dc="http://purl.org/dc/elements/1.1/"
   xmlns:cc="http://creativecommons.org/ns#"
   xmlns:rdf="http://www.w3.org/1999/02/22-rdf-syntax-ns#"
   xmlns:svg="http://www.w3.org/2000/svg"
   xmlns="http://www.w3.org/2000/svg"
   xmlns:sodipodi="http://sodipodi.sourceforge.net/DTD/sodipodi-0.dtd"
   xmlns:inkscape="http://www.inkscape.org/namespaces/inkscape"
   width="128"
   height="128"
   id="svg2"
   version="1.1"
   inkscape:version="0.48.3.1 r9886"
   sodipodi:docname="128.svg">
  <defs
     id="defs4">
    <linearGradient
       gradientTransform="translate(25.5,55.499)"
       y2="21"
       x2="0"
       y1="0"
       x1="0"
       gradientUnits="userSpaceOnUse"
       id="LinearGradient_17">
      <stop
         id="stop3426"
         stop-color="#105ea4"
         offset="0" />
      <stop
         id="stop3428"
         stop-color="#afdbff"
         offset="1" />
    </linearGradient>
    <linearGradient
       gradientTransform="translate(58.5,55.499)"
       y2="33"
       x2="0"
       y1="0"
       x1="0"
       gradientUnits="userSpaceOnUse"
       id="LinearGradient_16">
      <stop
         id="stop3421"
         stop-color="#3c3d41"
         offset="0" />
      <stop
         id="stop3423"
         stop-color="#2e2c2c"
         offset="1" />
    </linearGradient>
    <linearGradient
       gradientTransform="translate(88.5,92.999)"
       y2="1.5"
       x2="-6"
       y1="0"
       x1="0"
       gradientUnits="userSpaceOnUse"
       id="LinearGradient_15">
      <stop
         id="stop3414"
         stop-color="#c9c9c9"
         offset="0" />
      <stop
         id="stop3416"
         stop-color="#eeeeee"
         offset="0.464761912822723" />
      <stop
         id="stop3418"
         stop-color="#c9c9c9"
         offset="1" />
    </linearGradient>
    <linearGradient
       gradientTransform="translate(7.5,92.999)"
       y2="1.5"
       x2="6"
       y1="0"
       x1="0"
       gradientUnits="userSpaceOnUse"
       id="LinearGradient_14">
      <stop
         id="stop3407"
         stop-color="#c9c9c9"
         offset="0" />
      <stop
         id="stop3409"
         stop-color="#eeeeee"
         offset="0.418333321809769" />
      <stop
         id="stop3411"
         stop-color="#c9c9c9"
         offset="1" />
    </linearGradient>
    <linearGradient
       gradientTransform="translate(43.5,93.749)"
       y2="-91.5"
       x2="0"
       y1="0"
       x1="0"
       gradientUnits="userSpaceOnUse"
       id="LinearGradient_13">
      <stop
         id="stop3398"
         stop-color="#f5f5f5"
         offset="0" />
      <stop
         id="stop3400"
         stop-color="#c7c7c7"
         offset="9.79200005531311E-02" />
      <stop
         id="stop3402"
         stop-color="#c3c3c3"
         offset="0.985639333724976" />
      <stop
         id="stop3404"
         stop-color="#b4b4b4"
         offset="1" />
    </linearGradient>
    <linearGradient
       gradientTransform="translate(33.009,30.749)"
       y2="-3"
       x2="0"
       y1="0"
       x1="0"
       gradientUnits="userSpaceOnUse"
       id="LinearGradient_12">
      <stop
         id="stop3393"
         stop-color="#8c8c8c"
         offset="0" />
      <stop
         id="stop3395"
         stop-color="#555555"
         offset="1" />
    </linearGradient>
    <linearGradient
       gradientTransform="matrix(0,-1,1,0,62.991,30.743)"
       y2="0"
       x2="3"
       y1="0"
       x1="0"
       gradientUnits="userSpaceOnUse"
       id="LinearGradient_11">
      <stop
         id="stop3388"
         stop-color="#8c8c8c"
         offset="0" />
      <stop
         id="stop3390"
         stop-color="#555555"
         offset="1" />
    </linearGradient>
    <linearGradient
       gradientTransform="translate(50.25,48.749)"
       y2="-3.75"
       x2="0"
       y1="0"
       x1="0"
       gradientUnits="userSpaceOnUse"
       id="LinearGradient_10">
      <stop
         id="stop3383"
         stop-color="#7e7e7e"
         offset="0" />
      <stop
         id="stop3385"
         stop-color="#555555"
         offset="1" />
    </linearGradient>
    <linearGradient
       gradientTransform="translate(48,13.499)"
       y2="-4.5"
       x2="0"
       y1="0"
       x1="0"
       gradientUnits="userSpaceOnUse"
       id="LinearGradient_9">
      <stop
         id="stop3378"
         stop-color="#8c8c8c"
         offset="0" />
      <stop
         id="stop3380"
         stop-color="#555555"
         offset="1" />
    </linearGradient>
    <linearGradient
       gradientTransform="translate(44.25,55.499)"
       y2="33.75"
       x2="0"
       y1="0"
       x1="0"
       gradientUnits="userSpaceOnUse"
       id="LinearGradient_8">
      <stop
         id="stop3373"
         stop-color="#222222"
         offset="0" />
      <stop
         id="stop3375"
         stop-color="#707070"
         offset="1" />
    </linearGradient>
    <linearGradient
       gradientTransform="translate(45.75,89.999)"
       y2="-36"
       x2="0"
       y1="0"
       x1="0"
       gradientUnits="userSpaceOnUse"
       id="LinearGradient_7">
      <stop
         id="stop3366"
         stop-color="#363738"
         offset="0" />
      <stop
         id="stop3368"
         stop-color="#bbbbbb"
         offset="0.956200003623962" />
      <stop
         id="stop3370"
         stop-color="#ffffff"
         offset="1" />
    </linearGradient>
    <linearGradient
       gradientTransform="translate(46.327,8.422)"
       y2="41.827"
       x2="0.836"
       y1="0"
       x1="0"
       gradientUnits="userSpaceOnUse"
       id="LinearGradient_6">
      <stop
         id="stop3361"
         stop-color="#ffffff"
         offset="0" />
      <stop
         id="stop3363"
         stop-color="#828282"
         offset="1" />
    </linearGradient>
    <linearGradient
       gradientTransform="translate(47.225,50.974)"
       y2="-34.875"
       x2="0"
       y1="0"
       x1="0"
       gradientUnits="userSpaceOnUse"
       id="LinearGradient_5">
      <stop
         id="stop3356"
         stop-color="#e5e5e5"
         offset="0" />
      <stop
         id="stop3358"
         stop-color="#8f8f8f"
         offset="1" />
    </linearGradient>
    <linearGradient
       gradientTransform="translate(48,15.749)"
       y2="23.25"
       x2="0"
       y1="0"
       x1="0"
       gradientUnits="userSpaceOnUse"
       id="LinearGradient_4">
      <stop
         id="stop3351"
         stop-color="#ffffff"
         offset="0" />
      <stop
         id="stop3353"
         stop-color="#8b8b8b"
         offset="1" />
    </linearGradient>
    <linearGradient
       gradientTransform="translate(48.75,24.749)"
       y2="6.75"
       x2="0"
       y1="0"
       x1="0"
       gradientUnits="userSpaceOnUse"
       id="LinearGradient_3">
      <stop
         id="stop3346"
         stop-color="#555555"
         offset="0" />
      <stop
         id="stop3348"
         stop-color="#8c8c8c"
         offset="1" />
    </linearGradient>
    <linearGradient
       gradientTransform="translate(46.5,22.499)"
       y2="0.657"
       x2="-0.432"
       y1="0"
       x1="0"
       gradientUnits="userSpaceOnUse"
       id="LinearGradient_2">
      <stop
         id="stop3341"
         stop-color="#cfcfcf"
         offset="0" />
      <stop
         id="stop3343"
         stop-color="#afafaf"
         offset="1" />
    </linearGradient>
    <linearGradient
       gradientTransform="translate(39,93.749)"
       y2="-90"
       x2="0"
       y1="0"
       x1="0"
       gradientUnits="userSpaceOnUse"
       id="LinearGradient_1">
      <stop
         id="stop3336"
         stop-color="#c9c9c9"
         offset="0" />
      <stop
         id="stop3338"
         stop-color="#b0b0b0"
         offset="1" />
    </linearGradient>
    <linearGradient
       gradientTransform="translate(39.75,95.999)"
       y2="-93.75"
       x2="0"
       y1="0"
       x1="0"
       gradientUnits="userSpaceOnUse"
       id="LinearGradient">
      <stop
         id="stop3331"
         stop-color="#878b8e"
         offset="0" />
      <stop
         id="stop3333"
         stop-color="#818689"
         offset="1" />
    </linearGradient>
  </defs>
  <sodipodi:namedview
     id="base"
     pagecolor="#ffffff"
     bordercolor="#666666"
     borderopacity="1.0"
     inkscape:pageopacity="0.0"
     inkscape:pageshadow="2"
     inkscape:zoom="2.646"
     inkscape:cx="67.876039"
     inkscape:cy="64.474679"
     inkscape:document-units="px"
     inkscape:current-layer="layer1"
     showgrid="false"
     inkscape:window-width="860"
     inkscape:window-height="523"
     inkscape:window-x="793"
     inkscape:window-y="313"
     inkscape:window-maximized="0" />
  <metadata
     id="metadata7">
    <rdf:RDF>
      <cc:Work
         rdf:about="">
        <dc:format>image/svg+xml</dc:format>
        <dc:type
           rdf:resource="http://purl.org/dc/dcmitype/StillImage" />
        <dc:title />
      </cc:Work>
    </rdf:RDF>
  </metadata>
  <g
     inkscape:label="Layer 1"
     inkscape:groupmode="layer"
     id="layer1"
     transform="translate(0,-924.36218)">
    <g
       style="fill-rule:evenodd;stroke-width:0.50099999;stroke-linejoin:bevel;overflow:visible"
       id="g3616"
       transform="matrix(1.3333333,0,0,1.3333611,1.6e-6,924.35951)">
      <g
         transform="scale(1,-1)"
         font-size="16"
         id="Document"
         style="font-size:16px;fill:none;stroke:#000000;font-family:Times New Roman">
        <g
           transform="translate(0,-96)"
           id="Spread">
          <g
             id="MouseOff">
            <g
               id="Group"
               style="stroke:none">
              <g
                 stroke-miterlimit="79.8403193612775"
                 id="Group_1"
                 style="fill:#494a4f">
                <path
                   id="path3435"
                   d="m 5.251,1.5 0,-10e-4 C 5.251,0.672 6.443,0 7.91,0 l 80.181,0 c 1.467,0 2.659,0.672 2.659,1.499 l 0,10e-4 c 0,0.827 -1.192,1.499 -2.659,1.499 l -80.181,0 C 6.443,2.999 5.251,2.327 5.251,1.5 z"
                   inkscape:connector-curvature="0"
                   style="fill-opacity:0.05490202;marker-start:none;marker-end:none" />
                <path
                   id="path3437"
                   d="m 5.625,1.562 0,-0.001 c 0,-0.793 1.192,-1.437 2.659,-1.437 l 79.432,0 c 1.467,0 2.659,0.644 2.659,1.437 l 0,0.001 c 0,0.792 -1.192,1.437 -2.659,1.437 l -79.432,0 C 6.817,2.999 5.625,2.354 5.625,1.562 z"
                   inkscape:connector-curvature="0"
                   style="fill-opacity:0.07450998;marker-start:none;marker-end:none" />
                <path
                   id="path3439"
                   d="M 6,1.624 6,1.623 C 6,0.865 7.192,0.249 8.659,0.249 l 78.682,0 C 88.808,0.249 90,0.865 90,1.623 l 0,0.001 c 0,0.758 -1.192,1.375 -2.659,1.375 l -78.682,0 C 7.192,2.999 6,2.382 6,1.624 z"
                   inkscape:connector-curvature="0"
                   style="fill-opacity:0.09411801;marker-start:none;marker-end:none" />
                <path
                   id="path3441"
                   d="m 6.375,1.687 0,-0.001 c 0,-0.724 1.192,-1.312 2.659,-1.312 l 77.932,0 c 1.467,0 2.659,0.588 2.659,1.312 l 0,0.001 c 0,0.724 -1.192,1.312 -2.659,1.312 l -77.932,0 C 7.567,2.999 6.375,2.411 6.375,1.687 z"
                   inkscape:connector-curvature="0"
                   style="fill-opacity:0.10980398;marker-start:none;marker-end:none" />
                <path
                   id="path3443"
                   d="m 6.75,1.749 0,-0.001 c 0,-0.69 1.192,-1.25 2.659,-1.25 l 77.182,0 c 1.467,0 2.659,0.56 2.659,1.25 l 0,0.001 c 0,0.689 -1.192,1.25 -2.659,1.25 l -77.182,0 C 7.942,2.999 6.75,2.438 6.75,1.749 z"
                   inkscape:connector-curvature="0"
                   style="fill-opacity:0.129412;marker-start:none;marker-end:none" />
                <path
                   id="path3445"
                   d="m 7.125,1.811 0,-10e-4 c 0,-0.655 1.192,-1.187 2.659,-1.187 l 76.432,0 c 1.467,0 2.659,0.532 2.659,1.187 l 0,10e-4 c 0,0.655 -1.192,1.188 -2.659,1.188 l -76.432,0 C 8.317,2.999 7.125,2.466 7.125,1.811 z"
                   inkscape:connector-curvature="0"
                   style="fill-opacity:0.14902003;marker-start:none;marker-end:none" />
                <path
                   id="path3447"
                   d="m 7.5,1.874 0,-0.001 c 0,-0.621 1.192,-1.125 2.659,-1.125 l 75.683,0 c 1.467,0 2.659,0.504 2.659,1.125 l 0,0.001 c 0,0.621 -1.192,1.125 -2.659,1.125 l -75.683,0 C 8.692,2.999 7.5,2.495 7.5,1.874 z"
                   inkscape:connector-curvature="0"
                   style="fill-opacity:0.164706;marker-start:none;marker-end:none" />
              </g>
              <path
                 id="path3449"
                 stroke-miterlimit="79.8403193612775"
                 d="m 5.25,90.859 0,-84.221 c 0,-2.836 2.303,-5.139 5.139,-5.139 l 75.221,0 c 2.836,0 5.139,2.303 5.139,5.139 l 0,84.221 c 0,2.836 -2.303,5.139 -5.139,5.139 l -75.221,0 c -2.836,0 -5.139,-2.303 -5.139,-5.139 z"
                 inkscape:connector-curvature="0"
                 style="fill:url(#LinearGradient);stroke-width:0.32600001;marker-start:none;marker-end:none" />
              <path
                 id="path3451"
                 stroke-miterlimit="79.8403193612775"
                 d="m 6.001,6.639 0,84.221 c 0,2.421 1.967,4.389 4.389,4.389 l 75.221,0 C 88.032,95.249 90,93.281 90,90.86 L 90,6.639 C 90,4.217 88.032,2.25 85.611,2.25 l -75.221,0 c -2.422,0 -4.389,1.967 -4.389,4.389 z"
                 inkscape:connector-curvature="0"
                 style="fill:url(#LinearGradient_1);stroke-width:0.32600001;marker-start:none;marker-end:none" />
              <path
                 id="path3453"
                 stroke-miterlimit="79.8403193612775"
                 d="m 42.743,21.602 0,13.794 c 0,1.223 1.093,1.696 2.06,1.088 l 10.721,-6.776 c 0.969,-0.612 0.968,-1.808 0,-2.42 L 44.803,20.513 c -0.952,-0.599 -2.06,-0.114 -2.06,1.089 z"
                 inkscape:connector-curvature="0"
                 style="fill:url(#LinearGradient_2);stroke-width:0.25299999;marker-start:none;marker-end:none" />
              <path
                 id="path3455"
                 stroke-miterlimit="79.8403193612775"
                 d="m 44.403,21.148 10.721,6.775 c 0.502,0.317 0.502,0.834 0,1.151 L 44.403,35.85 c -0.502,0.316 -0.91,0.114 -0.91,-0.454 l 0,-13.794 c 0,-0.568 0.408,-0.77 0.91,-0.454 z"
                 inkscape:connector-curvature="0"
                 style="fill:url(#LinearGradient_3);stroke-width:0.25299999;marker-start:none;marker-end:none" />
              <path
                 id="path3457"
                 stroke-miterlimit="79.8403193612775"
                 d="M 6,30.678 6.001,88.61 c 0,2.421 1.967,4.389 4.389,4.389 l 75.221,0 C 88.032,92.999 90,91.031 90,88.61 l 0,-57.931 c -12.618,-1.395 -26.89,-2.18 -42,-2.18 -15.111,0 -29.383,0.784 -42,2.179 z"
                 inkscape:connector-curvature="0"
                 style="fill:#ffffff;fill-opacity:0.12549002;stroke-width:0.168;marker-start:none;marker-end:none" />
              <path
                 id="path3459"
                 stroke-miterlimit="79.8403193612775"
                 d="m 34.5,28.499 c 0,7.452 6.048,13.5 13.5,13.5 7.452,0 13.5,-6.048 13.5,-13.5 0,-7.452 -6.048,-13.5 -13.5,-13.5 -7.452,0 -13.5,6.048 -13.5,13.5 z m 24.75,0 c 0,6.21 -5.04,11.25 -11.25,11.25 -6.21,0 -11.25,-5.04 -11.25,-11.25 0,-6.21 5.04,-11.25 11.25,-11.25 6.21,0 11.25,5.04 11.25,11.25 z"
                 inkscape:connector-curvature="0"
                 style="fill:url(#LinearGradient_4);stroke-width:0.21699999;marker-start:none;marker-end:none" />
              <path
                 id="path3461"
                 stroke-miterlimit="79.8403193612775"
                 d="m 24.75,28.499 c 0,12.834 10.416,23.25 23.25,23.25 12.834,0 23.25,-10.416 23.25,-23.25 0,-12.834 -10.416,-23.25 -23.25,-23.25 -12.834,0 -23.25,10.416 -23.25,23.25 z m 43.4,0 c 0,11.123 -9.027,20.15 -20.15,20.15 -11.123,0 -20.15,-9.027 -20.15,-20.15 0,-11.123 9.027,-20.15 20.15,-20.15 11.123,0 20.15,9.027 20.15,20.15 z"
                 inkscape:connector-curvature="0"
                 style="fill:url(#LinearGradient_5);stroke-width:0.37400001;marker-start:none;marker-end:none" />
              <path
                 id="path3463"
                 stroke-miterlimit="79.8403193612775"
                 d="m 26.25,28.499 c 0,12.006 9.744,21.75 21.75,21.75 12.006,0 21.75,-9.744 21.75,-21.75 0,-12.006 -9.744,-21.75 -21.75,-21.75 -12.006,0 -21.75,9.744 -21.75,21.75 z m 34.5,0 c 0,7.038 -5.712,12.75 -12.75,12.75 -7.038,0 -12.75,-5.712 -12.75,-12.75 0,-7.038 5.712,-12.75 12.75,-12.75 7.038,0 12.75,5.712 12.75,12.75 z"
                 inkscape:connector-curvature="0"
                 style="fill:url(#LinearGradient_6);stroke-width:0.34999999;marker-start:none;marker-end:none" />
              <path
                 id="path3465"
                 stroke-miterlimit="79.8403193612775"
                 d="m 9.75,88.465 0,-32.931 c 0,-0.847 0.688,-1.535 1.535,-1.535 l 73.429,0 c 0.847,0 1.535,0.688 1.535,1.535 l 0,32.931 C 86.249,89.312 85.561,90 84.714,90 L 11.285,90 C 10.438,90 9.75,89.312 9.75,88.465 z"
                 inkscape:connector-curvature="0"
                 style="fill:url(#LinearGradient_7);stroke-width:0.32600001;marker-start:none;marker-end:none" />
              <path
                 id="path3467"
                 stroke-miterlimit="79.8403193612775"
                 d="m 10.499,88.388 0,-32.777 c 0,-0.475 0.386,-0.861 0.861,-0.861 l 73.279,0 c 0.475,0 0.861,0.386 0.861,0.861 l 0,32.777 c 0,0.475 -0.386,0.861 -0.861,0.861 l -73.279,0 c -0.475,0 -0.861,-0.386 -0.861,-0.861 z"
                 inkscape:connector-curvature="0"
                 style="fill:url(#LinearGradient_8);stroke-width:0.32600001;marker-start:none;marker-end:none" />
              <path
                 id="path3469"
                 stroke-miterlimit="79.8403193612775"
                 d="m 45,12.488 0,-2.48 c 0,-0.971 0.789,-1.76 1.76,-1.76 l 2.48,0 c 0.971,0 1.76,0.789 1.76,1.76 l 0,2.48 c 0,0.971 -0.789,1.76 -1.76,1.76 l -2.48,0 c -0.971,0 -1.76,-0.789 -1.76,-1.76 z"
                 inkscape:connector-curvature="0"
                 style="fill:url(#LinearGradient_9);stroke-width:0.168;marker-start:none;marker-end:none" />
              <path
                 id="path3471"
                 stroke-miterlimit="79.8403193612775"
                 d="m 45,42.858 0,4.283 C 45,47.615 45.385,48 45.859,48 l 0.533,0 c 0.474,0 0.859,-0.385 0.859,-0.859 l 0,-4.283 c 0,-0.474 -0.385,-0.859 -0.859,-0.859 l -0.533,0 C 45.385,41.999 45,42.384 45,42.858 z m 3.752,0.001 0,4.283 c 0,0.474 0.385,0.859 0.859,0.859 l 0.531,0 c 0.474,0 0.859,-0.385 0.859,-0.859 l 0,-4.283 C 51.001,42.385 50.616,42 50.142,42 l -0.531,0 c -0.474,0 -0.859,0.385 -0.859,0.859 z"
                 inkscape:connector-curvature="0"
                 style="fill:#ababab;stroke-width:0.168;marker-start:none;marker-end:none" />
              <path
                 id="path3473"
                 stroke-miterlimit="79.8403193612775"
                 d="m 44.999,43.606 0,4.283 c 0,0.474 0.385,0.859 0.859,0.859 l 0.533,0 c 0.474,0 0.859,-0.385 0.859,-0.859 l 0,-4.283 c 0,-0.474 -0.385,-0.859 -0.859,-0.859 l -0.533,0 c -0.474,0 -0.859,0.385 -0.859,0.859 z m 3.752,10e-4 0,4.283 c 0,0.474 0.385,0.859 0.859,0.859 l 0.531,0 C 50.615,48.749 51,48.364 51,47.89 l 0,-4.283 c 0,-0.474 -0.385,-0.859 -0.859,-0.859 l -0.531,0 c -0.474,0 -0.859,0.385 -0.859,0.859 z"
                 inkscape:connector-curvature="0"
                 style="fill:url(#LinearGradient_10);stroke-width:0.168;marker-start:none;marker-end:none" />
              <path
                 id="path3475"
                 stroke-miterlimit="79.8403193612775"
                 d="m 64.496,25.232 0,0.982 -1.576,-1.286 c -0.369,-0.301 -0.67,-0.159 -0.67,0.319 l 0,5.025 c 0,0.478 0.301,0.62 0.67,0.319 l 1.576,-1.288 0,0.954 c 0,0.478 0.301,0.62 0.67,0.319 l 2.798,-2.285 c 0.369,-0.301 0.369,-0.793 0,-1.094 l -2.798,-2.284 c -0.369,-0.301 -0.67,-0.159 -0.67,0.319 z"
                 inkscape:connector-curvature="0"
                 style="fill:#dedede;stroke-width:0.168;marker-start:none;marker-end:none" />
              <path
                 id="path3477"
                 stroke-miterlimit="79.8403193612775"
                 d="m 64.496,25.976 0,0.982 -1.576,-1.286 c -0.369,-0.301 -0.67,-0.159 -0.67,0.319 l 0,5.025 c 0,0.478 0.301,0.62 0.67,0.319 l 1.576,-1.288 0,0.954 c 0,0.478 0.301,0.62 0.67,0.319 l 2.798,-2.285 c 0.369,-0.301 0.369,-0.793 0,-1.094 l -2.798,-2.284 c -0.369,-0.301 -0.67,-0.159 -0.67,0.319 z"
                 inkscape:connector-curvature="0"
                 style="fill:url(#LinearGradient_11);stroke-width:0.168;marker-start:none;marker-end:none" />
              <path
                 id="path3479"
                 stroke-miterlimit="79.8403193612775"
                 d="m 67.786,28.296 0.233,0.293 -2.925,2.325 -0.233,-0.293 2.925,-2.325 z"
                 inkscape:connector-curvature="0"
                 style="fill:#b8b8b8;fill-rule:evenodd;stroke-width:0.5;marker-start:none;marker-end:none" />
              <path
                 id="path3481"
                 stroke-miterlimit="79.8403193612775"
                 d="m 64.339,29.568 0.227,0.299 -1.875,1.425 -0.227,-0.299 1.875,-1.425 z"
                 inkscape:connector-curvature="0"
                 style="fill:#c3c3c3;fill-rule:evenodd;stroke-width:0.5;marker-start:none;marker-end:none" />
              <path
                 id="path3483"
                 stroke-miterlimit="79.8403193612775"
                 d="m 31.495,25.232 0,0.982 1.576,-1.286 c 0.369,-0.301 0.67,-0.159 0.67,0.319 l 0,5.025 c 0,0.478 -0.301,0.62 -0.67,0.319 l -1.576,-1.288 0,0.954 c 0,0.478 -0.301,0.62 -0.67,0.319 l -2.798,-2.285 c -0.369,-0.301 -0.369,-0.793 0,-1.094 l 2.798,-2.284 c 0.369,-0.301 0.67,-0.159 0.67,0.319 z"
                 inkscape:connector-curvature="0"
                 style="fill:#dedede;stroke-width:0.168;marker-start:none;marker-end:none" />
              <path
                 id="path3485"
                 stroke-miterlimit="79.8403193612775"
                 d="m 31.504,25.982 0,0.982 1.576,-1.286 c 0.369,-0.301 0.67,-0.159 0.67,0.319 l 0,5.025 c 0,0.478 -0.301,0.62 -0.67,0.319 l -1.576,-1.288 0,0.954 c 0,0.478 -0.301,0.62 -0.67,0.319 l -2.798,-2.285 c -0.369,-0.301 -0.369,-0.793 0,-1.094 l 2.798,-2.284 c 0.369,-0.301 0.67,-0.159 0.67,0.319 z"
                 inkscape:connector-curvature="0"
                 style="fill:url(#LinearGradient_12);stroke-width:0.168;marker-start:none;marker-end:none" />
              <path
                 id="path3487"
                 stroke-miterlimit="79.8403193612775"
                 d="m 28.214,28.302 -0.233,0.293 2.925,2.325 0.233,-0.293 -2.925,-2.325 z"
                 inkscape:connector-curvature="0"
                 style="fill:#b8b8b8;fill-rule:evenodd;stroke-width:0.5;marker-start:none;marker-end:none" />
              <path
                 id="path3489"
                 stroke-miterlimit="79.8403193612775"
                 d="m 31.661,29.574 -0.227,0.299 1.875,1.425 0.227,-0.299 -1.875,-1.425 z"
                 inkscape:connector-curvature="0"
                 style="fill:#c3c3c3;fill-rule:evenodd;stroke-width:0.5;marker-start:none;marker-end:none" />
              <path
                 id="path3491"
                 stroke-miterlimit="79.8403193612775"
                 d="m 6,6.638 0,82.721 c 0,2.421 1.967,4.389 4.389,4.389 l 75.221,0 c 2.421,0 4.389,-1.968 4.389,-4.389 l 0,-82.721 c 0,-2.422 -1.968,-4.389 -4.389,-4.389 l -75.221,0 C 7.967,2.249 6,4.216 6,6.638 z m 83.249,0 0,82.721 c 0,2.006 -1.633,3.639 -3.639,3.639 l -75.221,0 c -2.008,0 -3.639,-1.633 -3.639,-3.639 l 0,-82.721 c 0,-2.008 1.631,-3.639 3.639,-3.639 l 75.221,0 c 2.006,0 3.639,1.631 3.639,3.639 z"
                 inkscape:connector-curvature="0"
                 style="fill:url(#LinearGradient_13);stroke-width:0.32600001;marker-start:none;marker-end:none" />
              <path
                 id="path3493"
                 stroke-miterlimit="79.8403193612775"
                 d="m 6,89.359 0,1.5 c 0,2.421 1.967,4.389 4.389,4.389 l 15.111,0 0,-1.5 -15.111,0 C 7.967,93.748 6,91.78 6,89.359 z"
                 inkscape:connector-curvature="0"
                 style="fill:url(#LinearGradient_14);stroke-width:0.32600001;marker-start:none;marker-end:none" />
              <path
                 id="path3495"
                 stroke-miterlimit="79.8403193612775"
                 d="m 85.61,93.748 -10.61,0 0,1.5 10.61,0 c 2.421,0 4.389,-1.968 4.389,-4.389 l 0,-1.5 c 0,2.421 -1.968,4.389 -4.389,4.389 z"
                 inkscape:connector-curvature="0"
                 style="fill:url(#LinearGradient_15);stroke-width:0.32600001;marker-start:none;marker-end:none" />
              <path
                 id="path3497"
                 stroke-miterlimit="79.8403193612775"
                 d="m 11.25,56.135 0,1.727 c 0,0.351 0.285,0.636 0.636,0.636 l 6.227,0 c 0.351,0 0.636,-0.285 0.636,-0.636 l 0,-1.727 c 0,-0.351 -0.285,-0.636 -0.636,-0.636 l -6.227,0 c -0.351,0 -0.636,0.285 -0.636,0.636 z m 24.75,0 0,1.727 c 0,0.351 0.285,0.636 0.636,0.636 l 6.227,0 c 0.351,0 0.636,-0.285 0.636,-0.636 l 0,-1.727 c 0,-0.351 -0.285,-0.636 -0.636,-0.636 l -6.227,0 C 36.285,55.499 36,55.784 36,56.135 z m 16.5,0 0,1.727 c 0,0.351 0.285,0.636 0.636,0.636 l 6.227,0 c 0.351,0 0.636,-0.285 0.636,-0.636 l 0,-1.727 c 0,-0.351 -0.285,-0.636 -0.636,-0.636 l -6.227,0 c -0.351,0 -0.636,0.285 -0.636,0.636 z m 16.5,0 0,1.727 c 0,0.351 0.285,0.636 0.636,0.636 l 6.227,0 c 0.351,0 0.636,-0.285 0.636,-0.636 l 0,-1.727 c 0,-0.351 -0.285,-0.636 -0.636,-0.636 l -6.227,0 C 69.285,55.499 69,55.784 69,56.135 z m -49.5,0.001 0,1.727 c 0,0.351 0.285,0.636 0.636,0.636 l 6.227,0 c 0.351,0 0.636,-0.285 0.636,-0.636 l 0,-1.727 c 0,-0.351 -0.285,-0.636 -0.636,-0.636 l -6.227,0 c -0.351,0 -0.636,0.285 -0.636,0.636 z m 8.25,0 0,1.727 c 0,0.351 0.285,0.636 0.636,0.636 l 6.227,0 c 0.351,0 0.636,-0.285 0.636,-0.636 l 0,-1.727 c 0,-0.351 -0.285,-0.636 -0.636,-0.636 l -6.227,0 c -0.351,0 -0.636,0.285 -0.636,0.636 z m 16.5,0 0,1.727 c 0,0.351 0.285,0.636 0.636,0.636 l 6.227,0 c 0.351,0 0.636,-0.285 0.636,-0.636 l 0,-1.727 c 0,-0.351 -0.285,-0.636 -0.636,-0.636 l -6.227,0 c -0.351,0 -0.636,0.285 -0.636,0.636 z m 16.5,0 0,1.727 c 0,0.351 0.285,0.636 0.636,0.636 l 6.227,0 c 0.351,0 0.636,-0.285 0.636,-0.636 l 0,-1.727 c 0,-0.351 -0.285,-0.636 -0.636,-0.636 l -6.227,0 c -0.351,0 -0.636,0.285 -0.636,0.636 z m 16.5,0 0,1.727 c 0,0.351 0.285,0.636 0.636,0.636 l 6.227,0 c 0.351,0 0.636,-0.285 0.636,-0.636 l 0,-1.727 c 0,-0.351 -0.285,-0.636 -0.636,-0.636 l -6.227,0 c -0.351,0 -0.636,0.285 -0.636,0.636 z m -65.999,3.749 0,1.727 c 0,0.351 0.285,0.636 0.636,0.636 l 6.227,0 c 0.351,0 0.636,-0.285 0.636,-0.636 l 0,-1.727 c 0,-0.351 -0.285,-0.636 -0.636,-0.636 l -6.227,0 c -0.351,0 -0.636,0.285 -0.636,0.636 z m 24.75,0 0,1.727 c 0,0.351 0.285,0.636 0.636,0.636 l 6.227,0 c 0.351,0 0.636,-0.285 0.636,-0.636 l 0,-1.727 c 0,-0.351 -0.285,-0.636 -0.636,-0.636 l -6.227,0 c -0.351,0 -0.636,0.285 -0.636,0.636 z m 16.5,0 0,1.727 c 0,0.351 0.285,0.636 0.636,0.636 l 6.227,0 c 0.351,0 0.636,-0.285 0.636,-0.636 l 0,-1.727 c 0,-0.351 -0.285,-0.636 -0.636,-0.636 l -6.227,0 c -0.351,0 -0.636,0.285 -0.636,0.636 z m 16.5,0 0,1.727 c 0,0.351 0.285,0.636 0.636,0.636 l 6.227,0 c 0.351,0 0.636,-0.285 0.636,-0.636 l 0,-1.727 c 0,-0.351 -0.285,-0.636 -0.636,-0.636 l -6.227,0 c -0.351,0 -0.636,0.285 -0.636,0.636 z m -49.5,0.001 0,1.727 c 0,0.351 0.285,0.636 0.636,0.636 l 6.227,0 c 0.351,0 0.636,-0.285 0.636,-0.636 l 0,-1.727 C 27,59.535 26.715,59.25 26.364,59.25 l -6.227,0 c -0.351,0 -0.636,0.285 -0.636,0.636 z m 8.25,0 0,1.727 c 0,0.351 0.285,0.636 0.636,0.636 l 6.227,0 c 0.351,0 0.636,-0.285 0.636,-0.636 l 0,-1.727 c 0,-0.351 -0.285,-0.636 -0.636,-0.636 l -6.227,0 c -0.351,0 -0.636,0.285 -0.636,0.636 z m 16.5,0 0,1.727 c 0,0.351 0.285,0.636 0.636,0.636 l 6.227,0 c 0.351,0 0.636,-0.285 0.636,-0.636 l 0,-1.727 c 0,-0.351 -0.285,-0.636 -0.636,-0.636 l -6.227,0 c -0.351,0 -0.636,0.285 -0.636,0.636 z m 16.5,0 0,1.727 c 0,0.351 0.285,0.636 0.636,0.636 l 6.227,0 c 0.351,0 0.636,-0.285 0.636,-0.636 l 0,-1.727 c 0,-0.351 -0.285,-0.636 -0.636,-0.636 l -6.227,0 c -0.351,0 -0.636,0.285 -0.636,0.636 z m 16.5,0 0,1.727 c 0,0.351 0.285,0.636 0.636,0.636 l 6.227,0 c 0.351,0 0.636,-0.285 0.636,-0.636 l 0,-1.727 c 0,-0.351 -0.285,-0.636 -0.636,-0.636 l -6.227,0 c -0.351,0 -0.636,0.285 -0.636,0.636 z m -66,3.749 0,1.727 c 0,0.351 0.285,0.636 0.636,0.636 l 6.227,0 c 0.351,0 0.636,-0.285 0.636,-0.636 l 0,-1.727 c 0,-0.351 -0.285,-0.636 -0.636,-0.636 l -6.227,0 c -0.351,0 -0.636,0.285 -0.636,0.636 z m 24.75,0 0,1.727 c 0,0.351 0.285,0.636 0.636,0.636 l 6.227,0 c 0.351,0 0.636,-0.285 0.636,-0.636 l 0,-1.727 c 0,-0.351 -0.285,-0.636 -0.636,-0.636 l -6.227,0 c -0.351,0 -0.636,0.285 -0.636,0.636 z m 16.5,0 0,1.727 c 0,0.351 0.285,0.636 0.636,0.636 l 6.227,0 c 0.351,0 0.636,-0.285 0.636,-0.636 l 0,-1.727 c 0,-0.351 -0.285,-0.636 -0.636,-0.636 l -6.227,0 c -0.351,0 -0.636,0.285 -0.636,0.636 z m 16.5,0 0,1.727 c 0,0.351 0.285,0.636 0.636,0.636 l 6.227,0 c 0.351,0 0.636,-0.285 0.636,-0.636 l 0,-1.727 c 0,-0.351 -0.285,-0.636 -0.636,-0.636 l -6.227,0 c -0.351,0 -0.636,0.285 -0.636,0.636 z m -49.5,0.001 0,1.727 c 0,0.351 0.285,0.636 0.636,0.636 l 6.227,0 c 0.351,0 0.636,-0.285 0.636,-0.636 l 0,-1.727 C 27,63.285 26.715,63 26.364,63 l -6.227,0 c -0.351,0 -0.636,0.285 -0.636,0.636 z m 8.25,0 0,1.727 c 0,0.351 0.285,0.636 0.636,0.636 l 6.227,0 c 0.351,0 0.636,-0.285 0.636,-0.636 l 0,-1.727 C 35.25,63.285 34.965,63 34.614,63 l -6.227,0 c -0.351,0 -0.636,0.285 -0.636,0.636 z m 16.5,0 0,1.727 c 0,0.351 0.285,0.636 0.636,0.636 l 6.227,0 c 0.351,0 0.636,-0.285 0.636,-0.636 l 0,-1.727 C 51.75,63.285 51.465,63 51.114,63 l -6.227,0 c -0.351,0 -0.636,0.285 -0.636,0.636 z m 16.5,0 0,1.727 c 0,0.351 0.285,0.636 0.636,0.636 l 6.227,0 c 0.351,0 0.636,-0.285 0.636,-0.636 l 0,-1.727 C 68.25,63.285 67.965,63 67.614,63 l -6.227,0 c -0.351,0 -0.636,0.285 -0.636,0.636 z m 16.5,0 0,1.727 c 0,0.351 0.285,0.636 0.636,0.636 l 6.227,0 c 0.351,0 0.636,-0.285 0.636,-0.636 l 0,-1.727 C 84.75,63.285 84.465,63 84.114,63 l -6.227,0 c -0.351,0 -0.636,0.285 -0.636,0.636 z m -66,3.749 0,1.727 c 0,0.351 0.285,0.636 0.636,0.636 l 6.227,0 c 0.351,0 0.636,-0.285 0.636,-0.636 l 0,-1.727 c 0,-0.351 -0.285,-0.636 -0.636,-0.636 l -6.227,0 c -0.351,0 -0.636,0.285 -0.636,0.636 z m 24.75,0 0,1.727 c 0,0.351 0.285,0.636 0.636,0.636 l 6.227,0 c 0.351,0 0.636,-0.285 0.636,-0.636 l 0,-1.727 c 0,-0.351 -0.285,-0.636 -0.636,-0.636 l -6.227,0 c -0.351,0 -0.636,0.285 -0.636,0.636 z m 16.5,0 0,1.727 c 0,0.351 0.285,0.636 0.636,0.636 l 6.227,0 c 0.351,0 0.636,-0.285 0.636,-0.636 l 0,-1.727 c 0,-0.351 -0.285,-0.636 -0.636,-0.636 l -6.227,0 c -0.351,0 -0.636,0.285 -0.636,0.636 z m 16.5,0 0,1.727 c 0,0.351 0.285,0.636 0.636,0.636 l 6.227,0 c 0.351,0 0.636,-0.285 0.636,-0.636 l 0,-1.727 c 0,-0.351 -0.285,-0.636 -0.636,-0.636 l -6.227,0 c -0.351,0 -0.636,0.285 -0.636,0.636 z m -49.5,10e-4 0,1.727 c 0,0.351 0.285,0.636 0.636,0.636 l 6.227,0 c 0.351,0 0.636,-0.285 0.636,-0.636 l 0,-1.727 C 27,67.035 26.715,66.75 26.364,66.75 l -6.227,0 c -0.351,0 -0.636,0.285 -0.636,0.636 z m 8.25,0 0,1.727 c 0,0.351 0.285,0.636 0.636,0.636 l 6.227,0 c 0.351,0 0.636,-0.285 0.636,-0.636 l 0,-1.727 c 0,-0.351 -0.285,-0.636 -0.636,-0.636 l -6.227,0 c -0.351,0 -0.636,0.285 -0.636,0.636 z m 16.5,0 0,1.727 c 0,0.351 0.285,0.636 0.636,0.636 l 6.227,0 c 0.351,0 0.636,-0.285 0.636,-0.636 l 0,-1.727 c 0,-0.351 -0.285,-0.636 -0.636,-0.636 l -6.227,0 c -0.351,0 -0.636,0.285 -0.636,0.636 z m 16.5,0 0,1.727 c 0,0.351 0.285,0.636 0.636,0.636 l 6.227,0 c 0.351,0 0.636,-0.285 0.636,-0.636 l 0,-1.727 c 0,-0.351 -0.285,-0.636 -0.636,-0.636 l -6.227,0 c -0.351,0 -0.636,0.285 -0.636,0.636 z m 16.5,0 0,1.727 c 0,0.351 0.285,0.636 0.636,0.636 l 6.227,0 c 0.351,0 0.636,-0.285 0.636,-0.636 l 0,-1.727 c 0,-0.351 -0.285,-0.636 -0.636,-0.636 l -6.227,0 c -0.351,0 -0.636,0.285 -0.636,0.636 z m -66.001,3.749 0,1.727 c 0,0.351 0.285,0.636 0.636,0.636 l 6.227,0 c 0.351,0 0.636,-0.285 0.636,-0.636 l 0,-1.727 c 0,-0.351 -0.285,-0.636 -0.636,-0.636 l -6.227,0 c -0.351,0 -0.636,0.285 -0.636,0.636 z m 24.75,0 0,1.727 c 0,0.351 0.285,0.636 0.636,0.636 l 6.227,0 c 0.351,0 0.636,-0.285 0.636,-0.636 l 0,-1.727 c 0,-0.351 -0.285,-0.636 -0.636,-0.636 l -6.227,0 C 36.285,70.499 36,70.784 36,71.135 z m 16.5,0 0,1.727 c 0,0.351 0.285,0.636 0.636,0.636 l 6.227,0 c 0.351,0 0.636,-0.285 0.636,-0.636 l 0,-1.727 c 0,-0.351 -0.285,-0.636 -0.636,-0.636 l -6.227,0 c -0.351,0 -0.636,0.285 -0.636,0.636 z m 16.5,0 0,1.727 c 0,0.351 0.285,0.636 0.636,0.636 l 6.227,0 c 0.351,0 0.636,-0.285 0.636,-0.636 l 0,-1.727 c 0,-0.351 -0.285,-0.636 -0.636,-0.636 l -6.227,0 C 69.285,70.499 69,70.784 69,71.135 z m -49.5,10e-4 0,1.727 c 0,0.351 0.285,0.636 0.636,0.636 l 6.227,0 c 0.351,0 0.636,-0.285 0.636,-0.636 l 0,-1.727 c 0,-0.351 -0.285,-0.636 -0.636,-0.636 l -6.227,0 c -0.351,0 -0.636,0.285 -0.636,0.636 z m 8.25,0 0,1.727 c 0,0.351 0.285,0.636 0.636,0.636 l 6.227,0 c 0.351,0 0.636,-0.285 0.636,-0.636 l 0,-1.727 c 0,-0.351 -0.285,-0.636 -0.636,-0.636 l -6.227,0 c -0.351,0 -0.636,0.285 -0.636,0.636 z m 16.5,0 0,1.727 c 0,0.351 0.285,0.636 0.636,0.636 l 6.227,0 c 0.351,0 0.636,-0.285 0.636,-0.636 l 0,-1.727 c 0,-0.351 -0.285,-0.636 -0.636,-0.636 l -6.227,0 c -0.351,0 -0.636,0.285 -0.636,0.636 z m 16.5,0 0,1.727 c 0,0.351 0.285,0.636 0.636,0.636 l 6.227,0 c 0.351,0 0.636,-0.285 0.636,-0.636 l 0,-1.727 c 0,-0.351 -0.285,-0.636 -0.636,-0.636 l -6.227,0 c -0.351,0 -0.636,0.285 -0.636,0.636 z m 16.5,0 0,1.727 c 0,0.351 0.285,0.636 0.636,0.636 l 6.227,0 c 0.351,0 0.636,-0.285 0.636,-0.636 l 0,-1.727 c 0,-0.351 -0.285,-0.636 -0.636,-0.636 l -6.227,0 c -0.351,0 -0.636,0.285 -0.636,0.636 z m -65.999,3.749 0,1.727 c 0,0.351 0.285,0.636 0.636,0.636 l 6.227,0 c 0.351,0 0.636,-0.285 0.636,-0.636 l 0,-1.727 c 0,-0.351 -0.285,-0.636 -0.636,-0.636 l -6.227,0 c -0.351,0 -0.636,0.285 -0.636,0.636 z m 24.75,0 0,1.727 c 0,0.351 0.285,0.636 0.636,0.636 l 6.227,0 c 0.351,0 0.636,-0.285 0.636,-0.636 l 0,-1.727 c 0,-0.351 -0.285,-0.636 -0.636,-0.636 l -6.227,0 c -0.351,0 -0.636,0.285 -0.636,0.636 z m 16.5,0 0,1.727 c 0,0.351 0.285,0.636 0.636,0.636 l 6.227,0 c 0.351,0 0.636,-0.285 0.636,-0.636 l 0,-1.727 c 0,-0.351 -0.285,-0.636 -0.636,-0.636 l -6.227,0 c -0.351,0 -0.636,0.285 -0.636,0.636 z m 16.5,0 0,1.727 c 0,0.351 0.285,0.636 0.636,0.636 l 6.227,0 c 0.351,0 0.636,-0.285 0.636,-0.636 l 0,-1.727 c 0,-0.351 -0.285,-0.636 -0.636,-0.636 l -6.227,0 c -0.351,0 -0.636,0.285 -0.636,0.636 z m -49.5,10e-4 0,1.727 c 0,0.351 0.285,0.636 0.636,0.636 l 6.227,0 c 0.351,0 0.636,-0.285 0.636,-0.636 l 0,-1.727 C 27,74.535 26.715,74.25 26.364,74.25 l -6.227,0 c -0.351,0 -0.636,0.285 -0.636,0.636 z m 8.25,0 0,1.727 c 0,0.351 0.285,0.636 0.636,0.636 l 6.227,0 c 0.351,0 0.636,-0.285 0.636,-0.636 l 0,-1.727 c 0,-0.351 -0.285,-0.636 -0.636,-0.636 l -6.227,0 c -0.351,0 -0.636,0.285 -0.636,0.636 z m 16.5,0 0,1.727 c 0,0.351 0.285,0.636 0.636,0.636 l 6.227,0 c 0.351,0 0.636,-0.285 0.636,-0.636 l 0,-1.727 c 0,-0.351 -0.285,-0.636 -0.636,-0.636 l -6.227,0 c -0.351,0 -0.636,0.285 -0.636,0.636 z m 16.5,0 0,1.727 c 0,0.351 0.285,0.636 0.636,0.636 l 6.227,0 c 0.351,0 0.636,-0.285 0.636,-0.636 l 0,-1.727 c 0,-0.351 -0.285,-0.636 -0.636,-0.636 l -6.227,0 c -0.351,0 -0.636,0.285 -0.636,0.636 z m 16.5,0 0,1.727 c 0,0.351 0.285,0.636 0.636,0.636 l 6.227,0 c 0.351,0 0.636,-0.285 0.636,-0.636 l 0,-1.727 c 0,-0.351 -0.285,-0.636 -0.636,-0.636 l -6.227,0 c -0.351,0 -0.636,0.285 -0.636,0.636 z m -66,3.749 0,1.727 c 0,0.351 0.285,0.636 0.636,0.636 l 6.227,0 c 0.351,0 0.636,-0.285 0.636,-0.636 l 0,-1.727 c 0,-0.351 -0.285,-0.636 -0.636,-0.636 l -6.227,0 c -0.351,0 -0.636,0.285 -0.636,0.636 z m 24.75,0 0,1.727 c 0,0.351 0.285,0.636 0.636,0.636 l 6.227,0 c 0.351,0 0.636,-0.285 0.636,-0.636 l 0,-1.727 c 0,-0.351 -0.285,-0.636 -0.636,-0.636 l -6.227,0 c -0.351,0 -0.636,0.285 -0.636,0.636 z m 16.5,0 0,1.727 c 0,0.351 0.285,0.636 0.636,0.636 l 6.227,0 c 0.351,0 0.636,-0.285 0.636,-0.636 l 0,-1.727 c 0,-0.351 -0.285,-0.636 -0.636,-0.636 l -6.227,0 c -0.351,0 -0.636,0.285 -0.636,0.636 z m 16.5,0 0,1.727 c 0,0.351 0.285,0.636 0.636,0.636 l 6.227,0 c 0.351,0 0.636,-0.285 0.636,-0.636 l 0,-1.727 c 0,-0.351 -0.285,-0.636 -0.636,-0.636 l -6.227,0 c -0.351,0 -0.636,0.285 -0.636,0.636 z m -49.5,10e-4 0,1.727 c 0,0.351 0.285,0.636 0.636,0.636 l 6.227,0 c 0.351,0 0.636,-0.285 0.636,-0.636 l 0,-1.727 C 27,78.285 26.715,78 26.364,78 l -6.227,0 c -0.351,0 -0.636,0.285 -0.636,0.636 z m 8.25,0 0,1.727 c 0,0.351 0.285,0.636 0.636,0.636 l 6.227,0 c 0.351,0 0.636,-0.285 0.636,-0.636 l 0,-1.727 C 35.25,78.285 34.965,78 34.614,78 l -6.227,0 c -0.351,0 -0.636,0.285 -0.636,0.636 z m 16.5,0 0,1.727 c 0,0.351 0.285,0.636 0.636,0.636 l 6.227,0 c 0.351,0 0.636,-0.285 0.636,-0.636 l 0,-1.727 C 51.75,78.285 51.465,78 51.114,78 l -6.227,0 c -0.351,0 -0.636,0.285 -0.636,0.636 z m 16.5,0 0,1.727 c 0,0.351 0.285,0.636 0.636,0.636 l 6.227,0 c 0.351,0 0.636,-0.285 0.636,-0.636 l 0,-1.727 C 68.25,78.285 67.965,78 67.614,78 l -6.227,0 c -0.351,0 -0.636,0.285 -0.636,0.636 z m 16.5,0 0,1.727 c 0,0.351 0.285,0.636 0.636,0.636 l 6.227,0 c 0.351,0 0.636,-0.285 0.636,-0.636 l 0,-1.727 C 84.75,78.285 84.465,78 84.114,78 l -6.227,0 c -0.351,0 -0.636,0.285 -0.636,0.636 z m -66,3.749 0,1.727 c 0,0.351 0.285,0.636 0.636,0.636 l 6.227,0 c 0.351,0 0.636,-0.285 0.636,-0.636 l 0,-1.727 c 0,-0.351 -0.285,-0.636 -0.636,-0.636 l -6.227,0 c -0.351,0 -0.636,0.285 -0.636,0.636 z m 24.75,0 0,1.727 c 0,0.351 0.285,0.636 0.636,0.636 l 6.227,0 c 0.351,0 0.636,-0.285 0.636,-0.636 l 0,-1.727 c 0,-0.351 -0.285,-0.636 -0.636,-0.636 l -6.227,0 c -0.351,0 -0.636,0.285 -0.636,0.636 z m 16.5,0 0,1.727 c 0,0.351 0.285,0.636 0.636,0.636 l 6.227,0 c 0.351,0 0.636,-0.285 0.636,-0.636 l 0,-1.727 c 0,-0.351 -0.285,-0.636 -0.636,-0.636 l -6.227,0 c -0.351,0 -0.636,0.285 -0.636,0.636 z m 16.5,0 0,1.727 c 0,0.351 0.285,0.636 0.636,0.636 l 6.227,0 c 0.351,0 0.636,-0.285 0.636,-0.636 l 0,-1.727 c 0,-0.351 -0.285,-0.636 -0.636,-0.636 l -6.227,0 c -0.351,0 -0.636,0.285 -0.636,0.636 z m -49.5,10e-4 0,1.727 c 0,0.351 0.285,0.636 0.636,0.636 l 6.227,0 c 0.351,0 0.636,-0.285 0.636,-0.636 l 0,-1.727 C 27,82.035 26.715,81.75 26.364,81.75 l -6.227,0 c -0.351,0 -0.636,0.285 -0.636,0.636 z m 8.25,0 0,1.727 c 0,0.351 0.285,0.636 0.636,0.636 l 6.227,0 c 0.351,0 0.636,-0.285 0.636,-0.636 l 0,-1.727 c 0,-0.351 -0.285,-0.636 -0.636,-0.636 l -6.227,0 c -0.351,0 -0.636,0.285 -0.636,0.636 z m 16.5,0 0,1.727 c 0,0.351 0.285,0.636 0.636,0.636 l 6.227,0 c 0.351,0 0.636,-0.285 0.636,-0.636 l 0,-1.727 c 0,-0.351 -0.285,-0.636 -0.636,-0.636 l -6.227,0 c -0.351,0 -0.636,0.285 -0.636,0.636 z m 16.5,0 0,1.727 c 0,0.351 0.285,0.636 0.636,0.636 l 6.227,0 c 0.351,0 0.636,-0.285 0.636,-0.636 l 0,-1.727 c 0,-0.351 -0.285,-0.636 -0.636,-0.636 l -6.227,0 c -0.351,0 -0.636,0.285 -0.636,0.636 z m 16.5,0 0,1.727 c 0,0.351 0.285,0.636 0.636,0.636 l 6.227,0 c 0.351,0 0.636,-0.285 0.636,-0.636 l 0,-1.727 c 0,-0.351 -0.285,-0.636 -0.636,-0.636 l -6.227,0 c -0.351,0 -0.636,0.285 -0.636,0.636 z m -66,3.749 0,1.727 c 0,0.351 0.285,0.636 0.636,0.636 l 6.227,0 c 0.351,0 0.636,-0.285 0.636,-0.636 l 0,-1.727 c 0,-0.351 -0.285,-0.636 -0.636,-0.636 l -6.227,0 c -0.351,0 -0.636,0.285 -0.636,0.636 z m 24.75,0 0,1.727 c 0,0.351 0.285,0.636 0.636,0.636 l 6.227,0 c 0.351,0 0.636,-0.285 0.636,-0.636 l 0,-1.727 c 0,-0.351 -0.285,-0.636 -0.636,-0.636 l -6.227,0 c -0.351,0 -0.636,0.285 -0.636,0.636 z m 16.5,0 0,1.727 c 0,0.351 0.285,0.636 0.636,0.636 l 6.227,0 c 0.351,0 0.636,-0.285 0.636,-0.636 l 0,-1.727 c 0,-0.351 -0.285,-0.636 -0.636,-0.636 l -6.227,0 c -0.351,0 -0.636,0.285 -0.636,0.636 z m 16.5,0 0,1.727 c 0,0.351 0.285,0.636 0.636,0.636 l 6.227,0 c 0.351,0 0.636,-0.285 0.636,-0.636 l 0,-1.727 c 0,-0.351 -0.285,-0.636 -0.636,-0.636 l -6.227,0 c -0.351,0 -0.636,0.285 -0.636,0.636 z m -49.5,10e-4 0,1.727 c 0,0.351 0.285,0.636 0.636,0.636 l 6.227,0 c 0.351,0 0.636,-0.285 0.636,-0.636 l 0,-1.727 C 27,85.785 26.715,85.5 26.364,85.5 l -6.227,0 c -0.351,0 -0.636,0.285 -0.636,0.636 z m 8.25,0 0,1.727 c 0,0.351 0.285,0.636 0.636,0.636 l 6.227,0 c 0.351,0 0.636,-0.285 0.636,-0.636 l 0,-1.727 c 0,-0.351 -0.285,-0.636 -0.636,-0.636 l -6.227,0 c -0.351,0 -0.636,0.285 -0.636,0.636 z m 16.5,0 0,1.727 c 0,0.351 0.285,0.636 0.636,0.636 l 6.227,0 c 0.351,0 0.636,-0.285 0.636,-0.636 l 0,-1.727 c 0,-0.351 -0.285,-0.636 -0.636,-0.636 l -6.227,0 c -0.351,0 -0.636,0.285 -0.636,0.636 z m 16.5,0 0,1.727 c 0,0.351 0.285,0.636 0.636,0.636 l 6.227,0 c 0.351,0 0.636,-0.285 0.636,-0.636 l 0,-1.727 c 0,-0.351 -0.285,-0.636 -0.636,-0.636 l -6.227,0 c -0.351,0 -0.636,0.285 -0.636,0.636 z m 16.5,0 0,1.727 c 0,0.351 0.285,0.636 0.636,0.636 l 6.227,0 c 0.351,0 0.636,-0.285 0.636,-0.636 l 0,-1.727 c 0,-0.351 -0.285,-0.636 -0.636,-0.636 l -6.227,0 c -0.351,0 -0.636,0.285 -0.636,0.636 z"
                 inkscape:connector-curvature="0"
                 style="fill:url(#LinearGradient_16);fill-opacity:0.4;stroke-width:0.32600001;marker-start:none;marker-end:none" />
              <path
                 id="path3499"
                 stroke-miterlimit="79.8403193612775"
                 d="m 12,56.135 0,0.977 c 0,0.351 0.285,0.636 0.636,0.636 l 4.727,0 c 0.351,0 0.636,-0.285 0.636,-0.636 l 0,-0.977 c 0,-0.351 -0.285,-0.636 -0.636,-0.636 l -4.727,0 C 12.285,55.499 12,55.784 12,56.135 z m 24.75,0 0,0.977 c 0,0.351 0.285,0.636 0.636,0.636 l 4.727,0 c 0.351,0 0.636,-0.285 0.636,-0.636 l 0,-0.977 c 0,-0.351 -0.285,-0.636 -0.636,-0.636 l -4.727,0 c -0.351,0 -0.636,0.285 -0.636,0.636 z m 16.5,0 0,0.977 c 0,0.351 0.285,0.636 0.636,0.636 l 4.727,0 c 0.351,0 0.636,-0.285 0.636,-0.636 l 0,-0.977 c 0,-0.351 -0.285,-0.636 -0.636,-0.636 l -4.727,0 c -0.351,0 -0.636,0.285 -0.636,0.636 z m 16.5,0 0,0.977 c 0,0.351 0.285,0.636 0.636,0.636 l 4.727,0 c 0.351,0 0.636,-0.285 0.636,-0.636 l 0,-0.977 c 0,-0.351 -0.285,-0.636 -0.636,-0.636 l -4.727,0 c -0.351,0 -0.636,0.285 -0.636,0.636 z m -49.5,0.001 0,0.977 c 0,0.351 0.285,0.636 0.636,0.636 l 4.727,0 c 0.351,0 0.636,-0.285 0.636,-0.636 l 0,-0.977 c 0,-0.351 -0.285,-0.636 -0.636,-0.636 l -4.727,0 c -0.351,0 -0.636,0.285 -0.636,0.636 z m 8.25,0 0,0.977 c 0,0.351 0.285,0.636 0.636,0.636 l 4.727,0 c 0.351,0 0.636,-0.285 0.636,-0.636 l 0,-0.977 c 0,-0.351 -0.285,-0.636 -0.636,-0.636 l -4.727,0 c -0.351,0 -0.636,0.285 -0.636,0.636 z m 16.5,0 0,0.977 c 0,0.351 0.285,0.636 0.636,0.636 l 4.727,0 c 0.351,0 0.636,-0.285 0.636,-0.636 l 0,-0.977 c 0,-0.351 -0.285,-0.636 -0.636,-0.636 l -4.727,0 C 45.285,55.5 45,55.785 45,56.136 z m 16.5,0 0,0.977 c 0,0.351 0.285,0.636 0.636,0.636 l 4.727,0 c 0.351,0 0.636,-0.285 0.636,-0.636 l 0,-0.977 c 0,-0.351 -0.285,-0.636 -0.636,-0.636 l -4.727,0 c -0.351,0 -0.636,0.285 -0.636,0.636 z m 16.5,0 0,0.977 c 0,0.351 0.285,0.636 0.636,0.636 l 4.727,0 c 0.351,0 0.636,-0.285 0.636,-0.636 l 0,-0.977 c 0,-0.351 -0.285,-0.636 -0.636,-0.636 l -4.727,0 C 78.285,55.5 78,55.785 78,56.136 z m -65.999,3.749 0,0.977 c 0,0.351 0.285,0.636 0.636,0.636 l 4.727,0 c 0.351,0 0.636,-0.285 0.636,-0.636 l 0,-0.977 c 0,-0.351 -0.285,-0.636 -0.636,-0.636 l -4.727,0 c -0.351,0 -0.636,0.285 -0.636,0.636 z m 41.25,0 0,0.977 c 0,0.351 0.285,0.636 0.636,0.636 l 4.727,0 c 0.351,0 0.636,-0.285 0.636,-0.636 l 0,-0.977 c 0,-0.351 -0.285,-0.636 -0.636,-0.636 l -4.727,0 c -0.351,0 -0.636,0.285 -0.636,0.636 z m 16.5,0 0,0.977 c 0,0.351 0.285,0.636 0.636,0.636 l 4.727,0 c 0.351,0 0.636,-0.285 0.636,-0.636 l 0,-0.977 c 0,-0.351 -0.285,-0.636 -0.636,-0.636 l -4.727,0 c -0.351,0 -0.636,0.285 -0.636,0.636 z m -49.5,0.001 0,0.977 c 0,0.351 0.285,0.636 0.636,0.636 l 4.727,0 c 0.351,0 0.636,-0.285 0.636,-0.636 l 0,-0.977 c 0,-0.351 -0.285,-0.636 -0.636,-0.636 l -4.727,0 c -0.351,0 -0.636,0.285 -0.636,0.636 z m 8.25,0 0,0.977 c 0,0.351 0.285,0.636 0.636,0.636 l 4.727,0 c 0.351,0 0.636,-0.285 0.636,-0.636 l 0,-0.977 c 0,-0.351 -0.285,-0.636 -0.636,-0.636 l -4.727,0 c -0.351,0 -0.636,0.285 -0.636,0.636 z m 16.5,0 0,0.977 c 0,0.351 0.285,0.636 0.636,0.636 l 4.727,0 c 0.351,0 0.636,-0.285 0.636,-0.636 l 0,-0.977 C 51,59.535 50.715,59.25 50.364,59.25 l -4.727,0 c -0.351,0 -0.636,0.285 -0.636,0.636 z m 16.5,0 0,0.977 c 0,0.351 0.285,0.636 0.636,0.636 l 4.727,0 c 0.351,0 0.636,-0.285 0.636,-0.636 l 0,-0.977 c 0,-0.351 -0.285,-0.636 -0.636,-0.636 l -4.727,0 c -0.351,0 -0.636,0.285 -0.636,0.636 z m 16.5,0 0,0.977 c 0,0.351 0.285,0.636 0.636,0.636 l 4.727,0 c 0.351,0 0.636,-0.285 0.636,-0.636 l 0,-0.977 C 84,59.535 83.715,59.25 83.364,59.25 l -4.727,0 c -0.351,0 -0.636,0.285 -0.636,0.636 z m -24.75,3.749 0,0.977 c 0,0.351 0.285,0.636 0.636,0.636 l 4.727,0 c 0.351,0 0.636,-0.285 0.636,-0.636 l 0,-0.977 c 0,-0.351 -0.285,-0.636 -0.636,-0.636 l -4.727,0 c -0.351,0 -0.636,0.285 -0.636,0.636 z m 16.5,0 0,0.977 c 0,0.351 0.285,0.636 0.636,0.636 l 4.727,0 c 0.351,0 0.636,-0.285 0.636,-0.636 l 0,-0.977 c 0,-0.351 -0.285,-0.636 -0.636,-0.636 l -4.727,0 c -0.351,0 -0.636,0.285 -0.636,0.636 z m -49.5,0.001 0,0.977 c 0,0.351 0.285,0.636 0.636,0.636 l 4.727,0 c 0.351,0 0.636,-0.285 0.636,-0.636 l 0,-0.977 C 26.25,63.285 25.965,63 25.614,63 l -4.727,0 c -0.351,0 -0.636,0.285 -0.636,0.636 z m 8.25,0 0,0.977 c 0,0.351 0.285,0.636 0.636,0.636 l 4.727,0 c 0.351,0 0.636,-0.285 0.636,-0.636 l 0,-0.977 C 34.5,63.285 34.215,63 33.864,63 l -4.727,0 c -0.351,0 -0.636,0.285 -0.636,0.636 z m 33,0 0,0.977 c 0,0.351 0.285,0.636 0.636,0.636 l 4.727,0 c 0.351,0 0.636,-0.285 0.636,-0.636 l 0,-0.977 C 67.5,63.285 67.215,63 66.864,63 l -4.727,0 c -0.351,0 -0.636,0.285 -0.636,0.636 z m -8.25,3.749 0,0.977 c 0,0.351 0.285,0.636 0.636,0.636 l 4.727,0 c 0.351,0 0.636,-0.285 0.636,-0.636 l 0,-0.977 c 0,-0.351 -0.285,-0.636 -0.636,-0.636 l -4.727,0 c -0.351,0 -0.636,0.285 -0.636,0.636 z m 16.5,0 0,0.977 c 0,0.351 0.285,0.636 0.636,0.636 l 4.727,0 c 0.351,0 0.636,-0.285 0.636,-0.636 l 0,-0.977 c 0,-0.351 -0.285,-0.636 -0.636,-0.636 l -4.727,0 c -0.351,0 -0.636,0.285 -0.636,0.636 z m -49.5,10e-4 0,0.977 c 0,0.351 0.285,0.636 0.636,0.636 l 4.727,0 c 0.351,0 0.636,-0.285 0.636,-0.636 l 0,-0.977 c 0,-0.351 -0.285,-0.636 -0.636,-0.636 l -4.727,0 c -0.351,0 -0.636,0.285 -0.636,0.636 z m 49.499,3.749 0,0.977 c 0,0.351 0.285,0.636 0.636,0.636 l 4.727,0 c 0.351,0 0.636,-0.285 0.636,-0.636 l 0,-0.977 c 0,-0.351 -0.285,-0.636 -0.636,-0.636 l -4.727,0 c -0.351,0 -0.636,0.285 -0.636,0.636 z m -49.5,10e-4 0,0.977 c 0,0.351 0.285,0.636 0.636,0.636 l 4.727,0 c 0.351,0 0.636,-0.285 0.636,-0.636 l 0,-0.977 c 0,-0.351 -0.285,-0.636 -0.636,-0.636 l -4.727,0 c -0.351,0 -0.636,0.285 -0.636,0.636 z m 0.001,3.75 0,0.977 c 0,0.351 0.285,0.636 0.636,0.636 l 4.727,0 c 0.351,0 0.636,-0.285 0.636,-0.636 l 0,-0.977 c 0,-0.351 -0.285,-0.636 -0.636,-0.636 l -4.727,0 c -0.351,0 -0.636,0.285 -0.636,0.636 z"
                 inkscape:connector-curvature="0"
                 style="fill:url(#LinearGradient_17);fill-opacity:0.87450998;stroke-width:0.32600001;marker-start:none;marker-end:none" />
              <path
                 id="path3501"
                 stroke-miterlimit="79.8403193612775"
                 d="m 36.751,63.635 0,0.977 c 0,0.351 0.285,0.636 0.636,0.636 l 5.477,0 c 0.351,0 0.636,-0.285 0.636,-0.636 l 0,-0.977 c 0,-0.351 -0.285,-0.636 -0.636,-0.636 l -5.477,0 c -0.351,0 -0.636,0.285 -0.636,0.636 z m -24.75,3.75 0,0.977 c 0,0.351 0.285,0.636 0.636,0.636 l 5.477,0 c 0.351,0 0.636,-0.285 0.636,-0.636 l 0,-0.977 c 0,-0.351 -0.285,-0.636 -0.636,-0.636 l -5.477,0 c -0.351,0 -0.636,0.285 -0.636,0.636 z m 33,10e-4 0,0.977 c 0,0.351 0.285,0.636 0.636,0.636 l 5.477,0 c 0.351,0 0.636,-0.285 0.636,-0.636 l 0,-0.977 c 0,-0.351 -0.285,-0.636 -0.636,-0.636 l -5.477,0 c -0.351,0 -0.636,0.285 -0.636,0.636 z m 33,0 0,0.977 c 0,0.351 0.285,0.636 0.636,0.636 l 5.477,0 c 0.351,0 0.636,-0.285 0.636,-0.636 l 0,-0.977 c 0,-0.351 -0.285,-0.636 -0.636,-0.636 l -5.477,0 c -0.351,0 -0.636,0.285 -0.636,0.636 z m -49.501,3.75 0,0.977 c 0,0.351 0.285,0.636 0.636,0.636 l 5.477,0 c 0.351,0 0.636,-0.285 0.636,-0.636 l 0,-0.977 c 0,-0.351 -0.285,-0.636 -0.636,-0.636 l -5.477,0 c -0.351,0 -0.636,0.285 -0.636,0.636 z m 33,0 0,0.977 c 0,0.351 0.285,0.636 0.636,0.636 l 5.477,0 c 0.351,0 0.636,-0.285 0.636,-0.636 l 0,-0.977 c 0,-0.351 -0.285,-0.636 -0.636,-0.636 l -5.477,0 c -0.351,0 -0.636,0.285 -0.636,0.636 z m -8.249,3.749 0,0.977 c 0,0.351 0.285,0.636 0.636,0.636 l 5.477,0 c 0.351,0 0.636,-0.285 0.636,-0.636 l 0,-0.977 c 0,-0.351 -0.285,-0.636 -0.636,-0.636 l -5.477,0 c -0.351,0 -0.636,0.285 -0.636,0.636 z m 16.5,3.75 0,0.977 c 0,0.351 0.285,0.636 0.636,0.636 l 5.477,0 c 0.351,0 0.636,-0.285 0.636,-0.636 l 0,-0.977 c 0,-0.351 -0.285,-0.636 -0.636,-0.636 l -5.477,0 c -0.351,0 -0.636,0.285 -0.636,0.636 z m -49.5,3.751 0,0.977 c 0,0.351 0.285,0.636 0.636,0.636 l 5.477,0 c 0.351,0 0.636,-0.285 0.636,-0.636 l 0,-0.977 C 27,82.035 26.715,81.75 26.364,81.75 l -5.477,0 c -0.351,0 -0.636,0.285 -0.636,0.636 z"
                 inkscape:connector-curvature="0"
                 style="fill:#b4deff;stroke-width:0.32600001;marker-start:none;marker-end:none" />
              <path
                 id="path3503"
                 stroke-miterlimit="79.8403193612775"
                 d="m 47.625,94.163 c 14.697,0 26.625,-0.37 26.625,-0.825 0,-0.455 -11.928,-0.825 -26.625,-0.825 -14.697,0 -26.625,0.37 -26.625,0.825 0,0.455 11.928,0.825 26.625,0.825 z"
                 inkscape:connector-curvature="0"
                 style="fill:#ffffff;stroke-width:0.32600001;marker-start:none;marker-end:none" />
              <path
                 id="path3505"
                 stroke-miterlimit="79.8403193612775"
                 d="m 45.75,12.75 0,-10e-4 c 0,-0.412 0.522,-0.748 1.165,-0.748 l 2.171,0 c 0.643,0 1.165,0.336 1.165,0.748 l 0,10e-4 c 0,0.412 -0.522,0.748 -1.165,0.748 l -2.171,0 c -0.643,0 -1.165,-0.336 -1.165,-0.748 z"
                 inkscape:connector-curvature="0"
                 style="fill:#ffffff;fill-opacity:0.12549002;stroke-width:0.168;marker-start:none;marker-end:none" />
              <path
                 id="path3507"
                 stroke-miterlimit="79.8403193612775"
                 d="m 54.547,28.183 -10.5,6.75 0.405,0.631 10.5,-6.75 -0.405,-0.631 z"
                 inkscape:connector-curvature="0"
                 style="fill:#ffffff;fill-opacity:0.235294;fill-rule:evenodd;stroke-width:0.5;marker-start:none;marker-end:none" />
            </g>
          </g>
        </g>
      </g>
    </g>
  </g>
</svg>
