<?xml version="1.0" encoding="UTF-8" standalone="no"?>
<!-- Creator: CorelDRAW -->

<svg
   xmlns:dc="http://purl.org/dc/elements/1.1/"
   xmlns:cc="http://creativecommons.org/ns#"
   xmlns:rdf="http://www.w3.org/1999/02/22-rdf-syntax-ns#"
   xmlns:svg="http://www.w3.org/2000/svg"
   xmlns="http://www.w3.org/2000/svg"
   xmlns:xlink="http://www.w3.org/1999/xlink"
   xmlns:sodipodi="http://sodipodi.sourceforge.net/DTD/sodipodi-0.dtd"
   xmlns:inkscape="http://www.inkscape.org/namespaces/inkscape"
   xml:space="preserve"
   width="128px"
   height="128px"
   style="shape-rendering:geometricPrecision; text-rendering:geometricPrecision; image-rendering:optimizeQuality; fill-rule:evenodd; clip-rule:evenodd"
   viewBox="0 0 128 128"
   id="svg4211"
   version="1.1"
   inkscape:version="0.48.1 r9760"
   sodipodi:docname="beryl-settings.svg"><metadata
   id="metadata4568"><rdf:RDF><cc:Work
       rdf:about=""><dc:format>image/svg+xml</dc:format><dc:type
         rdf:resource="http://purl.org/dc/dcmitype/StillImage" /><dc:title></dc:title></cc:Work></rdf:RDF></metadata><sodipodi:namedview
   pagecolor="#ffffff"
   bordercolor="#666666"
   borderopacity="1"
   objecttolerance="10"
   gridtolerance="10"
   guidetolerance="10"
   inkscape:pageopacity="0"
   inkscape:pageshadow="2"
   inkscape:window-width="646"
   inkscape:window-height="480"
   id="namedview4566"
   showgrid="false"
   inkscape:zoom="2.078125"
   inkscape:cx="64"
   inkscape:cy="64"
   inkscape:window-x="0"
   inkscape:window-y="24"
   inkscape:window-maximized="0"
   inkscape:current-layer="svg4211" />
 <defs
   id="defs4213">
  <style
   type="text/css"
   id="style4215">
   
    .fil132 {fill:none}
    .fil177 {fill:#333333}
    .fil181 {fill:#9933CC}
    .fil187 {fill:white}
    .fil178 {fill:#191919}
    .fil129 {fill:#7F7F7F}
    .fil12 {fill:#C9C9C9}
    .fil13 {fill:#E5E5E5}
    .fil182 {fill:#7C448F}
    .fil183 {fill:#EFCCFF}
    .fil179 {fill:#191919;fill-rule:nonzero}
    .fil136 {fill:white;fill-rule:nonzero}
    .fil184 {fill:#7C448F;fill-rule:nonzero}
    .fil0 {fill:black;fill-opacity:0.000000}
    .fil190 {fill:#333333;fill-opacity:0.000000}
    .fil140 {fill:white;fill-opacity:0.000000}
    .fil154 {fill:#41015E;fill-opacity:0.000000}
    .fil168 {fill:#CF60CF;fill-opacity:0.000000}
    .fil161 {fill:#F07DF0;fill-opacity:0.000000}
    .fil1 {fill:black;fill-opacity:0.007843}
    .fil141 {fill:white;fill-opacity:0.007843}
    .fil94 {fill:#4990D0;fill-opacity:0.011765}
    .fil2 {fill:black;fill-opacity:0.011765}
    .fil191 {fill:#333333;fill-opacity:0.011765}
    .fil126 {fill:#B0E5FF;fill-opacity:0.015686}
    .fil52 {fill:#B8E7FF;fill-opacity:0.015686}
    .fil3 {fill:black;fill-opacity:0.019608}
    .fil142 {fill:white;fill-opacity:0.019608}
    .fil155 {fill:#41015E;fill-opacity:0.019608}
    .fil93 {fill:#4990D0;fill-opacity:0.019608}
    .fil4 {fill:black;fill-opacity:0.023529}
    .fil192 {fill:#333333;fill-opacity:0.027451}
    .fil143 {fill:white;fill-opacity:0.027451}
    .fil125 {fill:#B0E5FF;fill-opacity:0.031373}
    .fil51 {fill:#B8E7FF;fill-opacity:0.031373}
    .fil92 {fill:#4990D0;fill-opacity:0.031373}
    .fil5 {fill:black;fill-opacity:0.031373}
    .fil6 {fill:black;fill-opacity:0.035294}
    .fil144 {fill:white;fill-opacity:0.035294}
    .fil193 {fill:#333333;fill-opacity:0.039216}
    .fil156 {fill:#41015E;fill-opacity:0.039216}
    .fil91 {fill:#4990D0;fill-opacity:0.039216}
    .fil7 {fill:black;fill-opacity:0.043137}
    .fil124 {fill:#B0E5FF;fill-opacity:0.047059}
    .fil50 {fill:#B8E7FF;fill-opacity:0.047059}
    .fil145 {fill:white;fill-opacity:0.047059}
    .fil8 {fill:black;fill-opacity:0.050980}
    .fil90 {fill:#4990D0;fill-opacity:0.050980}
    .fil194 {fill:#333333;fill-opacity:0.054902}
    .fil9 {fill:black;fill-opacity:0.054902}
    .fil146 {fill:white;fill-opacity:0.054902}
    .fil157 {fill:#41015E;fill-opacity:0.058824}
    .fil123 {fill:#B0E5FF;fill-opacity:0.058824}
    .fil49 {fill:#B8E7FF;fill-opacity:0.058824}
    .fil89 {fill:#4990D0;fill-opacity:0.062745}
    .fil10 {fill:black;fill-opacity:0.062745}
    .fil169 {fill:#D364D3;fill-opacity:0.062745}
    .fil147 {fill:white;fill-opacity:0.062745}
    .fil195 {fill:#333333;fill-opacity:0.066667}
    .fil11 {fill:black;fill-opacity:0.066667}
    .fil88 {fill:#4990D0;fill-opacity:0.070588}
    .fil148 {fill:white;fill-opacity:0.074510}
    .fil122 {fill:#B0E5FF;fill-opacity:0.074510}
    .fil48 {fill:#B8E7FF;fill-opacity:0.074510}
    .fil196 {fill:#333333;fill-opacity:0.078431}
    .fil158 {fill:#41015E;fill-opacity:0.078431}
    .fil87 {fill:#4990D0;fill-opacity:0.082353}
    .fil149 {fill:white;fill-opacity:0.082353}
    .fil162 {fill:#F07DF0;fill-opacity:0.082353}
    .fil121 {fill:#B0E5FF;fill-opacity:0.090196}
    .fil47 {fill:#B8E7FF;fill-opacity:0.090196}
    .fil86 {fill:#4990D0;fill-opacity:0.090196}
    .fil150 {fill:white;fill-opacity:0.094118}
    .fil197 {fill:#333333;fill-opacity:0.094118}
    .fil159 {fill:#41015E;fill-opacity:0.101961}
    .fil151 {fill:white;fill-opacity:0.101961}
    .fil85 {fill:#4990D0;fill-opacity:0.101961}
    .fil120 {fill:#B0E5FF;fill-opacity:0.105882}
    .fil46 {fill:#B8E7FF;fill-opacity:0.105882}
    .fil198 {fill:#333333;fill-opacity:0.105882}
    .fil152 {fill:white;fill-opacity:0.109804}
    .fil84 {fill:#4990D0;fill-opacity:0.113725}
    .fil199 {fill:#333333;fill-opacity:0.121569}
    .fil153 {fill:white;fill-opacity:0.121569}
    .fil160 {fill:#41015E;fill-opacity:0.121569}
    .fil119 {fill:#B0E5FF;fill-opacity:0.121569}
    .fil45 {fill:#B8E7FF;fill-opacity:0.121569}
    .fil83 {fill:#4990D0;fill-opacity:0.121569}
    .fil170 {fill:#D769D7;fill-opacity:0.125490}
    .fil82 {fill:#4990D0;fill-opacity:0.133333}
    .fil118 {fill:#B0E5FF;fill-opacity:0.137255}
    .fil44 {fill:#B8E7FF;fill-opacity:0.137255}
    .fil81 {fill:#4990D0;fill-opacity:0.145098}
    .fil117 {fill:#B0E5FF;fill-opacity:0.152941}
    .fil43 {fill:#B8E7FF;fill-opacity:0.152941}
    .fil80 {fill:#4990D0;fill-opacity:0.152941}
    .fil79 {fill:#4990D0;fill-opacity:0.164706}
    .fil116 {fill:#B0E5FF;fill-opacity:0.164706}
    .fil42 {fill:#B8E7FF;fill-opacity:0.164706}
    .fil188 {fill:#DA6CDA;fill-opacity:0.168627}
    .fil163 {fill:#F07DF0;fill-opacity:0.168627}
    .fil78 {fill:#4990D0;fill-opacity:0.172549}
    .fil115 {fill:#B0E5FF;fill-opacity:0.180392}
    .fil41 {fill:#B8E7FF;fill-opacity:0.180392}
    .fil77 {fill:#4990D0;fill-opacity:0.184314}
    .fil171 {fill:#DB6DDB;fill-opacity:0.188235}
    .fil76 {fill:#4990D0;fill-opacity:0.196078}
    .fil114 {fill:#B0E5FF;fill-opacity:0.196078}
    .fil40 {fill:#B8E7FF;fill-opacity:0.196078}
    .fil75 {fill:#4990D0;fill-opacity:0.203922}
    .fil113 {fill:#B0E5FF;fill-opacity:0.211765}
    .fil39 {fill:#B8E7FF;fill-opacity:0.211765}
    .fil74 {fill:#4990D0;fill-opacity:0.215686}
    .fil127 {fill:#A0DFFF;fill-opacity:0.219608}
    .fil186 {fill:#FF87FF;fill-opacity:0.219608}
    .fil73 {fill:#4990D0;fill-opacity:0.223529}
    .fil112 {fill:#B0E5FF;fill-opacity:0.227451}
    .fil38 {fill:#B8E7FF;fill-opacity:0.227451}
    .fil72 {fill:#4990D0;fill-opacity:0.235294}
    .fil111 {fill:#B0E5FF;fill-opacity:0.243137}
    .fil37 {fill:#B8E7FF;fill-opacity:0.243137}
    .fil71 {fill:#4990D0;fill-opacity:0.247059}
    .fil172 {fill:#DF72DF;fill-opacity:0.250980}
    .fil164 {fill:#F07DF0;fill-opacity:0.250980}
    .fil70 {fill:#4990D0;fill-opacity:0.254902}
    .fil110 {fill:#B0E5FF;fill-opacity:0.258824}
    .fil36 {fill:#B8E7FF;fill-opacity:0.258824}
    .fil69 {fill:#4990D0;fill-opacity:0.266667}
    .fil109 {fill:#B0E5FF;fill-opacity:0.274510}
    .fil35 {fill:#B8E7FF;fill-opacity:0.274510}
    .fil68 {fill:#4990D0;fill-opacity:0.274510}
    .fil67 {fill:#4990D0;fill-opacity:0.286275}
    .fil108 {fill:#B0E5FF;fill-opacity:0.286275}
    .fil34 {fill:#B8E7FF;fill-opacity:0.286275}
    .fil66 {fill:#4990D0;fill-opacity:0.298039}
    .fil107 {fill:#B0E5FF;fill-opacity:0.301961}
    .fil33 {fill:#B8E7FF;fill-opacity:0.301961}
    .fil65 {fill:#4990D0;fill-opacity:0.305882}
    .fil173 {fill:#E376E3;fill-opacity:0.313725}
    .fil64 {fill:#4990D0;fill-opacity:0.317647}
    .fil106 {fill:#B0E5FF;fill-opacity:0.317647}
    .fil32 {fill:#B8E7FF;fill-opacity:0.317647}
    .fil63 {fill:#4990D0;fill-opacity:0.325490}
    .fil105 {fill:#B0E5FF;fill-opacity:0.333333}
    .fil31 {fill:#B8E7FF;fill-opacity:0.333333}
    .fil189 {fill:#E578E5;fill-opacity:0.333333}
    .fil165 {fill:#F07DF0;fill-opacity:0.333333}
    .fil62 {fill:#4990D0;fill-opacity:0.337255}
    .fil61 {fill:#4990D0;fill-opacity:0.349020}
    .fil104 {fill:#B0E5FF;fill-opacity:0.349020}
    .fil30 {fill:#B8E7FF;fill-opacity:0.349020}
    .fil60 {fill:#4990D0;fill-opacity:0.356863}
    .fil103 {fill:#B0E5FF;fill-opacity:0.364706}
    .fil29 {fill:#B8E7FF;fill-opacity:0.364706}
    .fil59 {fill:#4990D0;fill-opacity:0.368627}
    .fil174 {fill:#E77BE7;fill-opacity:0.376471}
    .fil58 {fill:#4990D0;fill-opacity:0.380392}
    .fil102 {fill:#B0E5FF;fill-opacity:0.380392}
    .fil28 {fill:#B8E7FF;fill-opacity:0.380392}
    .fil57 {fill:#4990D0;fill-opacity:0.388235}
    .fil101 {fill:#B0E5FF;fill-opacity:0.392157}
    .fil27 {fill:#B8E7FF;fill-opacity:0.392157}
    .fil56 {fill:#4990D0;fill-opacity:0.400000}
    .fil100 {fill:#B0E5FF;fill-opacity:0.407843}
    .fil26 {fill:#B8E7FF;fill-opacity:0.407843}
    .fil55 {fill:#4990D0;fill-opacity:0.407843}
    .fil166 {fill:#F07DF0;fill-opacity:0.415686}
    .fil54 {fill:#4990D0;fill-opacity:0.419608}
    .fil99 {fill:#B0E5FF;fill-opacity:0.423529}
    .fil25 {fill:#B8E7FF;fill-opacity:0.423529}
    .fil53 {fill:#4990D0;fill-opacity:0.431373}
    .fil175 {fill:#EB7FEB;fill-opacity:0.439216}
    .fil98 {fill:#B0E5FF;fill-opacity:0.439216}
    .fil24 {fill:#B8E7FF;fill-opacity:0.439216}
    .fil130 {fill:#808385;fill-opacity:0.439216}
    .fil14 {fill:#A4A5A7;fill-opacity:0.439216}
    .fil18 {fill:#EDEDED;fill-opacity:0.439216}
    .fil138 {fill:#7F7F7F;fill-rule:nonzero;fill-opacity:0.439216}
    .fil97 {fill:#B0E5FF;fill-opacity:0.454902}
    .fil23 {fill:#B8E7FF;fill-opacity:0.454902}
    .fil96 {fill:#B0E5FF;fill-opacity:0.470588}
    .fil22 {fill:#B8E7FF;fill-opacity:0.470588}
    .fil95 {fill:#B0E5FF;fill-opacity:0.486275}
    .fil21 {fill:#B8E7FF;fill-opacity:0.486275}
    .fil167 {fill:#F07DF0;fill-opacity:0.501961}
    .fil176 {fill:#F085F0;fill-opacity:0.501961}
    .fil134 {fill:#D1CFCF;fill-rule:nonzero;fill-opacity:0.501961}
    .fil128 {fill:#396DA6;fill-opacity:0.780392}
    .fil20 {fill:#A8DEFF;fill-opacity:0.780392}
    .fil131 {fill:url(#id0)}
    .fil17 {fill:url(#id1)}
    .fil19 {fill:url(#id2)}
    .fil180 {fill:url(#id3)}
    .fil15 {fill:url(#id4)}
    .fil16 {fill:url(#id5)}
    .fil137 {fill:url(#id6);fill-rule:nonzero}
    .fil139 {fill:url(#id7);fill-rule:nonzero}
    .fil135 {fill:url(#id8);fill-rule:nonzero}
    .fil133 {fill:url(#id9);fill-rule:nonzero}
    .fil185 {fill:url(#id10);fill-opacity:0.501961}
   
  </style>
  <linearGradient
   id="id0"
   gradientUnits="userSpaceOnUse"
   x1="8.89735"
   y1="118.04"
   x2="109.295"
   y2="115.888">
   <stop
   offset="0"
   style="stop-color:#DCF0FF"
   id="stop4218" />
   <stop
   offset="0.0784314"
   style="stop-color:white"
   id="stop4220" />
   <stop
   offset="0.890196"
   style="stop-color:white"
   id="stop4222" />
   <stop
   offset="1"
   style="stop-color:#DCF0FF"
   id="stop4224" />
  </linearGradient>
  <linearGradient
   id="id1"
   gradientUnits="userSpaceOnUse"
   x1="58.8114"
   y1="33.3417"
   x2="59.1988"
   y2="65.0193">
   <stop
   offset="0"
   style="stop-color:#EDEDED"
   id="stop4227" />
   <stop
   offset="1"
   style="stop-color:#D1CFCF"
   id="stop4229" />
  </linearGradient>
  <linearGradient
   id="id2"
   gradientUnits="userSpaceOnUse"
   x1="59.3995"
   y1="52.0695"
   x2="58.4015"
   y2="97.9925">
   <stop
   offset="0"
   style="stop-color:#5CA2DA"
   id="stop4232" />
   <stop
   offset="1"
   style="stop-color:#8DC8F4"
   id="stop4234" />
  </linearGradient>
  <linearGradient
   id="id3"
   gradientUnits="userSpaceOnUse"
   x1="105.148"
   y1="70.2552"
   x2="86.7743"
   y2="108.894">
   <stop
   offset="0"
   style="stop-color:#939393"
   id="stop4237" />
   <stop
   offset="1"
   style="stop-color:#7F7F7F"
   id="stop4239" />
  </linearGradient>
  <linearGradient
   id="id4"
   gradientUnits="userSpaceOnUse"
   x1="59.4066"
   y1="95.8016"
   x2="58.796"
   y2="54.3609">
   <stop
   offset="0"
   style="stop-color:#B0B0B0"
   id="stop4242" />
   <stop
   offset="1"
   style="stop-color:#BEBEBE"
   id="stop4244" />
  </linearGradient>
  <linearGradient
   id="id5"
   gradientUnits="userSpaceOnUse"
   x1="59.3086"
   y1="95.7"
   x2="58.7003"
   y2="54.3207">
   <stop
   offset="0"
   style="stop-color:#BFBFBF"
   id="stop4247" />
   <stop
   offset="1"
   style="stop-color:#D6D6D6"
   id="stop4249" />
  </linearGradient>
  <linearGradient
   id="id6"
   gradientUnits="userSpaceOnUse"
   x1="59.1043"
   y1="123.983"
   x2="59.1043"
   y2="23.0282">
   <stop
   offset="0"
   style="stop-color:#919191"
   id="stop4252" />
   <stop
   offset="1"
   style="stop-color:#B2B2B2"
   id="stop4254" />
  </linearGradient>
  <linearGradient
   id="id7"
   gradientUnits="userSpaceOnUse"
   x1="4.51069"
   y1="109.304"
   x2="5.94456"
   y2="37.9268">
   <stop
   offset="0"
   style="stop-color:#ABC5D4"
   id="stop4257" />
   <stop
   offset="1"
   style="stop-color:white"
   id="stop4259" />
  </linearGradient>
  <linearGradient
   id="id8"
   gradientUnits="userSpaceOnUse"
   xlink:href="#id7"
   x1="111.852"
   y1="110.51"
   x2="113.253"
   y2="40.7214">
  </linearGradient>
  <linearGradient
   id="id9"
   gradientUnits="userSpaceOnUse"
   x1="4.70439"
   y1="94.9311"
   x2="5.59023"
   y2="52.105">
   <stop
   offset="0"
   style="stop-color:#B3B1B1"
   id="stop4263" />
   <stop
   offset="1"
   style="stop-color:#EDEDED"
   id="stop4265" />
  </linearGradient>
  <linearGradient
   id="id10"
   gradientUnits="userSpaceOnUse"
   x1="78.2655"
   y1="50.1691"
   x2="94.5815"
   y2="78.5655">
   <stop
   offset="0"
   style="stop-color:#ECA6F3"
   id="stop4268" />
   <stop
   offset="1"
   style="stop-color:#D594E9"
   id="stop4270" />
  </linearGradient>
 </defs>
 <g
   id="Слой_x0020_1">
  <metadata
   id="CorelCorpID_0Corel-Layer" />
  <g
   id="_298317768">
   <path
   id="_288979648"
   class="fil0"
   d="M56.4999 107.147c59.1869,-2.52287 62.539,7.343 62.7964,15.24 0.257483,7.89813 -26.0732,3.27169 -60.5818,4.6347 -34.5075,1.36301 -61.3531,1.90042 -61.3531,-3.95438 0,-5.8548 -0.0484258,-13.3962 59.1385,-15.9203z" />
   <g
   id="g4276">
    <path
   id="_288961504"
   class="fil1"
   d="M56.6322 108.118c56.755,-2.32916 62.1551,7.01111 62.3925,14.4427 0.237404,7.31348 -26.2456,3.05319 -60.2759,4.31108 -34.0315,1.25789 -60.9905,1.74215 -60.9905,-3.6839 0,-5.54534 2.11774,-12.7395 58.874,-15.0699z" />
    <path
   id="_288971104"
   class="fil2"
   d="M56.7598 109.09c54.3255,-2.13428 61.7736,6.6804 61.9909,13.6443 0.217326,6.73 -26.4192,2.83586 -59.9724,3.98863 -33.5543,1.15277 -60.6267,1.58388 -60.6267,-3.41225 0,-5.23707 4.28273,-12.0852 58.6082,-14.2206z" />
    <path
   id="_288963688"
   class="fil3"
   d="M56.8909 110.062c51.8947,-1.94058 61.3909,6.3485 61.5882,12.847 0.197247,6.14417 -26.5917,2.61736 -59.6688,3.66501 -33.0784,1.04765 -60.2618,1.42561 -60.2618,-3.14177 0,-4.92762 6.44772,-11.4285 58.3425,-13.3702z" />
    <path
   id="_288979792"
   class="fil4"
   d="M57.0208 111.034c49.4652,-1.74687 61.007,6.01661 61.1854,12.0486 0.178349,5.5607 -26.7629,2.40121 -59.3641,3.34256 -32.6012,0.942531 -59.8992,1.26852 -59.8992,-2.8713 0,-4.61817 8.61389,-10.773 58.0779,-12.5198z" />
    <path
   id="_288984568"
   class="fil5"
   d="M57.1507 112.005c47.0333,-1.55199 60.6244,5.6859 60.7815,11.2513 0.15827,4.97605 -26.9354,2.1827 -59.0594,3.01893 -32.1252,0.837412 -59.5354,1.11025 -59.5354,-2.59964 0,-4.3099 10.7789,-10.1174 57.8133,-11.6706z" />
    <path
   id="_288971728"
   class="fil6"
   d="M57.2806 112.979c44.6037,-1.35828 60.2405,5.354 60.3799,10.4541 0.138191,4.39139 -27.1078,1.9642 -58.7558,2.69531 -31.6492,0.732292 -59.1728,0.95198 -59.1728,-2.32916 0,-4.00044 12.945,-9.46075 57.5487,-10.8202z" />
    <path
   id="_288956536"
   class="fil7"
   d="M57.4129 113.951c42.173,-1.16458 59.8578,5.02211 59.9759,9.65563 0.119293,3.80674 -27.2791,1.74687 -58.4511,2.37286 -31.172,0.625992 -58.8078,0.793711 -58.8078,-2.05869 0,-3.69099 15.1088,-8.80523 57.283,-9.96981z" />
    <path
   id="_288988312"
   class="fil8"
   d="M57.5428 114.924c39.7422,-0.970878 59.4751,4.69022 59.5732,8.85838 0.100395,3.22209 -27.4515,1.52837 -58.1464,2.04924 -30.6949,0.520873 -58.4452,0.635441 -58.4452,-1.78821 0,-3.38154 17.275,-8.14853 57.0184,-9.1194z" />
    <path
   id="_288969808"
   class="fil9"
   d="M57.6728 115.895c37.3115,-0.775994 59.0913,4.3595 59.1704,8.06112 0.0791348,2.63743 -27.6251,1.30986 -57.8428,1.72561 -30.2201,0.415753 -58.0814,0.477171 -58.0814,-1.51655 0,-3.07327 19.44,-7.49301 56.7538,-8.27018z" />
    <path
   id="_288982504"
   class="fil10"
   d="M57.8015 116.867c34.8831,-0.582291 58.7098,4.02761 58.7688,7.26269 0.060237,2.05396 -27.7964,1.09371 -57.5381,1.40317 -29.7429,0.310634 -57.7188,0.320083 -57.7188,-1.24608 0,-2.76381 21.6062,-6.83749 56.4881,-7.41978z" />
    <path
   id="_288966712"
   class="fil11"
   d="M57.9338 117.839c32.4512,-0.388587 58.3247,3.69571 58.3649,6.46543 0.040158,1.46813 -27.9688,0.875208 -57.2357,1.07954 -29.2645,0.205514 -57.3527,0.161813 -57.3527,-0.975603 0,-2.45436 23.7712,-6.18078 56.2235,-6.56937z" />
   </g>
  </g>
  <path
   class="fil12"
   d="M7.45521 24.0204l103.129 0c3.97682,0 6.64614,1.86616 6.58945,6.48079l-0.109844 8.75208 -116.088 0 0 -8.75208c0,-3.67091 2.62917,-6.67685 6.47961,-6.48079z"
   id="path4289" />
  <path
   class="fil13"
   d="M115.663 25.1661c-0.902373,-0.985051 -1.58388,-0.435832 -3.03311,-0.625992l-0.927177 2.31853 3.3839 1.3571 0.576385 -3.04964z"
   id="path4291" />
  <path
   class="fil14"
   d="M118.236 28.2877c-0.902373,-0.985051 -1.38073,-2.4709 -2.82996,-2.66106l-0.995682 2.1827 3.18075 2.50987 0.64489 -2.03152z"
   id="path4293" />
  <path
   class="fil14"
   d="M1.0819 28.0185c0.902373,-0.985051 1.38073,-2.4709 2.82996,-2.66106l0.995682 2.1827 -4.26383 5.2914 0.438194 -4.81305z"
   id="path4295" />
  <path
   class="fil13"
   d="M2.9776 24.8968c0.902373,-0.985051 1.58388,-0.435832 3.03311,-0.625992l0.927177 2.31853 -3.3839 1.3571 -0.576385 -3.04964z"
   id="path4297" />
  <path
   class="fil15"
   d="M7.31584 26.5917l103.378 0c3.46658,0 6.29417,2.8524 6.30244,6.30244l0.192522 84.3743c0.00826782,3.4524 -2.84177,6.30126 -6.30244,6.30126 -41.5068,0 -32.5847,0 -103.378,0 -3.46067,0 -6.29535,-2.83468 -6.30244,-6.30126l-0.192522 -84.3743c-0.0070867,-3.46658 2.83586,-6.30244 6.30244,-6.30244z"
   id="path4299" />
  <path
   class="fil16"
   d="M7.31584 26.5917l103.378 0c3.46658,0 6.30244,2.8524 6.30244,6.30244l0 84.2337c0,3.4524 -2.84177,6.30244 -6.30244,6.30244 -41.5068,0 -32.5835,0 -103.378,0 -3.46067,0 -6.30244,-2.83586 -6.30244,-6.30244l0 -84.2337c0,-3.46658 2.83586,-6.30244 6.30244,-6.30244z"
   id="path4301" />
  <path
   class="fil17"
   d="M116.997 63.2063c-27.7881,8.5631 -84.1286,6.31661 -115.983,4.62171l0 -34.9339c0,-3.46658 2.83586,-6.30244 6.30244,-6.30244l103.378 0c3.46658,0 6.30244,2.85122 6.30244,6.30244l0 30.3122z"
   id="path4303" />
  <path
   class="fil18"
   d="M116.879 31.9575c0.0590558,0.347248 0.0921271,0.707489 0.0921271,1.06655l0 84.5621c0,1.04647 -0.263389,2.04333 -0.725206,2.91854 -0.150002,0.185435 -0.308272,0.360241 -0.47599,0.527959 -1.23309,1.23309 -2.93508,2.00199 -4.80124,2.00199l-104.25 0c-1.71262,0 -3.28587,-0.64489 -4.48706,-1.70317 -0.780718,-1.05001 -1.24372,-2.3457 -1.24372,-3.74532l0 -0.453549c0.194884,1.23663 0.785443,2.34688 1.63348,3.19492 1.05119,1.05119 2.50279,1.70553 4.09729,1.70553l104.25 0c1.59215,0 3.04374,-0.65552 4.09493,-1.70671 1.05119,-1.05119 1.70671,-2.50397 1.70671,-4.09493 0,-15.0167 0.0366146,-22.6219 0.070867,-39.33 0.030709,-14.6896 0.0366146,-28.9232 0.0377957,-44.9439z"
   id="path4305" />
  <path
   class="fil19"
   d="M5.89023 36.9028l0 76.5411c0.21142,2.66814 3.58233,4.6158 5.99535,4.60872l94.8319 -0.335437c3.48548,-0.0968516 5.07408,-2.43428 5.19337,-5.49692l0 -75.1167c0,-3.22445 -1.92522,-4.98668 -5.3918,-4.99022l-94.9901 -0.106301c-3.24098,-0.00354335 -5.63983,1.69136 -5.63865,4.89573z"
   id="path4307" />
  <path
   class="fil20"
   d="M9.34145 115.181c1.2945,0.720481 3.36028,0.872845 4.54139,0.872845l91.0334 0c1.21773,-0.0342524 2.4331,-0.236223 3.33429,-0.693316l-0.620086 -0.790167c-0.742923,0.331894 -1.75986,0.460636 -2.74137,0.487801l-91.0062 0c-0.980327,0.00236223 -2.82759,-0.0696859 -3.94375,-0.669693l-0.597645 0.792529z"
   id="path4309" />
  <g
   id="_297521152">
   <g
   id="g4312">
    <path
   id="_293067088"
   class="fil21"
   d="M5.62566 80.7518c2.139,-0.579928 4.3099,-1.04411 6.49851,-1.35474 7.30757,-1.0382 14.7923,-0.304728 21.8707,3.62249 4.05123,2.26893 7.71151,4.37013 11.008,6.26937 17.7368,10.5308 23.2089,13.7447 37.1721,9.64028 6.89418,-1.93703 17.2089,-8.4816 27.4255,-11.8005l0 0.744104c-10.1411,3.32957 -20.3802,9.83162 -27.2307,11.7604 -14.262,4.20123 -19.7932,0.95198 -37.739,-9.70406 -3.25516,-1.87916 -6.87292,-3.95438 -10.9891,-6.26346 -6.71701,-3.71343 -13.9537,-4.39021 -21.1018,-3.38744 -2.32326,0.327169 -4.63588,0.823238 -6.91426,1.44923l0 -0.975603z" />
    <path
   id="_293045560"
   class="fil22"
   d="M5.62566 81.7746c2.43074,-0.618905 4.89809,-1.11025 7.39025,-1.43151 7.33474,-0.944894 14.81,-0.259846 21.9369,3.49965 4.04887,2.17798 7.77175,4.21895 11.1616,6.09693 17.4593,10.2568 23.0743,13.4872 36.8615,9.70642 6.79615,-1.69254 16.7754,-7.67254 26.6247,-10.6631l0 0.720481c-9.78555,3.00594 -19.6987,8.95995 -26.4547,10.6513 -14.073,3.87761 -19.74,0.615362 -37.3965,-9.76429 -3.34847,-1.85672 -7.02528,-3.87406 -11.1332,-6.09102 -6.78079,-3.55162 -14.021,-4.18115 -21.2046,-3.27051 -2.61854,0.330713 -5.22054,0.849223 -7.78592,1.49884l0 -0.953161z" />
    <path
   id="_293064520"
   class="fil23"
   d="M5.62566 82.749c2.72366,-0.631898 5.48865,-1.13623 8.28081,-1.45868 7.36072,-0.851585 14.8289,-0.216144 22.0042,3.37563 4.04651,2.08467 7.83199,4.06659 11.3151,5.92566 17.1805,9.98162 22.9397,13.2297 36.5532,9.77138 6.68985,-1.45277 16.336,-6.87882 25.8216,-9.54933l0 0.699221c-9.43122,2.68822 -19.0231,8.10364 -25.6775,9.56114 -13.8852,3.55634 -19.6904,0.278744 -37.0575,-9.82099 -3.43705,-1.83664 -7.17647,-3.79611 -11.2761,-5.91976 -6.84221,-3.38981 -14.0872,-3.97092 -21.3073,-3.15476 -2.91027,0.330713 -5.80165,0.851585 -8.65641,1.5012l0 -0.93072z" />
    <path
   id="_293048896"
   class="fil24"
   d="M5.62566 83.675c3.02012,-0.620086 6.07803,-1.12206 9.17137,-1.4386 7.38671,-0.758277 14.8466,-0.171262 22.0715,3.25161 4.04296,1.99373 7.89222,3.91658 11.4675,5.75558 16.9018,9.70642 22.8062,12.9722 36.2438,9.83752 6.58236,-1.22009 15.8943,-6.10756 25.0208,-8.45916l0 0.67678c-9.08161,2.37404 -18.351,7.26623 -24.9003,8.49577 -13.6962,3.2339 -19.6384,-0.0590558 -36.7174,-9.87886 -3.53036,-1.81538 -7.32765,-3.71697 -11.419,-5.74968 -6.90599,-3.22681 -14.1533,-3.76068 -21.4101,-3.03783 -3.20319,0.320083 -6.38157,0.827963 -9.52807,1.45041l0 -0.903554z" />
    <path
   id="_293049184"
   class="fil25"
   d="M5.62566 84.5443c3.32012,-0.578747 6.67095,-1.0571 10.0643,-1.36065 7.41151,-0.664969 14.8632,-0.12638 22.1353,3.1276 4.0406,1.90278 7.95364,3.76658 11.6222,5.58314 16.6254,9.43358 22.6715,12.7171 35.9343,9.90367 6.46898,-0.992138 15.4478,-5.354 24.2188,-7.39615l0 0.660244c-8.73554,2.06459 -17.6849,6.44772 -24.1231,7.45285 -13.5073,2.91145 -19.5865,-0.396855 -36.3784,-9.93674 -3.62012,-1.7953 -7.47765,-3.63666 -11.5608,-5.57723 -6.96977,-3.06618 -14.2206,-3.5528 -21.514,-2.92326 -3.49256,0.301185 -6.95678,0.775994 -10.3986,1.34411l0 -0.87757z" />
    <path
   id="_293076592"
   class="fil26"
   d="M5.62566 85.3546c3.62485,-0.506699 7.26505,-0.94135 10.9549,-1.22482 7.43867,-0.571661 14.8821,-0.0814971 22.2026,3.00476 4.03942,1.80947 8.01388,3.61422 11.7757,5.41188 16.3467,9.15956 22.5369,12.4596 35.6248,9.96863 6.35087,-0.771269 14.9978,-4.62407 23.4168,-6.35913l0 0.642528c-8.3942,1.76223 -17.0199,5.6481 -23.3471,6.43591 -13.3183,2.59019 -19.5357,-0.731111 -36.0371,-9.99343 -3.71107,-1.77404 -7.62883,-3.55989 -11.7049,-5.40597 -7.03237,-2.90319 -14.2868,-3.34256 -21.6168,-2.80751 -3.77957,0.276381 -7.5249,0.69804 -11.269,1.17757l0 -0.850404z" />
    <path
   id="_293058424"
   class="fil27"
   d="M5.62566 86.1034c3.93784,-0.40158 7.86388,-0.77245 11.8454,-1.02639 7.46466,-0.478352 14.9022,-0.0377957 22.27,2.88074 4.03588,1.71734 8.07293,3.46422 11.9305,5.24062 16.0667,8.88436 22.4022,12.2021 35.3142,10.0324 6.22567,-0.557487 14.5431,-3.9154 22.6148,-5.35518l0 0.630716c-8.05522,1.46695 -16.3632,4.87093 -22.57,5.44967 -13.1293,2.26656 -19.4837,-1.07127 -35.6969,-10.0525 -3.8032,-1.75396 -7.78002,-3.48075 -11.8478,-5.23471 -7.09615,-2.74019 -14.3529,-3.13232 -21.7196,-2.69058 -4.06422,0.24331 -8.08829,0.588196 -12.1407,0.948437l0 -0.823238z" />
    <path
   id="_293049904"
   class="fil28"
   d="M5.62566 86.7873c4.25675,-0.265751 8.46506,-0.545676 12.7372,-0.764183 7.48946,-0.383863 14.9187,0.0070867 22.3361,2.75673 4.03351,1.6264 8.13317,3.31421 12.084,5.07053 15.788,8.60916 22.2676,11.9446 35.0048,10.0985 6.09574,-0.350792 14.0848,-3.23508 21.8129,-4.38431l0 0.620086c-7.72096,1.17757 -15.7112,4.11737 -21.7928,4.49061 -12.9415,1.9453 -19.4341,-1.40671 -35.3579,-10.1092 -3.89296,-1.73388 -7.9312,-3.4028 -11.9907,-5.06345 -7.15875,-2.57956 -14.4179,-2.92326 -21.8235,-2.57483 -4.34415,0.204333 -8.64223,0.448824 -13.01,0.657882l0 -0.798435z" />
    <path
   id="_293076088"
   class="fil29"
   d="M5.62566 87.4027c4.58273,-0.090946 9.07098,-0.257483 13.6277,-0.432289 7.51663,-0.291736 14.9376,0.050788 22.4022,2.63271 4.03233,1.53427 8.19459,3.16303 12.2387,4.89809 15.5092,8.33514 22.1329,11.6872 34.6953,10.1647 5.95992,-0.152364 13.6218,-2.58074 21.0109,-3.44886l0 0.611819c-7.39025,0.89883 -15.064,3.38981 -21.0156,3.56697 -12.7537,1.62167 -19.3833,-1.74333 -35.0166,-10.1671 -3.98627,-1.7138 -8.08238,-3.32248 -12.136,-4.89219 -7.22135,-2.41657 -14.484,-2.71421 -21.9263,-2.45909 -4.62053,0.15827 -9.18791,0.279925 -13.8805,0.300004l0 -0.774813z" />
    <path
   id="_293055856"
   class="fil30"
   d="M5.62566 87.9519c4.92053,0.116931 9.68162,0.090946 14.5195,-0.0354335 7.54261,-0.198428 14.9553,0.0956705 22.4696,2.50987 4.02761,1.44214 8.25364,3.01067 12.3911,4.72683 15.2305,8.05994 21.9983,11.4308 34.3859,10.2285 5.81582,0.0389769 13.1541,-1.95475 20.2089,-2.55121l0 0.609456c-7.06544,0.627173 -14.4226,2.68586 -20.2396,2.67641 -12.5635,1.29923 -19.3313,-2.08113 -34.6764,-10.2261 -4.07603,-1.69136 -8.23238,-3.24335 -12.2765,-4.71974 -7.28631,-2.25593 -14.5525,-2.50515 -22.029,-2.34452 -4.89337,0.107482 -9.72768,0.0791348 -14.7533,-0.120474l0 -0.753553z" />
    <path
   id="_293066608"
   class="fil31"
   d="M5.62566 88.4326c5.27014,0.361422 10.2982,0.499612 15.41,0.431108 7.5686,-0.103938 14.9742,0.139372 22.5357,2.38586 4.02761,1.35002 8.31506,2.86067 12.5458,4.55557 14.9529,7.78474 21.8637,11.1734 34.0752,10.2934 5.66818,0.217326 12.6817,-1.35947 19.4081,-1.69372l0 0.605913c-6.74418,0.366146 -13.7895,2.01499 -19.4613,1.82601 -12.3757,0.976784 -19.2806,-2.41893 -34.3374,-10.284 -4.16698,-1.67128 -8.38357,-3.16421 -12.4206,-4.54966 -7.34891,-2.09294 -14.6187,-2.29373 -22.1329,-2.22641 -5.15794,0.0472447 -10.2521,-0.153545 -15.6226,-0.608275l0 -0.735836z" />
    <path
   id="_293045896"
   class="fil32"
   d="M5.62566 88.8436c5.63038,0.642528 10.9194,0.97324 16.3018,0.966154 7.59458,-0.0118112 14.9907,0.184254 22.6019,2.26184 4.02407,1.25907 8.3753,2.71066 12.6982,4.38431 14.6766,7.51072 21.7302,10.9171 33.767,10.3608 5.51227,0.387406 12.2045,-0.797254 18.6061,-0.882294l0 0.608275c-6.42764,0.115749 -13.1612,1.37482 -18.6853,1.0134 -12.1868,0.65552 -19.2298,-2.75555 -33.9973,-10.3395 -4.25793,-1.65238 -8.53475,-3.08744 -12.5624,-4.37958 -7.41269,-1.92995 -14.6848,-2.08467 -22.2357,-2.11066 -5.42015,-0.0177168 -10.7694,-0.416934 -16.4943,-1.15749l0 -0.725206z" />
    <path
   id="_293045512"
   class="fil33"
   d="M5.62566 89.1909c6.00362,0.955524 11.5478,1.50356 17.1935,1.56616 7.61939,0.0814971 15.0096,0.227956 22.668,2.13782 4.0217,1.16694 8.43436,2.55948 12.8529,4.21304 14.3966,7.23552 21.5944,10.6596 33.4575,10.4245 5.3481,0.548038 11.7202,-0.266932 17.803,-0.115749l0 0.614181c-6.11464,-0.124017 -12.5399,0.766545 -17.9081,0.245672 -11.999,0.333075 -19.1778,-3.09216 -33.6571,-10.3974 -4.34887,-1.63112 -8.68593,-3.0083 -12.7065,-4.20714 -7.47529,-1.76931 -14.751,-1.87679 -22.3385,-1.99609 -5.67527,-0.0874027 -11.2726,-0.711032 -17.3648,-1.77286l0 -0.712213z" />
    <path
   id="_295880760"
   class="fil34"
   d="M5.62566 89.472c6.38984,1.30277 12.1832,2.09412 18.0841,2.23113 7.64655,0.175986 15.0285,0.272838 22.7341,2.01499 4.02052,1.07482 8.49577,2.4083 13.0076,4.04178 14.1179,6.9615 21.4609,10.4021 33.1469,10.4895 5.17684,0.695678 11.2336,0.225593 17.0022,0.598826l0 0.624811c-5.80873,-0.350792 -11.9257,0.194884 -17.1297,-0.47599 -11.8112,0.0106301 -19.1282,-3.42878 -33.3181,-10.4552 -4.43982,-1.61104 -8.83712,-2.92917 -12.8506,-4.03706 -7.53789,-1.60632 -14.8171,-1.66656 -22.4412,-1.87916 -5.9233,-0.164175 -11.7627,-1.03348 -18.2353,-2.44727l0 -0.706308z" />
    <path
   id="_295872024"
   class="fil35"
   d="M5.62566 89.6893c6.79024,1.68191 12.8257,2.74373 18.9746,2.96106 7.67254,0.268114 15.0462,0.316539 22.8026,1.88979 4.0158,0.98387 8.55601,2.2583 13.16,3.87052 13.8391,6.68748 21.3274,10.147 32.8386,10.5556 4.99849,0.832687 10.7411,0.677961 16.199,1.26143l0 0.636622c-5.50637,-0.561031 -11.3175,-0.336618 -16.3537,-1.14686 -11.6222,-0.311815 -19.0774,-3.76658 -32.978,-10.5143 -4.53076,-1.58978 -8.98712,-2.85004 -12.9923,-3.86461 -7.60167,-1.44332 -14.8844,-1.4575 -22.5452,-1.76341 -6.16543,-0.245672 -12.2411,-1.38663 -19.1057,-3.18193l0 -0.703946z" />
    <path
   id="_295885416"
   class="fil36"
   d="M5.62566 89.8464c7.20481,2.09294 13.4754,3.44886 19.8664,3.75005 7.69852,0.361422 15.0651,0.361422 22.8688,1.76695 4.01225,0.890562 8.61625,2.10711 13.3147,3.69808 13.5604,6.41465 21.1916,9.88949 32.5268,10.6218 4.81305,0.955524 10.2438,1.09253 15.3982,1.86498l0 0.654339c-5.20754,-0.757096 -10.7186,-0.827963 -15.5766,-1.76459 -11.4332,-0.635441 -19.0254,-4.1032 -32.6378,-10.571 -4.62171,-1.5697 -9.13948,-2.77208 -13.1364,-3.69453 -7.66545,-1.28151 -14.9494,-1.24726 -22.6479,-1.64766 -6.40165,-0.331894 -12.7053,-1.76813 -19.9762,-3.97092l0 -0.707489z" />
    <path
   id="_295870320"
   class="fil37"
   d="M5.62566 89.9456c7.63356,2.52995 14.1309,4.20478 20.7581,4.59691 7.7245,0.455911 15.0817,0.406304 22.9326,1.64411 4.01344,0.799616 8.67885,1.95593 13.4695,3.52682 13.2828,6.13945 21.0581,9.63201 32.2185,10.6867 4.61699,1.06419 9.74185,1.46222 14.5962,2.41066l0 0.675599c-4.91581,-0.936626 -10.1269,-1.27915 -14.7994,-2.32916 -11.2454,-0.955524 -18.9746,-4.43864 -32.2988,-10.6289 -4.71266,-1.54844 -9.28948,-2.69295 -13.2781,-3.52091 -7.72805,-1.12088 -15.0167,-1.03938 -22.7495,-1.53309 -6.63315,-0.421659 -13.16,-2.1768 -20.8491,-4.81541l0 -0.713395z" />
    <path
   id="_295895208"
   class="fil38"
   d="M5.62566 89.9881c8.0753,2.99649 14.7947,5.01502 21.6475,5.50164 7.75167,0.548038 15.1018,0.450006 23.0023,1.51892 4.00871,0.70867 8.73672,1.80593 13.6218,3.35673 13.0041,5.86425 20.9235,9.37571 31.9091,10.7517 4.41383,1.15868 9.23397,1.78821 13.7943,2.89019l0 0.342524c0,0.119293 -0.00826782,0.238586 -0.020079,0.354335 -4.62171,-1.0949 -9.52807,-1.67837 -14.0021,-2.82641 -11.0576,-1.27915 -18.9239,-4.77762 -31.9587,-10.6856 -4.80242,-1.52955 -9.44067,-2.61499 -13.4222,-3.35083 -7.79065,-0.960248 -15.0817,-0.830325 -22.8534,-1.41734 -6.85402,-0.516148 -13.597,-2.60909 -21.7184,-5.70952l0 -0.726387z" />
    <path
   id="_295882152"
   class="fil39"
   d="M5.62566 89.981c8.53121,3.48666 15.4655,5.86897 22.5393,6.4548 7.77765,0.641346 15.1207,0.494888 23.0684,1.3949 4.00635,0.616543 8.79696,1.65711 13.7765,3.18547 12.7254,5.59023 20.7877,9.1194 31.5984,10.819 4.17525,1.22836 8.65877,2.05632 12.9025,3.27642 -0.0484258,0.21142 -0.116931,0.416934 -0.204333,0.613l-0.0413391 0.0496069c-4.2473,-1.18702 -8.73908,-1.9701 -12.9108,-3.1772 -10.8675,-1.60041 -18.8719,-5.11306 -31.6185,-10.7434 -4.89455,-1.50711 -9.59067,-2.53468 -13.5639,-3.17957 -7.85561,-0.796073 -15.149,-0.620086 -22.9574,-1.29923 -7.07017,-0.615362 -14.0234,-3.06854 -22.5889,-6.65441l0 -0.739379z" />
    <path
   id="_295875768"
   class="fil40"
   d="M5.62566 89.922c9.00484,4.00281 16.1447,6.77371 23.4322,7.4623 7.80128,0.734655 15.1372,0.538589 23.1322,1.2697 4.00517,0.525597 8.85838,1.50474 13.9313,3.01421 12.4466,5.31503 20.653,8.86192 31.289,10.884 3.80083,1.24135 7.81663,2.20751 11.6399,3.46185 -0.194884,0.205514 -0.405123,0.394493 -0.629535,0.565755 -3.71816,-1.16931 -7.60876,-2.07995 -11.2879,-3.26106 -10.6797,-1.92522 -18.8223,-5.45085 -31.2795,-10.8025 -4.98549,-1.48703 -9.74185,-2.45554 -13.7069,-3.0083 -7.91939,-0.633079 -15.2163,-0.409848 -23.0601,-1.18348 -7.28159,-0.716938 -14.438,-3.55044 -23.4605,-7.64183l0 -0.760639z" />
    <path
   id="_295887000"
   class="fil41"
   d="M5.62566 89.8204c9.49027,4.53785 16.8297,7.71506 24.3216,8.50995 7.83081,0.826782 15.1549,0.583472 23.2019,1.14686 4.00044,0.432289 8.91743,1.35356 14.0825,2.84413 12.1679,5.03864 20.5207,8.60207 30.9807,10.9466 3.31303,1.1882 6.75363,2.21223 10.0608,3.42051 -0.270476,0.191341 -0.559849,0.357878 -0.864578,0.49725 -3.13468,-1.0949 -6.37803,-2.04451 -9.49972,-3.1465 -10.4907,-2.24648 -18.7703,-5.78865 -30.9382,-10.8604 -5.07644,-1.46695 -9.89422,-2.37759 -13.851,-2.83704 -7.98081,-0.472447 -15.2813,-0.20079 -23.1629,-1.06891 -7.48592,-0.822057 -14.8372,-4.05241 -24.331,-8.67058l0 -0.781899z" />
    <path
   id="_295874520"
   class="fil42"
   d="M5.62566 89.6728c9.98871,5.09534 17.5219,8.70011 25.2133,9.60366 7.85443,0.921271 15.1738,0.628354 23.2668,1.02403 3.99926,0.340162 8.97767,1.20238 14.2384,2.67169 11.8903,4.76463 20.3849,8.34695 30.6712,11.0139 2.78035,1.08663 5.6292,2.09058 8.39538,3.19846 -0.377957,0.171262 -0.779537,0.300004 -1.19765,0.377957 -2.49098,-0.956705 -5.03746,-1.84372 -7.52726,-2.80397 -10.3029,-2.56893 -18.7195,-6.12527 -30.5992,-10.9171 -5.16621,-1.44569 -10.0442,-2.29963 -13.9939,-2.66578 -8.04222,-0.309453 -15.3474,0.00944894 -23.2645,-0.953161 -7.68435,-0.929539 -15.2293,-4.57683 -25.2027,-9.74067l0 -0.809065z" />
    <path
   id="_295879872"
   class="fil43"
   d="M5.62566 89.4861c10.5001,5.67054 18.2223,9.72059 26.1039,10.7364 7.88159,1.01576 15.1927,0.674418 23.3341,0.901192 3.9969,0.249216 9.03791,1.05119 14.3907,2.49924 11.6127,4.49179 20.2514,8.09183 30.3606,11.0789 2.21932,0.936626 4.4658,1.84254 6.66622,2.80397 -0.39095,0.0944894 -0.797254,0.144096 -1.21537,0.144096l-0.531503 0c-1.75042,-0.731111 -3.52091,-1.43978 -5.27251,-2.17089 -10.1127,-2.89019 -18.6676,-6.46307 -30.2567,-10.9761 -5.25951,-1.42443 -10.1966,-2.2205 -14.138,-2.49334 -8.10719,-0.146458 -15.4136,0.218507 -23.3696,-0.837412 -7.87333,-1.04175 -15.6049,-5.1225 -26.072,-10.8474l0 -0.838593z" />
    <path
   id="_295879368"
   class="fil44"
   d="M5.62566 89.2688l0.594102 0.329532c10.7151,6.08984 18.4798,10.46 26.4015,11.5714 7.9064,1.10789 15.2104,0.716938 23.4003,0.777175 3.99454,0.155907 9.09814,0.900011 14.5443,2.32916 11.334,4.21541 20.1168,7.83199 30.0523,11.1427 1.62167,0.738198 3.25398,1.47049 4.86384,2.22641l-0.216144 0.00472447 -1.80002 0 -3.22563 -1.45159c-9.92493,-3.21264 -18.6179,-6.79851 -29.9189,-11.0316 -5.35046,-1.40553 -10.3466,-2.14136 -14.2797,-2.32326 -8.17097,0.0129923 -15.4809,0.428745 -23.4723,-0.720481 -7.97608,-1.14568 -15.8045,-5.59023 -26.6011,-11.7935l-0.342524 -0.191341 0 -0.869302z" />
    <path
   id="_295891680"
   class="fil45"
   d="M5.62566 89.0361c0.411029,0.220869 0.82442,0.45473 1.24135,0.703946 10.9029,6.49142 18.6959,11.171 26.6448,12.3757 7.93356,1.2012 15.2293,0.763002 23.4664,0.653158 3.99218,0.0649614 9.15956,0.75119 14.7002,2.1579 11.0541,3.94139 19.981,7.57568 29.7405,11.2088 1.02875,0.500794 2.05751,1.00277 3.07799,1.51419l-1.9701 0 -1.51065 -0.72993c-9.73595,-3.53626 -18.5648,-7.13631 -29.5787,-11.0907 -5.44022,-1.38427 -10.4978,-2.06341 -14.4214,-2.15199 -8.23475,0.175986 -15.547,0.637803 -23.5763,-0.604732 -8.0127,-1.23781 -15.8778,-5.99062 -26.8657,-12.5931 -0.316539,-0.19016 -0.63426,-0.370871 -0.948437,-0.544495l0 -0.89883z" />
    <path
   id="_295886784"
   class="fil46"
   d="M5.62566 88.794c0.622449,0.329532 1.25198,0.692135 1.88861,1.08899 11.0919,6.893 18.9132,11.882 26.8881,13.1813 7.96073,1.29332 15.2482,0.805522 23.5349,0.527959 3.98863,-0.0271657 9.21744,0.600007 14.8525,1.98546 10.7753,3.66737 19.8463,7.31938 29.4323,11.2749l1.52128 0.797254 -1.92995 0 -0.020079 -0.0106301c-9.54697,-3.85871 -18.5152,-7.47411 -29.2385,-11.1474 -5.53117,-1.36419 -10.6489,-1.98428 -14.5655,-1.98073 -8.29617,0.338981 -15.6132,0.846861 -23.679,-0.488982 -8.04931,-1.3323 -15.9474,-6.39102 -27.1303,-13.3939 -0.522054,-0.325988 -1.04056,-0.625992 -1.55435,-0.903554l0 -0.93072z" />
    <path
   id="_295893408"
   class="fil47"
   d="M5.62566 88.5401c0.832687,0.435832 1.67837,0.928358 2.53586,1.48585 11.2808,7.29458 19.1306,12.5919 27.1326,13.9844 7.98553,1.38781 15.2648,0.850404 23.6011,0.405123 3.98509,-0.119293 9.27767,0.447643 15.0061,1.81538 10.4966,3.39099 19.7128,7.06072 29.1216,11.3387l0.146458 0.0803159 -2.19688 0c-8.80286,-3.88233 -17.4605,-7.2934 -27.3003,-10.4966 -5.6233,-1.34175 -10.8001,-1.90514 -14.7096,-1.80829 -8.35995,0.499612 -15.6781,1.05592 -23.7806,-0.373233 -8.08593,-1.42443 -16.0195,-6.79142 -27.396,-14.1947 -0.728749,-0.472447 -1.44923,-0.897649 -2.16026,-1.27797l0 -0.959067z" />
    <path
   id="_295876272"
   class="fil48"
   d="M5.62566 88.2767c1.04293,0.536227 2.10475,1.1634 3.18311,1.89097 11.4686,7.69734 19.3479,13.3029 27.3771,14.7899 8.01152,1.47994 15.2825,0.894105 23.6649,0.281106 3.98627,-0.21142 9.34027,0.29646 15.1632,1.64293 9.74185,2.97051 18.703,6.46307 27.52,10.7682l-2.16263 0c-8.20286,-3.85398 -16.5333,-7.05481 -25.5818,-9.83398 -5.71424,-1.32049 -10.9513,-1.82601 -14.8525,-1.63703 -8.42373,0.662607 -15.7455,1.26616 -23.8845,-0.256302 -8.12254,-1.5201 -16.0904,-7.19182 -27.6594,-14.9955 -0.936626,-0.629535 -1.86026,-1.17994 -2.76736,-1.65829l0 -0.992138z" />
    <path
   id="_295878072"
   class="fil49"
   d="M5.62566 88.0086c1.24962,0.633079 2.52759,1.39372 3.83036,2.30082 11.6576,8.09892 19.564,14.0151 27.6204,15.5943 8.0375,1.57325 15.3014,0.938988 23.7334,0.157089 3.98155,-0.302366 9.39933,0.14764 15.3132,1.47167 9.00838,2.5772 17.6565,5.86188 25.9409,10.1174l-2.12365 0c-7.70324,-3.78312 -15.6994,-6.77134 -24.0345,-9.17137 -5.80401,-1.30159 -11.1013,-1.74569 -14.9955,-1.46577 -8.48632,0.82442 -15.8104,1.47522 -23.9873,-0.140553 -8.15797,-1.61341 -16.1624,-7.59222 -27.924,-15.7963 -1.14568,-0.796073 -2.27011,-1.4764 -3.37327,-2.05042l0 -1.01694z" />
    <path
   id="_295891944"
   class="fil50"
   d="M5.62566 87.7286c1.45632,0.724025 2.94925,1.62404 4.47761,2.72247 11.8454,8.50286 19.7813,14.7262 27.8649,16.3986 8.06349,1.66892 15.3191,0.98387 23.7983,0.0342524 3.98036,-0.394493 9.46075,-0.00472447 15.4691,1.30041 8.3375,2.21578 16.6644,5.29495 24.4999,9.46547l-2.10593 0c-7.27096,-3.67918 -14.921,-6.45362 -22.6054,-8.50759 -5.89732,-1.28151 -11.2549,-1.66892 -15.1407,-1.29569 -8.54774,0.987414 -15.8766,1.68427 -24.0901,-0.0248035 -8.19341,-1.70671 -16.2333,-7.9938 -28.1885,-16.5959 -1.35474,-0.97324 -2.68114,-1.78231 -3.97918,-2.44727l0 -1.05001z" />
    <path
   id="_295882728"
   class="fil51"
   d="M5.62566 87.4487c1.66183,0.809065 3.36973,1.8449 5.12487,3.14531 12.0344,8.90326 19.9987,15.436 28.1094,17.2018 8.08947,1.76105 15.3368,1.02875 23.8645,-0.0885838 3.97682,-0.48662 9.5198,-0.154726 15.6226,1.12915 7.72096,1.88742 15.7195,4.75518 23.1617,8.81349l-2.10239 0c-6.88473,-3.54571 -14.1852,-6.10637 -21.266,-7.84616 -5.98708,-1.25907 -11.4049,-1.58978 -15.2825,-1.12442 -8.6127,1.14923 -15.9439,1.89451 -24.1928,0.090946 -8.23002,-1.80002 -16.3053,-8.39184 -28.4543,-17.3967 -1.56616,-1.15986 -3.09571,-2.09884 -4.5851,-2.85004l0 -1.07482z" />
    <path
   id="_295870368"
   class="fil52"
   d="M5.62566 87.157c1.86498,0.891743 3.7902,2.06932 5.77212,3.57878 12.2222,9.30602 20.216,16.1482 28.3515,18.0061 8.11664,1.85553 15.3581,1.07364 23.9342,-0.212601 3.97328,-0.577566 9.57886,-0.304728 15.775,0.957886 7.1493,1.58506 14.8077,4.24257 21.9015,8.1627l-2.11066 0c-6.53276,-3.38744 -13.4742,-5.73432 -19.9928,-7.18355 -6.07803,-1.24017 -11.5549,-1.51183 -15.4254,-0.953161 -8.6753,1.31104 -16.0089,2.10357 -24.2956,0.206695 -8.26664,-1.89215 -16.3762,-8.79223 -28.7189,-18.1963 -1.77876,-1.35474 -3.51028,-2.42838 -5.19101,-3.25752l0 -1.10907z" />
   </g>
   <g
   id="g4346">
    <path
   id="_295872216"
   class="fil53"
   d="M109.842 40.8879c-1.21419,0.119293 -2.44373,0.19016 -3.68745,0.207877 -8.99184,0.0661425 -17.1203,0.0543314 -24.4243,0.0637803 -40.171,-1.06655 -52.3754,-1.13742 -72.0505,28.2015 -1.09962,1.62049 -2.37995,3.12642 -3.81265,4.54494l0 -2.48153c1.02285,-1.10316 1.95475,-2.2583 2.78271,-3.48075 20.0932,-29.9803 32.4335,-29.8988 73.084,-28.8098 7.22017,-0.0070867 15.2541,0.00826782 24.3983,-0.0496069 1.24962,-0.0212601 2.48743,-0.0992138 3.70989,-0.23268l0 2.03625z" />
    <path
   id="_295886616"
   class="fil54"
   d="M109.842 40.4355c-1.71734,0.287011 -3.4654,0.477171 -5.2418,0.558668 -8.87019,0.297641 -16.9762,0.566936 -24.3334,0.848042 -39.5332,-0.659063 -51.8747,-0.367327 -71.5473,28.4472 -0.851585,1.21773 -1.80711,2.37168 -2.8524,3.4713l0 -2.56539c0.654339,-0.757096 1.26734,-1.54018 1.83546,-2.35278 20.0731,-29.4393 32.5421,-29.7157 72.5371,-29.0283 7.27096,-0.272838 15.2813,-0.533865 24.2956,-0.816152 1.79766,-0.090946 3.56697,-0.298823 5.30676,-0.616543l0 2.05396z" />
    <path
   id="_295863216"
   class="fil55"
   d="M109.842 39.8249c-2.21578,0.523235 -4.48116,0.884657 -6.79851,1.06891 -8.74617,0.525597 -16.8309,1.07836 -24.2412,1.63112 -38.8954,-0.252759 -51.3739,0.402761 -71.043,28.6929 -0.587015,0.81379 -1.21773,1.59687 -1.89215,2.35515l0 -2.66696c0.30709,-0.38032 0.603551,-0.770088 0.8882,-1.16576 20.0518,-28.8948 32.6484,-29.5315 71.9914,-29.2445 7.32174,-0.540952 15.3085,-1.07718 24.1928,-1.58152 2.35042,-0.203152 4.65124,-0.60237 6.90245,-1.18112l0 2.09176z" />
    <path
   id="_295880304"
   class="fil56"
   d="M109.842 39.0477c-2.7083,0.831506 -5.49101,1.42206 -8.35522,1.74451 -8.62097,0.757096 -16.6845,1.59215 -24.1491,2.41657 -38.2564,0.152364 -50.8719,1.17285 -70.5398,28.9374 -0.297641,0.403942 -0.608275,0.797254 -0.93072,1.18702l0 -2.77917c19.9999,-28.27 32.7358,-29.2622 71.3855,-29.3791 7.37135,-0.805522 15.3356,-1.61813 24.0901,-2.34688 2.90909,-0.354335 5.74141,-1.00513 8.49932,-1.9205l0 2.14018z" />
    <path
   id="_295863984"
   class="fil57"
   d="M109.842 38.1064c-3.1961,1.20474 -6.49614,2.08231 -9.91193,2.58546 -8.49814,0.986233 -16.538,2.10357 -24.0558,3.19846 -37.5997,0.561031 -50.3581,1.94412 -70.0072,29.1429l0 -2.88547c19.4471,-26.4665 32.5008,-27.7834 69.8914,-28.2925 7.42214,-1.07245 15.3628,-2.16026 23.9885,-3.11224 3.45595,-0.548038 6.79969,-1.50711 10.0442,-2.82287 0.0318902,0.191341 0.050788,0.386225 0.050788,0.585834l0 1.60041z" />
    <path
   id="_295888920"
   class="fil58"
   d="M109.842 36.9949c-3.67918,1.64766 -7.49537,2.87011 -11.4663,3.5965 -8.37648,1.21537 -16.3951,2.61499 -23.9649,3.98155 -36.356,0.950799 -49.4297,2.65633 -68.5438,28.0964l0 -2.85122c18.9203,-24.7609 32.2504,-26.3921 68.3973,-27.2838 7.47175,-1.33821 15.3911,-2.7024 23.8857,-3.87761 3.89887,-0.764183 7.65482,-2.03861 11.2891,-3.75359 0.256302,0.485439 0.402761,1.02875 0.402761,1.60278l0 0.488982z" />
    <path
   id="_295869672"
   class="fil59"
   d="M109.756 35.7583c-4.13273,2.1331 -8.43436,3.74532 -12.9391,4.73274 -8.25128,1.44451 -16.2474,3.1276 -23.8716,4.76581 -35.1252,1.32639 -48.4719,3.34492 -67.0792,27.1267l0 -2.82169c18.4183,-23.1511 31.9858,-25.0881 66.902,-26.346 7.5249,-1.60514 15.4183,-3.24453 23.7842,-4.64415 4.21068,-0.986233 8.25246,-2.55594 12.1572,-4.6158 0.517329,0.48662 0.889381,1.10907 1.04647,1.80238z" />
    <path
   id="_295873896"
   class="fil60"
   d="M109.258 34.602c-4.46108,2.56184 -9.10759,4.53431 -13.9962,5.78747 -8.12845,1.67482 -16.1033,3.6402 -23.7794,5.55007 -33.9122,1.69136 -47.4927,4.01107 -65.6158,26.2326l0 -2.79807c17.9388,-21.6381 31.7059,-23.8668 65.4091,-25.4779 7.5745,-1.87207 15.4455,-3.78666 23.6814,-5.40952 4.35596,-1.19175 8.52885,-2.99177 12.5624,-5.29967 0.440557,0.183073 0.838593,0.441738 1.17521,0.754734 0.213782,0.198428 0.402761,0.420478 0.563393,0.660244z" />
    <path
   id="_295890528"
   class="fil61"
   d="M108.306 33.624c-4.64769,2.89137 -9.49264,5.1603 -14.601,6.66386 -8.00443,1.90632 -15.9581,4.15281 -23.6861,6.33551 -32.7169,2.03979 -46.4899,4.65006 -64.1524,25.407l0 -2.77681c17.4805,-20.216 31.4106,-22.7271 63.9138,-24.6771 7.62647,-2.13782 15.4726,-4.32879 23.581,-6.17488 4.20596,-1.32049 8.24183,-3.19256 12.1525,-5.52763l0.428745 0c0.887019,0 1.70553,0.281106 2.36341,0.750009z" />
    <path
   id="_295879440"
   class="fil62"
   d="M106.786 32.9614c-4.66305,3.06027 -9.51626,5.51818 -14.6352,7.22725 -7.88277,2.13428 -15.8152,4.66423 -23.5964,7.11741 -31.537,2.37523 -45.4624,5.26542 -62.6878,24.6546l0 -2.75791c17.0447,-18.8849 31.0976,-21.67 62.4208,-23.946 7.67608,-2.40357 15.4986,-4.87093 23.4771,-6.94024 3.88587,-1.37954 7.62883,-3.21736 11.2596,-5.44259l2.91854 0c0.290555,0 0.571661,0.030709 0.843317,0.0874027z" />
    <path
   id="_295890312"
   class="fil63"
   d="M104.405 32.874c-4.41501,2.96933 -8.99421,5.41424 -13.812,7.21426 -7.75876,2.36341 -15.6687,5.17565 -23.5019,7.89931 -30.3771,2.69767 -44.4194,5.85598 -61.2244,23.9684l0 -2.74137c16.6266,-17.6435 30.7646,-20.6884 60.9267,-23.2763 7.72569,-2.67169 15.5258,-5.41424 23.3743,-7.70679 3.5906,-1.42561 7.05717,-3.23035 10.4304,-5.35755l3.80674 0z" />
    <path
   id="_295873152"
   class="fil64"
   d="M101.942 32.874c-4.13745,2.84885 -8.419,5.25125 -12.9049,7.11269 -7.63474,2.59491 -15.5234,5.68944 -23.4097,8.68475 -29.2362,3.00358 -43.3553,6.42055 -59.761,23.346l0 -2.72956c16.225,-16.4872 30.4149,-19.7813 59.4326,-22.6704 7.77765,-2.93626 15.5541,-5.95401 23.2727,-8.47097 3.31776,-1.45986 6.52803,-3.23035 9.66036,-5.27251l3.70989 0z" />
    <path
   id="_295882968"
   class="fil65"
   d="M99.5315 32.874c-3.87406,2.74019 -7.87333,5.10361 -12.0509,7.01111 -7.51072,2.82523 -15.377,6.20204 -23.3164,9.46901 -28.1153,3.29768 -42.2769,6.95914 -58.2976,22.7837l0 -2.71893c15.8388,-15.4148 30.0453,-18.9475 57.9385,-22.1211 7.82844,-3.20201 15.5813,-6.49732 23.1712,-9.23752 3.06382,-1.48348 6.03669,-3.22327 8.94578,-5.18628l3.60949 0z" />
    <path
   id="_295875432"
   class="fil66"
   d="M97.174 32.874c-3.62721,2.64216 -7.35954,4.9666 -11.249,6.9119 -7.38789,3.05437 -15.2317,6.71229 -23.2255,10.2509 -27.0121,3.57642 -41.182,7.47056 -56.833,22.2782l0 -2.70948c15.4667,-14.4238 29.6543,-18.1821 56.4444,-21.6286 7.87805,-3.46776 15.6085,-7.03709 23.0672,-10.0017 2.8335,-1.49884 5.58786,-3.20791 8.28554,-5.10124l3.51028 0z" />
    <path
   id="_295879248"
   class="fil67"
   d="M94.8649 32.874c-3.39335,2.55239 -6.87646,4.84022 -10.4954,6.8115 -7.26623,3.28232 -15.0876,7.22489 -23.1334,11.034 -25.935,3.84217 -40.0741,7.95718 -55.3696,21.8282l0 -2.70476c15.1065,-13.5073 29.2445,-17.4829 54.9503,-21.1845 7.92884,-3.73587 15.6356,-7.58159 22.9668,-10.7694 2.61972,-1.50592 5.17093,-3.18429 7.6749,-5.01502l3.40634 0z" />
    <path
   id="_295864080"
   class="fil68"
   d="M92.6067 32.874c-3.1713,2.47208 -6.42291,4.72092 -9.79382,6.70993 -7.14221,3.51264 -14.9423,7.7375 -23.0424,11.8183 -24.8743,4.09257 -38.9544,8.419 -53.9038,21.4266l0 -2.70121c14.7569,-12.6639 28.811,-16.8427 53.4574,-20.7888 7.97844,-4.00044 15.6616,-8.12372 22.8629,-11.5348 2.42365,-1.50711 4.78943,-3.15594 7.11387,-4.92998l3.30595 0z" />
    <path
   id="_295870032"
   class="fil69"
   d="M90.3956 32.874c-2.96697,2.39767 -6.00007,4.6099 -9.1383,6.60953 -7.0182,3.74296 -14.797,8.24892 -22.9491,12.6025 -23.8397,4.32879 -37.8276,8.85365 -52.4416,21.0688l0 -2.69767c14.4167,-11.8903 28.3574,-16.2628 51.9632,-20.438 8.02923,-4.26738 15.6888,-8.66467 22.7601,-12.299 2.24412,-1.50592 4.43864,-3.12524 6.5989,-4.84612l3.20673 0z" />
    <path
   id="_295871760"
   class="fil70"
   d="M88.2283 32.874c-2.77326,2.32916 -5.60558,4.50714 -8.52885,6.50795 -6.89418,3.97328 -14.6506,8.76271 -22.8546,13.3856 -22.8251,4.55202 -36.6926,9.26468 -50.9782,20.7581l0 -2.70003c14.0825,-11.1828 27.8826,-15.736 50.4703,-20.1262 8.07884,-4.53431 15.7148,-9.20799 22.6574,-13.0643 2.07995,-1.49884 4.11619,-3.0898 6.12173,-4.76108l3.11224 0z" />
    <path
   id="_295895088"
   class="fil71"
   d="M86.1034 32.874c-2.59373,2.26538 -5.23589,4.40911 -7.95837,6.40874 -6.77252,4.20241 -14.5077,9.27295 -22.7648,14.1687 -21.8318,4.7599 -35.5493,9.64736 -49.5136,20.4806l0 -2.70121c13.7541,-10.5367 27.3854,-15.2577 48.975,-19.8499 8.13081,-4.80124 15.7431,-9.75012 22.5558,-13.8321 1.92876,-1.48821 3.81855,-3.04846 5.68353,-4.67486l3.02248 0z" />
    <path
   id="_295879896"
   class="fil72"
   d="M84.0176 32.874c-2.42483,2.20751 -4.89219,4.3158 -7.42923,6.30716 -6.64851,4.43273 -14.3612,9.78555 -22.6715,14.9529 -20.8621,4.95242 -34.4012,10.0064 -48.0502,20.2396l0 -2.70358c13.4305,-9.94855 26.8657,-14.8313 47.4821,-19.6101 8.18042,-5.06581 15.7703,-10.2923 22.453,-14.5962 1.78821,-1.47285 3.54453,-3.00594 5.27959,-4.58982l2.93626 0z" />
    <path
   id="_295894440"
   class="fil73"
   d="M81.9683 32.874c-2.26774,2.15318 -4.5721,4.22604 -6.9367,6.20677 -6.52449,4.66187 -14.2159,10.2982 -22.5794,15.7348 -19.9148,5.1355 -33.2508,10.3442 -46.5856,20.0329l0 -2.71303c13.1092,-9.41232 26.3247,-14.4415 45.9868,-19.3963 8.23238,-5.33156 15.7986,-10.8332 22.3515,-15.3616 1.66183,-1.45632 3.29532,-2.95988 4.90754,-4.5036l2.85594 0z" />
    <path
   id="_295885128"
   class="fil74"
   d="M79.9533 32.874c-2.1201,2.10121 -4.27328,4.13863 -6.47843,6.10519 -6.40047,4.89337 -14.0695,10.8108 -22.4861,16.5203 -18.9888,5.30085 -32.0992,10.6489 -45.1222,19.8463l0 -2.71657c12.7903,-8.92924 25.7625,-14.0954 44.4927,-19.2097 8.28199,-5.59731 15.8258,-11.3742 22.2487,-16.127 1.5449,-1.4386 3.06264,-2.91263 4.56502,-4.41856l2.78035 0z" />
    <path
   id="_295886472"
   class="fil75"
   d="M77.9703 32.874c-1.98191,2.05278 -3.99336,4.05714 -6.04968,6.0048 -6.27764,5.12132 -13.9254,11.3222 -22.3963,17.3034 -18.0853,5.4544 -30.9464,10.9336 -43.6576,19.6869l0 -2.7272c12.4714,-8.49223 25.1767,-13.7813 42.9986,-19.0408 8.33278,-5.86543 15.853,-11.9175 22.1471,-16.8935 1.43506,-1.41852 2.85004,-2.86421 4.24848,-4.33352l2.70948 0z" />
    <path
   id="_295893360"
   class="fil76"
   d="M76.0179 32.874c-1.85435,2.00672 -3.73351,3.97682 -5.65519,5.9044 -6.1548,5.35046 -13.7789,11.8348 -22.3007,18.0864 -17.2053,5.59259 -29.796,11.1899 -42.1954,19.5428l0 -2.73547c12.1513,-8.09892 24.5684,-13.499 41.5044,-18.8908 8.38357,-6.13236 15.8801,-12.4596 22.0444,-17.6589 1.33584,-1.39726 2.65043,-2.81342 3.95556,-4.24848l2.64688 0z" />
    <path
   id="_295882032"
   class="fil77"
   d="M74.0926 32.874c-1.73624,1.96184 -3.49374,3.89769 -5.2855,5.80401 -6.03078,5.58078 -13.6348,12.3462 -22.2085,18.8707 -16.3467,5.71661 -28.6456,11.419 -40.732,19.4128l0 -2.74728c11.8277,-7.74576 23.9389,-13.2439 40.0115,-18.7526 8.43436,-6.39811 15.9061,-13.0017 21.9428,-18.4242 1.24135,-1.37364 2.46853,-2.76263 3.68272,-4.16344l2.58901 0z" />
    <path
   id="_295888152"
   class="fil78"
   d="M72.1922 32.874c-1.62404,1.91931 -3.26815,3.82209 -4.94179,5.70361 -5.90677,5.80991 -13.4895,12.8576 -22.1164,19.6538 -15.5092,5.82645 -27.4988,11.6234 -39.2674,19.2947l0 -2.75909c11.5029,-7.42568 23.2881,-13.0124 38.5162,-18.625 8.48514,-6.66504 15.9344,-13.5439 21.84,-19.1896 1.15631,-1.35002 2.29963,-2.70948 3.43351,-4.0784l2.53586 0z" />
    <path
   id="_295894272"
   class="fil79"
   d="M70.3154 32.874c-1.5201,1.87916 -3.05673,3.7465 -4.62053,5.60086 -5.78393,6.04141 -13.3443,13.3726 -22.0255,20.4392 -14.6919,5.9233 -26.3554,11.8005 -37.8028,19.1837l0 -2.77326c11.1722,-7.14221 22.616,-12.8009 37.0233,-18.501 8.53593,-6.93198 15.9604,-14.0872 21.7361,-19.9562 1.07836,-1.32639 2.14373,-2.65751 3.20083,-3.99336l2.48861 0z" />
    <path
   id="_295875888"
   class="fil80"
   d="M68.4611 32.874c-1.42325,1.84018 -2.86067,3.67327 -4.32289,5.50164 -5.66109,6.27055 -13.199,13.8828 -21.9333,21.2211 -13.897,6.0048 -25.2145,11.9505 -36.3382,19.075l0 -2.78744c10.8379,-6.88355 21.9227,-12.6061 35.5292,-18.3817 8.58554,-7.19655 15.9888,-14.6281 21.6357,-20.7215 1.00395,-1.29923 1.99727,-2.602 2.9835,-3.90713l2.44609 0z" />
    <path
   id="_295868424"
   class="fil81"
   d="M66.6244 32.874c-1.3323,1.8012 -2.67759,3.60123 -4.04178,5.40125 -5.53826,6.49969 -13.0537,14.3943 -21.8412,22.0054 -13.1234,6.07094 -24.0818,12.0722 -34.8748,18.9652l0 -2.80397c10.4978,-6.65441 21.207,-12.4242 34.0362,-18.2601 8.63633,-7.4623 16.0148,-15.1691 21.5318,-21.4857 0.935445,-1.27443 1.86144,-2.54767 2.78271,-3.82209l2.40712 0z" />
    <path
   id="_295878024"
   class="fil82"
   d="M64.8079 32.874c-1.24726,1.76223 -2.50515,3.52918 -3.78076,5.29967 -5.41424,6.73119 -12.9096,14.9081 -21.7491,22.7885 -12.371,6.12409 -22.955,12.169 -33.4114,18.8542l0 -2.82287c10.1493,-6.44654 20.4711,-12.2505 32.5421,-18.1313 8.68593,-7.72923 16.0419,-15.7112 21.429,-22.2511 0.871664,-1.24844 1.73624,-2.49334 2.59609,-3.73705l2.37404 0z" />
    <path
   id="_295878216"
   class="fil83"
   d="M63.0079 32.874c-1.16694,1.72561 -2.34334,3.45831 -3.53863,5.1981 -5.29022,6.96032 -12.7631,15.4207 -21.6546,23.5727 -11.6399,6.16307 -21.8365,12.2352 -31.948,18.7337l0 -2.84177c9.79382,-6.25874 19.7164,-12.0852 31.048,-17.9931 8.73672,-7.99498 16.0679,-16.2545 21.3274,-23.0176 0.812608,-1.22127 1.61931,-2.43783 2.42129,-3.65201l2.34452 0z" />
    <path
   id="_295878624"
   class="fil84"
   d="M61.2244 32.874c-1.09253,1.69018 -2.19452,3.38981 -3.30949,5.0977 -5.16739,7.19064 -12.6191,15.9321 -21.5648,24.357 -10.9265,6.18433 -20.7251,12.2718 -30.4834,18.6014l0 -2.86539c9.43004,-6.08748 18.938,-11.9198 29.5539,-17.8408 8.78751,-8.26191 16.0963,-16.7955 21.2259,-23.7842 0.758277,-1.19293 1.50947,-2.38113 2.25948,-3.56579l2.31853 0z" />
    <path
   id="_295872696"
   class="fil85"
   d="M59.4562 32.874c-1.02403,1.65356 -2.05514,3.32012 -3.09807,4.99849 -5.04455,7.4186 -12.4726,16.4435 -21.4715,25.1377 -10.2344,6.19023 -19.6231,12.2801 -29.02,18.455l0 -2.88783c9.05799,-5.93157 18.142,-11.7568 28.0598,-17.6731 8.83712,-8.52885 16.1234,-17.3388 21.1231,-24.5495 0.706308,-1.16576 1.40907,-2.32562 2.10829,-3.48075l2.29845 0z" />
    <path
   id="_295884552"
   class="fil86"
   d="M57.6999 32.874c-0.957886,1.61813 -1.92286,3.25043 -2.89846,4.89691 -4.92053,7.64891 -12.3273,16.9561 -21.3782,25.9232 -9.56114,6.1796 -18.5282,12.2541 -27.5566,18.2861l0 -2.91382c8.67648,-5.78511 17.3258,-11.5844 26.5657,-17.4817 8.88909,-8.79342 16.1506,-17.8797 21.0203,-25.3161 0.660244,-1.13742 1.31458,-2.26893 1.96656,-3.39453l2.28074 0z" />
    <path
   id="_295885944"
   class="fil87"
   d="M55.9578 32.874c-0.89883,1.58388 -1.80002,3.18311 -2.71303,4.79652 -4.79652,7.87805 -12.182,17.4675 -21.2861,26.7062 -8.90798,6.15126 -17.4427,12.195 -26.0921,18.0935l0 -2.9398c8.28317,-5.64692 16.4896,-11.4049 25.0716,-17.2644 8.93987,-9.06153 16.1778,-18.4231 20.9188,-26.0814 0.615362,-1.11143 1.22482,-2.21459 1.83309,-3.31067l2.26774 0z" />
    <path
   id="_295867896"
   class="fil88"
   d="M54.2263 32.874c-0.839774,1.55081 -1.68427,3.11461 -2.53586,4.69494 -4.67368,8.10837 -12.0391,17.9813 -21.1951,27.4905 -8.27372,6.10756 -16.3691,12.1041 -24.6286,17.875l0 -2.97051c7.88159,-5.51345 15.6356,-11.2171 23.5775,-17.0187 8.99066,-9.32728 16.2049,-18.964 20.816,-26.8456 0.572842,-1.08308 1.14332,-2.1579 1.71026,-3.22563l2.25593 0z" />
    <path
   id="_295877112"
   class="fil89"
   d="M52.5054 32.874c-0.785443,1.51537 -1.57561,3.0461 -2.37286,4.59454 -4.54966,8.33869 -11.8915,18.4927 -21.1007,28.2736 -7.65836,6.04378 -15.3061,11.9777 -23.1652,17.6246l0 -3.00712c7.4682,-5.38117 14.7616,-11.008 22.0833,-16.7352 9.04027,-9.59185 16.2333,-19.505 20.7132,-27.6098 0.535046,-1.05474 1.06537,-2.10121 1.59451,-3.14059l2.24767 0z" />
    <path
   id="_295876296"
   class="fil90"
   d="M50.7951 32.874c-0.735836,1.4823 -1.47403,2.97878 -2.21814,4.49415 -4.42683,8.569 -11.7462,19.0042 -21.0085,29.0567 -7.06072,5.95992 -14.2549,11.8124 -21.7018,17.3341l0 -3.0461c7.043,-5.24652 13.8675,-10.7777 20.5892,-16.4081 9.09106,-9.8576 16.2604,-20.0483 20.6117,-28.3763 0.49725,-1.02639 0.993319,-2.04333 1.48585,-3.05437l2.24176 0z" />
    <path
   id="_295892184"
   class="fil91"
   d="M49.0943 32.874c-0.68741,1.44805 -1.37836,2.91145 -2.07404,4.39375 -4.30281,8.79696 -11.6009,19.5168 -20.9164,29.8409 -6.48197,5.85716 -13.2132,11.6068 -20.2373,17.001l0 -3.08862c6.60481,-5.10951 12.9557,-10.5249 19.0951,-16.0348 9.14184,-10.1257 16.2876,-20.5904 20.5089,-29.1429 0.464179,-0.998044 0.924815,-1.98782 1.38427,-2.96933l2.2394 0z" />
    <path
   id="_295873248"
   class="fil92"
   d="M47.4029 32.874c-0.643709,1.4138 -1.2886,2.84531 -1.93821,4.29218 -4.17997,9.02846 -11.4568,20.0294 -20.8255,30.6252 -5.91976,5.7296 -12.182,11.3576 -18.7727,16.6195l0 -3.13705c6.15834,-4.96423 12.0273,-10.2391 17.601,-15.6073 9.19381,-10.3915 16.3148,-21.1337 20.4073,-29.9082 0.431108,-0.968516 0.859853,-1.93113 1.2886,-2.88429l2.2394 0z" />
    <path
   id="_295890792"
   class="fil93"
   d="M45.7187 32.874c-0.601189,1.38191 -1.20356,2.77799 -1.81065,4.1906 -4.05596,9.25878 -11.3116,20.542 -20.7321,31.4106 -5.37763,5.5796 -11.1663,11.0623 -17.3093,16.1801l0 -3.1902c5.69535,-4.80715 11.0812,-9.91902 16.1069,-15.1183 9.24342,-10.6584 16.3408,-21.6747 20.3058,-30.6748 0.400399,-0.938988 0.799616,-1.87207 1.19765,-2.79807l2.24176 0z" />
    <path
   id="_295863264"
   class="fil94"
   d="M44.0427 32.874c-0.561031,1.34765 -1.12442,2.71066 -1.69018,4.09139 -3.9343,9.48673 -11.1663,21.0534 -20.6412,32.1913 -4.85085,5.40361 -10.1611,10.7175 -15.8447,15.6781l0 -3.25398c5.22054,-4.63116 10.1151,-9.55169 14.614,-14.5537 9.29303,-10.9253 16.3679,-22.218 20.2018,-31.4402 0.372052,-0.911822 0.744104,-1.81538 1.11497,-2.71303l2.2453 0z" />
   </g>
   <g
   id="g4390">
    <path
   id="_293945280"
   class="fil95"
   d="M109.842 67.3036c-5.15676,2.37759 -9.93674,4.57328 -14.3588,6.58591 -31.863,15.4455 -41.7147,19.9727 -64.5433,18.8187 -6.87292,-0.336618 -15.5636,-2.17089 -25.0727,-3.81146l0 0.881113c9.32256,1.62285 17.842,3.40988 24.5991,3.74178 23.3141,1.17875 33.2697,-3.40398 65.5083,-19.0396 4.25556,-1.93939 8.84657,-4.04769 13.8675,-6.3674l0 -0.809065z" />
    <path
   id="_293938824"
   class="fil96"
   d="M109.842 67.2953c-5.89495,2.56184 -11.3954,4.90045 -16.4955,7.02646 -31.3468,14.8573 -41.4761,19.1719 -64.1417,18.0782 -6.50441,-0.297641 -14.5561,-1.84963 -23.3377,-3.29886l0 0.876389c8.60798,1.43388 16.499,2.94807 22.8936,3.23862 23.1263,1.1197 33.3465,-3.24925 65.05,-18.292 4.93116,-2.05987 10.2403,-4.31816 16.0313,-6.84221l0 -0.786624z" />
    <path
   id="_296099992"
   class="fil97"
   d="M109.842 67.3863c-6.60717,2.71539 -12.834,5.1603 -18.6321,7.36899 -30.8331,14.2691 -41.2387,18.3687 -63.739,17.3341 -6.12409,-0.256302 -13.5427,-1.55317 -21.6038,-2.81578l0 0.871664c7.90167,1.24962 15.1726,2.51578 21.1892,2.76854 22.9361,1.06064 33.4221,-3.09571 64.5917,-17.5443 5.62448,-2.14845 11.6553,-4.52013 18.1939,-7.22135l0 -0.76182z" />
    <path
   id="_296085088"
   class="fil98"
   d="M109.842 67.58c-0.154726,0.0566936 -0.309453,0.113387 -0.46536,0.1689 -7.11269,2.76854 -13.9195,5.22526 -20.3046,7.43867 -30.3169,13.6809 -40.9977,17.5668 -63.3327,16.5923 -5.72605,-0.219688 -12.521,-1.28624 -19.8723,-2.36932l0 0.869302c7.20481,1.07009 13.8616,2.1142 19.4837,2.33152 22.7483,1.00041 33.5,-2.9398 64.1358,-16.7978 6.30008,-2.19097 13.0171,-4.62407 20.2207,-7.45521 0.0437013,-0.0165356 0.0885838,-0.0330713 0.134647,-0.0496069l0 -0.728749z" />
    <path
   id="_296100544"
   class="fil99"
   d="M109.842 67.939c-0.799616,0.249216 -1.59923,0.509061 -2.39885,0.779537 -7.07371,2.57838 -13.9643,4.84848 -20.5066,6.90127 -29.8019,13.0939 -40.7615,16.7671 -62.9311,15.8518 -5.3103,-0.185435 -11.4875,-1.04883 -18.1384,-1.96065l0 0.868121c6.5174,0.901192 12.5694,1.74805 17.7794,1.92995 22.5593,0.94135 33.5756,-2.78625 63.6764,-16.0514 6.4548,-2.03388 13.2521,-4.28273 20.4073,-6.92489 0.703946,-0.231499 1.40671,-0.45473 2.11184,-0.670874l0 -0.722844z" />
    <path
   id="_296098792"
   class="fil100"
   d="M109.842 68.4457c-1.44214,0.381501 -2.88665,0.796073 -4.33352,1.24372 -7.03237,2.38586 -14.0104,4.46817 -20.7085,6.36268 -29.2858,12.5057 -40.5229,15.9652 -62.5271,15.11 -4.87801,-0.154726 -10.4423,-0.837412 -16.4057,-1.58978l0 0.86694c5.83944,0.745285 11.2927,1.4138 16.075,1.56734 22.3704,0.879932 33.6512,-2.63153 63.2193,-15.3049 6.60717,-1.87679 13.4848,-3.94257 20.5904,-6.39457 1.36419,-0.407485 2.7272,-0.784262 4.09021,-1.13387l0 -0.727568z" />
    <path
   id="_296098840"
   class="fil101"
   d="M109.842 69.0918c-2.08349,0.458273 -4.1717,0.979146 -6.26701,1.56616 -6.99457,2.19452 -14.0565,4.09257 -20.9129,5.82763 -28.7696,11.9175 -40.2844,15.1632 -62.1244,14.3659 -4.42565,-0.124017 -9.38634,-0.653158 -14.6707,-1.25671l0 0.868121c5.17447,0.597645 10.0312,1.11616 14.3695,1.24135 22.1814,0.820876 33.728,-2.4768 62.7622,-14.5584 6.75953,-1.71971 13.7199,-3.60359 20.777,-5.86306 2.02443,-0.544495 4.04533,-1.02403 6.06622,-1.44805l0 -0.742923z" />
    <path
   id="_296077648"
   class="fil102"
   d="M109.842 69.8713c-2.72247,0.48662 -5.4544,1.06773 -8.20168,1.75632 -6.95442,2.00436 -14.1002,3.71461 -21.1148,5.2914 -28.2547,11.3293 -40.0458,14.36 -61.7204,13.623 -3.96028,-0.0992138 -8.32097,-0.493707 -12.938,-0.963791l0 0.870483c4.51777,0.46536 8.78633,0.855129 12.6639,0.953161 21.9936,0.760639 33.8047,-2.32326 62.3039,-13.812 6.91426,-1.56262 13.9537,-3.26343 20.9625,-5.33274 2.68704,-0.640165 5.36581,-1.17757 8.04459,-1.62522l0 -0.760639z" />
    <path
   id="_296082160"
   class="fil103"
   d="M109.842 70.7749c-3.36028,0.468903 -6.73355,1.06891 -10.1352,1.82128 -6.91544,1.81301 -14.1474,3.33784 -21.318,4.75518 -27.7397,10.7423 -39.8072,13.5604 -61.3165,12.8813 -3.47721,-0.0755915 -7.24379,-0.360241 -11.2053,-0.712213l0 0.874027c3.87524,0.349611 7.55679,0.629535 10.9596,0.703946 21.8046,0.702765 33.8815,-2.16735 61.8468,-13.0643 7.06662,-1.40553 14.1876,-2.92326 21.1479,-4.80124 3.35083,-0.696859 6.6863,-1.24726 10.0206,-1.67128l0 -0.786624z" />
    <path
   id="_296104720"
   class="fil104"
   d="M109.842 71.7966c-3.99926,0.41221 -8.01152,0.988595 -12.0687,1.77049 -6.87528,1.62049 -14.1923,2.95988 -21.5211,4.21659 -27.2236,10.1541 -39.5698,12.7584 -60.9137,12.1383 -2.9776,-0.0543314 -6.1548,-0.248035 -9.47138,-0.499612l0 0.87757c3.24217,0.249216 6.34378,0.440557 9.25523,0.496069 21.6144,0.641346 33.9583,-2.01262 61.3886,-12.3155 7.21899,-1.2508 14.4214,-2.58546 21.3333,-4.2721 4.01816,-0.718119 8.00679,-1.23663 11.9978,-1.59451l0 -0.817333z" />
    <path
   id="_296105320"
   class="fil105"
   d="M109.842 72.9316c-4.63706,0.31772 -9.28594,0.832687 -14.0033,1.60278 -6.83512,1.43269 -14.236,2.58428 -21.7243,3.68154 -26.7062,9.56587 -39.33,11.9576 -60.5086,11.3978 -2.46381,-0.0389769 -5.054,-0.161813 -7.73868,-0.32835l0 0.883475c2.61972,0.164175 5.14613,0.287011 7.5497,0.325988 21.4266,0.58111 34.0339,-1.85908 60.9315,-11.5702 7.37253,-1.09253 14.6553,-2.24412 21.5188,-3.74178 4.68903,-0.696859 9.32492,-1.14568 13.975,-1.40553l0 -0.84568z" />
    <path
   id="_296104480"
   class="fil106"
   d="M109.842 74.1706c-5.27841,0.193703 -10.5568,0.611819 -15.938,1.33466 -6.79497,1.23899 -14.2821,2.20515 -21.9251,3.14413 -26.1924,8.97767 -39.0938,11.1556 -60.107,10.6549 -1.93349,-0.0224412 -3.94021,-0.0956705 -6.0048,-0.193703l0 0.8882c2.01026,0.0968516 3.96265,0.1689 5.84535,0.192522 21.2365,0.522054 34.1095,-1.70435 60.4732,-10.8226 7.52608,-0.935445 14.8892,-1.90514 21.703,-3.21146 5.36227,-0.636622 10.643,-0.980327 15.9533,-1.10907l0 -0.87757z" />
    <path
   id="_296099608"
   class="fil107"
   d="M109.842 75.51c-5.9233,0.0425202 -11.8265,0.329532 -17.8715,0.964973 -6.75481,1.04765 -14.3269,1.82719 -22.1282,2.60791 -25.6787,8.38947 -38.854,10.3525 -59.7043,9.91193 -1.39017,-0.0129923 -2.81578,-0.0496069 -4.27092,-0.0980327l0 0.895287c1.41025,0.0484258 2.79216,0.0826782 4.13981,0.0968516 21.0499,0.461817 34.1874,-1.54963 60.0161,-10.0761 7.67844,-0.778356 15.123,-1.5638 21.8896,-2.68114 6.03315,-0.538589 11.9517,-0.74056 17.9294,-0.715757l0 -0.905917z" />
    <path
   id="_296083624"
   class="fil108"
   d="M109.842 76.938c-6.5741,-0.125198 -13.0962,-0.00590558 -19.8061,0.506699 -6.71465,0.85631 -14.3718,1.44923 -22.3302,2.0705 -25.1637,7.80128 -38.6154,9.55169 -59.3003,9.16901 -0.83505,-0.00354335 -1.68073,-0.0165356 -2.53822,-0.0342524l0 0.901192c0.823238,0.0177168 1.63467,0.0295279 2.43546,0.0354335 20.8597,0.40158 34.263,-1.3949 59.559,-9.32846 7.83081,-0.622449 15.3557,-1.22482 22.0739,-2.15081 6.70756,-0.403942 13.2557,-0.431108 19.9065,-0.23268l0 -0.936626z" />
    <path
   id="_296089456"
   class="fil109"
   d="M109.842 78.451c-7.2367,-0.310634 -14.3636,-0.387406 -21.7396,-0.0389769 -6.67685,0.668512 -14.4191,1.07364 -22.5345,1.53663 -24.6452,7.21308 -38.3757,8.74853 -58.8964,8.42609l-0.804341 -0.00354335 0 0.908279 0.731111 0.00354335c20.6707,0.342524 34.3386,-1.24017 59.0995,-8.58081 7.98553,-0.464179 15.5919,-0.884657 22.2593,-1.62049 7.38316,-0.229137 14.5466,-0.0543314 21.8849,0.333075l0 -0.963791z" />
    <path
   id="_296076544"
   class="fil110"
   d="M109.842 80.0396c-7.90994,-0.506699 -15.6321,-0.806703 -23.6731,-0.656701 -6.63788,0.47599 -14.464,0.695678 -22.7377,0.998044 -23.7617,6.52449 -37.7072,7.90758 -57.5641,7.69734l0 0.915366c19.9562,0.224412 33.8272,-1.20592 57.6692,-7.84734 8.13671,-0.308272 15.8246,-0.544495 22.4436,-1.08899 8.0564,-0.0177168 15.8246,0.387406 23.8621,0.968516l0 -0.986233z" />
    <path
   id="_296076640"
   class="fil111"
   d="M109.842 81.6967c-8.60089,-0.706308 -16.9041,-1.25435 -25.609,-1.34411 -6.59536,0.283468 -14.5065,0.31772 -22.9385,0.460636 -22.5629,5.76857 -36.6087,7.03828 -55.4275,6.9615l0 0.924815c18.8991,0.0885838 32.8705,-1.22718 55.5066,-7.10796 8.29026,-0.152364 16.0585,-0.205514 22.6302,-0.558668 8.72491,0.230318 17.0837,0.8882 25.8381,1.67128l0 -1.00749z" />
    <path
   id="_296100040"
   class="fil112"
   d="M109.842 83.414c-9.31193,-0.908279 -18.1774,-1.72679 -27.5425,-2.09294 -6.5552,0.0933082 -14.5537,-0.0590558 -23.1416,-0.0744104 -21.3759,5.04337 -35.4418,6.18551 -53.2908,6.21386l0 0.931901c17.9128,-0.0188979 31.9008,-1.20474 53.3428,-6.35559 8.44499,0.00236223 16.2935,0.132285 22.8156,-0.0295279 9.39342,0.517329 18.3227,1.45041 27.8165,2.43192l0 -1.02521z" />
    <path
   id="_296083336"
   class="fil113"
   d="M109.842 85.1845c-10.0442,-1.10671 -19.4577,-2.21459 -29.4771,-2.89374 -6.51504,-0.0980327 -14.5974,-0.435832 -23.3436,-0.610637 -20.2018,4.34887 -34.2099,5.35282 -51.1542,5.4544l0 0.940169c16.9927,-0.0968516 30.9216,-1.14332 51.1813,-5.59377 8.59735,0.159451 16.5262,0.473628 23.0011,0.500794 10.0525,0.840955 19.5369,2.06577 29.7925,3.2398l0 -1.03702z" />
    <path
   id="_296077600"
   class="fil114"
   d="M109.842 86.9987c-10.8072,-1.29332 -20.7451,-2.70948 -31.4106,-3.73823 -6.47606,-0.289374 -14.6423,-0.814971 -23.5467,-1.14805 -19.0455,3.68745 -32.9154,4.54258 -49.0175,4.69022l0 0.946075c16.1317,-0.144096 29.9236,-1.03938 49.0187,-4.82368 8.74971,0.31772 16.76,0.81379 23.1853,1.0323 10.708,1.19647 20.7239,2.72956 31.7709,4.08785l0 -1.04647z" />
    <path
   id="_289057168"
   class="fil115"
   d="M109.842 88.8507c-11.5986,-1.47049 -22.0396,-3.20673 -33.3441,-4.62053 -6.43709,-0.480715 -14.6896,-1.19175 -23.7499,-1.68427 -17.9105,3.06145 -31.5689,3.75359 -46.8809,3.92013l0 0.955524c15.3238,-0.165356 28.9067,-0.900011 46.8561,-4.05241 8.90326,0.474809 16.9951,1.15395 23.3719,1.56262 11.3517,1.58742 21.8778,3.44177 33.7469,4.9725l0 -1.05356z" />
    <path
   id="_289371576"
   class="fil116"
   d="M109.842 90.731c-12.4253,-1.62994 -23.346,-3.6969 -35.2788,-5.53235 -6.39693,-0.670874 -14.7344,-1.56852 -23.9531,-2.2205 -16.799,2.47208 -30.1752,2.99767 -44.7431,3.15594l0 0.959067c14.5632,-0.159451 27.8661,-0.722844 44.6935,-3.27996 9.0568,0.631898 17.229,1.49411 23.5562,2.09294 11.9872,2.01262 22.9999,4.19887 35.7252,5.88314l0 -1.05828z" />
    <path
   id="_295293704"
   class="fil117"
   d="M109.842 92.6362c-13.2887,-1.77168 -24.6617,-4.17879 -37.2123,-6.46662 -6.35795,-0.863396 -14.7793,-1.94766 -24.1562,-2.75909 -15.7124,1.92168 -28.7448,2.27011 -42.6064,2.39649l0 0.966154c13.8427,-0.132285 26.8019,-0.51851 42.5308,-2.51578 9.20917,0.788986 17.4628,1.83427 23.7428,2.62326 12.6096,2.46853 24.0818,4.9914 37.7013,6.81386l0 -1.05828z" />
    <path
   id="_294458464"
   class="fil118"
   d="M109.842 94.5531c-0.327169,-0.0413391 -0.651977,-0.0850404 -0.975603,-0.128742 -13.76,-1.88506 -25.3196,-4.57801 -38.1713,-7.28631 -6.31779,-1.05356 -14.8254,-2.32326 -24.3582,-3.29414 -14.6553,1.40671 -27.2814,1.57679 -40.4698,1.65002l0 0.970878c13.1541,-0.0814971 25.7082,-0.287011 40.3682,-1.76223 9.36271,0.944894 17.6967,2.17444 23.9271,3.15476 12.7915,2.85594 24.3511,5.63038 38.2635,7.56269 0.470085,0.0649614 0.94135,0.12638 1.41616,0.185435l0 -1.05238z" />
    <path
   id="_294463504"
   class="fil119"
   d="M109.842 96.4583c-0.972059,-0.109844 -1.93231,-0.231499 -2.88074,-0.367327 -13.8297,-1.989 -25.3397,-4.90636 -38.1997,-7.98317 -6.27764,-1.24372 -14.8703,-2.70121 -24.5613,-3.83154 -13.6289,0.933082 -25.7956,0.92009 -38.3331,0.921271l0 0.975603c12.4903,-0.0118112 24.5861,-0.0318902 38.2056,-1.02639 9.51626,1.10316 17.9305,2.5146 24.1125,3.68508 12.8281,3.21736 24.3534,6.21504 38.3568,8.25246 1.08663,0.15827 2.18507,0.297641 3.30004,0.420478l0 -1.04647z" />
    <path
   id="_294445840"
   class="fil120"
   d="M109.842 98.3481c-1.62758,-0.161813 -3.22091,-0.357878 -4.78352,-0.592921 -13.9017,-2.09058 -25.3609,-5.23353 -38.2304,-8.67885 -6.23866,-1.43506 -14.9151,-3.07799 -24.7645,-4.36659 -12.6332,0.496069 -24.2932,0.301185 -36.1965,0.213782l0 0.980327c11.8442,0.0755915 23.431,0.237404 36.0441,-0.312996 9.66744,1.26025 18.1632,2.85358 24.2968,4.21541 12.8635,3.5776 24.357,6.79851 38.4501,8.94105 1.69136,0.258665 3.41697,0.467722 5.18392,0.636622l0 -1.03584z" />
    <path
   id="_294469264"
   class="fil121"
   d="M109.842 100.215c-2.29963,-0.192522 -4.5225,-0.453549 -6.68866,-0.792529 -13.9703,-2.19688 -25.3798,-5.56306 -38.2611,-9.37571 -6.19732,-1.62758 -14.96,-3.45713 -24.9653,-4.904 -11.6718,0.0980327 -22.7814,-0.2752 -34.0599,-0.466541l0 0.986233c11.21,0.174805 22.2428,0.519691 33.8815,0.373233 9.82099,1.41616 18.3983,3.19374 24.4834,4.74573 12.8966,3.93902 24.3594,7.38198 38.5422,9.62965 2.28428,0.362603 4.63352,0.63426 7.0678,0.83505l0 -1.03112z" />
    <path
   id="_294458584"
   class="fil122"
   d="M109.842 102.06c-2.98586,-0.207877 -5.83944,-0.522054 -8.59144,-0.97324 -14.0435,-2.29845 -25.4011,-5.89023 -38.2918,-10.0714 -6.15834,-1.81774 -15.0049,-3.83391 -25.1684,-5.44022 -10.7411,-0.258665 -21.2636,-0.806703 -31.9232,-1.10907l0 0.990957c10.5804,0.28583 21.0227,0.807884 31.7177,1.02285 9.97571,1.57325 18.6333,3.53272 24.67,5.27605 12.9332,4.30045 24.3617,7.96663 38.6355,10.3194 2.86421,0.472447 5.8359,0.797254 8.95168,1.01104l0 -1.02639z" />
    <path
   id="_294438976"
   class="fil123"
   d="M109.842 103.882c-3.69099,-0.203152 -7.1682,-0.561031 -10.4954,-1.12797 -14.1132,-2.40357 -25.4212,-6.21858 -38.3213,-10.7682 -6.11937,-2.00908 -15.051,-4.21186 -25.3728,-5.97763 -9.84461,-0.575204 -19.7483,-1.28978 -29.7854,-1.71026l0 0.992138c9.94973,0.406304 19.7684,1.0949 29.5563,1.63467 10.1269,1.72916 18.8648,3.87406 24.8531,5.80637 12.971,4.65951 24.3676,8.55011 38.7288,11.008 3.43351,0.588196 7.02292,0.957886 10.8367,1.16458l0 -1.02167z" />
    <path
   id="_294443104"
   class="fil124"
   d="M109.842 105.678c-4.41265,-0.181892 -8.51231,-0.571661 -12.3982,-1.25789 -14.1852,-2.50633 -25.4436,-6.54811 -38.3532,-11.4663 -6.07921,-2.19924 -15.097,-4.58746 -25.5747,-6.51268 -8.98239,-0.852766 -18.2388,-1.72325 -27.6488,-2.26774l0 0.996863c9.31429,0.52914 18.4809,1.376 27.3936,2.19806 10.2804,1.88742 19.0998,4.21423 25.0385,6.33787 13.0065,5.02093 24.3712,9.13358 38.8221,11.6966 3.98627,0.706308 8.19223,1.10789 12.7206,1.29332l0 -1.01812z" />
    <path
   id="_294467392"
   class="fil125"
   d="M109.842 107.45c-5.15439,-0.141734 -9.87178,-0.552763 -14.3021,-1.36419 -14.2549,-2.61027 -25.4625,-6.87528 -38.3828,-12.1608 -6.03905,-2.39176 -15.1419,-4.9666 -25.7779,-7.05127 -8.15089,-1.09135 -16.74,-2.10475 -25.5121,-2.7709l0 1.00277c8.6694,0.653158 17.1604,1.64411 25.231,2.70948 10.434,2.04215 19.3337,4.55084 25.2251,6.86583 13.0395,5.38235 24.3735,9.71587 38.9131,12.3864 4.52722,0.830325 9.34382,1.25317 14.6057,1.4008l0 -1.01812z" />
    <path
   id="_294444856"
   class="fil126"
   d="M109.842 109.198c-5.91621,-0.0885838 -11.2442,-0.50788 -16.2061,-1.44687 -14.3269,-2.71421 -25.4826,-7.20363 -38.4123,-12.8576 -6.00007,-2.5831 -15.1868,-5.34337 -25.981,-7.58631 -7.35245,-1.2886 -15.2518,-2.42956 -23.3755,-3.21618l0 1.00985c8.0127,0.77245 15.8069,1.89333 23.0684,3.15831 10.5864,2.19806 19.5676,4.89219 25.4094,7.39734 13.0761,5.74141 24.3771,10.2993 39.0064,13.0738 5.05518,0.959067 10.4765,1.39017 16.4908,1.48466l0 -1.01694z" />
   </g>
  </g>
  <path
   class="fil127"
   d="M111.369 61.5716c-28.5523,6.5989 -74.6844,5.0599 -106.021,3.51973l0 -29.5456c-0.00118112,-3.20437 2.39531,-4.89927 5.63865,-4.89573l94.9901 0.106301c3.46658,0.00236223 5.3918,1.76577 5.3918,4.99022l0 25.8251z"
   id="path4424" />
  <path
   class="fil128"
   d="M5.89023 36.9028l0 76.5411c0.21142,2.66814 3.58233,4.6158 5.99535,4.60872l94.8319 -0.335437c3.48548,-0.0968516 5.07408,-2.43428 5.19337,-5.49692l0 -75.1167c0,-3.22445 -1.92758,-4.98668 -5.3918,-4.99022l-94.9901 -0.106301c-3.24098,-0.00354335 -5.63983,1.69136 -5.63865,4.89573zm2.00081 0l0 76.462c0.0791348,0.587015 0.533865,1.15986 1.13978,1.62522 0.871664,0.669693 1.97247,1.07245 2.85476,1.07009l94.7775 -0.335437c1.07718,-0.0295279 1.84136,-0.350792 2.33034,-0.868121 0.572842,-0.605913 0.868121,-1.53545 0.921271,-2.63625l-0.00472447 0 0 -75.1167c0,-1.0323 -0.255121,-1.78349 -0.737017,-2.23231l-0.00354335 0.00472447c-0.543314,-0.501975 -1.43978,-0.767726 -2.65043,-0.770088l-94.9901 -0.106301 0 0.00826782 -0.0236223 0c-1.15749,0 -2.1201,0.268114 -2.74846,0.784262 -0.545676,0.447643 -0.872845,1.15041 -0.874027,2.09412l0.00826782 0 0 0.0165356z"
   id="path4426" />
  <path
   class="fil129"
   d="M5.89023 36.9028l0 76.5411c0.21142,2.66814 3.58233,4.60872 5.99535,4.60872l95.0291 0c3.48548,-0.0968516 5.07408,-2.43428 5.19337,-5.49692l-0.197247 -75.4521c0,-3.22445 -1.92758,-4.98668 -5.3918,-4.99022l-94.9901 -0.106301c-3.24098,-0.00354335 -5.63983,1.69136 -5.63865,4.89573zm0.999225 0l0 76.5068c0.0897649,0.908279 0.706308,1.73506 1.53191,2.36932 1.04056,0.799616 2.37759,1.28033 3.46422,1.27797l95.002 0c1.36537,-0.0377957 2.36223,-0.474809 3.02956,-1.18112 0.752371,-0.797254 1.13505,-1.96656 1.19411,-3.32012l-0.00236223 0 -0.197247 -75.4521c0,-1.32049 -0.367327,-2.31853 -1.06419,-2.9646l-0.00236223 0.00236223c-0.728749,-0.673237 -1.85317,-1.02875 -3.32603,-1.0323l-94.9901 -0.106301 0 0.00354335 -0.0236223 0c-1.38427,0 -2.56775,0.346067 -3.38154,1.01576 -0.77245,0.63426 -1.23663,1.59805 -1.23781,2.86421l0.00354335 0 0 0.0165356z"
   id="path4428" />
  <path
   class="fil130"
   d="M8.00915 117.699c1.2012,0.902373 2.74019,1.4386 4.01225,1.4386l95.0291 0c1.45514,-0.040158 2.58074,-0.471266 3.40516,-1.18348l-0.757096 -0.668512c-0.649614,0.513786 -1.53309,0.82442 -2.67523,0.85631l-95.002 0c-1.04175,0.00236223 -2.31499,-0.439375 -3.33547,-1.18112l-0.67678 0.738198z"
   id="path4430" />
  <path
   class="fil131"
   d="M7.87333 116.614c1.2012,0.902373 2.74019,1.4386 4.01225,1.4386l95.0291 0c1.45514,-0.040158 2.58074,-0.471266 3.40516,-1.18348l-0.757096 -0.668512c-0.649614,0.513786 -1.53309,0.82442 -2.67523,0.85631l-95.002 0c-1.04175,0.00236223 -2.31499,-0.439375 -3.33547,-1.18112l-0.67678 0.738198z"
   id="path4432" />
  <path
   class="fil132"
   d="M8.55011 116.263l-0.67678 0.738198m102.249 -0.0803159l-0.757096 -0.668512"
   id="path4434" />
  <polygon
   class="fil133"
   points="5.6481,33.8484 5.6481,113.188 4.64651,113.188 4.64651,33.8484 "
   id="polygon4436" />
  <polygon
   class="fil134"
   points="2.12955,33.8484 2.12955,113.188 1.12797,113.188 1.12797,33.8484 "
   id="polygon4438" />
  <polygon
   class="fil135"
   points="113.053,35.9461 113.053,115.285 112.051,115.285 112.051,35.9461 "
   id="polygon4440" />
  <polygon
   class="fil134"
   points="117.114,35.9461 117.114,115.285 116.112,115.285 116.112,35.9461 "
   id="polygon4442" />
  <path
   class="fil136"
   d="M7.31584 25.9881l103.378 0c1.86735,0 3.56934,0.768907 4.80124,2.00081l-0.00118112 0c1.23545,1.23427 2.00317,2.93862 2.00317,4.80242l0 0.682686 -1.00159 0 0 -0.682686c0,-1.59096 -0.654339,-3.0461 -1.70553,-4.09611l-0.00118112 0c-1.05001,-1.05001 -2.50161,-1.70553 -4.09493,-1.70553l-103.378 0c-1.59687,0 -3.04846,0.653158 -4.09848,1.70317 -1.05001,1.05001 -1.70317,2.50161 -1.70317,4.09848l0 0.682686 -1.00159 0 0 -0.682686c0,-1.87089 0.766545,-3.57288 1.99845,-4.80478 1.2319,-1.2319 2.93389,-1.99845 4.80478,-1.99845z"
   id="path4444" />
  <path
   class="fil137"
   d="M117.991 117.18c0,1.8638 -0.768907,3.56815 -2.00199,4.80124 -1.23309,1.23309 -2.93508,2.00199 -4.80124,2.00199l-104.25 0c-1.86735,0 -3.56934,-0.766545 -4.8036,-2.00081 -1.2319,-1.2319 -1.99963,-2.93271 -1.99963,-4.80242l-0.0271657 -84.2443 0.00236223 -0.0118112 0.00826782 -0.310634 0 -0.0236223 0.020079 -0.274019 0 -2.30554c0,-1.91813 0.786624,-3.66619 2.05042,-4.92998 1.26498,-1.26498 3.01067,-2.0516 4.92998,-2.0516l104.001 0c1.91695,0 3.66146,0.787805 4.92644,2.05396l0.00118112 -0.00118112c1.26498,1.26498 2.05278,3.01421 2.05278,4.9288 0,14.7829 -0.00944894,31.0681 -0.0425202,47.7337 -0.0318902,15.5943 -0.0661425,22.1944 -0.0661425,39.4363zm-2.7083 4.09493c1.05119,-1.05119 1.70671,-2.50397 1.70671,-4.09493 0,-15.0167 0.0366146,-22.7282 0.070867,-39.4363 0.0318902,-15.5364 0.0377957,-30.5638 0.0377957,-47.7337 0,-1.64175 -0.674418,-3.13941 -1.7575,-4.22249l0 -0.00118112c-1.08072,-1.0819 -2.5772,-1.75632 -4.22131,-1.75632l-104.001 0c-1.64411,0 -3.14059,0.673237 -4.22367,1.75632 -1.0819,1.0819 -1.75514,2.57838 -1.75514,4.22367l0 2.30908 -0.00236223 0.0354335 -0.0224412 0.305909 -0.00118112 0 -0.0070867 0.2752 0.00236223 0 0.0271657 84.2443c0,1.59451 0.654339,3.0461 1.70435,4.09611 1.05119,1.05119 2.50279,1.70553 4.09729,1.70553l104.25 0c1.59215,0 3.04374,-0.65552 4.09493,-1.70671z"
   id="path4446" />
  <path
   class="fil138"
   d="M114.577 123.068c-1.00041,0.58111 -2.1579,0.915366 -3.38862,0.915366l-104.25 0c-0.566936,0 -1.11734,-0.070867 -1.6453,-0.203152 0.197247,-0.309453 0.413391,-0.607094 0.649614,-0.884657 0.324807,0.0566936 0.656701,0.0862215 0.995682,0.0862215l104.25 0c0.915366,0 1.78467,-0.217326 2.5583,-0.601189 0.268114,0.214963 0.548038,0.4441 0.830325,0.68741z"
   id="path4448" />
  <polygon
   class="fil139"
   points="5.72842,33.9465 5.72842,113.286 4.72683,113.286 4.72683,33.9465 "
   id="polygon4450" />
  <g
   id="_294445360">
   <path
   id="_294458560"
   class="fil140"
   d="M58.2586 114.493c27.794,0 50.3357,1.2012 50.3357,2.6835 0,1.4823 -22.5416,2.68232 -50.3357,2.68232 -27.7952,0 -50.3368,-1.20001 -50.3368,-2.68232 0,-1.4823 22.5416,-2.6835 50.3368,-2.6835z" />
   <g
   id="g4454">
    <path
   id="_294458656"
   class="fil141"
   d="M58.3259 114.657c27.0523,0 48.9927,1.12324 48.9927,2.50633 0,1.38663 -21.9404,2.50751 -48.9927,2.50751 -27.0547,0 -48.9963,-1.12088 -48.9963,-2.50751 0,-1.38309 21.9416,-2.50633 48.9963,-2.50633z" />
    <path
   id="_294440104"
   class="fil142"
   d="M58.3909 114.823c26.3129,0 47.6533,1.04293 47.6533,2.32916 0,1.28978 -21.3404,2.33152 -47.6533,2.33152 -26.3141,0 -47.6545,-1.04175 -47.6545,-2.33152 0,-1.28624 21.3404,-2.32916 47.6545,-2.32916z" />
    <path
   id="_294471232"
   class="fil143"
   d="M58.457 114.989c25.5724,0 46.3116,0.966154 46.3116,2.15554 0,1.19057 -20.7392,2.15318 -46.3116,2.15318 -25.5735,0 -46.314,-0.96261 -46.314,-2.15318 0,-1.18938 20.7404,-2.15554 46.314,-2.15554z" />
    <path
   id="_294443536"
   class="fil144"
   d="M58.5232 115.157c24.8306,0 44.971,0.884657 44.971,1.97719 0,1.09371 -20.1404,1.97837 -44.971,1.97837 -24.8342,0 -44.9734,-0.884657 -44.9734,-1.97837 0,-1.09253 20.1392,-1.97719 44.9734,-1.97719z" />
    <path
   id="_294465400"
   class="fil145"
   d="M58.5881 115.322c24.0912,0 43.6305,0.806703 43.6305,1.8012 0,0.996863 -19.5392,1.80357 -43.6305,1.80357 -24.0924,0 -43.6316,-0.806703 -43.6316,-1.80357 0,-0.9945 19.5392,-1.8012 43.6316,-1.8012z" />
    <path
   id="_294443032"
   class="fil146"
   d="M58.6543 115.487c23.3507,0 42.2899,0.727568 42.2899,1.62522 0,0.901192 -18.9392,1.62758 -42.2899,1.62758 -23.3519,0 -42.2911,-0.726387 -42.2911,-1.62758 0,-0.897649 18.9392,-1.62522 42.2911,-1.62522z" />
    <path
   id="_294455272"
   class="fil147"
   d="M58.7204 115.654c22.6101,0 40.9481,0.649614 40.9481,1.44923 0,0.800797 -18.338,1.45041 -40.9481,1.45041 -22.6125,0 -40.9505,-0.649614 -40.9505,-1.45041 0,-0.799616 18.338,-1.44923 40.9505,-1.44923z" />
    <path
   id="_294464104"
   class="fil148"
   d="M58.7866 115.819c21.8696,0 39.6076,0.570479 39.6076,1.27324 0,0.703946 -17.738,1.27443 -39.6076,1.27443 -21.8719,0 -39.6099,-0.570479 -39.6099,-1.27443 0,-0.702765 17.738,-1.27324 39.6099,-1.27324z" />
    <path
   id="_294459688"
   class="fil149"
   d="M58.8515 115.984c21.1302,0 38.267,0.492526 38.267,1.09844 0,0.605913 -17.1368,1.09726 -38.267,1.09726 -21.1302,0 -38.2682,-0.491345 -38.2682,-1.09726 0,-0.605913 17.138,-1.09844 38.2682,-1.09844z" />
    <path
   id="_294457240"
   class="fil150"
   d="M58.9177 116.152c20.3884,0 36.9264,0.411029 36.9264,0.92009 0,0.510242 -16.538,0.923633 -36.9264,0.923633 -20.3908,0 -36.9276,-0.413391 -36.9276,-0.923633 0,-0.509061 16.5368,-0.92009 36.9276,-0.92009z" />
    <path
   id="_294460048"
   class="fil151"
   d="M58.9838 116.318c19.6479,0 35.5847,0.334256 35.5847,0.745285 0,0.41221 -15.9368,0.746466 -35.5847,0.746466 -19.6502,0 -35.5871,-0.334256 -35.5871,-0.746466 0,-0.411029 15.9368,-0.745285 35.5871,-0.745285z" />
    <path
   id="_294440368"
   class="fil152"
   d="M59.0488 116.484c18.9085,0 34.2453,0.25394 34.2453,0.568117 0,0.315358 -15.3368,0.570479 -34.2453,0.570479 -18.9097,0 -34.2453,-0.255121 -34.2453,-0.570479 0,-0.314177 15.3356,-0.568117 34.2453,-0.568117z" />
   </g>
   <path
   id="_294461896"
   class="fil153"
   d="M59.1137 116.652c18.1691,0 32.9047,0.175986 32.9047,0.392131 0,0.217326 -14.7356,0.393312 -32.9047,0.393312 -18.1691,0 -32.9047,-0.175986 -32.9047,-0.393312 0,-0.216144 14.7356,-0.392131 32.9047,-0.392131z" />
  </g>
  <path
   class="fil132"
   d="M13.7423 115.278l-0.647252 0.70867m99.3248 -0.0755915l-0.726387 -0.642528"
   id="path4469" />
  <path
   class="fil132"
   d="M17.2561 112.996l-0.629535 0.686229m96.926 -0.112206l-0.706308 -0.622449"
   id="path4471" />
  <g
   id="_297531184">
   <path
   id="_297526984"
   class="fil154"
   d="M64.8492 51.3361c5.32566,-2.46735 19.5522,16.5498 31.7626,42.4647 5.14022,10.9112 9.10051,21.3133 11.5738,29.8846l-19.727 0c-3.70634,-6.10756 -7.52017,-13.2179 -11.1545,-20.9365 -12.2104,-25.9172 -17.7888,-48.9408 -12.4549,-51.4128z" />
   <g
   id="g4475">
    <path
   id="_297529024"
   class="fil155"
   d="M65.3217 51.9632c4.74691,-2.20042 17.5384,15.0486 28.5618,38.5127 5.68353,12.1053 10.1411,24.1125 12.4726,33.2095l-15.7053 0c-4.61699,-7.0052 -9.53988,-15.7927 -13.9667,-25.2168 -11.0222,-23.4688 -16.1128,-44.2931 -11.3623,-46.5053z" />
    <path
   id="_297519088"
   class="fil156"
   d="M65.7929 52.5951c4.1658,-1.93939 15.5211,13.5391 25.3609,34.5595 6.20559,13.2746 11.3789,27.4137 13.3065,36.5308l-11.3269 0c-5.46857,-7.46938 -11.8572,-18.3475 -17.0719,-29.4949 -9.83634,-21.0239 -14.4368,-39.6525 -10.2686,-41.5954z" />
    <path
   id="_297521848"
   class="fil157"
   d="M66.263 53.2211c3.58233,-1.67246 13.5049,12.0344 22.1578,30.6157 6.82095,14.6518 13.2852,32.2386 13.9573,39.8485l-6.28709 0c-5.85834,-6.59654 -14.5561,-20.6755 -20.6518,-33.7681 -8.65286,-18.5837 -12.7631,-35.013 -9.1761,-36.6961z" />
    <path
   id="_297525280"
   class="fil158"
   d="M66.7296 53.8518c3.00122,-1.41262 11.4887,10.5273 18.9593,26.6625 7.46938,16.1376 16.3785,39.5414 13.3785,40.954 -3.00476,1.41262 -16.7849,-19.6928 -24.2495,-35.8268 -7.46702,-16.1376 -11.086,-30.3724 -8.08829,-31.7898z" />
    <path
   id="_297524704"
   class="fil159"
   d="M67.1996 54.479c2.42365,-1.14332 9.4761,9.02491 15.7596,22.7141 6.28236,13.6927 16.0254,37.1934 13.6053,38.3391 -2.41893,1.14805 -16.0868,-20.477 -22.3715,-34.1709 -6.28118,-13.6915 -9.40996,-25.7283 -6.99339,-26.8822z" />
   </g>
   <path
   id="_297524344"
   class="fil160"
   d="M67.6626 55.1109c1.84254,-0.884657 7.46112,7.51899 12.5624,18.7656 5.09888,11.2478 15.6734,34.8429 13.8368,35.7229 -1.84018,0.883475 -15.3959,-21.2625 -20.4936,-32.5102 -5.0977,-11.249 -7.73986,-21.0877 -5.90558,-21.9782z" />
  </g>
  <path
   class="fil132"
   d="M23.6566 114.942l-0.59174 0.64489m97.9477 -0.070867l-0.661425 -0.583472"
   id="path4483" />
  <path
   class="fil132"
   d="M25.2535 115.517l-0.58111 0.63426m96.4051 -0.0685048l-0.650795 -0.575204"
   id="path4485" />
  <g
   id="_297044248">
   <path
   id="_297525064"
   class="fil161"
   d="M50.9735 64.5055c-11.047,0 -20.0058,8.95995 -20.0058,20.0046 0,11.0434 8.95877,20.0022 20.0058,20.0022 11.0434,0 20.001,-8.95877 20.001,-20.0022 0,-11.0446 -8.95759,-20.0046 -20.001,-20.0046z" />
   <g
   id="g4489">
    <path
   id="_297530992"
   class="fil162"
   d="M50.9746 67.5339c-9.37334,0 -16.9786,7.60049 -16.9786,16.975 0,9.37216 7.60521,16.9762 16.9786,16.9762 9.37098,0 16.975,-7.60403 16.975,-16.9762 0,-9.37452 -7.60403,-16.975 -16.975,-16.975z" />
    <path
   id="_297524416"
   class="fil163"
   d="M50.9746 70.5552c-7.70443,0 -13.9514,6.24575 -13.9514,13.9537 0,7.70324 6.24693,13.9514 13.9514,13.9514 7.70561,0 13.9537,-6.24811 13.9537,-13.9514 0,-7.70797 -6.24811,-13.9537 -13.9537,-13.9537z" />
    <path
   id="_297532720"
   class="fil164"
   d="M50.9746 73.5777c-6.03551,0 -10.9301,4.89691 -10.9301,10.9312 0,6.03315 4.89455,10.9265 10.9301,10.9265 6.03078,0 10.9265,-4.89337 10.9265,-10.9265 0,-6.03433 -4.89573,-10.9312 -10.9265,-10.9312z" />
    <path
   id="_297527968"
   class="fil165"
   d="M50.9746 76.6037c-4.36186,0 -7.90285,3.54099 -7.90285,7.90049 0,4.36423 3.54099,7.9064 7.90285,7.9064 4.36186,0 7.90285,-3.54217 7.90285,-7.9064 0,-4.3595 -3.54099,-7.90049 -7.90285,-7.90049z" />
    <path
   id="_297525112"
   class="fil166"
   d="M50.9746 79.6262c-2.69413,0 -4.87801,2.18743 -4.87801,4.87801 0,2.69649 2.18389,4.88274 4.87801,4.88274 2.69295,0 4.87919,-2.18625 4.87919,-4.88274 0,-2.69058 -2.18625,-4.87801 -4.87919,-4.87801z" />
   </g>
   <path
   id="_297052072"
   class="fil167"
   d="M50.9735 82.6569c-1.02521,0 -1.85553,0.829144 -1.85553,1.85199 0,1.02403 0.830325,1.85317 1.85553,1.85317 1.02285,0 1.85199,-0.829144 1.85199,-1.85317 0,-1.02285 -0.829144,-1.85199 -1.85199,-1.85199z" />
  </g>
  <g
   id="_297069880">
   <path
   id="_297043816"
   class="fil168"
   d="M65.891 25.7247c-15.2943,0 -27.6984,12.4041 -27.6984,27.6984 0,15.2907 12.4041,27.6948 27.6984,27.6948 15.2919,0 27.6948,-12.4041 27.6948,-27.6948 0,-15.2943 -12.4029,-27.6984 -27.6948,-27.6984z" />
   <g
   id="g4499">
    <path
   id="_297075424"
   class="fil169"
   d="M65.8921 28.5192c-13.7482,0 -24.9038,11.1509 -24.9038,24.9003 0,13.7529 11.1556,24.8991 24.9038,24.8991 13.7482,0 24.8991,-11.1462 24.8991,-24.8991 0,-13.7494 -11.1509,-24.9003 -24.8991,-24.9003z" />
    <path
   id="_297065416"
   class="fil170"
   d="M65.8921 31.3126c-12.2033,0 -22.1081,9.9013 -22.1081,22.107 0,12.2092 9.90485,22.1046 22.1081,22.1046 12.2045,0 22.1058,-9.8954 22.1058,-22.1046 0,-12.2057 -9.9013,-22.107 -22.1058,-22.107z" />
    <path
   id="_297068608"
   class="fil171"
   d="M65.8921 34.1083c-10.6619,0 -19.3148,8.64814 -19.3148,19.3113 0,10.6655 8.65286,19.3148 19.3148,19.3148 10.6631,0 19.3101,-8.64932 19.3101,-19.3148 0,-10.6631 -8.64696,-19.3113 -19.3101,-19.3113z" />
    <path
   id="_297064192"
   class="fil172"
   d="M65.8921 36.9028c-9.12058,0 -16.5203,7.39497 -16.5203,16.5167 0,9.12058 7.3997,16.5191 16.5203,16.5191 9.1194,0 16.5167,-7.39852 16.5167,-16.5191 0,-9.12177 -7.39734,-16.5167 -16.5167,-16.5167z" />
    <path
   id="_297049624"
   class="fil173"
   d="M65.8933 39.6973c-7.57805,0 -13.7222,6.14535 -13.7222,13.7258 0,7.57686 6.14417,13.7246 13.7222,13.7246 7.57568,0 13.7234,-6.14771 13.7234,-13.7246 0,-7.58041 -6.14771,-13.7258 -13.7234,-13.7258z" />
    <path
   id="_297058288"
   class="fil174"
   d="M65.8933 42.493c-6.03551,0 -10.9277,4.89455 -10.9277,10.9301 0,6.03551 4.89219,10.9312 10.9277,10.9312 6.03551,0 10.9289,-4.89573 10.9289,-10.9312 0,-6.03551 -4.89337,-10.9301 -10.9289,-10.9301z" />
    <path
   id="_297049120"
   class="fil175"
   d="M65.8933 45.2876c-4.49179,0 -8.13317,3.6402 -8.13317,8.13553 0,4.48943 3.64138,8.13553 8.13317,8.13553 4.49297,0 8.13317,-3.64611 8.13317,-8.13553 0,-4.49533 -3.6402,-8.13553 -8.13317,-8.13553z" />
   </g>
   <path
   id="_297065224"
   class="fil176"
   d="M65.891 48.0809c-2.94807,0 -5.33983,2.39176 -5.33983,5.34219 0,2.94925 2.39176,5.33983 5.33983,5.33983 2.95043,0 5.34219,-2.39058 5.34219,-5.33983 0,-2.95043 -2.39176,-5.34219 -5.34219,-5.34219z" />
  </g>
  <path
   class="fil177"
   d="M75.184 52.7251l-9.09578 6.98867c17.3187,22.5404 34.6374,45.0809 51.9573,67.6225 4.32053,0.141734 8.74971,-3.04728 9.0946,-6.98867l-51.9562 -67.6225z"
   id="path4509" />
  <polygon
   class="fil178"
   points="72.2903,56.0038 64.665,62.0689 64.9036,62.3807 68.9583,59.0582 120.676,126.37 124.248,123.626 "
   id="polygon4511" />
  <path
   class="fil179"
   d="M82.8683 80.7376l35.4241 46.1037c1.99963,0.00590558 4.01107,-0.728749 5.56188,-1.9205l0.00236223 -0.00236223c1.49057,-1.1445 2.55357,-2.7083 2.76499,-4.42683l-35.6497 -46.399c0.24331,-0.258665 0.468903,-0.512605 0.674418,-0.760639l35.8906 46.7132 0.101576 0.344886c-0.181892,2.08703 -1.4197,3.9721 -3.1772,5.32211 -1.78585,1.37128 -4.12564,2.19806 -6.43118,2.12247l-0.235042 -0.00826782 -0.144096 -0.187798 -35.6 -46.334 0.817333 -0.566936z"
   id="path4513" />
  <polygon
   class="fil180"
   points="73.795,54.3916 66.1697,60.4566 66.4083,60.7685 70.4631,57.446 122.181,124.758 125.752,122.014 "
   id="polygon4515" />
  <path
   class="fil181"
   d="M75.184 52.7251l-9.09578 6.98867c5.46857,7.11623 10.9383,14.2336 16.4081,21.3534 3.58115,-1.7764 6.27409,-4.44336 9.09342,-6.98749l-16.4057 -21.3546z"
   id="path4517" />
  <path
   class="fil182"
   d="M66.6729 60.472l0.216144 0.282287 2.06932 -1.69372 15.8718 20.6577c1.26852,-0.837412 2.43546,-1.7764 3.56343,-2.75555l-16.1033 -20.9601 -5.61739 4.46935z"
   id="path4519" />
  <polygon
   class="fil183"
   points="73.795,54.3916 66.3776,60.0905 66.6162,60.4011 70.4619,57.446 86.342,78.1132 89.9125,75.3694 "
   id="polygon4521" />
  <path
   class="fil184"
   d="M75.0907 53.4231l-8.30561 6.38157 16.0833 20.9329 -0.817333 0.566936 -16.3573 -21.2885 -0.303547 -0.393312 0.395674 -0.303547 9.09578 -6.98867 0.394493 -0.303547 0.304728 0.395674 16.0656 20.9093c-0.205514,0.248035 -0.431108,0.501975 -0.674418,0.760639l-15.8813 -20.6695z"
   id="path4523" />
  <polygon
   class="fil185"
   points="73.795,54.3916 66.3764,60.0905 66.6162,60.4 70.4631,57.4448 86.3396,78.112 89.9137,75.3683 "
   id="polygon4525" />
  <path
   class="fil186"
   d="M67 55.9908c-1.67128,0 -3.02838,1.35592 -3.02838,3.0272 0,1.67128 1.3571,3.0272 3.02838,3.0272 1.6701,0 3.0272,-1.35592 3.0272,-3.0272 0,-1.67128 -1.3571,-3.0272 -3.0272,-3.0272z"
   id="path4527" />
  <polygon
   class="fil187"
   points="67.1441,20.1652 64.4524,52.4593 33.0571,54.2522 65.35,56.944 67.1441,88.3405 69.8347,56.0464 101.231,54.2522 68.9382,51.5617 "
   id="polygon4529" />
  <g
   id="_297053248">
   <g
   id="g4532">
    <path
   id="_297057592"
   class="fil168"
   d="M30.2106 93.4429c-7.81073,0 -14.1439,6.33433 -14.1439,14.1439 0,7.80836 6.33315,14.1439 14.1439,14.1439 7.80836,0 14.1427,-6.33551 14.1427,-14.1439 0,-7.80954 -6.33433,-14.1439 -14.1427,-14.1439z" />
    <g
   id="g4535">
     <path
   id="_297045568"
   class="fil188"
   d="M30.2118 97.1315c-5.76976,0 -10.4517,4.67959 -10.4517,10.4552 0,5.76976 4.68195,10.4482 10.4517,10.4482 5.76976,0 10.4517,-4.6784 10.4517,-10.4482 0,-5.77566 -4.68195,-10.4552 -10.4517,-10.4552z" />
     <path
   id="_297048184"
   class="fil189"
   d="M30.2118 100.827c-3.72997,0 -6.75953,3.02248 -6.75953,6.75953 0,3.72997 3.02956,6.75717 6.75953,6.75717 3.73351,0 6.75835,-3.0272 6.75835,-6.75717 0,-3.73705 -3.02484,-6.75953 -6.75835,-6.75953z" />
    </g>
    <path
   id="_297052912"
   class="fil176"
   d="M30.2106 104.519c-1.6949,0 -3.06736,1.37246 -3.06736,3.06736 0,1.69372 1.37246,3.06854 3.06736,3.06854 1.69254,0 3.065,-1.37482 3.065,-3.06854 0,-1.6949 -1.37246,-3.06736 -3.065,-3.06736z" />
   </g>
   <polygon
   id="_297069064"
   class="fil187"
   points="28.8382,96.639 27.8661,108.299 16.5297,108.947 28.1909,109.919 28.8382,121.256 29.8102,109.595 41.1478,108.947 29.4866,107.975 " />
  </g>
  <polygon
   class="fil187"
   points="50.4325,61.346 48.4754,84.8255 25.648,86.1294 49.1286,88.0865 50.4325,110.914 52.3896,87.4345 75.2171,86.1294 51.7365,84.1735 "
   id="polygon4541" />
  <g
   id="_297071704">
   <g
   id="g4544">
    <path
   id="_297048664"
   class="fil168"
   d="M70.2977 80.6408c-10.9927,0 -19.9065,8.91389 -19.9065,19.9065 0,10.9891 8.91389,19.9018 19.9065,19.9018 10.9879,0 19.9018,-8.91271 19.9018,-19.9018 0,-10.9927 -8.91389,-19.9065 -19.9018,-19.9065z" />
    <g
   id="g4547">
     <path
   id="_297056680"
   class="fil188"
   d="M70.2989 85.8318c-8.12136,0 -14.7108,6.58945 -14.7108,14.7108 0,8.12136 6.58945,14.7108 14.7108,14.7108 8.11782,0 14.7084,-6.58945 14.7084,-14.7108 0,-8.12136 -6.59063,-14.7108 -14.7084,-14.7108z" />
     <path
   id="_297068248"
   class="fil189"
   d="M70.2989 91.0299c-5.25243,0 -9.51153,4.25911 -9.51153,9.51272 0,5.25361 4.25911,9.51272 9.51153,9.51272 5.24652,0 9.51153,-4.25911 9.51153,-9.51272 0,-5.25361 -4.26501,-9.51272 -9.51153,-9.51272z" />
    </g>
    <path
   id="_297053896"
   class="fil176"
   d="M70.2977 96.2291c-2.38586,0 -4.31934,1.93231 -4.31934,4.31816 0,2.38231 1.93349,4.31462 4.31934,4.31462 2.38231,0 4.31344,-1.93231 4.31344,-4.31462 0,-2.38586 -1.93113,-4.31816 -4.31344,-4.31816z" />
   </g>
   <polygon
   id="_297057472"
   class="fil187"
   points="68.6524,86.2759 67.2847,101.975 51.3302,103.598 67.3178,105.248 68.6524,120.92 70.0202,105.22 85.9747,103.598 69.9906,101.661 " />
  </g>
  <g
   id="_298319016">
   <path
   id="_298310928"
   class="fil190"
   d="M108.677 124.663c31.9539,0.0366146 20.1652,2.81933 20.1652,3.57997 0,0.1689 0.128742,0.368508 0.0897649,0.576385l-45.4907 0c-0.0342524,-0.0472447 -0.0543314,-0.0980327 -0.0543314,-0.142915 0,-0.76182 -6.66504,-4.04651 25.2901,-4.01344z" />
   <g
   id="g4555">
    <path
   id="_298323816"
   class="fil191"
   d="M109.82 124.861c28.6492,0.030709 18.4018,2.56539 18.4018,3.27642 0,0.199609 0.172443,0.438194 -0.060237,0.682686l-41.0249 0c-0.192522,-0.101576 -0.274019,-0.199609 -0.274019,-0.297641 0,-0.711032 -5.69653,-3.68981 22.9574,-3.66146z" />
    <path
   id="_298310664"
   class="fil192"
   d="M110.955 125.06c25.3515,0.0283468 16.6443,2.31263 16.6443,2.97287 0,0.224412 0.214963,0.511424 -0.421659,0.786624l-36.043 0c-0.579928,-0.148821 -0.794892,-0.303547 -0.794892,-0.450006 0,-0.662607 -4.73155,-3.33547 20.6152,-3.30949z" />
    <path
   id="_298312344"
   class="fil193"
   d="M112.102 125.26c22.042,0.0224412 14.8809,2.05396 14.8809,2.66932 0,0.252759 0.240948,0.601189 -1.26852,0.890562l-29.9496 0c-1.45277,-0.191341 -1.94294,-0.405123 -1.94294,-0.604732 0,-0.611819 -3.76658,-2.9776 18.2801,-2.95515z" />
    <path
   id="_298310448"
   class="fil194"
   d="M113.241 125.459c18.742,0.0188979 13.1187,1.8012 13.1187,2.36578 0,0.295279 0.218507,0.735836 -3.48193,0.9945l-20.731 0c-3.70989,-0.193703 -4.84848,-0.491345 -4.84848,-0.755915 0,-0.564574 -2.79925,-2.62208 15.9427,-2.60436z" />
    <path
   id="_298316760"
   class="fil195"
   d="M114.381 125.658c15.4384,0.0177168 11.3588,1.54608 11.3588,2.05987 0,0.368508 -0.0248035,0.989776 -11.0009,0.989776 -10.9738,0 -13.9608,-0.429927 -13.9608,-0.794892 0,-0.514967 -1.83427,-2.27129 13.6029,-2.25475z" />
    <path
   id="_298312800"
   class="fil196"
   d="M115.52 125.857c12.136,0.0118112 9.59539,1.29332 9.59539,1.75632 0,0.289374 -0.553944,0.764183 -9.32019,0.76182 -8.76743,0 -11.5419,-0.32835 -11.5419,-0.615362 0,-0.466541 -0.868121,-1.91695 11.2667,-1.90278z" />
    <path
   id="_298317168"
   class="fil197"
   d="M116.665 126.057c8.83003,0.00826782 7.83789,1.03466 7.83789,1.45277 0,0.21142 -1.08781,0.533865 -7.64537,0.531503 -6.55874,0 -9.12177,-0.227956 -9.12177,-0.435832 0,-0.415753 0.0968516,-1.55671 8.92924,-1.54844z" />
    <path
   id="_298321368"
   class="fil198"
   d="M117.805 126.257c5.52999,0.00354335 6.07448,0.781899 6.07448,1.14923 0,0.132285 -1.61222,0.30709 -5.96464,0.303547 -4.34887,0 -6.70284,-0.12638 -6.70284,-0.255121 0,-0.368508 1.06537,-1.20356 6.59299,-1.19765z" />
   </g>
   <path
   id="_298325784"
   class="fil199"
   d="M118.944 126.456c2.22522,0 4.31226,0.527959 4.31226,0.849223 0,0.103938 -8.569,0.0956705 -8.569,0 0,-0.321264 2.0327,-0.849223 4.25675,-0.849223z" />
  </g>
 </g>
</svg>