<?xml version="1.0" encoding="UTF-8" standalone="no"?>
<!-- Created with Inkscape (http://www.inkscape.org/) -->

<svg
   xmlns:dc="http://purl.org/dc/elements/1.1/"
   xmlns:cc="http://creativecommons.org/ns#"
   xmlns:rdf="http://www.w3.org/1999/02/22-rdf-syntax-ns#"
   xmlns:svg="http://www.w3.org/2000/svg"
   xmlns="http://www.w3.org/2000/svg"
   xmlns:sodipodi="http://sodipodi.sourceforge.net/DTD/sodipodi-0.dtd"
   xmlns:inkscape="http://www.inkscape.org/namespaces/inkscape"
   width="128"
   height="128"
   id="svg2"
   version="1.1"
   inkscape:version="0.48.3.1 r9886"
   sodipodi:docname="128.svg">
  <defs
     id="defs4">
    <linearGradient
       gradientTransform="translate(45.75,27)"
       y2="42"
       x2="0"
       y1="0"
       x1="0"
       gradientUnits="userSpaceOnUse"
       id="LinearGradient_17-0">
      <stop
         id="stop125414"
         stop-color="#ececec"
         offset="0" />
      <stop
         id="stop125416"
         stop-color="#ffffff"
         offset="1" />
    </linearGradient>
    <linearGradient
       gradientTransform="translate(24.477,83.358)"
       y2="0"
       x2="46.296"
       y1="0"
       x1="0"
       gradientUnits="userSpaceOnUse"
       id="LinearGradient_16-5">
      <stop
         id="stop125407"
         stop-color="#ffebd7"
         offset="0" />
      <stop
         id="stop125409"
         stop-color="#ffffff"
         offset="0.499931275844574" />
      <stop
         id="stop125411"
         stop-color="#ffebd7"
         offset="1" />
    </linearGradient>
    <linearGradient
       gradientTransform="translate(43.5,84)"
       y2="-66"
       x2="0"
       y1="0"
       x1="0"
       gradientUnits="userSpaceOnUse"
       id="LinearGradient_15-6">
      <stop
         id="stop125402"
         stop-color="#ffc48d"
         offset="0" />
      <stop
         id="stop125404"
         stop-color="#e67a40"
         offset="1" />
    </linearGradient>
    <linearGradient
       gradientTransform="translate(45.75,84.75)"
       y2="-62.25"
       x2="0"
       y1="0"
       x1="0"
       gradientUnits="userSpaceOnUse"
       id="LinearGradient_14-8">
      <stop
         id="stop125397"
         stop-color="#ffa879"
         offset="0" />
      <stop
         id="stop125399"
         stop-color="#d46c33"
         offset="1" />
    </linearGradient>
    <linearGradient
       gradientTransform="translate(1.5,95.146)"
       y2="0"
       x2="11.25"
       y1="0"
       x1="0"
       gradientUnits="userSpaceOnUse"
       id="LinearGradient_13-9">
      <stop
         id="stop125390"
         stop-color="#c8c8c8"
         offset="0" />
      <stop
         id="stop125392"
         stop-color="#ffffff"
         offset="0.52311110496521" />
      <stop
         id="stop125394"
         stop-color="#a7a7a7"
         offset="1" />
    </linearGradient>
    <linearGradient
       gradientTransform="translate(1.5,2.888)"
       y2="0"
       x2="11.25"
       y1="0"
       x1="0"
       gradientUnits="userSpaceOnUse"
       id="LinearGradient_12-31">
      <stop
         id="stop125383"
         stop-color="#acacac"
         offset="0" />
      <stop
         id="stop125385"
         stop-color="#ffffff"
         offset="0.52311110496521" />
      <stop
         id="stop125387"
         stop-color="#929292"
         offset="1" />
    </linearGradient>
    <linearGradient
       gradientTransform="matrix(-1,0,0,-1,5.25,45.725)"
       y2="0"
       x2="3.75"
       y1="0"
       x1="0"
       gradientUnits="userSpaceOnUse"
       id="LinearGradient_11-9">
      <stop
         id="stop125378"
         stop-color="#919aa0"
         offset="0" />
      <stop
         id="stop125380"
         stop-color="#dfe1e2"
         offset="1" />
    </linearGradient>
    <linearGradient
       gradientTransform="matrix(0.00766192,0.99997065,-0.99997065,0.00766192,8.78,8.48)"
       y2="0"
       x2="78.301"
       y1="0"
       x1="0"
       gradientUnits="userSpaceOnUse"
       id="LinearGradient_10-7">
      <stop
         id="stop125371"
         stop-color="#ededed"
         offset="0" />
      <stop
         id="stop125373"
         stop-color="#ffffff"
         offset="0.666675209999084" />
      <stop
         id="stop125375"
         stop-color="#ffffff"
         offset="1" />
    </linearGradient>
    <linearGradient
       gradientTransform="matrix(-0.99997539,-0.00701617,0.00701617,-0.99997539,10.5,87.75)"
       y2="0"
       x2="5.135"
       y1="0"
       x1="0"
       gradientUnits="userSpaceOnUse"
       id="LinearGradient_9-7">
      <stop
         id="stop125364"
         stop-color="#e2e2e2"
         offset="0" />
      <stop
         id="stop125366"
         stop-color="#fffefe"
         offset="0.47066667675972" />
      <stop
         id="stop125368"
         stop-color="#c1c4c5"
         offset="1" />
    </linearGradient>
    <linearGradient
       gradientTransform="translate(1.5,43.5)"
       y2="0"
       x2="9"
       y1="0"
       x1="0"
       gradientUnits="userSpaceOnUse"
       id="LinearGradient_8-2">
      <stop
         id="stop125357"
         stop-color="#6b7073"
         offset="0" />
      <stop
         id="stop125359"
         stop-color="#e6e6e6"
         offset="0.607777774333954" />
      <stop
         id="stop125361"
         stop-color="#8b8b8b"
         offset="1" />
    </linearGradient>
    <linearGradient
       gradientTransform="translate(7.5,94.5)"
       y2="-86.25"
       x2="0"
       y1="0"
       x1="0"
       gradientUnits="userSpaceOnUse"
       id="LinearGradient_7-74">
      <stop
         id="stop125352"
         stop-color="#b0b0b0"
         offset="0" />
      <stop
         id="stop125354"
         stop-color="#818689"
         offset="1" />
    </linearGradient>
    <linearGradient
       gradientTransform="matrix(-1,0,0,-1,94.5,95.146)"
       y2="0"
       x2="11.25"
       y1="0"
       x1="0"
       gradientUnits="userSpaceOnUse"
       id="LinearGradient_6-8">
      <stop
         id="stop125345"
         stop-color="#c8c8c8"
         offset="0" />
      <stop
         id="stop125347"
         stop-color="#ffffff"
         offset="0.52311110496521" />
      <stop
         id="stop125349"
         stop-color="#a7a7a7"
         offset="1" />
    </linearGradient>
    <linearGradient
       gradientTransform="translate(94.5,2.888)"
       y2="0"
       x2="-11.25"
       y1="0"
       x1="0"
       gradientUnits="userSpaceOnUse"
       id="LinearGradient_5-3">
      <stop
         id="stop125338"
         stop-color="#acacac"
         offset="0" />
      <stop
         id="stop125340"
         stop-color="#ffffff"
         offset="0.52311110496521" />
      <stop
         id="stop125342"
         stop-color="#929292"
         offset="1" />
    </linearGradient>
    <linearGradient
       gradientTransform="translate(90.75,45.725)"
       y2="0"
       x2="3.75"
       y1="0"
       x1="0"
       gradientUnits="userSpaceOnUse"
       id="LinearGradient_4-11">
      <stop
         id="stop125333"
         stop-color="#919aa0"
         offset="0" />
      <stop
         id="stop125335"
         stop-color="#dfe1e2"
         offset="1" />
    </linearGradient>
    <linearGradient
       gradientTransform="translate(87.22,8.48)"
       y2="78.299"
       x2="-0.6"
       y1="0"
       x1="0"
       gradientUnits="userSpaceOnUse"
       id="LinearGradient_3-4">
      <stop
         id="stop125326"
         stop-color="#ededed"
         offset="0" />
      <stop
         id="stop125328"
         stop-color="#ffffff"
         offset="0.666675209999084" />
      <stop
         id="stop125330"
         stop-color="#ffffff"
         offset="1" />
    </linearGradient>
    <linearGradient
       gradientTransform="translate(85.5,87.75)"
       y2="-0.036"
       x2="5.135"
       y1="0"
       x1="0"
       gradientUnits="userSpaceOnUse"
       id="LinearGradient_2-3">
      <stop
         id="stop125319"
         stop-color="#e2e2e2"
         offset="0" />
      <stop
         id="stop125321"
         stop-color="#fffefe"
         offset="0.47066667675972" />
      <stop
         id="stop125323"
         stop-color="#c1c4c5"
         offset="1" />
    </linearGradient>
    <linearGradient
       gradientTransform="matrix(-1,0,0,-1,94.5,43.5)"
       y2="0"
       x2="9"
       y1="0"
       x1="0"
       gradientUnits="userSpaceOnUse"
       id="LinearGradient_1-3">
      <stop
         id="stop125312"
         stop-color="#6b7073"
         offset="0" />
      <stop
         id="stop125314"
         stop-color="#e6e6e6"
         offset="0.607777774333954" />
      <stop
         id="stop125316"
         stop-color="#8b8b8b"
         offset="1" />
    </linearGradient>
    <linearGradient
       gradientTransform="matrix(0,-1,1,0,88.5,94.5)"
       y2="0"
       x2="86.25"
       y1="0"
       x1="0"
       gradientUnits="userSpaceOnUse"
       id="LinearGradient-2">
      <stop
         id="stop125307"
         stop-color="#b0b0b0"
         offset="0" />
      <stop
         id="stop125309"
         stop-color="#818689"
         offset="1" />
    </linearGradient>
  </defs>
  <sodipodi:namedview
     id="base"
     pagecolor="#ffffff"
     bordercolor="#666666"
     borderopacity="1.0"
     inkscape:pageopacity="0.0"
     inkscape:pageshadow="2"
     inkscape:zoom="2.7644516"
     inkscape:cx="69.013279"
     inkscape:cy="65.455437"
     inkscape:document-units="px"
     inkscape:current-layer="layer1"
     showgrid="false"
     inkscape:snap-global="false"
     inkscape:window-width="875"
     inkscape:window-height="593"
     inkscape:window-x="602"
     inkscape:window-y="294"
     inkscape:window-maximized="0" />
  <metadata
     id="metadata7">
    <rdf:RDF>
      <cc:Work
         rdf:about="">
        <dc:format>image/svg+xml</dc:format>
        <dc:type
           rdf:resource="http://purl.org/dc/dcmitype/StillImage" />
        <dc:title />
      </cc:Work>
    </rdf:RDF>
  </metadata>
  <g
     inkscape:label="Layer 1"
     inkscape:groupmode="layer"
     id="layer1"
     transform="translate(0,-924.36218)">
    <g
       style="fill-rule:evenodd;stroke-width:0.50099999;stroke-linejoin:bevel;overflow:visible"
       id="g125641"
       transform="matrix(1.3333333,0,0,1.3333333,0,924.36218)">
      <g
         transform="scale(1,-1)"
         font-size="16"
         id="Document"
         style="font-size:16px;fill:none;stroke:#000000;font-family:Times New Roman">
        <g
           transform="translate(0,-96)"
           id="Spread">
          <g
             id="MouseOff">
            <g
               id="Group"
               style="stroke:none">
              <g
                 id="Group_1">
                <g
                   stroke-miterlimit="79.8403193612775"
                   id="Group_2"
                   style="fill:#000000">
                  <path
                     id="path125424"
                     d="M 81.825,2.25 C 74.001,2.25 67.65,1.746 67.65,1.125 67.65,0.504 74.001,0 81.825,0 89.649,0 96,0.504 96,1.125 96,1.746 89.649,2.25 81.825,2.25 z"
                     inkscape:connector-curvature="0"
                     style="fill-opacity:0.047059;marker-start:none;marker-end:none" />
                  <path
                     id="path125426"
                     d="M 82.875,2.25 C 76.044,2.25 70.5,1.746 70.5,1.125 70.5,0.504 76.044,0 82.875,0 89.706,0 95.25,0.504 95.25,1.125 95.25,1.746 89.706,2.25 82.875,2.25 z"
                     inkscape:connector-curvature="0"
                     style="fill-opacity:0.07450998;marker-start:none;marker-end:none" />
                  <path
                     id="path125428"
                     d="m 84,2.25 c -5.382,0 -9.75,-0.336 -9.75,-0.75 0,-0.414 4.368,-0.75 9.75,-0.75 5.382,0 9.75,0.336 9.75,0.75 0,0.414 -4.368,0.75 -9.75,0.75 z"
                     inkscape:connector-curvature="0"
                     style="fill-opacity:0.09019602;marker-start:none;marker-end:none" />
                  <path
                     id="path125430"
                     d="M 84.75,2.25 C 80.196,2.25 76.5,1.914 76.5,1.5 76.5,1.086 80.196,0.75 84.75,0.75 89.304,0.75 93,1.086 93,1.5 93,1.914 89.304,2.25 84.75,2.25 z"
                     inkscape:connector-curvature="0"
                     style="fill-opacity:0.09019602;marker-start:none;marker-end:none" />
                  <path
                     id="path125432"
                     d="m 86.25,2.25 c -3.312,0 -6,-0.336 -6,-0.75 0,-0.414 2.688,-0.75 6,-0.75 3.312,0 6,0.336 6,0.75 0,0.414 -2.688,0.75 -6,0.75 z"
                     inkscape:connector-curvature="0"
                     style="fill-opacity:0.09019602;marker-start:none;marker-end:none" />
                  <path
                     id="path125434"
                     d="M 87.375,2.25 C 85.512,2.25 84,1.914 84,1.5 c 0,-0.414 1.512,-0.75 3.375,-0.75 1.863,0 3.375,0.336 3.375,0.75 0,0.414 -1.512,0.75 -3.375,0.75 z"
                     inkscape:connector-curvature="0"
                     style="fill-opacity:0.047059;marker-start:none;marker-end:none" />
                </g>
                <g
                   stroke-miterlimit="79.8403193612775"
                   id="Group_3">
                  <path
                     style="fill:url(#LinearGradient-2);marker-start:none;marker-end:none"
                     id="path125437"
                     d="m 95.25,2.249 0,92.251 c 0,0.828 -2.856,1.5 -6.375,1.5 -3.519,0 -6.375,-0.672 -6.375,-1.5 0,-0.002 0.001,-0.004 0.001,-0.005 l 0,-92.241 C 82.501,2.253 82.5,2.251 82.5,2.25 c 0,-0.828 2.856,-1.5 6.375,-1.5 3.518,0 6.373,0.671 6.375,1.499 z"
                     inkscape:connector-curvature="0" />
                  <path
                     style="fill:url(#LinearGradient_1-3);marker-start:none;marker-end:none"
                     id="path125439"
                     d="m 92.796,1.83 c 0.853,0.166 1.361,0.36 1.603,0.496 l 0.101,0.073 0,91.949 -0.101,0.074 c -0.243,0.135 -0.751,0.33 -1.603,0.497 -1.047,0.204 -2.414,0.331 -3.921,0.331 -1.506,0 -2.873,-0.127 -3.92,-0.332 -0.852,-0.166 -1.359,-0.361 -1.6,-0.497 l -0.104,-0.075 0,-91.946 0.103,-0.074 c 0.243,-0.136 0.75,-0.33 1.602,-0.496 1.046,-0.204 2.413,-0.33 3.919,-0.33 1.507,0 2.874,0.126 3.921,0.33 z"
                     inkscape:connector-curvature="0" />
                  <path
                     style="fill:url(#LinearGradient_2-3);fill-opacity:0.81960796;marker-start:none;marker-end:none"
                     id="path125441"
                     d="m 91.5,1.523 0,92.952 -6,-0.212 0,-92.528 6,-0.212 z"
                     inkscape:connector-curvature="0" />
                  <path
                     style="fill:url(#LinearGradient_3-4);marker-start:none;marker-end:none"
                     id="path125443"
                     d="m 87.749,85.13 0,-76.511 c 0,-1.032 -0.698,-1.87 -1.558,-1.87 l -0.633,0 C 84.698,6.749 84,7.587 84,8.619 l 0,76.511 c 0,1.032 0.698,1.87 1.558,1.87 l 0.633,0 c 0.86,0 1.558,-0.838 1.558,-1.87 z"
                     inkscape:connector-curvature="0" />
                  <path
                     id="path125445"
                     d="m 87,79.5 -3,5.25 c -0.185,2.364 1.903,2.847 3,2.25 2.053,-1.118 2.038,-4.5 0,-7.5 z"
                     inkscape:connector-curvature="0"
                     style="fill:#ffffff;marker-start:none;marker-end:none" />
                  <path
                     id="path125447"
                     d="m 87.001,84.38 0,-75.011 c 0,-1.032 -0.672,-1.87 -1.5,-1.87 l -0.001,0 c -0.828,0 -1.5,0.838 -1.5,1.87 l 0,75.011 c 0,1.032 0.672,1.87 1.5,1.87 l 0.001,0 c 0.828,0 1.5,-0.838 1.5,-1.87 z"
                     inkscape:connector-curvature="0"
                     style="fill:#4c4c4c;marker-start:none;marker-end:none" />
                  <path
                     style="fill:url(#LinearGradient_4-11);marker-start:none;marker-end:none"
                     id="path125449"
                     d="m 90.749,1.567 0,92.932 3.496,0 c 0.06,-0.028 0.111,-0.054 0.154,-0.077 L 94.5,94.348 94.5,2.399 94.399,2.326 C 94.157,2.19 93.649,1.996 92.796,1.83 92.204,1.714 91.511,1.624 90.749,1.567 z"
                     inkscape:connector-curvature="0" />
                  <path
                     style="fill:url(#LinearGradient_5-3);marker-start:none;marker-end:none"
                     id="path125451"
                     d="m 94.5,3 0,-0.71 -0.101,-0.074 C 94.156,2.081 93.648,1.886 92.796,1.719 92.147,1.593 91.374,1.496 90.521,1.441 90.472,1.436 90.42,1.433 90.493,1.439 90.399,1.433 90.304,1.427 90.211,1.424 89.78,1.4 89.333,1.388 88.875,1.388 c -0.456,0 -0.902,0.012 -1.332,0.036 -0.097,0.004 -0.192,0.009 -0.285,0.015 0.002,0 0.004,0 0.005,0 0.06,-0.005 0.036,-0.004 0,0 -0.002,0 -0.006,0 -0.011,0 0.002,0 0.004,0 0.006,0 -0.004,10e-4 -0.008,10e-4 -0.013,10e-4 -0.859,0.055 -1.636,0.153 -2.29,0.28 -0.852,0.166 -1.359,0.361 -1.6,0.497 L 83.251,2.292 83.25,3 C 84.377,2.156 91.498,1.389 94.5,3 z"
                     inkscape:connector-curvature="0" />
                  <path
                     style="fill:url(#LinearGradient_6-8);marker-start:none;marker-end:none"
                     id="path125453"
                     d="m 88.875,95.25 c -3.105,0 -5.625,-0.336 -5.625,-0.75 0,-0.414 2.52,-0.75 5.625,-0.75 3.105,0 5.625,0.336 5.625,0.75 0,0.414 -2.52,0.75 -5.625,0.75 z"
                     inkscape:connector-curvature="0" />
                  <path
                     id="path125455"
                     d="m 88.388,94.8 c -1.469,0 -2.663,-0.504 -2.663,-1.125 0,-0.621 1.194,-1.125 2.663,-1.125 1.469,0 2.663,0.504 2.663,1.125 0,0.621 -1.194,1.125 -2.663,1.125 z"
                     inkscape:connector-curvature="0"
                     style="fill:#ffffff;marker-start:none;marker-end:none" />
                  <path
                     id="path125457"
                     d="m 88.5,2.25 c -1.242,0 -2.25,-0.168 -2.25,-0.375 0,-0.207 1.008,-0.375 2.25,-0.375 1.242,0 2.25,0.168 2.25,0.375 0,0.207 -1.008,0.375 -2.25,0.375 z"
                     inkscape:connector-curvature="0"
                     style="fill:#ffffff;marker-start:none;marker-end:none" />
                  <path
                     id="path125459"
                     d="m 83.492,94.332 c 0.675,-0.075 2.909,-0.45 5.25,-0.45 2.625,0 4.65,0.3 5.775,0.6 -0.15,-1.125 -3.78,-1.425 -5.925,-1.425 -2.85,0 -5.227,1.289 -5.1,1.275 z"
                     inkscape:connector-curvature="0"
                     style="fill:#ffffff;marker-start:none;marker-end:none" />
                </g>
                <g
                   stroke-miterlimit="79.8403193612775"
                   id="Group_4"
                   style="fill:#000000">
                  <path
                     id="path125462"
                     d="M 14.175,2.25 C 21.999,2.25 28.35,1.746 28.35,1.125 28.35,0.504 21.999,0 14.175,0 6.351,0 0,0.504 0,1.125 0,1.746 6.351,2.25 14.175,2.25 z"
                     inkscape:connector-curvature="0"
                     style="fill-opacity:0.047059;marker-start:none;marker-end:none" />
                  <path
                     id="path125464"
                     d="M 13.125,2.25 C 19.956,2.25 25.5,1.746 25.5,1.125 25.5,0.504 19.956,0 13.125,0 6.294,0 0.75,0.504 0.75,1.125 0.75,1.746 6.294,2.25 13.125,2.25 z"
                     inkscape:connector-curvature="0"
                     style="fill-opacity:0.07450998;marker-start:none;marker-end:none" />
                  <path
                     id="path125466"
                     d="m 12,2.25 c 5.382,0 9.75,-0.336 9.75,-0.75 0,-0.414 -4.368,-0.75 -9.75,-0.75 -5.382,0 -9.75,0.336 -9.75,0.75 0,0.414 4.368,0.75 9.75,0.75 z"
                     inkscape:connector-curvature="0"
                     style="fill-opacity:0.09019602;marker-start:none;marker-end:none" />
                  <path
                     id="path125468"
                     d="M 11.25,2.25 C 15.804,2.25 19.5,1.914 19.5,1.5 19.5,1.086 15.804,0.75 11.25,0.75 6.696,0.75 3,1.086 3,1.5 3,1.914 6.696,2.25 11.25,2.25 z"
                     inkscape:connector-curvature="0"
                     style="fill-opacity:0.09019602;marker-start:none;marker-end:none" />
                  <path
                     id="path125470"
                     d="m 9.75,2.25 c 3.312,0 6,-0.336 6,-0.75 0,-0.414 -2.688,-0.75 -6,-0.75 -3.312,0 -6,0.336 -6,0.75 0,0.414 2.688,0.75 6,0.75 z"
                     inkscape:connector-curvature="0"
                     style="fill-opacity:0.09019602;marker-start:none;marker-end:none" />
                  <path
                     id="path125472"
                     d="M 8.625,2.25 C 10.488,2.25 12,1.914 12,1.5 12,1.086 10.488,0.75 8.625,0.75 6.762,0.75 5.25,1.086 5.25,1.5 c 0,0.414 1.512,0.75 3.375,0.75 z"
                     inkscape:connector-curvature="0"
                     style="fill-opacity:0.047059;marker-start:none;marker-end:none" />
                </g>
                <g
                   stroke-miterlimit="79.8403193612775"
                   id="Group_5">
                  <path
                     style="fill:url(#LinearGradient_7-74);marker-start:none;marker-end:none"
                     id="path125475"
                     d="m 0.75,2.249 0,92.251 c 0,0.828 2.856,1.5 6.375,1.5 3.519,0 6.375,-0.672 6.375,-1.5 0,-0.002 -10e-4,-0.004 -10e-4,-0.005 l 0,-92.241 C 13.499,2.253 13.5,2.251 13.5,2.25 13.5,1.422 10.644,0.75 7.125,0.75 3.607,0.75 0.752,1.421 0.75,2.249 z"
                     inkscape:connector-curvature="0" />
                  <path
                     style="fill:url(#LinearGradient_8-2);marker-start:none;marker-end:none"
                     id="path125477"
                     d="M 3.204,1.83 C 2.351,1.996 1.843,2.19 1.601,2.326 L 1.5,2.399 l 0,91.949 0.101,0.074 c 0.243,0.135 0.751,0.33 1.603,0.497 1.047,0.204 2.414,0.331 3.921,0.331 1.506,0 2.873,-0.127 3.92,-0.332 0.852,-0.166 1.359,-0.361 1.6,-0.497 l 0.104,-0.075 0,-91.946 -0.103,-0.074 C 12.403,2.19 11.896,1.996 11.044,1.83 9.998,1.626 8.631,1.5 7.125,1.5 5.618,1.5 4.251,1.626 3.204,1.83 z"
                     inkscape:connector-curvature="0" />
                  <path
                     style="fill:url(#LinearGradient_9-7);fill-opacity:0.81960796;marker-start:none;marker-end:none"
                     id="path125479"
                     d="m 4.5,1.523 0,92.952 6,-0.212 0,-92.528 -6,-0.212 z"
                     inkscape:connector-curvature="0" />
                  <path
                     style="fill:url(#LinearGradient_10-7);marker-start:none;marker-end:none"
                     id="path125481"
                     d="m 8.251,85.13 0,-76.511 c 0,-1.032 0.698,-1.87 1.558,-1.87 l 0.633,0 c 0.86,0 1.558,0.838 1.558,1.87 L 12,85.13 C 12,86.162 11.302,87 10.442,87 L 9.809,87 C 8.949,87 8.251,86.162 8.251,85.13 z"
                     inkscape:connector-curvature="0" />
                  <path
                     id="path125483"
                     d="m 9,79.5 3,5.25 C 12.185,87.114 10.097,87.597 9,87 6.947,85.882 6.962,82.5 9,79.5 z"
                     inkscape:connector-curvature="0"
                     style="fill:#ffffff;marker-start:none;marker-end:none" />
                  <path
                     id="path125485"
                     d="m 8.999,84.38 0,-75.011 c 0,-1.032 0.672,-1.87 1.5,-1.87 l 10e-4,0 c 0.828,0 1.5,0.838 1.5,1.87 l 0,75.011 c 0,1.032 -0.672,1.87 -1.5,1.87 l -10e-4,0 c -0.828,0 -1.5,-0.838 -1.5,-1.87 z"
                     inkscape:connector-curvature="0"
                     style="fill:#4c4c4c;marker-start:none;marker-end:none" />
                  <path
                     style="fill:url(#LinearGradient_11-9);marker-start:none;marker-end:none"
                     id="path125487"
                     d="m 5.251,1.567 0,92.932 -3.496,0 C 1.695,94.471 1.644,94.445 1.601,94.422 L 1.5,94.348 1.5,2.399 1.601,2.326 C 1.843,2.19 2.351,1.996 3.204,1.83 3.796,1.714 4.489,1.624 5.251,1.567 z"
                     inkscape:connector-curvature="0" />
                  <path
                     style="fill:url(#LinearGradient_12-31);marker-start:none;marker-end:none"
                     id="path125489"
                     d="M 1.5,3 1.5,2.29 1.601,2.216 C 1.844,2.081 2.352,1.886 3.204,1.719 3.853,1.593 4.626,1.496 5.479,1.441 5.528,1.436 5.58,1.433 5.507,1.439 5.601,1.433 5.696,1.427 5.789,1.424 6.22,1.4 6.667,1.388 7.125,1.388 c 0.456,0 0.902,0.012 1.332,0.036 0.097,0.004 0.192,0.009 0.285,0.015 -0.002,0 -0.004,0 -0.005,0 -0.06,-0.005 -0.036,-0.004 0,0 0.002,0 0.006,0 0.011,0 -0.002,0 -0.004,0 -0.006,0 0.004,10e-4 0.008,10e-4 0.013,10e-4 0.859,0.055 1.636,0.153 2.29,0.28 0.852,0.166 1.359,0.361 1.6,0.497 L 12.749,2.292 12.75,3 C 11.623,2.156 4.502,1.389 1.5,3 z"
                     inkscape:connector-curvature="0" />
                  <path
                     style="fill:url(#LinearGradient_13-9);marker-start:none;marker-end:none"
                     id="path125491"
                     d="m 7.125,95.25 c 3.105,0 5.625,-0.336 5.625,-0.75 0,-0.414 -2.52,-0.75 -5.625,-0.75 -3.105,0 -5.625,0.336 -5.625,0.75 0,0.414 2.52,0.75 5.625,0.75 z"
                     inkscape:connector-curvature="0" />
                  <path
                     id="path125493"
                     d="m 7.612,94.8 c 1.469,0 2.663,-0.504 2.663,-1.125 0,-0.621 -1.194,-1.125 -2.663,-1.125 -1.469,0 -2.663,0.504 -2.663,1.125 0,0.621 1.194,1.125 2.663,1.125 z"
                     inkscape:connector-curvature="0"
                     style="fill:#ffffff;marker-start:none;marker-end:none" />
                  <path
                     id="path125495"
                     d="M 7.5,2.25 C 8.742,2.25 9.75,2.082 9.75,1.875 9.75,1.668 8.742,1.5 7.5,1.5 6.258,1.5 5.25,1.668 5.25,1.875 5.25,2.082 6.258,2.25 7.5,2.25 z"
                     inkscape:connector-curvature="0"
                     style="fill:#ffffff;marker-start:none;marker-end:none" />
                  <path
                     id="path125497"
                     d="m 12.508,94.332 c -0.675,-0.075 -2.909,-0.45 -5.25,-0.45 -2.625,0 -4.65,0.3 -5.775,0.6 0.15,-1.125 3.78,-1.425 5.925,-1.425 2.85,0 5.227,1.289 5.1,1.275 z"
                     inkscape:connector-curvature="0"
                     style="fill:#ffffff;marker-start:none;marker-end:none" />
                </g>
                <path
                   style="fill:url(#LinearGradient_14-8);stroke-width:0.75;marker-start:none;marker-end:none"
                   id="path125499"
                   stroke-miterlimit="79.8403193612775"
                   d="m 9.751,84.75 0,-75.749 76.499,0 0,75.749 -76.499,0 z"
                   inkscape:connector-curvature="0" />
                <path
                   style="fill:url(#LinearGradient_15-6);stroke-width:0.75;marker-start:none;marker-end:none"
                   id="path125501"
                   stroke-miterlimit="79.8403193612775"
                   d="m 10.501,9.751 0,74.249 74.999,0 0,-74.249 -74.999,0 z"
                   inkscape:connector-curvature="0" />
                <path
                   id="path125503"
                   stroke-miterlimit="79.8403193612775"
                   d="m 13.5,9.751 0,3 -2.999,0 0,0.749 2.999,0 0,3.001 -2.999,0 0,0.749 2.999,0 0,3.001 -2.999,0 0,0.749 2.999,0 0,3.001 -2.999,0 0,0.749 2.999,0 0,3.001 -2.999,0 0,0.749 2.999,0 0,3.001 -2.999,0 0,0.749 2.999,0 0,3.001 -2.999,0 0,0.749 2.999,0 0,3.001 -2.999,0 0,0.749 2.999,0 0,3.001 -2.999,0 0,0.749 2.999,0 0,3.001 -2.999,0 0,0.749 2.999,0 0,3.001 -2.999,0 0,0.749 2.999,0 0,3.001 -2.999,0 0,0.749 2.999,0 0,3.001 -2.999,0 0,0.749 2.999,0 0,3.001 -2.999,0 0,0.749 2.999,0 0,3.001 -2.999,0 0,0.749 2.999,0 0,3.001 -2.999,0 0,0.749 2.999,0 0,3.001 -2.999,0 0,0.749 2.999,0 0,3.001 -2.999,0 0,0.749 2.999,0 0,3.001 -2.999,0 0,0.749 2.999,0 0,3 0.749,0 0,-3 3.001,0 0,3 0.749,0 0,-3 3.001,0 0,3 0.749,0 0,-3 3.001,0 0,3 0.749,0 0,-3 3.001,0 0,3 0.749,0 0,-3 3.001,0 0,3 0.749,0 0,-3 3.001,0 0,3 0.749,0 0,-3 3.001,0 0,3 0.749,0 0,-3 3.001,0 0,3 0.749,0 0,-3 3.001,0 0,3 0.749,0 0,-3 3.001,0 0,3 0.749,0 0,-3 3.001,0 0,3 0.749,0 0,-3 3.001,0 0,3 0.749,0 0,-3 3.001,0 0,3 0.749,0 0,-3 3.001,0 0,3 0.749,0 0,-3 3.001,0 0,3 0.749,0 0,-3 3.001,0 0,3 0.749,0 0,-3 3.001,0 0,3 0.749,0 0,-3 3.001,0 0,3 0.749,0 0,-3 3.001,0 0,3 0.749,0 0,-3 0.001,0 0,-0.749 -0.001,0 0,-3.001 0.001,0 0,-0.749 -0.001,0 0,-3.001 0.001,0 0,-0.749 -0.001,0 0,-3.001 0.001,0 0,-0.749 -0.001,0 0,-3.001 0.001,0 0,-0.749 -0.001,0 0,-3.001 0.001,0 0,-0.749 -0.001,0 0,-3.001 0.001,0 0,-0.749 -0.001,0 0,-3.001 0.001,0 0,-0.749 -0.001,0 0,-3.001 0.001,0 0,-0.749 -0.001,0 0,-3.001 0.001,0 0,-0.749 -0.001,0 0,-3.001 0.001,0 0,-0.749 -0.001,0 0,-3.001 0.001,0 0,-0.749 -0.001,0 0,-3.001 0.001,0 0,-0.749 -0.001,0 0,-3.001 0.001,0 0,-0.749 -0.001,0 0,-3.001 0.001,0 0,-0.749 -0.001,0 0,-3.001 0.001,0 0,-0.749 -0.001,0 0,-3.001 0.001,0 0,-0.749 -0.001,0 0,-3.001 0.001,0 0,-0.749 -0.001,0 0,-3.001 0.001,0 0,-0.749 -0.001,0 0,-3 -0.749,0 0,3 -3.001,0 0,-3 -0.749,0 0,3 -3.001,0 0,-3 -0.749,0 0,3 -3.001,0 0,-3 -0.749,0 0,3 -3.001,0 0,-3 -0.749,0 0,3 -3.001,0 0,-3 -0.749,0 0,3 -3.001,0 0,-3 -0.749,0 0,3 -3.001,0 0,-3 -0.749,0 0,3 -3.001,0 0,-3 -0.749,0 0,3 -3.001,0 0,-3 -0.749,0 0,3 -3.001,0 0,-3 -0.749,0 0,3 -3.001,0 0,-3 -0.749,0 0,3 -3.001,0 0,-3 -0.749,0 0,3 -3.001,0 0,-3 -0.749,0 0,3 -3.001,0 0,-3 -0.749,0 0,3 -3.001,0 0,-3 -0.749,0 0,3 -3.001,0 0,-3 -0.749,0 0,3 -3.001,0 0,-3 -0.749,0 0,3 -3.001,0 0,-3 -0.749,0 0,3 -3.001,0 0,-3 -0.749,0 z m 3.75,3.749 0,3.001 -3.001,0 0,-3.001 3.001,0 z m 3.75,0 0,3.001 -3.001,0 0,-3.001 3.001,0 z m 3.75,0 0,3.001 -3.001,0 0,-3.001 3.001,0 z m 3.75,0 0,3.001 -3.001,0 0,-3.001 3.001,0 z m 3.75,0 0,3.001 -3.001,0 0,-3.001 3.001,0 z m 3.75,0 0,3.001 -3.001,0 0,-3.001 3.001,0 z m 3.75,0 0,3.001 -3.001,0 0,-3.001 3.001,0 z m 3.75,0 0,3.001 -3.001,0 0,-3.001 3.001,0 z m 3.75,0 0,3.001 -3.001,0 0,-3.001 3.001,0 z m 3.75,0 0,3.001 -3.001,0 0,-3.001 3.001,0 z m 3.75,0 0,3.001 -3.001,0 0,-3.001 3.001,0 z m 3.75,0 0,3.001 -3.001,0 0,-3.001 3.001,0 z m 3.75,0 0,3.001 -3.001,0 0,-3.001 3.001,0 z m 3.75,0 0,3.001 -3.001,0 0,-3.001 3.001,0 z m 3.75,0 0,3.001 -3.001,0 0,-3.001 3.001,0 z m 3.75,0 0,3.001 -3.001,0 0,-3.001 3.001,0 z m 3.75,0 0,3.001 -3.001,0 0,-3.001 3.001,0 z m 3.75,0 0,3.001 -3.001,0 0,-3.001 3.001,0 z m 3.75,0 0,3.001 -3.001,0 0,-3.001 3.001,0 z m -67.5,3.75 0,3.001 -3.001,0 0,-3.001 3.001,0 z m 3.75,0 0,3.001 -3.001,0 0,-3.001 3.001,0 z m 3.75,0 0,3.001 -3.001,0 0,-3.001 3.001,0 z m 3.75,0 0,3.001 -3.001,0 0,-3.001 3.001,0 z m 3.75,0 0,3.001 -3.001,0 0,-3.001 3.001,0 z m 3.75,0 0,3.001 -3.001,0 0,-3.001 3.001,0 z m 3.75,0 0,3.001 -3.001,0 0,-3.001 3.001,0 z m 3.75,0 0,3.001 -3.001,0 0,-3.001 3.001,0 z m 3.75,0 0,3.001 -3.001,0 0,-3.001 3.001,0 z m 3.75,0 0,3.001 -3.001,0 0,-3.001 3.001,0 z m 3.75,0 0,3.001 -3.001,0 0,-3.001 3.001,0 z m 3.75,0 0,3.001 -3.001,0 0,-3.001 3.001,0 z m 3.75,0 0,3.001 -3.001,0 0,-3.001 3.001,0 z m 3.75,0 0,3.001 -3.001,0 0,-3.001 3.001,0 z m 3.75,0 0,3.001 -3.001,0 0,-3.001 3.001,0 z m 3.75,0 0,3.001 -3.001,0 0,-3.001 3.001,0 z m 3.75,0 0,3.001 -3.001,0 0,-3.001 3.001,0 z m 3.75,0 0,3.001 -3.001,0 0,-3.001 3.001,0 z m 3.75,0 0,3.001 -3.001,0 0,-3.001 3.001,0 z m -67.5,3.75 0,3.001 -3.001,0 0,-3.001 3.001,0 z m 3.75,0 0,3.001 -3.001,0 0,-3.001 3.001,0 z m 3.75,0 0,3.001 -3.001,0 0,-3.001 3.001,0 z m 3.75,0 0,3.001 -3.001,0 0,-3.001 3.001,0 z m 3.75,0 0,3.001 -3.001,0 0,-3.001 3.001,0 z m 3.75,0 0,3.001 -3.001,0 0,-3.001 3.001,0 z m 3.75,0 0,3.001 -3.001,0 0,-3.001 3.001,0 z m 3.75,0 0,3.001 -3.001,0 0,-3.001 3.001,0 z m 3.75,0 0,3.001 -3.001,0 0,-3.001 3.001,0 z m 3.75,0 0,3.001 -3.001,0 0,-3.001 3.001,0 z m 3.75,0 0,3.001 -3.001,0 0,-3.001 3.001,0 z m 3.75,0 0,3.001 -3.001,0 0,-3.001 3.001,0 z m 3.75,0 0,3.001 -3.001,0 0,-3.001 3.001,0 z m 3.75,0 0,3.001 -3.001,0 0,-3.001 3.001,0 z m 3.75,0 0,3.001 -3.001,0 0,-3.001 3.001,0 z m 3.75,0 0,3.001 -3.001,0 0,-3.001 3.001,0 z m 3.75,0 0,3.001 -3.001,0 0,-3.001 3.001,0 z m 3.75,0 0,3.001 -3.001,0 0,-3.001 3.001,0 z m 3.75,0 0,3.001 -3.001,0 0,-3.001 3.001,0 z m -67.5,3.75 0,3.001 -3.001,0 0,-3.001 3.001,0 z m 3.75,0 0,3.001 -3.001,0 0,-3.001 3.001,0 z m 3.75,0 0,3.001 -3.001,0 0,-3.001 3.001,0 z m 3.75,0 0,3.001 -3.001,0 0,-3.001 3.001,0 z m 3.75,0 0,3.001 -3.001,0 0,-3.001 3.001,0 z m 3.75,0 0,3.001 -3.001,0 0,-3.001 3.001,0 z m 3.75,0 0,3.001 -3.001,0 0,-3.001 3.001,0 z m 3.75,0 0,3.001 -3.001,0 0,-3.001 3.001,0 z m 3.75,0 0,3.001 -3.001,0 0,-3.001 3.001,0 z m 3.75,0 0,3.001 -3.001,0 0,-3.001 3.001,0 z m 3.75,0 0,3.001 -3.001,0 0,-3.001 3.001,0 z m 3.75,0 0,3.001 -3.001,0 0,-3.001 3.001,0 z m 3.75,0 0,3.001 -3.001,0 0,-3.001 3.001,0 z m 3.75,0 0,3.001 -3.001,0 0,-3.001 3.001,0 z m 3.75,0 0,3.001 -3.001,0 0,-3.001 3.001,0 z m 3.75,0 0,3.001 -3.001,0 0,-3.001 3.001,0 z m 3.75,0 0,3.001 -3.001,0 0,-3.001 3.001,0 z m 3.75,0 0,3.001 -3.001,0 0,-3.001 3.001,0 z m 3.75,0 0,3.001 -3.001,0 0,-3.001 3.001,0 z m -67.5,3.75 0,3.001 -3.001,0 0,-3.001 3.001,0 z m 3.75,0 0,3.001 -3.001,0 0,-3.001 3.001,0 z m 3.75,0 0,3.001 -3.001,0 0,-3.001 3.001,0 z m 3.75,0 0,3.001 -3.001,0 0,-3.001 3.001,0 z m 3.75,0 0,3.001 -3.001,0 0,-3.001 3.001,0 z m 3.75,0 0,3.001 -3.001,0 0,-3.001 3.001,0 z m 3.75,0 0,3.001 -3.001,0 0,-3.001 3.001,0 z m 3.75,0 0,3.001 -3.001,0 0,-3.001 3.001,0 z m 3.75,0 0,3.001 -3.001,0 0,-3.001 3.001,0 z m 3.75,0 0,3.001 -3.001,0 0,-3.001 3.001,0 z m 3.75,0 0,3.001 -3.001,0 0,-3.001 3.001,0 z m 3.75,0 0,3.001 -3.001,0 0,-3.001 3.001,0 z m 3.75,0 0,3.001 -3.001,0 0,-3.001 3.001,0 z m 3.75,0 0,3.001 -3.001,0 0,-3.001 3.001,0 z m 3.75,0 0,3.001 -3.001,0 0,-3.001 3.001,0 z m 3.75,0 0,3.001 -3.001,0 0,-3.001 3.001,0 z m 3.75,0 0,3.001 -3.001,0 0,-3.001 3.001,0 z m 3.75,0 0,3.001 -3.001,0 0,-3.001 3.001,0 z m 3.75,0 0,3.001 -3.001,0 0,-3.001 3.001,0 z m -67.5,3.75 0,3.001 -3.001,0 0,-3.001 3.001,0 z m 3.75,0 0,3.001 -3.001,0 0,-3.001 3.001,0 z m 3.75,0 0,3.001 -3.001,0 0,-3.001 3.001,0 z m 3.75,0 0,3.001 -3.001,0 0,-3.001 3.001,0 z m 3.75,0 0,3.001 -3.001,0 0,-3.001 3.001,0 z m 3.75,0 0,3.001 -3.001,0 0,-3.001 3.001,0 z m 3.75,0 0,3.001 -3.001,0 0,-3.001 3.001,0 z m 3.75,0 0,3.001 -3.001,0 0,-3.001 3.001,0 z m 3.75,0 0,3.001 -3.001,0 0,-3.001 3.001,0 z m 3.75,0 0,3.001 -3.001,0 0,-3.001 3.001,0 z m 3.75,0 0,3.001 -3.001,0 0,-3.001 3.001,0 z m 3.75,0 0,3.001 -3.001,0 0,-3.001 3.001,0 z m 3.75,0 0,3.001 -3.001,0 0,-3.001 3.001,0 z m 3.75,0 0,3.001 -3.001,0 0,-3.001 3.001,0 z m 3.75,0 0,3.001 -3.001,0 0,-3.001 3.001,0 z m 3.75,0 0,3.001 -3.001,0 0,-3.001 3.001,0 z m 3.75,0 0,3.001 -3.001,0 0,-3.001 3.001,0 z m 3.75,0 0,3.001 -3.001,0 0,-3.001 3.001,0 z m 3.75,0 0,3.001 -3.001,0 0,-3.001 3.001,0 z m -67.5,3.75 0,3.001 -3.001,0 0,-3.001 3.001,0 z m 3.75,0 0,3.001 -3.001,0 0,-3.001 3.001,0 z m 3.75,0 0,3.001 -3.001,0 0,-3.001 3.001,0 z m 3.75,0 0,3.001 -3.001,0 0,-3.001 3.001,0 z m 3.75,0 0,3.001 -3.001,0 0,-3.001 3.001,0 z m 3.75,0 0,3.001 -3.001,0 0,-3.001 3.001,0 z m 3.75,0 0,3.001 -3.001,0 0,-3.001 3.001,0 z m 3.75,0 0,3.001 -3.001,0 0,-3.001 3.001,0 z m 3.75,0 0,3.001 -3.001,0 0,-3.001 3.001,0 z m 3.75,0 0,3.001 -3.001,0 0,-3.001 3.001,0 z m 3.75,0 0,3.001 -3.001,0 0,-3.001 3.001,0 z m 3.75,0 0,3.001 -3.001,0 0,-3.001 3.001,0 z m 3.75,0 0,3.001 -3.001,0 0,-3.001 3.001,0 z m 3.75,0 0,3.001 -3.001,0 0,-3.001 3.001,0 z m 3.75,0 0,3.001 -3.001,0 0,-3.001 3.001,0 z m 3.75,0 0,3.001 -3.001,0 0,-3.001 3.001,0 z m 3.75,0 0,3.001 -3.001,0 0,-3.001 3.001,0 z m 3.75,0 0,3.001 -3.001,0 0,-3.001 3.001,0 z m 3.75,0 0,3.001 -3.001,0 0,-3.001 3.001,0 z m -67.5,3.75 0,3.001 -3.001,0 0,-3.001 3.001,0 z m 3.75,0 0,3.001 -3.001,0 0,-3.001 3.001,0 z m 3.75,0 0,3.001 -3.001,0 0,-3.001 3.001,0 z m 3.75,0 0,3.001 -3.001,0 0,-3.001 3.001,0 z m 3.75,0 0,3.001 -3.001,0 0,-3.001 3.001,0 z m 3.75,0 0,3.001 -3.001,0 0,-3.001 3.001,0 z m 3.75,0 0,3.001 -3.001,0 0,-3.001 3.001,0 z m 3.75,0 0,3.001 -3.001,0 0,-3.001 3.001,0 z m 3.75,0 0,3.001 -3.001,0 0,-3.001 3.001,0 z m 3.75,0 0,3.001 -3.001,0 0,-3.001 3.001,0 z m 3.75,0 0,3.001 -3.001,0 0,-3.001 3.001,0 z m 3.75,0 0,3.001 -3.001,0 0,-3.001 3.001,0 z m 3.75,0 0,3.001 -3.001,0 0,-3.001 3.001,0 z m 3.75,0 0,3.001 -3.001,0 0,-3.001 3.001,0 z m 3.75,0 0,3.001 -3.001,0 0,-3.001 3.001,0 z m 3.75,0 0,3.001 -3.001,0 0,-3.001 3.001,0 z m 3.75,0 0,3.001 -3.001,0 0,-3.001 3.001,0 z m 3.75,0 0,3.001 -3.001,0 0,-3.001 3.001,0 z m 3.75,0 0,3.001 -3.001,0 0,-3.001 3.001,0 z m -67.5,3.75 0,3.001 -3.001,0 0,-3.001 3.001,0 z m 3.75,0 0,3.001 -3.001,0 0,-3.001 3.001,0 z m 3.75,0 0,3.001 -3.001,0 0,-3.001 3.001,0 z m 3.75,0 0,3.001 -3.001,0 0,-3.001 3.001,0 z m 3.75,0 0,3.001 -3.001,0 0,-3.001 3.001,0 z m 3.75,0 0,3.001 -3.001,0 0,-3.001 3.001,0 z m 3.75,0 0,3.001 -3.001,0 0,-3.001 3.001,0 z m 3.75,0 0,3.001 -3.001,0 0,-3.001 3.001,0 z m 3.75,0 0,3.001 -3.001,0 0,-3.001 3.001,0 z m 3.75,0 0,3.001 -3.001,0 0,-3.001 3.001,0 z m 3.75,0 0,3.001 -3.001,0 0,-3.001 3.001,0 z m 3.75,0 0,3.001 -3.001,0 0,-3.001 3.001,0 z m 3.75,0 0,3.001 -3.001,0 0,-3.001 3.001,0 z m 3.75,0 0,3.001 -3.001,0 0,-3.001 3.001,0 z m 3.75,0 0,3.001 -3.001,0 0,-3.001 3.001,0 z m 3.75,0 0,3.001 -3.001,0 0,-3.001 3.001,0 z m 3.75,0 0,3.001 -3.001,0 0,-3.001 3.001,0 z m 3.75,0 0,3.001 -3.001,0 0,-3.001 3.001,0 z m 3.75,0 0,3.001 -3.001,0 0,-3.001 3.001,0 z m -67.5,3.75 0,3.001 -3.001,0 0,-3.001 3.001,0 z m 3.75,0 0,3.001 -3.001,0 0,-3.001 3.001,0 z m 3.75,0 0,3.001 -3.001,0 0,-3.001 3.001,0 z m 3.75,0 0,3.001 -3.001,0 0,-3.001 3.001,0 z m 3.75,0 0,3.001 -3.001,0 0,-3.001 3.001,0 z m 3.75,0 0,3.001 -3.001,0 0,-3.001 3.001,0 z m 3.75,0 0,3.001 -3.001,0 0,-3.001 3.001,0 z m 3.75,0 0,3.001 -3.001,0 0,-3.001 3.001,0 z m 3.75,0 0,3.001 -3.001,0 0,-3.001 3.001,0 z m 3.75,0 0,3.001 -3.001,0 0,-3.001 3.001,0 z m 3.75,0 0,3.001 -3.001,0 0,-3.001 3.001,0 z m 3.75,0 0,3.001 -3.001,0 0,-3.001 3.001,0 z m 3.75,0 0,3.001 -3.001,0 0,-3.001 3.001,0 z m 3.75,0 0,3.001 -3.001,0 0,-3.001 3.001,0 z m 3.75,0 0,3.001 -3.001,0 0,-3.001 3.001,0 z m 3.75,0 0,3.001 -3.001,0 0,-3.001 3.001,0 z m 3.75,0 0,3.001 -3.001,0 0,-3.001 3.001,0 z m 3.75,0 0,3.001 -3.001,0 0,-3.001 3.001,0 z m 3.75,0 0,3.001 -3.001,0 0,-3.001 3.001,0 z m -67.5,3.75 0,3.001 -3.001,0 0,-3.001 3.001,0 z m 3.75,0 0,3.001 -3.001,0 0,-3.001 3.001,0 z m 3.75,0 0,3.001 -3.001,0 0,-3.001 3.001,0 z m 3.75,0 0,3.001 -3.001,0 0,-3.001 3.001,0 z m 3.75,0 0,3.001 -3.001,0 0,-3.001 3.001,0 z m 3.75,0 0,3.001 -3.001,0 0,-3.001 3.001,0 z m 3.75,0 0,3.001 -3.001,0 0,-3.001 3.001,0 z m 3.75,0 0,3.001 -3.001,0 0,-3.001 3.001,0 z m 3.75,0 0,3.001 -3.001,0 0,-3.001 3.001,0 z m 3.75,0 0,3.001 -3.001,0 0,-3.001 3.001,0 z m 3.75,0 0,3.001 -3.001,0 0,-3.001 3.001,0 z m 3.75,0 0,3.001 -3.001,0 0,-3.001 3.001,0 z m 3.75,0 0,3.001 -3.001,0 0,-3.001 3.001,0 z m 3.75,0 0,3.001 -3.001,0 0,-3.001 3.001,0 z m 3.75,0 0,3.001 -3.001,0 0,-3.001 3.001,0 z m 3.75,0 0,3.001 -3.001,0 0,-3.001 3.001,0 z m 3.75,0 0,3.001 -3.001,0 0,-3.001 3.001,0 z m 3.75,0 0,3.001 -3.001,0 0,-3.001 3.001,0 z m 3.75,0 0,3.001 -3.001,0 0,-3.001 3.001,0 z m -67.5,3.75 0,3.001 -3.001,0 0,-3.001 3.001,0 z m 3.75,0 0,3.001 -3.001,0 0,-3.001 3.001,0 z m 3.75,0 0,3.001 -3.001,0 0,-3.001 3.001,0 z m 3.75,0 0,3.001 -3.001,0 0,-3.001 3.001,0 z m 3.75,0 0,3.001 -3.001,0 0,-3.001 3.001,0 z m 3.75,0 0,3.001 -3.001,0 0,-3.001 3.001,0 z m 3.75,0 0,3.001 -3.001,0 0,-3.001 3.001,0 z m 3.75,0 0,3.001 -3.001,0 0,-3.001 3.001,0 z m 3.75,0 0,3.001 -3.001,0 0,-3.001 3.001,0 z m 3.75,0 0,3.001 -3.001,0 0,-3.001 3.001,0 z m 3.75,0 0,3.001 -3.001,0 0,-3.001 3.001,0 z m 3.75,0 0,3.001 -3.001,0 0,-3.001 3.001,0 z m 3.75,0 0,3.001 -3.001,0 0,-3.001 3.001,0 z m 3.75,0 0,3.001 -3.001,0 0,-3.001 3.001,0 z m 3.75,0 0,3.001 -3.001,0 0,-3.001 3.001,0 z m 3.75,0 0,3.001 -3.001,0 0,-3.001 3.001,0 z m 3.75,0 0,3.001 -3.001,0 0,-3.001 3.001,0 z m 3.75,0 0,3.001 -3.001,0 0,-3.001 3.001,0 z m 3.75,0 0,3.001 -3.001,0 0,-3.001 3.001,0 z m -67.5,3.75 0,3.001 -3.001,0 0,-3.001 3.001,0 z m 3.75,0 0,3.001 -3.001,0 0,-3.001 3.001,0 z m 3.75,0 0,3.001 -3.001,0 0,-3.001 3.001,0 z m 3.75,0 0,3.001 -3.001,0 0,-3.001 3.001,0 z m 3.75,0 0,3.001 -3.001,0 0,-3.001 3.001,0 z m 3.75,0 0,3.001 -3.001,0 0,-3.001 3.001,0 z m 3.75,0 0,3.001 -3.001,0 0,-3.001 3.001,0 z m 3.75,0 0,3.001 -3.001,0 0,-3.001 3.001,0 z m 3.75,0 0,3.001 -3.001,0 0,-3.001 3.001,0 z m 3.75,0 0,3.001 -3.001,0 0,-3.001 3.001,0 z m 3.75,0 0,3.001 -3.001,0 0,-3.001 3.001,0 z m 3.75,0 0,3.001 -3.001,0 0,-3.001 3.001,0 z m 3.75,0 0,3.001 -3.001,0 0,-3.001 3.001,0 z m 3.75,0 0,3.001 -3.001,0 0,-3.001 3.001,0 z m 3.75,0 0,3.001 -3.001,0 0,-3.001 3.001,0 z m 3.75,0 0,3.001 -3.001,0 0,-3.001 3.001,0 z m 3.75,0 0,3.001 -3.001,0 0,-3.001 3.001,0 z m 3.75,0 0,3.001 -3.001,0 0,-3.001 3.001,0 z m 3.75,0 0,3.001 -3.001,0 0,-3.001 3.001,0 z m -67.5,3.75 0,3.001 -3.001,0 0,-3.001 3.001,0 z m 3.75,0 0,3.001 -3.001,0 0,-3.001 3.001,0 z m 3.75,0 0,3.001 -3.001,0 0,-3.001 3.001,0 z m 3.75,0 0,3.001 -3.001,0 0,-3.001 3.001,0 z m 3.75,0 0,3.001 -3.001,0 0,-3.001 3.001,0 z m 3.75,0 0,3.001 -3.001,0 0,-3.001 3.001,0 z m 3.75,0 0,3.001 -3.001,0 0,-3.001 3.001,0 z m 3.75,0 0,3.001 -3.001,0 0,-3.001 3.001,0 z m 3.75,0 0,3.001 -3.001,0 0,-3.001 3.001,0 z m 3.75,0 0,3.001 -3.001,0 0,-3.001 3.001,0 z m 3.75,0 0,3.001 -3.001,0 0,-3.001 3.001,0 z m 3.75,0 0,3.001 -3.001,0 0,-3.001 3.001,0 z m 3.75,0 0,3.001 -3.001,0 0,-3.001 3.001,0 z m 3.75,0 0,3.001 -3.001,0 0,-3.001 3.001,0 z m 3.75,0 0,3.001 -3.001,0 0,-3.001 3.001,0 z m 3.75,0 0,3.001 -3.001,0 0,-3.001 3.001,0 z m 3.75,0 0,3.001 -3.001,0 0,-3.001 3.001,0 z m 3.75,0 0,3.001 -3.001,0 0,-3.001 3.001,0 z m 3.75,0 0,3.001 -3.001,0 0,-3.001 3.001,0 z m -67.5,3.75 0,3.001 -3.001,0 0,-3.001 3.001,0 z m 3.75,0 0,3.001 -3.001,0 0,-3.001 3.001,0 z m 3.75,0 0,3.001 -3.001,0 0,-3.001 3.001,0 z m 3.75,0 0,3.001 -3.001,0 0,-3.001 3.001,0 z m 3.75,0 0,3.001 -3.001,0 0,-3.001 3.001,0 z m 3.75,0 0,3.001 -3.001,0 0,-3.001 3.001,0 z m 3.75,0 0,3.001 -3.001,0 0,-3.001 3.001,0 z m 3.75,0 0,3.001 -3.001,0 0,-3.001 3.001,0 z m 3.75,0 0,3.001 -3.001,0 0,-3.001 3.001,0 z m 3.75,0 0,3.001 -3.001,0 0,-3.001 3.001,0 z m 3.75,0 0,3.001 -3.001,0 0,-3.001 3.001,0 z m 3.75,0 0,3.001 -3.001,0 0,-3.001 3.001,0 z m 3.75,0 0,3.001 -3.001,0 0,-3.001 3.001,0 z m 3.75,0 0,3.001 -3.001,0 0,-3.001 3.001,0 z m 3.75,0 0,3.001 -3.001,0 0,-3.001 3.001,0 z m 3.75,0 0,3.001 -3.001,0 0,-3.001 3.001,0 z m 3.75,0 0,3.001 -3.001,0 0,-3.001 3.001,0 z m 3.75,0 0,3.001 -3.001,0 0,-3.001 3.001,0 z m 3.75,0 0,3.001 -3.001,0 0,-3.001 3.001,0 z m -67.5,3.75 0,3.001 -3.001,0 0,-3.001 3.001,0 z m 3.75,0 0,3.001 -3.001,0 0,-3.001 3.001,0 z m 3.75,0 0,3.001 -3.001,0 0,-3.001 3.001,0 z m 3.75,0 0,3.001 -3.001,0 0,-3.001 3.001,0 z m 3.75,0 0,3.001 -3.001,0 0,-3.001 3.001,0 z m 3.75,0 0,3.001 -3.001,0 0,-3.001 3.001,0 z m 3.75,0 0,3.001 -3.001,0 0,-3.001 3.001,0 z m 3.75,0 0,3.001 -3.001,0 0,-3.001 3.001,0 z m 3.75,0 0,3.001 -3.001,0 0,-3.001 3.001,0 z m 3.75,0 0,3.001 -3.001,0 0,-3.001 3.001,0 z m 3.75,0 0,3.001 -3.001,0 0,-3.001 3.001,0 z m 3.75,0 0,3.001 -3.001,0 0,-3.001 3.001,0 z m 3.75,0 0,3.001 -3.001,0 0,-3.001 3.001,0 z m 3.75,0 0,3.001 -3.001,0 0,-3.001 3.001,0 z m 3.75,0 0,3.001 -3.001,0 0,-3.001 3.001,0 z m 3.75,0 0,3.001 -3.001,0 0,-3.001 3.001,0 z m 3.75,0 0,3.001 -3.001,0 0,-3.001 3.001,0 z m 3.75,0 0,3.001 -3.001,0 0,-3.001 3.001,0 z m 3.75,0 0,3.001 -3.001,0 0,-3.001 3.001,0 z m -67.5,3.75 0,3.001 -3.001,0 0,-3.001 3.001,0 z m 3.75,0 0,3.001 -3.001,0 0,-3.001 3.001,0 z m 3.75,0 0,3.001 -3.001,0 0,-3.001 3.001,0 z m 3.75,0 0,3.001 -3.001,0 0,-3.001 3.001,0 z m 3.75,0 0,3.001 -3.001,0 0,-3.001 3.001,0 z m 3.75,0 0,3.001 -3.001,0 0,-3.001 3.001,0 z m 3.75,0 0,3.001 -3.001,0 0,-3.001 3.001,0 z m 3.75,0 0,3.001 -3.001,0 0,-3.001 3.001,0 z m 3.75,0 0,3.001 -3.001,0 0,-3.001 3.001,0 z m 3.75,0 0,3.001 -3.001,0 0,-3.001 3.001,0 z m 3.75,0 0,3.001 -3.001,0 0,-3.001 3.001,0 z m 3.75,0 0,3.001 -3.001,0 0,-3.001 3.001,0 z m 3.75,0 0,3.001 -3.001,0 0,-3.001 3.001,0 z m 3.75,0 0,3.001 -3.001,0 0,-3.001 3.001,0 z m 3.75,0 0,3.001 -3.001,0 0,-3.001 3.001,0 z m 3.75,0 0,3.001 -3.001,0 0,-3.001 3.001,0 z m 3.75,0 0,3.001 -3.001,0 0,-3.001 3.001,0 z m 3.75,0 0,3.001 -3.001,0 0,-3.001 3.001,0 z m 3.75,0 0,3.001 -3.001,0 0,-3.001 3.001,0 z m -67.5,3.75 0,3.001 -3.001,0 0,-3.001 3.001,0 z m 3.75,0 0,3.001 -3.001,0 0,-3.001 3.001,0 z m 3.75,0 0,3.001 -3.001,0 0,-3.001 3.001,0 z m 3.75,0 0,3.001 -3.001,0 0,-3.001 3.001,0 z m 3.75,0 0,3.001 -3.001,0 0,-3.001 3.001,0 z m 3.75,0 0,3.001 -3.001,0 0,-3.001 3.001,0 z m 3.75,0 0,3.001 -3.001,0 0,-3.001 3.001,0 z m 3.75,0 0,3.001 -3.001,0 0,-3.001 3.001,0 z m 3.75,0 0,3.001 -3.001,0 0,-3.001 3.001,0 z m 3.75,0 0,3.001 -3.001,0 0,-3.001 3.001,0 z m 3.75,0 0,3.001 -3.001,0 0,-3.001 3.001,0 z m 3.75,0 0,3.001 -3.001,0 0,-3.001 3.001,0 z m 3.75,0 0,3.001 -3.001,0 0,-3.001 3.001,0 z m 3.75,0 0,3.001 -3.001,0 0,-3.001 3.001,0 z m 3.75,0 0,3.001 -3.001,0 0,-3.001 3.001,0 z m 3.75,0 0,3.001 -3.001,0 0,-3.001 3.001,0 z m 3.75,0 0,3.001 -3.001,0 0,-3.001 3.001,0 z m 3.75,0 0,3.001 -3.001,0 0,-3.001 3.001,0 z m 3.75,0 0,3.001 -3.001,0 0,-3.001 3.001,0 z"
                   inkscape:connector-curvature="0"
                   style="fill:#ffffff;fill-opacity:0.164706;stroke-width:1.23300004;marker-start:none;marker-end:none" />
                <path
                   id="path125505"
                   stroke-miterlimit="79.8403193612775"
                   d="m 10.5,83.999 0,-0.749 74.999,0 0,0.749 -74.999,0 z"
                   inkscape:connector-curvature="0"
                   style="fill:#ffebd7;stroke-width:1.23300004;marker-start:none;marker-end:none" />
                <path
                   style="fill:url(#LinearGradient_16-5);stroke-width:1.23300004;marker-start:none;marker-end:none"
                   id="path125507"
                   stroke-miterlimit="79.8403193612775"
                   d="M 47.625,84 C 60.666,84 71.25,83.664 71.25,83.25 71.25,82.836 60.666,82.5 47.625,82.5 34.584,82.5 24,82.836 24,83.25 24,83.664 34.584,84 47.625,84 z"
                   inkscape:connector-curvature="0" />
                <path
                   id="path125509"
                   stroke-miterlimit="79.8403193612775"
                   d="m 10.501,10.5 0,-0.749 74.999,0 0,0.749 -74.999,0 z"
                   inkscape:connector-curvature="0"
                   style="fill:#f99b64;stroke-width:1.23300004;marker-start:none;marker-end:none" />
                <g
                   stroke-miterlimit="79.8403193612775"
                   id="Group_6"
                   style="fill:#000000">
                  <path
                     id="path125512"
                     d="m 13.498,84.749 0,-75.749 -3.749,0 0,75.749 3.749,0 z"
                     inkscape:connector-curvature="0"
                     style="fill-opacity:0.09019602;marker-start:none;marker-end:none" />
                  <path
                     id="path125514"
                     d="m 11.998,84.749 0,-75.749 -2.249,0 0,75.749 2.249,0 z"
                     inkscape:connector-curvature="0"
                     style="fill-opacity:0.14509798;marker-start:none;marker-end:none" />
                </g>
                <g
                   stroke-miterlimit="79.8403193612775"
                   id="Group_7"
                   style="fill:#000000">
                  <path
                     id="path125517"
                     d="M 82.5,84.749 82.5,9 l 3.749,0 0,75.749 -3.749,0 z"
                     inkscape:connector-curvature="0"
                     style="fill-opacity:0.09019602;marker-start:none;marker-end:none" />
                  <path
                     id="path125519"
                     d="M 84,84.749 84,9 l 2.249,0 0,75.749 -2.249,0 z"
                     inkscape:connector-curvature="0"
                     style="fill-opacity:0.14509798;marker-start:none;marker-end:none" />
                </g>
                <path
                   id="path125521"
                   stroke-miterlimit="79.8403193612775"
                   d="M 10.5,45.179 10.501,84 85.5,84 85.5,45.179 C 74.605,42.688 61.756,41.25 48,41.25 c -13.757,0 -26.606,1.438 -37.5,3.929 z"
                   inkscape:connector-curvature="0"
                   style="fill:#ffffff;fill-opacity:0.09803898;stroke-width:0.75;marker-start:none;marker-end:none" />
              </g>
              <g
                 stroke-miterlimit="79.8403193612775"
                 id="Group_8">
                <path
                   id="path125524"
                   d="m 36.75,21.75 c -7.774,0.598 -13.5,5.25 -15,12.75 0.212,-1.071 6.012,-5.236 9.75,-6 5.381,-1.1 11.26,0.285 16.298,2.433 8.098,3.454 17.452,2.817 21.975,-3.919 C 69.447,27.149 63.75,28.5 59.25,27.75 50.319,26.262 46.5,21 36.75,21.75 z M 24,38.193 c 10.5,3.75 10.289,8.306 12.75,14.25 2.14,5.167 6,12 15,11.25 L 62.25,53.25 c 1.5,-9 -9,-17.307 -20.25,-18.057 -4.837,-0.322 -12.75,0 -18,3 z M 54,57.75 50.25,61.5 C 40.5,58.5 39.75,51.75 37.5,46.5 39.75,47.25 45,57.75 54,57.75 z m 9.91,-2.904 -10.499,10.503 c -1.192,1.192 -1.219,3.121 -0.052,4.288 l 0.004,0 c 1.164,1.172 3.096,1.144 4.297,-0.048 L 68.15,59.086 c 1.2,-1.2 1.232,-3.12 0.052,-4.288 l 0.008,-0.004 c -1.171,-1.172 -3.1,-1.148 -4.3,0.052 z"
                   inkscape:connector-curvature="0"
                   style="fill:#d46b33;marker-start:none;marker-end:none" />
                <path
                   style="fill:url(#LinearGradient_17-0);marker-start:none;marker-end:none"
                   id="path125526"
                   d="m 36.75,23.25 c -7.774,0.598 -13.5,5.25 -15,12.75 0.212,-1.071 6.012,-5.236 9.75,-6 5.381,-1.1 11.26,0.285 16.298,2.433 8.098,3.454 17.452,2.817 21.975,-3.919 C 69.447,28.649 63.75,30 59.25,29.25 50.319,27.762 46.5,22.5 36.75,23.25 z M 24,39.693 c 10.5,3.75 10.289,8.306 12.75,14.25 2.14,5.167 6,12 15,11.25 L 62.25,54.75 c 1.5,-9 -9,-17.307 -20.25,-18.057 -4.837,-0.322 -12.75,0 -18,3 z M 54,59.25 50.25,63 C 40.5,60 39.75,53.25 37.5,48 39.75,48.75 45,59.25 54,59.25 z m 9.91,-2.904 -10.499,10.503 c -1.192,1.192 -1.219,3.121 -0.052,4.288 l 0.004,0 c 1.164,1.172 3.096,1.144 4.297,-0.048 L 68.15,60.586 c 1.2,-1.2 1.232,-3.12 0.052,-4.288 l 0.008,-0.004 c -1.171,-1.172 -3.1,-1.148 -4.3,0.052 z"
                   inkscape:connector-curvature="0" />
              </g>
            </g>
          </g>
        </g>
      </g>
    </g>
  </g>
</svg>
