<?xml version="1.0" encoding="UTF-8"?>
<!DOCTYPE svg PUBLIC "-//W3C//DTD SVG 1.1//EN" "http://www.w3.org/Graphics/SVG/1.1/DTD/svg11.dtd">
<!-- Creator: CorelDRAW -->
<svg xmlns="http://www.w3.org/2000/svg" xml:space="preserve" width="128px" height="128px" style="shape-rendering:geometricPrecision; text-rendering:geometricPrecision; image-rendering:optimizeQuality; fill-rule:evenodd; clip-rule:evenodd"
viewBox="0 0 128 128"
 xmlns:xlink="http://www.w3.org/1999/xlink">
 <defs>
  <style type="text/css">
   <![CDATA[
    .fil42 {fill:#999999}
    .fil54 {fill:#B2B2B2}
    .fil17 {fill:#E5E5E5}
    .fil53 {fill:white}
    .fil43 {fill:#8A8787}
    .fil15 {fill:#8C8C8C}
    .fil19 {fill:#D67FF2}
    .fil18 {fill:#8C8C8C;fill-rule:nonzero}
    .fil40 {fill:#9756AD;fill-rule:nonzero}
    .fil30 {fill:#EBB0FF;fill-rule:nonzero}
    .fil70 {fill:#EFEFEF;fill-rule:nonzero}
    .fil29 {fill:#FFD6F9;fill-rule:nonzero}
    .fil0 {fill:black;fill-opacity:0.000000}
    .fil32 {fill:#713E82;fill-opacity:0.000000}
    .fil55 {fill:#BE82E6;fill-opacity:0.000000}
    .fil1 {fill:black;fill-opacity:0.007843}
    .fil2 {fill:black;fill-opacity:0.011765}
    .fil3 {fill:black;fill-opacity:0.019608}
    .fil44 {fill:white;fill-opacity:0.023529}
    .fil4 {fill:black;fill-opacity:0.023529}
    .fil5 {fill:black;fill-opacity:0.031373}
    .fil33 {fill:#713E82;fill-opacity:0.031373}
    .fil6 {fill:black;fill-opacity:0.035294}
    .fil7 {fill:black;fill-opacity:0.043137}
    .fil45 {fill:white;fill-opacity:0.047059}
    .fil8 {fill:black;fill-opacity:0.050980}
    .fil9 {fill:black;fill-opacity:0.054902}
    .fil56 {fill:#BE82E6;fill-opacity:0.054902}
    .fil10 {fill:black;fill-opacity:0.062745}
    .fil34 {fill:#713E82;fill-opacity:0.062745}
    .fil11 {fill:black;fill-opacity:0.066667}
    .fil46 {fill:white;fill-opacity:0.074510}
    .fil12 {fill:black;fill-opacity:0.074510}
    .fil13 {fill:black;fill-opacity:0.078431}
    .fil35 {fill:#713E82;fill-opacity:0.094118}
    .fil47 {fill:white;fill-opacity:0.098039}
    .fil57 {fill:#BE82E6;fill-opacity:0.109804}
    .fil48 {fill:white;fill-opacity:0.121569}
    .fil36 {fill:#713E82;fill-opacity:0.125490}
    .fil49 {fill:white;fill-opacity:0.145098}
    .fil37 {fill:#713E82;fill-opacity:0.156863}
    .fil58 {fill:#BE82E6;fill-opacity:0.164706}
    .fil50 {fill:white;fill-opacity:0.172549}
    .fil38 {fill:#713E82;fill-opacity:0.188235}
    .fil51 {fill:white;fill-opacity:0.196078}
    .fil52 {fill:white;fill-opacity:0.219608}
    .fil39 {fill:#713E82;fill-opacity:0.219608}
    .fil67 {fill:#B2B2B2;fill-rule:nonzero;fill-opacity:0.219608}
    .fil73 {fill:#E69CFF;fill-rule:nonzero;fill-opacity:0.219608}
    .fil59 {fill:#BE82E6;fill-opacity:0.223529}
    .fil60 {fill:#BE82E6;fill-opacity:0.278431}
    .fil64 {fill:#7F7F7F;fill-rule:nonzero;fill-opacity:0.321569}
    .fil24 {fill:#9E59B5;fill-rule:nonzero;fill-opacity:0.321569}
    .fil61 {fill:#BE82E6;fill-opacity:0.333333}
    .fil20 {fill:#A95DC2;fill-opacity:0.439216}
    .fil65 {fill:#B2B2B2;fill-rule:nonzero;fill-opacity:0.439216}
    .fil68 {fill:#9756AD;fill-rule:nonzero;fill-opacity:0.439216}
    .fil69 {fill:#D67FF2;fill-rule:nonzero;fill-opacity:0.439216}
    .fil16 {fill:#7F7F7F;fill-opacity:0.501961}
    .fil72 {fill:#999999;fill-rule:nonzero;fill-opacity:0.501961}
    .fil31 {fill:#D67FF2;fill-rule:nonzero;fill-opacity:0.501961}
    .fil23 {fill:#E69CFF;fill-rule:nonzero;fill-opacity:0.501961}
    .fil22 {fill:#FFD6F9;fill-rule:nonzero;fill-opacity:0.501961}
    .fil28 {fill:#E69CFF;fill-rule:nonzero;fill-opacity:0.580392}
    .fil71 {fill:#E69CFF;fill-rule:nonzero;fill-opacity:0.780392}
    .fil21 {fill:url(#id0)}
    .fil14 {fill:url(#id1)}
    .fil41 {fill:url(#id2)}
    .fil63 {fill:url(#id3);fill-rule:nonzero}
    .fil62 {fill:url(#id4);fill-rule:nonzero}
    .fil27 {fill:url(#id5);fill-rule:nonzero;fill-opacity:0.219608}
    .fil66 {fill:url(#id6);fill-rule:nonzero;fill-opacity:0.439216}
    .fil25 {fill:url(#id7);fill-rule:nonzero;fill-opacity:0.439216}
    .fil26 {fill:url(#id8);fill-rule:nonzero;fill-opacity:0.501961}
   ]]>
  </style>
  <linearGradient id="id0" gradientUnits="userSpaceOnUse" x1="63.9516" y1="8.43672" x2="63.9516" y2="124.477">
   <stop offset="0" style="stop-color:#D67FF2"/>
   <stop offset="1" style="stop-color:#B575DD"/>
  </linearGradient>
  <linearGradient id="id1" gradientUnits="userSpaceOnUse" x1="62.8472" y1="124.647" x2="65.2803" y2="2.27837">
   <stop offset="0" style="stop-color:#999999"/>
   <stop offset="1" style="stop-color:#B2B2B2"/>
  </linearGradient>
  <linearGradient id="id2" gradientUnits="userSpaceOnUse" x1="64.2563" y1="116.34" x2="63.8205" y2="120.455">
   <stop offset="0" style="stop-color:#C4C4C4"/>
   <stop offset="1" style="stop-color:#D4D4D4"/>
  </linearGradient>
  <linearGradient id="id3" gradientUnits="userSpaceOnUse" x1="64.9047" y1="77.4352" x2="62.6748" y2="19.9432">
   <stop offset="0" style="stop-color:#EBEBEB"/>
   <stop offset="1" style="stop-color:white"/>
  </linearGradient>
  <linearGradient id="id4" gradientUnits="userSpaceOnUse" x1="64.2221" y1="126.573" x2="63.9079" y2="109.619">
   <stop offset="0" style="stop-color:#7F7F7F"/>
   <stop offset="1" style="stop-color:#8F8F8F"/>
  </linearGradient>
  <linearGradient id="id5" gradientUnits="userSpaceOnUse" x1="88.6204" y1="64.7642" x2="89.1542" y2="78.0187">
   <stop offset="0" style="stop-color:#9756AD"/>
   <stop offset="1" style="stop-color:#B476DE"/>
  </linearGradient>
  <linearGradient id="id6" gradientUnits="userSpaceOnUse" x1="76.8789" y1="17.9246" x2="76.8789" y2="60.2535">
   <stop offset="0" style="stop-color:#999999"/>
   <stop offset="1" style="stop-color:#CCCCCC"/>
  </linearGradient>
  <linearGradient id="id7" gradientUnits="userSpaceOnUse" x1="88.4432" y1="21.8684" x2="89.4543" y2="62.3854">
   <stop offset="0" style="stop-color:#9E59B5"/>
   <stop offset="1" style="stop-color:#B476DE"/>
  </linearGradient>
  <linearGradient id="id8" gradientUnits="userSpaceOnUse" xlink:href="#id5" x1="88.6192" y1="64.7075" x2="89.1554" y2="78.0754">
  </linearGradient>
 </defs>
 <g id="Слой_x0020_1">
  <metadata id="CorelCorpID_0Corel-Layer"/>
  <g id="_76461952">
   <path id="_75595280" class="fil0" d="M61.8634 107.44c56.872,-2.52287 60.0929,7.343 60.3397,15.24 0.0732292,2.31381 -2.05042,3.55162 -5.9174,4.18115l-105.748 0c-2.93035,-0.629535 -4.78234,-1.51183 -5.3292,-2.71539l0 -3.4087c1.00513,-5.30558 7.99852,-11.1379 56.6546,-13.297z"/>
   <g>
    <path id="_79155728" class="fil1" d="M61.9909 108.411c54.5345,-2.32916 59.7232,7.01111 59.9523,14.4427 0.070867,2.31499 -2.43192,3.46894 -6.92135,4.00753l-103.382 0c-3.98391,-0.703946 -6.21976,-1.78703 -6.21976,-3.38036 0,-5.54534 2.03506,-12.7395 56.5708,-15.0699z"/>
    <path id="_103886320" class="fil2" d="M62.1126 109.383c52.1995,-2.13428 59.357,6.6804 59.5661,13.6443 0.0732292,2.35751 -3.02248,3.40988 -8.4568,3.83391l-25.9692 0c-5.43904,-0.0803159 -11.3293,-0.120474 -17.5207,0l-56.7704 0c-4.56738,-0.643709 -7.16347,-1.67955 -7.16347,-3.25752 0,-5.23707 4.11619,-12.0852 56.3145,-14.2206z"/>
    <path id="_101066056" class="fil3" d="M62.2401 110.355c49.8632,-1.94058 58.9873,6.3485 59.1775,12.847 0.0779537,2.50869 -4.16934,3.40516 -11.3836,3.6591l-14.1781 0c-9.04499,-0.142915 -19.9006,-0.379139 -31.5819,0l-49.6199 0c-5.37054,-0.574023 -8.47569,-1.56144 -8.47569,-3.13587 0,-4.92762 6.19614,-11.4285 56.0617,-13.3702z"/>
    <path id="_77459856" class="fil4" d="M62.363 111.327c47.5317,-1.74687 58.6212,6.01661 58.7925,12.0486 0.171262,5.5607 -25.7153,2.40121 -57.042,3.34256l-4.90282 0.142915 -42.2001 0c-6.56465,-0.488982 -10.4517,-1.42088 -10.4517,-3.01421 0,-4.61817 8.27609,-10.773 55.8042,-12.5198z"/>
    <path id="_109512304" class="fil5" d="M62.4882 112.298c45.1943,-1.55199 58.2527,5.6859 58.405,11.2513 0.151183,4.97605 -25.8818,2.1827 -56.7503,3.01893 -4.05123,0.109844 -8.02451,0.210239 -11.869,0.292917l-31.4957 0c-8.57609,-0.373233 -13.8415,-1.23427 -13.8415,-2.89256 0,-4.3099 10.3572,-10.1174 55.5515,-11.6706z"/>
    <path id="_100595928" class="fil6" d="M62.6134 113.271c42.8592,-1.35828 57.8842,5.354 58.0176,10.4541 0.133466,4.39139 -26.0484,1.9642 -56.4562,2.69531 -9.18673,0.220869 -18.0097,0.395674 -25.8523,0.440557l-7.37253 0c-14.1451,-0.0944894 -23.633,-0.804341 -23.633,-2.76972 0,-4.00044 12.4372,-9.46075 55.2963,-10.8202z"/>
    <path id="_78147088" class="fil7" d="M62.7409 114.244c40.5229,-1.16458 57.5157,5.02211 57.6291,9.65563 0.114568,3.80674 -26.2113,1.74687 -56.1645,2.37286 -29.9519,0.625992 -56.507,0.793711 -56.507,-2.05869 0,-3.69099 14.5183,-8.80523 55.0424,-9.96981z"/>
    <path id="_78715512" class="fil8" d="M62.8649 115.217c38.1891,-0.970878 57.1483,4.69022 57.2428,8.85838 0.0968516,3.22209 -26.3779,1.52837 -55.8716,2.04924 -29.4937,0.520873 -56.1586,0.635441 -56.1586,-1.78821 0,-3.38154 16.5994,-8.14853 54.7873,-9.1194z"/>
    <path id="_76000672" class="fil9" d="M62.9901 116.188c35.8516,-0.775994 56.7798,4.3595 56.8554,8.06112 0.0755915,2.63743 -26.5444,1.30986 -55.5798,1.72561 -29.0378,0.415753 -55.809,0.477171 -55.809,-1.51655 0,-3.07327 18.6805,-7.49301 54.5333,-8.27018z"/>
    <path id="_80744344" class="fil10" d="M63.1153 117.16c33.5177,-0.582291 56.4113,4.02761 56.468,7.26269 0.0578747,2.05396 -26.7086,1.09371 -55.2881,1.40317 -28.5783,0.310634 -55.4593,0.320083 -55.4593,-1.24608 0,-2.76381 20.7617,-6.83749 54.2794,-7.41978z"/>
    <path id="_80470080" class="fil11" d="M63.2405 118.132c31.1827,-0.388587 56.044,3.69571 56.083,6.46543 0.0377957,1.46813 -26.8751,0.875208 -54.9975,1.07954 -28.12,0.205514 -55.1086,0.161813 -55.1086,-0.975603 0,-2.45436 22.8404,-6.18078 54.0231,-6.56937z"/>
    <path id="_101962104" class="fil12" d="M63.3646 119.104c28.8476,-0.193703 55.6767,3.365 55.6944,5.667 0.020079,0.884657 -27.0393,0.657882 -54.7034,0.757096 -27.6606,0.100395 -54.7589,0.00354335 -54.7589,-0.703946 0,-2.14609 24.9204,-5.52645 53.768,-5.72015z"/>
   </g>
   <path id="_79817376" class="fil13" d="M63.4886 120.077c26.5125,0 55.3093,3.03311 55.3093,4.86974 0,0.600007 -108.823,0.558668 -108.823,0 0,-1.83664 27.0027,-4.86974 53.514,-4.86974z"/>
  </g>
  <g id="_78565984">
   <path id="_143470992" class="fil0" d="M62.0193 113.593c43.621,-1.85199 46.0907,5.38707 46.2809,11.1816 0.0555125,1.69726 -1.57325,2.60554 -4.53903,3.06736l-81.1085 0c-2.24767,-0.461817 -3.66855,-1.10907 -4.08785,-1.99254l0 -2.50042c0.771269,-3.89296 6.13472,-8.17215 43.4545,-9.75603z"/>
   <g>
    <path id="_47361408" class="fil1" d="M62.1161 114.305c41.8293,-1.70908 45.8084,5.14376 45.9844,10.597 0.0543314,1.69845 -1.86498,2.54413 -5.30912,2.9398l-79.2943 0c-3.05555,-0.516148 -4.77053,-1.31104 -4.77053,-2.48035 0,-4.06895 1.56144,-9.34736 43.3895,-11.0564z"/>
    <path id="_76374336" class="fil2" d="M62.2106 115.018c40.0375,-1.56616 45.5273,4.90045 45.6868,10.01 0.0566936,1.73034 -2.31735,2.50279 -6.48669,2.81342l-19.9172 0c-4.1717,-0.0590558 -8.69066,-0.0885838 -13.4387,0l-43.5431 0c-3.50319,-0.472447 -5.49574,-1.2319 -5.49574,-2.39058 0,-3.84217 3.15713,-8.86664 43.1946,-10.4328z"/>
    <path id="_79472864" class="fil3" d="M62.3075 115.731c38.2457,-1.42325 45.2439,4.65833 45.3903,9.42649 0.0590558,1.84018 -3.19728,2.49806 -8.73082,2.68468l-10.8745 0c-6.93906,-0.105119 -15.2648,-0.278744 -24.2247,0l-38.0591 0c-4.11855,-0.421659 -6.49969,-1.14568 -6.49969,-2.30082 0,-3.6154 4.75163,-8.38475 42.9986,-9.81036z"/>
    <path id="_101359216" class="fil4" d="M62.4031 116.444c36.4564,-1.28151 44.9628,4.41501 45.0939,8.84066 0.131104,4.07958 -19.7247,1.76105 -43.7521,2.452l-3.76068 0.105119 -32.3673 0c-5.0351,-0.35906 -8.01624,-1.04293 -8.01624,-2.21105 0,-3.38862 6.34732,-7.90522 42.8025,-9.18673z"/>
    <path id="_74327616" class="fil5" d="M62.4988 117.156c34.6634,-1.1386 44.6805,4.1717 44.7962,8.25601 0.115749,3.65083 -19.851,1.60159 -43.5277,2.21459 -3.10752,0.0803159 -6.1548,0.154726 -9.10405,0.214963l-24.1562 0c-6.57882,-0.274019 -10.6171,-0.905917 -10.6171,-2.12247 0,-3.16185 7.94419,-7.42332 42.6088,-8.5631z"/>
    <path id="_102412648" class="fil6" d="M62.5945 117.871c32.8728,-0.996863 44.397,3.92839 44.4998,7.67017 0.102757,3.22209 -19.9786,1.44096 -43.3021,1.97719 -7.04654,0.162994 -13.8132,0.290555 -19.8298,0.323626l-5.65401 0c-10.8497,-0.0696859 -18.1266,-0.590558 -18.1266,-2.0327 0,-2.93508 9.53988,-6.94142 42.4127,-7.93829z"/>
    <path id="_143515232" class="fil7" d="M62.6925 118.584c31.0811,-0.855129 44.1147,3.68508 44.2021,7.08434 0.0874027,2.79334 -20.105,1.28151 -43.0789,1.74097 -22.9739,0.459454 -43.3411,0.582291 -43.3411,-1.51065 0,-2.7083 11.1356,-6.46071 42.2178,-7.31466z"/>
    <path id="_78731912" class="fil8" d="M62.7882 119.298c29.2905,-0.712213 43.8324,3.44177 43.9057,6.49969 0.0732292,2.3646 -20.2325,1.12206 -42.8545,1.50356 -22.6219,0.382682 -43.0742,0.466541 -43.0742,-1.31222 0,-2.48035 12.7324,-5.97881 42.023,-6.69103z"/>
    <path id="_79153168" class="fil9" d="M62.8838 120.01c27.4976,-0.569298 43.5501,3.19965 43.608,5.91503 0.0578747,1.93467 -20.3589,0.961429 -42.6301,1.26616 -22.2723,0.304728 -42.806,0.349611 -42.806,-1.11261 0,-2.25475 14.3281,-5.4981 41.8281,-6.06858z"/>
    <path id="_108731288" class="fil10" d="M62.9795 120.723c25.7082,-0.426383 43.2679,2.95515 43.3116,5.3292 0.0448824,1.50711 -20.4853,0.801978 -42.4056,1.02993 -21.9203,0.227956 -42.5391,0.233861 -42.5391,-0.915366 0,-2.0268 15.925,-5.0162 41.6332,-5.44377z"/>
    <path id="_76817160" class="fil11" d="M63.0752 121.437c23.9176,-0.284649 42.9867,2.71184 43.0163,4.74337 0.0283468,1.07718 -20.614,0.642528 -42.1836,0.792529 -21.5672,0.151183 -42.2686,0.119293 -42.2686,-0.715757 0,-1.8012 17.5183,-4.53431 41.4359,-4.82014z"/>
    <path id="_142294304" class="fil12" d="M63.1709 122.15c22.1259,-0.141734 42.7045,2.46853 42.7186,4.15753 0.0141734,0.649614 -20.7404,0.483077 -41.9592,0.556306 -21.2164,0.0732292 -42.0005,0.00236223 -42.0005,-0.517329 0,-1.57443 19.114,-4.05477 41.2411,-4.19651z"/>
   </g>
   <path id="_114487952" class="fil13" d="M63.2665 122.865c20.3341,0 42.4222,2.22522 42.4222,3.57288 0,0.439375 -83.4683,0.409848 -83.4683,0 0,-1.34765 20.7109,-3.57288 41.0462,-3.57288z"/>
  </g>
  <path class="fil14" d="M24.6794 0.551582l78.7699 0c1.78349,0 3.24098,1.45868 3.24098,3.24098l0 119.34c0,1.78231 -1.45868,3.24098 -3.24098,3.24098l-78.7699 0c-1.78231,0 -3.24098,-1.4575 -3.24098,-3.24098l0 -119.34c0,-1.78349 1.4575,-3.24098 3.24098,-3.24098z"/>
  <path class="fil15" d="M106.69 91.8318l0 31.3008c0,1.78231 -1.45868,3.24098 -3.24098,3.24098l-78.7699 0c-1.78231,0 -3.24098,-1.4575 -3.24098,-3.24098l0 -31.3008 85.2518 0z"/>
  <path class="fil16" d="M21.4385 3.95792l85.2518 0.0212601 0 116.016c-30.8508,-0.00354335 -28.6669,-0.0236223 -85.2518,-0.0259846l0 -116.012z"/>
  <path class="fil17" d="M24.6794 0.0460636l78.7699 0c1.78349,0 3.24098,1.45868 3.24098,3.24098l0 1.53309 -0.00236223 -0.0070867c-0.209058,-1.58388 -1.57325,-2.81814 -3.21382,-2.81814l-78.7699 0c-1.78349,0 -3.24098,1.4575 -3.24098,3.24098l0 117.79c-0.0165356,-0.131104 -0.0248035,-0.26457 -0.0248035,-0.399218l0 -119.34c0,-1.78349 1.4575,-3.24098 3.24098,-3.24098z"/>
  <path class="fil18" d="M24.6794 0.050788l78.7699 0c1.02875,0 1.96538,0.42284 2.64216,1.09962 0.67678,0.67678 1.09962,1.61341 1.09962,2.64216l0 119.34c0,1.02875 -0.42284,1.96538 -1.09962,2.64216l-0.00118112 0c-0.677961,0.67678 -1.61459,1.09962 -2.64098,1.09962l-78.7699 0c-1.02875,0 -1.96538,-0.42284 -2.64216,-1.09962 -0.67678,-0.67678 -1.09962,-1.61341 -1.09962,-2.64216l0 -119.34c0,-1.02875 0.42284,-1.96538 1.09962,-2.64216 0.67678,-0.67678 1.61341,-1.09962 2.64216,-1.09962zm78.7699 1.00159l-78.7699 0c-0.753553,0 -1.44096,0.309453 -1.93585,0.804341 -0.494888,0.494888 -0.804341,1.1823 -0.804341,1.93585l0 119.34c0,0.753553 0.309453,1.44096 0.804341,1.93585 0.494888,0.494888 1.1823,0.804341 1.93585,0.804341l78.7699 0c0.753553,0 1.44096,-0.309453 1.93703,-0.804341l-0.00118112 0c0.494888,-0.494888 0.804341,-1.1823 0.804341,-1.93585l0 -119.34c0,-0.753553 -0.309453,-1.44096 -0.804341,-1.93585 -0.494888,-0.494888 -1.1823,-0.804341 -1.93585,-0.804341z"/>
  <path class="fil19" d="M119.711 33.3559l0.1689 1.03702 -112.446 -0.0259846 0 -22.9196c0,-1.38309 0.546857,-2.65397 1.45041,-3.64138 1.15749,-1.40671 2.91145,-2.3079 4.86502,-2.3079l99.8835 0.0259846c3.46658,0 6.54339,2.85358 6.50441,6.30244l-0.251578 21.5294 -0.174805 0z"/>
  <path class="fil20" d="M7.43513 12.9687l-0.00118112 -0.0330713 0 -1.48821c0,-1.38309 0.546857,-2.65397 1.45041,-3.64138 0.918909,-1.11616 2.21223,-1.91459 3.6839,-2.1957l0.522054 5.90795 0.923633 0.184254c-0.907098,1.70317 -5.65873,2.72366 -6.43591,1.46931 -0.777175,-1.25435 -0.090946,-0.134647 -0.142915,-0.203152z"/>
  <path class="fil20" d="M116.127 6.02842l-0.543314 5.44259 -0.923633 0.184254c0.750009,1.40789 3.62249,3.15949 5.45085,2.34688l0.0259846 -2.17562c0.0295279,-2.5831 -1.69018,-4.83195 -4.00989,-5.7981z"/>
  <path class="fil21" d="M7.4493 28.4507l-0.0141734 -14.0647c0,-1.38309 0.546857,-2.65397 1.45041,-3.64138 1.15749,-1.40671 2.91145,-2.3079 4.86502,-2.3079l99.8835 0.0259846c3.46658,0 6.50087,2.76618 6.4548,6.20086 -0.0637803,4.77171 0.289374,9.59303 0.294098,14.2384l0.0803159 89.2653c0.00354335,3.44177 -2.78153,6.30953 -6.17134,6.30953 -40.647,0 -31.2772,-0.0259846 -100.605,-0.0259846 -3.38862,0 -6.16897,-2.83941 -6.17134,-6.30953l-0.0803159 -89.2653c0,-0.142915 0.00472447,-0.284649 0.0141734,-0.425202z"/>
  <path class="fil22" d="M120.026 39.5816l0.0803159 78.5325c0,1.86144 -0.752371,3.56461 -1.96065,4.80124 -1.20946,1.23781 -2.87956,2.01026 -4.71148,2.01026l-98.8878 -0.0259846c-1.83191,0 -3.50319,-0.768907 -4.71384,-2.00554l-0.00236223 -0.00236223c-1.20592,-1.23309 -1.95593,-2.93508 -1.95593,-4.8036l-0.0803159 -78.5325 0 -4.73982 -0.00236223 0 0 -0.500794 0 -21.9062c0,-0.305909 0.0236223,-0.607094 0.0720481,-0.903554 0.323626,-0.0484258 0.672056,-0.090946 1.04293,-0.129923 -0.0744104,0.333075 -0.113387,0.679142 -0.113387,1.03348l0 21.4054 0.00236223 0 0 0.500794 0 5.24062 0.0803159 78.5325c0,1.60041 0.640165,3.05555 1.6701,4.10911 1.02757,1.04883 2.44491,1.70081 4.00044,1.70081l98.8878 0.0259846c1.55435,0 2.97051,-0.654339 3.99572,-1.70317l0.00236223 -0.00236223c1.02993,-1.05356 1.67246,-2.50987 1.67246,-4.10438l-0.0803159 -78.5325 0 -9.81981 0.00236223 0 0.00590558 -17.0471c0.347248,0.159451 0.682686,0.29646 0.996863,0.402761l-0.00590558 16.6443 0.00236223 0 0 9.81981z"/>
  <path class="fil23" d="M43.1686 28.3279l0 -0.663788 0 -1.36419 1.30041 0.411029c5.32211,1.68663 12.2305,2.49098 19.1554,2.46735 7.06544,-0.0248035 14.1439,-0.914184 19.5735,-2.60672l1.29569 -0.403942 0 1.3571 0.00354335 2.06341c-0.140553,-0.767726 -0.425202,-1.42561 -0.931901,-1.84136 0,0 -0.492526,0.846861 -1.06655,1.18584l0 -0.0744104c-5.4107,1.5012 -12.1525,2.28782 -18.8742,2.31145 -6.57882,0.0224412 -13.1553,-0.686229 -18.4573,-2.16617l0 0.252759c-0.0555125,-0.0519691 -0.107482,-0.0838593 -0.157089,-0.090946 -0.707489,-0.101576 -1.4138,-1.31695 -1.4138,-1.31695 -0.165356,0.135828 -0.30709,0.29646 -0.427564,0.479533z"/>
  <path class="fil24" d="M84.5195 32.4228l0.0342524 3.09453 -0.0070867 0.13701 -0.0177168 0.133466 -0.00354335 0.090946 0.00236223 0c0,0.576385 -0.706308,1.01104 -1.9831,1.30513 -0.800797,0.184254 -1.97601,0.438194 -3.43233,0.735836 -1.95711,0.402761 -4.29454,0.726387 -6.88827,0.944894 -2.4957,0.210239 -5.24416,0.327169 -8.13199,0.327169 -2.88783,0 -5.63511,-0.116931 -8.13081,-0.327169 -2.59255,-0.218507 -4.93116,-0.542133 -6.88945,-0.944894 -0.947256,-0.194884 -1.97719,-0.416934 -2.92563,-0.625992 -0.987414,-0.219688 -1.78349,-0.405123 -2.23113,-0.517329l-0.757096 -0.19016 0 -0.778356 0 -0.514967c0.133466,0.530321 0.236223,0.859853 0.236223,0.859853l0.832687 -1.52482 2.34924 0.721662c0.82442,0.181892 1.82483,0.396855 2.89492,0.616543 1.86144,0.382682 4.11974,0.694497 6.65323,0.907098 2.44137,0.206695 5.13432,0.320083 7.96781,0.320083 2.8335,0 5.52763,-0.113387 7.969,-0.320083 2.5335,-0.212601 4.79297,-0.524416 6.65205,-0.907098 2.41657,-0.493707 4.45635,-1.0949 5.28077,-1.53545 0,0 0.309453,-0.0944894 0.525597,-2.0079z"/>
  <path class="fil23" d="M43.158 39.2391l0 -0.933082 1.39017 0.592921c0.558668,0.238586 1.17875,0.460636 1.84845,0.659063l0.00354335 0c0.695678,0.207877 1.44214,0.393312 2.22641,0.555125 2.01735,0.413391 4.43273,0.75119 7.11387,0.981508l0.00472447 0c2.58074,0.22205 5.40243,0.346067 8.34695,0.346067 2.94571,0 5.76739,-0.124017 8.34813,-0.346067l0.00472447 0c2.68114,-0.230318 5.09652,-0.568117 7.11387,-0.981508 0.716938,-0.14764 1.39017,-0.315358 2.0138,-0.500794 0.613,-0.183073 1.16812,-0.381501 1.66183,-0.592921l1.36065 -0.583472 0.0177168 1.01222 -1.95711 1.96184 -0.00118112 -0.0448824 -0.512605 0.160632c-0.660244,0.196065 -1.39136,0.377957 -2.18389,0.540952 -2.11066,0.43347 -4.60636,0.783081 -7.34537,1.0193 -2.63389,0.226774 -5.51463,0.353154 -8.52058,0.353154 -3.00476,0 -5.88551,-0.12638 -8.5194,-0.353154 -2.73901,-0.236223 -5.23471,-0.585834 -7.34537,-1.0193 -0.861034,-0.177168 -1.66537,-0.376776 -2.39649,-0.595283l0 -0.00118112 -0.526778 -0.162994 -2.11184 -2.11656 -0.0342524 0.0484258z"/>
  <path class="fil24" d="M84.7522 47.4632l0.00826782 0.533865 -0.763002 0.194884c-0.533865,0.135828 -1.35238,0.331894 -2.33034,0.552763 -0.843317,0.19016 -1.75042,0.388587 -2.61027,0.565755 -1.95947,0.402761 -4.29927,0.726387 -6.89418,0.944894 -2.49452,0.210239 -5.23943,0.327169 -8.12608,0.327169 -2.88665,0 -5.63275,-0.116931 -8.12727,-0.327169 -2.59373,-0.218507 -4.93471,-0.542133 -6.893,-0.944894 -1.53545,-0.315358 -2.98114,-0.558668 -3.96028,-0.721662 -0.50788,-0.0838593 -0.902373,-0.151183 -1.09017,-0.187798l-0.807884 -0.159451 0 -0.820876 0 -0.41221c0.13701,0.431108 0.236223,0.68741 0.236223,0.68741l1.78703 -1.10907 0.203152 0.0342524c0.98387,0.164175 2.43546,0.407485 4.03115,0.735836 1.86144,0.382682 4.1221,0.694497 6.65677,0.907098 2.44019,0.206695 5.13195,0.320083 7.96427,0.320083 2.83232,0 5.5229,-0.113387 7.96309,-0.320083 2.53586,-0.212601 4.79533,-0.524416 6.65796,-0.907098 0.891743,-0.183073 1.77876,-0.376776 2.57247,-0.556306 0.498431,-0.112206 0.993319,-0.229137 1.44687,-0.338981l1.99018 1.23427 0.0850404 -0.23268z"/>
  <path class="fil23" d="M43.158 50.6805l0 -0.95198 1.38545 0.584653c0.544495,0.229137 1.15868,0.446462 1.83191,0.646071 0.679142,0.199609 1.4138,0.383863 2.19452,0.543314 2.01735,0.414572 4.42919,0.752371 7.10914,0.981508l0.00472447 0c2.5831,0.223231 5.40715,0.346067 8.35286,0.346067 2.94571,0 5.76857,-0.122836 8.35168,-0.346067l0.00472447 0c2.67995,-0.229137 5.09179,-0.566936 7.10914,-0.981508 0.811427,-0.167719 1.54726,-0.346067 2.2016,-0.536227 0.629535,-0.183073 1.20474,-0.386225 1.71971,-0.608275l1.36891 -0.589377 0.0129923 0.927177 -2.01735 2.02207 -0.52914 0.161813c-0.716938,0.207877 -1.50474,0.400399 -2.35751,0.576385 -2.11066,0.434651 -4.60281,0.784262 -7.34064,1.0193 -2.63507,0.226774 -5.517,0.353154 -8.52412,0.353154 -3.00712,0 -5.89023,-0.12638 -8.5253,-0.353154 -2.73783,-0.235042 -5.22999,-0.584653 -7.34064,-1.0193 -0.839774,-0.171262 -1.62994,-0.368508 -2.35751,-0.583472l-0.561031 -0.174805 -2.05987 -2.06577 -0.0342524 0.0484258z"/>
  <path class="fil24" d="M84.4569 59.0062c-0.152364,0.238586 -0.354335,0.432289 -0.614181,0.556306l-0.0413391 -0.0862215c-0.329532,0.191341 -0.787805,0.353154 -1.36183,0.48662 -0.799616,0.184254 -1.97837,0.437013 -3.44177,0.738198 -1.95711,0.402761 -4.29454,0.726387 -6.88827,0.944894 -2.4957,0.210239 -5.24416,0.327169 -8.13199,0.327169 -2.88783,0 -5.63629,-0.116931 -8.13199,-0.327169 -2.59373,-0.218507 -4.93116,-0.542133 -6.88827,-0.944894l0 -0.00118112 -2.7331 -0.552763 -1.82601 -0.368508 -0.00472447 0c-0.470085,-0.0968516 -0.77245,-0.349611 -0.96261,-0.663788l1.9016 -1.17994 1.28151 0.258665 2.73783 0.553944 0.00472447 0c1.85908,0.382682 4.11855,0.694497 6.65205,0.907098 2.44137,0.206695 5.1355,0.320083 7.969,0.320083 2.8335,0 5.52763,-0.113387 7.969,-0.320083 2.5335,-0.212601 4.79297,-0.524416 6.65205,-0.907098 1.4386,-0.295279 2.602,-0.545676 3.39689,-0.728749 0.266932,-0.0614181 0.418115,1.13742 0.418115,0.641346l0 -0.629535 0.26457 -0.12638 1.77876 1.10198z"/>
  <path class="fil25" d="M85.1278 60.6787c0.732292,-0.585834 1.13505,-1.226 1.17757,-1.90514l0 -0.0141734 0.00354335 -0.0153545 0.00118112 -0.0637803 0 -0.00826782 0.00118112 -0.030709 -0.00236223 -0.105119 -0.00354335 -0.0153545 0 -32.6957 0 -0.271657 0.00354335 -0.0389769c0.0141734,-0.351973 0.00118112,-0.5504 -0.0330713,-0.662607l-0.00354335 -0.00472447c-0.00590558,-0.0212601 -0.0236223,-0.0472447 -0.0460636,-0.0744104l-0.0318902 -0.030709c-1.03112,-0.954342 -3.83272,-1.81892 -7.75639,-2.46381 -3.98155,-0.653158 -9.06035,-1.04647 -14.601,-1.04647 -5.77212,0 -11.0482,0.427564 -15.1077,1.13387 -3.84808,0.669693 -6.5174,1.53781 -7.34064,2.46972 -0.127561,0.276381 -0.125198,0.415753 -0.121655,0.700402l0 0.00354335 0.00236223 0.277562 0.00354335 0.00826782 0 31.1449 -0.00236223 0c0.0141734,0.679142 0.00826782,0.977965 0.00236223,1.29332l0 0.0070867 -0.00590558 0.563393 0.00236223 0.0460636 0.0070867 0.0354335 0.0153545 0.152364c0.00826782,0.270476 0.0885838,0.530321 0.235042,0.778356 -0.138191,0.28583 -0.558668,1.13623 -1.04765,1.87916 -0.7193,-0.7193 -1.1256,-1.55199 -1.17521,-2.51578l-0.0070867 -0.0377957 -0.0153545 -0.108663 -0.0070867 -0.0980327 0 -0.0791348 0.0070867 -0.638984 0 -0.0070867c0.00472447,-0.301185 0.00944894,-0.584653 -0.00354335,-1.24962l-0.00354335 -0.020079 0 -31.1449 0.00354335 0 -0.00236223 -0.265751 0 -0.00354335c-0.00944894,-0.662607 -0.0106301,-0.944894 0.38032,-1.71971l0.105119 -0.167719c1.06537,-1.35474 4.21423,-2.50161 8.63278,-3.27051 4.16934,-0.725206 9.56468,-1.16458 15.4431,-1.16458 5.63038,0 10.8226,0.403942 14.9222,1.07718 4.31108,0.70867 7.48592,1.7516 8.80168,2.97878l0.00826782 0.0070867 0.050788 0.0484258 0.0543314 0.0590558c0.213782,0.239767 0.392131,0.472447 0.511424,0.874027l-0.00236223 0c0.0933082,0.311815 0.139372,0.706308 0.118112,1.27561l0.00236223 0 0 0.271657 0 32.6957 -0.00354335 0 0.00236223 0.112206 0 0.0389769 -0.00118112 0.0472447 -0.00118112 0.040158 0.00354335 0 0 0.0425202 -0.0165356 0.0543314 0.0106301 0c-0.0543314,1.06655 -0.516148,2.03034 -1.35592,2.87366l-1.42679 -0.970878 -0.387406 -0.0803159z"/>
  <path class="fil26" d="M85.7432 73.9781c0.171262,-0.0460636 0.325988,-0.134647 0.447643,-0.255121l0.00472447 -0.00472447c0.178349,-0.180711 0.289374,-0.432289 0.289374,-0.707489 0,-0.2752 -0.111025,-0.526778 -0.289374,-0.707489l-0.00472447 -0.00472447c-0.180711,-0.178349 -0.432289,-0.289374 -0.707489,-0.289374l-12.945 0 -0.999225 0 0 -0.999225 0 -0.95198 -5.7485 0 -0.999225 0 0 -0.999225 0 -1.05828 1.99845 0 0 0.0590558 5.1603 0c0.438194,0 0.838593,0.17953 1.12324,0.464179 0.284649,0.284649 0.464179,0.682686 0.464179,1.12206l0 0.364965 11.9458 0c0.82442,0 1.57561,0.336618 2.11774,0.87757l0.00472447 0.00472447c0.540952,0.542133 0.87757,1.29332 0.87757,2.11774 0,0.82442 -0.336618,1.57561 -0.87757,2.11774l-0.00472447 0.00472447c-0.193703,0.192522 -0.413391,0.35906 -0.653158,0.494888l-0.826782 -1.60278 -0.377957 -0.0472447zm-24.9535 -5.91858l0 -0.0590558 1.99845 0 0 1.05828 0 0.999225 -0.999225 0 -5.7485 0 0 0.95198 0 0.999225 -0.999225 0 -12.9462 0c-0.276381,0 -0.526778,0.111025 -0.707489,0.289374l-0.00472447 0.00472447c-0.178349,0.180711 -0.289374,0.432289 -0.289374,0.707489 0,0.274019 0.109844,0.523235 0.28583,0.703946l-0.106301 0.0070867 -1.05001 1.63112c-0.0862215,-0.0685048 -0.167719,-0.141734 -0.245672,-0.219688l-0.00472447 -0.00472447c-0.540952,-0.542133 -0.87757,-1.29332 -0.87757,-2.11774 0,-0.82442 0.336618,-1.57561 0.87757,-2.11774l0.00472447 -0.00472447c0.542133,-0.540952 1.29214,-0.87757 2.11774,-0.87757l11.947 0 0 -0.364965c0,-0.439375 0.17953,-0.837412 0.464179,-1.12206 0.284649,-0.284649 0.685048,-0.464179 1.12324,-0.464179l5.1603 0z"/>
  <path class="fil27" d="M64.7913 68.0004l0 -2.79452 0 -0.979146 0.747647 -0.0129923 -0.225593 0.191341 1.4764 1.79175 0 1.80357 -1.99845 0zm-2.00317 0l-1.99845 0 0 -1.57679 1.19057 -1.51183 -3.23862 -0.819695c1.00041,0.0519691 2.02443,0.0897649 3.06736,0.111025l0.979146 0.020079 0 0.975603 0 2.80161z"/>
  <path class="fil28" d="M41.3792 73.7147l0.00354335 0.00354335 0.00472447 0.00472447c0.180711,0.178349 0.431108,0.289374 0.707489,0.289374l12.9462 0 0.999225 0 0 0.999225 0 1.13505 15.4986 0 0 -1.13505 0 -0.999225 0.999225 0 12.945 0c0.0897649,0 0.175986,-0.0118112 0.259846,-0.0342524l0.377957 0.0472447 0.826782 1.60278c-0.43347,0.24331 -0.934263,0.382682 -1.46458,0.382682l-11.9458 0 0 0.548038c0,0.439375 -0.17953,0.837412 -0.464179,1.12206 -0.284649,0.284649 -0.685048,0.464179 -1.12324,0.464179l-16.3207 0c-0.438194,0 -0.838593,-0.17953 -1.12324,-0.464179 -0.284649,-0.284649 -0.464179,-0.682686 -0.464179,-1.12206l0 -0.548038 -11.947 0c-0.707489,0 -1.35947,-0.246853 -1.87207,-0.657882l1.05001 -1.63112 0.106301 -0.0070867z"/>
  <path class="fil28" d="M60.7897 66.4237l0 -0.25394c-2.2394,-0.0673237 -4.37604,-0.204333 -6.34732,-0.398036 -2.3516,-0.230318 -4.49297,-0.546857 -6.33079,-0.923633 -2.54531,-0.524416 -4.63116,-1.17049 -6.10637,-2.00081 -0.604732,-0.340162 -1.11616,-0.712213 -1.526,-1.12206 0.488982,-0.742923 0.90946,-1.59333 1.04765,-1.87916 0.269295,0.45473 0.764183,0.872845 1.45395,1.26025 1.2886,0.725206 3.18193,1.30513 5.52999,1.78821 1.77286,0.363784 3.84572,0.668512 6.12763,0.892924 1.30632,0.128742 2.67995,0.231499 4.1032,0.304728l3.23862 0.819695 -1.19057 1.51183zm4.74927 -2.20987l0.236223 -0.00354335c2.59964,-0.0437013 5.08943,-0.186616 7.37844,-0.406304 2.34097,-0.225593 4.47053,-0.536227 6.28945,-0.90946 2.29609,-0.471266 4.06659,-1.11734 5.25361,-1.90278 0.154726,-0.102757 0.297641,-0.206695 0.431108,-0.312996l0.387406 0.0803159 1.42679 0.970878c-0.324807,0.327169 -0.707489,0.635441 -1.1445,0.924815 -1.39962,0.924815 -3.40634,1.6701 -5.95519,2.19333 -1.88034,0.386225 -4.08194,0.706308 -6.50205,0.940169 -2.03743,0.196065 -4.24139,0.331894 -6.55047,0.392131l0 0.0165356 -1.4764 -1.79175 0.225593 -0.191341z"/>
  <path class="fil29" d="M12.7076 8.06585c0.337799,-0.0531503 0.685048,-0.0803159 1.04293,-0.0803159l0 0.00236223 99.8835 0.0259846 0 -0.00236223 0.0874027 0 0.00590558 0.00236223c0.764183,0.00944894 1.49293,0.142915 2.16853,0.381501l-0.105119 1.05119c-0.686229,-0.271657 -1.39372,-0.426383 -2.06932,-0.435832l0 0.00236223 -0.0874027 0 0 -0.00236223 -99.8835 -0.0259846 0 0.00236223c-0.318902,0 -0.637803,0.0295279 -0.953161,0.0862215l-0.0897649 -1.00749zm107.427 5.97527c0.0106301,0.162994 0.0165356,0.327169 0.0165356,0.493707l0.00236223 0 0 0.0767726 -0.262208 0.101576 0 -0.0767726 0.00236223 0c0,-0.165356 -0.00944894,-0.329532 -0.0295279,-0.492526 0.0921271,-0.0283468 0.183073,-0.0625992 0.270476,-0.102757z"/>
  <path class="fil30" d="M7.71742 14.0553c0,-3.17957 2.07995,-5.53589 4.99022,-5.98944l0.0897649 1.00749c-1.9642,0.351973 -3.78784,1.75278 -4.52722,3.61304 -0.214963,0.53977 -0.334256,1.13151 -0.334256,1.74923l-0.218507 -0.38032z"/>
  <path class="fil31" d="M120.265 119.748c-0.693316,2.7024 -3.11815,4.72919 -5.97291,4.72919 -40.647,0 -31.2772,-0.0259846 -100.605,-0.0259846 -2.85594,0 -5.28077,-2.01735 -5.97291,-4.72919l0.249216 0.050788c0.237404,0.696859 0.625992,1.32167 1.12442,1.83191 0.846861,0.862215 3.12287,1.34647 4.3973,1.34647l100.605 0.0259846c1.27561,0 3.95556,-0.642528 4.80124,-1.50711 0.49725,-0.50788 0.884657,-0.725206 1.12206,-1.41852l0.251578 -0.303547z"/>
  <g id="_100552016">
   <path id="_80462824" class="fil32" d="M30.7516 108.882l66.9953 0.203152c2.32444,0.00590558 3.48075,1.45868 4.22486,3.03783l6.49614 10.7328c0.343705,0.568117 0.167719,1.13387 -0.309453,1.62049 -32.613,-0.00236223 -29.1488,-0.0248035 -88.1999,-0.0259846 -0.458273,-0.481896 -0.620086,-1.03702 -0.271657,-1.59451l6.83985 -10.936c0.953161,-1.52364 1.90042,-3.04374 4.22486,-3.03783z"/>
   <g>
    <path id="_100826960" class="fil33" d="M31.2181 108.997c22.0326,0.0791348 44.0604,0.15827 66.0929,0.238586 2.29137,0.0070867 3.42996,1.45868 4.16344,3.03783 2.11656,3.528 4.23312,7.05481 6.35087,10.5816 0.341343,0.568117 0.166537,1.13505 -0.304728,1.62167 -31.824,-0.00354335 -28.9256,-0.0248035 -86.9633,-0.0259846 -0.45473,-0.481896 -0.616543,-1.0382 -0.268114,-1.59569 2.25593,-3.60713 4.51069,-7.21426 6.76544,-10.8202 0.949618,-1.5201 1.87207,-3.04374 4.16344,-3.03783z"/>
    <path id="_104838264" class="fil34" d="M31.6823 109.113c21.7314,0.090946 43.4604,0.183073 65.1917,0.2752 2.25711,0.00826782 3.38036,1.45868 4.1032,3.03783 2.06814,3.47603 4.13627,6.95205 6.20559,10.4293 0.337799,0.568117 0.165356,1.13387 -0.298823,1.62167 -31.0421,-0.00354335 -28.7011,-0.0248035 -85.7349,-0.0259846 -0.450006,-0.481896 -0.607094,-1.03938 -0.259846,-1.59569 2.23113,-3.56934 4.46108,-7.13631 6.68985,-10.7045 0.948437,-1.51537 1.84609,-3.04374 4.1032,-3.03783z"/>
    <path id="_79778216" class="fil35" d="M32.1465 109.229c21.4314,0.102757 42.8592,0.206695 64.2906,0.310634 2.22404,0.00944894 3.32957,1.45868 4.04178,3.03783 2.01971,3.42642 4.03942,6.85166 6.06031,10.2781 0.334256,0.568117 0.164175,1.13387 -0.294098,1.62167 -30.2661,-0.00354335 -28.4708,-0.0236223 -84.503,-0.0259846 -0.4441,-0.483077 -0.600007,-1.04056 -0.252759,-1.59569 2.20633,-3.53036 4.41147,-7.05954 6.61544,-10.5887 0.944894,-1.51183 1.81774,-3.04374 4.04178,-3.03783z"/>
    <path id="_80051504" class="fil36" d="M32.6083 109.343c21.1314,0.115749 42.2604,0.231499 63.3917,0.348429 2.18861,0.0106301 3.27878,1.45868 3.97918,3.03783 1.97128,3.37445 3.94257,6.75008 5.91503,10.1257 0.330713,0.566936 0.162994,1.13387 -0.289374,1.62167 -29.5043,-0.00354335 -28.2299,-0.0236223 -83.2699,-0.0259846 -0.439375,-0.483077 -0.592921,-1.04175 -0.245672,-1.59569 2.18034,-3.49138 4.3595,-6.98276 6.53984,-10.4741 0.94135,-1.50711 1.79057,-3.04374 3.97918,-3.03783z"/>
    <path id="_76337960" class="fil37" d="M33.0725 109.459c20.8314,0.127561 41.6592,0.255121 62.4905,0.383863 2.15554,0.0118112 3.22799,1.45868 3.91776,3.03783 1.92286,3.32484 3.84572,6.64969 5.76976,9.97453 0.327169,0.566936 0.164175,1.13387 -0.281106,1.62167 -28.7437,-0.00472447 -27.9937,-0.0236223 -82.0416,-0.0259846 -0.43347,-0.484258 -0.584653,-1.04175 -0.238586,-1.59569 2.15554,-3.4524 4.3099,-6.90599 6.46543,-10.3584 0.937807,-1.50356 1.76223,-3.04374 3.91776,-3.03783z"/>
    <path id="_100853808" class="fil38" d="M33.5366 109.575c20.5302,0.139372 41.0592,0.279925 61.5893,0.420478 2.12129,0.0129923 3.17839,1.45868 3.85753,3.03783 1.87443,3.27287 3.74887,6.54693 5.62448,9.82217 0.323626,0.566936 0.162994,1.13269 -0.276381,1.62049 -27.9948,-0.00354335 -27.7669,-0.0224412 -80.8108,-0.0248035 -0.428745,-0.484258 -0.577566,-1.04293 -0.231499,-1.59569 2.13073,-3.41461 4.26029,-6.82804 6.38984,-10.2426 0.936626,-1.49884 1.73624,-3.04374 3.85753,-3.03783z"/>
   </g>
   <path id="_102504768" class="fil39" d="M33.9996 109.692l60.6893 0.455911c2.08821,0.0141734 3.1276,1.45868 3.79611,3.03783l5.4792 9.67099c0.320083,0.565755 0.162994,1.13151 -0.268114,1.61931 -27.2555,-0.00354335 -27.5389,-0.0224412 -79.5848,-0.0248035 -0.42284,-0.484258 -0.568117,-1.04293 -0.223231,-1.59451l6.31543 -10.1269c0.933082,-1.49529 1.7079,-3.04374 3.79611,-3.03783z"/>
  </g>
  <path class="fil40" d="M8.49932 7.48946l0.00472447 -0.00472447m-0.00472447 0.00472447l0.00472447 -0.00472447m112.381 32.1488l0.0803159 78.5325c0,1.86144 -0.752371,3.56461 -1.96065,4.80124 -1.20946,1.23781 -2.87956,2.01026 -4.71148,2.01026l-100.605 -0.0259846c-1.83191,0 -3.50319,-0.768907 -4.71384,-2.00554l-0.00236223 -0.00236223c-1.20592,-1.23309 -1.95593,-2.93508 -1.95593,-4.8036l-0.0803159 -78.5325 0 -4.73982 -0.00236223 0 0 -0.500794 0 -22.9196c0,-0.738198 0.145277,-1.45514 0.409848,-2.11774 0.269295,-0.677961 0.66615,-1.30041 1.16104,-1.8449 0.63426,-0.771269 1.43742,-1.40199 2.34806,-1.83309 0.878751,-0.415753 1.8638,-0.650795 2.89728,-0.651977l100.338 -0.0755915 0.0118112 0 0.349611 0.00944894 0.0141734 0c1.7327,0.0933082 3.3402,0.846861 4.51069,2.00436l-0.00118112 0.00118112c1.17875,1.16458 1.92286,2.74255 1.92404,4.47525l0 0.0118112 -0.00826782 0.309453 -0.00590558 18.0782 0.00236223 0 0 9.81981zm-112.948 -0.0259846l0.0803159 78.5325c0,1.60041 0.640165,3.05555 1.6701,4.10911 1.02757,1.04883 2.44491,1.70081 4.00044,1.70081l100.605 0.0259846c1.55435,0 2.97051,-0.654339 3.99572,-1.70317l0.00236223 -0.00236223c1.02993,-1.05356 1.67246,-2.50987 1.67246,-4.10438l-0.0803159 -78.5325 0 -9.81981 0.00236223 0 0.00590558 -18.0888 0 -0.0118112 0.00826782 -0.310634c-0.00354335,-1.44687 -0.633079,-2.77208 -1.62758,-3.75359l-0.00236223 0c-1.00395,-0.993319 -2.37877,-1.63821 -3.85871,-1.71853l-0.335437 -0.00944894 -100.326 0.0755915c-0.879932,0 -1.72089,0.201971 -2.47208,0.557487 -0.778356,0.368508 -1.46577,0.908279 -2.0079,1.56852l-0.0177168 0.020079c-0.419296,0.457092 -0.755915,0.985051 -0.982689,1.55553 -0.214963,0.53977 -0.334256,1.13151 -0.334256,1.74923l0 22.4188 0.00236223 0 0 0.500794 0 5.24062z"/>
  <path class="fil41" d="M33.5886 110.907l61.5386 0.203152c2.00081,0.00590558 2.99649,1.45868 3.63666,3.03783l3.53036 8.70837c0.642528,1.58152 -1.63939,3.03783 -3.63784,3.03783l-69.1615 0c-1.99845,0 -4.35478,-1.47758 -3.63784,-3.03783l4.09493 -8.91153c0.716938,-1.56026 1.63585,-3.04374 3.63666,-3.03783z"/>
  <path class="fil42" d="M25.7708 122.866l76.5694 -0.108663c0.472447,1.53073 -1.73979,2.90909 -3.6839,2.90909l-69.1615 0c-1.89687,0 -4.11619,-1.33112 -3.72406,-2.80043z"/>
  <path class="fil43" d="M25.9184 122.976l76.1962 -0.263389 0.17953 0.375595c0.642528,1.34293 -1.63939,2.57838 -3.63784,2.57838l-69.1615 0c-1.99845,0 -4.35478,-1.25435 -3.63784,-2.57838l0.0614181 -0.112206z"/>
  <g id="_74720184">
   <g>
    <path id="_80479976" class="fil44" d="M27.3358 120.357l73.6533 0 1.30513 2.73074c0.0318902,0.0673237 0.0566936,0.134647 0.0744104,0.20079l-76.5978 0c0.0212601,-0.0661425 0.0496069,-0.133466 0.0862215,-0.20079l1.47876 -2.73074z"/>
    <polygon id="_79478160" class="fil45" points="27.2838,120.454 101.036,120.454 102.294,123.088 102.338,123.192 25.8074,123.192 25.857,123.088 "/>
    <polygon id="_110697504" class="fil46" points="27.2307,120.552 101.082,120.552 102.294,123.088 102.297,123.095 25.8535,123.095 25.857,123.088 "/>
    <polygon id="_100632192" class="fil47" points="27.1775,120.649 101.128,120.649 102.25,122.997 25.9066,122.997 "/>
    <polygon id="_75255912" class="fil48" points="27.1255,120.746 101.176,120.746 102.204,122.9 25.9586,122.9 "/>
    <polygon id="_101807648" class="fil49" points="27.0724,120.844 101.222,120.844 102.157,122.803 26.0117,122.803 "/>
    <polygon id="_143959536" class="fil50" points="27.0204,120.94 101.268,120.94 102.111,122.705 26.0649,122.705 "/>
    <polygon id="_75492896" class="fil51" points="26.9673,121.037 101.315,121.037 102.065,122.608 26.1169,122.608 "/>
   </g>
   <polygon id="_102075000" class="fil52" points="26.9153,121.135 101.361,121.135 102.018,122.511 26.17,122.511 "/>
  </g>
  <polygon class="fil53" points="26.5858,121.742 101.652,121.742 102.17,122.828 25.9976,122.828 "/>
  <path class="fil54" d="M25.9928 124.043l76.1383 0c-0.603551,0.938988 -2.10593,1.62285 -3.47485,1.62285l-69.1615 0c-1.36419,0 -2.8961,-0.688591 -3.50201,-1.62285z"/>
  <path class="fil30" d="M115.896 8.39538c2.35869,0.832687 4.05477,2.95752 4.23903,5.64574 -0.0874027,0.040158 -0.178349,0.0744104 -0.270476,0.102757 -0.250397,-2.09766 -2.06577,-3.90005 -4.07367,-4.6973l0.105119 -1.05119z"/>
  <g id="_78706384">
   <path id="_81423344" class="fil55" d="M100.931 119.494l-73.5293 0 2.55003 -5.54889c0.716938,-1.56026 1.63585,-3.04374 3.63666,-3.03783l61.5386 0.203152c2.00081,0.00590558 2.99649,1.45868 3.63666,3.03783l2.16735 5.34574z"/>
   <g>
    <path id="_74400272" class="fil56" d="M100.398 118.181l-72.393 0 1.94648 -4.23667c0.716938,-1.56026 1.63585,-3.04374 3.63666,-3.03783l61.5386 0.203152c2.00081,0.00590558 2.99649,1.45868 3.63666,3.03783l1.63467 4.03351z"/>
    <path id="_73611504" class="fil57" d="M99.8658 116.867l-71.2568 0 1.34293 -2.92208c0.716938,-1.56026 1.63585,-3.04374 3.63666,-3.03783l61.5386 0.203152c2.00081,0.00590558 2.99649,1.45868 3.63666,3.03783l1.10198 2.71893z"/>
    <path id="_100010408" class="fil58" d="M99.3343 115.556l-70.1229 0 0.74056 -1.61104c0.716938,-1.56026 1.63585,-3.04374 3.63666,-3.03783l61.5386 0.203152c2.00081,0.00590558 2.99649,1.45868 3.63666,3.03783l0.570479 1.40789z"/>
    <path id="_107415032" class="fil59" d="M98.8028 114.244l-68.9879 0 0.13701 -0.298823c0.716938,-1.56026 1.63585,-3.04374 3.63666,-3.03783l61.5386 0.203152c2.00081,0.00590558 2.99649,1.45868 3.63666,3.03783l0.0389769 0.0956705z"/>
    <path id="_102525528" class="fil60" d="M98.1591 112.93l-67.6886 0c0.661425,-1.13269 1.56262,-2.02798 3.11815,-2.02325l61.5386 0.203152c1.46458,0.00472447 2.39058,0.783081 3.03193,1.8201z"/>
    <path id="_74324120" class="fil61" d="M96.9307 111.619l-65.4008 0c0.531503,-0.439375 1.19411,-0.714576 2.05869,-0.712213l61.5386 0.203152c0.721662,0.00236223 1.31222,0.192522 1.80357,0.509061z"/>
   </g>
  </g>
  <path class="fil62" d="M33.689 109.8l61.5386 0.203152c1.1445,0.00236223 1.90868,1.0323 2.57483,1.67719l0.00118112 0c0.637803,0.618905 1.0819,1.43742 1.42325,2.27956l3.53036 8.70837c0.100395,0.248035 0.148821,0.49725 0.148821,0.737017 0,0.579928 -0.268114,1.1197 -0.705127,1.57561 -0.396855,0.414572 -0.944894,0.766545 -1.54726,1.00985 -0.627173,0.255121 -1.32876,0.403942 -1.99727,0.403942l-69.1615 0c-0.75119,0 -1.55081,-0.191341 -2.24294,-0.509061 -0.549219,-0.252759 -1.04175,-0.590558 -1.39608,-0.981508l-0.00118112 0.00118112c-0.39095,-0.429927 -0.629535,-0.931901 -0.629535,-1.46813 0,-0.258665 0.0566936,-0.522054 0.178349,-0.787805l4.09493 -8.91153c0.377957,-0.823238 0.817333,-1.63703 1.4386,-2.25239 0.656701,-0.653158 1.60159,-1.68782 2.752,-1.68545zm61.5386 1.20001l-61.5386 -0.203152c-0.846861,-0.00118112 -1.56852,0.918909 -2.04806,1.3949 -0.514967,0.511424 -0.900011,1.22718 -1.23545,1.95947l-4.09493 8.91153c-0.0566936,0.124017 -0.0838593,0.251578 -0.0838593,0.374414 0,0.270476 0.139372,0.544495 0.367327,0.794892l0 0.00236223c0.262208,0.289374 0.640165,0.546857 1.07127,0.744104 0.563393,0.258665 1.21655,0.414572 1.82955,0.414572l69.1615 0c0.542133,0 1.11261,-0.121655 1.62167,-0.32835 0.478352,-0.193703 0.905917,-0.464179 1.20474,-0.775994 0.261027,-0.272838 0.421659,-0.577566 0.421659,-0.883475 0,-0.116931 -0.0236223,-0.239767 -0.0732292,-0.361422l-3.53036 -8.70837c-0.297641,-0.733474 -0.674418,-1.43742 -1.19175,-1.93939 -0.490164,-0.474809 -1.02993,-1.3949 -1.88152,-1.39608z"/>
  <path class="fil63" d="M83.4128 58.6602c0.356697,-0.170081 0.468903,-0.911822 0.477171,-1.49293l0 -0.00472447 0 -0.0248035 0 -0.0295279 0 -0.0295279 0 -0.0283468 -0.00118112 -0.0283468 0 -0.0283468c-0.0165356,-1.8827 -0.0413391,-3.79493 -0.070867,-5.71779 -1.07954,0.464179 -2.44727,0.859853 -4.11619,1.20356 -4.05123,0.833869 -9.59539,1.35002 -15.6652,1.35002 -6.07094,0 -11.6151,-0.516148 -15.6663,-1.35002 -1.62049,-0.333075 -3.03783,-0.752371 -4.21304,-1.24844l0 6.63315 -0.00944894 0.0271657c-0.0129923,0.245672 -0.00118112,0.817333 0.445281,0.910641 1.00631,0.209058 2.73665,0.546857 4.56384,0.922452 3.75005,0.77245 8.9883,1.24962 14.8207,1.24962 5.83236,0 11.0706,-0.477171 14.8207,-1.24962 2.85004,-0.587015 4.61462,-0.988595 4.61462,-1.06419zm-21.6239 10.3986l0 -3.85989c-5.20873,-0.107482 -9.91902,-0.596464 -13.4777,-1.32758 -4.89573,-1.00749 -7.94655,-2.452 -8.01506,-4.77644 -0.0165356,-0.070867 -0.0259846,-0.13701 -0.0259846,-0.20079 0,-0.75119 0.0259846,-0.848042 0.00354335,-1.92404l0 -31.1449c0,-0.711032 -0.060237,-0.882294 0.272838,-1.54018 1.80357,-2.29373 11.5466,-4.05241 23.2904,-4.05241 11.2868,0 20.7239,1.62404 23.0448,3.78666 0.0177168,0.0165356 0.0366146,0.0318902 0.050788,0.0484258 0.256302,0.284649 0.411029,0.53977 0.372052,1.48585l0 0.271657 0 32.6957 0.00236223 0.127561 -0.00118112 0.0472447 -0.00118112 0.0637803 0 0.0425202 -0.00236223 0.00354335c-0.119293,2.29491 -2.81814,4.07013 -7.65954,5.06581 -3.64375,0.748828 -8.49577,1.24253 -13.8521,1.33466l0 3.8528 6.15952 0c0.324807,0 0.588196,0.263389 0.588196,0.587015l0 1.36419 12.945 0c1.10434,0 2.00081,0.896468 2.00081,2.00081 0,1.10434 -0.896468,2.00081 -2.00081,2.00081l-12.945 0 0 1.54726c0,0.323626 -0.263389,0.587015 -0.588196,0.587015l-16.3207 0c-0.323626,0 -0.588196,-0.263389 -0.588196,-0.587015l0 -1.54726 -12.9462 0c-1.10434,0 -2.00081,-0.896468 -2.00081,-2.00081 0,-1.10434 0.896468,-2.00081 2.00081,-2.00081l12.9462 0 0 -1.36419c0,-0.323626 0.26457,-0.587015 0.588196,-0.587015l6.15952 0zm21.9629 -21.8353l-0.12638 -7.28631c-1.06064,0.45473 -2.3516,0.840955 -3.86698,1.15277 -4.05123,0.832687 -9.59539,1.35002 -15.6663,1.35002 -6.06976,0 -11.6139,-0.517329 -15.6652,-1.35002 -1.64648,-0.338981 -3.0839,-0.766545 -4.26974,-1.27324l0 7.60403c0.680323,0.134647 2.73547,0.434651 5.05872,0.913003 3.75005,0.771269 8.9883,1.24962 14.8207,1.24962 5.83236,0 11.0694,-0.478352 14.8207,-1.24962 1.84136,-0.379139 3.76422,-0.822057 4.89455,-1.11025zm-0.193703 -11.6978c-0.0377957,-2.78862 -0.0637803,-5.47802 -0.0637803,-8.00089 -10.9301,3.4087 -28.3881,3.60595 -39.3265,0.139372l0 2.03743 -0.0106301 0 0 6.10637c0.993319,0.251578 3.05909,0.712213 5.11424,1.13505 3.75123,0.77245 8.9883,1.24962 14.8207,1.24962 5.83236,0 11.0706,-0.477171 14.8207,-1.24962 2.85122,-0.585834 4.6158,-0.988595 4.6158,-1.06419 0,-0.120474 0.00944894,-0.238586 0.0295279,-0.353154z"/>
  <path class="fil64" d="M83.4128 58.6602c0.0283468,-0.0141734 0.0555125,-0.0330713 0.0814971,-0.0531503l0 1.02403c-0.288193,0.12638 -0.641346,0.236223 -1.05474,0.331894 -0.799616,0.184254 -1.97837,0.437013 -3.44177,0.738198 -1.95711,0.402761 -4.29454,0.726387 -6.88827,0.944894 -2.4957,0.210239 -5.24416,0.327169 -8.13199,0.327169 -2.88783,0 -5.63629,-0.116931 -8.13199,-0.327169 -2.59373,-0.218507 -4.93116,-0.542133 -6.88827,-0.944894l0 -0.00118112 -2.7331 -0.552763 -1.82601 -0.368508 -0.00472447 0c-0.106301,-0.0212601 -0.203152,-0.0519691 -0.292917,-0.0885838l0 -0.990957 0.181892 -0.112206c0.0673237,0.103938 0.165356,0.184254 0.310634,0.214963 1.00631,0.209058 2.73665,0.546857 4.56384,0.922452 3.75005,0.77245 8.9883,1.24962 14.8207,1.24962 5.83236,0 11.0706,-0.477171 14.8207,-1.24962 2.85004,-0.587015 4.61462,-0.988595 4.61462,-1.06419z"/>
  <path class="fil64" d="M83.4943 48.3171c-0.493707,0.120474 -1.11852,0.268114 -1.82719,0.427564 -0.843317,0.19016 -1.75042,0.388587 -2.61027,0.565755 -1.95947,0.402761 -4.29927,0.726387 -6.89418,0.944894 -2.49452,0.210239 -5.23943,0.327169 -8.12608,0.327169 -2.88665,0 -5.63275,-0.116931 -8.12727,-0.327169 -2.59373,-0.218507 -4.93471,-0.542133 -6.893,-0.944894 -1.53545,-0.315358 -2.98114,-0.558668 -3.96028,-0.721662l-0.955524 -0.162994 0 -1.16812 0.0566936 -0.0354335 0 0.198428c0.680323,0.134647 2.73547,0.434651 5.05872,0.913003 3.75005,0.771269 8.9883,1.24962 14.8207,1.24962 5.83236,0 11.0694,-0.478352 14.8207,-1.24962 1.7079,-0.351973 3.48666,-0.758277 4.63706,-1.04529l0 1.02875z"/>
  <path class="fil64" d="M83.4943 36.8981c-0.268114,0.106301 -0.585834,0.201971 -0.949618,0.28583 -0.800797,0.184254 -1.97601,0.438194 -3.43233,0.735836 -1.95711,0.402761 -4.29454,0.726387 -6.88827,0.944894 -2.4957,0.210239 -5.24416,0.327169 -8.13199,0.327169 -2.88783,0 -5.63511,-0.116931 -8.13081,-0.327169 -2.59255,-0.218507 -4.93116,-0.542133 -6.88945,-0.944894 -0.947256,-0.194884 -1.97719,-0.416934 -2.92563,-0.625992 -0.863396,-0.192522 -1.58033,-0.35906 -2.04569,-0.472447l0 -1.96184 0.0566936 -0.103938 0 1.05238c0.993319,0.251578 3.05909,0.712213 5.11424,1.13505 3.75123,0.77245 8.9883,1.24962 14.8207,1.24962 5.83236,0 11.0706,-0.477171 14.8207,-1.24962 2.6209,-0.538589 4.32407,-0.922452 4.58155,-1.03938l0 0.9945z"/>
  <path class="fil65" d="M85.7432 73.9781c0.171262,-0.0460636 0.325988,-0.134647 0.447643,-0.255121l0.00472447 -0.00472447c0.178349,-0.180711 0.289374,-0.432289 0.289374,-0.707489 0,-0.2752 -0.111025,-0.526778 -0.289374,-0.707489l-0.00472447 -0.00472447c-0.180711,-0.178349 -0.432289,-0.289374 -0.707489,-0.289374l-12.945 0 -0.0531503 0 0 -0.92009 1.21183 0 0 -0.0791348 11.7864 0c1.10434,0 2.00081,0.896468 2.00081,2.00081 0,0.737017 -0.400399,1.38191 -0.9945,1.72916l-0.368508 -0.714576 -0.377957 -0.0472447zm-14.2041 -3.85162l0 -0.0685048 -5.7485 0 -0.0224412 0 0 -1.09608 0.0224412 0 0 0.0968516 6.15952 0c0.324807,0 0.588196,0.263389 0.588196,0.587015l0 0.480715 -0.999225 0zm-9.76075 -0.0685048l-5.73787 0 0 0.0685048 -0.999225 0 0 -0.480715c0,-0.323626 0.26457,-0.587015 0.588196,-0.587015l6.14889 0 0 0.999225zm-6.7678 1.95121l-12.9155 0c-0.276381,0 -0.526778,0.111025 -0.707489,0.289374l-0.00472447 0.00472447c-0.178349,0.180711 -0.289374,0.432289 -0.289374,0.707489 0,0.274019 0.109844,0.523235 0.28583,0.703946l-0.106301 0.0070867 -0.505518 0.785443c-0.413391,-0.367327 -0.673237,-0.901192 -0.673237,-1.49648 0,-1.10434 0.896468,-2.00081 2.00081,-2.00081l12.2588 0 0 0.0791348 0.656701 0 0 0.92009z"/>
  <path class="fil66" d="M86.3054 25.7224l0 -0.1689 0.00354335 -0.0389769c0.0141734,-0.351973 0.00118112,-0.5504 -0.0330713,-0.662607l-0.00354335 -0.00472447c-0.00590558,-0.0212601 -0.0236223,-0.0472447 -0.0460636,-0.0744104l-0.0318902 -0.030709c-1.03112,-0.954342 -3.83272,-1.81892 -7.75639,-2.46381 -3.98155,-0.653158 -9.06035,-1.04647 -14.601,-1.04647 -5.77212,0 -11.0482,0.427564 -15.1077,1.13387 -3.84808,0.669693 -6.5174,1.53781 -7.34064,2.46972 -0.127561,0.276381 -0.125198,0.415753 -0.121655,0.700402l0 0.00354335 0.00118112 0.183073 -0.9945 0c-0.00472447,-0.625992 -0.0437013,-0.812608 0.272838,-1.43742 1.80357,-2.29373 11.5466,-4.05241 23.2904,-4.05241 11.2868,0 20.7239,1.62404 23.0448,3.78666 0.0177168,0.0165356 0.0366146,0.0318902 0.050788,0.0484258 0.256302,0.284649 0.411029,0.53977 0.372052,1.48585l0 0.1689 -0.999225 0z"/>
  <path class="fil67" d="M85.1278 60.6787c0.732292,-0.585834 1.13505,-1.226 1.17757,-1.90514l0 -0.0141734 0.00354335 -0.0153545 0.00118112 -0.0637803 0 -0.00826782 0.00118112 -0.030709 -0.00236223 -0.105119 -0.00354335 -0.0153545 0 -32.6957 0 -0.102757 0.999225 0 0 0.102757 0 32.6957 0.00236223 0.127561 -0.00118112 0.0472447 -0.00118112 0.0637803 0 0.0425202 -0.00236223 0.00354335c-0.0448824,0.862215 -0.452368,1.65002 -1.2012,2.3516l-0.585834 -0.398036 -0.387406 -0.0803159zm-43.8596 -34.9563l0.00118112 0.0944894 0.00354335 0.00826782 0 31.1449 -0.00236223 0c0.0141734,0.679142 0.00826782,0.977965 0.00236223,1.29332l0 0.0070867 -0.00590558 0.563393 0.00236223 0.0460636 0.0070867 0.0354335 0.0153545 0.152364c0.00826782,0.270476 0.0885838,0.530321 0.235042,0.778356 -0.0838593,0.172443 -0.269295,0.5504 -0.511424,0.986233 -0.451187,-0.517329 -0.700402,-1.09371 -0.7193,-1.73742 -0.0165356,-0.070867 -0.0259846,-0.13701 -0.0259846,-0.20079 0,-0.75119 0.0259846,-0.848042 0.00354335,-1.92404l0 -31.1449 0 -0.102757 0.9945 0z"/>
  <path class="fil68" d="M25.4543 97.7421c-0.0425202,-0.198428 -0.0637803,-0.402761 -0.0637803,-0.613 0,-0.82442 0.336618,-1.57561 0.87757,-2.11774l0.00472447 -0.00472447c0.542133,-0.540952 1.29332,-0.87757 2.11774,-0.87757l28.1236 0c0.825601,0 1.57561,0.336618 2.11774,0.87757l0.00472447 0.00472447c0.540952,0.542133 0.87757,1.29332 0.87757,2.11774 0,0.210239 -0.0212601,0.414572 -0.0637803,0.613l-2.14136 0c0.128742,-0.1689 0.206695,-0.382682 0.206695,-0.613 0,-0.2752 -0.111025,-0.526778 -0.289374,-0.707489l-0.00472447 -0.00472447c-0.180711,-0.178349 -0.431108,-0.289374 -0.707489,-0.289374l-28.1236 0c-0.2752,0 -0.526778,0.111025 -0.707489,0.289374l-0.00472447 0.00472447c-0.178349,0.180711 -0.289374,0.432289 -0.289374,0.707489 0,0.230318 0.0791348,0.4441 0.207877,0.613l-2.14255 0zm-0.65552 -9.10523c-0.0354335,-0.184254 -0.0555125,-0.374414 -0.0555125,-0.569298 0,-0.82442 0.336618,-1.57561 0.87757,-2.11774l0.00472447 -0.00472447c0.542133,-0.540952 1.29332,-0.87757 2.11774,-0.87757l28.7708 0c0.825601,0 1.57561,0.336618 2.11774,0.87757l0.00472447 0.00472447c0.540952,0.542133 0.87757,1.29332 0.87757,2.11774 0,0.194884 -0.020079,0.385044 -0.0555125,0.569298l-2.11892 0c0.111025,-0.161813 0.175986,-0.35906 0.175986,-0.569298 0,-0.2752 -0.111025,-0.526778 -0.289374,-0.707489l-0.00472447 -0.00472447c-0.180711,-0.178349 -0.431108,-0.289374 -0.707489,-0.289374l-28.7708 0c-0.2752,0 -0.526778,0.111025 -0.707489,0.289374l-0.00472447 0.00472447c-0.178349,0.180711 -0.289374,0.432289 -0.289374,0.707489 0,0.210239 0.0649614,0.407485 0.175986,0.569298l-2.11892 0zm44.3698 0c-0.0354335,-0.184254 -0.0555125,-0.374414 -0.0555125,-0.569298 0,-0.82442 0.336618,-1.57561 0.87757,-2.11774l0.00472447 -0.00472447c0.542133,-0.540952 1.29332,-0.87757 2.11774,-0.87757l28.1224 0c0.82442,0 1.57561,0.336618 2.11774,0.87757l0.00472447 0.00472447c0.540952,0.542133 0.87757,1.29332 0.87757,2.11774 0,0.194884 -0.020079,0.385044 -0.0555125,0.569298l-2.11892 0c0.111025,-0.161813 0.175986,-0.35906 0.175986,-0.569298 0,-0.2752 -0.111025,-0.526778 -0.289374,-0.707489l-0.00472447 -0.00472447c-0.180711,-0.178349 -0.432289,-0.289374 -0.707489,-0.289374l-28.1224 0c-0.2752,0 -0.526778,0.111025 -0.707489,0.289374l-0.00472447 0.00472447c-0.178349,0.180711 -0.289374,0.432289 -0.289374,0.707489 0,0.210239 0.0649614,0.407485 0.175986,0.569298l-2.11892 0zm0.00826782 9.10523c-0.0425202,-0.198428 -0.0637803,-0.402761 -0.0637803,-0.613 0,-0.82442 0.336618,-1.57561 0.87757,-2.11774l0.00472447 -0.00472447c0.542133,-0.540952 1.29332,-0.87757 2.11774,-0.87757l28.7696 0c0.82442,0 1.57561,0.336618 2.11774,0.87757l0.00472447 0.00472447c0.540952,0.542133 0.87757,1.29332 0.87757,2.11774 0,0.210239 -0.0212601,0.414572 -0.0637803,0.613l-2.14255 0c0.128742,-0.1689 0.207877,-0.382682 0.207877,-0.613 0,-0.2752 -0.111025,-0.526778 -0.289374,-0.707489l-0.00472447 -0.00472447c-0.180711,-0.178349 -0.432289,-0.289374 -0.707489,-0.289374l-28.7696 0c-0.2752,0 -0.526778,0.111025 -0.707489,0.289374l-0.00472447 0.00472447c-0.178349,0.180711 -0.289374,0.432289 -0.289374,0.707489 0,0.230318 0.0791348,0.4441 0.207877,0.613l-2.14255 0z"/>
  <path class="fil69" d="M28.3905 100.129c-0.82442,0 -1.57561,-0.336618 -2.11774,-0.87757l-0.00472447 -0.00472447c-0.402761,-0.403942 -0.693316,-0.924815 -0.81379,-1.50474l2.14255 0 0.0814971 0.0944894 0.00472447 0.00472447c0.180711,0.178349 0.432289,0.289374 0.707489,0.289374l28.1236 0c0.276381,0 0.526778,-0.111025 0.707489,-0.289374l0.00472447 -0.00472447 0.0826782 -0.0944894 2.14136 0c-0.120474,0.579928 -0.411029,1.1008 -0.81379,1.50474l-0.00472447 0.00472447c-0.542133,0.540952 -1.29214,0.87757 -2.11774,0.87757l-28.1236 0zm-3.59178 -11.4923l2.11892 0c0.0330713,0.0496069 0.0720481,0.0956705 0.113387,0.138191l0.00472447 0.00472447c0.180711,0.178349 0.432289,0.289374 0.707489,0.289374l28.7708 0c0.276381,0 0.526778,-0.111025 0.707489,-0.289374l0.00472447 -0.00472447c0.0413391,-0.0425202 0.0803159,-0.0885838 0.113387,-0.138191l2.11892 0c-0.115749,0.597645 -0.408666,1.13387 -0.822057,1.54844l-0.00472447 0.00472447c-0.542133,0.540952 -1.29214,0.87757 -2.11774,0.87757l-28.7708 0c-0.82442,0 -1.57561,-0.336618 -2.11774,-0.87757l-0.00472447 -0.00472447c-0.413391,-0.414572 -0.706308,-0.950799 -0.822057,-1.54844zm44.3698 0l2.11892 0c0.0330713,0.0496069 0.0720481,0.0956705 0.113387,0.138191l0.00472447 0.00472447c0.180711,0.178349 0.432289,0.289374 0.707489,0.289374l28.1224 0c0.2752,0 0.526778,-0.111025 0.707489,-0.289374l0.00472447 -0.00472447c0.0413391,-0.0425202 0.0803159,-0.0885838 0.113387,-0.138191l2.11892 0c-0.115749,0.597645 -0.408666,1.13387 -0.822057,1.54844l-0.00472447 0.00472447c-0.542133,0.540952 -1.29332,0.87757 -2.11774,0.87757l-28.1224 0c-0.82442,0 -1.57561,-0.336618 -2.11774,-0.87757l-0.00472447 -0.00472447c-0.413391,-0.414572 -0.706308,-0.950799 -0.822057,-1.54844zm0.00826782 9.10523l2.14255 0 0.0814971 0.0944894 0.00472447 0.00472447c0.180711,0.178349 0.432289,0.289374 0.707489,0.289374l28.7696 0c0.2752,0 0.526778,-0.111025 0.707489,-0.289374l0.00472447 -0.00472447 0.0814971 -0.0944894 2.14255 0c-0.120474,0.579928 -0.411029,1.1008 -0.81379,1.50474l-0.00472447 0.00472447c-0.542133,0.540952 -1.29332,0.87757 -2.11774,0.87757l-28.7696 0c-0.82442,0 -1.57561,-0.336618 -2.11774,-0.87757l-0.00472447 -0.00472447c-0.402761,-0.403942 -0.693316,-0.924815 -0.81379,-1.50474z"/>
  <path class="fil70" d="M28.3905 99.13c-1.10434,0 -2.00081,-0.896468 -2.00081,-2.00081 0,-1.10434 0.896468,-2.00081 2.00081,-2.00081l28.1236 0c1.10434,0 2.00081,0.896468 2.00081,2.00081 0,1.10434 -0.896468,2.00081 -2.00081,2.00081l-28.1236 0zm-0.647252 -9.06153c-1.10434,0 -2.00081,-0.896468 -2.00081,-2.00081 0,-1.10434 0.896468,-2.00081 2.00081,-2.00081l28.7708 0c1.10434,0 2.00081,0.896468 2.00081,2.00081 0,1.10434 -0.896468,2.00081 -2.00081,2.00081l-28.7708 0zm44.3698 0c-1.10434,0 -2.00081,-0.896468 -2.00081,-2.00081 0,-1.10434 0.896468,-2.00081 2.00081,-2.00081l28.1224 0c1.10434,0 2.00081,0.896468 2.00081,2.00081 0,1.10434 -0.896468,2.00081 -2.00081,2.00081l-28.1224 0zm0 9.06153c-1.10434,0 -2.00081,-0.896468 -2.00081,-2.00081 0,-1.10434 0.896468,-2.00081 2.00081,-2.00081l28.7696 0c1.10434,0 2.00081,0.896468 2.00081,2.00081 0,1.10434 -0.896468,2.00081 -2.00081,2.00081l-28.7696 0z"/>
  <path class="fil65" d="M26.4854 97.7421c-0.0625992,-0.193703 -0.0956705,-0.399218 -0.0956705,-0.613 0,-1.10434 0.896468,-2.00081 2.00081,-2.00081l28.1236 0c1.10434,0 2.00081,0.896468 2.00081,2.00081 0,0.213782 -0.0330713,0.419296 -0.0956705,0.613l-1.11025 0c0.128742,-0.1689 0.206695,-0.382682 0.206695,-0.613 0,-0.2752 -0.111025,-0.526778 -0.289374,-0.707489l-0.00472447 -0.00472447c-0.180711,-0.178349 -0.431108,-0.289374 -0.707489,-0.289374l-28.1236 0c-0.2752,0 -0.526778,0.111025 -0.707489,0.289374l-0.00472447 0.00472447c-0.178349,0.180711 -0.289374,0.432289 -0.289374,0.707489 0,0.230318 0.0791348,0.4441 0.207877,0.613l-1.11143 0zm31.948 -9.10523l-1.09371 0c0.111025,-0.161813 0.175986,-0.35906 0.175986,-0.569298 0,-0.2752 -0.111025,-0.526778 -0.289374,-0.707489l-0.00472447 -0.00472447c-0.180711,-0.178349 -0.431108,-0.289374 -0.707489,-0.289374l-28.7708 0c-0.2752,0 -0.526778,0.111025 -0.707489,0.289374l-0.00472447 0.00472447c-0.178349,0.180711 -0.289374,0.432289 -0.289374,0.707489 0,0.210239 0.0649614,0.407485 0.175986,0.569298l-1.09371 0c-0.0543314,-0.180711 -0.0814971,-0.372052 -0.0814971,-0.569298 0,-1.10434 0.896468,-2.00081 2.00081,-2.00081l28.7708 0c1.10434,0 2.00081,0.896468 2.00081,2.00081 0,0.197247 -0.0271657,0.388587 -0.0814971,0.569298zm43.7214 0l-1.09371 0c0.111025,-0.161813 0.175986,-0.35906 0.175986,-0.569298 0,-0.2752 -0.111025,-0.526778 -0.289374,-0.707489l-0.00472447 -0.00472447c-0.180711,-0.178349 -0.432289,-0.289374 -0.707489,-0.289374l-28.1224 0c-0.2752,0 -0.526778,0.111025 -0.707489,0.289374l-0.00472447 0.00472447c-0.178349,0.180711 -0.289374,0.432289 -0.289374,0.707489 0,0.210239 0.0649614,0.407485 0.175986,0.569298l-1.09371 0c-0.0543314,-0.180711 -0.0814971,-0.372052 -0.0814971,-0.569298 0,-1.10434 0.896468,-2.00081 2.00081,-2.00081l28.1224 0c1.10434,0 2.00081,0.896468 2.00081,2.00081 0,0.197247 -0.0271657,0.388587 -0.0814971,0.569298zm0.633079 9.10523l-1.11143 0c0.128742,-0.1689 0.207877,-0.382682 0.207877,-0.613 0,-0.2752 -0.111025,-0.526778 -0.289374,-0.707489l-0.00472447 -0.00472447c-0.180711,-0.178349 -0.432289,-0.289374 -0.707489,-0.289374l-28.7696 0c-0.2752,0 -0.526778,0.111025 -0.707489,0.289374l-0.00472447 0.00472447c-0.178349,0.180711 -0.289374,0.432289 -0.289374,0.707489 0,0.230318 0.0791348,0.4441 0.207877,0.613l-1.11143 0c-0.0625992,-0.193703 -0.0956705,-0.399218 -0.0956705,-0.613 0,-1.10434 0.896468,-2.00081 2.00081,-2.00081l28.7696 0c1.10434,0 2.00081,0.896468 2.00081,2.00081 0,0.213782 -0.0330713,0.419296 -0.0956705,0.613z"/>
  <polygon class="fil71" points="32.2846,110.867 33.6453,110.006 94.1019,110.006 96.3732,110.614 96.3732,111.616 94.2519,111.007 34.2004,111.007 32.2846,111.868 "/>
  <polygon class="fil72" points="31.0693,111.931 33.8473,111.121 94.4539,111.121 97.0288,111.475 97.0288,112.477 94.5567,112.122 33.7953,112.122 31.0693,112.932 "/>
  <polygon class="fil73" points="31.3492,108.943 32.8386,107.98 33.924,107.98 94.4551,107.98 96.1724,107.98 98.2441,109.145 98.2441,110.146 96.1724,108.982 94.2519,108.982 34.0764,108.982 32.8634,108.982 31.3492,109.944 "/>
 </g>
</svg>
