<?xml version="1.0" encoding="UTF-8"?>
<!DOCTYPE svg PUBLIC "-//W3C//DTD SVG 1.1//EN" "http://www.w3.org/Graphics/SVG/1.1/DTD/svg11.dtd">
<!-- Creator: CorelDRAW -->
<svg xmlns="http://www.w3.org/2000/svg" xml:space="preserve" width="128px" height="128px" style="shape-rendering:geometricPrecision; text-rendering:geometricPrecision; image-rendering:optimizeQuality; fill-rule:evenodd; clip-rule:evenodd"
viewBox="0 0 128 128"
 xmlns:xlink="http://www.w3.org/1999/xlink">
 <defs>
  <style type="text/css">
   <![CDATA[
    .fil49 {fill:#999999}
    .fil61 {fill:#B2B2B2}
    .fil17 {fill:#E5E5E5}
    .fil60 {fill:white}
    .fil19 {fill:#BDE06B}
    .fil50 {fill:#8A8787}
    .fil15 {fill:#8C8C8C}
    .fil27 {fill:black;fill-rule:nonzero}
    .fil23 {fill:#9BBA65;fill-rule:nonzero}
    .fil29 {fill:#A4C94C;fill-rule:nonzero}
    .fil31 {fill:#C3E671;fill-rule:nonzero}
    .fil25 {fill:#D0F280;fill-rule:nonzero}
    .fil18 {fill:#8C8C8C;fill-rule:nonzero}
    .fil33 {fill:#DAFF8F;fill-rule:nonzero}
    .fil38 {fill:#EFEFEF;fill-rule:nonzero}
    .fil24 {fill:#F8FFC4;fill-rule:nonzero}
    .fil0 {fill:black;fill-opacity:0.000000}
    .fil40 {fill:#607A33;fill-opacity:0.000000}
    .fil62 {fill:#ADD158;fill-opacity:0.000000}
    .fil1 {fill:black;fill-opacity:0.007843}
    .fil2 {fill:black;fill-opacity:0.011765}
    .fil3 {fill:black;fill-opacity:0.019608}
    .fil51 {fill:white;fill-opacity:0.023529}
    .fil4 {fill:black;fill-opacity:0.023529}
    .fil5 {fill:black;fill-opacity:0.031373}
    .fil41 {fill:#607A33;fill-opacity:0.031373}
    .fil6 {fill:black;fill-opacity:0.035294}
    .fil7 {fill:black;fill-opacity:0.043137}
    .fil52 {fill:white;fill-opacity:0.047059}
    .fil8 {fill:black;fill-opacity:0.050980}
    .fil9 {fill:black;fill-opacity:0.054902}
    .fil63 {fill:#ADD158;fill-opacity:0.054902}
    .fil10 {fill:black;fill-opacity:0.062745}
    .fil42 {fill:#607A33;fill-opacity:0.062745}
    .fil11 {fill:black;fill-opacity:0.066667}
    .fil53 {fill:white;fill-opacity:0.074510}
    .fil12 {fill:black;fill-opacity:0.074510}
    .fil13 {fill:black;fill-opacity:0.078431}
    .fil43 {fill:#607A33;fill-opacity:0.094118}
    .fil54 {fill:white;fill-opacity:0.098039}
    .fil64 {fill:#ADD158;fill-opacity:0.109804}
    .fil55 {fill:white;fill-opacity:0.121569}
    .fil44 {fill:#607A33;fill-opacity:0.125490}
    .fil56 {fill:white;fill-opacity:0.145098}
    .fil45 {fill:#607A33;fill-opacity:0.156863}
    .fil65 {fill:#ADD158;fill-opacity:0.164706}
    .fil57 {fill:white;fill-opacity:0.172549}
    .fil46 {fill:#607A33;fill-opacity:0.188235}
    .fil58 {fill:white;fill-opacity:0.196078}
    .fil59 {fill:white;fill-opacity:0.219608}
    .fil47 {fill:#607A33;fill-opacity:0.219608}
    .fil30 {fill:#9BBA65;fill-rule:nonzero;fill-opacity:0.219608}
    .fil72 {fill:#F8FFC4;fill-rule:nonzero;fill-opacity:0.219608}
    .fil66 {fill:#ADD158;fill-opacity:0.223529}
    .fil67 {fill:#ADD158;fill-opacity:0.278431}
    .fil68 {fill:#ADD158;fill-opacity:0.333333}
    .fil20 {fill:#9BBA65;fill-opacity:0.439216}
    .fil37 {fill:#DAFF8F;fill-opacity:0.439216}
    .fil39 {fill:#B2B2B2;fill-rule:nonzero;fill-opacity:0.439216}
    .fil32 {fill:#C3E671;fill-rule:nonzero;fill-opacity:0.439216}
    .fil36 {fill:#969696;fill-rule:nonzero;fill-opacity:0.439216}
    .fil16 {fill:#7F7F7F;fill-opacity:0.501961}
    .fil71 {fill:#999999;fill-rule:nonzero;fill-opacity:0.501961}
    .fil28 {fill:#9BBA65;fill-rule:nonzero;fill-opacity:0.501961}
    .fil26 {fill:#C3E671;fill-rule:nonzero;fill-opacity:0.501961}
    .fil34 {fill:#9BBA65;fill-rule:nonzero;fill-opacity:0.780392}
    .fil70 {fill:#CBF774;fill-rule:nonzero;fill-opacity:0.780392}
    .fil21 {fill:url(#id0)}
    .fil14 {fill:url(#id1)}
    .fil48 {fill:url(#id2)}
    .fil35 {fill:url(#id3);fill-rule:nonzero}
    .fil69 {fill:url(#id4);fill-rule:nonzero}
    .fil22 {fill:url(#id5);fill-rule:nonzero;fill-opacity:0.501961}
   ]]>
  </style>
  <linearGradient id="id0" gradientUnits="userSpaceOnUse" x1="65.1941" y1="9.59776" x2="62.709" y2="123.316">
   <stop offset="0" style="stop-color:#C0E36F"/>
   <stop offset="0.419608" style="stop-color:#ACD156"/>
   <stop offset="1" style="stop-color:#9EC444"/>
  </linearGradient>
  <linearGradient id="id1" gradientUnits="userSpaceOnUse" x1="62.8472" y1="124.647" x2="65.2803" y2="2.27837">
   <stop offset="0" style="stop-color:#999999"/>
   <stop offset="1" style="stop-color:#B2B2B2"/>
  </linearGradient>
  <linearGradient id="id2" gradientUnits="userSpaceOnUse" x1="64.2563" y1="116.34" x2="63.8205" y2="120.455">
   <stop offset="0" style="stop-color:#C4C4C4"/>
   <stop offset="1" style="stop-color:#D4D4D4"/>
  </linearGradient>
  <linearGradient id="id3" gradientUnits="userSpaceOnUse" x1="65.5189" y1="74.8344" x2="62.6937" y2="22.4755">
   <stop offset="0" style="stop-color:#EBEBEB"/>
   <stop offset="1" style="stop-color:white"/>
  </linearGradient>
  <linearGradient id="id4" gradientUnits="userSpaceOnUse" x1="64.2221" y1="126.573" x2="63.9079" y2="109.619">
   <stop offset="0" style="stop-color:#7F7F7F"/>
   <stop offset="1" style="stop-color:#8F8F8F"/>
  </linearGradient>
  <linearGradient id="id5" gradientUnits="userSpaceOnUse" x1="34.5855" y1="27.9464" x2="30.3075" y2="123.031">
   <stop offset="0" style="stop-color:#F8FFC4"/>
   <stop offset="1" style="stop-color:#ADD158"/>
  </linearGradient>
 </defs>
 <g id="Слой_x0020_1">
  <metadata id="CorelCorpID_0Corel-Layer"/>
  <g id="_77273376">
   <path id="_79862280" class="fil0" d="M61.8634 107.44c56.872,-2.52287 60.0929,7.343 60.3397,15.24 0.0732292,2.31381 -2.05042,3.55162 -5.9174,4.18115l-105.748 0c-2.93035,-0.629535 -4.78234,-1.51183 -5.3292,-2.71539l0 -3.4087c1.00513,-5.30558 7.99852,-11.1379 56.6546,-13.297z"/>
   <g>
    <path id="_47094512" class="fil1" d="M61.9909 108.411c54.5345,-2.32916 59.7232,7.01111 59.9523,14.4427 0.070867,2.31499 -2.43192,3.46894 -6.92135,4.00753l-103.382 0c-3.98391,-0.703946 -6.21976,-1.78703 -6.21976,-3.38036 0,-5.54534 2.03506,-12.7395 56.5708,-15.0699z"/>
    <path id="_142224192" class="fil2" d="M62.1126 109.383c52.1995,-2.13428 59.357,6.6804 59.5661,13.6443 0.0732292,2.35751 -3.02248,3.40988 -8.4568,3.83391l-25.9692 0c-5.43904,-0.0803159 -11.3293,-0.120474 -17.5207,0l-56.7704 0c-4.56738,-0.643709 -7.16347,-1.67955 -7.16347,-3.25752 0,-5.23707 4.11619,-12.0852 56.3145,-14.2206z"/>
    <path id="_105551208" class="fil3" d="M62.2401 110.355c49.8632,-1.94058 58.9873,6.3485 59.1775,12.847 0.0779537,2.50869 -4.16934,3.40516 -11.3836,3.6591l-14.1781 0c-9.04499,-0.142915 -19.9006,-0.379139 -31.5819,0l-49.6199 0c-5.37054,-0.574023 -8.47569,-1.56144 -8.47569,-3.13587 0,-4.92762 6.19614,-11.4285 56.0617,-13.3702z"/>
    <path id="_45612024" class="fil4" d="M62.363 111.327c47.5317,-1.74687 58.6212,6.01661 58.7925,12.0486 0.171262,5.5607 -25.7153,2.40121 -57.042,3.34256l-4.90282 0.142915 -42.2001 0c-6.56465,-0.488982 -10.4517,-1.42088 -10.4517,-3.01421 0,-4.61817 8.27609,-10.773 55.8042,-12.5198z"/>
    <path id="_74157584" class="fil5" d="M62.4882 112.298c45.1943,-1.55199 58.2527,5.6859 58.405,11.2513 0.151183,4.97605 -25.8818,2.1827 -56.7503,3.01893 -4.05123,0.109844 -8.02451,0.210239 -11.869,0.292917l-31.4957 0c-8.57609,-0.373233 -13.8415,-1.23427 -13.8415,-2.89256 0,-4.3099 10.3572,-10.1174 55.5515,-11.6706z"/>
    <path id="_102971520" class="fil6" d="M62.6134 113.271c42.8592,-1.35828 57.8842,5.354 58.0176,10.4541 0.133466,4.39139 -26.0484,1.9642 -56.4562,2.69531 -9.18673,0.220869 -18.0097,0.395674 -25.8523,0.440557l-7.37253 0c-14.1451,-0.0944894 -23.633,-0.804341 -23.633,-2.76972 0,-4.00044 12.4372,-9.46075 55.2963,-10.8202z"/>
    <path id="_100911280" class="fil7" d="M62.7409 114.244c40.5229,-1.16458 57.5157,5.02211 57.6291,9.65563 0.114568,3.80674 -26.2113,1.74687 -56.1645,2.37286 -29.9519,0.625992 -56.507,0.793711 -56.507,-2.05869 0,-3.69099 14.5183,-8.80523 55.0424,-9.96981z"/>
    <path id="_80498288" class="fil8" d="M62.8649 115.217c38.1891,-0.970878 57.1483,4.69022 57.2428,8.85838 0.0968516,3.22209 -26.3779,1.52837 -55.8716,2.04924 -29.4937,0.520873 -56.1586,0.635441 -56.1586,-1.78821 0,-3.38154 16.5994,-8.14853 54.7873,-9.1194z"/>
    <path id="_77451040" class="fil9" d="M62.9901 116.188c35.8516,-0.775994 56.7798,4.3595 56.8554,8.06112 0.0755915,2.63743 -26.5444,1.30986 -55.5798,1.72561 -29.0378,0.415753 -55.809,0.477171 -55.809,-1.51655 0,-3.07327 18.6805,-7.49301 54.5333,-8.27018z"/>
    <path id="_80802320" class="fil10" d="M63.1153 117.16c33.5177,-0.582291 56.4113,4.02761 56.468,7.26269 0.0578747,2.05396 -26.7086,1.09371 -55.2881,1.40317 -28.5783,0.310634 -55.4593,0.320083 -55.4593,-1.24608 0,-2.76381 20.7617,-6.83749 54.2794,-7.41978z"/>
    <path id="_80406704" class="fil11" d="M63.2405 118.132c31.1827,-0.388587 56.044,3.69571 56.083,6.46543 0.0377957,1.46813 -26.8751,0.875208 -54.9975,1.07954 -28.12,0.205514 -55.1086,0.161813 -55.1086,-0.975603 0,-2.45436 22.8404,-6.18078 54.0231,-6.56937z"/>
    <path id="_107283064" class="fil12" d="M63.3646 119.104c28.8476,-0.193703 55.6767,3.365 55.6944,5.667 0.020079,0.884657 -27.0393,0.657882 -54.7034,0.757096 -27.6606,0.100395 -54.7589,0.00354335 -54.7589,-0.703946 0,-2.14609 24.9204,-5.52645 53.768,-5.72015z"/>
   </g>
   <path id="_101583688" class="fil13" d="M63.4886 120.077c26.5125,0 55.3093,3.03311 55.3093,4.86974 0,0.600007 -108.823,0.558668 -108.823,0 0,-1.83664 27.0027,-4.86974 53.514,-4.86974z"/>
  </g>
  <g id="_100328264">
   <path id="_78679768" class="fil0" d="M62.0193 113.593c43.621,-1.85199 46.0907,5.38707 46.2809,11.1816 0.0555125,1.69726 -1.57325,2.60554 -4.53903,3.06736l-81.1085 0c-2.24767,-0.461817 -3.66855,-1.10907 -4.08785,-1.99254l0 -2.50042c0.771269,-3.89296 6.13472,-8.17215 43.4545,-9.75603z"/>
   <g>
    <path id="_108854528" class="fil1" d="M62.1161 114.305c41.8293,-1.70908 45.8084,5.14376 45.9844,10.597 0.0543314,1.69845 -1.86498,2.54413 -5.30912,2.9398l-79.2943 0c-3.05555,-0.516148 -4.77053,-1.31104 -4.77053,-2.48035 0,-4.06895 1.56144,-9.34736 43.3895,-11.0564z"/>
    <path id="_142943096" class="fil2" d="M62.2106 115.018c40.0375,-1.56616 45.5273,4.90045 45.6868,10.01 0.0566936,1.73034 -2.31735,2.50279 -6.48669,2.81342l-19.9172 0c-4.1717,-0.0590558 -8.69066,-0.0885838 -13.4387,0l-43.5431 0c-3.50319,-0.472447 -5.49574,-1.2319 -5.49574,-2.39058 0,-3.84217 3.15713,-8.86664 43.1946,-10.4328z"/>
    <path id="_80974328" class="fil3" d="M62.3075 115.731c38.2457,-1.42325 45.2439,4.65833 45.3903,9.42649 0.0590558,1.84018 -3.19728,2.49806 -8.73082,2.68468l-10.8745 0c-6.93906,-0.105119 -15.2648,-0.278744 -24.2247,0l-38.0591 0c-4.11855,-0.421659 -6.49969,-1.14568 -6.49969,-2.30082 0,-3.6154 4.75163,-8.38475 42.9986,-9.81036z"/>
    <path id="_101337408" class="fil4" d="M62.4031 116.444c36.4564,-1.28151 44.9628,4.41501 45.0939,8.84066 0.131104,4.07958 -19.7247,1.76105 -43.7521,2.452l-3.76068 0.105119 -32.3673 0c-5.0351,-0.35906 -8.01624,-1.04293 -8.01624,-2.21105 0,-3.38862 6.34732,-7.90522 42.8025,-9.18673z"/>
    <path id="_101234368" class="fil5" d="M62.4988 117.156c34.6634,-1.1386 44.6805,4.1717 44.7962,8.25601 0.115749,3.65083 -19.851,1.60159 -43.5277,2.21459 -3.10752,0.0803159 -6.1548,0.154726 -9.10405,0.214963l-24.1562 0c-6.57882,-0.274019 -10.6171,-0.905917 -10.6171,-2.12247 0,-3.16185 7.94419,-7.42332 42.6088,-8.5631z"/>
    <path id="_103033352" class="fil6" d="M62.5945 117.871c32.8728,-0.996863 44.397,3.92839 44.4998,7.67017 0.102757,3.22209 -19.9786,1.44096 -43.3021,1.97719 -7.04654,0.162994 -13.8132,0.290555 -19.8298,0.323626l-5.65401 0c-10.8497,-0.0696859 -18.1266,-0.590558 -18.1266,-2.0327 0,-2.93508 9.53988,-6.94142 42.4127,-7.93829z"/>
    <path id="_100339000" class="fil7" d="M62.6925 118.584c31.0811,-0.855129 44.1147,3.68508 44.2021,7.08434 0.0874027,2.79334 -20.105,1.28151 -43.0789,1.74097 -22.9739,0.459454 -43.3411,0.582291 -43.3411,-1.51065 0,-2.7083 11.1356,-6.46071 42.2178,-7.31466z"/>
    <path id="_79091448" class="fil8" d="M62.7882 119.298c29.2905,-0.712213 43.8324,3.44177 43.9057,6.49969 0.0732292,2.3646 -20.2325,1.12206 -42.8545,1.50356 -22.6219,0.382682 -43.0742,0.466541 -43.0742,-1.31222 0,-2.48035 12.7324,-5.97881 42.023,-6.69103z"/>
    <path id="_101003608" class="fil9" d="M62.8838 120.01c27.4976,-0.569298 43.5501,3.19965 43.608,5.91503 0.0578747,1.93467 -20.3589,0.961429 -42.6301,1.26616 -22.2723,0.304728 -42.806,0.349611 -42.806,-1.11261 0,-2.25475 14.3281,-5.4981 41.8281,-6.06858z"/>
    <path id="_100380592" class="fil10" d="M62.9795 120.723c25.7082,-0.426383 43.2679,2.95515 43.3116,5.3292 0.0448824,1.50711 -20.4853,0.801978 -42.4056,1.02993 -21.9203,0.227956 -42.5391,0.233861 -42.5391,-0.915366 0,-2.0268 15.925,-5.0162 41.6332,-5.44377z"/>
    <path id="_107092200" class="fil11" d="M63.0752 121.437c23.9176,-0.284649 42.9867,2.71184 43.0163,4.74337 0.0283468,1.07718 -20.614,0.642528 -42.1836,0.792529 -21.5672,0.151183 -42.2686,0.119293 -42.2686,-0.715757 0,-1.8012 17.5183,-4.53431 41.4359,-4.82014z"/>
    <path id="_79198336" class="fil12" d="M63.1709 122.15c22.1259,-0.141734 42.7045,2.46853 42.7186,4.15753 0.0141734,0.649614 -20.7404,0.483077 -41.9592,0.556306 -21.2164,0.0732292 -42.0005,0.00236223 -42.0005,-0.517329 0,-1.57443 19.114,-4.05477 41.2411,-4.19651z"/>
   </g>
   <path id="_79578800" class="fil13" d="M63.2665 122.865c20.3341,0 42.4222,2.22522 42.4222,3.57288 0,0.439375 -83.4683,0.409848 -83.4683,0 0,-1.34765 20.7109,-3.57288 41.0462,-3.57288z"/>
  </g>
  <path class="fil14" d="M24.6794 0.551582l78.7699 0c1.78349,0 3.24098,1.45868 3.24098,3.24098l0 119.34c0,1.78231 -1.45868,3.24098 -3.24098,3.24098l-78.7699 0c-1.78231,0 -3.24098,-1.4575 -3.24098,-3.24098l0 -119.34c0,-1.78349 1.4575,-3.24098 3.24098,-3.24098z"/>
  <path class="fil15" d="M106.69 91.8318l0 31.3008c0,1.78231 -1.45868,3.24098 -3.24098,3.24098l-78.7699 0c-1.78231,0 -3.24098,-1.4575 -3.24098,-3.24098l0 -31.3008 85.2518 0z"/>
  <path class="fil16" d="M21.4385 3.95792l85.2518 0.0212601 0 116.016c-30.8508,-0.00354335 -28.6669,-0.0236223 -85.2518,-0.0259846l0 -116.012z"/>
  <path class="fil17" d="M24.6794 0.0460636l78.7699 0c1.78349,0 3.24098,1.45868 3.24098,3.24098l0 1.53309 -0.00236223 -0.0070867c-0.209058,-1.58388 -1.57325,-2.81814 -3.21382,-2.81814l-78.7699 0c-1.78349,0 -3.24098,1.4575 -3.24098,3.24098l0 117.79c-0.0165356,-0.131104 -0.0248035,-0.26457 -0.0248035,-0.399218l0 -119.34c0,-1.78349 1.4575,-3.24098 3.24098,-3.24098z"/>
  <path class="fil18" d="M24.6794 0.050788l78.7699 0c1.02875,0 1.96538,0.42284 2.64216,1.09962 0.67678,0.67678 1.09962,1.61341 1.09962,2.64216l0 119.34c0,1.02875 -0.42284,1.96538 -1.09962,2.64216l-0.00118112 0c-0.677961,0.67678 -1.61459,1.09962 -2.64098,1.09962l-78.7699 0c-1.02875,0 -1.96538,-0.42284 -2.64216,-1.09962 -0.67678,-0.67678 -1.09962,-1.61341 -1.09962,-2.64216l0 -119.34c0,-1.02875 0.42284,-1.96538 1.09962,-2.64216 0.67678,-0.67678 1.61341,-1.09962 2.64216,-1.09962zm78.7699 1.00159l-78.7699 0c-0.753553,0 -1.44096,0.309453 -1.93585,0.804341 -0.494888,0.494888 -0.804341,1.1823 -0.804341,1.93585l0 119.34c0,0.753553 0.309453,1.44096 0.804341,1.93585 0.494888,0.494888 1.1823,0.804341 1.93585,0.804341l78.7699 0c0.753553,0 1.44096,-0.309453 1.93703,-0.804341l-0.00118112 0c0.494888,-0.494888 0.804341,-1.1823 0.804341,-1.93585l0 -119.34c0,-0.753553 -0.309453,-1.44096 -0.804341,-1.93585 -0.494888,-0.494888 -1.1823,-0.804341 -1.93585,-0.804341z"/>
  <path class="fil19" d="M119.711 33.3559l0.1689 1.03702 -112.446 -0.0259846 0 -22.9196c0,-1.38309 0.546857,-2.65397 1.45041,-3.64138 1.15749,-1.40671 2.91145,-2.3079 4.86502,-2.3079l99.8835 0.0259846c3.46658,0 6.54339,2.85358 6.50441,6.30244l-0.251578 21.5294 -0.174805 0z"/>
  <path class="fil20" d="M7.43513 12.9687l-0.00118112 -0.0330713 0 -1.48821c0,-1.38309 0.546857,-2.65397 1.45041,-3.64138 0.918909,-1.11616 2.21223,-1.91459 3.6839,-2.1957l0.522054 5.90795 0.923633 0.184254c-0.907098,1.70317 -5.65873,2.72366 -6.43591,1.46931 -0.777175,-1.25435 -0.090946,-0.134647 -0.142915,-0.203152z"/>
  <path class="fil20" d="M116.127 6.02842l-0.543314 5.44259 -0.923633 0.184254c0.750009,1.40789 3.62249,3.15949 5.45085,2.34688l0.0259846 -2.17562c0.0295279,-2.5831 -1.69018,-4.83195 -4.00989,-5.7981z"/>
  <path class="fil21" d="M7.4493 28.4507l-0.0141734 -14.0647c0,-1.38309 0.546857,-2.65397 1.45041,-3.64138 1.15749,-1.40671 2.91145,-2.3079 4.86502,-2.3079l99.8835 0.0259846c3.46658,0 6.50087,2.76618 6.4548,6.20086 -0.0637803,4.77171 0.289374,9.59303 0.294098,14.2384l0.0803159 89.2653c0.00354335,3.44177 -2.78153,6.30953 -6.17134,6.30953 -40.647,0 -31.2772,-0.0259846 -100.605,-0.0259846 -3.38862,0 -6.16897,-2.83941 -6.17134,-6.30953l-0.0803159 -89.2653c0,-0.142915 0.00472447,-0.284649 0.0141734,-0.425202z"/>
  <path class="fil22" d="M120.026 39.5816l0.0803159 78.5325c0,1.86144 -0.752371,3.56461 -1.96065,4.80124 -1.20946,1.23781 -2.87956,2.01026 -4.71148,2.01026l-98.8878 -0.0259846c-1.83191,0 -3.50319,-0.768907 -4.71384,-2.00554l-0.00236223 -0.00236223c-1.20592,-1.23309 -1.95593,-2.93508 -1.95593,-4.8036l-0.0803159 -78.5325 0 -4.73982 -0.00236223 0 0 -0.500794 0 -21.9062c0,-0.305909 0.0236223,-0.607094 0.0720481,-0.903554 0.323626,-0.0484258 0.672056,-0.090946 1.04293,-0.129923 -0.0744104,0.333075 -0.113387,0.679142 -0.113387,1.03348l0 21.4054 0.00236223 0 0 0.500794 0 5.24062 0.0803159 78.5325c0,1.60041 0.640165,3.05555 1.6701,4.10911 1.02757,1.04883 2.44491,1.70081 4.00044,1.70081l98.8878 0.0259846c1.55435,0 2.97051,-0.654339 3.99572,-1.70317l0.00236223 -0.00236223c1.02993,-1.05356 1.67246,-2.50987 1.67246,-4.10438l-0.0803159 -78.5325 0 -9.81981 0.00236223 0 0.00590558 -17.0471c0.347248,0.159451 0.682686,0.29646 0.996863,0.402761l-0.00590558 16.6443 0.00236223 0 0 9.81981z"/>
  <path class="fil23" d="M76.8848 25.8228c0.214963,0.070867 0.394493,0.178349 0.543314,0.310634l-0.0685048 0.0696859c-0.0791348,-0.135828 -0.240948,-0.262208 -0.474809,-0.38032z"/>
  <path class="fil24" d="M12.7076 8.06585c0.337799,-0.0531503 0.685048,-0.0803159 1.04293,-0.0803159l0 0.00236223 99.8835 0.0259846 0 -0.00236223 0.0874027 0 0.00590558 0.00236223c0.764183,0.00944894 1.49293,0.142915 2.16853,0.381501l-0.105119 1.05119c-0.686229,-0.271657 -1.39372,-0.426383 -2.06932,-0.435832l0 0.00236223 -0.0874027 0 0 -0.00236223 -99.8835 -0.0259846 0 0.00236223c-0.318902,0 -0.637803,0.0295279 -0.953161,0.0862215l-0.0897649 -1.00749zm107.427 5.97527c0.0106301,0.162994 0.0165356,0.327169 0.0165356,0.493707l0.00236223 0 0 0.0767726 -0.262208 0.101576 0 -0.0767726 0.00236223 0c0,-0.165356 -0.00944894,-0.329532 -0.0295279,-0.492526 0.0921271,-0.0283468 0.183073,-0.0625992 0.270476,-0.102757z"/>
  <path class="fil25" d="M7.71742 14.0553c0,-3.17957 2.07995,-5.53589 4.99022,-5.98944l0.0897649 1.00749c-1.9642,0.351973 -3.78784,1.75278 -4.52722,3.61304 -0.214963,0.53977 -0.334256,1.13151 -0.334256,1.74923l-0.218507 -0.38032z"/>
  <path class="fil26" d="M120.265 119.748c-0.693316,2.7024 -3.11815,4.72919 -5.97291,4.72919 -40.647,0 -31.2772,-0.0259846 -100.605,-0.0259846 -2.85594,0 -5.28077,-2.01735 -5.97291,-4.72919l0.249216 0.050788c0.237404,0.696859 0.625992,1.32167 1.12442,1.83191 0.846861,0.862215 3.12287,1.34647 4.3973,1.34647l100.605 0.0259846c1.27561,0 3.95556,-0.642528 4.80124,-1.50711 0.49725,-0.50788 0.884657,-0.725206 1.12206,-1.41852l0.251578 -0.303547z"/>
  <path class="fil23" d="M8.49932 7.48946l0.00472447 -0.00472447m-0.00472447 0.00472447l0.00472447 -0.00472447m112.381 32.1488l0.0803159 78.5325c0,1.86144 -0.752371,3.56461 -1.96065,4.80124 -1.20946,1.23781 -2.87956,2.01026 -4.71148,2.01026l-100.605 -0.0259846c-1.83191,0 -3.50319,-0.768907 -4.71384,-2.00554l-0.00236223 -0.00236223c-1.20592,-1.23309 -1.95593,-2.93508 -1.95593,-4.8036l-0.0803159 -78.5325 0 -4.73982 -0.00236223 0 0 -0.500794 0 -22.9196c0,-0.738198 0.145277,-1.45514 0.409848,-2.11774 0.269295,-0.677961 0.66615,-1.30041 1.16104,-1.8449 0.63426,-0.771269 1.43742,-1.40199 2.34806,-1.83309 0.878751,-0.415753 1.8638,-0.650795 2.89728,-0.651977l100.338 -0.0755915 0.0118112 0 0.349611 0.00944894 0.0141734 0c1.7327,0.0933082 3.3402,0.846861 4.51069,2.00436l-0.00118112 0.00118112c1.17875,1.16458 1.92286,2.74255 1.92404,4.47525l0 0.0118112 -0.00826782 0.309453 -0.00590558 18.0782 0.00236223 0 0 9.81981zm-112.948 -0.0259846l0.0803159 78.5325c0,1.60041 0.640165,3.05555 1.6701,4.10911 1.02757,1.04883 2.44491,1.70081 4.00044,1.70081l100.605 0.0259846c1.55435,0 2.97051,-0.654339 3.99572,-1.70317l0.00236223 -0.00236223c1.02993,-1.05356 1.67246,-2.50987 1.67246,-4.10438l-0.0803159 -78.5325 0 -9.81981 0.00236223 0 0.00590558 -18.0888 0 -0.0118112 0.00826782 -0.310634c-0.00354335,-1.44687 -0.633079,-2.77208 -1.62758,-3.75359l-0.00236223 0c-1.00395,-0.993319 -2.37877,-1.63821 -3.85871,-1.71853l-0.335437 -0.00944894 -100.326 0.0755915c-0.879932,0 -1.72089,0.201971 -2.47208,0.557487 -0.778356,0.368508 -1.46577,0.908279 -2.0079,1.56852l-0.0177168 0.020079c-0.419296,0.457092 -0.755915,0.985051 -0.982689,1.55553 -0.214963,0.53977 -0.334256,1.13151 -0.334256,1.74923l0 22.4188 0.00236223 0 0 0.500794 0 5.24062z"/>
  <path class="fil25" d="M115.896 8.39538c2.35869,0.832687 4.05477,2.95752 4.23903,5.64574 -0.0874027,0.040158 -0.178349,0.0744104 -0.270476,0.102757 -0.250397,-2.09766 -2.06577,-3.90005 -4.07367,-4.6973l0.105119 -1.05119z"/>
  <polygon class="fil27" points="54.2038,64.7417 54.2003,64.7465 54.2038,64.7476 "/>
  <path class="fil28" d="M45.9218 74.4175c-0.102757,-0.0850404 -0.20079,-0.177168 -0.292917,-0.274019l0.00118112 -0.00118112c-0.533865,-0.559849 -0.857491,-1.27443 -1.05828,-2.25121l-0.0188979 -0.184254 -0.0106301 -0.574023c-0.0177168,-1.0382 -0.0425202,-2.30554 -0.0484258,-3.29177l0.0271657 -0.237404c0.225593,-0.923633 0.452368,-1.56262 0.778356,-2.12601 0.331894,-0.572842 0.744104,-1.03112 1.34411,-1.59687l16.1789 -16.4104c0.171262,-0.302366 0.302366,-0.557487 0.35906,-0.767726 0.688591,-0.0992138 1.37482,-0.204333 2.02089,-0.308272l0.00118112 0.164175c-0.0165356,0.720481 -0.308272,1.30513 -0.711032,2.01026l-0.155907 0.206695 -16.2947 16.5274 -0.0271657 0.0271657c-0.462998,0.435832 -0.771269,0.77245 -0.988595,1.14686 -0.212601,0.367327 -0.373233,0.818514 -0.53977,1.48112 0.00590558,0.934263 0.0295279,2.14491 0.0472447,3.14413l0.00826782 0.470085c0.121655,0.557487 0.28583,0.940169 0.527959,1.19293l0.00472447 0.00354335c0.236223,0.246853 0.601189,0.426383 1.12442,0.577566l0.118112 0c-0.857491,0.205514 -1.67482,0.609456 -2.39531,1.07127z"/>
  <path class="fil29" d="M85.1857 61.7464c0.0177168,0.174805 0.0118112,0.355516 -0.0188979,0.544495l0.0070867 6.16543 0.00472447 3.28587 0 0.070867c-0.0637803,0.890562 -0.274019,1.56616 -0.682686,2.09648 -0.793711,-0.258665 -1.79412,-0.474809 -2.95515,-0.65552 0.611819,-0.0992138 1.02639,-0.233861 1.26498,-0.442919 0.223231,-0.199609 0.340162,-0.563393 0.381501,-1.1386l-0.00472447 -3.21618 -0.0070867 -6.26819 0.0070867 -0.070867c0.715757,-0.0566936 1.40789,-0.164175 2.00317,-0.370871zm-5.99181 2.95279l0.0165356 -1.89805c0.00354335,-0.324807 0.0318902,-0.617724 0.0933082,-0.86694l-0.0696859 -0.0106301c0.0153545,-0.0980327 0.0342524,-0.193703 0.0578747,-0.284649 0.438194,0.312996 0.954342,0.538589 1.57679,0.538589l0.342524 0 -0.00944894 0.050788 -0.0885838 0.556306c0.0555125,0.00236223 0.0885838,0.0118112 0.0885838,0.0330713l-0.0177168 1.98428 -0.00354335 0.0814971c-0.0566936,0.618905 -0.24331,1.08072 -0.656701,1.44451l-0.00118112 -0.00236223c-0.203152,0.17953 -0.441738,0.314177 -0.727568,0.409848 -0.00472447,-0.610637 -0.111025,-1.47876 -0.601189,-2.03625z"/>
  <path class="fil30" d="M77.0289 26.5184c0.346067,0.274019 0.635441,0.682686 0.843317,1.32876l0.0496069 0.304728 0 2.1142 -0.0070867 0.105119c-0.0248035,0.240948 0.135828,0.428745 0.361422,0.533865l0.00354335 0.00354335c0.132285,0.0614181 0.290555,0.102757 0.457092,0.116931 0.175986,0.0153545 0.351973,0.00354335 0.506699,-0.0354335 0.337799,-0.0862215 0.629535,-0.334256 0.685048,-0.766545l0.00236223 -2.31499 0.00826782 -2.30554c-0.0342524,-0.420478 -0.181892,-0.781899 -0.45473,-1.04647 -0.2752,-0.266932 -0.695678,-0.471266 -1.27324,-0.59174l-0.351973 0 1.99136 -1.54372c0.399218,0.193703 0.74056,0.429927 1.02521,0.706308 0.643709,0.625992 0.982689,1.42088 1.05474,2.32444l0 0.0779537 -0.00826782 2.37877 -0.00236223 2.38231 -0.00354335 0.0980327c-0.0271657,0.276381 -0.0850404,0.52914 -0.166537,0.759458 -1.19293,-0.514967 -2.64334,0.146458 -4.06304,0.343705 -0.49725,0.0696859 -0.92009,0.237404 -1.2697,0.4441 -0.353154,-0.4441 -0.548038,-1.01458 -0.493707,-1.69845l0 -1.92286c-0.0566936,-0.14764 -0.103938,-0.219688 -0.144096,-0.246853 -0.0389769,-0.0248035 -0.174805,-0.0460636 -0.32835,-0.0649614l-0.138191 0c1.01458,-0.363784 1.67246,-0.842136 1.71734,-1.47167l-0.00118112 -0.0129923z"/>
  <path class="fil31" d="M73.1666 45.3431c-3.11461,3.27406 -6.24575,6.45008 -9.37452,9.62256 -3.09571,3.13941 -6.19496,6.28354 -9.30366,9.54933l-0.191341 0.155907 -0.0838593 0.060237c0.0106301,0.0188979 0.0271657,0.0425202 0.0519691,0.0637803 0.0696859,0.0614181 0.172443,0.105119 0.290555,0.114568l0 -0.00236223 0.871664 0 -2.46735 1.40199 -0.0153545 -0.0141734 -0.00354335 -0.00354335c-0.294098,-0.263389 -0.516148,-0.592921 -0.633079,-0.955524l0.00236223 -0.00118112c-0.127561,-0.389769 -0.13701,-0.811427 -0.00590558,-1.21301l0.00472447 0c0.132285,-0.395674 0.394493,-0.767726 0.807884,-1.05946 3.07445,-3.22917 6.16543,-6.36386 9.25287,-9.495 3.09571,-3.13941 6.19496,-6.28236 9.30248,-9.54815 0.173624,-0.244491 0.308272,-0.460636 0.405123,-0.654339 0.524416,0.194884 1.226,0.348429 1.96774,0.471266 -0.165356,0.440557 -0.428745,0.902373 -0.793711,1.40553l-0.0850404 0.101576z"/>
  <path class="fil32" d="M76.4171 31.9362c0.349611,-0.206695 0.77245,-0.374414 1.2697,-0.4441 1.4197,-0.197247 2.87011,-0.858672 4.06304,-0.343705 -0.344886,0.968516 -1.12915,1.54372 -2.01499,1.77168 -0.387406,0.0992138 -0.790167,0.129923 -1.17049,0.0968516 -0.389769,-0.0342524 -0.779537,-0.13701 -1.13033,-0.301185l-0.00118112 0.00118112c-0.40158,-0.186616 -0.752371,-0.448824 -1.01576,-0.780718z"/>
  <path class="fil32" d="M57.3102 26.7889c0.468903,0.257483 1.46931,0.792529 2.5205,1.2697l15.4821 -0.0555125c1.01458,-0.363784 1.67246,-0.842136 1.71734,-1.47167l-0.00118112 -0.0129923 -0.155907 -0.113387c-0.424021,-0.278744 -0.809065,-0.340162 -1.21183,-0.389769l-0.121655 -0.00354335 -16.59 0.0578747 -0.155907 0.0118112 -0.0590558 0.00944894c-0.343705,0.0543314 -0.728749,0.118112 -1.08427,0.379139 -0.129923,0.0956705 -0.245672,0.20079 -0.340162,0.318902z"/>
  <path class="fil29" d="M72.0777 43.3647c0.138191,-0.276381 0.199609,-0.505518 0.186616,-0.701583 -0.0212601,-0.315358 -0.26457,-0.664969 -0.700402,-1.09608l0.00118112 -0.00118112c-2.2016,-1.99254 -4.54021,-4.06068 -6.87882,-6.12882 -2.21459,-1.95947 -4.43273,-3.92131 -6.79615,-6.05913l-0.13701 -0.148821c-0.520873,-0.706308 -0.722844,-1.26025 -0.713395,-1.69963l1.78467 0.552763c-0.060237,0.0472447 -0.0354335,0.0366146 0.0318902,0.0106301l0.876389 0.266932c2.0138,1.81538 4.1469,3.70162 6.27409,5.58432 2.26302,2.00199 4.52958,4.00517 6.92725,6.17724l0.0354335 0.030709c0.784262,0.775994 1.22836,1.51065 1.28624,2.37877 0.0283468,0.426383 -0.040158,0.853948 -0.210239,1.30513 -0.741741,-0.122836 -1.44332,-0.276381 -1.96774,-0.471266z"/>
  <path class="fil23" d="M79.2919 61.6389c0.438194,0.312996 0.954342,0.538589 1.57679,0.538589l0.342524 0c0.0779537,-0.357878 0.356697,-0.543314 0.670874,-0.596464 0.175986,-0.0295279 0.367327,-0.0271657 0.548038,0.00236223 0.184254,0.030709 0.360241,0.0874027 0.503156,0.164175l-0.00118112 0.00118112c0.15827,0.0850404 0.274019,0.17953 0.262208,0.236223l-0.0118112 0.132285c0.715757,-0.0566936 1.40789,-0.164175 2.00317,-0.370871 -0.0755915,-0.76182 -0.59174,-1.3701 -1.30868,-1.75514l-0.00354335 0c-0.336618,-0.17953 -0.722844,-0.310634 -1.11497,-0.375595l-0.00354335 0c-0.394493,-0.0637803 -0.809065,-0.0685048 -1.20474,-0.00236223l-0.00354335 0c-1.03348,0.175986 -1.95239,0.798435 -2.25475,2.02562z"/>
  <path class="fil23" d="M55.4275 64.9071l23.4263 0c0.205514,-0.0248035 0.321264,-0.0496069 0.349611,-0.0755915l0 -0.00354335c0.00826782,-0.0070867 0.00354335,-0.0177168 -0.00236223,-0.0425202l-0.00826782 0 0.00118112 -0.0862215c0.490164,0.557487 0.596464,1.42561 0.601189,2.03625 -0.229137,0.0779537 -0.490164,0.129923 -0.787805,0.162994l-0.109844 0.0070867 -24.3416 0 -0.0271657 -0.00354335c-0.624811,-0.0165356 -1.17167,-0.250397 -1.56852,-0.592921l2.46735 -1.40199z"/>
  <path class="fil33" d="M84.4959 73.9096c-0.109844,0.141734 -0.233861,0.2752 -0.373233,0.398036l-0.00354335 0.00354335c-0.610637,0.535046 -1.44687,0.810246 -2.61617,0.96261l-0.128742 0.0070867 -32.013 0.060237 0 0.00354335 -1.29569 0 -0.257483 -0.0342524c-0.783081,-0.210239 -1.3949,-0.485439 -1.88624,-0.892924 0.720481,-0.461817 1.53781,-0.865759 2.39531,-1.07127l1.04411 0 0 0.00354335 31.9374 -0.060237 0.242129 -0.0354335c1.16104,0.180711 2.16144,0.396855 2.95515,0.65552z"/>
  <path class="fil28" d="M63.1815 46.7025c0.0188979,-0.0685048 0.0295279,-0.132285 0.030709,-0.191341 0.00590558,-0.233861 -0.135828,-0.532684 -0.509061,-0.981508 -2.78625,-2.55003 -5.85598,-5.31503 -8.91743,-8.07175 -3.02366,-2.72366 -6.05559,-5.45558 -9.34145,-8.46625l-0.248035 -0.223231 -0.00118112 0.00118112c-0.758277,-0.670874 -1.50474,-1.33112 -1.47522,-2.65633l-0.00354335 0 0 -0.414572 0.0070867 -0.0933082c0.0933082,-0.980327 0.255121,-1.69963 0.675599,-2.28074l1.53545 1.31931c-0.111025,0.239767 -0.172443,0.595283 -0.219688,1.07482l0 0.394493 -0.00354335 0.030709c-0.0129923,0.409848 0.393312,0.770088 0.804341,1.13269l0.00354335 0.00472447 0.261027 0.233861 0.00826782 0.0070867c2.93862,2.69295 6.13354,5.57133 9.332,8.45207 2.90555,2.61617 5.80637,5.22762 8.9883,8.14262l0.0897649 0.0897649c0.692135,0.818514 0.980327,1.50238 1.00395,2.18743 -0.646071,0.103938 -1.3323,0.209058 -2.02089,0.308272z"/>
  <path class="fil34" d="M43.399 23.3247l0.150002 -0.188979 0.00354335 0c0.535046,-0.611819 1.31458,-0.949618 2.57365,-1.15395l0.160632 -0.0153545 32.0106 0 0.183073 0.0188979c0.516148,0.0956705 0.972059,0.244491 1.3701,0.435832l-1.99136 1.54372 -31.5039 0c-0.711032,0.121655 -1.11025,0.265751 -1.30159,0.483077l0.00236223 0.00118112c-0.0460636,0.0531503 -0.0862215,0.118112 -0.121655,0.194884l-1.53545 -1.31931z"/>
  <path class="fil35" d="M72.4438 44.6557c-6.22449,6.54221 -12.4513,12.6297 -18.6782,19.1719 -1.1008,0.692135 -0.432289,2.04451 0.790167,2.07877l24.3416 0c0.921271,-0.102757 1.226,-0.400399 1.29096,-1.11261 0.00826782,-1.13505 0.0224412,-2.71775 0.0295279,-2.71775 0.382682,-2.43192 4.3099,-1.58742 3.9532,0.112206 0,3.04138 0.00826782,6.51386 0.0118112,9.55405 -0.124017,1.71262 -0.862215,2.289 -2.8087,2.54294l-32.013 0.060237 -1.29569 0c-1.54018,-0.413391 -2.19097,-1.07245 -2.51696,-2.65397 -0.020079,-1.11734 -0.0519691,-2.69767 -0.0590558,-3.85398 0.403942,-1.65238 0.777175,-2.22877 1.84136,-3.2339l16.2947 -16.5274c0.662607,-1.16222 0.954342,-1.87325 -0.188979,-3.22445 -6.10401,-5.58905 -12.2139,-10.9962 -18.3203,-16.5947 -0.663788,-0.609456 -1.43269,-1.13505 -1.4008,-2.14373l0 -0.414572c0.171262,-1.76813 0.537408,-2.40357 2.57129,-2.7331 10.6371,0 21.3735,0 32.0106,0 1.72207,0.321264 2.5335,1.27561 2.63743,2.5642 -0.0070867,1.58506 -0.0106301,3.17484 -0.0106301,4.76108 -0.252759,2.51814 -4.23076,2.12247 -4.00162,-0.0248035 0,-0.703946 0,-1.40907 0,-2.1142 -0.318902,-0.988595 -0.810246,-1.07245 -1.38309,-1.1445l-16.59 0.0578747c-0.584653,0.0956705 -1.42325,0.175986 -0.392131,1.57443 4.56856,4.13273 9.14066,8.08356 13.7092,12.2198 1.22246,1.21064 1.36773,2.15672 0.177168,3.79611z"/>
  <path class="fil36" d="M53.9298 65.7587c0.183073,0.0874027 0.394493,0.141734 0.625992,0.14764l24.3416 0c0.336618,-0.0377957 0.590558,-0.100395 0.780718,-0.20079 0.0874027,0.360241 0.114568,0.726387 0.116931,1.02993 -0.229137,0.0779537 -0.490164,0.129923 -0.787805,0.162994l-0.109844 0.0070867 -24.3416 0 -0.0271657 -0.00354335c-0.624811,-0.0165356 -1.17167,-0.250397 -1.56852,-0.592921l0.969697 -0.5504z"/>
  <path class="fil36" d="M44.162 23.9802c0.348429,-0.53977 0.966154,-0.826782 2.12483,-1.01458 10.6371,0 21.3735,0 32.0106,0 0.230318,0.0425202 0.4441,0.0968516 0.641346,0.161813l0.86694 0.318902 0.479533 0.631898 -2.42601 -0.113387 -31.5039 0c-1.4823,-0.322445 -1.34884,0.374414 -2.19333,0.0153545z"/>
  <path class="fil34" d="M26.0885 99.3863l-0.0590558 -0.0566936 -0.00472447 -0.00472447c-0.540952,-0.542133 -0.87757,-1.29332 -0.87757,-2.11774 0,-0.82442 0.336618,-1.57561 0.87757,-2.11774l0.00472447 -0.00472447c0.542133,-0.540952 1.29214,-0.87757 2.11774,-0.87757l17.2608 0c0.825601,0 1.57561,0.336618 2.11774,0.87757l0.00472447 0.00472447c0.540952,0.542133 0.87757,1.29332 0.87757,2.11774 0,0.82442 -0.336618,1.57561 -0.87757,2.11774l-0.00472447 0.00472447 -0.0956705 0.090946 -1.08663 -1.41734 -0.324807 0 0.0968516 -0.0838593 0.00472447 -0.00472447c0.178349,-0.180711 0.289374,-0.432289 0.289374,-0.707489 0,-0.2752 -0.111025,-0.526778 -0.289374,-0.707489l-0.00472447 -0.00472447c-0.180711,-0.178349 -0.431108,-0.289374 -0.707489,-0.289374l-17.2608 0c-0.276381,0 -0.526778,0.111025 -0.707489,0.289374l-0.00472447 0.00472447c-0.178349,0.180711 -0.289374,0.432289 -0.289374,0.707489 0,0.2752 0.111025,0.526778 0.289374,0.707489l0.00472447 0.00472447 0.0956705 0.0826782 -0.668512 0 -0.778356 1.38427zm-0.127561 -9.19145c-0.501975,-0.536227 -0.811427,-1.25907 -0.811427,-2.04924 0,-0.82442 0.336618,-1.57561 0.87757,-2.11774l0.00472447 -0.00472447c0.542133,-0.540952 1.29214,-0.87757 2.11774,-0.87757l17.2585 0c0.825601,0 1.57561,0.336618 2.11774,0.87757l0.00472447 0.00472447c0.540952,0.542133 0.87757,1.29332 0.87757,2.11774 0,0.796073 -0.314177,1.52246 -0.822057,2.05987l-1.24253 -1.61931 -0.0354335 0c0.0649614,-0.133466 0.101576,-0.283468 0.101576,-0.440557 0,-0.2752 -0.111025,-0.526778 -0.289374,-0.707489l-0.00472447 -0.00472447c-0.180711,-0.178349 -0.431108,-0.289374 -0.707489,-0.289374l-17.2585 0c-0.276381,0 -0.526778,0.111025 -0.707489,0.289374l-0.00472447 0.00472447c-0.178349,0.180711 -0.289374,0.432289 -0.289374,0.707489 0,0.157089 0.0366146,0.30709 0.100395,0.439375l-0.381501 0 -0.905917 1.60986zm26.8633 0.435832c-0.15827,-0.107482 -0.304728,-0.227956 -0.439375,-0.362603l-0.00472447 -0.00472447c-0.540952,-0.542133 -0.87757,-1.29332 -0.87757,-2.11774 0,-0.82442 0.336618,-1.57561 0.87757,-2.11774l0.00472447 -0.00472447c0.542133,-0.540952 1.29214,-0.87757 2.11774,-0.87757l19.4884 0c0.825601,0 1.57561,0.336618 2.11774,0.87757l0.00472447 0.00472447c0.540952,0.542133 0.87757,1.29332 0.87757,2.11774 0,0.82442 -0.336618,1.57561 -0.87757,2.11774l-0.00472447 0.00472447c-0.116931,0.116931 -0.244491,0.225593 -0.38032,0.322445l-1.2449 -1.57089c0.0791348,-0.0448824 0.151183,-0.0992138 0.214963,-0.161813l0.00472447 -0.00472447c0.178349,-0.180711 0.289374,-0.432289 0.289374,-0.707489 0,-0.2752 -0.111025,-0.526778 -0.289374,-0.707489l-0.00472447 -0.00472447c-0.180711,-0.178349 -0.431108,-0.289374 -0.707489,-0.289374l-19.4884 0c-0.276381,0 -0.526778,0.111025 -0.707489,0.289374l-0.00472447 0.00472447c-0.178349,0.180711 -0.289374,0.432289 -0.289374,0.707489 0,0.2752 0.111025,0.526778 0.289374,0.707489l0.00472447 0.00472447 0.0389769 0.0366146 -1.00985 1.73624zm28.1744 -0.333075l-0.030709 -0.0295279 -0.00472447 -0.00472447c-0.540952,-0.542133 -0.87757,-1.29332 -0.87757,-2.11774 0,-0.82442 0.336618,-1.57561 0.87757,-2.11774l0.00472447 -0.00472447c0.542133,-0.540952 1.29214,-0.87757 2.11774,-0.87757l17.5561 0c0.825601,0 1.57561,0.336618 2.11774,0.87757l0.00472447 0.00472447c0.540952,0.542133 0.87757,1.29332 0.87757,2.11774 0,0.627173 -0.194884,1.21183 -0.526778,1.6949l-0.9945 -1.25435 -0.578747 0c0.0649614,-0.133466 0.101576,-0.283468 0.101576,-0.440557 0,-0.2752 -0.111025,-0.526778 -0.289374,-0.707489l-0.00472447 -0.00472447c-0.180711,-0.178349 -0.431108,-0.289374 -0.707489,-0.289374l-17.5561 0c-0.276381,0 -0.526778,0.111025 -0.707489,0.289374l-0.00472447 0.00472447c-0.178349,0.180711 -0.289374,0.432289 -0.289374,0.707489 0,0.157089 0.0366146,0.30709 0.100395,0.439375l-0.19016 0 -0.995682 1.71262zm-28.0232 9.49027c-0.216144,-0.128742 -0.414572,-0.282287 -0.590558,-0.458273l-0.00472447 -0.00472447c-0.540952,-0.542133 -0.87757,-1.29332 -0.87757,-2.11774 0,-0.82442 0.336618,-1.57561 0.87757,-2.11774l0.00472447 -0.00472447c0.542133,-0.540952 1.29214,-0.87757 2.11774,-0.87757l19.4884 0c0.825601,0 1.57561,0.336618 2.11774,0.87757l0.00472447 0.00472447c0.540952,0.542133 0.87757,1.29332 0.87757,2.11774 0,0.82442 -0.336618,1.57561 -0.87757,2.11774l-0.00472447 0.00472447c-0.170081,0.1689 -0.360241,0.31772 -0.565755,0.442919l-1.27206 -1.60396c0.164175,-0.0472447 0.310634,-0.133466 0.427564,-0.249216l0.00472447 -0.00472447c0.178349,-0.180711 0.289374,-0.432289 0.289374,-0.707489 0,-0.2752 -0.111025,-0.526778 -0.289374,-0.707489l-0.00472447 -0.00472447c-0.180711,-0.178349 -0.431108,-0.289374 -0.707489,-0.289374l-19.4884 0c-0.276381,0 -0.526778,0.111025 -0.707489,0.289374l-0.00472447 0.00472447c-0.178349,0.180711 -0.289374,0.432289 -0.289374,0.707489 0,0.2752 0.111025,0.526778 0.289374,0.707489l0.00472447 0.00472447c0.0555125,0.0543314 0.116931,0.102757 0.183073,0.142915l-1.00277 1.72561zm28.1578 -0.305909l-0.165356 -0.152364 -0.00472447 -0.00472447c-0.540952,-0.542133 -0.87757,-1.29332 -0.87757,-2.11774 0,-0.82442 0.336618,-1.57561 0.87757,-2.11774l0.00472447 -0.00472447c0.542133,-0.540952 1.29214,-0.87757 2.11774,-0.87757l17.5538 0c0.825601,0 1.57561,0.336618 2.11774,0.87757l0.00472447 0.00472447c0.540952,0.542133 0.87757,1.29332 0.87757,2.11774 0,0.70867 -0.248035,1.36301 -0.661425,1.87679l-0.857491 -1.08072 -0.870483 0 0.0968516 -0.0838593 0.00472447 -0.00472447c0.178349,-0.180711 0.289374,-0.432289 0.289374,-0.707489 0,-0.2752 -0.111025,-0.526778 -0.289374,-0.707489l-0.00472447 -0.00472447c-0.180711,-0.178349 -0.431108,-0.289374 -0.707489,-0.289374l-17.5538 0c-0.276381,0 -0.526778,0.111025 -0.707489,0.289374l-0.00472447 0.00472447c-0.178349,0.180711 -0.289374,0.432289 -0.289374,0.707489 0,0.2752 0.111025,0.526778 0.289374,0.707489l0.00472447 0.00472447 0.0956705 0.0826782 -0.479533 0 -0.861034 1.47994z"/>
  <path class="fil37" d="M26.8669 88.5849l-0.905917 1.60986 0.0661425 0.0685048 0.00472447 0.00472447c0.542133,0.540952 1.29214,0.87757 2.11774,0.87757l17.2585 0c0.825601,0 1.57561,-0.336618 2.11774,-0.87757l0.00472447 -0.00472447 0.0555125 -0.0578747 -1.24253 -1.61931 -0.0354335 0c-0.0472447,0.0992138 -0.112206,0.19016 -0.187798,0.266932l-0.00472447 0.00472447c-0.180711,0.178349 -0.431108,0.289374 -0.707489,0.289374l-17.2585 0c-0.276381,0 -0.526778,-0.111025 -0.707489,-0.289374l-0.00472447 -0.00472447c-0.0767726,-0.0779537 -0.140553,-0.167719 -0.188979,-0.268114l-0.381501 0zm1.28033 11.6222c-0.796073,0 -1.52128,-0.312996 -2.05869,-0.820876l0.778356 -1.38427 0.668512 0c0.1689,0.129923 0.381501,0.206695 0.611819,0.206695l17.2608 0c0.230318,0 0.441738,-0.0767726 0.610637,-0.205514l0.324807 0 1.08663 1.41734c-0.532684,0.487801 -1.24372,0.786624 -2.02207,0.786624l-17.2608 0zm26.3554 -9.06153c-0.621267,0 -1.19883,-0.19016 -1.67837,-0.514967l1.00985 -1.73624c0.177168,0.157089 0.411029,0.252759 0.668512,0.252759l19.4884 0c0.178349,0 0.347248,-0.0460636 0.492526,-0.127561l1.2449 1.57089c-0.490164,0.349611 -1.09017,0.555125 -1.73742,0.555125l-19.4884 0zm28.583 0c-0.810246,0 -1.54726,-0.324807 -2.08703,-0.848042l0.995682 -1.71262 0.19016 0c0.0484258,0.100395 0.112206,0.19016 0.188979,0.268114l0.00472447 0.00472447c0.180711,0.178349 0.431108,0.289374 0.707489,0.289374l17.5561 0c0.276381,0 0.526778,-0.111025 0.707489,-0.289374l0.00472447 -0.00472447c0.0755915,-0.0767726 0.140553,-0.167719 0.187798,-0.266932l0.578747 0 0.9945 1.25435c-0.103938,0.151183 -0.220869,0.292917 -0.350792,0.42284l-0.00472447 0.00472447c-0.542133,0.540952 -1.29214,0.87757 -2.11774,0.87757l-17.5561 0zm-28.583 9.06153c-0.557487,0 -1.07954,-0.153545 -1.52718,-0.419296l1.00277 -1.72561c0.152364,0.0933082 0.331894,0.146458 0.524416,0.146458l19.4884 0c0.0968516,0 0.191341,-0.0153545 0.279925,-0.040158l1.27206 1.60396c-0.453549,0.274019 -0.985051,0.434651 -1.55199,0.434651l-19.4884 0zm28.583 0c-0.745285,0 -1.42797,-0.274019 -1.95239,-0.725206l0.861034 -1.47994 0.479533 0c0.1689,0.128742 0.381501,0.206695 0.611819,0.206695l17.5538 0c0.230318,0 0.441738,-0.0767726 0.610637,-0.205514l0.870483 0 0.857491 1.08072c-0.0673237,0.0850404 -0.140553,0.165356 -0.216144,0.240948l-0.00472447 0.00472447c-0.542133,0.540952 -1.29214,0.87757 -2.11774,0.87757l-17.5538 0z"/>
  <path class="fil38" d="M28.1472 99.2079c-1.10434,0 -2.00081,-0.896468 -2.00081,-2.00081 0,-1.10434 0.896468,-2.00081 2.00081,-2.00081l17.2608 0c1.10434,0 2.00081,0.896468 2.00081,2.00081 0,1.10434 -0.896468,2.00081 -2.00081,2.00081l-17.2608 0zm0.00236223 -9.06153c-1.10434,0 -2.00081,-0.896468 -2.00081,-2.00081 0,-1.10434 0.896468,-2.00081 2.00081,-2.00081l17.2585 0c1.10434,0 2.00081,0.896468 2.00081,2.00081 0,1.10434 -0.896468,2.00081 -2.00081,2.00081l-17.2585 0zm26.3531 0c-1.10434,0 -2.00081,-0.896468 -2.00081,-2.00081 0,-1.10434 0.896468,-2.00081 2.00081,-2.00081l19.4884 0c1.10434,0 2.00081,0.896468 2.00081,2.00081 0,1.10434 -0.896468,2.00081 -2.00081,2.00081l-19.4884 0zm28.583 0c-1.10434,0 -2.00081,-0.896468 -2.00081,-2.00081 0,-1.10434 0.896468,-2.00081 2.00081,-2.00081l17.5561 0c1.10434,0 2.00081,0.896468 2.00081,2.00081 0,1.10434 -0.896468,2.00081 -2.00081,2.00081l-17.5561 0zm-28.583 9.06153c-1.10434,0 -2.00081,-0.896468 -2.00081,-2.00081 0,-1.10434 0.896468,-2.00081 2.00081,-2.00081l19.4884 0c1.10434,0 2.00081,0.896468 2.00081,2.00081 0,1.10434 -0.896468,2.00081 -2.00081,2.00081l-19.4884 0zm28.583 0c-1.10434,0 -2.00081,-0.896468 -2.00081,-2.00081 0,-1.10434 0.896468,-2.00081 2.00081,-2.00081l17.5538 0c1.10434,0 2.00081,0.896468 2.00081,2.00081 0,1.10434 -0.896468,2.00081 -2.00081,2.00081l-17.5538 0z"/>
  <path class="fil39" d="M26.2444 96.587c0.261027,-0.800797 1.01458,-1.38073 1.90278,-1.38073l17.2608 0c0.8882,0 1.64175,0.579928 1.90278,1.38073l-1.11497 0 -0.0755915 -0.0874027 -0.00472447 -0.00472447c-0.180711,-0.178349 -0.431108,-0.289374 -0.707489,-0.289374l-17.2608 0c-0.276381,0 -0.526778,0.111025 -0.707489,0.289374l-0.00472447 0.00472447 -0.0755915 0.0874027 -1.11497 0zm19.8569 -9.16665c-0.17953,-0.171262 -0.424021,-0.276381 -0.693316,-0.276381l-17.2585 0c-0.269295,0 -0.513786,0.105119 -0.693316,0.276381l-1.17167 0c0.290555,-0.746466 1.01694,-1.27561 1.86498,-1.27561l17.2585 0c0.848042,0 1.57443,0.52914 1.86498,1.27561l-1.17167 0zm28.583 0c-0.17953,-0.171262 -0.424021,-0.276381 -0.693316,-0.276381l-19.4884 0c-0.269295,0 -0.513786,0.105119 -0.693316,0.276381l-1.17167 0c0.290555,-0.746466 1.01694,-1.27561 1.86498,-1.27561l19.4884 0c0.848042,0 1.57443,0.52914 1.86498,1.27561l-1.17167 0zm26.6507 0c-0.17953,-0.171262 -0.424021,-0.276381 -0.693316,-0.276381l-17.5561 0c-0.269295,0 -0.513786,0.105119 -0.693316,0.276381l-1.17167 0c0.290555,-0.746466 1.01694,-1.27561 1.86498,-1.27561l17.5561 0c0.848042,0 1.57443,0.52914 1.86498,1.27561l-1.17167 0zm-26.5562 9.16665l-0.0755915 -0.0874027 -0.00472447 -0.00472447c-0.180711,-0.178349 -0.431108,-0.289374 -0.707489,-0.289374l-19.4884 0c-0.276381,0 -0.526778,0.111025 -0.707489,0.289374l-0.00472447 0.00472447 -0.0755915 0.0874027 -1.11497 0c0.261027,-0.800797 1.01458,-1.38073 1.90278,-1.38073l19.4884 0c0.8882,0 1.64175,0.579928 1.90278,1.38073l-1.11497 0zm26.6484 0l-0.0755915 -0.0874027 -0.00472447 -0.00472447c-0.180711,-0.178349 -0.431108,-0.289374 -0.707489,-0.289374l-17.5538 0c-0.276381,0 -0.526778,0.111025 -0.707489,0.289374l-0.00472447 0.00472447 -0.0755915 0.0874027 -1.11497 0c0.261027,-0.800797 1.01458,-1.38073 1.90278,-1.38073l17.5538 0c0.8882,0 1.64175,0.579928 1.90278,1.38073l-1.11497 0z"/>
  <g id="_102883968">
   <path id="_102525528" class="fil0" d="M62.0193 113.593c43.621,-1.85199 46.0907,5.38707 46.2809,11.1816 0.0555125,1.69726 -1.57325,2.60554 -4.53903,3.06736l-81.1085 0c-2.24767,-0.461817 -3.66855,-1.10907 -4.08785,-1.99254l0 -2.50042c0.771269,-3.89296 6.13472,-8.17215 43.4545,-9.75603z"/>
   <path id="_79931616" class="fil13" d="M63.2665 122.865c20.3341,0 42.4222,2.22522 42.4222,3.57288 0,0.439375 -83.4683,0.409848 -83.4683,0 0,-1.34765 20.7109,-3.57288 41.0462,-3.57288z"/>
  </g>
  <g id="_111343496">
   <path id="_76462400" class="fil40" d="M30.7516 108.882l66.9953 0.203152c2.32444,0.00590558 3.48075,1.45868 4.22486,3.03783l6.49614 10.7328c0.343705,0.568117 0.167719,1.13387 -0.309453,1.62049 -32.613,-0.00236223 -29.1488,-0.0248035 -88.1999,-0.0259846 -0.458273,-0.481896 -0.620086,-1.03702 -0.271657,-1.59451l6.83985 -10.936c0.953161,-1.52364 1.90042,-3.04374 4.22486,-3.03783z"/>
   <g>
    <path id="_47108112" class="fil41" d="M31.2181 108.997c22.0326,0.0791348 44.0604,0.15827 66.0929,0.238586 2.29137,0.0070867 3.42996,1.45868 4.16344,3.03783 2.11656,3.528 4.23312,7.05481 6.35087,10.5816 0.341343,0.568117 0.166537,1.13505 -0.304728,1.62167 -31.824,-0.00354335 -28.9256,-0.0248035 -86.9633,-0.0259846 -0.45473,-0.481896 -0.616543,-1.0382 -0.268114,-1.59569 2.25593,-3.60713 4.51069,-7.21426 6.76544,-10.8202 0.949618,-1.5201 1.87207,-3.04374 4.16344,-3.03783z"/>
    <path id="_77601856" class="fil42" d="M31.6823 109.113c21.7314,0.090946 43.4604,0.183073 65.1917,0.2752 2.25711,0.00826782 3.38036,1.45868 4.1032,3.03783 2.06814,3.47603 4.13627,6.95205 6.20559,10.4293 0.337799,0.568117 0.165356,1.13387 -0.298823,1.62167 -31.0421,-0.00354335 -28.7011,-0.0248035 -85.7349,-0.0259846 -0.450006,-0.481896 -0.607094,-1.03938 -0.259846,-1.59569 2.23113,-3.56934 4.46108,-7.13631 6.68985,-10.7045 0.948437,-1.51537 1.84609,-3.04374 4.1032,-3.03783z"/>
    <path id="_74332168" class="fil43" d="M32.1465 109.229c21.4314,0.102757 42.8592,0.206695 64.2906,0.310634 2.22404,0.00944894 3.32957,1.45868 4.04178,3.03783 2.01971,3.42642 4.03942,6.85166 6.06031,10.2781 0.334256,0.568117 0.164175,1.13387 -0.294098,1.62167 -30.2661,-0.00354335 -28.4708,-0.0236223 -84.503,-0.0259846 -0.4441,-0.483077 -0.600007,-1.04056 -0.252759,-1.59569 2.20633,-3.53036 4.41147,-7.05954 6.61544,-10.5887 0.944894,-1.51183 1.81774,-3.04374 4.04178,-3.03783z"/>
    <path id="_103149536" class="fil44" d="M32.6083 109.343c21.1314,0.115749 42.2604,0.231499 63.3917,0.348429 2.18861,0.0106301 3.27878,1.45868 3.97918,3.03783 1.97128,3.37445 3.94257,6.75008 5.91503,10.1257 0.330713,0.566936 0.162994,1.13387 -0.289374,1.62167 -29.5043,-0.00354335 -28.2299,-0.0236223 -83.2699,-0.0259846 -0.439375,-0.483077 -0.592921,-1.04175 -0.245672,-1.59569 2.18034,-3.49138 4.3595,-6.98276 6.53984,-10.4741 0.94135,-1.50711 1.79057,-3.04374 3.97918,-3.03783z"/>
    <path id="_114686600" class="fil45" d="M33.0725 109.459c20.8314,0.127561 41.6592,0.255121 62.4905,0.383863 2.15554,0.0118112 3.22799,1.45868 3.91776,3.03783 1.92286,3.32484 3.84572,6.64969 5.76976,9.97453 0.327169,0.566936 0.164175,1.13387 -0.281106,1.62167 -28.7437,-0.00472447 -27.9937,-0.0236223 -82.0416,-0.0259846 -0.43347,-0.484258 -0.584653,-1.04175 -0.238586,-1.59569 2.15554,-3.4524 4.3099,-6.90599 6.46543,-10.3584 0.937807,-1.50356 1.76223,-3.04374 3.91776,-3.03783z"/>
    <path id="_46661544" class="fil46" d="M33.5366 109.575c20.5302,0.139372 41.0592,0.279925 61.5893,0.420478 2.12129,0.0129923 3.17839,1.45868 3.85753,3.03783 1.87443,3.27287 3.74887,6.54693 5.62448,9.82217 0.323626,0.566936 0.162994,1.13269 -0.276381,1.62049 -27.9948,-0.00354335 -27.7669,-0.0224412 -80.8108,-0.0248035 -0.428745,-0.484258 -0.577566,-1.04293 -0.231499,-1.59569 2.13073,-3.41461 4.26029,-6.82804 6.38984,-10.2426 0.936626,-1.49884 1.73624,-3.04374 3.85753,-3.03783z"/>
   </g>
   <path id="_78168960" class="fil47" d="M33.9996 109.692l60.6893 0.455911c2.08821,0.0141734 3.1276,1.45868 3.79611,3.03783l5.4792 9.67099c0.320083,0.565755 0.162994,1.13151 -0.268114,1.61931 -27.2555,-0.00354335 -27.5389,-0.0224412 -79.5848,-0.0248035 -0.42284,-0.484258 -0.568117,-1.04293 -0.223231,-1.59451l6.31543 -10.1269c0.933082,-1.49529 1.7079,-3.04374 3.79611,-3.03783z"/>
  </g>
  <path class="fil48" d="M33.5886 110.907l61.5386 0.203152c2.00081,0.00590558 2.99649,1.45868 3.63666,3.03783l3.53036 8.70837c0.642528,1.58152 -1.63939,3.03783 -3.63784,3.03783l-69.1615 0c-1.99845,0 -4.35478,-1.47758 -3.63784,-3.03783l4.09493 -8.91153c0.716938,-1.56026 1.63585,-3.04374 3.63666,-3.03783z"/>
  <path class="fil49" d="M25.7708 122.866l76.5694 -0.108663c0.472447,1.53073 -1.73979,2.90909 -3.6839,2.90909l-69.1615 0c-1.89687,0 -4.11619,-1.33112 -3.72406,-2.80043z"/>
  <path class="fil50" d="M25.9184 122.976l76.1962 -0.263389 0.17953 0.375595c0.642528,1.34293 -1.63939,2.57838 -3.63784,2.57838l-69.1615 0c-1.99845,0 -4.35478,-1.25435 -3.63784,-2.57838l0.0614181 -0.112206z"/>
  <g id="_79778416">
   <g>
    <path id="_79410536" class="fil51" d="M27.3358 120.357l73.6533 0 1.30513 2.73074c0.0318902,0.0673237 0.0566936,0.134647 0.0744104,0.20079l-76.5978 0c0.0212601,-0.0661425 0.0496069,-0.133466 0.0862215,-0.20079l1.47876 -2.73074z"/>
    <polygon id="_76666952" class="fil52" points="27.2838,120.454 101.036,120.454 102.294,123.088 102.338,123.192 25.8074,123.192 25.857,123.088 "/>
    <polygon id="_112057192" class="fil53" points="27.2307,120.552 101.082,120.552 102.294,123.088 102.297,123.095 25.8535,123.095 25.857,123.088 "/>
    <polygon id="_27316136" class="fil54" points="27.1775,120.649 101.128,120.649 102.25,122.997 25.9066,122.997 "/>
    <polygon id="_79554200" class="fil55" points="27.1255,120.746 101.176,120.746 102.204,122.9 25.9586,122.9 "/>
    <polygon id="_110699680" class="fil56" points="27.0724,120.844 101.222,120.844 102.157,122.803 26.0117,122.803 "/>
    <polygon id="_74138976" class="fil57" points="27.0204,120.94 101.268,120.94 102.111,122.705 26.0649,122.705 "/>
    <polygon id="_113179928" class="fil58" points="26.9673,121.037 101.315,121.037 102.065,122.608 26.1169,122.608 "/>
   </g>
   <polygon id="_81816024" class="fil59" points="26.9153,121.135 101.361,121.135 102.018,122.511 26.17,122.511 "/>
  </g>
  <polygon class="fil60" points="26.5858,121.742 101.652,121.742 102.17,122.828 25.9976,122.828 "/>
  <path class="fil61" d="M25.9928 124.043l76.1383 0c-0.603551,0.938988 -2.10593,1.62285 -3.47485,1.62285l-69.1615 0c-1.36419,0 -2.8961,-0.688591 -3.50201,-1.62285z"/>
  <g id="_101068760">
   <path id="_100626072" class="fil62" d="M100.931 119.494l-73.5293 0 2.55003 -5.54889c0.716938,-1.56026 1.63585,-3.04374 3.63666,-3.03783l61.5386 0.203152c2.00081,0.00590558 2.99649,1.45868 3.63666,3.03783l2.16735 5.34574z"/>
   <g>
    <path id="_101799464" class="fil63" d="M100.398 118.181l-72.393 0 1.94648 -4.23667c0.716938,-1.56026 1.63585,-3.04374 3.63666,-3.03783l61.5386 0.203152c2.00081,0.00590558 2.99649,1.45868 3.63666,3.03783l1.63467 4.03351z"/>
    <path id="_101431784" class="fil64" d="M99.8658 116.867l-71.2568 0 1.34293 -2.92208c0.716938,-1.56026 1.63585,-3.04374 3.63666,-3.03783l61.5386 0.203152c2.00081,0.00590558 2.99649,1.45868 3.63666,3.03783l1.10198 2.71893z"/>
    <path id="_75228168" class="fil65" d="M99.3343 115.556l-70.1229 0 0.74056 -1.61104c0.716938,-1.56026 1.63585,-3.04374 3.63666,-3.03783l61.5386 0.203152c2.00081,0.00590558 2.99649,1.45868 3.63666,3.03783l0.570479 1.40789z"/>
    <path id="_100434480" class="fil66" d="M98.8028 114.244l-68.9879 0 0.13701 -0.298823c0.716938,-1.56026 1.63585,-3.04374 3.63666,-3.03783l61.5386 0.203152c2.00081,0.00590558 2.99649,1.45868 3.63666,3.03783l0.0389769 0.0956705z"/>
    <path id="_47466992" class="fil67" d="M98.1591 112.93l-67.6886 0c0.661425,-1.13269 1.56262,-2.02798 3.11815,-2.02325l61.5386 0.203152c1.46458,0.00472447 2.39058,0.783081 3.03193,1.8201z"/>
    <path id="_80695104" class="fil68" d="M96.9307 111.619l-65.4008 0c0.531503,-0.439375 1.19411,-0.714576 2.05869,-0.712213l61.5386 0.203152c0.721662,0.00236223 1.31222,0.192522 1.80357,0.509061z"/>
   </g>
  </g>
  <path class="fil69" d="M33.689 109.8l61.5386 0.203152c1.1445,0.00236223 1.90868,1.0323 2.57483,1.67719l0.00118112 0c0.637803,0.618905 1.0819,1.43742 1.42325,2.27956l3.53036 8.70837c0.100395,0.248035 0.148821,0.49725 0.148821,0.737017 0,0.579928 -0.268114,1.1197 -0.705127,1.57561 -0.396855,0.414572 -0.944894,0.766545 -1.54726,1.00985 -0.627173,0.255121 -1.32876,0.403942 -1.99727,0.403942l-69.1615 0c-0.75119,0 -1.55081,-0.191341 -2.24294,-0.509061 -0.549219,-0.252759 -1.04175,-0.590558 -1.39608,-0.981508l-0.00118112 0.00118112c-0.39095,-0.429927 -0.629535,-0.931901 -0.629535,-1.46813 0,-0.258665 0.0566936,-0.522054 0.178349,-0.787805l4.09493 -8.91153c0.377957,-0.823238 0.817333,-1.63703 1.4386,-2.25239 0.656701,-0.653158 1.60159,-1.68782 2.752,-1.68545zm61.5386 1.20001l-61.5386 -0.203152c-0.846861,-0.00118112 -1.56852,0.918909 -2.04806,1.3949 -0.514967,0.511424 -0.900011,1.22718 -1.23545,1.95947l-4.09493 8.91153c-0.0566936,0.124017 -0.0838593,0.251578 -0.0838593,0.374414 0,0.270476 0.139372,0.544495 0.367327,0.794892l0 0.00236223c0.262208,0.289374 0.640165,0.546857 1.07127,0.744104 0.563393,0.258665 1.21655,0.414572 1.82955,0.414572l69.1615 0c0.542133,0 1.11261,-0.121655 1.62167,-0.32835 0.478352,-0.193703 0.905917,-0.464179 1.20474,-0.775994 0.261027,-0.272838 0.421659,-0.577566 0.421659,-0.883475 0,-0.116931 -0.0236223,-0.239767 -0.0732292,-0.361422l-3.53036 -8.70837c-0.297641,-0.733474 -0.674418,-1.43742 -1.19175,-1.93939 -0.490164,-0.474809 -1.02993,-1.3949 -1.88152,-1.39608z"/>
  <polygon class="fil70" points="32.2846,110.867 33.6453,110.006 94.1019,110.006 96.3732,110.614 96.3732,111.616 94.2519,111.007 34.2004,111.007 32.2846,111.868 "/>
  <polygon class="fil71" points="31.0693,111.931 33.8473,111.121 94.4539,111.121 97.0288,111.475 97.0288,112.477 94.5567,112.122 33.7953,112.122 31.0693,112.932 "/>
  <polygon class="fil72" points="31.3492,108.943 32.8386,107.98 33.924,107.98 94.4551,107.98 96.1724,107.98 98.2441,109.145 98.2441,110.146 96.1724,108.982 94.2519,108.982 34.0764,108.982 32.8634,108.982 31.3492,109.944 "/>
  <path class="fil36" d="M80.2167 62.0913c0.711032,-0.716938 1.68427,-1.19883 3.97564,-0.0968516 0.0342524,-1.56498 -3.60713,-2.25593 -3.97446,0.0814971l-0.00118112 0.0153545z"/>
 </g>
</svg>
