<?xml version="1.0" encoding="UTF-8" standalone="no"?>
<!-- Creator: CorelDRAW -->

<svg
   xmlns:dc="http://purl.org/dc/elements/1.1/"
   xmlns:cc="http://creativecommons.org/ns#"
   xmlns:rdf="http://www.w3.org/1999/02/22-rdf-syntax-ns#"
   xmlns:svg="http://www.w3.org/2000/svg"
   xmlns="http://www.w3.org/2000/svg"
   xmlns:xlink="http://www.w3.org/1999/xlink"
   xmlns:sodipodi="http://sodipodi.sourceforge.net/DTD/sodipodi-0.dtd"
   xmlns:inkscape="http://www.inkscape.org/namespaces/inkscape"
   xml:space="preserve"
   width="128px"
   height="128px"
   style="shape-rendering:geometricPrecision; text-rendering:geometricPrecision; image-rendering:optimizeQuality; fill-rule:evenodd; clip-rule:evenodd"
   viewBox="0 0 128 128"
   id="svg6560"
   version="1.1"
   inkscape:version="0.48.1 r9760"
   sodipodi:docname="preferences-desktop-filetype-association.svg"><metadata
   id="metadata6826"><rdf:RDF><cc:Work
       rdf:about=""><dc:format>image/svg+xml</dc:format><dc:type
         rdf:resource="http://purl.org/dc/dcmitype/StillImage" /><dc:title></dc:title></cc:Work></rdf:RDF></metadata><sodipodi:namedview
   pagecolor="#ffffff"
   bordercolor="#666666"
   borderopacity="1"
   objecttolerance="10"
   gridtolerance="10"
   guidetolerance="10"
   inkscape:pageopacity="0"
   inkscape:pageshadow="2"
   inkscape:window-width="646"
   inkscape:window-height="480"
   id="namedview6824"
   showgrid="false"
   inkscape:zoom="2.078125"
   inkscape:cx="64"
   inkscape:cy="64"
   inkscape:window-x="0"
   inkscape:window-y="24"
   inkscape:window-maximized="0"
   inkscape:current-layer="svg6560" />
 <defs
   id="defs6562">
  <style
   type="text/css"
   id="style6564">
   
    .fil19 {fill:none}
    .fil42 {fill:#73AEE4}
    .fil44 {fill:#82BDF0}
    .fil33 {fill:#91CAFA}
    .fil48 {fill:#A3D6FF}
    .fil62 {fill:#DCF995}
    .fil40 {fill:#CFCFCF}
    .fil22 {fill:white;fill-rule:nonzero}
    .fil30 {fill:#4F7FB3;fill-rule:nonzero}
    .fil51 {fill:#5481A8;fill-rule:nonzero}
    .fil63 {fill:#88A640;fill-rule:nonzero}
    .fil26 {fill:#8AC9FC;fill-rule:nonzero}
    .fil41 {fill:#BFBFBF;fill-rule:nonzero}
    .fil17 {fill:white;fill-rule:nonzero}
    .fil38 {fill:#BFBFBF;fill-rule:nonzero}
    .fil43 {fill:#C9C9C9;fill-rule:nonzero}
    .fil39 {fill:#CFCFCF;fill-rule:nonzero}
    .fil0 {fill:black;fill-opacity:0.000000}
    .fil1 {fill:black;fill-opacity:0.007843}
    .fil2 {fill:black;fill-opacity:0.011765}
    .fil3 {fill:black;fill-opacity:0.019608}
    .fil54 {fill:#DCF995;fill-opacity:0.023529}
    .fil4 {fill:black;fill-opacity:0.023529}
    .fil5 {fill:black;fill-opacity:0.031373}
    .fil6 {fill:black;fill-opacity:0.035294}
    .fil7 {fill:black;fill-opacity:0.043137}
    .fil55 {fill:#DCF995;fill-opacity:0.047059}
    .fil8 {fill:black;fill-opacity:0.050980}
    .fil9 {fill:black;fill-opacity:0.054902}
    .fil10 {fill:black;fill-opacity:0.062745}
    .fil11 {fill:black;fill-opacity:0.066667}
    .fil56 {fill:#DCF995;fill-opacity:0.074510}
    .fil57 {fill:#DCF995;fill-opacity:0.098039}
    .fil58 {fill:#DCF995;fill-opacity:0.121569}
    .fil59 {fill:#DCF995;fill-opacity:0.145098}
    .fil60 {fill:#DCF995;fill-opacity:0.172549}
    .fil61 {fill:#DCF995;fill-opacity:0.196078}
    .fil29 {fill:#191919;fill-rule:nonzero;fill-opacity:0.219608}
    .fil32 {fill:#ABD9FF;fill-rule:nonzero;fill-opacity:0.219608}
    .fil52 {fill:black;fill-opacity:0.321569}
    .fil46 {fill:#4C4C4C;fill-opacity:0.321569}
    .fil23 {fill:#A4A5A7;fill-opacity:0.439216}
    .fil49 {fill:#345673;fill-opacity:0.501961}
    .fil15 {fill:#BFBFBF;fill-opacity:0.780392}
    .fil18 {fill:#C9C9C9;fill-opacity:0.780392}
    .fil45 {fill:#538CBA;fill-rule:nonzero;fill-opacity:0.780392}
    .fil12 {fill:url(#id0)}
    .fil27 {fill:url(#id1)}
    .fil28 {fill:url(#id2)}
    .fil25 {fill:url(#id3)}
    .fil24 {fill:url(#id4)}
    .fil14 {fill:url(#id5)}
    .fil47 {fill:url(#id6)}
    .fil53 {fill:url(#id7)}
    .fil37 {fill:url(#id8)}
    .fil35 {fill:url(#id9)}
    .fil36 {fill:url(#id10)}
    .fil50 {fill:url(#id11)}
    .fil16 {fill:url(#id12);fill-rule:nonzero}
    .fil31 {fill:url(#id13);fill-rule:nonzero}
    .fil13 {fill:url(#id14);fill-rule:nonzero}
    .fil20 {fill:url(#id15);fill-rule:nonzero}
    .fil21 {fill:url(#id16);fill-rule:nonzero}
    .fil34 {fill:url(#id17);fill-rule:nonzero}
   
  </style>
  <linearGradient
   id="id0"
   gradientUnits="userSpaceOnUse"
   x1="60.2901"
   y1="8.67412"
   x2="57.5511"
   y2="125.286">
   <stop
   offset="0"
   style="stop-color:#EDEDED"
   id="stop6567" />
   <stop
   offset="1"
   style="stop-color:#D1CFCF"
   id="stop6569" />
  </linearGradient>
  <linearGradient
   id="id1"
   gradientUnits="userSpaceOnUse"
   x1="115.348"
   y1="10.5556"
   x2="115.348"
   y2="20.4191">
   <stop
   offset="0"
   style="stop-color:#6FAFE4"
   id="stop6572" />
   <stop
   offset="1"
   style="stop-color:#528BC7"
   id="stop6574" />
  </linearGradient>
  <linearGradient
   id="id2"
   gradientUnits="userSpaceOnUse"
   xlink:href="#id1"
   x1="2.4272"
   y1="10.9005"
   x2="2.4272"
   y2="17.6919">
  </linearGradient>
  <linearGradient
   id="id3"
   gradientUnits="userSpaceOnUse"
   x1="59.1763"
   y1="13.9537"
   x2="59.1763"
   y2="33.3394">
   <stop
   offset="0"
   style="stop-color:#7BBDF2"
   id="stop6578" />
   <stop
   offset="1"
   style="stop-color:#5C96D2"
   id="stop6580" />
  </linearGradient>
  <linearGradient
   id="id4"
   gradientUnits="userSpaceOnUse"
   xlink:href="#id1"
   x1="6.55874"
   y1="11.549"
   x2="6.55874"
   y2="22.4873">
  </linearGradient>
  <linearGradient
   id="id5"
   gradientUnits="userSpaceOnUse"
   x1="58.3047"
   y1="34.413"
   x2="59.7988"
   y2="115.073">
   <stop
   offset="0"
   style="stop-color:white"
   id="stop6584" />
   <stop
   offset="1"
   style="stop-color:#E6E6E6"
   id="stop6586" />
  </linearGradient>
  <linearGradient
   id="id6"
   gradientUnits="userSpaceOnUse"
   x1="93.4216"
   y1="120.834"
   x2="93.4216"
   y2="55.666">
   <stop
   offset="0"
   style="stop-color:#6CADE6"
   id="stop6589" />
   <stop
   offset="1"
   style="stop-color:#85C2F5"
   id="stop6591" />
  </linearGradient>
  <linearGradient
   id="id7"
   gradientUnits="userSpaceOnUse"
   x1="39.6442"
   y1="88.3251"
   x2="103.047"
   y2="93.2622">
   <stop
   offset="0"
   style="stop-color:#91B837"
   id="stop6594" />
   <stop
   offset="0.580392"
   style="stop-color:#B7DD5F"
   id="stop6596" />
   <stop
   offset="1"
   style="stop-color:#92B53F"
   id="stop6598" />
  </linearGradient>
  <linearGradient
   id="id8"
   gradientUnits="userSpaceOnUse"
   x1="58.7795"
   y1="31.9256"
   x2="59.0653"
   y2="13.0513">
   <stop
   offset="0"
   style="stop-color:#4E87B4"
   id="stop6601" />
   <stop
   offset="1"
   style="stop-color:#66A1D1"
   id="stop6603" />
  </linearGradient>
  <linearGradient
   id="id9"
   gradientUnits="userSpaceOnUse"
   x1="4.39375"
   y1="15.886"
   x2="0.918909"
   y2="18.6971">
   <stop
   offset="0"
   style="stop-color:#BCE6FF"
   id="stop6606" />
   <stop
   offset="1"
   style="stop-color:#6FAFE4"
   id="stop6608" />
  </linearGradient>
  <linearGradient
   id="id10"
   gradientUnits="userSpaceOnUse"
   x1="115.316"
   y1="18.5046"
   x2="112.909"
   y2="16.7069">
   <stop
   offset="0"
   style="stop-color:#6FAFE4"
   id="stop6611" />
   <stop
   offset="1"
   style="stop-color:#BCE6FF"
   id="stop6613" />
  </linearGradient>
  <linearGradient
   id="id11"
   gradientUnits="userSpaceOnUse"
   x1="116.055"
   y1="60.0385"
   x2="121.533"
   y2="54.6326">
   <stop
   offset="0"
   style="stop-color:#BCE6FF"
   id="stop6616" />
   <stop
   offset="1"
   style="stop-color:#CBEBFF"
   id="stop6618" />
  </linearGradient>
  <linearGradient
   id="id12"
   gradientUnits="userSpaceOnUse"
   x1="59.0535"
   y1="120.56"
   x2="59.0535"
   y2="28.3645">
   <stop
   offset="0"
   style="stop-color:#919191"
   id="stop6621" />
   <stop
   offset="1"
   style="stop-color:#B2B2B2"
   id="stop6623" />
  </linearGradient>
  <linearGradient
   id="id13"
   gradientUnits="userSpaceOnUse"
   xlink:href="#id12"
   x1="58.9236"
   y1="124.442"
   x2="58.9236"
   y2="35.0815">
  </linearGradient>
  <linearGradient
   id="id14"
   gradientUnits="userSpaceOnUse"
   x1="60.5346"
   y1="117.27"
   x2="56.4763"
   y2="31.4">
   <stop
   offset="0"
   style="stop-color:#ECEDED"
   id="stop6627" />
   <stop
   offset="1"
   style="stop-color:white"
   id="stop6629" />
  </linearGradient>
  <linearGradient
   id="id15"
   gradientUnits="userSpaceOnUse"
   x1="23.2609"
   y1="26.0436"
   x2="23.157"
   y2="20.0766">
   <stop
   offset="0"
   style="stop-color:#7F7F7F"
   id="stop6632" />
   <stop
   offset="1"
   style="stop-color:#999999"
   id="stop6634" />
  </linearGradient>
  <linearGradient
   id="id16"
   gradientUnits="userSpaceOnUse"
   xlink:href="#id15"
   x1="23.9235"
   y1="25.8771"
   x2="23.8196"
   y2="19.9113">
  </linearGradient>
  <linearGradient
   id="id17"
   gradientUnits="userSpaceOnUse"
   x1="24.1645"
   y1="17.803"
   x2="98.1071"
   y2="17.1085">
   <stop
   offset="0"
   style="stop-color:#BCE6FF"
   id="stop6638" />
   <stop
   offset="1"
   style="stop-color:#BBE6FF"
   id="stop6640" />
  </linearGradient>
 </defs>
 <g
   id="Слой_x0020_1">
  <metadata
   id="CorelCorpID_0Corel-Layer" />
  <g
   id="_246044032">
   <path
   id="_246051400"
   class="fil0"
   d="M110.778 112.164c6.49378,-0.235042 12.3143,-0.342524 17.5337,-0.340162l0 16.9573c-4.86738,-0.00472447 -9.99579,0.050788 -15.3191,0.229137 -34.5075,1.15513 -61.3531,1.61104 -61.3531,-3.35201 0,-4.96187 -0.0484258,-11.3553 59.1385,-13.4943z" />
   <g
   id="g6646">
    <path
   id="_246040216"
   class="fil1"
   d="M110.91 112.987c6.44181,-0.224412 12.2163,-0.320083 17.4014,-0.305909l0 15.9888c-4.86384,-0.00590558 -9.9828,0.0460636 -15.2848,0.212601 -34.0315,1.06655 -60.9905,1.47758 -60.9905,-3.12169 0,-4.70085 2.11774,-10.799 58.874,-12.7738z" />
    <path
   id="_246050368"
   class="fil2"
   d="M111.038 113.81c6.38748,-0.212601 12.1194,-0.295279 17.2738,-0.269295l0 15.0203c-4.86148,-0.00590558 -9.97217,0.0425202 -15.2553,0.196065 -33.5543,0.976784 -60.6267,1.34175 -60.6267,-2.89256 0,-4.43982 4.28273,-10.2438 58.6082,-12.0545z" />
    <path
   id="_246044008"
   class="fil3"
   d="M111.169 114.634c6.32606,-0.20079 12.0167,-0.271657 17.1427,-0.23268l0 14.0506c-4.8603,-0.00590558 -9.96154,0.0366146 -15.2234,0.178349 -33.0784,0.8882 -60.2618,1.20828 -60.2618,-2.66342 0,-4.17643 6.44772,-9.68634 58.3425,-11.3328z" />
    <path
   id="_246038992"
   class="fil4"
   d="M111.299 115.459c6.2611,-0.187798 11.9127,-0.245672 17.0128,-0.193703l0 13.0797c-4.85793,-0.00590558 -9.95091,0.030709 -15.1915,0.159451 -32.6012,0.798435 -59.8992,1.07482 -59.8992,-2.43428 0,-3.91422 8.61389,-9.13121 58.0779,-10.6112z" />
    <path
   id="_246041848"
   class="fil5"
   d="M111.429 116.281c6.19378,-0.173624 11.8041,-0.214963 16.8829,-0.150002l0 12.1029c-4.85675,-0.00590558 -9.94264,0.0283468 -15.1608,0.142915 -32.1252,0.709851 -59.5354,0.94135 -59.5354,-2.20278 0,-3.65319 10.7789,-8.57609 57.8133,-9.89304z" />
    <path
   id="_246045928"
   class="fil6"
   d="M111.559 117.107c6.11937,-0.15827 11.6895,-0.187798 16.753,-0.108663l0 11.1285c-4.85675,-0.00472447 -9.93319,0.0236223 -15.1289,0.125198 -31.6492,0.621267 -59.1728,0.807884 -59.1728,-1.97365 0,-3.39099 12.945,-8.01978 57.5487,-9.17137z" />
    <path
   id="_246049696"
   class="fil7"
   d="M111.691 117.93c6.03551,-0.141734 11.5679,-0.154726 16.6207,-0.0625992l0 10.1505c-4.85557,-0.00354335 -9.92374,0.020079 -15.0959,0.108663 -31.172,0.530321 -58.8078,0.672056 -58.8078,-1.74569 0,-3.12878 15.1088,-7.46348 57.283,-8.45089z" />
    <path
   id="_246055960"
   class="fil8"
   d="M111.821 118.755c5.94574,-0.122836 11.4391,-0.119293 16.4908,-0.0141734l0 9.16783c-4.85675,-0.00354335 -9.91548,0.0177168 -15.064,0.0921271 -30.6949,0.440557 -58.4452,0.538589 -58.4452,-1.51655 0,-2.86539 17.275,-6.90599 57.0184,-7.72923z" />
    <path
   id="_246050680"
   class="fil9"
   d="M111.951 119.579c5.8418,-0.102757 11.3033,-0.0826782 16.3608,0.0354335l0 8.18396c-4.85675,-0.00118112 -9.90839,0.0153545 -15.0333,0.0755915 -30.2201,0.351973 -58.0814,0.403942 -58.0814,-1.28506 0,-2.60554 19.44,-6.35205 56.7538,-7.00993z" />
    <path
   id="_246050320"
   class="fil10"
   d="M112.08 120.402c5.72842,-0.0814971 11.1568,-0.0437013 16.2321,0.0885838l0 7.19891c-4.85793,0 -9.9013,0.0129923 -15.0014,0.0578747 -29.7429,0.263389 -57.7188,0.271657 -57.7188,-1.05592 0,-2.34215 21.6062,-5.79574 56.4881,-6.28945z" />
    <path
   id="_246044440"
   class="fil11"
   d="M112.212 121.226c5.59495,-0.0566936 10.9938,-0.00118112 16.0998,0.142915l0 6.21031c-4.85911,0.00236223 -9.8954,0.0118112 -14.9707,0.0413391 -29.2645,0.174805 -57.3527,0.138191 -57.3527,-0.826782 0,-2.07995 23.7712,-5.23825 56.2235,-5.56779z" />
   </g>
  </g>
  <g
   id="_249365488">
   <path
   id="_246099696"
   class="fil0"
   d="M56.9334 107.201c59.1869,-2.52287 62.539,7.343 62.7964,15.24 0.257483,7.89813 -26.0732,3.27169 -60.5818,4.6347 -34.5075,1.36301 -61.3531,1.90042 -61.3531,-3.95438 0,-5.8548 -0.0484258,-13.3962 59.1385,-15.9203z" />
   <g
   id="g6661">
    <path
   id="_246079176"
   class="fil1"
   d="M57.0657 108.171c56.755,-2.32916 62.1551,7.01111 62.3925,14.4427 0.237404,7.31348 -26.2456,3.05319 -60.2759,4.31108 -34.0315,1.25789 -60.9905,1.74215 -60.9905,-3.6839 0,-5.54534 2.11774,-12.7395 58.874,-15.0699z" />
    <path
   id="_246085344"
   class="fil2"
   d="M57.1932 109.143c54.3255,-2.13428 61.7736,6.6804 61.9909,13.6443 0.217326,6.73 -26.4192,2.83586 -59.9724,3.98863 -33.5543,1.15277 -60.6267,1.58388 -60.6267,-3.41225 0,-5.23707 4.28273,-12.0852 58.6082,-14.2206z" />
    <path
   id="_246103416"
   class="fil3"
   d="M57.3243 110.116c51.8947,-1.94058 61.3909,6.3485 61.5882,12.847 0.197247,6.14417 -26.5917,2.61736 -59.6688,3.66501 -33.0784,1.04765 -60.2618,1.42561 -60.2618,-3.14177 0,-4.92762 6.44772,-11.4285 58.3425,-13.3702z" />
    <path
   id="_246091272"
   class="fil4"
   d="M57.4543 111.088c49.4652,-1.74687 61.007,6.01661 61.1854,12.0486 0.178349,5.5607 -26.7629,2.40121 -59.3641,3.34256 -32.6012,0.942531 -59.8992,1.26852 -59.8992,-2.8713 0,-4.61817 8.61389,-10.773 58.0779,-12.5198z" />
    <path
   id="_246091200"
   class="fil5"
   d="M57.5842 112.058c47.0333,-1.55199 60.6244,5.6859 60.7815,11.2513 0.15827,4.97605 -26.9354,2.1827 -59.0594,3.01893 -32.1252,0.837412 -59.5354,1.11025 -59.5354,-2.59964 0,-4.3099 10.7789,-10.1174 57.8133,-11.6706z" />
    <path
   id="_246091032"
   class="fil6"
   d="M57.7141 113.032c44.6037,-1.35828 60.2405,5.354 60.3799,10.4541 0.138191,4.39139 -27.1078,1.9642 -58.7558,2.69531 -31.6492,0.732292 -59.1728,0.95198 -59.1728,-2.32916 0,-4.00044 12.945,-9.46075 57.5487,-10.8202z" />
    <path
   id="_249347608"
   class="fil7"
   d="M57.8464 114.004c42.173,-1.16458 59.8578,5.02211 59.9759,9.65563 0.119293,3.80674 -27.2791,1.74687 -58.4511,2.37286 -31.172,0.625992 -58.8078,0.793711 -58.8078,-2.05869 0,-3.69099 15.1088,-8.80523 57.283,-9.96981z" />
    <path
   id="_249345040"
   class="fil8"
   d="M57.9763 114.977c39.7422,-0.970878 59.4751,4.69022 59.5732,8.85838 0.100395,3.22209 -27.4515,1.52837 -58.1464,2.04924 -30.6949,0.520873 -58.4452,0.635441 -58.4452,-1.78821 0,-3.38154 17.275,-8.14853 57.0184,-9.1194z" />
    <path
   id="_249361168"
   class="fil9"
   d="M58.1062 115.948c37.3115,-0.775994 59.0913,4.3595 59.1704,8.06112 0.0791348,2.63743 -27.6251,1.30986 -57.8428,1.72561 -30.2201,0.415753 -58.0814,0.477171 -58.0814,-1.51655 0,-3.07327 19.44,-7.49301 56.7538,-8.27018z" />
    <path
   id="_249344968"
   class="fil10"
   d="M58.235 116.92c34.8831,-0.582291 58.7098,4.02761 58.7688,7.26269 0.060237,2.05396 -27.7964,1.09371 -57.5381,1.40317 -29.7429,0.310634 -57.7188,0.320083 -57.7188,-1.24608 0,-2.76381 21.6062,-6.83749 56.4881,-7.41978z" />
    <path
   id="_249348616"
   class="fil11"
   d="M58.3673 117.892c32.4512,-0.388587 58.3247,3.69571 58.3649,6.46543 0.040158,1.46813 -27.9688,0.875208 -57.2357,1.07954 -29.2645,0.205514 -57.3527,0.161813 -57.3527,-0.975603 0,-2.45436 23.7712,-6.18078 56.2235,-6.56937z" />
   </g>
  </g>
  <path
   class="fil12"
   d="M6.40165 10.0289l105.04 0.542133c3.29414,0.0106301 6.00125,2.72247 5.99181,5.99299l0.00590558 101.386c-0.00944894,3.27642 -2.7024,5.99299 -5.99299,5.99299 -39.4694,0 -37.6233,-0.342524 -104.942,-0.342524 -3.28941,0 -6.10637,-2.79688 -6.09456,-6.09456l-0.00118112 -101.484c0,-3.29414 2.69767,-6.00362 5.99299,-5.99299z"
   id="path6674" />
  <path
   class="fil13"
   d="M1.87443 33.3146l0.0318902 83.6892c0.0874027,1.1197 0.424021,1.85199 0.97324,2.28782 0.316539,0.251578 0.714576,0.416934 1.18584,0.513786l-1.38545 0.551582c-0.150002,-0.0838593 -0.289374,-0.178349 -0.421659,-0.283468 -0.771269,-0.613 -1.23781,-1.57325 -1.34884,-2.99177l0 -0.0389769 -0.0318902 -83.7282c-0.00118112,-2.10003 0.651977,-3.39099 1.74097,-4.1658 1.05592,-0.752371 2.49452,-0.980327 4.11737,-0.988595l0.0165356 0 103.769 3.10398c1.77168,0.00354335 3.16657,0.471266 4.12682,1.35947 0.972059,0.901192 1.48585,2.21105 1.48585,3.88587l-0.00236223 0 -0.166537 79.5565 0 0.0177168c-0.0590558,1.5697 -0.322445,2.72484 -1.04293,3.52918 -0.351973,0.392131 -0.800797,0.688591 -1.37364,0.897649l-0.653158 -0.838593c0.571661,-0.154726 0.988595,-0.392131 1.28506,-0.722844 0.537408,-0.598826 0.737017,-1.55907 0.787805,-2.90082l0.166537 -79.5388 -0.00236223 0c0,-1.39017 -0.400399,-2.452 -1.15986,-3.15594 -0.773632,-0.715757 -1.9453,-1.09253 -3.4654,-1.09253l-0.0141734 0 -103.769 -3.10398c-1.42797,0.00826782 -2.67287,0.196065 -3.52682,0.804341 -0.826782,0.588196 -1.32285,1.62285 -1.32285,3.35319z"
   id="path6676" />
  <path
   class="fil14"
   d="M3.45004 33.5189l0.0318902 83.7282c0.20079,2.5394 1.59805,3.37681 3.8906,3.36736l102.887 -0.188979c3.30949,-0.0944894 4.11737,-1.40199 4.22958,-4.3158l0.166537 -79.5565c0,-3.06972 -1.82955,-4.74573 -5.12605,-4.74691l-100.717 -2.94334c-3.06145,0.0153545 -5.36581,0.822057 -5.36227,4.65596z"
   id="path6678" />
  <path
   class="fil15"
   d="M34.0221 96.0839l18.299 -0.102757 0 1.05474 -18.299 0.102757 0 -1.05474zm-0.504337 7.9938l28.7956 -0.102757 0 1.05474 -28.7956 0.102757 0 -1.05474zm31.726 -0.102757l42.1411 0.00118112 0 1.05474 -42.1411 -0.00118112 0 -1.05474zm-31.2216 -3.92603l28.8807 -0.102757 0 1.08781 -28.8807 0.102757 0 -1.08781zm31.7094 -0.102757l41.8517 0 0 1.08781 -41.8517 0 0 -1.08781zm-10.4801 -3.96501l39.878 0 0 1.05474 -39.878 0 0 -1.05474zm42.8084 0l9.73477 0 0 1.05474 -9.73477 0 0 -1.05474z"
   id="path6680" />
  <path
   class="fil16"
   d="M3.94847 33.5189l0.0318902 83.6892c0.0874027,1.1197 0.424021,1.85199 0.97324,2.28782 0.316539,0.251578 0.714576,0.416934 1.18584,0.513786l-1.38545 0.551582c-0.150002,-0.0838593 -0.289374,-0.178349 -0.421659,-0.283468 -0.771269,-0.613 -1.23781,-1.57325 -1.34884,-2.99177l0 -0.0389769 -0.0318902 -83.7282c-0.00118112,-2.10003 0.651977,-3.39099 1.74097,-4.1658 1.05592,-0.752371 2.49452,-0.980327 4.11737,-0.988595l0.0165356 0 100.717 2.94334c1.77168,0.00354335 3.16657,0.471266 4.12682,1.35947 0.972059,0.901192 1.48585,2.21105 1.48585,3.88587l-0.00236223 0 -0.166537 79.5565 0 0.0177168c-0.0590558,1.5697 -0.322445,2.72484 -1.04293,3.52918 -0.351973,0.392131 -0.800797,0.688591 -1.37364,0.897649l-0.653158 -0.838593c0.571661,-0.154726 0.988595,-0.392131 1.28506,-0.722844 0.537408,-0.598826 0.737017,-1.55907 0.787805,-2.90082l0.166537 -79.5388 -0.00236223 0c0,-1.39017 -0.400399,-2.452 -1.15986,-3.15594 -0.773632,-0.715757 -1.9453,-1.09253 -3.4654,-1.09253l-0.0141734 0 -100.717 -2.94334c-1.42797,0.00826782 -2.67287,0.196065 -3.52682,0.804341 -0.826782,0.588196 -1.32285,1.62285 -1.32285,3.35319z"
   id="path6682" />
  <path
   class="fil17"
   d="M6.13945 120.01c0.367327,0.0744104 0.779537,0.107482 1.23072,0.106301l0.00236223 0 102.873 -0.188979c0.66615,-0.0188979 1.21773,-0.0885838 1.67246,-0.21142l0.653158 0.838593c-0.613,0.22205 -1.36655,0.343705 -2.29727,0.36969l-0.0141734 0 -102.885 0.188979 -0.00236223 0c-1.03584,0.00354335 -1.91813,-0.157089 -2.61854,-0.551582l1.38545 -0.551582z"
   id="path6684" />
  <path
   class="fil18"
   d="M34.0221 68.9418l18.299 -0.102757 0 1.05474 -18.299 0.102757 0 -1.05474zm0.105119 7.9938l13.9478 -0.00118112 0 1.05474 -13.9478 0.00118112 0 -1.05474zm16.8782 -0.00118112l56.3794 -0.100395 0 1.05474 -56.3794 0.100395 0 -1.05474zm-16.9833 -4.02761l28.8807 -0.102757 0 1.08781 -28.8807 0.102757 0 -1.08781zm31.7094 -0.102757l41.8517 0 0 1.08781 -41.8517 0 0 -1.08781zm-10.4801 -3.96501l39.878 0 0 1.05474 -39.878 0 0 -1.05474zm42.8084 0l9.73477 0 0 1.05474 -9.73477 0 0 -1.05474z"
   id="path6686" />
  <path
   class="fil18"
   d="M34.0233 42.1056l27.5531 -0.00118112 0 1.05474 -27.5531 0.00118112 0 -1.05474zm0.105119 7.9938l23.2019 0.100395 0 1.05474 -23.2019 -0.100395 0 -1.05474zm26.1322 0.100395l47.1254 -0.201971 0 1.05474 -47.1254 0.201971 0 -1.05474zm-26.2373 -4.12918l38.1347 -0.00118112 0 1.08781 -38.1347 0.00118112 0 -1.08781zm40.9635 -0.00118112l32.5976 -0.101576 0 1.08781 -32.5976 0.101576 0 -1.08781zm-10.4801 -3.96501l30.624 -0.101576 0 1.05474 -30.624 0.101576 0 -1.05474zm33.5543 -0.101576l9.73477 0 0 1.05474 -9.73477 0 0 -1.05474z"
   id="path6688" />
  <path
   class="fil19"
   d="M8.86664 117.13l-0.654339 0.713395m108.339 -0.0779537l-0.731111 -0.646071"
   id="path6690" />
  <path
   class="fil19"
   d="M10.6336 117.767l-0.643709 0.701583m106.634 -0.0767726l-0.720481 -0.635441"
   id="path6692" />
  <path
   class="fil20"
   d="M7.42096 22.0597l0 0.538589 1.20592 2.76263 1.20946 -2.76263 0 -0.538589c0,-0.133466 0.0377957,-0.24331 0.113387,-0.327169 0.0779537,-0.0838593 0.178349,-0.12638 0.300004,-0.12638 0.120474,0 0.219688,0.040158 0.29646,0.125198 0.0779537,0.0814971 0.114568,0.191341 0.114568,0.32835l0 0.610637c0,0.0425202 -0.00472447,0.0803159 -0.0153545,0.120474 -0.00944894,0.0377957 -0.0212601,0.0755915 -0.0413391,0.119293l-1.29923 2.97641c-0.060237,0.138191 -0.122836,0.230318 -0.186616,0.283468 -0.0637803,0.0484258 -0.142915,0.0720481 -0.237404,0.0720481l-0.505518 0c-0.0980327,0 -0.175986,-0.0236223 -0.237404,-0.070867 -0.060237,-0.0484258 -0.121655,-0.142915 -0.186616,-0.284649l-1.29805 -2.97051c-0.0236223,-0.050788 -0.0377957,-0.090946 -0.0460636,-0.125198 -0.00826782,-0.0366146 -0.0118112,-0.0755915 -0.0118112,-0.120474l0 -0.610637c0,-0.139372 0.0366146,-0.250397 0.112206,-0.330713 0.0755915,-0.0826782 0.174805,-0.122836 0.300004,-0.122836 0.120474,0 0.22205,0.0425202 0.298823,0.12638 0.0755915,0.0838593 0.114568,0.193703 0.114568,0.327169zm28.798 -2.18034l2.77917 0c0.229137,0 0.420478,0.0803159 0.583472,0.239767 0.161813,0.159451 0.242129,0.354335 0.242129,0.584653l0 1.94176c0,0.230318 -0.0803159,0.425202 -0.242129,0.584653 -0.162994,0.159451 -0.354335,0.239767 -0.583472,0.239767l-2.4142 0 0 1.94766 2.77917 0c0.138191,0 0.249216,0.0377957 0.333075,0.114568 0.0850404,0.0779537 0.127561,0.177168 0.127561,0.297641 0,0.121655 -0.0425202,0.220869 -0.129923,0.297641 -0.0874027,0.0767726 -0.196065,0.114568 -0.330713,0.114568l-3.60477 0 0 -2.77208c0,-0.227956 0.0803159,-0.421659 0.239767,-0.582291 0.160632,-0.161813 0.353154,-0.242129 0.585834,-0.242129l2.4142 0 0 -1.94176 -2.77917 0c-0.141734,0 -0.252759,-0.0366146 -0.336618,-0.112206 -0.0838593,-0.0755915 -0.124017,-0.174805 -0.124017,-0.298823 0,-0.122836 0.0425202,-0.22205 0.129923,-0.300004 0.0874027,-0.0755915 0.196065,-0.113387 0.330713,-0.113387zm-5.70598 0.82442l0 4.71384 2.41538 0 0 -4.71384 -2.41538 0zm0.0862215 -0.82442l2.23822 0c0.294098,0 0.519691,0.0779537 0.679142,0.235042 0.15827,0.155907 0.236223,0.381501 0.236223,0.67678l0 4.53903c0,0.294098 -0.0779537,0.522054 -0.236223,0.67678 -0.159451,0.157089 -0.385044,0.235042 -0.679142,0.235042l-2.23822 0c-0.294098,0 -0.519691,-0.0779537 -0.675599,-0.235042 -0.157089,-0.154726 -0.236223,-0.382682 -0.236223,-0.67678l0 -4.53903c0,-0.295279 0.0791348,-0.520873 0.236223,-0.67678 0.155907,-0.157089 0.381501,-0.235042 0.675599,-0.235042zm-3.84217 4.74691l0.804341 0c0.121655,0 0.22205,0.0425202 0.297641,0.125198 0.0779537,0.0838593 0.114568,0.191341 0.114568,0.325988l0 0.609456c0,0.141734 -0.0366146,0.252759 -0.112206,0.336618 -0.0755915,0.0838593 -0.174805,0.124017 -0.300004,0.124017l-0.804341 0c-0.121655,0 -0.22205,-0.0425202 -0.297641,-0.129923 -0.0779537,-0.0874027 -0.114568,-0.196065 -0.114568,-0.330713l0 -0.609456c0,-0.139372 0.0366146,-0.250397 0.112206,-0.331894 0.0755915,-0.0791348 0.174805,-0.119293 0.300004,-0.119293zm-4.86266 -3.92249l0 4.71384 2.41538 0 0 -4.71384 -2.41538 0zm0.0862215 -0.82442l2.23822 0c0.294098,0 0.519691,0.0779537 0.679142,0.235042 0.15827,0.155907 0.237404,0.381501 0.237404,0.67678l0 4.53903c0,0.294098 -0.0791348,0.522054 -0.237404,0.67678 -0.159451,0.157089 -0.385044,0.235042 -0.679142,0.235042l-2.23822 0c-0.294098,0 -0.519691,-0.0779537 -0.675599,-0.235042 -0.157089,-0.154726 -0.236223,-0.382682 -0.236223,-0.67678l0 -4.53903c0,-0.295279 0.0791348,-0.520873 0.236223,-0.67678 0.155907,-0.157089 0.381501,-0.235042 0.675599,-0.235042zm-3.19492 4.74691l0.804341 0c0.121655,0 0.22205,0.0425202 0.297641,0.125198 0.0779537,0.0838593 0.114568,0.191341 0.114568,0.325988l0 0.609456c0,0.141734 -0.0366146,0.252759 -0.112206,0.336618 -0.0755915,0.0838593 -0.174805,0.124017 -0.300004,0.124017l-0.804341 0c-0.121655,0 -0.22205,-0.0425202 -0.297641,-0.129923 -0.0779537,-0.0874027 -0.114568,-0.196065 -0.114568,-0.330713l0 -0.609456c0,-0.139372 0.0366146,-0.250397 0.112206,-0.331894 0.0755915,-0.0791348 0.174805,-0.119293 0.300004,-0.119293zm-5.65873 -4.74691l2.77917 0c0.229137,0 0.420478,0.0803159 0.583472,0.239767 0.161813,0.159451 0.242129,0.354335 0.242129,0.584653l0 1.94176c0,0.230318 -0.0803159,0.425202 -0.242129,0.584653 -0.162994,0.159451 -0.354335,0.239767 -0.583472,0.239767l-2.41538 0 0 1.94766 2.78035 0c0.138191,0 0.249216,0.0377957 0.333075,0.114568 0.0850404,0.0779537 0.127561,0.177168 0.127561,0.297641 0,0.121655 -0.0425202,0.220869 -0.129923,0.297641 -0.0874027,0.0767726 -0.196065,0.114568 -0.330713,0.114568l-3.60477 0 0 -2.77208c0,-0.227956 0.0803159,-0.421659 0.239767,-0.582291 0.159451,-0.161813 0.353154,-0.242129 0.584653,-0.242129l2.41538 0 0 -1.94176 -2.77917 0c-0.141734,0 -0.252759,-0.0366146 -0.336618,-0.112206 -0.0838593,-0.0755915 -0.124017,-0.174805 -0.124017,-0.298823 0,-0.122836 0.0413391,-0.22205 0.128742,-0.300004 0.0874027,-0.0755915 0.197247,-0.113387 0.331894,-0.113387z"
   id="path6694" />
  <path
   class="fil21"
   d="M8.08356 21.8944l0 0.537408 1.2071 2.76263 1.20828 -2.76263 0 -0.537408c0,-0.134647 0.0389769,-0.244491 0.114568,-0.32835 0.0767726,-0.0838593 0.178349,-0.12638 0.298823,-0.12638 0.121655,0 0.219688,0.0413391 0.297641,0.125198 0.0767726,0.0814971 0.114568,0.191341 0.114568,0.329532l0 0.609456c0,0.0425202 -0.00590558,0.0803159 -0.0153545,0.121655 -0.0106301,0.0366146 -0.0224412,0.0755915 -0.0425202,0.119293l-1.29923 2.97641c-0.060237,0.13701 -0.122836,0.230318 -0.186616,0.282287 -0.0637803,0.0484258 -0.142915,0.0720481 -0.236223,0.0720481l-0.506699 0c-0.0968516,0 -0.175986,-0.0236223 -0.236223,-0.070867 -0.060237,-0.0484258 -0.122836,-0.142915 -0.186616,-0.283468l-1.29923 -2.97169c-0.0236223,-0.050788 -0.0366146,-0.090946 -0.0448824,-0.124017 -0.00944894,-0.0377957 -0.0118112,-0.0755915 -0.0118112,-0.121655l0 -0.609456c0,-0.140553 0.0366146,-0.250397 0.112206,-0.331894 0.0755915,-0.0814971 0.174805,-0.122836 0.298823,-0.122836 0.121655,0 0.22205,0.0425202 0.298823,0.12638 0.0767726,0.0838593 0.114568,0.193703 0.114568,0.32835zm28.798 -2.18152l2.78035 0c0.227956,0 0.420478,0.0803159 0.583472,0.239767 0.160632,0.159451 0.240948,0.354335 0.240948,0.584653l0 1.94176c0,0.230318 -0.0803159,0.425202 -0.240948,0.584653 -0.162994,0.159451 -0.355516,0.239767 -0.583472,0.239767l-2.41538 0 0 1.94884 2.78035 0c0.13701,0 0.248035,0.0366146 0.331894,0.113387 0.0862215,0.0779537 0.127561,0.177168 0.127561,0.297641 0,0.121655 -0.0413391,0.220869 -0.128742,0.297641 -0.0874027,0.0779537 -0.197247,0.114568 -0.330713,0.114568l-3.60595 0 0 -2.77208c0,-0.227956 0.0814971,-0.421659 0.240948,-0.582291 0.159451,-0.161813 0.353154,-0.242129 0.584653,-0.242129l2.41538 0 0 -1.94176 -2.78035 0c-0.140553,0 -0.251578,-0.0366146 -0.335437,-0.112206 -0.0838593,-0.0755915 -0.125198,-0.174805 -0.125198,-0.298823 0,-0.122836 0.0425202,-0.22205 0.129923,-0.300004 0.0874027,-0.0755915 0.196065,-0.113387 0.330713,-0.113387zm-5.70598 0.82442l0 4.71502 2.41538 0 0 -4.71502 -2.41538 0zm0.0862215 -0.82442l2.23822 0c0.294098,0 0.519691,0.0791348 0.679142,0.235042 0.15827,0.155907 0.237404,0.381501 0.237404,0.67678l0 4.54021c0,0.294098 -0.0791348,0.520873 -0.237404,0.675599 -0.159451,0.157089 -0.385044,0.235042 -0.679142,0.235042l-2.23822 0c-0.294098,0 -0.519691,-0.0779537 -0.675599,-0.235042 -0.155907,-0.154726 -0.235042,-0.381501 -0.235042,-0.675599l0 -4.54021c0,-0.295279 0.0791348,-0.520873 0.235042,-0.67678 0.155907,-0.155907 0.381501,-0.235042 0.675599,-0.235042zm-3.84217 4.74691l0.805522 0c0.120474,0 0.22205,0.0425202 0.297641,0.125198 0.0767726,0.0838593 0.113387,0.191341 0.113387,0.325988l0 0.609456c0,0.141734 -0.0366146,0.252759 -0.112206,0.336618 -0.0755915,0.0838593 -0.174805,0.124017 -0.298823,0.124017l-0.805522 0c-0.120474,0 -0.22205,-0.0413391 -0.297641,-0.128742 -0.0767726,-0.0874027 -0.113387,-0.197247 -0.113387,-0.331894l0 -0.609456c0,-0.139372 0.0366146,-0.250397 0.112206,-0.331894 0.0755915,-0.0779537 0.174805,-0.119293 0.298823,-0.119293zm-4.86148 -3.92249l0 4.71502 2.4142 0 0 -4.71502 -2.4142 0zm0.0850404 -0.82442l2.2394 0c0.294098,0 0.51851,0.0791348 0.677961,0.235042 0.15827,0.155907 0.237404,0.381501 0.237404,0.67678l0 4.54021c0,0.294098 -0.0791348,0.520873 -0.237404,0.675599 -0.159451,0.157089 -0.383863,0.235042 -0.677961,0.235042l-2.2394 0c-0.294098,0 -0.519691,-0.0779537 -0.675599,-0.235042 -0.155907,-0.154726 -0.235042,-0.381501 -0.235042,-0.675599l0 -4.54021c0,-0.295279 0.0791348,-0.520873 0.235042,-0.67678 0.155907,-0.155907 0.381501,-0.235042 0.675599,-0.235042zm-3.19492 4.74691l0.805522 0c0.120474,0 0.22205,0.0425202 0.297641,0.125198 0.0767726,0.0838593 0.113387,0.191341 0.113387,0.325988l0 0.609456c0,0.141734 -0.0366146,0.252759 -0.112206,0.336618 -0.0755915,0.0838593 -0.174805,0.124017 -0.298823,0.124017l-0.805522 0c-0.120474,0 -0.22205,-0.0413391 -0.297641,-0.128742 -0.0767726,-0.0874027 -0.113387,-0.197247 -0.113387,-0.331894l0 -0.609456c0,-0.139372 0.0366146,-0.250397 0.112206,-0.331894 0.0755915,-0.0779537 0.174805,-0.119293 0.298823,-0.119293zm-5.65873 -4.74691l2.78035 0c0.227956,0 0.419296,0.0803159 0.582291,0.239767 0.161813,0.159451 0.242129,0.354335 0.242129,0.584653l0 1.94176c0,0.230318 -0.0803159,0.425202 -0.242129,0.584653 -0.162994,0.159451 -0.354335,0.239767 -0.582291,0.239767l-2.41538 0 0 1.94884 2.77917 0c0.138191,0 0.249216,0.0366146 0.333075,0.113387 0.0862215,0.0779537 0.127561,0.177168 0.127561,0.297641 0,0.121655 -0.0413391,0.220869 -0.128742,0.297641 -0.0874027,0.0779537 -0.197247,0.114568 -0.331894,0.114568l-3.60477 0 0 -2.77208c0,-0.227956 0.0814971,-0.421659 0.240948,-0.582291 0.159451,-0.161813 0.353154,-0.242129 0.584653,-0.242129l2.41538 0 0 -1.94176 -2.78035 0c-0.140553,0 -0.251578,-0.0366146 -0.335437,-0.112206 -0.0850404,-0.0755915 -0.125198,-0.174805 -0.125198,-0.298823 0,-0.122836 0.0425202,-0.22205 0.129923,-0.300004 0.0874027,-0.0755915 0.196065,-0.113387 0.330713,-0.113387z"
   id="path6696" />
  <path
   class="fil22"
   d="M13.4943 26.3153l0.0259846 0.0696859 -0.00118112 0.00118112c0.0956705,0.238586 0.248035,0.441738 0.439375,0.613 0.170081,0.150002 0.361422,0.265751 0.571661,0.338981 0.205514,0.0767726 0.416934,0.113387 0.630716,0.113387l2.77917 0c0.277562,0 0.5504,-0.0543314 0.81379,-0.161813l0.00944894 0c0.24331,-0.102757 0.468903,-0.252759 0.67678,-0.455911 0.157089,-0.153545 0.28583,-0.327169 0.387406,-0.51851l-6.33315 0zm8.5442 0c0.0956705,0.188979 0.219688,0.357878 0.367327,0.50788l0.00472447 0.0106301c0.408666,0.408666 0.949618,0.617724 1.60396,0.617724l2.23822 0c0.28583,0 0.561031,-0.0448824 0.810246,-0.129923 0.300004,-0.102757 0.563393,-0.26457 0.786624,-0.483077l0.0106301 -0.00472447c0.148821,-0.148821 0.2752,-0.322445 0.374414,-0.51851l-6.19614 0zm8.61743 0c0.0992138,0.198428 0.224412,0.36969 0.373233,0.51851 0.213782,0.213782 0.477171,0.379139 0.793711,0.487801 0.248035,0.0850404 0.522054,0.129923 0.809065,0.129923l2.2394 0c0.287011,0 0.561031,-0.0448824 0.810246,-0.129923 0.309453,-0.105119 0.577566,-0.269295 0.796073,-0.487801 0.0814971,-0.0814971 0.155907,-0.170081 0.223231,-0.266932 0.090946,0.164175 0.21142,0.315358 0.366146,0.447643l0.00236223 -0.00118112c0.159451,0.140553 0.343705,0.248035 0.544495,0.321264l0 0.00118112c0.209058,0.0767726 0.421659,0.115749 0.637803,0.115749l2.78035 0c0.289374,0 0.566936,-0.0555125 0.822057,-0.161813l-0.00118112 -0.00354335c0.251578,-0.103938 0.477171,-0.25394 0.680323,-0.452368l0.00472447 -0.00472447c0.159451,-0.15827 0.288193,-0.329532 0.386225,-0.513786l-12.2683 0z"
   id="path6698" />
  <path
   class="fil23"
   d="M3.47603 26.5503c0.857491,-0.936626 1.31222,-2.35042 2.69058,-2.53113l0.947256 2.07522 -4.05477 5.03274 0.416934 -4.57683z"
   id="path6700" />
  <path
   class="fil19"
   d="M3.50319 18.3168c0,-1.28387 0.511424,-2.46853 1.35238,-3.38862 1.076,-1.30986 2.71066,-2.15081 4.5284,-2.15081l102.288 0c3.23035,0 6.05913,2.56775 6.01189,5.77802"
   id="path6702" />
  <path
   class="fil24"
   d="M3.5965 20.6317l-0.155907 -4.38076c-0.0448824,-1.28742 0.66615,-2.43901 1.50711,-3.3591 0.681504,-0.826782 2.14845,-1.59215 3.17957,-1.95121l0.0330713 0.387406 -0.26457 0 0 1.95121 0.438194 0 0.530321 6.00125 0.859853 0.172443c-0.844499,1.58624 -4.58628,3.64138 -5.99417,1.36773 -0.0389769,-0.0637803 -0.0850404,-0.125198 -0.133466,-0.188979z"
   id="path6704" />
  <path
   class="fil25"
   d="M117.503 33.741l-116.829 -0.17953 -0.0153545 -14.4403c0,-0.133466 0.0070867,-0.26457 0.0188979,-0.40158l-0.0188979 -0.904736c0,-0.274019 0.0212601,-0.538589 0.0673237,-0.804341 0.235042,-0.587015 0.578747,-1.12679 1.01104,-1.59805 0.706308,-0.862215 1.6512,-1.5201 2.73192,-1.8638l109.816 0.301185c3.40752,1.53191 2.7461,5.23471 3.21854,19.8912z"
   id="path6706" />
  <path
   class="fil26"
   d="M0.532684 17.066c-0.194884,-3.18547 1.68073,-6.75717 5.19219,-6.75717l104.496 0.237404 0.8882 0.20079 2.49688 0.350792c2.61381,0.748828 3.64256,3.26461 3.36855,6.90363l0.00354335 0 0 0.0791348 -0.0283468 -0.00354335c0.0188979,0.235042 0.0248035,0.468903 0.0248035,0.709851l0.00354335 0 0 0.0791348 -0.561031 -0.0484258 0 -0.0791348 0.00354335 0c0,-2.65279 -2.40239,-4.70557 -4.9666,-4.74455l0 0.00590558 -0.0885838 0 -105.443 -0.387406c-0.721662,0 -1.5012,0.462998 -2.08585,0.462998 -1.05592,0.49725 -2.11892,1.56262 -2.56066,2.66224l0 0.00590558c-0.177168,0.450006 -0.274019,0.940169 -0.274019,1.44569l-0.468903 -0.334256c-0.0188979,-0.26457 -0.0188979,-0.530321 0,-0.788986z"
   id="path6708" />
  <path
   class="fil27"
   d="M116.842 20.001l0.276381 -4.65478c0.0791348,-1.32285 -0.682686,-2.50987 -1.54963,-3.45595 -0.700402,-0.851585 -1.14214,-0.967335 -2.2016,-1.33466l-0.0625992 0.609456 0.727568 0 -0.0236223 2.29845 -0.0342524 2.51696c0.305909,-1.76459 3.41579,4.43864 2.86775,4.02052z"
   id="path6710" />
  <path
   class="fil28"
   d="M0.846861 17.6919l-0.42284 -2.05042c-0.268114,-1.29923 0.682686,-2.50987 1.54963,-3.45595 0.699221,-0.850404 1.48939,-0.917728 2.55003,-1.28506l-0.040158 0.151183 -0.624811 0.457092 0.0236223 2.29963 0.298823 0.773632 0.51851 0.225593c-1.81301,0.357878 -2.9835,0.468903 -3.8528,2.88429z"
   id="path6712" />
  <polygon
   class="fil29"
   points="0.325988,33.454 118.044,33.4516 118.044,35.1158 0.325988,35.117 "
   id="polygon6714" />
  <polygon
   class="fil30"
   points="0.801978,33.0595 117.508,33.0595 117.508,34.0268 0.801978,34.0268 "
   id="polygon6716" />
  <path
   class="fil31"
   d="M117.933 35.0815l0.00472447 82.8683c-0.00472447,1.77758 -0.739379,3.40634 -1.91695,4.58391 -1.17521,1.17521 -2.7957,1.90987 -4.57447,1.90987 -16.766,0 -26.2846,-0.0661425 -37.0516,-0.139372 -13.6655,-0.0944894 -29.4287,-0.203152 -67.8906,-0.203152l-0.0212601 0 0 -0.00236223c-1.77286,-0.00590558 -3.41933,-0.76182 -4.6158,-1.95593 -1.19883,-1.19647 -1.95829,-2.83941 -1.95829,-4.61699l0 -0.020079 0.00236223 0 -0.00118112 -82.4242 0.996863 0 0.00118112 82.4242 0.00236223 0 0 0.020079c0,1.50356 0.643709,2.8961 1.66065,3.91068 1.0193,1.01694 2.41538,1.66065 3.91186,1.66537l0 -0.00236223 0.0212601 0c37.7863,0 53.9121,0.112206 67.8953,0.207877 10.4021,0.0696859 19.5829,0.134647 37.0469,0.134647 1.50356,0 2.87484,-0.621267 3.86816,-1.61459 0.999225,-0.999225 1.62285,-2.37759 1.6264,-3.87761l-0.00472447 -82.8683 0.996863 0z"
   id="path6718" />
  <polygon
   class="fil32"
   points="2.42483,32.0425 117.829,32.0425 117.829,32.9626 2.42483,32.9626 "
   id="polygon6720" />
  <polygon
   class="fil33"
   points="4.92053,28.9445 15.3722,28.9445 15.3722,29.8173 4.92053,29.8173 "
   id="polygon6722" />
  <path
   class="fil34"
   d="M5.14731 14.1876c0.472447,-0.105119 0.96261,-0.160632 1.4634,-0.160632l103.896 0c0.442919,0 0.876389,0.0437013 1.29569,0.12638l-0.620086 0.915366c-0.220869,-0.0271657 -0.447643,-0.040158 -0.675599,-0.040158l-103.896 0c-0.473628,0 -0.935445,0.0566936 -1.376,0.164175l0.119293 -0.0283468 -0.206695 -0.976784zm111.976 6.44063l0.00236223 0.201971 -0.0933082 0.0555125 0.090946 -0.257483z"
   id="path6724" />
  <path
   class="fil35"
   d="M5.4355 15.1242c-0.425202,0.0944894 -0.829144,0.236223 -1.21301,0.418115 -0.779537,0.368508 -1.46813,0.90946 -2.01026,1.5697l-0.0177168 0.020079c-0.419296,0.457092 -0.755915,0.985051 -0.982689,1.55553 -0.214963,0.53977 -0.334256,1.13151 -0.334256,1.74923l-1.00159 0c0,-0.738198 0.381501,-1.11734 0.646071,-1.77994 0.269295,-0.677961 0.429927,-1.63821 0.924815,-2.1827 0.633079,-0.770088 1.4386,-1.40317 2.35042,-1.83427 0.452368,-0.214963 0.931901,-0.383863 1.43151,-0.493707l0.206695 0.977965zm-3.99336 1.35474l0.00472447 -0.00472447"
   id="path6726" />
  <path
   class="fil36"
   d="M116.992 20.9329l0.090946 -0.257483c-0.0437013,-1.78703 -0.664969,-3.41461 -1.84727,-4.60636 -0.929539,-0.936626 -2.12955,-1.60396 -3.47366,-1.86853l-0.620086 0.915366c1.31931,0.155907 2.49924,0.763002 3.38744,1.65711 1.04411,1.05238 2.32916,2.64452 2.32916,4.23903l0.133466 -0.0791348z"
   id="path6728" />
  <path
   class="fil37"
   d="M117.933 35.0815l-0.996863 0 -0.00118112 -18.5176c0.00354335,-1.49648 -0.615362,-2.8713 -1.61222,-3.86698l-0.00118112 -0.00118112c-0.995682,-0.996863 -2.37404,-1.62285 -3.87997,-1.6264l-0.00236223 0 -105.038 -0.174805 0 0.00236223 -0.0188979 0 0 -0.00236223c-1.5012,0 -2.87011,0.618905 -3.85989,1.61104 -0.992138,0.993319 -1.61222,2.3646 -1.61577,3.86461l0.00236223 0 0 0.0188979 -0.00236223 0 0 18.6924 -0.996863 0 0 -18.6924 -0.00236223 0 0 -0.0188979 0.00236223 0c0.00472447,-1.77522 0.735836,-3.39689 1.90632,-4.56856 1.16931,-1.17285 2.7898,-1.90514 4.5662,-1.90396l0 -0.00236223 0.0188979 0 0.00236223 0.00236223 105.04 0.174805c1.78112,0.00590558 3.40752,0.742923 4.58273,1.91813l0.00118112 0.00118112c1.17757,1.17757 1.90868,2.80043 1.90396,4.5721l0.00118112 18.5176z"
   id="path6730" />
  <path
   class="fil38"
   d="M6.13945 118.879c0.367327,0.0744104 0.779537,0.107482 1.23072,0.106301l0.00236223 0 102.873 -0.188979c0.66615,-0.0188979 1.21773,-0.0885838 1.67246,-0.21142l0.653158 0.838593c-0.613,0.22205 -1.36655,0.343705 -2.29727,0.36969l-0.0141734 0 -102.885 0.188979 -0.00236223 0c-1.03584,0.00354335 -1.91813,-0.157089 -2.61854,-0.551582l1.38545 -0.551582z"
   id="path6732" />
  <path
   class="fil39"
   d="M10.4045 42.0194l16.0703 0 0.500794 0 0 0.500794 -0.050788 16.0703 0 0.500794 -0.500794 0 -16.0703 0 -0.500794 0 0 -0.500794 0.050788 -16.0703 0 -0.500794 0.500794 0zm15.5695 1.00159l-15.0687 0 -0.050788 15.0687 15.0687 0 0.050788 -15.0687z"
   id="path6734" />
  <rect
   class="fil40"
   x="12.9486"
   y="45.0206"
   width="11.0848"
   height="11.1214"
   id="rect6736" />
  <path
   class="fil41"
   d="M10.4045 95.9468l16.0183 0 0.500794 0 0 0.500794 -0.050788 16.0703 0 0.500794 -0.500794 0 -16.0183 0 -0.500794 0 0 -0.500794 0.050788 -16.0703 0 -0.500794 0.500794 0zm15.5175 1.00159l-15.0167 0 -0.050788 15.0687 15.0167 0 0.050788 -15.0687z"
   id="path6738" />
  <rect
   class="fil42"
   x="12.847"
   y="99.0508"
   width="11.1864"
   height="11.0186"
   id="rect6740" />
  <path
   class="fil43"
   d="M10.4045 68.9831l16.0927 0 0.500794 0 0 0.500794 -0.050788 16.0703 0 0.500794 -0.500794 0 -16.0927 0 -0.500794 0 0 -0.500794 0.050788 -16.0703 0 -0.500794 0.500794 0zm15.5919 1.00159l-15.0911 0 -0.050788 15.0687 15.0911 0 0.050788 -15.0687z"
   id="path6742" />
  <rect
   class="fil44"
   x="12.9486"
   y="72.1119"
   width="11.0848"
   height="10.9938"
   id="rect6744" />
  <path
   class="fil45"
   d="M5.44849 19.0136l9.12767 -0.0259846 0.49725 -0.00118112 0.00118112 0.499612 0.0259846 8.92924 0.00236223 0.49725 -0.500794 0.00118112 -9.12767 0.0259846 -0.496069 0.00236223 -0.00236223 -0.500794 -0.0259846 -8.92924 -0.00118112 -0.496069 0.499612 -0.00236223zm8.63042 0.972059l-8.13081 0.0236223 0.0236223 7.93238 8.13081 -0.0236223 -0.0236223 -7.93238z"
   id="path6746" />
  <polygon
   class="fil33"
   points="17.0223,28.9445 27.474,28.9445 27.474,29.8173 17.0223,29.8173 "
   id="polygon6748" />
  <path
   class="fil45"
   d="M17.5502 19.0136l9.12767 -0.0259846 0.49725 -0.00118112 0.00118112 0.499612 0.0259846 8.92924 0.00236223 0.49725 -0.500794 0.00118112 -9.12767 0.0259846 -0.496069 0.00236223 -0.00236223 -0.500794 -0.0259846 -8.92924 -0.00118112 -0.496069 0.499612 -0.00236223zm8.63042 0.972059l-8.13081 0.0236223 0.0236223 7.93238 8.13081 -0.0236223 -0.0236223 -7.93238z"
   id="path6750" />
  <polygon
   class="fil33"
   points="28.87,28.9445 39.3217,28.9445 39.3217,29.8173 28.87,29.8173 "
   id="polygon6752" />
  <path
   class="fil45"
   d="M29.398 19.0136l9.12767 -0.0259846 0.49725 -0.00118112 0.00118112 0.499612 0.0259846 8.92924 0.00236223 0.49725 -0.500794 0.00118112 -9.12767 0.0259846 -0.496069 0.00236223 -0.00236223 -0.500794 -0.0259846 -8.92924 -0.00118112 -0.496069 0.499612 -0.00236223zm8.63042 0.972059l-8.13081 0.0236223 0.0236223 7.93238 8.13081 -0.0236223 -0.0236223 -7.93238z"
   id="path6754" />
  <polygon
   class="fil41"
   points="62.9063,99.9154 87.3625,100.05 87.3625,102.724 62.9063,102.587 "
   id="polygon6756" />
  <polygon
   class="fil41"
   points="49.751,89.2877 67.9142,89.2877 67.9142,91.9618 49.751,91.9618 "
   id="polygon6758" />
  <polygon
   class="fil41"
   points="84.8928,48.5652 104.328,48.5652 104.328,51.2215 84.8928,51.2215 "
   id="polygon6760" />
  <polygon
   class="fil41"
   points="89.0432,66.576 104.995,66.576 104.995,69.2312 89.0432,69.2312 "
   id="polygon6762" />
  <polygon
   class="fil41"
   points="68.9123,66.576 85.8577,66.576 85.8577,69.2312 68.9123,69.2312 "
   id="polygon6764" />
  <polygon
   class="fil41"
   points="85.5601,71.9253 104.995,71.9253 104.995,74.5816 85.5601,74.5816 "
   id="polygon6766" />
  <polygon
   class="fil41"
   points="90.9543,93.3401 110.649,93.346 110.649,96.0307 90.9543,96.0248 "
   id="polygon6768" />
  <polygon
   class="fil41"
   points="95.0256,93.3401 91.7905,93.3401 91.7905,96.0248 95.0256,96.0248 "
   id="polygon6770" />
  <polygon
   class="fil41"
   points="48.4813,93.3401 91.7999,93.3401 91.7999,96.0248 48.4813,96.0248 "
   id="polygon6772" />
  <polygon
   class="fil41"
   points="48.4813,88.0688 66.7355,88.0688 66.7355,90.7558 48.4813,90.7558 "
   id="polygon6774" />
  <polygon
   class="fil41"
   points="88.6983,98.8843 110.649,98.9599 110.649,101.643 88.6983,101.571 "
   id="polygon6776" />
  <polygon
   class="fil41"
   points="61.7015,98.7496 86.2806,98.8843 86.2806,101.571 61.7015,101.434 "
   id="polygon6778" />
  <polygon
   class="fil46"
   points="51.2557,57.9208 118.611,57.9208 118.611,123.649 51.2557,123.649 "
   id="polygon6780" />
  <path
   class="fil47"
   d="M59.4314 49.4581l50.7042 0.00354335c3.60831,2.63389 14.1415,10.4765 17.516,17.3553l-0.333075 60.1189 -68.1221 0.106301 0.235042 -77.584z"
   id="path6782" />
  <g
   id="_151908808">
   <path
   id="_151906720"
   class="fil17"
   d="M66.3233 99.8587l34.1095 0 0 1.00159 -34.1095 0 0 -1.00159zm-0.0968516 -18.0735l39.617 0 0 1.00159 -39.617 0 0 -1.00159zm0.0968516 11.9872l10.0678 0 0 0.437013 2.93389 0 0 -0.437013 24.1657 0.050788 0 1.0134 -37.191 -0.0437013 0.0236223 -1.02048zm39.5473 0.050788l15.1915 0.0271657 0 1.01222 -15.1915 -0.0259846 0 -1.0134zm-39.5473 -3.02602l45.4423 0 0 1.01222 -45.4423 0 0 -1.01222zm48.6136 0l-3.18075 0 0 1.01222 3.18075 0 0 -1.01222zm-4.00517 0l10.1304 0.00236223 0 1.01222 -10.1304 -0.00236223 0 -1.01222zm-44.6084 -3.03429l34.1095 0 0 1.00159 -34.1095 0 0 -1.00159zm36.4587 0l18.2801 0 0 1.00159 -18.2801 0 0 -1.00159zm-36.4587 -2.97287l17.7427 0 0 1.00159 -17.7427 0 0 -1.00159zm20.0896 0l10.8958 0 0 1.00159 -10.8958 0 0 -1.00159zm14.0246 0l20.6247 0 0 1.00159 -20.6247 0 0 -1.00159zm-34.5666 -22.968l28.6811 0 0 1.00159 -28.6811 0 0 -1.00159zm0.452368 13.0301l10.0678 0 0 0.437013 2.93389 0 0 -0.437013 24.1657 0.050788 0 1.0134 -11.7261 -0.0248035 -25.4873 0.0318902 0.0460636 -0.0590558 0 -0.575204 0 -0.437013zm39.5473 0.050788l15.1915 0.0271657 0 1.01222 -15.1915 -0.0259846 0 -1.0134zm-39.5473 -3.11461l37.0493 0 0 1.01222 -37.0493 0 0 -1.01222zm40.2206 0l-3.18075 0 0 1.01222 3.18075 0 0 -1.01222zm-4.00517 0l18.5235 0.00236223 0 1.01222 -18.5235 -0.00236223 0 -1.01222zm-36.2154 -3.00949l34.1095 0 0 1.00159 -34.1095 0 0 -1.00159zm36.4587 0l18.2801 0 0 1.00159 -18.2801 0 0 -1.00159zm-36.4587 -2.97523l17.7427 0 0 1.00159 -17.7427 0 0 -1.00159zm20.0896 0l16.6656 0 0 1.00159 -16.6656 0 0 -1.00159zm19.7943 0l14.8549 0 0 1.00159 -14.8549 0 0 -1.00159zm-9.30838 -3.98155l23.7109 0 0 1.00159 -23.7109 0 0 -1.00159zm-31.0279 -6.06031l25.4401 0 0 1.00159 -25.4401 0 0 -1.00159zm0 3.02838l20.164 0 0 1.00159 -20.164 0 0 -1.00159zm23.3023 0l10.1493 0 0 1.00159 -10.1493 0 0 -1.00159zm12.5021 0l18.9345 0 0 1.00159 -18.9345 0 0 -1.00159zm6.5174 22.9952l12.8694 0 0 1.00159 -12.8694 0 0 -1.00159zm-41.9663 -4.01698l20.1617 0 0 1.00159 -20.1617 0 0 -1.00159zm23.2999 0l21.0924 0 0 1.00159 -21.0924 0 0 -1.00159zm23.444 0l8.09183 0 0 1.00159 -8.09183 0 0 -1.00159zm-10.1883 22.0904l18.2801 0 0 1.00159 -18.2801 0 0 -1.00159zm-36.4587 -3.08272l17.7427 0 0 1.00159 -17.7427 0 0 -1.00159zm20.0896 0l10.5793 0 0 1.00159 -10.5793 0 0 -1.00159zm13.708 0l20.9412 0 0 1.00159 -20.9412 0 0 -1.00159z" />
   <path
   id="_151908400"
   class="fil17"
   d="M66.3233 120.806l34.1107 0 0 1.00159 -34.1107 0 0 -1.00159zm-0.0968516 -18.0735l39.617 0 0 1.00159 -39.617 0 0 -1.00159zm0.0968516 11.9872l10.069 0 0 0.437013 2.93271 0 0 -0.437013 24.1657 0.050788 0 1.0134 -37.191 -0.0437013 0.0236223 -1.02048zm39.5473 0.050788l15.1915 0.0271657 0 1.01222 -15.1915 -0.0259846 0 -1.0134zm-39.5473 -3.02602l45.4423 0 0 1.01222 -45.4423 0 0 -1.01222zm48.6136 0l-3.18193 0 0 1.01222 3.18193 0 0 -1.01222zm-4.00635 0l10.1316 0.00236223 0 1.01222 -10.1316 -0.00236223 0 -1.01222zm-44.6072 -3.03429l34.1107 0 0 1.00159 -34.1107 0 0 -1.00159zm36.4587 0l18.2801 0 0 1.00159 -18.2801 0 0 -1.00159zm-36.4587 -2.97287l17.7427 0 0 1.00159 -17.7427 0 0 -1.00159zm20.0896 0l10.8958 0 0 1.00159 -10.8958 0 0 -1.00159zm14.0234 0l20.6258 0 0 1.00159 -20.6258 0 0 -1.00159zm7.75639 -3.00476l12.8694 0 0 1.00159 -12.8694 0 0 -1.00159zm-5.4107 18.0735l18.2801 0 0 1.00159 -18.2801 0 0 -1.00159zm-36.4587 -3.08272l17.7427 0 0 1.00159 -17.7427 0 0 -1.00159zm20.0896 0l10.5793 0 0 1.00159 -10.5793 0 0 -1.00159zm13.7069 0l20.9424 0 0 1.00159 -20.9424 0 0 -1.00159z" />
  </g>
  <polygon
   class="fil48"
   points="110.76,49.2384 60.0681,49.2384 60.0681,51.0809 106.135,51.0809 110.915,49.6589 "
   id="polygon6787" />
  <path
   class="fil49"
   d="M127.382 69.5229c-5.70125,0.0377957 -12.5978,-0.100395 -18.3014,-0.0625992 1.14332,-5.37172 1.35238,-13.864 0.134647,-20.1404 9.45602,6.70874 15.1998,11.4143 17.3518,15.5671 0.974421,1.88506 0.276381,4.01816 0.814971,4.63588z"
   id="path6789" />
  <path
   class="fil50"
   d="M127.105 65.937c-5.43668,0.0377957 -11.1332,0.0755915 -16.5723,0.112206 1.53427,-5.39062 0.506699,-11.4639 -0.050788,-17.4274 10.8604,9.73477 14.947,15.3415 16.623,17.3152z"
   id="path6791" />
  <path
   class="fil51"
   d="M59.4314 48.9597l50.7042 0.00354335 0.292917 0.0956705c1.8142,1.32403 5.3729,3.96147 8.88672,7.11741 3.54335,3.18311 7.0619,6.91308 8.78397,10.4222l0.050788 0.218507 -0.194884 59.709 -0.00236223 0.49725 -0.496069 0.00118112 -68.1221 0.106301 -0.498431 0 0 -0.498431 0.0968516 -77.1742 0.00118112 -0.498431 0.49725 0zm50.5412 1.00041l-50.0439 -0.00354335 -0.0944894 76.1761 67.1252 -0.103938 0.193703 -59.096c-1.67128,-3.3402 -5.0729,-6.93079 -8.5064,-10.0147 -3.41225,-3.065 -6.84575,-5.62094 -8.67412,-6.95796z"
   id="path6793" />
  <path
   class="fil52"
   d="M113.384 91.2472l-17.666 0.927177 -19.0916 -13.2911 -0.139372 15.9675c-10.33,3.30477 -21.5471,3.71697 -31.5063,-3.56461 -7.62175,-5.57487 -11.849,-12.3108 -10.7482,-20.1203l-0.943712 -0.145277c-2.15672,6.44535 0.998044,37.2512 30.8248,45.6915 2.0327,0.572842 7.4056,0.737017 12.0013,1.09135l0.0366146 9.28122 4.07485 -0.0921271 33.1575 -35.7453z"
   id="path6795" />
  <path
   class="fil53"
   d="M109.459 91.3995l-18.0711 -13.2793 -19.0904 -13.2911 -0.140553 15.9687c-10.33,3.30477 -21.5459,3.71697 -31.5063,-3.56461 -7.62175,-5.57487 -11.8478,-12.3108 -10.7482,-20.1215l-0.943712 -0.144096c-2.15672,6.44417 0.998044,37.2512 30.826,45.6903 2.03152,0.572842 7.40442,0.738198 12.0013,1.09253l0.050788 13.5639 19.3219 -12.9521 18.3002 -12.9628z"
   id="path6797" />
  <g
   id="_151909384">
   <g
   id="g6800">
    <path
   id="_151910944"
   class="fil54"
   d="M47.3226 96.9614l0.030709 -15.9994c8.12845,3.23154 16.7352,2.41775 24.8046,-0.162994l0.140553 -15.9687 19.0904 13.2899 2.44609 1.79884 -0.040158 22.577 -2.63743 1.86616 -19.3195 12.9521 -0.0531503 -13.5628c-4.59454,-0.354335 -9.96981,-0.517329 -12.0001,-1.09371 -4.7599,-1.34647 -8.89145,-3.32012 -12.462,-5.69653z" />
    <path
   id="_151907008"
   class="fil55"
   d="M49.0258 98.0351l0.0283468 -16.4589c7.62057,2.49216 15.5955,1.62522 23.1038,-0.777175l0.140553 -15.9687 18.1762 12.6545 -0.0496069 27.3688 -18.5872 12.4608 -0.0531503 -13.5628c-4.59454,-0.354335 -9.96981,-0.517329 -12.0001,-1.09371 -4.0217,-1.13623 -7.59222,-2.72484 -10.7588,-4.62289z" />
    <path
   id="_151909984"
   class="fil56"
   d="M50.7172 99.0036l0.0318902 -16.9266c7.10324,1.86026 14.4545,0.946075 21.4089,-1.27797l0.140553 -15.9687 14.8088 10.3088 -0.0590558 31.9799 -15.2104 10.1954 -0.0531503 -13.5628c-4.59454,-0.354335 -9.96981,-0.517329 -12.0001,-1.09371 -3.32012,-0.938988 -6.33315,-2.1827 -9.06743,-3.65438z" />
    <path
   id="_151904896"
   class="fil57"
   d="M52.4156 99.8646l0.030709 -17.3967c6.57173,1.31576 13.3124,0.379139 19.7117,-1.66892l0.140553 -15.9687 11.4415 7.96545 -0.0649614 36.5839 -11.8372 7.93474 -0.0531503 -13.5628c-4.59454,-0.354335 -9.96981,-0.517329 -12.0001,-1.09371 -2.64925,-0.747647 -5.09534,-1.69372 -7.36899,-2.79334z" />
    <path
   id="_151910656"
   class="fil58"
   d="M54.1188 100.644l0.0342524 -17.8845c6.02724,0.851585 12.1561,-0.090946 18.0049,-1.96065l0.140553 -15.9687 8.08711 5.6292 -0.0755915 41.1726 -8.47215 5.68235 -0.0531503 -13.5628c-4.59454,-0.354335 -9.96981,-0.517329 -12.0001,-1.09371 -1.99727,-0.566936 -3.88351,-1.24253 -5.66582,-2.0138z" />
    <path
   id="_151908136"
   class="fil59"
   d="M55.8196 101.34l0.0342524 -18.3888c5.47566,0.472447 11.0068,-0.457092 16.3041,-2.15199l0.140553 -15.9687 4.71738 3.2835 -0.0850404 45.786 -5.09298 3.41461 -0.0531503 -13.5628c-4.59454,-0.354335 -9.96981,-0.517329 -12.0001,-1.09371 -1.37482,-0.387406 -2.69649,-0.832687 -3.96501,-1.31813z" />
    <path
   id="_151906888"
   class="fil60"
   d="M57.5145 101.947l0.0342524 -18.8931c4.91817,0.172443 9.8576,-0.735836 14.6092,-2.25475l0.140553 -15.9687 1.35592 0.946075 -0.090946 50.3782 -1.72561 1.15986 -0.0531503 -13.5628c-4.59454,-0.354335 -9.96981,-0.517329 -12.0001,-1.09371 -0.773632,-0.218507 -1.52837,-0.459454 -2.27011,-0.711032z" />
    <path
   id="_151907944"
   class="fil61"
   d="M59.2118 102.487l0.0377957 -19.414c3.7028,-0.0531503 7.40088,-0.688591 11.0092,-1.70435l-0.040158 22.27c-4.1906,-0.281106 -8.63278,-0.468903 -10.434,-0.980327l-0.572842 -0.171262z" />
   </g>
   <g
   id="g6810">
    <path
   id="_151905664"
   class="fil54"
   d="M59.5247 102.58l0.0377957 -19.5132c4.2473,-0.100395 8.49223,-0.955524 12.5954,-2.26774l0.140553 -15.9687 2.12719 1.4823 -0.0885838 49.3258 -2.49924 1.676 -0.0531503 -13.5628c-4.59454,-0.354335 -9.96981,-0.517329 -12.0001,-1.09371l-0.259846 -0.0779537z" />
    <path
   id="_151909792"
   class="fil55"
   d="M60.0669 102.73l0.0377957 -19.6821c4.06895,-0.157089 8.1249,-0.993319 12.0533,-2.24885l0.140553 -15.9687 1.05238 0.733474 -0.090946 50.7987 -1.42206 0.95198 -0.0531503 -13.5628c-4.39494,-0.337799 -9.50681,-0.500794 -11.7179,-1.02167z" />
    <path
   id="_151912984"
   class="fil56"
   d="M60.609 102.84l0.0342524 -19.8168c3.88351,-0.206695 7.75876,-1.02403 11.5147,-2.22404l0.115749 -13.1269 -0.090946 49.4097 -0.344886 0.23268 -0.0531503 -13.5628c-4.06895,-0.312996 -8.74853,-0.47599 -11.1757,-0.911822z" />
    <path
   id="_151906624"
   class="fil57"
   d="M61.1511 102.928l0.0342524 -19.9373c3.36382,-0.227956 6.71819,-0.904736 9.98871,-1.88861l-0.0413391 22.5995c-3.61776,-0.261027 -7.58868,-0.426383 -9.98162,-0.773632z" />
    <path
   id="_151907272"
   class="fil58"
   d="M61.6992 103l0.0342524 -20.0495c2.81224,-0.23268 5.61621,-0.771269 8.36939,-1.53781l-0.0413391 22.2168c-3.04138,-0.206695 -6.19496,-0.360241 -8.36231,-0.629535z" />
    <path
   id="_151907536"
   class="fil59"
   d="M62.2413 103.063l0.0342524 -20.1593c2.26774,-0.219688 4.5225,-0.635441 6.75008,-1.20238l-0.0413391 21.8566c-2.44964,-0.157089 -4.88274,-0.295279 -6.743,-0.494888z" />
    <path
   id="_151910056"
   class="fil60"
   d="M62.7799 103.119l0.0342524 -20.2715c1.71971,-0.191341 3.43587,-0.491345 5.13668,-0.885838l-0.040158 21.5306c-1.84845,-0.115749 -3.6402,-0.229137 -5.13077,-0.373233z" />
    <path
   id="_151909504"
   class="fil61"
   d="M63.3244 103.169l0.0342524 -20.3849c1.17521,-0.14764 2.34688,-0.344886 3.515,-0.585834l-0.0377957 21.2247c-1.24726,-0.0791348 -2.44373,-0.160632 -3.51146,-0.25394z" />
   </g>
  </g>
  <path
   class="fil62"
   d="M109.614 91.3558l-9.79736 -8.3564 -27.1066 -18.1479 0.0377957 -1.29096 -0.115749 -0.0850404 -0.0814971 5.11187 36.669 23.3412 0.394493 -0.572842zm-36.8969 -11.3789l-0.0153545 0.00236223 -0.0070867 0.987414c-10.33,3.30358 -21.5306,4.141 -30.9027,-3.86816 -0.75119,-0.642528 -1.46813,-1.30395 -2.15081,-1.97719 -5.63865,-4.56384 -9.04617,-9.85642 -9.25996,-15.8293 0.316539,6.12291 4.22958,13.7966 11.4108,19.9361 9.37216,8.00915 20.5727,7.17292 30.9027,3.86816l0.0224412 -3.11933z"
   id="path6820" />
  <path
   class="fil63"
   d="M108.607 91.3936l-17.5053 -12.8635 -18.3144 -12.7513 -0.132285 15.0226 -0.00354335 0.361422 -0.342524 0.109844c-5.22172,1.6701 -10.6738,2.61027 -16.0797,2.21105 -5.42841,-0.400399 -10.8119,-2.14845 -15.8742,-5.84771 -3.98627,-2.91736 -7.06662,-6.15834 -8.96232,-9.70878 -1.71971,-3.21972 -2.46735,-6.68985 -2.04688,-10.3938l-0.0318902 -0.00472447c-0.894105,3.44532 -0.511424,12.0663 3.37445,21.0038 3.94611,9.0757 11.5159,18.4443 25.0491,22.9727 0.696859,0.233861 1.42679,0.459454 2.18152,0.672056 1.41498,0.398036 4.59927,0.598826 7.97136,0.810246 1.32521,0.0826782 2.68468,0.1689 3.93194,0.26457l0.459454 0.0342524 0.00236223 0.464179 0.0472447 12.632 18.5494 -12.4348 0.00118112 0.00118112 17.725 -12.5553zm-16.9242 -13.6762l18.0711 13.2793 0.556306 0.408666 -0.564574 0.400399 -18.3002 12.9628 -0.00944894 0.00826782 -19.3219 12.9521 -0.773632 0.517329 -0.00236223 -0.931901 -0.0496069 -13.0998c-1.15395,-0.0850404 -2.31853,-0.15827 -3.45949,-0.230318 -3.42642,-0.214963 -6.66268,-0.418115 -8.17923,-0.84568 -0.746466,-0.210239 -1.49175,-0.441738 -2.22877,-0.688591 -13.8569,-4.63706 -21.6074,-14.2277 -25.6468,-23.5184 -4.04414,-9.29893 -4.36541,-18.3427 -3.38154,-21.8223l0.00354335 -0.0118112 0.0850404 -0.276381 0.127561 -0.41221 0.424021 0.0637803 0.943712 0.144096 0.490164 0.0755915 -0.0696859 0.487801c-0.516148,3.67209 0.17953,7.10442 1.87443,10.2769 1.82128,3.40988 4.80242,6.54103 8.67412,9.37334 4.89691,3.57878 10.1045,5.26896 15.3545,5.65637 5.15321,0.38032 10.3596,-0.490164 15.3616,-2.05514l0.13701 -15.6061 0.00826782 -0.946075 0.775994 0.53977 19.0904 13.2911 0.00944894 0.0070867z"
   id="path6822" />
 </g>
</svg>