<?xml version="1.0" encoding="UTF-8" standalone="no"?>
<!-- Creator: CorelDRAW -->

<svg
   xmlns:dc="http://purl.org/dc/elements/1.1/"
   xmlns:cc="http://creativecommons.org/ns#"
   xmlns:rdf="http://www.w3.org/1999/02/22-rdf-syntax-ns#"
   xmlns:svg="http://www.w3.org/2000/svg"
   xmlns="http://www.w3.org/2000/svg"
   xmlns:xlink="http://www.w3.org/1999/xlink"
   xmlns:sodipodi="http://sodipodi.sourceforge.net/DTD/sodipodi-0.dtd"
   xmlns:inkscape="http://www.inkscape.org/namespaces/inkscape"
   xml:space="preserve"
   width="128px"
   height="128px"
   style="shape-rendering:geometricPrecision; text-rendering:geometricPrecision; image-rendering:optimizeQuality; fill-rule:evenodd; clip-rule:evenodd"
   viewBox="0 0 128 128"
   id="svg4578"
   version="1.1"
   inkscape:version="0.48.1 r9760"
   sodipodi:docname="system-run.svg"><metadata
   id="metadata4891"><rdf:RDF><cc:Work
       rdf:about=""><dc:format>image/svg+xml</dc:format><dc:type
         rdf:resource="http://purl.org/dc/dcmitype/StillImage" /><dc:title></dc:title></cc:Work></rdf:RDF></metadata><sodipodi:namedview
   pagecolor="#ffffff"
   bordercolor="#666666"
   borderopacity="1"
   objecttolerance="10"
   gridtolerance="10"
   guidetolerance="10"
   inkscape:pageopacity="0"
   inkscape:pageshadow="2"
   inkscape:window-width="646"
   inkscape:window-height="480"
   id="namedview4889"
   showgrid="false"
   inkscape:zoom="2.078125"
   inkscape:cx="64"
   inkscape:cy="64"
   inkscape:window-x="0"
   inkscape:window-y="24"
   inkscape:window-maximized="0"
   inkscape:current-layer="svg4578" />
 <defs
   id="defs4580">
  <style
   type="text/css"
   id="style4582">
   
    .fil81 {fill:white}
    .fil40 {fill:#333333}
    .fil42 {fill:#4C4C4C}
    .fil45 {fill:#666666}
    .fil69 {fill:#727272}
    .fil72 {fill:#999999}
    .fil94 {fill:#C2C2C2}
    .fil96 {fill:#CCCCCC}
    .fil48 {fill:#D6D6D6}
    .fil79 {fill:#E5E5E5}
    .fil83 {fill:white}
    .fil67 {fill:#191919;fill-rule:nonzero}
    .fil97 {fill:#737373;fill-rule:nonzero}
    .fil99 {fill:#B2B2B2;fill-rule:nonzero}
    .fil44 {fill:#CCCCCC;fill-rule:nonzero}
    .fil28 {fill:#D17813;fill-rule:nonzero}
    .fil29 {fill:#FFF5C2;fill-rule:nonzero}
    .fil98 {fill:white;fill-rule:nonzero}
    .fil1 {fill:black;fill-opacity:0.000000}
    .fil15 {fill:#333333;fill-opacity:0.000000}
    .fil30 {fill:#915623;fill-opacity:0.000000}
    .fil92 {fill:#E5E5E5;fill-opacity:0.000000}
    .fil2 {fill:black;fill-opacity:0.003922}
    .fil3 {fill:black;fill-opacity:0.007843}
    .fil16 {fill:#333333;fill-opacity:0.011765}
    .fil4 {fill:black;fill-opacity:0.015686}
    .fil5 {fill:black;fill-opacity:0.019608}
    .fil66 {fill:#333333;fill-opacity:0.023529}
    .fil6 {fill:black;fill-opacity:0.023529}
    .fil31 {fill:#915623;fill-opacity:0.023529}
    .fil17 {fill:#333333;fill-opacity:0.027451}
    .fil7 {fill:black;fill-opacity:0.027451}
    .fil8 {fill:black;fill-opacity:0.031373}
    .fil9 {fill:black;fill-opacity:0.035294}
    .fil18 {fill:#333333;fill-opacity:0.039216}
    .fil10 {fill:black;fill-opacity:0.043137}
    .fil65 {fill:#333333;fill-opacity:0.043137}
    .fil11 {fill:black;fill-opacity:0.047059}
    .fil32 {fill:#915623;fill-opacity:0.047059}
    .fil12 {fill:black;fill-opacity:0.050980}
    .fil19 {fill:#333333;fill-opacity:0.054902}
    .fil13 {fill:black;fill-opacity:0.054902}
    .fil14 {fill:black;fill-opacity:0.058824}
    .fil64 {fill:#333333;fill-opacity:0.066667}
    .fil20 {fill:#333333;fill-opacity:0.066667}
    .fil33 {fill:#915623;fill-opacity:0.074510}
    .fil21 {fill:#333333;fill-opacity:0.078431}
    .fil63 {fill:#333333;fill-opacity:0.086275}
    .fil22 {fill:#333333;fill-opacity:0.094118}
    .fil34 {fill:#915623;fill-opacity:0.098039}
    .fil23 {fill:#333333;fill-opacity:0.105882}
    .fil62 {fill:#333333;fill-opacity:0.109804}
    .fil91 {fill:#E5E5E5;fill-opacity:0.109804}
    .fil24 {fill:#333333;fill-opacity:0.121569}
    .fil95 {fill:#4C4C4C;fill-opacity:0.121569}
    .fil35 {fill:#915623;fill-opacity:0.121569}
    .fil61 {fill:#333333;fill-opacity:0.129412}
    .fil36 {fill:#915623;fill-opacity:0.145098}
    .fil60 {fill:#333333;fill-opacity:0.152941}
    .fil37 {fill:#915623;fill-opacity:0.172549}
    .fil59 {fill:#333333;fill-opacity:0.172549}
    .fil38 {fill:#915623;fill-opacity:0.196078}
    .fil58 {fill:#333333;fill-opacity:0.196078}
    .fil57 {fill:#333333;fill-opacity:0.215686}
    .fil39 {fill:#915623;fill-opacity:0.219608}
    .fil90 {fill:#E5E5E5;fill-opacity:0.223529}
    .fil56 {fill:#333333;fill-opacity:0.239216}
    .fil55 {fill:#333333;fill-opacity:0.262745}
    .fil54 {fill:#333333;fill-opacity:0.282353}
    .fil53 {fill:#333333;fill-opacity:0.305882}
    .fil52 {fill:#333333;fill-opacity:0.325490}
    .fil89 {fill:#E5E5E5;fill-opacity:0.333333}
    .fil51 {fill:#333333;fill-opacity:0.349020}
    .fil50 {fill:#333333;fill-opacity:0.368627}
    .fil41 {fill:#191919;fill-opacity:0.439216}
    .fil46 {fill:#FFF5C2;fill-rule:nonzero;fill-opacity:0.439216}
    .fil88 {fill:#E5E5E5;fill-opacity:0.443137}
    .fil49 {fill:#333333;fill-opacity:0.501961}
    .fil87 {fill:#E5E5E5;fill-opacity:0.556863}
    .fil86 {fill:#E5E5E5;fill-opacity:0.666667}
    .fil85 {fill:#E5E5E5;fill-opacity:0.776471}
    .fil74 {fill:white;fill-opacity:0.780392}
    .fil80 {fill:#666666;fill-opacity:0.780392}
    .fil84 {fill:#E5E5E5;fill-opacity:0.890196}
    .fil93 {fill:url(#id0)}
    .fil76 {fill:url(#id1)}
    .fil73 {fill:url(#id2)}
    .fil0 {fill:url(#id3)}
    .fil25 {fill:url(#id4)}
    .fil26 {fill:url(#id5)}
    .fil78 {fill:url(#id6)}
    .fil71 {fill:url(#id7)}
    .fil100 {fill:url(#id8)}
    .fil43 {fill:url(#id9)}
    .fil75 {fill:url(#id10)}
    .fil77 {fill:url(#id11)}
    .fil70 {fill:url(#id12)}
    .fil68 {fill:url(#id13)}
    .fil47 {fill:url(#id14);fill-rule:nonzero}
    .fil101 {fill:url(#id15);fill-opacity:0.321569}
    .fil102 {fill:url(#id16);fill-opacity:0.321569}
    .fil82 {fill:url(#id17);fill-opacity:0.439216}
    .fil27 {fill:url(#id18);fill-rule:nonzero;fill-opacity:0.439216}
   
  </style>
  <linearGradient
   id="id0"
   gradientUnits="userSpaceOnUse"
   x1="96.5658"
   y1="82.69"
   x2="83.3514"
   y2="97.1445">
   <stop
   offset="0"
   style="stop-color:#666666"
   id="stop4585" />
   <stop
   offset="1"
   style="stop-color:#4C4C4C"
   id="stop4587" />
  </linearGradient>
  <linearGradient
   id="id1"
   gradientUnits="userSpaceOnUse"
   x1="96.4866"
   y1="134.998"
   x2="99.9331"
   y2="74.6856">
   <stop
   offset="0"
   style="stop-color:#B2B2B2"
   id="stop4590" />
   <stop
   offset="1"
   style="stop-color:#666666"
   id="stop4592" />
  </linearGradient>
  <linearGradient
   id="id2"
   gradientUnits="userSpaceOnUse"
   x1="88.4125"
   y1="52.6306"
   x2="87.3849"
   y2="124.759">
   <stop
   offset="0"
   style="stop-color:#CCCCCC"
   id="stop4595" />
   <stop
   offset="0.560784"
   style="stop-color:#CCCCCC"
   id="stop4597" />
   <stop
   offset="1"
   style="stop-color:#A1A1A1"
   id="stop4599" />
  </linearGradient>
  <linearGradient
   id="id3"
   gradientUnits="userSpaceOnUse"
   x1="101.008"
   y1="51.792"
   x2="99.1831"
   y2="122.078">
   <stop
   offset="0"
   style="stop-color:#E8961C"
   id="stop4602" />
   <stop
   offset="1"
   style="stop-color:#F2AB1E"
   id="stop4604" />
  </linearGradient>
  <linearGradient
   id="id4"
   gradientUnits="userSpaceOnUse"
   x1="49.1841"
   y1="120.046"
   x2="49.1841"
   y2="64.2055">
   <stop
   offset="0"
   style="stop-color:#FED81A"
   id="stop4607" />
   <stop
   offset="1"
   style="stop-color:#FEE65E"
   id="stop4609" />
  </linearGradient>
  <linearGradient
   id="id5"
   gradientUnits="userSpaceOnUse"
   xlink:href="#id3"
   x1="10.8533"
   y1="48.5026"
   x2="9.41232"
   y2="119.436">
  </linearGradient>
  <linearGradient
   id="id6"
   gradientUnits="userSpaceOnUse"
   xlink:href="#id1"
   x1="94.7775"
   y1="80.9089"
   x2="94.7775"
   y2="108.162">
  </linearGradient>
  <linearGradient
   id="id7"
   gradientUnits="userSpaceOnUse"
   x1="104.137"
   y1="55.1747"
   x2="105.975"
   y2="117.207">
   <stop
   offset="0"
   style="stop-color:#CCCCCC"
   id="stop4614" />
   <stop
   offset="0.388235"
   style="stop-color:#B2B2B2"
   id="stop4616" />
   <stop
   offset="1"
   style="stop-color:#7F7F7F"
   id="stop4618" />
  </linearGradient>
  <linearGradient
   id="id8"
   gradientUnits="userSpaceOnUse"
   x1="36.0453"
   y1="21.9652"
   x2="36.0453"
   y2="28.0551">
   <stop
   offset="0"
   style="stop-color:#353535"
   id="stop4621" />
   <stop
   offset="1"
   style="stop-color:#454545"
   id="stop4623" />
  </linearGradient>
  <linearGradient
   id="id9"
   gradientUnits="userSpaceOnUse"
   x1="54.5794"
   y1="10.7304"
   x2="54.2629"
   y2="35.4252">
   <stop
   offset="0"
   style="stop-color:#DEDEDE"
   id="stop4626" />
   <stop
   offset="1"
   style="stop-color:#F1F1F1"
   id="stop4628" />
  </linearGradient>
  <linearGradient
   id="id10"
   gradientUnits="userSpaceOnUse"
   x1="108.025"
   y1="108.747"
   x2="92.4909"
   y2="66.5524">
   <stop
   offset="0"
   style="stop-color:whitesmoke"
   id="stop4631" />
   <stop
   offset="1"
   style="stop-color:#919191"
   id="stop4633" />
  </linearGradient>
  <linearGradient
   id="id11"
   gradientUnits="userSpaceOnUse"
   x1="94.6453"
   y1="101.148"
   x2="85.6688"
   y2="79.4986">
   <stop
   offset="0"
   style="stop-color:white"
   id="stop4636" />
   <stop
   offset="1"
   style="stop-color:#919191"
   id="stop4638" />
  </linearGradient>
  <linearGradient
   id="id12"
   gradientUnits="userSpaceOnUse"
   x1="57.1909"
   y1="38.9733"
   x2="57.2641"
   y2="40.4828">
   <stop
   offset="0"
   style="stop-color:#A8A8A8"
   id="stop4641" />
   <stop
   offset="1"
   style="stop-color:#999999"
   id="stop4643" />
  </linearGradient>
  <linearGradient
   id="id13"
   gradientUnits="userSpaceOnUse"
   xlink:href="#id12"
   x1="55.4369"
   y1="49.4687"
   x2="55.5952"
   y2="51.4246">
  </linearGradient>
  <linearGradient
   id="id14"
   gradientUnits="userSpaceOnUse"
   x1="80.525"
   y1="58.3602"
   x2="98.6268"
   y2="118.425">
   <stop
   offset="0"
   style="stop-color:#999999"
   id="stop4647" />
   <stop
   offset="1"
   style="stop-color:#666666"
   id="stop4649" />
  </linearGradient>
  <linearGradient
   id="id15"
   gradientUnits="userSpaceOnUse"
   x1="37.354"
   y1="16.4648"
   x2="40.5855"
   y2="36.5627">
   <stop
   offset="0"
   style="stop-color:#F0A025"
   id="stop4652" />
   <stop
   offset="1"
   style="stop-color:#4C4C4C"
   id="stop4654" />
  </linearGradient>
  <linearGradient
   id="id16"
   gradientUnits="userSpaceOnUse"
   xlink:href="#id15"
   x1="73.7903"
   y1="16.0526"
   x2="83.2038"
   y2="34.0386">
  </linearGradient>
  <linearGradient
   id="id17"
   gradientUnits="userSpaceOnUse"
   x1="104.753"
   y1="117.813"
   x2="45.3714"
   y2="116.993">
   <stop
   offset="0"
   style="stop-color:#E5E5E5"
   id="stop4658" />
   <stop
   offset="1"
   style="stop-color:#FFE462"
   id="stop4660" />
  </linearGradient>
  <linearGradient
   id="id18"
   gradientUnits="userSpaceOnUse"
   xlink:href="#id4"
   x1="7.41741"
   y1="119.501"
   x2="7.41741"
   y2="64.8197">
  </linearGradient>
 </defs>
 <g
   id="Слой_x0020_1">
  <metadata
   id="CorelCorpID_0Corel-Layer" />
  <path
   class="fil0"
   d="M96.8728 123.267l-1.15041 -72.8501 6.05086 0.288193 1.69608 4.94888 0.999225 64.2374c0,3.56107 -3.47839,3.37563 -7.03591,3.37563l-0.559849 0z"
   id="path4665" />
  <g
   id="_249977496">
   <path
   id="_249975576"
   class="fil1"
   d="M54.1034 107.482c50.4632,-2.50397 57.2712,7.16111 57.4909,15.0061 0.220869,7.84498 -26.1795,3.3839 -55.6023,4.73746 -29.4204,1.35474 -54.231,2.49452 -54.231,-3.32012 0,-5.81582 1.87798,-13.9159 52.3424,-16.4234z" />
   <g
   id="g4669">
    <path
   id="_249955128"
   class="fil2"
   d="M54.2215 108.447c48.3219,-2.31026 56.6759,6.8363 56.879,14.2195 0.201971,7.26269 -26.033,3.15594 -55.0589,4.40675 -29.0295,1.24962 -53.7987,2.29137 -53.7987,-3.09925 0,-5.50755 3.65556,-13.212 51.9786,-15.527z" />
    <path
   id="_249958176"
   class="fil3"
   d="M54.3349 109.412c46.184,-2.1201 56.0842,6.51032 56.2708,13.4281 0.186616,6.68394 -25.8901,2.93153 -54.5204,4.07603 -28.6315,1.14686 -53.3617,2.08821 -53.3617,-2.87484 0,-5.20046 5.42605,-12.508 51.6113,-14.6293z" />
    <path
   id="_249973728"
   class="fil4"
   d="M54.4495 110.377c44.0438,-1.92522 55.4901,6.18551 55.6578,12.6403 0.171262,6.10283 -25.7413,2.70476 -53.977,3.7465 -28.2381,1.04175 -52.927,1.88506 -52.927,-2.65161 0,-4.89455 7.20245,-11.8064 51.2463,-13.7352z" />
    <path
   id="_249955008"
   class="fil5"
   d="M54.5629 111.34c41.906,-1.73388 54.8995,5.85952 55.0507,11.8513 0.153545,5.52408 -25.5972,2.47916 -53.4396,3.41461 -27.8401,0.937807 -52.4888,1.68191 -52.4888,-2.4272 0,-4.58746 8.97295,-11.1037 50.8778,-12.8387z" />
    <path
   id="_249962784"
   class="fil6"
   d="M54.6774 112.308c39.7658,-1.54018 54.303,5.53471 54.44,11.0635 0.134647,4.94297 -25.4519,2.25121 -52.8975,3.0839 -27.4456,0.833869 -52.0565,1.47994 -52.0565,-2.20515 0,-4.27919 10.7482,-10.3986 50.514,-11.9423z" />
    <path
   id="_249976608"
   class="fil7"
   d="M54.7897 113.276c37.6257,-1.35002 53.7148,5.20873 53.8329,10.2745 0.116931,4.36068 -25.3066,2.02325 -52.3589,2.75436 -27.0511,0.727568 -51.6207,1.27679 -51.6207,-1.98428 0,-3.97092 12.521,-9.69461 50.1467,-11.0446z" />
    <path
   id="_249975936"
   class="fil8"
   d="M54.9042 114.236c35.4855,-1.15513 53.1196,4.88274 53.2211,9.48673 0.101576,3.78076 -25.159,1.79884 -51.8144,2.42247 -26.6578,0.625992 -51.1861,1.07364 -51.1861,-1.7575 0,-3.66855 14.2939,-8.99421 49.7794,-10.1517z" />
    <path
   id="_249979200"
   class="fil9"
   d="M55.0188 115.206c33.3453,-0.964973 52.5278,4.55557 52.6117,8.69656 0.0850404,3.19965 -25.0137,1.57089 -51.2758,2.09294 -26.2621,0.520873 -50.7514,0.870483 -50.7514,-1.53663 0,-3.36028 16.0679,-8.29026 49.4156,-9.25287z" />
    <path
   id="_249963648"
   class="fil10"
   d="M55.1334 116.172c31.2039,-0.770088 51.9337,4.23194 52.0022,7.90994 0.0661425,2.61854 -24.8696,1.34411 -50.7372,1.76223 -25.8653,0.416934 -50.3144,0.667331 -50.3144,-1.31458 0,-3.05201 17.8408,-7.58513 49.0494,-8.35758z" />
    <path
   id="_249975864"
   class="fil11"
   d="M55.2479 117.137c29.0649,-0.579928 51.342,3.90477 51.3928,7.11859 0.0496069,2.04097 -24.7255,1.1197 -50.1998,1.43151 -25.4684,0.311815 -49.8786,0.464179 -49.8786,-1.09017 0,-2.74492 19.6148,-6.88237 48.6856,-7.45993z" />
    <path
   id="_249975624"
   class="fil12"
   d="M55.3601 118.102c26.9259,-0.385044 50.7514,3.57997 50.7845,6.33197 0.0318902,1.45868 -24.5779,0.891743 -49.6577,1.1008 -25.0751,0.206695 -49.4427,0.261027 -49.4427,-0.86694 0,-2.43901 21.3888,-6.18078 48.3159,-6.56583z" />
    <path
   id="_249978072"
   class="fil13"
   d="M55.4759 119.067c24.7869,-0.194884 50.1561,3.25398 50.1738,5.54062 0.0165356,0.878751 -24.4349,0.667331 -49.1191,0.770088 -24.6783,0.105119 -49.0069,0.0590558 -49.0069,-0.642528 0,-2.13192 23.1617,-5.47566 47.9522,-5.66818z" />
   </g>
   <path
   id="_249978432"
   class="fil14"
   d="M55.5845 120.036c22.6479,0 49.5668,2.92917 49.5668,4.754 0,0.596464 -97.1504,0.571661 -97.1504,0.0188979 0,-1.82483 24.9357,-4.77289 47.5837,-4.77289z" />
  </g>
  <g
   id="_156498480">
   <path
   id="_249960216"
   class="fil15"
   d="M88.618 121.004c32.2811,-0.884657 34.3658,5.31503 34.3658,6.41228 0,1.09608 -14.9234,2.76145 -33.324,2.76145 -18.4018,0 -33.3229,-1.66537 -33.3229,-2.76145 0,-1.09726 0,-5.52645 32.2811,-6.41228z" />
   <g
   id="g4686">
    <path
   id="_156492624"
   class="fil16"
   d="M88.6227 121.463c29.1559,-0.784262 31.4413,4.84022 31.4413,5.88905 0,0.987414 -13.7104,2.4709 -30.5106,2.4709 -16.799,0 -30.5071,-1.48348 -30.5071,-2.4709 0,-1.04883 0.424021,-5.10242 29.5763,-5.88905z" />
    <path
   id="_156496776"
   class="fil17"
   d="M88.6251 121.923c26.0306,-0.688591 28.5192,4.37131 28.5192,5.367 0,0.875208 -12.4962,2.18152 -27.7019,2.18152 -15.1974,0 -27.6901,-1.30868 -27.6901,-2.18152 0,-0.995682 0.842136,-4.67604 26.8728,-5.367z" />
    <path
   id="_156504288"
   class="fil18"
   d="M88.631 122.384c22.9066,-0.588196 25.596,3.89769 25.596,4.84376 0,0.766545 -11.2832,1.88979 -24.8838,1.88979 -13.6006,0 -24.8838,-1.1256 -24.8838,-1.88979 0,-0.946075 1.2697,-4.25438 24.1716,-4.84376z" />
    <path
   id="_156496800"
   class="fil19"
   d="M88.6357 122.848c19.7813,-0.493707 22.6739,3.42406 22.6739,4.32171 0,0.656701 -10.0702,1.60278 -22.0727,1.59805 -12.0013,0 -22.0668,-0.946075 -22.0668,-1.59805 0,-0.897649 1.68309,-3.83036 21.4656,-4.32171z" />
    <path
   id="_156500328"
   class="fil20"
   d="M88.6405 123.3c16.6573,-0.39095 19.7495,2.95397 19.7495,3.79965 0,0.544495 -8.85601,1.31222 -19.2593,1.31222 -10.3997,0 -19.2557,-0.77245 -19.2557,-1.31222 0,-0.84568 2.10947,-3.40398 18.7656,-3.79965z" />
    <path
   id="_156507000"
   class="fil21"
   d="M88.6464 123.767c13.5309,-0.297641 16.8238,2.47916 16.8238,3.27524 0,0.432289 -7.64301,1.02285 -16.4471,1.01812 -8.80168,0 -16.44,-0.587015 -16.44,-1.01812 0,-0.796073 2.52995,-2.97996 16.0632,-3.27524z" />
    <path
   id="_156496488"
   class="fil22"
   d="M88.6511 124.228c10.4092,-0.197247 13.9053,2.00672 13.9053,2.75082 0,0.324807 -6.43118,0.733474 -13.6325,0.728749 -7.20245,0 -13.6336,-0.406304 -13.6336,-0.728749 0,-0.744104 2.95515,-2.55712 13.3608,-2.75082z" />
    <path
   id="_156504024"
   class="fil23"
   d="M88.6546 124.686c7.28159,-0.0992138 10.9785,1.53781 10.9785,2.23231 0,0.213782 -5.21581,0.441738 -10.8178,0.439375 -5.6044,0 -10.819,-0.23268 -10.819,-0.439375 0,-0.694497 3.37445,-2.13428 10.6584,-2.23231z" />
   </g>
   <path
   id="_156503328"
   class="fil24"
   d="M88.6594 125.15c4.15635,0 8.05758,1.06537 8.05758,1.70908 0,0.210239 -16.0112,0.194884 -16.0112,0 0,-0.643709 3.79611,-1.70908 7.95364,-1.70908z" />
  </g>
  <polygon
   class="fil25"
   points="11.1675,61.1027 87.2019,61.1712 87.2019,123.149 11.4722,123.115 "
   id="polygon4697" />
  <path
   class="fil26"
   d="M11.9635 123.153l0.0153545 -60.935 1.63348 -17.5868 -5.43668 2.2831 -1.52246 5.03274 0.140553 67.7394c0,3.62012 2.31145,3.33075 5.50873,3.33075l-0.338981 0.135828z"
   id="path4699" />
  <path
   class="fil27"
   d="M7.03591 62.911l0 58.4488c0.203152,0.558668 0.52914,0.931901 0.955524,1.17875l0 -59.6275 -0.955524 0z"
   id="path4701" />
  <path
   class="fil28"
   d="M104.816 61.1712l0 58.9531 -0.00472447 0.0543314c-0.119293,1.06891 -0.525597,1.86971 -1.16931,2.44255l-0.00118112 -0.00118112c-0.630716,0.561031 -1.47758,0.890562 -2.49098,1.02403l-0.0649614 0.00590558 -84.8467 0c-0.642528,0 -1.54372,-0.00944894 -2.42011,-0.0188979 -0.595283,-0.00472447 -1.16222,-0.0118112 -2.09884,-0.0118112l-0.00236223 -0.00236223c-1.42915,-0.00590558 -2.77799,-0.0803159 -3.80674,-0.584653 -1.11025,-0.544495 -1.81892,-1.53427 -1.81892,-3.3461l0.00236223 0 -0.141734 -67.7394 0.020079 -0.144096 1.52246 -5.03274 0.0685048 -0.225593 0.216144 -0.090946 5.43668 -2.2831 0.387406 0.921271 -5.22054 2.19215 -1.43388 4.73982 0.141734 67.6626 0.00236223 0c0,1.35592 0.488982,2.0764 1.25435,2.45082 0.849223,0.415753 2.06814,0.478352 3.37209,0.483077l0 -0.00236223 2.10593 0.0165356c0.656701,0.00590558 1.35356,0.0141734 2.41302,0.0141734l84.8278 0c0.799616,-0.112206 1.45277,-0.361422 1.91223,-0.771269l0 -0.00236223c0.451187,-0.40158 0.741741,-0.981508 0.836231,-1.76695l0 -58.9366 1.00159 0z"
   id="path4703" />
  <path
   class="fil29"
   d="M6.89536 60.1354c1.42325,1.62522 3.7654,3.01539 5.91267,2.8583l50.4361 0.157089 33.4103 0.348429 0 0.00354335c2.28074,0 4.21304,-0.490164 5.71424,-2.07995l-0.00354335 -0.00354335c0.493707,-0.522054 0.562212,-1.12797 0.439375,-1.78467 -0.0685048,0.279925 -0.206695,0.544495 -0.439375,0.790167l0.00354335 0.00354335c-1.5012,1.58978 -3.43351,2.07995 -5.71424,2.07995l0 -0.00354335 -33.4103 -0.348429 -50.4361 -0.157089c-2.14491,0.157089 -4.4847,-1.23072 -5.90795,-2.85358 -0.0531503,0.239767 -0.070867,0.552763 -0.00472447,0.989776z"
   id="path4705" />
  <g
   id="_156504600">
   <path
   id="_156506016"
   class="fil30"
   d="M98.1319 124.776l-51.4813 0c-0.446462,-1.27088 -0.805522,-2.55948 -1.08427,-3.86343l-8.46388 -2.72011 0.152364 -3.10752 -0.252759 -0.0779537 0.559849 -11.6305 8.67648 -1.89097c0.770088,-2.42601 1.82837,-4.77762 3.18902,-7.01111l-2.03861 -3.87524 -0.981508 -0.857491 -0.0460636 -1.09253 -0.020079 -0.0496069 0.0188979 -0.0212601 -0.121655 -3.15831 8.91389 -7.83435 7.61112 4.57919c2.88311,-1.4823 5.93275,-2.52641 9.04854,-3.14177l2.83941 -8.21349 12.0509 0.538589 1.97719 8.45325c3.01539,0.902373 5.92448,2.21223 8.63396,3.92249l8.01742 -3.86107 1.97247 2.09058c0.128742,10.2096 0.333075,33.8721 -0.47599,36.1008 -1.0323,2.8524 -8.67648,6.52095 -8.67648,6.52095l-0.0188979 0.20079zm-9.0568 -11.8135c-0.526778,3.62721 -3.23744,6.77371 -7.12922,7.78474 -5.19573,1.34175 -10.5403,-1.63585 -11.9293,-6.64851l-0.138191 -0.566936c0.52914,-3.6213 3.23626,-6.76544 7.12686,-7.77175 5.20046,-1.34293 10.5426,1.63467 11.934,6.65087l0.135828 0.551582z" />
   <g
   id="g4709">
    <path
   id="_156504984"
   class="fil31"
   d="M98.1319 124.776l-49.3341 0c-0.883475,-1.99018 -1.54018,-4.04769 -1.98428,-6.13354 -2.78744,-0.900011 -5.57251,-1.7953 -8.35995,-2.69177 0.0519691,-1.02521 0.100395,-2.05042 0.151183,-3.0709 -0.0838593,-0.0295279 -0.164175,-0.0543314 -0.249216,-0.0803159 0.185435,-3.83509 0.36969,-7.67135 0.552763,-11.5112 2.8583,-0.621267 5.71424,-1.24726 8.57018,-1.87089 0.76182,-2.39767 1.80829,-4.72447 3.14768,-6.93434 -0.667331,-1.28033 -1.33702,-2.55712 -2.01144,-3.83627 -0.323626,-0.282287 -0.643709,-0.566936 -0.970878,-0.849223 -0.0118112,-0.361422 -0.0271657,-0.721662 -0.0437013,-1.0819 -0.00590558,-0.0188979 -0.0118112,-0.0330713 -0.0224412,-0.0460636 0.00590558,-0.0106301 0.0118112,-0.0165356 0.020079,-0.0224412 -0.0389769,-1.04529 -0.0767726,-2.08467 -0.119293,-3.12524 2.93389,-2.58428 5.87015,-5.16857 8.80405,-7.75285 2.50869,1.50947 5.01384,3.01775 7.51427,4.53076 2.84767,-1.46458 5.85716,-2.50042 8.93515,-3.10988 0.937807,-2.70712 1.87089,-5.41778 2.8087,-8.1249 3.96265,0.175986 7.93474,0.355516 11.9009,0.531503 0.651977,2.78862 1.30159,5.57487 1.95357,8.36585 2.97996,0.894105 5.85125,2.18625 8.53003,3.87997 2.63625,-1.27679 5.27487,-2.54885 7.91821,-3.81973l1.42915 1.5201c0.114568,8.16034 0.434651,36.0784 -0.445281,38.5115 -1.0323,2.8524 -8.67648,6.52095 -8.67648,6.52095l-0.0188979 0.20079zm-8.34459 -13.9974c-0.522054,3.58705 -3.1961,6.70048 -7.04182,7.70206 -5.13077,1.32521 -10.4127,-1.62167 -11.7852,-6.58118 -0.0448824,-0.187798 -0.090946,-0.372052 -0.134647,-0.558668 0.520873,-3.58469 3.1961,-6.69575 7.04182,-7.69025 5.13313,-1.32994 10.408,1.61577 11.7852,6.57764 0.0437013,0.181892 0.0862215,0.363784 0.134647,0.5504z" />
    <path
   id="_156504072"
   class="fil32"
   d="M98.1319 124.776l-48.9478 0 1.10789 -1.72679c-1.01104,-2.15554 -1.75396,-4.39494 -2.2394,-6.67567 -2.752,-0.889381 -5.504,-1.77404 -8.25601,-2.66106 0.0484258,-1.01576 0.101576,-2.02798 0.148821,-3.04138 -0.0814971,-0.0283468 -0.160632,-0.0543314 -0.246853,-0.0744104 0.186616,-3.79847 0.363784,-7.59458 0.546857,-11.3883 2.82287,-0.618905 5.64338,-1.23899 8.46152,-1.85199 0.75119,-2.37523 1.78585,-4.6784 3.11224,-6.86347 -0.661425,-1.26852 -1.32285,-2.53231 -1.98782,-3.79611 -0.318902,-0.278744 -0.638984,-0.558668 -0.959067,-0.838593 -0.0118112,-0.357878 -0.0271657,-0.715757 -0.0437013,-1.07009 -0.00590558,-0.0188979 -0.0118112,-0.0330713 -0.0224412,-0.0496069 0.00590558,-0.00826782 0.0118112,-0.0153545 0.020079,-0.0212601 -0.0354335,-1.03112 -0.0767726,-2.06341 -0.119293,-3.09098 2.90319,-2.55712 5.80165,-5.1166 8.69893,-7.67135 2.47208,1.49175 4.94888,2.98586 7.4186,4.48234 2.81224,-1.44805 5.78629,-2.4709 8.82649,-3.07327 0.924815,-2.6835 1.84609,-5.36581 2.7709,-8.04459 3.9154,0.175986 7.83671,0.354335 11.7557,0.52914 0.642528,2.75673 1.28269,5.51463 1.92995,8.27845 2.9398,0.883475 5.77684,2.16381 8.41782,3.83863 2.60791,-1.26498 5.21227,-2.52168 7.82254,-3.78194l0.947256 1.00867 -0.0543314 0.116931c0,0 0.620086,37.8926 -0.413391,40.745 -1.0323,2.8524 -8.67648,6.52095 -8.67648,6.52095l-0.0188979 0.20079zm-7.64183 -16.1825c-0.514967,3.54926 -3.15831,6.63197 -6.95324,7.62175 -5.06935,1.30986 -10.284,-1.60278 -11.6375,-6.50795 -0.0460636,-0.186616 -0.0921271,-0.373233 -0.133466,-0.557487 0.514967,-3.54453 3.15713,-6.62488 6.95087,-7.60757 5.07053,-1.31458 10.2828,1.59805 11.6411,6.50914 0.0425202,0.180711 0.0885838,0.360241 0.132285,0.542133z" />
    <path
   id="_156499560"
   class="fil33"
   d="M98.1319 124.776l-49.2301 0 2.60554 -4.06186c-0.998044,-2.13428 -1.73034,-4.35242 -2.20751,-6.60244 -2.72011,-0.881113 -5.43668,-1.7575 -8.15561,-2.63389 0.050788,-1.00749 0.0992138,-2.01144 0.146458,-3.00949 -0.0791348,-0.0295279 -0.15827,-0.0543314 -0.242129,-0.0791348 0.181892,-3.75477 0.361422,-7.50836 0.53977,-11.2655 2.78744,-0.610637 5.57015,-1.22364 8.35758,-1.83309 0.74056,-2.34924 1.76223,-4.62643 3.06972,-6.78788 -0.651977,-1.2508 -1.30513,-2.50279 -1.96065,-3.75359 -0.315358,-0.281106 -0.629535,-0.557487 -0.946075,-0.832687 -0.0141734,-0.354335 -0.0283468,-0.706308 -0.0413391,-1.0571 -0.00590558,-0.0188979 -0.0129923,-0.0354335 -0.0236223,-0.0484258 0.0070867,-0.00826782 0.0129923,-0.0141734 0.0188979,-0.0212601 -0.0366146,-1.02285 -0.0767726,-2.03979 -0.116931,-3.05909 2.86303,-2.52759 5.72605,-5.0599 8.58672,-7.58986 2.44373,1.47758 4.88746,2.95515 7.32765,4.43628 2.77444,-1.43269 5.7107,-2.44609 8.71192,-3.04492 0.911822,-2.64925 1.82246,-5.30203 2.73901,-7.95128 3.86698,0.173624 7.73395,0.349611 11.6057,0.523235 0.633079,2.72602 1.2697,5.45558 1.90396,8.18396 2.90437,0.874027 5.70598,2.14018 8.31624,3.79847 2.57129,-1.24962 5.14495,-2.49452 7.7186,-3.73942l1.18466 1.26143 -0.799616 1.70081c0,0 0.620086,37.8926 -0.413391,40.745 -1.0323,2.8524 -8.67648,6.52095 -8.67648,6.52095l-0.0188979 0.20079zm-6.92843 -18.3652c-0.50788,3.51146 -3.12051,6.55874 -6.86819,7.54025 -5.00321,1.29923 -10.1552,-1.5886 -11.4923,-6.44299 -0.0437013,-0.181892 -0.0874027,-0.364965 -0.129923,-0.546857 0.509061,-3.5091 3.11579,-6.55166 6.86347,-7.52726 5.00794,-1.30159 10.1517,1.5827 11.4934,6.43945 0.0437013,0.17953 0.0850404,0.357878 0.133466,0.537408z" />
    <path
   id="_156500976"
   class="fil34"
   d="M98.1319 124.776l-49.0919 0 -0.0224412 -0.613c1.23427,-1.92995 2.46853,-3.85753 3.70516,-5.78393 -0.985051,-2.11184 -1.71144,-4.30281 -2.1827,-6.53158 -2.68468,-0.870483 -5.36463,-1.7386 -8.04813,-2.60672 0.0484258,-0.9945 0.0944894,-1.98664 0.142915,-2.97878 -0.0755915,-0.0248035 -0.157089,-0.0496069 -0.238586,-0.0744104 0.178349,-3.71225 0.357878,-7.42923 0.533865,-11.1438 2.752,-0.605913 5.49928,-1.20946 8.25128,-1.8142 0.732292,-2.32208 1.7386,-4.57565 3.03193,-6.71465 -0.647252,-1.23899 -1.29332,-2.47798 -1.93821,-3.71225 -0.311815,-0.278744 -0.621267,-0.5504 -0.935445,-0.82442 -0.0118112,-0.349611 -0.0295279,-0.699221 -0.0413391,-1.04647 -0.0070867,-0.0165356 -0.0129923,-0.0318902 -0.0212601,-0.0484258 0.00590558,-0.00590558 0.0129923,-0.0118112 0.0188979,-0.0188979 -0.040158,-1.01222 -0.0779537,-2.01735 -0.114568,-3.0272 2.82405,-2.49924 5.65164,-5.00557 8.47688,-7.50836 2.41184,1.46222 4.82132,2.92563 7.23198,4.39021 2.73901,-1.41852 5.64101,-2.42129 8.60207,-3.01303 0.900011,-2.62208 1.79766,-5.24416 2.70121,-7.8627 3.81973,0.170081 7.63828,0.341343 11.4592,0.514967 0.625992,2.69531 1.25317,5.39534 1.87916,8.09656 2.86657,0.864578 5.63511,2.1201 8.20994,3.75595 2.5394,-1.23427 5.07998,-2.46735 7.62293,-3.69926l1.41852 1.51419 -1.54254 3.2835c0,0 0.620086,37.8926 -0.413391,40.745 -1.0323,2.8524 -8.67648,6.52095 -8.67648,6.52095l-0.0188979 0.20079zm-6.22094 -20.5479c-0.501975,3.47603 -3.07799,6.48906 -6.78197,7.4623 -4.94061,1.28269 -10.0241,-1.57325 -11.3446,-6.37331 -0.0437013,-0.181892 -0.0850404,-0.362603 -0.127561,-0.53977 0.503156,-3.47248 3.07681,-6.48315 6.77607,-7.45049 4.94297,-1.28387 10.0218,1.56734 11.3458,6.37449 0.0425202,0.175986 0.0862215,0.351973 0.132285,0.526778z" />
    <path
   id="_156503112"
   class="fil35"
   d="M98.1319 124.776l-47.7478 0 -0.0106301 -0.00826782c-0.0271657,-1.00513 -0.0625992,-2.00908 -0.0944894,-3.01421 1.21773,-1.90396 2.43783,-3.81265 3.65201,-5.71897 -0.972059,-2.09058 -1.68545,-4.25556 -2.15199,-6.45953 -2.64688,-0.862215 -5.29613,-1.71971 -7.94301,-2.57956 0.0484258,-0.98387 0.0956705,-1.96184 0.141734,-2.94216 -0.0791348,-0.0271657 -0.154726,-0.0531503 -0.236223,-0.0755915 0.175986,-3.67445 0.349611,-7.34773 0.525597,-11.0245 2.71184,-0.595283 5.42841,-1.19647 8.14262,-1.79057 0.721662,-2.29727 1.71734,-4.5284 2.99413,-6.64378 -0.638984,-1.226 -1.27443,-2.44846 -1.91459,-3.67445 -0.305909,-0.272838 -0.613,-0.542133 -0.921271,-0.812608 -0.0118112,-0.344886 -0.0248035,-0.692135 -0.0413391,-1.03348 -0.0070867,-0.0188979 -0.0129923,-0.0354335 -0.0212601,-0.0484258 0.00590558,-0.00826782 0.0129923,-0.0141734 0.0188979,-0.020079 -0.0354335,-0.999225 -0.0732292,-1.99845 -0.114568,-2.99059 2.79098,-2.47798 5.57842,-4.9536 8.36821,-7.42686 2.37877,1.44569 4.75636,2.89256 7.13985,4.33588 2.70476,-1.40199 5.56542,-2.3894 8.48869,-2.97523 0.889381,-2.59373 1.77876,-5.18747 2.66814,-7.7812 3.76894,0.172443 7.54143,0.341343 11.3127,0.509061 0.617724,2.67169 1.23427,5.33865 1.85672,8.01033 2.83114,0.85631 5.55952,2.0953 8.10246,3.71697 2.50869,-1.22009 5.01502,-2.44019 7.5249,-3.66028l1.65238 1.77404 -2.2831 4.86738c0,0 0.620086,37.8926 -0.413391,40.745 -1.0323,2.8524 -8.67648,6.52095 -8.67648,6.52095l-0.0188979 0.20079zm-5.51818 -22.7341c-0.496069,3.43587 -3.03783,6.42055 -6.69221,7.37371 -4.87565,1.27088 -9.89304,-1.54844 -11.197,-6.30008 -0.0437013,-0.178349 -0.0885838,-0.357878 -0.129923,-0.537408 0.496069,-3.42996 3.03901,-6.40992 6.69221,-7.3619 4.87801,-1.27443 9.89422,1.54844 11.1994,6.30008 0.0425202,0.172443 0.0838593,0.347248 0.127561,0.525597z" />
    <path
   id="_156497688"
   class="fil36"
   d="M98.1319 124.776l-44.2222 0 -2.27483 -2.44019c-0.0295279,-0.9945 -0.0649614,-1.98546 -0.0968516,-2.9776 1.20356,-1.88624 2.40712,-3.77367 3.60831,-5.65873 -0.959067,-2.06577 -1.66537,-4.20832 -2.12601,-6.38866 -2.61145,-0.851585 -5.22526,-1.70081 -7.83907,-2.55121 0.0460636,-0.970878 0.0944894,-1.93939 0.142915,-2.91027 -0.0779537,-0.0248035 -0.155907,-0.050788 -0.235042,-0.0732292 0.173624,-3.6343 0.344886,-7.26741 0.51851,-10.9005 2.67641,-0.594102 5.35755,-1.18466 8.03632,-1.77168 0.713395,-2.27483 1.6949,-4.48116 2.95397,-6.57292 -0.629535,-1.21419 -1.25907,-2.42365 -1.88861,-3.63312 -0.302366,-0.268114 -0.604732,-0.536227 -0.908279,-0.803159 -0.0129923,-0.341343 -0.0259846,-0.685048 -0.0425202,-1.02403 -0.00590558,-0.0165356 -0.0118112,-0.030709 -0.0224412,-0.0472447 0.00590558,-0.0070867 0.0118112,-0.0129923 0.0188979,-0.0188979 -0.0342524,-0.988595 -0.0732292,-1.97601 -0.111025,-2.95988 2.75318,-2.44727 5.50519,-4.89809 8.25955,-7.34418 2.3457,1.43151 4.69376,2.86185 7.043,4.28982 2.67287,-1.38781 5.49692,-2.3646 8.38357,-2.94452 0.876389,-2.56184 1.75278,-5.12723 2.62799,-7.69261 3.72052,0.170081 7.44576,0.336618 11.1663,0.501975 0.610637,2.64098 1.21773,5.28195 1.83309,7.92293 2.79098,0.848042 5.48629,2.07404 7.9938,3.67682 2.47562,-1.2071 4.95242,-2.41538 7.42804,-3.62249l1.88742 2.02798 -3.02602 6.4489c0,0 0.620086,37.8926 -0.413391,40.745 -1.0323,2.8524 -8.67648,6.52095 -8.67648,6.52095l-0.0188979 0.20079zm-4.81069 -24.9168c-0.490164,3.39807 -2.99649,6.35087 -6.60599,7.29694 -4.81069,1.25553 -9.76429,-1.53427 -11.0493,-6.23157 -0.0460636,-0.17953 -0.0850404,-0.355516 -0.127561,-0.531503 0.490164,-3.39217 3.00122,-6.34024 6.60244,-7.28395 4.81423,-1.25789 9.76547,1.53309 11.0553,6.23275 0.0389769,0.172443 0.0838593,0.343705 0.125198,0.517329z" />
    <path
   id="_156493080"
   class="fil37"
   d="M98.1319 124.776l-29.6578 0 -0.843317 -0.525597 -1.05946 0.525597 -9.13358 0 -4.53903 -4.87447c-0.0295279,-0.982689 -0.060237,-1.9642 -0.0956705,-2.94571 1.18584,-1.86498 2.37286,-3.73115 3.55871,-5.59377 -0.946075,-2.04215 -1.64293,-4.16226 -2.09412,-6.31543 -2.57838,-0.843317 -5.15676,-1.68191 -7.73868,-2.52168 0.0484258,-0.96261 0.0921271,-1.9205 0.140553,-2.87956 -0.0779537,-0.0248035 -0.153545,-0.0496069 -0.230318,-0.0744104 0.1689,-3.59178 0.342524,-7.18592 0.512605,-10.7789 2.64098,-0.587015 5.28314,-1.17049 7.92884,-1.75396 0.705127,-2.25003 1.67364,-4.42801 2.915,-6.49732 -0.620086,-1.19765 -1.24135,-2.39649 -1.86262,-3.59296 -0.298823,-0.268114 -0.596464,-0.531503 -0.897649,-0.796073 -0.0129923,-0.336618 -0.0248035,-0.673237 -0.0377957,-1.01222 -0.00826782,-0.0141734 -0.0141734,-0.0318902 -0.0224412,-0.0437013 0.00590558,-0.0070867 0.0118112,-0.0129923 0.0188979,-0.0188979 -0.0377957,-0.977965 -0.0732292,-1.95239 -0.113387,-2.92799 2.71657,-2.42129 5.43196,-4.8414 8.14853,-7.25914 2.31617,1.41498 4.63234,2.82759 6.9556,4.23785 2.63271,-1.37128 5.41778,-2.33979 8.26546,-2.90909 0.864578,-2.5335 1.73034,-5.07053 2.59728,-7.60876 3.67209,0.167719 7.343,0.335437 11.0151,0.498431 0.601189,2.61145 1.20592,5.22526 1.80829,7.83199 2.75555,0.83505 5.41542,2.04924 7.89104,3.63312 2.44255,-1.19057 4.88628,-2.38586 7.32647,-3.57642l2.12129 2.28074 -3.76894 8.03159c0,0 0.620086,37.8926 -0.413391,40.745 -1.0323,2.8524 -8.67648,6.52095 -8.67648,6.52095l-0.0188979 0.20079zm-4.09729 -27.0995c-0.483077,3.36146 -2.9587,6.28 -6.51977,7.21544 -4.74691,1.24253 -9.63437,-1.51655 -10.9053,-6.16425 -0.0413391,-0.175986 -0.0838593,-0.349611 -0.125198,-0.523235 0.483077,-3.35673 2.9587,-6.26937 6.51622,-7.20363 4.75045,-1.2449 9.63673,1.51537 10.9064,6.16307 0.0413391,0.170081 0.0838593,0.343705 0.127561,0.512605z" />
    <path
   id="_156505320"
   class="fil38"
   d="M100.212 123.493l-0.47599 -0.295279c-1.16812,0.605913 -0.0224412,0.00944894 -1.24135,0.455911l-23.7499 1.12206c-2.10475,-0.770088 -4.13981,-1.77286 -6.05559,-3.00594l-6.04614 3.00594 -1.70553 0 -6.78197 -7.30639c-0.0283468,-0.972059 -0.0614181,-1.94412 -0.0933082,-2.91145 1.17167,-1.84609 2.34215,-3.69217 3.51264,-5.53471 -0.934263,-2.01853 -1.62167,-4.11147 -2.06932,-6.24338 -2.54294,-0.833869 -5.08707,-1.66419 -7.63356,-2.49334 0.0448824,-0.953161 0.0933082,-1.89924 0.138191,-2.84885 -0.0732292,-0.0248035 -0.150002,-0.050788 -0.226774,-0.0720481 0.1689,-3.5528 0.335437,-7.1056 0.505518,-10.656 2.60672,-0.58111 5.21345,-1.15986 7.82136,-1.73506 0.694497,-2.22286 1.65002,-4.37958 2.87838,-6.42409 -0.614181,-1.18466 -1.22836,-2.3705 -1.839,-3.5528 -0.294098,-0.263389 -0.59174,-0.524416 -0.885838,-0.785443 -0.0129923,-0.333075 -0.0259846,-0.667331 -0.0389769,-1.00041 -0.00590558,-0.0153545 -0.0129923,-0.030709 -0.0224412,-0.0472447 0.0070867,-0.00590558 0.0129923,-0.0118112 0.020079,-0.0188979 -0.0354335,-0.964973 -0.0744104,-1.92995 -0.112206,-2.89256 2.6835,-2.39176 5.36109,-4.7847 8.03868,-7.17765 2.28428,1.39962 4.5721,2.79807 6.86229,4.1906 2.59728,-1.3512 5.34928,-2.30672 8.15797,-2.87366 0.850404,-2.50869 1.70435,-5.01738 2.5583,-7.52608 3.62485,0.166537 7.24615,0.329532 10.871,0.493707 0.59174,2.58074 1.18702,5.16502 1.78231,7.74695 2.71893,0.826782 5.34219,2.02443 7.78238,3.5906 2.41302,-1.17994 4.82132,-2.35869 7.2308,-3.53745l2.35751 2.54058 -4.51069 9.60839c0,0 -2.98468,35.2209 -2.44491,38.195 0.490164,2.70948 0.240948,6.17842 -1.43624,7.31584 -1.00395,0.679142 -2.26774,0.183073 -3.14768,0.673237zm-5.4733 -28.0019c-0.477171,3.32366 -2.9209,6.21031 -6.43354,7.13395 -4.68313,1.22954 -9.50445,-1.50002 -10.7553,-6.09338 -0.0448824,-0.172443 -0.0862215,-0.346067 -0.124017,-0.51851 0.47599,-3.31658 2.91972,-6.19732 6.42646,-7.12095 4.68667,-1.22954 9.50799,1.49884 10.7612,6.09574 0.0389769,0.166537 0.0838593,0.336618 0.125198,0.503156z" />
   </g>
   <path
   id="_156497760"
   class="fil39"
   d="M102.589 122.074l-2.21459 -1.37364c-2.52995,1.31695 -5.20164,2.25121 -7.93711,2.80515l-0.421659 1.2697 -14.1179 0 -0.457092 -1.94294c-2.68704,-0.807884 -5.28195,-1.99018 -7.69025,-3.54335l-7.11505 3.54689 -7.22371 -7.79773 -0.0921271 -2.88074 3.46422 -5.46739c-0.921271,-1.99609 -1.59923,-4.06777 -2.04097,-6.17488l-7.52726 -2.46499 0.134647 -2.81342 -0.224412 -0.0732292 0.499612 -10.5356 7.71624 -1.7138c0.683867,-2.19806 1.62758,-4.32879 2.83704,-6.35087l-1.8142 -3.51146 -0.872845 -0.777175 -0.0389769 -0.990957 -0.0224412 -0.0437013 0.020079 -0.0188979 -0.108663 -2.86067 7.93002 -7.09969 6.76898 4.1469c2.56302,-1.33939 5.27487,-2.28546 8.04577,-2.84531l2.52759 -7.43867 10.7198 0.48662 1.75986 7.65954c2.67995,0.817333 5.26778,2.00317 7.67726,3.5528l7.1304 -3.49965 2.59137 2.7957 -5.25243 11.1899c0,0 -1.79175,33.4599 -2.54649,35.541 -0.754734,2.08113 -0.217326,8.00207 -2.10475,9.22452zm-7.14458 -28.7626c-0.470085,3.28587 -2.87838,6.13826 -6.3426,7.05245 -4.62053,1.21419 -9.37689,-1.48348 -10.6123,-6.0237l-0.120474 -0.512605c0.470085,-3.27878 2.87838,-6.12763 6.34024,-7.03946 4.62289,-1.21655 9.37571,1.48112 10.6147,6.0237l0.120474 0.499612z" />
  </g>
  <path
   class="fil40"
   d="M17.3589 61.6177l80.5415 0.726387c3.30358,0 4.49415,-1.92876 4.85911,-5.14849 0.177168,-1.57325 0.577566,-6.30716 0.314177,-7.67254 -0.864578,-4.47525 -2.68468,-3.67091 -8.44026,-3.67091l-77.1222 -5.13432c-1.74451,-0.00354335 3.23272,2.94452 0.995682,3.26933 -1.14805,0.510242 -2.29609,1.0193 -3.44414,1.52718 -3.27287,-0.381501 -6.53984,-0.289374 -8.49105,3.7595l-0.458273 7.36308c-0.720481,3.67209 7.36781,6.56583 11.2454,4.98077z"
   id="path4720" />
  <path
   class="fil41"
   d="M12.9639 45.6785c-3.14768,-0.329532 -4.51305,-0.300004 -6.39102,3.59532l-0.151183 6.93552c0.553944,2.16617 3.28941,5.89968 6.64851,5.37526l-0.106301 -15.9061z"
   id="path4722" />
  <path
   class="fil42"
   d="M8.06703 47.11l0 12.0427c-0.90946,-1.05474 -1.56144,-2.18152 -1.7516,-3.10988l0.257483 -6.23275c0.437013,-1.13151 0.940169,-2.0138 1.49411,-2.70003z"
   id="path4724" />
  <path
   class="fil42"
   d="M17.3447 51.1754l80.5923 -0.0259846c2.47798,0 4.08785,0.00944894 4.75163,-1.04647 0.829144,-1.31813 0.19016,-2.48507 -0.457092,-3.73705 -0.948437,-1.83073 -1.93349,-2.5772 -4.2036,-2.8961 -0.905917,-0.127561 -1.98664,-0.00472447 -3.39453,-0.0897649l-77.1222 -3.48666c-1.74451,-0.00236223 3.23272,1.99963 0.995682,2.2205 -1.14805,0.346067 -2.29609,0.690953 -3.44414,1.03702 -5.06935,-0.40158 -7.66899,1.82364 -7.55206,3.78194 0.132285,2.21932 3.69099,4.23785 9.83398,4.24257z"
   id="path4726" />
  <path
   class="fil28"
   d="M6.21976 58.47c1.676,1.91695 4.48234,3.51973 7.03946,3.51973l0 -0.0070867 83.59 0.246853 0 0.0070867c2.28074,0 4.34887,-1.0382 5.84889,-2.6268l-0.00472447 -0.00354335c1.09726,-1.16104 1.12206,-2.35987 1.08781,-3.80438 -0.0413391,1.00867 -0.259846,1.9075 -1.08781,2.78389l0.00472447 0.00354335c-1.50002,1.5886 -3.56815,2.6268 -5.84889,2.6268l0 -0.0070867 -83.59 -0.246853 0 0.0070867c-2.55712,0 -5.36345,-1.60278 -7.03946,-3.51973l-0.0389769 -0.308272c-0.0389769,0.283468 -0.0590558,0.669693 0.0389769,1.32876zm97.5473 -4.25675l0.649614 0.0921271 -0.656701 -0.491345 0.0070867 0.399218zm-97.5614 1.74923l-0.0755915 -0.040158 0.0555125 0.164175 0.020079 -0.124017z"
   id="path4728" />
  <path
   class="fil43"
   d="M22.818 39.1647l62.859 0.161813c1.6949,0.00354335 2.63271,-1.19057 2.69531,-2.87366l0.0649614 -26.2834c0.0720481,-1.68663 -1.81301,-3.34374 -3.4902,-3.34374l-60.0031 0c-1.67482,0 -3.99099,1.38781 -3.91304,3.08153l-0.696859 26.1759c0.0673237,1.69372 0.790167,3.07681 2.48389,3.08153z"
   id="path4730" />
  <path
   class="fil44"
   d="M21.1633 9.69697c0,0.230318 0.0862215,0.451187 0.235042,0.651977l-0.235042 0c0,0.140553 0.0318902,0.277562 0.0885838,0.408666l1.50238 0c0,0.0814971 0.0543314,0.15827 0.139372,0.209058 0.0862215,0.0519691 0.21142,0.0874027 0.346067,0.0874027l1.24372 -0.138191 60.5004 0 1.11261 0 0 -1.06064 -1.11261 0 -60.4803 0.144096 -1.2638 -0.00590558c-0.134647,0 -0.259846,-0.0354335 -0.346067,-0.0874027 -0.0850404,-0.050788 -0.139372,-0.127561 -0.139372,-0.209058l-1.59096 0z"
   id="path4732" />
  <path
   class="fil45"
   d="M24.7657 8.84538l60.2228 0.155907c0.825601,0.00236223 1.676,0.487801 1.50002,-0.40158l-0.728749 -2.76736c-0.229137,-0.874027 -0.67678,-1.65238 -1.49884,-1.66419l-58.7653 -0.0791348c-0.816152,0 -3.30949,1.48112 -2.94571,2.30554l0.716938 1.6264c0.363784,0.82442 0.673237,0.817333 1.49884,0.82442z"
   id="path4734" />
  <path
   class="fil40"
   d="M15.1041 38.4146l7.77411 0.686229 72.217 -0.23268c1.09253,0.00236223 1.076,1.04411 1.07364,2.14136l-0.0248035 5.70007c-0.00236223,1.1008 -2.1201,3.02602 -3.20319,3.02602l-76.7608 0.0248035c-0.290555,0 -0.566936,-0.113387 -0.818514,-0.297641 -1.13623,-0.357878 -2.19097,-1.55199 -2.49806,-3.065l-0.040158 -6.1548c0.237404,-0.851585 0.8882,0.620086 1.36655,0.354335 -0.0188979,-1.0323 -0.0437013,-2.18743 0.914184,-2.1827z"
   id="path4736" />
  <path
   class="fil41"
   d="M90.9554 49.7605l0.0755915 -11.3293 2.9587 -0.0165356c0.957886,-0.00472447 0.933082,1.15041 0.914184,2.1827 0.478352,0.265751 1.12915,-1.20592 1.36655,-0.354335l-0.040158 6.1548c-0.30709,1.51301 -1.36183,2.70712 -2.49806,3.065 -0.251578,0.184254 -0.525597,0.297641 -0.818514,0.297641l-1.95829 0z"
   id="path4738" />
  <path
   class="fil42"
   d="M95.0256 40.6257l0 6.95442c0.548038,-0.561031 0.975603,-1.32876 1.15277,-2.20278l0.040158 -5.13432c-0.210239,-0.752371 -0.741741,0.308272 -1.19293,0.382682z"
   id="path4740" />
  <path
   class="fil41"
   d="M18.1384 49.7605l-0.0755915 -11.3293 -2.9587 -0.0165356c-0.957886,-0.00472447 -0.933082,1.15041 -0.914184,2.1827 -0.478352,0.265751 -1.12915,-1.20592 -1.36655,-0.354335l0.040158 6.1548c0.30709,1.51301 1.36183,2.70712 2.49806,3.065 0.251578,0.184254 0.525597,0.297641 0.818514,0.297641l1.95829 0z"
   id="path4742" />
  <path
   class="fil42"
   d="M16.3845 41.4785l0.747647 0 76.0415 0.0826782c2.85712,0 3.60004,-1.21183 2.93035,-2.18507 -1.04883,-1.51892 -3.33666,-2.09766 -7.71506,-2.1142l-1.34411 1.87443 -65.3028 0.467722 0.327169 -0.819695c0.13701,-0.341343 -0.396855,-1.57325 -1.45632,-1.79057 -2.03152,-0.419296 -5.58786,0.498431 -7.16229,1.86735 -0.533865,0.467722 -0.674418,0.931901 -0.646071,1.23545 0.105119,1.1008 2.91736,1.38191 3.57997,1.38191z"
   id="path4744" />
  <polygon
   class="fil46"
   points="11.9919,62.911 11.9919,122.55 12.9474,122.55 12.9474,62.911 "
   id="polygon4746" />
  <path
   class="fil47"
   d="M74.2615 60.3397c1.11025,-0.622449 2.24176,-1.16694 3.38272,-1.63112 1.16104,-0.472447 2.35751,-0.875208 3.57642,-1.20356l1.97247 -6.73709 0.219688 -0.752371 0.780718 0.00354335 10.5521 0.0531503 0.784262 0.00472447 0.213782 0.752371 1.91931 6.77489c1.19057,0.337799 2.3705,0.752371 3.53154,1.24017 1.13978,0.478352 2.25475,1.02875 3.33784,1.64884l6.3485 -3.51146 0.683867 -0.377957 0.553944 0.557487 7.4245 7.50127 0.292917 0.577566 0.349611 2.27956 0.0956705 0.62363 -0.50788 0.368508 -2.93508 5.10715c0.431108,0.879932 0.819695,1.77758 1.16222,2.68822 0.342524,0.911822 0.641346,1.83546 0.892924,2.76263l7.0241 1.97601 0.677961 0.19016 0.0744104 0.705127 0.162994 1.55553 0.107482 0.030709 -0.00354335 0.788986 -0.0566936 10.5533 -0.00472447 0.787805 -0.757096 0.210239 -7.05835 1.95357c-0.290555,1.02521 -0.636622,2.03861 -1.03584,3.03429 -0.396855,0.987414 -0.850404,1.9642 -1.35947,2.92326l2.75555 4.98195 0.121655 0.399218 0.196065 1.97247 0.31772 0.579928 -0.553944 0.549219 -7.50009 7.4245 -0.563393 0.556306 -0.686229 -0.394493 -6.28354 -3.60831c-1.08781,0.607094 -2.20042,1.14096 -3.32721,1.59923 -1.14214,0.46536 -2.31617,0.862215 -3.5091,1.1882l-1.96302 6.98158 -0.214963 0.760639 -0.790167 -0.00354335 -10.5533 -0.0566936 -0.788986 -0.00472447 -0.209058 -0.757096 -1.93467 -6.98749c-1.20001,-0.337799 -2.37995,-0.747647 -3.52445,-1.22718 -1.13623,-0.474809 -2.25475,-1.02521 -3.34374,-1.64766l-6.32488 3.55044 -0.690953 0.386225 -0.555125 -0.561031 -7.4245 -7.50245 -0.551582 -0.558668 0.245672 -0.440557 -0.249216 -1.86262 0.12638 -0.647252 3.09098 -5.45676c-0.438194,-0.887019 -0.831506,-1.79648 -1.17875,-2.71539 -0.347248,-0.921271 -0.649614,-1.85081 -0.903554,-2.78625l-6.92607 -1.99373 -0.757096 -0.218507 0.00354335 -0.786624 0.0519691 -10.5545 0.00472447 -0.796073 0.0814971 -0.0224412 0.0070867 -1.44569 0.00472447 -0.785443 0.752371 -0.212601 6.58473 -1.86853c0.289374,-1.03112 0.63426,-2.04924 1.0323,-3.04846 0.398036,-1.00159 0.848042,-1.97955 1.34647,-2.92681l-2.64334 -4.70557 -0.133466 -0.1689 -0.224412 -0.561031 -0.178349 -2.2205 -0.0377957 -0.478352 0.343705 -0.340162 7.50009 -7.42332 0.559849 -0.553944 0.685048 0.387406 6.30953 3.57288zm4.16462 0.298823c-1.25671,0.511424 -2.4768,1.11143 -3.63784,1.79175l-0.517329 0.303547 -0.519691 -0.295279 -6.13945 -3.47721 -6.59654 6.52803 0.115749 1.43506 0.090946 0.129923 2.95279 5.25833 0.282287 0.504337 -0.277562 0.505518c-0.579928,1.05238 -1.08663,2.12247 -1.51537,3.20083 -0.440557,1.10671 -0.811427,2.2394 -1.10789,3.3839l-0.150002 0.578747 -0.574023 0.162994 -6.39929 1.81538 -0.0070867 1.4575 -0.00354335 0.793711 -0.0826782 0.0224412 -0.0448824 8.97413 6.74063 1.93939 0.578747 0.165356 0.145277 0.583472c0.265751,1.06655 0.595283,2.11656 0.982689,3.14413 0.382682,1.01458 0.830325,2.01853 1.33702,2.99886l0.257483 0.49725 -0.277562 0.491345 -3.19374 5.63747 0.217326 1.62049 6.5741 6.64378 6.15362 -3.45359 0.523235 -0.295279 0.51851 0.310634c1.15868,0.692135 2.3646,1.29923 3.60004,1.81656 1.25907,0.527959 2.54058,0.960248 3.82918,1.29569l0.58111 0.151183 0.160632 0.577566 1.8827 6.80087 8.97413 0.0472447 1.90987 -6.7926 0.161813 -0.579928 0.587015 -0.14764c1.28742,-0.324807 2.56775,-0.744104 3.82091,-1.25553 1.23427,-0.501975 2.43546,-1.09253 3.58823,-1.76459l0.514967 -0.301185 0.523235 0.301185 6.11346 3.51146 6.38394 -6.31898 -0.121655 -0.22205 0.269295 -0.191341 -0.134647 -1.34175 -2.92799 -5.29495 -0.276381 -0.499612 0.281106 -0.505518c0.571661,-1.03112 1.08072,-2.10239 1.52128,-3.19846 0.441738,-1.10198 0.814971,-2.22995 1.11379,-3.36973l0.151183 -0.577566 0.577566 -0.159451 6.87174 -1.9016 0.050788 -9.48437 -0.0188979 -0.178349 -0.162994 -1.55435 -6.92016 -1.94648 -0.58111 -0.164175 -0.146458 -0.584653c-0.265751,-1.06064 -0.590558,-2.10475 -0.97324,-3.12287 -0.379139,-1.00867 -0.820876,-2.00554 -1.31931,-2.97641l-0.258665 -0.501975 0.283468 -0.491345 3.28941 -5.72487 -0.224412 -1.46222 -6.62961 -6.69811 -6.17724 3.41697 -0.520873 0.288193 -0.512605 -0.308272c-1.16694,-0.699221 -2.37168,-1.30868 -3.59768,-1.82364 -1.2449,-0.523235 -2.52759,-0.957886 -3.83154,-1.30041l-0.575204 -0.151183 -0.161813 -0.572842 -1.86616 -6.58827 -8.9883 -0.0460636 -1.91813 6.55284 -0.1689 0.575204 -0.579928 0.144096c-1.29805,0.322445 -2.59609,0.747647 -3.87288,1.26734zm8.91979 20.1475c2.5146,-0.787805 5.11896,-0.479533 7.28985,0.654339 2.16971,1.13387 3.9095,3.09571 4.6973,5.61385l0.00354335 0.0118112 0.0673237 0.225593 0.00826782 0.0295279 0.060237 0.225593 0.0330713 0.288193c-0.0389769,2.02443 -0.727568,3.96973 -1.91931,5.55715 -1.16222,1.54963 -2.80279,2.76381 -4.78589,3.3839 -2.5146,0.786624 -5.11896,0.479533 -7.28749,-0.65552 -2.16971,-1.13387 -3.9095,-3.09807 -4.69848,-5.61503l-0.00354335 -0.0118112 -0.0673237 -0.225593 -0.00826782 -0.0295279 -0.060237 -0.225593 -0.0330713 -0.288193c0.0389769,-2.02325 0.728749,-3.96855 1.91813,-5.55597 1.16222,-1.54844 2.80397,-2.76263 4.78589,-3.38272zm6.32842 2.49452c-1.69608,-0.885838 -3.73587,-1.12679 -5.70952,-0.50788 -1.55435,0.48662 -2.83822,1.43388 -3.74414,2.64098 -0.903554,1.20474 -1.43742,2.67405 -1.49766,4.20478l0.0177168 0.0661425 0.060237 0.203152c0.617724,1.96892 1.97837,3.50674 3.67327,4.39257 1.69608,0.887019 3.73469,1.1256 5.70716,0.509061 1.55435,-0.48662 2.83941,-1.43506 3.74414,-2.64216 0.904736,-1.20474 1.4386,-2.67405 1.49884,-4.20596l-0.0177168 -0.0661425 -0.060237 -0.203152c-0.616543,-1.9701 -1.97719,-3.50555 -3.67209,-4.39139zm3.67209 4.39257l0 -0.00118112 -0.00354335 -0.0106301m-14.5419 2.22522l0 0.00118112 0.00354335 0.0106301"
   id="path4748" />
  <polygon
   class="fil48"
   points="83.9538,9.04263 24.7385,9.03082 24.7586,4.60754 84.0294,4.60754 "
   id="polygon4750" />
  <g
   id="_249953688">
   <polygon
   id="_156496944"
   class="fil49"
   points="86.231,10.5025 86.2664,10.5025 86.2664,10.4493 " />
   <g
   id="g4754">
    <polygon
   id="_249948936"
   class="fil50"
   points="85.5199,9.04381 85.5199,8.94696 21.1762,8.94696 21.1762,9.04381 " />
    <polygon
   id="_249977520"
   class="fil51"
   points="85.5199,9.04381 85.5199,8.7757 21.1762,8.7757 21.1762,9.04381 " />
    <polygon
   id="_249967512"
   class="fil52"
   points="85.5199,9.04381 85.5199,8.60089 21.1762,8.60089 21.1762,9.04381 " />
    <polygon
   id="_249967992"
   class="fil53"
   points="21.1762,8.95168 85.5199,8.95168 85.5199,8.42845 21.1762,8.42845 " />
    <polygon
   id="_249952584"
   class="fil54"
   points="21.1762,8.77924 85.5199,8.77924 85.5199,8.25719 21.1762,8.25719 " />
    <polygon
   id="_249966648"
   class="fil55"
   points="21.1762,8.60444 85.5199,8.60444 85.5199,8.08475 21.1762,8.08475 " />
    <polygon
   id="_249949272"
   class="fil56"
   points="21.1762,8.43317 85.5199,8.43317 85.5199,7.90994 21.1762,7.90994 " />
    <polygon
   id="_249951648"
   class="fil57"
   points="21.1762,8.26073 85.5199,8.26073 85.5199,7.73868 21.1762,7.73868 " />
    <polygon
   id="_249951048"
   class="fil58"
   points="21.1762,8.08947 85.5199,8.08947 85.5199,7.56623 21.1762,7.56623 " />
    <polygon
   id="_249961608"
   class="fil59"
   points="21.1762,7.91703 85.5199,7.91703 85.5199,7.39143 21.1762,7.39143 " />
    <polygon
   id="_249972720"
   class="fil60"
   points="21.1762,7.74222 85.5199,7.74222 85.5199,7.22135 21.1762,7.22135 " />
    <polygon
   id="_156492936"
   class="fil61"
   points="21.1762,7.57096 85.5199,7.57096 85.5199,7.04772 21.1762,7.04772 " />
    <polygon
   id="_247017576"
   class="fil62"
   points="21.1762,7.39852 85.5199,7.39852 85.5199,6.8741 21.1762,6.8741 " />
    <polygon
   id="_249970512"
   class="fil63"
   points="21.1762,7.22371 85.5199,7.22371 85.5199,6.70402 21.1762,6.70402 " />
    <polygon
   id="_156495504"
   class="fil64"
   points="21.1762,7.05363 85.5199,7.05363 85.5199,6.5304 21.1762,6.5304 " />
    <polygon
   id="_156494064"
   class="fil65"
   points="21.1762,6.88001 85.5199,6.88001 85.5199,6.35913 21.1762,6.35913 " />
    <polygon
   id="_156497592"
   class="fil66"
   points="21.1762,6.70638 85.5199,6.70638 85.5199,6.18669 21.1762,6.18669 " />
   </g>
   <polygon
   id="_156497208"
   class="fil15"
   points="21.1762,6.53394 85.5199,6.53394 85.5199,6.01189 21.1762,6.01189 " />
  </g>
  <path
   class="fil67"
   d="M101.965 57.257l0.226774 -6.91308c0.0318902,-1.02875 0.0389769,-1.64293 -0.0354335,-2.13546 -0.0696859,-0.458273 -0.226774,-0.83505 -0.522054,-1.40907 -0.438194,-0.846861 -0.844499,-1.42797 -1.37836,-1.81538 -0.537408,-0.389769 -1.24726,-0.617724 -2.29609,-0.764183 -0.451187,-0.0625992 -0.714576,-0.060237 -1.22836,-0.0566936l-0.229137 0.00236223 -0.504337 0.00590558 0 -0.504337 0 -2.65751 0.00236223 -0.00236223 0.00118112 -0.274019c0.00354335,-0.781899 0.00472447,-1.30395 -0.609456,-1.59096 -0.68741,-0.321264 -1.67837,-0.613 -2.8335,-0.855129 -1.20592,-0.251578 -2.59255,-0.450006 -4.00399,-0.565755l0.0826782 -0.996863c1.44332,0.119293 2.8713,0.323626 4.12446,0.584653 1.22246,0.255121 2.28782,0.572842 3.05319,0.93072 1.19293,0.557487 1.1882,1.33348 1.18348,2.49806l-0.00118112 0.271657 0.00236223 0 0 2.15436c0.405123,-0.00118112 0.677961,0.0070867 1.09726,0.0661425 1.21655,0.1689 2.06341,0.451187 2.74492,0.946075 0.682686,0.496069 1.17285,1.1823 1.68073,2.16499 0.347248,0.675599 0.533865,1.13033 0.62363,1.71853 0.0838593,0.553944 0.0755915,1.21301 0.0425202,2.31381l0 0.00118112 -0.226774 6.91308 -0.996863 -0.030709zm-81.0872 -20.0128c-1.35356,0.070867 -3.08153,0.32835 -4.60163,0.757096 -1.2012,0.337799 -2.26656,0.780718 -2.8772,1.3134 -0.188979,0.165356 -0.314177,0.324807 -0.388587,0.467722l-0.00118112 0c-0.0673237,0.128742 -0.0921271,0.238586 -0.090946,0.318902l0.00944894 0.060237 0.00472447 0.0212601 -0.00354335 0.131104 0.0118112 0 0.0448824 3.08153 0.0070867 0.466541 -0.464179 0.0377957c-2.06105,0.171262 -3.37563,0.915366 -4.20478,1.91341 -0.831506,0.999225 -1.2012,2.28074 -1.35474,3.50319l-0.00236223 8.27254 -0.996863 0 0.00236223 -8.31388 0.00236223 -0.060237c0.172443,-1.38781 0.600007,-2.8583 1.58388,-4.03942 0.922452,-1.11143 2.31853,-1.95593 4.42328,-2.22404l-0.0377957 -2.61617 -0.00590558 -0.0259846 -0.00944894 -0.0637803 -0.00118112 -0.0271657c-0.0224412,-0.250397 0.0259846,-0.566936 0.199609,-0.89883l0 -0.00236223c0.12638,-0.240948 0.324807,-0.500794 0.615362,-0.753553 0.733474,-0.640165 1.93467,-1.15041 3.26461,-1.52364 1.59215,-0.448824 3.40044,-0.718119 4.81896,-0.792529l0.0519691 0.996863z"
   id="path4774" />
  <path
   class="fil68"
   d="M17.3719 52.0412l80.5911 -0.0259846c2.47798,0 4.08666,0.00826782 4.75281,-1.04529 0.381501,-0.607094 0.450006,-1.1823 0.351973,-1.74805 -0.0543314,0.283468 -0.166537,0.572842 -0.351973,0.869302 -0.66615,1.05356 -2.27483,1.04529 -4.75281,1.04529l-80.5911 0.0259846c-1.60514,-0.00118112 -3.03429,-0.140553 -4.27092,-0.383863l0 0.878751c1.23545,0.242129 2.66342,0.379139 4.27092,0.383863zm-9.50563 -3.1902c0.0425202,0.0732292 0.0874027,0.145277 0.138191,0.216144 -0.050788,-0.0720481 -0.0956705,-0.142915 -0.138191,-0.216144z"
   id="path4776" />
  <path
   class="fil69"
   d="M13.1009 50.7786c-3.27642,-0.646071 -5.20991,-2.02916 -5.5229,-3.54689 -0.0389769,0.188979 -0.0519691,0.379139 -0.0413391,0.566936 0.0980327,1.63821 2.06577,3.16894 5.56424,3.85871l0 -0.878751z"
   id="path4778" />
  <path
   class="fil42"
   d="M14.0163 40.6257l0 6.95442c-0.548038,-0.561031 -0.975603,-1.32876 -1.15277,-2.20278l-0.040158 -5.13432c0.210239,-0.752371 0.741741,0.308272 1.19293,0.382682z"
   id="path4780" />
  <path
   class="fil70"
   d="M18.0912 42.0383l75.0588 -0.0177168c0.774813,0 1.3949,-0.0826782 1.87561,-0.219688l0 -1.0193c-0.467722,0.13701 -1.06419,0.217326 -1.80002,0.217326l-75.1415 -0.0070867 0.0070867 1.04647zm78.1191 -0.998044c0.161813,-0.279925 0.15827,-0.595283 0.0070867,-0.907098l-0.0070867 0.907098zm-73.1607 -3.60477l-0.0460636 -0.0177168 -0.0070867 0.0177168 0.0531503 0z"
   id="path4782" />
  <path
   class="fil69"
   d="M95.0256 41.8009c0.618905,-0.177168 1.00395,-0.447643 1.18466,-0.760639l0.0070867 -0.907098 -0.0295279 -0.0578747c-0.209058,0.288193 -0.589377,0.53977 -1.16222,0.706308l0 1.0193z"
   id="path4784" />
  <path
   class="fil69"
   d="M16.3833 42.0383l0.748828 0 0.959067 0 -0.0070867 -1.04647 -0.901192 0 -0.748828 0c-0.576385,0 -2.79334,-0.290555 -3.41697,-1.07718 -0.214963,1.29687 2.36105,2.12365 3.36618,2.12365z"
   id="path4786" />
  <path
   class="fil71"
   d="M74.2639 61.535c2.46027,-1.44332 5.08707,-2.49924 7.7871,-3.17248l2.139 -7.30521 10.5521 0.0531503 2.07995 7.34182c2.67287,0.702765 5.26778,1.78112 7.69734,3.23744l6.86229 -3.79611 7.4245 7.50127 0.349611 2.27956 -2.20042 1.59805 -2.05751 2.92208c1.42679,2.44019 2.46972,5.03983 3.14059,7.71506l7.59812 2.13782 0.24331 2.30908 -0.298823 8.2442 -7.62883 2.11184c-0.702765,2.67051 -1.78349,5.25833 -3.2398,7.68553l3.79611 6.86347 0.214963 2.1579 -7.71624 5.26542 -6.79969 -3.90713c-2.42956,1.41852 -5.0162,2.46027 -7.67844,3.12996l-2.12365 7.5556 -10.5545 -0.0566936 -2.09058 -7.55915c-2.67641,-0.696859 -5.27132,-1.77168 -7.70324,-3.22445l-6.84339 3.83981 -7.11623 -5.20164 -0.308272 -2.29963 3.8658 -6.82567c-1.4386,-2.44964 -2.49216,-5.06109 -3.16539,-7.74813l-7.14221 -2.15672 0.050788 -10.5545 7.15284 -2.02916c0.696859,-2.67995 1.77049,-5.27959 3.22681,-7.71506l-3.66028 -4.61817 -0.178349 -2.2205 7.50009 -7.42332 6.82449 3.86461zm13.1293 17.979c4.49061,-1.40671 9.27767,1.09608 10.6844,5.58432 1.40671,4.49179 -1.09608,9.27767 -5.58668,10.6844 -4.48943,1.40671 -9.27531,-1.09608 -10.6832,-5.58668 -1.40671,-4.48824 1.09608,-9.27531 5.5855,-10.682z"
   id="path4788" />
  <polygon
   class="fil72"
   points="111.718,58.2338 118.806,65.3949 119.079,67.1725 113.512,67.5705 111.58,62.0606 "
   id="polygon4790" />
  <polygon
   class="fil72"
   points="60.5051,67.802 60.1177,67.3142 59.9393,65.0937 67.4394,57.6704 67.5847,57.7531 67.763,62.6736 65.8307,68.1835 "
   id="polygon4792" />
  <path
   class="fil73"
   d="M74.5261 63.7992c2.46145,-1.44332 5.08707,-2.49806 7.7871,-3.17248l2.17207 -7.54379 10.5497 0.0531503 2.04924 7.58159c2.67405,0.702765 5.2666,1.77994 7.69616,3.23626l6.86347 -3.79611 6.35559 6.42291 1.06891 1.07718 -3.90832 6.80087c1.42679,2.44019 2.46972,5.03983 3.14059,7.71624l7.59812 2.13782 -0.0566936 10.5533 -7.62883 2.11184c-0.701583,2.66932 -1.78112,5.25833 -3.2398,7.68553l3.79611 6.86111 -7.50009 7.4245 -6.80087 -3.90595c-2.42956,1.41852 -5.01502,2.4579 -7.67726,3.12996l-2.12365 7.55442 -10.5533 -0.0566936 -2.09294 -7.55797c-2.67405,-0.696859 -5.27132,-1.77286 -7.70206,-3.22563l-6.84339 3.84099 -7.4245 -7.50245 3.8658 -6.82567c-1.4386,-2.44846 -2.49334,-5.0599 -3.16657,-7.74695l-7.49773 -2.1579 0.0519691 -10.5545 7.50836 -2.03034c0.696859,-2.67759 1.77049,-5.27723 3.22681,-7.71269l-3.83981 -6.83867 7.50245 -7.4245 6.82331 3.86461zm13.1293 17.9801c4.49061,-1.40671 9.27767,1.09371 10.6844,5.58432 1.40671,4.49061 -1.09608,9.27649 -5.58668,10.6832 -4.48943,1.40789 -9.27531,-1.0949 -10.6832,-5.5855 -1.40671,-4.49061 1.09608,-9.27649 5.5855,-10.682z"
   id="path4794" />
  <path
   class="fil74"
   d="M125.881 87.6731l-13.6844 3.65201c-1.07127,-1.80357 -2.14845,-1.52718 -4.26383,-2.76499 -2.07404,-3.26224 -7.07135,-5.32329 -12.4454,-5.33747 -2.13782,-1.68309 -5.04219,-2.31735 -7.83199,-1.44332 -3.20673,1.00395 -5.39889,3.73233 -5.87842,6.84575 -1.00631,0.60237 -1.9016,1.27088 -2.67641,1.989l-25.8157 -2.65161 0.020079 -4.0217 7.50836 -2.03034c0.696859,-2.67759 1.77049,-5.27723 3.22681,-7.71269l-3.83981 -6.83867 7.50245 -7.4245 6.82331 3.86461c2.46145,-1.44332 5.08707,-2.49806 7.7871,-3.17248l2.17207 -7.54379 10.5497 0.0531503 2.04924 7.58159c2.67405,0.702765 5.2666,1.77994 7.69616,3.23626l6.86347 -3.79611 6.35559 6.42291 1.06891 1.07718 -3.90832 6.80087c1.42679,2.44019 2.46972,5.03983 3.14059,7.71624l7.59812 2.13782 -0.0177168 3.36028z"
   id="path4796" />
  <path
   class="fil75"
   d="M83.1069 67.8363c12.4194,-3.88942 25.6491,3.02602 29.5374,15.4372 3.89178,12.4194 -3.02602,25.6468 -15.4431,29.5386 -12.4135,3.88824 -25.6409,-3.0272 -29.5326,-15.4466 -3.88824,-12.4112 3.0272,-25.6385 15.4384,-29.5291z"
   id="path4798" />
  <path
   class="fil76"
   d="M89.6692 76.3143c7.73868,-0.268114 14.2325,5.78984 14.4994,13.5214 0.268114,7.73868 -5.78984,14.2325 -13.5285,14.4994 -7.73159,0.268114 -14.2254,-5.78984 -14.4923,-13.5285 -0.268114,-7.73159 5.78984,-14.2254 13.5214,-14.4923z"
   id="path4800" />
  <path
   class="fil77"
   d="M83.1093 67.8363c12.4171,-3.88942 25.6444,3.02602 29.535,15.4372 3.88942,12.4194 -3.02602,25.6468 -15.4431,29.5386 -12.4135,3.88824 -25.6409,-3.02956 -29.5303,-15.4466 -3.8906,-12.4112 3.02484,-25.6385 15.4384,-29.5291zm6.27291 0.25394c12.2813,-0.426383 22.5877,9.18791 23.0105,21.4585 0.426383,12.2813 -9.18791,22.5877 -21.4692,23.0105 -12.2706,0.426383 -22.577,-9.18791 -22.9999,-21.4692 -0.426383,-12.2706 9.18791,-22.577 21.4585,-22.9999z"
   id="path4802" />
  <circle
   class="fil42"
   transform="matrix(1.58291 -0.0561402 0.0548528 1.62006 90.3715 91.0081)"
   r="7.14576"
   id="circle4804" />
  <path
   class="fil78"
   d="M90.0755 77.923c6.18315,-0.216144 11.3706,4.62407 11.5868,10.8084 0.213782,6.18551 -4.62643,11.3706 -10.8108,11.5868 -6.18315,0.212601 -11.3706,-4.62762 -11.5844,-10.8108 -0.214963,-6.18315 4.62525,-11.3706 10.8084,-11.5844z"
   id="path4806" />
  <path
   class="fil79"
   d="M101.474 88.1101c0.0425202,0.338981 0.0720481,0.682686 0.0838593,1.02993 0.213782,6.18551 -4.62171,11.3706 -10.8096,11.5844 -6.10637,0.212601 -11.2442,-4.50478 -11.5749,-10.5816 0.814971,5.57605 5.71424,9.76193 11.4734,9.56114 6.12527,-0.21142 10.9253,-5.29495 10.8131,-11.3978l0.0141734 -0.196065z"
   id="path4808" />
  <path
   class="fil80"
   d="M91.0795 97.0382c5.517,-0.19016 9.07806,-3.52918 8.94224,-7.48828 -0.138191,-3.96028 -3.84217,-4.72092 -9.35799,-4.5284 -5.51582,0.19016 -9.95682,1.2319 -9.81862,5.19337 0.135828,3.9591 4.71856,7.01465 10.2344,6.82331z"
   id="path4810" />
  <path
   class="fil81"
   d="M90.5739 79.1478c3.7843,-0.131104 6.38276,2.05632 6.47961,4.86148 0.0968516,2.80515 -2.40121,3.52209 -6.18433,3.65319 -3.78312,0.131104 -6.87174,-0.392131 -6.96977,-3.19728 -0.0968516,-2.80515 2.89137,-5.18628 6.67449,-5.31739z"
   id="path4812" />
  <path
   class="fil82"
   d="M125.873 89.1909l-0.030709 5.67527 -7.62883 2.11184c-0.701583,2.66932 -1.78112,5.25833 -3.2398,7.68553l3.79611 6.86111 -7.50009 7.4245 -6.80087 -3.90595c-2.42956,1.41852 -5.01502,2.4579 -7.67726,3.12996l-2.12365 7.55442 -10.5533 -0.0566936 -2.09294 -7.55797c-2.67405,-0.696859 -5.27132,-1.77286 -7.70206,-3.22563l-6.84339 3.84099 -7.4245 -7.50245 3.8658 -6.82567c-1.4386,-2.44846 -2.49334,-5.0599 -3.16657,-7.74695l-7.49773 -2.1579 0.0259846 -5.3044 0.995682 0 -0.0224412 4.55321 6.77134 1.94884 0.556306 0.159451 0.139372 0.558668c0.330713,1.32285 0.752371,2.61499 1.26025,3.85871 0.504337,1.23309 1.10434,2.44727 1.79648,3.62603l0.291736 0.496069 -0.283468 0.500794 -3.49374 6.16779 6.35913 6.42646 6.18197 -3.47012 0.501975 -0.282287 0.49725 0.297641c1.15986,0.693316 2.36814,1.30159 3.60477,1.81892 1.25553,0.525597 2.5394,0.959067 3.83627,1.29687l0.556306 0.144096 0.153545 0.555125 1.89215 6.83158 9.03909 0.0496069 1.91813 -6.82449 0.155907 -0.558668 0.562212 -0.140553c1.29332,-0.325988 2.57365,-0.745285 3.82682,-1.25671 1.2319,-0.500794 2.4331,-1.09253 3.59296,-1.76813l0.493707 -0.288193 0.501975 0.288193 6.14181 3.528 6.42409 -6.36031 -3.43233 -6.20323 -0.276381 -0.499612 0.29646 -0.492526c0.700402,-1.16694 1.31222,-2.37286 1.82955,-3.60004 0.523235,-1.24017 0.957886,-2.5205 1.30041,-3.828l0.145277 -0.553944 0.553944 -0.152364 6.90245 -1.91105 0.0271657 -4.91581 0.995682 0z"
   id="path4814" />
  <path
   class="fil83"
   d="M74.5261 63.7992c2.46145,-1.44332 5.08707,-2.49806 7.7871,-3.17248l2.17207 -7.54379 10.5497 0.0531503 2.04924 7.58159c2.67405,0.702765 5.2666,1.77994 7.69616,3.23626l6.86347 -3.79611 6.35559 6.42291 1.06891 1.07718 -3.90832 6.80087c1.42679,2.44019 2.46972,5.03983 3.14059,7.71624l7.59812 2.13782 -0.0259846 4.87801 -0.995682 0 0.0224412 -4.12328 -6.86819 -1.93231 -0.558668 -0.15827 -0.140553 -0.559849c-0.325988,-1.30041 -0.745285,-2.58901 -1.25789,-3.84926 -0.506699,-1.24372 -1.09844,-2.45082 -1.77286,-3.60477l-0.292917 -0.500794 0.288193 -0.499612 3.52918 -6.14063 -0.533865 -0.538589 -5.82527 -5.88669 -6.20559 3.43233 -0.499612 0.2752 -0.492526 -0.295279c-1.15395,-0.692135 -2.35987,-1.30041 -3.60241,-1.82246l0 -0.00354335c-1.24017,-0.520873 -2.52405,-0.955524 -3.83627,-1.30041l-0.559849 -0.146458 -0.151183 -0.561031 -1.85081 -6.84693 -9.032 -0.0460636 -1.96302 6.81741 -0.160632 0.557487 -0.557487 0.138191c-1.31222,0.327169 -2.61381,0.752371 -3.88469,1.26852 -1.25671,0.511424 -2.47562,1.11143 -3.6402,1.79412l-0.49725 0.290555 -0.499612 -0.282287 -6.16543 -3.49256 -6.42528 6.35913 3.46776 6.17724 0.281106 0.500794 -0.29646 0.498431c-0.693316,1.16104 -1.30159,2.36814 -1.81892,3.60595 -0.525597,1.25789 -0.960248,2.54531 -1.29805,3.84572l-0.145277 0.562212 -0.562212 0.152364 -6.77371 1.83191 -0.0224412 4.48352 -0.995682 0 0.0259846 -5.25006 7.50836 -2.03034c0.696859,-2.67759 1.77049,-5.27723 3.22681,-7.71269l-3.83981 -6.83867 7.50245 -7.4245 6.82331 3.86461z"
   id="path4816" />
  <g
   id="_247025928">
   <path
   id="_156719056"
   class="fil84"
   d="M101.476 87.9046c0.0425202,0.330713 0.0720481,0.66615 0.0838593,1.00513 0.213782,6.03551 -4.62171,11.0954 -10.8096,11.3045 -6.10637,0.206695 -11.2442,-4.39612 -11.5749,-10.3253 0.814971,5.44022 5.71424,9.52453 11.4734,9.32846 6.12527,-0.205514 10.9253,-5.16621 10.8131,-11.1214 0.00472447,-0.0637803 0.00944894,-0.127561 0.0141734,-0.191341z" />
   <path
   id="_156722224"
   class="fil85"
   d="M101.476 87.6991c0.0425202,0.322445 0.0720481,0.649614 0.0838593,0.980327 0.213782,5.88551 -4.62171,10.8202 -10.8096,11.0234 -6.10637,0.201971 -11.2442,-4.28627 -11.5749,-10.069 0.814971,5.30558 5.71424,9.28948 11.4734,9.09814 6.12527,-0.20079 10.9253,-5.03864 10.8131,-10.8462 0.00472447,-0.0625992 0.00944894,-0.124017 0.0141734,-0.186616z" />
   <path
   id="_156725248"
   class="fil86"
   d="M101.476 87.4971c0.0425202,0.314177 0.0720481,0.633079 0.0838593,0.954342 0.213782,5.73668 -4.62171,10.545 -10.8096,10.7434 -6.10637,0.197247 -11.2442,-4.17761 -11.5749,-9.81272 0.814971,5.17093 5.71424,9.05208 11.4734,8.86546 6.12527,-0.196065 10.9253,-4.9099 10.8131,-10.5686 0.00472447,-0.0614181 0.00944894,-0.121655 0.0141734,-0.181892z" />
   <path
   id="_156723520"
   class="fil87"
   d="M101.476 87.2928c0.0425202,0.305909 0.0720481,0.616543 0.0838593,0.929539 0.213782,5.58668 -4.62171,10.2698 -10.8096,10.4623 -6.10637,0.192522 -11.2442,-4.06777 -11.5749,-9.55642 0.814971,5.03628 5.71424,8.81586 11.4734,8.63515 6.12527,-0.191341 10.9253,-4.78234 10.8131,-10.2934 0.00472447,-0.060237 0.00944894,-0.118112 0.0141734,-0.177168z" />
   <path
   id="_156718720"
   class="fil88"
   d="M101.476 87.0885c0.0425202,0.297641 0.0720481,0.600007 0.0838593,0.905917 0.213782,5.4355 -4.62171,9.99343 -10.8096,10.1812 -6.10637,0.186616 -11.2442,-3.96028 -11.5749,-9.30011 0.814971,4.90045 5.71424,8.57963 11.4734,8.40247 6.12527,-0.185435 10.9253,-4.65242 10.8131,-10.0171 0.00472447,-0.0578747 0.00944894,-0.115749 0.0141734,-0.172443z" />
   <path
   id="_156718624"
   class="fil89"
   d="M101.476 86.8841c0.0425202,0.289374 0.0720481,0.583472 0.0838593,0.881113 0.213782,5.2855 -4.62171,9.71823 -10.8096,9.90012 -6.10637,0.181892 -11.2442,-3.85044 -11.5749,-9.04381 0.814971,4.76581 5.71424,8.34341 11.4734,8.17215 6.12527,-0.180711 10.9253,-4.52486 10.8131,-9.74185 0.00472447,-0.0566936 0.00944894,-0.112206 0.0141734,-0.167719z" />
   <path
   id="_156723664"
   class="fil90"
   d="M101.476 86.6822c0.0425202,0.281106 0.0720481,0.566936 0.0838593,0.855129 0.213782,5.13668 -4.62171,9.44303 -10.8096,9.6202 -6.10637,0.177168 -11.2442,-3.74178 -11.5749,-8.78751 0.814971,4.63116 5.71424,8.10601 11.4734,7.93947 6.12527,-0.175986 10.9253,-4.39612 10.8131,-9.46429 0.00472447,-0.0555125 0.00944894,-0.109844 0.0141734,-0.162994z" />
   <path
   id="_156724432"
   class="fil91"
   d="M101.476 86.4767c0.0425202,0.272838 0.0720481,0.5504 0.0838593,0.830325 0.213782,4.98668 -4.62171,9.16783 -10.8096,9.33909 -6.10637,0.172443 -11.2442,-3.63193 -11.5749,-8.53121 0.814971,4.49651 5.71424,7.87096 11.4734,7.70915 6.12527,-0.171262 10.9253,-4.26856 10.8131,-9.18909 0.00472447,-0.0543314 0.00944894,-0.106301 0.0141734,-0.15827z" />
  </g>
  <path
   class="fil92"
   d="M101.474 86.2735c0.0425202,0.26457 0.0720481,0.533865 0.0838593,0.805522 0.213782,4.83667 -4.62171,8.89263 -10.8096,9.05917 -6.10637,0.166537 -11.2442,-3.52327 -11.5749,-8.2749 0.814971,4.36068 5.71424,7.63356 11.4734,7.47647 6.12527,-0.165356 10.9253,-4.13981 10.8131,-8.91271l0.0141734 -0.153545z"
   id="path4827" />
  <path
   class="fil79"
   d="M94.6193 83.5971c1.48939,0.0980327 2.67287,0.610637 2.80751,2.61854 -3.29532,3.71461 -6.59063,7.43041 -9.88595,11.1486 -1.65829,0.798435 -3.28941,-1.0323 -2.80751,-2.61972 3.29532,-3.71816 6.59063,-7.43277 9.88595,-11.1474z"
   id="path4829" />
  <path
   class="fil93"
   d="M93.8563 82.7798c1.48939,0.0980327 2.67287,0.610637 2.80751,2.61854 -3.29532,3.71461 -6.59063,7.43041 -9.88595,11.1486 -1.65829,0.798435 -3.28941,-1.0323 -2.80751,-2.61972 3.29532,-3.71816 6.59063,-7.43277 9.88595,-11.1474z"
   id="path4831" />
  <path
   class="fil40"
   d="M93.8563 82.7798c1.45868,0.0956705 2.62326,0.589377 2.79807,2.49452 -0.451187,-1.0323 -1.40907,-1.34884 -2.54294,-1.42325 -3.29532,3.71461 -6.59063,7.42923 -9.88595,11.1474 -0.0543314,0.178349 -0.0814971,0.35906 -0.0850404,0.53977 -0.251578,-0.487801 -0.336618,-1.06419 -0.170081,-1.61104 3.29532,-3.71816 6.59063,-7.43277 9.88595,-11.1474z"
   id="path4833" />
  <g
   id="_251135016">
   <polygon
   id="_156501888"
   class="fil94"
   points="80.8947,4.35832 24.7857,4.35832 24.7857,5.46267 29.8433,5.46267 29.8433,5.07644 35.1642,5.07644 35.1642,5.46267 43.1651,5.46267 43.1651,5.06463 48.486,5.06463 48.486,5.46267 56.481,5.46267 56.481,5.06463 61.8019,5.06463 61.8019,5.46267 69.8005,5.46267 69.8005,5.06463 75.1214,5.06463 75.1214,5.46267 80.8947,5.46267 " />
   <g
   id="g4837">
    <polygon
   id="_249946992"
   class="fil95"
   points="35.1642,6.05204 29.8433,6.05204 29.8433,9.6261 35.1642,9.6261 " />
    <g
   id="g4840">
     <polygon
   id="_156497856"
   class="fil95"
   points="43.1651,6.02252 43.1651,9.6261 48.486,9.6261 48.486,6.02252 " />
     <polygon
   id="_156493656"
   class="fil95"
   points="56.481,6.02252 56.481,9.6261 61.8019,9.6261 61.8019,6.02252 " />
    </g>
    <polygon
   id="_156500616"
   class="fil95"
   points="69.8005,6.02252 69.8005,9.6261 75.1214,9.6261 75.1214,6.02252 " />
   </g>
   <g
   id="g4845">
    <polygon
   id="_156502584"
   class="fil95"
   points="35.1146,6.69693 34.5122,6.69693 34.5122,9.6261 35.1146,9.6261 " />
    <g
   id="g4848">
     <polygon
   id="_249963816"
   class="fil95"
   points="48.4364,9.6261 48.4364,6.6674 47.8341,6.6674 47.8341,9.6261 " />
     <polygon
   id="_249954312"
   class="fil95"
   points="61.7523,9.6261 61.7523,6.6674 61.15,6.6674 61.15,9.6261 " />
    </g>
    <polygon
   id="_251118168"
   class="fil95"
   points="75.0718,9.6261 75.0718,6.6674 74.4694,6.6674 74.4694,9.6261 " />
   </g>
   <g
   id="g4853">
    <polygon
   id="_156497640"
   class="fil95"
   points="30.396,6.69693 29.7937,6.69693 29.7937,9.6261 30.396,9.6261 " />
    <g
   id="g4856">
     <polygon
   id="_249335296"
   class="fil95"
   points="43.1155,6.6674 43.1155,9.6261 43.7179,9.6261 43.7179,6.6674 " />
     <polygon
   id="_158496448"
   class="fil95"
   points="56.4314,6.6674 56.4314,9.6261 57.0338,9.6261 57.0338,6.6674 " />
    </g>
    <polygon
   id="_249340384"
   class="fil95"
   points="69.7509,6.6674 69.7509,9.6261 70.3532,9.6261 70.3532,6.6674 " />
   </g>
  </g>
  <polygon
   class="fil96"
   points="20.9483,9.41114 24.9109,3.4524 22.9586,9.59421 22.9586,38.8776 21.031,38.8776 "
   id="polygon4861" />
  <polygon
   class="fil96"
   points="88.0759,9.41114 84.1132,3.4524 86.0656,9.59421 86.0656,38.8776 87.9932,38.8776 "
   id="polygon4863" />
  <path
   class="fil97"
   d="M23.0164 38.7855l62.7527 0.121655c0.677961,0 1.2012,-0.223231 1.55789,-0.603551l0 -0.00236223c0.393312,-0.419296 0.611819,-1.04293 0.638984,-1.78467l0.0637803 -26.0141 -0.00236223 0 0 -0.0614181 0.00236223 -0.00236223c0,-0.225593 0.00118112,-0.582291 -0.0555125,-0.679142l-0.00236223 0c-0.957886,-1.64175 -2.50515,-2.94571 -3.36973,-4.43155l0.00118112 0 -0.00472447 -0.00472447c-0.206695,-0.354335 -0.261027,-0.446462 -1.08663,-0.446462l-59.2047 0.120474c-0.135828,-0.00118112 -0.209058,0.00944894 -0.24331,0.0342524l-0.00118112 -0.00118112c-0.050788,0.040158 -0.125198,0.15827 -0.231499,0.327169 -0.980327,1.57443 -1.50829,3.16776 -2.82759,4.5095l-0.00236223 0 0.0295279 26.3188c0.030709,0.799616 0.220869,1.51537 0.603551,1.989 0.304728,0.376776 0.758277,0.610637 1.38191,0.610637zm62.7527 1.12324l-62.7527 -0.121655c-3.69808,-0.2752 -2.05869,-0.416934 -2.15908,-0.986233 -0.526778,-0.651977 -0.784262,-1.57325 -0.823238,-2.57483l0 -0.0118112 -0.0295279 -26.3389 -0.00236223 -0.00826782c0,-0.627173 2.3894,-4.08666 2.98114,-5.03628 0.165356,-0.26457 0.287011,-0.452368 0.488982,-0.60237l0.00118112 -0.00236223c0.220869,-0.161813 0.471266,-0.230318 0.848042,-0.225593l0.00236223 0 59.1881 -0.125198c1.39962,0 1.51301,0.193703 1.95121,0.944894l-0.00118112 0.00118112 0.00472447 0.00590558c0.956705,1.64293 2.50869,2.94925 3.36973,4.42919l-0.00118112 0.00118112c0.193703,0.331894 0.192522,0.852766 0.191341,1.18348l0.00236223 0 0 0.0614181 -0.00236223 0 -0.0637803 26.0318 0 0.0177168c-0.0354335,0.986233 -0.346067,1.83546 -0.908279,2.43428l-0.00118112 -0.00118112c-0.546857,0.582291 -1.31576,0.923633 -2.28428,0.923633z"
   id="path4865" />
  <polygon
   class="fil83"
   points="22.9562,10.9584 24.9664,10.9584 24.9664,38.854 22.9774,38.8139 "
   id="polygon4867" />
  <polygon
   class="fil83"
   points="86.068,10.9584 84.0577,10.9584 84.0577,38.854 86.0467,38.8139 "
   id="polygon4869" />
  <path
   class="fil98"
   d="M23.2397 9.90957l0.205514 0.106301 62.7327 0.00118112 0 -1.04056 -61.6744 0 -1.2638 -0.127561c-3.08508,0 -2.38468,1.06064 0,1.06064z"
   id="path4871" />
  <path
   class="fil99"
   d="M30.1008 30.0145l11.9423 0 0.00472447 0 0.00354335 -0.00354335c0.526778,-0.00118112 1.0134,-0.203152 1.36537,-0.520873l0.00472447 -0.00354335c0.381501,-0.346067 0.620086,-0.832687 0.620086,-1.37364l0 -0.00354335 -0.00354335 -0.00826782 -0.0496069 -6.19968c-0.00354335,-0.537408 -0.242129,-1.02521 -0.620086,-1.36891 -0.356697,-0.324807 -0.846861,-0.527959 -1.37482,-0.527959l-11.9305 0 -0.030709 0.00354335 -0.0366146 0.00118112c-0.501975,0.0153545 -0.972059,0.212601 -1.31458,0.520873 -0.38032,0.342524 -0.616543,0.820876 -0.616543,1.35356l0 0.0259846 0.00354335 0.030709 0.0377957 6.19968c0.0165356,0.530321 0.252759,1.01104 0.627173,1.3512 0.354335,0.321264 0.837412,0.523235 1.36773,0.523235zm11.9423 -1.99845l-11.9423 0 -0.00590558 0 -0.0318902 -6.01307 11.9305 0 0.00472447 0.00118112 0.0472447 6.01189 -0.00236223 0z"
   id="path4873" />
  <path
   class="fil100"
   d="M30.1008 29.0153l11.9423 0c0.549219,0 1.00159,-0.411029 0.999225,-0.905917l-0.0496069 -6.19968c-0.00236223,-0.496069 -0.453549,-0.905917 -0.999225,-0.905917l-11.9305 0c-0.546857,0 -1.01576,0.407485 -0.999225,0.905917l0.0377957 6.19968c0.00354335,0.496069 0.450006,0.905917 0.999225,0.905917z"
   id="path4875" />
  <polygon
   class="fil101"
   points="34.3138,29.0153 36.3973,29.0153 36.3973,21.0038 34.3138,21.0038 "
   id="polygon4877" />
  <polygon
   class="fil98"
   points="28.1649,29.9968 29.9283,30.9961 42.6171,30.9961 44.0828,29.9968 44.0828,28.9976 42.5911,29.9968 30.0027,29.9968 28.1649,28.9976 "
   id="polygon4879" />
  <path
   class="fil99"
   d="M68.1268 30.0145l11.9423 0 0.00472447 0 0.00354335 -0.00354335c0.526778,-0.00118112 1.0134,-0.203152 1.36537,-0.520873l0.00472447 -0.00354335c0.381501,-0.346067 0.620086,-0.832687 0.620086,-1.37364l0 -0.00354335 -0.00354335 -0.00826782 -0.0496069 -6.19968c-0.00354335,-0.537408 -0.242129,-1.02521 -0.620086,-1.36891 -0.356697,-0.324807 -0.846861,-0.527959 -1.37482,-0.527959l-11.9305 0 -0.030709 0.00354335 -0.0366146 0.00118112c-0.501975,0.0153545 -0.972059,0.212601 -1.31458,0.520873 -0.38032,0.342524 -0.616543,0.820876 -0.616543,1.35356l0 0.0259846 0.00354335 0.030709 0.0377957 6.19968c0.0165356,0.530321 0.252759,1.01104 0.627173,1.3512 0.354335,0.321264 0.837412,0.523235 1.36773,0.523235zm11.9423 -1.99845l-11.9423 0 -0.00590558 0 -0.0318902 -6.01307 11.9305 0 0.00472447 0.00118112 0.0472447 6.01189 -0.00236223 0z"
   id="path4881" />
  <path
   class="fil100"
   d="M68.1268 29.0153l11.9423 0c0.549219,0 1.00159,-0.411029 0.999225,-0.905917l-0.0496069 -6.19968c-0.00236223,-0.496069 -0.453549,-0.905917 -0.999225,-0.905917l-11.9305 0c-0.546857,0 -1.01576,0.407485 -0.999225,0.905917l0.0377957 6.19968c0.00354335,0.496069 0.450006,0.905917 0.999225,0.905917z"
   id="path4883" />
  <polygon
   class="fil98"
   points="66.191,29.9968 67.9544,30.9961 80.6431,30.9961 82.1089,29.9968 82.1089,28.9976 80.6171,29.9968 68.0288,29.9968 66.191,28.9976 "
   id="polygon4885" />
  <polygon
   class="fil102"
   points="73.4702,28.9952 75.3458,28.7354 74.31,21.4396 72.3351,21.2967 "
   id="polygon4887" />
 </g>
</svg>