<?xml version="1.0" encoding="UTF-8" standalone="no"?>
<!-- Creator: CorelDRAW -->

<svg
   xmlns:dc="http://purl.org/dc/elements/1.1/"
   xmlns:cc="http://creativecommons.org/ns#"
   xmlns:rdf="http://www.w3.org/1999/02/22-rdf-syntax-ns#"
   xmlns:svg="http://www.w3.org/2000/svg"
   xmlns="http://www.w3.org/2000/svg"
   xmlns:sodipodi="http://sodipodi.sourceforge.net/DTD/sodipodi-0.dtd"
   xmlns:inkscape="http://www.inkscape.org/namespaces/inkscape"
   xml:space="preserve"
   width="32px"
   height="32px"
   style="shape-rendering:geometricPrecision; text-rendering:geometricPrecision; image-rendering:optimizeQuality; fill-rule:evenodd; clip-rule:evenodd"
   viewBox="0 0 32 32"
   id="svg2"
   version="1.1"
   inkscape:version="0.48.1 r9760"
   sodipodi:docname="draklive-install.svg"><metadata
   id="metadata215"><rdf:RDF><cc:Work
       rdf:about=""><dc:format>image/svg+xml</dc:format><dc:type
         rdf:resource="http://purl.org/dc/dcmitype/StillImage" /><dc:title></dc:title></cc:Work></rdf:RDF></metadata><sodipodi:namedview
   pagecolor="#ffffff"
   bordercolor="#666666"
   borderopacity="1"
   objecttolerance="10"
   gridtolerance="10"
   guidetolerance="10"
   inkscape:pageopacity="0"
   inkscape:pageshadow="2"
   inkscape:window-width="646"
   inkscape:window-height="480"
   id="namedview213"
   showgrid="false"
   inkscape:zoom="8.3125"
   inkscape:cx="16"
   inkscape:cy="16"
   inkscape:window-x="0"
   inkscape:window-y="24"
   inkscape:window-maximized="0"
   inkscape:current-layer="svg2" />
 <defs
   id="defs4">
  <style
   type="text/css"
   id="style6">
   
    .fil93 {fill:#8BC5F5}
    .fil94 {fill:#BCE6FF}
    .fil80 {fill:#E3FF9C}
    .fil10 {fill:#F0F0F0}
    .fil63 {fill:#959595;fill-rule:nonzero}
    .fil66 {fill:#A1A1A1;fill-rule:nonzero}
    .fil67 {fill:white;fill-rule:nonzero}
    .fil27 {fill:#DCE6F2;fill-opacity:0.000000}
    .fil51 {fill:#FFFFFA;fill-opacity:0.000000}
    .fil28 {fill:#DCE6F2;fill-opacity:0.007843}
    .fil0 {fill:#333333;fill-opacity:0.011765}
    .fil29 {fill:#DCE6F2;fill-opacity:0.019608}
    .fil70 {fill:#E3FF9C;fill-opacity:0.023529}
    .fil81 {fill:#E6FFA8;fill-opacity:0.023529}
    .fil52 {fill:#FFFFFB;fill-opacity:0.023529}
    .fil1 {fill:#333333;fill-opacity:0.023529}
    .fil30 {fill:#DCE6F2;fill-opacity:0.027451}
    .fil2 {fill:#333333;fill-opacity:0.035294}
    .fil31 {fill:#DCE6F2;fill-opacity:0.039216}
    .fil32 {fill:#DCE6F2;fill-opacity:0.047059}
    .fil3 {fill:#333333;fill-opacity:0.047059}
    .fil71 {fill:#E3FF9C;fill-opacity:0.047059}
    .fil82 {fill:#E6FFA8;fill-opacity:0.047059}
    .fil53 {fill:#FFFFFC;fill-opacity:0.047059}
    .fil33 {fill:#DCE6F2;fill-opacity:0.058824}
    .fil19 {fill:#BDC0CB;fill-opacity:0.058824}
    .fil11 {fill:white;fill-opacity:0.058824}
    .fil4 {fill:#333333;fill-opacity:0.058824}
    .fil34 {fill:#DCE6F2;fill-opacity:0.066667}
    .fil5 {fill:#333333;fill-opacity:0.074510}
    .fil72 {fill:#E3FF9C;fill-opacity:0.074510}
    .fil83 {fill:#E6FFA8;fill-opacity:0.074510}
    .fil54 {fill:#FFFFFC;fill-opacity:0.074510}
    .fil35 {fill:#DCE6F2;fill-opacity:0.078431}
    .fil90 {fill:black;fill-opacity:0.078431}
    .fil6 {fill:#333333;fill-opacity:0.086275}
    .fil36 {fill:#DCE6F2;fill-opacity:0.086275}
    .fil37 {fill:#DCE6F2;fill-opacity:0.094118}
    .fil7 {fill:#333333;fill-opacity:0.098039}
    .fil73 {fill:#E3FF9C;fill-opacity:0.098039}
    .fil84 {fill:#E6FFA8;fill-opacity:0.098039}
    .fil55 {fill:#FFFFFD;fill-opacity:0.098039}
    .fil38 {fill:#DCE6F2;fill-opacity:0.105882}
    .fil8 {fill:#333333;fill-opacity:0.109804}
    .fil39 {fill:#DCE6F2;fill-opacity:0.113725}
    .fil20 {fill:#B9C1D2;fill-opacity:0.113725}
    .fil12 {fill:white;fill-opacity:0.113725}
    .fil9 {fill:#333333;fill-opacity:0.121569}
    .fil74 {fill:#E3FF9C;fill-opacity:0.121569}
    .fil85 {fill:#E6FFA8;fill-opacity:0.121569}
    .fil56 {fill:#FFFFFD;fill-opacity:0.121569}
    .fil40 {fill:#DCE6F2;fill-opacity:0.125490}
    .fil41 {fill:#DCE6F2;fill-opacity:0.133333}
    .fil42 {fill:#DCE6F2;fill-opacity:0.145098}
    .fil75 {fill:#E3FF9C;fill-opacity:0.145098}
    .fil86 {fill:#E6FFA8;fill-opacity:0.145098}
    .fil57 {fill:#FFFFFE;fill-opacity:0.145098}
    .fil43 {fill:#DCE6F2;fill-opacity:0.152941}
    .fil44 {fill:#DCE6F2;fill-opacity:0.160784}
    .fil76 {fill:#E3FF9C;fill-opacity:0.172549}
    .fil87 {fill:#E6FFA8;fill-opacity:0.172549}
    .fil58 {fill:#FFFFFE;fill-opacity:0.172549}
    .fil45 {fill:#DCE6F2;fill-opacity:0.172549}
    .fil21 {fill:#B5C2D8;fill-opacity:0.172549}
    .fil13 {fill:white;fill-opacity:0.172549}
    .fil46 {fill:#DCE6F2;fill-opacity:0.180392}
    .fil47 {fill:#DCE6F2;fill-opacity:0.192157}
    .fil77 {fill:#E3FF9C;fill-opacity:0.196078}
    .fil88 {fill:#E6FFA8;fill-opacity:0.196078}
    .fil59 {fill:white;fill-opacity:0.196078}
    .fil48 {fill:#DCE6F2;fill-opacity:0.200000}
    .fil49 {fill:#DCE6F2;fill-opacity:0.211765}
    .fil50 {fill:#DCE6F2;fill-opacity:0.219608}
    .fil79 {fill:#E3FF9C;fill-opacity:0.219608}
    .fil60 {fill:white;fill-opacity:0.219608}
    .fil22 {fill:#B1C3DF;fill-opacity:0.231373}
    .fil14 {fill:white;fill-opacity:0.231373}
    .fil23 {fill:#AEC4E5;fill-opacity:0.290196}
    .fil15 {fill:white;fill-opacity:0.290196}
    .fil61 {fill:#ADADAD;fill-opacity:0.321569}
    .fil24 {fill:#AAC5EC;fill-opacity:0.345098}
    .fil16 {fill:white;fill-opacity:0.345098}
    .fil25 {fill:#A6C6F2;fill-opacity:0.403922}
    .fil17 {fill:white;fill-opacity:0.403922}
    .fil26 {fill:#A2C7F9;fill-opacity:0.462745}
    .fil18 {fill:white;fill-opacity:0.462745}
    .fil78 {fill:#91B341;fill-opacity:0.501961}
    .fil64 {fill:white;fill-opacity:0.580392}
    .fil92 {fill:url(#id0)}
    .fil69 {fill:url(#id1)}
    .fil91 {fill:url(#id2);fill-rule:nonzero}
    .fil65 {fill:url(#id3);fill-rule:nonzero}
    .fil89 {fill:url(#id4);fill-rule:nonzero}
    .fil95 {fill:url(#id5);fill-rule:nonzero;fill-opacity:0.321569}
    .fil68 {fill:url(#id6);fill-opacity:0.380392}
    .fil62 {fill:url(#id7);fill-opacity:0.921569}
   
  </style>
  <linearGradient
   id="id0"
   gradientUnits="userSpaceOnUse"
   x1="24.111"
   y1="30.7421"
   x2="23.9102"
   y2="18.5761">
   <stop
   offset="0"
   style="stop-color:#5E9DD5"
   id="stop9" />
   <stop
   offset="0.568627"
   style="stop-color:#7EBBEE"
   id="stop11" />
   <stop
   offset="1"
   style="stop-color:#8FCDFF"
   id="stop13" />
  </linearGradient>
  <linearGradient
   id="id1"
   gradientUnits="userSpaceOnUse"
   x1="12.8841"
   y1="12.0006"
   x2="13.1227"
   y2="21.796">
   <stop
   offset="0"
   style="stop-color:#A2C849"
   id="stop16" />
   <stop
   offset="1"
   style="stop-color:#A8CE52"
   id="stop18" />
  </linearGradient>
  <linearGradient
   id="id2"
   gradientUnits="userSpaceOnUse"
   x1="23.7862"
   y1="17.2946"
   x2="24.2351"
   y2="31.9008">
   <stop
   offset="0"
   style="stop-color:#5E9DD5"
   id="stop21" />
   <stop
   offset="1"
   style="stop-color:#4E87B4"
   id="stop23" />
  </linearGradient>
  <linearGradient
   id="id3"
   gradientUnits="userSpaceOnUse"
   x1="15.5075"
   y1="27.7844"
   x2="16.4276"
   y2="3.43127">
   <stop
   offset="0"
   style="stop-color:#858585"
   id="stop26" />
   <stop
   offset="1"
   style="stop-color:#BABABA"
   id="stop28" />
  </linearGradient>
  <linearGradient
   id="id4"
   gradientUnits="userSpaceOnUse"
   x1="10.1993"
   y1="28.6266"
   x2="15.0066"
   y2="6.75624">
   <stop
   offset="0"
   style="stop-color:#7C9E2E"
   id="stop31" />
   <stop
   offset="1"
   style="stop-color:#A8CE52"
   id="stop33" />
  </linearGradient>
  <linearGradient
   id="id5"
   gradientUnits="userSpaceOnUse"
   x1="26.021"
   y1="20.551"
   x2="26.4037"
   y2="29.1971">
   <stop
   offset="0"
   style="stop-color:#5A93C4"
   id="stop36" />
   <stop
   offset="1"
   style="stop-color:#4A7FA8"
   id="stop38" />
  </linearGradient>
  <linearGradient
   id="id6"
   gradientUnits="userSpaceOnUse"
   x1="13.2373"
   y1="13.4085"
   x2="16.8894"
   y2="30.6086">
   <stop
   offset="0"
   style="stop-color:#191919"
   id="stop41" />
   <stop
   offset="1"
   style="stop-color:#999999"
   id="stop43" />
  </linearGradient>
  <linearGradient
   id="id7"
   gradientUnits="userSpaceOnUse"
   x1="16.2492"
   y1="16.7429"
   x2="16.1287"
   y2="10.8938">
   <stop
   offset="0"
   style="stop-color:#E4E4E4"
   id="stop46" />
   <stop
   offset="1"
   style="stop-color:white"
   id="stop48" />
  </linearGradient>
 </defs>
 <g
   id="Слой_x0020_1">
  <metadata
   id="CorelCorpID_0Corel-Layer" />
  <g
   id="_306785296">
   <path
   id="_306780784"
   class="fil0"
   d="M16.3626 30.6747c8.82917,-0.14292 11.1513,0.644914 11.7266,1.08785l-22.7822 0c0.474827,-0.364979 2.49343,-0.949653 11.0557,-1.08785z" />
   <g
   id="g54">
    <path
   id="_306771616"
   class="fil1"
   d="M16.4205 30.7078c8.36616,-0.133471 10.38,0.660269 10.8123,1.05478l-21.0199 0c0.336631,-0.333087 2.0127,-0.924849 10.2076,-1.05478z" />
    <path
   id="_306774520"
   class="fil2"
   d="M16.476 30.7409c7.92441,-0.124022 9.60992,0.685073 9.88986,1.0217l-19.2352 0c0.200797,-0.294109 1.5048,-0.900044 9.34534,-1.0217z" />
    <path
   id="_306776824"
   class="fil3"
   d="M16.5327 30.774c7.54053,-0.113391 8.84807,0.733501 8.94729,0.988631l-17.4138 0c0.0626015,-0.237413 0.937841,-0.87524 8.46656,-0.988631z" />
    <path
   id="_306786664"
   class="fil4"
   d="M16.5906 30.8082c6.83301,-0.0992175 7.97047,0.716964 7.97047,0.913037 0,0.0129928 -0.0342537,0.0271667 -0.100399,0.0413406l-15.3315 0c-0.066145,-0.0141739 -0.100399,-0.0283479 -0.100399,-0.0413406 0,-0.196073 0.728776,-0.81382 7.56179,-0.913037z" />
    <path
   id="_306778792"
   class="fil5"
   d="M16.6449 30.8413c5.7806,-0.0791378 6.98656,0.622472 6.98656,0.809095 0,0.0354348 -0.307102,0.0744131 -0.842167,0.11221l-11.9368 0c-0.544515,-0.0377971 -0.858704,-0.0767754 -0.858704,-0.11221 0,-0.186623 0.870515,-0.729957 6.65111,-0.809095z" />
    <path
   id="_306790864"
   class="fil6"
   d="M16.7028 30.8755c4.72937,-0.059058 6.00266,0.526798 6.00266,0.703972 0,0.0637827 -1.3855,0.14292 -3.31197,0.18308l-5.05655 0c-1.95955,-0.0401595 -3.37576,-0.120478 -3.37576,-0.18308 0,-0.177174 1.01225,-0.644914 5.74162,-0.703972z" />
    <path
   id="_306790024"
   class="fil7"
   d="M16.7595 30.9086c3.67695,-0.0389783 5.01757,0.432305 5.01757,0.598848 0,0.0673261 -2.33279,0.151189 -4.92308,0.150007 -2.59383,0 -4.92662,-0.0838624 -4.92662,-0.150007 0,-0.166544 1.15517,-0.558689 4.83213,-0.598848z" />
    <path
   id="_306774352"
   class="fil8"
   d="M16.815 30.9429c2.6269,-0.0200797 4.03603,0.336631 4.03603,0.492544 0,0.0460653 -1.92529,0.0933117 -3.97815,0.0921305 -2.05404,0 -3.97933,-0.0484276 -3.97933,-0.0921305 0,-0.155913 1.29691,-0.473645 3.92145,-0.492544z" />
   </g>
   <path
   id="_306789784"
   class="fil9"
   d="M16.8717 30.9771c1.57449,0 3.05212,0.240957 3.05212,0.387421 0,0.0472464 -6.06408,0.0437029 -6.06408,0 0,-0.146464 1.43747,-0.387421 3.01196,-0.387421z" />
  </g>
  <path
   class="fil10"
   d="M16.2953 0.4075c8.37797,0 15.172,6.77632 15.172,15.1318 0,8.35553 -6.79404,15.1318 -15.172,15.1318 -8.37797,0 -15.172,-6.77632 -15.172,-15.1318 0,-8.35553 6.79404,-15.1318 15.172,-15.1318zm0 10.067c2.80408,0 5.07899,2.26783 5.07899,5.06482 0,2.79699 -2.27492,5.06482 -5.07899,5.06482 -2.80408,0 -5.07899,-2.26783 -5.07899,-5.06482 0,-2.79699 2.27492,-5.06482 5.07899,-5.06482z"
   id="path65" />
  <g
   id="_306798280">
   <path
   id="_306800272"
   class="fil11"
   d="M18.8584 11.1655l2.59147 -9.86151c5.84084,2.10601 10.0174,7.68463 10.0174,14.2353 0,0.825631 -0.066145,1.63473 -0.19371,2.42374l-9.90521 -2.66824c-0.0838624,-1.76229 -1.07131,-3.28953 -2.50997,-4.12934z" />
   <path
   id="_306783592"
   class="fil12"
   d="M19.019 11.2635l3.12299 -9.69024c5.47586,2.28318 9.32526,7.67754 9.32526,13.966 0,0.432305 -0.0188986,0.859885 -0.0543334,1.28274l-10.067 -1.81544c-0.164181,-1.57449 -1.05241,-2.934 -2.32689,-3.7431z" />
   <path
   id="_306798952"
   class="fil13"
   d="M19.1797 11.3699l3.6805 -9.47527c5.09198,2.44146 8.60712,7.63502 8.60712,13.6448l0 0.0425218 -10.1639 -0.887052c-0.231507,-1.37487 -1.01816,-2.56312 -2.12373,-3.32497z" />
   <path
   id="_306796456"
   class="fil14"
   d="M19.3415 11.4856l4.2569 -9.21187c4.33604,2.38004 7.37989,6.81293 7.81456,11.9852l-10.1769 0.106304c-0.277573,-1.16817 -0.961465,-2.18042 -1.89458,-2.87967z" />
   <path
   id="_306773392"
   class="fil15"
   d="M19.501 11.6108l4.84866 -8.89532c3.55766,2.22767 6.12432,5.8869 6.88498,10.1674l-10.093 1.13864c-0.301196,-0.95674 -0.878783,-1.79182 -1.64063,-2.41075z" />
   <path
   id="_306783688"
   class="fil16"
   d="M19.6581 11.7431l5.44633 -8.52444c2.78872,1.98789 4.87465,4.89355 5.81367,8.27403l-9.89931 2.18278c-0.296471,-0.747675 -0.766573,-1.40794 -1.3607,-1.93238z" />
   <path
   id="_306776416"
   class="fil17"
   d="M19.8104 11.8837l6.04045 -8.09686c2.04931,1.66071 3.65569,3.84232 4.61716,6.34401l-9.60047 3.20213c-0.26458,-0.545696 -0.624834,-1.0347 -1.05714,-1.44928z" />
   <path
   id="_306798808"
   class="fil18"
   d="M19.9569 12.0301l6.6204 -7.61494c1.36188,1.25203 2.49225,2.74856 3.32142,4.4199l-9.20715 4.16713c-0.205522,-0.353167 -0.452384,-0.680348 -0.734682,-0.972095z" />
  </g>
  <g
   id="_306796024">
   <path
   id="_306786808"
   class="fil19"
   d="M14.6889 20.3998l-0.97682 10.1473c-6.10306,-1.14573 -11.1206,-5.9873 -12.1707,-12.4542 -0.13229,-0.81382 -0.196073,-1.6241 -0.197254,-2.42374l10.2052 1.05478c0.36616,1.72686 1.58512,3.07574 3.13952,3.67577z" />
   <path
   id="_306791104"
   class="fil20"
   d="M14.5153 20.329l-1.5296 10.0635c-5.77115,-1.38078 -10.4367,-6.09124 -11.4443,-12.2994 -0.0696885,-0.426399 -0.119297,-0.851617 -0.15237,-1.27565l10.2288 0.187805c0.414587,1.52724 1.50952,2.72848 2.89739,3.32379z" />
   <path
   id="_306780568"
   class="fil21"
   d="M14.3393 20.2498l-2.11428 9.94065c-5.41798,-1.59811 -9.72095,-6.16448 -10.6836,-12.0974l-0.00708696 -0.0413406 10.1757 -0.746493c0.448841,1.32054 1.41621,2.36823 2.62926,2.94463z" />
   <path
   id="_306797392"
   class="fil22"
   d="M14.1609 20.1612l-2.72494 9.77174c-4.66204,-1.65835 -8.37679,-5.54909 -9.63591,-10.5844l10.0292 -1.72804c0.461834,1.10911 1.2981,1.9997 2.33161,2.54068z" />
   <path
   id="_306772840"
   class="fil23"
   d="M13.9838 20.0632l-3.3604 9.55441c-3.86948,-1.63236 -6.98893,-4.83567 -8.4264,-8.93902l9.78001 -2.73439c0.451203,0.897682 1.15517,1.62882 2.00679,2.119z" />
   <path
   id="_306781696"
   class="fil24"
   d="M13.8078 19.9569l-4.01004 9.28392c-3.07102,-1.51779 -5.59634,-4.05374 -7.0657,-7.24051l9.42212 -3.73247c0.413406,0.689798 0.982726,1.2662 1.65362,1.68906z" />
   <path
   id="_306789400"
   class="fil25"
   d="M13.6341 19.8435l-4.6644 8.95556c-2.28909,-1.31227 -4.22501,-3.21039 -5.57508,-5.52665l8.96383 -4.69039c0.348442,0.494906 0.781928,0.921305 1.27565,1.26148z" />
   <path
   id="_306781960"
   class="fil26"
   d="M13.4664 19.7218l-5.31522 8.57286c-1.54378,-1.01816 -2.89975,-2.31626 -3.9876,-3.83405l8.42167 -5.58098c0.258674,0.31537 0.556327,0.598848 0.881146,0.842167z" />
  </g>
  <g
   id="_306799168">
   <path
   id="_306797080"
   class="fil27"
   d="M20.5049 12.7046l9.70323 -3.20567c0.809095,1.85088 1.25912,3.8931 1.25912,6.04045 0,8.35553 -6.79404,15.1318 -15.172,15.1318 -1.61937,0 -3.1785,-0.25395 -4.64196,-0.72287l2.30326 -9.9123c0.700428,0.362616 1.49535,0.568138 2.3387,0.568138 2.80408,0 5.07899,-2.26783 5.07899,-5.06482 0,-1.05005 -0.321276,-2.02569 -0.869334,-2.83479z" />
   <g
   id="g87">
    <path
   id="_306781192"
   class="fil28"
   d="M20.5557 12.7813l9.77765 -2.98952c0.729957,1.77292 1.13391,3.71357 1.13391,5.74753 0,8.35553 -6.79404,15.1318 -15.172,15.1318 -1.50362,0 -2.95644,-0.219696 -4.32777,-0.627196l2.09538 -9.95482c0.673261,0.329544 1.43157,0.514986 2.23239,0.514986 2.80408,0 5.07899,-2.26783 5.07899,-5.06482 0,-1.01698 -0.301196,-1.96427 -0.818544,-2.75801z" />
    <path
   id="_306780736"
   class="fil29"
   d="M20.6089 12.8652l9.84852 -2.76273c0.652001,1.68788 1.00989,3.52104 1.00989,5.43688 0,8.35553 -6.79404,15.1318 -15.172,15.1318 -1.38668,0 -2.72848,-0.186623 -4.00413,-0.533885l1.88277 -9.99498c0.646095,0.296471 1.36424,0.461834 2.12136,0.461834 2.80408,0 5.07899,-2.26783 5.07899,-5.06482 0,-0.981544 -0.281116,-1.89812 -0.765392,-2.67415z" />
    <path
   id="_306774496"
   class="fil30"
   d="M20.662 12.9526l9.9182 -2.5206c0.574044,1.59575 0.887052,3.31434 0.887052,5.10734 0,8.35553 -6.79404,15.1318 -15.172,15.1318 -1.26502,0 -2.49461,-0.155913 -3.66987,-0.44766l1.66544 -10.0292c0.615385,0.263399 1.29337,0.409863 2.00443,0.409863 2.80408,0 5.07899,-2.26783 5.07899,-5.06482 0,-0.944928 -0.259855,-1.82962 -0.71224,-2.58674z" />
    <path
   id="_306799360"
   class="fil31"
   d="M20.7176 13.0471l9.98317 -2.26783c0.496087,1.49653 0.766573,3.097 0.766573,4.76008 0,8.35553 -6.79404,15.1318 -15.172,15.1318 -1.14218,0 -2.25484,-0.127565 -3.32497,-0.36616l1.44338 -10.0599c0.582312,0.231507 1.2166,0.359073 1.88159,0.359073 2.80408,0 5.07899,-2.26783 5.07899,-5.06482 0,-0.90595 -0.238594,-1.75639 -0.656725,-2.49225z" />
    <path
   id="_306781816"
   class="fil32"
   d="M20.7731 13.1487l10.0446 -1.9997c0.421674,1.39023 0.649638,2.86313 0.649638,4.39037 0,8.35553 -6.79404,15.1318 -15.172,15.1318 -1.0158,0 -2.00915,-0.100399 -2.96944,-0.290565l1.21541 -10.0871c0.546877,0.200797 1.13746,0.310645 1.75402,0.310645 2.80408,0 5.07899,-2.26783 5.07899,-5.06482 0,-0.864609 -0.217334,-1.67843 -0.601211,-2.39067z" />
    <path
   id="_306784216"
   class="fil33"
   d="M20.8298 13.2573l10.1013 -1.71741c0.348442,1.27447 0.536247,2.61509 0.536247,3.99941 0,8.35553 -6.79404,15.1318 -15.172,15.1318 -0.888233,0 -1.75757,-0.0767754 -2.60446,-0.223239l0.983907 -10.1072c0.50908,0.171268 1.0536,0.263399 1.62055,0.263399 2.80408,0 5.07899,-2.26783 5.07899,-5.06482 0,-0.820907 -0.196073,-1.59575 -0.544515,-2.282z" />
    <path
   id="_306777160"
   class="fil34"
   d="M20.8865 13.3731l10.1509 -1.41975c0.281116,1.14927 0.429942,2.35051 0.429942,3.586 0,8.35553 -6.79404,15.1318 -15.172,15.1318 -0.757124,0 -1.50125,-0.0566957 -2.22885,-0.163l0.747675 -10.1225c0.468921,0.141739 0.966189,0.218515 1.48118,0.218515 2.80408,0 5.07899,-2.26783 5.07899,-5.06482 0,-0.774841 -0.174812,-1.50952 -0.487819,-2.16625z" />
    <path
   id="_306783832"
   class="fil35"
   d="M20.9443 13.4971l10.1934 -1.10675c0.214971,1.0158 0.329544,2.06939 0.329544,3.14897 0,8.35553 -6.79404,15.1318 -15.172,15.1318 -0.623653,0 -1.23904,-0.0389783 -1.84379,-0.11221l0.507899 -10.132c0.425218,0.115754 0.872878,0.177174 1.33589,0.177174 2.80408,0 5.07899,-2.26783 5.07899,-5.06482 0,-0.726414 -0.153551,-1.41739 -0.429942,-2.04223z" />
    <path
   id="_306799672"
   class="fil36"
   d="M21.001 13.6306l10.2277 -0.779566c0.157094,0.872878 0.238594,1.77056 0.238594,2.68832 0,8.35553 -6.79404,15.1318 -15.172,15.1318 -0.489,0 -0.973276,-0.0248044 -1.45047,-0.0696885l0.263399 -10.1367c0.380334,0.0909494 0.778385,0.139377 1.18707,0.139377 2.80408,0 5.07899,-2.26783 5.07899,-5.06482 0,-0.675624 -0.133471,-1.32054 -0.373247,-1.90876z" />
    <path
   id="_306783496"
   class="fil37"
   d="M21.0565 13.7723l10.2501 -0.434667c0.105123,0.719327 0.160638,1.45401 0.160638,2.20168 0,8.35553 -6.79404,15.1318 -15.172,15.1318 -0.351986,0 -0.700428,-0.0141739 -1.04651,-0.036616l0.0141739 -10.1355c0.334268,0.0696885 0.679167,0.105123 1.03233,0.105123 2.80408,0 5.07899,-2.26783 5.07899,-5.06482 0,-0.62129 -0.11221,-1.2166 -0.317732,-1.76702z" />
    <path
   id="_306778960"
   class="fil38"
   d="M21.1109 13.9247l10.2619 -0.0767754c0.0626015,0.555145 0.0944928,1.11974 0.0944928,1.69142 0,8.35553 -6.79404,15.1318 -15.172,15.1318 -0.21379,0 -0.425218,-0.0059058 -0.636646,-0.0141739l-0.235051 -10.1273c0.282297,0.0484276 0.574044,0.0744131 0.871696,0.0744131 2.80408,0 5.07899,-2.26783 5.07899,-5.06482 0,-0.564595 -0.0933117,-1.10793 -0.263399,-1.61465z" />
    <path
   id="_306790768"
   class="fil39"
   d="M21.1617 14.0865l10.2619 0.297652c0.0283479,0.381515 0.0437029,0.766573 0.0437029,1.15517 0,8.35553 -6.79404,15.1318 -15.172,15.1318 -0.073232,0 -0.145283,-0.00236232 -0.218515,-0.00354348l-0.489 -10.1119c0.231507,0.0318913 0.46774,0.0484276 0.707515,0.0484276 2.80408,0 5.07899,-2.26783 5.07899,-5.06482 0,-0.505537 -0.0744131,-0.992175 -0.212609,-1.45283z" />
    <path
   id="_306779752"
   class="fil40"
   d="M21.2101 14.259l10.2442 0.685073c0.00826812,0.198435 0.0129928,0.395689 0.0129928,0.595305 0,8.28702 -6.68301,15.0185 -14.9653,15.1283l-0.744131 -10.0918c0.175993,0.0188986 0.355529,0.0283479 0.537428,0.0283479 2.80408,0 5.07899,-2.26783 5.07899,-5.06482 0,-0.442935 -0.0578769,-0.871696 -0.164181,-1.28038z" />
    <path
   id="_306799120"
   class="fil41"
   d="M21.2538 14.4409l10.2135 1.08903 0 0.00944928c0,8.14292 -6.45268,14.7846 -14.5354,15.1177l-1.00044 -10.0658c0.120478,0.00944928 0.240957,0.0129928 0.363797,0.0129928 2.80408,0 5.07899,-2.26783 5.07899,-5.06482 0,-0.377971 -0.0413406,-0.744131 -0.120478,-1.09848z" />
    <path
   id="_306781600"
   class="fil42"
   d="M21.2928 14.6346l10.1615 1.50125c-0.300015,7.72243 -6.40661,13.9613 -14.0865,14.4964l-1.2603 -10.0316c0.0626015,0.00236232 0.125203,0.00354348 0.187805,0.00354348 2.80408,0 5.07899,-2.26783 5.07899,-5.06482 0,-0.309464 -0.0283479,-0.611841 -0.0815001,-0.904769z" />
    <path
   id="_306781384"
   class="fil43"
   d="M21.3259 14.8377l10.0918 1.92647c-0.585856,7.28422 -6.34519,13.1144 -13.6105,13.8314l-1.51779 -9.99144 0.0059058 0c2.80408,0 5.07899,-2.26783 5.07899,-5.06482 0,-0.238594 -0.0165362,-0.472464 -0.0484276,-0.701609z" />
    <path
   id="_306781720"
   class="fil44"
   d="M21.3507 15.0515l10.0009 2.35878c-0.84453,6.83419 -6.26015,12.2581 -13.1014,13.1357l-1.77765 -9.94537c2.72257,-0.0921305 4.90182,-2.32334 4.90182,-5.06127 0,-0.164181 -0.00826812,-0.327181 -0.0236232,-0.487819z" />
    <path
   id="_306778768"
   class="fil45"
   d="M21.3672 15.2736l9.88749 2.79817c-1.07722,6.37354 -6.1503,11.3935 -12.5593,12.4105l-2.03632 -9.89104c2.63399,-0.185442 4.71519,-2.37649 4.71519,-5.05182 0,-0.088587 -0.00236232,-0.177174 -0.00708696,-0.265761z" />
    <path
   id="_306779200"
   class="fil46"
   d="M21.3731 15.5051l9.75166 3.23992c-1.27802,5.90462 -6.01093,10.5277 -11.9841,11.6592l-2.29381 -9.82962c2.5454,-0.274029 4.52739,-2.42492 4.52739,-5.03529l-0.00118116 -0.0342537z" />
    <path
   id="_306798088"
   class="fil47"
   d="M21.3696 15.7449l9.59102 3.68168c-1.44456,5.43216 -5.84202,9.66426 -11.3734,10.8856l-2.55131 -9.76111c2.38713,-0.348442 4.23564,-2.35287 4.33368,-4.80614z" />
    <path
   id="_306796312"
   class="fil48"
   d="M21.3542 15.9906l9.40676 4.12107c-1.57449,4.95733 -5.63886,8.81028 -10.7285,10.0966l-2.80644 -9.68906c2.21586,-0.409863 3.92618,-2.25365 4.12816,-4.52857z" />
    <path
   id="_306779968"
   class="fil49"
   d="M21.3259 16.241l9.20006 4.55455c-1.66662,4.48487 -5.40263,7.96693 -10.0517,9.29337l-3.05802 -9.60874c2.04105,-0.45829 3.61789,-2.14381 3.90964,-4.23919z" />
   </g>
   <path
   id="_306776152"
   class="fil50"
   d="M21.2833 16.4937l8.9721 4.97859c-1.71977,4.01713 -5.13096,7.14248 -9.3418,8.48309l-3.30725 -9.52133c1.86741,-0.497269 3.31197,-2.02805 3.67695,-3.94035z" />
  </g>
  <g
   id="_306789736">
   <path
   id="_306775648"
   class="fil51"
   d="M11.5683 13.6826l-8.04607 -6.31094c1.9312,-2.99779 4.89591,-5.27152 8.39096,-6.32157l3.51986 9.49771c-1.76702,0.301196 -3.22339,1.51307 -3.86476,3.1348z" />
   <g
   id="g114">
    <path
   id="_306785344"
   class="fil52"
   d="M11.6392 13.5137l-7.91732 -6.44441c1.88986,-2.784 4.68448,-4.90654 7.9622,-5.94951l3.58482 9.45755c-1.63118,0.33545 -2.97771,1.45047 -3.62971,2.93636z" />
    <path
   id="_306774040"
   class="fil53"
   d="M11.7159 13.3471l-7.78503 -6.57788c1.83789,-2.57257 4.46361,-4.54747 7.52399,-5.57508l3.64979 9.41975c-1.49653,0.359073 -2.73675,1.3796 -3.38875,2.73321z" />
    <path
   id="_306795448"
   class="fil54"
   d="M11.7986 13.1841l-7.65038 -6.71135c1.77765,-2.36468 4.23328,-4.19312 7.07988,-5.19947l3.71475 9.38314c-1.36424,0.374428 -2.49815,1.30282 -3.14425,2.52768z" />
    <path
   id="_306798736"
   class="fil55"
   d="M11.8872 13.0235l-7.51454 -6.84128c1.70914,-2.1627 3.99587,-3.84822 6.62867,-4.82622l3.78089 9.34652c-1.23313,0.383877 -2.26428,1.22368 -2.89502,2.32098z" />
    <path
   id="_306782824"
   class="fil56"
   d="M11.9817 12.8664l-7.37517 -6.97239c1.63118,-1.96309 3.749,-3.50923 6.1692,-4.45298l3.84586 9.31463c-1.10202,0.383877 -2.03278,1.13746 -2.63989,2.11073z" />
    <path
   id="_306780952"
   class="fil57"
   d="M12.0809 12.7128l-7.23461 -7.10114c1.54496,-1.76938 3.49387,-3.17732 5.70501,-4.07973l3.912 9.28156c-0.975639,0.37679 -1.80599,1.04533 -2.3824,1.89931z" />
    <path
   id="_306782176"
   class="fil58"
   d="M12.186 12.5628l-7.09169 -7.2287c1.44928,-1.58039 3.23047,-2.85368 5.23254,-3.71003l3.98051 9.25321c-0.851617,0.361435 -1.58276,0.948472 -2.12136,1.68552z" />
    <path
   id="_306783304"
   class="fil59"
   d="M12.2959 12.4175l-6.9464 -7.35509c1.34534,-1.39731 2.95881,-2.53831 4.75535,-3.3415l4.04666 9.22604c-0.728776,0.338993 -1.36424,0.845711 -1.8556,1.47054z" />
   </g>
   <path
   id="_306798496"
   class="fil60"
   d="M12.4116 12.2758l-6.79994 -7.47793c1.23431,-1.22132 2.67769,-2.23239 4.27226,-2.97534l4.11398 9.19888c-0.609479,0.308283 -1.14927,0.737044 -1.5863,1.25439z" />
  </g>
  <g
   id="_306785680">
   <path
   id="_306784912"
   class="fil51"
   d="M21.2266 16.7512l8.68862 5.45932c-1.61465,3.27181 -4.37974,5.87745 -7.76849,7.29248l-4.49195 -9.08194c1.75875,-0.486638 3.1348,-1.89458 3.57183,-3.66987z" />
   <g
   id="g127">
    <path
   id="_306796816"
   class="fil52"
   d="M21.1735 16.9508l8.54806 5.63886c-1.59102,3.00605 -4.16595,5.41326 -7.29839,6.79404l-4.58881 -9.0158c1.60756,-0.510261 2.86786,-1.79536 3.33914,-3.4171z" />
    <path
   id="_306790120"
   class="fil53"
   d="M21.1121 17.1505l8.40159 5.8184c-1.55323,2.74265 -3.93917,4.95261 -6.81648,6.29086l-4.68566 -8.95202c1.45755,-0.522073 2.60682,-1.68906 3.10055,-3.15724z" />
    <path
   id="_306777760"
   class="fil54"
   d="M21.04 17.3477l8.25277 5.99911c-1.50244,2.4828 -3.69939,4.49904 -6.32275,5.78296l-4.78252 -8.88941c1.30873,-0.524435 2.34815,-1.57685 2.8525,-2.89266z" />
    <path
   id="_306792088"
   class="fil55"
   d="M20.9609 17.5438l8.09804 6.17865c-1.43865,2.22649 -3.44663,4.05256 -5.8184,5.2727l-4.87937 -8.82799c1.16226,-0.517348 2.0942,-1.45637 2.59973,-2.62336z" />
    <path
   id="_306775744"
   class="fil56"
   d="M20.8723 17.7363l7.9374 6.35819c-1.3607,1.9749 -3.17732,3.61199 -5.30105,4.7589l-4.97623 -8.76657c1.01934,-0.499631 1.84615,-1.32999 2.33988,-2.35051z" />
    <path
   id="_306774064"
   class="fil57"
   d="M20.7754 17.9253l7.77322 6.53654c-1.26975,1.72922 -2.89621,3.18087 -4.77425,4.24391l-5.07308 -8.70515c0.878783,-0.472464 1.60283,-1.19652 2.07412,-2.0753z" />
    <path
   id="_306779296"
   class="fil58"
   d="M20.6703 18.1119l7.60313 6.71254c-1.16344,1.49062 -2.59973,2.75801 -4.23564,3.72892l-5.16994 -8.64609c0.741769,-0.437029 1.36424,-1.05478 1.80245,-1.79536z" />
    <path
   id="_306788728"
   class="fil59"
   d="M20.5581 18.2926l7.4295 6.88853c-1.04533,1.25912 -2.29145,2.34578 -3.68876,3.21394l-5.26798 -8.58822c0.61066,-0.389783 1.13155,-0.907131 1.52724,-1.51425z" />
   </g>
   <path
   id="_306782008"
   class="fil60"
   d="M20.4376 18.4698l7.24996 7.06098c-0.914218,1.03588 -1.96781,1.94537 -3.13126,2.70131l-5.36601 -8.53152c0.483095,-0.33545 0.90595,-0.751218 1.24731,-1.23077z" />
  </g>
  <path
   class="fil61"
   d="M15.9681 7.8122c4.31596,0 7.81574,3.49033 7.81574,7.79448 0,4.30415 -3.49978,7.79566 -7.81574,7.79566 -4.31596,0 -7.81574,-3.49151 -7.81574,-7.79566 0,-4.30415 3.49978,-7.79448 7.81574,-7.79448zm-0.0826812 2.98479c2.70131,0 4.89119,2.18515 4.89119,4.87819 0,2.69305 -2.18987,4.87819 -4.89119,4.87819 -2.70131,0 -4.89119,-2.18515 -4.89119,-4.87819 0,-2.69305 2.18987,-4.87819 4.89119,-4.87819z"
   id="path138" />
  <path
   class="fil62"
   d="M15.9669 10.5336c2.70131,0 4.89119,2.27255 4.89119,5.07427 0,2.80171 -2.18987,5.07427 -4.89119,5.07427 -2.70131,0 -4.89119,-2.27255 -4.89119,-5.07427 0,-2.80171 2.18987,-5.07427 4.89119,-5.07427zm0 3.14661c1.02525,0 1.85797,0.863428 1.85797,1.92765 0,1.06423 -0.832718,1.92647 -1.85797,1.92647 -1.02525,0 -1.85678,-0.862247 -1.85678,-1.92647 0,-1.06423 0.831537,-1.92765 1.85678,-1.92765z"
   id="path140" />
  <path
   class="fil63"
   d="M15.9657 13.1794c0.652001,0 1.24494,0.276392 1.67252,0.719327 0.424037,0.440573 0.686254,1.04533 0.686254,1.70914 0,0.663812 -0.263399,1.26975 -0.686254,1.70796 -0.42758,0.442935 -1.02052,0.719327 -1.67252,0.719327 -0.652001,0 -1.24494,-0.276392 -1.67252,-0.719327 -0.421674,-0.438211 -0.685073,-1.04415 -0.685073,-1.70796 0,-0.664993 0.263399,-1.27093 0.686254,-1.70914 0.426399,-0.442935 1.01934,-0.719327 1.67134,-0.719327zm0.954378 1.41149c-0.2445,-0.252768 -0.582312,-0.409863 -0.954378,-0.409863 -0.372066,0 -0.711059,0.158276 -0.953197,0.409863 -0.248044,0.256312 -0.402776,0.617747 -0.402776,1.01698 0,0.398051 0.154732,0.759486 0.401595,1.0158 0.2445,0.252768 0.582312,0.409863 0.954378,0.409863 0.372066,0 0.709877,-0.157094 0.954378,-0.409863 0.248044,-0.256312 0.402776,-0.616566 0.402776,-1.0158 0,-0.398051 -0.154732,-0.759486 -0.402776,-1.01698z"
   id="path142" />
  <path
   class="fil64"
   d="M1.02879 13.8503c0.973276,-8.22678 8.4512,-14.1113 16.7004,-13.1404 8.24804,0.969733 14.1479,8.42758 13.1758,16.6544 -0.973276,8.22678 -8.4512,14.1125 -16.6992,13.1416 -8.24922,-0.969733 -14.1503,-8.42876 -13.177,-16.6555zm1.68788 0.198435c0.862247,-7.29721 7.49564,-12.5179 14.8129,-11.6569 7.31611,0.861066 12.551,7.47675 11.6876,14.774 -0.862247,7.29721 -7.49683,12.5179 -14.8129,11.6569 -7.31729,-0.861066 -12.551,-7.47675 -11.6876,-14.774z"
   id="path144" />
  <path
   class="fil64"
   d="M1.35715 13.7818c0.972095,-8.22678 8.4512,-14.1113 16.7004,-13.1416 8.24804,0.970914 14.1479,8.42876 13.1758,16.6555 -0.973276,8.22678 -8.4512,14.1125 -16.6992,13.1416 -8.24922,-0.969733 -14.1503,-8.42876 -13.177,-16.6555zm0.383877 0.0448841c0.947291,-8.01536 8.23387,-13.7487 16.2705,-12.8026 8.03662,0.944928 13.7853,8.21143 12.838,16.2268 -0.947291,8.01536 -8.23387,13.7499 -16.2705,12.8038 -8.03662,-0.944928 -13.7865,-8.21261 -12.838,-16.228z"
   id="path146" />
  <path
   class="fil65"
   d="M15.9681 0.14292c4.32659,0 8.25159,1.73394 11.0923,4.53211 2.84069,2.79817 4.59944,6.66529 4.59944,10.9328 0,4.26635 -1.75875,8.13583 -4.59944,10.934 -2.83951,2.79699 -6.76214,4.53093 -11.0923,4.53093 -4.32895,0 -8.25395,-1.73276 -11.0946,-4.53093 -2.84069,-2.79817 -4.59944,-6.66647 -4.59944,-10.934 0,-4.26635 1.75875,-8.13465 4.60062,-10.934 2.83951,-2.79699 6.76214,-4.53093 11.0935,-4.53093zm10.38 5.23845c-2.65525,-2.61627 -6.32748,-4.23682 -10.38,-4.23682 -4.05611,0 -7.72715,1.62055 -10.3812,4.23564 -2.65643,2.61627 -4.29942,6.23417 -4.29942,10.2277 0,3.99468 1.64418,7.61258 4.29824,10.2277 2.65525,2.61627 6.32748,4.23564 10.3824,4.23564 4.05492,0 7.72597,-1.62055 10.38,-4.23564 2.65407,-2.61509 4.29824,-6.23417 4.29824,-10.2277 0,-3.9935 -1.64418,-7.6114 -4.29824,-10.2265z"
   id="path148" />
  <path
   class="fil66"
   d="M15.9681 10.0977c1.53905,0 2.93755,0.617747 3.95098,1.61465 1.01107,0.996899 1.63827,2.37531 1.63827,3.89429 0,1.51779 -0.627196,2.89739 -1.63945,3.89429 -1.01225,0.998081 -2.40957,1.61583 -3.9498,1.61583 -1.54141,0 -2.93991,-0.618928 -3.95216,-1.61583 -1.01225,-0.996899 -1.63945,-2.37413 -1.63945,-3.89429 0,-1.52015 0.627196,-2.89739 1.63945,-3.89429 1.01225,-0.995718 2.41075,-1.61465 3.95216,-1.61465zm3.23756 2.32098c-0.826812,-0.81382 -1.97372,-1.31936 -3.23756,-1.31936 -1.2662,0 -2.41311,0.505537 -3.23874,1.31936 -0.826812,0.812638 -1.33944,1.94183 -1.33944,3.18795 0,1.24612 0.512624,2.37531 1.33944,3.18795 0.825631,0.81382 1.97254,1.32054 3.23874,1.32054 1.26384,0 2.41075,-0.505537 3.23638,-1.32054 0.826812,-0.812638 1.33944,-1.94301 1.33944,-3.18795 0,-1.24494 -0.511442,-2.37413 -1.33825,-3.18795z"
   id="path150" />
  <path
   class="fil67"
   d="M18.2584 15.9468c0.0921305,0.261036 0.14292,0.53979 0.14292,0.831537 0,0.663812 -0.263399,1.26975 -0.686254,1.70796 -0.42758,0.442935 -1.02052,0.719327 -1.67252,0.719327 -0.652001,0 -1.24494,-0.276392 -1.67252,-0.719327 -0.421674,-0.438211 -0.685073,-1.04415 -0.685073,-1.70796 0,-0.0980363 0.0059058,-0.194891 0.0165362,-0.289384 0.118116,0.331906 0.304739,0.631921 0.542153,0.877602 0.305921,0.316551 0.695704,0.54924 1.13273,0.655544 0.197254,0.115754 0.424037,0.181899 0.666175,0.181899 0.350805,0 0.67208,-0.139377 0.911856,-0.367341 0.236232,-0.120478 0.450022,-0.279935 0.634283,-0.470102 0.360254,-0.374428 0.605935,-0.869334 0.669718,-1.41975z"
   id="path152" />
  <path
   class="fil68"
   d="M13.3471 29.6058l4.69157 -8.58349 -5.33176 0.232689c-0.500812,-1.44692 -1.02052,-3.82578 -1.08667,-4.02894 -0.676805,-2.07884 -0.656725,-4.12934 0.889414,-6.12314 0.721689,-0.931936 1.57094,-1.62291 2.48752,-2.10128 -2.54304,-0.526798 -5.0093,-0.903588 -5.28569,-0.943747 -0.145283,0.129928 -0.288203,0.262218 -0.428761,0.401595 -2.82179,2.80289 -3.41237,5.95895 -2.98952,9.28983 0.0815001,0.643732 0.285841,2.40012 0.496087,3.87184l-4.40573 0.915399 4.65377 4.25926c0.362616,0.0815001 0.747675,0.173631 1.15872,0.279935 0,0 3.04976,1.59457 5.15104,2.53005z"
   id="path154" />
  <path
   class="fil69"
   d="M7.5925 30.1869l3.91909 -5.43216 3.92027 -5.73808 -4.77071 0c-0.18308,-1.41975 -0.359073,-2.81825 -0.380334,-3.01668 -0.239776,-2.17452 -0.207884,-4.17658 1.71032,-5.81603 3.33914,-2.85014 7.72006,-2.09302 10.4545,0.428761 2.82061,2.59973 2.31507,8.1193 2.66115,7.9622 1.14927,-2.3635 0.82445,-7.65628 -0.562232,-9.34652 -3.35095,-4.08327 -10.0564,-5.61996 -15.1756,-2.28673 -3.33205,2.16861 -5.00812,5.08962 -5.27034,8.43703 -0.0484276,0.63074 -0.200797,2.21349 -0.294109,3.58718l-4.05138 0.0507899 3.91909 5.73808 3.92027 5.43216z"
   id="path156" />
  <g
   id="_306774544">
   <path
   id="_306788632"
   class="fil70"
   d="M5.6424 11.8695l4.71047 0c-0.161819,0.268123 -0.297652,0.540972 -0.409863,0.818544 -0.432305,1.07249 -0.500812,2.20995 -0.340174,3.38521l0 0.00708696 0.199616 1.30046 0.00236232 0.00236232 0.305921 1.63473 0.0141739 0.0826812 0.0921305 0.578769 0.601211 0 0.0673261 0.489 4.39155 0 -3.50214 4.20139 -1.23431 1.38314 -5.89872 0 -1.23431 -1.38314 -3.50096 -4.20139 3.56592 0 0.0377971 -0.489 0.72287 0 0.0472464 -0.620109c0.0803189,-1.04651 0.212609,-2.0186 0.300015,-2.8714l0 -0.00236232 0.0708696 -0.703972c0.122841,-1.27565 0.426399,-2.48871 0.990994,-3.61199z" />
   <path
   id="_306781504"
   class="fil71"
   d="M5.40735 12.3786l4.67149 0c-0.0484276,0.102761 -0.0944928,0.205522 -0.135833,0.309464 -0.432305,1.07249 -0.500812,2.20995 -0.340174,3.38521l0 0.00708696 0.199616 1.30046 0.00236232 0.00236232 0.305921 1.63473 0.0141739 0.0826812 0.0921305 0.578769 0.601211 0 0.0673261 0.489 4.39155 0 -3.50214 4.20139 -0.337812 0.379153 -7.69054 0 -0.338993 -0.379153 -3.50096 -4.20139 3.56592 0 0.0377971 -0.489 0.72287 0 0.0472464 -0.620109c0.0803189,-1.04651 0.212609,-2.0186 0.300015,-2.8714l0 -0.00236232 0.0708696 -0.703972c0.103942,-1.08549 0.340174,-2.12491 0.755943,-3.10291z" />
   <path
   id="_306781216"
   class="fil72"
   d="M5.2101 12.8853l4.6585 0c-0.363797,1.01462 -0.415768,2.08475 -0.265761,3.18795l0 0.00708696 0.199616 1.30046 0.00236232 0.00236232 0.305921 1.63473 0.0141739 0.0826812 0.0921305 0.578769 0.601211 0 0.0673261 0.489 4.39155 0 -2.97771 3.57301 -9.41503 0 -2.97771 -3.57301 3.56592 0 0.0377971 -0.489 0.72287 0 0.0472464 -0.620109c0.0803189,-1.04651 0.212609,-2.0186 0.300015,-2.8714l0 -0.00236232 0.0708696 -0.703972c0.0874059,-0.900044 0.263399,-1.7682 0.558689,-2.59619z" />
   <path
   id="_306782728"
   class="fil73"
   d="M5.04474 13.392l4.66795 0c-0.220877,0.861066 -0.235051,1.75993 -0.109848,2.68123l0 0.00708696 0.199616 1.30046 0.00236232 0.00236232 0.305921 1.63473 0.0141739 0.0826812 0.0921305 0.578769 0.601211 0 0.0673261 0.489 4.39155 0 -2.13908 2.56666 -11.0923 0 -2.13908 -2.56666 3.56592 0 0.0377971 -0.489 0.72287 0 0.0472464 -0.620109c0.0803189,-1.04651 0.212609,-2.0186 0.300015,-2.8714l0 -0.00236232 0.0708696 -0.703972c0.0696885,-0.718146 0.196073,-1.41621 0.393326,-2.08947z" />
   <path
   id="_306785872"
   class="fil74"
   d="M4.91008 13.9023l4.69629 0c-0.115754,0.703972 -0.105123,1.43039 -0.00354348,2.17097l0 0.00708696 0.199616 1.30046 0.00236232 0.00236232 0.305921 1.63473 0.0141739 0.0826812 0.0921305 0.578769 0.601211 0 0.0673261 0.489 4.39155 0 -1.30282 1.56268 -12.7648 0 -1.30282 -1.56268 3.56592 0 0.0377971 -0.489 0.72287 0 0.0472464 -0.620109c0.0803189,-1.04651 0.212609,-2.0186 0.300015,-2.8714l0 -0.00236232 0.0708696 -0.703972c0.0519711,-0.538609 0.135833,-1.06541 0.258674,-1.57921z" />
   <path
   id="_306776320"
   class="fil75"
   d="M4.8026 14.4102l4.74236 0c-0.0437029,0.543334 -0.0188986,1.09848 0.0578769,1.66307l0 0.00708696 0.199616 1.30046 0.00236232 0.00236232 0.305921 1.63473 0.0141739 0.0826812 0.0921305 0.578769 0.601211 0 0.0673261 0.489 4.39155 0 -0.463015 0.555145 -14.4456 0 -0.461834 -0.555145 3.56592 0 0.0377971 -0.489 0.72287 0 0.0472464 -0.620109c0.0803189,-1.04651 0.212609,-2.0186 0.300015,-2.8714l0 -0.00236232 0.0708696 -0.703972c0.0354348,-0.362616 0.0838624,-0.719327 0.151189,-1.07131z" />
   <path
   id="_306787384"
   class="fil76"
   d="M4.71874 14.9169l4.80496 0c-0.00236232,0.380334 0.0259855,0.765392 0.0791378,1.15636l0 0.00708696 0.199616 1.30046 0.00236232 0.00236232 0.305921 1.63473 0.0141739 0.0826812 0.0921305 0.578769 0.601211 0 0.0059058 0.0389783 -7.31729 0 0.00354348 -0.0389783 0.72287 0 0.0472464 -0.620109c0.0803189,-1.04651 0.212609,-2.0186 0.300015,-2.8714l0 -0.00236232 0.0708696 -0.703972c0.0188986,-0.190167 0.0413406,-0.377971 0.0673261,-0.564595z" />
   <path
   id="_306780040"
   class="fil77"
   d="M4.65732 15.4236l4.88056 0c0.0141739,0.214971 0.0354348,0.432305 0.0649638,0.649638l0 0.00708696 0.199616 1.30046 0.00236232 0.00236232 0.249225 1.32881 -5.74516 0c0.0803189,-0.914218 0.19371,-1.76583 0.271667,-2.52414l0 -0.00236232 0.0708696 -0.703972 0.0059058 -0.0578769z" />
  </g>
  <path
   class="fil78"
   d="M12.1045 23.0503l0.50908 -0.74295 -0.84453 -0.10158c-1.1221,1.64299 -3.06157,3.34859 -4.22737,4.9656 -1.16699,-1.61701 -3.15724,-3.22102 -4.28053,-4.86402l-0.791378 0 0.552783 0.810276 0.288203 0c1.12328,1.64418 3.11354,3.24819 4.28053,4.8652 1.16581,-1.61701 3.10527,-3.32379 4.22855,-4.96678l0.28466 0.0342537z"
   id="path167" />
  <path
   class="fil79"
   d="M7.5925 30.1869l3.91909 -5.43216 1.15281 -1.6867 -0.84453 -0.10158c-1.1221,1.64299 -3.06157,3.34977 -4.22737,4.96678 -1.16699,-1.61701 -3.15724,-3.22102 -4.28053,-4.8652l-0.791378 0 1.15163 1.6867 3.92027 5.43216z"
   id="path169" />
  <rect
   class="fil80"
   x="0.69776"
   y="18.9543"
   width="3.62364"
   height="1.02576"
   id="rect171" />
  <polygon
   class="fil80"
   points="10.2052,18.9553 15.0031,18.934 15.0031,19.9994 10.2052,20.0207 "
   id="polygon173" />
  <g
   id="_306773680">
   <path
   id="_306778144"
   class="fil81"
   d="M4.54629 15.5181l5.28806 0c0.00944928,0.159457 0.0236232,0.320094 0.0425218,0.481913 0.0212609,0.198435 0.197254,1.59693 0.380334,3.01668l5.17466 0 -0.636646 0.931936 -14.4066 0 -0.635464 -0.931936 4.50495 0c0.0897682,-1.31345 0.231507,-2.81825 0.288203,-3.4986z" />
   <path
   id="_306790552"
   class="fil82"
   d="M4.53329 15.6799l5.31286 0 0.0307102 0.320094c0.0212609,0.198435 0.197254,1.59693 0.380334,3.01668l5.17466 0 -0.418131 0.611841 -14.8436 0 -0.41695 -0.611841 4.50495 0c0.0826812,-1.21778 0.211428,-2.59855 0.27521,-3.33678z" />
   <path
   id="_306773536"
   class="fil83"
   d="M4.51912 15.8417l5.34121 0 0.0165362 0.158276c0.0212609,0.198435 0.197254,1.59693 0.380334,3.01668l5.17466 0 -0.198435 0.289384 -15.283 0 -0.197254 -0.289384 4.50495 0c0.0779566,-1.13391 0.194891,-2.40839 0.261036,-3.17496z" />
   <path
   id="_306777664"
   class="fil84"
   d="M4.50376 16.0035l5.3731 0c0.022442,0.206703 0.196073,1.57921 0.37679,2.98125l-5.99321 0c0.0720508,-1.04769 0.175993,-2.21349 0.243319,-2.98125z" />
   <path
   id="_306784096"
   class="fil85"
   d="M4.48959 16.1665l5.40617 0 0.316551 2.49934 -5.92824 0c0.0637827,-0.887052 0.146464,-1.81781 0.205522,-2.49934z" />
   <path
   id="_306784288"
   class="fil86"
   d="M4.47542 16.3284l5.44043 0 0.255131 2.01506 -5.86328 0c0.0543334,-0.715783 0.116935,-1.43865 0.167725,-2.01506z" />
   <path
   id="_306776752"
   class="fil87"
   d="M4.46124 16.4902l5.47468 0 0.19371 1.53197 -5.79714 0c0.0437029,-0.542153 0.0897682,-1.07604 0.128746,-1.53197z" />
   <polygon
   id="_306787696"
   class="fil88"
   points="4.44825,16.652 9.95718,16.652 10.0895,17.7021 4.35848,17.7021 " />
  </g>
  <path
   class="fil89"
   d="M7.5925 29.3365l3.50805 -4.86166 -0.00118116 -0.00118116 3.38639 -5.48649 -3.8246 0 -0.438211 0 -0.0566957 -0.438211 -0.246863 -1.93238 -0.00118116 -0.00236232 -0.133471 -1.08431 0 -0.0059058c-0.125203,-1.13037 -0.177174,-1.69497 0.0555145,-2.74029 0.238594,-1.07604 0.776022,-2.0812 1.82607,-2.97889 1.68552,-1.43747 3.62262,-2.01388 5.50303,-1.9371 2.08002,0.0850436 4.09154,0.973276 5.61406,2.37768 1.61819,1.49181 2.20877,3.82578 2.46508,5.64358 0.0649638,-0.706334 0.0744131,-1.4611 0.029529,-2.20286 -0.103942,-1.73867 -0.493725,-3.38048 -1.11856,-4.14115 -1.65244,-2.01388 -4.17068,-3.38284 -6.89443,-3.79153 -2.54186,-0.382696 -5.26443,0.0696885 -7.62439,1.60638 -1.56858,1.02052 -2.75565,2.21468 -3.58246,3.53876 -0.856341,1.37015 -1.33471,2.36114 -1.4611,3.98642l0 0.00472464 -0.0779566 0.909494 0 0.00118116c-0.0673261,0.771298 -0.157094,1.79773 -0.216152,2.66824l-0.0307102 0.459471 -0.461834 0.0059058 -3.12063 0.0389783 3.39466 5.50066 -0.00118116 0.00118116 3.50923 4.86166zm4.32305 -4.29116l-3.91909 5.43216 -0.402776 0.558689 -0.405138 -0.558689 -3.92027 -5.43216 -0.00826812 -0.00944928 -3.91909 -6.26842 -0.524435 -0.768935 0.930754 -0.0106304 3.59191 -0.0448841c0.059058,-0.806733 0.129928,-1.6052 0.18308,-2.22767l0.0779566 -0.908312c0.140558,-1.78355 0.666175,-2.92455 1.60992,-4.43526 0.902407,-1.44574 2.19105,-2.74502 3.8872,-3.84822 2.58084,-1.68079 5.54909,-2.17688 8.31655,-1.75993 2.95999,0.445298 5.70501,1.94183 7.51572,4.14824 0.76303,0.928392 1.23077,2.7899 1.34534,4.71519 0.114573,1.90167 -0.107486,3.90728 -0.719327,5.16521l-0.236232 0.23387c-0.333087,0.157094 -0.571682,0.0543334 -0.725233,-0.285841 -0.0862247,-0.191348 -0.120478,-0.558689 -0.163,-1.07486 -0.133471,-1.60402 -0.413406,-4.92426 -2.32334,-6.68537 -1.35479,-1.24967 -3.13952,-2.04105 -4.97859,-2.11546 -1.64063,-0.066145 -3.33678,0.439392 -4.81323,1.69851 -0.866972,0.740588 -1.30873,1.56268 -1.50244,2.43555 -0.20316,0.908312 -0.151189,1.37251 -0.0377971,2.41075l0.00118116 0 0.133471 1.08431 -0.00118116 0 0.191348 1.49181 4.33132 0 0.94611 0 -0.533885 0.781928 -3.92027 6.26842 -0.00826812 0.00944928z"
   id="path184" />
  <g
   id="_306785368">
   <path
   id="_306776488"
   class="fil51"
   d="M21.3365 17.1741l8.12638 5.10498c-1.5107,3.06039 -4.09626,5.49712 -7.26532,6.8212l-4.20257 -8.49491c1.64536,-0.454747 2.93282,-1.77174 3.3415,-3.43127z" />
   <g
   id="g188">
    <path
   id="_306798112"
   class="fil52"
   d="M21.2869 17.3607l7.99409 5.2727c-1.48708,2.81116 -3.89665,5.06245 -6.82593,6.35464l-4.29116 -8.4323c1.50362,-0.476008 2.68242,-1.67961 3.12299,-3.19504z" />
    <path
   id="_306797656"
   class="fil53"
   d="M21.229 17.5473l7.85826 5.44161c-1.45283,2.5643 -3.68522,4.63133 -6.3759,5.88336l-4.38211 -8.37325c1.36306,-0.487819 2.43792,-1.57921 2.89975,-2.95172z" />
    <path
   id="_306772672"
   class="fil54"
   d="M21.1617 17.7316l7.71888 5.61051c-1.40558,2.32216 -3.4608,4.20729 -5.91407,5.40853l-4.47305 -8.31301c1.22486,-0.491363 2.19578,-1.47527 2.66824,-2.70604z" />
    <path
   id="_306778240"
   class="fil55"
   d="M21.0873 17.9147l7.5736 5.77824c-1.34534,2.08239 -3.22339,3.79034 -5.44161,4.93135l-4.56282 -8.25631c1.08667,-0.483095 1.95836,-1.36188 2.43083,-2.45327z" />
    <path
   id="_306774784"
   class="fil56"
   d="M21.0046 18.0954l7.42359 5.94596c-1.27211,1.84734 -2.9718,3.37812 -4.95733,4.45061l-4.65377 -8.19843c0.953197,-0.46774 1.72568,-1.24376 2.18751,-2.19814z" />
    <path
   id="_306780976"
   class="fil57"
   d="M20.9148 18.2726l7.26886 6.11251c-1.18707,1.61701 -2.7084,2.97416 -4.46479,3.9687l-4.74472 -8.14174c0.822088,-0.441754 1.49889,-1.11856 1.94065,-1.93947z" />
    <path
   id="_306797824"
   class="fil58"
   d="M20.8156 18.4462l7.11177 6.27787c-1.08903,1.39377 -2.43201,2.57965 -3.96161,3.48679l-4.83567 -8.08622c0.694522,-0.4075 1.27565,-0.986269 1.68552,-1.67843z" />
    <path
   id="_306787768"
   class="fil59"
   d="M20.7105 18.6151l6.94877 6.44323c-0.978001,1.17644 -2.14381,2.19342 -3.45017,3.00487l-4.92662 -8.03189c0.570501,-0.364979 1.0595,-0.848073 1.42802,-1.41621z" />
   </g>
   <path
   id="_306773800"
   class="fil60"
   d="M20.5983 18.7816l6.77986 6.60269c-0.853979,0.968552 -1.84025,1.82017 -2.9281,2.5265l-5.01875 -7.97874c0.452384,-0.314189 0.848073,-0.70279 1.16699,-1.15045z" />
  </g>
  <path
   class="fil90"
   d="M17.7517 19.6392l11.2884 0c0.570501,0 1.03824,0.387421 1.03824,0.861066l0 9.35007c0,0.473645 -0.46774,0.859885 -1.03824,0.859885l-11.2884 0c-0.571682,0 -1.03942,-0.386239 -1.03942,-0.859885l0 -9.35007c0,-0.473645 0.46774,-0.861066 1.03942,-0.861066z"
   id="path199" />
  <path
   class="fil91"
   d="M18.0718 17.056l11.8766 -0.157094c0.558689,0 1.06777,0.229145 1.43629,0.597667l0.00472464 0.00472464c0.368522,0.368522 0.597667,0.755943 0.597667,1.31345l0 11.2884c0,0.563414 -0.229145,1.07249 -0.597667,1.44102 -0.367341,0.367341 -0.878783,0.596486 -1.44102,0.596486l-11.8766 0.157094c-0.562232,0 -1.07367,-0.229145 -1.44102,-0.596486l0 -0.00472464c-0.36616,-0.368522 -0.596486,-0.877602 -0.596486,-1.43629l0 -11.2884c0,-0.557508 0.230326,-0.94611 0.596486,-1.31463l0 -0.00472464c0.367341,-0.367341 0.878783,-0.596486 1.44102,-0.596486zm11.8766 1.71859l-11.8766 0.157094c-0.00826812,0 -0.0188986,0.0059058 -0.0259855,0.0129928l-0.00236232 -0.00236232c-0.0059058,0.00708696 -0.0106304,0.0188986 -0.0106304,0.029529l0 11.2884c0,0.00944928 0.00354348,0.0200797 0.0106304,0.0283479l0.00236232 -0.00236232c0.00708696,0.00708696 0.0177174,0.0129928 0.0259855,0.0129928l11.8766 -0.157094c0.00826812,0 0.0188986,-0.0059058 0.0259855,-0.0129928l0.0141739 -0.0259855 0 -11.2884c0,-0.0106304 -0.00472464,-0.0212609 -0.00944928,-0.0259855l-0.00472464 -0.00472464c-0.00472464,-0.00472464 -0.0153551,-0.00944928 -0.0259855,-0.00944928z"
   id="path201" />
  <path
   class="fil92"
   d="M18.0718 18.1781l11.8766 -0.157094c0.571682,-0.00708696 1.03942,0.470102 1.03942,1.03942l0 11.0427c0,0.568138 -0.470102,1.03233 -1.03942,1.03824l-11.8766 0.157094c-0.569319,0.0059058 -1.03824,-0.46774 -1.03824,-1.03824l0 -11.0427c0,-0.571682 0.466558,-1.03233 1.03824,-1.03942z"
   id="path203" />
  <path
   class="fil93"
   d="M18.0718 18.3422l11.8766 -0.157094c0.571682,-0.00708696 1.03942,0.468921 1.03942,1.03824l0 10.8785c0,0.570501 -0.470102,1.03352 -1.03942,1.03942l-11.8766 0.157094c-0.569319,0.0059058 -1.03824,-0.46774 -1.03824,-1.03942l0 -10.8785c0,-0.571682 0.46774,-1.03115 1.03824,-1.03824zm11.8766 0.83508l-11.8766 0.157094c-0.0129928,0 -0.0248044,0.0059058 -0.0330725,0.0129928l0.00118116 0.00118116c-0.00708696,0.00826812 -0.0141739,0.0212609 -0.0141739,0.0318913l0 10.8785c0,0.0118116 0.00708696,0.0248044 0.0141739,0.0330725l-0.00118116 0.00118116c0.00826812,0.00708696 0.0200797,0.0118116 0.0330725,0.0118116l11.8766 -0.157094c0.0129928,0 0.0248044,-0.00472464 0.0330725,-0.0118116l-0.00118116 -0.00118116c0.00708696,-0.00826812 0.0141739,-0.0212609 0.0141739,-0.0330725l0 -10.8785c0,-0.0106304 -0.00708696,-0.0236232 -0.0141739,-0.0318913l0.00118116 -0.00118116c-0.00826812,-0.00708696 -0.0200797,-0.0129928 -0.0330725,-0.0129928z"
   id="path205" />
  <path
   class="fil94"
   d="M18.1745 18.0198l11.6947 0c0.591761,0 1.07722,0.440573 1.07722,0.979182l0 0.999262c-0.0153551,-0.526798 -0.496087,-1.03233 -1.07722,-1.0347l-11.7041 -0.0307102c-0.582312,-0.00118116 -1.05123,0.538609 -1.06659,1.06541l0 -0.999262c0,-0.538609 0.484276,-0.979182 1.07604,-0.979182z"
   id="path207" />
  <path
   class="fil95"
   d="M17.4753 24.4689c0,-0.379153 0.0389783,-0.745312 0.113391,-1.09139l0.00472464 -0.00118116c0.0779566,-0.359073 0.19371,-0.695704 0.34608,-1.01107 0.15237,-0.316551 0.338993,-0.604754 0.551602,-0.856341l0 0c0.219696,-0.261036 0.466558,-0.479551 0.734682,-0.650819 0.269305,-0.173631 0.55987,-0.303558 0.863428,-0.390964 0.302377,-0.0862247 0.620109,-0.129928 0.948472,-0.129928 0.551602,0 1.0536,0.113391 1.50598,0.338993l0.00118116 -0.00118116c0.451203,0.223239 0.838624,0.558689 1.16108,1.00044l0.00354348 0.00236232c0.133471,0.184261 0.252768,0.377971 0.357892,0.576406 0.022442,-0.0803189 0.0496087,-0.159457 0.0815001,-0.237413l0.00236232 -0.00236232c0.138196,-0.34608 0.344899,-0.653182 0.618928,-0.911856l0.00236232 0c0.281116,-0.265761 0.616566,-0.461834 1.00044,-0.588218l0.00354348 0c0.359073,-0.116935 0.767754,-0.177174 1.21778,-0.177174 0.419312,0 0.798464,0.0437029 1.12801,0.127565 0.363797,0.0921305 0.68153,0.240957 0.947291,0.437029l0.00236232 0.00354348c0.266942,0.199616 0.492544,0.457109 0.67208,0.766573 0.165362,0.283479 0.29529,0.617747 0.387421,0.999262l0.175993 0.729957 -0.733501 0.166544 -0.328363 0.073232c0.187805,0.124022 0.349624,0.259855 0.479551,0.406319l0.00354348 0.00354348c0.206703,0.232689 0.364979,0.50908 0.466558,0.819725l0.00354348 0c0.0968552,0.288203 0.14292,0.608298 0.14292,0.955559 0,0.414587 -0.0744131,0.805551 -0.222058,1.16344l0 0.00354348c-0.138196,0.333087 -0.341355,0.635464 -0.605935,0.900044l-0.0118116 -0.0425218 -2.16389 -0.175993 -1.82844 0.79374c-0.211428,-0.0980363 -0.408682,-0.218515 -0.59058,-0.359073 -0.296471,-0.232689 -0.545696,-0.520892 -0.741769,-0.858704 -0.0578769,-0.100399 -0.111029,-0.204341 -0.158276,-0.311826 -0.128746,0.237413 -0.272848,0.452384 -0.431124,0.644914 -0.217334,0.262218 -0.465377,0.485457 -0.741769,0.666175l0.00118116 0.00118116c-0.0637827,0.0413406 -0.126384,0.0815001 -0.191348,0.118116l-0.758305 -0.869334 -1.34534 0 -1.13982 0.884689c-0.350805,-0.192529 -0.668537,-0.453566 -0.950834,-0.779566 -0.33545,-0.389783 -0.588218,-0.85516 -0.751218,-1.39613l-0.00354348 -0.00354348c-0.15237,-0.510261 -0.231507,-1.09021 -0.231507,-1.73631zm1.52842 -0.582312c-0.029529,0.181899 -0.0437029,0.370884 -0.0448841,0.566957 0.00354348,-0.200797 0.0188986,-0.389783 0.0448841,-0.566957zm4.11634 0.640189c0,-0.187805 -0.0129928,-0.370884 -0.036616,-0.545696 0.0212609,0.181899 0.0330725,0.372066 0.0330725,0.569319 0,0.102761 -0.00236232,0.201978 -0.00826812,0.300015m1.48118 0.0803189c-0.00708696,0.100399 -0.0165362,0.200797 -0.0283479,0.300015l0.279935 -0.0531522 -0.0377971 -0.0307102 0 -0.00354348c-0.0755943,-0.0673261 -0.147645,-0.137015 -0.21379,-0.212609zm-5.18175 1.47409c0.036616,0.0578769 0.0779566,0.114573 0.120478,0.167725l-0.022442 -0.029529 -0.0980363 -0.138196zm1.03352 -1.84143c0,0.50908 0.0803189,0.870515 0.240957,1.08076 0.0673261,0.0874059 0.134652,0.151189 0.198435,0.185442l-0.00118116 0.00118116c0.0484276,0.0236232 0.106304,0.0377971 0.170087,0.0377971 0.116935,0 0.229145,-0.0744131 0.340174,-0.223239 0.073232,-0.0968552 0.131109,-0.223239 0.170087,-0.379153l-0.00118116 -0.00118116c0.0484276,-0.196073 0.0744131,-0.435848 0.0744131,-0.714602 0,-0.269305 -0.0259855,-0.497269 -0.073232,-0.682711l-0.00118116 0c-0.0401595,-0.157094 -0.0992175,-0.287022 -0.171268,-0.382696l0.00118116 0c-0.0685073,-0.088587 -0.135833,-0.15237 -0.197254,-0.188986 -0.0448841,-0.0236232 -0.100399,-0.036616 -0.160638,-0.036616 -0.118116,0 -0.236232,0.0755943 -0.34608,0.223239 -0.0708696,0.0933117 -0.128746,0.223239 -0.168906,0.381515l0.00118116 0c-0.0496087,0.194891 -0.0755943,0.42758 -0.0755943,0.699247zm8.38033 1.07013c0.0141739,0.0460653 0.0271667,0.0921305 0.036616,0.140558 -0.00354348,-0.165362 -0.0271667,-0.313008 -0.0685073,-0.439392l0.00354348 -0.00118116c-0.0389783,-0.115754 -0.0980363,-0.217334 -0.173631,-0.303558l0.00118116 0c-0.0791378,-0.0850436 -0.214971,-0.179536 -0.405138,-0.274029l0 -0.00236232c-0.229145,-0.115754 -0.526798,-0.22442 -0.883508,-0.323638 -0.381515,-0.105123 -0.685073,-0.199616 -0.909494,-0.277573l-0.00236232 0c-0.269305,-0.0933117 -0.471283,-0.188986 -0.60003,-0.279935l-0.00118116 0.00118116c-0.141739,-0.0980363 -0.255131,-0.216152 -0.341355,-0.349624 0.0118116,0.0531522 0.0283479,0.103942 0.0484276,0.151189 0.0566957,0.135833 0.14292,0.257493 0.256312,0.359073l0.00118116 -0.00236232c0.0980363,0.0850436 0.29529,0.190167 0.594124,0.307102 0.354348,0.139377 0.81382,0.285841 1.37133,0.431124 0.158276,0.0425218 0.301196,0.0933117 0.419312,0.148826l0 0.00118116c0.160638,0.0755943 0.29529,0.168906 0.39687,0.27521l0.0118116 0.0141739c0.11221,0.122841 0.194891,0.266942 0.2445,0.420493l0 0.00354348z"
   id="path209" />
  <path
   class="fil67"
   d="M18.217 24.4689c0,-0.650819 0.129928,-1.24612 0.389783,-1.78237 0.259855,-0.535066 0.597667,-0.93666 1.01816,-1.20478 0.41695,-0.266942 0.889414,-0.402776 1.41267,-0.402776 0.878783,0 1.56858,0.344899 2.07176,1.03352 0.501993,0.689798 0.752399,1.49299 0.752399,2.41429 0,0.686254 -0.131109,1.30636 -0.392145,1.85797 -0.261036,0.553964 -0.604754,0.969733 -1.02879,1.24494 -0.426399,0.278754 -0.891776,0.419312 -1.39731,0.419312 -0.811457,0 -1.48708,-0.309464 -2.02215,-0.928392 -0.536247,-0.620109 -0.80437,-1.50244 -0.80437,-2.65171zm1.48236 0.0944928c0,0.675624 0.131109,1.18589 0.394508,1.53078 0.26458,0.344899 0.583493,0.516167 0.955559,0.516167 0.364979,0 0.675624,-0.173631 0.935479,-0.520892 0.258674,-0.347261 0.389783,-0.858704 0.389783,-1.53905 0,-0.660269 -0.133471,-1.16344 -0.39687,-1.51189 -0.263399,-0.347261 -0.577587,-0.520892 -0.947291,-0.520892 -0.363797,0 -0.676805,0.173631 -0.937841,0.520892 -0.262218,0.348442 -0.393326,0.856341 -0.393326,1.52488zm4.79079 1.43275l1.45047 -0.270486c0.126384,0.698066 0.513805,1.05005 1.16817,1.05005 0.347261,0 0.605935,-0.0685073 0.777204,-0.200797 0.172449,-0.135833 0.257493,-0.309464 0.257493,-0.520892 0,-0.148826 -0.036616,-0.262218 -0.111029,-0.34608 -0.0826812,-0.0862247 -0.238594,-0.158276 -0.472464,-0.220877 -1.18825,-0.313008 -1.94301,-0.613022 -2.26665,-0.897682 -0.401595,-0.355529 -0.602392,-0.84453 -0.602392,-1.46346 0,-0.620109 0.197254,-1.11383 0.589399,-1.48708 0.394508,-0.373247 0.966189,-0.55987 1.71386,-0.55987 0.716964,0 1.2603,0.140558 1.63354,0.418131 0.373247,0.278754 0.634283,0.728776 0.784291,1.34889l-1.36306 0.305921c-0.119297,-0.536247 -0.463015,-0.803189 -1.02761,-0.803189 -0.35671,0 -0.609479,0.0507899 -0.761849,0.153551 -0.150007,0.102761 -0.225602,0.235051 -0.225602,0.398051 0,0.146464 0.0685073,0.268123 0.207884,0.364979 0.138196,0.100399 0.566957,0.250406 1.28628,0.451203 0.807914,0.225602 1.35715,0.500812 1.64654,0.823269 0.28466,0.322457 0.426399,0.750037 0.426399,1.28628 0,0.644914 -0.220877,1.17644 -0.662631,1.59457 -0.440573,0.420493 -1.05241,0.628377 -1.82962,0.628377 -0.707515,0 -1.28628,-0.173631 -1.73394,-0.523254 -0.44766,-0.349624 -0.741769,-0.858704 -0.884689,-1.5296z"
   id="path211" />
 </g>
</svg>