<?xml version="1.0" encoding="UTF-8"?>
<!DOCTYPE svg PUBLIC "-//W3C//DTD SVG 1.1//EN" "http://www.w3.org/Graphics/SVG/1.1/DTD/svg11.dtd">
<!-- Creator: CorelDRAW -->
<svg xmlns="http://www.w3.org/2000/svg" xml:space="preserve" width="32px" height="32px" style="shape-rendering:geometricPrecision; text-rendering:geometricPrecision; image-rendering:optimizeQuality; fill-rule:evenodd; clip-rule:evenodd"
viewBox="0 0 32 32"
 xmlns:xlink="http://www.w3.org/1999/xlink">
 <defs>
  <style type="text/css">
   <![CDATA[
    .fil97 {fill:none}
    .fil117 {fill:#4C4C4C}
    .fil105 {fill:#663300}
    .fil111 {fill:#666666}
    .fil110 {fill:#B2B2B2}
    .fil107 {fill:#E5E5E5}
    .fil108 {fill:white}
    .fil100 {fill:#743F0D}
    .fil91 {fill:#9D6123}
    .fil109 {fill:#666666;fill-rule:nonzero}
    .fil112 {fill:#7F7F7F;fill-rule:nonzero}
    .fil118 {fill:white;fill-rule:nonzero}
    .fil103 {fill:#9E6125;fill-rule:nonzero}
    .fil104 {fill:#BA792F;fill-rule:nonzero}
    .fil89 {fill:#E0F3FF;fill-rule:nonzero}
    .fil102 {fill:#F7C266;fill-rule:nonzero}
    .fil0 {fill:black;fill-opacity:0.000000}
    .fil81 {fill:#5993C2;fill-opacity:0.000000}
    .fil1 {fill:black;fill-opacity:0.003922}
    .fil2 {fill:black;fill-opacity:0.007843}
    .fil3 {fill:black;fill-opacity:0.015686}
    .fil79 {fill:#6AA3DF;fill-opacity:0.015686}
    .fil47 {fill:#B5E2FF;fill-opacity:0.015686}
    .fil4 {fill:black;fill-opacity:0.019608}
    .fil5 {fill:black;fill-opacity:0.023529}
    .fil82 {fill:#5790BF;fill-opacity:0.023529}
    .fil6 {fill:black;fill-opacity:0.027451}
    .fil78 {fill:#6AA3DF;fill-opacity:0.031373}
    .fil46 {fill:#B5E2FF;fill-opacity:0.031373}
    .fil7 {fill:black;fill-opacity:0.031373}
    .fil8 {fill:black;fill-opacity:0.035294}
    .fil9 {fill:black;fill-opacity:0.043137}
    .fil77 {fill:#6AA3DF;fill-opacity:0.047059}
    .fil45 {fill:#B5E2FF;fill-opacity:0.047059}
    .fil10 {fill:black;fill-opacity:0.047059}
    .fil83 {fill:#558DBB;fill-opacity:0.047059}
    .fil11 {fill:black;fill-opacity:0.050980}
    .fil12 {fill:black;fill-opacity:0.054902}
    .fil13 {fill:black;fill-opacity:0.058824}
    .fil76 {fill:#6AA3DF;fill-opacity:0.058824}
    .fil44 {fill:#B5E2FF;fill-opacity:0.058824}
    .fil84 {fill:#538AB7;fill-opacity:0.074510}
    .fil75 {fill:#6AA3DF;fill-opacity:0.074510}
    .fil43 {fill:#B5E2FF;fill-opacity:0.074510}
    .fil74 {fill:#6AA3DF;fill-opacity:0.090196}
    .fil42 {fill:#B5E2FF;fill-opacity:0.090196}
    .fil85 {fill:#5187B4;fill-opacity:0.098039}
    .fil73 {fill:#6AA3DF;fill-opacity:0.105882}
    .fil41 {fill:#B5E2FF;fill-opacity:0.105882}
    .fil101 {fill:#AF6715;fill-opacity:0.121569}
    .fil72 {fill:#6AA3DF;fill-opacity:0.121569}
    .fil40 {fill:#B5E2FF;fill-opacity:0.121569}
    .fil86 {fill:#4F84B0;fill-opacity:0.121569}
    .fil71 {fill:#6AA3DF;fill-opacity:0.137255}
    .fil39 {fill:#B5E2FF;fill-opacity:0.137255}
    .fil87 {fill:#4D81AC;fill-opacity:0.145098}
    .fil70 {fill:#6AA3DF;fill-opacity:0.152941}
    .fil38 {fill:#B5E2FF;fill-opacity:0.152941}
    .fil69 {fill:#6AA3DF;fill-opacity:0.164706}
    .fil37 {fill:#B5E2FF;fill-opacity:0.164706}
    .fil88 {fill:#4B7EA9;fill-opacity:0.172549}
    .fil68 {fill:#6AA3DF;fill-opacity:0.180392}
    .fil36 {fill:#B5E2FF;fill-opacity:0.180392}
    .fil67 {fill:#6AA3DF;fill-opacity:0.196078}
    .fil35 {fill:#B5E2FF;fill-opacity:0.196078}
    .fil66 {fill:#6AA3DF;fill-opacity:0.211765}
    .fil34 {fill:#B5E2FF;fill-opacity:0.211765}
    .fil65 {fill:#6AA3DF;fill-opacity:0.227451}
    .fil33 {fill:#B5E2FF;fill-opacity:0.227451}
    .fil64 {fill:#6AA3DF;fill-opacity:0.243137}
    .fil32 {fill:#B5E2FF;fill-opacity:0.243137}
    .fil63 {fill:#6AA3DF;fill-opacity:0.258824}
    .fil31 {fill:#B5E2FF;fill-opacity:0.258824}
    .fil62 {fill:#6AA3DF;fill-opacity:0.274510}
    .fil30 {fill:#B5E2FF;fill-opacity:0.274510}
    .fil61 {fill:#6AA3DF;fill-opacity:0.286275}
    .fil29 {fill:#B5E2FF;fill-opacity:0.286275}
    .fil60 {fill:#6AA3DF;fill-opacity:0.301961}
    .fil28 {fill:#B5E2FF;fill-opacity:0.301961}
    .fil59 {fill:#6AA3DF;fill-opacity:0.317647}
    .fil27 {fill:#B5E2FF;fill-opacity:0.317647}
    .fil58 {fill:#6AA3DF;fill-opacity:0.333333}
    .fil26 {fill:#B5E2FF;fill-opacity:0.333333}
    .fil57 {fill:#6AA3DF;fill-opacity:0.349020}
    .fil25 {fill:#B5E2FF;fill-opacity:0.349020}
    .fil56 {fill:#6AA3DF;fill-opacity:0.364706}
    .fil24 {fill:#B5E2FF;fill-opacity:0.364706}
    .fil55 {fill:#6AA3DF;fill-opacity:0.380392}
    .fil23 {fill:#B5E2FF;fill-opacity:0.380392}
    .fil54 {fill:#6AA3DF;fill-opacity:0.392157}
    .fil22 {fill:#B5E2FF;fill-opacity:0.392157}
    .fil53 {fill:#6AA3DF;fill-opacity:0.407843}
    .fil21 {fill:#B5E2FF;fill-opacity:0.407843}
    .fil52 {fill:#6AA3DF;fill-opacity:0.423529}
    .fil20 {fill:#B5E2FF;fill-opacity:0.423529}
    .fil51 {fill:#6AA3DF;fill-opacity:0.439216}
    .fil19 {fill:#B5E2FF;fill-opacity:0.439216}
    .fil99 {fill:#422306;fill-opacity:0.439216}
    .fil95 {fill:#B67429;fill-opacity:0.439216}
    .fil93 {fill:#F7C266;fill-opacity:0.439216}
    .fil80 {fill:#DBF1FF;fill-rule:nonzero;fill-opacity:0.439216}
    .fil94 {fill:#F7C266;fill-rule:nonzero;fill-opacity:0.439216}
    .fil50 {fill:#6AA3DF;fill-opacity:0.454902}
    .fil18 {fill:#B5E2FF;fill-opacity:0.454902}
    .fil49 {fill:#6AA3DF;fill-opacity:0.470588}
    .fil17 {fill:#B5E2FF;fill-opacity:0.470588}
    .fil48 {fill:#6AA3DF;fill-opacity:0.486275}
    .fil16 {fill:#B5E2FF;fill-opacity:0.486275}
    .fil116 {fill:#7F7F7F;fill-opacity:0.501961}
    .fil98 {fill:#542D08;fill-rule:nonzero;fill-opacity:0.501961}
    .fil114 {fill:#422306;fill-opacity:0.678431}
    .fil14 {fill:#A3D6FF;fill-opacity:0.780392}
    .fil106 {fill:url(#id2)}
    .fil113 {fill:url(#id3)}
    .fil92 {fill:url(#id4)}
    .fil115 {fill:url(#id5);fill-rule:nonzero}
    .fil119 {fill:url(#id6);fill-rule:nonzero}
    .fil90 {fill:url(#id7);fill-rule:nonzero}
    .fil96 {fill:url(#id8);fill-opacity:0.780392}
    .fil15 {fill:url(#id9);fill-opacity:0.921569}
   ]]>
  </style>
   <mask id="id0">
  <linearGradient id="id1" gradientUnits="userSpaceOnUse" x1="16.0461" y1="19.9982" x2="16.013" y2="16.7288">
   <stop offset="0" style="stop-opacity:1; stop-color:white"/>
   <stop offset="1" style="stop-opacity:0; stop-color:white"/>
  </linearGradient>
    <rect style="fill:url(#id1)" x="14.0133" y="15.2878" width="4.03248" height="6.15148"/>
   </mask>
  <linearGradient id="id2" gradientUnits="userSpaceOnUse" x1="16.4429" y1="25.6087" x2="16.4429" y2="26.445">
   <stop offset="0" style="stop-color:#B2B2B2"/>
   <stop offset="1" style="stop-color:#7F7F7F"/>
  </linearGradient>
  <linearGradient id="id3" gradientUnits="userSpaceOnUse" x1="15.889" y1="14.4326" x2="15.9799" y2="19.1525">
   <stop offset="0" style="stop-color:#F2F2F2"/>
   <stop offset="1" style="stop-color:#7F7F7F"/>
  </linearGradient>
  <linearGradient id="id4" gradientUnits="userSpaceOnUse" x1="15.9445" y1="15.6256" x2="15.9445" y2="27.2801">
   <stop offset="0" style="stop-color:#E69D45"/>
   <stop offset="1" style="stop-color:#D49242"/>
  </linearGradient>
  <linearGradient id="id5" gradientUnits="userSpaceOnUse" x1="15.5984" y1="26.9375" x2="16.3354" y2="17.5544">
   <stop offset="0" style="stop-color:#7F7F7F"/>
   <stop offset="1" style="stop-color:#999999"/>
  </linearGradient>
  <linearGradient id="id6" gradientUnits="userSpaceOnUse" xlink:href="#id5" x1="15.7957" y1="20.9443" x2="16.2138" y2="15.5134">
  </linearGradient>
  <linearGradient id="id7" gradientUnits="userSpaceOnUse" x1="16.0697" y1="16.9437" x2="16.0697" y2="4.24391">
   <stop offset="0" style="stop-color:#3C73AD"/>
   <stop offset="1" style="stop-color:#5C93C8"/>
  </linearGradient>
  <linearGradient id="id8" gradientUnits="userSpaceOnUse" x1="17.2993" y1="14.2649" x2="17.2993" y2="29.2633">
   <stop offset="0" style="stop-color:#8C551E"/>
   <stop offset="1" style="stop-color:#804716"/>
  </linearGradient>
  <linearGradient id="id9" gradientUnits="userSpaceOnUse" x1="14.807" y1="15.6208" x2="14.3228" y2="5.79595">
   <stop offset="0" style="stop-color:#73B2E6"/>
   <stop offset="1" style="stop-color:#83C3F9"/>
  </linearGradient>
 </defs>
 <g id="Слой_x0020_1">
  <metadata id="CorelCorpID_0Corel-Layer"/>
  <g id="_92788192">
   <path id="_90217880" class="fil0" d="M15.3752 27.0285c10.2241,-0.442935 14.057,0.668537 15.4224,2.04459l0 2.41902c-2.02805,0.772479 -8.18072,0.10158 -14.8933,0.372066l-2.14617 0.0850436 -11.1005 0c-0.595305,-0.0767754 -1.07249,-0.181899 -1.4044,-0.320094l0 -2.02097c1.10911,-1.08903 4.401,-2.1568 14.122,-2.57965z"/>
   <g>
    <path id="_92285408" class="fil1" d="M15.4094 27.2624c10.2855,-0.428761 14.1149,0.757124 15.3882,2.14499l0 2.01506c-1.86269,0.800827 -8.1004,0.146464 -14.8779,0.401595l-3.423 0.125203 -9.24022 0c-0.910675,-0.0826812 -1.59693,-0.211428 -2.00325,-0.403957l0 -1.62173c0.983907,-1.10793 4.16477,-2.24302 14.1562,-2.66115z"/>
    <path id="_92026664" class="fil2" d="M15.4413 27.4998c10.3411,-0.414587 14.1964,0.850436 15.3563,2.23948l0 1.61347c-1.66544,0.832718 -8.00354,0.196073 -14.8649,0.434667 -1.74339,0.0614203 -3.43363,0.119297 -5.01285,0.161819l-6.77986 0c-1.40912,-0.0744131 -2.42256,-0.226783 -2.88676,-0.490182l0 -1.22132c0.839805,-1.11738 3.92618,-2.32689 14.1881,-2.73793z"/>
    <path id="_45853080" class="fil3" d="M15.4732 27.7372c10.3942,-0.398051 14.3145,0.94611 15.3244,2.32452l0 1.21305c-1.41385,0.869334 -7.87952,0.250406 -14.8531,0.474827 -2.95172,0.095674 -5.76643,0.184261 -8.13583,0.199616l-1.43983 0c-2.68478,-0.022442 -4.5829,-0.177174 -5.11561,-0.59058l0 -0.805551c0.648457,-1.1162 3.65451,-2.41193 14.22,-2.81589z"/>
    <path id="_90238080" class="fil4" d="M15.5051 27.9746c10.4804,-0.377971 14.5129,1.0595 15.2925,2.41665l0 0.789015c-1.05714,0.92603 -7.70353,0.323638 -14.8401,0.533885 -7.58541,0.223239 -14.3239,0.401595 -14.7043,-0.511442l0 -0.243319c0.236232,-1.11029 3.04385,-2.57965 14.2519,-2.98479z"/>
    <path id="_90218448" class="fil5" d="M15.537 28.2097c10.9246,-0.369703 15.0633,1.28628 15.2606,2.6269l0 0.154732c-0.248044,1.11265 -7.28776,0.484276 -14.8271,0.683892 -7.6988,0.204341 -14.6003,0.361435 -14.6003,-0.540972 0,-1.04887 3.01314,-2.54658 14.1668,-2.92455z"/>
    <path id="_90256720" class="fil6" d="M15.5689 28.4447c10.5525,-0.329544 15.0657,1.27683 15.0976,2.51705 0.0342537,1.06777 -7.09759,0.496087 -14.6842,0.674443 -7.58659,0.178355 -14.4775,0.311826 -14.4775,-0.485457 0,-0.974457 3.51041,-2.37531 14.0641,-2.70604z"/>
    <path id="_90218800" class="fil7" d="M15.6008 28.6845c9.95246,-0.283479 14.8992,1.19533 14.9275,2.32334 0.0283479,0.924849 -7.05743,0.439392 -14.533,0.592943 -7.47675,0.153551 -14.357,0.263399 -14.357,-0.431124 0,-0.897682 4.01004,-2.20168 13.9625,-2.48516z"/>
    <path id="_92644896" class="fil8" d="M15.6327 28.9195c9.35243,-0.236232 14.7326,1.1162 14.7574,2.13081 0.022442,0.781928 -7.01727,0.383877 -14.383,0.511442 -7.36572,0.127565 -14.2342,0.21379 -14.2342,-0.375609 0,-0.823269 4.50731,-2.03041 13.8597,-2.26665z"/>
    <path id="_89277472" class="fil9" d="M15.6646 29.1546c8.75122,-0.188986 14.5661,1.03706 14.585,1.9371 0.0188986,0.64137 -6.97593,0.329544 -14.2306,0.431124 -7.25351,0.102761 -14.1113,0.164181 -14.1113,-0.321276 0,-0.747675 5.00458,-1.85797 13.757,-2.04695z"/>
    <path id="_90238040" class="fil10" d="M15.6964 29.392c8.15237,-0.140558 14.3995,0.957921 14.4149,1.74457 0.0129928,0.49845 -6.93577,0.274029 -14.0794,0.350805 -7.14366,0.0755943 -13.9897,0.113391 -13.9897,-0.266942 0,-0.673261 5.50185,-1.6867 13.6542,-1.82844z"/>
    <path id="_46402552" class="fil11" d="M15.7295 29.6294c7.54998,-0.0944928 14.233,0.876421 14.2424,1.55086 0.00944928,0.355529 -6.89443,0.217334 -13.9282,0.269305 -7.03145,0.0507899 -13.8668,0.0637827 -13.8668,-0.212609 0,-0.597667 5.99911,-1.51307 13.5526,-1.60756z"/>
    <path id="_46405424" class="fil12" d="M15.7614 29.8668c6.95113,-0.0472464 14.0664,0.797283 14.0712,1.35715 0.0059058,0.214971 -6.85309,0.163 -13.7759,0.188986 -6.9216,0.0248044 -13.7452,0.0141739 -13.7452,-0.157094 0,-0.523254 6.49756,-1.3418 13.4499,-1.38904z"/>
   </g>
   <path id="_46409776" class="fil13" d="M15.7909 30.1031c6.3511,0 13.9023,0.718146 13.9023,1.16462 0,0.145283 -27.2482,0.140558 -27.2482,0.00472464 0,-0.44766 6.99247,-1.16935 13.3459,-1.16935z"/>
  </g>
  <path class="fil14" d="M3.45017 4.74945l1.06541 -2.85959c0.219696,-0.497269 0.510261,-1.03352 1.61819,-1.05123l9.68906 0.0188986 9.90285 -0.0188986c0.682711,0.0236232 1.45755,0.822088 1.38314,1.12092l1.14454 2.29499 0.14292 0.827994c-0.278754,-0.23387 -1.06777,-1.41503 -1.45283,-1.41503l-22.1916 -0.108667c-0.429942,0 -1.01934,0.900044 -1.30164,1.19061z"/>
  <path class="fil15" d="M3.63797 10.0729l-0.00472464 -5.17466c0,-0.333087 0.13229,-0.639008 0.349624,-0.877602 0.279935,-0.338993 0.745312,-0.555145 1.21541,-0.555145l21.5349 0.036616c0.83508,0.00236232 1.56504,0.889414 1.55441,1.71505 -0.059058,4.6018 0.0767754,10.7958 0.0803189,15.4012l-24.7241 0.114573 -0.0106304 -10.5572c0,-0.0342537 0.00118116,-0.0685073 0.00472464,-0.102761z"/>
  <g id="_46183880">
   <g>
    <path id="_94687632" class="fil16" d="M10.0032 3.47379c0.848073,0.445298 1.62882,0.863428 2.34815,1.25085 4.95733,2.73439 6.48575,3.57065 10.3883,2.50406 1.39849,-0.367341 3.30607,-1.36542 5.33766,-2.21349l0 0.199616c-2.01034,0.84453 -3.89547,1.83198 -5.28333,2.19578 -3.98524,1.09139 -5.53137,0.249225 -10.5454,-2.5206 -0.802008,-0.432305 -1.68315,-0.901225 -2.66706,-1.41739l0.421674 0.00118116z"/>
    <path id="_46173616" class="fil17" d="M9.87568 3.47379c1.00281,0.504356 1.93356,0.979182 2.78636,1.41857 4.87937,2.6647 6.44914,3.50332 10.3021,2.52178 1.3607,-0.31537 3.1785,-1.20242 5.11324,-1.96663l0 0.194891c-1.91584,0.760667 -3.71829,1.64181 -5.06718,1.956 -3.93208,1.00871 -5.51602,0.160638 -10.4497,-2.53713 -0.935479,-0.480732 -1.96309,-1.00753 -3.11118,-1.58276l-0.0118116 -0.0059058 0.438211 0.00118116z"/>
    <path id="_46175160" class="fil18" d="M9.70796 3.47261l0.103942 0.0484276c1.12919,0.542153 2.18751,1.05596 3.16197,1.54023 4.79906,2.59265 6.41016,3.43718 10.2135,2.54186 1.31818,-0.269305 3.0533,-1.05123 4.89,-1.73276l0 0.188986c-1.82135,0.68153 -3.53876,1.45755 -4.84866,1.72568 -3.88129,0.923668 -5.50421,0.0720508 -10.3564,-2.55131 -0.960283,-0.47837 -2.00443,-0.98745 -3.15134,-1.53905 -0.173631,-0.0803189 -0.349624,-0.153551 -0.524435,-0.222058l0.511442 0z"/>
    <path id="_46176456" class="fil19" d="M9.42448 3.47261c0.218515,0.0791378 0.437029,0.166544 0.654363,0.262218 1.13037,0.518529 2.20641,1.01816 3.20567,1.49535 4.72228,2.52296 6.37118,3.37221 10.1273,2.55721 1.27802,-0.222058 2.92455,-0.898863 4.66558,-1.49889l0 0.18308c-1.72922,0.601211 -3.36276,1.2792 -4.63369,1.50125 -3.82578,0.840986 -5.48531,-0.0165362 -10.2596,-2.56784 -0.986269,-0.472464 -2.04577,-0.965008 -3.19031,-1.49181 -0.4075,-0.177174 -0.819725,-0.323638 -1.23431,-0.441754l0.664993 0.00118116z"/>
    <path id="_46177344" class="fil20" d="M8.93312 3.47143c0.472464,0.125203 0.943747,0.283479 1.41267,0.47837 1.12919,0.493725 2.22294,0.979182 3.24819,1.45165 4.64669,2.45091 6.33456,3.30252 10.041,2.57257 1.23431,-0.177174 2.79699,-0.759486 4.44234,-1.28274l0 0.179536c-1.63591,0.524435 -3.18795,1.11147 -4.41518,1.29101 -3.77381,0.754762 -5.4735,-0.105123 -10.1651,-2.58438 -1.01225,-0.465377 -2.09065,-0.944928 -3.23047,-1.44928 -0.780747,-0.317732 -1.57212,-0.52916 -2.37295,-0.657906l1.03942 0.00118116z"/>
    <path id="_46179064" class="fil21" d="M7.96102 3.47025c0.889414,0.127565 1.7741,0.347261 2.65171,0.69216 1.13037,0.470102 2.24066,0.940204 3.29189,1.40558 4.56873,2.38358 6.29795,3.23874 9.95482,2.59383 1.18707,-0.137015 2.66588,-0.629559 4.21792,-1.07604l0 0.175993c-1.54732,0.451203 -3.0155,0.948472 -4.19903,1.08431 -3.71947,0.673261 -5.45814,-0.191348 -10.0682,-2.59619 -1.03942,-0.461834 -2.13318,-0.92603 -3.27181,-1.4044 -1.95718,-0.751218 -3.97579,-0.866972 -6.01565,-0.731138 0.209065,-0.095674 0.441754,-0.148826 0.675624,-0.148826l2.76273 0.00472464z"/>
    <path id="_46180344" class="fil22" d="M4.46833 3.64034l0.191348 -0.0118116c2.08593,-0.124022 4.16359,-0.0106304 6.22235,0.748856 1.12683,0.446479 2.25602,0.898863 3.33323,1.3607 4.48959,2.31035 6.26015,3.17023 9.86978,2.60682 1.141,-0.0944928 2.53359,-0.501993 3.99232,-0.876421l0 0.173631c-1.45637,0.379153 -2.84423,0.79374 -3.98051,0.891776 -3.66987,0.589399 -5.44515,-0.278754 -9.97608,-2.61036 -1.06186,-0.45829 -2.17334,-0.907131 -3.31079,-1.36188 -1.98199,-0.71224 -4.01004,-0.81382 -6.0688,-0.699247l-0.646095 0.0377971c0.108667,-0.103942 0.235051,-0.190167 0.373247,-0.259855z"/>
    <path id="_46173576" class="fil23" d="M4.07855 3.91673l0.829175 -0.0401595c2.09184,-0.103942 4.1695,0 6.24243,0.713421 1.12683,0.422855 2.27137,0.861066 3.37576,1.31818 4.41282,2.23712 6.22235,3.10645 9.78237,2.62336 1.09139,-0.0578769 2.39894,-0.386239 3.76908,-0.694522l0 0.172449c-1.3666,0.313008 -2.67415,0.649638 -3.76554,0.713421 -3.61435,0.504356 -5.42861,-0.367341 -9.87805,-2.62926 -1.08785,-0.451203 -2.21704,-0.883508 -3.35095,-1.31581 -2.00089,-0.667356 -4.02776,-0.760667 -6.09951,-0.667356l-1.11265 0.0496087c0.0342537,-0.0496087 0.0720508,-0.0944928 0.11221,-0.139377l0.095674 -0.103942z"/>
    <path id="_46157680" class="fil24" d="M3.86594 4.16595l1.28983 -0.0460653c2.10128,-0.0767754 4.17658,0.0129928 6.26133,0.682711 1.12565,0.400413 2.28909,0.823269 3.42064,1.27565 4.3325,2.16507 6.18338,3.03558 9.69497,2.63989 1.03942,-0.0236232 2.26665,-0.279935 3.54466,-0.524435l0 0.171268c-1.2792,0.250406 -2.5076,0.513805 -3.54702,0.543334 -3.56238,0.420493 -5.4168,-0.454747 -9.78473,-2.64226 -1.11383,-0.445298 -2.25956,-0.862247 -3.39111,-1.27093 -2.01742,-0.627196 -4.04784,-0.706334 -6.12786,-0.637827l-1.48944 0.0401595c0.0342537,-0.0815001 0.0779566,-0.159457 0.128746,-0.231507z"/>
    <path id="_46159944" class="fil25" d="M3.73955 4.39392c0.555145,-0.00472464 1.10911,-0.0141739 1.66662,-0.0283479 2.10719,-0.0519711 4.18013,0.0259855 6.27905,0.652001 1.12565,0.374428 2.30563,0.784291 3.46198,1.22841 4.2569,2.09538 6.14676,2.97062 9.60756,2.65761 0.98745,0.00708696 2.13318,-0.180718 3.3226,-0.36616l0 0.170087c-1.19179,0.191348 -2.34106,0.389783 -3.32851,0.387421 -3.51159,0.337812 -5.40381,-0.540972 -9.69142,-2.65761 -1.13864,-0.438211 -2.3009,-0.842167 -3.43009,-1.22486 -2.0375,-0.584674 -4.06792,-0.650819 -6.15503,-0.61066 -0.604754,0.0129928 -1.2036,0.0188986 -1.80718,0.0165362 0.0177174,-0.0779566 0.0425218,-0.15237 0.0744131,-0.22442z"/>
    <path id="_46161136" class="fil26" d="M3.66987 4.6018c0.662631,0.0153551 1.32172,0.0188986 1.98435,0.00944928 2.11546,-0.0259855 4.18485,0.036616 6.29795,0.622472 1.12565,0.348442 2.32334,0.741769 3.50568,1.18116 4.17895,2.02451 6.10896,2.90684 9.52133,2.67533 0.934298,0.0330725 1.99616,-0.0944928 3.09818,-0.223239l0 0.171268c-1.10793,0.135833 -2.17688,0.272848 -3.11236,0.245681 -3.45962,0.252768 -5.38609,-0.629559 -9.59457,-2.67297 -1.16581,-0.435848 -2.34342,-0.820907 -3.47143,-1.18352 -2.05286,-0.543334 -4.08445,-0.595305 -6.18456,-0.577587 -0.693341,0.00472464 -1.38314,-0.00354348 -2.07884,-0.0271667 0.00472464,-0.0755943 0.0165362,-0.148826 0.0342537,-0.220877z"/>
    <path id="_46162456" class="fil27" d="M3.63797 4.79551c0.759486,0.0437029 1.50952,0.0649638 2.26547,0.0626015 2.12255,-0.00354348 4.18958,0.0484276 6.31685,0.588218 1.12446,0.327181 2.3387,0.703972 3.54821,1.13864 4.09981,1.95128 6.07116,2.83597 9.43511,2.69305 0.876421,0.0566957 1.85915,-0.0188986 2.87376,-0.0980363l0 0.172449c-1.02407,0.0862247 -2.0127,0.171268 -2.89739,0.116935 -3.40292,0.170087 -5.37192,-0.715783 -9.49889,-2.68832 -1.19061,-0.42758 -2.38358,-0.799646 -3.50923,-1.13746 -2.07176,-0.500812 -4.10571,-0.540972 -6.2129,-0.546877 -0.774841,-0.00236232 -1.54496,-0.0307102 -2.32571,-0.0850436l0 -0.113391 0.00472464 -0.102761z"/>
    <path id="_46163344" class="fil28" d="M3.63325 4.97387c0.848073,0.0767754 1.67961,0.12166 2.51942,0.129928 2.12963,0.0200797 4.19548,0.0602392 6.33338,0.556327 1.12446,0.302377 2.35878,0.663812 3.59191,1.09494 4.02421,1.88041 6.03455,2.76982 9.35007,2.70722 0.817363,0.0791378 1.72095,0.0507899 2.64934,0.0165362l0 0.172449c-0.939023,0.0425218 -1.85324,0.0791378 -2.67769,0.0059058 -3.35331,0.0850436 -5.35893,-0.80437 -9.40676,-2.7025 -1.21423,-0.424037 -2.42728,-0.779566 -3.54939,-1.09139 -2.09065,-0.461834 -4.12225,-0.490182 -6.2448,-0.519711 -0.851617,-0.0118116 -1.69969,-0.0649638 -2.56548,-0.154732l0 -0.214971z"/>
    <path id="_46164232" class="fil29" d="M3.63325 5.13923c0.93666,0.119297 1.84734,0.191348 2.76864,0.211428 2.1379,0.0437029 4.19903,0.0720508 6.35346,0.523254 1.12328,0.279935 2.37295,0.627196 3.63443,1.05123 3.94508,1.80836 5.99793,2.70131 9.26266,2.72494 0.757124,0.095674 1.58039,0.105123 2.42492,0.107486l0 0.178355c-0.858704,0.00472464 -1.69497,-0.00118116 -2.46036,-0.0921305 -3.30016,0.00236232 -5.34593,-0.889414 -9.31227,-2.71667 -1.23904,-0.419312 -2.46744,-0.760667 -3.58955,-1.04887 -2.10601,-0.41695 -4.14115,-0.434667 -6.27078,-0.487819 -0.931936,-0.0236232 -1.85797,-0.107486 -2.81116,-0.239776l0 -0.211428z"/>
    <path id="_46165120" class="fil30" d="M3.63325 5.28687c1.02761,0.168906 2.01742,0.276392 3.01787,0.309464 2.14381,0.0685073 4.20493,0.0815001 6.37236,0.491363 1.12092,0.25395 2.38949,0.585856 3.67695,1.00399 3.86712,1.73867 5.96014,2.63871 9.17525,2.74502 0.693341,0.106304 1.43983,0.15237 2.20168,0.187805l0 0.179536c-0.777204,-0.0307102 -1.53787,-0.0673261 -2.2442,-0.173631 -3.24819,-0.0791378 -5.33058,-0.978001 -9.21541,-2.73202 -1.26502,-0.412225 -2.51115,-0.740588 -3.62971,-1.00281 -2.12609,-0.374428 -4.16005,-0.380334 -6.30031,-0.45829 -1.00989,-0.0377971 -2.0127,-0.155913 -3.05448,-0.340174l0 -0.210247z"/>
    <path id="_46167200" class="fil31" d="M3.63325 5.41798c1.11974,0.229145 2.18633,0.37679 3.26709,0.424037 2.15207,0.0944928 4.20966,0.0944928 6.39008,0.459471 1.1221,0.230326 2.40721,0.548058 3.72066,0.960283 3.78798,1.66662 5.92234,2.57021 9.09021,2.76037 0.629559,0.115754 1.29573,0.185442 1.97608,0.248044l0 0.185442c-0.698066,-0.0578769 -1.38314,-0.12166 -2.02569,-0.237413 -3.19622,-0.165362 -5.31758,-1.06659 -9.1221,-2.74738 -1.29101,-0.4075 -2.55367,-0.718146 -3.66868,-0.960283 -2.14381,-0.333087 -4.17895,-0.323638 -6.32984,-0.42758 -1.08785,-0.0531522 -2.16389,-0.210247 -3.29662,-0.455928l-0.00118116 -0.209065z"/>
    <path id="_46168656" class="fil32" d="M3.63325 5.53492c1.21541,0.29529 2.35878,0.490182 3.51513,0.553964 2.15916,0.118116 4.21556,0.105123 6.41016,0.426399 1.11974,0.207884 2.42256,0.510261 3.762,0.916581 3.71239,1.59457 5.88572,2.5017 9.00517,2.77927 0.561051,0.118116 1.15163,0.205522 1.75166,0.288203l0 0.190167c-0.620109,-0.0791378 -1.22959,-0.164181 -1.80954,-0.28466 -3.14189,-0.248044 -5.30105,-1.15281 -9.02525,-2.76273 -1.31818,-0.401595 -2.59737,-0.698066 -3.71239,-0.913037 -2.15798,-0.292928 -4.19548,-0.270486 -6.35582,-0.399232 -1.16344,-0.0673261 -2.31389,-0.272848 -3.53994,-0.585856l-0.00118116 -0.209065z"/>
    <path id="_46472376" class="fil33" d="M3.63443 5.63177c1.31345,0.373247 2.52886,0.620109 3.76318,0.70279 2.16625,0.140558 4.22029,0.115754 6.42669,0.394508 1.12092,0.18308 2.44264,0.468921 3.80806,0.874059 3.63443,1.5237 5.84674,2.43437 8.91776,2.79108 0.492544,0.120478 1.00871,0.220877 1.52724,0.313008l0 0.198435c-0.542153,-0.0921305 -1.07722,-0.191348 -1.59339,-0.313008 -3.08873,-0.331906 -5.28806,-1.24258 -8.92957,-2.77573 -1.3418,-0.398051 -2.63871,-0.679167 -3.75137,-0.870515 -2.1757,-0.249225 -4.21438,-0.217334 -6.38535,-0.369703 -1.23549,-0.0862247 -2.46036,-0.343718 -3.78326,-0.73232l0 -0.212609z"/>
    <path id="_46474968" class="fil34" d="M3.63443 5.71564c1.41503,0.457109 2.70368,0.76303 4.01122,0.864609 2.17452,0.165362 4.22501,0.127565 6.44796,0.363797 1.11856,0.157094 2.45799,0.42758 3.8494,0.825631 3.55766,1.45401 5.80895,2.37059 8.83036,2.81116 0.424037,0.115754 0.862247,0.218515 1.304,0.318913l0 0.20316 0 0.00118116c-0.466558,-0.0992175 -0.927211,-0.204341 -1.37487,-0.323638 -3.03794,-0.414587 -5.27388,-1.32999 -8.83626,-2.79226 -1.36778,-0.392145 -2.68005,-0.660269 -3.79153,-0.827994 -2.1946,-0.205522 -4.23328,-0.158276 -6.4137,-0.336631 -1.30991,-0.106304 -2.60564,-0.421674 -4.02658,-0.894138l0 -0.21379z"/>
    <path id="_46476944" class="fil35" d="M3.63443 5.78296c1.52015,0.551602 2.88085,0.922486 4.26163,1.04296 2.17924,0.190167 4.22974,0.141739 6.46449,0.333087 1.11974,0.133471 2.47571,0.388602 3.8931,0.780747 3.47734,1.38196 5.76997,2.30208 8.74177,2.82652 0.35671,0.108667 0.718146,0.207884 1.08194,0.305921l0 0.0307102c0,0.0602392 -0.00708696,0.120478 -0.0212609,0.177174 -0.383877,-0.100399 -0.764211,-0.200797 -1.13864,-0.314189 -2.98361,-0.49845 -5.25853,-1.41385 -8.73823,-2.80408 -1.39377,-0.386239 -2.72257,-0.637827 -3.83168,-0.785472 -2.21113,-0.161819 -4.251,-0.103942 -6.44323,-0.305921 -1.38078,-0.126384 -2.7462,-0.506718 -4.2699,-1.07013l0 -0.217334z"/>
    <path id="_46478336" class="fil36" d="M3.63443 5.83611c1.62528,0.650819 3.05684,1.09257 4.51085,1.23668 2.18751,0.21379 4.23446,0.151189 6.48221,0.298834 1.11856,0.111029 2.49225,0.350805 3.93681,0.737044 3.39938,1.31109 5.73335,2.23594 8.65673,2.84423 0.279935,0.0944928 0.563414,0.184261 0.846892,0.270486 -0.0118116,0.0708696 -0.0307102,0.139377 -0.0578769,0.204341 -0.294109,-0.088587 -0.584674,-0.179536 -0.874059,-0.272848 -2.93164,-0.584674 -5.24553,-1.5048 -8.64491,-2.82061 -1.41975,-0.382696 -2.76392,-0.620109 -3.87184,-0.739406 -2.23003,-0.124022 -4.2699,-0.0496087 -6.47158,-0.278754 -1.45165,-0.147645 -2.88439,-0.597667 -4.51321,-1.25912l0 -0.220877z"/>
    <path id="_46479848" class="fil37" d="M3.63443 5.87391c1.73867,0.758305 3.23756,1.27802 4.7589,1.4422 2.1946,0.240957 4.24155,0.164181 6.50347,0.268123 1.11738,0.0874059 2.5076,0.311826 3.97697,0.695704 3.32379,1.23668 5.69674,2.16625 8.57168,2.85959 0.196073,0.073232 0.394508,0.141739 0.591761,0.211428 -0.0212609,0.0673261 -0.0519711,0.135833 -0.0897682,0.197254 -0.199616,-0.0685073 -0.39687,-0.137015 -0.595305,-0.206703 -2.87731,-0.667356 -5.229,-1.5922 -8.54924,-2.83597 -1.44456,-0.377971 -2.80762,-0.60003 -3.91082,-0.694522 -2.24657,-0.0815001 -4.28997,0.00354348 -6.50111,-0.245681 -1.52015,-0.172449 -3.02023,-0.698066 -4.75653,-1.46582l0 -0.225602z"/>
    <path id="_46481224" class="fil38" d="M3.63443 5.89753c1.85324,0.874059 3.41828,1.47527 5.00812,1.6678 2.20168,0.261036 4.24509,0.173631 6.52119,0.231507 1.1162,0.0649638 2.52532,0.274029 4.02067,0.650819 3.24583,1.16699 5.66012,2.10128 8.48428,2.87967l0.329544 0.126384c-0.0318913,0.0685073 -0.0720508,0.133471 -0.119297,0.192529l-0.308283 -0.118116c-2.82652,-0.751218 -5.216,-1.67961 -8.45475,-2.85132 -1.47173,-0.370884 -2.85014,-0.577587 -3.95216,-0.648457 -2.26547,-0.0377971 -4.30533,0.0566957 -6.52946,-0.217334 -1.58748,-0.194891 -3.15252,-0.800827 -4.99985,-1.68197l0 -0.231507z"/>
    <path id="_46482632" class="fil39" d="M3.63443 5.90816c1.97018,0.996899 3.60136,1.6867 5.25735,1.90167 2.20877,0.287022 4.25218,0.186623 6.54009,0.201978 1.11502,0.0401595 2.54186,0.23387 4.06319,0.605935 3.16669,1.09375 5.62114,2.03632 8.39805,2.89502l0.0602392 0.0236232c-0.0389783,0.0673261 -0.088587,0.129928 -0.144102,0.187805l-0.0236232 -0.00708696c-2.771,-0.837443 -5.20065,-1.76938 -8.35907,-2.86786 -1.49417,-0.36616 -2.8903,-0.557508 -3.98996,-0.604754 -2.28318,0.00472464 -4.32659,0.11221 -6.55898,-0.186623 -1.65126,-0.222058 -3.28008,-0.911856 -5.24317,-1.9123l0 -0.237413z"/>
    <path id="_46484008" class="fil40" d="M3.63443 5.90462c2.09302,1.12446 3.78562,1.90876 5.50775,2.15089 2.21468,0.311826 4.25454,0.199616 6.55662,0.170087 1.11502,0.0153551 2.55957,0.19371 4.10808,0.55987 3.00487,0.996899 5.44633,1.9182 8.08977,2.83715 -0.0507899,0.066145 -0.111029,0.127565 -0.177174,0.184261 -2.60918,-0.888233 -5.01048,-1.79536 -7.97992,-2.78636 -1.52015,-0.359073 -2.934,-0.536247 -4.0313,-0.558689 -2.29972,0.0448841 -4.34431,0.165362 -6.58851,-0.157094 -1.71268,-0.246863 -3.40647,-1.03115 -5.48531,-2.15562l0 -0.2445z"/>
    <path id="_46485384" class="fil41" d="M3.63443 5.88927c2.21704,1.2603 3.97342,2.14381 5.7558,2.41311 2.22413,0.33545 4.26163,0.209065 6.57552,0.137015 1.11502,-0.00472464 2.57611,0.154732 4.1506,0.516167 2.82297,0.892957 5.22664,1.78237 7.72361,2.73793 -0.059058,0.0649638 -0.129928,0.124022 -0.204341,0.178355 -2.45327,-0.922486 -4.80732,-1.79536 -7.58305,-2.67887 -1.54732,-0.353167 -2.97771,-0.516167 -4.07146,-0.514986 -2.3198,0.088587 -4.36321,0.219696 -6.61686,-0.126384 -1.77883,-0.27521 -3.53049,-1.15281 -5.72981,-2.40839l0 -0.25395z"/>
    <path id="_46486760" class="fil42" d="M3.63443 5.8621c2.34697,1.39968 4.16123,2.38713 6.00502,2.68478 2.23121,0.361435 4.26517,0.222058 6.5956,0.106304 1.11265,-0.0307102 2.59147,0.116935 4.19194,0.473645 2.64344,0.792559 4.99749,1.64536 7.35863,2.61981 -0.066145,0.0626015 -0.140558,0.120478 -0.223239,0.171268 -2.31389,-0.935479 -4.61007,-1.76938 -7.19917,-2.55367 -1.57094,-0.348442 -3.01905,-0.496087 -4.10926,-0.46774 -2.33752,0.128746 -4.38329,0.272848 -6.64639,-0.0980363 -1.83789,-0.302377 -3.64979,-1.28274 -5.97313,-2.67297l0 -0.263399z"/>
    <path id="_46488136" class="fil43" d="M3.63443 5.82312c2.47926,1.54614 4.3514,2.64344 6.25424,2.97062 2.2383,0.383877 4.2699,0.232689 6.61214,0.073232 1.11383,-0.0543334 2.61036,0.0779566 4.23682,0.426399 2.47099,0.700428 4.76244,1.51307 7.00428,2.49225 -0.0720508,0.0649638 -0.153551,0.120478 -0.240957,0.165362 -2.18987,-0.937841 -4.41636,-1.72568 -6.82593,-2.41429 -1.59693,-0.342537 -3.06039,-0.473645 -4.14942,-0.425218 -2.35523,0.172449 -4.39982,0.329544 -6.67474,-0.0673261 -1.89931,-0.329544 -3.76554,-1.41621 -6.21645,-2.947l0 -0.274029z"/>
    <path id="_46489512" class="fil44" d="M3.63443 5.77587c2.61509,1.69615 4.54274,2.90684 6.50229,3.26473 2.24775,0.4075 4.27698,0.243319 6.6334,0.0401595 1.11029,-0.0779566 2.62572,0.0377971 4.27816,0.381515 2.30444,0.614203 4.52384,1.38078 6.65938,2.35405 -0.0767754,0.0626015 -0.164181,0.115754 -0.258674,0.160638 -2.07412,-0.929573 -4.22383,-1.66898 -6.46213,-2.26901 -1.62055,-0.336631 -3.10173,-0.452384 -4.18958,-0.379153 -2.37177,0.21379 -4.41872,0.382696 -6.70427,-0.036616 -1.95364,-0.359073 -3.87775,-1.55323 -6.45859,-3.23047l0 -0.285841z"/>
    <path id="_46490888" class="fil45" d="M3.63443 5.71918c2.75329,1.85088 4.73645,3.17968 6.75269,3.5671 2.25247,0.432305 4.27934,0.255131 6.64993,0.00708696 1.11265,-0.100399 2.64107,0 4.32069,0.340174 2.14617,0.530341 4.28643,1.24849 6.32157,2.20523 -0.0815001,0.0614203 -0.171268,0.114573 -0.271667,0.155913 -1.96899,-0.908312 -4.03366,-1.59811 -6.10778,-2.11191 -1.64772,-0.334268 -3.14425,-0.435848 -4.23092,-0.337812 -2.38949,0.256312 -4.43644,0.437029 -6.73143,-0.0059058 -2.01034,-0.389783 -3.98996,-1.69615 -6.70309,-3.5234l0 -0.296471z"/>
    <path id="_46474720" class="fil46" d="M3.63443 5.65303c2.89621,2.00915 4.93253,3.45962 7.00074,3.88011 2.26074,0.457109 4.28643,0.265761 6.66883,-0.0259855 1.11265,-0.125203 2.65997,-0.0389783 4.36675,0.296471 1.99144,0.451203 4.04784,1.12092 5.9873,2.04931 -0.0850436,0.0602392 -0.179536,0.114573 -0.282297,0.154732 -1.86978,-0.877602 -3.84586,-1.51661 -5.76288,-1.95482 -1.67489,-0.324819 -3.18913,-0.411044 -4.27108,-0.291747 -2.40721,0.298834 -4.45534,0.492544 -6.76096,0.0248044 -2.06585,-0.421674 -4.09626,-1.84615 -6.9464,-3.82814l0 -0.304739z"/>
    <path id="_46492264" class="fil47" d="M3.63443 5.57744c3.04503,2.17215 5.1286,3.75018 7.24878,4.20139 2.26783,0.481913 4.29234,0.278754 6.68891,-0.0566957 1.11147,-0.148826 2.67533,-0.0791378 4.40809,0.248044 1.84615,0.382696 3.8116,0.999262 5.66366,1.89458 -0.088587,0.0602392 -0.186623,0.113391 -0.291747,0.15237 -1.77883,-0.839805 -3.65924,-1.42566 -5.42979,-1.79064 -1.69733,-0.322457 -3.22811,-0.393326 -4.30769,-0.248044 -2.4261,0.340174 -4.47542,0.546877 -6.79049,0.0519711 -2.11664,-0.450022 -4.19903,-1.9938 -7.18972,-4.1317l0 -0.321276z"/>
   </g>
   <g>
    <path id="_90380488" class="fil48" d="M28.2947 11.9628l-0.0318913 0.0141739c-1.69142,0.825631 -3.13008,1.52488 -4.39982,2.08239l1.30518 -0.206703c0.94611,-0.440573 1.98199,-0.944928 3.13008,-1.50834l-0.00354348 -0.381515zm-24.6603 -5.68729l0 -0.442935c3.52104,2.51115 6.76451,6.37827 9.17644,7.89606 1.19415,0.754762 2.24302,1.27329 3.25173,1.57212l-0.80437 0.128746c-0.809095,-0.316551 -1.65717,-0.765392 -2.59501,-1.35833 -2.37768,-1.49535 -5.56681,-5.29042 -9.02879,-7.79566z"/>
    <path id="_90380904" class="fil49" d="M28.2935 11.7455l-0.532703 0.19371c-2.11664,0.993356 -3.83995,1.78355 -5.3294,2.34933l1.56622 -0.249225c1.13273,-0.485457 2.39421,-1.07249 3.83759,-1.7493l0.461834 -0.168906 -0.00354348 -0.375609zm-24.6591 -5.33058l0 -0.438211c3.35331,2.38949 6.4515,5.94124 8.80083,7.39997 1.6111,1.00871 2.95999,1.60047 4.30533,1.81781l-1.03824 0.164181c-1.05832,-0.309464 -2.15444,-0.846892 -3.40765,-1.63354 -2.31507,-1.43747 -5.36129,-4.9219 -8.66027,-7.3102z"/>
    <path id="_88221920" class="fil50" d="M28.2923 11.599l-1.03352 0.309464c-3.00605,1.34416 -5.22427,2.28555 -7.11059,2.74265l2.45563 -0.390964c1.35361,-0.506718 2.89266,-1.17998 4.72346,-2.00325l0.968552 -0.288203 -0.00354348 -0.369703zm-24.6579 -5.05419l0 -0.438211c3.18795,2.26783 6.14085,5.51838 8.4264,6.91688 2.34697,1.45873 4.15296,2.0564 6.19755,1.93002l-1.89812 0.300015c-1.38668,-0.23387 -2.77573,-0.842167 -4.4329,-1.87214 -2.25011,-1.38078 -5.15695,-4.57463 -8.29293,-6.83656z"/>
    <path id="_90046272" class="fil51" d="M28.2912 11.5116c-0.520892,0.127565 -1.03352,0.246863 -1.53433,0.360254 -7.50155,3.1974 -10.0977,3.86476 -15.0692,0.799646 -2.21704,-1.34062 -5.02938,-4.30297 -8.05315,-6.44559l0 0.438211c2.97534,2.13436 5.73926,5.05182 7.92322,6.37118 2.30681,1.42094 4.10217,2.05286 6.09124,2.01388l2.91865 -0.464196c1.70914,-0.465377 3.69703,-1.2662 6.24952,-2.36114 0.481913,-0.106304 0.973276,-0.220877 1.47763,-0.34608l-0.00354348 -0.36616z"/>
    <path id="_87821776" class="fil52" d="M28.2912 11.4797c-0.69216,0.13229 -1.37251,0.250406 -2.03514,0.355529 -7.35745,2.96826 -10.0044,3.49978 -14.9417,0.483095 -2.14381,-1.2792 -4.81677,-3.97224 -7.67991,-5.98494l0 0.432305c2.81471,2.00797 5.44397,4.66322 7.55588,5.92234 5.02466,3.0722 7.68817,2.52178 15.12,-0.494906 0.644914,-0.105123 1.30636,-0.218515 1.98317,-0.351986l-0.00236232 -0.361435z"/>
    <path id="_92661352" class="fil53" d="M28.2912 11.5021c-0.862247,0.122841 -1.7115,0.217334 -2.5395,0.297652 -7.20862,2.74029 -9.90757,3.1348 -14.8129,0.167725 -2.06821,-1.21778 -4.60062,-3.6616 -7.3043,-5.54319l0.00118116 0.435848c2.65997,1.87568 5.14986,4.28289 7.18736,5.48177 4.98568,3.02259 7.69644,2.60682 14.9759,-0.180718 0.81382,-0.0803189 1.64654,-0.175993 2.49579,-0.302377l-0.00354348 -0.35671z"/>
    <path id="_46368904" class="fil54" d="M28.2912 11.5754c-1.02643,0.0992175 -2.04341,0.153551 -3.04031,0.188986 -7.0657,2.51233 -9.81662,2.76864 -14.6865,-0.148826 -1.98789,-1.15517 -4.38447,-3.3604 -6.92987,-5.11324l0.00118116 0.437029c2.50524,1.74576 4.85929,3.91791 6.81884,5.05773 4.94552,2.97062 7.70707,2.69068 14.8377,0.129928 0.981544,-0.036616 1.98435,-0.0933117 3.00251,-0.199616l-0.00354348 -0.351986z"/>
    <path id="_46371976" class="fil55" d="M28.2923 11.697c-1.18352,0.0637827 -2.37295,0.0614203 -3.54348,0.0342537 -6.91924,2.27964 -9.72095,2.4013 -14.5578,-0.470102 -1.90757,-1.09257 -4.16595,-3.07456 -6.55662,-4.69748l0.00118116 0.440573c2.35169,1.61465 4.57345,3.57065 6.4515,4.64787 4.90654,2.91747 7.71534,2.77455 14.6972,0.444116 1.15517,0.0236232 2.32807,0.0200797 3.51159,-0.0543334l-0.00354348 -0.344899z"/>
    <path id="_45964264" class="fil56" d="M28.2947 11.8648c-1.33707,0.0177174 -2.69895,-0.0614203 -4.04902,-0.168906 -6.77277,2.05168 -9.62764,2.03632 -14.4291,-0.789015 -1.82017,-1.02643 -3.94271,-2.80408 -6.18219,-4.2947l0.00118116 0.440573c2.20168,1.48354 4.28997,3.23756 6.08298,4.25218 4.86638,2.87022 7.72597,2.86077 14.5578,0.758305 1.33471,0.102761 2.68005,0.174812 4.02067,0.139377l-0.00236232 -0.337812z"/>
    <path id="_45884112" class="fil57" d="M28.2959 12.0774c-1.47645,-0.0354348 -3.0155,-0.210247 -4.55101,-0.41695 -6.62867,1.82489 -9.53433,1.67134 -14.3039,-1.1032 -1.72922,-0.966189 -3.71829,-2.55013 -5.80658,-3.91555l0.00118116 0.444116c2.05522,1.35715 4.01004,2.92101 5.71445,3.87421 4.8274,2.81707 7.73424,2.94463 14.4172,1.06895 1.5237,0.20316 3.04503,0.368522 4.53211,0.379153l-0.00354348 -0.330725z"/>
    <path id="_46263832" class="fil58" d="M28.2982 12.3337c-1.60402,-0.0909494 -3.32142,-0.383877 -5.05537,-0.709877 -6.48339,1.59575 -9.4422,1.30754 -14.1739,-1.41975 -1.64063,-0.902407 -3.49387,-2.30799 -5.43452,-3.54821l0.00118116 0.442935c1.90994,1.23668 3.73247,2.62454 5.34711,3.51631 4.78724,2.76392 7.74251,3.0285 14.2755,1.38314 1.71386,0.317732 3.40765,0.596486 5.02584,0.657906l0.0177174 0.00354348 -0.00354348 -0.326z"/>
    <path id="_46456480" class="fil59" d="M28.3018 12.6963l-0.477189 -0.109848c-1.58748,-0.179536 -3.31906,-0.574044 -5.0849,-0.998081 -6.33693,1.36897 -9.34534,0.941385 -14.0452,-1.73749 -1.54496,-0.838624 -3.26473,-2.07884 -5.06009,-3.19976l0.00118116 0.44766c1.76702,1.11383 3.45962,2.34106 4.97977,3.16905 4.7459,2.71431 7.75196,3.11472 14.1349,1.69733 1.73867,0.412225 3.44308,0.790196 5.03765,0.940204l0.517348 0.135833 -0.00354348 -0.344899z"/>
    <path id="_46458088" class="fil60" d="M28.3065 13.1333c-0.318913,-0.106304 -0.640189,-0.206703 -0.963827,-0.296471 -1.57094,-0.269305 -3.31197,-0.761849 -5.10379,-1.28274 -6.19282,1.13864 -9.25439,0.575225 -13.9176,-2.05404 -1.44574,-0.776022 -3.03558,-1.86623 -4.68684,-2.86904l0.00118116 0.448841c1.62646,0.998081 3.18913,2.07766 4.61007,2.84187 4.70929,2.66352 7.76259,3.19976 13.9956,2.01034 1.76702,0.507899 3.47852,0.983907 5.05655,1.22132 0.245681,0.0755943 0.487819,0.158276 0.728776,0.243319l0.281116 -0.0437029 -0.00118116 -0.219696z"/>
    <path id="_46472336" class="fil61" d="M27.7986 13.4357c-0.310645,-0.124022 -0.622472,-0.239776 -0.940204,-0.348442 -1.54968,-0.355529 -3.30252,-0.952015 -5.12151,-1.5674 -6.04636,0.910675 -9.1599,0.209065 -13.7912,-2.37177 -1.34298,-0.713421 -2.80171,-1.6678 -4.31124,-2.55839l0.00118116 0.455928c1.48826,0.887052 2.92101,1.82962 4.24273,2.53005 4.67031,2.61273 7.77204,3.28481 13.8538,2.32452 1.793,0.602392 3.51631,1.17762 5.06954,1.50125l0.348442 0.135833 0.648457 -0.10158z"/>
    <path id="_46442160" class="fil62" d="M26.9281 13.5727c-0.184261,-0.0779566 -0.364979,-0.157094 -0.551602,-0.232689 -1.53315,-0.445298 -3.29544,-1.14336 -5.14277,-1.85678 -5.90226,0.68153 -9.06423,-0.154732 -13.6589,-2.6895 -1.2414,-0.647276 -2.57021,-1.47527 -3.94035,-2.26074l0.00118116 0.45829c1.35125,0.780747 2.65525,1.60402 3.87539,2.23948 4.62897,2.56194 7.7803,3.36867 13.7121,2.63635 1.82017,0.695704 3.55175,1.37369 5.08844,1.78355l0.0318913 0.0153551 0.584674 -0.0933117z"/>
    <path id="_94257608" class="fil63" d="M26.1225 13.7015l-0.229145 -0.109848c-1.51661,-0.535066 -3.28717,-1.33353 -5.16167,-2.14381 -5.75698,0.453566 -8.9721,-0.519711 -13.5337,-3.00723 -1.13037,-0.582312 -2.33043,-1.2981 -3.56356,-1.98317l0.00118116 0.464196c1.21423,0.679167 2.39539,1.38786 3.50568,1.96309 4.59117,2.51233 7.79212,3.45371 13.5763,2.95054 1.72095,0.739406 3.3545,1.46346 4.79669,1.96191l0.608298 -0.095674z"/>
    <path id="_46237088" class="fil64" d="M25.3607 13.8219c-1.48826,-0.623653 -3.25055,-1.51307 -5.13096,-2.40957 -5.61051,0.226783 -8.87642,-0.884689 -13.405,-3.3226 -1.02052,-0.519711 -2.09302,-1.13155 -3.19031,-1.72213l0 0.46774c1.08076,0.587037 2.13672,1.19061 3.13952,1.70441 4.54983,2.46036 7.80157,3.53758 13.4345,3.26118 1.63945,0.777204 3.18441,1.54378 4.54983,2.11664l0.602392 -0.095674z"/>
    <path id="_46435640" class="fil65" d="M24.6154 13.9412c-1.41621,-0.700428 -3.09228,-1.63 -4.88764,-2.56312 -5.46523,-0.00472464 -8.78429,-1.25203 -13.2786,-3.63916 -0.90595,-0.457109 -1.85088,-0.975639 -2.81471,-1.47763l0 0.470102c0.948472,0.500812 1.87923,1.01225 2.76982,1.46228 4.51321,2.40839 7.81101,3.62262 13.2963,3.57655 1.57567,0.815001 3.05566,1.62173 4.35376,2.25956l0.561051 -0.088587z"/>
    <path id="_46153320" class="fil66" d="M23.9185 14.0523c-1.35715,-0.767754 -2.96353,-1.74103 -4.69275,-2.70958 -5.31995,-0.232689 -8.68862,-1.61465 -13.1487,-3.95807 -0.791378,-0.394508 -1.60992,-0.82445 -2.44264,-1.24376l0 0.474827c0.817363,0.41695 1.62528,0.843349 2.40248,1.23195 4.47424,2.35642 7.82046,3.70766 13.1546,3.88956 1.52724,0.851617 2.9529,1.70087 4.20139,2.39894l0.525616 -0.0838624z"/>
    <path id="_46434048" class="fil67" d="M23.2571 14.1562c-1.30636,-0.825631 -2.85841,-1.84143 -4.53448,-2.85014 -5.17348,-0.460653 -8.5953,-1.97962 -13.0211,-4.27344 -0.675624,-0.330725 -1.36542,-0.68153 -2.06703,-1.02761l0 0.481913c0.69216,0.341355 1.37251,0.690979 2.03514,1.0158 4.43171,2.30563 7.82873,3.79153 13.014,4.20139 1.48472,0.890595 2.86786,1.78237 4.07737,2.53123l0.496087 -0.0791378z"/>
    <path id="_92807128" class="fil68" d="M22.6251 14.2566c-1.26857,-0.884689 -2.77218,-1.93947 -4.40337,-2.98479 -5.03056,-0.689798 -8.50317,-2.34697 -12.8947,-4.59117l-1.6926 -0.823269 0 0.485457c0.563414,0.270486 1.12092,0.546877 1.66662,0.81382 4.39274,2.25365 7.83818,3.87657 12.8735,4.5144 1.45401,0.928392 2.80171,1.86033 3.97342,2.66115l0.477189 -0.0755943z"/>
    <path id="_46149312" class="fil69" d="M22.0145 14.3535c-1.23313,-0.93666 -2.70131,-2.03278 -4.2947,-3.11708 -4.8841,-0.917762 -8.40986,-2.71194 -12.766,-4.9089l-1.31936 -0.627196 0 0.489 1.2981 0.62129c4.35376,2.20405 7.84881,3.96161 12.7341,4.82977 1.42684,0.96737 2.74502,1.93828 3.88838,2.78636l0.459471 -0.073232z"/>
    <path id="_91152704" class="fil70" d="M21.4215 14.448c-1.2036,-0.988631 -2.63753,-2.12373 -4.20257,-3.24819 -4.73882,-1.14454 -8.31655,-3.07456 -12.6396,-5.22545l-0.94611 -0.442935 0.00118116 0.494906 0.930754 0.437029c4.31478,2.15326 7.85708,4.04666 12.5924,5.14277 1.4044,1.00517 2.69895,2.01624 3.81869,2.91392l0.445298 -0.0720508z"/>
    <path id="_87641720" class="fil71" d="M20.8416 14.5401c-1.1788,-1.03706 -2.58556,-2.21349 -4.12579,-3.37458 -4.59235,-1.37487 -8.2197,-3.4419 -12.5109,-5.54437l-0.571682 -0.262218 0.00118116 0.49845 0.563414 0.259855c4.27462,2.10483 7.86653,4.13288 12.4506,5.45814 1.3855,1.04296 2.65997,2.09184 3.75727,3.03558l0.435848 -0.0708696z"/>
    <path id="_46471192" class="fil72" d="M20.2746 14.6322c-1.15754,-1.08549 -2.54186,-2.30326 -4.06083,-3.50214 -4.44707,-1.60283 -8.12875,-3.80806 -12.3821,-5.85974l-0.198435 -0.0909494 0.00118116 0.505537 0.19371 0.088587c4.23564,2.04931 7.87598,4.21438 12.3136,5.76879 1.37015,1.08076 2.62572,2.17097 3.70412,3.15724l0.428761 -0.0673261z"/>
    <path id="_46214704" class="fil73" d="M19.7159 14.7208c-1.13982,-1.13155 -2.50288,-2.38713 -4.00532,-3.62616 -4.24273,-1.80481 -7.92677,-4.1069 -12.0774,-6.09361l0 0.510261c4.12343,1.98081 7.77204,4.24155 12.0006,5.99793 1.35715,1.11738 2.59855,2.24775 3.6616,3.2789l0.420493 -0.0673261z"/>
    <path id="_46417920" class="fil74" d="M19.1667 14.807c-1.12328,-1.17525 -2.47099,-2.47099 -3.95689,-3.74782 -3.97461,-1.96899 -7.60431,-4.3195 -11.5742,-6.2318l-0.00236232 0.0708696 0 0.439392c3.94153,1.90285 7.53344,4.21556 11.4915,6.13849 1.34889,1.15636 2.57729,2.32452 3.62616,3.3982l0.415768 -0.0673261z"/>
    <path id="_46230456" class="fil75" d="M18.6222 14.8944c-1.10911,-1.22014 -2.44028,-2.55603 -3.91437,-3.87066 -3.7053,-2.1131 -7.25823,-4.50613 -11.0521,-6.36291 -0.0141739,0.0779566 -0.022442,0.157094 -0.022442,0.237413l0 0.271667c3.76908,1.84261 7.2913,4.20139 10.9836,6.27669 1.33944,1.18943 2.55839,2.39776 3.59309,3.51277l0.412225 -0.0649638z"/>
    <path id="_46246592" class="fil76" d="M18.0859 14.9795c-1.09612,-1.26384 -2.41665,-2.63871 -3.88011,-3.98996 -3.43836,-2.2383 -6.89207,-4.66204 -10.5111,-6.47867 -0.0401595,0.122841 -0.0614203,0.252768 -0.0614203,0.387421l0 0.100399c3.60608,1.80127 7.03972,4.20375 10.4745,6.41252 1.33353,1.23195 2.54422,2.47807 3.5671,3.63325l0.411044 -0.0649638z"/>
    <path id="_46398488" class="fil77" d="M17.552 15.0645c-1.08312,-1.30636 -2.39303,-2.72021 -3.84822,-4.10926 -3.17614,-2.34342 -6.50701,-4.79079 -9.95364,-6.58497 -0.0673261,0.144102 -0.107486,0.300015 -0.115754,0.464196 3.45017,1.77765 6.78104,4.21674 9.96545,6.54599 1.32762,1.2662 2.53123,2.54894 3.54466,3.75018l0.4075 -0.066145z"/>
    <path id="_46277968" class="fil78" d="M17.0241 15.1484c-1.07249,-1.35007 -2.37295,-2.80053 -3.82105,-4.22974 -2.91983,-2.4261 -6.11251,-4.88646 -9.39023,-6.67001 -0.0791378,0.134652 -0.135833,0.282297 -0.161819,0.439392 3.29308,1.76465 6.50347,4.22974 9.43983,6.66175 1.32644,1.30282 2.5206,2.62572 3.52695,3.86358l0.406319 -0.0649638z"/>
    <path id="_46169544" class="fil79" d="M16.4996 15.2322c-1.06423,-1.39141 -2.3576,-2.88321 -3.79979,-4.34785 -2.66942,-2.49343 -5.70619,-4.95969 -8.81618,-6.74088 -0.0909494,0.126384 -0.160638,0.265761 -0.20316,0.415768 3.13598,1.76229 6.20818,4.24627 8.90359,6.75506 1.32054,1.3418 2.50997,2.70368 3.51041,3.98169l0.405138 -0.0637827z"/>
   </g>
  </g>
  <polygon class="fil80" points="28.0703,3.71593 28.0691,14.4054 27.1206,14.4385 27.1206,3.71593 "/>
  <g id="_88312296">
   <path id="_46354120" class="fil81" d="M27.8931 11.5494l0.00826812 9.20715 -24.1665 0.118116 -0.00708696 -9.32526 9.85442 0c0.569319,0 1.97844,0.35671 2.12373,0.581131 0.167725,0.256312 0.543334,-0.581131 2.40366,-0.581131l9.78355 0z"/>
   <g>
    <path id="_46354296" class="fil82" d="M27.9368 11.6179c0.00236232,3.06984 0.0059058,6.13849 0.00944928,9.20833 -8.05433,0.0389783 -16.1087,0.0779566 -24.1642,0.116935 0,-3.10881 -0.00354348,-6.21645 -0.00708696,-9.32526 3.29189,0.0165362 6.58615,0.0330725 9.87923,0.0484276 0.55987,0.0307102 1.97018,0.510261 2.11546,0.735863 0.164181,0.262218 0.536247,-0.569319 2.37413,-0.770117 3.26473,-0.00354348 6.52946,-0.00826812 9.793,-0.0141739z"/>
    <path id="_46352552" class="fil83" d="M27.9852 11.6876c0.00354348,3.06865 0.0059058,6.13849 0.00826812,9.20715 -8.05433,0.0377971 -16.1087,0.0779566 -24.163,0.116935 -0.0059058,-3.10763 -0.00826812,-6.21645 -0.0106304,-9.32408 3.30371,0.0318913 6.60741,0.0649638 9.90876,0.0944928 0.54924,0.0614203 1.96073,0.666175 2.10601,0.889414 0.158276,0.270486 0.527979,-0.556327 2.34224,-0.957921 3.26945,-0.00826812 6.5389,-0.0165362 9.80836,-0.0259855z"/>
    <path id="_45703152" class="fil84" d="M28.0313 11.7573c0.00472464,3.06865 0.00708696,6.13731 0.00944928,9.20596 -8.05551,0.0377971 -16.1098,0.0791378 -24.1654,0.118116 -0.00236232,-3.10881 -0.00354348,-6.21645 -0.00708696,-9.32408 3.31197,0.0472464 6.62277,0.0944928 9.93474,0.141739 0.536247,0.0921305 1.94891,0.819725 2.09538,1.04415 0.15237,0.278754 0.522073,-0.544515 2.31153,-1.14691 3.273,-0.0129928 6.54835,-0.0259855 9.82135,-0.0389783z"/>
    <path id="_46051488" class="fil85" d="M28.0785 11.8258c0.00236232,3.06865 0.00472464,6.13731 0.00944928,9.20715 -8.05551,0.036616 -16.1098,0.0779566 -24.1654,0.116935 -0.00236232,-3.10881 -0.00472464,-6.21645 -0.00826812,-9.32408 3.32142,0.0626015 6.64285,0.126384 9.96191,0.190167 0.524435,0.122841 1.94065,0.973276 2.08593,1.1977 0.148826,0.28466 0.514986,-0.532703 2.28082,-1.33589 3.28008,-0.0165362 6.55662,-0.0354348 9.83552,-0.0519711z"/>
    <path id="_45753568" class="fil86" d="M28.127 11.8943c0.00118116,3.06865 0.00354348,6.13731 0.00708696,9.20715 -8.05433,0.0377971 -16.1087,0.0779566 -24.163,0.116935 -0.00354348,-3.10881 -0.00708696,-6.21645 -0.0118116,-9.32408 3.33087,0.0791378 6.66056,0.158276 9.99026,0.237413 0.514986,0.153551 1.93238,1.12919 2.07766,1.35479 0.144102,0.290565 0.507899,-0.522073 2.24893,-1.52488 3.28245,-0.0236232 6.56725,-0.0460653 9.85088,-0.0673261z"/>
    <path id="_45753424" class="fil87" d="M28.173 11.9628c0.00236232,3.06865 0.0059058,6.13731 0.00826812,9.20715 -8.05551,0.0389783 -16.1087,0.0779566 -24.1654,0.116935 -0.00354348,-3.10763 -0.0059058,-6.21645 -0.00826812,-9.32408 3.33796,0.095674 6.6771,0.190167 10.0162,0.28466 0.500812,0.184261 1.92175,1.28392 2.06703,1.50834 0.139377,0.297652 0.499631,-0.50908 2.2194,-1.71386 3.28717,-0.0259855 6.57316,-0.0519711 9.86269,-0.0791378z"/>
    <path id="_45753304" class="fil88" d="M28.2179 12.0325c0.0059058,3.06747 0.00944928,6.13731 0.00944928,9.20715 -8.05433,0.0377971 -16.1098,0.0755943 -24.163,0.116935 -0.00354348,-3.10881 -0.0059058,-6.21763 -0.00944928,-9.32408 3.34741,0.109848 6.69482,0.222058 10.0434,0.331906 0.489,0.214971 1.91112,1.43747 2.0564,1.66307 0.137015,0.304739 0.492544,-0.497269 2.18869,-1.90285 3.28953,-0.0307102 6.58379,-0.0614203 9.8745,-0.0921305z"/>
   </g>
  </g>
  <polygon class="fil80" points="4.93961,3.57774 4.93961,14.1645 3.92972,14.1964 3.92972,3.57774 "/>
  <path class="fil89" d="M3.94271 4.56637l-0.0129928 -0.00354348c0.108667,-0.916581 0.636646,-1.60402 1.42212,-1.61583l0 0 21.0849 0.0377971 0 -0.00118116 0.0118116 0 0.00236232 0.00118116c1.20715,0 1.77883,1.90876 1.66071,2.33634 -0.263399,-0.950834 -0.948472,-1.39495 -1.64654,-1.39849l0 0 -0.0129928 0 0 0 -21.0849 -0.0377971 0 0c-0.64137,0 -1.41149,0.518529 -1.41149,1.22723l-0.0106304 -0.0248044c0.0200797,-0.145283 -0.0236232,-0.36616 -0.00236232,-0.520892z"/>
  <path class="fil90" d="M15.2925 0.0283479l0.505537 0.00118116 0.543334 0 0.505537 -0.00118116 9.15754 -0.0177174 0.0649638 0.00354348c0.711059,0.0933117 0.935479,0.393326 1.25794,0.826812l0.0933117 0.125203 0.0437029 0.0696885 1.45873 2.99188 0.0543334 0.209065 0.0342537 0.963827 0 0.0236232c-0.0342537,2.80053 0.00118116,6.19991 0.0342537,9.46582 0.0212609,2.08829 0.120478,4.12934 0.122841,5.92824l0 0.494906 -0.496087 0.00354348 -11.8258 0.0543334 0 0.00708696 -0.777204 -0.00354348 -0.777204 0.00354348 0 -0.00708696 -11.8258 -0.0543334 -0.496087 -0.00354348 0 -0.494906c0.00236232,-1.79891 0.0248044,-3.83995 0.0460653,-5.92824 0.0330725,-3.26591 0.0685073,-6.66529 0.0342537,-9.46582l0 -0.0236232 0.0342537 -0.963827 0.0543334 -0.209065 1.53551 -2.99188 0.0437029 -0.0696885 0.0933117 -0.125203c0.322457,-0.433486 0.546877,-0.733501 1.25794,-0.826812l0.0649638 -0.00354348 9.15754 0.0177174zm0.777204 20.1494l12.101 -0.0555145c-0.00472464,-1.6678 -0.102761,-3.52576 -0.12166,-5.42507 -0.0342537,-3.26355 -0.0696885,-6.65938 -0.0342537,-9.46582l-0.0307102 -0.848073 -1.39023 -2.85841 -0.0673261 -0.0909494c-0.165362,-0.223239 -0.28466,-0.381515 -0.55987,-0.426399l-9.11974 0.0165362 0 0.00118116 -0.505537 0.00118116 -0.543334 0 -0.505537 -0.00118116 0 -0.00118116 -9.11974 -0.0165362c-0.27521,0.0448841 -0.394508,0.20316 -0.55987,0.426399l-0.0673261 0.0909494 -1.467 2.85841 -0.0307102 0.848073c0.0354348,2.80644 0,6.20227 -0.0342537,9.46582 -0.0188986,1.89931 -0.0401595,3.75727 -0.0448841,5.42507l12.101 0.0555145z"/>
  <path class="fil91" d="M4.05611 13.6117c0.144102,-0.0448841 0.300015,-0.0696885 0.463015,-0.0696885l9.34298 -0.0519711c-0.00118116,0.0354348 0.0803189,-0.0271667 0.0803189,0.0106304 0.424037,0.435848 1.75639,3.749 1.68433,4.4329 -0.0708696,0.683892 0.229145,0.438211 0.252768,0.551602 -0.0826812,0.277573 -0.308283,-0.343718 -0.387421,-0.84453 -0.109848,0.771298 -0.171268,1.78591 -0.329544,0.362616 -0.157094,-1.42212 -1.76465,-4.28407 -1.76465,-4.28407 -0.00118116,-0.0377971 -0.00118116,-0.0744131 -0.00118116,-0.109848l-9.34062 0.00236232z"/>
  <path class="fil91" d="M27.951 13.4948c-0.144102,-0.0448841 -0.300015,-0.0696885 -0.463015,-0.0696885l-9.49181 -0.0389783c-0.388602,0.435848 -0.71224,1.1599 -0.953197,1.84852 -0.314189,0.897682 -0.789015,1.75757 -0.737044,2.58202 0.0519711,0.84453 -0.0543334,0.438211 -0.0779566,0.551602 0.0826812,0.277573 0.133471,-0.342537 0.212609,-0.84453 0.109848,0.771298 -0.175993,1.78591 -0.0188986,0.363797 0.0685073,-0.622472 0.604754,-1.32881 1.04415,-2.14971 0.565776,-1.05596 1.05714,-2.17215 1.05714,-2.17215 0.00118116,-0.0377971 0.00118116,-0.0744131 0,-0.109848l9.42802 0.0389783z"/>
  <path class="fil92" d="M2.70131 13.7322c0,-0.186623 0.127565,-0.342537 0.257493,-0.420493 0.2445,-0.246863 0.777204,0.0968552 1.18825,0.0968552l9.22014 0.103942c-0.00118116,0.0354348 0.022442,-0.00944928 0.0236232,0.0283479 0.999262,1.78001 1.80718,2.84423 2.16507,3.68995 0.636646,1.50598 0.857523,1.58276 1.14573,0.433486 0.209065,-0.831537 0.758305,-2.68596 2.08829,-4.25926l8.92131 -0.0141739c0.729957,0 1.47409,-0.766573 1.46346,-0.160638 -0.0921305,5.62351 0.0129928,10.3092 -0.0413406,15.9339 -0.0059058,0.604754 -0.585856,1.11147 -1.30046,1.11147 -8.56459,0 -9.15399,0.0059058 -23.7614,0.0059058 -0.714602,0 -1.2981,-0.500812 -1.30046,-1.11265l-0.0696885 -15.4366z"/>
  <path class="fil93" d="M29.1345 29.0625l-0.00118116 0.100399c-0.0059058,0.604754 -0.585856,1.11265 -1.30046,1.11265 -8.56341,0 -9.15399,0.0059058 -23.7626,0.0059058 -0.713421,0 -1.29573,-0.499631 -1.2981,-1.11147l0 -0.107486 26.3623 0z"/>
  <path class="fil94" d="M4.69275 30.2861l-0.131109 0c-0.0921305,0 -0.184261,-0.00826812 -0.272848,-0.0248044l0 0.0248044 -0.131109 0c-0.181899,0 -0.360254,-0.0330725 -0.518529,-0.0933117 -0.279935,-0.238594 -0.648457,-0.574044 -0.648457,-0.942566 0,-8.17599 -0.00826812,-15.5169 -0.00826812,-15.596l0.059058 -0.145283c0.0248044,-0.0259855 0.236232,-0.0472464 0.251587,-0.0673261 0.0909494,0.00236232 0.190167,0.0129928 0.290565,0.029529 0.0543334,-0.0106304 0.106304,-0.0200797 0.113391,-0.029529 0.134652,0.00354348 0.285841,0.0283479 0.434667,0.0543334l-0.00944928 0.022442 -0.194891 0c-0.0318913,0.073232 0.135833,0.13229 0.066145,0.214971 0.00236232,0.812638 0.00826812,8.05197 0.00826812,15.5169 0,0.243319 0.120478,0.466558 0.311826,0.628377 0.105123,0.0921305 0.23387,0.164181 0.379153,0.212609l0 0.194891z"/>
  <path class="fil94" d="M27.3179 29.9838l0.129928 0c0.0933117,0 0.185442,-0.00826812 0.274029,-0.0248044l0.029529 0c0.18308,0 0.359073,-0.0330725 0.518529,-0.0933117 0.281116,-0.238594 0.648457,-0.574044 0.648457,-0.942566 0,-8.17599 0.00708696,-15.5441 0.00708696,-15.6232l-0.0578769 -0.145283c-0.0248044,-0.0259855 -0.237413,-0.0472464 -0.250406,-0.0673261 -0.0933117,0.00236232 -0.192529,0.0153551 -0.294109,0.0307102l-0.00944928 -0.0059058c-0.135833,0.00354348 -0.285841,0.0283479 -0.434667,0.0543334l0.00944928 0.022442 0.19371 0c0.0318913,0.073232 -0.135833,0.13229 -0.0673261,0.214971 -0.00236232,0.812638 -0.00708696,8.07914 -0.00708696,15.5441 0,0.243319 -0.119297,0.466558 -0.309464,0.628377 -0.106304,0.0921305 -0.236232,0.164181 -0.380334,0.212609l0 0.194891z"/>
  <path class="fil95" d="M29.1735 13.9294l-11.0793 0c-0.0921305,0.11221 0.198435,0.34608 0.272848,0.507899l-0.272848 0c-0.116935,0.141739 0.380334,0.480732 0.276392,0.618928l10.7793 0.0118116 0.0236232 -0.63074 -0.0188986 0 0.0188986 -0.507899zm-15.2216 0.507899l-0.278754 0.00118116c0.0626015,-0.155913 0.344899,-0.392145 0.278754,-0.50908l-10.9234 0.0649638c-0.0425218,0.115754 -0.401595,0.199616 -0.379153,0.353167 0.0519711,0 0.102761,0.141739 0.146464,0.327181 -0.0850436,0.0507899 -0.157094,0.108667 -0.146464,0.180718 0.160638,0 0.309464,1.35479 0.298834,1.20478 -0.0555145,-0.931936 0.887052,-1.02525 1.20596,-1.02525 0.649638,0 1.17525,0 1.6111,0 1.16344,0 2.43319,0 3.64152,0 0.910675,0 1.7871,0 4.26281,0 -0.073232,-0.135833 0.362616,-0.454747 0.282297,-0.597667z"/>
  <path class="fil96" d="M9.57449 13.242c0.979182,0.878783 2.11428,2.56076 2.33397,4.56164l0 12.2817 3.5234 0.0496087 0.0496087 0 0.00708696 0 0.399232 0 0.00708696 0 0.0496087 0 0.00708696 0 0.0507899 0 0.00708696 0 0.0507899 0 3.9498 0.00118116 0 -12.2817c0.219696,-2.00089 1.3418,-3.71947 2.32098,-4.59826 -0.718146,0 -2.44618,0 -3.16433,0 0,0.0330725 -0.556327,0.066145 -0.557508,0.10158 0,0 -0.700428,1.2603 -1.19888,2.45918 -0.217334,0.445298 -1.09848,0.892957 -1.16581,1.44928l0.287022 0.0200797 -0.296471 0.0437029 0.283479 0.0602392 -0.291747 0.0177174c-0.103942,0.766573 -0.19371,0.266942 -0.292928,-0.331906l-0.0141739 0.0897682 -0.0129928 -0.0897682c-0.103942,0.614203 -0.543334,1.12446 -0.649638,0.266942l-0.00118116 -0.0129928c-0.00826812,-0.103942 -0.0259855,-0.216152 -0.0507899,-0.334268l-0.00236232 -0.00708696c-0.0566957,-0.296471 -0.14292,-0.564595 -0.250406,-0.823269 -0.415768,-1.29337 -2.4391,-2.48044 -2.53477,-2.48162 -0.00118116,-0.0354348 -0.511442,-0.0803189 -0.511442,-0.113391 -0.718146,0 -1.61347,-0.328363 -2.33161,-0.328363z"/>
  <path class="fil97" d="M10.9848 13.2928c0.979182,0.878783 2.1131,2.55957 2.33279,4.56164l0 11.7915m5.36011 0l0 -11.7915c0.219696,-2.00207 1.3418,-3.71947 2.32098,-4.59826"/>
  <path class="fil98" d="M16.8953 28.2841l0.0141739 0 -0.00354348 0.552783 -0.00826812 1.06659 -0.00118116 0.232689 -0.755943 -0.00118116 -0.0188986 0 -0.00236232 0 -0.0200797 0 -0.00236232 0 -0.0188986 0 -0.00236232 0 -0.15237 0 -0.00236232 0 -0.0188986 0 -0.431124 -0.0165362 0 -0.271667 0 -0.537428 0 -0.00118116 0 -0.540972 0 -1.05005 0 -0.50908 0 -0.0330725 0 -0.511442 0 -1.05005 0 -0.542153 0.00708696 0 0 -0.0165362 0.0283479 0c-0.00944928,-0.088587 -0.0141739,-0.180718 -0.0141739,-0.282297l-0.00118116 0 0 -0.00236232 0 -0.271667 0 -0.540972 0.164181 0 0.0177174 0 0.106304 0 0.0236232 0.179536 0.646095 -0.022442 0.0271667 -0.157094 0.0944928 0 0.00472464 0 0.164181 0 0 0.230326 0.00708696 0 0 0.540972 0 0.145283 0 1.11502 0 0.146464 0 0.0153551 0.163 0 -0.00354348 0.552783 -0.00826812 1.06659 -0.00236232 0.513805zm-0.484276 -3.08755l-0.357892 0.0129928 0 0.387421 0 0.524435 0.0850436 0 0.00354348 -0.527979 0.159457 0 0.118116 0 0 -0.321276 -0.00826812 0 0 -0.0755943z"/>
  <path class="fil99" d="M15.9043 15.3149c0.0933117,-0.0200797 0.218515,-0.0236232 0.355529,0.0460653 0.461834,0.232689 1.23549,0.446479 1.66544,1.03115 0.686254,0.933117 0.127565,2.93755 0.0129928,3.12771 -0.0543334,0.0897682 -0.350805,0.0448841 -0.444116,0.45829 -0.105123,0.470102 -0.102761,0.96737 -0.0921305,1.08903 0.0118116,0.140558 -0.853979,0.144102 -1.52252,0.126384 -0.669718,0.0177174 -1.53551,0.0141739 -1.52488,-0.126384 0.0106304,-0.12166 0.0141739,-0.618928 -0.0909494,-1.08903 -0.0933117,-0.413406 -0.196073,-0.368522 -0.249225,-0.45829 -0.114573,-0.190167 -0.842167,-2.29972 -0.155913,-3.23402 0.429942,-0.583493 1.22959,-0.69216 1.6926,-0.924849 0.137015,-0.0696885 0.262218,-0.066145 0.353167,-0.0460653z"/>
  <path class="fil100" d="M14.7598 15.4012c0.159457,0.338993 0.321276,0.70279 0.463015,1.06068 -0.303558,-0.266942 -0.505537,-0.636646 -0.463015,-1.06068zm2.15916 1.50362c0.489,-1.36188 1.31936,-3.11354 1.49653,-3.3226 0.903588,0 1.82017,0.0118116 2.72376,0.0106304 -0.11221,0.0543334 -0.0944928,0.107486 -0.246863,0.158276 -0.494906,-0.145283 -3.26591,1.15517 -3.47261,3.41355 -0.205522,2.25956 -0.287022,-0.297652 -0.500812,-0.259855z"/>
  <path class="fil100" d="M10.2029 13.633l3.33323 0c0,0.0342537 0,0.0708696 0,0.108667 0,0 0.627196,1.11502 1.1351,2.29854 -0.327181,0.225602 -0.565776,0.602392 -0.623653,0.0767754 -0.0578769,-0.525616 -3.76318,-2.42138 -3.76318,-2.42138l-0.0815001 -0.0626015z"/>
  <path class="fil101" d="M22.2283 13.8101c0,0 1.06423,-0.179536 1.70441,-0.168906 0.636646,0.0118116 1.44928,0.155913 1.35597,0.175993 -0.200797,0.0460653 -2.92337,0.0921305 -3.06039,-0.00708696z"/>
  <path class="fil102" d="M10.5643 14.0097l-0.088587 -0.0425218 -7.12476 -0.0177174 -0.129928 0 -0.0720508 -0.111029c-0.510261,-0.12166 -0.355529,-0.375609 -0.157094,-0.666175l0.962646 -0.858704 -0.0248044 0.493725 0.00354348 0.0354348c-0.108667,0.177174 -0.118116,0.133471 0.095674,0.13229l0.0815001 0 6.75151 -0.0059058 0.318913 0.0779566 -0.614203 0.944928 -0.00236232 0.0177174zm9.88159 -1.02761l7.34682 0.0342537 0.0815001 0c0.21379,0 0.204341,0.0448841 0.095674,-0.13229l0.0389783 -0.360254 0.0484276 -0.276392 0.985088 0.924849c0.294109,0.429942 -0.159457,0.861066 -0.525616,0.861066l-7.38225 -0.0200797 -0.167725 -0.180718c-0.0165362,-0.0177174 -0.261036,0.0460653 -0.279935,0.0271667l-0.240957 -0.877602z"/>
  <path class="fil103" d="M28.9538 11.9616l0.60003 0.696885 0.00354348 0.00472464c0.155913,0.150007 0.314189,0.503174 0.395689,0.823269 0.0614203,0.243319 0.0838624,0.501993 0.0413406,0.706334 -0.0413406,2.95644 -0.0330725,5.55736 -0.0259855,8.19135 0.00708696,2.21349 0.0129928,4.45888 -0.00826812,6.9594 -0.00236232,0.451203 -0.218515,0.865791 -0.563414,1.1599l0.00118116 0.00118116c-0.318913,0.274029 -0.759486,0.448841 -1.23668,0.448841l0 -0.00236232 -8.66854 0.00236232 -15.674 0.00354348 0 0.00236232c-0.47837,0 -0.917762,-0.172449 -1.23904,-0.445298l-0.00236232 -0.00236232c-0.340174,-0.292928 -0.552783,-0.705153 -0.555145,-1.16226l-0.0708696 -15.6149 -0.00236232 -0.00236232c0,-0.124022 0.0283479,-0.246863 0.0791378,-0.363797l-0.00236232 -0.00118116c0.0389783,-0.0909494 0.0933117,-0.178355 0.157094,-0.25395 0.0377971,-0.0649638 0.0779566,-0.122841 0.12166,-0.186623l0.0259855 -0.0377971 0.0779566 -0.0897682 0.839805 -0.757124 0 1.34534 -0.133471 0.119297 -0.0791378 0.12166 -0.0874059 0.124022 0.0708696 15.5925 0 0.00236232c0,0.148826 0.0791378,0.294109 0.205522,0.403957 0.148826,0.126384 0.360254,0.206703 0.594124,0.206703l0 0.00236232 15.674 -0.00354348 8.66854 -0.00236232 0 -0.00236232c0.232689,0 0.441754,-0.0803189 0.587037,-0.205522l0.00236232 0c0.129928,-0.111029 0.212609,-0.258674 0.212609,-0.408682l0 -0.00118116c0.0212609,-2.49934 0.0141739,-4.74118 0.00826812,-6.95231 -0.00826812,-2.65761 -0.0153551,-5.27979 0.0271667,-8.26104 0.0779566,-0.229145 0.0448841,-0.492544 -0.125203,-0.731138l0.0803189 0 0 -1.43039zm1.0406 2.23121c-0.0188986,0.0933117 -0.0519711,0.174812 -0.100399,0.238594m-26.9458 -0.699247l0 0.00708696 0.00236232 -0.00708696 -0.00236232 0z"/>
  <path class="fil104" d="M10.4615 13.8184l0.465377 -0.842167 3.16551 0.531522 0 -0.0129928 0.0626015 0.0755943c-0.0259855,0.120478 -0.175993,0.647276 -0.255131,0.744131l-3.49033 -0.441754c0.0153551,-0.0177174 0.0330725,-0.036616 0.0519711,-0.0543334z"/>
  <path class="fil104" d="M21.6046 13.8184l-0.465377 -0.842167 -3.16551 0.531522 0 -0.0129928 -0.0626015 0.0755943c0.0259855,0.120478 0.175993,0.647276 0.255131,0.744131l3.49033 -0.441754c-0.0153551,-0.0177174 -0.0330725,-0.036616 -0.0519711,-0.0543334z"/>
  <polygon class="fil105" points="16.5138,15.2653 15.8642,15.2653 15.8642,29.4239 16.5138,29.4239 "/>
  <g id="_46269648">
   <polygon id="_46420528" class="fil106" points="15.472,25.6087 17.4138,25.6087 17.4138,26.445 15.472,26.445 "/>
   <rect id="_90265952" class="fil107" x="15.4835" y="25.4108" width="1.95885" height="0.506132"/>
  </g>
  <path class="fil108" d="M15.5098 22.3393c0.0248044,0.0673261 0.0496087,0.135833 0.0755943,0.204341 0,0.00472464 0,0.00944928 0,0.0153551 0.0897682,0 0.180718,0 0.271667,0 0,-0.0059058 0,-0.0106304 0,-0.0153551 0,-0.0342537 0,-0.0685073 0,-0.102761 0.133471,0 0.266942,0 0.400413,0 0,0.0342537 0,0.0685073 0,0.102761 0,0.19371 0,0.386239 0,0.581131 0,0.0330725 0,0.0673261 0,0.10158 -0.00118116,0 -0.00354348,0 -0.00472464,0 0,-0.0342537 0,-0.0685073 0,-0.10158 0,-0.150007 0,-0.298834 0,-0.44766 -0.134652,0 -0.268123,0 -0.401595,0 0,0.00472464 0,0.0106304 0,0.0153551 0,0.0342537 0,0.0685073 0,0.102761 -0.0909494,0 -0.180718,0 -0.271667,0 0,-0.0059058 0,-0.0106304 0,-0.0165362 -0.0248044,-0.0685073 -0.0507899,-0.135833 -0.0755943,-0.204341 -0.279935,0 -0.561051,0 -0.840986,0 0,-0.0330725 0,-0.0673261 0,-0.10158 0,-0.0106304 0,-0.0212609 0,-0.0318913 0,-0.0342537 0,-0.0673261 0,-0.10158 0.282297,0 0.564595,0 0.846892,0zm0.347261 0.236232c-0.00236232,0 -0.00472464,0 -0.0059058,0 0,0.0283479 0,0.0566957 0,0.0850436 0.00118116,0 0.00354348,0 0.0059058,0 0,-0.0283479 0,-0.0566957 0,-0.0850436z"/>
  <path class="fil109" d="M15.6173 21.0684l0.0543334 0.145283 0.0708696 0 0 -0.00354348 0 -0.114573 0.114573 0 0.401595 0 0.115754 0 0 0.114573 0 0.683892 0 0.114573 -0.115754 0 -0.401595 0 -0.114573 0 0 -0.114573 0 -0.00354348 -0.0744131 0 -0.0496087 0.14292 -0.0271667 0.0779566 -0.0803189 0 -0.846892 0 -0.114573 0 0 -0.115754 0 -0.887052 0 -0.114573 0.114573 0 0.846892 0 0.0779566 0 0.0283479 0.0744131zm-0.146464 0.263399l-0.0401595 -0.107486 -0.650819 0 0 0.656725 0.649638 0 0.0484276 -0.14292 0.0271667 -0.0767754 0.0815001 0 0.270486 0 0.115754 0 0 0.114573 0 0.00236232 0.171268 0 0 -0.452384 -0.171268 0 0 0.00236232 0 0.115754 -0.115754 0 -0.270486 0 -0.115754 0 0 -0.11221z"/>
  <polygon class="fil110" points="15.511,21.1085 15.5866,21.3129 15.5866,21.3282 15.8571,21.3282 15.8571,21.2101 16.2587,21.2101 16.2587,21.894 15.8571,21.894 15.8571,21.7759 15.5866,21.7759 15.511,21.9956 14.6641,21.9956 14.6641,21.1085 "/>
  <path class="fil108" d="M15.5051 21.1144l0.0755943 0.204341 0 0.0153551 0.270486 0 0 -0.0153551 0 -0.102761 0.401595 0 0 0.102761 0 0.581131 0 0.10158 -0.0059058 0 0 -0.10158 0 -0.44766 -0.400413 0 0 0.0153551 0 0.10158 -0.271667 0 0 -0.0153551 -0.0755943 -0.204341 -0.840986 0 0 -0.10158 0 -0.0318913 0 -0.10158 0.846892 0zm0.34608 0.236232l-0.00472464 0 0 0.0850436 0.00472464 0 0 -0.0850436z"/>
  <path class="fil111" d="M16.1559 24.9863c-0.0177174,0.0472464 -0.0354348,0.095674 -0.0543334,0.144102 -0.0236232,0 -0.0472464,0 -0.0708696,0 0,-0.00118116 0,-0.00236232 0,-0.00236232 0,-0.0389783 0,-0.0767754 0,-0.115754 -0.0377971,0 -0.0755943,0 -0.114573,0 -0.133471,0 -0.268123,0 -0.401595,0 -0.0377971,0 -0.0767754,0 -0.114573,0 0,0.0389783 0,0.0767754 0,0.115754 0,0.226783 0,0.454747 0,0.682711 0,0.0389783 0,0.0767754 0,0.115754 0.0377971,0 0.0767754,0 0.114573,0 0.133471,0 0.268123,0 0.401595,0 0.0389783,0 0.0767754,0 0.114573,0 0,-0.0389783 0,-0.0767754 0,-0.115754 0,-0.00118116 0,-0.00118116 0,-0.00236232 0.0259855,0 0.0496087,0 0.0744131,0 0.0165362,0.0472464 0.0330725,0.0944928 0.0496087,0.141739 0.00944928,0.0259855 0.0177174,0.0519711 0.0271667,0.0779566 0.0271667,0 0.0543334,0 0.0815001,0 0.282297,0 0.563414,0 0.845711,0 0.0389783,0 0.0767754,0 0.115754,0 0,-0.0389783 0,-0.0767754 0,-0.114573 0,-0.296471 0,-0.591761 0,-0.888233 0,-0.0377971 0,-0.0767754 0,-0.114573 -0.0389783,0 -0.0767754,0 -0.115754,0 -0.282297,0 -0.563414,0 -0.845711,0 -0.0271667,0 -0.0531522,0 -0.0791378,0 -0.00944928,0.0248044 -0.0188986,0.0496087 -0.0283479,0.0755943zm0.146464 0.262218c0.0129928,-0.0354348 0.0271667,-0.0720508 0.0401595,-0.107486 0.217334,0 0.434667,0 0.652001,0 0,0.218515 0,0.438211 0,0.656725 -0.217334,0 -0.433486,0 -0.649638,0 -0.0165362,-0.0472464 -0.0330725,-0.0944928 -0.0496087,-0.141739 -0.00826812,-0.0259855 -0.0177174,-0.0519711 -0.0271667,-0.0779566 -0.0271667,0 -0.0543334,0 -0.0815001,0 -0.0897682,0 -0.180718,0 -0.270486,0 -0.0389783,0 -0.0767754,0 -0.115754,0 0,0.0377971 0,0.0767754 0,0.114573 0,0.00118116 0,0.00236232 0,0.00354348 -0.0566957,0 -0.113391,0 -0.170087,0 0,-0.151189 0,-0.302377 0,-0.453566 0.0566957,0 0.113391,0 0.170087,0 0,0.00118116 0,0.00236232 0,0.00236232 0,0.0389783 0,0.0767754 0,0.115754 0.0389783,0 0.0767754,0 0.115754,0 0.0897682,0 0.180718,0 0.270486,0 0.0389783,0 0.0767754,0 0.115754,0 0,-0.0377971 0,-0.0755943 0,-0.11221z"/>
  <path class="fil110" d="M16.2634 25.0252c-0.0259855,0.0685073 -0.0507899,0.135833 -0.0767754,0.204341 0,0.00472464 0,0.0106304 0,0.0153551 -0.0897682,0 -0.180718,0 -0.270486,0 0,-0.0389783 0,-0.0779566 0,-0.116935 -0.133471,0 -0.268123,0 -0.401595,0 0,0.226783 0,0.454747 0,0.682711 0.133471,0 0.268123,0 0.401595,0 0,-0.0389783 0,-0.0791378 0,-0.118116 0.0897682,0 0.180718,0 0.270486,0 0.0259855,0.073232 0.0507899,0.146464 0.0767754,0.220877 0.282297,0 0.563414,0 0.845711,0 0,-0.296471 0,-0.591761 0,-0.888233 -0.282297,0 -0.563414,0 -0.845711,0z"/>
  <path class="fil108" d="M16.2693 25.0312c-0.0259855,0.0673261 -0.0507899,0.135833 -0.0767754,0.204341 0,0.00472464 0,0.00944928 0,0.0153551 -0.0897682,0 -0.180718,0 -0.270486,0 0,-0.0059058 0,-0.0106304 0,-0.0153551 0,-0.0342537 0,-0.0685073 0,-0.102761 -0.133471,0 -0.268123,0 -0.401595,0 0,0.0342537 0,0.0685073 0,0.102761 0,0.19371 0,0.387421 0,0.581131 0,0.0330725 0,0.0673261 0,0.10158 0.00118116,0 0.00354348,0 0.0059058,0 0,-0.0342537 0,-0.0685073 0,-0.10158 0,-0.150007 0,-0.298834 0,-0.44766 0.133471,0 0.266942,0 0.401595,0 0,0.00472464 0,0.0106304 0,0.0153551 0,0.0342537 0,0.0685073 0,0.102761 0.0897682,0 0.180718,0 0.270486,0 0,-0.0059058 0,-0.0106304 0,-0.0165362 0.0259855,-0.0685073 0.0507899,-0.135833 0.0755943,-0.20316 0.281116,0 0.561051,0 0.840986,0 0,-0.0342537 0,-0.0685073 0,-0.102761 0,-0.0106304 0,-0.0212609 0,-0.0318913 0,-0.0342537 0,-0.0673261 0,-0.10158 -0.282297,0 -0.563414,0 -0.845711,0zm-0.347261 0.236232c0.00118116,0 0.00354348,0 0.0059058,0 0,0.0283479 0,0.0566957 0,0.0850436 -0.00236232,0 -0.00472464,0 -0.0059058,0 0,-0.0283479 0,-0.0566957 0,-0.0850436z"/>
  <path class="fil109" d="M16.1654 21.3247l-0.0543334 0.145283 -0.0708696 0 0 -0.00236232 0 -0.115754 -0.114573 0 -0.401595 0 -0.115754 0 0 0.115754 0 0.682711 0 0.115754 0.115754 0 0.401595 0 0.114573 0 0 -0.115754 0 -0.00236232 0.0744131 0 0.0496087 0.141739 0.0271667 0.0779566 0.0815001 0 0.845711 0 0.114573 0 0 -0.114573 0 -0.888233 0 -0.114573 -0.114573 0 -0.845711 0 -0.0791378 0 -0.0283479 0.0744131zm0.146464 0.263399l0.0401595 -0.107486 0.650819 0 0 0.656725 -0.648457 0 -0.0496087 -0.141739 -0.0271667 -0.0779566 -0.0815001 0 -0.270486 0 -0.115754 0 0 0.114573 0 0.00354348 -0.171268 0 0 -0.453566 0.171268 0 0 0.00236232 0 0.115754 0.115754 0 0.270486 0 0.115754 0 0 -0.11221z"/>
  <polygon class="fil110" points="16.2728,21.3648 16.1961,21.5692 16.1961,21.5845 15.9256,21.5845 15.9256,21.4676 15.524,21.4676 15.524,22.1503 15.9256,22.1503 15.9256,22.0322 16.1961,22.0322 16.2728,22.2531 17.1186,22.2531 17.1186,21.3648 "/>
  <path class="fil108" d="M16.2788 21.3707l-0.0767754 0.204341 0 0.0153551 -0.270486 0 0 -0.0153551 0 -0.10158 -0.401595 0 0 0.10158 0 0.581131 0 0.10158 0.0059058 0 0 -0.10158 0 -0.44766 0.401595 0 0 0.0165362 0 0.10158 0.270486 0 0 -0.0165362 0.0755943 -0.20316 0.840986 0 0 -0.102761 0 -0.0318913 0 -0.10158 -0.845711 0zm-0.347261 0.236232l0.0059058 0 0 0.0850436 -0.0059058 0 0 -0.0850436z"/>
  <path class="fil108" d="M15.889 13.8916c0.088587,-0.0200797 0.210247,-0.022442 0.341355,0.0437029 0.444116,0.223239 0.986269,0.810276 1.39849,1.37133 0.659088,0.897682 0.256312,1.33825 0.146464,1.52133 -0.0519711,0.0862247 -0.243319,0.388602 -0.333087,0.785472 -0.10158,0.451203 -0.0980363,0.929573 -0.088587,1.04651 0.0118116,0.134652 -0.820907,0.138196 -1.46464,0.12166 -0.643732,0.0165362 -1.47527,0.0129928 -1.46464,-0.12166 0.0106304,-0.116935 0.0129928,-0.595305 -0.088587,-1.04651 -0.0897682,-0.39687 -0.281116,-0.699247 -0.331906,-0.785472 -0.109848,-0.18308 -0.513805,-0.623653 0.146464,-1.52133 0.412225,-0.561051 0.953197,-1.14809 1.39849,-1.37133 0.131109,-0.066145 0.251587,-0.0637827 0.340174,-0.0437029z"/>
  <path class="fil112" d="M15.8925 12.7719c0.0602392,-0.00826812 0.126384,-0.0106304 0.196073,-0.00472464l0 -0.00236232c0.106304,0.00826812 0.225602,0.0401595 0.343718,0.100399 0.266942,0.134652 0.556327,0.362616 0.833899,0.635464 0.309464,0.303558 0.615385,0.669718 0.872878,1.0217l0 0c0.216152,0.294109 0.34608,0.556327 0.414587,0.786653l0 0c0.0649638,0.217334 0.0803189,0.409863 0.066145,0.574044 0.171268,0.629559 -0.0767754,1.00989 -0.214971,1.2225l-0.0377971 0.0578769 -0.00118116 0.00354348 -0.00708696 0.0106304c-0.066145,0.108667 -0.237413,0.399232 -0.318913,0.755943 -0.0377971,0.172449 -0.0649638,0.360254 -0.0779566,0.531522 -0.0212609,0.263399 -0.0188986,0.472464 -0.0129928,0.540972l0.00236232 0.0307102 0 0.00236232 -0.00236232 0.0106304c-0.0059058,0.210247 -0.139377,0.343718 -0.368522,0.408682l0 0c-0.0897682,0.0259855 -0.210247,0.0460653 -0.348442,0.0578769 -0.338993,0.029529 -0.853979,0.0271667 -1.29455,0.0129928 -0.439392,0.0141739 -0.954378,0.0165362 -1.29573,-0.0129928 -0.135833,-0.0118116 -0.257493,-0.0318913 -0.348442,-0.0578769l0 0c-0.230326,-0.0649638 -0.368522,-0.192529 -0.368522,-0.419312l0 -0.00236232 0.00118116 -0.0248044 0.00472464 -0.175993 -0.00472464 -0.114573c-0.0413406,-0.0708696 -0.0578769,-0.147645 -0.0519711,-0.232689l0.00236232 -0.00472464 0.00236232 -0.146464 0.00236232 0 -0.00708696 -0.190167 -0.0401595 -0.21379c-0.0826812,-0.36616 -0.261036,-0.66145 -0.322457,-0.764211l-0.00944928 -0.0141739 0 0 -0.0307102 -0.0496087c-0.116935,-0.179536 -0.311826,-0.479551 -0.268123,-0.954378 -0.0531522,-0.177174 -0.0767754,-0.394508 -0.0307102,-0.652001 0.0496087,-0.276392 0.186623,-0.602392 0.461834,-0.97682 0.257493,-0.351986 0.562232,-0.718146 0.872878,-1.0217 0.277573,-0.272848 0.565776,-0.500812 0.833899,-0.635464 0.118116,-0.0602392 0.237413,-0.0921305 0.344899,-0.100399l0 0.00118116c0.0779566,-0.00472464 0.146464,-0.00236232 0.206703,0.0059058zm0.120478 1.07486c-0.0188986,-0.00118116 -0.0389783,0.00118116 -0.0555145,0.00472464l-0.133471 0.00236232c-0.0188986,-0.00472464 -0.0401595,-0.00708696 -0.0566957,-0.00708696l-0.00472464 0.00236232c-0.0177174,0.00118116 -0.0413406,0.00826812 -0.0649638,0.0200797 -0.168906,0.0850436 -0.36616,0.243319 -0.563414,0.437029 -0.239776,0.236232 -0.481913,0.523254 -0.687435,0.805551 -0.177174,0.240957 -0.262218,0.434667 -0.289384,0.589399 -0.0236232,0.127565 -0.00472464,0.230326 0.0236232,0.307102l0.0188986 0.158276c-0.0354348,0.22442 0.0649638,0.377971 0.122841,0.466558l0.00472464 0.0059058 0.0318913 0.0507899 0.00236232 0.00472464 0.00826812 0.0129928 0 0.00354348c0.066145,0.106304 0.258674,0.425218 0.354348,0.840986 0.0177174,0.088587 0.0354348,0.170087 0.0460653,0.238594l0.00118116 0.0377971 0.00708696 0.199616 0 0.00354348 0.029529 0.0153551 0.0059058 0.185442 0.00708696 0.197254 0.0472464 0.00708696c0.283479,0.022442 0.70279,0.0200797 1.05596,0.0118116l0.0165362 0c0.354348,0.00826812 0.774841,0.0106304 1.05832,-0.0118116l0.0472464 -0.00708696c0,-0.095674 0.00472464,-0.210247 0.0153551,-0.333087 0.0141739,-0.165362 0.0401595,-0.353167 0.0826812,-0.542153l0 -0.00236232c0.095674,-0.422855 0.292928,-0.745312 0.355529,-0.848073l0.00708696 -0.0118116 0.0059058 -0.00826812 0 0 0.0307102 -0.0472464c0.0673261,-0.103942 0.192529,-0.296471 0.0944928,-0.60003l-0.0118116 -0.137015c0.0118116,-0.0803189 0.00708696,-0.180718 -0.0283479,-0.296471l0 -0.00236232c-0.0413406,-0.135833 -0.122841,-0.298834 -0.263399,-0.487819l-0.00118116 -0.00118116c-0.205522,-0.282297 -0.448841,-0.569319 -0.687435,-0.805551 -0.197254,-0.19371 -0.394508,-0.351986 -0.563414,-0.437029 -0.0248044,-0.0118116 -0.0472464,-0.0188986 -0.066145,-0.0200797l-0.00354348 -0.00236232z"/>
  <path class="fil113" d="M15.9339 14.3511c0.088587,-0.0200797 0.210247,-0.0236232 0.341355,0.0425218 0.444116,0.22442 0.986269,0.811457 1.39849,1.37251 0.659088,0.897682 0.256312,1.33707 0.146464,1.52015 -0.0507899,0.0862247 -0.243319,0.388602 -0.331906,0.786653 -0.102761,0.450022 -0.0992175,0.928392 -0.0897682,1.04533 0.0118116,0.135833 -0.820907,0.139377 -1.46464,0.12166 -0.642551,0.0177174 -1.47527,0.0141739 -1.46346,-0.12166 0.00944928,-0.116935 0.0118116,-0.595305 -0.0897682,-1.04533 -0.088587,-0.398051 -0.281116,-0.700428 -0.331906,-0.786653 -0.109848,-0.18308 -0.512624,-0.622472 0.146464,-1.52015 0.412225,-0.561051 0.954378,-1.14809 1.39849,-1.37251 0.131109,-0.066145 0.251587,-0.0626015 0.340174,-0.0425218z"/>
  <path class="fil114" d="M14.5047 19.5588l2.63517 0c0.277573,0 1.19297,-0.674443 1.22723,-0.419312l0.511442 8.95556c0.0153551,0.256312 -0.342537,0.588218 -0.616566,0.585856l-4.68684 0.0271667c-0.274029,0 -0.530341,-0.212609 -0.505537,-0.471283l0.870515 -8.98273c0.0259855,-0.257493 0.289384,0.304739 0.564595,0.304739z"/>
  <path class="fil115" d="M14.4232 17.4576l3.11118 0 0.00236232 0c0.387421,0 0.737044,0.164181 0.986269,0.414587l0.00236232 -0.00236232c0.252768,0.252768 0.406319,0.607116 0.405138,0.988631l0.00354348 0 0 0.00236232 -0.00354348 0 0 0.0059058 -0.0248044 6.76569 0 0.00826812c-0.00354348,0.377971 -0.160638,0.727595 -0.405138,0.975639 -0.251587,0.256312 -0.603573,0.419312 -0.990994,0.419312l-3.11118 0 -0.00236232 0c-0.381515,0 -0.73232,-0.160638 -0.983907,-0.413406l-0.00236232 0.00236232c-0.249225,-0.249225 -0.4075,-0.597667 -0.406319,-0.989812l-0.00354348 0 0 -0.00236232 0.00354348 0 0 -0.0059058 0.0248044 -6.76569 0 -0.00826812c0.00354348,-0.377971 0.158276,-0.728776 0.402776,-0.97682 0.25395,-0.257493 0.604754,-0.418131 0.992175,-0.418131zm2.51351 1.99852l-1.91939 0 -0.00944928 2.97062 0.00236232 0 1.91112 -0.0248044 0.00354348 0 0.00236232 0 0.00944928 -2.94581zm-0.695704 3.89783l-0.520892 0.0059058 -0.022442 0.294109 0.565776 -0.00944928 -0.022442 -0.290565z"/>
  <path class="fil107" d="M14.4232 18.4568l3.11118 0c0.220877,0 0.400413,0.187805 0.400413,0.403957l-0.0248044 6.77159c0,0.214971 -0.185442,0.403957 -0.400413,0.403957l-3.11118 0c-0.21379,0 -0.400413,-0.181899 -0.399232,-0.403957l0.0248044 -6.77159c0.00118116,-0.222058 0.179536,-0.403957 0.399232,-0.403957z"/>
  <polygon class="fil116" points="14.2448,20.4045 17.6158,20.4045 17.6158,21.9235 14.2448,21.9235 "/>
  <path class="fil108" d="M14.9452 18.3292l1.9997 0c0.210247,0 0.382696,0.174812 0.382696,0.387421 0,8.91304 -0.0236232,7.47911 -0.0236232,0.326 0,-0.212609 -0.171268,-0.386239 -0.381515,-0.386239l-1.9997 0c-0.164181,0 -0.305921,0.106304 -0.359073,0.25395l0 -0.19371c0,-0.212609 0.171268,-0.387421 0.381515,-0.387421z"/>
  <rect class="fil108" x="14.4644" y="18.3816" width="2.98234" height="0.387861"/>
  <path class="fil117" style="mask:url(#id0)" d="M15.6775 16.4441c0.281116,-0.036616 0.245681,-0.073232 0.525616,-0.111029 0.196073,-0.0259855 0.321276,0.103942 0.360254,0.210247 0.524435,1.45519 0.572863,2.54068 0.190167,3.57419 -0.0389783,0.106304 -0.163,0.19371 -0.360254,0.210247 -0.266942,0.022442 -0.533885,0.0448841 -0.799646,0.0685073 -0.197254,0.0165362 -0.206703,-0.12166 -0.23387,-0.23387 -0.291747,-1.16817 -0.489,-2.33752 -0.0425218,-3.50568 0.0413406,-0.108667 0.164181,-0.185442 0.360254,-0.212609z"/>
  <path class="fil107" d="M15.2571 15.8677l1.55441 0c0.165362,0 0.300015,0.108667 0.300015,0.227964l-0.0259855 4.23328c0,0.119297 -0.141739,0.227964 -0.300015,0.227964l-1.55441 0c-0.158276,0 -0.301196,-0.102761 -0.300015,-0.227964l0.0259855 -4.23328c0.00118116,-0.125203 0.134652,-0.227964 0.300015,-0.227964z"/>
  <polygon class="fil108" points="16.9863,16.0969 16.9863,17.3383 15.0704,17.3383 15.0704,16.0969 "/>
  <polygon class="fil111" points="16.9556,18.6966 16.9815,17.0878 15.0669,17.0878 15.0409,18.6966 "/>
  <polygon class="fil107" points="16.9591,20.8321 16.9591,19.9746 15.022,19.9746 15.022,20.8321 "/>
  <path class="fil118" d="M-31.7898 -57.2721l-1.08194 0 -0.429942 -1.11856 -1.96781 0 -0.405138 1.11856 -1.05478 0 1.91702 -4.92308 1.05123 0 1.97136 4.92308zm-1.82962 -1.94773l-0.679167 -1.82607 -0.664993 1.82607 1.34416 0z"/>
  <path class="fil118" d="M-31.2606 -57.2721l0 -4.92308 2.09302 0c0.525616,0 0.907131,0.0448841 1.14573,0.133471 0.238594,0.088587 0.429942,0.245681 0.572863,0.471283 0.144102,0.226783 0.214971,0.484276 0.214971,0.776022 0,0.368522 -0.108667,0.674443 -0.326,0.915399 -0.216152,0.239776 -0.542153,0.392145 -0.974457,0.453566 0.216152,0.126384 0.393326,0.263399 0.533885,0.414587 0.139377,0.150007 0.327181,0.415768 0.564595,0.798464l0.601211 0.960283 -1.18825 0 -0.718146 -1.07131c-0.256312,-0.382696 -0.429942,-0.623653 -0.524435,-0.724051 -0.0933117,-0.0992175 -0.19371,-0.166544 -0.298834,-0.204341 -0.105123,-0.036616 -0.271667,-0.0555145 -0.500812,-0.0555145l-0.200797 0 0 2.05522 -0.994537 0zm0.994537 -2.84069l0.734682 0c0.477189,0 0.774841,-0.0200797 0.894138,-0.0602392 0.118116,-0.0401595 0.211428,-0.109848 0.278754,-0.209065 0.066145,-0.0980363 0.100399,-0.220877 0.100399,-0.368522 0,-0.166544 -0.0448841,-0.298834 -0.13229,-0.401595 -0.088587,-0.10158 -0.21379,-0.165362 -0.375609,-0.19371 -0.0803189,-0.00944928 -0.321276,-0.0153551 -0.725233,-0.0153551l-0.774841 0 0 1.24849z"/>
  <path class="fil118" d="M-23.1472 -59.0816l0.962646 0.304739c-0.148826,0.537428 -0.393326,0.93666 -0.737044,1.1977 -0.342537,0.259855 -0.779566,0.390964 -1.30754,0.390964 -0.654363,0 -1.19179,-0.223239 -1.61228,-0.669718 -0.420493,-0.446479 -0.63074,-1.05714 -0.63074,-1.8308 0,-0.819725 0.211428,-1.45637 0.634283,-1.90994 0.422855,-0.452384 0.979182,-0.679167 1.66898,-0.679167 0.601211,0 1.09139,0.177174 1.467,0.533885 0.22442,0.209065 0.392145,0.511442 0.504356,0.90595l-0.985088 0.235051c-0.0566957,-0.255131 -0.178355,-0.457109 -0.363797,-0.604754 -0.184261,-0.147645 -0.409863,-0.220877 -0.673261,-0.220877 -0.363797,0 -0.66145,0.129928 -0.888233,0.392145 -0.226783,0.262218 -0.340174,0.686254 -0.340174,1.27211 0,0.622472 0.111029,1.06659 0.33545,1.32999 0.22442,0.26458 0.514986,0.39687 0.872878,0.39687 0.26458,0 0.491363,-0.0838624 0.68153,-0.252768 0.190167,-0.166544 0.327181,-0.431124 0.411044,-0.791378z"/>
  <path class="fil119" d="M15.0303 15.0681l1.95836 0c0.111029,0 0.624834,0.00472464 0.694522,0.088587 0.0685073,0.0826812 0.111029,0.19371 0.111029,0.31537l-0.0318913 5.41326c0,0.120478 -0.0437029,0.232689 -0.111029,0.314189l-0.00118116 0c-0.0720508,0.0862247 -0.786653,0.190167 -0.89532,0.190167l-1.57803 0c-0.109848,0 -0.778385,-0.0543334 -0.849254,-0.138196l-0.00118116 -0.00118116c-0.0685073,-0.0815001 -0.111029,-0.192529 -0.111029,-0.314189l0.0330725 -5.41444c0,-0.12166 0.0425218,-0.232689 0.109848,-0.314189 0.0708696,-0.0850436 0.562232,-0.139377 0.67208,-0.139377zm1.91939 0.966189l-1.88159 0 -0.0318913 4.74945 1.88159 0 0.0318913 -4.74945z"/>
  <polygon class="fil111" points="14.7066,22.9499 17.3205,22.9499 17.3205,24.9768 14.7066,24.9768 "/>
  <path class="fil108" d="M17.3749 24.8941c-0.0496087,0.0507899 -0.135833,0.0838624 -0.23387,0.0850436l-2.23357 0.0153551c-0.106304,0 -0.20316,-0.0413406 -0.248044,-0.100399l-0.0531522 0c0,0.290565 -0.0212609,0.585856 -0.0212609,0.889414 0,0.0968552 0.124022,0.175993 0.274029,0.175993l2.23476 -0.0165362c0.151189,-0.00118116 0.274029,-0.0779566 0.274029,-0.174812 0,-0.343718 0.0212609,-0.522073 0.0212609,-0.874059l-0.0141739 0z"/>
 </g>
</svg>
