<?xml version="1.0" encoding="UTF-8" standalone="no"?>
<!-- Created with Inkscape (http://www.inkscape.org/) -->

<svg
   xmlns:dc="http://purl.org/dc/elements/1.1/"
   xmlns:cc="http://creativecommons.org/ns#"
   xmlns:rdf="http://www.w3.org/1999/02/22-rdf-syntax-ns#"
   xmlns:svg="http://www.w3.org/2000/svg"
   xmlns="http://www.w3.org/2000/svg"
   xmlns:sodipodi="http://sodipodi.sourceforge.net/DTD/sodipodi-0.dtd"
   xmlns:inkscape="http://www.inkscape.org/namespaces/inkscape"
   width="32"
   height="32"
   id="svg2"
   version="1.1"
   inkscape:version="0.48.3.1 r9886"
   sodipodi:docname="32.svg">
  <defs
     id="defs4">
    <linearGradient
       gradientTransform="translate(10.499,9.75)"
       y2="3"
       x2="-0.75"
       y1="0"
       x1="0"
       gradientUnits="userSpaceOnUse"
       id="LinearGradient_21-032">
      <stop
         id="stop81201"
         stop-color="#ffffff"
         offset="0" />
      <stop
         id="stop81203"
         stop-color="#cccccc"
         offset="1" />
    </linearGradient>
    <linearGradient
       gradientTransform="translate(17.999,6.75)"
       y2="3"
       x2="0"
       y1="0"
       x1="0"
       gradientUnits="userSpaceOnUse"
       id="LinearGradient_20-413">
      <stop
         id="stop81196"
         stop-color="#ffffff"
         offset="0" />
      <stop
         id="stop81198"
         stop-color="#e4e3e3"
         offset="1" />
    </linearGradient>
    <linearGradient
       gradientTransform="matrix(0.37462601,-0.92717601,0.93686843,0.35063788,13.795,14.214)"
       y2="0"
       x2="3.355"
       y1="0"
       x1="0"
       gradientUnits="userSpaceOnUse"
       id="LinearGradient_19-6">
      <stop
         id="stop81191"
         stop-color="#ff8e47"
         offset="0" />
      <stop
         id="stop81193"
         stop-color="#ce6733"
         offset="1" />
    </linearGradient>
    <linearGradient
       gradientTransform="matrix(0.37462601,-0.92717601,0.93686843,0.35063788,13.795,14.214)"
       y2="0"
       x2="3.355"
       y1="0"
       x1="0"
       gradientUnits="userSpaceOnUse"
       id="LinearGradient_18-37">
      <stop
         id="stop81186"
         stop-color="#ff8e47"
         offset="0" />
      <stop
         id="stop81188"
         stop-color="#ce6733"
         offset="1" />
    </linearGradient>
    <linearGradient
       gradientTransform="matrix(0,1,-1,0,11.999,15)"
       y2="0"
       x2="1.5"
       y1="0"
       x1="0"
       gradientUnits="userSpaceOnUse"
       id="LinearGradient_17-37">
      <stop
         id="stop81181"
         stop-color="#f5f4f4"
         offset="0" />
      <stop
         id="stop81183"
         stop-color="#cbcbcb"
         offset="1" />
    </linearGradient>
    <linearGradient
       gradientTransform="matrix(0.37729615,-0.92609266,0.9377255,0.34874276,13.57,14.55)"
       y2="0"
       x2="2.915"
       y1="0"
       x1="0"
       gradientUnits="userSpaceOnUse"
       id="LinearGradient_16-389">
      <stop
         id="stop81176"
         stop-color="#ff8e47"
         offset="0" />
      <stop
         id="stop81178"
         stop-color="#e2753e"
         offset="1" />
    </linearGradient>
    <linearGradient
       gradientTransform="matrix(-0.06760086,-0.99771245,0.99813892,-0.06130657,14.67,19.499)"
       y2="0"
       x2="4.659"
       y1="0"
       x1="0"
       gradientUnits="userSpaceOnUse"
       id="LinearGradient_15-62">
      <stop
         id="stop81171"
         stop-color="#c9ed74"
         offset="0" />
      <stop
         id="stop81173"
         stop-color="#aed458"
         offset="1" />
    </linearGradient>
    <linearGradient
       gradientTransform="matrix(-0.76244251,0.64705596,-0.6821734,-0.73263968,11.842,13.951)"
       y2="0"
       x2="1.854"
       y1="0"
       x1="0"
       gradientUnits="userSpaceOnUse"
       id="LinearGradient_14-28">
      <stop
         id="stop81166"
         stop-color="#dbdbdb"
         offset="0" />
      <stop
         id="stop81168"
         stop-color="#ffffff"
         offset="1" />
    </linearGradient>
    <linearGradient
       gradientTransform="matrix(0.29997497,-0.95394707,0.96178265,0.27505714,7.287,16.5)"
       y2="0"
       x2="1.573"
       y1="0"
       x1="0"
       gradientUnits="userSpaceOnUse"
       id="LinearGradient_13-62">
      <stop
         id="stop81161"
         stop-color="#cecece"
         offset="0" />
      <stop
         id="stop81163"
         stop-color="#ffffff"
         offset="1" />
    </linearGradient>
    <linearGradient
       gradientTransform="matrix(-0.20552101,-0.9786527,0.98239061,-0.1877218,8.858,18.3)"
       y2="0"
       x2="1.532"
       y1="0"
       x1="0"
       gradientUnits="userSpaceOnUse"
       id="LinearGradient_12-407">
      <stop
         id="stop81156"
         stop-color="#ffffff"
         offset="0" />
      <stop
         id="stop81158"
         stop-color="#cfcfcf"
         offset="1" />
    </linearGradient>
    <linearGradient
       gradientTransform="matrix(0.92021955,0.39140258,-0.42231513,0.90707133,10.272,18.75)"
       y2="0"
       x2="1.535"
       y1="0"
       x1="0"
       gradientUnits="userSpaceOnUse"
       id="LinearGradient_11-41">
      <stop
         id="stop81151"
         stop-color="#ffffff"
         offset="0" />
      <stop
         id="stop81153"
         stop-color="#cbcbcb"
         offset="1" />
    </linearGradient>
    <linearGradient
       gradientTransform="translate(11.999,12.75)"
       y2="3.068"
       x2="0.001"
       y1="0"
       x1="0"
       gradientUnits="userSpaceOnUse"
       id="LinearGradient_10-93">
      <stop
         id="stop81146"
         stop-color="#ffffff"
         offset="0" />
      <stop
         id="stop81148"
         stop-color="#dddddd"
         offset="1" />
    </linearGradient>
    <linearGradient
       gradientTransform="translate(16.499,20.25)"
       y2="0"
       x2="4.5"
       y1="0"
       x1="0"
       gradientUnits="userSpaceOnUse"
       id="LinearGradient_9-979">
      <stop
         id="stop81139"
         stop-color="#8d8d8d"
         offset="0" />
      <stop
         id="stop81141"
         stop-color="#ffffff"
         offset="0.484333336353302" />
      <stop
         id="stop81143"
         stop-color="#878787"
         offset="1" />
    </linearGradient>
    <linearGradient
       gradientTransform="translate(13.999,9)"
       y2="7"
       x2="0"
       y1="0"
       x1="0"
       gradientUnits="userSpaceOnUse"
       id="LinearGradient_8-660">
      <stop
         id="stop81134"
         stop-color="#636363"
         offset="0" />
      <stop
         id="stop81136"
         stop-color="#979696"
         offset="1" />
    </linearGradient>
    <linearGradient
       gradientTransform="translate(1.695,4.876)"
       y2="0"
       x2="20.608"
       y1="0"
       x1="0"
       gradientUnits="userSpaceOnUse"
       id="LinearGradient_7-86">
      <stop
         id="stop81125"
         stop-color="#cccccc"
         offset="0" />
      <stop
         id="stop81127"
         stop-color="#ffffff"
         offset="5.35826943814754E-02" />
      <stop
         id="stop81129"
         stop-color="#ffffff"
         offset="0.936937689781189" />
      <stop
         id="stop81131"
         stop-color="#cccccc"
         offset="1" />
    </linearGradient>
    <linearGradient
       gradientTransform="translate(13.499,23.25)"
       y2="-17.25"
       x2="0"
       y1="0"
       x1="0"
       gradientUnits="userSpaceOnUse"
       id="LinearGradient_6-4814">
      <stop
         id="stop81120"
         stop-color="#d7d6d6"
         offset="0" />
      <stop
         id="stop81122"
         stop-color="#ededed"
         offset="1" />
    </linearGradient>
    <linearGradient
       gradientTransform="translate(1.499,3.001)"
       y2="0"
       x2="2.252"
       y1="0"
       x1="0"
       gradientUnits="userSpaceOnUse"
       id="LinearGradient_5-46">
      <stop
         id="stop81115"
         stop-color="#8d8d8d"
         offset="0" />
      <stop
         id="stop81117"
         stop-color="#434343"
         offset="1" />
    </linearGradient>
    <linearGradient
       gradientTransform="matrix(0,-1,1,0,13.928,2.748)"
       y2="0"
       x2="0.498"
       y1="0"
       x1="0"
       gradientUnits="userSpaceOnUse"
       id="LinearGradient_4-72">
      <stop
         id="stop81110"
         stop-color="#222222"
         offset="0" />
      <stop
         id="stop81112"
         stop-color="#565656"
         offset="1" />
    </linearGradient>
    <linearGradient
       gradientTransform="matrix(0,-1,1,0,15.428,2.748)"
       y2="0"
       x2="0.498"
       y1="0"
       x1="0"
       gradientUnits="userSpaceOnUse"
       id="LinearGradient_3-14">
      <stop
         id="stop81105"
         stop-color="#222222"
         offset="0" />
      <stop
         id="stop81107"
         stop-color="#565656"
         offset="1" />
    </linearGradient>
    <linearGradient
       gradientTransform="matrix(0,-1,1,0,16.928,2.748)"
       y2="0"
       x2="0.498"
       y1="0"
       x1="0"
       gradientUnits="userSpaceOnUse"
       id="LinearGradient_2-135">
      <stop
         id="stop81100"
         stop-color="#222222"
         offset="0" />
      <stop
         id="stop81102"
         stop-color="#565656"
         offset="1" />
    </linearGradient>
    <linearGradient
       gradientTransform="matrix(0,-1,1,0,19.608,2.75)"
       y2="0"
       x2="0.5"
       y1="0"
       x1="0"
       gradientUnits="userSpaceOnUse"
       id="LinearGradient_1-485">
      <stop
         id="stop81095"
         stop-color="#222222"
         offset="0" />
      <stop
         id="stop81097"
         stop-color="#565656"
         offset="1" />
    </linearGradient>
    <linearGradient
       gradientTransform="matrix(-1,0,0,-1,22.499,3)"
       y2="0"
       x2="2.252"
       y1="0"
       x1="0"
       gradientUnits="userSpaceOnUse"
       id="LinearGradient-788">
      <stop
         id="stop81090"
         stop-color="#8d8d8d"
         offset="0" />
      <stop
         id="stop81092"
         stop-color="#434343"
         offset="1" />
    </linearGradient>
  </defs>
  <sodipodi:namedview
     id="base"
     pagecolor="#ffffff"
     bordercolor="#666666"
     borderopacity="1.0"
     inkscape:pageopacity="0.0"
     inkscape:pageshadow="2"
     inkscape:zoom="4.814789"
     inkscape:cx="16.063895"
     inkscape:cy="10.643437"
     inkscape:document-units="px"
     inkscape:current-layer="layer1"
     showgrid="false"
     inkscape:snap-page="true"
     inkscape:snap-grids="false"
     inkscape:snap-to-guides="false"
     inkscape:window-width="901"
     inkscape:window-height="665"
     inkscape:window-x="520"
     inkscape:window-y="200"
     inkscape:window-maximized="0">
    <inkscape:grid
       type="xygrid"
       id="grid11920"
       empspacing="5"
       visible="true"
       enabled="true"
       snapvisiblegridlinesonly="true" />
  </sodipodi:namedview>
  <metadata
     id="metadata7">
    <rdf:RDF>
      <cc:Work
         rdf:about="">
        <dc:format>image/svg+xml</dc:format>
        <dc:type
           rdf:resource="http://purl.org/dc/dcmitype/StillImage" />
        <dc:title />
      </cc:Work>
    </rdf:RDF>
  </metadata>
  <g
     inkscape:label="Layer 1"
     inkscape:groupmode="layer"
     id="layer1"
     transform="translate(0,-1020.3622)">
    <g
       style="fill-rule:evenodd;stroke-width:0.50099999;stroke-linejoin:bevel;overflow:visible"
       id="g81444"
       transform="matrix(1.3333926,0,0,1.3333303,-1.0000445,1020.3623)">
      <g
         transform="scale(1,-1)"
         font-size="16"
         id="Document"
         style="font-size:16px;fill:none;stroke:#000000;font-family:Times New Roman">
        <g
           transform="translate(0,-24)"
           id="Spread">
          <g
             id="MouseOff">
            <g
               id="Group"
               style="stroke:none">
              <g
                 id="Group_1">
                <g
                   stroke-miterlimit="79.8403193612775"
                   id="Group_2">
                  <g
                     id="Group_3">
                    <path
                       id="path81212"
                       d="M 3,1.567 3,0.684 C 3,0.307 3.307,0 3.684,0 l 16.631,0 c 0.377,0 0.684,0.307 0.684,0.684 l 0,0.883 c 0,0.377 -0.307,0.684 -0.684,0.684 l -16.631,0 C 3.307,2.251 3,1.944 3,1.567 z"
                       inkscape:connector-curvature="0"
                       style="fill:#000000;marker-start:none;marker-end:none" />
                    <path
                       id="path81214"
                       d="m 3.75,1.722 0,-0.695 c 0,-0.153 0.125,-0.278 0.278,-0.278 l 15.943,0 c 0.153,0 0.278,0.125 0.278,0.278 l 0,0.695 C 20.249,1.875 20.124,2 19.971,2 L 4.028,2 C 3.875,2 3.75,1.875 3.75,1.722 z"
                       inkscape:connector-curvature="0"
                       style="fill:#5c5c5d;marker-start:none;marker-end:none" />
                    <path
                       id="path81216"
                       d="m 0.75,4.979 0,-2.457 c 0,-0.563 0.458,-1.021 1.021,-1.021 l 20.457,0 c 0.563,0 1.021,0.458 1.021,1.021 l 0,2.457 C 23.249,5.542 22.791,6 22.228,6 L 1.771,6 C 1.208,6 0.75,5.542 0.75,4.979 z"
                       inkscape:connector-curvature="0"
                       style="fill:#000000;marker-start:none;marker-end:none" />
                    <path
                       id="path81218"
                       d="m 1.5,3.258 0,-0.517 C 1.5,2.47 1.721,2.249 1.992,2.249 l 20.015,0 c 0.271,0 0.492,0.221 0.492,0.492 l 0,0.517 c 0,0.271 -0.221,0.492 -0.492,0.492 l -20.015,0 C 1.721,3.75 1.5,3.529 1.5,3.258 z"
                       inkscape:connector-curvature="0"
                       style="fill:#434343;marker-start:none;marker-end:none" />
                    <path
                       style="fill:url(#LinearGradient-788);marker-start:none;marker-end:none"
                       id="path81220"
                       d="m 22.499,3.537 0,-1.075 c 0,-0.117 -0.095,-0.212 -0.212,-0.212 l -1.827,0 c -0.117,0 -0.212,0.095 -0.212,0.212 l 0,1.075 c 0,0.117 0.095,0.212 0.212,0.212 l 1.827,0 c 0.117,0 0.212,-0.095 0.212,-0.212 z"
                       inkscape:connector-curvature="0" />
                    <path
                       id="path81222"
                       d="m 12.75,3.479 0,-0.959 c 0,-0.149 0.122,-0.271 0.271,-0.271 l 7.707,0 c 0.149,0 0.271,0.122 0.271,0.271 l 0,0.959 c 0,0.149 -0.122,0.271 -0.271,0.271 l -7.707,0 C 12.872,3.75 12.75,3.628 12.75,3.479 z"
                       inkscape:connector-curvature="0"
                       style="fill:#e5e5e5;marker-start:none;marker-end:none" />
                    <path
                       style="fill:url(#LinearGradient_1-485);marker-start:none;marker-end:none"
                       id="path81224"
                       d="m 18.749,3.001 0,-0.751 1.501,0 0,0.751 -1.501,0 z"
                       inkscape:connector-curvature="0" />
                    <path
                       style="fill:url(#LinearGradient_2-135);marker-start:none;marker-end:none"
                       id="path81226"
                       d="m 16.499,3.001 0,-0.751 0.749,0 0,0.751 -0.749,0 z"
                       inkscape:connector-curvature="0" />
                    <path
                       style="fill:url(#LinearGradient_3-14);marker-start:none;marker-end:none"
                       id="path81228"
                       d="m 14.999,3.001 0,-0.751 0.749,0 0,0.751 -0.749,0 z"
                       inkscape:connector-curvature="0" />
                    <path
                       style="fill:url(#LinearGradient_4-72);marker-start:none;marker-end:none"
                       id="path81230"
                       d="m 13.499,3.001 0,-0.751 0.749,0 0,0.751 -0.749,0 z"
                       inkscape:connector-curvature="0" />
                    <path
                       style="fill:url(#LinearGradient_5-46);marker-start:none;marker-end:none"
                       id="path81232"
                       d="m 1.499,3.538 0,-1.075 c 0,-0.117 0.095,-0.212 0.212,-0.212 l 1.827,0 c 0.117,0 0.212,0.095 0.212,0.212 l 0,1.075 C 3.75,3.655 3.655,3.75 3.538,3.75 l -1.827,0 C 1.594,3.75 1.499,3.655 1.499,3.538 z"
                       inkscape:connector-curvature="0" />
                  </g>
                  <path
                     id="path81234"
                     d="M 1.67,4.5 C 1.086,4.5 0.697,4.867 0.756,5.349 L 2.217,23.441 C 2.256,23.787 2.451,24.004 2.84,24 l 11.107,0 0,-0.001 7.212,0 c 0.384,0.003 0.588,-0.195 0.624,-0.558 L 23.243,5.349 C 23.302,4.867 22.913,4.5 22.328,4.5 L 1.67,4.5 z"
                     inkscape:connector-curvature="0"
                     style="fill:#9f9f9f;marker-start:none;marker-end:none" />
                  <path
                     style="fill:url(#LinearGradient_6-4814);marker-start:none;marker-end:none"
                     id="path81236"
                     d="m 1.57,5.999 1.383,17.25 18.092,0 1.381,-17.25 -20.856,0 z"
                     inkscape:connector-curvature="0" />
                  <path
                     style="fill:url(#LinearGradient_7-86);marker-start:none;marker-end:none"
                     id="path81238"
                     d="m 1.497,4.875 0,-0.001 C 1.497,4.668 1.666,4.5 1.874,4.5 l 20.249,0 c 0.208,0 0.377,0.168 0.377,0.374 l 0,0.001 c 0,0.206 -0.169,0.374 -0.377,0.374 l -20.249,0 C 1.666,5.249 1.497,5.081 1.497,4.875 z"
                     inkscape:connector-curvature="0" />
                  <path
                     style="fill:url(#LinearGradient_8-660);marker-start:none;marker-end:none"
                     id="path81240"
                     d="m 5.999,6.75 -2.25,1.5 0,2.25 c 1.5,0 2.25,1.5 1.5,2.25 -4.734,5.559 1.5,9.75 6.75,9.75 l 5.25,0 3,-2.25 0,-4.5 c 0.073,-1.279 -0.75,-2.25 -1.5,-3 -0.75,-0.75 0,-2.25 1.5,-2.25 l 0,-2.25 -2.25,-1.5 -12,0 z"
                     inkscape:connector-curvature="0" />
                  <g
                     id="Group_4">
                    <path
                       id="path81243"
                       d="m 4.499,22.509 c 0.414,0 0.75,-0.17 0.75,-0.379 0,-0.209 -0.336,-0.379 -0.75,-0.379 -0.414,0 -0.75,0.17 -0.75,0.379 0,0.209 0.336,0.379 0.75,0.379 z"
                       inkscape:connector-curvature="0"
                       style="fill:#999999;marker-start:none;marker-end:none" />
                    <path
                       id="path81245"
                       d="m 4.499,23.25 c 0.414,0 0.75,-0.17 0.75,-0.379 0,-0.209 -0.336,-0.379 -0.75,-0.379 -0.414,0 -0.75,0.17 -0.75,0.379 0,0.209 0.336,0.379 0.75,0.379 z"
                       inkscape:connector-curvature="0"
                       style="fill:#ffffff;marker-start:none;marker-end:none" />
                  </g>
                  <g
                     id="Group_5">
                    <path
                       id="path81248"
                       d="m 19.499,22.508 c 0.414,0 0.75,-0.17 0.75,-0.379 0,-0.209 -0.336,-0.379 -0.75,-0.379 -0.414,0 -0.75,0.17 -0.75,0.379 0,0.209 0.336,0.379 0.75,0.379 z"
                       inkscape:connector-curvature="0"
                       style="fill:#999999;marker-start:none;marker-end:none" />
                    <path
                       id="path81250"
                       d="m 19.499,23.249 c 0.414,0 0.75,-0.17 0.75,-0.379 0,-0.209 -0.336,-0.379 -0.75,-0.379 -0.414,0 -0.75,0.17 -0.75,0.379 0,0.209 0.336,0.379 0.75,0.379 z"
                       inkscape:connector-curvature="0"
                       style="fill:#ffffff;marker-start:none;marker-end:none" />
                  </g>
                  <g
                     id="Group_6">
                    <path
                       id="path81253"
                       d="m 20.249,12.008 c 0.414,0 0.75,-0.17 0.75,-0.379 0,-0.209 -0.336,-0.379 -0.75,-0.379 -0.414,0 -0.75,0.17 -0.75,0.379 0,0.209 0.336,0.379 0.75,0.379 z"
                       inkscape:connector-curvature="0"
                       style="fill:#999999;marker-start:none;marker-end:none" />
                    <path
                       id="path81255"
                       d="m 20.249,12.749 c 0.414,0 0.75,-0.17 0.75,-0.379 0,-0.209 -0.336,-0.379 -0.75,-0.379 -0.414,0 -0.75,0.17 -0.75,0.379 0,0.209 0.336,0.379 0.75,0.379 z"
                       inkscape:connector-curvature="0"
                       style="fill:#ffffff;marker-start:none;marker-end:none" />
                  </g>
                  <g
                     id="Group_7">
                    <path
                       id="path81258"
                       d="m 3.749,12.009 c 0.414,0 0.75,-0.17 0.75,-0.379 0,-0.209 -0.336,-0.379 -0.75,-0.379 -0.414,0 -0.75,0.17 -0.75,0.379 0,0.209 0.336,0.379 0.75,0.379 z"
                       inkscape:connector-curvature="0"
                       style="fill:#999999;marker-start:none;marker-end:none" />
                    <path
                       id="path81260"
                       d="m 3.749,12.75 c 0.414,0 0.75,-0.17 0.75,-0.379 0,-0.209 -0.336,-0.379 -0.75,-0.379 -0.414,0 -0.75,0.17 -0.75,0.379 0,0.209 0.336,0.379 0.75,0.379 z"
                       inkscape:connector-curvature="0"
                       style="fill:#ffffff;marker-start:none;marker-end:none" />
                  </g>
                  <g
                     id="Group_8">
                    <path
                       id="path81263"
                       d="m 20.999,7.509 c 0.414,0 0.75,-0.17 0.75,-0.379 0,-0.209 -0.336,-0.379 -0.75,-0.379 -0.414,0 -0.75,0.17 -0.75,0.379 0,0.209 0.336,0.379 0.75,0.379 z"
                       inkscape:connector-curvature="0"
                       style="fill:#999999;marker-start:none;marker-end:none" />
                    <path
                       id="path81265"
                       d="m 20.999,8.25 c 0.414,0 0.75,-0.17 0.75,-0.379 0,-0.209 -0.336,-0.379 -0.75,-0.379 -0.414,0 -0.75,0.17 -0.75,0.379 0,0.209 0.336,0.379 0.75,0.379 z"
                       inkscape:connector-curvature="0"
                       style="fill:#ffffff;marker-start:none;marker-end:none" />
                  </g>
                  <g
                     id="Group_9">
                    <path
                       id="path81268"
                       d="m 2.999,7.508 c 0.414,0 0.75,-0.17 0.75,-0.379 0,-0.209 -0.336,-0.379 -0.75,-0.379 -0.414,0 -0.75,0.17 -0.75,0.379 0,0.209 0.336,0.379 0.75,0.379 z"
                       inkscape:connector-curvature="0"
                       style="fill:#999999;marker-start:none;marker-end:none" />
                    <path
                       id="path81270"
                       d="m 2.999,8.249 c 0.414,0 0.75,-0.17 0.75,-0.379 0,-0.209 -0.336,-0.379 -0.75,-0.379 -0.414,0 -0.75,0.17 -0.75,0.379 0,0.209 0.336,0.379 0.75,0.379 z"
                       inkscape:connector-curvature="0"
                       style="fill:#ffffff;marker-start:none;marker-end:none" />
                  </g>
                </g>
                <path
                   style="fill:url(#LinearGradient_9-979);stroke-width:0.105;marker-start:none;marker-end:none"
                   id="path81272"
                   stroke-miterlimit="79.8403193612775"
                   d="m 17.249,21.535 0,-2.785 2.541,-3.066 0,4.134 -2.541,1.717 z"
                   inkscape:connector-curvature="0" />
              </g>
              <g
                 id="Group_10">
                <path
                   id="path81275"
                   stroke-miterlimit="79.8403193612775"
                   d="m 12,20.5 c 3.725,0 6.749,-2.409 6.749,-5.376 0,-2.965 -3.024,-5.374 -6.749,-5.374 -3.726,0 -6.75,2.409 -6.75,5.374 0,2.967 3.024,5.376 6.75,5.376 z"
                   inkscape:connector-curvature="0"
                   style="fill:#e5e5e5;stroke-width:0.105;marker-start:none;marker-end:none" />
                <path
                   id="path81277"
                   stroke-miterlimit="79.8403193612775"
                   d="m 12,21.5 c 4.14,0 7.5,-2.466 7.5,-5.501 0,-3.034 -3.36,-5.499 -7.5,-5.499 -4.141,0 -7.501,2.465 -7.501,5.499 0,3.035 3.36,5.501 7.501,5.501 z"
                   inkscape:connector-curvature="0"
                   style="fill:#666666;stroke-width:0.105;marker-start:none;marker-end:none" />
                <path
                   style="fill:url(#LinearGradient_10-93);stroke-width:0.105;marker-start:none;marker-end:none"
                   id="path81279"
                   stroke-miterlimit="79.8403193612775"
                   d="m 12,21.75 c 4.139,0 7.499,-2.354 7.499,-5.251 0,-2.896 -3.36,-5.249 -7.499,-5.249 -4.14,0 -7.5,2.353 -7.5,5.249 0,2.897 3.36,5.251 7.5,5.251 z"
                   inkscape:connector-curvature="0" />
                <g
                   stroke-miterlimit="79.8403193612775"
                   id="Group_11">
                  <g
                     id="Group_12">
                    <path
                       style="fill:url(#LinearGradient_11-41);marker-start:none;marker-end:none"
                       id="path81283"
                       d="M 7.014,19.531 C 8.241,20.428 10.007,21 12,21 l 0,-4.05 -4.986,2.581 z"
                       inkscape:connector-curvature="0" />
                    <path
                       style="fill:url(#LinearGradient_12-407);marker-start:none;marker-end:none"
                       id="path81285"
                       d="m 5.249,16.5 c 0,1.497 1.118,2.852 2.855,3.675 L 12,16.95 5.249,16.5 z"
                       inkscape:connector-curvature="0" />
                  </g>
                  <path
                     style="fill:url(#LinearGradient_13-62);marker-start:none;marker-end:none"
                     id="path81287"
                     d="M 12,17.101 5.249,16.5 c 0,-1.42 1.007,-2.712 2.595,-3.543 L 12,17.101 z"
                     inkscape:connector-curvature="0" />
                  <path
                     style="fill:url(#LinearGradient_14-28);marker-start:none;marker-end:none"
                     id="path81289"
                     d="M 12,17.101 7.051,13.444 C 8.275,12.562 10.027,12 12,12 l 0,5.101 z"
                     inkscape:connector-curvature="0" />
                  <path
                     style="fill:url(#LinearGradient_15-62);marker-start:none;marker-end:none"
                     id="path81291"
                     d="M 17.257,13.682 12,16.95 12,21 c 1.461,0 2.8,-0.308 3.894,-0.826 0.007,-0.002 0.014,-0.006 0.02,-0.011 0.206,-0.095 0.4,-0.201 0.596,-0.319 0.006,-0.002 0.011,-0.006 0.018,-0.011 0.16,-0.096 0.311,-0.197 0.457,-0.302 1.1,-0.807 1.764,-1.877 1.764,-3.031 0,-1.055 -0.556,-2.04 -1.492,-2.818 z"
                     inkscape:connector-curvature="0" />
                  <path
                     style="fill:url(#LinearGradient_16-389);marker-start:none;marker-end:none"
                     id="path81293"
                     d="m 12,12 0,4.95 5.257,-3.267 C 17.158,13.601 17.054,13.521 16.948,13.444 16.894,13.406 16.842,13.37 16.783,13.332 16.762,13.315 16.739,13.3 16.716,13.286 16.632,13.232 16.548,13.178 16.455,13.124 16.428,13.107 16.401,13.092 16.365,13.074 16.312,13.041 16.257,13.01 16.18,12.97 16.171,12.965 16.163,12.961 16.155,12.957 15.015,12.36 13.578,12 12,12 z"
                     inkscape:connector-curvature="0" />
                  <path
                     id="path81295"
                     d="M 12,16.8 8.015,20.147 C 9.065,20.747 11.106,21 12,21 l 0,-4.2 z"
                     inkscape:connector-curvature="0"
                     style="fill:#f9d939;marker-start:none;marker-end:none" />
                </g>
                <path
                   id="path81297"
                   stroke-miterlimit="79.8403193612775"
                   d="m 11.999,19.125 c 2.068,0 3.749,-1 3.749,-2.23 0,-1.233 -1.681,-2.232 -3.749,-2.232 -2.07,0 -3.75,0.999 -3.75,2.232 0,1.23 1.68,2.23 3.75,2.23 z"
                   inkscape:connector-curvature="0"
                   style="fill:#ffffff;stroke-width:0.039;marker-start:none;marker-end:none" />
                <path
                   id="path81299"
                   stroke-miterlimit="79.8403193612775"
                   d="m 12,18.562 c 2.068,0 3.749,-0.966 3.749,-2.155 0,-1.192 -1.681,-2.157 -3.749,-2.157 -2.07,0 -3.75,0.965 -3.75,2.157 0,1.189 1.68,2.155 3.75,2.155 z"
                   inkscape:connector-curvature="0"
                   style="fill:#8d8d8d;stroke-width:0.039;marker-start:none;marker-end:none" />
                <path
                   style="fill:url(#LinearGradient_17-37);stroke-width:0.035;marker-start:none;marker-end:none"
                   id="path81301"
                   stroke-miterlimit="79.8403193612775"
                   d="m 9,16.5 c 0,0.716 1.171,1.5 3,1.5 1.827,0 2.999,-0.784 2.999,-1.5 0,-0.717 -1.172,-1.5 -2.999,-1.5 -1.829,0 -3,0.783 -3,1.5 z"
                   inkscape:connector-curvature="0" />
                <path
                   id="path81303"
                   stroke-miterlimit="79.8403193612775"
                   d="m 11.968,15.75 c 0.431,0 0.781,-0.256 0.781,-0.571 0,-0.315 -0.35,-0.571 -0.781,-0.571 -0.431,0 -0.781,0.256 -0.781,0.571 0,0.315 0.35,0.571 0.781,0.571 z"
                   inkscape:connector-curvature="0"
                   style="fill:#ffffff;stroke-width:0.035;marker-start:none;marker-end:none" />
                <path
                   id="path81305"
                   stroke-miterlimit="79.8403193612775"
                   d="m 10.238,16.762 c 0,-0.358 0.658,-0.749 1.688,-0.749 1.027,0 1.686,0.391 1.686,0.749 0,0.358 -0.659,0.751 -1.686,0.751 -1.03,0 -1.688,-0.393 -1.688,-0.751 z"
                   inkscape:connector-curvature="0"
                   style="fill:#7b7a7a;stroke-width:0.011;marker-start:none;marker-end:none" />
                <path
                   id="path81307"
                   stroke-miterlimit="79.8403193612775"
                   d="m 10.499,17.088 c 0,-0.292 0.584,-0.613 1.499,-0.613 0.917,0 1.501,0.321 1.501,0.613 0,0.292 -0.584,0.612 -1.501,0.612 -0.915,0 -1.499,-0.32 -1.499,-0.612 z"
                   inkscape:connector-curvature="0"
                   style="fill:#ffffff;stroke-width:0.011;marker-start:none;marker-end:none" />
                <path
                   style="fill:url(#LinearGradient_18-37);stroke-width:0.105;marker-start:none;marker-end:none"
                   id="path81309"
                   stroke-miterlimit="79.8403193612775"
                   d="M 18.011,13.214 12,16.981 18.011,13.214 z"
                   inkscape:connector-curvature="0" />
                <path
                   style="fill:url(#LinearGradient_19-6);stroke-width:0.105;marker-start:none;marker-end:none"
                   id="path81311"
                   stroke-miterlimit="79.8403193612775"
                   d="M 18.011,13.214 12,16.981 18.011,13.214 z"
                   inkscape:connector-curvature="0" />
              </g>
              <path
                 id="path81313"
                 stroke-miterlimit="79.8403193612775"
                 d="M 6.065,11.109 C 5.737,10.38 4.975,10.211 4.339,10.097 L 4.302,8.634 6.327,7.059 l 6,0 L 11.249,9 C 8.21,8.883 8.163,10.149 6.065,11.109 z"
                 inkscape:connector-curvature="0"
                 style="fill:#e4e3e3;stroke-width:0.105;marker-start:none;marker-end:none" />
              <path
                 style="fill:url(#LinearGradient_20-413);stroke-width:0.081;marker-start:none;marker-end:none"
                 id="path81315"
                 stroke-miterlimit="79.8403193612775"
                 d="m 19.499,9 -1.5,-1.5 -3.75,0 0,1.5 1.5,0 0.75,0.75 3,0 0,-0.75 z"
                 inkscape:connector-curvature="0" />
              <path
                 id="path81317"
                 stroke-miterlimit="79.8403193612775"
                 d="m 7.499,7.5 3.75,1.5 3.75,3 -7.5,-3.75 0,-0.75 z"
                 inkscape:connector-curvature="0"
                 style="fill:#000000;fill-opacity:0.764706;stroke-width:0.105;marker-start:none;marker-end:none" />
              <path
                 id="path81319"
                 stroke-miterlimit="79.8403193612775"
                 d="M 5.303,9.486 7.499,7.5 l 7.5,4.5 3,3 -0.75,0.75 -3,-2.25 -8.946,-4.014 z"
                 inkscape:connector-curvature="0"
                 style="fill:#666666;stroke-width:0.105;marker-start:none;marker-end:none" />
              <path
                 style="fill:url(#LinearGradient_21-032);stroke-width:0.105;marker-start:none;marker-end:none"
                 id="path81321"
                 stroke-miterlimit="79.8403193612775"
                 d="m 7.499,8.03 -1.584,1.373 8.467,3.741 2.831,2.11 L 17.468,15 14.814,12.345 7.499,8.03 z"
                 inkscape:connector-curvature="0" />
              <path
                 id="path81323"
                 stroke-miterlimit="79.8403193612775"
                 d="m 4.03,18.882 c 1.725,2.25 3.725,3.06 6.3,3.675 -0.9,0.05 -2.4,-0.075 -3.375,-0.45 C 5.98,21.732 4.48,20.532 4.03,18.882 z"
                 inkscape:connector-curvature="0"
                 style="fill:#ffffff;stroke-width:0.75;marker-start:none;marker-end:none" />
              <path
                 id="path81325"
                 stroke-miterlimit="79.8403193612775"
                 d="m 17.38,22.557 3.075,-2.325 0.375,0.525 -3,2.175 -0.45,-0.375 z"
                 inkscape:connector-curvature="0"
                 style="fill:#ffffff;stroke-width:0.75;marker-start:none;marker-end:none" />
            </g>
          </g>
        </g>
      </g>
    </g>
  </g>
</svg>
