<?xml version="1.0" encoding="UTF-8"?>
<!DOCTYPE svg PUBLIC "-//W3C//DTD SVG 1.1//EN" "http://www.w3.org/Graphics/SVG/1.1/DTD/svg11.dtd">
<!-- Creator: CorelDRAW -->
<svg xmlns="http://www.w3.org/2000/svg" xml:space="preserve" width="32px" height="32px" style="shape-rendering:geometricPrecision; text-rendering:geometricPrecision; image-rendering:optimizeQuality; fill-rule:evenodd; clip-rule:evenodd"
viewBox="0 0 32 32"
 xmlns:xlink="http://www.w3.org/1999/xlink">
 <defs>
  <style type="text/css">
   <![CDATA[
    .fil64 {fill:none}
    .fil80 {fill:#7F7F7F}
    .fil79 {fill:#E5E5E5}
    .fil83 {fill:white}
    .fil21 {fill:#404040}
    .fil76 {fill:#424242}
    .fil77 {fill:#454545}
    .fil69 {fill:#85A839}
    .fil71 {fill:#92B640}
    .fil72 {fill:#A5CE53}
    .fil61 {fill:#A5CF50}
    .fil67 {fill:#A7CF49}
    .fil82 {fill:#B2B2B2}
    .fil85 {fill:#FFF2A6}
    .fil84 {fill:#8A8787}
    .fil75 {fill:#A567BB}
    .fil74 {fill:#D988F2}
    .fil65 {fill:#E070E0}
    .fil73 {fill:#FF94FF}
    .fil18 {fill:#B2B2B2;fill-rule:nonzero}
    .fil16 {fill:#404040;fill-rule:nonzero}
    .fil86 {fill:gray;fill-rule:nonzero}
    .fil0 {fill:black;fill-opacity:0.000000}
    .fil50 {fill:#FFF2A6;fill-opacity:0.000000}
    .fil26 {fill:#FFFD94;fill-opacity:0.000000}
    .fil1 {fill:black;fill-opacity:0.003922}
    .fil2 {fill:black;fill-opacity:0.007843}
    .fil3 {fill:black;fill-opacity:0.015686}
    .fil4 {fill:black;fill-opacity:0.019608}
    .fil27 {fill:#FFFD94;fill-opacity:0.019608}
    .fil5 {fill:black;fill-opacity:0.023529}
    .fil6 {fill:black;fill-opacity:0.027451}
    .fil7 {fill:black;fill-opacity:0.031373}
    .fil8 {fill:black;fill-opacity:0.035294}
    .fil28 {fill:#FFFD94;fill-opacity:0.039216}
    .fil9 {fill:black;fill-opacity:0.043137}
    .fil10 {fill:black;fill-opacity:0.047059}
    .fil11 {fill:black;fill-opacity:0.050980}
    .fil12 {fill:black;fill-opacity:0.054902}
    .fil51 {fill:#FFF5B0;fill-opacity:0.054902}
    .fil29 {fill:#FFFD94;fill-opacity:0.058824}
    .fil13 {fill:black;fill-opacity:0.058824}
    .fil30 {fill:#FFFD94;fill-opacity:0.078431}
    .fil31 {fill:#FFFD94;fill-opacity:0.094118}
    .fil52 {fill:#FFF5BA;fill-opacity:0.109804}
    .fil32 {fill:#FFFD94;fill-opacity:0.113725}
    .fil33 {fill:#FFFD94;fill-opacity:0.133333}
    .fil34 {fill:#FFFD94;fill-opacity:0.152941}
    .fil53 {fill:#FFF7C4;fill-opacity:0.164706}
    .fil35 {fill:#FFFD94;fill-opacity:0.172549}
    .fil36 {fill:#FFFD94;fill-opacity:0.192157}
    .fil37 {fill:#FFFD94;fill-opacity:0.211765}
    .fil54 {fill:#FFF7CF;fill-opacity:0.223529}
    .fil38 {fill:#FFFD94;fill-opacity:0.231373}
    .fil39 {fill:#FFFD94;fill-opacity:0.247059}
    .fil40 {fill:#FFFD94;fill-opacity:0.266667}
    .fil55 {fill:#FFFAD9;fill-opacity:0.278431}
    .fil41 {fill:#FFFD94;fill-opacity:0.286275}
    .fil42 {fill:#FFFD94;fill-opacity:0.305882}
    .fil20 {fill:black;fill-rule:nonzero;fill-opacity:0.321569}
    .fil19 {fill:#404040;fill-rule:nonzero;fill-opacity:0.321569}
    .fil43 {fill:#FFFD94;fill-opacity:0.325490}
    .fil56 {fill:#FFFAE3;fill-opacity:0.333333}
    .fil44 {fill:#FFFD94;fill-opacity:0.345098}
    .fil45 {fill:#FFFD94;fill-opacity:0.364706}
    .fil46 {fill:#FFFD94;fill-opacity:0.384314}
    .fil57 {fill:#FFFCED;fill-opacity:0.388235}
    .fil47 {fill:#FFFD94;fill-opacity:0.400000}
    .fil48 {fill:#FFFD94;fill-opacity:0.419608}
    .fil49 {fill:#FFFD94;fill-opacity:0.439216}
    .fil58 {fill:#FFFFF5;fill-opacity:0.443137}
    .fil78 {fill:#4C4C4C;fill-opacity:0.501961}
    .fil59 {fill:white;fill-opacity:0.501961}
    .fil81 {fill:#4C4C4C;fill-opacity:0.501961}
    .fil70 {fill:#6A872B;fill-opacity:0.501961}
    .fil15 {fill:#999999;fill-rule:nonzero;fill-opacity:0.501961}
    .fil25 {fill:#74AFE9;fill-opacity:0.780392}
    .fil68 {fill:#FF99FF;fill-opacity:0.780392}
    .fil63 {fill:url(#id0)}
    .fil66 {fill:url(#id1)}
    .fil60 {fill:url(#id2)}
    .fil14 {fill:url(#id3)}
    .fil62 {fill:url(#id4)}
    .fil17 {fill:url(#id5)}
    .fil24 {fill:url(#id6);fill-rule:nonzero;fill-opacity:0.780392}
    .fil23 {fill:url(#id7);fill-rule:nonzero;fill-opacity:0.780392}
    .fil22 {fill:url(#id8);fill-rule:nonzero;fill-opacity:0.780392}
   ]]>
  </style>
  <linearGradient id="id0" gradientUnits="userSpaceOnUse" x1="21.0069" y1="5.51366" x2="21.0069" y2="7.22634">
   <stop offset="0" style="stop-color:#D67FF2"/>
   <stop offset="1" style="stop-color:#B575DD"/>
  </linearGradient>
  <linearGradient id="id1" gradientUnits="userSpaceOnUse" xlink:href="#id0" x1="21.1357" y1="7.82873" x2="21.1357" y2="9.54023">
  </linearGradient>
  <linearGradient id="id2" gradientUnits="userSpaceOnUse" x1="22.8767" y1="4.76362" x2="23.0149" y2="9.6241">
   <stop offset="0" style="stop-color:#83C3F9"/>
   <stop offset="0.639216" style="stop-color:#BEE4FE"/>
   <stop offset="1" style="stop-color:#BEE4FE"/>
  </linearGradient>
  <linearGradient id="id3" gradientUnits="userSpaceOnUse" x1="16.0224" y1="3.4797" x2="16.0224" y2="27.4667">
   <stop offset="0" style="stop-color:#575757"/>
   <stop offset="1" style="stop-color:#454545"/>
  </linearGradient>
  <linearGradient id="id4" gradientUnits="userSpaceOnUse" x1="22.7255" y1="8.09213" x2="22.8141" y2="9.6678">
   <stop offset="0" style="stop-color:#B8DE60"/>
   <stop offset="1" style="stop-color:#AADB4F"/>
  </linearGradient>
  <linearGradient id="id5" gradientUnits="userSpaceOnUse" x1="16.1547" y1="8.652" x2="15.8405" y2="23.4649">
   <stop offset="0" style="stop-color:whitesmoke"/>
   <stop offset="1" style="stop-color:#EBEBEB"/>
  </linearGradient>
  <linearGradient id="id6" gradientUnits="userSpaceOnUse" x1="10.6198" y1="-169.973" x2="10.6198" y2="318.669">
   <stop offset="0" style="stop-color:#BEBEBE"/>
   <stop offset="1" style="stop-color:#B7B7B7"/>
  </linearGradient>
  <linearGradient id="id7" gradientUnits="userSpaceOnUse" xlink:href="#id6" x1="10.5997" y1="-174.952" x2="10.5997" y2="313.689">
  </linearGradient>
  <linearGradient id="id8" gradientUnits="userSpaceOnUse" xlink:href="#id6" x1="8.6331" y1="-66.6139" x2="8.6331" y2="121.276">
  </linearGradient>
 </defs>
 <g id="Слой_x0020_1">
  <metadata id="CorelCorpID_0Corel-Layer"/>
  <g id="_122662392">
   <path id="_81033392" class="fil0" d="M15.3823 27.0285c10.119,-0.442935 13.9141,0.668537 15.2641,2.04459l0 2.41902c-2.00797,0.772479 -8.09686,0.10158 -14.7409,0.372066l-2.12373 0.0850436 -10.9872 0c-0.589399,-0.0767754 -1.06068,-0.181899 -1.39023,-0.320094l0 -2.02097c1.0973,-1.08903 4.35612,-2.1568 13.9779,-2.57965z"/>
   <g>
    <path id="_79913416" class="fil1" d="M15.4153 27.2624c10.1816,-0.428761 13.9708,0.757124 15.2311,2.14499l0 2.01506c-1.84379,0.800827 -8.01654,0.146464 -14.7255,0.401595l-3.38757 0.125203 -9.14691 0c-0.900044,-0.0826812 -1.57921,-0.211428 -1.98199,-0.403957l0 -1.62173c0.973276,-1.10793 4.12225,-2.24302 14.0109,-2.66115z"/>
    <path id="_126766336" class="fil2" d="M15.4472 27.4998c10.2359,-0.414587 14.0511,0.850436 15.1992,2.23948l0 1.61347c-1.6489,0.832718 -7.92204,0.196073 -14.7137,0.434667 -1.72449,0.0614203 -3.3982,0.119297 -4.96087,0.161819l-6.71135 0c-1.39377,-0.0744131 -2.39657,-0.226783 -2.85605,-0.490182l0 -1.22132c0.830356,-1.11738 3.88602,-2.32689 14.0428,-2.73793z"/>
    <path id="_123267224" class="fil3" d="M15.4791 27.7372c10.2867,-0.398051 14.168,0.94611 15.1673,2.32452l0 1.21305c-1.39968,0.869334 -7.7992,0.250406 -14.7007,0.474827 -2.92219,0.095674 -5.70737,0.184261 -8.05197,0.199616l-1.42566 0c-2.65761,-0.022442 -4.53684,-0.177174 -5.06364,-0.59058l0 -0.805551c0.64137,-1.1162 3.61671,-2.41193 14.0747,-2.81589z"/>
    <path id="_87137096" class="fil4" d="M15.511 27.9746c10.373,-0.377971 14.3629,1.0595 15.1354,2.41665l0 0.789015c-1.04651,0.92603 -7.62439,0.323638 -14.6889,0.533885 -7.50627,0.223239 -14.1775,0.401595 -14.5531,-0.511442l0 -0.243319c0.23387,-1.11029 3.01196,-2.57965 14.1066,-2.98479z"/>
    <path id="_46188352" class="fil5" d="M15.5417 28.2097c10.8135,-0.369703 14.9086,1.28628 15.1047,2.6269l0 0.154732c-0.245681,1.11265 -7.21335,0.484276 -14.6759,0.683892 -7.61849,0.204341 -14.4503,0.361435 -14.4503,-0.540972 0,-1.04887 2.98243,-2.54658 14.0216,-2.92455z"/>
    <path id="_46025200" class="fil6" d="M15.5736 28.4447c10.4438,-0.329544 14.911,1.27683 14.9429,2.51705 0.0342537,1.06777 -7.02436,0.496087 -14.5342,0.674443 -7.50864,0.178355 -14.3298,0.311826 -14.3298,-0.485457 0,-0.974457 3.47616,-2.37531 13.9212,-2.70604z"/>
    <path id="_122978672" class="fil7" d="M15.6055 28.6845c9.8497,-0.283479 14.7456,1.19533 14.774,2.32334 0.0283479,0.924849 -6.98538,0.439392 -14.3842,0.592943 -7.39997,0.153551 -14.2094,0.263399 -14.2094,-0.431124 0,-0.897682 3.9687,-2.20168 13.8196,-2.48516z"/>
    <path id="_122862600" class="fil8" d="M15.6374 28.9195c9.25557,-0.236232 14.5814,1.1162 14.605,2.13081 0.022442,0.781928 -6.94522,0.383877 -14.2365,0.511442 -7.28776,0.127565 -14.0877,0.21379 -14.0877,-0.375609 0,-0.823269 4.46124,-2.03041 13.7192,-2.26665z"/>
    <path id="_85176456" class="fil9" d="M15.6681 29.1546c8.66263,-0.188986 14.4172,1.03706 14.4361,1.9371 0.0188986,0.64137 -6.90388,0.329544 -14.0853,0.431124 -7.17909,0.102761 -13.966,0.164181 -13.966,-0.321276 0,-0.747675 4.95261,-1.85797 13.6152,-2.04695z"/>
    <path id="_124108408" class="fil10" d="M15.7 29.392c8.06851,-0.140558 14.2531,0.957921 14.2672,1.74457 0.0141739,0.49845 -6.8649,0.274029 -13.9365,0.350805 -7.06925,0.0755943 -13.8456,0.113391 -13.8456,-0.266942 0,-0.673261 5.44515,-1.6867 13.5148,-1.82844z"/>
    <path id="_79458264" class="fil11" d="M15.7319 29.6294c7.4732,-0.0944928 14.0877,0.876421 14.0972,1.55086 0.00944928,0.355529 -6.82356,0.217334 -13.7853,0.269305 -6.9594,0.0507899 -13.7251,0.0637827 -13.7251,-0.212609 0,-0.597667 5.93769,-1.51307 13.4133,-1.60756z"/>
    <path id="_87150544" class="fil12" d="M15.7638 29.8668c6.88026,-0.0472464 13.9235,0.797283 13.9271,1.35715 0.0059058,0.214971 -6.78222,0.163 -13.6341,0.188986 -6.85073,0.0248044 -13.6046,0.0141739 -13.6046,-0.157094 0,-0.523254 6.43024,-1.3418 13.3117,-1.38904z"/>
   </g>
   <path id="_124177400" class="fil13" d="M15.7921 30.1031c6.28732,0 13.7605,0.718146 13.7605,1.16462 0,0.145283 -26.9694,0.140558 -26.9694,0.00472464 0,-0.44766 6.92278,-1.16935 13.2089,-1.16935z"/>
  </g>
  <path class="fil14" d="M2.608 1.99144c0,-0.340174 0.13229,-0.653182 0.350805,-0.89532 0.279935,-0.347261 0.703972,-0.569319 1.17762,-0.569319l23.7083 -0.0437029c0.838624,-0.00118116 1.56976,0.685073 1.56149,1.52606 -0.0909494,9.09966 0.0826812,17.7989 0.0874059,26.9021 0,0.839805 -0.673261,1.55323 -1.49417,1.55323 -9.83552,0 -7.17909,-0.0059058 -23.9563,-0.0059058 -0.819725,0 -1.49181,-0.699247 -1.49299,-1.55323 0.00236232,-8.06733 0.0649638,-18.8466 0.0578769,-26.9139z"/>
  <path class="fil15" d="M2.93991 1.10202c0.15237,-0.0342537 0.251587,-0.0507899 0.375609,-0.0507899l25.8379 0c0.11221,0 0.22442,0.0141739 0.331906,0.0389783 0.059058,0.0153551 0.116935,0.0307102 0.173631,0.0519711l-0.0200797 0.059058 0.0200797 0.0059058 -0.0460653 0.135833 0.073232 0.0248044 -0.0200797 0.059058 0.0200797 0.0059058 -0.0614203 0.177174 0.0401595 0.0153551 -0.0200797 0.0566957 0.0200797 0.00708696c-0.0271667,0.0826812 -0.0626015,0.18308 -0.102761,0.285841 -0.0755943,-0.0259855 -0.151189,-0.0425218 -0.230326,-0.0555145 -0.0566957,-0.00826812 -0.088587,-0.0118116 -0.147645,-0.0118116l-25.8367 0c-0.12166,0 -0.266942,0.0177174 -0.380334,0.0507899l0.0307102 -0.00944928 -0.00944928 -0.059058 -0.0212609 0.00472464 0.0212609 -0.0059058 -0.0271667 -0.160638 -0.0200797 0.0059058 0.0200797 -0.00708696 -0.0106304 -0.059058 -0.00944928 0.00118116 0.00944928 -0.00236232 -0.00354348 -0.0177174 0.00944928 -0.00236232 -0.00944928 -0.0626015 0 0 -0.0271667 -0.160638 0.0106304 -0.00236232 -0.0106304 -0.0626015 0.0496087 -0.0129928 -0.00236232 -0.0177174 0.00118116 0 -0.0283479 -0.160638 0.0106304 -0.00236232 -0.0106304 -0.0626015z"/>
  <path class="fil16" d="M2.10719 1.99144c0,-0.226783 0.0448841,-0.448841 0.125203,-0.655544 0.0791378,-0.20316 0.197254,-0.395689 0.341355,-0.557508 0.187805,-0.230326 0.425218,-0.421674 0.695704,-0.551602 0.26458,-0.128746 0.55987,-0.200797 0.866972,-0.200797l0 0.00236232 23.7083 -0.0437029 0 -0.00236232 0.0177174 0 0.00354348 0.00236232c0.542153,0.00354348 1.0536,0.229145 1.4233,0.587037 0.37679,0.362616 0.617747,0.866972 0.617747,1.42094l0 0.0165362 -0.00236232 0.00354348c-0.0543334,5.5361 -0.0118116,10.9269 0.0307102,16.3473l0 0.00118116c0.0259855,3.48442 0.0543334,6.98775 0.0566957,10.5501l0.00236232 0c0,0.552783 -0.225602,1.06777 -0.584674,1.44102 -0.360254,0.374428 -0.862247,0.613022 -1.41031,0.613022l0 -0.00236232 -8.35199 -0.00236232 -15.6043 -0.00354348 0 0.00236232c-0.54924,0 -1.05123,-0.235051 -1.41267,-0.61066 -0.355529,-0.370884 -0.577587,-0.883508 -0.578769,-1.44338 0,-3.69349 0.0165362,-7.95984 0.0283479,-12.2699 0.0153551,-5.10143 0.0318913,-10.2726 0.029529,-14.644l-0.00236232 0zm1.05596 -0.296471c-0.0342537,0.0897682 -0.0543334,0.191348 -0.0543334,0.296471l-0.00236232 0c0.00236232,4.37147 -0.0141739,9.5426 -0.029529,14.644 -0.0118116,4.31005 -0.0283479,8.57641 -0.0283479,12.2699 0,0.290565 0.115754,0.558689 0.300015,0.751218 0.178355,0.185442 0.425218,0.301196 0.694522,0.301196l0 0.00236232 15.6043 0.00354348 8.35199 0.00236232 0 -0.00236232c0.265761,0 0.513805,-0.118116 0.69216,-0.303558 0.184261,-0.191348 0.301196,-0.459471 0.301196,-0.748856l0.00236232 0c-0.00118116,-3.55766 -0.0307102,-7.0598 -0.0566957,-10.5442 -0.0437029,-5.42271 -0.0862247,-10.8171 -0.0307102,-16.3579l-0.00236232 0 0 -0.0165362c0,-0.271667 -0.120478,-0.522073 -0.308283,-0.70279 -0.191348,-0.185442 -0.457109,-0.304739 -0.734682,-0.308283l0 0.00236232 -0.0177174 0 0 -0.00236232 -23.7083 0.0437029 0 0.00236232c-0.157094,0 -0.304739,0.0354348 -0.432305,0.0968552 -0.138196,0.066145 -0.261036,0.165362 -0.35671,0.28466l-0.0188986 0.0212609c-0.0696885,0.0779566 -0.128746,0.168906 -0.165362,0.26458z"/>
  <path class="fil17" d="M4.04902 3.34623l0.0779566 25.5473c0.0484276,0.634283 1.10202,1.16108 1.65244,1.1599l20.7412 -0.165362c0.794921,-0.022442 1.39849,-0.577587 1.42684,-1.30518l-0.0330725 -25.3359c0,-0.765392 -0.68153,-1.1847 -1.47173,-1.1847l-20.9054 0.120478c-0.734682,0.00118116 -1.48944,0.401595 -1.48826,1.16344z"/>
  <path class="fil18" d="M25.93 4.49786l0 4.9904 0 0.468921 -0.431124 0 -5.11915 0 -0.431124 0 0 -0.468921 0 -4.9904 0 -0.468921 0.431124 0 5.11915 0 0.431124 0 0 0.468921zm-0.863428 4.52148l0 -4.05256 -4.25454 0 0 4.05256 4.25454 0z"/>
  <polygon class="fil19" points="16.8528,29.6129 15.5252,29.6129 13.3412,29.6129 12.5026,30.8744 11.5884,30.8744 12.9833,29.1475 12.988,29.0353 13.1652,29.0353 15.5252,29.0353 16.8528,29.0353 18.9246,29.0353 19.1005,29.0353 19.4206,29.1475 20.6975,30.8779 19.7088,30.8767 18.9836,29.6129 "/>
  <path class="fil20" d="M13.0223 29.8845l-0.493725 1.1162 -0.914218 0 0.66145 -1.11383 0.746493 -0.00236232zm7.05743 -0.0200797l0.643732 1.13982 -0.988631 -0.00118116 -0.464196 -1.13628 0.809095 -0.00236232z"/>
  <path class="fil21" d="M29.8775 10.7179l0 1.07131 -0.674443 0c-0.137015,0 -0.251587,0.0874059 -0.251587,0.188986l0 2.73793c0,0.10158 0.113391,0.187805 0.251587,0.187805l0.695704 0 -0.0519711 1.09848c0.660269,-0.209065 0.817363,0.0448841 1.15281,-0.531522 0,-1.45873 0,-2.63399 0,-4.09154 -0.167725,-0.609479 -0.394508,-0.850436 -1.1221,-0.66145z"/>
  <path class="fil16" d="M13.1239 29.0365l-2.94109 2.93282 -1.01344 0.0342537 -0.628377 -1.24022 0.979182 0.120478 0.266942 0.399232 2.63635 -3.10763 0.109848 -0.113391 0.175993 0c2.18987,0 5.01166,0 7.20154,0l0.175993 0 0.109848 0.113391 2.30681 3.00605 0.468921 -0.222058 1.16581 -0.00826812 -1.2225 1.01934 -1.00044 0.0755943 -2.59265 -2.96471 -6.19873 -0.0448841z"/>
  <g id="_84051392">
   <path id="_46218760" class="fil22" d="M5.38727 8.08741l2.27373 0 0 1.00162 -2.27373 0 0 -1.00162zm3.12653 0l9.66426 0 0 1.00162 -9.66426 0 0 -1.00162zm-3.12653 -2.05049l5.7239 0 0 1.00162 -5.7239 0 0 -1.00162zm6.5767 0l2.65761 0 0 1.00162 -2.65761 0 0 -1.00162zm3.49151 0l2.72257 0 0 1.00162 -2.72257 0 0 -1.00162z"/>
   <path id="_84859920" class="fil23" d="M5.38727 16.039l9.18116 0 0 1.00162 -2.59383 0 0 -0.0259855 -0.852798 0 0 0.0259855 -5.73453 0 0 -1.00162zm10.034 0l4.43526 0 0 1.00162 -4.43526 0 0 -1.00162zm5.28806 0l5.22309 0 0 1.00162 -5.22309 0 0 -1.00162zm-15.322 8.02008l13.138 0 0 1.00162 -13.138 0 0 -1.00162zm13.9908 0l6.55426 0 0 1.00162 -6.55426 0 0 -1.00162zm-13.9908 -2.05049l4.75535 0 0 1.00162 -4.75535 0 0 -1.00162zm5.60815 0l3.61199 0 0 0.930754 0.853979 0 0 -0.930754 6.15857 0 0 1.00162 -10.6245 0 0 -1.00162zm11.4762 0l3.4608 0 0 1.00162 -3.4608 0 0 -1.00162zm-17.0843 -1.96073l3.93326 0 0 1.00162 -3.93326 0 0 -1.00162zm4.78606 0l7.5677 0 0 1.00162 -7.5677 0 0 -1.00162zm8.42049 0l7.33855 0 0 1.00162 -7.33855 0 0 -1.00162zm-13.2066 -2.05049l5.73453 0 0 1.00162 -5.73453 0 0 -1.00162zm6.58733 0l8.82209 0 0 1.00162 -2.20286 0 0 -0.00944928 -0.852798 0 0 0.00944928 -5.76643 0 0 -1.00162zm9.67489 0l4.28289 0 0 1.00162 -4.28289 0 0 -1.00162zm-16.2622 -4.00886l1.77883 0 0 1.00162 -1.77883 0 0 -1.00162zm2.63163 0l4.78724 0 0 1.00162 -4.78724 0 0 -1.00162zm5.64004 0l7.92086 0 0 1.00162 -7.92086 0 0 -1.00162zm8.77484 0l3.4986 0 0 1.00162 -3.4986 0 0 -1.00162z"/>
   <path id="_123472384" class="fil24" d="M5.40735 25.891l7.45785 0 0 1.00162 -7.45785 0 0 -1.00162zm8.31065 0l12.2345 0 0 1.00162 -12.2345 0 0 -1.00162z"/>
  </g>
  <g id="_87079496">
   <polygon id="_46122920" class="fil25" points="5.40499,3.98405 14.2164,3.98405 14.2164,5.02702 5.40499,5.02702 "/>
   <path id="_86926232" class="fil25" d="M14.0889 11.9096l4.23682 0 0 1.10911 -4.23682 0 0 -1.10911zm-8.85516 0l7.79448 0 0 1.10911 -7.79448 0 0 -1.10911z"/>
  </g>
  <g id="_85748368">
   <path id="_46068656" class="fil26" d="M15.0657 13.0412c7.43659,0 13.4664,0.285841 13.4664,0.637827 0,0.353167 -6.02982,0.639008 -13.4664,0.639008 -7.43541,0 -13.4664,-0.285841 -13.4664,-0.639008 0,-0.351986 6.03101,-0.637827 13.4664,-0.637827z"/>
   <g>
    <path id="_81181992" class="fil27" d="M15.1189 12.5534c7.27831,0 13.1818,0.285841 13.1818,0.639008 0,0.351986 -5.90344,0.639008 -13.1818,0.639008 -7.27949,0 -13.1829,-0.287022 -13.1829,-0.639008 0,-0.353167 5.90344,-0.639008 13.1829,-0.639008z"/>
    <path id="_80586496" class="fil28" d="M15.1708 12.0656c7.1224,0 12.8995,0.287022 12.8995,0.639008 0,0.353167 -5.77706,0.639008 -12.8995,0.639008 -7.1224,0 -12.8983,-0.285841 -12.8983,-0.639008 0,-0.351986 5.77587,-0.639008 12.8983,-0.639008z"/>
    <path id="_85190728" class="fil29" d="M15.2228 11.5789c6.96648,0 12.616,0.285841 12.616,0.639008 0,0.351986 -5.64949,0.639008 -12.616,0.639008 -6.9653,0 -12.6148,-0.287022 -12.6148,-0.639008 0,-0.353167 5.64949,-0.639008 12.6148,-0.639008z"/>
    <path id="_79364312" class="fil30" d="M15.2748 11.0923c6.80939,0 12.3325,0.285841 12.3325,0.637827 0,0.353167 -5.52311,0.639008 -12.3325,0.639008 -6.80821,0 -12.3313,-0.285841 -12.3313,-0.639008 0,-0.351986 5.52311,-0.637827 12.3313,-0.637827z"/>
    <path id="_80028552" class="fil31" d="M15.3279 10.6045c6.6523,0 12.0478,0.285841 12.0478,0.639008 0,0.351986 -5.39554,0.637827 -12.0478,0.637827 -6.65348,0 -12.0478,-0.285841 -12.0478,-0.637827 0,-0.353167 5.39436,-0.639008 12.0478,-0.639008z"/>
    <path id="_125328160" class="fil32" d="M15.3799 10.1166c6.49638,0 11.7644,0.287022 11.7644,0.639008 0,0.353167 -5.26798,0.639008 -11.7644,0.639008 -6.49638,0 -11.7644,-0.285841 -11.7644,-0.639008 0,-0.351986 5.26798,-0.639008 11.7644,-0.639008z"/>
    <path id="_80122016" class="fil33" d="M15.4319 9.63c6.33929,0 11.4809,0.285841 11.4809,0.639008 0,0.351986 -5.14159,0.639008 -11.4809,0.639008 -6.33929,0 -11.4797,-0.287022 -11.4797,-0.639008 0,-0.353167 5.14041,-0.639008 11.4797,-0.639008z"/>
    <path id="_78954720" class="fil34" d="M15.485 9.14218c6.18338,0 11.1974,0.285841 11.1974,0.639008 0,0.353167 -5.01403,0.639008 -11.1974,0.639008 -6.18219,0 -11.1974,-0.285841 -11.1974,-0.639008 0,-0.353167 5.01521,-0.639008 11.1974,-0.639008z"/>
    <path id="_82910832" class="fil35" d="M15.537 8.65554c6.02628,0 10.9139,0.285841 10.9139,0.639008 0,0.351986 -4.88764,0.639008 -10.9139,0.639008 -6.02628,0 -10.9139,-0.287022 -10.9139,-0.639008 0,-0.353167 4.88764,-0.639008 10.9139,-0.639008z"/>
    <path id="_123303280" class="fil36" d="M15.589 8.16891c5.86919,0 10.6304,0.285841 10.6304,0.637827 0,0.353167 -4.76126,0.639008 -10.6304,0.639008 -5.86919,0 -10.6293,-0.285841 -10.6293,-0.639008 0,-0.351986 4.76008,-0.637827 10.6293,-0.637827z"/>
    <path id="_124110656" class="fil37" d="M15.6421 7.68109c5.71327,0 10.3458,0.285841 10.3458,0.637827 0,0.353167 -4.63251,0.639008 -10.3458,0.639008 -5.71327,0 -10.3458,-0.285841 -10.3458,-0.639008 0,-0.351986 4.63251,-0.637827 10.3458,-0.637827z"/>
    <path id="_45640424" class="fil38" d="M15.6929 7.19327c5.55618,0 10.0635,0.287022 10.0635,0.639008 0,0.353167 -4.50731,0.639008 -10.0635,0.639008 -5.55618,0 -10.0623,-0.285841 -10.0623,-0.639008 0,-0.351986 4.50613,-0.639008 10.0623,-0.639008z"/>
    <path id="_45690776" class="fil39" d="M15.7472 6.70663c5.39908,0 9.77765,0.285841 9.77765,0.637827 0,0.353167 -4.37856,0.639008 -9.77765,0.639008 -5.40027,0 -9.78001,-0.285841 -9.78001,-0.639008 0,-0.351986 4.37974,-0.637827 9.78001,-0.637827z"/>
    <path id="_124296240" class="fil40" d="M15.7992 6.21881c5.24199,0 9.49417,0.285841 9.49417,0.639008 0,0.353167 -4.25218,0.639008 -9.49417,0.639008 -5.24317,0 -9.49535,-0.285841 -9.49535,-0.639008 0,-0.353167 4.25218,-0.639008 9.49535,-0.639008z"/>
    <path id="_81104552" class="fil41" d="M15.85 5.73217c5.08726,0 9.21187,0.285841 9.21187,0.639008 0,0.351986 -4.12461,0.639008 -9.21187,0.639008 -5.08608,0 -9.21069,-0.287022 -9.21069,-0.639008 0,-0.353167 4.12461,-0.639008 9.21069,-0.639008z"/>
    <path id="_83035712" class="fil42" d="M15.9031 5.24435c4.93016,0 8.92839,0.285841 8.92839,0.639008 0,0.351986 -3.99823,0.637827 -8.92839,0.637827 -4.93016,0 -8.92839,-0.285841 -8.92839,-0.637827 0,-0.353167 3.99823,-0.639008 8.92839,-0.639008z"/>
    <path id="_86059136" class="fil43" d="M15.9563 4.75771c4.77189,0 8.64373,0.285841 8.64373,0.637827 0,0.353167 -3.87184,0.639008 -8.64373,0.639008 -4.77425,0 -8.64491,-0.285841 -8.64491,-0.639008 0,-0.351986 3.87066,-0.637827 8.64491,-0.637827z"/>
    <path id="_122980760" class="fil44" d="M16.0071 4.27108c4.61716,0 8.36144,0.28466 8.36144,0.637827 0,0.353167 -3.74428,0.639008 -8.36144,0.639008 -4.61598,0 -8.36025,-0.285841 -8.36025,-0.639008 0,-0.353167 3.74428,-0.637827 8.36025,-0.637827z"/>
    <path id="_124235416" class="fil45" d="M16.0602 3.78326c4.46006,0 8.07678,0.285841 8.07678,0.637827 0,0.353167 -3.61671,0.639008 -8.07678,0.639008 -4.46006,0 -8.07678,-0.285841 -8.07678,-0.639008 0,-0.351986 3.61671,-0.637827 8.07678,-0.637827z"/>
    <path id="_86857352" class="fil46" d="M16.1122 3.29544c4.30415,0 7.7933,0.285841 7.7933,0.639008 0,0.353167 -3.48915,0.639008 -7.7933,0.639008 -4.30297,0 -7.7933,-0.285841 -7.7933,-0.639008 0,-0.353167 3.49033,-0.639008 7.7933,-0.639008z"/>
    <path id="_86293328" class="fil47" d="M16.1642 2.8088c4.14705,0 7.50982,0.285841 7.50982,0.637827 0,0.353167 -3.36276,0.639008 -7.50982,0.639008 -4.14587,0 -7.50982,-0.285841 -7.50982,-0.639008 0,-0.351986 3.36395,-0.637827 7.50982,-0.637827z"/>
    <path id="_46219048" class="fil48" d="M16.2173 2.32098c3.98996,0 7.22634,0.285841 7.22634,0.639008 0,0.353167 -3.23638,0.637827 -7.22634,0.637827 -3.98996,0 -7.22634,-0.28466 -7.22634,-0.637827 0,-0.353167 3.23638,-0.639008 7.22634,-0.639008z"/>
   </g>
   <path id="_84398216" class="fil49" d="M16.2693 1.83434c3.83405,0 6.94286,0.285841 6.94286,0.639008 0,0.351986 -3.10881,0.639008 -6.94286,0.639008 -3.83405,0 -6.94286,-0.287022 -6.94286,-0.639008 0,-0.353167 3.10881,-0.639008 6.94286,-0.639008z"/>
  </g>
  <g id="_84539664">
   <path id="_82350048" class="fil50" d="M15.6705 0.816182c2.21349,0 4.00886,2.11073 4.00886,4.71637 0,2.60446 -1.79536,4.71756 -4.00886,4.71756 -2.21349,0 -4.00768,-2.1131 -4.00768,-4.71756 0,-2.60564 1.79418,-4.71637 4.00768,-4.71637z"/>
   <g>
    <path id="_78829296" class="fil51" d="M15.7354 0.922486c2.03396,0 3.68522,1.93592 3.68522,4.32305 0,2.38713 -1.65126,4.32305 -3.68522,4.32305 -2.03514,0 -3.68758,-1.93592 -3.68758,-4.32305 0,-2.38713 1.65244,-4.32305 3.68758,-4.32305z"/>
    <path id="_84945528" class="fil52" d="M15.798 1.02997c1.8556,0 3.36276,1.75875 3.36276,3.92854 0,2.17097 -1.50716,3.93208 -3.36276,3.93208 -1.85678,0 -3.36276,-1.76111 -3.36276,-3.93208 0,-2.16979 1.50598,-3.92854 3.36276,-3.92854z"/>
    <path id="_85739544" class="fil53" d="M15.8618 1.1351c1.67843,0 3.03913,1.58394 3.03913,3.53758 0,1.95246 -1.3607,3.53639 -3.03913,3.53639 -1.67843,0 -3.04149,-1.58394 -3.04149,-3.53639 0,-1.95364 1.36306,-3.53758 3.04149,-3.53758z"/>
    <path id="_123739480" class="fil54" d="M15.9244 1.2414c1.50007,0 2.71785,1.40794 2.71785,3.14543 0,1.73394 -1.21778,3.14189 -2.71785,3.14189 -1.50007,0 -2.71785,-1.40794 -2.71785,-3.14189 0,-1.73749 1.21778,-3.14543 2.71785,-3.14543z"/>
    <path id="_80450680" class="fil55" d="M15.9882 1.34889c1.32172,0 2.39303,1.23077 2.39303,2.74974 0,1.52015 -1.07131,2.74974 -2.39303,2.74974 -1.32172,0 -2.39539,-1.22959 -2.39539,-2.74974 0,-1.51897 1.07367,-2.74974 2.39539,-2.74974z"/>
    <path id="_85349424" class="fil56" d="M16.0508 1.45637c1.14336,0 2.07176,1.05478 2.07176,2.35523 0,1.30164 -0.928392,2.3576 -2.07176,2.3576 -1.14336,0 -2.07176,-1.05596 -2.07176,-2.3576 0,-1.30046 0.928392,-2.35523 2.07176,-2.35523z"/>
    <path id="_125419648" class="fil57" d="M16.1146 1.56149c0.966189,0 1.7493,0.879965 1.7493,1.96427 0,1.08312 -0.783109,1.96309 -1.7493,1.96309 -0.965008,0 -1.75048,-0.879965 -1.75048,-1.96309 0,-1.08431 0.785472,-1.96427 1.75048,-1.96427z"/>
    <path id="_122678984" class="fil58" d="M16.1772 1.6678c0.787834,0 1.42802,0.703972 1.42802,1.57094 0,0.866972 -0.640189,1.57094 -1.42802,1.57094 -0.787834,0 -1.42566,-0.703972 -1.42566,-1.57094 0,-0.866972 0.637827,-1.57094 1.42566,-1.57094z"/>
   </g>
   <path id="_86593664" class="fil59" d="M16.241 1.77528c0.609479,0 1.1032,0.526798 1.1032,1.17644 0,0.649638 -0.493725,1.17762 -1.1032,1.17762 -0.609479,0 -1.10439,-0.527979 -1.10439,-1.17762 0,-0.649638 0.494906,-1.17644 1.10439,-1.17644z"/>
  </g>
  <polygon class="fil60" points="25.4292,4.52975 25.4292,9.85797 20.4624,9.85797 20.4624,4.52975 "/>
  <path class="fil61" d="M20.1104 7.74251c0.408682,-0.11221 0.861066,-0.271667 1.64536,-0.314189 2.24893,-0.12166 1.85324,0.525616 3.49978,0.326l0.173631 -0.0212609 0 0.614203 -3.84704 0 -1.47173 0.129928 0 -0.734682z"/>
  <path class="fil62" d="M25.4292 8.0567c-0.140558,-0.0165362 -0.291747,-0.0389783 -0.438211,-0.0437029 -3.23756,-0.109848 -3.0096,0.4075 -4.88056,0.354348l0 1.49062 5.31877 0 0 -1.80127z"/>
  <path class="fil63" d="M20.9266 6.83065c-0.147645,-0.0519711 -0.45829,-0.160638 -0.64137,-0.296471l0 -0.523254c0.0177174,-0.00708696 0.0354348,-0.0129928 0.0543334,-0.0153551 -0.0460653,-0.133471 -0.0271667,-0.237413 0.0992175,-0.277573 0.036616,-0.0118116 0.0744131,-0.0165362 0.108667,-0.0141739 0.0165362,-0.0389783 0.0401595,-0.0767754 0.0708696,-0.108667l0 0c0.0236232,-0.022442 0.0472464,-0.0401595 0.0720508,-0.0507899l0.00118116 -0.00118116c0.066145,-0.0307102 0.127565,-0.0188986 0.185442,0.0212609l0.00118116 0c0.0212609,0.0177174 0.0425218,0.0389783 0.0614203,0.066145l0.00826812 -0.00708696 -0.00118116 0c0.0342537,-0.029529 0.0744131,-0.0425218 0.119297,-0.0413406 0.0248044,0.00236232 0.0496087,0.00944928 0.073232,0.0212609l0 0c0.118116,0.0602392 0.180718,0.147645 0.201978,0.252768 0.088587,-0.0437029 0.181899,-0.0389783 0.276392,0.036616l0 0c0.0271667,0.0212609 0.0484276,0.0472464 0.0637827,0.073232 0.0401595,0.066145 0.0472464,0.137015 0.0259855,0.209065l-0.00118116 0.00236232c-0.0153551,0.0555145 -0.0472464,0.113391 -0.088587,0.167725 -0.102761,0.13229 -0.276392,0.26458 -0.409863,0.354348l0.144102 0.157094 -0.0543334 0.00118116c0.0437029,0.0921305 0.0377971,0.192529 -0.125203,0.268123 -0.216152,0.100399 -0.250406,-0.12166 -0.245681,-0.29529z"/>
  <path class="fil64" d="M20.3124 6.36882c0,0 0.170087,-0.500812 -0.120478,-0.581131"/>
  <path class="fil65" d="M20.1919 5.50657l0.022442 -0.00118116c0.134652,-0.00826812 0.0602392,-0.168906 0.0153551,-0.245681l0.00236232 -0.00118116 0.0248044 -0.0153551 0.0177174 -0.0129928c0.059058,-0.0448841 0.206703,-0.155913 0.274029,-0.256312 0.0519711,-0.0803189 0.0637827,-0.157094 -0.00826812,-0.216152 -0.0318913,-0.0259855 -0.0401595,-0.0200797 -0.0720508,-0.0165362 0.00472464,-0.073232 -0.0177174,-0.12166 -0.0803189,-0.124022 -0.0188986,-0.00118116 -0.0354348,0.00236232 -0.0519711,0.00826812 -0.0118116,-0.0177174 -0.0283479,-0.0330725 -0.0460653,-0.0437029l0 0c-0.0129928,-0.00826812 -0.0271667,-0.0141739 -0.0389783,-0.0165362l-0.00118116 0c-0.0248044,0.00236232 -0.0437029,0.0118116 -0.0578769,0.0259855l0 0.915399z"/>
  <path class="fil65" d="M21.1959 8.39569c-0.126384,-0.0614203 -0.39687,-0.192529 -0.535066,-0.333087 -0.113391,-0.113391 -0.154732,-0.236232 -0.0437029,-0.351986 0.0507899,-0.0519711 0.103942,-0.0779566 0.160638,-0.0803189 -0.0271667,-0.118116 0,-0.201978 0.109848,-0.225602 0.0330725,-0.0059058 0.0637827,-0.0059058 0.0944928,0 0.0165362,-0.0330725 0.0401595,-0.0614203 0.0696885,-0.0862247l0 0c0.0212609,-0.0177174 0.0437029,-0.0283479 0.066145,-0.0354348l0 0c0.0602392,-0.0200797 0.111029,-0.00472464 0.155913,0.0354348l0 0c0.0177174,0.0165362 0.0330725,0.0377971 0.0472464,0.0614203l0.0059058 -0.00472464 0 0c0.0318913,-0.0212609 0.0673261,-0.029529 0.105123,-0.022442 0.0200797,0.00354348 0.0401595,0.0118116 0.0602392,0.0248044l0 0c0.0944928,0.0626015 0.139377,0.14292 0.147645,0.23387 0.0791378,-0.0283479 0.157094,-0.0153551 0.229145,0.059058l0.00118116 0c0.0212609,0.0212609 0.036616,0.0437029 0.0472464,0.0685073 0.0271667,0.0578769 0.0259855,0.120478 0.00118116,0.179536l0 0.00118116c-0.0177174,0.0460653 -0.0507899,0.0921305 -0.0921305,0.133471 -0.0992175,0.10158 -0.258674,0.197254 -0.379153,0.261036l0.106304 0.145283 -0.0460653 -0.00354348c0.029529,0.0826812 0.0141739,0.167725 -0.13229,0.216152 -0.192529,0.0637827 -0.199616,-0.129928 -0.179536,-0.276392z"/>
  <path class="fil66" d="M20.6703 9.01225c-0.029529,-0.181899 -0.0909494,-0.57995 -0.0472464,-0.837443 0.036616,-0.210247 0.134652,-0.347261 0.338993,-0.309464 0.0933117,0.0165362 0.160638,0.0566957 0.204341,0.115754 0.105123,-0.115754 0.21379,-0.15237 0.318913,-0.0460653 0.0318913,0.0318913 0.0555145,0.0673261 0.0720508,0.102761 0.0448841,-0.0059058 0.0933117,-0.00118116 0.141739,0.0153551l0 -0.00118116c0.0342537,0.0106304 0.0637827,0.0271667 0.0874059,0.0460653l0 0.00118116c0.0649638,0.0507899 0.088587,0.118116 0.0791378,0.197254l-0.00118116 0.00118116c-0.00354348,0.0307102 -0.0153551,0.0637827 -0.029529,0.0968552l0.00944928 0.00236232 0 0c0.0460653,0.0200797 0.0803189,0.0531522 0.102761,0.100399 0.0106304,0.0248044 0.0177174,0.0531522 0.0177174,0.0850436l0 0c0.00354348,0.150007 -0.0472464,0.259855 -0.137015,0.336631 0.088587,0.066145 0.133471,0.161819 0.109848,0.296471l0 0c-0.00708696,0.0389783 -0.0200797,0.0720508 -0.036616,0.103942 -0.0425218,0.0744131 -0.108667,0.118116 -0.188986,0.137015l-0.00118116 0c-0.0626015,0.0129928 -0.134652,0.0106304 -0.210247,-0.00354348 -0.180718,-0.0342537 -0.399232,-0.138196 -0.556327,-0.22442l-0.0755943 0.226783 -0.029529 -0.0543334c-0.066145,0.0933117 -0.166544,0.139377 -0.326,0.0141739 -0.211428,-0.164181 -0.0129928,-0.31537 0.157094,-0.402776z"/>
  <path class="fil67" d="M20.8546 5.6424c-0.180718,-0.158276 -0.23387,-0.550421 -0.268123,-0.771298 0.103942,0.108667 0.305921,0.624834 0.328363,0.54924 0.022442,-0.0744131 -0.0602392,0.222058 -0.0602392,0.222058z"/>
  <path class="fil65" d="M20.5628 9.793c-0.00472464,-0.0248044 -0.0165362,-0.0472464 -0.0342537,-0.0696885 0.0614203,-0.0106304 0.103942,-0.0413406 0.11221,-0.0992175l0 -0.00118116c0.00236232,-0.0165362 0.00118116,-0.0318913 -0.00354348,-0.0484276 -0.0106304,-0.0377971 -0.0413406,-0.0673261 -0.0838624,-0.0897682l-0.00118116 0 -0.00354348 -0.00118116 0.0141739 -0.0153551 0.00118116 0c0.029529,-0.0330725 0.0425218,-0.073232 0.036616,-0.118116 -0.00118116,-0.0177174 -0.00708696,-0.0354348 -0.0165362,-0.0543334l-0.00118116 0c-0.0330725,-0.0649638 -0.0826812,-0.0909494 -0.141739,-0.0909494 0.0129928,-0.0602392 0.036616,-0.100399 -0.0141739,-0.161819l0 -0.00118116c-0.0106304,-0.0118116 -0.0236232,-0.022442 -0.0354348,-0.0283479 -0.0248044,-0.0141739 -0.0507899,-0.0165362 -0.0767754,-0.00944928l-0.122841 0.11221 0 0.676805 0.370884 0z"/>
  <path class="fil65" d="M23.3421 9.08667l-0.0755943 0.0862247 0 0c0,0.0141739 -0.0153551,0.0283479 -0.0342537,0.0437029l-0.00118116 0.00354348c-0.00708696,0.0153551 -0.0200797,0.0342537 -0.036616,0.0555145l0.566957 -0.161819c0.059058,0.00944928 0.107486,0.0354348 0.141739,0.0803189 0.0177174,0.0236232 0.029529,0.0519711 0.036616,0.0838624l-0.00118116 0.00118116c0.0318913,0.157094 -0.0614203,0.211428 -0.159457,0.313008 0.0944928,0.0389783 0.158276,0.102761 0.177174,0.200797l-1.66071 0c-0.0696885,-0.197254 -0.192529,-0.569319 -0.180718,-0.833899 0.0106304,-0.229145 0.109848,-0.394508 0.367341,-0.403957 0.116935,-0.00472464 0.126384,0.0200797 0.191348,0.073232 0.108667,-0.148826 0.237413,-0.210247 0.385058,-0.122841 0.0425218,0.0248044 0.0767754,0.0578769 0.102761,0.0909494 0.0566957,-0.0165362 0.115754,-0.022442 0.175993,-0.0165362l0.00118116 -0.00118116c0.0437029,0.00236232 0.0826812,0.0129928 0.113391,0.0283479l0.00118116 0c0.197254,0.146464 0.036616,0.362616 -0.111029,0.479551zm-0.15237 0.194891l0.0307102 0.0307102 -0.0826812 0.0271667 0.0519711 -0.0578769z"/>
  <path class="fil65" d="M20.1919 7.5547c0.0248044,0.0141739 0.0531522,0.0177174 0.0862247,0.00826812 0.0188986,-0.0059058 0.0342537,-0.0129928 0.0460653,-0.022442 0.0200797,0.00826812 0.0413406,0.0141739 0.0649638,0.0165362l0 0c0.0165362,0.00118116 0.0318913,0 0.0448841,-0.00236232l0.00118116 0c0.0342537,-0.00708696 0.0543334,-0.0248044 0.0602392,-0.0507899l0 0c0.00236232,-0.00944928 0.00236232,-0.0212609 0,-0.0342537l0.00472464 0 0 0c0.0236232,0.00118116 0.0437029,-0.00472464 0.059058,-0.0153551 0.00826812,-0.00708696 0.0153551,-0.0153551 0.0200797,-0.0248044l0 0c0.0212609,-0.0460653 0.0129928,-0.0862247 -0.0165362,-0.122841 0.0484276,-0.00826812 0.0803189,-0.0330725 0.0874059,-0.0779566l0 0c0.00236232,-0.0129928 0.00118116,-0.0248044 -0.00118116,-0.0377971 -0.0106304,-0.0283479 -0.0330725,-0.0519711 -0.0673261,-0.0696885l-0.00118116 0 -0.0106304 -0.00472464 0.0212609 -0.0177174 0 0c0.022442,-0.0212609 0.0330725,-0.0484276 0.0283479,-0.0779566 -0.00236232,-0.0118116 -0.00708696,-0.0248044 -0.0153551,-0.036616l0 0c-0.0259855,-0.0437029 -0.066145,-0.0626015 -0.113391,-0.0626015 0.0106304,-0.0413406 0.0283479,-0.0673261 -0.0118116,-0.109848l0 0c-0.00944928,-0.00826812 -0.0177174,-0.0153551 -0.0283479,-0.0200797 -0.0188986,-0.00826812 -0.0389783,-0.0106304 -0.059058,-0.00708696l-0.147645 0.114573 -0.00354348 0.00118116 -0.00944928 0.0330725c0.00944928,-0.0106304 0.0200797,-0.0200797 0.0318913,-0.029529l-0.0212609 -0.00826812 0.00354348 -0.0153551c0.00354348,-0.00826812 0.00708696,-0.0153551 0.00472464,-0.0212609l0.00708696 -0.0354348c0.0212609,-0.0507899 0.0283479,-0.131109 -0.0614203,-0.151189l0 0 -0.00354348 0 0 0.882327z"/>
  <path class="fil68" d="M20.6514 5.67784c0,0 -0.0578769,0.146464 -0.00826812,0.173631 0.0484276,0.022442 0.0767754,0.0803189 0.0874059,-0.029529 0.0118116,-0.109848 -0.0165362,-0.088587 -0.0165362,-0.088587 0,0 -0.0602392,-0.0543334 -0.0626015,-0.0555145z"/>
  <path class="fil68" d="M21.118 5.14632c0,0.0059058 -0.0059058,0.0141739 -0.0129928,0.0236232l0 0c-0.00118116,0.00826812 -0.00472464,0.0188986 -0.0106304,0.0318913l0.227964 -0.119297c0.0248044,0.00236232 0.0484276,0.0118116 0.0649638,0.0307102 0.00826812,0.0118116 0.0165362,0.0236232 0.0212609,0.0389783l0 0c0.0248044,0.0744131 -0.00944928,0.109848 -0.0448841,0.167725 0.0555145,0.0153551 0.0921305,0.0543334 0.0992175,0.128746l0 0c0.00118116,0.022442 0,0.0425218 -0.00354348,0.0602392 -0.0106304,0.0460653 -0.0377971,0.0826812 -0.0755943,0.106304l0 0c-0.029529,0.0212609 -0.0637827,0.0318913 -0.105123,0.0413406 -0.0944928,0.0153551 -0.219696,0.00708696 -0.313008,-0.00708696l-0.0401595 0.0685073 -0.029529 -0.0248044c-0.0200797,0.095674 -0.0626015,0.270486 -0.214971,0.174812 -0.139377,-0.0850436 0.0283479,-0.214971 0.118116,-0.271667l-0.00118116 0 -0.0188986 -0.0318913 -0.0129928 -0.022442c-0.036616,-0.0815001 -0.133471,-0.281116 -0.151189,-0.42758 -0.00944928,-0.114573 0.0188986,-0.201978 0.127565,-0.223239 0.0484276,-0.0106304 0.0555145,0.00118116 0.0862247,0.022442 0.0330725,-0.0791378 0.0826812,-0.118116 0.15237,-0.0838624 0.0200797,0.00708696 0.0377971,0.0200797 0.0507899,0.036616 0.0212609,-0.00944928 0.0472464,-0.0188986 0.0720508,-0.0188986l0 0c0.0188986,-0.00118116 0.0377971,0 0.0507899,0.00354348l0 0.00118116c0.0944928,0.0602392 0.0437029,0.175993 -0.0106304,0.245681l-0.0259855 0.0484276zm-0.0248044 0.0566957l-0.0177174 0.0318913 0.0330725 -0.0177174 -0.0153551 -0.0141739z"/>
  <g id="_122388296">
   <path id="_79453240" class="fil69" d="M23.2133 9.793c0.0425218,-0.036616 0.0862247,-0.0708696 0.118116,-0.0944928 0.13229,-0.10158 0.173631,-0.139377 0.186623,-0.153551l0.00354348 0c0.326,-0.0767754 0.566957,0.0685073 0.733501,0.248044l-1.04178 0z"/>
   <path id="_83509544" class="fil70" d="M23.5653 9.7682l-0.00944928 0.0248044 -0.266942 0 0.036616 -0.0141739c0.157094,-0.0472464 0.239776,-0.0106304 0.239776,-0.0106304z"/>
   <path id="_128188200" class="fil71" d="M23.524 9.53787c0,0 0.133471,-0.323638 0.285841,-0.344899 0.188986,-0.0259855 0.341355,-0.00354348 0.428761,0.236232 0.0318913,0.088587 0.0685073,0.218515 0.111029,0.363797l-1.13628 0c0.0425218,-0.036616 0.0862247,-0.0708696 0.116935,-0.0944928 0.198435,-0.150007 0.19371,-0.160638 0.19371,-0.160638z"/>
   <path id="_123341408" class="fil72" d="M24.2953 9.793c-0.153551,-0.201978 -0.4075,-0.353167 -0.77366,-0.248044l-0.00354348 0c-0.0129928,0.0141739 -0.0531522,0.0519711 -0.187805,0.153551 -0.0307102,0.0236232 -0.0744131,0.0578769 -0.116935,0.0944928l1.08194 0z"/>
   <path id="_86122256" class="fil69" d="M23.4685 9.793l0.00472464 -0.00118116c0.128746,-0.0507899 0.220877,-0.0507899 0.310645,-0.0448841 0.0354348,0.00236232 0.0649638,0.0141739 0.100399,0.0177174 0.165362,0.0177174 0.210247,-0.0129928 0.28466,0.0283479l-0.700428 0z"/>
   <path id="_125583976" class="fil69" d="M23.524 9.53787c0,0 0.0543334,-0.13229 0.134652,-0.23387 0.022442,0.0921305 0.522073,0.321276 0.225602,0.231507 -0.223239,-0.0673261 -0.484276,0.115754 -0.652001,0.257493l-0.0200797 0c0.0425218,-0.036616 0.0874059,-0.0708696 0.118116,-0.0944928 0.198435,-0.150007 0.19371,-0.160638 0.19371,-0.160638z"/>
  </g>
  <path class="fil73" d="M22.9381 9.01934c0.0578769,-0.0377971 0.12166,-0.0401595 0.14292,-0.0059058 0.022442,0.0342537 -0.00708696,0.0921305 -0.066145,0.129928 -0.0566957,0.0377971 -0.120478,0.0413406 -0.14292,0.00708696 -0.0212609,-0.0342537 0.00826812,-0.0933117 0.066145,-0.131109z"/>
  <path class="fil74" d="M6.02982 16.9319l20.0384 0c0.535066,0 0.97682,0.450022 0.973276,0.990994l-0.138196 4.19076c-0.00236232,0.53979 -0.444116,0.992175 -0.972095,0.992175l-19.8766 0c-0.52916,0 -0.959102,-0.446479 -0.973276,-0.992175l-0.0248044 -4.19076c-0.0129928,-0.545696 0.438211,-0.990994 0.973276,-0.990994zm1.72922 1.97018l16.6461 0c0.327181,0 0.629559,0.283479 0.596486,0.608298l-0.108667 1.0536c-0.0330725,0.324819 -0.276392,0.609479 -0.596486,0.609479l-16.4843 0c-0.320094,0 -0.57995,-0.274029 -0.596486,-0.609479l-0.0531522 -1.0536c-0.0165362,-0.334268 0.268123,-0.608298 0.596486,-0.608298z"/>
  <path class="fil75" d="M6.02982 16.9319l20.0384 0c0.535066,0 0.97682,0.450022 0.973276,0.990994l-0.138196 4.19076c-0.00236232,0.53979 -0.444116,0.992175 -0.972095,0.992175l-19.8766 0c-0.52916,0 -0.959102,-0.446479 -0.973276,-0.992175l-0.0248044 -4.19076c-0.0129928,-0.545696 0.438211,-0.990994 0.973276,-0.990994zm20.0384 0.500812l-20.0384 0 -0.022442 0 0 -0.00236232c-0.118116,0.00472464 -0.231507,0.059058 -0.314189,0.141739 -0.0826812,0.0838624 -0.135833,0.200797 -0.135833,0.328363l0 0.022442 -0.00236232 0 0.0248044 4.17895 0 0.00944928c0.0059058,0.138196 0.0649638,0.266942 0.15237,0.355529 0.0826812,0.0838624 0.198435,0.138196 0.322457,0.138196l19.8766 0c0.124022,0 0.242138,-0.0555145 0.327181,-0.141739 0.088587,-0.0909494 0.146464,-0.218515 0.146464,-0.351986l0 -0.0129928 0.138196 -4.1754 -0.00236232 0 0 -0.0059058 0.00236232 -0.00236232 0 -0.00708696c-0.00236232,-0.126384 -0.0566957,-0.246863 -0.141739,-0.333087 -0.0850436,-0.0874059 -0.20316,-0.14292 -0.327181,-0.144102l0 0.00236232 -0.0059058 0zm-18.3092 0.968552l16.6461 0 0.029529 0.00236232 0.0578769 0.00354348 0.0188986 0.00236232c0.261036,0.0248044 0.506718,0.148826 0.682711,0.324819 0.187805,0.187805 0.310645,0.446479 0.310645,0.727595l-0.00236232 0.0236232 -0.00236232 0.0484276 -0.00236232 0.0271667 -0.108667 1.0536c-0.0283479,0.276392 -0.15237,0.542153 -0.337812,0.73232l-0.00236232 0.00236232c-0.194891,0.198435 -0.454747,0.324819 -0.752399,0.324819l-16.4843 0c-0.297652,0 -0.566957,-0.125203 -0.76303,-0.326l-0.00472464 -0.00472464c-0.190167,-0.194891 -0.313008,-0.465377 -0.327181,-0.755943l-0.0531522 -1.0536 0 -0.00236232 -0.00118116 -0.0271667 -0.00236232 -0.0212609c0,-0.292928 0.122841,-0.561051 0.316551,-0.754762 0.187805,-0.187805 0.452384,-0.310645 0.731138,-0.323638l0.00118116 0 0.029529 -0.00118116 0.0200797 -0.00236232zm0 0.500812l16.6461 0c0.327181,0 0.629559,0.283479 0.596486,0.608298l-0.108667 1.0536c-0.0330725,0.324819 -0.276392,0.609479 -0.596486,0.609479l-16.4843 0c-0.320094,0 -0.57995,-0.274029 -0.596486,-0.609479l-0.0531522 -1.0536c-0.0165362,-0.334268 0.268123,-0.608298 0.596486,-0.608298z"/>
  <polygon class="fil76" points="20.9798,18.9045 22.3464,20.8451 22.2625,20.9243 22.6322,21.229 23.0385,21.7782 23.6764,21.7168 24.7181,21.0093 30.8259,14.8236 30.1527,13.6932 24.5197,19.423 24.5244,19.3982 23.7248,18.1332 29.5184,12.4116 28.988,11.2565 22.5696,17.5402 21.2077,18.2997 "/>
  <circle class="fil77" transform="matrix(0.585543 -0.116434 0.116434 0.58554 22.4671 19.7971)" r="4.54274"/>
  <path class="fil78" d="M22.2661 18.4096c0.868153,-0.172449 1.71268,0.392145 1.88513,1.2603 0.172449,0.868153 -0.390964,1.71268 -1.2603,1.88513 -0.868153,0.172449 -1.71268,-0.390964 -1.88513,-1.2603 -0.172449,-0.868153 0.390964,-1.7115 1.2603,-1.88513z"/>
  <circle class="fil79" transform="matrix(0.113809 -0.0226306 0.0226307 0.113808 22.4777 19.2605)" r="4.54274"/>
  <circle class="fil80" cx="22.4595" cy="19.7378" r="1.03222"/>
  <path class="fil81" d="M22.5082 18.895c0.613022,0 1.10911,0.497269 1.10911,1.11029 0,0.613022 -0.496087,1.10911 -1.10911,1.10911 -0.613022,0 -1.11029,-0.496087 -1.11029,-1.10911 0,-0.613022 0.497269,-1.11029 1.11029,-1.11029z"/>
  <circle class="fil79" cx="22.4548" cy="19.755" r="1.07331"/>
  <path class="fil82" d="M23.5157 19.5895c0.00826812,0.0543334 0.0129928,0.108667 0.0129928,0.165362 0,0.592943 -0.480732,1.07367 -1.07367,1.07367 -0.592943,0 -1.07367,-0.480732 -1.07367,-1.07367 0,-0.0330725 0.00118116,-0.0649638 0.00472464,-0.0980363 0.0791378,0.513805 0.524435,0.908312 1.06068,0.908312 0.55987,0 1.01934,-0.428761 1.06895,-0.975639z"/>
  <ellipse class="fil83" cx="16.2735" cy="2.2059" rx="1.19242" ry="0.823901"/>
  <path class="fil84" d="M22.7751 0.696885c0.0685073,0.0153551 0.109848,0.0874059 0.109848,0.146464l0 1.0595c0,0.0720508 -0.0744131,0.13229 -0.161819,0.13229l-13.959 0c-0.0874059,0 -0.161819,-0.059058 -0.161819,-0.13229l0 -1.08667c0,-0.0271667 0.0118116,-0.0531522 0.029529,-0.0744131l0.583493 -0.454747 13.0247 -0.0531522 0.535066 0.463015z"/>
  <rect class="fil85" x="8.71109" y="0.929976" width="14.1882" height="1.05913"/>
  <path class="fil86" d="M22.5649 3.07456l-14.1975 0c-0.0354348,0 -0.102761,-0.00826812 -0.179536,-0.0212609l0 -1.13037 0.242138 0 0 0.0980363 14.1349 0 0 1.0536z"/>
  <path class="fil86" d="M23.0267 0.663812c0.0555145,0.0354348 0.100399,0.0874059 0.133471,0.147645l0.00118116 0.00236232c0.0413406,0.0791378 0.066145,0.173631 0.066145,0.257493l-0.0271667 1.52606c0,0.114573 -0.0437029,0.22442 -0.113391,0.303558l0 0c-0.0685073,0.0767754 -0.285841,0.127565 -0.390964,0.127565l-0.536247 -0.0283479 0.0271667 -0.949653 0.0318913 0 0 -0.705153 -0.0472464 -0.0330725 -0.290565 -0.375609 -12.2203 0.151189 -0.459471 0.334268c0,0.713421 0.0637827,1.00871 0.0637827,1.80836 -0.154732,-0.0212609 -0.999262,-0.113391 -1.04651,-0.167725 -0.0685073,-0.0767754 -0.139377,-0.536247 -0.139377,-0.654363 0,-2.26665 -0.0496087,-0.900044 0.983907,-2.282l0.151189 -0.0685073 13.0247 -0.0708696 0.0944928 0 0.066145 0.0755943 0.627196 0.601211z"/>
 </g>
</svg>
