<?xml version="1.0" encoding="UTF-8" standalone="no"?>
<!-- Creator: CorelDRAW -->

<svg
   xmlns:dc="http://purl.org/dc/elements/1.1/"
   xmlns:cc="http://creativecommons.org/ns#"
   xmlns:rdf="http://www.w3.org/1999/02/22-rdf-syntax-ns#"
   xmlns:svg="http://www.w3.org/2000/svg"
   xmlns="http://www.w3.org/2000/svg"
   xmlns:xlink="http://www.w3.org/1999/xlink"
   xmlns:sodipodi="http://sodipodi.sourceforge.net/DTD/sodipodi-0.dtd"
   xmlns:inkscape="http://www.inkscape.org/namespaces/inkscape"
   xml:space="preserve"
   width="32px"
   height="32px"
   style="shape-rendering:geometricPrecision; text-rendering:geometricPrecision; image-rendering:optimizeQuality; fill-rule:evenodd; clip-rule:evenodd"
   viewBox="0 0 32 32"
   id="svg4468"
   version="1.1"
   inkscape:version="0.48.1 r9760"
   sodipodi:docname="preferences-desktop-keyboard.svg"><metadata
   id="metadata4576"><rdf:RDF><cc:Work
       rdf:about=""><dc:format>image/svg+xml</dc:format><dc:type
         rdf:resource="http://purl.org/dc/dcmitype/StillImage" /><dc:title></dc:title></cc:Work></rdf:RDF></metadata><sodipodi:namedview
   pagecolor="#ffffff"
   bordercolor="#666666"
   borderopacity="1"
   objecttolerance="10"
   gridtolerance="10"
   guidetolerance="10"
   inkscape:pageopacity="0"
   inkscape:pageshadow="2"
   inkscape:window-width="646"
   inkscape:window-height="480"
   id="namedview4574"
   showgrid="false"
   inkscape:zoom="8.3125"
   inkscape:cx="16"
   inkscape:cy="16"
   inkscape:window-x="0"
   inkscape:window-y="24"
   inkscape:window-maximized="0"
   inkscape:current-layer="svg4468" />
 <defs
   id="defs4470">
  <style
   type="text/css"
   id="style4472">
   
    .fil9 {fill:#B5E2FF}
    .fil25 {fill:#999999;fill-rule:nonzero}
    .fil13 {fill:#CCCCCC;fill-rule:nonzero}
    .fil11 {fill:white;fill-rule:nonzero}
    .fil24 {fill:#6EAEE4;fill-rule:nonzero}
    .fil23 {fill:#999999;fill-rule:nonzero}
    .fil0 {fill:#C4FFFF;fill-opacity:0.000000}
    .fil1 {fill:#C3FCFF;fill-opacity:0.109804}
    .fil18 {fill:#CCCCCC;fill-opacity:0.219608}
    .fil2 {fill:#C1F9FF;fill-opacity:0.223529}
    .fil3 {fill:#BFF6FF;fill-opacity:0.333333}
    .fil4 {fill:#BEF3FF;fill-opacity:0.443137}
    .fil12 {fill:#999999;fill-opacity:0.501961}
    .fil5 {fill:#BCEFFF;fill-opacity:0.556863}
    .fil6 {fill:#BAECFF;fill-opacity:0.666667}
    .fil7 {fill:#B9E9FF;fill-opacity:0.776471}
    .fil8 {fill:#B7E6FF;fill-opacity:0.890196}
    .fil16 {fill:url(#id0)}
    .fil20 {fill:url(#id1)}
    .fil17 {fill:url(#id2)}
    .fil10 {fill:url(#id3)}
    .fil14 {fill:url(#id4)}
    .fil15 {fill:url(#id5)}
    .fil19 {fill:url(#id6);fill-rule:nonzero}
    .fil21 {fill:url(#id7);fill-rule:nonzero}
    .fil22 {fill:url(#id8);fill-rule:nonzero}
   
  </style>
  <linearGradient
   id="id0"
   gradientUnits="userSpaceOnUse"
   x1="24.8162"
   y1="6.8153"
   x2="24.8162"
   y2="17.0938">
   <stop
   offset="0"
   style="stop-color:#E5E5E5"
   id="stop4475" />
   <stop
   offset="1"
   style="stop-color:#B2B2B2"
   id="stop4477" />
  </linearGradient>
  <linearGradient
   id="id1"
   gradientUnits="userSpaceOnUse"
   x1="24.9426"
   y1="8.42049"
   x2="24.9426"
   y2="15.2004">
   <stop
   offset="0"
   style="stop-color:#E5E5E5"
   id="stop4480" />
   <stop
   offset="1"
   style="stop-color:white"
   id="stop4482" />
  </linearGradient>
  <linearGradient
   id="id2"
   gradientUnits="userSpaceOnUse"
   xlink:href="#id1"
   x1="9.41975"
   y1="8.39096"
   x2="9.41975"
   y2="15.4177">
  </linearGradient>
  <linearGradient
   id="id3"
   gradientUnits="userSpaceOnUse"
   xlink:href="#id0"
   x1="11.9781"
   y1="20.2191"
   x2="11.9781"
   y2="29.8491">
  </linearGradient>
  <linearGradient
   id="id4"
   gradientUnits="userSpaceOnUse"
   xlink:href="#id1"
   x1="11.8494"
   y1="21.8066"
   x2="11.9167"
   y2="28.4329">
  </linearGradient>
  <linearGradient
   id="id5"
   gradientUnits="userSpaceOnUse"
   xlink:href="#id0"
   x1="9.78237"
   y1="7.24878"
   x2="9.78237"
   y2="16.4725">
  </linearGradient>
  <linearGradient
   id="id6"
   gradientUnits="userSpaceOnUse"
   x1="9.3796"
   y1="8.43939"
   x2="9.69969"
   y2="15.5323">
   <stop
   offset="0"
   style="stop-color:white"
   id="stop4489" />
   <stop
   offset="1"
   style="stop-color:#E9E9E9"
   id="stop4491" />
  </linearGradient>
  <linearGradient
   id="id7"
   gradientUnits="userSpaceOnUse"
   xlink:href="#id6"
   x1="24.8847"
   y1="8.55751"
   x2="25.2213"
   y2="15.4531">
  </linearGradient>
  <linearGradient
   id="id8"
   gradientUnits="userSpaceOnUse"
   xlink:href="#id6"
   x1="11.834"
   y1="21.5231"
   x2="12.1612"
   y2="28.1789">
  </linearGradient>
 </defs>
 <g
   id="Слой_x0020_1">
  <metadata
   id="CorelCorpID_0Corel-Layer" />
  <g
   id="_290890512">
   <path
   id="_290880792"
   class="fil0"
   d="M19.1336 3.91555l11.6628 0c1.20951,0 2.19932,1.04769 2.19932,2.32807l0 11.4076c0,1.28156 -0.989812,2.32807 -2.19932,2.32807l-11.6628 0c-1.21069,0 -2.2005,-1.04651 -2.2005,-2.32807l0 -11.4076c0,-1.28038 0.989812,-2.32807 2.2005,-2.32807z" />
   <g
   id="g4499">
    <path
   id="_290885592"
   class="fil1"
   d="M19.3616 4.22974c3.73483,0 7.47084,0 11.2069,0 1.16226,0 2.1131,1.00753 2.1131,2.23712 0,3.65451 0,7.30784 0,10.96 0,1.23077 -0.950834,2.23712 -2.1131,2.23712 -3.73601,0 -7.47202,0 -11.2069,0 -1.16226,0 -2.11428,-1.00635 -2.11428,-2.23712 0,-3.65215 0,-7.30548 0,-10.96 0,-1.22959 0.952015,-2.23712 2.11428,-2.23712z" />
    <path
   id="_290885664"
   class="fil2"
   d="M19.5907 4.54511c3.58246,0 7.16492,0 10.7486,0 1.11502,0 2.02805,0.965008 2.02805,2.14499 0,3.50568 0,7.01019 0,10.5135 0,1.18116 -0.913037,2.14499 -2.02805,2.14499 -3.58364,0 -7.1661,0 -10.7486,0 -1.1162,0 -2.02805,-0.963827 -2.02805,-2.14499 0,-3.50332 0,-7.00783 0,-10.5135 0,-1.17998 0.911856,-2.14499 2.02805,-2.14499z" />
    <path
   id="_290881992"
   class="fil3"
   d="M19.8187 4.85929c3.43009,0 6.86136,0 10.2926,0 1.06777,0 1.94065,0.924849 1.94065,2.05404 0,3.35686 0,6.71254 0,10.067 0,1.13037 -0.872878,2.05404 -1.94065,2.05404 -3.43127,0 -6.86254,0 -10.2926,0 -1.06777,0 -1.94183,-0.923668 -1.94183,-2.05404 0,-3.3545 0,-6.71017 0,-10.067 0,-1.12919 0.874059,-2.05404 1.94183,-2.05404z" />
    <path
   id="_290873736"
   class="fil4"
   d="M20.0467 5.17348c3.2789,0 6.55662,0 9.83552,0 1.02052,0 1.8556,0.883508 1.8556,1.96309 0,3.20803 0,6.41488 0,9.62055 0,1.07958 -0.83508,1.96309 -1.8556,1.96309 -3.2789,0 -6.55662,0 -9.83552,0 -1.02052,0 -1.8556,-0.883508 -1.8556,-1.96309 0,-3.20567 0,-6.41252 0,-9.62055 0,-1.07958 0.83508,-1.96309 1.8556,-1.96309z" />
    <path
   id="_290869104"
   class="fil5"
   d="M20.2758 5.48885c3.12535,0 6.25188,0 9.37841,0 0.973276,0 1.76938,0.842167 1.76938,1.87214 0,3.05802 0,6.11605 0,9.17171 0,1.03115 -0.796102,1.87214 -1.76938,1.87214 -3.12653,0 -6.25306,0 -9.37841,0 -0.973276,0 -1.76938,-0.840986 -1.76938,-1.87214 0,-3.05566 0,-6.11369 0,-9.17171 0,-1.02997 0.796102,-1.87214 1.76938,-1.87214z" />
    <path
   id="_290872992"
   class="fil6"
   d="M20.5038 5.80304c2.97416,0 5.94714,0 8.92131,0 0.92603,0 1.68433,0.800827 1.68433,1.78119 0,2.9092 0,5.8184 0,8.72523 0,0.980363 -0.758305,1.78119 -1.68433,1.78119 -2.97416,0 -5.94714,0 -8.92131,0 -0.92603,0 -1.68315,-0.800827 -1.68315,-1.78119 0,-2.90684 0,-5.81603 0,-8.72523 0,-0.980363 0.757124,-1.78119 1.68315,-1.78119z" />
    <path
   id="_290884440"
   class="fil7"
   d="M20.7317 6.11723c2.82179,0 5.64358,0 8.46538,0 0.878783,0 1.59693,0.760667 1.59693,1.69024 0,2.76037 0,5.52074 0,8.27875 0,0.929573 -0.718146,1.69024 -1.59693,1.69024 -2.82179,0 -5.64358,0 -8.46538,0 -0.877602,0 -1.59693,-0.760667 -1.59693,-1.69024 0,-2.75801 0,-5.51838 0,-8.27875 0,-0.929573 0.719327,-1.69024 1.59693,-1.69024z" />
    <path
   id="_105707560"
   class="fil8"
   d="M20.9609 6.4326c2.66942,0 5.33766,0 8.00709,0 0.831537,0 1.51189,0.718146 1.51189,1.59811 0,2.61155 0,5.22309 0,7.83228 0,0.879965 -0.680348,1.59811 -1.51189,1.59811 -2.66942,0 -5.33766,0 -8.00709,0 -0.831537,0 -1.5107,-0.718146 -1.5107,-1.59811 0,-2.60918 0,-5.22073 0,-7.83228 0,-0.879965 0.679167,-1.59811 1.5107,-1.59811z" />
   </g>
   <rect
   id="_290895432"
   class="fil9"
   x="19.7641"
   y="6.74627"
   width="10.4011"
   height="10.4023"
   rx="12.6266"
   ry="12.6266" />
   <path
   id="_290871624"
   class="fil0"
   d="M2.04813 3.75373l17.0382 0c1.7682,0 3.21512,1.09257 3.21512,2.4261l0 11.8907c0,1.33471 -1.44692,2.4261 -3.21512,2.4261l-17.0382 0c-1.7682,0 -3.21512,-1.09139 -3.21512,-2.4261l0 -11.8907c0,-1.33353 1.44692,-2.4261 3.21512,-2.4261z" />
   <g
   id="g4511">
    <path
   id="_290879280"
   class="fil1"
   d="M2.3824 4.08091c5.45814,0 10.9151,0 16.3697,0 1.69969,0 3.08992,1.04887 3.08992,2.33043 0,3.80924 0,7.6173 0,11.4242 0,1.28274 -1.39023,2.33043 -3.08992,2.33043 -5.4546,0 -10.9116,0 -16.3697,0 -1.69851,0 -3.08873,-1.04769 -3.08873,-2.33043 0,-3.80688 0,-7.61494 0,-11.4242 0,-1.28156 1.39023,-2.33043 3.08873,-2.33043z" />
    <path
   id="_290883816"
   class="fil2"
   d="M2.71667 4.40809c5.2349,0 10.4698,0 15.7023,0 1.63,0 2.96353,1.00753 2.96353,2.23594 0,3.65333 0,7.30666 0,10.9588 0,1.22959 -1.33353,2.23594 -2.96353,2.23594 -5.23254,0 -10.4674,0 -15.7023,0 -1.63,0 -2.96353,-1.00635 -2.96353,-2.23594 0,-3.65215 0,-7.30548 0,-10.9588 0,-1.22841 1.33353,-2.23594 2.96353,-2.23594z" />
    <path
   id="_290893176"
   class="fil3"
   d="M3.04976 4.73645c5.01285,0 10.0245,0 15.035,0 1.56149,0 2.83833,0.963827 2.83833,2.14026 0,3.4986 0,6.99719 0,10.4934 0,1.17762 -1.27683,2.14026 -2.83833,2.14026 -5.01048,0 -10.0221,0 -15.035,0 -1.56031,0 -2.83715,-0.962646 -2.83715,-2.14026 0,-3.49624 0,-6.99483 0,-10.4934 0,-1.17644 1.27683,-2.14026 2.83715,-2.14026z" />
    <path
   id="_290873568"
   class="fil4"
   d="M3.38402 5.06364c4.78961,0 9.57921,0 14.3676,0 1.49181,0 2.71194,0.921305 2.71194,2.04577 0,3.34387 0,6.68655 0,10.0281 0,1.12446 -1.22014,2.04577 -2.71194,2.04577 -4.78842,0 -9.57803,0 -14.3676,0 -1.49181,0 -2.71194,-0.921305 -2.71194,-2.04577 0,-3.3415 0,-6.68419 0,-10.0281 0,-1.12446 1.22014,-2.04577 2.71194,-2.04577z" />
    <path
   id="_290869728"
   class="fil5"
   d="M3.71711 5.392c4.56873,0 9.1351,0 13.7003,0 1.42212,0 2.58556,0.878783 2.58556,1.95128 0,3.18677 0,6.37472 0,9.56031 0,1.07367 -1.16344,1.95128 -2.58556,1.95128 -4.56519,0 -9.13155,0 -13.7003,0 -1.42094,0 -2.58438,-0.877602 -2.58438,-1.95128 0,-3.18559 0,-6.37354 0,-9.56031 0,-1.07249 1.16344,-1.95128 2.58438,-1.95128z" />
    <path
   id="_290871480"
   class="fil6"
   d="M4.05138 5.71918c4.34549,0 8.6898,0 13.0329,0 1.35243,0 2.45918,0.836262 2.45918,1.85678 0,3.03204 0,6.06408 0,9.09494 0,1.02052 -1.10675,1.85678 -2.45918,1.85678 -4.34313,0 -8.68744,0 -13.0329,0 -1.35243,0 -2.45918,-0.836262 -2.45918,-1.85678 0,-3.03086 0,-6.0629 0,-9.09494 0,-1.02052 1.10675,-1.85678 2.45918,-1.85678z" />
    <path
   id="_290876568"
   class="fil7"
   d="M4.38447 6.04754c4.12343,0 8.2445,0 12.3656,0 1.28392,0 2.33397,0.792559 2.33397,1.76111 0,2.87731 0,5.75461 0,8.62956 0,0.968552 -1.05005,1.76111 -2.33397,1.76111 -4.12107,0 -8.24214,0 -12.3656,0 -1.28274,0 -2.33279,-0.792559 -2.33279,-1.76111 0,-2.87494 0,-5.75225 0,-8.62956 0,-0.968552 1.05005,-1.76111 2.33279,-1.76111z" />
    <path
   id="_290870736"
   class="fil8"
   d="M4.71874 6.37472c3.90019,0 7.7992,0 11.6994,0 1.21305,0 2.20641,0.751218 2.20641,1.66662 0,2.72139 0,5.44397 0,8.16418 0,0.915399 -0.993356,1.66662 -2.20641,1.66662 -3.90019,0 -7.7992,0 -11.6994,0 -1.21423,0 -2.20759,-0.751218 -2.20759,-1.66662 0,-2.72021 0,-5.44279 0,-8.16418 0,-0.915399 0.993356,-1.66662 2.20759,-1.66662z" />
   </g>
   <rect
   id="_290886624"
   class="fil9"
   x="2.96899"
   y="6.70446"
   width="15.1959"
   height="10.8414"
   rx="12.6266"
   ry="12.6266" />
  </g>
  <path
   class="fil10"
   d="M3.07456 19.5624l17.8084 0c0.863428,0 1.57094,0.713421 1.57094,1.57094l0 7.80157c0,0.857523 -0.713421,1.57094 -1.57094,1.57094l-17.8084 0c-0.857523,0 -1.57094,-0.707515 -1.57094,-1.57094l0 -7.80157c0,-0.864609 0.707515,-1.57094 1.57094,-1.57094z"
   id="path4522" />
  <path
   class="fil11"
   d="M13.2621 26.7592l-1.32526 -0.525616 0.122841 -0.14292 -1.5048 -0.837443 9.38314 -2.77691 0.348442 -0.270486 1.87568 -1.58984c-0.184261,-0.321276 -0.695704,-0.803189 -1.04887,-0.933117l-1.41267 1.95482 -10.1521 3.05566 -5.48649 -3.02377 -1.40912 -1.88631c-0.354348,0.128746 -1.00635,0.64137 -1.19061,0.962646l2.20759 1.32408 0.0933117 0.510261 5.06836 2.49343 -1.91939 1.01698 -0.0838624 0.059058 -0.728776 -0.127565 -1.55913 0.837443c0.294109,0.601211 0.583493,0.0708696 0.806733,0.915399l1.09375 -1.64181 1.05005 0.878783 2.43673 -1.39968 2.17097 1.06777 -0.270486 -0.584674 1.03824 1.16581c-0.922486,0.605935 -0.0696885,-0.0767754 0.395689,-0.501993z"
   id="path4524" />
  <path
   class="fil12"
   d="M2.33397 29.933l1.20596 -1.63827c2.43319,-0.496087 16.6237,-0.0413406 16.6237,-0.0413406l1.74339 1.70323c-0.268123,0.211428 -0.61066,0.338993 -0.972095,0.338993l-17.6005 0c-0.374428,0 -0.727595,-0.135833 -1.00044,-0.362616z"
   id="path4526" />
  <path
   class="fil13"
   d="M22.4527 29.4546l-1.57803 -1.32881 -8.98981 -2.15444 0.122841 -0.14292 -1.5048 -0.837443 3.1596 -1.81426 -1.79655 0 -2.36941 1.25439 -2.25484 -1.25439 -1.78591 0 3.32379 1.63473 -1.91939 1.01698 -0.0838624 0.0602392 -3.34505 2.38476 -1.74221 1.15163c0.29529,0.60003 0.583493,0.0696885 0.806733,0.915399l1.23313 -1.66898 3.71003 -1.92175 2.43673 -1.39849 2.17097 1.06777 8.29411 2.21349 1.14218 1.84734c-0.921305,0.607116 0.505537,-0.601211 0.969733,-1.02525z"
   id="path4528" />
  <path
   class="fil14"
   d="M4.28407 21.431l15.0763 0c0.63074,0 1.14691,0.483095 1.14691,1.06895l0 5.23963c0,0.585856 -0.518529,1.06895 -1.14691,1.06895l-15.0763 0c-0.626015,0 -1.02525,-0.480732 -1.02525,-1.06895l0 -5.23963c0,-0.588218 0.394508,-1.06895 1.02525,-1.06895z"
   id="path4530" />
  <path
   class="fil15"
   d="M3.17732 6.42315l13.2668 -0.0118116c0.861066,-0.0401595 1.46228,-0.0318913 1.57094,1.57094l-0.0519711 7.78975c-0.0059058,0.857523 -0.708696,1.57803 -1.57212,1.57094l-13.2656 -0.0637827c-0.863428,-0.00826812 -1.57685,-0.707515 -1.57094,-1.57094l0.0519711 -7.71416c0.0059058,-0.864609 0.706334,-1.57803 1.57094,-1.57094z"
   id="path4532" />
  <path
   class="fil12"
   d="M17.0855 16.5221c-0.288203,0.344899 -0.720508,0.563414 -1.20006,0.55987l-12.6124 -0.116935c-0.265761,-0.00236232 -0.518529,-0.0696885 -0.739406,-0.190167l1.82489 -2.25247c2.43319,-0.496087 10.6375,-0.0413406 10.6375,-0.0413406l2.08947 2.04105z"
   id="path4534" />
  <path
   class="fil16"
   d="M20.6372 6.36882l8.35907 0c0.864609,0 1.57094,0.713421 1.57094,1.57094l0 8.02953c0,0.857523 -0.71224,1.57094 -1.57094,1.57094l-8.35907 0c-0.858704,0 -1.57094,-0.707515 -1.57094,-1.57094l0 -8.02953c0,-0.863428 0.706334,-1.57094 1.57094,-1.57094z"
   id="path4536" />
  <path
   class="fil12"
   d="M19.6368 17.1587l1.47173 -1.81662c2.43201,-0.496087 7.66809,-0.0413406 7.66809,-0.0413406l1.51661 1.48118c-0.278754,0.442935 -0.772479,0.739406 -1.33117,0.739406l-8.32482 0c-0.380334,0 -0.728776,-0.137015 -1.00044,-0.362616z"
   id="path4538" />
  <path
   class="fil11"
   d="M13.2621 12.9278l-1.32526 -0.526798 0.122841 -0.14292 -1.5048 -0.836262 4.65141 -2.67297 0.348442 -0.270486 1.87686 -1.58984c-0.184261,-0.321276 -0.696885,-0.803189 -1.05005,-0.933117l-1.41149 1.95482 -5.42153 2.95172 -5.48649 -3.02377 -1.53078 -1.88631c-0.354348,0.128746 -1.00635,0.640189 -1.19061,0.962646l2.32925 1.3229 0.0933117 0.511442 5.06836 2.49343 -1.91939 1.0158 -0.0838624 0.0602392 -0.728776 -0.127565 -1.55913 0.837443c0.294109,0.601211 0.583493,0.0708696 0.806733,0.915399l1.09375 -1.64181 1.05005 0.877602 2.43673 -1.39849 2.17097 1.06777 -0.270486 -0.585856 1.03824 1.16699c-0.922486,0.605935 -0.0696885,-0.0767754 0.395689,-0.501993z"
   id="path4540" />
  <path
   class="fil13"
   d="M17.356 15.7272l-1.57803 -1.32762 -3.84113 -1.99852 0.122841 -0.14292 -1.50598 -0.837443 3.16079 -1.81426 -1.79655 0 -2.36941 1.25557 -2.25602 -1.25557 -1.78591 0 3.32379 1.63591 -1.91939 1.0158 -0.0826812 0.0602392 -3.46671 2.38476 -1.74221 1.15163c0.294109,0.60003 0.583493,0.0696885 0.806733,0.915399l1.35479 -1.66898 3.71003 -1.92175 2.43673 -1.39849 2.17097 1.06895 3.14543 2.0564 1.141 1.84734c-0.921305,0.605935 0.506718,-0.601211 0.970914,-1.02643z"
   id="path4542" />
  <path
   class="fil17"
   d="M4.44353 8.02362l9.96073 -0.0236232c0.656725,0.00708696 1.19297,0.602392 1.19297,1.32408l-0.00118116 5.15222c0,0.720508 -0.538609,1.33235 -1.19297,1.32408l-9.90757 -0.0944928c-0.647276,-0.0059058 -1.18707,-0.595305 -1.19297,-1.3229l-0.0519711 -5.03529c-0.00708696,-0.728776 0.536247,-1.33117 1.19297,-1.32408z"
   id="path4544" />
  <path
   class="fil18"
   d="M15.1059 8.37443c0.226783,0.240957 0.368522,0.578769 0.368522,0.949653l-0.00118116 5.15104c0,0.292928 -0.088587,0.569319 -0.238594,0.791378l0.00118116 -5.42153c0,-0.278754 -0.0354348,-0.490182 -0.120478,-0.61066 -0.0720508,-0.10158 -0.180718,-0.0437029 -0.390964,-0.0448841l-0.00236232 0 -10.4344 -0.00708696 -0.00236232 0c-0.216152,-0.00118116 -0.354348,0.0437029 -0.422855,0.134652l0 0c-0.0803189,0.107486 -0.140558,0.246863 -0.140558,0.522073l0.0519711 5.47114 0.00236232 0.119297c-0.283479,-0.240957 -0.471283,-0.620109 -0.474827,-1.04651l-0.0507899 -5.18057c-0.00118116,-0.148826 0.0200797,-0.291747 0.0614203,-0.42758l0 -0.00118116c0.206703,-0.271667 0.514986,-0.408682 0.949653,-0.403957l0.00236232 0 10.4344 -0.0519711 0.00118116 0c0.150007,0 0.285841,0.0200797 0.406319,0.0566957z"
   id="path4546" />
  <path
   class="fil19"
   d="M4.23446 7.97401l0.00236232 0 10.6104 0.0059058 0.00118116 0c0.441754,0.00354348 0.750037,0.153551 0.953197,0.426399 0.190167,0.25395 0.268123,0.720508 0.268123,1.13746l-0.0271667 4.99395c0,0.421674 -0.0803189,0.757124 -0.27521,1.00044 -0.205522,0.257493 -0.511442,0.389783 -0.947291,0.385058l-0.00354348 0 -10.5041 0.0755943 0 0.00236232c-0.438211,0 -0.747675,-0.148826 -0.953197,-0.424037 -0.190167,-0.25395 -0.270486,-0.598848 -0.270486,-1.01816l-0.0779566 -5.07545c0,-0.426399 0.0803189,-0.883508 0.27521,-1.12683 0.205522,-0.257493 0.513805,-0.385058 0.948472,-0.382696zm10.2867 1.07958l-0.00118116 0 -10.041 -0.0472464 -0.00236232 0c-0.217334,-0.00236232 -0.355529,0.0401595 -0.424037,0.126384l0 0.00118116c-0.0803189,0.100399 -0.113391,0.285841 -0.113391,0.545696l0.0377971 4.87937c0,0.265761 0.036616,0.464196 0.124022,0.578769 0.0708696,0.0944928 0.204341,0.147645 0.415768,0.147645l0 0.00118116 9.9371 -0.0342537 0.00472464 0c0.214971,0.00236232 0.350805,-0.0425218 0.419312,-0.128746 0.0803189,-0.100399 0.114573,-0.285841 0.114573,-0.544515l0.066145 -4.79787c0,-0.263399 -0.0354348,-0.461834 -0.119297,-0.576406 -0.0720508,-0.095674 -0.207884,-0.151189 -0.418131,-0.151189z"
   id="path4548" />
  <path
   class="fil11"
   d="M28.2038 9.45519l-0.0118116 -0.159457 0.348442 -0.270486 1.87568 -1.58984c-0.184261,-0.321276 -0.695704,-0.803189 -1.04887,-0.933117l-1.41267 1.95482 -1.83316 0.998081 2.08239 0zm-6.09597 0l-0.210247 -0.965008 -1.53078 -1.88631c-0.354348,0.128746 -1.00635,0.64137 -1.19061,0.962646l2.32925 1.3229 0.0944928 0.511442 0.109848 0.0543334 0.398051 0z"
   id="path4550" />
  <path
   class="fil13"
   d="M30.4976 16.2752l-1.57803 -1.32881 0.00826812 -0.154732 -0.0921305 -0.261036 -0.450022 0.922486 1.14218 1.84734c-0.921305,0.605935 0.506718,-0.601211 0.969733,-1.02525zm-9.43039 -0.907131l-0.444116 -0.0649638 -1.74221 1.15163c0.29529,0.60003 0.584674,0.0696885 0.807914,0.915399l1.35479 -1.66898 1.58157 -0.333087 -1.55795 0z"
   id="path4552" />
  <path
   class="fil20"
   d="M22.1137 8.0437l5.65776 0c0.587037,0 1.06777,0.496087 1.06777,1.09848l0 5.33648c0,0.603573 -0.480732,1.09966 -1.06777,1.09966l-5.65776 0c-0.585856,0 -1.06777,-0.494906 -1.06777,-1.09966l0 -5.33648c0,-0.603573 0.480732,-1.09848 1.06777,-1.09848z"
   id="path4554" />
  <path
   class="fil18"
   d="M28.8392 9.48708l-7.12476 -0.00472464 -0.00236232 0c-0.210247,-0.00118116 -0.343718,0.0389783 -0.411044,0.12166l0 0c-0.0779566,0.0968552 -0.135833,0.222058 -0.135833,0.470102l0.0507899 4.93489 0.00236232 0.107486 -0.0129928 -0.0106304c-0.10158,-0.167725 -0.159457,-0.364979 -0.159457,-0.575225l0 -5.38845c0,-0.0944928 0.0118116,-0.186623 0.0342537,-0.27521 0.166544,-0.0803189 0.367341,-0.120478 0.608298,-0.118116l0.00236232 0 7.06452 -0.0318913c0.0543334,0.13229 0.0838624,0.27521 0.0838624,0.425218l0 0.344899z"
   id="path4556" />
  <path
   class="fil21"
   d="M22.2283 7.99173l0.00236232 0 5.64949 0.0059058 0.00118116 0c0.441754,0.00354348 0.750037,0.146464 0.953197,0.406319 0.188986,0.243319 0.266942,0.675624 0.266942,1.07486l-0.0271667 5.18529c0,0.403957 -0.0803189,0.724051 -0.27521,0.957921 -0.204341,0.245681 -0.511442,0.372066 -0.94611,0.367341l-0.00354348 0 -5.54319 0.0318913 0 0.00118116c-0.439392,0 -0.747675,-0.141739 -0.953197,-0.405138 -0.188986,-0.243319 -0.269305,-0.572863 -0.269305,-0.974457l-0.0791378 -5.22191c0,-0.4075 0.0815001,-0.830356 0.27521,-1.06304 0.205522,-0.246863 0.513805,-0.369703 0.948472,-0.36616zm5.30577 1.03588l-0.00236232 0 -4.95851 -0.0472464 -0.00236232 0c-0.216152,-0.00118116 -0.354348,0.0389783 -0.422855,0.12166l0 0c-0.0803189,0.0968552 -0.113391,0.274029 -0.113391,0.523254l-0.0637827 5.01757c0,0.25395 0.036616,0.444116 0.122841,0.555145 0.0708696,0.0897682 0.205522,0.140558 0.415768,0.140558l0 0.00118116 5.05891 0.00944928 0.00354348 0c0.214971,0.00236232 0.350805,-0.0401595 0.419312,-0.122841 0.0803189,-0.095674 0.113391,-0.272848 0.113391,-0.520892l-0.0330725 -4.98095c0,-0.252768 -0.0354348,-0.441754 -0.120478,-0.551602 -0.0720508,-0.0921305 -0.206703,-0.144102 -0.41695,-0.145283z"
   id="path4558" />
  <path
   class="fil22"
   d="M4.08563 20.9101l0.00236232 0 15.4567 0.0448841 0.00236232 0c0.441754,0.00354348 0.993356,0.187805 1.1977,0.448841 0.188986,0.242138 0.268123,0.897682 0.268123,1.29691l-0.0283479 4.77898c0,0.402776 -0.0791378,0.72287 -0.274029,0.95674 -0.205522,0.245681 -0.757124,0.330725 -1.19297,0.327181l-0.00354348 0 -15.4283 0.0318913 0 0.00236232c-0.439392,0 -0.628377,-0.14292 -0.832718,-0.406319 -0.190167,-0.242138 -0.270486,-0.572863 -0.270486,-0.974457l0 -4.85575c0,-0.4075 0.0803189,-1.0536 0.276392,-1.28628 0.204341,-0.246863 0.390964,-0.369703 0.826812,-0.364979zm15.3775 1.05241l-0.00236232 0 -14.8862 -0.0448841 -0.00236232 0c-0.216152,-0.00236232 -0.354348,0.0377971 -0.422855,0.120478l0 0.00118116c-0.0803189,0.095674 -0.113391,0.274029 -0.113391,0.522073l0 4.85575c0,0.255131 0.036616,0.444116 0.122841,0.555145 0.0708696,0.0897682 0.205522,0.140558 0.415768,0.140558l0 0.00118116 14.8614 -0.0318913 0.00472464 0c0.216152,0.00236232 0.351986,-0.0401595 0.420493,-0.122841 0.0791378,-0.0968552 0.113391,-0.274029 0.113391,-0.520892l0.0271667 -4.77898c0,-0.252768 -0.0354348,-0.441754 -0.12166,-0.551602 -0.0720508,-0.0921305 -0.206703,-0.144102 -0.41695,-0.145283z"
   id="path4560" />
  <path
   class="fil23"
   d="M4.48369 25.7245l0.726414 -0.0708696c0.0437029,0.2445 0.13229,0.422855 0.265761,0.538609 0.133471,0.113391 0.314189,0.171268 0.53979,0.171268 0.240957,0 0.422855,-0.0519711 0.544515,-0.153551 0.12166,-0.10158 0.18308,-0.220877 0.18308,-0.35671 0,-0.088587 -0.0271667,-0.160638 -0.0779566,-0.223239 -0.0507899,-0.0614203 -0.140558,-0.114573 -0.268123,-0.159457 -0.0874059,-0.0307102 -0.285841,-0.0850436 -0.597667,-0.161819 -0.400413,-0.0992175 -0.680348,-0.220877 -0.840986,-0.36616 -0.227964,-0.201978 -0.341355,-0.451203 -0.341355,-0.74295 0,-0.187805 0.0531522,-0.363797 0.160638,-0.527979 0.106304,-0.164181 0.259855,-0.289384 0.460653,-0.374428 0.201978,-0.0850436 0.442935,-0.128746 0.727595,-0.128746 0.464196,0 0.812638,0.10158 1.04769,0.304739 0.235051,0.20316 0.357892,0.474827 0.369703,0.815001l-0.746493 0.0318913c-0.0318913,-0.190167 -0.100399,-0.326 -0.205522,-0.408682 -0.105123,-0.0838624 -0.262218,-0.125203 -0.472464,-0.125203 -0.217334,0 -0.387421,0.0437029 -0.50908,0.133471 -0.0791378,0.0566957 -0.119297,0.133471 -0.119297,0.229145 0,0.0874059 0.0377971,0.161819 0.111029,0.22442 0.0944928,0.0791378 0.322457,0.161819 0.686254,0.246863 0.363797,0.0862247 0.63074,0.174812 0.805551,0.265761 0.173631,0.0933117 0.309464,0.217334 0.408682,0.375609 0.0980363,0.159457 0.146464,0.35671 0.146464,0.589399 0,0.211428 -0.0578769,0.411044 -0.175993,0.595305 -0.118116,0.184261 -0.28466,0.322457 -0.49845,0.411044 -0.216152,0.0909494 -0.484276,0.135833 -0.805551,0.135833 -0.46774,0 -0.825631,-0.108667 -1.07604,-0.323638 -0.250406,-0.216152 -0.400413,-0.530341 -0.448841,-0.944928zm4.52739 -2.49343l0 1.35833c0.227964,-0.266942 0.472464,-0.400413 0.789015,-0.400413 0.164181,0 0.311826,0.0318913 0.442935,0.0909494 0.131109,0.059058 0.230326,0.138196 0.29529,0.231507 0.0649638,0.0933117 0.192529,0.199616 0.216152,0.313008 0.0259855,0.113391 0.0377971,0.29529 0.0377971,0.532703l0 1.56976 -0.789015 0 0 -1.41503c0,-0.279935 -0.0141739,-0.459471 -0.0401595,-0.532703 -0.0259855,-0.0767754 -0.0767754,-0.135833 -0.14292,-0.180718 -0.0685073,-0.0437029 -0.153551,-0.0673261 -0.256312,-0.0673261 -0.116935,0 -0.223239,0.029529 -0.314189,0.0862247 -0.0921305,0.0555145 -0.13229,0.145283 -0.173631,0.258674 -0.0413406,0.114573 -0.0649638,0.287022 -0.0649638,0.50908l0 1.3418 -0.738225 0 0 -3.69585 0.738225 0zm2.23239 0.655544l0 -0.655544 0.767754 0 0 0.655544 -0.767754 0zm0 3.04031l0 -2.67651 0.767754 0 0 2.67651 -0.767754 0zm1.31699 -2.67651l0.392145 0 0 -0.201978c0,-0.225602 0.0271667,-0.394508 0.073232,-0.504356 0.0472464,-0.108667 0.137015,-0.20316 0.263399,-0.271667 0.128746,-0.0685073 0.292928,-0.103942 0.489,-0.103942 0.200797,0 0.846892,0.0307102 1.03942,0.0897682l-0.543334 0.494906c-0.11221,-0.0271667 -0.219696,-0.0401595 -0.324819,-0.0401595 -0.103942,0 -0.177174,0.0248044 -0.220877,0.0720508 -0.0437029,0.0448841 -0.066145,0.14292 -0.066145,0.276392l0 0.188986 0.52916 0 0 0.556327 -0.52916 0 0 2.12018 -0.709877 0 0 -2.12018 -0.392145 0 0 -0.556327zm3.58718 0l0 0.564595 -0.483095 0 0 1.0784c0,0.216152 0.0059058,0.347261 0.0141739,0.382696 0.00708696,0.0342537 0.0307102,0.0673261 0.0626015,0.0897682 0.029529,0.0212609 0.073232,0.0354348 0.120478,0.0354348 0.0649638,0 0.160638,-0.0236232 0.28466,-0.0685073l0.0602392 0.54924c-0.165362,0.0708696 -0.350805,0.105123 -0.561051,0.105123 -0.126384,0 -0.242138,-0.0212609 -0.342537,-0.0626015 -0.10158,-0.0413406 -0.178355,-0.10158 -0.225602,-0.166544 -0.0484276,-0.0685073 -0.0815001,-0.161819 -0.10158,-0.277573 -0.0118116,-0.0815001 -0.0212609,-0.248044 -0.0212609,-0.49845l0 -1.16699 -0.77366 0 0 -0.564595 0.77366 0 -0.44766 -0.532703 1.15754 -0.413406 0 0.94611 0.483095 0z"
   id="path4562" />
  <path
   class="fil24"
   d="M7.21335 12.5675l0.545696 0.262218c-0.115754,0.463015 -0.102761,0.807914 -0.369703,1.03115 -0.265761,0.22442 -0.604754,0.336631 -1.0158,0.336631 -0.506718,0 -0.923668,-0.192529 -1.25085,-0.576406 -0.326,-0.385058 -0.490182,-0.910675 -0.490182,-1.57685 0,-0.705153 0.165362,-1.25321 0.492544,-1.64299 0.328363,-0.389783 0.759486,-0.585856 1.29573,-0.585856 0.46774,0 0.846892,0.153551 1.13864,0.460653 0.174812,0.180718 0.10158,0.440573 0.188986,0.779566l-0.561051 0.20316c-0.0448841,-0.219696 -0.138196,-0.393326 -0.283479,-0.520892 -0.14292,-0.127565 -0.316551,-0.191348 -0.522073,-0.191348 -0.283479,0 -0.512624,0.11221 -0.689798,0.338993 -0.175993,0.22442 -0.26458,0.589399 -0.26458,1.09494 0,0.536247 0.0874059,0.917762 0.261036,1.14454 0.173631,0.227964 0.399232,0.341355 0.677986,0.341355 0.205522,0 0.380334,-0.0720508 0.52916,-0.217334 0.147645,-0.144102 0.25395,-0.372066 0.317732,-0.68153zm2.30917 -1.51189l0 0.647276 -0.500812 0 0 1.23786c0,0.248044 0.00472464,0.39687 0.0141739,0.437029 0.00944928,0.0413406 0.0318913,0.0767754 0.0649638,0.102761 0.0330725,0.0259855 0.0755943,0.0413406 0.122841,0.0413406 0.0696885,0 0.167725,-0.0271667 0.296471,-0.0779566l0.0614203 0.629559c-0.170087,0.0803189 -0.362616,0.120478 -0.578769,0.120478 -0.13229,0 -0.251587,-0.0259855 -0.35671,-0.073232 -0.105123,-0.0472464 -0.184261,-0.114573 -0.23387,-0.191348 -0.0484276,-0.0767754 -0.0838624,-0.184261 -0.102761,-0.316551 -0.0129928,-0.0921305 -0.022442,-0.28466 -0.022442,-0.571682l0 -1.33825 -0.336631 0 0 -0.647276 0.336631 0 0 -0.61066 0.734682 -0.472464 0 1.08312 0.500812 0zm1.20833 3.06984l-0.73232 0 0 -3.06984 0.680348 0 0 0.437029c0.115754,-0.206703 0.220877,-0.342537 0.314189,-0.4075 0.0933117,-0.066145 0.198435,-0.0992175 0.316551,-0.0992175 0.166544,0 0.327181,0.0519711 0.481913,0.153551l-0.226783 0.707515c-0.122841,-0.0874059 -0.237413,-0.131109 -0.343718,-0.131109 -0.102761,0 -0.190167,0.0307102 -0.261036,0.0933117 -0.0696885,0.0602392 -0.127565,0.175993 -0.167725,0.338993 -0.0401595,0.163 -0.0614203,0.50908 -0.0614203,1.02879l0 0.948472zm1.37605 -0.0413406l0 -4.23682 0.89532 0 0 4.23682 -0.89532 0z"
   id="path4564" />
  <path
   class="fil24"
   d="M26.1391 12.5215l0.759486 0.239776c-0.115754,0.424037 -0.309464,0.739406 -0.581131,0.944928 -0.270486,0.205522 -0.614203,0.308283 -1.03115,0.308283 -0.516167,0 -0.940204,-0.175993 -1.27211,-0.527979 -0.331906,-0.351986 -0.49845,-0.833899 -0.49845,-1.44456 0,-0.647276 0.167725,-1.14809 0.500812,-1.50598 0.334268,-0.357892 0.772479,-0.537428 1.31699,-0.537428 0.474827,0 0.861066,0.140558 1.15754,0.421674 0.177174,0.165362 0.308283,0.403957 0.398051,0.714602l-0.777204 0.186623c-0.0448841,-0.201978 -0.140558,-0.361435 -0.288203,-0.477189 -0.145283,-0.116935 -0.321276,-0.175993 -0.52916,-0.175993 -0.288203,0 -0.522073,0.103942 -0.701609,0.310645 -0.178355,0.206703 -0.269305,0.540972 -0.269305,1.00399 0,0.491363 0.088587,0.840986 0.265761,1.04887 0.175993,0.209065 0.405138,0.313008 0.688617,0.313008 0.207884,0 0.387421,-0.066145 0.537428,-0.198435 0.150007,-0.13229 0.258674,-0.341355 0.323638,-0.624834z"
   id="path4566" />
  <path
   class="fil24"
   d="M3.17732 5.9247l12.7565 -0.0118116c0.524435,-0.0236232 0.975639,-0.0318913 1.38196,0.263399 0.389783,0.283479 0.643732,0.802008 0.708696,1.77292l0 0.0354348 -0.0519711 7.95039 0.00236232 0 0 0.00472464 -0.00236232 0.00354348c-0.00354348,0.55987 -0.238594,1.07958 -0.609479,1.45401 -0.370884,0.374428 -0.888233,0.609479 -1.45755,0.607116l0 0.00236232 -0.00354348 0 -0.00236232 -0.00236232 -12.7766 -0.0637827 -0.00118116 0c-0.568138,-0.0059058 -1.09021,-0.238594 -1.46464,-0.613022 -0.373247,-0.373247 -0.603573,-0.890595 -0.601211,-1.45873l0.0519711 -7.8748 -0.00236232 0 0 -0.00236232 0.00236232 -0.00354348c0.00354348,-0.564595 0.238594,-1.08431 0.609479,-1.45873 0.373247,-0.375609 0.888233,-0.607116 1.45755,-0.604754l0 -0.00236232 0.00236232 0 0 0.00236232zm12.7778 0.985088l-12.7778 0.0118116 0 0.00236232 -0.00236232 0 -0.00354348 -0.00236232c-0.289384,-0.00236232 -0.556327,0.118116 -0.747675,0.311826 -0.19371,0.196073 -0.31537,0.466558 -0.318913,0.758305l0.00236232 0 0 0.00236232 -0.00236232 0.00236232 -0.0519711 7.87716c-0.00118116,0.288203 0.118116,0.555145 0.310645,0.747675 0.196073,0.196073 0.468921,0.320094 0.764211,0.322457l0.00118116 0 12.7731 0.0637827 0 -0.00236232 0.00354348 0 0.00354348 0.00236232c0.289384,0.00236232 0.555145,-0.120478 0.747675,-0.314189 0.192529,-0.194891 0.31537,-0.465377 0.318913,-0.75358l-0.00236232 0 0 -0.00472464 0.00236232 -0.00236232 0.0519711 -7.91968c-0.0425218,-0.626015 -0.147645,-0.920124 -0.297652,-1.02879 -0.134652,-0.0980363 -0.418131,-0.0897682 -0.75358,-0.0744131l-0.0212609 0z"
   id="path4568" />
  <path
   class="fil24"
   d="M21.0034 5.86801l7.99291 0c0.568138,0 1.08667,0.235051 1.4611,0.609479 0.375609,0.375609 0.61066,0.896501 0.61066,1.46228l0 8.02953c0,0.564595 -0.237413,1.08431 -0.611841,1.45873l-0.00118116 0.00118116c-0.374428,0.374428 -0.894138,0.611841 -1.45873,0.611841l-7.99291 0c-0.565776,0 -1.08667,-0.235051 -1.46228,-0.61066 -0.374428,-0.374428 -0.609479,-0.892957 -0.609479,-1.4611l0 -8.02953c0,-0.568138 0.235051,-1.08785 0.609479,-1.46228 0.374428,-0.374428 0.894138,-0.609479 1.46228,-0.609479zm7.99291 1.00162l-7.99291 0c-0.294109,0 -0.563414,0.12166 -0.755943,0.314189 -0.192529,0.192529 -0.314189,0.461834 -0.314189,0.755943l0 8.02953c0,0.292928 0.12166,0.562232 0.314189,0.754762 0.19371,0.19371 0.463015,0.31537 0.755943,0.31537l7.99291 0c0.291747,0 0.561051,-0.122841 0.75358,-0.31537l0.00118116 -0.00118116c0.192529,-0.192529 0.31537,-0.461834 0.31537,-0.75358l0 -8.02953c0,-0.292928 -0.12166,-0.562232 -0.31537,-0.755943 -0.192529,-0.192529 -0.461834,-0.314189 -0.754762,-0.314189z"
   id="path4570" />
  <path
   class="fil25"
   d="M3.07456 19.0616l17.8084 0c0.566957,0 1.08431,0.235051 1.45991,0.61066l0.00118116 0.00118116c0.375609,0.375609 0.61066,0.894138 0.61066,1.45991l0 7.80157c0,0.564595 -0.236232,1.08431 -0.611841,1.45991l0 -0.00118116c-0.374428,0.375609 -0.89532,0.613022 -1.45991,0.613022l-17.8084 0c-0.565776,0 -1.08431,-0.235051 -1.45991,-0.61066l-0.00118116 -0.00118116c-0.375609,-0.375609 -0.61066,-0.892957 -0.61066,-1.45991l0 -7.80157c0,-0.568138 0.235051,-1.08785 0.609479,-1.46228 0.374428,-0.374428 0.894138,-0.609479 1.46228,-0.609479zm17.8084 1.00162l-17.8084 0c-0.294109,0 -0.563414,0.12166 -0.755943,0.314189 -0.192529,0.192529 -0.314189,0.461834 -0.314189,0.755943l0 7.80157c0,0.294109 0.12166,0.562232 0.314189,0.754762l0.00118116 0.00118116c0.192529,0.192529 0.461834,0.314189 0.754762,0.314189l17.8084 0c0.291747,0 0.561051,-0.122841 0.75358,-0.31537l0 -0.00118116c0.19371,-0.19371 0.316551,-0.463015 0.316551,-0.75358l0 -7.80157c0,-0.294109 -0.12166,-0.562232 -0.314189,-0.754762l-0.00118116 -0.00118116c-0.192529,-0.192529 -0.460653,-0.314189 -0.754762,-0.314189z"
   id="path4572" />
 </g>
</svg>