<?xml version="1.0" encoding="UTF-8" standalone="no"?>
<!-- Created with Inkscape (http://www.inkscape.org/) -->

<svg
   xmlns:dc="http://purl.org/dc/elements/1.1/"
   xmlns:cc="http://creativecommons.org/ns#"
   xmlns:rdf="http://www.w3.org/1999/02/22-rdf-syntax-ns#"
   xmlns:svg="http://www.w3.org/2000/svg"
   xmlns="http://www.w3.org/2000/svg"
   xmlns:sodipodi="http://sodipodi.sourceforge.net/DTD/sodipodi-0.dtd"
   xmlns:inkscape="http://www.inkscape.org/namespaces/inkscape"
   width="32"
   height="32"
   id="svg2"
   version="1.1"
   inkscape:version="0.48.3.1 r9886"
   sodipodi:docname="32.svg">
  <defs
     id="defs4">
    <linearGradient
       gradientTransform="translate(8.25,16.498)"
       y2="-3.75"
       x2="0"
       y1="0"
       x1="0"
       gradientUnits="userSpaceOnUse"
       id="LinearGradient_5-34">
      <stop
         id="stop19698"
         stop-color="#bee26d"
         offset="0" />
      <stop
         id="stop19700"
         stop-color="#9dc444"
         offset="1" />
    </linearGradient>
    <linearGradient
       gradientTransform="translate(16.5,15.748)"
       y2="-2.25"
       x2="0"
       y1="0"
       x1="0"
       gradientUnits="userSpaceOnUse"
       id="LinearGradient_4-4">
      <stop
         id="stop19693"
         stop-color="#ffc38b"
         offset="0" />
      <stop
         id="stop19695"
         stop-color="#e67a40"
         offset="1" />
    </linearGradient>
    <linearGradient
       gradientTransform="translate(3.001,8.247)"
       y2="0"
       x2="17.999"
       y1="0"
       x1="0"
       gradientUnits="userSpaceOnUse"
       id="LinearGradient_3-823">
      <stop
         id="stop19686"
         stop-color="#3c3d41"
         offset="0" />
      <stop
         id="stop19688"
         stop-color="#8f8f8f"
         offset="0.498525649309158" />
      <stop
         id="stop19690"
         stop-color="#3c3d41"
         offset="1" />
    </linearGradient>
    <linearGradient
       gradientTransform="translate(3,19.497)"
       y2="0"
       x2="18.001"
       y1="0"
       x1="0"
       gradientUnits="userSpaceOnUse"
       id="LinearGradient_2-62">
      <stop
         id="stop19679"
         stop-color="#3c3d41"
         offset="0" />
      <stop
         id="stop19681"
         stop-color="#e5e5e5"
         offset="0.498525649309158" />
      <stop
         id="stop19683"
         stop-color="#3c3d41"
         offset="1" />
    </linearGradient>
    <linearGradient
       gradientTransform="matrix(0,-1,1,0,9.679,22.903)"
       y2="0"
       x2="18.055"
       y1="0"
       x1="0"
       gradientUnits="userSpaceOnUse"
       id="LinearGradient_1-33">
      <stop
         id="stop19674"
         stop-color="#e2e2e2"
         offset="0" />
      <stop
         id="stop19676"
         stop-color="#b0b0b0"
         offset="1" />
    </linearGradient>
    <linearGradient
       gradientTransform="matrix(0,-1,1,0,9.563,23.816)"
       y2="0"
       x2="19.881"
       y1="0"
       x1="0"
       gradientUnits="userSpaceOnUse"
       id="LinearGradient-4">
      <stop
         id="stop19669"
         stop-color="#878b8e"
         offset="0" />
      <stop
         id="stop19671"
         stop-color="#818689"
         offset="1" />
    </linearGradient>
  </defs>
  <sodipodi:namedview
     id="base"
     pagecolor="#ffffff"
     bordercolor="#666666"
     borderopacity="1.0"
     inkscape:pageopacity="0.0"
     inkscape:pageshadow="2"
     inkscape:zoom="9.7207688"
     inkscape:cx="15.924666"
     inkscape:cy="15.924666"
     inkscape:document-units="px"
     inkscape:current-layer="layer1"
     showgrid="false"
     inkscape:window-width="860"
     inkscape:window-height="523"
     inkscape:window-x="845"
     inkscape:window-y="315"
     inkscape:window-maximized="0" />
  <metadata
     id="metadata7">
    <rdf:RDF>
      <cc:Work
         rdf:about="">
        <dc:format>image/svg+xml</dc:format>
        <dc:type
           rdf:resource="http://purl.org/dc/dcmitype/StillImage" />
        <dc:title />
      </cc:Work>
    </rdf:RDF>
  </metadata>
  <g
     inkscape:label="Layer 1"
     inkscape:groupmode="layer"
     id="layer1"
     transform="translate(0,-1020.3622)">
    <g
       style="fill-rule:evenodd;stroke-width:0.50099999;stroke-linejoin:bevel;overflow:visible"
       id="g19814"
       transform="matrix(1.3333333,0,0,1.3333333,0,1020.3622)">
      <g
         transform="scale(1,-1)"
         font-size="16"
         id="Document"
         style="font-size:16px;fill:none;stroke:#000000;font-family:Times New Roman">
        <g
           transform="translate(0,-24)"
           id="Spread">
          <g
             id="MouseOff">
            <g
               id="Group"
               style="stroke:none">
              <g
                 stroke-miterlimit="79.8403193612775"
                 id="Group_1"
                 style="fill:#494a4f">
                <path
                   id="path19707"
                   d="m 0.001,3.751 0,-0.002 C 0.001,3.336 0.299,3 0.665,3 l 22.67,0 C 23.702,3 24,3.336 24,3.749 l 0,0.002 C 24,4.164 23.702,4.5 23.335,4.5 l -22.67,0 C 0.299,4.5 0.001,4.164 0.001,3.751 z"
                   inkscape:connector-curvature="0"
                   style="fill-opacity:0.05490202;marker-start:none;marker-end:none" />
                <path
                   id="path19709"
                   d="m 0.631,3.312 0,0 C 0.827,3.208 1.122,3.124 1.44,3.124 l 21.707,0 c 0.306,0 0.56,0.245 0.6,0.554 0,0 0,10e-4 0,0.002 0.04,0.309 -0.134,0.58 -0.379,0.632 l 0,0 C 23.172,4.416 22.877,4.5 22.559,4.5 L 0.852,4.5 C 0.547,4.5 0.293,4.255 0.253,3.945 c 0,0 0,-10e-4 0,-10e-4 -0.04,-0.309 0.133,-0.58 0.378,-0.632 z"
                   inkscape:connector-curvature="0"
                   style="fill-opacity:0.09411801;marker-start:none;marker-end:none" />
                <path
                   id="path19711"
                   d="m 0.597,3.624 0,0 C 0.695,3.416 0.991,3.249 1.333,3.249 l 21.627,0 c 0.244,0 0.454,0.153 0.534,0.359 0,0 0,0 0,10e-4 0.08,0.205 0.031,0.411 -0.092,0.515 l 0,0 C 23.304,4.332 23.008,4.5 22.666,4.5 L 1.039,4.5 C 0.795,4.5 0.585,4.346 0.505,4.14 c 0,0 0,0 0,0 C 0.425,3.934 0.474,3.728 0.597,3.624 z"
                   inkscape:connector-curvature="0"
                   style="fill-opacity:0.129412;marker-start:none;marker-end:none" />
                <path
                   id="path19713"
                   d="m 0.563,3.937 0,0 c 0,-0.312 0.298,-0.563 0.664,-0.563 l 21.546,0 c 0.366,0 0.664,0.251 0.664,0.563 l 0,0 c 0,0.312 -0.298,0.563 -0.664,0.563 L 1.227,4.5 C 0.861,4.5 0.563,4.249 0.563,3.937 z"
                   inkscape:connector-curvature="0"
                   style="fill-opacity:0.164706;marker-start:none;marker-end:none" />
              </g>
              <path
                 style="fill:url(#LinearGradient-4);stroke-width:0.081;marker-start:none;marker-end:none"
                 id="path19715"
                 stroke-miterlimit="79.8403193612775"
                 d="M 0,22.408 0,5.343 C 0,4.465 0.714,3.751 1.592,3.751 l 20.815,0 c 0.878,0 1.592,0.714 1.592,1.592 l 0,17.065 C 23.999,23.286 23.285,24 22.407,24 L 1.592,24 C 0.714,24 0,23.286 0,22.408 z"
                 inkscape:connector-curvature="0" />
              <path
                 style="fill:url(#LinearGradient_1-33);stroke-width:0.081;marker-start:none;marker-end:none"
                 id="path19717"
                 stroke-miterlimit="79.8403193612775"
                 d="m 0.749,22.209 0,-16.667 c 0,-0.574 0.467,-1.041 1.041,-1.041 l 20.419,0 c 0.574,0 1.041,0.467 1.041,1.041 l 0,16.667 c 0,0.574 -0.467,1.041 -1.041,1.041 l -20.419,0 c -0.574,0 -1.041,-0.467 -1.041,-1.041 z"
                 inkscape:connector-curvature="0" />
              <path
                 id="path19719"
                 stroke-miterlimit="79.8403193612775"
                 d="m 1.501,21.207 0,-15.415 C 1.501,5.493 1.744,5.25 2.043,5.25 l 19.915,0 c 0.299,0 0.542,0.243 0.542,0.542 l 0,15.415 c 0,0.299 -0.243,0.542 -0.542,0.542 l -19.915,0 c -0.299,0 -0.542,-0.243 -0.542,-0.542 z"
                 inkscape:connector-curvature="0"
                 style="fill:#989898;stroke-width:0.081;marker-start:none;marker-end:none" />
              <path
                 id="path19721"
                 stroke-miterlimit="79.8403193612775"
                 d="m 2.251,6.751 0,-1.499 19.499,0 0,1.499 -19.499,0 z"
                 inkscape:connector-curvature="0"
                 style="fill:#cccbcb;stroke-width:0.081;marker-start:none;marker-end:none" />
              <path
                 id="path19723"
                 stroke-miterlimit="79.8403193612775"
                 d="m 2.251,20.954 0,-14.157 c 0,-0.439 0.357,-0.796 0.796,-0.796 l 17.907,0 c 0.439,0 0.796,0.357 0.796,0.796 l 0,14.157 c 0,0.439 -0.357,0.796 -0.796,0.796 l -17.907,0 c -0.439,0 -0.796,-0.357 -0.796,-0.796 z"
                 inkscape:connector-curvature="0"
                 style="fill:#1d1d1d;stroke-width:0.081;marker-start:none;marker-end:none" />
              <path
                 id="path19725"
                 stroke-miterlimit="79.8403193612775"
                 d="m 3.001,20.654 0,-13.557 c 0,-0.19 0.156,-0.346 0.346,-0.346 l 17.307,0 c 0.19,0 0.346,0.156 0.346,0.346 l 0,13.557 C 21,20.844 20.844,21 20.654,21 L 3.347,21 C 3.157,21 3.001,20.844 3.001,20.654 z"
                 inkscape:connector-curvature="0"
                 style="fill:#3c3d41;stroke-width:0.081;marker-start:none;marker-end:none" />
              <path
                 id="path19727"
                 stroke-miterlimit="79.8403193612775"
                 d="m 1.5,23.249 0,-0.749 20.999,0 0,0.749 -20.999,0 z"
                 inkscape:connector-curvature="0"
                 style="fill:#f1f0f0;stroke-width:0.081;marker-start:none;marker-end:none" />
              <g
                 id="Group_2">
                <path
                   id="path19730"
                   stroke-miterlimit="79.8403193612775"
                   d="m 2.999,19.498 0,-11.251 18.001,0 0,11.251 -18.001,0 z"
                   inkscape:connector-curvature="0"
                   style="fill:#2e2c2c;stroke-width:0.163;marker-start:none;marker-end:none" />
                <path
                   style="fill:url(#LinearGradient_2-62);stroke-width:0.191;marker-start:none;marker-end:none"
                   id="path19732"
                   stroke-miterlimit="79.8403193612775"
                   d="m 2.999,18.747 0,0.751 18.001,0 0,-0.751 -18.001,0 z"
                   inkscape:connector-curvature="0" />
                <path
                   style="fill:url(#LinearGradient_3-823);stroke-width:0.191;marker-start:none;marker-end:none"
                   id="path19734"
                   stroke-miterlimit="79.8403193612775"
                   d="m 2.999,8.997 0,-0.749 18.001,0 0,0.749 -18.001,0 z"
                   inkscape:connector-curvature="0" />
                <path
                   id="path19736"
                   stroke-miterlimit="79.8403193612775"
                   d="m 12.225,13.873 c 0,2.152 1.747,3.9 3.9,3.9 2.152,0 3.9,-1.748 3.9,-3.9 0,-2.153 -1.748,-3.9 -3.9,-3.9 -2.153,0 -3.9,1.747 -3.9,3.9 z m 5.775,0 c 0,1.034 -0.841,1.875 -1.875,1.875 -1.035,0 -1.875,-0.841 -1.875,-1.875 0,-1.036 0.839,-1.875 1.875,-1.875 1.034,0 1.875,0.84 1.875,1.875 z m -2.775,-0.806 0,1.613 c 0,0.464 0.378,0.843 0.843,0.843 l 0.113,0 c 0.464,0 0.843,-0.379 0.843,-0.843 l 0,-1.613 c 0,-0.465 -0.379,-0.843 -0.843,-0.843 l -0.113,0 c -0.465,0 -0.843,0.378 -0.843,0.843 z"
                   inkscape:connector-curvature="0"
                   style="fill:#e67a40;fill-opacity:0.18039198;stroke-width:0.44999999;marker-start:none;marker-end:none" />
                <path
                   style="fill:url(#LinearGradient_4-4);stroke-width:0.44999999;marker-start:none;marker-end:none"
                   id="path19738"
                   stroke-miterlimit="79.8403193612775"
                   d="m 12.75,13.873 c 0,1.863 1.512,3.375 3.375,3.375 1.863,0 3.375,-1.512 3.375,-3.375 0,-1.863 -1.512,-3.375 -3.375,-3.375 -1.863,0 -3.375,1.512 -3.375,3.375 z m 5.775,0 c 0,1.324 -1.076,2.4 -2.4,2.4 -1.325,0 -2.4,-1.076 -2.4,-2.4 0,-1.325 1.075,-2.4 2.4,-2.4 1.324,0 2.4,1.075 2.4,2.4 z m -2.775,-0.806 0,1.613 c 0,0.175 0.143,0.318 0.318,0.318 l 0.113,0 c 0.175,0 0.318,-0.143 0.318,-0.318 l 0,-1.613 c 0,-0.175 -0.143,-0.318 -0.318,-0.318 l -0.113,0 c -0.175,0 -0.318,0.143 -0.318,0.318 z"
                   inkscape:connector-curvature="0" />
                <path
                   id="path19740"
                   stroke-miterlimit="79.8403193612775"
                   d="m 3.975,13.873 c 0,1.697 1.085,3.142 2.6,3.677 0.17,0.06 0.345,0.026 0.477,-0.068 l 0.08,-0.09 0.09,0.133 c 0.152,0.153 0.363,0.248 0.596,0.248 l 0.113,0 c 0.232,0 0.442,-0.095 0.595,-0.248 l 0.091,-0.135 0.082,0.092 c 0.132,0.093 0.307,0.126 0.478,0.066 1.512,-0.536 2.598,-1.979 2.598,-3.675 0,-2.153 -1.748,-3.9 -3.9,-3.9 -2.153,0 -3.9,1.747 -3.9,3.9 z m 5.775,0 c 0,0.535 -0.227,1.02 -0.59,1.362 l -0.386,0.277 0,-0.947 c 0,-0.465 -0.379,-0.843 -0.843,-0.843 l -0.113,0 c -0.465,0 -0.843,0.378 -0.843,0.843 l 0,0.948 -0.386,-0.276 C 6.225,14.895 6,14.41 6,13.873 c 0,-1.036 0.839,-1.875 1.875,-1.875 1.034,0 1.875,0.84 1.875,1.875 z"
                   inkscape:connector-curvature="0"
                   style="fill:#9dc444;fill-opacity:0.18039198;stroke-width:0.44999999;marker-start:none;marker-end:none" />
                <path
                   style="fill:url(#LinearGradient_5-34);stroke-width:0.44999999;marker-start:none;marker-end:none"
                   id="path19742"
                   stroke-miterlimit="79.8403193612775"
                   d="m 4.5,13.873 c 0,1.468 0.939,2.719 2.25,3.182 l 0,-1.062 c -0.759,-0.404 -1.275,-1.202 -1.275,-2.12 0,-1.325 1.075,-2.4 2.4,-2.4 1.324,0 2.4,1.075 2.4,2.4 0,0.916 -0.516,1.714 -1.273,2.118 l 0,1.063 C 10.311,16.59 11.25,15.34 11.25,13.873 11.25,12.01 9.738,10.498 7.875,10.498 6.012,10.498 4.5,12.01 4.5,13.873 z m 3,0.692 0,2.365 c 0,0.175 0.143,0.318 0.318,0.318 l 0.113,0 c 0.175,0 0.318,-0.143 0.318,-0.318 l 0,-2.365 c 0,-0.175 -0.143,-0.318 -0.318,-0.318 l -0.113,0 C 7.643,14.247 7.5,14.39 7.5,14.565 z"
                   inkscape:connector-curvature="0" />
              </g>
              <path
                 id="path19744"
                 stroke-miterlimit="79.8403193612775"
                 d="m 3,15.955 10e-4,4.699 c 0,0.19 0.156,0.346 0.346,0.346 l 17.307,0 C 20.844,21 21,20.844 21,20.654 l 0,-4.699 C 18.61,15.361 15.456,15 12,15 8.543,15 5.389,15.361 3,15.955 z"
                 inkscape:connector-curvature="0"
                 style="fill:#ffffff;fill-opacity:0.05490202;stroke-width:0.077;marker-start:none;marker-end:none" />
            </g>
          </g>
        </g>
      </g>
    </g>
  </g>
</svg>
