<?xml version="1.0" encoding="UTF-8" standalone="no"?>
<!-- Creator: CorelDRAW -->

<svg
   xmlns:dc="http://purl.org/dc/elements/1.1/"
   xmlns:cc="http://creativecommons.org/ns#"
   xmlns:rdf="http://www.w3.org/1999/02/22-rdf-syntax-ns#"
   xmlns:svg="http://www.w3.org/2000/svg"
   xmlns="http://www.w3.org/2000/svg"
   xmlns:xlink="http://www.w3.org/1999/xlink"
   xmlns:sodipodi="http://sodipodi.sourceforge.net/DTD/sodipodi-0.dtd"
   xmlns:inkscape="http://www.inkscape.org/namespaces/inkscape"
   xml:space="preserve"
   width="32px"
   height="32px"
   style="shape-rendering:geometricPrecision; text-rendering:geometricPrecision; image-rendering:optimizeQuality; fill-rule:evenodd; clip-rule:evenodd"
   viewBox="0 0 32 32"
   id="svg3126"
   version="1.1"
   inkscape:version="0.48.1 r9760"
   sodipodi:docname="preferences-system-power-management.svg"><metadata
   id="metadata3316"><rdf:RDF><cc:Work
       rdf:about=""><dc:format>image/svg+xml</dc:format><dc:type
         rdf:resource="http://purl.org/dc/dcmitype/StillImage" /><dc:title></dc:title></cc:Work></rdf:RDF></metadata><sodipodi:namedview
   pagecolor="#ffffff"
   bordercolor="#666666"
   borderopacity="1"
   objecttolerance="10"
   gridtolerance="10"
   guidetolerance="10"
   inkscape:pageopacity="0"
   inkscape:pageshadow="2"
   inkscape:window-width="646"
   inkscape:window-height="480"
   id="namedview3314"
   showgrid="false"
   inkscape:zoom="8.3125"
   inkscape:cx="16"
   inkscape:cy="16"
   inkscape:window-x="0"
   inkscape:window-y="24"
   inkscape:window-maximized="0"
   inkscape:current-layer="svg3126" />
 <defs
   id="defs3128">
  <style
   type="text/css"
   id="style3130">
   
    .fil22 {fill:#4C4C4C}
    .fil36 {fill:#999999}
    .fil19 {fill:#B7DD5F}
    .fil21 {fill:#CCCCCC}
    .fil18 {fill:#D0F280}
    .fil20 {fill:#E3FF9C}
    .fil43 {fill:#E5E5E5}
    .fil38 {fill:#EEFFC2}
    .fil23 {fill:#8FB53F;fill-rule:nonzero}
    .fil25 {fill:#191919;fill-opacity:0.000000}
    .fil6 {fill:#82AB2B;fill-opacity:0.000000}
    .fil26 {fill:#191919;fill-opacity:0.007843}
    .fil27 {fill:#191919;fill-opacity:0.019608}
    .fil28 {fill:#191919;fill-opacity:0.027451}
    .fil29 {fill:#191919;fill-opacity:0.035294}
    .fil7 {fill:#82AB2B;fill-opacity:0.035294}
    .fil30 {fill:#191919;fill-opacity:0.043137}
    .fil31 {fill:#191919;fill-opacity:0.054902}
    .fil32 {fill:#191919;fill-opacity:0.062745}
    .fil33 {fill:#191919;fill-opacity:0.070588}
    .fil8 {fill:#82AB2B;fill-opacity:0.074510}
    .fil34 {fill:#191919;fill-opacity:0.078431}
    .fil9 {fill:#82AB2B;fill-opacity:0.109804}
    .fil3 {fill:#333333;fill-opacity:0.121569}
    .fil10 {fill:#82AB2B;fill-opacity:0.145098}
    .fil11 {fill:#82AB2B;fill-opacity:0.184314}
    .fil12 {fill:#82AB2B;fill-opacity:0.219608}
    .fil16 {fill:#82AB2B;fill-opacity:0.321569}
    .fil24 {fill:#7F7F7F;fill-opacity:0.501961}
    .fil37 {fill:#8FB53F;fill-opacity:0.501961}
    .fil0 {fill:#E5E5E5;fill-opacity:0.501961}
    .fil44 {fill:#8FB53F;fill-opacity:0.580392}
    .fil13 {fill:#D7F48E;fill-opacity:0.580392}
    .fil17 {fill:#D7F48E;fill-opacity:0.729412}
    .fil45 {fill:#EEFFC2;fill-opacity:0.729412}
    .fil2 {fill:white;fill-opacity:0.760784}
    .fil15 {fill:#D7F48E;fill-opacity:0.780392}
    .fil1 {fill:white;fill-opacity:0.780392}
    .fil4 {fill:url(#id0)}
    .fil40 {fill:url(#id1)}
    .fil35 {fill:url(#id2)}
    .fil5 {fill:url(#id3)}
    .fil42 {fill:url(#id4)}
    .fil41 {fill:url(#id5)}
    .fil14 {fill:url(#id6);fill-rule:nonzero}
    .fil39 {fill:url(#id7);fill-rule:nonzero}
    .fil46 {fill:url(#id8);fill-rule:nonzero}
   
  </style>
  <linearGradient
   id="id0"
   gradientUnits="userSpaceOnUse"
   x1="27.9947"
   y1="6.17983"
   x2="7.47202"
   y2="5.88927">
   <stop
   offset="0"
   style="stop-color:#CCCCCC"
   id="stop3133" />
   <stop
   offset="0.0705882"
   style="stop-color:#CCCACA"
   id="stop3135" />
   <stop
   offset="0.109804"
   style="stop-color:#A0A2A4"
   id="stop3137" />
   <stop
   offset="0.329412"
   style="stop-color:#7A7A7A"
   id="stop3139" />
   <stop
   offset="0.411765"
   style="stop-color:white"
   id="stop3141" />
   <stop
   offset="0.690196"
   style="stop-color:white"
   id="stop3143" />
   <stop
   offset="0.780392"
   style="stop-color:#A3A3A3"
   id="stop3145" />
   <stop
   offset="0.901961"
   style="stop-color:gray"
   id="stop3147" />
   <stop
   offset="0.960784"
   style="stop-color:#CCCACA"
   id="stop3149" />
   <stop
   offset="1"
   style="stop-color:#A8A8A8"
   id="stop3151" />
  </linearGradient>
  <linearGradient
   id="id1"
   gradientUnits="userSpaceOnUse"
   x1="21.392"
   y1="2.15798"
   x2="13.0459"
   y2="2.08475">
   <stop
   offset="0"
   style="stop-color:#ABABAB"
   id="stop3154" />
   <stop
   offset="0.0509804"
   style="stop-color:#CCCACA"
   id="stop3156" />
   <stop
   offset="0.109804"
   style="stop-color:#A0A2A4"
   id="stop3158" />
   <stop
   offset="0.329412"
   style="stop-color:#7A7A7A"
   id="stop3160" />
   <stop
   offset="0.411765"
   style="stop-color:white"
   id="stop3162" />
   <stop
   offset="0.690196"
   style="stop-color:white"
   id="stop3164" />
   <stop
   offset="0.780392"
   style="stop-color:#A3A3A3"
   id="stop3166" />
   <stop
   offset="0.901961"
   style="stop-color:gray"
   id="stop3168" />
   <stop
   offset="0.960784"
   style="stop-color:#CCCACA"
   id="stop3170" />
   <stop
   offset="1"
   style="stop-color:#A8A8A8"
   id="stop3172" />
  </linearGradient>
  <linearGradient
   id="id2"
   gradientUnits="userSpaceOnUse"
   xlink:href="#id1"
   x1="27.4608"
   y1="29.2739"
   x2="7.44485"
   y2="29.105">
  </linearGradient>
  <linearGradient
   id="id3"
   gradientUnits="userSpaceOnUse"
   x1="8.38388"
   y1="21.3448"
   x2="26.4769"
   y2="21.5373">
   <stop
   offset="0"
   style="stop-color:#A2C849"
   id="stop3176" />
   <stop
   offset="0.341176"
   style="stop-color:#B7DD5F"
   id="stop3178" />
   <stop
   offset="0.858824"
   style="stop-color:#A2C849"
   id="stop3180" />
   <stop
   offset="1"
   style="stop-color:#A2C849"
   id="stop3182" />
  </linearGradient>
  <linearGradient
   id="id4"
   gradientUnits="userSpaceOnUse"
   x1="17.3595"
   y1="1.69733"
   x2="17.291"
   y2="0.00944928">
   <stop
   offset="0"
   style="stop-color:#808385"
   id="stop3185" />
   <stop
   offset="1"
   style="stop-color:#949494"
   id="stop3187" />
  </linearGradient>
  <linearGradient
   id="id5"
   gradientUnits="userSpaceOnUse"
   xlink:href="#id4"
   x1="17.3075"
   y1="1.30754"
   x2="17.2119"
   y2="0.575225">
  </linearGradient>
  <linearGradient
   id="id6"
   gradientUnits="userSpaceOnUse"
   x1="7.63384"
   y1="14.0511"
   x2="27.2435"
   y2="14.0511">
   <stop
   offset="0"
   style="stop-color:#B7DD5F"
   id="stop3191" />
   <stop
   offset="0.109804"
   style="stop-color:#E3FF9C"
   id="stop3193" />
   <stop
   offset="0.611765"
   style="stop-color:#E3FF9C"
   id="stop3195" />
   <stop
   offset="1"
   style="stop-color:#B7DD5F"
   id="stop3197" />
  </linearGradient>
  <linearGradient
   id="id7"
   gradientUnits="userSpaceOnUse"
   xlink:href="#id4"
   x1="17.5816"
   y1="7.52754"
   x2="17.3737"
   y2="1.33117">
  </linearGradient>
  <linearGradient
   id="id8"
   gradientUnits="userSpaceOnUse"
   xlink:href="#id4"
   x1="17.5946"
   y1="31.3527"
   x2="17.3867"
   y2="27.7053">
  </linearGradient>
 </defs>
 <g
   id="Слой_x0020_1">
  <metadata
   id="CorelCorpID_0Corel-Layer" />
  <polygon
   class="fil0"
   points="7.46848,3.51631 27.3876,3.46671 27.3876,30.2684 7.48738,30.1999 "
   id="polygon3203" />
  <polygon
   class="fil1"
   points="27.1135,8.23033 26.0198,8.23033 26.0198,27.6793 27.1135,27.6793 "
   id="polygon3205" />
  <polygon
   class="fil1"
   points="8.97091,8.02953 7.53108,8.02953 7.53108,27.4785 8.97091,27.4785 "
   id="polygon3207" />
  <polygon
   class="fil2"
   points="12.225,9.33353 17.8202,9.33353 17.8202,28.7813 12.225,28.7813 "
   id="polygon3209" />
  <polygon
   class="fil3"
   points="18.1202,9.33353 23.6149,9.33353 23.6149,28.7813 18.1202,28.7813 "
   id="polygon3211" />
  <polygon
   class="fil3"
   points="10.4273,9.43393 12.225,9.43393 12.225,28.8829 10.4273,28.8829 "
   id="polygon3213" />
  <path
   class="fil4"
   d="M27.8069 8.10985c0.0236232,0.036616 0.036616,-0.262218 0.036616,0.111029 0,0.372066 -4.79906,1.28274 -10.0682,1.28274 -5.26798,0 -9.53905,-0.426399 -10.2454,-1.04533l0 -5.8432 20.4069 -0.0496087 0 5.54437 -0.129928 0z"
   id="path3215" />
  <polygon
   class="fil5"
   points="7.47438,12.6136 27.3876,12.6136 27.3876,30.2684 7.48738,30.1999 "
   id="polygon3217" />
  <polygon
   class="fil6"
   points="27.5128,13.594 23.9161,13.594 23.9161,28.8321 27.5128,28.8321 "
   id="polygon3219" />
  <g
   id="_289365744">
   <path
   id="_289342696"
   class="fil7"
   d="M27.345 13.594c-1.01344,0 -2.02569,0 -3.03913,0 0,5.07781 0,10.1568 0,15.237 1.01344,0 2.02569,0 3.03913,0 0,-5.08017 0,-10.1592 0,-15.237z" />
   <path
   id="_103220632"
   class="fil8"
   d="M27.1773 13.594c-0.826812,0 -1.65481,0 -2.48162,0 0,5.07781 0,10.1568 0,15.237 0.826812,0 1.65481,0 2.48162,0 0,-5.08017 0,-10.1592 0,-15.237z" />
   <path
   id="_103221328"
   class="fil9"
   d="M27.0108 13.594c-0.642551,0 -1.28392,0 -1.92529,0 0,5.07781 0,10.1568 0,15.237 0.64137,0 1.28274,0 1.92529,0 0,-5.08017 0,-10.1592 0,-15.237z" />
   <path
   id="_103221664"
   class="fil10"
   d="M26.8431 13.594c-0.457109,0 -0.911856,0 -1.36778,0 0,5.07781 0,10.1568 0,15.237 0.455928,0 0.910675,0 1.36778,0 0,-5.08017 0,-10.1592 0,-15.237z" />
   <path
   id="_103219936"
   class="fil11"
   d="M26.6753 13.594c-0.270486,0 -0.540972,0 -0.810276,0 0,5.07781 0,10.1568 0,15.237 0.269305,0 0.53979,0 0.810276,0 0,-5.08017 0,-10.1592 0,-15.237z" />
  </g>
  <polygon
   class="fil12"
   points="26.5076,13.594 26.2548,13.594 26.2548,28.8321 26.5076,28.8321 "
   id="polygon3227" />
  <polygon
   class="fil6"
   points="8.08032,13.3436 11.1761,13.3436 11.1761,28.5817 8.08032,28.5817 "
   id="polygon3229" />
  <g
   id="_289370928">
   <path
   id="_102996496"
   class="fil7"
   d="M8.2256 13.3436c0.872878,0 1.74457,0 2.61627,0 0,5.07781 0,10.1568 0,15.237 -0.871696,0 -1.74339,0 -2.61627,0 0,-5.08017 0,-10.1592 0,-15.237z" />
   <path
   id="_102995704"
   class="fil8"
   d="M8.3697 13.3436c0.71224,0 1.42566,0 2.13672,0 0,5.07781 0,10.1568 0,15.237 -0.711059,0 -1.42448,0 -2.13672,0 0,-5.08017 0,-10.1592 0,-15.237z" />
   <path
   id="_102995920"
   class="fil9"
   d="M8.5138 13.3436c0.552783,0 1.10557,0 1.65717,0 0,5.07781 0,10.1568 0,15.237 -0.551602,0 -1.10439,0 -1.65717,0 0,-5.08017 0,-10.1592 0,-15.237z" />
   <path
   id="_103219720"
   class="fil10"
   d="M8.65791 13.3436c0.393326,0 0.785472,0 1.17762,0 0,5.07781 0,10.1568 0,15.237 -0.392145,0 -0.784291,0 -1.17762,0 0,-5.08017 0,-10.1592 0,-15.237z" />
   <path
   id="_103221064"
   class="fil11"
   d="M8.80201 13.3436c0.232689,0 0.466558,0 0.698066,0 0,5.07781 0,10.1568 0,15.237 -0.231507,0 -0.465377,0 -0.698066,0 0,-5.08017 0,-10.1592 0,-15.237z" />
  </g>
  <polygon
   class="fil12"
   points="8.94493,13.3436 9.16344,13.3436 9.16344,28.5817 8.94493,28.5817 "
   id="polygon3237" />
  <path
   class="fil13"
   d="M27.2966 18.471l0 0.0129928 0 0.059058c0.0330725,0 0.0649638,0 0.0980363,0l0 -0.248044 0 -0.0118116 0 -0.00472464 0 -0.0118116 0 -0.00354348 0 -0.0129928 0 -0.00354348 0 -0.0129928 0 -0.00354348 0 -0.0129928 0 -0.00354348 0 -0.0118116 0 -0.00354348 0 -0.0129928 0 -0.00354348 0 -0.0129928 0 -0.00354348 0 -0.0129928 0 -0.00354348 0 -0.0129928 0 -0.00236232 0 -0.0141739 0 -0.00236232 0 -0.0141739 0 -0.00236232 0 -0.0141739 0 -0.00236232 0 -0.0129928 0 -0.00354348 0 -0.0129928 0 -0.00236232 0 -0.0141739 0 -0.00236232 0 -0.0141739 0 -0.248044c-0.0413406,0 -0.0838624,0 -0.126384,0 0.0236232,0.0342537 0.036616,-0.248044 0.036616,0.103942 0,0.0259855 -0.0259855,0.0543334 -0.0755943,0.0850436 -0.0200797,0 -0.0401595,0 -0.0602392,0 0.0200797,0.0307102 0.0330725,-0.19371 0.0354348,0.0165362 -0.701609,0.390964 -5.02229,1.11265 -9.72686,1.11265 -5.14277,0 -9.31227,-0.402776 -10.0009,-0.989812l0 0.248044 0 0.0106304c-0.0389783,-0.0236232 -0.0720508,-0.0448841 -0.100399,-0.0685073l0 0.248044 0 0.0118116 0 0.00472464 0 0.0118116 0 0.00472464 0 0.0118116 0 0.00354348 0 0.0129928 0 0.00354348 0 0.0129928 0 0.00354348 0 0.0118116 0 0.00472464 0 0.0118116 0 0.00354348 0 0.0129928 0 0.00354348 0 0.0129928 0 0.00354348 0 0.0129928 0 0.00354348 0 0.0118116 0 0.00472464 0 0.0118116 0 0.00354348 0 0.0129928 0 0.00354348 0 0.0129928 0 0.00354348 0 0.0118116 0 0.00472464 0 0.0118116 0 0.00354348 0 0.0129928 0 0.248044c0.688617,0.585856 4.85929,0.989812 10.0021,0.989812 5.14041,0 9.82607,-0.862247 9.82607,-1.21423 0,-0.029529 0,-0.0602392 0,-0.088587 0.00826812,-0.0059058 0.0165362,-0.0106304 0.0248044,-0.0153551 0.022442,0 0.0437029,0 0.0673261,0 0,-0.0188986 0,-0.0389783 0,-0.059058 0.00472464,-0.00944928 0.00826812,-0.0177174 0.00826812,-0.0259855 0,-0.164181 -0.00354348,-0.191348 -0.00826812,-0.175993zm-19.7856 4.80969l0 -0.0129928 0 -0.00236232 0 -0.0129928 0 -0.00236232 0 -0.0129928 0 -0.00236232 0 -0.0129928 0 -0.00236232 0 -0.0129928 0 -0.00236232 0 -0.0129928 0 -0.00236232 0 -0.0129928 0 -0.00236232 0 -0.0129928 0 -0.00236232 0 -0.0129928 0 -0.00236232 0 -0.0129928 0 -0.00236232 0 -0.0129928 0 -0.00236232 0 -0.0129928 0 -0.00236232 0 -0.0129928 0 -0.00236232 0 -0.0129928 0 -0.00236232 0 -0.0129928 0 -0.00236232 0 -0.0129928 0 -0.248044c0.0283479,0.022442 0.0602392,0.0425218 0.0992175,0.0649638 0,-0.0815001 0,-0.164181 0,-0.243319 0.689798,0.551602 4.85929,0.930754 10.0009,0.930754 4.70456,0 9.02407,-0.677986 9.72686,-1.04887 -0.00118116,-0.196073 -0.0153551,0.0165362 -0.0354348,-0.0129928 0.0200797,0 0.0401595,0 0.0614203,0 0.0484276,-0.029529 0.073232,-0.0578769 0.073232,-0.0803189 0,-0.333087 -0.0118116,-0.066145 -0.0342537,-0.0992175 0.0413406,0 0.0838624,0 0.126384,0l0 0.248044 0 0.0141739 0 0.00118116 0 0.0141739 0 0.00118116 0 0.0141739 0 0.00118116 0 0.0141739 0 0.00118116 0 0.0141739 0 0.00118116 0 0.0141739 0 0.00118116 0 0.0141739 0 0.00118116 0 0.0141739 0 0.00118116 0 0.0141739 0 0.00118116 0 0.0141739 0 0.00118116 0 0.0141739 0 0.00118116 0 0.0141739 0 0.00118116 0 0.0141739 0 0.00118116 0 0.0141739 0 0.00118116 0 0.0141739 0 0.00118116 0 0.0141739 0 0.248044c-0.0330725,0 -0.066145,0 -0.100399,0 0,-0.0236232 0,-0.0448841 0,-0.0673261 0.0059058,-0.0153551 0.00826812,0.00944928 0.00826812,0.165362 0,0.00708696 -0.00236232,0.0153551 -0.00826812,0.0236232 0,0.0188986 0,0.0377971 0,0.0566957 -0.0212609,0 -0.0437029,0 -0.0649638,0 -0.00944928,0.00472464 -0.0177174,0.00826812 -0.0259855,0.0129928 0,0.0283479 0,0.0566957 0,0.0850436 0,0.331906 -4.68448,1.14454 -9.82607,1.14454 -5.14277,0 -9.31227,-0.380334 -10.0009,-0.933117l0 -0.248044z"
   id="path3239" />
  <path
   class="fil14"
   d="M27.651 13.1085c0,0.199616 -0.214971,0.380334 -0.608298,0.537428l0.608298 0c0,0.47837 -1.22014,0.842167 -3.19031,1.04533 -1.80599,0.186623 -4.29116,0.302377 -7.022,0.302377 -2.73084,0 -5.216,-0.115754 -7.02082,-0.302377 -1.97018,-0.20316 -3.19268,-0.566957 -3.19268,-1.04533l0.608298 0c-0.394508,-0.157094 -0.608298,-0.336631 -0.608298,-0.537428l0.656725 0c0,0.0850436 0.994537,0.230326 2.60092,0.394508 1.76938,0.18308 4.22855,0.296471 6.95585,0.296471 2.72612,0 5.18648,-0.113391 6.95585,-0.296471 1.60638,-0.164181 2.60092,-0.309464 2.60092,-0.394508l0.655544 0z"
   id="path3241" />
  <polygon
   class="fil15"
   points="25.9997,12.29 27.1135,12.29 27.1135,27.6793 25.9997,27.6793 "
   id="polygon3243" />
  <polygon
   class="fil15"
   points="8.01299,13.3259 8.01299,26.7119 9.07367,26.7119 9.07367,13.3259 "
   id="polygon3245" />
  <polygon
   class="fil16"
   points="18.1202,12.3136 23.6149,12.3136 23.6149,28.7813 18.1202,28.7813 "
   id="polygon3247" />
  <polygon
   class="fil17"
   points="17.8202,12.3136 17.8202,28.7813 12.225,28.7813 12.225,12.3136 "
   id="polygon3249" />
  <ellipse
   class="fil18"
   cx="17.3882"
   cy="12.808"
   rx="9.88492"
   ry="1.01855"
   id="ellipse3251" />
  <path
   class="fil19"
   d="M18.1202 11.7927c2.00207,0.0118116 3.87066,0.0637827 5.49594,0.145283l0 1.74103c-1.62528,0.0815001 -3.49387,0.13229 -5.49594,0.144102l0 -2.03041z"
   id="path3253" />
  <path
   class="fil20"
   d="M17.389 11.7892l0.432305 0.00118116 0 2.03514 -0.432305 0.00118116c-1.89222,0 -3.66042,-0.0543334 -5.16403,-0.150007l0 -1.73749c1.50362,-0.0944928 3.27181,-0.150007 5.16403,-0.150007z"
   id="path3255" />
  <ellipse
   class="fil21"
   cx="17.4519"
   cy="2.4553"
   rx="9.86889"
   ry="1.36342"
   id="ellipse3257" />
  <ellipse
   class="fil22"
   cx="17.4519"
   cy="2.45535"
   rx="7.17635"
   ry="0.991441"
   id="ellipse3259" />
  <path
   class="fil23"
   d="M27.964 8.2693l0.0472464 21.2845 0.00236232 0 0 0.0212609 0 0.0212609 0 0.0212609 0 0.0200797 0 0.0200797 0 0.140558 0 0.0153551 0 0.421674 0 0.499631 -0.500812 -0.00118116 -0.257493 -0.00118116 -0.129928 0.0425218 -0.0141739 0.00354348c-0.731138,0.211428 -2.30208,0.522073 -4.34195,0.739406 -1.47763,0.158276 -3.20213,0.271667 -5.03174,0.271667 -1.9749,0 -3.89783,-0.125203 -5.53256,-0.292928 -2.31862,-0.237413 -4.0691,-0.571682 -4.61361,-0.76303l-0.0248044 -0.0106304 -0.0543334 -0.022442 -0.0248044 0 -0.500812 0 0 -0.500812 0 -0.172449 -0.0059058 -0.0354348 -0.0059058 -0.0578769 -0.00472464 -0.0992175 -0.00236232 -0.0236232 0 -2.67297 0 -0.500812 0.0188986 0 -0.0165362 -23.1212 0.00354348 4.75299 0.996899 0 0.0129928 18.869 0.00118116 0.500812 -0.0153551 0 0 2.16861c0.54924,0.175993 2.17097,0.474827 4.33722,0.696885 1.58157,0.161819 3.4608,0.283479 5.43098,0.283479 1.81662,0 3.4986,-0.109848 4.92544,-0.262218 1.97254,-0.210247 3.46552,-0.501993 4.15768,-0.700428l0.191348 -0.0614203 0 -0.106304 0 -0.0200797 0 -0.0200797 0 -0.0212609 0 -0.0212609 0 -0.0212609 0.00236232 0 -0.0602392 -27.0202 0.0129928 5.73572 0.996899 0z"
   id="path3261" />
  <path
   class="fil3"
   d="M7.44249 9.10793l0 -0.250406 0 -0.300015c0.688617,0.618928 4.85811,1.04533 10.0009,1.04533 5.14277,0 9.82726,-0.910675 9.82726,-1.28392 0,-0.372066 -0.0129928,-0.073232 -0.0354348,-0.108667l0.126384 0 0 0.298834 0 0.251587 0 0.300015 -0.126384 0c0.022442,0.036616 0.0354348,-0.262218 0.0354348,0.109848 0,0.373247 -4.68448,1.28392 -9.82726,1.28392 -5.14277,0 -9.31227,-0.425218 -10.0009,-1.04651l0 -0.300015z"
   id="path3263" />
  <path
   class="fil24"
   d="M27.41 8.28584c0.022442,0.0354348 0.036616,-0.263399 0.036616,0.108667 0,0.373247 -4.68566,1.28392 -9.82726,1.28392 -5.14277,0 -9.31227,-0.426399 -10.0021,-1.04533l0 -0.552783c0.689798,0.62129 4.85929,1.04651 10.0021,1.04651 5.14159,0 9.82726,-0.909494 9.82726,-1.28274 0,-0.373247 -0.0141739,-0.0744131 -0.036616,-0.109848l0.127565 0 0 0.551602 -0.127565 0z"
   id="path3265" />
  <g
   id="_289338952">
   <path
   id="_289339552"
   class="fil25"
   d="M17.3938 27.8151c7.41296,-0.563414 13.1652,1.78828 13.1652,2.52768 0,0.739406 -1.26266,2.02451 -12.9432,2.08829 -11.684,0.0614203 -12.3077,-0.347261 -12.8971,-2.08829 -0.589399,-1.73985 5.26089,-1.96427 12.675,-2.52768z" />
   <g
   id="g3269">
    <path
   id="_289343896"
   class="fil26"
   d="M17.4162 28.0207c7.19209,-0.501993 12.7943,1.61819 12.7943,2.33634 0,0.718146 -1.61228,1.93002 -12.5983,1.98671 -10.9883,0.0543334 -12.049,-0.389783 -12.5723,-1.99616 -0.522073,-1.60992 5.18175,-1.82844 12.3762,-2.32689z" />
    <path
   id="_289341112"
   class="fil27"
   d="M17.4375 28.2262c6.97239,-0.438211 12.4246,1.4481 12.4246,2.14381 0,0.696885 -1.96073,1.83789 -12.2522,1.88513 -10.2915,0.0507899 -11.7903,-0.428761 -12.2475,-1.90521 -0.45829,-1.47409 5.10261,-1.6867 12.075,-2.12373z" />
    <path
   id="_289344736"
   class="fil28"
   d="M17.4599 28.4305c6.75151,-0.374428 12.0537,1.2792 12.0537,1.95482 0,0.675624 -2.31035,1.74221 -11.9061,1.78473 -9.59693,0.0413406 -11.5317,-0.473645 -11.9238,-1.81662 -0.392145,-1.34298 5.02348,-1.54732 11.7762,-1.92293z" />
    <path
   id="_289340416"
   class="fil29"
   d="M17.4812 28.6372c6.53182,-0.314189 11.684,1.10793 11.684,1.76111 0,0.653182 -2.65879,1.65008 -11.56,1.68433 -8.90359,0.0354348 -11.2718,-0.514986 -11.599,-1.72568 -0.327181,-1.20951 4.94434,-1.40794 11.475,-1.71977z" />
    <path
   id="_289341808"
   class="fil30"
   d="M17.5036 28.8416c6.31094,-0.250406 11.312,0.939023 11.312,1.57212 0,0.631921 -3.00723,1.55441 -11.2128,1.58157 -8.20788,0.0271667 -11.0131,-0.556327 -11.2742,-1.63473 -0.262218,-1.07604 4.8652,-1.26739 11.175,-1.51897z" />
    <path
   id="_289342768"
   class="fil31"
   d="M17.5237 29.0459c6.09124,-0.186623 10.9435,0.768935 10.9435,1.38078 0,0.61066 -3.35568,1.45991 -10.869,1.48118 -7.511,0.0212609 -10.7521,-0.598848 -10.9482,-1.54378 -0.197254,-0.944928 4.78606,-1.12919 10.8738,-1.31818z" />
    <path
   id="_289342792"
   class="fil32"
   d="M17.5473 29.2526c5.86801,-0.125203 10.569,0.597667 10.569,1.18707 0,0.591761 -3.70294,1.36778 -10.5206,1.38196 -6.81648,0.0141739 -10.4934,-0.640189 -10.6234,-1.45401 -0.13229,-0.811457 4.70574,-0.989812 10.5749,-1.11502z" />
    <path
   id="_289340704"
   class="fil33"
   d="M17.5686 29.457c5.64831,-0.0602392 10.1993,0.428761 10.1993,0.998081 0,0.568138 -4.05256,1.27211 -10.1745,1.2792 -6.12314,0.00708696 -10.2348,-0.682711 -10.2997,-1.36188 -0.066145,-0.680348 4.62661,-0.851617 10.2749,-0.915399z" />
   </g>
   <path
   id="_289345072"
   class="fil34"
   d="M17.5898 29.6648c5.42861,0 9.82962,0.255131 9.82962,0.80437 0,0.545696 -4.401,1.1788 -9.82962,1.1788 -5.42743,0 -9.9749,-0.724051 -9.9749,-1.27093 0,-0.548058 4.54747,-0.71224 9.9749,-0.71224z" />
  </g>
  <path
   class="fil24"
   d="M7.41769 27.6604l0 -0.569319 0.0862247 0c0.279935,0.435848 4.96206,1.14573 10.1332,1.14573 5.1723,0 9.37723,-0.760667 9.65717,-1.19652l0.0437029 0 0 2.65643c0,0.304739 0.0177174,0.465377 -0.10158,0.587037l0 -0.036616 0 -2.65525 -0.0437029 0c-0.278754,0.435848 -4.48487,1.1977 -9.65599,1.1977 -5.10025,0 -9.72095,-0.690979 -10.119,-1.12919z"
   id="path3280" />
  <path
   class="fil35"
   d="M26.8478 30.3346c-1.22132,0.353167 -4.76008,0.953197 -9.11029,0.953197 -4.76716,0 -9.09257,-0.71224 -9.98199,-1.02525 -0.211428,-0.0744131 -0.288203,-0.194891 -0.288203,-0.452384l0 -2.67179 0.0862247 0c0.279935,0.409863 4.96206,1.07722 10.1344,1.07722 5.1723,0 9.37605,-0.714602 9.65599,-1.12446l0.0437029 0 0 2.49579c0,0.468921 0.0507899,0.576406 -0.53979,0.747675z"
   id="path3282" />
  <path
   class="fil21"
   d="M9.15399 27.4431l-0.999262 0.787834 0.00826812 1.22841 1.71505 0.982726c-0.181899,-0.0460653 -2.02215,0.0614203 -2.12255,0.0248044 -0.107486,-0.0401595 -0.179536,-0.0921305 -0.22442,-0.171268l0 -3.1537 0.022442 0c0.0543334,0.0838624 1.24612,0.20316 1.60047,0.301196z"
   id="path3284" />
  <path
   class="fil36"
   d="M26.5761 27.4053l0 3.19386c-0.361435,0.0767754 -0.779566,0.155913 -1.24849,0.231507l0 -3.20921c0.466558,-0.0685073 0.88587,-0.141739 1.24849,-0.216152z"
   id="path3286" />
  <path
   class="fil37"
   d="M7.46848 27.2104l0 -0.570501 0.0850436 0c0.279935,0.435848 4.96206,1.14573 10.1344,1.14573 5.17112,0 9.37723,-0.759486 9.65599,-1.19652l0.0437029 0 0 2.65643c0,0.304739 0.0188986,0.466558 -0.100399,0.587037l0 -0.036616 0 -2.65525 -0.0448841 0c-0.278754,0.437029 -4.48369,1.1977 -9.65599,1.1977 -5.09907,0 -9.72095,-0.690979 -10.1178,-1.12801z"
   id="path3288" />
  <path
   class="fil38"
   d="M17.8213 13.9023l0 1.1032 -0.382696 0.00118116c-1.90639,0 -3.69349,-0.095674 -5.21364,-0.257493l0 -1.10202c1.50716,0.163 3.29426,0.256312 5.21364,0.256312l0.382696 -0.00118116z"
   id="path3290" />
  <path
   class="fil21"
   d="M8.97091 8.9402c-0.734682,-0.140558 -1.23549,-0.303558 -1.43983,-0.481913l0 -5.72863 1.43983 0 0 6.21054zm-1.43983 18.1981l0 2.96235c0.0448841,0.0744131 0.116935,0.124022 0.22442,0.161819 0.216152,0.0755943 0.635464,0.175993 1.21541,0.283479l0 -2.97889c-0.818544,-0.150007 -1.32999,-0.301196 -1.41739,-0.428761l-0.022442 0z"
   id="path3292" />
  <path
   class="fil21"
   d="M25.6135 8.9402c0.734682,-0.140558 1.23549,-0.303558 1.43983,-0.481913l0 -5.72863 -1.43983 0 0 6.21054zm1.43983 18.1981l0 2.96235c-0.0448841,0.0744131 -0.116935,0.124022 -0.22442,0.161819 -0.216152,0.0755943 -0.635464,0.175993 -1.21541,0.283479l0 -2.97889c0.818544,-0.150007 1.32999,-0.301196 1.41739,-0.428761l0.022442 0z"
   id="path3294" />
  <path
   class="fil39"
   d="M17.4528 0.59058c2.76392,0 5.32113,0.151189 7.17791,0.395689 2.06349,0.274029 3.35568,0.768935 3.35568,1.43511l-0.0059058 0.0708696 -0.00826812 0.0566957 -0.0212609 0.0696885 0.0129928 5.65067 -0.996899 0 -0.0129928 -5.73572 0.0259855 -0.12166c-0.073232,-0.0803189 -1.01344,-0.242138 -2.47926,-0.435848 -1.80127,-0.237413 -4.31005,-0.383877 -7.04798,-0.383877 -2.70604,0 -5.14986,0.151189 -6.90743,0.393326 -1.31227,0.180718 -2.19223,0.33545 -2.40957,0.428761l0.607116 0.70279 -0.71224 0 0 0.399232 0 0.500812 -0.0637827 0 0.00354348 4.25218 -0.996899 0 -0.00354348 -4.75299 0 -0.500812 0.059058 0 0 -0.399232 0 -0.500812 0.170087 0c0.357892,-0.500812 1.51897,-0.887052 3.20921,-1.11974 1.81072,-0.249225 4.30415,-0.405138 7.04444,-0.405138z"
   id="path3296" />
  <path
   class="fil40"
   d="M13.105 1.12565l8.27403 0 -0.022442 1.47645c0.0141739,0.0153551 0.022442,0.0318913 0.022442,0.0472464 0,0.258674 -1.86269,0.46774 -4.16005,0.46774 -2.29618,0 -4.15887,-0.209065 -4.15887,-0.46774 0,-0.0165362 0.00708696,-0.0330725 0.022442,-0.0496087l0.022442 -1.47409z"
   id="path3298" />
  <ellipse
   class="fil41"
   cx="17.2596"
   cy="0.94123"
   rx="4.35824"
   ry="0.505599"
   id="ellipse3300" />
  <ellipse
   class="fil42"
   cx="17.3257"
   cy="0.853646"
   rx="4.66844"
   ry="0.967856"
   id="ellipse3302" />
  <ellipse
   class="fil43"
   cx="17.2843"
   cy="1.17949"
   rx="4.15943"
   ry="0.467689"
   id="ellipse3304" />
  <path
   class="fil44"
   d="M27.1962 17.5615c0.0059058,-0.0177174 0.00826812,0.00826812 0.00826812,0.173631 0,0.00826812 -0.00236232,0.0165362 -0.00826812,0.0259855 0,0.0200797 0,0.0401595 0,0.0602392 -0.0212609,0 -0.0437029,0 -0.066145,0 -0.00826812,0.00472464 -0.0165362,0.00944928 -0.0248044,0.0141739 0,0.0307102 0,0.0602392 0,0.088587 0,0.353167 -4.68448,1.21305 -9.82607,1.21305 -5.14277,0 -9.31227,-0.401595 -10.0009,-0.988631l0 -0.413406 0 -0.00826812 0 -0.00826812 0 -0.00826812 0 -0.00708696 0 -0.00944928 0 -0.00708696 0 -0.00944928 0 -0.00708696 0 -0.00826812 0 -0.00826812 0 -0.00826812 0 -0.00708696 0 -0.00944928 0 -0.413406c0.0271667,0.022442 0.0602392,0.0448841 0.0992175,0.0673261 0,-0.0862247 0,-0.171268 0,-0.258674 0.688617,0.587037 4.85929,0.989812 10.0009,0.989812 4.70456,0 9.02407,-0.720508 9.72686,-1.11383 -0.00118116,-0.207884 -0.0153551,0.0165362 -0.0354348,-0.0141739 0.0200797,0 0.0401595,0 0.0602392,0 0.0496087,-0.0318913 0.0744131,-0.0602392 0.0744131,-0.0850436 0,-0.353167 -0.0118116,-0.0696885 -0.0354348,-0.103942 0.0425218,0 0.0850436,0 0.127565,0l0 0.413406 0 0.00944928 0 0.00708696 0 0.00944928 0 0.0059058 0 0.0106304 0 0.0059058 0 0.0106304 0 0.0059058 0 0.00944928 0 0.00708696 0 0.00944928 0 0.0059058 0 0.0106304 0 0.413406c-0.0330725,0 -0.066145,0 -0.100399,0 0,-0.0236232 0,-0.0472464 0,-0.0696885zm0.00708696 -0.343718l0.00118116 -0.00236232c-0.00118116,-0.0696885 -0.00354348,-0.0803189 -0.00826812,-0.0673261 0,0.022442 0,0.0460653 0,0.0696885l0.00708696 0z"
   id="path3306" />
  <path
   class="fil44"
   d="M27.3309 22.1007c0.0059058,-0.0165362 0.00826812,0.00826812 0.00826812,0.164181 0,0.00708696 -0.00236232,0.0165362 -0.00826812,0.0248044 0,0.0177174 0,0.0377971 0,0.0566957 -0.022442,0 -0.0460653,0 -0.066145,0 -0.00826812,0.00354348 -0.0177174,0.00708696 -0.0259855,0.0129928 0,0.0271667 0,0.0566957 0,0.0838624 0,0.333087 -4.68448,1.14454 -9.82726,1.14454 -5.14041,0 -9.31109,-0.380334 -9.9997,-0.933117l0 -0.372066 0 -0.0118116 0 -0.00354348 0 -0.0118116 0 -0.00354348 0 -0.0118116 0 -0.00354348 0 -0.0118116 0 -0.00354348 0 -0.0118116 0 -0.00354348 0 -0.0118116 0 -0.00354348 0 -0.0118116 0 -0.00354348 0 -0.0118116 0 -0.372066c0.0271667,0.022442 0.0614203,0.0437029 0.0992175,0.0649638 0,-0.0815001 0,-0.161819 0,-0.243319 0.689798,0.551602 4.85929,0.931936 10.0009,0.931936 4.70456,0 9.02525,-0.679167 9.72686,-1.04887 -0.00236232,-0.197254 -0.0141739,0.0141739 -0.0354348,-0.0141739 0.0212609,0 0.0401595,0 0.0614203,0 0.0484276,-0.029529 0.0744131,-0.0555145 0.0744131,-0.0803189 0,-0.333087 -0.0129928,-0.066145 -0.0354348,-0.0980363 0.0413406,0 0.0838624,0 0.126384,0l0 0.372066 0 0.0118116 0 0.00354348 0 0.0118116 0 0.00354348 0 0.0129928 0 0.00236232 0 0.0129928 0 0.00236232 0 0.0129928 0 0.00236232 0 0.0129928 0 0.00236232 0 0.0129928 0 0.00236232 0 0.0129928 0 0.372066c-0.0330725,0 -0.066145,0 -0.0992175,0 0,-0.022442 0,-0.0460653 0,-0.0673261zm0.00118116 -0.304739l0.0059058 -0.0177174c-0.00118116,-0.0531522 -0.00354348,-0.0602392 -0.00708696,-0.0496087 0,0.0212609 0,0.0448841 0,0.0673261l0.00118116 0z"
   id="path3308" />
  <path
   class="fil45"
   d="M17.8213 19.0899l0 0.957921 -0.442935 0.00236232c-1.89104,0 -3.64979,-0.0543334 -5.1534,-0.15237l0 -0.966189c1.52488,0.102761 3.32024,0.159457 5.25262,0.159457l0.343718 -0.00118116zm-5.59634 4.29352c1.55323,0.10158 3.39702,0.158276 5.38609,0.158276l0.210247 0 0 0.918943 -0.309464 0.00118116c-1.94655,0 -3.75491,-0.0543334 -5.28687,-0.15237l0 -0.92603z"
   id="path3310" />
  <path
   class="fil46"
   d="M28.0065 27.2683l0.00472464 2.28555 0.00236232 0 0 0.0212609 0 0.0212609 0 0.0212609 0 0.0200797 0 0.0200797 0 0.140558 0 0.0153551 0 0.421674 0 0.499631 -0.500812 -0.00118116 -0.257493 -0.00118116 -0.129928 0.0425218 -0.0141739 0.00354348c-0.731138,0.211428 -2.30208,0.522073 -4.34195,0.739406 -1.47763,0.158276 -3.20213,0.271667 -5.03174,0.271667 -1.9749,0 -3.89783,-0.125203 -5.53256,-0.292928 -2.31862,-0.237413 -4.0691,-0.571682 -4.61361,-0.76303l-0.0248044 -0.0106304 -0.0543334 -0.022442 -0.0248044 0 -0.500812 0 0 -0.500812 0 -0.172449 -0.0059058 -0.0354348 -0.0059058 -0.0578769 -0.00472464 -0.0992175 -0.00236232 -0.0236232 0 -2.54304 1.0158 0 0.00118116 0.370884 -0.0153551 0 0 2.16861c0.54924,0.175993 2.17097,0.474827 4.33722,0.696885 1.58157,0.161819 3.4608,0.283479 5.43098,0.283479 1.81662,0 3.4986,-0.109848 4.92544,-0.262218 1.97254,-0.210247 3.46552,-0.501993 4.15768,-0.700428l0.191348 -0.0614203 0 -0.106304 0 -0.0200797 0 -0.0200797 0 -0.0212609 0 -0.0212609 0 -0.0212609 0.00236232 0 -0.00472464 -2.28555 0.996899 0z"
   id="path3312" />
 </g>
</svg>