<?xml version="1.0" encoding="UTF-8"?>
<!DOCTYPE svg PUBLIC "-//W3C//DTD SVG 1.1//EN" "http://www.w3.org/Graphics/SVG/1.1/DTD/svg11.dtd">
<!-- Creator: CorelDRAW -->
<svg xmlns="http://www.w3.org/2000/svg" xml:space="preserve" width="16px" height="16px" style="shape-rendering:geometricPrecision; text-rendering:geometricPrecision; image-rendering:optimizeQuality; fill-rule:evenodd; clip-rule:evenodd"
viewBox="0 0 16 16"
 xmlns:xlink="http://www.w3.org/1999/xlink">
 <defs>
  <style type="text/css">
   <![CDATA[
    .fil16 {fill:none}
    .fil18 {fill:#7F7F7F}
    .fil22 {fill:#999999}
    .fil26 {fill:#E5E5E5}
    .fil27 {fill:white}
    .fil2 {fill:#396DA6;fill-rule:nonzero}
    .fil28 {fill:#4C4C4C;fill-rule:nonzero}
    .fil19 {fill:#666666;fill-rule:nonzero}
    .fil25 {fill:#808385;fill-rule:nonzero}
    .fil24 {fill:#999999;fill-rule:nonzero}
    .fil3 {fill:black;fill-opacity:0.007843}
    .fil4 {fill:black;fill-opacity:0.011765}
    .fil5 {fill:black;fill-opacity:0.019608}
    .fil6 {fill:black;fill-opacity:0.023529}
    .fil7 {fill:black;fill-opacity:0.031373}
    .fil8 {fill:black;fill-opacity:0.035294}
    .fil9 {fill:black;fill-opacity:0.043137}
    .fil10 {fill:black;fill-opacity:0.050980}
    .fil11 {fill:black;fill-opacity:0.054902}
    .fil12 {fill:black;fill-opacity:0.062745}
    .fil13 {fill:black;fill-opacity:0.066667}
    .fil14 {fill:black;fill-opacity:0.074510}
    .fil15 {fill:#191919;fill-opacity:0.321569}
    .fil23 {fill:#A4A5A7;fill-opacity:0.439216}
    .fil1 {fill:#2C5480;fill-opacity:0.560784}
    .fil0 {fill:url(#id0)}
    .fil21 {fill:url(#id1)}
    .fil17 {fill:url(#id2)}
    .fil20 {fill:url(#id3)}
   ]]>
  </style>
  <linearGradient id="id0" gradientUnits="userSpaceOnUse" x1="8.05953" y1="2.11495" x2="8.05953" y2="13.4298">
   <stop offset="0" style="stop-color:#579AD6"/>
   <stop offset="1" style="stop-color:#518EC4"/>
  </linearGradient>
  <linearGradient id="id1" gradientUnits="userSpaceOnUse" x1="8.25767" y1="5.18432" x2="8.25767" y2="10.5555">
   <stop offset="0" style="stop-color:#7F7F7F"/>
   <stop offset="1" style="stop-color:white"/>
  </linearGradient>
  <linearGradient id="id2" gradientUnits="userSpaceOnUse" x1="8.03373" y1="4.9258" x2="8.16696" y2="9.18999">
   <stop offset="0" style="stop-color:#919191"/>
   <stop offset="1" style="stop-color:#CDCDCD"/>
  </linearGradient>
  <linearGradient id="id3" gradientUnits="userSpaceOnUse" x1="9.47176" y1="6.00156" x2="9.57381" y2="12.3393">
   <stop offset="0" style="stop-color:#E3E3E3"/>
   <stop offset="1" style="stop-color:#A8A8A8"/>
  </linearGradient>
 </defs>
 <g id="Слой_x0020_1">
  <metadata id="CorelCorpID_0Corel-Layer"/>
  <polygon class="fil0" points="14.4971,0.643753 1.622,0.519311 1.622,14.8324 14.3956,15.0257 "/>
  <polygon class="fil1" points="15.0053,1.17837 1.21324,1.1299 1.21324,3.47105 3.35511,3.47105 3.35511,2.97498 12.97,2.97498 12.97,3.38573 15.0053,3.38573 "/>
  <polygon class="fil2" points="1.02388,1.243 1.02388,13.0616 2.01006,13.0616 2.01006,1.243 "/>
  <polygon class="fil2" points="14.0189,1.243 14.0189,13.0616 15.005,13.0616 15.005,1.243 "/>
  <g id="_60200600">
   <path id="_60132856" class="fil3" d="M7.80497 13.7099c7.37609,-0.284317 8.26192,0.839629 8.2931,1.74644 0.0306144,0.89207 -3.5799,0.387499 -8.01531,0.541138 -4.43541,0.153356 -7.95181,0.258522 -7.95181,-0.403373 0,-0.676635 0.297924,-1.59989 7.67401,-1.8842z"/>
   <path id="_60131288" class="fil4" d="M7.82198 13.8286c7.06002,-0.260506 8.22734,0.799376 8.25569,1.64949 0.0283467,0.82092 -3.60201,0.359719 -7.98809,0.500602 -4.38608,0.1406 -7.92998,0.235561 -7.92998,-0.374176 0,-0.638934 0.602083,-1.51541 7.66239,-1.77592z"/>
   <path id="_60130112" class="fil5" d="M7.83899 13.9471c6.74424,-0.236695 8.19276,0.759691 8.21855,1.55283 0.0257955,0.749486 -3.62412,0.33194 -7.96117,0.459783 -4.33704,0.128127 -7.90816,0.2126 -7.90816,-0.344696 0,-0.601233 0.906243,-1.43094 7.65077,-1.66792z"/>
   <path id="_60128144" class="fil6" d="M7.85572 14.0659c6.42846,-0.213167 8.15846,0.719439 8.18142,1.45589 0.0232443,0.678053 -3.64623,0.30416 -7.93367,0.419247 -4.288,0.115088 -7.88661,0.189639 -7.88661,-0.315499 0,-0.563532 1.2104,-1.34647 7.63886,-1.55963z"/>
   <path id="_60035656" class="fil7" d="M7.87272 14.1844c6.11239,-0.189356 8.12359,0.679753 8.14428,1.35894 0.0206931,0.606902 -3.66834,0.27638 -7.90702,0.378712 -4.23868,0.102332 -7.8645,0.166678 -7.8645,-0.286018 0,-0.526114 1.51456,-1.26199 7.62724,-1.45163z"/>
   <path id="_50128528" class="fil8" d="M7.88945 14.3029c5.79661,-0.165545 8.08929,0.639785 8.10743,1.26228 0.0178584,0.535469 -3.69074,0.2486 -7.88009,0.338176 -4.18936,0.089292 -7.84296,0.143434 -7.84296,-0.256821 0,-0.488413 1.81872,-1.17752 7.61562,-1.34363z"/>
   <path id="_60116088" class="fil9" d="M7.90674 14.4217c5.48083,-0.142017 8.05471,0.599532 8.07002,1.16505 0.0155907,0.464602 -3.71256,0.221104 -7.85288,0.29764 -4.14032,0.0768195 -7.82113,0.120473 -7.82113,-0.227624 0,-0.450145 2.12288,-1.09305 7.604,-1.23506z"/>
   <path id="_28622016" class="fil10" d="M7.92318 14.5401c5.16505,-0.118489 8.02041,0.559847 8.03345,1.06839 0.012756,0.393168 -3.73496,0.193041 -7.82595,0.257104 -4.09128,0.06378 -7.79959,0.0972291 -7.79959,-0.198427 0,-0.412728 2.42733,-1.00857 7.59209,-1.12706z"/>
   <path id="_60129328" class="fil11" d="M7.94019 14.6589c4.84927,-0.0946779 7.98583,0.519595 7.99603,0.971441 0.0104883,0.321735 -3.75679,0.165261 -7.79874,0.216285 -4.04195,0.051024 -7.77776,0.0745518 -7.77776,-0.168946 0,-0.375027 2.7312,-0.924102 7.58047,-1.01878z"/>
   <path id="_60109928" class="fil12" d="M7.9572 14.7774c4.5332,-0.0711502 7.95124,0.479909 7.9589,0.874779 0.00793707,0.250301 -3.7789,0.137481 -7.77153,0.175749 -3.99291,0.038268 -7.75622,0.0513075 -7.75622,-0.139749 0,-0.337325 3.03565,-0.839629 7.56885,-0.910779z"/>
   <path id="_60233312" class="fil13" d="M7.9742 14.8962c4.21742,-0.0476224 7.91666,0.439657 7.92176,0.777549 0.00538587,0.179151 -3.80129,0.109702 -7.7446,0.135214 -3.94387,0.025512 -7.73439,0.0283467 -7.73439,-0.110269 0,-0.299624 3.33981,-0.755156 7.55722,-0.802495z"/>
   <path id="_60198248" class="fil14" d="M7.99093 15.0147c3.90164,-0.0235277 7.88236,0.399972 7.88491,0.681171 0.0025512,0.107717 -3.8234,0.0816384 -7.71795,0.0943944 -3.89427,0.012756 -7.71228,0.00538587 -7.71228,-0.0810715 0,-0.261923 3.64397,-0.670682 7.54532,-0.694494z"/>
  </g>
  <path class="fil15" d="M9.73453 5.44653c0.109985,0.0161576 0.218553,0.0368507 0.32542,0.0623627l0.506839 -0.739281 0.716321 0.285168 -0.135781 0.889235c0.123875,0.0725675 0.243498,0.151371 0.358302,0.236411l0.76366 -0.476508 0.545107 0.545107 -0.480476 0.760541c0.0606619,0.0816384 0.117922,0.165545 0.171781,0.251719l0.883566 -0.17008 0.308979 0.706399 -0.723407 0.538303c0.0385515,0.144568 0.0694494,0.292254 0.0918432,0.442492l0.876479 0.202962 0 0.77103 -0.877046 0.19786c-0.0238112,0.160726 -0.0572603,0.31805 -0.100064,0.471689l0.72284 0.53887 -0.313231 0.704698 -0.888101 -0.171781c-0.0493232,0.0768195 -0.101198,0.151938 -0.15534,0.225073l0.482177 0.76366 -0.545107 0.545107 -0.767628 -0.479059c-0.100347,0.0739848 -0.204096,0.143434 -0.311247,0.208065l0.153356 0.889519 -0.712352 0.295089 -0.524981 -0.735029c-0.121891,0.0300475 -0.245766,0.0547091 -0.371908,0.0734179l-0.202679 0.876763 -0.77103 0 -0.198143 -0.877046c-0.104883,-0.0155907 -0.208348,-0.0354333 -0.310396,-0.0589611l-0.513925 0.741266 -0.716321 -0.285168 0.140316 -0.888385c-0.126426,-0.0737014 -0.2486,-0.154206 -0.365672,-0.240947l-0.760825 0.480476 -0.545107 -0.545107 0.476508 -0.763943c-0.0583942,-0.0790872 -0.114237,-0.160442 -0.166962,-0.244065l-0.8847 0.165545 -0.308979 -0.706399 0.72199 -0.531217c-0.0402523,-0.147403 -0.0720006,-0.298491 -0.0946779,-0.45213l-0.87733 -0.19786 0 -0.77103 0.876763 -0.202962c0.0235277,-0.159592 0.0566934,-0.315782 0.0989299,-0.468287l-0.716321 -0.539721 0.313514 -0.704415 0.877897 0.174616c0.0498902,-0.0788038 0.102898,-0.155623 0.158174,-0.230459l-0.474807 -0.761108 0.545107 -0.545107 0.756856 0.477925c0.101765,-0.0756856 0.207214,-0.146269 0.316349,-0.212033l-0.147686 -0.8847 0.712352 -0.295089 0.51591 0.730777c0.122174,-0.0306144 0.246616,-0.055276 0.373042,-0.0739848l0.198143 -0.877046 0.77103 0 0.202679 0.876763zm-0.842747 2.29325c0.413011,0 1.74077,1.27021 1.74077,1.68294 0,0.412728 -0.940826,1.68294 -1.35355,1.68294 -0.412728,0 -1.6013,-1.38955 -1.6013,-1.80228 0,-0.412728 0.801361,-1.5636 1.21409,-1.5636z"/>
  <path class="fil16" d="M8.76082 12.3458c0.00481894,-0.111686 -0.0632131,-0.161576 -0.181702,-0.16356 -1.29941,-0.114521 -2.48459,-0.540288 -3.42655,-1.17809 -1.18121,-0.800227 -1.99277,-1.93835 -2.20906,-3.24059 -0.0201261,-0.125009 -0.060095,-0.24775 -0.0827723,-0.372759 -0.0102048,-0.0606619 -0.0549926,-0.100914 -0.133513,-0.120473 -0.133229,0 -0.266459,0 -0.399688,0 -0.0575438,0.0308979 -0.0980795,0.0666147 -0.100914,0.111686"/>
  <path class="fil17" d="M8.10035 3.92233c1.73142,0 3.13571,1.40429 3.13571,3.13571 0,1.73142 -1.40429,3.13543 -3.13571,3.13543 -1.73142,0 -3.13571,-1.40401 -3.13571,-3.13543 0,-1.73142 1.40429,-3.13571 3.13571,-3.13571zm0 2.0591c0.59443,0 1.07632,0.482177 1.07632,1.07661 0,0.59443 -0.481894,1.07632 -1.07632,1.07632 -0.59443,0 -1.07661,-0.481894 -1.07661,-1.07632 0,-0.59443 0.482177,-1.07661 1.07661,-1.07661z"/>
  <ellipse class="fil18" cx="8.04976" cy="7.0873" rx="3.55723" ry="3.55719"/>
  <path class="fil19" d="M6.00836 2.58522l0.323719 -1.08738 0.205797 -0.690809 0.727659 -0.0201261 1.55453 -0.04252 0.771597 -0.0209765 0.212884 0.743533 0.312664 1.09276 0.98448 -0.569201 0.669832 -0.387216 0.541138 0.551343 1.08908 1.11006 0.506839 0.517043 -0.331089 0.639218 -0.521012 1.00574 0.00481894 0.0104883 0.0107717 0.0232443 1.09276 0.291404 0.749486 0.200128 -0.00737014 0.77273 -0.0150237 1.55567 -0.00708667 0.726809 -0.688257 0.218553 -0.96889 0.307278 -0.0249451 0.0668982 -0.0391184 0.100347 0.469704 0.868826 0.341011 0.630714 -0.497201 0.525831 -1.06895 1.12962 -0.532067 0.562115 -0.675218 -0.374743 -0.799376 -0.443626 -0.115371 0.051591 -0.119906 0.0496067 -0.253136 0.948763 -0.199277 0.745518 -0.773581 -0.00737014 -1.5551 -0.0150237 -0.726809 -0.00708667 -0.218553 -0.688257 -0.311247 -0.980512 -0.0989299 -0.0411027 -0.0785203 -0.0342995 -0.911346 0.493232 -0.633265 0.342711 -0.527248 -0.498902 -1.12905 -1.06895 -0.55928 -0.529799 0.375877 -0.677486 0.558997 -1.00801 -0.00453547 -0.0113387 -1.10354 -0.328538 -0.690809 -0.205797 -0.0201261 -0.727659 -0.04252 -1.55453 -0.0209765 -0.771313 0.743533 -0.213167 1.12054 -0.320884 -0.597548 -1.03267 -0.387216 -0.669549 0.551343 -0.541422 1.11006 -1.08965 0.517043 -0.507122 0.639218 0.331373 1.0681 0.553894zm2.03189 0.174049l-0.305577 1.02643 -0.14882 0.500886 -0.499469 0.163277c-0.0986464,0.0323152 -0.182553,0.0629296 -0.248884,0.0907094l-0.00368507 0.00368507c-0.0875912,0.0365672 -0.170364,0.0754022 -0.246333,0.114521l-0.457799 0.236695 -0.456098 -0.236695 -1.00772 -0.522429 -0.0416696 0.0408192 0.521862 0.901991 0.280632 0.485012 -0.26901 0.491531c-0.0408192,0.0748352 -0.0873078,0.172064 -0.137198,0.288569 -0.0481894,0.111969 -0.0864574,0.21175 -0.113954,0.29679l-0.164411 0.509957 -0.511374 0.146269 -0.953299 0.272979 0.0017008 0.055276 0.908511 0.270427 0.528382 0.157041 0.147403 0.538303c0.0272128,0.0997803 0.0663312,0.213451 0.115088,0.338176 0.0453547,0.116221 0.0960952,0.227057 0.14967,0.330806l0.244632 0.472256 -0.260223 0.469138 -0.427751 0.77103 0.0428035 0.0405358 0.736163 -0.398554 0.493232 -0.267026 0.483594 0.282616c0.12841,0.0748352 0.252852,0.138332 0.370208,0.188505 0.140883,0.0603784 0.272695,0.108284 0.393452,0.143151l0.519311 0.14967 0.160442 0.506555 0.243781 0.768762 0.0544256 0.000566934 0.191624 -0.717738 0.146269 -0.548508 0.553044 -0.154489c0.132946,-0.0371342 0.274963,-0.0884416 0.423783,-0.152505 0.150237,-0.0646304 0.285451,-0.133229 0.404224,-0.20438l0.492382 -0.295372 0.503721 0.279782 0.597265 0.331373 0.0394019 -0.0419531 -0.364255 -0.673801 -0.252002 -0.465736 0.248033 -0.471972c0.064347,-0.122458 0.121324,-0.248317 0.169513,-0.37531 0.0490398,-0.128977 0.0904259,-0.261923 0.123592,-0.397137l0.133796 -0.54539 0.534335 -0.169513 0.779817 -0.247467 0.000566934 -0.0555595 -0.831125 -0.221671 -0.520729 -0.138615 -0.170647 -0.513925c-0.0368507,-0.110836 -0.0827723,-0.225923 -0.136064,-0.342144 -0.0498902,-0.108851 -0.107717,-0.217986 -0.172064,-0.325703l-0.286018 -0.477075 0.254837 -0.491531 0.427184 -0.824605 -0.0408192 -0.0416696 -0.844731 0.488413 -0.459216 0.265608 -0.478492 -0.234427c-0.072851,-0.0357168 -0.17008,-0.0768195 -0.289703,-0.122174 -0.110836,-0.0422366 -0.209765,-0.0756856 -0.294805,-0.0992134l-0.541705 -0.150237 -0.153639 -0.53717 -0.274112 -0.958118 -0.055276 0.0017008z"/>
  <path class="fil20" d="M6.77769 3.50053l0.511091 -1.71753 1.55453 -0.04252 0.487279 1.70165c0.262774,0.0731344 0.51591,0.169797 0.756573,0.288002l1.51428 -0.876196 1.08936 1.11006 -0.758557 1.46411c0.162426,0.271561 0.296506,0.561831 0.397987,0.867408l1.58033 0.421799 -0.0144568 1.5551 -1.46807 0.466019c-0.0864574,0.351215 -0.214584,0.686273 -0.379562,0.998937l0.706116 1.30451 -1.06924 1.12962 -1.27248 -0.706116c-0.332223,0.198994 -0.692509,0.355751 -1.07406,0.462334l-0.390617 1.46297 -1.5551 -0.0144568 -0.462334 -1.4573c-0.351499,-0.101198 -0.684572,-0.244915 -0.994118,-0.4252l-1.36943 0.741549 -1.12933 -1.06924 0.803912 -1.44908c-0.142017,-0.272412 -0.256254,-0.561548 -0.339026,-0.864007l-1.59989 -0.476224 -0.04252 -1.55482 1.69683 -0.485579c0.08504,-0.264191 0.194175,-0.517327 0.325136,-0.75714l-0.909078 -1.57154 1.11006 -1.08936 1.64723 0.853802c0.206647,-0.106867 0.422932,-0.198143 0.647155,-0.271561z"/>
  <circle class="fil21" cx="8.25766" cy="7.86989" r="3.53384"/>
  <circle class="fil22" cx="8.25777" cy="7.86989" r="2.13442"/>
  <path class="fil23" d="M15.3857 0.812699c-0.138899,-0.0853235 -0.462901,-0.376444 -0.639218,-0.350081l-0.00708667 0.33194 0.860038 0.567784 -0.213734 -0.549642z"/>
  <path class="fil24" d="M1.17695 0.0612288l13.7311 0c0.359719,0 0.67295,0.110269 0.908795,0.271278 0.229041,0.156474 0.390334,0.370491 0.436539,0.564949l0.0793707 0.334207 -0.573453 -0.000283467 -15.3443 -0.00283467 -0.57317 0 0.0790872 -0.333924c0.0453547,-0.191624 0.176316,-0.405074 0.38183,-0.561264 0.213734,-0.162143 0.505421,-0.272128 0.874212,-0.272128z"/>
  <path class="fil25" d="M1.17695 14.9971l13.7311 0c0.359719,0 0.67295,-0.187088 0.908795,-0.459783 0.229041,-0.265325 0.390334,-0.627879 0.436539,-0.957551l0.0793707 -0.56665 -0.573453 0.000283467 -15.3443 0.00481894 -0.57317 0 0.0790872 0.566367c0.0453547,0.324853 0.176316,0.686273 0.38183,0.951031 0.213734,0.275246 0.505421,0.461484 0.874212,0.461484z"/>
  <rect class="fil26" x="0.96974" y="13.0636" width="13.0454" height="0.839629"/>
  <ellipse class="fil27" cx="8.2655" cy="7.25498" rx="1.71391" ry="1.33034"/>
  <polygon class="fil28" points="9.95422,7.06144 7.46226,9.50096 6.65495,8.67975 9.14691,6.24024 "/>
 </g>
</svg>
