<?xml version="1.0" encoding="UTF-8"?>
<!DOCTYPE svg PUBLIC "-//W3C//DTD SVG 1.1//EN" "http://www.w3.org/Graphics/SVG/1.1/DTD/svg11.dtd">
<!-- Creator: CorelDRAW -->
<svg xmlns="http://www.w3.org/2000/svg" xml:space="preserve" width="72px" height="72px" style="shape-rendering:geometricPrecision; text-rendering:geometricPrecision; image-rendering:optimizeQuality; fill-rule:evenodd; clip-rule:evenodd"
viewBox="0 0 72 72"
 xmlns:xlink="http://www.w3.org/1999/xlink">
 <defs>
  <style type="text/css">
   <![CDATA[
    .fil11 {fill:white;fill-rule:nonzero}
    .fil0 {fill:black;fill-opacity:0.000000}
    .fil13 {fill:#B1B5B8;fill-opacity:0.000000}
    .fil1 {fill:black;fill-opacity:0.011765}
    .fil2 {fill:black;fill-opacity:0.027451}
    .fil3 {fill:black;fill-opacity:0.039216}
    .fil4 {fill:black;fill-opacity:0.054902}
    .fil14 {fill:#B1B5B8;fill-opacity:0.054902}
    .fil5 {fill:black;fill-opacity:0.066667}
    .fil6 {fill:black;fill-opacity:0.078431}
    .fil7 {fill:black;fill-opacity:0.094118}
    .fil8 {fill:black;fill-opacity:0.105882}
    .fil15 {fill:#B1B5B8;fill-opacity:0.109804}
    .fil9 {fill:black;fill-opacity:0.121569}
    .fil16 {fill:#B1B5B8;fill-opacity:0.164706}
    .fil17 {fill:#B1B5B8;fill-opacity:0.223529}
    .fil18 {fill:#B1B5B8;fill-opacity:0.278431}
    .fil19 {fill:#B1B5B8;fill-opacity:0.333333}
    .fil20 {fill:#B1B5B8;fill-opacity:0.388235}
    .fil21 {fill:#B1B5B8;fill-opacity:0.443137}
    .fil22 {fill:#B1B5B8;fill-opacity:0.501961}
    .fil25 {fill:#B0E2FC;fill-opacity:0.839216}
    .fil12 {fill:url(#id0)}
    .fil24 {fill:url(#id1)}
    .fil10 {fill:url(#id2)}
    .fil23 {fill:url(#id3);fill-rule:nonzero}
    .fil27 {fill:url(#id4);fill-rule:nonzero}
    .fil26 {fill:url(#id5);fill-rule:nonzero;fill-opacity:0.580392}
   ]]>
  </style>
  <linearGradient id="id0" gradientUnits="userSpaceOnUse" x1="36.5197" y1="24.0354" x2="36.5197" y2="68.4248">
   <stop offset="0" style="stop-color:#5589C4"/>
   <stop offset="0.0705882" style="stop-color:#5094D4"/>
   <stop offset="0.258824" style="stop-color:#5FA2D9"/>
   <stop offset="0.701961" style="stop-color:#93CCFA"/>
   <stop offset="0.909804" style="stop-color:#95CEFD"/>
   <stop offset="1" style="stop-color:#528CC7"/>
  </linearGradient>
  <linearGradient id="id1" gradientUnits="userSpaceOnUse" x1="36.1724" y1="24.678" x2="35.7791" y2="68.9161">
   <stop offset="0" style="stop-color:#5589C4"/>
   <stop offset="0.0705882" style="stop-color:#5795C9"/>
   <stop offset="0.258824" style="stop-color:#649FCF"/>
   <stop offset="0.929412" style="stop-color:#9FCFF5"/>
   <stop offset="1" style="stop-color:#649DCF"/>
  </linearGradient>
  <linearGradient id="id2" gradientUnits="userSpaceOnUse" x1="29.7283" y1="34.7173" x2="43.3122" y2="47.5252">
   <stop offset="0" style="stop-color:#E8E8E8"/>
   <stop offset="1" style="stop-color:#D6D6D6"/>
  </linearGradient>
  <linearGradient id="id3" gradientUnits="userSpaceOnUse" x1="36.5209" y1="24.3756" x2="36.5209" y2="12.9638">
   <stop offset="0" style="stop-color:#A2A2A2"/>
   <stop offset="1" style="stop-color:#B3B3B3"/>
  </linearGradient>
  <linearGradient id="id4" gradientUnits="userSpaceOnUse" x1="36.6083" y1="29.3858" x2="35.4579" y2="64.2213">
   <stop offset="0" style="stop-color:#4E87B4"/>
   <stop offset="0.721569" style="stop-color:#4F82AB"/>
   <stop offset="1" style="stop-color:#517EA3"/>
  </linearGradient>
  <linearGradient id="id5" gradientUnits="userSpaceOnUse" x1="14.3953" y1="68.6504" x2="14.3669" y2="67.1504">
   <stop offset="0" style="stop-color:#A8D8FF"/>
   <stop offset="1" style="stop-color:#71ACE1"/>
  </linearGradient>
 </defs>
 <g id="Слой_x0020_1">
  <metadata id="CorelCorpID_0Corel-Layer"/>
  <g id="_73923696">
   <path id="_48049312" class="fil0" d="M33.9791 61.7374c14.2134,0 31.4398,3.95551 37.0583,6.77835 1.29449,0.650787 0.772441,2.86181 0.772441,3.10866 0,0.011811 -0.0637795,0.0224409 -0.168898,0.034252l-71.1898 0c-0.243307,-0.0153543 -0.380315,-0.0318898 -0.380315,-0.0484252 0.0838583,0.177165 -0.58937,-1.3311 0.726378,-2.16732 5.01024,-3.1878 19.6524,-7.70551 33.1819,-7.70551z"/>
   <g>
    <path id="_73788336" class="fil1" d="M34.1516 62.3457c13.9252,0 30.9047,3.58346 36.4665,6.22559 1.31811,0.616535 0.832677,2.68346 0.832677,2.9374 0,0.057874 -1.32283,0.108661 -3.59528,0.15l-63.1122 0c-2.54646,-0.0413386 -4.04409,-0.092126 -4.04409,-0.15 0,-0.302362 -0.733465,-1.29567 0.79252,-2.1 5.13898,-2.73189 19.3795,-7.06299 32.6598,-7.06299z"/>
    <path id="_71813048" class="fil2" d="M34.3217 62.9528c13.6382,0 30.0319,3.22677 35.5346,5.68937 1.33937,0.583465 0.894094,2.5063 0.894094,2.76496 0,0.11811 -5.26181,0.200787 -12.8811,0.251575l-42.4594 0c-8.24291,-0.0519685 -14.0469,-0.135827 -14.0469,-0.251575 0,-0.304724 -0.721654,-1.27913 0.823228,-2.0315 5.12244,-2.53583 19.1055,-6.42283 32.1354,-6.42283z"/>
    <path id="_49680816" class="fil3" d="M34.4917 63.5622c13.3524,0 29.1579,2.87008 34.6039,5.15079 1.36063,0.550394 0.954331,2.32913 0.954331,2.59252 0,0.429921 -68.0244,0.400394 -68.0244,0 0,-0.308268 -0.708661,-1.2626 0.853937,-1.96299 5.10709,-2.33976 18.8327,-5.78031 31.6122,-5.78031z"/>
    <path id="_49574040" class="fil4" d="M34.663 64.1705c13.0654,0 28.2839,2.51339 33.672,4.61339 1.38189,0.517323 1.01575,2.15197 1.01575,2.42126 0,0.429921 -66.6602,0.400394 -66.6602,0 0,-0.311811 -0.69685,-1.24724 0.883465,-1.89567 5.09173,-2.1437 18.5587,-5.13898 31.089,-5.13898z"/>
    <path id="_71799488" class="fil5" d="M34.8307 64.7776c12.7795,0 27.4122,2.15669 32.7413,4.07717 1.40433,0.48189 1.07717,1.97244 1.07717,2.24764 0,0.42874 -65.2972,0.400394 -65.2972,0 0,-0.315354 -0.683858,-1.23189 0.915354,-1.82835 5.07402,-1.94764 18.2835,-4.49646 30.5634,-4.49646z"/>
    <path id="_48625264" class="fil6" d="M35.0008 65.3858c12.4925,0 26.5382,1.80118 31.8094,3.53976 1.42559,0.448819 1.13858,1.79528 1.13858,2.07638 0,0.42874 -63.9331,0.400394 -63.9331,0 0,-0.318898 -0.670866,-1.21535 0.944882,-1.75984 5.05984,-1.75276 18.0106,-3.8563 30.0402,-3.8563z"/>
    <path id="_49794616" class="fil7" d="M35.1709 65.9941c12.2067,0 25.6642,1.44449 30.8776,3.00236 1.44803,0.415748 1.2,1.61811 1.2,1.90394 0,0.429921 -62.5689,0.400394 -62.5689,0 0,-0.322441 -0.659055,-1.2 0.974409,-1.69134 5.04449,-1.55669 17.7378,-3.21496 29.5169,-3.21496z"/>
    <path id="_71912640" class="fil8" d="M35.3409 66.6012c11.9185,0 24.7913,1.08898 29.9469,2.46614 1.46929,0.382677 1.26024,1.43976 1.26024,1.7315 0,0.429921 -61.2059,0.400394 -61.2059,0 0,-0.324803 -0.646063,-1.18346 1.0063,-1.62402 5.02795,-1.35945 17.4638,-2.57362 28.9925,-2.57362z"/>
   </g>
   <path id="_71327656" class="fil9" d="M35.511 67.2106c11.6327,0 23.9173,0.732283 29.015,1.92756 1.49173,0.349606 1.32165,1.2626 1.32165,1.56024 0,0.429921 -59.8429,0.400394 -59.8429,0 0,-0.329528 -0.633071,-1.16811 1.03583,-1.55551 5.01378,-1.16457 17.1909,-1.93228 28.4705,-1.93228z"/>
  </g>
  <path class="fil10" d="M66.8161 18.4157c1.06299,0.264567 1.85433,1.23543 1.85433,2.37756l0 45.6354c0,1.34646 -1.10197,2.44961 -2.44843,2.44961l-6.03661 0 -32.4378 0 -7.15394 0 -7.73858 0 -6.03661 0 -0.148819 0 0 -0.00472441c-1.27795,-0.0779528 -2.29961,-1.14803 -2.29961,-2.44488l0 -45.6343c0,-1.34764 1.10197,-2.45669 2.44843,-2.44961l3.1252 0.0200787c1.1315,-0.255118 2.1189,-0.946063 2.9622,-2.77323 0.500787,-1.08543 0.93189,-2.02913 1.96535,-2.22756l18.9614 0c1.03346,0.198425 1.46457,1.14213 1.96535,2.22756 1.02047,2.21102 2.21102,2.72126 3.62717,2.82047l0 0.00354331 0.0555118 0c0.61063,0.0389764 1.2626,0.00354331 1.96063,0l0.229134 0 25.1457 0z"/>
  <path class="fil11" d="M66.8787 18.9626c0.646063,0.16063 1.21181,0.538583 1.60984,1.04882 0.390945,0.501969 0.627165,1.13504 0.627165,1.81417l0 3.48189 -1.00157 0 0 -3.48189c0,-0.451181 -0.155906,-0.870472 -0.412205,-1.2 -0.250394,-0.32126 -0.601181,-0.564567 -0.999213,-0.677953l-25.089 0 -0.229134 0 0 -0.0023622 -0.622441 0.00944882 -0.0023622 0c-0.465354,0.00826772 -0.914173,0.0165354 -1.33465,-0.00826772l0 0.0011811 -0.0566929 0 -0.500787 0 0 -0.0543307c-0.614173,-0.0885827 -1.19291,-0.277559 -1.74449,-0.659055 -0.673228,-0.464173 -1.26969,-1.11024 -1.82008,-2.30315l-0.00708661 -0.0165354 -0.0023622 -0.00354331c-0.429921,-0.929528 -0.805512,-1.74094 -1.54488,-1.91457l-18.8764 0c-0.742913,0.173622 -1.12205,0.993307 -1.55315,1.92992l-0.0023622 0.00472441c-0.451181,0.977953 -0.967323,1.56378 -1.51181,2.04213l0.0011811 0.0011811c-0.561024,0.493701 -1.16575,0.762992 -1.80945,0.909449l-0.112205 0.011811 -3.12283 -0.0200787 0 0.0023622 -0.0165354 0c-0.529134,0 -1.01102,0.218504 -1.35945,0.566929 -0.349606,0.350787 -0.569291,0.83622 -0.574016,1.36299l0.0023622 0 0 0.0177165 0 3.48189 -1.00157 0 0 -3.48189 0 -0.0177165 0.0023622 -0.0023622c0.00472441,-0.80315 0.337795,-1.53661 0.864567,-2.06457 0.531496,-0.532677 1.2626,-0.864567 2.06575,-0.864567l0.0165354 0 0.0023622 0.0023622 3.06378 0.0200787c0.466535,-0.113386 0.909449,-0.316535 1.31693,-0.675591l0.0165354 0.100394c0.441732,-0.387402 0.858661,-0.964961 1.24843,-1.81063l0.0023622 -0.00472441c0.553937,-1.20354 1.03819,-2.25591 2.32323,-2.50276l0.0933071 -0.0106299 18.9626 0 0.0933071 0.0106299c1.27795,0.244488 1.7622,1.28858 2.31614,2.4874l0.00708661 0.0165354 0.0023622 0.00354331c0.468898,1.01693 0.950787,1.53661 1.47992,1.90157 0.512598,0.354331 1.08543,0.486614 1.71142,0.530315l0.0165354 0.0011811 0.00708661 0 0.0295276 0.0023622c0.412205,0.0248031 0.843307,0.0165354 1.29094,0.00944882l0.0023622 0 0.630709 -0.00944882 0.00590551 -0.0023622 0.229134 0 25.1457 0 0.119291 0.0165354z"/>
  <path class="fil12" d="M68.6705 23.5854l0 42.8433c0,1.34646 -1.10197,2.44961 -2.44843,2.44961l-6.03661 0 -32.4378 0 -7.15394 0 -7.73858 0 -6.03661 0 -0.148819 0 0 -0.00472441c-1.27795,-0.0779528 -2.29961,-1.14803 -2.29961,-2.44488l0 -42.8457 64.3004 0.0023622z"/>
  <g id="_71635032">
   <path id="_74223600" class="fil13" d="M4.37835 20.5843l64.2827 0c0.00590551,0.069685 0.00944882,0.13937 0.00944882,0.209055l0 2.79213 -64.3004 -0.0023622 0 -2.78858c0,-0.0708661 0.0023622,-0.140551 0.00826772,-0.210236z"/>
   <g>
    <polygon id="_73196672" class="fil14" points="4.37008,20.8429 68.6705,20.8429 68.6705,23.5854 4.37008,23.5831 "/>
    <polygon id="_48887856" class="fil15" points="4.37008,21.1004 68.6705,21.1004 68.6705,23.5854 4.37008,23.5831 "/>
    <polygon id="_74223496" class="fil16" points="4.37008,21.3579 68.6705,21.3579 68.6705,23.5854 4.37008,23.5831 "/>
    <polygon id="_49759600" class="fil17" points="4.37008,21.6165 68.6705,21.6165 68.6705,23.5854 4.37008,23.5831 "/>
    <polygon id="_71915560" class="fil18" points="4.37008,21.874 68.6705,21.874 68.6705,23.5854 4.37008,23.5831 "/>
    <polygon id="_73592816" class="fil19" points="4.37008,22.1327 68.6705,22.1327 68.6705,23.5854 4.37008,23.5831 "/>
    <polygon id="_45702088" class="fil20" points="4.37008,22.3902 68.6705,22.3902 68.6705,23.5854 4.37008,23.5831 "/>
    <polygon id="_49045840" class="fil21" points="4.37008,22.6476 68.6705,22.6476 68.6705,23.5854 4.37008,23.5831 "/>
   </g>
   <polygon id="_73592136" class="fil22" points="4.37008,22.9063 68.6705,22.9063 68.6705,23.5854 4.37008,23.5831 "/>
  </g>
  <path class="fil23" d="M66.9354 18.0319c0.646063,0.16063 1.21181,0.538583 1.60984,1.04882 0.390945,0.501969 0.627165,1.13504 0.627165,1.81417l0 3.48189 -1.00157 0 0 -3.48189c0,-0.451181 -0.155906,-0.870472 -0.412205,-1.2 -0.250394,-0.32126 -0.601181,-0.564567 -0.999213,-0.677953l-25.089 0 -0.229134 0 0 -0.0023622 -0.622441 0.00944882 -0.0023622 0c-0.465354,0.00826772 -0.914173,0.0165354 -1.33465,-0.00826772l0 0.0011811 -0.0566929 0 -0.500787 0 0 -0.0543307c-0.614173,-0.0885827 -1.19291,-0.277559 -1.74449,-0.659055 -0.673228,-0.464173 -1.26969,-1.21063 -1.82008,-2.40354l-0.00708661 0.0838583 -0.0023622 -0.103937c-0.429921,-0.929528 -0.805512,-1.74094 -1.54488,-1.91457l-18.8764 0c-0.742913,0.173622 -1.12205,0.993307 -1.55315,1.92992l-0.0023622 0.105118c-0.451181,0.977953 -0.967323,1.56378 -1.51181,2.04213l0.0011811 0.0011811c-0.561024,0.493701 -1.16575,0.762992 -1.80945,0.909449l-0.112205 0.011811 -3.12283 -0.0200787 0 0.0023622 -0.0165354 0c-0.529134,0 -1.01102,0.218504 -1.35945,0.566929 -0.349606,0.350787 -0.569291,0.83622 -0.574016,1.36299l0.0023622 0 0 0.0177165 0 3.48189 -1.00157 0 0 -3.48189 0 -0.0177165 0.0023622 -0.0023622c0.00472441,-0.80315 0.337795,-1.53661 0.864567,-2.06457 0.531496,-0.532677 1.2626,-0.864567 2.06575,-0.864567l0.0165354 0 0.0023622 0.0023622 3.06378 0.0200787c0.466535,-0.113386 0.909449,-0.416929 1.31693,-0.775984l0.0165354 0.200787c0.441732,-0.387402 0.858661,-0.964961 1.24843,-1.81063l0.0023622 -0.105118c0.553937,-1.20354 1.03819,-2.25591 2.32323,-2.50276l0.0933071 -0.0106299 18.9626 0 0.0933071 0.0106299c1.27795,0.244488 1.7622,1.28858 2.31614,2.4874l0.00708661 0.116929 0.0023622 -0.0968504c0.468898,1.01693 0.950787,1.53661 1.47992,1.90157 0.512598,0.354331 1.08543,0.587008 1.71142,0.630709l0.0165354 0.0011811 0.00708661 0 0.0295276 0.0023622c0.412205,0.0248031 0.843307,0.0165354 1.29094,0.00944882l0.0023622 0 0.630709 -0.00944882 0.00590551 -0.0023622 0.229134 0 25.1457 0 0.119291 0.0165354z"/>
  <path class="fil24" d="M3.29646 23.5831c-1.17283,0.283465 -3.12756,1.17874 -2.79331,3.9685 0.473622,3.9437 2.16378,18.6555 2.16378,21.9685 0,3.30945 0.0448819,15.7559 0.0448819,15.7559 0,0 -0.315354,4.73268 5.20512,4.41732 4.13386,-0.23622 16.3654,-0.204331 22.1787,-0.174803l0 0.0200787 1.87795 -0.00944882 0.0259843 0 1.28858 0.00944882 0 -0.0153543c7.63465,-0.0295276 26.3634,-0.0779528 30.7488,0.172441 5.51929,0.315354 5.20394,-4.41732 5.20394,-4.41732 0,0 -0.0685039,-12.3307 -0.0685039,-15.6425 0,-3.31299 1.80354,-18.1382 2.27598,-22.0819 0.335433,-2.78976 -1.61929,-3.68386 -2.79213,-3.9685l-65.3598 -0.0023622z"/>
  <path class="fil25" d="M0.731102 25.5319c-0.216142,0.507874 -0.318898,1.13976 -0.238583,1.92402l0.500787 0c0.0625984,-0.494882 0.225591,-0.890551 0.445276,-1.20354 0.499606,-0.709843 1.3122,-1.04528 1.91693,-1.19882l65.2406 0.00354331c0.604724,0.153543 1.41732,0.487795 1.91575,1.19882 0.220866,0.312992 0.382677,0.706299 0.445276,1.2l0.501969 0c0.080315,-0.780709 -0.0224409,-1.41024 -0.23622,-1.91575 -0.694488,-0.885827 -1.71378,-1.28858 -2.45079,-1.46575l-0.0590551 -0.0129921 -0.057874 -0.0011811 -65.3587 -0.00354331 -0.057874 0 -0.0590551 0.0141732c-0.734646,0.177165 -1.75276,0.57874 -2.44843,1.46102z"/>
  <path class="fil26" d="M68.0728 67.1067l0.309449 0c-0.711024,1.13268 -2.10709,2.14252 -4.84488,1.98661l-55.285 -0.0023622c-2.73543,0.154724 -4.1315,-0.853937 -4.84252,-1.98425l0.309449 0c-0.115748,-0.138189 -0.218504,-0.282283 -0.309449,-0.427559l0.891732 0c0.683858,0.787795 1.86732,1.40906 3.91299,1.29331l55.3606 0.0011811c2.05039,0.11811 3.23386,-0.504331 3.91772,-1.29449l0.88937 0c-0.0909449,0.145276 -0.194882,0.288189 -0.309449,0.427559z"/>
  <path class="fil27" d="M3.51378 24.0803c-0.604724,0.153543 -1.41732,0.488976 -1.91693,1.19882 -0.351969,0.501969 -0.558661,1.21417 -0.43937,2.21339 0.864567,7.23071 2.05512,14.8476 2.05512,22.1398 0,2.99764 0.154724,15.5043 0.154724,15.6402l0.0011811 0.0200787 -0.00354331 0.0283465c0,0.00944882 -0.272835,4.1563 4.68307,3.87283l55.9713 0.00472441c4.95472,0.282283 4.68307,-3.86457 4.68307,-3.87402l-0.00354331 -0.0283465 0.0011811 -0.0200787c0,-0.135827 0.154724,-12.6449 0.154724,-15.6402 0,-7.29213 1.18819,-14.9091 2.05394,-22.1398 0.119291,-0.999213 -0.0862205,-1.71142 -0.440551,-2.21339 -0.498425,-0.711024 -1.31102,-1.04528 -1.91575,-1.19882l-65.0386 -0.00354331zm-2.73425 0.624803c0.694488,-0.98622 1.78346,-1.42087 2.55827,-1.60748l0.0590551 -0.0141732 0.057874 0 65.1567 0.00354331 0.057874 0.0011811 0.0590551 0.0129921c0.775984,0.186614 1.86496,0.62126 2.55709,1.60748 0.483071,0.68622 0.768898,1.62638 0.615354,2.90551 -0.85748,7.19528 -2.04449,14.7661 -2.04449,22.0217 0,3.57638 -0.153543,15.1937 -0.159449,15.6343l0 0.0129921c0.0177165,0.527953 0.0188976,5.24055 -5.73189,4.9122l-55.8626 -0.00472441c-5.75079,0.329528 -5.74961,-4.38307 -5.73189,-4.91102l0 -0.0129921c-0.00590551,-0.440551 -0.159449,-12.0567 -0.159449,-15.6343 0,-7.25551 -1.18819,-14.8264 -2.04567,-22.0217 -0.153543,-1.27913 0.132283,-2.21929 0.614173,-2.90551z"/>
 </g>
</svg>
