<?xml version="1.0" encoding="UTF-8"?>
<!DOCTYPE svg PUBLIC "-//W3C//DTD SVG 1.1//EN" "http://www.w3.org/Graphics/SVG/1.1/DTD/svg11.dtd">
<!-- Creator: CorelDRAW -->
<svg xmlns="http://www.w3.org/2000/svg" xml:space="preserve" width="48px" height="48px" style="shape-rendering:geometricPrecision; text-rendering:geometricPrecision; image-rendering:optimizeQuality; fill-rule:evenodd; clip-rule:evenodd"
viewBox="0 0 48 48"
 xmlns:xlink="http://www.w3.org/1999/xlink">
 <defs>
  <style type="text/css">
   <![CDATA[
    .fil29 {fill:none;fill-rule:nonzero}
    .fil31 {fill:#91C7ED}
    .fil33 {fill:#9DD0F5}
    .fil11 {fill:white;fill-rule:nonzero}
    .fil36 {fill:#91C7ED;fill-rule:nonzero}
    .fil37 {fill:#94C2E2;fill-rule:nonzero}
    .fil0 {fill:black;fill-opacity:0.000000}
    .fil12 {fill:#AEB2B5;fill-opacity:0.000000}
    .fil1 {fill:black;fill-opacity:0.011765}
    .fil2 {fill:black;fill-opacity:0.027451}
    .fil3 {fill:black;fill-opacity:0.039216}
    .fil4 {fill:black;fill-opacity:0.054902}
    .fil13 {fill:#AEB2B5;fill-opacity:0.054902}
    .fil5 {fill:black;fill-opacity:0.066667}
    .fil6 {fill:black;fill-opacity:0.078431}
    .fil7 {fill:black;fill-opacity:0.094118}
    .fil8 {fill:black;fill-opacity:0.105882}
    .fil14 {fill:#AEB2B5;fill-opacity:0.109804}
    .fil9 {fill:black;fill-opacity:0.121569}
    .fil35 {fill:#ABD8FC;fill-rule:nonzero;fill-opacity:0.121569}
    .fil15 {fill:#AEB2B5;fill-opacity:0.164706}
    .fil28 {fill:#4272A0;fill-opacity:0.219608}
    .fil16 {fill:#AEB2B5;fill-opacity:0.223529}
    .fil17 {fill:#AEB2B5;fill-opacity:0.278431}
    .fil18 {fill:#AEB2B5;fill-opacity:0.333333}
    .fil19 {fill:#AEB2B5;fill-opacity:0.388235}
    .fil34 {fill:#91C7ED;fill-rule:nonzero;fill-opacity:0.439216}
    .fil20 {fill:#AEB2B5;fill-opacity:0.443137}
    .fil21 {fill:#AEB2B5;fill-opacity:0.501961}
    .fil39 {fill:#3B658C;fill-opacity:0.780392}
    .fil32 {fill:#91C7ED;fill-opacity:0.780392}
    .fil25 {fill:#B0E2FC;fill-opacity:0.780392}
    .fil30 {fill:#3B658C;fill-rule:nonzero;fill-opacity:0.780392}
    .fil23 {fill:url(#id0)}
    .fil10 {fill:url(#id1)}
    .fil27 {fill:url(#id2)}
    .fil26 {fill:url(#id3);fill-rule:nonzero}
    .fil22 {fill:url(#id4);fill-rule:nonzero}
    .fil38 {fill:url(#id5);fill-opacity:0.439216}
    .fil24 {fill:url(#id6);fill-opacity:0.501961}
   ]]>
  </style>
  <linearGradient id="id0" gradientUnits="userSpaceOnUse" x1="24.0059" y1="16.128" x2="24.0059" y2="46.0524">
   <stop offset="0" style="stop-color:#5589C4"/>
   <stop offset="0.0705882" style="stop-color:#5795C9"/>
   <stop offset="0.258824" style="stop-color:#649FCF"/>
   <stop offset="0.909804" style="stop-color:#9FCFF5"/>
   <stop offset="1" style="stop-color:#649DCF"/>
  </linearGradient>
  <linearGradient id="id1" gradientUnits="userSpaceOnUse" x1="22.9098" y1="6.94488" x2="25.1008" y2="24.3768">
   <stop offset="0" style="stop-color:#EBEBEB"/>
   <stop offset="1" style="stop-color:#B2B2B2"/>
  </linearGradient>
  <linearGradient id="id2" gradientUnits="userSpaceOnUse" x1="23.9079" y1="22.389" x2="24.7961" y2="40.4386">
   <stop offset="0" style="stop-color:#5481A8"/>
   <stop offset="1" style="stop-color:#81B3DE"/>
  </linearGradient>
  <linearGradient id="id3" gradientUnits="userSpaceOnUse" x1="23.5961" y1="17.922" x2="24.4961" y2="44.2606">
   <stop offset="0" style="stop-color:#4E87B4"/>
   <stop offset="1" style="stop-color:#517EA3"/>
  </linearGradient>
  <linearGradient id="id4" gradientUnits="userSpaceOnUse" x1="23.9634" y1="16.9665" x2="24.0484" y2="14.3539">
   <stop offset="0" style="stop-color:#A2A2A2"/>
   <stop offset="1" style="stop-color:#B3B3B3"/>
  </linearGradient>
  <linearGradient id="id5" gradientUnits="userSpaceOnUse" x1="23.8996" y1="20.713" x2="24.6531" y2="46.9689">
   <stop offset="0" style="stop-color:#295283"/>
   <stop offset="0.521569" style="stop-color:#4676A6"/>
   <stop offset="1" style="stop-color:#6EA3CF"/>
  </linearGradient>
  <linearGradient id="id6" gradientUnits="userSpaceOnUse" x1="26.9303" y1="45.2386" x2="26.1366" y2="15.8598">
   <stop offset="0" style="stop-color:#C0E8FC"/>
   <stop offset="0.619608" style="stop-color:#7BB2DE"/>
   <stop offset="1" style="stop-color:#5C98CB"/>
  </linearGradient>
 </defs>
 <g id="Слой_x0020_1">
  <metadata id="CorelCorpID_0Corel-Layer"/>
  <g id="_73124640">
   <path id="_73111888" class="fil0" d="M22.7917 40.4539c9.47362,0 20.9539,2.96457 24.6992,5.07992 0.863386,0.487795 0.514961,2.14488 0.514961,2.33031 0,0.00826772 -0.0425197,0.0165354 -0.112205,0.0259843l-47.4484 0c-0.162992,-0.011811 -0.253937,-0.0248031 -0.253937,-0.0366142 0.0555118,0.132283 -0.393307,-0.998031 0.484252,-1.6252 3.34016,-2.38937 13.0984,-5.77441 22.1161,-5.77441z"/>
   <g>
    <path id="_71342288" class="fil1" d="M22.9063 40.9098c9.2811,0 20.5984,2.68465 24.3059,4.66535 0.877559,0.462992 0.555118,2.01142 0.555118,2.20157 0,0.0437008 -0.882283,0.0814961 -2.39646,0.113386l-42.0661 0c-1.69606,-0.0318898 -2.69409,-0.069685 -2.69409,-0.113386 0,-0.225591 -0.488976,-0.970866 0.527953,-1.57323 3.4252,-2.04803 12.9165,-5.2937 21.7677,-5.2937z"/>
    <path id="_49447992" class="fil2" d="M23.0197 41.3646c9.08976,0 20.0161,2.4189 23.6846,4.26378 0.892913,0.437008 0.596457,1.87795 0.596457,2.07283 0,0.0885827 -3.50787,0.15 -8.58661,0.188976l-28.2992 0c-5.49449,-0.0389764 -9.3626,-0.102756 -9.3626,-0.188976 0,-0.229134 -0.480709,-0.959055 0.549213,-1.52244 3.41339,-1.90039 12.7335,-4.81417 21.4181,-4.81417z"/>
    <path id="_45702040" class="fil3" d="M23.1331 41.8205c8.89961,0 19.4339,2.15197 23.0634,3.86102 0.907087,0.412205 0.636614,1.74567 0.636614,1.94291 0,0.322441 -45.339,0.3 -45.339,0 0,-0.230315 -0.472441,-0.946063 0.569291,-1.47047 3.40394,-1.75394 12.5516,-4.33346 21.0697,-4.33346z"/>
    <path id="_73129880" class="fil4" d="M23.2465 42.2764c8.70945,0 18.8528,1.88504 22.4433,3.45945 0.92126,0.38622 0.676772,1.61102 0.676772,1.81417 0,0.32126 -44.4295,0.3 -44.4295,0 0,-0.233858 -0.464173,-0.935433 0.58937,-1.42087 3.39331,-1.60748 12.3697,-3.85276 20.7201,-3.85276z"/>
    <path id="_73787808" class="fil5" d="M23.3587 42.7323c8.51811,0 18.2705,1.61693 21.822,3.05551 0.936614,0.361417 0.719291,1.47874 0.719291,1.68425 0,0.322441 -43.5213,0.3 -43.5213,0 0,-0.23622 -0.455906,-0.922441 0.609449,-1.37008 3.38268,-1.45866 12.1866,-3.36969 20.3705,-3.36969z"/>
    <path id="_77286080" class="fil6" d="M23.472 43.1882c8.32677,0 17.6882,1.35 21.202,2.65276 0.950787,0.336614 0.758268,1.34528 0.758268,1.55669 0,0.32126 -42.6118,0.3 -42.6118,0 0,-0.238583 -0.447638,-0.911811 0.629528,-1.31929 3.37205,-1.31339 12.0047,-2.89016 20.022,-2.89016z"/>
    <path id="_73103768" class="fil7" d="M23.5854 43.6441c8.13543,0 17.1059,1.08307 20.5807,2.25 0.964961,0.311811 0.799606,1.21299 0.799606,1.42795 0,0.32126 -41.7035,0.3 -41.7035,0 0,-0.242126 -0.438189,-0.9 0.649606,-1.2685 3.3626,-1.16693 11.8228,-2.40945 19.6736,-2.40945z"/>
    <path id="_73124592" class="fil8" d="M23.7 44.0988c7.94291,0 16.5224,0.816142 19.9594,1.84843 0.979134,0.287008 0.839764,1.07953 0.839764,1.29803 0,0.322441 -40.7941,0.3 -40.7941,0 0,-0.243307 -0.431102,-0.887008 0.669685,-1.21654 3.35197,-1.02047 11.6398,-1.92992 19.3252,-1.92992z"/>
   </g>
   <path id="_73102472" class="fil9" d="M23.8122 44.5559c7.75394,0 15.9413,0.548031 19.3394,1.44449 0.994488,0.262205 0.881102,0.946063 0.881102,1.16929 0,0.322441 -39.8858,0.3 -39.8858,0 0,-0.24685 -0.422835,-0.875197 0.689764,-1.16575 3.34134,-0.872835 11.4579,-1.44803 18.9756,-1.44803z"/>
  </g>
  <path class="fil10" d="M39.6248 11.4969l3.9874 -0.0248031c0.88937,-0.00472441 1.61693,0.72874 1.61693,1.61811l0.0259843 9.08031c0,0.88937 -0.727559,1.61811 -1.61693,1.61811l-3.9874 0 -21.4276 0 -4.72559 0 -5.11063 0 -3.98858 0 -0.0980315 0 0 -0.00354331c-0.843307,-0.0507874 -1.5189,-0.758268 -1.5189,-1.61457l-0.0259843 -9.08031c0,-0.88937 0.727559,-1.62283 1.61811,-1.61811l2.06457 0.0129921c0.747638,-0.167717 1.39843,-0.624803 1.95591,-1.83189 0.372047,-0.806693 0.713386,-2.12008 1.60276,-2.12008l3.50079 0 4.72559 0 3.74173 0c0.88937,0 1.17756,1.31339 1.55079,2.12008 1.00394,2.17559 2.31378,1.91339 3.9378,1.92047l12.1713 -0.0767717 0 0z"/>
  <path class="fil11" d="M40.1232 11.9882l3.9874 -0.023622 0.0023622 -0.0023622 0.0106299 0c0.304724,0 0.595276,0.0661417 0.85748,0.185433l0 1.22598 -0.0767717 -0.0850394 -0.0011811 0c-0.199606,-0.199606 -0.477165,-0.324803 -0.779528,-0.324803l-0.0106299 0 0 -0.0023622 -3.98504 0.023622 -12.1713 0.0779528 -0.478346 0.0023622c-1.57913,0.0188976 -2.87835,0.0330709 -3.91535,-2.2122l0.0011811 0 -0.00590551 -0.00944882 -0.0708661 -0.152362 0.344882 -0.259843 0.635433 0 0.0023622 0.00354331c0.765354,1.65827 1.77283,1.64882 2.99646,1.63346l0.00354331 0 0.48189 -0.0023622 12.1713 -0.0779528zm4.85787 13.1126c-0.258661,0.113386 -0.544488,0.178346 -0.842126,0.178346l-3.9874 0 -21.4264 0 -4.72559 0 -5.11181 0 -3.9874 0 -0.0980315 0 -0.500787 0 0 -0.0897638c-0.364961,-0.108661 -0.689764,-0.311811 -0.94252,-0.581102 -0.356693,-0.377953 -0.577559,-0.890551 -0.577559,-1.44803l-0.0259843 -9.08031 0 -0.0106299 0.0023622 -0.0023622c0.0023622,-0.575197 0.240945,-1.10315 0.620079,-1.48346l0 -0.0011811c0.380315,-0.380315 0.908268,-0.618898 1.48583,-0.617717l0 -0.0023622 0.0106299 0 0.0023622 0.0023622 2.00551 0.011811c0.217323,-0.0543307 0.426378,-0.141732 0.62126,-0.279921l0.726378 0.700394c-0.369685,0.3 -0.766535,0.47126 -1.18465,0.564567l-0.0531496 0.011811 -0.0566929 0 -2.06102 -0.011811 0 0.0023622 -0.0106299 0 0 -0.0023622c-0.3,0 -0.577559,0.125197 -0.779528,0.327165l-0.0011811 0c-0.200787,0.200787 -0.325984,0.479528 -0.328346,0.780709l0.0023622 0 0 0.0106299 0.0259843 9.08031c0,0.294094 0.115748,0.564567 0.303543,0.762992 0.190157,0.200787 0.454724,0.335433 0.745276,0.35315l0.0200787 0.0011811 0.0484252 0 3.9874 0 5.11181 0 4.72559 0 21.4264 0 3.9874 0c0.308268,0 0.588189,-0.126378 0.788976,-0.327165l0.0011811 -0.0011811 0.0519685 -0.0555118 0 1.20709zm-35.7957 -16.0972c0.307087,-0.505512 0.714567,-0.981496 1.3122,-0.981496l3.50197 0 4.72559 0 3.74055 0c0.659055,0 1.06299,0.432283 1.36654,0.981496l-14.6469 0z"/>
  <g id="_48882736">
   <path id="_73102376" class="fil12" d="M2.7815 13.0276l41.9882 0c0.00354331,0.0448819 0.00590551,0.0909449 0.00590551,0.137008l0 9.59646c0,0.879921 -0.719291,1.59921 -1.59921,1.59921l-3.94252 0 -21.189 0 -4.67244 0 -5.05512 0 -3.94252 0 -0.0968504 0 0 -0.0023622c-0.835039,-0.0507874 -1.50236,-0.75 -1.50236,-1.59685l0 -9.59646c0,-0.046063 0.0011811,-0.092126 0.00590551,-0.137008z"/>
   <g>
    <path id="_73124688" class="fil13" d="M2.77559 13.1965l42 0 0 9.56457c0,0.879921 -0.719291,1.59921 -1.59921,1.59921l-3.94252 0 -21.189 0 -4.67244 0 -5.05512 0 -3.94252 0 -0.0968504 0 0 -0.0023622c-0.835039,-0.0507874 -1.50236,-0.75 -1.50236,-1.59685l0 -9.56457z"/>
    <path id="_73103216" class="fil14" d="M2.77559 13.3654l42 0 0 9.39567c0,0.879921 -0.719291,1.59921 -1.59921,1.59921l-3.94252 0 -21.189 0 -4.67244 0 -5.05512 0 -3.94252 0 -0.0968504 0 0 -0.0023622c-0.835039,-0.0507874 -1.50236,-0.75 -1.50236,-1.59685l0 -9.39567z"/>
    <path id="_77952888" class="fil15" d="M2.77559 13.5331l42 0 0 9.22795c0,0.879921 -0.719291,1.59921 -1.59921,1.59921l-3.94252 0 -21.189 0 -4.67244 0 -5.05512 0 -3.94252 0 -0.0968504 0 0 -0.0023622c-0.835039,-0.0507874 -1.50236,-0.75 -1.50236,-1.59685l0 -9.22795z"/>
    <path id="_48962344" class="fil16" d="M2.77559 13.702l42 0 0 9.05906c0,0.879921 -0.719291,1.59921 -1.59921,1.59921l-3.94252 0 -21.189 0 -4.67244 0 -5.05512 0 -3.94252 0 -0.0968504 0 0 -0.0023622c-0.835039,-0.0507874 -1.50236,-0.75 -1.50236,-1.59685l0 -9.05906z"/>
    <path id="_77634632" class="fil17" d="M2.77559 13.8709l42 0 0 8.89016c0,0.879921 -0.719291,1.59921 -1.59921,1.59921l-3.94252 0 -21.189 0 -4.67244 0 -5.05512 0 -3.94252 0 -0.0968504 0 0 -0.0023622c-0.835039,-0.0507874 -1.50236,-0.75 -1.50236,-1.59685l0 -8.89016z"/>
    <path id="_48201544" class="fil18" d="M2.77559 14.0386l42 0 0 8.72244c0,0.879921 -0.719291,1.59921 -1.59921,1.59921l-3.94252 0 -21.189 0 -4.67244 0 -5.05512 0 -3.94252 0 -0.0968504 0 0 -0.0023622c-0.835039,-0.0507874 -1.50236,-0.75 -1.50236,-1.59685l0 -8.72244z"/>
    <path id="_48234040" class="fil19" d="M2.77559 14.2075l42 0 0 8.55354c0,0.879921 -0.719291,1.59921 -1.59921,1.59921l-3.94252 0 -21.189 0 -4.67244 0 -5.05512 0 -3.94252 0 -0.0968504 0 0 -0.0023622c-0.835039,-0.0507874 -1.50236,-0.75 -1.50236,-1.59685l0 -8.55354z"/>
    <path id="_72572288" class="fil20" d="M2.77559 14.3752l42 0 0 8.38583c0,0.879921 -0.719291,1.59921 -1.59921,1.59921l-3.94252 0 -21.189 0 -4.67244 0 -5.05512 0 -3.94252 0 -0.0968504 0 0 -0.0023622c-0.835039,-0.0507874 -1.50236,-0.75 -1.50236,-1.59685l0 -8.38583z"/>
   </g>
   <path id="_72582416" class="fil21" d="M2.77559 14.5441l42 0 0 8.21693c0,0.879921 -0.719291,1.59921 -1.59921,1.59921l-3.94252 0 -21.189 0 -4.67244 0 -5.05512 0 -3.94252 0 -0.0968504 0 0 -0.0023622c-0.835039,-0.0507874 -1.50236,-0.75 -1.50236,-1.59685l0 -8.21693z"/>
  </g>
  <path class="fil22" d="M39.6224 10.9984l3.9874 -0.023622 0.0023622 -0.0023622 0.0106299 0c0.577559,0 1.10433,0.238583 1.48583,0.620079l0 0.0011811c0.379134,0.380315 0.617717,0.907087 0.620079,1.48228l0.0023622 0.0023622 0 0.0106299 0.0259843 9.0815c0,0.57874 -0.239764,1.11024 -0.623622,1.49409l-0.0011811 0.0011811c-0.383858,0.383858 -0.915354,0.623622 -1.49409,0.623622l-3.9874 0 -21.4264 0 -4.72559 0 -5.11181 0 -3.9874 0 -0.0980315 0 -0.500787 0 0 -0.0897638c-0.364961,-0.108661 -0.689764,-0.311811 -0.94252,-0.581102 -0.356693,-0.377953 -0.577559,-0.890551 -0.577559,-1.44803l-0.0259843 -9.08031 0 -0.0106299 0.0023622 -0.0023622c0.0023622,-0.575197 0.240945,-1.10315 0.620079,-1.48346l0 -0.0011811c0.380315,-0.380315 0.908268,-0.618898 1.48583,-0.617717l0 -0.0023622 0.0106299 0 0.0023622 0.0023622 2.00551 0.011811c0.276378,-0.069685 0.53622,-0.191339 0.777165,-0.402756 0.271654,-0.238583 0.558661,-1.2248 0.805512,-1.7563l0 -0.0011811 -0.0224409 0.615354c0.444094,-0.964961 0.848031,-2.40945 2.05512,-2.40945l3.50197 0 4.72559 0 3.74055 0c1.20472,0 1.58268,0.818504 2.02559,1.77992l-0.0271654 0.623622 0.00590551 0.00944882c0.765354,1.65827 1.77283,1.64882 2.99646,1.63346l0.00354331 0 0.48189 -0.0023622 12.1713 -0.0779528zm3.98976 0.973228l-3.98504 0.023622 -12.1713 0.0779528 -0.478346 0.0023622c-1.57913,0.0188976 -2.87835,0.0330709 -3.91535,-2.2122l0.0271654 -0.623622 -0.00590551 -0.00944882c-0.297638,-0.646063 -0.551575,-1.19646 -1.1185,-1.19646l-3.74055 0 -4.72559 0 -3.50197 0c-0.564567,0 -0.845669,1.17047 -1.14213,1.81417l-0.0023622 0.00590551 0.0212598 -0.614173c-0.309449,0.669685 -0.682677,1.76575 -1.05827,2.09528 -0.394488,0.346063 -0.819685,0.53622 -1.27087,0.636614l-0.0531496 0.011811 -0.0566929 0 -2.06102 -0.011811 0 0.0023622 -0.0106299 0 0 -0.0023622c-0.3,0 -0.577559,0.125197 -0.779528,0.327165l-0.0011811 0c-0.200787,0.200787 -0.325984,0.479528 -0.328346,0.780709l0.0023622 0 0 0.0106299 0.0259843 9.08031c0,0.294094 0.115748,0.564567 0.303543,0.762992 0.190157,0.200787 0.454724,0.335433 0.745276,0.35315l0.0200787 0.0011811 0.0484252 0 3.9874 0 5.11181 0 4.72559 0 21.4264 0 3.9874 0c0.308268,0 0.588189,-0.126378 0.788976,-0.327165l0.0011811 -0.0011811c0.200787,-0.200787 0.327165,-0.48189 0.327165,-0.788976l-0.0259843 -9.0815 0 -0.0106299 0.0023622 0c-0.0023622,-0.3 -0.127559,-0.57874 -0.328346,-0.779528l-0.0011811 0c-0.199606,-0.199606 -0.477165,-0.324803 -0.779528,-0.324803l-0.0106299 0 0 -0.0023622z"/>
  <path class="fil23" d="M2.37047 15.5055c-0.774803,0.187795 -2.06575,0.778346 -1.84488,2.62205 0.312992,2.60433 1.35472,12.3969 1.35472,14.5854 0,2.1874 0.103937,10.3323 0.103937,10.3323 0,0 -0.207874,3.12638 3.43819,2.91732l0.284646 0.0389764 36.4701 0.504331 0.413386 -0.0389764c3.64606,0.209055 3.43701,-3.42165 3.43701,-3.42165 0,0 0.105118,-8.14488 0.105118,-10.3323 0,-2.18858 1.04173,-11.9811 1.35354,-14.5854 0.220866,-1.8437 -1.07008,-2.43425 -1.84488,-2.62205l-43.2709 0z"/>
  <path class="fil24" d="M24.2445 18.3886c7.31929,0 13.2531,5.93386 13.2531,13.2531 0,7.31929 -5.93386,13.2531 -13.2531,13.2531 -7.31929,0 -13.2531,-5.93386 -13.2531,-13.2531 0,-7.31929 5.93386,-13.2531 13.2531,-13.2531zm8.61969 4.62874c-2.20157,-2.20394 -5.25118,-3.56811 -8.61969,-3.56811 -3.3685,0 -6.41811,1.36417 -8.61969,3.56811l-0.00472441 0.00472441c-2.20394,2.20157 -3.56811,5.25118 -3.56811,8.61969 0,3.3685 1.36417,6.41811 3.56811,8.61969l0.00472441 0.00472441c2.20157,2.20394 5.25118,3.56811 8.61969,3.56811 3.3685,0 6.41811,-1.36417 8.61969,-3.56811l0.00472441 -0.00472441c2.20394,-2.20157 3.56811,-5.25118 3.56811,-8.61969 0,-3.3685 -1.36417,-6.41811 -3.56811,-8.61969l-0.00472441 -0.00472441zm0.898819 0.427559l0.165354 0.17126 0 -0.17126 -0.165354 0zm0.165354 16.0618l-0.0011811 0.00354331 0.0011811 0 0 -0.00354331z"/>
  <path class="fil25" d="M47.5157 18.5362l-0.511417 -0.737008c-0.0590551,-0.0956693 -0.125197,-0.180709 -0.198425,-0.255118 -0.288189,-0.296457 -0.681496,-0.455906 -0.992126,-0.538583l-43.1693 0c-0.31063,0.0826772 -0.703937,0.242126 -0.992126,0.538583 -0.0732283,0.0744094 -0.13937,0.159449 -0.198425,0.255118l-1.08425 0c0.127559,-0.385039 0.33189,-0.694488 0.575197,-0.94252 0.470079,-0.483071 1.08189,-0.716929 1.53307,-0.825591l0.0685039 -0.0165354 0.0472441 0 43.2709 0 0.0484252 0 0.0673228 0.0165354c0.451181,0.108661 1.06299,0.34252 1.53307,0.825591 0.243307,0.248031 -0.125197,1.29449 0.0023622,1.67953z"/>
  <path class="fil26" d="M2.66811 16.0063c-0.311811,0.0826772 -0.701575,0.240945 -0.989764,0.53622 -0.297638,0.304724 -0.499606,0.784252 -0.411024,1.52598 0.185433,1.55315 0.641339,5.74961 0.975591,9.35197 0.218504,2.3563 0.383858,4.4315 0.383858,5.29252 0,2.36102 0.395669,10.7362 0.395669,10.8248l0.0023622 0.00590551c0,0.00708661 -0.174803,2.59488 2.91024,2.4189l0.0933071 0.00354331 0.240945 0.0330709 36.0378 0 0.366142 -0.034252 0.0744094 -0.0023622c3.08504,0.175984 2.90906,-2.41181 2.90906,-2.4189l0.0023622 -0.00590551c0,-0.0885827 -0.191339,-8.45551 -0.191339,-10.8248 0,-0.858661 0.164173,-2.92677 0.382677,-5.27835 0.334252,-3.60354 0.788976,-7.80945 0.975591,-9.36614 0.0885827,-0.741732 -0.113386,-1.22126 -0.411024,-1.52598 -0.288189,-0.295276 -0.677953,-0.453543 -0.989764,-0.53622l-42.7571 0zm-1.70551 -0.158268c0.473622,-0.484252 1.08425,-0.716929 1.53661,-0.826772l0.116929 -0.0165354 42.861 0 0.116929 0.0165354c0.452362,0.109843 1.06299,0.34252 1.53661,0.826772 0.485433,0.497244 0.819685,1.24016 0.687402,2.33858 -0.190157,1.59449 -0.649606,5.81693 -0.975591,9.3378 -0.212598,2.29252 -0.373228,4.32283 -0.373228,5.18858 0,1.98661 0.190157,10.6004 0.186614,10.8307l0.0023622 0c0,0.0106299 0.239764,3.63543 -3.93071,3.41693l-0.373228 0.0354331 -0.0472441 0.00472441 -36.0602 0 -0.0661417 -0.00590551 -0.243307 -0.0330709c-4.15039,0.207874 -3.91417,-3.40748 -3.91417,-3.41811l0.0023622 0c-0.00354331,-0.230315 -0.400394,-8.83701 -0.400394,-10.8307 0,-0.869291 -0.161811,-2.90551 -0.374409,-5.20276 -0.325984,-3.5185 -0.785433,-7.7315 -0.975591,-9.32362 -0.132283,-1.09843 0.201969,-1.84134 0.687402,-2.33858z"/>
  <path class="fil27" d="M24.0709 19.0949c6.94606,0 12.5787,5.14724 12.5787,12.0933 0,6.94606 -5.15906,12.5445 -12.1051,12.5445 -6.94606,0 -12.4902,-5.54409 -12.4902,-12.4902 0,-6.94606 5.07047,-12.1476 12.0165,-12.1476zm5.01378 13.1776l0 0.474803c-0.0826772,0.140551 -0.235039,0.23622 -0.409843,0.23622l-8.25354 -0.0744094c-0.261024,0 -0.473622,-0.212598 -0.473622,-0.473622 0,-0.261024 0.212598,-0.473622 0.473622,-0.473622l8.25354 0.0744094c0.174803,0 0.327165,0.0956693 0.409843,0.23622zm-8.86772 3.72638c-0.262205,0 -0.473622,-0.211417 -0.473622,-0.472441 0,-0.261024 0.211417,-0.473622 0.473622,-0.473622l8.25354 0.0744094c0.261024,0 0.473622,0.212598 0.473622,0.473622 0,0.261024 -0.212598,0.472441 -0.473622,0.472441l-8.25354 -0.0744094zm0.0519685 -6.02717c-0.262205,0 -0.474803,-0.212598 -0.474803,-0.474803 0,-0.259843 0.212598,-0.472441 0.474803,-0.472441l8.25236 0.0744094c0.262205,0 0.473622,0.212598 0.473622,0.472441 0,0.262205 -0.211417,0.474803 -0.473622,0.474803l-8.25236 -0.0744094zm-1.6878 -6.34252c3.14409,0 5.11417,0.146457 8.25827,0.146457 0.226772,0.0106299 1.3878,-0.446457 1.5815,-0.297638l2.65748 2.57835c0.178346,0.170079 -0.151181,1.62992 -0.153543,1.85197l0 10.5496c0,0.298819 -0.259843,0.564567 -0.565748,0.564567l-11.778 0c-0.297638,0 -0.565748,-0.253937 -0.565748,-0.564567l0 -14.263c0,-0.31063 0.255118,-0.565748 0.565748,-0.565748zm11.9835 3.82205l-2.95276 0c-0.301181,0 -0.565748,-0.255118 -0.565748,-0.565748l0 -2.97283 3.5185 3.53858z"/>
  <path class="fil28" d="M18.5811 23.1283c1.50472,0 2.82638,0.0389764 4.14331,0.0755906 1.23543,0.034252 2.47559,0.0708661 4.11496,0.0708661l0.0200787 0.0023622 0.398031 -0.113386c0.519685,-0.147638 1.14685,-0.327165 1.46575,-0.0826772l0.0448819 0.0389764 2.46378 2.5748 0.00354331 0.00354331c0.314173,0.308268 0.349606,1.22835 0.24685,1.84488l-0.057874 0.364961 0.0011811 0 0 10.5307c0,0.285827 -0.121654,0.553937 -0.317717,0.747638l0 0.0011811c-0.191339,0.191339 -0.459449,0.316535 -0.748819,0.316535l-11.778 0c-0.285827,0 -0.55748,-0.122835 -0.751181,-0.316535l0 -0.0011811c-0.19252,-0.19252 -0.315354,-0.457087 -0.315354,-0.747638l0 -14.2441c0,-0.290551 0.120472,-0.558661 0.314173,-0.752362 0.193701,-0.193701 0.459449,-0.314173 0.752362,-0.314173zm11.9043 4.32283l0.011811 -0.0685039 0.0673228 0.0685039 -0.0791339 0zm-2.83819 -2.93386l0.0767717 2.85591 0.393307 0.0779528 -0.505512 0c-0.301181,0 -0.565748,-0.255118 -0.565748,-0.565748l0 -2.97283 0.601181 0.604724zm-9.06614 -0.888189c3.14409,0 5.11417,0.146457 8.25827,0.146457 0.226772,0.0106299 1.3878,-0.446457 1.5815,-0.297638l2.42953 2.54055c0.178346,0.170079 0.0767717,1.66772 0.0744094,1.88976l0 10.5307c0,0.298819 -0.259843,0.564567 -0.565748,0.564567l-11.778 0c-0.297638,0 -0.565748,-0.253937 -0.565748,-0.564567l0 -14.2441c0,-0.31063 0.255118,-0.565748 0.565748,-0.565748z"/>
  <line class="fil29" x1="30.0768" y1="38.2488" x2="30.0768" y2= "38.5429" />
  <path class="fil29" d="M30.1134 38.5571c0.0673228,0.0295276 0.129921,0.0590551 0.164173,0.0826772"/>
  <polyline class="fil29" points="30.0839,38.5453 30.1134,38.5571 30.1134,38.2122 "/>
  <polyline class="fil29" points="30.0768,38.5429 30.0839,38.5453 30.0945,38.2311 "/>
  <polyline class="fil29" points="30.1134,38.2122 30.2776,38.048 30.1134,38.048 "/>
  <polyline class="fil29" points="30.0945,38.2311 30.1134,38.2122 30.1134,38.048 30.1004,38.048 "/>
  <polygon class="fil30" points="30.5965,27.4193 30.5646,27.4512 30.137,27.4512 27.1039,24.3697 27.1039,23.8713 "/>
  <path class="fil31" d="M20.048 33.2705c-0.0401575,0.069685 -0.0637795,0.151181 -0.0637795,0.237402 0,0.261024 0.212598,0.473622 0.473622,0.473622l8.22638 0c0.261024,0 0.473622,-0.212598 0.473622,-0.473622 0,-0.0862205 -0.023622,-0.167717 -0.0637795,-0.237402 0.0401575,-0.069685 0.0637795,-0.152362 0.0637795,-0.238583 0,-0.0956693 -0.0283465,-0.185433 -0.0779528,-0.259843 -0.0850394,0.12874 -0.230315,0.21378 -0.395669,0.21378l-8.22638 0c-0.165354,0 -0.31063,-0.0850394 -0.395669,-0.21378 -0.0496063,0.0744094 -0.0779528,0.164173 -0.0779528,0.259843 0,0.0862205 0.023622,0.168898 0.0637795,0.238583z"/>
  <path class="fil32" d="M19.8957 30.3319c-0.0413386,0.069685 -0.0649606,0.151181 -0.0649606,0.237402 0,0.262205 0.212598,0.474803 0.474803,0.474803l8.2252 0c0.262205,0 0.473622,-0.212598 0.473622,-0.474803 0,-0.0862205 -0.0224409,-0.167717 -0.0637795,-0.237402 0.0401575,-0.069685 0.0637795,-0.151181 0.0637795,-0.238583 0,-0.0956693 -0.0283465,-0.184252 -0.0779528,-0.258661 -0.0838583,0.12874 -0.230315,0.21378 -0.395669,0.21378l-8.2252 0c-0.165354,0 -0.311811,-0.0850394 -0.39685,-0.21378 -0.0496063,0.0744094 -0.0779528,0.162992 -0.0779528,0.258661 0,0.0874016 0.0248031,0.168898 0.0649606,0.238583z"/>
  <path class="fil33" d="M20.2535 36.0756c-0.165354,0 -0.311811,-0.0850394 -0.395669,-0.212598 -0.0496063,0.0744094 -0.0779528,0.164173 -0.0779528,0.259843 0,0.0862205 0.023622,0.167717 0.0637795,0.237402 -0.0413386,0.069685 -0.0637795,0.152362 -0.0637795,0.238583 0,0.261024 0.211417,0.472441 0.473622,0.472441l8.22638 0c0.261024,0 0.473622,-0.211417 0.473622,-0.472441 0,-0.0862205 -0.0224409,-0.168898 -0.0637795,-0.238583 0.0413386,-0.069685 0.0637795,-0.151181 0.0637795,-0.237402 0,-0.0956693 -0.0283465,-0.185433 -0.0779528,-0.259843 -0.0850394,0.127559 -0.230315,0.212598 -0.395669,0.212598l-8.22638 0z"/>
  <path class="fil34" d="M26.9728 26.9433l0.0767717 0c0.0295276,0.283465 0.279921,0.507874 0.562205,0.507874l2.95276 0 -0.505512 -0.507874 0.563386 0 0 1.00157 -3.64961 0 0 -1.00157z"/>
  <polygon class="fil35" points="19.0512,23.3031 19.0512,38.7791 18.0496,38.7791 18.0496,23.3031 "/>
  <polygon class="fil35" points="30.6921,27.6638 30.6921,38.7791 29.6906,38.7791 29.6906,27.6638 "/>
  <path class="fil36" d="M19.1079 22.9323c2.61496,0.0106299 5.30551,-0.00708661 7.92165,-0.00708661l0.0531496 0.00354331c0.218504,0.0106299 0.433465,0.0531496 0.636614,0.129921l0 -0.0011811c0.121654,0.0448819 0.242126,0.103937 0.360236,0.175984l-0.838583 0.896457c-0.114567,-0.102756 -0.188976,-0.161811 -0.211417,-0.162992 -3.14409,0 -5.18976,0.00590551 -8.33386,0.00590551 -0.18189,0 -0.344882,0.0874016 -0.448819,0.223228l-0.116929 -0.137008c0.0543307,-0.75 0.392126,-0.801969 0.977953,-1.12677z"/>
  <path class="fil34" d="M28.0795 23.2335c0.0708661,0.0437008 0.141732,0.092126 0.210236,0.145276l0.101575 0.0885827 2.91614 2.88661c-0.259843,0.180709 -0.338976,0.924803 -0.791339,1.03228 -0.129921,-0.0732283 -2.5311,-2.58661 -3.2752,-3.2563l0.838583 -0.896457z"/>
  <line class="fil29" x1="30.013" y1="38.5193" x2="30.013" y2= "38.8134" />
  <path class="fil29" d="M30.0496 38.8276c0.0673228,0.0295276 0.129921,0.0590551 0.164173,0.0826772"/>
  <polyline class="fil29" points="30.0201,38.8157 30.0496,38.8276 30.0496,38.4827 "/>
  <polyline class="fil29" points="30.013,38.8134 30.0201,38.8157 30.0307,38.5016 "/>
  <polyline class="fil29" points="30.0496,38.4827 30.2138,38.3185 30.0496,38.3185 "/>
  <polyline class="fil29" points="30.0307,38.5016 30.0496,38.4827 30.0496,38.3185 30.0366,38.3185 "/>
  <polygon class="fil37" points="30.013,38.5193 30.0307,38.5016 30.0366,38.3185 30.013,38.3185 "/>
  <polygon class="fil37" points="18.6768,40.037 18.6945,40.037 18.6945,38.9953 18.6768,38.9953 "/>
  <path class="fil38" d="M24.352 18.9236c6.89764,0 12.4902,5.59252 12.4902,12.4902 0,6.89764 -5.59252,12.4902 -12.4902,12.4902 -6.89764,0 -12.4902,-5.59252 -12.4902,-12.4902 0,-6.89764 5.59252,-12.4902 12.4902,-12.4902zm8.12362 4.36181c-2.0752,-2.07638 -4.94882,-3.3626 -8.12362,-3.3626 -3.1748,0 -6.04843,1.28622 -8.12362,3.3626l-0.00472441 0.00472441c-2.07638,2.0752 -3.3626,4.94882 -3.3626,8.12362 0,3.1748 1.28622,6.04843 3.3626,8.12362l0.00472441 0.00472441c2.0752,2.07638 4.94882,3.3626 8.12362,3.3626 3.1748,0 6.04843,-1.28622 8.12362,-3.3626l0.00472441 -0.00472441c2.07638,-2.0752 3.3626,-4.94882 3.3626,-8.12362 0,-3.1748 -1.28622,-6.04843 -3.3626,-8.12362l-0.00472441 -0.00472441zm0.84685 0.403937l0.155906 0.16063 0 -0.16063 -0.155906 0zm0.155906 15.137l-0.0011811 0.0023622 0.0011811 0 0 -0.0023622z"/>
  <path class="fil39" d="M18.2244 39.3626l0.24685 -0.433465 0.0141732 0.00590551 0.0106299 0.00472441 0.00354331 0.0023622 0.0141732 0.00472441 0.00826772 0.00354331 0.00590551 0.0023622 0.0153543 0.00472441 0.00472441 0.0011811 0.00944882 0.00354331 0.0153543 0.00472441 0.0011811 0 0.0141732 0.00354331 0.0129921 0.0023622 0.0011811 0.0011811 0.0153543 0.0023622 0.0106299 0.0011811 0.00472441 0.0011811 0.0153543 0.0023622 0.00708661 0.0011811 0.00826772 0 0.0153543 0.0011811 0.00354331 0 0.0129921 0.0011811 0.0153543 0 11.778 0 0.0165354 0 0.011811 -0.0011811 0.00590551 0 0.0165354 -0.0011811 0.00590551 -0.0011811 0.0106299 -0.0011811 0.0165354 -0.0023622 0.0011811 0 0.0153543 -0.0023622 0.011811 -0.0023622 0.00354331 -0.0011811 0.0165354 -0.00354331 0.00708661 -0.0023622 0.00826772 -0.0023622 0.0165354 -0.00472441 0.0011811 0 0.0141732 -0.00472441 0.011811 -0.00472441 0.00354331 -0.0011811 0.0153543 -0.00590551 0.00708661 -0.00354331 0.00708661 -0.00354331 0.0153543 -0.00708661 0.0023622 -0.0011811 0.011811 -0.00590551 0.38622 0.343701c-0.178346,0.135827 -0.402756,0.220866 -0.640157,0.220866l-11.778 0c-0.172441,0 -0.338976,-0.0448819 -0.486614,-0.122835z"/>
  <path class="fil28" d="M29.0846 32.2724l0 0.474803 -0.0330709 0.0484252c-0.0862205,-0.113386 -0.223228,-0.187795 -0.376772,-0.187795l-8.25354 -0.0744094c-0.153543,0 -0.28937,0.0744094 -0.376772,0.187795 -0.0602362,-0.080315 -0.0968504,-0.178346 -0.0968504,-0.285827 0,-0.261024 0.212598,-0.473622 0.473622,-0.473622l8.25354 0.0744094c0.174803,0 0.327165,0.0956693 0.409843,0.23622zm-9.24449 3.53858c-0.0602362,-0.0791339 -0.0968504,-0.177165 -0.0968504,-0.284646 0,-0.261024 0.211417,-0.473622 0.473622,-0.473622l8.25354 0.0744094c0.261024,0 0.473622,0.212598 0.473622,0.473622 0,0.10748 -0.0354331,0.206693 -0.0968504,0.285827 -0.0862205,-0.114567 -0.223228,-0.187795 -0.376772,-0.187795l-8.25354 -0.0744094c-0.154724,0 -0.28937,0.0720472 -0.376772,0.186614zm0.0507874 -6.02717c-0.0602362,-0.080315 -0.0968504,-0.179528 -0.0968504,-0.287008 0,-0.259843 0.212598,-0.472441 0.474803,-0.472441l8.25236 0.0744094c0.262205,0 0.473622,0.212598 0.473622,0.472441 0,0.10748 -0.0354331,0.206693 -0.0956693,0.287008 -0.0862205,-0.113386 -0.223228,-0.187795 -0.377953,-0.187795l-8.25236 -0.0744094c-0.154724,0 -0.290551,0.0744094 -0.377953,0.187795z"/>
 </g>
</svg>
