<?xml version="1.0" encoding="UTF-8" standalone="no"?>
<!-- Creator: CorelDRAW -->

<svg
   xmlns:dc="http://purl.org/dc/elements/1.1/"
   xmlns:cc="http://creativecommons.org/ns#"
   xmlns:rdf="http://www.w3.org/1999/02/22-rdf-syntax-ns#"
   xmlns:svg="http://www.w3.org/2000/svg"
   xmlns="http://www.w3.org/2000/svg"
   xmlns:xlink="http://www.w3.org/1999/xlink"
   xmlns:sodipodi="http://sodipodi.sourceforge.net/DTD/sodipodi-0.dtd"
   xmlns:inkscape="http://www.inkscape.org/namespaces/inkscape"
   xml:space="preserve"
   width="48px"
   height="48px"
   style="shape-rendering:geometricPrecision; text-rendering:geometricPrecision; image-rendering:optimizeQuality; fill-rule:evenodd; clip-rule:evenodd"
   viewBox="0 0 48 48"
   id="svg2"
   version="1.1"
   inkscape:version="0.48.1 "
   sodipodi:docname="folder_photo_48_v2.svg"><metadata
   id="metadata135"><rdf:RDF><cc:Work
       rdf:about=""><dc:format>image/svg+xml</dc:format><dc:type
         rdf:resource="http://purl.org/dc/dcmitype/StillImage" /><dc:title></dc:title></cc:Work></rdf:RDF></metadata><sodipodi:namedview
   pagecolor="#000000"
   bordercolor="#666666"
   borderopacity="1"
   objecttolerance="10"
   gridtolerance="10"
   guidetolerance="10"
   inkscape:pageopacity="0"
   inkscape:pageshadow="2"
   inkscape:window-width="1920"
   inkscape:window-height="1138"
   id="namedview133"
   showgrid="false"
   inkscape:zoom="16"
   inkscape:cx="17.47503"
   inkscape:cy="19.976599"
   inkscape:window-x="-8"
   inkscape:window-y="-8"
   inkscape:window-maximized="1"
   inkscape:current-layer="svg2" />
 <defs
   id="defs4">
  <style
   type="text/css"
   id="style6">
   
    .fil27 {fill:none;fill-rule:nonzero}
    .fil37 {fill:#5281AB}
    .fil36 {fill:#91C7ED}
    .fil11 {fill:white;fill-rule:nonzero}
    .fil34 {fill:#5482AB;fill-rule:nonzero}
    .fil30 {fill:#91C7ED;fill-rule:nonzero}
    .fil33 {fill:#94CDFC;fill-rule:nonzero}
    .fil0 {fill:black;fill-opacity:0.000000}
    .fil12 {fill:#AEB2B5;fill-opacity:0.000000}
    .fil1 {fill:black;fill-opacity:0.011765}
    .fil2 {fill:black;fill-opacity:0.027451}
    .fil3 {fill:black;fill-opacity:0.039216}
    .fil4 {fill:black;fill-opacity:0.054902}
    .fil13 {fill:#AEB2B5;fill-opacity:0.054902}
    .fil5 {fill:black;fill-opacity:0.066667}
    .fil6 {fill:black;fill-opacity:0.078431}
    .fil7 {fill:black;fill-opacity:0.094118}
    .fil8 {fill:black;fill-opacity:0.105882}
    .fil14 {fill:#AEB2B5;fill-opacity:0.109804}
    .fil9 {fill:black;fill-opacity:0.121569}
    .fil32 {fill:#ABD8FC;fill-rule:nonzero;fill-opacity:0.121569}
    .fil15 {fill:#AEB2B5;fill-opacity:0.164706}
    .fil29 {fill:#4272A0;fill-opacity:0.219608}
    .fil16 {fill:#AEB2B5;fill-opacity:0.223529}
    .fil17 {fill:#AEB2B5;fill-opacity:0.278431}
    .fil18 {fill:#AEB2B5;fill-opacity:0.333333}
    .fil19 {fill:#AEB2B5;fill-opacity:0.388235}
    .fil20 {fill:#AEB2B5;fill-opacity:0.443137}
    .fil21 {fill:#AEB2B5;fill-opacity:0.501961}
    .fil31 {fill:#3B658C;fill-opacity:0.780392}
    .fil24 {fill:#B0E2FC;fill-opacity:0.780392}
    .fil23 {fill:url(#id0)}
    .fil10 {fill:url(#id1)}
    .fil28 {fill:url(#id2)}
    .fil25 {fill:url(#id3);fill-rule:nonzero}
    .fil22 {fill:url(#id4);fill-rule:nonzero}
    .fil35 {fill:url(#id5);fill-opacity:0.439216}
    .fil26 {fill:url(#id6);fill-opacity:0.501961}
   
  </style>
  <linearGradient
   id="id0"
   gradientUnits="userSpaceOnUse"
   x1="24.0059"
   y1="16.128"
   x2="24.0059"
   y2="46.0524">
   <stop
   offset="0"
   style="stop-color:#5589C4"
   id="stop9" />
   <stop
   offset="0.0705882"
   style="stop-color:#5795C9"
   id="stop11" />
   <stop
   offset="0.258824"
   style="stop-color:#649FCF"
   id="stop13" />
   <stop
   offset="0.909804"
   style="stop-color:#9FCFF5"
   id="stop15" />
   <stop
   offset="1"
   style="stop-color:#649DCF"
   id="stop17" />
  </linearGradient>
  <linearGradient
   id="id1"
   gradientUnits="userSpaceOnUse"
   x1="22.9098"
   y1="6.94488"
   x2="25.1008"
   y2="24.3768">
   <stop
   offset="0"
   style="stop-color:#EBEBEB"
   id="stop20" />
   <stop
   offset="1"
   style="stop-color:#B2B2B2"
   id="stop22" />
  </linearGradient>
  <linearGradient
   id="id2"
   gradientUnits="userSpaceOnUse"
   x1="23.9043"
   y1="22.265"
   x2="24.7996"
   y2="40.5626">
   <stop
   offset="0"
   style="stop-color:#5481A8"
   id="stop25" />
   <stop
   offset="1"
   style="stop-color:#81B3DE"
   id="stop27" />
  </linearGradient>
  <linearGradient
   id="id3"
   gradientUnits="userSpaceOnUse"
   x1="23.5961"
   y1="17.922"
   x2="24.4961"
   y2="44.2606">
   <stop
   offset="0"
   style="stop-color:#4E87B4"
   id="stop30" />
   <stop
   offset="1"
   style="stop-color:#517EA3"
   id="stop32" />
  </linearGradient>
  <linearGradient
   id="id4"
   gradientUnits="userSpaceOnUse"
   x1="23.9634"
   y1="16.9665"
   x2="24.0484"
   y2="14.3539">
   <stop
   offset="0"
   style="stop-color:#A2A2A2"
   id="stop35" />
   <stop
   offset="1"
   style="stop-color:#B3B3B3"
   id="stop37" />
  </linearGradient>
  <linearGradient
   id="id5"
   gradientUnits="userSpaceOnUse"
   x1="23.8193"
   y1="18.9236"
   x2="23.8193"
   y2="44.3386">
   <stop
   offset="0"
   style="stop-color:#295283"
   id="stop40" />
   <stop
   offset="0.678431"
   style="stop-color:#4676A6"
   id="stop42" />
   <stop
   offset="1"
   style="stop-color:#71ABDB"
   id="stop44" />
  </linearGradient>
  <linearGradient
   id="id6"
   gradientUnits="userSpaceOnUse"
   x1="26.9303"
   y1="45.2386"
   x2="26.1366"
   y2="15.8598">
   <stop
   offset="0"
   style="stop-color:#C0E8FC"
   id="stop47" />
   <stop
   offset="0.619608"
   style="stop-color:#7BB2DE"
   id="stop49" />
   <stop
   offset="1"
   style="stop-color:#5C98CB"
   id="stop51" />
  </linearGradient>
 
  
  
  
  
  
  
  
  
  
  
  
  
  
  
  
  
  
  
  
  
  
  
  
  
  
  
  
  
  
 <linearGradient
   inkscape:collect="always"
   xlink:href="#id5"
   id="linearGradient3065"
   gradientUnits="userSpaceOnUse"
   x1="23.8193"
   y1="18.9236"
   x2="23.8193"
   y2="44.3386" /><linearGradient
   inkscape:collect="always"
   xlink:href="#id2"
   id="linearGradient3076"
   gradientUnits="userSpaceOnUse"
   x1="23.9043"
   y1="22.265"
   x2="24.7996"
   y2="40.5626" /><linearGradient
   inkscape:collect="always"
   xlink:href="#id6"
   id="linearGradient3085"
   gradientUnits="userSpaceOnUse"
   x1="26.9303"
   y1="45.2386"
   x2="26.1366"
   y2="15.8598" /><linearGradient
   inkscape:collect="always"
   xlink:href="#id3"
   id="linearGradient3088"
   gradientUnits="userSpaceOnUse"
   x1="23.5961"
   y1="17.922"
   x2="24.4961"
   y2="44.2606" /><linearGradient
   inkscape:collect="always"
   xlink:href="#id0"
   id="linearGradient3092"
   gradientUnits="userSpaceOnUse"
   x1="24.0059"
   y1="16.128"
   x2="24.0059"
   y2="46.0524" /><linearGradient
   inkscape:collect="always"
   xlink:href="#id4"
   id="linearGradient3095"
   gradientUnits="userSpaceOnUse"
   x1="23.9634"
   y1="16.9665"
   x2="24.0484"
   y2="14.3539" /><linearGradient
   inkscape:collect="always"
   xlink:href="#id1"
   id="linearGradient3111"
   gradientUnits="userSpaceOnUse"
   x1="22.9098"
   y1="6.94488"
   x2="25.1008"
   y2="24.3768" /></defs>
 <g
   id="_157169768">
   <path
   style="fill:#000000;fill-opacity:0"
   inkscape:connector-curvature="0"
   d="m 22.7917,40.4539 c 9.47362,0 20.9539,2.96457 24.6992,5.07992 0.863386,0.487795 0.514961,2.14488 0.514961,2.33031 0,0.0083 -0.04252,0.01653 -0.112205,0.02598 l -47.4484,0 C 0.282264,47.8783 0.191319,47.86531 0.191319,47.8535 c 0.0555118,0.132283 -0.393307,-0.998031 0.484252,-1.6252 3.34016,-2.38937 13.0984,-5.77441 22.1161,-5.77441 z"
   class="fil0"
   id="_67257312" />
   <g
   id="g57">
    <path
   style="fill:#000000;fill-opacity:0.01176501"
   inkscape:connector-curvature="0"
   d="m 22.9063,40.9098 c 9.2811,0 20.5984,2.68465 24.3059,4.66535 0.877559,0.462992 0.555118,2.01142 0.555118,2.20157 0,0.0437 -0.882283,0.0815 -2.39646,0.113386 l -42.0661,0 c -1.69606,-0.03189 -2.69409,-0.06968 -2.69409,-0.113386 0,-0.225591 -0.488976,-0.970866 0.527953,-1.57323 3.4252,-2.04803 12.9165,-5.2937 21.7677,-5.2937 z"
   class="fil1"
   id="_172666648" />
    <path
   style="fill:#000000;fill-opacity:0.02745098"
   inkscape:connector-curvature="0"
   d="m 23.0197,41.3646 c 9.08976,0 20.0161,2.4189 23.6846,4.26378 0.892913,0.437008 0.596457,1.87795 0.596457,2.07283 0,0.08858 -3.50787,0.15 -8.58661,0.188976 l -28.2992,0 c -5.49449,-0.03898 -9.3626,-0.102756 -9.3626,-0.188976 0,-0.229134 -0.480709,-0.959055 0.549213,-1.52244 3.41339,-1.90039 12.7335,-4.81417 21.4181,-4.81417 z"
   class="fil2"
   id="_67467472" />
    <path
   style="fill:#000000;fill-opacity:0.03921599"
   inkscape:connector-curvature="0"
   d="m 23.1331,41.8205 c 8.89961,0 19.4339,2.15197 23.0634,3.86102 0.907087,0.412205 0.636614,1.74567 0.636614,1.94291 0,0.322441 -45.339,0.3 -45.339,0 0,-0.230315 -0.472441,-0.946063 0.569291,-1.47047 3.40394,-1.75394 12.5516,-4.33346 21.0697,-4.33346 z"
   class="fil3"
   id="_153561640" />
    <path
   style="fill:#000000;fill-opacity:0.05490202"
   inkscape:connector-curvature="0"
   d="m 23.2465,42.2764 c 8.70945,0 18.8528,1.88504 22.4433,3.45945 0.92126,0.38622 0.676772,1.61102 0.676772,1.81417 0,0.32126 -44.4295,0.3 -44.4295,0 0,-0.233858 -0.464173,-0.935433 0.58937,-1.42087 3.39331,-1.60748 12.3697,-3.85276 20.7201,-3.85276 z"
   class="fil4"
   id="_147182512" />
    <path
   style="fill:#000000;fill-opacity:0.06666703"
   inkscape:connector-curvature="0"
   d="m 23.3587,42.7323 c 8.51811,0 18.2705,1.61693 21.822,3.05551 0.936614,0.361417 0.719291,1.47874 0.719291,1.68425 0,0.322441 -43.5213,0.3 -43.5213,0 0,-0.23622 -0.455906,-0.922441 0.609449,-1.37008 3.38268,-1.45866 12.1866,-3.36969 20.3705,-3.36969 z"
   class="fil5"
   id="_147180408" />
    <path
   style="fill:#000000;fill-opacity:0.07843101"
   inkscape:connector-curvature="0"
   d="m 23.472,43.1882 c 8.32677,0 17.6882,1.35 21.202,2.65276 0.950787,0.336614 0.758268,1.34528 0.758268,1.55669 0,0.32126 -42.6118,0.3 -42.6118,0 0,-0.238583 -0.447638,-0.911811 0.629528,-1.31929 3.37205,-1.31339 12.0047,-2.89016 20.022,-2.89016 z"
   class="fil6"
   id="_144805704" />
    <path
   style="fill:#000000;fill-opacity:0.09411801"
   inkscape:connector-curvature="0"
   d="m 23.5854,43.6441 c 8.13543,0 17.1059,1.08307 20.5807,2.25 0.964961,0.311811 0.799606,1.21299 0.799606,1.42795 0,0.32126 -41.7035,0.3 -41.7035,0 0,-0.242126 -0.438189,-0.9 0.649606,-1.2685 3.3626,-1.16693 11.8228,-2.40945 19.6736,-2.40945 z"
   class="fil7"
   id="_156226472" />
    <path
   style="fill:#000000;fill-opacity:0.10588199"
   inkscape:connector-curvature="0"
   d="m 23.7,44.0988 c 7.94291,0 16.5224,0.816142 19.9594,1.84843 0.979134,0.287008 0.839764,1.07953 0.839764,1.29803 0,0.322441 -40.7941,0.3 -40.7941,0 0,-0.243307 -0.431102,-0.887008 0.669685,-1.21654 3.35197,-1.02047 11.6398,-1.92992 19.3252,-1.92992 z"
   class="fil8"
   id="_141696640" />
   </g>
   <path
   style="fill:#000000;fill-opacity:0.12156899"
   inkscape:connector-curvature="0"
   d="m 23.8122,44.5559 c 7.75394,0 15.9413,0.548031 19.3394,1.44449 0.994488,0.262205 0.881102,0.946063 0.881102,1.16929 0,0.322441 -39.8858,0.3 -39.8858,0 0,-0.24685 -0.422835,-0.875197 0.689764,-1.16575 3.34134,-0.872835 11.4579,-1.44803 18.9756,-1.44803 z"
   class="fil9"
   id="_173634080" />
  </g><path
   inkscape:connector-curvature="0"
   style="fill:url(#linearGradient3111)"
   id="path68"
   d="m 39.6248,11.4969 3.9874,-0.0248 c 0.88937,-0.0047 1.61693,0.72874 1.61693,1.61811 l 0.02598,9.08031 c 0,0.88937 -0.727559,1.61811 -1.61693,1.61811 l -3.9874,0 -21.4276,0 -4.72559,0 -5.1106297,0 -3.98858,0 -0.098032,0 0,-0.0035 c -0.843307,-0.05079 -1.5189,-0.758268 -1.5189,-1.61457 l -0.025984,-9.08031 c 0,-0.88937 0.727559,-1.62283 1.61811,-1.61811 l 2.06457,0.01299 c 0.747638,-0.167717 1.39843,-0.624803 1.95591,-1.8318903 0.372047,-0.806693 0.713386,-2.12008 1.60276,-2.12008 l 3.5007897,0 4.72559,0 3.74173,0 c 0.88937,0 1.17756,1.31339 1.55079,2.12008 1.00394,2.1755903 2.31378,1.9133903 3.9378,1.9204703 l 12.1713,-0.07677 0,0 z"
   class="fil10" /><path
   style="fill:#ffffff;fill-rule:nonzero"
   inkscape:connector-curvature="0"
   id="path70"
   d="m 40.1232,11.9882 3.9874,-0.02362 0.0024,-0.0024 0.01063,0 c 0.304724,0 0.595276,0.06614 0.85748,0.185433 l 0,1.22598 -0.07677,-0.08504 -0.0012,0 C 44.703534,13.088947 44.425975,12.96375 44.123612,12.96375 l -0.01063,0 0,-0.0024 -3.98504,0.02362 -12.1713,0.07795 -0.478346,0.0024 c -1.57913,0.0189 -2.87835,0.03307 -3.91535,-2.2122 l 0.0012,0 -0.0059,-0.0094 -0.07087,-0.152362 0.344882,-0.259843 0.635433,0 0.0024,0.0035 c 0.765354,1.65827 1.77283,1.64882 2.99646,1.63346 l 0.0035,0 0.48189,-0.0024 12.1713,-0.07795 z m 4.85787,13.1126 c -0.258661,0.113386 -0.544488,0.178346 -0.842126,0.178346 l -3.9874,0 -21.4264,0 -4.72559,0 -5.11181,0 -3.9874,0 -0.098031,0 -0.500787,0 0,-0.08976 C 3.936565,25.080725 3.611762,24.877575 3.359006,24.608284 3.002313,24.230331 2.781447,23.717733 2.781447,23.160254 l -0.025984,-9.08031 0,-0.01063 0.00236,-0.0024 c 0.00236,-0.575197 0.240945,-1.10315 0.620079,-1.48346 l 0,-0.0012 c 0.380315,-0.380315 0.908268,-0.618898 1.48583,-0.617717 l 0,-0.0024 0.01063,0 0.00236,0.0024 2.00551,0.01181 c 0.217323,-0.05433 0.426378,-0.141732 0.62126,-0.279921 L 8.22987,12.39682 c -0.369685,0.3 -0.766535,0.47126 -1.18465,0.564567 l -0.05315,0.01181 -0.056693,0 -2.06102,-0.01181 0,0.0024 -0.01063,0 0,-0.0024 c -0.3,0 -0.577559,0.125197 -0.779528,0.327165 l -0.00118,0 C 3.882232,13.489339 3.757035,13.76808 3.754673,14.069261 l 0.00236,0 0,0.01063 0.025984,9.08031 c 0,0.294094 0.115748,0.564567 0.303543,0.762992 0.190157,0.200787 0.454724,0.335433 0.745276,0.35315 l 0.020079,0.0012 0.048425,0 3.9874,0 5.11181,0 4.72559,0 21.4264,0 3.9874,0 c 0.308268,0 0.588189,-0.126378 0.788976,-0.327165 l 0.0012,-0.0012 0.05197,-0.05551 0,1.20709 z M 9.18537,9.0036 C 9.492457,8.498088 9.899937,8.022104 10.49757,8.022104 l 3.50197,0 4.72559,0 3.74055,0 c 0.659055,0 1.06299,0.432283 1.36654,0.981496 l -14.6469,0 z"
   class="fil11" /><g
   id="_65277280">
   <path
   style="fill:#aeb2b5;fill-opacity:0"
   inkscape:connector-curvature="0"
   d="m 2.7815,13.0276 41.9882,0 c 0.0035,0.04488 0.0059,0.09094 0.0059,0.137008 l 0,9.59646 c 0,0.879921 -0.719291,1.59921 -1.59921,1.59921 l -3.94252,0 -21.189,0 -4.67244,0 -5.0551205,0 -3.94252,0 -0.09685,0 0,-0.0024 c -0.835039,-0.05079 -1.50236,-0.75 -1.50236,-1.59685 l 0,-9.59646 c 0,-0.04606 0.00118,-0.09213 0.00591,-0.137008 z"
   class="fil12"
   id="_142856856" />
   <g
   id="g74">
    <path
   style="fill:#aeb2b5;fill-opacity:0.05490202"
   inkscape:connector-curvature="0"
   d="m 2.77559,13.1965 42,0 0,9.56457 c 0,0.879921 -0.719291,1.59921 -1.59921,1.59921 l -3.94252,0 -21.189,0 -4.67244,0 -5.05512,0 -3.94252,0 -0.09685,0 0,-0.0024 c -0.835039,-0.05079 -1.50236,-0.75 -1.50236,-1.59685 l 0,-9.56457 z"
   class="fil13"
   id="_142643184" />
    <path
   style="fill:#aeb2b5;fill-opacity:0.10980398"
   inkscape:connector-curvature="0"
   d="m 2.77559,13.3654 42,0 0,9.39567 c 0,0.879921 -0.719291,1.59921 -1.59921,1.59921 l -3.94252,0 -21.189,0 -4.67244,0 -5.05512,0 -3.94252,0 -0.09685,0 0,-0.0024 c -0.835039,-0.05079 -1.50236,-0.75 -1.50236,-1.59685 l 0,-9.39567 z"
   class="fil14"
   id="_49812936" />
    <path
   style="fill:#aeb2b5;fill-opacity:0.164706"
   inkscape:connector-curvature="0"
   d="m 2.77559,13.5331 42,0 0,9.22795 c 0,0.879921 -0.719291,1.59921 -1.59921,1.59921 l -3.94252,0 -21.189,0 -4.67244,0 -5.05512,0 -3.94252,0 -0.09685,0 0,-0.0024 c -0.835039,-0.05079 -1.50236,-0.75 -1.50236,-1.59685 l 0,-9.22795 z"
   class="fil15"
   id="_172666136" />
    <path
   style="fill:#aeb2b5;fill-opacity:0.22352899"
   inkscape:connector-curvature="0"
   d="m 2.77559,13.702 42,0 0,9.05906 c 0,0.879921 -0.719291,1.59921 -1.59921,1.59921 l -3.94252,0 -21.189,0 -4.67244,0 -5.05512,0 -3.94252,0 -0.09685,0 0,-0.0024 c -0.835039,-0.05079 -1.50236,-0.75 -1.50236,-1.59685 l 0,-9.05906 z"
   class="fil16"
   id="_64530088" />
    <path
   style="fill:#aeb2b5;fill-opacity:0.27843101"
   inkscape:connector-curvature="0"
   d="m 2.77559,13.8709 42,0 0,8.89016 c 0,0.879921 -0.719291,1.59921 -1.59921,1.59921 l -3.94252,0 -21.189,0 -4.67244,0 -5.05512,0 -3.94252,0 -0.09685,0 0,-0.0024 c -0.835039,-0.05079 -1.50236,-0.75 -1.50236,-1.59685 l 0,-8.89016 z"
   class="fil17"
   id="_65379840" />
    <path
   style="fill:#aeb2b5;fill-opacity:0.33333297"
   inkscape:connector-curvature="0"
   d="m 2.77559,14.0386 42,0 0,8.72244 c 0,0.879921 -0.719291,1.59921 -1.59921,1.59921 l -3.94252,0 -21.189,0 -4.67244,0 -5.05512,0 -3.94252,0 -0.09685,0 0,-0.0024 C 3.442891,24.30706 2.77557,23.60785 2.77557,22.761 l 0,-8.72244 z"
   class="fil18"
   id="_48175128" />
    <path
   style="fill:#aeb2b5;fill-opacity:0.38823499"
   inkscape:connector-curvature="0"
   d="m 2.77559,14.2075 42,0 0,8.55354 c 0,0.879921 -0.719291,1.59921 -1.59921,1.59921 l -3.94252,0 -21.189,0 -4.67244,0 -5.05512,0 -3.94252,0 -0.09685,0 0,-0.0024 C 3.442891,24.30706 2.77557,23.60785 2.77557,22.761 l 0,-8.55354 z"
   class="fil19"
   id="_143818384" />
    <path
   style="fill:#aeb2b5;fill-opacity:0.44313702"
   inkscape:connector-curvature="0"
   d="m 2.77559,14.3752 42,0 0,8.38583 c 0,0.879921 -0.719291,1.59921 -1.59921,1.59921 l -3.94252,0 -21.189,0 -4.67244,0 -5.05512,0 -3.94252,0 -0.09685,0 0,-0.0024 c -0.835039,-0.05079 -1.50236,-0.75 -1.50236,-1.59685 l 0,-8.38583 z"
   class="fil20"
   id="_65823304" />
   </g>
   <path
   style="fill:#aeb2b5;fill-opacity:0.5019609"
   inkscape:connector-curvature="0"
   d="m 2.77559,14.5441 42,0 0,8.21693 c 0,0.879921 -0.719291,1.59921 -1.59921,1.59921 l -3.94252,0 -21.189,0 -4.67244,0 -5.05512,0 -3.94252,0 -0.09685,0 0,-0.0024 c -0.835039,-0.05079 -1.50236,-0.75 -1.50236,-1.59685 l 0,-8.21693 z"
   class="fil21"
   id="_64006560" />
  </g><path
   sodipodi:nodetypes="cccsccccccsssccccccccccccccccccccccccccscccccccccccccccsccscccccccccccccccccccccccsssccccccsccc"
   style="fill:url(#linearGradient3095);fill-rule:nonzero"
   inkscape:connector-curvature="0"
   id="path85"
   d="m 39.6224,10.9984 3.9874,-0.02362 0.0024,-0.0024 0.01063,0 c 0.577559,0 1.10433,0.238583 1.48583,0.620079 l 0,0.0012 c 0.379134,0.380315 0.617717,0.907087 0.620079,1.48228 l 0.0024,0.0024 0,0.01063 0.02598,9.0815 c 0,0.57874 -0.239764,1.11024 -0.623622,1.49409 l -0.0012,0.0012 c -0.383857,0.383858 -0.915354,0.623622 -1.49409,0.623622 l -3.9874,0 -21.4264,0 -4.72559,0 -5.1118095,0 -3.9874,0 -0.098031,0 -0.500787,0 0,-0.08976 C 3.435775,24.090916 3.110972,23.887766 2.858216,23.618475 2.501523,23.240522 2.280657,22.727924 2.280657,22.170445 l -0.025984,-9.08031 0,-0.01063 0.00236,-0.0024 c 0.00236,-0.575197 0.240945,-1.10315 0.620079,-1.48346 l 0,-0.0012 C 3.257427,11.21213 3.78538,10.973547 4.362942,10.974728 l 0,-0.0024 0.01063,0 0.00236,0.0024 2.00551,0.01181 C 6.657824,10.916911 6.917666,10.795257 7.158611,10.58384 7.430265,10.345257 7.717272,9.3590401 7.964123,8.8275401 l 0,-0.00118 C 8.571345,7.5960064 9.1050486,7.0509889 9.9968021,7.032263 l 3.5019699,0 4.72559,0 3.74055,0 c 1.20472,0 1.58268,0.818504 2.02559,1.77992 l -0.02717,0.623622 0.0059,0.00945 c 0.765354,1.65827 1.77283,1.64882 2.99646,1.63346 l 0.0035,0 0.48189,-0.0024 12.1713,-0.07795 z m 3.98976,0.973228 -3.98504,0.02362 -12.1713,0.07795 -0.478346,0.0024 c -1.57913,0.0189 -2.87835,0.03307 -3.91535,-2.2122 l 0.02717,-0.623622 -0.0059,-0.00945 c -0.297638,-0.646063 -0.551575,-1.19646 -1.1185,-1.19646 l -3.74055,0 -4.72559,0 -3.5019701,0 c -0.564567,0 -1.2538956,1.4620604 -1.4556195,2.021381 -0.2017239,0.559321 -0.4926204,0.885659 -0.7258929,1.27977 -0.394488,0.346063 -0.819685,0.53622 -1.27087,0.636614 l -0.05315,0.01181 -0.056693,0 -2.06102,-0.01181 0,0.0024 -0.01063,0 0,-0.0024 c -0.3,0 -0.577559,0.125197 -0.779528,0.327165 l -0.00118,0 c -0.200787,0.200787 -0.325984,0.479528 -0.328346,0.780709 l 0.00236,0 0,0.01063 0.025984,9.08031 c 0,0.294094 0.115748,0.564567 0.303543,0.762992 0.190157,0.200787 0.454724,0.335433 0.745276,0.35315 l 0.020079,0.0012 0.048425,0 3.9874,0 5.1118095,0 4.72559,0 21.4264,0 3.9874,0 c 0.308268,0 0.588189,-0.126378 0.788976,-0.327165 l 0.0012,-0.0012 c 0.200787,-0.200787 0.327165,-0.48189 0.327165,-0.788976 l -0.02598,-9.0815 0,-0.01063 0.0024,0 c -0.0024,-0.3 -0.127559,-0.57874 -0.328346,-0.779528 l -0.0012,0 C 44.20269,12.099182 43.925131,11.973985 43.622768,11.973985 l -0.01063,0 0,-0.0024 z"
   class="fil22" /><path
   inkscape:connector-curvature="0"
   style="fill:url(#linearGradient3092)"
   id="path87"
   d="m 2.37047,15.5055 c -0.774803,0.187795 -2.06575,0.778346 -1.84488,2.62205 0.312992,2.60433 1.35472,12.3969 1.35472,14.5854 0,2.1874 0.103937,10.3323 0.103937,10.3323 0,0 -0.207874,3.12638 3.43819,2.91732 l 0.284646,0.03898 36.4701,0.504331 0.413386,-0.03898 c 3.64606,0.209055 3.43701,-3.42165 3.43701,-3.42165 0,0 0.105118,-8.14488 0.105118,-10.3323 0,-2.18858 1.04173,-11.9811 1.35354,-14.5854 0.220866,-1.8437 -1.07008,-2.43425 -1.84488,-2.62205 l -43.2709,0 z"
   class="fil23" /><path
   style="fill:#b0e2fc;fill-opacity:0.78039198"
   inkscape:connector-curvature="0"
   id="path89"
   d="m 47.5157,18.5362 -0.511417,-0.737008 c -0.05906,-0.09567 -0.125197,-0.180709 -0.198425,-0.255118 -0.288189,-0.296457 -0.681496,-0.455906 -0.992126,-0.538583 l -43.1693,0 c -0.31063,0.08268 -0.703937,0.242126 -0.992126,0.538583 -0.073228,0.07441 -0.13937,0.159449 -0.198425,0.255118 l -1.08425,0 c 0.127559,-0.385039 0.33189,-0.694488 0.575197,-0.94252 0.470079,-0.483071 1.08189,-0.716929 1.53307,-0.825591 l 0.068504,-0.01654 0.047244,0 43.2709,0 0.04843,0 0.06732,0.01654 c 0.451181,0.108661 1.06299,0.34252 1.53307,0.825591 0.243307,0.248031 -0.125197,1.29449 0.0024,1.67953 z"
   class="fil24" /><path
   inkscape:connector-curvature="0"
   style="fill:url(#linearGradient3088);fill-rule:nonzero"
   id="path91"
   d="m 2.66811,16.0063 c -0.311811,0.08268 -0.701575,0.240945 -0.989764,0.53622 -0.297638,0.304724 -0.499606,0.784252 -0.411024,1.52598 0.185433,1.55315 0.641339,5.74961 0.975591,9.35197 0.218504,2.3563 0.383858,4.4315 0.383858,5.29252 0,2.36102 0.395669,10.7362 0.395669,10.8248 l 0.00236,0.0059 c 0,0.0071 -0.174803,2.59488 2.91024,2.4189 l 0.093307,0.0035 0.240945,0.03307 36.0378,0 0.366142,-0.03425 0.07441,-0.0024 c 3.08504,0.175984 2.90906,-2.41181 2.90906,-2.4189 l 0.0024,-0.0059 c 0,-0.08858 -0.191339,-8.45551 -0.191339,-10.8248 0,-0.858661 0.164173,-2.92677 0.382677,-5.27835 0.334252,-3.60354 0.788976,-7.80945 0.975591,-9.36614 0.08858,-0.741732 -0.113386,-1.22126 -0.411024,-1.52598 -0.288189,-0.295276 -0.677953,-0.453543 -0.989764,-0.53622 l -42.7571004,0 z M 0.9626,15.848032 C 1.436222,15.36378 2.04685,15.131103 2.49921,15.02126 l 0.116929,-0.01653 42.861,0 0.116929,0.01653 c 0.452362,0.109843 1.06299,0.34252 1.53661,0.826772 0.485433,0.497244 0.819685,1.24016 0.687402,2.33858 -0.190157,1.59449 -0.649606,5.81693 -0.975591,9.3378 -0.212598,2.29252 -0.373228,4.32283 -0.373228,5.18858 0,1.98661 0.190157,10.6004 0.186614,10.8307 l 0.0024,0 c 0,0.01063 0.239764,3.63543 -3.93071,3.41693 l -0.373228,0.03543 -0.04724,0.0047 -36.0601999,0 -0.066142,-0.0059 -0.243307,-0.03307 c -4.15039,0.207874 -3.91417,-3.40748 -3.91417,-3.41811 l 0.00236,0 c -0.00354,-0.230315 -0.400394,-8.83701 -0.400394,-10.8307 0,-0.869291 -0.161811,-2.90551 -0.374409,-5.20276 -0.325984,-3.5185 -0.785433,-7.7315 -0.975591,-9.32362 -0.132283,-1.09843 0.201969,-1.84134 0.687402,-2.33858 z"
   class="fil25" /><path
   sodipodi:nodetypes="ssssscsccsccsccscccccc"
   style="fill:url(#linearGradient3085);fill-opacity:0.50196084"
   inkscape:connector-curvature="0"
   id="path93"
   d="m 24.2445,18.3886 c 7.31929,0 13.2531,5.93386 13.2531,13.2531 0,7.31929 -5.93386,13.2531 -13.2531,13.2531 -7.31929,0 -13.2531,-5.93386 -13.2531,-13.2531 0,-7.31929 5.93386,-13.2531 13.2531,-13.2531 z m 8.61969,4.62874 c -2.20157,-2.20394 -5.25118,-3.56811 -8.61969,-3.56811 -3.3685,0 -6.41811,1.36417 -8.61969,3.56811 l -0.0047,0.0047 c -2.20394,2.20157 -3.56811,5.25118 -3.56811,8.61969 0,3.3685 1.36417,6.41811 3.56811,8.61969 l 0.0047,0.0047 c 2.20157,2.20394 5.25118,3.56811 8.61969,3.56811 3.3685,0 6.41811,-1.36417 8.61969,-3.56811 l 0.0047,-0.0047 c 2.20394,-2.20157 3.56811,-5.25118 3.56811,-8.61969 0,-3.3685 -1.36417,-6.41811 -3.56811,-8.61969 z m 1.064173,16.489359 -0.0012,0.0035 0.0012,0 z"
   class="fil26" /><line
   style="fill:none"
   id="line95"
   y2="38.8134"
   x2="30.013"
   y1="38.519299"
   x1="30.013"
   class="fil27" /><path
   style="fill:none"
   inkscape:connector-curvature="0"
   id="path97"
   d="m 30.0496,38.8276 c 0.06732,0.02953 0.129921,0.05906 0.164173,0.08268"
   class="fil27" /><polyline
   style="fill:none"
   id="polyline99"
   points="30.0201,38.8157 30.0496,38.8276 30.0496,38.4827 "
   class="fil27" /><polyline
   style="fill:none"
   id="polyline101"
   points="30.013,38.8134 30.0201,38.8157 30.0307,38.5016 "
   class="fil27" /><polyline
   style="fill:none"
   id="polyline103"
   points="30.0496,38.4827 30.2138,38.3185 30.0496,38.3185 "
   class="fil27" /><polyline
   style="fill:none"
   id="polyline105"
   points="30.0307,38.5016 30.0496,38.4827 30.0496,38.3185 30.0366,38.3185 "
   class="fil27" /><path
   inkscape:connector-curvature="0"
   style="fill:url(#linearGradient3076)"
   id="path107"
   d="m 24.352,18.9236 c 6.89764,0 12.4902,5.59252 12.4902,12.4902 0,6.89764 -5.59252,12.4902 -12.4902,12.4902 -6.89764,0 -12.4902,-5.59252 -12.4902,-12.4902 0,-6.89764 5.59252,-12.4902 12.4902,-12.4902 z m 8.25591,20.002 -0.0012,0.0024 0.0012,0 0,-0.0024 z m -15.6319,-12.9295 0.04961,0 0.04961,-0.556299 c 0.02362,-0.263386 0.225591,-0.479528 0.500787,-0.479528 l 2.4685,0 c 0.276378,0 0.509055,0.216142 0.501969,0.479528 l -0.04961,0.556299 10.6016,0 c 0.522047,0 0.946063,0.649606 0.94252,1.16929 l -0.05551,10.0382 c -0.0024,0.520866 -0.427559,0.947244 -0.947244,0.947244 l -14.1224,0 c -0.520866,0 -0.951969,-0.426378 -0.947244,-0.947244 l 0.06024,-10.2602 c 0.0024,-0.520866 0.425197,-0.947244 0.947244,-0.947244 z m 12.4335,1.35709 1.5189,0 c 0.09685,0 0.174803,0.05551 0.174803,0.124016 l 0,0.451181 c 0,0.06968 -0.07795,0.125197 -0.174803,0.125197 l -1.5189,0 c -0.09685,0 -0.174803,-0.05551 -0.174803,-0.125197 l 0,-0.451181 c 0,-0.0685 0.07795,-0.124016 0.174803,-0.124016 z m -8.42008,0.446457 0,8.20984 -0.673228,0 0,-8.20984 0.673228,0 z"
   class="fil28" /><path
   sodipodi:nodetypes="cccccscccccscccccccccccccccscccccsccccccccccssccsccsscccc"
   style="fill:#4272a0;fill-opacity:0.21960802"
   inkscape:connector-curvature="0"
   id="path109"
   d="m 16.565,25.5555 0.01417,-0.158268 -0.0024,0 c 0.02126,-0.253937 0.138189,-0.491339 0.314173,-0.661417 l 0.0035,-0.0024 c 0.177165,-0.167717 0.413386,-0.274016 0.681496,-0.274016 l 2.4685,0 0.01417,0 0.01181,0.0024 c 0.258661,0.0059 0.497244,0.111024 0.672047,0.275197 l 0.0059,0.0059 c 0.185433,0.177165 0.298819,0.422835 0.298819,0.685039 l 0,0.01181 -0.0047,0.04252 -0.0012,0.01299 10.0571,0 0.0047,0 0.0024,0.0024 c 0.427559,0.0012 0.80315,0.24685 1.05709,0.587008 l 0.0012,-0.0012 c 0.231496,0.305906 0.375591,0.712205 0.375591,1.07598 l 0.0024,0 0,0.0059 -0.0024,0.0024 -0.05551,10.0382 c -0.0012,0.39685 -0.166535,0.758268 -0.425197,1.01929 l 0,0.0012 c -0.262205,0.262205 -0.623622,0.425197 -1.02047,0.425197 l -14.1224,0 -0.0083,0 -0.0035,-0.0024 c -0.392126,-0.0035 -0.753543,-0.165354 -1.0122,-0.424016 l 0.0012,0 c -0.261,-0.258685 -0.425173,-0.618922 -0.425173,-1.013414 l 0,-0.0083 0.0024,-0.0024 0.06024,-10.2602 c 0.0012,-0.395669 0.164173,-0.76063 0.426378,-1.02047 l -0.0012,0 c 0.167717,-0.167717 0.376772,-0.295276 0.609449,-0.364961 z m 0.411024,0.440551 0.04961,0 0.04961,-0.556299 c 0.02362,-0.263386 0.225591,-0.479528 0.500787,-0.479528 l 2.4685,0 c 0.276378,0 0.509055,0.216142 0.501969,0.479528 l -0.04961,0.556299 10.6016,0 c 0.522047,0 0.946063,0.649606 0.94252,1.16929 l -0.05551,10.0382 c -0.0024,0.520866 -0.427559,0.947244 -0.947244,0.947244 l -14.1224,0 c -0.520866,0 -0.951969,-0.426378 -0.947244,-0.947244 l 0.06024,-10.2602 c 0.0024,-0.520866 0.425197,-0.947244 0.947244,-0.947244 z"
   class="fil29" /><path
   style="fill:#91c7ed;fill-rule:nonzero"
   inkscape:connector-curvature="0"
   id="path111"
   d="m 20.7992,26.0173 10.4988,0 c 0.427559,0.09213 0.751181,0.474803 0.747638,0.925984 l 0,0.07559 -11.2465,0 0,-1.00157 z"
   class="fil30" /><path
   style="fill:#91c7ed;fill-rule:nonzero"
   inkscape:connector-curvature="0"
   id="path113"
   d="m 20.4531,25.9606 -3.39449,0 0,-0.493701 c 0,-0.264567 0.225591,-0.479528 0.500787,-0.479528 l 2.39173,0.0059 c 0.276378,0 0.501969,0.219685 0.501969,0.479528 l 0,0.487795 z"
   class="fil30" /><path
   style="fill:#3b658c;fill-opacity:0.78039198"
   inkscape:connector-curvature="0"
   id="path115"
   d="m 15.7724,38.0894 c 0.108661,-0.131102 0.227953,-0.255118 0.347244,-0.370866 0.168898,0.259843 0.464173,0.432283 0.796063,0.432283 l 14.1224,0 c 0.126378,0 0.24685,-0.0248 0.357874,-0.07087 0.133465,0.114567 0.253937,0.239764 0.366142,0.374409 -0.21378,0.125197 -0.46063,0.197244 -0.724016,0.197244 l -14.1224,0 -0.0083,0 -0.0035,-0.0024 c -0.392126,-0.0035 -0.753543,-0.165354 -1.0122,-0.424016 l 0.0012,0 c -0.04252,-0.04252 -0.08268,-0.0874 -0.120472,-0.135827 z"
   class="fil31" /><polygon
   style="fill:#abd8fc;fill-opacity:0.12156899;fill-rule:nonzero"
   id="polygon117"
   points="16.0146,37.0098 16.0146,27.0177 16.9866,27.0177 16.9866,37.0098 "
   class="fil32" /><path
   sodipodi:nodetypes="cscccc"
   style="fill:#94cdfc;fill-rule:nonzero"
   inkscape:connector-curvature="0"
   id="path119"
   d="m 17.03422,26.020845 c -0.0281,-0.01718 -0.08363,-0.0082 -0.08363,-0.0082 -0.522048,0 -0.958507,0.266831 -0.962051,0.787697 l -0.0012,0.218504 1.05354,0 z"
   class="fil33" /><path
   style="fill:#5482ab;fill-rule:nonzero"
   inkscape:connector-curvature="0"
   id="path121"
   d="m 26.9374,28.6559 c 1.09016,0 2.07874,0.433465 2.79449,1.12913 l 0.0012,0.0024 c 0.713386,0.69685 1.15866,1.66063 1.15866,2.72244 0,1.06417 -0.442913,2.02677 -1.15866,2.7248 -0.716929,0.699213 -1.70433,1.1315 -2.79567,1.1315 -1.09016,0 -2.07992,-0.431102 -2.79685,-1.12913 -0.715748,-0.699213 -1.15866,-1.66417 -1.15866,-2.72717 0,-1.06299 0.444094,-2.02559 1.15984,-2.7248 0.716929,-0.698031 1.70433,-1.12913 2.79567,-1.12913 z m 2.05748,1.85079 -0.0012,-0.0012 c -0.525591,-0.509055 -1.25315,-0.826772 -2.0563,-0.826772 -0.804331,0 -1.53071,0.316535 -2.05512,0.827953 -0.524409,0.511417 -0.851575,1.22126 -0.851575,2.00315 0,0.784252 0.324803,1.49409 0.849213,2.00551 0.525591,0.511417 1.25315,0.827953 2.05748,0.827953 0.80315,0 1.53071,-0.317717 2.0563,-0.829134 0.524409,-0.511417 0.849213,-1.22008 0.849213,-2.00433 0,-0.78189 -0.327165,-1.49173 -0.848031,-2.00315 z"
   class="fil34" /><polygon
   style="fill:#abd8fc;fill-opacity:0.12156899;fill-rule:nonzero"
   id="polygon123"
   points="31.0028,37.0098 31.0028,27.0177 31.9748,27.0177 31.9748,37.0098 "
   class="fil32" /><path
   sodipodi:nodetypes="ssssscsccsccsccscccccc"
   style="fill:url(#linearGradient3065);fill-opacity:0.43921599"
   inkscape:connector-curvature="0"
   id="path125"
   d="m 24.352,18.9236 c 6.89764,0 12.4902,5.59252 12.4902,12.4902 0,6.89764 -5.59252,12.4902 -12.4902,12.4902 -6.89764,0 -12.4902,-5.59252 -12.4902,-12.4902 0,-6.89764 5.59252,-12.4902 12.4902,-12.4902 z m 8.12362,4.36181 c -2.0752,-2.07638 -4.94882,-3.3626 -8.12362,-3.3626 -3.1748,0 -6.04843,1.28622 -8.12362,3.3626 l -0.0047,0.0047 c -2.07638,2.0752 -3.3626,4.94882 -3.3626,8.12362 0,3.1748 1.28622,6.04843 3.3626,8.12362 l 0.0047,0.0047 c 2.0752,2.07638 4.94882,3.3626 8.12362,3.3626 3.1748,0 6.04843,-1.28622 8.12362,-3.3626 l 0.0047,-0.0047 c 2.07638,-2.0752 3.3626,-4.94882 3.3626,-8.12362 0,-3.1748 -1.28622,-6.04843 -3.3626,-8.12362 z m 1.002756,15.540937 -0.0012,0.0024 0.0012,0 z"
   class="fil35" /><polygon
   style="fill:#91c7ed"
   id="polygon127"
   points="19.9453,36.8256 19.9453,35.5441 19.9972,35.5441 19.9972,35.6055 21.0118,35.6055 21.0118,36.8256 19.9972,36.8256 "
   class="fil36" /><rect
   style="fill:#5281ab"
   id="rect129"
   height="7.7870102"
   width="0.98976398"
   y="27.8929"
   x="20.002001"
   class="fil37" /><rect
   style="fill:#5281ab"
   y="29.0917"
   x="-28.0063"
   id="rect131"
   height="2.370472"
   width="0.9897632"
   transform="matrix(0,-1,1,0,0,0)"
   class="fil37" />
<use
   id="use3112"
   xlink:href="#Слой_x0020_1"
   x="0"
   y="0"
   width="48"
   height="48"
   transform="translate(-15.847018,-18.755265)" /></svg>