<?xml version="1.0" encoding="UTF-8" standalone="no"?>
<!-- Creator: CorelDRAW -->

<svg
   xmlns:dc="http://purl.org/dc/elements/1.1/"
   xmlns:cc="http://creativecommons.org/ns#"
   xmlns:rdf="http://www.w3.org/1999/02/22-rdf-syntax-ns#"
   xmlns:svg="http://www.w3.org/2000/svg"
   xmlns="http://www.w3.org/2000/svg"
   xmlns:xlink="http://www.w3.org/1999/xlink"
   xmlns:sodipodi="http://sodipodi.sourceforge.net/DTD/sodipodi-0.dtd"
   xmlns:inkscape="http://www.inkscape.org/namespaces/inkscape"
   xml:space="preserve"
   width="128px"
   height="128px"
   style="shape-rendering:geometricPrecision; text-rendering:geometricPrecision; image-rendering:optimizeQuality; fill-rule:evenodd; clip-rule:evenodd"
   viewBox="0 0 128 128"
   id="svg3333"
   version="1.1"
   inkscape:version="0.48.1 r9760"
   sodipodi:docname="preferences-desktop-peripherals.svg"><metadata
   id="metadata3566"><rdf:RDF><cc:Work
       rdf:about=""><dc:format>image/svg+xml</dc:format><dc:type
         rdf:resource="http://purl.org/dc/dcmitype/StillImage" /><dc:title></dc:title></cc:Work></rdf:RDF></metadata><sodipodi:namedview
   pagecolor="#ffffff"
   bordercolor="#666666"
   borderopacity="1"
   objecttolerance="10"
   gridtolerance="10"
   guidetolerance="10"
   inkscape:pageopacity="0"
   inkscape:pageshadow="2"
   inkscape:window-width="646"
   inkscape:window-height="480"
   id="namedview3564"
   showgrid="false"
   inkscape:zoom="2.078125"
   inkscape:cx="64"
   inkscape:cy="64"
   inkscape:window-x="0"
   inkscape:window-y="24"
   inkscape:window-maximized="0"
   inkscape:current-layer="svg3333" />
 <defs
   id="defs3335">
  <style
   type="text/css"
   id="style3337">
   
    .fil16 {fill:#4C4C4C}
    .fil33 {fill:#5893C2}
    .fil15 {fill:#666666}
    .fil19 {fill:#7F7F7F}
    .fil31 {fill:#85C3F7}
    .fil17 {fill:#999999}
    .fil32 {fill:#CBEBFF}
    .fil20 {fill:#DADADA}
    .fil30 {fill:#E09613}
    .fil28 {fill:#FABD52}
    .fil29 {fill:#FFEC8B}
    .fil21 {fill:white}
    .fil18 {fill:#4C4C4C;fill-rule:nonzero}
    .fil1 {fill:black;fill-opacity:0.000000}
    .fil2 {fill:black;fill-opacity:0.007843}
    .fil3 {fill:black;fill-opacity:0.011765}
    .fil4 {fill:black;fill-opacity:0.019608}
    .fil5 {fill:black;fill-opacity:0.023529}
    .fil6 {fill:black;fill-opacity:0.031373}
    .fil7 {fill:black;fill-opacity:0.035294}
    .fil8 {fill:black;fill-opacity:0.043137}
    .fil9 {fill:black;fill-opacity:0.050980}
    .fil10 {fill:black;fill-opacity:0.054902}
    .fil11 {fill:black;fill-opacity:0.062745}
    .fil12 {fill:black;fill-opacity:0.066667}
    .fil13 {fill:black;fill-opacity:0.074510}
    .fil14 {fill:black;fill-opacity:0.078431}
    .fil27 {fill:white;fill-opacity:0.439216}
    .fil25 {fill:#525151;fill-rule:nonzero;fill-opacity:0.439216}
    .fil24 {fill:url(#id0)}
    .fil22 {fill:url(#id1)}
    .fil26 {fill:url(#id2)}
    .fil23 {fill:url(#id3)}
    .fil0 {fill:url(#id4)}
   
  </style>
  <linearGradient
   id="id0"
   gradientUnits="userSpaceOnUse"
   x1="73.0332"
   y1="112.84"
   x2="73.1773"
   y2="119.022">
   <stop
   offset="0"
   style="stop-color:#FAFAFA"
   id="stop3340" />
   <stop
   offset="1"
   style="stop-color:#D9D9D9"
   id="stop3342" />
  </linearGradient>
  <linearGradient
   id="id1"
   gradientUnits="userSpaceOnUse"
   xlink:href="#id0"
   x1="19.0739"
   y1="112.902"
   x2="19.2132"
   y2="118.961">
  </linearGradient>
  <linearGradient
   id="id2"
   gradientUnits="userSpaceOnUse"
   xlink:href="#id0"
   x1="62.3488"
   y1="68.78"
   x2="63.5441"
   y2="119.19">
  </linearGradient>
  <linearGradient
   id="id3"
   gradientUnits="userSpaceOnUse"
   xlink:href="#id0"
   x1="114.867"
   y1="112.964"
   x2="115.004"
   y2="118.899">
  </linearGradient>
  <linearGradient
   id="id4"
   gradientUnits="userSpaceOnUse"
   x1="62.9453"
   y1="45.8616"
   x2="66.7733"
   y2="0.95198">
   <stop
   offset="0"
   style="stop-color:#5C5C5C"
   id="stop3348" />
   <stop
   offset="1"
   style="stop-color:#7F7F7F"
   id="stop3350" />
  </linearGradient>
 </defs>
 <g
   id="Слой_x0020_1">
  <metadata
   id="CorelCorpID_0Corel-Layer" />
  <path
   class="fil0"
   d="M60.8878 49.4805c-10.6017,-6.41465 -21.8507,-11.7722 -28.7756,-22.4755 -3.91068,-6.04496 -1.33939,-14.7167 4.69258,-18.2412 11.6978,-6.83394 26.9011,1.02993 39.5497,-1.41734 8.90326,-1.72325 17.0199,-6.80323 25.1578,-10.5769l0.00472447 0.0106301c-11.093,5.62094 -21.2518,12.462 -34.0551,12.3002 -8.83003,-0.112206 -19.1613,-2.77326 -27.6736,0.77245 -5.0292,2.09412 -8.28199,8.25837 -6.0922,13.5226 4.80478,11.556 19.205,16.7825 29.2303,22.3727 1.03112,0.562212 1.41025,1.85435 0.848042,2.88547 -0.563393,1.03112 -1.85553,1.41025 -2.88665,0.846861z"
   id="path3354" />
  <g
   id="_249359728">
   <path
   id="_251151328"
   class="fil1"
   d="M62.0641 108.579c63.4342,-2.52287 67.0272,7.343 67.3024,15.24 0.0814971,2.31381 -2.28664,3.55162 -6.60008,4.18115l-117.95 0c-3.26933,-0.629535 -5.33511,-1.51183 -5.94456,-2.71539l0 -3.4087c1.12088,-5.30558 8.92098,-11.1379 63.1921,-13.297z" />
   <g
   id="g3358">
    <path
   id="_246678552"
   class="fil2"
   d="M62.2059 109.55c60.8275,-2.32916 66.615,7.01111 66.8701,14.4427 0.0803159,2.31499 -2.71184,3.46894 -7.71978,4.00753l-115.311 0c-4.44336,-0.703946 -6.9367,-1.78703 -6.9367,-3.38036 0,-5.54534 2.27011,-12.7395 63.0976,-15.0699z" />
    <path
   id="_251149528"
   class="fil3"
   d="M62.3429 110.522c58.222,-2.13428 66.2063,6.6804 66.4378,13.6443 0.0826782,2.35751 -3.37091,3.40988 -9.4324,3.83391l-28.9645 0c-6.0674,-0.0803159 -12.6368,-0.120474 -19.5428,0l-63.3209 0c-5.09416,-0.643709 -7.99144,-1.67955 -7.99144,-3.25752 0,-5.23707 4.591,-12.0852 62.8142,-14.2206z" />
    <path
   id="_251159992"
   class="fil4"
   d="M62.4846 111.494c55.6164,-1.94058 65.7929,6.3485 66.0067,12.847 0.0850404,2.50869 -4.65124,3.40516 -12.6982,3.6591l-15.814 0c-10.0891,-0.142915 -22.1979,-0.379139 -35.2256,0l-55.3471 0c-5.98944,-0.574023 -9.45366,-1.56144 -9.45366,-3.13587 0,-4.92762 6.9119,-11.4285 62.5319,-13.3702z" />
    <path
   id="_251171368"
   class="fil5"
   d="M62.6216 112.466c53.0156,-1.74687 65.3855,6.01661 65.5768,12.0486 0.191341,5.5607 -28.6834,2.40121 -63.6244,3.34256l-5.46975 0.142915 -47.0699 0c-7.32056,-0.488982 -11.6564,-1.42088 -11.6564,-3.01421 0,-4.61817 9.23043,-10.773 62.2437,-12.5198z" />
    <path
   id="_246691560"
   class="fil6"
   d="M62.761 113.437c50.4089,-1.55199 64.9756,5.6859 65.1445,11.2513 0.167719,4.97605 -28.8677,2.1827 -63.2984,3.01893 -4.51895,0.109844 -8.9505,0.210239 -13.2391,0.292917l-35.13 0c-9.56587,-0.373233 -15.4384,-1.23427 -15.4384,-2.89256 0,-4.3099 11.5525,-10.1174 61.9614,-11.6706z" />
    <path
   id="_251776864"
   class="fil7"
   d="M62.9016 114.41c47.8033,-1.35828 64.5622,5.354 64.711,10.4541 0.148821,4.39139 -29.0531,1.9642 -62.9712,2.69531 -10.2462,0.220869 -20.0873,0.395674 -28.8346,0.440557l-8.22294 0c-15.7774,-0.0944894 -26.3602,-0.804341 -26.3602,-2.76972 0,-4.00044 13.8722,-9.46075 61.6779,-10.8202z" />
    <path
   id="_251776000"
   class="fil8"
   d="M63.0433 115.382c45.1978,-1.16458 64.1524,5.02211 64.2787,9.65563 0.127561,3.80674 -29.2362,1.74687 -62.6453,2.37286 -33.4091,0.625992 -63.0279,0.793711 -63.0279,-2.05869 0,-3.69099 16.1943,-8.80523 61.3945,-9.96981z" />
    <path
   id="_249354208"
   class="fil9"
   d="M63.1815 116.355c42.5946,-0.970878 63.7425,4.69022 63.8488,8.85838 0.107482,3.22209 -29.4228,1.52837 -62.3193,2.04924 -32.8976,0.520873 -62.6382,0.635441 -62.6382,-1.78821 0,-3.38154 18.514,-8.14853 61.1086,-9.1194z" />
    <path
   id="_246690120"
   class="fil10"
   d="M63.3209 117.326c39.9879,-0.775994 63.3315,4.3595 63.4165,8.06112 0.0838593,2.63743 -29.6071,1.30986 -61.9945,1.72561 -32.3874,0.415753 -62.2484,0.477171 -62.2484,-1.51655 0,-3.07327 20.8361,-7.49301 60.8263,-8.27018z" />
    <path
   id="_249967008"
   class="fil11"
   d="M63.4602 118.298c37.3847,-0.582291 62.9216,4.02761 62.9842,7.26269 0.0649614,2.05396 -29.7901,1.09371 -61.6673,1.40317 -31.876,0.310634 -61.8598,0.320083 -61.8598,-1.24608 0,-2.76381 23.157,-6.83749 60.5429,-7.41978z" />
    <path
   id="_251161312"
   class="fil12"
   d="M63.6008 119.27c34.7803,-0.388587 62.5106,3.69571 62.5531,6.46543 0.0425202,1.46813 -29.9756,0.875208 -61.3425,1.07954 -31.3646,0.205514 -61.4677,0.161813 -61.4677,-0.975603 0,-2.45436 25.4755,-6.18078 60.257,-6.56937z" />
    <path
   id="_247027584"
   class="fil13"
   d="M63.7378 120.242c32.1772,-0.193703 62.1019,3.365 62.122,5.667 0.0224412,0.884657 -30.1598,0.657882 -61.0165,0.757096 -30.852,0.100395 -61.0779,0.00354335 -61.0779,-0.703946 0,-2.14609 27.7964,-5.52645 59.9724,-5.72015z" />
   </g>
   <path
   id="_251159344"
   class="fil14"
   d="M63.8772 121.216c29.5716,0 61.6921,3.03311 61.6921,4.86974 0,0.600007 -121.381,0.558668 -121.381,0 0,-1.83664 30.1185,-4.86974 59.6889,-4.86974z" />
  </g>
  <path
   class="fil15"
   d="M4.41029 125.681l115.726 -0.197247c2.48861,0.0212601 6.31425,-0.992138 6.34968,-4.11619l0.106301 -70.8824c0.00354335,-1.61104 -1.40553,-2.95279 -3.06264,-2.96224l-119.148 -0.40158c-1.63821,-0.00590558 -3.04728,1.33348 -3.06264,2.9587l0.0885838 72.6422c0.00236223,1.56498 1.17757,2.92563 3.0024,2.9587z"
   id="path3373" />
  <path
   class="fil16"
   d="M119.307 52.1936c0.935445,0 1.69254,0.757096 1.69254,1.69136 0,0.935445 -0.757096,1.69254 -1.69254,1.69254 -0.934263,0 -1.69136,-0.757096 -1.69136,-1.69254 0,-0.934263 0.757096,-1.69136 1.69136,-1.69136zm-93.0543 0c0.935445,0 1.69254,0.757096 1.69254,1.69136 0,0.935445 -0.757096,1.69254 -1.69254,1.69254 -0.934263,0 -1.69136,-0.757096 -1.69136,-1.69254 0,-0.934263 0.757096,-1.69136 1.69136,-1.69136zm-4.50832 0c0.935445,0 1.69254,0.757096 1.69254,1.69136 0,0.935445 -0.757096,1.69254 -1.69254,1.69254 -0.934263,0 -1.69136,-0.757096 -1.69136,-1.69254 0,-0.934263 0.757096,-1.69136 1.69136,-1.69136zm-17.086 0c0.935445,0 1.69254,0.757096 1.69254,1.69136 0,0.935445 -0.757096,1.69254 -1.69254,1.69254 -0.934263,0 -1.69136,-0.757096 -1.69136,-1.69254 0,-0.934263 0.757096,-1.69136 1.69136,-1.69136zm5.967 0c0.935445,0 1.69254,0.757096 1.69254,1.69136 0,0.935445 -0.757096,1.69254 -1.69254,1.69254 -0.934263,0 -1.69136,-0.757096 -1.69136,-1.69254 0,-0.934263 0.757096,-1.69136 1.69136,-1.69136zm80.2073 0c0.935445,0 1.69254,0.757096 1.69254,1.69136 0,0.935445 -0.757096,1.69254 -1.69254,1.69254 -0.934263,0 -1.69136,-0.757096 -1.69136,-1.69254 0,-0.934263 0.757096,-1.69136 1.69136,-1.69136zm5.967 0c0.935445,0 1.69254,0.757096 1.69254,1.69136 0,0.935445 -0.757096,1.69254 -1.69254,1.69254 -0.934263,0 -1.69136,-0.757096 -1.69136,-1.69254 0,-0.934263 0.757096,-1.69136 1.69136,-1.69136zm5.62684 0c0.935445,0 1.69254,0.757096 1.69254,1.69136 0,0.935445 -0.757096,1.69254 -1.69254,1.69254 -0.934263,0 -1.69136,-0.757096 -1.69136,-1.69254 0,-0.934263 0.757096,-1.69136 1.69136,-1.69136zm11.5253 0c0.935445,0 1.69254,0.757096 1.69254,1.69136 0,0.935445 -0.757096,1.69254 -1.69254,1.69254 -0.934263,0 -1.69136,-0.757096 -1.69136,-1.69254 0,-0.934263 0.757096,-1.69136 1.69136,-1.69136z"
   id="path3375" />
  <path
   class="fil17"
   d="M120.983 55.1452c0.0106301,0.0779537 0.0165356,0.157089 0.0165356,0.237404 0,0.935445 -0.757096,1.69254 -1.69254,1.69254 -0.934263,0 -1.69136,-0.757096 -1.69136,-1.69254 0,-0.0803159 0.00590558,-0.159451 0.0165356,-0.237404 0.115749,0.822057 0.820876,1.45395 1.67482,1.45395 0.855129,0 1.56026,-0.631898 1.676,-1.45395zm-93.0543 0c0.0106301,0.0779537 0.0165356,0.157089 0.0165356,0.237404 0,0.935445 -0.757096,1.69254 -1.69254,1.69254 -0.934263,0 -1.69136,-0.757096 -1.69136,-1.69254 0,-0.0803159 0.00590558,-0.159451 0.0165356,-0.237404 0.115749,0.822057 0.820876,1.45395 1.67482,1.45395 0.855129,0 1.56026,-0.631898 1.676,-1.45395zm-4.50832 0c0.0106301,0.0779537 0.0165356,0.157089 0.0165356,0.237404 0,0.935445 -0.757096,1.69254 -1.69254,1.69254 -0.934263,0 -1.69136,-0.757096 -1.69136,-1.69254 0,-0.0803159 0.00590558,-0.159451 0.0165356,-0.237404 0.115749,0.822057 0.820876,1.45395 1.67482,1.45395 0.855129,0 1.56026,-0.631898 1.676,-1.45395zm-17.086 0c0.0106301,0.0779537 0.0165356,0.157089 0.0165356,0.237404 0,0.935445 -0.757096,1.69254 -1.69254,1.69254 -0.934263,0 -1.69136,-0.757096 -1.69136,-1.69254 0,-0.0803159 0.00590558,-0.159451 0.0165356,-0.237404 0.115749,0.822057 0.820876,1.45395 1.67482,1.45395 0.855129,0 1.56026,-0.631898 1.676,-1.45395zm5.967 0c0.0106301,0.0779537 0.0165356,0.157089 0.0165356,0.237404 0,0.935445 -0.757096,1.69254 -1.69254,1.69254 -0.934263,0 -1.69136,-0.757096 -1.69136,-1.69254 0,-0.0803159 0.00590558,-0.159451 0.0165356,-0.237404 0.115749,0.822057 0.820876,1.45395 1.67482,1.45395 0.855129,0 1.56026,-0.631898 1.676,-1.45395zm80.2073 0c0.0106301,0.0779537 0.0165356,0.157089 0.0165356,0.237404 0,0.935445 -0.757096,1.69254 -1.69254,1.69254 -0.934263,0 -1.69136,-0.757096 -1.69136,-1.69254 0,-0.0803159 0.00590558,-0.159451 0.0165356,-0.237404 0.115749,0.822057 0.820876,1.45395 1.67482,1.45395 0.855129,0 1.56026,-0.631898 1.676,-1.45395zm5.967 0c0.0106301,0.0779537 0.0165356,0.157089 0.0165356,0.237404 0,0.935445 -0.757096,1.69254 -1.69254,1.69254 -0.934263,0 -1.69136,-0.757096 -1.69136,-1.69254 0,-0.0803159 0.00590558,-0.159451 0.0165356,-0.237404 0.115749,0.822057 0.820876,1.45395 1.67482,1.45395 0.855129,0 1.56026,-0.631898 1.676,-1.45395zm5.62684 0c0.0106301,0.0779537 0.0165356,0.157089 0.0165356,0.237404 0,0.935445 -0.757096,1.69254 -1.69254,1.69254 -0.934263,0 -1.69136,-0.757096 -1.69136,-1.69254 0,-0.0803159 0.00590558,-0.159451 0.0165356,-0.237404 0.115749,0.822057 0.820876,1.45395 1.67482,1.45395 0.855129,0 1.56026,-0.631898 1.676,-1.45395zm11.5253 0c0.0106301,0.0779537 0.0165356,0.157089 0.0165356,0.237404 0,0.935445 -0.757096,1.69254 -1.69254,1.69254 -0.934263,0 -1.69136,-0.757096 -1.69136,-1.69254 0,-0.0803159 0.00590558,-0.159451 0.0165356,-0.237404 0.115749,0.822057 0.820876,1.45395 1.67482,1.45395 0.855129,0 1.56026,-0.631898 1.676,-1.45395z"
   id="path3377" />
  <path
   class="fil18"
   d="M7.85679 121.018l108.897 -0.236223 0.00354335 0c1.23427,0.00944894 2.83822,-0.235042 3.95792,-0.879932 0.673237,-0.387406 1.15159,-0.931901 1.15986,-1.65711l-0.185435 -56.7031 -0.00354335 0c0,-0.381501 -0.204333,-0.747647 -0.525597,-1.02285 -0.364965,-0.312996 -0.875208,-0.511424 -1.42679,-0.511424l-24.1905 0 -6.11582 4.00871 -0.577566 0.159451c-8.51113,-0.266932 -16.9408,-0.226774 -25.3751,-0.188979 -6.84457,0.0330713 -13.701,0.0649614 -20.5999,-0.0661425l-0.555125 -0.17953 -5.47684 -3.83391 -28.9775 0c-0.53977,0 -1.02167,0.187798 -1.36301,0.488982l-0.00354335 0c-0.310634,0.274019 -0.50788,0.647252 -0.516148,1.04529l0.0472447 56.8141 0 0.0354335 -0.0070867 0.187798c-0.00590558,0.627173 0.19016,1.2697 0.537408,1.76459 0.304728,0.43347 0.726387,0.738198 1.20946,0.770088l0 0.00118112 0.0874027 0.00354335zm108.897 1.75514l-108.933 0.236223 -0.0389769 0 -0.116931 -0.00472447 -0.0271657 0c-1.14096,-0.0755915 -2.07522,-0.713395 -2.70948,-1.61341 -0.585834,-0.833869 -0.913003,-1.91577 -0.896468,-2.96342l0 -0.020079 0.0070867 -0.186616 -0.0472447 -56.7798 0 -0.0118112c0.0106301,-0.990957 0.464179,-1.89097 1.19175,-2.53113l-0.00118112 -0.00236223c0.690953,-0.608275 1.63821,-0.987414 2.6835,-0.987414l29.287 0 0.570479 0.183073 5.48983 3.84335c6.7867,0.122836 13.5262,0.0921271 20.255,0.060237 8.35876,-0.0389769 16.7128,-0.0779537 25.1235,0.17953l6.10756 -4.00281 0.546857 -0.162994 24.4881 0c1.03938,0 2.01144,0.385044 2.72366,0.995682 0.752371,0.64489 1.22718,1.54608 1.22718,2.53704l-0.00354335 0 0.185435 56.7137 0 0.0118112c-0.0188979,1.55553 -0.907098,2.64098 -2.15908,3.36146 -1.45514,0.837412 -3.44532,1.15513 -4.9536,1.1445z"
   id="path3379" />
  <path
   class="fil16"
   d="M122.867 117.449l0.00354335 -0.0779537 -0.185435 -56.7137c0,-1.37718 -1.36301,-2.5335 -2.95161,-2.5335l-24.4881 0 -6.36504 4.1717c-15.4112,-0.485439 -30.5732,0.0377957 -45.9903,-0.255121l-5.73787 -4.01698 -29.287 0c-1.59215,0 -2.86185,1.13978 -2.87838,2.5335l0.00118112 0.942531c0.0413391,-1.37364 1.30159,-2.49098 2.8772,-2.49098l29.287 0 5.73787 4.01698c15.4171,0.292917 30.5791,-0.230318 45.9903,0.255121l6.36504 -4.1717 24.4881 0c1.5886,0 2.95161,1.15631 2.95161,2.5335l0.181892 55.8066zm-117.834 -0.0637803c-0.00944894,0.159451 -0.00826782,0.320083 0.00118112,0.480715l-0.00118112 -0.480715z"
   id="path3381" />
  <path
   class="fil18"
   d="M4.41856 125.183l115.718 -0.197247 0.00354335 0c1.34529,0.0106301 3.10398,-0.294098 4.35123,-1.10316 0.86694,-0.561031 1.48348,-1.38073 1.49648,-2.51814l0.106301 -70.8788c0,-0.660244 -0.289374,-1.27206 -0.75119,-1.71734l-0.00118112 -0.00118112c-0.468903,-0.453549 -1.11734,-0.74056 -1.81183,-0.745285l-0.00236223 0 -119.145 -0.40158 -0.00236223 0c-0.685048,-0.00236223 -1.32758,0.281106 -1.79766,0.733474 -0.460636,0.446462 -0.758277,1.06064 -0.764183,1.72679l0.0885838 72.6422c0,0.670874 0.262208,1.29805 0.716938,1.74687 0.431108,0.425202 1.04883,0.700402 1.7953,0.713395zm115.718 0.799616l-115.726 0.197247 -0.00826782 0c-1.02048,-0.0188979 -1.87207,-0.40158 -2.47798,-0.999225 -0.646071,-0.637803 -1.0134,-1.51774 -1.01458,-2.4579l-0.0885838 -72.6422 0 -0.00354335c0.00826782,-0.949618 0.42284,-1.81538 1.06773,-2.44019l0.00118112 -0.00118112c0.648433,-0.624811 1.53781,-1.01458 2.49216,-1.01222l0.00236223 0 119.145 0.40158 0.00236223 0c0.963791,0.00472447 1.85553,0.400399 2.50279,1.02521 0.649614,0.627173 1.0571,1.49293 1.05592,2.43546l-0.106301 70.8824 0 0.00354335c-0.0165356,1.53191 -0.819695,2.61617 -1.95002,3.34729 -1.42561,0.924815 -3.39807,1.27561 -4.89809,1.2638z"
   id="path3383" />
  <path
   class="fil19"
   d="M126.416 52.9235l0.00118112 -0.928358c0.00236223,-1.61222 -1.40553,-2.95397 -3.06264,-2.9646l-118.601 -0.40158c-1.65356,-0.00590558 -3.04846,1.33348 -3.06264,2.95988l0.00118112 0.921271c0.0590558,-1.5886 1.43388,-2.88193 3.06145,-2.8772l118.601 0.40158c1.63112,0.0106301 3.01893,1.31104 3.06145,2.88901z"
   id="path3385" />
  <path
   class="fil20"
   d="M7.82017 122.014l108.933 -0.236223c2.39767,0.0188979 6.08511,-0.850404 6.117,-3.52209l-0.185435 -56.7137c0,-1.37718 -1.36301,-2.5335 -2.95161,-2.5335l-24.4881 0 -6.36504 4.1717c-15.4112,-0.485439 -30.5732,0.0377957 -45.9903,-0.255121l-5.73787 -4.01698 -29.287 0c-1.59215,0 -2.86185,1.13978 -2.87838,2.5335l0.0472447 56.8141c-0.116931,1.7764 1.0323,3.72997 2.78625,3.75831z"
   id="path3387" />
  <path
   class="fil21"
   d="M122.867 118.334l0.00354335 -0.0779537 -0.185435 -56.7137c0,-1.37718 -1.36301,-2.5335 -2.95161,-2.5335l-24.4881 0 -6.36504 4.1717c-15.4112,-0.485439 -30.5732,0.0377957 -45.9903,-0.255121l-5.73787 -4.01698 -29.287 0c-1.59215,0 -2.86185,1.13978 -2.87838,2.5335l0.00118112 0.942531c0.0413391,-1.37364 1.30159,-2.49098 2.8772,-2.49098l29.287 0 5.73787 4.01698c15.4171,0.292917 30.5791,-0.230318 45.9903,0.255121l6.36504 -4.1717 24.4881 0c1.5886,0 2.95161,1.15631 2.95161,2.5335l0.181892 55.8066zm-117.834 -0.0637803c-0.00944894,0.159451 -0.00826782,0.320083 0.00118112,0.480715l-0.00118112 -0.480715z"
   id="path3389" />
  <g
   id="_249713520">
   <rect
   id="_253801432"
   class="fil22"
   x="16.1163"
   y="112.912"
   width="6.05441"
   height="6.03905" />
   <rect
   id="_253821184"
   class="fil23"
   x="111.908"
   y="112.912"
   width="6.05441"
   height="6.03905" />
   <rect
   id="_251155840"
   class="fil22"
   x="103.839"
   y="112.912"
   width="6.05441"
   height="6.03905" />
   <rect
   id="_251135040"
   class="fil22"
   x="95.9764"
   y="112.912"
   width="6.05441"
   height="6.03905" />
   <rect
   id="_253799584"
   class="fil22"
   x="86.0101"
   y="112.912"
   width="6.05441"
   height="6.03905" />
   <rect
   id="_253799008"
   class="fil22"
   x="77.9407"
   y="112.912"
   width="6.05441"
   height="6.03905" />
   <rect
   id="_247015128"
   class="fil24"
   x="70.078"
   y="112.912"
   width="6.05441"
   height="6.03905" />
   <rect
   id="_249958176"
   class="fil22"
   x="7.98081"
   y="112.912"
   width="6.05441"
   height="6.03905" />
   <rect
   id="_158482312"
   class="fil24"
   x="23.9814"
   y="112.912"
   width="6.05441"
   height="6.03905" />
   <rect
   id="_251157448"
   class="fil24"
   x="31.9811"
   y="112.912"
   width="36.8662"
   height="6.03905" />
   <rect
   id="_249952248"
   class="fil23"
   x="111.908"
   y="104.954"
   width="6.05441"
   height="6.03905" />
   <rect
   id="_249969144"
   class="fil22"
   x="103.839"
   y="104.954"
   width="6.05441"
   height="6.03905" />
   <rect
   id="_249962184"
   class="fil22"
   x="95.9764"
   y="104.954"
   width="6.05441"
   height="6.03905" />
   <rect
   id="_249973272"
   class="fil23"
   x="111.908"
   y="97.063"
   width="6.05441"
   height="6.03905" />
   <rect
   id="_249970752"
   class="fil22"
   x="103.839"
   y="97.063"
   width="6.05441"
   height="6.03905" />
   <rect
   id="_249968232"
   class="fil22"
   x="95.9764"
   y="97.063"
   width="6.05441"
   height="6.03905" />
   <rect
   id="_249973872"
   class="fil23"
   x="111.908"
   y="88.9003"
   width="6.05441"
   height="6.03905" />
   <rect
   id="_249693864"
   class="fil22"
   x="103.839"
   y="88.9003"
   width="6.05441"
   height="6.03905" />
   <rect
   id="_249709104"
   class="fil22"
   x="95.9764"
   y="88.9003"
   width="6.05441"
   height="6.03905" />
   <rect
   id="_249973728"
   class="fil23"
   x="111.908"
   y="80.8746"
   width="6.05441"
   height="6.03905" />
   <rect
   id="_249957192"
   class="fil22"
   x="103.839"
   y="80.8746"
   width="6.05441"
   height="6.03905" />
   <rect
   id="_249962832"
   class="fil22"
   x="95.9764"
   y="80.8746"
   width="6.05441"
   height="6.03905" />
   <rect
   id="_158475160"
   class="fil22"
   x="77.0844"
   y="104.834"
   width="14.9163"
   height="6.03905" />
   <rect
   id="_158493328"
   class="fil24"
   x="68.7918"
   y="104.834"
   width="6.05441"
   height="6.03905" />
   <g
   id="g3416">
    <rect
   id="_253799416"
   class="fil22"
   x="21.1999"
   y="105.021"
   width="6.05441"
   height="6.03905" />
    <rect
   id="_249955992"
   class="fil24"
   x="29.0649"
   y="105.021"
   width="6.05441"
   height="6.03905" />
   </g>
   <rect
   id="_249954960"
   class="fil22"
   x="7.98081"
   y="104.953"
   width="11.8832"
   height="6.03905" />
   <g
   id="g3421">
    <rect
   id="_251113128"
   class="fil24"
   x="37.0209"
   y="105.021"
   width="6.05441"
   height="6.03905" />
    <rect
   id="_249975480"
   class="fil24"
   x="44.886"
   y="105.021"
   width="6.05441"
   height="6.03905" />
   </g>
   <g
   id="g3425">
    <rect
   id="_158490856"
   class="fil24"
   x="52.9967"
   y="105.021"
   width="6.05441"
   height="6.03905" />
    <rect
   id="_249978960"
   class="fil24"
   x="60.8618"
   y="105.021"
   width="6.05441"
   height="6.03905" />
   </g>
   <rect
   id="_158497528"
   class="fil22"
   x="7.93002"
   y="96.9225"
   width="14.2407"
   height="6.03905" />
   <rect
   id="_158505064"
   class="fil22"
   x="80.0679"
   y="96.9225"
   width="11.9966"
   height="6.03905" />
   <rect
   id="_249953976"
   class="fil24"
   x="23.9814"
   y="96.9225"
   width="6.05441"
   height="6.03905" />
   <g
   id="g3432">
    <rect
   id="_158480152"
   class="fil24"
   x="31.9799"
   y="97.0618"
   width="6.05441"
   height="6.03905" />
    <rect
   id="_249954552"
   class="fil24"
   x="39.845"
   y="97.0618"
   width="6.05441"
   height="6.03905" />
   </g>
   <g
   id="g3436">
    <rect
   id="_158481760"
   class="fil24"
   x="47.801"
   y="97.0618"
   width="6.05441"
   height="6.03905" />
    <rect
   id="_158499448"
   class="fil24"
   x="55.666"
   y="97.0618"
   width="6.05441"
   height="6.03905" />
   </g>
   <rect
   id="_249708672"
   class="fil24"
   x="63.9823"
   y="96.9225"
   width="6.05441"
   height="6.03905" />
   <rect
   id="_158487568"
   class="fil24"
   x="71.9064"
   y="96.9225"
   width="6.05441"
   height="6.03905" />
   <rect
   id="_251107632"
   class="fil24"
   x="68.7918"
   y="88.9452"
   width="6.05441"
   height="6.03905" />
   <g
   id="g3443">
    <rect
   id="_251152168"
   class="fil22"
   x="21.1999"
   y="89.133"
   width="6.05441"
   height="6.03905" />
    <rect
   id="_251169160"
   class="fil24"
   x="29.0649"
   y="89.133"
   width="6.05441"
   height="6.03905" />
   </g>
   <g
   id="g3447">
    <rect
   id="_251138184"
   class="fil24"
   x="37.0209"
   y="89.133"
   width="6.05441"
   height="6.03905" />
    <rect
   id="_251107128"
   class="fil24"
   x="44.886"
   y="89.133"
   width="6.05441"
   height="6.03905" />
   </g>
   <g
   id="g3451">
    <rect
   id="_251165464"
   class="fil24"
   x="52.9967"
   y="89.133"
   width="6.05441"
   height="6.03905" />
    <rect
   id="_251145208"
   class="fil24"
   x="60.8618"
   y="89.133"
   width="6.05441"
   height="6.03905" />
   </g>
   <rect
   id="_251142040"
   class="fil22"
   x="7.93002"
   y="89.0987"
   width="11.0564"
   height="6.03905" />
   <rect
   id="_249710304"
   class="fil22"
   x="16.1163"
   y="81.0022"
   width="6.05441"
   height="6.03905" />
   <rect
   id="_249720264"
   class="fil22"
   x="80.0774"
   y="81.0022"
   width="11.9895"
   height="6.03905" />
   <rect
   id="_249696000"
   class="fil22"
   x="7.98081"
   y="81.0022"
   width="6.05441"
   height="6.03905" />
   <rect
   id="_249713424"
   class="fil24"
   x="23.9814"
   y="81.0022"
   width="6.05441"
   height="6.03905" />
   <g
   id="g3460">
    <rect
   id="_249701424"
   class="fil24"
   x="31.9717"
   y="80.9679"
   width="6.05441"
   height="6.03905" />
    <rect
   id="_249709632"
   class="fil24"
   x="39.8367"
   y="80.9679"
   width="6.05441"
   height="6.03905" />
   </g>
   <g
   id="g3464">
    <rect
   id="_251131848"
   class="fil24"
   x="47.7927"
   y="80.8829"
   width="6.05441"
   height="6.03905" />
    <rect
   id="_251108304"
   class="fil24"
   x="55.6578"
   y="80.8829"
   width="6.05441"
   height="6.03905" />
   </g>
   <g
   id="g3468">
    <rect
   id="_251127456"
   class="fil24"
   x="64.1075"
   y="80.9845"
   width="6.05441"
   height="6.03905" />
    <rect
   id="_249717168"
   class="fil24"
   x="71.9725"
   y="80.9845"
   width="6.05441"
   height="6.03905" />
   </g>
   <g
   id="g3472">
    <rect
   id="_251165632"
   class="fil24"
   x="77.0891"
   y="88.944"
   width="6.05441"
   height="6.03905" />
    <rect
   id="_251166952"
   class="fil22"
   x="84.9542"
   y="88.944"
   width="7.04654"
   height="6.03905" />
   </g>
   <rect
   id="_249700056"
   class="fil23"
   x="111.908"
   y="69.1615"
   width="6.05441"
   height="6.03905" />
   <rect
   id="_249716832"
   class="fil22"
   x="103.839"
   y="69.1615"
   width="6.05441"
   height="6.03905" />
   <rect
   id="_249692856"
   class="fil22"
   x="95.9764"
   y="69.1615"
   width="6.05441"
   height="6.03905" />
   <rect
   id="_251112600"
   class="fil22"
   x="7.98081"
   y="69.1544"
   width="6.05441"
   height="6.03905" />
   <rect
   id="_158480320"
   class="fil22"
   x="86.0101"
   y="69.1556"
   width="6.05441"
   height="6.03905" />
   <rect
   id="_251144440"
   class="fil22"
   x="77.9407"
   y="69.1556"
   width="6.05441"
   height="6.03905" />
   <rect
   id="_249965160"
   class="fil24"
   x="70.078"
   y="69.1556"
   width="6.05441"
   height="6.03905" />
   <rect
   id="_249706968"
   class="fil24"
   x="62.0783"
   y="69.1556"
   width="6.05441"
   height="6.03905" />
   <rect
   id="_249715992"
   class="fil24"
   x="54.0089"
   y="69.1556"
   width="6.05441"
   height="6.03905" />
   <rect
   id="_249705168"
   class="fil24"
   x="46.1462"
   y="69.1556"
   width="6.05441"
   height="6.03905" />
   <rect
   id="_249964800"
   class="fil24"
   x="37.941"
   y="69.0197"
   width="6.05441"
   height="6.03905" />
   <rect
   id="_249954024"
   class="fil24"
   x="30.0783"
   y="69.0197"
   width="6.05441"
   height="6.03905" />
  </g>
  <path
   class="fil25"
   d="M78.9577 88.4208l0.0519691 0 0 -0.903554 0 -6.03905 0 -0.999225 0.999225 0 11.9895 0 0.999225 0 0 0.999225 0 6.03905 0 0.999225 -0.0661425 0 0 0.903554 0 6.03905 0 0.940169 0.0637803 0 0 0.999225 0 6.03905 0 0.999225 -0.0637803 0 0 0.872845 0 6.03905 0 0.999225 -0.999225 0 -14.9163 0 -0.999225 0 0 -0.999225 0 -6.03905 0 -0.872845 -0.239767 0 0 0.872845 0 6.03905 0 0.999225 -0.999225 0 -6.05441 0 -0.876389 0 0 0.0413391 0.931901 0 0.231499 0 0.767726 0 0.231499 0 6.05441 0 0.809065 0 0.19016 0 0.809065 0 6.05441 0 0.999225 0 0 0.999225 0 6.03905 0 0.999225 -0.999225 0 -6.05441 0 -0.809065 0 -0.19016 0 -0.809065 0 -6.05441 0 -0.231499 0 -0.767726 0 -0.231499 0 -36.8662 0 -0.946075 0 -0.0531503 0 -0.946075 0 -6.05441 0 -0.811427 0 -0.187798 0 -0.811427 0 -6.05441 0 -0.999225 0 0 -0.999225 0 -6.03905 0 -0.921271 -0.0826782 0 0 0.921271 0 6.03905 0 0.999225 -0.999225 0 -6.05441 0 -0.999225 0 0 -0.999225 0 -6.03905 0 -0.921271 0 -0.0779537 0 -0.921271 0 -6.03905 0 -0.992138 -0.050788 0 0 -0.999225 0 -6.03905 0 -0.785443 0 -0.213782 0 -0.785443 0 -6.03905 0 -0.999225 0.999225 0 11.0564 0 0.999225 0 0 0.999225 0 6.03905 0 0.785443 0.214963 0 0 -0.75119 0 -6.03905 0 -0.999225 0.999225 0 6.05441 0 0.811427 0 0.187798 0 0.811427 0 6.05441 0 0.902373 0 0.0968516 0 0.902373 0 6.05441 0 0.811427 0 0.187798 0 0.811427 0 6.05441 0 0.999225 0 0 0.999225 0 6.03905 0 0.890562 0.0578747 0 0 -0.890562 0 -6.03905 0 -0.999225 0.999225 0 6.05441 0 0.811427 0 0.187798 0 0.811427 0 6.05441 0 0.876389 0 0 -0.111025 -3.68508 0 -0.999225 0 0 -0.999225 0 -6.03905 0 -0.999225 0.999225 0 6.05441 0 0.811427 0 0.187798 0 0.811427 0 6.05441 0 0.999225 0 0 0.999225 0 6.03905 0 0.921271zm3.11815 1.99845l-4.05596 0 0 4.0406 4.05596 0 0 -4.0406zm-3.07563 6.03905l-0.108663 0 0 0.940169 0 6.03905 0 0.872845 0.108663 0 0 -0.872845 0 -6.03905 0 -0.940169zm-2.97878 -0.0590558l0 -0.940169 0 -6.03905 0 -0.921271 -0.244491 0 0 0.922452 0 6.03905 0 0.938988 0.244491 0zm-46.0116 -27.9027l6.05441 0 0.809065 0 0.19016 0 0.809065 0 6.05441 0 0.999225 0 0 0.999225 0 6.03905 0 0.999225 -0.999225 0 -6.05441 0 -0.809065 0 -0.19016 0 -0.809065 0 -6.05441 0 -0.999225 0 0 -0.999225 0 -6.03905 0 -0.999225 0.999225 0zm5.05518 1.99845l-4.05596 0 0 4.0406 4.05596 0 0 -4.0406zm7.8627 0l-4.05596 0 0 4.0406 4.05596 0 0 -4.0406zm3.15004 -1.86262l6.05441 0 0.809065 0 0.19016 0 0.809065 0 6.05441 0 0.999225 0 0 0.999225 0 6.03905 0 0.999225 -0.999225 0 -6.05441 0 -0.809065 0 -0.19016 0 -0.809065 0 -6.05441 0 -0.999225 0 0 -0.999225 0 -6.03905 0 -0.999225 0.999225 0zm5.05518 1.99845l-4.05596 0 0 4.0406 4.05596 0 0 -4.0406zm7.8627 0l-4.05596 0 0 4.0406 4.05596 0 0 -4.0406zm3.01421 -1.99845l6.05441 0 0.946075 0 0.0531503 0 0.946075 0 6.05441 0 0.809065 0 0.19016 0 0.809065 0 6.05441 0 0.999225 0 0 0.999225 0 6.03905 0 0.999225 -0.999225 0 -6.05441 0 -0.809065 0 -0.19016 0 -0.809065 0 -6.05441 0 -0.946075 0 -0.0531503 0 -0.946075 0 -6.05441 0 -0.999225 0 0 -0.999225 0 -6.03905 0 -0.999225 0.999225 0zm5.05518 1.99845l-4.05596 0 0 4.0406 4.05596 0 0 -4.0406zm7.9997 0l-4.05596 0 0 4.0406 4.05596 0 0 -4.0406zm7.8627 0l-4.05596 0 0 4.0406 4.05596 0 0 -4.0406zm3.01421 -1.99845l6.05441 0 0.999225 0 0 0.999225 0 6.03905 0 0.999225 -0.999225 0 -6.05441 0 -0.999225 0 0 -0.999225 0 -6.03905 0 -0.999225 0.999225 0zm5.05518 1.99845l-4.05596 0 0 4.0406 4.05596 0 0 -4.0406zm-83.0845 -1.99963l6.05441 0 0.999225 0 0 0.999225 0 6.03905 0 0.999225 -0.999225 0 -6.05441 0 -0.999225 0 0 -0.999225 0 -6.03905 0 -0.999225 0.999225 0zm5.05518 1.99845l-4.05596 0 0 4.0406 4.05596 0 0 -4.0406zm82.9404 -1.99136l6.05441 0 0.809065 0 0.19016 0 0.809065 0 6.05441 0 0.999225 0 0 0.999225 0 6.03905 0 0.999225 -0.999225 0 -6.05441 0 -0.809065 0 -0.19016 0 -0.809065 0 -6.05441 0 -0.999225 0 0 -0.999225 0 -6.03905 0 -0.999225 0.999225 0zm5.05518 1.99845l-4.05596 0 0 4.0406 4.05596 0 0 -4.0406zm7.8627 0l-4.05596 0 0 4.0406 4.05596 0 0 -4.0406zm3.01421 -1.99845l6.05441 0 0.999225 0 0 0.999225 0 6.03905 0 0.999225 -0.999225 0 -6.05441 0 -0.999225 0 0 -0.999225 0 -6.03905 0 -0.999225 0.999225 0zm5.05518 1.99845l-4.05596 0 0 4.0406 4.05596 0 0 -4.0406zm-92.9822 9.84225l6.05441 0 0.936626 0 0 -0.0342524 0.999225 0 6.05441 0 0.811427 0 0.187798 0 0.811427 0 6.05441 0 0.902373 0 0 -0.0850404 0.999225 0 6.05441 0 0.811427 0 0.187798 0 0.811427 0 6.05441 0 0.999225 0 0 0.999225 0 6.03905 0 0.999225 -0.999225 0 -6.05441 0 -0.811427 0 -0.187798 0 -0.811427 0 -6.05441 0 -0.902373 0 0 0.0850404 -0.999225 0 -6.05441 0 -0.811427 0 -0.187798 0 -0.811427 0 -6.05441 0 -0.936626 0 0 0.0342524 -0.999225 0 -6.05441 0 -0.811427 0 -0.187798 0 -0.811427 0 -6.05441 0 -0.999225 0 0 -0.999225 0 -6.03905 0 -0.999225 0.999225 0 6.05441 0 0.811427 0 0.187798 0 0.811427 0zm5.05518 1.99845l-4.05596 0 0 4.0406 4.05596 0 0 -4.0406zm-21.0558 -1.99845l6.05441 0 0.999225 0 0 0.999225 0 6.03905 0 0.999225 -0.999225 0 -6.05441 0 -0.999225 0 0 -0.999225 0 -6.03905 0 -0.999225 0.999225 0zm5.05518 1.99845l-4.05596 0 0 4.0406 4.05596 0 0 -4.0406zm78.0317 0l-9.99107 0 0 4.0406 9.99107 0 0 -4.0406zm-69.8961 0l-4.05596 0 0 4.0406 4.05596 0 0 -4.0406zm-3.18429 8.09656l-9.05799 0 0 4.0406 9.05799 0 0 -4.0406zm55.8597 -0.153545l-4.05596 0 0 4.0406 4.05596 0 0 -4.0406zm3.11461 7.97726l-4.05596 0 0 4.0406 4.05596 0 0 -4.0406zm-7.92411 0l-4.05596 0 0 4.0406 4.05596 0 0 -4.0406zm-1.2449 6.03905l-3.81028 0 -0.999225 0 0 -0.999225 0 -6.03905 0 -0.75119 -0.263389 0 0 0.890562 0 6.03905 0 0.921271 4.19651 0 0.876389 0 0 -0.0614181zm-38.756 -6.03905l-4.05596 0 0 4.0406 4.05596 0 0 -4.0406zm1.94412 6.03905l-0.944894 0 -6.05441 0 -0.811427 0 -0.187798 0 -0.811427 0 -1.3075 0 0 0.0614181 0.336618 0 6.05441 0 0.811427 0 0.187798 0 0.811427 0 1.91577 0 0 -0.0614181zm60.0846 -6.03905l-9.99815 0 0 4.0406 9.99815 0 0 -4.0406zm-69.8938 0l-12.2423 0 0 4.0406 12.2423 0 0 -4.0406zm-2.30672 8.03041l-9.88477 0 0 4.0406 9.88477 0 0 -4.0406zm54.9822 -0.119293l-4.05596 0 0 4.0406 4.05596 0 0 -4.0406zm17.1545 0l-12.9179 0 0 4.0406 12.9179 0 0 -4.0406zm4.97486 -25.9574l6.05441 0 0.809065 0 0.19016 0 0.809065 0 6.05441 0 0.999225 0 0 0.999225 0 6.03905 0 0.987414 0 0.0118112 0 0.987414 0 6.03905 0 0.999225 -0.999225 0 -6.05441 0 -0.809065 0 -0.19016 0 -0.809065 0 -6.05441 0 -0.999225 0 0 -0.999225 0 -6.03905 0 -0.987414 0 -0.0118112 0 -0.987414 0 -6.03905 0 -0.999225 0.999225 0zm5.05518 1.99845l-4.05596 0 0 4.0406 4.05596 0 0 -4.0406zm7.8627 0l-4.05596 0 0 4.0406 4.05596 0 0 -4.0406zm3.01421 -1.99845l6.05441 0 0.999225 0 0 0.999225 0 6.03905 0 0.987414 0 0.0118112 0 0.987414 0 6.03905 0 0.999225 -0.999225 0 -6.05441 0 -0.999225 0 0 -0.999225 0 -6.03905 0 -0.987414 0 -0.0118112 0 -0.987414 0 -6.03905 0 -0.999225 0.999225 0zm5.05518 1.99845l-4.05596 0 0 4.0406 4.05596 0 0 -4.0406zm-15.9321 8.02569l-4.05596 0 0 4.0406 4.05596 0 0 -4.0406zm7.8627 0l-4.05596 0 0 4.0406 4.05596 0 0 -4.0406zm8.06939 0l-4.05596 0 0 4.0406 4.05596 0 0 -4.0406zm-20.9873 6.16425l6.05441 0 0.809065 0 0.19016 0 0.809065 0 6.05441 0 0.999225 0 0 0.999225 0 6.03905 0 0.852766 0 0.146458 0 0.852766 0 6.03905 0 0.92009 0 0.0791348 0 0.92009 0 6.03905 0 0.999225 -0.999225 0 -6.05441 0 -0.809065 0 -0.19016 0 -0.809065 0 -6.05441 0 -0.999225 0 0 -0.999225 0 -6.03905 0 -0.92009 0 -0.0791348 0 -0.92009 0 -6.03905 0 -0.852766 0 -0.146458 0 -0.852766 0 -6.03905 0 -0.999225 0.999225 0zm5.05518 1.99845l-4.05596 0 0 4.0406 4.05596 0 0 -4.0406zm7.8627 0l-4.05596 0 0 4.0406 4.05596 0 0 -4.0406zm3.01421 -1.99845l6.05441 0 0.999225 0 0 0.999225 0 6.03905 0 0.852766 0 0.146458 0 0.852766 0 6.03905 0 0.92009 0 0.0791348 0 0.92009 0 6.03905 0 0.999225 -0.999225 0 -6.05441 0 -0.999225 0 0 -0.999225 0 -6.03905 0 -0.92009 0 -0.0791348 0 -0.92009 0 -6.03905 0 -0.852766 0 -0.146458 0 -0.852766 0 -6.03905 0 -0.999225 0.999225 0zm5.05518 1.99845l-4.05596 0 0 4.0406 4.05596 0 0 -4.0406zm-15.9321 7.89104l-4.05596 0 0 4.0406 4.05596 0 0 -4.0406zm7.8627 0l-4.05596 0 0 4.0406 4.05596 0 0 -4.0406zm8.06939 0l-4.05596 0 0 4.0406 4.05596 0 0 -4.0406zm-65.024 5.95992l0.0578747 0 0 -0.852766 0 -6.03905 0 -0.921271 -0.0578747 0 0 0.921271 0 6.03905 0 0.852766zm15.9085 1.99845l-34.8678 0 0 4.0406 34.8678 0 0 -4.0406zm-38.8115 0l-4.05596 0 0 4.0406 4.05596 0 0 -4.0406zm-16.0006 0l-4.05596 0 0 4.0406 4.05596 0 0 -4.0406zm62.0972 0l-4.05596 0 0 4.0406 4.05596 0 0 -4.0406zm7.8627 0l-4.05596 0 0 4.0406 4.05596 0 0 -4.0406zm3.01421 -1.99845l6.05441 0 0.999225 0 0 0.999225 0 6.03905 0 0.999225 -0.999225 0 -6.05441 0 -0.999225 0 0 -0.999225 0 -6.03905 0 -0.999225 0.999225 0zm5.05518 1.99845l-4.05596 0 0 4.0406 4.05596 0 0 -4.0406zm9.96626 0l-4.05596 0 0 4.0406 4.05596 0 0 -4.0406zm7.8627 0l-4.05596 0 0 4.0406 4.05596 0 0 -4.0406zm8.06939 0l-4.05596 0 0 4.0406 4.05596 0 0 -4.0406zm-95.7921 0l-4.05596 0 0 4.0406 4.05596 0 0 -4.0406zm12.9486 -7.89104l-4.05596 0 0 4.0406 4.05596 0 0 -4.0406zm-7.86506 0l-4.05596 0 0 4.0406 4.05596 0 0 -4.0406zm23.6861 0l-4.05596 0 0 4.0406 4.05596 0 0 -4.0406zm-7.86506 0l-4.05596 0 0 4.0406 4.05596 0 0 -4.0406zm23.8408 0l-4.05596 0 0 4.0406 4.05596 0 0 -4.0406zm-7.86506 0l-4.05596 0 0 4.0406 4.05596 0 0 -4.0406zm-13.1517 -7.95955l-4.05596 0 0 4.0406 4.05596 0 0 -4.0406zm-7.86506 0l-4.05596 0 0 4.0406 4.05596 0 0 -4.0406zm23.6861 0l-4.05596 0 0 4.0406 4.05596 0 0 -4.0406zm-7.86506 0l-4.05596 0 0 4.0406 4.05596 0 0 -4.0406zm-18.7361 -7.92884l-4.05596 0 0 4.0406 4.05596 0 0 -4.0406zm-7.86506 0l-4.05596 0 0 4.0406 4.05596 0 0 -4.0406zm23.6861 0l-4.05596 0 0 4.0406 4.05596 0 0 -4.0406zm-7.86506 0l-4.05596 0 0 4.0406 4.05596 0 0 -4.0406zm23.8408 0l-4.05596 0 0 4.0406 4.05596 0 0 -4.0406zm-7.86506 0l-4.05596 0 0 4.0406 4.05596 0 0 -4.0406zm-13.16 -8.16506l-4.05596 0 0 4.0406 4.05596 0 0 -4.0406zm-7.86506 0l-4.05596 0 0 4.0406 4.05596 0 0 -4.0406zm23.6861 -0.0850404l-4.05596 0 0 4.0406 4.05596 0 0 -4.0406zm-7.86506 0l-4.05596 0 0 4.0406 4.05596 0 0 -4.0406zm24.1798 0.101576l-4.05596 0 0 4.0406 4.05596 0 0 -4.0406zm-7.86506 0l-4.05596 0 0 4.0406 4.05596 0 0 -4.0406zm21.8389 7.95955l-5.04809 0 0 4.0406 5.04809 0 0 -4.0406z"
   id="path3488" />
  <path
   class="fil26"
   d="M77.0891 88.944l6.05441 0 0 6.03905 -6.05441 0 0 -6.03905zm-47.0108 -19.9243l6.05441 0 0 6.03905 -6.05441 0 0 -6.03905zm7.8627 0l6.05441 0 0 6.03905 -6.05441 0 0 -6.03905zm8.20522 0.135828l6.05441 0 0 6.03905 -6.05441 0 0 -6.03905zm7.8627 0l6.05441 0 0 6.03905 -6.05441 0 0 -6.03905zm8.06939 0l6.05441 0 0 6.03905 -6.05441 0 0 -6.03905zm7.9997 0l6.05441 0 0 6.03905 -6.05441 0 0 -6.03905zm7.8627 0l6.05441 0 0 6.03905 -6.05441 0 0 -6.03905zm8.06939 0l6.05441 0 0 6.03905 -6.05441 0 0 -6.03905zm-78.0293 -0.00118112l6.05441 0 0 6.03905 -6.05441 0 0 -6.03905zm87.9956 0.0070867l6.05441 0 0 6.03905 -6.05441 0 0 -6.03905zm7.8627 0l6.05441 0 0 6.03905 -6.05441 0 0 -6.03905zm8.06939 0l6.05441 0 0 6.03905 -6.05441 0 0 -6.03905zm-87.9271 11.8407l6.05441 0 0 6.03905 -6.05441 0 0 -6.03905zm-16.0006 0l6.05441 0 0 6.03905 -6.05441 0 0 -6.03905zm72.0966 0l11.9895 0 0 6.03905 -11.9895 0 0 -6.03905zm-63.961 0l6.05441 0 0 6.03905 -6.05441 0 0 -6.03905zm-8.18632 8.09656l11.0564 0 0 6.03905 -11.0564 0 0 -6.03905zm60.8618 -0.153545l6.05441 0 0 6.03905 -6.05441 0 0 -6.03905zm3.11461 7.97726l6.05441 0 0 6.03905 -6.05441 0 0 -6.03905zm-7.92411 0l6.05441 0 0 6.03905 -6.05441 0 0 -6.03905zm-40.0009 0l6.05441 0 0 6.03905 -6.05441 0 0 -6.03905zm56.0865 0l11.9966 0 0 6.03905 -11.9966 0 0 -6.03905zm-72.1379 0l14.2407 0 0 6.03905 -14.2407 0 0 -6.03905zm0.050788 8.03041l11.8832 0 0 6.03905 -11.8832 0 0 -6.03905zm60.811 -0.119293l6.05441 0 0 6.03905 -6.05441 0 0 -6.03905zm8.29262 0l14.9163 0 0 6.03905 -14.9163 0 0 -6.03905zm18.892 -23.959l6.05441 0 0 6.03905 -6.05441 0 0 -6.03905zm7.8627 0l6.05441 0 0 6.03905 -6.05441 0 0 -6.03905zm8.06939 0l6.05441 0 0 6.03905 -6.05441 0 0 -6.03905zm-15.9321 8.02569l6.05441 0 0 6.03905 -6.05441 0 0 -6.03905zm7.8627 0l6.05441 0 0 6.03905 -6.05441 0 0 -6.03905zm8.06939 0l6.05441 0 0 6.03905 -6.05441 0 0 -6.03905zm-15.9321 8.1627l6.05441 0 0 6.03905 -6.05441 0 0 -6.03905zm7.8627 0l6.05441 0 0 6.03905 -6.05441 0 0 -6.03905zm8.06939 0l6.05441 0 0 6.03905 -6.05441 0 0 -6.03905zm-15.9321 7.89104l6.05441 0 0 6.03905 -6.05441 0 0 -6.03905zm7.8627 0l6.05441 0 0 6.03905 -6.05441 0 0 -6.03905zm8.06939 0l6.05441 0 0 6.03905 -6.05441 0 0 -6.03905zm-43.0612 8.05167l0 5.94574 -36.8662 0 0 -5.94574 36.8662 0zm-38.8115 0l0 5.94574 -6.05441 0 0 -5.94574 6.05441 0zm-16.0006 0l0 5.94574 -6.05441 0 0 -5.94574 6.05441 0zm62.0972 0l0 5.94574 -6.05441 0 0 -5.94574 6.05441 0zm7.8627 0l0 5.94574 -6.05441 0 0 -5.94574 6.05441 0zm8.06939 0l0 5.94574 -6.05441 0 0 -5.94574 6.05441 0zm9.96626 0l0 5.94574 -6.05441 0 0 -5.94574 6.05441 0zm7.8627 0l0 5.94574 -6.05441 0 0 -5.94574 6.05441 0zm8.06939 0l0 5.94574 -6.05441 0 0 -5.94574 6.05441 0zm-95.7921 0l0 5.94574 -6.05441 0 0 -5.94574 6.05441 0zm6.89418 -7.98435l6.05441 0 0 6.03905 -6.05441 0 0 -6.03905zm-7.86506 0l6.05441 0 0 6.03905 -6.05441 0 0 -6.03905zm23.6861 0l6.05441 0 0 6.03905 -6.05441 0 0 -6.03905zm-7.86506 0l6.05441 0 0 6.03905 -6.05441 0 0 -6.03905zm23.8408 0l6.05441 0 0 6.03905 -6.05441 0 0 -6.03905zm-7.86506 0l6.05441 0 0 6.03905 -6.05441 0 0 -6.03905zm-13.1517 -7.95955l6.05441 0 0 6.03905 -6.05441 0 0 -6.03905zm-7.86506 0l6.05441 0 0 6.03905 -6.05441 0 0 -6.03905zm23.6861 0l6.05441 0 0 6.03905 -6.05441 0 0 -6.03905zm-7.86506 0l6.05441 0 0 6.03905 -6.05441 0 0 -6.03905zm-18.7361 -7.92884l6.05441 0 0 6.03905 -6.05441 0 0 -6.03905zm-7.86506 0l6.05441 0 0 6.03905 -6.05441 0 0 -6.03905zm23.6861 0l6.05441 0 0 6.03905 -6.05441 0 0 -6.03905zm-7.86506 0l6.05441 0 0 6.03905 -6.05441 0 0 -6.03905zm23.8408 0l6.05441 0 0 6.03905 -6.05441 0 0 -6.03905zm-7.86506 0l6.05441 0 0 6.03905 -6.05441 0 0 -6.03905zm-13.16 -8.16506l6.05441 0 0 6.03905 -6.05441 0 0 -6.03905zm-7.86506 0l6.05441 0 0 6.03905 -6.05441 0 0 -6.03905zm23.6861 -0.0850404l6.05441 0 0 6.03905 -6.05441 0 0 -6.03905zm-7.86506 0l6.05441 0 0 6.03905 -6.05441 0 0 -6.03905zm24.1798 0.101576l6.05441 0 0 6.03905 -6.05441 0 0 -6.03905zm-7.86506 0l6.05441 0 0 6.03905 -6.05441 0 0 -6.03905zm20.8467 7.95955l7.04654 0 0 6.03905 -7.04654 0 0 -6.03905z"
   id="path3490" />
  <path
   class="fil21"
   d="M7.98081 86.0751l6.05441 0 0 0.966154 -6.05441 0 0 -0.966154zm8.13553 0l6.05441 0 0 0.966154 -6.05441 0 0 -0.966154zm7.86506 0l6.05441 0 0 0.966154 -6.05441 0 0 -0.966154zm7.99026 0l6.05441 0 0 0.931901 -6.05441 0 0 -0.931901zm7.86506 0l6.05441 0 0 0.931901 -6.05441 0 0 -0.931901zm7.956 0l6.05441 0 0 0.846861 -6.05441 0 0 -0.846861zm7.86506 0l6.05441 0 0 0.846861 -6.05441 0 0 -0.846861zm8.44971 0l6.05441 0 0 0.948437 -6.05441 0 0 -0.948437zm7.86506 0l6.05441 0 0 0.948437 -6.05441 0 0 -0.948437zm8.10482 0l11.9895 0 0 0.966154 -11.9895 0 0 -0.966154zm15.899 0l6.05441 0 0 0.838593 -6.05441 0 0 -0.838593zm7.8627 0l6.05441 0 0 0.838593 -6.05441 0 0 -0.838593zm8.06939 0l6.05441 0 0 0.838593 -6.05441 0 0 -0.838593z"
   id="path3492" />
  <path
   class="fil27"
   d="M7.93002 94.0004l11.0564 0 0 1.02521 -11.0564 0 0 -1.02521zm13.2698 0l6.05441 0 0 1.02521 -6.05441 0 0 -1.02521zm7.86506 0l6.05441 0 0 1.02521 -6.05441 0 0 -1.02521zm7.956 0l6.05441 0 0 1.02521 -6.05441 0 0 -1.02521zm7.86506 0l6.05441 0 0 1.02521 -6.05441 0 0 -1.02521zm8.11073 0l6.05441 0 0 1.02521 -6.05441 0 0 -1.02521zm7.86506 0l6.05441 0 0 1.02521 -6.05441 0 0 -1.02521zm7.93002 0l6.05441 0 0 0.98387 -6.05441 0 0 -0.98387zm8.29735 0l6.05441 0 0 0.982689 -6.05441 0 0 -0.982689zm7.86506 0l7.04654 0 0 0.982689 -7.04654 0 0 -0.982689zm11.0222 0l6.05441 0 0 0.938988 -6.05441 0 0 -0.938988zm7.8627 0l6.05441 0 0 0.938988 -6.05441 0 0 -0.938988zm8.06939 0l6.05441 0 0 0.938988 -6.05441 0 0 -0.938988z"
   id="path3494" />
  <path
   class="fil27"
   d="M7.93002 101.993l14.2407 0 0 0.968516 -14.2407 0 0 -0.968516zm16.0514 0l6.05441 0 0 0.968516 -6.05441 0 0 -0.968516zm7.99852 0l6.05441 0 0 1.02521 -6.05441 0 0 -1.02521zm7.86506 0l6.05441 0 0 1.02521 -6.05441 0 0 -1.02521zm7.956 0l6.05441 0 0 1.02521 -6.05441 0 0 -1.02521zm7.86506 0l6.05441 0 0 1.02521 -6.05441 0 0 -1.02521zm8.31624 0l6.05441 0 0 0.968516 -6.05441 0 0 -0.968516zm7.92411 0l6.05441 0 0 0.968516 -6.05441 0 0 -0.968516zm8.16152 0l11.9966 0 0 0.968516 -11.9966 0 0 -0.968516zm15.9085 0l6.05441 0 0 1.02521 -6.05441 0 0 -1.02521zm7.8627 0l6.05441 0 0 1.02521 -6.05441 0 0 -1.02521zm8.06939 0l6.05441 0 0 1.02521 -6.05441 0 0 -1.02521z"
   id="path3496" />
  <path
   class="fil27"
   d="M7.98081 109.995l11.8832 0 0 0.996863 -11.8832 0 0 -0.996863zm13.2191 0l6.05441 0 0 1.02521 -6.05441 0 0 -1.02521zm7.86506 0l6.05441 0 0 1.02521 -6.05441 0 0 -1.02521zm7.956 0l6.05441 0 0 1.02521 -6.05441 0 0 -1.02521zm7.86506 0l6.05441 0 0 1.02521 -6.05441 0 0 -1.02521zm8.11073 0l6.05441 0 0 1.02521 -6.05441 0 0 -1.02521zm7.86506 0l6.05441 0 0 1.02521 -6.05441 0 0 -1.02521zm7.93002 0l6.05441 0 0 0.87757 -6.05441 0 0 -0.87757zm8.29262 0l14.9163 0 0 0.87757 -14.9163 0 0 -0.87757zm18.892 0l6.05441 0 0 0.998044 -6.05441 0 0 -0.998044zm7.8627 0l6.05441 0 0 0.998044 -6.05441 0 0 -0.998044zm8.06939 0l6.05441 0 0 0.998044 -6.05441 0 0 -0.998044z"
   id="path3498" />
  <path
   class="fil21"
   d="M117.963 70.0131l-6.05441 0 0 -0.851585 6.05441 0 0 0.851585zm-8.06939 0l-6.05441 0 0 -0.851585 6.05441 0 0 0.851585zm-7.8627 0l-6.05441 0 0 -0.851585 6.05441 0 0 0.851585zm-9.96626 0l-6.05441 0 0 -0.857491 6.05441 0 0 0.857491zm-8.06939 0l-6.05441 0 0 -0.857491 6.05441 0 0 0.857491zm-7.8627 0l-6.05441 0 0 -0.857491 6.05441 0 0 0.857491zm-7.9997 0l-6.05441 0 0 -0.857491 6.05441 0 0 0.857491zm-8.06939 0l-6.05441 0 0 -0.857491 6.05441 0 0 0.857491zm-7.8627 0l-6.05441 0 0 -0.857491 6.05441 0 0 0.857491zm-8.20522 0l-6.05441 0 0 -0.993319 6.05441 0 0 0.993319zm-7.8627 0l-6.05441 0 0 -0.993319 6.05441 0 0 0.993319zm-22.0975 0l-6.05441 0 0 -0.858672 6.05441 0 0 0.858672z"
   id="path3500" />
  <path
   class="fil21"
   d="M31.9717 80.9868l6.05441 0 0 1.02521 -6.05441 0 0 -1.02521zm7.86506 0l6.05441 0 0 1.02521 -6.05441 0 0 -1.02521zm7.956 0l6.05441 0 0 1.02521 -6.05441 0 0 -1.02521zm7.86506 0l6.05441 0 0 1.02521 -6.05441 0 0 -1.02521zm8.44971 0l6.05441 0 0 1.02521 -6.05441 0 0 -1.02521zm7.86506 0l6.05441 0 0 1.02521 -6.05441 0 0 -1.02521zm24.0038 0l6.05441 0 0 1.02521 -6.05441 0 0 -1.02521zm7.8627 0l6.05441 0 0 1.02521 -6.05441 0 0 -1.02521zm8.06939 0l6.05441 0 0 1.02521 -6.05441 0 0 -1.02521zm-19.8416 1.02521l-11.9895 0 0 -1.00985 11.9895 0 0 1.00985zm-62.0311 0l-6.05441 0 0 -1.00985 6.05441 0 0 1.00985zm-7.86506 0l-6.05441 0 0 -1.00985 6.05441 0 0 1.00985zm-8.13553 0l-6.05441 0 0 -1.00985 6.05441 0 0 1.00985z"
   id="path3502" />
  <path
   class="fil21"
   d="M68.7918 89.0125l6.05441 0 0 1.02521 -6.05441 0 0 -1.02521zm8.29735 0l6.05441 0 0 1.02521 -6.05441 0 0 -1.02521zm7.86506 0l7.04654 0 0 1.02521 -7.04654 0 0 -1.02521zm11.0222 0l6.05441 0 0 1.02521 -6.05441 0 0 -1.02521zm7.8627 0l6.05441 0 0 1.02521 -6.05441 0 0 -1.02521zm8.06939 0l6.05441 0 0 1.02521 -6.05441 0 0 -1.02521zm-44.9923 1.02521l-6.05441 0 0 -0.904736 6.05441 0 0 0.904736zm-7.86506 0l-6.05441 0 0 -0.904736 6.05441 0 0 0.904736zm-8.11073 0l-6.05441 0 0 -0.904736 6.05441 0 0 0.904736zm-7.86506 0l-6.05441 0 0 -0.904736 6.05441 0 0 0.904736zm-7.956 0l-6.05441 0 0 -0.904736 6.05441 0 0 0.904736zm-7.86506 0l-6.05441 0 0 -0.904736 6.05441 0 0 0.904736zm-8.26782 0l-11.0564 0 0 -0.938988 11.0564 0 0 0.938988z"
   id="path3504" />
  <path
   class="fil21"
   d="M7.93002 96.9721l14.2407 0 0 1.02521 -14.2407 0 0 -1.02521zm16.0514 0l6.05441 0 0 1.02521 -6.05441 0 0 -1.02521zm40.0009 0l6.05441 0 0 1.02521 -6.05441 0 0 -1.02521zm7.92411 0l6.05441 0 0 1.02521 -6.05441 0 0 -1.02521zm8.16152 0l11.9966 0 0 1.02521 -11.9966 0 0 -1.02521zm37.895 1.02521l-6.05441 0 0 -0.934263 6.05441 0 0 0.934263zm-8.06939 0l-6.05441 0 0 -0.934263 6.05441 0 0 0.934263zm-7.8627 0l-6.05441 0 0 -0.934263 6.05441 0 0 0.934263zm-40.3103 0l-6.05441 0 0 -0.935445 6.05441 0 0 0.935445zm-7.86506 0l-6.05441 0 0 -0.935445 6.05441 0 0 0.935445zm-7.956 0l-6.05441 0 0 -0.935445 6.05441 0 0 0.935445zm-7.86506 0l-6.05441 0 0 -0.935445 6.05441 0 0 0.935445z"
   id="path3506" />
  <path
   class="fil21"
   d="M68.7918 104.933l6.05441 0 0 1.02521 -6.05441 0 0 -1.02521zm8.29262 0l14.9163 0 0 1.02521 -14.9163 0 0 -1.02521zm40.8785 1.02521l-6.05441 0 0 -1.00395 6.05441 0 0 1.00395zm-8.06939 0l-6.05441 0 0 -1.00395 6.05441 0 0 1.00395zm-7.8627 0l-6.05441 0 0 -1.00395 6.05441 0 0 1.00395zm-35.1146 0l-6.05441 0 0 -0.936626 6.05441 0 0 0.936626zm-7.86506 0l-6.05441 0 0 -0.936626 6.05441 0 0 0.936626zm-8.11073 0l-6.05441 0 0 -0.936626 6.05441 0 0 0.936626zm-7.86506 0l-6.05441 0 0 -0.936626 6.05441 0 0 0.936626zm-7.956 0l-6.05441 0 0 -0.936626 6.05441 0 0 0.936626zm-7.86506 0l-6.05441 0 0 -0.936626 6.05441 0 0 0.936626zm-7.39025 0l-11.8832 0 0 -1.00513 11.8832 0 0 1.00513z"
   id="path3508" />
  <path
   class="fil27"
   d="M7.98081 117.994l6.05441 0 0 0.957886 -6.05441 0 0 -0.957886zm8.13553 0l6.05441 0 0 0.957886 -6.05441 0 0 -0.957886zm7.86506 0l6.05441 0 0 0.957886 -6.05441 0 0 -0.957886zm7.9997 0l36.8662 0 0 0.957886 -36.8662 0 0 -0.957886zm38.0969 0l6.05441 0 0 0.957886 -6.05441 0 0 -0.957886zm7.8627 0l6.05441 0 0 0.957886 -6.05441 0 0 -0.957886zm8.06939 0l6.05441 0 0 0.957886 -6.05441 0 0 -0.957886zm9.96626 0l6.05441 0 0 0.957886 -6.05441 0 0 -0.957886zm7.8627 0l6.05441 0 0 0.957886 -6.05441 0 0 -0.957886zm8.06939 0l6.05441 0 0 0.957886 -6.05441 0 0 -0.957886z"
   id="path3510" />
  <path
   class="fil21"
   d="M117.963 113.993l-6.05441 0 0 -0.987414 6.05441 0 0 0.987414zm-8.06939 0l-6.05441 0 0 -0.987414 6.05441 0 0 0.987414zm-7.8627 0l-6.05441 0 0 -0.987414 6.05441 0 0 0.987414zm-9.96626 0l-6.05441 0 0 -0.987414 6.05441 0 0 0.987414zm-8.06939 0l-6.05441 0 0 -0.987414 6.05441 0 0 0.987414zm-7.8627 0l-6.05441 0 0 -0.987414 6.05441 0 0 0.987414zm-7.28513 0l-36.8662 0 0 -0.987414 36.8662 0 0 0.987414zm-38.8115 0l-6.05441 0 0 -0.987414 6.05441 0 0 0.987414zm-7.86506 0l-6.05441 0 0 -0.987414 6.05441 0 0 0.987414zm-8.13553 0l-6.05441 0 0 -0.987414 6.05441 0 0 0.987414z"
   id="path3512" />
  <g
   id="_251332784">
   <circle
   id="_251342744"
   class="fil28"
   cx="119.307"
   cy="54.5534"
   r="1.69136" />
   <circle
   id="_251360240"
   class="fil29"
   cx="119.311"
   cy="53.6945"
   r="0.696616" />
   <ellipse
   id="_246204152"
   class="fil30"
   cx="119.31"
   cy="55.2512"
   rx="1.11813"
   ry="0.807602" />
  </g>
  <g
   id="_251165008">
   <circle
   id="_251342072"
   class="fil28"
   cx="113.952"
   cy="54.5534"
   r="1.69136" />
   <circle
   id="_251350856"
   class="fil29"
   cx="113.956"
   cy="53.6945"
   r="0.696616" />
   <ellipse
   id="_251358800"
   class="fil30"
   cx="113.955"
   cy="55.2512"
   rx="1.11813"
   ry="0.807602" />
  </g>
  <circle
   class="fil31"
   cx="102.426"
   cy="54.5534"
   r="1.69136"
   id="circle3522" />
  <circle
   class="fil32"
   cx="102.431"
   cy="53.6945"
   r="0.696616"
   id="circle3524" />
  <ellipse
   class="fil33"
   cx="102.43"
   cy="55.2512"
   rx="1.11813"
   ry="0.807602"
   id="ellipse3526" />
  <circle
   class="fil31"
   cx="96.7996"
   cy="54.5534"
   r="1.69136"
   id="circle3528" />
  <circle
   class="fil32"
   cx="96.8041"
   cy="53.6945"
   r="0.696616"
   id="circle3530" />
  <ellipse
   class="fil33"
   cx="96.8028"
   cy="55.2512"
   rx="1.11813"
   ry="0.807602"
   id="ellipse3532" />
  <circle
   class="fil31"
   cx="90.8326"
   cy="54.5534"
   r="1.69136"
   id="circle3534" />
  <circle
   class="fil32"
   cx="90.8371"
   cy="53.6945"
   r="0.696616"
   id="circle3536" />
  <ellipse
   class="fil33"
   cx="90.8358"
   cy="55.2512"
   rx="1.11813"
   ry="0.807602"
   id="ellipse3538" />
  <circle
   class="fil31"
   cx="10.6253"
   cy="54.5534"
   r="1.69136"
   id="circle3540" />
  <circle
   class="fil32"
   cx="10.6298"
   cy="53.6945"
   r="0.696616"
   id="circle3542" />
  <ellipse
   class="fil33"
   cx="10.6285"
   cy="55.2512"
   rx="1.11813"
   ry="0.807602"
   id="ellipse3544" />
  <circle
   class="fil31"
   cx="4.65833"
   cy="54.5534"
   r="1.69136"
   id="circle3546" />
  <circle
   class="fil32"
   cx="4.66281"
   cy="53.6945"
   r="0.696616"
   id="circle3548" />
  <ellipse
   class="fil33"
   cx="4.66148"
   cy="55.2512"
   rx="1.11813"
   ry="0.807602"
   id="ellipse3550" />
  <circle
   class="fil31"
   cx="21.7444"
   cy="54.5534"
   r="1.69136"
   id="circle3552" />
  <circle
   class="fil32"
   cx="21.7488"
   cy="53.6945"
   r="0.696616"
   id="circle3554" />
  <ellipse
   class="fil33"
   cx="21.7475"
   cy="55.2512"
   rx="1.11813"
   ry="0.807602"
   id="ellipse3556" />
  <circle
   class="fil31"
   cx="26.2527"
   cy="54.5534"
   r="1.69136"
   id="circle3558" />
  <circle
   class="fil32"
   cx="26.2572"
   cy="53.6945"
   r="0.696616"
   id="circle3560" />
  <ellipse
   class="fil33"
   cx="26.2558"
   cy="55.2512"
   rx="1.11813"
   ry="0.807602"
   id="ellipse3562" />
 </g>
</svg>