<?xml version="1.0" encoding="UTF-8" standalone="no"?>
<!-- Created with Inkscape (http://www.inkscape.org/) -->

<svg
   xmlns:dc="http://purl.org/dc/elements/1.1/"
   xmlns:cc="http://creativecommons.org/ns#"
   xmlns:rdf="http://www.w3.org/1999/02/22-rdf-syntax-ns#"
   xmlns:svg="http://www.w3.org/2000/svg"
   xmlns="http://www.w3.org/2000/svg"
   xmlns:sodipodi="http://sodipodi.sourceforge.net/DTD/sodipodi-0.dtd"
   xmlns:inkscape="http://www.inkscape.org/namespaces/inkscape"
   width="128"
   height="128"
   id="svg2"
   version="1.1"
   inkscape:version="0.48.3.1 r9886"
   sodipodi:docname="128.svg">
  <defs
     id="defs4">
    <linearGradient
       gradientTransform="translate(49.843,47.814)"
       y2="-6.6"
       x2="-5.7"
       y1="0"
       x1="0"
       gradientUnits="userSpaceOnUse"
       id="LinearGradient_34-0">
      <stop
         id="stop92355"
         stop-color="#e6ab88"
         offset="0" />
      <stop
         id="stop92357"
         stop-color="#ffd3b9"
         offset="1" />
    </linearGradient>
    <linearGradient
       gradientTransform="translate(47.894,54.714)"
       y2="-6.75"
       x2="-5.85"
       y1="0"
       x1="0"
       gradientUnits="userSpaceOnUse"
       id="LinearGradient_33-2">
      <stop
         id="stop92350"
         stop-color="#e7ac8a"
         offset="0" />
      <stop
         id="stop92352"
         stop-color="#ffd3b9"
         offset="1" />
    </linearGradient>
    <linearGradient
       gradientTransform="translate(43.994,62.664)"
       y2="-6.6"
       x2="-5.7"
       y1="0"
       x1="0"
       gradientUnits="userSpaceOnUse"
       id="LinearGradient_32-4">
      <stop
         id="stop92345"
         stop-color="#e6aa88"
         offset="0" />
      <stop
         id="stop92347"
         stop-color="#ffd3b9"
         offset="1" />
    </linearGradient>
    <linearGradient
       gradientTransform="translate(39.644,66.114)"
       y2="-24.3"
       x2="-25.35"
       y1="0"
       x1="0"
       gradientUnits="userSpaceOnUse"
       id="LinearGradient_31-2">
      <stop
         id="stop92338"
         stop-color="#ffd3b9"
         offset="0" />
      <stop
         id="stop92340"
         stop-color="#ffe7dd"
         offset="0.453352808952332" />
      <stop
         id="stop92342"
         stop-color="#ffd3b9"
         offset="1" />
    </linearGradient>
    <linearGradient
       gradientTransform="translate(7.959,39.689)"
       y2="-20.349"
       x2="0"
       y1="0"
       x1="0"
       gradientUnits="userSpaceOnUse"
       id="LinearGradient_30-06">
      <stop
         id="stop92333"
         stop-color="#8acafc"
         offset="0" />
      <stop
         id="stop92335"
         stop-color="#619dd7"
         offset="1" />
    </linearGradient>
    <linearGradient
       gradientTransform="translate(7.959,39.689)"
       y2="-20.349"
       x2="0"
       y1="0"
       x1="0"
       gradientUnits="userSpaceOnUse"
       id="LinearGradient_29-14">
      <stop
         id="stop92328"
         stop-color="#66a1d1"
         offset="0" />
      <stop
         id="stop92330"
         stop-color="#4f7fb3"
         offset="1" />
    </linearGradient>
    <linearGradient
       gradientTransform="translate(49.544,42.039)"
       y2="2.819"
       x2="3.832"
       y1="0"
       x1="0"
       gradientUnits="userSpaceOnUse"
       id="LinearGradient_28-2">
      <stop
         id="stop92323"
         stop-color="#ffd3b9"
         offset="0" />
      <stop
         id="stop92325"
         stop-color="#ffe7dd"
         offset="1" />
    </linearGradient>
    <linearGradient
       gradientTransform="translate(48.044,44.139)"
       y2="2.85"
       x2="5.099"
       y1="0"
       x1="0"
       gradientUnits="userSpaceOnUse"
       id="LinearGradient_27-098">
      <stop
         id="stop92318"
         stop-color="#ffd3b9"
         offset="0" />
      <stop
         id="stop92320"
         stop-color="#edb493"
         offset="1" />
    </linearGradient>
    <linearGradient
       gradientTransform="translate(44.444,58.389)"
       y2="5.7"
       x2="8.999"
       y1="0"
       x1="0"
       gradientUnits="userSpaceOnUse"
       id="LinearGradient_26-82">
      <stop
         id="stop92313"
         stop-color="#ffd3b9"
         offset="0" />
      <stop
         id="stop92315"
         stop-color="#edb493"
         offset="1" />
    </linearGradient>
    <linearGradient
       gradientTransform="translate(45.943,48.189)"
       y2="5.25"
       x2="8.849"
       y1="0"
       x1="0"
       gradientUnits="userSpaceOnUse"
       id="LinearGradient_25-54">
      <stop
         id="stop92308"
         stop-color="#ffd3b9"
         offset="0" />
      <stop
         id="stop92310"
         stop-color="#ffe7dd"
         offset="1" />
    </linearGradient>
    <linearGradient
       gradientTransform="translate(45.644,50.739)"
       y2="5.7"
       x2="8.999"
       y1="0"
       x1="0"
       gradientUnits="userSpaceOnUse"
       id="LinearGradient_24-46">
      <stop
         id="stop92303"
         stop-color="#ffd3b9"
         offset="0" />
      <stop
         id="stop92305"
         stop-color="#edb493"
         offset="1" />
    </linearGradient>
    <linearGradient
       gradientTransform="translate(45.044,55.839)"
       y2="5.25"
       x2="8.849"
       y1="0"
       x1="0"
       gradientUnits="userSpaceOnUse"
       id="LinearGradient_22-34">
      <stop
         id="stop92293"
         stop-color="#ffd3b9"
         offset="0" />
      <stop
         id="stop92295"
         stop-color="#ffe7dd"
         offset="1" />
    </linearGradient>
    <linearGradient
       gradientTransform="translate(18.829,41.929)"
       y2="-21"
       x2="0"
       y1="0"
       x1="0"
       gradientUnits="userSpaceOnUse"
       id="LinearGradient_21-14">
      <stop
         id="stop92288"
         stop-color="#ffffff"
         offset="0" />
      <stop
         id="stop92290"
         stop-color="#8acafc"
         offset="1" />
    </linearGradient>
    <linearGradient
       gradientTransform="translate(12.044,42.264)"
       y2="-20.1"
       x2="0"
       y1="0"
       x1="0"
       gradientUnits="userSpaceOnUse"
       id="LinearGradient_20-08">
      <stop
         id="stop92283"
         stop-color="#66a1d1"
         offset="0" />
      <stop
         id="stop92285"
         stop-color="#4f7fb3"
         offset="1" />
    </linearGradient>
    <linearGradient
       gradientTransform="translate(25.844,39.264)"
       y2="12.15"
       x2="9.9"
       y1="0"
       x1="0"
       gradientUnits="userSpaceOnUse"
       id="LinearGradient_19-83">
      <stop
         id="stop92278"
         stop-color="#ffd3b9"
         offset="0" />
      <stop
         id="stop92280"
         stop-color="#ffe5da"
         offset="1" />
    </linearGradient>
    <linearGradient
       gradientTransform="translate(30.758,79.499)"
       y2="-1.5"
       x2="0"
       y1="0"
       x1="0"
       gradientUnits="userSpaceOnUse"
       id="LinearGradient_18-90">
      <stop
         id="stop92273"
         stop-color="#ffffff"
         offset="0" />
      <stop
         id="stop92275"
         stop-color="#fee0d4"
         offset="1" />
    </linearGradient>
    <linearGradient
       gradientTransform="translate(62.65,83.457)"
       y2="-1.5"
       x2="-2.175"
       y1="0"
       x1="0"
       gradientUnits="userSpaceOnUse"
       id="LinearGradient_17-03">
      <stop
         id="stop92268"
         stop-color="#ffffff"
         offset="0" />
      <stop
         id="stop92270"
         stop-color="#fee0d4"
         offset="1" />
    </linearGradient>
    <linearGradient
       gradientTransform="translate(36.044,65.289)"
       y2="5.85"
       x2="7.8"
       y1="0"
       x1="0"
       gradientUnits="userSpaceOnUse"
       id="LinearGradient_16-74">
      <stop
         id="stop92263"
         stop-color="#ffd3b9"
         offset="0" />
      <stop
         id="stop92265"
         stop-color="#ffe7dd"
         offset="1" />
    </linearGradient>
    <linearGradient
       gradientTransform="translate(25.094,60.789)"
       y2="12.3"
       x2="5.25"
       y1="0"
       x1="0"
       gradientUnits="userSpaceOnUse"
       id="LinearGradient_15-51">
      <stop
         id="stop92258"
         stop-color="#ffd3b9"
         offset="0" />
      <stop
         id="stop92260"
         stop-color="#eab698"
         offset="1" />
    </linearGradient>
    <linearGradient
       gradientTransform="translate(90.008,14.999)"
       y2="79.5"
       x2="0"
       y1="0"
       x1="0"
       gradientUnits="userSpaceOnUse"
       id="LinearGradient_14-619">
      <stop
         id="stop92253"
         stop-color="#b0b0b0"
         offset="0" />
      <stop
         id="stop92255"
         stop-color="#e6e5e5"
         offset="1" />
    </linearGradient>
    <linearGradient
       gradientTransform="translate(48.008,17.999)"
       y2="23.25"
       x2="0"
       y1="0"
       x1="0"
       gradientUnits="userSpaceOnUse"
       id="LinearGradient_13-30">
      <stop
         id="stop92248"
         stop-color="#5d5d5d"
         offset="0" />
      <stop
         id="stop92250"
         stop-color="#707070"
         offset="1" />
    </linearGradient>
    <linearGradient
       gradientTransform="translate(48.008,17.999)"
       y2="23.25"
       x2="0"
       y1="0"
       x1="0"
       gradientUnits="userSpaceOnUse"
       id="LinearGradient_12-85">
      <stop
         id="stop92243"
         stop-color="#464646"
         offset="0" />
      <stop
         id="stop92245"
         stop-color="#1d1d1d"
         offset="1" />
    </linearGradient>
    <linearGradient
       gradientTransform="translate(16.508,19.948)"
       y2="0"
       x2="63"
       y1="0"
       x1="0"
       gradientUnits="userSpaceOnUse"
       id="LinearGradient_11-250">
      <stop
         id="stop92236"
         stop-color="#9f9f9f"
         offset="0" />
      <stop
         id="stop92238"
         stop-color="#707070"
         offset="0.5" />
      <stop
         id="stop92240"
         stop-color="#a0a0a0"
         offset="1" />
    </linearGradient>
    <linearGradient
       gradientTransform="translate(57.758,37.499)"
       y2="-9"
       x2="0"
       y1="0"
       x1="0"
       gradientUnits="userSpaceOnUse"
       id="LinearGradient_10-787">
      <stop
         id="stop92231"
         stop-color="#ffffff"
         offset="0" />
      <stop
         id="stop92233"
         stop-color="#b6b6b6"
         offset="1" />
    </linearGradient>
    <linearGradient
       gradientTransform="matrix(0,-1,1,0,46.508,38.249)"
       y2="0"
       x2="15.713"
       y1="0"
       x1="0"
       gradientUnits="userSpaceOnUse"
       id="LinearGradient_9-31">
      <stop
         id="stop92226"
         stop-color="#b0b0b1"
         offset="0" />
      <stop
         id="stop92228"
         stop-color="#bababa"
         offset="1" />
    </linearGradient>
    <linearGradient
       gradientTransform="translate(53.258,41.249)"
       y2="-23.25"
       x2="0"
       y1="0"
       x1="0"
       gradientUnits="userSpaceOnUse"
       id="LinearGradient_8-468">
      <stop
         id="stop92221"
         stop-color="#ffffff"
         offset="0" />
      <stop
         id="stop92223"
         stop-color="#999999"
         offset="1" />
    </linearGradient>
    <linearGradient
       gradientTransform="translate(47.258,17.999)"
       y2="24"
       x2="0"
       y1="0"
       x1="0"
       gradientUnits="userSpaceOnUse"
       id="LinearGradient_7-582">
      <stop
         id="stop92216"
         stop-color="#474747"
         offset="0" />
      <stop
         id="stop92218"
         stop-color="#1d1d1d"
         offset="1" />
    </linearGradient>
    <linearGradient
       gradientTransform="translate(88.508,17.249)"
       y2="3.75"
       x2="0"
       y1="0"
       x1="0"
       gradientUnits="userSpaceOnUse"
       id="LinearGradient_6-53">
      <stop
         id="stop92211"
         stop-color="#e2e2e2"
         offset="0" />
      <stop
         id="stop92213"
         stop-color="#b2b2b2"
         offset="1" />
    </linearGradient>
    <linearGradient
       gradientTransform="matrix(0,-1,1,0,87.008,81.749)"
       y2="0"
       x2="19.279"
       y1="0"
       x1="0"
       gradientUnits="userSpaceOnUse"
       id="LinearGradient_5-92">
      <stop
         id="stop92206"
         stop-color="#9c9c9c"
         offset="0" />
      <stop
         id="stop92208"
         stop-color="#676767"
         offset="1" />
    </linearGradient>
    <linearGradient
       gradientTransform="translate(87.758,51.749)"
       y2="31.5"
       x2="0"
       y1="0"
       x1="0"
       gradientUnits="userSpaceOnUse"
       id="LinearGradient_4-740">
      <stop
         id="stop92201"
         stop-color="#2b2b2b"
         offset="0" />
      <stop
         id="stop92203"
         stop-color="#1d1d1d"
         offset="1" />
    </linearGradient>
    <linearGradient
       gradientTransform="translate(53.328,90.229)"
       y2="-39.6"
       x2="0"
       y1="0"
       x1="0"
       gradientUnits="userSpaceOnUse"
       id="LinearGradient_3-20">
      <stop
         id="stop92196"
         stop-color="#686868"
         offset="0" />
      <stop
         id="stop92198"
         stop-color="#474747"
         offset="1" />
    </linearGradient>
    <linearGradient
       gradientTransform="translate(88.508,43.499)"
       y2="3.75"
       x2="0"
       y1="0"
       x1="0"
       gradientUnits="userSpaceOnUse"
       id="LinearGradient_2-895">
      <stop
         id="stop92191"
         stop-color="#e2e2e2"
         offset="0" />
      <stop
         id="stop92193"
         stop-color="#bababa"
         offset="1" />
    </linearGradient>
    <linearGradient
       gradientTransform="translate(38.258,93.749)"
       y2="-78"
       x2="0"
       y1="0"
       x1="0"
       gradientUnits="userSpaceOnUse"
       id="LinearGradient_1-609">
      <stop
         id="stop92186"
         stop-color="#c9c9c9"
         offset="0" />
      <stop
         id="stop92188"
         stop-color="#b0b0b0"
         offset="1" />
    </linearGradient>
    <linearGradient
       gradientTransform="translate(38.258,95.249)"
       y2="-81"
       x2="0"
       y1="0"
       x1="0"
       gradientUnits="userSpaceOnUse"
       id="LinearGradient-292">
      <stop
         id="stop92181"
         stop-color="#878b8e"
         offset="0" />
      <stop
         id="stop92183"
         stop-color="#818689"
         offset="1" />
    </linearGradient>
  </defs>
  <sodipodi:namedview
     id="base"
     pagecolor="#ffffff"
     bordercolor="#666666"
     borderopacity="1.0"
     inkscape:pageopacity="0.0"
     inkscape:pageshadow="2"
     inkscape:zoom="2.7674419"
     inkscape:cx="66"
     inkscape:cy="56"
     inkscape:document-units="px"
     inkscape:current-layer="layer1"
     showgrid="false"
     inkscape:snap-page="true"
     inkscape:snap-grids="false"
     inkscape:snap-to-guides="false"
     inkscape:window-width="901"
     inkscape:window-height="665"
     inkscape:window-x="520"
     inkscape:window-y="200"
     inkscape:window-maximized="0">
    <inkscape:grid
       type="xygrid"
       id="grid11920"
       empspacing="5"
       visible="true"
       enabled="true"
       snapvisiblegridlinesonly="true" />
  </sodipodi:namedview>
  <metadata
     id="metadata7">
    <rdf:RDF>
      <cc:Work
         rdf:about="">
        <dc:format>image/svg+xml</dc:format>
        <dc:type
           rdf:resource="http://purl.org/dc/dcmitype/StillImage" />
        <dc:title />
      </cc:Work>
    </rdf:RDF>
  </metadata>
  <g
     inkscape:label="Layer 1"
     inkscape:groupmode="layer"
     id="layer1"
     transform="translate(0,-924.3622)">
    <g
       style="fill-rule:evenodd;stroke-width:0.50099999;stroke-linejoin:bevel;overflow:visible"
       id="g92651"
       transform="matrix(1.3332268,0,0,1.3333651,-4.3717572e-4,924.35953)">
      <g
         transform="scale(1,-1)"
         font-size="16"
         id="Document"
         style="font-size:16px;fill:none;stroke:#000000;font-family:Times New Roman">
        <g
           transform="translate(0,-96)"
           id="Spread">
          <g
             id="MouseOff">
            <g
               id="Group">
              <g
                 stroke-miterlimit="79.8403193612775"
                 id="Group_1"
                 style="stroke:none">
                <g
                   id="Group_2"
                   style="fill:#494a4f">
                  <path
                     id="path92365"
                     d="m 0.009,13.5 0,-10e-4 C 0.009,12.672 1.201,12 2.668,12 l 90.681,0 c 1.467,0 2.659,0.672 2.659,1.499 l 0,10e-4 c 0,0.827 -1.192,1.499 -2.659,1.499 l -90.681,0 c -1.467,0 -2.659,-0.672 -2.659,-1.499 z"
                     inkscape:connector-curvature="0"
                     style="fill-opacity:0.05490202;marker-start:none;marker-end:none" />
                  <path
                     id="path92367"
                     d="m 0.383,13.562 0,-10e-4 c 0,-0.793 1.192,-1.437 2.659,-1.437 l 89.932,0 c 1.467,0 2.659,0.644 2.659,1.437 l 0,10e-4 c 0,0.792 -1.192,1.437 -2.659,1.437 l -89.932,0 c -1.467,0 -2.659,-0.645 -2.659,-1.437 z"
                     inkscape:connector-curvature="0"
                     style="fill-opacity:0.07450998;marker-start:none;marker-end:none" />
                  <path
                     id="path92369"
                     d="m 0.758,13.624 0,-0.001 c 0,-0.758 1.192,-1.374 2.659,-1.374 l 89.182,0 c 1.467,0 2.659,0.616 2.659,1.374 l 0,0.001 c 0,0.758 -1.192,1.375 -2.659,1.375 l -89.182,0 c -1.467,0 -2.659,-0.617 -2.659,-1.375 z"
                     inkscape:connector-curvature="0"
                     style="fill-opacity:0.09411801;marker-start:none;marker-end:none" />
                  <path
                     id="path92371"
                     d="m 1.133,13.687 0,-10e-4 c 0,-0.724 1.192,-1.312 2.659,-1.312 l 88.432,0 c 1.467,0 2.659,0.588 2.659,1.312 l 0,10e-4 c 0,0.724 -1.192,1.312 -2.659,1.312 l -88.432,0 c -1.467,0 -2.659,-0.588 -2.659,-1.312 z"
                     inkscape:connector-curvature="0"
                     style="fill-opacity:0.10980398;marker-start:none;marker-end:none" />
                  <path
                     id="path92373"
                     d="m 1.508,13.749 0,-0.001 c 0,-0.69 1.192,-1.25 2.659,-1.25 l 87.682,0 c 1.467,0 2.659,0.56 2.659,1.25 l 0,0.001 c 0,0.689 -1.192,1.25 -2.659,1.25 l -87.682,0 c -1.467,0 -2.659,-0.561 -2.659,-1.25 z"
                     inkscape:connector-curvature="0"
                     style="fill-opacity:0.129412;marker-start:none;marker-end:none" />
                  <path
                     id="path92375"
                     d="m 1.883,13.811 0,-10e-4 c 0,-0.655 1.192,-1.187 2.659,-1.187 l 86.932,0 c 1.467,0 2.659,0.532 2.659,1.187 l 0,10e-4 c 0,0.655 -1.192,1.188 -2.659,1.188 l -86.932,0 c -1.467,0 -2.659,-0.533 -2.659,-1.188 z"
                     inkscape:connector-curvature="0"
                     style="fill-opacity:0.14902003;marker-start:none;marker-end:none" />
                  <path
                     id="path92377"
                     d="m 2.258,13.874 0,-0.001 c 0,-0.621 1.192,-1.125 2.659,-1.125 l 86.183,0 c 1.467,0 2.659,0.504 2.659,1.125 l 0,0.001 c 0,0.621 -1.192,1.125 -2.659,1.125 l -86.183,0 c -1.467,0 -2.659,-0.504 -2.659,-1.125 z"
                     inkscape:connector-curvature="0"
                     style="fill-opacity:0.164706;marker-start:none;marker-end:none" />
                </g>
                <path
                   style="fill:url(#LinearGradient-292);marker-start:none;marker-end:none"
                   id="path92379"
                   d="m 0.008,90.859 0,-72.221 c 0,-2.836 2.303,-5.139 5.139,-5.139 l 85.721,0 c 2.836,0 5.139,2.303 5.139,5.139 l 0,72.221 c 0,2.836 -2.303,5.139 -5.139,5.139 l -85.721,0 c -2.836,0 -5.139,-2.303 -5.139,-5.139 z"
                   inkscape:connector-curvature="0" />
                <path
                   style="fill:url(#LinearGradient_1-609);marker-start:none;marker-end:none"
                   id="path92381"
                   d="m 0.758,18.638 0,72.221 c 0,2.421 1.967,4.389 4.389,4.389 l 85.721,0 c 2.421,0 4.389,-1.968 4.389,-4.389 l 0,-72.221 c 0,-2.422 -1.968,-4.389 -4.389,-4.389 l -85.721,0 c -2.422,0 -4.389,1.967 -4.389,4.389 z"
                   inkscape:connector-curvature="0" />
                <path
                   style="fill:url(#LinearGradient_2-895);marker-start:none;marker-end:none"
                   id="path92383"
                   d="m 3.759,89.664 0,-43.579 c 0,-1.427 1.159,-2.586 2.586,-2.586 l 83.329,0 c 1.427,0 2.586,1.159 2.586,2.586 l 0,43.579 c 0,1.427 -1.159,2.586 -2.586,2.586 l -83.329,0 c -1.427,0 -2.586,-1.159 -2.586,-2.586 z"
                   inkscape:connector-curvature="0" />
                <path
                   id="path92385"
                   d="m 4.509,46.085 0,43.579 c 0,1.012 0.823,1.836 1.836,1.836 l 83.329,0 c 1.012,0 1.836,-0.824 1.836,-1.836 l 0,-43.579 c 0,-1.013 -0.824,-1.836 -1.836,-1.836 l -83.329,0 c -1.013,0 -1.836,0.823 -1.836,1.836 z"
                   inkscape:connector-curvature="0"
                   style="fill:#1d1d1d;marker-start:none;marker-end:none" />
                <path
                   style="fill:url(#LinearGradient_3-20);marker-start:none;marker-end:none"
                   id="path92387"
                   d="m 5.258,89.514 0,-44.029 c 0,-0.681 0.554,-1.235 1.235,-1.235 l 83.029,0 c 0.681,0 1.235,0.554 1.235,1.235 l 0,44.029 c 0,0.681 -0.554,1.235 -1.235,1.235 l -83.029,0 c -0.681,0 -1.235,-0.554 -1.235,-1.235 z"
                   inkscape:connector-curvature="0" />
                <path
                   style="fill:url(#LinearGradient_4-740);marker-start:none;marker-end:none"
                   id="path92389"
                   d="m 86.257,83.064 0,-31.129 c 0,-0.515 0.419,-0.934 0.934,-0.934 l 0.383,0 c 0.515,0 0.934,0.419 0.934,0.934 l 0,31.129 c 0,0.515 -0.419,0.934 -0.934,0.934 l -0.383,0 c -0.515,0 -0.934,-0.419 -0.934,-0.934 z"
                   inkscape:connector-curvature="0" />
                <path
                   style="fill:url(#LinearGradient_5-92);marker-start:none;marker-end:none"
                   id="path92391"
                   d="m 87.007,81.413 0,-27.827 c 0,-0.184 0.151,-0.335 0.335,-0.335 l 0.079,0 c 0.184,0 0.335,0.151 0.335,0.335 l 0,27.827 c 0,0.184 -0.151,0.335 -0.335,0.335 l -0.079,0 c -0.184,0 -0.335,-0.151 -0.335,-0.335 z"
                   inkscape:connector-curvature="0" />
                <path
                   id="path92393"
                   d="m 15.938,46.498 64.137,0 c 0.515,0 0.934,0.419 0.934,0.934 l 0,0.383 c 0,0.515 -0.419,0.934 -0.934,0.934 l -64.137,0 c -0.515,0 -0.934,-0.419 -0.934,-0.934 l 0,-0.383 c 0,-0.515 0.419,-0.934 0.934,-0.934 z"
                   inkscape:connector-curvature="0"
                   style="fill:#2b2b2b;marker-start:none;marker-end:none" />
                <path
                   id="path92395"
                   d="m 17.589,47.248 60.835,0 c 0.184,0 0.334,0.15 0.334,0.334 l 0,0.081 c 0,0.184 -0.15,0.334 -0.334,0.334 l -60.835,0 c -0.184,0 -0.334,-0.15 -0.334,-0.334 l 0,-0.081 c 0,-0.184 0.15,-0.334 0.334,-0.334 z"
                   inkscape:connector-curvature="0"
                   style="fill:#676767;marker-start:none;marker-end:none" />
                <path
                   style="fill:url(#LinearGradient_6-53);marker-start:none;marker-end:none"
                   id="path92397"
                   d="m 3.759,40.164 0,-20.329 c 0,-1.427 1.159,-2.586 2.586,-2.586 l 83.329,0 c 1.427,0 2.586,1.159 2.586,2.586 l 0,20.329 c 0,1.427 -1.159,2.586 -2.586,2.586 l -83.329,0 c -1.427,0 -2.586,-1.159 -2.586,-2.586 z"
                   inkscape:connector-curvature="0" />
                <path
                   style="fill:url(#LinearGradient_7-582);marker-start:none;marker-end:none"
                   id="path92399"
                   d="m 4.509,19.835 0,20.329 C 4.509,41.176 5.332,42 6.345,42 l 83.329,0 c 1.012,0 1.836,-0.824 1.836,-1.836 l 0,-20.329 c 0,-1.013 -0.824,-1.836 -1.836,-1.836 l -83.329,0 c -1.013,0 -1.836,0.823 -1.836,1.836 z"
                   inkscape:connector-curvature="0" />
                <path
                   style="fill:url(#LinearGradient_8-468);marker-start:none;marker-end:none"
                   id="path92401"
                   d="m 5.258,40.014 0,-20.029 c 0,-0.681 0.554,-1.235 1.235,-1.235 l 83.029,0 c 0.681,0 1.235,0.554 1.235,1.235 l 0,20.029 c 0,0.681 -0.554,1.235 -1.235,1.235 l -83.029,0 c -0.681,0 -1.235,-0.554 -1.235,-1.235 z"
                   inkscape:connector-curvature="0" />
                <path
                   id="path92403"
                   d="m 7.507,38.514 0,-16.281 c 0,-0.267 0.218,-0.485 0.485,-0.485 l 80.031,0 c 0.267,0 0.485,0.218 0.485,0.485 l 0,16.281 c 0,0.267 -0.218,0.485 -0.485,0.485 l -80.031,0 c -0.267,0 -0.485,-0.218 -0.485,-0.485 z"
                   inkscape:connector-curvature="0"
                   style="fill:#9b9b9b;marker-start:none;marker-end:none" />
                <path
                   style="fill:url(#LinearGradient_9-31);marker-start:none;marker-end:none"
                   id="path92405"
                   d="m 8.257,37.764 0,-15.529 c 0,-0.267 0.217,-0.485 0.484,-0.485 l 78.533,0 c 0.267,0 0.484,0.218 0.484,0.485 l 0,15.529 c 0,0.267 -0.217,0.485 -0.484,0.485 l -78.533,0 c -0.267,0 -0.484,-0.218 -0.484,-0.485 z"
                   inkscape:connector-curvature="0" />
                <path
                   style="fill:url(#LinearGradient_10-787);fill-opacity:0.4;marker-start:none;marker-end:none"
                   id="path92407"
                   d="m 8.256,33.394 10e-4,4.37 c 0,0.267 0.217,0.485 0.484,0.485 l 78.533,0 c 0.267,0 0.484,-0.218 0.484,-0.485 l 0,-4.37 c -9.872,-2.087 -24.031,-3.395 -39.75,-3.395 -15.721,0 -29.88,1.308 -39.752,3.395 z"
                   inkscape:connector-curvature="0" />
                <path
                   style="fill:url(#LinearGradient_11-250);marker-start:none;marker-end:none"
                   id="path92409"
                   d="m 16.507,21.264 0,-2.031 c 0,-0.267 0.217,-0.484 0.484,-0.484 l 62.033,0 c 0.267,0 0.484,0.217 0.484,0.484 l 0,2.031 c 0,0.267 -0.217,0.484 -0.484,0.484 l -62.033,0 c -0.267,0 -0.484,-0.217 -0.484,-0.484 z"
                   inkscape:connector-curvature="0" />
                <path
                   style="fill:url(#LinearGradient_12-85);marker-start:none;marker-end:none"
                   id="path92411"
                   d="m 47.256,41.515 0,-23.031 C 47.256,18.217 47.474,18 47.741,18 l 0.531,0 c 0.267,0 0.485,0.217 0.485,0.484 l 0,23.031 c 0,0.267 -0.218,0.484 -0.485,0.484 l -0.531,0 c -0.267,0 -0.485,-0.217 -0.485,-0.484 z"
                   inkscape:connector-curvature="0" />
                <path
                   style="fill:url(#LinearGradient_13-30);marker-start:none;marker-end:none"
                   id="path92413"
                   d="m 48.008,41.515 0,-23.031 c 0,-0.267 0.168,-0.485 0.374,-0.485 l 0.001,0 c 0.206,0 0.374,0.218 0.374,0.485 l 0,23.031 c 0,0.267 -0.168,0.485 -0.374,0.485 l -0.001,0 c -0.206,0 -0.374,-0.218 -0.374,-0.485 z"
                   inkscape:connector-curvature="0" />
                <path
                   style="fill:url(#LinearGradient_14-619);marker-start:none;marker-end:none"
                   id="path92415"
                   d="m 0.758,18.638 0,72.221 c 0,2.421 1.967,4.389 4.389,4.389 l 85.721,0 c 2.421,0 4.389,-1.968 4.389,-4.389 l 0,-72.221 c 0,-2.422 -1.968,-4.389 -4.389,-4.389 l -85.721,0 c -2.422,0 -4.389,1.967 -4.389,4.389 z m 93.749,0 0,72.221 c 0,2.006 -1.633,3.639 -3.639,3.639 l -85.721,0 c -2.008,0 -3.639,-1.633 -3.639,-3.639 l 0,-72.221 c 0,-2.008 1.631,-3.639 3.639,-3.639 l 85.721,0 c 2.006,0 3.639,1.631 3.639,3.639 z"
                   inkscape:connector-curvature="0" />
              </g>
              <g
                 id="Group_3">
                <g
                   id="Group_4"
                   style="fill:#ffffff;stroke:none">
                  <path
                     id="path92419"
                     stroke-miterlimit="79.8403193612775"
                     d="m 60.008,89.249 c 4.14,0 7.5,-3.36 7.5,-7.5 0,-4.14 -3.36,-7.5 -7.5,-7.5 -4.14,0 -7.5,3.36 -7.5,7.5 0,4.14 3.36,7.5 7.5,7.5 z"
                     inkscape:connector-curvature="0"
                     style="fill-opacity:0.07450998;stroke-width:0.40799999;marker-start:none;marker-end:none" />
                  <path
                     id="path92421"
                     stroke-miterlimit="79.8403193612775"
                     d="m 54.914,80.476 c 0.703,-2.812 3.555,-4.523 6.366,-3.821 2.812,0.703 4.523,3.555 3.821,6.366 -0.703,2.812 -3.555,4.523 -6.366,3.821 -2.812,-0.703 -4.523,-3.555 -3.821,-6.366 z"
                     inkscape:connector-curvature="0"
                     style="fill-opacity:0.20392199;stroke-width:0.34599999;marker-start:none;marker-end:none" />
                  <path
                     id="path92423"
                     stroke-miterlimit="79.8403193612775"
                     d="m 57.757,79.499 c 1.242,-1.243 3.258,-1.243 4.5,-10e-4 1.243,1.242 1.243,3.258 0.001,4.5 -1.242,1.243 -3.258,1.243 -4.5,10e-4 -1.243,-1.242 -1.243,-3.258 -0.001,-4.5 z"
                     inkscape:connector-curvature="0"
                     style="fill-opacity:0.329412;stroke-width:0.245;marker-start:none;marker-end:none" />
                  <path
                     id="path92425"
                     stroke-miterlimit="79.8403193612775"
                     d="m 60.008,85.124 c 1.863,0 3.375,-1.512 3.375,-3.375 0,-1.863 -1.512,-3.375 -3.375,-3.375 -1.863,0 -3.375,1.512 -3.375,3.375 0,1.863 1.512,3.375 3.375,3.375 z"
                     inkscape:connector-curvature="0"
                     style="fill-opacity:0.45490202;stroke-width:0.184;marker-start:none;marker-end:none" />
                </g>
                <path
                   id="path92427"
                   stroke-miterlimit="79.8403193612775"
                   d="M 17.911,19.278 5.521,37.895 c -0.48,0.721 -0.285,1.695 0.436,2.175 l 3.631,2.416 c 0.701,0.467 1.643,0.293 2.135,-0.381 0.823,0.571 1.595,1.194 2.25,1.957 2.761,3.215 3.706,7.635 5.885,11.269 1.016,1.695 2.165,3.323 3.346,4.9 1.268,1.691 1.272,2.741 1.989,4.07 0.802,1.489 1.797,2.807 2.585,4.368 0.541,1.071 0.902,2.245 1.543,3.587 -0.349,1.483 -0.592,3.145 -0.273,4.659 0.363,1.716 2.337,1.852 3.186,1.479 1.966,-0.865 3.517,-8.383 1.682,-11.336 -0.59,-0.952 -0.602,-2.364 -1.087,-3.605 1.891,1.204 3.944,2.395 5.722,3.844 3.141,2.561 5.77,5.554 9.109,7.916 l 10.258,7.227 c 2.959,1.534 4.39,0.463 5.17,-1.105 1.083,-2.176 -1.724,-4.285 -2.561,-4.93 -5.345,-4.114 -10.739,-8.38 -15.595,-13.304 -0.436,-0.442 -0.76,-2.753 1.233,-1.632 l 8.934,4.705 c 3.216,1.481 4.217,-0.852 5.066,-2.539 0.562,-1.116 0.254,-3.039 -0.647,-3.695 l 1.707,-3.483 c 0.75,-1.5 0.255,-3.129 -1.5,-4.275 l -4.427,-2.906 c 2.17,1.954 6.815,-2.533 2.777,-5.473 l -6.029,-4.639 -3.017,-2.838 c -5.828,-3.691 -9.257,-5.745 -15.511,-8.748 -1.087,-0.45 -2.261,-0.251 -3.299,-0.68 -2.145,-0.889 -4.097,-2.211 -5.983,-3.605 0.371,-0.703 0.156,-1.587 -0.519,-2.036 l -3.631,-2.416 c -0.72,-0.48 -1.695,-0.284 -2.175,0.437 z"
                   inkscape:connector-curvature="0"
                   style="fill:#000000;fill-opacity:0.34509798;stroke:none;stroke-width:0.40799999;marker-start:none;marker-end:none" />
                <path
                   id="path92429"
                   stroke-miterlimit="79.8403193612775"
                   d="m 19.858,56.831 1.562,-4.352 11.691,6.932 -0.282,5.542 c 0.485,1.241 0.497,2.653 1.087,3.605 1.835,2.953 0.284,10.471 -1.682,11.336 -0.849,0.373 -2.823,0.237 -3.186,-1.479 -0.319,-1.514 -0.076,-3.176 0.273,-4.659 -0.641,-1.342 -1.002,-2.516 -1.543,-3.587 -0.788,-1.561 -1.783,-2.879 -2.585,-4.368 -0.717,-1.329 -0.721,-2.379 -1.989,-4.07 -1.181,-1.577 -2.33,-3.205 -3.346,-4.9 z"
                   inkscape:connector-curvature="0"
                   style="fill:#bc7853;stroke:none;stroke-width:0.40799999;marker-start:none;marker-end:none" />
                <path
                   id="path92431"
                   stroke-miterlimit="79.8403193612775"
                   d="m 21.818,53.587 -1.13,3.147 1.398,2.165 c 0.554,0.805 1.131,1.598 1.718,2.382 1.333,1.778 1.398,2.957 2.049,4.164 0.716,1.33 1.807,2.827 2.594,4.385 0.55,1.089 0.954,2.353 1.55,3.602 l 0.114,0.238 -0.06,0.257 c -0.343,1.456 -0.553,2.986 -0.27,4.333 0.222,1.047 1.562,1.205 2.151,0.947 0.551,-0.243 1.407,-1.866 1.829,-4.325 0.398,-2.324 0.281,-4.7 -0.483,-5.929 -0.673,-1.086 -0.721,-2.634 -1.148,-3.727 l -0.059,-0.151 0.267,-5.25 -10.52,-6.238 z"
                   inkscape:connector-curvature="0"
                   style="fill:#ffd3b9;stroke:none;stroke-width:0.40799999;marker-start:none;marker-end:none" />
                <path
                   id="path92433"
                   stroke-miterlimit="79.8403193612775"
                   d="m 31.394,73.389 c -1.2,-5.4 -3.937,-6.953 -5.55,-12.225 l 3.75,0.9 c 0.998,1.778 3.262,5.288 3.9,9.225 0.355,2.189 -0.656,5.241 -0.6,6.45 -0.15,-3.3 -1.271,-4.227 -1.5,-4.35 z"
                   inkscape:connector-curvature="0"
                   style="fill:#fee0d4;stroke:none;stroke-width:0.40799999;marker-start:none;marker-end:none" />
                <path
                   style="fill:url(#LinearGradient_15-51);stroke:none;stroke-width:0.40799999;marker-start:none;marker-end:none"
                   id="path92435"
                   stroke-miterlimit="79.8403193612775"
                   d="m 23.804,61.281 c 1.333,1.778 1.398,2.957 2.049,4.164 0.716,1.33 1.807,2.827 2.594,4.385 0.55,1.089 0.954,2.353 1.55,3.602 l 0.114,0.238 -0.06,0.257 1.025,1.13 c 0.131,-2.766 -0.75,-3.975 -2.25,-6.525 -1.731,-2.943 -1.434,-4.291 -2.1,-7.5 l -4.199,-1.5 c 0.417,0.588 0.844,1.171 1.277,1.749 z"
                   inkscape:connector-curvature="0" />
                <path
                   id="path92437"
                   stroke-miterlimit="79.8403193612775"
                   d="M 7.701,40.959 20.473,21.984 c 3.103,2.222 6.153,4.926 9.746,6.414 1.037,0.429 2.212,0.23 3.299,0.68 6.254,3.003 9.683,5.057 15.511,8.748 l 3.017,2.838 6.029,4.639 c 3.273,2.383 0.842,5.782 -1.353,5.944 l 3.153,2.06 c 1.755,1.146 2.169,2.533 1.725,3.975 -0.414,1.345 -1.35,3.15 -3.05,3.362 l 0.968,0.796 c 0.901,0.656 1.209,2.579 0.647,3.695 -0.849,1.687 -1.85,4.02 -5.066,2.539 l -8.934,-4.705 c -1.993,-1.121 -1.669,1.19 -1.233,1.632 4.856,4.924 10.25,9.19 15.595,13.304 0.837,0.645 3.644,2.754 2.561,4.93 -0.78,1.568 -2.211,2.639 -5.17,1.105 L 47.66,76.713 C 44.321,74.351 41.692,71.358 38.551,68.797 36.773,67.348 34.72,66.157 32.829,64.953 29.421,62.221 22.649,61.32 19.858,56.831 17.679,53.197 16.733,48.777 13.973,45.562 12.284,43.595 9.808,42.55 7.701,40.959 z"
                   inkscape:connector-curvature="0"
                   style="fill:#bc7853;stroke:none;stroke-width:0.40799999;marker-start:none;marker-end:none" />
                <path
                   id="path92439"
                   stroke-miterlimit="79.8403193612775"
                   d="m 20.656,23.053 -11.911,17.696 2.654,1.739 c 1.145,0.747 2.271,1.569 3.143,2.585 2.751,3.204 4.007,8.116 5.956,11.367 2.095,3.369 5.965,4.314 9.48,5.948 l 3.252,1.933 c 1.856,1.179 3.971,2.408 5.794,3.894 3.316,2.703 5.707,5.507 9.068,7.885 l 10.196,7.183 1.629,0.603 c 1.392,0.251 2.052,-0.489 2.499,-1.386 0.748,-1.502 -1.26,-3.163 -2.347,-4.001 -5.346,-4.115 -10.776,-8.408 -15.671,-13.372 -0.436,-0.441 -0.65,-1.41 -0.492,-2.097 0.28,-1.212 1.425,-1.391 2.617,-0.72 l 8.892,4.682 1.562,0.398 c 1.286,-0.03 1.833,-1.233 2.518,-2.593 0.439,-0.872 0.115,-2.363 -0.428,-2.758 l -2.645,-2.174 2.316,0.03 c 1.604,-1.165 2.15,-2.467 2.262,-3.663 0.082,-0.878 -0.017,-1.33 -1.425,-2.25 L 51.55,48.657 c -2.475,-1.65 -0.224,-1.141 0.108,-0.938 l 4.087,2.451 0.054,0.048 c 1.654,1.49 4.906,-2.073 1.826,-4.315 l -6.066,-4.668 -2.991,-2.813 -3.931,-2.457 c -2.468,-1.511 -4.659,-2.773 -7.227,-4.11 l -4.189,-2.087 -1.596,-0.32 c -0.516,-0.042 -1.047,-0.09 -1.693,-0.357 -1.85,-0.767 -3.571,-1.852 -5.206,-3.015 l -4.07,-3.023 z"
                   inkscape:connector-curvature="0"
                   style="fill:#ffd3b9;stroke:none;stroke-width:0.40799999;marker-start:none;marker-end:none" />
                <path
                   style="fill:url(#LinearGradient_16-74);stroke:none;stroke-width:0.40799999;marker-start:none;marker-end:none"
                   id="path92441"
                   stroke-miterlimit="79.8403193612775"
                   d="m 58.543,79.389 c -0.75,0.15 -1.2,1.95 -1.8,2.55 -2.115,-1.809 -6.127,-4.144 -9.599,-6.9 -3.287,-2.607 -6.032,-5.633 -8.25,-7.5 -2.85,-2.4 3.278,0.318 5.25,2.1 3.36,3.035 11.28,7.954 14.399,9.75 z"
                   inkscape:connector-curvature="0" />
                <path
                   id="path92443"
                   stroke-miterlimit="79.8403193612775"
                   d="m 57.4,82.857 c -1.575,-1.275 0.958,-4.769 2.325,-4.5 0.759,0.15 1.967,1.228 2.961,2.109 0.744,1.378 -1.865,4.54 -3.561,3.741 L 57.4,82.857 z"
                   inkscape:connector-curvature="0"
                   style="fill:#f1b899;stroke:none;stroke-width:0.40799999;marker-start:none;marker-end:none" />
                <path
                   style="fill:url(#LinearGradient_17-03);stroke:none;stroke-width:0.40799999;marker-start:none;marker-end:none"
                   id="path92445"
                   stroke-miterlimit="79.8403193612775"
                   d="m 58.169,82.739 c -1.184,-0.748 0.669,-3.944 2.036,-3.675 0.759,0.15 1.967,1.228 2.961,2.109 0.744,1.378 -0.836,3.925 -2.532,3.126 l -2.465,-1.56 z"
                   inkscape:connector-curvature="0" />
                <path
                   id="path92447"
                   stroke-miterlimit="79.8403193612775"
                   d="m 30.019,73.642 c 0.753,0.352 1.647,0.687 2.075,1.381 0.23,0.374 0.398,2.594 0.339,3.683 -0.04,0.735 -1.365,1.21 -1.967,0.817 -1.325,-0.866 -0.896,-3.434 -0.447,-5.881 z"
                   inkscape:connector-curvature="0"
                   style="fill:#e2a482;stroke:none;stroke-width:0.40799999;marker-start:none;marker-end:none" />
                <path
                   style="fill:url(#LinearGradient_18-90);stroke:none;stroke-width:0.40799999;marker-start:none;marker-end:none"
                   id="path92449"
                   stroke-miterlimit="79.8403193612775"
                   d="m 29.269,73.642 c 0.753,0.352 1.647,0.687 2.075,1.381 0.23,0.374 0.398,2.594 0.339,3.683 -0.04,0.735 -1.365,1.21 -1.967,0.817 -1.325,-0.866 -0.896,-3.434 -0.447,-5.881 z"
                   inkscape:connector-curvature="0" />
                <path
                   id="path92451"
                   stroke-miterlimit="79.8403193612775"
                   d="m 10.994,38.214 -1.457,3.054 1.862,1.22 c 1.145,0.747 2.023,2.06 2.895,3.076 2.751,3.204 4.351,8.149 6.3,11.4 2.095,3.369 5.935,4.066 9.45,5.7 l 3.15,2.1 c 1.856,1.179 4.027,2.564 5.85,4.05 2.345,1.911 4.207,3.275 6.298,5.101 -2.19,-2.298 -4.248,-4.784 -9.148,-8.101 -2.458,-1.664 -5.248,-3.719 -9.9,-5.7 -3.531,-1.504 -6,-7.5 -8.25,-12 -0.75,-2.55 -4.5,-6.35 -7.05,-9.9 z"
                   inkscape:connector-curvature="0"
                   style="fill:#eab698;stroke:none;stroke-width:0.40799999;marker-start:none;marker-end:none" />
                <path
                   id="path92453"
                   stroke-miterlimit="79.8403193612775"
                   d="m 20.656,23.053 -1.658,2.462 c 3.05,3.136 5.029,4.68 9.396,5.799 1.433,0.367 3.957,0.347 5.85,0.9 5.093,1.488 6.511,2.708 14.562,6.431 l -0.238,-0.223 -3.224,-2.608 c -2.468,-1.511 -4.632,-2.713 -7.2,-4.05 l -4.95,-2.4 -1.596,-0.32 c -0.516,-0.042 -1.047,-0.09 -1.693,-0.357 -1.85,-0.767 -3.476,-1.76 -5.111,-2.923 l -4.138,-2.711 z"
                   inkscape:connector-curvature="0"
                   style="fill:#f2bd9d;stroke:none;stroke-width:0.40799999;marker-start:none;marker-end:none" />
                <path
                   style="fill:url(#LinearGradient_19-83);stroke:none;stroke-width:0.41299999;marker-start:none;marker-end:none"
                   id="path92455"
                   stroke-miterlimit="79.8403193612775"
                   d="m 32.294,61.914 c -5.981,-4.399 -9.6,-5.55 -12.6,-13.95 -1.118,-3.132 -3.884,-6.908 -3.9,-7.65 l 6.3,-8.55 c 1.2,0.45 6.87,3.249 9.75,3.15 4.35,-0.15 6.45,1.05 13.2,4.05 -0.855,0.285 -1.591,1.168 -1.961,2.246 -0.408,1.193 0.188,2.498 -0.289,3.604 -0.422,0.98 -1.547,1.148 -2.147,2.377 -0.679,1.394 0.098,2.327 -0.403,3.323 -0.523,1.041 -1.956,1.495 -2.536,2.409 -0.95,1.495 -0.364,2.376 -1.064,3.291 -0.725,0.946 -2.259,0.629 -3,1.95 -0.662,1.178 -1.421,2.972 -1.35,3.75 z"
                   inkscape:connector-curvature="0" />
                <path
                   id="path92457"
                   stroke-miterlimit="79.8403193612775"
                   d="M 20.473,21.984 7.701,40.959 c 1.575,1.189 3.356,2.073 4.861,3.265 L 24.904,25.683 c 0.062,-0.094 0.113,-0.192 0.153,-0.293 -1.562,-1.118 -3.067,-2.32 -4.584,-3.406 z"
                   inkscape:connector-curvature="0"
                   style="fill:#000000;fill-opacity:0.14509798;stroke:none;stroke-width:0.40799999;marker-start:none;marker-end:none" />
                <path
                   style="fill:url(#LinearGradient_20-08);stroke:none;stroke-width:0.40799999;marker-start:none;marker-end:none"
                   id="path92459"
                   stroke-miterlimit="79.8403193612775"
                   d="m 5.521,39.395 12.39,-18.617 c 0.48,-0.721 1.455,-0.917 2.175,-0.437 l 3.631,2.416 c 0.721,0.48 0.917,1.455 0.437,2.176 L 11.763,43.549 c -0.48,0.721 -1.454,0.917 -2.175,0.437 L 5.957,41.57 C 5.236,41.09 5.041,40.116 5.521,39.395 z"
                   inkscape:connector-curvature="0" />
                <path
                   style="fill:url(#LinearGradient_21-14);stroke:none;stroke-width:0.40799999;marker-start:none;marker-end:none"
                   id="path92461"
                   stroke-miterlimit="79.8403193612775"
                   d="M 18.535,21.193 6.145,39.81 c -0.251,0.377 -0.149,0.885 0.227,1.135 l 3.631,2.416 c 0.376,0.25 0.884,0.148 1.135,-0.228 L 23.529,24.517 c 0.25,-0.376 0.148,-0.886 -0.228,-1.136 L 19.67,20.965 c -0.375,-0.25 -0.884,-0.149 -1.135,0.228 z"
                   inkscape:connector-curvature="0" />
                <g
                   stroke-miterlimit="79.8403193612775"
                   id="Group_5"
                   style="fill:#eab698;fill-rule:evenodd;stroke:none">
                  <path
                     id="path92464"
                     d="m 51.423,72.883 c -0.207,1.384 -0.867,2.238 -2.118,2.541 -0.201,0.049 -0.325,0.252 -0.276,0.453 0.049,0.201 0.252,0.325 0.453,0.276 1.579,-0.382 2.437,-1.511 2.682,-3.159 0.031,-0.205 -0.11,-0.396 -0.315,-0.426 -0.205,-0.031 -0.396,0.11 -0.426,0.315 z"
                     inkscape:connector-curvature="0"
                     style="marker-start:none;marker-end:none" />
                  <path
                     id="path92466"
                     d="m 50.805,71.824 c -1.579,0.382 -2.437,1.511 -2.682,3.159 -0.031,0.205 0.11,0.396 0.315,0.426 0.205,0.031 0.396,-0.11 0.426,-0.315 0.207,-1.384 0.867,-2.238 2.118,-2.541 0.201,-0.049 0.325,-0.252 0.276,-0.453 -0.049,-0.201 -0.252,-0.325 -0.453,-0.276 z"
                     inkscape:connector-curvature="0"
                     style="marker-start:none;marker-end:none" />
                  <path
                     id="path92468"
                     d="m 50.447,73.158 -1.05,1.35 c -0.127,0.164 -0.097,0.399 0.066,0.527 0.164,0.127 0.399,0.097 0.527,-0.066 l 1.05,-1.35 c 0.127,-0.164 0.097,-0.399 -0.066,-0.527 -0.164,-0.127 -0.399,-0.097 -0.527,0.066 z"
                     inkscape:connector-curvature="0"
                     style="marker-start:none;marker-end:none" />
                </g>
                <path
                   style="fill:url(#LinearGradient_22-34);stroke:none;stroke-width:0.40799999;marker-start:none;marker-end:none"
                   id="path92470"
                   stroke-miterlimit="79.8403193612775"
                   d="m 44.144,56.739 13.949,8.25 c 0.985,0.04 1.373,-1.693 0.3,-2.55 l -11.699,-6.9 -2.55,1.2 z"
                   inkscape:connector-curvature="0" />
                <path
                   id="path92472"
                   stroke-miterlimit="79.8403193612775"
                   d="m 57.793,60.339 -9.149,-4.95 c -0.476,-0.349 -0.825,-0.952 -0.9,-2.1"
                   inkscape:connector-curvature="0"
                   style="fill:none;stroke:#bc7853;stroke-width:0.75;stroke-linecap:round;stroke-linejoin:round;stroke-miterlimit:79.84031677" />
                <path
                   style="fill:url(#LinearGradient_24-46);stroke:none;stroke-width:0.40799999;marker-start:none;marker-end:none"
                   id="path92474"
                   stroke-miterlimit="79.8403193612775"
                   d="m 43.544,52.389 14.549,7.65 c 1.593,0.243 0.15,-2.1 -1.05,-2.7 l -10.199,-6.15 -3.3,1.2 z"
                   inkscape:connector-curvature="0" />
                <path
                   style="fill:url(#LinearGradient_25-54);stroke:none;stroke-width:0.40799999;marker-start:none;marker-end:none"
                   id="path92476"
                   stroke-miterlimit="79.8403193612775"
                   d="m 45.794,49.389 12.599,7.5 c 1.05,0.3 2.25,-0.75 0.75,-1.95 l -10.499,-7.05 -2.85,1.5 z"
                   inkscape:connector-curvature="0" />
                <path
                   style="fill:url(#LinearGradient_26-82);stroke:none;stroke-width:0.40799999;marker-start:none;marker-end:none"
                   id="path92478"
                   stroke-miterlimit="79.8403193612775"
                   d="m 42.044,60.639 14.249,7.05 c 1.593,0.243 2.85,-1.2 1.65,-1.8 l -12.299,-7.05 -3.6,1.8 z"
                   inkscape:connector-curvature="0" />
                <path
                   style="fill:url(#LinearGradient_27-098);stroke:none;stroke-width:0.40799999;marker-start:none;marker-end:none"
                   id="path92480"
                   stroke-miterlimit="79.8403193612775"
                   d="m 46.094,44.739 10.199,6 c 1.593,0.243 0.45,-2.25 -0.75,-2.85 l -6.149,-4.35 -3.3,1.2 z"
                   inkscape:connector-curvature="0" />
                <path
                   style="fill:url(#LinearGradient_28-2);stroke:none;stroke-width:0.40799999;marker-start:none;marker-end:none"
                   id="path92482"
                   stroke-miterlimit="79.8403193612775"
                   d="m 48.408,42.912 8.35,5.61 c 1.03,0.364 2.292,-0.61 0.868,-1.9 l -6.282,-5.033 -2.936,1.323 z"
                   inkscape:connector-curvature="0" />
                <path
                   style="fill:url(#LinearGradient_29-14);stroke:none;stroke-width:0.41299999;marker-start:none;marker-end:none"
                   id="path92484"
                   stroke-miterlimit="79.8403193612775"
                   d="m 0.008,18.638 0,18.111 c 0,0.967 -0.122,2.35 0.607,2.837 l 4.427,2.446 c 0.729,0.486 1.716,0.288 2.202,-0.443 L 20.736,21.292 c 0.486,-0.73 0.287,-1.716 -0.442,-2.203 l -8.286,-5.59 -6.861,0 c -2.836,0 -5.139,2.303 -5.139,5.139 z"
                   inkscape:connector-curvature="0" />
                <path
                   style="fill:url(#LinearGradient_30-06);stroke:none;stroke-width:0.41299999;marker-start:none;marker-end:none"
                   id="path92486"
                   stroke-miterlimit="79.8403193612775"
                   d="m 0.758,18.638 0,18.111 c 0,0.541 -0.029,1.042 0.025,1.512 0.056,0.491 0.178,0.654 0.248,0.7 l 4.426,2.446 c 0.384,0.256 0.905,0.152 1.162,-0.234 L 20.111,20.876 c 0.192,-0.288 0.181,-0.654 10e-4,-0.928 l -0.231,-0.232 -8.076,-5.467 -6.658,0 c -2.422,0 -4.389,1.967 -4.389,4.389 z"
                   inkscape:connector-curvature="0" />
                <path
                   style="fill:url(#LinearGradient_31-2);stroke:none;stroke-width:0.41299999;marker-start:none;marker-end:none"
                   id="path92488"
                   stroke-miterlimit="79.8403193612775"
                   d="m 15.794,43.464 c 3.45,5.7 5.204,15.023 11.85,17.1 2.4,0.75 7.758,4.229 9.3,5.4 -0.631,-1.283 -4.8,-5.25 -10.5,-9.9 -4.3,-3.508 -5.25,-10.95 -10.65,-12.6 z"
                   inkscape:connector-curvature="0" />
                <path
                   style="fill:url(#LinearGradient_32-4);stroke:none;stroke-width:0.41299999;marker-start:none;marker-end:none"
                   id="path92490"
                   stroke-miterlimit="79.8403193612775"
                   d="m 44.294,65.064 c -2.247,-2.004 -5.85,-7.2 -4.8,-7.2 1.05,0 4.893,3.58 7.2,4.65 -0.843,-0.07 -2.173,-0.594 -2.474,-0.103 -0.342,0.557 -0.325,1.457 0.074,2.653 z"
                   inkscape:connector-curvature="0" />
                <path
                   style="fill:url(#LinearGradient_33-2);stroke:none;stroke-width:0.41299999;marker-start:none;marker-end:none"
                   id="path92492"
                   stroke-miterlimit="79.8403193612775"
                   d="m 48.493,56.064 c -2.592,-1.488 -3.299,-3 -2.699,-3.3 0.6,-0.3 1.902,0.386 4.049,2.1 -1.8,-0.15 -2.549,-0.6 -1.35,1.2 z"
                   inkscape:connector-curvature="0" />
                <path
                   style="fill:url(#LinearGradient_34-0);stroke:none;stroke-width:0.41299999;marker-start:none;marker-end:none"
                   id="path92494"
                   stroke-miterlimit="79.8403193612775"
                   d="m 50.725,48.582 c -1.049,-0.6 -2.532,-2.418 -2.082,-2.718 0.45,-0.3 1.5,0.9 3,1.65 -1.337,-0.026 -1.764,-0.494 -0.918,1.068 z"
                   inkscape:connector-curvature="0" />
              </g>
            </g>
          </g>
        </g>
      </g>
    </g>
  </g>
</svg>
