<?xml version="1.0" encoding="UTF-8" standalone="no"?>
<!-- Created with Inkscape (http://www.inkscape.org/) -->

<svg
   xmlns:dc="http://purl.org/dc/elements/1.1/"
   xmlns:cc="http://creativecommons.org/ns#"
   xmlns:rdf="http://www.w3.org/1999/02/22-rdf-syntax-ns#"
   xmlns:svg="http://www.w3.org/2000/svg"
   xmlns="http://www.w3.org/2000/svg"
   xmlns:sodipodi="http://sodipodi.sourceforge.net/DTD/sodipodi-0.dtd"
   xmlns:inkscape="http://www.inkscape.org/namespaces/inkscape"
   width="128"
   height="128"
   id="svg2"
   version="1.1"
   inkscape:version="0.48.3.1 r9886"
   sodipodi:docname="128.svg">
  <defs
     id="defs4">
    <linearGradient
       gradientTransform="matrix(0,-1,1,0,46.5,42.751)"
       y2="0"
       x2="3.376"
       y1="0"
       x1="0"
       gradientUnits="userSpaceOnUse"
       id="LinearGradient_14-844">
      <stop
         id="stop110321"
         stop-color="#ffffff"
         offset="0" />
      <stop
         id="stop110323"
         stop-color="#a4a3a3"
         offset="1" />
    </linearGradient>
    <linearGradient
       gradientTransform="translate(19.5,40.5)"
       y2="0"
       x2="25.5"
       y1="0"
       x1="0"
       gradientUnits="userSpaceOnUse"
       id="LinearGradient_13-408">
      <stop
         id="stop110314"
         stop-color="#827fe7"
         offset="0" />
      <stop
         id="stop110316"
         stop-color="#6da3df"
         offset="0.46317645907402" />
      <stop
         id="stop110318"
         stop-color="#b978df"
         offset="1" />
    </linearGradient>
    <linearGradient
       gradientTransform="matrix(0,1,-1,0,52.998,49.502)"
       y2="0"
       x2="18.748"
       y1="0"
       x1="0"
       gradientUnits="userSpaceOnUse"
       id="LinearGradient_12-50">
      <stop
         id="stop110309"
         stop-color="#d97138"
         offset="0" />
      <stop
         id="stop110311"
         stop-color="#ff8e47"
         offset="1" />
    </linearGradient>
    <linearGradient
       gradientTransform="matrix(0,1,-1,0,72.498,49.504)"
       y2="0"
       x2="18.747"
       y1="0"
       x1="0"
       gradientUnits="userSpaceOnUse"
       id="LinearGradient_11-252">
      <stop
         id="stop110304"
         stop-color="#9dc444"
         offset="0" />
      <stop
         id="stop110306"
         stop-color="#c9e785"
         offset="1" />
    </linearGradient>
    <linearGradient
       gradientTransform="matrix(0,1,-1,0,62.749,49.504)"
       y2="0"
       x2="18.747"
       y1="0"
       x1="0"
       gradientUnits="userSpaceOnUse"
       id="LinearGradient_10-92">
      <stop
         id="stop110299"
         stop-color="#f7c019"
         offset="0" />
      <stop
         id="stop110301"
         stop-color="#fee369"
         offset="1" />
    </linearGradient>
    <linearGradient
       gradientTransform="matrix(0,1,-1,0,43.249,49.501)"
       y2="0"
       x2="18.748"
       y1="0"
       x1="0"
       gradientUnits="userSpaceOnUse"
       id="LinearGradient_9-372">
      <stop
         id="stop110294"
         stop-color="#b877df"
         offset="0" />
      <stop
         id="stop110296"
         stop-color="#da92f2"
         offset="1" />
    </linearGradient>
    <linearGradient
       gradientTransform="matrix(0,1,-1,0,33.498,49.502)"
       y2="0"
       x2="18.748"
       y1="0"
       x1="0"
       gradientUnits="userSpaceOnUse"
       id="LinearGradient_8-574">
      <stop
         id="stop110289"
         stop-color="#6ca2de"
         offset="0" />
      <stop
         id="stop110291"
         stop-color="#9ed4ff"
         offset="1" />
    </linearGradient>
    <linearGradient
       gradientTransform="matrix(0,1,-1,0,23.749,49.501)"
       y2="0"
       x2="18.749"
       y1="0"
       x1="0"
       gradientUnits="userSpaceOnUse"
       id="LinearGradient_7-851">
      <stop
         id="stop110284"
         stop-color="#817ee7"
         offset="0" />
      <stop
         id="stop110286"
         stop-color="#bebcfe"
         offset="1" />
    </linearGradient>
    <linearGradient
       gradientTransform="translate(57,19.499)"
       y2="2.25"
       x2="0"
       y1="0"
       x1="0"
       gradientUnits="userSpaceOnUse"
       id="LinearGradient_6-17">
      <stop
         id="stop110279"
         stop-color="#525050"
         offset="0" />
      <stop
         id="stop110281"
         stop-color="#2e2c2c"
         offset="1" />
    </linearGradient>
    <linearGradient
       gradientTransform="translate(93.75,92.999)"
       y2="1.5"
       x2="-4.5"
       y1="0"
       x1="0"
       gradientUnits="userSpaceOnUse"
       id="LinearGradient_5-017">
      <stop
         id="stop110272"
         stop-color="#c9c9c9"
         offset="0" />
      <stop
         id="stop110274"
         stop-color="#eeeeee"
         offset="0.382352948188782" />
      <stop
         id="stop110276"
         stop-color="#c9c9c9"
         offset="1" />
    </linearGradient>
    <linearGradient
       gradientTransform="matrix(0.94868357,0.31622696,-0.31622696,0.94868357,2.248,92.999)"
       y2="0"
       x2="4.743"
       y1="0"
       x1="0"
       gradientUnits="userSpaceOnUse"
       id="LinearGradient_4-77">
      <stop
         id="stop110265"
         stop-color="#c9c9c9"
         offset="0" />
      <stop
         id="stop110267"
         stop-color="#eeeeee"
         offset="0.382352948188782" />
      <stop
         id="stop110269"
         stop-color="#c9c9c9"
         offset="1" />
    </linearGradient>
    <linearGradient
       gradientTransform="translate(44.25,14.249)"
       y2="79.5"
       x2="0"
       y1="0"
       x1="0"
       gradientUnits="userSpaceOnUse"
       id="LinearGradient_3-224">
      <stop
         id="stop110256"
         stop-color="#c6c6c6"
         offset="0" />
      <stop
         id="stop110258"
         stop-color="#b4b4b4"
         offset="2.88050323724747E-02" />
      <stop
         id="stop110260"
         stop-color="#c8c8c8"
         offset="0.96654087305069" />
      <stop
         id="stop110262"
         stop-color="#fbfbfb"
         offset="1" />
    </linearGradient>
    <linearGradient
       gradientTransform="translate(42.75,17.999)"
       y2="72"
       x2="0"
       y1="0"
       x1="0"
       gradientUnits="userSpaceOnUse"
       id="LinearGradient_2-790">
      <stop
         id="stop110247"
         stop-color="#ffffff"
         offset="0" />
      <stop
         id="stop110249"
         stop-color="#c3c3c3"
         offset="1.04166669771075E-02" />
      <stop
         id="stop110251"
         stop-color="#f7f7f7"
         offset="0.975555539131165" />
      <stop
         id="stop110253"
         stop-color="#f3f3f3"
         offset="1" />
    </linearGradient>
    <linearGradient
       gradientTransform="translate(38.25,93.749)"
       y2="-78"
       x2="0"
       y1="0"
       x1="0"
       gradientUnits="userSpaceOnUse"
       id="LinearGradient_1-124">
      <stop
         id="stop110242"
         stop-color="#c9c9c9"
         offset="0" />
      <stop
         id="stop110244"
         stop-color="#b0b0b0"
         offset="1" />
    </linearGradient>
    <linearGradient
       gradientTransform="translate(38.25,95.249)"
       y2="-81"
       x2="0"
       y1="0"
       x1="0"
       gradientUnits="userSpaceOnUse"
       id="LinearGradient-954">
      <stop
         id="stop110237"
         stop-color="#878b8e"
         offset="0" />
      <stop
         id="stop110239"
         stop-color="#818689"
         offset="1" />
    </linearGradient>
  </defs>
  <sodipodi:namedview
     id="base"
     pagecolor="#ffffff"
     bordercolor="#666666"
     borderopacity="1.0"
     inkscape:pageopacity="0.0"
     inkscape:pageshadow="2"
     inkscape:zoom="2.974359"
     inkscape:cx="67"
     inkscape:cy="63"
     inkscape:document-units="px"
     inkscape:current-layer="layer1"
     showgrid="false"
     inkscape:snap-page="true"
     inkscape:snap-grids="false"
     inkscape:snap-to-guides="false"
     inkscape:window-width="901"
     inkscape:window-height="665"
     inkscape:window-x="520"
     inkscape:window-y="200"
     inkscape:window-maximized="0">
    <inkscape:grid
       type="xygrid"
       id="grid11920"
       empspacing="5"
       visible="true"
       enabled="true"
       snapvisiblegridlinesonly="true" />
  </sodipodi:namedview>
  <metadata
     id="metadata7">
    <rdf:RDF>
      <cc:Work
         rdf:about="">
        <dc:format>image/svg+xml</dc:format>
        <dc:type
           rdf:resource="http://purl.org/dc/dcmitype/StillImage" />
        <dc:title />
      </cc:Work>
    </rdf:RDF>
  </metadata>
  <g
     inkscape:label="Layer 1"
     inkscape:groupmode="layer"
     id="layer1"
     transform="translate(0,-924.3622)">
    <g
       style="fill-rule:evenodd;stroke-width:0.50099999;stroke-linejoin:bevel;overflow:visible"
       id="g110498"
       transform="matrix(1.3333333,0,0,1.3333651,0,924.35953)">
      <g
         transform="scale(1,-1)"
         font-size="16"
         id="Document"
         style="font-size:16px;fill:none;stroke:#000000;font-family:Times New Roman">
        <g
           transform="translate(0,-96)"
           id="Spread">
          <g
             id="MouseOff">
            <g
               id="Group"
               style="stroke:none">
              <g
                 stroke-miterlimit="79.8403193612775"
                 id="Group_1"
                 style="fill:#494a4f">
                <path
                   id="path110330"
                   d="m 0.001,13.5 0,-10e-4 C 0.001,12.672 1.193,12 2.66,12 l 90.681,0 C 94.808,12 96,12.672 96,13.499 l 0,10e-4 c 0,0.827 -1.192,1.499 -2.659,1.499 l -90.681,0 c -1.467,0 -2.659,-0.672 -2.659,-1.499 z"
                   inkscape:connector-curvature="0"
                   style="fill-opacity:0.05490202;marker-start:none;marker-end:none" />
                <path
                   id="path110332"
                   d="m 0.375,13.562 0,-10e-4 c 0,-0.793 1.192,-1.437 2.659,-1.437 l 89.932,0 c 1.467,0 2.659,0.644 2.659,1.437 l 0,10e-4 c 0,0.792 -1.192,1.437 -2.659,1.437 l -89.932,0 c -1.467,0 -2.659,-0.645 -2.659,-1.437 z"
                   inkscape:connector-curvature="0"
                   style="fill-opacity:0.07450998;marker-start:none;marker-end:none" />
                <path
                   id="path110334"
                   d="m 0.75,13.624 0,-0.001 c 0,-0.758 1.192,-1.374 2.659,-1.374 l 89.182,0 c 1.467,0 2.659,0.616 2.659,1.374 l 0,0.001 c 0,0.758 -1.192,1.375 -2.659,1.375 l -89.182,0 c -1.467,0 -2.659,-0.617 -2.659,-1.375 z"
                   inkscape:connector-curvature="0"
                   style="fill-opacity:0.09411801;marker-start:none;marker-end:none" />
                <path
                   id="path110336"
                   d="m 1.125,13.687 0,-10e-4 c 0,-0.724 1.192,-1.312 2.659,-1.312 l 88.432,0 c 1.467,0 2.659,0.588 2.659,1.312 l 0,10e-4 c 0,0.724 -1.192,1.312 -2.659,1.312 l -88.432,0 c -1.467,0 -2.659,-0.588 -2.659,-1.312 z"
                   inkscape:connector-curvature="0"
                   style="fill-opacity:0.10980398;marker-start:none;marker-end:none" />
                <path
                   id="path110338"
                   d="m 1.5,13.749 0,-0.001 c 0,-0.69 1.192,-1.25 2.659,-1.25 l 87.682,0 c 1.467,0 2.659,0.56 2.659,1.25 l 0,0.001 c 0,0.689 -1.192,1.25 -2.659,1.25 l -87.682,0 C 2.692,14.999 1.5,14.438 1.5,13.749 z"
                   inkscape:connector-curvature="0"
                   style="fill-opacity:0.129412;marker-start:none;marker-end:none" />
                <path
                   id="path110340"
                   d="m 1.875,13.811 0,-10e-4 c 0,-0.655 1.192,-1.187 2.659,-1.187 l 86.932,0 c 1.467,0 2.659,0.532 2.659,1.187 l 0,10e-4 c 0,0.655 -1.192,1.188 -2.659,1.188 l -86.932,0 c -1.467,0 -2.659,-0.533 -2.659,-1.188 z"
                   inkscape:connector-curvature="0"
                   style="fill-opacity:0.14902003;marker-start:none;marker-end:none" />
                <path
                   id="path110342"
                   d="m 2.25,13.874 0,-0.001 c 0,-0.621 1.192,-1.125 2.659,-1.125 l 86.183,0 c 1.467,0 2.659,0.504 2.659,1.125 l 0,0.001 c 0,0.621 -1.192,1.125 -2.659,1.125 l -86.183,0 c -1.467,0 -2.659,-0.504 -2.659,-1.125 z"
                   inkscape:connector-curvature="0"
                   style="fill-opacity:0.164706;marker-start:none;marker-end:none" />
              </g>
              <path
                 style="fill:url(#LinearGradient-954);stroke-width:0.32600001;marker-start:none;marker-end:none"
                 id="path110344"
                 stroke-miterlimit="79.8403193612775"
                 d="M 0,90.859 0,18.638 c 0,-2.836 2.303,-5.139 5.139,-5.139 l 85.721,0 c 2.836,0 5.139,2.303 5.139,5.139 l 0,72.221 c 0,2.836 -2.303,5.139 -5.139,5.139 l -85.721,0 C 2.303,95.998 0,93.695 0,90.859 z"
                 inkscape:connector-curvature="0" />
              <path
                 style="fill:url(#LinearGradient_1-124);stroke-width:0.32600001;marker-start:none;marker-end:none"
                 id="path110346"
                 stroke-miterlimit="79.8403193612775"
                 d="m 0.75,18.638 0,72.221 c 0,2.421 1.967,4.389 4.389,4.389 l 85.721,0 c 2.421,0 4.389,-1.968 4.389,-4.389 l 0,-72.221 c 0,-2.422 -1.968,-4.389 -4.389,-4.389 l -85.721,0 c -2.422,0 -4.389,1.967 -4.389,4.389 z"
                 inkscape:connector-curvature="0" />
              <path
                 id="path110348"
                 stroke-miterlimit="79.8403193612775"
                 d="m 0.75,64.104 0,24.505 c 0,2.421 1.967,4.389 4.389,4.389 l 85.721,0 c 2.421,0 4.389,-1.968 4.389,-4.389 l 0,-24.505 C 84.426,57.054 67.284,52.499 48,52.499 c -19.286,0 -36.429,4.556 -47.25,11.605 z"
                 inkscape:connector-curvature="0"
                 style="fill:#ffffff;fill-opacity:0.27450998;stroke-width:0.13600001;marker-start:none;marker-end:none" />
              <path
                 style="fill:url(#LinearGradient_2-790);stroke-width:0.32600001;marker-start:none;marker-end:none"
                 id="path110350"
                 stroke-miterlimit="79.8403193612775"
                 d="m 3.75,21.709 0,64.581 c 0,2.047 1.661,3.709 3.709,3.709 l 81.081,0 c 2.047,0 3.709,-1.662 3.709,-3.709 l 0,-64.581 C 92.249,19.661 90.587,18 88.54,18 L 7.459,18 C 5.411,18 3.75,19.661 3.75,21.709 z"
                 inkscape:connector-curvature="0" />
              <path
                 id="path110352"
                 stroke-miterlimit="79.8403193612775"
                 d="m 4.499,86.29 0,-64.581 c 0,-1.633 1.326,-2.959 2.959,-2.959 l 81.083,0 c 1.633,0 2.959,1.326 2.959,2.959 l 0,64.581 c 0,1.633 -1.326,2.959 -2.959,2.959 l -81.083,0 c -1.633,0 -2.959,-1.326 -2.959,-2.959 z"
                 inkscape:connector-curvature="0"
                 style="fill:#7f7f7f;stroke-width:0.32600001;marker-start:none;marker-end:none" />
              <path
                 id="path110354"
                 stroke-miterlimit="79.8403193612775"
                 d="m 5.249,86.29 0,-64.581 c 0,-1.633 1.303,-2.959 2.908,-2.959 l 79.685,0 c 1.605,0 2.908,1.326 2.908,2.959 l 0,64.581 c 0,1.633 -1.303,2.959 -2.908,2.959 l -79.685,0 c -1.605,0 -2.908,-1.326 -2.908,-2.959 z"
                 inkscape:connector-curvature="0"
                 style="fill:#1d1d1d;stroke-width:0.32600001;marker-start:none;marker-end:none" />
              <path
                 id="path110356"
                 stroke-miterlimit="79.8403193612775"
                 d="m 5.999,21.709 0,64.581 c 0,1.218 0.973,2.209 2.17,2.209 l 79.661,0 c 1.196,0 2.17,-0.991 2.17,-2.209 L 90,21.709 C 90,20.49 89.026,19.5 87.83,19.5 l -79.661,0 c -1.197,0 -2.17,0.99 -2.17,2.209 z"
                 inkscape:connector-curvature="0"
                 style="fill:#2e2c2c;stroke-width:0.32600001;marker-start:none;marker-end:none" />
              <path
                 id="path110358"
                 stroke-miterlimit="79.8403193612775"
                 d="m 9.001,25.219 0,57.561 c 0,1.086 0.903,1.969 2.015,1.969 l 73.969,0 C 86.096,84.749 87,83.866 87,82.78 L 87,25.219 C 87,24.132 86.096,23.25 84.985,23.25 l -73.969,0 c -1.112,0 -2.015,0.882 -2.015,1.969 z"
                 inkscape:connector-curvature="0"
                 style="fill:#3c3d41;stroke-width:0.32600001;marker-start:none;marker-end:none" />
              <path
                 id="path110360"
                 stroke-miterlimit="79.8403193612775"
                 d="m 11.812,23.25 0,1.311 -1.125,0 -10e-4,-1.285 c -0.129,0.021 -0.255,0.053 -0.375,0.097 l 10e-4,1.188 -1.196,0 c -0.044,0.12 -0.076,0.245 -0.095,0.375 l 1.291,0 0,1.125 -1.311,0 0,0.375 1.311,0 0,1.125 -1.311,0 0,0.375 1.311,0 0,3.375 -1.311,0 0,0.375 1.311,0 0,1.125 -1.311,0 0,0.375 1.311,0 0,1.125 -1.311,0 0,0.375 1.311,0 0,1.125 -1.311,0 0,0.375 1.311,0 0,1.125 -1.311,0 0,0.375 1.311,0 0,3.375 -1.311,0 0,0.375 1.311,0 0,1.125 -1.311,0 0,0.375 1.311,0 0,1.125 -1.311,0 0,0.375 1.311,0 0,1.125 -1.311,0 0,0.375 1.311,0 0,1.125 -1.311,0 0,0.375 1.311,0 0,3.375 -1.311,0 0,0.375 1.311,0 0,1.125 -1.311,0 0,0.375 1.311,0 0,1.125 -1.311,0 0,0.375 1.311,0 0,1.125 -1.311,0 0,0.375 1.311,0 0,1.125 -1.311,0 0,0.375 1.311,0 0,3.375 -1.311,0 0,0.375 1.311,0 0,1.125 -1.311,0 0,0.375 1.311,0 0,1.125 -1.311,0 0,0.375 1.311,0 0,1.125 -1.311,0 0,0.375 1.311,0 0,1.125 -1.311,0 0,0.375 1.311,0 0,3.375 -1.311,0 0,0.375 1.311,0 0,1.125 -1.311,0 0,0.375 1.311,0 0,1.125 -1.311,0 0,0.375 1.311,0 0,1.125 -1.311,0 0,0.375 1.311,0 0,1.125 -1.311,0 0,0.375 1.311,0 0,3.375 -1.311,0 0,0.375 1.311,0 0,1.125 -1.311,0 0,0.375 1.311,0 0,1.125 -1.291,0 c 0.019,0.129 0.051,0.255 0.094,0.375 l 1.197,0 -10e-4,1.189 c 0.12,0.044 0.246,0.076 0.375,0.097 l 10e-4,-1.286 1.125,0 0,1.313 0.375,0 0,-1.313 1.125,0 0,1.313 0.375,0 0,-1.313 1.125,0 0,1.313 0.375,0 0,-1.313 1.125,0 0,1.313 0.375,0 0,-1.313 3.375,0 0,1.313 0.375,0 0,-1.313 1.125,0 0,1.313 0.375,0 0,-1.313 1.125,0 0,1.313 0.375,0 0,-1.313 1.125,0 0,1.313 0.375,0 0,-1.313 1.125,0 0,1.313 0.375,0 0,-1.313 3.375,0 0,1.313 0.375,0 0,-1.313 1.125,0 0,1.313 0.375,0 0,-1.313 1.125,0 0,1.313 0.375,0 0,-1.313 1.125,0 0,1.313 0.375,0 0,-1.313 1.125,0 0,1.313 0.375,0 0,-1.313 3.375,0 0,1.313 0.375,0 0,-1.313 1.125,0 0,1.313 0.375,0 0,-1.313 1.125,0 0,1.313 0.375,0 0,-1.313 1.125,0 0,1.313 0.375,0 0,-1.313 1.125,0 0,1.313 0.375,0 0,-1.313 3.375,0 0,1.313 0.375,0 0,-1.313 1.125,0 0,1.313 0.375,0 0,-1.313 1.125,0 0,1.313 0.375,0 0,-1.313 1.125,0 0,1.313 0.375,0 0,-1.313 1.125,0 0,1.313 0.375,0 0,-1.313 3.375,0 0,1.313 0.375,0 0,-1.313 1.125,0 0,1.313 0.375,0 0,-1.313 1.125,0 0,1.313 0.375,0 0,-1.313 1.125,0 0,1.313 0.375,0 0,-1.313 1.125,0 0,1.313 0.375,0 0,-1.313 3.375,0 0,1.313 0.375,0 0,-1.313 1.125,0 0,1.313 0.375,0 0,-1.313 1.125,0 0,1.313 0.375,0 0,-1.313 1.125,0 0,1.313 0.375,0 0,-1.313 1.125,0 0,1.313 0.375,0 0,-1.313 3.375,0 0,1.313 0.375,0 0,-1.313 1.125,0 0,1.313 0.375,0 0,-1.313 1.125,0 0,1.313 0.375,0 0,-1.313 1.125,0 0,1.313 0.375,0 0,-1.313 1.125,0 0,1.313 0.375,0 0,-1.313 1.947,0 c 0.044,-0.12 0.076,-0.246 0.095,-0.375 l -2.042,0 0,-1.125 2.063,0 0,-0.375 -2.063,0 0,-1.125 2.063,0 0,-0.375 -2.063,0 0,-3.375 2.063,0 0,-0.375 -2.063,0 0,-1.125 2.063,0 0,-0.375 -2.063,0 0,-1.125 2.063,0 0,-0.375 -2.063,0 0,-1.125 2.063,0 0,-0.375 -2.063,0 0,-1.125 2.063,0 0,-0.375 -2.063,0 0,-3.375 2.063,0 0,-0.375 -2.063,0 0,-1.125 2.063,0 0,-0.375 -2.063,0 0,-1.125 2.063,0 0,-0.375 -2.063,0 0,-1.125 2.063,0 0,-0.375 -2.063,0 0,-1.125 2.063,0 0,-0.375 -2.063,0 0,-3.375 2.063,0 0,-0.375 -2.063,0 0,-1.125 2.063,0 0,-0.375 -2.063,0 0,-1.125 2.063,0 0,-0.375 -2.063,0 0,-1.125 2.063,0 0,-0.375 -2.063,0 0,-1.125 2.063,0 0,-0.375 -2.063,0 0,-3.375 2.063,0 0,-0.375 -2.063,0 0,-1.125 2.063,0 0,-0.375 -2.063,0 0,-1.125 2.063,0 0,-0.375 -2.063,0 0,-1.125 2.063,0 0,-0.375 -2.063,0 0,-1.125 2.063,0 0,-0.375 -2.063,0 0,-3.375 2.063,0 0,-0.375 -2.063,0 0,-1.125 2.063,0 0,-0.375 -2.063,0 0,-1.125 2.063,0 0,-0.375 -2.063,0 0,-1.125 2.063,0 0,-0.375 -2.063,0 0,-1.125 2.063,0 0,-0.375 -2.063,0 0,-3.375 2.063,0 0,-0.375 -2.063,0 0,-1.125 2.063,0 0,-0.375 -2.063,0 0,-1.125 2.042,0 c -0.019,-0.13 -0.051,-0.255 -0.095,-0.375 l -1.947,0 0,-1.311 -0.375,0 0,1.311 -1.125,0 0,-1.311 -0.375,0 0,1.311 -1.125,0 0,-1.311 -0.375,0 0,1.311 -1.125,0 0,-1.311 -0.375,0 0,1.311 -1.125,0 0,-1.311 -0.375,0 0,1.311 -3.375,0 0,-1.311 -0.375,0 0,1.311 -1.125,0 0,-1.311 -0.375,0 0,1.311 -1.125,0 0,-1.311 -0.375,0 0,1.311 -1.125,0 0,-1.311 -0.375,0 0,1.311 -1.125,0 0,-1.311 -0.375,0 0,1.311 -3.375,0 0,-1.311 -0.375,0 0,1.311 -1.125,0 0,-1.311 -0.375,0 0,1.311 -1.125,0 0,-1.311 -0.375,0 0,1.311 -1.125,0 0,-1.311 -0.375,0 0,1.311 -1.125,0 0,-1.311 -0.375,0 0,1.311 -3.375,0 0,-1.311 -0.375,0 0,1.311 -1.125,0 0,-1.311 -0.375,0 0,1.311 -1.125,0 0,-1.311 -0.375,0 0,1.311 -1.125,0 0,-1.311 -0.375,0 0,1.311 -1.125,0 0,-1.311 -0.375,0 0,1.311 -3.375,0 0,-1.311 -0.375,0 0,1.311 -1.125,0 0,-1.311 -0.375,0 0,1.311 -1.125,0 0,-1.311 -0.375,0 0,1.311 -1.125,0 0,-1.311 -0.375,0 0,1.311 -1.125,0 0,-1.311 -0.375,0 0,1.311 -3.375,0 0,-1.311 -0.375,0 0,1.311 -1.125,0 0,-1.311 -0.375,0 0,1.311 -1.125,0 0,-1.311 -0.375,0 0,1.311 -1.125,0 0,-1.311 -0.375,0 0,1.311 -1.125,0 0,-1.311 -0.375,0 0,1.311 -3.375,0 0,-1.311 -0.375,0 0,1.311 -1.125,0 0,-1.311 -0.375,0 0,1.311 -1.125,0 0,-1.311 -0.375,0 0,1.311 -1.125,0 0,-1.311 -0.375,0 0,1.311 -1.125,0 0,-1.311 -0.375,0 0,1.311 -3.375,0 0,-1.311 -0.375,0 0,1.311 -1.125,0 0,-1.311 -0.375,0 0,1.311 -1.125,0 0,-1.311 -0.375,0 0,1.311 -1.125,0 0,-1.311 -0.375,0 z m 0,1.686 0,1.125 -1.125,0 0,-1.125 1.125,0 z m 1.5,0 0,1.125 -1.125,0 0,-1.125 1.125,0 z m 1.5,0 0,1.125 -1.125,0 0,-1.125 1.125,0 z m 1.5,0 0,1.125 -1.125,0 0,-1.125 1.125,0 z m 3.75,0 0,1.125 -3.375,0 0,-1.125 3.375,0 z m 1.5,0 0,1.125 -1.125,0 0,-1.125 1.125,0 z m 1.5,0 0,1.125 -1.125,0 0,-1.125 1.125,0 z m 1.5,0 0,1.125 -1.125,0 0,-1.125 1.125,0 z m 1.5,0 0,1.125 -1.125,0 0,-1.125 1.125,0 z m 3.75,0 0,1.125 -3.375,0 0,-1.125 3.375,0 z m 1.5,0 0,1.125 -1.125,0 0,-1.125 1.125,0 z m 1.5,0 0,1.125 -1.125,0 0,-1.125 1.125,0 z m 1.5,0 0,1.125 -1.125,0 0,-1.125 1.125,0 z m 1.5,0 0,1.125 -1.125,0 0,-1.125 1.125,0 z m 3.75,0 0,1.125 -3.375,0 0,-1.125 3.375,0 z m 1.5,0 0,1.125 -1.125,0 0,-1.125 1.125,0 z m 1.5,0 0,1.125 -1.125,0 0,-1.125 1.125,0 z m 1.5,0 0,1.125 -1.125,0 0,-1.125 1.125,0 z m 1.5,0 0,1.125 -1.125,0 0,-1.125 1.125,0 z m 3.75,0 0,1.125 -3.375,0 0,-1.125 3.375,0 z m 1.5,0 0,1.125 -1.125,0 0,-1.125 1.125,0 z m 1.5,0 0,1.125 -1.125,0 0,-1.125 1.125,0 z m 1.5,0 0,1.125 -1.125,0 0,-1.125 1.125,0 z m 1.5,0 0,1.125 -1.125,0 0,-1.125 1.125,0 z m 3.75,0 0,1.125 -3.375,0 0,-1.125 3.375,0 z m 1.5,0 0,1.125 -1.125,0 0,-1.125 1.125,0 z m 1.5,0 0,1.125 -1.125,0 0,-1.125 1.125,0 z m 1.5,0 0,1.125 -1.125,0 0,-1.125 1.125,0 z m 1.5,0 0,1.125 -1.125,0 0,-1.125 1.125,0 z m 3.75,0 0,1.125 -3.375,0 0,-1.125 3.375,0 z m 1.5,0 0,1.125 -1.125,0 0,-1.125 1.125,0 z m 1.5,0 0,1.125 -1.125,0 0,-1.125 1.125,0 z m 1.5,0 0,1.125 -1.125,0 0,-1.125 1.125,0 z m 1.5,0 0,1.125 -1.125,0 0,-1.125 1.125,0 z m 3.75,0 0,1.125 -3.375,0 0,-1.125 3.375,0 z m 1.5,0 0,1.125 -1.125,0 0,-1.125 1.125,0 z m 1.5,0 0,1.125 -1.125,0 0,-1.125 1.125,0 z m 1.5,0 0,1.125 -1.125,0 0,-1.125 1.125,0 z m 1.5,0 0,1.125 -1.125,0 0,-1.125 1.125,0 z m -72.75,1.5 0,1.125 -1.125,0 0,-1.125 1.125,0 z m 1.5,0 0,1.125 -1.125,0 0,-1.125 1.125,0 z m 1.5,0 0,1.125 -1.125,0 0,-1.125 1.125,0 z m 1.5,0 0,1.125 -1.125,0 0,-1.125 1.125,0 z m 3.75,0 0,1.125 -3.375,0 0,-1.125 3.375,0 z m 1.5,0 0,1.125 -1.125,0 0,-1.125 1.125,0 z m 1.5,0 0,1.125 -1.125,0 0,-1.125 1.125,0 z m 1.5,0 0,1.125 -1.125,0 0,-1.125 1.125,0 z m 1.5,0 0,1.125 -1.125,0 0,-1.125 1.125,0 z m 3.75,0 0,1.125 -3.375,0 0,-1.125 3.375,0 z m 1.5,0 0,1.125 -1.125,0 0,-1.125 1.125,0 z m 1.5,0 0,1.125 -1.125,0 0,-1.125 1.125,0 z m 1.5,0 0,1.125 -1.125,0 0,-1.125 1.125,0 z m 1.5,0 0,1.125 -1.125,0 0,-1.125 1.125,0 z m 3.75,0 0,1.125 -3.375,0 0,-1.125 3.375,0 z m 1.5,0 0,1.125 -1.125,0 0,-1.125 1.125,0 z m 1.5,0 0,1.125 -1.125,0 0,-1.125 1.125,0 z m 1.5,0 0,1.125 -1.125,0 0,-1.125 1.125,0 z m 1.5,0 0,1.125 -1.125,0 0,-1.125 1.125,0 z m 3.75,0 0,1.125 -3.375,0 0,-1.125 3.375,0 z m 1.5,0 0,1.125 -1.125,0 0,-1.125 1.125,0 z m 1.5,0 0,1.125 -1.125,0 0,-1.125 1.125,0 z m 1.5,0 0,1.125 -1.125,0 0,-1.125 1.125,0 z m 1.5,0 0,1.125 -1.125,0 0,-1.125 1.125,0 z m 3.75,0 0,1.125 -3.375,0 0,-1.125 3.375,0 z m 1.5,0 0,1.125 -1.125,0 0,-1.125 1.125,0 z m 1.5,0 0,1.125 -1.125,0 0,-1.125 1.125,0 z m 1.5,0 0,1.125 -1.125,0 0,-1.125 1.125,0 z m 1.5,0 0,1.125 -1.125,0 0,-1.125 1.125,0 z m 3.75,0 0,1.125 -3.375,0 0,-1.125 3.375,0 z m 1.5,0 0,1.125 -1.125,0 0,-1.125 1.125,0 z m 1.5,0 0,1.125 -1.125,0 0,-1.125 1.125,0 z m 1.5,0 0,1.125 -1.125,0 0,-1.125 1.125,0 z m 1.5,0 0,1.125 -1.125,0 0,-1.125 1.125,0 z m 3.75,0 0,1.125 -3.375,0 0,-1.125 3.375,0 z m 1.5,0 0,1.125 -1.125,0 0,-1.125 1.125,0 z m 1.5,0 0,1.125 -1.125,0 0,-1.125 1.125,0 z m 1.5,0 0,1.125 -1.125,0 0,-1.125 1.125,0 z m 1.5,0 0,1.125 -1.125,0 0,-1.125 1.125,0 z m -72.75,1.5 0,3.375 -1.125,0 0,-3.375 1.125,0 z m 1.5,0 0,3.375 -1.125,0 0,-3.375 1.125,0 z m 1.5,0 0,3.375 -1.125,0 0,-3.375 1.125,0 z m 1.5,0 0,3.375 -1.125,0 0,-3.375 1.125,0 z m 3.75,0 0,3.375 -3.375,0 0,-3.375 3.375,0 z m 1.5,0 0,3.375 -1.125,0 0,-3.375 1.125,0 z m 1.5,0 0,3.375 -1.125,0 0,-3.375 1.125,0 z m 1.5,0 0,3.375 -1.125,0 0,-3.375 1.125,0 z m 1.5,0 0,3.375 -1.125,0 0,-3.375 1.125,0 z m 3.75,0 0,3.375 -3.375,0 0,-3.375 3.375,0 z m 1.5,0 0,3.375 -1.125,0 0,-3.375 1.125,0 z m 1.5,0 0,3.375 -1.125,0 0,-3.375 1.125,0 z m 1.5,0 0,3.375 -1.125,0 0,-3.375 1.125,0 z m 1.5,0 0,3.375 -1.125,0 0,-3.375 1.125,0 z m 3.75,0 0,3.375 -3.375,0 0,-3.375 3.375,0 z m 1.5,0 0,3.375 -1.125,0 0,-3.375 1.125,0 z m 1.5,0 0,3.375 -1.125,0 0,-3.375 1.125,0 z m 1.5,0 0,3.375 -1.125,0 0,-3.375 1.125,0 z m 1.5,0 0,3.375 -1.125,0 0,-3.375 1.125,0 z m 3.75,0 0,3.375 -3.375,0 0,-3.375 3.375,0 z m 1.5,0 0,3.375 -1.125,0 0,-3.375 1.125,0 z m 1.5,0 0,3.375 -1.125,0 0,-3.375 1.125,0 z m 1.5,0 0,3.375 -1.125,0 0,-3.375 1.125,0 z m 1.5,0 0,3.375 -1.125,0 0,-3.375 1.125,0 z m 3.75,0 0,3.375 -3.375,0 0,-3.375 3.375,0 z m 1.5,0 0,3.375 -1.125,0 0,-3.375 1.125,0 z m 1.5,0 0,3.375 -1.125,0 0,-3.375 1.125,0 z m 1.5,0 0,3.375 -1.125,0 0,-3.375 1.125,0 z m 1.5,0 0,3.375 -1.125,0 0,-3.375 1.125,0 z m 3.75,0 0,3.375 -3.375,0 0,-3.375 3.375,0 z m 1.5,0 0,3.375 -1.125,0 0,-3.375 1.125,0 z m 1.5,0 0,3.375 -1.125,0 0,-3.375 1.125,0 z m 1.5,0 0,3.375 -1.125,0 0,-3.375 1.125,0 z m 1.5,0 0,3.375 -1.125,0 0,-3.375 1.125,0 z m 3.75,0 0,3.375 -3.375,0 0,-3.375 3.375,0 z m 1.5,0 0,3.375 -1.125,0 0,-3.375 1.125,0 z m 1.5,0 0,3.375 -1.125,0 0,-3.375 1.125,0 z m 1.5,0 0,3.375 -1.125,0 0,-3.375 1.125,0 z m 1.5,0 0,3.375 -1.125,0 0,-3.375 1.125,0 z m -72.75,3.75 0,1.125 -1.125,0 0,-1.125 1.125,0 z m 1.5,0 0,1.125 -1.125,0 0,-1.125 1.125,0 z m 1.5,0 0,1.125 -1.125,0 0,-1.125 1.125,0 z m 1.5,0 0,1.125 -1.125,0 0,-1.125 1.125,0 z m 3.75,0 0,1.125 -3.375,0 0,-1.125 3.375,0 z m 1.5,0 0,1.125 -1.125,0 0,-1.125 1.125,0 z m 1.5,0 0,1.125 -1.125,0 0,-1.125 1.125,0 z m 1.5,0 0,1.125 -1.125,0 0,-1.125 1.125,0 z m 1.5,0 0,1.125 -1.125,0 0,-1.125 1.125,0 z m 3.75,0 0,1.125 -3.375,0 0,-1.125 3.375,0 z m 1.5,0 0,1.125 -1.125,0 0,-1.125 1.125,0 z m 1.5,0 0,1.125 -1.125,0 0,-1.125 1.125,0 z m 1.5,0 0,1.125 -1.125,0 0,-1.125 1.125,0 z m 1.5,0 0,1.125 -1.125,0 0,-1.125 1.125,0 z m 3.75,0 0,1.125 -3.375,0 0,-1.125 3.375,0 z m 1.5,0 0,1.125 -1.125,0 0,-1.125 1.125,0 z m 1.5,0 0,1.125 -1.125,0 0,-1.125 1.125,0 z m 1.5,0 0,1.125 -1.125,0 0,-1.125 1.125,0 z m 1.5,0 0,1.125 -1.125,0 0,-1.125 1.125,0 z m 3.75,0 0,1.125 -3.375,0 0,-1.125 3.375,0 z m 1.5,0 0,1.125 -1.125,0 0,-1.125 1.125,0 z m 1.5,0 0,1.125 -1.125,0 0,-1.125 1.125,0 z m 1.5,0 0,1.125 -1.125,0 0,-1.125 1.125,0 z m 1.5,0 0,1.125 -1.125,0 0,-1.125 1.125,0 z m 3.75,0 0,1.125 -3.375,0 0,-1.125 3.375,0 z m 1.5,0 0,1.125 -1.125,0 0,-1.125 1.125,0 z m 1.5,0 0,1.125 -1.125,0 0,-1.125 1.125,0 z m 1.5,0 0,1.125 -1.125,0 0,-1.125 1.125,0 z m 1.5,0 0,1.125 -1.125,0 0,-1.125 1.125,0 z m 3.75,0 0,1.125 -3.375,0 0,-1.125 3.375,0 z m 1.5,0 0,1.125 -1.125,0 0,-1.125 1.125,0 z m 1.5,0 0,1.125 -1.125,0 0,-1.125 1.125,0 z m 1.5,0 0,1.125 -1.125,0 0,-1.125 1.125,0 z m 1.5,0 0,1.125 -1.125,0 0,-1.125 1.125,0 z m 3.75,0 0,1.125 -3.375,0 0,-1.125 3.375,0 z m 1.5,0 0,1.125 -1.125,0 0,-1.125 1.125,0 z m 1.5,0 0,1.125 -1.125,0 0,-1.125 1.125,0 z m 1.5,0 0,1.125 -1.125,0 0,-1.125 1.125,0 z m 1.5,0 0,1.125 -1.125,0 0,-1.125 1.125,0 z m -72.75,1.5 0,1.125 -1.125,0 0,-1.125 1.125,0 z m 1.5,0 0,1.125 -1.125,0 0,-1.125 1.125,0 z m 1.5,0 0,1.125 -1.125,0 0,-1.125 1.125,0 z m 1.5,0 0,1.125 -1.125,0 0,-1.125 1.125,0 z m 3.75,0 0,1.125 -3.375,0 0,-1.125 3.375,0 z m 1.5,0 0,1.125 -1.125,0 0,-1.125 1.125,0 z m 1.5,0 0,1.125 -1.125,0 0,-1.125 1.125,0 z m 1.5,0 0,1.125 -1.125,0 0,-1.125 1.125,0 z m 1.5,0 0,1.125 -1.125,0 0,-1.125 1.125,0 z m 3.75,0 0,1.125 -3.375,0 0,-1.125 3.375,0 z m 1.5,0 0,1.125 -1.125,0 0,-1.125 1.125,0 z m 1.5,0 0,1.125 -1.125,0 0,-1.125 1.125,0 z m 1.5,0 0,1.125 -1.125,0 0,-1.125 1.125,0 z m 1.5,0 0,1.125 -1.125,0 0,-1.125 1.125,0 z m 3.75,0 0,1.125 -3.375,0 0,-1.125 3.375,0 z m 1.5,0 0,1.125 -1.125,0 0,-1.125 1.125,0 z m 1.5,0 0,1.125 -1.125,0 0,-1.125 1.125,0 z m 1.5,0 0,1.125 -1.125,0 0,-1.125 1.125,0 z m 1.5,0 0,1.125 -1.125,0 0,-1.125 1.125,0 z m 3.75,0 0,1.125 -3.375,0 0,-1.125 3.375,0 z m 1.5,0 0,1.125 -1.125,0 0,-1.125 1.125,0 z m 1.5,0 0,1.125 -1.125,0 0,-1.125 1.125,0 z m 1.5,0 0,1.125 -1.125,0 0,-1.125 1.125,0 z m 1.5,0 0,1.125 -1.125,0 0,-1.125 1.125,0 z m 3.75,0 0,1.125 -3.375,0 0,-1.125 3.375,0 z m 1.5,0 0,1.125 -1.125,0 0,-1.125 1.125,0 z m 1.5,0 0,1.125 -1.125,0 0,-1.125 1.125,0 z m 1.5,0 0,1.125 -1.125,0 0,-1.125 1.125,0 z m 1.5,0 0,1.125 -1.125,0 0,-1.125 1.125,0 z m 3.75,0 0,1.125 -3.375,0 0,-1.125 3.375,0 z m 1.5,0 0,1.125 -1.125,0 0,-1.125 1.125,0 z m 1.5,0 0,1.125 -1.125,0 0,-1.125 1.125,0 z m 1.5,0 0,1.125 -1.125,0 0,-1.125 1.125,0 z m 1.5,0 0,1.125 -1.125,0 0,-1.125 1.125,0 z m 3.75,0 0,1.125 -3.375,0 0,-1.125 3.375,0 z m 1.5,0 0,1.125 -1.125,0 0,-1.125 1.125,0 z m 1.5,0 0,1.125 -1.125,0 0,-1.125 1.125,0 z m 1.5,0 0,1.125 -1.125,0 0,-1.125 1.125,0 z m 1.5,0 0,1.125 -1.125,0 0,-1.125 1.125,0 z m -72.75,1.5 0,1.125 -1.125,0 0,-1.125 1.125,0 z m 1.5,0 0,1.125 -1.125,0 0,-1.125 1.125,0 z m 1.5,0 0,1.125 -1.125,0 0,-1.125 1.125,0 z m 1.5,0 0,1.125 -1.125,0 0,-1.125 1.125,0 z m 3.75,0 0,1.125 -3.375,0 0,-1.125 3.375,0 z m 1.5,0 0,1.125 -1.125,0 0,-1.125 1.125,0 z m 1.5,0 0,1.125 -1.125,0 0,-1.125 1.125,0 z m 1.5,0 0,1.125 -1.125,0 0,-1.125 1.125,0 z m 1.5,0 0,1.125 -1.125,0 0,-1.125 1.125,0 z m 3.75,0 0,1.125 -3.375,0 0,-1.125 3.375,0 z m 1.5,0 0,1.125 -1.125,0 0,-1.125 1.125,0 z m 1.5,0 0,1.125 -1.125,0 0,-1.125 1.125,0 z m 1.5,0 0,1.125 -1.125,0 0,-1.125 1.125,0 z m 1.5,0 0,1.125 -1.125,0 0,-1.125 1.125,0 z m 3.75,0 0,1.125 -3.375,0 0,-1.125 3.375,0 z m 1.5,0 0,1.125 -1.125,0 0,-1.125 1.125,0 z m 1.5,0 0,1.125 -1.125,0 0,-1.125 1.125,0 z m 1.5,0 0,1.125 -1.125,0 0,-1.125 1.125,0 z m 1.5,0 0,1.125 -1.125,0 0,-1.125 1.125,0 z m 3.75,0 0,1.125 -3.375,0 0,-1.125 3.375,0 z m 1.5,0 0,1.125 -1.125,0 0,-1.125 1.125,0 z m 1.5,0 0,1.125 -1.125,0 0,-1.125 1.125,0 z m 1.5,0 0,1.125 -1.125,0 0,-1.125 1.125,0 z m 1.5,0 0,1.125 -1.125,0 0,-1.125 1.125,0 z m 3.75,0 0,1.125 -3.375,0 0,-1.125 3.375,0 z m 1.5,0 0,1.125 -1.125,0 0,-1.125 1.125,0 z m 1.5,0 0,1.125 -1.125,0 0,-1.125 1.125,0 z m 1.5,0 0,1.125 -1.125,0 0,-1.125 1.125,0 z m 1.5,0 0,1.125 -1.125,0 0,-1.125 1.125,0 z m 3.75,0 0,1.125 -3.375,0 0,-1.125 3.375,0 z m 1.5,0 0,1.125 -1.125,0 0,-1.125 1.125,0 z m 1.5,0 0,1.125 -1.125,0 0,-1.125 1.125,0 z m 1.5,0 0,1.125 -1.125,0 0,-1.125 1.125,0 z m 1.5,0 0,1.125 -1.125,0 0,-1.125 1.125,0 z m 3.75,0 0,1.125 -3.375,0 0,-1.125 3.375,0 z m 1.5,0 0,1.125 -1.125,0 0,-1.125 1.125,0 z m 1.5,0 0,1.125 -1.125,0 0,-1.125 1.125,0 z m 1.5,0 0,1.125 -1.125,0 0,-1.125 1.125,0 z m 1.5,0 0,1.125 -1.125,0 0,-1.125 1.125,0 z m -72.75,1.5 0,1.125 -1.125,0 0,-1.125 1.125,0 z m 1.5,0 0,1.125 -1.125,0 0,-1.125 1.125,0 z m 1.5,0 0,1.125 -1.125,0 0,-1.125 1.125,0 z m 1.5,0 0,1.125 -1.125,0 0,-1.125 1.125,0 z m 3.75,0 0,1.125 -3.375,0 0,-1.125 3.375,0 z m 1.5,0 0,1.125 -1.125,0 0,-1.125 1.125,0 z m 1.5,0 0,1.125 -1.125,0 0,-1.125 1.125,0 z m 1.5,0 0,1.125 -1.125,0 0,-1.125 1.125,0 z m 1.5,0 0,1.125 -1.125,0 0,-1.125 1.125,0 z m 3.75,0 0,1.125 -3.375,0 0,-1.125 3.375,0 z m 1.5,0 0,1.125 -1.125,0 0,-1.125 1.125,0 z m 1.5,0 0,1.125 -1.125,0 0,-1.125 1.125,0 z m 1.5,0 0,1.125 -1.125,0 0,-1.125 1.125,0 z m 1.5,0 0,1.125 -1.125,0 0,-1.125 1.125,0 z m 3.75,0 0,1.125 -3.375,0 0,-1.125 3.375,0 z m 1.5,0 0,1.125 -1.125,0 0,-1.125 1.125,0 z m 1.5,0 0,1.125 -1.125,0 0,-1.125 1.125,0 z m 1.5,0 0,1.125 -1.125,0 0,-1.125 1.125,0 z m 1.5,0 0,1.125 -1.125,0 0,-1.125 1.125,0 z m 3.75,0 0,1.125 -3.375,0 0,-1.125 3.375,0 z m 1.5,0 0,1.125 -1.125,0 0,-1.125 1.125,0 z m 1.5,0 0,1.125 -1.125,0 0,-1.125 1.125,0 z m 1.5,0 0,1.125 -1.125,0 0,-1.125 1.125,0 z m 1.5,0 0,1.125 -1.125,0 0,-1.125 1.125,0 z m 3.75,0 0,1.125 -3.375,0 0,-1.125 3.375,0 z m 1.5,0 0,1.125 -1.125,0 0,-1.125 1.125,0 z m 1.5,0 0,1.125 -1.125,0 0,-1.125 1.125,0 z m 1.5,0 0,1.125 -1.125,0 0,-1.125 1.125,0 z m 1.5,0 0,1.125 -1.125,0 0,-1.125 1.125,0 z m 3.75,0 0,1.125 -3.375,0 0,-1.125 3.375,0 z m 1.5,0 0,1.125 -1.125,0 0,-1.125 1.125,0 z m 1.5,0 0,1.125 -1.125,0 0,-1.125 1.125,0 z m 1.5,0 0,1.125 -1.125,0 0,-1.125 1.125,0 z m 1.5,0 0,1.125 -1.125,0 0,-1.125 1.125,0 z m 3.75,0 0,1.125 -3.375,0 0,-1.125 3.375,0 z m 1.5,0 0,1.125 -1.125,0 0,-1.125 1.125,0 z m 1.5,0 0,1.125 -1.125,0 0,-1.125 1.125,0 z m 1.5,0 0,1.125 -1.125,0 0,-1.125 1.125,0 z m 1.5,0 0,1.125 -1.125,0 0,-1.125 1.125,0 z m -72.75,1.5 0,3.375 -1.125,0 0,-3.375 1.125,0 z m 1.5,0 0,3.375 -1.125,0 0,-3.375 1.125,0 z m 1.5,0 0,3.375 -1.125,0 0,-3.375 1.125,0 z m 1.5,0 0,3.375 -1.125,0 0,-3.375 1.125,0 z m 3.75,0 0,3.375 -3.375,0 0,-3.375 3.375,0 z m 1.5,0 0,3.375 -1.125,0 0,-3.375 1.125,0 z m 1.5,0 0,3.375 -1.125,0 0,-3.375 1.125,0 z m 1.5,0 0,3.375 -1.125,0 0,-3.375 1.125,0 z m 1.5,0 0,3.375 -1.125,0 0,-3.375 1.125,0 z m 3.75,0 0,3.375 -3.375,0 0,-3.375 3.375,0 z m 1.5,0 0,3.375 -1.125,0 0,-3.375 1.125,0 z m 1.5,0 0,3.375 -1.125,0 0,-3.375 1.125,0 z m 1.5,0 0,3.375 -1.125,0 0,-3.375 1.125,0 z m 1.5,0 0,3.375 -1.125,0 0,-3.375 1.125,0 z m 3.75,0 0,3.375 -3.375,0 0,-3.375 3.375,0 z m 1.5,0 0,3.375 -1.125,0 0,-3.375 1.125,0 z m 1.5,0 0,3.375 -1.125,0 0,-3.375 1.125,0 z m 1.5,0 0,3.375 -1.125,0 0,-3.375 1.125,0 z m 1.5,0 0,3.375 -1.125,0 0,-3.375 1.125,0 z m 3.75,0 0,3.375 -3.375,0 0,-3.375 3.375,0 z m 1.5,0 0,3.375 -1.125,0 0,-3.375 1.125,0 z m 1.5,0 0,3.375 -1.125,0 0,-3.375 1.125,0 z m 1.5,0 0,3.375 -1.125,0 0,-3.375 1.125,0 z m 1.5,0 0,3.375 -1.125,0 0,-3.375 1.125,0 z m 3.75,0 0,3.375 -3.375,0 0,-3.375 3.375,0 z m 1.5,0 0,3.375 -1.125,0 0,-3.375 1.125,0 z m 1.5,0 0,3.375 -1.125,0 0,-3.375 1.125,0 z m 1.5,0 0,3.375 -1.125,0 0,-3.375 1.125,0 z m 1.5,0 0,3.375 -1.125,0 0,-3.375 1.125,0 z m 3.75,0 0,3.375 -3.375,0 0,-3.375 3.375,0 z m 1.5,0 0,3.375 -1.125,0 0,-3.375 1.125,0 z m 1.5,0 0,3.375 -1.125,0 0,-3.375 1.125,0 z m 1.5,0 0,3.375 -1.125,0 0,-3.375 1.125,0 z m 1.5,0 0,3.375 -1.125,0 0,-3.375 1.125,0 z m 3.75,0 0,3.375 -3.375,0 0,-3.375 3.375,0 z m 1.5,0 0,3.375 -1.125,0 0,-3.375 1.125,0 z m 1.5,0 0,3.375 -1.125,0 0,-3.375 1.125,0 z m 1.5,0 0,3.375 -1.125,0 0,-3.375 1.125,0 z m 1.5,0 0,3.375 -1.125,0 0,-3.375 1.125,0 z m -72.75,3.75 0,1.125 -1.125,0 0,-1.125 1.125,0 z m 1.5,0 0,1.125 -1.125,0 0,-1.125 1.125,0 z m 1.5,0 0,1.125 -1.125,0 0,-1.125 1.125,0 z m 1.5,0 0,1.125 -1.125,0 0,-1.125 1.125,0 z m 3.75,0 0,1.125 -3.375,0 0,-1.125 3.375,0 z m 1.5,0 0,1.125 -1.125,0 0,-1.125 1.125,0 z m 1.5,0 0,1.125 -1.125,0 0,-1.125 1.125,0 z m 1.5,0 0,1.125 -1.125,0 0,-1.125 1.125,0 z m 1.5,0 0,1.125 -1.125,0 0,-1.125 1.125,0 z m 3.75,0 0,1.125 -3.375,0 0,-1.125 3.375,0 z m 1.5,0 0,1.125 -1.125,0 0,-1.125 1.125,0 z m 1.5,0 0,1.125 -1.125,0 0,-1.125 1.125,0 z m 1.5,0 0,1.125 -1.125,0 0,-1.125 1.125,0 z m 1.5,0 0,1.125 -1.125,0 0,-1.125 1.125,0 z m 3.75,0 0,1.125 -3.375,0 0,-1.125 3.375,0 z m 1.5,0 0,1.125 -1.125,0 0,-1.125 1.125,0 z m 1.5,0 0,1.125 -1.125,0 0,-1.125 1.125,0 z m 1.5,0 0,1.125 -1.125,0 0,-1.125 1.125,0 z m 1.5,0 0,1.125 -1.125,0 0,-1.125 1.125,0 z m 3.75,0 0,1.125 -3.375,0 0,-1.125 3.375,0 z m 1.5,0 0,1.125 -1.125,0 0,-1.125 1.125,0 z m 1.5,0 0,1.125 -1.125,0 0,-1.125 1.125,0 z m 1.5,0 0,1.125 -1.125,0 0,-1.125 1.125,0 z m 1.5,0 0,1.125 -1.125,0 0,-1.125 1.125,0 z m 3.75,0 0,1.125 -3.375,0 0,-1.125 3.375,0 z m 1.5,0 0,1.125 -1.125,0 0,-1.125 1.125,0 z m 1.5,0 0,1.125 -1.125,0 0,-1.125 1.125,0 z m 1.5,0 0,1.125 -1.125,0 0,-1.125 1.125,0 z m 1.5,0 0,1.125 -1.125,0 0,-1.125 1.125,0 z m 3.75,0 0,1.125 -3.375,0 0,-1.125 3.375,0 z m 1.5,0 0,1.125 -1.125,0 0,-1.125 1.125,0 z m 1.5,0 0,1.125 -1.125,0 0,-1.125 1.125,0 z m 1.5,0 0,1.125 -1.125,0 0,-1.125 1.125,0 z m 1.5,0 0,1.125 -1.125,0 0,-1.125 1.125,0 z m 3.75,0 0,1.125 -3.375,0 0,-1.125 3.375,0 z m 1.5,0 0,1.125 -1.125,0 0,-1.125 1.125,0 z m 1.5,0 0,1.125 -1.125,0 0,-1.125 1.125,0 z m 1.5,0 0,1.125 -1.125,0 0,-1.125 1.125,0 z m 1.5,0 0,1.125 -1.125,0 0,-1.125 1.125,0 z m -72.75,1.5 0,1.125 -1.125,0 0,-1.125 1.125,0 z m 1.5,0 0,1.125 -1.125,0 0,-1.125 1.125,0 z m 1.5,0 0,1.125 -1.125,0 0,-1.125 1.125,0 z m 1.5,0 0,1.125 -1.125,0 0,-1.125 1.125,0 z m 3.75,0 0,1.125 -3.375,0 0,-1.125 3.375,0 z m 1.5,0 0,1.125 -1.125,0 0,-1.125 1.125,0 z m 1.5,0 0,1.125 -1.125,0 0,-1.125 1.125,0 z m 1.5,0 0,1.125 -1.125,0 0,-1.125 1.125,0 z m 1.5,0 0,1.125 -1.125,0 0,-1.125 1.125,0 z m 3.75,0 0,1.125 -3.375,0 0,-1.125 3.375,0 z m 1.5,0 0,1.125 -1.125,0 0,-1.125 1.125,0 z m 1.5,0 0,1.125 -1.125,0 0,-1.125 1.125,0 z m 1.5,0 0,1.125 -1.125,0 0,-1.125 1.125,0 z m 1.5,0 0,1.125 -1.125,0 0,-1.125 1.125,0 z m 3.75,0 0,1.125 -3.375,0 0,-1.125 3.375,0 z m 1.5,0 0,1.125 -1.125,0 0,-1.125 1.125,0 z m 1.5,0 0,1.125 -1.125,0 0,-1.125 1.125,0 z m 1.5,0 0,1.125 -1.125,0 0,-1.125 1.125,0 z m 1.5,0 0,1.125 -1.125,0 0,-1.125 1.125,0 z m 3.75,0 0,1.125 -3.375,0 0,-1.125 3.375,0 z m 1.5,0 0,1.125 -1.125,0 0,-1.125 1.125,0 z m 1.5,0 0,1.125 -1.125,0 0,-1.125 1.125,0 z m 1.5,0 0,1.125 -1.125,0 0,-1.125 1.125,0 z m 1.5,0 0,1.125 -1.125,0 0,-1.125 1.125,0 z m 3.75,0 0,1.125 -3.375,0 0,-1.125 3.375,0 z m 1.5,0 0,1.125 -1.125,0 0,-1.125 1.125,0 z m 1.5,0 0,1.125 -1.125,0 0,-1.125 1.125,0 z m 1.5,0 0,1.125 -1.125,0 0,-1.125 1.125,0 z m 1.5,0 0,1.125 -1.125,0 0,-1.125 1.125,0 z m 3.75,0 0,1.125 -3.375,0 0,-1.125 3.375,0 z m 1.5,0 0,1.125 -1.125,0 0,-1.125 1.125,0 z m 1.5,0 0,1.125 -1.125,0 0,-1.125 1.125,0 z m 1.5,0 0,1.125 -1.125,0 0,-1.125 1.125,0 z m 1.5,0 0,1.125 -1.125,0 0,-1.125 1.125,0 z m 3.75,0 0,1.125 -3.375,0 0,-1.125 3.375,0 z m 1.5,0 0,1.125 -1.125,0 0,-1.125 1.125,0 z m 1.5,0 0,1.125 -1.125,0 0,-1.125 1.125,0 z m 1.5,0 0,1.125 -1.125,0 0,-1.125 1.125,0 z m 1.5,0 0,1.125 -1.125,0 0,-1.125 1.125,0 z m -72.75,1.5 0,1.125 -1.125,0 0,-1.125 1.125,0 z m 1.5,0 0,1.125 -1.125,0 0,-1.125 1.125,0 z m 1.5,0 0,1.125 -1.125,0 0,-1.125 1.125,0 z m 1.5,0 0,1.125 -1.125,0 0,-1.125 1.125,0 z m 3.75,0 0,1.125 -3.375,0 0,-1.125 3.375,0 z m 1.5,0 0,1.125 -1.125,0 0,-1.125 1.125,0 z m 1.5,0 0,1.125 -1.125,0 0,-1.125 1.125,0 z m 1.5,0 0,1.125 -1.125,0 0,-1.125 1.125,0 z m 1.5,0 0,1.125 -1.125,0 0,-1.125 1.125,0 z m 3.75,0 0,1.125 -3.375,0 0,-1.125 3.375,0 z m 1.5,0 0,1.125 -1.125,0 0,-1.125 1.125,0 z m 1.5,0 0,1.125 -1.125,0 0,-1.125 1.125,0 z m 1.5,0 0,1.125 -1.125,0 0,-1.125 1.125,0 z m 1.5,0 0,1.125 -1.125,0 0,-1.125 1.125,0 z m 3.75,0 0,1.125 -3.375,0 0,-1.125 3.375,0 z m 1.5,0 0,1.125 -1.125,0 0,-1.125 1.125,0 z m 1.5,0 0,1.125 -1.125,0 0,-1.125 1.125,0 z m 1.5,0 0,1.125 -1.125,0 0,-1.125 1.125,0 z m 1.5,0 0,1.125 -1.125,0 0,-1.125 1.125,0 z m 3.75,0 0,1.125 -3.375,0 0,-1.125 3.375,0 z m 1.5,0 0,1.125 -1.125,0 0,-1.125 1.125,0 z m 1.5,0 0,1.125 -1.125,0 0,-1.125 1.125,0 z m 1.5,0 0,1.125 -1.125,0 0,-1.125 1.125,0 z m 1.5,0 0,1.125 -1.125,0 0,-1.125 1.125,0 z m 3.75,0 0,1.125 -3.375,0 0,-1.125 3.375,0 z m 1.5,0 0,1.125 -1.125,0 0,-1.125 1.125,0 z m 1.5,0 0,1.125 -1.125,0 0,-1.125 1.125,0 z m 1.5,0 0,1.125 -1.125,0 0,-1.125 1.125,0 z m 1.5,0 0,1.125 -1.125,0 0,-1.125 1.125,0 z m 3.75,0 0,1.125 -3.375,0 0,-1.125 3.375,0 z m 1.5,0 0,1.125 -1.125,0 0,-1.125 1.125,0 z m 1.5,0 0,1.125 -1.125,0 0,-1.125 1.125,0 z m 1.5,0 0,1.125 -1.125,0 0,-1.125 1.125,0 z m 1.5,0 0,1.125 -1.125,0 0,-1.125 1.125,0 z m 3.75,0 0,1.125 -3.375,0 0,-1.125 3.375,0 z m 1.5,0 0,1.125 -1.125,0 0,-1.125 1.125,0 z m 1.5,0 0,1.125 -1.125,0 0,-1.125 1.125,0 z m 1.5,0 0,1.125 -1.125,0 0,-1.125 1.125,0 z m 1.5,0 0,1.125 -1.125,0 0,-1.125 1.125,0 z m -72.75,1.5 0,1.125 -1.125,0 0,-1.125 1.125,0 z m 1.5,0 0,1.125 -1.125,0 0,-1.125 1.125,0 z m 1.5,0 0,1.125 -1.125,0 0,-1.125 1.125,0 z m 1.5,0 0,1.125 -1.125,0 0,-1.125 1.125,0 z m 3.75,0 0,1.125 -3.375,0 0,-1.125 3.375,0 z m 1.5,0 0,1.125 -1.125,0 0,-1.125 1.125,0 z m 1.5,0 0,1.125 -1.125,0 0,-1.125 1.125,0 z m 1.5,0 0,1.125 -1.125,0 0,-1.125 1.125,0 z m 1.5,0 0,1.125 -1.125,0 0,-1.125 1.125,0 z m 3.75,0 0,1.125 -3.375,0 0,-1.125 3.375,0 z m 1.5,0 0,1.125 -1.125,0 0,-1.125 1.125,0 z m 1.5,0 0,1.125 -1.125,0 0,-1.125 1.125,0 z m 1.5,0 0,1.125 -1.125,0 0,-1.125 1.125,0 z m 1.5,0 0,1.125 -1.125,0 0,-1.125 1.125,0 z m 3.75,0 0,1.125 -3.375,0 0,-1.125 3.375,0 z m 1.5,0 0,1.125 -1.125,0 0,-1.125 1.125,0 z m 1.5,0 0,1.125 -1.125,0 0,-1.125 1.125,0 z m 1.5,0 0,1.125 -1.125,0 0,-1.125 1.125,0 z m 1.5,0 0,1.125 -1.125,0 0,-1.125 1.125,0 z m 3.75,0 0,1.125 -3.375,0 0,-1.125 3.375,0 z m 1.5,0 0,1.125 -1.125,0 0,-1.125 1.125,0 z m 1.5,0 0,1.125 -1.125,0 0,-1.125 1.125,0 z m 1.5,0 0,1.125 -1.125,0 0,-1.125 1.125,0 z m 1.5,0 0,1.125 -1.125,0 0,-1.125 1.125,0 z m 3.75,0 0,1.125 -3.375,0 0,-1.125 3.375,0 z m 1.5,0 0,1.125 -1.125,0 0,-1.125 1.125,0 z m 1.5,0 0,1.125 -1.125,0 0,-1.125 1.125,0 z m 1.5,0 0,1.125 -1.125,0 0,-1.125 1.125,0 z m 1.5,0 0,1.125 -1.125,0 0,-1.125 1.125,0 z m 3.75,0 0,1.125 -3.375,0 0,-1.125 3.375,0 z m 1.5,0 0,1.125 -1.125,0 0,-1.125 1.125,0 z m 1.5,0 0,1.125 -1.125,0 0,-1.125 1.125,0 z m 1.5,0 0,1.125 -1.125,0 0,-1.125 1.125,0 z m 1.5,0 0,1.125 -1.125,0 0,-1.125 1.125,0 z m 3.75,0 0,1.125 -3.375,0 0,-1.125 3.375,0 z m 1.5,0 0,1.125 -1.125,0 0,-1.125 1.125,0 z m 1.5,0 0,1.125 -1.125,0 0,-1.125 1.125,0 z m 1.5,0 0,1.125 -1.125,0 0,-1.125 1.125,0 z m 1.5,0 0,1.125 -1.125,0 0,-1.125 1.125,0 z m -72.75,1.5 0,3.375 -1.125,0 0,-3.375 1.125,0 z m 1.5,0 0,3.375 -1.125,0 0,-3.375 1.125,0 z m 1.5,0 0,3.375 -1.125,0 0,-3.375 1.125,0 z m 1.5,0 0,3.375 -1.125,0 0,-3.375 1.125,0 z m 3.75,0 0,3.375 -3.375,0 0,-3.375 3.375,0 z m 1.5,0 0,3.375 -1.125,0 0,-3.375 1.125,0 z m 1.5,0 0,3.375 -1.125,0 0,-3.375 1.125,0 z m 1.5,0 0,3.375 -1.125,0 0,-3.375 1.125,0 z m 1.5,0 0,3.375 -1.125,0 0,-3.375 1.125,0 z m 3.75,0 0,3.375 -3.375,0 0,-3.375 3.375,0 z m 1.5,0 0,3.375 -1.125,0 0,-3.375 1.125,0 z m 1.5,0 0,3.375 -1.125,0 0,-3.375 1.125,0 z m 1.5,0 0,3.375 -1.125,0 0,-3.375 1.125,0 z m 1.5,0 0,3.375 -1.125,0 0,-3.375 1.125,0 z m 3.75,0 0,3.375 -3.375,0 0,-3.375 3.375,0 z m 1.5,0 0,3.375 -1.125,0 0,-3.375 1.125,0 z m 1.5,0 0,3.375 -1.125,0 0,-3.375 1.125,0 z m 1.5,0 0,3.375 -1.125,0 0,-3.375 1.125,0 z m 1.5,0 0,3.375 -1.125,0 0,-3.375 1.125,0 z m 3.75,0 0,3.375 -3.375,0 0,-3.375 3.375,0 z m 1.5,0 0,3.375 -1.125,0 0,-3.375 1.125,0 z m 1.5,0 0,3.375 -1.125,0 0,-3.375 1.125,0 z m 1.5,0 0,3.375 -1.125,0 0,-3.375 1.125,0 z m 1.5,0 0,3.375 -1.125,0 0,-3.375 1.125,0 z m 3.75,0 0,3.375 -3.375,0 0,-3.375 3.375,0 z m 1.5,0 0,3.375 -1.125,0 0,-3.375 1.125,0 z m 1.5,0 0,3.375 -1.125,0 0,-3.375 1.125,0 z m 1.5,0 0,3.375 -1.125,0 0,-3.375 1.125,0 z m 1.5,0 0,3.375 -1.125,0 0,-3.375 1.125,0 z m 3.75,0 0,3.375 -3.375,0 0,-3.375 3.375,0 z m 1.5,0 0,3.375 -1.125,0 0,-3.375 1.125,0 z m 1.5,0 0,3.375 -1.125,0 0,-3.375 1.125,0 z m 1.5,0 0,3.375 -1.125,0 0,-3.375 1.125,0 z m 1.5,0 0,3.375 -1.125,0 0,-3.375 1.125,0 z m 3.75,0 0,3.375 -3.375,0 0,-3.375 3.375,0 z m 1.5,0 0,3.375 -1.125,0 0,-3.375 1.125,0 z m 1.5,0 0,3.375 -1.125,0 0,-3.375 1.125,0 z m 1.5,0 0,3.375 -1.125,0 0,-3.375 1.125,0 z m 1.5,0 0,3.375 -1.125,0 0,-3.375 1.125,0 z m -72.75,3.75 0,1.125 -1.125,0 0,-1.125 1.125,0 z m 1.5,0 0,1.125 -1.125,0 0,-1.125 1.125,0 z m 1.5,0 0,1.125 -1.125,0 0,-1.125 1.125,0 z m 1.5,0 0,1.125 -1.125,0 0,-1.125 1.125,0 z m 3.75,0 0,1.125 -3.375,0 0,-1.125 3.375,0 z m 1.5,0 0,1.125 -1.125,0 0,-1.125 1.125,0 z m 1.5,0 0,1.125 -1.125,0 0,-1.125 1.125,0 z m 1.5,0 0,1.125 -1.125,0 0,-1.125 1.125,0 z m 1.5,0 0,1.125 -1.125,0 0,-1.125 1.125,0 z m 3.75,0 0,1.125 -3.375,0 0,-1.125 3.375,0 z m 1.5,0 0,1.125 -1.125,0 0,-1.125 1.125,0 z m 1.5,0 0,1.125 -1.125,0 0,-1.125 1.125,0 z m 1.5,0 0,1.125 -1.125,0 0,-1.125 1.125,0 z m 1.5,0 0,1.125 -1.125,0 0,-1.125 1.125,0 z m 3.75,0 0,1.125 -3.375,0 0,-1.125 3.375,0 z m 1.5,0 0,1.125 -1.125,0 0,-1.125 1.125,0 z m 1.5,0 0,1.125 -1.125,0 0,-1.125 1.125,0 z m 1.5,0 0,1.125 -1.125,0 0,-1.125 1.125,0 z m 1.5,0 0,1.125 -1.125,0 0,-1.125 1.125,0 z m 3.75,0 0,1.125 -3.375,0 0,-1.125 3.375,0 z m 1.5,0 0,1.125 -1.125,0 0,-1.125 1.125,0 z m 1.5,0 0,1.125 -1.125,0 0,-1.125 1.125,0 z m 1.5,0 0,1.125 -1.125,0 0,-1.125 1.125,0 z m 1.5,0 0,1.125 -1.125,0 0,-1.125 1.125,0 z m 3.75,0 0,1.125 -3.375,0 0,-1.125 3.375,0 z m 1.5,0 0,1.125 -1.125,0 0,-1.125 1.125,0 z m 1.5,0 0,1.125 -1.125,0 0,-1.125 1.125,0 z m 1.5,0 0,1.125 -1.125,0 0,-1.125 1.125,0 z m 1.5,0 0,1.125 -1.125,0 0,-1.125 1.125,0 z m 3.75,0 0,1.125 -3.375,0 0,-1.125 3.375,0 z m 1.5,0 0,1.125 -1.125,0 0,-1.125 1.125,0 z m 1.5,0 0,1.125 -1.125,0 0,-1.125 1.125,0 z m 1.5,0 0,1.125 -1.125,0 0,-1.125 1.125,0 z m 1.5,0 0,1.125 -1.125,0 0,-1.125 1.125,0 z m 3.75,0 0,1.125 -3.375,0 0,-1.125 3.375,0 z m 1.5,0 0,1.125 -1.125,0 0,-1.125 1.125,0 z m 1.5,0 0,1.125 -1.125,0 0,-1.125 1.125,0 z m 1.5,0 0,1.125 -1.125,0 0,-1.125 1.125,0 z m 1.5,0 0,1.125 -1.125,0 0,-1.125 1.125,0 z m -72.75,1.5 0,1.125 -1.125,0 0,-1.125 1.125,0 z m 1.5,0 0,1.125 -1.125,0 0,-1.125 1.125,0 z m 1.5,0 0,1.125 -1.125,0 0,-1.125 1.125,0 z m 1.5,0 0,1.125 -1.125,0 0,-1.125 1.125,0 z m 3.75,0 0,1.125 -3.375,0 0,-1.125 3.375,0 z m 1.5,0 0,1.125 -1.125,0 0,-1.125 1.125,0 z m 1.5,0 0,1.125 -1.125,0 0,-1.125 1.125,0 z m 1.5,0 0,1.125 -1.125,0 0,-1.125 1.125,0 z m 1.5,0 0,1.125 -1.125,0 0,-1.125 1.125,0 z m 3.75,0 0,1.125 -3.375,0 0,-1.125 3.375,0 z m 1.5,0 0,1.125 -1.125,0 0,-1.125 1.125,0 z m 1.5,0 0,1.125 -1.125,0 0,-1.125 1.125,0 z m 1.5,0 0,1.125 -1.125,0 0,-1.125 1.125,0 z m 1.5,0 0,1.125 -1.125,0 0,-1.125 1.125,0 z m 3.75,0 0,1.125 -3.375,0 0,-1.125 3.375,0 z m 1.5,0 0,1.125 -1.125,0 0,-1.125 1.125,0 z m 1.5,0 0,1.125 -1.125,0 0,-1.125 1.125,0 z m 1.5,0 0,1.125 -1.125,0 0,-1.125 1.125,0 z m 1.5,0 0,1.125 -1.125,0 0,-1.125 1.125,0 z m 3.75,0 0,1.125 -3.375,0 0,-1.125 3.375,0 z m 1.5,0 0,1.125 -1.125,0 0,-1.125 1.125,0 z m 1.5,0 0,1.125 -1.125,0 0,-1.125 1.125,0 z m 1.5,0 0,1.125 -1.125,0 0,-1.125 1.125,0 z m 1.5,0 0,1.125 -1.125,0 0,-1.125 1.125,0 z m 3.75,0 0,1.125 -3.375,0 0,-1.125 3.375,0 z m 1.5,0 0,1.125 -1.125,0 0,-1.125 1.125,0 z m 1.5,0 0,1.125 -1.125,0 0,-1.125 1.125,0 z m 1.5,0 0,1.125 -1.125,0 0,-1.125 1.125,0 z m 1.5,0 0,1.125 -1.125,0 0,-1.125 1.125,0 z m 3.75,0 0,1.125 -3.375,0 0,-1.125 3.375,0 z m 1.5,0 0,1.125 -1.125,0 0,-1.125 1.125,0 z m 1.5,0 0,1.125 -1.125,0 0,-1.125 1.125,0 z m 1.5,0 0,1.125 -1.125,0 0,-1.125 1.125,0 z m 1.5,0 0,1.125 -1.125,0 0,-1.125 1.125,0 z m 3.75,0 0,1.125 -3.375,0 0,-1.125 3.375,0 z m 1.5,0 0,1.125 -1.125,0 0,-1.125 1.125,0 z m 1.5,0 0,1.125 -1.125,0 0,-1.125 1.125,0 z m 1.5,0 0,1.125 -1.125,0 0,-1.125 1.125,0 z m 1.5,0 0,1.125 -1.125,0 0,-1.125 1.125,0 z m -72.75,1.5 0,1.125 -1.125,0 0,-1.125 1.125,0 z m 1.5,0 0,1.125 -1.125,0 0,-1.125 1.125,0 z m 1.5,0 0,1.125 -1.125,0 0,-1.125 1.125,0 z m 1.5,0 0,1.125 -1.125,0 0,-1.125 1.125,0 z m 3.75,0 0,1.125 -3.375,0 0,-1.125 3.375,0 z m 1.5,0 0,1.125 -1.125,0 0,-1.125 1.125,0 z m 1.5,0 0,1.125 -1.125,0 0,-1.125 1.125,0 z m 1.5,0 0,1.125 -1.125,0 0,-1.125 1.125,0 z m 1.5,0 0,1.125 -1.125,0 0,-1.125 1.125,0 z m 3.75,0 0,1.125 -3.375,0 0,-1.125 3.375,0 z m 1.5,0 0,1.125 -1.125,0 0,-1.125 1.125,0 z m 1.5,0 0,1.125 -1.125,0 0,-1.125 1.125,0 z m 1.5,0 0,1.125 -1.125,0 0,-1.125 1.125,0 z m 1.5,0 0,1.125 -1.125,0 0,-1.125 1.125,0 z m 3.75,0 0,1.125 -3.375,0 0,-1.125 3.375,0 z m 1.5,0 0,1.125 -1.125,0 0,-1.125 1.125,0 z m 1.5,0 0,1.125 -1.125,0 0,-1.125 1.125,0 z m 1.5,0 0,1.125 -1.125,0 0,-1.125 1.125,0 z m 1.5,0 0,1.125 -1.125,0 0,-1.125 1.125,0 z m 3.75,0 0,1.125 -3.375,0 0,-1.125 3.375,0 z m 1.5,0 0,1.125 -1.125,0 0,-1.125 1.125,0 z m 1.5,0 0,1.125 -1.125,0 0,-1.125 1.125,0 z m 1.5,0 0,1.125 -1.125,0 0,-1.125 1.125,0 z m 1.5,0 0,1.125 -1.125,0 0,-1.125 1.125,0 z m 3.75,0 0,1.125 -3.375,0 0,-1.125 3.375,0 z m 1.5,0 0,1.125 -1.125,0 0,-1.125 1.125,0 z m 1.5,0 0,1.125 -1.125,0 0,-1.125 1.125,0 z m 1.5,0 0,1.125 -1.125,0 0,-1.125 1.125,0 z m 1.5,0 0,1.125 -1.125,0 0,-1.125 1.125,0 z m 3.75,0 0,1.125 -3.375,0 0,-1.125 3.375,0 z m 1.5,0 0,1.125 -1.125,0 0,-1.125 1.125,0 z m 1.5,0 0,1.125 -1.125,0 0,-1.125 1.125,0 z m 1.5,0 0,1.125 -1.125,0 0,-1.125 1.125,0 z m 1.5,0 0,1.125 -1.125,0 0,-1.125 1.125,0 z m 3.75,0 0,1.125 -3.375,0 0,-1.125 3.375,0 z m 1.5,0 0,1.125 -1.125,0 0,-1.125 1.125,0 z m 1.5,0 0,1.125 -1.125,0 0,-1.125 1.125,0 z m 1.5,0 0,1.125 -1.125,0 0,-1.125 1.125,0 z m 1.5,0 0,1.125 -1.125,0 0,-1.125 1.125,0 z m -72.75,1.5 0,1.125 -1.125,0 0,-1.125 1.125,0 z m 1.5,0 0,1.125 -1.125,0 0,-1.125 1.125,0 z m 1.5,0 0,1.125 -1.125,0 0,-1.125 1.125,0 z m 1.5,0 0,1.125 -1.125,0 0,-1.125 1.125,0 z m 3.75,0 0,1.125 -3.375,0 0,-1.125 3.375,0 z m 1.5,0 0,1.125 -1.125,0 0,-1.125 1.125,0 z m 1.5,0 0,1.125 -1.125,0 0,-1.125 1.125,0 z m 1.5,0 0,1.125 -1.125,0 0,-1.125 1.125,0 z m 1.5,0 0,1.125 -1.125,0 0,-1.125 1.125,0 z m 3.75,0 0,1.125 -3.375,0 0,-1.125 3.375,0 z m 1.5,0 0,1.125 -1.125,0 0,-1.125 1.125,0 z m 1.5,0 0,1.125 -1.125,0 0,-1.125 1.125,0 z m 1.5,0 0,1.125 -1.125,0 0,-1.125 1.125,0 z m 1.5,0 0,1.125 -1.125,0 0,-1.125 1.125,0 z m 3.75,0 0,1.125 -3.375,0 0,-1.125 3.375,0 z m 1.5,0 0,1.125 -1.125,0 0,-1.125 1.125,0 z m 1.5,0 0,1.125 -1.125,0 0,-1.125 1.125,0 z m 1.5,0 0,1.125 -1.125,0 0,-1.125 1.125,0 z m 1.5,0 0,1.125 -1.125,0 0,-1.125 1.125,0 z m 3.75,0 0,1.125 -3.375,0 0,-1.125 3.375,0 z m 1.5,0 0,1.125 -1.125,0 0,-1.125 1.125,0 z m 1.5,0 0,1.125 -1.125,0 0,-1.125 1.125,0 z m 1.5,0 0,1.125 -1.125,0 0,-1.125 1.125,0 z m 1.5,0 0,1.125 -1.125,0 0,-1.125 1.125,0 z m 3.75,0 0,1.125 -3.375,0 0,-1.125 3.375,0 z m 1.5,0 0,1.125 -1.125,0 0,-1.125 1.125,0 z m 1.5,0 0,1.125 -1.125,0 0,-1.125 1.125,0 z m 1.5,0 0,1.125 -1.125,0 0,-1.125 1.125,0 z m 1.5,0 0,1.125 -1.125,0 0,-1.125 1.125,0 z m 3.75,0 0,1.125 -3.375,0 0,-1.125 3.375,0 z m 1.5,0 0,1.125 -1.125,0 0,-1.125 1.125,0 z m 1.5,0 0,1.125 -1.125,0 0,-1.125 1.125,0 z m 1.5,0 0,1.125 -1.125,0 0,-1.125 1.125,0 z m 1.5,0 0,1.125 -1.125,0 0,-1.125 1.125,0 z m 3.75,0 0,1.125 -3.375,0 0,-1.125 3.375,0 z m 1.5,0 0,1.125 -1.125,0 0,-1.125 1.125,0 z m 1.5,0 0,1.125 -1.125,0 0,-1.125 1.125,0 z m 1.5,0 0,1.125 -1.125,0 0,-1.125 1.125,0 z m 1.5,0 0,1.125 -1.125,0 0,-1.125 1.125,0 z m -72.75,1.5 0,3.375 -1.125,0 0,-3.375 1.125,0 z m 1.5,0 0,3.375 -1.125,0 0,-3.375 1.125,0 z m 1.5,0 0,3.375 -1.125,0 0,-3.375 1.125,0 z m 1.5,0 0,3.375 -1.125,0 0,-3.375 1.125,0 z m 3.75,0 0,3.375 -3.375,0 0,-3.375 3.375,0 z m 1.5,0 0,3.375 -1.125,0 0,-3.375 1.125,0 z m 1.5,0 0,3.375 -1.125,0 0,-3.375 1.125,0 z m 1.5,0 0,3.375 -1.125,0 0,-3.375 1.125,0 z m 1.5,0 0,3.375 -1.125,0 0,-3.375 1.125,0 z m 3.75,0 0,3.375 -3.375,0 0,-3.375 3.375,0 z m 1.5,0 0,3.375 -1.125,0 0,-3.375 1.125,0 z m 1.5,0 0,3.375 -1.125,0 0,-3.375 1.125,0 z m 1.5,0 0,3.375 -1.125,0 0,-3.375 1.125,0 z m 1.5,0 0,3.375 -1.125,0 0,-3.375 1.125,0 z m 3.75,0 0,3.375 -3.375,0 0,-3.375 3.375,0 z m 1.5,0 0,3.375 -1.125,0 0,-3.375 1.125,0 z m 1.5,0 0,3.375 -1.125,0 0,-3.375 1.125,0 z m 1.5,0 0,3.375 -1.125,0 0,-3.375 1.125,0 z m 1.5,0 0,3.375 -1.125,0 0,-3.375 1.125,0 z m 3.75,0 0,3.375 -3.375,0 0,-3.375 3.375,0 z m 1.5,0 0,3.375 -1.125,0 0,-3.375 1.125,0 z m 1.5,0 0,3.375 -1.125,0 0,-3.375 1.125,0 z m 1.5,0 0,3.375 -1.125,0 0,-3.375 1.125,0 z m 1.5,0 0,3.375 -1.125,0 0,-3.375 1.125,0 z m 3.75,0 0,3.375 -3.375,0 0,-3.375 3.375,0 z m 1.5,0 0,3.375 -1.125,0 0,-3.375 1.125,0 z m 1.5,0 0,3.375 -1.125,0 0,-3.375 1.125,0 z m 1.5,0 0,3.375 -1.125,0 0,-3.375 1.125,0 z m 1.5,0 0,3.375 -1.125,0 0,-3.375 1.125,0 z m 3.75,0 0,3.375 -3.375,0 0,-3.375 3.375,0 z m 1.5,0 0,3.375 -1.125,0 0,-3.375 1.125,0 z m 1.5,0 0,3.375 -1.125,0 0,-3.375 1.125,0 z m 1.5,0 0,3.375 -1.125,0 0,-3.375 1.125,0 z m 1.5,0 0,3.375 -1.125,0 0,-3.375 1.125,0 z m 3.75,0 0,3.375 -3.375,0 0,-3.375 3.375,0 z m 1.5,0 0,3.375 -1.125,0 0,-3.375 1.125,0 z m 1.5,0 0,3.375 -1.125,0 0,-3.375 1.125,0 z m 1.5,0 0,3.375 -1.125,0 0,-3.375 1.125,0 z m 1.5,0 0,3.375 -1.125,0 0,-3.375 1.125,0 z m -72.75,3.75 0,1.125 -1.125,0 0,-1.125 1.125,0 z m 1.5,0 0,1.125 -1.125,0 0,-1.125 1.125,0 z m 1.5,0 0,1.125 -1.125,0 0,-1.125 1.125,0 z m 1.5,0 0,1.125 -1.125,0 0,-1.125 1.125,0 z m 3.75,0 0,1.125 -3.375,0 0,-1.125 3.375,0 z m 1.5,0 0,1.125 -1.125,0 0,-1.125 1.125,0 z m 1.5,0 0,1.125 -1.125,0 0,-1.125 1.125,0 z m 1.5,0 0,1.125 -1.125,0 0,-1.125 1.125,0 z m 1.5,0 0,1.125 -1.125,0 0,-1.125 1.125,0 z m 3.75,0 0,1.125 -3.375,0 0,-1.125 3.375,0 z m 1.5,0 0,1.125 -1.125,0 0,-1.125 1.125,0 z m 1.5,0 0,1.125 -1.125,0 0,-1.125 1.125,0 z m 1.5,0 0,1.125 -1.125,0 0,-1.125 1.125,0 z m 1.5,0 0,1.125 -1.125,0 0,-1.125 1.125,0 z m 3.75,0 0,1.125 -3.375,0 0,-1.125 3.375,0 z m 1.5,0 0,1.125 -1.125,0 0,-1.125 1.125,0 z m 1.5,0 0,1.125 -1.125,0 0,-1.125 1.125,0 z m 1.5,0 0,1.125 -1.125,0 0,-1.125 1.125,0 z m 1.5,0 0,1.125 -1.125,0 0,-1.125 1.125,0 z m 3.75,0 0,1.125 -3.375,0 0,-1.125 3.375,0 z m 1.5,0 0,1.125 -1.125,0 0,-1.125 1.125,0 z m 1.5,0 0,1.125 -1.125,0 0,-1.125 1.125,0 z m 1.5,0 0,1.125 -1.125,0 0,-1.125 1.125,0 z m 1.5,0 0,1.125 -1.125,0 0,-1.125 1.125,0 z m 3.75,0 0,1.125 -3.375,0 0,-1.125 3.375,0 z m 1.5,0 0,1.125 -1.125,0 0,-1.125 1.125,0 z m 1.5,0 0,1.125 -1.125,0 0,-1.125 1.125,0 z m 1.5,0 0,1.125 -1.125,0 0,-1.125 1.125,0 z m 1.5,0 0,1.125 -1.125,0 0,-1.125 1.125,0 z m 3.75,0 0,1.125 -3.375,0 0,-1.125 3.375,0 z m 1.5,0 0,1.125 -1.125,0 0,-1.125 1.125,0 z m 1.5,0 0,1.125 -1.125,0 0,-1.125 1.125,0 z m 1.5,0 0,1.125 -1.125,0 0,-1.125 1.125,0 z m 1.5,0 0,1.125 -1.125,0 0,-1.125 1.125,0 z m 3.75,0 0,1.125 -3.375,0 0,-1.125 3.375,0 z m 1.5,0 0,1.125 -1.125,0 0,-1.125 1.125,0 z m 1.5,0 0,1.125 -1.125,0 0,-1.125 1.125,0 z m 1.5,0 0,1.125 -1.125,0 0,-1.125 1.125,0 z m 1.5,0 0,1.125 -1.125,0 0,-1.125 1.125,0 z m -72.75,1.5 0,1.125 -1.125,0 0,-1.125 1.125,0 z m 1.5,0 0,1.125 -1.125,0 0,-1.125 1.125,0 z m 1.5,0 0,1.125 -1.125,0 0,-1.125 1.125,0 z m 1.5,0 0,1.125 -1.125,0 0,-1.125 1.125,0 z m 3.75,0 0,1.125 -3.375,0 0,-1.125 3.375,0 z m 1.5,0 0,1.125 -1.125,0 0,-1.125 1.125,0 z m 1.5,0 0,1.125 -1.125,0 0,-1.125 1.125,0 z m 1.5,0 0,1.125 -1.125,0 0,-1.125 1.125,0 z m 1.5,0 0,1.125 -1.125,0 0,-1.125 1.125,0 z m 3.75,0 0,1.125 -3.375,0 0,-1.125 3.375,0 z m 1.5,0 0,1.125 -1.125,0 0,-1.125 1.125,0 z m 1.5,0 0,1.125 -1.125,0 0,-1.125 1.125,0 z m 1.5,0 0,1.125 -1.125,0 0,-1.125 1.125,0 z m 1.5,0 0,1.125 -1.125,0 0,-1.125 1.125,0 z m 3.75,0 0,1.125 -3.375,0 0,-1.125 3.375,0 z m 1.5,0 0,1.125 -1.125,0 0,-1.125 1.125,0 z m 1.5,0 0,1.125 -1.125,0 0,-1.125 1.125,0 z m 1.5,0 0,1.125 -1.125,0 0,-1.125 1.125,0 z m 1.5,0 0,1.125 -1.125,0 0,-1.125 1.125,0 z m 3.75,0 0,1.125 -3.375,0 0,-1.125 3.375,0 z m 1.5,0 0,1.125 -1.125,0 0,-1.125 1.125,0 z m 1.5,0 0,1.125 -1.125,0 0,-1.125 1.125,0 z m 1.5,0 0,1.125 -1.125,0 0,-1.125 1.125,0 z m 1.5,0 0,1.125 -1.125,0 0,-1.125 1.125,0 z m 3.75,0 0,1.125 -3.375,0 0,-1.125 3.375,0 z m 1.5,0 0,1.125 -1.125,0 0,-1.125 1.125,0 z m 1.5,0 0,1.125 -1.125,0 0,-1.125 1.125,0 z m 1.5,0 0,1.125 -1.125,0 0,-1.125 1.125,0 z m 1.5,0 0,1.125 -1.125,0 0,-1.125 1.125,0 z m 3.75,0 0,1.125 -3.375,0 0,-1.125 3.375,0 z m 1.5,0 0,1.125 -1.125,0 0,-1.125 1.125,0 z m 1.5,0 0,1.125 -1.125,0 0,-1.125 1.125,0 z m 1.5,0 0,1.125 -1.125,0 0,-1.125 1.125,0 z m 1.5,0 0,1.125 -1.125,0 0,-1.125 1.125,0 z m 3.75,0 0,1.125 -3.375,0 0,-1.125 3.375,0 z m 1.5,0 0,1.125 -1.125,0 0,-1.125 1.125,0 z m 1.5,0 0,1.125 -1.125,0 0,-1.125 1.125,0 z m 1.5,0 0,1.125 -1.125,0 0,-1.125 1.125,0 z m 1.5,0 0,1.125 -1.125,0 0,-1.125 1.125,0 z m -72.75,1.5 0,1.125 -1.125,0 0,-1.125 1.125,0 z m 1.5,0 0,1.125 -1.125,0 0,-1.125 1.125,0 z m 1.5,0 0,1.125 -1.125,0 0,-1.125 1.125,0 z m 1.5,0 0,1.125 -1.125,0 0,-1.125 1.125,0 z m 3.75,0 0,1.125 -3.375,0 0,-1.125 3.375,0 z m 1.5,0 0,1.125 -1.125,0 0,-1.125 1.125,0 z m 1.5,0 0,1.125 -1.125,0 0,-1.125 1.125,0 z m 1.5,0 0,1.125 -1.125,0 0,-1.125 1.125,0 z m 1.5,0 0,1.125 -1.125,0 0,-1.125 1.125,0 z m 3.75,0 0,1.125 -3.375,0 0,-1.125 3.375,0 z m 1.5,0 0,1.125 -1.125,0 0,-1.125 1.125,0 z m 1.5,0 0,1.125 -1.125,0 0,-1.125 1.125,0 z m 1.5,0 0,1.125 -1.125,0 0,-1.125 1.125,0 z m 1.5,0 0,1.125 -1.125,0 0,-1.125 1.125,0 z m 3.75,0 0,1.125 -3.375,0 0,-1.125 3.375,0 z m 1.5,0 0,1.125 -1.125,0 0,-1.125 1.125,0 z m 1.5,0 0,1.125 -1.125,0 0,-1.125 1.125,0 z m 1.5,0 0,1.125 -1.125,0 0,-1.125 1.125,0 z m 1.5,0 0,1.125 -1.125,0 0,-1.125 1.125,0 z m 3.75,0 0,1.125 -3.375,0 0,-1.125 3.375,0 z m 1.5,0 0,1.125 -1.125,0 0,-1.125 1.125,0 z m 1.5,0 0,1.125 -1.125,0 0,-1.125 1.125,0 z m 1.5,0 0,1.125 -1.125,0 0,-1.125 1.125,0 z m 1.5,0 0,1.125 -1.125,0 0,-1.125 1.125,0 z m 3.75,0 0,1.125 -3.375,0 0,-1.125 3.375,0 z m 1.5,0 0,1.125 -1.125,0 0,-1.125 1.125,0 z m 1.5,0 0,1.125 -1.125,0 0,-1.125 1.125,0 z m 1.5,0 0,1.125 -1.125,0 0,-1.125 1.125,0 z m 1.5,0 0,1.125 -1.125,0 0,-1.125 1.125,0 z m 3.75,0 0,1.125 -3.375,0 0,-1.125 3.375,0 z m 1.5,0 0,1.125 -1.125,0 0,-1.125 1.125,0 z m 1.5,0 0,1.125 -1.125,0 0,-1.125 1.125,0 z m 1.5,0 0,1.125 -1.125,0 0,-1.125 1.125,0 z m 1.5,0 0,1.125 -1.125,0 0,-1.125 1.125,0 z m 3.75,0 0,1.125 -3.375,0 0,-1.125 3.375,0 z m 1.5,0 0,1.125 -1.125,0 0,-1.125 1.125,0 z m 1.5,0 0,1.125 -1.125,0 0,-1.125 1.125,0 z m 1.5,0 0,1.125 -1.125,0 0,-1.125 1.125,0 z m 1.5,0 0,1.125 -1.125,0 0,-1.125 1.125,0 z m -72.75,1.5 0,1.125 -1.125,0 0,-1.125 1.125,0 z m 1.5,0 0,1.125 -1.125,0 0,-1.125 1.125,0 z m 1.5,0 0,1.125 -1.125,0 0,-1.125 1.125,0 z m 1.5,0 0,1.125 -1.125,0 0,-1.125 1.125,0 z m 3.75,0 0,1.125 -3.375,0 0,-1.125 3.375,0 z m 1.5,0 0,1.125 -1.125,0 0,-1.125 1.125,0 z m 1.5,0 0,1.125 -1.125,0 0,-1.125 1.125,0 z m 1.5,0 0,1.125 -1.125,0 0,-1.125 1.125,0 z m 1.5,0 0,1.125 -1.125,0 0,-1.125 1.125,0 z m 3.75,0 0,1.125 -3.375,0 0,-1.125 3.375,0 z m 1.5,0 0,1.125 -1.125,0 0,-1.125 1.125,0 z m 1.5,0 0,1.125 -1.125,0 0,-1.125 1.125,0 z m 1.5,0 0,1.125 -1.125,0 0,-1.125 1.125,0 z m 1.5,0 0,1.125 -1.125,0 0,-1.125 1.125,0 z m 3.75,0 0,1.125 -3.375,0 0,-1.125 3.375,0 z m 1.5,0 0,1.125 -1.125,0 0,-1.125 1.125,0 z m 1.5,0 0,1.125 -1.125,0 0,-1.125 1.125,0 z m 1.5,0 0,1.125 -1.125,0 0,-1.125 1.125,0 z m 1.5,0 0,1.125 -1.125,0 0,-1.125 1.125,0 z m 3.75,0 0,1.125 -3.375,0 0,-1.125 3.375,0 z m 1.5,0 0,1.125 -1.125,0 0,-1.125 1.125,0 z m 1.5,0 0,1.125 -1.125,0 0,-1.125 1.125,0 z m 1.5,0 0,1.125 -1.125,0 0,-1.125 1.125,0 z m 1.5,0 0,1.125 -1.125,0 0,-1.125 1.125,0 z m 3.75,0 0,1.125 -3.375,0 0,-1.125 3.375,0 z m 1.5,0 0,1.125 -1.125,0 0,-1.125 1.125,0 z m 1.5,0 0,1.125 -1.125,0 0,-1.125 1.125,0 z m 1.5,0 0,1.125 -1.125,0 0,-1.125 1.125,0 z m 1.5,0 0,1.125 -1.125,0 0,-1.125 1.125,0 z m 3.75,0 0,1.125 -3.375,0 0,-1.125 3.375,0 z m 1.5,0 0,1.125 -1.125,0 0,-1.125 1.125,0 z m 1.5,0 0,1.125 -1.125,0 0,-1.125 1.125,0 z m 1.5,0 0,1.125 -1.125,0 0,-1.125 1.125,0 z m 1.5,0 0,1.125 -1.125,0 0,-1.125 1.125,0 z m 3.75,0 0,1.125 -3.375,0 0,-1.125 3.375,0 z m 1.5,0 0,1.125 -1.125,0 0,-1.125 1.125,0 z m 1.5,0 0,1.125 -1.125,0 0,-1.125 1.125,0 z m 1.5,0 0,1.125 -1.125,0 0,-1.125 1.125,0 z m 1.5,0 0,1.125 -1.125,0 0,-1.125 1.125,0 z m -72.75,1.5 0,3.375 -1.125,0 0,-3.375 1.125,0 z m 1.5,0 0,3.375 -1.125,0 0,-3.375 1.125,0 z m 1.5,0 0,3.375 -1.125,0 0,-3.375 1.125,0 z m 1.5,0 0,3.375 -1.125,0 0,-3.375 1.125,0 z m 3.75,0 0,3.375 -3.375,0 0,-3.375 3.375,0 z m 1.5,0 0,3.375 -1.125,0 0,-3.375 1.125,0 z m 1.5,0 0,3.375 -1.125,0 0,-3.375 1.125,0 z m 1.5,0 0,3.375 -1.125,0 0,-3.375 1.125,0 z m 1.5,0 0,3.375 -1.125,0 0,-3.375 1.125,0 z m 3.75,0 0,3.375 -3.375,0 0,-3.375 3.375,0 z m 1.5,0 0,3.375 -1.125,0 0,-3.375 1.125,0 z m 1.5,0 0,3.375 -1.125,0 0,-3.375 1.125,0 z m 1.5,0 0,3.375 -1.125,0 0,-3.375 1.125,0 z m 1.5,0 0,3.375 -1.125,0 0,-3.375 1.125,0 z m 3.75,0 0,3.375 -3.375,0 0,-3.375 3.375,0 z m 1.5,0 0,3.375 -1.125,0 0,-3.375 1.125,0 z m 1.5,0 0,3.375 -1.125,0 0,-3.375 1.125,0 z m 1.5,0 0,3.375 -1.125,0 0,-3.375 1.125,0 z m 1.5,0 0,3.375 -1.125,0 0,-3.375 1.125,0 z m 3.75,0 0,3.375 -3.375,0 0,-3.375 3.375,0 z m 1.5,0 0,3.375 -1.125,0 0,-3.375 1.125,0 z m 1.5,0 0,3.375 -1.125,0 0,-3.375 1.125,0 z m 1.5,0 0,3.375 -1.125,0 0,-3.375 1.125,0 z m 1.5,0 0,3.375 -1.125,0 0,-3.375 1.125,0 z m 3.75,0 0,3.375 -3.375,0 0,-3.375 3.375,0 z m 1.5,0 0,3.375 -1.125,0 0,-3.375 1.125,0 z m 1.5,0 0,3.375 -1.125,0 0,-3.375 1.125,0 z m 1.5,0 0,3.375 -1.125,0 0,-3.375 1.125,0 z m 1.5,0 0,3.375 -1.125,0 0,-3.375 1.125,0 z m 3.75,0 0,3.375 -3.375,0 0,-3.375 3.375,0 z m 1.5,0 0,3.375 -1.125,0 0,-3.375 1.125,0 z m 1.5,0 0,3.375 -1.125,0 0,-3.375 1.125,0 z m 1.5,0 0,3.375 -1.125,0 0,-3.375 1.125,0 z m 1.5,0 0,3.375 -1.125,0 0,-3.375 1.125,0 z m 3.75,0 0,3.375 -3.375,0 0,-3.375 3.375,0 z m 1.5,0 0,3.375 -1.125,0 0,-3.375 1.125,0 z m 1.5,0 0,3.375 -1.125,0 0,-3.375 1.125,0 z m 1.5,0 0,3.375 -1.125,0 0,-3.375 1.125,0 z m 1.5,0 0,3.375 -1.125,0 0,-3.375 1.125,0 z m -72.75,3.75 0,1.125 -1.125,0 0,-1.125 1.125,0 z m 1.5,0 0,1.125 -1.125,0 0,-1.125 1.125,0 z m 1.5,0 0,1.125 -1.125,0 0,-1.125 1.125,0 z m 1.5,0 0,1.125 -1.125,0 0,-1.125 1.125,0 z m 3.75,0 0,1.125 -3.375,0 0,-1.125 3.375,0 z m 1.5,0 0,1.125 -1.125,0 0,-1.125 1.125,0 z m 1.5,0 0,1.125 -1.125,0 0,-1.125 1.125,0 z m 1.5,0 0,1.125 -1.125,0 0,-1.125 1.125,0 z m 1.5,0 0,1.125 -1.125,0 0,-1.125 1.125,0 z m 3.75,0 0,1.125 -3.375,0 0,-1.125 3.375,0 z m 1.5,0 0,1.125 -1.125,0 0,-1.125 1.125,0 z m 1.5,0 0,1.125 -1.125,0 0,-1.125 1.125,0 z m 1.5,0 0,1.125 -1.125,0 0,-1.125 1.125,0 z m 1.5,0 0,1.125 -1.125,0 0,-1.125 1.125,0 z m 3.75,0 0,1.125 -3.375,0 0,-1.125 3.375,0 z m 1.5,0 0,1.125 -1.125,0 0,-1.125 1.125,0 z m 1.5,0 0,1.125 -1.125,0 0,-1.125 1.125,0 z m 1.5,0 0,1.125 -1.125,0 0,-1.125 1.125,0 z m 1.5,0 0,1.125 -1.125,0 0,-1.125 1.125,0 z m 3.75,0 0,1.125 -3.375,0 0,-1.125 3.375,0 z m 1.5,0 0,1.125 -1.125,0 0,-1.125 1.125,0 z m 1.5,0 0,1.125 -1.125,0 0,-1.125 1.125,0 z m 1.5,0 0,1.125 -1.125,0 0,-1.125 1.125,0 z m 1.5,0 0,1.125 -1.125,0 0,-1.125 1.125,0 z m 3.75,0 0,1.125 -3.375,0 0,-1.125 3.375,0 z m 1.5,0 0,1.125 -1.125,0 0,-1.125 1.125,0 z m 1.5,0 0,1.125 -1.125,0 0,-1.125 1.125,0 z m 1.5,0 0,1.125 -1.125,0 0,-1.125 1.125,0 z m 1.5,0 0,1.125 -1.125,0 0,-1.125 1.125,0 z m 3.75,0 0,1.125 -3.375,0 0,-1.125 3.375,0 z m 1.5,0 0,1.125 -1.125,0 0,-1.125 1.125,0 z m 1.5,0 0,1.125 -1.125,0 0,-1.125 1.125,0 z m 1.5,0 0,1.125 -1.125,0 0,-1.125 1.125,0 z m 1.5,0 0,1.125 -1.125,0 0,-1.125 1.125,0 z m 3.75,0 0,1.125 -3.375,0 0,-1.125 3.375,0 z m 1.5,0 0,1.125 -1.125,0 0,-1.125 1.125,0 z m 1.5,0 0,1.125 -1.125,0 0,-1.125 1.125,0 z m 1.5,0 0,1.125 -1.125,0 0,-1.125 1.125,0 z m 1.5,0 0,1.125 -1.125,0 0,-1.125 1.125,0 z m -72.75,1.5 0,1.125 -1.125,0 0,-1.125 1.125,0 z m 1.5,0 0,1.125 -1.125,0 0,-1.125 1.125,0 z m 1.5,0 0,1.125 -1.125,0 0,-1.125 1.125,0 z m 1.5,0 0,1.125 -1.125,0 0,-1.125 1.125,0 z m 3.75,0 0,1.125 -3.375,0 0,-1.125 3.375,0 z m 1.5,0 0,1.125 -1.125,0 0,-1.125 1.125,0 z m 1.5,0 0,1.125 -1.125,0 0,-1.125 1.125,0 z m 1.5,0 0,1.125 -1.125,0 0,-1.125 1.125,0 z m 1.5,0 0,1.125 -1.125,0 0,-1.125 1.125,0 z m 3.75,0 0,1.125 -3.375,0 0,-1.125 3.375,0 z m 1.5,0 0,1.125 -1.125,0 0,-1.125 1.125,0 z m 1.5,0 0,1.125 -1.125,0 0,-1.125 1.125,0 z m 1.5,0 0,1.125 -1.125,0 0,-1.125 1.125,0 z m 1.5,0 0,1.125 -1.125,0 0,-1.125 1.125,0 z m 3.75,0 0,1.125 -3.375,0 0,-1.125 3.375,0 z m 1.5,0 0,1.125 -1.125,0 0,-1.125 1.125,0 z m 1.5,0 0,1.125 -1.125,0 0,-1.125 1.125,0 z m 1.5,0 0,1.125 -1.125,0 0,-1.125 1.125,0 z m 1.5,0 0,1.125 -1.125,0 0,-1.125 1.125,0 z m 3.75,0 0,1.125 -3.375,0 0,-1.125 3.375,0 z m 1.5,0 0,1.125 -1.125,0 0,-1.125 1.125,0 z m 1.5,0 0,1.125 -1.125,0 0,-1.125 1.125,0 z m 1.5,0 0,1.125 -1.125,0 0,-1.125 1.125,0 z m 1.5,0 0,1.125 -1.125,0 0,-1.125 1.125,0 z m 3.75,0 0,1.125 -3.375,0 0,-1.125 3.375,0 z m 1.5,0 0,1.125 -1.125,0 0,-1.125 1.125,0 z m 1.5,0 0,1.125 -1.125,0 0,-1.125 1.125,0 z m 1.5,0 0,1.125 -1.125,0 0,-1.125 1.125,0 z m 1.5,0 0,1.125 -1.125,0 0,-1.125 1.125,0 z m 3.75,0 0,1.125 -3.375,0 0,-1.125 3.375,0 z m 1.5,0 0,1.125 -1.125,0 0,-1.125 1.125,0 z m 1.5,0 0,1.125 -1.125,0 0,-1.125 1.125,0 z m 1.5,0 0,1.125 -1.125,0 0,-1.125 1.125,0 z m 1.5,0 0,1.125 -1.125,0 0,-1.125 1.125,0 z m 3.75,0 0,1.125 -3.375,0 0,-1.125 3.375,0 z m 1.5,0 0,1.125 -1.125,0 0,-1.125 1.125,0 z m 1.5,0 0,1.125 -1.125,0 0,-1.125 1.125,0 z m 1.5,0 0,1.125 -1.125,0 0,-1.125 1.125,0 z m 1.5,0 0,1.125 -1.125,0 0,-1.125 1.125,0 z m -72.75,1.5 0,1.125 -1.125,0 0,-1.125 1.125,0 z m 1.5,0 0,1.125 -1.125,0 0,-1.125 1.125,0 z m 1.5,0 0,1.125 -1.125,0 0,-1.125 1.125,0 z m 1.5,0 0,1.125 -1.125,0 0,-1.125 1.125,0 z m 3.75,0 0,1.125 -3.375,0 0,-1.125 3.375,0 z m 1.5,0 0,1.125 -1.125,0 0,-1.125 1.125,0 z m 1.5,0 0,1.125 -1.125,0 0,-1.125 1.125,0 z m 1.5,0 0,1.125 -1.125,0 0,-1.125 1.125,0 z m 1.5,0 0,1.125 -1.125,0 0,-1.125 1.125,0 z m 3.75,0 0,1.125 -3.375,0 0,-1.125 3.375,0 z m 1.5,0 0,1.125 -1.125,0 0,-1.125 1.125,0 z m 1.5,0 0,1.125 -1.125,0 0,-1.125 1.125,0 z m 1.5,0 0,1.125 -1.125,0 0,-1.125 1.125,0 z m 1.5,0 0,1.125 -1.125,0 0,-1.125 1.125,0 z m 3.75,0 0,1.125 -3.375,0 0,-1.125 3.375,0 z m 1.5,0 0,1.125 -1.125,0 0,-1.125 1.125,0 z m 1.5,0 0,1.125 -1.125,0 0,-1.125 1.125,0 z m 1.5,0 0,1.125 -1.125,0 0,-1.125 1.125,0 z m 1.5,0 0,1.125 -1.125,0 0,-1.125 1.125,0 z m 3.75,0 0,1.125 -3.375,0 0,-1.125 3.375,0 z m 1.5,0 0,1.125 -1.125,0 0,-1.125 1.125,0 z m 1.5,0 0,1.125 -1.125,0 0,-1.125 1.125,0 z m 1.5,0 0,1.125 -1.125,0 0,-1.125 1.125,0 z m 1.5,0 0,1.125 -1.125,0 0,-1.125 1.125,0 z m 3.75,0 0,1.125 -3.375,0 0,-1.125 3.375,0 z m 1.5,0 0,1.125 -1.125,0 0,-1.125 1.125,0 z m 1.5,0 0,1.125 -1.125,0 0,-1.125 1.125,0 z m 1.5,0 0,1.125 -1.125,0 0,-1.125 1.125,0 z m 1.5,0 0,1.125 -1.125,0 0,-1.125 1.125,0 z m 3.75,0 0,1.125 -3.375,0 0,-1.125 3.375,0 z m 1.5,0 0,1.125 -1.125,0 0,-1.125 1.125,0 z m 1.5,0 0,1.125 -1.125,0 0,-1.125 1.125,0 z m 1.5,0 0,1.125 -1.125,0 0,-1.125 1.125,0 z m 1.5,0 0,1.125 -1.125,0 0,-1.125 1.125,0 z m 3.75,0 0,1.125 -3.375,0 0,-1.125 3.375,0 z m 1.5,0 0,1.125 -1.125,0 0,-1.125 1.125,0 z m 1.5,0 0,1.125 -1.125,0 0,-1.125 1.125,0 z m 1.5,0 0,1.125 -1.125,0 0,-1.125 1.125,0 z m 1.5,0 0,1.125 -1.125,0 0,-1.125 1.125,0 z m -72.75,1.5 0,1.125 -1.125,0 0,-1.125 1.125,0 z m 1.5,0 0,1.125 -1.125,0 0,-1.125 1.125,0 z m 1.5,0 0,1.125 -1.125,0 0,-1.125 1.125,0 z m 1.5,0 0,1.125 -1.125,0 0,-1.125 1.125,0 z m 3.75,0 0,1.125 -3.375,0 0,-1.125 3.375,0 z m 1.5,0 0,1.125 -1.125,0 0,-1.125 1.125,0 z m 1.5,0 0,1.125 -1.125,0 0,-1.125 1.125,0 z m 1.5,0 0,1.125 -1.125,0 0,-1.125 1.125,0 z m 1.5,0 0,1.125 -1.125,0 0,-1.125 1.125,0 z m 3.75,0 0,1.125 -3.375,0 0,-1.125 3.375,0 z m 1.5,0 0,1.125 -1.125,0 0,-1.125 1.125,0 z m 1.5,0 0,1.125 -1.125,0 0,-1.125 1.125,0 z m 1.5,0 0,1.125 -1.125,0 0,-1.125 1.125,0 z m 1.5,0 0,1.125 -1.125,0 0,-1.125 1.125,0 z m 3.75,0 0,1.125 -3.375,0 0,-1.125 3.375,0 z m 1.5,0 0,1.125 -1.125,0 0,-1.125 1.125,0 z m 1.5,0 0,1.125 -1.125,0 0,-1.125 1.125,0 z m 1.5,0 0,1.125 -1.125,0 0,-1.125 1.125,0 z m 1.5,0 0,1.125 -1.125,0 0,-1.125 1.125,0 z m 3.75,0 0,1.125 -3.375,0 0,-1.125 3.375,0 z m 1.5,0 0,1.125 -1.125,0 0,-1.125 1.125,0 z m 1.5,0 0,1.125 -1.125,0 0,-1.125 1.125,0 z m 1.5,0 0,1.125 -1.125,0 0,-1.125 1.125,0 z m 1.5,0 0,1.125 -1.125,0 0,-1.125 1.125,0 z m 3.75,0 0,1.125 -3.375,0 0,-1.125 3.375,0 z m 1.5,0 0,1.125 -1.125,0 0,-1.125 1.125,0 z m 1.5,0 0,1.125 -1.125,0 0,-1.125 1.125,0 z m 1.5,0 0,1.125 -1.125,0 0,-1.125 1.125,0 z m 1.5,0 0,1.125 -1.125,0 0,-1.125 1.125,0 z m 3.75,0 0,1.125 -3.375,0 0,-1.125 3.375,0 z m 1.5,0 0,1.125 -1.125,0 0,-1.125 1.125,0 z m 1.5,0 0,1.125 -1.125,0 0,-1.125 1.125,0 z m 1.5,0 0,1.125 -1.125,0 0,-1.125 1.125,0 z m 1.5,0 0,1.125 -1.125,0 0,-1.125 1.125,0 z m 3.75,0 0,1.125 -3.375,0 0,-1.125 3.375,0 z m 1.5,0 0,1.125 -1.125,0 0,-1.125 1.125,0 z m 1.5,0 0,1.125 -1.125,0 0,-1.125 1.125,0 z m 1.5,0 0,1.125 -1.125,0 0,-1.125 1.125,0 z m 1.5,0 0,1.125 -1.125,0 0,-1.125 1.125,0 z m -72.75,1.5 0,3.375 -1.125,0 0,-3.375 1.125,0 z m 1.5,0 0,3.375 -1.125,0 0,-3.375 1.125,0 z m 1.5,0 0,3.375 -1.125,0 0,-3.375 1.125,0 z m 1.5,0 0,3.375 -1.125,0 0,-3.375 1.125,0 z m 3.75,0 0,3.375 -3.375,0 0,-3.375 3.375,0 z m 1.5,0 0,3.375 -1.125,0 0,-3.375 1.125,0 z m 1.5,0 0,3.375 -1.125,0 0,-3.375 1.125,0 z m 1.5,0 0,3.375 -1.125,0 0,-3.375 1.125,0 z m 1.5,0 0,3.375 -1.125,0 0,-3.375 1.125,0 z m 3.75,0 0,3.375 -3.375,0 0,-3.375 3.375,0 z m 1.5,0 0,3.375 -1.125,0 0,-3.375 1.125,0 z m 1.5,0 0,3.375 -1.125,0 0,-3.375 1.125,0 z m 1.5,0 0,3.375 -1.125,0 0,-3.375 1.125,0 z m 1.5,0 0,3.375 -1.125,0 0,-3.375 1.125,0 z m 3.75,0 0,3.375 -3.375,0 0,-3.375 3.375,0 z m 1.5,0 0,3.375 -1.125,0 0,-3.375 1.125,0 z m 1.5,0 0,3.375 -1.125,0 0,-3.375 1.125,0 z m 1.5,0 0,3.375 -1.125,0 0,-3.375 1.125,0 z m 1.5,0 0,3.375 -1.125,0 0,-3.375 1.125,0 z m 3.75,0 0,3.375 -3.375,0 0,-3.375 3.375,0 z m 1.5,0 0,3.375 -1.125,0 0,-3.375 1.125,0 z m 1.5,0 0,3.375 -1.125,0 0,-3.375 1.125,0 z m 1.5,0 0,3.375 -1.125,0 0,-3.375 1.125,0 z m 1.5,0 0,3.375 -1.125,0 0,-3.375 1.125,0 z m 3.75,0 0,3.375 -3.375,0 0,-3.375 3.375,0 z m 1.5,0 0,3.375 -1.125,0 0,-3.375 1.125,0 z m 1.5,0 0,3.375 -1.125,0 0,-3.375 1.125,0 z m 1.5,0 0,3.375 -1.125,0 0,-3.375 1.125,0 z m 1.5,0 0,3.375 -1.125,0 0,-3.375 1.125,0 z m 3.75,0 0,3.375 -3.375,0 0,-3.375 3.375,0 z m 1.5,0 0,3.375 -1.125,0 0,-3.375 1.125,0 z m 1.5,0 0,3.375 -1.125,0 0,-3.375 1.125,0 z m 1.5,0 0,3.375 -1.125,0 0,-3.375 1.125,0 z m 1.5,0 0,3.375 -1.125,0 0,-3.375 1.125,0 z m 3.75,0 0,3.375 -3.375,0 0,-3.375 3.375,0 z m 1.5,0 0,3.375 -1.125,0 0,-3.375 1.125,0 z m 1.5,0 0,3.375 -1.125,0 0,-3.375 1.125,0 z m 1.5,0 0,3.375 -1.125,0 0,-3.375 1.125,0 z m 1.5,0 0,3.375 -1.125,0 0,-3.375 1.125,0 z m -72.75,3.75 0,1.125 -1.125,0 0,-1.125 1.125,0 z m 1.5,0 0,1.125 -1.125,0 0,-1.125 1.125,0 z m 1.5,0 0,1.125 -1.125,0 0,-1.125 1.125,0 z m 1.5,0 0,1.125 -1.125,0 0,-1.125 1.125,0 z m 3.75,0 0,1.125 -3.375,0 0,-1.125 3.375,0 z m 1.5,0 0,1.125 -1.125,0 0,-1.125 1.125,0 z m 1.5,0 0,1.125 -1.125,0 0,-1.125 1.125,0 z m 1.5,0 0,1.125 -1.125,0 0,-1.125 1.125,0 z m 1.5,0 0,1.125 -1.125,0 0,-1.125 1.125,0 z m 3.75,0 0,1.125 -3.375,0 0,-1.125 3.375,0 z m 1.5,0 0,1.125 -1.125,0 0,-1.125 1.125,0 z m 1.5,0 0,1.125 -1.125,0 0,-1.125 1.125,0 z m 1.5,0 0,1.125 -1.125,0 0,-1.125 1.125,0 z m 1.5,0 0,1.125 -1.125,0 0,-1.125 1.125,0 z m 3.75,0 0,1.125 -3.375,0 0,-1.125 3.375,0 z m 1.5,0 0,1.125 -1.125,0 0,-1.125 1.125,0 z m 1.5,0 0,1.125 -1.125,0 0,-1.125 1.125,0 z m 1.5,0 0,1.125 -1.125,0 0,-1.125 1.125,0 z m 1.5,0 0,1.125 -1.125,0 0,-1.125 1.125,0 z m 3.75,0 0,1.125 -3.375,0 0,-1.125 3.375,0 z m 1.5,0 0,1.125 -1.125,0 0,-1.125 1.125,0 z m 1.5,0 0,1.125 -1.125,0 0,-1.125 1.125,0 z m 1.5,0 0,1.125 -1.125,0 0,-1.125 1.125,0 z m 1.5,0 0,1.125 -1.125,0 0,-1.125 1.125,0 z m 3.75,0 0,1.125 -3.375,0 0,-1.125 3.375,0 z m 1.5,0 0,1.125 -1.125,0 0,-1.125 1.125,0 z m 1.5,0 0,1.125 -1.125,0 0,-1.125 1.125,0 z m 1.5,0 0,1.125 -1.125,0 0,-1.125 1.125,0 z m 1.5,0 0,1.125 -1.125,0 0,-1.125 1.125,0 z m 3.75,0 0,1.125 -3.375,0 0,-1.125 3.375,0 z m 1.5,0 0,1.125 -1.125,0 0,-1.125 1.125,0 z m 1.5,0 0,1.125 -1.125,0 0,-1.125 1.125,0 z m 1.5,0 0,1.125 -1.125,0 0,-1.125 1.125,0 z m 1.5,0 0,1.125 -1.125,0 0,-1.125 1.125,0 z m 3.75,0 0,1.125 -3.375,0 0,-1.125 3.375,0 z m 1.5,0 0,1.125 -1.125,0 0,-1.125 1.125,0 z m 1.5,0 0,1.125 -1.125,0 0,-1.125 1.125,0 z m 1.5,0 0,1.125 -1.125,0 0,-1.125 1.125,0 z m 1.5,0 0,1.125 -1.125,0 0,-1.125 1.125,0 z m -72.75,1.5 0,1.125 -1.125,0 0,-1.125 1.125,0 z m 1.5,0 0,1.125 -1.125,0 0,-1.125 1.125,0 z m 1.5,0 0,1.125 -1.125,0 0,-1.125 1.125,0 z m 1.5,0 0,1.125 -1.125,0 0,-1.125 1.125,0 z m 3.75,0 0,1.125 -3.375,0 0,-1.125 3.375,0 z m 1.5,0 0,1.125 -1.125,0 0,-1.125 1.125,0 z m 1.5,0 0,1.125 -1.125,0 0,-1.125 1.125,0 z m 1.5,0 0,1.125 -1.125,0 0,-1.125 1.125,0 z m 1.5,0 0,1.125 -1.125,0 0,-1.125 1.125,0 z m 3.75,0 0,1.125 -3.375,0 0,-1.125 3.375,0 z m 1.5,0 0,1.125 -1.125,0 0,-1.125 1.125,0 z m 1.5,0 0,1.125 -1.125,0 0,-1.125 1.125,0 z m 1.5,0 0,1.125 -1.125,0 0,-1.125 1.125,0 z m 1.5,0 0,1.125 -1.125,0 0,-1.125 1.125,0 z m 3.75,0 0,1.125 -3.375,0 0,-1.125 3.375,0 z m 1.5,0 0,1.125 -1.125,0 0,-1.125 1.125,0 z m 1.5,0 0,1.125 -1.125,0 0,-1.125 1.125,0 z m 1.5,0 0,1.125 -1.125,0 0,-1.125 1.125,0 z m 1.5,0 0,1.125 -1.125,0 0,-1.125 1.125,0 z m 3.75,0 0,1.125 -3.375,0 0,-1.125 3.375,0 z m 1.5,0 0,1.125 -1.125,0 0,-1.125 1.125,0 z m 1.5,0 0,1.125 -1.125,0 0,-1.125 1.125,0 z m 1.5,0 0,1.125 -1.125,0 0,-1.125 1.125,0 z m 1.5,0 0,1.125 -1.125,0 0,-1.125 1.125,0 z m 3.75,0 0,1.125 -3.375,0 0,-1.125 3.375,0 z m 1.5,0 0,1.125 -1.125,0 0,-1.125 1.125,0 z m 1.5,0 0,1.125 -1.125,0 0,-1.125 1.125,0 z m 1.5,0 0,1.125 -1.125,0 0,-1.125 1.125,0 z m 1.5,0 0,1.125 -1.125,0 0,-1.125 1.125,0 z m 3.75,0 0,1.125 -3.375,0 0,-1.125 3.375,0 z m 1.5,0 0,1.125 -1.125,0 0,-1.125 1.125,0 z m 1.5,0 0,1.125 -1.125,0 0,-1.125 1.125,0 z m 1.5,0 0,1.125 -1.125,0 0,-1.125 1.125,0 z m 1.5,0 0,1.125 -1.125,0 0,-1.125 1.125,0 z m 3.75,0 0,1.125 -3.375,0 0,-1.125 3.375,0 z m 1.5,0 0,1.125 -1.125,0 0,-1.125 1.125,0 z m 1.5,0 0,1.125 -1.125,0 0,-1.125 1.125,0 z m 1.5,0 0,1.125 -1.125,0 0,-1.125 1.125,0 z m 1.5,0 0,1.125 -1.125,0 0,-1.125 1.125,0 z"
                 inkscape:connector-curvature="0"
                 style="fill:#565656;fill-rule:evenodd;stroke-width:0.5;marker-start:none;marker-end:none" />
              <path
                 style="fill:url(#LinearGradient_3-224);stroke-width:0.32600001;marker-start:none;marker-end:none"
                 id="path110362"
                 stroke-miterlimit="79.8403193612775"
                 d="m 0.75,18.638 0,70.721 c 0,2.421 1.967,4.389 4.389,4.389 l 85.721,0 c 2.421,0 4.389,-1.968 4.389,-4.389 l 0,-70.721 c 0,-2.422 -1.968,-4.389 -4.389,-4.389 l -85.721,0 c -2.422,0 -4.389,1.967 -4.389,4.389 z m 93.749,0 0,70.721 c 0,2.006 -1.633,3.639 -3.639,3.639 l -85.721,0 C 3.131,92.998 1.5,91.365 1.5,89.359 l 0,-70.721 c 0,-2.008 1.631,-3.639 3.639,-3.639 l 85.721,0 c 2.006,0 3.639,1.631 3.639,3.639 z"
                 inkscape:connector-curvature="0" />
              <path
                 style="fill:url(#LinearGradient_4-77);stroke-width:0.32600001;marker-start:none;marker-end:none"
                 id="path110364"
                 stroke-miterlimit="79.8403193612775"
                 d="m 5.138,93.748 10.61,0 0,1.5 -10.61,0 c -2.421,0 -4.389,-1.968 -4.389,-4.389 l 0,-1.5 c 0,2.421 1.968,4.389 4.389,4.389 z"
                 inkscape:connector-curvature="0" />
              <path
                 style="fill:url(#LinearGradient_5-017);stroke-width:0.32600001;marker-start:none;marker-end:none"
                 id="path110366"
                 stroke-miterlimit="79.8403193612775"
                 d="m 90.86,93.748 -10.61,0 0,1.5 10.61,0 c 2.421,0 4.389,-1.968 4.389,-4.389 l 0,-1.5 c 0,2.421 -1.968,4.389 -4.389,4.389 z"
                 inkscape:connector-curvature="0" />
              <path
                 style="fill:url(#LinearGradient_6-17);stroke-width:0.32600001;marker-start:none;marker-end:none"
                 id="path110368"
                 stroke-miterlimit="79.8403193612775"
                 d="m 5.999,21.709 0,64.581 c 0,1.218 0.973,2.209 2.17,2.209 l 79.661,0 c 1.196,0 2.17,-0.991 2.17,-2.209 L 90,21.709 C 90,20.49 89.026,19.5 87.83,19.5 l -79.661,0 c -1.197,0 -2.17,0.99 -2.17,2.209 z m 83.251,0 0,64.581 c 0,0.816 -0.651,1.459 -1.42,1.459 l -79.661,0 c -0.771,0 -1.42,-0.643 -1.42,-1.459 l 0,-64.581 c 0,-0.818 0.649,-1.459 1.42,-1.459 l 79.661,0 c 0.769,0 1.42,0.641 1.42,1.459 z"
                 inkscape:connector-curvature="0" />
              <path
                 id="path110370"
                 stroke-miterlimit="79.8403193612775"
                 d="m 18.001,23.25 0,5.999 -9,0 0,0.749 9,0 0,9.002 -9,0 0,0.749 9,0 0,9.001 -9,0 0,0.749 9,0 0,9 -9,0 0,0.749 9,0 0,9.001 -9,0 0,0.749 9,0 0,9.001 -9,0 0,0.749 9,0 0,6.001 0.749,0 0,-6.001 9,0 0,6.001 0.749,0 0,-6.001 9.002,0 0,6.001 0.749,0 0,-6.001 9.001,0 0,6.001 0.749,0 0,-6.001 9,0 0,6.001 0.749,0 0,-6.001 9.001,0 0,6.001 0.749,0 0,-6.001 9.001,0 0,6.001 0.749,0 0,-6.001 9.001,0 0,5.563 c 0.455,-0.36 0.748,-0.91 0.749,-1.526 l 0,-4.037 0.001,0 0,-0.749 -0.001,0 0,-9.001 0.001,0 0,-0.749 -0.001,0 0,-9.001 0.001,0 0,-0.749 -0.001,0 0,-9 0.001,0 0,-0.749 -0.001,0 0,-9.001 0.001,0 0,-0.749 -0.001,0 0,-9.002 0.001,0 0,-0.749 -0.001,0 0,-4.036 C 86.998,24.597 86.705,24.047 86.25,23.687 l 0,5.562 -9.001,0 0,-5.999 -0.749,0 0,5.999 -9.001,0 0,-5.999 -0.749,0 0,5.999 -9.001,0 0,-5.999 -0.749,0 0,5.999 -9,0 0,-5.999 -0.749,0 0,5.999 -9.001,0 0,-5.999 -0.749,0 0,5.999 -9.002,0 0,-5.999 -0.749,0 0,5.999 -9,0 0,-5.999 -0.749,0 z m 9.749,6.748 0,9.002 -9,0 0,-9.002 9,0 z m 9.751,0 0,9.002 -9.002,0 0,-9.002 9.002,0 z m 9.75,0 0,9.002 -9.001,0 0,-9.002 9.001,0 z m 9.749,0 0,9.002 -9,0 0,-9.002 9,0 z m 9.75,0 0,9.002 -9.001,0 0,-9.002 9.001,0 z m 9.75,0 0,9.002 -9.001,0 0,-9.002 9.001,0 z m 9.75,0 0,9.002 -9.001,0 0,-9.002 9.001,0 z m -58.5,9.751 0,9.001 -9,0 0,-9.001 9,0 z m 9.751,0 0,9.001 -9.002,0 0,-9.001 9.002,0 z m 9.75,0 0,9.001 -9.001,0 0,-9.001 9.001,0 z m 9.749,0 0,9.001 -9,0 0,-9.001 9,0 z m 9.75,0 0,9.001 -9.001,0 0,-9.001 9.001,0 z m 9.75,0 0,9.001 -9.001,0 0,-9.001 9.001,0 z m 9.75,0 0,9.001 -9.001,0 0,-9.001 9.001,0 z m -58.5,9.75 0,9 -9,0 0,-9 9,0 z m 9.751,0 0,9 -9.002,0 0,-9 9.002,0 z m 9.75,0 0,9 -9.001,0 0,-9 9.001,0 z m 9.749,0 0,9 -9,0 0,-9 9,0 z m 9.75,0 0,9 -9.001,0 0,-9 9.001,0 z m 9.75,0 0,9 -9.001,0 0,-9 9.001,0 z m 9.75,0 0,9 -9.001,0 0,-9 9.001,0 z m -58.5,9.749 0,9.001 -9,0 0,-9.001 9,0 z m 9.751,0 0,9.001 -9.002,0 0,-9.001 9.002,0 z m 9.75,0 0,9.001 -9.001,0 0,-9.001 9.001,0 z m 9.749,0 0,9.001 -9,0 0,-9.001 9,0 z m 9.75,0 0,9.001 -9.001,0 0,-9.001 9.001,0 z m 9.75,0 0,9.001 -9.001,0 0,-9.001 9.001,0 z m 9.75,0 0,9.001 -9.001,0 0,-9.001 9.001,0 z m -58.5,9.75 0,9.001 -9,0 0,-9.001 9,0 z m 9.751,0 0,9.001 -9.002,0 0,-9.001 9.002,0 z m 9.75,0 0,9.001 -9.001,0 0,-9.001 9.001,0 z m 9.749,0 0,9.001 -9,0 0,-9.001 9,0 z m 9.75,0 0,9.001 -9.001,0 0,-9.001 9.001,0 z m 9.75,0 0,9.001 -9.001,0 0,-9.001 9.001,0 z m 9.75,0 0,9.001 -9.001,0 0,-9.001 9.001,0 z"
                 inkscape:connector-curvature="0"
                 style="fill:#565656;stroke-width:0.211;marker-start:none;marker-end:none" />
              <path
                 id="path110372"
                 stroke-miterlimit="79.8403193612775"
                 d="m 18,68.998 0,-20.249 59.249,0 0,20.249 -59.249,0 z"
                 inkscape:connector-curvature="0"
                 style="fill:#2e2c2c;stroke-width:0.211;marker-start:none;marker-end:none" />
              <path
                 style="fill:url(#LinearGradient_7-851);stroke-width:0.211;marker-start:none;marker-end:none"
                 id="path110374"
                 stroke-miterlimit="79.8403193612775"
                 d="m 18.751,68.25 0,-18.749 8.999,0 0,18.749 -8.999,0 z"
                 inkscape:connector-curvature="0" />
              <path
                 style="fill:url(#LinearGradient_8-574);stroke-width:0.211;marker-start:none;marker-end:none"
                 id="path110376"
                 stroke-miterlimit="79.8403193612775"
                 d="m 28.5,68.25 0,-18.749 8.999,0 0,18.749 -8.999,0 z"
                 inkscape:connector-curvature="0" />
              <path
                 style="fill:url(#LinearGradient_9-372);stroke-width:0.211;marker-start:none;marker-end:none"
                 id="path110378"
                 stroke-miterlimit="79.8403193612775"
                 d="m 38.251,68.249 0,-18.749 8.999,0 0,18.749 -8.999,0 z"
                 inkscape:connector-curvature="0" />
              <path
                 style="fill:url(#LinearGradient_10-92);stroke-width:0.211;marker-start:none;marker-end:none"
                 id="path110380"
                 stroke-miterlimit="79.8403193612775"
                 d="m 57.751,68.25 0,-18.749 8.999,0 0,18.749 -8.999,0 z"
                 inkscape:connector-curvature="0" />
              <path
                 style="fill:url(#LinearGradient_11-252);stroke-width:0.211;marker-start:none;marker-end:none"
                 id="path110382"
                 stroke-miterlimit="79.8403193612775"
                 d="m 67.5,68.25 0,-18.749 8.999,0 0,18.749 -8.999,0 z"
                 inkscape:connector-curvature="0" />
              <path
                 style="fill:url(#LinearGradient_12-50);stroke-width:0.211;marker-start:none;marker-end:none"
                 id="path110384"
                 stroke-miterlimit="79.8403193612775"
                 d="m 48,68.25 0,-18.749 8.999,0 0,18.749 -8.999,0 z"
                 inkscape:connector-curvature="0" />
              <path
                 id="path110386"
                 stroke-miterlimit="79.8403193612775"
                 d="m 18.75,41.889 0,-2.777 c 0,-0.476 0.387,-0.863 0.863,-0.863 l 56.023,0 c 0.476,0 0.863,0.387 0.863,0.863 l 0,2.777 c 0,0.476 -0.387,0.863 -0.863,0.863 l -56.023,0 c -0.476,0 -0.863,-0.387 -0.863,-0.863 z"
                 inkscape:connector-curvature="0"
                 style="fill:#2e2c2c;stroke-width:0.211;marker-start:none;marker-end:none" />
              <path
                 id="path110388"
                 stroke-miterlimit="79.8403193612775"
                 d="m 19.5,41.436 0,-1.873 C 19.5,39.253 19.753,39 20.063,39 l 55.123,0 c 0.31,0 0.563,0.253 0.563,0.563 l 0,1.873 c 0,0.31 -0.253,0.563 -0.563,0.563 l -55.123,0 c -0.31,0 -0.563,-0.253 -0.563,-0.563 z"
                 inkscape:connector-curvature="0"
                 style="fill:#3c3d41;stroke-width:0.211;marker-start:none;marker-end:none" />
              <path
                 style="fill:url(#LinearGradient_13-408);stroke-width:0.211;marker-start:none;marker-end:none"
                 id="path110390"
                 stroke-miterlimit="79.8403193612775"
                 d="m 19.5,39.563 0,1.873 c 0,0.31 0.253,0.563 0.563,0.563 l 23.623,0 c 0.31,0 0.563,-0.506 0.563,-1.125 l 0,-0.75 c 0,-0.613 -0.248,-1.115 -0.554,-1.124 l -23.632,0 c -0.31,0 -0.563,0.253 -0.563,0.563 z"
                 inkscape:connector-curvature="0" />
              <path
                 id="path110392"
                 stroke-miterlimit="79.8403193612775"
                 d="m 42,41.493 0,-1.989 c 0,-1.107 0.899,-2.006 2.006,-2.006 l 4.989,0 c 1.107,0 2.006,0.899 2.006,2.006 l 0,1.989 c 0,1.107 -0.899,2.006 -2.006,2.006 l -4.989,0 C 42.899,43.499 42,42.6 42,41.493 z"
                 inkscape:connector-curvature="0"
                 style="fill:#2a2a2a;stroke-width:0.32600001;marker-start:none;marker-end:none" />
              <path
                 id="path110394"
                 stroke-miterlimit="79.8403193612775"
                 d="M 5.998,61.683 5.999,86.29 c 0,1.218 0.973,2.209 2.17,2.209 l 79.661,0 c 1.196,0 2.17,-0.991 2.17,-2.209 L 90,61.682 C 78.313,59.213 63.764,57.749 48,57.749 c -15.766,0 -30.316,1.464 -42.002,3.934 z"
                 inkscape:connector-curvature="0"
                 style="fill:#ffffff;fill-opacity:0.09019602;stroke-width:0.101;marker-start:none;marker-end:none" />
              <path
                 style="fill:url(#LinearGradient_14-844);stroke-width:0.32600001;marker-start:none;marker-end:none"
                 id="path110396"
                 stroke-miterlimit="79.8403193612775"
                 d="m 42.751,41.418 0,-1.837 c 0,-0.735 0.597,-1.332 1.332,-1.332 l 4.835,0 c 0.735,0 1.332,0.597 1.332,1.332 l 0,1.837 c 0,0.735 -0.597,1.332 -1.332,1.332 l -4.835,0 c -0.735,0 -1.332,-0.597 -1.332,-1.332 z"
                 inkscape:connector-curvature="0" />
            </g>
          </g>
        </g>
      </g>
    </g>
  </g>
</svg>
