<?xml version="1.0" encoding="UTF-8" standalone="no"?>
<!-- Creator: CorelDRAW -->

<svg
   xmlns:dc="http://purl.org/dc/elements/1.1/"
   xmlns:cc="http://creativecommons.org/ns#"
   xmlns:rdf="http://www.w3.org/1999/02/22-rdf-syntax-ns#"
   xmlns:svg="http://www.w3.org/2000/svg"
   xmlns="http://www.w3.org/2000/svg"
   xmlns:xlink="http://www.w3.org/1999/xlink"
   xmlns:sodipodi="http://sodipodi.sourceforge.net/DTD/sodipodi-0.dtd"
   xmlns:inkscape="http://www.inkscape.org/namespaces/inkscape"
   xml:space="preserve"
   width="128px"
   height="128px"
   style="shape-rendering:geometricPrecision; text-rendering:geometricPrecision; image-rendering:optimizeQuality; fill-rule:evenodd; clip-rule:evenodd"
   viewBox="0 0 128 128"
   id="svg6828"
   version="1.1"
   inkscape:version="0.48.1 r9760"
   sodipodi:docname="preferences-desktop-font.svg"><metadata
   id="metadata7179"><rdf:RDF><cc:Work
       rdf:about=""><dc:format>image/svg+xml</dc:format><dc:type
         rdf:resource="http://purl.org/dc/dcmitype/StillImage" /><dc:title></dc:title></cc:Work></rdf:RDF></metadata><sodipodi:namedview
   pagecolor="#ffffff"
   bordercolor="#666666"
   borderopacity="1"
   objecttolerance="10"
   gridtolerance="10"
   guidetolerance="10"
   inkscape:pageopacity="0"
   inkscape:pageshadow="2"
   inkscape:window-width="646"
   inkscape:window-height="480"
   id="namedview7177"
   showgrid="false"
   inkscape:zoom="2.078125"
   inkscape:cx="64"
   inkscape:cy="64"
   inkscape:window-x="0"
   inkscape:window-y="24"
   inkscape:window-maximized="0"
   inkscape:current-layer="svg6828" />
 <defs
   id="defs6830">
  <style
   type="text/css"
   id="style6832">
   
    .fil52 {fill:white}
    .fil14 {fill:#6B8242}
    .fil15 {fill:#9CD2FF}
    .fil29 {fill:#B2B2B2}
    .fil27 {fill:white}
    .fil17 {fill:#6097D0;fill-rule:nonzero}
    .fil22 {fill:white;fill-rule:nonzero}
    .fil33 {fill:#666666;fill-opacity:0.000000}
    .fil43 {fill:white;fill-opacity:0.000000}
    .fil0 {fill:black;fill-opacity:0.000000}
    .fil53 {fill:#92CCFB;fill-opacity:0.000000}
    .fil1 {fill:black;fill-opacity:0.007843}
    .fil2 {fill:black;fill-opacity:0.011765}
    .fil3 {fill:black;fill-opacity:0.019608}
    .fil34 {fill:#666666;fill-opacity:0.023529}
    .fil54 {fill:white;fill-opacity:0.023529}
    .fil4 {fill:black;fill-opacity:0.023529}
    .fil5 {fill:black;fill-opacity:0.031373}
    .fil44 {fill:white;fill-opacity:0.035294}
    .fil6 {fill:black;fill-opacity:0.035294}
    .fil7 {fill:black;fill-opacity:0.043137}
    .fil35 {fill:#666666;fill-opacity:0.047059}
    .fil55 {fill:white;fill-opacity:0.047059}
    .fil8 {fill:black;fill-opacity:0.050980}
    .fil9 {fill:black;fill-opacity:0.054902}
    .fil10 {fill:black;fill-opacity:0.062745}
    .fil11 {fill:black;fill-opacity:0.066667}
    .fil45 {fill:white;fill-opacity:0.070588}
    .fil36 {fill:#666666;fill-opacity:0.074510}
    .fil56 {fill:white;fill-opacity:0.074510}
    .fil12 {fill:black;fill-opacity:0.074510}
    .fil13 {fill:black;fill-opacity:0.078431}
    .fil37 {fill:#666666;fill-opacity:0.098039}
    .fil57 {fill:white;fill-opacity:0.098039}
    .fil46 {fill:white;fill-opacity:0.105882}
    .fil38 {fill:#666666;fill-opacity:0.121569}
    .fil58 {fill:white;fill-opacity:0.121569}
    .fil47 {fill:white;fill-opacity:0.141176}
    .fil39 {fill:#666666;fill-opacity:0.145098}
    .fil59 {fill:white;fill-opacity:0.145098}
    .fil40 {fill:#666666;fill-opacity:0.172549}
    .fil60 {fill:white;fill-opacity:0.172549}
    .fil48 {fill:white;fill-opacity:0.176471}
    .fil41 {fill:#666666;fill-opacity:0.196078}
    .fil61 {fill:white;fill-opacity:0.196078}
    .fil49 {fill:white;fill-opacity:0.211765}
    .fil42 {fill:#666666;fill-opacity:0.219608}
    .fil62 {fill:white;fill-opacity:0.219608}
    .fil20 {fill:#B2B2B2;fill-rule:nonzero;fill-opacity:0.219608}
    .fil50 {fill:white;fill-opacity:0.247059}
    .fil51 {fill:white;fill-opacity:0.286275}
    .fil67 {fill:#4C4C4C;fill-opacity:0.321569}
    .fil32 {fill:#4C4C4C;fill-opacity:0.439216}
    .fil28 {fill:#B2B2B2;fill-opacity:0.439216}
    .fil23 {fill:white;fill-opacity:0.439216}
    .fil26 {fill:#333333;fill-rule:nonzero;fill-opacity:0.501961}
    .fil16 {fill:#C4E8FF;fill-rule:nonzero;fill-opacity:0.501961}
    .fil18 {fill:#6097D0;fill-opacity:0.780392}
    .fil30 {fill:url(#id0)}
    .fil63 {fill:url(#id1)}
    .fil65 {fill:url(#id2)}
    .fil68 {fill:url(#id3)}
    .fil19 {fill:url(#id4)}
    .fil24 {fill:url(#id5);fill-rule:nonzero}
    .fil21 {fill:url(#id6);fill-rule:nonzero}
    .fil69 {fill:url(#id7);fill-rule:nonzero}
    .fil31 {fill:url(#id8);fill-rule:nonzero}
    .fil64 {fill:url(#id9);fill-rule:nonzero}
    .fil66 {fill:url(#id10);fill-rule:nonzero}
    .fil25 {fill:url(#id11);fill-rule:nonzero}
   
  </style>
  <linearGradient
   id="id0"
   gradientUnits="userSpaceOnUse"
   x1="19.5333"
   y1="68.278"
   x2="4.71974"
   y2="69.1544">
   <stop
   offset="0"
   style="stop-color:#7D7D7D"
   id="stop6835" />
   <stop
   offset="1"
   style="stop-color:#CCCCCC"
   id="stop6837" />
  </linearGradient>
  <linearGradient
   id="id1"
   gradientUnits="userSpaceOnUse"
   xlink:href="#id0"
   x1="19.5345"
   y1="43.8856"
   x2="4.71856"
   y2="44.7643">
  </linearGradient>
  <linearGradient
   id="id2"
   gradientUnits="userSpaceOnUse"
   xlink:href="#id0"
   x1="19.5345"
   y1="19.9018"
   x2="4.71856"
   y2="20.7806">
  </linearGradient>
  <linearGradient
   id="id3"
   gradientUnits="userSpaceOnUse"
   xlink:href="#id0"
   x1="19.5345"
   y1="92.5039"
   x2="4.71856"
   y2="93.385">
  </linearGradient>
  <linearGradient
   id="id4"
   gradientUnits="userSpaceOnUse"
   x1="103.944"
   y1="44.2435"
   x2="101.979"
   y2="128.925">
   <stop
   offset="0"
   style="stop-color:#FCFCFC"
   id="stop6843" />
   <stop
   offset="1"
   style="stop-color:#DBDBDB"
   id="stop6845" />
  </linearGradient>
  <linearGradient
   id="id5"
   gradientUnits="userSpaceOnUse"
   x1="8.00325"
   y1="63.0031"
   x2="123.105"
   y2="63.0031">
   <stop
   offset="0"
   style="stop-color:#919191"
   id="stop6848" />
   <stop
   offset="1"
   style="stop-color:#B2B2B2"
   id="stop6850" />
  </linearGradient>
  <linearGradient
   id="id6"
   gradientUnits="userSpaceOnUse"
   x1="65.5555"
   y1="11.7604"
   x2="65.5555"
   y2="114.258">
   <stop
   offset="0"
   style="stop-color:white"
   id="stop6853" />
   <stop
   offset="0.431373"
   style="stop-color:white"
   id="stop6855" />
   <stop
   offset="1"
   style="stop-color:#EBEBEB"
   id="stop6857" />
  </linearGradient>
  <linearGradient
   id="id7"
   gradientUnits="userSpaceOnUse"
   x1="18.7526"
   y1="92.107"
   x2="4.15399"
   y2="90.9425">
   <stop
   offset="0"
   style="stop-color:#7D7D7D"
   id="stop6860" />
   <stop
   offset="1"
   style="stop-color:#BABABA"
   id="stop6862" />
  </linearGradient>
  <linearGradient
   id="id8"
   gradientUnits="userSpaceOnUse"
   xlink:href="#id7"
   x1="18.7526"
   y1="67.8812"
   x2="4.15399"
   y2="66.7166">
  </linearGradient>
  <linearGradient
   id="id9"
   gradientUnits="userSpaceOnUse"
   xlink:href="#id7"
   x1="18.7514"
   y1="43.4911"
   x2="4.15517"
   y2="42.3265">
  </linearGradient>
  <linearGradient
   id="id10"
   gradientUnits="userSpaceOnUse"
   xlink:href="#id7"
   x1="18.7514"
   y1="19.5061"
   x2="4.15517"
   y2="18.3416">
  </linearGradient>
  <linearGradient
   id="id11"
   gradientUnits="userSpaceOnUse"
   x1="64.4406"
   y1="88.2483"
   x2="64.4406"
   y2="45.6513">
   <stop
   offset="0"
   style="stop-color:#383838"
   id="stop6868" />
   <stop
   offset="1"
   style="stop-color:#4F4F4F"
   id="stop6870" />
  </linearGradient>
 </defs>
 <g
   id="Слой_x0020_1">
  <metadata
   id="CorelCorpID_0Corel-Layer" />
  <g
   id="_293830136">
   <path
   id="_293827448"
   class="fil0"
   d="M59.3594 108.579c55.0093,-2.52287 58.1239,7.343 58.3625,15.24 0.070867,2.31381 -1.9831,3.55162 -5.72369,4.18115l-102.282 0c-2.83468,-0.629535 -4.62643,-1.51183 -5.15558,-2.71539l0 -3.4087c0.972059,-5.30558 7.73632,-11.1379 54.7991,-13.297z" />
   <g
   id="g6876">
    <path
   id="_110122392"
   class="fil1"
   d="M59.481 109.55c52.7487,-2.32916 57.7684,7.01111 57.9881,14.4427 0.070867,2.31499 -2.35042,3.46894 -6.69457,4.00753l-99.9934 0c-3.85398,-0.703946 -6.01661,-1.78703 -6.01661,-3.38036 0,-5.54534 1.96892,-12.7395 54.7164,-15.0699z" />
    <path
   id="_110118792"
   class="fil2"
   d="M59.6003 110.522c50.4892,-2.13428 57.4117,6.6804 57.6137,13.6443 0.070867,2.35751 -2.92326,3.40988 -8.17923,3.83391l-25.1176 0c-5.26069,-0.0803159 -10.9596,-0.120474 -16.9478,0l-54.9089 0c-4.41974,-0.643709 -6.93198,-1.67955 -6.93198,-3.25752 0,-5.23707 3.98391,-12.0852 54.4719,-14.2206z" />
    <path
   id="_110127264"
   class="fil3"
   d="M59.722 111.494c48.2297,-1.94058 57.055,6.3485 57.2393,12.847 0.0755915,2.50869 -4.03233,3.40516 -11.0092,3.6591l-13.7128 0c-8.7509,-0.142915 -19.2498,-0.379139 -30.5472,0l-47.9959 0c-5.19455,-0.574023 -8.19813,-1.56144 -8.19813,-3.13587 0,-4.92762 5.99299,-11.4285 54.2239,-13.3702z" />
    <path
   id="_293846168"
   class="fil4"
   d="M59.8425 112.466c45.975,-1.74687 56.7007,6.01661 56.8661,12.0486 0.165356,5.5607 -24.8731,2.40121 -55.1735,3.34256l-4.74337 0.142915 -40.8159 0c-6.34968,-0.488982 -10.1092,-1.42088 -10.1092,-3.01421 0,-4.61817 8.00561,-10.773 53.9759,-12.5198z" />
    <path
   id="_110131896"
   class="fil5"
   d="M59.9629 113.437c43.7143,-1.55199 56.3452,5.6859 56.4916,11.2513 0.145277,4.97605 -25.0338,2.1827 -54.89,3.01893 -3.91895,0.109844 -7.7623,0.210239 -11.4816,0.292917l-30.4634 0c-8.29498,-0.373233 -13.3868,-1.23427 -13.3868,-2.89256 0,-4.3099 10.0171,-10.1174 53.7302,-11.6706z" />
    <path
   id="_293851400"
   class="fil6"
   d="M60.0846 114.41c41.4548,-1.35828 55.9873,5.354 56.1172,10.4541 0.128742,4.39139 -25.1944,1.9642 -54.6078,2.69531 -8.88672,0.220869 -17.4191,0.395674 -25.0042,0.440557l-7.1304 0c-13.6832,-0.0944894 -22.8593,-0.804341 -22.8593,-2.76972 0,-4.00044 12.0297,-9.46075 53.4845,-10.8202z" />
    <path
   id="_294395040"
   class="fil7"
   d="M60.2074 115.382c39.1954,-1.16458 55.6318,5.02211 55.7416,9.65563 0.111025,3.80674 -25.3527,1.74687 -54.3243,2.37286 -28.9728,0.625992 -54.6562,0.793711 -54.6562,-2.05869 0,-3.69099 14.0423,-8.80523 53.2388,-9.96981z" />
    <path
   id="_294390840"
   class="fil8"
   d="M60.3279 116.355c36.9382,-0.970878 55.2775,4.69022 55.3684,8.85838 0.0933082,3.22209 -25.5145,1.52837 -54.042,2.04924 -28.5275,0.520873 -54.3184,0.635441 -54.3184,-1.78821 0,-3.38154 16.0561,-8.14853 52.992,-9.1194z" />
    <path
   id="_294404280"
   class="fil9"
   d="M60.4484 117.326c34.6776,-0.775994 54.9196,4.3595 54.9928,8.06112 0.0744104,2.63743 -25.6739,1.30986 -53.7597,1.72561 -28.0858,0.415753 -53.9794,0.477171 -53.9794,-1.51655 0,-3.07327 18.0675,-7.49301 52.7463,-8.27018z" />
    <path
   id="_294384576"
   class="fil10"
   d="M60.5689 118.298c32.4205,-0.582291 54.5641,4.02761 54.6196,7.26269 0.0566936,2.05396 -25.8334,1.09371 -53.4762,1.40317 -27.6429,0.310634 -53.6428,0.320083 -53.6428,-1.24608 0,-2.76381 20.0802,-6.83749 52.4995,-7.41978z" />
    <path
   id="_294386640"
   class="fil11"
   d="M60.6917 119.27c30.1598,-0.388587 54.2074,3.69571 54.244,6.46543 0.0377957,1.46813 -25.994,0.875208 -53.194,1.07954 -27.1988,0.205514 -53.3026,0.161813 -53.3026,-0.975603 0,-2.45436 22.0904,-6.18078 52.2526,-6.56937z" />
    <path
   id="_294381624"
   class="fil12"
   d="M60.8098 120.242c27.9039,-0.193703 53.8542,3.365 53.8707,5.667 0.020079,0.884657 -26.1535,0.657882 -52.9117,0.757096 -26.7547,0.100395 -52.9648,0.00354335 -52.9648,-0.703946 0,-2.14609 24.1042,-5.52645 52.0058,-5.72015z" />
   </g>
   <path
   id="_290893800"
   class="fil13"
   d="M60.9315 121.216c25.6432,0 53.4963,3.03311 53.4963,4.86974 0,0.600007 -105.258,0.558668 -105.258,0 0,-1.83664 26.118,-4.86974 51.7613,-4.86974z" />
  </g>
  <path
   class="fil14"
   d="M123.808 96.1783c-0.85631,1.01458 -2.55476,1.57797 -4.44691,2.21223 -1.99491,0.664969 -3.37918,1.38663 -4.3406,2.16381l0 -37.667c0.922452,0.63426 2.16263,1.22954 3.82564,1.78467 2.14727,0.715757 4.24493,1.34647 4.94297,2.64806l0.0188979 28.8582z"
   id="path6891" />
  <path
   class="fil15"
   d="M99.4205 4.56265l16.9183 -0.0354335c1.17167,0 2.25003,0.462998 3.08626,1.22954 1.19175,0.979146 1.95121,2.46499 1.95475,4.1221l0.142915 34.8028c0.00354335,0.943712 -0.216144,1.51419 0.722844,1.86616 0.271657,0.101576 1.27915,0.399218 1.58624,0.503156 1.94884,0.649614 2.67287,1.82364 2.67287,3.98981l-0.119293 54.9538c-0.702765,1.29805 -3.16303,1.73979 -5.31148,2.45909 -0.852766,0.284649 -1.59451,0.579928 -2.24058,0.883475l-0.785443 7.47411c-0.114568,2.93862 -2.3457,5.50755 -5.25361,5.46975 -4.03942,-0.0543314 -9.62965,0.167719 -13.571,0.167719l-59.9712 -0.0259846c-2.90791,0 -5.34455,-2.35397 -5.34455,-5.22408 0,-34.426 -0.165356,-48.2935 -0.165356,-107.009 0,-2.8713 2.40475,-5.21227 5.34219,-5.22762l59.9736 -0.41221c0.120474,0 0.240948,0.00590558 0.362603,0.0129923z"
   id="path6893" />
  <path
   class="fil16"
   d="M99.4205 4.56265l16.9183 -0.0354335c1.17167,0 2.25003,0.462998 3.08626,1.22954 1.19175,0.979146 1.95121,2.46499 1.95475,4.1221l0.142915 34.8028c0.00354335,0.943712 -0.216144,1.51419 0.722844,1.86616 0.271657,0.101576 1.27915,0.399218 1.58624,0.503156 1.94884,0.649614 2.67287,1.82364 2.67287,3.98981l-0.119293 54.9538c-0.702765,1.29805 -3.16303,1.73979 -5.31148,2.45909 -0.852766,0.284649 -1.59451,0.579928 -2.24058,0.883475l-0.785443 7.47411c-0.114568,2.93862 -2.3457,5.50755 -5.25361,5.46975 -4.03942,-0.0543314 -9.62965,0.167719 -13.571,0.167719l-59.9712 -0.0259846c-2.90791,0 -5.34455,-2.35397 -5.34455,-5.22408 0,-34.426 -0.165356,-48.2935 -0.165356,-107.009 0,-2.8713 2.40475,-5.21227 5.34219,-5.22762l59.9736 -0.41221c0.120474,0 0.240948,0.00590558 0.362603,0.0129923zm16.9183 1.45868l-16.9183 0.0354335 -0.0755915 0 -0.181892 -0.00944894 0 -0.00118112 -0.125198 -0.00236223 -59.9476 0.41221c-1.06182,0.00590558 -2.0327,0.43347 -2.7331,1.11852 -0.68741,0.673237 -1.11497,1.59923 -1.11497,2.61499 0,35.3496 0.050788,53.0971 0.0933082,68.4871 0.0377957,13.6478 0.0720481,25.6539 0.0720481,38.5221 0,1.01222 0.431108,1.93703 1.11734,2.60909 0.702765,0.686229 1.67364,1.11497 2.7272,1.11497l0 0.00590558 59.9712 0.0259846 0 -0.00590558c1.97837,0 3.85517,-0.040158 5.78393,-0.0791348 2.70358,-0.0555125 5.49456,-0.113387 7.80482,-0.0826782 0.980327,0.0129923 1.86262,-0.416934 2.51932,-1.09962 0.722844,-0.752371 1.17875,-1.80593 1.22246,-2.93508l0.00590558 -0.0933082 0.785443 -7.47411 0.0874027 -0.842136 0.76182 -0.35906c0.377957,-0.178349 0.755915,-0.341343 1.13151,-0.490164 0.353154,-0.139372 0.779537,-0.292917 1.27324,-0.458273 0.522054,-0.174805 0.981508,-0.311815 1.43388,-0.446462 1.21537,-0.362603 2.38822,-0.713395 2.85948,-1.10316l0.118112 -54.4448 -0.00590558 0c0,-0.793711 -0.106301,-1.36655 -0.354335,-1.74215l-0.00590558 0c-0.226774,-0.346067 -0.636622,-0.610637 -1.25671,-0.820876l-0.00118112 0.00236223 -0.649614 -0.204333 0 -0.00236223c-0.387406,-0.119293 -0.816152,-0.251578 -1.0134,-0.324807 -1.79294,-0.672056 -1.75868,-1.54136 -1.70553,-2.87248l0.0106301 -0.388587 -0.142915 -34.8028 0 -0.00590558c0,-0.578747 -0.135828,-1.13742 -0.373233,-1.63821 -0.244491,-0.517329 -0.60237,-0.97324 -1.03702,-1.32994l-0.0637803 -0.0519691c-0.29646,-0.271657 -0.630716,-0.48662 -0.98387,-0.627173 -0.329532,-0.131104 -0.69804,-0.204333 -1.08899,-0.204333l0 -0.00590558z"
   id="path6895" />
  <path
   class="fil17"
   d="M99.4453 4.06422l16.8935 -0.0354335 0 -0.00236223c0.635441,0 1.25198,0.125198 1.82364,0.353154 0.589377,0.235042 1.13151,0.579928 1.60041,1.00985 0.653158,0.540952 1.18702,1.22482 1.55435,1.99963 0.357878,0.752371 0.559849,1.59923 0.561031,2.48743l0.142915 34.8028c0.00118112,0.180711 -0.00590558,0.330713 -0.0106301,0.471266l0 0.00472447c-0.0177168,0.459454 -0.0295279,0.76182 0.408666,0.925996 0.125198,0.0460636 0.533865,0.173624 0.90946,0.288193l0.00236223 0 0.649614 0.204333 0.0070867 0.00472447c1.08781,0.362603 1.84254,0.883475 2.32916,1.62522l-0.00118112 0.00118112c0.483077,0.733474 0.689772,1.65711 0.689772,2.83586l-0.00236223 0 -0.119293 54.9538 -0.0590558 0.236223c-0.651977,1.20474 -2.39767,1.72679 -4.22131,2.27129 -0.472447,0.140553 -0.955524,0.284649 -1.37128,0.424021 -0.389769,0.129923 -0.780718,0.274019 -1.17167,0.427564 -0.2752,0.108663 -0.52914,0.213782 -0.760639,0.31772l-0.754734 7.17529c-0.0661425,1.61577 -0.728749,3.13232 -1.7764,4.22367 -1.02048,1.06182 -2.41184,1.72916 -3.98036,1.70908 -2.27247,-0.0295279 -5.05046,0.0283468 -7.74222,0.0826782 -2.13073,0.0425202 -4.21895,0.0874027 -5.82291,0.0874027l0 -0.00236223 -59.9712 -0.0259846 0 0.00236223c-1.59096,0 -3.05555,-0.647252 -4.11737,-1.68545 -1.06182,-1.0382 -1.72797,-2.46972 -1.72797,-4.03942 0,-15.7526 -0.030709,-26.4405 -0.0637803,-38.5221 -0.0460636,-16.7541 -0.101576,-36.0749 -0.101576,-68.4871 0,-1.57207 0.659063,-3.00004 1.71734,-4.03706 1.0571,-1.03466 2.5205,-1.68073 4.12328,-1.689l59.9736 -0.41221 0.0118112 0 0.180711 0.00354335 0.0165356 0 0.180711 0.00944894zm16.8935 0.961429l-16.9183 0.0354335 -0.0259846 0 -0.181892 -0.00944894 -0.160632 -0.00354335 -59.9653 0.41221c-1.33348,0.0070867 -2.55121,0.543314 -3.42878,1.40317 -0.871664,0.853948 -1.41498,2.03152 -1.41498,3.32603 0,34.0918 0.0519691,52.5125 0.0968516,68.4871 0.0366146,12.9758 0.0685048,24.4172 0.0685048,38.5221 0,1.29214 0.548038,2.46972 1.42088,3.32366 0.882294,0.862215 2.10003,1.39962 3.42288,1.39962l0 0.00236223 59.9712 0.0259846 0 -0.00236223c1.82128,0 3.78902,-0.0425202 5.80401,-0.0826782 2.69649,-0.0555125 5.48156,-0.113387 7.77293,-0.0826782 1.27561,0.0165356 2.41184,-0.531503 3.25043,-1.40435 0.885838,-0.922452 1.44569,-2.21105 1.49884,-3.58705l0.00236223 -0.030709 0.785443 -7.47411 0.0283468 -0.281106 0.255121 -0.119293c0.347248,-0.164175 0.705127,-0.318902 1.07127,-0.462998 0.354335,-0.139372 0.764183,-0.288193 1.22364,-0.441738 0.491345,-0.164175 0.950799,-0.301185 1.40199,-0.435832 1.55907,-0.46536 3.05201,-0.911822 3.56934,-1.69018l0.119293 -54.8145 -0.00236223 0c0,-0.987414 -0.157089,-1.73624 -0.520873,-2.289l-0.00236223 0c-0.357878,-0.545676 -0.94135,-0.940169 -1.79648,-1.226l-0.00118112 0.00236223 -0.649614 -0.204333c-0.367327,-0.111025 -0.771269,-0.238586 -0.961429,-0.309453 -1.11734,-0.418115 -1.09371,-1.00395 -1.05828,-1.89924l0.0106301 -0.431108 -0.142915 -34.8028 0 -0.00236223c0,-0.734655 -0.1689,-1.43742 -0.466541,-2.06459 -0.308272,-0.649614 -0.757096,-1.22246 -1.30632,-1.67246l-0.0212601 -0.0177168c-0.382682,-0.350792 -0.819695,-0.629535 -1.29332,-0.818514 -0.448824,-0.17953 -0.94135,-0.277562 -1.45514,-0.277562l0 -0.00236223z"
   id="path6897" />
  <path
   class="fil18"
   d="M101.101 4.2095l13.949 -0.159451c0.702765,0 1.3701,0.167719 1.97719,0.467722l0.0637803 53.7408c0.0425202,1.78349 -0.315358,2.61617 1.73152,4.06422 0.561031,0.251578 0.323626,0.641346 1.03348,0.879932 1.30395,0.432289 2.59255,0.839774 3.54926,1.37482 1.26734,0.706308 1.39017,1.53781 1.39017,2.94807l0.020079 29.0389c-0.922452,0.585834 -2.19452,1.0134 -3.57288,1.47167 -0.850404,0.28583 -1.59333,0.579928 -2.23822,0.883475l-0.42284 10.8663c-0.310634,0.12638 -0.604732,0.262208 -0.90946,0.418115 -1.28151,0.649614 0.383863,4.32879 0.383863,5.71897l0 1.37482c0,2.93035 -2.34097,5.504 -5.24888,5.46621 -4.03942,-0.0543314 -9.86941,-3.23154 -13.7978,-3.23154l-60.9385 0c-1.1823,0 -2.30672,-0.394493 -3.20437,-1.05946 -0.00354335,-33.2437 -0.162994,-50.6215 -0.162994,-108.638 0,-2.86893 2.40475,-5.21109 5.33983,-5.22762l60.6964 -0.411029c0.121655,0 0.240948,0.00590558 0.361422,0.0129923z"
   id="path6899" />
  <path
   class="fil19"
   d="M97.5213 0.706308l11.9127 -0.0118112c1.17403,0 2.25003,0.460636 3.08626,1.22836 1.18938,0.977965 1.94766,2.46499 1.95475,4.11974l-0.0212601 58.0424c0.0496069,1.78112 -0.757096,2.61263 1.28624,4.06304 0.564574,0.249216 1.19529,0.493707 1.9016,0.72993 1.30277,0.435832 2.59137,0.84568 3.55044,1.38073 1.2638,0.700402 1.39017,1.53545 1.39017,2.94689l0.0236223 37.6493c0.00236223,1.99963 -0.38032,2.76854 -2.18625,3.5717 -0.753553,0.334256 -1.62876,0.629535 -2.55476,0.940169 -1.0193,0.338981 -1.24017,0.605913 -1.95357,0.961429 -1.28151,0.646071 -1.35828,0.846861 -1.35828,2.23704l0 1.38073c0,2.92681 -2.35042,5.4981 -5.25006,5.46621 -31.8724,-0.357878 -63.4862,0.0956705 -95.374,0.0696859 -2.88311,-0.00236223 -5.34574,-2.35515 -5.34574,-5.22526 0,-34.4272 -0.0803159,-55.7971 -0.0803159,-114.512 0,-2.87011 2.40357,-5.23353 5.34101,-5.2288l83.3195 0.178349c0.120474,0 0.239767,0.00118112 0.357878,0.0118112z"
   id="path6901" />
  <path
   class="fil20"
   d="M109.544 0.695678c1.13505,0.00944894 2.24648,0.161813 3.05673,0.905917 1.13387,0.933082 1.8012,2.61854 1.86853,4.20714 -0.0744104,-1.56026 -0.814971,-2.95397 -1.94884,-3.88587 -0.810246,-0.744104 -1.84609,-1.20001 -2.97641,-1.22718zm-97.1953 1.61459c-1.02167,1.02285 -1.88152,2.83232 -1.376,3.4524l0.00944894 0 0 0.00354335c0,38.1631 -0.0614181,76.3273 -0.0614181,114.49 0,0.728749 0.478352,1.39844 0.979146,1.88742l0.00944894 0.00944894c0.526778,0.516148 1.24962,0.838593 2.01971,0.838593 12.3899,0.00944894 24.8046,-0.0673237 37.2158,-0.142915 19.5144,-0.121655 40.2029,-0.145277 59.6842,0.0732292l0 -0.00944894 0.0531503 0 0 0.00944894c0.42284,0 0.827963,-0.116931 1.18938,-0.321264l-0.142915 0.159451 0 0.00590558c-0.66615,0.703946 -1.57679,1.15159 -2.57247,1.15159l0 -0.00590558 -0.0531503 0 0 0.00590558c-19.4802,-0.218507 -38.6402,-0.194884 -58.1547,-0.0732292 -12.4124,0.0755915 -24.8271,0.152364 -37.2194,0.142915 -1.04056,0 -2.01144,-0.431108 -2.71893,-1.12324l-0.00590558 -0.00590558c-0.68741,-0.670874 -1.12088,-1.59333 -1.12088,-2.602 0,-9.65445 -0.0188979,-24.7893 -0.0377957,-41.5328 -0.0188979,-16.2002 -0.0425202,-34.8595 -0.0425202,-72.9789l0 -0.00354335 -0.00590558 0c0,-1.01104 0.432289,-1.94412 1.12324,-2.6209 0.348429,-0.342524 0.765364,-0.618905 1.22836,-0.810246zm107.766 110.609l0.00118112 -0.217326 -0.0236223 -39.4965 -0.00944894 0c0,-0.429927 -0.00590558,-0.737017 -0.0354335,-0.812608 -0.0259846,-0.0661425 0.00944894,0.0850404 -0.0661425,0.0437013 -0.692135,-0.385044 -1.73034,-0.732292 -2.79688,-1.08781l-0.323626 -0.107482 -0.0106301 0c-0.327169,-0.108663 -0.700402,-0.245672 -1.1008,-0.399218 -0.464179,-0.178349 -0.360241,-0.316539 -0.568117,-0.408666l-0.439375 -0.25394c-2.79452,-1.9831 -2.78625,-3.2587 -2.77326,-5.37526 0,-0.196065 0.00118112,-0.411029 -0.00472447,-0.660244l0 -0.0590558 0.101576 -59.0866c-0.00236223,-0.42284 -0.105119,-0.838593 -0.282287,-1.21301 -0.181892,-0.383863 -0.446462,-0.721662 -0.764183,-0.982689l-0.107482 -0.0885838c-0.159451,-0.14764 -0.333075,-0.270476 -0.511424,-0.361422l0.125198 0.0460636c0.353154,0.140553 0.686229,0.354335 0.981508,0.625992l0.0637803 0.0519691c0.432289,0.355516 0.790167,0.811427 1.03466,1.32758 0.237404,0.501975 0.372052,1.06064 0.375595,1.63821l-0.0212601 58.0424 0 0.0354335c0.00590558,0.25394 0.00472447,0.480715 0.00472447,0.68741 -0.0106301,1.79294 -0.46536,2.87484 1.90868,4.55911l0.711032 0.152364c0.238586,0.106301 0.118112,0.238586 0.520873,0.393312 0.370871,0.141734 0.728749,0.272838 1.06182,0.383863l0.00590558 0 0.323626 0.107482c1.11734,0.372052 2.20633,0.735836 2.96933,1.16104 0.29646,0.164175 0.447643,0.308272 0.506699,0.457092 0.0933082,0.233861 0.109844,0.643709 0.109844,1.18348l0.00590558 0 0.0236223 37.6493c0,0.727568 -0.0472447,1.19883 -0.209058,1.47285 -0.118112,0.199609 -0.36969,0.383863 -0.787805,0.59174z"
   id="path6903" />
  <path
   class="fil21"
   d="M97.5213 0.706308l11.9127 -0.0118112c1.17403,0 2.25003,0.460636 3.08626,1.22836 1.18938,0.977965 1.94766,2.46499 1.95475,4.11974l-0.0212601 58.0424c0.0496069,1.78112 -0.757096,2.61263 1.28624,4.06304 0.564574,0.249216 1.19529,0.493707 1.9016,0.72993 1.30277,0.435832 2.59137,0.84568 3.55044,1.38073 1.2638,0.700402 1.39017,1.53545 1.39017,2.94689l0.0236223 37.6493c0.00236223,1.99963 -0.38032,2.76854 -2.18625,3.5717 -0.753553,0.334256 -1.62876,0.629535 -2.55476,0.940169 -1.0193,0.338981 -1.24017,0.605913 -1.95357,0.961429 -1.28151,0.646071 -1.35828,0.846861 -1.35828,2.23704l0 1.38073c0,2.92681 -2.35042,5.4981 -5.25006,5.46621 -31.8724,-0.357878 -63.4862,0.0956705 -95.374,0.0696859 -2.88311,-0.00236223 -5.34574,-2.35515 -5.34574,-5.22526 0,-34.4272 -0.0803159,-55.7971 -0.0803159,-114.512 0,-2.87011 2.40357,-5.23353 5.34101,-5.2288l83.3195 0.178349c0.120474,0 0.239767,0.00118112 0.357878,0.0118112zm11.9127 1.4823l-11.9127 0.0118112 -0.0755915 0 -0.178349 -0.00944894 0 -0.00118112 -0.121655 -0.00118112 -83.3018 -0.178349 0 0.00590558 -0.00472447 0c-1.06182,0 -2.02562,0.424021 -2.71893,1.10434 -0.690953,0.67678 -1.12324,1.60986 -1.12324,2.6209l0.00590558 0 0 0.00354335c0,38.1194 0.0236223,56.7787 0.0425202,72.9789 0.0188979,16.7435 0.0377957,31.8783 0.0377957,41.5328 0,1.00867 0.43347,1.93113 1.12088,2.602l0.00590558 0.00590558c0.707489,0.692135 1.67837,1.12324 2.71893,1.12324 12.3923,0.00944894 24.807,-0.0673237 37.2194,-0.142915 19.5144,-0.121655 38.6745,-0.145277 58.1547,0.0732292l0 -0.00590558 0.0531503 0 0 0.00590558c0.995682,0 1.90632,-0.447643 2.57247,-1.15159l0 -0.00590558c0.686229,-0.724025 1.11616,-1.71026 1.13033,-2.75436l-0.00590558 0 0 -0.060237 0 -1.38073c0,-0.955524 0.040158,-1.52718 0.409848,-2.15436 0.36969,-0.628354 0.872845,-0.96261 1.77404,-1.41852l0.0118112 -0.00590558c0.387406,-0.192522 0.320083,-0.364965 0.744104,-0.533865 0.407485,-0.162994 0.858672,-0.324807 1.39726,-0.504337 0.353154,-0.118112 0.689772,-0.23268 1.31222,-0.45473l0.00236223 0.00472447c0.387406,-0.138191 0.760639,-0.283468 1.10553,-0.437013 0.604732,-0.269295 0.948437,-0.490164 1.09253,-0.733474 0.161813,-0.274019 0.209058,-0.745285 0.209058,-1.47285l-0.0236223 -37.6493 -0.00590558 0c0,-0.53977 -0.0165356,-0.949618 -0.109844,-1.18348 -0.0590558,-0.148821 -0.210239,-0.292917 -0.506699,-0.457092 -0.763002,-0.425202 -1.85199,-0.788986 -2.96933,-1.16104l-0.323626 -0.107482 -0.00590558 0c-0.333075,-0.111025 -0.690953,-0.242129 -1.06182,-0.383863 -0.402761,-0.154726 -0.282287,-0.287011 -0.520873,-0.393312l-0.711032 -0.152364c-2.37404,-1.68427 -1.91931,-2.76618 -1.90868,-4.55911 0,-0.206695 0.00118112,-0.43347 -0.00472447,-0.68741l0 -0.0354335 0.0212601 -58.0424c-0.00354335,-0.577566 -0.138191,-1.13623 -0.375595,-1.63821 -0.244491,-0.516148 -0.60237,-0.972059 -1.03466,-1.32758l-0.0637803 -0.0519691c-0.295279,-0.271657 -0.628354,-0.485439 -0.981508,-0.625992 -0.330713,-0.131104 -0.699221,-0.204333 -1.09135,-0.204333l0 -0.00590558z"
   id="path6905" />
  <path
   class="fil22"
   d="M114.373 65.4138c-0.0980327,0.976784 -0.0944894,1.69726 1.36655,2.73429 0.564574,0.249216 1.19529,0.493707 1.9016,0.72993 1.30277,0.435832 2.59137,0.84568 3.55044,1.38073 1.2638,0.700402 1.39017,1.53545 1.39017,2.94689l0 0.177168c-0.491345,0.446462 -0.985051,0.878751 -1.45514,1.28033l0 -1.00985 -0.0129923 0 0.00354335 -0.385044 -0.0295279 -0.0141734 0 -0.0484258 -0.00590558 0c0,-0.53977 -0.0165356,-0.949618 -0.109844,-1.18348 -0.0590558,-0.148821 -0.210239,-0.292917 -0.506699,-0.457092 -0.763002,-0.425202 -1.85199,-0.788986 -2.96933,-1.16104l-0.323626 -0.107482 -0.00590558 0c-0.333075,-0.111025 -0.690953,-0.242129 -1.06182,-0.383863 -0.402761,-0.154726 -0.282287,-0.287011 -0.520873,-0.393312l-0.711032 -0.152364c-1.00277,-0.711032 -1.5012,-1.31458 -1.74097,-1.90987 0.395674,-0.695678 0.827963,-1.39962 1.24135,-2.04333z"
   id="path6907" />
  <path
   class="fil23"
   d="M114.032 122.406c-0.943712,1.47403 -2.54767,2.47916 -4.36659,2.46027 -4.0347,-0.0472447 -8.15089,0.246853 -12.0592,0.246853l-83.9184 0c-1.07954,0 -2.10003,-0.329532 -2.95397,-0.891743 0.0141734,-0.506699 0.142915,-1.00277 0.354335,-1.48112l0.115749 0.118112 0.00590558 0.00590558c0.707489,0.692135 1.67837,1.12324 2.71893,1.12324 12.3923,0.00944894 24.807,-0.0673237 37.2194,-0.142915 19.5144,-0.121655 39.0371,-0.242129 58.5173,-0.0236223l0 -0.00590558 0.0531503 0 0 0.00590558c0.995682,0 1.90632,-0.447643 2.57247,-1.15159l0 -0.00590558c0.272838,-0.288193 0.505518,-0.617724 0.68741,-0.975603 0.395674,0.236223 0.746466,0.47599 1.05356,0.718119z"
   id="path6909" />
  <path
   class="fil24"
   d="M97.5473 0.207877l11.8868 -0.0118112 0 -0.00236223c0.635441,0 1.25317,0.125198 1.82601,0.353154 0.588196,0.233861 1.13033,0.578747 1.59805,1.00867 0.650795,0.53977 1.18466,1.22364 1.55199,1.99727 0.357878,0.754734 0.559849,1.60159 0.563393,2.48743l0 0.00236223 -0.0212601 58.0424c0.111025,1.38427 -0.464179,1.67719 1.03466,3.62603 0.270476,0.119293 0.548038,0.233861 0.829144,0.341343 0.311815,0.119293 0.640165,0.238586 0.98387,0.353154l0 0.00118112 0.321264 0.106301c1.21537,0.405123 2.39885,0.800797 3.31303,1.30986 0.741741,0.411029 1.15749,0.876389 1.39017,1.4575 0.220869,0.551582 0.258665,1.16576 0.258665,1.92522l-0.00236223 0 0.0236223 37.6493c0.00118112,1.08781 -0.109844,1.85672 -0.483077,2.48861 -0.379139,0.638984 -0.998044,1.09253 -1.99845,1.53781 -0.388587,0.172443 -0.810246,0.335437 -1.24844,0.493707l0.447643 0.00236223c-0.329532,0.118112 -1.28624,0.289374 -1.79884,0.461817 -0.493707,0.164175 -0.461817,0.314177 -0.840955,0.46536 -0.367327,0.146458 -0.703946,0.300004 -1.05001,0.471266 -0.549219,0.277562 -0.836231,0.447643 -0.950799,0.642528 -0.114568,0.194884 -0.127561,0.537408 -0.127561,1.14686l0 1.38073 0 0.060237 -0.00236223 0.00354335c-0.0165356,1.57207 -0.65552,3.04728 -1.67719,4.12564l-0.00118112 0c-1.02757,1.08427 -2.44727,1.7764 -4.01698,1.77522l0 0.00236223 -0.0531503 0 -0.00354335 -0.00236223c-19.4754,-0.217326 -38.6332,-0.193703 -58.1428,-0.0732292 -12.4124,0.0755915 -24.8283,0.153545 -37.2276,0.142915 -1.58152,-0.00118112 -3.04964,-0.649614 -4.11501,-1.69136 -1.06182,-1.03702 -1.73152,-2.46617 -1.73152,-4.03233 0,-17.0388 -0.0153545,-28.4531 -0.0295279,-41.5328 -0.0224412,-19.3514 -0.050788,-41.6757 -0.050788,-72.9789l0 -0.00354335 0.00236223 0c0.00118112,-1.57089 0.659063,-3.00594 1.71734,-4.04296 1.05828,-1.03702 2.51696,-1.68309 4.11737,-1.68309l0.00472447 0 0 0.00236223 83.3195 0.178349 0.00590558 0 0.17953 0.00236223 0.020079 0 0.178349 0.00944894zm11.8868 0.985051l-11.9127 0.0118112 -0.0259846 0 -0.178349 -0.00944894 -0.159451 -0.00236223 -83.3136 -0.178349 0 0.00236223 -0.00472447 0c-1.33112,0 -2.54294,0.535046 -3.41815,1.39254 -0.874027,0.85631 -1.4197,2.03979 -1.4197,3.33193l0.00236223 0 0 0.00354335c0,35.1973 0.0248035,55.4275 0.0460636,72.9789 0.0177168,15.1738 0.0342524,28.7141 0.0342524,41.5328 0,1.2886 0.551582,2.46381 1.42443,3.31658l0.00236223 0.00236223c0.885838,0.86694 2.10593,1.40789 3.41815,1.40789 12.3958,0.00944894 24.8105,-0.0673237 37.2229,-0.142915 19.5132,-0.121655 38.6733,-0.145277 58.1511,0.0732292l0 -0.00236223 0.0531503 0 0 0.00236223c1.28269,0 2.44846,-0.569298 3.29532,-1.46458l0 -0.00118112c0.852766,-0.900011 1.38899,-2.1331 1.40317,-3.44177l-0.00236223 0 0 -0.060237 0 -1.38073c0,-0.780718 0.0259846,-1.23781 0.269295,-1.65002 0.242129,-0.411029 0.637803,-0.664969 1.36537,-1.0323l0.00354335 -0.00236223c0.363784,-0.180711 0.274019,-0.342524 0.673237,-0.501975 0.386225,-0.154726 0.822057,-0.310634 1.34293,-0.484258 0.409848,-0.138191 1.25553,-0.271657 1.77994,-0.459454l-0.446462 0.00236223c0.414572,-0.150002 0.81379,-0.303547 1.17639,-0.46536 0.801978,-0.356697 1.28269,-0.693316 1.5449,-1.13623 0.266932,-0.452368 0.346067,-1.07245 0.346067,-1.98073l-0.0236223 -37.6493 -0.00236223 0c0,-0.651977 -0.0271657,-1.1634 -0.183073,-1.55435 -0.146458,-0.364965 -0.428745,-0.668512 -0.948437,-0.956705 -0.844499,-0.470085 -1.97837,-0.849223 -3.14059,-1.23663l-0.323626 -0.107482 -0.00236223 0c-0.361422,-0.120474 -0.703946,-0.244491 -1.02403,-0.367327 -0.333075,-0.127561 -0.196065,-0.255121 -0.472447,-0.377957l-0.536227 -0.050788c-1.95239,-1.38427 -1.49884,-2.27247 -1.49057,-3.74296 0,-0.218507 0.00118112,-0.455911 -0.00472447,-0.714576l0 -0.0118112 0.0212601 -58.0424c-0.00236223,-0.733474 -0.171262,-1.43742 -0.468903,-2.06459 -0.30709,-0.647252 -0.755915,-1.22009 -1.30395,-1.6701l-0.0212601 -0.0177168c-0.381501,-0.350792 -0.819695,-0.630716 -1.29096,-0.817333 -0.450006,-0.17953 -0.942531,-0.277562 -1.4575,-0.277562l0 -0.00236223z"
   id="path6911" />
  <path
   class="fil25"
   d="M97.8721 30.2271l0 21.6416 -2.04215 0c-1.226,-4.84967 -2.60554,-8.3375 -4.0595,-10.421 -1.45395,-2.09176 -3.08153,-3.83627 -5.6422,-5.04573 -1.40789,-0.662607 -3.37091,-1.076 -6.92135,-1.03466l-5.09416 0.102757 -0.132285 55.9672c-0.00826782,3.91068 0.500794,5.43904 0.935445,6.40756 0.42284,0.986233 1.11852,1.85199 2.36105,2.58901 1.28387,0.753553 2.27837,1.13033 4.48234,1.13033l2.56775 0 0 2.10829 -40.4273 -0.0992138 0 -2.10357 2.2453 0c2.24058,0 3.065,-0.28583 4.42801,-1.03938 0.964973,-0.530321 2.2205,-1.47522 2.78744,-2.74728 0.389769,-0.885838 0.621267,-2.32326 0.621267,-6.21622l-0.0661425 -55.9176 -3.82328 -0.161813c-5.14495,-0.219688 -8.69774,1.22246 -11.0305,3.40516 -3.27169,3.05201 -4.50242,7.48001 -5.37172,13.1836l-2.67995 0 0 -21.6381 66.8618 -0.111025z"
   id="path6913" />
  <path
   class="fil26"
   d="M97.8721 30.2271l0 21.6416 -2.04215 0c-1.226,-4.84967 -2.60554,-8.3375 -4.0595,-10.421 -1.45395,-2.09176 -3.08153,-3.83627 -5.6422,-5.04573 -1.40789,-0.662607 -3.37091,-1.076 -6.92135,-1.03466l-5.09179 0.102757 -0.132285 55.9672c-0.00826782,3.91068 0.498431,5.43904 0.933082,6.40756 0.42284,0.986233 1.11852,1.85199 2.36105,2.58901 1.28387,0.753553 2.27837,1.13033 4.48234,1.13033l2.56775 0 0 2.10829 -40.4273 -0.0992138 0 -2.10357 2.2453 0c2.24058,0 3.065,-0.28583 4.42801,-1.03938 0.964973,-0.530321 2.2205,-1.47522 2.78744,-2.74728 0.389769,-0.885838 0.621267,-2.32326 0.621267,-6.21622l-0.0661425 -55.9176 -3.82328 -0.161813c-5.14495,-0.219688 -8.69774,1.22246 -11.0305,3.40516 -3.27169,3.05201 -4.50242,7.48001 -5.37172,13.1836l-2.67995 0 0 -21.6381 66.8618 -0.111025zm-0.999225 20.6424l0 -19.6455 -64.8634 0.108663 0 19.6443 0.826782 0c0.418115,-2.55948 0.933082,-4.87093 1.70553,-6.93434 0.878751,-2.34334 2.08467,-4.34179 3.84099,-5.97999l0.00236223 0.00236223c1.33348,-1.24726 3.0272,-2.27129 5.13432,-2.92208 1.8638,-0.574023 4.05596,-0.859853 6.61189,-0.75119l3.82328 0.161813 0.956705 0.0413391 0 0.954342 0.0661425 55.9176 0.00354335 0c0,1.97719 -0.0614181,3.34847 -0.171262,4.34533 -0.120474,1.07364 -0.303547,1.74805 -0.535046,2.27365l-0.00472447 0.00354335c-0.303547,0.682686 -0.760639,1.27915 -1.27088,1.78231 -0.625992,0.616543 -1.34057,1.10198 -1.9453,1.43388 -0.750009,0.414572 -1.36301,0.703946 -2.12365,0.895287 -0.741741,0.187798 -1.58033,0.268114 -2.78507,0.268114l-1.24608 0 0 0.111025 38.4288 0.0944894 0 -0.111025 -1.56852 0c-1.18584,0 -2.0705,-0.108663 -2.84885,-0.321264l-0.00354335 0c-0.781899,-0.214963 -1.42325,-0.531503 -2.13428,-0.949618l-0.00354335 0c-0.711032,-0.421659 -1.27679,-0.890562 -1.72679,-1.39962 -0.457092,-0.51851 -0.793711,-1.07245 -1.04411,-1.65711l0.00118112 0c-0.248035,-0.557487 -0.481896,-1.27679 -0.643709,-2.36814 -0.153545,-1.03112 -0.250397,-2.44964 -0.246853,-4.47171l0.132285 -55.9672 0.00118112 -0.982689 0.982689 -0.0129923 4.97014 -0.0614181c1.839,-0.0212601 3.27642,0.0767726 4.43628,0.26457 1.20828,0.197247 2.13664,0.496069 2.91854,0.863396l0.00354335 0c1.37246,0.648433 2.50515,1.44687 3.48784,2.36696l0.00236223 -0.00236223c0.970878,0.905917 1.78585,1.91931 2.54649,3.01303l-0.00236223 0.00118112c0.777175,1.11497 1.53073,2.59491 2.24412,4.42565 0.617724,1.58624 1.21183,3.44414 1.77168,5.56542l0.269295 0z"
   id="path6915" />
  <rect
   class="fil27"
   x="43.781"
   y="103.967"
   width="40.3786"
   height="1.07393"
   id="rect6917" />
  <path
   class="fil28"
   d="M15.6309 98.2689c0,-2.29845 1.33466,-4.15989 2.98232,-4.15989 1.64648,0 2.98232,1.86144 2.98232,4.15989 0,2.29845 -1.33584,4.15989 -2.98232,4.15989 -1.64766,0 -2.98232,-1.86144 -2.98232,-4.15989z"
   id="path6919" />
  <path
   class="fil28"
   d="M14.5868 74.2249c0,-2.46617 1.63585,-4.46698 3.65319,-4.46698 2.01971,0 3.65556,2.00081 3.65556,4.46698 0,2.46735 -1.63585,4.46935 -3.65556,4.46935 -2.01735,0 -3.65319,-2.00199 -3.65319,-4.46935z"
   id="path6921" />
  <path
   class="fil28"
   d="M15.8553 49.8679c0,-2.10593 1.39844,-3.81501 3.12287,-3.81501 1.72325,0 3.12169,1.70908 3.12169,3.81501 0,2.10947 -1.39844,3.81737 -3.12169,3.81737 -1.72443,0 -3.12287,-1.7079 -3.12287,-3.81737z"
   id="path6923" />
  <path
   class="fil28"
   d="M15.6628 25.7649c0,-2.0705 1.37482,-3.75123 3.06736,-3.75123 1.6949,0 3.06854,1.68073 3.06854,3.75123 0,2.0705 -1.37364,3.75005 -3.06854,3.75005 -1.69254,0 -3.06736,-1.67955 -3.06736,-3.75005z"
   id="path6925" />
  <g
   id="_293846192">
   <path
   id="_293833184"
   class="fil27"
   d="M14.5313 97.6453c0,-2.38113 1.38427,-4.31226 3.09098,-4.31226 1.70671,0 3.0898,1.93113 3.0898,4.31226 0,2.38231 -1.38309,4.31344 -3.0898,4.31344 -1.70671,0 -3.09098,-1.93113 -3.09098,-4.31344z" />
   <path
   id="_293831984"
   class="fil27"
   d="M13.9573 73.6627c0,-2.37995 1.58033,-4.31108 3.528,-4.31108 1.94884,0 3.528,1.93113 3.528,4.31108 0,2.38231 -1.57915,4.31344 -3.528,4.31344 -1.94766,0 -3.528,-1.93113 -3.528,-4.31344z" />
   <path
   id="_293846264"
   class="fil27"
   d="M13.9573 49.2727c0,-2.38113 1.58033,-4.31226 3.528,-4.31226 1.94884,0 3.528,1.93113 3.528,4.31226 0,2.38113 -1.57915,4.31226 -3.528,4.31226 -1.94766,0 -3.528,-1.93113 -3.528,-4.31226z" />
   <path
   id="_293831912"
   class="fil27"
   d="M13.9573 25.2865c0,-2.37995 1.58033,-4.31108 3.528,-4.31108 1.94884,0 3.528,1.93113 3.528,4.31108 0,2.38231 -1.57915,4.31344 -3.528,4.31344 -1.94766,0 -3.528,-1.93113 -3.528,-4.31344z" />
  </g>
  <g
   id="_293844248">
   <path
   id="_293833088"
   class="fil29"
   d="M11.1887 97.4421c0,-2.37995 1.38309,-4.31108 3.0898,-4.31108 1.70671,0 3.09098,1.93113 3.09098,4.31108 0,2.38231 -1.38427,4.31344 -3.09098,4.31344 -1.70671,0 -3.0898,-1.93113 -3.0898,-4.31344z" />
   <path
   id="_293841056"
   class="fil29"
   d="M10.6147 73.4607c0,-2.38113 1.57915,-4.31226 3.528,-4.31226 1.94766,0 3.528,1.93113 3.528,4.31226 0,2.38113 -1.58033,4.31226 -3.528,4.31226 -1.94884,0 -3.528,-1.93113 -3.528,-4.31226z" />
   <path
   id="_293830160"
   class="fil29"
   d="M10.6147 49.0695c0,-2.38113 1.57915,-4.31226 3.528,-4.31226 1.94766,0 3.528,1.93113 3.528,4.31226 0,2.38231 -1.58033,4.31344 -3.528,4.31344 -1.94884,0 -3.528,-1.93113 -3.528,-4.31344z" />
   <path
   id="_293833208"
   class="fil29"
   d="M10.6147 25.0846c0,-2.38113 1.57915,-4.31226 3.528,-4.31226 1.94766,0 3.528,1.93113 3.528,4.31226 0,2.38113 -1.58033,4.31226 -3.528,4.31226 -1.94884,0 -3.528,-1.93113 -3.528,-4.31226z" />
  </g>
  <path
   class="fil30"
   d="M3.71934 73.3816l0 -0.251578c0,-1.54254 0.745285,-2.80515 1.65593,-2.80515l12.1183 0c0.910641,0 1.65356,1.26261 1.65356,2.80515l0 0.251578c0,1.54254 -0.742923,2.80397 -1.65356,2.80397l-12.1183 0c-0.910641,0 -1.65593,-1.26143 -1.65593,-2.80397z"
   id="path6937" />
  <path
   class="fil31"
   d="M3.06145 73.3792l0 -0.249216c0,-1.03112 0.252759,-1.97837 0.657882,-2.6646l0.00236223 0c0.42284,-0.711032 1.00985,-1.15868 1.65356,-1.15868l12.1183 0c0.646071,0 1.23545,0.445281 1.65356,1.15631 0.406304,0.686229 0.659063,1.63585 0.659063,2.66696l0 0.249216c0,1.03348 -0.252759,1.97955 -0.659063,2.66578 -0.418115,0.713395 -1.00513,1.15631 -1.65356,1.15631l-12.1183 0c-0.643709,0 -1.23072,-0.440557 -1.65356,-1.15631l-0.00236223 0c-0.405123,-0.686229 -0.657882,-1.6323 -0.657882,-2.66578zm1.31458 -0.249216l0 0.249216c0,0.511424 0.121655,0.972059 0.315358,1.29923l-0.00236223 0.00236223c0.177168,0.298823 0.420478,0.485439 0.686229,0.485439l12.1183 0c0.26457,0 0.504337,-0.188979 0.682686,-0.487801 0.191341,-0.327169 0.312996,-0.787805 0.312996,-1.29923l0 -0.249216c0,-0.511424 -0.121655,-0.97324 -0.312996,-1.29923 -0.178349,-0.300004 -0.420478,-0.490164 -0.682686,-0.490164l-12.1183 0c-0.265751,0 -0.509061,0.19016 -0.686229,0.490164l0.00236223 0.00236223c-0.191341,0.325988 -0.315358,0.785443 -0.315358,1.29687z"
   id="path6939" />
  <path
   class="fil32"
   d="M16.9644 70.3249l0.52914 0c0.908279,0 1.65356,1.26261 1.65356,2.80515l0 0.249216c0,1.54254 -0.742923,2.80633 -1.65356,2.80633l-0.226774 0c0.315358,-1.53191 0.587015,-3.978 -0.302366,-5.8607z"
   id="path6941" />
  <g
   id="_293834312">
   <path
   id="_293849336"
   class="fil33"
   d="M12.6462 70.1335c-1.66656,-0.288193 -8.2064,-0.914184 -8.06585,3.22091 0.12638,3.70162 4.73155,3.27524 7.41033,2.6646 0.471266,-0.108663 -1.2945,-1.89215 -1.06891,-3.37209 0.252759,-1.64411 2.05278,-2.61381 1.72443,-2.51342z" />
   <g
   id="g6945">
    <path
   id="_293845400"
   class="fil34"
   d="M12.3698 70.267c-1.47876,-0.193703 -7.79183,-0.875208 -7.69025,3.06618 0.0956705,3.50555 4.50832,3.18665 7.06426,2.50279 0.4441,-0.113387 -1.23072,-1.78349 -1.01694,-3.17602 0.237404,-1.54963 1.95593,-2.48625 1.64293,-2.39294z" />
    <path
   id="_293851616"
   class="fil35"
   d="M12.0958 70.404c-1.2945,-0.0980327 -7.3808,-0.83505 -7.31348,2.90909 0.0625992,3.31067 4.28037,3.09571 6.71819,2.34097 0.413391,-0.120474 -1.17167,-1.67364 -0.968516,-2.97996 0.223231,-1.45277 1.86026,-2.35515 1.5638,-2.27011z" />
    <path
   id="_293850680"
   class="fil36"
   d="M11.8218 70.5446c-1.11025,-0.0070867 -6.96977,-0.797254 -6.93906,2.74964 0.030709,3.11461 4.05596,3.00594 6.37331,2.18152 0.383863,-0.127561 -1.11025,-1.56616 -0.921271,-2.78389 0.210239,-1.3571 1.76695,-2.23113 1.48703,-2.14727z" />
    <path
   id="_293831696"
   class="fil37"
   d="M11.5478 70.6804c-0.924815,0.0897649 -6.55874,-0.758277 -6.56583,2.59491 0,2.91854 3.83154,2.91618 6.02842,2.01971 0.355516,-0.132285 -1.04765,-1.4575 -0.870483,-2.59019 0.197247,-1.25907 1.67246,-2.09884 1.40789,-2.02443z" />
    <path
   id="_293856800"
   class="fil38"
   d="M11.2726 70.815c-0.738198,0.183073 -6.14653,-0.718119 -6.19023,2.43901 -0.030709,2.72247 3.60713,2.82405 5.68472,1.85553 0.324807,-0.138191 -0.988595,-1.34647 -0.822057,-2.39058 0.183073,-1.16458 1.57679,-1.97483 1.32758,-1.90396z" />
    <path
   id="_293826056"
   class="fil39"
   d="M10.9986 70.9509c-0.555125,0.278744 -5.7355,-0.679142 -5.81464,2.28428 -0.0625992,2.52405 3.38036,2.7331 5.33865,1.69254 0.295279,-0.141734 -0.927177,-1.23663 -0.773632,-2.1957 0.171262,-1.06537 1.48466,-1.84254 1.24962,-1.78112z" />
    <path
   id="_293849696"
   class="fil40"
   d="M10.7245 71.0891c-0.36969,0.373233 -5.32447,-0.638984 -5.44022,2.12601 -0.0933082,2.32916 3.15713,2.64452 4.99494,1.53427 0.26457,-0.148821 -0.86694,-1.12915 -0.726387,-2.00081 0.157089,-0.970878 1.38781,-1.7138 1.17167,-1.65947z" />
    <path
   id="_293826416"
   class="fil41"
   d="M10.4505 71.2284c-0.185435,0.464179 -4.91227,-0.601189 -5.06581,1.96774 -0.124017,2.1331 2.93271,2.55239 4.65006,1.37246 0.236223,-0.15827 -0.804341,-1.02048 -0.67678,-1.80475 0.142915,-0.875208 1.2945,-1.58742 1.09253,-1.53545z" />
   </g>
   <path
   id="_293833352"
   class="fil42"
   d="M10.1765 71.3666c0,0.559849 -4.50124,-0.562212 -4.69258,1.81301 -0.155907,1.93821 2.70948,2.46263 4.30635,1.20946 0.206695,-0.161813 -0.742923,-0.90946 -0.627173,-1.60986 0.128742,-0.778356 1.19883,-1.4575 1.0134,-1.41262z" />
  </g>
  <g
   id="_293839376">
   <path
   id="_293841656"
   class="fil33"
   d="M12.6344 71.2284c0,0 1.9701,-0.609456 2.85476,-0.558668 0.85631,0.0496069 1.41616,0.513786 1.32403,1.9264 -0.105119,1.59923 -0.562212,2.67759 -1.25671,2.72602 -0.745285,0.0531503 -2.43664,0.583472 -2.65751,0.485439 -0.191341,-0.0826782 0.519691,-1.47403 0.428745,-2.62444 -0.100395,-1.27797 -0.82442,-2.03388 -0.693316,-1.95475z" />
   <g
   id="g6958">
    <path
   id="_293825360"
   class="fil34"
   d="M12.6887 71.3454c0,0.0342524 1.92168,-0.549219 2.76145,-0.505518 0.803159,0.0448824 1.35828,0.48662 1.26261,1.80711 -0.102757,1.47167 -0.555125,2.49806 -1.19765,2.5642 -0.702765,0.0874027 -2.36341,0.530321 -2.57483,0.421659 -0.178349,-0.0850404 0.493707,-1.376 0.408666,-2.44727 -0.0944894,-1.19293 -0.785443,-1.91223 -0.660244,-1.84018z" />
    <path
   id="_293838560"
   class="fil35"
   d="M12.7407 71.4647c0,0.0685048 1.87325,-0.492526 2.66932,-0.451187 0.747647,0.040158 1.30041,0.459454 1.20238,1.68427 -0.101576,1.34411 -0.548038,2.32444 -1.13742,2.40475 -0.663788,0.121655 -2.29019,0.47599 -2.49452,0.357878 -0.165356,-0.0874027 0.471266,-1.27797 0.389769,-2.27247 -0.090946,-1.10553 -0.750009,-1.79175 -0.629535,-1.72325z" />
    <path
   id="_293857088"
   class="fil36"
   d="M12.7927 71.5863c0,0.101576 1.82483,-0.434651 2.57602,-0.396855 0.695678,0.0342524 1.24372,0.431108 1.14214,1.5638 -0.0992138,1.21655 -0.540952,2.14491 -1.07482,2.24294 -0.624811,0.15827 -2.21814,0.419296 -2.41538,0.291736 -0.154726,-0.0874027 0.446462,-1.17757 0.370871,-2.09412 -0.0838593,-1.02048 -0.711032,-1.66774 -0.598826,-1.6075z" />
    <path
   id="_293827496"
   class="fil37"
   d="M12.847 71.7056c0,0.135828 1.7764,-0.375595 2.48153,-0.343705 0.642528,0.0318902 1.18702,0.402761 1.08308,1.44214 -0.0980327,1.09135 -0.537408,1.96892 -1.0134,2.08349 -0.587015,0.192522 -2.14845,0.364965 -2.33507,0.227956 -0.142915,-0.090946 0.421659,-1.07954 0.349611,-1.91931 -0.0791348,-0.933082 -0.672056,-1.54608 -0.565755,-1.49057z" />
    <path
   id="_293826680"
   class="fil38"
   d="M12.899 71.8249c0,0.170081 1.72797,-0.31772 2.38822,-0.288193 0.589377,0.0259846 1.13151,0.375595 1.02639,1.32049 -0.0992138,0.961429 -0.533865,1.79175 -0.956705,1.91931 -0.545676,0.230318 -2.07286,0.314177 -2.25357,0.166537 -0.129923,-0.0956705 0.396855,-0.981508 0.330713,-1.74215 -0.0732292,-0.84568 -0.633079,-1.42561 -0.535046,-1.376z" />
    <path
   id="_293824832"
   class="fil39"
   d="M12.9533 71.9442c0,0.204333 1.67837,-0.259846 2.29373,-0.235042 0.537408,0.0212601 1.07364,0.347248 0.966154,1.20001 -0.0968516,0.83505 -0.526778,1.61459 -0.896468,1.75868 -0.505518,0.262208 -1.99963,0.258665 -2.17207,0.100395 -0.118112,-0.0956705 0.372052,-0.881113 0.310634,-1.56498 -0.0685048,-0.758277 -0.596464,-1.30395 -0.501975,-1.25907z" />
    <path
   id="_293839328"
   class="fil40"
   d="M13.0053 72.0647c0,0.238586 1.62876,-0.199609 2.20278,-0.180711 0.480715,0.0188979 1.01694,0.320083 0.903554,1.0819 -0.0956705,0.705127 -0.520873,1.43388 -0.833869,1.59569 -0.466541,0.298823 -1.92876,0.203152 -2.09294,0.0366146 -0.106301,-0.0980327 0.348429,-0.784262 0.291736,-1.38899 -0.0614181,-0.673237 -0.558668,-1.1823 -0.471266,-1.1445z" />
    <path
   id="_293846840"
   class="fil41"
   d="M13.0572 72.184c0,0.272838 1.58388,-0.144096 2.11066,-0.127561 0.427564,0.0153545 0.957886,0.294098 0.843317,0.961429 -0.0944894,0.578747 -0.514967,1.25907 -0.773632,1.43506 -0.426383,0.333075 -1.85553,0.14764 -2.01144,-0.0271657 -0.0956705,-0.102757 0.321264,-0.686229 0.271657,-1.21419 -0.0578747,-0.585834 -0.519691,-1.06064 -0.440557,-1.02757z" />
   </g>
   <path
   id="_293846480"
   class="fil42"
   d="M13.1116 72.3056c0,0.309453 1.53309,-0.0850404 2.01499,-0.0720481 0.375595,0.00826782 0.903554,0.26457 0.785443,0.839774 -0.0933082,0.448824 -0.511424,1.0819 -0.713395,1.27324 -0.387406,0.368508 -1.78231,0.0933082 -1.92995,-0.090946 -0.0838593,-0.105119 0.29646,-0.588196 0.250397,-1.0382 -0.050788,-0.498431 -0.480715,-0.938988 -0.407485,-0.911822z" />
  </g>
  <path
   class="fil43"
   d="M6.30126 73.3875c-0.0437013,-2.09176 1.82483,-2.97051 4.20478,-3.12051 2.38349,-0.148821 4.31816,0.540952 4.42328,2.57956 0.105119,2.03861 -1.91459,2.53586 -4.29572,2.68468 -2.37995,0.148821 -4.28509,-0.050788 -4.33234,-2.14373z"
   id="path6969" />
  <g
   id="_293841968">
   <path
   id="_293825048"
   class="fil44"
   d="M6.54103 73.3308c-0.0460636,-2.0327 1.69372,-2.76263 4.03115,-2.87838 2.33861,-0.114568 4.00517,0.439375 4.1032,2.42247 0.0980327,1.9831 -1.73034,2.50869 -4.06777,2.62444 -2.33625,0.114568 -4.02052,-0.138191 -4.06659,-2.16853z" />
   <path
   id="_293842232"
   class="fil45"
   d="M6.78197 73.2706c-0.0484258,-1.9701 1.5638,-2.55121 3.85871,-2.63271 2.29491,-0.0803159 3.68745,0.334256 3.77957,2.2642 0.0956705,1.92758 -1.54254,2.48153 -3.83627,2.56302 -2.29609,0.0803159 -3.75477,-0.223231 -3.80202,-2.19452z" />
   <path
   id="_293847992"
   class="fil46"
   d="M7.01938 73.2139c-0.0484258,-1.91105 1.43506,-2.34334 3.68627,-2.39058 2.25121,-0.0448824 3.37563,0.23268 3.46185,2.10711 0.0874027,1.87443 -1.35947,2.45554 -3.61067,2.50042 -2.25121,0.0472447 -3.48902,-0.308272 -3.53745,-2.21696z" />
   <path
   id="_293845688"
   class="fil47"
   d="M7.26151 73.1537c-0.050788,-1.84845 1.30513,-2.13428 3.51146,-2.14727 2.20751,-0.0106301 3.05909,0.129923 3.14177,1.95121 0.0803159,1.81774 -1.17639,2.43074 -3.38272,2.44137 -2.20751,0.0106301 -3.22209,-0.395674 -3.27051,-2.2453z" />
   <path
   id="_293834288"
   class="fil48"
   d="M7.50009 73.0958c-0.050788,-1.78703 1.17639,-1.92758 3.3402,-1.9016 2.16263,0.0236223 2.74373,0.0248035 2.82051,1.79175 0.0744104,1.76341 -0.992138,2.40239 -3.15476,2.37877 -2.16381,-0.0212601 -2.95752,-0.479533 -3.00594,-2.26893z" />
   <path
   id="_293845640"
   class="fil49"
   d="M7.73986 73.0367c-0.050788,-1.72797 1.04765,-1.71734 3.16894,-1.65947 2.1201,0.0578747 2.42838,-0.0744104 2.49806,1.63348 0.0696859,1.71144 -0.805522,2.37995 -2.92563,2.32208 -2.11892,-0.0590558 -2.69058,-0.568117 -2.74137,-2.29609z" />
   <path
   id="_293826896"
   class="fil50"
   d="M7.97963 72.9812c-0.0519691,-1.66774 0.916547,-1.51065 2.99413,-1.41616 2.0764,0.0933082 2.11538,-0.17953 2.17798,1.4764 0.0661425,1.65474 -0.620086,2.35278 -2.69649,2.25711 -2.0764,-0.090946 -2.42601,-0.651977 -2.47562,-2.31735z" />
   <path
   id="_293855840"
   class="fil51"
   d="M8.21821 72.9222c-0.050788,-1.60632 0.790167,-1.30159 2.82405,-1.17167 2.0327,0.125198 1.79648,-0.283468 1.85672,1.31813 0.0578747,1.59805 -0.437013,2.32562 -2.46972,2.19806 -2.0327,-0.127561 -2.1579,-0.739379 -2.21105,-2.34452z" />
  </g>
  <path
   class="fil52"
   d="M8.45916 72.8666c-0.0531503,-1.5449 0.659063,-1.09135 2.64925,-0.929539 1.989,0.162994 1.48466,-0.382682 1.53781,1.16222 0.0531503,1.5449 -0.251578,2.29963 -2.24058,2.13782 -1.99018,-0.161813 -1.89333,-0.825601 -1.94648,-2.3705z"
   id="path6980" />
  <path
   class="fil53"
   d="M16.1648 76.4301c0,0 2.21459,0.276381 2.5205,-1.32049 0.308272,-1.59805 -0.00236223,-4.56265 -0.555125,-4.94061 -0.223231,-0.154726 -2.1201,0.174805 -2.43664,0.367327 0,0 0.587015,1.2886 0.562212,2.82996 -0.0295279,1.70199 -0.694497,3.2528 -0.090946,3.06382z"
   id="path6982" />
  <g
   id="_293853632">
   <path
   id="_293828552"
   class="fil54"
   d="M15.7159 76.1124c0,0 2.75791,0.28583 3.1713,-1.28387 0.415753,-1.57207 0.00236223,-4.26738 -0.744104,-4.63825 -0.303547,-0.151183 -2.61617,0.164175 -3.04256,0.351973 0,0 0.720481,1.14805 0.712213,2.62917 -0.00118112,1.65002 -0.907098,3.12405 -0.0968516,2.94098z" />
   <path
   id="_293847608"
   class="fil55"
   d="M15.9711 75.9505c0,0 2.47562,0.29646 2.88311,-1.24844 0.407485,-1.54608 0.00590558,-3.96855 -0.726387,-4.33234 -0.298823,-0.148821 -2.32326,0.151183 -2.74373,0.336618 0,0 0.635441,1.00513 0.656701,2.42365 0.030709,1.60278 -0.868121,3.00122 -0.0696859,2.82051z" />
   <path
   id="_293849936"
   class="fil56"
   d="M16.225 75.7864c0,0 2.19333,0.30709 2.59491,-1.21183 0.399218,-1.52128 0.00944894,-3.66973 -0.711032,-4.02761 -0.291736,-0.145277 -2.03034,0.138191 -2.44255,0.318902 0,0 0.5504,0.864578 0.598826,2.22404 0.0649614,1.55081 -0.826782,2.87366 -0.040158,2.69649z" />
   <path
   id="_293832848"
   class="fil57"
   d="M16.4766 75.6222c0,0 1.91341,0.320083 2.3079,-1.17285 0.393312,-1.49529 0.0153545,-3.37209 -0.693316,-3.72406 -0.28583,-0.142915 -1.73624,0.125198 -2.14255,0.302366 0,0 0.466541,0.724025 0.542133,2.02207 0.100395,1.49884 -0.784262,2.74964 -0.0141734,2.57247z" />
   <path
   id="_293849360"
   class="fil58"
   d="M16.7317 75.4604c0,0 1.62994,0.330713 2.01853,-1.13742 0.386225,-1.46931 0.0188979,-3.07799 -0.674418,-3.42051 -0.282287,-0.138191 -1.44451,0.112206 -1.84372,0.289374 0,0 0.38032,0.58111 0.484258,1.81538 0.135828,1.45041 -0.745285,2.62562 0.0153545,2.45318z" />
   <path
   id="_293842352"
   class="fil59"
   d="M16.9845 75.2962c0,0 1.35002,0.341343 1.73034,-1.1008 0.381501,-1.44214 0.0259846,-2.77799 -0.656701,-3.11461 -0.276381,-0.135828 -1.15041,0.100395 -1.54254,0.272838 0,0 0.295279,0.440557 0.427564,1.61222 0.1689,1.39962 -0.703946,2.50161 0.0413391,2.33034z" />
   <path
   id="_293835152"
   class="fil60"
   d="M17.2384 75.1332c0,0 1.06773,0.350792 1.44214,-1.06537 0.372052,-1.41734 0.0283468,-2.48035 -0.641346,-2.80988 -0.269295,-0.134647 -0.857491,0.0874027 -1.24253,0.255121 0,0 0.21142,0.301185 0.372052,1.41262 0.204333,1.34884 -0.662607,2.37286 0.0696859,2.20751z" />
   <path
   id="_293841200"
   class="fil61"
   d="M17.4935 74.9714c0,0 0.785443,0.363784 1.15395,-1.02993 0.364965,-1.39017 0.0354335,-2.18034 -0.62363,-2.50515 -0.26457,-0.129923 -0.563393,0.0755915 -0.94135,0.240948 0,0 0.125198,0.160632 0.311815,1.20828 0.238586,1.29923 -0.621267,2.24885 0.0992138,2.08585z" />
  </g>
  <path
   class="fil62"
   d="M17.829 74.9643c0,0 0.368508,0.373233 0.630716,-0.990957 0.263389,-1.36537 0.0295279,-1.88624 -0.441738,-2.2016 -0.188979,-0.128742 -0.197247,0.0614181 -0.468903,0.223231 0,0 0.030709,0.0188979 0.186616,1.00513 0.201971,1.24844 -0.42284,2.12365 0.0933082,1.9642z"
   id="path6993" />
  <path
   class="fil63"
   d="M3.71934 48.9892l0 -0.249216c0,-1.5449 0.745285,-2.80633 1.65593,-2.80633l12.1183 0c0.910641,0 1.65356,1.26143 1.65356,2.80633l0 0.249216c0,1.54372 -0.742923,2.80515 -1.65356,2.80515l-12.1183 0c-0.910641,0 -1.65593,-1.26143 -1.65593,-2.80515z"
   id="path6995" />
  <path
   class="fil64"
   d="M3.06145 48.9892l0 -0.249216c0,-1.03112 0.252759,-1.97955 0.657882,-2.66578l0.00236223 0c0.42284,-0.711032 1.00985,-1.15868 1.65356,-1.15868l12.1183 0c0.646071,0 1.23545,0.445281 1.65356,1.15749 0.406304,0.685048 0.659063,1.63585 0.659063,2.66696l0 0.249216c0,1.0323 -0.252759,1.97837 -0.659063,2.6646 -0.418115,0.713395 -1.00513,1.15631 -1.65356,1.15631l-12.1183 0c-0.643709,0 -1.23072,-0.440557 -1.65356,-1.15631l-0.00236223 0c-0.405123,-0.686229 -0.657882,-1.6323 -0.657882,-2.6646zm1.31458 -0.249216l0 0.249216c0,0.510242 0.121655,0.970878 0.315358,1.29923l-0.00236223 0.00236223c0.177168,0.297641 0.420478,0.485439 0.686229,0.485439l12.1183 0c0.26457,0 0.504337,-0.19016 0.682686,-0.487801 0.191341,-0.32835 0.312996,-0.788986 0.312996,-1.29923l0 -0.249216c0,-0.511424 -0.121655,-0.974421 -0.312996,-1.30041 -0.178349,-0.300004 -0.420478,-0.488982 -0.682686,-0.488982l-12.1183 0c-0.265751,0 -0.509061,0.188979 -0.686229,0.488982l0.00236223 0.00236223c-0.191341,0.325988 -0.315358,0.786624 -0.315358,1.29805z"
   id="path6997" />
  <path
   class="fil32"
   d="M16.9644 45.9336l0.52914 0c0.908279,0 1.65356,1.2638 1.65356,2.80633l0 0.249216c0,1.54136 -0.742923,2.80515 -1.65356,2.80515l-0.226774 0c0.315358,-1.53191 0.587015,-3.97682 -0.302366,-5.8607z"
   id="path6999" />
  <g
   id="_293844176">
   <path
   id="_293827472"
   class="fil33"
   d="M12.6462 45.7423c-1.66656,-0.287011 -8.2064,-0.914184 -8.06585,3.21854 0.12638,3.70516 4.73155,3.27878 7.41033,2.66696 0.471266,-0.108663 -1.2945,-1.89097 -1.06891,-3.37209 0.252759,-1.64411 2.05278,-2.61381 1.72443,-2.51342z" />
   <g
   id="g7003">
    <path
   id="_293831408"
   class="fil34"
   d="M12.3698 45.8769c-1.47876,-0.193703 -7.79183,-0.876389 -7.69025,3.065 0.0956705,3.50674 4.50832,3.18665 7.06426,2.50279 0.4441,-0.112206 -1.23072,-1.78231 -1.01694,-3.17602 0.237404,-1.54844 1.95593,-2.48625 1.64293,-2.39176z" />
    <path
   id="_293834912"
   class="fil35"
   d="M12.0958 46.0128c-1.2945,-0.0980327 -7.3808,-0.83505 -7.31348,2.91027 0.0625992,3.30949 4.28037,3.09453 6.71819,2.34097 0.413391,-0.121655 -1.17167,-1.67482 -0.968516,-2.97996 0.223231,-1.45277 1.86026,-2.35869 1.5638,-2.27129z" />
    <path
   id="_293854664"
   class="fil36"
   d="M11.8218 46.1533c-1.11025,-0.00590558 -6.96977,-0.796073 -6.93906,2.74964 0.030709,3.11461 4.05596,3.00594 6.37331,2.18034 0.383863,-0.12638 -1.11025,-1.5638 -0.921271,-2.78271 0.210239,-1.3571 1.76695,-2.22995 1.48703,-2.14727z" />
    <path
   id="_293825912"
   class="fil37"
   d="M11.5478 46.2903c-0.924815,0.0885838 -6.55874,-0.759458 -6.56583,2.59373 0,2.91854 3.83154,2.91618 6.02842,2.01971 0.355516,-0.132285 -1.04765,-1.4575 -0.870483,-2.59019 0.197247,-1.25907 1.67246,-2.09884 1.40789,-2.02325z" />
    <path
   id="_293836136"
   class="fil38"
   d="M11.2726 46.4238c-0.738198,0.183073 -6.14653,-0.718119 -6.19023,2.43901 -0.030709,2.72011 3.60713,2.82287 5.68472,1.85553 0.324807,-0.138191 -0.988595,-1.34647 -0.822057,-2.3894 0.183073,-1.16576 1.57679,-1.97483 1.32758,-1.90514z" />
    <path
   id="_293849864"
   class="fil39"
   d="M10.9986 46.5608c-0.555125,0.278744 -5.7355,-0.680323 -5.81464,2.2831 -0.0625992,2.52405 3.38036,2.7331 5.33865,1.69372 0.295279,-0.142915 -0.927177,-1.23781 -0.773632,-2.19688 0.171262,-1.06655 1.48466,-1.84254 1.24962,-1.77994z" />
    <path
   id="_293827376"
   class="fil40"
   d="M10.7245 46.699c-0.36969,0.370871 -5.32447,-0.638984 -5.44022,2.12601 -0.0933082,2.32798 3.15713,2.64334 4.99494,1.53309 0.26457,-0.148821 -0.86694,-1.12915 -0.726387,-2.00199 0.157089,-0.969697 1.38781,-1.71262 1.17167,-1.65711z" />
    <path
   id="_293840696"
   class="fil41"
   d="M10.4505 46.8372c-0.185435,0.464179 -4.91227,-0.601189 -5.06581,1.96892 -0.124017,2.13192 2.93271,2.55121 4.65006,1.37128 0.236223,-0.157089 -0.804341,-1.02048 -0.67678,-1.80475 0.142915,-0.875208 1.2945,-1.58624 1.09253,-1.53545z" />
   </g>
   <path
   id="_293852504"
   class="fil42"
   d="M10.1765 46.9754c0,0.561031 -4.50124,-0.562212 -4.69258,1.81301 -0.155907,1.93821 2.70948,2.46263 4.30635,1.21064 0.206695,-0.162994 -0.742923,-0.910641 -0.627173,-1.61104 0.128742,-0.777175 1.19883,-1.4575 1.0134,-1.41262z" />
  </g>
  <g
   id="_293846864">
   <path
   id="_293827184"
   class="fil33"
   d="M12.6344 46.8372c0,0 1.9701,-0.609456 2.85476,-0.557487 0.85631,0.0484258 1.41616,0.512605 1.32403,1.92522 -0.105119,1.59923 -0.562212,2.67759 -1.25671,2.72602 -0.745285,0.0519691 -2.43664,0.584653 -2.65751,0.48662 -0.191341,-0.0838593 0.519691,-1.47403 0.428745,-2.62444 -0.100395,-1.27797 -0.82442,-2.03506 -0.693316,-1.95593z" />
   <g
   id="g7016">
    <path
   id="_293848016"
   class="fil34"
   d="M12.6887 46.9541c0,0.0342524 1.92168,-0.549219 2.76145,-0.504337 0.803159,0.0448824 1.35828,0.485439 1.26261,1.80593 -0.102757,1.47167 -0.555125,2.49924 -1.19765,2.56539 -0.702765,0.0874027 -2.36341,0.527959 -2.57483,0.421659 -0.178349,-0.0850404 0.493707,-1.376 0.408666,-2.44846 -0.0944894,-1.19175 -0.785443,-1.91223 -0.660244,-1.84018z" />
    <path
   id="_293836400"
   class="fil35"
   d="M12.7407 47.0734c0,0.0685048 1.87325,-0.493707 2.66932,-0.451187 0.747647,0.040158 1.30041,0.458273 1.20238,1.68427 -0.101576,1.34529 -0.548038,2.32444 -1.13742,2.40594 -0.663788,0.120474 -2.29019,0.472447 -2.49452,0.357878 -0.165356,-0.0897649 0.471266,-1.27797 0.389769,-2.27365 -0.090946,-1.10553 -0.750009,-1.79057 -0.629535,-1.72325z" />
    <path
   id="_293837984"
   class="fil36"
   d="M12.7927 47.1951c0,0.102757 1.82483,-0.434651 2.57602,-0.395674 0.695678,0.0330713 1.24372,0.429927 1.14214,1.56262 -0.0992138,1.21655 -0.540952,2.14609 -1.07482,2.24412 -0.624811,0.157089 -2.21814,0.419296 -2.41538,0.291736 -0.154726,-0.0874027 0.446462,-1.17875 0.370871,-2.09412 -0.0838593,-1.02048 -0.711032,-1.66774 -0.598826,-1.60868z" />
    <path
   id="_293841152"
   class="fil37"
   d="M12.847 47.3144c0,0.135828 1.7764,-0.374414 2.48153,-0.342524 0.642528,0.0318902 1.18702,0.402761 1.08308,1.44214 -0.0980327,1.09017 -0.537408,1.96774 -1.0134,2.08349 -0.587015,0.191341 -2.14845,0.363784 -2.33507,0.227956 -0.142915,-0.0921271 0.421659,-1.08072 0.349611,-1.91931 -0.0791348,-0.933082 -0.672056,-1.54726 -0.565755,-1.49175z" />
    <path
   id="_293844992"
   class="fil38"
   d="M12.899 47.4337c0,0.170081 1.72797,-0.31772 2.38822,-0.287011 0.589377,0.0248035 1.13151,0.372052 1.02639,1.32049 -0.0992138,0.960248 -0.533865,1.79175 -0.956705,1.91931 -0.545676,0.230318 -2.07286,0.312996 -2.25357,0.165356 -0.129923,-0.0956705 0.396855,-0.981508 0.330713,-1.74215 -0.0732292,-0.84568 -0.633079,-1.42443 -0.535046,-1.376z" />
    <path
   id="_293855264"
   class="fil39"
   d="M12.9533 47.5529c0,0.204333 1.67837,-0.259846 2.29373,-0.233861 0.537408,0.0212601 1.07364,0.347248 0.966154,1.19883 -0.0968516,0.83505 -0.526778,1.61459 -0.896468,1.75986 -0.505518,0.262208 -1.99963,0.257483 -2.17207,0.100395 -0.118112,-0.0968516 0.372052,-0.882294 0.310634,-1.56616 -0.0685048,-0.758277 -0.596464,-1.30395 -0.501975,-1.25907z" />
    <path
   id="_293852792"
   class="fil40"
   d="M13.0053 47.6746c0,0.238586 1.62876,-0.20079 2.20278,-0.180711 0.480715,0.0188979 1.01694,0.318902 0.903554,1.0819 -0.0956705,0.705127 -0.520873,1.43388 -0.833869,1.59569 -0.466541,0.297641 -1.92876,0.201971 -2.09294,0.0354335 -0.106301,-0.0980327 0.348429,-0.783081 0.291736,-1.38899 -0.0614181,-0.673237 -0.558668,-1.1823 -0.471266,-1.14332z" />
    <path
   id="_293856776"
   class="fil41"
   d="M13.0572 47.7939c0,0.272838 1.58388,-0.145277 2.11066,-0.127561 0.427564,0.0141734 0.957886,0.291736 0.843317,0.960248 -0.0944894,0.577566 -0.514967,1.25907 -0.773632,1.43624 -0.426383,0.331894 -1.85553,0.146458 -2.01144,-0.0283468 -0.0956705,-0.101576 0.321264,-0.68741 0.271657,-1.21419 -0.0578747,-0.585834 -0.519691,-1.06064 -0.440557,-1.02639z" />
   </g>
   <path
   id="_293856704"
   class="fil42"
   d="M13.1116 47.9156c0,0.308272 1.53309,-0.0862215 2.01499,-0.0732292 0.375595,0.00944894 0.903554,0.26457 0.785443,0.839774 -0.0933082,0.448824 -0.511424,1.0819 -0.713395,1.27324 -0.387406,0.368508 -1.78231,0.0944894 -1.92995,-0.090946 -0.0838593,-0.103938 0.29646,-0.588196 0.250397,-1.03702 -0.050788,-0.498431 -0.480715,-0.940169 -0.407485,-0.911822z" />
  </g>
  <path
   class="fil43"
   d="M6.30126 48.9975c-0.0437013,-2.09176 1.82483,-2.97169 4.20478,-3.12051 2.38349,-0.150002 4.31816,0.540952 4.42328,2.57956 0.105119,2.03625 -1.91459,2.53468 -4.29572,2.6835 -2.37995,0.148821 -4.28509,-0.050788 -4.33234,-2.14255z"
   id="path7027" />
  <g
   id="_293856728">
   <path
   id="_293851016"
   class="fil44"
   d="M6.54103 48.9396c-0.0460636,-2.03152 1.69372,-2.76263 4.03115,-2.8772 2.33861,-0.115749 4.00517,0.438194 4.1032,2.42129 0.0980327,1.9831 -1.73034,2.50987 -4.06777,2.62444 -2.33625,0.115749 -4.02052,-0.138191 -4.06659,-2.16853z" />
   <path
   id="_293839616"
   class="fil45"
   d="M6.78197 48.8805c-0.0484258,-1.97128 1.5638,-2.55239 3.85871,-2.63389 2.29491,-0.0803159 3.68745,0.335437 3.77957,2.26302 0.0956705,1.92995 -1.54254,2.48389 -3.83627,2.5642 -2.29609,0.0814971 -3.75477,-0.223231 -3.80202,-2.19333z" />
   <path
   id="_293836976"
   class="fil46"
   d="M7.01938 48.8226c-0.0484258,-1.91105 1.43506,-2.3457 3.68627,-2.39058 2.25121,-0.0460636 3.37563,0.23268 3.46185,2.10711 0.0874027,1.87443 -1.35947,2.45672 -3.61067,2.50042 -2.25121,0.0472447 -3.48902,-0.308272 -3.53745,-2.21696z" />
   <path
   id="_293836712"
   class="fil47"
   d="M7.26151 48.7624c-0.050788,-1.84845 1.30513,-2.13428 3.51146,-2.14727 2.20751,-0.0106301 3.05909,0.129923 3.14177,1.95239 0.0803159,1.81656 -1.17639,2.42956 -3.38272,2.44019 -2.20751,0.0106301 -3.22209,-0.395674 -3.27051,-2.2453z" />
   <path
   id="_293836328"
   class="fil48"
   d="M7.50009 48.7057c-0.050788,-1.78939 1.17639,-1.92758 3.3402,-1.90278 2.16263,0.0212601 2.74373,0.0259846 2.82051,1.79175 0.0744104,1.76341 -0.992138,2.40239 -3.15476,2.37995 -2.16381,-0.0236223 -2.95752,-0.479533 -3.00594,-2.26893z" />
   <path
   id="_293845664"
   class="fil49"
   d="M7.73986 48.6455c-0.050788,-1.72679 1.04765,-1.71853 3.16894,-1.65947 2.1201,0.0578747 2.42838,-0.0744104 2.49806,1.63467 0.0696859,1.71026 -0.805522,2.37877 -2.92563,2.31971 -2.11892,-0.0578747 -2.69058,-0.566936 -2.74137,-2.29491z" />
   <path
   id="_293844872"
   class="fil50"
   d="M7.97963 48.59c-0.0519691,-1.66774 0.916547,-1.50947 2.99413,-1.41616 2.0764,0.0933082 2.11538,-0.17953 2.17798,1.4764 0.0661425,1.65474 -0.620086,2.3516 -2.69649,2.2583 -2.0764,-0.0921271 -2.42601,-0.651977 -2.47562,-2.31853z" />
   <path
   id="_293843600"
   class="fil51"
   d="M8.21821 48.5309c-0.050788,-1.60632 0.790167,-1.30159 2.82405,-1.17167 2.0327,0.125198 1.79648,-0.283468 1.85672,1.31813 0.0578747,1.59805 -0.437013,2.32444 -2.46972,2.19924 -2.0327,-0.128742 -2.1579,-0.739379 -2.21105,-2.3457z" />
  </g>
  <path
   class="fil52"
   d="M8.45916 48.4754c-0.0531503,-1.5449 0.659063,-1.09135 2.64925,-0.928358 1.989,0.161813 1.48466,-0.383863 1.53781,1.16104 0.0531503,1.54608 -0.251578,2.30082 -2.24058,2.13782 -1.99018,-0.161813 -1.89333,-0.825601 -1.94648,-2.3705z"
   id="path7038" />
  <path
   class="fil53"
   d="M16.1648 52.0388c0,0 2.21459,0.277562 2.5205,-1.32049 0.308272,-1.59805 -0.00236223,-4.56265 -0.555125,-4.94179 -0.223231,-0.153545 -2.1201,0.177168 -2.43664,0.368508 0,0 0.587015,1.2886 0.562212,2.83114 -0.0295279,1.70199 -0.694497,3.25043 -0.090946,3.06264z"
   id="path7040" />
  <g
   id="_293837792">
   <path
   id="_293840888"
   class="fil54"
   d="M15.7159 51.7223c0,0 2.75791,0.284649 3.1713,-1.28506 0.415753,-1.57207 0.00236223,-4.26619 -0.744104,-4.63706 -0.303547,-0.151183 -2.61617,0.164175 -3.04256,0.350792 0,0 0.720481,1.14805 0.712213,2.62917 -0.00118112,1.6512 -0.907098,3.12524 -0.0968516,2.94216z" />
   <path
   id="_293831360"
   class="fil55"
   d="M15.9711 51.5605c0,0 2.47562,0.295279 2.88311,-1.24844 0.407485,-1.54726 0.00590558,-3.96855 -0.726387,-4.33352 -0.298823,-0.148821 -2.32326,0.151183 -2.74373,0.336618 0,0 0.635441,1.00513 0.656701,2.42483 0.030709,1.60159 -0.868121,3.00122 -0.0696859,2.82051z" />
   <path
   id="_293831672"
   class="fil56"
   d="M16.225 51.3963c0,0 2.19333,0.305909 2.59491,-1.21301 0.399218,-1.5201 0.00944894,-3.66973 -0.711032,-4.02761 -0.291736,-0.145277 -2.03034,0.138191 -2.44255,0.318902 0,0 0.5504,0.865759 0.598826,2.22404 0.0649614,1.55081 -0.826782,2.87366 -0.040158,2.69767z" />
   <path
   id="_293855432"
   class="fil57"
   d="M16.4766 51.2321c0,0 1.91341,0.318902 2.3079,-1.17403 0.393312,-1.49529 0.0153545,-3.37209 -0.693316,-3.72406 -0.28583,-0.141734 -1.73624,0.124017 -2.14255,0.303547 0,0 0.466541,0.724025 0.542133,2.02089 0.100395,1.50002 -0.784262,2.74964 -0.0141734,2.57365z" />
   <path
   id="_293846720"
   class="fil58"
   d="M16.7317 51.0703c0,0 1.62994,0.329532 2.01853,-1.13978 0.386225,-1.46813 0.0188979,-3.07681 -0.674418,-3.41933 -0.282287,-0.138191 -1.44451,0.113387 -1.84372,0.289374 0,0 0.38032,0.582291 0.484258,1.81538 0.135828,1.45041 -0.745285,2.6268 0.0153545,2.45436z" />
   <path
   id="_293824736"
   class="fil59"
   d="M16.9845 50.9061c0,0 1.35002,0.340162 1.73034,-1.10198 0.381501,-1.44214 0.0259846,-2.77681 -0.656701,-3.11342 -0.276381,-0.13701 -1.15041,0.0992138 -1.54254,0.271657 0,0 0.295279,0.441738 0.427564,1.61341 0.1689,1.39962 -0.703946,2.50042 0.0413391,2.33034z" />
   <path
   id="_293827160"
   class="fil60"
   d="M17.2384 50.742c0,0 1.06773,0.351973 1.44214,-1.06537 0.372052,-1.41616 0.0283468,-2.47916 -0.641346,-2.80988 -0.269295,-0.133466 -0.857491,0.0874027 -1.24253,0.256302 0,0 0.21142,0.300004 0.372052,1.41143 0.204333,1.34884 -0.662607,2.37404 0.0696859,2.20751z" />
   <path
   id="_293853944"
   class="fil61"
   d="M17.4935 50.5801c0,0 0.785443,0.363784 1.15395,-1.02875 0.364965,-1.39136 0.0354335,-2.18152 -0.62363,-2.50515 -0.26457,-0.129923 -0.563393,0.0744104 -0.94135,0.240948 0,0 0.125198,0.159451 0.311815,1.2071 0.238586,1.29923 -0.621267,2.25003 0.0992138,2.08585z" />
  </g>
  <path
   class="fil62"
   d="M17.829 50.5731c0,0 0.368508,0.373233 0.630716,-0.989776 0.263389,-1.36537 0.0295279,-1.88742 -0.441738,-2.20278 -0.188979,-0.127561 -0.197247,0.0614181 -0.468903,0.223231 0,0 0.030709,0.020079 0.186616,1.00631 0.201971,1.24726 -0.42284,2.12365 0.0933082,1.96302z"
   id="path7051" />
  <path
   class="fil65"
   d="M3.71934 25.0042l0 -0.250397c0,-1.54254 0.745285,-2.80633 1.65593,-2.80633l12.1183 0c0.910641,0 1.65356,1.2638 1.65356,2.80633l0 0.250397c0,1.54254 -0.742923,2.80633 -1.65356,2.80633l-12.1183 0c-0.910641,0 -1.65593,-1.2638 -1.65593,-2.80633z"
   id="path7053" />
  <path
   class="fil66"
   d="M3.06145 25.0042l0 -0.249216c0,-1.0323 0.252759,-1.97837 0.657882,-2.6646l0.00236223 0c0.42284,-0.713395 1.00985,-1.15868 1.65356,-1.15868l12.1183 0c0.646071,0 1.23545,0.442919 1.65356,1.15513 0.406304,0.685048 0.659063,1.63585 0.659063,2.66814l0 0.249216c0,1.03112 -0.252759,1.97955 -0.659063,2.66578 -0.418115,0.711032 -1.00513,1.15395 -1.65356,1.15395l-12.1183 0c-0.643709,0 -1.23072,-0.440557 -1.65356,-1.15395l-0.00236223 0c-0.405123,-0.686229 -0.657882,-1.63467 -0.657882,-2.66578zm1.31458 -0.249216l0 0.249216c0,0.511424 0.121655,0.972059 0.315358,1.29805l-0.00236223 0.00236223c0.177168,0.300004 0.420478,0.487801 0.686229,0.487801l12.1183 0c0.26457,0 0.504337,-0.19016 0.682686,-0.490164 0.191341,-0.325988 0.312996,-0.786624 0.312996,-1.29805l0 -0.249216c0,-0.510242 -0.121655,-0.975603 -0.312996,-1.30159 -0.178349,-0.300004 -0.420478,-0.487801 -0.682686,-0.487801l-12.1183 0c-0.265751,0 -0.509061,0.187798 -0.686229,0.487801l0.00236223 0.00236223c-0.191341,0.325988 -0.315358,0.788986 -0.315358,1.29923z"
   id="path7055" />
  <path
   class="fil32"
   d="M16.9644 21.9475l0.52914 0c0.908279,0 1.65356,1.26616 1.65356,2.80633l0 0.250397c0,1.54254 -0.742923,2.80633 -1.65356,2.80633l-0.226774 0c0.315358,-1.53427 0.587015,-3.97918 -0.302366,-5.86306z"
   id="path7057" />
  <g
   id="_293845064">
   <path
   id="_293844488"
   class="fil33"
   d="M12.6462 21.7585c-1.66656,-0.289374 -8.2064,-0.916547 -8.06585,3.21854 0.12638,3.7028 4.73155,3.27878 7.41033,2.6646 0.471266,-0.106301 -1.2945,-1.89097 -1.06891,-3.36973 0.252759,-1.64648 2.05278,-2.61381 1.72443,-2.51342z" />
   <g
   id="g7061">
    <path
   id="_293840792"
   class="fil34"
   d="M12.3698 21.8908c-1.47876,-0.193703 -7.79183,-0.874027 -7.69025,3.065 0.0956705,3.50674 4.50832,3.18665 7.06426,2.50279 0.4441,-0.112206 -1.23072,-1.78231 -1.01694,-3.17602 0.237404,-1.54844 1.95593,-2.48625 1.64293,-2.39176z" />
    <path
   id="_293839016"
   class="fil35"
   d="M12.0958 22.029c-1.2945,-0.100395 -7.3808,-0.837412 -7.31348,2.90791 0.0625992,3.30949 4.28037,3.09453 6.71819,2.34097 0.413391,-0.119293 -1.17167,-1.67482 -0.968516,-2.97878 0.223231,-1.45277 1.86026,-2.35751 1.5638,-2.27011z" />
    <path
   id="_293847368"
   class="fil36"
   d="M11.8218 22.1672c-1.11025,-0.00590558 -6.96977,-0.796073 -6.93906,2.75082 0.030709,3.11342 4.05596,3.00476 6.37331,2.18034 0.383863,-0.125198 -1.11025,-1.56498 -0.921271,-2.78389 0.210239,-1.3571 1.76695,-2.22995 1.48703,-2.14727z" />
    <path
   id="_293840960"
   class="fil37"
   d="M11.5478 22.3042c-0.924815,0.0885838 -6.55874,-0.759458 -6.56583,2.59373 0,2.91854 3.83154,2.91618 6.02842,2.01971 0.355516,-0.132285 -1.04765,-1.4575 -0.870483,-2.58783 0.197247,-1.25907 1.67246,-2.10121 1.40789,-2.02562z" />
    <path
   id="_293827088"
   class="fil38"
   d="M11.2726 22.4377c-0.738198,0.183073 -6.14653,-0.718119 -6.19023,2.43901 -0.030709,2.72247 3.60713,2.82523 5.68472,1.85553 0.324807,-0.135828 -0.988595,-1.34411 -0.822057,-2.3894 0.183073,-1.16576 1.57679,-1.97365 1.32758,-1.90514z" />
    <path
   id="_293835224"
   class="fil39"
   d="M10.9986 22.5747c-0.555125,0.278744 -5.7355,-0.677961 -5.81464,2.2831 -0.0625992,2.52641 3.38036,2.7331 5.33865,1.69608 0.295279,-0.145277 -0.927177,-1.24017 -0.773632,-2.19688 0.171262,-1.06655 1.48466,-1.8449 1.24962,-1.78231z" />
    <path
   id="_293837168"
   class="fil40"
   d="M10.7245 22.7152c-0.36969,0.36969 -5.32447,-0.641346 -5.44022,2.12365 -0.0933082,2.33034 3.15713,2.6457 4.99494,1.53309 0.26457,-0.148821 -0.86694,-1.12679 -0.726387,-1.99963 0.157089,-0.972059 1.38781,-1.71498 1.17167,-1.65711z" />
    <path
   id="_293848256"
   class="fil41"
   d="M10.4505 22.8511c-0.185435,0.466541 -4.91227,-0.601189 -5.06581,1.96892 -0.124017,2.13428 2.93271,2.55357 4.65006,1.37128 0.236223,-0.155907 -0.804341,-1.02048 -0.67678,-1.80475 0.142915,-0.872845 1.2945,-1.58624 1.09253,-1.53545z" />
   </g>
   <path
   id="_293837576"
   class="fil42"
   d="M10.1765 22.9893c0,0.561031 -4.50124,-0.559849 -4.69258,1.81538 -0.155907,1.93585 2.70948,2.46263 4.30635,1.20828 0.206695,-0.162994 -0.742923,-0.910641 -0.627173,-1.60868 0.128742,-0.777175 1.19883,-1.45986 1.0134,-1.41498z" />
  </g>
  <g
   id="_293831384">
   <path
   id="_293825888"
   class="fil33"
   d="M12.6344 22.8511c0,0 1.9701,-0.607094 2.85476,-0.557487 0.85631,0.0484258 1.41616,0.512605 1.32403,1.92522 -0.105119,1.59923 -0.562212,2.67759 -1.25671,2.72602 -0.745285,0.0543314 -2.43664,0.584653 -2.65751,0.487801 -0.191341,-0.0826782 0.519691,-1.47522 0.428745,-2.62326 -0.100395,-1.28033 -0.82442,-2.03506 -0.693316,-1.95829z" />
   <g
   id="g7074">
    <path
   id="_293838056"
   class="fil34"
   d="M12.6887 22.9704c0,0.0318902 1.92168,-0.551582 2.76145,-0.506699 0.803159,0.0448824 1.35828,0.487801 1.26261,1.80593 -0.102757,1.47167 -0.555125,2.50161 -1.19765,2.56539 -0.702765,0.0874027 -2.36341,0.530321 -2.57483,0.424021 -0.178349,-0.0874027 0.493707,-1.376 0.408666,-2.44964 -0.0944894,-1.19293 -0.785443,-1.91105 -0.660244,-1.839z" />
    <path
   id="_293854304"
   class="fil35"
   d="M12.7407 23.0873c0,0.0685048 1.87325,-0.491345 2.66932,-0.451187 0.747647,0.040158 1.30041,0.459454 1.20238,1.68545 -0.101576,1.34411 -0.548038,2.32326 -1.13742,2.40475 -0.663788,0.122836 -2.29019,0.474809 -2.49452,0.357878 -0.165356,-0.0874027 0.471266,-1.27797 0.389769,-2.27365 -0.090946,-1.10553 -0.750009,-1.78939 -0.629535,-1.72325z" />
    <path
   id="_293832368"
   class="fil36"
   d="M12.7927 23.2089c0,0.102757 1.82483,-0.432289 2.57602,-0.395674 0.695678,0.0354335 1.24372,0.432289 1.14214,1.56498 -0.0992138,1.21655 -0.540952,2.14491 -1.07482,2.24176 -0.624811,0.157089 -2.21814,0.419296 -2.41538,0.292917 -0.154726,-0.0885838 0.446462,-1.17757 0.370871,-2.0953 -0.0838593,-1.01812 -0.711032,-1.66774 -0.598826,-1.60868z" />
    <path
   id="_293838464"
   class="fil37"
   d="M12.847 23.3282c0,0.135828 1.7764,-0.374414 2.48153,-0.342524 0.642528,0.0318902 1.18702,0.403942 1.08308,1.44332 -0.0980327,1.08899 -0.537408,1.96656 -1.0134,2.08231 -0.587015,0.191341 -2.14845,0.363784 -2.33507,0.227956 -0.142915,-0.0921271 0.421659,-1.08072 0.349611,-1.91931 -0.0791348,-0.931901 -0.672056,-1.54726 -0.565755,-1.49175z" />
    <path
   id="_293837456"
   class="fil38"
   d="M12.899 23.4499c0,0.167719 1.72797,-0.320083 2.38822,-0.289374 0.589377,0.0248035 1.13151,0.374414 1.02639,1.32285 -0.0992138,0.960248 -0.533865,1.78939 -0.956705,1.91931 -0.545676,0.227956 -2.07286,0.310634 -2.25357,0.162994 -0.129923,-0.0933082 0.396855,-0.981508 0.330713,-1.74215 -0.0732292,-0.84568 -0.633079,-1.42443 -0.535046,-1.37364z" />
    <path
   id="_293835272"
   class="fil39"
   d="M12.9533 23.5668c0,0.204333 1.67837,-0.259846 2.29373,-0.233861 0.537408,0.0236223 1.07364,0.347248 0.966154,1.2012 -0.0968516,0.832687 -0.526778,1.61222 -0.896468,1.7575 -0.505518,0.263389 -1.99963,0.257483 -2.17207,0.101576 -0.118112,-0.0980327 0.372052,-0.883475 0.310634,-1.56498 -0.0685048,-0.760639 -0.596464,-1.30632 -0.501975,-1.26143z" />
    <path
   id="_293843408"
   class="fil40"
   d="M13.0053 23.6885c0,0.240948 1.62876,-0.20079 2.20278,-0.17953 0.480715,0.0177168 1.01694,0.320083 0.903554,1.08072 -0.0956705,0.707489 -0.520873,1.43506 -0.833869,1.59687 -0.466541,0.29646 -1.92876,0.203152 -2.09294,0.0342524 -0.106301,-0.0980327 0.348429,-0.781899 0.291736,-1.38899 -0.0614181,-0.673237 -0.558668,-1.17994 -0.471266,-1.14332z" />
    <path
   id="_293843816"
   class="fil41"
   d="M13.0572 23.8078c0,0.2752 1.58388,-0.142915 2.11066,-0.127561 0.427564,0.0141734 0.957886,0.294098 0.843317,0.960248 -0.0944894,0.579928 -0.514967,1.25907 -0.773632,1.43624 -0.426383,0.334256 -1.85553,0.148821 -2.01144,-0.0283468 -0.0956705,-0.101576 0.321264,-0.686229 0.271657,-1.21183 -0.0578747,-0.588196 -0.519691,-1.06064 -0.440557,-1.02875z" />
   </g>
   <path
   id="_293826224"
   class="fil42"
   d="M13.1116 23.9306c0,0.30709 1.53309,-0.0850404 2.01499,-0.0744104 0.375595,0.0106301 0.903554,0.26457 0.785443,0.839774 -0.0933082,0.451187 -0.511424,1.0819 -0.713395,1.27324 -0.387406,0.368508 -1.78231,0.0944894 -1.92995,-0.090946 -0.0838593,-0.102757 0.29646,-0.588196 0.250397,-1.03584 -0.050788,-0.499612 -0.480715,-0.938988 -0.407485,-0.911822z" />
  </g>
  <path
   class="fil43"
   d="M6.30126 25.0113c-0.0437013,-2.09176 1.82483,-2.96933 4.20478,-3.12051 2.38349,-0.150002 4.31816,0.540952 4.42328,2.57956 0.105119,2.03861 -1.91459,2.53468 -4.29572,2.6835 -2.37995,0.151183 -4.28509,-0.050788 -4.33234,-2.14255z"
   id="path7085" />
  <g
   id="_293828960">
   <path
   id="_293847128"
   class="fil44"
   d="M6.54103 24.9535c-0.0460636,-2.03152 1.69372,-2.76027 4.03115,-2.8772 2.33861,-0.115749 4.00517,0.438194 4.1032,2.42365 0.0980327,1.9831 -1.73034,2.50751 -4.06777,2.62208 -2.33625,0.115749 -4.02052,-0.135828 -4.06659,-2.16853z" />
   <path
   id="_293851784"
   class="fil45"
   d="M6.78197 24.8944c-0.0484258,-1.97128 1.5638,-2.55239 3.85871,-2.63389 2.29491,-0.0803159 3.68745,0.335437 3.77957,2.26538 0.0956705,1.92758 -1.54254,2.48153 -3.83627,2.56184 -2.29609,0.0814971 -3.75477,-0.223231 -3.80202,-2.19333z" />
   <path
   id="_293832152"
   class="fil46"
   d="M7.01938 24.8389c-0.0484258,-1.91105 1.43506,-2.3457 3.68627,-2.39294 2.25121,-0.0437013 3.37563,0.23268 3.46185,2.10711 0.0874027,1.87443 -1.35947,2.45672 -3.61067,2.50279 -2.25121,0.0448824 -3.48902,-0.308272 -3.53745,-2.21696z" />
   <path
   id="_293840456"
   class="fil47"
   d="M7.26151 24.7787c-0.050788,-1.85081 1.30513,-2.13664 3.51146,-2.14727 2.20751,-0.0106301 3.05909,0.128742 3.14177,1.95002 0.0803159,1.81892 -1.17639,2.42956 -3.38272,2.44019 -2.20751,0.0106301 -3.22209,-0.395674 -3.27051,-2.24294z" />
   <path
   id="_293833904"
   class="fil48"
   d="M7.50009 24.7196c-0.050788,-1.78703 1.17639,-1.92758 3.3402,-1.90278 2.16263,0.0236223 2.74373,0.0259846 2.82051,1.79175 0.0744104,1.76341 -0.992138,2.40475 -3.15476,2.37995 -2.16381,-0.0212601 -2.95752,-0.479533 -3.00594,-2.26893z" />
   <path
   id="_293828168"
   class="fil49"
   d="M7.73986 24.6594c-0.050788,-1.72679 1.04765,-1.71616 3.16894,-1.65711 2.1201,0.0578747 2.42838,-0.0767726 2.49806,1.63348 0.0696859,1.70908 -0.805522,2.37759 -2.92563,2.32089 -2.11892,-0.060237 -2.69058,-0.566936 -2.74137,-2.29727z" />
   <path
   id="_293848808"
   class="fil50"
   d="M7.97963 24.6038c-0.0519691,-1.66774 0.916547,-1.50947 2.99413,-1.41616 2.0764,0.0933082 2.11538,-0.178349 2.17798,1.47876 0.0661425,1.65238 -0.620086,2.3516 -2.69649,2.25711 -2.0764,-0.0933082 -2.42601,-0.653158 -2.47562,-2.31971z" />
   <path
   id="_293856200"
   class="fil51"
   d="M8.21821 24.5448c-0.050788,-1.60632 0.790167,-1.29923 2.82405,-1.17167 2.0327,0.127561 1.79648,-0.281106 1.85672,1.31813 0.0578747,1.60041 -0.437013,2.3268 -2.46972,2.19924 -2.0327,-0.128742 -2.1579,-0.739379 -2.21105,-2.3457z" />
  </g>
  <path
   class="fil52"
   d="M8.45916 24.4905c-0.0531503,-1.5449 0.659063,-1.09135 2.64925,-0.929539 1.989,0.162994 1.48466,-0.382682 1.53781,1.16222 0.0531503,1.5449 -0.251578,2.29963 -2.24058,2.13782 -1.99018,-0.161813 -1.89333,-0.825601 -1.94648,-2.3705z"
   id="path7096" />
  <path
   class="fil53"
   d="M16.1648 28.0551c0,0 2.21459,0.2752 2.5205,-1.32285 0.308272,-1.59805 -0.00236223,-4.56029 -0.555125,-4.93943 -0.223231,-0.155907 -2.1201,0.175986 -2.43664,0.366146 0,0 0.587015,1.2886 0.562212,2.8335 -0.0295279,1.69963 -0.694497,3.25043 -0.090946,3.06264z"
   id="path7098" />
  <g
   id="_293826656">
   <path
   id="_293855480"
   class="fil54"
   d="M15.7159 27.7362c0,0 2.75791,0.284649 3.1713,-1.28506 0.415753,-1.57207 0.00236223,-4.26501 -0.744104,-4.6347 -0.303547,-0.153545 -2.61617,0.161813 -3.04256,0.348429 0,0 0.720481,1.14805 0.712213,2.62917 -0.00118112,1.6512 -0.907098,3.12524 -0.0968516,2.94216z" />
   <path
   id="_293842904"
   class="fil55"
   d="M15.9711 27.5744c0,0 2.47562,0.297641 2.88311,-1.24844 0.407485,-1.54726 0.00590558,-3.96737 -0.726387,-4.33352 -0.298823,-0.146458 -2.32326,0.151183 -2.74373,0.336618 0,0 0.635441,1.00749 0.656701,2.42483 0.030709,1.60159 -0.868121,3.00122 -0.0696859,2.82051z" />
   <path
   id="_293855312"
   class="fil56"
   d="M16.225 27.4102c0,0 2.19333,0.308272 2.59491,-1.21301 0.399218,-1.51774 0.00944894,-3.66737 -0.711032,-4.02761 -0.291736,-0.145277 -2.03034,0.138191 -2.44255,0.321264 0,0 0.5504,0.863396 0.598826,2.22168 0.0649614,1.55081 -0.826782,2.87602 -0.040158,2.69767z" />
   <path
   id="_293839664"
   class="fil57"
   d="M16.4766 27.2484c0,0 1.91341,0.316539 2.3079,-1.17639 0.393312,-1.49529 0.0153545,-3.37209 -0.693316,-3.72406 -0.28583,-0.141734 -1.73624,0.12638 -2.14255,0.304728 0,0 0.466541,0.725206 0.542133,2.01971 0.100395,1.50002 -0.784262,2.74964 -0.0141734,2.57602z" />
   <path
   id="_293847632"
   class="fil58"
   d="M16.7317 27.0842c0,0 1.62994,0.329532 2.01853,-1.13742 0.386225,-1.47049 0.0188979,-3.07681 -0.674418,-3.4217 -0.282287,-0.138191 -1.44451,0.113387 -1.84372,0.289374 0,0 0.38032,0.584653 0.484258,1.81538 0.135828,1.45041 -0.745285,2.6268 0.0153545,2.45436z" />
   <path
   id="_293832512"
   class="fil59"
   d="M16.9845 26.9224c0,0 1.35002,0.340162 1.73034,-1.10198 0.381501,-1.44451 0.0259846,-2.77917 -0.656701,-3.11579 -0.276381,-0.13701 -1.15041,0.0992138 -1.54254,0.271657 0,0 0.295279,0.4441 0.427564,1.61341 0.1689,1.39962 -0.703946,2.50042 0.0413391,2.33271z" />
   <path
   id="_293834000"
   class="fil60"
   d="M17.2384 26.7582c0,0 1.06773,0.350792 1.44214,-1.06773 0.372052,-1.4138 0.0283468,-2.47916 -0.641346,-2.80988 -0.269295,-0.132285 -0.857491,0.0874027 -1.24253,0.256302 0,0 0.21142,0.302366 0.372052,1.41143 0.204333,1.34884 -0.662607,2.37523 0.0696859,2.20987z" />
   <path
   id="_293826632"
   class="fil61"
   d="M17.4935 26.5964c0,0 0.785443,0.361422 1.15395,-1.02875 0.364965,-1.39136 0.0354335,-2.18389 -0.62363,-2.50751 -0.26457,-0.129923 -0.563393,0.0744104 -0.94135,0.240948 0,0 0.125198,0.159451 0.311815,1.2071 0.238586,1.29923 -0.621267,2.25239 0.0992138,2.08821z" />
  </g>
  <path
   class="fil62"
   d="M17.829 26.5869c0,0 0.368508,0.375595 0.630716,-0.989776 0.263389,-1.36537 0.0295279,-1.88506 -0.441738,-2.20278 -0.188979,-0.127561 -0.197247,0.0614181 -0.468903,0.225593 0,0 0.030709,0.0177168 0.186616,1.00395 0.201971,1.24726 -0.42284,2.12601 0.0933082,1.96302z"
   id="path7109" />
  <polygon
   class="fil67"
   points="9.43712,28.4366 18.9203,28.4366 14.3695,32.1346 9.58358,32.1346 "
   id="polygon7111" />
  <polygon
   class="fil67"
   points="9.5198,52.2526 19.003,52.2526 14.3045,57.3161 9.5198,57.3161 "
   id="polygon7113" />
  <polygon
   class="fil67"
   points="9.43712,76.5813 18.9203,76.5813 14.2206,81.125 9.43712,81.125 "
   id="polygon7115" />
  <path
   class="fil68"
   d="M3.71934 97.6063l0 -0.249216c0,-1.5449 0.745285,-2.80515 1.65593,-2.80515l12.1183 0c0.910641,0 1.65356,1.26025 1.65356,2.80515l0 0.249216c0,1.5449 -0.742923,2.80515 -1.65356,2.80515l-12.1183 0c-0.910641,0 -1.65593,-1.26025 -1.65593,-2.80515z"
   id="path7117" />
  <path
   class="fil69"
   d="M3.06145 97.6063l0 -0.249216c0,-1.03112 0.252759,-1.97837 0.657882,-2.6646l0.00236223 0c0.42284,-0.713395 1.00985,-1.15868 1.65356,-1.15868l12.1183 0c0.646071,0 1.23545,0.442919 1.65356,1.15631 0.406304,0.686229 0.659063,1.63585 0.659063,2.66696l0 0.249216c0,1.03112 -0.252759,1.97955 -0.659063,2.6646 -0.418115,0.713395 -1.00513,1.15749 -1.65356,1.15749l-12.1183 0c-0.643709,0 -1.23072,-0.441738 -1.65356,-1.15749l-0.00236223 0c-0.405123,-0.685048 -0.657882,-1.63348 -0.657882,-2.6646zm1.31458 -0.249216l0 0.249216c0,0.511424 0.121655,0.970878 0.315358,1.29687l-0.00236223 0.00236223c0.177168,0.301185 0.420478,0.487801 0.686229,0.487801l12.1183 0c0.26457,0 0.504337,-0.188979 0.682686,-0.490164 0.191341,-0.325988 0.312996,-0.785443 0.312996,-1.29687l0 -0.249216c0,-0.511424 -0.121655,-0.97324 -0.312996,-1.29923 -0.178349,-0.300004 -0.420478,-0.490164 -0.682686,-0.490164l-12.1183 0c-0.265751,0 -0.509061,0.19016 -0.686229,0.490164l0.00236223 0.00236223c-0.191341,0.325988 -0.315358,0.785443 -0.315358,1.29687z"
   id="path7119" />
  <path
   class="fil32"
   d="M16.9644 94.552l0.52914 0c0.908279,0 1.65356,1.26261 1.65356,2.80279l0 0.251578c0,1.54254 -0.742923,2.80515 -1.65356,2.80515l-0.226774 0c0.315358,-1.53309 0.587015,-3.97682 -0.302366,-5.85952z"
   id="path7121" />
  <g
   id="_293848784">
   <path
   id="_293827568"
   class="fil33"
   d="M12.6462 94.3594c-1.66656,-0.289374 -8.2064,-0.915366 -8.06585,3.21972 0.12638,3.70398 4.73155,3.2776 7.41033,2.66696 0.471266,-0.108663 -1.2945,-1.89451 -1.06891,-3.37209 0.252759,-1.6453 2.05278,-2.61381 1.72443,-2.5146z" />
   <g
   id="g7125">
    <path
   id="_293853920"
   class="fil34"
   d="M12.3698 94.4941c-1.47876,-0.193703 -7.79183,-0.875208 -7.69025,3.06382 0.0956705,3.50555 4.50832,3.18665 7.06426,2.50515 0.4441,-0.115749 -1.23072,-1.78349 -1.01694,-3.1772 0.237404,-1.54844 1.95593,-2.48507 1.64293,-2.39176z" />
    <path
   id="_293825624"
   class="fil35"
   d="M12.0958 94.6299c-1.2945,-0.0968516 -7.3808,-0.83505 -7.31348,2.90791 0.0625992,3.31067 4.28037,3.09571 6.71819,2.34334 0.413391,-0.121655 -1.17167,-1.67364 -0.968516,-2.97996 0.223231,-1.45277 1.86026,-2.35751 1.5638,-2.27129z" />
    <path
   id="_293847080"
   class="fil36"
   d="M11.8218 94.7693c-1.11025,-0.0070867 -6.96977,-0.797254 -6.93906,2.74964 0.030709,3.11461 4.05596,3.0083 6.37331,2.18152 0.383863,-0.125198 -1.11025,-1.5638 -0.921271,-2.78389 0.210239,-1.35474 1.76695,-2.22877 1.48703,-2.14727z" />
    <path
   id="_293835800"
   class="fil37"
   d="M11.5478 94.9051c-0.924815,0.0897649 -6.55874,-0.755915 -6.56583,2.59728 0,2.91618 3.83154,2.91382 6.02842,2.01735 0.355516,-0.132285 -1.04765,-1.45514 -0.870483,-2.58901 0.197247,-1.25907 1.67246,-2.10003 1.40789,-2.02562z" />
    <path
   id="_293848616"
   class="fil38"
   d="M11.2726 95.0421c-0.738198,0.183073 -6.14653,-0.720481 -6.19023,2.43664 -0.030709,2.72247 3.60713,2.82405 5.68472,1.8579 0.324807,-0.139372 -0.988595,-1.34647 -0.822057,-2.39294 0.183073,-1.1634 1.57679,-1.97247 1.32758,-1.9016z" />
    <path
   id="_293840528"
   class="fil39"
   d="M10.9986 95.1779c-0.555125,0.276381 -5.7355,-0.679142 -5.81464,2.2831 -0.0625992,2.52523 3.38036,2.7331 5.33865,1.69372 0.295279,-0.144096 -0.927177,-1.23781 -0.773632,-2.1957 0.171262,-1.06773 1.48466,-1.84254 1.24962,-1.78112z" />
    <path
   id="_293830736"
   class="fil40"
   d="M10.7245 95.3161c-0.36969,0.370871 -5.32447,-0.638984 -5.44022,2.12601 -0.0933082,2.32798 3.15713,2.64334 4.99494,1.53427 0.26457,-0.151183 -0.86694,-1.12915 -0.726387,-2.00317 0.157089,-0.968516 1.38781,-1.7138 1.17167,-1.65711z" />
    <path
   id="_293856008"
   class="fil41"
   d="M10.4505 95.4531c-0.185435,0.466541 -4.91227,-0.601189 -5.06581,1.9701 -0.124017,2.13192 2.93271,2.55239 4.65006,1.3701 0.236223,-0.155907 -0.804341,-1.01812 -0.67678,-1.80475 0.142915,-0.872845 1.2945,-1.58506 1.09253,-1.53545z" />
   </g>
   <path
   id="_293855528"
   class="fil42"
   d="M10.1765 95.5937c0,0.557487 -4.50124,-0.562212 -4.69258,1.81301 -0.155907,1.93585 2.70948,2.46145 4.30635,1.20946 0.206695,-0.164175 -0.742923,-0.911822 -0.627173,-1.61104 0.128742,-0.777175 1.19883,-1.45632 1.0134,-1.41143z" />
  </g>
  <g
   id="_293855816">
   <path
   id="_293843240"
   class="fil33"
   d="M12.6344 95.4543c0,0 1.9701,-0.608275 2.85476,-0.559849 0.85631,0.0496069 1.41616,0.516148 1.32403,1.92758 -0.105119,1.59805 -0.562212,2.67759 -1.25671,2.7272 -0.745285,0.050788 -2.43664,0.583472 -2.65751,0.485439 -0.191341,-0.0826782 0.519691,-1.47403 0.428745,-2.62444 -0.100395,-1.28033 -0.82442,-2.03388 -0.693316,-1.95593z" />
   <g
   id="g7138">
    <path
   id="_293843432"
   class="fil34"
   d="M12.6887 95.5724c0,0.0342524 1.92168,-0.5504 2.76145,-0.505518 0.803159,0.0425202 1.35828,0.485439 1.26261,1.80711 -0.102757,1.46931 -0.555125,2.49806 -1.19765,2.5642 -0.702765,0.0874027 -2.36341,0.527959 -2.57483,0.421659 -0.178349,-0.0850404 0.493707,-1.376 0.408666,-2.44727 -0.0944894,-1.19293 -0.785443,-1.91341 -0.660244,-1.84018z" />
    <path
   id="_293851112"
   class="fil35"
   d="M12.7407 95.6917c0,0.0673237 1.87325,-0.494888 2.66932,-0.452368 0.747647,0.0413391 1.30041,0.458273 1.20238,1.68545 -0.101576,1.34411 -0.548038,2.32444 -1.13742,2.40239 -0.663788,0.124017 -2.29019,0.47599 -2.49452,0.360241 -0.165356,-0.0897649 0.471266,-1.28033 0.389769,-2.27247 -0.090946,-1.10553 -0.750009,-1.79175 -0.629535,-1.72325z" />
    <path
   id="_293849144"
   class="fil36"
   d="M12.7927 95.8122c0,0.102757 1.82483,-0.43347 2.57602,-0.398036 0.695678,0.0366146 1.24372,0.432289 1.14214,1.56616 -0.0992138,1.21655 -0.540952,2.14491 -1.07482,2.24294 -0.624811,0.155907 -2.21814,0.419296 -2.41538,0.291736 -0.154726,-0.0897649 0.446462,-1.17757 0.370871,-2.09412 -0.0838593,-1.02048 -0.711032,-1.6701 -0.598826,-1.60868z" />
    <path
   id="_293832968"
   class="fil37"
   d="M12.847 95.9315c0,0.13701 1.7764,-0.376776 2.48153,-0.344886 0.642528,0.0318902 1.18702,0.405123 1.08308,1.44451 -0.0980327,1.08899 -0.537408,1.96892 -1.0134,2.08113 -0.587015,0.191341 -2.14845,0.366146 -2.33507,0.230318 -0.142915,-0.0921271 0.421659,-1.07954 0.349611,-1.91931 -0.0791348,-0.933082 -0.672056,-1.54844 -0.565755,-1.49175z" />
    <path
   id="_293856824"
   class="fil38"
   d="M12.899 96.0508c0,0.171262 1.72797,-0.318902 2.38822,-0.289374 0.589377,0.0283468 1.13151,0.375595 1.02639,1.32285 -0.0992138,0.961429 -0.533865,1.79175 -0.956705,1.91931 -0.545676,0.227956 -2.07286,0.310634 -2.25357,0.166537 -0.129923,-0.0956705 0.396855,-0.982689 0.330713,-1.74215 -0.0732292,-0.848042 -0.633079,-1.42561 -0.535046,-1.37718z" />
    <path
   id="_293826248"
   class="fil39"
   d="M12.9533 96.1701c0,0.205514 1.67837,-0.259846 2.29373,-0.236223 0.537408,0.0236223 1.07364,0.347248 0.966154,1.2012 -0.0968516,0.833869 -0.526778,1.61577 -0.896468,1.75986 -0.505518,0.262208 -1.99963,0.256302 -2.17207,0.100395 -0.118112,-0.0980327 0.372052,-0.884657 0.310634,-1.56616 -0.0685048,-0.760639 -0.596464,-1.30277 -0.501975,-1.25907z" />
    <path
   id="_293844848"
   class="fil40"
   d="M13.0053 96.2917c0,0.238586 1.62876,-0.201971 2.20278,-0.180711 0.480715,0.0165356 1.01694,0.318902 0.903554,1.07954 -0.0956705,0.707489 -0.520873,1.43624 -0.833869,1.59805 -0.466541,0.298823 -1.92876,0.201971 -2.09294,0.0366146 -0.106301,-0.100395 0.348429,-0.784262 0.291736,-1.38899 -0.0614181,-0.673237 -0.558668,-1.1823 -0.471266,-1.1445z" />
    <path
   id="_293840312"
   class="fil41"
   d="M13.0572 96.411c0,0.272838 1.58388,-0.144096 2.11066,-0.127561 0.427564,0.0153545 0.957886,0.291736 0.843317,0.959067 -0.0944894,0.578747 -0.514967,1.26025 -0.773632,1.43742 -0.426383,0.331894 -1.85553,0.146458 -2.01144,-0.0295279 -0.0956705,-0.100395 0.321264,-0.686229 0.271657,-1.21183 -0.0578747,-0.585834 -0.519691,-1.06182 -0.440557,-1.02757z" />
   </g>
   <path
   id="_293836784"
   class="fil42"
   d="M13.1116 96.5327c0,0.30709 1.53309,-0.0850404 2.01499,-0.0720481 0.375595,0.00826782 0.903554,0.263389 0.785443,0.838593 -0.0933082,0.450006 -0.511424,1.08072 -0.713395,1.27443 -0.387406,0.368508 -1.78231,0.0933082 -1.92995,-0.0933082 -0.0838593,-0.102757 0.29646,-0.585834 0.250397,-1.03584 -0.050788,-0.500794 -0.480715,-0.938988 -0.407485,-0.911822z" />
  </g>
  <path
   class="fil43"
   d="M6.30126 97.6146c-0.0437013,-2.09176 1.82483,-2.97169 4.20478,-3.12051 2.38349,-0.148821 4.31816,0.538589 4.42328,2.5772 0.105119,2.03861 -1.91459,2.53704 -4.29572,2.68704 -2.37995,0.148821 -4.28509,-0.0519691 -4.33234,-2.14373z"
   id="path7149" />
  <g
   id="_293827208">
   <path
   id="_293832464"
   class="fil44"
   d="M6.54103 97.5579c-0.0460636,-2.0327 1.69372,-2.76381 4.03115,-2.87838 2.33861,-0.114568 4.00517,0.437013 4.1032,2.42247 0.0980327,1.9831 -1.73034,2.50869 -4.06777,2.62208 -2.33625,0.116931 -4.02052,-0.13701 -4.06659,-2.16617z" />
   <path
   id="_293836016"
   class="fil45"
   d="M6.78197 97.4977c-0.0484258,-1.9701 1.5638,-2.55357 3.85871,-2.63507 2.29491,-0.0803159 3.68745,0.336618 3.77957,2.2642 0.0956705,1.92995 -1.54254,2.48389 -3.83627,2.56539 -2.29609,0.0803159 -3.75477,-0.224412 -3.80202,-2.19452z" />
   <path
   id="_293839112"
   class="fil46"
   d="M7.01938 97.4398c-0.0484258,-1.90987 1.43506,-2.34452 3.68627,-2.39176 2.25121,-0.0448824 3.37563,0.23268 3.46185,2.10829 0.0874027,1.87325 -1.35947,2.45672 -3.61067,2.50161 -2.25121,0.0472447 -3.48902,-0.309453 -3.53745,-2.21814z" />
   <path
   id="_293828120"
   class="fil47"
   d="M7.26151 97.3807c-0.050788,-1.84963 1.30513,-2.13428 3.51146,-2.14727 2.20751,-0.0106301 3.05909,0.129923 3.14177,1.94884 0.0803159,1.81892 -1.17639,2.43074 -3.38272,2.44137 -2.20751,0.0129923 -3.22209,-0.394493 -3.27051,-2.24294z" />
   <path
   id="_293833472"
   class="fil48"
   d="M7.50009 97.3229c-0.050788,-1.78939 1.17639,-1.92758 3.3402,-1.9016 2.16263,0.0212601 2.74373,0.0248035 2.82051,1.78939 0.0744104,1.76577 -0.992138,2.40475 -3.15476,2.38113 -2.16381,-0.0236223 -2.95752,-0.481896 -3.00594,-2.26893z" />
   <path
   id="_293825672"
   class="fil49"
   d="M7.73986 97.2638c-0.050788,-1.72797 1.04765,-1.71971 3.16894,-1.65947 2.1201,0.0566936 2.42838,-0.0767726 2.49806,1.63348 0.0696859,1.7079 -0.805522,2.37995 -2.92563,2.31971 -2.11892,-0.0578747 -2.69058,-0.566936 -2.74137,-2.29373z" />
   <path
   id="_293841272"
   class="fil50"
   d="M7.97963 97.2083c-0.0519691,-1.6701 0.916547,-1.51065 2.99413,-1.41734 2.0764,0.0921271 2.11538,-0.178349 2.17798,1.4764 0.0661425,1.65593 -0.620086,2.3516 -2.69649,2.2583 -2.0764,-0.0921271 -2.42601,-0.651977 -2.47562,-2.31735z" />
   <path
   id="_293847464"
   class="fil51"
   d="M8.21821 97.148c-0.050788,-1.60632 0.790167,-1.30159 2.82405,-1.17285 2.0327,0.127561 1.79648,-0.282287 1.85672,1.31813 0.0578747,1.59923 -0.437013,2.32562 -2.46972,2.20042 -2.0327,-0.127561 -2.1579,-0.741741 -2.21105,-2.3457z" />
  </g>
  <path
   class="fil52"
   d="M8.45916 97.0925c-0.0531503,-1.5449 0.659063,-1.09135 2.64925,-0.928358 1.989,0.161813 1.48466,-0.383863 1.53781,1.16104 0.0531503,1.54608 -0.251578,2.30082 -2.24058,2.13782 -1.99018,-0.161813 -1.89333,-0.825601 -1.94648,-2.3705z"
   id="path7160" />
  <path
   class="fil53"
   d="M16.1648 100.657c0,0 2.21459,0.276381 2.5205,-1.32049 0.308272,-1.60041 -0.00236223,-4.56384 -0.555125,-4.94297 -0.223231,-0.153545 -2.1201,0.177168 -2.43664,0.368508 0,0 0.587015,1.2886 0.562212,2.83114 -0.0295279,1.70199 -0.694497,3.25043 -0.090946,3.06382z"
   id="path7162" />
  <g
   id="_293831456">
   <path
   id="_293833928"
   class="fil54"
   d="M15.7159 100.337c0,0 2.75791,0.288193 3.1713,-1.28387 0.415753,-1.57089 0.00236223,-4.26501 -0.744104,-4.63588 -0.303547,-0.151183 -2.61617,0.161813 -3.04256,0.351973 0,0 0.720481,1.14568 0.712213,2.62799 -0.00118112,1.6512 -0.907098,3.12524 -0.0968516,2.9398z" />
   <path
   id="_293849792"
   class="fil55"
   d="M15.9711 100.175c0,0 2.47562,0.298823 2.88311,-1.24608 0.407485,-1.54608 0.00590558,-3.96855 -0.726387,-4.33234 -0.298823,-0.150002 -2.32326,0.151183 -2.74373,0.336618 0,0 0.635441,1.00513 0.656701,2.42365 0.030709,1.60159 -0.868121,3.00122 -0.0696859,2.81814z" />
   <path
   id="_293838632"
   class="fil56"
   d="M16.225 100.011c0,0 2.19333,0.309453 2.59491,-1.20946 0.399218,-1.52128 0.00944894,-3.67091 -0.711032,-4.02879 -0.291736,-0.144096 -2.03034,0.139372 -2.44255,0.320083 0,0 0.5504,0.864578 0.598826,2.22168 0.0649614,1.55081 -0.826782,2.87602 -0.040158,2.69649z" />
   <path
   id="_293841848"
   class="fil57"
   d="M16.4766 99.8493c0,0 1.91341,0.320083 2.3079,-1.17521 0.393312,-1.49411 0.0153545,-3.37209 -0.693316,-3.7217 -0.28583,-0.142915 -1.73624,0.122836 -2.14255,0.302366 0,0 0.466541,0.724025 0.542133,2.01971 0.100395,1.49884 -0.784262,2.752 -0.0141734,2.57483z" />
   <path
   id="_293846960"
   class="fil58"
   d="M16.7317 99.6851c0,0 1.62994,0.333075 2.01853,-1.13742 0.386225,-1.46695 0.0188979,-3.07563 -0.674418,-3.41815 -0.282287,-0.141734 -1.44451,0.112206 -1.84372,0.287011 0,0 0.38032,0.583472 0.484258,1.81656 0.135828,1.45159 -0.745285,2.62444 0.0153545,2.452z" />
   <path
   id="_293850128"
   class="fil59"
   d="M16.9845 99.5233c0,0 1.35002,0.341343 1.73034,-1.1008 0.381501,-1.44451 0.0259846,-2.77799 -0.656701,-3.11461 -0.276381,-0.138191 -1.15041,0.0980327 -1.54254,0.270476 0,0 0.295279,0.442919 0.427564,1.61459 0.1689,1.39962 -0.703946,2.50161 0.0413391,2.33034z" />
   <path
   id="_293847920"
   class="fil60"
   d="M17.2384 99.3591c0,0 1.06773,0.351973 1.44214,-1.06419 0.372052,-1.41734 0.0283468,-2.48271 -0.641346,-2.80988 -0.269295,-0.134647 -0.857491,0.0850404 -1.24253,0.255121 0,0 0.21142,0.300004 0.372052,1.41025 0.204333,1.34884 -0.662607,2.37523 0.0696859,2.20869z" />
   <path
   id="_293836520"
   class="fil61"
   d="M17.4935 99.1973c0,0 0.785443,0.362603 1.15395,-1.02875 0.364965,-1.39136 0.0354335,-2.1827 -0.62363,-2.50751 -0.26457,-0.127561 -0.563393,0.0767726 -0.94135,0.24331 0,0 0.125198,0.159451 0.311815,1.20592 0.238586,1.29923 -0.621267,2.25121 0.0992138,2.08703z" />
  </g>
  <path
   class="fil62"
   d="M17.829 99.1914c0,0 0.368508,0.373233 0.630716,-0.993319 0.263389,-1.36301 0.0295279,-1.88506 -0.441738,-2.2016 -0.188979,-0.12638 -0.197247,0.0614181 -0.468903,0.225593 0,0 0.030709,0.0188979 0.186616,1.00277 0.201971,1.2508 -0.42284,2.12601 0.0933082,1.96656z"
   id="path7173" />
  <polygon
   class="fil67"
   points="9.37098,101.53 18.8542,101.53 14.2313,106.159 9.44657,106.159 "
   id="polygon7175" />
 </g>
</svg>