<?xml version="1.0" encoding="UTF-8" standalone="no"?>
<!-- Creator: CorelDRAW -->

<svg
   xmlns:dc="http://purl.org/dc/elements/1.1/"
   xmlns:cc="http://creativecommons.org/ns#"
   xmlns:rdf="http://www.w3.org/1999/02/22-rdf-syntax-ns#"
   xmlns:svg="http://www.w3.org/2000/svg"
   xmlns="http://www.w3.org/2000/svg"
   xmlns:xlink="http://www.w3.org/1999/xlink"
   xmlns:sodipodi="http://sodipodi.sourceforge.net/DTD/sodipodi-0.dtd"
   xmlns:inkscape="http://www.inkscape.org/namespaces/inkscape"
   xml:space="preserve"
   width="64px"
   height="64px"
   style="shape-rendering:geometricPrecision; text-rendering:geometricPrecision; image-rendering:optimizeQuality; fill-rule:evenodd; clip-rule:evenodd"
   viewBox="0 0 64 64"
   id="svg2"
   version="1.1"
   inkscape:version="0.48.1 r9760"
   sodipodi:docname="applications-multimedia.svg"><metadata
   id="metadata183"><rdf:RDF><cc:Work
       rdf:about=""><dc:format>image/svg+xml</dc:format><dc:type
         rdf:resource="http://purl.org/dc/dcmitype/StillImage" /><dc:title></dc:title></cc:Work></rdf:RDF></metadata><sodipodi:namedview
   pagecolor="#ffffff"
   bordercolor="#666666"
   borderopacity="1"
   objecttolerance="10"
   gridtolerance="10"
   guidetolerance="10"
   inkscape:pageopacity="0"
   inkscape:pageshadow="2"
   inkscape:window-width="646"
   inkscape:window-height="480"
   id="namedview181"
   showgrid="false"
   inkscape:zoom="4.15625"
   inkscape:cx="32"
   inkscape:cy="32"
   inkscape:window-x="0"
   inkscape:window-y="24"
   inkscape:window-maximized="0"
   inkscape:current-layer="svg2" />
 <defs
   id="defs4">
  <style
   type="text/css"
   id="style6">
   
    .fil11 {fill:none}
    .fil23 {fill:white}
    .fil38 {fill:#333333}
    .fil46 {fill:#4C4C4C}
    .fil39 {fill:#666666}
    .fil15 {fill:#8BC5F5}
    .fil45 {fill:#999999}
    .fil26 {fill:#E0981B}
    .fil44 {fill:#FFEC8B}
    .fil27 {fill:#EDA21D;fill-rule:nonzero}
    .fil29 {fill:black;fill-opacity:0.000000}
    .fil0 {fill:#333333;fill-opacity:0.011765}
    .fil1 {fill:#333333;fill-opacity:0.023529}
    .fil30 {fill:black;fill-opacity:0.035294}
    .fil2 {fill:#333333;fill-opacity:0.035294}
    .fil3 {fill:#333333;fill-opacity:0.047059}
    .fil4 {fill:#333333;fill-opacity:0.058824}
    .fil5 {fill:#333333;fill-opacity:0.074510}
    .fil31 {fill:black;fill-opacity:0.074510}
    .fil6 {fill:#333333;fill-opacity:0.086275}
    .fil7 {fill:#333333;fill-opacity:0.098039}
    .fil8 {fill:#333333;fill-opacity:0.109804}
    .fil32 {fill:black;fill-opacity:0.109804}
    .fil9 {fill:#333333;fill-opacity:0.121569}
    .fil33 {fill:black;fill-opacity:0.145098}
    .fil34 {fill:black;fill-opacity:0.184314}
    .fil35 {fill:black;fill-opacity:0.219608}
    .fil22 {fill:#999999;fill-opacity:0.321569}
    .fil19 {fill:#CCEDFF;fill-rule:nonzero;fill-opacity:0.439216}
    .fil21 {fill:#999999;fill-opacity:0.501961}
    .fil28 {fill:#FED716;fill-opacity:0.780392}
    .fil40 {fill:url(#id0)}
    .fil41 {fill:url(#id1)}
    .fil20 {fill:url(#id2)}
    .fil42 {fill:url(#id3)}
    .fil43 {fill:url(#id4)}
    .fil36 {fill:url(#id5)}
    .fil37 {fill:url(#id6)}
    .fil13 {fill:url(#id7)}
    .fil25 {fill:url(#id8)}
    .fil24 {fill:url(#id9)}
    .fil17 {fill:url(#id10)}
    .fil16 {fill:url(#id11);fill-rule:nonzero}
    .fil12 {fill:url(#id12);fill-rule:nonzero}
    .fil10 {fill:url(#id13);fill-rule:nonzero}
    .fil14 {fill:url(#id14);fill-opacity:0.219608}
    .fil18 {fill:url(#id15);fill-rule:nonzero;fill-opacity:0.439216}
   
  </style>
  <linearGradient
   id="id0"
   gradientUnits="userSpaceOnUse"
   x1="5.1166"
   y1="36.878"
   x2="5.1166"
   y2="30.5945">
   <stop
   offset="0"
   style="stop-color:#FFEC80"
   id="stop9" />
   <stop
   offset="1"
   style="stop-color:white"
   id="stop11" />
  </linearGradient>
  <linearGradient
   id="id1"
   gradientUnits="userSpaceOnUse"
   xlink:href="#id0"
   x1="58.9283"
   y1="36.8993"
   x2="58.9283"
   y2="30.6157">
  </linearGradient>
  <linearGradient
   id="id2"
   gradientUnits="userSpaceOnUse"
   x1="35.5859"
   y1="50.853"
   x2="35.0851"
   y2="26.7629">
   <stop
   offset="0"
   style="stop-color:#E5E5E5"
   id="stop15" />
   <stop
   offset="1"
   style="stop-color:white"
   id="stop17" />
  </linearGradient>
  <linearGradient
   id="id3"
   gradientUnits="userSpaceOnUse"
   x1="1.03938"
   y1="34.087"
   x2="1.03938"
   y2="45.0761">
   <stop
   offset="0"
   style="stop-color:#4C4C4C"
   id="stop20" />
   <stop
   offset="1"
   style="stop-color:#333333"
   id="stop22" />
  </linearGradient>
  <linearGradient
   id="id4"
   gradientUnits="userSpaceOnUse"
   xlink:href="#id3"
   x1="63.0055"
   y1="34.1083"
   x2="63.0055"
   y2="45.0974">
  </linearGradient>
  <linearGradient
   id="id5"
   gradientUnits="userSpaceOnUse"
   x1="10.4505"
   y1="27.3889"
   x2="10.4505"
   y2="51.6691">
   <stop
   offset="0"
   style="stop-color:#575757"
   id="stop26" />
   <stop
   offset="1"
   style="stop-color:#2E2D2D"
   id="stop28" />
  </linearGradient>
  <linearGradient
   id="id6"
   gradientUnits="userSpaceOnUse"
   xlink:href="#id5"
   x1="53.5944"
   y1="27.4102"
   x2="53.5944"
   y2="51.6904">
  </linearGradient>
  <linearGradient
   id="id7"
   gradientUnits="userSpaceOnUse"
   x1="32.6638"
   y1="59.3275"
   x2="31.9953"
   y2="17.6116">
   <stop
   offset="0"
   style="stop-color:#5E9DD5"
   id="stop32" />
   <stop
   offset="0.568627"
   style="stop-color:#7EBBEE"
   id="stop34" />
   <stop
   offset="1"
   style="stop-color:#8FCDFF"
   id="stop36" />
  </linearGradient>
  <linearGradient
   id="id8"
   gradientUnits="userSpaceOnUse"
   x1="58.2066"
   y1="30.1823"
   x2="58.2066"
   y2="48.3278">
   <stop
   offset="0"
   style="stop-color:#FED716"
   id="stop39" />
   <stop
   offset="1"
   style="stop-color:#E89309"
   id="stop41" />
  </linearGradient>
  <linearGradient
   id="id9"
   gradientUnits="userSpaceOnUse"
   xlink:href="#id8"
   x1="5.83826"
   y1="30.161"
   x2="5.83826"
   y2="48.3065">
  </linearGradient>
  <linearGradient
   id="id10"
   gradientUnits="userSpaceOnUse"
   x1="31.6138"
   y1="18.5801"
   x2="31.7803"
   y2="25.6456">
   <stop
   offset="0"
   style="stop-color:#E5F6FF"
   id="stop45" />
   <stop
   offset="1"
   style="stop-color:#C4E8FF"
   id="stop47" />
  </linearGradient>
  <linearGradient
   id="id11"
   gradientUnits="userSpaceOnUse"
   x1="31.6126"
   y1="15.1974"
   x2="33.0465"
   y2="61.7405">
   <stop
   offset="0"
   style="stop-color:#5E9DD5"
   id="stop50" />
   <stop
   offset="1"
   style="stop-color:#4E87B4"
   id="stop52" />
  </linearGradient>
  <linearGradient
   id="id12"
   gradientUnits="userSpaceOnUse"
   x1="32.1689"
   y1="38.6981"
   x2="31.0905"
   y2="8.1438">
   <stop
   offset="0"
   style="stop-color:#191919"
   id="stop55" />
   <stop
   offset="1"
   style="stop-color:#4C4C4C"
   id="stop57" />
  </linearGradient>
  <linearGradient
   id="id13"
   gradientUnits="userSpaceOnUse"
   x1="31.4283"
   y1="5.80519"
   x2="31.7307"
   y2="35.0142">
   <stop
   offset="0"
   style="stop-color:#666666"
   id="stop60" />
   <stop
   offset="1"
   style="stop-color:#333333"
   id="stop62" />
  </linearGradient>
  <linearGradient
   id="id14"
   gradientUnits="userSpaceOnUse"
   xlink:href="#id11"
   x1="40.5926"
   y1="14.7663"
   x2="42.0241"
   y2="61.274">
  </linearGradient>
  <linearGradient
   id="id15"
   gradientUnits="userSpaceOnUse"
   x1="39.6914"
   y1="26.0507"
   x2="40.3836"
   y2="53.5613">
   <stop
   offset="0"
   style="stop-color:#5A93C4"
   id="stop66" />
   <stop
   offset="1"
   style="stop-color:#4A7FA8"
   id="stop68" />
  </linearGradient>
 </defs>
 <g
   id="Слой_x0020_1">
  <metadata
   id="CorelCorpID_0Corel-Layer" />
  <g
   id="_249341176">
   <path
   id="_249347464"
   class="fil0"
   d="M32.3827 61.0708c16.0266,-0.331894 17.2821,2.04097 17.2821,2.48153 0,0.171262 -1.27679,0.377957 -3.4217,0.561031l-26.6968 0c-2.14491,-0.184254 -3.4217,-0.39095 -3.4217,-0.561031 0,-0.440557 0.23268,-2.14963 16.2581,-2.48153z" />
   <g
   id="g74">
    <path
   id="_249354184"
   class="fil1"
   d="M32.4665 61.1311c14.4982,-0.295279 15.8518,1.8638 15.8518,2.28546 0,0.219688 -2.37995,0.500794 -6.04732,0.696859l-18.6947 0c-3.66855,-0.196065 -6.04732,-0.478352 -6.04732,-0.696859 0,-0.421659 0.438194,-1.99018 14.9376,-2.28546z" />
    <path
   id="_249351736"
   class="fil2"
   d="M32.548 61.1937c12.9722,-0.258665 14.425,1.68663 14.425,2.0894 0,0.333075 -6.34968,0.823238 -14.021,0.823238 -7.66899,0 -14.0199,-0.491345 -14.0199,-0.823238 0,-0.402761 0.643709,-1.83191 13.6159,-2.0894z" />
    <path
   id="_249343672"
   class="fil3"
   d="M32.6307 61.2551c11.445,-0.220869 12.9958,1.51065 12.9958,1.89451 0,0.291736 -5.75676,0.715757 -12.645,0.714576 -6.88945,0 -12.6474,-0.424021 -12.6474,-0.714576 0,-0.383863 0.851585,-1.67246 12.2966,-1.89451z" />
    <path
   id="_249336664"
   class="fil4"
   d="M32.7134 61.3177c9.91902,-0.184254 11.569,1.33348 11.569,1.69845 0,0.250397 -5.16502,0.607094 -11.2714,0.605913 -6.10756,0 -11.2726,-0.356697 -11.2726,-0.605913 0,-0.364965 1.0571,-1.51419 10.9749,-1.69845z" />
    <path
   id="_249355792"
   class="fil5"
   d="M32.7937 61.3803c8.39065,-0.14764 10.1399,1.15631 10.1399,1.50356 0,0.209058 -4.57092,0.49725 -9.89658,0.49725 -5.32566,0 -9.89776,-0.291736 -9.89776,-0.49725 0,-0.347248 1.26261,-1.35592 9.65445,-1.50356z" />
    <path
   id="_249344416"
   class="fil6"
   d="M32.8764 61.4441c6.86465,-0.111025 8.7131,0.979146 8.7131,1.3075 0,0.167719 -3.97918,0.388587 -8.52294,0.388587 -4.54376,0 -8.52294,-0.224412 -8.52294,-0.388587 0,-0.32835 1.46813,-1.19765 8.33278,-1.3075z" />
    <path
   id="_249350296"
   class="fil7"
   d="M32.9591 61.5055c5.33747,-0.0732292 7.28395,0.803159 7.28395,1.11261 0,0.12638 -3.38626,0.281106 -7.14694,0.279925 -3.76422,0 -7.15048,-0.157089 -7.15048,-0.279925 0,-0.309453 1.676,-1.0382 7.01347,-1.11261z" />
    <path
   id="_249359992"
   class="fil8"
   d="M33.0406 61.5681c3.81146,-0.0366146 5.85716,0.625992 5.85716,0.916547 0,0.0850404 -2.79334,0.172443 -5.7733,0.171262 -2.98232,0 -5.77566,-0.0897649 -5.77566,-0.171262 0,-0.290555 1.88152,-0.879932 5.6918,-0.916547z" />
   </g>
   <path
   id="_249338920"
   class="fil9"
   d="M33.1221 61.6319c2.28546,0 4.42919,0.448824 4.42919,0.720481 0,0.0885838 -8.8005,0.0814971 -8.8005,0 0,-0.271657 2.08703,-0.720481 4.37131,-0.720481z" />
  </g>
  <path
   class="fil10"
   d="M1.90396 37.1532c0,-1.65829 0.172443,-3.7843 0.50788,-6.09102 0.305909,-2.10357 0.752371,-4.37486 1.33584,-6.58945 3.2587,-12.3663 10.4304,-20.7357 27.6346,-20.7357 18.7739,-0.408666 24.8448,8.24183 28.0173,20.7097 0.576385,2.2642 1.02639,4.61935 1.33466,6.79733 0.343705,2.40712 0.522054,4.60872 0.522054,6.24575l-2.78035 0c0,-1.52837 -0.166537,-3.59296 -0.488982,-5.85598 -0.295279,-2.07758 -0.725206,-4.33352 -1.27797,-6.50323 -1.41025,-5.54298 -4.39139,-9.958 -8.68003,-12.9675 -4.26974,-2.99531 -9.86941,-4.62643 -16.5439,-4.62643 -6.71583,0 -12.2175,1.60159 -16.3963,4.55911 -4.25084,3.00594 -7.17883,7.45639 -8.65877,13.0832 -0.551582,2.0953 -0.979146,4.25911 -1.27088,6.27409 -0.314177,2.16381 -0.47599,4.15163 -0.47599,5.70007l-2.77917 0z"
   id="path85" />
  <path
   class="fil11"
   d="M3.39453 39.6962c0,-3.0839 0.610637,-7.82726 1.7953,-12.3285 3.09216,-11.7438 12.2092,-18.6782 26.3968,-18.6782 14.0175,0 23.5964,6.96505 26.568,18.6404 1.18584,4.6536 1.81183,9.67335 1.81183,12.7017"
   id="path87" />
  <path
   class="fil12"
   d="M2.81933 39.4505c0,-1.65829 0.172443,-3.7843 0.50788,-6.09102 0.305909,-2.10357 0.753553,-4.37486 1.33584,-6.58945 1.65002,-6.2611 4.128,-11.2395 8.93279,-14.6364 4.6536,-3.29532 10.6927,-5.0788 17.9896,-5.0788 7.2556,0 13.3974,1.81065 18.1384,5.13668 4.84258,3.39571 7.28277,8.24774 8.86192,14.4498 0.576385,2.2642 1.02521,4.61935 1.33348,6.79733 0.343705,2.40712 0.522054,4.60872 0.522054,6.24575l-1.8638 0.102757c0,-1.52837 0.546857,-3.6969 0.223231,-5.95992 -1.83782,-12.9734 -10.0171,-24.5035 -27.1137,-24.6062 -7.68198,0.334256 -13.2545,2.11538 -17.2833,4.96778 -4.5662,3.23154 -7.15166,7.8438 -8.58554,13.2876 -0.858672,3.26815 -1.74569,8.45916 -1.74569,11.7698l-1.25317 0.204333z"
   id="path89" />
  <ellipse
   class="fil13"
   cx="32.3297"
   cy="38.4697"
   rx="22.9482"
   ry="23.3285"
   id="ellipse91" />
  <path
   class="fil14"
   d="M55.2775 38.4725c-0.00236223,12.8813 -10.2769,23.3247 -22.9479,23.3247 -12.6698,0 -22.9456,-10.4434 -22.9479,-23.3247l3.00004 0c0.00118112,5.62802 2.24058,10.7186 5.8548,14.3931 3.60359,3.66382 8.58908,5.93157 14.0931,5.93157 5.50637,0 10.4895,-2.26774 14.0931,-5.93039 3.6154,-3.67564 5.85362,-8.76625 5.8548,-14.3943l3.00004 0z"
   id="path93" />
  <path
   class="fil15"
   d="M55.2775 38.4725c-0.00236223,12.8813 -10.2769,23.3247 -22.9479,23.3247 -12.6698,0 -22.9456,-10.4434 -22.9479,-23.3247l1.50002 0c0.00118112,6.03315 2.40475,11.4946 6.28827,15.4419 3.87761,3.94257 9.23988,6.38276 15.1596,6.38276 5.92094,0 11.282,-2.44019 15.1596,-6.38157 3.88233,-3.94729 6.28709,-9.40996 6.28827,-15.4431l1.50002 0z"
   id="path95" />
  <path
   class="fil16"
   d="M32.3295 14.4167c6.53276,0 12.4525,2.69531 16.7364,7.05009 4.28155,4.35242 6.93198,10.3667 6.93198,17.0022 0,6.6367 -2.65043,12.6498 -6.93079,17.0034 -4.28391,4.3536 -10.2037,7.04891 -16.7376,7.04891 -6.53276,0 -12.4537,-2.69531 -16.7376,-7.05009 -4.28037,-4.35242 -6.93079,-10.3667 -6.93079,-17.0022 0,-6.6367 2.65043,-12.6474 6.93198,-17.0022 4.28391,-4.35478 10.2037,-7.05009 16.7364,-7.05009zm16.0183 7.75639c-4.09729,-4.16698 -9.76311,-6.74536 -16.0183,-6.74536 -6.2552,0 -11.921,2.57838 -16.0183,6.74536 -4.10084,4.16934 -6.63906,9.93201 -6.63906,16.2959 0,6.36504 2.53822,12.1277 6.63788,16.2959 4.09729,4.16698 9.76429,6.74536 16.0195,6.74536 6.25638,0 11.9222,-2.57838 16.0195,-6.74418 4.09966,-4.16934 6.63788,-9.93319 6.63788,-16.2971 0,-6.36504 -2.53822,-12.1277 -6.63906,-16.2959z"
   id="path97" />
  <path
   class="fil17"
   d="M50.3971 27.9736c-0.988595,-1.92995 -2.47798,-3.65319 -4.51069,-5.03864 -3.61304,-3.61304 -8.70365,-5.3481 -14.1899,-5.3481l-0.00118112 0c-5.48747,0 -10.7824,1.93821 -14.3955,5.55125 -1.78821,1.36301 -3.17248,3.00476 -4.13863,4.83549l-0.464179 0c1.02875,-2.02916 2.37286,-3.87288 3.96737,-5.46857l0.00118112 -0.00118112c3.85635,-3.85635 9.17728,-6.25283 15.0297,-6.25283l0.00118112 0c5.85007,0 11.1745,2.39531 15.0321,6.25283l0 0.00118112c1.59451,1.59451 2.93744,3.43941 3.96737,5.46857l-0.298823 0z"
   id="path99" />
  <path
   class="fil18"
   d="M46.086 39.6714l-0.349611 0.201971 -0.64489 -0.64489 -4.13981 1.10434 2.6398 -1.52482 -8.75562 -5.05636 0.00118112 -0.00118112 -8.75326 -5.05282 0 10.1104 0 10.1104 0.70867 -0.408666c-0.727568,0.707489 -1.20001,1.2945 -1.21773,1.64175l-0.131104 1.43624 -1.35828 0.783081 0 -1.72561 0 -11.8372 0 -11.8372 0 -1.72561 1.49529 0.862215 10.2509 5.9174 0.00354335 0 10.2509 5.91976 1.49411 0.863396 -1.49411 0.863396z"
   id="path101" />
  <path
   class="fil19"
   d="M45.7364 39.8733l-9.9013 5.71779 -0.00354335 0 -10.2509 5.9174 -0.13701 0.0791348 0.131104 -1.43624c0.0177168,-0.347248 0.490164,-0.934263 1.21773,-1.64175l8.04459 -4.64415 -0.00118112 -0.00118112 6.11582 -3.53154 4.13981 -1.10434 0.64489 0.64489z"
   id="path103" />
  <polygon
   class="fil20"
   points="45.5864,38.808 35.3355,44.7277 25.0846,50.6451 25.0846,38.808 25.0846,26.9708 35.3355,32.8882 "
   id="polygon105" />
  <polygon
   class="fil21"
   points="45.5864,38.808 44.2009,39.6076 43.4285,38.9013 43.5915,38.808 34.8359,33.7516 34.837,33.7504 26.0838,28.6976 26.0838,29.3886 25.0846,28.107 25.0846,26.9708 35.3355,32.8882 "
   id="polygon107" />
  <polygon
   class="fil22"
   points="26.0838,29.3886 26.0838,38.808 26.0838,48.8782 25.6633,50.3109 25.0846,50.6451 25.0846,38.808 25.0846,28.107 "
   id="polygon109" />
  <ellipse
   class="fil23"
   cx="31.9827"
   cy="16.8896"
   rx="2.09596"
   ry="0.641409"
   id="ellipse111" />
  <path
   class="fil24"
   d="M7.5556 27.8944c3.0083,0 3.67445,5.17684 3.67445,11.4379 0,6.2611 -0.66615,11.2431 -3.67445,11.2431 -3.0083,0 -7.11032,-5.08116 -7.11032,-11.3423 0,-6.2611 4.10202,-11.3387 7.11032,-11.3387z"
   id="path113" />
  <path
   class="fil25"
   d="M56.4893 27.9157c-3.0083,0 -3.67445,5.17684 -3.67445,11.4379 0,6.2611 0.66615,11.2431 3.67445,11.2431 3.0083,0 7.11032,-5.08116 7.11032,-11.3423 0,-6.2611 -4.10202,-11.3387 -7.11032,-11.3387z"
   id="path115" />
  <path
   class="fil26"
   d="M10.173 42.597c-0.406304,2.86185 -1.2319,4.71029 -2.80633,4.71029 -2.08467,0 -4.77998,-3.30949 -5.74259,-7.87805l0.986233 0.203152c1.24017,3.31185 4.17643,3.89769 5.57133,3.89769 1.3949,0 1.50947,0.5504 1.99136,-0.933082z"
   id="path117" />
  <path
   class="fil26"
   d="M53.8719 42.6182c0.406304,2.86185 1.2319,4.71029 2.80633,4.71029 2.08467,0 4.77998,-3.30949 5.74259,-7.87805l-0.986233 0.203152c-1.24017,3.31185 -4.17643,3.89769 -5.57133,3.89769 -1.3949,0 -1.50947,0.5504 -1.99136,-0.933082z"
   id="path119" />
  <path
   class="fil27"
   d="M7.5556 27.2259c1.87207,0 2.98941,1.48703 3.61067,3.87288 0.558668,2.14373 0.732292,5.05872 0.732292,8.23357 0,3.17839 -0.173624,6.04732 -0.732292,8.14144 -0.624811,2.33389 -1.73979,3.76894 -3.61067,3.76894 -1.82601,0 -3.95792,-1.56498 -5.51582,-4.04769l0 -0.00354335c-1.32049,-2.10829 -1.70199,-4.80242 -1.70199,-7.85561 0,-3.05319 0.381501,-5.95165 1.70199,-8.05876l0 -0.00354335c1.55789,-2.48271 3.68981,-4.04769 5.51582,-4.04769zm2.32089 4.20714c-0.459454,-1.76813 -1.1882,-2.8713 -2.32089,-2.8713 -1.37718,0 -3.07327,1.32167 -4.39139,3.42051l-0.00118112 -0.00118112c-1.19529,1.91223 -2.04924,4.45754 -2.04924,7.25206 0,2.7957 0.853948,5.34219 2.04924,7.25442l0.00118112 -0.00118112c1.31813,2.09884 3.01421,3.42051 4.39139,3.42051 1.13623,0 1.86262,-1.0571 2.32089,-2.77681 0.523235,-1.95829 0.686229,-4.71738 0.686229,-7.79773 0,-3.08508 -0.162994,-5.89377 -0.686229,-7.89931z"
   id="path121" />
  <path
   class="fil27"
   d="M56.4893 27.2472c-1.87207,0 -2.98941,1.48703 -3.61067,3.87288 -0.558668,2.14373 -0.732292,5.05872 -0.732292,8.23357 0,3.17839 0.173624,6.04732 0.732292,8.14144 0.624811,2.33389 1.73979,3.76894 3.61067,3.76894 1.82601,0 3.95792,-1.56498 5.51582,-4.04769l0 -0.00354335c1.32049,-2.10829 1.70199,-4.80242 1.70199,-7.85561 0,-3.05319 -0.381501,-5.95165 -1.70199,-8.05876l0 -0.00354335c-1.55789,-2.48271 -3.68981,-4.04769 -5.51582,-4.04769zm-2.32089 4.20714c0.459454,-1.76813 1.1882,-2.8713 2.32089,-2.8713 1.37718,0 3.07327,1.32167 4.39139,3.42051l0.00118112 -0.00118112c1.19529,1.91223 2.04924,4.45754 2.04924,7.25206 0,2.7957 -0.853948,5.34219 -2.04924,7.25442l-0.00118112 -0.00118112c-1.31813,2.09884 -3.01421,3.42051 -4.39139,3.42051 -1.13623,0 -1.86262,-1.0571 -2.32089,-2.77681 -0.523235,-1.95829 -0.686229,-4.71738 -0.686229,-7.79773 0,-3.08508 0.162994,-5.89377 0.686229,-7.89931z"
   id="path123" />
  <path
   class="fil28"
   d="M10.0702 45.2521c-0.406304,2.86185 -1.2319,4.70911 -2.80515,4.70911 -2.08467,0 -4.78116,-3.30831 -5.74377,-7.87805l1.18938 0c1.24017,3.31303 3.35673,5.53117 5.06227,5.53117 1.08427,0 1.81538,-0.879932 2.29727,-2.36223z"
   id="path125" />
  <path
   class="fil28"
   d="M53.9747 45.2734c0.406304,2.86185 1.2319,4.70911 2.80515,4.70911 2.08467,0 4.78116,-3.30831 5.74377,-7.87805l-1.18938 0c-1.24017,3.31303 -3.35673,5.53117 -5.06227,5.53117 -1.08427,0 -1.81538,-0.879932 -2.29727,-2.36223z"
   id="path127" />
  <path
   class="fil29"
   d="M12.5328 26.6684l1.91695 0.203152c0.30709,0.030709 0.505518,0.600007 0.557487,1.28624l2.0516 27.3452c0.0519691,0.68741 -1.00041,0.52914 -1.28151,0.26457l-3.36382 -3.16657c-0.281106,-0.26457 -0.513786,-0.585834 -0.557487,-1.28506l-1.50829 -23.2574c-0.0437013,-0.699221 1.87798,-1.42088 2.18507,-1.39017z"
   id="path129" />
  <g
   id="_249359872">
   <path
   id="_249353320"
   class="fil30"
   d="M12.332 26.633c0.594102,0.0685048 1.1882,0.135828 1.78112,0.203152 0.30709,0.0342524 0.426383,0.447643 0.467722,1.13269 0.546857,8.94932 1.0949,17.8998 1.64175,26.8503 0.0413391,0.68741 -1.02875,0.594102 -1.28151,0.265751 -0.940169,-0.914184 -1.88034,-1.82837 -2.82051,-2.74137 -0.252759,-0.329532 -0.516148,-0.585834 -0.557487,-1.28506 -0.471266,-7.67962 -0.943712,-15.3581 -1.41616,-23.0353 -0.0413391,-0.699221 1.87798,-1.42443 2.18507,-1.39017z" />
   <path
   id="_249356080"
   class="fil31"
   d="M12.1336 26.5999c0.548038,0.0685048 1.09608,0.135828 1.6453,0.203152 0.30709,0.0389769 0.344886,0.294098 0.376776,0.980327 0.411029,8.78397 0.822057,17.5691 1.2319,26.3566 0.0318902,0.686229 -1.0571,0.656701 -1.28151,0.26457 -0.758277,-0.77245 -1.51774,-1.5449 -2.27719,-2.31617 -0.225593,-0.393312 -0.51851,-0.584653 -0.557487,-1.28506 -0.440557,-7.60521 -0.882294,-15.2104 -1.32285,-22.8133 -0.0389769,-0.700402 1.87798,-1.42915 2.18507,-1.39017z" />
   <path
   id="_249350512"
   class="fil32"
   d="M11.9305 26.5645c0.503156,0.0685048 1.00631,0.135828 1.50947,0.203152 0.30709,0.0425202 0.265751,0.141734 0.28583,0.826782 0.2752,8.61979 0.549219,17.2408 0.823238,25.8629 0.0212601,0.68741 -1.08545,0.721662 -1.28151,0.265751 -0.577566,-0.630716 -1.15631,-1.26143 -1.73506,-1.89097 -0.196065,-0.457092 -0.520873,-0.584653 -0.557487,-1.28506 -0.408666,-7.53198 -0.819695,-15.0628 -1.22954,-22.5924 -0.0366146,-0.700402 1.87798,-1.43269 2.18507,-1.39017z" />
   <path
   id="_249366472"
   class="fil33"
   d="M11.7273 26.5326c0.458273,0.0673237 0.916547,0.134647 1.37364,0.201971 0.30709,0.0472447 0.186616,-0.0106301 0.196065,0.673237 0.138191,8.45562 0.276381,16.9124 0.414572,25.3692 0.00944894,0.68741 -1.11379,0.786624 -1.28151,0.265751 -0.398036,-0.488982 -0.794892,-0.976784 -1.19293,-1.46458 -0.167719,-0.522054 -0.523235,-0.585834 -0.557487,-1.28624 -0.377957,-7.45757 -0.757096,-14.9151 -1.13742,-22.3704 -0.0342524,-0.700402 1.87916,-1.43624 2.18507,-1.38899z" />
   <path
   id="_249341152"
   class="fil34"
   d="M11.5289 26.4972c0.41221,0.0673237 0.82442,0.134647 1.23781,0.201971 0.30709,0.050788 0.105119,-0.164175 0.105119,0.520873 0.00236223,8.29026 0.00354335,16.5817 0.00472447,24.8755 0,0.686229 -1.14214,0.849223 -1.28151,0.265751 -0.216144,-0.347248 -0.43347,-0.694497 -0.649614,-1.04056 -0.140553,-0.585834 -0.525597,-0.584653 -0.557487,-1.28506 -0.347248,-7.38434 -0.695678,-14.7675 -1.04411,-22.1495 -0.0318902,-0.701583 1.87798,-1.44096 2.18507,-1.38899z" />
  </g>
  <path
   class="fil35"
   d="M11.3234 26.4641l1.10198 0.201971c0.30709,0.0555125 0.0259846,-0.316539 0.0153545,0.367327l-0.405123 24.383c-0.0106301,0.686229 -1.17049,0.914184 -1.28151,0.265751l-0.106301 -0.614181c-0.112206,-0.650795 -0.527959,-0.584653 -0.557487,-1.28624l-0.95198 -21.9286c-0.0295279,-0.701583 1.87916,-1.44451 2.18507,-1.38899z"
   id="path137" />
  <path
   class="fil29"
   d="M51.5121 26.6897l-1.91695 0.203152c-0.30709,0.030709 -0.505518,0.600007 -0.557487,1.28624l-2.0516 27.3452c-0.0519691,0.68741 1.00041,0.52914 1.28151,0.26457l3.36382 -3.16657c0.281106,-0.26457 0.513786,-0.585834 0.557487,-1.28506l1.50829 -23.2574c0.0437013,-0.699221 -1.87798,-1.42088 -2.18507,-1.39017z"
   id="path139" />
  <g
   id="_249336808">
   <path
   id="_249341488"
   class="fil30"
   d="M51.7164 26.6543c-0.594102,0.0685048 -1.1882,0.135828 -1.78112,0.203152 -0.30709,0.0342524 -0.426383,0.447643 -0.467722,1.13269 -0.546857,8.94932 -1.0949,17.8998 -1.64175,26.8503 -0.0413391,0.68741 1.02875,0.594102 1.28151,0.265751 0.940169,-0.914184 1.88034,-1.82837 2.82051,-2.74137 0.252759,-0.329532 0.516148,-0.585834 0.557487,-1.28506 0.472447,-7.67962 0.944894,-15.3581 1.41616,-23.0353 0.0413391,-0.699221 -1.87916,-1.42443 -2.18507,-1.39017z" />
   <path
   id="_249335848"
   class="fil31"
   d="M51.916 26.6212c-0.548038,0.0685048 -1.09608,0.135828 -1.6453,0.203152 -0.30709,0.0389769 -0.344886,0.294098 -0.376776,0.980327 -0.409848,8.78397 -0.820876,17.5691 -1.2319,26.3566 -0.0318902,0.686229 1.0571,0.656701 1.28151,0.26457 0.759458,-0.77245 1.51892,-1.5449 2.27719,-2.31617 0.225593,-0.393312 0.51851,-0.584653 0.557487,-1.28506 0.441738,-7.60521 0.883475,-15.2104 1.32285,-22.8133 0.0389769,-0.700402 -1.87798,-1.42915 -2.18507,-1.39017z" />
   <path
   id="_249351544"
   class="fil32"
   d="M52.1191 26.5858c-0.503156,0.0685048 -1.00631,0.135828 -1.50947,0.203152 -0.30709,0.0425202 -0.265751,0.141734 -0.287011,0.826782 -0.274019,8.61979 -0.548038,17.2408 -0.823238,25.8629 -0.020079,0.68741 1.08545,0.721662 1.28151,0.265751 0.578747,-0.630716 1.15749,-1.26143 1.73506,-1.89097 0.197247,-0.457092 0.520873,-0.584653 0.557487,-1.28506 0.411029,-7.53198 0.820876,-15.0628 1.23072,-22.5924 0.0366146,-0.700402 -1.87916,-1.43269 -2.18507,-1.39017z" />
   <path
   id="_249350536"
   class="fil33"
   d="M52.3199 26.5539c-0.458273,0.0673237 -0.916547,0.134647 -1.37364,0.201971 -0.30709,0.0472447 -0.186616,-0.0106301 -0.196065,0.673237 -0.138191,8.45562 -0.276381,16.9124 -0.414572,25.3692 -0.00944894,0.68741 1.11379,0.786624 1.28151,0.265751 0.398036,-0.488982 0.794892,-0.976784 1.19293,-1.46458 0.167719,-0.522054 0.523235,-0.585834 0.557487,-1.28624 0.379139,-7.45757 0.758277,-14.9151 1.13742,-22.3704 0.0342524,-0.700402 -1.87916,-1.43624 -2.18507,-1.38899z" />
   <path
   id="_249363904"
   class="fil34"
   d="M52.5207 26.5184c-0.41221,0.0673237 -0.82442,0.134647 -1.23781,0.201971 -0.30709,0.050788 -0.105119,-0.164175 -0.105119,0.520873 -0.00118112,8.29026 -0.00236223,16.5817 -0.00472447,24.8755 0,0.686229 1.14214,0.849223 1.28151,0.265751 0.216144,-0.347248 0.43347,-0.694497 0.649614,-1.04056 0.140553,-0.585834 0.525597,-0.584653 0.557487,-1.28506 0.348429,-7.38434 0.696859,-14.7675 1.04411,-22.1495 0.0318902,-0.701583 -1.87916,-1.44096 -2.18507,-1.38899z" />
  </g>
  <path
   class="fil35"
   d="M52.7215 26.4854l-1.10198 0.201971c-0.30709,0.0555125 -0.0259846,-0.316539 -0.0153545,0.367327l0.405123 24.383c0.0106301,0.686229 1.17049,0.914184 1.28151,0.265751l0.106301 -0.614181c0.112206,-0.650795 0.527959,-0.584653 0.557487,-1.28624l0.95198 -21.9286c0.0295279,-0.701583 -1.87916,-1.44451 -2.18507,-1.38899z"
   id="path147" />
  <path
   class="fil36"
   d="M8.97058 26.0413l2.84767 0c0.542133,0 0.98387,0.600007 0.985051,1.32521l0.109844 24.3275c0.00354335,0.722844 -0.450006,1.32521 -0.988595,1.32521l-2.84649 0c-0.536227,0 -0.982689,-0.595283 -0.982689,-1.32521l-0.109844 -24.3275c0,-0.72993 0.442919,-1.32521 0.985051,-1.32521z"
   id="path149" />
  <path
   class="fil37"
   d="M55.0743 26.0625l-2.84767 0c-0.542133,0 -0.98387,0.600007 -0.985051,1.32521l-0.109844 24.3275c-0.00354335,0.722844 0.450006,1.32521 0.988595,1.32521l2.84649 0c0.536227,0 0.982689,-0.595283 0.982689,-1.32521l0.109844 -24.3275c0,-0.72993 -0.442919,-1.32521 -0.985051,-1.32521z"
   id="path151" />
  <path
   class="fil38"
   d="M8.96704 26.0413l2.84885 0c0.545676,0 0.986233,0.600007 0.987414,1.32403l0.109844 24.3286c0.00354335,0.725206 -0.450006,1.32521 -0.987414,1.32521l-2.84885 0c-0.535046,0 -0.981508,-0.596464 -0.981508,-1.32521l-0.109844 -24.3286c0,-0.728749 0.4441,-1.32403 0.981508,-1.32403zm2.75673 0.999225l-2.65988 0c-0.0484258,0.0744104 -0.0791348,0.188979 -0.0791348,0.324807l-0.00354335 0 0.109844 24.3251 0.00354335 0.00354335c0,0.134647 0.030709,0.250397 0.0803159,0.325988l2.65751 0c0.0484258,-0.0732292 0.0814971,-0.185435 0.0814971,-0.31772l0 -0.00826782 0.00354335 0 -0.109844 -24.3251 0 -0.00354335c0,-0.131104 -0.0330713,-0.248035 -0.0838593,-0.324807z"
   id="path153" />
  <path
   class="fil38"
   d="M55.0778 26.0625l-2.84885 0c-0.545676,0 -0.986233,0.600007 -0.987414,1.32403l-0.109844 24.3286c-0.00354335,0.725206 0.450006,1.32521 0.987414,1.32521l2.84885 0c0.535046,0 0.981508,-0.596464 0.981508,-1.32521l0.109844 -24.3286c0,-0.728749 -0.4441,-1.32403 -0.981508,-1.32403zm-2.75673 0.999225l2.65988 0c0.0484258,0.0744104 0.0791348,0.188979 0.0791348,0.324807l0.00354335 0 -0.109844 24.3251 -0.00354335 0.00354335c0,0.134647 -0.030709,0.250397 -0.0803159,0.325988l-2.65751 0c-0.0484258,-0.0732292 -0.0814971,-0.185435 -0.0814971,-0.31772l0 -0.00826782 -0.00354335 0 0.109844 -24.3251 0 -0.00354335c0,-0.131104 0.0330713,-0.248035 0.0838593,-0.324807z"
   id="path155" />
  <path
   class="fil39"
   d="M10.0501 29.1204l1.32639 0.100395c0.262208,0.020079 0.767726,-2.73192 0.767726,-2.64334l0.0531503 11.5667c0,0.0885838 -0.628354,-5.70598 -0.846861,-5.65755l-1.36419 0.308272c-0.217326,0.0484258 -0.688591,5.02683 -0.688591,4.88982l0.0259846 -11.1592c0,-0.0897649 0.462998,2.57483 0.726387,2.59491z"
   id="path157" />
  <path
   class="fil39"
   d="M53.9948 29.1417l-1.32639 0.100395c-0.262208,0.020079 -0.767726,-2.73192 -0.767726,-2.64334l-0.0531503 11.5667c0,0.0885838 0.628354,-5.70598 0.846861,-5.65755l1.36419 0.308272c0.217326,0.0484258 0.688591,5.02683 0.688591,4.88982l-0.0259846 -11.1592c0,-0.0897649 -0.462998,2.57483 -0.726387,2.59491z"
   id="path159" />
  <path
   class="fil40"
   d="M3.52209 34.0422c0,-1.73506 1.57089,-3.44886 2.38113,-3.44886 0.810246,0 0.651977,1.7138 0.651977,3.44886 0,1.73388 -0.553944,2.83586 -1.36419,2.83586 -0.810246,0 -1.66892,-1.10198 -1.66892,-2.83586z"
   id="path161" />
  <path
   class="fil41"
   d="M60.5228 34.0634c0,-1.73506 -1.57089,-3.44886 -2.38113,-3.44886 -0.810246,0 -0.651977,1.7138 -0.651977,3.44886 0,1.73388 0.553944,2.83586 1.36419,2.83586 0.810246,0 1.66892,-1.10198 1.66892,-2.83586z"
   id="path163" />
  <path
   class="fil42"
   d="M0.578747 33.6099l0.921271 0c0.298823,0 0.542133,0.64489 0.542133,1.43151l0 9.08279c0,0.786624 -0.244491,1.43033 -0.542133,1.43033l-0.921271 0c-0.29646,0 -0.542133,-0.642528 -0.542133,-1.43033l0 -9.08279c0,-0.787805 0.244491,-1.43151 0.542133,-1.43151z"
   id="path165" />
  <path
   class="fil43"
   d="M63.4661 33.6311l-0.921271 0c-0.298823,0 -0.542133,0.64489 -0.542133,1.43151l0 9.08279c0,0.786624 0.244491,1.43033 0.542133,1.43033l0.921271 0c0.29646,0 0.542133,-0.642528 0.542133,-1.43033l0 -9.08279c0,-0.787805 -0.244491,-1.43151 -0.542133,-1.43151z"
   id="path167" />
  <path
   class="fil44"
   d="M1.08663 35.7123l0.498431 0c0.161813,0 0.294098,0.181892 0.294098,0.403942l0 2.56184c0,0.22205 -0.132285,0.402761 -0.294098,0.402761l-0.498431 0c-0.161813,0 -0.294098,-0.180711 -0.294098,-0.402761l0 -2.56184c0,-0.22205 0.132285,-0.403942 0.294098,-0.403942z"
   id="path169" />
  <path
   class="fil44"
   d="M62.9583 35.7335l-0.498431 0c-0.161813,0 -0.294098,0.181892 -0.294098,0.403942l0 2.56184c0,0.22205 0.132285,0.402761 0.294098,0.402761l0.498431 0c0.161813,0 0.294098,-0.180711 0.294098,-0.402761l0 -2.56184c0,-0.22205 -0.132285,-0.403942 -0.294098,-0.403942z"
   id="path171" />
  <path
   class="fil45"
   d="M9.07688 27.311l0.672056 3.30122 1.90987 0.294098c0.255121,0.0519691 0.481896,0.154726 0.485439,0.335437l0.105119 4.38076c0.0106301,0.466541 -2.09766,0.0803159 -2.49334,0.219688 -0.231499,0.0814971 -0.72993,6.81032 -0.72993,6.62607l-0.0283468 -11.7072c0,-0.185435 0.020079,-3.62721 0.0791348,-3.45004z"
   id="path173" />
  <path
   class="fil45"
   d="M54.968 27.3322l-0.672056 3.30122 -1.90987 0.294098c-0.255121,0.0519691 -0.481896,0.154726 -0.485439,0.335437l-0.105119 4.38076c-0.0106301,0.466541 2.09766,0.0803159 2.49334,0.219688 0.231499,0.0814971 0.72993,6.81032 0.72993,6.62607l0.0283468 -11.7072c0,-0.185435 -0.020079,-3.62721 -0.0791348,-3.45004z"
   id="path175" />
  <path
   class="fil46"
   d="M9.94973 50.0994l1.50592 0c0.242129,0 0.437013,0.0318902 0.438194,0.0696859l0.0484258 1.23663c0.00118112,0.0377957 -0.197247,0.070867 -0.438194,0.070867l-1.64884 0c-0.239767,0 -0.438194,-0.0318902 -0.438194,-0.070867l-0.119293 -7.20954c0,-0.0389769 0.409848,5.90322 0.651977,5.90322z"
   id="path177" />
  <path
   class="fil46"
   d="M54.0952 50.1207l-1.50592 0c-0.242129,0 -0.437013,0.0318902 -0.438194,0.0696859l-0.0484258 1.23663c-0.00118112,0.0377957 0.197247,0.070867 0.438194,0.070867l1.64884 0c0.239767,0 0.438194,-0.0318902 0.438194,-0.070867l0.119293 -7.20954c0,-0.0389769 -0.409848,5.90322 -0.651977,5.90322z"
   id="path179" />
 </g>
</svg>