<?xml version="1.0" encoding="UTF-8" standalone="no"?>
<!-- Creator: CorelDRAW -->

<svg
   xmlns:dc="http://purl.org/dc/elements/1.1/"
   xmlns:cc="http://creativecommons.org/ns#"
   xmlns:rdf="http://www.w3.org/1999/02/22-rdf-syntax-ns#"
   xmlns:svg="http://www.w3.org/2000/svg"
   xmlns="http://www.w3.org/2000/svg"
   xmlns:xlink="http://www.w3.org/1999/xlink"
   xmlns:sodipodi="http://sodipodi.sourceforge.net/DTD/sodipodi-0.dtd"
   xmlns:inkscape="http://www.inkscape.org/namespaces/inkscape"
   xml:space="preserve"
   width="24px"
   height="24px"
   style="shape-rendering:geometricPrecision; text-rendering:geometricPrecision; image-rendering:optimizeQuality; fill-rule:evenodd; clip-rule:evenodd"
   viewBox="0 0 24 24"
   id="svg2"
   version="1.1"
   inkscape:version="0.48.1 r9760"
   sodipodi:docname="application-x-k3b .svg"><metadata
   id="metadata334"><rdf:RDF><cc:Work
       rdf:about=""><dc:format>image/svg+xml</dc:format><dc:type
         rdf:resource="http://purl.org/dc/dcmitype/StillImage" /><dc:title></dc:title></cc:Work></rdf:RDF></metadata><sodipodi:namedview
   pagecolor="#ffffff"
   bordercolor="#666666"
   borderopacity="1"
   objecttolerance="10"
   gridtolerance="10"
   guidetolerance="10"
   inkscape:pageopacity="0"
   inkscape:pageshadow="2"
   inkscape:window-width="640"
   inkscape:window-height="480"
   id="namedview332"
   showgrid="false"
   inkscape:zoom="12.583333"
   inkscape:cx="12"
   inkscape:cy="12"
   inkscape:window-x="0"
   inkscape:window-y="24"
   inkscape:window-maximized="0"
   inkscape:current-layer="svg2" />
 <defs
   id="defs4">
  <style
   type="text/css"
   id="style6">
   
    .fil103 {fill:none}
    .fil97 {fill:#666666}
    .fil5 {fill:#A9A4AB}
    .fil135 {fill:#F0F0F0}
    .fil102 {fill:#F2B318}
    .fil139 {fill:#F3B618}
    .fil124 {fill:white}
    .fil4 {fill:#3B3B3B}
    .fil84 {fill:#CCCCCC;fill-rule:nonzero}
    .fil2 {fill:#404040;fill-rule:nonzero}
    .fil141 {fill:#808385;fill-rule:nonzero}
    .fil1 {fill:#A8A8A8;fill-rule:nonzero}
    .fil140 {fill:white;fill-rule:nonzero}
    .fil125 {fill:#191919;fill-opacity:0.000000}
    .fil106 {fill:black;fill-opacity:0.000000}
    .fil127 {fill:#191919;fill-opacity:0.000000}
    .fil14 {fill:#C4DEFF;fill-opacity:0.000000}
    .fil45 {fill:#DCE6F2;fill-opacity:0.000000}
    .fil21 {fill:#E6EEF7;fill-opacity:0.000000}
    .fil86 {fill:#FFBF2B;fill-opacity:0.000000}
    .fil69 {fill:#FFFFFA;fill-opacity:0.000000}
    .fil107 {fill:black;fill-opacity:0.007843}
    .fil46 {fill:#DCE6F2;fill-opacity:0.007843}
    .fil22 {fill:#E6EEF7;fill-opacity:0.007843}
    .fil128 {fill:#191919;fill-opacity:0.011765}
    .fil108 {fill:black;fill-opacity:0.011765}
    .fil109 {fill:black;fill-opacity:0.019608}
    .fil47 {fill:#DCE6F2;fill-opacity:0.019608}
    .fil23 {fill:#E6EEF7;fill-opacity:0.019608}
    .fil87 {fill:#FFBF2B;fill-opacity:0.023529}
    .fil70 {fill:#FFFFFB;fill-opacity:0.023529}
    .fil110 {fill:black;fill-opacity:0.023529}
    .fil129 {fill:#191919;fill-opacity:0.027451}
    .fil48 {fill:#DCE6F2;fill-opacity:0.027451}
    .fil24 {fill:#E6EEF7;fill-opacity:0.027451}
    .fil111 {fill:black;fill-opacity:0.031373}
    .fil15 {fill:#C4DEFF;fill-opacity:0.035294}
    .fil112 {fill:black;fill-opacity:0.035294}
    .fil49 {fill:#DCE6F2;fill-opacity:0.039216}
    .fil25 {fill:#E6EEF7;fill-opacity:0.039216}
    .fil130 {fill:#191919;fill-opacity:0.039216}
    .fil113 {fill:black;fill-opacity:0.043137}
    .fil50 {fill:#DCE6F2;fill-opacity:0.047059}
    .fil26 {fill:#E6EEF7;fill-opacity:0.047059}
    .fil88 {fill:#FFBF2B;fill-opacity:0.047059}
    .fil71 {fill:#FFFFFC;fill-opacity:0.047059}
    .fil114 {fill:black;fill-opacity:0.050980}
    .fil131 {fill:#191919;fill-opacity:0.054902}
    .fil115 {fill:black;fill-opacity:0.054902}
    .fil51 {fill:#DCE6F2;fill-opacity:0.058824}
    .fil27 {fill:#E6EEF7;fill-opacity:0.058824}
    .fil6 {fill:#BDC0CB;fill-opacity:0.058824}
    .fil116 {fill:black;fill-opacity:0.062745}
    .fil132 {fill:#191919;fill-opacity:0.066667}
    .fil52 {fill:#DCE6F2;fill-opacity:0.066667}
    .fil28 {fill:#E6EEF7;fill-opacity:0.066667}
    .fil117 {fill:black;fill-opacity:0.066667}
    .fil16 {fill:#C4DEFF;fill-opacity:0.074510}
    .fil89 {fill:#FFBF2B;fill-opacity:0.074510}
    .fil72 {fill:#FFFFFC;fill-opacity:0.074510}
    .fil118 {fill:black;fill-opacity:0.074510}
    .fil53 {fill:#DCE6F2;fill-opacity:0.078431}
    .fil29 {fill:#E6EEF7;fill-opacity:0.078431}
    .fil133 {fill:#191919;fill-opacity:0.078431}
    .fil54 {fill:#DCE6F2;fill-opacity:0.086275}
    .fil30 {fill:#E6EEF7;fill-opacity:0.086275}
    .fil55 {fill:#DCE6F2;fill-opacity:0.094118}
    .fil31 {fill:#E6EEF7;fill-opacity:0.094118}
    .fil90 {fill:#FFBF2B;fill-opacity:0.098039}
    .fil73 {fill:#FFFFFD;fill-opacity:0.098039}
    .fil56 {fill:#DCE6F2;fill-opacity:0.105882}
    .fil32 {fill:#E6EEF7;fill-opacity:0.105882}
    .fil17 {fill:#C4DEFF;fill-opacity:0.109804}
    .fil57 {fill:#DCE6F2;fill-opacity:0.113725}
    .fil33 {fill:#E6EEF7;fill-opacity:0.113725}
    .fil7 {fill:#B9C1D2;fill-opacity:0.113725}
    .fil91 {fill:#FFBF2B;fill-opacity:0.121569}
    .fil74 {fill:#FFFFFD;fill-opacity:0.121569}
    .fil58 {fill:#DCE6F2;fill-opacity:0.125490}
    .fil34 {fill:#E6EEF7;fill-opacity:0.125490}
    .fil59 {fill:#DCE6F2;fill-opacity:0.133333}
    .fil35 {fill:#E6EEF7;fill-opacity:0.133333}
    .fil60 {fill:#DCE6F2;fill-opacity:0.145098}
    .fil36 {fill:#E6EEF7;fill-opacity:0.145098}
    .fil18 {fill:#C4DEFF;fill-opacity:0.145098}
    .fil92 {fill:#FFBF2B;fill-opacity:0.145098}
    .fil75 {fill:#FFFFFE;fill-opacity:0.145098}
    .fil61 {fill:#DCE6F2;fill-opacity:0.152941}
    .fil37 {fill:#E6EEF7;fill-opacity:0.152941}
    .fil62 {fill:#DCE6F2;fill-opacity:0.160784}
    .fil38 {fill:#E6EEF7;fill-opacity:0.160784}
    .fil93 {fill:#FFBF2B;fill-opacity:0.172549}
    .fil76 {fill:#FFFFFE;fill-opacity:0.172549}
    .fil63 {fill:#DCE6F2;fill-opacity:0.172549}
    .fil39 {fill:#E6EEF7;fill-opacity:0.172549}
    .fil8 {fill:#B5C2D8;fill-opacity:0.172549}
    .fil64 {fill:#DCE6F2;fill-opacity:0.180392}
    .fil40 {fill:#E6EEF7;fill-opacity:0.180392}
    .fil19 {fill:#C4DEFF;fill-opacity:0.184314}
    .fil65 {fill:#DCE6F2;fill-opacity:0.192157}
    .fil41 {fill:#E6EEF7;fill-opacity:0.192157}
    .fil94 {fill:#FFBF2B;fill-opacity:0.196078}
    .fil77 {fill:white;fill-opacity:0.196078}
    .fil66 {fill:#DCE6F2;fill-opacity:0.200000}
    .fil42 {fill:#E6EEF7;fill-opacity:0.200000}
    .fil67 {fill:#DCE6F2;fill-opacity:0.211765}
    .fil43 {fill:#E6EEF7;fill-opacity:0.211765}
    .fil79 {fill:#A6A8A4;fill-opacity:0.219608}
    .fil3 {fill:#B3B3B3;fill-opacity:0.219608}
    .fil20 {fill:#C4DEFF;fill-opacity:0.219608}
    .fil68 {fill:#DCE6F2;fill-opacity:0.219608}
    .fil44 {fill:#E6EEF7;fill-opacity:0.219608}
    .fil95 {fill:#FFBF2B;fill-opacity:0.219608}
    .fil101 {fill:#FFF46D;fill-opacity:0.219608}
    .fil78 {fill:white;fill-opacity:0.219608}
    .fil9 {fill:#B1C3DF;fill-opacity:0.231373}
    .fil10 {fill:#AEC4E5;fill-opacity:0.290196}
    .fil11 {fill:#AAC5EC;fill-opacity:0.345098}
    .fil12 {fill:#A6C6F2;fill-opacity:0.403922}
    .fil100 {fill:#EDEDED;fill-opacity:0.439216}
    .fil98 {fill:#262626;fill-rule:nonzero;fill-opacity:0.439216}
    .fil13 {fill:#A2C7F9;fill-opacity:0.462745}
    .fil126 {fill:#7F7F7F;fill-opacity:0.501961}
    .fil96 {fill:#FFF673;fill-opacity:0.501961}
    .fil82 {fill:white;fill-rule:nonzero;fill-opacity:0.501961}
    .fil99 {fill:#D1CFCF;fill-rule:nonzero;fill-opacity:0.501961}
    .fil136 {fill:#7F7F7F;fill-opacity:0.501961}
    .fil138 {fill:#E5E5E5;fill-rule:nonzero;fill-opacity:0.501961}
    .fil83 {fill:white;fill-opacity:0.580392}
    .fil81 {fill:white;fill-opacity:0.780392}
    .fil121 {fill:url(#id2)}
    .fil122 {fill:url(#id3)}
    .fil134 {fill:url(#id4)}
    .fil137 {fill:url(#id5)}
    .fil105 {fill:url(#id6)}
    .fil104 {fill:url(#id7)}
    .fil119 {fill:url(#id8)}
    .fil120 {fill:url(#id9)}
    .fil0 {fill:url(#id10)}
    .fil123 {fill:url(#id11);fill-rule:nonzero}
    .fil85 {fill:url(#id12);fill-rule:nonzero}
    .fil80 {fill:url(#id13);fill-opacity:0.921569}
   
  </style>
   <mask
   id="id0">
  <linearGradient
   id="id1"
   gradientUnits="userSpaceOnUse"
   x1="12.1925"
   y1="22.0183"
   x2="12.1925"
   y2="20.3577">
   <stop
   offset="0"
   style="stop-opacity:1; stop-color:white"
   id="stop10" />
   <stop
   offset="1"
   style="stop-opacity:0; stop-color:white"
   id="stop12" />
  </linearGradient>
    <rect
   style="fill:url(#id1)"
   x="0.506555"
   y="20.1077"
   width="23.3718"
   height="2.16087"
   id="rect14" />
   </mask>
  <linearGradient
   id="id2"
   gradientUnits="userSpaceOnUse"
   x1="5.92814"
   y1="16.9615"
   x2="5.92814"
   y2="21.0568">
   <stop
   offset="0"
   style="stop-color:#575757"
   id="stop17" />
   <stop
   offset="1"
   style="stop-color:#363636"
   id="stop19" />
  </linearGradient>
  <linearGradient
   id="id3"
   gradientUnits="userSpaceOnUse"
   xlink:href="#id2"
   x1="18.0733"
   y1="16.8087"
   x2="18.0733"
   y2="21.057">
  </linearGradient>
  <linearGradient
   id="id4"
   gradientUnits="userSpaceOnUse"
   x1="10.2796"
   y1="11.9237"
   x2="14.5518"
   y2="11.9237">
   <stop
   offset="0"
   style="stop-color:#CCCCCC"
   id="stop23" />
   <stop
   offset="0.0196078"
   style="stop-color:#B2B2B2"
   id="stop25" />
   <stop
   offset="0.580392"
   style="stop-color:white"
   id="stop27" />
   <stop
   offset="1"
   style="stop-color:#B2B2B2"
   id="stop29" />
  </linearGradient>
  <linearGradient
   id="id5"
   gradientUnits="userSpaceOnUse"
   x1="12.4161"
   y1="23.7491"
   x2="12.4161"
   y2="10.3003">
   <stop
   offset="0"
   style="stop-color:#B2B2B2"
   id="stop32" />
   <stop
   offset="1"
   style="stop-color:#CFCFCF"
   id="stop34" />
  </linearGradient>
  <linearGradient
   id="id6"
   gradientUnits="userSpaceOnUse"
   x1="22.679"
   y1="14.3063"
   x2="22.679"
   y2="12.1746">
   <stop
   offset="0"
   style="stop-color:#7F7F7F"
   id="stop37" />
   <stop
   offset="1"
   style="stop-color:#999999"
   id="stop39" />
  </linearGradient>
  <linearGradient
   id="id7"
   gradientUnits="userSpaceOnUse"
   xlink:href="#id6"
   x1="1.32124"
   y1="14.3063"
   x2="1.32124"
   y2="12.1746">
  </linearGradient>
  <linearGradient
   id="id8"
   gradientUnits="userSpaceOnUse"
   x1="11.8608"
   y1="14.4475"
   x2="12.3348"
   y2="22.7751">
   <stop
   offset="0"
   style="stop-color:#E9E9E9"
   id="stop43" />
   <stop
   offset="0.478431"
   style="stop-color:#E5E5E5"
   id="stop45" />
   <stop
   offset="1"
   style="stop-color:#A1A1A1"
   id="stop47" />
  </linearGradient>
  <linearGradient
   id="id9"
   gradientUnits="userSpaceOnUse"
   x1="12.2682"
   y1="22.4132"
   x2="11.9082"
   y2="14.7717">
   <stop
   offset="0"
   style="stop-color:#B2B2B2"
   id="stop50" />
   <stop
   offset="1"
   style="stop-color:#CFCFCF"
   id="stop52" />
  </linearGradient>
  <linearGradient
   id="id10"
   gradientUnits="userSpaceOnUse"
   x1="12.1817"
   y1="2.5067"
   x2="12.1817"
   y2="19.1278">
   <stop
   offset="0"
   style="stop-color:#666666"
   id="stop55" />
   <stop
   offset="1"
   style="stop-color:#363636"
   id="stop57" />
  </linearGradient>
  <linearGradient
   id="id11"
   gradientUnits="userSpaceOnUse"
   xlink:href="#id6"
   x1="12.0692"
   y1="22.907"
   x2="12.0692"
   y2="14.1274">
  </linearGradient>
  <linearGradient
   id="id12"
   gradientUnits="userSpaceOnUse"
   x1="12.364"
   y1="3.63915"
   x2="12.1046"
   y2="17.9307">
   <stop
   offset="0"
   style="stop-color:#CCCCCC"
   id="stop61" />
   <stop
   offset="1"
   style="stop-color:#999999"
   id="stop63" />
  </linearGradient>
  <linearGradient
   id="id13"
   gradientUnits="userSpaceOnUse"
   x1="12.3818"
   y1="11.3579"
   x2="12.3195"
   y2="8.41159">
   <stop
   offset="0"
   style="stop-color:#E4E4E4"
   id="stop66" />
   <stop
   offset="1"
   style="stop-color:white"
   id="stop68" />
  </linearGradient>
 </defs>
 <g
   id="Слой_x0020_1">
  <metadata
   id="CorelCorpID_0Corel-Layer" />
  <path
   class="fil0"
   d="M3.44497 0.682588l17.4732 0.0385515c0.629863,0.00113387 1.14492,0.519311 1.14492,1.14492l0 17.5384c0,0.626178 -0.516193,1.14492 -1.14492,1.14492 -7.5388,0 -4.61456,0.402806 -17.4732,0.402806 -0.628446,0 -1.14464,-0.515059 -1.14464,-1.14492l0 -17.98c0,-0.62958 0.515343,-1.1299 1.14464,-1.14464z"
   id="path72" />
  <path
   class="fil1"
   d="M3.24484 1.05195l17.7252 -0.0379846c0.0841896,0 0.166678,0.0189923 0.246333,0.0569768l0 0.22734 0 0.528666 0 0.22734c-0.0739848,-0.0360003 -0.149954,-0.0578272 -0.227907,-0.0578272l-17.7255 0.0377011c-0.166395,0 -0.314648,0.0779534 -0.444192,0.215435l0 -1.027c0.11934,-0.0909928 0.260223,-0.14967 0.426051,-0.170647z"
   id="path74" />
  <path
   class="fil2"
   d="M22.0171 3.75367l0 15.4555c0,0.452696 -0.185954,0.865708 -0.484728,1.16448 -0.298207,0.298207 -0.711218,0.484728 -1.1642,0.484728l-16.6812 0c-0.453263,0 -0.865991,-0.185954 -1.16448,-0.484445 -0.298491,-0.298491 -0.484161,-0.711218 -0.484161,-1.16477l0 -16.5502c0,-0.643753 0.0615123,-1.71186 0.473956,-2.20452 0.265041,-0.316349 0.642619,-0.516193 1.12054,-0.516193l0.00963787 0.00198427 0.0606619 0.00141733 16.7206 0.0374176 0.00396854 0 0.0277797 0.000283467 0.00198427 0c1.81305,0.0218269 1.59507,1.89809 1.57863,3.25165l-0.0189923 0.522713zm-1.00007 15.4555l0 -15.9555c0,-0.440507 -0.0141733,-1.79293 -0.201828,-2.06392 -0.108851,-0.0986464 -0.138615,-0.21175 -0.369641,-0.214301l-0.0257955 -0.000283467 -16.7262 -0.0374176 -0.00963787 0 -0.051024 -0.00113387 0 0.0017008c-0.155056,0 -0.274396,0.0609454 -0.354617,0.156757 -0.253986,0.303876 -0.239813,1.13018 -0.239813,1.56389l0 16.5502c0,0.177734 0.0734179,0.34016 0.191057,0.457799 0.117639,0.117639 0.280065,0.19134 0.457515,0.19134l16.6812 0c0.176883,0 0.339593,-0.0739848 0.457232,-0.191624 0.117922,-0.117922 0.191624,-0.280632 0.191624,-0.457515z"
   id="path76" />
  <path
   class="fil3"
   d="M20.9899 6.60052c-4.46545,1.19878 -12.9646,0.919283 -17.8655,0.639501l0 -5.0698c0,-0.582241 0.374743,-0.890086 0.881865,-0.889235l16.1403 0.0192757c0.542272,0.000283467 0.843314,0.320601 0.843314,0.906243l0 4.39402z"
   id="path78" />
  <path
   class="fil4"
   d="M11.9918 1.70534c5.04684,0 9.13982,4.09298 9.13982,9.1401 0,5.04713 -4.09298,9.13982 -9.13982,9.13982 -5.04713,0 -9.13982,-4.09269 -9.13982,-9.13982 0,-5.04713 4.09269,-9.1401 9.13982,-9.1401z"
   id="path80" />
  <g
   id="_79519832">
   <path
   id="_72743904"
   class="fil5"
   d="M12.2344 2.86642c4.37248,0 7.91808,3.54589 7.91808,7.91836 0,4.37276 -3.5456,7.91865 -7.91808,7.91865 -4.37248,0 -7.91836,-3.54589 -7.91836,-7.91865 0,-4.37248 3.54589,-7.91836 7.91836,-7.91836zm0 5.26766c1.46354,0 2.65041,1.18716 2.65041,2.6507 0,1.46382 -1.18688,2.6507 -2.65041,2.6507 -1.46382,0 -2.6507,-1.18688 -2.6507,-2.6507 0,-1.46354 1.18688,-2.6507 2.6507,-2.6507z" />
   <g
   id="g84">
    <path
   id="_75195304"
   class="fil6"
   d="M13.5718 8.49607l1.3527 -5.16051c3.0484,1.10184 5.22826,4.02126 5.22826,7.44922 0,0.432003 -0.0351499,0.855503 -0.101481,1.2688l-5.16958 -1.39664c-0.0439374,-0.922117 -0.558997,-1.72121 -1.3099,-2.16087z" />
    <path
   id="_74538552"
   class="fil7"
   d="M13.6554 8.54737l1.63022 -5.07122c2.85791,1.19481 4.86712,4.01786 4.86712,7.30862 0,0.226207 -0.0102048,0.450145 -0.0286301,0.671816l-5.25377 -0.950464c-0.0861739,-0.823755 -0.549642,-1.53554 -1.21494,-1.95876z" />
    <path
   id="_78974768"
   class="fil8"
   d="M13.7396 8.60322l1.92105 -4.95868c2.65722,1.27758 4.4921,3.99518 4.4921,7.14025l-0.000283467 0.0223939 -5.30451 -0.464035c-0.120757,-0.719722 -0.5315,-1.34136 -1.10836,-1.73992z" />
    <path
   id="_44938664"
   class="fil9"
   d="M13.8241 8.6636l2.22181 -4.82035c2.26292,1.24527 3.85118,3.56516 4.07824,6.2717l-5.31103 0.0555595c-0.145135,-0.611721 -0.50202,-1.14124 -0.989016,-1.50691z" />
    <path
   id="_74527544"
   class="fil10"
   d="M13.9072 8.72908l2.53051 -4.65538c1.85699,1.1659 3.19637,3.081 3.59351,5.32124l-5.26738 0.595847c-0.157041,-0.500886 -0.458933,-0.937708 -0.856637,-1.26171z" />
    <path
   id="_28699624"
   class="fil11"
   d="M13.9891 8.79853l2.84261 -4.46092c1.4556,1.04004 2.54411,2.56084 3.03423,4.32996l-5.16647 1.1418c-0.155056,-0.391184 -0.400255,-0.73673 -0.710368,-1.01084z" />
    <path
   id="_73141296"
   class="fil12"
   d="M14.0687 8.87166l3.15243 -4.23698c1.0698,0.868826 1.9083,2.01091 2.41003,3.31996l-5.01056 1.67529c-0.138332,-0.284884 -0.325987,-0.541422 -0.55191,-0.758274z" />
    <path
   id="_78607512"
   class="fil13"
   d="M14.1453 8.9482l3.45546 -3.98498c0.710368,0.655092 1.30026,1.43859 1.7334,2.31337l-4.80533 2.18043c-0.10715,-0.18482 -0.236411,-0.355751 -0.383531,-0.508823z" />
   </g>
   <g
   id="g94">
    <path
   id="_77510480"
   class="fil6"
   d="M11.3962 13.3286l-0.51024 5.31018c-3.18532,-0.599816 -5.80398,-3.13344 -6.35192,-6.51719 -0.0691659,-0.426334 -0.102332,-0.850117 -0.102615,-1.26851l5.32606 0.55191c0.190773,0.903125 0.827156,1.60952 1.63872,1.92361z" />
    <path
   id="_75188808"
   class="fil7"
   d="M11.3052 13.2915l-0.798243 5.26653c-3.01212,-0.722557 -5.44681,-3.18787 -5.97293,-6.4364 -0.0362838,-0.223372 -0.0620792,-0.446177 -0.0790872,-0.667564l5.33796 0.097796c0.216852,0.79966 0.788038,1.42782 1.5123,1.73964z" />
    <path
   id="_107610776"
   class="fil8"
   d="M11.2134 13.2495l-1.10325 5.20218c-2.82758,-0.836227 -5.07321,-3.22557 -5.57608,-6.3301l-0.0034016 -0.0221104 5.31018 -0.390334c0.234427,0.691092 0.739565,1.23903 1.37255,1.54036z" />
    <path
   id="_73245032"
   class="fil9"
   d="M11.1204 13.2033l-1.42244 5.11374c-2.433,-0.867408 -4.37191,-2.90355 -5.0287,-5.53866l5.23393 -0.904259c0.240947,0.58054 0.678053,1.04628 1.21721,1.32918z" />
    <path
   id="_79001352"
   class="fil10"
   d="M11.0277 13.1523l-1.75353 4.99979c-2.01942,-0.853802 -3.64793,-2.53022 -4.39799,-4.67777l5.10439 -1.43066c0.235277,0.469421 0.602934,0.852385 1.04713,1.10864z" />
    <path
   id="_75302288"
   class="fil11"
   d="M10.9359 13.0964l-2.09255 4.85834c-1.60329,-0.793991 -2.92084,-2.1209 -3.68762,-3.7891l4.9173 -1.95309c0.215718,0.361137 0.513075,0.663029 0.862873,0.883849z" />
    <path
   id="_111941688"
   class="fil12"
   d="M10.8454 13.0372l-2.43413 4.68656c-1.1951,-0.686557 -2.20537,-1.67982 -2.90979,-2.89193l4.67805 -2.45482c0.181986,0.259089 0.408192,0.482177 0.665864,0.660194z" />
    <path
   id="_45153536"
   class="fil13"
   d="M10.7578 12.9737l-2.77372 4.48643c-0.80618,-0.533201 -1.51343,-1.21239 -2.08121,-2.00638l4.39487 -2.92084c0.135497,0.165261 0.29027,0.313231 0.460067,0.440791z" />
   </g>
   <g
   id="g104">
    <path
   id="_45843904"
   class="fil14"
   d="M13.7354 8.6001l2.93842 -4.37248c1.02473,0.695061 1.8774,1.62426 2.48232,2.71051l-4.29934 3.46085c-0.108851,-0.745234 -0.527532,-1.39012 -1.12139,-1.79888z" />
    <g
   id="g107">
     <path
   id="_74488360"
   class="fil15"
   d="M13.8235 8.66331l3.03678 -4.30473c0.876763,0.632414 1.61916,1.44001 2.17561,2.37092l-4.22082 3.44922c-0.143718,-0.615123 -0.50202,-1.14804 -0.991567,-1.51541z" />
     <path
   id="_78257008"
   class="fil16"
   d="M13.9077 8.72936l3.13599 -4.23414c0.733329,0.561548 1.36603,1.24839 1.8655,2.02849l-4.15251 3.44554c-0.158741,-0.491531 -0.457232,-0.9207 -0.848983,-1.23988z" />
     <path
   id="_75589320"
   class="fil17"
   d="M13.9891 8.79853l3.23549 -4.16073c0.59443,0.483027 1.11743,1.05081 1.55085,1.68436l-4.09156 3.44837c-0.155907,-0.375027 -0.395153,-0.706966 -0.694777,-0.972008z" />
     <path
   id="_111883120"
   class="fil18"
   d="M14.0665 8.86939l3.33527 -4.08391c0.46035,0.397137 0.874495,0.846432 1.23336,1.33853l-4.03855 3.45744c-0.136348,-0.266459 -0.316065,-0.506839 -0.530083,-0.712069z" />
     <path
   id="_44277616"
   class="fil19"
   d="M14.1399 8.94281l3.43505 -4.0034c0.331656,0.303026 0.637517,0.634399 0.913613,0.989583l-3.99263 3.47332c-0.101765,-0.166395 -0.221388,-0.320317 -0.356034,-0.4595z" />
    </g>
    <path
   id="_73578416"
   class="fil20"
   d="M14.2091 9.01708l3.53398 -3.91921c0.208915,0.202395 0.406775,0.415846 0.592162,0.639785l-3.95266 3.49486c-0.0541422,-0.0748352 -0.111969,-0.146836 -0.173482,-0.215435z" />
   </g>
   <g
   id="g115">
    <path
   id="_45828272"
   class="fil21"
   d="M9.82383 11.888l-5.18631 1.13528c-0.208915,-0.709801 -0.321451,-1.46099 -0.321451,-2.23854 0,-4.37248 3.5456,-7.91836 7.91836,-7.91836 1.09787,0 2.14358,0.223655 3.09404,0.627595l-1.72971 5.01793c-0.398554,-0.239813 -0.865424,-0.377861 -1.36433,-0.377861 -1.46382,0 -2.6507,1.18716 -2.6507,2.6507 0,0.393735 0.0861739,0.767345 0.240096,1.10325z" />
    <g
   id="g118">
     <path
   id="_77724040"
   class="fil22"
   d="M9.80427 11.8441l-5.21182 1.01963c-0.179718,-0.662462 -0.27638,-1.35951 -0.27638,-2.07895 0,-4.37248 3.5456,-7.91836 7.91836,-7.91836 1.03806,0 2.02934,0.200128 2.93785,0.563532l-1.62512 5.05195c-0.386932,-0.221104 -0.835093,-0.347814 -1.31273,-0.347814 -1.46382,0 -2.6507,1.18716 -2.6507,2.6507 0,0.376727 0.0788038,0.734746 0.220537,1.05932z" />
     <path
   id="_74529192"
   class="fil23"
   d="M9.78442 11.7976l-5.23592 0.897739c-0.151655,-0.612005 -0.232443,-1.25179 -0.232443,-1.91057 0,-4.37248 3.5456,-7.91836 7.91836,-7.91836 0.976827,0 1.91227,0.17745 2.77627,0.501169l-1.5174 5.08426c-0.374743,-0.202679 -0.803345,-0.317766 -1.25888,-0.317766 -1.46382,0 -2.6507,1.18716 -2.6507,2.6507 0,0.358586 0.0714336,0.70073 0.200694,1.01283z" />
     <path
   id="_74731048"
   class="fil24"
   d="M9.76458 11.7483l-5.25774 0.769612c-0.124725,-0.557863 -0.190773,-1.13784 -0.190773,-1.73312 0,-4.37248 3.5456,-7.91836 7.91836,-7.91836 0.91418,0 1.79208,0.15534 2.60903,0.440791l-1.40685 5.11487c-0.360853,-0.18397 -0.769329,-0.288002 -1.20218,-0.288002 -1.46382,0 -2.6507,1.18716 -2.6507,2.6507 0,0.339877 0.0640635,0.665013 0.180852,0.963504z" />
     <path
   id="_75808648"
   class="fil25"
   d="M9.74445 11.6958l-5.2773 0.634399c-0.0989299,-0.499752 -0.151088,-1.01651 -0.151088,-1.54546 0,-4.37248 3.5456,-7.91836 7.91836,-7.91836 0.850117,0 1.66877,0.134647 2.4364,0.38268l-1.29374 5.14379c-0.346113,-0.165828 -0.733612,-0.258805 -1.14265,-0.258805 -1.46382,0 -2.6507,1.18716 -2.6507,2.6507 0,0.320034 0.0566934,0.627029 0.160726,0.911062z" />
     <path
   id="_79601016"
   class="fil26"
   d="M9.7249 11.64l-5.29431 0.492382c-0.0751187,-0.437956 -0.114521,-0.888101 -0.114521,-1.3476 0,-4.37248 3.5456,-7.91836 7.91836,-7.91836 0.784636,0 1.54234,0.114804 2.25781,0.327404l-1.17724 5.17015c-0.330239,-0.147686 -0.695628,-0.229892 -1.08058,-0.229892 -1.46382,0 -2.6507,1.18716 -2.6507,2.6507 0,0.299341 0.0496067,0.58706 0.141166,0.855219z" />
     <path
   id="_73431752"
   class="fil27"
   d="M9.70534 11.5805l-5.30735 0.343278c-0.0535752,-0.371908 -0.0819219,-0.752037 -0.0819219,-1.13897 0,-4.37248 3.5456,-7.91836 7.91836,-7.91836 0.717738,0 1.4128,0.0960952 2.07384,0.274963l-1.05847 5.19453c-0.312664,-0.129828 -0.655659,-0.201828 -1.01538,-0.201828 -1.46382,0 -2.6507,1.18716 -2.6507,2.6507 0,0.277231 0.04252,0.54454 0.121607,0.795691z" />
     <path
   id="_107218960"
   class="fil28"
   d="M9.68606 11.5173l-5.3167 0.186521c-0.0348664,-0.301609 -0.0532918,-0.608036 -0.0532918,-0.918999 0,-4.37248 3.5456,-7.91836 7.91836,-7.91836 0.649422,0 1.2807,0.0788038 1.88477,0.22649l-0.937141 5.21607c-0.294239,-0.11282 -0.613706,-0.174899 -0.94763,-0.174899 -1.46382,0 -2.6507,1.18716 -2.6507,2.6507 0,0.25427 0.0357168,0.499752 0.102332,0.732478z" />
     <path
   id="_45438128"
   class="fil29"
   d="M9.66792 11.4501l-5.32181 0.0221104c-0.0195592,-0.22649 -0.0300475,-0.455531 -0.0300475,-0.687407 0,-4.37248 3.5456,-7.91836 7.91836,-7.91836 0.579973,0 1.14549,0.0629296 1.69031,0.181419l-0.81355 5.23535c-0.274396,-0.0963787 -0.569485,-0.149104 -0.876763,-0.149104 -1.46382,0 -2.6507,1.18716 -2.6507,2.6507 0,0.229892 0.0294805,0.452696 0.0841896,0.665297z" />
     <path
   id="_108469912"
   class="fil30"
   d="M9.65063 11.3786l-5.32181 -0.149387c-0.00822054,-0.147119 -0.012756,-0.295089 -0.012756,-0.444476 0,-4.37248 3.5456,-7.91836 7.91836,-7.91836 0.509673,0 1.00801,0.0487563 1.49104,0.140883l-0.687124 5.25122c-0.253419,-0.0805046 -0.523563,-0.124442 -0.803912,-0.124442 -1.46382,0 -2.6507,1.18716 -2.6507,2.6507 0,0.20438 0.0232443,0.402806 0.0668982,0.593863z" />
     <path
   id="_72101200"
   class="fil31"
   d="M9.63447 11.3027l-5.31614 -0.328255c-0.00141733,-0.0629296 -0.00226773,-0.126426 -0.00226773,-0.189639 0,-4.37248 3.5456,-7.91836 7.91836,-7.91836 0.437956,0 0.867975,0.0360003 1.28666,0.104599l-0.558997 5.26426c-0.231309,-0.0660478 -0.475374,-0.101198 -0.727659,-0.101198 -1.46382,0 -2.6507,1.18716 -2.6507,2.6507 0,0.17745 0.0175749,0.350365 0.0507406,0.517894z" />
     <path
   id="_72809480"
   class="fil32"
   d="M9.62001 11.2225l-5.3031 -0.515059c0.0416696,-4.33676 3.57083,-7.84098 7.91751,-7.84098 0.365672,0 0.725392,0.0252285 1.07774,0.0734179l-0.428602 5.27475c-0.207781,-0.0524414 -0.4252,-0.0805046 -0.649139,-0.0805046 -1.46382,0 -2.6507,1.18716 -2.6507,2.6507 0,0.149104 0.0124725,0.295089 0.0362838,0.437673z" />
     <path
   id="_71894280"
   class="fil33"
   d="M9.60726 11.1374l-5.28297 -0.708667c0.186521,-4.2075 3.65672,-7.56233 7.91014,-7.56233 0.292254,0 0.58054,0.0161576 0.86429,0.0470555l-0.296506 5.28184c-0.182836,-0.0399688 -0.373042,-0.0612288 -0.567784,-0.0612288 -1.46382,0 -2.6507,1.18716 -2.6507,2.6507 0,0.119623 0.00793707,0.237262 0.0235277,0.352633z" />
     <path
   id="_78002824"
   class="fil34"
   d="M9.59649 11.0478l-5.25406 -0.909078c0.328821,-4.0703 3.73694,-7.27234 7.892,-7.27234 0.217986,0 0.433704,0.0093544 0.647438,0.0266459l-0.163277 5.28552c-0.157041,-0.0291971 -0.3189,-0.0445043 -0.484161,-0.0445043 -1.46382,0 -2.6507,1.18716 -2.6507,2.6507 0,0.0887251 0.004252,0.1766 0.012756,0.263057z" />
     <path
   id="_45796312"
   class="fil35"
   d="M9.58911 10.9534l-5.21664 -1.11573c0.468287,-3.92602 3.80979,-6.9713 7.86195,-6.9713 0.143151,0 0.285451,0.00396854 0.426618,0.0116221l-0.0283467 5.28581c-0.130111,-0.0195592 -0.263057,-0.029764 -0.398271,-0.029764 -1.46382,0 -2.6507,1.18716 -2.6507,2.6507 0,0.0566934 0.00198427,0.11282 0.00538587,0.168663z" />
     <path
   id="_75495704"
   class="fil36"
   d="M9.58458 10.8545l-5.16873 -1.32748c0.60265,-3.77493 3.87414,-6.66062 7.81858,-6.66062 0.068032,0 0.135781,0.0008504 0.203246,0.0025512l0.10715 5.28325c-0.101765,-0.0116221 -0.20523,-0.0181419 -0.310396,-0.0181419 -1.46382,0 -2.6507,1.18716 -2.6507,2.6507l0.0008504 0.0697328z" />
     <path
   id="_75829112"
   class="fil37"
   d="M9.58401 10.751l-5.11062 -1.54376c0.73021,-3.60995 3.91553,-6.32953 7.73779,-6.34059l0.243781 5.27673c-0.072851,-0.00623627 -0.146552,-0.0093544 -0.220537,-0.0093544 -1.45248,0 -2.63199,1.16902 -2.65041,2.61697z" />
     <path
   id="_75640608"
   class="fil38"
   d="M9.58741 10.6433l-5.04032 -1.76316c0.833676,-3.37467 3.83134,-5.89668 7.43562,-6.0095l0.380412 5.26653c-0.0428035,-0.0017008 -0.085607,-0.00311813 -0.128694,-0.00311813 -1.4162,0 -2.5736,1.11147 -2.64701,2.50925z" />
     <path
   id="_74846856"
   class="fil39"
   d="M9.59563 10.5319l-4.9584 -1.98455c0.922117,-3.13543 3.73269,-5.46269 7.11502,-5.66593l0.51761 5.25321 -0.0354333 -0.000566934c-1.3785,0 -2.51123,1.05308 -2.63879,2.39785z" />
     <path
   id="_76612128"
   class="fil40"
   d="M9.60924 10.4171l-4.86486 -2.20679c0.994685,-2.89335 3.61902,-5.02898 6.77599,-5.3116l0.655092 5.2362c-1.31217,0.0286301 -2.38991,1.01141 -2.56622,2.28219z" />
     <path
   id="_77404392"
   class="fil41"
   d="M9.62823 10.2992l-4.75884 -2.42789c1.04968,-2.6507 3.48919,-4.59953 6.41882,-4.94848l0.792006 5.21579c-1.22826,0.0705832 -2.23287,0.977677 -2.45199,2.16058z" />
     <path
   id="_45811672"
   class="fil42"
   d="M9.65346 10.1793l-4.64063 -2.64616c1.08624,-2.40833 3.34207,-4.17603 6.04295,-4.57941l0.92807 5.19226c-1.14294,0.10715 -2.07498,0.940259 -2.33038,2.03331z" />
     <path
   id="_113846584"
   class="fil43"
   d="M9.68464 10.0574l-4.51081 -2.8599c1.1041,-2.16852 3.17766,-3.76132 5.64978,-4.2058l1.06385 5.16505c-1.05648,0.138332 -1.91737,0.898306 -2.20282,1.90064z" />
    </g>
    <path
   id="_45304624"
   class="fil44"
   d="M9.72263 9.93608l-4.37077 -3.06853c1.10269,-1.93324 2.99653,-3.35681 5.24045,-3.8302l1.19821 5.13415c-0.969173,0.16356 -1.75976,0.852952 -2.06789,1.76458z" />
   </g>
   <g
   id="g143">
    <path
   id="_77053264"
   class="fil45"
   d="M14.431 9.30111l5.0647 -1.67699c0.422082,0.968323 0.656793,2.03699 0.656793,3.16065 0,4.37276 -3.5456,7.91865 -7.91808,7.91865 -0.845015,0 -1.65913,-0.132946 -2.42279,-0.378428l1.2019 -5.18688c0.365389,0.189923 0.780384,0.297357 1.22089,0.297357 1.46354,0 2.65041,-1.18688 2.65041,-2.6507 0,-0.549642 -0.167245,-1.06017 -0.45383,-1.48367z" />
    <g
   id="g146">
     <path
   id="_78125840"
   class="fil46"
   d="M14.4577 9.34193l5.10325 -1.56445c0.380979,0.927503 0.591595,1.94288 0.591595,3.0073 0,4.37276 -3.5456,7.91865 -7.91808,7.91865 -0.78492,0 -1.54319,-0.115088 -2.25895,-0.327688l1.09361 -5.20984c0.351782,0.172631 0.746935,0.269577 1.16533,0.269577 1.46354,0 2.65041,-1.18688 2.65041,-2.6507 0,-0.532067 -0.157041,-1.02757 -0.427184,-1.44285z" />
     <path
   id="_44535792"
   class="fil47"
   d="M14.4854 9.3853l5.1401 -1.44511c0.34016,0.882999 0.526965,1.84197 0.526965,2.84459 0,4.37276 -3.5456,7.91865 -7.91808,7.91865 -0.723691,0 -1.42414,-0.097796 -2.09,-0.279498l0.982779 -5.23025c0.336759,0.155056 0.712069,0.241797 1.10722,0.241797 1.46354,0 2.65041,-1.18688 2.65041,-2.6507 0,-0.513642 -0.146269,-0.993268 -0.399405,-1.39948z" />
     <path
   id="_78403120"
   class="fil48"
   d="M14.5135 9.43151l5.1761 -1.31954c0.299624,0.835093 0.462901,1.73482 0.462901,2.67281 0,4.37276 -3.5456,7.91865 -7.91808,7.91865 -0.660761,0 -1.30225,-0.0816384 -1.91567,-0.23386l0.869676 -5.24867c0.320884,0.137765 0.674368,0.214584 1.04599,0.214584 1.46354,0 2.65041,-1.18688 2.65041,-2.6507 0,-0.494366 -0.135497,-0.956984 -0.371342,-1.35327z" />
     <path
   id="_77525848"
   class="fil49"
   d="M14.5421 9.48083l5.21012 -1.18659c0.259372,0.783219 0.400255,1.62058 0.400255,2.49054 0,4.37276 -3.5456,7.91865 -7.91808,7.91865 -0.596414,0 -1.17695,-0.0666147 -1.73567,-0.191624l0.753455 -5.26455c0.303593,0.121324 0.635249,0.188222 0.982212,0.188222 1.46354,0 2.65041,-1.18688 2.65041,-2.6507 0,-0.473956 -0.124725,-0.918716 -0.342711,-1.30395z" />
     <path
   id="_44287968"
   class="fil50"
   d="M14.5716 9.53384l5.24187 -1.04628c0.220254,0.727092 0.339026,1.49812 0.339026,2.29721 0,4.37276 -3.5456,7.91865 -7.91808,7.91865 -0.53065,0 -1.04854,-0.0527248 -1.54971,-0.152222l0.634115 -5.27815c0.285451,0.104883 0.593863,0.162426 0.915598,0.162426 1.46354,0 2.65041,-1.18688 2.65041,-2.6507 0,-0.452413 -0.113387,-0.878464 -0.313231,-1.25094z" />
     <path
   id="_107870376"
   class="fil51"
   d="M14.6011 9.59053l5.27135 -0.89859c0.182269,0.666714 0.280065,1.36829 0.280065,2.09284 0,4.37276 -3.5456,7.91865 -7.91808,7.91865 -0.463468,0 -0.917582,-0.0402523 -1.35922,-0.116788l0.513358 -5.28921c0.265608,0.0895755 0.549926,0.138048 0.845865,0.138048 1.46354,0 2.65041,-1.18688 2.65041,-2.6507 0,-0.429452 -0.102332,-0.835093 -0.28375,-1.19425z" />
     <path
   id="_77716752"
   class="fil52"
   d="M14.6306 9.65119l5.29771 -0.742966c0.146269,0.6018 0.224222,1.22996 0.224222,1.87655 0,4.37276 -3.5456,7.91865 -7.91808,7.91865 -0.395153,0 -0.783502,-0.0294805 -1.16335,-0.0853235l0.39005 -5.29714c0.244632,0.0745518 0.504287,0.114521 0.773297,0.114521 1.46354,0 2.65041,-1.18688 2.65041,-2.6507 0,-0.405358 -0.0912763,-0.789739 -0.25427,-1.13358z" />
     <path
   id="_45252192"
   class="fil53"
   d="M14.6603 9.71639l5.31982 -0.579406c0.112536,0.5315 0.172348,1.08284 0.172348,1.64779 0,4.37276 -3.5456,7.91865 -7.91808,7.91865 -0.325987,0 -0.646871,-0.0201261 -0.96237,-0.0583942l0.264758 -5.30253c0.222521,0.0606619 0.456098,0.0929771 0.697612,0.0929771 1.46354,0 2.65041,-1.18688 2.65041,-2.6507 0,-0.380129 -0.0802211,-0.741549 -0.224506,-1.06839z" />
     <path
   id="_74652544"
   class="fil54"
   d="M14.6898 9.78584l5.33825 -0.407625c0.0819219,0.456665 0.124442,0.926653 0.124442,1.40656 0,4.37276 -3.5456,7.91865 -7.91808,7.91865 -0.255404,0 -0.507689,-0.0124725 -0.756856,-0.0362838l0.137198 -5.3048c0.19871,0.0476224 0.406208,0.0731344 0.619658,0.0731344 1.46354,0 2.65041,-1.18688 2.65041,-2.6507 0,-0.3532 -0.0694494,-0.690525 -0.195025,-0.998937z" />
     <path
   id="_110171424"
   class="fil55"
   d="M14.719 9.86039l5.34987 -0.227624c0.0549926,0.37616 0.0836227,0.760541 0.0836227,1.15201 0,4.37276 -3.5456,7.91865 -7.91808,7.91865 -0.18397,0 -0.365956,-0.00708667 -0.546524,-0.0192757l0.0076536 -5.30338c0.174049,0.0357168 0.354333,0.0547091 0.53887,0.0547091 1.46354,0 2.65041,-1.18688 2.65041,-2.6507 0,-0.325136 -0.0586776,-0.636666 -0.165828,-0.924385z" />
     <path
   id="_75583592"
   class="fil56"
   d="M14.7474 9.93976l5.35582 -0.0399688c0.0325987,0.290553 0.0493232,0.585926 0.0493232,0.884983 0,4.37276 -3.5456,7.91865 -7.91808,7.91865 -0.111402,0 -0.221955,-0.00283467 -0.332223,-0.0076536l-0.123308 -5.29941c0.14797,0.025512 0.300191,0.0391184 0.455531,0.0391184 1.46354,0 2.65041,-1.18688 2.65041,-2.6507 0,-0.295372 -0.0481894,-0.57969 -0.137481,-0.845015z" />
     <path
   id="_74352744"
   class="fil57"
   d="M14.774 10.0245l5.35582 0.155907c0.0150237,0.199561 0.0226773,0.401106 0.0226773,0.604351 0,4.37276 -3.5456,7.91865 -7.91808,7.91865 -0.038268,0 -0.0762526,-0.00113387 -0.113954,-0.00141733l-0.25512 -5.29233c0.120473,0.017008 0.243498,0.0257955 0.369074,0.0257955 1.46354,0 2.65041,-1.18688 2.65041,-2.6507 0,-0.264191 -0.038835,-0.519311 -0.110836,-0.760258z" />
     <path
   id="_73839520"
   class="fil58"
   d="M14.7992 10.1147l5.34675 0.358869c0.00396854,0.103465 0.00651974,0.206931 0.00651974,0.311247 0,4.33676 -3.48778,7.8594 -7.81064,7.91723l-0.38835 -5.28127c0.0924102,0.00963787 0.185954,0.0147403 0.280916,0.0147403 1.46354,0 2.65041,-1.18688 2.65041,-2.6507 0,-0.231592 -0.029764,-0.456098 -0.085607,-0.670116z" />
     <path
   id="_73152872"
   class="fil59"
   d="M14.8222 10.2102l5.33031 0.569485 0 0.0051024c0,4.26136 -3.3673,7.73666 -7.58557,7.91099l-0.522713 -5.2671c0.0629296,0.00453547 0.126143,0.0068032 0.190206,0.0068032 1.46354,0 2.65041,-1.18688 2.65041,-2.6507 0,-0.197293 -0.0218269,-0.389483 -0.0626462,-0.574587z" />
     <path
   id="_108000024"
   class="fil60"
   d="M14.8426 10.3111l5.30338 0.786053c-0.157041,4.04139 -3.34349,7.30607 -7.35228,7.58614l-0.65736 -5.24981c0.0325987,0.00113387 0.0651974,0.00198427 0.0980795,0.00198427 1.46354,0 2.65041,-1.18688 2.65041,-2.6507 0,-0.161576 -0.0144568,-0.319751 -0.0422366,-0.473673z" />
     <path
   id="_75482784"
   class="fil61"
   d="M14.8596 10.4177l5.2671 1.00801c-0.305577,3.81206 -3.31146,6.8633 -7.10339,7.23861l-0.79229 -5.22883 0.0034016 0c1.46354,0 2.65041,-1.18688 2.65041,-2.6507 0,-0.124442 -0.008504,-0.247183 -0.0252285,-0.36709z" />
     <path
   id="_74489072"
   class="fil62"
   d="M14.8727 10.5297l5.21976 1.2345c-0.441358,3.57593 -3.26752,6.41457 -6.83779,6.87407l-0.927787 -5.20445c1.42074,-0.0487563 2.558,-1.21636 2.558,-2.649 0,-0.0861739 -0.004252,-0.171214 -0.0121891,-0.25512z" />
     <path
   id="_21572128"
   class="fil63"
   d="M14.8814 10.6459l5.16023 1.46411c-0.562398,3.33527 -3.20969,5.96272 -6.55489,6.49451l-1.063 -5.17582c1.37538,-0.0972291 2.46106,-1.24385 2.46106,-2.64389 0,-0.0464886 -0.00113387,-0.0926936 -0.0034016,-0.138899z" />
     <path
   id="_77415672"
   class="fil64"
   d="M14.8846 10.7672l5.08936 1.69541c-0.666997,3.09007 -3.13741,5.50918 -6.25441,6.10106l-1.19736 -5.14379c1.32833,-0.143434 2.3627,-1.2688 2.3627,-2.63511l-0.000283467 -0.0175749z" />
     <path
   id="_76136168"
   class="fil65"
   d="M14.8826 10.8925l5.00574 1.92672c-0.754022,2.84261 -3.04897,5.05761 -5.93636,5.69655l-1.33116 -5.10836c1.24584,-0.182269 2.21047,-1.2311 2.26178,-2.51492z" />
     <path
   id="_74772664"
   class="fil66"
   d="M14.8744 11.0209l4.90964 2.15662c-0.82177,2.59429 -2.94324,4.6103 -5.5996,5.28354l-1.46439 -5.07009c1.15626,-0.214301 2.04918,-1.17922 2.15435,-2.37007z" />
     <path
   id="_79601096"
   class="fil67"
   d="M14.8596 11.1519l4.80164 2.38367c-0.869676,2.34682 -2.81964,4.16923 -5.24612,4.86316l-1.59592 -5.02813c1.06555,-0.240096 1.88846,-1.12225 2.04039,-2.21869z" />
    </g>
    <path
   id="_78234768"
   class="fil68"
   d="M14.8378 11.2842l4.6823 2.60563c-0.897456,2.10219 -2.67791,3.73723 -4.87535,4.43909l-1.7266 -4.98278c0.974842,-0.259939 1.72858,-1.06102 1.91964,-2.06194z" />
   </g>
   <g
   id="g171">
    <path
   id="_78086400"
   class="fil69"
   d="M9.76742 9.81334l-4.19956 -3.30239c1.00801,-1.56927 2.55517,-2.7587 4.37928,-3.30834l1.83715 4.97002c-0.922401,0.157891 -1.68238,0.79229 -2.01687,1.64071z" />
    <g
   id="g174">
     <path
   id="_74355504"
   class="fil70"
   d="M9.80455 9.72518l-4.1321 -3.37297c0.985898,-1.45674 2.44433,-2.56764 4.15534,-3.11303l1.8706 4.94933c-0.851251,0.174899 -1.55396,0.758557 -1.89384,1.53667z" />
     <path
   id="_79204920"
   class="fil71"
   d="M9.84395 9.63787l-4.06265 -3.44242c0.959252,-1.34618 2.32925,-2.3797 3.92687,-2.91744l1.9049 4.92977c-0.781234,0.187655 -1.42811,0.721423 -1.76912,1.43009z" />
     <path
   id="_73306216"
   class="fil72"
   d="M9.88732 9.55255l-3.99291 -3.51215c0.92807,-1.23762 2.20991,-2.19432 3.69527,-2.72071l1.93863 4.90964c-0.711785,0.196442 -1.30366,0.682305 -1.64099,1.32322z" />
     <path
   id="_78630736"
   class="fil73"
   d="M9.93353 9.46836l-3.92176 -3.58047c0.891787,-1.13132 2.08575,-2.01346 3.45971,-2.52541l1.97293 4.8915c-0.64347,0.200694 -1.18149,0.640068 -1.51088,1.21437z" />
     <path
   id="_78918952"
   class="fil74"
   d="M9.98285 9.38587l-3.8492 -3.6485c0.851251,-1.02757 1.95649,-1.8363 3.2199,-2.3301l2.00751 4.8745c-0.575721,0.200978 -1.06102,0.594713 -1.37822,1.1041z" />
     <path
   id="_43181592"
   class="fil75"
   d="M10.0347 9.30565l-3.77549 -3.71597c0.805896,-0.926086 1.82354,-1.66282 2.97697,-2.13507l2.04209 4.85749c-0.50939,0.197009 -0.942527,0.547091 -1.24357,0.993551z" />
     <path
   id="_78127400"
   class="fil76"
   d="M10.0897 9.22741l-3.70123 -3.78286c0.756289,-0.82744 1.68578,-1.49359 2.7312,-1.94146l2.07668 4.84218c-0.443909,0.189356 -0.826022,0.49635 -1.10665,0.882149z" />
     <path
   id="_73748600"
   class="fil77"
   d="M10.1473 9.15088l-3.62554 -3.84835c0.702147,-0.731628 1.54376,-1.32861 2.48175,-1.74871l2.11211 4.82772c-0.380412,0.17745 -0.712069,0.442492 -0.968323,0.769329z" />
    </g>
    <path
   id="_79593480"
   class="fil78"
   d="M10.2074 9.07746l-3.549 -3.91383c0.64432,-0.639218 1.39777,-1.16788 2.22975,-1.55652l2.14726 4.81327c-0.318333,0.16186 -0.599816,0.386082 -0.828007,0.657076z" />
   </g>
   <g
   id="g185">
    <path
   id="_79584160"
   class="fil69"
   d="M14.808 11.4195l4.53462 2.85621c-0.842747,1.71242 -2.28559,3.07618 -4.05443,3.8166l-2.34484 -4.75289c0.918432,-0.254553 1.63645,-0.991 1.86464,-1.91992z" />
    <g
   id="g188">
     <path
   id="_106890024"
   class="fil70"
   d="M14.7802 11.5238l4.4612 2.95032c-0.829991,1.57324 -2.17419,2.83297 -3.80894,3.55581l-2.39501 -4.7183c0.839062,-0.266742 1.49699,-0.939692 1.74275,-1.78783z" />
     <path
   id="_75618736"
   class="fil71"
   d="M14.7479 11.6281l4.38523 3.04472c-0.810715,1.43519 -2.05627,2.59202 -3.55751,3.29218l-2.44575 -4.68486c0.760825,-0.273262 1.36036,-0.884133 1.61803,-1.65204z" />
     <path
   id="_72945288"
   class="fil72"
   d="M14.7105 11.7313l4.30728 3.13968c-0.784069,1.29884 -1.93098,2.35419 -3.30012,3.02601l-2.49593 -4.65169c0.683155,-0.274396 1.22543,-0.825455 1.48877,-1.514z" />
     <path
   id="_44262312"
   class="fil73"
   d="M14.6691 11.8339l4.22621 3.23351c-0.75062,1.16477 -1.7986,2.12033 -3.03621,2.75898l-2.54695 -4.61966c0.606902,-0.270427 1.09333,-0.762242 1.35696,-1.37283z" />
     <path
   id="_76584128"
   class="fil74"
   d="M14.6229 11.9345l4.14258 3.32733c-0.709801,1.03352 -1.65856,1.89044 -2.76635,2.49054l-2.59712 -4.58763c0.531784,-0.261356 0.96322,-0.695911 1.22089,-1.23025z" />
     <path
   id="_79294032"
   class="fil75"
   d="M14.5725 12.0337l4.05669 3.42031c-0.662178,0.905109 -1.51144,1.66452 -2.49139,2.22096l-2.64786 -4.55559c0.458933,-0.247467 0.836511,-0.625895 1.08256,-1.08568z" />
     <path
   id="_45200472"
   class="fil76"
   d="M14.5178 12.1312l3.96825 3.51272c-0.607186,0.780101 -1.35724,1.44341 -2.21076,1.9511l-2.6986 -4.52441c0.387783,-0.228474 0.712352,-0.552193 0.94111,-0.939409z" />
     <path
   id="_108066400"
   class="fil77"
   d="M14.4591 12.2259l3.87726 3.60485c-0.545674,0.658777 -1.19595,1.22741 -1.92502,1.68153l-2.74963 -4.4938c0.3189,-0.20438 0.591028,-0.47509 0.797392,-0.792573z" />
    </g>
    <path
   id="_76786120"
   class="fil78"
   d="M14.3961 12.3186l3.78371 3.69499c-0.477075,0.541989 -1.027,1.01821 -1.63447,1.41337l-2.80037 -4.46432c0.252569,-0.175466 0.473106,-0.393452 0.651123,-0.644037z" />
   </g>
   <g
   id="g199">
    <path
   id="_76722680"
   class="fil14"
   d="M11.3956 13.3l-3.44582 4.14457c-1.0664,-0.68769 -1.95705,-1.62426 -2.58975,-2.7278l4.43994 -2.88257c0.297357,0.688824 0.87818,1.22656 1.59563,1.46581z" />
    <g
   id="g202">
     <path
   id="_45811808"
   class="fil15"
   d="M11.2865 13.2609l-3.53001 4.05471c-0.914464,-0.628162 -1.69031,-1.4437 -2.27284,-2.39104l4.40451 -2.90582c0.298207,0.566083 0.795408,1.01084 1.39834,1.24215z" />
     <path
   id="_79499400"
   class="fil16"
   d="M11.1805 13.2172l-3.6142 3.96315c-0.766778,-0.560414 -1.42867,-1.25576 -1.95195,-2.0506l4.37588 -2.93416c0.283467,0.449578 0.697895,0.808164 1.19028,1.02161z" />
     <path
   id="_113721096"
   class="fil17"
   d="M11.0765 13.1696l-3.69839 3.86904c-0.62306,-0.484445 -1.17185,-1.06017 -1.62653,-1.70704l4.35377 -2.9679c0.253136,0.340727 0.585926,0.618525 0.971157,0.805896z" />
     <path
   id="_78405048"
   class="fil18"
   d="M10.9761 13.1183l-3.78286 3.77266c-0.484161,-0.400255 -0.920417,-0.857204 -1.29771,-1.36036l4.33818 -3.00702c0.208915,0.240096 0.46035,0.442208 0.7424,0.594713z" />
     <path
   id="_109844504"
   class="fil19"
   d="M10.8789 13.063l-3.86649 3.67345c-0.350648,-0.308128 -0.673801,-0.646304 -0.965204,-1.01084l4.32854 -3.05124c0.151371,0.14882 0.320034,0.279498 0.503154,0.388633z" />
    </g>
    <path
   id="_113712536"
   class="fil20"
   d="M10.7859 13.0046l-3.95039 3.57168c-0.222238,-0.207498 -0.43257,-0.427184 -0.630147,-0.65906l4.3257 -3.10169c0.0810715,0.068032 0.166112,0.131245 0.254837,0.189072z" />
   </g>
   <path
   id="_78001016"
   class="fil79"
   d="M12.2775 6.66997c2.25243,0 4.07909,1.82666 4.07909,4.07909 0,2.25243 -1.82666,4.07937 -4.07909,4.07937 -2.25243,0 -4.07909,-1.82694 -4.07909,-4.07937 0,-2.25243 1.82666,-4.07909 4.07909,-4.07909zm-0.043087 1.56219c1.4094,0 2.55262,1.14322 2.55262,2.55262 0,1.40968 -1.14322,2.5529 -2.55262,2.5529 -1.40968,0 -2.5529,-1.14322 -2.5529,-2.5529 0,-1.4094 1.14322,-2.55262 2.5529,-2.55262z" />
   <path
   id="_76889664"
   class="fil80"
   d="M12.2344 8.23216c1.4094,0 2.55262,1.14322 2.55262,2.55262 0,1.40968 -1.14322,2.5529 -2.55262,2.5529 -1.40968,0 -2.5529,-1.14322 -2.5529,-2.5529 0,-1.4094 1.14322,-2.55262 2.5529,-2.55262zm0 1.58345c0.535185,0 0.969173,0.433988 0.969173,0.969173 0,0.535185 -0.433988,0.969456 -0.969173,0.969456 -0.535469,0 -0.969456,-0.434271 -0.969456,-0.969456 0,-0.535185 0.433988,-0.969173 0.969456,-0.969173z" />
   <path
   id="_21589984"
   class="fil81"
   d="M12.2344 8.23216c1.4094,0 2.55262,1.14322 2.55262,2.55262 0,0.0374176 -0.00113387,0.0742683 -0.00283467,0.111119 -0.0581107,-1.35809 -1.17752,-2.44207 -2.54978,-2.44207 -1.37255,0 -2.49196,1.08398 -2.55007,2.44207 -0.0017008,-0.0368507 -0.00283467,-0.0737014 -0.00283467,-0.111119 0,-1.4094 1.14322,-2.55262 2.5529,-2.55262zm0.962937 2.66345c-0.0549926,0.483027 -0.465452,0.858621 -0.962937,0.858621 -0.497768,0 -0.908228,-0.375594 -0.96322,-0.858621 -0.004252,0.0365672 -0.00623627,0.0734179 -0.00623627,0.111119 0,0.535185 0.433988,0.969456 0.969456,0.969456 0.535185,0 0.969173,-0.434271 0.969173,-0.969456 0,-0.0377011 -0.00198427,-0.0745518 -0.00623627,-0.111119z" />
   <path
   id="_78368376"
   class="fil82"
   d="M12.2344 8.5298c0.62221,0 1.18603,0.252569 1.59422,0.660761 0.408192,0.408192 0.660478,0.972008 0.660478,1.59422 0,0.62221 -0.252285,1.18631 -0.660478,1.5945 -0.408192,0.408192 -0.972008,0.660478 -1.59422,0.660478 -0.62221,0 -1.18631,-0.252285 -1.5945,-0.660478 -0.408192,-0.408192 -0.660478,-0.972291 -0.660478,-1.5945 0,-0.62221 0.252285,-1.18603 0.660478,-1.59422 0.408192,-0.408192 0.972291,-0.660761 1.5945,-0.660761zm1.50521 0.74977c-0.384948,-0.385231 -0.917582,-0.623627 -1.50521,-0.623627 -0.58791,0 -1.12026,0.238396 -1.50549,0.623627 -0.384948,0.384948 -0.623343,0.917582 -0.623343,1.50521 0,0.58791 0.238396,1.12026 0.623343,1.50549 0.385231,0.384948 0.917582,0.623343 1.50549,0.623343 0.587627,0 1.12026,-0.238396 1.50521,-0.623343 0.384948,-0.385231 0.623343,-0.917582 0.623343,-1.50549 0,-0.587627 -0.238396,-1.12026 -0.623343,-1.50521z" />
   <path
   id="_108997816"
   class="fil83"
   d="M4.43796 9.8655c0.507689,-4.30529 4.41074,-7.38488 8.71575,-6.87719 4.30473,0.507689 7.38431,4.41074 6.87662,8.71575 -0.507689,4.30529 -4.41074,7.38488 -8.71547,6.87719 -4.30501,-0.507689 -7.38459,-4.41103 -6.8769,-8.71575zm0.880731 0.103749c0.450429,-3.81886 3.91241,-6.55063 7.73127,-6.10021 3.8183,0.450429 6.55007,3.91269 6.09964,7.73127 -0.450145,3.81886 -3.91241,6.55063 -7.73071,6.10021 -3.81886,-0.450429 -6.55063,-3.91269 -6.10021,-7.73127z" />
   <path
   id="_78424896"
   class="fil83"
   d="M4.43796 9.8655c0.507689,-4.30529 4.41074,-7.38488 8.71575,-6.87719 4.30473,0.507689 7.38431,4.41074 6.8769,8.71575 -0.507973,4.30529 -4.41074,7.38488 -8.71575,6.87719 -4.30529,-0.507689 -7.38488,-4.41103 -6.8769,-8.71575zm0.200411 0.0235277c0.494366,-4.19474 4.29707,-7.19524 8.49181,-6.7003 4.19417,0.494366 7.19467,4.29736 6.70002,8.49181 -0.49465,4.19446 -4.29736,7.19524 -8.49181,6.7003 -4.19446,-0.49465 -7.19495,-4.29736 -6.70002,-8.49181z" />
   <path
   id="_76512088"
   class="fil84"
   d="M10.3823 10.2003l-0.0175749 0.0606619 -0.196726 -0.180568 -0.0396854 0.138048 -0.0504571 -0.0141733 0.0572603 -0.200411 0.0456382 0.0130395 0.201545 0.183403zm0.0428035 -0.360286c0.0141733,0.00651974 0.025512,0.0155907 0.0334491,0.0266459 0.00822054,0.0113387 0.0136064,0.0240947 0.0161576,0.0385515 0.0025512,0.0141733 0.00198427,0.029764 -0.000566934,0.0462051 -0.00311813,0.0164411 -0.008504,0.0334491 -0.0164411,0.0504571 -0.00198427,0.004252 -0.00453547,0.00878747 -0.0068032,0.0136064 -0.00283467,0.00453547 -0.00538587,0.00963787 -0.00793707,0.0141733 -0.00283467,0.00481894 -0.00566934,0.0093544 -0.008504,0.0138899 -0.00283467,0.00453547 -0.00538587,0.008504 -0.00822054,0.0124725l-0.0428035 -0.0204096c0.00566934,-0.00708667 0.0113387,-0.0153072 0.0172915,-0.0249451 0.00566934,-0.00992134 0.0113387,-0.0198427 0.0161576,-0.0306144 0.00963787,-0.0209765 0.0133229,-0.0385515 0.0107717,-0.0530083 -0.00283467,-0.0144568 -0.0110552,-0.0249451 -0.0246616,-0.0311813 -0.0144568,-0.0068032 -0.0274963,-0.0068032 -0.0391184,0 -0.0116221,0.0068032 -0.0226773,0.0215435 -0.0334491,0.0442208l-0.0246616 0.0532918 -0.1406 -0.0654808 0.0731344 -0.156757 0.046772 0.0218269 -0.051024 0.109135 0.0535752 0.0252285 0.00907094 -0.0195592c0.00651974,-0.0138899 0.0138899,-0.0266459 0.0221104,-0.0379846 0.00822054,-0.0116221 0.0178584,-0.0206931 0.0283467,-0.0274963 0.0104883,-0.0068032 0.0221104,-0.0107717 0.0354333,-0.0119056 0.0124725,-0.0008504 0.0269293,0.00226773 0.04252,0.00963787zm0.12019 -0.208348c0.0133229,0.00793707 0.0238112,0.0178584 0.0308979,0.029764 0.00708667,0.0119056 0.0113387,0.0249451 0.0124725,0.0396854 0.00141733,0.0141733 -0.000283467,0.029764 -0.00453547,0.0459216 -0.004252,0.0161576 -0.0110552,0.0325987 -0.0206931,0.0487563 -0.00226773,0.004252 -0.0051024,0.008504 -0.00822054,0.0130395 -0.00283467,0.00453547 -0.0059528,0.00907094 -0.00878747,0.0136064 -0.0034016,0.00453547 -0.00651974,0.00907094 -0.00963787,0.0130395 -0.00311813,0.004252 -0.00623627,0.00793707 -0.00907094,0.0116221l-0.0413862 -0.0238112c0.00623627,-0.00651974 0.0130395,-0.0144568 0.0195592,-0.0238112 0.0068032,-0.00907094 0.0130395,-0.0187088 0.0189923,-0.0289136 0.0113387,-0.0198427 0.0167245,-0.0371342 0.0150237,-0.0518744 -0.00141733,-0.0147403 -0.008504,-0.0257955 -0.0218269,-0.0334491 -0.0136064,-0.0076536 -0.0266459,-0.00878747 -0.0385515,-0.00283467 -0.0124725,0.00566934 -0.0249451,0.0192757 -0.0371342,0.0408192l-0.0294805 0.051024 -0.134363 -0.0776699 0.0864574 -0.14967 0.0445043 0.0257955 -0.060095 0.104599 0.0513075 0.0294805 0.0107717 -0.0187088c0.0076536,-0.0130395 0.0161576,-0.0252285 0.0252285,-0.0357168 0.0093544,-0.0107717 0.0195592,-0.0189923 0.0306144,-0.0249451 0.0110552,-0.0059528 0.0229608,-0.00907094 0.0360003,-0.00878747 0.0130395,0.000283467 0.0269293,0.00453547 0.0419531,0.0130395zm0.143434 -0.0462051l-0.0396854 0.0493232 -0.110552 -0.243215 -0.0904259 0.111969 -0.0411027 -0.0331656 0.131245 -0.162143 0.0368507 0.0300475 0.11367 0.247183zm0.148253 -0.176033l-0.0439374 0.0453547 -0.089292 -0.251719 -0.0997803 0.103465 -0.0379846 -0.0365672 0.144852 -0.149954 0.0342995 0.0331656 0.0918432 0.256254zm0.193608 -0.303876c0.00992134,0.0119056 0.0161576,0.0249451 0.0189923,0.038268 0.0025512,0.0138899 0.00198427,0.0277797 -0.00198427,0.0416696 -0.0034016,0.0138899 -0.0102048,0.0280632 -0.0198427,0.0416696 -0.00963787,0.0138899 -0.0218269,0.0266459 -0.0362838,0.038835 -0.00368507,0.00311813 -0.0076536,0.00623627 -0.0119056,0.0093544 -0.00453547,0.0034016 -0.00878747,0.00651974 -0.0133229,0.00963787 -0.00453547,0.0034016 -0.00907094,0.00623627 -0.0133229,0.00907094 -0.00453547,0.00283467 -0.008504,0.00538587 -0.0124725,0.0076536l-0.0306144 -0.0362838c0.00793707,-0.004252 0.017008,-0.00907094 0.0263624,-0.0155907 0.00963787,-0.00623627 0.0187088,-0.0130395 0.0277797,-0.0206931 0.0175749,-0.0147403 0.0283467,-0.0294805 0.0320317,-0.0436539 0.00368507,-0.0144568 0.000566934,-0.0272128 -0.0093544,-0.038835 -0.00992134,-0.0119056 -0.0218269,-0.0175749 -0.0351499,-0.0161576 -0.0136064,0.00113387 -0.029764,0.00992134 -0.0490398,0.0260789l-0.0450712 0.0377011 -0.0994968 -0.118773 0.132379 -0.111119 0.0331656 0.0394019 -0.0926936 0.0773864 0.038268 0.0456382 0.0167245 -0.0138899c0.0116221,-0.00992134 0.0238112,-0.0184253 0.0360003,-0.0252285 0.0124725,-0.0068032 0.0246616,-0.0110552 0.0371342,-0.0130395 0.0124725,-0.0017008 0.0243781,-0.000283467 0.0368507,0.004252 0.0121891,0.00453547 0.0238112,0.0136064 0.0348664,0.0266459zm0.202962 -0.136914c0.00822054,0.0133229 0.012756,0.0269293 0.0136064,0.0408192 0.000566934,0.0138899 -0.00198427,0.0272128 -0.0076536,0.0408192 -0.00566934,0.0133229 -0.0141733,0.0263624 -0.025512,0.0385515 -0.0116221,0.0121891 -0.0252285,0.0232443 -0.0413862,0.0334491 -0.00396854,0.00226773 -0.008504,0.00481894 -0.0130395,0.00737014 -0.0051024,0.0025512 -0.00963787,0.00538587 -0.0144568,0.00793707 -0.00481894,0.0025512 -0.00992134,0.00481894 -0.0144568,0.0068032 -0.00481894,0.0025512 -0.0093544,0.004252 -0.0136064,0.0059528l-0.0249451 -0.0402523c0.00822054,-0.00283467 0.0178584,-0.00651974 0.0280632,-0.0116221 0.0102048,-0.00481894 0.0204096,-0.0104883 0.0303309,-0.0167245 0.0192757,-0.0121891 0.0320317,-0.0252285 0.0377011,-0.0385515 0.00566934,-0.0138899 0.00453547,-0.0269293 -0.00368507,-0.0399688 -0.008504,-0.0133229 -0.0192757,-0.0204096 -0.0325987,-0.0206931 -0.0136064,-0.0008504 -0.0308979,0.00538587 -0.0521579,0.0187088l-0.0498902 0.0311813 -0.0822054 -0.131529 0.146836 -0.0915598 0.0272128 0.0436539 -0.102332 0.06378 0.0314648 0.0504571 0.0181419 -0.0116221c0.0133229,-0.00793707 0.0263624,-0.0147403 0.0394019,-0.0198427 0.0130395,-0.0051024 0.0260789,-0.00737014 0.0385515,-0.00737014 0.0124725,-0.000283467 0.0243781,0.0025512 0.0360003,0.00907094 0.0113387,0.00623627 0.0215435,0.0164411 0.0306144,0.0311813zm0.150804 0.0272128l-0.0564099 0.0286301 -0.00226773 -0.267026 -0.127844 0.0654808 -0.0240947 -0.0470555 0.185671 -0.0946779 0.0215435 0.04252 0.0034016 0.272128zm0.28375 -0.223939c0.00566934,0.0144568 0.00737014,0.0286301 0.00566934,0.04252 -0.00226773,0.0136064 -0.00708667,0.0266459 -0.0153072,0.0385515 -0.00822054,0.0119056 -0.0189923,0.0229608 -0.0325987,0.0331656 -0.0136064,0.00963787 -0.0291971,0.0178584 -0.046772,0.0246616 -0.00453547,0.0017008 -0.0093544,0.0034016 -0.0144568,0.00481894 -0.0051024,0.0017008 -0.0104883,0.0034016 -0.0155907,0.0051024 -0.00566934,0.00141733 -0.0107717,0.00283467 -0.0155907,0.00396854 -0.00538587,0.00141733 -0.00992134,0.00226773 -0.0144568,0.0034016l-0.0167245 -0.0445043c0.00878747,-0.00113387 0.0184253,-0.00311813 0.0294805,-0.00623627 0.0110552,-0.0025512 0.0221104,-0.00623627 0.0331656,-0.0104883 0.0215435,-0.00822054 0.0362838,-0.0184253 0.0445043,-0.0306144 0.00822054,-0.0124725 0.0093544,-0.025512 0.00396854,-0.0396854 -0.00566934,-0.0147403 -0.0150237,-0.0238112 -0.0283467,-0.0269293 -0.0130395,-0.00311813 -0.0311813,-0.000283467 -0.0544256,0.008504l-0.0549926 0.02126 -0.0555595 -0.144852 0.161293 -0.0617958 0.0184253 0.0479059 -0.112536 0.0433704 0.02126 0.055276 0.0204096 -0.00793707c0.0138899,-0.00538587 0.0283467,-0.0093544 0.0419531,-0.0119056 0.0141733,-0.0025512 0.0272128,-0.0025512 0.0394019,0 0.0124725,0.00226773 0.0235277,0.00737014 0.0337325,0.0158741 0.00992134,0.00822054 0.0178584,0.0204096 0.0240947,0.0365672zm0.240096 -0.0564099c0.0034016,0.0153072 0.00283467,0.029764 -0.00113387,0.0428035 -0.00396854,0.0136064 -0.0110552,0.0252285 -0.02126,0.0360003 -0.00963787,0.0104883 -0.0223939,0.0198427 -0.0371342,0.0274963 -0.0147403,0.00737014 -0.0317483,0.0130395 -0.0501736,0.017008 -0.00453547,0.00113387 -0.00963787,0.00198427 -0.0150237,0.00283467 -0.00538587,0.000566934 -0.0107717,0.00141733 -0.0161576,0.00226773 -0.00538587,0.0008504 -0.0107717,0.00113387 -0.0161576,0.0017008 -0.0051024,0.000283467 -0.00992134,0.000566934 -0.0144568,0.0008504l-0.00992134 -0.0464886c0.00907094,0.000283467 0.0192757,0 0.0303309,-0.00141733 0.0113387,-0.00113387 0.0229608,-0.00283467 0.0342995,-0.00538587 0.0223939,-0.00453547 0.038835,-0.0124725 0.0487563,-0.0232443 0.0102048,-0.0110552 0.0133229,-0.0238112 0.0102048,-0.0385515 -0.0034016,-0.0155907 -0.0110552,-0.0257955 -0.0235277,-0.0308979 -0.012756,-0.0051024 -0.0308979,-0.0051024 -0.0555595,0l-0.0575438 0.0121891 -0.0320317 -0.151655 0.16923 -0.0360003 0.0104883 0.0501736 -0.117922 0.0252285 0.0121891 0.0581107 0.02126 -0.00453547c0.0150237,-0.00311813 0.0294805,-0.0051024 0.0436539,-0.00538587 0.0141733,-0.000283467 0.0269293,0.00198427 0.038835,0.00623627 0.0119056,0.004252 0.0221104,0.0110552 0.0306144,0.0209765 0.00878747,0.00963787 0.0147403,0.0226773 0.0181419,0.0396854z" />
   <path
   id="_106700544"
   class="fil85"
   d="M12.2344 2.8066c2.20225,0 4.19701,0.893487 5.64071,2.33718 1.4437,1.4437 2.33718,3.43845 2.33718,5.64099 0,2.20254 -0.893487,4.19729 -2.33718,5.64099 -1.4437,1.4437 -3.43845,2.33718 -5.64071,2.33718 -2.20282,0 -4.19729,-0.893487 -5.64099,-2.33718 -1.4437,-1.4437 -2.33718,-3.43845 -2.33718,-5.64099 0,-2.20254 0.893487,-4.19729 2.33718,-5.64099 1.4437,-1.4437 3.43817,-2.33718 5.64099,-2.33718zm5.55652 2.42137c-1.42187,-1.42215 -3.38658,-2.30203 -5.55652,-2.30203 -2.16994,0 -4.13493,0.879881 -5.5568,2.30203 -1.42215,1.42215 -2.30203,3.38714 -2.30203,5.5568 0,2.16994 0.879881,4.13493 2.30203,5.5568 1.42187,1.42215 3.38686,2.30203 5.5568,2.30203 2.16994,0 4.13465,-0.879881 5.55652,-2.30203 1.42215,-1.42187 2.30203,-3.38686 2.30203,-5.5568 0,-2.16965 -0.879881,-4.13465 -2.30203,-5.5568zm-5.55652 2.84657c0.747785,0 1.42584,0.303593 1.91595,0.793991l0 0.000283467 0 0c0.490398,0.490114 0.794274,1.16788 0.794274,1.91595 0,0.748069 -0.303876,1.42612 -0.794274,1.91624l0 0 0 0c-0.490114,0.490398 -1.16817,0.794274 -1.91595,0.794274 -0.748069,0 -1.42612,-0.303876 -1.91624,-0.794274l0 0 0 0c-0.490398,-0.490114 -0.794274,-1.16817 -0.794274,-1.91624 0,-0.748069 0.303876,-1.42584 0.794274,-1.91595l0 0 0 -0.000283467c0.490114,-0.490398 1.16817,-0.793991 1.91624,-0.793991zm1.83205 0.87818c-0.468571,-0.468854 -1.11658,-0.758841 -1.83205,-0.758841 -0.71547,0 -1.36376,0.289987 -1.83205,0.758841l-0.000283467 0c-0.468571,0.468571 -0.758841,1.11658 -0.758841,1.83205 0,0.71547 0.29027,1.36376 0.758841,1.83205l0.000283467 0.000283467c0.468287,0.468571 1.11658,0.758841 1.83205,0.758841 0.71547,0 1.36348,-0.29027 1.83205,-0.758841l0 -0.000283467c0.468571,-0.468287 0.758841,-1.11658 0.758841,-1.83205 0,-0.71547 -0.29027,-1.36348 -0.758841,-1.83205l0 0z" />
  </g>
  <path
   class="fil86"
   d="M12.2523 12.8799c6.37574,0 11.5462,1.87882 11.5462,4.19588 0,2.31677 -5.17043,4.19588 -11.5462,4.19588 -6.37574,0 -11.5459,-1.8791 -11.5459,-4.19588 0,-2.31706 5.17015,-4.19588 11.5459,-4.19588z"
   id="path218" />
  <g
   id="_79394288">
   <path
   id="_44711704"
   class="fil87"
   d="M12.2356 13.4709c6.17958,0 11.1913,1.7283 11.1913,3.85968 0,2.13139 -5.01169,3.85968 -11.1913,3.85968 -6.17958,0 -11.191,-1.7283 -11.191,-3.85968 0,-2.13139 5.01141,-3.85968 11.191,-3.85968z" />
   <path
   id="_73018440"
   class="fil88"
   d="M12.2186 14.0625c5.98398,0 10.8367,1.57749 10.8367,3.52349 0,1.94543 -4.85267,3.52349 -10.8367,3.52349 -5.98342,0 -10.8361,-1.57806 -10.8361,-3.52349 0,-1.946 4.85267,-3.52349 10.8361,-3.52349z" />
   <path
   id="_44664512"
   class="fil89"
   d="M12.2018 14.6538c5.78783,0 10.4818,1.42726 10.4818,3.1873 0,1.76005 -4.69393,3.1873 -10.4818,3.1873 -5.78783,0 -10.4812,-1.42726 -10.4812,-3.1873 0,-1.76005 4.69336,-3.1873 10.4812,-3.1873z" />
   <path
   id="_75136624"
   class="fil90"
   d="M12.1854 15.2451c5.59195,0 10.1269,1.27673 10.1269,2.85111 0,1.57437 -4.5349,2.85111 -10.1269,2.85111 -5.59195,0 -10.1266,-1.27673 -10.1266,-2.85111 0,-1.57437 4.53462,-2.85111 10.1266,-2.85111z" />
   <path
   id="_76895000"
   class="fil91"
   d="M12.1681 15.8367c5.39607,0 9.77195,1.12593 9.77195,2.51492 0,1.3887 -4.37588,2.51492 -9.77195,2.51492 -5.39579,0 -9.77167,-1.12621 -9.77167,-2.51492 0,-1.38899 4.37588,-2.51492 9.77167,-2.51492z" />
   <path
   id="_77524432"
   class="fil92"
   d="M12.1517 16.428c5.2002,0 9.41705,0.975409 9.41705,2.17873 0,1.20303 -4.21685,2.17873 -9.41705,2.17873 -5.19991,0 -9.41705,-0.975693 -9.41705,-2.17873 0,-1.20332 4.21714,-2.17873 9.41705,-2.17873z" />
   <path
   id="_78323016"
   class="fil93"
   d="M12.1349 17.0193c5.00404,0 9.06215,0.825172 9.06215,1.84253 0,1.01765 -4.05811,1.84253 -9.06215,1.84253 -5.00432,0 -9.06215,-0.824888 -9.06215,-1.84253 0,-1.01736 4.05783,-1.84253 9.06215,-1.84253z" />
   <path
   id="_79082944"
   class="fil94"
   d="M12.1179 17.6109c4.80845,0 8.70753,0.674368 8.70753,1.50634 0,0.831692 -3.89909,1.50634 -8.70753,1.50634 -4.80816,0 -8.70725,-0.674651 -8.70725,-1.50634 0,-0.831975 3.89909,-1.50634 8.70725,-1.50634z" />
  </g>
  <path
   class="fil95"
   d="M12.1009 18.2025c4.61229,0 8.35263,0.523847 8.35263,1.17015 0,0.646304 -3.74034,1.17015 -8.35263,1.17015 -4.61257,0 -8.35292,-0.523847 -8.35292,-1.17015 0,-0.646304 3.74034,-1.17015 8.35292,-1.17015z"
   id="path229" />
  <path
   class="fil96"
   d="M1.07887 18.0821l-0.00396854 -0.195025 1.9477 -0.000283467c1.30707,1.93494 4.55078,2.31904 8.47594,2.31904 3.92488,0 7.37949,-0.384381 8.68656,-2.31904l2.40748 0.000283467 0.004252 0.195025 -1.9905 0c-1.3734,2.03217 -4.9978,2.48629 -9.12139,2.48629 -4.12359,0 -7.53682,-0.453547 -8.91021,-2.48629l-1.49585 0z"
   id="path231" />
  <path
   class="fil97"
   d="M22.1039 15.1482l0.790589 0.435122 -0.176316 2.67479c0,0 0.499752,2.14556 -0.793424,1.82212 -1.29318,-0.323436 -2.9027,-1.7266 -2.87322,-2.07923 0.0294805,-0.352633 3.05237,-2.85281 3.05237,-2.85281z"
   id="path233" />
  <path
   class="fil84"
   style="mask:url(#id0)"
   d="M23.6284 20.3577c-0.111969,0.374176 -0.315782,0.709517 -0.585642,0.979094 -0.420381,0.420665 -1.00064,0.681738 -1.63787,0.681738l-8.68769 0 -1.31869 0 -8.4184 0c-0.637233,0 -1.21749,-0.261073 -1.63787,-0.681738 -0.26986,-0.26986 -0.473673,-0.605202 -0.585642,-0.979094l0.19049 0.416129c0.105733,0.324003 0.287435,0.19871 0.52328,0.434838 0.387216,0.387216 0.922117,0.627879 1.50974,0.627879l8.4184 0 1.31869 0 8.68769 0c0.587627,0 1.12253,-0.240663 1.50974,-0.627879 0.235844,-0.236128 0.417263,-0.110836 0.52328,-0.434838l0.19049 -0.416129z"
   id="path235"
   mask="url(#id0)" />
  <path
   class="fil98"
   d="M1.99249 15.4773l2.02792 -0.000283467c0.188789,0.000566934 0.404791,0.0830558 0.574304,0.222521 0.152505,0.125859 0.270711,0.299341 0.303026,0.502587 0.0286301,0.179151 0.0306144,0.232443 0.0317483,0.265325l0 0.000283467c0.00113387,0.0357168 0.00198427,0.0422366 0.0796542,0.34668l0 0c0.231876,0.905109 1.09815,1.71299 2.36496,2.30062 1.26625,0.587343 2.92906,0.953015 4.76082,0.97796 1.83148,-0.0249451 3.4943,-0.390617 4.76082,-0.97796 1.26681,-0.587627 2.1328,-1.39551 2.36468,-2.30062 0.0779534,-0.304443 0.0782368,-0.310113 0.0793707,-0.346396l0 -0.0008504c0.00141733,-0.0325987 0.00311813,-0.0847566 0.0320317,-0.265041 0.0323152,-0.204096 0.153356,-0.382113 0.308695,-0.512225 0.171214,-0.143434 0.3892,-0.230742 0.577705,-0.231309l2.25526 -0.0362838 0 0.181135 -2.25526 0.0360003c-0.147119,0.000566934 -0.321451,0.072284 -0.461484,0.189639 -0.124442,0.104032 -0.221104,0.244348 -0.246049,0.401389 -0.0266459,0.167529 -0.0286301,0.214301 -0.029764,0.243215l0 0.0008504c-0.0017008,0.0527248 -0.0025512,0.0629296 -0.08504,0.384381 -0.246333,0.960952 -1.14861,1.8105 -2.46418,2.42081 -1.28779,0.597548 -2.97725,0.969456 -4.83594,0.994402l-0.00198427 0c-1.85869,-0.0249451 -3.54787,-0.396854 -4.83566,-0.994402 -1.31614,-0.610304 -2.21841,-1.45985 -2.46446,-2.42081l-0.000283467 0c-0.0827723,-0.322585 -0.0830558,-0.330522 -0.08504,-0.384948l0 -0.000566934c-0.0008504,-0.0283467 -0.0025512,-0.0737014 -0.0294805,-0.242931 -0.0249451,-0.155907 -0.118206,-0.29112 -0.239246,-0.390901 -0.138332,-0.11367 -0.310963,-0.181135 -0.459216,-0.181702l-2.02792 0.000566934 0 -0.181135z"
   id="path237" />
  <path
   class="fil99"
   d="M23.5054 16.0286l0 5.10722c-0.0243781,0.06378 -0.0527248,0.12671 -0.0861739,0.188222l-0.0113387 0.0204096 -0.0844731 0 0 -5.31585 0.181986 0z"
   id="path239" />
  <path
   class="fil100"
   d="M23.4461 20.805c-0.0136064,0.0445043 -0.0303309,0.0875912 -0.0490398,0.129544l0.0861739 0c-0.0209765,0.0674651 -0.0479059,0.131529 -0.0805046,0.193041 -0.0269293,0.034016 -0.055843,0.0657643 -0.0864574,0.0958118 -0.223939,0.224506 -0.532918,0.363971 -0.871944,0.363971l-20.7311 0c-0.311247,0 -0.596981,-0.117355 -0.815251,-0.309546 -0.076536,-0.102898 -0.135781,-0.218553 -0.174899,-0.343278l0.0121891 0c-0.0187088,-0.0419531 -0.0354333,-0.0853235 -0.0493232,-0.129544l0.11367 0c0.038835,0.0575438 0.0833392,0.111969 0.132379,0.161009 0.190773,0.190773 0.454681,0.309262 0.744384,0.309262l20.7311 0c0.288853,0 0.552477,-0.118773 0.743817,-0.309546 0.0487563,-0.0493232 0.0932606,-0.103465 0.131812,-0.160726l0.162993 0z"
   id="path241" />
  <path
   class="fil101"
   d="M4.47793 2.37659c0.777833,0 1.40855,-0.0782368 1.40855,-0.174616 0,-0.0963787 -0.630714,-0.174332 -1.40855,-0.174332 -0.777833,0 -1.40855,0.0779534 -1.40855,0.174332 0,0.0963787 0.630714,0.174616 1.40855,0.174616z"
   id="path243" />
  <polygon
   class="fil102"
   points="2.99426,1.83828 6.19573,1.83828 6.19573,2.85763 2.99426,2.85763 "
   id="polygon245" />
  <path
   class="fil103"
   d="M12.9238 19.5881c1.74531,-0.108568 3.3313,-0.499469 4.58564,-1.08143 1.64893,-0.76451 2.80575,-2.02735 3.14733,-3.36107l0.0481894 -0.189356"
   id="path247" />
  <path
   class="fil103"
   d="M12.8598 19.5881c1.74531,-0.108568 3.3313,-0.499469 4.58564,-1.08143 1.64893,-0.76451 2.80575,-2.02735 3.14733,-3.36107l0.0481894 -0.189356"
   id="path249" />
  <path
   class="fil103"
   d="M12.9006 19.5881c1.74531,-0.108568 3.3313,-0.499469 4.58564,-1.08143 1.64893,-0.76451 2.80575,-2.02735 3.14733,-3.36107l0.0481894 -0.189356"
   id="path251" />
  <path
   class="fil103"
   d="M12.8093 20.7328c1.74531,-0.108568 3.3313,-0.499469 4.58564,-1.08143 1.64893,-0.764793 2.80575,-1.9168 3.14733,-3.2508l0.0481894 -0.189356 1.59167 0c0.172348,0.0396854 0.267309,0.157041 0.284884,0.352066"
   id="path253" />
  <path
   class="fil104"
   d="M0.198143 14.0611l1.8655 -1.9083 0.380696 2.17532c0,0 -2.17022,-0.228758 -2.24619,-0.267026z"
   id="path255" />
  <path
   class="fil105"
   d="M23.8021 14.0611l-1.8655 -1.9083 -0.380696 2.17532c0,0 2.17022,-0.228758 2.24619,-0.267026z"
   id="path257" />
  <path
   class="fil106"
   d="M11.5507 19.7752c11.3829,-0.462334 12.2778,1.32096 12.3274,2.76834 0.0493232,1.44738 -5.26483,0.624194 -11.9014,0.873928 -6.63652,0.250018 -11.7996,0.423216 -11.7996,-0.649706 0,-1.07292 -0.0093544,-2.53022 11.3735,-2.99256z"
   id="path259" />
  <g
   id="_79353440">
   <path
   id="_113846536"
   class="fil107"
   d="M11.5122 20.4805c11.0784,-0.426901 12.4093,1.26114 12.4558,2.62292 0.0462051,1.34023 -5.37708,0.582524 -12.0388,0.812983 -6.66204,0.230459 -11.9436,0.388633 -11.9436,-0.606052 0,-1.01623 0.447311,-2.40295 11.5266,-2.82985z" />
   <path
   id="_72550600"
   class="fil108"
   d="M11.5374 20.6588c10.6042,-0.391184 12.3577,1.20105 12.4003,2.4775 0.0422366,1.23308 -5.41025,0.540571 -11.9983,0.752037 -6.58805,0.211466 -11.911,0.35405 -11.911,-0.561831 0,-0.959819 0.904259,-2.27624 11.509,-2.66771z" />
   <path
   id="_73578616"
   class="fil109"
   d="M11.5629 20.8368c10.1297,-0.355467 12.3056,1.14124 12.3444,2.33236 0.0385515,1.12565 -5.44341,0.498618 -11.9578,0.690525 -6.51435,0.192474 -11.8781,0.319751 -11.8781,-0.51761 0,-0.903125 1.36092,-2.14925 11.4915,-2.50528z" />
   <path
   id="_78902432"
   class="fil110"
   d="M11.5881 21.0151c9.65545,-0.320034 12.254,1.08086 12.2886,2.18666 0.0348664,1.01878 -5.47658,0.456948 -11.9167,0.629863 -6.44065,0.172915 -11.8458,0.284601 -11.8458,-0.473673 0,-0.846715 1.81816,-2.02282 11.4739,-2.34285z" />
   <path
   id="_109188168"
   class="fil111"
   d="M11.6136 21.1931c9.18092,-0.284317 12.2018,1.02105 12.2327,2.04124 0.0311813,0.911629 -5.50974,0.415279 -11.8761,0.568918 -6.36666,0.153639 -11.8129,0.250301 -11.8129,-0.429736 0,-0.790022 2.27482,-1.89554 11.4563,-2.18043z" />
   <path
   id="_44269376"
   class="fil112"
   d="M11.6386 21.3714c8.70668,-0.248884 12.1502,0.960952 12.1775,1.89583 0.0269293,0.804195 -5.54348,0.373326 -11.8359,0.507689 -6.29268,0.134363 -11.7803,0.215718 -11.7803,-0.385798 0,-0.733329 2.73177,-1.76855 11.4387,-2.01772z" />
   <path
   id="_76585008"
   class="fil113"
   d="M11.6644 21.5494c8.23244,-0.213451 12.0984,0.900857 12.1216,1.75012 0.0232443,0.697612 -5.57636,0.33194 -11.7951,0.447027 -6.21898,0.115371 -11.7474,0.181135 -11.7474,-0.341861 0,-0.676352 3.18843,-1.64184 11.4209,-1.85529z" />
   <path
   id="_44933848"
   class="fil114"
   d="M11.6896 21.7277c7.75792,-0.178017 12.0465,0.840763 12.0658,1.60471 0.0195592,0.590461 -5.60981,0.289987 -11.7542,0.385798 -6.14528,0.0960952 -11.7151,0.146269 -11.7151,-0.29764 0,-0.619942 3.64567,-1.51513 11.4036,-1.69286z" />
   <path
   id="_78553320"
   class="fil115"
   d="M11.7151 21.9057c7.28311,-0.142017 11.9943,0.780951 12.0099,1.45929 0.0155907,0.483311 -5.64297,0.248317 -11.714,0.324853 -6.07101,0.0768195 -11.682,0.111969 -11.682,-0.253703 0,-0.563249 4.10233,-1.38785 11.386,-1.53044z" />
   <path
   id="_74774600"
   class="fil116"
   d="M11.7406 22.084c6.80887,-0.106867 11.9427,0.720573 11.9541,1.31359 0.0119056,0.37616 -5.67614,0.206647 -11.6729,0.264191 -5.99759,0.0575438 -11.6496,0.077103 -11.6496,-0.209765 0,-0.506839 4.55928,-1.26143 11.3684,-1.36801z" />
   <path
   id="_78223352"
   class="fil117"
   d="M11.7659 22.2621c6.33463,-0.0711502 11.8909,0.660761 11.8985,1.16817 0.00793707,0.269293 -5.7093,0.164978 -11.6323,0.203246 -5.92361,0.038268 -11.6168,0.0422366 -11.6168,-0.165828 0,-0.450145 5.01623,-1.13443 11.3506,-1.20558z" />
   <path
   id="_76029848"
   class="fil118"
   d="M11.7914 22.4404c5.86011,-0.0354333 11.839,0.600666 11.843,1.02303 0.00368507,0.16186 -5.74275,0.122741 -11.5924,0.141733 -5.84934,0.0192757 -11.5839,0.00822054 -11.5839,-0.121607 0,-0.393452 5.47318,-1.00744 11.3333,-1.04316z" />
  </g>
  <path
   class="fil103"
   d="M13.0999 17.4539c0.00737014,-0.167812 -0.0949614,-0.242931 -0.272695,-0.245766 -1.95195,-0.172064 -3.73184,-0.811282 -5.14691,-1.76968 -1.77422,-1.2019 -2.99341,-2.91149 -3.31798,-4.86712 -0.0300475,-0.187938 -0.0901424,-0.372475 -0.124158,-0.56013 -0.0155907,-0.0907094 -0.0824888,-0.151088 -0.200978,-0.180852 -0.199844,0 -0.399972,0 -0.600099,0 -0.0864574,0.0464886 -0.147119,0.100064 -0.151371,0.167529"
   id="path274" />
  <path
   class="fil119"
   d="M1.47544 22.5903c-0.500602,-0.0949614 -0.902842,-0.480193 -1.01935,-0.971724l0 -6.98519 3.41407 -0.00113387c0.322018,0.00113387 0.7424,0.287719 0.804195,0.673517 0.0697328,0.436539 -0.0221104,0.0938275 0.113954,0.625611 0.480193,1.87315 3.53426,3.32677 7.27886,3.37722 3.7446,-0.0504571 6.7981,-1.50407 7.27829,-3.37722 0.136348,-0.531784 0.0445043,-0.189072 0.114237,-0.625611 0.0615123,-0.385798 0.481894,-0.672383 0.804195,-0.673517l3.47559 0.00113387 0 6.45794c-0.0263624,0.28942 -0.080788,0.569768 -0.221388,0.828573 -0.185104,0.341294 -0.483878,0.595564 -0.864574,0.670399l-21.1781 0z"
   id="path276" />
  <path
   class="fil120"
   d="M1.46581 22.4965c-0.500602,-0.0946779 -0.902842,-0.479909 -1.01935,-0.971441l0 -6.83552 3.41407 -0.00113387c0.322018,0.00113387 0.7424,0.287719 0.804195,0.673517 0.0697328,0.436539 -0.0221104,0.0938275 0.113954,0.625611 0.480193,1.87315 3.53426,3.32677 7.27886,3.37722 3.7446,-0.0504571 6.7981,-1.50407 7.27829,-3.37722 0.136348,-0.531784 0.0445043,-0.189072 0.114237,-0.625611 0.0615123,-0.385798 0.481894,-0.672383 0.804195,-0.673517l3.47559 0.00113387 0 6.30799c-0.0263624,0.28942 -0.080788,0.570052 -0.221388,0.828857 -0.185104,0.341294 -0.483878,0.595564 -0.864574,0.670116l-21.1781 0z"
   id="path278" />
  <path
   class="fil121"
   d="M2.07158 17.1529c0,1.23875 -0.00708667,2.32358 -0.00708667,3.56176 0.0328821,0.234994 0.180568,0.342428 0.442775,0.321735l7.26951 0 0.0153072 -0.523847c-1.40061,-0.0873078 -2.67338,-0.400822 -3.67997,-0.867408 -1.32294,-0.613706 -2.25158,-1.38587 -2.52569,-2.45624l-0.0391184 -0.22734 -1.24725 0c-0.138332,0.0317483 -0.214301,0.0351499 -0.228474,0.19134z"
   id="path280" />
  <path
   class="fil122"
   d="M21.9298 17.0001c0,1.23903 0.00708667,2.47637 0.00708667,3.71455 -0.0328821,0.234994 -0.180568,0.342428 -0.442775,0.321735l-7.26951 0 -0.0153072 -0.523847c1.40061,-0.0873078 2.67338,-0.400822 3.67997,-0.867408 1.32294,-0.613706 2.25158,-1.53837 2.52569,-2.60874l0.0391184 -0.227624 1.24725 0c0.138332,0.0320317 0.214301,0.0354333 0.228474,0.19134z"
   id="path282" />
  <path
   class="fil103"
   d="M11.2361 19.5881c-1.74531,-0.108568 -3.3313,-0.499469 -4.58564,-1.08143 -1.64893,-0.76451 -2.80575,-2.02735 -3.14733,-3.36107l-0.0481894 -0.189356"
   id="path284" />
  <path
   class="fil103"
   d="M12.9238 19.5881c1.74531,-0.108568 3.3313,-0.499469 4.58564,-1.08143 1.64893,-0.76451 2.80575,-2.02735 3.14733,-3.36107l0.0481894 -0.189356"
   id="path286" />
  <path
   class="fil103"
   d="M12.8598 19.5881c1.74531,-0.108568 3.3313,-0.499469 4.58564,-1.08143 1.64893,-0.76451 2.80575,-2.02735 3.14733,-3.36107l0.0481894 -0.189356"
   id="path288" />
  <path
   class="fil103"
   d="M12.9006 19.5881c1.74531,-0.108568 3.3313,-0.499469 4.58564,-1.08143 1.64893,-0.76451 2.80575,-2.02735 3.14733,-3.36107l0.0481894 -0.189356"
   id="path290" />
  <path
   class="fil103"
   d="M12.8093 20.7328c1.74531,-0.108568 3.3313,-0.499469 4.58564,-1.08143 1.64893,-0.764793 2.80575,-1.9168 3.14733,-3.2508l0.0481894 -0.189356 1.59167 0c0.172348,0.0396854 0.267309,0.157041 0.284884,0.352066"
   id="path292" />
  <path
   class="fil123"
   d="M1.56445 22.9869c-0.346963,-0.0654808 -0.659627,-0.231309 -0.905109,-0.465169 -0.247183,-0.235844 -0.428035,-0.540855 -0.508823,-0.881298l-0.0136064 -0.115371 0 -6.98802 0 -0.498051 0.500035 0 3.22358 -0.00113387c0.284034,0.0008504 0.602083,0.124442 0.844448,0.327404 0.22564,0.189072 0.402239,0.454114 0.451846,0.765927 0.0331656,0.206647 0.0357168,0.274963 0.0371342,0.317483l0 0.00396854 0.0671816 0.259372c0.202112,0.788321 0.994685,1.50974 2.16314,2.05173 1.22911,0.570335 2.84714,0.925519 4.63326,0.950464 1.78612,-0.0249451 3.40387,-0.380129 4.63298,-0.950464 1.16788,-0.541989 1.96074,-1.26341 2.16285,-2.05173l0.0674651 -0.263624c0.00141733,-0.04252 0.00453547,-0.111119 0.0371342,-0.317199 0.0496067,-0.311813 0.226207,-0.576855 0.451563,-0.765927 0.242648,-0.202962 0.560697,-0.326554 0.844731,-0.327404l3.2474 0.00113387 0.500035 0 0 0.498051 0 6.46049 -0.00396854 0.0447878c-0.0155907,0.17008 -0.0394019,0.338459 -0.0793707,0.500035 -0.0436539,0.176033 -0.10715,0.350648 -0.199277,0.520162l0.000566934 0.000283467c-0.127277,0.234994 -0.297924,0.442208 -0.505421,0.60265 -0.203529,0.157324 -0.43994,0.270144 -0.702714,0.321451l-0.0958118 0.00963787 -20.7594 0 -0.0918432 -0.00963787zm-0.217419 -1.18801c0.0992134,0.0943944 0.222238,0.164127 0.357452,0.197576l20.6574 0c0.0901424,-0.0238112 0.172064,-0.0654808 0.242931,-0.12019 0.0938275,-0.0725675 0.174049,-0.171497 0.236128,-0.286301l0.0017008 -0.00198427c0.0476224,-0.0875912 0.0819219,-0.183403 0.106867,-0.28375 0.0249451,-0.101481 0.0411027,-0.205797 0.0521579,-0.310113l0 -5.95932 -2.74736 -0.0008504c-0.0547091,0 -0.132096,0.0371342 -0.204096,0.0972291 -0.0564099,0.047339 -0.0997803,0.103749 -0.108001,0.156474 -0.0229608,0.145702 -0.0246616,0.177167 -0.0252285,0.195876 -0.00311813,0.0909928 -0.00396854,0.104883 -0.0986464,0.474523 -0.280632,1.09447 -1.27248,2.04521 -2.70994,2.71221 -1.34703,0.625044 -3.10963,1.01396 -5.04486,1.04004l-0.0119056 0c-1.93523,-0.0260789 -3.69811,-0.414995 -5.04514,-1.04004 -1.43774,-0.666997 -2.42959,-1.61775 -2.71023,-2.71221 -0.0932606,-0.364822 -0.0955283,-0.383531 -0.098363,-0.47424l0 -0.00368507c-0.0008504,-0.0195592 -0.0034016,-0.055276 -0.0252285,-0.192474 -0.00822054,-0.0527248 -0.0513075,-0.108851 -0.108284,-0.156474 -0.0717171,-0.060095 -0.149104,-0.0972291 -0.203813,-0.0972291l-2.72355 0.0008504 0 6.42478c0.0402523,0.130962 0.113954,0.24775 0.210049,0.33931z"
   id="path294" />
  <path
   class="fil124"
   d="M19.2825 15.886l-0.00623627 -0.127277 -0.00368507 0.0141733c0.0668982,-0.382397 0.357168,-0.646304 0.677202,-0.647155l3.0056 -0.025512 0.188505 0.0104883 0.165828 -0.157041 0.19134 0.136064 -0.0657643 0.059528 0.0742683 0.0527248 -0.0445043 0.0411027 0.0360003 0.025512 -0.0527248 0.047339 0.0527248 0.0377011 -0.0133229 0.0121891 0.0218269 0.0158741 -0.051591 0.047339 0.051591 0.0368507 -0.0445043 0.0411027 0.0360003 0.025512 -0.0325987 0.029764 0.00311813 0.00226773 -0.0328821 0.0303309 0.0708667 0.0507406 -0.0634966 0.0583942 0.017008 0.0121891 -0.0133229 0.0121891 0.0218269 0.0158741 -0.051591 0.047339 0.051591 0.0368507 -0.0445043 0.0411027 0.0360003 0.025512 -0.0657643 0.0598115 0.0742683 0.0532918 -0.229608 0.210616 -0.297357 0.00708667 -3.02317 0.0260789c-0.258805,0.00113387 -0.524414,0.153639 -0.674368,0.426334l-0.0025512 0.0133229 -0.00623627 -0.126426 -0.00368507 0.0141733c0.00538587,-0.0334491 0.0133229,-0.0668982 0.0229608,-0.098363l-0.0104883 0.0175749 -0.0025512 0.0138899 -0.00623627 -0.126993 -0.00368507 0.0138899 0.00708667 -0.0331656 -0.0034016 -0.0649139 -0.00368507 0.0138899c0.00538587,-0.0331656 0.0133229,-0.0666147 0.0229608,-0.0980795l-0.0104883 0.0175749 -0.0025512 0.0138899 -0.00623627 -0.127277 -0.00368507 0.0141733c0.00992134,-0.0564099 0.0246616,-0.110269 0.0436539,-0.161009l-0.00198427 -0.0357168 -0.00368507 0.0138899c0.00538587,-0.0331656 0.0133229,-0.0666147 0.0229608,-0.0980795l-0.0104883 0.0175749 -0.0025512 0.0138899zm-14.5662 -0.0762526l0.00623627 -0.127277 0.00368507 0.0141733c-0.0668982,-0.382397 -0.357168,-0.646304 -0.677202,-0.647155l-3.0056 -0.025512 -0.188505 0.0104883 -0.165828 -0.157041 -0.19134 0.136064 0.0657643 0.059528 -0.0742683 0.0527248 0.0445043 0.0411027 -0.0360003 0.025512 0.0527248 0.047339 -0.0527248 0.0377011 0.0133229 0.0121891 -0.0218269 0.0158741 0.051591 0.047339 -0.051591 0.0368507 0.0445043 0.0411027 -0.0360003 0.025512 0.0325987 0.029764 -0.00311813 0.00226773 0.0328821 0.0303309 -0.0708667 0.0507406 0.0634966 0.0583942 -0.017008 0.0121891 0.0133229 0.0121891 -0.0218269 0.0158741 0.051591 0.047339 -0.051591 0.0368507 0.0445043 0.0411027 -0.0360003 0.025512 0.0657643 0.0598115 -0.0742683 0.0532918 0.229608 0.210616 0.297357 0.00708667 3.02317 0.0260789c0.258805,0.00113387 0.524414,0.153639 0.674368,0.426334l0.0025512 0.0133229 0.00623627 -0.126426 0.00368507 0.0141733c-0.00538587,-0.0334491 -0.0133229,-0.0668982 -0.0229608,-0.098363l0.0104883 0.0175749 0.0025512 0.0138899 0.00623627 -0.126993 0.00368507 0.0138899 -0.00708667 -0.0331656 0.0034016 -0.0649139 0.00368507 0.0138899c-0.00538587,-0.0331656 -0.0133229,-0.0666147 -0.0229608,-0.0980795l0.0104883 0.0175749 0.0025512 0.0138899 0.00623627 -0.127277 0.00368507 0.0141733c-0.00992134,-0.0564099 -0.0246616,-0.110269 -0.0436539,-0.161009l0.00198427 -0.0357168 0.00368507 0.0138899c-0.00538587,-0.0331656 -0.0133229,-0.0666147 -0.0229608,-0.0980795l0.0104883 0.0175749 0.0025512 0.0138899z"
   id="path296" />
  <path
   class="fil125"
   d="M12.11 11.4796l0.000566934 0c1.7076,0 3.10453,0.708667 3.10453,1.57267l0 10.8117 -6.20934 0 0 -10.8117c0,-0.864857 1.39692,-1.57267 3.10424,-1.57267z"
   id="path298" />
  <path
   class="fil126"
   d="M9.55822 20.9547c0.122174,0.0175749 0.245199,-0.486996 0.369357,-0.471405 0.670116,0.0841896 1.37056,0.655659 2.09312,0.66473 0.773014,-0.00963787 1.4539,-0.431436 2.16625,-0.526681 0.101765,-0.0136064 0.270427,0.337042 0.370775,0.321735l0 1.70987 -4.9995 0 0 -1.69825z"
   id="path300" />
  <path
   class="fil126"
   d="M14.5577 20.9428l0 1.71016 -1.16533 0 0 -1.57182c0.397987,-0.034016 0.78662,-0.080788 1.16533,-0.138332z"
   id="path302" />
  <path
   class="fil127"
   d="M12.4388 11.4577l0.0008504 0c1.76883,0 3.21621,0.704132 3.21621,1.5619l0 10.7335 -6.43356 0 0 -10.7335c0,-0.858621 1.44766,-1.5619 3.2165,-1.5619z"
   id="path304" />
  <g
   id="_77770152">
   <path
   id="_74513560"
   class="fil128"
   d="M12.4388 11.5822c0.000566934,0 0.0008504,0 0.0008504,0 1.7093,0 3.10821,0.698179 3.10821,1.54943 0,3.55099 0,7.10169 0,10.653 -2.07243,0 -4.14428,0 -6.21699,0 0,-3.55127 0,-7.10169 0,-10.653 0,-0.851818 1.39891,-1.54943 3.1085,-1.54943l-0.000566934 0z" />
   <path
   id="_74513656"
   class="fil129"
   d="M12.4388 11.7069c0.000566934,0 0.0008504,0 0.0008504,0 1.64978,0 3.0005,0.692793 3.0005,1.53781 0,3.52406 0,7.04727 0,10.571 -2.00099,0 -4.00085,0 -6.00213,0 0,-3.52378 0,-7.04784 0,-10.571 0,-0.846148 1.351,-1.53781 3.00078,-1.53781z" />
   <path
   id="_79007424"
   class="fil130"
   d="M12.4388 11.8311c0.000566934,0 0.000566934,0 0.000566934,0 1.59082,0 2.89278,0.687407 2.89278,1.52619 0,3.49656 0,6.99313 0,10.4903 -1.92899,0 -3.85685,0 -5.78584,0 0,-3.49713 0,-6.99369 0,-10.4903 0,-0.839629 1.30168,-1.52619 2.89306,-1.52619l-0.000566934 0z" />
   <path
   id="_79007520"
   class="fil131"
   d="M12.4388 11.9552c0.000566934,0 0.000566934,0 0.000566934,0 1.53185,0 2.78478,0.682872 2.78478,1.51428 0,3.46963 0,6.93927 0,10.4092 -1.85727,0 -3.71313,0 -5.56984,0 0,-3.46992 0,-6.93955 0,-10.4092 0,-0.832542 1.25292,-1.51428 2.78506,-1.51428l-0.000566934 0z" />
   <path
   id="_79007592"
   class="fil132"
   d="M12.4388 12.0794c0.000566934,0 0.000566934,0 0.000566934,0 1.47204,0 2.67649,0.676635 2.67649,1.50237 0,3.4427 0,6.88541 0,10.3284 -1.78556,0 -3.56885,0 -5.35469,0 0,-3.44299 0,-6.88569 0,-10.3284 0,-0.826589 1.2053,-1.50237 2.67763,-1.50237z" />
  </g>
  <path
   class="fil133"
   d="M12.4388 12.2041l0.000566934 0c1.4128,0 2.56934,0.671816 2.56934,1.49075l0 10.2465 -5.13925 0 0 -10.2465c0,-0.819786 1.15626,-1.49075 2.56934,-1.49075z"
   id="path312" />
  <path
   class="fil134"
   d="M12.4158 10.287l0 0c1.17497,0 2.13592,0.703848 2.13592,1.56134l0 1.71271 -4.27213 0 0 -1.71271c0,-0.858621 0.961236,-1.56134 2.13621,-1.56134z"
   id="path314" />
  <path
   class="fil135"
   d="M12.4158 10.204l0 0c0.319467,0 0.623627,0.0524414 0.896039,0.145418l0 1.3048 -1.78754 0 0 -1.3065c0.272128,-0.0921267 0.573453,-0.143718 0.891503,-0.143718z"
   id="path316" />
  <path
   class="fil136"
   d="M9.79434 20.8649c0.126426,0.0175749 0.25427,-0.483027 0.382397,-0.468004 0.694494,0.0836227 1.42102,0.651123 2.16937,0.660478 0.800227,-0.00963787 1.50606,-0.428602 2.24449,-0.52328 0.105166,-0.0133229 0.280065,0.334491 0.384098,0.319184l0 1.69768 -5.17979 0 0 -1.68606 -0.000566934 0z"
   id="path318" />
  <path
   class="fil136"
   d="M14.9741 20.853l0 1.69797 -1.20672 0 0 -1.56048c0.411594,-0.034016 0.814684,-0.0802211 1.20672,-0.137481z"
   id="path320" />
  <path
   class="fil137"
   d="M12.4153 10.3003l0.0008504 0c1.17497,0 2.13564,0.768478 2.13564,1.66678l0 11.782 -4.27156 -0.029764 0 -11.782c0,-0.900857 0.960669,-1.63702 2.13564,-1.63702l-0.000566934 0z"
   id="path322" />
  <path
   class="fil138"
   d="M14.3854 12.3569l0 1.10013 0 10.1816 0 0.18482 -0.100347 0 -3.69216 -0.0107717 -0.101198 0 0 -0.102048 0 -10.1816 0 -1.18262 0 -0.529233c0,-0.460917 0.224506,-0.880164 0.584792,-1.18177 0.355751,-0.29764 0.832259,-0.472256 1.36858,-0.472256l0.00113387 0c0.535469,0 0.942244,0.18482 1.29686,0.483027 0.36142,0.301609 0.642619,0.719722 0.642619,1.18092l0 0.529233 -0.000283467 0.000566934zm-0.375877 1.18291l0 -1.18291 0 -0.529516c0,-0.396854 0.0836227,-0.801361 -0.231309,-1.06527 -0.319184,-0.267876 -0.844448,-0.393168 -1.33286,-0.393168l-0.000566934 0c-0.48898,0 -1.08483,0.155907 -1.40373,0.424633 -0.315215,0.263057 -0.102898,0.615123 -0.102898,1.01368l0 0.528666 0 1.18347 -0.000566934 10.0568 3.07165 0.0419531 0 -10.0781 0.000283467 -0.000283467z"
   id="path324" />
  <path
   class="fil139"
   d="M12.2384 13.2702l0.000566934 0c0.789172,0 1.36092,0.384098 1.36092,0.826873l0 7.83701c0,0.443059 -0.64517,0.805896 -1.43378,0.805896l-0.000566934 0c-0.787754,0 -1.1968,-0.404507 -1.1968,-0.847566l0 -7.83701c0,-0.443909 0.48076,-0.785203 1.26965,-0.785203z"
   id="path326" />
  <path
   class="fil140"
   d="M10.1966 12.8172c0,-0.0504571 0.00283467,-0.0997803 0.00907094,-0.14882l-0.00907094 0c0,-0.0538587 0.00368507,-0.10545 0.0104883,-0.156474l-0.0104883 0 0.00481894 -0.108851 -0.00481894 0c0,-0.0538587 0.00368507,-0.10545 0.0104883,-0.156474l-0.0104883 0c0,-0.461767 0.255687,-0.879881 0.670682,-1.18262 0.406491,-0.297073 0.966905,-0.481894 1.58061,-0.481894l0 0c0.613989,0 1.1744,0.18482 1.58089,0.481894 0.413578,0.303593 0.669832,0.721423 0.669832,1.18262l-0.00963787 0c0.0068032,0.0513075 0.00963787,0.102898 0.00963787,0.156474l-0.00481894 0 0.00481894 0.108851 -0.00963787 0c0.0068032,0.051024 0.00963787,0.102615 0.00963787,0.156474l-0.00907094 0c0.00623627,0.0490398 0.00907094,0.098363 0.00907094,0.14882l-0.00963787 0c0.0068032,0.0513075 0.00963787,0.102898 0.00963787,0.156474l-0.00481894 0 0.00481894 0.108568 -0.00963787 0c0.0068032,0.0513075 0.00963787,0.102615 0.00963787,0.156757l-0.160726 0c0,-0.397704 -0.293955,-0.759974 -0.655092,-1.0236 -0.36709,-0.26901 -0.874495,-0.435688 -1.43548,-0.435688l0 0c-0.560414,0 -1.06924,0.166678 -1.43548,0.435688 -0.360003,0.262774 -0.678053,0.625611 -0.678053,1.0236l-0.137765 0c0,-0.0541422 0.00396854,-0.10545 0.0104883,-0.156757l-0.0104883 0 0.00481894 -0.108568 -0.00481894 0c0,-0.0538587 0.00396854,-0.10545 0.0104883,-0.156474l-0.0104883 0 0.000566934 0z"
   id="path328" />
  <path
   class="fil141"
   d="M13.9851 12.4706l0 1.07604 0 10.1609 0 0.415846 -0.471405 0.00226773 -3.14223 0.0136064 -0.471405 0.0008504 0 -0.41868 0 -10.1609 0 -1.07632 0 -0.635816c0.0008504,-2.85621 4.08476,-3.02544 4.08476,-0.0138899l0 0.635533 0.000283467 0.000566934zm-1.14747 1.07604l0 -1.07604 0 -0.635816c0,-1.57494 -1.80342,-1.76486 -1.80342,0.649706l0 1.07661 0 9.7419 1.80342 -0.0119056 0 -9.74445z"
   id="path330" />
 </g>
</svg>