<?xml version="1.0" encoding="UTF-8" standalone="no"?>
<!-- Created with Inkscape (http://www.inkscape.org/) -->

<svg
   xmlns:dc="http://purl.org/dc/elements/1.1/"
   xmlns:cc="http://creativecommons.org/ns#"
   xmlns:rdf="http://www.w3.org/1999/02/22-rdf-syntax-ns#"
   xmlns:svg="http://www.w3.org/2000/svg"
   xmlns="http://www.w3.org/2000/svg"
   xmlns:sodipodi="http://sodipodi.sourceforge.net/DTD/sodipodi-0.dtd"
   xmlns:inkscape="http://www.inkscape.org/namespaces/inkscape"
   width="24"
   height="24"
   id="svg2"
   version="1.1"
   inkscape:version="0.48.3.1 r9886"
   sodipodi:docname="24.svg">
  <defs
     id="defs4">
    <linearGradient
       gradientTransform="translate(9,6)"
       y2="6.75"
       x2="0"
       y1="0"
       x1="0"
       gradientUnits="userSpaceOnUse"
       id="LinearGradient_9-46">
      <stop
         id="stop150142"
         stop-color="#eeeeee"
         offset="0" />
      <stop
         id="stop150144"
         stop-color="#ffffff"
         offset="1" />
    </linearGradient>
    <linearGradient
       gradientTransform="translate(5.336,14.572)"
       y2="0"
       x2="8.079"
       y1="0"
       x1="0"
       gradientUnits="userSpaceOnUse"
       id="LinearGradient_8-77">
      <stop
         id="stop150135"
         stop-color="#f0c7ff"
         offset="0" />
      <stop
         id="stop150137"
         stop-color="#ffffff"
         offset="0.499931275844574" />
      <stop
         id="stop150139"
         stop-color="#f0c7ff"
         offset="1" />
    </linearGradient>
    <linearGradient
       gradientTransform="matrix(0,-1,1,0,8.279,15)"
       y2="0"
       x2="10.667"
       y1="0"
       x1="0"
       gradientUnits="userSpaceOnUse"
       id="LinearGradient_7-01">
      <stop
         id="stop150130"
         stop-color="#d27def"
         offset="0" />
      <stop
         id="stop150132"
         stop-color="#b877df"
         offset="1" />
    </linearGradient>
    <linearGradient
       gradientTransform="matrix(0,-1,1,0,8.603,15.75)"
       y2="0"
       x2="11.095"
       y1="0"
       x1="0"
       gradientUnits="userSpaceOnUse"
       id="LinearGradient_6-58">
      <stop
         id="stop150125"
         stop-color="#ba7bd0"
         offset="0" />
      <stop
         id="stop150127"
         stop-color="#a261b6"
         offset="1" />
    </linearGradient>
    <linearGradient
       gradientTransform="matrix(-0.01459916,0.99989343,-1.000048,-0.0040155,16.844,2.558)"
       y2="0"
       x2="13.904"
       y1="0"
       x1="0"
       gradientUnits="userSpaceOnUse"
       id="LinearGradient_5-35">
      <stop
         id="stop150118"
         stop-color="#ededed"
         offset="0" />
      <stop
         id="stop150120"
         stop-color="#ffffff"
         offset="0.666675209999084" />
      <stop
         id="stop150122"
         stop-color="#ffffff"
         offset="1" />
    </linearGradient>
    <linearGradient
       gradientTransform="matrix(-0.99993585,0.01132694,-0.00820043,-0.99997126,17.25,8.13)"
       y2="0"
       x2="1.5"
       y1="0"
       x1="0"
       gradientUnits="userSpaceOnUse"
       id="LinearGradient_4-01">
      <stop
         id="stop150111"
         stop-color="#dee0e1"
         offset="0" />
      <stop
         id="stop150113"
         stop-color="#949da2"
         offset="0.666695713996887" />
      <stop
         id="stop150115"
         stop-color="#8b8b8b"
         offset="1" />
    </linearGradient>
    <linearGradient
       gradientTransform="matrix(0,-1,1,0,16.412,17.716)"
       y2="0"
       x2="16.3"
       y1="0"
       x1="0"
       gradientUnits="userSpaceOnUse"
       id="LinearGradient_3-90">
      <stop
         id="stop150106"
         stop-color="#b0b0b0"
         offset="0" />
      <stop
         id="stop150108"
         stop-color="#818689"
         offset="1" />
    </linearGradient>
    <linearGradient
       gradientTransform="matrix(0.01416811,0.99989963,-1.0000417,0.00413937,1.189,2.558)"
       y2="0"
       x2="13.904"
       y1="0"
       x1="0"
       gradientUnits="userSpaceOnUse"
       id="LinearGradient_2-56">
      <stop
         id="stop150099"
         stop-color="#ededed"
         offset="0" />
      <stop
         id="stop150101"
         stop-color="#ffffff"
         offset="0.666675209999084" />
      <stop
         id="stop150103"
         stop-color="#ffffff"
         offset="1" />
    </linearGradient>
    <linearGradient
       gradientTransform="matrix(0.99993578,0.0113326,-0.00820608,0.99997122,0.75,8.13)"
       y2="0"
       x2="1.5"
       y1="0"
       x1="0"
       gradientUnits="userSpaceOnUse"
       id="LinearGradient_1-809">
      <stop
         id="stop150092"
         stop-color="#dee0e1"
         offset="0" />
      <stop
         id="stop150094"
         stop-color="#949da2"
         offset="0.666695713996887" />
      <stop
         id="stop150096"
         stop-color="#8b8b8b"
         offset="1" />
    </linearGradient>
    <linearGradient
       gradientTransform="matrix(0,-1,1,0,1.588,17.716)"
       y2="0"
       x2="16.3"
       y1="0"
       x1="0"
       gradientUnits="userSpaceOnUse"
       id="LinearGradient-87">
      <stop
         id="stop150087"
         stop-color="#b0b0b0"
         offset="0" />
      <stop
         id="stop150089"
         stop-color="#818689"
         offset="1" />
    </linearGradient>
  </defs>
  <sodipodi:namedview
     id="base"
     pagecolor="#ffffff"
     bordercolor="#666666"
     borderopacity="1.0"
     inkscape:pageopacity="0.0"
     inkscape:pageshadow="2"
     inkscape:zoom="16.312111"
     inkscape:cx="12.1755"
     inkscape:cy="11.918271"
     inkscape:document-units="px"
     inkscape:current-layer="layer1"
     showgrid="false"
     inkscape:snap-global="false"
     inkscape:window-width="875"
     inkscape:window-height="593"
     inkscape:window-x="507"
     inkscape:window-y="329"
     inkscape:window-maximized="0" />
  <metadata
     id="metadata7">
    <rdf:RDF>
      <cc:Work
         rdf:about="">
        <dc:format>image/svg+xml</dc:format>
        <dc:type
           rdf:resource="http://purl.org/dc/dcmitype/StillImage" />
        <dc:title />
      </cc:Work>
    </rdf:RDF>
  </metadata>
  <g
     inkscape:label="Layer 1"
     inkscape:groupmode="layer"
     id="layer1"
     transform="translate(0,-1028.3622)">
    <g
       style="fill-rule:evenodd;stroke-width:0.50099999;stroke-linejoin:bevel;overflow:visible"
       id="g150285"
       transform="matrix(1.3333333,0,0,1.3333333,0,1028.3622)">
      <g
         transform="scale(1,-1)"
         font-size="16"
         id="Document"
         style="font-size:16px;fill:none;stroke:#000000;font-family:Times New Roman">
        <g
           transform="translate(0,-18)"
           id="Spread">
          <g
             id="MouseOff">
            <g
               id="Group"
               style="stroke:none">
              <g
                 id="Group_1">
                <g
                   stroke-miterlimit="79.8403193612775"
                   id="Group_2">
                  <path
                     id="path150152"
                     d="M 2.625,0.75 C 4.074,0.75 5.25,0.582 5.25,0.375 5.25,0.168 4.074,0 2.625,0 1.176,0 0,0.168 0,0.375 0,0.582 1.176,0.75 2.625,0.75 z"
                     inkscape:connector-curvature="0"
                     style="fill:#191919;fill-opacity:0.2;marker-start:none;marker-end:none" />
                  <path
                     style="fill:url(#LinearGradient-87);marker-start:none;marker-end:none"
                     id="path150154"
                     d="M 0,0.283 0,17.716 C 0,17.873 0.672,18 1.499,18 2.327,18 3,17.873 3,17.716 c 0,0 -10e-4,0 -10e-4,-0.001 l 0,-17.431 C 2.999,0.283 3,0.283 3,0.283 3,0.126 2.327,0 1.499,0 0.673,0 0.001,0.126 0,0.283 z"
                     inkscape:connector-curvature="0" />
                  <path
                     style="fill:url(#LinearGradient_1-809);marker-start:none;marker-end:none"
                     id="path150156"
                     d="M 0.965,0.8 C 0.887,0.817 0.828,0.837 0.787,0.854 L 0.75,0.87 l 0,16.258 0.037,0.017 c 0.041,0.017 0.1,0.037 0.178,0.055 0.145,0.028 0.33,0.05 0.535,0.05 0.205,0 0.389,-0.022 0.535,-0.05 0.078,-0.018 0.137,-0.038 0.177,-0.055 L 2.25,17.128 2.25,0.87 2.212,0.854 C 2.172,0.837 2.113,0.817 2.035,0.8 1.889,0.771 1.705,0.75 1.5,0.75 1.296,0.75 1.11,0.771 0.965,0.8 z"
                     inkscape:connector-curvature="0" />
                  <path
                     style="fill:url(#LinearGradient_2-56);marker-start:none;marker-end:none"
                     id="path150158"
                     d="m 1.013,16.169 0,-13.585 C 1.013,2.399 1.244,2.25 1.526,2.25 l 0.212,0 c 0.281,0 0.512,0.149 0.512,0.334 l 0,13.585 c 0,0.182 -0.231,0.331 -0.512,0.331 l -0.212,0 c -0.282,0 -0.513,-0.149 -0.513,-0.331 z"
                     inkscape:connector-curvature="0" />
                  <path
                     id="path150160"
                     d="M 1.5,15.429 1.5,2.57 C 1.5,2.394 1.667,2.25 1.875,2.25 l 0,0 c 0.207,0 0.375,0.144 0.375,0.32 l 0,12.859 c 0,0.177 -0.168,0.321 -0.375,0.321 l 0,0 C 1.667,15.75 1.5,15.606 1.5,15.429 z"
                     inkscape:connector-curvature="0"
                     style="fill:#838181;marker-start:none;marker-end:none" />
                  <path
                     id="path150162"
                     d="m 1.5,17.25 c 0.414,0 0.75,-0.168 0.75,-0.375 0,-0.207 -0.336,-0.375 -0.75,-0.375 -0.414,0 -0.75,0.168 -0.75,0.375 0,0.207 0.336,0.375 0.75,0.375 z"
                     inkscape:connector-curvature="0"
                     style="fill:#ffffff;marker-start:none;marker-end:none" />
                  <path
                     id="path150164"
                     d="M 1.5,1.498 C 1.914,1.498 2.25,1.33 2.25,1.124 2.25,0.918 1.914,0.75 1.5,0.75 1.086,0.75 0.75,0.918 0.75,1.124 0.75,1.33 1.086,1.498 1.5,1.498 z"
                     inkscape:connector-curvature="0"
                     style="fill:#ffffff;marker-start:none;marker-end:none" />
                </g>
                <g
                   stroke-miterlimit="79.8403193612775"
                   id="Group_3">
                  <path
                     id="path150167"
                     d="M 15.375,0.75 C 13.926,0.75 12.75,0.582 12.75,0.375 12.75,0.168 13.926,0 15.375,0 16.824,0 18,0.168 18,0.375 18,0.582 16.824,0.75 15.375,0.75 z"
                     inkscape:connector-curvature="0"
                     style="fill:#191919;fill-opacity:0.2;marker-start:none;marker-end:none" />
                  <path
                     style="fill:url(#LinearGradient_3-90);marker-start:none;marker-end:none"
                     id="path150169"
                     d="m 18,0.283 0,17.433 C 18,17.873 17.328,18 16.501,18 15.673,18 15,17.873 15,17.716 c 0,0 10e-4,0 10e-4,-0.001 l 0,-17.431 C 15.001,0.283 15,0.283 15,0.283 15,0.126 15.673,0 16.501,0 17.327,0 17.999,0.126 18,0.283 z"
                     inkscape:connector-curvature="0" />
                  <path
                     style="fill:url(#LinearGradient_4-01);marker-start:none;marker-end:none"
                     id="path150171"
                     d="m 17.035,0.8 c 0.078,0.017 0.137,0.037 0.178,0.054 l 0.037,0.016 0,16.258 -0.037,0.017 c -0.041,0.017 -0.1,0.037 -0.178,0.055 -0.145,0.028 -0.33,0.05 -0.535,0.05 -0.205,0 -0.389,-0.022 -0.535,-0.05 -0.078,-0.018 -0.137,-0.038 -0.177,-0.055 l -0.038,-0.017 0,-16.258 0.038,-0.016 c 0.04,-0.017 0.099,-0.037 0.177,-0.054 0.146,-0.029 0.33,-0.05 0.535,-0.05 0.204,0 0.39,0.021 0.535,0.05 z"
                     inkscape:connector-curvature="0" />
                  <path
                     style="fill:url(#LinearGradient_5-35);marker-start:none;marker-end:none"
                     id="path150173"
                     d="m 17.025,16.169 0,-13.585 c 0,-0.185 -0.238,-0.334 -0.529,-0.334 l -0.218,0 c -0.29,0 -0.528,0.149 -0.528,0.334 l 0,13.585 c 0,0.182 0.238,0.331 0.528,0.331 l 0.218,0 c 0.291,0 0.529,-0.149 0.529,-0.331 z"
                     inkscape:connector-curvature="0" />
                  <path
                     id="path150175"
                     d="m 16.5,15.429 0,-12.859 c 0,-0.176 -0.167,-0.32 -0.375,-0.32 l 0,0 c -0.207,0 -0.375,0.144 -0.375,0.32 l 0,12.859 c 0,0.177 0.168,0.321 0.375,0.321 l 0,0 c 0.208,0 0.375,-0.144 0.375,-0.321 z"
                     inkscape:connector-curvature="0"
                     style="fill:#838181;marker-start:none;marker-end:none" />
                  <path
                     id="path150177"
                     d="m 16.5,17.25 c -0.414,0 -0.75,-0.168 -0.75,-0.375 0,-0.207 0.336,-0.375 0.75,-0.375 0.414,0 0.75,0.168 0.75,0.375 0,0.207 -0.336,0.375 -0.75,0.375 z"
                     inkscape:connector-curvature="0"
                     style="fill:#ffffff;marker-start:none;marker-end:none" />
                  <path
                     id="path150179"
                     d="m 16.5,1.498 c -0.414,0 -0.75,-0.168 -0.75,-0.374 0,-0.206 0.336,-0.374 0.75,-0.374 0.414,0 0.75,0.168 0.75,0.374 0,0.206 -0.336,0.374 -0.75,0.374 z"
                     inkscape:connector-curvature="0"
                     style="fill:#ffffff;marker-start:none;marker-end:none" />
                </g>
                <path
                   style="fill:url(#LinearGradient_6-58);stroke-width:0.14;marker-start:none;marker-end:none"
                   id="path150181"
                   stroke-miterlimit="79.8403193612775"
                   d="m 2.25,15.75 0,-13.5 13.5,0 0,13.5 -13.5,0 z"
                   inkscape:connector-curvature="0" />
                <path
                   style="fill:url(#LinearGradient_7-01);stroke-width:0.14;marker-start:none;marker-end:none"
                   id="path150183"
                   stroke-miterlimit="79.8403193612775"
                   d="M 3,3 3,15 15,15 15,3 3,3 z"
                   inkscape:connector-curvature="0" />
                <path
                   id="path150185"
                   stroke-miterlimit="79.8403193612775"
                   d="m 2.999,14.999 0,-0.749 12.001,0 0,0.749 -12.001,0 z"
                   inkscape:connector-curvature="0"
                   style="fill:#f0c7ff;stroke-width:0.23199999;marker-start:none;marker-end:none" />
                <path
                   style="fill:url(#LinearGradient_8-77);stroke-width:0.23199999;marker-start:none;marker-end:none"
                   id="path150187"
                   stroke-miterlimit="79.8403193612775"
                   d="m 9.375,15 c 2.277,0 4.125,-0.225 4.125,-0.501 0,-0.276 -1.848,-0.501 -4.125,-0.501 -2.277,0 -4.125,0.225 -4.125,0.501 0,0.276 1.848,0.501 4.125,0.501 z"
                   inkscape:connector-curvature="0" />
                <path
                   id="path150189"
                   stroke-miterlimit="79.8403193612775"
                   d="M 3.001,3.751 3.001,3 15,3 l 0,0.751 -11.999,0 z"
                   inkscape:connector-curvature="0"
                   style="fill:#d7a1f1;stroke-width:0.23199999;marker-start:none;marker-end:none" />
                <path
                   id="path150191"
                   stroke-miterlimit="79.8403193612775"
                   d="m 3.749,15.749 0,-13.499 -1.499,0 0,13.499 1.499,0 z"
                   inkscape:connector-curvature="0"
                   style="fill:#000000;fill-opacity:0.05490202;stroke-width:0.14;marker-start:none;marker-end:none" />
                <path
                   id="path150193"
                   stroke-miterlimit="79.8403193612775"
                   d="m 14.251,15.75 0,-13.501 1.499,0 0,13.501 -1.499,0 z"
                   inkscape:connector-curvature="0"
                   style="fill:#000000;fill-opacity:0.05490202;stroke-width:0.14;marker-start:none;marker-end:none" />
                <path
                   id="path150195"
                   stroke-miterlimit="79.8403193612775"
                   d="M 3,9.64 3,15 15,15 15,9.64 C 13.257,9.294 11.201,9.097 9,9.097 6.799,9.097 4.742,9.294 3,9.64 z"
                   inkscape:connector-curvature="0"
                   style="fill:#ffffff;fill-opacity:0.164706;stroke-width:0.14;marker-start:none;marker-end:none" />
              </g>
              <g
                 stroke-miterlimit="79.8403193612775"
                 id="Group_4">
                <path
                   id="path150198"
                   d="m 5.25,5.941 0,3.059 1.501,0 0,-2.313 c 0,-0.377 0.306,-0.683 0.683,-0.683 l 0.133,0 c 0.377,0 0.683,0.306 0.683,0.683 l 0,2.313 1.501,0 0,-2.317 C 9.751,6.306 10.057,6 10.434,6 l 0.133,0 c 0.377,0 0.683,0.306 0.683,0.683 l 0,2.317 1.499,0 0,-3.059 c 0,-0.795 -0.647,-1.442 -1.442,-1.442 l -4.615,0 C 5.897,4.499 5.25,5.146 5.25,5.941 z m 0,3.808 0,0.809 C 5.25,11.353 5.897,12 6.692,12 l 4.615,0 c 0.795,0 1.442,-0.647 1.442,-1.442 l 0,-0.809 -4.499,0 0,10e-4 -1.499,0 0,-10e-4 -1.501,0 z m 6.75,0.857 0,0.537 c 0,0.058 -0.048,0.106 -0.106,0.106 l -0.537,0 c -0.058,0 -0.106,-0.048 -0.106,-0.106 l 0,-0.537 c 0,-0.058 0.048,-0.106 0.106,-0.106 l 0.537,0 c 0.058,0 0.106,0.048 0.106,0.106 z m -3,10e-4 0,0.537 C 9,11.202 8.952,11.25 8.894,11.25 l -2.789,0 c -0.058,0 -0.106,-0.048 -0.106,-0.106 l 0,-0.537 c 0,-0.058 0.048,-0.106 0.106,-0.106 l 2.789,0 C 8.952,10.501 9,10.549 9,10.607 z m 1.499,0 0,0.537 c 0,0.058 -0.048,0.106 -0.106,0.106 l -0.537,0 C 9.798,11.25 9.75,11.202 9.75,11.144 l 0,-0.537 c 0,-0.058 0.048,-0.106 0.106,-0.106 l 0.537,0 c 0.058,0 0.106,0.048 0.106,0.106 z"
                   inkscape:connector-curvature="0"
                   style="fill:#915da1;marker-start:none;marker-end:none" />
                <path
                   style="fill:url(#LinearGradient_9-46);marker-start:none;marker-end:none"
                   id="path150200"
                   d="m 5.25,6.691 0,3.059 1.501,0 0,-2.313 c 0,-0.377 0.306,-0.683 0.683,-0.683 l 0.133,0 c 0.377,0 0.683,0.306 0.683,0.683 l 0,2.313 1.501,0 0,-2.317 c 0,-0.377 0.306,-0.683 0.683,-0.683 l 0.133,0 c 0.377,0 0.683,0.306 0.683,0.683 l 0,2.317 1.499,0 0,-3.059 c 0,-0.795 -0.647,-1.442 -1.442,-1.442 l -4.615,0 C 5.897,5.249 5.25,5.896 5.25,6.691 z m 0,3.808 0,0.809 c 0,0.795 0.647,1.442 1.442,1.442 l 4.615,0 c 0.795,0 1.442,-0.647 1.442,-1.442 l 0,-0.809 -4.499,0 0,10e-4 -1.499,0 0,-10e-4 -1.501,0 z m 6.75,0.857 0,0.537 c 0,0.058 -0.048,0.106 -0.106,0.106 l -0.537,0 c -0.058,0 -0.106,-0.048 -0.106,-0.106 l 0,-0.537 c 0,-0.058 0.048,-0.106 0.106,-0.106 l 0.537,0 c 0.058,0 0.106,0.048 0.106,0.106 z m -3,10e-4 0,0.537 C 9,11.952 8.952,12 8.894,12 L 6.105,12 C 6.047,12 5.999,11.952 5.999,11.894 l 0,-0.537 c 0,-0.058 0.048,-0.106 0.106,-0.106 l 2.789,0 C 8.952,11.251 9,11.299 9,11.357 z m 1.499,0 0,0.537 C 10.499,11.952 10.451,12 10.393,12 L 9.856,12 C 9.798,12 9.75,11.952 9.75,11.894 l 0,-0.537 c 0,-0.058 0.048,-0.106 0.106,-0.106 l 0.537,0 c 0.058,0 0.106,0.048 0.106,0.106 z"
                   inkscape:connector-curvature="0" />
              </g>
            </g>
          </g>
        </g>
      </g>
    </g>
  </g>
</svg>
