<?xml version="1.0" encoding="UTF-8"?>
<!DOCTYPE svg PUBLIC "-//W3C//DTD SVG 1.1//EN" "http://www.w3.org/Graphics/SVG/1.1/DTD/svg11.dtd">
<!-- Creator: CorelDRAW -->
<svg xmlns="http://www.w3.org/2000/svg" xml:space="preserve" width="24px" height="24px" style="shape-rendering:geometricPrecision; text-rendering:geometricPrecision; image-rendering:optimizeQuality; fill-rule:evenodd; clip-rule:evenodd"
viewBox="0 0 24 24"
 xmlns:xlink="http://www.w3.org/1999/xlink">
 <defs>
  <style type="text/css">
   <![CDATA[
    .fil15 {fill:none}
    .fil14 {fill:none;fill-rule:nonzero}
    .fil11 {fill:#B6DE59}
    .fil10 {fill:#CCF272}
    .fil28 {fill:#89B532;fill-rule:nonzero}
    .fil26 {fill:#B6DE59;fill-rule:nonzero}
    .fil16 {fill:#D6F382;fill-rule:nonzero}
    .fil17 {fill:#E9FF99;fill-rule:nonzero}
    .fil0 {fill:#333333;fill-opacity:0.000000}
    .fil1 {fill:#333333;fill-opacity:0.011765}
    .fil2 {fill:#333333;fill-opacity:0.027451}
    .fil3 {fill:#333333;fill-opacity:0.039216}
    .fil4 {fill:#333333;fill-opacity:0.054902}
    .fil5 {fill:#333333;fill-opacity:0.066667}
    .fil6 {fill:#333333;fill-opacity:0.078431}
    .fil7 {fill:#333333;fill-opacity:0.094118}
    .fil8 {fill:#333333;fill-opacity:0.105882}
    .fil9 {fill:#333333;fill-opacity:0.121569}
    .fil13 {fill:#A0C646;fill-opacity:0.321569}
    .fil25 {fill:#607A27;fill-rule:nonzero;fill-opacity:0.321569}
    .fil19 {fill:url(#id0)}
    .fil21 {fill:url(#id1)}
    .fil18 {fill:url(#id2)}
    .fil20 {fill:url(#id3)}
    .fil23 {fill:url(#id4)}
    .fil12 {fill:url(#id5)}
    .fil22 {fill:url(#id6);fill-rule:nonzero}
    .fil29 {fill:url(#id7);fill-rule:nonzero;fill-opacity:0.219608}
    .fil24 {fill:url(#id8);fill-rule:nonzero;fill-opacity:0.219608}
    .fil30 {fill:url(#id9);fill-rule:nonzero;fill-opacity:0.219608}
    .fil27 {fill:url(#id10);fill-rule:nonzero;fill-opacity:0.219608}
   ]]>
  </style>
  <linearGradient id="id0" gradientUnits="userSpaceOnUse" x1="11.5238" y1="12.7158" x2="11.6048" y2="14.2952">
   <stop offset="0" style="stop-color:#9BC44A"/>
   <stop offset="1" style="stop-color:#84A638"/>
  </linearGradient>
  <linearGradient id="id1" gradientUnits="userSpaceOnUse" xlink:href="#id0" x1="11.8628" y1="21.6651" x2="11.911" y2="22.6017">
  </linearGradient>
  <linearGradient id="id2" gradientUnits="userSpaceOnUse" xlink:href="#id0" x1="11.1626" y1="7.91808" x2="11.89" y2="22.1385">
  </linearGradient>
  <linearGradient id="id3" gradientUnits="userSpaceOnUse" xlink:href="#id0" x1="11.8534" y1="16.6582" x2="11.9572" y2="18.3069">
  </linearGradient>
  <linearGradient id="id4" gradientUnits="userSpaceOnUse" x1="11.6244" y1="8.38325" x2="12.1437" y2="23.06">
   <stop offset="0" style="stop-color:#83B029"/>
   <stop offset="1" style="stop-color:#81A338"/>
  </linearGradient>
  <linearGradient id="id5" gradientUnits="userSpaceOnUse" x1="12.3016" y1="9.07009" x2="11.8872" y2="22.0152">
   <stop offset="0" style="stop-color:#B5DE56"/>
   <stop offset="1" style="stop-color:#9DC441"/>
  </linearGradient>
  <linearGradient id="id6" gradientUnits="userSpaceOnUse" xlink:href="#id0" x1="8.90483" y1="7.56715" x2="14.1172" y2="6.91971">
  </linearGradient>
  <linearGradient id="id7" gradientUnits="userSpaceOnUse" x1="40.2098" y1="7.90929" x2="45.7311" y2="4.54171">
   <stop offset="0" style="stop-color:#84A638"/>
   <stop offset="1" style="stop-color:#8FBA3F"/>
  </linearGradient>
  <linearGradient id="id8" gradientUnits="userSpaceOnUse" xlink:href="#id7" x1="41.2705" y1="7.83332" x2="46.7919" y2="4.46574">
  </linearGradient>
  <linearGradient id="id9" gradientUnits="userSpaceOnUse" xlink:href="#id7" x1="43.2406" y1="4.94706" x2="48.762" y2="1.57948">
  </linearGradient>
  <linearGradient id="id10" gradientUnits="userSpaceOnUse" xlink:href="#id7" x1="48.1647" y1="8.97257" x2="53.6861" y2="5.60499">
  </linearGradient>
 </defs>
 <g id="Слой_x0020_1">
  <metadata id="CorelCorpID_0Corel-Layer"/>
  <g id="_46585272">
   <path id="_95074944" class="fil0" d="M12.0354 22.3519c8.14173,-0.235561 8.667,1.41535 8.667,1.70732 0,0.291971 -3.76359,0.735029 -8.40422,0.735029 -4.64063,0 -8.40422,-0.443059 -8.40422,-0.735029 0,-0.291971 0,-1.47148 8.14145,-1.70732z"/>
   <g>
    <path id="_107029816" class="fil1" d="M12.0371 22.4744c7.35285,-0.210332 7.92913,1.28807 7.92913,1.56785 0,0.262207 -3.45744,0.657926 -7.69386,0.657926 -4.23698,0 -7.69499,-0.39572 -7.69499,-0.657926 0,-0.279782 0.106584,-1.35922 7.45971,-1.56785z"/>
    <path id="_93598704" class="fil2" d="M12.0377 22.5974c6.56452,-0.183686 7.19184,1.16335 7.19184,1.42924 0,0.232726 -3.1513,0.580823 -6.98406,0.579973 -3.83389,0 -6.98547,-0.347247 -6.98547,-0.579973 0,-0.265892 0.212033,-1.24584 6.77769,-1.42924z"/>
    <path id="_94271120" class="fil3" d="M12.0403 22.7184c5.77677,-0.157608 6.45454,1.03721 6.45454,1.28977 0,0.203529 -2.84544,0.503154 -6.27539,0.503154 -3.42966,0 -6.27567,-0.300475 -6.27567,-0.503154 0,-0.252569 0.3189,-1.13302 6.09652,-1.28977z"/>
    <path id="_116829176" class="fil4" d="M12.0408 22.8423c4.98845,-0.131529 5.71753,0.911629 5.71753,1.15059 0,0.173765 -2.53986,0.425767 -5.56587,0.425767 -3.02658,0 -5.56644,-0.252852 -5.56644,-0.425767 0,-0.238963 0.425484,-1.01991 5.41478,-1.15059z"/>
    <path id="_46100632" class="fil5" d="M12.042 22.9645c4.20013,-0.104883 4.97966,0.78577 4.97966,1.01084 0,0.145418 -2.23315,0.349798 -4.8555,0.348948 -2.6232,0 -4.85692,-0.20438 -4.85692,-0.348948 0,-0.225073 0.531217,-0.906243 4.73276,-1.01084z"/>
    <path id="_105380040" class="fil6" d="M12.0425 23.0881c3.41181,-0.0788038 4.24265,0.660478 4.24265,0.87166 0,0.116221 -1.92729,0.272695 -4.14627,0.271845 -2.21983,0 -4.14712,-0.156474 -4.14712,-0.271845 0,-0.211183 0.637517,-0.792857 4.05074,-0.87166z"/>
    <path id="_96175832" class="fil7" d="M12.0448 23.2094c2.62405,-0.0530083 3.50563,0.534051 3.50563,0.732195 0,0.0867408 -1.62143,0.194742 -3.43732,0.194742 -1.8156,0 -3.4376,-0.109702 -3.4376,-0.194742 0,-0.198143 0.744384,-0.68032 3.36929,-0.732195z"/>
    <path id="_106897560" class="fil8" d="M12.0454 23.3322c1.83573,-0.0257955 2.76862,0.40961 2.76862,0.593863 0,0.0572603 -1.31557,0.117922 -2.7278,0.117072 -1.4128,0 -2.72837,-0.0615123 -2.72837,-0.117072 0,-0.184253 0.8504,-0.566934 2.68755,-0.593863z"/>
   </g>
   <path id="_93747984" class="fil9" d="M12.0459 23.4557c1.04826,0 2.03217,0.283467 2.03217,0.454964 0,0.055843 -4.03798,0.0521579 -4.03798,0 0,-0.171497 0.957267,-0.454964 2.00581,-0.454964z"/>
  </g>
  <polygon class="fil10" points="17.5877,8.60974 17.1599,10.5543 17.0505,10.8052 17.1517,10.9784 17.1336,11.9237 21.8488,11.8843 23.0175,13.6512 16.8762,17.0378 13.1336,20.6324 12.0159,21.7062 11.907,21.6013 11.7979,21.7062 10.6802,20.6324 0.582241,13.8227 2.14811,11.949 6.33435,11.9328 6.1603,8.60974 "/>
  <polygon class="fil11" points="17.1319,6.65183 17.7892,7.46085 17.5877,8.07795 6.1603,8.07795 5.6614,7.63801 6.53419,6.6456 "/>
  <path class="fil12" d="M12.5556 22.5399c3.30664,-2.91886 7.64113,-5.89129 10.9602,-8.8212l-5.4967 0.0450712c0,-1.86351 -0.0549926,-3.29672 -0.0549926,-5.15286 -4.04054,0.00453547 -7.93537,-0.0654808 -11.9921,-0.0654808l-0.0184253 5.3357 -5.28099 0.0756856 10.6059 8.58309 1.27702 0z"/>
  <polygon class="fil13" points="3.25618,13.6399 3.25618,14.8984 2.93473,14.6728 2.93473,13.6509 "/>
  <g id="_90543048">
   <path id="_116920864" class="fil14" d="M6.16143 7.89937l-0.0377011 4.0343 -0.4955 0.0017008m0 5.33031l0.744951 0.611438"/>
   <g>
    <line id="_115878064" class="fil15" x1="8.59698" y1="19.7009" x2="9.34193" y2= "20.3124" />
    <line id="_45253440" class="fil15" x1="11.5637" y1="21.9324" x2="12.3087" y2= "21.9324" />
    <line id="_93941976" class="fil15" x1="14.5305" y1="20.2869" x2="15.2757" y2= "19.7043" />
   </g>
   <path id="_46592368" class="fil14" d="M17.4984 18.0282l0.744951 -0.553611m0 -5.5602l-0.53065 0.004252c-0.004252,-1.34335 -0.0130395,-2.7278 -0.0130395,-3.99121"/>
  </g>
  <g id="_94440320">
   <path id="_95874512" class="fil14" d="M6.16058 7.99943l-0.0368507 3.93424 -0.457799 0.0017008m0 5.36092l0.744951 0.611438"/>
   <g>
    <line id="_95893640" class="fil15" x1="8.63468" y1="19.7316" x2="9.37963" y2= "20.343" />
    <line id="_93741192" class="fil15" x1="11.6014" y1="21.9324" x2="12.3464" y2= "21.9324" />
    <line id="_46212576" class="fil15" x1="14.5685" y1="20.2571" x2="15.3134" y2= "19.6746" />
   </g>
   <path id="_96029856" class="fil14" d="M17.5361 18.0001l0.744951 -0.553611m0 -5.53299l-0.568351 0.0051024c-0.004252,-1.31784 -0.0130395,-2.67508 -0.0130395,-3.91921"/>
  </g>
  <g id="_119602008">
   <path id="_46751024" class="fil14" d="M6.16058 7.99943l-0.0368507 3.93424 -0.457799 0.0017008m0 5.36092l0.744951 0.611438"/>
   <g>
    <line id="_45639544" class="fil15" x1="8.63468" y1="19.7316" x2="9.37963" y2= "20.343" />
    <line id="_96505624" class="fil15" x1="11.6014" y1="21.9324" x2="12.3464" y2= "21.9324" />
    <line id="_46385944" class="fil15" x1="14.5685" y1="20.2571" x2="15.3134" y2= "19.6746" />
   </g>
   <path id="_90930768" class="fil14" d="M17.5361 18.0001l0.744951 -0.553611m0 -5.53299l-0.568351 0.0051024c-0.004252,-1.31784 -0.0130395,-2.67508 -0.0130395,-3.91921"/>
  </g>
  <path class="fil16" d="M17.2668 8.96237l-11.3775 0 0.00453547 -0.656509 0.454114 -0.347247c3.86224,0.00368507 7.19637,0.0456382 11.0867,0.0394019l-0.167812 0.964354z"/>
  <path class="fil17" d="M5.61916 14.0506l-4.90738 0 0.00198427 -0.656509 0.195876 -0.347247c1.66593,0.00368507 3.10396,0.0456382 4.78208,0.0394019l-0.0725675 0.964354z"/>
  <path class="fil17" d="M22.8919 14.0506l-4.90738 0 0.00198427 -0.656509 0.195876 -0.347247c1.66593,0.00368507 3.10396,0.0456382 4.78208,0.0394019l-0.0725675 0.964354z"/>
  <path class="fil18" d="M5.03012 8.08873l1.03267 0.0303309 -0.047339 6.15973 0 4.0017 -0.984764 -0.796825 0 -3.20488 -0.000566934 0 0 -6.19006zm12.0079 10.8114l0 -10.9656 0.984764 0 0 10.2051 -0.984764 0.760541zm-4.00255 3.22188l0 -13.4258 0.984764 0.00311813 0 12.5885c-0.335625,0.278364 -0.664163,0.556729 -0.984764,0.834243zm-4.00198 -1.40883l0 -11.9546 0.984764 0.00311813 0 12.754 -0.984764 -0.802495z"/>
  <g id="_117188416">
   <g>
    <polygon id="_45341000" class="fil19" points="18.0605,13.9979 5.0681,13.9979 5.0681,13.9262 6.10531,13.9191 6.11381,13.0131 18.0605,13.0131 "/>
    <polygon id="_91286248" class="fil20" points="18.7698,17.9749 5.84338,17.9749 4.68939,17.1342 4.68939,16.9901 19.1213,16.9901 19.1213,17.7306 "/>
   </g>
   <path id="_92185248" class="fil21" d="M10.2743 21.7272l3.22529 0c-0.322302,0.271278 -0.637517,0.542272 -0.943944,0.812699l-1.27702 0 -1.00432 -0.812699z"/>
  </g>
  <polygon class="fil22" points="5.10779,8.60208 5.06357,7.75905 5.1384,7.4359 5.82156,6.18978 5.99306,5.88477 6.34427,5.88505 16.6392,5.89441 16.9938,5.89498 17.1642,6.20594 17.8975,7.55949 17.9585,7.97449 17.08,7.9331 16.6256,6.8616 6.31706,6.85281 5.85132,7.90986 5.88647,8.57941 "/>
  <polygon class="fil23" points="2.84601,11.0127 5.0304,11.0127 5.0304,7.97477 5.97718,7.97477 5.97718,11.0127 6.14783,11.0127 6.14783,11.981 2.28701,11.981 1.1231,13.997 11.0864,22.2229 11.0864,22.1739 11.2746,22.3292 12.5695,22.3292 12.7577,22.1739 12.7577,22.2229 22.645,13.997 21.4811,11.981 18.0228,11.981 18.0228,11.962 16.9621,11.962 16.9621,7.97477 18.0228,7.97477 18.0228,11.0127 20.9221,11.0127 20.8731,10.9276 22.0495,10.9957 23.4152,13.3612 23.4348,13.345 23.4348,13.3952 23.6666,13.7969 23.4348,13.9678 23.4348,14.6504 14.2105,22.3292 14.2116,22.3292 13.1135,23.4685 11.922,23.4594 10.7306,23.4685 9.63249,22.3292 9.63362,22.3292 0.333357,14.6504 0.333357,13.9678 0.101481,13.7969 0.333357,13.3952 0.333357,13.345 0.352916,13.3612 1.71866,10.9957 2.89505,10.9276 "/>
  <polygon class="fil24" points="7.03536,5.19538 7.14081,5.19538 7.15895,6.89873 7.19014,6.92963 9.25037,6.9336 9.24981,7.10424 9.23988,7.11388 7.15357,7.10991 7.09007,7.08327 7.0056,6.99936 6.99199,6.98604 6.98264,5.27957 "/>
  <path class="fil25" d="M7.05521 7.10339l0.00538587 -0.0008504 2.30459 -0.004252 0.0294805 -0.0294805c0.0331656,0.0439374 0.0734179,0.102898 0.0975126,0.156474l-0.0272128 0.0266459 -0.0632131 0.0266459 -2.33662 0.00453547 -0.0734179 0.0116221 0.0634966 -0.19134z"/>
  <polygon class="fil26" points="13.9667,5.0168 17.1101,5.0168 17.1945,5.0956 17.1855,7.79279 17.101,7.87159 13.9894,7.87159 13.9049,7.79279 13.914,5.0956 "/>
  <polygon class="fil27" points="13.9296,6.33463 14.035,6.33463 14.0532,8.03798 14.0843,8.06888 16.1446,8.07285 16.144,8.2435 16.1341,8.25314 14.0478,8.24917 13.9843,8.22252 13.8998,8.13862 13.8862,8.12529 13.8768,6.41882 "/>
  <path class="fil25" d="M13.9494 8.24265l0.00538587 -0.0008504 2.30459 -0.004252 0.0294805 -0.0294805c0.0331656,0.0439374 0.0734179,0.102898 0.0975126,0.156474l-0.0272128 0.0266459 -0.0632131 0.0266459 -2.33662 0.00453547 -0.0734179 0.0116221 0.0634966 -0.19134z"/>
  <path class="fil28" d="M13.7674 4.02495l3.46652 0.0189923c0.210616,0 0.401956,0.0861739 0.539437,0.223655 0.138048,0.138048 0.223939,0.329105 0.223939,0.539721l0 3.36475c0,0.210616 -0.0858904,0.401956 -0.223939,0.540004 -0.137481,0.137481 -0.328821,0.223655 -0.539437,0.223655l-3.46652 -0.0189923c-0.208915,0 -0.399688,-0.0864574 -0.53802,-0.223655l-0.00198427 -0.00198427c-0.137481,-0.138332 -0.223655,-0.329388 -0.223655,-0.53802l0 -3.36447c0,-0.208915 0.0864574,-0.399688 0.223655,-0.53802l0.00198427 -0.00198427c0.138332,-0.137198 0.329105,-0.223655 0.53802,-0.223655zm3.14818 1.1007l-2.83013 -0.0189923 0 2.72837 2.83013 0.0187088 0 -2.72808z"/>
  <polygon class="fil26" points="6.01176,3.95351 9.15513,3.95351 9.2396,4.03232 9.23053,6.7295 9.14606,6.80831 6.03444,6.80831 5.94997,6.7295 5.95904,4.03232 "/>
  <polygon class="fil29" points="5.97463,5.27135 6.08008,5.27135 6.09822,6.9747 6.1294,7.0056 8.18964,7.00957 8.18907,7.18021 8.17915,7.18985 6.09284,7.18588 6.02934,7.15924 5.94487,7.07533 5.93126,7.06201 5.9219,5.35554 "/>
  <path class="fil25" d="M5.99447 7.17936l0.00538587 -0.0008504 2.30459 -0.004252 0.0294805 -0.0294805c0.0331656,0.0439374 0.0734179,0.102898 0.0975126,0.156474l-0.0272128 0.0266459 -0.0632131 0.0266459 -2.33662 0.00453547 -0.0734179 0.0116221 0.0634966 -0.19134z"/>
  <path class="fil28" d="M5.81249 2.96166l3.46652 0.0189923c0.210616,0 0.401956,0.0861739 0.539437,0.223655 0.138048,0.138048 0.223939,0.329105 0.223939,0.539721l0 3.36475c0,0.210616 -0.0858904,0.401956 -0.223939,0.540004 -0.137481,0.137481 -0.328821,0.223655 -0.539437,0.223655l-3.46652 -0.0189923c-0.208915,0 -0.399688,-0.0864574 -0.53802,-0.223655l-0.00198427 -0.00198427c-0.137481,-0.138332 -0.223655,-0.329388 -0.223655,-0.53802l0 -3.36447c0,-0.208915 0.0864574,-0.399688 0.223655,-0.53802l0.00198427 -0.00198427c0.138332,-0.137198 0.329105,-0.223655 0.53802,-0.223655zm3.14818 1.1007l-2.83013 -0.0189923 0 2.72837 2.83013 0.0187088 0 -2.72808z"/>
  <polygon class="fil26" points="9.04259,0.991283 12.186,0.991283 12.2704,1.07009 12.2614,3.76727 12.1769,3.84608 9.06527,3.84608 8.9808,3.76727 8.98987,1.07009 "/>
  <polygon class="fil30" points="9.00546,2.30912 9.11091,2.30912 9.12905,4.01247 9.16023,4.04337 11.2205,4.04734 11.2199,4.21799 11.21,4.22762 9.12366,4.22366 9.06017,4.19701 8.97569,4.1131 8.96209,4.09978 8.95273,2.39331 "/>
  <path class="fil25" d="M9.0253 4.21714l0.00538587 -0.0008504 2.30459 -0.004252 0.0294805 -0.0294805c0.0331656,0.0439374 0.0734179,0.102898 0.0975126,0.156474l-0.0272128 0.0266459 -0.0632131 0.0266459 -2.33662 0.00453547 -0.0734179 0.0116221 0.0634966 -0.19134z"/>
  <path class="fil28" d="M8.84331 -0.000566934l3.46652 0.0189923c0.210616,0 0.401956,0.0861739 0.539437,0.223655 0.138048,0.138048 0.223939,0.329105 0.223939,0.539721l0 3.36475c0,0.210616 -0.0858904,0.401956 -0.223939,0.540004 -0.137481,0.137481 -0.328821,0.223655 -0.539437,0.223655l-3.46652 -0.0189923c-0.208915,0 -0.399688,-0.0864574 -0.53802,-0.223655l-0.00198427 -0.00198427c-0.137481,-0.138332 -0.223655,-0.329388 -0.223655,-0.53802l0 -3.36447c0,-0.208915 0.0864574,-0.399688 0.223655,-0.53802l0.00198427 -0.00198427c0.138332,-0.137198 0.329105,-0.223655 0.53802,-0.223655zm3.14818 1.1007l-2.83013 -0.0189923 0 2.72837 2.83013 0.0187088 0 -2.72808z"/>
 </g>
</svg>
