<?xml version="1.0" encoding="UTF-8"?>
<!DOCTYPE svg PUBLIC "-//W3C//DTD SVG 1.1//EN" "http://www.w3.org/Graphics/SVG/1.1/DTD/svg11.dtd">
<!-- Creator: CorelDRAW -->
<svg xmlns="http://www.w3.org/2000/svg" xml:space="preserve" width="24px" height="24px" style="shape-rendering:geometricPrecision; text-rendering:geometricPrecision; image-rendering:optimizeQuality; fill-rule:evenodd; clip-rule:evenodd"
viewBox="0 0 24 24"
 xmlns:xlink="http://www.w3.org/1999/xlink">
 <defs>
  <style type="text/css">
   <![CDATA[
    .fil22 {fill:#E5E5E5}
    .fil15 {fill:#404040}
    .fil20 {fill:#424242}
    .fil21 {fill:#454545}
    .fil17 {fill:#93CCFA}
    .fil58 {fill:#FFF2A6}
    .fil19 {fill:#CE7EE6}
    .fil16 {fill:#404040;fill-rule:nonzero}
    .fil0 {fill:black;fill-opacity:0.000000}
    .fil23 {fill:#FFF2A6;fill-opacity:0.000000}
    .fil33 {fill:#FFFD94;fill-opacity:0.000000}
    .fil1 {fill:black;fill-opacity:0.003922}
    .fil2 {fill:black;fill-opacity:0.007843}
    .fil3 {fill:black;fill-opacity:0.015686}
    .fil4 {fill:black;fill-opacity:0.019608}
    .fil34 {fill:#FFFD94;fill-opacity:0.019608}
    .fil5 {fill:black;fill-opacity:0.023529}
    .fil6 {fill:black;fill-opacity:0.027451}
    .fil7 {fill:black;fill-opacity:0.031373}
    .fil8 {fill:black;fill-opacity:0.035294}
    .fil35 {fill:#FFFD94;fill-opacity:0.039216}
    .fil9 {fill:black;fill-opacity:0.043137}
    .fil10 {fill:black;fill-opacity:0.047059}
    .fil11 {fill:black;fill-opacity:0.050980}
    .fil12 {fill:black;fill-opacity:0.054902}
    .fil24 {fill:#FFF5B0;fill-opacity:0.054902}
    .fil36 {fill:#FFFD94;fill-opacity:0.058824}
    .fil13 {fill:black;fill-opacity:0.058824}
    .fil37 {fill:#FFFD94;fill-opacity:0.078431}
    .fil38 {fill:#FFFD94;fill-opacity:0.094118}
    .fil25 {fill:#FFF5BA;fill-opacity:0.109804}
    .fil39 {fill:#FFFD94;fill-opacity:0.113725}
    .fil40 {fill:#FFFD94;fill-opacity:0.133333}
    .fil41 {fill:#FFFD94;fill-opacity:0.152941}
    .fil26 {fill:#FFF7C4;fill-opacity:0.164706}
    .fil42 {fill:#FFFD94;fill-opacity:0.172549}
    .fil43 {fill:#FFFD94;fill-opacity:0.192157}
    .fil44 {fill:#FFFD94;fill-opacity:0.211765}
    .fil27 {fill:#FFF7CF;fill-opacity:0.223529}
    .fil45 {fill:#FFFD94;fill-opacity:0.231373}
    .fil46 {fill:#FFFD94;fill-opacity:0.247059}
    .fil47 {fill:#FFFD94;fill-opacity:0.266667}
    .fil28 {fill:#FFFAD9;fill-opacity:0.278431}
    .fil48 {fill:#FFFD94;fill-opacity:0.286275}
    .fil49 {fill:#FFFD94;fill-opacity:0.305882}
    .fil50 {fill:#FFFD94;fill-opacity:0.325490}
    .fil29 {fill:#FFFAE3;fill-opacity:0.333333}
    .fil51 {fill:#FFFD94;fill-opacity:0.345098}
    .fil52 {fill:#FFFD94;fill-opacity:0.364706}
    .fil53 {fill:#FFFD94;fill-opacity:0.384314}
    .fil30 {fill:#FFFCED;fill-opacity:0.388235}
    .fil54 {fill:#FFFD94;fill-opacity:0.400000}
    .fil55 {fill:#FFFD94;fill-opacity:0.419608}
    .fil56 {fill:#FFFD94;fill-opacity:0.439216}
    .fil31 {fill:#FFFFF5;fill-opacity:0.443137}
    .fil32 {fill:white;fill-opacity:0.501961}
    .fil57 {fill:url(#id0)}
    .fil14 {fill:url(#id1)}
    .fil18 {fill:url(#id2);fill-opacity:0.780392}
   ]]>
  </style>
  <linearGradient id="id0" gradientUnits="userSpaceOnUse" x1="11.9592" y1="0.140316" x2="11.9592" y2="2.91461">
   <stop offset="0" style="stop-color:gray"/>
   <stop offset="1" style="stop-color:#B5B5B5"/>
  </linearGradient>
  <linearGradient id="id1" gradientUnits="userSpaceOnUse" x1="11.8464" y1="6.28531" x2="11.6148" y2="17.2113">
   <stop offset="0" style="stop-color:whitesmoke"/>
   <stop offset="1" style="stop-color:#EBEBEB"/>
  </linearGradient>
  <linearGradient id="id2" gradientUnits="userSpaceOnUse" x1="8.54908" y1="-2743.02" x2="8.54908" y2="4113.01">
   <stop offset="0" style="stop-color:#BEBEBE"/>
   <stop offset="1" style="stop-color:#B7B7B7"/>
  </linearGradient>
 </defs>
 <g id="Слой_x0020_1">
  <metadata id="CorelCorpID_0Corel-Layer"/>
  <g id="_124290048">
   <path id="_123698552" class="fil0" d="M11.3611 20.5017c7.29927,-0.293955 10.5637,0.324286 11.9827,1.18404l0 2.28191c-0.0657643,0.012756 -0.134363,0.0243781 -0.20608,0.0354333l-22.4055 0 0 -2.05117c1.38785,-0.633548 4.34356,-1.19736 10.6289,-1.45022z"/>
   <g>
    <path id="_123491800" class="fil1" d="M11.3871 20.6786c7.30692,-0.283467 10.5767,0.371058 11.9566,1.24073l0 2.00808c-0.145135,0.0294805 -0.305577,0.0544256 -0.481043,0.0756856l-22.1305 0 0 -1.85274c1.34703,-0.642619 4.288,-1.22486 10.655,-1.47176z"/>
    <path id="_82377288" class="fil2" d="M11.4129 20.8558c7.29388,-0.271561 10.5898,0.417263 11.9308,1.28949l0 1.74219c-0.231309,0.0501736 -0.507973,0.0875912 -0.826022,0.115654l-21.7856 0 0 -1.66083c1.31132,-0.648005 4.25087,-1.24725 10.6807,-1.4865z"/>
    <path id="_83364048" class="fil3" d="M11.4387 21.033c7.25817,-0.257388 10.6056,0.4612 11.905,1.32804l0 1.48707c-0.33194,0.076536 -0.77273,0.125292 -1.30565,0.155056l-6.35391 0c-0.594146,-0.00368507 -1.20417,-0.00453547 -1.82581,0l-13.0718 0 -0.0544256 -0.0093544 0 -1.46864c1.2807,-0.648572 4.23811,-1.26256 10.7065,-1.49217z"/>
    <path id="_83983152" class="fil4" d="M11.4645 21.2101c7.19864,-0.241514 10.628,0.50287 11.8792,1.35611l0 1.243c-0.480476,0.119056 -1.23818,0.172915 -2.19885,0.193891l-2.8718 0c-1.82156,-0.0192757 -3.93792,-0.0513075 -6.12288,0l-11.0436 0c-0.135781,-0.0167245 -0.260789,-0.0348664 -0.37446,-0.0549926l0 -1.25094c1.25236,-0.64347 4.25399,-1.26965 10.7323,-1.48707z"/>
    <path id="_86860552" class="fil5" d="M11.4903 21.387c7.11643,-0.223655 10.664,0.540855 11.8534,1.37198l0 1.01169c-1.49926,0.402806 -6.35703,0.0858904 -11.5039,0.212317l-0.823188 0.0201261 -9.47374 0c-0.317483,-0.0266459 -0.589044,-0.0598115 -0.810715,-0.0997803l0 -1.04599c1.22458,-0.632414 4.30161,-1.26738 10.7581,-1.47034z"/>
    <path id="_45900200" class="fil6" d="M11.5156 21.5645c7.01524,-0.203813 10.723,0.576288 11.8282,1.37708l0 0.790872c-1.34647,0.401672 -6.28673,0.109135 -11.494,0.222521 -0.780951,0.017008 -1.55226,0.0334491 -2.3043,0.0481894l-7.32733 0c-0.628162,-0.0308979 -1.13358,-0.077103 -1.48593,-0.142017l0 -0.855786c1.19113,-0.61569 4.38268,-1.25462 10.7834,-1.44086z"/>
    <path id="_123474592" class="fil7" d="M11.5422 21.7419c6.89816,-0.182553 10.8171,0.608887 11.8016,1.37085l0 0.582524c-1.15825,0.397704 -6.1997,0.131245 -11.4832,0.231592 -1.6974,0.0323152 -3.35681,0.0617958 -4.86514,0.0762526l-3.21026 0c-1.40231,-0.0198427 -2.47977,-0.0739848 -3.05294,-0.182553l0 -0.679753c1.14492,-0.592729 4.49522,-1.23223 10.81,-1.39891z"/>
    <path id="_86195944" class="fil8" d="M11.5677 21.9194c6.793,-0.159308 10.9892,0.644887 11.7761,1.36121l0 0.375027c-0.89292,0.395153 -6.07441,0.156757 -11.4736,0.243215 -5.0613,0.081355 -9.83063,0.140033 -11.138,-0.116788l0 -0.517894c1.07661,-0.563815 4.63723,-1.19991 10.8355,-1.34477z"/>
    <path id="_79395608" class="fil9" d="M11.5932 22.0962c6.79243,-0.136348 11.392,0.706683 11.7505,1.3717l0 0.130962c-0.390617,0.411877 -5.82921,0.198143 -11.4634,0.271561 -5.13387,0.0668982 -10.0206,0.110552 -11.1482,-0.124442l0 -0.369641c0.969173,-0.529799 4.80221,-1.15881 10.861,-1.28014z"/>
    <path id="_86974760" class="fil10" d="M11.619 22.2734c6.58068,-0.1063 11.6244,0.716604 11.6357,1.3065 0.0113387,0.374176 -5.59734,0.20523 -11.3642,0.262207 -5.24073,0.0521579 -10.2822,0.0802211 -11.1584,-0.129261l0 -0.230175c0.785487,-0.490964 4.97087,-1.11402 10.8868,-1.20927z"/>
    <path id="_46225904" class="fil11" d="M11.6451 22.4506c6.09624,-0.0708667 11.4898,0.656793 11.4974,1.16193 0.0076536,0.267309 -5.56445,0.16356 -11.2417,0.201545 -5.4556,0.0368507 -10.7624,0.047339 -11.1686,-0.135781l0 -0.0805046c0.38183,-0.44646 5.07122,-1.07944 10.9129,-1.14719z"/>
    <path id="_85741096" class="fil12" d="M11.6709 22.6277c5.61151,-0.0354333 11.3557,0.597265 11.3594,1.01708 0.00396854,0.161009 -5.53129,0.122174 -11.1193,0.140883 -5.58798,0.0192757 -11.096,0.0110552 -11.096,-0.117922 0,-0.391184 5.24357,-1.00461 10.8559,-1.04004z"/>
   </g>
   <path id="_80865824" class="fil13" d="M11.6961 22.8052c5.12763,0 11.2222,0.537453 11.2222,0.872511 0,0.109135 -21.9948,0.104883 -21.9948,0.00311813 0,-0.334774 5.64496,-0.875629 10.7726,-0.875629z"/>
  </g>
  <path class="fil14" d="M2.95174 2.94579l0.0586776 19.1224c0.0362838,0.47509 0.824605,0.869676 1.23677,0.868542l15.5246 -0.123592c0.59528,-0.017008 1.04713,-0.432854 1.06839,-0.976827l0.157324 -20.1775c0,-0.572886 -0.692226,-0.886968 -1.28382,-0.887251l-15.6479 0.0907094c-1.36234,-0.303593 -1.60215,1.33116 -1.11402,2.08348z"/>
  <path class="fil15" d="M21.7836 6.7689l0 0.863723 -0.718872 0c-0.145702,0 -0.268727,0.0700163 -0.268727,0.152222l0 2.20679c0,0.0824888 0.120757,0.152222 0.268727,0.152222l0.741833 0 -0.0555595 0.88555c0.703565,-0.16923 0.871093,0.0357168 1.22883,-0.429169 0,-1.17554 0,-2.12288 0,-3.29842 -0.178868,-0.491248 -0.420948,-0.685423 -1.19623,-0.532918z"/>
  <path class="fil16" d="M9.13188 21.0539l-0.00113387 0.0008504 -1.05563 0 0.0303309 1.61576 -1.03437 0.000283467 -0.0232443 -2.01233 0.631847 -0.609454 0.395436 0 0 0.00113387c2.72553,0 5.46184,-0.0034016 8.18454,-0.00113387l0.729927 0.548508c0,0.674368 0.0161576,1.30707 0.0303309,2.07299l-1.03437 0.000283467 -0.0303309 -1.61604 -6.66884 0 -0.154489 -0.0008504z"/>
  <path class="fil16" d="M21.9749 3.7959l0.0303309 17.5474c0,0.452696 -0.185954,0.865708 -0.484728,1.16448 -0.298207,0.298207 -0.711218,0.484728 -1.1642,0.484728l-16.703 0c-0.453263,0 -0.865991,-0.185954 -1.16448,-0.484445 -0.298491,-0.298491 -0.484161,-0.711218 -0.484161,-1.16477l-0.0909928 -18.6422c0,-0.643753 0.0615123,-1.71186 0.473956,-2.20452 0.265041,-0.316349 0.642619,-0.516193 1.12054,-0.516193l0.00963787 0.00198427 0.0606619 0.00141733 16.7424 0.0374176 0.00396854 0 0.0277797 0.000283467 0.00198427 0c1.81305,0.0218269 1.65573,1.89809 1.63929,3.25165l-0.0189923 0.522713zm-0.96974 17.5474l-0.0303309 -18.0475c0,-0.440507 -0.0748352,-1.79293 -0.26249,-2.06392 -0.108851,-0.0986464 -0.138615,-0.21175 -0.369641,-0.214301l-0.0257955 -0.000283467 -16.7481 -0.0374176 -0.00963787 0 -0.051024 -0.00113387 0 0.0017008c-0.155056,0 -0.274396,0.0609454 -0.354617,0.156757 -0.253986,0.303876 -0.239813,1.13018 -0.239813,1.56389l0.0909928 18.6422c0,0.177734 0.0734179,0.34016 0.191057,0.457799 0.117639,0.117639 0.280065,0.19134 0.457515,0.19134l16.703 0c0.176883,0 0.339593,-0.0739848 0.457232,-0.191624 0.117922,-0.117922 0.191624,-0.280632 0.191624,-0.457515z"/>
  <rect class="fil17" x="4.96335" y="4.00142" width="7.3597" height="1.03664"/>
  <polygon class="fil17" points="4.9944,10.0889 10.2451,10.0889 10.2451,11.0949 4.9944,11.0949 "/>
  <polygon class="fil17" points="11.3934,10.0889 15.0331,10.0889 15.0331,11.0949 11.3934,11.0949 "/>
  <path class="fil18" d="M5.00092 18.0308l14.0126 0 0 1.0973 -14.0126 0 0 -1.0973zm-0.0377011 -12.0771l14.1164 0 0 1.06697 -14.1164 0 0 -1.06697zm0.0433704 1.98143l14.0909 0 0 1.06697 -14.0909 0 0 -1.06697zm0.0249451 4.12019l14.0126 0 0 1.00602 -14.0126 0 0 -1.00602zm0.0306144 3.96343l14.0126 0 0 1.00602 -14.0126 0 0 -1.00602z"/>
  <path class="fil19" d="M4.78946 11.8903l14.3318 0c0.400822,0 0.761392,0.284601 0.759124,0.700446l-0.0731344 1.75608c-0.00226773,0.416413 -0.060095,0.763943 -0.454397,0.763943l-14.545 0c-0.394019,0 -0.747785,0.158741 -0.758557,-0.261923l0.0121891 -2.57161c-0.0104883,-0.420098 0.327404,-0.386932 0.727943,-0.386932zm0.748069 1.08029l12.4601 0c0.245482,0 0.471122,0.218836 0.446177,0.469421l-0.0201261 0.0887251c-0.0249451,0.250018 -0.207214,0.469138 -0.44646,0.469138l-12.3387 0c-0.238679,0 -0.433704,-0.211466 -0.446177,-0.469138l-0.100914 -0.0887251c-0.0124725,-0.257671 0.200694,-0.469421 0.446177,-0.469421z"/>
  <polygon class="fil20" points="15.3123,13.2461 16.3353,14.6986 16.2727,14.7581 16.5494,14.986 16.8538,15.3973 17.3314,15.3514 18.111,14.8213 22.6822,10.1909 22.1782,9.34477 17.9619,13.6336 17.9656,13.6149 17.3674,12.6681 21.7042,8.38608 21.3065,7.52094 16.5026,12.2245 15.4832,12.7931 "/>
  <circle class="fil21" transform="matrix(1.92403 -0.382591 0.382591 1.92403 16.8198 13.7018)" r="1.09021"/>
  <circle class="fil22" cx="16.8413" cy="13.6399" r="1.16385"/>
  <g id="_122905072">
   <path id="_126305248" class="fil23" d="M11.6465 -0.188505c2.40351,0 4.35263,2.29353 4.35263,5.12139 0,2.82786 -1.94912,5.12139 -4.35263,5.12139 -2.40323,0 -4.35207,-2.29353 -4.35207,-5.12139 0,-2.82786 1.94883,-5.12139 4.35207,-5.12139z"/>
   <g>
    <path id="_126823920" class="fil24" d="M11.7165 -0.0725675c2.20849,0 4.00085,2.10191 4.00085,4.69421 0,2.59145 -1.79236,4.69336 -4.00085,4.69336 -2.21019,0 -4.00227,-2.10191 -4.00227,-4.69336 0,-2.5923 1.79208,-4.69421 4.00227,-4.69421z"/>
    <path id="_85769168" class="fil25" d="M11.7854 0.0433704c2.01488,0 3.6502,1.91028 3.6502,4.26674 0,2.35589 -1.63532,4.26674 -3.6502,4.26674 -2.01715,0 -3.6519,-1.91085 -3.6519,-4.26674 0,-2.35646 1.63475,-4.26674 3.6519,-4.26674z"/>
    <path id="_85124936" class="fil26" d="M11.8537 0.158458c1.82212,0 3.3004,1.71951 3.3004,3.84041 0,2.11976 -1.47828,3.83956 -3.3004,3.83956 -1.82269,0 -3.30154,-1.71979 -3.30154,-3.83956 0,-2.1209 1.47885,-3.84041 3.30154,-3.84041z"/>
    <path id="_124734912" class="fil27" d="M11.9215 0.274112c1.62993,0 2.95146,1.52817 2.95146,3.41379 0,1.88364 -1.32152,3.41266 -2.95146,3.41266 -1.62852,0 -2.95004,-1.52902 -2.95004,-3.41266 0,-1.88562 1.32152,-3.41379 2.95004,-3.41379z"/>
    <path id="_78816496" class="fil28" d="M11.9906 0.39005c1.43576,0 2.59967,1.3374 2.59967,2.98576 0,1.64921 -1.16391,2.98576 -2.59967,2.98576 -1.43491,0 -2.59967,-1.33655 -2.59967,-2.98576 0,-1.64836 1.16477,-2.98576 2.59967,-2.98576z"/>
    <path id="_80415224" class="fil29" d="M12.0592 0.505988c1.24215,0 2.24959,1.14577 2.24959,2.55857 0,1.41308 -1.00744,2.55914 -2.24959,2.55914 -1.24158,0 -2.24931,-1.14606 -2.24931,-2.55914 0,-1.4128 1.00772,-2.55857 2.24931,-2.55857z"/>
    <path id="_86968472" class="fil30" d="M12.1276 0.620792c1.04968,0 1.89951,0.955283 1.89951,2.13309 0,1.17667 -0.849833,2.13139 -1.89951,2.13139 -1.04769,0 -1.89923,-0.954716 -1.89923,-2.13139 0,-1.1778 0.851534,-2.13309 1.89923,-2.13309z"/>
    <path id="_85124528" class="fil31" d="M12.1962 0.73673c0.85607,0 1.54971,0.763376 1.54971,1.70505 0,0.941393 -0.693643,1.70534 -1.54971,1.70534 -0.854369,0 -1.5483,-0.763943 -1.5483,-1.70534 0,-0.941677 0.693927,-1.70505 1.5483,-1.70505z"/>
   </g>
   <path id="_124093016" class="fil32" d="M12.2653 0.852101c0.661895,0 1.1985,0.572319 1.1985,1.27844 0,0.705832 -0.536603,1.27815 -1.1985,1.27815 -0.661895,0 -1.1985,-0.572319 -1.1985,-1.27815 0,-0.706116 0.536603,-1.27844 1.1985,-1.27844z"/>
  </g>
  <g id="_83103960">
   <path id="_83034840" class="fil33" d="M11.6802 8.97172c5.56587,0 10.0798,0.214301 10.0798,0.478208 0,0.263908 -4.51393,0.477925 -10.0798,0.477925 -5.56587,0 -10.0798,-0.214017 -10.0798,-0.477925 0,-0.263908 4.51393,-0.478208 10.0798,-0.478208z"/>
   <g>
    <path id="_123132872" class="fil34" d="M11.7197 8.60719c5.44823,0 9.8672,0.214301 9.8672,0.478208 0,0.263624 -4.41896,0.477925 -9.8672,0.477925 -5.44852,0 -9.86748,-0.214301 -9.86748,-0.477925 0,-0.263908 4.41896,-0.478208 9.86748,-0.478208z"/>
    <path id="_85651968" class="fil35" d="M11.7591 8.24208c5.33088,0 9.65488,0.214301 9.65488,0.478208 0,0.263908 -4.324,0.478208 -9.65488,0.478208 -5.33173,0 -9.65516,-0.214301 -9.65516,-0.478208 0,-0.263908 4.32344,-0.478208 9.65516,-0.478208z"/>
    <path id="_46584584" class="fil36" d="M11.7979 7.87754c5.21409,0 9.44256,0.214301 9.44256,0.478208 0,0.263908 -4.22847,0.478208 -9.44256,0.478208 -5.21409,0 -9.44256,-0.214301 -9.44256,-0.478208 0,-0.263908 4.22847,-0.478208 9.44256,-0.478208z"/>
    <path id="_122995808" class="fil37" d="M11.837 7.513c5.09673,0 9.23053,0.214301 9.23053,0.478208 0,0.263908 -4.1338,0.478208 -9.23053,0.478208 -5.09673,0 -9.23025,-0.214301 -9.23025,-0.478208 0,-0.263908 4.13351,-0.478208 9.23025,-0.478208z"/>
    <path id="_84212208" class="fil38" d="M11.8764 7.14818c4.97938,0 9.01793,0.214301 9.01793,0.477925 0,0.263908 -4.03855,0.478208 -9.01793,0.478208 -4.97994,0 -9.01821,-0.214301 -9.01821,-0.478208 0,-0.263624 4.03827,-0.477925 9.01821,-0.477925z"/>
    <path id="_125735464" class="fil39" d="M11.9155 6.78364c4.86202,0 8.80561,0.214017 8.80561,0.477925 0,0.263908 -3.94359,0.478208 -8.80561,0.478208 -4.86259,0 -8.80561,-0.214301 -8.80561,-0.478208 0,-0.263908 3.94302,-0.477925 8.80561,-0.477925z"/>
    <path id="_123145720" class="fil40" d="M11.9544 6.41882c4.74523,0 8.59386,0.214301 8.59386,0.478208 0,0.263908 -3.84863,0.478208 -8.59386,0.478208 -4.74495,0 -8.59301,-0.214301 -8.59301,-0.478208 0,-0.263908 3.84806,-0.478208 8.59301,-0.478208z"/>
    <path id="_124938120" class="fil41" d="M11.9943 6.054c4.6276,0 8.38098,0.214017 8.38098,0.477642 0,0.264475 -3.75338,0.478208 -8.38098,0.478208 -4.62816,0 -8.38126,-0.213734 -8.38126,-0.478208 0,-0.263624 3.7531,-0.477642 8.38126,-0.477642z"/>
    <path id="_122572128" class="fil42" d="M12.0329 5.68946c4.51052,0 8.16895,0.214301 8.16895,0.478208 0,0.263624 -3.65842,0.477925 -8.16895,0.477925 -4.51081,0 -8.16895,-0.214301 -8.16895,-0.477925 0,-0.263908 3.65814,-0.478208 8.16895,-0.478208z"/>
    <path id="_122990000" class="fil43" d="M12.072 5.32492c4.39345,0 7.95663,0.214301 7.95663,0.478208 0,0.263624 -3.56318,0.477925 -7.95663,0.477925 -4.39345,0 -7.95635,-0.214301 -7.95635,-0.477925 0,-0.263908 3.56289,-0.478208 7.95635,-0.478208z"/>
    <path id="_123620488" class="fil44" d="M12.1117 4.95982c4.2761,0 7.74403,0.214017 7.74403,0.477925 0,0.264191 -3.46793,0.478208 -7.74403,0.478208 -4.2761,0 -7.74431,-0.214017 -7.74431,-0.478208 0,-0.263908 3.46822,-0.477925 7.74431,-0.477925z"/>
    <path id="_79981920" class="fil45" d="M12.15 4.59528c4.15902,0 7.532,0.214301 7.532,0.478208 0,0.263908 -3.37297,0.478208 -7.532,0.478208 -4.15902,0 -7.532,-0.214301 -7.532,-0.478208 0,-0.263908 3.37297,-0.478208 7.532,-0.478208z"/>
    <path id="_125230728" class="fil46" d="M12.1899 4.23046c4.04139,0 7.31911,0.213734 7.31911,0.477642 0,0.264191 -3.27773,0.478208 -7.31911,0.478208 -4.04224,0 -7.31996,-0.214017 -7.31996,-0.478208 0,-0.263908 3.27773,-0.477642 7.31996,-0.477642z"/>
    <path id="_79553224" class="fil47" d="M12.2288 3.86592c3.92431,0 7.10708,0.213734 7.10708,0.477642 0,0.264191 -3.18277,0.478208 -7.10708,0.478208 -3.9246,0 -7.10708,-0.214017 -7.10708,-0.478208 0,-0.263908 3.18248,-0.477642 7.10708,-0.477642z"/>
    <path id="_122958872" class="fil48" d="M12.2676 3.50138c3.80696,0 6.89505,0.214301 6.89505,0.477925 0,0.263908 -3.08809,0.478208 -6.89505,0.478208 -3.80753,0 -6.89505,-0.214301 -6.89505,-0.478208 0,-0.263624 3.08752,-0.477925 6.89505,-0.477925z"/>
    <path id="_85700016" class="fil49" d="M12.3073 3.13628c3.6896,0 6.68245,0.214017 6.68245,0.477925 0,0.264191 -2.99284,0.477925 -6.68245,0.477925 -3.69045,0 -6.68301,-0.213734 -6.68301,-0.477925 0,-0.263908 2.99256,-0.477925 6.68301,-0.477925z"/>
    <path id="_80778104" class="fil50" d="M12.3464 2.77174c3.57253,0 6.47041,0.214017 6.47041,0.477642 0,0.264475 -2.89788,0.478208 -6.47041,0.478208 -3.5731,0 -6.4707,-0.213734 -6.4707,-0.478208 0,-0.263624 2.8976,-0.477642 6.4707,-0.477642z"/>
    <path id="_86851528" class="fil51" d="M12.3849 2.4072c3.45603,0 6.25838,0.213734 6.25838,0.477642 0,0.264475 -2.80235,0.478208 -6.25838,0.478208 -3.45518,0 -6.25753,-0.213734 -6.25753,-0.478208 0,-0.263908 2.80235,-0.477642 6.25753,-0.477642z"/>
    <path id="_82849552" class="fil52" d="M12.4243 2.04209c3.33839,0 6.04578,0.214017 6.04578,0.477925 0,0.264191 -2.70739,0.478208 -6.04578,0.478208 -3.33839,0 -6.0455,-0.214017 -6.0455,-0.478208 0,-0.263908 2.70711,-0.477925 6.0455,-0.477925z"/>
    <path id="_84145328" class="fil53" d="M12.4635 1.67756c3.22132,0 5.83375,0.214017 5.83375,0.477925 0,0.264191 -2.61243,0.478208 -5.83375,0.478208 -3.22103,0 -5.83318,-0.214017 -5.83318,-0.478208 0,-0.263908 2.61215,-0.477925 5.83318,-0.477925z"/>
    <path id="_85631720" class="fil54" d="M12.5026 1.31302c3.10424,0 5.62115,0.214017 5.62115,0.477925 0,0.264191 -2.5169,0.477925 -5.62115,0.477925 -3.10339,0 -5.62115,-0.213734 -5.62115,-0.477925 0,-0.263908 2.51775,-0.477925 5.62115,-0.477925z"/>
    <path id="_82554800" class="fil55" d="M12.542 0.948196c2.98661,0 5.40883,0.213734 5.40883,0.477642 0,0.264191 -2.42222,0.478208 -5.40883,0.478208 -2.98689,0 -5.40883,-0.214017 -5.40883,-0.478208 0,-0.263908 2.42194,-0.477642 5.40883,-0.477642z"/>
   </g>
   <path id="_46217672" class="fil56" d="M12.5811 0.583942c2.86953,0 5.1968,0.214017 5.1968,0.477925 0,0.263908 -2.32726,0.477925 -5.1968,0.477925 -2.86953,0 -5.1968,-0.214017 -5.1968,-0.477925 0,-0.263908 2.32726,-0.477925 5.1968,-0.477925z"/>
  </g>
  <rect class="fil57" x="7.95833" y="0.140316" width="8.00198" height="2.77429"/>
  <rect class="fil58" x="8.90624" y="0.689108" width="6.12685" height="1.28042"/>
 </g>
</svg>
