<?xml version="1.0" encoding="UTF-8" standalone="no"?>
<!-- Creator: CorelDRAW -->

<svg
   xmlns:dc="http://purl.org/dc/elements/1.1/"
   xmlns:cc="http://creativecommons.org/ns#"
   xmlns:rdf="http://www.w3.org/1999/02/22-rdf-syntax-ns#"
   xmlns:svg="http://www.w3.org/2000/svg"
   xmlns="http://www.w3.org/2000/svg"
   xmlns:sodipodi="http://sodipodi.sourceforge.net/DTD/sodipodi-0.dtd"
   xmlns:inkscape="http://www.inkscape.org/namespaces/inkscape"
   xml:space="preserve"
   width="24px"
   height="24px"
   style="shape-rendering:geometricPrecision; text-rendering:geometricPrecision; image-rendering:optimizeQuality; fill-rule:evenodd; clip-rule:evenodd"
   viewBox="0 0 24 24"
   id="svg4226"
   version="1.1"
   inkscape:version="0.48.1 r9760"
   sodipodi:docname="nepomuk.svg"><metadata
   id="metadata4324"><rdf:RDF><cc:Work
       rdf:about=""><dc:format>image/svg+xml</dc:format><dc:type
         rdf:resource="http://purl.org/dc/dcmitype/StillImage" /><dc:title></dc:title></cc:Work></rdf:RDF></metadata><sodipodi:namedview
   pagecolor="#ffffff"
   bordercolor="#666666"
   borderopacity="1"
   objecttolerance="10"
   gridtolerance="10"
   guidetolerance="10"
   inkscape:pageopacity="0"
   inkscape:pageshadow="2"
   inkscape:window-width="646"
   inkscape:window-height="480"
   id="namedview4322"
   showgrid="false"
   inkscape:zoom="11.083333"
   inkscape:cx="12"
   inkscape:cy="12"
   inkscape:window-x="0"
   inkscape:window-y="24"
   inkscape:window-maximized="0"
   inkscape:current-layer="svg4226" />
 <defs
   id="defs4228">
  <style
   type="text/css"
   id="style4230">
   
    .fil29 {fill:white}
    .fil22 {fill:#666666}
    .fil25 {fill:#9C6121}
    .fil23 {fill:#B9792C}
    .fil24 {fill:#E3A13D}
    .fil27 {fill:#FFEC8B}
    .fil30 {fill:#8A5026;fill-rule:nonzero}
    .fil11 {fill:#E3A13D;fill-rule:nonzero}
    .fil0 {fill:#333333;fill-opacity:0.000000}
    .fil12 {fill:#873C00;fill-opacity:0.000000}
    .fil13 {fill:#873C00;fill-opacity:0.007843}
    .fil1 {fill:#333333;fill-opacity:0.011765}
    .fil14 {fill:#873C00;fill-opacity:0.019608}
    .fil2 {fill:#333333;fill-opacity:0.027451}
    .fil15 {fill:#873C00;fill-opacity:0.027451}
    .fil16 {fill:#873C00;fill-opacity:0.035294}
    .fil3 {fill:#333333;fill-opacity:0.039216}
    .fil17 {fill:#873C00;fill-opacity:0.043137}
    .fil4 {fill:#333333;fill-opacity:0.054902}
    .fil18 {fill:#873C00;fill-opacity:0.054902}
    .fil19 {fill:#873C00;fill-opacity:0.062745}
    .fil5 {fill:#333333;fill-opacity:0.066667}
    .fil20 {fill:#873C00;fill-opacity:0.070588}
    .fil6 {fill:#333333;fill-opacity:0.078431}
    .fil21 {fill:#873C00;fill-opacity:0.078431}
    .fil7 {fill:#333333;fill-opacity:0.094118}
    .fil8 {fill:#333333;fill-opacity:0.105882}
    .fil9 {fill:#333333;fill-opacity:0.121569}
    .fil28 {fill:url(#id0)}
    .fil10 {fill:url(#id1)}
    .fil26 {fill:url(#id2)}
    .fil31 {fill:url(#id3)}
   
  </style>
  <linearGradient
   id="id0"
   gradientUnits="userSpaceOnUse"
   x1="11.7168"
   y1="4.90171"
   x2="11.7168"
   y2="18.1373">
   <stop
   offset="0"
   style="stop-color:#B0DBFF"
   id="stop4233" />
   <stop
   offset="1"
   style="stop-color:#DEF3FF"
   id="stop4235" />
  </linearGradient>
  <linearGradient
   id="id1"
   gradientUnits="userSpaceOnUse"
   x1="16.5729"
   y1="2.5923"
   x2="3.13373"
   y2="21.0882">
   <stop
   offset="0"
   style="stop-color:#FEE868"
   id="stop4238" />
   <stop
   offset="1"
   style="stop-color:#FED716"
   id="stop4240" />
  </linearGradient>
  <linearGradient
   id="id2"
   gradientUnits="userSpaceOnUse"
   x1="19.39"
   y1="18.469"
   x2="21.6492"
   y2="21.7294">
   <stop
   offset="0"
   style="stop-color:#FFD58C"
   id="stop4243" />
   <stop
   offset="1"
   style="stop-color:#FABD52"
   id="stop4245" />
  </linearGradient>
  <linearGradient
   id="id3"
   gradientUnits="userSpaceOnUse"
   x1="12.2347"
   y1="7.10538"
   x2="12.034"
   y2="16.7829">
   <stop
   offset="0"
   style="stop-color:#7F7F7F"
   id="stop4248" />
   <stop
   offset="1"
   style="stop-color:#666666"
   id="stop4250" />
  </linearGradient>
 </defs>
 <g
   id="Слой_x0020_1">
  <metadata
   id="CorelCorpID_0Corel-Layer" />
  <g
   id="_251107632">
   <path
   id="_251359040"
   class="fil0"
   d="M5.58515 22.933c-9.56502,0.0093544 -6.03586,0.753738 -6.03586,0.956984 0,0.0498902 -0.0470555,0.110269 -0.0204096,0.172348l13.5928 0c0.0232443,-0.0189923 0.0337325,-0.0379846 0.0337325,-0.0566934 0,-0.202962 1.99476,-1.08171 -7.57026,-1.07264z" />
   <g
   id="g4256">
    <path
   id="_251359808"
   class="fil1"
   d="M5.24357 22.9858c-8.57572,0.00822054 -5.50861,0.68599 -5.50861,0.875912 0,0.0578272 -0.0615123,0.129544 0.0394019,0.200694l12.2152 0c0.0895755,-0.0331656 0.124725,-0.0657643 0.124725,-0.097796 0,-0.190206 1.70562,-0.986748 -6.87067,-0.978811z" />
    <path
   id="_251359880"
   class="fil2"
   d="M4.90284 23.039c-7.58756,0.00708667 -4.98165,0.617958 -4.98165,0.794557 0,0.0651974 -0.0754022,0.149954 0.178017,0.228758l10.6513 0c0.238396,-0.0456382 0.323436,-0.093544 0.323436,-0.138615 0,-0.177167 1.4162,-0.891787 -6.17107,-0.8847z" />
    <path
   id="_251359952"
   class="fil3"
   d="M4.56041 23.0923c-6.59854,0.0059528 -4.4544,0.549359 -4.4544,0.713486 0,0.0734179 -0.0839062,0.175466 0.494083,0.256537l8.67664 0c0.569485,-0.0549926 0.754872,-0.119623 0.754872,-0.179434 0,-0.164127 1.12763,-0.796542 -5.47119,-0.790589z" />
    <path
   id="_251331536"
   class="fil4"
   d="M4.21912 23.1456c-5.60981,0.00481894 -3.92687,0.481327 -3.92687,0.632414 0,0.0864574 -0.0779534,0.218553 1.37935,0.284317l5.42357 0c1.46666,-0.0504571 1.89583,-0.140883 1.89583,-0.220254 0,-0.150804 0.838211,-0.701297 -4.77188,-0.696478z" />
    <path
   id="_251148400"
   class="fil5"
   d="M3.87783 23.1989c-4.62108,0.004252 -3.3999,0.413578 -3.3999,0.551059 0,0.098363 0.00793707,0.264475 3.29275,0.264475 3.28453,0 4.17943,-0.115088 4.17943,-0.212884 0,-0.137481 0.548792,-0.606902 -4.07228,-0.60265z" />
    <path
   id="_251358968"
   class="fil6"
   d="M3.53653 23.2522c-3.63234,0.00311813 -2.87237,0.345546 -2.87237,0.469988 0,0.077103 0.166395,0.203813 2.78988,0.203246 2.62405,0 3.45546,-0.0881582 3.45546,-0.164694 0,-0.124442 0.259372,-0.511941 -3.37297,-0.508539z" />
    <path
   id="_251358896"
   class="fil7"
   d="M3.1941 23.3055c-2.64333,0.00198427 -2.3454,0.276947 -2.3454,0.388916 0,0.055843 0.325136,0.1423 2.28786,0.141733 1.96301,0 2.73064,-0.0606619 2.73064,-0.116221 0,-0.111402 -0.0289136,-0.416696 -2.67309,-0.414428z" />
    <path
   id="_251358824"
   class="fil8"
   d="M2.85338 23.3585c-1.65488,0.00113387 -1.81844,0.209198 -1.81844,0.307561 0,0.0354333 0.483027,0.0822054 1.78499,0.0816384 1.30253,0 2.00694,-0.0342995 2.00694,-0.068599 0,-0.098363 -0.318617,-0.321451 -1.9735,-0.320601z" />
   </g>
   <path
   id="_251360312"
   class="fil9"
   d="M2.51152 23.4124c-0.66558,0 -1.29062,0.14145 -1.29062,0.226773 0,0.0280632 2.56481,0.0260789 2.56481,0 0,-0.0853235 -0.607753,-0.226773 -1.27418,-0.226773z" />
  </g>
  <path
   class="fil10"
   d="M9.18007 0.570052l10.0724 5.8156c0.370775,0.214017 0.383531,0.936007 -0.012756,1.57721l-7.69102 12.4431c-0.426051,0.689958 -1.04146,0.927787 -1.73028,1.09248l-7.88094 1.73595c-0.415279,0.0909928 -1.04429,-0.222238 -1.13613,-0.970874l-0.0289136 -7.08554c-0.0810715,-0.612572 -0.701864,-1.00347 -0.307278,-1.64071l7.3554 -12.1672c0.390901,-0.646871 0.989016,-1.01396 1.35951,-0.799943z"
   id="path4267" />
  <path
   class="fil11"
   d="M18.7329 9.96046l-6.07866 10.5277c-0.226207,0.392035 -0.593863,0.656793 -1.00177,0.766211l-11.6363 2.26093 0.115371 -9.03267c-0.109418,-0.407909 -0.06378,-0.858054 0.162993,-1.25094l6.62604 -11.4756c0.321735,-0.557579 0.909078,-1.45192 1.51258,-1.67217 0.387783,-0.14145 0.814684,-0.125859 1.22855,0.113103l0.00737014 0.00651974 0.0518744 0.0317483 9.51938 5.6597 0.064347 0.0632131 -0.0371342 -0.047339 0.474523 0.127844c1.55935,0.925519 -0.0402523,2.31451 -0.731344,3.4787l-0.277797 0.443059zm-6.94465 10.0276l6.3284 -10.9608c0.220254,-0.381263 0.884416,-1.55963 0.857204,-1.88817 -0.0447878,-0.140033 -0.0141733,-0.252852 -0.212884,-0.370491l-0.0221104 -0.0130395 -9.52448 -5.66253 -0.00822054 -0.00481894 -0.0436539 -0.0266459 -0.0008504 0.0017008c-0.134363,-0.0776699 -0.26816,-0.0844731 -0.385515,-0.0416696 -0.371908,0.136064 -0.77273,0.858904 -0.989583,1.2345l-6.62575 11.4756c-0.0890086,0.153922 -0.106584,0.331373 -0.0634966,0.492098l-0.138332 8.31465 10.4347 -2.24988c-0.0017008,-0.125009 0.143718,-0.229041 0.394586,-0.300475z"
   id="path4269" />
  <g
   id="_251348096">
   <path
   id="_251336816"
   class="fil12"
   d="M12.2795 19.2236l-0.730777 1.18234c-0.426051,0.689958 -1.04146,0.927787 -1.73028,1.09248l-3.6159 0.86344c-0.532918,-0.505138 -0.995819,-1.08228 -1.3734,-1.71327 0.0708667,-0.165261 0.110552,-0.346113 0.110552,-0.537737 0,-0.593296 -0.381263,-1.09843 -0.912763,-1.28212 -0.277514,-0.929771 -0.390617,-1.92446 -0.306711,-2.94976 0.0884416,-1.07576 0.386365,-2.08376 0.8487,-2.98916 0.201261,1.98909 1.23932,3.88066 3.01127,5.10694 1.42839,0.989583 3.09461,1.38048 4.69931,1.22684z" />
   <g
   id="g4273">
    <path
   id="_251337848"
   class="fil13"
   d="M12.2795 19.2236l-0.730777 1.18234c-0.426051,0.689958 -1.04146,0.927787 -1.73028,1.09248l-3.37155 0.805329c-0.607186,-0.551626 -1.12621,-1.19623 -1.53752,-1.90716 0.0198427,-0.0924102 0.0303309,-0.187372 0.0303309,-0.285735 0,-0.506555 -0.278081,-0.948196 -0.689391,-1.18092 -0.322869,-0.976827 -0.459783,-2.03274 -0.370208,-3.12239 0.0790872,-0.961803 0.328255,-1.86861 0.71462,-2.69492 0.25427,1.90716 1.27985,3.70378 2.98547,4.88413 1.42896,0.989583 3.09404,1.38048 4.69931,1.22684z" />
    <path
   id="_251348336"
   class="fil14"
   d="M12.2795 19.2236l-0.730777 1.18234c-0.426051,0.689958 -1.04146,0.927787 -1.73028,1.09248l-3.12239 0.745801c-0.712636,-0.618241 -1.31018,-1.36291 -1.75806,-2.19545 -0.017008,-0.362554 -0.174616,-0.68769 -0.420665,-0.921551 -0.398554,-1.04854 -0.575438,-2.19914 -0.477642,-3.3914 0.0697328,-0.848133 0.273829,-1.65403 0.589327,-2.39671 0.303026,1.82212 1.31302,3.52434 2.95117,4.65764 1.42896,0.989583 3.09461,1.38048 4.69931,1.22684z" />
    <path
   id="_251337440"
   class="fil15"
   d="M12.2795 19.2236l-0.730777 1.18234c-0.426051,0.689958 -1.04146,0.927787 -1.73028,1.09248l-2.87038 0.685423c-1.85898,-1.54008 -2.96138,-3.93168 -2.74906,-6.51945 0.0603784,-0.734179 0.222805,-1.43519 0.472539,-2.09142 0.347814,1.73312 1.3408,3.33867 2.90865,4.42378 1.42839,0.989583 3.09461,1.38048 4.69931,1.22684z" />
    <path
   id="_251331968"
   class="fil16"
   d="M12.2795 19.2236l-0.730777 1.18234c-0.426051,0.689958 -1.04146,0.927787 -1.73028,1.09248l-2.61158 0.623627c-1.91539,-1.50833 -3.06258,-3.91751 -2.84856,-6.52852 0.0513075,-0.619658 0.176316,-1.21551 0.365956,-1.77989 0.3892,1.64071 1.36149,3.14875 2.85593,4.18312 1.42896,0.989583 3.09461,1.38048 4.69931,1.22684z" />
    <path
   id="_251342888"
   class="fil17"
   d="M12.2795 19.2236l-0.730777 1.18234c-0.426051,0.689958 -1.04146,0.927787 -1.73028,1.09248l-2.34796 0.560981c-1.97463,-1.47431 -3.16973,-3.90164 -2.95316,-6.53759 0.0416696,-0.505421 0.133796,-0.994118 0.26986,-1.46382 0.424066,1.54518 1.37311,2.95542 2.793,3.93877 1.42839,0.989583 3.09461,1.38048 4.69931,1.22684z" />
    <path
   id="_251338664"
   class="fil18"
   d="M12.2795 19.2236l-0.730777 1.18234c-0.426051,0.689958 -1.04146,0.927787 -1.73028,1.09248l-2.07696 0.495783c-2.03813,-1.43519 -3.28368,-3.88123 -3.06484,-6.54326 0.0320317,-0.389767 0.0949614,-0.769896 0.185104,-1.13869 0.455531,1.44511 1.37651,2.75586 2.71845,3.6845 1.42896,0.989583 3.09461,1.38048 4.69931,1.22684z" />
    <path
   id="_251340560"
   class="fil19"
   d="M12.2795 19.2236l-0.730777 1.18234c-0.426051,0.689958 -1.04146,0.927787 -1.73028,1.09248l-1.79831 0.429452c-2.10361,-1.39296 -3.40529,-3.8577 -3.18418,-6.54865 0.0226773,-0.273829 0.0606619,-0.543406 0.113103,-0.806747 0.480476,1.34193 1.37,2.55148 2.63114,3.42428 1.42839,0.989583 3.09461,1.38048 4.69931,1.22684z" />
    <path
   id="_251335736"
   class="fil20"
   d="M12.2795 19.2236l-0.730777 1.18234c-0.426051,0.689958 -1.04146,0.927787 -1.73028,1.09248l-1.51088 0.360853c-2.17419,-1.34335 -3.5354,-3.82992 -3.31203,-6.55148 0.012756,-0.158741 0.0320317,-0.314648 0.055276,-0.469988 0.499185,1.23563 1.35185,2.34399 2.52937,3.15895 1.42896,0.989583 3.09461,1.38048 4.69931,1.22684z" />
   </g>
   <path
   id="_251336360"
   class="fil21"
   d="M12.2795 19.2236l-0.730777 1.18234c-0.426051,0.689958 -1.04146,0.927787 -1.73028,1.09248l-1.21466 0.289703c-2.25044,-1.28807 -3.67571,-3.79732 -3.45007,-6.55063l0.0121891 -0.129828c0.510807,1.12678 1.32351,2.13394 2.41429,2.88909 1.42896,0.989583 3.09461,1.38048 4.69931,1.22684z" />
  </g>
  <polygon
   class="fil22"
   points="16.5471,17.7836 17.9145,16.4161 24.1114,22.7958 23.9274,23.7693 22.7437,24.1633 "
   id="polygon4284" />
  <polygon
   class="fil23"
   points="17.6401,19.3404 19.3784,17.6016 19.7369,17.5905 23.1102,20.9408 23.1289,21.4264 21.5055,23.1147 21.1095,23.1459 17.662,19.7202 "
   id="polygon4286" />
  <polygon
   class="fil24"
   points="17.7153,19.1913 18.3712,18.5954 18.3893,18.9106 21.8576,22.346 22.1008,22.4069 23.3676,21.1401 23.3701,21.2056 21.7311,22.9265 21.3346,22.9577 17.8998,19.4574 "
   id="polygon4288" />
  <polygon
   class="fil25"
   points="18.3378,18.5506 18.9024,17.9398 18.8613,18.3624 22.3278,21.7975 22.7241,21.7663 22.2241,22.3343 21.8278,22.3655 18.3607,18.9291 "
   id="polygon4290" />
  <polygon
   class="fil26"
   points="18.1263,18.8605 19.1105,17.8785 19.4679,17.8661 22.8948,21.26 22.9129,21.745 22.4168,22.3329 22.3981,21.8641 18.9733,18.4713 18.6144,18.482 18.145,18.8605 "
   id="polygon4292" />
  <path
   class="fil27"
   d="M15.6596 6.59882c1.53724,1.06413 2.52229,2.62859 2.88796,4.32344l-5.16193 8.35122c-1.91822,0.490114 -4.03005,0.17745 -5.78471,-1.03777 -3.2131,-2.22351 -4.01361,-6.63454 -1.78896,-9.84792 2.22408,-3.21366 6.63454,-4.01474 9.84764,-1.78896z"
   id="path4294" />
  <path
   class="fil28"
   d="M16.309 6.05032c1.53696,1.06413 2.522,2.6283 2.88796,4.32315l-0.543973 5.71611 -4.61824 2.63539c-1.91822,0.489831 -4.03005,0.17745 -5.78471,-1.03806 -3.2131,-2.22351 -4.01361,-6.63454 -1.78896,-9.84764 2.22408,-3.21366 6.63454,-4.01502 9.84792,-1.78896z"
   id="path4296" />
  <ellipse
   class="fil29"
   cx="12.0769"
   cy="7.25333"
   rx="2.23999"
   ry="1.56755"
   id="ellipse4298" />
  <ellipse
   class="fil29"
   cx="8.91021"
   cy="9.23001"
   rx="1.15601"
   ry="0.815225"
   id="ellipse4300" />
  <ellipse
   class="fil29"
   cx="12.1085"
   cy="17.467"
   rx="2.02269"
   ry="0.519852"
   id="ellipse4302" />
  <path
   class="fil30"
   d="M17.7022 18.9024l1.32322 -1.32322 1.25179 0.0538587 3.09659 3.04358 0.109418 0.250868 0.0187088 0.485295 0.0051024 0.157324 -0.109418 0.114804 -1.62426 1.68861 -0.240947 0.113954 -0.395436 0.0308979 -0.168663 0.0121891 -0.121891 -0.120757 -3.26525 -3.21338 0.12104 -1.29403zm1.59167 -0.536603l-0.935724 0.935724 0.0289136 0.64517 2.86301 2.81341 0.085607 -0.00623627 1.41507 -1.47148 -0.00708667 -0.181135 -2.74453 -2.69407 -0.705265 -0.0413862z"
   id="path4304" />
  <g
   id="_251347064">
   <path
   id="_251334560"
   class="fil31"
   d="M12.1344 4.04025c4.36425,0 7.9039,3.53965 7.9039,7.90419 0,4.36425 -3.53965,7.9039 -7.9039,7.9039 -4.36454,0 -7.90419,-3.53965 -7.90419,-7.9039 0,-4.36454 3.53965,-7.90419 7.90419,-7.90419zm0 0.777833c3.93452,0 7.12607,3.19155 7.12607,7.12636 0,3.93452 -3.19155,7.12607 -7.12607,7.12607 -3.9348,0 -7.12636,-3.19155 -7.12636,-7.12607 0,-3.9348 3.19155,-7.12636 7.12636,-7.12636z" />
   <path
   id="_251345480"
   class="fil31"
   d="M12.1344 4.40819c4.16129,0 7.53596,3.37467 7.53596,7.53625 0,4.16129 -3.37467,7.53596 -7.53596,7.53596 -4.16158,0 -7.53625,-3.37467 -7.53625,-7.53596 0,-4.16158 3.37467,-7.53625 7.53625,-7.53625zm0 0.741833c3.7514,0 6.79413,3.04273 6.79413,6.79442 0,3.7514 -3.04273,6.79413 -6.79413,6.79413 -3.75168,0 -6.79442,-3.04273 -6.79442,-6.79413 0,-3.75168 3.04273,-6.79442 6.79442,-6.79442z" />
  </g>
  <g
   id="_251360168">
   <path
   id="_251359184"
   class="fil0"
   d="M17.8876 22.933c9.56502,0.0093544 6.03586,0.753738 6.03586,0.956984 0,0.0498902 0.0470555,0.110269 0.0204096,0.172348l-13.5928 0c-0.0232443,-0.0189923 -0.0337325,-0.0379846 -0.0337325,-0.0566934 0,-0.202962 -1.99476,-1.08171 7.57026,-1.07264z" />
   <g
   id="g4311">
    <path
   id="_251359256"
   class="fil1"
   d="M18.2292 22.9858c8.57572,0.00822054 5.50861,0.68599 5.50861,0.875912 0,0.0578272 0.0615123,0.129544 -0.0394019,0.200694l-12.2152 0c-0.0895755,-0.0331656 -0.124725,-0.0657643 -0.124725,-0.097796 0,-0.190206 -1.70562,-0.986748 6.87067,-0.978811z" />
    <path
   id="_251359328"
   class="fil2"
   d="M18.5699 23.039c7.58756,0.00708667 4.98165,0.617958 4.98165,0.794557 0,0.0651974 0.0754022,0.149954 -0.178017,0.228758l-10.6513 0c-0.238396,-0.0456382 -0.323436,-0.093544 -0.323436,-0.138615 0,-0.177167 -1.4162,-0.891787 6.17107,-0.8847z" />
    <path
   id="_251359424"
   class="fil3"
   d="M18.9123 23.0923c6.59854,0.0059528 4.4544,0.549359 4.4544,0.713486 0,0.0734179 0.0839062,0.175466 -0.494083,0.256537l-8.67664 0c-0.569485,-0.0549926 -0.754872,-0.119623 -0.754872,-0.179434 0,-0.164127 -1.12763,-0.796542 5.47119,-0.790589z" />
    <path
   id="_251359520"
   class="fil4"
   d="M19.2536 23.1456c5.60981,0.00481894 3.92687,0.481327 3.92687,0.632414 0,0.0864574 0.0779534,0.218553 -1.37935,0.284317l-5.42357 0c-1.46666,-0.0504571 -1.89583,-0.140883 -1.89583,-0.220254 0,-0.150804 -0.838211,-0.701297 4.77188,-0.696478z" />
    <path
   id="_251357312"
   class="fil5"
   d="M19.5949 23.1989c4.62108,0.004252 3.3999,0.413578 3.3999,0.551059 0,0.098363 -0.00793707,0.264475 -3.29275,0.264475 -3.28453,0 -4.17943,-0.115088 -4.17943,-0.212884 0,-0.137481 -0.548792,-0.606902 4.07228,-0.60265z" />
    <path
   id="_251359496"
   class="fil6"
   d="M19.9362 23.2522c3.63234,0.00311813 2.87237,0.345546 2.87237,0.469988 0,0.077103 -0.166395,0.203813 -2.78988,0.203246 -2.62405,0 -3.45546,-0.0881582 -3.45546,-0.164694 0,-0.124442 -0.259372,-0.511941 3.37297,-0.508539z" />
    <path
   id="_251360384"
   class="fil7"
   d="M20.2786 23.3055c2.64333,0.00198427 2.3454,0.276947 2.3454,0.388916 0,0.055843 -0.325136,0.1423 -2.28786,0.141733 -1.96301,0 -2.73064,-0.0606619 -2.73064,-0.116221 0,-0.111402 0.0289136,-0.416696 2.67309,-0.414428z" />
    <path
   id="_251335400"
   class="fil8"
   d="M20.6194 23.3585c1.65488,0.00113387 1.81844,0.209198 1.81844,0.307561 0,0.0354333 -0.483027,0.0822054 -1.78499,0.0816384 -1.30253,0 -2.00694,-0.0342995 -2.00694,-0.068599 0,-0.098363 0.318617,-0.321451 1.9735,-0.320601z" />
   </g>
   <path
   id="_251360096"
   class="fil9"
   d="M20.9612 23.4124c0.66558,0 1.29062,0.14145 1.29062,0.226773 0,0.0280632 -2.56481,0.0260789 -2.56481,0 0,-0.0853235 0.607753,-0.226773 1.27418,-0.226773z" />
  </g>
 </g>
</svg>