<?xml version="1.0" encoding="UTF-8" standalone="no"?>
<!-- Creator: CorelDRAW -->

<svg
   xmlns:dc="http://purl.org/dc/elements/1.1/"
   xmlns:cc="http://creativecommons.org/ns#"
   xmlns:rdf="http://www.w3.org/1999/02/22-rdf-syntax-ns#"
   xmlns:svg="http://www.w3.org/2000/svg"
   xmlns="http://www.w3.org/2000/svg"
   xmlns:xlink="http://www.w3.org/1999/xlink"
   xmlns:sodipodi="http://sodipodi.sourceforge.net/DTD/sodipodi-0.dtd"
   xmlns:inkscape="http://www.inkscape.org/namespaces/inkscape"
   xml:space="preserve"
   width="24px"
   height="24px"
   style="shape-rendering:geometricPrecision; text-rendering:geometricPrecision; image-rendering:optimizeQuality; fill-rule:evenodd; clip-rule:evenodd"
   viewBox="0 0 24 24"
   id="svg3531"
   version="1.1"
   inkscape:version="0.48.1 r9760"
   sodipodi:docname="preferences-desktop-display.svg"><metadata
   id="metadata3659"><rdf:RDF><cc:Work
       rdf:about=""><dc:format>image/svg+xml</dc:format><dc:type
         rdf:resource="http://purl.org/dc/dcmitype/StillImage" /><dc:title></dc:title></cc:Work></rdf:RDF></metadata><sodipodi:namedview
   pagecolor="#ffffff"
   bordercolor="#666666"
   borderopacity="1"
   objecttolerance="10"
   gridtolerance="10"
   guidetolerance="10"
   inkscape:pageopacity="0"
   inkscape:pageshadow="2"
   inkscape:window-width="646"
   inkscape:window-height="480"
   id="namedview3657"
   showgrid="false"
   inkscape:zoom="11.083333"
   inkscape:cx="12"
   inkscape:cy="12"
   inkscape:window-x="0"
   inkscape:window-y="24"
   inkscape:window-maximized="0"
   inkscape:current-layer="svg3531" />
 <defs
   id="defs3533">
  <style
   type="text/css"
   id="style3535">
   
    .fil10 {fill:none}
    .fil23 {fill:#7F7F7F}
    .fil18 {fill:#545252}
    .fil26 {fill:#D38D24}
    .fil25 {fill:#D9942B}
    .fil20 {fill:#FED716}
    .fil24 {fill:#FFC42E}
    .fil14 {fill:white}
    .fil22 {fill:#7F7F7F;fill-rule:nonzero}
    .fil21 {fill:#E09613;fill-rule:nonzero}
    .fil0 {fill:black;fill-opacity:0.000000}
    .fil1 {fill:black;fill-opacity:0.003922}
    .fil2 {fill:black;fill-opacity:0.007843}
    .fil3 {fill:black;fill-opacity:0.015686}
    .fil4 {fill:black;fill-opacity:0.019608}
    .fil5 {fill:black;fill-opacity:0.023529}
    .fil6 {fill:black;fill-opacity:0.027451}
    .fil7 {fill:black;fill-opacity:0.031373}
    .fil8 {fill:black;fill-opacity:0.035294}
    .fil9 {fill:black;fill-opacity:0.043137}
    .fil19 {fill:#261401;fill-opacity:0.219608}
    .fil11 {fill:url(#id0)}
    .fil15 {fill:url(#id1)}
    .fil31 {fill:url(#id2)}
    .fil27 {fill:url(#id3)}
    .fil12 {fill:url(#id4)}
    .fil13 {fill:url(#id5)}
    .fil17 {fill:url(#id6)}
    .fil16 {fill:url(#id7);fill-rule:nonzero}
    .fil32 {fill:url(#id8);fill-rule:nonzero}
    .fil29 {fill:url(#id9);fill-opacity:0.219608}
    .fil30 {fill:url(#id10);fill-opacity:0.501961}
    .fil28 {fill:url(#id11);fill-opacity:0.501961}
   
  </style>
  <linearGradient
   id="id0"
   gradientUnits="userSpaceOnUse"
   x1="11.5116"
   y1="21.0613"
   x2="11.5116"
   y2="17.8774">
   <stop
   offset="0"
   style="stop-color:#7F7F7F"
   id="stop3538" />
   <stop
   offset="1"
   style="stop-color:#999999"
   id="stop3540" />
  </linearGradient>
  <linearGradient
   id="id1"
   gradientUnits="userSpaceOnUse"
   x1="11.5082"
   y1="2.57303"
   x2="11.5082"
   y2="18.0543">
   <stop
   offset="0"
   style="stop-color:#DADADA"
   id="stop3543" />
   <stop
   offset="1"
   style="stop-color:#BEBEBE"
   id="stop3545" />
  </linearGradient>
  <linearGradient
   id="id2"
   gradientUnits="userSpaceOnUse"
   x1="17.8989"
   y1="19.5459"
   x2="19.2732"
   y2="23.7021">
   <stop
   offset="0"
   style="stop-color:#EDA21D"
   id="stop3548" />
   <stop
   offset="1"
   style="stop-color:#B9792C"
   id="stop3550" />
  </linearGradient>
  <linearGradient
   id="id3"
   gradientUnits="userSpaceOnUse"
   x1="16.3132"
   y1="23.1113"
   x2="21.2784"
   y2="13.7294">
   <stop
   offset="0"
   style="stop-color:#FED817"
   id="stop3553" />
   <stop
   offset="1"
   style="stop-color:#F3B618"
   id="stop3555" />
  </linearGradient>
  <linearGradient
   id="id4"
   gradientUnits="userSpaceOnUse"
   xlink:href="#id0"
   x1="11.5739"
   y1="22.9534"
   x2="11.4489"
   y2="22.1688">
  </linearGradient>
  <linearGradient
   id="id5"
   gradientUnits="userSpaceOnUse"
   xlink:href="#id0"
   x1="11.5748"
   y1="21.9134"
   x2="11.4481"
   y2="21.1276">
  </linearGradient>
  <linearGradient
   id="id6"
   gradientUnits="userSpaceOnUse"
   x1="11.4991"
   y1="6.62774"
   x2="11.4481"
   y2="12.4683">
   <stop
   offset="0"
   style="stop-color:#5CA2DA"
   id="stop3560" />
   <stop
   offset="1"
   style="stop-color:#84C1F0"
   id="stop3562" />
  </linearGradient>
  <linearGradient
   id="id7"
   gradientUnits="userSpaceOnUse"
   x1="11.634"
   y1="19.0297"
   x2="11.634"
   y2="0.956417">
   <stop
   offset="0"
   style="stop-color:#7F7F7F"
   id="stop3565" />
   <stop
   offset="1"
   style="stop-color:#BDBDBD"
   id="stop3567" />
  </linearGradient>
  <linearGradient
   id="id8"
   gradientUnits="userSpaceOnUse"
   x1="18.1529"
   y1="16.961"
   x2="19.2928"
   y2="20.1619">
   <stop
   offset="0"
   style="stop-color:#D48D13"
   id="stop3570" />
   <stop
   offset="1"
   style="stop-color:#B9792C"
   id="stop3572" />
  </linearGradient>
  <linearGradient
   id="id9"
   gradientUnits="userSpaceOnUse"
   x1="16.1528"
   y1="22.7074"
   x2="18.1166"
   y2="20.7793">
   <stop
   offset="0"
   style="stop-color:#D9942B"
   id="stop3575" />
   <stop
   offset="1"
   style="stop-color:#EDB428"
   id="stop3577" />
  </linearGradient>
  <linearGradient
   id="id10"
   gradientUnits="userSpaceOnUse"
   xlink:href="#id9"
   x1="22.8661"
   y1="13.9469"
   x2="21.5571"
   y2="16.4476">
  </linearGradient>
  <linearGradient
   id="id11"
   gradientUnits="userSpaceOnUse"
   xlink:href="#id9"
   x1="16.7948"
   y1="22.6379"
   x2="19.3562"
   y2="20.4961">
  </linearGradient>
 </defs>
 <g
   id="Слой_x0020_1">
  <metadata
   id="CorelCorpID_0Corel-Layer" />
  <g
   id="_110312816">
   <path
   id="_110298608"
   class="fil0"
   d="M11.5184 20.3487c6.42619,-0.293955 9.30026,0.324286 10.5495,1.18404l0 2.28191c-0.0581107,0.012756 -0.118489,0.0243781 -0.181419,0.0354333l-19.7256 0 0 -2.05117c1.22203,-0.633548 3.82425,-1.19736 9.35752,-1.45022z" />
   <g
   id="g3585">
    <path
   id="_110323688"
   class="fil1"
   d="M11.5414 20.5255c6.433,-0.283467 9.3116,0.371058 10.5265,1.24073l0 2.00808c-0.127844,0.0294805 -0.269293,0.0544256 -0.423499,0.0756856l-19.4835 0 0 -1.85274c1.18574,-0.642619 3.77521,-1.22486 9.38048,-1.47176z" />
    <path
   id="_110299280"
   class="fil2"
   d="M11.564 20.7027c6.42166,-0.271561 9.32322,0.417263 10.5039,1.28949l0 1.74219c-0.203813,0.0501736 -0.447594,0.0875912 -0.727092,0.115654l-19.1799 0 0 -1.66083c1.15428,-0.648005 3.74233,-1.24725 9.40316,-1.4865z" />
    <path
   id="_110315312"
   class="fil3"
   d="M11.587 20.8799c6.38991,-0.257388 9.33711,0.4612 10.4809,1.32804l0 1.48707c-0.292254,0.076536 -0.680604,0.125292 -1.14946,0.155056l-5.59393 0c-0.522996,-0.00368507 -1.06017,-0.00453547 -1.60726,0l-11.5085 0 -0.0479059 -0.0093544 0 -1.46864c1.12735,-0.648572 3.73127,-1.26256 9.42612,-1.49217z" />
    <path
   id="_110319584"
   class="fil4"
   d="M11.6094 21.057c6.33775,-0.241514 9.35696,0.50287 10.4585,1.35611l0 1.243c-0.422932,0.119056 -1.09021,0.172915 -1.93579,0.193891l-2.52852 0c-1.60357,-0.0192757 -3.46652,-0.0513075 -5.3904,0l-9.72263 0c-0.11934,-0.0167245 -0.229608,-0.0348664 -0.329672,-0.0549926l0 -1.25094c1.10269,-0.64347 3.74488,-1.26965 9.44852,-1.48707z" />
    <path
   id="_110327912"
   class="fil5"
   d="M11.6321 21.2339c6.26518,-0.223655 9.38842,0.540855 10.4358,1.37198l0 1.01169c-1.31982,0.402806 -5.59677,0.0858904 -10.128,0.212317l-0.724825 0.0201261 -8.34044 0c-0.279498,-0.0266459 -0.518461,-0.0598115 -0.713769,-0.0997803l0 -1.04599c1.07802,-0.632414 3.78712,-1.26738 9.47119,-1.47034z" />
    <path
   id="_110306816"
   class="fil6"
   d="M11.6545 21.4114c6.17617,-0.203813 9.44058,0.576288 10.4134,1.37708l0 0.790872c-1.18546,0.401672 -5.53469,0.109135 -10.1192,0.222521 -0.687407,0.017008 -1.36659,0.0334491 -2.02877,0.0481894l-6.45085 0c-0.55276,-0.0308979 -0.997803,-0.077103 -1.3082,-0.142017l0 -0.855786c1.04883,-0.61569 3.85855,-1.25462 9.49359,-1.44086z" />
    <path
   id="_110319200"
   class="fil7"
   d="M11.678 21.5888c6.07299,-0.182553 9.52307,0.608887 10.3899,1.37085l0 0.582524c-1.01963,0.397704 -5.45815,0.131245 -10.1098,0.231592 -1.49415,0.0323152 -2.95514,0.0617958 -4.28318,0.0762526l-2.82645 0c-1.23421,-0.0198427 -2.18298,-0.0739848 -2.68755,-0.182553l0 -0.679753c1.00801,-0.592729 3.95748,-1.23223 9.51711,-1.39891z" />
    <path
   id="_110312648"
   class="fil8"
   d="M11.7001 21.7663c5.98087,-0.159308 9.67501,0.644887 10.3678,1.36121l0 0.375027c-0.786053,0.395153 -5.34817,0.156757 -10.1011,0.243215 -4.4561,0.081355 -8.65509,0.140033 -9.80597,-0.116788l0 -0.517894c0.94763,-0.563815 4.08249,-1.19991 9.53922,-1.34477z" />
    <path
   id="_110298536"
   class="fil9"
   d="M11.7231 21.9432c5.97973,-0.136348 10.0291,0.706683 10.3448,1.3717l0 0.130962c-0.343845,0.411877 -5.13188,0.198143 -10.0923,0.271561 -4.51988,0.0668982 -8.82205,0.110552 -9.81475,-0.124442l0 -0.369641c0.852952,-0.529799 4.22791,-1.15881 9.56219,-1.28014z" />
   </g>
  </g>
  <path
   class="fil10"
   d="M-65.4908 -16.0099l-0.125009 0.136348m20.6965 -0.0147403l-0.139749 -0.123308"
   id="path3596" />
  <rect
   class="fil11"
   x="6.0798"
   y="17.8774"
   width="10.8639"
   height="3.1839"
   id="rect3598" />
  <rect
   class="fil12"
   x="4.06548"
   y="22.0407"
   width="14.8924"
   height="1.04089"
   id="rect3600" />
  <rect
   class="fil13"
   x="4.06548"
   y="21.0001"
   width="14.8924"
   height="1.04089"
   id="rect3602" />
  <rect
   class="fil14"
   x="5.04206"
   y="21.0001"
   width="12.9393"
   height="1.04089"
   id="rect3604" />
  <path
   class="fil15"
   d="M1.28836 1.72971l20.4204 -0.0161576c0.513358,-0.000566934 0.932039,0.405641 0.932606,0.882999l0.0189923 15.4197c0.000566934,0.479342 -0.420948,0.881865 -0.932606,0.882716l-20.4204 0.0158741c-0.506555,0 -0.932889,-0.396854 -0.932889,-0.882432l-0.0189923 -15.4197c0,-0.485579 0.419247,-0.881865 0.932889,-0.882999z"
   id="path3606" />
  <path
   class="fil14"
   d="M1.31699 1.86294l20.4011 -0.0158741c0.513358,0 0.932606,0.634966 0.932606,1.11261l0 0.0402523 -22.2859 0 0 -0.0243781c0,-0.485579 0.438523,-1.11119 0.952165,-1.11261z"
   id="path3608" />
  <path
   class="fil16"
   d="M23.0175 4.77188l-0.038268 12.6086c0,0.452696 -0.185954,0.865708 -0.484728,1.16448 -0.298207,0.298207 -0.711218,0.484728 -1.1642,0.484728l-19.6848 0c-0.453263,0 -0.865991,-0.185954 -1.16448,-0.484445 -0.298491,-0.298491 -0.484161,-0.711218 -0.484161,-1.16477l0.038268 -13.7034c0,-0.643753 0.0615123,-1.71186 0.473956,-2.20452 0.265041,-0.316349 0.642619,-0.516193 1.12054,-0.516193l0.00963787 0.00198427 0.0606619 0.00141733 19.7242 0.0374176 0.00396854 0 0.0277797 0.000283467 0.00198427 0c1.81305,0.0218269 1.59507,1.89809 1.57863,3.25165l-0.0189923 0.522713zm-1.03834 12.6086l0.038268 -13.1086c0,-0.440507 -0.0141733,-1.79293 -0.201828,-2.06392 -0.108851,-0.0986464 -0.138615,-0.21175 -0.369641,-0.214301l-0.0257955 -0.000283467 -19.7299 -0.0374176 -0.00963787 0 -0.051024 -0.00113387 0 0.0017008c-0.155056,0 -0.274396,0.0609454 -0.354617,0.156757 -0.253986,0.303876 -0.239813,1.13018 -0.239813,1.56389l-0.038268 13.7034c0,0.177734 0.0734179,0.34016 0.191057,0.457799 0.117639,0.117639 0.280065,0.19134 0.457515,0.19134l19.6848 0c0.176883,0 0.339593,-0.0739848 0.457232,-0.191624 0.117922,-0.117922 0.191624,-0.280632 0.191624,-0.457515z"
   id="path3610" />
  <polygon
   class="fil17"
   points="1.91453,2.99454 21.0182,2.99454 21.033,16.1018 1.92928,16.1018 "
   id="polygon3612" />
  <path
   class="fil18"
   d="M1.97548 2.99454l19.0427 0 0.0147403 13.1072 -19.0427 0 -0.0147403 -13.1072zm17.9953 1.2002l-16.9782 0 0.0147403 10.7681 16.9782 -0.0612288 -0.0147403 -10.7068z"
   id="path3614" />
  <path
   class="fil14"
   d="M2.25413 16.9428l17.7929 0.0158741c0.447311,0 0.812699,-0.405074 0.812699,-0.882999l0 -0.0402523 -19.4186 0 0 0.0243781c0,0.485579 0.365389,0.881582 0.812983,0.882999z"
   id="path3616" />
  <polygon
   class="fil19"
   points="23.011,8.67578 0.157041,8.26703 0.110836,13.0057 22.9529,13.0814 "
   id="polygon3618" />
  <polygon
   class="fil20"
   points="22.6972,8.35603 0.231309,8.36907 0.222521,11.4991 22.6581,11.4662 "
   id="polygon3620" />
  <path
   class="fil21"
   d="M22.1342 8.66445l-21.5276 0.0745518 0.0544256 2.23542 21.4128 0.0306144 0.0603784 -2.34059zm-21.9026 -0.66558l22.4659 -0.0133229 0.380129 0 -0.004252 0.37446 -0.0394019 3.11076 -0.0051024 0.364822 -0.370775 0.0008504 -22.4355 0.0323152 -0.376727 0 0.0008504 -0.369924 0.00907094 -3.13004 0.0017008 -0.369074 0.374176 -0.0008504z"
   id="path3622" />
  <polygon
   class="fil22"
   points="0.145418,7.98923 22.986,7.98923 22.986,9.12253 0.145418,9.12253 "
   id="polygon3624" />
  <g
   id="_110324384">
   <rect
   id="_110299640"
   class="fil23"
   x="0.86132"
   y="8.32428"
   width="1.16231"
   height="1.68604" />
   <rect
   id="_110315072"
   class="fil23"
   x="4.0047"
   y="8.29367"
   width="1.00692"
   height="1.68604" />
  </g>
  <g
   id="_110315192">
   <rect
   id="_110298200"
   class="fil23"
   x="6.9037"
   y="8.32428"
   width="1.16231"
   height="1.68604" />
   <rect
   id="_110298152"
   class="fil23"
   x="9.97111"
   y="8.30897"
   width="1.00692"
   height="1.68604" />
  </g>
  <g
   id="_110322224">
   <rect
   id="_110296976"
   class="fil23"
   x="13.007"
   y="8.32428"
   width="0.976858"
   height="1.68604" />
   <rect
   id="_110307320"
   class="fil23"
   x="16.0138"
   y="8.30897"
   width="1.00692"
   height="1.68604" />
   <rect
   id="_110296232"
   class="fil23"
   x="18.9885"
   y="8.32428"
   width="0.976858"
   height="1.68604" />
   <rect
   id="_110309264"
   class="fil23"
   x="22.0097"
   y="8.32428"
   width="0.976858"
   height="1.68604" />
  </g>
  <polygon
   class="fil24"
   points="17.1736,21.8655 20.8084,21.4168 22.4664,21.4068 23.5791,24.0584 16.8966,24.0649 16.0082,22.7349 "
   id="polygon3637" />
  <path
   class="fil25"
   d="M17.1738 21.8655l3.63489 -0.448444 0.513642 -0.00311813c-0.0578272,0.123592 -0.128127,0.258805 -0.214584,0.407909 -0.604635,0.0436539 -1.68663,1.06187 -0.185671,1.72206 1.50096,0.660194 0.0365672,0.313798 -0.139749,0.517327l-3.88576 0.00396854 -0.888101 -1.33031 1.16533 -0.869393z"
   id="path3639" />
  <path
   class="fil26"
   d="M17.1738 21.8655l3.63489 -0.448444 1.658 -0.0102048 1.11232 2.65126 -7.21962 0.0345829 -0.350932 -1.35781 1.16533 -0.869393zm3.6879 0.0915598l-3.47899 0.428885 -0.639218 0.476508 0.428602 0.510524 5.57948 -0.00651974 -0.644887 -1.4179 -1.24499 0.008504z"
   id="path3641" />
  <path
   class="fil27"
   d="M14.7454 20.0626c0.129261,0.393735 0.403657,-0.118773 1.23705,-0.455815 2.7261,-1.10297 7.92998,-5.21919 7.16519,-6.51123 0.251152,1.29374 0.507122,5.98824 -1.17582,6.45681 -1.05847,1.97151 -4.55418,2.9353 -5.27163,3.56431 -0.717738,0.629013 -3.02176,-1.50493 -1.95479,-3.05407z"
   id="path3643" />
  <path
   class="fil20"
   d="M14.3995 19.924c0.129261,0.394019 -0.0051024,-0.420665 0.906527,-0.62221 2.13507,-0.0997803 4.88555,-2.37914 6.41996,-3.97562 0.895472,-0.931472 2.00751,-1.34618 1.69712,-1.87116 0.250868,1.29374 0.231592,5.6288 -1.45135,6.09737 -1.05847,1.97151 -4.55418,2.9353 -5.27163,3.56431 -0.717738,0.629013 -3.36759,-1.64354 -2.30062,-3.19269z"
   id="path3645" />
  <path
   class="fil28"
   d="M14.3936 19.752c0.129261,0.394019 -0.691659,-0.203529 0.140883,-0.539721 0.799093,-0.322869 0.923251,0.0895755 1.93636,-0.605202 0.0493232,0.795975 0.792857,2.66345 2.58408,2.74396 -1.46524,1.20842 -1.71753,1.20729 -2.35476,1.76571 -0.637233,0.55843 -3.37354,-1.8156 -2.30657,-3.36475z"
   id="path3647" />
  <path
   class="fil29"
   d="M14.3718 19.6477c0.129261,0.394019 -0.0051024,-0.422082 0.90681,-0.622493 0.16186,-0.0357168 -0.349798,0.119906 -0.178017,0.055276 0.419247,0.965488 2.05995,3.13401 2.70682,3.15045 0.646871,0.0167245 0.148537,0.0238112 0.220821,0.0629296 -0.903976,0.437389 -0.817518,0.37531 -1.32804,0.822904 -0.51024,0.447594 -3.39537,-1.91992 -2.3284,-3.46907z"
   id="path3649" />
  <path
   class="fil30"
   d="M20.9607 15.3123c0.167812,-0.122458 0.331089,-0.238396 0.489831,-0.345263 0.763943,-0.514209 1.39607,-0.937992 1.64638,-1.31784 0.0456382,0.0172915 0.0915598,0.038268 0.138899,0.0609454 0.131245,1.18461 0.182553,3.22415 -0.244632,4.56268 -0.248317,0.139466 -0.386082,0.0575438 -0.26249,-0.378428 0.475941,-1.68124 -1.71611,-2.51038 -1.71611,-2.51038l-0.0518744 -0.0717171z"
   id="path3651" />
  <path
   class="fil31"
   d="M20.392 20.5712c0,0 -3.80583,2.48912 -4.4252,2.40663 -0.406491,-0.0538587 1.52363,0.527532 2.81653,-0.547658 0.620509,-0.51676 2.38679,-1.51967 2.49876,-1.81731 0.329105,-0.870527 -0.848416,-0.0416696 -0.890086,-0.0416696z"
   id="path3653" />
  <path
   class="fil32"
   d="M14.9271 20.3929c-0.0612288,0.135497 -0.107434,0.228474 -0.264758,0.288853 -0.122741,0.383814 -0.0901424,0.286868 0.138332,0.706116 0.166678,0.307278 0.393168,0.595847 0.636099,0.832825 0.237829,0.232443 0.489264,0.415562 0.70895,0.514492 0.150804,0.068032 0.261923,0.0997803 0.288002,0.0768195 0.265608,-0.233293 0.776982,-0.472256 1.40373,-0.761959 1.5551,-0.723407 4.56807,-2.56849 4.93176,-4.5692 0.1766,-0.970874 0.263908,-1.57636 0.20608,-2.49082 -0.324286,0.265892 -0.734746,0.542272 -1.18489,0.845298l-0.0008504 -0.0008504 -0.0289136 0.0192757 0 0.0017008c-0.55843,0.37616 -1.17922,0.863723 -1.82014,1.36744 -1.49472,1.1744 -3.11247,2.44575 -4.49238,2.74991 -0.365389,0.0805046 -0.473956,0.315499 -0.521012,0.420098zm-0.291687 -0.927787c0.154489,-0.117922 0.360003,-0.221671 0.638084,-0.2829 1.19453,-0.263057 2.73942,-1.47771 4.16611,-2.59854 0.656509,-0.516193 1.29261,-1.01509 1.86635,-1.40174l0.0008504 0.00113387 0.0289136 -0.0192757 0 -0.00198427c0.800227,-0.538303 1.42272,-0.959535 1.53809,-1.19368l-0.0413862 -0.244632 0.747502 -0.282049c0.121891,0.206364 0.15534,0.401106 0.119906,0.591028 0.125576,0.998937 0.119056,2.1963 -0.134363,3.59039 -0.463468,2.53589 -3.23719,4.16328 -5.38842,5.1642 -0.568067,0.262774 -1.03352,0.479626 -1.20984,0.634966 -0.295656,0.259089 -0.712069,0.251435 -1.15541,0.0518744 -0.30416,-0.137198 -0.635249,-0.375027 -0.939409,-0.671533 -0.299341,-0.291687 -0.577422,-0.647722 -0.783786,-1.02672 -0.414428,-0.761959 -0.468287,-1.07944 0.0325987,-1.80682l0.4595 -0.667848 0.0547091 0.164127z"
   id="path3655" />
 </g>
</svg>