<?xml version="1.0" encoding="UTF-8" standalone="no"?>
<!-- Creator: CorelDRAW -->

<svg
   xmlns:dc="http://purl.org/dc/elements/1.1/"
   xmlns:cc="http://creativecommons.org/ns#"
   xmlns:rdf="http://www.w3.org/1999/02/22-rdf-syntax-ns#"
   xmlns:svg="http://www.w3.org/2000/svg"
   xmlns="http://www.w3.org/2000/svg"
   xmlns:xlink="http://www.w3.org/1999/xlink"
   xmlns:sodipodi="http://sodipodi.sourceforge.net/DTD/sodipodi-0.dtd"
   xmlns:inkscape="http://www.inkscape.org/namespaces/inkscape"
   xml:space="preserve"
   width="24px"
   height="24px"
   style="shape-rendering:geometricPrecision; text-rendering:geometricPrecision; image-rendering:optimizeQuality; fill-rule:evenodd; clip-rule:evenodd"
   viewBox="0 0 24 24"
   id="svg3941"
   version="1.1"
   inkscape:version="0.48.1 r9760"
   sodipodi:docname="preferences-desktop-keyboard.svg"><metadata
   id="metadata4062"><rdf:RDF><cc:Work
       rdf:about=""><dc:format>image/svg+xml</dc:format><dc:type
         rdf:resource="http://purl.org/dc/dcmitype/StillImage" /><dc:title></dc:title></cc:Work></rdf:RDF></metadata><sodipodi:namedview
   pagecolor="#ffffff"
   bordercolor="#666666"
   borderopacity="1"
   objecttolerance="10"
   gridtolerance="10"
   guidetolerance="10"
   inkscape:pageopacity="0"
   inkscape:pageshadow="2"
   inkscape:window-width="646"
   inkscape:window-height="480"
   id="namedview4060"
   showgrid="false"
   inkscape:zoom="11.083333"
   inkscape:cx="12"
   inkscape:cy="12"
   inkscape:window-x="0"
   inkscape:window-y="24"
   inkscape:window-maximized="0"
   inkscape:current-layer="svg3941" />
 <defs
   id="defs3943">
  <style
   type="text/css"
   id="style3945">
   
    .fil0 {fill:none}
    .fil10 {fill:#B5E2FF}
    .fil20 {fill:white}
    .fil24 {fill:#999999;fill-rule:nonzero}
    .fil13 {fill:#CCCCCC;fill-rule:nonzero}
    .fil12 {fill:white;fill-rule:nonzero}
    .fil17 {fill:#6EAEE4;fill-rule:nonzero}
    .fil26 {fill:#999999;fill-rule:nonzero}
    .fil1 {fill:#C4FFFF;fill-opacity:0.000000}
    .fil2 {fill:#C3FCFF;fill-opacity:0.109804}
    .fil15 {fill:#CCCCCC;fill-opacity:0.219608}
    .fil3 {fill:#C1F9FF;fill-opacity:0.223529}
    .fil4 {fill:#BFF6FF;fill-opacity:0.333333}
    .fil5 {fill:#BEF3FF;fill-opacity:0.443137}
    .fil11 {fill:#999999;fill-opacity:0.501961}
    .fil6 {fill:#BCEFFF;fill-opacity:0.556863}
    .fil7 {fill:#BAECFF;fill-opacity:0.666667}
    .fil8 {fill:#B9E9FF;fill-opacity:0.776471}
    .fil9 {fill:#B7E6FF;fill-opacity:0.890196}
    .fil21 {fill:url(#id0)}
    .fil18 {fill:url(#id1)}
    .fil23 {fill:url(#id2)}
    .fil14 {fill:url(#id3)}
    .fil22 {fill:url(#id4)}
    .fil19 {fill:url(#id5)}
    .fil25 {fill:url(#id6)}
    .fil16 {fill:url(#id7);fill-rule:nonzero}
   
  </style>
  <linearGradient
   id="id0"
   gradientUnits="userSpaceOnUse"
   x1="18.5611"
   y1="4.82319"
   x2="18.5611"
   y2="12.0748">
   <stop
   offset="0"
   style="stop-color:#E5E5E5"
   id="stop3948" />
   <stop
   offset="1"
   style="stop-color:#B2B2B2"
   id="stop3950" />
  </linearGradient>
  <linearGradient
   id="id1"
   gradientUnits="userSpaceOnUse"
   xlink:href="#id0"
   x1="6.93416"
   y1="4.82319"
   x2="6.93416"
   y2="12.0748">
  </linearGradient>
  <linearGradient
   id="id2"
   gradientUnits="userSpaceOnUse"
   xlink:href="#id0"
   x1="8.42945"
   y1="14.9251"
   x2="8.42945"
   y2="22.1767">
  </linearGradient>
  <linearGradient
   id="id3"
   gradientUnits="userSpaceOnUse"
   x1="7.16774"
   y1="6.15208"
   x2="7.16774"
   y2="11.2942">
   <stop
   offset="0"
   style="stop-color:#E5E5E5"
   id="stop3955" />
   <stop
   offset="1"
   style="stop-color:white"
   id="stop3957" />
  </linearGradient>
  <linearGradient
   id="id4"
   gradientUnits="userSpaceOnUse"
   x1="18.683"
   y1="6.58352"
   x2="18.683"
   y2="10.2533">
   <stop
   offset="0"
   style="stop-color:#DEDEDE"
   id="stop3960" />
   <stop
   offset="1"
   style="stop-color:white"
   id="stop3962" />
  </linearGradient>
  <linearGradient
   id="id5"
   gradientUnits="userSpaceOnUse"
   xlink:href="#id4"
   x1="7.05606"
   y1="6.58352"
   x2="7.05606"
   y2="10.2533">
  </linearGradient>
  <linearGradient
   id="id6"
   gradientUnits="userSpaceOnUse"
   xlink:href="#id4"
   x1="8.55134"
   y1="16.6854"
   x2="8.55134"
   y2="20.3552">
  </linearGradient>
  <linearGradient
   id="id7"
   gradientUnits="userSpaceOnUse"
   x1="7.13798"
   y1="6.1878"
   x2="7.37212"
   y2="11.3781">
   <stop
   offset="0"
   style="stop-color:white"
   id="stop3967" />
   <stop
   offset="1"
   style="stop-color:#E9E9E9"
   id="stop3969" />
  </linearGradient>
 </defs>
 <g
   id="Слой_x0020_1">
  <metadata
   id="CorelCorpID_0Corel-Layer" />
  <path
   class="fil0"
   d="M-65.4908 -16.0099l-0.125009 0.136348m20.6965 -0.0147403l-0.139749 -0.123308"
   id="path3973" />
  <g
   id="_104730440">
   <path
   id="_104733608"
   class="fil1"
   d="M14.3338 2.8633l8.59868 0c0.892637,0 1.62228,0.70073 1.62228,1.55793l0 7.63433c0,0.856353 -0.729644,1.55765 -1.62228,1.55765l-8.59868 0c-0.892353,0 -1.62256,-0.701297 -1.62256,-1.55765l0 -7.63433c0,-0.857204 0.73021,-1.55793 1.62256,-1.55793z" />
   <g
   id="g3977">
    <path
   id="_104739872"
   class="fil2"
   d="M14.5019 3.07335c2.75388,0 5.50833,0 8.26306,0 0.85692,0 1.55793,0.674368 1.55793,1.49727 0,2.44547 0,4.89009 0,7.33414 0,0.823471 -0.701013,1.49727 -1.55793,1.49727 -2.75473,0 -5.50918,0 -8.26306,0 -0.85692,0 -1.55907,-0.673801 -1.55907,-1.49727 0,-2.44405 0,-4.88867 0,-7.33414 0,-0.822904 0.702147,-1.49727 1.55907,-1.49727z" />
    <path
   id="_104737544"
   class="fil3"
   d="M14.6708 3.28481c2.64134,0 5.28269,0 7.92488,0 0.822337,0 1.49557,0.645454 1.49557,1.43519 0,2.34597 0,4.69109 0,7.03536 0,0.790589 -0.673234,1.43519 -1.49557,1.43519 -2.64219,0 -5.28354,0 -7.92488,0 -0.822904,0 -1.49557,-0.644604 -1.49557,-1.43519 0,-2.34427 0,-4.68939 0,-7.03536 0,-0.789739 0.672667,-1.43519 1.49557,-1.43519z" />
    <path
   id="_104741600"
   class="fil4"
   d="M14.8386 3.49486c2.52909,0 5.05932,0 7.58897,0 0.787754,0 1.43094,0.618808 1.43094,1.37453 0,2.24647 0,4.4921 0,6.73659 0,0.756289 -0.643186,1.37453 -1.43094,1.37453 -2.52966,0 -5.05988,0 -7.58897,0 -0.787187,0 -1.43179,-0.618241 -1.43179,-1.37453 0,-2.24449 0,-4.49011 0,-6.73659 0,-0.755722 0.644604,-1.37453 1.43179,-1.37453z" />
    <path
   id="_104744504"
   class="fil5"
   d="M15.0067 3.70491c2.41769,0 4.83453,0 7.25221,0 0.752321,0 1.36801,0.591595 1.36801,1.31387 0,2.14669 0,4.29254 0,6.43781 0,0.722273 -0.61569,1.3133 -1.36801,1.3133 -2.41769,0 -4.83453,0 -7.25221,0 -0.752604,0 -1.36829,-0.591028 -1.36829,-1.3133 0,-2.14528 0,-4.29112 0,-6.43781 0,-0.722273 0.61569,-1.31387 1.36829,-1.31387z" />
    <path
   id="_104741984"
   class="fil6"
   d="M15.176 3.91609c2.3043,0 4.60945,0 6.91489,0 0.717454,0 1.3048,0.563532 1.3048,1.25264 0,2.04663 0,4.09298 0,6.13791 0,0.689958 -0.587343,1.25264 -1.3048,1.25264 -2.30544,0 -4.61059,0 -6.91489,0 -0.717738,0 -1.3048,-0.562682 -1.3048,-1.25264 0,-2.04493 0,-4.09128 0,-6.13791 0,-0.689108 0.58706,-1.25264 1.3048,-1.25264z" />
    <path
   id="_104739464"
   class="fil7"
   d="M15.3441 4.12614c2.19262,0 4.38523,0 6.57756,0 0.682872,0 1.24243,0.536036 1.24243,1.19198 0,1.94713 0,3.8937 0,5.83885 0,0.656226 -0.559563,1.19198 -1.24243,1.19198 -2.19233,0 -4.38495,0 -6.57756,0 -0.682872,0 -1.2413,-0.535752 -1.2413,-1.19198 0,-1.94515 0,-3.89172 0,-5.83885 0,-0.655942 0.55843,-1.19198 1.2413,-1.19198z" />
    <path
   id="_104738792"
   class="fil8"
   d="M15.5119 4.33648c2.08065,0 4.16129,0 6.24166,0 0.648005,0 1.17752,0.509106 1.17752,1.13103 0,1.84735 0,3.69442 0,5.54008 0,0.62221 -0.529516,1.13132 -1.17752,1.13132 -2.08036,0 -4.16101,0 -6.24166,0 -0.646871,0 -1.17724,-0.509106 -1.17724,-1.13132 0,-1.84565 0,-3.69272 0,-5.54008 0,-0.621926 0.530366,-1.13103 1.17724,-1.13103z" />
    <path
   id="_104745008"
   class="fil9"
   d="M15.6808 4.54766c1.96868,0 3.93594,0 5.90405,0 0.613139,0 1.11459,0.480476 1.11459,1.06924 0,1.74814 0,3.49543 0,5.2413 0,0.589044 -0.501453,1.06924 -1.11459,1.06924 -1.96811,0 -3.93537,0 -5.90405,0 -0.613139,0 -1.11374,-0.480193 -1.11374,-1.06924 0,-1.74587 0,-3.49316 0,-5.2413 0,-0.588761 0.500602,-1.06924 1.11374,-1.06924z" />
   </g>
   <rect
   id="_104745752"
   class="fil10"
   x="14.7985"
   y="4.75755"
   width="7.669"
   height="6.96095"
   rx="3.03026"
   ry="3.03026" />
   <path
   id="_104746280"
   class="fil1"
   d="M1.73595 2.75501l12.5627 0c1.30395,0 2.37035,0.730777 2.37035,1.6237l0 7.95663c0,0.89292 -1.0664,1.6237 -2.37035,1.6237l-12.5627 0c-1.30366,0 -2.37007,-0.730777 -2.37007,-1.6237l0 -7.95663c0,-0.89292 1.0664,-1.6237 2.37007,-1.6237z" />
   <g
   id="g3989">
    <path
   id="_104746544"
   class="fil2"
   d="M1.98257 2.97385c4.02466,0 8.04791,0 12.0697,0 1.25349,0 2.27851,0.702147 2.27851,1.55935 0,2.54922 0,5.09787 0,7.6451 0,0.858337 -1.02502,1.55963 -2.27851,1.55963 -4.02183,0 -8.04507,0 -12.0697,0 -1.25207,0 -2.27766,-0.701297 -2.27766,-1.55963 0,-2.54723 0,-5.09588 0,-7.6451 0,-0.857204 1.02558,-1.55935 2.27766,-1.55935z" />
    <path
   id="_104744648"
   class="fil3"
   d="M2.2289 3.19325c3.85997,0 7.71965,0 11.5779,0 1.2019,0 2.18525,0.674084 2.18525,1.49614 0,2.44462 0,4.88924 0,7.333 0,0.822904 -0.983346,1.49614 -2.18525,1.49614 -3.85827,0 -7.71795,0 -11.5779,0 -1.2019,0 -2.18496,-0.673234 -2.18496,-1.49614 0,-2.44377 0,-4.88838 0,-7.333 0,-0.822054 0.983063,-1.49614 2.18496,-1.49614z" />
    <path
   id="_104740784"
   class="fil4"
   d="M2.47495 3.41237c3.69584,0 7.39083,0 11.0853,0 1.15116,0 2.09284,0.645454 2.09284,1.43264 0,2.34144 0,4.68202 0,7.02176 0,0.788038 -0.941677,1.43236 -2.09284,1.43236 -3.69442,0 -7.38941,0 -11.0853,0 -1.15088,0 -2.09198,-0.64432 -2.09198,-1.43236 0,-2.33973 0,-4.68032 0,-7.02176 0,-0.787187 0.94111,-1.43264 2.09198,-1.43264z" />
    <path
   id="_104735576"
   class="fil5"
   d="M2.72128 3.63149c3.53115,0 7.06258,0 10.5934,0 1.10013,0 1.99957,0.616824 1.99957,1.36914 0,2.2374 0,4.47452 0,6.71051 0,0.752321 -0.89944,1.36858 -1.99957,1.36858 -3.53086,0 -7.06229,0 -10.5934,0 -1.10013,0 -1.99986,-0.616257 -1.99986,-1.36858 0,-2.23599 0,-4.47311 0,-6.71051 0,-0.752321 0.899724,-1.36914 1.99986,-1.36914z" />
    <path
   id="_104739056"
   class="fil6"
   d="M2.96676 3.85146c3.36844,0 6.73545,0 10.1013,0 1.04883,0 1.9066,0.58791 1.9066,1.30565 0,2.13252 0,4.26561 0,6.39756 0,0.718305 -0.857771,1.30593 -1.9066,1.30593 -3.36588,0 -6.7329,0 -10.1013,0 -1.04769,0 -1.90546,-0.587627 -1.90546,-1.30593 0,-2.13195 0,-4.26504 0,-6.39756 0,-0.717738 0.857771,-1.30565 1.90546,-1.30565z" />
    <path
   id="_104734112"
   class="fil7"
   d="M3.2131 4.0703c3.20403,0 6.40748,0 9.60924,0 0.99752,0 1.81362,0.559563 1.81362,1.24243 0,2.02906 0,4.05811 0,6.08603 0,0.682872 -0.816101,1.24272 -1.81362,1.24272 -3.20176,0 -6.40522,0 -9.60924,0 -0.997236,0 -1.81305,-0.559847 -1.81305,-1.24272 0,-2.02792 0,-4.05698 0,-6.08603 0,-0.682872 0.815817,-1.24243 1.81305,-1.24243z" />
    <path
   id="_104738024"
   class="fil8"
   d="M3.45886 4.29027c3.04018,0 6.07866,0 9.11714,0 0.946496,0 1.72093,0.530366 1.72093,1.17809 0,1.92559 0,3.8509 0,5.77479 0,0.648289 -0.774431,1.17865 -1.72093,1.17865 -3.03848,0 -6.07696,0 -9.11714,0 -0.945929,0 -1.72036,-0.530366 -1.72036,-1.17865 0,-1.92389 0,-3.8492 0,-5.77479 0,-0.647722 0.774431,-1.17809 1.72036,-1.17809z" />
    <path
   id="_104738456"
   class="fil9"
   d="M3.70519 4.50882c2.87577,0 5.75069,0 8.62646,0 0.894338,0 1.62682,0.50287 1.62682,1.11544 0,1.82099 0,3.64283 0,5.46297 0,0.612855 -0.732478,1.11544 -1.62682,1.11544 -2.87577,0 -5.75069,0 -8.62646,0 -0.894905,0 -1.62795,-0.502587 -1.62795,-1.11544 0,-1.82014 0,-3.64198 0,-5.46297 0,-0.612572 0.733045,-1.11544 1.62795,-1.11544z" />
   </g>
   <rect
   id="_104732456"
   class="fil10"
   x="2.41507"
   y="4.72957"
   width="11.2043"
   height="7.2548"
   rx="3.03026"
   ry="3.03026" />
  </g>
  <path
   class="fil11"
   d="M12.777 12.1029c-0.211466,0.251435 -0.527532,0.411594 -0.878464,0.408476l-9.22826 -0.08504c-0.195592,-0.0017008 -0.380129,-0.051591 -0.541705,-0.139182l1.3357 -1.64808c1.77989,-0.363121 7.78343,-0.0303309 7.78343,-0.0303309l1.5293 1.49415z"
   id="path4000" />
  <path
   class="fil12"
   d="M9.9786 9.47233l-0.969173 -0.385231 0.089859 -0.104599 -1.10155 -0.612855 3.40444 -1.95535 0.254837 -0.19786 1.37283 -1.16335c-0.13493,-0.234994 -0.50939,-0.588194 -0.767628,-0.682588l-1.03352 1.42981 -3.96712 2.15973 -4.01474 -2.21217 -1.12026 -1.38077c-0.258805,0.0946779 -0.736163,0.469138 -0.871093,0.704415l1.70477 0.968606 0.068599 0.374176 3.70803 1.82439 -1.40458 0.743817 -0.0609454 0.0436539 -0.533768 -0.0932606 -1.14095 0.612855c0.216002,0.439374 0.427184,0.0513075 0.591028,0.669832l0.799943 -1.20162 0.768762 0.642619 1.78244 -1.02388 1.58911 0.781801 -0.198143 -0.428602 0.759408 0.853235c-0.674084,0.443626 -0.0504571,-0.0561264 0.28942,-0.366806z"
   id="path4002" />
  <path
   class="fil13"
   d="M12.9746 11.5209l-1.15456 -0.972008 -2.81057 -1.46212 0.089859 -0.104316 -1.10155 -0.612855 2.31196 -1.32776 -1.31415 0 -1.73368 0.918149 -1.65063 -0.918149 -1.30707 0 2.43243 1.19651 -1.40458 0.7441 -0.0606619 0.0436539 -2.53731 1.74531 -1.27475 0.84218c0.215718,0.439657 0.426901,0.051591 0.590745,0.670116l0.991283 -1.22117 2.71476 -1.406 1.78272 -1.0236 1.58883 0.781518 2.30147 1.50521 0.83566 1.35185c-0.674368,0.443626 0.370491,-0.43994 0.709801,-0.75062z"
   id="path4004" />
  <path
   class="fil14"
   d="M3.52633 5.88335l7.2885 -0.017008c0.480193,0.0051024 0.872794,0.440791 0.872794,0.96889l-0.000566934 3.76954c0,0.528099 -0.394302,0.974842 -0.872794,0.969173l-7.25023 -0.0688824c-0.473956,-0.00453547 -0.868542,-0.435688 -0.873078,-0.968323l-0.0379846 -3.6845c-0.00481894,-0.533201 0.392885,-0.974275 0.873361,-0.96889z"
   id="path4006" />
  <path
   class="fil15"
   d="M11.3285 6.14017c0.165828,0.176883 0.269293,0.423783 0.269293,0.695061l-0.000566934 3.76954c0,0.213734 -0.0649139,0.415562 -0.174332,0.578556l0.000566934 -3.96683c0,-0.20438 -0.0260789,-0.358302 -0.0878747,-0.446744 -0.0527248,-0.0748352 -0.132379,-0.0328821 -0.286868,-0.0334491l-0.00113387 0 -7.63518 -0.00453547 -0.0017008 0c-0.158458,-0.00141733 -0.259656,0.0314648 -0.309829,0.0980795l0 0.0008504c-0.0589611,0.0779534 -0.102898,0.179434 -0.102898,0.381263l0.0379846 4.0034 0.0017008 0.0873078c-0.207498,-0.176883 -0.344412,-0.454114 -0.346963,-0.765927l-0.0377011 -3.79052c-0.000566934,-0.108851 0.0147403,-0.214301 0.0447878,-0.312664l0.0008504 -0.000566934c0.150521,-0.199844 0.37616,-0.299341 0.69421,-0.29679l0.0017008 0 7.63546 -0.0374176 0.00113387 0c0.109985,0.0008504 0.209198,0.0150237 0.297357,0.0413862z"
   id="path4008" />
  <path
   class="fil16"
   d="M3.37325 5.84764l0.0017008 0 7.76359 0.004252 0.00141733 0c0.323152,0.0025512 0.548792,0.111686 0.697612,0.311247 0.138899,0.185954 0.195592,0.527532 0.195592,0.832542l-0.0192757 3.65474c0,0.308128 -0.0592446,0.553327 -0.201545,0.731911 -0.150237,0.188505 -0.374743,0.284601 -0.693076,0.281766l-0.00311813 0 -7.68564 0.0555595 0 0.00113387c-0.321451,0 -0.547658,-0.108851 -0.697895,-0.310113 -0.138615,-0.185954 -0.19786,-0.437673 -0.19786,-0.745234l-0.0572603 -3.7137c0,-0.311813 0.0589611,-0.646588 0.201545,-0.824321 0.150521,-0.188505 0.376444,-0.282333 0.69421,-0.279782zm7.52718 0.789172l-0.00113387 0 -7.34746 -0.0345829 -0.00198427 0c-0.158174,-0.00113387 -0.259372,0.029764 -0.309546,0.0926936l0 0.000566934c-0.0589611,0.0734179 -0.0833392,0.209482 -0.0833392,0.399688l0.0277797 3.57026c0,0.194458 0.0272128,0.339593 0.0904259,0.424066 0.0521579,0.0691659 0.150237,0.107434 0.304443,0.107434l0 0.00141733 7.27177 -0.025512 0.00311813 0c0.157608,0.00198427 0.256821,-0.0306144 0.307278,-0.0938275 0.0583942,-0.0734179 0.0833392,-0.209198 0.0833392,-0.398271l0.0490398 -3.51159c0,-0.192757 -0.0260789,-0.337892 -0.0881582,-0.421232 -0.0527248,-0.0702998 -0.151371,-0.110552 -0.305577,-0.111119z"
   id="path4010" />
  <path
   class="fil17"
   d="M5.55311 9.2087l0.399121 0.191907c-0.0841896,0.338459 -0.0748352,0.590745 -0.270427,0.754589 -0.194175,0.163844 -0.442775,0.246049 -0.742966,0.246049 -0.371058,0 -0.676635,-0.141166 -0.915881,-0.421799 -0.238679,-0.281483 -0.358586,-0.66643 -0.358586,-1.15343 0,-0.51676 0.120757,-0.917015 0.36057,-1.20275 0.240663,-0.285168 0.556162,-0.428602 0.94848,-0.428602 0.341861,0 0.619658,0.112536 0.832825,0.336759 0.128127,0.132096 0.0742683,0.322302 0.138615,0.570902l-0.411027 0.148253c-0.0323152,-0.161009 -0.101198,-0.288002 -0.207214,-0.381263 -0.104883,-0.0932606 -0.232159,-0.139749 -0.38183,-0.139749 -0.207498,0 -0.375877,0.0824888 -0.504854,0.24775 -0.128694,0.164694 -0.193608,0.432003 -0.193608,0.801644 0,0.392318 0.0634966,0.671533 0.190773,0.837644 0.127277,0.166678 0.292254,0.249734 0.495783,0.249734 0.150521,0 0.278931,-0.0530083 0.387783,-0.158741 0.108001,-0.105733 0.185387,-0.272695 0.232443,-0.498902zm1.68946 -1.10637l0 0.473673 -0.366523 0 0 0.905393c0,0.181986 0.00396854,0.290837 0.0104883,0.320317 0.0068032,0.0300475 0.0232443,0.055843 0.0479059,0.0748352 0.0238112,0.0192757 0.0549926,0.0300475 0.089859,0.0300475 0.0504571,0 0.122174,-0.0198427 0.216852,-0.0572603l0.0450712 0.460634c-0.124725,0.0589611 -0.265892,0.0890086 -0.423499,0.0890086 -0.0966622,0 -0.184253,-0.0189923 -0.261073,-0.0535752 -0.0768195,-0.0354333 -0.135214,-0.0839062 -0.17093,-0.140316 -0.0360003,-0.055843 -0.0617958,-0.134647 -0.0756856,-0.231592 -0.00992134,-0.0674651 -0.0164411,-0.208632 -0.0164411,-0.41868l0 -0.978811 -0.246616 0 0 -0.473673 0.246616 0 0 -0.446744 0.537453 -0.346113 0 0.792857 0.366523 0zm0.8847 2.24591l-0.536319 0 0 -2.24591 0.497768 0 0 0.319467c0.0847566,-0.151371 0.16186,-0.250585 0.229892,-0.298207 0.0683155,-0.0479059 0.145135,-0.0720006 0.231309,-0.0720006 0.122741,0 0.240096,0.0374176 0.353483,0.112253l-0.166395 0.517327c-0.0895755,-0.06378 -0.173765,-0.0963787 -0.251152,-0.0963787 -0.0756856,0 -0.139182,0.0229608 -0.191057,0.068599 -0.051591,0.0447878 -0.0932606,0.129261 -0.123308,0.248317 -0.0289136,0.119056 -0.0442208,0.372475 -0.0442208,0.752888l0 0.693643zm1.00659 -0.0300475l0 -3.10056 0.655375 0 0 3.10056 -0.655375 0z"
   id="path4012" />
  <path
   class="fil18"
   d="M2.17589 4.59188l9.51655 0c0.404224,0 0.734746,0.33194 0.734746,0.734746l0 6.24477c0,0.402806 -0.33194,0.734746 -0.734746,0.734746l-9.51655 0c-0.402806,0 -0.734746,-0.330522 -0.734746,-0.734746l0 -6.24477c0,-0.404224 0.330522,-0.734746 0.734746,-0.734746z"
   id="path4014" />
  <path
   class="fil17"
   d="M2.17589 3.90022l9.51655 0c0.367373,0 0.701297,0.150237 0.942811,0.391751 0.241514,0.241514 0.391751,0.576005 0.391751,0.942811l0 6.33662c0,0.365105 -0.150804,0.698462 -0.392035,0.940259l0 0.00226773c-0.24123,0.24123 -0.575438,0.392035 -0.942527,0.392035l-9.51655 0c-0.366806,0 -0.518177,-0.150237 -0.759691,-0.391751 -0.241514,-0.241514 -0.391751,-0.575438 -0.391751,-0.942811l0 -6.33662c0,-0.367373 0.149954,-0.70158 0.391468,-0.943094l0.00226773 0c0.241514,-0.240947 0.391751,-0.391468 0.757707,-0.391468zm9.73028 1.01595l-9.73028 0c-0.0374176,0 -0.0714336,0.0150237 -0.0960952,0.038835l0.00113387 0.00113387c-0.0243781,0.0243781 -0.0399688,0.0583942 -0.0399688,0.0949614l0 6.70399c0,0.0362838 0.0158741,0.0702998 0.0402523,0.0946779 0.0243781,0.0243781 0.0586776,0.0402523 0.0946779,0.0402523l9.73028 0c0.0357168,0 0.0697328,-0.0158741 0.0943944,-0.0405358l0.00113387 0.00113387c0.0240947,-0.0246616 0.0394019,-0.0586776 0.0394019,-0.0955283l0 -6.70399c0,-0.0360003 -0.0158741,-0.0702998 -0.0402523,-0.0946779 -0.0243781,-0.0243781 -0.0583942,-0.0402523 -0.0946779,-0.0402523z"
   id="path4016" />
  <rect
   class="fil19"
   x="3.08894"
   y="5.93891"
   width="7.93452"
   height="4.95925"
   id="rect4018" />
  <rect
   class="fil20"
   x="3.08894"
   y="5.93891"
   width="7.93452"
   height="1.04061"
   id="rect4020" />
  <path
   class="fil17"
   d="M18.6144 9.2087l0.399121 0.191907c-0.0841896,0.338459 -0.0748352,0.590745 -0.270427,0.754589 -0.194175,0.163844 -0.442775,0.246049 -0.742966,0.246049 -0.371058,0 -0.676635,-0.141166 -0.915881,-0.421799 -0.238679,-0.281483 -0.358586,-0.66643 -0.358586,-1.15343 0,-0.51676 0.120757,-0.917015 0.36057,-1.20275 0.240663,-0.285168 0.556162,-0.428602 0.94848,-0.428602 0.341861,0 0.619658,0.112536 0.832825,0.336759 0.128127,0.132096 0.0742683,0.322302 0.138615,0.570902l-0.411027 0.148253c-0.0323152,-0.161009 -0.101198,-0.288002 -0.207214,-0.381263 -0.104883,-0.0932606 -0.232159,-0.139749 -0.38183,-0.139749 -0.207498,0 -0.375877,0.0824888 -0.504854,0.24775 -0.128694,0.164694 -0.193608,0.432003 -0.193608,0.801644 0,0.392318 0.0634966,0.671533 0.190773,0.837644 0.127277,0.166678 0.292254,0.249734 0.495783,0.249734 0.150521,0 0.278931,-0.0530083 0.387783,-0.158741 0.108001,-0.105733 0.185387,-0.272695 0.232443,-0.498902zm1.68946 -1.10637l0 0.473673 -0.366523 0 0 0.905393c0,0.181986 0.00396854,0.290837 0.0104883,0.320317 0.0068032,0.0300475 0.0232443,0.055843 0.0479059,0.0748352 0.0238112,0.0192757 0.0549926,0.0300475 0.089859,0.0300475 0.0504571,0 0.122174,-0.0198427 0.216852,-0.0572603l0.0450712 0.460634c-0.124725,0.0589611 -0.265892,0.0890086 -0.423499,0.0890086 -0.0966622,0 -0.184253,-0.0189923 -0.261073,-0.0535752 -0.0768195,-0.0354333 -0.135214,-0.0839062 -0.17093,-0.140316 -0.0360003,-0.055843 -0.0617958,-0.134647 -0.0756856,-0.231592 -0.00992134,-0.0674651 -0.0164411,-0.208632 -0.0164411,-0.41868l0 -0.978811 -0.246616 0 0 -0.473673 0.246616 0 0 -0.446744 0.537453 -0.346113 0 0.792857 0.366523 0zm0.8847 2.24591l-0.536319 0 0 -2.24591 0.497768 0 0 0.319467c0.0847566,-0.151371 0.16186,-0.250585 0.229892,-0.298207 0.0683155,-0.0479059 0.145135,-0.0720006 0.231309,-0.0720006 0.122741,0 0.240096,0.0374176 0.353483,0.112253l-0.166395 0.517327c-0.0895755,-0.06378 -0.173765,-0.0963787 -0.251152,-0.0963787 -0.0756856,0 -0.139182,0.0229608 -0.191057,0.068599 -0.051591,0.0447878 -0.0932606,0.129261 -0.123308,0.248317 -0.0289136,0.119056 -0.0442208,0.372475 -0.0442208,0.752888l0 0.693643zm1.00659 -0.0300475l0 -3.10056 0.655375 0 0 3.10056 -0.655375 0z"
   id="path4022" />
  <path
   class="fil21"
   d="M15.2372 4.59188l6.64786 0c0.404224,0 0.734746,0.332223 0.734746,0.734746l0 6.24477c0,0.402523 -0.332223,0.734746 -0.734746,0.734746l-6.64786 0c-0.402523,0 -0.734746,-0.330522 -0.734746,-0.734746l0 -6.24477c0,-0.404224 0.330522,-0.734746 0.734746,-0.734746z"
   id="path4024" />
  <path
   class="fil17"
   d="M15.2372 3.90022l6.64786 0c0.367373,0 0.701297,0.150237 0.942811,0.391751 0.241514,0.241514 0.391751,0.576005 0.391751,0.942811l0 6.33662c0,0.365105 -0.150804,0.698462 -0.392035,0.940259l0 0.00226773c-0.24123,0.24123 -0.575438,0.392035 -0.942527,0.392035l-6.64786 0c-0.366806,0 -0.518177,-0.150237 -0.759691,-0.391751 -0.241514,-0.241514 -0.391751,-0.575438 -0.391751,-0.942811l0 -6.33662c0,-0.367373 0.149954,-0.70158 0.391468,-0.943094l0.00226773 0c0.241514,-0.240947 0.391751,-0.391468 0.757707,-0.391468zm6.8616 1.01595l-6.8616 0c-0.0374176,0 -0.0714336,0.0150237 -0.0960952,0.038835l0.00113387 0.00113387c-0.0243781,0.0243781 -0.0399688,0.0583942 -0.0399688,0.0949614l0 6.70399c0,0.0362838 0.0158741,0.0702998 0.0402523,0.0946779 0.0243781,0.0243781 0.0586776,0.0402523 0.0946779,0.0402523l6.8616 0c0.0357168,0 0.0697328,-0.0158741 0.0943944,-0.0405358l0.00113387 0.00113387c0.0240947,-0.0246616 0.0394019,-0.0586776 0.0394019,-0.0955283l0 -6.70399c0,-0.0360003 -0.0158741,-0.0702998 -0.0402523,-0.0946779 -0.0243781,-0.0243781 -0.0583942,-0.0402523 -0.0946779,-0.0402523z"
   id="path4026" />
  <polygon
   class="fil22"
   points="16.1502,5.93891 21.2161,5.93891 21.2161,10.8982 16.1502,10.8982 "
   id="polygon4028" />
  <polygon
   class="fil20"
   points="16.1502,5.93891 21.2161,5.93891 21.2161,6.97952 16.1502,6.97952 "
   id="polygon4030" />
  <path
   class="fil11"
   d="M12.777 22.2048c-0.211466,0.251435 -0.527532,0.411594 -0.878464,0.408476l-9.22826 -0.08504c-0.195592,-0.0017008 -0.380129,-0.051591 -0.541705,-0.139182l1.3357 -1.64808c1.77989,-0.363121 7.78343,-0.0303309 7.78343,-0.0303309l1.5293 1.49415z"
   id="path4032" />
  <path
   class="fil12"
   d="M9.9786 19.5742l-0.969173 -0.385231 0.089859 -0.104599 -1.10155 -0.612855 3.40444 -1.95535 0.254837 -0.19786 1.37283 -1.16335c-0.13493,-0.234994 -0.50939,-0.588194 -0.767628,-0.682588l-1.03352 1.42981 -3.96712 2.15973 -4.01474 -2.21217 -1.12026 -1.38077c-0.258805,0.0946779 -0.736163,0.469138 -0.871093,0.704415l1.70477 0.968606 0.068599 0.374176 3.70803 1.82439 -1.40458 0.743817 -0.0609454 0.0436539 -0.533768 -0.0932606 -1.14095 0.612855c0.216002,0.439374 0.427184,0.0513075 0.591028,0.669832l0.799943 -1.20162 0.768762 0.642619 1.78244 -1.02388 1.58911 0.781801 -0.198143 -0.428602 0.759408 0.853235c-0.674084,0.443626 -0.0504571,-0.0561264 0.28942,-0.366806z"
   id="path4034" />
  <path
   class="fil13"
   d="M12.9746 21.6228l-1.15456 -0.972008 -2.81057 -1.46212 0.089859 -0.104316 -1.10155 -0.612855 2.31196 -1.32776 -1.31415 0 -1.73368 0.918149 -1.65063 -0.918149 -1.30707 0 2.43243 1.19651 -1.40458 0.7441 -0.0606619 0.0436539 -2.53731 1.74531 -1.27475 0.84218c0.215718,0.439657 0.426901,0.051591 0.590745,0.670116l0.991283 -1.22117 2.71476 -1.406 1.78272 -1.0236 1.58883 0.781518 2.30147 1.50521 0.83566 1.35185c-0.674368,0.443626 0.370491,-0.43994 0.709801,-0.75062z"
   id="path4036" />
  <path
   class="fil14"
   d="M3.52633 15.9853l7.2885 -0.017008c0.480193,0.0051024 0.872794,0.440791 0.872794,0.96889l-0.000566934 3.76954c0,0.528099 -0.394302,0.974842 -0.872794,0.969173l-7.25023 -0.0688824c-0.473956,-0.00453547 -0.868542,-0.435688 -0.873078,-0.968323l-0.0379846 -3.6845c-0.00481894,-0.533201 0.392885,-0.974275 0.873361,-0.96889z"
   id="path4038" />
  <path
   class="fil15"
   d="M11.3285 16.2421c0.165828,0.176883 0.269293,0.423783 0.269293,0.695061l-0.000566934 3.76954c0,0.213734 -0.0649139,0.415562 -0.174332,0.578556l0.000566934 -3.96683c0,-0.20438 -0.0260789,-0.358302 -0.0878747,-0.446744 -0.0527248,-0.0748352 -0.132379,-0.0328821 -0.286868,-0.0334491l-0.00113387 0 -7.63518 -0.00453547 -0.0017008 0c-0.158458,-0.00141733 -0.259656,0.0314648 -0.309829,0.0980795l0 0.0008504c-0.0589611,0.0779534 -0.102898,0.179434 -0.102898,0.381263l0.0379846 4.0034 0.0017008 0.0873078c-0.207498,-0.176883 -0.344412,-0.454114 -0.346963,-0.765927l-0.0377011 -3.79052c-0.000566934,-0.108851 0.0147403,-0.214301 0.0447878,-0.312664l0.0008504 -0.000566934c0.150521,-0.199844 0.37616,-0.299341 0.69421,-0.29679l0.0017008 0 7.63546 -0.0374176 0.00113387 0c0.109985,0.0008504 0.209198,0.0150237 0.297357,0.0413862z"
   id="path4040" />
  <path
   class="fil16"
   d="M3.37325 15.9495l0.0017008 0 7.76359 0.004252 0.00141733 0c0.323152,0.0025512 0.548792,0.111686 0.697612,0.311247 0.138899,0.185954 0.195592,0.527532 0.195592,0.832542l-0.0192757 3.65474c0,0.308128 -0.0592446,0.553327 -0.201545,0.731911 -0.150237,0.188505 -0.374743,0.284601 -0.693076,0.281766l-0.00311813 0 -7.68564 0.0555595 0 0.00113387c-0.321451,0 -0.547658,-0.108851 -0.697895,-0.310113 -0.138615,-0.185954 -0.19786,-0.437673 -0.19786,-0.745234l-0.0572603 -3.7137c0,-0.311813 0.0589611,-0.646588 0.201545,-0.824321 0.150521,-0.188505 0.376444,-0.282333 0.69421,-0.279782zm7.52718 0.789172l-0.00113387 0 -7.34746 -0.0345829 -0.00198427 0c-0.158174,-0.00113387 -0.259372,0.029764 -0.309546,0.0926936l0 0.000566934c-0.0589611,0.0734179 -0.0833392,0.209482 -0.0833392,0.399688l0.0277797 3.57026c0,0.194458 0.0272128,0.339593 0.0904259,0.424066 0.0521579,0.0691659 0.150237,0.107434 0.304443,0.107434l0 0.00141733 7.27177 -0.025512 0.00311813 0c0.157608,0.00198427 0.256821,-0.0306144 0.307278,-0.0938275 0.0583942,-0.0734179 0.0833392,-0.209198 0.0833392,-0.398271l0.0490398 -3.51159c0,-0.192757 -0.0260789,-0.337892 -0.0881582,-0.421232 -0.0527248,-0.0702998 -0.151371,-0.110552 -0.305577,-0.111119z"
   id="path4042" />
  <path
   class="fil17"
   d="M5.55311 19.3106l0.399121 0.191907c-0.0841896,0.338459 -0.0748352,0.590745 -0.270427,0.754589 -0.194175,0.163844 -0.442775,0.246049 -0.742966,0.246049 -0.371058,0 -0.676635,-0.141166 -0.915881,-0.421799 -0.238679,-0.281483 -0.358586,-0.66643 -0.358586,-1.15343 0,-0.51676 0.120757,-0.917015 0.36057,-1.20275 0.240663,-0.285168 0.556162,-0.428602 0.94848,-0.428602 0.341861,0 0.619658,0.112536 0.832825,0.336759 0.128127,0.132096 0.0742683,0.322302 0.138615,0.570902l-0.411027 0.148253c-0.0323152,-0.161009 -0.101198,-0.288002 -0.207214,-0.381263 -0.104883,-0.0932606 -0.232159,-0.139749 -0.38183,-0.139749 -0.207498,0 -0.375877,0.0824888 -0.504854,0.24775 -0.128694,0.164694 -0.193608,0.432003 -0.193608,0.801644 0,0.392318 0.0634966,0.671533 0.190773,0.837644 0.127277,0.166678 0.292254,0.249734 0.495783,0.249734 0.150521,0 0.278931,-0.0530083 0.387783,-0.158741 0.108001,-0.105733 0.185387,-0.272695 0.232443,-0.498902zm1.68946 -1.10637l0 0.473673 -0.366523 0 0 0.905393c0,0.181986 0.00396854,0.290837 0.0104883,0.320317 0.0068032,0.0300475 0.0232443,0.055843 0.0479059,0.0748352 0.0238112,0.0192757 0.0549926,0.0300475 0.089859,0.0300475 0.0504571,0 0.122174,-0.0198427 0.216852,-0.0572603l0.0450712 0.460634c-0.124725,0.0589611 -0.265892,0.0890086 -0.423499,0.0890086 -0.0966622,0 -0.184253,-0.0189923 -0.261073,-0.0535752 -0.0768195,-0.0354333 -0.135214,-0.0839062 -0.17093,-0.140316 -0.0360003,-0.055843 -0.0617958,-0.134647 -0.0756856,-0.231592 -0.00992134,-0.0674651 -0.0164411,-0.208632 -0.0164411,-0.41868l0 -0.978811 -0.246616 0 0 -0.473673 0.246616 0 0 -0.446744 0.537453 -0.346113 0 0.792857 0.366523 0zm0.8847 2.24591l-0.536319 0 0 -2.24591 0.497768 0 0 0.319467c0.0847566,-0.151371 0.16186,-0.250585 0.229892,-0.298207 0.0683155,-0.0479059 0.145135,-0.0720006 0.231309,-0.0720006 0.122741,0 0.240096,0.0374176 0.353483,0.112253l-0.166395 0.517327c-0.0895755,-0.06378 -0.173765,-0.0963787 -0.251152,-0.0963787 -0.0756856,0 -0.139182,0.0229608 -0.191057,0.068599 -0.051591,0.0447878 -0.0932606,0.129261 -0.123308,0.248317 -0.0289136,0.119056 -0.0442208,0.372475 -0.0442208,0.752888l0 0.693643zm1.00659 -0.0300475l0 -3.10056 0.655375 0 0 3.10056 -0.655375 0z"
   id="path4044" />
  <path
   class="fil23"
   d="M2.17589 14.6938l12.5071 0c0.404224,0 0.734746,0.332223 0.734746,0.734746l0 6.24477c0,0.402523 -0.332223,0.734746 -0.734746,0.734746l-12.5071 0c-0.402523,0 -0.734746,-0.330522 -0.734746,-0.734746l0 -6.24477c0,-0.404224 0.330522,-0.734746 0.734746,-0.734746z"
   id="path4046" />
  <path
   class="fil24"
   d="M2.17589 14.0021l12.5071 0c0.367373,0 0.701297,0.150237 0.942811,0.391751 0.241514,0.241514 0.391751,0.576005 0.391751,0.942811l0 6.33662c0,0.365105 -0.150804,0.698462 -0.392035,0.940259l0 0.00226773c-0.24123,0.24123 -0.575438,0.392035 -0.942527,0.392035l-12.5071 0c-0.366806,0 -0.518177,-0.150237 -0.759691,-0.391751 -0.241514,-0.241514 -0.391751,-0.575438 -0.391751,-0.942811l0 -6.33662c0,-0.367373 0.149954,-0.70158 0.391468,-0.943094l0.00226773 0c0.241514,-0.240947 0.391751,-0.391468 0.757707,-0.391468zm12.7209 1.01595l-12.7209 0c-0.0374176,0 -0.0714336,0.0150237 -0.0960952,0.038835l0.00113387 0.00113387c-0.0243781,0.0243781 -0.0399688,0.0583942 -0.0399688,0.0949614l0 6.70399c0,0.0362838 0.0158741,0.0702998 0.0402523,0.0946779 0.0243781,0.0243781 0.0586776,0.0402523 0.0946779,0.0402523l12.7209 0c0.0357168,0 0.0697328,-0.0158741 0.0943944,-0.0405358l0.00113387 0.00113387c0.0240947,-0.0246616 0.0394019,-0.0586776 0.0394019,-0.0955283l0 -6.70399c0,-0.0360003 -0.0158741,-0.0702998 -0.0402523,-0.0946779 -0.0243781,-0.0243781 -0.0583942,-0.0402523 -0.0946779,-0.0402523z"
   id="path4048" />
  <polygon
   class="fil25"
   points="3.08894,16.0408 14.014,16.0408 14.014,21.0001 3.08894,21.0001 "
   id="polygon4050" />
  <polygon
   class="fil20"
   points="3.08894,15.9184 14.014,15.9184 14.014,16.9899 3.08894,16.9899 "
   id="polygon4052" />
  <path
   class="fil17"
   d="M19.1573 8.86854l0.556445 0.175749c-0.085607,0.310396 -0.227057,0.540855 -0.425767,0.691659 -0.19786,0.150237 -0.449862,0.22564 -0.754872,0.22564 -0.377011,0 -0.687407,-0.129261 -0.930622,-0.386649 -0.242364,-0.257955 -0.364255,-0.610871 -0.364255,-1.05733 0,-0.47339 0.122458,-0.840479 0.366239,-1.1024 0.244632,-0.261073 0.564949,-0.392602 0.963787,-0.392602 0.34753,0 0.62958,0.103182 0.846432,0.308412 0.129828,0.121324 0.226207,0.295656 0.291687,0.52328l-0.568351 0.136064c-0.0331656,-0.147403 -0.103182,-0.263908 -0.210899,-0.349515 -0.1063,-0.085607 -0.235844,-0.127844 -0.387783,-0.127844 -0.210899,0 -0.38183,0.0754022 -0.513358,0.226773 -0.130678,0.151088 -0.196442,0.396003 -0.196442,0.734746 0,0.359719 0.0646304,0.61569 0.193891,0.767628 0.129261,0.153072 0.29679,0.229041 0.503721,0.229041 0.152789,0 0.283467,-0.0484728 0.394019,-0.145418 0.109702,-0.0969456 0.188505,-0.249734 0.236128,-0.457232z"
   id="path4054" />
  <path
   class="fil17"
   d="M5.67642 8.86826l0.471972 0.188789c-0.0994968,0.333073 -0.0887251,0.580823 -0.319751,0.741833 -0.229608,0.161009 -0.523563,0.242081 -0.878747,0.242081 -0.438807,0 -0.799943,-0.138615 -1.08284,-0.414712 -0.282333,-0.276664 -0.424066,-0.655375 -0.424066,-1.13415 0,-0.507973 0.142584,-0.901708 0.426334,-1.18262 0.284317,-0.280349 0.65736,-0.421232 1.12139,-0.421232 0.404507,0 0.732762,0.110552 0.985047,0.330806 0.151371,0.130111 0.0878747,0.317199 0.163844,0.561264l-0.485862 0.145985c-0.038268,-0.158174 -0.119906,-0.283183 -0.245199,-0.375027 -0.123875,-0.0915598 -0.274396,-0.137198 -0.451563,-0.137198 -0.245199,0 -0.444192,0.080788 -0.596981,0.243498 -0.152222,0.16186 -0.229041,0.424917 -0.229041,0.788038 0,0.385798 0.0754022,0.660478 0.225923,0.823755 0.150237,0.163844 0.345546,0.245482 0.586209,0.245482 0.177734,0 0.329672,-0.0518744 0.458366,-0.155907 0.127844,-0.104032 0.219403,-0.26816 0.274963,-0.490681zm1.99787 -1.08795l0 0.466019 -0.433421 0 0 0.890086c0,0.179151 0.00453547,0.286018 0.0124725,0.314932 0.00793707,0.029764 0.0274963,0.0549926 0.0564099,0.0737014 0.0280632,0.0187088 0.0649139,0.029764 0.106584,0.029764 0.059528,0 0.144285,-0.0195592 0.256254,-0.0564099l0.0532918 0.45298c-0.147403,0.0578272 -0.314365,0.0873078 -0.500886,0.0873078 -0.114237,0 -0.217703,-0.0187088 -0.308695,-0.0527248 -0.0909928,-0.0345829 -0.159875,-0.0822054 -0.202112,-0.138048 -0.04252,-0.0547091 -0.072851,-0.132096 -0.089292,-0.22734 -0.0119056,-0.0666147 -0.0198427,-0.20523 -0.0198427,-0.411877l0 -0.96237 -0.291404 0 0 -0.466019 0.291404 0 0 -0.43909 0.635816 -0.340444 0 0.779534 0.433421 0zm1.04599 2.20849l-0.633832 0 0 -2.20849 0.588477 0 0 0.314365c0.100347,-0.14882 0.19134,-0.246333 0.271845,-0.293388 0.080788,-0.0470555 0.171781,-0.0708667 0.273545,-0.0708667 0.145135,0 0.28375,0.0368507 0.41783,0.110552l-0.196726 0.508823c-0.105733,-0.0629296 -0.20523,-0.0946779 -0.297073,-0.0946779 -0.089292,0 -0.164411,0.0223939 -0.22564,0.0671816 -0.0612288,0.0439374 -0.110552,0.126993 -0.145702,0.244065 -0.0345829,0.117072 -0.0527248,0.366239 -0.0527248,0.740415l0 0.682021z"
   id="path4056" />
  <path
   class="fil26"
   d="M3.69726 18.9971l0.5315 -0.0518744c0.0320317,0.178584 0.0966622,0.309262 0.194458,0.393735 0.0980795,0.0827723 0.229608,0.125009 0.395436,0.125009 0.176316,0 0.309262,-0.0374176 0.397704,-0.112253 0.089292,-0.0742683 0.13408,-0.161009 0.13408,-0.260789 0,-0.064347 -0.0192757,-0.117922 -0.0566934,-0.163277 -0.0374176,-0.0447878 -0.102898,-0.0836227 -0.196159,-0.116505 -0.06378,-0.0229608 -0.209482,-0.0620792 -0.437389,-0.118773 -0.292538,-0.0725675 -0.498335,-0.16186 -0.615406,-0.267876 -0.166678,-0.148253 -0.249451,-0.329955 -0.249451,-0.543406 0,-0.138048 0.038835,-0.266459 0.117072,-0.386649 0.0779534,-0.119623 0.19049,-0.211183 0.337042,-0.274112 0.147686,-0.0623627 0.324569,-0.094111 0.532634,-0.094111 0.339593,0 0.594713,0.0739848 0.766778,0.223088 0.171497,0.149104 0.261356,0.34753 0.270144,0.596131l-0.545957 0.0240947c-0.0229608,-0.139466 -0.0734179,-0.239246 -0.150521,-0.299624 -0.076536,-0.0615123 -0.19219,-0.0918432 -0.346113,-0.0918432 -0.158458,0 -0.2829,0.0325987 -0.372192,0.0980795 -0.0581107,0.0413862 -0.0870243,0.0972291 -0.0870243,0.167529 0,0.064347 0.0272128,0.118773 0.081355,0.164127 0.068599,0.0581107 0.236128,0.118773 0.501453,0.180852 0.266175,0.0629296 0.462334,0.12756 0.589894,0.194458 0.12671,0.0677486 0.22649,0.158741 0.298774,0.274963 0.0720006,0.116505 0.107717,0.260789 0.107717,0.431436 0,0.154489 -0.043087,0.300475 -0.128977,0.435122 -0.0861739,0.134647 -0.208065,0.235844 -0.365105,0.301325 -0.157891,0.0660478 -0.35405,0.0989299 -0.589044,0.0989299 -0.342144,0 -0.604351,-0.0790872 -0.787754,-0.236695 -0.183403,-0.157891 -0.292538,-0.38835 -0.328255,-0.691092zm3.31259 -1.82468l0 0.993835c0.167529,-0.195309 0.346113,-0.293105 0.577989,-0.293105 0.119623,0 0.227907,0.0229608 0.323719,0.0668982 0.0955283,0.043087 0.168946,0.101198 0.216002,0.168946 0.0479059,0.068599 0.141166,0.145985 0.158741,0.229608 0.0181419,0.0827723 0.0269293,0.215151 0.0269293,0.388916l0 1.14946 -0.577138 0 0 -1.0355c0,-0.204946 -0.0102048,-0.336475 -0.0294805,-0.390617 -0.0189923,-0.055843 -0.055843,-0.0986464 -0.104316,-0.131529 -0.0501736,-0.0325987 -0.112536,-0.0493232 -0.187372,-0.0493232 -0.0861739,0 -0.163277,0.0215435 -0.230459,0.0629296 -0.0668982,0.0408192 -0.0963787,0.106017 -0.12671,0.189072 -0.0303309,0.0844731 -0.0479059,0.210332 -0.0479059,0.373042l0 0.981929 -0.539437 0 0 -2.70456 0.539437 0zm1.63419 0.479909l0 -0.479909 0.561264 0 0 0.479909 -0.561264 0zm0 2.22465l0 -1.95932 0.561264 0 0 1.95932 -0.561264 0zm0.962937 -1.95932l0.287719 0 0 -0.147403c0,-0.164978 0.0192757,-0.288569 0.0535752,-0.369074 0.0342995,-0.0796542 0.100347,-0.148253 0.192757,-0.198427 0.094111,-0.0501736 0.213734,-0.076536 0.357168,-0.076536 0.147403,0 0.620225,0.0221104 0.761108,0.0660478l-0.397704 0.361987c-0.0819219,-0.0201261 -0.161009,-0.0294805 -0.237545,-0.0294805 -0.076536,0 -0.129828,0.0181419 -0.16186,0.0524414 -0.0317483,0.0334491 -0.0484728,0.10545 -0.0484728,0.202679l0 0.137765 0.387499 0 0 0.407342 -0.387499 0 0 1.55198 -0.519028 0 0 -1.55198 -0.287719 0 0 -0.407342zm2.62575 0l0 0.413578 -0.35405 0 0 0.789172c0,0.157891 0.00481894,0.25427 0.0104883,0.279782 0.00566934,0.0249451 0.0223939,0.0496067 0.0453547,0.0654808 0.0223939,0.0158741 0.0544256,0.0263624 0.0884416,0.0263624 0.0479059,0 0.118206,-0.0175749 0.208065,-0.0501736l0.0447878 0.401672c-0.121324,0.0518744 -0.256821,0.0773864 -0.41046,0.0773864 -0.0926936,0 -0.177734,-0.0161576 -0.251152,-0.0462051 -0.0742683,-0.0303309 -0.130678,-0.0742683 -0.164978,-0.122174 -0.0351499,-0.0493232 -0.0598115,-0.117922 -0.0742683,-0.202395 -0.00878747,-0.0598115 -0.0158741,-0.181702 -0.0158741,-0.365105l0 -0.853802 -0.566083 0 0 -0.413578 0.566083 0 -0.327688 -0.389767 0.847282 -0.302176 0 0.691942 0.35405 0z"
   id="path4058" />
 </g>
</svg>