<?xml version="1.0" encoding="UTF-8" standalone="no"?>
<!-- Created with Inkscape (http://www.inkscape.org/) -->

<svg
   xmlns:dc="http://purl.org/dc/elements/1.1/"
   xmlns:cc="http://creativecommons.org/ns#"
   xmlns:rdf="http://www.w3.org/1999/02/22-rdf-syntax-ns#"
   xmlns:svg="http://www.w3.org/2000/svg"
   xmlns="http://www.w3.org/2000/svg"
   xmlns:sodipodi="http://sodipodi.sourceforge.net/DTD/sodipodi-0.dtd"
   xmlns:inkscape="http://www.inkscape.org/namespaces/inkscape"
   width="24"
   height="24"
   id="svg2"
   version="1.1"
   inkscape:version="0.48.3.1 r9886"
   sodipodi:docname="24.svg">
  <defs
     id="defs4">
    <linearGradient
       gradientTransform="matrix(0,-1,1,0,7.901,17.25)"
       y2="0"
       x2="2.25"
       y1="0"
       x1="0"
       gradientUnits="userSpaceOnUse"
       id="LinearGradient_1-82">
      <stop
         id="stop12091"
         stop-color="#fdce74"
         offset="0" />
      <stop
         id="stop12093"
         stop-color="#c18d43"
         offset="1" />
    </linearGradient>
    <linearGradient
       gradientTransform="matrix(0,-1,1,0,7.173,17.863)"
       y2="0"
       x2="14.455"
       y1="0"
       x1="0"
       gradientUnits="userSpaceOnUse"
       id="LinearGradient-4">
      <stop
         id="stop12086"
         stop-color="#a8752d"
         offset="0" />
      <stop
         id="stop12088"
         stop-color="#845426"
         offset="1" />
    </linearGradient>
  </defs>
  <sodipodi:namedview
     id="base"
     pagecolor="#ffffff"
     bordercolor="#666666"
     borderopacity="1.0"
     inkscape:pageopacity="0.0"
     inkscape:pageshadow="2"
     inkscape:zoom="13.575419"
     inkscape:cx="12.466695"
     inkscape:cy="11.655853"
     inkscape:document-units="px"
     inkscape:current-layer="layer1"
     showgrid="false"
     inkscape:window-width="807"
     inkscape:window-height="555"
     inkscape:window-x="510"
     inkscape:window-y="298"
     inkscape:window-maximized="0" />
  <metadata
     id="metadata7">
    <rdf:RDF>
      <cc:Work
         rdf:about="">
        <dc:format>image/svg+xml</dc:format>
        <dc:type
           rdf:resource="http://purl.org/dc/dcmitype/StillImage" />
        <dc:title />
      </cc:Work>
    </rdf:RDF>
  </metadata>
  <g
     inkscape:label="Layer 1"
     inkscape:groupmode="layer"
     id="layer1"
     transform="translate(0,-1028.3622)">
    <g
       style="fill-rule:evenodd;stroke-width:0.50099999;stroke-linejoin:bevel;overflow:visible"
       id="g12183"
       transform="matrix(1.3332593,0,0,1.3335027,0,1028.3595)">
      <g
         transform="scale(1,-1)"
         font-size="16"
         id="Document"
         style="font-size:16px;fill:none;stroke:#000000;font-family:Times New Roman">
        <g
           transform="translate(0,-18)"
           id="Spread">
          <g
             id="MouseOff">
            <g
               id="Group"
               style="stroke:none">
              <path
                 id="path12099"
                 stroke-miterlimit="79.8403193612775"
                 d="m 0.001,3 0,-10e-4 C 0.001,2.586 0.426,2.25 0.948,2.25 l 16.105,0 C 17.575,2.25 18,2.586 18,2.999 L 18,3 c 0,0.413 -0.425,0.749 -0.947,0.749 l -16.105,0 C 0.426,3.749 0.001,3.413 0.001,3 z"
                 inkscape:connector-curvature="0"
                 style="fill:#000000;fill-opacity:0.364706;stroke-width:0.14;marker-start:none;marker-end:none" />
              <path
                 style="fill:url(#LinearGradient-4);stroke-width:0.061;marker-start:none;marker-end:none"
                 id="path12101"
                 stroke-miterlimit="79.8403193612775"
                 d="M 0,17.051 0,3.948 C 0,3.426 0.425,3.001 0.947,3.001 l 16.107,0 c 0.522,0 0.947,0.425 0.947,0.947 l 0,13.103 c 0,0.522 -0.425,0.947 -0.947,0.947 l -16.107,0 C 0.425,17.998 0,17.573 0,17.051 z"
                 inkscape:connector-curvature="0" />
              <path
                 style="fill:url(#LinearGradient_1-82);stroke-width:0.061;marker-start:none;marker-end:none"
                 id="path12103"
                 stroke-miterlimit="79.8403193612775"
                 d="m 0.752,16.665 0,-12.329 C 0.752,4.013 1.015,3.75 1.338,3.75 l 15.327,0 c 0.323,0 0.586,0.263 0.586,0.586 l 0,12.329 c 0,0.323 -0.263,0.586 -0.586,0.586 l -15.327,0 c -0.323,0 -0.586,-0.263 -0.586,-0.586 z"
                 inkscape:connector-curvature="0" />
              <path
                 id="path12105"
                 stroke-miterlimit="79.8403193612775"
                 d="m 1.503,16.142 0,-11.285 C 1.503,4.66 1.663,4.5 1.86,4.5 l 14.283,0 c 0.197,0 0.357,0.16 0.357,0.357 l 0,11.285 c 0,0.197 -0.16,0.357 -0.357,0.357 l -14.283,0 c -0.197,0 -0.357,-0.16 -0.357,-0.357 z"
                 inkscape:connector-curvature="0"
                 style="fill:#1d1d1d;stroke-width:0.061;marker-start:none;marker-end:none" />
              <path
                 id="path12107"
                 stroke-miterlimit="79.8403193612775"
                 d="m 2.251,15.395 0,-9.789 c 0,-0.195 0.16,-0.355 0.355,-0.355 l 12.791,0 c 0.195,0 0.355,0.16 0.355,0.355 l 0,9.789 c 0,0.195 -0.16,0.355 -0.355,0.355 l -12.791,0 c -0.195,0 -0.355,-0.16 -0.355,-0.355 z"
                 inkscape:connector-curvature="0"
                 style="fill:#3c3d41;stroke-width:0.061;marker-start:none;marker-end:none" />
              <path
                 id="path12109"
                 stroke-miterlimit="79.8403193612775"
                 d="m 15.001,5.272 0,1.457 c 0,0.426 -0.202,0.771 -0.45,0.771 l -3.268,0 C 11.081,7.5 10.723,7.261 10.435,7.008 10.232,6.829 9.819,6.44 9.757,6.013 l -0.006,-0.036 0,-0.705 C 9.751,4.848 9.953,4.5 10.201,4.5 l 4.35,0 c 0.248,0 0.45,0.348 0.45,0.772 z"
                 inkscape:connector-curvature="0"
                 style="fill:#060606;stroke-width:0.061;marker-start:none;marker-end:none" />
              <path
                 id="path12111"
                 stroke-miterlimit="79.8403193612775"
                 d="m 14.251,5.544 0,0.912 c 0,0.162 -0.094,0.294 -0.211,0.294 l -2.501,0 c -0.235,0 -0.985,-0.5 -1.037,-0.788 L 10.501,5.544 c 0,-0.162 0.095,-0.294 0.211,-0.294 l 3.328,0 c 0.117,0 0.211,0.132 0.211,0.294 z"
                 inkscape:connector-curvature="0"
                 style="fill:#e5e5e5;stroke-width:0.061;marker-start:none;marker-end:none" />
              <path
                 id="path12113"
                 d="M 7.631,8.259 C 7.606,8.301 7.642,8.345 7.651,8.382 7.681,8.383 7.692,8.401 7.708,8.409 7.7,8.423 7.719,8.433 7.745,8.437 7.751,8.437 7.753,8.433 7.758,8.431 7.76,8.418 7.736,8.41 7.731,8.403 7.75,8.393 7.758,8.367 7.799,8.363 7.802,8.353 7.766,8.341 7.803,8.338 7.775,8.321 7.738,8.307 7.753,8.283 7.745,8.274 7.733,8.265 7.717,8.259 7.672,8.282 7.675,8.231 7.631,8.259 z M 12.7,8.365 12.901,8.361 C 12.835,8.347 12.763,8.365 12.7,8.365 z m -0.36,0.006 -0.14,0.002 0,0.004 0.14,-0.006 z m 0.024,0 0.03,0.002 0.131,-0.002 -0.161,0 z m -0.293,0.008 c 0.01,0 0.02,-0.002 0.031,-0.002 l 0.032,0 C 12.118,8.367 12.085,8.375 12.071,8.379 z M 11.989,8.377 c -0.065,0 -0.135,0.012 -0.201,0 -0.018,0.002 -0.036,0.005 -0.053,0.006 0.092,0.006 0.208,0 0.308,-0.004 C 12.025,8.377 12.007,8.377 11.989,8.377 z m -6.608,0 C 5.313,8.401 5.401,8.437 5.34,8.46 5.335,8.487 5.386,8.499 5.416,8.511 5.478,8.503 5.56,8.512 5.591,8.476 L 5.633,8.467 C 5.617,8.451 5.517,8.463 5.543,8.429 5.556,8.409 5.597,8.425 5.62,8.413 5.591,8.393 5.523,8.401 5.488,8.379 5.456,8.375 5.416,8.377 5.381,8.377 z m -0.31,0.024 c -0.032,0 -0.059,0.042 -0.072,0.008 -0.021,0 -0.024,0.01 -0.021,0.02 0.03,0 0.047,0.018 0.076,0.022 0.042,0 0.084,-0.008 0.129,-0.008 C 5.188,8.444 5.192,8.444 5.196,8.444 5.192,8.444 5.188,8.443 5.183,8.443 5.138,8.44 5.098,8.421 5.08,8.401 c -0.003,0 -0.006,0 -0.009,0 z m 0.912,0.09 C 5.974,8.532 6.038,8.559 6.069,8.591 6.071,8.576 6.036,8.551 6.082,8.543 6.157,8.543 6.221,8.524 6.296,8.531 6.476,8.507 6.673,8.504 6.86,8.491 6.866,8.479 6.891,8.487 6.903,8.48 l 0,-0.001 C 6.718,8.475 6.502,8.487 6.301,8.488 6.232,8.464 6.148,8.487 6.069,8.487 6.035,8.476 6.052,8.455 6.041,8.443 6.005,8.452 6.002,8.475 5.983,8.491 z M 7.618,8.455 c 0.007,0.005 0.033,0 0.046,0 C 7.69,8.46 7.731,8.451 7.753,8.463 7.764,8.464 7.77,8.459 7.78,8.459 7.729,8.447 7.675,8.451 7.618,8.455 z m 0.181,0 0.018,0.004 0.047,-0.004 -0.065,0 z m -0.382,0.005 0,-0.001 -0.015,0 C 7.406,8.46 7.41,8.46 7.417,8.46 z m -0.437,0.008 0.05,0 c -0.011,-0.009 -0.033,0 -0.05,0 z M 8.102,8.512 C 7.967,8.515 7.834,8.48 7.703,8.508 7.651,8.504 7.587,8.495 7.537,8.508 7.487,8.495 7.441,8.524 7.384,8.511 7.133,8.507 6.886,8.519 6.634,8.527 L 6.615,8.535 C 6.497,8.54 6.379,8.547 6.266,8.56 6.407,8.555 6.545,8.544 6.687,8.539 L 6.706,8.543 C 7.216,8.519 7.756,8.519 8.276,8.535 8.617,8.54 8.944,8.503 9.28,8.512 L 9.484,8.508 C 9.37,8.504 9.223,8.507 9.092,8.507 L 9.079,8.499 C 8.771,8.504 8.456,8.508 8.149,8.511 8.132,8.507 8.146,8.503 8.149,8.499 8.129,8.495 8.118,8.507 8.102,8.512 z m -2.2,0.023 c 0.01,0.02 0.034,10e-4 0.062,0.004 0.004,0 0.007,0 0.01,10e-4 C 5.971,8.539 5.968,8.539 5.964,8.539 5.944,8.535 5.921,8.527 5.902,8.535 z m -1.213,0.02 0,0.032 C 4.715,8.583 4.691,8.568 4.697,8.559 L 4.689,8.555 z M 5.87,8.567 C 5.855,8.572 5.833,8.576 5.825,8.587 5.839,8.607 5.914,8.591 5.947,8.611 6.005,8.612 6.067,8.615 6.122,8.623 6.091,8.632 6.052,8.619 6.019,8.627 5.794,8.635 5.525,8.655 5.344,8.587 l -0.039,0 C 5.344,8.619 5.233,8.616 5.263,8.644 5.309,8.667 5.39,8.648 5.434,8.671 5.57,8.659 5.705,8.695 5.825,8.664 5.983,8.652 6.133,8.635 6.293,8.628 6.67,8.628 7.058,8.599 7.429,8.62 7.474,8.635 7.54,8.627 7.587,8.639 7.537,8.66 7.459,8.635 7.402,8.652 7.338,8.639 7.259,8.648 7.193,8.652 7.079,8.655 6.958,8.644 6.85,8.66 6.739,8.64 6.634,8.675 6.517,8.663 6.43,8.671 6.358,8.676 6.271,8.683 6.166,8.691 6.038,8.703 5.947,8.672 5.923,8.672 5.911,8.68 5.917,8.695 5.984,8.688 6.065,8.699 6.139,8.703 6.305,8.703 6.451,8.691 6.598,8.687 L 6.626,8.679 C 6.8,8.675 6.983,8.667 7.151,8.671 7.351,8.655 7.576,8.66 7.78,8.659 L 7.792,8.66 c 0.228,-10e-4 0.477,0.019 0.701,0 L 8.905,8.659 C 8.959,8.648 9.044,8.655 9.101,8.651 9.171,8.648 9.26,8.652 9.329,8.644 9.287,8.628 9.232,8.648 9.177,8.643 8.767,8.651 8.318,8.66 7.91,8.643 L 7.928,8.635 8.378,8.628 C 8.231,8.628 8.105,8.623 7.974,8.624 7.828,8.619 7.705,8.624 7.559,8.62 7.284,8.575 6.93,8.591 6.64,8.599 6.424,8.607 6.199,8.616 5.983,8.599 5.963,8.58 5.919,8.559 5.87,8.567 z m 2.562,0.02 C 8.354,8.591 8.264,8.595 8.188,8.591 c 0.078,0.021 0.177,0 0.262,0.004 L 8.432,8.587 z m 0.601,0.029 -0.022,0.003 0.018,0 0.004,-0.003 z m -0.367,0.007 0.07,0 c -0.022,0 -0.046,-0.011 -0.07,0 z M 8.783,8.62 8.791,8.623 8.845,8.62 8.783,8.62 z M 8.395,8.628 8.454,8.627 C 8.452,8.62 8.415,8.628 8.395,8.628 z M 5.071,8.631 C 5.069,8.648 5.105,8.644 5.126,8.652 5.147,8.659 5.164,8.648 5.182,8.647 5.191,8.651 5.201,8.651 5.21,8.652 5.2,8.647 5.191,8.647 5.182,8.647 5.148,8.639 5.114,8.623 5.071,8.631 z M 4.958,8.712 C 4.964,8.735 5.002,8.711 5.021,8.719 5.012,8.711 5.008,8.704 4.991,8.704 4.975,8.703 4.958,8.704 4.958,8.712 z m 1.941,0.007 0.018,0 c 0.007,-0.007 -0.014,-0.003 -0.018,0 z m 3.014,0.001 -0.024,0 C 9.841,8.711 9.802,8.727 9.752,8.716 9.745,8.72 9.733,8.716 9.725,8.72 c 0.029,0.007 0.089,0.008 0.131,0 l 0.033,0 c 0.004,0 0.007,0 0.011,0.003 C 9.904,8.72 9.909,8.72 9.913,8.72 l 0.294,0.003 0,0 C 10.117,8.719 10.007,8.711 9.913,8.72 z M 6.487,8.728 c 0.036,0.015 0.085,0 0.124,0.007 C 6.667,8.724 6.731,8.72 6.788,8.72 6.694,8.711 6.587,8.723 6.487,8.728 z M 9.554,8.719 C 9.016,8.719 8.497,8.752 7.955,8.736 7.481,8.719 6.991,8.739 6.512,8.744 6.476,8.736 6.434,8.751 6.41,8.731 6.34,8.728 6.268,8.739 6.194,8.739 6.16,8.731 6.133,8.755 6.096,8.743 L 6.088,8.747 C 5.969,8.751 5.866,8.723 5.748,8.739 5.701,8.74 5.665,8.711 5.615,8.731 5.589,8.731 5.56,8.719 5.539,8.731 5.591,8.743 5.54,8.76 5.521,8.775 5.51,8.779 5.498,8.779 5.484,8.779 5.478,8.768 5.458,8.771 5.445,8.776 5.401,8.799 5.453,8.819 5.471,8.841 5.509,8.857 5.548,8.88 5.597,8.877 5.715,8.891 5.833,8.888 5.956,8.899 6.119,8.883 6.293,8.888 6.449,8.895 6.443,8.895 6.438,8.889 6.431,8.887 6.445,8.871 6.489,8.875 6.517,8.871 6.545,8.883 6.576,8.853 6.602,8.872 6.641,8.857 6.697,8.875 6.733,8.867 6.788,8.875 6.823,8.851 6.872,8.859 6.891,8.863 6.91,8.855 6.93,8.853 6.955,8.835 7.008,8.848 7.043,8.841 7.133,8.759 7.31,8.859 7.421,8.799 7.478,8.811 7.553,8.803 7.614,8.811 7.769,8.813 7.895,8.839 8.05,8.825 l 0.324,0 C 8.533,8.819 8.697,8.819 8.849,8.803 L 8.836,8.796 8.689,8.803 C 8.684,8.796 8.675,8.792 8.678,8.787 8.699,8.776 8.731,8.795 8.736,8.783 8.638,8.771 8.564,8.791 8.467,8.783 8.45,8.795 8.435,8.78 8.413,8.783 c -0.015,0 -0.029,0 -0.044,0 0.006,0 0.011,0.001 0.013,0.005 L 8.351,8.803 C 8.077,8.816 7.797,8.795 7.523,8.788 7.478,8.76 7.371,8.799 7.331,8.756 7.396,8.727 7.481,8.751 7.565,8.747 7.792,8.74 8.002,8.771 8.224,8.756 8.284,8.755 8.362,8.751 8.421,8.755 8.843,8.739 9.299,8.731 9.683,8.723 L 9.661,8.719 c -0.036,0 -0.072,0 -0.107,0 z m 2.585,0.004 c -0.003,0 -0.006,0 -0.009,0 0.003,0 0.006,0 0.009,0 0.017,0 0.031,0.008 0.048,0 -0.012,-0.007 -0.031,-0.003 -0.048,0 z m -0.334,0 c 0,0 0,0 0,0 0,0 0,0 0,0 0.003,0 0.02,0.008 0.033,0.005 0.001,-10e-4 -0.022,-0.009 -0.033,-0.005 z m -1.577,0 c 0.021,0.004 0.034,-0.003 0.05,0.008 L 10.282,8.728 C 10.273,8.72 10.243,8.723 10.228,8.723 z m 0.458,0.013 c 0.1,-0.008 0.227,-0.001 0.332,-0.005 -0.224,-0.008 -0.463,0 -0.709,-0.008 0.114,0.012 0.255,0 0.377,0.013 z m 0.823,-0.008 0.01,0.003 0.021,0 -0.031,-0.003 z m 0.094,0.003 0.009,0 0.03,0 -0.039,0 z m -0.548,0 c 0.007,0.004 0.04,0.008 0.064,0.005 C 11.115,8.731 11.074,8.727 11.055,8.731 z m 0.144,0 0.007,10e-4 c 0.022,0.003 0.044,0.007 0.065,0.003 L 11.206,8.732 c -0.002,0 -0.005,-10e-4 -0.007,-10e-4 z m 2.908,0.009 c -0.014,0 -0.028,0.003 -0.042,0.003 L 14.107,8.74 c 0,0 0,0 0,0 0.046,0 0.091,0.007 0.135,0 0.003,0 0.007,-10e-4 0.009,-10e-4 -0.003,0 -0.006,0 -0.009,10e-4 -0.029,0 -0.096,-0.016 -0.135,0 z m -0.144,0 -0.009,0.004 0.089,-10e-4 C 14.01,8.739 13.993,8.74 13.963,8.74 z m -0.086,0.007 0.017,0 c -0.006,0 -0.023,-0.008 -0.017,0 z m -0.175,0 -0.011,0.008 c 0.031,0.004 0.062,-0.016 0.081,0 l 0.029,-0.008 -0.099,0 z M 4.828,8.891 C 4.853,8.903 4.88,8.895 4.91,8.895 4.912,8.883 4.92,8.877 4.936,8.871 4.87,8.843 4.84,8.799 4.82,8.756 4.753,8.791 4.789,8.851 4.828,8.891 z m 8.56,-0.135 -0.051,0.003 c 0.01,0.012 0.03,0 0.051,10e-4 l 0,-0.004 z m -0.292,0.003 c 0,0 0,0 0,0 0,0 -10e-4,0 -10e-4,0 -0.007,10e-4 -0.013,10e-4 -0.017,0.005 0.006,0 0.01,-0.004 0.017,-0.005 0,0 10e-4,0 10e-4,0 0.015,0.008 0.049,0.008 0.075,0.004 -0.024,0 -0.054,-0.007 -0.075,-0.004 z m -3.132,10e-4 0.021,0.003 0.02,-0.003 -0.041,0 z m 0.054,0 0.022,0.004 0.012,-0.004 -0.034,0 z m -0.165,0.004 0.034,0 c -0.004,-0.009 -0.028,0 -0.034,0 z M 12.96,8.763 c 0.006,0.004 0.017,0.009 0.026,0.005 0.002,-0.004 -0.007,-0.005 -0.013,-0.005 l -0.013,0 z m -1.127,0.009 0.017,0 0,-0.008 c -0.004,-10e-4 -0.023,0 -0.017,0.008 z M 9.716,8.764 9.691,8.772 l 0.012,0 0.013,-0.008 z m 2.291,0 0,0.007 0.064,-0.003 -0.064,-0.004 z M 11.905,8.772 C 11.916,8.771 11.929,8.775 11.935,8.771 11.929,8.76 11.91,8.768 11.905,8.772 z m -0.858,0 0.059,0 C 11.09,8.764 11.06,8.764 11.047,8.772 z M 9.229,8.768 C 9.193,8.768 9.157,8.783 9.118,8.771 9.064,8.78 8.992,8.771 8.939,8.783 8.936,8.78 8.933,8.78 8.929,8.779 l -0.012,0 -0.003,0.004 C 8.947,8.791 9.007,8.779 9.058,8.779 L 9.097,8.775 C 9.143,8.792 9.177,8.771 9.227,8.776 9.238,8.767 9.254,8.779 9.271,8.775 9.259,8.771 9.246,8.768 9.233,8.768 c -0.001,0 -0.002,0 -0.004,0 z m 3.119,0 -0.047,0.003 c 0.016,0.004 0.03,0 0.047,-0.003 z m 0.463,0 -0.012,0.004 0.012,-10e-4 0,-0.003 z m -1.873,0.003 0,0.004 0.019,-0.003 c 0,-0.004 -0.013,-10e-4 -0.019,-10e-4 z M 4.972,8.796 5.038,8.787 C 5.032,8.78 5.003,8.768 4.978,8.771 4.969,8.779 4.953,8.791 4.972,8.796 z M 9.581,8.771 9.398,8.772 C 9.457,8.783 9.517,8.775 9.581,8.771 z m 2.18,0 -0.017,10e-4 0.012,0 0.005,-10e-4 z m 0.327,0 0.005,10e-4 0.033,-10e-4 -0.038,0 z m -2.779,0.005 -0.01,0 C 9.317,8.783 9.334,8.775 9.352,8.775 9.354,8.764 9.319,8.772 9.309,8.776 z m 2.011,-0.004 0.019,0.004 0.031,0 -0.05,-0.004 z M 7.811,8.783 8,8.783 c -0.057,0 -0.136,-0.015 -0.189,0 z M 7.6,8.776 7.583,8.783 7.6,8.779 7.6,8.776 z m 0.153,0.007 0.046,0 c -0.015,0 -0.037,-0.012 -0.046,0 z M 8.021,8.779 8.018,8.783 C 8.039,8.795 8.09,8.776 8.122,8.788 8.198,8.771 8.27,8.807 8.345,8.783 c 0,0 0.002,0 0.002,0 0,0 -10e-4,0 -0.002,0 0,0 0,0 0,0 C 8.236,8.784 8.13,8.775 8.021,8.779 z M 8.752,8.787 C 8.803,8.795 8.836,8.78 8.888,8.788 L 8.885,8.779 C 8.841,8.783 8.786,8.775 8.752,8.787 z M 8.659,8.788 C 8.603,8.795 8.546,8.803 8.481,8.799 8.528,8.787 8.598,8.788 8.659,8.788 z m -0.2,0.007 C 8.44,8.803 8.409,8.799 8.382,8.799 l 0,-0.004 0.077,0 z m -1.875,0.086 -0.049,0.002 0,0.004 0.049,-0.006 z M 5.038,8.915 c -0.017,0 -0.077,0.012 -0.111,0 0.018,0.024 0.075,0.008 0.111,0 z M 5.53,8.98 5.521,8.985 C 5.556,8.987 5.593,8.999 5.629,9 L 5.633,8.999 C 5.6,8.983 5.576,8.983 5.53,8.98 z"
                 inkscape:connector-curvature="0"
                 style="fill:#c0c0c0;marker-start:none;marker-end:none" />
              <path
                 id="path12115"
                 stroke-miterlimit="79.8403193612775"
                 d="m 1.5,4.281 0,-0.313 c 0,-0.12 0.099,-0.219 0.219,-0.219 l 14.563,0 c 0.12,0 0.219,0.099 0.219,0.219 l 0,0.313 c 0,0.12 -0.099,0.219 -0.219,0.219 L 1.719,4.5 C 1.599,4.5 1.5,4.401 1.5,4.281 z"
                 inkscape:connector-curvature="0"
                 style="fill:#ddab5a;stroke-width:0.061;marker-start:none;marker-end:none" />
              <g
                 stroke-miterlimit="79.8403193612775"
                 id="Group_1"
                 style="fill:#d3d3d3;fill-rule:nonzero">
                <g
                   id="Group_2">
                  <path
                     id="path12119"
                     d="m 4.42,10.175 0.844,0 0,-0.425 -1.515,0 0,0.438 c 0.334,0.291 0.572,0.525 0.713,0.701 0.141,0.175 0.211,0.322 0.211,0.44 0,0.091 -0.027,0.163 -0.082,0.218 -0.055,0.054 -0.129,0.081 -0.222,0.081 -0.079,0 -0.164,-0.014 -0.255,-0.041 C 4.024,11.56 3.926,11.519 3.819,11.464 l -0.015,0.467 c 0.117,0.047 0.233,0.082 0.351,0.106 0.117,0.023 0.235,0.035 0.354,0.035 0.215,0 0.39,-0.063 0.524,-0.188 0.135,-0.126 0.202,-0.288 0.202,-0.486 0,-0.171 -0.065,-0.355 -0.196,-0.552 C 4.909,10.65 4.702,10.426 4.42,10.175 z"
                     inkscape:connector-curvature="0"
                     style="marker-start:none;marker-end:none" />
                  <path
                     id="path12121"
                     d="m 6.542,11.7 0.355,0 0,-0.789 0.717,0 0,-0.369 -0.717,0 0,-0.792 -0.355,0 0,0.792 -0.717,0 0,0.369 0.717,0 0,0.789 z"
                     inkscape:connector-curvature="0"
                     style="marker-start:none;marker-end:none" />
                  <path
                     id="path12123"
                     d="m 8.844,10.175 0.844,0 0,-0.425 -1.515,0 0,0.438 c 0.334,0.291 0.572,0.525 0.713,0.701 0.141,0.175 0.211,0.322 0.211,0.44 0,0.091 -0.027,0.163 -0.082,0.218 -0.055,0.054 -0.129,0.081 -0.222,0.081 -0.079,0 -0.164,-0.014 -0.255,-0.041 C 8.448,11.56 8.35,11.519 8.243,11.464 l -0.015,0.467 c 0.117,0.047 0.233,0.082 0.351,0.106 0.117,0.023 0.235,0.035 0.354,0.035 0.215,0 0.39,-0.063 0.524,-0.188 0.135,-0.126 0.202,-0.288 0.202,-0.486 0,-0.171 -0.065,-0.355 -0.196,-0.552 -0.13,-0.196 -0.337,-0.42 -0.619,-0.671 z"
                     inkscape:connector-curvature="0"
                     style="marker-start:none;marker-end:none" />
                  <path
                     id="path12125"
                     d="m 10.249,10.552 1.786,0 0,-0.368 -1.786,0 0,0.368 z m 0,0.715 1.786,0 0,-0.369 -1.786,0 0,0.369 z"
                     inkscape:connector-curvature="0"
                     style="marker-start:none;marker-end:none" />
                  <path
                     id="path12127"
                     d="m 13.474,11.591 -0.594,-0.995 0.565,0 0.029,0.995 z m -0.139,0.428 0.626,0 0,-1.423 0.288,0 0,-0.408 -0.288,0 0,-0.438 -0.516,0 0,0.438 -0.949,0 0,0.501 0.839,1.33 z"
                     inkscape:connector-curvature="0"
                     style="marker-start:none;marker-end:none" />
                </g>
              </g>
            </g>
          </g>
        </g>
      </g>
    </g>
  </g>
</svg>
