<?xml version="1.0" encoding="UTF-8" standalone="no"?>
<!-- Creator: CorelDRAW -->

<svg
   xmlns:dc="http://purl.org/dc/elements/1.1/"
   xmlns:cc="http://creativecommons.org/ns#"
   xmlns:rdf="http://www.w3.org/1999/02/22-rdf-syntax-ns#"
   xmlns:svg="http://www.w3.org/2000/svg"
   xmlns="http://www.w3.org/2000/svg"
   xmlns:xlink="http://www.w3.org/1999/xlink"
   xmlns:sodipodi="http://sodipodi.sourceforge.net/DTD/sodipodi-0.dtd"
   xmlns:inkscape="http://www.inkscape.org/namespaces/inkscape"
   xml:space="preserve"
   width="24px"
   height="24px"
   style="shape-rendering:geometricPrecision; text-rendering:geometricPrecision; image-rendering:optimizeQuality; fill-rule:evenodd; clip-rule:evenodd"
   viewBox="0 0 24 24"
   id="svg2"
   version="1.1"
   inkscape:version="0.48.1 r9760"
   sodipodi:docname="kolourpaint.svg"><metadata
   id="metadata254"><rdf:RDF><cc:Work
       rdf:about=""><dc:format>image/svg+xml</dc:format><dc:type
         rdf:resource="http://purl.org/dc/dcmitype/StillImage" /><dc:title></dc:title></cc:Work></rdf:RDF></metadata><sodipodi:namedview
   pagecolor="#ffffff"
   bordercolor="#666666"
   borderopacity="1"
   objecttolerance="10"
   gridtolerance="10"
   guidetolerance="10"
   inkscape:pageopacity="0"
   inkscape:pageshadow="2"
   inkscape:window-width="640"
   inkscape:window-height="480"
   id="namedview252"
   showgrid="false"
   inkscape:zoom="12.583333"
   inkscape:cx="12"
   inkscape:cy="12"
   inkscape:window-x="0"
   inkscape:window-y="24"
   inkscape:window-maximized="0"
   inkscape:current-layer="svg2" />
 <defs
   id="defs4">
  <style
   type="text/css"
   id="style6">
   
    .fil56 {fill:#666666}
    .fil57 {fill:#6E6E6E}
    .fil58 {fill:#787878}
    .fil59 {fill:#7F7F7F}
    .fil60 {fill:#878787}
    .fil61 {fill:#8F8F8F}
    .fil55 {fill:#999999}
    .fil26 {fill:white}
    .fil31 {fill:#75B7EF}
    .fil46 {fill:#AD732B}
    .fil68 {fill:#F4E3CA}
    .fil41 {fill:#F9C418}
    .fil54 {fill:#4C4C4C;fill-rule:nonzero}
    .fil45 {fill:white;fill-rule:nonzero}
    .fil49 {fill:#6B401D;fill-rule:nonzero}
    .fil42 {fill:#BA7712;fill-rule:nonzero}
    .fil52 {fill:#D9D2C1;fill-rule:nonzero}
    .fil32 {fill:#FFD278;fill-rule:nonzero}
    .fil66 {fill:#404040;fill-rule:nonzero}
    .fil65 {fill:#616161;fill-rule:nonzero}
    .fil0 {fill:black;fill-opacity:0.000000}
    .fil34 {fill:#C4DEFF;fill-opacity:0.000000}
    .fil14 {fill:#EFC36A;fill-opacity:0.000000}
    .fil1 {fill:black;fill-opacity:0.003922}
    .fil2 {fill:black;fill-opacity:0.007843}
    .fil3 {fill:black;fill-opacity:0.015686}
    .fil4 {fill:black;fill-opacity:0.019608}
    .fil5 {fill:black;fill-opacity:0.023529}
    .fil6 {fill:black;fill-opacity:0.027451}
    .fil7 {fill:black;fill-opacity:0.031373}
    .fil35 {fill:#C4DEFF;fill-opacity:0.035294}
    .fil8 {fill:black;fill-opacity:0.035294}
    .fil9 {fill:black;fill-opacity:0.043137}
    .fil10 {fill:black;fill-opacity:0.047059}
    .fil15 {fill:#EFC36A;fill-opacity:0.047059}
    .fil11 {fill:black;fill-opacity:0.050980}
    .fil12 {fill:black;fill-opacity:0.054902}
    .fil13 {fill:black;fill-opacity:0.058824}
    .fil36 {fill:#C4DEFF;fill-opacity:0.074510}
    .fil16 {fill:#EFC36A;fill-opacity:0.098039}
    .fil37 {fill:#C4DEFF;fill-opacity:0.109804}
    .fil38 {fill:#C4DEFF;fill-opacity:0.145098}
    .fil17 {fill:#EFC36A;fill-opacity:0.145098}
    .fil39 {fill:#C4DEFF;fill-opacity:0.184314}
    .fil18 {fill:#EFC36A;fill-opacity:0.196078}
    .fil40 {fill:#C4DEFF;fill-opacity:0.219608}
    .fil19 {fill:#EFC36A;fill-opacity:0.243137}
    .fil20 {fill:#EFC36A;fill-opacity:0.294118}
    .fil30 {fill:#592A06;fill-opacity:0.321569}
    .fil21 {fill:#EFC36A;fill-opacity:0.341176}
    .fil22 {fill:#EFC36A;fill-opacity:0.392157}
    .fil23 {fill:#EFC36A;fill-opacity:0.439216}
    .fil47 {fill:#FCB156;fill-opacity:0.439216}
    .fil27 {fill:#B7DD5F;fill-opacity:0.721569}
    .fil67 {fill:#666666;fill-opacity:0.780392}
    .fil28 {fill:#B7DD5F;fill-opacity:0.780392}
    .fil43 {fill:#E08F17;fill-opacity:0.780392}
    .fil25 {fill:url(#id0)}
    .fil24 {fill:url(#id1)}
    .fil44 {fill:url(#id2)}
    .fil53 {fill:url(#id3)}
    .fil70 {fill:url(#id4)}
    .fil64 {fill:url(#id5)}
    .fil69 {fill:url(#id6)}
    .fil29 {fill:url(#id7)}
    .fil62 {fill:url(#id8)}
    .fil50 {fill:url(#id9)}
    .fil63 {fill:url(#id10)}
    .fil51 {fill:url(#id11)}
    .fil33 {fill:url(#id12);fill-rule:nonzero}
    .fil48 {fill:url(#id13)}
   
  </style>
  <linearGradient
   id="id0"
   gradientUnits="userSpaceOnUse"
   x1="10.4619"
   y1="4.00255"
   x2="10.4619"
   y2="21.0052">
   <stop
   offset="0"
   style="stop-color:#FFF7EB"
   id="stop9" />
   <stop
   offset="1"
   style="stop-color:#F2DFC4"
   id="stop11" />
  </linearGradient>
  <linearGradient
   id="id1"
   gradientUnits="userSpaceOnUse"
   x1="10.6042"
   y1="21.9673"
   x2="10.8647"
   y2="2.66657">
   <stop
   offset="0"
   style="stop-color:#A96B26"
   id="stop14" />
   <stop
   offset="1"
   style="stop-color:#C48231"
   id="stop16" />
  </linearGradient>
  <linearGradient
   id="id2"
   gradientUnits="userSpaceOnUse"
   x1="24.3129"
   y1="2.41089"
   x2="16.2653"
   y2="14.0189">
   <stop
   offset="0"
   style="stop-color:#FFF28C"
   id="stop19" />
   <stop
   offset="1"
   style="stop-color:#FFF28C"
   id="stop21" />
  </linearGradient>
  <linearGradient
   id="id3"
   gradientUnits="userSpaceOnUse"
   x1="18.0911"
   y1="12.3421"
   x2="15.5859"
   y2="14.9554">
   <stop
   offset="0"
   style="stop-color:#AD6009"
   id="stop24" />
   <stop
   offset="1"
   style="stop-color:#D98E35"
   id="stop26" />
  </linearGradient>
  <linearGradient
   id="id4"
   gradientUnits="userSpaceOnUse"
   x1="14.7598"
   y1="12.8161"
   x2="18.1243"
   y2="15.3755">
   <stop
   offset="0"
   style="stop-color:#333333"
   id="stop29" />
   <stop
   offset="0.0784314"
   style="stop-color:white"
   id="stop31" />
   <stop
   offset="0.541176"
   style="stop-color:white"
   id="stop33" />
   <stop
   offset="0.678431"
   style="stop-color:#191919"
   id="stop35" />
   <stop
   offset="0.858824"
   style="stop-color:#191919"
   id="stop37" />
   <stop
   offset="0.921569"
   style="stop-color:#999999"
   id="stop39" />
   <stop
   offset="1"
   style="stop-color:#999999"
   id="stop41" />
  </linearGradient>
  <linearGradient
   id="id5"
   gradientUnits="userSpaceOnUse"
   xlink:href="#id4"
   x1="12.7588"
   y1="18.0886"
   x2="14.1254"
   y2="19.1785">
  </linearGradient>
  <linearGradient
   id="id6"
   gradientUnits="userSpaceOnUse"
   xlink:href="#id4"
   x1="15.4878"
   y1="12.7523"
   x2="17.931"
   y2="14.6113">
  </linearGradient>
  <linearGradient
   id="id7"
   gradientUnits="userSpaceOnUse"
   x1="8.97172"
   y1="7.04784"
   x2="9.06555"
   y2="13.5044">
   <stop
   offset="0"
   style="stop-color:#93CCFA"
   id="stop46" />
   <stop
   offset="1"
   style="stop-color:#73B8F0"
   id="stop48" />
  </linearGradient>
  <linearGradient
   id="id8"
   gradientUnits="userSpaceOnUse"
   x1="16.2866"
   y1="16.7061"
   x2="15.8169"
   y2="17.1767">
   <stop
   offset="0"
   style="stop-color:#333333"
   id="stop51" />
   <stop
   offset="1"
   style="stop-color:#7F7F7F"
   id="stop53" />
  </linearGradient>
  <linearGradient
   id="id9"
   gradientUnits="userSpaceOnUse"
   x1="16.2001"
   y1="16.3671"
   x2="16.2137"
   y2="16.3308">
   <stop
   offset="0"
   style="stop-color:white"
   id="stop56" />
   <stop
   offset="1"
   style="stop-color:#999999"
   id="stop58" />
  </linearGradient>
  <linearGradient
   id="id10"
   gradientUnits="userSpaceOnUse"
   xlink:href="#id9"
   x1="15.4659"
   y1="17.1855"
   x2="15.4776"
   y2="17.1529">
  </linearGradient>
  <linearGradient
   id="id11"
   gradientUnits="userSpaceOnUse"
   xlink:href="#id9"
   x1="17.8516"
   y1="14.8211"
   x2="17.8621"
   y2="14.7904">
  </linearGradient>
  <linearGradient
   id="id12"
   gradientUnits="userSpaceOnUse"
   x1="10.6002"
   y1="3.08922"
   x2="10.6002"
   y2="21.9171">
   <stop
   offset="0"
   style="stop-color:#9C6313"
   id="stop63" />
   <stop
   offset="1"
   style="stop-color:#7D4A1D"
   id="stop65" />
  </linearGradient>
  <linearGradient
   id="id13"
   gradientUnits="userSpaceOnUse"
   x1="10.285"
   y1="21.4678"
   x2="11.6162"
   y2="22.3545">
   <stop
   offset="0"
   style="stop-color:#8F5522"
   id="stop68" />
   <stop
   offset="1"
   style="stop-color:#965E26"
   id="stop70" />
  </linearGradient>
 </defs>
 <g
   id="Слой_x0020_1">
  <metadata
   id="CorelCorpID_0Corel-Layer" />
  <g
   id="_89148104">
   <path
   id="_86731208"
   class="fil0"
   d="M10.3326 20.5017c7.04557,-0.293955 10.1966,0.324286 11.5663,1.18404l0 2.28191c-0.0634966,0.012756 -0.129828,0.0243781 -0.19871,0.0354333l-21.6274 0 0 -2.05117c1.33966,-0.633548 4.19276,-1.19736 10.2598,-1.45022z" />
   <g
   id="g76">
    <path
   id="_47300392"
   class="fil1"
   d="M10.3576 20.6786c7.05294,-0.283467 10.2093,0.371058 11.5414,1.24073l0 2.00808c-0.140033,0.0294805 -0.295089,0.0544256 -0.464319,0.0756856l-21.3618 0 0 -1.85274c1.30026,-0.642619 4.1389,-1.22486 10.2847,-1.47176z" />
    <path
   id="_86923288"
   class="fil2"
   d="M10.3825 20.8558c7.04046,-0.271561 10.2218,0.417263 11.5164,1.28949l0 1.74219c-0.223372,0.0501736 -0.490398,0.0875912 -0.797392,0.115654l-21.0287 0 0 -1.66083c1.26568,-0.648005 4.10318,-1.24725 10.3097,-1.4865z" />
    <path
   id="_120422384"
   class="fil3"
   d="M10.4075 21.033c7.00588,-0.257388 10.2374,0.4612 11.4915,1.32804l0 1.48707c-0.320317,0.076536 -0.745801,0.125292 -1.26029,0.155056l-6.13309 0c-0.573453,-0.00368507 -1.1625,-0.00453547 -1.76231,0l-12.618 0 -0.0524414 -0.0093544 0 -1.46864c1.2362,-0.648572 4.09099,-1.26256 10.3346,-1.49217z" />
    <path
   id="_89088544"
   class="fil4"
   d="M10.4324 21.2101c6.94862,-0.241514 10.2589,0.50287 11.4665,1.35611l0 1.243c-0.463752,0.119056 -1.19538,0.172915 -2.12232,0.193891l-2.77202 0c-1.75834,-0.0192757 -3.80129,-0.0513075 -5.91028,0l-10.6601 0c-0.130962,-0.0167245 -0.251719,-0.0348664 -0.36142,-0.0549926l0 -1.25094c1.20899,-0.64347 4.1063,-1.26965 10.3596,-1.48707z" />
    <path
   id="_89553792"
   class="fil5"
   d="M10.4571 21.387c6.86925,-0.223655 10.2935,0.540855 11.4419,1.37198l0 1.01169c-1.4471,0.402806 -6.13621,0.0858904 -11.1042,0.212317l-0.794557 0.0201261 -9.14464 0c-0.306428,-0.0266459 -0.568634,-0.0598115 -0.782652,-0.0997803l0 -1.04599c1.18206,-0.632414 4.15222,-1.26738 10.3842,-1.47034z" />
    <path
   id="_85175776"
   class="fil6"
   d="M10.4818 21.5645c6.77145,-0.203813 10.3505,0.576288 11.4172,1.37708l0 0.790872c-1.2997,0.401672 -6.06817,0.109135 -11.0949,0.222521 -0.753455,0.017008 -1.49812,0.0334491 -2.22408,0.0481894l-7.07278 0c-0.606335,-0.0308979 -1.09418,-0.077103 -1.43434,-0.142017l0 -0.855786c1.14974,-0.61569 4.23046,-1.25462 10.4089,-1.44086z" />
    <path
   id="_122792688"
   class="fil7"
   d="M10.5073 21.7419c6.65864,-0.182553 10.4412,0.608887 11.3917,1.37085l0 0.582524c-1.11799,0.397704 -5.98455,0.131245 -11.0844,0.231592 -1.63844,0.0323152 -3.24003,0.0617958 -4.69591,0.0762526l-3.09886 0c-1.35355,-0.0198427 -2.39359,-0.0739848 -2.94692,-0.182553l0 -0.679753c1.10524,-0.592729 4.33903,-1.23223 10.4344,-1.39891z" />
    <path
   id="_88222480"
   class="fil8"
   d="M10.5319 21.9194c6.55715,-0.159308 10.6073,0.644887 11.367,1.36121l0 0.375027c-0.862023,0.395153 -5.86351,0.156757 -11.0748,0.243215 -4.88583,0.081355 -9.48933,0.140033 -10.7513,-0.116788l0 -0.517894c1.03919,-0.563815 4.47622,-1.19991 10.4591,-1.34477z" />
    <path
   id="_88970536"
   class="fil9"
   d="M10.5566 22.0962c6.55659,-0.136348 10.9962,0.706683 11.3424,1.3717l0 0.130962c-0.377011,0.411877 -5.62653,0.198143 -11.0651,0.271561 -4.95557,0.0668982 -9.67245,0.110552 -10.761,-0.124442l0 -0.369641c0.93544,-0.529799 4.63553,-1.15881 10.4837,-1.28014z" />
    <path
   id="_85880816"
   class="fil10"
   d="M10.5815 22.2734c6.35221,-0.1063 11.2205,0.716604 11.2315,1.3065 0.0107717,0.374176 -5.40288,0.20523 -10.9693,0.262207 -5.05903,0.0521579 -9.92531,0.0802211 -10.7709,-0.129261l0 -0.230175c0.758274,-0.490964 4.79824,-1.11402 10.5087,-1.20927z" />
    <path
   id="_46480264"
   class="fil11"
   d="M10.6065 22.4506c5.88449,-0.0708667 11.0909,0.656793 11.0983,1.16193 0.00737014,0.267309 -5.37113,0.16356 -10.8511,0.201545 -5.26625,0.0368507 -10.3885,0.047339 -10.7808,-0.135781l0 -0.0805046c0.36879,-0.44646 4.8949,-1.07944 10.5336,-1.14719z" />
    <path
   id="_120537808"
   class="fil12"
   d="M10.6314 22.6277c5.41677,-0.0354333 10.9614,0.597265 10.9651,1.01708 0.00368507,0.161009 -5.33938,0.122174 -10.7332,0.140883 -5.39381,0.0192757 -10.7105,0.0110552 -10.7105,-0.117922 0,-0.391184 5.0613,-1.00461 10.4786,-1.04004z" />
   </g>
   <path
   id="_88105208"
   class="fil13"
   d="M10.6561 22.8052c4.94933,0 10.8321,0.537453 10.8321,0.872511 0,0.109135 -21.2308,0.104883 -21.2308,0.00311813 0,-0.334774 5.44908,-0.875629 10.3987,-0.875629z" />
  </g>
  <g
   id="_88371296">
   <path
   id="_120532040"
   class="fil14"
   d="M3.98809 3.21366l-0.000283467 0.0802211c0,1.73198 0.181702,3.13656 0.405358,3.13656 0.222238,0 0.402523,-1.38247 0.405358,-3.09574 -0.130678,-0.0776699 -0.274112,-0.12104 -0.422649,-0.12104l-0.387783 0z" />
   <g
   id="g93">
    <path
   id="_85622200"
   class="fil15"
   d="M4.01814 3.21366l-0.000283467 0.0802211c0,1.73198 0.168096,3.13656 0.37531,3.13656 0.20608,0 0.373609,-1.39211 0.375027,-3.11332 -0.122458,-0.0666147 -0.25512,-0.103465 -0.392318,-0.103465l-0.357735 0z" />
    <path
   id="_82352600"
   class="fil16"
   d="M4.04791 3.21366l0 0.0802211c0,1.73198 0.154489,3.13656 0.345263,3.13656 0.190206,0 0.344696,-1.40033 0.345263,-3.12862 -0.114237,-0.0569768 -0.236695,-0.0881582 -0.362554,-0.0881582l-0.327971 0z" />
    <path
   id="_82845064"
   class="fil17"
   d="M4.07795 3.21366l0 0.0802211c0,1.73198 0.141166,3.13656 0.315215,3.13656 0.173765,0 0.315215,-1.40458 0.315215,-3.13656l0 -0.00651974c-0.10545,-0.0476224 -0.217419,-0.0737014 -0.332507,-0.0737014l-0.297924 0z" />
    <path
   id="_84688576"
   class="fil18"
   d="M4.108 3.21366l-0.000283467 0.0802211c0,1.73198 0.127844,3.13656 0.285451,3.13656 0.157324,0 0.285168,-1.40458 0.285168,-3.13656l0 -0.0195592c-0.0966622,-0.0394019 -0.198143,-0.0606619 -0.302459,-0.0606619l-0.267876 0z" />
    <path
   id="_83576984"
   class="fil19"
   d="M4.13776 3.21366l0 0.0802211c0,1.73198 0.114521,3.13656 0.255404,3.13656 0.140883,0 0.25512,-1.40458 0.25512,-3.13656l-0.000283467 -0.0311813c-0.0875912,-0.0317483 -0.178868,-0.0490398 -0.272128,-0.0490398l-0.238112 0z" />
    <path
   id="_87925984"
   class="fil20"
   d="M4.16781 3.21366l0 0.0802211c0,1.73198 0.100914,3.13656 0.225356,3.13656 0.124158,0 0.225073,-1.40458 0.225073,-3.13656l0 -0.0413862c-0.0782368,-0.025512 -0.159592,-0.038835 -0.242364,-0.038835l-0.208065 0z" />
    <path
   id="_120577512"
   class="fil21"
   d="M4.19786 3.21366l0 0.0802211c0,1.73198 0.0875912,3.13656 0.195309,3.13656 0.107434,0 0.195025,-1.40458 0.195025,-3.13656l-0.000283467 -0.0504571c-0.0688824,-0.0192757 -0.139749,-0.029764 -0.212033,-0.029764l-0.178017 0z" />
    <path
   id="_82000728"
   class="fil22"
   d="M4.22791 3.21366l0 0.0802211c0,1.73198 0.0739848,3.13656 0.165261,3.13656 0.0909928,0 0.165261,-1.40458 0.165261,-3.13656l-0.000283467 -0.0583942c-0.059528,-0.0144568 -0.120473,-0.0218269 -0.182269,-0.0218269l-0.14797 0z" />
   </g>
   <path
   id="_47389792"
   class="fil23"
   d="M4.25824 3.21366l0 0.0802211c0,1.73198 0.0603784,3.13656 0.13493,3.13656 0.0745518,0 0.135214,-1.40458 0.135214,-3.13656l-0.000283467 -0.0649139c-0.0498902,-0.0102048 -0.100631,-0.0153072 -0.152222,-0.0153072l-0.117639 0z" />
  </g>
  <path
   class="fil24"
   d="M0.900574 5.57182l-0.0025512 -2.35476c0,-0.231592 0.0938275,-0.444192 0.2486,-0.609454 0.198143,-0.235561 0.498618,-0.385798 0.833392,-0.386365l17.4346 -0.0439374c0.593863,-0.0017008 1.11374,0.463185 1.1058,1.03806 -0.0107717,0.798809 0.0504571,1.60641 0.0504571,2.38367l0 15.7588c0,0.576005 -0.476508,1.05648 -1.05733,1.05648 -6.96421,0 -5.68011,0.0439374 -17.5582,0.0439374 -0.58054,0 -1.05733,-0.475374 -1.05733,-1.05648l0 -15.7588c0,-0.0238112 0.0008504,-0.0476224 0.0025512,-0.0711502z"
   id="path104" />
  <path
   class="fil25"
   d="M1.81447 4.84105c-0.0017008,-0.0280632 0.00623627,-0.0623627 0.0201261,-0.0997803 -0.00822054,0.0337325 -0.0150237,0.0660478 -0.0201261,0.0997803zm0.161576 0.113387l0.00283467 -0.00708667 -0.00283467 -0.0008504c0.00538587,-0.0924102 0.0249451,-0.180285 0.0566934,-0.261356 0.0385515,-0.098363 0.0966622,-0.188222 0.168946,-0.266459l0.0025512 -0.0034016c0.0932606,-0.11367 0.210049,-0.205797 0.343845,-0.269293 0.12841,-0.0606619 0.272695,-0.0949614 0.424066,-0.0949614l15.0558 -0.0484728 0.0581107 0.0017008c0.253136,0.0133229 0.489264,0.124158 0.660761,0.293672l0.000566934 0c0.164694,0.16271 0.271278,0.380979 0.278081,0.620225l0 0 0.0008504 0.0113387 0 0.0119056 -0.0017008 0.0535752 0 0.0017008 0 0.0280632 0 0.0280632 0 0.0274963c0,5.315 0.0870243,9.61519 0.0133229,14.9296 0,0.273545 -0.110269,0.522429 -0.286868,0.703848l0 0c-0.175749,0.179434 -0.41868,0.291971 -0.684289,0.291971l-15.1164 0c-0.266742,0 -0.50939,-0.111686 -0.685706,-0.291404 -0.1766,-0.180852 -0.285735,-0.430019 -0.285735,-0.704415 0.0668982,-5.35299 -0.0158741,-9.6733 -0.0034016,-15.0257l0.000566934 -0.029764z"
   id="path106" />
  <path
   class="fil26"
   d="M2.577 4.39799c-0.0008504,-0.0280632 0.00623627,-0.0623627 0.0204096,-0.098363 -0.00793707,0.0323152 -0.0150237,0.0649139 -0.0204096,0.098363zm0.16186 0.114237l0.00368507 -0.0076536 -0.00368507 -0.00113387c0.00453547,-0.0912763 0.0246616,-0.180285 0.0564099,-0.261356 0.0396854,-0.0972291 0.0966622,-0.188222 0.168946,-0.266175l0.0025512 -0.00368507c0.0932606,-0.113387 0.210332,-0.204946 0.343845,-0.26816 0.129544,-0.0609454 0.272979,-0.0958118 0.424066,-0.0958118l14.2572 -0.0487563 0.0572603 0.00198427c0.253136,0.0141733 0.488697,0.123875 0.661328,0.294805l0 0c0.164694,0.16271 0.271278,0.379846 0.278081,0.619091l0 0 0.0008504 0.0124725 0 0.0113387 -0.00198427 0.0527248 0 0.0025512 0 0.0274963 0 0.0280632 0 0.0280632c0,24.8649 -0.0119056,16.1562 -0.0119056,0.281766l0 -0.0280632 0 -0.0283467 0 -0.0283467 0 -0.00141733 0.00141733 -0.0530083 0 -0.0124725 0 -0.0110552 0 -0.00113387c-0.0076536,-0.238396 -0.113387,-0.456382 -0.278931,-0.619091l0 0c-0.172348,-0.169797 -0.408192,-0.280065 -0.661328,-0.293955l-0.0572603 -0.0017008 -14.257 0.0481894c-0.150521,0 -0.294805,0.0342995 -0.423216,0.0958118 -0.133796,0.0623627 -0.251719,0.155056 -0.344696,0.268727l-0.00283467 0.00311813c-0.0720006,0.0785203 -0.129261,0.168946 -0.167812,0.266742 -0.02126,0.0518744 -0.0362838,0.106584 -0.0459216,0.16271l0 -0.144568 0.0008504 -0.029764z"
   id="path108" />
  <g
   id="_84672048">
   <path
   id="_87452808"
   class="fil27"
   d="M15.8047 9.84962c0.720006,0.2126 1.41989,0.492665 2.08943,0.834243 0.357452,0.201261 0.704132,0.421799 0.995252,0.715754 0.15534,0.157324 0.29112,0.333924 0.395436,0.529799 0.134363,0.253986 0.212317,0.536036 0.21912,0.824321 0.00623627,0.309829 -0.0694494,0.615406 -0.217136,0.886684 -0.115938,0.209482 -0.271845,0.393452 -0.454681,0.546524 -0.250868,0.207498 -0.543689,0.35405 -0.8487,0.461484 -0.939409,0.324569 -1.98767,0.391184 -2.97442,0.380412 -1.04117,-0.0104883 -2.05769,0.172348 -3.06739,0.412444 0.961236,-0.004252 1.92162,0.0104883 2.87832,0.102615 0.337892,0.00878747 0.706966,0.212884 1.01084,0.345546 0.308979,0.13408 0.669265,0.266175 0.922684,0.499469l0.00737014 0.0068032c0.0314648,0.0289136 0.0612288,0.059528 0.0901424,0.0932606 0.0668982,0.0836227 0.117922,0.180285 0.149387,0.283183 0.0291971,0.0989299 0.0408192,0.202112 0.0334491,0.304727 -0.0119056,0.0308979 -0.0702998,0.28942 -0.108851,0.356885l-0.0490398 0.0762526 -0.0768195 0.0915598c-0.0530083,0.0541422 -0.113103,0.101481 -0.178017,0.1406 -0.103465,0.060095 -0.216285,0.098363 -0.331656,0.127277 -0.209198,0.0464886 -0.422932,0.0754022 -0.634966,0.103749 -0.652257,0.0708667 -1.30678,0.125292 -1.96102,0.172915 -1.23166,0.089859 -2.64985,0.311813 -3.87584,0.0462051 -0.117922,-0.0167245 -1.01311,-0.0189923 -1.04202,-0.182836 -0.0181419,-0.205797 0.939409,-0.24775 1.04202,-0.251435 1.2654,-0.0830558 2.52909,-0.186805 3.79108,-0.312097 0.640635,-0.06378 1.28155,-0.131245 1.92077,-0.212033 0.187655,-0.0272128 0.376727,-0.0547091 0.562115,-0.0952448 0.0479059,-0.0119056 0.098363,-0.0240947 0.1423,-0.0476224 0.0093544,-0.00566934 0.0184253,-0.0121891 0.0260789,-0.0195592l0.0008504 -0.00113387 0.0008504 -0.000566934c0.00113387,-0.00113387 0.0025512,-0.0025512 0.0034016,-0.00396854 0.0008504,-0.00141733 0.00226773,-0.00283467 0.0034016,-0.00396854l0.000566934 -0.00141733 0.0008504 -0.00113387c0.00113387,-0.00113387 0.00226773,-0.00311813 0.00283467,-0.00453547 0.00141733,-0.0025512 0.0034016,-0.00538587 0.004252,-0.00793707 0.00113387,-0.00283467 0.0025512,-0.00651974 0.00368507,-0.00992134 0.000566934,-0.0025512 0.00141733,-0.00566934 0.00198427,-0.008504 0.0017008,-0.0113387 0.0008504,-0.0223939 -0.00198427,-0.0334491 -0.00283467,-0.0093544 -0.0076536,-0.0184253 -0.0136064,-0.0260789 -0.00907094,-0.0110552 -0.0198427,-0.0175749 -0.0314648,-0.0249451 -0.151655,-0.166112 -0.483027,-0.254553 -0.684005,-0.341011 -0.233577,-0.100347 -0.523847,-0.271561 -0.782085,-0.288853 -1.94402,-0.18312 -3.90476,-0.0609454 -5.85416,-0.117072 -0.705265,0.152222 -1.41592,0.267309 -2.13819,0.298774 0.210332,-0.00963787 -0.579973,0.228474 -0.99015,0.324286l-0.0677486 0.0291971 -0.0841896 0.038835c-0.0102048,0.00453547 -0.0277797,0.0158741 -0.0391184,0.0172915l0.0960952 -0.0952448c0.0830558,-0.0938275 0.147686,-0.203246 0.19219,-0.320601 0.0547091,-0.146269 0.0785203,-0.302459 0.0702998,-0.457799l0.183686 -0.0793707 -0.194458 -0.0280632c-0.00453547,-0.0317483 -0.0104883,-0.0632131 -0.0178584,-0.0943944 -0.0464886,-0.19219 -0.140316,-0.370491 -0.277231,-0.513075 -0.0657643,-0.0674651 -0.140883,-0.12756 -0.223939,-0.172348 -0.0926936,-0.0464886 0.731911,0.0966622 0.947346,0.114237 0.982212,0.144285 1.97009,0.188789 2.96024,0.19786 1.88392,-0.419814 3.73836,-1.03976 5.67671,-1.0202 0.917865,0.0121891 1.90263,-0.046772 2.77486,-0.356601 0.237262,-0.0853235 0.468571,-0.197009 0.663312,-0.36057 0.123875,-0.104883 0.231309,-0.229892 0.309546,-0.373042 0.00538587,-0.00992134 0.0110552,-0.0201261 0.0161576,-0.0303309 0.08504,-0.168946 0.128694,-0.357168 0.124158,-0.546807 -0.00566934,-0.191907 -0.0592446,-0.378712 -0.14967,-0.546807 -0.077103,-0.142017 -0.178017,-0.269293 -0.292254,-0.38268 -0.238112,-0.23301 -0.524414,-0.411877 -0.815251,-0.568634 -1.51116,-0.717738 -3.19155,-1.12196 -4.86712,-0.996669 -1.351,0.117639 -5.75268,1.0681 -6.91574,-0.0989299 -2.38849,-2.41117 5.82581,-0.773014 6.91574,-0.774148 1.02615,-0.00481894 2.04748,0.159592 3.03196,0.448444zm-9.85019 6.18213c-0.0017008,-0.0360003 -0.00566934,-0.0720006 -0.0107717,-0.107434 -0.29764,-0.0442208 -0.660194,-0.103465 -0.810432,-0.137481l0.0167245 0.0161576c0.0501736,0.051024 0.0844731,0.117072 0.101765,0.186238 0.0198427,0.0822054 0.0158741,0.16923 -0.0130395,0.2486 -0.0133229,0.0365672 -0.0320317,0.0694494 -0.0549926,0.100347 -0.128694,0.196726 0.356318,-0.161009 0.450712,-0.197293 0.0955283,-0.017008 0.20523,-0.060095 0.320034,-0.109135zm11.0793 1.04514c-0.00141733,0.0195592 -0.00311813,0.038835 -0.0059528,0.0583942 0.008504,-0.0541422 0.00963787,-0.0688824 0.0059528,-0.0583942zm-0.0059528 0.0583942l-0.0008504 0.00623627 0.0008504 -0.00623627zm-11.8946 -1.34845c-0.0705832,-0.0161576 -0.0943944,-0.0263624 -0.0416696,-0.0274963 0.0147403,0.0051024 0.0291971,0.0158741 0.0416696,0.0274963z" />
  </g>
  <g
   id="_47748200">
   <path
   id="_86561376"
   class="fil28"
   d="M17.5976 11.1241c0.181135,0.117072 0.35405,0.2469 0.509106,0.394586 0.161293,0.153639 0.301892,0.326837 0.410176,0.518177 0.142867,0.25427 0.22564,0.536603 0.233293,0.825455 0.00651974,0.311813 -0.0737014,0.620792 -0.231025,0.893771 -0.122174,0.209198 -0.286018,0.392885 -0.478775,0.545674 -0.255404,0.200694 -0.55276,0.343278 -0.863723,0.447878 -0.754589,0.249734 -1.58089,0.337892 -2.38679,0.357168 0.153356,0.0569768 0.302459,0.121891 0.441925,0.17745 0.33279,0.131812 0.697328,0.262774 0.975126,0.489264l0.00453547 0.00368507 0.004252 0.00368507 0.0130395 0.0107717 0.00396854 0.0034016 0.0059528 0.0051024 0.0357168 0.0317483 -0.00198427 -0.00113387c0.0317483,0.0291971 0.0620792,0.060095 0.0918432,0.0932606 0.0969456,0.114237 0.170647,0.245199 0.216002,0.385798 0.0464886,0.147119 0.0623627,0.301325 0.0456382,0.454114 -0.0051024,-0.00566934 -0.0748352,0.279215 -0.13408,0.411594 -0.0368507,0.0501736 -0.153356,0.21997 -0.200694,0.266175 -0.0748352,0.072851 -0.159592,0.136064 -0.251435,0.188505 -0.129828,0.072851 -0.270711,0.122458 -0.416129,0.158174 -0.208065,0.0487563 -0.421515,0.0796542 -0.633548,0.109702 -0.616257,0.0788038 -1.23563,0.139749 -1.85444,0.195876 -0.775849,0.0705832 -1.56757,0.157041 -2.35674,0.194458l0.173198 0.04252c0.337325,0.0634966 4.00255,1.02388 4.03373,1.40798 -0.0445043,0.543122 -3.87471,-0.321735 -4.19673,-0.335058 -1.78754,-0.186805 -3.59096,-0.308979 -5.39012,-0.238679 -0.928354,0.0215435 -1.87372,-0.48246 -1.28099,-1.50436 0.089859,-0.266459 2.60931,-0.365956 2.77486,-0.369074 -0.151088,-0.0428035 -2.67508,-0.0626462 -2.81454,-0.133229 -0.701013,-0.363688 -1.04372,-1.14889 -0.754022,-1.87457 0.0759691,-0.186805 0.188505,-0.357168 0.329955,-0.504854 0.300475,-0.311813 0.701864,-0.506555 1.10552,-0.668982 -0.216002,0.034016 1.10127,-0.472539 1.7626,-0.480193 1.53412,-0.115654 2.99199,-0.588761 4.4697,-0.972858 -2.5753,-0.0360003 -7.23946,-0.237262 -7.15243,-2.08093 -0.0402523,-2.54808 6.44178,-0.848983 8.37503,-0.861739 1.69768,-0.0144568 3.38544,0.415562 4.90001,1.13387 0.164411,0.0864574 0.327121,0.175182 0.483027,0.275813zm-0.971724 5.63986l-0.00651974 0.0504571c0.0059528,-0.034016 0.00793707,-0.0493232 0.00651974,-0.0504571zm-0.13408 0.411594c-0.0068032,0.0147403 -0.0133229,0.0277797 -0.0192757,0.0379846 0.0360003,-0.0586776 0.0368507,-0.0623627 0.0192757,-0.0379846zm-12.3739 0.485295c0.0110552,-0.0192757 0.00793707,-0.0138899 -0.02126,0.029764l0.02126 -0.029764zm-0.02126 0.029764l-0.0076536 0.0113387 0.0076536 -0.0113387zm10.8024 -2.12487c0.0277797,-0.00793707 0.0549926,-0.017008 0.080788,-0.0274963 0.0008504,-0.000283467 0.00198427,-0.0008504 0.0025512,-0.00113387 -0.00963787,0 -0.0260789,0.00708667 -0.0348664,0.00992134l-0.0484728 0.0187088z" />
  </g>
  <path
   class="fil29"
   d="M5.78301 10.2808c-0.130395,-0.025512 -0.610871,-0.103749 -0.842747,0.0773864 -0.241514,0.189639 -0.996669,0.520445 -1.17667,0.814967 -0.02126,-0.012756 -0.043087,-0.0221104 -0.0651974,-0.0289136l0.0110552 0.273829c-0.125576,0.400255 -0.278081,0.848416 -0.237545,1.32266 0.0824888,0.959819 0.737297,1.45617 1.50209,1.423 0.0493232,-0.0025512 0.168663,-0.0320317 0.327404,-0.0822054 0.0068032,0.102898 -0.00141733,0.22649 -0.0549926,0.331656 -0.118206,0.229325 -0.270427,1.35469 -0.270427,1.35469 0,0 -0.57317,0.406775 -0.0674651,0.335908 0.505988,-0.0705832 0.826873,0.0351499 0.641202,-0.229892 -0.185387,-0.265325 -0.300191,-1.16902 -0.269577,-1.24924 0.0306144,-0.0805046 0.145418,-0.41698 0.187088,-0.597265 0.620792,-0.210049 1.5962,-0.597831 1.76657,-0.674368 0.0439374,-0.0198427 0.0890086,-0.060095 0.132946,-0.115088 0.176316,0.0975126 0.796825,0.445326 0.898023,0.521862 0.117922,0.0878747 0,0.334774 0.185104,0.441358 0.186238,0.10545 0.405074,-0.0708667 0.337892,-0.230175 -0.0671816,-0.158458 -0.185387,-0.229325 -0.286868,-0.2829 -0.100914,-0.0527248 -1.02898,-0.387783 -1.06272,-0.529799 -0.00141733,-0.00623627 -0.00141733,-0.0130395 -0.00141733,-0.0201261 0.0385515,-0.0623627 0.0754022,-0.132946 0.110552,-0.209198 0.0116221,-0.0198427 0.0206931,-0.0391184 0.0232443,-0.0555595 0.0246616,-0.0583942 0.0476224,-0.118206 0.0674651,-0.178301 0.0226773,0.00878747 0.0450712,0.017008 0.068032,0.0238112 0.597548,0.185387 0.94848,0.203246 1.23393,0.18397 0.147686,0.0439374 0.403657,0.144852 0.403657,0.308695 0,0.229325 -0.0164411,0.530083 -0.0164411,0.671533 0,0.1406 0.303309,0.406491 0.371342,0.0708667 0.0674651,-0.335625 -0.017008,-0.495216 -0.152222,-0.795691 -0.103749,-0.231309 -0.287719,-0.210616 -0.30501,-0.286301l0.116788 -0.0116221c0.404224,-0.0357168 0.437956,-0.1063 0.977394,-0.212317 0.539721,-0.104883 0.809581,-0.845581 1.41705,-0.986464 0.237545,-0.0547091 0.507122,-0.0232443 0.718021,0.0206931 0.19134,0.168096 0.185387,0.50939 0.462618,0.70725 0.277231,0.197576 0.842747,0.812699 1.19708,1.11289 0.35405,0.299908 0.341294,-0.60832 0.408476,-0.909078 0.0671816,-0.300758 -0.944795,-0.353767 -1.19765,-0.441641 -0.0975126,-0.034016 -0.341294,-0.204946 -0.603501,-0.402806 0.130962,0.0379846 0.150237,0.0481894 -0.0413862,-0.0513075 -0.0342995,-0.0178584 -0.0671816,-0.0365672 -0.0975126,-0.0535752 -0.117072,-0.0901424 -0.23386,-0.181419 -0.339026,-0.264475 -0.111969,-0.131812 -0.151655,-0.265608 -0.170364,-0.422082 -0.0334491,-0.282333 0.168946,-0.846432 0.438807,-1.44483 0.269577,-0.598682 -0.634966,-0.879031 -0.634966,-1.1951 0,-0.49635 0.68769,-1.03947 1.01169,-1.15825 0.286301,-0.1063 0.571186,-0.43172 0.841046,-0.60832 0.26986,-0.177167 -0.0164411,-0.477075 -0.337042,-0.477075 -0.320601,0 -0.590461,0.441358 -0.860038,0.812983 -0.26986,0.371342 -1.34987,0.458933 -1.34987,0.458933l-0.00963787 0.0283467c-0.267309,-0.051591 -0.440507,-0.166112 -0.694494,-0.319184 -0.0884416,-0.0824888 -0.12671,-0.115938 -0.305577,-0.199277 -0.114521,-0.060095 -0.210332,-0.110269 -0.297073,-0.150804 -0.172348,-0.125576 -0.104316,-0.632698 -0.0155907,-1.04344 0.216852,0.0527248 0.479626,-0.561548 0.479626,-0.814684 0,-0.25427 -0.196442,-0.469138 -0.438807,-0.469138 -0.242081,0 -0.43824,0.209482 -0.43824,0.469138 0,0.234427 0.00878747,0.574587 0.166678,0.71462 -0.029764,0.541422 -0.228758,0.813833 -0.437389,0.949897 -0.0479059,-0.0008504 -0.0986464,0.00141733 -0.153639,0.00623627 -0.405074,0.0351499 -1.38275,0.281483 -1.88902,0.563532 -0.505138,0.282049 -0.943944,0.634115 -1.4162,0.634115 -0.0496067,0 -0.0873078,0.00283467 -0.114521,0.008504 -0.393452,-0.173198 -0.256537,0.0754022 -0.369357,-0.117355 -0.185954,-0.3189 -0.135214,-0.671533 -0.505988,-0.547941 -0.371342,0.123592 -0.606619,0.406491 -0.337042,0.600666 0.26986,0.194175 0.64517,0.160159 0.943944,0.300758 0.299057,0.1406 0.0320317,-0.198427 0.300475,-0.046772 0.0975126,0.108284 0.235561,0.257388 0.251435,0.436539 0.0243781,0.286301 -0.0790872,1.37907 -0.135497,1.93126z"
   id="path114" />
  <path
   class="fil30"
   d="M14.2357 22.9231c2.97697,-3.33811 5.47544,-6.03387 6.79101,-9.79236l0.0328821 -0.604351 0 -1.6648 -0.0864574 -1.05195 -7.96797 12.2157 -0.559847 0.897739 1.79038 0z"
   id="path116" />
  <ellipse
   class="fil31"
   cx="4.91897"
   cy="13.0521"
   rx="0.285534"
   ry="0.277646"
   id="ellipse118" />
  <path
   class="fil32"
   d="M0.332507 4.75487c-0.055276,-0.919566 0.544823,-1.77932 1.55822,-1.77932l18.1577 0 0.025512 0 0.0034016 0.00198427c0.0598115,0.00113387 0.117922,0.00453547 0.174332,0.0104883l0.0178584 0.351215 0.0325987 0.00311813 0.0651974 1.279 -0.122458 -0.0068032 0 0.0017008 -0.025512 0 -0.895755 -0.504854 -17.3825 0c-0.209198,0 -0.435405,0.134647 -0.603501,0.134647 -0.30416,0.142584 -0.612288,0.450996 -0.739848,0.768762l0.0008504 0.0008504c-0.051024,0.130111 -0.0799376,0.271845 -0.0799376,0.41868l-0.135781 -0.0975126c-0.004252,-0.076536 -0.004252,-0.153072 0,-0.227624l-0.0034016 -0.0929771 -0.0470555 -0.0337325c-0.004252,-0.076536 -0.004252,-0.153072 0,-0.227624z"
   id="path120" />
  <path
   class="fil33"
   d="M21.006 5.85869l0 15.4555c0,0.452696 -0.185954,0.865708 -0.484728,1.16448 -0.298207,0.298207 -0.711218,0.484728 -1.1642,0.484728l-17.7674 0c-0.453263,0 -0.865991,-0.185954 -1.16448,-0.484445 -0.298491,-0.298491 -0.484161,-0.711218 -0.484161,-1.16477l0 -16.5502c0,-0.643753 0.0615123,-1.71186 0.473956,-2.20452 0.265041,-0.316349 0.642619,-0.516193 1.12054,-0.516193l0.00963787 0.00198427 0.0606619 0.00141733 17.8068 0.0374176 0.00396854 0 0.0277797 0.000283467 0.00198427 0c1.81305,0.0218269 1.59507,1.89809 1.57863,3.25165l-0.0189923 0.522713zm-1.00007 15.4555l0 -15.9555c0,-0.440507 -0.0141733,-1.79293 -0.201828,-2.06392 -0.108851,-0.0986464 -0.138615,-0.21175 -0.369641,-0.214301l-0.0257955 -0.000283467 -17.8125 -0.0374176 -0.00963787 0 -0.051024 -0.00113387 0 0.0017008c-0.155056,0 -0.274396,0.0609454 -0.354617,0.156757 -0.253986,0.303876 -0.239813,1.13018 -0.239813,1.56389l0 16.5502c0,0.177734 0.0734179,0.34016 0.191057,0.457799 0.117639,0.117639 0.280065,0.19134 0.457515,0.19134l17.7674 0c0.176883,0 0.339593,-0.0739848 0.457232,-0.191624 0.117922,-0.117922 0.191624,-0.280632 0.191624,-0.457515z"
   id="path122" />
  <g
   id="_83317272">
   <path
   id="_47325640"
   class="fil34"
   d="M16.5165 10.5498l-2.88144 4.18369c0.986464,0.67295 2.12175,1.10864 3.31004,1.26681l1.58203 -5.08143c-0.706966,0.166395 -1.43349,0.0187088 -2.01063,-0.369074z" />
   <g
   id="g126">
    <path
   id="_120531376"
   class="fil35"
   d="M16.6046 10.6065l-2.78591 4.24775c0.877613,0.562682 1.86464,0.942527 2.89675,1.11204l1.59932 -5.00687c-0.60265,0.0887251 -1.20729,-0.0439374 -1.71016,-0.352916z" />
    <path
   id="_89493088"
   class="fil36"
   d="M16.6936 10.6586l-2.68755 4.31181c0.763376,0.458933 1.60329,0.783502 2.47977,0.955l1.6203 -4.94423c-0.496917,0.0314648 -0.987598,-0.0841896 -1.41252,-0.322585z" />
    <path
   id="_45892656"
   class="fil37"
   d="M16.7844 10.7071l-2.58635 4.37531c0.643753,0.361987 1.33796,0.630147 2.05995,0.794557l1.64411 -4.89094c-0.391468,-0.0068032 -0.773864,-0.104032 -1.11771,-0.278931z" />
    <path
   id="_86048536"
   class="fil38"
   d="M16.8753 10.7513l-2.48204 4.43739c0.519028,0.272412 1.06867,0.484728 1.63702,0.632414l1.67132 -4.84643c-0.287435,-0.0277797 -0.56665,-0.103749 -0.826306,-0.223372z" />
    <path
   id="_83033256"
   class="fil39"
   d="M16.9672 10.7913l-2.3746 4.49833c0.3892,0.190206 0.794841,0.347247 1.21097,0.469138l1.70165 -4.81072c-0.185104,-0.0323152 -0.365672,-0.0853235 -0.53802,-0.156757z" />
   </g>
   <path
   id="_88580312"
   class="fil40"
   d="M17.0582 10.827l-2.26377 4.5573c0.25512,0.115654 0.51676,0.217703 0.783502,0.304727l1.7351 -4.78265c-0.0861739,-0.0218269 -0.171497,-0.0484728 -0.254837,-0.0793707z" />
  </g>
  <path
   class="fil41"
   d="M16.4054 15.6454c0.0870243,-0.140033 0.733896,0.142867 0.844448,-0.0368507 2.04521,-3.32762 7.20658,-12.1505 6.35589,-12.5856 -0.901424,-0.460634 -5.25944,5.81305 -8.19758,9.93948 -0.36057,0.506555 -0.176883,1.38502 -0.485862,1.8105 0.0034016,0.0286301 -0.11282,0.259939 -0.107434,0.288853 0.669549,-0.0204096 1.69853,0.0929771 2.10276,1.03635l-0.512225 -0.452696z"
   id="path134" />
  <path
   class="fil42"
   d="M17.241 15.0532l0.0870243 0.0141733c0.0360003,0.00623627 0.0413862,0.064347 0.0447878,0.112536l0.0368507 0.0413862 0.00538587 -0.00793707 0 -0.0017008c1.20785,-1.96528 3.0192,-5.64269 4.50854,-8.559l-0.0008504 0c0.511091,-1.00206 0.929204,-1.88959 1.17355,-2.54071 0.175182,-0.466019 0.329955,-0.728226 0.326554,-0.762526 -0.593013,-0.193608 -4.40933,4.90964 -7.19637,8.83424l-0.677486 0.953582c-0.130111,0.18312 -0.0051024,0.539154 -0.0377011,0.838495 -0.0289136,0.257671 -0.0581107,0.50939 -0.140883,0.733612 0.235844,0.0238112 0.483878,0.0720006 0.723407,0.160159 0.236411,0.0861739 0.947346,0.00963787 1.14719,0.183686zm1.56587 -0.0586776c-0.105733,0.172348 -1.01708,0.838211 -1.18773,0.846148l-0.465452 0.334207 -0.994968 -0.251435 -0.23386 -0.207781 0.0544256 -0.0878747 -0.142584 -0.0598115c-0.336759,-0.124158 -0.713486,-0.143434 -1.01084,-0.134647l-0.322869 0.00963787 -0.055276 -0.316632c-0.0201261,-0.114237 0.0308979,-0.242931 0.0819219,-0.359719l-0.00198427 -0.0008504 0.00368507 0.0008504 0.0306144 0.0130395 0.0589611 -0.225073c0.0907094,-0.125009 0.121607,-0.387216 0.151371,-0.659911 0.043087,-0.394019 -0.449578,-0.923535 -0.207498,-1.26313l0.677202 -0.953866c2.96931,-4.18114 7.41181,-9.55822 8.53263,-8.98561l0.0221104 0.0124725 0.00878747 0.00538587 0.0025512 0.0008504c0.349231,0.212884 0.303593,0.812699 -0.0167245,1.66338 -0.258522,0.687974 -0.686273,1.59932 -1.2053,2.6164l-0.0008504 0c-1.5123,2.96109 -2.57133,6.04124 -3.77748,8.00482l-0.0008504 -0.0008504zm-4.25455 -0.176883l0.00963787 -0.0371342 -0.0306144 -0.0130395c0.00963787,0.0175749 0.029764,0.119623 0.0209765,0.0501736zm-0.0226773 -0.0518744l0.0017008 0.0008504"
   id="path136" />
  <path
   class="fil43"
   d="M16.4093 15.699c0.185387,-0.298491 0.775565,-0.374176 1.04826,-0.812983 2.22125,-3.57537 6.37857,-10.9767 5.58146,-11.384 -0.0697328,-0.0357168 -0.0493232,-0.123592 -0.166678,-0.072284 0.252002,1.23705 -5.45532,8.84615 -7.25363,11.7576 0.0745518,0.105166 -0.0068032,1.29658 1.30423,0.700163l-0.513642 -0.188505z"
   id="path138" />
  <path
   class="fil44"
   d="M16.1137 14.5263c2.1552,-3.34207 6.91404,-10.7984 6.83325,-10.859 -0.158458,-0.11934 -4.78492,5.82099 -7.63943,9.67897 0.430019,0.103182 0.64432,0.808164 0.80618,1.18007z"
   id="path140" />
  <polygon
   class="fil45"
   points="22.4849,10.9515 22.4857,10.9432 22.4854,10.941 22.4608,10.9401 "
   id="polygon142" />
  <path
   class="fil46"
   d="M7.99546 23.3438c-0.0195592,0.0238112 2.13167,0.171497 3.65729,-0.499752 0.790022,-0.34753 1.9134,-1.10892 2.25356,-2.00723 0.607186,-1.60187 -0.420665,-3.57565 -2.45992,-2.58692 -0.108284,0.0524414 -0.999787,0.678336 -1.21692,2.33888 -0.0754022,0.57969 -0.201545,0.940543 -0.458649,1.41989 -0.31068,0.578839 -0.624194,1.2087 -1.77535,1.33513z"
   id="path144" />
  <path
   class="fil47"
   d="M8.34158 23.3613c-0.0195592,0.0235277 2.13904,0.153922 3.66466,-0.517327 0.790022,-0.34753 1.9134,-1.10892 2.25356,-2.00723 0.607186,-1.60187 -0.420665,-3.57565 -2.45992,-2.58692 -0.108284,0.0524414 -0.999787,0.678336 -1.21692,2.33888 -0.0754022,0.57969 -0.201545,0.940543 -0.458649,1.41989 -0.31068,0.578839 -0.631564,1.22628 -1.78272,1.3527z"
   id="path146" />
  <path
   class="fil48"
   d="M8.37843 23.3818c-0.00737014,0.00907094 0.0184253,0.0223939 0.524981,0.0107717 -0.10545,0.0274963 -0.185954,-0.0187088 -0.30416,-0.0113387 0.787187,0.0008504 2.22521,-0.017008 3.28651,-0.483878 0.790022,-0.347247 2.04209,-0.642619 2.38225,-1.54121 0.397987,-1.04968 1.11289,-2.56056 0.281766,-2.99143 -0.00283467,-0.0413862 -0.846715,-0.462901 -0.809865,-0.453263 -0.437106,-0.22649 -1.31047,-0.502303 -2.01346,-0.16186 -0.108284,0.0524414 -1.00064,1.18121 -1.21664,2.84147 -0.166678,1.279 -0.250585,2.14783 -2.13139,2.79073zm1.77762 -0.654525c0.511374,-0.536036 0.651407,-1.28014 0.748352,-2.02565 0.216569,-1.66027 0.922968,-1.42839 1.01566,-1.50294 0.179434,-0.144285 0.758557,0.0867408 1.16335,0.441641 0.199561,0.387216 0.36879,0.905676 0.174049,1.41903 -0.17093,1.2036 -2.2221,1.80398 -3.07221,1.84509 -0.163277,0.0076536 0.102332,-0.254553 -0.0291971,-0.177167z"
   id="path148" />
  <path
   class="fil49"
   d="M8.44079 23.7792c-0.324569,-0.0189923 -0.505421,-0.197009 -0.505421,-0.418114l0 -0.362554 0.362838 -0.0394019c0.911913,-0.0994968 1.06102,-0.621926 1.3167,-1.09928l0.0218269 -0.0411027c0.372192,-1.57693 0.0745518,-4.86571 3.69244,-4.67635 0.478492,0.0487563 0.872794,0.260223 1.1693,0.575154l-0.0008504 0.0008504c0.285168,0.302459 0.744384,0.569485 0.834526,1.00574 1.4763,4.46007 -3.71171,5.38814 -6.53363,5.06669l-0.00198427 0c-0.159592,-0.00198427 -0.281199,-0.0076536 -0.355751,-0.0116221zm1.60357 -0.862023c0.588477,-0.068032 1.46127,0.0209765 2.018,-0.223939 1.52817,-0.670682 2.82957,-2.09454 2.4775,-3.80838 -0.0603784,-0.292821 -0.449011,-0.421799 -0.628729,-0.612288l-0.00198427 0c-0.168379,-0.178868 -0.393168,-0.300475 -0.660194,-0.32627l-0.00198427 0c-0.273545,-0.0277797 -0.813266,-0.0688824 -1.19113,0.11367l-0.00198427 0c-0.0479059,0.0229608 -0.333073,0.228758 -0.610587,0.76366 -0.55191,1.06584 -0.475374,2.21047 -1.09447,3.37581l0.109985 0.0411027c-0.121607,0.226773 -0.2469,0.4612 -0.414428,0.676635z"
   id="path150" />
  <path
   class="fil50"
   d="M15.9994 16.4757c0.138615,-0.0847566 0.2829,-0.170647 0.415562,-0.253986 -0.138899,0.0847566 -0.283183,0.170364 -0.415562,0.253986z"
   id="path152" />
  <path
   class="fil51"
   d="M17.6322 14.9364c0.150237,-0.0867408 0.305861,-0.176033 0.449862,-0.261923 -0.150237,0.0875912 -0.305861,0.176316 -0.449862,0.261923z"
   id="path154" />
  <polygon
   class="fil52"
   points="15.5785,12.9675 15.3608,13.1755 15.4512,13.1313 "
   id="polygon156" />
  <path
   class="fil53"
   d="M18.543 14.0483c-0.418964,-0.931188 -1.87513,-1.81135 -2.56764,-1.82269l-0.582241 0.556445 0.383814 -0.278648 -0.565516 0.534618c0.0357168,-0.00226773 0.0731344,-0.000566934 0.11367,0.00226773l-0.00907094 0.0124725 0.0051024 0 -0.187088 0.255971c0.671533,-0.0280632 2.23457,0.807313 2.65467,1.76316l0.166962 -0.269577 -0.0396854 -0.081355 0.00453547 -0.00737014 0.378145 -0.125009 0.167245 -0.269577 -0.0399688 -0.081355 0.117072 -0.189356z"
   id="path158" />
  <path
   class="fil54"
   d="M14.3227 19.1317c0.558146,-0.638084 1.08369,-1.26568 1.60896,-1.89356 0.663029,-0.791439 1.32577,-1.58401 2.05655,-2.39728l0.0453547 -0.0504571 -0.0243781 -0.0632131c-0.183686,-0.478208 -0.651123,-0.926653 -1.16165,-1.25888 -0.614556,-0.400255 -1.30593,-0.635533 -1.65176,-0.557012l-0.051024 0.0119056 -0.0232443 0.0459216c-0.496917,0.971724 -0.921267,1.90546 -1.34477,2.83835 -0.343845,0.758557 -0.689108,1.51655 -1.07859,2.30685 0.0688824,0.0130395 0.142867,0.0306144 0.221104,0.0541422 0.378145,-0.769329 0.719439,-1.51995 1.05988,-2.26944 0.411594,-0.907377 0.824321,-1.81589 1.315,-2.77911 0.308412,-0.0342995 0.89292,0.183686 1.43179,0.534335 0.454397,0.295089 0.868826,0.683438 1.05024,1.0905 -0.718872,0.802495 -1.36688,1.57636 -2.01517,2.35079 -0.517894,0.619091 -1.03635,1.23875 -1.59138,1.8723 0.0507406,0.051591 0.101765,0.105733 0.153072,0.163844z"
   id="path160" />
  <path
   class="fil26"
   d="M14.1458 19.0186c1.26341,-1.44256 2.34767,-2.82191 3.65871,-4.28205 -0.383814,-0.99837 -2.09964,-1.88024 -2.68528,-1.74672 -0.904543,1.76883 -1.5534,3.38034 -2.41032,5.11913 0.384948,0.0949614 0.896605,0.329105 1.43689,0.909645z"
   id="path162" />
  <path
   class="fil55"
   d="M13.5194 18.5325l3.16462 -4.94565c0.317766,0.204663 0.740132,0.49465 0.963787,0.767628l-3.52122 4.61115c-0.166678,-0.160726 -0.450429,-0.329672 -0.607186,-0.433137z"
   id="path164" />
  <path
   class="fil56"
   d="M17.1676 15.6051c0.241797,-0.284884 0.486146,-0.567501 0.734179,-0.847566 -0.0113387,-0.0291971 -0.0238112,-0.0586776 -0.0374176,-0.0875912 -1.25718,1.41337 -2.41712,2.91007 -3.65786,4.33534l0.0405358 0.0433704c1.01878,-1.16391 1.92105,-2.28644 2.92056,-3.44355z"
   id="path166" />
  <path
   class="fil57"
   d="M14.247 19.0481c1.23365,-1.42385 2.38396,-2.93983 3.63093,-4.34696 -0.0124725,-0.0283467 -0.0263624,-0.0569768 -0.0411027,-0.0853235 -1.25519,1.41308 -2.41174,2.93785 -3.6502,4.36907l0.0603784 0.0632131z"
   id="path168" />
  <path
   class="fil58"
   d="M14.2266 19.0269c1.23138,-1.43037 2.37999,-2.973 3.62554,-4.38098 -0.0136064,-0.0272128 -0.0277797,-0.0549926 -0.043087,-0.0816384 -1.25434,1.4111 -2.4072,2.96336 -3.64283,4.39969l0.0603784 0.0629296z"
   id="path170" />
  <path
   class="fil59"
   d="M14.2065 19.0053c1.2294,-1.43576 2.3746,-3.00503 3.61845,-4.41216 -0.0141733,-0.0266459 -0.0294805,-0.0535752 -0.0453547,-0.0796542 -1.25151,1.41081 -2.40181,2.98859 -3.63376,4.42945l0.0606619 0.0623627z"
   id="path172" />
  <path
   class="fil60"
   d="M14.1867 18.9849c1.22599,-1.44029 2.36695,-3.03678 3.60938,-4.44306 -0.0147403,-0.025512 -0.0306144,-0.051591 -0.0479059,-0.077103 -1.24839,1.40826 -2.39473,3.0124 -3.62327,4.45752l0.0617958 0.0626462z"
   id="path174" />
  <path
   class="fil61"
   d="M14.1657 18.9634c1.22174,-1.4454 2.36071,-3.06654 3.60031,-4.47141 -0.0161576,-0.0249451 -0.0325987,-0.0501736 -0.0496067,-0.0751187 -1.24584,1.40628 -2.38792,3.03565 -3.61222,4.48501l0.0615123 0.0615123z"
   id="path176" />
  <path
   class="fil55"
   d="M14.1453 18.943c1.21834,-1.44937 2.35277,-3.09659 3.58926,-4.49947 -0.0164411,-0.0243781 -0.0334491,-0.0487563 -0.051591,-0.0725675 -1.24243,1.40316 -2.37942,3.05719 -3.60031,4.51109l0.0626462 0.0609454z"
   id="path178" />
  <path
   class="fil62"
   d="M14.255 19.0572c1.23932,-1.41989 2.3111,-2.77939 3.6023,-4.21799l-0.00566934 -0.0141733c-1.28382,1.43689 -2.35674,2.79867 -3.60513,4.22309l0.008504 0.00907094z"
   id="path180" />
  <path
   class="fil63"
   d="M15.2366 17.3127c0.157041,-0.0955283 0.320884,-0.193041 0.471122,-0.287152 -0.157324,0.0960952 -0.320317,0.193041 -0.471122,0.287152z"
   id="path182" />
  <path
   class="fil64"
   d="M14.5036 19.4166c0.0238112,-0.0119056 0.0453547,-0.0306144 0.0572603,-0.055843 0.0476224,-0.0260789 0.0819219,-0.0810715 0.0530083,-0.153922 -0.300191,-0.779534 -1.64893,-1.48367 -2.10644,-1.37878 -0.0626462,0.0195592 -0.102048,0.0484728 -0.11934,0.0827723 -0.0416696,0.0260789 -0.0623627,0.0586776 -0.0632131,0.0943944l0.0246616 -0.00878747c0.123592,-0.0283467 0.313231,0.00283467 0.529233,0.0788038 -0.199561,-0.0663312 -0.373042,-0.0915598 -0.48898,-0.0646304 -0.0634966,0.0192757 -0.102048,0.0481894 -0.119906,0.0824888l-0.0289136 0.0223939c0.104883,0.0206931 0.218836,0.0498902 0.340727,0.0884416 0.47339,0.117072 1.16505,0.515343 1.54319,0.993835 0.104883,0.105733 0.211183,0.219687 0.317766,0.346113l0.000566934 -0.0008504c0.0411027,-0.0221104 0.072284,-0.0674651 0.0603784,-0.126426z"
   id="path184" />
  <path
   class="fil65"
   d="M15.5382 13.0233l-2.58578 5.0905c-0.109135,-0.0300475 -0.613139,-0.00793707 -0.70158,-0.0198427l2.34569 -5.48452 0.941677 0.413862z"
   id="path186" />
  <path
   class="fil66"
   d="M18.617 15.2213l-4.12217 4.26618 -0.0932606 -0.264475c-0.0459216,-0.0544256 -0.0915598,-0.1063 -0.137481,-0.155623l3.64737 -4.5607 0.705549 0.71462z"
   id="path188" />
  <path
   class="fil59"
   d="M4.54936 0.0325987l0.0634966 0c0.389483,0 0.7081,0.370491 0.7081,0.817235l0 4.38325c0,0.447878 -0.320034,0.817518 -0.7081,0.817518l-0.0634966 0c-0.388066,0 -0.802211,-0.367373 -0.802211,-0.817518l0 -4.38325c0,-0.449011 0.412728,-0.817235 0.802211,-0.817235z"
   id="path190" />
  <polygon
   class="fil67"
   points="4.03118,1.71497 5.02813,1.71497 5.02813,0.498618 4.03118,0.498618 "
   id="polygon192" />
  <rect
   class="fil26"
   x="4.03128"
   y="1.41612"
   width="0.99674"
   height="1.73169"
   id="rect194" />
  <rect
   class="fil68"
   x="4.0665"
   y="4.10398"
   width="0.99674"
   height="0.921316"
   id="rect196" />
  <path
   class="fil14"
   d="M8.00312 3.21366l-0.000283467 0.0802211c0,1.73198 0.181702,3.13656 0.405358,3.13656 0.222238,0 0.402523,-1.38247 0.405358,-3.09574 -0.130678,-0.0776699 -0.274112,-0.12104 -0.422649,-0.12104l-0.387783 0z"
   id="path198" />
  <path
   class="fil23"
   d="M8.27326 3.21366l0 0.0802211c0,1.73198 0.0603784,3.13656 0.13493,3.13656 0.0745518,0 0.135214,-1.40458 0.135214,-3.13656l-0.000283467 -0.0649139c-0.0498902,-0.0102048 -0.100631,-0.0153072 -0.152222,-0.0153072l-0.117639 0z"
   id="path200" />
  <path
   class="fil59"
   d="M8.56438 0.0325987l0.0634966 0c0.389483,0 0.7081,0.370491 0.7081,0.817235l0 4.38325c0,0.447878 -0.320034,0.817518 -0.7081,0.817518l-0.0634966 0c-0.388066,0 -0.802211,-0.367373 -0.802211,-0.817518l0 -4.38325c0,-0.449011 0.412728,-0.817235 0.802211,-0.817235z"
   id="path202" />
  <polygon
   class="fil67"
   points="8.04621,1.71497 9.04316,1.71497 9.04316,0.498618 8.04621,0.498618 "
   id="polygon204" />
  <rect
   class="fil26"
   x="8.0463"
   y="1.41612"
   width="0.99674"
   height="1.73169"
   id="rect206" />
  <rect
   class="fil68"
   x="8.08152"
   y="4.10398"
   width="0.99674"
   height="0.921316"
   id="rect208" />
  <path
   class="fil14"
   d="M12.2959 3.21366l-0.000283467 0.0802211c0,1.73198 0.181702,3.13656 0.405358,3.13656 0.222238,0 0.402523,-1.38247 0.405358,-3.09574 -0.130678,-0.0776699 -0.274112,-0.12104 -0.422649,-0.12104l-0.387783 0z"
   id="path210" />
  <g
   id="_46863112">
   <path
   id="_88556784"
   class="fil15"
   d="M12.326 3.21366l-0.000283467 0.0802211c0,1.73198 0.168096,3.13656 0.37531,3.13656 0.20608,0 0.373609,-1.39211 0.375027,-3.11332 -0.122458,-0.0666147 -0.25512,-0.103465 -0.392318,-0.103465l-0.357735 0z" />
   <path
   id="_82450880"
   class="fil16"
   d="M12.3558 3.21366l0 0.0802211c0,1.73198 0.154489,3.13656 0.345263,3.13656 0.190206,0 0.344696,-1.40033 0.345263,-3.12862 -0.114237,-0.0569768 -0.236695,-0.0881582 -0.362554,-0.0881582l-0.327971 0z" />
   <path
   id="_83713000"
   class="fil17"
   d="M12.3858 3.21366l0 0.0802211c0,1.73198 0.141166,3.13656 0.315215,3.13656 0.173765,0 0.315215,-1.40458 0.315215,-3.13656l0 -0.00651974c-0.10545,-0.0476224 -0.217419,-0.0737014 -0.332507,-0.0737014l-0.297924 0z" />
   <path
   id="_86221184"
   class="fil18"
   d="M12.4158 3.21366l-0.000283467 0.0802211c0,1.73198 0.127844,3.13656 0.285451,3.13656 0.157324,0 0.285168,-1.40458 0.285168,-3.13656l0 -0.0195592c-0.0966622,-0.0394019 -0.198143,-0.0606619 -0.302459,-0.0606619l-0.267876 0z" />
   <path
   id="_89147936"
   class="fil19"
   d="M12.4456 3.21366l0 0.0802211c0,1.73198 0.114521,3.13656 0.255404,3.13656 0.140883,0 0.25512,-1.40458 0.25512,-3.13656l-0.000283467 -0.0311813c-0.0875912,-0.0317483 -0.178868,-0.0490398 -0.272128,-0.0490398l-0.238112 0z" />
   <path
   id="_86103224"
   class="fil20"
   d="M12.4757 3.21366l0 0.0802211c0,1.73198 0.100914,3.13656 0.225356,3.13656 0.124158,0 0.225073,-1.40458 0.225073,-3.13656l0 -0.0413862c-0.0782368,-0.025512 -0.159592,-0.038835 -0.242364,-0.038835l-0.208065 0z" />
   <path
   id="_87484656"
   class="fil21"
   d="M12.5057 3.21366l0 0.0802211c0,1.73198 0.0875912,3.13656 0.195309,3.13656 0.107434,0 0.195025,-1.40458 0.195025,-3.13656l-0.000283467 -0.0504571c-0.0688824,-0.0192757 -0.139749,-0.029764 -0.212033,-0.029764l-0.178017 0z" />
   <path
   id="_83002472"
   class="fil22"
   d="M12.5358 3.21366l0 0.0802211c0,1.73198 0.0739848,3.13656 0.165261,3.13656 0.0909928,0 0.165261,-1.40458 0.165261,-3.13656l-0.000283467 -0.0583942c-0.059528,-0.0144568 -0.120473,-0.0218269 -0.182269,-0.0218269l-0.14797 0z" />
  </g>
  <path
   class="fil59"
   d="M12.5542 0.0325987l0.0634966 0c0.389483,0 0.7081,0.370491 0.7081,0.817235l0 4.38325c0,0.447878 -0.320034,0.817518 -0.7081,0.817518l-0.0634966 0c-0.388066,0 -0.802211,-0.367373 -0.802211,-0.817518l0 -4.38325c0,-0.449011 0.412728,-0.817235 0.802211,-0.817235z"
   id="path221" />
  <polygon
   class="fil67"
   points="12.036,1.71497 13.033,1.71497 13.033,0.498618 12.036,0.498618 "
   id="polygon223" />
  <rect
   class="fil26"
   x="12.0361"
   y="1.41612"
   width="0.99674"
   height="1.73169"
   id="rect225" />
  <rect
   class="fil68"
   x="12.0713"
   y="4.10398"
   width="0.99674"
   height="0.921316"
   id="rect227" />
  <path
   class="fil14"
   d="M16.2857 3.21366l-0.000283467 0.0802211c0,1.73198 0.181702,3.13656 0.405358,3.13656 0.222238,0 0.402523,-1.38247 0.405358,-3.09574 -0.130678,-0.0776699 -0.274112,-0.12104 -0.422649,-0.12104l-0.387783 0z"
   id="path229" />
  <g
   id="_88898240">
   <path
   id="_85001128"
   class="fil15"
   d="M16.3158 3.21366l-0.000283467 0.0802211c0,1.73198 0.168096,3.13656 0.37531,3.13656 0.20608,0 0.373609,-1.39211 0.375027,-3.11332 -0.122458,-0.0666147 -0.25512,-0.103465 -0.392318,-0.103465l-0.357735 0z" />
   <path
   id="_120732400"
   class="fil16"
   d="M16.3455 3.21366l0 0.0802211c0,1.73198 0.154489,3.13656 0.345263,3.13656 0.190206,0 0.344696,-1.40033 0.345263,-3.12862 -0.114237,-0.0569768 -0.236695,-0.0881582 -0.362554,-0.0881582l-0.327971 0z" />
   <path
   id="_84555216"
   class="fil17"
   d="M16.3756 3.21366l0 0.0802211c0,1.73198 0.141166,3.13656 0.315215,3.13656 0.173765,0 0.315215,-1.40458 0.315215,-3.13656l0 -0.00651974c-0.10545,-0.0476224 -0.217419,-0.0737014 -0.332507,-0.0737014l-0.297924 0z" />
   <path
   id="_47339496"
   class="fil18"
   d="M16.4056 3.21366l-0.000283467 0.0802211c0,1.73198 0.127844,3.13656 0.285451,3.13656 0.157324,0 0.285168,-1.40458 0.285168,-3.13656l0 -0.0195592c-0.0966622,-0.0394019 -0.198143,-0.0606619 -0.302459,-0.0606619l-0.267876 0z" />
   <path
   id="_85184312"
   class="fil19"
   d="M16.4354 3.21366l0 0.0802211c0,1.73198 0.114521,3.13656 0.255404,3.13656 0.140883,0 0.25512,-1.40458 0.25512,-3.13656l-0.000283467 -0.0311813c-0.0875912,-0.0317483 -0.178868,-0.0490398 -0.272128,-0.0490398l-0.238112 0z" />
   <path
   id="_47874616"
   class="fil20"
   d="M16.4655 3.21366l0 0.0802211c0,1.73198 0.100914,3.13656 0.225356,3.13656 0.124158,0 0.225073,-1.40458 0.225073,-3.13656l0 -0.0413862c-0.0782368,-0.025512 -0.159592,-0.038835 -0.242364,-0.038835l-0.208065 0z" />
   <path
   id="_47519624"
   class="fil21"
   d="M16.4955 3.21366l0 0.0802211c0,1.73198 0.0875912,3.13656 0.195309,3.13656 0.107434,0 0.195025,-1.40458 0.195025,-3.13656l-0.000283467 -0.0504571c-0.0688824,-0.0192757 -0.139749,-0.029764 -0.212033,-0.029764l-0.178017 0z" />
   <path
   id="_47930248"
   class="fil22"
   d="M16.5255 3.21366l0 0.0802211c0,1.73198 0.0739848,3.13656 0.165261,3.13656 0.0909928,0 0.165261,-1.40458 0.165261,-3.13656l-0.000283467 -0.0583942c-0.059528,-0.0144568 -0.120473,-0.0218269 -0.182269,-0.0218269l-0.14797 0z" />
  </g>
  <path
   class="fil59"
   d="M16.544 0.0325987l0.0634966 0c0.389483,0 0.7081,0.370491 0.7081,0.817235l0 4.38325c0,0.447878 -0.320034,0.817518 -0.7081,0.817518l-0.0634966 0c-0.388066,0 -0.802211,-0.367373 -0.802211,-0.817518l0 -4.38325c0,-0.449011 0.412728,-0.817235 0.802211,-0.817235z"
   id="path240" />
  <polygon
   class="fil67"
   points="16.0258,1.71497 17.0227,1.71497 17.0227,0.498618 16.0258,0.498618 "
   id="polygon242" />
  <rect
   class="fil26"
   x="16.0259"
   y="1.41612"
   width="0.99674"
   height="1.73169"
   id="rect244" />
  <rect
   class="fil68"
   x="16.0611"
   y="4.10398"
   width="0.99674"
   height="0.921316"
   id="rect246" />
  <path
   class="fil69"
   d="M18.3908 15.2689c0.0819219,-0.0119056 0.269293,-0.17745 0.289136,-0.268727 0.0858904,-0.0456382 0.147119,-0.144852 0.0943944,-0.274963 -0.5315,-1.38218 -2.92481,-2.63114 -3.73609,-2.44604 -0.138615,0.0439374 -0.317483,0.217986 -0.333924,0.29764 -0.0748352,0.0456382 -0.111119,0.104599 -0.112536,0.167812l0.043087 -0.0150237c0.811282,-0.185954 3.20544,1.06328 3.73723,2.44632 0.0133229,0.0328821 0.0195592,0.06378 0.0187088,0.0929771z"
   id="path248" />
  <path
   class="fil70"
   d="M18.3545 15.4421c0.116505,-0.0172915 0.231876,-0.132662 0.166678,-0.294522 -0.524697,-1.36376 -2.88513,-2.59656 -3.68535,-2.41259 -0.0924102,0.0289136 -0.15534,0.0694494 -0.191624,0.116505 -0.127844,0.0479059 -0.203813,0.146836 -0.209482,0.228474l0.0422366 -0.0371342c0.0121891,-0.0025512 0.025512,-0.00481894 0.0385515,-0.00737014 0.0141733,-0.0025512 0.0272128,-0.0051024 0.0405358,-0.0051024 0.0272128,-0.00226773 -0.259089,0.230175 -0.231025,0.230175 0.90681,-0.00311813 3.17965,1.06697 3.67146,2.34569 0.0133229,0.034016 0.18482,-0.085607 0.18397,-0.0566934 0.0677486,-0.0051024 0.137765,-0.0447878 0.174049,-0.107434z"
   id="path250" />
 </g>
</svg>