<?xml version="1.0" encoding="UTF-8" standalone="no"?>
<!-- Creator: CorelDRAW -->

<svg
   xmlns:dc="http://purl.org/dc/elements/1.1/"
   xmlns:cc="http://creativecommons.org/ns#"
   xmlns:rdf="http://www.w3.org/1999/02/22-rdf-syntax-ns#"
   xmlns:svg="http://www.w3.org/2000/svg"
   xmlns="http://www.w3.org/2000/svg"
   xmlns:xlink="http://www.w3.org/1999/xlink"
   xmlns:sodipodi="http://sodipodi.sourceforge.net/DTD/sodipodi-0.dtd"
   xmlns:inkscape="http://www.inkscape.org/namespaces/inkscape"
   xml:space="preserve"
   width="24px"
   height="24px"
   style="shape-rendering:geometricPrecision; text-rendering:geometricPrecision; image-rendering:optimizeQuality; fill-rule:evenodd; clip-rule:evenodd"
   viewBox="0 0 24 24"
   id="svg2"
   version="1.1"
   inkscape:version="0.48.1 r9760"
   sodipodi:docname="applications-multimedia.svg"><metadata
   id="metadata169"><rdf:RDF><cc:Work
       rdf:about=""><dc:format>image/svg+xml</dc:format><dc:type
         rdf:resource="http://purl.org/dc/dcmitype/StillImage" /><dc:title></dc:title></cc:Work></rdf:RDF></metadata><sodipodi:namedview
   pagecolor="#ffffff"
   bordercolor="#666666"
   borderopacity="1"
   objecttolerance="10"
   gridtolerance="10"
   guidetolerance="10"
   inkscape:pageopacity="0"
   inkscape:pageshadow="2"
   inkscape:window-width="646"
   inkscape:window-height="480"
   id="namedview167"
   showgrid="false"
   inkscape:zoom="11.083333"
   inkscape:cx="12"
   inkscape:cy="12"
   inkscape:window-x="0"
   inkscape:window-y="24"
   inkscape:window-maximized="0"
   inkscape:current-layer="svg2" />
 <defs
   id="defs4">
  <style
   type="text/css"
   id="style6">
   
    .fil1 {fill:none}
    .fil23 {fill:#333333}
    .fil40 {fill:#4C4C4C}
    .fil33 {fill:#666666}
    .fil16 {fill:#8BC5F5}
    .fil39 {fill:#999999}
    .fil20 {fill:#E0981B}
    .fil38 {fill:#FFEC8B}
    .fil21 {fill:#EDA21D;fill-rule:nonzero}
    .fil24 {fill:black;fill-opacity:0.000000}
    .fil3 {fill:#333333;fill-opacity:0.000000}
    .fil4 {fill:#333333;fill-opacity:0.011765}
    .fil5 {fill:#333333;fill-opacity:0.027451}
    .fil25 {fill:black;fill-opacity:0.035294}
    .fil6 {fill:#333333;fill-opacity:0.039216}
    .fil7 {fill:#333333;fill-opacity:0.054902}
    .fil8 {fill:#333333;fill-opacity:0.066667}
    .fil26 {fill:black;fill-opacity:0.074510}
    .fil9 {fill:#333333;fill-opacity:0.078431}
    .fil10 {fill:#333333;fill-opacity:0.094118}
    .fil11 {fill:#333333;fill-opacity:0.105882}
    .fil27 {fill:black;fill-opacity:0.109804}
    .fil12 {fill:#333333;fill-opacity:0.121569}
    .fil28 {fill:black;fill-opacity:0.145098}
    .fil29 {fill:black;fill-opacity:0.184314}
    .fil30 {fill:black;fill-opacity:0.219608}
    .fil22 {fill:#FED716;fill-opacity:0.780392}
    .fil34 {fill:url(#id0)}
    .fil35 {fill:url(#id1)}
    .fil17 {fill:url(#id2)}
    .fil13 {fill:url(#id3)}
    .fil36 {fill:url(#id4)}
    .fil37 {fill:url(#id5)}
    .fil31 {fill:url(#id6)}
    .fil32 {fill:url(#id7)}
    .fil14 {fill:url(#id8)}
    .fil19 {fill:url(#id9)}
    .fil18 {fill:url(#id10)}
    .fil15 {fill:url(#id11)}
    .fil2 {fill:url(#id12);fill-rule:nonzero}
    .fil0 {fill:url(#id13);fill-rule:nonzero}
   
  </style>
  <linearGradient
   id="id0"
   gradientUnits="userSpaceOnUse"
   x1="1.91397"
   y1="13.3785"
   x2="1.91397"
   y2="11.0223">
   <stop
   offset="0"
   style="stop-color:#FFEC80"
   id="stop9" />
   <stop
   offset="1"
   style="stop-color:white"
   id="stop11" />
  </linearGradient>
  <linearGradient
   id="id1"
   gradientUnits="userSpaceOnUse"
   xlink:href="#id0"
   x1="22.1042"
   y1="13.3785"
   x2="22.1042"
   y2="11.0223">
  </linearGradient>
  <linearGradient
   id="id2"
   gradientUnits="userSpaceOnUse"
   x1="13.334"
   y1="18.7193"
   x2="13.1288"
   y2="8.85409">
   <stop
   offset="0"
   style="stop-color:#E5E5E5"
   id="stop15" />
   <stop
   offset="1"
   style="stop-color:white"
   id="stop17" />
  </linearGradient>
  <linearGradient
   id="id3"
   gradientUnits="userSpaceOnUse"
   x1="11.8265"
   y1="3.964"
   x2="12.4107"
   y2="23.2528">
   <stop
   offset="0"
   style="stop-color:#5E9DD5"
   id="stop20" />
   <stop
   offset="1"
   style="stop-color:#4E87B4"
   id="stop22" />
  </linearGradient>
  <linearGradient
   id="id4"
   gradientUnits="userSpaceOnUse"
   x1="0.514776"
   y1="12.3322"
   x2="0.514776"
   y2="16.4527">
   <stop
   offset="0"
   style="stop-color:#4C4C4C"
   id="stop25" />
   <stop
   offset="1"
   style="stop-color:#333333"
   id="stop27" />
  </linearGradient>
  <linearGradient
   id="id5"
   gradientUnits="userSpaceOnUse"
   xlink:href="#id4"
   x1="23.5034"
   y1="12.3322"
   x2="23.5034"
   y2="16.4527">
  </linearGradient>
  <linearGradient
   id="id6"
   gradientUnits="userSpaceOnUse"
   x1="4.02551"
   y1="9.89299"
   x2="4.02551"
   y2="18.4903">
   <stop
   offset="0"
   style="stop-color:#575757"
   id="stop31" />
   <stop
   offset="1"
   style="stop-color:#2E2D2D"
   id="stop33" />
  </linearGradient>
  <linearGradient
   id="id7"
   gradientUnits="userSpaceOnUse"
   xlink:href="#id6"
   x1="19.9926"
   y1="9.89299"
   x2="19.9926"
   y2="18.4903">
  </linearGradient>
  <linearGradient
   id="id8"
   gradientUnits="userSpaceOnUse"
   x1="12.2441"
   y1="21.4301"
   x2="11.9932"
   y2="5.78669">
   <stop
   offset="0"
   style="stop-color:#5E9DD5"
   id="stop37" />
   <stop
   offset="0.568627"
   style="stop-color:#7EBBEE"
   id="stop39" />
   <stop
   offset="1"
   style="stop-color:#8FCDFF"
   id="stop41" />
  </linearGradient>
  <linearGradient
   id="id9"
   gradientUnits="userSpaceOnUse"
   x1="21.834"
   y1="10.8596"
   x2="21.834"
   y2="17.6642">
   <stop
   offset="0"
   style="stop-color:#FED716"
   id="stop44" />
   <stop
   offset="1"
   style="stop-color:#E89309"
   id="stop46" />
  </linearGradient>
  <linearGradient
   id="id10"
   gradientUnits="userSpaceOnUse"
   xlink:href="#id9"
   x1="2.18411"
   y1="10.8596"
   x2="2.18411"
   y2="17.6642">
  </linearGradient>
  <linearGradient
   id="id11"
   gradientUnits="userSpaceOnUse"
   x1="12.1426"
   y1="6.2391"
   x2="12.2044"
   y2="8.703">
   <stop
   offset="0"
   style="stop-color:#E5F6FF"
   id="stop50" />
   <stop
   offset="1"
   style="stop-color:#C4E8FF"
   id="stop52" />
  </linearGradient>
  <linearGradient
   id="id12"
   gradientUnits="userSpaceOnUse"
   x1="12.0581"
   y1="13.2039"
   x2="11.6539"
   y2="1.74616">
   <stop
   offset="0"
   style="stop-color:#191919"
   id="stop55" />
   <stop
   offset="1"
   style="stop-color:#4C4C4C"
   id="stop57" />
  </linearGradient>
  <linearGradient
   id="id13"
   gradientUnits="userSpaceOnUse"
   x1="11.7803"
   y1="0.869109"
   x2="11.894"
   y2="11.8223">
   <stop
   offset="0"
   style="stop-color:#666666"
   id="stop60" />
   <stop
   offset="1"
   style="stop-color:#333333"
   id="stop62" />
  </linearGradient>
 </defs>
 <g
   id="Слой_x0020_1">
  <metadata
   id="CorelCorpID_0Corel-Layer" />
  <path
   class="fil0"
   d="M0.70895 12.6248c0,-0.62221 0.0646304,-1.41932 0.19049,-2.28418 0.114521,-0.788888 0.282333,-1.64071 0.500886,-2.47098 1.22203,-4.63752 3.91156,-7.77606 10.363,-7.77606 7.0399,-0.153072 9.31642,3.09064 10.5064,7.76614 0.216285,0.848983 0.384664,1.73227 0.500602,2.54893 0.128694,0.902558 0.195592,1.72801 0.195592,2.342l-1.04231 0c0,-0.57317 -0.0626462,-1.34703 -0.18397,-2.19573 -0.110269,-0.77925 -0.271561,-1.6254 -0.479059,-2.43895 -0.528666,-2.07866 -1.64666,-3.73411 -3.25505,-4.86259 -1.60102,-1.12338 -3.70094,-1.73482 -6.20395,-1.73482 -2.51804,0 -4.58139,0.600383 -6.14839,1.7093 -1.59393,1.12735 -2.6918,2.79668 -3.24711,4.90653 -0.206931,0.78577 -0.36709,1.59705 -0.476224,2.35277 -0.118206,0.811282 -0.178584,1.5568 -0.178584,2.13762l-1.04231 0z"
   id="path66" />
  <path
   class="fil1"
   d="M1.26795 14.3434c0,-1.15598 0.229041,-2.93502 0.67295,-4.62278 1.15995,-4.40422 4.57856,-7.00446 9.89894,-7.00446 5.25661,0 8.8487,2.61186 9.96301,6.99001 0.444759,1.74531 0.67947,3.62781 0.67947,4.76309"
   id="path68" />
  <path
   class="fil2"
   d="M1.05223 13.4862c0,-0.62221 0.0646304,-1.41932 0.19049,-2.28418 0.114521,-0.788888 0.282333,-1.64071 0.500886,-2.47098 0.618808,-2.34796 1.54801,-4.21515 3.34944,-5.48905 1.74559,-1.23535 4.0102,-1.90433 6.74651,-1.90433 2.72071,0 5.02388,0.678903 6.80179,1.92616 1.8156,1.27333 2.73092,3.09319 3.32308,5.41875 0.216002,0.848983 0.384381,1.73227 0.500319,2.54893 0.128694,0.902842 0.195592,1.7283 0.195592,2.342l-0.699029 0.0385515c0,-0.57317 0.204946,-1.38615 0.0839062,-2.23457 -0.689391,-4.86514 -3.7565,-9.18886 -10.168,-9.22741 -2.88031,0.125292 -4.97031,0.79314 -6.4809,1.86294 -1.71242,1.21182 -2.68188,2.94125 -3.21962,4.98278 -0.322018,1.22543 -0.654525,3.17228 -0.654525,4.41358l-0.469988 0.0768195z"
   id="path70" />
  <g
   id="_246045904">
   <path
   id="_246059920"
   class="fil3"
   d="M12.3526 21.6926c10.4662,-0.233577 11.1414,1.40288 11.1414,1.6923 0,0.28942 -4.83821,0.728793 -10.8038,0.728793 -5.96584,0 -10.8041,-0.439374 -10.8041,-0.728793 0,-0.28942 0,-1.45872 10.4664,-1.6923z" />
   <g
   id="g74">
    <path
   id="_246063736"
   class="fil4"
   d="M12.3541 21.8139c9.45277,-0.207498 10.1937,1.27702 10.1937,1.55368 0,0.260506 -4.44476,0.651974 -9.89214,0.651974 -5.44653,0 -9.89044,-0.391468 -9.89044,-0.651974 0,-0.276664 0.136914,-1.34618 9.58883,-1.55368z" />
    <path
   id="_246059944"
   class="fil5"
   d="M12.3549 21.9349c8.43937,-0.181419 9.24612,1.15371 9.24612,1.41648 0,0.231309 -4.05159,0.575721 -8.98051,0.575721 -4.92807,0 -8.97824,-0.345263 -8.97824,-0.575721 0,-0.262774 0.273262,-1.23421 8.71264,-1.41648z" />
    <path
   id="_246039952"
   class="fil6"
   d="M12.3566 22.0568c7.42683,-0.155623 8.29906,1.02842 8.29906,1.27787 0,0.202395 -3.65842,0.499185 -8.06803,0.499185 -4.40961,0 -8.06718,-0.29764 -8.06718,-0.499185 0,-0.249451 0.410743,-1.12253 7.83616,-1.27787z" />
    <path
   id="_246062608"
   class="fil7"
   d="M12.3583 22.1793c6.41344,-0.130111 7.35114,0.903409 7.35114,1.14039 0,0.172915 -3.26497,0.422649 -7.15612,0.421799 -3.89143,0 -7.1547,-0.249734 -7.1547,-0.421799 0,-0.236978 0.545957,-1.01084 6.95968,-1.14039z" />
    <path
   id="_246060112"
   class="fil8"
   d="M12.36 22.2986c5.40033,-0.103182 6.40266,0.779817 6.40266,1.00262 0,0.143434 -2.87124,0.346113 -6.24392,0.346113 -3.37184,0 -6.24307,-0.203529 -6.24307,-0.346113 0,-0.222805 0.684005,-0.898306 6.08433,-1.00262z" />
    <path
   id="_246059032"
   class="fil9"
   d="M12.3617 22.4214c4.38693,-0.0782368 5.45475,0.654525 5.45475,0.864574 0,0.114237 -2.47778,0.26986 -5.33229,0.26901 -2.85338,0 -5.33031,-0.155623 -5.33031,-0.26901 0,-0.210049 0.820069,-0.786337 5.20785,-0.864574z" />
    <path
   id="_246049936"
   class="fil10"
   d="M12.3634 22.5433c3.37439,-0.0521579 4.50769,0.529233 4.50769,0.725958 0,0.085607 -2.08461,0.193324 -4.41953,0.192474 -2.3352,0 -4.41981,-0.107717 -4.41981,-0.192474 0,-0.196726 0.957834,-0.674651 4.33166,-0.725958z" />
    <path
   id="_246041344"
   class="fil11"
   d="M12.3643 22.6643c2.36099,-0.0260789 3.56006,0.405641 3.56006,0.589044 0,0.0561264 -1.69145,0.116788 -3.50819,0.115938 -1.81646,0 -3.50705,-0.0615123 -3.50705,-0.115938 0,-0.183403 1.0939,-0.562965 3.45518,-0.589044z" />
   </g>
   <path
   id="_246062176"
   class="fil12"
   d="M12.3657 22.7868c1.34788,0 2.61271,0.280916 2.61271,0.450996 0,0.0555595 -5.19113,0.051591 -5.19113,0 0,-0.17008 1.23053,-0.450996 2.57841,-0.450996z" />
  </g>
  <ellipse
   class="fil13"
   cx="12.1185"
   cy="13.6084"
   rx="9.80066"
   ry="9.96307"
   id="ellipse85" />
  <ellipse
   class="fil14"
   cx="12.1185"
   cy="13.6084"
   rx="8.60551"
   ry="8.74812"
   id="ellipse87" />
  <path
   class="fil15"
   d="M19.6207 9.44483l0.170647 0.420948 -0.118489 0c-1.30593,-2.40777 -4.60463,-3.85316 -7.35256,-3.85316l-0.00113387 0c-2.15803,0 -4.2401,0.719722 -5.66168,2.05882 -0.701297,0.506272 -1.64269,1.33059 -2.02112,2.01006l0.0756856 -0.328821 -0.0354333 0.0612288 0.117639 -0.511091c-0.0932606,0.121891 -0.174049,0.242081 -0.238679,0.357735l0.0756856 -0.328821 -0.0354333 0.0612288 0.0133229 -0.0583942c1.47374,-2.66969 4.28432,-4.47424 7.50932,-4.47424 3.33017,0 6.21869,1.92417 7.64935,4.73786l-0.0547091 0c-0.0277797,-0.0518744 -0.0572603,-0.102615 -0.0870243,-0.153356l-0.00538587 0z"
   id="path89" />
  <path
   class="fil16"
   d="M19.3398 9.96301c0.574871,1.13245 0.899724,2.41712 0.899724,3.77946 0,4.55815 -3.63716,8.2554 -8.12161,8.2554 -4.48303,0 -8.12019,-3.69726 -8.12019,-8.2554 0,-1.36234 0.325136,-2.64701 0.900007,-3.77946l0.801644 0c-0.631564,1.11119 -0.993551,2.4021 -0.993551,3.77946 0,2.08688 0.831408,3.97647 2.17391,5.34165 1.33995,1.36206 3.19297,2.20566 5.23818,2.20566 2.04578,0 3.89909,-0.843597 5.23903,-2.20509 1.3425,-1.36518 2.17447,-3.25477 2.17447,-5.34222 0,-1.37737 -0.361704,-2.66827 -0.993551,-3.77946l0.801928 0z"
   id="path91" />
  <path
   class="fil16"
   d="M19.7582 9.61434c0.608036,1.19821 0.951882,2.55715 0.951882,3.9983 0,4.82234 -3.84778,8.7339 -8.59216,8.7339 -4.74297,0 -8.59074,-3.91156 -8.59074,-8.7339 0,-1.44115 0.343845,-2.80009 0.952165,-3.9983l0.848133 0c-0.668415,1.17554 -1.05109,2.54128 -1.05109,3.9983 0,2.20792 0.879597,4.20721 2.30005,5.65119 1.41733,1.44115 3.37751,2.3335 5.54149,2.3335 2.16427,0 4.12501,-0.892353 5.54263,-2.33293 1.42045,-1.44398 2.30033,-3.44327 2.30033,-5.65176 0,-1.45702 -0.38268,-2.82276 -1.05109,-3.9983l0.848416 0z"
   id="path93" />
  <polygon
   class="fil17"
   points="17.429,13.7867 13.2314,16.2106 9.0338,18.634 9.0338,13.7867 9.0338,8.93913 13.2314,11.3628 "
   id="polygon95" />
  <path
   class="fil18"
   d="M2.82843 10.0095c1.12791,0 1.37793,1.94146 1.37793,4.28942 0,2.34796 -0.250018,4.216 -1.37793,4.216 -1.1282,0 -2.66657,-1.90518 -2.66657,-4.25314 0,-2.34796 1.53837,-4.25229 2.66657,-4.25229z"
   id="path97" />
  <path
   class="fil19"
   d="M21.1897 10.0095c-1.12791,0 -1.37793,1.94146 -1.37793,4.28942 0,2.34796 0.250018,4.216 1.37793,4.216 1.1282,0 2.66657,-1.90518 2.66657,-4.25314 0,-2.34796 -1.53837,-4.25229 -2.66657,-4.25229z"
   id="path99" />
  <path
   class="fil20"
   d="M3.80979 15.5232c-0.152505,1.07321 -0.462051,1.76628 -1.05223,1.76628 -0.781801,0 -1.79264,-1.24102 -2.15378,-2.95429l0.369924 0.0762526c0.465169,1.24187 1.56644,1.46155 2.08943,1.46155 0.522713,0 0.5658,0.206364 0.746652,-0.349798z"
   id="path101" />
  <path
   class="fil20"
   d="M20.2083 15.5232c0.152505,1.07321 0.462051,1.76628 1.05223,1.76628 0.781801,0 1.79264,-1.24102 2.15378,-2.95429l-0.369924 0.0762526c-0.465169,1.24187 -1.56644,1.46155 -2.08943,1.46155 -0.522713,0 -0.5658,0.206364 -0.746652,-0.349798z"
   id="path103" />
  <path
   class="fil21"
   d="M2.82843 9.75891c0.701864,0 1.12083,0.557863 1.35355,1.45248 0.209765,0.804195 0.274963,1.89724 0.274963,3.0878 0,1.19169 -0.0651974,2.26745 -0.274963,3.05294 -0.23386,0.875062 -0.652257,1.41308 -1.35355,1.41308 -0.684856,0 -1.48423,-0.586493 -2.06846,-1.51768l0 -0.00141733c-0.495216,-0.790305 -0.638084,-1.80086 -0.638084,-2.94579 0,-1.14521 0.142867,-2.23173 0.638084,-3.02232l0 -0.00113387c0.584225,-0.931188 1.3836,-1.51796 2.06846,-1.51796zm0.870243 1.57778c-0.172348,-0.663029 -0.445326,-1.07661 -0.870243,-1.07661 -0.516477,0 -1.15258,0.495783 -1.64666,1.28269l-0.000566934 -0.000566934c-0.448444,0.717171 -0.768762,1.6716 -0.768762,2.71958 0,1.04826 0.320317,2.00298 0.768762,2.72043l0.000566934 -0.000566934c0.494083,0.786904 1.13018,1.28269 1.64666,1.28269 0.426051,0 0.698462,-0.39657 0.870243,-1.04117 0.196159,-0.734462 0.257104,-1.76883 0.257104,-2.92396 0,-1.15711 -0.0609454,-2.21047 -0.257104,-2.96251z"
   id="path105" />
  <path
   class="fil21"
   d="M21.1897 9.75891c-0.701864,0 -1.12083,0.557863 -1.35355,1.45248 -0.209765,0.804195 -0.274963,1.89724 -0.274963,3.0878 0,1.19169 0.0651974,2.26745 0.274963,3.05294 0.23386,0.875062 0.652257,1.41308 1.35355,1.41308 0.684856,0 1.48423,-0.586493 2.06846,-1.51768l0 -0.00141733c0.495216,-0.790305 0.638084,-1.80086 0.638084,-2.94579 0,-1.14521 -0.142867,-2.23173 -0.638084,-3.02232l0 -0.00113387c-0.584225,-0.931188 -1.3836,-1.51796 -2.06846,-1.51796zm-0.870243 1.57778c0.172348,-0.663029 0.445326,-1.07661 0.870243,-1.07661 0.516477,0 1.15258,0.495783 1.64666,1.28269l0.000566934 -0.000566934c0.448444,0.717171 0.768762,1.6716 0.768762,2.71958 0,1.04826 -0.320317,2.00298 -0.768762,2.72043l-0.000566934 -0.000566934c-0.494083,0.786904 -1.13018,1.28269 -1.64666,1.28269 -0.426051,0 -0.698462,-0.39657 -0.870243,-1.04117 -0.196159,-0.734462 -0.257104,-1.76883 -0.257104,-2.92396 0,-1.15711 0.0609454,-2.21047 0.257104,-2.96251z"
   id="path107" />
  <path
   class="fil22"
   d="M3.77153 16.519c-0.152505,1.07292 -0.462051,1.766 -1.05251,1.766 -0.781518,0 -1.79236,-1.24073 -2.1535,-2.95429l0.446177 0c0.464886,1.24187 1.25831,2.07384 1.89838,2.07384 0.406491,0 0.680604,-0.329672 0.861456,-0.88555z"
   id="path109" />
  <path
   class="fil22"
   d="M20.2466 16.519c0.152505,1.07292 0.462051,1.766 1.05251,1.766 0.781518,0 1.79236,-1.24073 2.1535,-2.95429l-0.446177 0c-0.464886,1.24187 -1.25831,2.07384 -1.89838,2.07384 -0.406491,0 -0.680604,-0.329672 -0.861456,-0.88555z"
   id="path111" />
  <path
   class="fil23"
   d="M3.38431 8.89887l1.35639 0c0.19871,0 0.359436,0.233293 0.360853,0.517327l0.0394019 9.47516c0.00141733,0.283183 -0.163277,0.51676 -0.36057,0.51676l-1.35667 0c-0.197293,0 -0.360003,-0.231876 -0.36057,-0.51676l-0.0396854 -9.47516c-0.000566934,-0.284884 0.162143,-0.517327 0.360853,-0.517327z"
   id="path113" />
  <path
   class="fil23"
   d="M20.6338 8.89887l-1.35639 0c-0.19871,0 -0.359436,0.233293 -0.360853,0.517327l-0.0394019 9.47516c-0.00141733,0.283183 0.163277,0.51676 0.36057,0.51676l1.35667 0c0.197293,0 0.360003,-0.231876 0.36057,-0.51676l0.0396854 -9.47516c0.000566934,-0.284884 -0.162143,-0.517327 -0.360853,-0.517327z"
   id="path115" />
  <path
   class="fil24"
   d="M5.27872 9.55028l1.04826 0.0759691c0.167812,0.0116221 0.276664,0.225073 0.30501,0.48246l1.12225 10.2541c0.0280632,0.257955 -0.547658,0.198427 -0.701013,0.0992134l-1.83998 -1.18716c-0.153922,-0.0992134 -0.281199,-0.21997 -0.305294,-0.482177l-0.824605 -8.72142c-0.0240947,-0.262207 1.02728,-0.532634 1.19538,-0.521012z"
   id="path117" />
  <g
   id="_246047992">
   <path
   id="_246233384"
   class="fil25"
   d="M5.16902 9.53752c0.324853,0.025512 0.649422,0.0507406 0.973992,0.0759691 0.167812,0.0130395 0.23301,0.167529 0.255687,0.424917 0.299341,3.35596 0.598965,6.71249 0.898023,10.0687 0.0223939,0.257955 -0.562965,0.222521 -0.701013,0.0992134 -0.513925,-0.342428 -1.02842,-0.685139 -1.54291,-1.02757 -0.138332,-0.123308 -0.282333,-0.21997 -0.305294,-0.482177 -0.257671,-2.87946 -0.51591,-5.75919 -0.773864,-8.63808 -0.0226773,-0.26249 1.02728,-0.534335 1.19538,-0.521012z" />
   <path
   id="_246231824"
   class="fil26"
   d="M5.05875 9.52448c0.299908,0.025512 0.600099,0.051024 0.899724,0.0762526 0.167812,0.0144568 0.189356,0.110269 0.20608,0.367373 0.225073,3.29417 0.449862,6.5889 0.674368,9.88364 0.0167245,0.257671 -0.578556,0.246616 -0.701013,0.0992134 -0.415279,-0.28942 -0.830558,-0.578556 -1.24612,-0.867975 -0.123025,-0.147403 -0.28375,-0.219687 -0.30501,-0.482177 -0.240947,-2.85196 -0.482177,-5.70392 -0.723407,-8.55503 -0.0215435,-0.26249 1.02757,-0.535752 1.19538,-0.521295z" />
   <path
   id="_246218912"
   class="fil27"
   d="M4.94848 9.51144c0.275246,0.025512 0.550493,0.0507406 0.825455,0.0759691 0.167812,0.0161576 0.145418,0.0530083 0.156757,0.309829 0.150237,3.23294 0.300191,6.46588 0.450145,9.6991 0.0110552,0.257388 -0.593863,0.270427 -0.701013,0.0992134 -0.316065,-0.236411 -0.632414,-0.472539 -0.949047,-0.708667 -0.107434,-0.171497 -0.284884,-0.219687 -0.30501,-0.482177 -0.224222,-2.82418 -0.448444,-5.64836 -0.672667,-8.47226 -0.0201261,-0.26249 1.02757,-0.53717 1.19538,-0.521012z" />
   <path
   id="_246205040"
   class="fil28"
   d="M4.83821 9.49897c0.250585,0.025512 0.500886,0.0507406 0.75147,0.0759691 0.167529,0.0178584 0.101481,-0.00453547 0.10715,0.252285 0.0754022,3.17114 0.150804,6.34257 0.226207,9.514 0.00538587,0.257388 -0.60917,0.294239 -0.701013,0.0992134 -0.217136,-0.18312 -0.434555,-0.366239 -0.651974,-0.549075 -0.0921267,-0.195876 -0.286301,-0.219687 -0.305294,-0.48246 -0.207214,-2.7964 -0.414428,-5.5928 -0.621926,-8.38892 -0.0187088,-0.262774 1.02757,-0.53887 1.19538,-0.521012z" />
   <path
   id="_246211064"
   class="fil29"
   d="M4.72794 9.48565c0.22564,0.025512 0.451563,0.051024 0.677202,0.0762526 0.167529,0.0192757 0.0578272,-0.0617958 0.0575438,0.194742 0.00113387,3.10935 0.0017008,6.21898 0.00226773,9.32889 -0.000283467,0.257104 -0.624477,0.318333 -0.701013,0.0992134 -0.118206,-0.130111 -0.236411,-0.259656 -0.3549,-0.389483 -0.0768195,-0.21997 -0.287719,-0.219403 -0.30501,-0.48246 -0.19049,-2.76862 -0.380979,-5.53752 -0.571469,-8.30586 -0.0175749,-0.262774 1.02785,-0.540288 1.19538,-0.521295z" />
  </g>
  <path
   class="fil30"
   d="M4.61711 9.47318l0.602934 0.0762526c0.167529,0.0206931 0.0141733,-0.11934 0.00822054,0.137198l-0.221671 9.14407c-0.0059528,0.257104 -0.640068,0.342428 -0.701013,0.0992134l-0.0581107 -0.229892c-0.0612288,-0.244065 -0.288853,-0.219403 -0.30501,-0.48246l-0.520729 -8.22309c-0.0161576,-0.263057 1.02785,-0.541989 1.19538,-0.521295z"
   id="path125" />
  <path
   class="fil24"
   d="M18.7394 9.55028l-1.04826 0.0759691c-0.167812,0.0116221 -0.276664,0.225073 -0.30501,0.48246l-1.12225 10.2541c-0.0280632,0.257955 0.547658,0.198427 0.701013,0.0992134l1.83998 -1.18716c0.153922,-0.0992134 0.281199,-0.21997 0.305294,-0.482177l0.824605 -8.72142c0.0240947,-0.262207 -1.02728,-0.532634 -1.19538,-0.521012z"
   id="path127" />
  <g
   id="_246039208">
   <path
   id="_246214784"
   class="fil25"
   d="M18.8497 9.53752c-0.324853,0.025512 -0.649422,0.0507406 -0.973992,0.0759691 -0.167812,0.0130395 -0.23301,0.167529 -0.255687,0.424917 -0.299341,3.35596 -0.598965,6.71249 -0.898023,10.0687 -0.0223939,0.257955 0.562965,0.222521 0.701013,0.0992134 0.513925,-0.342428 1.02842,-0.685139 1.54291,-1.02757 0.138332,-0.123308 0.282333,-0.21997 0.305294,-0.482177 0.257671,-2.87946 0.51591,-5.75919 0.773864,-8.63808 0.0226773,-0.26249 -1.02728,-0.534335 -1.19538,-0.521012z" />
   <path
   id="_246233120"
   class="fil26"
   d="M18.96 9.52448c-0.299908,0.025512 -0.600099,0.051024 -0.899724,0.0762526 -0.167812,0.0144568 -0.189356,0.110269 -0.20608,0.367373 -0.225073,3.29417 -0.449862,6.5889 -0.674368,9.88364 -0.0167245,0.257671 0.578556,0.246616 0.701013,0.0992134 0.415279,-0.28942 0.830558,-0.578556 1.24612,-0.867975 0.123025,-0.147403 0.28375,-0.219687 0.30501,-0.482177 0.240947,-2.85196 0.482177,-5.70392 0.723407,-8.55503 0.0215435,-0.26249 -1.02757,-0.535752 -1.19538,-0.521295z" />
   <path
   id="_246210872"
   class="fil27"
   d="M19.0702 9.51144c-0.275246,0.025512 -0.550493,0.0507406 -0.825455,0.0759691 -0.167812,0.0161576 -0.145418,0.0530083 -0.156757,0.309829 -0.150237,3.23294 -0.300191,6.46588 -0.450145,9.6991 -0.0110552,0.257388 0.593863,0.270427 0.701013,0.0992134 0.316065,-0.236411 0.632414,-0.472539 0.949047,-0.708667 0.107434,-0.171497 0.284884,-0.219687 0.30501,-0.482177 0.224222,-2.82418 0.448444,-5.64836 0.672667,-8.47226 0.0201261,-0.26249 -1.02757,-0.53717 -1.19538,-0.521012z" />
   <path
   id="_246215528"
   class="fil28"
   d="M19.1805 9.49897c-0.250585,0.025512 -0.500886,0.0507406 -0.75147,0.0759691 -0.167529,0.0178584 -0.101481,-0.00453547 -0.10715,0.252285 -0.0754022,3.17114 -0.150804,6.34257 -0.226207,9.514 -0.00538587,0.257388 0.60917,0.294239 0.701013,0.0992134 0.217136,-0.18312 0.434555,-0.366239 0.651974,-0.549075 0.0921267,-0.195876 0.286301,-0.219687 0.305294,-0.48246 0.207214,-2.7964 0.414428,-5.5928 0.621926,-8.38892 0.0187088,-0.262774 -1.02757,-0.53887 -1.19538,-0.521012z" />
   <path
   id="_246217280"
   class="fil29"
   d="M19.2908 9.48565c-0.22564,0.025512 -0.451563,0.051024 -0.677202,0.0762526 -0.167529,0.0192757 -0.0578272,-0.0617958 -0.0575438,0.194742 -0.00113387,3.10935 -0.0017008,6.21898 -0.00226773,9.32889 0.000283467,0.257104 0.624477,0.318333 0.701013,0.0992134 0.118206,-0.130111 0.236411,-0.259656 0.3549,-0.389483 0.0768195,-0.21997 0.287719,-0.219403 0.30501,-0.48246 0.19049,-2.76862 0.380979,-5.53752 0.571469,-8.30586 0.0175749,-0.262774 -1.02785,-0.540288 -1.19538,-0.521295z" />
  </g>
  <path
   class="fil30"
   d="M19.401 9.47318l-0.602934 0.0762526c-0.167529,0.0206931 -0.0141733,-0.11934 -0.00822054,0.137198l0.221671 9.14407c0.0059528,0.257104 0.640068,0.342428 0.701013,0.0992134l0.0581107 -0.229892c0.0612288,-0.244065 0.288853,-0.219403 0.30501,-0.48246l0.520729 -8.22309c0.0161576,-0.263057 -1.02785,-0.541989 -1.19538,-0.521295z"
   id="path135" />
  <path
   class="fil24"
   d="M18.8313 9.47403l-1.13557 0.0759691c-0.181986,0.0116221 -0.299624,0.225073 -0.330239,0.48246l-1.21551 10.2541c-0.0306144,0.257955 0.593013,0.198427 0.759124,0.0992134l1.99277 -1.18716c0.166678,-0.0992134 0.304443,-0.21997 0.330522,-0.482177l0.893487 -8.72142c0.0260789,-0.262207 -1.11289,-0.532634 -1.29459,-0.521012z"
   id="path137" />
  <path
   class="fil31"
   d="M3.69187 9.41563l0.647438 0c0.0949614,0 0.172064,0.2126 0.172348,0.469138l0.0192757 8.61427c0.000283467,0.256821 -0.0785203,0.469138 -0.172915,0.469138l-0.647155 0c-0.0943944,0 -0.172064,-0.210899 -0.172064,-0.469138l-0.0189923 -8.61427c0,-0.258238 0.0773864,-0.469138 0.172064,-0.469138z"
   id="path139" />
  <path
   class="fil32"
   d="M20.3263 9.41563l-0.647438 0c-0.0949614,0 -0.172064,0.2126 -0.172348,0.469138l-0.0192757 8.61427c-0.000283467,0.256821 0.0785203,0.469138 0.172915,0.469138l0.647155 0c0.0943944,0 0.172064,-0.210899 0.172064,-0.469138l0.0189923 -8.61427c0,-0.258238 -0.0773864,-0.469138 -0.172064,-0.469138z"
   id="path141" />
  <path
   class="fil33"
   d="M3.76359 10.4693l0.497484 0.0377011c0.0986464,0.0076536 0.287719,-1.02417 0.287719,-0.991283l0.0204096 4.33789c0,0.0331656 -0.235844,-2.13989 -0.317483,-2.12147l-0.511941 0.115088c-0.0816384,0.0184253 -0.257955,1.88534 -0.257955,1.83403l0.0093544 -4.18482c0,-0.0334491 0.174049,0.965488 0.272412,0.972858z"
   id="path143" />
  <path
   class="fil33"
   d="M20.2546 10.4693l-0.497484 0.0377011c-0.0986464,0.0076536 -0.287719,-1.02417 -0.287719,-0.991283l-0.0204096 4.33789c0,0.0331656 0.235844,-2.13989 0.317483,-2.12147l0.511941 0.115088c0.0816384,0.0184253 0.257955,1.88534 0.257955,1.83403l-0.0093544 -4.18482c0,-0.0334491 -0.174049,0.965488 -0.272412,0.972858z"
   id="path145" />
  <path
   class="fil34"
   d="M1.31585 12.3149c0,-0.650556 0.589044,-1.29318 0.89292,-1.29318 0.303593,0 0.244632,0.642619 0.244632,1.29318 0,0.650556 -0.208065,1.06357 -0.511941,1.06357 -0.303593,0 -0.625611,-0.413011 -0.625611,-1.06357z"
   id="path147" />
  <path
   class="fil35"
   d="M22.7023 12.3149c0,-0.650556 -0.589044,-1.29318 -0.89292,-1.29318 -0.303593,0 -0.244632,0.642619 -0.244632,1.29318 0,0.650556 0.208065,1.06357 0.511941,1.06357 0.303593,0 0.625611,-0.413011 0.625611,-1.06357z"
   id="path149" />
  <path
   class="fil36"
   d="M0.282333 12.1531l0.464886 0c0.150521,0 0.273262,0.241797 0.273262,0.536603l0 3.40614c0,0.294805 -0.123308,0.536603 -0.273262,0.536603l-0.464886 0c-0.149954,0 -0.273262,-0.24123 -0.273262,-0.536603l0 -3.40614c0,-0.295372 0.122741,-0.536603 0.273262,-0.536603z"
   id="path151" />
  <path
   class="fil37"
   d="M23.7358 12.1531l-0.464886 0c-0.150521,0 -0.273262,0.241797 -0.273262,0.536603l0 3.40614c0,0.294805 0.123308,0.536603 0.273262,0.536603l0.464886 0c0.149954,0 0.273262,-0.24123 0.273262,-0.536603l0 -3.40614c0,-0.295372 -0.122741,-0.536603 -0.273262,-0.536603z"
   id="path153" />
  <path
   class="fil38"
   d="M0.60265 12.8042l0.263057 0c0.0853235,0 0.154773,0.0683155 0.154773,0.151371l0 0.960669c0,0.0830558 -0.0700163,0.151371 -0.154773,0.151371l-0.263057 0c-0.0847566,0 -0.154773,-0.068032 -0.154773,-0.151371l0 -0.960669c0,-0.0833392 0.0694494,-0.151371 0.154773,-0.151371z"
   id="path155" />
  <path
   class="fil38"
   d="M23.4155 12.8042l-0.263057 0c-0.0853235,0 -0.154773,0.0683155 -0.154773,0.151371l0 0.960669c0,0.0830558 0.0700163,0.151371 0.154773,0.151371l0.263057 0c0.0847566,0 0.154773,-0.068032 0.154773,-0.151371l0 -0.960669c0,-0.0833392 -0.0694494,-0.151371 -0.154773,-0.151371z"
   id="path157" />
  <path
   class="fil39"
   d="M3.54929 9.76061l0.432854 1.29828 0.384948 0.0802211c0.0955283,0.0198427 0.180568,0.0581107 0.181986,0.126143l0.0394019 1.64269c0.00141733,0.0683155 -0.0836227,0.125859 -0.182553,0.125859l-0.314081 0 0.0119056 0.00992134c0.0629296,0.0527248 -0.57317,2.47013 -0.57317,2.40068l-0.0107717 -4.39005c0,-0.0694494 0.00737014,-1.36007 0.0294805,-1.29374z"
   id="path159" />
  <path
   class="fil39"
   d="M20.4689 9.76061l-0.432854 1.29828 -0.384948 0.0802211c-0.0955283,0.0198427 -0.180568,0.0581107 -0.181986,0.126143l-0.0394019 1.64269c-0.00141733,0.0683155 0.0836227,0.125859 0.182553,0.125859l0.314081 0 -0.0119056 0.00992134c-0.0629296,0.0527248 0.57317,2.47013 0.57317,2.40068l0.0107717 -4.39005c0,-0.0694494 -0.00737014,-1.36007 -0.0294805,-1.29374z"
   id="path161" />
  <path
   class="fil40"
   d="M3.72589 18.3363l0.564949 0c0.0907094,0 0.163844,0.0121891 0.164411,0.0266459l0.0181419 0.463185c0.000566934,0.0147403 -0.0742683,0.0266459 -0.164411,0.0266459l-0.618241 0c-0.089859,0 -0.164411,-0.0119056 -0.164411,-0.0266459l-0.0447878 -2.70314c0,-0.0147403 0.153922,2.21331 0.244348,2.21331z"
   id="path163" />
  <path
   class="fil40"
   d="M20.2923 18.3363l-0.564949 0c-0.0907094,0 -0.163844,0.0121891 -0.164411,0.0266459l-0.0181419 0.463185c-0.000566934,0.0147403 0.0742683,0.0266459 0.164411,0.0266459l0.618241 0c0.089859,0 0.164411,-0.0119056 0.164411,-0.0266459l0.0447878 -2.70314c0,-0.0147403 -0.153922,2.21331 -0.244348,2.21331z"
   id="path165" />
 </g>
</svg>