<?xml version="1.0" encoding="UTF-8"?>
<!DOCTYPE svg PUBLIC "-//W3C//DTD SVG 1.1//EN" "http://www.w3.org/Graphics/SVG/1.1/DTD/svg11.dtd">
<!-- Creator: CorelDRAW -->
<svg xmlns="http://www.w3.org/2000/svg" xml:space="preserve" width="72px" height="72px" style="shape-rendering:geometricPrecision; text-rendering:geometricPrecision; image-rendering:optimizeQuality; fill-rule:evenodd; clip-rule:evenodd"
viewBox="0 0 72 72"
 xmlns:xlink="http://www.w3.org/1999/xlink">
 <defs>
  <style type="text/css">
   <![CDATA[
    .fil53 {fill:none}
    .fil46 {fill:white}
    .fil14 {fill:#C9C9C9}
    .fil15 {fill:#E5E5E5}
    .fil51 {fill:white;fill-rule:nonzero}
    .fil0 {fill:black;fill-opacity:0.000000}
    .fil24 {fill:#FFF9C9;fill-opacity:0.000000}
    .fil52 {fill:#95CEFD;fill-rule:nonzero;fill-opacity:0.000000}
    .fil34 {fill:#FFF9C9;fill-opacity:0.003922}
    .fil1 {fill:black;fill-opacity:0.003922}
    .fil25 {fill:#FFF9C9;fill-opacity:0.003922}
    .fil35 {fill:#FFF9C9;fill-opacity:0.007843}
    .fil2 {fill:black;fill-opacity:0.007843}
    .fil26 {fill:#FFF9C9;fill-opacity:0.011765}
    .fil36 {fill:#FFF9C9;fill-opacity:0.011765}
    .fil3 {fill:black;fill-opacity:0.015686}
    .fil37 {fill:#FFF9C9;fill-opacity:0.015686}
    .fil27 {fill:#FFF9C9;fill-opacity:0.015686}
    .fil4 {fill:black;fill-opacity:0.019608}
    .fil38 {fill:#FFF9C9;fill-opacity:0.019608}
    .fil28 {fill:#FFF9C9;fill-opacity:0.023529}
    .fil5 {fill:black;fill-opacity:0.023529}
    .fil39 {fill:#FFF9C9;fill-opacity:0.023529}
    .fil40 {fill:#FFF9C9;fill-opacity:0.027451}
    .fil6 {fill:black;fill-opacity:0.027451}
    .fil29 {fill:#FFF9C9;fill-opacity:0.027451}
    .fil41 {fill:#FFF9C9;fill-opacity:0.031373}
    .fil7 {fill:black;fill-opacity:0.031373}
    .fil30 {fill:#FFF9C9;fill-opacity:0.031373}
    .fil42 {fill:#FFF9C9;fill-opacity:0.035294}
    .fil8 {fill:black;fill-opacity:0.035294}
    .fil43 {fill:#FFF9C9;fill-opacity:0.039216}
    .fil31 {fill:#FFF9C9;fill-opacity:0.039216}
    .fil9 {fill:black;fill-opacity:0.043137}
    .fil44 {fill:#FFF9C9;fill-opacity:0.043137}
    .fil32 {fill:#FFF9C9;fill-opacity:0.043137}
    .fil10 {fill:black;fill-opacity:0.047059}
    .fil45 {fill:#FFF9C9;fill-opacity:0.047059}
    .fil33 {fill:#FFF9C9;fill-opacity:0.050980}
    .fil11 {fill:black;fill-opacity:0.050980}
    .fil12 {fill:black;fill-opacity:0.054902}
    .fil13 {fill:black;fill-opacity:0.058824}
    .fil55 {fill:#B2B2B2;fill-rule:nonzero;fill-opacity:0.121569}
    .fil22 {fill:black;fill-opacity:0.219608}
    .fil23 {fill:#4A7FB8;fill-opacity:0.219608}
    .fil47 {fill:#A0DFFF;fill-opacity:0.219608}
    .fil16 {fill:#A4A5A7;fill-opacity:0.439216}
    .fil20 {fill:white;fill-opacity:0.439216}
    .fil50 {fill:#808385;fill-rule:nonzero;fill-opacity:0.439216}
    .fil48 {fill:#333333;fill-opacity:0.501961}
    .fil54 {fill:#D1CFCF;fill-rule:nonzero;fill-opacity:0.501961}
    .fil19 {fill:url(#id0)}
    .fil21 {fill:url(#id1)}
    .fil17 {fill:url(#id2)}
    .fil18 {fill:url(#id3)}
    .fil49 {fill:url(#id4);fill-rule:nonzero}
    .fil57 {fill:url(#id5);fill-rule:nonzero}
    .fil56 {fill:url(#id6);fill-rule:nonzero}
   ]]>
  </style>
  <linearGradient id="id0" gradientUnits="userSpaceOnUse" x1="35.6409" y1="9.95551" x2="35.9421" y2="34.5709">
   <stop offset="0" style="stop-color:#EDEDED"/>
   <stop offset="1" style="stop-color:#D1CFCF"/>
  </linearGradient>
  <linearGradient id="id1" gradientUnits="userSpaceOnUse" x1="36.1925" y1="60.535" x2="35.7839" y2="18.2445">
   <stop offset="0" style="stop-color:#2E2E2E"/>
   <stop offset="1" style="stop-color:#4A4A4A"/>
  </linearGradient>
  <linearGradient id="id2" gradientUnits="userSpaceOnUse" x1="36.1795" y1="50.5382" x2="35.8583" y2="28.7138">
   <stop offset="0" style="stop-color:#B0B0B0"/>
   <stop offset="1" style="stop-color:#BEBEBE"/>
  </linearGradient>
  <linearGradient id="id3" gradientUnits="userSpaceOnUse" x1="36.1807" y1="50.3917" x2="35.8559" y2="28.402">
   <stop offset="0" style="stop-color:#B0B0B0"/>
   <stop offset="1" style="stop-color:#CCCCCC"/>
  </linearGradient>
  <linearGradient id="id4" gradientUnits="userSpaceOnUse" x1="36.5717" y1="13.6878" x2="35.4047" y2="65.0894">
   <stop offset="0" style="stop-color:#7F7F7F"/>
   <stop offset="1" style="stop-color:#999999"/>
  </linearGradient>
  <linearGradient id="id5" gradientUnits="userSpaceOnUse" x1="2.58307" y1="61.1161" x2="4.42795" y2="17.752">
   <stop offset="0" style="stop-color:#B8B8B8"/>
   <stop offset="1" style="stop-color:white"/>
  </linearGradient>
  <linearGradient id="id6" gradientUnits="userSpaceOnUse" x1="35.3067" y1="60.5634" x2="36.5539" y2="16.4185">
   <stop offset="0" style="stop-color:#808385"/>
   <stop offset="1" style="stop-color:#999999"/>
  </linearGradient>
 </defs>
 <g id="Слой_x0020_1">
  <metadata id="CorelCorpID_0Corel-Layer"/>
  <g id="_63828304">
   <path id="_58547280" class="fil0" d="M34.3937 60.8835c35.2961,-1.41378 40.0571,4.04173 40.2106,8.46969 0.153543,4.42795 -18.3106,1.90984 -38.8902,2.67402 -20.5783,0.764173 -37.9311,1.40787 -37.9311,-1.87441 0,-3.28228 1.31457,-7.85433 36.6106,-9.26929z"/>
   <g>
    <path id="_122580232" class="fil1" d="M34.4752 61.428c33.7984,-1.30394 39.6413,3.85866 39.7831,8.02559 0.141732,4.09961 -18.2079,1.7811 -38.5098,2.4874 -20.3031,0.705118 -37.6276,1.29331 -37.6276,-1.74921 0,-3.10866 2.55591,-7.45748 36.3543,-8.76378z"/>
    <path id="_60161024" class="fil2" d="M34.5555 61.9724c32.302,-1.19646 39.2268,3.67441 39.3567,7.57913 0.129921,3.77244 -18.1075,1.65472 -38.1331,2.30079 -20.0256,0.647244 -37.3228,1.17874 -37.3228,-1.62283 0,-2.93504 3.79606,-7.05945 36.0992,-8.25709z"/>
    <path id="_58932888" class="fil3" d="M34.6346 62.5169c30.8055,-1.08661 38.8122,3.49134 38.9303,7.13504 0.11811,3.44409 -18.0047,1.52598 -37.7539,2.11417 -19.7504,0.588189 -37.0181,1.06417 -37.0181,-1.49646 0,-2.7626 5.03622,-6.66378 35.8417,-7.75276z"/>
    <path id="_62388280" class="fil4" d="M34.715 63.0614c29.3091,-0.979134 38.3976,3.30709 38.5039,6.68858 0.106299,3.11811 -17.9043,1.39961 -37.3772,1.92756 -19.4728,0.529134 -36.7134,0.949606 -36.7134,-1.37008 0,-2.58898 6.27638,-6.26693 35.5866,-7.24606z"/>
    <path id="_61550256" class="fil5" d="M34.7941 63.6071c27.8126,-0.869291 37.9831,3.12402 38.0776,6.24449 0.0944882,2.78976 -17.8016,1.27087 -36.998,1.74094 -19.1976,0.470079 -36.4098,0.835039 -36.4098,-1.24488 0,-2.41535 7.51772,-5.8689 35.3303,-6.74055z"/>
    <path id="_123705864" class="fil6" d="M34.8744 64.1539c26.315,-0.761811 37.5685,2.93976 37.6512,5.79921 0.0826772,2.46142 -17.7,1.14213 -36.6213,1.55433 -18.9201,0.411024 -36.1051,0.720472 -36.1051,-1.11969 0,-2.24173 8.75787,-5.47205 35.0752,-6.23386z"/>
    <path id="_48151496" class="fil7" d="M34.9535 64.6961c24.8197,-0.651969 37.1539,2.75551 37.2248,5.35394 0.0708661,2.13425 -17.5984,1.01575 -36.2421,1.36772 -18.6449,0.35315 -35.8004,0.605906 -35.8004,-0.992126 0,-2.07047 9.99803,-5.07638 34.8177,-5.72953z"/>
    <path id="_121223336" class="fil8" d="M35.0339 65.2429c23.322,-0.544488 36.7394,2.57126 36.7984,4.90866 0.0590551,1.80591 -17.4969,0.887008 -35.8654,1.1811 -18.3673,0.294094 -35.4957,0.491339 -35.4957,-0.866929 0,-1.89685 11.2382,-4.67953 34.5626,-5.22283z"/>
    <path id="_64117672" class="fil9" d="M35.113 65.7886c21.8256,-0.434646 36.3248,2.38819 36.372,4.46457 0.0472441,1.47756 -17.3941,0.758268 -35.4862,0.994488 -18.0921,0.235039 -35.1921,0.376772 -35.1921,-0.741732 0,-1.72323 12.4795,-4.2815 34.3063,-4.71732z"/>
    <path id="_21416648" class="fil10" d="M35.1933 66.3331c20.3291,-0.327165 35.9102,2.20394 35.9457,4.01811 0.0354331,1.15157 -17.2937,0.63189 -35.1106,0.807874 -17.8134,0.175984 -34.8862,0.262205 -34.8862,-0.615354 0,-1.54961 13.7197,-3.88465 34.0512,-4.21063z"/>
    <path id="_64458616" class="fil11" d="M35.2724 66.8776c18.8327,-0.217323 35.4957,2.02087 35.5193,3.57402 0.023622,0.823228 -17.1909,0.50315 -34.7315,0.62126 -17.5382,0.116929 -34.5815,0.147638 -34.5815,-0.488976 0,-1.37717 14.9598,-3.48898 33.7937,-3.7063z"/>
    <path id="_61439656" class="fil12" d="M35.3528 67.422c17.3362,-0.109843 35.0811,1.83661 35.0929,3.12756 0.011811,0.496063 -17.0906,0.376772 -34.3547,0.434646 -17.2606,0.0590551 -34.2768,0.0330709 -34.2768,-0.362598 0,-1.20354 16.2,-3.09094 33.5386,-3.19961z"/>
   </g>
   <path id="_63828344" class="fil13" d="M35.4295 67.9689c15.8409,0 34.6677,1.65354 34.6677,2.68346 0,0.336614 -67.95,0.322441 -67.95,0.0106299 0,-1.02992 17.4413,-2.69409 33.2823,-2.69409z"/>
  </g>
  <path class="fil14" d="M4.34409 7.92638l63.3661 0c2.22992,0 3.72638,1.04646 3.69449,3.63425l-0.0614173 4.9063 -70.6323 0 0 -4.9063c0,-2.05866 1.47402,-3.74409 3.63307,-3.63425z"/>
  <path class="fil15" d="M70.5579 9.02717c-0.506693,-0.552756 -0.888189,-0.244488 -1.70079,-0.350787l-0.519685 1.29921 1.89685 0.761811 0.323622 -1.71024z"/>
  <path class="fil16" d="M72 10.7776c-0.505512,-0.552756 -0.773622,-1.38543 -1.58622,-1.49173l-0.558661 1.22362 1.78346 1.40669 0.361417 -1.13858z"/>
  <path class="fil16" d="M0.770079 10.6264c0.505512,-0.552756 0.774803,-1.38543 1.58622,-1.49173l0.558661 1.22362 -2.39055 2.96693 0.245669 -2.69882z"/>
  <path class="fil15" d="M1.83307 8.87598c0.505512,-0.552756 0.888189,-0.244488 1.70079,-0.350787l0.519685 1.29921 -1.89685 0.761811 -0.323622 -1.71024z"/>
  <path class="fil17" d="M4.26496 9.82677l63.5067 0c1.94291,0 3.53386,1.59685 3.53386,3.53268l0 52.5319c0,1.93819 -1.59331,3.53386 -3.53386,3.53386 -23.2713,0 -23.8134,0 -63.5067,0 -1.93937,0 -3.53268,-1.58976 -3.53268,-3.53386l0 -52.5319c0,-1.94291 1.58976,-3.53268 3.53268,-3.53268z"/>
  <path class="fil18" d="M4.26496 9.3685l63.5067 0c1.94291,0 3.53386,1.59803 3.53386,3.53268l0 52.9902c0,1.93701 -1.59331,3.53386 -3.53386,3.53386 -23.2713,0 -23.8134,0 -63.5067,0 -1.93937,0 -3.53268,-1.58976 -3.53268,-3.53386l0 -52.9902c0,-1.94291 1.58976,-3.53268 3.53268,-3.53268z"/>
  <path class="fil19" d="M71.0776 30.1264c-15.5799,4.80118 -52.7138,3.54094 -70.5732,2.59134l0 -19.5874c0,-1.94291 1.58976,-3.53268 3.53268,-3.53268l63.5067 0c1.94409,0 3.53386,1.59803 3.53386,3.53268l0 16.9961z"/>
  <path class="fil20" d="M71.0067 65.5193c0,0.15 -0.00944882,0.297638 -0.0283465,0.444094 -0.00708661,0.571654 -0.153543,1.11378 -0.406299,1.59213 -0.0850394,0.103937 -0.173622,0.201969 -0.266929,0.296457 -0.692126,0.690945 -1.64646,1.12205 -2.69291,1.12205l-63.9945 0c-0.960236,0 -1.84252,-0.361417 -2.51575,-0.954331 -0.438189,-0.58937 -0.69685,-1.31575 -0.69685,-2.1l0 -0.253937c0.0129921,0.0850394 0.0307087,0.170079 0.0507874,0.252756 -0.0153543,-0.131102 -0.0224409,-0.264567 -0.0224409,-0.399213l0 -0.253937c0.108661,0.693307 0.43937,1.31575 0.915354,1.79055 0.58937,0.58937 1.40315,0.956693 2.29724,0.956693l63.9945 0c0.892913,0 1.70669,-0.367323 2.29606,-0.956693 0.493701,-0.493701 0.832677,-1.14449 0.929528,-1.86732l0 -0.0283465 0.0389764 -27.1713c0.132283,-61.7941 0.101575,9.90709 0.101575,27.5303z"/>
  <path class="fil21" d="M4.43622 16.0087l0 46.9217c0.11811,1.49646 2.00906,2.58898 3.36142,2.58425l56.8311 -0.187795c1.95472,-0.0543307 2.84528,-1.36535 2.91142,-3.08268l0 -46.1232c0,-1.80827 -1.07835,-2.79685 -3.02244,-2.79803l-56.9197 -0.0602362c-1.81299,-0.0011811 -3.16299,0.948425 -3.16181,2.74606z"/>
  <path class="fil22" d="M3.49488 16.3264l0 47.6504c0.11811,1.49646 2.00787,2.5878 3.36142,2.58425l58.7138 -0.188976c1.95472,-0.0531496 2.84528,-1.36417 2.9126,-3.0815l0 -46.852c0,-1.80827 -1.07953,-2.79567 -3.02362,-2.79803l-58.8035 -0.0590551c-1.81772,-0.0023622 -3.16181,0.947244 -3.16063,2.74488zm60.5256 0.638976l-56.1213 0 0.0850394 44.6634 56.1201 0 -0.0838583 -44.6634z"/>
  <path class="fil23" d="M29.9114 18.8492l-1.01575 0 0 -1.01339 1.01575 0 0 1.01339zm32.1543 0.101575l-1.01575 0 0 -1.01339 1.01575 0 0 1.01339zm0 8.09055l-1.01575 0 0 -1.01339 1.01575 0 0 1.01339zm-0.0248031 -4.04528l-1.01575 0 0 -1.01339 1.01575 0 0 1.01339zm1.99488 2.11181l-0.989764 0 0 -1.05591 0.987402 0 0.0023622 1.05591zm-1.94409 -0.0507874l-1.01575 0 0 -1.01339 1.01575 0 0 1.01339zm1.94055 -2.01024l-1.03701 0 0 -1.05591 1.03465 0 0.0023622 1.05591zm0.0106299 6.1063l-0.972047 0 0 -1.05591 0.970866 0 0.0011811 1.05591zm-1.92638 -0.0507874l-1.01575 0 0 -1.01339 1.01575 0 0 1.01339zm1.92283 -2.01024l-1.01929 0 0 -1.05591 1.01693 0 0.0023622 1.05591zm-0.0188976 -10.0748l-0.974409 0 0 -0.0519685 0.974409 0 0 0.0519685zm-1.92874 -0.0507874l-1.01575 0 0 -0.0011811 1.01575 0 0 0.0011811zm1.93701 4.09606l-0.957874 0 0 -1.05591 0.955512 0 0.0023622 1.05591zm-1.9122 -0.0507874l-1.01575 0 0 -1.01339 1.01575 0 0 1.01339zm1.90748 -2.01024l-1.00394 0 0 -1.05591 1.00276 0 0.0011811 1.05591zm-18.0898 -0.152362l-1.01575 0 0 -1.01339 1.01575 0 0 1.01339zm8.03622 0l-1.01575 0 0 -1.01339 1.01575 0 0 1.01339zm0 8.09055l-1.01575 0 0 -1.01339 1.01575 0 0 1.01339zm-0.0248031 -4.04528l-1.01575 0 0 -1.01339 1.01575 0 0 1.01339zm3.98504 0.0767717l-1.01575 0 0 -1.01339 1.01575 0 0 1.01339zm2.05984 2.11181l-1.05472 0 0 -1.05591 1.05472 0 0 1.05591zm-2.00906 -0.0507874l-1.01575 0 0 -1.01339 1.01575 0 0 1.01339zm1.95827 -2.01024l-1.05472 0 0 -1.05591 1.05472 0 0 1.05591zm-3.93425 1.98425l-1.05472 0 0 -1.05591 1.05472 0 0 1.05591zm-2.00906 -0.0507874l-1.01575 0 0 -1.01339 1.01575 0 0 1.01339zm1.95827 -2.01024l-1.05472 0 0 -1.05591 1.05472 0 0 1.05591zm2.00079 4.07126l-1.01575 0 0 -1.01339 1.01575 0 0 1.01339zm2.05984 2.11181l-1.05472 0 0 -1.05591 1.05472 0 0 1.05591zm-2.00906 -0.0507874l-1.01575 0 0 -1.01339 1.01575 0 0 1.01339zm1.95827 -2.01024l-1.05472 0 0 -1.05591 1.05472 0 0 1.05591zm-3.93425 1.98425l-1.05472 0 0 -1.05591 1.05472 0 0 1.05591zm-2.00906 -0.0507874l-1.01575 0 0 -1.01339 1.01575 0 0 1.01339zm1.95827 -2.01024l-1.05472 0 0 -1.05591 1.05472 0 0 1.05591zm4.01102 -9.99803l-1.05472 0 0 -0.0271654 1.05472 0 0 0.0271654zm-2.03504 1.93346l-1.01575 0 0 -1.01339 1.01575 0 0 1.01339zm2.05984 2.11181l-1.05472 0 0 -1.05591 1.05472 0 0 1.05591zm-2.00906 -0.0507874l-1.01575 0 0 -1.01339 1.01575 0 0 1.01339zm1.95827 -2.01024l-1.05472 0 0 -1.05591 1.05472 0 0 1.05591zm-3.93425 1.98425l-1.05472 0 0 -1.05591 1.05472 0 0 1.05591zm-2.00906 -0.0507874l-1.01575 0 0 -1.01339 1.01575 0 0 1.01339zm1.95827 -2.01024l-1.05472 0 0 -1.05591 1.05472 0 0 1.05591zm-10.0453 8.03976l-1.01575 0 0 -1.01339 1.01575 0 0 1.01339zm-0.0248031 -4.04528l-1.01575 0 0 -1.01339 1.01575 0 0 1.01339zm3.98504 0.0767717l-1.01575 0 0 -1.01339 1.01575 0 0 1.01339zm2.05984 2.11181l-1.05472 0 0 -1.05591 1.05472 0 0 1.05591zm-2.00906 -0.0507874l-1.01575 0 0 -1.01339 1.01575 0 0 1.01339zm1.95827 -2.01024l-1.05472 0 0 -1.05591 1.05472 0 0 1.05591zm-3.93425 1.98425l-1.05472 0 0 -1.05591 1.05472 0 0 1.05591zm-2.00906 -0.0507874l-1.01575 0 0 -1.01339 1.01575 0 0 1.01339zm1.95827 -2.01024l-1.05472 0 0 -1.05591 1.05472 0 0 1.05591zm2.00079 4.07126l-1.01575 0 0 -1.01339 1.01575 0 0 1.01339zm2.05984 2.11181l-1.05472 0 0 -1.05591 1.05472 0 0 1.05591zm-2.00906 -0.0507874l-1.01575 0 0 -1.01339 1.01575 0 0 1.01339zm1.95827 -2.01024l-1.05472 0 0 -1.05591 1.05472 0 0 1.05591zm-3.93425 1.98425l-1.05472 0 0 -1.05591 1.05472 0 0 1.05591zm-2.00906 -0.0507874l-1.01575 0 0 -1.01339 1.01575 0 0 1.01339zm1.95827 -2.01024l-1.05472 0 0 -1.05591 1.05472 0 0 1.05591zm4.01102 -9.99803l-1.05472 0 0 -0.0271654 1.05472 0 0 0.0271654zm-2.03504 1.93346l-1.01575 0 0 -1.01339 1.01575 0 0 1.01339zm2.05984 2.11181l-1.05472 0 0 -1.05591 1.05472 0 0 1.05591zm-2.00906 -0.0507874l-1.01575 0 0 -1.01339 1.01575 0 0 1.01339zm1.95827 -2.01024l-1.05472 0 0 -1.05591 1.05472 0 0 1.05591zm-3.93425 1.98425l-1.05472 0 0 -1.05591 1.05472 0 0 1.05591zm-2.00906 -0.0507874l-1.01575 0 0 -1.01339 1.01575 0 0 1.01339zm1.95827 -2.01024l-1.05472 0 0 -1.05591 1.05472 0 0 1.05591zm-9.99567 -0.0507874l-1.01575 0 0 -1.01339 1.01575 0 0 1.01339zm0 8.09055l-1.01575 0 0 -1.01339 1.01575 0 0 1.01339zm-0.0248031 -4.04528l-1.01575 0 0 -1.01339 1.01575 0 0 1.01339zm3.98504 0.0767717l-1.01575 0 0 -1.01339 1.01575 0 0 1.01339zm2.05984 2.11181l-1.05472 0 0 -1.05591 1.05472 0 0 1.05591zm-2.00906 -0.0507874l-1.01575 0 0 -1.01339 1.01575 0 0 1.01339zm1.95827 -2.01024l-1.05472 0 0 -1.05591 1.05472 0 0 1.05591zm-3.93425 1.98425l-1.05472 0 0 -1.05591 1.05472 0 0 1.05591zm-2.00906 -0.0507874l-1.01575 0 0 -1.01339 1.01575 0 0 1.01339zm1.95827 -2.01024l-1.05472 0 0 -1.05591 1.05472 0 0 1.05591zm2.00079 4.07126l-1.01575 0 0 -1.01339 1.01575 0 0 1.01339zm2.05984 2.11181l-1.05472 0 0 -1.05591 1.05472 0 0 1.05591zm-2.00906 -0.0507874l-1.01575 0 0 -1.01339 1.01575 0 0 1.01339zm1.95827 -2.01024l-1.05472 0 0 -1.05591 1.05472 0 0 1.05591zm-3.93425 1.98425l-1.05472 0 0 -1.05591 1.05472 0 0 1.05591zm-2.00906 -0.0507874l-1.01575 0 0 -1.01339 1.01575 0 0 1.01339zm1.95827 -2.01024l-1.05472 0 0 -1.05591 1.05472 0 0 1.05591zm4.01102 -9.99803l-1.05472 0 0 -0.0271654 1.05472 0 0 0.0271654zm-2.03504 1.93346l-1.01575 0 0 -1.01339 1.01575 0 0 1.01339zm2.05984 2.11181l-1.05472 0 0 -1.05591 1.05472 0 0 1.05591zm-2.00906 -0.0507874l-1.01575 0 0 -1.01339 1.01575 0 0 1.01339zm1.95827 -2.01024l-1.05472 0 0 -1.05591 1.05472 0 0 1.05591zm-3.93425 1.98425l-1.05472 0 0 -1.05591 1.05472 0 0 1.05591zm-2.00906 -0.0507874l-1.01575 0 0 -1.01339 1.01575 0 0 1.01339zm1.95827 -2.01024l-1.05472 0 0 -1.05591 1.05472 0 0 1.05591zm-10.0453 8.03976l-1.01575 0 0 -1.01339 1.01575 0 0 1.01339zm-0.0248031 -4.04528l-1.01575 0 0 -1.01339 1.01575 0 0 1.01339zm3.98504 0.0767717l-1.01575 0 0 -1.01339 1.01575 0 0 1.01339zm2.05984 2.11181l-1.05472 0 0 -1.05591 1.05472 0 0 1.05591zm-2.00906 -0.0507874l-1.01575 0 0 -1.01339 1.01575 0 0 1.01339zm1.95827 -2.01024l-1.05472 0 0 -1.05591 1.05472 0 0 1.05591zm-3.93425 1.98425l-1.05472 0 0 -1.05591 1.05472 0 0 1.05591zm-2.00906 -0.0507874l-1.01575 0 0 -1.01339 1.01575 0 0 1.01339zm1.95827 -2.01024l-1.05472 0 0 -1.05591 1.05472 0 0 1.05591zm2.00079 4.07126l-1.01575 0 0 -1.01339 1.01575 0 0 1.01339zm2.05984 2.11181l-1.05472 0 0 -1.05591 1.05472 0 0 1.05591zm-2.00906 -0.0507874l-1.01575 0 0 -1.01339 1.01575 0 0 1.01339zm1.95827 -2.01024l-1.05472 0 0 -1.05591 1.05472 0 0 1.05591zm-3.93425 1.98425l-1.05472 0 0 -1.05591 1.05472 0 0 1.05591zm-2.00906 -0.0507874l-1.01575 0 0 -1.01339 1.01575 0 0 1.01339zm1.95827 -2.01024l-1.05472 0 0 -1.05591 1.05472 0 0 1.05591zm4.01102 -9.99803l-1.05472 0 0 -0.0271654 1.05472 0 0 0.0271654zm-2.03504 1.93346l-1.01575 0 0 -1.01339 1.01575 0 0 1.01339zm2.05984 2.11181l-1.05472 0 0 -1.05591 1.05472 0 0 1.05591zm-2.00906 -0.0507874l-1.01575 0 0 -1.01339 1.01575 0 0 1.01339zm1.95827 -2.01024l-1.05472 0 0 -1.05591 1.05472 0 0 1.05591zm-3.93425 1.98425l-1.05472 0 0 -1.05591 1.05472 0 0 1.05591zm-2.00906 -0.0507874l-1.01575 0 0 -1.01339 1.01575 0 0 1.01339zm1.95827 -2.01024l-1.05472 0 0 -1.05591 1.05472 0 0 1.05591zm-17.9551 -0.204331l-1.01575 0 0 -1.01339 1.01575 0 0 1.01339zm8.03622 0l-1.01575 0 0 -1.01339 1.01575 0 0 1.01339zm0 8.09055l-1.01575 0 0 -1.01339 1.01575 0 0 1.01339zm-0.0248031 -4.04528l-1.01575 0 0 -1.01339 1.01575 0 0 1.01339zm3.98504 0.0767717l-1.01575 0 0 -1.01339 1.01575 0 0 1.01339zm2.05984 2.11181l-1.05472 0 0 -1.05591 1.05472 0 0 1.05591zm-2.00906 -0.0507874l-1.01575 0 0 -1.01339 1.01575 0 0 1.01339zm1.95827 -2.01024l-1.05472 0 0 -1.05591 1.05472 0 0 1.05591zm-3.93425 1.98425l-1.05472 0 0 -1.05591 1.05472 0 0 1.05591zm-2.00906 -0.0507874l-1.01575 0 0 -1.01339 1.01575 0 0 1.01339zm1.95827 -2.01024l-1.05472 0 0 -1.05591 1.05472 0 0 1.05591zm2.00079 4.07126l-1.01575 0 0 -1.01339 1.01575 0 0 1.01339zm2.05984 2.11181l-1.05472 0 0 -1.05591 1.05472 0 0 1.05591zm-2.00906 -0.0507874l-1.01575 0 0 -1.01339 1.01575 0 0 1.01339zm1.95827 -2.01024l-1.05472 0 0 -1.05591 1.05472 0 0 1.05591zm-3.93425 1.98425l-1.05472 0 0 -1.05591 1.05472 0 0 1.05591zm-2.00906 -0.0507874l-1.01575 0 0 -1.01339 1.01575 0 0 1.01339zm1.95827 -2.01024l-1.05472 0 0 -1.05591 1.05472 0 0 1.05591zm1.97598 -8.06457l-1.01575 0 0 -1.01339 1.01575 0 0 1.01339zm2.05984 2.11181l-1.05472 0 0 -1.05591 1.05472 0 0 1.05591zm-2.00906 -0.0507874l-1.01575 0 0 -1.01339 1.01575 0 0 1.01339zm1.95827 -2.01024l-1.05472 0 0 -1.05591 1.05472 0 0 1.05591zm-3.93425 1.98425l-1.05472 0 0 -1.05591 1.05472 0 0 1.05591zm-2.00906 -0.0507874l-1.01575 0 0 -1.01339 1.01575 0 0 1.01339zm1.95827 -2.01024l-1.05472 0 0 -1.05591 1.05472 0 0 1.05591zm-10.0453 8.03976l-1.01575 0 0 -1.01339 1.01575 0 0 1.01339zm-0.0248031 -4.04528l-1.01575 0 0 -1.01339 1.01575 0 0 1.01339zm3.98504 0.0767717l-1.01575 0 0 -1.01339 1.01575 0 0 1.01339zm2.05984 2.11181l-1.05472 0 0 -1.05591 1.05472 0 0 1.05591zm-2.00906 -0.0507874l-1.01575 0 0 -1.01339 1.01575 0 0 1.01339zm1.95827 -2.01024l-1.05472 0 0 -1.05591 1.05472 0 0 1.05591zm-3.93425 1.98425l-1.05472 0 0 -1.05591 1.05472 0 0 1.05591zm-2.00906 -0.0507874l-1.01575 0 0 -1.01339 1.01575 0 0 1.01339zm1.95827 -2.01024l-1.05472 0 0 -1.05591 1.05472 0 0 1.05591zm2.00079 4.07126l-1.01575 0 0 -1.01339 1.01575 0 0 1.01339zm2.05984 2.11181l-1.05472 0 0 -1.05591 1.05472 0 0 1.05591zm-2.00906 -0.0507874l-1.01575 0 0 -1.01339 1.01575 0 0 1.01339zm1.95827 -2.01024l-1.05472 0 0 -1.05591 1.05472 0 0 1.05591zm-3.93425 1.98425l-1.05472 0 0 -1.05591 1.05472 0 0 1.05591zm-2.00906 -0.0507874l-1.01575 0 0 -1.01339 1.01575 0 0 1.01339zm1.95827 -2.01024l-1.05472 0 0 -1.05591 1.05472 0 0 1.05591zm1.97598 -8.06457l-1.01575 0 0 -1.01339 1.01575 0 0 1.01339zm2.05984 2.11181l-1.05472 0 0 -1.05591 1.05472 0 0 1.05591zm-2.00906 -0.0507874l-1.01575 0 0 -1.01339 1.01575 0 0 1.01339zm1.95827 -2.01024l-1.05472 0 0 -1.05591 1.05472 0 0 1.05591zm-3.93425 1.98425l-1.05472 0 0 -1.05591 1.05472 0 0 1.05591zm-2.00906 -0.0507874l-1.01575 0 0 -1.01339 1.01575 0 0 1.01339zm1.95827 -2.01024l-1.05472 0 0 -1.05591 1.05472 0 0 1.05591zm-6.03543 4.07126l-1.01575 0 0 -1.01339 1.01575 0 0 1.01339zm2.05984 2.11181l-1.05472 0 0 -1.05591 1.05472 0 0 1.05591zm-2.00906 -0.0507874l-1.01575 0 0 -1.01339 1.01575 0 0 1.01339zm1.95827 -2.01024l-1.05472 0 0 -1.05591 1.05472 0 0 1.05591zm-3.93425 1.98425l-0.0992126 0 -0.0023622 -1.05591 0.101575 0 0 1.05591zm-0.0507874 -2.06102l-0.0531496 0 -0.0011811 -1.05591 0.0543307 0 0 1.05591zm2.00079 4.07126l-1.01575 0 0 -1.01339 1.01575 0 0 1.01339zm2.05984 2.11181l-1.05472 0 0 -1.05591 1.05472 0 0 1.05591zm-2.00906 -0.0507874l-1.01575 0 0 -1.01339 1.01575 0 0 1.01339zm1.95827 -2.01024l-1.05472 0 0 -1.05591 1.05472 0 0 1.05591zm-3.93425 1.98425l-0.116929 0 -0.0011811 -1.05591 0.11811 0 0 1.05591zm-0.0507874 -2.06102l-0.069685 0 -0.0023622 -1.05591 0.0720472 0 0 1.05591zm1.97598 -8.06457l-1.01575 0 0 -1.01339 1.01575 0 0 1.01339zm2.05984 2.11181l-1.05472 0 0 -1.05591 1.05472 0 0 1.05591zm-2.00906 -0.0507874l-1.01575 0 0 -1.01339 1.01575 0 0 1.01339zm1.95827 -2.01024l-1.05472 0 0 -1.05591 1.05472 0 0 1.05591zm-3.93425 1.98425l-0.132283 0 -0.0023622 -1.05591 0.134646 0 0 1.05591zm-0.0507874 -2.06102l-0.0850394 0 -0.0023622 -1.05591 0.0874016 0 0 1.05591zm21.9484 32.4555l-1.01575 0 0 -1.01339 1.01575 0 0 1.01339zm32.1543 0.101575l-1.01575 0 0 -1.01339 1.01575 0 0 1.01339zm0 -16.1209l-1.01575 0 0 -1.01339 1.01575 0 0 1.01339zm0 8.09055l-1.01575 0 0 -1.01339 1.01575 0 0 1.01339zm-0.0248031 -4.04528l-1.01575 0 0 -1.01339 1.01575 0 0 1.01339zm2.00079 2.11181l-0.995669 0 0 -1.05591 0.993307 0 0.0023622 1.05591zm-1.95 -0.0507874l-1.01575 0 0 -1.01339 1.01575 0 0 1.01339zm1.94528 -2.01024l-1.04173 0 0 -1.05591 1.04055 0 0.0011811 1.05591zm0.011811 6.1063l-0.977953 0 0 -1.05591 0.975591 0 0.0023622 1.05591zm-1.93228 -0.0507874l-1.01575 0 0 -1.01339 1.01575 0 0 1.01339zm1.92874 -2.01024l-1.0252 0 0 -1.05591 1.02283 0 0.0023622 1.05591zm-2.00433 -12.1866l-1.01575 0 0 -1.01339 1.01575 0 0 1.01339zm1.98543 2.11181l-0.980315 0 0 -1.05591 0.977953 0 0.0023622 1.05591zm-1.93465 -0.0507874l-1.01575 0 0 -1.01339 1.01575 0 0 1.01339zm1.9311 -2.01024l-1.02756 0 0 -1.05591 1.0252 0 0.0023622 1.05591zm0.0106299 6.1063l-0.962598 0 0 -1.05591 0.961417 0 0.0011811 1.05591zm-1.91693 -0.0507874l-1.01575 0 0 -1.01339 1.01575 0 0 1.01339zm1.91339 -2.01024l-1.00984 0 0 -1.05591 1.00748 0 0.0023622 1.05591zm-1.96417 24.1606l-1.01575 0 0 -1.01339 1.01575 0 0 1.01339zm-0.0248031 -4.04528l-1.01575 0 0 -1.01339 1.01575 0 0 1.01339zm2.03031 2.11181l-1.0252 0 0 -1.05591 1.02402 0 0.0011811 1.05591zm-1.97953 -0.0507874l-1.01575 0 0 -1.01339 1.01575 0 0 1.01339zm1.95827 -2.01024l-1.05472 0 0 -1.05591 1.05472 0 0 1.05591zm0.0295276 6.1063l-1.00866 0 0 -1.05591 1.0063 0 0.0023622 1.05591zm-1.96299 -0.0507874l-1.01575 0 0 -1.01339 1.01575 0 0 1.01339zm1.95827 -2.01024l-1.05472 0 0 -1.05591 1.05354 0 0.0011811 0.724016 0 0.33189zm-2.03386 -12.1866l-1.01575 0 0 -1.01339 1.01575 0 0 1.01339zm2.01614 2.11181l-1.01102 0 0 -1.05591 1.00866 0 0.0023622 1.05591zm-1.96535 -0.0507874l-1.01575 0 0 -1.01339 1.01575 0 0 1.01339zm1.95827 -2.01024l-1.05472 0 0 -1.05591 1.05472 0 0 1.05591zm0.0141732 6.1063l-0.993307 0 0 -1.05591 0.990945 0 0.0023622 1.05591zm-1.94764 -0.0507874l-1.01575 0 0 -1.01339 1.01575 0 0 1.01339zm1.94409 -2.01024l-1.04055 0 0 -1.05591 1.03819 0 0.0023622 1.05591zm-34.1492 -16.2732l-1.01575 0 0 -1.01339 1.01575 0 0 1.01339zm16.0228 0l-1.01575 0 0 -1.01339 1.01575 0 0 1.01339zm8.03622 0l-1.01575 0 0 -1.01339 1.01575 0 0 1.01339zm0 8.09055l-1.01575 0 0 -1.01339 1.01575 0 0 1.01339zm-0.0248031 -4.04528l-1.01575 0 0 -1.01339 1.01575 0 0 1.01339zm3.98504 0.0767717l-1.01575 0 0 -1.01339 1.01575 0 0 1.01339zm2.05984 2.11181l-1.05472 0 0 -1.05591 1.05472 0 0 1.05591zm-2.00906 -0.0507874l-1.01575 0 0 -1.01339 1.01575 0 0 1.01339zm1.95827 -2.01024l-1.05472 0 0 -1.05591 1.05472 0 0 1.05591zm-3.93425 1.98425l-1.05472 0 0 -1.05591 1.05472 0 0 1.05591zm-2.00906 -0.0507874l-1.01575 0 0 -1.01339 1.01575 0 0 1.01339zm1.95827 -2.01024l-1.05472 0 0 -1.05591 1.05472 0 0 1.05591zm2.00079 4.07126l-1.01575 0 0 -1.01339 1.01575 0 0 1.01339zm2.05984 2.11181l-1.05472 0 0 -1.05591 1.05472 0 0 1.05591zm-2.00906 -0.0507874l-1.01575 0 0 -1.01339 1.01575 0 0 1.01339zm1.95827 -2.01024l-1.05472 0 0 -1.05591 1.05472 0 0 1.05591zm-3.93425 1.98425l-1.05472 0 0 -1.05591 1.05472 0 0 1.05591zm-2.00906 -0.0507874l-1.01575 0 0 -1.01339 1.01575 0 0 1.01339zm1.95827 -2.01024l-1.05472 0 0 -1.05591 1.05472 0 0 1.05591zm-2.03386 -12.1866l-1.01575 0 0 -1.01339 1.01575 0 0 1.01339zm3.98504 0.0767717l-1.01575 0 0 -1.01339 1.01575 0 0 1.01339zm2.05984 2.11181l-1.05472 0 0 -1.05591 1.05472 0 0 1.05591zm-2.00906 -0.0507874l-1.01575 0 0 -1.01339 1.01575 0 0 1.01339zm1.95827 -2.01024l-1.05472 0 0 -1.05591 1.05472 0 0 1.05591zm-3.93425 1.98425l-1.05472 0 0 -1.05591 1.05472 0 0 1.05591zm-2.00906 -0.0507874l-1.01575 0 0 -1.01339 1.01575 0 0 1.01339zm1.95827 -2.01024l-1.05472 0 0 -1.05591 1.05472 0 0 1.05591zm2.00079 4.07126l-1.01575 0 0 -1.01339 1.01575 0 0 1.01339zm2.05984 2.11181l-1.05472 0 0 -1.05591 1.05472 0 0 1.05591zm-2.00906 -0.0507874l-1.01575 0 0 -1.01339 1.01575 0 0 1.01339zm1.95827 -2.01024l-1.05472 0 0 -1.05591 1.05472 0 0 1.05591zm-3.93425 1.98425l-1.05472 0 0 -1.05591 1.05472 0 0 1.05591zm-2.00906 -0.0507874l-1.01575 0 0 -1.01339 1.01575 0 0 1.01339zm1.95827 -2.01024l-1.05472 0 0 -1.05591 1.05472 0 0 1.05591zm-10.0453 8.03976l-1.01575 0 0 -1.01339 1.01575 0 0 1.01339zm-0.0248031 -4.04528l-1.01575 0 0 -1.01339 1.01575 0 0 1.01339zm3.98504 0.0767717l-1.01575 0 0 -1.01339 1.01575 0 0 1.01339zm2.05984 2.11181l-1.05472 0 0 -1.05591 1.05472 0 0 1.05591zm-2.00906 -0.0507874l-1.01575 0 0 -1.01339 1.01575 0 0 1.01339zm1.95827 -2.01024l-1.05472 0 0 -1.05591 1.05472 0 0 1.05591zm-3.93425 1.98425l-1.05472 0 0 -1.05591 1.05472 0 0 1.05591zm-2.00906 -0.0507874l-1.01575 0 0 -1.01339 1.01575 0 0 1.01339zm1.95827 -2.01024l-1.05472 0 0 -1.05591 1.05472 0 0 1.05591zm2.00079 4.07126l-1.01575 0 0 -1.01339 1.01575 0 0 1.01339zm2.05984 2.11181l-1.05472 0 0 -1.05591 1.05472 0 0 1.05591zm-2.00906 -0.0507874l-1.01575 0 0 -1.01339 1.01575 0 0 1.01339zm1.95827 -2.01024l-1.05472 0 0 -1.05591 1.05472 0 0 1.05591zm-3.93425 1.98425l-1.05472 0 0 -1.05591 1.05472 0 0 1.05591zm-2.00906 -0.0507874l-1.01575 0 0 -1.01339 1.01575 0 0 1.01339zm1.95827 -2.01024l-1.05472 0 0 -1.05591 1.05472 0 0 1.05591zm-2.03386 -12.1866l-1.01575 0 0 -1.01339 1.01575 0 0 1.01339zm3.98504 0.0767717l-1.01575 0 0 -1.01339 1.01575 0 0 1.01339zm2.05984 2.11181l-1.05472 0 0 -1.05591 1.05472 0 0 1.05591zm-2.00906 -0.0507874l-1.01575 0 0 -1.01339 1.01575 0 0 1.01339zm1.95827 -2.01024l-1.05472 0 0 -1.05591 1.05472 0 0 1.05591zm-3.93425 1.98425l-1.05472 0 0 -1.05591 1.05472 0 0 1.05591zm-2.00906 -0.0507874l-1.01575 0 0 -1.01339 1.01575 0 0 1.01339zm1.95827 -2.01024l-1.05472 0 0 -1.05591 1.05472 0 0 1.05591zm2.00079 4.07126l-1.01575 0 0 -1.01339 1.01575 0 0 1.01339zm2.05984 2.11181l-1.05472 0 0 -1.05591 1.05472 0 0 1.05591zm-2.00906 -0.0507874l-1.01575 0 0 -1.01339 1.01575 0 0 1.01339zm1.95827 -2.01024l-1.05472 0 0 -1.05591 1.05472 0 0 1.05591zm-3.93425 1.98425l-1.05472 0 0 -1.05591 1.05472 0 0 1.05591zm-2.00906 -0.0507874l-1.01575 0 0 -1.01339 1.01575 0 0 1.01339zm1.95827 -2.01024l-1.05472 0 0 -1.05591 1.05472 0 0 1.05591zm-9.99567 -0.0507874l-1.01575 0 0 -1.01339 1.01575 0 0 1.01339zm0 8.09055l-1.01575 0 0 -1.01339 1.01575 0 0 1.01339zm-0.0248031 -4.04528l-1.01575 0 0 -1.01339 1.01575 0 0 1.01339zm3.98504 0.0767717l-1.01575 0 0 -1.01339 1.01575 0 0 1.01339zm2.05984 2.11181l-1.05472 0 0 -1.05591 1.05472 0 0 1.05591zm-2.00906 -0.0507874l-1.01575 0 0 -1.01339 1.01575 0 0 1.01339zm1.95827 -2.01024l-1.05472 0 0 -1.05591 1.05472 0 0 1.05591zm-3.93425 1.98425l-1.05472 0 0 -1.05591 1.05472 0 0 1.05591zm-2.00906 -0.0507874l-1.01575 0 0 -1.01339 1.01575 0 0 1.01339zm1.95827 -2.01024l-1.05472 0 0 -1.05591 1.05472 0 0 1.05591zm2.00079 4.07126l-1.01575 0 0 -1.01339 1.01575 0 0 1.01339zm2.05984 2.11181l-1.05472 0 0 -1.05591 1.05472 0 0 1.05591zm-2.00906 -0.0507874l-1.01575 0 0 -1.01339 1.01575 0 0 1.01339zm1.95827 -2.01024l-1.05472 0 0 -1.05591 1.05472 0 0 1.05591zm-3.93425 1.98425l-1.05472 0 0 -1.05591 1.05472 0 0 1.05591zm-2.00906 -0.0507874l-1.01575 0 0 -1.01339 1.01575 0 0 1.01339zm1.95827 -2.01024l-1.05472 0 0 -1.05591 1.05472 0 0 1.05591zm-2.03386 -12.1866l-1.01575 0 0 -1.01339 1.01575 0 0 1.01339zm3.98504 0.0767717l-1.01575 0 0 -1.01339 1.01575 0 0 1.01339zm2.05984 2.11181l-1.05472 0 0 -1.05591 1.05472 0 0 1.05591zm-2.00906 -0.0507874l-1.01575 0 0 -1.01339 1.01575 0 0 1.01339zm1.95827 -2.01024l-1.05472 0 0 -1.05591 1.05472 0 0 1.05591zm-3.93425 1.98425l-1.05472 0 0 -1.05591 1.05472 0 0 1.05591zm-2.00906 -0.0507874l-1.01575 0 0 -1.01339 1.01575 0 0 1.01339zm1.95827 -2.01024l-1.05472 0 0 -1.05591 1.05472 0 0 1.05591zm2.00079 4.07126l-1.01575 0 0 -1.01339 1.01575 0 0 1.01339zm2.05984 2.11181l-1.05472 0 0 -1.05591 1.05472 0 0 1.05591zm-2.00906 -0.0507874l-1.01575 0 0 -1.01339 1.01575 0 0 1.01339zm1.95827 -2.01024l-1.05472 0 0 -1.05591 1.05472 0 0 1.05591zm-3.93425 1.98425l-1.05472 0 0 -1.05591 1.05472 0 0 1.05591zm-2.00906 -0.0507874l-1.01575 0 0 -1.01339 1.01575 0 0 1.01339zm1.95827 -2.01024l-1.05472 0 0 -1.05591 1.05472 0 0 1.05591zm-10.0453 8.03976l-1.01575 0 0 -1.01339 1.01575 0 0 1.01339zm-0.0248031 -4.04528l-1.01575 0 0 -1.01339 1.01575 0 0 1.01339zm3.98504 0.0767717l-1.01575 0 0 -1.01339 1.01575 0 0 1.01339zm2.05984 2.11181l-1.05472 0 0 -1.05591 1.05472 0 0 1.05591zm-2.00906 -0.0507874l-1.01575 0 0 -1.01339 1.01575 0 0 1.01339zm1.95827 -2.01024l-1.05472 0 0 -1.05591 1.05472 0 0 1.05591zm-3.93425 1.98425l-1.05472 0 0 -1.05591 1.05472 0 0 1.05591zm-2.00906 -0.0507874l-1.01575 0 0 -1.01339 1.01575 0 0 1.01339zm1.95827 -2.01024l-1.05472 0 0 -1.05591 1.05472 0 0 1.05591zm2.00079 4.07126l-1.01575 0 0 -1.01339 1.01575 0 0 1.01339zm2.05984 2.11181l-1.05472 0 0 -1.05591 1.05472 0 0 1.05591zm-2.00906 -0.0507874l-1.01575 0 0 -1.01339 1.01575 0 0 1.01339zm1.95827 -2.01024l-1.05472 0 0 -1.05591 1.05472 0 0 1.05591zm-3.93425 1.98425l-1.05472 0 0 -1.05591 1.05472 0 0 1.05591zm-2.00906 -0.0507874l-1.01575 0 0 -1.01339 1.01575 0 0 1.01339zm1.95827 -2.01024l-1.05472 0 0 -1.05591 1.05472 0 0 1.05591zm-2.03386 -12.1866l-1.01575 0 0 -1.01339 1.01575 0 0 1.01339zm3.98504 0.0767717l-1.01575 0 0 -1.01339 1.01575 0 0 1.01339zm2.05984 2.11181l-1.05472 0 0 -1.05591 1.05472 0 0 1.05591zm-2.00906 -0.0507874l-1.01575 0 0 -1.01339 1.01575 0 0 1.01339zm1.95827 -2.01024l-1.05472 0 0 -1.05591 1.05472 0 0 1.05591zm-3.93425 1.98425l-1.05472 0 0 -1.05591 1.05472 0 0 1.05591zm-2.00906 -0.0507874l-1.01575 0 0 -1.01339 1.01575 0 0 1.01339zm1.95827 -2.01024l-1.05472 0 0 -1.05591 1.05472 0 0 1.05591zm2.00079 4.07126l-1.01575 0 0 -1.01339 1.01575 0 0 1.01339zm2.05984 2.11181l-1.05472 0 0 -1.05591 1.05472 0 0 1.05591zm-2.00906 -0.0507874l-1.01575 0 0 -1.01339 1.01575 0 0 1.01339zm1.95827 -2.01024l-1.05472 0 0 -1.05591 1.05472 0 0 1.05591zm-3.93425 1.98425l-1.05472 0 0 -1.05591 1.05472 0 0 1.05591zm-2.00906 -0.0507874l-1.01575 0 0 -1.01339 1.01575 0 0 1.01339zm1.95827 -2.01024l-1.05472 0 0 -1.05591 1.05472 0 0 1.05591zm14.0138 16.0701l-1.01575 0 0 -1.01339 1.01575 0 0 1.01339zm8.03622 0l-1.01575 0 0 -1.01339 1.01575 0 0 1.01339zm0 8.09055l-1.01575 0 0 -1.01339 1.01575 0 0 1.01339zm-0.0248031 -4.04528l-1.01575 0 0 -1.01339 1.01575 0 0 1.01339zm3.98504 0.0767717l-1.01575 0 0 -1.01339 1.01575 0 0 1.01339zm2.05984 2.11181l-1.05472 0 0 -1.05591 1.05472 0 0 1.05591zm-2.00906 -0.0507874l-1.01575 0 0 -1.01339 1.01575 0 0 1.01339zm1.95827 -2.01024l-1.05472 0 0 -1.05591 1.05472 0 0 1.05591zm-3.93425 1.98425l-1.05472 0 0 -1.05591 1.05472 0 0 1.05591zm-2.00906 -0.0507874l-1.01575 0 0 -1.01339 1.01575 0 0 1.01339zm1.95827 -2.01024l-1.05472 0 0 -1.05591 1.05472 0 0 1.05591zm2.00079 4.07126l-1.01575 0 0 -1.01339 1.01575 0 0 1.01339zm2.05984 2.11181l-1.05472 0 0 -1.05591 1.05472 0 0 1.05591zm-2.00906 -0.0507874l-1.01575 0 0 -1.01339 1.01575 0 0 1.01339zm1.95827 -2.01024l-1.05472 0 0 -1.05591 1.05472 0 0 1.05591zm-3.93425 1.98425l-1.05472 0 0 -1.05591 1.05472 0 0 1.05591zm-2.00906 -0.0507874l-1.01575 0 0 -1.01339 1.01575 0 0 1.01339zm1.95827 -2.01024l-1.05472 0 0 -1.05591 1.05472 0 0 1.05591zm-2.03386 -12.1866l-1.01575 0 0 -1.01339 1.01575 0 0 1.01339zm3.98504 0.0767717l-1.01575 0 0 -1.01339 1.01575 0 0 1.01339zm2.05984 2.11181l-1.05472 0 0 -1.05591 1.05472 0 0 1.05591zm-2.00906 -0.0507874l-1.01575 0 0 -1.01339 1.01575 0 0 1.01339zm1.95827 -2.01024l-1.05472 0 0 -1.05591 1.05472 0 0 1.05591zm-3.93425 1.98425l-1.05472 0 0 -1.05591 1.05472 0 0 1.05591zm-2.00906 -0.0507874l-1.01575 0 0 -1.01339 1.01575 0 0 1.01339zm1.95827 -2.01024l-1.05472 0 0 -1.05591 1.05472 0 0 1.05591zm2.00079 4.07126l-1.01575 0 0 -1.01339 1.01575 0 0 1.01339zm2.05984 2.11181l-1.05472 0 0 -1.05591 1.05472 0 0 1.05591zm-2.00906 -0.0507874l-1.01575 0 0 -1.01339 1.01575 0 0 1.01339zm1.95827 -2.01024l-1.05472 0 0 -1.05591 1.05472 0 0 1.05591zm-3.93425 1.98425l-1.05472 0 0 -1.05591 1.05472 0 0 1.05591zm-2.00906 -0.0507874l-1.01575 0 0 -1.01339 1.01575 0 0 1.01339zm1.95827 -2.01024l-1.05472 0 0 -1.05591 1.05472 0 0 1.05591zm-10.0453 8.03976l-1.01575 0 0 -1.01339 1.01575 0 0 1.01339zm-0.0248031 -4.04528l-1.01575 0 0 -1.01339 1.01575 0 0 1.01339zm3.98504 0.0767717l-1.01575 0 0 -1.01339 1.01575 0 0 1.01339zm2.05984 2.11181l-1.05472 0 0 -1.05591 1.05472 0 0 1.05591zm-2.00906 -0.0507874l-1.01575 0 0 -1.01339 1.01575 0 0 1.01339zm1.95827 -2.01024l-1.05472 0 0 -1.05591 1.05472 0 0 1.05591zm-3.93425 1.98425l-1.05472 0 0 -1.05591 1.05472 0 0 1.05591zm-2.00906 -0.0507874l-1.01575 0 0 -1.01339 1.01575 0 0 1.01339zm1.95827 -2.01024l-1.05472 0 0 -1.05591 1.05472 0 0 1.05591zm2.00079 4.07126l-1.01575 0 0 -1.01339 1.01575 0 0 1.01339zm2.05984 2.11181l-1.05472 0 0 -1.05591 1.05472 0 0 1.05591zm-2.00906 -0.0507874l-1.01575 0 0 -1.01339 1.01575 0 0 1.01339zm1.95827 -2.01024l-1.05472 0 0 -1.05591 1.05472 0 0 1.05591zm-3.93425 1.98425l-1.05472 0 0 -1.05591 1.05472 0 0 1.05591zm-2.00906 -0.0507874l-1.01575 0 0 -1.01339 1.01575 0 0 1.01339zm1.95827 -2.01024l-1.05472 0 0 -1.05591 1.05472 0 0 1.05591zm-2.03386 -12.1866l-1.01575 0 0 -1.01339 1.01575 0 0 1.01339zm3.98504 0.0767717l-1.01575 0 0 -1.01339 1.01575 0 0 1.01339zm2.05984 2.11181l-1.05472 0 0 -1.05591 1.05472 0 0 1.05591zm-2.00906 -0.0507874l-1.01575 0 0 -1.01339 1.01575 0 0 1.01339zm1.95827 -2.01024l-1.05472 0 0 -1.05591 1.05472 0 0 1.05591zm-3.93425 1.98425l-1.05472 0 0 -1.05591 1.05472 0 0 1.05591zm-2.00906 -0.0507874l-1.01575 0 0 -1.01339 1.01575 0 0 1.01339zm1.95827 -2.01024l-1.05472 0 0 -1.05591 1.05472 0 0 1.05591zm2.00079 4.07126l-1.01575 0 0 -1.01339 1.01575 0 0 1.01339zm2.05984 2.11181l-1.05472 0 0 -1.05591 1.05472 0 0 1.05591zm-2.00906 -0.0507874l-1.01575 0 0 -1.01339 1.01575 0 0 1.01339zm1.95827 -2.01024l-1.05472 0 0 -1.05591 1.05472 0 0 1.05591zm-3.93425 1.98425l-1.05472 0 0 -1.05591 1.05472 0 0 1.05591zm-2.00906 -0.0507874l-1.01575 0 0 -1.01339 1.01575 0 0 1.01339zm1.95827 -2.01024l-1.05472 0 0 -1.05591 1.05472 0 0 1.05591zm-9.99567 -0.0507874l-1.01575 0 0 -1.01339 1.01575 0 0 1.01339zm0 8.09055l-1.01575 0 0 -1.01339 1.01575 0 0 1.01339zm-0.0248031 -4.04528l-1.01575 0 0 -1.01339 1.01575 0 0 1.01339zm3.98504 0.0767717l-1.01575 0 0 -1.01339 1.01575 0 0 1.01339zm2.05984 2.11181l-1.05472 0 0 -1.05591 1.05472 0 0 1.05591zm-2.00906 -0.0507874l-1.01575 0 0 -1.01339 1.01575 0 0 1.01339zm1.95827 -2.01024l-1.05472 0 0 -1.05591 1.05472 0 0 1.05591zm-3.93425 1.98425l-1.05472 0 0 -1.05591 1.05472 0 0 1.05591zm-2.00906 -0.0507874l-1.01575 0 0 -1.01339 1.01575 0 0 1.01339zm1.95827 -2.01024l-1.05472 0 0 -1.05591 1.05472 0 0 1.05591zm2.00079 4.07126l-1.01575 0 0 -1.01339 1.01575 0 0 1.01339zm2.05984 2.11181l-1.05472 0 0 -1.05591 1.05472 0 0 1.05591zm-2.00906 -0.0507874l-1.01575 0 0 -1.01339 1.01575 0 0 1.01339zm1.95827 -2.01024l-1.05472 0 0 -1.05591 1.05472 0 0 1.05591zm-3.93425 1.98425l-1.05472 0 0 -1.05591 1.05472 0 0 1.05591zm-2.00906 -0.0507874l-1.01575 0 0 -1.01339 1.01575 0 0 1.01339zm1.95827 -2.01024l-1.05472 0 0 -1.05591 1.05472 0 0 1.05591zm-2.03386 -12.1866l-1.01575 0 0 -1.01339 1.01575 0 0 1.01339zm3.98504 0.0767717l-1.01575 0 0 -1.01339 1.01575 0 0 1.01339zm2.05984 2.11181l-1.05472 0 0 -1.05591 1.05472 0 0 1.05591zm-2.00906 -0.0507874l-1.01575 0 0 -1.01339 1.01575 0 0 1.01339zm1.95827 -2.01024l-1.05472 0 0 -1.05591 1.05472 0 0 1.05591zm-3.93425 1.98425l-1.05472 0 0 -1.05591 1.05472 0 0 1.05591zm-2.00906 -0.0507874l-1.01575 0 0 -1.01339 1.01575 0 0 1.01339zm1.95827 -2.01024l-1.05472 0 0 -1.05591 1.05472 0 0 1.05591zm2.00079 4.07126l-1.01575 0 0 -1.01339 1.01575 0 0 1.01339zm2.05984 2.11181l-1.05472 0 0 -1.05591 1.05472 0 0 1.05591zm-2.00906 -0.0507874l-1.01575 0 0 -1.01339 1.01575 0 0 1.01339zm1.95827 -2.01024l-1.05472 0 0 -1.05591 1.05472 0 0 1.05591zm-3.93425 1.98425l-1.05472 0 0 -1.05591 1.05472 0 0 1.05591zm-2.00906 -0.0507874l-1.01575 0 0 -1.01339 1.01575 0 0 1.01339zm1.95827 -2.01024l-1.05472 0 0 -1.05591 1.05472 0 0 1.05591zm-10.0453 8.03976l-1.01575 0 0 -1.01339 1.01575 0 0 1.01339zm-0.0248031 -4.04528l-1.01575 0 0 -1.01339 1.01575 0 0 1.01339zm3.98504 0.0767717l-1.01575 0 0 -1.01339 1.01575 0 0 1.01339zm2.05984 2.11181l-1.05472 0 0 -1.05591 1.05472 0 0 1.05591zm-2.00906 -0.0507874l-1.01575 0 0 -1.01339 1.01575 0 0 1.01339zm1.95827 -2.01024l-1.05472 0 0 -1.05591 1.05472 0 0 1.05591zm-3.93425 1.98425l-1.05472 0 0 -1.05591 1.05472 0 0 1.05591zm-2.00906 -0.0507874l-1.01575 0 0 -1.01339 1.01575 0 0 1.01339zm1.95827 -2.01024l-1.05472 0 0 -1.05591 1.05472 0 0 1.05591zm2.00079 4.07126l-1.01575 0 0 -1.01339 1.01575 0 0 1.01339zm2.05984 2.11181l-1.05472 0 0 -1.05591 1.05472 0 0 1.05591zm-2.00906 -0.0507874l-1.01575 0 0 -1.01339 1.01575 0 0 1.01339zm1.95827 -2.01024l-1.05472 0 0 -1.05591 1.05472 0 0 1.05591zm-3.93425 1.98425l-1.05472 0 0 -1.05591 1.05472 0 0 1.05591zm-2.00906 -0.0507874l-1.01575 0 0 -1.01339 1.01575 0 0 1.01339zm1.95827 -2.01024l-1.05472 0 0 -1.05591 1.05472 0 0 1.05591zm-2.03386 -12.1866l-1.01575 0 0 -1.01339 1.01575 0 0 1.01339zm3.98504 0.0767717l-1.01575 0 0 -1.01339 1.01575 0 0 1.01339zm2.05984 2.11181l-1.05472 0 0 -1.05591 1.05472 0 0 1.05591zm-2.00906 -0.0507874l-1.01575 0 0 -1.01339 1.01575 0 0 1.01339zm1.95827 -2.01024l-1.05472 0 0 -1.05591 1.05472 0 0 1.05591zm-3.93425 1.98425l-1.05472 0 0 -1.05591 1.05472 0 0 1.05591zm-2.00906 -0.0507874l-1.01575 0 0 -1.01339 1.01575 0 0 1.01339zm1.95827 -2.01024l-1.05472 0 0 -1.05591 1.05472 0 0 1.05591zm2.00079 4.07126l-1.01575 0 0 -1.01339 1.01575 0 0 1.01339zm2.05984 2.11181l-1.05472 0 0 -1.05591 1.05472 0 0 1.05591zm-2.00906 -0.0507874l-1.01575 0 0 -1.01339 1.01575 0 0 1.01339zm1.95827 -2.01024l-1.05472 0 0 -1.05591 1.05472 0 0 1.05591zm-3.93425 1.98425l-1.05472 0 0 -1.05591 1.05472 0 0 1.05591zm-2.00906 -0.0507874l-1.01575 0 0 -1.01339 1.01575 0 0 1.01339zm1.95827 -2.01024l-1.05472 0 0 -1.05591 1.05472 0 0 1.05591zm-17.9551 -16.3252l-1.01575 0 0 -1.01339 1.01575 0 0 1.01339zm8.03622 0l-1.01575 0 0 -1.01339 1.01575 0 0 1.01339zm0 8.09055l-1.01575 0 0 -1.01339 1.01575 0 0 1.01339zm-0.0248031 -4.04528l-1.01575 0 0 -1.01339 1.01575 0 0 1.01339zm3.98504 0.0767717l-1.01575 0 0 -1.01339 1.01575 0 0 1.01339zm2.05984 2.11181l-1.05472 0 0 -1.05591 1.05472 0 0 1.05591zm-2.00906 -0.0507874l-1.01575 0 0 -1.01339 1.01575 0 0 1.01339zm1.95827 -2.01024l-1.05472 0 0 -1.05591 1.05472 0 0 1.05591zm-3.93425 1.98425l-1.05472 0 0 -1.05591 1.05472 0 0 1.05591zm-2.00906 -0.0507874l-1.01575 0 0 -1.01339 1.01575 0 0 1.01339zm1.95827 -2.01024l-1.05472 0 0 -1.05591 1.05472 0 0 1.05591zm2.00079 4.07126l-1.01575 0 0 -1.01339 1.01575 0 0 1.01339zm2.05984 2.11181l-1.05472 0 0 -1.05591 1.05472 0 0 1.05591zm-2.00906 -0.0507874l-1.01575 0 0 -1.01339 1.01575 0 0 1.01339zm1.95827 -2.01024l-1.05472 0 0 -1.05591 1.05472 0 0 1.05591zm-3.93425 1.98425l-1.05472 0 0 -1.05591 1.05472 0 0 1.05591zm-2.00906 -0.0507874l-1.01575 0 0 -1.01339 1.01575 0 0 1.01339zm1.95827 -2.01024l-1.05472 0 0 -1.05591 1.05472 0 0 1.05591zm-2.03386 -12.1866l-1.01575 0 0 -1.01339 1.01575 0 0 1.01339zm3.98504 0.0767717l-1.01575 0 0 -1.01339 1.01575 0 0 1.01339zm2.05984 2.11181l-1.05472 0 0 -1.05591 1.05472 0 0 1.05591zm-2.00906 -0.0507874l-1.01575 0 0 -1.01339 1.01575 0 0 1.01339zm1.95827 -2.01024l-1.05472 0 0 -1.05591 1.05472 0 0 1.05591zm-3.93425 1.98425l-1.05472 0 0 -1.05591 1.05472 0 0 1.05591zm-2.00906 -0.0507874l-1.01575 0 0 -1.01339 1.01575 0 0 1.01339zm1.95827 -2.01024l-1.05472 0 0 -1.05591 1.05472 0 0 1.05591zm2.00079 4.07126l-1.01575 0 0 -1.01339 1.01575 0 0 1.01339zm2.05984 2.11181l-1.05472 0 0 -1.05591 1.05472 0 0 1.05591zm-2.00906 -0.0507874l-1.01575 0 0 -1.01339 1.01575 0 0 1.01339zm1.95827 -2.01024l-1.05472 0 0 -1.05591 1.05472 0 0 1.05591zm-3.93425 1.98425l-1.05472 0 0 -1.05591 1.05472 0 0 1.05591zm-2.00906 -0.0507874l-1.01575 0 0 -1.01339 1.01575 0 0 1.01339zm1.95827 -2.01024l-1.05472 0 0 -1.05591 1.05472 0 0 1.05591zm-10.0453 8.03976l-1.01575 0 0 -1.01339 1.01575 0 0 1.01339zm-0.0248031 -4.04528l-1.01575 0 0 -1.01339 1.01575 0 0 1.01339zm3.98504 0.0767717l-1.01575 0 0 -1.01339 1.01575 0 0 1.01339zm2.05984 2.11181l-1.05472 0 0 -1.05591 1.05472 0 0 1.05591zm-2.00906 -0.0507874l-1.01575 0 0 -1.01339 1.01575 0 0 1.01339zm1.95827 -2.01024l-1.05472 0 0 -1.05591 1.05472 0 0 1.05591zm-3.93425 1.98425l-1.05472 0 0 -1.05591 1.05472 0 0 1.05591zm-2.00906 -0.0507874l-1.01575 0 0 -1.01339 1.01575 0 0 1.01339zm1.95827 -2.01024l-1.05472 0 0 -1.05591 1.05472 0 0 1.05591zm2.00079 4.07126l-1.01575 0 0 -1.01339 1.01575 0 0 1.01339zm2.05984 2.11181l-1.05472 0 0 -1.05591 1.05472 0 0 1.05591zm-2.00906 -0.0507874l-1.01575 0 0 -1.01339 1.01575 0 0 1.01339zm1.95827 -2.01024l-1.05472 0 0 -1.05591 1.05472 0 0 1.05591zm-3.93425 1.98425l-1.05472 0 0 -1.05591 1.05472 0 0 1.05591zm-2.00906 -0.0507874l-1.01575 0 0 -1.01339 1.01575 0 0 1.01339zm1.95827 -2.01024l-1.05472 0 0 -1.05591 1.05472 0 0 1.05591zm-2.03386 -12.1866l-1.01575 0 0 -1.01339 1.01575 0 0 1.01339zm3.98504 0.0767717l-1.01575 0 0 -1.01339 1.01575 0 0 1.01339zm2.05984 2.11181l-1.05472 0 0 -1.05591 1.05472 0 0 1.05591zm-2.00906 -0.0507874l-1.01575 0 0 -1.01339 1.01575 0 0 1.01339zm1.95827 -2.01024l-1.05472 0 0 -1.05591 1.05472 0 0 1.05591zm-3.93425 1.98425l-1.05472 0 0 -1.05591 1.05472 0 0 1.05591zm-2.00906 -0.0507874l-1.01575 0 0 -1.01339 1.01575 0 0 1.01339zm1.95827 -2.01024l-1.05472 0 0 -1.05591 1.05472 0 0 1.05591zm2.00079 4.07126l-1.01575 0 0 -1.01339 1.01575 0 0 1.01339zm2.05984 2.11181l-1.05472 0 0 -1.05591 1.05472 0 0 1.05591zm-2.00906 -0.0507874l-1.01575 0 0 -1.01339 1.01575 0 0 1.01339zm1.95827 -2.01024l-1.05472 0 0 -1.05591 1.05472 0 0 1.05591zm-3.93425 1.98425l-1.05472 0 0 -1.05591 1.05472 0 0 1.05591zm-2.00906 -0.0507874l-1.01575 0 0 -1.01339 1.01575 0 0 1.01339zm1.95827 -2.01024l-1.05472 0 0 -1.05591 1.05472 0 0 1.05591zm-6.03543 4.07126l-1.01575 0 0 -1.01339 1.01575 0 0 1.01339zm2.05984 2.11181l-1.05472 0 0 -1.05591 1.05472 0 0 1.05591zm-2.00906 -0.0507874l-1.01575 0 0 -1.01339 1.01575 0 0 1.01339zm1.95827 -2.01024l-1.05472 0 0 -1.05591 1.05472 0 0 1.05591zm-3.93425 1.98425l-0.0933071 0 -0.0023622 -1.05591 0.0956693 0 0 1.05591zm-0.0507874 -2.06102l-0.046063 0 -0.0023622 -1.05591 0.0484252 0 0 1.05591zm2.00079 4.07126l-1.01575 0 0 -1.01339 1.01575 0 0 1.01339zm2.05984 2.11181l-1.05472 0 0 -1.05591 1.05472 0 0 1.05591zm-2.00906 -0.0507874l-1.01575 0 0 -1.01339 1.01575 0 0 1.01339zm1.95827 -2.01024l-1.05472 0 0 -1.05591 1.05472 0 0 1.05591zm-3.93425 1.98425l-0.111024 0 -0.0011811 -1.05591 0.112205 0 0 1.05591zm-0.0507874 -2.06102l-0.0637795 0 -0.0023622 -1.05591 0.0661417 0 0 1.05591zm1.95118 -12.1098l-1.01575 0 0 -1.01339 1.01575 0 0 1.01339zm2.05984 2.11181l-1.05472 0 0 -1.05591 1.05472 0 0 1.05591zm-2.00906 -0.0507874l-1.01575 0 0 -1.01339 1.01575 0 0 1.01339zm1.95827 -2.01024l-1.05472 0 0 -1.05591 1.05472 0 0 1.05591zm-3.93425 1.98425l-0.108661 0 -0.0023622 -1.05591 0.111024 0 0 1.05591zm-0.0507874 -2.06102l-0.0614173 0 -0.0023622 -1.05591 0.0637795 0 0 1.05591zm2.00079 4.07126l-1.01575 0 0 -1.01339 1.01575 0 0 1.01339zm2.05984 2.11181l-1.05472 0 0 -1.05591 1.05472 0 0 1.05591zm-2.00906 -0.0507874l-1.01575 0 0 -1.01339 1.01575 0 0 1.01339zm1.95827 -2.01024l-1.05472 0 0 -1.05591 1.05472 0 0 1.05591zm-3.93425 1.98425l-0.126378 0 -0.0011811 -1.05591 0.127559 0 0 1.05591zm-0.0507874 -2.06102l-0.0791339 0 -0.0023622 -1.05591 0.0814961 0 0 1.05591zm5.97756 16.0701l-1.01575 0 0 -1.01339 1.01575 0 0 1.01339zm8.03622 0l-1.01575 0 0 -1.01339 1.01575 0 0 1.01339zm0 8.09055l-1.01575 0 0 -1.01339 1.01575 0 0 1.01339zm-0.0248031 -4.04528l-1.01575 0 0 -1.01339 1.01575 0 0 1.01339zm3.98504 0.0767717l-1.01575 0 0 -1.01339 1.01575 0 0 1.01339zm2.05984 2.11181l-1.05472 0 0 -1.05591 1.05472 0 0 1.05591zm-2.00906 -0.0507874l-1.01575 0 0 -1.01339 1.01575 0 0 1.01339zm1.95827 -2.01024l-1.05472 0 0 -1.05591 1.05472 0 0 1.05591zm-3.93425 1.98425l-1.05472 0 0 -1.05591 1.05472 0 0 1.05591zm-2.00906 -0.0507874l-1.01575 0 0 -1.01339 1.01575 0 0 1.01339zm1.95827 -2.01024l-1.05472 0 0 -1.05591 1.05472 0 0 1.05591zm2.00079 4.07126l-1.01575 0 0 -1.01339 1.01575 0 0 1.01339zm2.05984 2.11181l-1.05472 0 0 -1.05591 1.05472 0 0 1.05591zm-2.00906 -0.0507874l-1.01575 0 0 -1.01339 1.01575 0 0 1.01339zm1.95827 -2.01024l-1.05472 0 0 -1.05591 1.05472 0 0 1.05591zm-3.93425 1.98425l-1.05472 0 0 -1.05591 1.05472 0 0 1.05591zm-2.00906 -0.0507874l-1.01575 0 0 -1.01339 1.01575 0 0 1.01339zm1.95827 -2.01024l-1.05472 0 0 -1.05591 1.05472 0 0 1.05591zm-2.03386 -12.1866l-1.01575 0 0 -1.01339 1.01575 0 0 1.01339zm3.98504 0.0767717l-1.01575 0 0 -1.01339 1.01575 0 0 1.01339zm2.05984 2.11181l-1.05472 0 0 -1.05591 1.05472 0 0 1.05591zm-2.00906 -0.0507874l-1.01575 0 0 -1.01339 1.01575 0 0 1.01339zm1.95827 -2.01024l-1.05472 0 0 -1.05591 1.05472 0 0 1.05591zm-3.93425 1.98425l-1.05472 0 0 -1.05591 1.05472 0 0 1.05591zm-2.00906 -0.0507874l-1.01575 0 0 -1.01339 1.01575 0 0 1.01339zm1.95827 -2.01024l-1.05472 0 0 -1.05591 1.05472 0 0 1.05591zm2.00079 4.07126l-1.01575 0 0 -1.01339 1.01575 0 0 1.01339zm2.05984 2.11181l-1.05472 0 0 -1.05591 1.05472 0 0 1.05591zm-2.00906 -0.0507874l-1.01575 0 0 -1.01339 1.01575 0 0 1.01339zm1.95827 -2.01024l-1.05472 0 0 -1.05591 1.05472 0 0 1.05591zm-3.93425 1.98425l-1.05472 0 0 -1.05591 1.05472 0 0 1.05591zm-2.00906 -0.0507874l-1.01575 0 0 -1.01339 1.01575 0 0 1.01339zm1.95827 -2.01024l-1.05472 0 0 -1.05591 1.05472 0 0 1.05591zm-10.0453 8.03976l-1.01575 0 0 -1.01339 1.01575 0 0 1.01339zm-0.0248031 -4.04528l-1.01575 0 0 -1.01339 1.01575 0 0 1.01339zm3.98504 0.0767717l-1.01575 0 0 -1.01339 1.01575 0 0 1.01339zm2.05984 2.11181l-1.05472 0 0 -1.05591 1.05472 0 0 1.05591zm-2.00906 -0.0507874l-1.01575 0 0 -1.01339 1.01575 0 0 1.01339zm1.95827 -2.01024l-1.05472 0 0 -1.05591 1.05472 0 0 1.05591zm-3.93425 1.98425l-1.05472 0 0 -1.05591 1.05472 0 0 1.05591zm-2.00906 -0.0507874l-1.01575 0 0 -1.01339 1.01575 0 0 1.01339zm1.95827 -2.01024l-1.05472 0 0 -1.05591 1.05472 0 0 1.05591zm2.00079 4.07126l-1.01575 0 0 -1.01339 1.01575 0 0 1.01339zm2.05984 2.11181l-1.05472 0 0 -1.05591 1.05472 0 0 1.05591zm-2.00906 -0.0507874l-1.01575 0 0 -1.01339 1.01575 0 0 1.01339zm1.95827 -2.01024l-1.05472 0 0 -1.05591 1.05472 0 0 1.05591zm-3.93425 1.98425l-1.05472 0 0 -1.05591 1.05472 0 0 1.05591zm-2.00906 -0.0507874l-1.01575 0 0 -1.01339 1.01575 0 0 1.01339zm1.95827 -2.01024l-1.05472 0 0 -1.05591 1.05472 0 0 1.05591zm-2.03386 -12.1866l-1.01575 0 0 -1.01339 1.01575 0 0 1.01339zm3.98504 0.0767717l-1.01575 0 0 -1.01339 1.01575 0 0 1.01339zm2.05984 2.11181l-1.05472 0 0 -1.05591 1.05472 0 0 1.05591zm-2.00906 -0.0507874l-1.01575 0 0 -1.01339 1.01575 0 0 1.01339zm1.95827 -2.01024l-1.05472 0 0 -1.05591 1.05472 0 0 1.05591zm-3.93425 1.98425l-1.05472 0 0 -1.05591 1.05472 0 0 1.05591zm-2.00906 -0.0507874l-1.01575 0 0 -1.01339 1.01575 0 0 1.01339zm1.95827 -2.01024l-1.05472 0 0 -1.05591 1.05472 0 0 1.05591zm2.00079 4.07126l-1.01575 0 0 -1.01339 1.01575 0 0 1.01339zm2.05984 2.11181l-1.05472 0 0 -1.05591 1.05472 0 0 1.05591zm-2.00906 -0.0507874l-1.01575 0 0 -1.01339 1.01575 0 0 1.01339zm1.95827 -2.01024l-1.05472 0 0 -1.05591 1.05472 0 0 1.05591zm-3.93425 1.98425l-1.05472 0 0 -1.05591 1.05472 0 0 1.05591zm-2.00906 -0.0507874l-1.01575 0 0 -1.01339 1.01575 0 0 1.01339zm1.95827 -2.01024l-1.05472 0 0 -1.05591 1.05472 0 0 1.05591zm-6.03543 4.07126l-1.01575 0 0 -1.01339 1.01575 0 0 1.01339zm2.05984 2.11181l-1.05472 0 0 -1.05591 1.05472 0 0 1.05591zm-2.00906 -0.0507874l-1.01575 0 0 -1.01339 1.01575 0 0 1.01339zm1.95827 -2.01024l-1.05472 0 0 -1.05591 1.05472 0 0 1.05591zm-3.93425 1.98425l-0.0625984 0 -0.0023622 -1.05591 0.0649606 0 0 1.05591zm-0.0507874 -2.06102l-0.0153543 0 -0.0023622 -1.05591 0.0177165 0 0 1.05591zm2.00079 4.07126l-1.01575 0 0 -1.01339 1.01575 0 0 1.01339zm2.05984 2.11181l-1.05472 0 0 -1.05591 1.05472 0 0 1.05591zm-2.00906 -0.0507874l-1.01575 0 0 -1.01339 1.01575 0 0 1.01339zm1.95827 -2.01024l-1.05472 0 0 -1.05591 1.05472 0 0 1.05591zm-3.93425 1.98425l-0.080315 0 -0.0011811 -1.05591 0.0814961 0 0 1.05591zm-0.0507874 -2.06102l-0.0330709 0 -0.0023622 -1.05591 0.0354331 0 0 1.05591zm1.95118 -12.1098l-1.01575 0 0 -1.01339 1.01575 0 0 1.01339zm2.05984 2.11181l-1.05472 0 0 -1.05591 1.05472 0 0 1.05591zm-2.00906 -0.0507874l-1.01575 0 0 -1.01339 1.01575 0 0 1.01339zm1.95827 -2.01024l-1.05472 0 0 -1.05591 1.05472 0 0 1.05591zm-3.93425 1.98425l-0.0779528 0 -0.0023622 -1.05591 0.080315 0 0 1.05591zm-0.0507874 -2.06102l-0.0307087 0 -0.0023622 -1.05591 0.0330709 0 0 1.05591zm2.00079 4.07126l-1.01575 0 0 -1.01339 1.01575 0 0 1.01339zm2.05984 2.11181l-1.05472 0 0 -1.05591 1.05472 0 0 1.05591zm-2.00906 -0.0507874l-1.01575 0 0 -1.01339 1.01575 0 0 1.01339zm1.95827 -2.01024l-1.05472 0 0 -1.05591 1.05472 0 0 1.05591zm-3.93425 1.98425l-0.0956693 0 -0.0011811 -1.05591 0.0968504 0 0 1.05591zm-0.0507874 -2.06102l-0.0484252 0 -0.0023622 -1.05591 0.0507874 0 0 1.05591z"/>
  <g id="_59822840">
   <path id="_124698480" class="fil24" d="M28.0252 27.4358c5.90906,0 10.7031,1.77992 10.7031,3.97559 0,2.19449 -4.79409,3.97441 -10.7031,3.97441 -5.91142,0 -10.7043,-1.77992 -10.7043,-3.97441 0,-2.19567 4.79291,-3.97559 10.7043,-3.97559z"/>
   <g>
    <path id="_120915424" class="fil25" d="M28.037 27.9071c5.4,0 9.78189,1.62638 9.78189,3.63307 0,2.00551 -4.38189,3.63189 -9.78189,3.63189 -5.40354,0 -9.78543,-1.62638 -9.78543,-3.63189 0,-2.00669 4.38189,-3.63307 9.78543,-3.63307z"/>
    <path id="_123968016" class="fil26" d="M28.0465 28.3772c4.89213,0 8.86181,1.47402 8.86181,3.29173 0,1.81654 -3.96969,3.29055 -8.86181,3.29055 -4.89567,0 -8.86535,-1.47402 -8.86535,-3.29055 0,-1.81772 3.96969,-3.29173 8.86535,-3.29173z"/>
    <path id="_59907840" class="fil27" d="M28.0559 28.8484c4.38543,0 7.94173,1.32165 7.94173,2.95039 0,1.62756 -3.5563,2.94803 -7.94173,2.94803 -4.38661,0 -7.94409,-1.32047 -7.94409,-2.94803 0,-1.62874 3.55748,-2.95039 7.94409,-2.95039z"/>
    <path id="_126968304" class="fil28" d="M28.0654 29.3197c3.87756,0 7.02283,1.16693 7.02283,2.60787 0,1.43858 -3.14528,2.60669 -7.02283,2.60669 -3.87874,0 -7.02283,-1.16811 -7.02283,-2.60669 0,-1.44094 3.14409,-2.60787 7.02283,-2.60787z"/>
    <path id="_61345072" class="fil29" d="M28.076 29.7898c3.3685,0 6.10157,1.01457 6.10157,2.26654 0,1.25079 -2.73307,2.26535 -6.10157,2.26535 -3.37087,0 -6.10276,-1.01457 -6.10276,-2.26535 0,-1.25197 2.73189,-2.26654 6.10276,-2.26654z"/>
    <path id="_120976800" class="fil30" d="M28.0854 30.2598c2.86063,0 5.1815,0.862205 5.1815,1.9252 0,1.06181 -2.32087,1.92402 -5.1815,1.92402 -2.86181,0 -5.18268,-0.862205 -5.18268,-1.92402 0,-1.06299 2.32087,-1.9252 5.18268,-1.9252z"/>
    <path id="_59277120" class="fil31" d="M28.0961 30.7311c2.35276,0 4.26142,0.708661 4.26142,1.58268 0,0.874016 -1.90866,1.58268 -4.26142,1.58268 -2.35394,0 -4.2626,-0.708661 -4.2626,-1.58268 0,-0.874016 1.90866,-1.58268 4.2626,-1.58268z"/>
    <path id="_59774304" class="fil32" d="M28.1055 31.2024c1.8437,0 3.34134,0.555118 3.34134,1.24016 0,0.685039 -1.49764,1.24134 -3.34134,1.24134 -1.84606,0 -3.34252,-0.556299 -3.34252,-1.24134 0,-0.685039 1.49646,-1.24016 3.34252,-1.24016z"/>
   </g>
   <path id="_59783936" class="fil33" d="M28.115 31.6724c1.33701,0 2.42126,0.402756 2.42126,0.9 0,0.496063 -1.08425,0.898819 -2.42126,0.898819 -1.33701,0 -2.42126,-0.402756 -2.42126,-0.898819 0,-0.497244 1.08425,-0.9 2.42126,-0.9z"/>
  </g>
  <g id="_46733192">
   <path id="_58655072" class="fil24" d="M27.6945 37.3665c6.65315,-0.405118 11.9504,-2.78504 11.8264,-5.31378 -0.124016,-2.52756 -5.62205,-4.24961 -12.274,-3.84331 -6.65669,0.405118 -11.9528,2.78504 -11.8299,5.3126 0.124016,2.52874 5.62205,4.25079 12.2776,3.84449z"/>
   <g>
    <path id="_59149160" class="fil34" d="M27.6815 36.9236c6.20906,-0.377953 11.152,-2.57953 11.0374,-4.91575 -0.114567,-2.33504 -5.24291,-3.92244 -11.452,-3.54449 -6.21024,0.377953 -11.1543,2.57953 -11.0398,4.91575 0.114567,2.33622 5.24409,3.92362 11.4543,3.54449z"/>
    <path id="_58916856" class="fil35" d="M27.6673 36.4807c5.76378,-0.350787 10.3535,-2.37402 10.2484,-4.5189 -0.105118,-2.14252 -4.86496,-3.59646 -10.6287,-3.24449 -5.76496,0.350787 -10.3559,2.37402 -10.2508,4.51772 0.105118,2.1437 4.86614,3.59764 10.6311,3.24567z"/>
    <path id="_58776328" class="fil36" d="M27.6543 36.0378c5.3185,-0.323622 9.55394,-2.1685 9.45827,-4.12087 -0.0944882,-1.95118 -4.48701,-3.27047 -9.80551,-2.94685 -5.31969,0.324803 -9.55748,2.16969 -9.46181,4.12087 0.0956693,1.95236 4.48819,3.27165 9.80906,2.94685z"/>
    <path id="_58781760" class="fil37" d="M27.6402 35.5949c4.87323,-0.296457 8.75669,-1.96417 8.67047,-3.72402 -0.0862205,-1.75866 -4.10906,-2.94449 -8.98228,-2.64685 -4.87559,0.296457 -8.75906,1.96417 -8.67283,3.72283 0.0862205,1.75984 4.10906,2.94567 8.98465,2.64803z"/>
    <path id="_58296208" class="fil38" d="M27.626 35.152c4.42795,-0.269291 7.95827,-1.75984 7.8815,-3.32598 -0.0767717,-1.56614 -3.7311,-2.6185 -8.16024,-2.34803 -4.43031,0.269291 -7.95945,1.75866 -7.88386,3.32598 0.0779528,1.56614 3.73228,2.6185 8.1626,2.34803z"/>
    <path id="_120211104" class="fil39" d="M27.6118 34.7091c3.98386,-0.242126 7.15984,-1.55433 7.09252,-2.92913 -0.0673228,-1.37362 -3.35315,-2.29134 -7.33701,-2.04803 -3.98386,0.242126 -7.16102,1.55433 -7.0937,2.92795 0.0673228,1.3748 3.35315,2.29252 7.33819,2.04921z"/>
    <path id="_62937160" class="fil40" d="M27.5988 34.2661c3.5374,-0.214961 6.36142,-1.34882 6.30354,-2.5311 -0.0590551,-1.18228 -2.9752,-1.96535 -6.51378,-1.75039 -3.53976,0.216142 -6.36378,1.35 -6.30591,2.5311 0.057874,1.18228 2.9752,1.96654 6.51614,1.75039z"/>
    <path id="_123677640" class="fil41" d="M27.5846 33.8232c3.09213,-0.188976 5.56299,-1.14449 5.51457,-2.13425 -0.0484252,-0.989764 -2.59724,-1.63937 -5.69055,-1.45039 -3.09449,0.188976 -5.56535,1.14449 -5.51575,2.13425 0.0484252,0.989764 2.59606,1.63937 5.69173,1.45039z"/>
    <path id="_58026760" class="fil42" d="M27.5705 33.3803c2.64685,-0.16063 4.76457,-0.938976 4.72559,-1.73622 -0.0389764,-0.797244 -2.21929,-1.31339 -4.86732,-1.15157 -2.65039,0.161811 -4.76693,0.938976 -4.72795,1.73622 0.0389764,0.798425 2.21929,1.31339 4.86969,1.15157z"/>
    <path id="_58306960" class="fil43" d="M27.5563 32.9374c2.20276,-0.134646 3.96614,-0.734646 3.93661,-1.33937 -0.0295276,-0.604724 -1.84134,-0.98622 -4.04409,-0.852756 -2.20512,0.134646 -3.96732,0.734646 -3.9378,1.33937 0.0295276,0.604724 1.84016,0.987402 4.04528,0.852756z"/>
    <path id="_62989016" class="fil44" d="M27.5421 32.4945c1.75866,-0.10748 3.1689,-0.529134 3.14882,-0.941339 -0.0212598,-0.413386 -1.46339,-0.660236 -3.22205,-0.553937 -1.75984,0.10748 -3.1689,0.529134 -3.14882,0.941339 0.0200787,0.413386 1.4622,0.661417 3.22205,0.553937z"/>
    <path id="_120574144" class="fil45" d="M27.5291 32.0516c1.3122,-0.080315 2.36929,-0.323622 2.35866,-0.544488 -0.0106299,-0.220866 -1.08543,-0.334252 -2.39882,-0.253937 -1.31457,0.080315 -2.37047,0.323622 -2.35984,0.543307 0.0106299,0.220866 1.08543,0.335433 2.4,0.255118z"/>
   </g>
   <path id="_58239424" class="fil33" d="M27.5138 31.6087c0.86811,-0.0531496 1.57205,-0.11811 1.57087,-0.146457 -0.0011811,-0.0283465 -0.70748,-0.00826772 -1.57559,0.0448819 -0.869291,0.0531496 -1.57205,0.11811 -1.57087,0.146457 0.0011811,0.0283465 0.706299,0.00826772 1.57559,-0.0448819z"/>
  </g>
  <g id="_58847832">
   <path id="_58016304" class="fil24" d="M28.7209 35.7909c4.67362,-0.336614 8.39528,-2.30906 8.30787,-4.40551 -0.0874016,-2.09528 -3.94961,-3.52205 -8.62323,-3.18661 -4.67598,0.336614 -8.39646,2.30906 -8.31024,4.40433 0.0874016,2.09646 3.94961,3.52323 8.62559,3.1878z"/>
   <g>
    <path id="_48298448" class="fil34" d="M28.7114 35.4236c4.36181,-0.314173 7.83425,-2.13898 7.75394,-4.07598 -0.080315,-1.93583 -3.68386,-3.25157 -8.04449,-2.9374 -4.36417,0.312992 -7.83661,2.1378 -7.7563,4.07362 0.080315,1.93701 3.68386,3.25276 8.04685,2.93976z"/>
    <path id="_58025264" class="fil35" d="M28.702 35.0563c4.04882,-0.291732 7.27323,-1.9689 7.19882,-3.74646 -0.0732283,-1.77638 -3.41811,-2.9811 -7.46575,-2.69055 -4.05118,0.291732 -7.27559,1.9689 -7.20236,3.74528 0.0744094,1.77756 3.41811,2.98228 7.46929,2.69173z"/>
    <path id="_48296240" class="fil36" d="M28.6925 34.689c3.73583,-0.269291 6.7122,-1.79882 6.64488,-3.41693 -0.0673228,-1.61693 -3.15236,-2.71063 -6.88819,-2.44134 -3.73819,0.26811 -6.71457,1.79764 -6.64724,3.41575 0.0661417,1.61811 3.15236,2.71181 6.89055,2.44252z"/>
    <path id="_58032200" class="fil37" d="M28.6831 34.3217c3.42283,-0.24685 6.15118,-1.62874 6.09094,-3.0874 -0.0614173,-1.45748 -2.8878,-2.44016 -6.31063,-2.19449 -3.4252,0.24685 -6.15354,1.62874 -6.09331,3.08622 0.0614173,1.45866 2.8878,2.44134 6.31299,2.19567z"/>
    <path id="_58039848" class="fil38" d="M28.6724 33.9543c3.11102,-0.223228 5.59016,-1.45866 5.53701,-2.75787 -0.0543307,-1.29803 -2.62087,-2.16969 -5.73307,-1.94528 -3.1122,0.223228 -5.59252,1.45748 -5.53819,2.75669 0.0543307,1.29921 2.62205,2.17087 5.73425,1.94646z"/>
    <path id="_58037640" class="fil39" d="M28.663 33.587c2.79803,-0.200787 5.02913,-1.28858 4.98189,-2.42717 -0.0472441,-1.13976 -2.35512,-1.90039 -5.15433,-1.69843 -2.79921,0.200787 -5.03031,1.2874 -4.98307,2.42717 0.0472441,1.13976 2.35512,1.90039 5.15551,1.69843z"/>
    <path id="_62361976" class="fil40" d="M28.6535 33.2197c2.48504,-0.178346 4.46811,-1.1185 4.42795,-2.09882 -0.0413386,-0.979134 -2.09055,-1.62874 -4.57559,-1.45039 -2.4874,0.179528 -4.47047,1.1185 -4.43031,2.09882 0.0413386,0.980315 2.09055,1.62992 4.57795,1.45039z"/>
    <path id="_63122304" class="fil41" d="M28.6429 32.8524c2.17323,-0.155906 3.90827,-0.948425 3.87402,-1.76811 -0.0330709,-0.820866 -1.8248,-1.35945 -3.99685,-1.20236 -2.17441,0.155906 -3.90945,0.948425 -3.8752,1.76811 0.0330709,0.820866 1.82362,1.35945 3.99803,1.20236z"/>
    <path id="_58560264" class="fil42" d="M28.6335 32.4862c1.86024,-0.134646 3.34724,-0.778346 3.32008,-1.43976 -0.0283465,-0.661417 -1.55906,-1.0878 -3.42047,-0.954331 -1.86142,0.133465 -3.34843,0.778346 -3.32126,1.43858 0.0283465,0.661417 1.56024,1.08898 3.42165,0.955512z"/>
    <path id="_61142856" class="fil43" d="M28.624 32.1189c1.54724,-0.112205 2.78622,-0.609449 2.76496,-1.11024 -0.0200787,-0.501969 -1.29331,-0.818504 -2.84055,-0.70748 -1.54961,0.112205 -2.7874,0.609449 -2.76732,1.11024 0.0212598,0.501969 1.29331,0.818504 2.84291,0.70748z"/>
    <path id="_58164504" class="fil44" d="M28.6134 31.7516c1.23543,-0.0885827 2.22638,-0.438189 2.2122,-0.780709 -0.0141732,-0.34252 -1.02874,-0.548031 -2.26299,-0.458268 -1.23661,0.0885827 -2.22638,0.438189 -2.2122,0.779528 0.0141732,0.34252 1.02756,0.548031 2.26299,0.459449z"/>
    <path id="_60721736" class="fil45" d="M28.6039 31.3843c0.922441,-0.0661417 1.66535,-0.269291 1.65709,-0.451181 -0.00708661,-0.183071 -0.761811,-0.277559 -1.68425,-0.211417 -0.923622,0.0673228 -1.66654,0.269291 -1.65827,0.451181 0.00708661,0.183071 0.761811,0.277559 1.68543,0.211417z"/>
   </g>
   <path id="_124413048" class="fil33" d="M28.5933 31.0169c0.61063,-0.0437008 1.10433,-0.0980315 1.10315,-0.121654 0,-0.023622 -0.496063,-0.00590551 -1.10669,0.0377953 -0.61063,0.0437008 -1.10433,0.0980315 -1.10315,0.121654 0.0011811,0.0224409 0.496063,0.00590551 1.10669,-0.0377953z"/>
  </g>
  <g id="_60719800">
   <path id="_65144856" class="fil24" d="M19.4752 21.0862c4.9122,3.28228 7.98898,7.30276 6.87047,8.97638 -1.1185,1.67362 -6.01063,0.368504 -10.9217,-2.91378 -4.91339,-3.28465 -7.99134,-7.30394 -6.87283,-8.97756 1.1185,-1.67362 6.01063,-0.368504 10.924,2.91496z"/>
   <g>
    <path id="_120342432" class="fil34" d="M19.2862 21.3839c4.58268,3.0626 7.4622,6.80079 6.42874,8.34803 -1.03346,1.54606 -5.58898,0.315354 -10.1717,-2.74724 -4.58622,-3.06496 -7.46575,-6.80315 -6.43228,-8.34921 1.03346,-1.54724 5.59016,-0.316535 10.1752,2.74843z"/>
    <path id="_59828320" class="fil35" d="M19.0961 21.6803c4.25433,2.84291 6.93661,6.30118 5.98819,7.71969 -0.948425,1.41969 -5.1685,0.263386 -9.42402,-2.58071 -4.25551,-2.84409 -6.93898,-6.30118 -5.99055,-7.71969 0.948425,-1.41969 5.16969,-0.263386 9.42638,2.58071z"/>
    <path id="_122998464" class="fil36" d="M18.9059 21.9768c3.92598,2.62441 6.41102,5.80039 5.54764,7.09252 -0.863386,1.29094 -4.74803,0.210236 -8.67402,-2.41417 -3.92835,-2.62441 -6.41339,-5.80039 -5.55,-7.09252 0.863386,-1.29213 4.74803,-0.210236 8.67638,2.41417z"/>
    <path id="_125019048" class="fil37" d="M18.7157 22.2744c3.59764,2.40354 5.88425,5.29843 5.10591,6.46299 -0.777165,1.16457 -4.32638,0.158268 -7.92402,-2.24528 -3.6,-2.40591 -5.88661,-5.30079 -5.10945,-6.46417 0.778346,-1.16575 4.32874,-0.159449 7.92756,2.24646z"/>
    <path id="_124413072" class="fil38" d="M18.5256 22.5697c3.26929,2.18504 5.35866,4.79882 4.66535,5.83583 -0.693307,1.03701 -3.90709,0.106299 -7.17638,-2.07874 -3.27047,-2.18622 -5.35984,-4.79882 -4.66772,-5.83583 0.693307,-1.03819 3.90827,-0.106299 7.17874,2.07874z"/>
    <path id="_59703072" class="fil39" d="M18.3354 22.8673c2.94094,1.96535 4.83307,4.29685 4.2248,5.20748 -0.608268,0.909449 -3.48661,0.0531496 -6.42756,-1.9122 -2.94094,-1.96654 -4.83425,-4.29803 -4.22598,-5.20866 0.608268,-0.909449 3.48661,-0.0531496 6.42874,1.91339z"/>
    <path id="_48241296" class="fil40" d="M18.1453 23.1638c2.6126,1.74567 4.30748,3.79606 3.78425,4.57913 -0.523228,0.78189 -3.06614,0.0011811 -5.67756,-1.74449 -2.61378,-1.74685 -4.30866,-3.79724 -3.78543,-4.58031 0.522047,-0.78189 3.06614,-0.0011811 5.67874,1.74567z"/>
    <path id="_124327864" class="fil41" d="M17.9563 23.4602c2.28307,1.52598 3.78071,3.29646 3.34252,3.95079 -0.438189,0.655512 -2.64567,-0.0519685 -4.92874,-1.57677 -2.28543,-1.52717 -3.78189,-3.29646 -3.34488,-3.95197 0.438189,-0.655512 2.64567,0.0519685 4.9311,1.57795z"/>
    <path id="_64549248" class="fil42" d="M17.765 23.7567c1.95472,1.3063 3.25512,2.79449 2.90315,3.32244 -0.35315,0.527953 -2.2252,-0.103937 -4.17992,-1.41024 -1.95709,-1.30748 -3.25748,-2.79567 -2.90433,-3.32362 0.35315,-0.527953 2.2252,0.103937 4.1811,1.41142z"/>
    <path id="_122687440" class="fil43" d="M17.576 24.0543c1.6252,1.08661 2.72835,2.2937 2.46024,2.69409 -0.266929,0.400394 -1.80354,-0.157087 -3.42992,-1.2437 -1.62756,-1.0878 -2.73071,-2.2937 -2.4626,-2.69409 0.266929,-0.400394 1.80354,0.155906 3.43228,1.2437z"/>
    <path id="_64349816" class="fil44" d="M17.3858 24.3508c1.29803,0.866929 2.20276,1.79291 2.01969,2.06575 -0.18189,0.274016 -1.38307,-0.209055 -2.6811,-1.07598 -1.29921,-0.86811 -2.20394,-1.79291 -2.02087,-2.06693 0.18189,-0.272835 1.38307,0.209055 2.68228,1.07717z"/>
    <path id="_126968328" class="fil45" d="M17.1957 24.6472c0.968504,0.648425 1.67717,1.29213 1.57913,1.43858 -0.0968504,0.145276 -0.96378,-0.262205 -1.93228,-0.909449 -0.970866,-0.648425 -1.67835,-1.29213 -1.58031,-1.43858 0.0968504,-0.146457 0.962598,0.261024 1.93346,0.909449z"/>
   </g>
   <path id="_58042328" class="fil33" d="M17.0043 24.9437c0.641339,0.42874 1.15157,0.791339 1.13976,0.810236 -0.0129921,0.0177165 -0.543307,-0.314173 -1.18465,-0.742913 -0.641339,-0.42874 -1.15157,-0.791339 -1.13858,-0.810236 0.011811,-0.0177165 0.542126,0.314173 1.18346,0.742913z"/>
  </g>
  <g id="_47544784">
   <path id="_47521496" class="fil24" d="M18.9094 21.7677c4.91102,3.28228 7.98898,7.30276 6.86929,8.97638 -1.11732,1.67362 -6.00945,0.368504 -10.9205,-2.91378 -4.91457,-3.28465 -7.99134,-7.30394 -6.87283,-8.97756 1.1185,-1.67362 6.00945,-0.368504 10.924,2.91496z"/>
   <g>
    <path id="_47431040" class="fil34" d="M18.7193 22.0654c4.58386,3.0626 7.46339,6.80079 6.42992,8.34803 -1.03346,1.54606 -5.58898,0.315354 -10.1728,-2.74724 -4.58504,-3.06496 -7.46457,-6.80315 -6.4311,-8.34921 1.03346,-1.54724 5.58898,-0.316535 10.174,2.74843z"/>
    <path id="_47545688" class="fil35" d="M18.5291 22.3618c4.25433,2.84291 6.9378,6.3 5.98819,7.71969 -0.947244,1.4185 -5.1685,0.263386 -9.42283,-2.58071 -4.25669,-2.84409 -6.93898,-6.30118 -5.99055,-7.71969 0.948425,-1.41969 5.1685,-0.263386 9.4252,2.58071z"/>
    <path id="_47504296" class="fil36" d="M18.339 22.6583c3.92717,2.62441 6.4122,5.80039 5.54764,7.09252 -0.862205,1.29094 -4.74803,0.210236 -8.67402,-2.41417 -3.92717,-2.62441 -6.4122,-5.80039 -5.55,-7.09252 0.863386,-1.29213 4.74921,-0.210236 8.67638,2.41417z"/>
    <path id="_46583744" class="fil37" d="M18.15 22.9559c3.59764,2.40354 5.88425,5.29843 5.10591,6.46299 -0.778346,1.16457 -4.32756,0.158268 -7.9252,-2.24646 -3.59882,-2.40472 -5.88661,-5.29961 -5.10827,-6.46299 0.778346,-1.16575 4.32756,-0.159449 7.92756,2.24646z"/>
    <path id="_47075664" class="fil38" d="M17.9598 23.2512c3.26929,2.18504 5.35866,4.79882 4.66535,5.83583 -0.693307,1.03701 -3.90709,0.106299 -7.17638,-2.07874 -3.27047,-2.18622 -5.36102,-4.79882 -4.66772,-5.83583 0.693307,-1.03819 3.90709,-0.106299 7.17874,2.07874z"/>
    <path id="_47525656" class="fil39" d="M17.7697 23.5488c2.93976,1.96535 4.83307,4.29685 4.2248,5.20748 -0.608268,0.909449 -3.48661,0.0519685 -6.42756,-1.9122 -2.94213,-1.96654 -4.83425,-4.29803 -4.22598,-5.20866 0.607087,-0.909449 3.48661,-0.0531496 6.42874,1.91339z"/>
    <path id="_47528728" class="fil40" d="M17.5795 23.8453c2.61142,1.74567 4.3063,3.79606 3.78425,4.57913 -0.523228,0.78189 -3.06614,0.0011811 -5.67874,-1.74449 -2.6126,-1.74685 -4.30748,-3.79724 -3.78543,-4.58031 0.523228,-0.78189 3.06614,-0.0011811 5.67992,1.74567z"/>
    <path id="_47532824" class="fil41" d="M17.3894 24.1417c2.28307,1.52598 3.78071,3.29528 3.34252,3.95079 -0.437008,0.655512 -2.64567,-0.0519685 -4.92874,-1.57795 -2.28425,-1.52598 -3.78189,-3.29528 -3.3437,-3.95079 0.438189,-0.655512 2.64567,0.0519685 4.92992,1.57795z"/>
    <path id="_47521696" class="fil42" d="M17.1992 24.4382c1.95472,1.3063 3.25512,2.79449 2.90197,3.32244 -0.351969,0.527953 -2.2252,-0.103937 -4.17992,-1.41024 -1.95591,-1.30748 -3.2563,-2.79567 -2.90315,-3.32362 0.351969,-0.527953 2.2252,0.103937 4.1811,1.41142z"/>
    <path id="_47779824" class="fil43" d="M17.0091 24.7358c1.62638,1.08661 2.72835,2.2937 2.46142,2.69409 -0.26811,0.400394 -1.80472,-0.157087 -3.4311,-1.2437 -1.62756,-1.0878 -2.72953,-2.2937 -2.4626,-2.69409 0.26811,-0.401575 1.80472,0.155906 3.43228,1.2437z"/>
    <path id="_47521344" class="fil44" d="M16.8189 25.0323c1.29803,0.866929 2.20276,1.79291 2.02087,2.06575 -0.183071,0.274016 -1.38425,-0.209055 -2.68228,-1.07598 -1.29921,-0.86811 -2.20276,-1.79291 -2.02087,-2.06693 0.183071,-0.272835 1.38307,0.209055 2.68228,1.07717z"/>
    <path id="_47503368" class="fil45" d="M16.6287 25.3287c0.969685,0.648425 1.67717,1.29213 1.58031,1.43858 -0.0980315,0.145276 -0.96378,-0.262205 -1.93346,-0.909449 -0.969685,-0.648425 -1.67717,-1.29331 -1.58031,-1.43858 0.0980315,-0.146457 0.96378,0.261024 1.93346,0.909449z"/>
   </g>
   <path id="_123732128" class="fil33" d="M16.4386 25.6252c0.641339,0.42874 1.15157,0.791339 1.13858,0.810236 -0.011811,0.0177165 -0.542126,-0.314173 -1.18346,-0.742913 -0.641339,-0.42874 -1.15157,-0.791339 -1.13976,-0.810236 0.0129921,-0.0177165 0.543307,0.314173 1.18465,0.742913z"/>
  </g>
  <g id="_58166712">
   <path id="_122879592" class="fil24" d="M18.4665 33.5398c4.4126,-2.36102 7.33819,-5.49567 6.53386,-6.99921 -0.804331,-1.50236 -5.03504,-0.806693 -9.44646,1.55315 -4.41378,2.3622 -7.34055,5.49567 -6.53622,6.99921 0.804331,1.50354 5.03504,0.807874 9.44882,-1.55315z"/>
   <g>
    <path id="_123713424" class="fil34" d="M18.3319 33.2728c4.11732,-2.20276 6.85276,-5.11535 6.10984,-6.50433 -0.742913,-1.38898 -4.68425,-0.72874 -8.80157,1.47402 -4.1185,2.20394 -6.85512,5.11654 -6.1122,6.50551 0.742913,1.38898 4.68543,0.72874 8.80394,-1.4752z"/>
    <path id="_64548984" class="fil35" d="M18.1961 33.0071c3.82205,-2.04449 6.3685,-4.7374 5.68701,-6.01181 -0.682677,-1.27441 -4.33583,-0.649606 -8.15669,1.39606 -3.82323,2.04567 -6.37087,4.7374 -5.68937,6.01181 0.682677,1.27559 4.33583,0.649606 8.15906,-1.39606z"/>
    <path id="_63137848" class="fil36" d="M18.0602 32.7413c3.52677,-1.88622 5.88425,-4.35827 5.26299,-5.51929 -0.620079,-1.15984 -3.98504,-0.569291 -7.51181,1.31693 -3.52677,1.8874 -5.88543,4.35945 -5.26417,5.51929 0.62126,1.16102 3.98504,0.570472 7.51299,-1.31693z"/>
    <path id="_65106896" class="fil37" d="M17.9256 32.4756c3.2315,-1.72913 5.39882,-3.98031 4.83898,-5.02677 -0.559843,-1.04528 -3.63543,-0.491339 -6.86693,1.2378 -3.23268,1.73031 -5.4,3.9815 -4.84016,5.02677 0.559843,1.04646 3.63425,0.491339 6.86811,-1.2378z"/>
    <path id="_122181384" class="fil38" d="M17.7898 32.2098c2.93622,-1.57087 4.91339,-3.60118 4.41496,-4.53307 -0.498425,-0.930709 -3.28465,-0.412205 -6.22087,1.15866 -2.9374,1.57205 -4.91575,3.60236 -4.41732,4.53307 0.498425,0.93189 3.28465,0.413386 6.22323,-1.15866z"/>
    <path id="_64489664" class="fil39" d="M17.6539 31.9441c2.64094,-1.41378 4.42913,-3.22205 3.99213,-4.04055 -0.438189,-0.816142 -2.93504,-0.333071 -5.57598,1.08071 -2.64213,1.41378 -4.4315,3.22323 -3.99331,4.04055 0.437008,0.817323 2.93386,0.333071 5.57717,-1.08071z"/>
    <path id="_60721104" class="fil40" d="M17.5181 31.6783c2.34567,-1.25551 3.94488,-2.84409 3.56811,-3.54685 -0.375591,-0.702756 -2.58425,-0.253937 -4.92992,1.00039 -2.34803,1.25669 -3.94606,2.84528 -3.57047,3.54803 0.376772,0.702756 2.58425,0.253937 4.93228,-1.00157z"/>
    <path id="_63040936" class="fil41" d="M17.3823 31.4126c2.05157,-1.09724 3.45945,-2.46496 3.14528,-3.05433 -0.315354,-0.588189 -2.23465,-0.174803 -4.28504,0.922441 -2.05276,1.09843 -3.46181,2.46614 -3.14646,3.05433 0.315354,0.588189 2.23465,0.174803 4.28622,-0.922441z"/>
    <path id="_124212136" class="fil42" d="M17.2465 31.1469c1.7563,-0.940157 2.9752,-2.08701 2.72126,-2.56063 -0.253937,-0.473622 -1.88386,-0.0956693 -3.64016,0.843307 -1.7563,0.940157 -2.97638,2.08701 -2.72244,2.56063 0.253937,0.474803 1.88386,0.0968504 3.64134,-0.843307z"/>
    <path id="_123698600" class="fil43" d="M17.1118 30.8799c1.45984,-0.780709 2.48976,-1.70669 2.29724,-2.06693 -0.19252,-0.360236 -1.53425,-0.0177165 -2.99528,0.764173 -1.4622,0.783071 -2.49094,1.70787 -2.29843,2.06811 0.19252,0.359055 1.53425,0.0177165 2.99646,-0.765354z"/>
    <path id="_59797208" class="fil44" d="M16.976 30.6154c1.16575,-0.624803 2.00433,-1.32992 1.87323,-1.57559 -0.131102,-0.244488 -1.18346,0.0625984 -2.34921,0.68622 -1.16693,0.623622 -2.00551,1.32874 -1.87441,1.57441 0.131102,0.245669 1.18346,-0.0614173 2.35039,-0.685039z"/>
    <path id="_58172192" class="fil45" d="M16.8402 30.3484c0.870472,-0.465354 1.52008,-0.949606 1.45039,-1.08071 -0.0708661,-0.131102 -0.833858,0.140551 -1.70433,0.605906 -0.871654,0.466535 -1.52126,0.950787 -1.45157,1.08189 0.069685,0.131102 0.833858,-0.140551 1.70551,-0.607087z"/>
   </g>
   <path id="_58776184" class="fil33" d="M16.7031 30.0839c0.576378,-0.308268 1.03701,-0.571654 1.02756,-0.58937 -0.00944882,-0.0165354 -0.483071,0.219685 -1.05945,0.527953 -0.576378,0.308268 -1.03583,0.571654 -1.02756,0.58937 0.00944882,0.0165354 0.484252,-0.219685 1.05945,-0.527953z"/>
  </g>
  <g id="_59819936">
   <path id="_47973672" class="fil24" d="M17.674 32.7449c4.41142,-2.36102 7.33819,-5.49449 6.53386,-6.99921 -0.804331,-1.50236 -5.03504,-0.806693 -9.44646,1.55433 -4.41378,2.36102 -7.34055,5.49567 -6.53622,6.99803 0.804331,1.50354 5.03504,0.807874 9.44882,-1.55315z"/>
   <g>
    <path id="_120626872" class="fil34" d="M17.5394 32.4791c4.11614,-2.20276 6.85276,-5.11654 6.10984,-6.50551 -0.742913,-1.38898 -4.68543,-0.72874 -8.80157,1.47402 -4.1185,2.20394 -6.85512,5.11772 -6.1122,6.50551 0.742913,1.39016 4.68543,0.72874 8.80394,-1.47402z"/>
    <path id="_62952176" class="fil35" d="M17.4035 32.2122c3.82087,-2.04449 6.3685,-4.73622 5.68583,-6.01181 -0.681496,-1.27441 -4.33465,-0.649606 -8.15551,1.39606 -3.82323,2.04567 -6.37087,4.7374 -5.68937,6.01181 0.682677,1.27559 4.33583,0.649606 8.15906,-1.39606z"/>
    <path id="_47389632" class="fil36" d="M17.2677 31.9465c3.52677,-1.88622 5.88425,-4.35827 5.26299,-5.51811 -0.620079,-1.16102 -3.98504,-0.570472 -7.51181,1.31575 -3.52795,1.88858 -5.88543,4.35945 -5.26417,5.52047 0.62126,1.15984 3.98504,0.570472 7.51299,-1.31811z"/>
    <path id="_62346608" class="fil37" d="M17.1319 31.6807c3.2315,-1.72913 5.39882,-3.98031 4.83898,-5.02559 -0.558661,-1.04646 -3.63425,-0.491339 -6.86575,1.2378 -3.23268,1.72913 -5.4,3.98031 -4.84016,5.02559 0.559843,1.04646 3.63425,0.49252 6.86693,-1.2378z"/>
    <path id="_47927432" class="fil38" d="M16.9961 31.415c2.9374,-1.57087 4.91457,-3.60118 4.41614,-4.53307 -0.498425,-0.930709 -3.28465,-0.412205 -6.22087,1.15984 -2.9374,1.57087 -4.91575,3.60118 -4.41732,4.53307 0.498425,0.93189 3.28465,0.412205 6.22205,-1.15984z"/>
    <path id="_61112912" class="fil39" d="M16.8602 31.1492c2.64213,-1.4126 4.43031,-3.22205 3.99213,-4.03937 -0.437008,-0.817323 -2.93386,-0.333071 -5.5748,1.07953 -2.64331,1.41378 -4.4315,3.22323 -3.99449,4.04055 0.438189,0.817323 2.93504,0.333071 5.57717,-1.08071z"/>
    <path id="_62429872" class="fil40" d="M16.7256 30.8835c2.34567,-1.25551 3.94488,-2.84409 3.56811,-3.54685 -0.375591,-0.702756 -2.58425,-0.253937 -4.92992,1.00157 -2.34803,1.25551 -3.94606,2.84409 -3.57047,3.54685 0.376772,0.702756 2.58425,0.253937 4.93228,-1.00157z"/>
    <path id="_120541768" class="fil41" d="M16.5898 30.6177c2.05039,-1.09724 3.45945,-2.46496 3.14528,-3.05433 -0.315354,-0.588189 -2.23465,-0.174803 -4.28504,0.922441 -2.05276,1.09843 -3.46181,2.46614 -3.14646,3.05433 0.315354,0.588189 2.23346,0.175984 4.28622,-0.922441z"/>
    <path id="_62944456" class="fil42" d="M16.4539 30.352c1.7563,-0.938976 2.9752,-2.08583 2.72126,-2.56063 -0.253937,-0.473622 -1.88386,-0.0956693 -3.64016,0.843307 -1.75748,0.940157 -2.97638,2.08701 -2.72244,2.56063 0.253937,0.474803 1.88386,0.0968504 3.64134,-0.843307z"/>
    <path id="_62880456" class="fil43" d="M16.3181 30.0862c1.46102,-0.78189 2.48976,-1.70787 2.29724,-2.06811 -0.19252,-0.359055 -1.53307,-0.0165354 -2.99409,0.764173 -1.4622,0.783071 -2.49094,1.70906 -2.29843,2.06811 0.19252,0.360236 1.53307,0.0177165 2.99528,-0.764173z"/>
    <path id="_121849504" class="fil44" d="M16.1835 29.8205c1.16575,-0.623622 2.00433,-1.32992 1.87323,-1.57441 -0.131102,-0.245669 -1.18346,0.0614173 -2.34921,0.685039 -1.16693,0.624803 -2.00669,1.32992 -1.87441,1.57441 0.131102,0.245669 1.18346,-0.0614173 2.35039,-0.685039z"/>
    <path id="_64963104" class="fil45" d="M16.0476 29.5535c0.870472,-0.465354 1.52008,-0.949606 1.45039,-1.08071 -0.0708661,-0.131102 -0.833858,0.140551 -1.70433,0.607087 -0.871654,0.465354 -1.52126,0.949606 -1.45157,1.08071 0.069685,0.131102 0.833858,-0.140551 1.70551,-0.607087z"/>
   </g>
   <path id="_60161088" class="fil33" d="M15.9106 29.289c0.576378,-0.308268 1.03583,-0.571654 1.02756,-0.588189 -0.00944882,-0.0177165 -0.483071,0.219685 -1.05945,0.527953 -0.576378,0.308268 -1.03583,0.571654 -1.02756,0.588189 0.00944882,0.0165354 0.483071,-0.219685 1.05945,-0.527953z"/>
  </g>
  <polygon class="fil46" points="10.6866,31.2827 11.7106,33.0531 22.2626,27.0024 22.1882,26.9835 22.2661,26.948 12.0272,21.0106 11.0043,22.7823 18.2067,26.9409 "/>
  <rect class="fil46" transform="matrix(-5.90671E-014 -0.728368 -1.39225 1.09977E-013 33.7447 33.0373)" width="2.77795" height="7.99961"/>
  <path class="fil47" d="M69.0626 28.1504c-16.0087,3.69921 -47.4177,2.83701 -64.9878,1.97362l0 -14.0457c0,-1.79764 1.34291,-2.74724 3.16181,-2.74488l58.8035 0.0590551c1.94291,0.0011811 3.02244,0.989764 3.02244,2.79803l0 11.9598z"/>
  <path class="fil48" d="M4.43622 16.0087l0 46.9217c0.11811,1.49646 2.00906,2.58898 3.36142,2.58425l56.8311 -0.187795c1.95472,-0.0543307 2.84528,-1.36535 2.91142,-3.08268l0 -46.1232c0,-1.80827 -1.07835,-2.79685 -3.02244,-2.79803l-56.9197 -0.0602362c-1.81299,-0.0011811 -3.16299,0.948425 -3.16181,2.74606zm1.5 0l0 46.8567c0.0389764,0.207874 0.231496,0.432283 0.485433,0.627165l0.00590551 0.00590551c0.424016,0.325984 0.954331,0.523228 1.37008,0.522047l56.7898 -0.187795c0.493701,-0.0129921 0.83622,-0.151181 1.04173,-0.368504l0.00590551 0c0.249213,-0.262205 0.382677,-0.695669 0.408661,-1.22008l-0.00354331 0 0 -46.1232c0,-0.467717 -0.100394,-0.798425 -0.290551,-0.976772l-0.00354331 0.00354331c-0.233858,-0.216142 -0.650787,-0.330709 -1.22835,-0.330709l-56.9197 -0.0602362 0 0.00590551 -0.00708661 0c-0.563386,0 -1.02165,0.120472 -1.30512,0.35315l0 0.00590551c-0.217323,0.178346 -0.349606,0.473622 -0.349606,0.882283l0 0.00472441z"/>
  <path class="fil49" d="M4.93701 16.0087l0 46.9098c0.0507874,0.525591 0.406299,1.00394 0.87874,1.36654l0.0023622 0.0023622c0.592913,0.455906 1.35827,0.729921 1.97953,0.72874l56.8169 -0.187795c0.78189,-0.0212598 1.35709,-0.275197 1.74094,-0.681496l0.0023622 0c0.431102,-0.455906 0.651969,-1.12795 0.683858,-1.90276l-0.0023622 0 0 -46.1232c0,-0.758268 -0.214961,-1.33583 -0.616535,-1.70906l-0.0011811 0.0011811c-0.41811,-0.38622 -1.06299,-0.591732 -1.90394,-0.591732l-56.9197 -0.0602362 0 0.0023622 -0.00708661 0c-0.790157,0 -1.46929,0.198425 -1.93819,0.583465l0 0.0023622c-0.446457,0.364961 -0.715748,0.92126 -0.715748,1.65472l0 0.00472441zm-1.00157 46.9217l0 -46.9217 0 -0.00472441c0,-1.05827 0.40748,-1.87559 1.08425,-2.42953l0.0011811 0.0011811c0.654331,-0.53622 1.55551,-0.81378 2.57008,-0.81378l0.00708661 0 0 0.0023622 56.9197 0.0602362c1.10197,0.0011811 1.9748,0.295276 2.57953,0.853937l0 0.0023622c0.616535,0.570472 0.943701,1.39488 0.943701,2.44016l0 46.1232 -0.0023622 0.0177165c-0.0377953,1.01693 -0.344882,1.92165 -0.956693,2.5689l0.0011811 0.0011811c-0.561024,0.595276 -1.36772,0.96378 -2.44016,0.993307l-0.0141732 0 -56.8311 0.187795c-0.824409,0.0023622 -1.82362,-0.349606 -2.58661,-0.934252 -0.689764,-0.529134 -1.20709,-1.26142 -1.27323,-2.11181l-0.0023622 -0.0366142z"/>
  <path class="fil50" d="M5.75197 65.4709c0.584646,0.434646 1.32638,0.692126 1.9311,0.690945l56.8169 -0.187795c0.68622,-0.0188976 1.21417,-0.217323 1.59213,-0.539764l0.656693 0.753543c-0.545669,0.47126 -1.2815,0.757087 -2.22047,0.783071l-0.0141732 0 -56.8311 0.187795c-0.816142,0.0023622 -1.80354,-0.34252 -2.56417,-0.916535l0.633071 -0.77126z"/>
  <path class="fil51" d="M5.86654 64.3252c0.584646,0.434646 1.32638,0.692126 1.9311,0.690945l56.8169 -0.187795c0.68622,-0.0188976 1.21417,-0.217323 1.59213,-0.539764l0.656693 0.753543c-0.545669,0.47126 -1.2815,0.757087 -2.22047,0.783071l-0.0141732 0 -56.8311 0.187795c-0.816142,0.0023622 -1.80354,-0.34252 -2.56417,-0.916535l0.633071 -0.77126z"/>
  <path class="fil52" d="M3.46535 47.0965c1.33465,0.597638 2.7189,1.43386 4.15276,2.55591 7.58858,5.93504 12.4937,10.3075 17.485,11.5016 4.97835,1.19055 9.39921,0.682677 14.674,-0.206693 2.42835,-0.409843 5.8937,-0.27874 9.73937,0.480709 4.04291,0.799606 8.51457,2.29488 12.6531,4.59213l-1.3063 0c-3.78898,-1.96063 -7.80591,-3.2622 -11.4673,-3.9874 -3.77126,-0.744094 -7.15748,-0.875197 -9.5185,-0.477165 -5.34331,0.901181 -9.82913,1.41496 -14.9185,0.197244 -5.07638,-1.21417 -10.0559,-5.61969 -17.7213,-11.615 -1.29921,-1.01693 -2.55709,-1.78937 -3.77244,-2.35394l0 -0.687402z"/>
  <path class="fil53" d="M4.95709 64.924l-0.379134 0.414567m62.8736 -0.0448819l-0.425197 -0.375591"/>
  <polygon class="fil54" points="1.35709,13.8945 1.35709,63.1996 0.796063,63.1996 0.796063,13.8945 "/>
  <polygon class="fil54" points="71.3705,15.0709 71.3705,64.376 70.8094,64.376 70.8094,15.0709 "/>
  <path class="fil51" d="M-0.0838583 13.0299c0,-1.10787 0.455906,-2.11772 1.18583,-2.84764 0.729921,-0.729921 1.73976,-1.18583 2.84764,-1.18583l63.5067 0c1.10787,0 2.11654,0.455906 2.84764,1.18701 0.731102,0.731102 1.18701,1.74331 1.18701,2.84646l-1.00157 0c0,-0.831496 -0.34252,-1.59094 -0.891732,-2.14016 -0.549213,-0.549213 -1.30866,-0.891732 -2.14134,-0.891732l-63.5067 0c-0.833858,0 -1.59331,0.34252 -2.14134,0.890551 -0.548031,0.548031 -0.890551,1.30748 -0.890551,2.14134l-1.00157 0z"/>
  <path class="fil55" d="M-0.0838583 14.061c0,-1.10787 0.455906,-2.11772 1.18583,-2.84764 0.729921,-0.729921 1.73976,-1.18583 2.84764,-1.18583l63.5067 0c1.10787,0 2.11654,0.455906 2.84764,1.18701 0.731102,0.731102 1.18701,1.74331 1.18701,2.84646l-1.00157 0c0,-0.831496 -0.34252,-1.59094 -0.891732,-2.14016 -0.549213,-0.549213 -1.30866,-0.891732 -2.14134,-0.891732l-63.5067 0c-0.833858,0 -1.59331,0.34252 -2.14134,0.890551 -0.548031,0.548031 -0.890551,1.30748 -0.890551,2.14134l-1.00157 0z"/>
  <path class="fil56" d="M4.0878 7.05945l63.6224 -0.0330709 0 -0.0023622 0.0897638 0 0.00590551 0.0023622c1.19646,0.0141732 2.2122,0.320079 2.93976,0.979134l0.0023622 0c0.733465,0.666142 1.15748,1.67244 1.15748,3.0685l0 0.0838583 -0.0023622 0.00590551 -0.0614173 4.90748 -0.00708661 0.494882 -0.0295276 0 0.112205 49.3252 0.0023622 0 0 0.00826772c0,1.10669 -0.487795,2.11417 -1.24843,2.84409 -0.755906,0.724016 -1.79173,1.17756 -2.89134,1.17992l0 0.0023622 -0.00826772 0c-12.2374,0 -17.1709,0.00590551 -22.6063,0.0106299 -9.69921,0.00944882 -20.8358,0.0224409 -41.1685,0.0224409 -1.10551,0 -2.11654,-0.457087 -2.84646,-1.18819l-0.0011811 0.0011811c-0.729921,-0.729921 -1.18583,-1.73858 -1.18583,-2.84764l0 -49.3252 -0.0212598 0 0 -0.500787 0 -4.90748 0.0023622 -0.011811 0.00590551 -0.217323 0 -0.0141732c0.0543307,-1.06654 0.468898,-2.0374 1.15039,-2.74252 0.688583,-0.711024 1.64764,-1.15276 2.77677,-1.15276l0.011811 0.0023622 0.198425 0.00472441zm63.6224 0.96378l-63.6343 0.0330709 -0.011811 0 -0.186614 -0.00472441 0 0.0023622c-0.844488,0 -1.55669,0.324803 -2.06102,0.845669 -0.51378,0.530315 -0.827953,1.27441 -0.869291,2.1l-0.00590551 0.191339 0.0023622 0 0 4.40669 0.0212598 0 0 0.500787 0 49.826c0,0.833858 0.34252,1.59331 0.890551,2.14134l0 0.0011811c0.548031,0.548031 1.30866,0.890551 2.14134,0.890551 24.626,0 33.5114,-0.00944882 41.1685,-0.0177165 7.85197,-0.00826772 14.6587,-0.0153543 22.6063,-0.0153543l0.00826772 0 0 0.0023622c0.832677,-0.0011811 1.62165,-0.348425 2.19921,-0.901181 0.571654,-0.549213 0.938976,-1.30276 0.938976,-2.12598l0 -0.00826772 0.0023622 0 -0.113386 -49.826 -0.0011811 -0.500787 0.0448819 0 0.0555118 -4.40669 -0.0023622 0 0 -0.0838583c0,-1.09134 -0.303543,-1.85197 -0.829134,-2.32913l0.0011811 -0.0011811c-0.533858,-0.483071 -1.32283,-0.708661 -2.27598,-0.720472l0 0.0023622 -0.0897638 0 0 -0.0023622z"/>
  <polygon class="fil57" points="4.0063,15.8469 4.0063,63.0224 3.00472,63.0224 3.00472,15.8469 "/>
  <polygon class="fil57" points="69.1087,15.8469 69.1087,63.0224 68.1071,63.0224 68.1071,15.8469 "/>
 </g>
</svg>
