<?xml version="1.0" encoding="UTF-8" standalone="no"?>
<!-- Creator: CorelDRAW -->

<svg
   xmlns:dc="http://purl.org/dc/elements/1.1/"
   xmlns:cc="http://creativecommons.org/ns#"
   xmlns:rdf="http://www.w3.org/1999/02/22-rdf-syntax-ns#"
   xmlns:svg="http://www.w3.org/2000/svg"
   xmlns="http://www.w3.org/2000/svg"
   xmlns:xlink="http://www.w3.org/1999/xlink"
   xmlns:sodipodi="http://sodipodi.sourceforge.net/DTD/sodipodi-0.dtd"
   xmlns:inkscape="http://www.inkscape.org/namespaces/inkscape"
   xml:space="preserve"
   width="72px"
   height="72px"
   style="shape-rendering:geometricPrecision; text-rendering:geometricPrecision; image-rendering:optimizeQuality; fill-rule:evenodd; clip-rule:evenodd"
   viewBox="0 0 72 72"
   id="svg2"
   version="1.1"
   inkscape:version="0.48.1 r9760"
   sodipodi:docname="applications-multimedia.svg"><metadata
   id="metadata185"><rdf:RDF><cc:Work
       rdf:about=""><dc:format>image/svg+xml</dc:format><dc:type
         rdf:resource="http://purl.org/dc/dcmitype/StillImage" /><dc:title></dc:title></cc:Work></rdf:RDF></metadata><sodipodi:namedview
   pagecolor="#ffffff"
   bordercolor="#666666"
   borderopacity="1"
   objecttolerance="10"
   gridtolerance="10"
   guidetolerance="10"
   inkscape:pageopacity="0"
   inkscape:pageshadow="2"
   inkscape:window-width="646"
   inkscape:window-height="480"
   id="namedview183"
   showgrid="false"
   inkscape:zoom="3.6944444"
   inkscape:cx="36"
   inkscape:cy="36"
   inkscape:window-x="0"
   inkscape:window-y="24"
   inkscape:window-maximized="0"
   inkscape:current-layer="svg2" />
 <defs
   id="defs4">
  <style
   type="text/css"
   id="style6">
   
    .fil12 {fill:none}
    .fil24 {fill:white}
    .fil39 {fill:#333333}
    .fil47 {fill:#4C4C4C}
    .fil40 {fill:#666666}
    .fil46 {fill:#999999}
    .fil27 {fill:#E0981B}
    .fil45 {fill:#FFEC8B}
    .fil16 {fill:#8BC5F5;fill-rule:nonzero}
    .fil11 {fill:#999999;fill-rule:nonzero}
    .fil28 {fill:#EDA21D;fill-rule:nonzero}
    .fil30 {fill:black;fill-opacity:0.000000}
    .fil0 {fill:#333333;fill-opacity:0.000000}
    .fil1 {fill:#333333;fill-opacity:0.011765}
    .fil2 {fill:#333333;fill-opacity:0.027451}
    .fil31 {fill:black;fill-opacity:0.035294}
    .fil3 {fill:#333333;fill-opacity:0.039216}
    .fil4 {fill:#333333;fill-opacity:0.054902}
    .fil5 {fill:#333333;fill-opacity:0.066667}
    .fil32 {fill:black;fill-opacity:0.074510}
    .fil6 {fill:#333333;fill-opacity:0.078431}
    .fil7 {fill:#333333;fill-opacity:0.094118}
    .fil8 {fill:#333333;fill-opacity:0.105882}
    .fil33 {fill:black;fill-opacity:0.109804}
    .fil9 {fill:#333333;fill-opacity:0.121569}
    .fil34 {fill:black;fill-opacity:0.145098}
    .fil35 {fill:black;fill-opacity:0.184314}
    .fil36 {fill:black;fill-opacity:0.219608}
    .fil23 {fill:#999999;fill-opacity:0.321569}
    .fil19 {fill:#CCEDFF;fill-opacity:0.439216}
    .fil22 {fill:#999999;fill-opacity:0.501961}
    .fil29 {fill:#FED716;fill-opacity:0.780392}
    .fil41 {fill:url(#id0)}
    .fil42 {fill:url(#id1)}
    .fil21 {fill:url(#id2)}
    .fil43 {fill:url(#id3)}
    .fil44 {fill:url(#id4)}
    .fil37 {fill:url(#id5)}
    .fil38 {fill:url(#id6)}
    .fil14 {fill:url(#id7)}
    .fil26 {fill:url(#id8)}
    .fil25 {fill:url(#id9)}
    .fil18 {fill:url(#id10)}
    .fil17 {fill:url(#id11);fill-rule:nonzero}
    .fil13 {fill:url(#id12);fill-rule:nonzero}
    .fil10 {fill:url(#id13);fill-rule:nonzero}
    .fil15 {fill:url(#id14);fill-opacity:0.219608}
    .fil20 {fill:url(#id15);fill-rule:nonzero;fill-opacity:0.439216}
   
  </style>
  <linearGradient
   id="id0"
   gradientUnits="userSpaceOnUse"
   x1="5.74016"
   y1="41.2488"
   x2="5.74016"
   y2="34.1776">
   <stop
   offset="0"
   style="stop-color:#FFEC80"
   id="stop9" />
   <stop
   offset="1"
   style="stop-color:white"
   id="stop11" />
  </linearGradient>
  <linearGradient
   id="id1"
   gradientUnits="userSpaceOnUse"
   xlink:href="#id0"
   x1="66.3047"
   y1="41.2736"
   x2="66.3047"
   y2="34.2012">
  </linearGradient>
  <linearGradient
   id="id2"
   gradientUnits="userSpaceOnUse"
   x1="39.9567"
   y1="56.902"
   x2="39.3933"
   y2="29.7874">
   <stop
   offset="0"
   style="stop-color:#E5E5E5"
   id="stop15" />
   <stop
   offset="1"
   style="stop-color:white"
   id="stop17" />
  </linearGradient>
  <linearGradient
   id="id3"
   gradientUnits="userSpaceOnUse"
   x1="1.15157"
   y1="38.1083"
   x2="1.15157"
   y2="50.4756">
   <stop
   offset="0"
   style="stop-color:#4C4C4C"
   id="stop20" />
   <stop
   offset="1"
   style="stop-color:#333333"
   id="stop22" />
  </linearGradient>
  <linearGradient
   id="id4"
   gradientUnits="userSpaceOnUse"
   xlink:href="#id3"
   x1="70.8933"
   y1="38.1331"
   x2="70.8933"
   y2="50.5004">
  </linearGradient>
  <linearGradient
   id="id5"
   gradientUnits="userSpaceOnUse"
   x1="11.7425"
   y1="30.5693"
   x2="11.7425"
   y2="57.8965">
   <stop
   offset="0"
   style="stop-color:#575757"
   id="stop26" />
   <stop
   offset="1"
   style="stop-color:#2E2D2D"
   id="stop28" />
  </linearGradient>
  <linearGradient
   id="id6"
   gradientUnits="userSpaceOnUse"
   xlink:href="#id5"
   x1="60.3024"
   y1="30.5929"
   x2="60.3024"
   y2="57.9201">
  </linearGradient>
  <linearGradient
   id="id7"
   gradientUnits="userSpaceOnUse"
   x1="36.7453"
   y1="66.5161"
   x2="35.9917"
   y2="19.565">
   <stop
   offset="0"
   style="stop-color:#5E9DD5"
   id="stop32" />
   <stop
   offset="0.568627"
   style="stop-color:#7EBBEE"
   id="stop34" />
   <stop
   offset="1"
   style="stop-color:#8FCDFF"
   id="stop36" />
  </linearGradient>
  <linearGradient
   id="id8"
   gradientUnits="userSpaceOnUse"
   x1="65.4933"
   y1="33.7134"
   x2="65.4933"
   y2="54.1358">
   <stop
   offset="0"
   style="stop-color:#FED716"
   id="stop39" />
   <stop
   offset="1"
   style="stop-color:#E89309"
   id="stop41" />
  </linearGradient>
  <linearGradient
   id="id9"
   gradientUnits="userSpaceOnUse"
   xlink:href="#id8"
   x1="6.55157"
   y1="33.6886"
   x2="6.55157"
   y2="54.1122">
  </linearGradient>
  <linearGradient
   id="id10"
   gradientUnits="userSpaceOnUse"
   x1="36.1335"
   y1="21.6886"
   x2="36.3224"
   y2="29.6398">
   <stop
   offset="0"
   style="stop-color:#E5F6FF"
   id="stop45" />
   <stop
   offset="1"
   style="stop-color:#C4E8FF"
   id="stop47" />
  </linearGradient>
  <linearGradient
   id="id11"
   gradientUnits="userSpaceOnUse"
   x1="35.5713"
   y1="17.1508"
   x2="37.1657"
   y2="68.9303">
   <stop
   offset="0"
   style="stop-color:#5E9DD5"
   id="stop50" />
   <stop
   offset="1"
   style="stop-color:#4E87B4"
   id="stop52" />
  </linearGradient>
  <linearGradient
   id="id12"
   gradientUnits="userSpaceOnUse"
   x1="36.1866"
   y1="43.2969"
   x2="34.9736"
   y2="8.90906">
   <stop
   offset="0"
   style="stop-color:#191919"
   id="stop55" />
   <stop
   offset="1"
   style="stop-color:#4C4C4C"
   id="stop57" />
  </linearGradient>
  <linearGradient
   id="id13"
   gradientUnits="userSpaceOnUse"
   x1="35.3539"
   y1="6.27756"
   x2="35.6941"
   y2="39.1512">
   <stop
   offset="0"
   style="stop-color:#666666"
   id="stop60" />
   <stop
   offset="1"
   style="stop-color:#333333"
   id="stop62" />
  </linearGradient>
  <linearGradient
   id="id14"
   gradientUnits="userSpaceOnUse"
   xlink:href="#id11"
   x1="45.6744"
   y1="-36.1417"
   x2="47.2736"
   y2="67.6748">
  </linearGradient>
  <linearGradient
   id="id15"
   gradientUnits="userSpaceOnUse"
   x1="44.452"
   y1="29.1898"
   x2="45.2197"
   y2="59.7142">
   <stop
   offset="0"
   style="stop-color:#5A93C4"
   id="stop66" />
   <stop
   offset="1"
   style="stop-color:#4A7FA8"
   id="stop68" />
  </linearGradient>
 </defs>
 <g
   id="Слой_x0020_1">
  <metadata
   id="CorelCorpID_0Corel-Layer" />
  <g
   id="_246209576">
   <path
   id="_246223424"
   class="fil0"
   d="M38.165 68.3492c19.8992,-0.36378 21.1831,2.18976 21.1831,2.64094 0,0.31063 -4.33465,0.731102 -10.7209,0.96378l-19.6417 0c-6.38622,-0.232677 -10.7197,-0.65315 -10.7197,-0.96378 0,-0.451181 0,-2.27598 19.8992,-2.64094z" />
   <g
   id="g74">
    <path
   id="_246211712"
   class="fil1"
   d="M38.2677 68.5382c17.974,-0.323622 19.3819,1.99488 19.3819,2.42598 0,0.354331 -6.43228,0.865748 -14.9504,0.989764l-7.71496 0c-8.51693,-0.125197 -14.948,-0.636614 -14.948,-0.989764 0,-0.431102 0.259843,-2.10118 18.2315,-2.42598z" />
    <path
   id="_246203312"
   class="fil2"
   d="M38.3728 68.7283c16.0465,-0.283465 17.5795,1.8 17.5795,2.20984 0,0.360236 -7.70315,0.898819 -17.074,0.898819 -9.3685,0 -17.0717,-0.538583 -17.0717,-0.898819 0,-0.409843 0.519685,-1.92638 16.5661,-2.20984z" />
    <path
   id="_246221600"
   class="fil3"
   d="M38.4756 68.9185c14.1201,-0.243307 15.7772,1.60512 15.7772,1.99488 0,0.315354 -6.95433,0.779528 -15.339,0.778346 -8.38346,0 -15.3378,-0.464173 -15.3378,-0.778346 0,-0.389764 0.779528,-1.75157 14.8996,-1.99488z" />
    <path
   id="_246221072"
   class="fil4"
   d="M38.5795 69.1075c12.1937,-0.20315 13.976,1.41024 13.976,1.77874 0,0.270472 -6.20787,0.660236 -13.6063,0.660236 -7.39606,0 -13.6039,-0.390945 -13.6039,-0.660236 0,-0.368504 1.04055,-1.57677 13.2343,-1.77874z" />
    <path
   id="_246209864"
   class="fil5"
   d="M38.6823 69.2976c10.2685,-0.161811 12.1748,1.21654 12.1748,1.56614 0,0.223228 -5.45906,0.539764 -11.8713,0.539764 -6.41102,-0.0011811 -11.8701,-0.317717 -11.8701,-0.539764 0,-0.349606 1.30039,-1.40315 11.5665,-1.56614z" />
    <path
   id="_246217904"
   class="fil6"
   d="M38.7862 69.4878c8.34213,-0.121654 10.3724,1.02047 10.3724,1.34882 0,0.179528 -4.71142,0.420472 -10.1362,0.420472 -5.4248,0 -10.1362,-0.243307 -10.1362,-0.420472 0,-0.328346 1.55906,-1.22835 9.9,-1.34882z" />
    <path
   id="_246221216"
   class="fil7"
   d="M38.8902 69.6768c6.41457,-0.0814961 8.57008,0.826772 8.57008,1.13504 0,0.133465 -3.96378,0.301181 -8.40354,0.301181 -4.43858,-0.0011811 -8.40236,-0.170079 -8.40236,-0.301181 0,-0.308268 1.82126,-1.05354 8.23583,-1.13504z" />
    <path
   id="_246221864"
   class="fil8"
   d="M38.9941 69.8669c4.48937,-0.0401575 6.7689,0.63189 6.7689,0.918898 0,0.0874016 -3.21614,0.183071 -6.66969,0.18189 -3.45236,-0.0011811 -6.66732,-0.0956693 -6.66732,-0.18189 0,-0.287008 2.07992,-0.87874 6.56811,-0.918898z" />
   </g>
   <path
   id="_246206168"
   class="fil9"
   d="M39.098 70.0571c2.56181,0 4.96654,0.438189 4.96654,0.703937 0,0.0862205 -9.86929,0.080315 -9.86929,0 0,-0.265748 2.33976,-0.703937 4.90276,-0.703937z" />
  </g>
  <path
   class="fil10"
   d="M2.1248 41.5594c0,-1.86732 0.19252,-4.25906 0.570472,-6.85512 0.343701,-2.36811 0.848031,-4.9252 1.50354,-7.41614 3.66732,-13.9193 11.7402,-23.3398 31.1031,-23.3398 21.1299,-0.458268 27.9626,9.27638 31.5331,23.3091 0.649606,2.54882 1.15512,5.19921 1.50236,7.65 0.387402,2.70945 0.587008,5.1874 0.587008,7.02992l-3.12756 0c0,-1.71969 -0.188976,-4.04291 -0.551575,-6.58937 -0.33189,-2.33976 -0.816142,-4.87913 -1.43858,-7.32047 -1.5874,-6.23858 -4.94173,-11.2075 -9.7689,-14.5949 -4.80591,-3.37087 -11.1083,-5.2063 -18.6201,-5.2063 -7.55787,0 -13.7504,1.80118 -18.4535,5.12953 -4.78465,3.38386 -8.07992,8.39409 -9.74646,14.726 -0.62126,2.35866 -1.10197,4.79409 -1.42913,7.06181 -0.355512,2.43425 -0.53622,4.67244 -0.53622,6.41575l-3.12756 0z"
   id="path85" />
  <path
   class="fil11"
   d="M2.1248 41.5594c0,-1.86732 0.19252,-4.25906 0.570472,-6.85512 0.0744094,-0.510236 0.155906,-1.02874 0.244488,-1.55433l-0.0153543 0.100394c-0.377953,2.59606 -0.570472,4.9878 -0.570472,6.85512l2.93504 0c-0.0248031,0.514961 -0.0366142,1.00157 -0.0366142,1.45394l-3.12756 0zm66.7642 -1.07598c0.023622,0.518504 0.0354331,1.00512 0.0354331,1.45394l-3.12756 0c0,-1.71969 -0.188976,-4.04291 -0.551575,-6.58937 -0.33189,-2.33976 -0.816142,-4.87913 -1.43858,-7.32047 -1.5874,-6.23858 -4.94173,-11.2075 -9.7689,-14.5949 -4.80591,-3.37087 -11.1083,-5.2063 -18.6201,-5.2063 -7.55787,0 -13.7504,1.80118 -18.4535,5.12953 -4.78465,3.38386 -8.07992,8.39409 -9.74646,14.726 -0.480709,1.82598 -0.87874,3.69685 -1.18465,5.50157 0.327165,-2.23701 0.801969,-4.63346 1.41378,-6.95551 1.66654,-6.33189 4.96181,-11.3421 9.74646,-14.726 4.70315,-3.32835 10.8957,-5.12953 18.4535,-5.12953 7.51181,0 13.8142,1.83543 18.6201,5.2063 4.82717,3.3874 8.1815,8.3563 9.7689,14.5949 0.622441,2.44134 1.10669,4.98071 1.43858,7.32047 0.362598,2.54646 0.551575,4.86969 0.551575,6.58937l2.86299 0z"
   id="path87" />
  <path
   class="fil12"
   d="M3.80197 44.4201c0,-3.4689 0.687402,-8.80866 2.01969,-13.8744 3.48189,-13.2177 13.7421,-21.0224 29.7094,-21.0224 15.7783,0 26.5594,7.83898 29.9031,20.9787 1.33465,5.23819 2.03976,10.8886 2.03976,14.2961"
   id="path89" />
  <path
   class="fil13"
   d="M3.15472 44.1449c0,-1.86732 0.193701,-4.25906 0.571654,-6.85512 0.343701,-2.36811 0.84685,-4.9252 1.50354,-7.41614 1.85669,-7.04764 4.64646,-12.6508 10.0524,-16.4752 5.23937,-3.70748 12.0366,-5.71535 20.2488,-5.71535 8.16614,0 15.078,2.03858 20.4142,5.7815 5.44961,3.82205 8.19685,9.28346 9.97323,16.2638 0.649606,2.54764 1.15512,5.19921 1.50236,7.65 0.38622,2.70945 0.587008,5.18622 0.587008,7.02874l-2.09764 0.115748c0,-1.71969 0.615354,-4.15984 0.251575,-6.7063 -2.06929,-14.602 -11.2748,-27.5799 -30.5173,-27.6945 -8.64567,0.375591 -14.9173,2.37992 -19.4516,5.59134 -5.14016,3.63661 -8.04921,8.82756 -9.66378,14.9539 -0.966142,3.67795 -1.96417,9.52087 -1.96417,13.2472l-1.41024 0.230315z"
   id="path91" />
  <ellipse
   class="fil14"
   cx="36.3683"
   cy="43.0407"
   rx="25.8282"
   ry="26.2561"
   id="ellipse93" />
  <path
   class="fil15"
   d="M62.0823 45.4902c-1.21535,13.3488 -12.2646,23.8075 -25.7138,23.8075 -13.4492,0 -24.4996,-10.4587 -25.715,-23.8075l2.50748 0c0.562205,5.5937 3.02598,10.611 6.72283,14.3681 4.21772,4.28622 10.0476,6.94016 16.4846,6.94016 6.43701,0 12.2681,-2.65394 16.4835,-6.94016 3.69685,-3.75709 6.16063,-8.77441 6.72283,-14.3681l2.50748 0z"
   id="path95" />
  <path
   class="fil16"
   d="M36.3685 16.7846c14.2618,0 25.8272,11.7579 25.8272,26.2571 0,14.4969 -11.5654,26.2559 -25.8272,26.2559 -14.2618,0 -25.8283,-11.7591 -25.8283,-26.2559 0,-14.4992 11.5665,-26.2571 25.8283,-26.2571zm17.1957 8.74016c-4.39961,-4.47165 -10.4811,-7.24016 -17.1957,-7.24016 -6.71575,0 -12.7972,2.7685 -17.1957,7.24016 -4.40669,4.47874 -7.13268,10.6736 -7.13268,17.5169 0,6.84213 2.72598,13.037 7.13268,17.5157 4.39961,4.47165 10.4811,7.24016 17.1957,7.24016 6.71457,0 12.7961,-2.7685 17.1945,-7.24016 4.40669,-4.47874 7.13268,-10.6736 7.13268,-17.5157 0,-6.84331 -2.72717,-13.0382 -7.1315,-17.5169z"
   id="path97" />
  <path
   class="fil17"
   d="M36.3685 16.2839c7.26614,0 13.852,2.99882 18.6177,7.84252 4.7622,4.84252 7.71024,11.5311 7.71024,18.9154 0,7.38189 -2.94803,14.0728 -7.71142,18.9142 -4.76457,4.8437 -11.3504,7.84252 -18.6165,7.84252 -7.26614,0 -13.852,-2.99882 -18.6177,-7.84252 -4.76339,-4.84134 -7.71142,-11.5323 -7.71142,-18.9142 0,-7.38425 2.94803,-14.074 7.71142,-18.9154 4.76457,-4.8437 11.3504,-7.84252 18.6177,-7.84252zm17.9067 8.54173c-4.5815,-4.65709 -10.9146,-7.54016 -17.9067,-7.54016 -6.99331,0 -13.3264,2.88307 -17.9067,7.54016 -4.58386,4.65945 -7.42087,11.1012 -7.42087,18.2161 0,7.11378 2.83701,13.5555 7.42087,18.215 4.5815,4.65709 10.9146,7.54016 17.9067,7.54016 6.99213,0 13.3252,-2.88307 17.9055,-7.54016 4.58386,-4.65945 7.42087,-11.1012 7.42087,-18.215 0,-7.11496 -2.83701,-13.5567 -7.41969,-18.2161z"
   id="path99" />
  <path
   class="fil18"
   d="M57.1961 32.1083c-0.465354,-0.882283 -1.02283,-1.72559 -1.67953,-2.51811 -0.659055,-0.864567 -1.37362,-1.68307 -2.14016,-2.45079l0 -0.0011811c-4.34173,-4.34173 -10.3346,-7.03701 -16.9193,-7.03701l-0.0011811 0c-6.58701,0 -12.5752,2.69646 -16.9157,7.03701l-0.0011811 0.0011811 -0.34252 0.349606c-1.61693,1.39134 -2.89606,3.00354 -3.82913,4.77165l-0.523228 0c1.15866,-2.28307 2.67165,-4.35827 4.46575,-6.15472l0.0011811 -0.0011811c4.34055,-4.34055 10.3287,-7.03701 16.9157,-7.03701l0.0011811 0c6.58465,0 12.5776,2.69528 16.9193,7.03701l0 0.0011811c1.79409,1.79528 3.30591,3.87165 4.46457,6.15472l-0.328346 0 -0.0874016 -0.152362z"
   id="path101" />
  <polygon
   class="fil19"
   points="29.1366,54.7724 27.9154,56.9693 27.6673,58.0878 28.6335,57.5303 40.1705,50.8713 40.174,50.8713 51.711,44.2075 52.2035,43.9228 52.1693,43.5768 49.05,43.4398 39.1748,49.1445 39.176,49.1457 29.1366,54.9402 "
   id="polygon103" />
  <polygon
   class="fil20"
   points="27.6673,58.0878 27.1382,58.3925 27.1382,56.6669 27.1382,43.3441 27.1382,30.0224 27.1382,28.2969 28.6335,29.1591 40.1705,35.8181 40.174,35.8181 51.711,42.4807 53.2051,43.3429 52.2035,43.9228 52.1693,43.5768 49.05,43.4398 49.2165,43.3441 39.1748,37.5449 39.176,37.5437 29.1366,31.7492 29.1366,43.3441 29.1366,54.7724 27.9154,56.9693 "
   id="polygon105" />
  <polygon
   class="fil21"
   points="51.2126,43.3453 39.6744,50.0067 28.1374,56.6681 28.1374,43.3453 28.1374,30.0213 39.6744,36.6827 "
   id="polygon107" />
  <polygon
   class="fil22"
   points="51.2114,43.3441 50.9043,43.5213 49.05,43.4398 49.2165,43.3441 39.1748,37.5449 39.176,37.5437 29.1366,31.7492 29.1366,32.3126 28.1374,30.5846 28.1374,30.0224 39.6744,36.6815 "
   id="polygon109" />
  <polygon
   class="fil23"
   points="29.1366,32.3126 29.1366,43.3441 29.1366,54.7724 28.1374,56.5701 28.1374,43.3441 28.1374,30.5846 "
   id="polygon111" />
  <ellipse
   class="fil24"
   cx="37.0322"
   cy="19.5824"
   rx="2.22878"
   ry="0.383677"
   id="ellipse113" />
  <path
   class="fil25"
   d="M8.48504 31.1374c3.38622,0 4.13622,5.82756 4.13622,12.874 0,7.04764 -0.75,12.6531 -4.13622,12.6531 -3.38504,0 -8.00315,-5.71772 -8.00315,-12.7642 0,-7.04764 4.61811,-12.763 8.00315,-12.763z"
   id="path115" />
  <path
   class="fil26"
   d="M63.5598 31.161c-3.38622,0 -4.13622,5.82756 -4.13622,12.8752 0,7.04646 0.75,12.6531 4.13622,12.6531 3.38504,0 8.00315,-5.71772 8.00315,-12.7654 0,-7.04646 -4.61811,-12.763 -8.00315,-12.763z"
   id="path117" />
  <path
   class="fil27"
   d="M11.4307 47.687c-0.457087,3.21969 -1.38661,5.29961 -3.15827,5.29961 -2.34567,0 -5.37992,-3.72402 -6.46299,-8.86654l1.10906 0.229134c1.39606,3.72756 4.70197,4.38661 6.27047,4.38661 1.56969,0 1.69961,0.618898 2.24173,-1.04882z"
   id="path119" />
  <path
   class="fil27"
   d="M60.6142 47.7106c0.457087,3.21969 1.38661,5.30079 3.15827,5.30079 2.34567,0 5.37992,-3.72402 6.46299,-8.86772l-1.10906 0.229134c-1.39606,3.72756 -4.70197,4.3878 -6.27047,4.3878 -1.56969,0 -1.69961,0.618898 -2.24173,-1.05z"
   id="path121" />
  <path
   class="fil28"
   d="M8.48504 30.3862c2.10709,0 3.36496,1.67362 4.06299,4.35827 0.629528,2.41417 0.824409,5.69409 0.824409,9.26811 0,3.57638 -0.194882,6.80551 -0.824409,9.16181 -0.701575,2.62677 -1.95709,4.24252 -4.06299,4.24252 -2.05512,0 -4.45394,-1.76102 -6.20787,-4.55551l0 -0.00354331c-1.48583,-2.37283 -1.91575,-5.40591 -1.91575,-8.84173 0,-3.43701 0.429921,-6.69803 1.91575,-9.07087l0 -0.00354331c1.75394,-2.79449 4.15276,-4.55551 6.20787,-4.55551zm2.6126 4.73386c-0.517323,-1.98898 -1.33701,-3.23031 -2.6126,-3.23031 -1.54961,0 -3.45945,1.48819 -4.94173,3.84921l-0.0023622 -0.0011811c-1.34528,2.15315 -2.30669,5.01614 -2.30669,8.1626 0,3.14646 0.961417,6.01181 2.30669,8.16496l0.0023622 -0.0023622c1.48228,2.3622 3.39213,3.85039 4.94173,3.85039 1.27913,0 2.09646,-1.19055 2.6126,-3.1252 0.588189,-2.20394 0.77126,-5.30906 0.77126,-8.77559 0,-3.47244 -0.183071,-6.63425 -0.77126,-8.89252z"
   id="path123" />
  <path
   class="fil28"
   d="M63.5598 30.4098c-2.10709,0 -3.36496,1.67362 -4.06299,4.35827 -0.629528,2.41417 -0.824409,5.69409 -0.824409,9.26811 0,3.57638 0.194882,6.80551 0.824409,9.16299 0.701575,2.62559 1.95709,4.24134 4.06299,4.24134 2.05512,0 4.45394,-1.76102 6.20787,-4.55551l0 -0.00354331c1.48583,-2.37283 1.91575,-5.40472 1.91575,-8.84173 0,-3.43701 -0.429921,-6.69803 -1.91575,-9.07087l0 -0.00354331c-1.75394,-2.79449 -4.15276,-4.55551 -6.20787,-4.55551zm-2.6126 4.73504c0.517323,-1.99016 1.33701,-3.2315 2.6126,-3.2315 1.54961,0 3.45945,1.48819 4.94173,3.85039l0.0023622 -0.0023622c1.34528,2.15315 2.30669,5.01732 2.30669,8.1626 0,3.14646 -0.961417,6.01181 -2.30669,8.16496l-0.0023622 -0.0023622c-1.48228,2.3622 -3.39213,3.85039 -4.94173,3.85039 -1.27913,0 -2.09646,-1.19055 -2.6126,-3.1252 -0.588189,-2.20394 -0.77126,-5.30906 -0.77126,-8.77559 0,-3.47244 0.183071,-6.63425 0.77126,-8.89134z"
   id="path125" />
  <path
   class="fil29"
   d="M11.315 50.674c-0.457087,3.22087 -1.38661,5.30079 -3.15709,5.30079 -2.34567,0 -5.3811,-3.72402 -6.46417,-8.86654l1.33819 0c1.39606,3.72874 3.77835,6.22441 5.69764,6.22441 1.22008,0 2.04331,-0.989764 2.58543,-2.65866z"
   id="path127" />
  <path
   class="fil29"
   d="M60.7299 50.6988c0.457087,3.22087 1.38661,5.29961 3.15709,5.29961 2.34567,0 5.3811,-3.72402 6.46417,-8.86654l-1.33819 0c-1.39606,3.72874 -3.77835,6.22559 -5.69764,6.22559 -1.22008,0 -2.04331,-0.990945 -2.58543,-2.65866z"
   id="path129" />
  <path
   class="fil30"
   d="M14.087 29.7591l2.15669 0.227953c0.346063,0.0354331 0.570472,0.675591 0.628346,1.44803l2.30906 30.776c0.057874,0.774803 -1.12677,0.596457 -1.44213,0.297638l-3.78661 -3.5622c-0.316535,-0.298819 -0.57874,-0.660236 -0.627165,-1.44803l-1.69724 -26.1756c-0.0496063,-0.786614 2.11299,-1.59921 2.45906,-1.56378z"
   id="path131" />
  <g
   id="_246039112">
   <path
   id="_246202136"
   class="fil31"
   d="M13.8626 29.7189c0.668504,0.0767717 1.33701,0.152362 2.00433,0.227953 0.344882,0.0401575 0.479528,0.504331 0.525591,1.27559 0.616535,10.0724 1.23307,20.1461 1.84843,30.2197 0.046063,0.774803 -1.15866,0.668504 -1.44213,0.297638 -1.05709,-1.02874 -2.11654,-2.0563 -3.1748,-3.08268 -0.285827,-0.372047 -0.582283,-0.660236 -0.628346,-1.44803 -0.530315,-8.64331 -1.06181,-17.2854 -1.59213,-25.9264 -0.0472441,-0.786614 2.11299,-1.60276 2.45906,-1.56378z" />
   <path
   id="_246229952"
   class="fil32"
   d="M13.6358 29.6835c0.617717,0.0767717 1.23425,0.152362 1.85079,0.227953 0.346063,0.0437008 0.390945,0.330709 0.425197,1.10315 0.462992,9.88583 0.924803,19.7752 1.38661,29.6634 0.0354331,0.774803 -1.18937,0.740551 -1.44213,0.297638 -0.853937,-0.86811 -1.70906,-1.73622 -2.56417,-2.60433 -0.252756,-0.444094 -0.583465,-0.659055 -0.627165,-1.44803 -0.496063,-8.55945 -0.992126,-17.1189 -1.48819,-25.676 -0.0448819,-0.787795 2.11299,-1.60866 2.45906,-1.56378z" />
   <path
   id="_246209624"
   class="fil33"
   d="M13.4091 29.6433c0.565748,0.0767717 1.13268,0.152362 1.69843,0.227953 0.344882,0.0484252 0.3,0.159449 0.322441,0.930709 0.309449,9.70157 0.617717,19.4055 0.925984,29.1094 0.023622,0.773622 -1.22126,0.811417 -1.44213,0.297638 -0.649606,-0.709843 -1.30157,-1.4185 -1.95236,-2.12598 -0.222047,-0.516142 -0.587008,-0.659055 -0.628346,-1.44803 -0.46063,-8.47677 -0.922441,-16.9524 -1.38425,-25.428 -0.0413386,-0.787795 2.11417,-1.6122 2.46024,-1.56378z" />
   <path
   id="_246233888"
   class="fil34"
   d="M13.1823 29.6031c0.514961,0.0767717 1.0311,0.153543 1.54606,0.229134 0.344882,0.0531496 0.209055,-0.0129921 0.220866,0.757087 0.154724,9.51732 0.31063,19.0346 0.465354,28.5543 0.0106299,0.772441 -1.25433,0.883465 -1.44213,0.297638 -0.446457,-0.550394 -0.894094,-1.09961 -1.34173,-1.64764 -0.190157,-0.588189 -0.58937,-0.659055 -0.628346,-1.44803 -0.426378,-8.39409 -0.852756,-16.7858 -1.28031,-25.1776 -0.0377953,-0.788976 2.11535,-1.61693 2.46024,-1.56496z" />
   <path
   id="_246233144"
   class="fil35"
   d="M12.9555 29.5677c0.464173,0.0767717 0.928346,0.152362 1.39252,0.227953 0.344882,0.057874 0.120472,-0.185433 0.119291,0.585827 0.0023622,9.33071 0.00354331,18.6638 0.00472441,27.998 0,0.772441 -1.28504,0.955512 -1.44213,0.297638 -0.243307,-0.389764 -0.486614,-0.779528 -0.731102,-1.16811 -0.158268,-0.661417 -0.591732,-0.659055 -0.628346,-1.44803 -0.390945,-8.31142 -0.783071,-16.6205 -1.1752,-24.9295 -0.0354331,-0.788976 2.11535,-1.62165 2.46024,-1.56378z" />
  </g>
  <path
   class="fil36"
   d="M12.7264 29.5276l1.24016 0.229134c0.344882,0.0614173 0.0295276,-0.357874 0.0177165,0.412205l-0.457087 27.4441c-0.011811,0.772441 -1.31693,1.02756 -1.44213,0.297638l-0.119291 -0.689764c-0.126378,-0.733465 -0.594094,-0.657874 -0.628346,-1.44803l-1.07126 -24.6803c-0.0330709,-0.790157 2.11535,-1.62638 2.46024,-1.56496z"
   id="path139" />
  <path
   class="fil30"
   d="M57.9579 29.7827l-2.15669 0.229134c-0.346063,0.034252 -0.570472,0.674409 -0.628346,1.44685l-2.30906 30.776c-0.057874,0.774803 1.12677,0.596457 1.44213,0.298819l3.78661 -3.56339c0.316535,-0.297638 0.57874,-0.660236 0.627165,-1.44803l1.69724 -26.1744c0.0496063,-0.787795 -2.11299,-1.59921 -2.45906,-1.56496z"
   id="path141" />
  <g
   id="_246057328">
   <path
   id="_246230912"
   class="fil31"
   d="M58.1846 29.7437c-0.668504,0.0767717 -1.33701,0.153543 -2.00433,0.229134 -0.344882,0.0389764 -0.479528,0.50315 -0.525591,1.27441 -0.616535,10.0724 -1.23307,20.1461 -1.84843,30.2197 -0.046063,0.774803 1.15866,0.668504 1.44213,0.298819 1.05709,-1.02874 2.11654,-2.05748 3.1748,-3.08386 0.285827,-0.370866 0.582283,-0.660236 0.628346,-1.44803 0.530315,-8.64213 1.06181,-17.2843 1.59213,-25.9252 0.0472441,-0.787795 -2.11299,-1.60394 -2.45906,-1.56496z" />
   <path
   id="_246207272"
   class="fil32"
   d="M58.4114 29.7047c-0.617717,0.0767717 -1.23425,0.153543 -1.85079,0.229134 -0.346063,0.0437008 -0.390945,0.329528 -0.425197,1.10197 -0.462992,9.88583 -0.924803,19.7752 -1.38661,29.6634 -0.0354331,0.774803 1.18937,0.740551 1.44213,0.298819 0.853937,-0.869291 1.70906,-1.7374 2.56417,-2.60551 0.252756,-0.442913 0.583465,-0.659055 0.627165,-1.44803 0.496063,-8.55945 0.992126,-17.1177 1.48819,-25.6748 0.0448819,-0.788976 -2.11299,-1.60866 -2.45906,-1.56496z" />
   <path
   id="_246215312"
   class="fil33"
   d="M58.6382 29.6669c-0.565748,0.0767717 -1.13268,0.153543 -1.69843,0.229134 -0.344882,0.0484252 -0.3,0.158268 -0.322441,0.929528 -0.309449,9.70157 -0.617717,19.4055 -0.925984,29.1094 -0.023622,0.773622 1.22126,0.811417 1.44213,0.297638 0.649606,-0.708661 1.30157,-1.4185 1.95236,-2.12598 0.222047,-0.514961 0.587008,-0.659055 0.628346,-1.44803 0.46063,-8.47677 0.922441,-16.9524 1.38425,-25.4268 0.0413386,-0.788976 -2.11417,-1.61339 -2.46024,-1.56496z" />
   <path
   id="_246208088"
   class="fil34"
   d="M58.865 29.6303c-0.514961,0.0767717 -1.0311,0.152362 -1.54606,0.227953 -0.344882,0.0531496 -0.209055,-0.0129921 -0.220866,0.757087 -0.154724,9.51732 -0.31063,19.0346 -0.465354,28.5543 -0.0106299,0.772441 1.25433,0.883465 1.44213,0.297638 0.446457,-0.549213 0.894094,-1.09961 1.34173,-1.64764 0.190157,-0.587008 0.58937,-0.659055 0.628346,-1.44803 0.426378,-8.39291 0.852756,-16.7858 1.28031,-25.1776 0.0377953,-0.787795 -2.11535,-1.61693 -2.46024,-1.56378z" />
   <path
   id="_246210704"
   class="fil35"
   d="M59.0917 29.5902c-0.464173,0.0767717 -0.928346,0.153543 -1.39252,0.229134 -0.344882,0.057874 -0.120472,-0.186614 -0.119291,0.584646 -0.0023622,9.33071 -0.00354331,18.6638 -0.00472441,27.998 0,0.772441 1.28504,0.955512 1.44213,0.297638 0.243307,-0.389764 0.486614,-0.779528 0.731102,-1.16811 0.158268,-0.660236 0.591732,-0.659055 0.628346,-1.44803 0.390945,-8.31142 0.783071,-16.6205 1.1752,-24.9283 0.0354331,-0.788976 -2.11535,-1.62283 -2.46024,-1.56496z" />
  </g>
  <path
   class="fil36"
   d="M59.3185 29.5524l-1.24016 0.227953c-0.344882,0.0625984 -0.0295276,-0.357874 -0.0177165,0.412205l0.457087 27.4441c0.011811,0.772441 1.31693,1.02756 1.44213,0.297638l0.119291 -0.689764c0.126378,-0.732283 0.594094,-0.657874 0.628346,-1.44803l1.07126 -24.6803c0.0330709,-0.788976 -2.11535,-1.62638 -2.46024,-1.56378z"
   id="path149" />
  <path
   class="fil37"
   d="M10.0772 29.0528l3.20551 0c0.61063,0 1.10669,0.674409 1.10906,1.49055l0.122835 27.3815c0.00354331,0.81378 -0.505512,1.49173 -1.11142,1.49173l-3.20433 0c-0.604724,0 -1.10669,-0.670866 -1.10669,-1.49173l-0.122835 -27.3815c0,-0.820866 0.497244,-1.49055 1.10787,-1.49055z"
   id="path151" />
  <path
   class="fil38"
   d="M61.9677 29.0764l-3.20551 0c-0.61063,0 -1.10669,0.675591 -1.10906,1.49055l-0.122835 27.3815c-0.00354331,0.81378 0.505512,1.49173 1.11142,1.49173l3.20433 0c0.604724,0 1.10669,-0.670866 1.10669,-1.49173l0.122835 -27.3815c0,-0.820866 -0.497244,-1.49055 -1.10787,-1.49055z"
   id="path153" />
  <path
   class="fil39"
   d="M10.0736 29.0528l3.20669 0c0.614173,0 1.11024,0.675591 1.11142,1.49055l0.122835 27.3815c0.00472441,0.816142 -0.505512,1.49173 -1.11142,1.49173l-3.20551 0c-0.602362,0 -1.10551,-0.672047 -1.10551,-1.49173l-0.122835 -27.3815c0,-0.820866 0.499606,-1.49055 1.10433,-1.49055zm3.10276 1.12441l-2.99409 0c-0.0543307,0.0838583 -0.0885827,0.212598 -0.0885827,0.366142l-0.00354331 0 0.122835 27.3768 0.00472441 0.00472441c0,0.151181 0.034252,0.281102 0.0897638,0.366142l2.99055 0c0.0555118,-0.0814961 0.092126,-0.207874 0.092126,-0.356693l0 -0.00944882 0.00472441 0 -0.124016 -27.378 0 -0.00354331c0,-0.147638 -0.0377953,-0.279921 -0.0944882,-0.366142z"
   id="path155" />
  <path
   class="fil39"
   d="M61.9713 29.0764l-3.20669 0c-0.614173,0 -1.11024,0.675591 -1.11142,1.49055l-0.122835 27.3815c-0.00472441,0.816142 0.505512,1.49173 1.11142,1.49173l3.20551 0c0.602362,0 1.10551,-0.672047 1.10551,-1.49173l0.122835 -27.3815c0,-0.820866 -0.499606,-1.49055 -1.10433,-1.49055zm-3.10276 1.12441l2.99409 0c0.0543307,0.0838583 0.0885827,0.212598 0.0885827,0.366142l0.00354331 0 -0.122835 27.378 -0.00472441 0.00354331c0,0.151181 -0.034252,0.282283 -0.0897638,0.367323l-2.99055 0c-0.0555118,-0.0826772 -0.092126,-0.209055 -0.092126,-0.357874l0 -0.00944882 -0.00472441 0 0.124016 -27.378 0 -0.00354331c0,-0.147638 0.0377953,-0.279921 0.0944882,-0.366142z"
   id="path157" />
  <path
   class="fil40"
   d="M11.2925 32.5181l1.49291 0.113386c0.295276,0.0212598 0.863386,-3.07441 0.863386,-2.9752l0.0614173 13.0181c0,0.100394 -0.70748,-6.42283 -0.95315,-6.36732l-1.53661 0.346063c-0.244488,0.0555118 -0.773622,5.65866 -0.773622,5.50394l0.0283465 -12.5598c0,-0.100394 0.522047,2.89843 0.817323,2.92087z"
   id="path159" />
  <path
   class="fil40"
   d="M60.7524 32.5417l-1.49291 0.113386c-0.295276,0.0224409 -0.863386,-3.07441 -0.863386,-2.9752l-0.0614173 13.0193c0,0.0992126 0.70748,-6.42283 0.95315,-6.3685l1.53661 0.346063c0.244488,0.0555118 0.773622,5.65866 0.773622,5.50512l-0.0283465 -12.5598c0,-0.101575 -0.522047,2.89724 -0.817323,2.91969z"
   id="path161" />
  <path
   class="fil41"
   d="M3.94606 38.0575c0,-1.95236 1.76811,-3.88228 2.67874,-3.88228 0.911811,0 0.734646,1.92992 0.734646,3.88228 0,1.95236 -0.624803,3.19134 -1.53543,3.19134 -0.911811,0 -1.87795,-1.23898 -1.87795,-3.19134z"
   id="path163" />
  <path
   class="fil42"
   d="M68.0988 38.0811c0,-1.95236 -1.76811,-3.88228 -2.67874,-3.88228 -0.911811,0 -0.734646,1.92992 -0.734646,3.88228 0,1.95236 0.624803,3.19252 1.53543,3.19252 0.911811,0 1.87795,-1.24016 1.87795,-3.19252z"
   id="path165" />
  <path
   class="fil43"
   d="M0.633071 37.5709l1.03701 0c0.335433,0 0.609449,0.725197 0.609449,1.61102l0 10.2224c0,0.885827 -0.275197,1.61102 -0.609449,1.61102l-1.03701 0c-0.334252,0 -0.61063,-0.724016 -0.61063,-1.61102l0 -10.2224c0,-0.887008 0.274016,-1.61102 0.61063,-1.61102z"
   id="path167" />
  <path
   class="fil44"
   d="M71.4118 37.5957l-1.03701 0c-0.335433,0 -0.609449,0.725197 -0.609449,1.60984l0 10.2236c0,0.884646 0.275197,1.60984 0.609449,1.60984l1.03701 0c0.334252,0 0.61063,-0.724016 0.61063,-1.60984l0 -10.2236c0,-0.887008 -0.274016,-1.60984 -0.61063,-1.60984z"
   id="path169" />
  <path
   class="fil45"
   d="M1.20354 39.9378l0.562205 0c0.18189,0 0.330709,0.204331 0.330709,0.453543l0 2.88307c0,0.250394 -0.148819,0.454724 -0.330709,0.454724l-0.562205 0c-0.18189,0 -0.330709,-0.204331 -0.330709,-0.454724l0 -2.88307c0,-0.249213 0.148819,-0.453543 0.330709,-0.453543z"
   id="path171" />
  <path
   class="fil45"
   d="M70.8413 39.9614l-0.562205 0c-0.18189,0 -0.330709,0.204331 -0.330709,0.454724l0 2.88307c0,0.249213 0.148819,0.453543 0.330709,0.453543l0.562205 0c0.18189,0 0.330709,-0.204331 0.330709,-0.453543l0 -2.88307c0,-0.250394 -0.148819,-0.454724 -0.330709,-0.454724z"
   id="path173" />
  <path
   class="fil46"
   d="M10.1965 30.4819l0.757087 3.71457 2.14961 0.33189c0.287008,0.0590551 0.542126,0.174803 0.54685,0.377953l0.11811 4.92992c0.011811,0.525591 -2.36102,0.0909449 -2.8063,0.248031 -0.261024,0.092126 -0.820866,7.66417 -0.820866,7.4563l-0.0330709 -13.1764c0,-0.207874 0.0224409,-4.08189 0.0885827,-3.88228z"
   id="path175" />
  <path
   class="fil46"
   d="M61.8484 30.5055l-0.757087 3.71575 -2.14961 0.330709c-0.287008,0.0590551 -0.542126,0.174803 -0.54685,0.377953l-0.11811 4.9311c-0.011811,0.524409 2.36102,0.0897638 2.8063,0.24685 0.261024,0.092126 0.820866,7.66535 0.820866,7.4563l0.0330709 -13.1764c0,-0.207874 -0.0224409,-4.08189 -0.0885827,-3.88228z"
   id="path177" />
  <path
   class="fil47"
   d="M11.1791 56.1295l1.69606 0c0.271654,0 0.491339,0.0354331 0.49252,0.0791339l0.0543307 1.39134c0.0023622,0.0437008 -0.222047,0.0791339 -0.49252,0.0791339l-1.85551 0c-0.270472,0 -0.493701,-0.0354331 -0.493701,-0.0791339l-0.134646 -8.11417c0,-0.0437008 0.461811,6.6437 0.733465,6.6437z"
   id="path179" />
  <path
   class="fil47"
   d="M60.8657 56.1531l-1.69606 0c-0.271654,0 -0.491339,0.0366142 -0.49252,0.080315l-0.0543307 1.39016c-0.0023622,0.0437008 0.222047,0.0791339 0.49252,0.0791339l1.85551 0c0.270472,0 0.493701,-0.0354331 0.493701,-0.0791339l0.134646 -8.11299c0,-0.0448819 -0.461811,6.64252 -0.733465,6.64252z"
   id="path181" />
 </g>
</svg>