<?xml version="1.0" encoding="UTF-8" standalone="no"?>
<!-- Creator: CorelDRAW -->

<svg
   xmlns:dc="http://purl.org/dc/elements/1.1/"
   xmlns:cc="http://creativecommons.org/ns#"
   xmlns:rdf="http://www.w3.org/1999/02/22-rdf-syntax-ns#"
   xmlns:svg="http://www.w3.org/2000/svg"
   xmlns="http://www.w3.org/2000/svg"
   xmlns:xlink="http://www.w3.org/1999/xlink"
   xmlns:sodipodi="http://sodipodi.sourceforge.net/DTD/sodipodi-0.dtd"
   xmlns:inkscape="http://www.inkscape.org/namespaces/inkscape"
   xml:space="preserve"
   width="72px"
   height="72px"
   style="shape-rendering:geometricPrecision; text-rendering:geometricPrecision; image-rendering:optimizeQuality; fill-rule:evenodd; clip-rule:evenodd"
   viewBox="0 0 72 72"
   id="svg2"
   version="1.1"
   inkscape:version="0.48.1 r9760"
   sodipodi:docname="plugin-commands.svg"><metadata
   id="metadata204"><rdf:RDF><cc:Work
       rdf:about=""><dc:format>image/svg+xml</dc:format><dc:type
         rdf:resource="http://purl.org/dc/dcmitype/StillImage" /><dc:title></dc:title></cc:Work></rdf:RDF></metadata><sodipodi:namedview
   pagecolor="#ffffff"
   bordercolor="#666666"
   borderopacity="1"
   objecttolerance="10"
   gridtolerance="10"
   guidetolerance="10"
   inkscape:pageopacity="0"
   inkscape:pageshadow="2"
   inkscape:window-width="646"
   inkscape:window-height="480"
   id="namedview202"
   showgrid="false"
   inkscape:zoom="3.6944444"
   inkscape:cx="36"
   inkscape:cy="36"
   inkscape:window-x="0"
   inkscape:window-y="24"
   inkscape:window-maximized="0"
   inkscape:current-layer="svg2" />
 <defs
   id="defs4">
  <style
   type="text/css"
   id="style6">
   
    .fil15 {fill:#E5E5E5}
    .fil9 {fill:#B5E2FF}
    .fil58 {fill:#999999;fill-rule:nonzero}
    .fil13 {fill:#CCCCCC;fill-rule:nonzero}
    .fil11 {fill:white;fill-rule:nonzero}
    .fil56 {fill:#6EAEE4;fill-rule:nonzero}
    .fil54 {fill:#999999;fill-rule:nonzero}
    .fil38 {fill:white;fill-rule:nonzero}
    .fil0 {fill:#C4FFFF;fill-opacity:0.000000}
    .fil52 {fill:#C4FFFF;fill-rule:nonzero;fill-opacity:0.000000}
    .fil18 {fill:#99FFFF;fill-opacity:0.003922}
    .fil19 {fill:#99FFFF;fill-opacity:0.007843}
    .fil20 {fill:#99FFFF;fill-opacity:0.007843}
    .fil21 {fill:#99FFFF;fill-opacity:0.011765}
    .fil22 {fill:#99FFFF;fill-opacity:0.015686}
    .fil51 {fill:#C0FCFF;fill-opacity:0.015686}
    .fil23 {fill:#99FFFF;fill-opacity:0.015686}
    .fil24 {fill:#99FFFF;fill-opacity:0.019608}
    .fil25 {fill:#99FFFF;fill-opacity:0.019608}
    .fil26 {fill:#99FFFF;fill-opacity:0.023529}
    .fil27 {fill:#99FFFF;fill-opacity:0.027451}
    .fil28 {fill:#99FFFF;fill-opacity:0.027451}
    .fil50 {fill:#BCF8FF;fill-opacity:0.031373}
    .fil29 {fill:#99FFFF;fill-opacity:0.031373}
    .fil30 {fill:#99FFFF;fill-opacity:0.035294}
    .fil31 {fill:#99FFFF;fill-opacity:0.035294}
    .fil32 {fill:#99FFFF;fill-opacity:0.039216}
    .fil33 {fill:#99FFFF;fill-opacity:0.039216}
    .fil34 {fill:#99FFFF;fill-opacity:0.043137}
    .fil35 {fill:#99FFFF;fill-opacity:0.047059}
    .fil49 {fill:#B8F4FF;fill-opacity:0.047059}
    .fil48 {fill:#B4F0FF;fill-opacity:0.062745}
    .fil47 {fill:#B0ECFF;fill-opacity:0.078431}
    .fil46 {fill:#ACE8FF;fill-opacity:0.094118}
    .fil45 {fill:#A8E5FF;fill-opacity:0.105882}
    .fil1 {fill:#C3FCFF;fill-opacity:0.109804}
    .fil44 {fill:#A4E1FF;fill-opacity:0.121569}
    .fil43 {fill:#A0DDFF;fill-opacity:0.137255}
    .fil42 {fill:#9CD9FF;fill-opacity:0.152941}
    .fil41 {fill:#98D5FF;fill-opacity:0.168627}
    .fil40 {fill:#94D1FF;fill-opacity:0.184314}
    .fil39 {fill:#8FCDFF;fill-rule:nonzero;fill-opacity:0.200000}
    .fil36 {fill:#CCCCCC;fill-opacity:0.219608}
    .fil2 {fill:#C1F9FF;fill-opacity:0.223529}
    .fil3 {fill:#BFF6FF;fill-opacity:0.333333}
    .fil4 {fill:#BEF3FF;fill-opacity:0.443137}
    .fil12 {fill:#999999;fill-opacity:0.501961}
    .fil5 {fill:#BCEFFF;fill-opacity:0.556863}
    .fil6 {fill:#BAECFF;fill-opacity:0.666667}
    .fil7 {fill:#B9E9FF;fill-opacity:0.776471}
    .fil8 {fill:#B7E6FF;fill-opacity:0.890196}
    .fil10 {fill:url(#id0)}
    .fil16 {fill:url(#id1)}
    .fil17 {fill:url(#id2)}
    .fil14 {fill:url(#id3)}
    .fil37 {fill:url(#id4)}
    .fil59 {fill:url(#id5)}
    .fil55 {fill:url(#id6);fill-rule:nonzero}
    .fil53 {fill:url(#id7);fill-rule:nonzero}
    .fil57 {fill:url(#id8);fill-rule:nonzero}
   
  </style>
  <linearGradient
   id="id0"
   gradientUnits="userSpaceOnUse"
   x1="27.5528"
   y1="44.7118"
   x2="27.5528"
   y2="68.2287">
   <stop
   offset="0"
   style="stop-color:#E5E5E5"
   id="stop9" />
   <stop
   offset="1"
   style="stop-color:#B2B2B2"
   id="stop11" />
  </linearGradient>
  <linearGradient
   id="id1"
   gradientUnits="userSpaceOnUse"
   xlink:href="#id0"
   x1="56.015"
   y1="15.7299"
   x2="56.015"
   y2="39.2055">
  </linearGradient>
  <linearGradient
   id="id2"
   gradientUnits="userSpaceOnUse"
   x1="21.4843"
   y1="19.3122"
   x2="21.4843"
   y2="35.4803">
   <stop
   offset="0"
   style="stop-color:#E5E5E5"
   id="stop15" />
   <stop
   offset="1"
   style="stop-color:white"
   id="stop17" />
  </linearGradient>
  <linearGradient
   id="id3"
   gradientUnits="userSpaceOnUse"
   xlink:href="#id0"
   x1="20.987"
   y1="16.0949"
   x2="20.987"
   y2="39.078">
  </linearGradient>
  <linearGradient
   id="id4"
   gradientUnits="userSpaceOnUse"
   xlink:href="#id2"
   x1="55.8661"
   y1="19.5508"
   x2="55.8661"
   y2="35.2075">
  </linearGradient>
  <linearGradient
   id="id5"
   gradientUnits="userSpaceOnUse"
   xlink:href="#id2"
   x1="27.9685"
   y1="48.0874"
   x2="27.9685"
   y2="63.9484">
  </linearGradient>
  <linearGradient
   id="id6"
   gradientUnits="userSpaceOnUse"
   x1="17.7035"
   y1="30.6933"
   x2="17.3551"
   y2="24.1854">
   <stop
   offset="0"
   style="stop-color:white"
   id="stop23" />
   <stop
   offset="1"
   style="stop-color:#CCCCCC"
   id="stop25" />
  </linearGradient>
  <linearGradient
   id="id7"
   gradientUnits="userSpaceOnUse"
   x1="20.5264"
   y1="62.5547"
   x2="20.3339"
   y2="59.9102">
   <stop
   offset="0"
   style="stop-color:white"
   id="stop28" />
   <stop
   offset="1"
   style="stop-color:#7F7F7F"
   id="stop30" />
  </linearGradient>
  <linearGradient
   id="id8"
   gradientUnits="userSpaceOnUse"
   x1="55.8094"
   y1="30.6319"
   x2="55.6264"
   y2="24.2528">
   <stop
   offset="0"
   style="stop-color:white"
   id="stop33" />
   <stop
   offset="1"
   style="stop-color:#D6D6D6"
   id="stop35" />
  </linearGradient>
 </defs>
 <g
   id="Слой_x0020_1">
  <metadata
   id="CorelCorpID_0Corel-Layer" />
  <path
   class="fil0"
   d="M4.16339 9.97913l31.6606 0c3.28583,0 5.97283,2.27362 5.97283,5.05394l0 24.7665c0,2.78031 -2.68701,5.05394 -5.97283,5.05394l-31.6606 0c-3.28583,0 -5.97402,-2.27362 -5.97402,-5.05394l0 -24.7665c0,-2.78031 2.68819,-5.05394 5.97402,-5.05394z"
   id="path39" />
  <g
   id="_290879400">
   <path
   id="_110117736"
   class="fil1"
   d="M4.78465 10.6606c10.1409,0 20.2807,0 30.4205,0 3.15591,0 5.7378,2.18504 5.7378,4.85669 0,7.93228 0,15.8646 0,23.7945 0,2.67165 -2.58189,4.85669 -5.7378,4.85669 -10.1398,0 -20.2795,0 -30.4205,0 -3.15709,0 -5.74016,-2.18504 -5.74016,-4.85669 0,-7.92992 0,-15.8622 0,-23.7945 0,-2.67165 2.58307,-4.85669 5.74016,-4.85669z" />
   <path
   id="_110122152"
   class="fil2"
   d="M5.40472 11.3433c9.72756,0 19.4539,0 29.1803,0 3.02717,0 5.50394,2.09646 5.50394,4.65827 0,7.60984 0,15.2185 0,22.826 0,2.56181 -2.47677,4.65827 -5.50394,4.65827 -9.72638,0 -19.4528,0 -29.1803,0 -3.02835,0 -5.5063,-2.09646 -5.5063,-4.65827 0,-7.60748 0,-15.2161 0,-22.826 0,-2.56181 2.47795,-4.65827 5.5063,-4.65827z" />
   <path
   id="_110130312"
   class="fil3"
   d="M6.0248 12.026c9.31417,0 18.6272,0 27.9402,0 2.89843,0 5.27008,2.00669 5.27008,4.46102 0,7.28504 0,14.5713 0,21.8551 0,2.45315 -2.37165,4.45984 -5.27008,4.45984 -9.31299,0 -18.626,0 -27.9402,0 -2.90079,0 -5.27244,-2.00669 -5.27244,-4.45984 0,-7.28386 0,-14.5701 0,-21.8551 0,-2.45433 2.37165,-4.46102 5.27244,-4.46102z" />
   <path
   id="_110125872"
   class="fil4"
   d="M6.64488 12.7087c8.90079,0 17.8004,0 26.7,0 2.76969,0 5.03622,1.91811 5.03622,4.2626 0,6.9626 0,13.9252 0,20.8854 0,2.34449 -2.26654,4.2626 -5.03622,4.2626 -8.89961,0 -17.7992,0 -26.7,0 -2.77205,0 -5.03858,-1.91811 -5.03858,-4.2626 0,-6.96024 0,-13.9228 0,-20.8854 0,-2.34449 2.26654,-4.2626 5.03858,-4.2626z" />
   <path
   id="_110128296"
   class="fil5"
   d="M7.26378 13.3937c8.4874,0 16.9748,0 25.461,0 2.64331,0 4.80236,1.82835 4.80236,4.06417 0,6.63898 0,13.278 0,19.9157 0,2.23583 -2.15906,4.06417 -4.80236,4.06417 -8.48622,0 -16.9736,0 -25.461,0 -2.64213,0 -4.80354,-1.82835 -4.80354,-4.06417 0,-6.6378 0,-13.2768 0,-19.9157 0,-2.23583 2.16142,-4.06417 4.80354,-4.06417z" />
   <path
   id="_110122320"
   class="fil6"
   d="M7.88386 14.0764c8.07402,0 16.148,0 24.2209,0 2.51457,0 4.5685,1.73976 4.5685,3.86575 0,6.31654 0,12.6319 0,18.9461 0,2.12717 -2.05394,3.86693 -4.5685,3.86693 -8.07283,0 -16.1469,0 -24.2209,0 -2.51339,0 -4.56969,-1.73976 -4.56969,-3.86693 0,-6.31417 0,-12.6295 0,-18.9461 0,-2.12598 2.0563,-3.86575 4.56969,-3.86575z" />
   <path
   id="_110116944"
   class="fil7"
   d="M8.50394 14.7591c7.66063,0 15.3213,0 22.9807,0 2.38583,0 4.33583,1.65 4.33583,3.6685 0,5.99173 0,11.9846 0,17.9752 0,2.0185 -1.95,3.6685 -4.33583,3.6685 -7.65945,0 -15.3201,0 -22.9807,0 -2.38583,0 -4.33583,-1.65 -4.33583,-3.6685 0,-5.99055 0,-11.9835 0,-17.9752 0,-2.0185 1.95,-3.6685 4.33583,-3.6685z" />
   <path
   id="_110120712"
   class="fil8"
   d="M9.12402 15.4417c7.24724,0 14.4945,0 21.7406,0 2.25709,0 4.10197,1.56142 4.10197,3.47008 0,5.66929 0,11.3386 0,17.0079 0,1.90748 -1.84488,3.4689 -4.10197,3.4689 -7.24606,0 -14.4933,0 -21.7406,0 -2.25709,0 -4.10197,-1.56142 -4.10197,-3.4689 0,-5.66929 0,-11.3386 0,-17.0079 0,-1.90866 1.84488,-3.47008 4.10197,-3.47008z" />
  </g>
  <rect
   class="fil9"
   x="5.87451"
   y="16.1247"
   width="28.237"
   height="22.5827"
   rx="12.626"
   ry="12.626"
   id="rect50" />
  <path
   class="fil0"
   d="M42.5469 10.9276l26.0622 0c2.70472,0 4.91693,2.15669 4.91693,4.79409l0 23.4933c0,2.6374 -2.2122,4.79528 -4.91693,4.79528l-26.0622 0c-2.70472,0 -4.91693,-2.15787 -4.91693,-4.79528l0 -23.4933c0,-2.6374 2.2122,-4.79409 4.91693,-4.79409z"
   id="path52" />
  <g
   id="_290896152">
   <path
   id="_289365984"
   class="fil1"
   d="M43.0571 11.5736c8.34685,0 16.6937,0 25.0417,0 2.59843,0 4.72441,2.07283 4.72441,4.6063 0,7.52598 0,15.0496 0,22.572 0,2.53465 -2.12598,4.60748 -4.72441,4.60748 -8.34803,0 -16.6949,0 -25.0417,0 -2.59843,0 -4.72441,-2.07283 -4.72441,-4.60748 0,-7.52244 0,-15.0461 0,-22.572 0,-2.53346 2.12598,-4.6063 4.72441,-4.6063z" />
   <path
   id="_110126712"
   class="fil2"
   d="M43.5673 12.222c8.00669,0 16.0134,0 24.0213,0 2.49213,0 4.53189,1.9878 4.53189,4.4185 0,7.2189 0,14.4354 0,21.652 0,2.43071 -2.03976,4.41969 -4.53189,4.41969 -8.00787,0 -16.0146,0 -24.0213,0 -2.49213,0 -4.53189,-1.98898 -4.53189,-4.41969 0,-7.21654 0,-14.4331 0,-21.652 0,-2.43071 2.03976,-4.4185 4.53189,-4.4185z" />
   <path
   id="_105230656"
   class="fil3"
   d="M44.0776 12.8693c7.66654,0 15.3331,0 23.0008,0 2.38701,0 4.33937,1.90394 4.33937,4.23071 0,6.91181 0,13.8224 0,20.7319 0,2.32795 -1.95236,4.23189 -4.33937,4.23189 -7.66772,0 -15.3343,0 -23.0008,0 -2.38701,0 -4.33937,-1.90394 -4.33937,-4.23189 0,-6.90945 0,-13.8201 0,-20.7319 0,-2.32677 1.95236,-4.23071 4.33937,-4.23071z" />
   <path
   id="_110127600"
   class="fil4"
   d="M44.5878 13.5177c7.32638,0 14.6528,0 21.9803,0 2.28071,0 4.14685,1.8189 4.14685,4.04291 0,6.60472 0,13.2083 0,19.8118 0,2.22402 -1.86614,4.04409 -4.14685,4.04409 -7.32756,0 -14.6539,0 -21.9803,0 -2.28071,0 -4.14685,-1.82008 -4.14685,-4.04409 0,-6.60354 0,-13.2071 0,-19.8118 0,-2.22402 1.86614,-4.04291 4.14685,-4.04291z" />
   <path
   id="_110129592"
   class="fil5"
   d="M45.0992 14.165c6.98504,0 13.9713,0 20.9575,0 2.17559,0 3.95433,1.73386 3.95433,3.85512 0,6.29882 0,12.5965 0,18.8917 0,2.12126 -1.77874,3.8563 -3.95433,3.8563 -6.98622,0 -13.9724,0 -20.9575,0 -2.17559,0 -3.95433,-1.73504 -3.95433,-3.8563 0,-6.29528 0,-12.5929 0,-18.8917 0,-2.12126 1.77874,-3.85512 3.95433,-3.85512z" />
   <path
   id="_110123784"
   class="fil6"
   d="M45.6094 14.8134c6.64488,0 13.2909,0 19.937,0 2.06929,0 3.76181,1.64882 3.76181,3.66732 0,5.99173 0,11.9823 0,17.9717 0,2.01732 -1.69252,3.6685 -3.76181,3.6685 -6.64606,0 -13.2921,0 -19.937,0 -2.06929,0 -3.76181,-1.65118 -3.76181,-3.6685 0,-5.98937 0,-11.9799 0,-17.9717 0,-2.0185 1.69252,-3.66732 3.76181,-3.66732z" />
   <path
   id="_110120112"
   class="fil7"
   d="M46.1197 15.4606c6.30472,0 12.6106,0 18.9165,0 1.96417,0 3.56929,1.56496 3.56929,3.47953 0,5.68465 0,11.3693 0,17.0528 0,1.91339 -1.60512,3.47953 -3.56929,3.47953 -6.30591,0 -12.6118,0 -18.9165,0 -1.96417,0 -3.56929,-1.56614 -3.56929,-3.47953 0,-5.68346 0,-11.3681 0,-17.0528 0,-1.91457 1.60512,-3.47953 3.56929,-3.47953z" />
   <path
   id="_110129472"
   class="fil8"
   d="M46.6299 16.1091c5.96457,0 11.9303,0 17.8961,0 1.85787,0 3.37677,1.47992 3.37677,3.29173 0,5.37756 0,10.7551 0,16.1327 0,1.80945 -1.5189,3.29173 -3.37677,3.29173 -5.96575,0 -11.9315,0 -17.8961,0 -1.85787,0 -3.37677,-1.48228 -3.37677,-3.29173 0,-5.37756 0,-10.7551 0,-16.1327 0,-1.81181 1.5189,-3.29173 3.37677,-3.29173z" />
  </g>
  <rect
   class="fil9"
   x="43.956"
   y="16.7572"
   width="23.2437"
   height="21.4218"
   rx="12.626"
   ry="12.626"
   id="rect63" />
  <path
   class="fil10"
   d="M6.11102 43.4091l42.8846 0.0909449c1.95354,0.00354331 3.55039,1.60512 3.55039,3.55039l0 18.9295c0,1.94646 -1.60394,3.55512 -3.55039,3.55157l-42.8846 -0.0909449c-1.94528,-0.00472441 -3.55157,-1.59803 -3.55157,-3.55039l0 -18.9307c0,-1.95354 1.59803,-3.55394 3.55157,-3.55039z"
   id="path65" />
  <path
   class="fil11"
   d="M29.9303 59.8819l-2.99409 -1.18937 0.277559 -0.323622 -3.40276 -1.89213 22.7764 -6.27756 0.787795 -0.611811 4.24016 -3.59291c-0.415748,-0.726378 -1.57323,-1.81654 -2.37047,-2.10945l-3.19252 4.41732 -24.5161 6.90827 -12.4016 -6.83386 -3.46063 -4.26496c-0.799606,0.291732 -2.2748,1.44921 -2.69055,2.17559l5.26535 2.99173 0.211417 1.1563 11.4555 5.63504 -4.33937 2.29843 -0.187795 0.134646 -1.64882 -0.288189 -3.52441 1.89331c0.666142,1.35827 1.31929,0.159449 1.82598,2.06929l2.47087 -3.7122 2.3752 1.98543 5.5063 -3.16299 4.90866 2.41535 -0.611811 -1.32402 2.34567 2.63622c-2.08346,1.37008 -0.155906,-0.173622 0.894094,-1.13386z"
   id="path67" />
  <path
   class="fil12"
   d="M4.86378 68.602l3.00118 -3.70394c5.49803,-1.12087 39.1429,-0.0933071 39.1429,-0.0933071l3.93898 3.84921c-0.605906,0.480709 -1.37008,0.766535 -2.19921,0.766535l-41.622 0c-0.858661,0 -1.64646,-0.307087 -2.26181,-0.818504z"
   id="path69" />
  <path
   class="fil13"
   d="M51.7264 67.5201l-3.56693 -3.00354 -21.8858 -4.86969 0.277559 -0.322441 -3.40394 -1.89331 7.14331 -4.10197 -4.06063 0 -5.35512 2.83701 -5.09882 -2.83701 -4.03701 0 7.51299 3.69685 -4.33937 2.29843 -0.186614 0.134646 -7.8378 5.39173 -3.93898 2.60197c0.667323,1.35827 1.31929,0.159449 1.8248,2.06929l3.0626 -3.77244 8.38701 -4.34291 5.5063 -3.16181 4.90866 2.41417 20.3138 5.00315 2.58071 4.17756c-2.08228,1.37008 1.14449,-1.35945 2.19331,-2.31969z"
   id="path71" />
  <path
   class="fil14"
   d="M6.22559 14.5465l29.7106 -0.0188976c1.95472,0.0165354 3.56457,1.6063 3.55157,3.55157l-0.00590551 18.8858c0,1.93937 -1.60039,3.56929 -3.55157,3.55039l-29.8925 0.129921c-1.95,-0.0188976 -3.56339,-1.59921 -3.55039,-3.55157l0.186614 -18.9969c0.0200787,-1.95472 1.59685,-3.56811 3.55157,-3.55039z"
   id="path73" />
  <path
   class="fil12"
   d="M38.2618 38.9398c-0.65315,0.775984 -1.62992,1.27323 -2.71299,1.2626l-28.5083 -0.262205c-0.603543,-0.00590551 -1.1752,-0.159449 -1.67362,-0.429921l4.12559 -5.09173c5.49921,-1.12205 24.0461,-0.0933071 24.0461,-0.0933071l4.72323 4.61457z"
   id="path75" />
  <path
   class="fil15"
   d="M7.04055 15.4394l28.5071 0.261024c0.562205,0.00472441 1.09606,0.140551 1.56969,0.375591l-5.62913 6.38268 -18.4535 0 -8.44016 -6.0437c0.637795,-0.609449 1.49882,-0.983858 2.44606,-0.975591z"
   id="path77" />
  <path
   class="fil16"
   d="M46.1067 14.4272l19.8106 0c1.95236,0 3.55748,1.61929 3.55039,3.55039l-0.0897638 18.8823c-0.00708661,1.9311 -1.61693,3.54331 -3.55039,3.55039l-19.7209 0.0933071c-1.93465,0.00708661 -3.55039,-1.59921 -3.55039,-3.55039l0 -18.9756c0,-1.95118 1.59685,-3.55039 3.55039,-3.55039z"
   id="path79" />
  <path
   class="fil12"
   d="M44.2122 39.3661l3.32717 -4.10669c5.49803,-1.12087 17.3339,-0.0933071 17.3339,-0.0933071l3.42756 3.34843c-0.630709,1.00039 -1.74567,1.67126 -3.00827,1.67126l-18.8185 0c-0.858661,0 -1.64646,-0.309449 -2.26181,-0.819685z"
   id="path81" />
  <path
   class="fil11"
   d="M29.8925 30.6744l-2.99409 -1.18937 0.277559 -0.323622 -3.40276 -1.89213 10.5165 -6.04134 0.787795 -0.611811 4.24016 -3.59291c-0.415748,-0.726378 -1.57323,-1.81654 -2.37047,-2.10827l-3.1937 4.41614 -12.2551 6.67205 -12.4016 -6.83386 -3.46063 -4.26496c-0.799606,0.291732 -2.2748,1.44921 -2.69055,2.17559l5.26535 2.99291 0.211417 1.15512 11.4555 5.63622 -4.33937 2.29724 -0.187795 0.135827 -1.64882 -0.28937 -3.52441 1.89331c0.666142,1.35827 1.31929,0.159449 1.82598,2.07047l2.47087 -3.7122 2.3752 1.98543 5.5063 -3.16299 4.90866 2.41417 -0.611811 -1.32402 2.34567 2.63622c-2.08346,1.37126 -0.155906,-0.173622 0.894094,-1.13386z"
   id="path83" />
  <path
   class="fil13"
   d="M38.7803 38.426l-3.56693 -3.00236 -8.68228 -4.51654 0.277559 -0.322441 -3.40276 -1.89331 7.14213 -4.10197 -4.06063 0 -5.35512 2.83701 -5.09882 -2.83701 -4.03701 0 7.51417 3.69685 -4.33937 2.29843 -0.187795 0.134646 -7.8378 5.39173 -3.93898 2.60197c0.667323,1.35827 1.31929,0.159449 1.8248,2.07047l3.0626 -3.77362 8.38701 -4.34291 5.50748 -3.16181 4.90748 2.41535 7.11024 4.64882 2.58071 4.17638c-2.08228,1.37008 1.14449,-1.35945 2.19331,-2.31969z"
   id="path85" />
  <path
   class="fil17"
   d="M10.1894 18.4665l22.6075 -0.0519685c1.48346,0.0153543 2.69646,1.35709 2.69646,2.98346l-0.0933071 11.9787c-0.011811,1.6252 -1.21772,3.00236 -2.69646,2.98465l-22.4894 0.0165354c-1.46102,0 -2.68346,-1.57087 -2.69764,-3.21142l-0.0248031 -11.7154c-0.0153543,-1.64291 1.21299,-3.00118 2.69764,-2.98465z"
   id="path87" />
  <path
   class="fil18"
   d="M3.33543 28.415c-0.0814961,3.30118 7.68307,5.94685 17.3409,5.90787 9.65433,-0.0389764 17.5512,-2.74843 17.6339,-6.04961 0.0814961,-3.30236 -7.68189,-5.94803 -17.3362,-5.90906 -9.65906,0.0389764 -17.5559,2.74843 -17.6386,6.05079z"
   id="path89" />
  <g
   id="_290892072">
   <path
   id="_291285904"
   class="fil19"
   d="M5.06339 28.2437c-0.328346,3.17008 7.34291,5.88898 16.0382,5.85236 8.69291,-0.0354331 15.1228,-2.81457 15.4524,-5.98465 0.328346,-3.17008 -6.45354,-5.71181 -15.1465,-5.6752 -8.69764,0.0354331 -16.0146,2.63622 -16.3441,5.80748z" />
   <path
   id="_105483120"
   class="fil20"
   d="M6.79016 28.0724c-0.575197,3.03898 7.00157,5.8311 14.7354,5.79803 7.7315,-0.034252 12.6957,-2.88189 13.272,-5.91969 0.576378,-3.04016 -5.22756,-5.47677 -12.9591,-5.4437 -7.73504,0.034252 -14.472,2.52638 -15.0484,5.56535z" />
   <path
   id="_105484176"
   class="fil21"
   d="M8.51693 27.9047c-0.822047,2.90669 6.66142,5.77323 13.4327,5.74252 6.77008,-0.0307087 10.2685,-2.94685 11.0917,-5.85472 0.822047,-2.90787 -4.00039,-5.24055 -10.7705,-5.20984 -6.77244,0.0307087 -12.9295,2.41417 -13.7539,5.32205z" />
   <path
   id="_105485136"
   class="fil22"
   d="M10.2449 27.7335c-1.0689,2.77559 6.32126,5.71535 12.1299,5.68701 5.80866,-0.0283465 7.84134,-3.01299 8.91024,-5.78858 1.07008,-2.77795 -2.77323,-5.00551 -8.58189,-4.97717 -5.80984,0.0271654 -11.387,2.30197 -12.4583,5.07874z" />
   <path
   id="_105483744"
   class="fil23"
   d="M11.9693 27.5634c-1.31457,2.64449 5.9811,5.65748 10.8283,5.63268 4.84724,-0.0259843 5.41299,-3.08031 6.72874,-5.7248 1.31693,-2.64567 -1.54606,-4.76929 -6.39331,-4.74449 -4.84843,0.0259843 -9.84567,2.19094 -11.1638,4.83661z" />
   <path
   id="_105482208"
   class="fil24"
   d="M13.6972 27.3921c-1.56142,2.51339 5.63976,5.59961 9.52559,5.57717 3.88583,-0.0224409 2.98465,-3.14646 4.54843,-5.65984 1.56378,-2.51339 -0.320079,-4.53307 -4.20591,-4.51063 -3.88583,0.0224409 -8.30315,2.07992 -9.86811,4.59331z" />
   <path
   id="_105482160"
   class="fil25"
   d="M15.424 27.2244c-1.80827,2.38228 5.29961,5.54173 8.22283,5.52165 2.92441,-0.0200787 0.55748,-3.2126 2.36693,-5.5937 1.81181,-2.38346 0.908268,-4.29803 -2.01614,-4.27795 -2.92441,0.0188976 -6.76063,1.96772 -8.57362,4.35z" />
   <path
   id="_105482880"
   class="fil26"
   d="M17.1508 27.0531c-2.05512,2.25118 4.95945,5.48386 6.92008,5.46732 1.96299,-0.0177165 -1.86969,-3.27992 0.186614,-5.52992 2.05866,-2.25118 2.13425,-4.06181 0.17126,-4.04528 -1.96181,0.0177165 -5.21811,1.85669 -7.27795,4.10787z" />
   <path
   id="_105483312"
   class="fil27"
   d="M18.8787 26.8843c-2.30315,2.11772 4.61693,5.42598 5.61614,5.41063 1.00157,-0.0153543 -4.29803,-3.34488 -1.99488,-5.46378 2.30551,-2.12126 3.3626,-3.82795 2.36102,-3.8126 -0.999213,0.0141732 -3.67677,1.74567 -5.98228,3.86575z" />
   <path
   id="_105483144"
   class="fil28"
   d="M20.6055 26.713c-2.55,1.98661 4.27677,5.36811 4.31339,5.3563 0.0401575,-0.0129921 -6.7252,-3.4122 -4.1752,-5.4 2.55236,-1.98898 4.58858,-3.59173 4.54843,-3.57992 -0.0366142,0.0129921 -2.13425,1.63465 -4.68661,3.62362z" />
   <path
   id="_105485592"
   class="fil29"
   d="M22.3323 26.5453c-2.79685,1.85551 3.93661,5.31024 3.01063,5.30079 -0.92126,-0.0106299 -9.15236,-3.47835 -6.35669,-5.33386 2.80039,-1.85906 5.81693,-3.35669 6.73819,-3.34724 0.924803,0.00944882 -0.591732,1.52244 -3.39213,3.38031z" />
   <path
   id="_105483432"
   class="fil30"
   d="M24.0602 26.374c-3.0437,1.72441 3.59528,5.25236 1.70787,5.24528 -1.88268,-0.00708661 -11.5807,-3.54449 -8.53701,-5.2689 3.04724,-1.72677 7.04291,-3.12047 8.92559,-3.11339 1.8874,0.00590551 0.950787,1.41142 -2.09646,3.13701z" />
   <path
   id="_105485424"
   class="fil31"
   d="M25.7846 26.2039c-3.28937,1.59331 3.25512,5.19449 0.406299,5.19094 -2.84409,-0.00472441 -14.0091,-3.61181 -10.7185,-5.20512 3.29409,-1.59449 8.27008,-2.88425 11.1142,-2.88071 2.84882,0.00472441 2.49213,1.30039 -0.801969,2.89488z" />
   <path
   id="_105482712"
   class="fil32"
   d="M27.5126 26.0327c-3.53622,1.4622 2.91496,5.13661 -0.896457,5.13543 -3.80551,-0.0023622 -16.4362,-3.67795 -12.9,-5.13898 3.54213,-1.46457 9.49724,-2.64921 13.3028,-2.64803 3.81142,0.0011811 4.03465,1.18819 0.493701,2.65157z" />
   <path
   id="_105484728"
   class="fil33"
   d="M29.2394 25.865c-3.78307,1.32992 2.5748,5.07874 -2.19921,5.07992 -4.76693,0.0011811 -18.8634,-3.74291 -15.0803,-5.07402 3.7878,-1.33228 10.7244,-2.41299 15.4913,-2.41417 4.77402,-0.0023622 5.57717,1.07598 1.78819,2.40827z" />
   <path
   id="_105483504"
   class="fil34"
   d="M30.9661 25.6937c-4.02992,1.19882 2.23346,5.02087 -3.50197,5.02559 -5.72835,0.0023622 -21.2917,-3.81024 -17.2618,-5.00906 4.03583,-1.20236 11.9516,-2.17795 17.6799,-2.18268 5.73661,-0.00354331 7.11969,0.966142 3.08386,2.16614z" />
  </g>
  <path
   class="fil35"
   d="M32.6917 25.5248c-4.27677,1.06772 1.89331,4.96299 -4.80472,4.97008 -6.68976,0.00590551 -23.7189,-3.87638 -19.4421,-4.94409 4.28268,-1.07008 13.1787,-1.94173 19.8685,-1.94882 6.69803,-0.00708661 8.66102,0.853937 4.37835,1.92283z"
   id="path108" />
  <path
   class="fil36"
   d="M34.2496 20.3646c0.511417,0.493701 0.831496,1.1811 0.831496,1.93701l-0.0023622 10.5035c0,0.596457 -0.200787,1.15748 -0.538583,1.6122l0.0023622 -11.0528c0,-0.570472 -0.080315,-0.998031 -0.271654,-1.24488 -0.164173,-0.209055 -0.409843,-0.092126 -0.885827,-0.0933071l-0.00472441 0 -23.863 -0.0129921 -0.00590551 0c-0.488976,-0.00354331 -0.800787,0.0874016 -0.956693,0.274016l0 0.0011811c-0.183071,0.218504 -0.316535,0.500787 -0.316535,1.06181l0.115748 11.1567 0.00590551 0.242126c-0.641339,-0.49252 -1.06417,-1.26378 -1.07244,-2.13425l-0.115748 -10.5614c-0.0023622,-0.302362 0.0448819,-0.597638 0.138189,-0.870472l0.0023622 -0.0023622c0.465354,-0.556299 1.1622,-0.833858 2.14488,-0.826772l0.00472441 0 23.8654 -0.102756 0.0023622 0c0.340157,0.0011811 0.646063,0.0413386 0.920079,0.113386z"
   id="path110" />
  <path
   class="fil11"
   d="M63.3957 21.2173l-0.0259843 -0.360236 0.786614 -0.611811 4.24134 -3.59409c-0.416929,-0.726378 -1.57441,-1.81654 -2.37165,-2.10827l-3.19252 4.41732 -4.14449 2.25709 4.70669 0zm-13.7787 0l-0.477165 -2.1815 -3.46063 -4.26496c-0.799606,0.291732 -2.2748,1.44921 -2.69055,2.17559l5.26654 2.99291 0.211417 1.15512 0.248031 0.122835 0.902362 0z"
   id="path112" />
  <path
   class="fil13"
   d="M68.765 37.3677l-3.56693 -3.00354 0.0177165 -0.348425 -0.210236 -0.591732 -1.01457 2.08701 2.58071 4.1752c-2.08228,1.37008 1.14449,-1.35827 2.19331,-2.3185zm-21.3189 -2.05039l-1.00394 -0.147638 -3.93661 2.60315c0.666142,1.35827 1.31929,0.158268 1.8248,2.07047l3.06142 -3.77362 3.57638 -0.752362 -3.52205 0z"
   id="path114" />
  <path
   class="fil37"
   d="M48.8858 18.4843l13.9594 0c1.44921,0 2.63386,1.15512 2.63386,2.55472l0 12.6803c0,1.40197 -1.18937,2.55591 -2.63386,2.55591l-13.9594 0c-1.44331,0 -2.63268,-1.15039 -2.63268,-2.55591l0 -12.6803c0,-1.40433 1.18465,-2.55472 2.63268,-2.55472z"
   id="path116" />
  <path
   class="fil38"
   d="M48.8858 17.9835l13.9606 0c0.855118,0 1.63819,0.343701 2.20512,0.894094 0.572835,0.555118 0.928346,1.32283 0.928346,2.16142l0 12.6803c0,0.839764 -0.357874,1.6063 -0.928346,2.16142 -0.56811,0.551575 -1.35118,0.895276 -2.20512,0.895276l-13.9606 0c-0.855118,0 -1.63937,-0.343701 -2.2063,-0.894094 -0.570472,-0.553937 -0.927165,-1.32165 -0.927165,-2.1626l0 -12.6803c0,-0.842126 0.356693,-1.60748 0.927165,-2.1626 0.566929,-0.550394 1.35,-0.892913 2.2063,-0.892913zm13.9606 1.00157l-13.9606 0c-0.590551,0 -1.12677,0.233858 -1.51181,0.607087 -0.381496,0.370866 -0.620079,0.883465 -0.620079,1.44685l0 12.6803c0,0.563386 0.238583,1.07598 0.620079,1.44685 0.385039,0.373228 0.922441,0.608268 1.51181,0.608268l13.9606 0c0.588189,0 1.12441,-0.233858 1.51063,-0.609449 0.381496,-0.370866 0.62126,-0.884646 0.62126,-1.44567l0 -12.6803c0,-0.561024 -0.238583,-1.0748 -0.62126,-1.44567 -0.385039,-0.373228 -0.92126,-0.608268 -1.51063,-0.608268z"
   id="path118" />
  <path
   class="fil18"
   d="M46.8969 26.7803c-0.0401575,4.31339 3.82441,7.77047 8.63268,7.71969 4.80591,-0.0519685 8.7378,-3.59173 8.77795,-7.90512 0.0413386,-4.31457 -3.82441,-7.77165 -8.63031,-7.72087 -4.80827,0.0507874 -8.73898,3.59173 -8.78031,7.9063z"
   id="path120" />
  <g
   id="_290889480">
   <path
   id="_291301048"
   class="fil19"
   d="M47.6043 26.6835c-0.121654,4.14213 3.63543,7.69488 8.03031,7.64764 4.3937,-0.0484252 7.7622,-3.67795 7.88268,-7.82008 0.122835,-4.14331 -3.34252,-7.46339 -7.73504,-7.41614 -4.39488,0.0472441 -8.0563,3.44528 -8.17795,7.58858z" />
   <path
   id="_291291976"
   class="fil20"
   d="M48.3118 26.5902c-0.201969,3.96969 3.44882,7.61929 7.43031,7.57559 3.97913,-0.0448819 6.78543,-3.76535 6.9874,-7.73504 0.20315,-3.97205 -2.86063,-7.1563 -6.84094,-7.1126 -3.9815,0.0437008 -7.37362,3.30118 -7.57677,7.27205z" />
   <path
   id="_291298360"
   class="fil21"
   d="M49.0169 26.4957c-0.283465,3.79843 3.25984,7.5437 6.82795,7.50354 3.56693,-0.0413386 5.80984,-3.85157 6.09213,-7.65 0.284646,-3.79961 -2.37874,-6.84803 -5.94567,-6.80787 -3.56811,0.0401575 -6.68976,3.15472 -6.97441,6.95433z" />
   <path
   id="_291287512"
   class="fil22"
   d="M49.7256 26.4012c-0.364961,3.62717 3.07205,7.46811 6.22677,7.4315 3.15354,-0.0377953 4.83307,-3.93898 5.19685,-7.56496 0.364961,-3.62835 -1.89685,-6.54094 -5.05157,-6.50433 -3.15472,0.0377953 -6.00709,3.00945 -6.37205,6.6378z" />
   <path
   id="_291288712"
   class="fil23"
   d="M50.4319 26.3055c-0.444094,3.45472 2.88425,7.39252 5.62559,7.35827 2.74134,-0.0330709 3.85748,-4.02402 4.30157,-7.47992 0.446457,-3.45591 -1.41496,-6.2315 -4.15512,-6.19843 -2.74134,0.0330709 -5.32559,2.86299 -5.77205,6.32008z" />
   <path
   id="_291288544"
   class="fil24"
   d="M51.1406 26.2122c-0.525591,3.28346 2.69528,7.31693 5.02323,7.28622 2.32795,-0.0295276 2.88189,-4.11142 3.40748,-7.39488 0.526772,-3.28465 -0.934252,-5.92323 -3.26102,-5.8937 -2.32795,0.0295276 -4.64291,2.71772 -5.16969,6.00236z" />
   <path
   id="_291291496"
   class="fil25"
   d="M51.8457 26.1177c-0.607087,3.1122 2.50748,7.24134 4.42205,7.21417 1.91457,-0.0259843 1.90512,-4.19764 2.51102,-7.30984 0.608268,-3.11339 -0.451181,-5.61614 -2.36575,-5.59016 -1.91457,0.0271654 -3.95906,2.57244 -4.56732,5.68583z" />
   <path
   id="_291286168"
   class="fil26"
   d="M52.5531 26.0232c-0.687402,2.93976 2.31969,7.16575 3.82087,7.14213 1.50236,-0.0224409 0.929528,-4.28504 1.61693,-7.2248 0.688583,-2.94213 0.0295276,-5.30787 -1.47165,-5.28543 -1.50118,0.0224409 -3.27638,2.42598 -3.96614,5.36811z" />
   <path
   id="_291298048"
   class="fil27"
   d="M53.2606 25.9287c-0.768898,2.7685 2.13189,7.08898 3.21969,7.07008 1.0878,-0.0200787 -0.0484252,-4.37126 0.720472,-7.13976 0.77126,-2.76969 0.512598,-5.00079 -0.576378,-4.98189 -1.0878,0.0200787 -2.5937,2.28189 -3.36378,5.05157z" />
   <path
   id="_291296464"
   class="fil28"
   d="M53.9681 25.8343c-0.849213,2.59606 1.94409,7.01339 2.6185,6.99803 0.675591,-0.0165354 -1.02402,-4.45866 -0.173622,-7.05472 0.851575,-2.59843 0.993307,-4.69252 0.317717,-4.67717 -0.674409,0.0153543 -1.91102,2.13543 -2.7626,4.73386z" />
   <path
   id="_291296296"
   class="fil29"
   d="M54.6732 25.7398c-0.930709,2.4248 1.7563,6.9378 2.01732,6.92598 0.262205,-0.0129921 -2.00079,-4.54488 -1.07008,-6.96969 0.933071,-2.42717 1.47638,-4.38543 1.21299,-4.37362 -0.261024,0.0129921 -1.22717,1.99016 -2.16024,4.41732z" />
   <path
   id="_291288784"
   class="fil30"
   d="M55.3819 25.6465c-1.0122,2.25354 1.56732,6.8622 1.41496,6.85394 -0.151181,-0.00944882 -2.97638,-4.63228 -1.96417,-6.88465 1.01339,-2.25591 1.95709,-4.07717 2.10709,-4.0689 0.152362,0.00944882 -0.544488,1.84488 -1.55787,4.09961z" />
   <path
   id="_291295240"
   class="fil31"
   d="M56.0882 25.5508c-1.09134,2.0811 1.37953,6.78661 0.81378,6.78071 -0.563386,-0.00472441 -3.95197,-4.71732 -2.85945,-6.79961 1.09488,-2.08346 2.43898,-3.76772 3.00354,-3.76299 0.565748,0.00472441 0.137008,1.69843 -0.957874,3.78189z" />
   <path
   id="_291294400"
   class="fil32"
   d="M56.7969 25.4563c-1.17283,1.90984 1.19173,6.71102 0.212598,6.70866 -0.976772,-0.0011811 -4.92874,-4.80472 -3.75472,-6.71457 1.1752,-1.9122 2.92087,-3.46063 3.89764,-3.45945 0.979134,0.0023622 0.819685,1.55315 -0.355512,3.46535z" />
   <path
   id="_291286888"
   class="fil33"
   d="M57.502 25.3618c-1.25433,1.73858 1.00276,6.63543 -0.389764,6.63661 -1.38898,0.0023622 -5.90433,-4.89094 -4.65,-6.62953 1.25669,-1.73976 3.40276,-3.15236 4.79291,-3.15472 1.39252,-0.0011811 1.50354,1.40669 0.24685,3.14764z" />
   <path
   id="_291298120"
   class="fil34"
   d="M58.2094 25.2685c-1.33465,1.56614 0.816142,6.55984 -0.989764,6.56457 -1.80354,0.00590551 -6.8811,-4.97835 -5.54528,-6.54449 1.33701,-1.5685 3.88465,-2.84528 5.68701,-2.85118 1.80591,-0.00472441 2.18622,1.2626 0.848031,2.8311z" />
  </g>
  <path
   class="fil35"
   d="M58.9169 25.174c-1.41614,1.39488 0.627165,6.48425 -1.59213,6.49252 -2.21575,0.00944882 -7.85669,-5.06457 -6.44055,-6.45945 1.4185,-1.39724 4.36654,-2.53701 6.58228,-2.54646 2.21929,-0.00826772 2.8689,1.11614 1.45039,2.51339z"
   id="path139" />
  <path
   class="fil39"
   d="M45.2079 14.1709l22.2638 0c0.62126,0 1.18819,0.486614 1.59803,1.27087 0.411024,0.783071 0.666142,1.86378 0.666142,3.05197l0 17.7709c0,1.18819 -0.255118,2.2689 -0.666142,3.05197 -0.409843,0.784252 -0.976772,1.27087 -1.59803,1.27087l-22.2638 0c-0.622441,0 -1.18819,-0.486614 -1.59803,-1.27087 -0.411024,-0.783071 -0.666142,-1.86378 -0.666142,-3.05197l0 -17.7709c0,-1.18819 0.255118,-2.2689 0.666142,-3.05197 0.409843,-0.784252 0.975591,-1.27087 1.59803,-1.27087zm22.2638 1.39016l-22.2638 0c-0.422835,0 -0.807874,0.330709 -1.08543,0.861024 -0.276378,0.529134 -0.45,1.26496 -0.45,2.07165l0 17.7709c0,0.806693 0.173622,1.54252 0.45,2.07165 0.277559,0.530315 0.662598,0.861024 1.08543,0.861024l22.2638 0c0.422835,0 0.807874,-0.330709 1.08543,-0.861024 0.277559,-0.529134 0.45,-1.26496 0.45,-2.07165l0 -17.7709c0,-0.806693 -0.172441,-1.54252 -0.45,-2.07165 -0.277559,-0.530315 -0.662598,-0.861024 -1.08543,-0.861024z"
   id="path141" />
  <g
   id="_290888040">
   <path
   id="_291293032"
   class="fil40"
   d="M45.3555 14.3787c7.32165,0 14.6433,0 21.9661,0 0.612992,0 1.17283,0.479528 1.57677,1.25079 0.405118,0.77126 0.656693,1.83425 0.656693,3.00472 0,5.82992 0,11.6598 0,17.4886 0,1.17047 -0.251575,2.23346 -0.656693,3.00472 -0.403937,0.77126 -0.96378,1.25079 -1.57677,1.25079 -7.32283,0 -14.6445,0 -21.9661,0 -0.614173,0 -1.17283,-0.479528 -1.57677,-1.25079 -0.405118,-0.77126 -0.657874,-1.83425 -0.657874,-3.00472 0,-5.82874 0,-11.6587 0,-17.4886 0,-1.17047 0.252756,-2.23346 0.657874,-3.00472 0.403937,-0.77126 0.962598,-1.25079 1.57677,-1.25079zm21.9661 1.3689c-7.32283,0 -14.6445,0 -21.9661,0 -0.416929,0 -0.797244,0.324803 -1.07126,0.84685 -0.272835,0.520866 -0.444094,1.24488 -0.444094,2.03976 0,5.82992 0,11.6598 0,17.4886 0,0.794882 0.17126,1.5189 0.444094,2.03976 0.274016,0.522047 0.654331,0.84685 1.07126,0.84685 7.32165,0 14.6433,0 21.9661,0 0.416929,0 0.797244,-0.324803 1.07126,-0.84685 0.274016,-0.520866 0.444094,-1.24488 0.444094,-2.03976 0,-5.82874 0,-11.6587 0,-17.4886 0,-0.794882 -0.170079,-1.5189 -0.444094,-2.03976 -0.274016,-0.522047 -0.654331,-0.84685 -1.07126,-0.84685z" />
   <path
   id="_291295648"
   class="fil41"
   d="M45.5031 14.5866c7.22244,0 14.4449,0 21.6685,0 0.604724,0 1.1563,0.472441 1.55551,1.23189 0.400394,0.758268 0.648425,1.80472 0.648425,2.95512 0,5.7378 0,11.4744 0,17.211 0,1.14921 -0.248031,2.19567 -0.648425,2.95394 -0.399213,0.759449 -0.950787,1.23189 -1.55551,1.23189 -7.22362,0 -14.4461,0 -21.6685,0 -0.605906,0 -1.1563,-0.472441 -1.55551,-1.23189 -0.400394,-0.758268 -0.648425,-1.80472 -0.648425,-2.95394 0,-5.73661 0,-11.4732 0,-17.211 0,-1.15039 0.248031,-2.19685 0.648425,-2.95512 0.399213,-0.759449 0.949606,-1.23189 1.55551,-1.23189zm21.6685 1.34646c-7.22362,0 -14.4461,0 -21.6685,0 -0.412205,0 -0.786614,0.32126 -1.05709,0.833858 -0.269291,0.512598 -0.438189,1.22598 -0.438189,2.00669 0,5.7378 0,11.4744 0,17.211 0,0.779528 0.168898,1.49291 0.438189,2.00551 0.270472,0.512598 0.644882,0.833858 1.05709,0.833858 7.22244,0 14.4449,0 21.6685,0 0.412205,0 0.786614,-0.32126 1.05709,-0.833858 0.269291,-0.512598 0.438189,-1.22598 0.438189,-2.00551 0,-5.73661 0,-11.4732 0,-17.211 0,-0.780709 -0.168898,-1.49409 -0.438189,-2.00669 -0.270472,-0.512598 -0.644882,-0.833858 -1.05709,-0.833858z" />
   <path
   id="_291286072"
   class="fil42"
   d="M45.6508 14.7957c7.12323,0 14.2465,0 21.3709,0 0.596457,0 1.14094,0.462992 1.53425,1.21063 0.394488,0.746457 0.638976,1.7752 0.638976,2.90787 0,5.64331 0,11.2866 0,16.9299 0,1.1315 -0.244488,2.16024 -0.638976,2.90669 -0.393307,0.747638 -0.937795,1.21063 -1.53425,1.21063 -7.12441,0 -14.2476,0 -21.3709,0 -0.597638,0 -1.14094,-0.462992 -1.53425,-1.21063 -0.394488,-0.746457 -0.640157,-1.7752 -0.640157,-2.90669 0,-5.64331 0,-11.2866 0,-16.9299 0,-1.13268 0.245669,-2.16142 0.640157,-2.90787 0.393307,-0.747638 0.936614,-1.21063 1.53425,-1.21063zm21.3709 1.32402c-7.12441,0 -14.2476,0 -21.3709,0 -0.406299,0 -0.775984,0.315354 -1.04291,0.819685 -0.264567,0.504331 -0.431102,1.20591 -0.431102,1.9748 0,5.64331 0,11.2866 0,16.9299 0,0.767717 0.166535,1.46929 0.431102,1.97362 0.266929,0.504331 0.636614,0.819685 1.04291,0.819685 7.12323,0 14.2465,0 21.3709,0 0.406299,0 0.775984,-0.315354 1.04291,-0.819685 0.265748,-0.504331 0.431102,-1.20591 0.431102,-1.97362 0,-5.64331 0,-11.2866 0,-16.9299 0,-0.768898 -0.165354,-1.47047 -0.431102,-1.9748 -0.266929,-0.504331 -0.636614,-0.819685 -1.04291,-0.819685z" />
   <path
   id="_291300832"
   class="fil43"
   d="M45.7972 15.0035c7.0252,0 14.0492,0 21.0756,0 0.587008,0 1.12441,0.455906 1.51181,1.19055 0.389764,0.733465 0.630709,1.74685 0.630709,2.85945 0,5.55118 0,11.1012 0,16.6512 0,1.11142 -0.240945,2.1248 -0.630709,2.85827 -0.387402,0.734646 -0.924803,1.19055 -1.51181,1.19055 -7.02638,0 -14.0504,0 -21.0756,0 -0.588189,0 -1.12441,-0.455906 -1.51181,-1.19055 -0.389764,-0.733465 -0.630709,-1.74685 -0.630709,-2.85827 0,-5.55 0,-11.1 0,-16.6512 0,-1.1126 0.240945,-2.12598 0.630709,-2.85945 0.387402,-0.734646 0.923622,-1.19055 1.51181,-1.19055zm21.0756 1.30276c-7.02638,0 -14.0504,0 -21.0756,0 -0.399213,0 -0.764173,0.309449 -1.02638,0.806693 -0.262205,0.496063 -0.426378,1.18465 -0.426378,1.94055 0,5.55118 0,11.1012 0,16.6512 0,0.754724 0.164173,1.44331 0.426378,1.93937 0.262205,0.497244 0.627165,0.806693 1.02638,0.806693 7.0252,0 14.0492,0 21.0756,0 0.399213,0 0.764173,-0.309449 1.02638,-0.806693 0.263386,-0.496063 0.426378,-1.18465 0.426378,-1.93937 0,-5.55 0,-11.1 0,-16.6512 0,-0.755906 -0.162992,-1.44449 -0.426378,-1.94055 -0.262205,-0.497244 -0.627165,-0.806693 -1.02638,-0.806693z" />
   <path
   id="_291288496"
   class="fil44"
   d="M45.9449 15.2114c6.92598,0 13.8508,0 20.778,0 0.57874,0 1.10787,0.448819 1.49055,1.17165 0.383858,0.720472 0.62126,1.71614 0.62126,2.81102 0,5.45669 0,10.9134 0,16.3701 0,1.0937 -0.237402,2.08937 -0.62126,2.80984 -0.382677,0.722835 -0.911811,1.17165 -1.49055,1.17165 -6.92717,0 -13.852,0 -20.778,0 -0.579921,0 -1.10787,-0.448819 -1.49055,-1.17165 -0.383858,-0.720472 -0.622441,-1.71614 -0.622441,-2.80984 0,-5.45669 0,-10.9134 0,-16.3701 0,-1.09488 0.238583,-2.09055 0.622441,-2.81102 0.382677,-0.722835 0.91063,-1.17165 1.49055,-1.17165zm20.778 1.28031c-6.92717,0 -13.852,0 -20.778,0 -0.394488,0 -0.753543,0.305906 -1.0122,0.793701 -0.258661,0.487795 -0.420472,1.16575 -0.420472,1.90866 0,5.45669 0,10.9134 0,16.3701 0,0.741732 0.161811,1.41969 0.420472,1.90748 0.258661,0.487795 0.617717,0.793701 1.0122,0.793701 6.92598,0 13.8508,0 20.778,0 0.394488,0 0.753543,-0.305906 1.0122,-0.793701 0.258661,-0.487795 0.420472,-1.16575 0.420472,-1.90748 0,-5.45669 0,-10.9134 0,-16.3701 0,-0.742913 -0.161811,-1.42087 -0.420472,-1.90866 -0.258661,-0.487795 -0.617717,-0.793701 -1.0122,-0.793701z" />
   <path
   id="_291295048"
   class="fil45"
   d="M46.0925 15.4193c6.82677,0 13.6524,0 20.4803,0 0.570472,0 1.09252,0.441732 1.46929,1.15157 0.377953,0.708661 0.612992,1.68661 0.612992,2.7626 0,5.36457 0,10.728 0,16.0913 0,1.0748 -0.235039,2.05276 -0.612992,2.76142 -0.376772,0.709843 -0.898819,1.15157 -1.46929,1.15157 -6.82795,0 -13.6535,0 -20.4803,0 -0.571654,0 -1.09252,-0.441732 -1.46929,-1.15157 -0.377953,-0.708661 -0.612992,-1.68661 -0.612992,-2.76142 0,-5.36339 0,-10.7268 0,-16.0913 0,-1.07598 0.235039,-2.05394 0.612992,-2.7626 0.376772,-0.709843 0.897638,-1.15157 1.46929,-1.15157zm20.4803 1.25906c-6.82795,0 -13.6535,0 -20.4803,0 -0.388583,0 -0.742913,0.3 -0.998031,0.779528 -0.255118,0.479528 -0.414567,1.14567 -0.414567,1.87559 0,5.36457 0,10.728 0,16.0913 0,0.72874 0.159449,1.39488 0.414567,1.87441 0.255118,0.479528 0.609449,0.779528 0.998031,0.779528 6.82677,0 13.6524,0 20.4803,0 0.388583,0 0.742913,-0.3 0.998031,-0.779528 0.255118,-0.479528 0.414567,-1.14567 0.414567,-1.87441 0,-5.36339 0,-10.7268 0,-16.0913 0,-0.729921 -0.159449,-1.39606 -0.414567,-1.87559 -0.255118,-0.479528 -0.609449,-0.779528 -0.998031,-0.779528z" />
   <path
   id="_291299800"
   class="fil46"
   d="M46.2413 15.6283c6.72638,0 13.4551,0 20.1827,0 0.563386,0 1.07717,0.432283 1.44921,1.13031 0.372047,0.69685 0.602362,1.65827 0.602362,2.71535 0,5.27008 0,10.5402 0,15.8102 0,1.05591 -0.230315,2.01732 -0.602362,2.71417 -0.372047,0.698031 -0.885827,1.13031 -1.44921,1.13031 -6.72756,0 -13.4563,0 -20.1827,0 -0.564567,0 -1.07717,-0.432283 -1.44921,-1.13031 -0.372047,-0.69685 -0.603543,-1.65827 -0.603543,-2.71417 0,-5.27008 0,-10.5402 0,-15.8102 0,-1.05709 0.231496,-2.0185 0.603543,-2.71535 0.372047,-0.698031 0.884646,-1.13031 1.44921,-1.13031zm20.1827 1.23661c-6.72756,0 -13.4563,0 -20.1827,0 -0.382677,0 -0.732283,0.294094 -0.983858,0.765354 -0.250394,0.47126 -0.40748,1.12559 -0.40748,1.8437 0,5.27008 0,10.5402 0,15.8102 0,0.71811 0.157087,1.37126 0.40748,1.84252 0.251575,0.47126 0.601181,0.765354 0.983858,0.765354 6.72638,0 13.4551,0 20.1827,0 0.382677,0 0.732283,-0.294094 0.983858,-0.765354 0.251575,-0.47126 0.40748,-1.12441 0.40748,-1.84252 0,-5.27008 0,-10.5402 0,-15.8102 0,-0.71811 -0.155906,-1.37244 -0.40748,-1.8437 -0.251575,-0.47126 -0.601181,-0.765354 -0.983858,-0.765354z" />
   <path
   id="_291292552"
   class="fil47"
   d="M46.389 15.8362c6.62717,0 13.2567,0 19.885,0 0.555118,0 1.06181,0.425197 1.42795,1.11024 0.366142,0.685039 0.594094,1.62874 0.594094,2.66693 0,5.17795 0,10.3547 0,15.5315 0,1.03701 -0.227953,1.98071 -0.594094,2.66575 -0.366142,0.685039 -0.872835,1.11024 -1.42795,1.11024 -6.62835,0 -13.2579,0 -19.885,0 -0.556299,0 -1.06181,-0.425197 -1.42795,-1.11024 -0.366142,-0.685039 -0.594094,-1.62874 -0.594094,-2.66575 0,-5.17677 0,-10.3535 0,-15.5315 0,-1.03819 0.227953,-1.98189 0.594094,-2.66693 0.366142,-0.685039 0.871654,-1.11024 1.42795,-1.11024zm19.885 1.21535c-6.62835,0 -13.2579,0 -19.885,0 -0.376772,0 -0.721654,0.288189 -0.969685,0.751181 -0.24685,0.462992 -0.401575,1.10551 -0.401575,1.81063 0,5.17795 0,10.3547 0,15.5315 0,0.705118 0.154724,1.34646 0.401575,1.80945 0.248031,0.462992 0.592913,0.751181 0.969685,0.751181 6.62717,0 13.2567,0 19.885,0 0.376772,0 0.721654,-0.288189 0.969685,-0.751181 0.248031,-0.462992 0.401575,-1.10433 0.401575,-1.80945 0,-5.17677 0,-10.3535 0,-15.5315 0,-0.705118 -0.153543,-1.34764 -0.401575,-1.81063 -0.248031,-0.462992 -0.592913,-0.751181 -0.969685,-0.751181z" />
   <path
   id="_291297976"
   class="fil48"
   d="M46.5366 16.0441c6.52795,0 13.0583,0 19.5874,0 0.54685,0 1.04528,0.41811 1.40669,1.09134 0.360236,0.672047 0.584646,1.59803 0.584646,2.6185 0,5.08346 0,10.1669 0,15.2504 0,1.02047 -0.224409,1.94528 -0.584646,2.61732 -0.361417,0.673228 -0.859843,1.09134 -1.40669,1.09134 -6.52913,0 -13.0594,0 -19.5874,0 -0.548031,0 -1.04528,-0.41811 -1.40669,-1.09134 -0.360236,-0.672047 -0.585827,-1.59685 -0.585827,-2.61732 0,-5.08346 0,-10.1669 0,-15.2504 0,-1.02047 0.225591,-1.94646 0.585827,-2.6185 0.361417,-0.673228 0.858661,-1.09134 1.40669,-1.09134zm19.5874 1.19291c-6.52913,0 -13.0594,0 -19.5874,0 -0.372047,0 -0.711024,0.284646 -0.955512,0.738189 -0.243307,0.454724 -0.395669,1.08661 -0.395669,1.77874 0,5.08346 0,10.1669 0,15.2504 0,0.692126 0.152362,1.32283 0.395669,1.77756 0.244488,0.453543 0.583465,0.738189 0.955512,0.738189 6.52795,0 13.0583,0 19.5874,0 0.372047,0 0.711024,-0.284646 0.955512,-0.738189 0.243307,-0.454724 0.395669,-1.08543 0.395669,-1.77756 0,-5.08346 0,-10.1669 0,-15.2504 0,-0.692126 -0.152362,-1.32402 -0.395669,-1.77874 -0.244488,-0.453543 -0.583465,-0.738189 -0.955512,-0.738189z" />
   <path
   id="_291294736"
   class="fil49"
   d="M46.6831 16.252c6.42992,0 12.861,0 19.2921,0 0.537402,0 1.02874,0.411024 1.38425,1.07126 0.355512,0.659055 0.576378,1.56969 0.576378,2.57008 0,4.99134 0,9.9815 0,14.9717 0,1.00039 -0.220866,1.90984 -0.576378,2.5689 -0.355512,0.660236 -0.84685,1.07126 -1.38425,1.07126 -6.4311,0 -12.8622,0 -19.2921,0 -0.538583,0 -1.02874,-0.411024 -1.38425,-1.07126 -0.355512,-0.659055 -0.576378,-1.5685 -0.576378,-2.5689 0,-4.99016 0,-9.98031 0,-14.9717 0,-1.00039 0.220866,-1.91102 0.576378,-2.57008 0.355512,-0.660236 0.845669,-1.07126 1.38425,-1.07126zm19.2921 1.17165c-6.4311,0 -12.8622,0 -19.2921,0 -0.364961,0 -0.699213,0.27874 -0.938976,0.725197 -0.240945,0.446457 -0.390945,1.06535 -0.390945,1.74449 0,4.99134 0,9.9815 0,14.9717 0,0.679134 0.15,1.29685 0.390945,1.74331 0.239764,0.446457 0.574016,0.725197 0.938976,0.725197 6.42992,0 12.861,0 19.2921,0 0.364961,0 0.699213,-0.27874 0.938976,-0.725197 0.240945,-0.446457 0.390945,-1.06417 0.390945,-1.74331 0,-4.99016 0,-9.98031 0,-14.9717 0,-0.679134 -0.15,-1.29803 -0.390945,-1.74449 -0.239764,-0.446457 -0.574016,-0.725197 -0.938976,-0.725197z" />
   <path
   id="_291299416"
   class="fil50"
   d="M46.8307 16.461c6.33071,0 12.6626,0 18.9945,0 0.529134,0 1.01339,0.401575 1.36299,1.05 0.349606,0.647244 0.566929,1.54016 0.566929,2.52283 0,4.89685 0,9.7937 0,14.6906 0,0.982677 -0.217323,1.87441 -0.566929,2.52165 -0.349606,0.648425 -0.833858,1.05 -1.36299,1.05 -6.33189,0 -12.6638,0 -18.9945,0 -0.530315,0 -1.01339,-0.401575 -1.36299,-1.05 -0.349606,-0.647244 -0.56811,-1.53898 -0.56811,-2.52165 0,-4.89685 0,-9.7937 0,-14.6906 0,-0.982677 0.218504,-1.87559 0.56811,-2.52283 0.349606,-0.648425 0.832677,-1.05 1.36299,-1.05zm18.9945 1.14921c-6.33189,0 -12.6638,0 -18.9945,0 -0.359055,0 -0.688583,0.272835 -0.924803,0.711024 -0.23622,0.438189 -0.383858,1.04528 -0.383858,1.7126 0,4.89685 0,9.7937 0,14.6906 0,0.667323 0.147638,1.27441 0.383858,1.71142 0.23622,0.438189 0.565748,0.711024 0.924803,0.711024 6.33071,0 12.6626,0 18.9945,0 0.359055,0 0.688583,-0.272835 0.924803,-0.711024 0.237402,-0.437008 0.383858,-1.04409 0.383858,-1.71142 0,-4.89685 0,-9.7937 0,-14.6906 0,-0.667323 -0.146457,-1.27441 -0.383858,-1.7126 -0.23622,-0.438189 -0.565748,-0.711024 -0.924803,-0.711024z" />
   <path
   id="_291288568"
   class="fil51"
   d="M46.9783 16.6689c6.2315,0 12.4642,0 18.6969,0 0.520866,0 0.99685,0.394488 1.34173,1.0311 0.344882,0.634252 0.558661,1.51063 0.558661,2.47323 0,4.80472 0,9.60827 0,14.4118 0,0.962598 -0.21378,1.8378 -0.558661,2.47205 -0.344882,0.636614 -0.820866,1.0311 -1.34173,1.0311 -6.23268,0 -12.4654,0 -18.6969,0 -0.522047,0 -0.99685,-0.394488 -1.34173,-1.0311 -0.344882,-0.634252 -0.558661,-1.50945 -0.558661,-2.47205 0,-4.80354 0,-9.60709 0,-14.4118 0,-0.962598 0.21378,-1.83898 0.558661,-2.47323 0.344882,-0.636614 0.819685,-1.0311 1.34173,-1.0311zm18.6969 1.12677c-6.23268,0 -12.4654,0 -18.6969,0 -0.354331,0 -0.677953,0.269291 -0.91063,0.698031 -0.232677,0.429921 -0.377953,1.02638 -0.377953,1.67953 0,4.80472 0,9.60827 0,14.4118 0,0.65315 0.145276,1.24961 0.377953,1.67835 0.232677,0.42874 0.556299,0.698031 0.91063,0.698031 6.2315,0 12.4642,0 18.6969,0 0.354331,0 0.677953,-0.269291 0.91063,-0.698031 0.232677,-0.42874 0.377953,-1.0252 0.377953,-1.67835 0,-4.80354 0,-9.60709 0,-14.4118 0,-0.65315 -0.145276,-1.24961 -0.377953,-1.67953 -0.232677,-0.42874 -0.556299,-0.698031 -0.91063,-0.698031z" />
  </g>
  <path
   class="fil52"
   d="M47.1248 16.8768l18.3992 0c0.512598,0 0.981496,0.387402 1.32047,1.01102 0.338976,0.622441 0.549213,1.4811 0.549213,2.42598l0 14.1307c0,0.944882 -0.210236,1.80354 -0.549213,2.42598 -0.338976,0.623622 -0.807874,1.01102 -1.32047,1.01102l-18.3992 0c-0.51378,0 -0.981496,-0.387402 -1.32047,-1.01102 -0.338976,-0.622441 -0.550394,-1.4811 -0.550394,-2.42598l0 -14.1307c0,-0.944882 0.211417,-1.80354 0.550394,-2.42598 0.338976,-0.623622 0.806693,-1.01102 1.32047,-1.01102zm18.3992 1.10551l-18.3992 0c-0.348425,0 -0.667323,0.263386 -0.896457,0.683858 -0.229134,0.421654 -0.372047,1.0063 -0.372047,1.64764l0 14.1307c0,0.641339 0.142913,1.22598 0.372047,1.64764 0.229134,0.420472 0.548031,0.683858 0.896457,0.683858l18.3992 0c0.348425,0 0.667323,-0.263386 0.896457,-0.683858 0.229134,-0.421654 0.372047,-1.0063 0.372047,-1.64764l0 -14.1307c0,-0.641339 -0.142913,-1.22598 -0.372047,-1.64764 -0.229134,-0.420472 -0.548031,-0.683858 -0.896457,-0.683858z"
   id="path156" />
  <path
   class="fil53"
   d="M11.0008 60.0059c0.0956693,0.385039 0.25748,0.673228 0.485433,0.870472 0.264567,0.223228 0.618898,0.337795 1.06654,0.337795 0.475984,0 0.83622,-0.101575 1.07598,-0.303543 0.239764,-0.200787 0.361417,-0.434646 0.361417,-0.703937 0,-0.0708661 -0.00944882,-0.137008 -0.0271654,-0.200787l1.5 0 0.0023622 0.196063c0,0.41811 -0.116929,0.812598 -0.349606,1.1752 -0.232677,0.36378 -0.562205,0.637795 -0.98622,0.814961 -0.426378,0.178346 -0.955512,0.266929 -1.59094,0.266929 -0.923622,0 -1.63228,-0.21378 -2.12598,-0.638976 -0.485433,-0.416929 -0.779528,-1.02283 -0.881102,-1.81417l1.46929 0zm10.5083 0l0 2.32323 -1.39961 0 0 -2.32323 1.39961 0zm-3.36142 0l0 2.32323 -1.4563 0 0 -2.32323 1.4563 0zm4.57913 2.32323l0 -2.32323 1.51417 0 0 2.32323 -1.51417 0zm4.4563 -2.32323l0 2.32323 -1.40079 0 0 -2.32323 1.40079 0zm3.07323 0l0 0.279921c0,0.429921 0.0106299,0.687402 0.0283465,0.757087 0.0153543,0.0673228 0.057874,0.131102 0.121654,0.174803 0.0625984,0.0448819 0.147638,0.0720472 0.240945,0.0720472 0.12874,0 0.317717,-0.0484252 0.561024,-0.135827l0.120472 1.08425c-0.327165,0.13937 -0.693307,0.210236 -1.11024,0.210236 -0.248031,0 -0.477165,-0.0413386 -0.676772,-0.126378 -0.20315,-0.0838583 -0.351969,-0.196063 -0.445276,-0.328346 -0.0980315,-0.137008 -0.164173,-0.318898 -0.200787,-0.54685 -0.0248031,-0.158268 -0.0425197,-0.491339 -0.0425197,-0.98622l0 -0.454724 1.40315 0z"
   id="path158" />
  <path
   class="fil54"
   d="M9.46654 58.3866l1.43622 -0.140551c0.0862205,0.483071 0.261024,0.83622 0.525591,1.06417 0.264567,0.223228 0.620079,0.337795 1.06772,0.337795 0.475984,0 0.835039,-0.101575 1.0748,-0.303543 0.240945,-0.199606 0.361417,-0.434646 0.361417,-0.703937 0,-0.174803 -0.0519685,-0.318898 -0.153543,-0.441732 -0.100394,-0.120472 -0.277559,-0.225591 -0.529134,-0.314173 -0.172441,-0.0625984 -0.565748,-0.167717 -1.18228,-0.320079 -0.790157,-0.196063 -1.34528,-0.437008 -1.66181,-0.724016 -0.45,-0.400394 -0.673228,-0.890551 -0.673228,-1.46811 0,-0.372047 0.105118,-0.719291 0.316535,-1.04409 0.210236,-0.322441 0.51378,-0.570472 0.91063,-0.740551 0.398031,-0.167717 0.876378,-0.253937 1.4374,-0.253937 0.917717,0 1.6063,0.199606 2.07165,0.602362 0.462992,0.402756 0.706299,0.938976 0.729921,1.61102l-1.4752 0.0637795c-0.0625984,-0.376772 -0.198425,-0.644882 -0.406299,-0.809055 -0.206693,-0.165354 -0.519685,-0.248031 -0.935433,-0.248031 -0.427559,0 -0.764173,0.0885827 -1.00512,0.265748 -0.157087,0.111024 -0.233858,0.262205 -0.233858,0.451181 0,0.174803 0.0732283,0.32126 0.218504,0.444094 0.185433,0.157087 0.637795,0.32126 1.35472,0.488976 0.719291,0.170079 1.24843,0.343701 1.59331,0.524409 0.34252,0.183071 0.61063,0.42874 0.806693,0.742913 0.193701,0.314173 0.290551,0.703937 0.290551,1.16457 0,0.41811 -0.115748,0.812598 -0.348425,1.17638 -0.232677,0.36378 -0.562205,0.636614 -0.98622,0.81378 -0.426378,0.178346 -0.955512,0.266929 -1.59094,0.266929 -0.923622,0 -1.6311,-0.21378 -2.12717,-0.640157 -0.494882,-0.426378 -0.788976,-1.04764 -0.887008,-1.86614zm8.62441 -4.92756l0 2.68465c0.452362,-0.527953 0.934252,-0.79252 1.56142,-0.79252 0.322441,0 0.612992,0.0625984 0.874016,0.180709 0.258661,0.11811 0.453543,0.271654 0.583465,0.455906 0.131102,0.187795 0.222047,0.394488 0.269291,0.620079 0.0496063,0.224409 0.0732283,0.577559 0.0732283,1.05118l0 3.10394 -1.39961 0 0 -2.79567c0,-0.553937 -0.0283465,-0.907087 -0.080315,-1.05591 -0.0531496,-0.15 -0.147638,-0.266929 -0.281102,-0.354331 -0.135827,-0.0909449 -0.303543,-0.133465 -0.506693,-0.133465 -0.232677,0 -0.43937,0.057874 -0.62126,0.170079 -0.18189,0.111024 -0.261024,0.283465 -0.34252,0.510236 -0.0838583,0.227953 -0.129921,0.565748 -0.129921,1.00748l0 2.65157 -1.45748 0 0 -7.30394 1.45748 0zm4.57795 1.29567l0 -1.29567 1.51535 0 0 1.29567 -1.51535 0zm0 6.00827l0 -5.29134 1.51535 0 0 5.29134 -1.51535 0zm2.27953 -5.29134l0.777165 0 0 -0.398031c0,-0.446457 0.0496063,-0.779528 0.144094,-0.99685 0.092126,-0.217323 0.269291,-0.400394 0.520866,-0.53622 0.253937,-0.138189 0.577559,-0.206693 0.964961,-0.206693 0.398031,0 0.790157,0.0602362 1.17047,0.178346l-0.188976 0.977953c-0.222047,-0.0543307 -0.434646,-0.080315 -0.641339,-0.080315 -0.206693,0 -0.349606,0.0496063 -0.437008,0.142913 -0.0862205,0.092126 -0.132283,0.281102 -0.132283,0.54685l0 0.372047 1.04646 0 0 1.09961 -1.04646 0 0 4.19173 -1.40079 0 0 -4.19173 -0.777165 0 0 -1.09961zm6.20669 0l0 1.11732 -0.956693 0 0 2.13071c0,0.431102 0.011811,0.685039 0.0283465,0.755906 0.0177165,0.069685 0.057874,0.131102 0.122835,0.177165 0.0625984,0.0448819 0.146457,0.0708661 0.238583,0.0708661 0.129921,0 0.318898,-0.0472441 0.562205,-0.135827l0.120472 1.08543c-0.327165,0.13937 -0.693307,0.207874 -1.10906,0.207874 -0.249213,0 -0.477165,-0.0401575 -0.677953,-0.124016 -0.201969,-0.0838583 -0.350787,-0.198425 -0.445276,-0.329528 -0.0968504,-0.135827 -0.161811,-0.318898 -0.200787,-0.54685 -0.023622,-0.161811 -0.0425197,-0.491339 -0.0425197,-0.98622l0 -2.30551 -0.643701 0 0 -1.11732 0.643701 0 0 -1.05236 1.40315 -0.816142 0 1.8685 0.956693 0z"
   id="path160" />
  <g
   id="_291286048">
   <path
   id="_290889024"
   class="fil55"
   d="M14.8571 27.0898l1.24252 2.62323c-0.177165,0.64252 -0.470079,1.12087 -0.881102,1.43268 -0.408661,0.31063 -0.93189,0.466535 -1.56378,0.466535 -0.780709,0 -1.42559,-0.26811 -1.92756,-0.800787 -0.501969,-0.532677 -0.844488,-3.52441 -0.844488,-4.44921 0,-0.980315 0.252756,-1.74213 0.758268,-2.28307 0.504331,-0.540945 1.17047,-0.812598 1.99606,-0.812598 0.719291,0 1.30394,0.214961 1.75276,0.638976 0.26811,0.250394 0.468898,0.611811 0.603543,1.08307l-1.17638 0.282283c-0.0685039,-0.305906 -0.214961,-0.54685 -0.437008,-0.724016 -0.219685,-0.175984 -0.487795,-0.265748 -0.80315,-0.265748 -0.437008,0 -0.79252,0.157087 -1.06299,0.470079 -0.270472,0.311811 -0.40748,0.820866 -0.40748,1.52244 0,0.744094 0.226772,3.53504 0.49252,3.84921 0.266929,0.315354 0.615354,0.474803 1.04291,0.474803 0.317717,0 0.58937,-0.102756 0.816142,-0.302362 0.226772,-0.198425 0.3,-2.77677 0.399213,-3.20551zm4.1185 -2.10118l0 0.9 -0.77126 0 0.0909449 3.97795c0.00826772,0.346063 0.00826772,0.551575 0.0224409,0.608268 0.0141732,0.0566929 0.0484252,0.103937 0.100394,0.141732 0.0519685,0.0366142 0.115748,0.0566929 0.188976,0.0566929 0.106299,0 0.25748,-0.0366142 0.457087,-0.108661l0.0944882 0.875197c-0.262205,0.111024 -0.559843,0.168898 -0.891732,0.168898 -0.20315,0 -0.387402,-0.0354331 -0.549213,-0.102756 -0.162992,-0.0661417 -0.283465,-0.158268 -0.360236,-0.265748 -0.0744094,-0.10748 -0.12874,-0.255118 -0.158268,-0.43937 -0.0212598,-0.12874 -0.0283465,-0.395669 -0.0354331,-0.794882l-0.0909449 -4.11732 -0.518504 0 0 -0.9 0.518504 0 0 -0.848031 1.1315 -0.656693 0 1.50472 0.77126 0zm1.95472 6.52323l-1.12913 0 -0.0897638 -6.52323 1.04646 0 0 0.607087c0.179528,-0.287008 0.340157,-0.475984 0.484252,-0.566929 0.144094,-0.0897638 0.305906,-0.135827 0.486614,-0.135827 0.258661,0 0.505512,0.0708661 0.744094,0.212598l-0.350787 0.982677c-0.187795,-0.121654 -0.364961,-0.183071 -0.527953,-0.183071 -0.159449,0 -0.291732,0.0437008 -0.401575,0.129921 -0.108661,0.0862205 -0.197244,0.245669 -0.259843,0.47126 -0.0614173,0.225591 -0.0023622,2.96693 -0.0023622,3.68858l0 1.31693zm2.11772 0l-0.0897638 -8.14488 1.12795 0 0.0909449 8.14488 -1.12913 0z" />
   <path
   id="_290870160"
   class="fil56"
   d="M14.7661 27.9035l1.15276 0.36378c-0.177165,0.643701 -0.470079,1.12087 -0.882283,1.43268 -0.409843,0.311811 -0.930709,0.467717 -1.5626,0.467717 -0.78189,0 -1.42441,-0.26811 -1.92756,-0.800787 -0.50315,-0.533858 -0.754724,-1.26496 -0.754724,-2.18976 0,-0.980315 0.253937,-1.74094 0.758268,-2.28307 0.506693,-0.540945 1.17047,-0.81378 1.99606,-0.81378 0.719291,0 1.30394,0.21378 1.75276,0.638976 0.269291,0.251575 0.468898,0.612992 0.604724,1.08425l-1.17756 0.281102c-0.0685039,-0.304724 -0.21378,-0.54685 -0.437008,-0.724016 -0.219685,-0.175984 -0.487795,-0.264567 -0.80315,-0.264567 -0.435827,0 -0.790157,0.155906 -1.06299,0.470079 -0.270472,0.312992 -0.406299,0.819685 -0.406299,1.52126 0,0.745276 0.133465,1.27559 0.401575,1.59094 0.266929,0.316535 0.614173,0.473622 1.04291,0.473622 0.316535,0 0.587008,-0.100394 0.816142,-0.301181 0.226772,-0.200787 0.389764,-0.517323 0.488976,-0.947244zm4.1185 -2.1l0 0.898819 -0.77126 0 0 1.7185c0,0.349606 0.00708661,0.551575 0.0224409,0.608268 0.0153543,0.0590551 0.0472441,0.105118 0.100394,0.142913 0.0519685,0.0377953 0.115748,0.0566929 0.190157,0.0566929 0.106299,0 0.256299,-0.0377953 0.455906,-0.108661l0.0944882 0.874016c-0.262205,0.112205 -0.558661,0.168898 -0.890551,0.168898 -0.204331,0 -0.38622,-0.034252 -0.549213,-0.101575 -0.164173,-0.0685039 -0.283465,-0.157087 -0.360236,-0.265748 -0.0767717,-0.10748 -0.12874,-0.253937 -0.159449,-0.43937 -0.0224409,-0.129921 -0.034252,-0.39685 -0.034252,-0.796063l0 -1.85787 -0.519685 0 0 -0.898819 0.519685 0 0 -0.848031 1.13031 -0.656693 0 1.50472 0.77126 0zm2.22874 4.20236l-1.12795 0 0 -4.26378 1.04764 0 0 0.607087c0.178346,-0.288189 0.340157,-0.475984 0.484252,-0.566929 0.142913,-0.0909449 0.304724,-0.137008 0.486614,-0.137008 0.25748,0 0.504331,0.0720472 0.742913,0.21378l-0.349606 0.981496c-0.188976,-0.120472 -0.364961,-0.18189 -0.529134,-0.18189 -0.158268,0 -0.290551,0.0425197 -0.401575,0.129921 -0.108661,0.0862205 -0.196063,0.243307 -0.258661,0.47126 -0.0637795,0.225591 -0.0944882,0.705118 -0.0944882,1.42913l0 1.31693zm1.93701 0l0 -5.88543 1.12795 0 0 5.88543 -1.12795 0z" />
  </g>
  <path
   class="fil57"
   d="M57.5657 29.7047l1.50709 0.475984c-0.231496,0.840945 -0.615354,1.46575 -1.15394,1.87441 -0.53622,0.40748 -1.2189,0.611811 -2.04567,0.611811 -1.02283,0 -1.86378,-0.350787 -2.52283,-1.04764 -0.657874,-0.699213 -0.987402,-1.65591 -0.987402,-2.86654 0,-1.28268 0.21378,-4.76457 0.874016,-5.47205 0.661417,-0.708661 1.53189,-1.06417 2.6126,-1.06417 0.941339,0 1.70669,0.281102 2.2937,0.835039 0.350787,0.329528 0.614173,0.801969 0.791339,1.4185l-1.54134 0.369685c-0.0885827,-0.400394 -0.281102,-0.715748 -0.570472,-0.948425 -0.28937,-0.229134 -0.638976,-0.346063 -1.05236,-0.346063 -0.571654,0 -1.03701,0.204331 -1.39016,0.615354 -0.354331,0.406299 -0.414567,3.55748 -0.414567,4.4752 0,0.975591 0.174803,1.6689 0.525591,2.0811 0.350787,0.414567 0.804331,0.62126 1.36535,0.62126 0.414567,0 0.768898,-0.131102 1.06772,-0.394488 0.297638,-0.263386 0.511417,-0.676772 0.641339,-1.23898z"
   id="path165" />
  <path
   class="fil56"
   d="M57.6815 28.2839l1.50827 0.475984c-0.231496,0.842126 -0.615354,1.46693 -1.15394,1.87559 -0.53622,0.406299 -1.2189,0.611811 -2.04567,0.611811 -1.02283,0 -1.86378,-0.350787 -2.52283,-1.04882 -0.657874,-0.699213 -0.987402,-1.65472 -0.987402,-2.86535 0,-1.28386 0.33189,-2.27835 0.992126,-2.98819 0.662598,-0.708661 1.53189,-1.06417 2.6126,-1.06417 0.94252,0 1.70669,0.27874 2.29488,0.83622 0.351969,0.328346 0.612992,0.800787 0.790157,1.41732l-1.54016 0.369685c-0.0897638,-0.400394 -0.279921,-0.715748 -0.571654,-0.947244 -0.288189,-0.232677 -0.638976,-0.347244 -1.05118,-0.347244 -0.571654,0 -1.03583,0.204331 -1.39134,0.615354 -0.354331,0.408661 -0.532677,1.07362 -0.532677,1.99134 0,0.974409 0.174803,1.6689 0.525591,2.0811 0.349606,0.414567 0.804331,0.620079 1.36535,0.620079 0.414567,0 0.768898,-0.131102 1.06772,-0.393307 0.297638,-0.263386 0.511417,-0.677953 0.640157,-1.24016z"
   id="path167" />
  <path
   class="fil39"
   d="M5.16496 14.5724l30.8315 0c0.859843,0 1.64528,0.484252 2.21339,1.2626 0.56811,0.778346 0.92126,1.85079 0.92126,3.03189l0 17.6587c0,1.17992 -0.35315,2.25354 -0.92126,3.03189 -0.56811,0.778346 -1.35354,1.2626 -2.21339,1.2626l-30.8315 0c-0.861024,0 -1.64409,-0.484252 -2.2122,-1.2626 -0.569291,-0.778346 -0.92126,-1.85197 -0.92126,-3.03189l0 -17.6587c0,-1.1811 0.351969,-2.25354 0.92126,-3.03189 0.56811,-0.778346 1.35118,-1.2626 2.2122,-1.2626zm30.8315 1.38071l-30.8315 0c-0.584646,0 -1.1185,0.329528 -1.50236,0.855118 -0.383858,0.526772 -0.623622,1.25787 -0.623622,2.05866l0 17.6587c0,0.800787 0.239764,1.53189 0.623622,2.05866 0.383858,0.525591 0.917717,0.853937 1.50236,0.853937l30.8315 0c0.584646,0 1.1185,-0.328346 1.50236,-0.853937 0.383858,-0.526772 0.624803,-1.25787 0.624803,-2.05866l0 -17.6587c0,-0.800787 -0.240945,-1.53189 -0.624803,-2.05866 -0.383858,-0.525591 -0.917717,-0.855118 -1.50236,-0.855118z"
   id="path169" />
  <g
   id="_290891280">
   <path
   id="_291295744"
   class="fil40"
   d="M5.37047 14.778c10.1409,0 20.2807,0 30.4181,0 0.849213,0 1.62402,0.477165 2.18386,1.24252 0.561024,0.766535 0.909449,1.82244 0.909449,2.98465 0,5.79331 0,11.5878 0,17.3799 0,1.15984 -0.348425,2.21693 -0.909449,2.98346 -0.559843,0.765354 -1.33465,1.24252 -2.18386,1.24252 -10.1374,0 -20.2772,0 -30.4181,0 -0.849213,0 -1.62283,-0.477165 -2.18268,-1.24252 -0.562205,-0.766535 -0.909449,-1.82362 -0.909449,-2.98346 0,-5.79213 0,-11.5866 0,-17.3799 0,-1.1622 0.347244,-2.21811 0.909449,-2.98465 0.559843,-0.765354 1.33346,-1.24252 2.18268,-1.24252zm30.4181 1.35945c-10.1374,0 -20.2772,0 -30.4181,0 -0.576378,0 -1.10315,0.323622 -1.48228,0.840945 -0.379134,0.518504 -0.615354,1.2378 -0.615354,2.02677 0,5.79331 0,11.5878 0,17.3799 0,0.786614 0.23622,1.50709 0.615354,2.02559 0.379134,0.517323 0.905906,0.839764 1.48228,0.839764 10.1409,0 20.2807,0 30.4181,0 0.577559,0 1.10433,-0.322441 1.48228,-0.839764 0.379134,-0.518504 0.616535,-1.23898 0.616535,-2.02559 0,-5.79213 0,-11.5866 0,-17.3799 0,-0.788976 -0.237402,-1.50827 -0.616535,-2.02677 -0.377953,-0.517323 -0.904724,-0.840945 -1.48228,-0.840945z" />
   <path
   id="_291293248"
   class="fil41"
   d="M5.5748 14.9846c10.0028,0 20.0055,0 30.0071,0 0.83622,0 1.60039,0.468898 2.15315,1.22244 0.553937,0.754724 0.897638,1.79291 0.897638,2.9374 0,5.70118 0,11.4012 0,17.1012 0,1.14213 -0.343701,2.1815 -0.897638,2.93504 -0.552756,0.754724 -1.31693,1.22362 -2.15315,1.22362 -10.0016,0 -20.0043,0 -30.0071,0 -0.838583,0 -1.60039,-0.468898 -2.15315,-1.22362 -0.553937,-0.753543 -0.896457,-1.79291 -0.896457,-2.93504 0,-5.7 0,-11.4 0,-17.1012 0,-1.14449 0.34252,-2.18268 0.896457,-2.9374 0.552756,-0.753543 1.31457,-1.22244 2.15315,-1.22244zm30.0071 1.33701c-10.0016,0 -20.0043,0 -30.0071,0 -0.569291,0 -1.08898,0.320079 -1.4622,0.829134 -0.374409,0.509055 -0.607087,1.21772 -0.607087,1.9937 0,5.70118 0,11.4012 0,17.1012 0,0.774803 0.232677,1.48346 0.607087,1.99252 0.373228,0.509055 0.892913,0.827953 1.4622,0.827953 10.0028,0 20.0055,0 30.0071,0 0.56811,0 1.0878,-0.318898 1.4622,-0.827953 0.373228,-0.509055 0.607087,-1.21772 0.607087,-1.99252 0,-5.7 0,-11.4 0,-17.1012 0,-0.775984 -0.233858,-1.48465 -0.607087,-1.9937 -0.374409,-0.509055 -0.894094,-0.829134 -1.4622,-0.829134z" />
   <path
   id="_291298168"
   class="fil42"
   d="M5.77913 15.1913c9.86575,0 19.7315,0 29.5961,0 0.824409,0 1.57795,0.461811 2.12362,1.20354 0.545669,0.741732 0.884646,1.76339 0.884646,2.88898 0,5.60787 0,11.2157 0,16.8224 0,1.12323 -0.338976,2.14606 -0.884646,2.8878 -0.545669,0.741732 -1.29921,1.20354 -2.12362,1.20354 -9.86457,0 -19.7303,0 -29.5961,0 -0.826772,0 -1.57913,-0.461811 -2.12362,-1.20354 -0.54685,-0.741732 -0.884646,-1.76457 -0.884646,-2.8878 0,-5.60669 0,-11.2146 0,-16.8224 0,-1.12559 0.337795,-2.14724 0.884646,-2.88898 0.544488,-0.741732 1.29685,-1.20354 2.12362,-1.20354zm29.5961 1.31575c-9.86457,0 -19.7303,0 -29.5961,0 -0.561024,0 -1.07362,0.314173 -1.44213,0.814961 -0.368504,0.501969 -0.598819,1.19764 -0.598819,1.96181 0,5.60787 0,11.2157 0,16.8224 0,0.762992 0.230315,1.45866 0.598819,1.96063 0.368504,0.500787 0.881102,0.81378 1.44213,0.81378 9.86575,0 19.7315,0 29.5961,0 0.559843,0 1.07244,-0.312992 1.44094,-0.81378 0.368504,-0.501969 0.6,-1.19764 0.6,-1.96063 0,-5.60669 0,-11.2146 0,-16.8224 0,-0.764173 -0.231496,-1.45984 -0.6,-1.96181 -0.368504,-0.500787 -0.881102,-0.814961 -1.44094,-0.814961z" />
   <path
   id="_291299752"
   class="fil43"
   d="M5.98346 15.3992c9.72874,0 19.4563,0 29.1839,0 0.812598,0 1.55669,0.452362 2.09409,1.18228 0.537402,0.72874 0.871654,1.73386 0.871654,2.84055 0,5.51575 0,11.0315 0,16.5461 0,1.10433 -0.334252,2.10945 -0.871654,2.83937 -0.537402,0.729921 -1.2815,1.18228 -2.09409,1.18228 -9.72756,0 -19.4551,0 -29.1839,0 -0.816142,0 -1.55669,-0.452362 -2.09409,-1.18228 -0.538583,-0.729921 -0.872835,-1.73504 -0.872835,-2.83937 0,-5.51457 0,-11.0303 0,-16.5461 0,-1.10669 0.334252,-2.11181 0.872835,-2.84055 0.537402,-0.729921 1.27795,-1.18228 2.09409,-1.18228zm29.1839 1.29331c-9.72756,0 -19.4551,0 -29.1839,0 -0.553937,0 -1.05945,0.308268 -1.42205,0.800787 -0.36378,0.493701 -0.590551,1.17874 -0.590551,1.92874 0,5.51575 0,11.0315 0,16.5461 0,0.75 0.226772,1.43386 0.590551,1.92756 0.362598,0.49252 0.86811,0.799606 1.42205,0.799606 9.72874,0 19.4563,0 29.1839,0 0.552756,0 1.05709,-0.307087 1.42087,-0.799606 0.36378,-0.493701 0.591732,-1.17756 0.591732,-1.92756 0,-5.51457 0,-11.0303 0,-16.5461 0,-0.75 -0.227953,-1.43504 -0.591732,-1.92874 -0.36378,-0.49252 -0.86811,-0.800787 -1.42087,-0.800787z" />
   <path
   id="_291290224"
   class="fil44"
   d="M6.1878 15.6059c9.59055,0 19.1823,0 28.7728,0 0.800787,0 1.53307,0.445276 2.06339,1.1622 0.530315,0.716929 0.859843,1.70551 0.859843,2.79331 0,5.42362 0,10.8449 0,16.2673 0,1.08661 -0.329528,2.07402 -0.859843,2.79094 -0.530315,0.71811 -1.2626,1.16339 -2.06339,1.16339 -9.59055,0 -19.1823,0 -28.7728,0 -0.804331,0 -1.53543,-0.445276 -2.06457,-1.16339 -0.531496,-0.716929 -0.859843,-1.70433 -0.859843,-2.79094 0,-5.42244 0,-10.8437 0,-16.2673 0,-1.0878 0.328346,-2.07638 0.859843,-2.79331 0.529134,-0.716929 1.26024,-1.1622 2.06457,-1.1622zm28.7728 1.27087c-9.59055,0 -19.1823,0 -28.7728,0 -0.545669,0 -1.04409,0.304724 -1.40197,0.788976 -0.359055,0.484252 -0.582283,1.15748 -0.582283,1.89567 0,5.42362 0,10.8449 0,16.2673 0,0.737008 0.223228,1.41024 0.582283,1.89449 0.357874,0.484252 0.856299,0.787795 1.40197,0.787795 9.59055,0 19.1823,0 28.7728,0 0.543307,0 1.04173,-0.303543 1.40079,-0.787795 0.357874,-0.484252 0.582283,-1.15748 0.582283,-1.89449 0,-5.42244 0,-10.8437 0,-16.2673 0,-0.738189 -0.224409,-1.41142 -0.582283,-1.89567 -0.359055,-0.484252 -0.85748,-0.788976 -1.40079,-0.788976z" />
   <path
   id="_291288832"
   class="fil45"
   d="M6.39331 15.8126c9.45354,0 18.9071,0 28.3606,0 0.788976,0 1.51181,0.438189 2.03386,1.14213 0.523228,0.705118 0.848031,1.67717 0.848031,2.74606 0,5.33031 0,10.6594 0,15.9886 0,1.0689 -0.324803,2.03858 -0.848031,2.7437 -0.522047,0.705118 -1.24488,1.14331 -2.03386,1.14331 -9.45354,0 -18.9071,0 -28.3606,0 -0.79252,0 -1.51299,-0.438189 -2.03504,-1.14331 -0.524409,-0.705118 -0.848031,-1.6748 -0.848031,-2.7437 0,-5.32913 0,-10.6583 0,-15.9886 0,-1.0689 0.323622,-2.04094 0.848031,-2.74606 0.522047,-0.703937 1.24252,-1.14213 2.03504,-1.14213zm28.3606 1.24961c-9.45354,0 -18.9071,0 -28.3606,0 -0.538583,0 -1.02874,0.298819 -1.38189,0.774803 -0.354331,0.475984 -0.574016,1.13858 -0.574016,1.86378 0,5.33031 0,10.6594 0,15.9886 0,0.725197 0.219685,1.38661 0.574016,1.8626 0.35315,0.475984 0.843307,0.773622 1.38189,0.773622 9.45354,0 18.9071,0 28.3606,0 0.537402,0 1.02756,-0.297638 1.38071,-0.773622 0.35315,-0.475984 0.574016,-1.1374 0.574016,-1.8626 0,-5.32913 0,-10.6583 0,-15.9886 0,-0.725197 -0.220866,-1.3878 -0.574016,-1.86378 -0.35315,-0.475984 -0.843307,-0.774803 -1.38071,-0.774803z" />
   <path
   id="_105481800"
   class="fil46"
   d="M6.59409 16.0193c9.31772,0 18.6343,0 27.9496,0 0.779528,0 1.49055,0.429921 2.00551,1.12323 0.514961,0.692126 0.835039,1.64646 0.835039,2.69764 0,5.23701 0,10.474 0,15.7098 0,1.05 -0.320079,2.00433 -0.835039,2.69646 -0.514961,0.693307 -1.22598,1.12323 -2.00551,1.12323 -9.31535,0 -18.6319,0 -27.9496,0 -0.780709,0 -1.49055,-0.429921 -2.00551,-1.12323 -0.514961,-0.692126 -0.835039,-1.64646 -0.835039,-2.69646 0,-5.23583 0,-10.4728 0,-15.7098 0,-1.05118 0.320079,-2.00551 0.835039,-2.69764 0.514961,-0.693307 1.2248,-1.12323 2.00551,-1.12323zm27.9496 1.22835c-9.31535,0 -18.6319,0 -27.9496,0 -0.529134,0 -1.01339,0.292913 -1.36181,0.76063 -0.347244,0.468898 -0.565748,1.1185 -0.565748,1.83189 0,5.23701 0,10.474 0,15.7098 0,0.712205 0.218504,1.36299 0.565748,1.83071 0.348425,0.467717 0.832677,0.759449 1.36181,0.759449 9.31772,0 18.6343,0 27.9496,0 0.530315,0 1.0122,-0.291732 1.36063,-0.759449 0.348425,-0.467717 0.566929,-1.1185 0.566929,-1.83071 0,-5.23583 0,-10.4728 0,-15.7098 0,-0.713386 -0.218504,-1.36299 -0.566929,-1.83189 -0.348425,-0.467717 -0.830315,-0.76063 -1.36063,-0.76063z" />
   <path
   id="_105482352"
   class="fil47"
   d="M6.79961 16.226c9.18071,0 18.3591,0 27.5374,0 0.767717,0 1.46929,0.422835 1.97598,1.10315 0.507874,0.680315 0.823228,1.61811 0.823228,2.65039 0,5.1437 0,10.2886 0,15.4311 0,1.03228 -0.315354,1.9689 -0.823228,2.64921 -0.506693,0.680315 -1.20827,1.10315 -1.97598,1.10315 -9.17835,0 -18.3567,0 -27.5374,0 -0.768898,0 -1.46811,-0.422835 -1.97598,-1.10315 -0.507874,-0.680315 -0.823228,-1.61693 -0.823228,-2.64921 0,-5.14252 0,-10.2874 0,-15.4311 0,-1.03228 0.315354,-1.97008 0.823228,-2.65039 0.507874,-0.680315 1.20709,-1.10315 1.97598,-1.10315zm27.5374 1.20709c-9.17835,0 -18.3567,0 -27.5374,0 -0.522047,0 -0.998031,0.287008 -1.34173,0.746457 -0.34252,0.46063 -0.55748,1.09961 -0.55748,1.8 0,5.1437 0,10.2886 0,15.4311 0,0.700394 0.214961,1.33937 0.55748,1.79882 0.343701,0.459449 0.819685,0.745276 1.34173,0.745276 9.18071,0 18.3591,0 27.5374,0 0.523228,0 0.999213,-0.285827 1.34055,-0.745276 0.343701,-0.459449 0.558661,-1.09843 0.558661,-1.79882 0,-5.14252 0,-10.2874 0,-15.4311 0,-0.700394 -0.214961,-1.33937 -0.558661,-1.8 -0.341339,-0.459449 -0.817323,-0.746457 -1.34055,-0.746457z" />
   <path
   id="_105483480"
   class="fil48"
   d="M7.00394 16.4327c9.04252,0 18.085,0 27.1264,0 0.755906,0 1.44567,0.415748 1.94528,1.08307 0.500787,0.668504 0.811417,1.58976 0.811417,2.60315 0,5.05157 0,10.102 0,15.1524 0,1.01339 -0.31063,1.93346 -0.811417,2.60079 -0.499606,0.668504 -1.18937,1.08425 -1.94528,1.08425 -9.04134,0 -18.0839,0 -27.1264,0 -0.757087,0 -1.44685,-0.415748 -1.94646,-1.08425 -0.500787,-0.667323 -0.810236,-1.5874 -0.810236,-2.60079 0,-5.05039 0,-10.1008 0,-15.1524 0,-1.01339 0.309449,-1.93465 0.810236,-2.60315 0.499606,-0.667323 1.18937,-1.08307 1.94646,-1.08307zm27.1264 1.18465c-9.04134,0 -18.0839,0 -27.1264,0 -0.51378,0 -0.982677,0.283465 -1.32165,0.734646 -0.337795,0.451181 -0.549213,1.07835 -0.549213,1.76693 0,5.05157 0,10.102 0,15.1524 0,0.687402 0.211417,1.31575 0.549213,1.76575 0.338976,0.451181 0.807874,0.733465 1.32165,0.733465 9.04252,0 18.085,0 27.1264,0 0.51378,0 0.983858,-0.282283 1.32047,-0.733465 0.337795,-0.45 0.549213,-1.07835 0.549213,-1.76575 0,-5.05039 0,-10.1008 0,-15.1524 0,-0.688583 -0.211417,-1.31575 -0.549213,-1.76693 -0.336614,-0.451181 -0.806693,-0.734646 -1.32047,-0.734646z" />
   <path
   id="_105484608"
   class="fil49"
   d="M7.20827 16.6406c8.90551,0 17.8098,0 26.7142,0 0.744094,0 1.42559,0.406299 1.91575,1.06181 0.49252,0.655512 0.798425,1.56024 0.798425,2.55472 0,4.95945 0,9.91772 0,14.876 0,0.994488 -0.305906,1.89685 -0.798425,2.55236 -0.490157,0.656693 -1.17165,1.06299 -1.91575,1.06299 -8.90433,0 -17.8087,0 -26.7142,0 -0.746457,0 -1.42441,-0.406299 -1.91693,-1.06299 -0.49252,-0.655512 -0.798425,-1.55787 -0.798425,-2.55236 0,-4.95827 0,-9.91654 0,-14.876 0,-0.994488 0.305906,-1.89921 0.798425,-2.55472 0.49252,-0.655512 1.17047,-1.06181 1.91693,-1.06181zm26.7142 1.1622c-8.90433,0 -17.8087,0 -26.7142,0 -0.506693,0 -0.968504,0.277559 -1.30157,0.720472 -0.333071,0.442913 -0.540945,1.05945 -0.540945,1.73386 0,4.95945 0,9.91772 0,14.876 0,0.674409 0.207874,1.29094 0.540945,1.73386 0.333071,0.441732 0.794882,0.71811 1.30157,0.71811 8.90551,0 17.8098,0 26.7142,0 0.506693,0 0.968504,-0.276378 1.30157,-0.71811 0.33189,-0.442913 0.539764,-1.05945 0.539764,-1.73386 0,-4.95827 0,-9.91654 0,-14.876 0,-0.674409 -0.207874,-1.29094 -0.539764,-1.73386 -0.333071,-0.442913 -0.794882,-0.720472 -1.30157,-0.720472z" />
   <path
   id="_105482256"
   class="fil50"
   d="M7.4126 16.8472c8.7685,0 17.5358,0 26.302,0 0.733465,0 1.40433,0.399213 1.8874,1.04291 0.484252,0.64252 0.785433,1.53071 0.785433,2.5063 0,4.86614 0,9.73228 0,14.5972 0,0.975591 -0.301181,1.8626 -0.785433,2.50512 -0.483071,0.643701 -1.15394,1.04291 -1.8874,1.04291 -8.76614,0 -17.5335,0 -26.302,0 -0.734646,0 -1.40315,-0.399213 -1.8874,-1.04291 -0.485433,-0.64252 -0.786614,-1.52953 -0.786614,-2.50512 0,-4.86496 0,-9.7311 0,-14.5972 0,-0.975591 0.301181,-1.86378 0.786614,-2.5063 0.484252,-0.643701 1.15276,-1.04291 1.8874,-1.04291zm26.302 1.14094c-8.76614,0 -17.5335,0 -26.302,0 -0.498425,0 -0.95315,0.271654 -1.2815,0.706299 -0.327165,0.435827 -0.532677,1.03937 -0.532677,1.70197 0,4.86614 0,9.73228 0,14.5972 0,0.661417 0.205512,1.26614 0.532677,1.70197 0.328346,0.433465 0.783071,0.703937 1.2815,0.703937 8.7685,0 17.5358,0 26.302,0 0.499606,0 0.954331,-0.270472 1.2815,-0.703937 0.328346,-0.435827 0.532677,-1.04055 0.532677,-1.70197 0,-4.86496 0,-9.7311 0,-14.5972 0,-0.662598 -0.204331,-1.26614 -0.532677,-1.70197 -0.327165,-0.434646 -0.78189,-0.706299 -1.2815,-0.706299z" />
   <path
   id="_105485544"
   class="fil51"
   d="M7.61693 17.0539c8.63031,0 17.2606,0 25.8909,0 0.720472,0 1.38071,0.390945 1.85787,1.02283 0.475984,0.630709 0.772441,1.50118 0.772441,2.45906 0,4.77402 0,9.54567 0,14.3185 0,0.957874 -0.296457,1.82717 -0.772441,2.45669 -0.477165,0.633071 -1.1374,1.02402 -1.85787,1.02402 -8.63031,0 -17.2606,0 -25.8909,0 -0.724016,0 -1.38071,-0.390945 -1.85787,-1.02402 -0.477165,-0.629528 -0.773622,-1.49882 -0.773622,-2.45669 0,-4.77283 0,-9.54449 0,-14.3185 0,-0.957874 0.296457,-1.82835 0.773622,-2.45906 0.477165,-0.63189 1.13386,-1.02283 1.85787,-1.02283zm25.8909 1.1185c-8.63031,0 -17.2606,0 -25.8909,0 -0.491339,0 -0.938976,0.26811 -1.26142,0.694488 -0.322441,0.426378 -0.524409,1.01929 -0.524409,1.6689 0,4.77402 0,9.54567 0,14.3185 0,0.649606 0.201969,1.24252 0.524409,1.6689 0.322441,0.425197 0.770079,0.692126 1.26142,0.692126 8.63031,0 17.2606,0 25.8909,0 0.490157,0 0.937795,-0.266929 1.26142,-0.692126 0.322441,-0.426378 0.524409,-1.01929 0.524409,-1.6689 0,-4.77283 0,-9.54449 0,-14.3185 0,-0.649606 -0.201969,-1.24252 -0.524409,-1.6689 -0.323622,-0.426378 -0.77126,-0.694488 -1.26142,-0.694488z" />
  </g>
  <path
   class="fil52"
   d="M7.82008 17.2618l25.4787 0c0.709843,0 1.35945,0.383858 1.82835,1.00276 0.470079,0.618898 0.761811,1.47283 0.761811,2.41181l0 14.0398c0,0.938976 -0.291732,1.79173 -0.761811,2.41063 -0.468898,0.620079 -1.1185,1.00394 -1.82835,1.00394l-25.4787 0c-0.712205,0 -1.35945,-0.383858 -1.82835,-1.00394 -0.470079,-0.618898 -0.761811,-1.47165 -0.761811,-2.41063l0 -14.0398c0,-0.938976 0.291732,-1.79291 0.761811,-2.41181 0.468898,-0.618898 1.11614,-1.00276 1.82835,-1.00276zm25.4787 1.09724l-25.4787 0c-0.483071,0 -0.923622,0.262205 -1.24134,0.680315 -0.317717,0.41811 -0.516142,0.999213 -0.516142,1.63701l0 14.0398c0,0.636614 0.198425,1.2189 0.516142,1.63701 0.317717,0.41811 0.758268,0.679134 1.24134,0.679134l25.4787 0c0.483071,0 0.923622,-0.261024 1.24134,-0.679134 0.317717,-0.41811 0.516142,-1.00039 0.516142,-1.63701l0 -14.0398c0,-0.637795 -0.198425,-1.2189 -0.516142,-1.63701 -0.317717,-0.41811 -0.758268,-0.680315 -1.24134,-0.680315z"
   id="path184" />
  <path
   class="fil56"
   d="M6.22559 14.048l29.7106 -0.0188976 0.00354331 0c1.11496,0.00826772 2.13543,0.470079 2.86772,1.20236 0.732283,0.732283 1.18346,1.74094 1.17874,2.84764l0 0.0023622 -0.00590551 18.8835 0.0023622 0 0 0.034252 -0.0023622 0.00354331c-0.0106299,1.09016 -0.464173,2.09528 -1.18937,2.82402 -0.727559,0.731102 -1.72913,1.18937 -2.82756,1.18937l-0.0330709 0 0 -0.0023622 -29.8902 0.129921 -0.00590551 0c-1.1126,-0.0106299 -2.13307,-0.470079 -2.86772,-1.20472l-0.0011811 -0.0011811c-0.729921,-0.729921 -1.18228,-1.73858 -1.17638,-2.84646l0 -0.0011811 0.186614 -18.9969c0.011811,-1.11732 0.47126,-2.14016 1.20472,-2.87362 0.72874,-0.72874 1.73386,-1.17992 2.84528,-1.17165zm29.7106 0.977953l-29.7106 0.0188976 -0.00354331 0c-0.831496,-0.00590551 -1.5874,0.333071 -2.13543,0.881102 -0.556299,0.556299 -0.905906,1.33228 -0.914173,2.17441l-0.186614 18.9969c-0.00472441,0.830315 0.335433,1.5874 0.884646,2.13543l0.0011811 0.0011811c0.555118,0.556299 1.3252,0.904724 2.16378,0.912992l29.8925 -0.129921 0.0023622 -0.0023622 0.0330709 0c0.824409,0 1.57559,-0.343701 2.12126,-0.891732 0.545669,-0.549213 0.890551,-1.30512 0.898819,-2.12362l-0.0023622 0 0 -0.034252 0.0023622 0 0.00590551 -18.8858 0 -0.0023622c0.00472441,-0.827953 -0.336614,-1.5874 -0.888189,-2.13898 -0.553937,-0.553937 -1.32402,-0.903543 -2.16496,-0.911811z"
   id="path186" />
  <path
   class="fil38"
   d="M10.1894 17.9681l22.6075 -0.0519685 0.00354331 0c0.885827,0.00944882 1.69252,0.412205 2.27126,1.05236 0.56811,0.628346 0.922441,1.49173 0.922441,2.42953l-0.0023622 0.0023622 -0.0933071 11.9764 0.0023622 0 0 0.0153543 -0.0023622 0.00354331c-0.0106299,0.929528 -0.364961,1.79409 -0.927165,2.42244 -0.575197,0.643701 -1.37362,1.04764 -2.25709,1.04173l0 0.0023622 -0.0106299 0 0 -0.0023622 -22.4894 0.0165354 0 0.0023622c-0.874016,0 -1.67008,-0.451181 -2.24882,-1.14094l0.0011811 0c-0.575197,-0.683858 -0.941339,-1.61811 -0.948425,-2.56772l0 -0.00354331 -0.0248031 -11.7154 -0.0023622 0 0 -0.0661417 0.0023622 -0.00354331c0.00944882,-0.922441 0.361417,-1.76929 0.918898,-2.38346 0.569291,-0.628346 1.35945,-1.02165 2.22402,-1.02992l0.00354331 -0.0023622 0.0496063 0 0 0.0023622zm22.6075 0.944882l-22.6075 0.0519685 0 0.0023622 -0.0496063 0 0 -0.0023622c-0.571654,0.00590551 -1.10197,0.275197 -1.48819,0.701575 -0.399213,0.440551 -0.654331,1.05236 -0.661417,1.7185l0.0023622 0 0 0.0661417 -0.0023622 0 0.0248031 11.7118 0 0.00354331c0.00708661,0.713386 0.283465,1.41732 0.714567,1.9311l0.0011811 0c0.394488,0.47126 0.922441,0.779528 1.48346,0.779528l0 0.0023622 22.4894 -0.0165354 0 -0.0023622 0.0106299 0 0.00354331 0.0023622c0.583465,0.00354331 1.11969,-0.270472 1.51181,-0.708661 0.406299,-0.453543 0.66378,-1.08307 0.672047,-1.7622l-0.0023622 0 0 -0.0153543 0.0023622 -0.0023622 0.0933071 -11.9764 -0.0023622 0c0,-0.68622 -0.255118,-1.3122 -0.660236,-1.76102 -0.39685,-0.43937 -0.94252,-0.716929 -1.53543,-0.724016z"
   id="path188" />
  <path
   class="fil56"
   d="M46.1067 13.9264l19.8106 0 0.0129921 0 0 0.0023622c1.10787,0.00354331 2.12008,0.465354 2.85,1.19764 0.732283,0.734646 1.18819,1.74213 1.18819,2.83819l0 0.0129921 -0.0023622 0.0023622 -0.0897638 18.8823c-0.00472441,1.10079 -0.466535,2.11417 -1.2,2.84646l0.0011811 0.0011811c-0.732283,0.732283 -1.74449,1.19409 -2.84764,1.19882l-19.7209 0.0933071 -0.0023622 0.0023622 -0.0129921 0c-1.09843,0 -2.10709,-0.457087 -2.83937,-1.18819 -0.732283,-0.731102 -1.19291,-1.74331 -1.19646,-2.85l-0.0023622 0 0 -0.0129921 0 -18.9756c0,-1.11142 0.457087,-2.12717 1.19055,-2.86063 0.733465,-0.733465 1.74685,-1.19055 2.86063,-1.19055zm19.8106 1.00157l-19.8106 0c-0.838583,0 -1.60276,0.343701 -2.15433,0.895276 -0.551575,0.551575 -0.895276,1.31575 -0.895276,2.15433l0 18.9756 0 0.0129921 -0.0023622 0c0.0023622,0.830315 0.350787,1.59213 0.903543,2.1437 0.550394,0.549213 1.30984,0.892913 2.13543,0.892913l0.0129921 0 0 0.0023622 19.7185 -0.0933071 0.0023622 0c0.824409,-0.0023622 1.58858,-0.35315 2.1437,-0.908268l0.0011811 0c0.555118,-0.553937 0.904724,-1.31811 0.907087,-2.1437l0 -0.0023622 0.0897638 -18.8799 -0.0023622 0 0 -0.0129921c0,-0.823228 -0.34252,-1.58268 -0.892913,-2.13425 -0.551575,-0.552756 -1.31339,-0.902362 -2.1437,-0.904724l0 0.0023622 -0.0129921 0z"
   id="path190" />
  <path
   class="fil58"
   d="M6.11102 42.9106l42.8846 0.0909449c1.11024,0.0011811 2.12598,0.459449 2.85827,1.19173l0.0011811 0.0011811c0.734646,0.734646 1.19173,1.74803 1.19173,2.85591l0 18.9295 0 0.00590551 -0.0023622 0c-0.0011811,1.10669 -0.459449,2.12126 -1.19055,2.85354l0 0.0011811c-0.732283,0.732283 -1.74449,1.19055 -2.85236,1.18937l0 0.0023622 -0.00590551 0 0 -0.0023622 -42.8846 -0.0909449c-1.11142,-0.0023622 -2.12835,-0.459449 -2.86181,-1.19291 -0.732283,-0.732283 -1.19055,-1.74449 -1.19055,-2.85591l0 -18.9307 0 -0.00708661 0.0023622 0c0.0011811,-1.11142 0.458268,-2.1248 1.18819,-2.85472l0.0011811 0c0.731102,-0.732283 1.74449,-1.18819 2.85472,-1.18701l0 -0.0023622 0.00590551 0 0 0.0023622zm42.8846 1.0878l-42.8846 -0.0909449 0 0.0023622 -0.00590551 0 0 -0.0023622c-0.835039,0 -1.59921,0.343701 -2.14961,0.895276l0 0.0011811c-0.550394,0.550394 -0.897638,1.31457 -0.897638,2.14843l0.0023622 0 0 0.00708661 0 18.9307c0,0.83622 0.344882,1.59921 0.895276,2.14961 0.555118,0.555118 1.32165,0.901181 2.15551,0.902362l42.8846 0.0909449 0 -0.0023622 0.00590551 0 0 0.0023622c0.830315,0 1.59331,-0.346063 2.14606,-0.898819l0.0011811 0.0011811c0.551575,-0.552756 0.898819,-1.31811 0.898819,-2.14961l-0.0023622 0 0 -0.00590551 0 -18.9295c0,-0.83622 -0.343701,-1.60039 -0.895276,-2.15079l-0.0011811 -0.0011811c-0.551575,-0.552756 -1.31811,-0.9 -2.15315,-0.9z"
   id="path192" />
  <path
   class="fil59"
   d="M10.037 46.6287l35.8783 -0.0519685c1.48346,0.0153543 2.69646,1.35709 2.69646,2.98346l-0.0933071 12.8965c-0.0106299,1.62165 -1.21772,3.00236 -2.69646,2.98465l-35.7602 0.0165354c-1.45748,0 -2.68346,-1.57087 -2.69764,-3.21142l-0.0248031 -12.6331c-0.0153543,-1.64291 1.21299,-3.00118 2.69764,-2.98465z"
   id="path194" />
  <path
   class="fil38"
   d="M10.037 46.1303l35.8783 -0.0519685 0.00354331 0c0.885827,0.00944882 1.69252,0.412205 2.27126,1.05236 0.56811,0.628346 0.922441,1.49173 0.922441,2.42953l-0.0023622 0.0023622 -0.0933071 12.8941 0.0023622 0 0 0.0153543 -0.0023622 0.00354331c-0.0106299,0.929528 -0.364961,1.79409 -0.927165,2.42244 -0.575197,0.643701 -1.37362,1.04764 -2.25709,1.04173l0 0.0023622 -0.0106299 0 0 -0.0023622 -35.7602 0.0165354 0 0.0023622c-0.874016,0 -1.67008,-0.451181 -2.24882,-1.14094l0.0011811 0c-0.575197,-0.683858 -0.941339,-1.61811 -0.948425,-2.56772l0 -0.00354331 -0.0248031 -12.6331 -0.0023622 0 0 -0.0661417 0.0023622 -0.00354331c0.00944882,-0.922441 0.361417,-1.76929 0.918898,-2.38346 0.569291,-0.628346 1.35945,-1.02165 2.22402,-1.02992l0.00354331 -0.0023622 0.0496063 0 0 0.0023622zm35.8783 0.944882l-35.8783 0.0519685 0 0.0023622 -0.0496063 0 0 -0.0023622c-0.571654,0.00590551 -1.10197,0.275197 -1.48819,0.701575 -0.399213,0.440551 -0.654331,1.05236 -0.661417,1.7185l0.0023622 0 0 0.0661417 -0.0023622 0 0.0248031 12.6295 0 0.00354331c0.00708661,0.713386 0.283465,1.41732 0.714567,1.9311l0.0011811 0c0.394488,0.47126 0.922441,0.779528 1.48346,0.779528l0 0.0023622 35.7602 -0.0165354 0 -0.0023622 0.0106299 0 0.00354331 0.0023622c0.583465,0.00354331 1.11969,-0.270472 1.51181,-0.708661 0.406299,-0.453543 0.66378,-1.08307 0.672047,-1.7622l-0.0023622 0 0 -0.0153543 0.0023622 -0.0023622 0.0933071 -12.8941 -0.0023622 0c0,-0.68622 -0.255118,-1.3122 -0.660236,-1.76102 -0.39685,-0.43937 -0.94252,-0.716929 -1.53543,-0.724016z"
   id="path196" />
  <path
   class="fil38"
   d="M12.6012 57.9768l1.08898 -0.119291c0.0649606,0.408661 0.197244,0.708661 0.399213,0.901181 0.199606,0.190157 0.470079,0.285827 0.810236,0.285827 0.360236,0 0.633071,-0.0838583 0.814961,-0.255118 0.183071,-0.17126 0.274016,-0.369685 0.274016,-0.598819 0,-0.146457 -0.0377953,-0.270472 -0.115748,-0.373228 -0.0755906,-0.102756 -0.210236,-0.19252 -0.402756,-0.266929 -0.129921,-0.0519685 -0.429921,-0.141732 -0.895276,-0.271654 -0.6,-0.165354 -1.02165,-0.369685 -1.2626,-0.612992 -0.340157,-0.340157 -0.511417,-0.754724 -0.511417,-1.24606 0,-0.315354 0.080315,-0.609449 0.240945,-0.884646 0.159449,-0.272835 0.390945,-0.483071 0.690945,-0.627165 0.302362,-0.142913 0.664961,-0.214961 1.09134,-0.214961 0.69685,0 1.2189,0.170079 1.57205,0.510236 0.350787,0.34252 0.535039,0.796063 0.552756,1.36654l-1.1185 0.0531496c-0.0472441,-0.317717 -0.151181,-0.54685 -0.308268,-0.68622 -0.157087,-0.13937 -0.393307,-0.207874 -0.708661,-0.207874 -0.324803,0 -0.581102,0.0720472 -0.764173,0.223228 -0.11811,0.0944882 -0.178346,0.223228 -0.178346,0.383858 0,0.146457 0.0555118,0.271654 0.166535,0.375591 0.140551,0.132283 0.484252,0.270472 1.02874,0.414567 0.544488,0.144094 0.947244,0.291732 1.20827,0.445276 0.261024,0.153543 0.464173,0.36378 0.612992,0.630709 0.146457,0.265748 0.220866,0.594094 0.220866,0.985039 0,0.355512 -0.0885827,0.687402 -0.264567,0.99685 -0.177165,0.309449 -0.426378,0.540945 -0.748819,0.689764 -0.322441,0.151181 -0.725197,0.226772 -1.20709,0.226772 -0.700394,0 -1.23898,-0.180709 -1.61457,-0.542126 -0.375591,-0.361417 -0.6,-0.88937 -0.672047,-1.5815zm6.49961 -4.17874l0 2.27717c0.343701,-0.446457 0.99685,-0.672047 1.47283,-0.672047 0.245669,0 0.465354,0.0531496 0.662598,0.152362 0.194882,0.100394 0.344882,0.231496 0.444094,0.388583 0.0992126,0.157087 0.166535,0.334252 0.20315,0.525591 0.0354331,0.188976 0.0555118,0.488976 0.0555118,0.890551l0 2.63031 -1.06181 0 0 -2.36929c0,-0.47126 -0.0212598,-0.77126 -0.0602362,-0.896457 -0.0401575,-0.126378 -0.113386,-0.225591 -0.214961,-0.3 -0.101575,-0.0744094 -0.473622,-0.112205 -0.627165,-0.112205 -0.177165,0 -0.334252,0.0472441 -0.472441,0.142913 -0.13937,0.0956693 -0.242126,0.239764 -0.304724,0.433465 -0.0649606,0.19252 -0.0968504,0.477165 -0.0968504,0.855118l0 2.24646 -1.06181 0 0 -6.19252 1.06181 0zm3.91654 1.09961l0 -1.09961 1.06181 0 0 1.09961 -1.06181 0zm0 5.09291l0 -4.48465 1.06181 0 0 4.48465 -1.06181 0zm1.43976 -4.48465l0.590551 0 0 -0.338976c0,-0.376772 0.0366142,-0.660236 0.108661,-0.844488 0.0708661,-0.185433 0.20315,-0.338976 0.395669,-0.455906 0.19252,-0.115748 0.437008,-0.173622 0.732283,-0.173622 0.302362,0 0.598819,0.0496063 0.888189,0.151181l-0.142913 0.829134c-0.168898,-0.046063 -0.33189,-0.0673228 -0.487795,-0.0673228 -0.154724,0 -0.265748,0.0401575 -0.33189,0.120472 -0.0649606,0.0791339 -0.0992126,0.237402 -0.0992126,0.461811l0 0.317717 0.793701 0 0 0.933071 -0.793701 0 0 3.55157 -1.06299 0 0 -3.55157 -0.590551 0 0 -0.933071zm5.37283 0l0 0.946063 -0.725197 0 0 1.80827c0,0.361417 0.00708661,0.581102 0.0200787,0.638976 0.0129921,0.0602362 0.0472441,0.112205 0.0944882,0.15 0.0472441,0.0377953 0.109843,0.0590551 0.179528,0.0590551 0.0992126,0 0.240945,-0.0389764 0.42874,-0.113386l0.0897638 0.918898c-0.24685,0.119291 -0.525591,0.177165 -0.839764,0.177165 -0.191339,0 -0.366142,-0.0366142 -0.517323,-0.105118 -0.152362,-0.069685 -0.266929,-0.168898 -0.337795,-0.279921 -0.0708661,-0.113386 -0.121654,-0.271654 -0.15,-0.462992 -0.0188976,-0.135827 -0.034252,-0.416929 -0.034252,-0.83622l0 -1.95472 -0.975591 0 0 -0.946063 0.975591 0 0 -0.892913 1.06654 -0.692126 0 1.58504 0.725197 0z"
   id="path198" />
  <path
   class="fil54"
   d="M12.6012 57.0591l1.08898 -0.119291c0.0649606,0.408661 0.197244,0.708661 0.399213,0.901181 0.199606,0.190157 0.470079,0.285827 0.810236,0.285827 0.360236,0 0.633071,-0.0838583 0.814961,-0.255118 0.183071,-0.17126 0.274016,-0.369685 0.274016,-0.598819 0,-0.146457 -0.0377953,-0.270472 -0.115748,-0.373228 -0.0755906,-0.102756 -0.210236,-0.19252 -0.402756,-0.266929 -0.129921,-0.0519685 -0.429921,-0.141732 -0.895276,-0.271654 -0.6,-0.165354 -1.02165,-0.369685 -1.2626,-0.612992 -0.340157,-0.340157 -0.511417,-0.754724 -0.511417,-1.24606 0,-0.315354 0.080315,-0.609449 0.240945,-0.884646 0.159449,-0.272835 0.390945,-0.483071 0.690945,-0.627165 0.302362,-0.142913 0.664961,-0.214961 1.09134,-0.214961 0.69685,0 1.2189,0.170079 1.57205,0.510236 0.350787,0.34252 0.535039,0.796063 0.552756,1.36654l-1.1185 0.0531496c-0.0472441,-0.317717 -0.151181,-0.54685 -0.308268,-0.68622 -0.157087,-0.13937 -0.393307,-0.207874 -0.708661,-0.207874 -0.324803,0 -0.581102,0.0720472 -0.764173,0.223228 -0.11811,0.0944882 -0.178346,0.223228 -0.178346,0.383858 0,0.146457 0.0555118,0.271654 0.166535,0.375591 0.140551,0.132283 0.484252,0.270472 1.02874,0.414567 0.544488,0.144094 0.947244,0.291732 1.20827,0.445276 0.261024,0.153543 0.464173,0.36378 0.612992,0.630709 0.146457,0.265748 0.220866,0.594094 0.220866,0.985039 0,0.355512 -0.0885827,0.687402 -0.264567,0.99685 -0.177165,0.309449 -0.426378,0.540945 -0.748819,0.689764 -0.322441,0.151181 -0.725197,0.226772 -1.20709,0.226772 -0.700394,0 -1.23898,-0.180709 -1.61457,-0.542126 -0.375591,-0.361417 -0.6,-0.88937 -0.672047,-1.5815zm6.49961 -4.17874l0 2.27717c0.343701,-0.446457 0.99685,-0.672047 1.47283,-0.672047 0.245669,0 0.465354,0.0531496 0.662598,0.152362 0.194882,0.100394 0.344882,0.231496 0.444094,0.388583 0.0992126,0.157087 0.166535,0.334252 0.20315,0.525591 0.0354331,0.188976 0.0555118,0.488976 0.0555118,0.890551l0 2.63031 -1.06181 0 0 -2.36929c0,-0.47126 -0.0212598,-0.77126 -0.0602362,-0.896457 -0.0401575,-0.126378 -0.113386,-0.225591 -0.214961,-0.3 -0.101575,-0.0744094 -0.473622,-0.112205 -0.627165,-0.112205 -0.177165,0 -0.334252,0.0472441 -0.472441,0.142913 -0.13937,0.0956693 -0.242126,0.239764 -0.304724,0.433465 -0.0649606,0.19252 -0.0968504,0.477165 -0.0968504,0.855118l0 2.24646 -1.06181 0 0 -6.19252 1.06181 0zm3.91654 1.09961l0 -1.09961 1.06181 0 0 1.09961 -1.06181 0zm0 5.09291l0 -4.48465 1.06181 0 0 4.48465 -1.06181 0zm1.43976 -4.48465l0.590551 0 0 -0.338976c0,-0.376772 0.0366142,-0.660236 0.108661,-0.844488 0.0708661,-0.185433 0.20315,-0.338976 0.395669,-0.455906 0.19252,-0.115748 0.437008,-0.173622 0.732283,-0.173622 0.302362,0 0.598819,0.0496063 0.888189,0.151181l-0.142913 0.829134c-0.168898,-0.046063 -0.33189,-0.0673228 -0.487795,-0.0673228 -0.154724,0 -0.265748,0.0401575 -0.33189,0.120472 -0.0649606,0.0791339 -0.0992126,0.237402 -0.0992126,0.461811l0 0.317717 0.793701 0 0 0.933071 -0.793701 0 0 3.55157 -1.06299 0 0 -3.55157 -0.590551 0 0 -0.933071zm5.37283 0l0 0.946063 -0.725197 0 0 1.80827c0,0.361417 0.00708661,0.581102 0.0200787,0.638976 0.0129921,0.0602362 0.0472441,0.112205 0.0944882,0.15 0.0472441,0.0377953 0.109843,0.0590551 0.179528,0.0590551 0.0992126,0 0.240945,-0.0389764 0.42874,-0.113386l0.0897638 0.918898c-0.24685,0.119291 -0.525591,0.177165 -0.839764,0.177165 -0.191339,0 -0.366142,-0.0366142 -0.517323,-0.105118 -0.152362,-0.069685 -0.266929,-0.168898 -0.337795,-0.279921 -0.0708661,-0.113386 -0.121654,-0.271654 -0.15,-0.462992 -0.0188976,-0.135827 -0.034252,-0.416929 -0.034252,-0.83622l0 -1.95472 -0.975591 0 0 -0.946063 0.975591 0 0 -0.892913 1.06654 -0.692126 0 1.58504 0.725197 0z"
   id="path200" />
 </g>
</svg>