<?xml version="1.0" encoding="UTF-8"?>
<!DOCTYPE svg PUBLIC "-//W3C//DTD SVG 1.1//EN" "http://www.w3.org/Graphics/SVG/1.1/DTD/svg11.dtd">
<!-- Creator: CorelDRAW -->
<svg xmlns="http://www.w3.org/2000/svg" xml:space="preserve" width="72px" height="72px" style="shape-rendering:geometricPrecision; text-rendering:geometricPrecision; image-rendering:optimizeQuality; fill-rule:evenodd; clip-rule:evenodd"
viewBox="0 0 72 72"
 xmlns:xlink="http://www.w3.org/1999/xlink">
 <defs>
  <style type="text/css">
   <![CDATA[
    .fil33 {fill:none}
    .fil74 {fill:#73AEE4}
    .fil76 {fill:#82BDF0}
    .fil26 {fill:#BFBFBF}
    .fil28 {fill:#C9C9C9}
    .fil27 {fill:#CFCFCF}
    .fil36 {fill:white;fill-rule:nonzero}
    .fil44 {fill:#4F7FB3;fill-rule:nonzero}
    .fil62 {fill:#666666;fill-rule:nonzero}
    .fil40 {fill:#8AC9FC;fill-rule:nonzero}
    .fil73 {fill:#BFBFBF;fill-rule:nonzero}
    .fil32 {fill:#CCCCCC;fill-rule:nonzero}
    .fil31 {fill:white;fill-rule:nonzero}
    .fil29 {fill:#BFBFBF;fill-rule:nonzero}
    .fil75 {fill:#C9C9C9;fill-rule:nonzero}
    .fil72 {fill:#CFCFCF;fill-rule:nonzero}
    .fil10 {fill:black;fill-opacity:0.000000}
    .fil0 {fill:#333333;fill-opacity:0.000000}
    .fil54 {fill:#7F7F7F;fill-opacity:0.000000}
    .fil11 {fill:black;fill-opacity:0.003922}
    .fil12 {fill:black;fill-opacity:0.007843}
    .fil1 {fill:#333333;fill-opacity:0.011765}
    .fil13 {fill:black;fill-opacity:0.015686}
    .fil14 {fill:black;fill-opacity:0.019608}
    .fil15 {fill:black;fill-opacity:0.023529}
    .fil2 {fill:#333333;fill-opacity:0.027451}
    .fil16 {fill:black;fill-opacity:0.027451}
    .fil17 {fill:black;fill-opacity:0.031373}
    .fil47 {fill:black;fill-opacity:0.035294}
    .fil18 {fill:black;fill-opacity:0.035294}
    .fil3 {fill:#333333;fill-opacity:0.039216}
    .fil19 {fill:black;fill-opacity:0.043137}
    .fil20 {fill:black;fill-opacity:0.047059}
    .fil21 {fill:black;fill-opacity:0.050980}
    .fil4 {fill:#333333;fill-opacity:0.054902}
    .fil22 {fill:black;fill-opacity:0.054902}
    .fil23 {fill:black;fill-opacity:0.058824}
    .fil5 {fill:#333333;fill-opacity:0.066667}
    .fil48 {fill:black;fill-opacity:0.074510}
    .fil6 {fill:#333333;fill-opacity:0.078431}
    .fil7 {fill:#333333;fill-opacity:0.094118}
    .fil55 {fill:#7F7F7F;fill-opacity:0.101961}
    .fil8 {fill:#333333;fill-opacity:0.105882}
    .fil49 {fill:black;fill-opacity:0.109804}
    .fil9 {fill:#333333;fill-opacity:0.121569}
    .fil50 {fill:black;fill-opacity:0.145098}
    .fil46 {fill:black;fill-opacity:0.180392}
    .fil51 {fill:black;fill-opacity:0.184314}
    .fil56 {fill:#7F7F7F;fill-opacity:0.200000}
    .fil52 {fill:black;fill-opacity:0.219608}
    .fil43 {fill:#191919;fill-rule:nonzero;fill-opacity:0.219608}
    .fil70 {fill:#ABD9FF;fill-rule:nonzero;fill-opacity:0.219608}
    .fil57 {fill:#7F7F7F;fill-opacity:0.301961}
    .fil63 {fill:black;fill-opacity:0.321569}
    .fil58 {fill:#7F7F7F;fill-opacity:0.400000}
    .fil37 {fill:#A4A5A7;fill-opacity:0.439216}
    .fil59 {fill:#7F7F7F;fill-opacity:0.501961}
    .fil79 {fill:white;fill-opacity:0.501961}
    .fil61 {fill:white;fill-rule:nonzero;fill-opacity:0.501961}
    .fil77 {fill:#538CBA;fill-opacity:0.780392}
    .fil78 {fill:#91CAFA;fill-opacity:0.780392}
    .fil24 {fill:url(#id0)}
    .fil41 {fill:url(#id1)}
    .fil42 {fill:url(#id2)}
    .fil64 {fill:url(#id3)}
    .fil39 {fill:url(#id4)}
    .fil38 {fill:url(#id5)}
    .fil25 {fill:url(#id6)}
    .fil66 {fill:url(#id7)}
    .fil71 {fill:url(#id8)}
    .fil53 {fill:url(#id9)}
    .fil60 {fill:url(#id10)}
    .fil45 {fill:url(#id11);fill-rule:nonzero}
    .fil30 {fill:url(#id12);fill-rule:nonzero}
    .fil65 {fill:url(#id13);fill-rule:nonzero}
    .fil34 {fill:url(#id14);fill-rule:nonzero}
    .fil35 {fill:url(#id15);fill-rule:nonzero}
    .fil67 {fill:url(#id16);fill-rule:nonzero}
    .fil69 {fill:url(#id17);fill-rule:nonzero}
    .fil68 {fill:url(#id18);fill-rule:nonzero}
   ]]>
  </style>
  <linearGradient id="id0" gradientUnits="userSpaceOnUse" x1="34.3075" y1="3.30945" x2="32.7567" y2="69.3177">
   <stop offset="0" style="stop-color:#EDEDED"/>
   <stop offset="1" style="stop-color:#D1CFCF"/>
  </linearGradient>
  <linearGradient id="id1" gradientUnits="userSpaceOnUse" x1="65.0409" y1="4.25433" x2="65.0409" y2="8.21693">
   <stop offset="0" style="stop-color:#6FAFE4"/>
   <stop offset="1" style="stop-color:#528BC7"/>
  </linearGradient>
  <linearGradient id="id2" gradientUnits="userSpaceOnUse" xlink:href="#id1" x1="2.34803" y1="4.31102" x2="2.34803" y2="8.27362">
  </linearGradient>
  <linearGradient id="id3" gradientUnits="userSpaceOnUse" x1="30.0283" y1="19.0642" x2="45.078" y2="75.3862">
   <stop offset="0" style="stop-color:#DE953C"/>
   <stop offset="1" style="stop-color:#D38D24"/>
  </linearGradient>
  <linearGradient id="id4" gradientUnits="userSpaceOnUse" x1="33.8776" y1="6.29409" x2="33.8776" y2="17.2736">
   <stop offset="0" style="stop-color:#7BBDF2"/>
   <stop offset="1" style="stop-color:#5C96D2"/>
  </linearGradient>
  <linearGradient id="id5" gradientUnits="userSpaceOnUse" xlink:href="#id1" x1="3.8563" y1="4.93346" x2="3.8563" y2="11.1283">
  </linearGradient>
  <linearGradient id="id6" gradientUnits="userSpaceOnUse" x1="33.1122" y1="18.3602" x2="33.9366" y2="62.811">
   <stop offset="0" style="stop-color:white"/>
   <stop offset="1" style="stop-color:#E6E6E6"/>
  </linearGradient>
  <linearGradient id="id7" gradientUnits="userSpaceOnUse" x1="36.3579" y1="29.1661" x2="49.7256" y2="72.685">
   <stop offset="0" style="stop-color:#FABD52"/>
   <stop offset="1" style="stop-color:#DBA03B"/>
  </linearGradient>
  <linearGradient id="id8" gradientUnits="userSpaceOnUse" x1="33.45" y1="16.2933" x2="33.6154" y2="5.76496">
   <stop offset="0" style="stop-color:#4E87B4"/>
   <stop offset="1" style="stop-color:#66A1D1"/>
  </linearGradient>
  <linearGradient id="id9" gradientUnits="userSpaceOnUse" x1="36.8268" y1="38.9764" x2="65.0386" y2="29.4024">
   <stop offset="0" style="stop-color:#4C4C4C"/>
   <stop offset="0.4" style="stop-color:#999999"/>
   <stop offset="0.529412" style="stop-color:#333333"/>
   <stop offset="0.721569" style="stop-color:#4C4C4C"/>
   <stop offset="0.780392" style="stop-color:#666666"/>
   <stop offset="1" style="stop-color:#919191"/>
  </linearGradient>
  <linearGradient id="id10" gradientUnits="userSpaceOnUse" x1="38.8642" y1="38.9634" x2="65.9067" y2="29.3185">
   <stop offset="0" style="stop-color:#E5E5E5"/>
   <stop offset="0.180392" style="stop-color:white"/>
   <stop offset="0.231373" style="stop-color:white"/>
   <stop offset="0.4" style="stop-color:white"/>
   <stop offset="0.529412" style="stop-color:#999999"/>
   <stop offset="0.619608" style="stop-color:#B2B2B2"/>
   <stop offset="0.721569" style="stop-color:#CCCCCC"/>
   <stop offset="0.780392" style="stop-color:#E5E5E5"/>
   <stop offset="0.890196" style="stop-color:white"/>
   <stop offset="1" style="stop-color:white"/>
  </linearGradient>
  <linearGradient id="id11" gradientUnits="userSpaceOnUse" x1="33.5327" y1="69.0626" x2="33.5327" y2="18.0295">
   <stop offset="0" style="stop-color:#919191"/>
   <stop offset="1" style="stop-color:#B2B2B2"/>
  </linearGradient>
  <linearGradient id="id12" gradientUnits="userSpaceOnUse" xlink:href="#id11" x1="33.5256" y1="66.7984" x2="33.5256" y2="14.1945">
  </linearGradient>
  <linearGradient id="id13" gradientUnits="userSpaceOnUse" x1="45.0531" y1="71.139" x2="28.6122" y2="22.3689">
   <stop offset="0" style="stop-color:#9D6222"/>
   <stop offset="1" style="stop-color:#C48123"/>
  </linearGradient>
  <linearGradient id="id14" gradientUnits="userSpaceOnUse" x1="14.4661" y1="13.1126" x2="14.4071" y2="9.73346">
   <stop offset="0" style="stop-color:#7F7F7F"/>
   <stop offset="1" style="stop-color:#999999"/>
  </linearGradient>
  <linearGradient id="id15" gradientUnits="userSpaceOnUse" xlink:href="#id14" x1="14.8417" y1="13.0181" x2="14.7827" y2="9.63898">
  </linearGradient>
  <linearGradient id="id16" gradientUnits="userSpaceOnUse" x1="13.6276" y1="6.83031" x2="53.9575" y2="6.45118">
   <stop offset="0" style="stop-color:#BCE6FF"/>
   <stop offset="1" style="stop-color:#BBE6FF"/>
  </linearGradient>
  <linearGradient id="id17" gradientUnits="userSpaceOnUse" x1="2.96929" y1="7.03937" x2="1.40315" y2="8.85">
   <stop offset="0" style="stop-color:#BCE6FF"/>
   <stop offset="1" style="stop-color:#6FAFE4"/>
  </linearGradient>
  <linearGradient id="id18" gradientUnits="userSpaceOnUse" x1="66.0012" y1="8.81811" x2="64.5933" y2="7.26969">
   <stop offset="0" style="stop-color:#6FAFE4"/>
   <stop offset="1" style="stop-color:#BCE6FF"/>
  </linearGradient>
 </defs>
 <g id="Слой_x0020_1">
  <metadata id="CorelCorpID_0Corel-Layer"/>
  <g id="_397457800">
   <path id="_397460872" class="fil0" d="M51.1724 68.0882c-21.4606,0.0448819 -13.5425,3.4311 -13.5425,4.35709 0,0.205512 -0.0874016,0.448819 -0.0602362,0.701575l30.5516 0c0.0224409,-0.057874 0.0366142,-0.119291 0.0366142,-0.174803 0,-0.925984 4.47638,-4.92402 -16.9854,-4.88386z"/>
   <g>
    <path id="_397468936" class="fil1" d="M50.4059 68.328c-19.2425,0.0377953 -12.3602,3.12283 -12.3602,3.9874 0,0.243307 -0.114567,0.533858 0.0413386,0.831496l27.5528 0c0.12874,-0.122835 0.183071,-0.243307 0.183071,-0.362598 0,-0.865748 3.82677,-4.49055 -15.4169,-4.4563z"/>
    <path id="_397450912" class="fil2" d="M49.6417 68.5713c-17.0244,0.034252 -11.1768,2.81457 -11.1768,3.61772 0,0.274016 -0.145276,0.622441 0.283465,0.957874l24.2055 0c0.389764,-0.180709 0.533858,-0.369685 0.533858,-0.54685 0,-0.807874 3.17717,-4.05945 -13.8461,-4.02874z"/>
    <path id="_397476928" class="fil3" d="M48.8728 68.8134c-14.8039,0.0283465 -9.99331,2.50039 -9.99331,3.24921 0,0.308268 -0.161811,0.732283 0.851575,1.08425l20.113 0c0.975591,-0.232677 1.30512,-0.49252 1.30512,-0.735827 0,-0.745276 2.52992,-3.6248 -12.2764,-3.59764z"/>
    <path id="_397461664" class="fil4" d="M48.1075 69.0567c-12.587,0.023622 -8.80984,2.19213 -8.80984,2.87953 0,0.359055 -0.146457,0.896457 2.33858,1.21063l13.9228 0c2.49094,-0.23622 3.2563,-0.598819 3.2563,-0.920079 0,-0.687402 1.87913,-3.19016 -10.7079,-3.17008z"/>
    <path id="_397456048" class="fil5" d="M47.3421 69.3c-10.3677,0.0200787 -7.62874,1.88031 -7.62874,2.5063 0,0.447638 0.0177165,1.20354 7.3878,1.20354 7.37008,0 9.37677,-0.523228 9.37677,-0.967323 0,-0.625984 1.23189,-2.76378 -9.13583,-2.74252z"/>
    <path id="_397476160" class="fil6" d="M46.5768 69.5421c-8.15079,0.0141732 -6.44409,1.57323 -6.44409,2.1378 0,0.351969 0.372047,0.929528 6.25866,0.927165 5.8878,0 7.75276,-0.400394 7.75276,-0.75 0,-0.566929 0.582283,-2.3315 -7.56732,-2.31496z"/>
    <path id="_397471768" class="fil7" d="M45.8079 69.7854c-5.93031,0.00944882 -5.26299,1.25787 -5.26299,1.76811 0,0.256299 0.729921,0.649606 5.13425,0.646063 4.40433,0 6.12638,-0.277559 6.12638,-0.530315 0,-0.505512 -0.0661417,-1.89449 -5.99764,-1.88386z"/>
    <path id="_397448296" class="fil8" d="M45.0425 70.0276c-3.71339,0.00354331 -4.07953,0.950787 -4.07953,1.39961 0,0.16063 1.08307,0.372047 4.0063,0.368504 2.92087,0 4.50118,-0.153543 4.50118,-0.31063 0,-0.448819 -0.714567,-1.46457 -4.42795,-1.45748z"/>
   </g>
   <path id="_397448536" class="fil9" d="M44.2772 70.2709c-1.49409,0 -2.89606,0.64252 -2.89606,1.03228 0,0.126378 5.75551,0.116929 5.75551,0 0,-0.389764 -1.36535,-1.03228 -2.85945,-1.03228z"/>
  </g>
  <g id="_397447096">
   <path id="_397451056" class="fil10" d="M31.4445 59.6681c33.3839,-1.41378 37.8874,4.04173 38.0327,8.46969 0.145276,4.42795 -17.3185,1.90984 -36.7831,2.67402 -19.4634,0.764173 -35.876,1.40787 -35.876,-1.87441 0,-3.28228 1.24252,-7.85433 34.6264,-9.26929z"/>
   <g>
    <path id="_397473568" class="fil11" d="M31.5224 60.2126c31.9665,-1.30394 37.4929,3.85866 37.6276,8.02559 0.133465,4.09961 -17.2217,1.7811 -36.424,2.4874 -19.2024,0.705118 -35.5878,1.29331 -35.5878,-1.74921 0,-3.10866 2.41654,-7.45748 34.3843,-8.76378z"/>
    <path id="_397466632" class="fil12" d="M31.598 60.7571c30.5516,-1.19646 37.102,3.67441 37.2248,7.57913 0.122835,3.77244 -17.1272,1.65472 -36.0673,2.30079 -18.9402,0.647244 -35.3008,1.17874 -35.3008,-1.62283 0,-2.93504 3.59055,-7.05945 34.1433,-8.25709z"/>
    <path id="_397478752" class="fil13" d="M31.6736 61.3016c29.1354,-1.08661 36.7087,3.49134 36.8209,7.13504 0.111024,3.44409 -17.0291,1.52598 -35.7083,2.11417 -18.6803,0.588189 -35.0126,1.06417 -35.0126,-1.49646 0,-2.7626 4.76339,-6.66378 33.9,-7.75276z"/>
    <path id="_397451632" class="fil14" d="M31.7492 61.8461c27.7205,-0.979134 36.3165,3.30709 36.4181,6.68858 0.100394,3.11811 -16.9346,1.39961 -35.3528,1.92756 -18.4181,0.529134 -34.7244,0.949606 -34.7244,-1.37008 0,-2.58898 5.93622,-6.26693 33.6591,-7.24606z"/>
    <path id="_397451272" class="fil15" d="M31.8236 62.3917c26.3055,-0.869291 35.9256,3.12402 36.0142,6.24449 0.0897638,2.78976 -16.8366,1.27087 -34.9925,1.74094 -18.1583,0.470079 -34.4374,0.835039 -34.4374,-1.24488 0,-2.41535 7.11024,-5.8689 33.4157,-6.74055z"/>
    <path id="_397470712" class="fil16" d="M31.9004 62.9386c24.8882,-0.761811 35.5323,2.93976 35.6102,5.79921 0.0791339,2.46142 -16.7409,1.14213 -34.637,1.55433 -17.8949,0.411024 -34.148,0.720472 -34.148,-1.11969 0,-2.24173 8.28307,-5.47205 33.1748,-6.23386z"/>
    <path id="_397455976" class="fil17" d="M31.9748 63.4807c23.4744,-0.651969 35.1413,2.75551 35.2075,5.35394 0.0673228,2.13425 -16.6441,1.01575 -34.278,1.36772 -17.635,0.35315 -33.861,0.605906 -33.861,-0.992126 0,-2.07047 9.45591,-5.07638 32.9315,-5.72953z"/>
    <path id="_397457824" class="fil18" d="M32.0504 64.0276c22.0583,-0.544488 34.7492,2.57126 34.8047,4.90866 0.0555118,1.80591 -16.5484,0.887008 -33.9224,1.1811 -17.3717,0.294094 -33.5717,0.491339 -33.5717,-0.866929 0,-1.89685 10.6287,-4.67953 32.6894,-5.22283z"/>
    <path id="_397478008" class="fil19" d="M32.126 64.5732c20.6421,-0.434646 34.3559,2.38819 34.4008,4.46457 0.0448819,1.47756 -16.4516,0.758268 -33.5634,0.994488 -17.1118,0.235039 -33.2858,0.376772 -33.2858,-0.741732 0,-1.72323 11.8039,-4.2815 32.4484,-4.71732z"/>
    <path id="_397476064" class="fil20" d="M32.2016 65.1177c19.2272,-0.327165 33.965,2.20394 33.998,4.01811 0.0330709,1.15157 -16.3571,0.63189 -33.2079,0.807874 -16.8484,0.175984 -32.9965,0.262205 -32.9965,-0.615354 0,-1.54961 12.9768,-3.88465 32.2063,-4.21063z"/>
    <path id="_397476592" class="fil21" d="M32.276 65.6622c17.8122,-0.217323 33.5728,2.02087 33.5953,3.57402 0.0224409,0.823228 -16.2602,0.50315 -32.85,0.62126 -16.5874,0.116929 -32.7083,0.147638 -32.7083,-0.488976 0,-1.37717 14.1496,-3.48898 31.963,-3.7063z"/>
    <path id="_397453672" class="fil22" d="M32.3528 66.2067c16.3961,-0.109843 33.1795,1.83661 33.1913,3.12756 0.0106299,0.496063 -16.1646,0.376772 -32.4933,0.434646 -16.3252,0.0590551 -32.4201,0.0330709 -32.4201,-0.362598 0,-1.20354 15.3224,-3.09094 31.722,-3.19961z"/>
   </g>
   <path id="_397466992" class="fil23" d="M32.4248 66.7535c14.9823,0 32.7898,1.65354 32.7898,2.68346 0,0.336614 -64.2685,0.322441 -64.2685,0.0106299 0,-1.02992 16.4953,-2.69409 31.4787,-2.69409z"/>
  </g>
  <path class="fil24" d="M3.99331 4.07244l59.0787 0.283465c1.86496,0.00590551 3.39921,1.54252 3.39331,3.39449l0.00354331 57.4181c-0.00590551,1.85551 -1.52953,3.39449 -3.39331,3.39449 -22.3535,0 -20.8984,-0.17126 -59.0244,-0.17126 -1.8626,0 -3.45827,-1.58386 -3.45118,-3.45118l-0.0011811 -57.4748c0,-1.86496 1.52835,-3.40039 3.39449,-3.39331z"/>
  <path class="fil25" d="M2.50512 17.3303l0.0177165 47.2358c0.113386,1.43858 0.904724,1.91339 2.20276,1.90748l57.3307 -0.0614173c1.87559,-0.0531496 2.33268,-0.793701 2.39646,-2.4437l0.0933071 -44.8748c0,-1.73858 -1.03583,-2.68701 -2.90197,-2.68819l-56.1024 -1.7126c-1.73386,0.00826772 -3.03898,0.465354 -3.03661,2.6374z"/>
  <path class="fil26" d="M21.9154 52.0843l31.0075 0 0 1.06535 -31.0075 0 0 -1.06535zm0 5.92087l23.8535 0 0 1.0878 -23.8535 0 0 -1.0878zm26.6823 0l12.4618 0 0 1.0878 -12.4618 0 0 -1.0878zm-26.6256 -2.87244l8.88898 0 0 1.05472 -8.88898 0 0 -1.05472zm10.8484 0l28.5472 0 0 1.05472 -28.5472 0 0 -1.05472z"/>
  <g id="_397469896">
   <polygon id="_397468144" class="fil27" points="21.7394,22.0063 41.55,22.0063 41.4992,22.9665 21.7902,22.9665 "/>
   <path id="_397467352" class="fil27" d="M21.8469 24.9531l7.89803 0 0 1.05472 -7.89803 0 0 -1.05472zm9.85748 0l12.6874 0 0 1.05472 -12.6874 0 0 -1.05472zm14.6055 0l4.14331 0 0 1.05472 -4.14331 0 0 -1.05472z"/>
   <path id="_397461376" class="fil27" d="M21.8906 28.0807l15.7181 0 0 1.0878 -15.7181 0 0 -1.0878zm18.5469 0l10.0157 0 0 1.0878 -10.0157 0 0 -1.0878z"/>
  </g>
  <path class="fil28" d="M22.0724 37.0465l18.9673 -0.0496063 0 0.975591 -18.9673 0.0496063 0 -0.975591zm0.0507874 5.92913l4.87795 0 0 1.0878 -4.87795 0 0 -1.0878zm7.70669 0l12.4819 0 0 1.0878 -12.4819 0 0 -1.0878zm14.4709 0l8.35748 0 0 1.0878 -8.35748 0 0 -1.0878zm-22.1717 -3.0248l13.5709 0 0 1.05472 -13.5709 0 0 -1.05472zm15.5303 0l8.26063 0 0 1.05472 -8.26063 0 0 -1.05472zm10.3051 0l4.6937 0 0 1.05472 -4.6937 0 0 -1.05472z"/>
  <path class="fil29" d="M4.56496 64.9913l0.272835 0.00708661 0.0023622 0 57.3165 -0.0614173c0.452362,-0.0129921 0.800787,-0.0673228 1.06535,-0.165354 0.258661,0.216142 0.533858,0.453543 0.811417,0.706299 -0.438189,0.284646 -1.03465,0.432283 -1.84843,0.455906l-0.0141732 0 -57.3283 0.0614173 -0.0023622 0c-0.453543,0.0023622 -0.861024,-0.0507874 -1.21654,-0.173622 0.307087,-0.292913 0.622441,-0.574016 0.941339,-0.830315z"/>
  <path class="fil30" d="M3.00354 17.3303l0.0177165 47.1969c0.0448819,0.569291 0.206693,0.934252 0.468898,1.14331 0.227953,0.180709 0.553937,0.271654 0.960236,0.297638 -0.318898,0.256299 -0.634252,0.537402 -0.941339,0.830315 -0.237402,-0.0826772 -0.451181,-0.196063 -0.640157,-0.346063 -0.483071,-0.385039 -0.777165,-0.979134 -0.844488,-1.84724l0 -0.0389764 -0.0177165 -47.2358c-0.0011811,-1.26732 0.403937,-2.05748 1.07598,-2.53583 0.641339,-0.457087 1.49764,-0.595276 2.45669,-0.6l0.0165354 0 56.1024 1.7126c1.05472,0.00354331 1.89331,0.288189 2.47677,0.827953l0.0023622 0c0.594094,0.551575 0.909449,1.34764 0.909449,2.35866l-0.0023622 0 -0.0933071 44.8748 0 0.0177165c-0.0354331,0.936614 -0.198425,1.63346 -0.646063,2.13543l0 0.0023622c-0.113386,0.125197 -0.240945,0.235039 -0.38622,0.330709 -0.277559,-0.252756 -0.552756,-0.490157 -0.811417,-0.706299 0.196063,-0.0732283 0.346063,-0.170079 0.455906,-0.292913l0.0011811 0.0011811c0.262205,-0.295276 0.362598,-0.798425 0.389764,-1.50591l0.0933071 -44.8571 -0.0023622 0c0,-0.724016 -0.204331,-1.27323 -0.588189,-1.62874l0.0011811 -0.0011811c-0.39685,-0.366142 -1.0122,-0.559843 -1.81417,-0.559843l-0.0141732 0 -56.1024 -1.7126c-0.764173,0.00472441 -1.42677,0.102756 -1.86614,0.415748 -0.409843,0.291732 -0.657874,0.824409 -0.657874,1.72323z"/>
  <path class="fil31" d="M4.45039 65.9681l0.272835 0.00708661 0.0023622 0 57.3165 -0.0614173c0.452362,-0.0129921 0.800787,-0.0673228 1.06535,-0.165354 0.258661,0.216142 0.533858,0.453543 0.811417,0.706299 -0.438189,0.284646 -1.03465,0.432283 -1.84843,0.455906l-0.0141732 0 -57.3283 0.0614173 -0.0023622 0c-0.453543,0.0023622 -0.861024,-0.0507874 -1.21654,-0.173622 0.307087,-0.292913 0.622441,-0.574016 0.941339,-0.830315z"/>
  <path class="fil32" d="M64.2791 17.8701l-59.0575 0c0.519685,-1.17874 1.47874,-1.49291 2.63268,-1.49055l54.0614 0.0885827c1.07598,0.0023622 1.87441,0.484252 2.36339,1.40197z"/>
  <path class="fil33" d="M5.1626 64.728l-0.370866 0.403937m61.3571 -0.0448819l-0.414567 -0.364961"/>
  <path class="fil33" d="M6.16299 65.0882l-0.36378 0.39685m60.3898 -0.0425197l-0.40748 -0.360236"/>
  <path class="fil34" d="M5.49567 10.8567l0 0.304724 0.683858 1.56378 0.683858 -1.56378 0 -0.304724c0,-0.0767717 0.0224409,-0.138189 0.0649606,-0.185433 0.0437008,-0.0484252 0.100394,-0.0720472 0.168898,-0.0720472 0.0685039,0 0.125197,0.023622 0.168898,0.0708661 0.0437008,0.046063 0.0649606,0.108661 0.0649606,0.186614l0 0.344882c0,0.023622 -0.00354331,0.046063 -0.00944882,0.0685039 -0.00472441,0.0212598 -0.011811,0.0437008 -0.023622,0.0685039l-0.735827 1.68543c-0.034252,0.0779528 -0.0685039,0.129921 -0.105118,0.159449 -0.0366142,0.0271654 -0.0814961,0.0413386 -0.134646,0.0413386l-0.285827 0c-0.0555118,0 -0.100394,-0.0141732 -0.134646,-0.0401575 -0.034252,-0.0271654 -0.069685,-0.0814961 -0.105118,-0.16063l-0.735827 -1.68307c-0.0141732,-0.0283465 -0.0212598,-0.0519685 -0.0259843,-0.0708661 -0.00472441,-0.0200787 -0.00708661,-0.0425197 -0.00708661,-0.0685039l0 -0.344882c0,-0.0791339 0.0212598,-0.141732 0.0637795,-0.187795 0.0437008,-0.046063 0.0992126,-0.069685 0.170079,-0.069685 0.0685039,0 0.125197,0.023622 0.168898,0.0720472 0.0425197,0.0472441 0.0649606,0.108661 0.0649606,0.185433zm16.3098 -1.23543l1.57441 0c0.12874,0 0.237402,0.0448819 0.329528,0.135827 0.092126,0.0909449 0.137008,0.200787 0.137008,0.330709l0 1.09961c0,0.131102 -0.0448819,0.240945 -0.137008,0.33189 -0.092126,0.0897638 -0.200787,0.135827 -0.329528,0.135827l-1.36772 0 0 1.10315 1.57323 0c0.0791339,0 0.141732,0.0212598 0.188976,0.0649606 0.0484252,0.0437008 0.0720472,0.0992126 0.0720472,0.167717 0,0.0685039 -0.023622,0.125197 -0.0732283,0.168898 -0.0496063,0.0437008 -0.111024,0.0649606 -0.187795,0.0649606l-2.04094 0 0 -1.56969c0,-0.129921 0.046063,-0.238583 0.135827,-0.330709 0.0909449,-0.0909449 0.199606,-0.137008 0.33189,-0.137008l1.36772 0 0 -1.09961 -1.57441 0c-0.080315,0 -0.142913,-0.0200787 -0.190157,-0.0637795 -0.0484252,-0.0425197 -0.0708661,-0.0980315 -0.0708661,-0.168898 0,-0.069685 0.023622,-0.125197 0.0732283,-0.168898 0.0496063,-0.0437008 0.111024,-0.0649606 0.187795,-0.0649606zm-3.2315 0.466535l0 2.67047 1.36772 0 0 -2.67047 -1.36772 0zm0.0484252 -0.466535l1.26732 0c0.166535,0 0.294094,0.0448819 0.385039,0.133465 0.0897638,0.0885827 0.133465,0.216142 0.133465,0.382677l0 2.57126c0,0.166535 -0.0437008,0.295276 -0.133465,0.382677 -0.0909449,0.0897638 -0.218504,0.133465 -0.385039,0.133465l-1.26732 0c-0.166535,0 -0.294094,-0.0437008 -0.382677,-0.133465 -0.0885827,-0.0874016 -0.133465,-0.216142 -0.133465,-0.382677l0 -2.57126c0,-0.166535 0.0448819,-0.294094 0.133465,-0.382677 0.0885827,-0.0885827 0.216142,-0.133465 0.382677,-0.133465zm-2.17559 2.68819l0.455906 0c0.0685039,0 0.125197,0.023622 0.167717,0.0708661 0.0437008,0.0472441 0.0649606,0.108661 0.0649606,0.184252l0 0.346063c0,0.080315 -0.0212598,0.142913 -0.0637795,0.190157 -0.0425197,0.0472441 -0.0992126,0.0708661 -0.168898,0.0708661l-0.455906 0c-0.0685039,0 -0.126378,-0.0248031 -0.168898,-0.0732283 -0.0437008,-0.0496063 -0.0649606,-0.112205 -0.0649606,-0.187795l0 -0.346063c0,-0.0791339 0.0212598,-0.141732 0.0637795,-0.186614 0.0425197,-0.0448819 0.0992126,-0.0685039 0.170079,-0.0685039zm-2.75433 -2.22165l0 2.67047 1.36772 0 0 -2.67047 -1.36772 0zm0.0484252 -0.466535l1.2685 0c0.166535,0 0.294094,0.0448819 0.383858,0.133465 0.0897638,0.0885827 0.134646,0.216142 0.134646,0.382677l0 2.57126c0,0.166535 -0.0448819,0.295276 -0.134646,0.382677 -0.0897638,0.0897638 -0.217323,0.133465 -0.383858,0.133465l-1.2685 0c-0.166535,0 -0.294094,-0.0437008 -0.382677,-0.133465 -0.0885827,-0.0874016 -0.132283,-0.216142 -0.132283,-0.382677l0 -2.57126c0,-0.166535 0.0437008,-0.294094 0.132283,-0.382677 0.0885827,-0.0885827 0.216142,-0.133465 0.382677,-0.133465zm-1.80945 2.68819l0.455906 0c0.0685039,0 0.126378,0.023622 0.168898,0.0708661 0.0437008,0.0472441 0.0649606,0.108661 0.0649606,0.184252l0 0.346063c0,0.080315 -0.0212598,0.142913 -0.0637795,0.190157 -0.0425197,0.0472441 -0.0992126,0.0708661 -0.170079,0.0708661l-0.455906 0c-0.0685039,0 -0.125197,-0.0248031 -0.167717,-0.0732283 -0.0437008,-0.0496063 -0.0649606,-0.112205 -0.0649606,-0.187795l0 -0.346063c0,-0.0791339 0.0212598,-0.141732 0.0637795,-0.186614 0.0425197,-0.0448819 0.0992126,-0.0685039 0.168898,-0.0685039zm-3.20433 -2.68819l1.57441 0c0.12874,0 0.237402,0.0448819 0.330709,0.135827 0.0909449,0.0909449 0.137008,0.200787 0.137008,0.330709l0 1.09961c0,0.131102 -0.046063,0.240945 -0.137008,0.33189 -0.0933071,0.0897638 -0.201969,0.135827 -0.330709,0.135827l-1.36772 0 0 1.10315 1.57441 0c0.0779528,0 0.140551,0.0212598 0.187795,0.0649606 0.0484252,0.0437008 0.0732283,0.0992126 0.0732283,0.167717 0,0.0685039 -0.0248031,0.125197 -0.0732283,0.168898 -0.0496063,0.0437008 -0.112205,0.0649606 -0.187795,0.0649606l-2.04213 0 0 -1.56969c0,-0.129921 0.046063,-0.238583 0.135827,-0.330709 0.0909449,-0.0909449 0.200787,-0.137008 0.33189,-0.137008l1.36772 0 0 -1.09961 -1.57441 0c-0.080315,0 -0.142913,-0.0200787 -0.190157,-0.0637795 -0.0484252,-0.0425197 -0.0708661,-0.0980315 -0.0708661,-0.168898 0,-0.069685 0.023622,-0.125197 0.0732283,-0.168898 0.0496063,-0.0437008 0.111024,-0.0649606 0.187795,-0.0649606z"/>
  <path class="fil35" d="M5.87126 10.7622l0 0.304724 0.683858 1.56496 0.683858 -1.56496 0 -0.304724c0,-0.0755906 0.0224409,-0.138189 0.0649606,-0.185433 0.0437008,-0.0472441 0.100394,-0.0720472 0.168898,-0.0720472 0.0685039,0 0.125197,0.023622 0.168898,0.0708661 0.0437008,0.0472441 0.0649606,0.108661 0.0649606,0.186614l0 0.346063c0,0.023622 -0.00354331,0.0448819 -0.00944882,0.0685039 -0.00472441,0.0200787 -0.011811,0.0425197 -0.023622,0.0673228l-0.735827 1.68543c-0.034252,0.0779528 -0.0685039,0.129921 -0.105118,0.159449 -0.0366142,0.0283465 -0.0814961,0.0413386 -0.134646,0.0413386l-0.285827 0c-0.0555118,0 -0.100394,-0.0129921 -0.134646,-0.0401575 -0.034252,-0.0271654 -0.069685,-0.080315 -0.105118,-0.16063l-0.735827 -1.68307c-0.0141732,-0.0283465 -0.0212598,-0.0507874 -0.0259843,-0.069685 -0.00472441,-0.0212598 -0.00708661,-0.0437008 -0.00708661,-0.0685039l0 -0.346063c0,-0.0791339 0.0212598,-0.141732 0.0637795,-0.187795 0.0437008,-0.046063 0.0992126,-0.069685 0.170079,-0.069685 0.0685039,0 0.125197,0.0248031 0.168898,0.0720472 0.0425197,0.0472441 0.0649606,0.109843 0.0649606,0.185433zm16.3098 -1.23543l1.57441 0c0.12874,0 0.237402,0.046063 0.329528,0.135827 0.092126,0.0909449 0.137008,0.200787 0.137008,0.33189l0 1.09843c0,0.131102 -0.0448819,0.240945 -0.137008,0.33189 -0.092126,0.0897638 -0.200787,0.135827 -0.329528,0.135827l-1.36772 0 0 1.10315 1.57323 0c0.0791339,0 0.141732,0.0212598 0.188976,0.0649606 0.0484252,0.0437008 0.0720472,0.100394 0.0720472,0.168898 0,0.0685039 -0.023622,0.124016 -0.0732283,0.167717 -0.0496063,0.0437008 -0.111024,0.0649606 -0.187795,0.0649606l-2.04094 0 0 -1.56969c0,-0.12874 0.046063,-0.238583 0.135827,-0.330709 0.0909449,-0.0909449 0.199606,-0.137008 0.33189,-0.137008l1.36772 0 0 -1.09843 -1.57441 0c-0.080315,0 -0.142913,-0.0212598 -0.190157,-0.0637795 -0.0484252,-0.0437008 -0.0708661,-0.0992126 -0.0708661,-0.170079 0,-0.069685 0.023622,-0.125197 0.0732283,-0.168898 0.0496063,-0.0425197 0.111024,-0.0649606 0.187795,-0.0649606zm-3.2315 0.467717l0 2.66929 1.36772 0 0 -2.66929 -1.36772 0zm0.0484252 -0.467717l1.26732 0c0.166535,0 0.294094,0.0448819 0.385039,0.133465 0.0897638,0.0885827 0.133465,0.216142 0.133465,0.383858l0 2.57008c0,0.166535 -0.0437008,0.295276 -0.133465,0.382677 -0.0909449,0.0897638 -0.218504,0.133465 -0.385039,0.133465l-1.26732 0c-0.166535,0 -0.294094,-0.0437008 -0.382677,-0.133465 -0.0885827,-0.0874016 -0.133465,-0.216142 -0.133465,-0.382677l0 -2.57008c0,-0.167717 0.0448819,-0.295276 0.133465,-0.383858 0.0885827,-0.0885827 0.216142,-0.133465 0.382677,-0.133465zm-2.17559 2.68937l0.455906 0c0.0685039,0 0.125197,0.023622 0.167717,0.069685 0.0437008,0.0472441 0.0649606,0.108661 0.0649606,0.185433l0 0.344882c0,0.080315 -0.0212598,0.142913 -0.0637795,0.190157 -0.0425197,0.0484252 -0.0992126,0.0708661 -0.168898,0.0708661l-0.455906 0c-0.0685039,0 -0.126378,-0.023622 -0.168898,-0.0732283 -0.0437008,-0.0496063 -0.0649606,-0.111024 -0.0649606,-0.187795l0 -0.344882c0,-0.0791339 0.0212598,-0.142913 0.0637795,-0.187795 0.0425197,-0.0448819 0.0992126,-0.0673228 0.170079,-0.0673228zm-2.75433 -2.22165l0 2.66929 1.36772 0 0 -2.66929 -1.36772 0zm0.0484252 -0.467717l1.2685 0c0.166535,0 0.294094,0.0448819 0.383858,0.133465 0.0897638,0.0885827 0.134646,0.216142 0.134646,0.383858l0 2.57008c0,0.166535 -0.0448819,0.295276 -0.134646,0.382677 -0.0897638,0.0897638 -0.217323,0.133465 -0.383858,0.133465l-1.2685 0c-0.166535,0 -0.294094,-0.0437008 -0.382677,-0.133465 -0.0885827,-0.0874016 -0.132283,-0.216142 -0.132283,-0.382677l0 -2.57008c0,-0.167717 0.0437008,-0.295276 0.132283,-0.383858 0.0885827,-0.0885827 0.216142,-0.133465 0.382677,-0.133465zm-1.80945 2.68937l0.455906 0c0.0685039,0 0.126378,0.023622 0.168898,0.069685 0.0437008,0.0472441 0.0649606,0.108661 0.0649606,0.185433l0 0.344882c0,0.080315 -0.0212598,0.142913 -0.0637795,0.190157 -0.0425197,0.0484252 -0.0992126,0.0708661 -0.170079,0.0708661l-0.455906 0c-0.0685039,0 -0.125197,-0.023622 -0.167717,-0.0732283 -0.0437008,-0.0496063 -0.0649606,-0.111024 -0.0649606,-0.187795l0 -0.344882c0,-0.0791339 0.0212598,-0.142913 0.0637795,-0.187795 0.0425197,-0.0448819 0.0992126,-0.0673228 0.168898,-0.0673228zm-3.20433 -2.68937l1.57441 0c0.12874,0 0.237402,0.046063 0.330709,0.135827 0.0909449,0.0909449 0.137008,0.200787 0.137008,0.33189l0 1.09843c0,0.131102 -0.046063,0.240945 -0.137008,0.33189 -0.0933071,0.0897638 -0.201969,0.135827 -0.330709,0.135827l-1.36772 0 0 1.10315 1.57441 0c0.0779528,0 0.140551,0.0212598 0.187795,0.0649606 0.0484252,0.0437008 0.0732283,0.100394 0.0732283,0.168898 0,0.0685039 -0.0248031,0.124016 -0.0744094,0.167717 -0.0484252,0.0437008 -0.111024,0.0649606 -0.186614,0.0649606l-2.04213 0 0 -1.56969c0,-0.12874 0.046063,-0.238583 0.135827,-0.330709 0.0909449,-0.0909449 0.200787,-0.137008 0.33189,-0.137008l1.36772 0 0 -1.09843 -1.57441 0c-0.080315,0 -0.142913,-0.0212598 -0.190157,-0.0637795 -0.0484252,-0.0437008 -0.0708661,-0.0992126 -0.0708661,-0.170079 0,-0.069685 0.023622,-0.125197 0.0732283,-0.168898 0.0496063,-0.0425197 0.111024,-0.0649606 0.187795,-0.0649606z"/>
  <path class="fil36" d="M7.78346 13.2957l0.0153543 0.0389764 -0.0011811 0.0011811c0.0543307,0.134646 0.140551,0.250394 0.249213,0.347244 0.0956693,0.0850394 0.204331,0.15 0.323622,0.19252 0.116929,0.0425197 0.23622,0.0637795 0.356693,0.0637795l1.57441 0c0.157087,0 0.311811,-0.0307087 0.46063,-0.092126l0.00472441 0c0.138189,-0.057874 0.265748,-0.142913 0.383858,-0.25748 0.0897638,-0.0874016 0.161811,-0.185433 0.219685,-0.294094l-3.58701 0zm4.83898 0c0.0543307,0.106299 0.124016,0.201969 0.207874,0.287008l0.0023622 0.00708661c0.231496,0.231496 0.537402,0.349606 0.909449,0.349606l1.26732 0c0.161811,0 0.316535,-0.0259843 0.458268,-0.0732283 0.170079,-0.0590551 0.318898,-0.15 0.445276,-0.274016l0.00708661 -0.0023622c0.0838583,-0.0850394 0.155906,-0.183071 0.211417,-0.294094l-3.50906 0zm4.88031 0c0.0555118,0.112205 0.127559,0.209055 0.211417,0.294094 0.120472,0.120472 0.270472,0.214961 0.45,0.276378 0.140551,0.0472441 0.295276,0.0732283 0.458268,0.0732283l1.26732 0c0.162992,0 0.317717,-0.0259843 0.459449,-0.0732283 0.174803,-0.0602362 0.327165,-0.153543 0.45,-0.276378 0.0472441,-0.0472441 0.0885827,-0.0968504 0.126378,-0.151181 0.0519685,0.0933071 0.120472,0.178346 0.207874,0.252756l0.0011811 0c0.0909449,0.0791339 0.194882,0.140551 0.309449,0.180709l0 0.0011811c0.11811,0.0437008 0.238583,0.0661417 0.360236,0.0661417l1.57441 0c0.164173,0 0.32126,-0.0318898 0.466535,-0.092126l-0.0011811 -0.0023622c0.141732,-0.057874 0.270472,-0.142913 0.385039,-0.255118l0.0023622 -0.00354331c0.0909449,-0.0885827 0.162992,-0.186614 0.219685,-0.290551l-6.94843 0z"/>
  <path class="fil37" d="M2.10945 13.428c0.486614,-0.530315 0.744094,-1.32992 1.52362,-1.43268l0.53622 1.1752 -2.29606 2.85 0.23622 -2.59252z"/>
  <path class="fil33" d="M2.1248 8.76614c0,-0.727559 0.290551,-1.39843 0.766535,-1.91929 0.609449,-0.741732 1.53425,-1.21772 2.56417,-1.21772l57.9295 0c1.83071,0 3.43228,1.45394 3.40512,3.27165"/>
  <path class="fil38" d="M2.17795 10.0772l-0.0885827 -2.4815c-0.0248031,-0.72874 0.376772,-1.38189 0.853937,-1.90157 0.385039,-0.468898 1.21654,-0.902362 1.8,-1.10551l0.0200787 0.219685 -0.15 0 0 1.10433 0.24685 0 0.301181 3.39921 0.486614 0.0968504c-0.478346,0.898819 -2.59724,2.06339 -3.39449,0.774803 -0.0224409,-0.0354331 -0.0484252,-0.0708661 -0.0755906,-0.106299z"/>
  <path class="fil39" d="M66.6874 17.5016l-65.6138 -0.102756 -0.00826772 -8.17795c0,-0.0755906 0.00354331,-0.15 0.00944882,-0.226772l-0.00944882 -0.512598c0,-0.154724 0.011811,-0.304724 0.0377953,-0.455906 0.132283,-0.33189 0.327165,-0.637795 0.571654,-0.904724 0.400394,-0.487795 0.935433,-0.861024 1.54724,-1.05591l61.1657 0.219685c1.92992,0.866929 2.03268,2.91614 2.29961,11.2169z"/>
  <path class="fil40" d="M0.901181 8.05748c-0.109843,-1.80354 0.951969,-3.82677 2.94094,-3.82677l58.7209 0.134646 0.504331 0.113386 1.41378 0.198425c1.47992,0.424016 2.0622,1.84843 1.90748,3.90945l0.0011811 0 0 0.0448819 -0.0153543 -0.0011811c0.0106299,0.132283 0.0141732,0.265748 0.0141732,0.401575l0.0011811 0 0 0.0448819 -0.316535 -0.0271654 0 -0.0448819 0.0011811 0c0,-1.50236 -1.36063,-2.66457 -2.8122,-2.68701l0 0.00354331 -0.0507874 0 -59.2571 -0.219685c-0.408661,0 -0.850394,0.262205 -1.1811,0.262205 -0.598819,0.281102 -1.20118,0.884646 -1.45039,1.50709l0 0.00354331c-0.100394,0.255118 -0.155906,0.532677 -0.155906,0.819685l-0.265748 -0.190157c-0.00944882,-0.15 -0.00944882,-0.3 0,-0.446457z"/>
  <path class="fil41" d="M66.4287 8.21693l0.0413386 -1.13386c0.0259843,-0.75 -0.387402,-1.42087 -0.877559,-1.95709 -0.39685,-0.48189 -1.22244,-0.66378 -1.82244,-0.871654l-0.0354331 0.344882 0.412205 0 -0.0129921 1.30157 -0.112205 1.70197 -0.438189 -1.48346c1.02638,0.20315 2.35394,0.729921 2.84528,2.09764z"/>
  <path class="fil42" d="M1.12087 8.27362l-0.239764 -1.16102c-0.151181,-0.735827 0.387402,-1.42205 0.877559,-1.95709 0.39685,-0.48189 1.42087,-0.636614 2.02087,-0.844488l0.0354331 0.344882 -0.412205 0 0.0129921 1.30157 0.170079 0.438189 0.380315 -0.219685c-1.02638,0.20315 -2.35276,0.729921 -2.84528,2.09764z"/>
  <polygon class="fil43" points="0.279921,17.4756 66.9484,17.4732 66.9484,18.9354 0.279921,18.9378 "/>
  <polygon class="fil44" points="0.918898,16.9016 67.0146,16.9016 67.0146,18.0343 0.918898,18.0343 "/>
  <path class="fil45" d="M66.965 18.0295l0.0023622 47.139c-0.00354331,1.06654 -0.445276,2.04567 -1.14921,2.74961 -0.703937,0.705118 -1.67717,1.14567 -2.74252,1.14567 -9.31654,0 -14.7106,-0.0330709 -20.8205,-0.0708661 -7.5378,-0.046063 -16.2248,0.0141732 -38.2039,0.0141732l-0.0129921 0 0 -0.0023622c-1.06181,-0.00354331 -2.04921,-0.457087 -2.76614,-1.17047 -0.71811,-0.716929 -1.17283,-1.70433 -1.17283,-2.76732l0 -0.011811 0.0023622 0 -0.0011811 -47.0256 0.99685 0 0.0011811 47.0256 0.0023622 0 0 0.011811c0,0.791339 0.338976,1.52598 0.875197,2.06102 0.538583,0.53622 1.27559,0.877559 2.0622,0.879921l0 -0.0023622 0.0129921 0c21.2055,0 30.3154,-0.0566929 38.2087,-0.00944882 5.70236,0.034252 10.7469,0.0661417 20.8157,0.0661417 0.79252,0 1.51417,-0.325984 2.03622,-0.849213l0 -0.0011811c0.526772,-0.526772 0.856299,-1.25433 0.858661,-2.04331l-0.0023622 -47.139 0.99685 0z"/>
  <path class="fil46" d="M42.9815 34.3087c3.93661,-2.94331 8.21929,-2.80512 12.5504,-1.26024 0.579921,0.258661 1.14567,0.483071 1.69724,0.677953 0.990945,0.435827 1.98307,0.941339 2.97047,1.49528 2.63976,1.47992 5.00669,1.92756 7.01457,1.90866l0 23.6374c-0.369685,-0.16063 -0.741732,-0.343701 -1.10906,-0.550394 -5.52283,-3.09685 -10.3264,-5.54055 -15.4346,-2.34685 1.20354,3.72047 2.40118,7.45039 3.59646,11.2146l-4.30394 0 -2.81693 -8.68583c-1.0937,-2.75315 -6.60118,-16.0654 -8.24409,-22.1362l0.793701 -0.810236 -2.27598 -7.09252c1.17165,-2.61378 2.19803,-2.08346 3.78898,-1.47283l1.77283 5.42126z"/>
  <g id="_398598736">
   <path id="_398600848" class="fil10" d="M66.6614 58.9736c-2.46378,0.12874 -5.43071,-0.229134 -8.20512,-1.89685 -6.18307,-3.71575 -12.5634,-5.43071 -18.2917,-0.419291l-0.695669 -1.53307c5.96102,-4.96063 12.5728,-3.15354 18.9898,0.700394 2.75787,1.65945 5.69764,2.08819 8.20276,2.01969l0 1.12913z"/>
   <g>
    <path id="_398618968" class="fil47" d="M66.6614 57.8433c-2.48031,0.13937 -5.48504,-0.204331 -8.29252,-1.89213 -6.18661,-3.71693 -12.5646,-5.43071 -18.2941,-0.419291 -0.231496,-0.512598 -0.462992,-1.02283 -0.693307,-1.53307 5.96102,-4.96181 12.5717,-3.15472 18.9886,0.700394 2.79094,1.67953 5.76969,2.09882 8.29134,2.01614l0 1.12795z"/>
    <path id="_398616760" class="fil48" d="M66.6614 56.713c-2.49685,0.153543 -5.54173,-0.177165 -8.38228,-1.88622 -6.18661,-3.71693 -12.5646,-5.43071 -18.2941,-0.419291 -0.231496,-0.512598 -0.46063,-1.02283 -0.692126,-1.53307 5.96102,-4.96181 12.5705,-3.15472 18.9874,0.700394 2.82402,1.69843 5.83937,2.10591 8.3811,2.0126l0 1.12559z"/>
    <path id="_398597560" class="fil49" d="M66.6614 55.5839c-2.51102,0.166535 -5.59724,-0.153543 -8.47205,-1.8815 -6.18425,-3.71693 -12.561,-5.43071 -18.2906,-0.419291 -0.231496,-0.512598 -0.462992,-1.02283 -0.693307,-1.53307 5.96102,-4.96181 12.5705,-3.15472 18.9862,0.700394 2.85827,1.71732 5.91024,2.11535 8.46969,2.00906l0 1.12441z"/>
    <path id="_398603080" class="fil50" d="M66.6614 54.4535c-2.52992,0.179528 -5.65039,-0.127559 -8.55945,-1.87559 -6.18661,-3.71693 -12.5622,-5.43071 -18.2929,-0.419291 -0.231496,-0.512598 -0.462992,-1.02283 -0.692126,-1.53307 5.96102,-4.96181 12.5717,-3.15472 18.985,0.700394 2.89134,1.7374 5.97992,2.12598 8.55945,2.00551l0 1.12205z"/>
    <path id="_398622880" class="fil51" d="M66.6614 53.3232c-2.54646,0.19252 -5.70591,-0.100394 -8.65039,-1.86969 -6.18425,-3.71693 -12.5622,-5.43071 -18.2917,-0.419291 -0.231496,-0.512598 -0.462992,-1.02283 -0.693307,-1.53307 5.96102,-4.96181 12.5717,-3.15472 18.9862,0.700394 2.92441,1.75866 6.05315,2.13307 8.64921,1.99961l0 1.12205z"/>
   </g>
   <path id="_398595640" class="fil52" d="M66.6614 52.1929c-2.55827,0.206693 -5.75906,-0.0720472 -8.73661,-1.8626 -6.18543,-3.71575 -12.5622,-5.43071 -18.2941,-0.419291l-0.689764 -1.53307c5.96102,-4.96181 12.5705,-3.15354 18.9839,0.700394 2.95748,1.77756 6.12402,2.1437 8.73661,1.99724l0 1.11732z"/>
  </g>
  <path class="fil53" d="M30.6142 25.8189c5.04331,-5.17087 10.6075,-5.23583 16.2024,-3.20551 0.618898,0.277559 1.22362,0.519685 1.81299,0.732283 1.05827,0.468898 2.11535,1.00748 3.16772,1.59567 4.89094,2.73661 8.96929,2.27717 11.6657,1.60866l8.40354 24.1854c0,0 -6.54094,2.72244 -13.3689,-1.09843 -7.20591,-4.03228 -14.6575,-5.70354 -21.2008,1.00512 -0.535039,-1.45276 -6.7878,-16.5201 -8.51929,-23.1354l1.83661 -1.6878z"/>
  <g id="_398620312">
   <path id="_398622952" class="fil54" d="M44.1803 22.1693l9.7878 25.9039c-4.04409,-1.85315 -8.12008,-2.72717 -12.0224,-1.5815l-9.01535 -23.8571c3.6189,-1.86024 7.42205,-1.6937 11.25,-0.465354z"/>
   <g>
    <path id="_398597728" class="fil55" d="M43.1929 21.8776l9.72638 25.7362c-3.42165,-1.41614 -6.85394,-2.06811 -10.1717,-1.32874l-9.06969 -24.0059c3.08031,-1.34055 6.28228,-1.28031 9.51496,-0.401575z"/>
    <path id="_398603680" class="fil56" d="M42.2256 21.6402l9.6626 25.572c-2.79803,-1.02874 -5.5937,-1.50472 -8.32205,-1.08189l-9.12638 -24.1535c2.53465,-0.91063 5.14843,-0.916535 7.78583,-0.336614z"/>
    <path id="_398611312" class="fil57" d="M41.2783 21.4559l9.6 25.4102c-2.17323,-0.692126 -4.34055,-1.0252 -6.47126,-0.837402l-9.18307 -24.3047c1.98307,-0.566929 4.00866,-0.605906 6.05433,-0.26811z"/>
    <path id="_398624968" class="fil58" d="M40.3524 21.3295l9.53976 25.2472c-1.55197,-0.413386 -3.09685,-0.633071 -4.6252,-0.596457l-9.24094 -24.4571c1.42441,-0.305906 2.8689,-0.350787 4.32638,-0.193701z"/>
   </g>
   <path id="_398596360" class="fil59" d="M39.4453 21.2587l9.47953 25.0843c-0.929528,-0.197244 -1.85669,-0.320079 -2.77913,-0.355512l-9.29882 -24.6106c0.859843,-0.125197 1.72677,-0.16063 2.59843,-0.11811z"/>
  </g>
  <path class="fil60" d="M33.2185 32.9268c1.39606,-1.43268 2.83465,-2.47087 4.29685,-3.18425l-2.73661 -7.04173c2.24764,-1.12205 4.56142,-1.47283 6.91063,-1.27677l0.644882 0.308268 2.67165 6.8752c1.46339,0.187795 3.84331,0.598819 5.32205,1.13386 0.618898,0.277559 1.22244,0.522047 1.81299,0.733465l0.844488 0.387402 -2.5878 -6.65669c0,0 -2.93858,-0.995669 -5.54646,-2.21457 0.654331,0.174803 1.30984,0.385039 1.96654,0.623622 0.616535,0.277559 1.22244,0.517323 1.81299,0.729921 1.05591,0.470079 3.02008,1.03228 4.0689,1.61811 1.53661,0.858661 2.21693,1.34882 3.75709,1.6252l0.0637795 0.0307087 5.88543 15.137 -3.11693 -8.02323c3.21496,0.532677 5.19567,0.312992 7.01929,-0.127559l5.92323 17.048c0,0 -0.131102,0.0496063 -0.367323,0.129921l-3.02598 -8.70472c-1.63346,0.403937 -3.27283,0.604724 -6.1937,0.290551l3.5752 9.19016c-2.12953,-0.0141732 -3.60827,-0.357874 -5.91732,-1.43858l0.119291 -0.129921 -3.91535 -10.0677c-0.649606,-0.337795 -1.30512,-0.65315 -1.96181,-0.946063 -0.590551,-0.212598 -2.1,-0.474803 -2.71772,-0.751181 -1.15512,-0.421654 -2.30787,-0.75 -3.45472,-0.962598l3.72165 9.57992c-2.71654,-0.793701 -5.42362,-1.00748 -8.05394,-0.320079l-3.34843 -8.61969 -3.1748 -8.15906c2.42835,-1.18346 4.94409,-1.46457 7.48937,-1.13622l3.36614 8.65512c-2.60315,-0.486614 -5.17441,-0.376772 -7.66654,0.633071m-0.0141732 0.00708661c-1.73386,0.705118 -3.4252,1.84724 -5.06575,3.52795l-1.4563 1.33583c-0.398031,-1.01457 -0.810236,-2.07992 -1.2248,-3.16181 -0.650787,-1.89567 -1.20472,-3.62244 -1.5626,-4.99016l1.83661 -1.6878m26.0705 0.805512c-1.61102,-0.266929 -3.27756,-0.785433 -4.88622,-1.68425 -0.77126,-0.432283 -0.641339,-0.81378 -1.41614,-1.18465l3.51969 9.05906c0.401575,0.207874 0.80315,0.424016 1.20591,0.650787 1.9252,1.07717 3.03425,1.5874 4.93228,1.79528l-3.35551 -8.63622zm-6.30354 -2.87008l0.0011811 0.0011811"/>
  <path class="fil61" d="M39.3437 48.6945c2.59724,-2.60315 2.95984,-3.7063 5.77913,-4.12913 2.84882,-0.427559 5.76024,0.080315 8.66693,1.13622l0.0519685 0.0200787c0.315354,0.140551 0.614173,0.270472 0.887008,0.379134 0.24685,0.0980315 0.539764,0.209055 0.870472,0.327165l0.0519685 0.0224409c0.514961,0.229134 1.04646,0.48189 1.59803,0.761811l0 -0.0011811c0.535039,0.26811 1.07953,0.559843 1.62638,0.86811l0 -0.0023622c3.32717,1.86142 10.8083,3.23268 14.3941,2.34685l-2.19803 0.45c-1.65945,0.357874 -4.02165,0.677953 -6.6,0.425197 -2.03976,-0.198425 -4.22717,-0.757087 -6.31772,-1.9252l-0.00354331 -0.00354331c-0.509055,-0.287008 -1.03346,-0.566929 -1.56378,-0.833858l-0.00354331 -0.00354331c-0.472441,-0.238583 -0.970866,-0.477165 -1.48465,-0.706299 -0.252756,-0.0897638 -0.564567,-0.211417 -0.917717,-0.351969 -0.322441,-0.126378 -0.630709,-0.261024 -0.924803,-0.390945 -2.67638,-0.968504 -5.34213,-1.43504 -7.91811,-1.04882 -2.56535,0.382677 -3.49016,0.379134 -5.88661,2.83701l-0.0283465 0.0271654 -0.307087 0.282283 0.227953 -0.486614z"/>
  <path class="fil62" d="M30.2728 25.4563c2.59961,-2.65984 5.34331,-4.0122 8.16142,-4.43504 2.80984,-0.421654 5.6811,0.0826772 8.55354,1.12323l0.0354331 0.0141732c0.304724,0.137008 0.605906,0.265748 0.896457,0.382677 0.294094,0.11811 0.590551,0.231496 0.879921,0.335433l0.0307087 0.0141732c0.555118,0.24685 1.09488,0.50315 1.60984,0.762992 0.532677,0.269291 1.06772,0.555118 1.59803,0.850394 2.37283,1.32756 4.54724,1.88031 6.45,2.01969 1.90394,0.13937 3.54921,-0.134646 4.85433,-0.458268l0.440551 -0.108661 0.15 0.42874 8.40472 24.1866 0.151181 0.435827 -0.422835 0.185433c-0.0188976,0.00826772 -6.7748,2.81811 -13.813,-1.12087l0 -0.0011811c-3.53858,-1.97717 -7.12913,-3.38031 -10.6146,-3.46181 -3.44764,-0.0791339 -6.82205,1.13858 -9.98386,4.38071l-0.552756 0.565748 -0.274016 -0.740551c-0.106299,-0.28937 -0.395669,-1.0063 -0.809055,-2.03976 -1.87441,-4.67598 -6.30472,-15.7205 -7.72559,-21.1429l-0.0755906 -0.28937 0.220866 -0.20315 1.83425 -1.68425zm8.31024 -3.44528c-2.6185,0.392126 -5.17677,1.65945 -7.61102,4.1563l-0.0200787 0.0200787 -1.61457 1.48346c1.48346,5.46024 5.77323,16.1587 7.60748,20.7343l0.540945 1.35118c3.22323,-3.0626 6.65787,-4.22362 10.1717,-4.14331 3.67559,0.0850394 7.41732,1.53898 11.0823,3.58819l0.0023622 0c5.59606,3.13228 10.9618,1.74213 12.4913,1.23543l-8.09528 -23.2984c-1.30984,0.294094 -2.90315,0.514961 -4.72087,0.382677 -2.03031,-0.147638 -4.34528,-0.735827 -6.86339,-2.14488 -0.518504,-0.288189 -1.04173,-0.56811 -1.5626,-0.831496 -0.527953,-0.265748 -1.04055,-0.511417 -1.53189,-0.729921 -0.297638,-0.10748 -0.603543,-0.224409 -0.91063,-0.347244 -0.308268,-0.124016 -0.62126,-0.25748 -0.927165,-0.394488 -2.71299,-0.980315 -5.41535,-1.45512 -8.03858,-1.06181z"/>
  <polygon class="fil63" points="32.3846,23.5571 40.0051,46.5248 36.6024,49.3535 28.7551,26.8665 "/>
  <path class="fil64" d="M26.8051 23.498c1.23898,-2.61142 1.55906,-1.72559 3.24213,-1.11496 5.59961,16.2047 10.9559,31.4492 16.298,47.5984 -0.843307,2.10827 -1.29449,1.6311 -3.41929,0.742913 -5.46969,-16.1764 -10.65,-31.05 -16.1209,-47.2264z"/>
  <path class="fil65" d="M26.8689 23.1709c1.21654,-2.5689 1.23071,-2.20866 2.5689,-1.58976l0.0023622 0.0023622c0.220866,0.102756 0.478346,0.222047 0.778346,0.330709l0.223228 0.0814961 0.0779528 0.225591c5.48622,15.848 11.0339,31.6807 16.2992,47.6043l-0.011811 0.341339c-0.498425,2.74016 -3.56693,1.87795 -4.05236,0.844488l-0.0720472 -0.214961c-5.32087,-15.7406 -10.5154,-31.5189 -15.835,-47.2524l0.0212598 -0.373228zm2.66575 -0.798425l-0.514961 0.115748c-0.668504,-0.309449 -0.435827,-0.553937 -1.1622,0.928346 5.27126,15.5988 10.4244,31.2437 15.698,46.8484l0.11811 0.0496063 0.0023622 0.0011811c0.45,0.928346 1.41614,1.17992 2.13543,-0.351969 -5.22165,-15.7866 -10.7173,-31.4846 -16.1575,-47.1969 -0.23622,-0.0933071 0.069685,-0.307087 -0.119291,-0.394488z"/>
  <path class="fil66" d="M29.9161 23.6445c5.47205,16.1752 10.1917,29.2583 15.6602,45.4346l-1.12205 0.566929c-5.46969,-16.1799 -10.1894,-29.2594 -15.6591,-45.4358 -0.0259843,-1.41614 0.806693,-1.27441 1.12087,-0.565748z"/>
  <g id="_398606560">
   <path id="_398624872" class="fil67" d="M3.27283 6.10984c0.272835,-0.0744094 0.565748,-0.116929 0.879921,-0.116929l59.1661 0 0.0531496 0 0.00590551 0.0023622c0.348425,0.00472441 0.670866,0.0566929 0.964961,0.148819l0 1.14449c-0.309449,-0.113386 -0.637795,-0.262205 -0.970866,-0.26811l0 0.00354331 -0.0531496 0 -59.1969 -0.0023622c-0.291732,0 -0.602362,0.132283 -0.879921,0.212598l0.0307087 -1.12441z"/>
   <path id="_398598184" class="fil68" d="M64.3429 6.14409c1.47283,0.462992 2.24646,1.95709 2.24409,3.75354l0.0023622 0 0 0.046063 -0.327165 -0.0271654 0 -0.046063 0.0023622 0c0,-1.2 -0.843307,-2.18976 -1.92165,-2.58189l-0.337795 -0.514961 0.337795 -0.629528z"/>
   <path id="_398613256" class="fil69" d="M1.0122 9.5811c-0.0956693,-1.57205 0.755906,-3.05197 2.26063,-3.47126l0.183071 0.550394 -0.183071 0.660236c-0.120472,0.0366142 -0.233858,0.0614173 -0.337795,0.0614173 -0.611811,0.287008 -1.23543,0.909449 -1.49173,1.55079l0.0023622 0.0011811c-0.103937,0.263386 -0.161811,0.548031 -0.161811,0.844488l-0.271654 -0.197244z"/>
  </g>
  <polygon class="fil70" points="1.2874,15.9307 66.6461,15.9307 66.6461,16.9689 1.2874,16.9689 "/>
  <path class="fil71" d="M66.965 18.0295l-0.99685 0 -0.0011811 -10.1067c0.0023622,-0.786614 -0.324803,-1.51063 -0.850394,-2.03622l0 -0.0011811c-0.525591,-0.525591 -1.25315,-0.85748 -2.04449,-0.858661l-0.0023622 0 -59.0764 0.00472441 0 0.0023622 -0.0129921 0c-0.791339,0 -1.51063,0.324803 -2.03031,0.845669l0 0.0011811c-0.523228,0.523228 -0.850394,1.24606 -0.852756,2.03268l0.0023622 0 0 0.0129921 -0.0023622 0 0 10.1031 -0.99685 0 0 -10.1031 -0.0023622 0 0 -0.0129921 0.0023622 0c0.00354331,-1.06417 0.442913,-2.03858 1.14331,-2.73898l0.0011811 0.0011811c0.703937,-0.705118 1.67244,-1.14331 2.73543,-1.14331l0.0129921 0 0.0023622 0.0023622 59.0787 -0.00472441c1.06772,0.00354331 2.04449,0.445276 2.74843,1.15039 0.706299,0.706299 1.14449,1.68071 1.14094,2.74252l0.0011811 10.1067z"/>
  <path class="fil72" d="M7.71732 22.1102l8.59724 0 0.656693 0 0 0.655512 0.0555118 8.6563 0 0.654331 -0.656693 0 -8.71181 0 -0.656693 0 0 -0.654331 0.0590551 -8.6563 0 -0.655512 0.656693 0zm8.14606 0.981496l-7.79528 0 -0.0590551 7.92874 7.90984 0 -0.0555118 -7.92874z"/>
  <polygon class="fil27" points="9.05551,24.1181 15.0614,24.1181 15.0614,30.0319 9.05551,30.0319 "/>
  <path class="fil73" d="M7.63228 51.9732l8.68228 0.0283465 0.656693 0 0 0.655512 0.0555118 8.6563 0 0.654331 -0.656693 0 -8.71181 0 -0.656693 0 0 -0.654331 -0.0271654 -8.68583 0 -0.654331 0.657874 0zm8.3752 1.00984l-8.02559 -0.0283465 0.0271654 7.95709 7.99606 0 0.0023622 -7.92874z"/>
  <polygon class="fil74" points="9.05551,54.0094 15.0614,54.0094 15.0614,59.9232 9.05551,59.9232 "/>
  <g id="_398623456">
   <path id="_398611672" class="fil75" d="M7.63228 36.9815l8.68228 0.0283465 0.656693 0 0 0.655512 0.0555118 8.6563 0 0.654331 -0.656693 0 -8.71181 0 -0.656693 0 0 -0.654331 -0.0271654 -8.68583 0 -0.654331 0.657874 0zm8.3752 1.00984l-8.02559 -0.0283465 0.0271654 7.95709 7.99606 0 0.0023622 -7.92874z"/>
   <polygon id="_398619016" class="fil76" points="9.05551,39.0177 15.0614,39.0177 15.0614,44.9315 9.05551,44.9315 "/>
  </g>
  <path class="fil77" d="M4.00866 8.90433l6.0189 0 0 6.00236 -6.0189 0 0 -6.00236zm5.02677 1.30866l-4.02165 0 0 3.68976 4.02165 0 0 -3.68976z"/>
  <path class="fil77" d="M10.9299 8.90433l6.0189 0 0 6.00236 -6.0189 0 0 -6.00236zm5.02677 1.30866l-4.02165 0 0 3.68976 4.02165 0 0 -3.68976z"/>
  <path class="fil77" d="M17.9669 8.90433l6.0189 0 0 6.00236 -6.0189 0 0 -6.00236zm5.02677 1.30866l-4.02165 0 0 3.68976 4.02165 0 0 -3.68976z"/>
  <path class="fil78" d="M18.0378 14.9575l5.91969 0 0 1.06535 -5.91969 0 0 -1.06535zm-13.9583 0l5.91969 0 0 1.06535 -5.91969 0 0 -1.06535zm6.92126 0l5.91969 0 0 1.06535 -5.91969 0 0 -1.06535z"/>
  <polygon class="fil79" points="39.1748,22.0535 46.9984,45.2976 53.348,45.5244 44.5039,22.2803 "/>
 </g>
</svg>
