<?xml version="1.0" encoding="UTF-8" standalone="no"?>
<!-- Creator: CorelDRAW -->

<svg
   xmlns:dc="http://purl.org/dc/elements/1.1/"
   xmlns:cc="http://creativecommons.org/ns#"
   xmlns:rdf="http://www.w3.org/1999/02/22-rdf-syntax-ns#"
   xmlns:svg="http://www.w3.org/2000/svg"
   xmlns="http://www.w3.org/2000/svg"
   xmlns:xlink="http://www.w3.org/1999/xlink"
   xmlns:sodipodi="http://sodipodi.sourceforge.net/DTD/sodipodi-0.dtd"
   xmlns:inkscape="http://www.inkscape.org/namespaces/inkscape"
   xml:space="preserve"
   width="72px"
   height="72px"
   style="shape-rendering:geometricPrecision; text-rendering:geometricPrecision; image-rendering:optimizeQuality; fill-rule:evenodd; clip-rule:evenodd"
   viewBox="0 0 72 72"
   id="svg3998"
   version="1.1"
   inkscape:version="0.48.1 r9760"
   sodipodi:docname="preferences-desktop-display.svg"><metadata
   id="metadata4283"><rdf:RDF><cc:Work
       rdf:about=""><dc:format>image/svg+xml</dc:format><dc:type
         rdf:resource="http://purl.org/dc/dcmitype/StillImage" /><dc:title></dc:title></cc:Work></rdf:RDF></metadata><sodipodi:namedview
   pagecolor="#ffffff"
   bordercolor="#666666"
   borderopacity="1"
   objecttolerance="10"
   gridtolerance="10"
   guidetolerance="10"
   inkscape:pageopacity="0"
   inkscape:pageshadow="2"
   inkscape:window-width="646"
   inkscape:window-height="480"
   id="namedview4281"
   showgrid="false"
   inkscape:zoom="3.6944444"
   inkscape:cx="36"
   inkscape:cy="36"
   inkscape:window-x="0"
   inkscape:window-y="24"
   inkscape:window-maximized="0"
   inkscape:current-layer="svg3998" />
 <defs
   id="defs4000">
  <style
   type="text/css"
   id="style4002">
   
    .fil130 {fill:none}
    .fil147 {fill:#7F7F7F}
    .fil133 {fill:white}
    .fil22 {fill:#404040}
    .fil15 {fill:#B2B2B2}
    .fil17 {fill:#C9C9C9}
    .fil131 {fill:#CCCCCC}
    .fil138 {fill:#D38D24}
    .fil0 {fill:#D9942B}
    .fil145 {fill:#E09613}
    .fil135 {fill:#FED716}
    .fil137 {fill:#FFC42E}
    .fil19 {fill:white}
    .fil132 {fill:#7A7A7A}
    .fil146 {fill:#7F7F7F;fill-rule:nonzero}
    .fil20 {fill:white;fill-rule:nonzero}
    .fil1 {fill:black;fill-opacity:0.000000}
    .fil2 {fill:black;fill-opacity:0.003922}
    .fil3 {fill:black;fill-opacity:0.007843}
    .fil97 {fill:#458BC9;fill-opacity:0.011765}
    .fil4 {fill:black;fill-opacity:0.015686}
    .fil129 {fill:#B0E5FF;fill-opacity:0.015686}
    .fil55 {fill:#B8E7FF;fill-opacity:0.015686}
    .fil5 {fill:black;fill-opacity:0.019608}
    .fil96 {fill:#458BC9;fill-opacity:0.019608}
    .fil6 {fill:black;fill-opacity:0.023529}
    .fil7 {fill:black;fill-opacity:0.027451}
    .fil128 {fill:#B0E5FF;fill-opacity:0.031373}
    .fil54 {fill:#B8E7FF;fill-opacity:0.031373}
    .fil95 {fill:#458BC9;fill-opacity:0.031373}
    .fil8 {fill:black;fill-opacity:0.031373}
    .fil9 {fill:black;fill-opacity:0.035294}
    .fil94 {fill:#458BC9;fill-opacity:0.039216}
    .fil10 {fill:black;fill-opacity:0.043137}
    .fil127 {fill:#B0E5FF;fill-opacity:0.047059}
    .fil53 {fill:#B8E7FF;fill-opacity:0.047059}
    .fil11 {fill:black;fill-opacity:0.047059}
    .fil12 {fill:black;fill-opacity:0.050980}
    .fil93 {fill:#458BC9;fill-opacity:0.050980}
    .fil13 {fill:black;fill-opacity:0.054902}
    .fil14 {fill:black;fill-opacity:0.058824}
    .fil126 {fill:#B0E5FF;fill-opacity:0.058824}
    .fil52 {fill:#B8E7FF;fill-opacity:0.058824}
    .fil92 {fill:#458BC9;fill-opacity:0.062745}
    .fil91 {fill:#458BC9;fill-opacity:0.070588}
    .fil125 {fill:#B0E5FF;fill-opacity:0.074510}
    .fil51 {fill:#B8E7FF;fill-opacity:0.074510}
    .fil90 {fill:#458BC9;fill-opacity:0.082353}
    .fil124 {fill:#B0E5FF;fill-opacity:0.090196}
    .fil50 {fill:#B8E7FF;fill-opacity:0.090196}
    .fil89 {fill:#458BC9;fill-opacity:0.090196}
    .fil88 {fill:#458BC9;fill-opacity:0.101961}
    .fil123 {fill:#B0E5FF;fill-opacity:0.105882}
    .fil49 {fill:#B8E7FF;fill-opacity:0.105882}
    .fil87 {fill:#458BC9;fill-opacity:0.113725}
    .fil122 {fill:#B0E5FF;fill-opacity:0.121569}
    .fil48 {fill:#B8E7FF;fill-opacity:0.121569}
    .fil86 {fill:#458BC9;fill-opacity:0.121569}
    .fil85 {fill:#458BC9;fill-opacity:0.133333}
    .fil121 {fill:#B0E5FF;fill-opacity:0.137255}
    .fil47 {fill:#B8E7FF;fill-opacity:0.137255}
    .fil84 {fill:#458BC9;fill-opacity:0.145098}
    .fil120 {fill:#B0E5FF;fill-opacity:0.152941}
    .fil46 {fill:#B8E7FF;fill-opacity:0.152941}
    .fil83 {fill:#458BC9;fill-opacity:0.152941}
    .fil82 {fill:#458BC9;fill-opacity:0.164706}
    .fil119 {fill:#B0E5FF;fill-opacity:0.164706}
    .fil45 {fill:#B8E7FF;fill-opacity:0.164706}
    .fil81 {fill:#458BC9;fill-opacity:0.172549}
    .fil118 {fill:#B0E5FF;fill-opacity:0.180392}
    .fil44 {fill:#B8E7FF;fill-opacity:0.180392}
    .fil80 {fill:#458BC9;fill-opacity:0.184314}
    .fil79 {fill:#458BC9;fill-opacity:0.196078}
    .fil117 {fill:#B0E5FF;fill-opacity:0.196078}
    .fil43 {fill:#B8E7FF;fill-opacity:0.196078}
    .fil78 {fill:#458BC9;fill-opacity:0.203922}
    .fil116 {fill:#B0E5FF;fill-opacity:0.211765}
    .fil42 {fill:#B8E7FF;fill-opacity:0.211765}
    .fil77 {fill:#458BC9;fill-opacity:0.215686}
    .fil134 {fill:#261401;fill-opacity:0.219608}
    .fil76 {fill:#458BC9;fill-opacity:0.223529}
    .fil115 {fill:#B0E5FF;fill-opacity:0.227451}
    .fil41 {fill:#B8E7FF;fill-opacity:0.227451}
    .fil75 {fill:#458BC9;fill-opacity:0.235294}
    .fil114 {fill:#B0E5FF;fill-opacity:0.243137}
    .fil40 {fill:#B8E7FF;fill-opacity:0.243137}
    .fil74 {fill:#458BC9;fill-opacity:0.247059}
    .fil73 {fill:#458BC9;fill-opacity:0.254902}
    .fil113 {fill:#B0E5FF;fill-opacity:0.258824}
    .fil39 {fill:#B8E7FF;fill-opacity:0.258824}
    .fil72 {fill:#458BC9;fill-opacity:0.266667}
    .fil112 {fill:#B0E5FF;fill-opacity:0.274510}
    .fil38 {fill:#B8E7FF;fill-opacity:0.274510}
    .fil71 {fill:#458BC9;fill-opacity:0.274510}
    .fil70 {fill:#458BC9;fill-opacity:0.286275}
    .fil111 {fill:#B0E5FF;fill-opacity:0.286275}
    .fil37 {fill:#B8E7FF;fill-opacity:0.286275}
    .fil69 {fill:#458BC9;fill-opacity:0.298039}
    .fil110 {fill:#B0E5FF;fill-opacity:0.301961}
    .fil36 {fill:#B8E7FF;fill-opacity:0.301961}
    .fil68 {fill:#458BC9;fill-opacity:0.305882}
    .fil67 {fill:#458BC9;fill-opacity:0.317647}
    .fil109 {fill:#B0E5FF;fill-opacity:0.317647}
    .fil35 {fill:#B8E7FF;fill-opacity:0.317647}
    .fil66 {fill:#458BC9;fill-opacity:0.325490}
    .fil108 {fill:#B0E5FF;fill-opacity:0.333333}
    .fil34 {fill:#B8E7FF;fill-opacity:0.333333}
    .fil65 {fill:#458BC9;fill-opacity:0.337255}
    .fil64 {fill:#458BC9;fill-opacity:0.349020}
    .fil107 {fill:#B0E5FF;fill-opacity:0.349020}
    .fil33 {fill:#B8E7FF;fill-opacity:0.349020}
    .fil63 {fill:#458BC9;fill-opacity:0.356863}
    .fil106 {fill:#B0E5FF;fill-opacity:0.364706}
    .fil32 {fill:#B8E7FF;fill-opacity:0.364706}
    .fil62 {fill:#458BC9;fill-opacity:0.368627}
    .fil61 {fill:#458BC9;fill-opacity:0.380392}
    .fil105 {fill:#B0E5FF;fill-opacity:0.380392}
    .fil31 {fill:#B8E7FF;fill-opacity:0.380392}
    .fil60 {fill:#458BC9;fill-opacity:0.388235}
    .fil104 {fill:#B0E5FF;fill-opacity:0.392157}
    .fil30 {fill:#B8E7FF;fill-opacity:0.392157}
    .fil59 {fill:#458BC9;fill-opacity:0.400000}
    .fil103 {fill:#B0E5FF;fill-opacity:0.407843}
    .fil29 {fill:#B8E7FF;fill-opacity:0.407843}
    .fil58 {fill:#458BC9;fill-opacity:0.407843}
    .fil57 {fill:#458BC9;fill-opacity:0.419608}
    .fil102 {fill:#B0E5FF;fill-opacity:0.423529}
    .fil28 {fill:#B8E7FF;fill-opacity:0.423529}
    .fil56 {fill:#458BC9;fill-opacity:0.431373}
    .fil101 {fill:#B0E5FF;fill-opacity:0.439216}
    .fil27 {fill:#B8E7FF;fill-opacity:0.439216}
    .fil16 {fill:#666666;fill-opacity:0.439216}
    .fil100 {fill:#B0E5FF;fill-opacity:0.454902}
    .fil26 {fill:#B8E7FF;fill-opacity:0.454902}
    .fil99 {fill:#B0E5FF;fill-opacity:0.470588}
    .fil25 {fill:#B8E7FF;fill-opacity:0.470588}
    .fil98 {fill:#B0E5FF;fill-opacity:0.486275}
    .fil24 {fill:#B8E7FF;fill-opacity:0.486275}
    .fil136 {fill:#999999;fill-opacity:0.501961}
    .fil18 {fill:url(#id0)}
    .fil143 {fill:url(#id1)}
    .fil139 {fill:url(#id2)}
    .fil149 {fill:url(#id3)}
    .fil23 {fill:url(#id4)}
    .fil21 {fill:url(#id5);fill-rule:nonzero}
    .fil144 {fill:url(#id6);fill-rule:nonzero}
    .fil148 {fill:url(#id7);fill-rule:nonzero}
    .fil141 {fill:url(#id8);fill-opacity:0.219608}
    .fil142 {fill:url(#id9);fill-opacity:0.501961}
    .fil140 {fill:url(#id10);fill-opacity:0.501961}
   
  </style>
  <linearGradient
   id="id0"
   gradientUnits="userSpaceOnUse"
   x1="36.0118"
   y1="7.54606"
   x2="36.0118"
   y2="52.7374">
   <stop
   offset="0"
   style="stop-color:#DADADA"
   id="stop4005" />
   <stop
   offset="1"
   style="stop-color:#BEBEBE"
   id="stop4007" />
  </linearGradient>
  <linearGradient
   id="id1"
   gradientUnits="userSpaceOnUse"
   x1="56.1213"
   y1="60.4311"
   x2="60.0283"
   y2="72.2469">
   <stop
   offset="0"
   style="stop-color:#EDA21D"
   id="stop4010" />
   <stop
   offset="1"
   style="stop-color:#B9792C"
   id="stop4012" />
  </linearGradient>
  <linearGradient
   id="id2"
   gradientUnits="userSpaceOnUse"
   x1="51.8799"
   y1="70.337"
   x2="64.6748"
   y2="46.1681">
   <stop
   offset="0"
   style="stop-color:#FED817"
   id="stop4015" />
   <stop
   offset="1"
   style="stop-color:#F3B618"
   id="stop4017" />
  </linearGradient>
  <linearGradient
   id="id3"
   gradientUnits="userSpaceOnUse"
   x1="68.7224"
   y1="50.3764"
   x2="50.8264"
   y2="62.3433">
   <stop
   offset="0"
   style="stop-color:#7F7F7F"
   id="stop4020" />
   <stop
   offset="1"
   style="stop-color:#666666"
   id="stop4022" />
  </linearGradient>
  <linearGradient
   id="id4"
   gradientUnits="userSpaceOnUse"
   x1="36.0047"
   y1="21.6354"
   x2="36.0047"
   y2="38.3693">
   <stop
   offset="0"
   style="stop-color:#5CA2DA"
   id="stop4025" />
   <stop
   offset="1"
   style="stop-color:#84C1F0"
   id="stop4027" />
  </linearGradient>
  <linearGradient
   id="id5"
   gradientUnits="userSpaceOnUse"
   x1="36.0118"
   y1="58.1988"
   x2="36.0118"
   y2="2.01142">
   <stop
   offset="0"
   style="stop-color:#7F7F7F"
   id="stop4030" />
   <stop
   offset="1"
   style="stop-color:#999999"
   id="stop4032" />
  </linearGradient>
  <linearGradient
   id="id6"
   gradientUnits="userSpaceOnUse"
   xlink:href="#id3"
   x1="66.548"
   y1="50.0858"
   x2="49.2484"
   y2="60.5587">
  </linearGradient>
  <linearGradient
   id="id7"
   gradientUnits="userSpaceOnUse"
   xlink:href="#id1"
   x1="57.1913"
   y1="53.2382"
   x2="60.2055"
   y2="61.1917">
  </linearGradient>
  <linearGradient
   id="id8"
   gradientUnits="userSpaceOnUse"
   x1="51.2079"
   y1="69.3685"
   x2="56.6882"
   y2="63.9874">
   <stop
   offset="0"
   style="stop-color:#D9942B"
   id="stop4037" />
   <stop
   offset="1"
   style="stop-color:#EDB428"
   id="stop4039" />
  </linearGradient>
  <linearGradient
   id="id9"
   gradientUnits="userSpaceOnUse"
   xlink:href="#id8"
   x1="70.2673"
   y1="43.8094"
   x2="66.4996"
   y2="51.0047">
  </linearGradient>
  <linearGradient
   id="id10"
   gradientUnits="userSpaceOnUse"
   xlink:href="#id8"
   x1="53.1579"
   y1="69.0496"
   x2="60.3697"
   y2="63.0189">
  </linearGradient>
 </defs>
 <g
   id="Слой_x0020_1">
  <metadata
   id="CorelCorpID_0Corel-Layer" />
  <path
   class="fil0"
   d="M69.9461 40.1421c0,0 2.30315,3.11457 2.14134,3.6248 -0.161811,0.509055 -1.76457,2.31024 -1.92638,2.36339 -0.161811,0.0519685 -0.295276,-5.31732 -0.214961,-5.98819z"
   id="path4045" />
  <g
   id="_150815296">
   <path
   id="_152188904"
   class="fil1"
   d="M60.3 68.2346c9.0626,-0.444094 12.1039,0.768898 13.0512,2.17677l0 1.93465c-0.270472,0.162992 -0.673228,0.272835 -1.18701,0.343701l-23.335 0c-0.191339,-0.0590551 -0.348425,-0.12874 -0.47126,-0.207874l0 -1.60394c0.738189,-1.09724 3.27874,-2.21811 11.9421,-2.64331z" />
   <g
   id="g4049">
    <path
   id="_152192048"
   class="fil2"
   d="M60.3272 68.4579c9.17835,-0.433465 12.1902,0.87874 13.024,2.29961l0 1.50945c-0.302362,0.220866 -0.842126,0.350787 -1.5685,0.422835l-22.7268 0c-0.312992,-0.080315 -0.549213,-0.180709 -0.698031,-0.303543l0 -1.16575c0.591732,-1.11969 2.9622,-2.3374 11.9693,-2.7626z" />
    <path
   id="_152194832"
   class="fil3"
   d="M60.3543 68.6799c9.32126,-0.421654 12.3213,1.00394 12.9969,2.42953l0 1.06063c-0.31063,0.308268 -1.05827,0.455906 -2.12244,0.519685l-5.05039 0c-1.35945,-0.0212598 -2.83346,-0.0354331 -4.35354,0l-12.4984 0c-0.496063,-0.101575 -0.829134,-0.239764 -0.968504,-0.422835l0 -0.670866c0.385039,-1.13622 2.52756,-2.48622 11.9965,-2.91614z" />
    <path
   id="_152194760"
   class="fil4"
   d="M60.3803 68.9031c9.60472,-0.414567 12.5811,1.18583 12.9709,2.6126l0 0.51378c-0.250394,0.496063 -1.51535,0.636614 -3.38858,0.660236l-1.4185 0c-2.19685,-0.0200787 -4.93346,-0.106299 -7.77047,-0.0023622l-0.0673228 0.0023622 -11.0551 0c-0.799606,-0.124016 -1.25433,-0.32126 -1.25433,-0.614173 0,-1.1315 1.68307,-2.72717 11.9835,-3.17244z" />
    <path
   id="_152194736"
   class="fil5"
   d="M60.4075 69.1252c9.79961,-0.400394 12.8386,1.35354 12.874,2.73661 0.0354331,1.27677 -5.98583,0.572835 -12.4972,0.788976l-1.1811 0.0389764 -9.51378 0c-0.999213,-0.109843 -1.58031,-0.297638 -1.58031,-0.598819 0,-1.05945 2.09882,-2.56417 11.8984,-2.96575z" />
    <path
   id="_152194544"
   class="fil6"
   d="M60.4335 69.3496c9.29882,-0.356693 12.7004,1.27795 12.7323,2.55472 0.0307087,1.14094 -5.95157,0.519685 -12.3709,0.712205 -0.871654,0.0259843 -1.73031,0.0507874 -2.56417,0.0732283l-7.49055 0c-1.3252,-0.0897638 -2.1189,-0.266929 -2.1189,-0.582283 0,-0.988583 2.51339,-2.40118 11.8122,-2.75787z" />
    <path
   id="_152193896"
   class="fil7"
   d="M60.4606 69.5728c8.79921,-0.311811 12.561,1.20236 12.5894,2.37283 0.0271654,1.00748 -5.9185,0.466535 -12.2445,0.636614 -1.64764,0.0437008 -3.25512,0.0838583 -4.73268,0.10748l-4.04291 0c-2.01614,-0.0519685 -3.29646,-0.211417 -3.29646,-0.565748 0,-0.917717 2.92795,-2.23937 11.7272,-2.55118z" />
    <path
   id="_152193392"
   class="fil8"
   d="M60.4878 69.7949c8.29843,-0.266929 12.4217,1.12795 12.4453,2.18976 0.023622,0.874016 -5.88425,0.415748 -12.1169,0.559843 -6.23386,0.144094 -11.9705,0.248031 -11.9705,-0.406299 0,-0.84685 3.3437,-2.07638 11.6421,-2.34331z" />
    <path
   id="_152193344"
   class="fil9"
   d="M60.5138 70.0193c7.79882,-0.224409 12.2846,1.05118 12.3035,2.00787 0.0200787,0.738189 -5.85,0.362598 -11.9906,0.483071 -6.14173,0.120472 -11.8689,0.200787 -11.8689,-0.355512 0,-0.774803 3.75709,-1.91457 11.5559,-2.13543z" />
    <path
   id="_152191856"
   class="fil10"
   d="M60.5409 70.2413c7.29685,-0.177165 12.1453,0.977953 12.1618,1.82717 0.0141732,0.603543 -5.81693,0.309449 -11.8665,0.406299 -6.04843,0.0968504 -11.7661,0.154724 -11.7661,-0.302362 0,-0.705118 4.17283,-1.75276 11.4709,-1.9311z" />
    <path
   id="_152189648"
   class="fil11"
   d="M60.5681 70.4646c6.79606,-0.133465 12.0059,0.901181 12.0177,1.64409 0.0129921,0.47126 -5.7815,0.258661 -11.739,0.329528 -5.9563,0.0732283 -11.6646,0.10748 -11.6646,-0.251575 0,-0.633071 4.5874,-1.58858 11.3858,-1.72205z" />
    <path
   id="_152192552"
   class="fil12"
   d="M60.5941 70.6866c6.29646,-0.0885827 11.8677,0.827953 11.876,1.46339 0.00708661,0.336614 -5.74843,0.205512 -11.6126,0.253937 -5.86417,0.0472441 -11.563,0.0602362 -11.563,-0.200787 0,-0.563386 5.00197,-1.42677 11.2996,-1.51654z" />
    <path
   id="_152193368"
   class="fil13"
   d="M60.6213 70.9098c5.79685,-0.0448819 11.7283,0.751181 11.7331,1.28031 0.00354331,0.201969 -5.71417,0.153543 -11.4874,0.177165 -5.77087,0.0248031 -11.4591,0.0129921 -11.4591,-0.148819 0,-0.491339 5.41654,-1.26378 11.2134,-1.30866z" />
   </g>
   <path
   id="_152193104"
   class="fil14"
   d="M60.6461 71.1343c5.29724,0 11.5925,0.675591 11.5925,1.09724 0,0.138189 -22.7197,0.132283 -22.7197,0.00472441 0,-0.421654 5.8311,-1.10197 11.1272,-1.10197z" />
  </g>
  <g
   id="_150410824">
   <path
   id="_150413032"
   class="fil1"
   d="M39.0661 60.8835c18.7217,-1.08543 25.0051,1.87913 26.9622,5.31969l0 4.72913c-0.558661,0.398031 -1.39016,0.666142 -2.45197,0.839764l-48.2079 0c-0.395669,-0.146457 -0.721654,-0.315354 -0.974409,-0.507874l0 -3.9189c1.52598,-2.68346 6.77244,-5.42362 24.672,-6.46181z" />
   <g
   id="g4066">
    <path
   id="_150410464"
   class="fil2"
   d="M39.1217 61.428c18.9626,-1.05945 25.1846,2.14843 26.9067,5.62205l0 3.6874c-0.624803,0.542126 -1.73976,0.858661 -3.24094,1.03465l-46.9512 0c-0.647244,-0.197244 -1.13386,-0.441732 -1.44213,-0.740551l0 -2.84882c1.22126,-2.7378 6.11929,-5.71299 24.7276,-6.75472z" />
    <path
   id="_150412984"
   class="fil3"
   d="M39.1772 61.9724c19.2567,-1.03228 25.4563,2.45315 26.8512,5.9374l0 2.5937c-0.64252,0.752362 -2.1874,1.1126 -4.38425,1.2685l-10.435 0c-2.80748,-0.0519685 -5.85236,-0.0862205 -8.99409,0l-25.8201 0c-1.02402,-0.249213 -1.71378,-0.585827 -2.00079,-1.03465l0 -1.64055c0.794882,-2.77559 5.22283,-6.07441 24.7831,-7.12441z" />
    <path
   id="_150409408"
   class="fil4"
   d="M39.2315 62.5169c19.8437,-1.01339 25.9913,2.89961 26.7969,6.38622l0 1.25669c-0.517323,1.20945 -3.12992,1.55551 -7.00039,1.6122l-2.9315 0c-4.53661,-0.0484252 -10.1906,-0.258661 -16.0524,-0.00590551l-0.138189 0.00590551 -22.8402 0c-1.65236,-0.304724 -2.59134,-0.784252 -2.59134,-1.50236 0,-2.7626 3.47835,-6.66378 24.7571,-7.75276z" />
    <path
   id="_150411208"
   class="fil5"
   d="M39.287 63.0614c20.2465,-0.979134 26.524,3.30709 26.5972,6.68858 0.0744094,3.11811 -12.3673,1.39961 -25.8189,1.92756l-2.43898 0.0944882 -19.6547 0c-2.06575,-0.26811 -3.26575,-0.72874 -3.26575,-1.46457 0,-2.58898 4.33583,-6.26693 24.5811,-7.24606z" />
    <path
   id="_150412576"
   class="fil6"
   d="M39.3425 63.6071c19.2106,-0.869291 26.237,3.12402 26.302,6.24449 0.0649606,2.78976 -12.2953,1.27087 -25.5567,1.74094 -1.8,0.0637795 -3.57402,0.125197 -5.29724,0.179528l-15.476 0c-2.7378,-0.218504 -4.37598,-0.651969 -4.37598,-1.42441 0,-2.41535 5.19331,-5.8689 24.4039,-6.74055z" />
    <path
   id="_150409696"
   class="fil7"
   d="M39.398 64.1539c18.1772,-0.761811 25.95,2.93976 26.0079,5.79921 0.0566929,2.46142 -12.2268,1.14213 -25.2969,1.55433 -3.40276,0.10748 -6.72402,0.206693 -9.77717,0.264567l-8.35276 0c-4.16457,-0.126378 -6.81024,-0.516142 -6.81024,-1.38425 0,-2.24173 6.05079,-5.47205 24.2291,-6.23386z" />
    <path
   id="_150411376"
   class="fil8"
   d="M39.4524 64.6961c17.1449,-0.651969 25.6642,2.75551 25.7126,5.35394 0.0496063,2.13425 -12.1559,1.01575 -25.0335,1.36772 -12.8787,0.35315 -24.7287,0.605906 -24.7287,-0.992126 0,-2.07047 6.90591,-5.07638 24.0496,-5.72953z" />
    <path
   id="_150409576"
   class="fil9"
   d="M39.5079 65.2429c16.1102,-0.544488 25.3783,2.57126 25.4185,4.90866 0.0413386,1.80591 -12.0862,0.887008 -24.7736,1.1811 -12.6874,0.294094 -24.5185,0.491339 -24.5185,-0.866929 0,-1.89685 7.7622,-4.67953 23.8736,-5.22283z" />
    <path
   id="_150410632"
   class="fil10"
   d="M39.5634 65.7886c15.0756,-0.434646 25.0913,2.38819 25.1244,4.46457 0.0307087,1.47756 -12.0165,0.758268 -24.5138,0.994488 -12.4972,0.235039 -24.3083,0.376772 -24.3083,-0.741732 0,-1.72323 8.61969,-4.2815 23.6976,-4.71732z" />
    <path
   id="_150410440"
   class="fil11"
   d="M39.6189 66.3331c14.0409,-0.327165 24.8043,2.20394 24.8291,4.01811 0.0248031,1.15157 -11.9457,0.63189 -24.2528,0.807874 -12.3047,0.175984 -24.098,0.262205 -24.098,-0.615354 0,-1.54961 9.47717,-3.88465 23.5217,-4.21063z" />
    <path
   id="_150410656"
   class="fil12"
   d="M39.672 66.8776c13.0087,-0.217323 24.5197,2.02087 24.535,3.57402 0.0165354,0.823228 -11.8736,0.50315 -23.9894,0.62126 -12.1157,0.116929 -23.889,0.147638 -23.889,-0.488976 0,-1.37717 10.3346,-3.48898 23.3433,-3.7063z" />
    <path
   id="_150412264"
   class="fil13"
   d="M39.7287 67.422c11.9752,-0.109843 24.2315,1.83661 24.2398,3.12756 0.00826772,0.496063 -11.8051,0.376772 -23.7307,0.434646 -11.922,0.0590551 -23.6752,0.0330709 -23.6752,-0.362598 0,-1.20354 11.1898,-3.09094 23.1661,-3.19961z" />
   </g>
   <path
   id="_150412144"
   class="fil14"
   d="M39.7807 67.9689c10.9429,0 23.948,1.65354 23.948,2.68346 0,0.336614 -46.937,0.322441 -46.937,0.0106299 0,-1.02992 12.0472,-2.69409 22.989,-2.69409z" />
  </g>
  <polygon
   class="fil15"
   points="23.55,57.6898 48.1217,57.6024 48.1217,64.4551 23.5476,64.7209 "
   id="polygon4081" />
  <polygon
   class="fil15"
   points="23.55,57.6898 48.1217,57.6024 48.1217,64.0996 48.4902,64.0984 54.7689,67.2874 55.5378,67.2862 55.5378,67.6772 55.9453,67.885 55.5378,67.8815 55.5378,67.8827 55.5957,67.8827 55.6535,70.2189 18.0472,70.2791 18.0106,68.8287 17.9303,68.8287 18.4949,67.3465 23.5488,64.2709 "
   id="polygon4083" />
  <polygon
   class="fil16"
   points="23.6102,57.3378 48.1819,57.2492 48.1819,61.1528 23.6091,61.1528 "
   id="polygon4085" />
  <path
   class="fil17"
   d="M5.32559 4.03228l58.1504 -1.54252c2.06575,0 3.45236,0.989764 3.42283,3.43346l-0.0566929 4.63701 -65.4354 0 0 -4.63701c0,-1.94528 1.91929,-1.99488 3.9189,-1.89094z"
   id="path4087" />
  <path
   class="fil18"
   d="M4.96654 2.58661l62.1909 0.106299c1.83543,0.0023622 3.33307,1.51181 3.33898,3.33898l-0.188976 48.2858c-0.00708661,1.82362 -1.50472,3.33898 -3.33898,3.33898 -21.9898,0 -24.626,0.0413386 -62.1319,0.0413386 -1.83189,0 -3.30354,-1.0878 -3.30945,-2.92441l0.100394 -48.8492c-0.00472441,-1.83543 1.50354,-3.32362 3.33898,-3.3378z"
   id="path4089" />
  <path
   class="fil19"
   d="M5.01969 50.5701l-0.0023622 1.03228c0.11811,1.43031 1.5189,2.47323 2.8748,2.4685l56.1803 -0.0874016c1.95827,-0.0519685 2.85236,-1.30394 2.91969,-2.94567l-0.0011811 -1.02402c-0.0779528,1.62638 -0.973228,2.86181 -2.9185,2.91378l-56.1803 0.0874016c-1.34882,0.00472441 -2.74134,-1.02638 -2.87244,-2.44488z"
   id="path4091" />
  <path
   class="fil20"
   d="M70.0665 6.64843l-0.301181 0c-0.0850394,-1.21772 -1.22362,-1.57795 -2.57008,-1.57795l-62.4661 0.0330709c-0.91063,0 -1.84134,0.262205 -2.37756,0.927165 0.0271654,-0.0838583 0.0566929,-0.165354 0.0909449,-0.244488l-0.0909449 0.106299c0.13937,-0.432283 0.380315,-0.820866 0.695669,-1.13622 0.516142,-0.516142 1.23189,-0.838583 2.01142,-0.845669l62.1909 0.106299c0.775984,0 1.48583,0.323622 1.99961,0.837402 0.437008,0.437008 0.734646,1.01693 0.817323,1.65591l-0.0212598 0 0.0212598 0.138189zm-68.876 0.486614l-0.00708661 0.0011811c0.00708661,-0.174803 0.0212598,-0.346063 0.0401575,-0.512598l-0.0023622 0.126378 0 0.0354331 0.0023622 -0.023622 -0.0023622 0.126378 -0.0011811 0.239764 0 0.138189 -0.0366142 0.00826772 0.00708661 -0.13937z"
   id="path4093" />
  <path
   class="fil21"
   d="M4.96654 2.08819l62.1909 -0.0767717c1.05354,0.0011811 2.0126,0.434646 2.70591,1.12795 0.694488,0.694488 1.12795,1.65709 1.1315,2.70945l0 0.0023622 -0.188976 48.4689c-0.00472441,1.05 -0.438189,2.0126 -1.13386,2.70827 -0.694488,0.694488 -1.65118,1.12913 -2.70354,1.12913 -11.615,0 -16.3878,0.00826772 -22.1114,0.0141732 -9.55157,0.011811 -20.4874,0.0271654 -40.0205,0.0271654 -1.06181,0 -2.0315,-0.335433 -2.7248,-0.948425 -0.667323,-0.58937 -1.08071,-1.43268 -1.08307,-2.47677l0.100394 -48.8492c-0.0023622,-1.05236 0.427559,-2.00787 1.11969,-2.7 0.694488,-0.694488 1.65945,-1.12913 2.71535,-1.13622l0.0023622 0zm62.1909 0.920079l-62.1909 0.0767717c-0.779528,0.00708661 -1.49528,0.329528 -2.01142,0.845669 -0.512598,0.512598 -0.830315,1.2189 -0.829134,1.9937l-0.100394 48.8492c0.0011811,0.733465 0.287008,1.32402 0.747638,1.73031 0.506693,0.447638 1.24016,0.693307 2.06339,0.693307 22.9465,0 32.1307,-0.011811 40.0205,-0.0224409 7.6311,-0.00826772 14.6539,-0.0188976 22.1114,-0.0188976 0.777165,0 1.48465,-0.32126 1.99724,-0.833858 0.517323,-0.517323 0.840945,-1.23071 0.843307,-2.00433l0 -0.0023622 0.188976 -48.4689c-0.00354331,-0.773622 -0.325984,-1.48583 -0.840945,-2.00079 -0.51378,-0.51378 -1.22362,-0.837402 -1.99961,-0.837402z"
   id="path4095" />
  <path
   class="fil22"
   d="M5.09882 9.48898l-0.0814961 41.0575c0.11811,1.43031 1.5189,2.47323 2.8748,2.4685l56.1803 -0.0874016c1.95827,-0.0519685 2.85236,-1.30394 2.91969,-2.94567l-0.0590551 -40.5461c0,-1.72913 -1.08189,-2.39764 -3.03071,-2.39882l-56.3598 -0.0271654c-1.79764,0 -2.4437,0.761811 -2.4437,2.47913z"
   id="path4097" />
  <path
   class="fil23"
   d="M6.09449 9.48898l-0.0814961 40.9819c0.034252,0.408661 0.258661,0.775984 0.575197,1.04882 0.364961,0.312992 0.844488,0.500787 1.30394,0.499606l56.1567 -0.0874016c0.647244,-0.0165354 1.11142,-0.204331 1.41142,-0.505512l-0.0023622 -0.0011811c0.340157,-0.343701 0.51378,-0.866929 0.538583,-1.4811l-0.0590551 -40.5083 -0.00354331 0c0,-0.51378 -0.12874,-0.842126 -0.370866,-1.01693l0.0011811 -0.0011811c-0.329528,-0.23622 -0.898819,-0.431102 -1.66181,-0.431102l-56.3598 -0.0023622c-0.616535,0 -1.00157,0.164173 -1.18583,0.349606l-0.00354331 0.00354331c-0.179528,0.180709 -0.255118,0.562205 -0.255118,1.15157l-0.00354331 0z"
   id="path4099" />
  <g
   id="_150816808">
   <g
   id="g4102">
    <path
   id="_150411976"
   class="fil24"
   d="M6.06614 23.478l0.722835 -0.144094c4.92047,-0.916535 9.96142,-0.26811 14.7283,3.20079 2.72835,2.00551 5.19331,3.8622 7.41024,5.54409 11.9469,9.30591 15.6319,12.1453 25.0346,8.51575 3.16535,-1.16693 7.40433,-4.22598 11.9646,-6.98504l0.0011811 0.681496c-4.50827,2.74488 -8.69764,5.77205 -11.8358,6.93071 -9.60354,3.71102 -13.3276,0.840945 -25.4114,-8.57835 -2.19449,-1.66181 -4.6311,-3.49606 -7.40197,-5.54055 -4.52362,-3.27638 -9.39567,-3.87756 -14.2087,-2.99173 -0.336614,0.0625984 -0.670866,0.132283 -1.00512,0.207874l0.0011811 -0.840945z" />
    <path
   id="_150410752"
   class="fil25"
   d="M6.06496 24.4276c0.43937,-0.0956693 0.881102,-0.180709 1.3252,-0.253937 4.93937,-0.839764 9.97205,-0.231496 14.7732,3.09331 2.72598,1.92165 5.23346,3.72638 7.51417,5.38583 11.7579,9.06614 15.5374,11.9209 24.8232,8.58071 3.06732,-1.00394 7.10197,-3.70866 11.4272,-6.18307l0.0011811 0.661417c-4.28031,2.46378 -8.27362,5.14843 -11.3138,6.14528 -9.47717,3.42874 -13.2921,0.544488 -25.1835,-8.63031 -2.25472,-1.64291 -4.72913,-3.4252 -7.49528,-5.38465 -4.5685,-3.13819 -9.44409,-3.69921 -14.2819,-2.89134 -0.530315,0.0885827 -1.06181,0.193701 -1.59213,0.31063l0.0023622 -0.833858z" />
    <path
   id="_151127384"
   class="fil26"
   d="M6.0626 25.3559c0.637795,-0.133465 1.2815,-0.248031 1.92756,-0.349606 4.95472,-0.753543 9.9874,-0.191339 14.8169,2.98346 2.72362,1.84488 5.27598,3.59409 7.61929,5.24055 11.5689,8.82047 15.4488,11.6917 24.6154,8.63622 2.96575,-0.845669 6.79488,-3.21378 10.8886,-5.40591l0 0.64252c-4.05472,2.19094 -7.84961,4.54488 -10.7917,5.39291 -9.35079,3.14055 -13.2591,0.243307 -24.9531,-8.6811 -2.31614,-1.62402 -4.83425,-3.35906 -7.59567,-5.23583 -4.60394,-2.99882 -9.48543,-3.50787 -14.3469,-2.78622 -0.72874,0.108661 -1.45512,0.239764 -2.1815,0.392126l0.0011811 -0.829134z" />
    <path
   id="_155633872"
   class="fil27"
   d="M6.06142 26.2618c0.839764,-0.162992 1.68189,-0.303543 2.52638,-0.41811 4.97717,-0.670866 9.99921,-0.152362 14.8642,2.87244 2.72598,1.76339 5.31614,3.46299 7.72087,5.08701 11.3846,8.57835 15.3614,11.4709 24.4087,8.69764 2.85827,-0.701575 6.48661,-2.74134 10.35,-4.66299l0.0011811 0.628346c-3.83504,1.92402 -7.43268,3.9626 -10.2697,4.66181 -9.22441,2.85945 -13.2236,-0.0484252 -24.7264,-8.72717 -2.37874,-1.60866 -4.93465,-3.28583 -7.69016,-5.08346 -4.65,-2.85354 -9.53031,-3.32362 -14.4177,-2.68937 -0.925984,0.124016 -1.84961,0.277559 -2.76969,0.455906l0.0023622 -0.822047z" />
    <path
   id="_155634568"
   class="fil28"
   d="M6.05906 27.1417c1.04055,-0.183071 2.08346,-0.336614 3.12992,-0.459449 4.99252,-0.588189 10.011,-0.112205 14.9067,2.7626 2.72244,1.68071 5.3563,3.32717 7.82717,4.93583 11.1969,8.33976 15.2646,11.2394 24.1984,8.75197 2.75079,-0.552756 6.17598,-2.28898 9.81142,-3.95315l0.0023622 0.612992c-3.61535,1.6689 -7.01693,3.41339 -9.75118,3.97323 -9.09567,2.57362 -13.1882,-0.349606 -24.4961,-8.7815 -2.4378,-1.58504 -5.0374,-3.21496 -7.78346,-4.92874 -4.69606,-2.71181 -9.5752,-3.13937 -14.4898,-2.58543 -1.12323,0.127559 -2.24055,0.28937 -3.35669,0.479528l0.0011811 -0.807874z" />
    <path
   id="_155635576"
   class="fil29"
   d="M6.05787 27.9874c1.23661,-0.184252 2.48031,-0.347244 3.7311,-0.47126 5.00906,-0.506693 10.0252,-0.0732283 14.9516,2.65748 2.72126,1.59685 5.39882,3.19134 7.93346,4.77992 11.0067,8.09764 15.1748,11.0161 23.9882,8.8122 2.63622,-0.416929 5.86063,-1.87441 9.27402,-3.28819l0 0.602362c-3.39803,1.42913 -6.60591,2.89488 -9.22795,3.32362 -8.96811,2.2878 -13.1563,-0.647244 -24.2669,-8.83465 -2.50039,-1.5685 -5.13661,-3.14646 -7.88386,-4.77874 -4.73622,-2.56535 -9.6189,-2.95276 -14.5559,-2.47795 -1.32047,0.127559 -2.63386,0.288189 -3.94488,0.473622l0.0011811 -0.798425z" />
    <path
   id="_155638888"
   class="fil30"
   d="M6.05551 28.7988c1.43858,-0.170079 2.88189,-0.32126 4.33346,-0.444094 5.02913,-0.422835 10.0358,-0.0377953 14.9988,2.54646 2.71772,1.51535 5.43425,3.05906 8.0315,4.63228 10.8201,7.85315 15.0886,10.7823 23.7815,8.86535 2.51811,-0.294094 5.54409,-1.48701 8.73661,-2.6622l0 0.596457c-3.18307,1.19409 -6.19961,2.40118 -8.70709,2.70709 -8.84173,2.00197 -13.1185,-0.947244 -24.0366,-8.8878 -2.56063,-1.54606 -5.23937,-3.07323 -7.97835,-4.62402 -4.77992,-2.4248 -9.66378,-2.76969 -14.6268,-2.37992 -1.5189,0.120472 -3.02598,0.266929 -4.53425,0.427559l0.0011811 -0.777165z" />
    <path
   id="_155634976"
   class="fil31"
   d="M6.05433 29.5642c1.64173,-0.134646 3.28228,-0.262205 4.93583,-0.374409 5.04449,-0.338976 10.0465,0.00354331 15.0402,2.4378 2.71772,1.43622 5.47677,2.92677 8.13898,4.47874 10.6311,7.61339 14.9917,10.5614 23.5713,8.92795 2.39409,-0.184252 5.22283,-1.12795 8.19803,-2.08346l0.0011811 0.590551c-2.97283,0.976772 -5.79567,1.94291 -8.18268,2.13543 -8.71654,1.71969 -13.0902,-1.24252 -23.8146,-8.9374 -2.62087,-1.53071 -5.33976,-3.00709 -8.07047,-4.47638 -4.8248,-2.2748 -9.7122,-2.57953 -14.6976,-2.27362 -1.7126,0.105118 -3.41457,0.222047 -5.12126,0.340157l0.0011811 -0.765354z" />
    <path
   id="_155633656"
   class="fil32"
   d="M6.05315 30.2846c1.84488,-0.0744094 3.68268,-0.165354 5.53819,-0.258661 5.05984,-0.259843 10.0583,0.0472441 15.085,2.32795 2.71535,1.35709 5.51811,2.79567 8.24291,4.32874 10.4409,7.3689 14.9031,10.3323 23.361,8.98701 2.2689,-0.0779528 4.90039,-0.797244 7.65945,-1.54606l0.0011811 0.584646c-2.7626,0.772441 -5.39764,1.51772 -7.66181,1.60394 -8.58898,1.43622 -13.0535,-1.54252 -23.5807,-8.98937 -2.68583,-1.51299 -5.44134,-2.93268 -8.17205,-4.32165 -4.86496,-2.13543 -9.75591,-2.39646 -14.765,-2.17087 -1.90866,0.0814961 -3.80197,0.159449 -5.70945,0.207874l0.0011811 -0.753543z" />
    <path
   id="_155641144"
   class="fil33"
   d="M6.05197 30.9614c2.05157,0.00708661 4.08661,-0.0283465 6.13937,-0.0968504 5.07638,-0.177165 10.0713,0.0826772 15.1311,2.21575 2.70945,1.27677 5.55591,2.66339 8.34213,4.17638 10.2602,7.12559 14.8169,10.1043 23.1567,9.04488 2.13543,0.0153543 4.57441,-0.498425 7.11969,-1.05472l0.0011811 0.584646c-2.55472,0.583465 -5.00551,1.12559 -7.14094,1.11732 -8.46024,1.14921 -13.0169,-1.8378 -23.3516,-9.03898 -2.7437,-1.49764 -5.54173,-2.86772 -8.26772,-4.17165 -4.9063,-1.99252 -9.79961,-2.21575 -14.8346,-2.06929 -2.10118,0.0590551 -4.18465,0.0720472 -6.29646,0.0259843l0.0011811 -0.733465z" />
    <path
   id="_155634664"
   class="fil34"
   d="M6.05079 31.5827c2.26417,0.11811 4.48819,0.158268 6.74055,0.116929 5.09528,-0.092126 10.0854,0.126378 15.1748,2.10591 2.71299,1.19764 5.59961,2.53346 8.44843,4.02992 10.0701,6.8811 14.7236,9.8752 22.9465,9.09803 1.99724,0.103937 4.2437,-0.230315 6.5811,-0.616535l0.0011811 0.584646c-2.35276,0.411024 -4.61575,0.772441 -6.62008,0.68622 -8.3315,0.858661 -12.9827,-2.14134 -23.1201,-9.08858 -2.80748,-1.4811 -5.64567,-2.79921 -8.36339,-4.0252 -4.95118,-1.84606 -9.84449,-2.02677 -14.9055,-1.96654 -2.29134,0.0259843 -4.56732,-0.0389764 -6.88465,-0.204331l0.0011811 -0.720472z" />
    <path
   id="_155637208"
   class="fil35"
   d="M6.04961 32.1484c2.47913,0.259843 4.89567,0.392126 7.34055,0.38622 5.11535,-0.011811 10.0961,0.164173 15.222,2.00197 2.70827,1.1126 5.63858,2.39528 8.54882,3.8752 9.88465,6.63898 14.635,9.64843 22.7386,9.15827 1.86024,0.170079 3.91535,-0.00354331 6.0437,-0.23622l0.0023622 0.591732c-2.15315,0.256299 -4.22835,0.457087 -6.09685,0.296457 -8.20866,0.579921 -12.9496,-2.43425 -22.8957,-9.13819 -2.86535,-1.45866 -5.74724,-2.73071 -8.46024,-3.87283 -4.99016,-1.70079 -9.88819,-1.84134 -14.974,-1.86614 -2.48031,-0.0106299 -4.93819,-0.174803 -7.47047,-0.485433l0.0011811 -0.711024z" />
    <path
   id="_155636944"
   class="fil36"
   d="M6.04843 32.6622c2.70118,0.427559 5.30315,0.672047 7.94291,0.708661 5.12953,0.0744094 10.1067,0.206693 15.2657,1.89213 2.70709,1.03228 5.67992,2.26417 8.65394,3.72283 9.69567,6.39803 14.5429,9.42283 22.5307,9.21732 1.70787,0.230315 3.57756,0.185433 5.50394,0.0933071l0.0011811 0.603543c-1.95472,0.115748 -3.84567,0.179528 -5.5748,-0.0401575 -8.08228,0.294094 -12.913,-2.73543 -22.6642,-9.19134 -2.93031,-1.44331 -5.85,-2.65748 -8.55827,-3.71811 -5.03386,-1.5626 -9.93307,-1.65709 -15.0425,-1.76457 -2.66693,-0.0531496 -5.30906,-0.337795 -8.05984,-0.825591l0.0011811 -0.698031z" />
    <path
   id="_155639656"
   class="fil37"
   d="M6.04724 33.1169c2.92441,0.625984 5.71772,1.0063 8.54528,1.0937 5.15079,0.154724 10.1173,0.242126 15.3083,1.7811 2.70591,0.949606 5.72008,2.12835 8.76024,3.57283 9.50551,6.15236 14.452,9.19488 22.3193,9.27165 1.56142,0.276378 3.24094,0.343701 4.96654,0.364961l0.0011811 0.614173c-1.75866,0 -3.47126,-0.0496063 -5.05276,-0.32126 -7.95472,0.011811 -12.8823,-3.02835 -22.4362,-9.24094 -2.99055,-1.42205 -5.94921,-2.58543 -8.65276,-3.56575 -5.07874,-1.42205 -9.97913,-1.47638 -15.1122,-1.66181 -2.85472,-0.102756 -5.67992,-0.523228 -8.64803,-1.21417l0.0011811 -0.694488z" />
    <path
   id="_155640568"
   class="fil38"
   d="M6.04724 33.5173c3.15591,0.853937 6.12992,1.39134 9.14409,1.53071 5.16614,0.237402 10.1327,0.281102 15.3555,1.67008 2.70354,0.869291 5.7626,1.99606 8.86063,3.41929 9.3189,5.91378 14.3634,8.97047 22.1126,9.33189 1.40669,0.308268 2.89843,0.458268 4.42795,0.572835l0 0.350787c-0.0165354,0.0944882 -0.0389764,0.186614 -0.0637795,0.274016 -1.54488,-0.0956693 -3.05197,-0.23622 -4.46457,-0.535039 -7.82835,-0.275197 -12.8492,-3.32835 -22.2094,-9.28937 -3.05079,-1.40669 -6.05197,-2.52047 -8.74961,-3.41693 -5.12008,-1.27913 -10.0217,-1.29331 -15.1831,-1.56024 -3.03189,-0.16063 -6.03425,-0.73937 -9.23268,-1.65827l0.0023622 -0.689764z" />
    <path
   id="_155633488"
   class="fil39"
   d="M6.04606 33.861c3.39449,1.11378 6.54685,1.82717 9.74646,2.02441 5.18268,0.317717 10.1445,0.317717 15.398,1.5626 2.70236,0.784252 5.80276,1.86142 8.96575,3.26693 9.13346,5.66929 14.2713,8.7437 21.9059,9.38622 1.21063,0.315354 2.48031,0.529134 3.7748,0.708661 -0.0862205,0.235039 -0.206693,0.438189 -0.366142,0.602362 -1.21181,-0.161811 -2.39646,-0.356693 -3.5315,-0.64252 -7.69724,-0.561024 -12.8114,-3.62953 -21.978,-9.34488 -3.10984,-1.38543 -6.15472,-2.44961 -8.84291,-3.26575 -5.16378,-1.13386 -10.0713,-1.09724 -15.2516,-1.45394 -3.2126,-0.219685 -6.3874,-0.980315 -9.82205,-2.15669l0.0011811 -0.687402z" />
    <path
   id="_155638192"
   class="fil40"
   d="M6.04488 34.1504c3.64488,1.39724 6.97087,2.30669 10.3465,2.57244 5.20157,0.399213 10.1563,0.356693 15.4441,1.45276 2.70118,0.701575 5.84528,1.72441 9.07087,3.11575 8.94449,5.42598 14.1803,8.51457 21.6957,9.44528 0.920079,0.279921 1.87087,0.505512 2.83819,0.709843 -0.238583,0.230315 -0.577559,0.390945 -1.0252,0.455906 -0.662598,-0.146457 -1.31457,-0.309449 -1.95118,-0.498425 -7.57205,-0.843307 -12.7772,-3.92362 -21.7488,-9.39449 -3.17362,-1.36654 -6.2563,-2.37874 -8.94331,-3.1122 -5.20394,-0.989764 -10.1114,-0.917717 -15.3201,-1.35236 -3.38268,-0.283465 -6.7311,-1.2437 -10.4079,-2.70591l0.0011811 -0.688583z" />
    <path
   id="_155634688"
   class="fil41"
   d="M6.04488 34.3854c3.89764,1.70906 7.39606,2.84055 10.9476,3.17126 5.21693,0.485433 10.1669,0.400394 15.4878,1.34055 2.70118,0.629528 5.88425,1.59921 9.17126,2.97165 8.76024,5.18386 14.0917,8.28543 21.4902,9.50197 0.500787,0.172441 1.00866,0.33189 1.52362,0.48189 -0.183071,0.0448819 -0.388583,0.0732283 -0.616535,0.0791339l-1.71732 0.0023622c-7.10551,-1.21063 -12.3449,-4.27323 -20.8654,-9.3378 -3.23386,-1.35236 -6.35551,-2.30906 -9.03661,-2.95984 -5.24764,-0.849213 -10.1575,-0.738189 -15.3933,-1.25315 -3.55512,-0.349606 -7.06654,-1.52835 -10.9925,-3.30709l0.0011811 -0.690945z" />
    <path
   id="_155639080"
   class="fil42"
   d="M6.04488 34.5685c4.16339,2.04803 7.82717,3.42283 11.5476,3.82559 5.23583,0.56811 10.1811,0.437008 15.5327,1.23189 2.69882,0.545669 5.92205,1.46457 9.27756,2.81457 8.43543,4.8685 13.8295,7.96299 20.9386,9.49252l-2.97047 0.00472441c-5.84291,-1.63465 -10.8402,-4.51654 -18.1535,-8.75433 -3.29409,-1.33583 -6.45591,-2.24173 -9.13465,-2.8122 -5.29016,-0.702756 -10.1988,-0.544488 -15.4583,-1.14803 -3.72283,-0.427559 -7.39843,-1.8437 -11.5807,-3.95669l0.0011811 -0.698031z" />
    <path
   id="_155635984"
   class="fil43"
   d="M6.04488 34.6937c4.43504,2.42008 8.26063,4.05945 12.1476,4.53898 5.25354,0.646063 10.1929,0.47126 15.5787,1.11732 2.69764,0.468898 5.96457,1.33583 9.3815,2.66929 7.37362,4.13386 12.5362,7.05591 18.548,8.91614l-2.34921 0.00354331c-5.14488,-1.8189 -9.89528,-4.51181 -16.3807,-8.17205 -3.35787,-1.31575 -6.55984,-2.17205 -9.23031,-2.65984 -5.33386,-0.558661 -10.2449,-0.357874 -15.5291,-1.04055 -3.88819,-0.50315 -7.7185,-2.18504 -12.1689,-4.65945l0.0023622 -0.713386z" />
    <path
   id="_155635600"
   class="fil44"
   d="M6.0437 34.7776c4.71732,2.8063 8.70118,4.72677 12.7476,5.29134 5.27244,0.731102 10.2059,0.514961 15.6236,1.0122 2.69409,0.380315 6.00354,1.2 9.48307,2.5122 6.60118,3.59055 11.5323,6.32953 16.8827,8.34331l-2.07047 0.00354331c-4.65591,-1.89567 -9.15945,-4.39961 -14.9882,-7.5874 -3.41693,-1.29449 -6.66142,-2.10354 -9.32362,-2.5063 -5.37756,-0.415748 -10.2921,-0.175984 -15.5988,-0.947244 -4.04882,-0.582283 -8.03622,-2.53701 -12.7571,-5.39528l0.0011811 -0.726378z" />
    <path
   id="_155635456"
   class="fil45"
   d="M6.0437 34.8106c5.00787,3.22441 9.14409,5.44488 13.3476,6.09449 5.2878,0.814961 10.2177,0.553937 15.6685,0.902362 2.69291,0.301181 6.0437,1.06417 9.58701,2.36575 5.96339,3.13346 10.6583,5.68937 15.528,7.76457l-1.92047 0.00354331c-4.2685,-1.90039 -8.51811,-4.21299 -13.7776,-7.00157 -3.47953,-1.27913 -6.76299,-2.0315 -9.42638,-2.3563 -5.41535,-0.274016 -10.3335,0.00354331 -15.665,-0.842126 -4.2,-0.669685 -8.34094,-2.91614 -13.3429,-6.18189l0.0011811 -0.748819z" />
    <path
   id="_155635288"
   class="fil46"
   d="M6.0437 34.8012c5.30787,3.65906 9.58819,6.20433 13.9476,6.94016 5.30906,0.897638 10.2307,0.595276 15.7146,0.797244 2.69055,0.219685 6.08504,0.924803 9.69094,2.20748 5.40945,2.74961 9.86339,5.11772 14.3492,7.19291l-1.82598 0.0023622c-3.93898,-1.86496 -7.93583,-3.98504 -12.6921,-6.41693 -3.54213,-1.26024 -6.86575,-1.96299 -9.52087,-2.2063 -5.45906,-0.126378 -10.3795,0.194882 -15.737,-0.735827 -4.35118,-0.76063 -8.63622,-3.32244 -13.9276,-7.01575l0.0011811 -0.765354z" />
    <path
   id="_155635120"
   class="fil47"
   d="M6.0437 34.7492c5.61378,4.1185 10.0453,6.99803 14.5488,7.82598 5.32441,0.979134 10.2437,0.637795 15.7571,0.689764 2.68937,0.13937 6.12874,0.798425 9.7937,2.05748 4.92165,2.40236 9.12874,4.58504 13.2874,6.61654l-1.77402 0.0023622c-3.64488,-1.79291 -7.38189,-3.71929 -11.6787,-5.82874 -3.60118,-1.2437 -6.96496,-1.89567 -9.61535,-2.0563 -5.50157,0.0129921 -10.4244,0.381496 -15.8031,-0.635433 -4.49882,-0.84685 -8.92441,-3.73819 -14.5169,-7.87323l0.0011811 -0.798425z" />
    <path
   id="_155638984"
   class="fil48"
   d="M6.04488 34.6583c5.92795,4.59331 10.4988,7.83307 15.1465,8.75669 5.34331,1.06063 10.2555,0.673228 15.802,0.575197 2.69173,0.0614173 6.1689,0.66378 9.89882,1.90984 4.47283,2.09173 8.42598,4.08425 12.2941,6.03898l-1.7622 0.00354331c-3.3626,-1.68543 -6.82913,-3.42283 -10.6925,-5.24528 -3.66142,-1.22244 -7.06772,-1.8248 -9.71102,-1.9063 -5.54646,0.158268 -10.4705,0.564567 -15.8776,-0.530315 -4.64055,-0.946063 -9.20551,-4.18346 -15.1004,-8.78031l0.0023622 -0.822047z" />
    <path
   id="_155634040"
   class="fil49"
   d="M6.04488 34.5272c6.2563,5.08819 10.9606,8.70118 15.7453,9.72283 5.3622,1.14567 10.272,0.712205 15.8492,0.472441 2.68583,-0.0283465 6.20787,0.525591 10.0039,1.75276 4.05,1.80709 7.74331,3.61535 11.3398,5.46496l-1.75984 0.0023622c-3.08858,-1.5626 -6.27992,-3.10394 -9.73937,-4.65827 -3.72402,-1.20827 -7.16929,-1.75512 -9.80906,-1.75157 -5.58661,0.297638 -10.513,0.747638 -15.9461,-0.434646 -4.77874,-1.03701 -9.47717,-4.63701 -15.6862,-9.71575l0.0023622 -0.855118z" />
    <path
   id="_155639416"
   class="fil50"
   d="M6.04488 34.3606c6.58819,5.59606 11.426,9.60236 16.3465,10.7303 5.37756,1.2248 10.2827,0.748819 15.8941,0.354331 2.68465,-0.105118 6.24803,0.401575 10.1031,1.60748 3.65669,1.54961 7.08425,3.16417 10.4173,4.8874l-1.7811 0.0023622c-2.81811,-1.4126 -5.7189,-2.76142 -8.7874,-4.07244 -3.79016,-1.18937 -7.27205,-1.68661 -9.90591,-1.60512 -5.63031,0.442913 -10.5579,0.936614 -16.0146,-0.324803 -4.91693,-1.13858 -9.74528,-5.11181 -16.2732,-10.689l0.0011811 -0.890551z" />
    <path
   id="_155636896"
   class="fil51"
   d="M6.04488 34.1622c6.92953,6.1252 11.8961,10.5366 16.95,11.7638 5.39173,1.3063 10.2886,0.791339 15.9331,0.248031 2.68346,-0.186614 6.28937,0.261024 10.2106,1.45157 3.27756,1.30866 6.4252,2.74016 9.4937,4.31457l-1.81772 0.00354331c-2.53701,-1.24961 -5.13425,-2.40709 -7.82717,-3.49016 -3.84567,-1.16693 -7.37362,-1.61339 -10.0016,-1.44803 -5.67165,0.585827 -10.6016,1.11732 -16.0843,-0.227953 -5.04685,-1.23898 -10.0016,-5.60433 -16.8579,-11.6858l0.0011811 -0.929528z" />
    <path
   id="_155633848"
   class="fil52"
   d="M6.04606 33.9402c7.27795,6.66024 12.3661,11.4874 17.5476,12.822 5.41063,1.38898 10.3028,0.829134 15.9815,0.138189 2.6811,-0.269291 6.32953,0.129921 10.3134,1.30276 2.91024,1.09134 5.76614,2.32913 8.56535,3.73701l-1.87205 0.00354331c-2.24291,-1.06772 -4.52362,-2.0315 -6.84213,-2.90787 -3.90827,-1.14449 -7.47402,-1.54252 -10.0984,-1.29449 -5.71535,0.72874 -10.6465,1.30276 -16.1516,-0.122835 -5.17559,-1.34409 -10.2567,-6.10394 -17.4461,-12.7134l0.0023622 -0.964961z" />
    <path
   id="_155633704"
   class="fil53"
   d="M6.04606 33.6862c7.63583,7.21535 12.8457,12.4701 18.1465,13.9122 5.43189,1.4752 10.3146,0.869291 16.0264,0.0318898 2.67874,-0.350787 6.37087,-0.00472441 10.415,1.14685 2.55472,0.890551 5.10591,1.93819 7.6252,3.16417l-1.96535 0.0023622c-1.92165,-0.869291 -3.85866,-1.63937 -5.80039,-2.32087 -3.96969,-1.13031 -7.58031,-1.47283 -10.1941,-1.14331 -5.75906,0.874016 -10.6925,1.48937 -16.2236,-0.0212598 -5.29724,-1.44921 -10.5,-6.62835 -18.0307,-13.7717l0.0011811 -1.00039z" />
    <path
   id="_155638432"
   class="fil54"
   d="M6.04724 33.4075c8.00079,7.7811 13.3264,13.4787 18.7453,15.0272 5.44724,1.55669 10.3287,0.908268 16.0713,-0.0791339 2.67756,-0.429921 6.40866,-0.134646 10.5201,0.999213 2.19449,0.703937 4.42087,1.56142 6.6378,2.58661l-2.09409 0.00354331c-1.56496,-0.659055 -3.1311,-1.23661 -4.68189,-1.73622 -4.03346,-1.1126 -7.67953,-1.40315 -10.2921,-0.993307 -5.80039,1.01575 -10.7374,1.6748 -16.2921,0.080315 -5.41772,-1.55669 -10.7362,-7.15984 -18.6165,-14.8512l0.0023622 -1.03701z" />
    <path
   id="_155639896"
   class="fil55"
   d="M6.04724 33.1063l0.252756 0.24685c8.22992,8.22874 13.6122,14.2772 19.0937,15.9154 5.46378,1.64173 10.3406,0.950787 16.1161,-0.184252 2.67638,-0.511417 6.45,-0.271654 10.6252,0.842126 1.82598,0.532677 3.70157,1.20118 5.58661,2.01496l-2.2878 0.00354331c-1.15984,-0.437008 -2.30787,-0.819685 -3.43937,-1.15039 -4.09134,-1.09606 -7.77756,-1.33465 -10.3854,-0.843307 -5.84291,1.15984 -10.7823,1.85906 -16.3618,0.183071 -5.53228,-1.66063 -10.9689,-7.70315 -19.2024,-15.9461l0.0023622 -1.08189z" />
   </g>
   <g
   id="g4136">
    <path
   id="_155634784"
   class="fil56"
   d="M8.66811 7.98425c-0.844488,1.44094 -1.70197,2.99055 -2.57953,4.65591l0.00472441 -2.5689c0.385039,-0.712205 0.765354,-1.40315 1.14449,-2.07165 0.0944882,-0.00944882 0.196063,-0.0153543 0.304724,-0.0153543l1.12559 0z" />
    <path
   id="_155637952"
   class="fil57"
   d="M8.58189 7.98425c-0.819685,1.33819 -1.64646,2.77559 -2.49331,4.31693l0.00590551 -2.53346c0.337795,-0.6 0.672047,-1.18346 1.00512,-1.75157 0.131102,-0.0200787 0.27874,-0.0318898 0.442913,-0.0318898l1.03937 0z" />
    <path
   id="_155636272"
   class="fil58"
   d="M8.53583 7.98425c-0.804331,1.25669 -1.61811,2.60551 -2.44606,4.05l0.00472441 -2.50276c0.298819,-0.511417 0.597638,-1.00866 0.894094,-1.49528 0.158268,-0.0330709 0.34252,-0.0519685 0.553937,-0.0519685l0.993307 0z" />
    <path
   id="_155638792"
   class="fil59"
   d="M8.51811 7.98425c-0.800787,1.19173 -1.60866,2.47205 -2.42835,3.84331l0.00472441 -2.33858 0.00354331 0 0.0011811 -0.134646c0.269291,-0.442913 0.539764,-0.876378 0.809055,-1.29921 0.175984,-0.0437008 0.38622,-0.0708661 0.634252,-0.0708661l0.975591 0z" />
    <path
   id="_155639776"
   class="fil60"
   d="M8.54882 7.98425c-0.812598,1.14921 -1.6311,2.38346 -2.45906,3.70748l0.00472441 -2.20276 0.00354331 0 0.00472441 -0.24685c0.256299,-0.401575 0.512598,-0.793701 0.767717,-1.17756 0.183071,-0.0496063 0.406299,-0.080315 0.672047,-0.080315l1.0063 0z" />
    <path
   id="_155637472"
   class="fil61"
   d="M8.62913 7.98425c-0.839764,1.12677 -1.68425,2.33858 -2.53937,3.64252l0.00472441 -2.1378 0.00354331 0 0.00708661 -0.296457c0.258661,-0.385039 0.514961,-0.761811 0.77126,-1.12913 0.18189,-0.0496063 0.402756,-0.0791339 0.666142,-0.0791339l1.08661 0z" />
    <path
   id="_155641048"
   class="fil62"
   d="M8.75669 7.98425c-0.884646,1.11969 -1.77165,2.32795 -2.66693,3.63425l0.00472441 -2.12953 0.00354331 0 0.00708661 -0.279921c0.277559,-0.395669 0.553937,-0.783071 0.831496,-1.16102 0.168898,-0.0401575 0.370866,-0.0637795 0.605906,-0.0637795l1.21417 0z" />
    <path
   id="_155640928"
   class="fil63"
   d="M8.94094 7.98425c-0.947244,1.12913 -1.89331,2.35512 -2.85118,3.68622l0.00472441 -2.1815 0.00354331 0 0.00354331 -0.209055c0.315354,-0.429921 0.629528,-0.84685 0.943701,-1.25433 0.145276,-0.0259843 0.31063,-0.0413386 0.497244,-0.0413386l1.39843 0z" />
    <path
   id="_155640088"
   class="fil64"
   d="M9.19016 7.98425c-1.03228,1.15276 -2.0622,2.41299 -3.10039,3.79016l0.00472441 -2.28543 0.00354331 0 0 -0.0862205c0.369685,-0.48189 0.740551,-0.948425 1.10906,-1.40079 0.103937,-0.011811 0.214961,-0.0177165 0.335433,-0.0177165l1.64764 0z" />
    <path
   id="_155633800"
   class="fil65"
   d="M9.50906 7.98425c-1.14213,1.19173 -2.27598,2.50276 -3.41929,3.94843l0.00472441 -2.35157c0.444094,-0.551575 0.887008,-1.08307 1.3311,-1.59449l0.116929 -0.0023622 1.96654 0z" />
    <path
   id="_155635672"
   class="fil66"
   d="M9.90354 7.98425c-1.27795,1.2437 -2.54291,2.62441 -3.81378,4.16102l0.00354331 -2.35157c0.532677,-0.630709 1.06417,-1.23307 1.59803,-1.80945l2.2122 0z" />
    <path
   id="_155638360"
   class="fil67"
   d="M10.3819 7.98425c-1.44449,1.30394 -2.86654,2.7685 -4.29331,4.41614l0.00472441 -2.34094c0.643701,-0.727559 1.28622,-1.41969 1.9311,-2.0752l2.35748 0z" />
    <path
   id="_155635216"
   class="fil68"
   d="M10.95 7.98425c-1.64291,1.3748 -3.25276,2.93268 -4.86142,4.7126l0.00472441 -2.33504c0.778346,-0.842126 1.55551,-1.63228 2.3374,-2.37756l2.51929 0z" />
    <path
   id="_155636752"
   class="fil69"
   d="M11.6102 7.98425c-1.87795,1.45276 -3.70039,3.11811 -5.52283,5.04685l0.00472441 -2.33386c0.936614,-0.969685 1.87441,-1.87205 2.82047,-2.71299l2.69764 0z" />
    <path
   id="_155640160"
   class="fil70"
   d="M12.372 7.98425c-2.15079,1.54134 -4.22362,3.3248 -6.28583,5.42008l0.00472441 -2.33268c1.12087,-1.11732 2.24764,-2.14252 3.38858,-3.0874l2.89252 0z" />
    <path
   id="_155637136"
   class="fil71"
   d="M13.2248 7.98425c-2.4626,1.63701 -4.80945,3.54921 -7.13858,5.82638l0.00472441 -2.33268c1.33228,-1.27795 2.67165,-2.43661 4.03701,-3.4937l3.09685 0z" />
    <path
   id="_155637064"
   class="fil72"
   d="M14.1697 7.98425c-2.81339,1.74331 -5.46496,3.7878 -8.08465,6.25748l0.00472441 -2.33858c1.56732,-1.44921 3.14528,-2.74606 4.76811,-3.9189l3.31181 0z" />
    <path
   id="_155638408"
   class="fil73"
   d="M15.1866 7.98425c-3.19724,1.86024 -6.17244,4.04291 -9.10276,6.7122l0.00472441 -2.33976c1.8248,-1.63346 3.66969,-3.07677 5.57835,-4.37244l3.51969 0z" />
    <path
   id="_155639560"
   class="fil74"
   d="M16.2484 7.98425c-3.60354,1.98898 -6.91654,4.31575 -10.1657,7.18465l0.00472441 -2.34213c2.10236,-1.82362 4.23543,-3.41811 6.46181,-4.84252l3.69921 0z" />
    <path
   id="_155634376"
   class="fil75"
   d="M17.3327 7.98425c-4.02756,2.13425 -7.68071,4.60984 -11.25,7.67953l0.00472441 -2.34803c2.38937,-2.0185 4.82244,-3.7689 7.38425,-5.3315l3.86102 0z" />
    <path
   id="_155634352"
   class="fil76"
   d="M18.4063 7.98425c-4.44803,2.29724 -8.4378,4.92047 -12.3248,8.18386l0.00472441 -2.35276c2.67992,-2.21339 5.42008,-4.12323 8.33268,-5.8311l3.9874 0z" />
    <path
   id="_155638912"
   class="fil77"
   d="M19.4339 7.98425c-4.85433,2.47677 -9.17008,5.25945 -13.3535,8.70236l0.00472441 -2.35984c2.97047,-2.40591 6.01417,-4.47874 9.28228,-6.34252l4.06654 0z" />
    <path
   id="_155640448"
   class="fil78"
   d="M20.3764 7.98425c-5.22874,2.67283 -9.83858,5.61732 -14.2972,9.2315l0.00472441 -2.37402c3.25039,-2.59016 6.59173,-4.8248 10.2059,-6.85748l4.08661 0z" />
    <path
   id="_155637400"
   class="fil79"
   d="M21.2232 7.98425c-5.56181,2.88189 -10.4386,5.99646 -15.1453,9.76181l0.00472441 -2.38465c3.51024,-2.7685 7.12677,-5.16614 11.0657,-7.37717l4.0748 0z" />
    <path
   id="_155634928"
   class="fil80"
   d="M21.9461 7.98543c-5.84173,3.10157 -10.9476,6.38504 -15.8693,10.2898l0.00472441 -2.39646c3.74882,-2.93031 7.61693,-5.49685 11.8535,-7.89449l4.01102 0.0011811z" />
    <path
   id="_155637232"
   class="fil81"
   d="M22.5461 7.98543c-6.06378,3.32244 -11.3622,6.78425 -16.4705,10.8154l0.00472441 -2.40945c3.95906,-3.08268 8.04803,-5.81575 12.5362,-8.40709l3.92953 0.0011811z" />
    <path
   id="_155637496"
   class="fil82"
   d="M23.0079 7.98543c-6.22795,3.54685 -11.6787,7.18937 -16.9335,11.3362l0.00590551 -2.42362c4.1374,-3.22677 8.40945,-6.12402 13.1114,-8.91378l3.81614 0.0011811z" />
    <path
   id="_155634328"
   class="fil83"
   d="M23.3469 7.98543c-6.33189,3.77008 -11.8996,7.59094 -17.2724,11.8524l0.00472441 -2.4378c4.28622,-3.35551 8.71063,-6.4252 13.572,-9.41575l3.69567 0.0011811z" />
    <path
   id="_155638936"
   class="fil84"
   d="M23.5524 7.98543c-6.37795,3.99094 -12.0189,7.99134 -17.4791,12.3508l0.00472441 -2.45079c4.40079,-3.47835 8.93858,-6.71457 13.911,-9.90118l3.56339 0.0011811z" />
    <path
   id="_155634208"
   class="fil85"
   d="M23.6291 7.98543c-6.3626,4.20118 -12.039,8.3811 -17.5571,12.8398l0.00472441 -2.47913c4.48937,-3.59055 9.10394,-6.98622 14.1354,-10.3618l3.41693 0.0011811z" />
    <path
   id="_155640040"
   class="fil86"
   d="M23.5996 7.98543c-6.30236,4.40079 -11.9858,8.75787 -17.5287,13.3075l0.00472441 -2.49567c4.54488,-3.69449 9.20079,-7.25197 14.2429,-10.813l3.2811 0.0011811z" />
    <path
   id="_155641312"
   class="fil87"
   d="M23.3138 7.98543l-0.210236 0.259843c-6.05906,4.50118 -11.5984,8.94331 -17.0339,13.4917l0.00590551 -2.51929c4.56969,-3.79488 9.23031,-7.5 14.2406,-11.2335l2.99764 0.0011811z" />
    <path
   id="_155640640"
   class="fil88"
   d="M22.7941 7.98543l-0.675591 0.863386c-5.62559,4.46811 -10.8685,8.87362 -16.0488,13.3098l0.00472441 -2.54055c4.56614,-3.88465 9.20315,-7.73976 14.1295,-11.6339l2.59016 0.0011811z" />
    <path
   id="_155636704"
   class="fil89"
   d="M22.2449 7.98543c-0.367323,0.488976 -0.738189,0.979134 -1.11378,1.46811 -5.20276,4.41732 -10.1469,8.7685 -15.0626,13.0937l0.00472441 -2.5689c4.53543,-3.96969 9.11102,-7.95709 13.9181,-11.9941l2.25354 0.0011811z" />
    <path
   id="_155635480"
   class="fil90"
   d="M21.6744 7.98543c-0.500787,0.692126 -1.00984,1.38307 -1.52835,2.07047 -4.79764,4.35 -9.43583,8.63504 -14.0787,12.8457l0.00590551 -2.59488c4.40315,-3.98031 8.81457,-8.02087 13.3854,-12.1157l0.153543 -0.206693 2.0622 0.0011811z" />
    <path
   id="_155635792"
   class="fil91"
   d="M21.0756 7.98425c-0.624803,0.892913 -1.26378,1.78465 -1.91575,2.67402 -4.40079,4.26732 -8.72598,8.47087 -13.0925,12.5634l0.00472441 -2.63386c4.11732,-3.85394 8.2122,-7.79764 12.3803,-11.7969l0.588189 -0.806693 2.03504 0z" />
    <path
   id="_155639008"
   class="fil92"
   d="M20.4579 7.98425c-0.740551,1.09606 -1.50236,2.19094 -2.28425,3.28228 -4.01457,4.15984 -8.02795,8.25945 -12.1075,12.2303l0.00590551 -2.67047c3.82205,-3.72283 7.59331,-7.55197 11.3752,-11.4331l0.99685 -1.40906 2.01378 0z" />
    <path
   id="_155636224"
   class="fil93"
   d="M19.8213 7.98425c-0.848031,1.29803 -1.72677,2.59488 -2.6315,3.88465 -3.64252,4.03346 -7.33819,8.0126 -11.1236,11.8488l0.00590551 -2.70945c3.5185,-3.5752 6.96142,-7.2685 10.3677,-11.015 0.470079,-0.668504 0.93189,-1.33819 1.38543,-2.00906l1.99606 0z" />
    <path
   id="_155638768"
   class="fil94"
   d="M19.1622 7.98425c-0.948425,1.5 -1.93583,3 -2.95984,4.49055 -3.27874,3.88819 -6.65433,7.72559 -10.1362,11.4142l0.00472441 -2.7626c3.20315,-3.41693 6.32362,-6.95079 9.36496,-10.5331 0.595276,-0.865748 1.17992,-1.7374 1.75157,-2.60906l1.9748 0z" />
    <path
   id="_155633416"
   class="fil95"
   d="M18.4913 7.98425c-1.04291,1.70079 -2.13543,3.40157 -3.27402,5.09055 -2.92677,3.71929 -5.97756,7.39016 -9.15118,10.9217l0.00472441 -2.81575c2.88661,-3.23976 5.67283,-6.58937 8.35748,-9.98386 0.719291,-1.06772 1.41969,-2.14016 2.09882,-3.2126l1.96417 0z" />
    <path
   id="_155633368"
   class="fil96"
   d="M17.8016 7.98425c-1.13031,1.90157 -2.32205,3.80669 -3.57047,5.69528 -2.58425,3.52559 -5.30906,6.99921 -8.16496,10.3476l0.00472441 -2.88071c2.55827,-3.03898 5.01142,-6.17598 7.35,-9.34961 0.838583,-1.26732 1.65,-2.53937 2.43307,-3.8126l1.94764 0z" />
    <path
   id="_155636344"
   class="fil97"
   d="M17.0965 7.98425c-1.21063,2.10236 -2.49449,4.20945 -3.85039,6.30118 -2.25118,3.29055 -4.65236,6.54685 -7.17992,9.68858l0.00590551 -2.95512c2.22402,-2.80748 4.34409,-5.69528 6.34606,-8.61969 0.948425,-1.46693 1.86614,-2.94094 2.74606,-4.41496l1.93228 0z" />
   </g>
   <g
   id="g4180">
    <path
   id="_155638528"
   class="fil98"
   d="M65.9031 16.6783l-2.97756 1.78819c-21.4594,13.6512 -28.0937,17.6504 -43.4669,16.6335 -3.77717,-0.242126 -8.36811,-1.3689 -13.4102,-2.56063l-0.0011811 0.785433c4.91575,1.16693 9.39685,2.25354 13.0925,2.49094 15.6992,1.04291 22.4043,-3.01299 44.113,-16.8295l2.65276 -1.59213 -0.0023622 -0.715748z" />
    <path
   id="_155640328"
   class="fil99"
   d="M65.9031 16.4067c-1.52008,0.84685 -2.99291,1.65945 -4.41732,2.44134 -21.111,13.1327 -27.9307,16.9453 -43.1929,15.978 -3.50906,-0.210236 -7.68543,-1.1315 -12.2445,-2.14724l-0.0011811 0.780709c4.44567,0.995669 8.51339,1.88504 11.9457,2.08583 15.5728,0.994488 22.4563,-2.87008 43.8047,-16.1634 1.3252,-0.72874 2.69528,-1.48465 4.10787,-2.27126l-0.0023622 -0.703937z" />
    <path
   id="_155637328"
   class="fil100"
   d="M65.9031 16.2508c-2.01732,1.04528 -3.96969,2.03858 -5.85709,2.97756 -20.765,12.6154 -27.7701,16.239 -42.9213,15.3248 -3.22795,-0.179528 -6.99094,-0.920079 -11.0764,-1.76575l-0.0023622 0.770079c3.97795,0.831496 7.64409,1.54961 10.8012,1.72205 15.4406,0.940157 22.5047,-2.7378 43.4929,-15.5055 1.79291,-0.9 3.64488,-1.84252 5.56535,-2.83701l-0.0023622 -0.68622z" />
    <path
   id="_155483864"
   class="fil101"
   d="M65.9031 16.2035c-2.50866,1.20591 -4.94528,2.3374 -7.29803,3.40866 -20.4165,12.0933 -27.6071,15.528 -42.6484,14.6657 -2.93504,-0.146457 -6.28819,-0.732283 -9.90827,-1.42323l-0.0023622 0.772441c3.52087,0.673228 6.78425,1.24134 9.64961,1.38661 15.3213,0.882283 22.5591,-2.59843 43.1906,-14.8488 2.25709,-1.02756 4.59331,-2.12126 7.01929,-3.29291l-0.0023622 -0.668504z" />
    <path
   id="_155484152"
   class="fil102"
   d="M65.9031 16.2461c-2.98937,1.34173 -5.91024,2.58189 -8.73425,3.74646 -20.0681,11.5736 -27.4512,14.8217 -42.3791,14.0102 -2.6315,-0.11811 -5.57953,-0.563386 -8.74134,-1.10906l-0.0023622 0.770079c3.07205,0.533858 5.93858,0.96378 8.50039,1.08189 15.1925,0.832677 22.611,-2.46142 42.8835,-14.1921 2.73307,-1.12559 5.55709,-2.32795 8.47559,-3.64843l-0.0023622 -0.659055z" />
    <path
   id="_155489312"
   class="fil103"
   d="M65.9031 16.3854c-3.45236,1.44921 -6.86457,2.76732 -10.1752,3.99213 -19.7197,11.0528 -27.2882,14.1106 -42.1063,13.3535 -2.31496,-0.0956693 -4.86378,-0.421654 -7.57323,-0.839764l-0.0023622 0.768898c2.62677,0.405118 5.10354,0.724016 7.35472,0.817323 15.065,0.777165 22.6606,-2.32795 42.5705,-13.5248 3.22087,-1.20236 6.53268,-2.48858 9.93425,-3.92953l-0.0023622 -0.637795z" />
    <path
   id="_155488088"
   class="fil104"
   d="M65.9031 16.5969c-3.89764,1.52835 -7.80236,2.89724 -11.6114,4.16339 -19.3748,10.5343 -27.1299,13.4031 -41.8382,12.6945 -1.9878,-0.0720472 -4.13858,-0.307087 -6.40512,-0.609449l-0.0023622 0.773622c2.19213,0.294094 4.27677,0.519685 6.20669,0.591732 14.935,0.725197 22.7114,-2.18858 42.2622,-12.8669 3.72047,-1.24252 7.52835,-2.58425 11.3906,-4.11969l-0.0023622 -0.627165z" />
    <path
   id="_155487944"
   class="fil105"
   d="M65.9055 16.9004c-4.31575,1.5874 -8.72126,2.96102 -13.0547,4.24134 -19.0276,10.0146 -26.9669,12.6969 -41.5606,12.0425 -1.65118,-0.0543307 -3.40748,-0.207874 -5.24173,-0.414567l-0.0011811 0.77126c1.76929,0.199606 3.46181,0.350787 5.05748,0.406299 14.811,0.670866 22.7657,-2.05748 41.9539,-12.2102 4.23661,-1.25906 8.54646,-2.61378 12.8469,-4.23071l0 -0.605906z" />
    <path
   id="_155490200"
   class="fil106"
   d="M65.9055 17.2866l-0.13937 0.0377953c-4.65472,1.59921 -9.52559,2.94921 -14.3551,4.20118 -18.6803,9.4937 -26.8051,11.987 -41.2902,11.3835 -1.30039,-0.034252 -2.6622,-0.129921 -4.07244,-0.259843l-0.0011811 0.777165c1.35118,0.126378 2.65866,0.212598 3.90591,0.250394 14.6858,0.620079 22.8201,-1.91811 41.6492,-11.5488 4.76102,-1.2437 9.55394,-2.58307 14.2429,-4.24488l0.0602362 -0.0153543 0 -0.581102z" />
    <path
   id="_155482856"
   class="fil107"
   d="M65.9055 17.8299c-0.480709,0.112205 -0.959055,0.226772 -1.43976,0.351969 -4.6311,1.43031 -9.5563,2.61496 -14.4933,3.72402 -18.3319,8.97638 -26.6445,11.2783 -41.0185,10.7291 -0.941339,-0.0200787 -1.91102,-0.0720472 -2.90551,-0.142913l-0.0011811 0.783071c0.944882,0.0649606 1.86614,0.112205 2.76024,0.133465 14.5571,0.566929 22.8673,-1.77874 41.3409,-10.885 4.86142,-1.10669 9.71102,-2.28661 14.3657,-3.77835 0.462992,-0.108661 0.927165,-0.212598 1.39252,-0.31063l-0.0011811 -0.604724z" />
    <path
   id="_155488184"
   class="fil108"
   d="M65.9067 18.502c-0.912992,0.159449 -1.82598,0.338976 -2.7437,0.531496 -4.60276,1.27205 -9.58583,2.28543 -14.6303,3.25512 -17.9846,8.45669 -26.4827,10.5709 -40.7469,10.076 -0.569291,-0.0141732 -1.14685,-0.0354331 -1.73622,-0.0625984l-0.0023622 0.785433c0.54685,0.0271654 1.08425,0.0448819 1.61339,0.0555118 14.4272,0.512598 22.9169,-1.64291 41.0315,-10.2283 4.96181,-0.966142 9.86811,-1.97953 14.4898,-3.30591 0.909449,-0.179528 1.8189,-0.341339 2.72598,-0.48189l-0.0011811 -0.624803z" />
    <path
   id="_155482688"
   class="fil109"
   d="M65.9079 19.2839c-1.34409,0.168898 -2.69173,0.372047 -4.04764,0.609449 -4.57677,1.09488 -9.61772,1.95 -14.765,2.7815 -17.6386,7.93346 -26.3232,9.85748 -40.4764,9.41575l-0.569291 -0.0165354 -0.0011811 0.786614 0.461811 0.0129921c14.3031,0.462992 22.9713,-1.50472 40.7244,-9.56339 5.06811,-0.826772 10.0264,-1.68661 14.6161,-2.84409 1.36063,-0.209055 2.70945,-0.38622 4.05709,-0.527953l0 -0.654331z" />
    <path
   id="_155489096"
   class="fil110"
   d="M65.9091 20.1768c-1.77283,0.13937 -3.55157,0.325984 -5.35039,0.572835 -4.55197,0.927165 -9.64961,1.61457 -14.9008,2.30315 -17.0445,7.31102 -25.911,9.09921 -39.6083,8.77913l-0.0011811 0.79252c13.7764,0.329528 22.6181,-1.51063 39.7287,-8.92441 5.17205,-0.687402 10.1846,-1.38307 14.7402,-2.36929 1.81063,-0.21378 3.60354,-0.366142 5.39173,-0.467717l0 -0.68622z" />
    <path
   id="_155485400"
   class="fil111"
   d="M65.9102 21.176c-2.20039,0.0685039 -4.41024,0.205512 -6.65551,0.434646 -4.52244,0.753543 -9.67913,1.27559 -15.0366,1.82953 -16.2177,6.59882 -25.2142,8.29488 -38.1673,8.13307l-0.0023622 0.800787c13.0252,0.17126 21.9957,-1.57559 38.2724,-8.27953 5.27598,-0.550394 10.3417,-1.08189 14.8665,-1.90276 2.26181,-0.179528 4.49409,-0.275197 6.72283,-0.3l0 -0.715748z" />
    <path
   id="_155485688"
   class="fil112"
   d="M65.9114 22.2638c-2.62913,-0.0271654 -5.2689,0.0295276 -7.95827,0.199606 -4.49764,0.58937 -9.70984,0.948425 -15.1748,1.35354 -15.3945,5.91496 -24.4677,7.51181 -36.7276,7.48465l-0.0011811 0.806693c12.3213,0.0307087 21.3614,-1.60512 36.8185,-7.61929 5.3752,-0.412205 10.4965,-0.784252 14.9882,-1.43622 2.71535,-0.112205 5.38819,-0.113386 8.0563,-0.0354331l-0.0011811 -0.753543z" />
    <path
   id="_155486408"
   class="fil113"
   d="M65.9126 23.4472c-3.06024,-0.145276 -6.12402,-0.20315 -9.26102,-0.127559 -4.46811,0.424016 -9.73937,0.617717 -15.3118,0.884646 -14.5783,5.25118 -23.6717,6.73346 -35.2878,6.81378l-0.0023622 0.812598c11.6657,-0.0744094 20.7248,-1.59685 35.3622,-6.95079 5.47913,-0.26811 10.6571,-0.48189 15.1134,-0.96378 3.17126,-0.00944882 6.27638,0.108661 9.38976,0.311811l-0.0023622 -0.780709z" />
    <path
   id="_155484824"
   class="fil114"
   d="M65.915 24.7193c-3.49606,-0.294094 -6.97913,-0.494882 -10.5661,-0.540945 -4.44331,0.250394 -9.77126,0.27874 -15.4488,0.405118 -13.774,4.6252 -22.8331,5.9752 -33.848,6.13819l-0.0011811 0.822047c11.0539,-0.162992 20.0799,-1.55669 33.9035,-6.26929 5.58307,-0.135827 10.8142,-0.179528 15.2386,-0.496063 3.62835,0.124016 7.16457,0.394488 10.7232,0.745276l-0.0011811 -0.804331z" />
    <path
   id="_155482664"
   class="fil115"
   d="M65.9161 26.0646c-3.93189,-0.451181 -7.83425,-0.823228 -11.8689,-1.0311 -4.41378,0.0838583 -9.80315,-0.0507874 -15.5835,-0.0637795 -12.9815,4.01929 -21.9591,5.23346 -32.4106,5.45079l-0.0023622 0.820866c10.4811,-0.216142 19.4232,-1.46929 32.4461,-5.57362 5.68937,0.0011811 10.9713,0.116929 15.3661,-0.0283465 4.08307,0.296457 8.03976,0.746457 12.0543,1.25906l-0.0011811 -0.833858z" />
    <path
   id="_155487680"
   class="fil116"
   d="M65.9185 27.4795c-4.3748,-0.625984 -8.68465,-1.18819 -13.1752,-1.5874 -4.3878,-0.0909449 -9.8315,-0.387402 -15.7205,-0.539764 -12.1996,3.44173 -21.0449,4.51772 -30.9697,4.76339l-0.0011811 0.831496c9.9437,-0.251575 18.7524,-1.36181 30.9886,-4.88976 5.78976,0.142913 11.1295,0.419291 15.4902,0.446457 4.54252,0.498425 8.91614,1.15039 13.389,1.8378l-0.0011811 -0.862205z" />
    <path
   id="_155483816"
   class="fil117"
   d="M65.9197 28.9713c-4.82835,-0.805512 -9.5374,-1.59685 -14.4803,-2.22283 -4.36063,-0.253937 -9.85984,-0.71811 -15.8563,-1.01339 -11.4343,2.90079 -20.0988,3.82205 -29.5287,4.07717l-0.0023622 0.83622c9.43583,-0.263386 18.0661,-1.21535 29.5311,-4.20118 5.8937,0.284646 11.2878,0.724016 15.6154,0.912992 5.00315,0.738189 9.78071,1.61339 14.7224,2.4815l-0.0011811 -0.870472z" />
    <path
   id="_155485256"
   class="fil118"
   d="M65.922 30.5055c-5.29134,-0.987402 -10.3902,-2.01614 -15.7831,-2.90079 -4.33465,-0.424016 -9.89055,-1.05472 -15.9945,-1.48701 -10.6878,2.39646 -19.1268,3.15118 -28.0902,3.39094l-0.0011811 0.842126c8.9563,-0.249213 17.3598,-1.03701 28.0748,-3.50669 5.99646,0.422835 11.4449,1.02047 15.7394,1.38071 5.45669,1.00039 10.6311,2.12835 16.0559,3.17953l-0.0011811 -0.898819z" />
    <path
   id="_155486528"
   class="fil119"
   d="M65.9232 32.0976c-5.77205,-1.16929 -11.2476,-2.45787 -17.087,-3.63661 -4.30748,-0.594094 -9.92126,-1.38425 -16.1291,-1.96181 -9.96378,1.92638 -18.1417,2.51457 -26.6516,2.72244l-0.0023622 0.84685c8.49803,-0.222047 16.6406,-0.839764 26.6209,-2.83346 6.09685,0.559843 11.6031,1.32283 15.8622,1.85079 5.91378,1.30512 11.4709,2.68937 17.3894,3.92244l-0.0023622 -0.91063z" />
    <path
   id="_155483096"
   class="fil120"
   d="M65.9268 33.7276c-6.26575,-1.34646 -12.1098,-2.90433 -18.3945,-4.40787 -4.27913,-0.761811 -9.95197,-1.71969 -16.2638,-2.43898 -9.25512,1.48701 -17.1331,1.9063 -25.213,2.06339l-0.0011811 0.850394c8.05748,-0.165354 15.8965,-0.620079 25.1634,-2.16614 6.20079,0.69685 11.7591,1.62165 15.9862,2.31969 6.3626,1.63228 12.2941,3.29764 18.724,4.70315l-0.0011811 -0.923622z" />
    <path
   id="_155488736"
   class="fil121"
   d="M65.9291 35.4012c-6.77244,-1.51535 -12.9756,-3.36614 -19.6961,-5.22402 -4.25669,-0.93189 -9.9874,-2.05512 -16.4055,-2.91024 -8.57362,1.07953 -16.1161,1.33583 -23.7709,1.42323l-0.0023622 0.853937c7.62756,-0.102756 15.1311,-0.389764 23.7047,-1.52362 6.30709,0.83622 11.9197,1.92638 16.1138,2.78976 6.80669,1.9937 13.0972,3.9437 20.0563,5.51929l0 -0.928346z" />
    <path
   id="_155483360"
   class="fil122"
   d="M65.9303 37.1008c-7.30866,-1.67362 -13.8461,-3.82323 -21.0012,-6.0685 -4.22717,-1.10197 -10.0122,-2.39055 -16.5402,-3.3874 -7.9122,0.709843 -15.0909,0.797244 -22.3323,0.812598l-0.0011811 0.861024c7.20591,-0.023622 14.3469,-0.145276 22.2472,-0.9 6.40984,0.972047 12.0756,2.22165 16.2402,3.25394 7.24724,2.38346 13.8744,4.63228 21.3886,6.35906l-0.0011811 -0.930709z" />
    <path
   id="_155486552"
   class="fil123"
   d="M65.9327 38.8252c-7.86732,-1.80945 -14.7236,-4.27441 -22.3063,-6.93661 -4.2,-1.26732 -10.0453,-2.72126 -16.676,-3.85984 -7.27323,0.377953 -14.0669,0.303543 -20.8937,0.225591l-0.0011811 0.862205c6.78543,0.0661417 13.5378,0.10748 20.7909,-0.308268 6.51142,1.11378 12.2327,2.52165 16.3606,3.72402 7.67953,2.80394 14.635,5.35984 22.728,7.2248l-0.0023622 -0.93189z" />
    <path
   id="_155482568"
   class="fil124"
   d="M65.9362 40.5626c-8.45079,-1.93228 -15.6094,-4.70551 -23.6114,-7.81654 -4.1752,-1.44094 -10.076,-3.05787 -16.813,-4.33228 -6.65787,0.0720472 -13.0406,-0.155906 -19.4539,-0.328346l-0.0023622 0.865748c6.3685,0.161811 12.7051,0.359055 19.3346,0.250394 6.61417,1.24961 12.3909,2.82165 16.4882,4.19291 8.10354,3.24685 15.3673,6.11102 24.0591,8.09882l-0.0011811 -0.930709z" />
    <path
   id="_155488112"
   class="fil125"
   d="M65.9374 42.3154c-9.06142,-2.04094 -16.5047,-5.13189 -24.9177,-8.71299 -4.14449,-1.60748 -10.1031,-3.38858 -16.9476,-4.80827 -6.05906,-0.193701 -12.0201,-0.561024 -18.0142,-0.83622l-0.0023622 0.86811c5.94685,0.259843 11.8488,0.61063 17.8783,0.767717 6.71811,1.39252 12.548,3.12165 16.6146,4.66181 8.51929,3.72165 16.0689,6.90236 25.3902,8.98228l-0.0011811 -0.922441z" />
    <path
   id="_155487344"
   class="fil126"
   d="M65.9398 44.0693l-0.414567 -0.0897638c-9.50315,-2.1248 -17.1177,-5.49921 -25.8047,-9.5185 -4.12087,-1.77638 -10.1374,-3.72402 -17.087,-5.28189 -5.48976,-0.422835 -11.0031,-0.929528 -16.5756,-1.30039l-0.0011811 0.86811c5.51575,0.36378 10.976,0.845669 16.4232,1.24134 6.81969,1.52598 12.7039,3.42165 16.735,5.12953 8.73425,4.11732 16.4091,7.55669 26.0811,9.72992l0.644882 0.140551 -0.0011811 -0.918898z" />
    <path
   id="_155490128"
   class="fil127"
   d="M65.9421 45.8043c-0.571654,-0.106299 -1.13976,-0.222047 -1.69843,-0.351969 -9.55276,-2.21693 -17.1331,-5.78976 -25.8283,-10.1327 -4.09252,-1.95 -10.1646,-4.06063 -17.2228,-5.76024 -4.93583,-0.620079 -9.99685,-1.24134 -15.1346,-1.71024l-0.0011811 0.874016c5.07756,0.459449 10.0795,1.06299 14.9657,1.65827 6.92244,1.66535 12.8634,3.72283 16.8614,5.59843 8.75669,4.43858 16.4102,8.07283 26.1425,10.337 0.629528,0.148819 1.27087,0.279921 1.91693,0.400394l-0.0011811 -0.912992z" />
    <path
   id="_155483504"
   class="fil128"
   d="M65.9433 47.5134c-1.01575,-0.161811 -2.00906,-0.356693 -2.98228,-0.591732 -9.59764,-2.30315 -17.1461,-6.07559 -25.8461,-10.7469 -4.06654,-2.11181 -10.1976,-4.39016 -17.3587,-6.23031 -4.40787,-0.778346 -9.00118,-1.50709 -13.6984,-2.06811l-0.0011811 0.881102c4.62992,0.550394 9.15827,1.2626 13.5083,2.01496 7.02992,1.80591 13.0205,4.02402 16.9878,6.06969 8.7815,4.75512 16.4138,8.58661 26.2016,10.9465 1.03937,0.252756 2.10118,0.459449 3.19134,0.630709l-0.0023622 -0.905906z" />
    <path
   id="_155485016"
   class="fil129"
   d="M65.9469 49.2012c-1.47165,-0.197244 -2.8937,-0.462992 -4.2685,-0.80315 -9.64606,-2.40236 -17.1567,-6.37205 -25.8661,-11.3693 -4.04055,-2.28071 -10.2272,-4.72205 -17.4921,-6.70512 -3.89646,-0.894094 -8.0185,-1.70906 -12.2622,-2.35276l-0.0023622 0.888189c4.17283,0.63189 8.22283,1.4315 12.0531,2.30906 7.12913,1.94055 13.1799,4.32283 17.1106,6.53386 8.80512,5.07874 16.4173,9.10276 26.2689,11.5606 1.43504,0.356693 2.9185,0.629528 4.45984,0.835039l-0.0011811 -0.896457z" />
   </g>
  </g>
  <path
   class="fil130"
   d="M4.46575 53.002l-0.36378 0.401575m60.3579 -0.0437008l-0.40748 -0.36378"
   id="path4214" />
  <path
   class="fil130"
   d="M5.45079 53.3598l-0.359055 0.395669m59.4083 -0.0425197l-0.400394 -0.359055"
   id="path4216" />
  <polygon
   class="fil131"
   points="23.7531,64.1598 48.4902,64.0984 55.9465,67.885 17.9327,67.5886 "
   id="polygon4218" />
  <polygon
   class="fil132"
   points="17.9433,67.9488 55.5957,68.0008 55.6535,70.2177 18.0012,70.2791 "
   id="polygon4220" />
  <polygon
   class="fil133"
   points="18.5362,69.0331 54.9425,68.9917 54.9425,67.9559 18.5362,67.9972 "
   id="polygon4222" />
  <polygon
   class="fil134"
   points="70.5543,29.5512 1.17992,29.589 1.22598,39.0154 70.513,38.9244 "
   id="polygon4224" />
  <polygon
   class="fil135"
   points="71.9894,28.0122 -0.11811,28.0453 -0.069685,37.0157 71.948,37.0252 "
   id="polygon4226" />
  <polygon
   class="fil133"
   points="23.6634,63.9791 45.7689,63.939 45.7689,62.935 23.6634,62.9752 "
   id="polygon4228" />
  <path
   class="fil136"
   d="M18.2374 67.4244l0.141732 -0.0779528 5.16969 -3.07559 0.0011811 -6.5811 24.5717 -0.0885827 0 6.49843 0.368504 -0.0011811 6.27992 3.19016 0.767717 -0.00354331 0 0.392126 0.40748 0.207874 -0.348425 -0.0023622 0.057874 2.33504 0 0.0011811 -37.7232 0.0602362 -0.0354331 -1.45157 -0.00354331 -0.199606 -0.0129921 -0.466535c-0.00354331,-0.281102 0.335433,-0.724016 0.357874,-0.737008zm0.692126 0.933071l-0.0637795 0.034252 0.126378 -0.0590551 -0.00708661 -0.00472441 -0.0555118 0.0295276zm5.16969 -3.07559l-5.06575 3.02008 0.00826772 0.298819 0 0.00354331 0.00472441 0.196063 0.00708661 0.327165 35.4224 -0.0566929 -0.0165354 -0.65315 -0.0755906 -0.0401575 0 -0.0295276 -0.132283 -0.0318898 -6.03898 -3.06732 -0.0909449 0 -1.15394 0.00472441 0 -1.15394 0 -5.34449 -22.2673 0.080315 -0.0011811 5.43543 0 0.683858 -0.6 0.327165zm-5.09291 3.03425l-0.0106299 0.00590551 0.0106299 0.00354331 0 -0.00944882zm-0.0106299 0.00590551l-0.0106299 0.00590551 0.00708661 0.00472441 0.0141732 -0.00354331 0 -0.00354331 -0.0106299 -0.00354331z"
   id="path4230" />
  <polygon
   class="fil137"
   points="53.7862,66.2421 63.8445,65.1496 68.8335,65.3528 71.5795,71.9705 52.5803,71.9894 50.4732,68.7142 "
   id="polygon4232" />
  <path
   class="fil0"
   d="M53.7874 66.2421l10.3335 -1.27441 1.46102 -0.00944882c-0.164173,0.351969 -0.364961,0.735827 -0.61063,1.15984 -1.7185,0.124016 -4.79528,3.0189 -0.527953,4.89567 4.2685,1.87677 0.103937,0.891732 -0.39685,1.47165l-11.0469 0.0106299 -2.52638 -3.78189 3.31417 -2.47205z"
   id="path4234" />
  <path
   class="fil138"
   d="M53.7874 66.2421l10.3335 -1.1811 4.72559 -0.0401575 3.06024 7.0878 -18.9992 0.0200787 -4.26496 -3.0378 5.14488 -2.84882zm10.4846 -0.10748l-9.89055 1.5874 -1.81772 1.35472 1.25787 1.88386 16.5047 -0.0177165 -1.87323 -4.83189 -4.1811 0.023622z"
   id="path4236" />
  <path
   class="fil139"
   d="M47.1555 61.2402c0.367323,1.11969 1.14803,-0.337795 3.51732,-1.29685 5.14724,-2.0811 13.4008,-7.94409 17.7272,-12.7205 0.818504,-0.905906 2.11181,-1.63346 2.60079,-2.42717l1.05 0.101575c0.382677,5.35039 -0.552756,13.8354 -4.35,14.8925 -3.00827,5.60433 -12.9472,8.34449 -14.9882,10.1327 -2.03976,1.78819 -8.59016,-4.27913 -5.55709,-8.68228z"
   id="path4238" />
  <path
   class="fil135"
   d="M46.4634 62.1933c0.369685,1.12087 -0.0141732,-1.19646 2.57717,-1.76811 4.49291,-0.992126 22.402,-12.7949 22.376,-16.8602 0.507874,2.61496 0.832677,9.04134 -0.73937,13.0122 -0.754724,1.91457 -2.8063,3.39331 -4.29567,5.06811 -3.91063,4.37717 -11.8689,6.69921 -13.6689,8.27717 -2.03976,1.78701 -9.27992,-3.3248 -6.24921,-7.72913z"
   id="path4240" />
  <path
   class="fil140"
   d="M46.852 62.7295c0.368504,1.11969 -1.96654,-0.57874 0.401575,-1.53425 2.27244,-0.917717 2.62559,0.255118 5.50512,-1.7185 0.140551,2.26299 1.69724,5.71535 6.78898,5.94449 -4.16457,3.43583 -4.88268,3.43228 -6.69331,5.01969 -1.81181,1.58622 -9.03543,-3.30709 -6.00236,-7.71142z"
   id="path4242" />
  <path
   class="fil141"
   d="M47.2996 62.2961c0.368504,1.12087 -0.011811,-1.2 2.57953,-1.76929 0.459449,-0.0980315 -0.993307,0.34252 -0.507874,0.157087 1.19409,2.74606 4.65118,7.33346 6.48898,7.38071 1.84016,0.0472441 0.424016,0.0673228 0.629528,0.179528 -2.57126,1.24252 -2.32559,1.06417 -3.77598,2.33858 -1.45157,1.27205 -8.44606,-3.88228 -5.41417,-8.28661z"
   id="path4244" />
  <path
   class="fil142"
   d="M65.5677 49.4965c0.477165,-0.347244 0.941339,-0.679134 1.3937,-0.980315 2.17087,-1.4622 3.9685,-2.66811 4.68071,-3.74764 0.129921,0.0496063 0.261024,0.109843 0.395669,0.173622 0.374409,3.36732 -0.223228,7.40315 -1.4374,11.2098 -0.70748,0.39685 -1.59921,1.93228 -0.747638,-1.07598 0.852756,-3.01063 -4.1374,-5.3752 -4.1374,-5.3752l-0.147638 -0.204331z"
   id="path4246" />
  <path
   class="fil143"
   d="M63.437 64.3559c0,0 -11.048,6.06496 -12.8079,5.8311 -1.15512,-0.152362 4.3311,1.5 8.00669,-1.55669 1.76457,-1.46929 6.78543,-4.31929 7.10433,-5.16614 0.935433,-2.47441 -2.18504,0.891732 -2.30315,0.891732z"
   id="path4248" />
  <path
   class="fil144"
   d="M46.4752 62.3953c0.0354331,-0.0141732 10.7563,-4.91339 18.1287,-11.85 1.2815,-1.20591 3.5315,-2.13425 4.55315,-3.47008l0.165354 0.576378c-7.11614,9.31417 -21.8988,15.9 -21.939,15.9165l-0.908268 -1.17283z"
   id="path4250" />
  <path
   class="fil145"
   d="M71.9894 28.0122l-72.1075 0.0330709 0.0484252 8.97047 72.0177 0.00944882 0.0413386 -9.01299zm-1.00039 0.995669l-70.1055 0.0330709 0.0366142 6.97913 70.037 0.00944882 0.0318898 -7.02165z"
   id="path4252" />
  <polygon
   class="fil146"
   points="0.295276,28.9795 71.3185,28.9795 71.3185,29.9835 0.295276,29.9835 "
   id="polygon4254" />
  <g
   id="_151125560">
   <rect
   id="_151121888"
   class="fil147"
   x="8.0028"
   y="29.1582"
   width="1.037"
   height="3.89779" />
   <rect
   id="_151125392"
   class="fil147"
   x="12.0357"
   y="29.8575"
   width="0.996843"
   height="2.11345" />
   <rect
   id="_151122992"
   class="fil147"
   x="15.9788"
   y="29.1582"
   width="1.037"
   height="3.89779" />
   <rect
   id="_151127000"
   class="fil147"
   x="20.0105"
   y="29.8575"
   width="0.996843"
   height="2.11345" />
   <rect
   id="_151124048"
   class="fil147"
   x="23.9536"
   y="29.1582"
   width="1.037"
   height="3.89779" />
   <rect
   id="_151126496"
   class="fil147"
   x="28.0255"
   y="29.8575"
   width="0.996843"
   height="2.11345" />
   <rect
   id="_151127360"
   class="fil147"
   x="31.9685"
   y="29.1582"
   width="1.037"
   height="3.89779" />
   <rect
   id="_151125416"
   class="fil147"
   x="36.0003"
   y="29.8575"
   width="0.996843"
   height="2.11345" />
   <rect
   id="_151122224"
   class="fil147"
   x="39.9433"
   y="29.1582"
   width="1.037"
   height="3.89779" />
  </g>
  <g
   id="_151128824">
   <rect
   id="_151122968"
   class="fil147"
   x="40.0485"
   y="29.1582"
   width="1.037"
   height="3.89779" />
   <rect
   id="_151129088"
   class="fil147"
   x="44.0814"
   y="29.8575"
   width="0.996843"
   height="2.11345" />
   <rect
   id="_151127600"
   class="fil147"
   x="48.0244"
   y="29.1582"
   width="1.037"
   height="3.89779" />
   <rect
   id="_151129688"
   class="fil147"
   x="52.0562"
   y="29.8575"
   width="0.996843"
   height="2.11345" />
   <rect
   id="_151124672"
   class="fil147"
   x="55.9993"
   y="29.1582"
   width="1.037"
   height="3.89779" />
   <rect
   id="_151122416"
   class="fil147"
   x="60.0711"
   y="29.8575"
   width="0.996843"
   height="2.11345" />
   <rect
   id="_151129472"
   class="fil147"
   x="64.0142"
   y="29.1582"
   width="1.037"
   height="3.89779" />
  </g>
  <path
   class="fil148"
   d="M46.7894 62.9657c-0.0826772,0.0283465 -0.157087,0.0437008 -0.224409,0.0448819 -0.516142,1.08543 -0.383858,2.20157 0.103937,3.19843 0.351969,0.719291 0.894094,1.38898 1.51299,1.94764l0 0.0011811c0.62126,0.562205 1.32283,1.0122 1.99488,1.29567l0.0011811 0c0.923622,0.392126 1.77047,0.474803 2.2063,0.0933071 4.45748,-2.80039 10.0323,-3.61654 13.6252,-8.23228l-0.0011811 -0.0011811c0.457087,-0.514961 0.975591,-1.01811 1.49055,-1.5189 1.11378,-1.08307 2.22874,-2.1685 2.71299,-3.39921l0.0023622 -0.0023622c0.637795,-1.60984 0.954331,-3.6626 1.0689,-5.68819 0.106299,-1.89331 0.0389764,-3.75827 -0.105118,-5.22756 -1.25079,1.90866 -3.96142,4.34646 -7.10669,6.71693 -5.4815,4.13031 -12.339,8.14843 -14.9232,8.71772 -1.36181,0.3 -1.75394,1.17047 -1.9311,1.56024l-0.0011811 0c-0.109843,0.249213 -0.194882,0.414567 -0.426378,0.493701zm-0.0838583 -1.63228c0.370866,-0.530315 1.01811,-1.12913 2.22756,-1.39488 2.46614,-0.543307 9.14764,-4.4811 14.5358,-8.54055 4.12205,-3.10512 7.45866,-6.23504 7.44921,-7.83071l0.988583 -0.0956693c0.298819,1.5437 0.53622,4.39016 0.373228,7.2874 -0.120472,2.11654 -0.455906,4.27441 -1.13858,6l0.0011811 0c-0.562205,1.42913 -1.7563,2.59016 -2.94921,3.75118 -0.493701,0.480709 -0.990945,0.96378 -1.43858,1.46693l-0.0023622 0c-3.80906,4.59803 -9.56693,5.33268 -13.7114,8.32087 -0.753543,0.659055 -1.9878,0.61063 -3.25276,0.0744094 -0.770079,-0.325984 -1.56969,-0.838583 -2.2748,-1.4752l0 0.0011811c-0.705118,-0.636614 -1.32638,-1.40787 -1.73976,-2.25236 -0.716929,-1.46457 -0.818504,-3.13937 0.279921,-4.73622l0.569291 -0.829134 0.0826772 0.252756z"
   id="path4274" />
  <g
   id="_150410848">
   <rect
   id="_151906768"
   class="fil147"
   x="4.1365"
   y="29.8575"
   width="0.996843"
   height="2.11345" />
   <rect
   id="_151905544"
   class="fil147"
   x="8.07957"
   y="29.1582"
   width="1.037"
   height="3.89779" />
  </g>
  <path
   class="fil149"
   d="M47.7094 62.8984c0.305906,-0.165354 0.612992,-0.333071 0.92126,-0.499606 0.39685,0.511417 0.793701,1.02283 1.18819,1.53307 0.39685,0.511417 0.79252,1.02165 1.18819,1.53307 -0.304724,0.172441 -0.608268,0.344882 -0.908268,0.516142 -0.398031,-0.51378 -0.797244,-1.02756 -1.19409,-1.54134 -0.398031,-0.512598 -0.796063,-1.02638 -1.19528,-1.54134zm23.0291 -15.985l0.174803 -0.174803c0.31063,0.526772 0.630709,1.0748 0.927165,1.59685l-0.465354 -0.601181c-0.212598,-0.274016 -0.424016,-0.54685 -0.636614,-0.820866zm-3.34961 2.25709c0.255118,-0.230315 0.511417,-0.464173 0.765354,-0.701575 0.387402,0.499606 0.775984,1.00039 1.1622,1.5 0.38622,0.497244 0.499606,0.584646 0.885827,1.08425 -0.253937,0.23622 -0.511417,0.467717 -0.768898,0.695669 -0.38622,-0.498425 -0.498425,-0.583465 -0.884646,-1.08189 -0.38622,-0.498425 -0.772441,-0.998031 -1.15984,-1.49646zm-2.56535 3.12874c0.255118,-0.210236 0.511417,-0.422835 0.764173,-0.640157 0.209055,0.269291 0.41811,0.537402 0.625984,0.806693 0.206693,0.266929 0.27874,0.307087 0.486614,0.576378 -0.253937,0.216142 -0.509055,0.431102 -0.765354,0.640157 -0.207874,-0.26811 -0.416929,-0.537402 -0.624803,-0.806693 -0.206693,-0.265748 -0.27874,-0.308268 -0.486614,-0.576378zm-3.60118 2.00197c0.276378,-0.209055 0.551575,-0.41811 0.824409,-0.63189 0.382677,0.493701 0.766535,0.987402 1.14803,1.47992 0.382677,0.494882 0.765354,0.988583 1.14685,1.4811 -0.272835,0.21378 -0.54685,0.425197 -0.823228,0.634252 -0.382677,-0.493701 -0.765354,-0.988583 -1.14803,-1.48228 -0.382677,-0.49252 -0.765354,-0.987402 -1.14803,-1.4811zm-2.77913 2.85236c0.274016,-0.190157 0.54685,-0.382677 0.817323,-0.576378 0.207874,0.266929 0.415748,0.535039 0.622441,0.80315 0.207874,0.266929 0.414567,0.535039 0.622441,0.80315 -0.270472,0.194882 -0.542126,0.387402 -0.816142,0.57874 -0.206693,-0.26811 -0.414567,-0.53622 -0.622441,-0.804331 -0.207874,-0.26811 -0.415748,-0.53622 -0.623622,-0.804331zm-3.77953 1.70197c0.295276,-0.184252 0.585827,-0.374409 0.876378,-0.564567 0.385039,0.497244 0.770079,0.993307 1.15512,1.49055 0.383858,0.496063 0.768898,0.993307 1.15394,1.48937 -0.28937,0.191339 -0.579921,0.382677 -0.869291,0.572835 -0.38622,-0.497244 -0.772441,-0.99685 -1.15748,-1.49409 -0.38622,-0.497244 -0.772441,-0.995669 -1.15866,-1.49409zm-2.97165 2.60551c0.28937,-0.170079 0.577559,-0.34252 0.865748,-0.514961 0.210236,0.271654 0.421654,0.544488 0.633071,0.816142 0.210236,0.272835 0.421654,0.544488 0.63189,0.816142 -0.285827,0.175984 -0.571654,0.349606 -0.859843,0.523228 -0.211417,-0.274016 -0.424016,-0.548031 -0.634252,-0.819685 -0.211417,-0.272835 -0.424016,-0.548031 -0.636614,-0.820866z"
   id="path4279" />
 </g>
</svg>