<?xml version="1.0" encoding="UTF-8" standalone="no"?>
<!-- Created with Inkscape (http://www.inkscape.org/) -->

<svg
   xmlns:dc="http://purl.org/dc/elements/1.1/"
   xmlns:cc="http://creativecommons.org/ns#"
   xmlns:rdf="http://www.w3.org/1999/02/22-rdf-syntax-ns#"
   xmlns:svg="http://www.w3.org/2000/svg"
   xmlns="http://www.w3.org/2000/svg"
   xmlns:sodipodi="http://sodipodi.sourceforge.net/DTD/sodipodi-0.dtd"
   xmlns:inkscape="http://www.inkscape.org/namespaces/inkscape"
   width="22"
   height="22"
   id="svg2"
   version="1.1"
   inkscape:version="0.48.3.1 r9886"
   sodipodi:docname="22.svg">
  <defs
     id="defs4">
    <linearGradient
       gradientTransform="matrix(0,-1,1,0,6,12.75)"
       y2="0"
       x2="0.75"
       y1="0"
       x1="0"
       gradientUnits="userSpaceOnUse"
       id="LinearGradient_14-838">
      <stop
         id="stop91030"
         stop-color="#545454"
         offset="0" />
      <stop
         id="stop91032"
         stop-color="#2d2c2c"
         offset="1" />
    </linearGradient>
    <linearGradient
       gradientTransform="matrix(0,-1,1,0,6,12)"
       y2="0"
       x2="0.709"
       y1="0"
       x1="0"
       gradientUnits="userSpaceOnUse"
       id="LinearGradient_13-695">
      <stop
         id="stop91025"
         stop-color="#bfbfbf"
         offset="0" />
      <stop
         id="stop91027"
         stop-color="#eaeaea"
         offset="1" />
    </linearGradient>
    <linearGradient
       gradientTransform="matrix(0,-1,1,0,6,11.712)"
       y2="0"
       x2="1.155"
       y1="0"
       x1="0"
       gradientUnits="userSpaceOnUse"
       id="LinearGradient_12-331">
      <stop
         id="stop91020"
         stop-color="#8a8989"
         offset="0" />
      <stop
         id="stop91022"
         stop-color="#8a8989"
         offset="1" />
    </linearGradient>
    <linearGradient
       gradientTransform="matrix(0,1,-1,0,12.48,14.248)"
       y2="0"
       x2="0.742"
       y1="0"
       x1="0"
       gradientUnits="userSpaceOnUse"
       id="LinearGradient_11-795">
      <stop
         id="stop91015"
         stop-color="#df8e00"
         offset="0" />
      <stop
         id="stop91017"
         stop-color="#ffc60e"
         offset="1" />
    </linearGradient>
    <linearGradient
       gradientTransform="matrix(0,1,-1,0,13.127,13.62)"
       y2="0"
       x2="0.496"
       y1="0"
       x1="0"
       gradientUnits="userSpaceOnUse"
       id="LinearGradient_10-52">
      <stop
         id="stop91010"
         stop-color="#d06226"
         offset="0" />
      <stop
         id="stop91012"
         stop-color="#f19137"
         offset="1" />
    </linearGradient>
    <linearGradient
       gradientTransform="matrix(0,-1,1,0,10.5,12.75)"
       y2="0"
       x2="0.75"
       y1="0"
       x1="0"
       gradientUnits="userSpaceOnUse"
       id="LinearGradient_9-307">
      <stop
         id="stop91005"
         stop-color="#545454"
         offset="0" />
      <stop
         id="stop91007"
         stop-color="#2d2c2c"
         offset="1" />
    </linearGradient>
    <linearGradient
       gradientTransform="matrix(0,-1,1,0,10.5,12)"
       y2="0"
       x2="0.709"
       y1="0"
       x1="0"
       gradientUnits="userSpaceOnUse"
       id="LinearGradient_8-136">
      <stop
         id="stop91000"
         stop-color="#bfbfbf"
         offset="0" />
      <stop
         id="stop91002"
         stop-color="#eaeaea"
         offset="1" />
    </linearGradient>
    <linearGradient
       gradientTransform="matrix(0,-1,1,0,10.5,11.712)"
       y2="0"
       x2="1.155"
       y1="0"
       x1="0"
       gradientUnits="userSpaceOnUse"
       id="LinearGradient_7-36">
      <stop
         id="stop90995"
         stop-color="#8a8989"
         offset="0" />
      <stop
         id="stop90997"
         stop-color="#8a8989"
         offset="1" />
    </linearGradient>
    <linearGradient
       gradientTransform="matrix(0,1,-1,0,11.625,13.5)"
       y2="0"
       x2="0.751"
       y1="0"
       x1="0"
       gradientUnits="userSpaceOnUse"
       id="LinearGradient_6-69">
      <stop
         id="stop90990"
         stop-color="#335897"
         offset="0" />
      <stop
         id="stop90992"
         stop-color="#5f82bb"
         offset="1" />
    </linearGradient>
    <linearGradient
       gradientTransform="matrix(0,1,-1,0,12.466,12.75)"
       y2="0"
       x2="0.625"
       y1="0"
       x1="0"
       gradientUnits="userSpaceOnUse"
       id="LinearGradient_5-94">
      <stop
         id="stop90985"
         stop-color="#73912e"
         offset="0" />
      <stop
         id="stop90987"
         stop-color="#9fbd5a"
         offset="1" />
    </linearGradient>
    <linearGradient
       gradientTransform="translate(8.25,15)"
       y2="-0.75"
       x2="0"
       y1="0"
       x1="0"
       gradientUnits="userSpaceOnUse"
       id="LinearGradient_4-90">
      <stop
         id="stop90980"
         stop-color="#a4bef1"
         offset="0" />
      <stop
         id="stop90982"
         stop-color="#4568a0"
         offset="1" />
    </linearGradient>
    <linearGradient
       gradientTransform="matrix(0,-1,1,0,4.123,15)"
       y2="0"
       x2="0.751"
       y1="0"
       x1="0"
       gradientUnits="userSpaceOnUse"
       id="LinearGradient_3-06">
      <stop
         id="stop90975"
         stop-color="#5d5d5d"
         offset="0" />
      <stop
         id="stop90977"
         stop-color="#2d2c2c"
         offset="1" />
    </linearGradient>
    <linearGradient
       gradientTransform="matrix(0.04688504,-0.99890029,0.99925935,0.03923526,4.656,13.794)"
       y2="0"
       x2="0.767"
       y1="0"
       x1="0"
       gradientUnits="userSpaceOnUse"
       id="LinearGradient_2-36">
      <stop
         id="stop90970"
         stop-color="#c1c1c1"
         offset="0" />
      <stop
         id="stop90972"
         stop-color="#999999"
         offset="1" />
    </linearGradient>
    <linearGradient
       gradientTransform="translate(8.381,15.137)"
       y2="-9.557"
       x2="0"
       y1="0"
       x1="0"
       gradientUnits="userSpaceOnUse"
       id="LinearGradient_1-118">
      <stop
         id="stop90965"
         stop-color="#efefef"
         offset="0" />
      <stop
         id="stop90967"
         stop-color="#b6b6b6"
         offset="1" />
    </linearGradient>
    <linearGradient
       gradientTransform="matrix(0,-1,1,0,8.381,15.425)"
       y2="0"
       x2="9.773"
       y1="0"
       x1="0"
       gradientUnits="userSpaceOnUse"
       id="LinearGradient-96">
      <stop
         id="stop90960"
         stop-color="#cdcdcd"
         offset="0" />
      <stop
         id="stop90962"
         stop-color="#6a6a6a"
         offset="1" />
    </linearGradient>
  </defs>
  <sodipodi:namedview
     id="base"
     pagecolor="#ffffff"
     bordercolor="#666666"
     borderopacity="1.0"
     inkscape:pageopacity="0.0"
     inkscape:pageshadow="2"
     inkscape:zoom="14.387597"
     inkscape:cx="12"
     inkscape:cy="10.6875"
     inkscape:document-units="px"
     inkscape:current-layer="layer1"
     showgrid="false"
     inkscape:snap-page="true"
     inkscape:snap-grids="false"
     inkscape:snap-to-guides="false"
     inkscape:window-width="901"
     inkscape:window-height="665"
     inkscape:window-x="520"
     inkscape:window-y="200"
     inkscape:window-maximized="0">
    <inkscape:grid
       type="xygrid"
       id="grid11920"
       empspacing="5"
       visible="true"
       enabled="true"
       snapvisiblegridlinesonly="true" />
  </sodipodi:namedview>
  <metadata
     id="metadata7">
    <rdf:RDF>
      <cc:Work
         rdf:about="">
        <dc:format>image/svg+xml</dc:format>
        <dc:type
           rdf:resource="http://purl.org/dc/dcmitype/StillImage" />
        <dc:title />
      </cc:Work>
    </rdf:RDF>
  </metadata>
  <g
     inkscape:label="Layer 1"
     inkscape:groupmode="layer"
     id="layer1"
     transform="translate(0,-1030.3622)">
    <g
       style="fill-rule:evenodd;stroke-width:0.50099999;stroke-linejoin:bevel;overflow:visible"
       id="g91193"
       transform="matrix(1.3333655,0,0,1.3333299,0,1030.3622)">
      <g
         transform="scale(1,-1)"
         font-size="16"
         id="Document"
         style="font-size:16px;fill:none;stroke:#000000;font-family:Times New Roman">
        <g
           transform="translate(0,-16.5)"
           id="Spread">
          <g
             id="MouseOff">
            <g
               id="Group"
               style="stroke:none">
              <g
                 stroke-miterlimit="79.8403193612775"
                 id="Group_1"
                 style="fill:#000000">
                <path
                   id="path91039"
                   d="m 14.249,5.25 c -1.242,0 -2.25,-0.168 -2.25,-0.375 0,-0.207 1.008,-0.375 2.25,-0.375 1.242,0 2.25,0.168 2.25,0.375 0,0.207 -1.008,0.375 -2.25,0.375 z"
                   inkscape:connector-curvature="0"
                   style="fill-opacity:0.047059;marker-start:none;marker-end:none" />
                <path
                   id="path91041"
                   d="m 14.416,5.25 c -1.084,0 -1.964,-0.168 -1.964,-0.375 0,-0.207 0.88,-0.375 1.964,-0.375 1.084,0 1.964,0.168 1.964,0.375 0,0.207 -0.88,0.375 -1.964,0.375 z"
                   inkscape:connector-curvature="0"
                   style="fill-opacity:0.07450998;marker-start:none;marker-end:none" />
                <path
                   id="path91043"
                   d="m 14.595,5.25 c -0.854,0 -1.548,-0.112 -1.548,-0.25 0,-0.138 0.694,-0.25 1.548,-0.25 0.854,0 1.548,0.112 1.548,0.25 0,0.138 -0.694,0.25 -1.548,0.25 z"
                   inkscape:connector-curvature="0"
                   style="fill-opacity:0.09019602;marker-start:none;marker-end:none" />
                <path
                   id="path91045"
                   d="m 14.714,5.25 c -0.723,0 -1.31,-0.112 -1.31,-0.25 0,-0.138 0.587,-0.25 1.31,-0.25 0.723,0 1.31,0.112 1.31,0.25 0,0.138 -0.587,0.25 -1.31,0.25 z"
                   inkscape:connector-curvature="0"
                   style="fill-opacity:0.09019602;marker-start:none;marker-end:none" />
                <path
                   id="path91047"
                   d="M 14.952,5.25 C 14.426,5.25 14,5.138 14,5 c 0,-0.138 0.426,-0.25 0.952,-0.25 0.526,0 0.952,0.112 0.952,0.25 0,0.138 -0.426,0.25 -0.952,0.25 z"
                   inkscape:connector-curvature="0"
                   style="fill-opacity:0.09019602;marker-start:none;marker-end:none" />
                <path
                   id="path91049"
                   d="m 15.13,5.25 c -0.296,0 -0.536,-0.112 -0.536,-0.25 0,-0.138 0.24,-0.25 0.536,-0.25 0.296,0 0.536,0.112 0.536,0.25 0,0.138 -0.24,0.25 -0.536,0.25 z"
                   inkscape:connector-curvature="0"
                   style="fill-opacity:0.047059;marker-start:none;marker-end:none" />
              </g>
              <g
                 stroke-miterlimit="79.8403193612775"
                 id="Group_2"
                 style="fill:#000000">
                <path
                   id="path91052"
                   d="M 2.25,5.25 C 3.492,5.25 4.5,5.082 4.5,4.875 4.5,4.668 3.492,4.5 2.25,4.5 1.008,4.5 0,4.668 0,4.875 0,5.082 1.008,5.25 2.25,5.25 z"
                   inkscape:connector-curvature="0"
                   style="fill-opacity:0.047059;marker-start:none;marker-end:none" />
                <path
                   id="path91054"
                   d="M 2.083,5.25 C 3.167,5.25 4.047,5.082 4.047,4.875 4.047,4.668 3.167,4.5 2.083,4.5 0.999,4.5 0.119,4.668 0.119,4.875 c 0,0.207 0.88,0.375 1.964,0.375 z"
                   inkscape:connector-curvature="0"
                   style="fill-opacity:0.07450998;marker-start:none;marker-end:none" />
                <path
                   id="path91056"
                   d="M 1.904,5.25 C 2.758,5.25 3.452,5.138 3.452,5 3.452,4.862 2.758,4.75 1.904,4.75 1.05,4.75 0.356,4.862 0.356,5 c 0,0.138 0.694,0.25 1.548,0.25 z"
                   inkscape:connector-curvature="0"
                   style="fill-opacity:0.09019602;marker-start:none;marker-end:none" />
                <path
                   id="path91058"
                   d="m 1.785,5.25 c 0.723,0 1.31,-0.112 1.31,-0.25 0,-0.138 -0.587,-0.25 -1.31,-0.25 -0.723,0 -1.31,0.112 -1.31,0.25 0,0.138 0.587,0.25 1.31,0.25 z"
                   inkscape:connector-curvature="0"
                   style="fill-opacity:0.09019602;marker-start:none;marker-end:none" />
                <path
                   id="path91060"
                   d="M 1.547,5.25 C 2.073,5.25 2.499,5.138 2.499,5 2.499,4.862 2.073,4.75 1.547,4.75 1.021,4.75 0.595,4.862 0.595,5 c 0,0.138 0.426,0.25 0.952,0.25 z"
                   inkscape:connector-curvature="0"
                   style="fill-opacity:0.09019602;marker-start:none;marker-end:none" />
                <path
                   id="path91062"
                   d="M 1.369,5.25 C 1.665,5.25 1.905,5.138 1.905,5 1.905,4.862 1.665,4.75 1.369,4.75 1.073,4.75 0.833,4.862 0.833,5 c 0,0.138 0.24,0.25 0.536,0.25 z"
                   inkscape:connector-curvature="0"
                   style="fill-opacity:0.047059;marker-start:none;marker-end:none" />
              </g>
              <path
                 style="fill:url(#LinearGradient-96);stroke-width:0.032;marker-start:none;marker-end:none"
                 id="path91064"
                 stroke-miterlimit="79.8403193612775"
                 d="m 0.747,5.344 c -0.41,0.224 -0.72,0.862 -0.743,1.691 -0.041,1.434 0.275,2.866 0.592,4.197 0.377,1.576 1.001,3.153 1.717,4.216 0.607,0.872 1.431,1.294 2.699,0.909 0.636,-0.178 1.163,-0.522 1.738,-0.607 l 3,0 c 0.593,0.088 1.137,0.439 1.738,0.607 1.268,0.385 2.092,-0.037 2.699,-0.909 0.716,-1.063 1.34,-2.64 1.717,-4.216 0.317,-1.331 0.633,-2.763 0.592,-4.197 -0.023,-0.829 -0.333,-1.467 -0.742,-1.691 -0.315,-0.172 -0.697,-0.076 -0.983,0.03 -0.056,0.015 -0.11,0.038 -0.158,0.065 -0.164,0.069 -0.311,0.147 -0.442,0.236 -1.361,0.8 -1.925,2.299 -3.194,2.902 -0.886,0.206 -4.22,0.302 -5.454,0 C 4.253,7.974 3.689,6.475 2.329,5.675 2.198,5.586 2.051,5.508 1.888,5.439 1.839,5.412 1.784,5.389 1.728,5.373 1.441,5.268 1.061,5.172 0.747,5.344 z"
                 inkscape:connector-curvature="0" />
              <path
                 style="fill:url(#LinearGradient_1-118);stroke-width:0.032;marker-start:none;marker-end:none"
                 id="path91066"
                 stroke-miterlimit="79.8403193612775"
                 d="M 1.071,5.885 C 0.979,5.934 0.71,6.246 0.69,6.951 c -0.037,1.3 0.255,2.617 0.573,3.923 0.364,1.487 0.962,2.946 1.613,3.89 0.445,0.626 0.977,0.91 1.947,0.622 C 5.294,15.258 6.049,15.102 6.75,15 l 3,0 c 0.69,0.1 1.455,0.258 1.926,0.386 0.969,0.288 1.499,0.009 1.948,-0.622 0.65,-0.944 1.248,-2.403 1.612,-3.89 0.318,-1.306 0.61,-2.623 0.573,-3.923 C 15.789,6.246 15.52,5.934 15.429,5.885 15.403,5.871 15.285,5.852 15.009,5.954 L 14.972,5.968 14.941,5.975 14.878,6.004 C 14.746,6.059 14.638,6.116 14.52,6.193 13.326,6.881 12.691,8.4 11.267,9.063 L 11.201,9.094 11.129,9.111 C 10.149,9.334 6.714,9.432 5.363,9.109 L 5.296,9.092 5.232,9.064 C 3.824,8.409 3.134,6.859 1.957,6.179 1.861,6.116 1.753,6.059 1.626,6.007 L 1.593,5.993 1.556,5.974 1.522,5.965 1.492,5.954 C 1.212,5.852 1.096,5.871 1.071,5.885 z"
                 inkscape:connector-curvature="0" />
              <path
                 id="path91068"
                 stroke-miterlimit="79.8403193612775"
                 d="M 14.448,6.827 14.397,6.75 c -0.014,-0.034 -0.006,0.005 0.051,0.077 z m -0.083,1.332 -0.512,0.569 c -0.526,0.573 -1.16,1.187 -2.003,1.58 l -0.196,0.093 -0.219,0.05 C 10.269,10.716 6.628,10.825 5.041,10.445 L 4.847,10.398 4.66,10.314 C 3.811,9.919 3.173,9.304 2.643,8.728 L 2.132,8.164 2.199,8.685 c 0.098,0.589 0.239,1.205 0.4,1.862 0.338,1.383 0.882,2.671 1.402,3.428 0.045,0.062 0.08,0.101 0.115,0.136 L 4.181,14.12 C 4.232,14.116 4.313,14.102 4.432,14.067 L 4.47,14.056 c 0.197,-0.062 0.997,-0.608 1.918,-0.741 0.522,-0.075 1.163,-0.143 1.874,-0.153 0.617,0.016 1.228,0.059 1.857,0.155 0.891,0.129 1.765,0.693 1.91,0.739 l 0.036,0.011 c 0.119,0.035 0.201,0.049 0.252,0.054 l 0.064,-0.009 c 0.035,-0.034 0.07,-0.074 0.116,-0.137 0.521,-0.757 1.064,-2.045 1.402,-3.428 0.16,-0.657 0.302,-1.273 0.399,-1.862 l 0.067,-0.526 z"
                 inkscape:connector-curvature="0"
                 style="fill:#ffffff;fill-opacity:0.635294;stroke-width:0.032;marker-start:none;marker-end:none" />
              <path
                 id="path91070"
                 stroke-miterlimit="79.8403193612775"
                 d="m 6,9.75 4.5,0 c 1.375,0 6,-3 4.113,-4.311 -0.164,0.069 -0.311,0.147 -0.442,0.236 -1.361,0.8 -1.652,1.972 -2.921,2.575 -0.735,0.009 -4.593,0.076 -6,0 C 3.98,7.647 3.689,6.475 2.329,5.675 2.198,5.586 2.051,5.508 1.888,5.439 0,6.75 4.625,9.75 6,9.75 z"
                 inkscape:connector-curvature="0"
                 style="fill:#5e8ec2;stroke-width:0.032;marker-start:none;marker-end:none" />
              <path
                 style="fill:url(#LinearGradient_2-36);stroke-width:0.032;marker-start:none;marker-end:none"
                 id="path91072"
                 stroke-miterlimit="79.8403193612775"
                 d="m 4.125,14.25 c 0.621,0 1.125,-0.336 1.125,-0.749 0,-0.413 -0.504,-0.749 -1.125,-0.749 C 3.504,12.752 3,13.088 3,13.501 3,13.914 3.504,14.25 4.125,14.25 z"
                 inkscape:connector-curvature="0" />
              <path
                 id="path91074"
                 stroke-miterlimit="79.8403193612775"
                 d="M 4.125,14.25 C 4.746,14.25 5.25,14.082 5.25,13.875 5.25,13.668 4.746,13.5 4.125,13.5 3.504,13.5 3,13.668 3,13.875 3,14.082 3.504,14.25 4.125,14.25 z"
                 inkscape:connector-curvature="0"
                 style="fill:#e5e5e5;stroke-width:0.032;marker-start:none;marker-end:none" />
              <path
                 style="fill:url(#LinearGradient_3-06);stroke-width:0.032;marker-start:none;marker-end:none"
                 id="path91076"
                 stroke-miterlimit="79.8403193612775"
                 d="M 4.125,15 C 4.746,15 5.25,14.832 5.25,14.625 5.25,14.418 4.746,14.25 4.125,14.25 3.504,14.25 3,14.418 3,14.625 3,14.832 3.504,15 4.125,15 z"
                 inkscape:connector-curvature="0" />
              <path
                 style="fill:url(#LinearGradient_4-90);stroke-width:0.032;marker-start:none;marker-end:none"
                 id="path91078"
                 stroke-miterlimit="79.8403193612775"
                 d="M 8.252,15 C 9.078,15 9.75,14.664 9.75,14.25 9.75,13.84 9.078,13.5 8.252,13.5 7.422,13.5 6.75,13.84 6.75,14.25 6.75,14.664 7.422,15 8.252,15 z"
                 inkscape:connector-curvature="0" />
              <path
                 style="fill:url(#LinearGradient_5-94);stroke-width:0.012;marker-start:none;marker-end:none"
                 id="path91080"
                 stroke-miterlimit="79.8403193612775"
                 d="m 12.375,13.5 c 0.207,0 0.375,-0.168 0.375,-0.376 0,-0.206 -0.168,-0.374 -0.375,-0.374 -0.207,0 -0.375,0.168 -0.375,0.374 0,0.208 0.168,0.376 0.375,0.376 z"
                 inkscape:connector-curvature="0" />
              <path
                 style="fill:url(#LinearGradient_6-69);stroke-width:0.012;marker-start:none;marker-end:none"
                 id="path91082"
                 stroke-miterlimit="79.8403193612775"
                 d="M 11.625,14.25 C 11.832,14.25 12,14.082 12,13.874 12,13.669 11.832,13.5 11.625,13.5 c -0.206,0 -0.375,0.169 -0.375,0.374 0,0.208 0.169,0.376 0.375,0.376 z"
                 inkscape:connector-curvature="0" />
              <path
                 style="fill:url(#LinearGradient_7-36);stroke-width:0.032;marker-start:none;marker-end:none"
                 id="path91084"
                 stroke-miterlimit="79.8403193612775"
                 d="M 10.5,12 C 11.328,12 12,11.664 12,11.25 12,10.836 11.328,10.5 10.5,10.5 9.672,10.5 9,10.836 9,11.25 9,11.664 9.672,12 10.5,12 z"
                 inkscape:connector-curvature="0" />
              <path
                 style="fill:url(#LinearGradient_8-136);stroke-width:0.032;marker-start:none;marker-end:none"
                 id="path91086"
                 stroke-miterlimit="79.8403193612775"
                 d="M 10.5,12 C 11.328,12 12,11.832 12,11.625 12,11.418 11.328,11.25 10.5,11.25 9.672,11.25 9,11.418 9,11.625 9,11.832 9.672,12 10.5,12 z"
                 inkscape:connector-curvature="0" />
              <path
                 style="fill:url(#LinearGradient_9-307);stroke-width:0.032;marker-start:none;marker-end:none"
                 id="path91088"
                 stroke-miterlimit="79.8403193612775"
                 d="m 10.5,12.75 c 0.828,0 1.5,-0.169 1.5,-0.376 C 12,12.168 11.328,12 10.5,12 9.672,12 9,12.168 9,12.374 c 0,0.207 0.672,0.376 1.5,0.376 z"
                 inkscape:connector-curvature="0" />
              <path
                 style="fill:url(#LinearGradient_10-52);stroke-width:0.012;marker-start:none;marker-end:none"
                 id="path91090"
                 stroke-miterlimit="79.8403193612775"
                 d="m 13.125,14.25 c 0.207,0 0.375,-0.168 0.375,-0.375 0,-0.207 -0.168,-0.375 -0.375,-0.375 -0.207,0 -0.375,0.168 -0.375,0.375 0,0.207 0.168,0.375 0.375,0.375 z"
                 inkscape:connector-curvature="0" />
              <path
                 style="fill:url(#LinearGradient_11-795);stroke-width:0.012;marker-start:none;marker-end:none"
                 id="path91092"
                 stroke-miterlimit="79.8403193612775"
                 d="m 12.375,15 c 0.207,0 0.375,-0.168 0.375,-0.375 0,-0.207 -0.168,-0.375 -0.375,-0.375 C 12.168,14.25 12,14.418 12,14.625 12,14.832 12.168,15 12.375,15 z"
                 inkscape:connector-curvature="0" />
              <path
                 style="fill:url(#LinearGradient_12-331);stroke-width:0.032;marker-start:none;marker-end:none"
                 id="path91094"
                 stroke-miterlimit="79.8403193612775"
                 d="M 6,12 C 6.828,12 7.5,11.664 7.5,11.25 7.5,10.836 6.828,10.5 6,10.5 5.172,10.5 4.5,10.836 4.5,11.25 4.5,11.664 5.172,12 6,12 z"
                 inkscape:connector-curvature="0" />
              <path
                 style="fill:url(#LinearGradient_13-695);stroke-width:0.032;marker-start:none;marker-end:none"
                 id="path91096"
                 stroke-miterlimit="79.8403193612775"
                 d="M 6,12 C 6.828,12 7.5,11.832 7.5,11.625 7.5,11.418 6.828,11.25 6,11.25 5.172,11.25 4.5,11.418 4.5,11.625 4.5,11.832 5.172,12 6,12 z"
                 inkscape:connector-curvature="0" />
              <path
                 style="fill:url(#LinearGradient_14-838);stroke-width:0.032;marker-start:none;marker-end:none"
                 id="path91098"
                 stroke-miterlimit="79.8403193612775"
                 d="m 6,12.75 c 0.828,0 1.5,-0.169 1.5,-0.376 C 7.5,12.168 6.828,12 6,12 5.172,12 4.5,12.168 4.5,12.374 4.5,12.581 5.172,12.75 6,12.75 z"
                 inkscape:connector-curvature="0" />
            </g>
          </g>
        </g>
      </g>
    </g>
  </g>
</svg>
