<?xml version="1.0" encoding="UTF-8" standalone="no"?>
<!-- Creator: CorelDRAW -->

<svg
   xmlns:dc="http://purl.org/dc/elements/1.1/"
   xmlns:cc="http://creativecommons.org/ns#"
   xmlns:rdf="http://www.w3.org/1999/02/22-rdf-syntax-ns#"
   xmlns:svg="http://www.w3.org/2000/svg"
   xmlns="http://www.w3.org/2000/svg"
   xmlns:sodipodi="http://sodipodi.sourceforge.net/DTD/sodipodi-0.dtd"
   xmlns:inkscape="http://www.inkscape.org/namespaces/inkscape"
   xml:space="preserve"
   width="22px"
   height="22px"
   style="shape-rendering:geometricPrecision; text-rendering:geometricPrecision; image-rendering:optimizeQuality; fill-rule:evenodd; clip-rule:evenodd"
   viewBox="0 0 22 22"
   id="svg3110"
   version="1.1"
   inkscape:version="0.48.3.1 r9886"
   sodipodi:docname="libreoffice-main.svg"><metadata
   id="metadata3248"><rdf:RDF><cc:Work
       rdf:about=""><dc:format>image/svg+xml</dc:format><dc:type
         rdf:resource="http://purl.org/dc/dcmitype/StillImage" /><dc:title /></cc:Work></rdf:RDF></metadata><sodipodi:namedview
   pagecolor="#ffffff"
   bordercolor="#666666"
   borderopacity="1"
   objecttolerance="10"
   gridtolerance="10"
   guidetolerance="10"
   inkscape:pageopacity="0"
   inkscape:pageshadow="2"
   inkscape:window-width="1920"
   inkscape:window-height="1057"
   id="namedview3246"
   showgrid="true"
   inkscape:zoom="27.454546"
   inkscape:cx="8.6056895"
   inkscape:cy="8.9785502"
   inkscape:window-x="-8"
   inkscape:window-y="-8"
   inkscape:window-maximized="1"
   inkscape:current-layer="svg3110"><inkscape:grid
     type="xygrid"
     id="grid3064" /></sodipodi:namedview>
 <defs
   id="defs3112">
  <style
   type="text/css"
   id="style3114">
   
    .fil14 {fill:none}
    .fil15 {fill:#333333}
    .fil20 {fill:white}
    .fil23 {fill:black;fill-rule:nonzero}
    .fil33 {fill:white;fill-rule:nonzero}
    .fil37 {fill:#7EA140;fill-rule:nonzero}
    .fil36 {fill:#9BBA65;fill-rule:nonzero}
    .fil19 {fill:#BA5837;fill-rule:nonzero}
    .fil0 {fill:black;fill-opacity:0.000000}
    .fil24 {fill:#524F4F;fill-opacity:0.000000}
    .fil1 {fill:black;fill-opacity:0.003922}
    .fil2 {fill:black;fill-opacity:0.007843}
    .fil3 {fill:black;fill-opacity:0.015686}
    .fil4 {fill:black;fill-opacity:0.019608}
    .fil5 {fill:black;fill-opacity:0.023529}
    .fil6 {fill:black;fill-opacity:0.027451}
    .fil25 {fill:#524F4F;fill-opacity:0.031373}
    .fil7 {fill:black;fill-opacity:0.031373}
    .fil8 {fill:black;fill-opacity:0.035294}
    .fil9 {fill:black;fill-opacity:0.043137}
    .fil10 {fill:black;fill-opacity:0.047059}
    .fil11 {fill:black;fill-opacity:0.050980}
    .fil12 {fill:black;fill-opacity:0.054902}
    .fil13 {fill:black;fill-opacity:0.058824}
    .fil26 {fill:#524F4F;fill-opacity:0.062745}
    .fil27 {fill:#524F4F;fill-opacity:0.094118}
    .fil28 {fill:#524F4F;fill-opacity:0.125490}
    .fil29 {fill:#524F4F;fill-opacity:0.156863}
    .fil30 {fill:#524F4F;fill-opacity:0.188235}
    .fil31 {fill:#524F4F;fill-opacity:0.219608}
    .fil18 {fill:url(#id0)}
    .fil16 {fill:url(#id1)}
    .fil35 {fill:url(#id2)}
    .fil21 {fill:url(#id3)}
    .fil32 {fill:url(#id4)}
    .fil22 {fill:url(#id5);fill-rule:nonzero}
    .fil34 {fill:url(#id6);fill-rule:nonzero}
    .fil17 {fill:url(#id7);fill-rule:nonzero}
   
  </style>
  <linearGradient
   id="id0"
   gradientUnits="userSpaceOnUse"
   x1="15.5752"
   y1="10.9317"
   x2="15.459"
   y2="20.3695">
   <stop
   offset="0"
   style="stop-color:#FC8844"
   id="stop3117" />
   <stop
   offset="1"
   style="stop-color:#CC6633"
   id="stop3119" />
  </linearGradient>
  <linearGradient
   id="id1"
   gradientUnits="userSpaceOnUse"
   x1="6.58838"
   y1="20.4117"
   x2="6.58838"
   y2="11.1806">
   <stop
   offset="0"
   style="stop-color:#6AA2DE"
   id="stop3122" />
   <stop
   offset="1"
   style="stop-color:#84C5FA"
   id="stop3124" />
  </linearGradient>
  <linearGradient
   id="id2"
   gradientUnits="userSpaceOnUse"
   x1="6.77178"
   y1="0.805334"
   x2="6.55776"
   y2="10.3242">
   <stop
   offset="0"
   style="stop-color:#C0E36F"
   id="stop3127" />
   <stop
   offset="0.419608"
   style="stop-color:#ACD156"
   id="stop3129" />
   <stop
   offset="1"
   style="stop-color:#9EC444"
   id="stop3131" />
  </linearGradient>
  <linearGradient
   id="id3"
   gradientUnits="userSpaceOnUse"
   x1="15.6214"
   y1="9.25327"
   x2="15.5281"
   y2="1.64752">
   <stop
   offset="0"
   style="stop-color:#7D7AEA"
   id="stop3134" />
   <stop
   offset="1"
   style="stop-color:#A4A1FF"
   id="stop3136" />
  </linearGradient>
  <linearGradient
   id="id4"
   gradientUnits="userSpaceOnUse"
   x1="11.447"
   y1="18.8852"
   x2="11.3702"
   y2="19.614">
   <stop
   offset="0"
   style="stop-color:#C4C4C4"
   id="stop3139" />
   <stop
   offset="1"
   style="stop-color:#D4D4D4"
   id="stop3141" />
  </linearGradient>
  <linearGradient
   id="id5"
   gradientUnits="userSpaceOnUse"
   x1="15.5037"
   y1="11.0414"
   x2="15.5037"
   y2="0.0337328">
   <stop
   offset="0"
   style="stop-color:#5955BD"
   id="stop3144" />
   <stop
   offset="1"
   style="stop-color:#8784EB"
   id="stop3146" />
  </linearGradient>
  <linearGradient
   id="id6"
   gradientUnits="userSpaceOnUse"
   x1="11.4371"
   y1="20.948"
   x2="11.3906"
   y2="17.8815">
   <stop
   offset="0"
   style="stop-color:#7F7F7F"
   id="stop3149" />
   <stop
   offset="1"
   style="stop-color:#8F8F8F"
   id="stop3151" />
  </linearGradient>
  <linearGradient
   id="id7"
   gradientUnits="userSpaceOnUse"
   x1="6.4971"
   y1="18.4756"
   x2="6.4971"
   y2="13.0121">
   <stop
   offset="0"
   style="stop-color:#4E87B4"
   id="stop3154" />
   <stop
   offset="1"
   style="stop-color:#66A1D1"
   id="stop3156" />
  </linearGradient>
 </defs>
 <g
   id="Слой_x0020_1"
   transform="matrix(1,0,0,0.90939387,0,1.0306764)">
  <metadata
   id="CorelCorpID_0Corel-Layer" />
  <g
   id="_47433104">
   <path
   id="_47818288"
   class="fil0"
   d="m 10.744,18.4575 c 6.84718,-0.293957 9.90978,0.324288 11.2409,1.18405 l 0,2.28192 c -0.0618,0.01276 -0.126144,0.02438 -0.193326,0.03543 l -21.0189,0 0,-2.05118 c 1.30197,-0.633552 4.07486,-1.19737 9.97129,-1.45023 z"
   inkscape:connector-curvature="0"
   style="fill:#000000;fill-opacity:0" />
   <g
   id="g3162">
    <path
   id="_123027336"
   class="fil1"
   d="m 10.7684,18.6344 c 6.85455,-0.283469 9.92197,0.37106 11.2166,1.24074 l 0,2.00809 c -0.136065,0.02948 -0.286587,0.05443 -0.451282,0.07569 l -20.761,0 0,-1.85275 c 1.2637,-0.642623 4.0227,-1.22487 9.99567,-1.47177 z"
   inkscape:connector-curvature="0"
   style="fill:#000000;fill-opacity:0.00392199" />
    <path
   id="_59305896"
   class="fil2"
   d="m 10.7925,18.8115 c 6.84237,-0.271563 9.93444,0.417266 11.1925,1.2895 l 0,1.7422 c -0.217137,0.05017 -0.476794,0.08759 -0.775003,0.115655 l -20.4372,0 0,-1.66084 c 1.23025,-0.648009 3.98784,-1.24726 10.0198,-1.48651 z"
   inkscape:connector-curvature="0"
   style="fill:#000000;fill-opacity:0.00784302" />
    <path
   id="_21421960"
   class="fil3"
   d="m 10.8169,18.9887 c 6.80892,-0.25739 9.94918,0.461203 11.1681,1.32805 l 0,1.48708 c -0.311249,0.07654 -0.724829,0.125293 -1.22487,0.155057 l -5.96078,0 c -0.557299,-0.0037 -1.12962,-0.0045 -1.71272,0 l -12.2629,0 -0.0510244,-0.0094 0,-1.46865 c 1.20134,-0.648576 3.97593,-1.26257 10.0441004,-1.49218 z"
   inkscape:connector-curvature="0"
   style="fill:#000000;fill-opacity:0.01568598" />
    <path
   id="_48267136"
   class="fil4"
   d="m 10.841,19.1659 c 6.75307,-0.241515 9.97044,0.502873 11.144,1.35611 l 0,1.24301 c -0.450715,0.119057 -1.16165,0.172916 -2.0628,0.193893 l -2.69409,0 c -1.70875,-0.01928 -3.69416,-0.05131 -5.74392,0 l -10.3602,0 C 0.996713,21.942188 0.879357,21.924046 0.772772,21.90392 l 0,-1.25095 c 1.17498,-0.643474 3.99067,-1.26966 10.0682,-1.48708 z"
   inkscape:connector-curvature="0"
   style="fill:#000000;fill-opacity:0.01960802" />
    <path
   id="_58710456"
   class="fil5"
   d="m 10.8651,19.3428 c 6.67597,-0.223657 10.0039,0.540858 11.1199,1.37199 l 0,1.0117 c -1.40629,0.402809 -5.96361,0.08589 -10.7919,0.212318 l -0.772169,0.02013 -8.88759,0 c -0.297642,-0.02665 -0.55248,-0.05981 -0.760546,-0.09978 l 0,-1.046 c 1.1489,-0.632419 4.03546,-1.26739 10.0923,-1.47035 z"
   inkscape:connector-curvature="0"
   style="fill:#000000;fill-opacity:0.02352899" />
    <path
   id="_65925736"
   class="fil6"
   d="m 10.8889,19.5202 c 6.58101,-0.203814 10.0595,0.576292 11.0961,1.37709 l 0,0.790877 c -1.26314,0.401675 -5.89756,0.109135 -10.7829,0.222523 -0.732483,0.01701 -1.45589,0.03345 -2.16145,0.04819 l -6.87383,0 c -0.589331,-0.0309 -1.06329,-0.0771 -1.3941,-0.142018 l 0,-0.855792 c 1.11743,-0.615694 4.11143,-1.25463 10.1161,-1.44087 z"
   inkscape:connector-curvature="0"
   style="fill:#000000;fill-opacity:0.02745098" />
    <path
   id="_59950680"
   class="fil7"
   d="m 10.9138,19.6977 c 6.47102,-0.182554 10.1476,0.608891 11.0712,1.37085 l 0,0.582528 c -1.08654,0.397706 -5.81621,0.131246 -10.7727,0.231594 -1.59224,0.03232 -3.14905,0.0618 -4.56384,0.07625 l -3.01185,0 C 2.32132,21.939082 1.31047,21.88494 0.77273,21.776371 l 0,-0.679758 c 1.07406,-0.592733 4.21716,-1.23224 10.1411,-1.39892 z"
   inkscape:connector-curvature="0"
   style="fill:#000000;fill-opacity:0.03137303" />
    <path
   id="_46825200"
   class="fil8"
   d="m 10.9376,19.8751 c 6.37266,-0.159309 10.3092,0.644891 11.0473,1.36122 l 0,0.375029 c -0.83765,0.395155 -5.69857,0.156758 -10.7633,0.243216 -4.74838,0.08136 -9.22237,0.140034 -10.4489,-0.116789 l 0,-0.517897 c 1.00972,-0.563819 4.35011,-1.19992 10.1649,-1.34478 z"
   inkscape:connector-curvature="0"
   style="fill:#000000;fill-opacity:0.035294" />
    <path
   id="_58558720"
   class="fil9"
   d="m 10.9617,20.052 c 6.37209,-0.136348 10.6868,0.706687 11.0232,1.3717 l 0,0.130963 c -0.366241,0.41188 -5.46839,0.198145 -10.7539,0.271563 -4.81613,0.0669 -9.40039,0.110553 -10.4583,-0.124443 l 0,-0.369643 C 1.681784,20.802337 5.27787,20.17332 10.9617,20.052 z"
   inkscape:connector-curvature="0"
   style="fill:#000000;fill-opacity:0.04313702" />
    <path
   id="_61856640"
   class="fil10"
   d="m 10.9858,20.2292 c 6.17338,-0.106301 10.905,0.716609 10.9158,1.30651 0.01049,0.374179 -5.25126,0.205231 -10.661,0.262208 -4.91648,0.05216 -9.64615,0.08022 -10.4679,-0.129262 l 0,-0.230177 c 0.737018,-0.490968 4.66334,-1.11403 10.2131,-1.20928 z"
   inkscape:connector-curvature="0"
   style="fill:#000000;fill-opacity:0.047059" />
    <path
   id="_59370120"
   class="fil11"
   d="m 11.0102,20.4063 c 5.71898,-0.07087 10.7789,0.656797 10.786,1.16194 0.0071,0.267311 -5.22007,0.163561 -10.5459,0.201546 -5.11831,0.03685 -10.0963,0.04734 -10.4776,-0.135781 l 0,-0.0805 c 0.358304,-0.446463 4.75717,-1.07945 10.2375,-1.1472 z"
   inkscape:connector-curvature="0"
   style="fill:#000000;fill-opacity:0.05097997" />
    <path
   id="_60442008"
   class="fil12"
   d="m 11.0343,20.5835 c 5.2643,-0.03543 10.653,0.597268 10.6567,1.01709 0.0034,0.16101 -5.18918,0.122175 -10.4314,0.140884 -5.24219,0.01928 -10.4093,0.01105 -10.4093,-0.117923 0,-0.391187 4.91903,-1.00461 10.1839,-1.04005 z"
   inkscape:connector-curvature="0"
   style="fill:#000000;fill-opacity:0.05490202" />
   </g>
   <path
   id="_61749008"
   class="fil13"
   d="m 11.0581,20.761 c 4.81046,0 10.5275,0.537457 10.5275,0.872516 0,0.109135 -20.6334,0.104883 -20.6334,0.0031 0,-0.334776 5.29576,-0.875635 10.1059,-0.875635 z"
   inkscape:connector-curvature="0"
   style="fill:#000000;fill-opacity:0.05882401" />
  </g>
  <path
   class="fil14"
   d="m 1.89442,18.9558 -0.121608,0.132947 m 20.1742,-0.01446 -0.136348,-0.120191"
   id="path3177"
   inkscape:connector-curvature="0"
   style="fill:none" />
  <rect
   class="fil15"
   x="5.3821998"
   y="1.136"
   width="11.1584"
   height="16.700001"
   id="rect3179"
   style="fill:#333333" />
  <path
   class="fil14"
   d="m 2.52117,19.1684 -0.113671,0.122175 m 18.8351,-0.01332 -0.127277,-0.110836"
   id="path3181"
   inkscape:connector-curvature="0"
   style="fill:none" />
  <path
   class="fil16"
   d="m 2.17704,11.4813 c 0,-0.114805 0.046489,-0.219688 0.123592,-0.301894 0.098931,-0.116506 0.248602,-0.191058 0.415282,-0.191058 l 7.70071,0.002 c 0.295941,0 0.554748,0.229326 0.551063,0.513929 -0.0054,0.394872 0.02438,0.794846 0.02495,1.1798 l 0.0068,7.39711 c 5.67e-4,0.285169 -0.237263,0.522716 -0.526685,0.522716 -3.4693696,0 -1.8439596,-0.0023 -7.7622196,-0.0023 -0.289421,0 -0.526401,-0.235279 -0.526968,-0.522716 -0.00255,-2.86587 -0.00368,-5.73174 -0.00652,-8.5976 z"
   id="path3183"
   style="fill:url(#id1)"
   inkscape:connector-curvature="0" />
  <path
   class="fil17"
   d="m 1.97237,11.4989 c 0,-0.119907 0.024378,-0.238114 0.069166,-0.347816 l -2.835e-4,0 c 0.044505,-0.109135 0.110269,-0.209483 0.191625,-0.296225 l 8.504e-4,8.5e-4 c 0.094395,-0.10545 0.210617,-0.192475 0.340446,-0.252287 l -2.834e-4,-8.5e-4 c 0.134364,-0.0618 0.283469,-0.09666 0.437676,-0.09666 l 0,0.002 6.9189,-0.01559 0,-0.002 0.00737,0 0.00595,0.002 c 0.2712795,0.0037 0.5266855,0.110269 0.7126405,0.281484 0.197294,0.18142 0.323438,0.437392 0.322871,0.724829 l 0.002,0 0,0.006 -0.002,0.006 c -0.0026,0.198145 0.0051,0.411596 0.01219,0.622781 0.0074,0.207216 0.01474,0.411313 0.01474,0.550496 l -0.002,0 0.01559,7.27522 0.002,0 0,0.0011 c 0,0.27865 -0.116222,0.535189 -0.303311,0.721144 -0.184255,0.183688 -0.440794,0.299059 -0.7225621,0.299343 l 0,0.002 -0.00113,0 0,-0.002 -2.2944,-0.0011 -4.68602,0.01786 c -0.28035,0 -0.536606,-0.115372 -0.723128,-0.300193 -0.185672,-0.183971 -0.301327,-0.440227 -0.301611,-0.722562 l -0.00255,-3.68481 -0.012756,-4.7909 -0.00198,0 z m 0.998093,-0.379281 0.00113,-0.0037 -0.00113,0 0,0.0037 z m 0.00482,0.01644 -0.00482,0.006 0.012756,5.14779 0.00255,3.68481 c 0,0.0043 0.00369,0.01077 0.0085,0.01559 0.00425,0.0043 0.011622,0.0071 0.020126,0.0071 1.36547,0 2.76722,-0.01559 4.68602,-0.01389 l 2.2944,0.0011 0,-0.002 0.00113,0 0,0.002 c 0.00595,0 0.013606,-0.0043 0.019559,-0.0102 0.0037,-0.0037 0.0062,-0.0091 0.0062,-0.01417 l 0,-0.0011 0.002,0 -0.01559,-7.27522 -0.002,0 c 0,-0.210901 -0.0054,-0.364257 -0.010771,-0.515346 l 0,-0.002 C 9.987973,11.951087 9.980603,11.3507 9.983154,11.122223 l -0.00255,0.0028 C 9.969549,11.114533 9.953958,11.107163 9.9378,11.105743 l 0,0.0017 -0.00737,0 0,-0.002 -6.9189,0.01559 0,0.002 c -0.00879,0 -0.015874,0.0014 -0.019843,0.0031 l -0.00198,0 c -0.00595,0.0026 -0.011339,0.0065 -0.014457,0.0099 z m 7.00791,-0.02041 c 0,-0.0026 -2.835e-4,-0.0014 -5.67e-4,0 l 5.67e-4,0 z m -0.00113,0.006 -0.00142,0.0034 0.00255,-0.0028 0,-5.67e-4 -0.00113,0 z"
   id="path3185"
   style="fill:url(#id7);fill-rule:nonzero"
   inkscape:connector-curvature="0" />
  <path
   class="fil18"
   d="m 11.4116,12.6115 -0.0011,-1.16562 c 0,-0.114521 0.04649,-0.219688 0.123592,-0.301611 0.09893,-0.116506 0.248602,-0.191341 0.415282,-0.191341 l 7.09097,-0.06747 c 0.295941,-0.0028 0.555032,0.229044 0.551063,0.513646 -0.0054,0.395438 0.02466,0.795128 0.02523,1.18008 l 0.0068,7.248859 c 2.84e-4,0.284886 -0.237547,0.523 -0.526968,0.523 -3.46966,0 -1.23451,0.06775 -7.15248,0.06775 -0.289138,0 -0.526401,-0.235562 -0.526685,-0.523 l -0.0068,-7.24914 c 0,-0.01191 2.83e-4,-0.02353 0.0011,-0.03515 z"
   id="path3187"
   style="fill:url(#id0)"
   inkscape:connector-curvature="0" />
  <path
   class="fil19"
   d="m 10.9135,12.5925 -0.0014,-1.14663 -0.002,0 c 0,-0.117923 0.02551,-0.236129 0.07087,-0.347533 l 0,-0.0017 c 0.04252,-0.103183 0.102899,-0.198145 0.176034,-0.2795 l 0.0014,-0.0017 0.002,-0.0023 c 0.09496,-0.109702 0.215436,-0.200412 0.352635,-0.263059 0.134931,-0.0618 0.283752,-0.09666 0.436258,-0.09666 l 0,0.002 7.09125,0.002 0,-0.002 0.0068,0 0.004,0.002 c 0.272697,0.0031 0.528669,0.109986 0.715191,0.281201 0.198145,0.18227 0.325139,0.438242 0.325139,0.724546 l 0,0.0057 -0.002,0.006 c -0.0028,0.199278 0.0048,0.414148 0.01219,0.626466 l 0,0.002 c 0.0071,0.206365 0.01446,0.412447 0.01446,0.545394 l -0.002,0 0.0074,7.24943 0.002,0 c 0,0.280067 -0.117356,0.53689 -0.304162,0.721995 -0.185955,0.184822 -0.442495,0.30076 -0.722845,0.30076 l 0,-0.002 -2.82958,-8.51e-4 -4.32318,-0.0011 0,0.002 c -0.280067,0 -0.536606,-0.115372 -0.723128,-0.300193 -0.185388,-0.183688 -0.301611,-0.440227 -0.301894,-0.722562 l -0.0068,-7.24943 0,-0.01956 0.0014,-0.03458 z m 1.06414,-1.59905 0,0.004 0.0014,-0.004 -0.0014,0 z m 0,0.02806 -0.06803,1.58998 -0.498054,0 0.498054,0.01956 -0.0014,0.03458 0.0068,7.23043 c 0,0.0043 0.0034,0.0102 0.0088,0.01559 0.004,0.004 0.01162,0.0071 0.02013,0.0071 l 0,0.002 4.32318,0.0011 2.82958,8.5e-4 0,-0.002 c 0.0079,0 0.01531,-0.0031 0.01984,-0.0077 0.004,-0.004 0.0071,-0.0099 0.0071,-0.01502 l 0.002,0 -0.0074,-7.24943 -0.002,0 c 0,-0.214869 -0.0054,-0.363407 -0.01049,-0.512228 -0.0077,-0.216853 0.05443,-0.888958 0.05726,-1.11913 l -0.0028,0.0031 c -0.01162,-0.01077 -0.02721,-0.01814 -0.04337,-0.01928 l 0,0.002 -0.0068,0 0,-0.002 -7.09125,-0.002 0,0.002 c -0.01049,0 -0.01842,0.0014 -0.02239,0.0031 -0.0037,0.0017 -0.0085,0.0054 -0.01191,0.0096 l -0.0068,0.0077 z m 7.18338,-0.01077 -8.5e-4,0.0096 0.0028,-0.0031 0,-8.5e-4 -0.002,0 0,-0.0057 z"
   id="path3189"
   inkscape:connector-curvature="0"
   style="fill:#ba5837;fill-rule:nonzero" />
  <polygon
   class="fil20"
   points="12.9738,15.9193 12.9746,12.0111 17.0217,12.0032 17.0365,13.4563 16.0897,13.4659 16.12,12.9917 14.0623,13.0013 14.0087,15.9023 16.0735,15.8901 16.1183,16.8434 13.0203,16.8392 "
   id="polygon3191"
   style="fill:#ffffff" />
  <path
   class="fil21"
   d="m 19.7079,1.42415 -0.0462,8.59449 c -0.0023,0.284319 -0.23783,0.523 -0.527252,0.523 -3.46937,0 -1.21381,-0.03231 -7.13179,-0.03231 -0.289421,0 -0.526685,-0.235279 -0.526685,-0.5224334 l 0,-0.430872 c -0.01956,-0.054709 -0.0309,-0.113387 -0.0309,-0.174617 -0.002,-2.84262 -0.0043,-5.68581 -0.0065,-8.52872 0,-0.114521 0.04677,-0.219688 0.123876,-0.301611 0.09865,-0.116222 0.248602,-0.191341 0.415282,-0.191341 l 6.90218,0.002268 c 0.50996,0 0.831697,0.78124 0.828012,1.06216 z"
   id="path3193"
   style="fill:url(#id3)"
   inkscape:connector-curvature="0" />
  <path
   class="fil22"
   d="m 20.0667,1.60018 -0.04592,8.42044 0,0.002 c -0.002,0.279217 -0.11849,0.534905 -0.303878,0.718876 -0.185955,0.184255 -0.441077,0.300193 -0.721428,0.300193 -1.31671,0 -2.02,-0.0071 -2.82505,-0.01502 -0.818941,-0.0077 -0.611725,-0.01729 -4.16784,-0.01729 -0.28035,0 -0.53689,-0.115372 -0.723412,-0.300193 -0.186806,-0.185105 -0.303311,-0.441644 -0.303311,-0.7222781 l 0,-0.363974 -0.01361,-0.065765 -0.0017,-0.00595 c -0.0096,-0.058111 -0.01559,-0.115372 -0.01559,-0.169798 l 0.002,0 -0.0065,-8.35467 -0.002,0 c 0,-0.11848996 0.02551,-0.23612896 0.07058,-0.34696596 l -0.0017,-5.6694e-4 c 0.04479,-0.109986 0.110553,-0.210334 0.191625,-0.295941 l 8.51e-4,8.5041e-4 c 0.0944,-0.105734 0.210334,-0.192759 0.340446,-0.252571 L 11.539979,0.130706 C 11.67406,0.0689098 11.823164,0.0337597 11.977655,0.0337597 l 0,0.0019843 6.76328,0.0022677 0,-0.0019843 0.0071,0 0.006,0.0019843 c 0.455251,0.0059528 0.796263,0.306146 1.01652,0.659065 0.191341,0.306146 0.298209,0.681742 0.298209,0.896044 l 0,0.0051 -0.002,0.00198 z m -1.04203,8.41448 0.04592,-8.41647 -0.002,0 0,-0.0051 c 0,-0.06945 -0.05244,-0.219405 -0.145703,-0.368793 -0.06123,-0.098364 -0.128695,-0.18227 -0.1749,-0.189641 l 0,0.00142 -0.0071,0 0,-0.00198 -6.76328,-0.00227 0,0.00198 c -0.0082,0 -0.01531,0.00142 -0.01984,0.0034 l -0.002,0 c -0.0062,0.00283 -0.01134,0.0068 -0.01446,0.010205 l -0.0048,0.00595 0.0065,8.32802 0.002,0 -2.83e-4,0.00425 0.002,0.00425 0.0292,0.166113 0,0.430872 c 0,0.00595 0.0028,0.011906 0.0062,0.015307 0.004,0.004 0.01162,0.0071 0.02041,0.0071 3.14679,0 3.16861,0.01162 4.17578,0.02126 0.592166,0.006 1.12452,0.01106 2.81711,0.01106 0.0074,0 0.01417,-0.0028 0.01843,-0.0071 0.0062,-0.0062 0.01077,-0.01417 0.01077,-0.01984 z m -7.08813,-8.98794 0,0.00397 0.0014,-0.00397 -0.0014,0 z"
   id="path3195"
   style="fill:url(#id5);fill-rule:nonzero"
   inkscape:connector-curvature="0" />
  <path
   class="fil23"
   d="M 4.50743,2.40523 5.203629,3.027727 5.17755,3.003632 5.161109,2.986057 5.130778,2.948356 C 4.970618,2.732636 4.942838,2.555185 5.008036,2.405514 L 4.50743,2.4052305 z"
   id="path3197"
   inkscape:connector-curvature="0"
   style="fill:#000000;fill-rule:nonzero" />
  <path
   class="fil23"
   d="M 7.05468,4.70671 C 7.111657,4.781546 7.154744,4.861484 7.184509,4.943973 L 7.245738,4.877641 7.05468,4.706709 z"
   id="path3199"
   inkscape:connector-curvature="0"
   style="fill:#000000;fill-rule:nonzero" />
  <path
   class="fil23"
   d="M 4.97544,8.74472 5.26231,8.7441531 C 5.141552,8.7104203 5.029866,8.6466399 4.939723,8.5658511 l -0.0017,-0.0017 C 4.86914,8.5015041 4.80621,8.4232671 4.760572,8.3385101 l -0.136915,0.152223 -0.017858,0.019843 -0.00765,0.00765 -0.010772,0.0085 -0.055276,0.054709 -0.00992,0.012189 -0.00964,0.025229 -0.00992,0.031182 0.00992,0.093545 0.00369,0 0.459219,0 0,0.00113 z"
   id="path3201"
   inkscape:connector-curvature="0"
   style="fill:#000000;fill-rule:nonzero" />
  <path
   class="fil23"
   d="M 8.1432,8.76202 C 7.476198,8.777044 6.41461,8.806525 5.58206,8.830619 5.626848,8.7915 5.687227,8.733673 5.760078,8.660254 c 0.347816,0.074269 0.685994,0.126427 0.712073,0.126427 0.044505,0 1.1506,-0.072851 1.67105,-0.108285 l 0,0.083623 z"
   id="path3203"
   inkscape:connector-curvature="0"
   style="fill:#000000;fill-rule:nonzero" />
  <polygon
   class="fil23"
   points="17.6326,5.71926 17.6519,5.7187 17.6635,5.71359 "
   id="polygon3205"
   style="fill:#000000;fill-rule:nonzero" />
  <path
   class="fil23"
   d="M 16.7658,5.87517 C 16.78791,5.855894 16.81172,5.845689 16.83638,5.841437 L 16.78082,5.872619 16.7658,5.875169 z"
   id="path3207"
   inkscape:connector-curvature="0"
   style="fill:#000000;fill-rule:nonzero" />
  <polygon
   class="fil23"
   points="15.4624,5.80119 15.4564,5.79835 15.4592,5.79835 15.4612,5.79977 "
   id="polygon3209"
   style="fill:#000000;fill-rule:nonzero" />
  <path
   class="fil20"
   d="m 7.51872,12.7156 8.504e-4,0 -0.02778,-0.02976 -0.030048,0.02806 -0.430589,0.428321 0,0 -0.02778,0.02665 0.026079,0.02721 0,0 0.876202,0.892359 0.02863,0.03061 0.029481,-0.02976 0.442778,-0.456384 0,0 0.026079,-0.02665 -0.025229,-0.0275 -8.504e-4,0 C 7.944207,13.084676 7.992396,13.223576 7.51872,12.7156 z m -3.11674,3.25961 0.822909,0.846721 0.017008,0.01758 0.022961,-0.0054 0,0 0.402525,-0.447597 0.026079,-0.01361 1.45221,-1.47007 0.02693,-0.02665 -0.025229,-0.02806 -0.881304,-0.898029 -0.026929,-0.03033 -0.030048,0.02891 -1.47602,1.43378 -0.01474,0.02494 -0.325422,0.532354 0,0 -0.00482,0.02013 0.01389,0.01531 z m 5.20845,-2.20794 0,0 c 0.073418,0.329107 -0.247185,0.627883 -0.487566,0.85239 -0.04252,0.03855 -0.082489,0.07654 -0.116789,0.110269 l -2.60961,2.63541 -0.00652,0.0048 -0.111687,0.0652 -0.00879,0.0031 -2.47667,0.191341 0,0 -0.025512,0.0057 c -0.054426,0.01276 -0.091277,0.01531 -0.119624,0.0096 l 0,0 C 3.61563,17.63938 3.596071,17.6241 3.57396,17.60341 l 0,0 C 3.536542,17.56713 3.540794,17.55012 3.552133,17.502779 c 0.00397,-0.02098 0.011339,-0.05017 0.01474,-0.09269 l 5.669e-4,-0.004 0.21572,-2.6578 0.0034,-0.0088 0.065198,-0.112537 0.00567,-0.0065 2.84461,-2.75758 0.00227,-0.0017 0.052158,0.02324 -0.030048,-0.04649 0.036568,0.036 c 0.022961,-0.03288 0.023811,-0.110269 0.079938,-0.147971 1.0871,-0.676073 2.94694,1.22969 2.7675,2.04126 z"
   id="path3211"
   inkscape:connector-curvature="0"
   style="fill:#ffffff" />
  <g
   id="_61246136">
   <path
   id="_58240192"
   class="fil24"
   d="m 4.80791,17.8923 13.1065,0.03912 c 0.454684,0.0011 0.680892,0.281768 0.826595,0.586497 l 1.27079,2.07131 c 0.06718,0.109419 0.03288,0.218838 -0.06066,0.312666 -6.38003,-5.67e-4 -5.70225,-0.0048 -17.2547003,-0.0051 -0.089576,-0.09298 -0.121325,-0.200129 -0.053009,-0.307563 l 1.33797,-2.11071 c 0.186522,-0.293957 0.371911,-0.587347 0.826595,-0.586213 z"
   inkscape:connector-curvature="0"
   style="fill:#524f4f;fill-opacity:0" />
   <g
   id="g3215">
    <path
   id="_47848440"
   class="fil25"
   d="m 4.89919,17.9144 c 4.31014,0.01531 8.61971,0.03062 12.9299,0.04621 0.448447,0.0011 0.67097,0.281484 0.814689,0.586213 0.413864,0.680892 0.828012,1.3615 1.24244,2.04211 0.06661,0.109702 0.03232,0.219121 -0.05981,0.312949 -6.22582,-8.5e-4 -5.6586,-0.0048 -17.0128999,-0.0051 -0.089009,-0.09298 -0.120474,-0.200412 -0.052442,-0.307847 0.441361,-0.696199 0.882438,-1.3924 1.32352,-2.08831 0.185955,-0.29339 0.366241,-0.587347 0.814689,-0.586213 z"
   inkscape:connector-curvature="0"
   style="fill:#524f4f;fill-opacity:0.03137303" />
    <path
   id="_47417888"
   class="fil26"
   d="m 4.9899,17.9368 c 4.25146,0.01757 8.50236,0.03543 12.7538,0.05301 0.441361,0.0017 0.661332,0.281484 0.8025,0.586213 0.404793,0.67097 0.809303,1.34166 1.2141,2.01291 0.06605,0.109702 0.03232,0.218838 -0.0584,0.312949 -6.07303,-8.51e-4 -5.61495,-0.0048 -16.7725995,-0.0051 -0.088159,-0.09298 -0.118773,-0.200412 -0.051024,-0.307847 0.436542,-0.688829 0.8728,-1.37737 1.30877,-2.06592 0.185672,-0.29254 0.361139,-0.587347 0.802783,-0.586213 z"
   inkscape:connector-curvature="0"
   style="fill:#524f4f;fill-opacity:0.06274498" />
    <path
   id="_63344120"
   class="fil27"
   d="m 5.08061,17.9592 c 4.19278,0.01984 8.38472,0.03969 12.5775,0.05981 0.435124,0.002 0.651411,0.281484 0.790594,0.586213 0.395155,0.661332 0.790311,1.32238 1.18575,1.98371 0.06548,0.109702 0.03203,0.218838 -0.05754,0.312949 -5.92109,-8.51e-4 -5.56988,-0.0045 -16.5316001,-0.0051 -0.087025,-0.09326 -0.117356,-0.200696 -0.049607,-0.307847 0.431723,-0.681459 0.863162,-1.36235 1.29432,-2.04353 0.184822,-0.291689 0.35547,-0.587347 0.790594,-0.586213 z"
   inkscape:connector-curvature="0"
   style="fill:#524f4f;fill-opacity:0.09411801" />
    <path
   id="_63798112"
   class="fil28"
   d="m 5.17103,17.9813 c 4.13411,0.02239 8.26765,0.0445 12.4015,0.06718 0.428321,0.002 0.64149,0.281484 0.778688,0.586213 0.385517,0.651127 0.771318,1.30282 1.15712,1.95423 0.06463,0.109419 0.03175,0.218838 -0.05669,0.312949 -5.77199,-8.5e-4 -5.52282,-0.0045 -16.2903997,-0.0051 -0.085891,-0.09326 -0.115939,-0.200979 -0.04819,-0.307847 0.42662,-0.673805 0.852957,-1.34761 1.27958,-2.02141 0.184255,-0.290839 0.350367,-0.587347 0.778405,-0.586213 z"
   inkscape:connector-curvature="0"
   style="fill:#524f4f;fill-opacity:0.12549002" />
    <path
   id="_62795448"
   class="fil29"
   d="m 5.26174,18.0037 c 4.07543,0.02438 8.15001,0.04904 12.2254,0.07399 0.421518,0.0023 0.631568,0.281484 0.766499,0.586213 0.376163,0.641773 0.752326,1.28326 1.12877,1.92504 0.06378,0.109419 0.03203,0.218838 -0.05499,0.312949 -5.62345,-8.5e-4 -5.47661,-0.0045 -16.0502999,-0.0051 -0.084757,-0.09355 -0.114238,-0.200979 -0.046489,-0.307847 0.421518,-0.666435 0.843036,-1.33287 1.26484,-1.99902 0.183404,-0.290272 0.344698,-0.587347 0.766216,-0.586213 z"
   inkscape:connector-curvature="0"
   style="fill:#524f4f;fill-opacity:0.15686298" />
    <path
   id="_28279584"
   class="fil30"
   d="m 5.35274,18.0258 c 4.01647,0.02693 8.03237,0.05414 12.0488,0.08135 0.414998,0.0023 0.62193,0.281484 0.754593,0.586214 0.366808,0.631568 0.733617,1.26342 1.10043,1.89555 0.06321,0.109418 0.03203,0.218554 -0.05414,0.312666 -5.47661,-5.67e-4 -5.43211,-0.0043 -15.8092995,-0.0048 -0.083623,-0.09354 -0.112821,-0.201263 -0.045072,-0.307847 0.416699,-0.659065 0.833398,-1.31785 1.2501,-1.97663 0.183121,-0.289421 0.339595,-0.58763 0.754593,-0.586497 z"
   inkscape:connector-curvature="0"
   style="fill:#524f4f;fill-opacity:0.18823499" />
   </g>
   <path
   id="_63895936"
   class="fil31"
   d="m 5.44316,18.0484 11.8731,0.08788 c 0.408478,0.0028 0.611725,0.281484 0.742404,0.586497 l 1.07208,1.86636 c 0.06265,0.109135 0.03175,0.218271 -0.05244,0.312382 -5.33204,-5.67e-4 -5.3876,-0.0043 -15.5694997,-0.0048 -0.082773,-0.09354 -0.11112,-0.201263 -0.043654,-0.307563 l 1.23536,-1.95452 c 0.182554,-0.288571 0.33421,-0.587347 0.742688,-0.586213 z"
   inkscape:connector-curvature="0"
   style="fill:#524f4f;fill-opacity:0.21960802" />
  </g>
  <path
   class="fil32"
   d="m 5.89388,18.1009 11.1466,0.03657 c 0.362556,0.0011 0.542842,0.264476 0.658781,0.550496 l 0.639505,1.16137 c 0.151372,0.274681 -0.297075,0.550213 -0.658781,0.550213 l -12.5276,0 c -0.361706,0 -0.825177,-0.281201 -0.658781,-0.550213 l 0.741554,-1.19822 c 0.16668,-0.269012 0.296508,-0.551345 0.658781,-0.550212 z"
   id="path3224"
   style="fill:url(#id4)"
   inkscape:connector-curvature="0" />
  <path
   class="fil33"
   d="m 4.73875,18.7988 13.2386,0 0.285736,0.887824 c 0.04195,0.129829 0.03742,0.259941 0.0026,0.379564 l -13.8558998,0 c -0.036001,-0.121041 -0.038552,-0.251153 0.00765,-0.379564 L 4.7388439,18.7988 z"
   id="path3226"
   inkscape:connector-curvature="0"
   style="fill:#ffffff;fill-rule:nonzero" />
  <path
   class="fil34"
   d="m 5.89388,17.9319 11.1466,0.03657 c 0.329107,8.51e-4 0.577426,0.123025 0.769617,0.308981 0.156475,0.151372 0.261925,0.336477 0.341013,0.524984 l 0.625332,0.806468 c 0.06321,0.115088 0.09269,0.233578 0.09269,0.352352 0,0.184255 -0.0703,0.351501 -0.187656,0.493802 l -0.0017,0.002 c -0.08759,0.105734 -0.200979,0.195593 -0.325989,0.264476 -0.198145,0.109135 -0.445896,0.178018 -0.673805,0.178018 l -12.5275996,0 c -0.248035,0 -0.527535,-0.08532 -0.737869,-0.21572 l -0.00198,0 c -0.111403,-0.06917 -0.211184,-0.155341 -0.287721,-0.254555 l -0.00198,-0.002 c -0.103466,-0.135498 -0.164128,-0.291122 -0.164128,-0.46177 0,-0.126427 0.034583,-0.254555 0.11112,-0.377864 l 0.740137,-0.866847 -5.669e-4,-2.83e-4 0.047906,-0.07909 -5.669e-4,-2.83e-4 c 0.220255,-0.365391 0.429171,-0.711223 1.03721,-0.709239 z m 11.1466,1.03268 -11.1466,-0.03657 c -0.043087,0 -0.110836,0.111403 -0.181703,0.229043 l -0.00198,0.0017 -0.049324,0.08107 -0.00198,-0.111687 -0.602654,0.758279 c 0.032315,0.0082 0.065198,0.01304 0.096096,0.01304 l 12.5276,0 c 0.0343,0 0.07115,-0.0062 0.107151,-0.01701 l -0.525551,-0.625332 -0.02523,-0.05272 c -0.03572,-0.08816 -0.07654,-0.168097 -0.121892,-0.212035 -0.01729,-0.01673 -0.04139,-0.02778 -0.07399,-0.02778 z"
   id="path3228"
   style="fill:url(#id6);fill-rule:nonzero"
   inkscape:connector-curvature="0" />
  <path
   class="fil35"
   d="M 2.5104,2.02028 2.50927,0.85494 c 0,-0.114805 0.046489,-0.219972 0.123876,-0.301894 C 2.731793,0.43654 2.881465,0.361988 3.048428,0.361988 l 7.03994,0.0388352 c 0.295941,0.001417 0.647442,0.275815 0.643757,0.560134 -0.0051,0.394872 0.08079,0.71179 0.08107,1.09674 l 0.0068,8.0513598 c 2.84e-4,0.284603 -0.237547,0.522149 -0.526685,0.522716 -3.4781597,0.0074 -1.4658197,0.135781 -7.2505597,-0.002 -0.288855,-0.0071 -0.526401,-0.235279 -0.526685,-0.523 l -0.0068,-8.0513601 c 0,-0.011622 2.835e-4,-0.023528 0.00113,-0.03515 z"
   id="path3230"
   style="fill:url(#id2)"
   inkscape:connector-curvature="0" />
  <path
   class="fil36"
   d="m 1.92475,0.959541 -0.00198,0 c 0,-0.121608 0.024945,-0.240948 0.070867,-0.351785 l 8.504e-4,2.8347e-4 c 0.04252,-0.102899 0.102049,-0.19616 0.175184,-0.277232 l 0.00142,-0.001701 0.00198,-0.002268 c 0.094395,-0.108568 0.214869,-0.200129 0.351218,-0.262775 L 2.5240035,0.0632135 c 0.133797,-0.0620796 0.282902,-0.0969463 0.437676,-0.0969463 l 0.00198,0.0019843 6.85597,0.0388352 0,-0.00198428 0.00397,0 0.00595,0.00198428 c 0.2619245,0.00340162 0.5397235,0.118773 0.7452385,0.291689 0.227342,0.191341 0.378998,0.465455 0.378147,0.763948 l 0.002,0 0,0.00283 -0.002,0.00595 c -0.002,0.162428 0.01814,0.335627 0.03827,0.507125 l 2.84e-4,0 c 0.02098,0.178018 -0.01871,0.356887 -0.01843,0.583945 l 0.04167,7.77214 0.06265,0 c 0,0.2795003 -0.116789,0.5366063 -0.303878,0.7219953 -0.185105,0.183404 -0.441928,0.299059 -0.723128,0.299343 -1.1899998,0.0023 -1.8830798,0.01956 -2.5129498,0.03487 -1.19595,0.02948 -0.832831,0.05329 -4.62763,-0.03713 -0.277516,-0.0068 -0.53122,-0.121325 -0.713774,-0.302744 -0.185955,-0.184822 -0.301611,-0.437392 -0.301611,-0.7183091 l 0.00198,0 c -0.00227,-3.04899 0.030331,-5.92421 0.028347,-8.97319997 z m 0.996109,0 0,0.003402 0.00113,-0.003402 -0.00113,0 z m 0,0.0280634 c 0.00113,1.76969 -0.030898,5.37343 -0.028347,8.73622 l 0.00198,0 c 0,0.00454 0.00198,0.00879 0.00454,0.011339 0.00822,0.00794 0.020126,0.013323 0.032032,0.013606 l 0.00198,0 c 3.77098,0.08986 3.39765,0.066332 4.58114,0.037134 0.628733,-0.015024 1.3204,-0.032315 2.53619,-0.034867 0.0062,0 0.01389,-0.00425 0.02013,-0.010205 0.004,-0.00397 0.0068,-0.00964 0.0068,-0.015024 l 0.002,0 -0.04167,-7.56323 c 0,-0.995825 0.184538,-1.1574 -0.6959151,-1.16194 l -6.38003,-0.036284 0,0.001984 c -0.00822,0 -0.015307,0.001417 -0.019843,0.003402 l -0.00198,0 c -0.0034,0.001417 -0.00822,0.005669 -0.012189,0.0102049 l -0.0068,0.007654 z"
   id="path3232"
   inkscape:connector-curvature="0"
   style="fill:#9bba65;fill-rule:nonzero" />
  <path
   class="fil37"
   d="m 10.7656,10.6644 c -0.184538,0.178869 -0.437959,0.291406 -0.715191,0.291689 -1.19,0.0023 -1.88308,0.01956 -2.51295,0.03487 -1.19595,0.02948 -0.728798,0.05329 -4.52359,-0.03714 -0.193893,-0.0048 -0.376163,-0.06208 -0.530653,-0.158175 0.18227,-0.32769 0.41188,-0.72653 0.619095,-1.0451498 3.6987,0.087875 3.23551,0.064347 4.41191,0.035434 0.553047,-0.013323 1.15485,-0.02778 2.11949,-0.033166 l 1.13189,0.9116348 z"
   id="path3234"
   inkscape:connector-curvature="0"
   style="fill:#7ea140;fill-rule:nonzero" />
  <path
   class="fil33"
   d="M 9.0435,7.44785 C 9.0452,7.605459 9.04747,7.788863 9.04917,7.967731 9.05087,8.189687 9.0401,8.602701 9.0401,8.807932 9.03386,8.898925 9.014021,8.957036 8.975753,8.989068 8.932666,9.027053 8.855279,9.049447 8.741891,9.064754 l -4.22567,-0.04252 0,-5.669e-4 -0.172065,0 C 4.2610977,8.998139 4.202136,8.9697921 4.163868,8.9295396 4.0660713,8.8308925 4.044528,8.6075196 4.04311,8.4674856 4.068622,8.3677046 4.093,8.1616226 4.124749,8.1060636 4.157915,8.0505036 4.203837,7.9997626 4.273287,7.9359826 l 0.00709,-0.00794 2.38709,-2.33436 C 6.813453,5.3850496 6.821674,5.1526056 6.629766,4.9643826 6.17083,4.5471166 5.742509,4.1681196 5.319286,3.7913926 4.854681,3.3775286 4.386674,2.9622466 3.959206,2.5758826 l -8.504e-4,-5.669e-4 -0.038268,-0.034583 -0.00113,0 c -0.064347,-0.05641 -0.126994,-0.112821 -0.125577,-0.183688 l 0,-0.00227 0,-0.058962 c 0.010772,-0.100348 0.024095,-0.115372 0.056694,-0.156191 0.030048,-0.037701 0.090426,-0.063497 0.200696,-0.081072 l 4.59531,-0.029481 c 0.090426,0.018142 0.158175,0.053009 0.203814,0.09723 0.048757,0.047339 0.081639,0.620513 0.087308,0.688829 l -0.0017,0.662466 C 8.8881547,3.6822631 8.768531,3.6882161 8.6696,3.6822631 8.569252,3.6763102 8.100678,3.6590187 8.029811,3.5229541 8.003732,3.4237401 8.031231,3.2573441 8.015921,3.1646501 7.998062,3.0518291 7.916423,3.0220651 7.892896,3.0197981 l -0.01474,-5.67e-4 -1.63675,-0.09071 C 6.14531,2.7916061 5.862125,3.2522421 6.021434,3.1507601 l 0.016158,0.017575 c 0.783791,0.6979 1.16647,0.837083 1.92815,1.51741 0.173483,0.16668 0.189924,0.346966 0.026929,0.519315 -0.402242,0.426337 -0.666151,0.754877 -1.02275,1.17356 -0.392321,0.462054 -0.856359,0.681175 -1.3014,1.14465 -0.212885,0.148254 -0.011622,0.455534 0.189924,0.461487 l 0.038268,0 2.08208,0.040253 c 0.219121,5.67e-4 0.205798,-0.303595 0.203247,-0.486716 -0.0017,-0.134931 -0.112537,-0.225358 -0.04819,-0.346399 0.104033,-0.194743 0.9088,-0.160443 0.909651,0.255972 z"
   id="path3236"
   inkscape:connector-curvature="0"
   style="fill:#ffffff;fill-rule:nonzero" />
  <polygon
   class="fil20"
   points="16.9894,4.99585 14.0382,4.99585 14.0382,2.03672 16.9894,2.03672 "
   id="polygon3238"
   style="fill:#ffffff" />
  <rect
   class="fil20"
   x="12.0247"
   y="6.0220098"
   width="2.95119"
   height="2.99371"
   id="rect3240"
   style="fill:#ffffff" />
  <rect
   class="fil20"
   x="16.000099"
   y="6.0220098"
   width="2.95119"
   height="2.99371"
   id="rect3242"
   style="fill:#ffffff" />
  <ellipse
   class="fil20"
   cx="17.486099"
   cy="15.8582"
   rx="1.48602"
   ry="1.58815"
   id="ellipse3244"
   d="m 18.972119,15.8582 c 0,0.877111 -0.665314,1.58815 -1.48602,1.58815 -0.820706,0 -1.48602,-0.711039 -1.48602,-1.58815 0,-0.877111 0.665314,-1.58815 1.48602,-1.58815 0.820706,0 1.48602,0.711039 1.48602,1.58815 z"
   sodipodi:cx="17.486099"
   sodipodi:cy="15.8582"
   sodipodi:rx="1.48602"
   sodipodi:ry="1.58815"
   style="fill:#ffffff" />
 </g>
</svg>