<?xml version="1.0" encoding="UTF-8"?>
<!DOCTYPE svg PUBLIC "-//W3C//DTD SVG 1.1//EN" "http://www.w3.org/Graphics/SVG/1.1/DTD/svg11.dtd">
<!-- Creator: CorelDRAW -->
<svg xmlns="http://www.w3.org/2000/svg" xml:space="preserve" width="22px" height="22px" style="shape-rendering:geometricPrecision; text-rendering:geometricPrecision; image-rendering:optimizeQuality; fill-rule:evenodd; clip-rule:evenodd"
viewBox="0 0 22 22"
 xmlns:xlink="http://www.w3.org/1999/xlink">
 <defs>
  <style type="text/css">
   <![CDATA[
    .fil19 {fill:none}
    .fil21 {fill:#7F7F7F}
    .fil28 {fill:white}
    .fil26 {fill:#7F7F7F}
    .fil35 {fill:#CFCFCF}
    .fil33 {fill:#F0F0F0}
    .fil23 {fill:white}
    .fil36 {fill:white;fill-rule:nonzero}
    .fil30 {fill:#396DA6;fill-rule:nonzero}
    .fil37 {fill:#808385;fill-rule:nonzero}
    .fil2 {fill:black;fill-opacity:0.000000}
    .fil3 {fill:black;fill-opacity:0.007843}
    .fil4 {fill:black;fill-opacity:0.011765}
    .fil5 {fill:black;fill-opacity:0.019608}
    .fil6 {fill:black;fill-opacity:0.023529}
    .fil7 {fill:black;fill-opacity:0.031373}
    .fil8 {fill:black;fill-opacity:0.035294}
    .fil9 {fill:black;fill-opacity:0.043137}
    .fil10 {fill:black;fill-opacity:0.050980}
    .fil11 {fill:black;fill-opacity:0.054902}
    .fil12 {fill:black;fill-opacity:0.062745}
    .fil13 {fill:black;fill-opacity:0.066667}
    .fil14 {fill:black;fill-opacity:0.074510}
    .fil15 {fill:black;fill-opacity:0.078431}
    .fil18 {fill:#191919;fill-opacity:0.321569}
    .fil34 {fill:#A4A5A7;fill-opacity:0.439216}
    .fil29 {fill:#2C5480;fill-opacity:0.560784}
    .fil17 {fill:#35679E;fill-opacity:0.560784}
    .fil27 {fill:#575757;fill-opacity:0.780392}
    .fil1 {fill:url(#id0)}
    .fil0 {fill:url(#id1)}
    .fil31 {fill:url(#id2)}
    .fil32 {fill:url(#id3)}
    .fil16 {fill:url(#id4)}
    .fil20 {fill:url(#id5)}
    .fil22 {fill:url(#id6)}
    .fil25 {fill:url(#id7)}
    .fil38 {fill:url(#id8);fill-rule:nonzero}
    .fil24 {fill:url(#id9);fill-rule:nonzero}
   ]]>
  </style>
  <linearGradient id="id0" gradientUnits="userSpaceOnUse" x1="20.969" y1="13.6212" x2="20.969" y2="11.6605">
   <stop offset="0" style="stop-color:#7F7F7F"/>
   <stop offset="1" style="stop-color:#999999"/>
  </linearGradient>
  <linearGradient id="id1" gradientUnits="userSpaceOnUse" xlink:href="#id0" x1="1.1146" y1="13.6215" x2="1.1146" y2="11.6608">
  </linearGradient>
  <linearGradient id="id2" gradientUnits="userSpaceOnUse" x1="10.8787" y1="13.1915" x2="11.3149" y2="20.8517">
   <stop offset="0" style="stop-color:#E9E9E9"/>
   <stop offset="0.478431" style="stop-color:#E5E5E5"/>
   <stop offset="1" style="stop-color:#A1A1A1"/>
  </linearGradient>
  <linearGradient id="id3" gradientUnits="userSpaceOnUse" x1="11.2537" y1="20.5186" x2="10.9223" y2="13.49">
   <stop offset="0" style="stop-color:#B2B2B2"/>
   <stop offset="1" style="stop-color:#CFCFCF"/>
  </linearGradient>
  <linearGradient id="id4" gradientUnits="userSpaceOnUse" x1="11.0496" y1="3.85801" x2="11.0496" y2="18.5689">
   <stop offset="0" style="stop-color:#579AD6"/>
   <stop offset="1" style="stop-color:#518EC4"/>
  </linearGradient>
  <linearGradient id="id5" gradientUnits="userSpaceOnUse" x1="11.0139" y1="6.7097" x2="11.1979" y2="12.6013">
   <stop offset="0" style="stop-color:#919191"/>
   <stop offset="1" style="stop-color:#CDCDCD"/>
  </linearGradient>
  <linearGradient id="id6" gradientUnits="userSpaceOnUse" x1="10.4396" y1="3.63605" x2="15.91" y2="15.1075">
   <stop offset="0" style="stop-color:#E3E3E3"/>
   <stop offset="1" style="stop-color:#A8A8A8"/>
  </linearGradient>
  <linearGradient id="id7" gradientUnits="userSpaceOnUse" x1="11.0969" y1="8.48705" x2="10.9753" y2="12.5021">
   <stop offset="0" style="stop-color:#8A8A8A"/>
   <stop offset="1" style="stop-color:white"/>
  </linearGradient>
  <linearGradient id="id8" gradientUnits="userSpaceOnUse" xlink:href="#id0" x1="11.0706" y1="20.9767" x2="11.0706" y2="13.2777">
  </linearGradient>
  <linearGradient id="id9" gradientUnits="userSpaceOnUse" x1="13.8613" y1="2.7298" x2="14.5859" y2="16.38">
   <stop offset="0" style="stop-color:#8C8C8C"/>
   <stop offset="1" style="stop-color:#666666"/>
  </linearGradient>
 </defs>
 <g id="Слой_x0020_1">
  <metadata id="CorelCorpID_0Corel-Layer"/>
  <path class="fil0" d="M0.081639 13.3962l1.71584 -1.75524 0.350084 2.00072c0,0 -1.99619,-0.210334 -2.06592,-0.245484z"/>
  <path class="fil1" d="M22.002 13.3959l-1.71584 -1.75524 -0.350084 2.00072c0,0 1.99619,-0.210334 2.06592,-0.245484z"/>
  <path class="fil2" d="M10.5935 18.0921c10.4702,-0.425203 11.2934,1.21523 11.339,2.5464 0.045355,1.33145 -4.84278,0.574307 -10.947,0.803917 -6.1045,0.229893 -10.8534,0.389202 -10.8534,-0.597552 0,-0.987038 -0.00878753,-2.32756 10.4614,-2.75276z"/>
  <g id="_48840448">
   <path id="_48585856" class="fil3" d="M10.5581 18.8458c10.1901,-0.392604 11.4144,1.15995 11.457,2.4126 0.0425203,1.23281 -4.94568,0.535756 -11.0734,0.74779 -6.12774,0.212035 -10.9858,0.357454 -10.9858,-0.557583 0,-0.934596 0.411313,-2.2102 10.6023,-2.60281z"/>
   <path id="_48584480" class="fil4" d="M10.5813 19.0097c9.75387,-0.359722 11.3668,1.10496 11.4059,2.2788 0.0388352,1.13444 -4.97629,0.497487 -11.0363,0.691947 -6.05971,0.194459 -10.9558,0.325705 -10.9558,-0.516763 0,-0.883005 0.831697,-2.0937 10.5861,-2.45399z"/>
   <path id="_48583104" class="fil5" d="M10.6048 19.1735c9.31733,-0.326839 11.3189,1.04968 11.3546,2.14529 0.0354336,1.03551 -5.00691,0.458652 -10.9991,0.635253 -5.99196,0.176884 -10.9254,0.293957 -10.9254,-0.476227 0,-0.830563 1.2518,-1.97691 10.57,-2.30432z"/>
   <path id="_48581728" class="fil6" d="M10.6281 19.3377c8.88107,-0.294524 11.2713,0.994124 11.303,2.01121 0.032032,0.937147 -5.03724,0.420384 -10.9612,0.57941 -5.92421,0.159026 -10.8957,0.261642 -10.8957,-0.435691 0,-0.778972 1.67218,-1.86069 10.5538,-2.15493z"/>
   <path id="_48580352" class="fil7" d="M10.6513 19.5012c8.44481,-0.261358 11.2237,0.939132 11.252,1.8777 0.0286303,0.8385 -5.06785,0.381832 -10.9237,0.523283 -5.85618,0.141167 -10.8659,0.230177 -10.8659,-0.395439 0,-0.72653 2.09257,-1.74333 10.5377,-2.00554z"/>
   <path id="_48578976" class="fil8" d="M10.6743 19.6654c8.00856,-0.229043 11.176,0.883855 11.201,1.74362 0.0249452,0.739853 -5.09875,0.343564 -10.8866,0.467156 -5.78815,0.123592 -10.8359,0.198428 -10.8359,-0.354903 0,-0.674655 2.51295,-1.62683 10.5215,-1.85587z"/>
   <path id="_48577600" class="fil9" d="M10.6981 19.8289c7.5723,-0.19616 11.1284,0.828862 11.1497,1.60982 0.0212601,0.641773 -5.12936,0.305296 -10.8492,0.411313 -5.7204,0.106017 -10.8055,0.16668 -10.8055,-0.314367 0,-0.622214 2.93277,-1.51032 10.5051,-1.70676z"/>
   <path id="_48576224" class="fil10" d="M10.7214 19.993c7.13576,-0.163845 11.0805,0.773302 11.0984,1.47602 0.0178585,0.543126 -5.15998,0.266744 -10.8118,0.354903 -5.65265,0.0884422 -10.7758,0.134364 -10.7758,-0.273831 0,-0.570339 3.35343,-1.39353 10.4892,-1.55709z"/>
   <path id="_48574712" class="fil11" d="M10.7449 20.1569c6.69893,-0.130679 11.0326,0.718309 11.0468,1.34222 0.0144569,0.444479 -5.19031,0.228476 -10.7746,0.298776 -5.58433,0.0705837 -10.7452,0.102899 -10.7452,-0.233295 0,-0.518181 3.77325,-1.27674 10.473,-1.40771z"/>
   <path id="_48573336" class="fil12" d="M10.7684 20.3207c6.26267,-0.0983636 10.985,0.66275 10.9955,1.20843 0.0107718,0.345832 -5.22093,0.189924 -10.7369,0.242933 -5.51658,0.0530086 -10.7154,0.0708672 -10.7154,-0.193042 0,-0.466022 4.19363,-1.16024 10.4569,-1.25832z"/>
   <path id="_48571976" class="fil13" d="M10.7914 20.4846c5.8267,-0.0654813 10.9376,0.607757 10.9444,1.07435 0.00737018,0.247752 -5.25154,0.151939 -10.6995,0.187089 -5.44855,0.0351501 -10.6853,0.0388352 -10.6853,-0.152506 0,-0.414148 4.61402,-1.04345 10.4404,-1.10893z"/>
   <path id="_48840488" class="fil14" d="M10.8149 20.6484c5.39016,-0.0325989 10.8897,0.55248 10.8934,0.941116 0.00340162,0.148821 -5.28244,0.112821 -10.663,0.130396 -5.38023,0.0175751 -10.655,0.00765365 -10.655,-0.11197 0,-0.361706 5.0344,-0.926659 10.4246,-0.959541z"/>
  </g>
  <path class="fil15" d="M10.8928 20.2224c4.88076,0 10.6819,0.497204 10.6819,0.807035 0,0.100915 -20.9367,0.0969463 -20.9367,0.00283469 0,-0.309831 5.37371,-0.80987 10.2548,-0.80987z"/>
  <polygon class="fil16" points="19.9434,1.94545 2.15578,1.7833 2.15578,20.412 19.292,20.6433 19.9434,15.8825 "/>
  <path class="fil17" d="M2.65894 19.7388c-0.253421,-0.0303311 -0.699884,-0.9431 -1.0443,-1.74191l0.706971 0 0 -4.95191 1.65716 0c0.276665,0.000283469 0.637804,0.155624 0.690246,0.364257 0.0600953,0.236413 -0.0187089,0.0510244 0.0980801,0.339028 0.412447,1.01425 3.09604,2.19093 6.31115,2.21843 3.21538,-0.0274965 6.73862,-1.30537 7.1505,-2.31962 0.116506,-0.287721 0.0379848,-0.102332 0.0977967,-0.338745 0.0530086,-0.208916 0.414148,-0.364257 0.690813,-0.364824l1.23082 0.0592449 0 4.91535c-0.0830563,0.0756861 -0.164412,0.126994 -0.239531,0.136348l-17.3497 1.68437z"/>
  <path class="fil18" d="M13.3638 7.42943c0.151939,0.022394 0.301894,0.0510244 0.449581,0.085891l0.700168 -1.02105 0.989589 0.393738 -0.187373 1.22855c0.170932,0.100064 0.336194,0.209483 0.494936,0.327123l1.05507 -0.659065 0.753176 0.75346 -0.663884 1.05053c0.0836232,0.113104 0.162994,0.229043 0.237547,0.347816l1.22033 -0.234712 0.427187 0.975982 -0.999794 0.743822c0.0535756,0.199278 0.0960959,0.403376 0.12671,0.611158l1.21126 0.28035 0 1.06499 -1.21154 0.273547c-0.0331658,0.221956 -0.0793712,0.43966 -0.138333,0.651694l0.99866 0.744672 -0.432857 0.973431 -1.22714 -0.237547c-0.0680325,0.106301 -0.13975,0.210334 -0.214586,0.310965l0.666435 1.05507 -0.753176 0.753176 -1.06102 -0.661899c-0.138333,0.102332 -0.281768,0.198145 -0.429455,0.287721l0.211468 1.22912 -0.98392 0.407344 -0.725396 -1.01538c-0.168097,0.0416699 -0.339595,0.0754027 -0.513645,0.101482l-0.28035 1.21126 -1.06499 0 -0.273547 -1.21183c-0.144852,-0.0215436 -0.287721,-0.0487566 -0.429171,-0.0813555l-0.710089 1.02417 -0.989306 -0.393738 0.193893 -1.2277c-0.1749,-0.101765 -0.343564,-0.212885 -0.505425,-0.332792l-1.0511 0.6636 -0.753176 -0.753176 0.658781 -1.05535c-0.0807886,-0.109419 -0.157892,-0.221672 -0.230743,-0.337044l-1.22232 0.228759 -0.426904 -0.975982 0.996959 -0.7339c-0.0552764,-0.203814 -0.0989306,-0.412163 -0.130396,-0.624765l-1.21211 -0.273547 0 -1.06499 1.21154 -0.28035c0.0325989,-0.220255 0.0782373,-0.436542 0.136348,-0.647159l-0.989306 -0.745522 0.432857 -0.973431 1.21296 0.241232c0.0691663,-0.108852 0.142018,-0.215153 0.218554,-0.318335l-0.65623 -1.05139 0.753176 -0.75346 1.04572 0.660765c0.1406,-0.1046 0.286303,-0.202397 0.437109,-0.29339l-0.204097 -1.22175 0.98392 -0.407911 0.713207 1.00943c0.168664,-0.0419534 0.340729,-0.0759696 0.515346,-0.102332l0.273547 -1.21126 1.06499 0 0.28035 1.21126zm-1.16449 3.16833c0.570622,0 2.40523,1.75467 2.40523,2.32501 0,0.570339 -1.29999,2.32501 -1.87004,2.32501 -0.570622,0 -2.21276,-1.91965 -2.21276,-2.4897 0,-0.570622 1.10751,-2.16031 1.67757,-2.16031z"/>
  <path class="fil19" d="M12.0185 16.9613c0.00680325,-0.154207 -0.0873083,-0.223373 -0.25087,-0.225924 -1.79521,-0.158459 -3.43252,-0.746373 -4.73421,-1.62796 -1.63193,-1.10553 -2.75333,-2.67793 -3.05182,-4.47682 -0.0277799,-0.172632 -0.0830563,-0.34243 -0.114238,-0.515346 -0.0144569,-0.0833398 -0.0759696,-0.1389 -0.184822,-0.166396 -0.183971,0 -0.367942,0 -0.552197,0 -0.0793712,0.0430872 -0.135215,0.0921273 -0.139183,0.15449"/>
  <path class="fil20" d="M11.106 5.32354c2.39219,0 4.33225,1.94006 4.33225,4.33197 0,2.39219 -1.94006,4.33225 -4.33225,4.33225 -2.39219,0 -4.33225,-1.94006 -4.33225,-4.33225 0,-2.39191 1.94006,-4.33197 4.33225,-4.33197zm0 2.84489c0.821209,0 1.48708,0.666151 1.48708,1.48736 0,0.821209 -0.665868,1.48708 -1.48708,1.48708 -0.821209,0 -1.48736,-0.665868 -1.48736,-1.48708 0,-0.821209 0.666151,-1.48736 1.48736,-1.48736z"/>
  <ellipse class="fil21" cx="11.0362" cy="9.69621" rx="4.91456" ry="4.91451"/>
  <path class="fil22" d="M9.47579 5.3533l0.6293 -2.11411 1.91341 -0.0524417 0.59982 2.09455c0.323438,0.0898596 0.634686,0.2092 0.931194,0.354336l1.86409 -1.07803 1.34052 1.36632 -0.933746 1.80173c0.200129,0.334493 0.365108,0.69223 0.490117,1.06783l1.94545 0.519031 -0.018142 1.91455 -1.80711 0.573457c-0.106017,0.432573 -0.264193,0.844737 -0.466873,1.22969l0.868831 1.60585 -1.31586 1.39041 -1.56645 -0.869115c-0.408762,0.244917 -0.85239,0.437676 -1.3221,0.569205l-0.480763 1.80088 -1.91426 -0.018142 -0.569205 -1.79379c-0.43229,-0.124443 -0.842469,-0.301327 -1.22345,-0.523283l-1.68579 0.912486 -1.39013 -1.31586 0.989589 -1.78358c-0.174333,-0.335343 -0.315501,-0.69138 -0.417549,-1.06357l-1.96897 -0.586213 -0.0524417 -1.9137 2.0886 -0.597835c0.104883,-0.325139 0.239248,-0.636954 0.400541,-0.932045l-1.11913 -1.93439 1.36632 -1.34109 2.02765 1.05082c0.254271,-0.130963 0.520732,-0.243783 0.796547,-0.333926z"/>
  <path class="fil23" d="M9.47579 5.3533l0.6293 -2.11411 1.91341 -0.0524417 0.59982 2.09455c0.323438,0.0898596 0.634686,0.2092 0.931194,0.354336l1.86409 -1.07803 1.34052 1.36632 -0.933746 1.80173c0.19616,0.327973 0.358871,0.678624 0.482747,1.04657l-5.15658 1.19c0,0 -2.61046,-0.688262 -5.07607,-1.31274 0.0932612,-0.255122 0.204948,-0.501456 0.333926,-0.737585l-1.11913 -1.93439 1.36632 -1.34109 2.02765 1.05082c0.254271,-0.130963 0.520732,-0.243783 0.796547,-0.333926z"/>
  <path class="fil24" d="M9.10303 4.99784l0.562402 -1.8896 0.094962 -0.318052 0.333076 -0.009071 1.9137 -0.0521582 0.354336 -0.0099214 0.0977967 0.341296 0.530653 1.85388c0.0892926,0.0289138 0.177451,0.0603788 0.26561,0.0935446 0.0887257,0.0340162 0.179152,0.0708672 0.270713,0.111687l1.65744 -0.958974 0.30813 -0.178018 0.249452 0.253988 1.34081 1.36604 0.232444 0.237263 -0.152223 0.29424 -0.820358 1.58232c0.0609458,0.112254 0.117356,0.225358 0.170081,0.339879 0.0532921,0.116222 0.102899,0.234995 0.149104,0.35632l1.71272 0.457235 0.343281 0.0918438 -0.00311815 0.354052 -0.018142 1.91483 -0.00311815 0.333076 -0.316068 0.100631 -1.56758 0.497487c-0.0422368,0.143152 -0.09071,0.286587 -0.145419,0.429455 -0.0558433,0.147687 -0.116789,0.291122 -0.182837,0.430589l0.755727 1.39722 0.157892 0.291122 -0.228192 0.241232 -1.31586 1.39013 -0.244917 0.258523 -0.311249 -0.172632 -1.34194 -0.744389c-0.150522,0.081072 -0.304729,0.155908 -0.463188,0.224224l-0.000283469 0.00198428c-0.156475,0.0674655 -0.318052,0.128411 -0.483597,0.182554l-0.414431 1.55398 -0.0921273 0.342997 -0.354052 -0.00311815 -1.91455 -0.0178585 -0.333076 -0.00340162 -0.100915 -0.316068 -0.496637 -1.5656c-0.149955,-0.0501739 -0.297642,-0.106584 -0.441928,-0.16838 -0.1406,-0.0600953 -0.280067,-0.126994 -0.418116,-0.199562l-1.46695 0.794279 -0.291122 0.157609 -0.241515 -0.227909 -1.39041 -1.31586 -0.25824 -0.245484 0.172632 -0.310965 0.872233 -1.57268c-0.0521582,-0.11197 -0.101482,-0.226491 -0.146837,-0.34243 -0.0436542,-0.110553 -0.0841902,-0.224224 -0.121325,-0.341013l-1.73114 -0.515346 -0.318052 -0.0946785 -0.009071 -0.333076 -0.0521582 -1.91398 -0.00963793 -0.354052 0.341013 -0.0983636 1.85955 -0.532071c0.035717,-0.0975132 0.0737018,-0.191908 0.112254,-0.281768 0.0368509,-0.0873083 0.0776704,-0.175467 0.120758,-0.263059l-0.992991 -1.71669 -0.178018 -0.30813 0.253988 -0.249169 1.36604 -1.34109 0.237263 -0.232161 0.293957 0.152223 1.82384 0.944801c0.0680325,-0.031465 0.138049,-0.0626466 0.208916,-0.0921273 0.0708672,-0.0300477 0.1406,-0.0578276 0.208633,-0.0836232zm1.34676 -1.30991l-0.534622 1.79634 -0.0688829 0.231594 -0.228476 0.0745522c-0.134364,0.0439376 -0.25739,0.0892926 -0.367659,0.135498 -0.11934,0.0501739 -0.240381,0.107151 -0.360856,0.169514l-0.210617 0.108568 -0.209767 -0.108285 -1.73313 -0.898596 -0.875351 0.858626 0.941116 1.62626 0.128695 0.22394 -0.123309 0.225358c-0.0708672,0.130396 -0.1389,0.270429 -0.20268,0.417833 -0.0643474,0.149388 -0.11934,0.295374 -0.163845,0.434274l-0.0754027 0.234145 -0.234712 0.0671821 -1.7473 0.500322 0.0334493 1.22543 1.6512 0.491818 0.244633 0.0728514 0.0674655 0.245767c0.044788,0.164695 0.100348,0.330241 0.164979,0.495503 0.0637804,0.162711 0.136632,0.32202 0.21742,0.476794l0.113387 0.217704 -0.120191 0.216853 -0.816957 1.47262 0.890091 0.842469 1.39467 -0.754593 0.224791 -0.121608 0.222806 0.130112c0.170932,0.0994975 0.353485,0.191341 0.545677,0.273547 0.185105,0.0790877 0.37673,0.147687 0.573174,0.204097l0.237263 0.0680325 0.0745522 0.234429 0.468574 1.47744 1.226 0.0116222 0.389769 -1.45788 0.0671821 -0.253421 0.252854 -0.0711506c0.210334,-0.0583945 0.418116,-0.13238 0.619946,-0.219121l0.000283469 0.00141734c0.203247,-0.0873083 0.399691,-0.188507 0.588764,-0.301327l0.227058 -0.136348 0.231027 0.128128 1.25492 0.696482 0.843319 -0.890375 -0.711506 -1.31444 -0.116506 -0.215153 0.114521 -0.216287c0.0943951,-0.179436 0.178018,-0.36284 0.248319,-0.548512 0.0683159,-0.18057 0.128411,-0.373328 0.178018,-0.576575l0.0615127 -0.249452 0.246618 -0.0782373 1.49076 -0.473393 0.0116222 -1.226 -1.60216 -0.427754 -0.238397 -0.063497 -0.0782373 -0.235562c-0.0569772,-0.168947 -0.122742,-0.336477 -0.197578,-0.500039 -0.0762531,-0.165262 -0.159876,-0.324572 -0.250586,-0.476227l-0.132096 -0.219688 0.117073 -0.225641 0.781806 -1.50805 -0.859193 -0.875068 -1.55568 0.900013 -0.211751 0.122175 -0.219405 -0.107718c-0.129545,-0.063497 -0.269579,-0.124443 -0.419534,-0.181136 -0.138616,-0.0527252 -0.283185,-0.100631 -0.43229,-0.141451l-0.248602 -0.0688829 -0.0705837 -0.248319 -0.501739 -1.75297 -1.22572 0.0334493z"/>
  <ellipse class="fil25" cx="11.0361" cy="10.4947" rx="3.61106" ry="3.61108"/>
  <g id="_48519336">
   <ellipse id="_48477848" class="fil21" cx="11.0031" cy="10.565" rx="1.46385" ry="1.46383"/>
   <ellipse id="_48475384" class="fil26" cx="10.9964" cy="10.5895" rx="1.52213" ry="1.52211"/>
   <path id="_48473016" class="fil27" d="M11.0428 11.6676c0.750058,0 1.24925,-0.436542 1.24925,-0.974565 0,-0.538307 -0.499188,-0.659065 -1.24925,-0.659065 -0.749775,0 -1.35753,0.120758 -1.35753,0.659065 0,0.538023 0.607757,0.974565 1.35753,0.974565z"/>
   <path id="_48472200" class="fil28" d="M11.0584 9.23597c0.514496,0 0.856926,0.309264 0.856926,0.690813 0,0.381265 -0.34243,0.466873 -0.856926,0.466873 -0.514212,0 -0.931194,-0.0856075 -0.931194,-0.466873 0,-0.381549 0.416982,-0.690813 0.931194,-0.690813z"/>
   <path id="_48426600" class="fil23" d="M11.1091 12.4684c0.496354,0 0.826878,-0.231027 0.826878,0.09071 0,0.321737 -0.330524,0.394021 -0.826878,0.394021 -0.49607,0 -0.898312,-0.0722845 -0.898312,-0.394021 0,-0.321737 0.402242,-0.09071 0.898312,-0.09071z"/>
   <path id="_48381216" class="fil28" d="M11.0729 11.1667c0.233578,0 0.389202,0.1406 0.389202,0.3138 0,0.173199 -0.155624,0.212035 -0.389202,0.212035 -0.233578,0 -0.422935,-0.0388352 -0.422935,-0.212035 0,-0.173199 0.189357,-0.3138 0.422935,-0.3138z"/>
  </g>
  <polygon class="fil29" points="19.9828,2.86785 2.08208,2.83157 2.08208,4.59956 4.86205,4.59956 4.86205,4.22482 17.3415,4.22482 17.3415,4.53493 19.9828,4.53493 "/>
  <polygon class="fil30" points="2.03105,2.72498 2.03105,14.246 3.05664,14.246 3.05664,2.72498 "/>
  <polygon class="fil30" points="18.9567,2.83015 18.9567,14.3512 19.9678,14.3512 19.9678,2.83015 "/>
  <path class="fil31" d="M1.32635 20.6816c-0.460637,-0.0873083 -0.830563,-0.441644 -0.937714,-0.893777l0 -6.4251 3.14027 -0.00113387c0.296225,0.00113387 0.682876,0.26476 0.739853,0.619379 0.0640639,0.401675 -0.0204097,0.0864579 0.104883,0.575725 0.441644,1.72292 3.25053,3.05976 6.69496,3.10625 3.44443,-0.0464889 6.25303,-1.38333 6.69468,-3.10625 0.125293,-0.489267 0.0408195,-0.17405 0.105167,-0.575725 0.0566937,-0.354619 0.443345,-0.618245 0.73957,-0.619379l3.19696 0.00113387 0 5.94009c-0.0240948,0.266177 -0.0742688,0.524133 -0.20353,0.762247 -0.170365,0.3138 -0.445046,0.547945 -0.795413,0.616544l-19.4797 0z"/>
  <path class="fil32" d="M1.31728 20.5954c-0.460353,-0.0873083 -0.830563,-0.441644 -0.937431,-0.893777l0 -6.28733 3.14027 -0.00113387c0.296225,0.00113387 0.682876,0.26476 0.73957,0.619379 0.0640639,0.401675 -0.0201263,0.0864579 0.104883,0.575725 0.441644,1.72292 3.25082,3.05976 6.69525,3.10625 3.44414,-0.0464889 6.25303,-1.38333 6.69468,-3.10625 0.125293,-0.489267 0.0408195,-0.17405 0.104883,-0.575725 0.0566937,-0.354619 0.443345,-0.618245 0.739853,-0.619379l3.19696 0.00113387 0 5.80232c-0.0243783,0.266177 -0.0745522,0.524133 -0.203814,0.762247 -0.170081,0.3138 -0.444762,0.547945 -0.795129,0.616544l-19.48 0z"/>
  <path class="fil33" d="M1.90859 0.519881l18.2353 0c0.59982,0 1.36122,0.744672 1.4284,1.3598l-21.0237 -0.067749c0.0637804,-0.615694 0.760546,-1.29205 1.36008,-1.29205z"/>
  <path class="fil34" d="M21.1714 1.02729c-0.191908,-0.117356 -0.639789,-0.520165 -0.883288,-0.483597l-0.00963793 0.458652 1.18802 0.784358 -0.295091 -0.759412z"/>
  <path class="fil35" d="M1.54094 0.996392l18.9706 0c0.5933,0 1.0888,0.739003 1.17611,1.36178l-21.1992 -0.00651978c0.0873083,-0.623631 0.459219,-1.35526 1.05252,-1.35526z"/>
  <path class="fil36" d="M1.68494 1.04742l18.6698 0c0.193042,0.00963793 0.364824,0.0878753 0.51081,0.20183l0.00481897 0.00311815 0.0099214 0.00822059c0.516196,0.358304 0.560134,0.596135 0.530086,0.914186 0.0283469,0.204948 -0.0348666,0.422368 -0.0487566,0.723695 -0.00481897,0.116222 -0.437959,-0.900296 -1.1197,-0.926942l-18.6698 0c-0.422652,0 -0.782373,0.241232 -0.913052,0.479912 0.0102049,-0.0697333 0.0127561,-0.170648 0.0232444,-0.284319l-0.0232444 0.0388352c0.0394021,-0.263059 -0.036284,-0.972864 0.636387,-1.10921l0.0119057 -0.00311815c0.104316,-0.0291973 0.227625,-0.045355 0.37758,-0.0462054z"/>
  <path class="fil26" d="M2.11893 15.5052c0,1.13954 -0.00651978,2.13735 -0.00651978,3.27633 0.0303311,0.216003 0.166113,0.314934 0.407344,0.295941l6.68646 0 0.0124726 -0.42662c-1.41337,-0.0218271 -2.69239,-0.0875918 -3.71231,-0.560701 -1.32238,-0.61371 -2.23487,-1.48821 -2.49311,-2.49481 -0.0325989,-0.127844 -0.0530086,-0.209483 -0.0660482,-0.266177l-0.618245 0c-0.127277,0.0291973 -0.197011,0.0323154 -0.21005,0.176034z"/>
  <path class="fil26" d="M20.2402 15.5052c0,1.13954 0.00651978,2.13735 0.00651978,3.27633 -0.0303311,0.216003 -0.166113,0.314934 -0.407344,0.295941l-6.68646 0 -0.0124726 -0.42662c1.41337,-0.0218271 2.69239,-0.0875918 3.71231,-0.560701 1.32238,-0.61371 2.23487,-1.48821 2.49311,-2.49481 0.0325989,-0.127844 0.0530086,-0.209483 0.0660482,-0.266177l0.618245 0c0.127277,0.0291973 0.197011,0.0323154 0.21005,0.176034z"/>
  <path class="fil19" d="M10.3041 18.9244c-1.60528,-0.099781 -3.06401,-0.459219 -4.21801,-0.994408 -1.51656,-0.703569 -2.5807,-1.86494 -2.89478,-3.09179l-0.0442211 -0.174333"/>
  <path class="fil19" d="M11.8566 18.9244c1.60528,-0.099781 3.06401,-0.459219 4.21801,-0.994408 1.51656,-0.703569 2.5807,-1.86494 2.89478,-3.09179l0.0445046 -0.174333"/>
  <path class="fil19" d="M11.7977 18.9244c1.60528,-0.099781 3.06401,-0.459219 4.21801,-0.994408 1.51656,-0.703569 2.5807,-1.86494 2.89478,-3.09179l0.0445046 -0.174333"/>
  <path class="fil19" d="M11.8351 18.9244c1.60557,-0.099781 3.0643,-0.459219 4.21801,-0.994408 1.51684,-0.703569 2.5807,-1.86494 2.89507,-3.09179l0.0442211 -0.174333"/>
  <path class="fil19" d="M11.7512 18.9728c1.60557,-0.099781 3.0643,-0.459503 4.21801,-0.994691 1.51684,-0.703286 2.5807,-1.76317 2.89507,-2.99003l0.0442211 -0.174333 1.46412 0c0.158459,0.0365675 0.245767,0.144569 0.261925,0.324005"/>
  <path class="fil37" d="M22.0309 1.85303c0.0167246,0.0467723 0.0323154,0.0941116 0.0456384,0.140034 0.0294807,0.102899 0.0521582,0.204664 0.0654813,0.302178l0.0731349 0.521299 -0.527535 -0.000283469 -21.1995 -0.00680325 -0.528669 0 0.0742688 -0.522716 0.0141734 -0.0890091 0.0445046 -0.432573c0.0436542,-0.421801 0.291689,-0.851823 0.623914,-1.16732 0.33591,-0.319186 0.772452,-0.538023 1.19227,-0.538023l18.2353 0c0.419817,0 0.872516,0.235846 1.22317,0.570055 0.348666,0.331942 0.61541,0.780389 0.661332,1.20134l0.00255122 0.0218271zm-20.9395 0.040536l19.9675 0.00623631 -0.208633 -0.479912 0.00340162 0c-0.0371344,-0.0430872 -0.0771035,-0.0850406 -0.11934,-0.125293 -0.193609,-0.184538 -0.416132,-0.314934 -0.590465,-0.314934l-18.2353 0c-0.175751,0 -0.38325,0.115372 -0.559851,0.282902 -0.031465,0.0300477 -0.0615127,0.0612292 -0.090143,0.0935446l0.0459219 0.000283469 -0.213168 0.537173z"/>
  <path class="fil23" d="M17.4087 14.8467l-0.00566937 -0.117073 -0.00340162 0.0130396c0.0615127,-0.351501 0.32854,-0.594434 0.622781,-0.595284l2.76467 -0.0232444 0.173483 0.00963793 0.152506 -0.144569 0.176034 0.125293 -0.0606623 0.0547094 0.0683159 0.0484731 -0.0408195 0.0377013 0.0331658 0.0235279 -0.0487566 0.0436542 0.0487566 0.0345832 -0.0124726 0.0113387 0.0201263 0.0144569 -0.0473393 0.0436542 0.0473393 0.0337328 -0.0408195 0.0379848 0.0331658 0.0232444 -0.0300477 0.0274965 0.00283469 0.00198428 -0.0303311 0.0280634 0.0651978 0.0464889 -0.0583945 0.053859 0.0155908 0.0110553 -0.0121892 0.0113387 0.0201263 0.0147404 -0.0476227 0.0433707 0.0476227 0.0340162 -0.041103 0.0377013 0.0331658 0.0235279 -0.0603788 0.0549929 0.0683159 0.0490401 -0.211184 0.193609 -0.273547 0.00651978 -2.78083 0.0240948c-0.238114,0.00113387 -0.48218,0.141167 -0.620229,0.392037l-0.00226775 0.0124726 -0.00595284 -0.116506 -0.00340162 0.0130396c0.00510244,-0.0306146 0.0124726,-0.0615127 0.0212601,-0.0904265l-0.00963793 0.0161577 -0.00226775 0.0127561 -0.00595284 -0.116789 -0.00340162 0.0127561 0.00651978 -0.0303311 -0.00311815 -0.0598119 -0.00340162 0.0127561c0.00510244,-0.0306146 0.0124726,-0.0612292 0.0212601,-0.090143l-0.00963793 0.0161577 -0.00226775 0.0127561 -0.00595284 -0.117073 -0.00340162 0.0130396c0.00935446,-0.0518748 0.022961,-0.101482 0.0402525,-0.148254l-0.00170081 -0.0325989 -0.00340162 0.0127561c0.00481897,-0.0306146 0.0121892,-0.0615127 0.0209767,-0.0904265l-0.00963793 0.0161577 -0.00226775 0.0127561zm-13.3981 -0.0700168l0.00566937 -0.117073 0.00340162 0.0130396c-0.0615127,-0.351785 -0.32854,-0.594434 -0.623064,-0.595284l-2.76439 -0.0235279 -0.173483 0.00963793 -0.152506 -0.144286 -0.176034 0.12501 0.0603788 0.0547094 -0.0683159 0.0484731 0.041103 0.0379848 -0.0331658 0.0235279 0.0484731 0.0433707 -0.0484731 0.0348666 0.0121892 0.0110553 -0.0201263 0.0147404 0.0476227 0.0433707 -0.0476227 0.0340162 0.041103 0.0377013 -0.0331658 0.0235279 0.0300477 0.0274965 -0.00283469 0.00198428 0.0300477 0.0277799 -0.0651978 0.0467723 0.0583945 0.0535756 -0.0155908 0.0113387 0.0124726 0.0113387 -0.0201263 0.0144569 0.0473393 0.0436542 -0.0473393 0.0337328 0.0408195 0.0379848 -0.0331658 0.0232444 0.0606623 0.0552764 -0.0683159 0.0487566 0.211184 0.193893 0.273547 0.00651978 2.78054 0.0238114c0.238114,0.00113387 0.482464,0.141451 0.620513,0.392321l0.00226775 0.0121892 0.00566937 -0.116222 0.00340162 0.0130396c-0.00481897,-0.0308981 -0.0121892,-0.0615127 -0.0209767,-0.0904265l0.00963793 0.0161577 0.00226775 0.0127561 0.00566937 -0.116789 0.00340162 0.0127561 -0.00651978 -0.0306146 0.00311815 -0.0595284 0.00340162 0.0127561c-0.00481897,-0.0306146 -0.0121892,-0.0615127 -0.0209767,-0.0904265l0.00963793 0.0161577 0.00226775 0.0127561 0.00566937 -0.117073 0.00340162 0.0130396c-0.009071,-0.0518748 -0.0226775,-0.101198 -0.0402525,-0.147971l0.00198428 -0.0328824 0.00340162 0.0127561c-0.00510244,-0.0303311 -0.0121892,-0.0612292 -0.0212601,-0.090143l0.00963793 0.0161577 0.00255122 0.0127561z"/>
  <path class="fil38" d="M1.40799 21.0464c-0.319186,-0.0603788 -0.606623,-0.212885 -0.832547,-0.428038 -0.227342,-0.216853 -0.393738,-0.497487 -0.468007,-0.810437l-0.0124726 -0.106301 0 -6.04327 0 -0.458085 0.46007 0 2.96508 -0.00113387c0.261075,0.000850406 0.553614,0.114521 0.776704,0.301044 0.207499,0.17405 0.369927,0.417833 0.415565,0.704703 0.0306146,0.189924 0.0328824,0.252854 0.0342997,0.291973l0 0.00368509 0.0617962 0.238397c0.185672,0.725113 0.914753,1.38871 1.98967,1.88733 1.13047,0.5247 2.61868,0.851256 4.26167,0.874217 1.64298,-0.022961 3.13091,-0.349517 4.26138,-0.874217 1.07435,-0.498621 1.80371,-1.16222 1.98938,-1.88733l0.0620796 -0.242366c0.00141734,-0.0391187 0.00425203,-0.102332 0.0342997,-0.291689 0.0456384,-0.28687 0.208066,-0.530653 0.415282,-0.704703 0.22309,-0.186522 0.515629,-0.300193 0.776988,-0.301044l2.98691 0.00113387 0.46007 0 0 0.458085 0 5.55797 -0.00368509 0.0413864c-0.0144569,0.156475 -0.036284,0.311249 -0.0731349,0.459786 -0.0399691,0.162144 -0.0983636,0.322587 -0.183121,0.478495l0.000566937 0.000283469c-0.117073,0.216287 -0.274114,0.406777 -0.464889,0.554465 -0.187373,0.144569 -0.404793,0.248319 -0.646592,0.295658l-0.0878753 0.00878753 -19.095 0 -0.0844737 -0.00878753zm-0.199845 -1.09277c0.0912769,0.0867414 0.204381,0.150805 0.328824,0.181703l19.0009 0c0.0827728,-0.0218271 0.158175,-0.0603788 0.223373,-0.110553 0.0864579,-0.0668986 0.16016,-0.157892 0.217137,-0.263342l0.00170081 -0.00198428c0.0436542,-0.0805051 0.0754027,-0.168664 0.0983636,-0.260791 0.022961,-0.0935446 0.0377013,-0.189357 0.0479062,-0.285453l0 -5.09705 -2.52712 -0.000850406c-0.0501739,0 -0.121608,0.0342997 -0.187656,0.0895761 -0.0518748,0.0433707 -0.0918438,0.0952455 -0.0994975,0.144002 -0.0209767,0.133797 -0.0226775,0.162711 -0.0232444,0.180003 -0.00283469,0.0836232 -0.00340162,0.0963793 -0.09071,0.436542 -0.257956,1.0066 -1.17044,1.8811 -2.49254,2.49481 -1.23904,0.574874 -2.8602,0.548228 -4.64038,0.572323l-0.0107718 0c-1.78018,-0.0240948 -3.40162,0.00255122 -4.64066,-0.572323 -1.32238,-0.61371 -2.23487,-1.48821 -2.49311,-2.49481 -0.0856075,-0.335627 -0.0875918,-0.352918 -0.0904265,-0.436258l0 -0.00340162c-0.000566937,-0.0178585 -0.00311815,-0.0507409 -0.0232444,-0.176884 -0.00737018,-0.0487566 -0.0470558,-0.100348 -0.0994975,-0.144002 -0.0660482,-0.0552764 -0.137199,-0.0895761 -0.187373,-0.0895761l-2.5053 0.000850406 0 5.52537c0.0371344,0.120474 0.104883,0.227909 0.193326,0.312099z"/>
 </g>
</svg>
