<?xml version="1.0" encoding="UTF-8" standalone="no"?>
<!-- Creator: CorelDRAW -->

<svg
   xmlns:dc="http://purl.org/dc/elements/1.1/"
   xmlns:cc="http://creativecommons.org/ns#"
   xmlns:rdf="http://www.w3.org/1999/02/22-rdf-syntax-ns#"
   xmlns:svg="http://www.w3.org/2000/svg"
   xmlns="http://www.w3.org/2000/svg"
   xmlns:xlink="http://www.w3.org/1999/xlink"
   xmlns:sodipodi="http://sodipodi.sourceforge.net/DTD/sodipodi-0.dtd"
   xmlns:inkscape="http://www.inkscape.org/namespaces/inkscape"
   xml:space="preserve"
   width="32px"
   height="32px"
   style="shape-rendering:geometricPrecision; text-rendering:geometricPrecision; image-rendering:optimizeQuality; fill-rule:evenodd; clip-rule:evenodd"
   viewBox="0 0 32 32"
   id="svg4140"
   version="1.1"
   inkscape:version="0.48.1 r9760"
   sodipodi:docname="kolourpaint.svg"><metadata
   id="metadata4424"><rdf:RDF><cc:Work
       rdf:about=""><dc:format>image/svg+xml</dc:format><dc:type
         rdf:resource="http://purl.org/dc/dcmitype/StillImage" /><dc:title></dc:title></cc:Work></rdf:RDF></metadata><sodipodi:namedview
   pagecolor="#ffffff"
   bordercolor="#666666"
   borderopacity="1"
   objecttolerance="10"
   gridtolerance="10"
   guidetolerance="10"
   inkscape:pageopacity="0"
   inkscape:pageshadow="2"
   inkscape:window-width="646"
   inkscape:window-height="480"
   id="namedview4422"
   showgrid="false"
   inkscape:zoom="8.3125"
   inkscape:cx="16"
   inkscape:cy="16"
   inkscape:window-x="0"
   inkscape:window-y="24"
   inkscape:window-maximized="0"
   inkscape:current-layer="svg4140" />
 <defs
   id="defs4142">
  <style
   type="text/css"
   id="style4144">
   
    .fil80 {fill:#4C4C4C}
    .fil81 {fill:#666666}
    .fil82 {fill:#6E6E6E}
    .fil83 {fill:#787878}
    .fil84 {fill:#7F7F7F}
    .fil85 {fill:#878787}
    .fil86 {fill:#8F8F8F}
    .fil87 {fill:#999999}
    .fil28 {fill:white}
    .fil46 {fill:#75B7EF}
    .fil72 {fill:#7D491E}
    .fil74 {fill:#85C2F5}
    .fil68 {fill:#AD732B}
    .fil47 {fill:#BB7B30}
    .fil14 {fill:#E69D45}
    .fil100 {fill:#F4E3CA}
    .fil57 {fill:#F9C418}
    .fil79 {fill:#4C4C4C;fill-rule:nonzero}
    .fil67 {fill:white;fill-rule:nonzero}
    .fil71 {fill:#6B401D;fill-rule:nonzero}
    .fil58 {fill:#BA7712;fill-rule:nonzero}
    .fil77 {fill:#D9D2C1;fill-rule:nonzero}
    .fil48 {fill:#FFD278;fill-rule:nonzero}
    .fil97 {fill:#595959;fill-rule:nonzero}
    .fil96 {fill:#616161;fill-rule:nonzero}
    .fil88 {fill:#BCDE88;fill-rule:nonzero}
    .fil0 {fill:black;fill-opacity:0.000000}
    .fil50 {fill:#C4DEFF;fill-opacity:0.000000}
    .fil15 {fill:#EFC36A;fill-opacity:0.000000}
    .fil32 {fill:#592A06;fill-opacity:0.000000}
    .fil1 {fill:black;fill-opacity:0.003922}
    .fil2 {fill:black;fill-opacity:0.007843}
    .fil33 {fill:#592A06;fill-opacity:0.007843}
    .fil3 {fill:black;fill-opacity:0.015686}
    .fil4 {fill:black;fill-opacity:0.019608}
    .fil34 {fill:#592A06;fill-opacity:0.019608}
    .fil5 {fill:black;fill-opacity:0.023529}
    .fil6 {fill:black;fill-opacity:0.027451}
    .fil35 {fill:#592A06;fill-opacity:0.027451}
    .fil7 {fill:black;fill-opacity:0.031373}
    .fil51 {fill:#C4DEFF;fill-opacity:0.035294}
    .fil8 {fill:black;fill-opacity:0.035294}
    .fil36 {fill:#592A06;fill-opacity:0.035294}
    .fil9 {fill:black;fill-opacity:0.043137}
    .fil10 {fill:black;fill-opacity:0.047059}
    .fil37 {fill:#592A06;fill-opacity:0.047059}
    .fil16 {fill:#EFC36A;fill-opacity:0.047059}
    .fil11 {fill:black;fill-opacity:0.050980}
    .fil12 {fill:black;fill-opacity:0.054902}
    .fil38 {fill:#592A06;fill-opacity:0.054902}
    .fil13 {fill:black;fill-opacity:0.058824}
    .fil39 {fill:#592A06;fill-opacity:0.062745}
    .fil52 {fill:#C4DEFF;fill-opacity:0.074510}
    .fil60 {fill:#FFF28C;fill-opacity:0.074510}
    .fil40 {fill:#592A06;fill-opacity:0.074510}
    .fil41 {fill:#592A06;fill-opacity:0.082353}
    .fil42 {fill:#592A06;fill-opacity:0.094118}
    .fil17 {fill:#EFC36A;fill-opacity:0.098039}
    .fil43 {fill:#592A06;fill-opacity:0.101961}
    .fil53 {fill:#C4DEFF;fill-opacity:0.109804}
    .fil44 {fill:#592A06;fill-opacity:0.109804}
    .fil45 {fill:#592A06;fill-opacity:0.121569}
    .fil54 {fill:#C4DEFF;fill-opacity:0.145098}
    .fil18 {fill:#EFC36A;fill-opacity:0.145098}
    .fil61 {fill:#FFF28C;fill-opacity:0.145098}
    .fil55 {fill:#C4DEFF;fill-opacity:0.184314}
    .fil19 {fill:#EFC36A;fill-opacity:0.196078}
    .fil56 {fill:#C4DEFF;fill-opacity:0.219608}
    .fil62 {fill:#FFF28C;fill-opacity:0.219608}
    .fil20 {fill:#EFC36A;fill-opacity:0.243137}
    .fil63 {fill:#FFF28C;fill-opacity:0.294118}
    .fil21 {fill:#EFC36A;fill-opacity:0.294118}
    .fil22 {fill:#EFC36A;fill-opacity:0.341176}
    .fil64 {fill:#FFF28C;fill-opacity:0.368627}
    .fil23 {fill:#EFC36A;fill-opacity:0.392157}
    .fil69 {fill:#DE953C;fill-opacity:0.439216}
    .fil24 {fill:#EFC36A;fill-opacity:0.439216}
    .fil65 {fill:#FFF28C;fill-opacity:0.439216}
    .fil26 {fill:#6C411C;fill-rule:nonzero;fill-opacity:0.501961}
    .fil29 {fill:#B7DD5F;fill-opacity:0.721569}
    .fil99 {fill:#666666;fill-opacity:0.780392}
    .fil98 {fill:#7D684A;fill-opacity:0.780392}
    .fil30 {fill:#B7DD5F;fill-opacity:0.780392}
    .fil92 {fill:#D0F280;fill-opacity:0.780392}
    .fil59 {fill:#E08F17;fill-opacity:0.780392}
    .fil27 {fill:url(#id0)}
    .fil25 {fill:url(#id1)}
    .fil78 {fill:url(#id2)}
    .fil66 {fill:url(#id3)}
    .fil94 {fill:url(#id4)}
    .fil95 {fill:url(#id5)}
    .fil93 {fill:url(#id6)}
    .fil91 {fill:url(#id7)}
    .fil31 {fill:url(#id8)}
    .fil89 {fill:url(#id9)}
    .fil75 {fill:url(#id10)}
    .fil76 {fill:url(#id11)}
    .fil90 {fill:url(#id12)}
    .fil49 {fill:url(#id13);fill-rule:nonzero}
    .fil73 {fill:url(#id14);fill-rule:nonzero}
    .fil70 {fill:url(#id15)}
   
  </style>
  <linearGradient
   id="id0"
   gradientUnits="userSpaceOnUse"
   x1="13.8975"
   y1="4.90182"
   x2="13.8975"
   y2="27.8659">
   <stop
   offset="0"
   style="stop-color:#FFF7EB"
   id="stop4147" />
   <stop
   offset="1"
   style="stop-color:#F2DFC4"
   id="stop4149" />
  </linearGradient>
  <linearGradient
   id="id1"
   gradientUnits="userSpaceOnUse"
   x1="13.9176"
   y1="29.933"
   x2="14.2602"
   y2="3.42064">
   <stop
   offset="0"
   style="stop-color:#A96B26"
   id="stop4152" />
   <stop
   offset="1"
   style="stop-color:#C48231"
   id="stop4154" />
  </linearGradient>
  <linearGradient
   id="id2"
   gradientUnits="userSpaceOnUse"
   x1="22.9535"
   y1="17.3607"
   x2="19.6947"
   y2="20.7589">
   <stop
   offset="0"
   style="stop-color:#AD6009"
   id="stop4157" />
   <stop
   offset="1"
   style="stop-color:#D98E35"
   id="stop4159" />
  </linearGradient>
  <linearGradient
   id="id3"
   gradientUnits="userSpaceOnUse"
   x1="31.2382"
   y1="4.06083"
   x2="20.4376"
   y2="19.638">
   <stop
   offset="0"
   style="stop-color:#FFF28C"
   id="stop4162" />
   <stop
   offset="1"
   style="stop-color:#FFF28C"
   id="stop4164" />
  </linearGradient>
  <linearGradient
   id="id4"
   gradientUnits="userSpaceOnUse"
   x1="18.8714"
   y1="19.2057"
   x2="21.8786"
   y2="21.4959">
   <stop
   offset="0"
   style="stop-color:#333333"
   id="stop4167" />
   <stop
   offset="0.0784314"
   style="stop-color:white"
   id="stop4169" />
   <stop
   offset="0.541176"
   style="stop-color:white"
   id="stop4171" />
   <stop
   offset="0.678431"
   style="stop-color:#191919"
   id="stop4173" />
   <stop
   offset="0.858824"
   style="stop-color:#191919"
   id="stop4175" />
   <stop
   offset="0.921569"
   style="stop-color:#999999"
   id="stop4177" />
   <stop
   offset="1"
   style="stop-color:#999999"
   id="stop4179" />
  </linearGradient>
  <linearGradient
   id="id5"
   gradientUnits="userSpaceOnUse"
   xlink:href="#id4"
   x1="18.647"
   y1="19.2458"
   x2="21.7605"
   y2="21.6141">
  </linearGradient>
  <linearGradient
   id="id6"
   gradientUnits="userSpaceOnUse"
   xlink:href="#id4"
   x1="16.2351"
   y1="24.7737"
   x2="17.9926"
   y2="26.1745">
  </linearGradient>
  <linearGradient
   id="id7"
   gradientUnits="userSpaceOnUse"
   xlink:href="#id4"
   x1="19.8376"
   y1="18.3789"
   x2="22.2046"
   y2="20.1801">
  </linearGradient>
  <linearGradient
   id="id8"
   gradientUnits="userSpaceOnUse"
   x1="11.3887"
   y1="10.0103"
   x2="11.514"
   y2="18.6789">
   <stop
   offset="0"
   style="stop-color:#93CCFA"
   id="stop4185" />
   <stop
   offset="1"
   style="stop-color:#73B8F0"
   id="stop4187" />
  </linearGradient>
  <linearGradient
   id="id9"
   gradientUnits="userSpaceOnUse"
   x1="20.8026"
   y1="22.9783"
   x2="20.1719"
   y2="23.6102">
   <stop
   offset="0"
   style="stop-color:#333333"
   id="stop4190" />
   <stop
   offset="1"
   style="stop-color:#7F7F7F"
   id="stop4192" />
  </linearGradient>
  <linearGradient
   id="id10"
   gradientUnits="userSpaceOnUse"
   x1="20.6868"
   y1="22.5224"
   x2="20.7046"
   y2="22.4739">
   <stop
   offset="0"
   style="stop-color:white"
   id="stop4195" />
   <stop
   offset="1"
   style="stop-color:#999999"
   id="stop4197" />
  </linearGradient>
  <linearGradient
   id="id11"
   gradientUnits="userSpaceOnUse"
   xlink:href="#id10"
   x1="22.9039"
   y1="20.4506"
   x2="22.9192"
   y2="20.4022">
  </linearGradient>
  <linearGradient
   id="id12"
   gradientUnits="userSpaceOnUse"
   xlink:href="#id10"
   x1="19.7147"
   y1="23.6126"
   x2="19.7301"
   y2="23.5701">
  </linearGradient>
  <linearGradient
   id="id13"
   gradientUnits="userSpaceOnUse"
   x1="14.0003"
   y1="3.47497"
   x2="14.0003"
   y2="29.5621">
   <stop
   offset="0"
   style="stop-color:#9C6313"
   id="stop4202" />
   <stop
   offset="1"
   style="stop-color:#7D4A1D"
   id="stop4204" />
  </linearGradient>
  <linearGradient
   id="id14"
   gradientUnits="userSpaceOnUse"
   x1="20.6916"
   y1="38.2684"
   x2="17.8568"
   y2="30.8838">
   <stop
   offset="0"
   style="stop-color:#7D491E"
   id="stop4207" />
   <stop
   offset="1"
   style="stop-color:#613511"
   id="stop4209" />
  </linearGradient>
  <linearGradient
   id="id15"
   gradientUnits="userSpaceOnUse"
   x1="13.0979"
   y1="29.1758"
   x2="14.631"
   y2="30.1964">
   <stop
   offset="0"
   style="stop-color:#8F5522"
   id="stop4212" />
   <stop
   offset="1"
   style="stop-color:#965E26"
   id="stop4214" />
  </linearGradient>
 </defs>
 <g
   id="Слой_x0020_1">
  <metadata
   id="CorelCorpID_0Corel-Layer" />
  <g
   id="_83130032">
   <path
   id="_82988976"
   class="fil0"
   d="M13.5326 27.0285c10.5903,-0.454747 14.3865,0.728776 15.6657,2.15562l0 2.26547c-1.9312,0.839805 -8.23859,0.139377 -15.1318,0.414587 -1.44456,0.0578769 -2.84896,0.113391 -4.18485,0.159457l-8.4701 0c-0.952015,-0.0803189 -1.68315,-0.207884 -2.14263,-0.400413l0 -2.00207c1.10557,-1.09375 4.414,-2.16861 14.2637,-2.59265z" />
   <g
   id="g4220">
    <path
   id="_82300720"
   class="fil1"
   d="M13.5656 27.2624c10.6801,-0.441754 14.4609,0.827994 15.6327,2.26665l0 1.84497c-1.73985,0.87524 -8.1441,0.190167 -15.1165,0.450022 -2.10128,0.0791378 -4.12461,0.153551 -5.97077,0.199616l-5.66248 0c-1.50834,-0.0673261 -2.61745,-0.216152 -3.17968,-0.485457l0 -1.59929c0.975639,-1.11265 4.16832,-2.25602 14.2968,-2.67651z" />
    <path
   id="_87586088"
   class="fil2"
   d="M13.5975 27.4998c10.7757,-0.42758 14.5708,0.934298 15.6008,2.37531l0 1.42094c-1.50125,0.918943 -8.02717,0.246863 -15.1047,0.491363 -7.16019,0.248044 -13.457,0.457109 -14.8247,-0.336631l0 -1.19415c0.826812,-1.12328 3.91909,-2.34342 14.3287,-2.75683z" />
    <path
   id="_86300320"
   class="fil3"
   d="M13.6306 27.7372c10.8915,-0.413406 14.7397,1.05241 15.5677,2.48398l0 0.979182c-1.17762,0.978001 -7.86653,0.318913 -15.0917,0.54924 -7.33264,0.235051 -13.8196,0.42758 -14.8377,-0.401595l0 -0.770117c0.624834,-1.1221 3.6238,-2.43319 14.3617,-2.84069z" />
    <path
   id="_84978112"
   class="fil4"
   d="M13.6625 27.9746c11.195,-0.400413 15.0976,1.23431 15.5358,2.65407l0 0.426399c-0.605935,1.10439 -7.57478,0.439392 -15.0787,0.659088 -7.7803,0.226783 -14.6795,0.406319 -14.8507,-0.558689l0 -0.111029c0.11221,-1.11974 2.79581,-2.65407 14.3936,-3.06984z" />
    <path
   id="_87451048"
   class="fil5"
   d="M13.6956 28.2097c11.2517,-0.37679 15.3669,1.35597 15.4047,2.70958 0.0401595,1.21069 -7.20154,0.551602 -14.9677,0.755943 -7.76731,0.204341 -14.7314,0.361435 -14.7314,-0.540972 0,-1.04887 3.04031,-2.54658 14.2944,-2.92455z" />
    <path
   id="_47777280"
   class="fil6"
   d="M13.7274 28.4447c10.647,-0.329544 15.2004,1.27683 15.2334,2.51705 0.0330725,1.06777 -7.16138,0.496087 -14.8165,0.674443 -7.6551,0.178355 -14.6074,0.311826 -14.6074,-0.485457 0,-0.974457 3.5423,-2.37531 14.1905,-2.70604z" />
    <path
   id="_83575360"
   class="fil7"
   d="M13.7605 28.6845c10.0399,-0.283479 15.0314,1.19533 15.0598,2.32334 0.0283479,0.924849 -7.12004,0.439392 -14.6629,0.592943 -7.54289,0.153551 -14.4858,0.263399 -14.4858,-0.431124 0,-0.897682 4.04547,-2.20168 14.0889,-2.48516z" />
    <path
   id="_82797056"
   class="fil8"
   d="M13.7924 28.9195c9.43511,-0.236232 14.8637,1.1162 14.8885,2.13081 0.022442,0.781928 -7.07988,0.383877 -14.5129,0.511442 -7.4295,0.127565 -14.3605,0.21379 -14.3605,-0.375609 0,-0.823269 4.54747,-2.03041 13.9849,-2.26665z" />
    <path
   id="_84843752"
   class="fil9"
   d="M13.8243 29.1546c8.82917,-0.188986 14.6972,1.03706 14.7149,1.9371 0.0200797,0.64137 -7.03735,0.329544 -14.357,0.431124 -7.31965,0.102761 -14.2377,0.164181 -14.2377,-0.321276 0,-0.747675 5.04828,-1.85797 13.8798,-2.04695z" />
    <path
   id="_85881552"
   class="fil10"
   d="M13.8562 29.392c8.22442,-0.140558 14.5295,0.957921 14.5436,1.74457 0.0141739,0.49845 -6.99719,0.274029 -14.2058,0.350805 -7.20626,0.0755943 -14.1149,0.113391 -14.1149,-0.266942 0,-0.673261 5.55145,-1.6867 13.7771,-1.82844z" />
    <path
   id="_82884248"
   class="fil11"
   d="M13.8893 29.6294c7.61849,-0.0944928 14.3605,0.876421 14.3712,1.55086 0.00826812,0.355529 -6.95704,0.217334 -14.0534,0.269305 -7.09523,0.0507899 -13.992,0.0637827 -13.992,-0.212609 0,-0.597667 6.05345,-1.51307 13.6743,-1.60756z" />
    <path
   id="_86814344"
   class="fil12"
   d="M13.9212 29.8668c7.01373,-0.0472464 14.1928,0.797283 14.1975,1.35715 0.0059058,0.214971 -6.91451,0.163 -13.8999,0.188986 -6.98184,0.0248044 -13.8668,0.0141739 -13.8668,-0.157094 0,-0.523254 6.55426,-1.3418 13.5692,-1.38904z" />
   </g>
   <path
   id="_45890328"
   class="fil13"
   d="M13.9507 30.1031c6.40898,0 14.0275,0.718146 14.0275,1.16462 0,0.145283 -27.4939,0.140558 -27.4939,0.00472464 0,-0.44766 7.05743,-1.16935 13.4664,-1.16935z" />
  </g>
  <path
   class="fil14"
   d="M27.1407 9.38314l0.0389783 0.238594 -26.2985 0.0602392 0 -5.2727c0,-0.317732 0.126384,-0.61066 0.334268,-0.837443 0.265761,-0.323638 0.669718,-0.530341 1.11856,-0.531522l23.4779 -0.0944928c0.797283,-0.00354348 1.43511,0.690979 1.42684,1.48472l-0.0578769 4.95261 -0.0401595 0z"
   id="path4235" />
  <g
   id="_82721032">
   <path
   id="_82299488"
   class="fil15"
   d="M1.03706 4.65732l0 0.0897682c0,1.93474 0.26458,3.50568 0.591761,3.50568 0.324819,0 0.588218,-1.54496 0.592943,-3.4608 -0.191348,-0.0862247 -0.401595,-0.134652 -0.617747,-0.134652l-0.566957 0z" />
   <g
   id="g4239">
    <path
   id="_82607664"
   class="fil16"
   d="M1.07958 4.65732l0 0.0897682c0,1.93474 0.245681,3.50568 0.54924,3.50568 0.301196,0 0.545696,-1.55559 0.548058,-3.4797 -0.178355,-0.0755943 -0.373247,-0.115754 -0.572863,-0.115754l-0.524435 0z" />
    <path
   id="_82861328"
   class="fil17"
   d="M1.12446 4.65732l-0.00118116 0.0897682c0,1.93474 0.225602,3.50568 0.505537,3.50568 0.277573,0 0.504356,-1.56504 0.504356,-3.49742 -0.166544,-0.0637827 -0.34608,-0.0980363 -0.52916,-0.0980363l-0.479551 0z" />
    <path
   id="_82794504"
   class="fil18"
   d="M1.16817 4.65732l0 0.0897682c0,1.93474 0.206703,3.50568 0.460653,3.50568 0.25395,0 0.460653,-1.57094 0.460653,-3.50568l0 -0.00826812c-0.154732,-0.0519711 -0.317732,-0.0815001 -0.485457,-0.0815001l-0.435848 0z" />
    <path
   id="_46481232"
   class="fil19"
   d="M1.21187 4.65732l0 0.0897682c0,1.93474 0.186623,3.50568 0.41695,3.50568 0.230326,0 0.41695,-1.57094 0.41695,-3.50568l0 -0.022442c-0.141739,-0.0437029 -0.290565,-0.0673261 -0.441754,-0.0673261l-0.392145 0z" />
    <path
   id="_46475848"
   class="fil20"
   d="M1.25557 4.65732l0 0.0897682c0,1.93474 0.167725,3.50568 0.373247,3.50568 0.205522,0 0.372066,-1.57094 0.372066,-3.50568l0 -0.0354348c-0.127565,-0.0354348 -0.261036,-0.0543334 -0.39687,-0.0543334l-0.348442 0z" />
    <path
   id="_83518056"
   class="fil21"
   d="M1.29928 4.65732l0 0.0897682c0,1.93474 0.147645,3.50568 0.329544,3.50568 0.181899,0 0.329544,-1.57094 0.329544,-3.50568l0 -0.0472464c-0.114573,-0.0271667 -0.23387,-0.0425218 -0.354348,-0.0425218l-0.304739 0z" />
    <path
   id="_83226776"
   class="fil22"
   d="M1.34298 4.65732l0 0.0897682c0,1.93474 0.128746,3.50568 0.285841,3.50568 0.157094,0 0.28466,-1.57094 0.28466,-3.50568l0 -0.0566957c-0.100399,-0.022442 -0.204341,-0.0330725 -0.309464,-0.0330725l-0.261036 0z" />
    <path
   id="_46485512"
   class="fil23"
   d="M1.38668 4.65732l0 0.0897682c0,1.93474 0.108667,3.50568 0.242138,3.50568 0.13229,0 0.240957,-1.57094 0.240957,-3.50568l0 -0.066145c-0.0862247,-0.0153551 -0.175993,-0.0236232 -0.265761,-0.0236232l-0.217334 0z" />
   </g>
   <path
   id="_84545456"
   class="fil24"
   d="M1.43157 4.65732l0 0.0897682c0,1.93474 0.088587,3.50568 0.197254,3.50568 0.108667,0 0.197254,-1.57094 0.197254,-3.50568l0 -0.073232c-0.073232,-0.0106304 -0.147645,-0.0165362 -0.222058,-0.0165362l-0.172449 0z" />
  </g>
  <path
   class="fil25"
   d="M0.884689 7.40824l-0.00354348 -3.2352c0,-0.317732 0.126384,-0.61066 0.334268,-0.837443 0.265761,-0.323638 0.669718,-0.530341 1.11856,-0.530341l23.4082 -0.0614203c0.797283,-0.00118116 1.49535,0.636646 1.48472,1.42684 -0.0141739,1.0973 0.0685073,2.20759 0.0685073,3.27536l0 21.6542c0,0.791378 -0.640189,1.45165 -1.41975,1.45165 -9.35007,0 -7.62675,0.0602392 -23.5748,0.0602392 -0.779566,0 -1.41975,-0.653182 -1.41975,-1.45165l0 -21.6542c0,-0.0330725 0.00118116,-0.0649638 0.00354348,-0.0980363z"
   id="path4250" />
  <path
   class="fil26"
   d="M1.80009 5.94951l0.00472464 -0.0602392 0.0425218 -0.214971 0.022442 -0.073232 0.220877 0.0566957c0.0200797,-0.0696885 0.0425218,-0.138196 0.0685073,-0.20316l0.00354348 -0.00708696c0.0460653,-0.115754 0.106304,-0.231507 0.172449,-0.338993l0.00472464 -0.0118116c0.0649638,-0.105123 0.145283,-0.207884 0.237413,-0.307102 0.10158,-0.119297 0.214971,-0.229145 0.337812,-0.324819l-0.00118116 -0.00118116c0.131109,-0.102761 0.281116,-0.196073 0.441754,-0.271667 0.148826,-0.0696885 0.311826,-0.126384 0.480732,-0.165362l0.00354348 0c0.174812,-0.0389783 0.34608,-0.059058 0.510261,-0.059058l0 0.00354348 19.1974 -0.0649638 0.0271667 0 0.0779566 0.00236232 0.0200797 0c0.290565,0.0141739 0.572863,0.0850436 0.827994,0.197254 0.268123,0.116935 0.511442,0.285841 0.713421,0.484276l0.00236232 0.00118116c0.198435,0.196073 0.362616,0.429942 0.477189,0.685073l0 0.00708696c0.106304,0.238594 0.174812,0.501993 0.187805,0.77366l0.00118116 0 0.00118116 0.0153551 0.00354348 0.0744131 0 0.0153551 -0.00354348 0.0307102 -0.00118116 0.0413406 0.00236232 0 0 0.00236232 0 0.0377971 0 0.0377971 0 0.036616c0,3.17142 0.0141739,5.22782 0.0259855,7.29485 0.0259855,4.22147 0.0519711,8.30356 -0.0118116,12.8865l0.00354348 0c0,0.310645 -0.0626015,0.611841 -0.172449,0.883508l-0.00472464 0.00472464c-0.115754,0.283479 -0.287022,0.53979 -0.492544,0.752399l-0.00354348 0.00354348c-0.211428,0.214971 -0.464196,0.390964 -0.740588,0.50908l-0.00354348 0c-0.272848,0.115754 -0.575225,0.18308 -0.88587,0.18308l-19.2789 0c-0.311826,0 -0.614203,-0.0673261 -0.887052,-0.18308l0.00118116 -0.00236232c-0.283479,-0.119297 -0.537428,-0.294109 -0.745312,-0.505537l-0.00354348 -0.00354348c-0.209065,-0.214971 -0.381515,-0.473645 -0.496087,-0.755943l0 -0.00354348c-0.109848,-0.272848 -0.172449,-0.572863 -0.172449,-0.882327l0.00354348 -0.0118116c0.0531522,-4.35966 0.0342537,-8.26222 0.0153551,-12.2581 -0.0106304,-2.38122 -0.0236232,-4.8026 -0.0212609,-7.37398l-0.0401595 -0.0129928 0.0425218 -0.758305 0.0141739 -0.147645 -0.231507 -0.0177174zm2.32452 0.103942l-0.116935 0.310645c-0.00472464,2.76392 0.00826812,5.34829 0.0200797,7.88897 0.0200797,4.00295 0.0389783,7.91259 -0.0153551,12.277l0.00354348 0c0,0.0496087 0.0106304,0.0980363 0.0248044,0.137015l0.00118116 0c0.0177174,0.0437029 0.0425218,0.0826812 0.0720508,0.11221 0.0307102,0.0307102 0.066145,0.0555145 0.0968552,0.0685073l0.00472464 0c0.0283479,0.0118116 0.066145,0.0200797 0.105123,0.0200797l19.2789 0c0.036616,0 0.0720508,-0.00826812 0.100399,-0.0188986l0 -0.00118116c0.0389783,-0.0177174 0.0779566,-0.0425218 0.105123,-0.0696885 0.0307102,-0.0330725 0.059058,-0.0720508 0.0755943,-0.11221l-0.00236232 -0.00118116c0.0165362,-0.0413406 0.0259855,-0.0874059 0.0259855,-0.134652l0.00354348 -0.0118116c0.0626015,-4.57818 0.036616,-8.65318 0.0118116,-12.8676 -0.0153551,-2.63163 -0.0330725,-5.37074 -0.0330725,-7.30193l0 -0.036616 0 -0.0377971 0 -0.0377971 0 -0.00236232 0.00354348 -0.0307102 0.00118116 -0.0354348 0 -0.0059058 -0.00236232 0 0 -0.0153551 0.00118116 0 -0.0129928 -0.0519711 -0.00236232 0.00118116c-0.0129928,-0.0307102 -0.0377971,-0.0626015 -0.0626015,-0.088587l-0.00236232 -0.00118116c-0.029529,-0.029529 -0.0673261,-0.0555145 -0.105123,-0.0720508l-0.00826812 -0.00472464c-0.036616,-0.0165362 -0.0803189,-0.0283479 -0.118116,-0.029529l0 -0.00118116 -0.0555145 -0.00118116 -19.1726 0.0649638 0 0.00354348 -0.0696885 0.00472464 -0.0744131 0.0259855 -0.059058 0.0377971 -0.00708696 0.00354348 -0.0153551 0.0153551z"
   id="path4252" />
  <path
   class="fil27"
   d="M2.79581 6.02746c-0.00236232,-0.0377971 0.00826812,-0.0838624 0.0271667,-0.133471 -0.0106304,0.0448841 -0.0200797,0.088587 -0.0271667,0.133471zm0.217334 0.15237l0.00354348 -0.00944928 -0.00354348 -0.00118116c0.00708696,-0.124022 0.0330725,-0.242138 0.0755943,-0.350805 0.0519711,-0.13229 0.129928,-0.252768 0.226783,-0.357892l0.00354348 -0.00472464c0.125203,-0.15237 0.282297,-0.276392 0.461834,-0.361435 0.172449,-0.0815001 0.36616,-0.127565 0.569319,-0.127565l19.1974 -0.0649638 0.0779566 0.00236232c0.340174,0.0177174 0.656725,0.166544 0.887052,0.394508l0.00118116 0c0.220877,0.218515 0.363797,0.511442 0.373247,0.832718l0 0 0.00118116 0.0153551 0 0.0153551 -0.00236232 0.0720508 0 0.00236232 0 0.0377971 0 0.0377971 0 0.036616c0,7.13657 0.116935,13.0459 0.0177174,20.1813 0,0.367341 -0.147645,0.701609 -0.385058,0.944928l0 0c-0.236232,0.240957 -0.562232,0.392145 -0.918943,0.392145l-19.2789 0c-0.357892,0 -0.683892,-0.150007 -0.920124,-0.390964 -0.237413,-0.243319 -0.383877,-0.577587 -0.383877,-0.94611 0.0897682,-7.18736 -0.0212609,-13.1239 -0.00472464,-20.3101l0.00118116 -0.0401595z"
   id="path4254" />
  <path
   class="fil28"
   d="M2.80289 6.45268c-0.00118116,-0.0377971 0.00826812,-0.0838624 0.0271667,-0.13229 -0.0106304,0.0437029 -0.0200797,0.0874059 -0.0271667,0.13229zm0.217334 0.153551l0.00472464 -0.0106304 -0.00472464 -0.00118116c0.0059058,-0.122841 0.0330725,-0.242138 0.0755943,-0.350805 0.0531522,-0.131109 0.129928,-0.252768 0.226783,-0.357892l0.00354348 -0.00472464c0.125203,-0.15237 0.282297,-0.27521 0.461834,-0.360254 0.173631,-0.0815001 0.36616,-0.128746 0.569319,-0.128746l19.1419 -0.0649638 0.0767754 0.00236232c0.340174,0.0188986 0.656725,0.166544 0.888233,0.395689l0 0c0.220877,0.218515 0.363797,0.510261 0.373247,0.831537l0 0 0.00118116 0.0165362 0 0.0153551 -0.00236232 0.0708696 0 0.00354348 0 0.036616 0 0.0377971 0 0.0377971c0,33.3843 -0.0165362,21.692 -0.0165362,0.377971l0 -0.0377971 0 -0.0377971 0 -0.0377971 0 -0.00236232 0.00236232 -0.0708696 0 -0.0165362 0 -0.0153551 0 -0.00118116c-0.0106304,-0.320094 -0.15237,-0.613022 -0.374428,-0.831537l0 0c-0.231507,-0.227964 -0.548058,-0.375609 -0.888233,-0.394508l-0.0767754 -0.00236232 -19.1419 0.0649638c-0.201978,0 -0.395689,0.0460653 -0.568138,0.128746 -0.179536,0.0838624 -0.337812,0.207884 -0.463015,0.360254l-0.00354348 0.00472464c-0.0968552,0.105123 -0.173631,0.226783 -0.225602,0.357892 -0.0283479,0.0696885 -0.0484276,0.14292 -0.0614203,0.218515l0 -0.19371 0.00118116 -0.0401595z"
   id="path4256" />
  <g
   id="_46480896">
   <path
   id="_82987888"
   class="fil29"
   d="M20.5628 13.7723c0.966189,0.28466 1.90639,0.66145 2.80526,1.11974 0.479551,0.270486 0.944928,0.565776 1.33589,0.960283 0.209065,0.212609 0.390964,0.450022 0.531522,0.71224 0.180718,0.341355 0.28466,0.719327 0.294109,1.10675 0.00826812,0.415768 -0.0933117,0.825631 -0.291747,1.19061 -0.155913,0.281116 -0.364979,0.52916 -0.61066,0.733501 -0.336631,0.278754 -0.729957,0.474827 -1.13864,0.620109 -1.26266,0.435848 -2.66942,0.524435 -3.99468,0.510261 -1.39731,-0.0141739 -2.76273,0.231507 -4.11753,0.553964 1.28983,-0.0059058 2.57965,0.0141739 3.86476,0.138196 0.453566,0.0106304 0.948472,0.285841 1.35715,0.463015 0.414587,0.179536 0.897682,0.357892 1.23786,0.670899l0.0106304 0.00944928c0.0425218,0.0389783 0.0815001,0.0803189 0.120478,0.125203 0.0897682,0.11221 0.158276,0.242138 0.200797,0.380334 0.0389783,0.13229 0.0543334,0.271667 0.0448841,0.408682 -0.0153551,0.0413406 -0.0944928,0.388602 -0.146464,0.479551l-0.0649638 0.10158 -0.103942 0.124022c-0.0708696,0.073232 -0.151189,0.135833 -0.238594,0.187805 -0.138196,0.0815001 -0.290565,0.13229 -0.445298,0.171268 -0.281116,0.0626015 -0.568138,0.10158 -0.852798,0.139377 -0.87524,0.0944928 -1.75402,0.167725 -2.63281,0.232689 -1.65362,0.120478 -3.55766,0.418131 -5.20301,0.0614203 -0.159457,-0.022442 -1.3607,-0.0248044 -1.39968,-0.2445 -0.0248044,-0.276392 1.26148,-0.333087 1.39968,-0.338993 1.69851,-0.111029 3.39466,-0.250406 5.08962,-0.419312 0.859885,-0.0850436 1.71977,-0.175993 2.57847,-0.283479 0.252768,-0.036616 0.505537,-0.0744131 0.754762,-0.128746 0.0637827,-0.0153551 0.13229,-0.0318913 0.190167,-0.0637827 0.0129928,-0.00708696 0.0259855,-0.0153551 0.0354348,-0.0259855l0.00118116 -0.00118116 0.00118116 -0.00118116c0.00118116,-0.00118116 0.00354348,-0.00354348 0.00472464,-0.00472464 0.00118116,-0.00236232 0.00354348,-0.00472464 0.00472464,-0.0059058l0.00118116 -0.00118116 0.00118116 -0.00236232c0.00118116,-0.00118116 0.00236232,-0.00354348 0.00354348,-0.0059058 0.00118116,-0.00354348 0.00472464,-0.00708696 0.0059058,-0.0106304 0.00118116,-0.00354348 0.00354348,-0.00826812 0.00472464,-0.0129928 0.00118116,-0.00354348 0.00118116,-0.00826812 0.00236232,-0.0118116 0.00236232,-0.0153551 0.00118116,-0.029529 -0.00236232,-0.0448841 -0.00354348,-0.0118116 -0.0106304,-0.0248044 -0.0177174,-0.0354348 -0.0129928,-0.0141739 -0.0271667,-0.022442 -0.0425218,-0.0330725 -0.204341,-0.223239 -0.648457,-0.341355 -0.918943,-0.457109 -0.313008,-0.135833 -0.70279,-0.364979 -1.05005,-0.388602 -2.60918,-0.245681 -5.24317,-0.0815001 -7.86062,-0.157094 -0.94611,0.204341 -1.90049,0.359073 -2.87022,0.400413 0.282297,-0.0129928 -0.778385,0.307102 -1.32881,0.435848l-0.0921305 0.0389783 -0.11221 0.0519711c-0.0141739,0.00708696 -0.0377971,0.022442 -0.0531522,0.0236232l0.129928 -0.127565c0.111029,-0.126384 0.197254,-0.272848 0.258674,-0.431124 0.073232,-0.196073 0.103942,-0.405138 0.0933117,-0.614203l0.246863 -0.106304 -0.261036 -0.0377971c-0.0059058,-0.0425218 -0.0141739,-0.0850436 -0.0236232,-0.126384 -0.0626015,-0.258674 -0.188986,-0.497269 -0.373247,-0.688617 -0.088587,-0.0909494 -0.187805,-0.172449 -0.300015,-0.231507 -0.125203,-0.0626015 0.982726,0.129928 1.27093,0.153551 1.31936,0.192529 2.64698,0.252768 3.97579,0.265761 2.52886,-0.564595 5.01875,-1.39613 7.62085,-1.37133 1.23313,0.0177174 2.55603,-0.0626015 3.72538,-0.47837 0.318913,-0.114573 0.629559,-0.26458 0.891776,-0.484276 0.165362,-0.140558 0.310645,-0.308283 0.415768,-0.500812 0.00708696,-0.0129928 0.0141739,-0.0271667 0.0212609,-0.0401595 0.114573,-0.226783 0.172449,-0.479551 0.166544,-0.734682 -0.00708696,-0.257493 -0.0791378,-0.507899 -0.200797,-0.733501 -0.102761,-0.190167 -0.239776,-0.362616 -0.392145,-0.513805 -0.320094,-0.313008 -0.703972,-0.552783 -1.09494,-0.764211 -2.02923,-0.962646 -4.28525,-1.50598 -6.53536,-1.33825 -1.81308,0.158276 -7.72361,1.43393 -9.28392,-0.13229 -3.20803,-3.23638 7.82164,-1.03706 9.28392,-1.03942 1.37841,-0.0059058 2.74974,0.214971 4.07146,0.602392zm-13.2255 8.30001c-0.00236232,-0.0484276 -0.00708696,-0.095674 -0.0141739,-0.144102 -0.399232,-0.0602392 -0.887052,-0.139377 -1.08785,-0.185442l0.022442 0.022442c0.0673261,0.0685073 0.113391,0.157094 0.137015,0.250406 0.0259855,0.109848 0.0200797,0.226783 -0.0177174,0.334268 -0.0188986,0.0484276 -0.0437029,0.0933117 -0.0744131,0.133471 -0.172449,0.26458 0.47837,-0.214971 0.605935,-0.26458 0.127565,-0.022442 0.274029,-0.0803189 0.428761,-0.146464zm14.8755 1.40322c-0.00118116,0.0271667 -0.00354348,0.0531522 -0.00826812,0.0791378 0.0118116,-0.073232 0.0129928,-0.0933117 0.00826812,-0.0791378zm-0.00826812 0.0791378l-0.00118116 0.00826812 0.00118116 -0.00826812zm-15.9693 -1.8119c-0.095674,-0.0212609 -0.126384,-0.0342537 -0.0566957,-0.036616 0.0200797,0.00708696 0.0401595,0.022442 0.0566957,0.036616z" />
  </g>
  <g
   id="_84920496">
   <path
   id="_84550312"
   class="fil30"
   d="M22.97 15.4827c0.2445,0.158276 0.477189,0.333087 0.685073,0.531522 0.21379,0.204341 0.403957,0.437029 0.54924,0.693341 0.192529,0.343718 0.301196,0.72287 0.314189,1.11029 0.00826812,0.418131 -0.100399,0.832718 -0.309464,1.19888 -0.166544,0.281116 -0.386239,0.527979 -0.644914,0.73232 -0.342537,0.269305 -0.741769,0.461834 -1.15754,0.602392 -1.01462,0.333087 -2.12373,0.453566 -3.20567,0.479551 0.205522,0.0755943 0.406319,0.163 0.592943,0.236232 0.446479,0.178355 0.935479,0.354348 1.30873,0.660269l0.00826812 0.00354348 0.00354348 0.00708696 0.0188986 0.0118116 0.00354348 0.00472464 0.00944928 0.00826812 0.0472464 0.0413406 -0.00354348 -0.00118116c0.0425218,0.0377971 0.0838624,0.0791378 0.125203,0.124022 0.131109,0.155913 0.227964,0.330725 0.289384,0.518529 0.0626015,0.198435 0.0826812,0.403957 0.0614203,0.61066 -0.00826812,-0.00826812 -0.10158,0.374428 -0.180718,0.551602 -0.0507899,0.0673261 -0.206703,0.29529 -0.269305,0.357892 -0.10158,0.0980363 -0.214971,0.18308 -0.338993,0.255131 -0.172449,0.0968552 -0.362616,0.161819 -0.557508,0.209065 -0.278754,0.0673261 -0.564595,0.108667 -0.849254,0.147645 -0.827994,0.107486 -1.66189,0.188986 -2.49107,0.262218 -1.04178,0.0968552 -2.10483,0.212609 -3.16433,0.262218l0.232689 0.0578769c0.454747,0.0862247 5.3731,1.37369 5.41562,1.88986 -0.0602392,0.729957 -5.20183,-0.431124 -5.63414,-0.450022 -2.40012,-0.250406 -4.82268,-0.414587 -7.23697,-0.320094 -1.24731,0.0283479 -2.51705,-0.648457 -1.72095,-2.01978 0.12166,-0.357892 3.50332,-0.492544 3.72538,-0.496087 -0.201978,-0.0578769 -3.58955,-0.0838624 -3.77735,-0.179536 -0.942566,-0.485457 -1.40204,-1.54141 -1.01344,-2.51705 0.102761,-0.250406 0.25395,-0.477189 0.444116,-0.675624 0.401595,-0.419312 0.941385,-0.682711 1.48354,-0.898863 -0.291747,0.0460653 1.47881,-0.634283 2.36586,-0.644914 2.05994,-0.154732 4.01713,-0.790196 6.00266,-1.30518 -3.45844,-0.0484276 -9.72213,-0.320094 -9.60283,-2.79581 -0.0555145,-3.42182 8.64846,-1.13864 11.2435,-1.15517 2.28082,-0.0200797 4.54392,0.558689 6.57788,1.52252 0.222058,0.114573 0.439392,0.23387 0.649638,0.368522zm-1.304 7.5736l-0.00944928 0.0673261c0.00826812,-0.0448841 0.0106304,-0.0649638 0.00944928,-0.0673261zm-0.180718 0.551602c-0.0106304,0.0200797 -0.0188986,0.0377971 -0.0259855,0.0507899 0.0472464,-0.0779566 0.0496087,-0.0826812 0.0259855,-0.0507899zm-16.6142 0.652001c0.0153551,-0.0259855 0.0106304,-0.0188986 -0.0271667,0.0401595l0.0271667 -0.0401595zm-0.0271667 0.0401595l-0.0106304 0.0141739 0.0106304 -0.0141739zm14.5023 -2.85368c0.0389783,-0.0106304 0.0744131,-0.0212609 0.108667,-0.0354348 0.00118116,-0.00118116 0.00236232,-0.00236232 0.00472464,-0.00236232 -0.0141739,0 -0.036616,0.00944928 -0.0472464,0.0129928l-0.066145 0.0248044z" />
  </g>
  <path
   class="fil31"
   d="M7.10704 14.3511c-0.174812,-0.0342537 -0.819725,-0.139377 -1.13155,0.103942 -0.323638,0.25395 -1.33825,0.698066 -1.57921,1.09375 -0.0283479,-0.0165362 -0.0578769,-0.029529 -0.0874059,-0.0389783l0.0141739 0.368522c-0.168906,0.537428 -0.373247,1.13864 -0.318913,1.77528 0.111029,1.28865 0.989812,1.95482 2.01742,1.91112 0.066145,-0.00354348 0.225602,-0.0437029 0.439392,-0.111029 0.00944928,0.138196 -0.00236232,0.304739 -0.0744131,0.445298 -0.158276,0.308283 -0.362616,1.81899 -0.362616,1.81899 0,0 -0.770117,0.545696 -0.0909494,0.451203 0.679167,-0.0944928 1.11029,0.0472464 0.861066,-0.308283 -0.249225,-0.35671 -0.402776,-1.56976 -0.361435,-1.67725 0.0401595,-0.108667 0.194891,-0.55987 0.250406,-0.802008 0.833899,-0.282297 2.14381,-0.803189 2.37177,-0.90595 0.059058,-0.0259855 0.120478,-0.0803189 0.179536,-0.154732 0.236232,0.131109 1.06895,0.598848 1.20478,0.700428 0.158276,0.118116 0,0.450022 0.249225,0.592943 0.249225,0.141739 0.543334,-0.0944928 0.453566,-0.308283 -0.0909494,-0.21379 -0.249225,-0.308283 -0.385058,-0.380334 -0.135833,-0.0708696 -1.38196,-0.520892 -1.42684,-0.711059 -0.00236232,-0.00826812 -0.00236232,-0.0177174 -0.00236232,-0.0271667 0.0519711,-0.0838624 0.10158,-0.178355 0.148826,-0.281116 0.0153551,-0.0271667 0.0271667,-0.0519711 0.0307102,-0.0744131 0.0330725,-0.0779566 0.0637827,-0.158276 0.0909494,-0.239776 0.0307102,0.0118116 0.0602392,0.0236232 0.0909494,0.0318913 0.803189,0.249225 1.27329,0.272848 1.65717,0.246863 0.198435,0.059058 0.542153,0.194891 0.542153,0.415768 0,0.307102 -0.022442,0.711059 -0.022442,0.901225 0,0.188986 0.4075,0.545696 0.49845,0.0944928 0.0909494,-0.450022 -0.022442,-0.663812 -0.204341,-1.06777 -0.139377,-0.310645 -0.386239,-0.283479 -0.409863,-0.385058l0.157094 -0.0153551c0.543334,-0.0472464 0.588218,-0.14292 1.31227,-0.28466 0.725233,-0.140558 1.08667,-1.1351 1.90285,-1.32408 0.318913,-0.0744131 0.680348,-0.0318913 0.963827,0.0271667 0.257493,0.225602 0.249225,0.683892 0.62129,0.949653 0.372066,0.265761 1.13155,1.09139 1.60756,1.49417 0.474827,0.402776 0.457109,-0.817363 0.548058,-1.22014 0.0897682,-0.403957 -1.26857,-0.474827 -1.60874,-0.592943 -0.129928,-0.0460653 -0.457109,-0.27521 -0.810276,-0.540972 0.175993,0.0507899 0.201978,0.0637827 -0.0543334,-0.0696885 -0.0460653,-0.0236232 -0.0909494,-0.0484276 -0.131109,-0.0708696 -0.158276,-0.12166 -0.314189,-0.2445 -0.455928,-0.355529 -0.150007,-0.177174 -0.20316,-0.35671 -0.227964,-0.566957 -0.0448841,-0.379153 0.226783,-1.13628 0.588218,-1.93947 0.362616,-0.80437 -0.851617,-1.17998 -0.851617,-1.6052 0,-0.666175 0.922486,-1.39495 1.35833,-1.55441 0.383877,-0.14292 0.766573,-0.57995 1.12919,-0.817363 0.361435,-0.237413 -0.022442,-0.640189 -0.453566,-0.640189 -0.429942,0 -0.792559,0.592943 -1.15399,1.09139 -0.362616,0.49845 -1.8119,0.616566 -1.8119,0.616566l-0.0129928 0.0377971c-0.359073,-0.0696885 -0.591761,-0.223239 -0.933117,-0.428761 -0.118116,-0.111029 -0.170087,-0.155913 -0.409863,-0.266942 -0.153551,-0.0815001 -0.282297,-0.148826 -0.399232,-0.20316 -0.231507,-0.167725 -0.139377,-0.849254 -0.0212609,-1.40086 0.291747,0.0708696 0.644914,-0.75358 0.644914,-1.09375 0,-0.341355 -0.26458,-0.629559 -0.589399,-0.629559 -0.324819,0 -0.589399,0.281116 -0.589399,0.629559 0,0.31537 0.0129928,0.771298 0.22442,0.959102 -0.0401595,0.727595 -0.307102,1.09375 -0.587037,1.27565 -0.0649638,-0.00118116 -0.13229,0.00236232 -0.206703,0.00826812 -0.543334,0.0472464 -1.8556,0.377971 -2.53595,0.757124 -0.677986,0.377971 -1.26739,0.851617 -1.90167,0.851617 -0.066145,0 -0.116935,0.00354348 -0.153551,0.0106304 -0.527979,-0.232689 -0.344899,0.10158 -0.496087,-0.157094 -0.249225,-0.42758 -0.181899,-0.901225 -0.679167,-0.735863 -0.49845,0.166544 -0.815001,0.545696 -0.452384,0.806733 0.362616,0.261036 0.865791,0.214971 1.26739,0.403957 0.401595,0.188986 0.0425218,-0.266942 0.403957,-0.0637827 0.129928,0.146464 0.31537,0.34608 0.336631,0.587037 0.0330725,0.383877 -0.106304,1.85088 -0.181899,2.59265z"
   id="path4262" />
  <g
   id="_47290400">
   <path
   id="_85661136"
   class="fil32"
   d="M18.1273 31.1212c3.50214,-3.04031 7.16374,-6.83656 9.26975,-9.97963l0.153551 -2.81943 0 -8.78665 -12.2404 19.9415 -1.10439 1.64418 3.92145 0zm9.94773 -22.3842l0.00354348 -0.0602392 -0.036616 0.0602392 0.0330725 0z" />
   <g
   id="g4266">
    <path
   id="_47049400"
   class="fil33"
   d="M17.8627 31.1212c3.59663,-3.17378 7.46257,-7.21571 9.56386,-10.5111l0.124022 -2.27846 0 -8.84571 -12.3124 19.9817 -1.10675 1.65362 3.73129 0z" />
    <path
   id="_84029056"
   class="fil34"
   d="M17.6111 31.1212c3.67695,-3.30016 7.74251,-7.58187 9.84379,-11.0285l0.095674 -1.76111 0 -7.95748 -0.227964 -0.562232c-4.05256,6.54835 -8.10512,13.0967 -12.1577,19.6462l-1.10793 1.66307 3.55411 0z" />
    <path
   id="_83002288"
   class="fil35"
   d="M17.3713 31.1212c3.7431,-3.41592 8.00591,-7.93386 10.1107,-11.5329l0.0685073 -1.26975 0 -6.68655 -0.718146 -1.07131c-3.91318,6.29677 -7.82755,12.5924 -11.7419,18.8879l-1.10793 1.67252 3.38875 0z" />
    <path
   id="_83137456"
   class="fil36"
   d="M17.1422 31.1212c3.79389,-3.52222 8.25159,-8.27049 10.3659,-12.0219l0.0425218 -0.780747 0 -6.04045 -1.20596 -0.968552c-3.77617,6.044 -7.55116,12.0856 -11.3261,18.1285l-1.11029 1.68315 3.23402 0z" />
    <path
   id="_83220648"
   class="fil37"
   d="M16.9237 31.1212c3.82932,-3.62026 8.47955,-8.59294 10.6115,-12.499l0.0153551 -0.292928 0 -5.78178 -1.69615 -0.486638c-3.63679,5.78887 -7.27359,11.5777 -10.9092,17.3678l-1.11029 1.6926 3.08873 0z" />
    <path
   id="_83020264"
   class="fil38"
   d="M16.7146 31.1212c3.84822,-3.7053 8.6768,-8.88941 10.836,-12.9443l0 -5.61051 -2.18633 0.243319c-3.4986,5.5361 -6.99483,11.0734 -10.4934,16.6095l-1.11029 1.70205 2.95408 0z" />
    <path
   id="_85417776"
   class="fil39"
   d="M16.5185 31.1212c3.8435,-3.77145 8.82917,-9.141 11.032,-13.3424l0 -5.36483 -2.67769 1.14454c-3.35804,5.28451 -6.71726,10.5678 -10.0741,15.8524l-1.11029 1.71032 2.83006 0z" />
    <path
   id="_47400176"
   class="fil40"
   d="M16.3284 31.1212c3.82814,-3.83168 8.96501,-9.3796 11.2222,-13.7286l0 -5.25853 -3.16551 2.17334c-3.22102,5.03174 -6.44087,10.0611 -9.65953,15.0929l-1.11029 1.72095 2.71313 0z" />
    <path
   id="_47485536"
   class="fil41"
   d="M16.1488 31.1212c3.80216,-3.88366 9.08549,-9.60638 11.4017,-14.1019l0 -5.25853 -3.65569 3.29662c-3.08165,4.77661 -6.16211,9.55441 -9.24258,14.331l-1.11029 1.73276 2.60682 0z" />
    <path
   id="_47742480"
   class="fil42"
   d="M15.9764 31.1212c3.76672,-3.93208 9.19415,-9.82253 11.5742,-14.4692l0 -5.33648 -4.14587 4.49077c-2.94227,4.52384 -5.88454,9.04887 -8.82681,13.5727l-1.11029 1.74221 2.50878 0z" />
    <path
   id="_83320472"
   class="fil43"
   d="M15.8146 31.1212c3.72302,-3.97224 9.28392,-10.0257 11.736,-14.82l0 -5.48649 -4.63605 5.7428c-2.80289,4.2699 -5.60579,8.54215 -8.40868,12.8132l-1.10793 1.75048 2.41665 0z" />
    <path
   id="_47302064"
   class="fil44"
   d="M15.6586 31.1212c3.67341,-4.00886 9.36424,-10.2194 11.8919,-15.1637l0 -5.68965 -5.12624 7.03854c-2.66234,4.01713 -5.32821,8.03543 -7.99291,12.0537l-1.10557 1.76111 2.33279 0z" />
   </g>
   <path
   id="_82601744"
   class="fil45"
   d="M15.7449 31.1212c3.99705,-4.4825 9.99498,-11.2293 11.762,-16.2752l0.0437029 -0.811457 0 -2.23476 -0.115754 -1.41267 -13.3424 19.5281 -0.751218 1.20596 2.40366 0z" />
  </g>
  <ellipse
   class="fil46"
   cx="5.94723"
   cy="18.072"
   rx="0.383366"
   ry="0.372777"
   id="ellipse4281" />
  <path
   class="fil47"
   d="M1.88749 2.97534l0.095674 1.07958c-0.133471,0.0437029 -0.261036,0.0862247 -0.369703,0.0862247 -0.408682,0.191348 -0.822088,0.605935 -0.993356,1.03233l0.00118116 0.00118116c-0.0555145,0.141739 -0.0921305,0.296471 -0.103942,0.453566 -0.066145,-0.0177174 -0.128746,-0.0448841 -0.187805,-0.0791378 -0.00354348,-0.0838624 -0.00236232,-0.167725 0.00236232,-0.249225 -0.0637827,-1.06186 0.523254,-2.06585 1.55559,-2.32452z"
   id="path4283" />
  <path
   class="fil48"
   d="M0.331906 5.29987c-0.0744131,-1.23431 0.731138,-2.38831 2.09184,-2.38831l24.3792 0 0.0342537 0 0.00472464 0.00236232c0.0803189,0.00118116 0.158276,0.0059058 0.23387,0.0141739l0.0874059 1.71741 -0.164181 -0.00944928 0 0.00236232 -0.0342537 0 -1.20242 -0.677986 -23.3386 0c-0.281116,0 -0.584674,0.180718 -0.810276,0.180718 -0.408682,0.191348 -0.822088,0.605935 -0.993356,1.03233l0.00118116 0.00118116c-0.0685073,0.174812 -0.107486,0.364979 -0.107486,0.562232l-0.181899 -0.131109c-0.0059058,-0.102761 -0.0059058,-0.205522 0,-0.305921z"
   id="path4285" />
  <path
   class="fil49"
   d="M0.0271667 4.66677l0 -0.0153551 0 -0.0141739 0 -0.646095c0,-0.217334 0.0448841,-0.432305 0.124022,-0.629559 0.0767754,-0.194891 0.190167,-0.372066 0.328363,-0.526798 0.179536,-0.219696 0.409863,-0.399232 0.664993,-0.522073l0.00472464 -0.00236232c0.25395,-0.119297 0.537428,-0.188986 0.831537,-0.188986l0 0.00236232 24.0059 -0.0944928 0.00236232 -0.00236232 0.022442 0 0.0059058 0.00236232c0.530341,0.0059058 1.00753,0.238594 1.34889,0.597667 0.337812,0.353167 0.546877,0.842167 0.548058,1.36188l0.00236232 0 0 0.0236232 -0.00236232 0.0059058 -0.0129928 1.00635 0.00236232 0 0 0.0519711 0 0.0519711 -0.00236232 0c0.0330725,3.92027 0.0519711,7.92913 0.0602392,11.9333 0.0106304,5.00458 0.0118116,8.50554 0.0118116,11.9356 0,0.530341 -0.217334,1.01934 -0.562232,1.37251 -0.347261,0.35671 -0.831537,0.581131 -1.35833,0.581131 -4.55574,0 -6.36055,0.0118116 -8.47128,0.0212609 -3.26118,0.0177174 -6.99719,0.0389783 -15.6338,0.0389783 -0.527979,0 -1.01225,-0.22442 -1.3607,-0.581131 -0.344899,-0.351986 -0.55987,-0.838624 -0.55987,-1.37251l0 -24.391zm1.00162 -0.0153551l0 0.0153551 0 24.391c0,0.26458 0.106304,0.506718 0.274029,0.677986 0.164181,0.167725 0.394508,0.274029 0.644914,0.274029 9.42684,0 12.7636,-0.0177174 15.6291,-0.0342537 2.57965,-0.0118116 4.9219,-0.0259855 8.47601,-0.0259855 0.249225,0 0.479551,-0.106304 0.642551,-0.274029 0.170087,-0.173631 0.276392,-0.415768 0.276392,-0.677986 0,-4.42108 -0.00118116,-8.93312 -0.00708696,-11.9356 -0.00708696,-4.00059 -0.0271667,-8.00709 -0.0602392,-11.9297l-0.00236232 -0.00354348 0 -0.0519711 0 -0.0519711 0.00236232 -0.0059058 0.0129928 -1.00635 -0.00236232 0 0 -0.0236232 0.00236232 0c0,-0.25395 -0.105123,-0.49845 -0.274029,-0.674443 -0.163,-0.171268 -0.388602,-0.283479 -0.631921,-0.288203l0 0.00236232 -0.022442 0 0 -0.00236232 -24.0059 0.0944928 -0.00236232 0.00236232c-0.146464,0 -0.285841,0.0330725 -0.406319,0.0897682 -0.125203,0.0614203 -0.239776,0.150007 -0.324819,0.255131l-0.0200797 0.0236232c-0.066145,0.0720508 -0.118116,0.153551 -0.15237,0.239776l0 0.00118116c-0.0307102,0.0767754 -0.0484276,0.166544 -0.0484276,0.258674l0 0.646095 0 0.0141739z"
   id="path4287" />
  <g
   id="_46845832">
   <path
   id="_82299688"
   class="fil50"
   d="M21.1121 14.7125l-3.86948 5.6176c1.32526,0.902407 2.84896,1.48826 4.44471,1.70087l2.12373 -6.82356c-0.949653,0.223239 -1.92529,0.0259855 -2.69895,-0.494906z" />
   <g
   id="g4291">
    <path
   id="_82797440"
   class="fil51"
   d="M21.2302 14.7893l-3.74074 5.70264c1.17762,0.754762 2.50288,1.26502 3.88956,1.49299l2.14735 -6.72317c-0.809095,0.119297 -1.62173,-0.059058 -2.29618,-0.472464z" />
    <path
   id="_82624456"
   class="fil52"
   d="M21.3495 14.8578l-3.60845 5.79005c1.02525,0.616566 2.15207,1.05241 3.32969,1.28156l2.1757 -6.63812c-0.668537,0.0425218 -1.32644,-0.113391 -1.89694,-0.433486z" />
    <path
   id="_83356032"
   class="fil53"
   d="M21.4711 14.924l-3.47261 5.87391c0.864609,0.485457 1.79655,0.845711 2.76628,1.06659l2.20759 -6.56607c-0.525616,-0.00944928 -1.03942,-0.140558 -1.50125,-0.374428z" />
    <path
   id="_83014040"
   class="fil54"
   d="M21.594 14.983l-3.33323 5.95777c0.696885,0.36616 1.43511,0.650819 2.19814,0.849254l2.2442 -6.50701c-0.386239,-0.0377971 -0.760667,-0.139377 -1.10911,-0.300015z" />
    <path
   id="_85037200"
   class="fil55"
   d="M21.7168 15.0374l-3.18795 6.03927c0.522073,0.255131 1.06659,0.466558 1.62528,0.629559l2.28555 -6.45859c-0.249225,-0.0448841 -0.491363,-0.115754 -0.72287,-0.210247z" />
   </g>
   <path
   id="_46845856"
   class="fil56"
   d="M21.8397 15.0846l-3.04031 6.11959c0.342537,0.154732 0.694522,0.290565 1.05241,0.408682l2.32925 -6.42197c-0.115754,-0.029529 -0.230326,-0.0649638 -0.341355,-0.106304z" />
  </g>
  <path
   class="fil57"
   d="M20.9621 21.5538c0.116935,-0.187805 0.986269,0.191348 1.13391,-0.0496087 2.7462,-4.46833 9.67607,-16.3142 8.53388,-16.8977 -1.21069,-0.618928 -7.06098,7.80511 -11.0061,13.3448 -0.484276,0.680348 -0.237413,1.86033 -0.653182,2.43083 0.00472464,0.0389783 -0.151189,0.349624 -0.144102,0.388602 0.898863,-0.0283479 2.28082,0.124022 2.82297,1.39141l-0.687435 -0.608298z"
   id="path4299" />
  <path
   class="fil58"
   d="M22.0842 20.7589l0.116935 0.0188986c0.0484276,0.00826812 0.0555145,0.0862247 0.0602392,0.151189l0.0496087 0.0555145 0.00708696 -0.0106304 0 -0.00236232c1.62173,-2.63871 4.05374,-7.57596 6.05345,-11.4915l-0.00118116 0c0.686254,-1.34534 1.24731,-2.53713 1.57567,-3.41119 0.235051,-0.626015 0.442935,-0.978001 0.438211,-1.02407 -0.796102,-0.259855 -5.91998,6.59206 -9.66189,11.8612l-0.909494 1.28038c-0.174812,0.245681 -0.00708696,0.724051 -0.0507899,1.12565 -0.0389783,0.34608 -0.0779566,0.683892 -0.188986,0.985088 0.316551,0.0318913 0.649638,0.0968552 0.970914,0.214971 0.317732,0.115754 1.27211,0.0129928 1.54023,0.246863zm1.08549 0.735863c-0.141739,0.231507 -0.348442,0.310645 -0.577587,0.321276l-0.624834 0.448841 -1.33589 -0.337812 -0.314189 -0.278754 0.073232 -0.118116 -0.191348 -0.0803189c-0.452384,-0.166544 -0.957921,-0.192529 -1.35715,-0.180718l-0.433486 0.0129928 -0.0744131 -0.425218c-0.0271667,-0.153551 0.0413406,-0.326 0.109848,-0.483095l-0.00236232 -0.00118116 0.00472464 0.00118116 0.0413406 0.0177174 0.0791378 -0.302377c0.12166,-0.167725 0.163,-0.519711 0.20316,-0.88587 0.0578769,-0.52916 -0.0944928,-1.13982 0.230326,-1.59575l0.909494 -1.28038c3.98642,-5.61406 9.4422,-12.9337 10.947,-12.1648l0.029529 0.0165362 0.0118116 0.00708696 0.00354348 0.00118116c0.468921,0.285841 0.4075,1.09139 -0.022442,2.23357 -0.347261,0.923668 -0.921305,2.14735 -1.61819,3.51277l-0.00118116 0c-2.03041,3.97579 -4.46951,8.92603 -6.08888,11.5624l-0.00118116 -0.00118116zm-4.69511 -1.05241l0.0129928 -0.0496087 -0.0413406 -0.0177174c0.0129928,0.0236232 0.0401595,0.160638 0.0283479,0.0673261zm-0.0307102 -0.0696885l0.00236232 0.00118116"
   id="path4301" />
  <path
   class="fil59"
   d="M20.968 21.6259c2.2761,-3.66514 10.2726,-16.3732 9.07131,-16.9886 -0.0944928,-0.0472464 -0.0673261,-0.165362 -0.22442,-0.0968552 0.337812,1.66189 -7.49328,12.4884 -9.90876,16.3981 0.100399,0.141739 0.940204,0.653182 1.00517,0.80437l0.0566957 -0.116935z"
   id="path4303" />
  <g
   id="_82602504">
   <g
   id="g4306">
    <path
   id="_83766976"
   class="fil60"
   d="M20.1648 21.9979c3.04621,-4.72464 10.556,-17.4233 10.2726,-17.6666 -0.636646,-0.545696 -8.20316,10.5442 -12.2628,16.2055 0.607116,0.145283 1.76111,0.934298 1.99026,1.4611z" />
    <path
   id="_47204544"
   class="fil61"
   d="M19.9663 21.8763c3.0155,-4.67621 10.432,-17.0288 10.1828,-17.2402 -0.552783,-0.46774 -7.90787,10.3919 -11.9226,15.9575 0.602392,0.144102 1.51307,0.76303 1.73985,1.28274z" />
    <path
   id="_84920536"
   class="fil62"
   d="M19.7691 21.7546c2.98479,-4.62897 10.3068,-16.6343 10.093,-16.8126 -0.46774,-0.392145 -7.61376,10.2395 -11.5836,15.7094 0.596486,0.141739 1.2662,0.589399 1.49062,1.1032z" />
    <path
   id="_82431048"
   class="fil63"
   d="M19.5706 21.633c2.95526,-4.58172 10.1816,-16.2398 10.0021,-16.3862 -0.381515,-0.31537 -7.31847,10.0883 -11.2411,15.4614 0.589399,0.141739 1.01816,0.415768 1.23904,0.924849z" />
    <path
   id="_82399984"
   class="fil64"
   d="M19.3734 21.5125c2.92455,-4.53448 10.0576,-15.8476 9.9123,-15.9622 -0.298834,-0.237413 -7.02436,9.93828 -10.9021,15.2157 0.583493,0.139377 0.770117,0.242138 0.989812,0.746493z" />
   </g>
   <path
   id="_46965976"
   class="fil65"
   d="M19.1761 21.3908c2.89266,-4.48723 9.9312,-15.4531 9.82135,-15.5358 -0.21379,-0.160638 -6.72789,9.7871 -10.5608,14.9665 0.576406,0.139377 0.522073,0.0696885 0.739406,0.569319z" />
  </g>
  <path
   class="fil66"
   d="M19.8931 20.5274c2.89266,-4.48723 9.79182,-15.3137 9.68197,-15.3952 -0.21379,-0.160638 -6.72907,9.78591 -10.5619,14.9665 0.577587,0.138196 0.662631,-0.0708696 0.879965,0.428761z"
   id="path4314" />
  <polygon
   class="fil67"
   points="29.1251,15.2511 29.1262,15.2405 29.1251,15.2382 29.092,15.2358 "
   id="polygon4316" />
  <path
   class="fil68"
   d="M10.5206 31.5275c-0.0259855,0.0307102 2.73911,0.220877 4.69984,-0.642551 1.0158,-0.446479 2.45918,-1.42448 2.89739,-2.57965 0.779566,-2.05876 -0.540972,-4.5959 -3.16197,-3.32497 -0.139377,0.0673261 -1.2851,0.871696 -1.56386,3.00605 -0.0980363,0.745312 -0.259855,1.20951 -0.59058,1.82489 -0.399232,0.744131 -0.802008,1.55441 -2.28082,1.71623z"
   id="path4318" />
  <path
   class="fil69"
   d="M10.51 31.55c-0.0248044,0.0307102 2.74974,0.197254 4.71047,-0.663812 1.0158,-0.44766 2.45918,-1.42566 2.89621,-2.58084 0.780747,-2.05876 -0.53979,-4.5959 -3.16197,-3.32379 -0.139377,0.066145 -1.2851,0.870515 -1.56268,3.00487 -0.0980363,0.745312 -0.259855,1.20951 -0.589399,1.82607 -0.399232,0.744131 -0.811457,1.57449 -2.29263,1.73749z"
   id="path4320" />
  <path
   class="fil70"
   d="M10.5584 31.5771c-0.0106304,0.0106304 0.0236232,0.0283479 0.673261,0.0129928 -0.134652,0.0354348 -0.238594,-0.0248044 -0.389783,-0.0141739 1.01107,0.00118116 2.85959,-0.022442 4.22383,-0.622472 1.0158,-0.446479 2.62454,-0.826812 3.06157,-1.98199 0.512624,-1.3477 0.379153,-3.11944 -0.688617,-3.67459 -0.00354348,-0.0519711 -0.408682,-0.45829 -0.362616,-0.446479 -0.562232,-0.289384 -1.31109,-0.305921 -2.21468,0.13229 -0.140558,0.0673261 -1.28628,0.871696 -1.56386,3.00723 -0.214971,1.64418 -0.321276,2.76037 -2.73911,3.58718zm2.28436 -0.840986c0.656725,-0.689798 0.836262,-1.64654 0.962646,-2.60446 0.277573,-2.13436 1.18589,-1.83552 1.304,-1.9312 0.231507,-0.186623 0.975639,0.109848 1.49535,0.566957 0.257493,0.497269 0.473645,1.16462 0.22442,1.82489 -0.219696,1.54614 -2.85605,2.31744 -3.94862,2.37059 -0.210247,0.00826812 0.131109,-0.328363 -0.0377971,-0.226783z"
   id="path4322" />
  <path
   class="fil71"
   d="M10.6375 32.0874c-0.41695,-0.0248044 -0.648457,-0.25395 -0.648457,-0.537428l0 -0.466558 0.465377 -0.0496087c1.17289,-0.128746 1.36424,-0.799646 1.6926,-1.41385l0.0283479 -0.0531522c0.147645,-0.276392 0.261036,-0.522073 0.343718,-0.780747l0.00354348 -0.00118116c0.0803189,-0.245681 0.138196,-0.520892 0.184261,-0.865791 0.106304,-0.829175 0.336631,-1.47645 0.592943,-1.96899 0.487819,-0.939023 1.30754,-1.37605 1.4292,-1.43511l0 -0.00118116c0.669718,-0.324819 1.28392,-0.433486 1.81781,-0.380334 0.615385,0.0626015 1.1221,0.33545 1.50362,0.739406l-0.00118116 0.00118116c0.36616,0.388602 0.95674,0.73232 1.07249,1.29219 0.557508,2.7084 -1.02052,4.42699 -3.41119,5.47704 -1.47763,0.650819 -3.65333,0.46774 -4.61243,0.45829l-0.00236232 0c-0.205522,-0.00236232 -0.361435,-0.00944928 -0.45829,-0.0141739zm2.06231 -1.10793c0.755943,-0.0874059 1.87686,0.0271667 2.59265,-0.288203 1.96427,-0.862247 3.26355,-2.11546 2.81116,-4.31832 -0.0779566,-0.375609 -0.577587,-0.542153 -0.807914,-0.786653l-0.00354348 0c-0.216152,-0.230326 -0.505537,-0.386239 -0.848073,-0.419312l-0.00236232 0c-0.351986,-0.0354348 -0.774841,0.0472464 -1.2603,0.281116l-0.00236232 0c-0.0614203,0.029529 -0.428761,0.294109 -0.785472,0.981544 -0.209065,0.403957 -0.568138,0.939023 -0.656725,1.62291l0.170087 0.00236232c-0.0519711,0.39687 -0.29529,0.73232 -0.400413,1.0536l0.00236232 0c-0.102761,0.313008 -0.238594,0.609479 -0.418131,0.948472l0.140558 0.0531522c-0.155913,0.290565 -0.316551,0.591761 -0.531522,0.869334z"
   id="path4324" />
  <path
   class="fil72"
   d="M16.9355 25.8639c-0.402776,-0.00236232 -1.2851,2.36823 -2.00561,3.30961 -0.37679,0.492544 -2.74502,2.44264 -3.0781,2.38594 1.60756,-0.591761 3.98287,-2.13908 4.47187,-2.91865 0.165362,-0.262218 1.04887,-2.77455 0.611841,-2.77691z"
   id="path4326" />
  <path
   class="fil73"
   d="M11.2092 31.5559c0.00472464,-0.0106304 1.39495,-0.00944928 2.49107,-0.650819 0.70279,-0.412225 1.33117,-1.16226 1.82253,-2.05758l-0.0259855 0.0188986c-0.479551,0.881146 -1.24376,1.46582 -1.98435,1.84852 -1.08312,0.558689 -2.11191,0.688617 -2.11664,0.688617l-0.186623 0.15237z"
   id="path4328" />
  <path
   class="fil74"
   d="M9.82135 32.085l-0.703972 -0.61066c0.598848,-0.115754 1.51189,-0.568138 2.24302,-1.26266 0.688617,-0.652001 1.21541,-1.55559 1.26975,-1.49181 0.088587,0.103942 0.155913,1.20006 0.100399,1.32644 -0.285841,0.643732 0.616566,0.631921 0.973276,0.637827 0.0460653,0.00118116 2.46036,-0.240957 2.78518,-0.205522 0.212609,0.022442 0.869334,0.126384 0.67208,0.327181 -0.37679,0.382696 -1.93356,0.975639 -2.05404,1.02407 -0.174812,0.0685073 -2.26783,0.171268 -2.69541,0.227964 -0.711059,0.0944928 -1.68079,0.139377 -2.59028,0.0271667z"
   id="path4330" />
  <path
   class="fil75"
   d="M20.4175 22.6688c0.185442,-0.113391 0.380334,-0.229145 0.557508,-0.341355 -0.186623,0.113391 -0.380334,0.229145 -0.557508,0.341355z"
   id="path4332" />
  <path
   class="fil76"
   d="M22.6098 20.6018c0.201978,-0.116935 0.411044,-0.236232 0.603573,-0.351986 -0.201978,0.118116 -0.411044,0.237413 -0.603573,0.351986z"
   id="path4334" />
  <polygon
   class="fil77"
   points="19.8518,17.9584 19.56,18.2383 19.6817,18.1781 "
   id="polygon4336" />
  <path
   class="fil78"
   d="M23.3917 19.7147c-0.562232,-1.24967 -2.58556,-2.3635 -3.51513,-2.37886l-0.272848 0.373247 0.00708696 0 -0.251587 0.343718c0.0484276,-0.00236232 0.0980363,0 0.15237,0.00354348l-0.0118116 0.0165362 0.00708696 0 -0.251587 0.343718c0.901225,-0.0377971 3.00015,1.08431 3.56474,2.36705l0.22442 -0.361435 -0.0543334 -0.109848 0.00708696 -0.00944928 0.066145 0.137015 0.22442 -0.361435 -0.0531522 -0.109848 0.157094 -0.25395z"
   id="path4338" />
  <path
   class="fil79"
   d="M18.1662 26.2348c0.748856,-0.856341 1.45519,-1.69969 2.16034,-2.54186 0.889414,-1.06304 1.78001,-2.12727 2.76037,-3.21866l0.0614203 -0.0685073 -0.0330725 -0.0850436c-0.245681,-0.64137 -0.874059,-1.24376 -1.55913,-1.69024 -0.825631,-0.537428 -1.75402,-0.852798 -2.21704,-0.747675l-0.0696885 0.0165362 -0.0307102 0.0614203c-0.667356,1.30518 -1.23668,2.55839 -1.80599,3.81042 -0.461834,1.01934 -0.924849,2.03632 -1.4481,3.09818 0.0933117,0.0165362 0.192529,0.0401595 0.297652,0.0720508 0.507899,-1.03352 0.965008,-2.04105 1.42212,-3.04739 0.552783,-1.21778 1.10793,-2.43792 1.76583,-3.73129 0.414587,-0.0460653 1.19888,0.246863 1.92293,0.718146 0.609479,0.395689 1.16581,0.917762 1.40912,1.46346 -0.965008,1.07722 -1.83434,2.11664 -2.70486,3.15606 -0.695704,0.831537 -1.39141,1.66426 -2.13672,2.51469 0.0673261,0.0685073 0.137015,0.141739 0.205522,0.219696z"
   id="path4340" />
  <path
   class="fil28"
   d="M17.9288 26.0824c1.69615,-1.93592 3.15134,-3.78798 4.91245,-5.74871 -0.514986,-1.34062 -2.81943,-2.52414 -3.60608,-2.3446 -1.21423,2.37413 -2.08475,4.53802 -3.2352,6.87199 0.516167,0.127565 1.2036,0.442935 1.92884,1.22132z"
   id="path4342" />
  <path
   class="fil80"
   d="M17.0878 25.4304l4.24863 -6.64048c0.426399,0.27521 0.993356,0.663812 1.29337,1.03115l-4.727 6.19046c-0.223239,-0.216152 -0.604754,-0.442935 -0.815001,-0.581131z"
   id="path4344" />
  <path
   class="fil81"
   d="M21.9861 21.4995c0.324819,-0.381515 0.652001,-0.761849 0.985088,-1.13746 -0.0153551,-0.0389783 -0.0318913,-0.0791378 -0.0496087,-0.118116 -1.68788,1.89812 -3.24583,3.90728 -4.91127,5.82076l0.0543334 0.0578769c1.36778,-1.56268 2.57965,-3.06865 3.92145,-4.62306z"
   id="path4346" />
  <path
   class="fil82"
   d="M18.0647 26.1225c1.65599,-1.9123 3.20094,-3.94744 4.87465,-5.83611 -0.0165362,-0.0389783 -0.0354348,-0.0767754 -0.0543334,-0.114573 -1.68552,1.89694 -3.23874,3.94389 -4.90182,5.86564l0.0815001 0.0850436z"
   id="path4348" />
  <path
   class="fil83"
   d="M18.0375 26.0942c1.65244,-1.92057 3.19504,-3.99232 4.86756,-5.88218 -0.0188986,-0.036616 -0.0377971,-0.0744131 -0.0578769,-0.109848 -1.68433,1.89458 -3.23284,3.97933 -4.89119,5.90698l0.0815001 0.0850436z"
   id="path4350" />
  <path
   class="fil84"
   d="M18.0103 26.0647c1.65008,-1.92765 3.18795,-4.03366 4.85811,-5.92352 -0.0188986,-0.036616 -0.0401595,-0.0720508 -0.0614203,-0.107486 -1.67961,1.89458 -3.22457,4.0124 -4.87819,5.94714l0.0815001 0.0838624z"
   id="path4352" />
  <path
   class="fil85"
   d="M17.9832 26.0375c1.64654,-1.93356 3.1785,-4.07737 4.8463,-5.96486 -0.0200797,-0.0342537 -0.0413406,-0.0696885 -0.0637827,-0.103942 -1.67725,1.89104 -3.21512,4.04429 -4.8652,5.98494l0.0826812 0.0838624z"
   id="path4354" />
  <path
   class="fil86"
   d="M17.9548 26.008c1.64063,-1.93947 3.17023,-4.11634 4.83449,-6.00266 -0.0212609,-0.0342537 -0.0437029,-0.0673261 -0.066145,-0.100399 -1.67252,1.88749 -3.20685,4.075 -4.84984,6.02156l0.0815001 0.0815001z"
   id="path4356" />
  <path
   class="fil87"
   d="M17.9277 25.9808c1.63591,-1.94537 3.1596,-4.15768 4.81913,-6.04045 -0.022442,-0.0330725 -0.0448841,-0.066145 -0.0696885,-0.0980363 -1.6678,1.88395 -3.19386,4.10453 -4.83331,6.05699l0.0838624 0.0815001z"
   id="path4358" />
  <path
   class="fil88"
   d="M17.9631 26.0162l5.26207 -5.75934 -0.869334 -0.776022 -4.64196 6.29677c0.0815001,0.0744131 0.165362,0.153551 0.249225,0.238594z"
   id="path4360" />
  <path
   class="fil89"
   d="M18.0753 26.1344c1.66426,-1.90639 3.10291,-3.73129 4.83685,-5.66248l-0.00826812 -0.0188986c-1.72331,1.92884 -3.16433,3.75727 -4.8404,5.66957l0.0118116 0.0118116z"
   id="path4362" />
  <path
   class="fil90"
   d="M19.4206 23.7756c0.201978,-0.122841 0.412225,-0.248044 0.604754,-0.368522 -0.201978,0.122841 -0.411044,0.248044 -0.604754,0.368522z"
   id="path4364" />
  <path
   class="fil91"
   d="M22.6511 20.818c0.0791378,-0.0118116 0.261036,-0.171268 0.279935,-0.259855 0.0826812,-0.0448841 0.14292,-0.140558 0.0921305,-0.266942 -0.516167,-1.33944 -2.83597,-2.55013 -3.62262,-2.37059 -0.133471,0.0425218 -0.307102,0.211428 -0.323638,0.288203 -0.0720508,0.0448841 -0.107486,0.10158 -0.108667,0.163l0.0425218 -0.0153551c0.785472,-0.179536 3.10645,1.03115 3.62144,2.37177 0.0129928,0.0318913 0.0188986,0.0614203 0.0188986,0.0897682z"
   id="path4366" />
  <path
   class="fil92"
   d="M22.7527 20.7164c0.0909494,-0.0129928 0.18308,-0.0874059 0.18308,-0.198435 0.0850436,-0.0437029 0.147645,-0.140558 0.095674,-0.269305 -0.066145,-0.173631 -0.163,-0.344899 -0.282297,-0.511442 -0.0649638,0.0484276 -0.111029,0.116935 -0.138196,0.197254 -0.0637827,0.0555145 -0.108667,0.134652 -0.128746,0.225602 0.105123,0.15237 0.191348,0.307102 0.251587,0.465377 0.0129928,0.0330725 0.0188986,0.0626015 0.0188986,0.0909494z"
   id="path4368" />
  <path
   class="fil93"
   d="M18.4781 26.4804c0.0307102,-0.0153551 0.0578769,-0.0401595 0.073232,-0.0720508 0.0614203,-0.0330725 0.105123,-0.103942 0.0685073,-0.198435 -0.386239,-1.00162 -2.119,-1.90639 -2.70722,-1.77174 -0.0803189,0.0248044 -0.131109,0.0626015 -0.153551,0.106304 -0.0531522,0.0330725 -0.0803189,0.0755943 -0.0815001,0.12166l0.0318913 -0.0118116c0.158276,-0.036616 0.402776,0.00472464 0.680348,0.10158 -0.256312,-0.0850436 -0.479551,-0.118116 -0.628377,-0.0826812 -0.0815001,0.0248044 -0.131109,0.0614203 -0.154732,0.106304l-0.036616 0.0283479c0.134652,0.0271667 0.281116,0.0637827 0.438211,0.113391 0.608298,0.150007 1.49653,0.662631 1.98317,1.27802 0.134652,0.135833 0.271667,0.282297 0.408682,0.444116l0 -0.00118116c0.0531522,-0.0283479 0.0933117,-0.0862247 0.0779566,-0.161819z"
   id="path4370" />
  <path
   class="fil94"
   d="M22.0747 21.6377c0.107486,-0.0153551 0.21379,-0.122841 0.153551,-0.271667 -0.484276,-1.26266 -2.66942,-2.40248 -3.41001,-2.23357 -0.0850436,0.0271667 -0.141739,0.0649638 -0.175993,0.108667 -0.119297,0.0437029 -0.175993,0.111029 -0.181899,0.186623l0.0271667 -0.00944928c0.739406,-0.168906 2.92337,0.970914 3.40883,2.23239 0.0129928,0.0307102 0.0177174,0.0602392 0.0177174,0.0862247 0.0614203,-0.00472464 0.126384,-0.0401595 0.160638,-0.0992175z"
   id="path4372" />
  <path
   class="fil95"
   d="M21.9731 21.6767c0.107486,-0.0165362 0.21379,-0.122841 0.153551,-0.272848 -0.485457,-1.26148 -2.66942,-2.40248 -3.41001,-2.23239 -0.0850436,0.0271667 -0.14292,0.0637827 -0.177174,0.107486 -0.118116,0.0448841 -0.187805,0.135833 -0.19371,0.211428l0.0389783 -0.0342537c0.0118116,-0.00236232 0.0236232,-0.00472464 0.036616,-0.00708696 0.0129928,-0.00236232 0.0248044,-0.00472464 0.036616,-0.00472464 0.0259855,-0.00236232 -0.239776,0.21379 -0.21379,0.21379 0.839805,-0.00354348 2.94227,0.986269 3.39702,2.16979 0.0129928,0.0318913 0.171268,-0.0791378 0.171268,-0.0519711 0.0626015,-0.00472464 0.126384,-0.0413406 0.160638,-0.0992175z"
   id="path4374" />
  <path
   class="fil96"
   d="M19.7986 18.0328l-3.47261 6.83538c-0.146464,-0.0401595 -0.823269,-0.0106304 -0.941385,-0.0271667l3.38639 -7.26177 1.02761 0.453566z"
   id="path4376" />
  <path
   class="fil97"
   d="M23.7283 20.7802l-5.33058 5.93179 -0.125203 -0.354348c-0.0626015,-0.073232 -0.122841,-0.14292 -0.185442,-0.209065l5.03292 -5.9873 0.608298 0.618928z"
   id="path4378" />
  <path
   class="fil92"
   d="M21.7735 21.8704c0.0909494,-0.0141739 0.18308,-0.088587 0.18308,-0.199616 0.0850436,-0.0437029 0.147645,-0.140558 0.095674,-0.268123 -0.066145,-0.174812 -0.163,-0.34608 -0.283479,-0.511442 -0.0637827,0.0472464 -0.109848,0.115754 -0.138196,0.196073 -0.0626015,0.0555145 -0.107486,0.135833 -0.127565,0.226783 0.105123,0.151189 0.190167,0.307102 0.251587,0.465377 0.0129928,0.0330725 0.0188986,0.0626015 0.0188986,0.0909494z"
   id="path4380" />
  <path
   class="fil98"
   d="M6.3948 4.68684c1.01225,0 1.83316,0.675624 1.83316,1.5107 0,0.832718 -0.820907,1.50952 -1.83316,1.50952 -1.01225,0 -1.83198,-0.676805 -1.83198,-1.50952 0,-0.83508 0.819725,-1.5107 1.83198,-1.5107z"
   id="path4382" />
  <path
   class="fil98"
   d="M11.6403 4.61952c1.01225,0 1.83316,0.675624 1.83316,1.5107 0,0.832718 -0.820907,1.50952 -1.83316,1.50952 -1.01225,0 -1.83198,-0.676805 -1.83198,-1.50952 0,-0.83508 0.819725,-1.5107 1.83198,-1.5107z"
   id="path4384" />
  <path
   class="fil98"
   d="M16.6709 4.61952c1.01225,0 1.83316,0.675624 1.83316,1.5107 0,0.832718 -0.820907,1.50952 -1.83316,1.50952 -1.01225,0 -1.83198,-0.676805 -1.83198,-1.50952 0,-0.83508 0.819725,-1.5107 1.83198,-1.5107z"
   id="path4386" />
  <path
   class="fil98"
   d="M21.7026 4.61952c1.01107,0 1.83198,0.675624 1.83198,1.5107 0,0.832718 -0.820907,1.50952 -1.83198,1.50952 -1.01344,0 -1.83316,-0.676805 -1.83316,-1.50952 0,-0.83508 0.819725,-1.5107 1.83316,-1.5107z"
   id="path4388" />
  <path
   class="fil84"
   d="M21.6188 0.59058l0.0850436 0c0.523254,0 0.950834,0.385058 0.950834,0.849254l0 4.55455c0,0.465377 -0.429942,0.849254 -0.950834,0.849254l-0.0850436 0c-0.520892,0 -1.07722,-0.381515 -1.07722,-0.849254l0 -4.55455c0,-0.466558 0.553964,-0.849254 1.07722,-0.849254z"
   id="path4390" />
  <polygon
   class="fil99"
   points="20.9231,2.47099 22.2613,2.47099 22.2613,1.11147 20.9231,1.11147 "
   id="polygon4392" />
  <rect
   class="fil28"
   x="20.9231"
   y="2.13709"
   width="1.33825"
   height="1.93555"
   id="rect4394" />
  <rect
   class="fil100"
   x="20.8687"
   y="4.94335"
   width="1.33825"
   height="1.02977"
   id="rect4396" />
  <path
   class="fil84"
   d="M11.56 0.59058l0.0850436 0c0.523254,0 0.950834,0.385058 0.950834,0.849254l0 4.55455c0,0.465377 -0.429942,0.849254 -0.950834,0.849254l-0.0850436 0c-0.520892,0 -1.07722,-0.381515 -1.07722,-0.849254l0 -4.55455c0,-0.466558 0.553964,-0.849254 1.07722,-0.849254z"
   id="path4398" />
  <polygon
   class="fil99"
   points="10.8643,2.47099 12.2026,2.47099 12.2026,1.11147 10.8643,1.11147 "
   id="polygon4400" />
  <rect
   class="fil28"
   x="10.8643"
   y="2.13709"
   width="1.33825"
   height="1.93555"
   id="rect4402" />
  <rect
   class="fil100"
   x="10.81"
   y="4.94335"
   width="1.33825"
   height="1.02977"
   id="rect4404" />
  <path
   class="fil84"
   d="M16.5906 0.59058l0.0850436 0c0.523254,0 0.950834,0.385058 0.950834,0.849254l0 4.55455c0,0.465377 -0.429942,0.849254 -0.950834,0.849254l-0.0850436 0c-0.520892,0 -1.07722,-0.381515 -1.07722,-0.849254l0 -4.55455c0,-0.466558 0.553964,-0.849254 1.07722,-0.849254z"
   id="path4406" />
  <polygon
   class="fil99"
   points="15.8949,2.47099 17.2331,2.47099 17.2331,1.11147 15.8949,1.11147 "
   id="polygon4408" />
  <rect
   class="fil28"
   x="15.8949"
   y="2.13709"
   width="1.33825"
   height="1.93555"
   id="rect4410" />
  <rect
   class="fil100"
   x="15.8405"
   y="4.94335"
   width="1.33825"
   height="1.02977"
   id="rect4412" />
  <path
   class="fil84"
   d="M6.50229 0.59058l0.0850436 0c0.523254,0 0.950834,0.385058 0.950834,0.849254l0 4.55455c0,0.465377 -0.429942,0.849254 -0.950834,0.849254l-0.0850436 0c-0.520892,0 -1.07722,-0.381515 -1.07722,-0.849254l0 -4.55455c0,-0.466558 0.553964,-0.849254 1.07722,-0.849254z"
   id="path4414" />
  <polygon
   class="fil99"
   points="5.80658,2.47099 7.14484,2.47099 7.14484,1.11147 5.80658,1.11147 "
   id="polygon4416" />
  <rect
   class="fil28"
   x="5.80658"
   y="2.13709"
   width="1.33825"
   height="1.93555"
   id="rect4418" />
  <rect
   class="fil100"
   x="5.75225"
   y="4.94335"
   width="1.33825"
   height="1.02977"
   id="rect4420" />
 </g>
</svg>