<?xml version="1.0" encoding="UTF-8" standalone="no"?>
<!-- Created with Inkscape (http://www.inkscape.org/) -->

<svg
   xmlns:dc="http://purl.org/dc/elements/1.1/"
   xmlns:cc="http://creativecommons.org/ns#"
   xmlns:rdf="http://www.w3.org/1999/02/22-rdf-syntax-ns#"
   xmlns:svg="http://www.w3.org/2000/svg"
   xmlns="http://www.w3.org/2000/svg"
   xmlns:sodipodi="http://sodipodi.sourceforge.net/DTD/sodipodi-0.dtd"
   xmlns:inkscape="http://www.inkscape.org/namespaces/inkscape"
   width="48"
   height="48"
   id="svg2"
   version="1.1"
   inkscape:version="0.48.3.1 r9886"
   sodipodi:docname="48.svg">
  <defs
     id="defs4">
    <linearGradient
       gradientTransform="matrix(0.63956647,0.7687358,-0.76351841,0.64583758,5.547,23.497)"
       y2="0"
       x2="4.141"
       y1="0"
       x1="0"
       gradientUnits="userSpaceOnUse"
       id="LinearGradient_11-789">
      <stop
         id="stop52545"
         stop-color="#ffffff"
         offset="0" />
      <stop
         id="stop52547"
         stop-color="#5c5c5c"
         offset="0.16666667163372" />
      <stop
         id="stop52549"
         stop-color="#191919"
         offset="0.357142865657806" />
      <stop
         id="stop52551"
         stop-color="#ffffff"
         offset="0.571428596973419" />
      <stop
         id="stop52553"
         stop-color="#ffffff"
         offset="0.853809535503387" />
      <stop
         id="stop52555"
         stop-color="#616161"
         offset="1" />
    </linearGradient>
    <linearGradient
       gradientTransform="matrix(-0.63914374,-0.7690873,0.76332492,-0.64607766,9.452,26.005)"
       y2="0"
       x2="4.732"
       y1="0"
       x1="0"
       gradientUnits="userSpaceOnUse"
       id="LinearGradient_10-97">
      <stop
         id="stop52540"
         stop-color="#7d7d7d"
         offset="0" />
      <stop
         id="stop52542"
         stop-color="#4c4c4c"
         offset="1" />
    </linearGradient>
    <linearGradient
       gradientTransform="matrix(-0.60652972,-0.79506081,0.78997692,-0.61319387,5.2,27.629)"
       y2="0"
       x2="2.636"
       y1="0"
       x1="0"
       gradientUnits="userSpaceOnUse"
       id="LinearGradient_9-268">
      <stop
         id="stop52535"
         stop-color="#f180b3"
         offset="0" />
      <stop
         id="stop52537"
         stop-color="#b54b70"
         offset="1" />
    </linearGradient>
    <linearGradient
       gradientTransform="matrix(0.63975697,0.76857727,-0.7636223,0.64570966,30.226,4.158)"
       y2="0"
       x2="2.072"
       y1="0"
       x1="0"
       gradientUnits="userSpaceOnUse"
       id="LinearGradient_8-82">
      <stop
         id="stop52530"
         stop-color="#ab7031"
         offset="0" />
      <stop
         id="stop52532"
         stop-color="#c99c58"
         offset="1" />
    </linearGradient>
    <linearGradient
       gradientTransform="matrix(0.22233983,-0.97496923,0.96247692,0.27711912,28.872,6.468)"
       y2="0"
       x2="2.464"
       y1="0"
       x1="0"
       gradientUnits="userSpaceOnUse"
       id="LinearGradient_7-0">
      <stop
         id="stop52525"
         stop-color="#a27942"
         offset="0" />
      <stop
         id="stop52527"
         stop-color="#8d5f2d"
         offset="1" />
    </linearGradient>
    <linearGradient
       gradientTransform="matrix(0.76332268,-0.64601741,0.63956469,0.76878376,9.894,24.346)"
       y2="0"
       x2="25.463"
       y1="0"
       x1="0"
       gradientUnits="userSpaceOnUse"
       id="LinearGradient_6-91">
      <stop
         id="stop52520"
         stop-color="#e38914"
         offset="0" />
      <stop
         id="stop52522"
         stop-color="#d1760e"
         offset="1" />
    </linearGradient>
    <linearGradient
       gradientTransform="matrix(0.76331704,-0.64602407,0.6395528,0.76879392,8.625,24.135)"
       y2="0"
       x2="26.864"
       y1="0"
       x1="0"
       gradientUnits="userSpaceOnUse"
       id="LinearGradient_5-350">
      <stop
         id="stop52515"
         stop-color="#ffe29c"
         offset="0" />
      <stop
         id="stop52517"
         stop-color="#fcad23"
         offset="1" />
    </linearGradient>
    <linearGradient
       gradientTransform="matrix(0.764332,-0.64482292,0.63737319,0.7706169,8.033,23.535)"
       y2="0"
       x2="26.165"
       y1="0"
       x1="0"
       gradientUnits="userSpaceOnUse"
       id="LinearGradient_4-86">
      <stop
         id="stop52510"
         stop-color="#fccb58"
         offset="0" />
      <stop
         id="stop52512"
         stop-color="#fca314"
         offset="1" />
    </linearGradient>
    <linearGradient
       gradientTransform="matrix(0.76328885,-0.64605737,0.63956961,0.76878018,7.647,21.843)"
       y2="0"
       x2="25.743"
       y1="0"
       x1="0"
       gradientUnits="userSpaceOnUse"
       id="LinearGradient_3-911">
      <stop
         id="stop52505"
         stop-color="#ac5600"
         offset="0" />
      <stop
         id="stop52507"
         stop-color="#bd6500"
         offset="1" />
    </linearGradient>
    <linearGradient
       gradientTransform="translate(14.25,30.001)"
       y2="-24"
       x2="0.75"
       y1="0"
       x1="0"
       gradientUnits="userSpaceOnUse"
       id="LinearGradient_2-18">
      <stop
         id="stop52500"
         stop-color="#f8cf48"
         offset="0" />
      <stop
         id="stop52502"
         stop-color="#f9c918"
         offset="1" />
    </linearGradient>
    <linearGradient
       gradientTransform="translate(10.291,25.521)"
       y2="-13.707"
       x2="5.646"
       y1="0"
       x1="0"
       gradientUnits="userSpaceOnUse"
       id="LinearGradient_1-69">
      <stop
         id="stop52495"
         stop-color="#fee65b"
         offset="0" />
      <stop
         id="stop52497"
         stop-color="#fed816"
         offset="1" />
    </linearGradient>
    <linearGradient
       gradientTransform="translate(15.937,29.251)"
       y2="-16.312"
       x2="0"
       y1="0"
       x1="0"
       gradientUnits="userSpaceOnUse"
       id="LinearGradient-43">
      <stop
         id="stop52490"
         stop-color="#fef5cb"
         offset="0" />
      <stop
         id="stop52492"
         stop-color="#fed816"
         offset="1" />
    </linearGradient>
  </defs>
  <sodipodi:namedview
     id="base"
     pagecolor="#ffffff"
     bordercolor="#666666"
     borderopacity="1.0"
     inkscape:pageopacity="0.0"
     inkscape:pageshadow="2"
     inkscape:zoom="5.7331984"
     inkscape:cx="36.722689"
     inkscape:cy="35.12605"
     inkscape:document-units="px"
     inkscape:current-layer="layer1"
     showgrid="false"
     inkscape:snap-page="true"
     inkscape:snap-grids="false"
     inkscape:snap-to-guides="false"
     inkscape:window-width="995"
     inkscape:window-height="665"
     inkscape:window-x="386"
     inkscape:window-y="256"
     inkscape:window-maximized="0">
    <inkscape:grid
       type="xygrid"
       id="grid11920"
       empspacing="5"
       visible="true"
       enabled="true"
       snapvisiblegridlinesonly="true" />
  </sodipodi:namedview>
  <metadata
     id="metadata7">
    <rdf:RDF>
      <cc:Work
         rdf:about="">
        <dc:format>image/svg+xml</dc:format>
        <dc:type
           rdf:resource="http://purl.org/dc/dcmitype/StillImage" />
        <dc:title />
      </cc:Work>
    </rdf:RDF>
  </metadata>
  <g
     inkscape:label="Layer 1"
     inkscape:groupmode="layer"
     id="layer1"
     transform="translate(0,-1004.3622)">
    <g
       style="fill-rule:evenodd;stroke-width:0.50099999;stroke-linejoin:bevel;overflow:visible"
       id="g52737"
       transform="matrix(1.3333267,0,0,1.3332877,2.323e-4,1004.3638)">
      <g
         transform="scale(1,-1)"
         font-size="16"
         id="Document"
         style="font-size:16px;fill:none;stroke:#000000;font-family:Times New Roman">
        <g
           transform="translate(0,-36)"
           id="Spread">
          <g
             id="MouseOff">
            <g
               id="Group"
               style="stroke:none">
              <g
                 stroke-miterlimit="79.8403193612775"
                 id="Group_1"
                 style="fill:#000000">
                <g
                   id="Group_2">
                  <path
                     id="path52563"
                     d="m 8.062,0.844 c 2.794,0 5.063,-0.189 5.063,-0.422 C 13.125,0.189 10.856,0 8.062,0 5.268,0 2.999,0.189 2.999,0.422 c 0,0.233 2.269,0.422 5.063,0.422 z"
                     inkscape:connector-curvature="0"
                     style="fill-opacity:0.047059;marker-start:none;marker-end:none" />
                  <path
                     id="path52565"
                     d="m 7.687,0.844 c 2.44,0 4.42,-0.189 4.42,-0.422 C 12.107,0.189 10.127,0 7.687,0 c -2.44,0 -4.42,0.189 -4.42,0.422 0,0.233 1.98,0.422 4.42,0.422 z"
                     inkscape:connector-curvature="0"
                     style="fill-opacity:0.07450998;marker-start:none;marker-end:none" />
                  <path
                     id="path52567"
                     d="m 7.285,0.844 c 1.922,0 3.482,-0.126 3.482,-0.281 0,-0.155 -1.56,-0.281 -3.482,-0.281 -1.922,0 -3.482,0.126 -3.482,0.281 0,0.155 1.56,0.281 3.482,0.281 z"
                     inkscape:connector-curvature="0"
                     style="fill-opacity:0.09019602;marker-start:none;marker-end:none" />
                  <path
                     id="path52569"
                     d="m 7.017,0.844 c 1.626,0 2.946,-0.126 2.946,-0.281 0,-0.155 -1.32,-0.281 -2.946,-0.281 -1.626,0 -2.946,0.126 -2.946,0.281 0,0.155 1.32,0.281 2.946,0.281 z"
                     inkscape:connector-curvature="0"
                     style="fill-opacity:0.09019602;marker-start:none;marker-end:none" />
                  <path
                     id="path52571"
                     d="m 6.481,0.844 c 1.183,0 2.143,-0.126 2.143,-0.281 0,-0.155 -0.96,-0.281 -2.143,-0.281 -1.183,0 -2.143,0.126 -2.143,0.281 0,0.155 0.96,0.281 2.143,0.281 z"
                     inkscape:connector-curvature="0"
                     style="fill-opacity:0.09019602;marker-start:none;marker-end:none" />
                  <path
                     id="path52573"
                     d="m 6.08,0.844 c 0.665,0 1.205,-0.126 1.205,-0.281 0,-0.155 -0.54,-0.281 -1.205,-0.281 -0.665,0 -1.205,0.126 -1.205,0.281 0,0.155 0.54,0.281 1.205,0.281 z"
                     inkscape:connector-curvature="0"
                     style="fill-opacity:0.047059;marker-start:none;marker-end:none" />
                </g>
                <g
                   id="Group_3">
                  <path
                     id="path52576"
                     d="m 30.407,1.126 c 2.57,0 4.655,-0.252 4.655,-0.563 0,-0.31 -2.085,-0.562 -4.655,-0.562 -2.572,0 -4.657,0.252 -4.657,0.562 0,0.311 2.085,0.563 4.657,0.563 z"
                     inkscape:connector-curvature="0"
                     style="fill-opacity:0.01176501;marker-start:none;marker-end:none" />
                  <path
                     id="path52578"
                     d="m 26.297,0.563 c 0,-0.296 1.964,-0.536 4.382,-0.536 2.419,0 4.383,0.24 4.383,0.536 0,0.297 -1.964,0.537 -4.383,0.537 -2.418,0 -4.382,-0.24 -4.382,-0.537 z"
                     inkscape:connector-curvature="0"
                     style="fill-opacity:0.01568598;marker-start:none;marker-end:none" />
                  <path
                     id="path52580"
                     d="m 26.845,0.563 c 0,-0.283 1.841,-0.512 4.108,-0.512 2.268,0 4.109,0.229 4.109,0.512 0,0.283 -1.841,0.513 -4.109,0.513 -2.267,0 -4.108,-0.23 -4.108,-0.513 z"
                     inkscape:connector-curvature="0"
                     style="fill-opacity:0.01960802;marker-start:none;marker-end:none" />
                  <path
                     id="path52582"
                     d="m 27.392,0.563 c 0,-0.268 1.718,-0.485 3.836,-0.485 2.116,0 3.834,0.217 3.834,0.485 0,0.269 -1.718,0.487 -3.834,0.487 -2.118,0 -3.836,-0.218 -3.836,-0.487 z"
                     inkscape:connector-curvature="0"
                     style="fill-opacity:0.01960802;marker-start:none;marker-end:none" />
                  <path
                     id="path52584"
                     d="m 27.941,0.563 c 0,-0.253 1.595,-0.461 3.56,-0.461 1.966,0 3.561,0.208 3.561,0.461 0,0.254 -1.595,0.46 -3.561,0.46 -1.965,0 -3.56,-0.206 -3.56,-0.46 z"
                     inkscape:connector-curvature="0"
                     style="fill-opacity:0.02352899;marker-start:none;marker-end:none" />
                  <path
                     id="path52586"
                     d="m 28.488,0.563 c 0,-0.24 1.473,-0.434 3.287,-0.434 1.815,0 3.287,0.194 3.287,0.434 0,0.241 -1.472,0.435 -3.287,0.435 -1.814,0 -3.287,-0.194 -3.287,-0.435 z"
                     inkscape:connector-curvature="0"
                     style="fill-opacity:0.02352899;marker-start:none;marker-end:none" />
                  <path
                     id="path52588"
                     d="m 29.036,0.563 c 0,-0.225 1.35,-0.409 3.014,-0.409 1.662,0 3.012,0.184 3.012,0.409 0,0.226 -1.35,0.41 -3.012,0.41 -1.664,0 -3.014,-0.184 -3.014,-0.41 z"
                     inkscape:connector-curvature="0"
                     style="fill-opacity:0.02745098;marker-start:none;marker-end:none" />
                  <path
                     id="path52590"
                     d="m 29.584,0.563 c 0,-0.212 1.227,-0.383 2.739,-0.383 1.512,0 2.739,0.171 2.739,0.383 0,0.211 -1.227,0.384 -2.739,0.384 -1.512,0 -2.739,-0.173 -2.739,-0.384 z"
                     inkscape:connector-curvature="0"
                     style="fill-opacity:0.02745098;marker-start:none;marker-end:none" />
                  <path
                     id="path52592"
                     d="m 30.132,0.563 c 0,-0.197 1.104,-0.358 2.465,-0.358 1.361,0 2.465,0.161 2.465,0.358 0,0.198 -1.104,0.359 -2.465,0.359 -1.361,0 -2.465,-0.161 -2.465,-0.359 z"
                     inkscape:connector-curvature="0"
                     style="fill-opacity:0.03137303;marker-start:none;marker-end:none" />
                  <path
                     id="path52594"
                     d="m 30.679,0.563 c 0,-0.183 0.982,-0.332 2.192,-0.332 1.209,0 2.191,0.149 2.191,0.332 0,0.184 -0.982,0.333 -2.191,0.333 -1.21,0 -2.192,-0.149 -2.192,-0.333 z"
                     inkscape:connector-curvature="0"
                     style="fill-opacity:0.03137303;marker-start:none;marker-end:none" />
                  <path
                     id="path52596"
                     d="m 31.228,0.563 c 0,-0.168 0.859,-0.307 1.917,-0.307 1.059,0 1.917,0.139 1.917,0.307 0,0.169 -0.858,0.308 -1.917,0.308 -1.058,0 -1.917,-0.139 -1.917,-0.308 z"
                     inkscape:connector-curvature="0"
                     style="fill-opacity:0.035294;marker-start:none;marker-end:none" />
                  <path
                     id="path52598"
                     d="m 33.42,0.845 c 0.906,0 1.642,-0.126 1.642,-0.282 0,-0.155 -0.736,-0.281 -1.642,-0.281 -0.908,0 -1.645,0.126 -1.645,0.281 0,0.156 0.737,0.282 1.645,0.282 z"
                     inkscape:connector-curvature="0"
                     style="fill-opacity:0.035294;marker-start:none;marker-end:none" />
                </g>
              </g>
              <g
                 stroke-miterlimit="79.8403193612775"
                 id="Group_4">
                <path
                   id="path52601"
                   d="M 4.247,2.062 2.449,15.06 c -0.041,0.353 0.01,1.004 0.297,1.457 l 11.733,18.646 c 0.536,0.853 1.698,1.095 2.592,0.54 L 31.334,26.855 C 32.228,26.3 32.518,25.157 31.98,24.303 L 20.247,5.658 C 19.963,5.204 19.396,4.873 19.057,4.755 L 6.505,0.663 C 5.416,0.308 4.404,0.936 4.247,2.062 z M 9.805,4.959 C 10.342,5.812 10.081,6.939 9.221,7.473 8.361,8.007 7.226,7.746 6.688,6.891 6.151,6.038 6.413,4.911 7.273,4.378 8.134,3.844 9.268,4.104 9.805,4.959 z"
                   inkscape:connector-curvature="0"
                   style="fill:#e4a43e;marker-start:none;marker-end:none" />
                <path
                   style="fill:url(#LinearGradient-43);marker-start:none;marker-end:none"
                   id="path52603"
                   d="M 4.989,2.165 3.193,15.154 c -0.029,0.244 0.023,0.703 0.187,0.962 l 11.733,18.647 c 0.301,0.478 0.992,0.656 1.562,0.302 l 14.263,-8.848 c 0.567,-0.352 0.707,-1.038 0.407,-1.515 L 19.611,6.056 C 19.449,5.796 19.054,5.548 18.817,5.465 L 6.272,1.376 C 5.622,1.164 5.081,1.507 4.989,2.165 z m 5.45,2.394 C 11.199,5.766 10.828,7.357 9.616,8.11 8.407,8.861 6.811,8.495 6.053,7.29 5.293,6.083 5.665,4.491 6.877,3.74 8.086,2.99 9.682,3.353 10.439,4.559 z"
                   inkscape:connector-curvature="0" />
                <path
                   style="fill:url(#LinearGradient_1-69);marker-start:none;marker-end:none"
                   id="path52605"
                   d="M 5.731,2.268 3.936,15.249 c -0.014,0.122 0.031,0.387 0.077,0.466 l 11.734,18.648 c 0.069,0.109 0.292,0.213 0.532,0.064 l 14.263,-8.848 c 0.234,-0.145 0.234,-0.373 0.168,-0.478 L 18.972,6.45 C 18.924,6.377 18.701,6.219 18.576,6.175 L 6.039,2.089 C 5.829,2.02 5.758,2.077 5.731,2.268 z m 4.927,2.16 C 11.488,5.751 11.083,7.493 9.753,8.319 8.422,9.144 6.667,8.742 5.835,7.42 5.004,6.098 5.409,4.356 6.741,3.53 8.071,2.705 9.826,3.108 10.658,4.428 z"
                   inkscape:connector-curvature="0" />
                <path
                   style="fill:url(#LinearGradient_2-18);marker-start:none;marker-end:none"
                   id="path52607"
                   d="M 5.731,2.268 3.936,15.249 c -0.014,0.122 0.031,0.387 0.077,0.466 l 11.734,18.648 c 0.069,0.109 0.292,0.213 0.532,0.064 l 14.263,-8.848 c 0.234,-0.145 0.234,-0.373 0.168,-0.478 L 18.972,6.45 C 18.924,6.377 18.701,6.219 18.576,6.175 L 6.039,2.089 C 5.829,2.02 5.758,2.077 5.731,2.268 z m 0.656,0.723 1.29,0.421 c 0.914,-0.205 1.889,0.099 2.519,0.82 l 8.112,2.644 0.079,0.053 11.454,18.2 L 16.162,33.615 4.697,15.394 4.683,15.307 5.846,6.889 C 5.497,6.032 5.644,5.062 6.199,4.348 L 6.387,2.991 z"
                   inkscape:connector-curvature="0" />
              </g>
              <g
                 id="Group_5">
                <g
                   stroke-miterlimit="79.8403193612775"
                   id="Group_6"
                   style="fill:#5a3a09">
                  <g
                     id="Group_7"
                     style="fill-opacity:0.07450998">
                    <path
                       id="path52612"
                       d="M 21.289,7.373 5.37,20.419 6.59,22.387 22.944,10.044 21.289,7.373 z"
                       inkscape:connector-curvature="0"
                       style="fill-opacity:0.07450998;marker-start:none;marker-end:none" />
                  </g>
                  <path
                     id="path52614"
                     d="M 21.528,7.758 5.645,20.865 6.59,22.387 22.944,10.044 21.528,7.758 z"
                     inkscape:connector-curvature="0"
                     style="fill-opacity:0.10980398;marker-start:none;marker-end:none" />
                  <path
                     id="path52616"
                     d="M 21.765,8.14 5.949,21.352 6.59,22.387 22.944,10.044 21.765,8.14 z"
                     inkscape:connector-curvature="0"
                     style="fill-opacity:0.21960802;marker-start:none;marker-end:none" />
                </g>
                <g
                   id="Group_8">
                  <path
                     id="path52619"
                     stroke-miterlimit="79.8403193612775"
                     d="M 30.172,8.469 9.026,26.366 5.622,22.272 26.768,4.374 l 2.298,-1.171 2.65,3.184 -1.544,2.082 z"
                     inkscape:connector-curvature="0"
                     style="fill:#af5b02;stroke-width:0.067;marker-start:none;marker-end:none" />
                  <path
                     style="fill:url(#LinearGradient_3-911);stroke-width:0.067;marker-start:none;marker-end:none"
                     id="path52621"
                     stroke-miterlimit="79.8403193612775"
                     d="m 6.814,23.466 22,-18.621 C 28.922,4.557 28.619,4.64 27.729,4.529 L 6.241,22.717 6.814,23.466 z"
                     inkscape:connector-curvature="0" />
                  <path
                     style="fill:url(#LinearGradient_4-86);stroke-width:0.067;marker-start:none;marker-end:none"
                     id="path52623"
                     stroke-miterlimit="79.8403193612775"
                     d="M 7.717,24.903 29.93,6.102 28.854,4.809 6.641,23.61 7.717,24.903 z"
                     inkscape:connector-curvature="0" />
                  <path
                     id="path52625"
                     stroke-miterlimit="79.8403193612775"
                     d="M 33.565,3.908 35.25,0.683 31.808,1.797 33.565,3.908 z"
                     inkscape:connector-curvature="0"
                     style="fill:#2f2c28;stroke-width:0.067;marker-start:none;marker-end:none" />
                  <path
                     style="fill:url(#LinearGradient_5-350);stroke-width:0.067;marker-start:none;marker-end:none"
                     id="path52627"
                     stroke-miterlimit="79.8403193612775"
                     d="M 29.807,5.785 7.465,24.695 7.941,25.191 30.282,6.282 29.807,5.785 z"
                     inkscape:connector-curvature="0" />
                  <path
                     style="fill:url(#LinearGradient_6-91);stroke-width:0.067;marker-start:none;marker-end:none"
                     id="path52629"
                     stroke-miterlimit="79.8403193612775"
                     d="m 8.164,24.892 22,-18.62 C 30.463,6.214 30.451,6.4 30.406,7.304 L 9.261,25.202 8.164,24.892 z"
                     inkscape:connector-curvature="0" />
                  <path
                     style="fill:url(#LinearGradient_7-0);stroke-width:0.067;marker-start:none;marker-end:none"
                     id="path52631"
                     stroke-miterlimit="79.8403193612775"
                     d="m 31.809,1.776 1.758,2.109 -3.395,4.584 C 29.768,8.422 30.433,7.471 30.245,7.244 30.056,7.016 29.145,7.269 28.848,6.876 28.502,6.421 28.353,4.968 28.164,4.742 27.973,4.515 26.931,5.01 26.767,4.374 l 5.042,-2.598 z"
                     inkscape:connector-curvature="0" />
                  <path
                     style="fill:url(#LinearGradient_8-82);stroke-width:0.067;marker-start:none;marker-end:none"
                     id="path52633"
                     stroke-miterlimit="79.8403193612775"
                     d="m 32.934,3.854 -2.342,3 C 30.673,6.618 29.816,6.583 29.477,6.367 28.735,5.895 29.266,4.351 28.213,4.267 l 3.754,-1.763 0.967,1.35 z"
                     inkscape:connector-curvature="0" />
                  <path
                     id="path52635"
                     stroke-miterlimit="79.8403193612775"
                     d="M 33.064,3.307 30.457,6.528 C 30.328,6.512 29.684,6.606 29.416,6.378 28.967,5.994 28.957,5.279 28.883,4.679 l 3.424,-2.282 0.757,0.91 z"
                     inkscape:connector-curvature="0"
                     style="fill:#d7af6a;stroke-width:0.067;marker-start:none;marker-end:none" />
                  <path
                     id="path52637"
                     stroke-miterlimit="79.8403193612775"
                     d="M 4.967,29.802 7.745,27.451 C 6.133,27.264 4.241,24.989 4.339,23.357 l -2.777,2.35 c -0.477,1.178 1.9,4.329 3.405,4.095 z"
                     inkscape:connector-curvature="0"
                     style="fill:#a94b6a;stroke-width:0.067;marker-start:none;marker-end:none" />
                  <path
                     style="fill:url(#LinearGradient_9-268);stroke-width:0.067;marker-start:none;marker-end:none"
                     id="path52639"
                     stroke-miterlimit="79.8403193612775"
                     d="m 4.208,24.454 -1.962,1.651 0.004,0.064 c 0.014,0.105 0.051,0.257 0.135,0.463 0.151,0.374 0.409,0.803 0.733,1.204 0.543,0.673 1.079,1.051 1.439,1.178 L 4.695,29.05 6.663,27.396 C 5.635,26.832 4.586,25.572 4.208,24.454 z"
                     inkscape:connector-curvature="0" />
                  <path
                     style="fill:url(#LinearGradient_10-97);stroke-width:0.067;marker-start:none;marker-end:none"
                     id="path52641"
                     stroke-miterlimit="79.8403193612775"
                     d="m 7.53,27.632 2.777,-2.351 C 8.697,25.095 6.805,22.821 6.902,21.188 l -2.776,2.35 c -0.478,1.178 1.899,4.329 3.404,4.094 z"
                     inkscape:connector-curvature="0" />
                  <path
                     style="fill:url(#LinearGradient_11-789);stroke-width:0.067;marker-start:none;marker-end:none"
                     id="path52643"
                     stroke-miterlimit="79.8403193612775"
                     d="m 6.408,22.583 -1.6,1.354 0.005,0.064 c 0.015,0.104 0.052,0.257 0.135,0.462 0.152,0.374 0.41,0.803 0.733,1.204 0.543,0.673 1.08,1.051 1.44,1.178 L 7.259,26.88 8.858,25.528 8.723,25.45 C 7.754,24.83 6.897,23.799 6.461,22.73 L 6.408,22.583 z"
                     inkscape:connector-curvature="0" />
                  <path
                     id="path52645"
                     stroke-miterlimit="79.8403193612775"
                     d="m 33.068,3.295 1.326,-1.89 -2.069,1.015 0.743,0.875 z"
                     inkscape:connector-curvature="0"
                     style="fill:#afafaf;stroke-width:0.067;marker-start:none;marker-end:none" />
                  <path
                     id="path52647"
                     stroke-miterlimit="79.8403193612775"
                     d="m 32.759,2.97 -3.05,3.4 C 29.307,6.459 29.338,5.77 29.054,5.295 l 3.481,-2.575 0.224,0.25 z"
                     inkscape:connector-curvature="0"
                     style="fill:#f5dbad;stroke-width:0.122;marker-start:none;marker-end:none" />
                </g>
              </g>
            </g>
          </g>
        </g>
      </g>
    </g>
  </g>
</svg>
