<?xml version="1.0" encoding="UTF-8"?>
<!DOCTYPE svg PUBLIC "-//W3C//DTD SVG 1.1//EN" "http://www.w3.org/Graphics/SVG/1.1/DTD/svg11.dtd">
<!-- Creator: CorelDRAW -->
<svg xmlns="http://www.w3.org/2000/svg" xml:space="preserve" width="48px" height="48px" style="shape-rendering:geometricPrecision; text-rendering:geometricPrecision; image-rendering:optimizeQuality; fill-rule:evenodd; clip-rule:evenodd"
viewBox="0 0 48 48"
 xmlns:xlink="http://www.w3.org/1999/xlink">
 <defs>
  <style type="text/css">
   <![CDATA[
    .fil22 {fill:none}
    .fil53 {fill:white}
    .fil14 {fill:#C9C9C9}
    .fil30 {fill:white}
    .fil25 {fill:white;fill-rule:nonzero}
    .fil0 {fill:black;fill-opacity:0.000000}
    .fil31 {fill:#FFF9C9;fill-opacity:0.000000}
    .fil41 {fill:#FFF9C9;fill-opacity:0.003922}
    .fil1 {fill:black;fill-opacity:0.003922}
    .fil32 {fill:#FFF9C9;fill-opacity:0.003922}
    .fil42 {fill:#FFF9C9;fill-opacity:0.007843}
    .fil2 {fill:black;fill-opacity:0.007843}
    .fil33 {fill:#FFF9C9;fill-opacity:0.011765}
    .fil43 {fill:#FFF9C9;fill-opacity:0.011765}
    .fil3 {fill:black;fill-opacity:0.015686}
    .fil44 {fill:#FFF9C9;fill-opacity:0.015686}
    .fil34 {fill:#FFF9C9;fill-opacity:0.015686}
    .fil4 {fill:black;fill-opacity:0.019608}
    .fil45 {fill:#FFF9C9;fill-opacity:0.019608}
    .fil35 {fill:#FFF9C9;fill-opacity:0.023529}
    .fil5 {fill:black;fill-opacity:0.023529}
    .fil46 {fill:#FFF9C9;fill-opacity:0.023529}
    .fil47 {fill:#FFF9C9;fill-opacity:0.027451}
    .fil6 {fill:black;fill-opacity:0.027451}
    .fil36 {fill:#FFF9C9;fill-opacity:0.027451}
    .fil48 {fill:#FFF9C9;fill-opacity:0.031373}
    .fil7 {fill:black;fill-opacity:0.031373}
    .fil37 {fill:#FFF9C9;fill-opacity:0.031373}
    .fil49 {fill:#FFF9C9;fill-opacity:0.035294}
    .fil8 {fill:black;fill-opacity:0.035294}
    .fil50 {fill:#FFF9C9;fill-opacity:0.039216}
    .fil38 {fill:#FFF9C9;fill-opacity:0.039216}
    .fil9 {fill:black;fill-opacity:0.043137}
    .fil51 {fill:#FFF9C9;fill-opacity:0.043137}
    .fil39 {fill:#FFF9C9;fill-opacity:0.043137}
    .fil10 {fill:black;fill-opacity:0.047059}
    .fil52 {fill:#FFF9C9;fill-opacity:0.047059}
    .fil40 {fill:#FFF9C9;fill-opacity:0.050980}
    .fil11 {fill:black;fill-opacity:0.050980}
    .fil12 {fill:black;fill-opacity:0.054902}
    .fil13 {fill:black;fill-opacity:0.058824}
    .fil24 {fill:#B2B2B2;fill-rule:nonzero;fill-opacity:0.121569}
    .fil20 {fill:black;fill-opacity:0.219608}
    .fil19 {fill:#4A7FB8;fill-opacity:0.219608}
    .fil21 {fill:#A0DFFF;fill-opacity:0.219608}
    .fil15 {fill:#A4A5A7;fill-opacity:0.439216}
    .fil27 {fill:#CCCCCC;fill-opacity:0.439216}
    .fil23 {fill:#D1CFCF;fill-rule:nonzero;fill-opacity:0.501961}
    .fil29 {fill:url(#id0)}
    .fil17 {fill:url(#id1)}
    .fil18 {fill:url(#id2)}
    .fil16 {fill:url(#id3)}
    .fil26 {fill:url(#id4);fill-rule:nonzero}
    .fil28 {fill:url(#id5);fill-rule:nonzero}
   ]]>
  </style>
  <linearGradient id="id0" gradientUnits="userSpaceOnUse" x1="23.9126" y1="43.7055" x2="23.9126" y2="10.5638">
   <stop offset="0" style="stop-color:#7F7F7F"/>
   <stop offset="1" style="stop-color:#999999"/>
  </linearGradient>
  <linearGradient id="id1" gradientUnits="userSpaceOnUse" x1="24.3449" y1="6.61417" x2="23.4673" y2="24.3886">
   <stop offset="0" style="stop-color:#EDEDED"/>
   <stop offset="1" style="stop-color:#D1CFCF"/>
  </linearGradient>
  <linearGradient id="id2" gradientUnits="userSpaceOnUse" x1="24.0496" y1="40.8283" x2="23.7756" y2="13.4409">
   <stop offset="0" style="stop-color:#2E2E2E"/>
   <stop offset="1" style="stop-color:#4A4A4A"/>
  </linearGradient>
  <linearGradient id="id3" gradientUnits="userSpaceOnUse" x1="24.1618" y1="34.1008" x2="23.9504" y2="19.7445">
   <stop offset="0" style="stop-color:#B0B0B0"/>
   <stop offset="1" style="stop-color:#BEBEBE"/>
  </linearGradient>
  <linearGradient id="id4" gradientUnits="userSpaceOnUse" x1="2.04094" y1="43.4976" x2="2.89724" y2="12.5421">
   <stop offset="0" style="stop-color:#B8B8B8"/>
   <stop offset="1" style="stop-color:white"/>
  </linearGradient>
  <linearGradient id="id5" gradientUnits="userSpaceOnUse" xlink:href="#id0" x1="24.0402" y1="46.5921" x2="24.0402" y2="5.30315">
  </linearGradient>
 </defs>
 <g id="Слой_x0020_1">
  <metadata id="CorelCorpID_0Corel-Layer"/>
  <g id="_65669544">
   <path id="_65856152" class="fil0" d="M22.9866 41.0161c23.2181,-0.930709 26.3504,2.65866 26.4508,5.57126 0.101575,2.91378 -12.0449,1.25669 -25.5815,1.75984 -13.5366,0.501969 -24.952,0.925984 -24.952,-1.23307 0,-2.16024 0.864567,-5.16732 24.0827,-6.09803z"/>
   <g>
    <path id="_65662624" class="fil1" d="M23.0409 41.3752c22.2331,-0.859843 26.0764,2.53701 26.1697,5.27835 0.0933071,2.69764 -11.9776,1.17165 -25.3323,1.63701 -13.3547,0.462992 -24.7512,0.850394 -24.7512,-1.15039 0,-2.04685 1.68071,-4.9063 23.9138,-5.76496z"/>
    <path id="_61083296" class="fil2" d="M23.0941 41.7319c21.248,-0.787795 25.8035,2.41654 25.8886,4.98543 0.0862205,2.48268 -11.9114,1.08898 -25.0831,1.51417 -13.1728,0.425197 -24.5516,0.775984 -24.5516,-1.06654 0,-1.93228 2.49685,-4.64528 23.7461,-5.43307z"/>
    <path id="_58093768" class="fil3" d="M23.1461 42.0909c20.2642,-0.716929 25.5307,2.29606 25.6087,4.69252 0.0779528,2.26654 -11.8441,1.00394 -24.835,1.39134 -12.9909,0.38622 -24.3508,0.700394 -24.3508,-0.983858 0,-1.8189 3.31299,-4.38425 23.5772,-5.1z"/>
    <path id="_63720872" class="fil4" d="M23.1992 42.4488c19.278,-0.643701 25.2579,2.17559 25.3276,4.40079 0.069685,2.05039 -11.778,0.920079 -24.5858,1.2685 -12.8102,0.347244 -24.1512,0.624803 -24.1512,-0.902362 0,-1.70315 4.12795,-4.12205 23.4094,-4.76693z"/>
    <path id="_47828832" class="fil5" d="M23.2512 42.8079c18.2941,-0.572835 24.985,2.05394 25.0476,4.10669 0.0625984,1.83543 -11.7106,0.83622 -24.3378,1.14567 -12.6272,0.309449 -23.9504,0.550394 -23.9504,-0.818504 0,-1.58976 4.94409,-3.86102 23.2406,-4.43386z"/>
    <path id="_65107240" class="fil6" d="M23.3031 43.1657c17.3102,-0.500787 24.7134,1.93346 24.7677,3.81496 0.0543307,1.61929 -11.6433,0.752362 -24.0886,1.02283 -12.4465,0.270472 -23.7508,0.474803 -23.7508,-0.735827 0,-1.47638 5.76024,-3.6 23.0717,-4.10197z"/>
    <path id="_59928560" class="fil7" d="M23.3563 43.5248c16.3252,-0.429921 24.4394,1.81299 24.4854,3.52205 0.0472441,1.40433 -11.576,0.667323 -23.8406,0.9 -12.2634,0.231496 -23.5488,0.398031 -23.5488,-0.65315 0,-1.36181 6.57638,-3.34016 22.9039,-3.7689z"/>
    <path id="_58117928" class="fil8" d="M23.4083 43.8827c15.3413,-0.357874 24.1677,1.69252 24.2055,3.23031 0.0389764,1.18819 -11.5087,0.583465 -23.5913,0.777165 -12.0827,0.19252 -23.3492,0.322441 -23.3492,-0.570472 0,-1.24843 7.39252,-3.07913 22.735,-3.43701z"/>
    <path id="_44204680" class="fil9" d="M23.4602 44.2417c14.3575,-0.287008 23.8949,1.57087 23.9256,2.93622 0.0318898,0.973228 -11.4413,0.499606 -23.3433,0.654331 -11.8996,0.154724 -23.1484,0.248031 -23.1484,-0.486614 0,-1.13504 8.20866,-2.81811 22.5661,-3.10394z"/>
    <path id="_58111632" class="fil10" d="M23.5134 44.5996c13.3713,-0.21378 23.622,1.45039 23.6445,2.64449 0.023622,0.757087 -11.3752,0.415748 -23.0941,0.531496 -11.7189,0.115748 -22.9488,0.172441 -22.9488,-0.405118 0,-1.01929 9.02362,-2.55591 22.3984,-2.77087z"/>
    <path id="_63393248" class="fil11" d="M23.5654 44.9587c12.3874,-0.142913 23.3492,1.32992 23.3646,2.35157 0.0153543,0.540945 -11.3079,0.330709 -22.8461,0.408661 -11.537,0.0767717 -22.748,0.0968504 -22.748,-0.322441 0,-0.905906 9.83976,-2.29488 22.2295,-2.4378z"/>
    <path id="_62750976" class="fil12" d="M23.6185 45.3154c11.4024,-0.0708661 23.0764,1.20945 23.0835,2.05866 0.00826772,0.325984 -11.2417,0.248031 -22.5969,0.285827 -11.3551,0.0389764 -22.5484,0.0224409 -22.5484,-0.238583 0,-0.791339 10.6559,-2.03386 22.0618,-2.10591z"/>
   </g>
   <path id="_64296832" class="fil13" d="M23.6681 45.6768c10.4197,0 22.8047,1.0878 22.8047,1.76575 0,0.220866 -44.6976,0.212598 -44.6976,0.00708661 0,-0.677953 11.472,-1.77283 21.8929,-1.77283z"/>
  </g>
  <path class="fil14" d="M3.02953 5.76614l41.8736 0.0755906c1.46693,0 2.45079,0.688583 2.43071,2.39055l-0.0413386 3.22795 -46.4622 0 0 -3.22795c0,-1.35472 0.778346,-2.53819 2.19921,-2.46614z"/>
  <path class="fil15" d="M0.869291 7.84606c0.333071,-0.362598 0.509055,-0.91063 1.04291,-0.980315l0.367323 0.804331 -1.57205 1.95118 0.161811 -1.7752z"/>
  <path class="fil16" d="M3.16772 7.32047l41.7756 0c1.27795,0 2.32441,1.05118 2.32441,2.32441l0 34.5555c0,1.27559 -1.04764,2.32441 -2.32441,2.32441 -15.3083,0 -15.665,0 -41.7756,0 -1.27559,0 -2.32441,-1.04528 -2.32441,-2.32441l0 -34.5555c0,-1.27795 1.04646,-2.32441 2.32441,-2.32441z"/>
  <path class="fil17" d="M47.1177 20.674c-10.2484,3.15827 -34.6748,2.32913 -46.4232,1.70433l0 -12.8846c0,-1.27795 1.04528,-2.32323 2.32323,-2.32323l41.7756 0c1.27913,0 2.32441,1.05118 2.32441,2.32323l0 11.1803z"/>
  <path class="fil18" d="M2.90315 12.0331l0.115748 30.3071c0.0779528,0.985039 1.32165,1.70315 2.21102,1.69961l37.7776 -0.122835c1.28386,-0.0366142 1.87087,-0.897638 1.91457,-2.02795l-0.0389764 -29.7815c0,-1.19055 -0.709843,-1.84016 -1.9878,-1.84134l-37.9122 -0.0389764c-1.18937,-0.0011811 -2.07992,0.623622 -2.07992,1.80591z"/>
  <path class="fil19" d="M42.124 14.0717l-1.00866 0 0 -0.988583 1.00866 0 0 0.988583zm-1.96299 -0.0507874l-1.01575 0 0 -0.937795 1.01575 0 0 0.937795zm-2.04213 0.127559l-1.05472 0 0 -1.05591 1.05472 0 0 1.05591zm-2.00906 -0.0507874l-1.01575 0 0 -1.01339 1.01575 0 0 1.01339zm-1.97598 -0.0259843l-1.05472 0 0 -0.988583 1.05472 0 0 0.988583zm-2.00906 -0.0507874l-1.01575 0 0 -0.937795 1.01575 0 0 0.937795zm-1.99252 0.127559l-1.05472 0 0 -1.05591 1.05472 0 0 1.05591zm-2.00906 -0.0507874l-1.01575 0 0 -1.01339 1.01575 0 0 1.01339zm-1.97598 -0.0259843l-1.05472 0 0 -0.988583 1.05472 0 0 0.988583zm-2.00906 -0.0507874l-1.01575 0 0 -0.937795 1.01575 0 0 0.937795zm-2.04213 0.127559l-1.05472 0 0 -1.05591 1.05472 0 0 1.05591zm-2.00906 -0.0507874l-1.01575 0 0 -1.01339 1.01575 0 0 1.01339zm-1.97598 -0.0259843l-1.05472 0 0 -0.988583 1.05472 0 0 0.988583zm-2.00906 -0.0507874l-1.01575 0 0 -0.937795 1.01575 0 0 0.937795zm-1.91575 -0.0259843l-1.05472 0 0 -0.911811 1.05472 0 0 0.911811zm-2.00906 -0.0507874l-1.01575 0 0 -0.861024 1.01575 0 0 0.861024zm-1.97598 -0.0259843l-1.05472 0 0 -0.835039 1.05472 0 0 0.835039zm-2.00906 -0.0507874l-1.01575 0 0 -0.784252 1.01575 0 0 0.784252zm-2.04213 0.127559l-0.226772 0 0 -0.911811 0.226772 0 0 0.911811zm9.92598 22.2272l-1.01575 0 0 -1.01339 1.01575 0 0 1.01339zm0 -16.1209l-1.01575 0 0 -1.01339 1.01575 0 0 1.01339zm16.0228 0l-1.01575 0 0 -1.01339 1.01575 0 0 1.01339zm8.03622 0l-1.01575 0 0 -1.01339 1.01575 0 0 1.01339zm0 8.09055l-1.01575 0 0 -1.01339 1.01575 0 0 1.01339zm-0.0248031 -4.04528l-1.01575 0 0 -1.01339 1.01575 0 0 1.01339zm2.01378 2.11181l-1.00866 0 0 -1.05591 1.00866 0 0 1.05591zm-1.96299 -0.0507874l-1.01575 0 0 -1.01339 1.01575 0 0 1.01339zm1.95827 -2.01024l-1.05472 0 0 -1.05591 1.05472 0 0 1.05591zm0.00472441 6.1063l-0.983858 0 0 -1.05591 0.983858 0 0 1.05591zm-1.93819 -0.0507874l-1.01575 0 0 -1.01339 1.01575 0 0 1.01339zm1.93819 -2.01024l-1.03465 0 0 -1.05591 1.03465 0 0 1.05591zm-2.01378 -12.1866l-1.01575 0 0 -1.01339 1.01575 0 0 1.01339zm2.01378 2.11181l-1.00866 0 0 -1.05591 1.00866 0 0 1.05591zm-1.96299 -0.0507874l-1.01575 0 0 -1.01339 1.01575 0 0 1.01339zm1.95827 -2.01024l-1.05472 0 0 -1.05591 1.05472 0 0 1.05591zm0.00472441 6.1063l-0.983858 0 0 -1.05591 0.983858 0 0 1.05591zm-1.93819 -0.0507874l-1.01575 0 0 -1.01339 1.01575 0 0 1.01339zm1.93819 -2.01024l-1.03465 0 0 -1.05591 1.03465 0 0 1.05591zm-10.0252 8.03976l-1.01575 0 0 -1.01339 1.01575 0 0 1.01339zm-0.0248031 -4.04528l-1.01575 0 0 -1.01339 1.01575 0 0 1.01339zm3.98504 0.0767717l-1.01575 0 0 -1.01339 1.01575 0 0 1.01339zm2.05984 2.11181l-1.05472 0 0 -1.05591 1.05472 0 0 1.05591zm-2.00906 -0.0507874l-1.01575 0 0 -1.01339 1.01575 0 0 1.01339zm1.95827 -2.01024l-1.05472 0 0 -1.05591 1.05472 0 0 1.05591zm-3.93425 1.98425l-1.05472 0 0 -1.05591 1.05472 0 0 1.05591zm-2.00906 -0.0507874l-1.01575 0 0 -1.01339 1.01575 0 0 1.01339zm1.95827 -2.01024l-1.05472 0 0 -1.05591 1.05472 0 0 1.05591zm2.00079 4.07126l-1.01575 0 0 -1.01339 1.01575 0 0 1.01339zm2.05984 2.11181l-1.05472 0 0 -1.05591 1.05472 0 0 1.05591zm-2.00906 -0.0507874l-1.01575 0 0 -1.01339 1.01575 0 0 1.01339zm1.95827 -2.01024l-1.05472 0 0 -1.05591 1.05472 0 0 1.05591zm-3.93425 1.98425l-1.05472 0 0 -1.05591 1.05472 0 0 1.05591zm-2.00906 -0.0507874l-1.01575 0 0 -1.01339 1.01575 0 0 1.01339zm1.95827 -2.01024l-1.05472 0 0 -1.05591 1.05472 0 0 1.05591zm-2.03386 -12.1866l-1.01575 0 0 -1.01339 1.01575 0 0 1.01339zm3.98504 0.0767717l-1.01575 0 0 -1.01339 1.01575 0 0 1.01339zm2.05984 2.11181l-1.05472 0 0 -1.05591 1.05472 0 0 1.05591zm-2.00906 -0.0507874l-1.01575 0 0 -1.01339 1.01575 0 0 1.01339zm1.95827 -2.01024l-1.05472 0 0 -1.05591 1.05472 0 0 1.05591zm-3.93425 1.98425l-1.05472 0 0 -1.05591 1.05472 0 0 1.05591zm-2.00906 -0.0507874l-1.01575 0 0 -1.01339 1.01575 0 0 1.01339zm1.95827 -2.01024l-1.05472 0 0 -1.05591 1.05472 0 0 1.05591zm2.00079 4.07126l-1.01575 0 0 -1.01339 1.01575 0 0 1.01339zm2.05984 2.11181l-1.05472 0 0 -1.05591 1.05472 0 0 1.05591zm-2.00906 -0.0507874l-1.01575 0 0 -1.01339 1.01575 0 0 1.01339zm1.95827 -2.01024l-1.05472 0 0 -1.05591 1.05472 0 0 1.05591zm-3.93425 1.98425l-1.05472 0 0 -1.05591 1.05472 0 0 1.05591zm-2.00906 -0.0507874l-1.01575 0 0 -1.01339 1.01575 0 0 1.01339zm1.95827 -2.01024l-1.05472 0 0 -1.05591 1.05472 0 0 1.05591zm-9.99567 -0.0507874l-1.01575 0 0 -1.01339 1.01575 0 0 1.01339zm0 8.09055l-1.01575 0 0 -1.01339 1.01575 0 0 1.01339zm-0.0248031 -4.04528l-1.01575 0 0 -1.01339 1.01575 0 0 1.01339zm3.98504 0.0767717l-1.01575 0 0 -1.01339 1.01575 0 0 1.01339zm2.05984 2.11181l-1.05472 0 0 -1.05591 1.05472 0 0 1.05591zm-2.00906 -0.0507874l-1.01575 0 0 -1.01339 1.01575 0 0 1.01339zm1.95827 -2.01024l-1.05472 0 0 -1.05591 1.05472 0 0 1.05591zm-3.93425 1.98425l-1.05472 0 0 -1.05591 1.05472 0 0 1.05591zm-2.00906 -0.0507874l-1.01575 0 0 -1.01339 1.01575 0 0 1.01339zm1.95827 -2.01024l-1.05472 0 0 -1.05591 1.05472 0 0 1.05591zm2.00079 4.07126l-1.01575 0 0 -1.01339 1.01575 0 0 1.01339zm2.05984 2.11181l-1.05472 0 0 -1.05591 1.05472 0 0 1.05591zm-2.00906 -0.0507874l-1.01575 0 0 -1.01339 1.01575 0 0 1.01339zm1.95827 -2.01024l-1.05472 0 0 -1.05591 1.05472 0 0 1.05591zm-3.93425 1.98425l-1.05472 0 0 -1.05591 1.05472 0 0 1.05591zm-2.00906 -0.0507874l-1.01575 0 0 -1.01339 1.01575 0 0 1.01339zm1.95827 -2.01024l-1.05472 0 0 -1.05591 1.05472 0 0 1.05591zm-2.03386 -12.1866l-1.01575 0 0 -1.01339 1.01575 0 0 1.01339zm3.98504 0.0767717l-1.01575 0 0 -1.01339 1.01575 0 0 1.01339zm2.05984 2.11181l-1.05472 0 0 -1.05591 1.05472 0 0 1.05591zm-2.00906 -0.0507874l-1.01575 0 0 -1.01339 1.01575 0 0 1.01339zm1.95827 -2.01024l-1.05472 0 0 -1.05591 1.05472 0 0 1.05591zm-3.93425 1.98425l-1.05472 0 0 -1.05591 1.05472 0 0 1.05591zm-2.00906 -0.0507874l-1.01575 0 0 -1.01339 1.01575 0 0 1.01339zm1.95827 -2.01024l-1.05472 0 0 -1.05591 1.05472 0 0 1.05591zm2.00079 4.07126l-1.01575 0 0 -1.01339 1.01575 0 0 1.01339zm2.05984 2.11181l-1.05472 0 0 -1.05591 1.05472 0 0 1.05591zm-2.00906 -0.0507874l-1.01575 0 0 -1.01339 1.01575 0 0 1.01339zm1.95827 -2.01024l-1.05472 0 0 -1.05591 1.05472 0 0 1.05591zm-3.93425 1.98425l-1.05472 0 0 -1.05591 1.05472 0 0 1.05591zm-2.00906 -0.0507874l-1.01575 0 0 -1.01339 1.01575 0 0 1.01339zm1.95827 -2.01024l-1.05472 0 0 -1.05591 1.05472 0 0 1.05591zm-10.0453 8.03976l-1.01575 0 0 -1.01339 1.01575 0 0 1.01339zm-0.0248031 -4.04528l-1.01575 0 0 -1.01339 1.01575 0 0 1.01339zm3.98504 0.0767717l-1.01575 0 0 -1.01339 1.01575 0 0 1.01339zm2.05984 2.11181l-1.05472 0 0 -1.05591 1.05472 0 0 1.05591zm-2.00906 -0.0507874l-1.01575 0 0 -1.01339 1.01575 0 0 1.01339zm1.95827 -2.01024l-1.05472 0 0 -1.05591 1.05472 0 0 1.05591zm-3.93425 1.98425l-1.05472 0 0 -1.05591 1.05472 0 0 1.05591zm-2.00906 -0.0507874l-1.01575 0 0 -1.01339 1.01575 0 0 1.01339zm1.95827 -2.01024l-1.05472 0 0 -1.05591 1.05472 0 0 1.05591zm2.00079 4.07126l-1.01575 0 0 -1.01339 1.01575 0 0 1.01339zm2.05984 2.11181l-1.05472 0 0 -1.05591 1.05472 0 0 1.05591zm-2.00906 -0.0507874l-1.01575 0 0 -1.01339 1.01575 0 0 1.01339zm1.95827 -2.01024l-1.05472 0 0 -1.05591 1.05472 0 0 1.05591zm-3.93425 1.98425l-1.05472 0 0 -1.05591 1.05472 0 0 1.05591zm-2.00906 -0.0507874l-1.01575 0 0 -1.01339 1.01575 0 0 1.01339zm1.95827 -2.01024l-1.05472 0 0 -1.05591 1.05472 0 0 1.05591zm-2.03386 -12.1866l-1.01575 0 0 -1.01339 1.01575 0 0 1.01339zm3.98504 0.0767717l-1.01575 0 0 -1.01339 1.01575 0 0 1.01339zm2.05984 2.11181l-1.05472 0 0 -1.05591 1.05472 0 0 1.05591zm-2.00906 -0.0507874l-1.01575 0 0 -1.01339 1.01575 0 0 1.01339zm1.95827 -2.01024l-1.05472 0 0 -1.05591 1.05472 0 0 1.05591zm-3.93425 1.98425l-1.05472 0 0 -1.05591 1.05472 0 0 1.05591zm-2.00906 -0.0507874l-1.01575 0 0 -1.01339 1.01575 0 0 1.01339zm1.95827 -2.01024l-1.05472 0 0 -1.05591 1.05472 0 0 1.05591zm2.00079 4.07126l-1.01575 0 0 -1.01339 1.01575 0 0 1.01339zm2.05984 2.11181l-1.05472 0 0 -1.05591 1.05472 0 0 1.05591zm-2.00906 -0.0507874l-1.01575 0 0 -1.01339 1.01575 0 0 1.01339zm1.95827 -2.01024l-1.05472 0 0 -1.05591 1.05472 0 0 1.05591zm-3.93425 1.98425l-1.05472 0 0 -1.05591 1.05472 0 0 1.05591zm-2.00906 -0.0507874l-1.01575 0 0 -1.01339 1.01575 0 0 1.01339zm1.95827 -2.01024l-1.05472 0 0 -1.05591 1.05472 0 0 1.05591zm14.0138 16.0701l-1.01575 0 0 -1.01339 1.01575 0 0 1.01339zm8.03622 0l-1.01575 0 0 -1.01339 1.01575 0 0 1.01339zm-0.0248031 4.04528l-1.01575 0 0 -1.01339 1.01575 0 0 1.01339zm2.00906 0.0507874l-1.05472 0 0 -1.05591 1.05472 0 0 1.05591zm-2.00906 -8.14134l-1.01575 0 0 -1.01339 1.01575 0 0 1.01339zm2.01378 2.11181l-1.00866 0 0 -1.05591 1.00866 0 0 1.05591zm-1.96299 -0.0507874l-1.01575 0 0 -1.01339 1.01575 0 0 1.01339zm1.95827 -2.01024l-1.05472 0 0 -1.05591 1.05472 0 0 1.05591zm0.00472441 6.1063l-0.983858 0 0 -1.05591 0.983858 0 0 1.05591zm-1.93819 -0.0507874l-1.01575 0 0 -1.01339 1.01575 0 0 1.01339zm1.93819 -2.01024l-1.03465 0 0 -1.05591 1.03465 0 0 1.05591zm-10.05 3.99449l-1.01575 0 0 -1.01339 1.01575 0 0 1.01339zm3.98504 0.0767717l-1.01575 0 0 -1.01339 1.01575 0 0 1.01339zm2.00906 0.0507874l-1.05472 0 0 -1.05591 1.05472 0 0 1.05591zm-3.98504 -0.0767717l-1.05472 0 0 -1.05591 1.05472 0 0 1.05591zm-2.00906 -8.14134l-1.01575 0 0 -1.01339 1.01575 0 0 1.01339zm3.98504 0.0767717l-1.01575 0 0 -1.01339 1.01575 0 0 1.01339zm2.05984 2.11181l-1.05472 0 0 -1.05591 1.05472 0 0 1.05591zm-2.00906 -0.0507874l-1.01575 0 0 -1.01339 1.01575 0 0 1.01339zm1.95827 -2.01024l-1.05472 0 0 -1.05591 1.05472 0 0 1.05591zm-3.93425 1.98425l-1.05472 0 0 -1.05591 1.05472 0 0 1.05591zm-2.00906 -0.0507874l-1.01575 0 0 -1.01339 1.01575 0 0 1.01339zm1.95827 -2.01024l-1.05472 0 0 -1.05591 1.05472 0 0 1.05591zm2.00079 4.07126l-1.01575 0 0 -1.01339 1.01575 0 0 1.01339zm2.05984 2.11181l-1.05472 0 0 -1.05591 1.05472 0 0 1.05591zm-2.00906 -0.0507874l-1.01575 0 0 -1.01339 1.01575 0 0 1.01339zm1.95827 -2.01024l-1.05472 0 0 -1.05591 1.05472 0 0 1.05591zm-3.93425 1.98425l-1.05472 0 0 -1.05591 1.05472 0 0 1.05591zm-2.00906 -0.0507874l-1.01575 0 0 -1.01339 1.01575 0 0 1.01339zm1.95827 -2.01024l-1.05472 0 0 -1.05591 1.05472 0 0 1.05591zm-9.99567 -0.0507874l-1.01575 0 0 -1.01339 1.01575 0 0 1.01339zm-0.0248031 4.04528l-1.01575 0 0 -1.01339 1.01575 0 0 1.01339zm3.98504 0.0767717l-1.01575 0 0 -1.01339 1.01575 0 0 1.01339zm2.00906 0.0507874l-1.05472 0 0 -1.05591 1.05472 0 0 1.05591zm-3.98504 -0.0767717l-1.05472 0 0 -1.05591 1.05472 0 0 1.05591zm-2.00906 -8.14134l-1.01575 0 0 -1.01339 1.01575 0 0 1.01339zm3.98504 0.0767717l-1.01575 0 0 -1.01339 1.01575 0 0 1.01339zm2.05984 2.11181l-1.05472 0 0 -1.05591 1.05472 0 0 1.05591zm-2.00906 -0.0507874l-1.01575 0 0 -1.01339 1.01575 0 0 1.01339zm1.95827 -2.01024l-1.05472 0 0 -1.05591 1.05472 0 0 1.05591zm-3.93425 1.98425l-1.05472 0 0 -1.05591 1.05472 0 0 1.05591zm-2.00906 -0.0507874l-1.01575 0 0 -1.01339 1.01575 0 0 1.01339zm1.95827 -2.01024l-1.05472 0 0 -1.05591 1.05472 0 0 1.05591zm2.00079 4.07126l-1.01575 0 0 -1.01339 1.01575 0 0 1.01339zm2.05984 2.11181l-1.05472 0 0 -1.05591 1.05472 0 0 1.05591zm-2.00906 -0.0507874l-1.01575 0 0 -1.01339 1.01575 0 0 1.01339zm1.95827 -2.01024l-1.05472 0 0 -1.05591 1.05472 0 0 1.05591zm-3.93425 1.98425l-1.05472 0 0 -1.05591 1.05472 0 0 1.05591zm-2.00906 -0.0507874l-1.01575 0 0 -1.01339 1.01575 0 0 1.01339zm1.95827 -2.01024l-1.05472 0 0 -1.05591 1.05472 0 0 1.05591zm-10.0701 3.99449l-1.01575 0 0 -1.01339 1.01575 0 0 1.01339zm3.98504 0.0767717l-1.01575 0 0 -1.01339 1.01575 0 0 1.01339zm2.00906 0.0507874l-1.05472 0 0 -1.05591 1.05472 0 0 1.05591zm-3.98504 -0.0767717l-1.05472 0 0 -1.05591 1.05472 0 0 1.05591zm-2.00906 -8.14134l-1.01575 0 0 -1.01339 1.01575 0 0 1.01339zm3.98504 0.0767717l-1.01575 0 0 -1.01339 1.01575 0 0 1.01339zm2.05984 2.11181l-1.05472 0 0 -1.05591 1.05472 0 0 1.05591zm-2.00906 -0.0507874l-1.01575 0 0 -1.01339 1.01575 0 0 1.01339zm1.95827 -2.01024l-1.05472 0 0 -1.05591 1.05472 0 0 1.05591zm-3.93425 1.98425l-1.05472 0 0 -1.05591 1.05472 0 0 1.05591zm-2.00906 -0.0507874l-1.01575 0 0 -1.01339 1.01575 0 0 1.01339zm1.95827 -2.01024l-1.05472 0 0 -1.05591 1.05472 0 0 1.05591zm2.00079 4.07126l-1.01575 0 0 -1.01339 1.01575 0 0 1.01339zm2.05984 2.11181l-1.05472 0 0 -1.05591 1.05472 0 0 1.05591zm-2.00906 -0.0507874l-1.01575 0 0 -1.01339 1.01575 0 0 1.01339zm1.95827 -2.01024l-1.05472 0 0 -1.05591 1.05472 0 0 1.05591zm-3.93425 1.98425l-1.05472 0 0 -1.05591 1.05472 0 0 1.05591zm-2.00906 -0.0507874l-1.01575 0 0 -1.01339 1.01575 0 0 1.01339zm1.95827 -2.01024l-1.05472 0 0 -1.05591 1.05472 0 0 1.05591zm-9.9189 -16.3252l-1.01575 0 0 -1.01339 1.01575 0 0 1.01339zm0 8.09055l-1.01575 0 0 -1.01339 1.01575 0 0 1.01339zm-0.0248031 -4.04528l-1.01575 0 0 -1.01339 1.01575 0 0 1.01339zm3.98504 0.0767717l-1.01575 0 0 -1.01339 1.01575 0 0 1.01339zm2.05984 2.11181l-1.05472 0 0 -1.05591 1.05472 0 0 1.05591zm-2.00906 -0.0507874l-1.01575 0 0 -1.01339 1.01575 0 0 1.01339zm1.95827 -2.01024l-1.05472 0 0 -1.05591 1.05472 0 0 1.05591zm-3.93425 1.98425l-1.05472 0 0 -1.05591 1.05472 0 0 1.05591zm-2.00906 -0.0507874l-1.01575 0 0 -1.01339 1.01575 0 0 1.01339zm1.95827 -2.01024l-1.05472 0 0 -1.05591 1.05472 0 0 1.05591zm2.00079 4.07126l-1.01575 0 0 -1.01339 1.01575 0 0 1.01339zm2.05984 2.11181l-1.05472 0 0 -1.05591 1.05472 0 0 1.05591zm-2.00906 -0.0507874l-1.01575 0 0 -1.01339 1.01575 0 0 1.01339zm1.95827 -2.01024l-1.05472 0 0 -1.05591 1.05472 0 0 1.05591zm-3.93425 1.98425l-1.05472 0 0 -1.05591 1.05472 0 0 1.05591zm-2.00906 -0.0507874l-1.01575 0 0 -1.01339 1.01575 0 0 1.01339zm1.95827 -2.01024l-1.05472 0 0 -1.05591 1.05472 0 0 1.05591zm-2.03386 -12.1866l-1.01575 0 0 -1.01339 1.01575 0 0 1.01339zm3.98504 0.0767717l-1.01575 0 0 -1.01339 1.01575 0 0 1.01339zm2.05984 2.11181l-1.05472 0 0 -1.05591 1.05472 0 0 1.05591zm-2.00906 -0.0507874l-1.01575 0 0 -1.01339 1.01575 0 0 1.01339zm1.95827 -2.01024l-1.05472 0 0 -1.05591 1.05472 0 0 1.05591zm-3.93425 1.98425l-1.05472 0 0 -1.05591 1.05472 0 0 1.05591zm-2.00906 -0.0507874l-1.01575 0 0 -1.01339 1.01575 0 0 1.01339zm1.95827 -2.01024l-1.05472 0 0 -1.05591 1.05472 0 0 1.05591zm2.00079 4.07126l-1.01575 0 0 -1.01339 1.01575 0 0 1.01339zm2.05984 2.11181l-1.05472 0 0 -1.05591 1.05472 0 0 1.05591zm-2.00906 -0.0507874l-1.01575 0 0 -1.01339 1.01575 0 0 1.01339zm1.95827 -2.01024l-1.05472 0 0 -1.05591 1.05472 0 0 1.05591zm-3.93425 1.98425l-1.05472 0 0 -1.05591 1.05472 0 0 1.05591zm-2.00906 -0.0507874l-1.01575 0 0 -1.01339 1.01575 0 0 1.01339zm1.95827 -2.01024l-1.05472 0 0 -1.05591 1.05472 0 0 1.05591zm-4.0252 6.18307l-0.226772 0 0 -1.05591 0.226772 0 0 1.05591zm-0.0507874 -2.06102l-0.175984 0 0 -1.05591 0.175984 0 0 1.05591zm0.0755906 6.1063l-0.251575 0 0 -1.05591 0.251575 0 0 1.05591zm-0.0507874 -2.06102l-0.200787 0 0 -1.05591 0.200787 0 0 1.05591zm0.0259843 -10.0748l-0.226772 0 0 -1.05591 0.226772 0 0 1.05591zm-0.0507874 -2.06102l-0.175984 0 0 -1.05591 0.175984 0 0 1.05591zm0.0755906 6.1063l-0.251575 0 0 -1.05591 0.251575 0 0 1.05591zm-0.0507874 -2.06102l-0.200787 0 0 -1.05591 0.200787 0 0 1.05591zm2.04213 15.9933l-1.01575 0 0 -1.01339 1.01575 0 0 1.01339zm-0.0248031 4.04528l-1.01575 0 0 -1.01339 1.01575 0 0 1.01339zm3.98504 0.0767717l-1.01575 0 0 -1.01339 1.01575 0 0 1.01339zm2.00906 0.0507874l-1.05472 0 0 -1.05591 1.05472 0 0 1.05591zm-3.98504 -0.0767717l-1.05472 0 0 -1.05591 1.05472 0 0 1.05591zm-2.00906 -8.14134l-1.01575 0 0 -1.01339 1.01575 0 0 1.01339zm3.98504 0.0767717l-1.01575 0 0 -1.01339 1.01575 0 0 1.01339zm2.05984 2.11181l-1.05472 0 0 -1.05591 1.05472 0 0 1.05591zm-2.00906 -0.0507874l-1.01575 0 0 -1.01339 1.01575 0 0 1.01339zm1.95827 -2.01024l-1.05472 0 0 -1.05591 1.05472 0 0 1.05591zm-3.93425 1.98425l-1.05472 0 0 -1.05591 1.05472 0 0 1.05591zm-2.00906 -0.0507874l-1.01575 0 0 -1.01339 1.01575 0 0 1.01339zm1.95827 -2.01024l-1.05472 0 0 -1.05591 1.05472 0 0 1.05591zm2.00079 4.07126l-1.01575 0 0 -1.01339 1.01575 0 0 1.01339zm2.05984 2.11181l-1.05472 0 0 -1.05591 1.05472 0 0 1.05591zm-2.00906 -0.0507874l-1.01575 0 0 -1.01339 1.01575 0 0 1.01339zm1.95827 -2.01024l-1.05472 0 0 -1.05591 1.05472 0 0 1.05591zm-3.93425 1.98425l-1.05472 0 0 -1.05591 1.05472 0 0 1.05591zm-2.00906 -0.0507874l-1.01575 0 0 -1.01339 1.01575 0 0 1.01339zm1.95827 -2.01024l-1.05472 0 0 -1.05591 1.05472 0 0 1.05591zm-4.07598 4.12205l-0.175984 0 0 -1.05591 0.175984 0 0 1.05591zm0.0507874 -6.02953l-0.226772 0 0 -1.05591 0.226772 0 0 1.05591zm-0.0507874 -2.06102l-0.175984 0 0 -1.05591 0.175984 0 0 1.05591zm0.0755906 6.1063l-0.251575 0 0 -1.05591 0.251575 0 0 1.05591zm-0.0507874 -2.06102l-0.200787 0 0 -1.05591 0.200787 0 0 1.05591z"/>
  <path class="fil20" d="M2.90315 12.0331l0.115748 30.3071c0.0779528,0.985039 1.32165,1.70315 2.21102,1.69961l37.7776 -0.122835c1.28386,-0.0366142 1.87087,-0.897638 1.91457,-2.02795l-0.0389764 -29.7815c0,-1.19055 -0.709843,-1.84016 -1.9878,-1.84134l-37.9122 -0.0389764c-1.18937,-0.0011811 -2.07992,0.623622 -2.07992,1.80591zm3.02008 1.05l36.2008 0 0 27.9898 -36.2008 0 0 -27.9898z"/>
  <path class="fil21" d="M44.6882 20.4106c-10.0358,2.43307 -29.726,1.86614 -40.7398,1.29803l0 -9.23976c-0.0011811,-1.18228 0.840945,-1.80709 1.98189,-1.80591l36.8622 0.0389764c1.2189,0.0011811 1.89567,0.651969 1.89567,1.84134l0 7.86732z"/>
  <path class="fil22" d="M2.95984 42.9791l-0.253937 0.276378m42.0201 -0.0295276l-0.283465 -0.250394"/>
  <polygon class="fil23" points="47.3114,10.7705 47.3114,43.2047 46.9417,43.2047 46.9417,10.7705 "/>
  <path class="fil24" d="M0.307087 10.1055c0,-0.72874 0.3,-1.39252 0.780709,-1.87323 0.479528,-0.479528 1.14449,-0.779528 1.87323,-0.779528l41.7744 0c0.72874,0 1.39252,0.3 1.87323,0.780709 0.480709,0.480709 0.780709,1.14685 0.780709,1.87205l-0.657874 0c0,-0.54685 -0.225591,-1.04646 -0.587008,-1.40669 -0.361417,-0.361417 -0.861024,-0.587008 -1.40906,-0.587008l-41.7744 0c-0.549213,0 -1.04882,0.225591 -1.40906,0.585827 -0.360236,0.360236 -0.585827,0.859843 -0.585827,1.40787l-0.659055 0z"/>
  <path class="fil25" d="M3.12992 6.90118l41.7744 0c0.774803,0 1.48228,0.320079 1.9937,0.831496 0.486614,0.486614 0.799606,1.15157 0.829134,1.87913l-1.00276 0c-0.0295276,-0.454724 -0.229134,-0.869291 -0.532677,-1.17283 -0.329528,-0.329528 -0.786614,-0.53622 -1.2874,-0.53622l-41.7744 0c-0.501969,0 -0.959055,0.205512 -1.28858,0.535039 -0.303543,0.303543 -0.501969,0.715748 -0.530315,1.17402l-1.00276 0c0.0295276,-0.732283 0.341339,-1.39488 0.826772,-1.88031 0.512598,-0.512598 1.21772,-0.830315 1.99488,-0.830315z"/>
  <polygon class="fil26" points="2.98465,12.5433 2.98465,43.4965 1.95354,43.4965 1.95354,12.5433 "/>
  <polygon class="fil26" points="46.0713,12.5433 46.0713,43.4965 45.0402,43.4965 45.0402,12.5433 "/>
  <path class="fil27" d="M47.2087 44.5972c-0.0708661,0.31063 -0.20315,0.597638 -0.385039,0.848031 -0.465354,0.336614 -1.03701,0.537402 -1.65,0.537402l-42.3201 -0.0614173c-0.581102,0 -1.12323,-0.178346 -1.57441,-0.484252 -0.177165,-0.248031 -0.308268,-0.532677 -0.377953,-0.839764l0.92126 0c0.294094,0.20315 0.649606,0.322441 1.0311,0.322441l42.3201 0.0614173c0.41811,0 0.805512,-0.144094 1.11496,-0.383858l0.920079 0z"/>
  <path class="fil28" d="M2.90551 4.88504l42.2291 0.0614173 0.0614173 0 0.00590551 0.0023622c0.826772,0.0106299 1.53307,0.225591 2.04331,0.687402 0.519685,0.470079 0.818504,1.17283 0.817323,2.14252l0.0023622 0 0 0.0566929 -0.0023622 0.00590551 -0.0401575 3.22795 -0.00708661 0.494882 -0.0165354 0 0 32.6232c0,0.773622 -0.320079,1.4811 -0.831496,1.9937l0 0.0011811c-0.511417,0.511417 -1.2189,0.831496 -1.9937,0.831496l-42.3201 -0.0614173c-0.774803,0 -1.48228,-0.320079 -1.9937,-0.831496l0 -0.0011811c-0.510236,-0.512598 -0.830315,-1.2189 -0.830315,-1.9937l0 -32.6232 -0.0141732 0 0 -0.500787 0 -3.22795 0.00590551 -0.158268c0,-0.683858 0.33189,-1.43504 0.80315,-1.92283 0.48189,-0.499606 1.15512,-0.810236 1.94646,-0.809055l0.011811 0 0.122835 0.00354331 0 -0.0023622zm42.2291 1.06299l-42.2291 -0.0614173 -0.011811 -0.0023622 -0.134646 -0.00354331c-0.497244,0.00354331 -0.918898,0.194882 -1.21654,0.504331 -0.308268,0.320079 -0.498425,0.770079 -0.524409,1.2685l-0.00354331 0.120472 0.0023622 0 0 2.72717 0.0141732 0 0 0.500787 0 33.124c0,0.501969 0.206693,0.961417 0.533858,1.28976l0.0011811 -0.0011811c0.329528,0.329528 0.786614,0.53622 1.2874,0.53622l42.3201 0.0614173c0.500787,0 0.957874,-0.206693 1.2874,-0.53622l0 0.0011811c0.329528,-0.330709 0.53622,-0.788976 0.53622,-1.28976l0 -33.124 0 -0.500787 0.034252 0 0.034252 -2.72717 -0.0023622 0 0 -0.0566929 0.0023622 0c0,-0.66378 -0.178346,-1.12205 -0.488976,-1.40315 -0.316535,-0.285827 -0.796063,-0.421654 -1.38071,-0.429921l0 0.0023622 -0.0614173 0z"/>
  <path class="fil29" d="M2.90315 12.0331l0.115748 30.3071c0.0779528,0.985039 1.32165,1.70315 2.21102,1.69961l37.7776 -0.122835c1.28386,-0.0366142 1.87087,-0.897638 1.91457,-2.02795l-0.0389764 -29.7815c0,-1.19055 -0.709843,-1.84016 -1.9878,-1.84134l-37.9122 -0.0389764c-1.18937,-0.0011811 -2.07992,0.623622 -2.07992,1.80591zm0.498425 0l0.115748 30.2681c0.023622,0.301181 0.232677,0.579921 0.512598,0.794882 0.362598,0.277559 0.826772,0.446457 1.19764,0.445276l0.0023622 0 37.7634 -0.122835c0.464173,-0.0129921 0.80315,-0.159449 1.0252,-0.395669 0.256299,-0.271654 0.387402,-0.679134 0.405118,-1.15157l-0.0389764 -29.7638 -0.0023622 0c0,-0.447638 -0.121654,-0.784252 -0.349606,-0.998031 -0.244488,-0.225591 -0.630709,-0.344882 -1.1374,-0.344882l-37.9122 -0.0389764 0 0.0023622 -0.00354331 0c-0.478346,0 -0.887008,0.11811 -1.16575,0.346063l-0.0023622 0c-0.253937,0.206693 -0.40748,0.529134 -0.40748,0.956693l0 0.0023622 -0.0023622 0z"/>
  <path class="fil30" d="M3.46417 43.2567c0.459449,0.483071 1.18701,0.785433 1.76575,0.783071l37.7776 -0.122835c0.712205,-0.0200787 1.20827,-0.294094 1.5189,-0.727559l-0.685039 -0.830315c-0.0437008,0.12874 -0.105118,0.238583 -0.185433,0.322441 -0.133465,0.141732 -0.356693,0.231496 -0.675591,0.239764l-37.7504 0.122835 -0.00354331 0c-0.266929,0.0011811 -0.612992,-0.12874 -0.892913,-0.343701 -0.069685,-0.0543307 -0.134646,-0.111024 -0.185433,-0.170079l-0.683858 0.726378zm39.5161 -0.335433l0.0271654 0"/>
  <path class="fil22" d="M3.64488 43.226l-0.249213 0.271654m41.3587 -0.0295276l-0.279921 -0.245669"/>
  <g id="_60564864">
   <g>
    <path id="_125196272" class="fil31" d="M18.7039 19.2343c3.93189,0 7.12087,1.18346 7.12087,2.64449 0,1.45984 -3.18898,2.64449 -7.12087,2.64449 -3.93307,0 -7.12205,-1.18465 -7.12205,-2.64449 0,-1.46102 3.18898,-2.64449 7.12205,-2.64449z"/>
    <g>
     <path id="_64977184" class="fil32" d="M18.7122 19.5472c3.59291,0 6.50787,1.08189 6.50787,2.41772 0,1.33346 -2.91496,2.41654 -6.50787,2.41654 -3.59528,0 -6.51024,-1.08307 -6.51024,-2.41654 0,-1.33583 2.91496,-2.41772 6.51024,-2.41772z"/>
     <path id="_61884136" class="fil33" d="M18.7181 19.8602c3.25512,0 5.89606,0.980315 5.89606,2.18976 0,1.20945 -2.64094,2.18976 -5.89606,2.18976 -3.25748,0 -5.89843,-0.980315 -5.89843,-2.18976 0,-1.20945 2.64094,-2.18976 5.89843,-2.18976z"/>
     <path id="_62512400" class="fil34" d="M18.724 20.1732c2.9185,0 5.28425,0.87874 5.28425,1.96299 0,1.08307 -2.36575,1.96181 -5.28425,1.96181 -2.9185,0 -5.28425,-0.87874 -5.28425,-1.96181 0,-1.08425 2.36575,-1.96299 5.28425,-1.96299z"/>
     <path id="_47541392" class="fil35" d="M18.7311 20.4862c2.57953,0 4.67244,0.777165 4.67244,1.73622 0,0.957874 -2.09291,1.73386 -4.67244,1.73386 -2.58071,0 -4.67362,-0.775984 -4.67362,-1.73386 0,-0.959055 2.09291,-1.73622 4.67362,-1.73622z"/>
     <path id="_125195248" class="fil36" d="M18.7382 20.8004c2.24055,0 4.05945,0.674409 4.05945,1.50709 0,0.832677 -1.8189,1.50827 -4.05945,1.50827 -2.24291,0 -4.06063,-0.675591 -4.06063,-1.50827 0,-0.832677 1.81772,-1.50709 4.06063,-1.50709z"/>
     <path id="_21419216" class="fil37" d="M18.7441 21.1134c1.90394,0 3.44764,0.572835 3.44764,1.28031 0,0.706299 -1.5437,1.28031 -3.44764,1.28031 -1.90394,0 -3.44764,-0.574016 -3.44764,-1.28031 0,-0.70748 1.5437,-1.28031 3.44764,-1.28031z"/>
     <path id="_124387160" class="fil38" d="M18.7512 21.4264c1.56496,0 2.83465,0.47126 2.83465,1.05354 0,0.581102 -1.26969,1.05236 -2.83465,1.05236 -1.56614,0 -2.83583,-0.47126 -2.83583,-1.05236 0,-0.582283 1.26969,-1.05354 2.83583,-1.05354z"/>
     <path id="_125194736" class="fil39" d="M18.7571 21.7394c1.22717,0 2.22283,0.369685 2.22283,0.825591 0,0.455906 -0.995669,0.825591 -2.22283,0.825591 -1.22835,0 -2.22283,-0.369685 -2.22283,-0.825591 0,-0.455906 0.994488,-0.825591 2.22283,-0.825591z"/>
    </g>
    <path id="_122774632" class="fil40" d="M18.7642 22.0524c0.88937,0 1.61102,0.26811 1.61102,0.598819 0,0.330709 -0.721654,0.597638 -1.61102,0.597638 -0.890551,0 -1.61102,-0.266929 -1.61102,-0.597638 0,-0.330709 0.720472,-0.598819 1.61102,-0.598819z"/>
   </g>
   <g>
    <path id="_62956064" class="fil31" d="M18.4843 25.8413c4.42677,-0.269291 7.95118,-1.85315 7.8685,-3.53504 -0.0826772,-1.68189 -3.74055,-2.82756 -8.16732,-2.55827 -4.42795,0.270472 -7.95236,1.85315 -7.86969,3.53504 0.0826772,1.68307 3.74055,2.82874 8.1685,2.55827z"/>
    <g>
     <path id="_123180192" class="fil41" d="M18.476 25.5472c4.13031,-0.252756 7.41969,-1.71732 7.34291,-3.27165 -0.0755906,-1.55433 -3.48898,-2.61024 -7.61929,-2.35866 -4.13268,0.252756 -7.42087,1.71732 -7.34528,3.27047 0.0767717,1.55551 3.48898,2.61142 7.62165,2.35984z"/>
     <path id="_120187208" class="fil42" d="M18.4665 25.252c3.83386,-0.233858 6.88819,-1.58031 6.8185,-3.00709 -0.069685,-1.42559 -3.2374,-2.39291 -7.07244,-2.15906 -3.83504,0.233858 -6.88937,1.58031 -6.81969,3.00591 0.069685,1.42677 3.2374,2.39409 7.07362,2.16024z"/>
     <path id="_123323288" class="fil43" d="M18.4571 24.9567c3.53858,-0.214961 6.35787,-1.44331 6.29409,-2.74134 -0.0637795,-1.29803 -2.98583,-2.17677 -6.52441,-1.96063 -3.53976,0.216142 -6.35906,1.44331 -6.29528,2.74134 0.0637795,1.29921 2.98583,2.17677 6.52559,1.96063z"/>
     <path id="_58857152" class="fil44" d="M18.4476 24.6626c3.24331,-0.198425 5.82638,-1.30748 5.7685,-2.47795 -0.0566929,-1.17047 -2.73307,-1.95945 -5.97638,-1.76102 -3.24331,0.197244 -5.82756,1.3063 -5.76969,2.47677 0.057874,1.17047 2.73425,1.95945 5.97756,1.7622z"/>
     <path id="_63561624" class="fil45" d="M18.4382 24.3673c2.94685,-0.179528 5.29488,-1.17047 5.24409,-2.21339 -0.0507874,-1.04173 -2.48268,-1.74094 -5.42835,-1.56142 -2.94803,0.179528 -5.29724,1.17047 -5.24646,2.2122 0.0519685,1.04291 2.48268,1.74213 5.43071,1.5626z"/>
     <path id="_62938880" class="fil46" d="M18.4287 24.0732c2.65039,-0.161811 4.76457,-1.03465 4.71969,-1.94882 -0.0448819,-0.914173 -2.2311,-1.5248 -4.8815,-1.36299 -2.65157,0.161811 -4.76575,1.03346 -4.72087,1.94764 0.0448819,0.915354 2.2311,1.52598 4.88268,1.36417z"/>
     <path id="_124752160" class="fil47" d="M18.4205 23.778c2.35394,-0.142913 4.23189,-0.897638 4.19409,-1.68425 -0.0389764,-0.786614 -1.97953,-1.30748 -4.33346,-1.16457 -2.3563,0.144094 -4.23425,0.898819 -4.19646,1.68425 0.0389764,0.786614 1.97953,1.30866 4.33583,1.16457z"/>
     <path id="_124752672" class="fil48" d="M18.411 23.4839c2.05748,-0.125197 3.70157,-0.761811 3.6685,-1.41969 -0.0318898,-0.659055 -1.72795,-1.09134 -3.78543,-0.966142 -2.05984,0.126378 -3.70276,0.761811 -3.67087,1.41969 0.0330709,0.659055 1.72795,1.09134 3.7878,0.966142z"/>
     <path id="_124753184" class="fil49" d="M18.4016 23.1886c1.76102,-0.10748 3.17008,-0.624803 3.14409,-1.15512 -0.0259843,-0.530315 -1.47638,-0.872835 -3.23858,-0.765354 -1.76339,0.106299 -3.17126,0.623622 -3.14528,1.15512 0.0259843,0.530315 1.47638,0.872835 3.23976,0.765354z"/>
     <path id="_124753696" class="fil50" d="M18.3921 22.8945c1.46575,-0.0897638 2.63858,-0.488976 2.61969,-0.891732 -0.0200787,-0.402756 -1.22598,-0.656693 -2.69055,-0.566929 -1.46811,0.0897638 -2.64094,0.487795 -2.62087,0.890551 0.0200787,0.402756 1.2248,0.656693 2.69173,0.56811z"/>
     <path id="_124754208" class="fil51" d="M18.3827 22.5992c1.17047,-0.0708661 2.10827,-0.351969 2.09528,-0.625984 -0.0141732,-0.275197 -0.974409,-0.43937 -2.1437,-0.368504 -1.17047,0.0708661 -2.10827,0.351969 -2.09528,0.625984 0.0129921,0.275197 0.973228,0.440551 2.1437,0.368504z"/>
     <path id="_63800544" class="fil52" d="M18.3732 22.3051c0.874016,-0.0531496 1.57677,-0.216142 1.56969,-0.362598 -0.00708661,-0.146457 -0.721654,-0.222047 -1.59567,-0.168898 -0.874016,0.0531496 -1.57677,0.214961 -1.56969,0.361417 0.00708661,0.147638 0.721654,0.223228 1.59567,0.170079z"/>
    </g>
    <path id="_59104384" class="fil40" d="M18.3638 22.0098c0.577559,-0.0354331 1.04646,-0.0791339 1.04528,-0.0980315 -0.0011811,-0.0177165 -0.47126,-0.00472441 -1.04882,0.0307087 -0.577559,0.0354331 -1.04646,0.0791339 -1.04528,0.0980315 0.0011811,0.0177165 0.47126,0.00472441 1.04882,-0.0307087z"/>
   </g>
   <g>
    <path id="_127961688" class="fil31" d="M19.1669 24.7925c3.10984,-0.224409 5.58543,-1.53661 5.52756,-2.9315 -0.057874,-1.3937 -2.62795,-2.34331 -5.7378,-2.1189 -3.11102,0.223228 -5.58661,1.53543 -5.52874,2.92913 0.057874,1.39488 2.62795,2.34449 5.73898,2.12126z"/>
    <g>
     <path id="_125399224" class="fil41" d="M19.161 24.548c2.90197,-0.209055 5.2122,-1.42323 5.15906,-2.71181 -0.0543307,-1.2874 -2.45079,-2.16378 -5.35276,-1.95472 -2.90315,0.209055 -5.21457,1.42323 -5.16024,2.71063 0.0531496,1.28976 2.45079,2.16496 5.35394,1.95591z"/>
     <path id="_124184480" class="fil42" d="M19.1539 24.3035c2.69409,-0.193701 4.84016,-1.30984 4.79055,-2.49213 -0.0496063,-1.18228 -2.27362,-1.98425 -4.96772,-1.78937 -2.69528,0.193701 -4.84134,1.30866 -4.79173,2.49094 0.0484252,1.18346 2.2748,1.98425 4.9689,1.79055z"/>
     <path id="_63242552" class="fil43" d="M19.148 24.0591c2.48622,-0.178346 4.46575,-1.19646 4.42087,-2.27244 -0.0437008,-1.07598 -2.09764,-1.80354 -4.58268,-1.6252 -2.4874,0.178346 -4.46811,1.19646 -4.42323,2.27244 0.0448819,1.07717 2.09764,1.80472 4.58504,1.6252z"/>
     <path id="_122485400" class="fil44" d="M19.1409 23.8146c2.27835,-0.162992 4.0937,-1.08307 4.05354,-2.05394 -0.0401575,-0.969685 -1.92165,-1.62283 -4.19882,-1.45984 -2.27953,0.164173 -4.0937,1.08425 -4.05354,2.05394 0.0401575,0.969685 1.92047,1.62402 4.19882,1.45984z"/>
     <path id="_61706168" class="fil45" d="M19.135 23.5713c2.06929,-0.148819 3.71929,-0.970866 3.68386,-1.83543 -0.0366142,-0.863386 -1.74449,-1.44331 -3.81378,-1.29449 -2.07165,0.148819 -3.72165,0.969685 -3.68504,1.83425 0.0354331,0.864567 1.74331,1.44449 3.81496,1.29567z"/>
     <path id="_58429616" class="fil46" d="M19.128 23.3268c1.8626,-0.134646 3.34724,-0.85748 3.31535,-1.61575 -0.0318898,-0.758268 -1.56732,-1.26378 -3.42874,-1.13031 -1.8626,0.134646 -3.34843,0.85748 -3.31654,1.61575 0.0318898,0.758268 1.56732,1.26378 3.42992,1.13031z"/>
     <path id="_58915168" class="fil47" d="M19.122 23.0823c1.65354,-0.119291 2.97283,-0.744094 2.94567,-1.39606 -0.0259843,-0.651969 -1.39016,-1.08425 -3.0437,-0.964961 -1.65472,0.11811 -2.9752,0.744094 -2.94803,1.39606 0.0271654,0.651969 1.39134,1.08425 3.04606,0.964961z"/>
     <path id="_59866616" class="fil48" d="M19.115 22.8378c1.44567,-0.103937 2.60079,-0.630709 2.57835,-1.17638 -0.0224409,-0.54685 -1.21417,-0.904724 -2.65984,-0.800787 -1.44685,0.103937 -2.60197,0.630709 -2.57835,1.17638 0.0224409,0.54685 1.21299,0.904724 2.65984,0.800787z"/>
     <path id="_120472864" class="fil49" d="M19.1091 22.5933c1.2378,-0.0885827 2.22638,-0.517323 2.20866,-0.957874 -0.0188976,-0.43937 -1.03701,-0.724016 -2.2748,-0.634252 -1.23898,0.0885827 -2.22874,0.517323 -2.20984,0.957874 0.0177165,0.43937 1.03701,0.724016 2.27598,0.634252z"/>
     <path id="_122656848" class="fil50" d="M19.102 22.3488c1.02992,-0.0732283 1.85433,-0.405118 1.84016,-0.738189 -0.0141732,-0.334252 -0.861024,-0.544488 -1.88976,-0.470079 -1.0311,0.0744094 -1.85551,0.405118 -1.84134,0.738189 0.0141732,0.334252 0.861024,0.544488 1.89094,0.470079z"/>
     <path id="_62383112" class="fil51" d="M19.0961 22.1055c0.820866,-0.0590551 1.4811,-0.291732 1.47165,-0.519685 -0.00944882,-0.227953 -0.685039,-0.364961 -1.50591,-0.305906 -0.823228,0.0602362 -1.48228,0.291732 -1.47283,0.519685 0.00944882,0.227953 0.683858,0.364961 1.50709,0.305906z"/>
     <path id="_122794544" class="fil52" d="M19.089 21.861c0.614173,-0.0448819 1.10787,-0.179528 1.10315,-0.301181 -0.00472441,-0.120472 -0.507874,-0.184252 -1.12087,-0.13937 -0.615354,0.0437008 -1.10906,0.178346 -1.10315,0.3 0.00472441,0.121654 0.506693,0.184252 1.12087,0.140551z"/>
    </g>
    <path id="_60901888" class="fil40" d="M19.0819 21.6165c0.406299,-0.0295276 0.734646,-0.0661417 0.734646,-0.0814961 -0.0011811,-0.0153543 -0.330709,-0.00354331 -0.737008,0.0248031 -0.406299,0.0295276 -0.734646,0.0661417 -0.733465,0.0814961 0,0.0153543 0.329528,0.00472441 0.735827,-0.0248031z"/>
   </g>
   <g>
    <path id="_122839368" class="fil31" d="M13.0157 15.0094c3.26811,2.18386 5.31496,4.85787 4.57087,5.97283 -0.744094,1.1126 -3.99921,0.244488 -7.26732,-1.93937 -3.26929,-2.18504 -5.31614,-4.86024 -4.57205,-5.97283 0.744094,-1.11378 3.99921,-0.245669 7.2685,1.93937z"/>
    <g>
     <path id="_65499696" class="fil41" d="M12.8894 15.2067c3.04961,2.03858 4.96535,4.52598 4.27795,5.55472 -0.687402,1.02874 -3.71929,0.210236 -6.7689,-1.82835 -3.05079,-2.03858 -4.96654,-4.52598 -4.27913,-5.55472 0.687402,-1.02874 3.71929,-0.210236 6.77008,1.82835z"/>
     <path id="_65773488" class="fil42" d="M12.763 15.4039c2.8311,1.89213 4.61575,4.19291 3.98386,5.13661 -0.630709,0.943701 -3.43819,0.174803 -6.26929,-1.71614 -2.83228,-1.89331 -4.61693,-4.19409 -3.98622,-5.1378 0.630709,-0.943701 3.43937,-0.174803 6.27165,1.71732z"/>
     <path id="_62876144" class="fil43" d="M12.6366 15.6012c2.6126,1.74685 4.26496,3.85984 3.69094,4.7185 -0.574016,0.859843 -3.15945,0.140551 -5.77205,-1.60512 -2.6126,-1.74685 -4.26614,-3.85984 -3.69213,-4.71969 0.575197,-0.858661 3.15945,-0.13937 5.77323,1.6063z"/>
     <path id="_58074296" class="fil44" d="M12.5102 15.7996c2.39409,1.59921 3.91535,3.52559 3.39685,4.30039 -0.517323,0.774803 -2.87835,0.105118 -5.27244,-1.49409 -2.39528,-1.60039 -3.91654,-3.52677 -3.39921,-4.30157 0.518504,-0.774803 2.87953,-0.105118 5.2748,1.49528z"/>
     <path id="_62654208" class="fil45" d="M12.3839 15.9969c2.17441,1.45276 3.56457,3.19252 3.10394,3.88228 -0.46063,0.689764 -2.59961,0.0708661 -4.7752,-1.38307 -2.17559,-1.45512 -3.56575,-3.1937 -3.10512,-3.88346 0.461811,-0.689764 2.59961,-0.0708661 4.77638,1.38425z"/>
     <path id="_122774608" class="fil46" d="M12.2575 16.1941c1.95591,1.30748 3.21496,2.85945 2.81102,3.46417 -0.405118,0.605906 -2.31969,0.0354331 -4.27677,-1.27205 -1.95709,-1.30748 -3.21614,-2.85945 -2.8122,-3.46535 0.405118,-0.604724 2.31969,-0.0354331 4.27795,1.27323z"/>
     <path id="_124972216" class="fil47" d="M12.1311 16.3913c1.7374,1.16102 2.86535,2.52638 2.51693,3.04724 -0.347244,0.519685 -2.03976,0 -3.77717,-1.16102 -1.73976,-1.1622 -2.86654,-2.52638 -2.51929,-3.04724 0.348425,-0.520866 2.03976,-0.0011811 3.77953,1.16102z"/>
     <path id="_64549048" class="fil48" d="M12.0047 16.5886c1.5189,1.01575 2.51575,2.19331 2.22402,2.62913 -0.291732,0.435827 -1.76102,-0.034252 -3.27992,-1.05 -1.52008,-1.01575 -2.51575,-2.19331 -2.2252,-2.62913 0.291732,-0.435827 1.76102,0.034252 3.2811,1.05z"/>
     <path id="_65574816" class="fil49" d="M11.8772 16.7858c1.30157,0.869291 2.16614,1.85906 1.9311,2.21102 -0.233858,0.350787 -1.47992,-0.069685 -2.78031,-0.938976 -1.30157,-0.869291 -2.16732,-1.86024 -1.93228,-2.21102 0.235039,-0.350787 1.47992,0.069685 2.7815,0.938976z"/>
     <path id="_63034464" class="fil50" d="M11.752 16.9843c1.08189,0.722835 1.81535,1.52598 1.63701,1.79173 -0.178346,0.266929 -1.20118,-0.103937 -2.28307,-0.826772 -1.08307,-0.724016 -1.81654,-1.52717 -1.63819,-1.79291 0.178346,-0.266929 1.20118,0.103937 2.28425,0.827953z"/>
     <path id="_120150040" class="fil51" d="M11.6256 17.1815c0.863386,0.576378 1.46457,1.19291 1.34409,1.3748 -0.121654,0.180709 -0.92126,-0.13937 -1.78465,-0.716929 -0.864567,-0.577559 -1.46693,-1.19291 -1.34528,-1.3748 0.121654,-0.18189 0.92126,0.13937 1.78583,0.716929z"/>
     <path id="_122099696" class="fil52" d="M11.498 17.3787c0.644882,0.431102 1.11614,0.859843 1.05118,0.956693 -0.0649606,0.0968504 -0.641339,-0.174803 -1.28622,-0.604724 -0.644882,-0.432283 -1.11614,-0.859843 -1.05118,-0.957874 0.0649606,-0.0968504 0.641339,0.174803 1.28622,0.605906z"/>
    </g>
    <path id="_120355968" class="fil40" d="M11.3717 17.576c0.426378,0.284646 0.766535,0.525591 0.758268,0.538583 -0.00826772,0.011811 -0.361417,-0.209055 -0.787795,-0.493701 -0.427559,-0.285827 -0.766535,-0.526772 -0.758268,-0.539764 0.00826772,-0.011811 0.361417,0.209055 0.787795,0.494882z"/>
   </g>
   <g>
    <path id="_61347288" class="fil31" d="M12.639 15.463c3.26811,2.18386 5.31496,4.85787 4.57087,5.97165 -0.744094,1.11378 -3.99921,0.245669 -7.26614,-1.93819 -3.27047,-2.18504 -5.31732,-4.86024 -4.57323,-5.97402 0.744094,-1.11378 3.99921,-0.244488 7.2685,1.94055z"/>
    <g>
     <path id="_64549232" class="fil41" d="M12.5126 15.6602c3.04961,2.0374 4.96535,4.5248 4.27795,5.55472 -0.687402,1.02874 -3.71929,0.209055 -6.7689,-1.82835 -3.04961,-2.03858 -4.96654,-4.52598 -4.27913,-5.55472 0.688583,-1.02992 3.71929,-0.210236 6.77008,1.82835z"/>
     <path id="_65084376" class="fil42" d="M12.3862 15.8575c2.8311,1.89213 4.61575,4.19173 3.98386,5.13661 -0.630709,0.943701 -3.43819,0.174803 -6.26929,-1.71732 -2.83228,-1.89213 -4.61693,-4.19291 -3.98622,-5.13661 0.630709,-0.944882 3.43937,-0.174803 6.27165,1.71732z"/>
     <path id="_122862784" class="fil43" d="M12.2598 16.0547c2.6126,1.74567 4.26496,3.85866 3.69094,4.7185 -0.574016,0.859843 -3.15945,0.140551 -5.77205,-1.60512 -2.6126,-1.74685 -4.26614,-3.85984 -3.69213,-4.71969 0.575197,-0.859843 3.15945,-0.13937 5.77323,1.6063z"/>
     <path id="_62969792" class="fil44" d="M12.1335 16.2531c2.39409,1.59921 3.91535,3.52559 3.39685,4.30039 -0.517323,0.774803 -2.87835,0.105118 -5.27244,-1.49528 -2.39409,-1.60039 -3.91654,-3.52559 -3.39921,-4.30039 0.518504,-0.774803 2.87953,-0.105118 5.2748,1.49528z"/>
     <path id="_121925896" class="fil45" d="M12.0071 16.4504c2.17441,1.45276 3.56575,3.19134 3.10394,3.88228 -0.46063,0.689764 -2.59961,0.069685 -4.77402,-1.38307 -2.17677,-1.45512 -3.56693,-3.1937 -3.1063,-3.88346 0.461811,-0.689764 2.59961,-0.0708661 4.77638,1.38425z"/>
     <path id="_61347312" class="fil46" d="M11.8807 16.6476c1.95591,1.30748 3.21496,2.85827 2.81102,3.46417 -0.405118,0.605906 -2.31969,0.0354331 -4.27677,-1.27205 -1.95709,-1.30866 -3.21614,-2.85945 -2.8122,-3.46535 0.405118,-0.604724 2.31969,-0.0354331 4.27795,1.27323z"/>
     <path id="_121889888" class="fil47" d="M11.7543 16.8449c1.7374,1.16102 2.86535,2.52638 2.51693,3.04606 -0.347244,0.520866 -2.03976,0.0011811 -3.77717,-1.15984 -1.73976,-1.1622 -2.86654,-2.52756 -2.51929,-3.04724 0.348425,-0.520866 2.03976,-0.0011811 3.77953,1.16102z"/>
     <path id="_63961496" class="fil48" d="M11.628 17.0421c1.5189,1.01575 2.51575,2.19331 2.22402,2.62913 -0.291732,0.435827 -1.75984,-0.0354331 -3.27992,-1.05 -1.52008,-1.01575 -2.51575,-2.19331 -2.2252,-2.62913 0.291732,-0.435827 1.76102,0.034252 3.2811,1.05z"/>
     <path id="_59081952" class="fil49" d="M11.5004 17.2394c1.30157,0.869291 2.16614,1.85906 1.9311,2.21102 -0.233858,0.350787 -1.47992,-0.069685 -2.78031,-0.938976 -1.30157,-0.869291 -2.16732,-1.86024 -1.93228,-2.21102 0.235039,-0.350787 1.4811,0.069685 2.7815,0.938976z"/>
     <path id="_123942880" class="fil50" d="M11.3752 17.4366c1.08189,0.724016 1.81535,1.52717 1.63701,1.79291 -0.178346,0.266929 -1.20118,-0.103937 -2.28307,-0.826772 -1.08307,-0.724016 -1.81654,-1.52717 -1.63819,-1.79291 0.178346,-0.266929 1.20118,0.103937 2.28425,0.826772z"/>
     <path id="_121975120" class="fil51" d="M11.2488 17.635c0.863386,0.576378 1.46457,1.19291 1.34409,1.37362 -0.121654,0.18189 -0.92126,-0.138189 -1.78465,-0.715748 -0.864567,-0.577559 -1.46575,-1.19291 -1.34528,-1.3748 0.121654,-0.18189 0.92126,0.138189 1.78583,0.716929z"/>
     <path id="_58487272" class="fil52" d="M11.1213 17.8323c0.644882,0.431102 1.11614,0.859843 1.05118,0.956693 -0.0649606,0.0968504 -0.641339,-0.174803 -1.28622,-0.604724 -0.644882,-0.432283 -1.11614,-0.861024 -1.05118,-0.957874 0.0649606,-0.0968504 0.641339,0.173622 1.28622,0.605906z"/>
    </g>
    <path id="_123949808" class="fil40" d="M10.9949 18.0295c0.426378,0.284646 0.766535,0.525591 0.758268,0.538583 -0.00826772,0.011811 -0.361417,-0.209055 -0.787795,-0.493701 -0.427559,-0.285827 -0.766535,-0.526772 -0.758268,-0.539764 0.00826772,-0.011811 0.361417,0.209055 0.787795,0.494882z"/>
   </g>
   <g>
    <path id="_122457152" class="fil31" d="M12.3449 23.2949c2.93504,-1.57087 4.8815,-3.65669 4.34646,-4.65709 -0.535039,-0.999213 -3.34961,-0.53622 -6.28583,1.03346 -2.93622,1.57205 -4.88268,3.65669 -4.34764,4.65709 0.535039,1.00039 3.34961,0.537402 6.28701,-1.03346z"/>
    <g>
     <path id="_47864280" class="fil41" d="M12.2551 23.1177c2.73898,-1.46575 4.55906,-3.40394 4.06417,-4.32874 -0.493701,-0.923622 -3.11693,-0.484252 -5.85591,0.981496 -2.74016,1.46575 -4.56142,3.40394 -4.06654,4.32874 0.494882,0.923622 3.11811,0.484252 5.85827,-0.981496z"/>
     <path id="_61668192" class="fil42" d="M12.1642 22.9406c2.54291,-1.36063 4.2378,-3.15236 3.78307,-4.00039 -0.453543,-0.848031 -2.88425,-0.431102 -5.42598,0.928346 -2.54409,1.36181 -4.23898,3.15354 -3.78543,4.00039 0.453543,0.849213 2.88425,0.432283 5.42835,-0.928346z"/>
     <path id="_121975096" class="fil43" d="M12.0744 22.7634c2.34567,-1.25551 3.91417,-2.89961 3.50197,-3.67205 -0.413386,-0.77126 -2.65157,-0.379134 -4.99843,0.876378 -2.34685,1.25551 -3.91535,2.90079 -3.50315,3.67205 0.413386,0.772441 2.65157,0.380315 4.99961,-0.876378z"/>
     <path id="_48284456" class="fil44" d="M11.9835 22.5862c2.15079,-1.15039 3.59291,-2.64803 3.21969,-3.3437 -0.372047,-0.695669 -2.41772,-0.327165 -4.56732,0.823228 -2.15197,1.15157 -3.59409,2.64921 -3.22087,3.34488 0.372047,0.695669 2.41772,0.327165 4.5685,-0.824409z"/>
     <path id="_120627408" class="fil45" d="M11.8937 22.4102c1.95354,-1.04528 3.26929,-2.39646 2.9374,-3.01654 -0.330709,-0.618898 -2.18504,-0.274016 -4.13858,0.77126 -1.95472,1.04646 -3.27047,2.39646 -2.93976,3.01654 0.33189,0.620079 2.18622,0.274016 4.14094,-0.77126z"/>
     <path id="_62879936" class="fil46" d="M11.8028 22.2331c1.75748,-0.940157 2.94803,-2.1437 2.6563,-2.68819 -0.290551,-0.543307 -1.95236,-0.220866 -3.70984,0.719291 -1.75748,0.940157 -2.94803,2.1437 -2.6563,2.68819 0.290551,0.543307 1.95236,0.222047 3.70984,-0.719291z"/>
     <path id="_62969768" class="fil47" d="M11.713 22.0559c1.56142,-0.835039 2.62441,-1.89213 2.37402,-2.35984 -0.249213,-0.467717 -1.7185,-0.168898 -3.27992,0.666142 -1.5626,0.83622 -2.62559,1.89331 -2.3752,2.35984 0.250394,0.467717 1.71969,0.170079 3.2811,-0.666142z"/>
     <path id="_64977688" class="fil48" d="M11.6232 21.8787c1.36417,-0.729921 2.30197,-1.63937 2.09173,-2.0315 -0.209055,-0.390945 -1.48583,-0.115748 -2.85118,0.614173 -1.36535,0.729921 -2.30197,1.64055 -2.09291,2.0315 0.210236,0.392126 1.48701,0.116929 2.85236,-0.614173z"/>
     <path id="_58782416" class="fil49" d="M11.5323 21.7028c1.16811,-0.624803 1.97953,-1.3878 1.81063,-1.70315 -0.168898,-0.316535 -1.25315,-0.0649606 -2.42126,0.561024 -1.16929,0.624803 -1.98071,1.3878 -1.81181,1.70315 0.168898,0.315354 1.25315,0.0649606 2.42244,-0.561024z"/>
     <path id="_63961472" class="fil50" d="M11.4425 21.5256c0.972047,-0.519685 1.65709,-1.13622 1.52835,-1.37598 -0.127559,-0.238583 -1.02047,-0.0106299 -1.99252,0.509055 -0.972047,0.520866 -1.65709,1.13622 -1.52953,1.37598 0.12874,0.238583 1.02047,0.011811 1.9937,-0.509055z"/>
     <path id="_46801992" class="fil51" d="M11.3528 21.3484c0.774803,-0.414567 1.33346,-0.883465 1.24606,-1.04764 -0.0874016,-0.162992 -0.787795,0.0413386 -1.5626,0.457087 -0.777165,0.414567 -1.33465,0.883465 -1.24724,1.04764 0.0874016,0.162992 0.786614,-0.0413386 1.56378,-0.457087z"/>
     <path id="_123942904" class="fil52" d="M11.2618 21.1713c0.57874,-0.309449 1.0122,-0.63189 0.964961,-0.719291 -0.046063,-0.0874016 -0.555118,0.0944882 -1.13386,0.403937 -0.579921,0.31063 -1.0122,0.633071 -0.966142,0.719291 0.0472441,0.0874016 0.555118,-0.0933071 1.13504,-0.403937z"/>
    </g>
    <path id="_58776632" class="fil40" d="M11.1709 20.9953c0.383858,-0.205512 0.689764,-0.380315 0.683858,-0.392126 -0.00590551,-0.0106299 -0.32126,0.146457 -0.705118,0.351969 -0.382677,0.205512 -0.689764,0.380315 -0.682677,0.390945 0.00590551,0.011811 0.32126,-0.145276 0.703937,-0.350787z"/>
   </g>
   <g>
    <path id="_59022368" class="fil31" d="M11.8169 22.7657c2.93504,-1.57087 4.88268,-3.65551 4.34764,-4.65591 -0.535039,-1.00039 -3.35079,-0.537402 -6.28583,1.03346 -2.93622,1.57087 -4.88386,3.65669 -4.34882,4.65591 0.535039,1.00039 3.35079,0.537402 6.28701,-1.03346z"/>
    <g>
     <path id="_62167280" class="fil41" d="M11.7272 22.5886c2.73898,-1.46575 4.56024,-3.40394 4.06535,-4.32756 -0.494882,-0.924803 -3.11693,-0.485433 -5.85591,0.980315 -2.74016,1.46693 -4.56142,3.40512 -4.06772,4.32874 0.494882,0.924803 3.11811,0.485433 5.85827,-0.981496z"/>
     <path id="_122296480" class="fil42" d="M11.6374 22.4114c2.54173,-1.36063 4.23661,-3.15118 3.78307,-3.99921 -0.453543,-0.848031 -2.88425,-0.432283 -5.42717,0.928346 -2.54409,1.36063 -4.23898,3.15236 -3.78543,4.00039 0.454724,0.848031 2.88543,0.432283 5.42953,-0.929528z"/>
     <path id="_61951920" class="fil43" d="M11.5465 22.2354c2.34685,-1.25551 3.91535,-2.90079 3.50197,-3.67205 -0.413386,-0.772441 -2.65157,-0.380315 -4.99724,0.875197 -2.34803,1.25669 -3.91654,2.90079 -3.50315,3.67323 0.413386,0.77126 2.65157,0.379134 4.99843,-0.876378z"/>
     <path id="_63193280" class="fil44" d="M11.4567 22.0583c2.14961,-1.15039 3.59173,-2.64803 3.21969,-3.34488 -0.372047,-0.695669 -2.4189,-0.325984 -4.5685,0.824409 -2.15079,1.15039 -3.59291,2.64803 -3.22087,3.3437 0.372047,0.695669 2.4189,0.327165 4.56969,-0.823228z"/>
     <path id="_57968856" class="fil45" d="M11.3657 21.8811c1.95472,-1.04528 3.27047,-2.39528 2.93858,-3.01535 -0.33189,-0.620079 -2.18504,-0.275197 -4.13976,0.77126 -1.95472,1.04528 -3.27047,2.39646 -2.93858,3.01535 0.33189,0.620079 2.18504,0.275197 4.13976,-0.77126z"/>
     <path id="_58183032" class="fil46" d="M11.276 21.7039c1.75748,-0.940157 2.94685,-2.1437 2.6563,-2.68701 -0.291732,-0.544488 -1.95236,-0.222047 -3.70984,0.71811 -1.75866,0.941339 -2.94803,2.14488 -2.65748,2.68819 0.290551,0.543307 1.95236,0.222047 3.71102,-0.719291z"/>
     <path id="_120770888" class="fil47" d="M11.1862 21.528c1.56024,-0.83622 2.62441,-1.89213 2.37402,-2.35984 -0.250394,-0.467717 -1.71969,-0.170079 -3.2811,0.666142 -1.56142,0.835039 -2.62441,1.89213 -2.3752,2.35984 0.250394,0.467717 1.71969,0.168898 3.28228,-0.666142z"/>
     <path id="_120162648" class="fil48" d="M11.0953 21.3508c1.36535,-0.729921 2.30197,-1.64055 2.09291,-2.0315 -0.210236,-0.392126 -1.48701,-0.116929 -2.85118,0.612992 -1.36535,0.731102 -2.30315,1.64055 -2.09291,2.03268 0.209055,0.390945 1.48583,0.115748 2.85118,-0.614173z"/>
     <path id="_125197256" class="fil49" d="M11.0055 21.1736c1.16811,-0.624803 1.97953,-1.3878 1.81063,-1.70315 -0.168898,-0.315354 -1.25433,-0.0637795 -2.42244,0.561024 -1.16929,0.625984 -1.97953,1.38898 -1.81181,1.70433 0.168898,0.315354 1.25433,0.0637795 2.42362,-0.562205z"/>
     <path id="_47514224" class="fil50" d="M10.9146 20.9965c0.972047,-0.519685 1.65709,-1.13622 1.52953,-1.3748 -0.12874,-0.239764 -1.02165,-0.011811 -1.99252,0.507874 -0.973228,0.520866 -1.65827,1.13622 -1.52953,1.37598 0.127559,0.239764 1.02047,0.011811 1.99252,-0.509055z"/>
     <path id="_64977712" class="fil51" d="M10.8248 20.8205c0.775984,-0.415748 1.33465,-0.884646 1.24724,-1.04764 -0.0874016,-0.164173 -0.787795,0.0401575 -1.56378,0.455906 -0.775984,0.415748 -1.33465,0.884646 -1.24724,1.04764 0.0874016,0.162992 0.787795,-0.0413386 1.56378,-0.455906z"/>
     <path id="_65574840" class="fil52" d="M10.735 20.6433c0.57874,-0.31063 1.01102,-0.633071 0.964961,-0.719291 -0.0472441,-0.0874016 -0.555118,0.0933071 -1.13504,0.402756 -0.579921,0.31063 -1.0122,0.633071 -0.964961,0.720472 0.046063,0.0874016 0.555118,-0.0933071 1.13504,-0.403937z"/>
    </g>
    <path id="_62996240" class="fil40" d="M10.6441 20.4661c0.382677,-0.204331 0.688583,-0.380315 0.682677,-0.390945 -0.00590551,-0.011811 -0.32126,0.146457 -0.703937,0.350787 -0.383858,0.205512 -0.689764,0.380315 -0.683858,0.392126 0.00590551,0.0106299 0.32126,-0.146457 0.705118,-0.351969z"/>
   </g>
   <polygon id="_58536144" class="fil53" points="7.16811,21.7925 7.84843,22.9713 14.8701,18.9449 14.8205,18.9331 14.8724,18.9094 8.05984,14.9587 7.37953,16.1374 12.1713,18.9047 "/>
   <polygon id="_123942544" class="fil53" points="22.5094,22.9606 22.5094,21.8894 15.0992,21.8894 15.0992,22.9606 "/>
  </g>
 </g>
</svg>
