<?xml version="1.0" encoding="UTF-8" standalone="no"?>
<!-- Creator: CorelDRAW -->

<svg
   xmlns:dc="http://purl.org/dc/elements/1.1/"
   xmlns:cc="http://creativecommons.org/ns#"
   xmlns:rdf="http://www.w3.org/1999/02/22-rdf-syntax-ns#"
   xmlns:svg="http://www.w3.org/2000/svg"
   xmlns="http://www.w3.org/2000/svg"
   xmlns:xlink="http://www.w3.org/1999/xlink"
   xmlns:sodipodi="http://sodipodi.sourceforge.net/DTD/sodipodi-0.dtd"
   xmlns:inkscape="http://www.inkscape.org/namespaces/inkscape"
   xml:space="preserve"
   width="48px"
   height="48px"
   style="shape-rendering:geometricPrecision; text-rendering:geometricPrecision; image-rendering:optimizeQuality; fill-rule:evenodd; clip-rule:evenodd"
   viewBox="0 0 48 48"
   id="svg2"
   version="1.1"
   inkscape:version="0.48.1 "
   sodipodi:docname="krds_48.svg"
   inkscape:export-filename="D:\Work_2012\ROSA\draft #6 (5 иконок)\FINAL SVG\krds\krds_48.png"
   inkscape:export-xdpi="90"
   inkscape:export-ydpi="90"><metadata
   id="metadata287"><rdf:RDF><cc:Work
       rdf:about=""><dc:format>image/svg+xml</dc:format><dc:type
         rdf:resource="http://purl.org/dc/dcmitype/StillImage" /><dc:title /></cc:Work></rdf:RDF></metadata><sodipodi:namedview
   pagecolor="#ffffff"
   bordercolor="#666666"
   borderopacity="1"
   objecttolerance="10"
   gridtolerance="10"
   guidetolerance="10"
   inkscape:pageopacity="0"
   inkscape:pageshadow="2"
   inkscape:window-width="1920"
   inkscape:window-height="1138"
   id="namedview285"
   showgrid="false"
   inkscape:zoom="1"
   inkscape:cx="24.286127"
   inkscape:cy="28.192176"
   inkscape:window-x="-8"
   inkscape:window-y="-8"
   inkscape:window-maximized="1"
   inkscape:current-layer="svg2"><inkscape:grid
     type="xygrid"
     id="grid3204" /></sodipodi:namedview>
 <defs
   id="defs4">
  <style
   type="text/css"
   id="style6">
   
    .fil114 {fill:none}
    .fil0 {fill:#999999}
    .fil122 {fill:#396DA6}
    .fil137 {fill:#74AFE5}
    .fil131 {fill:#8C8C8C}
    .fil133 {fill:#8CBD38}
    .fil134 {fill:#9ACC43}
    .fil135 {fill:#A1D44A}
    .fil1 {fill:#C9C9C9}
    .fil128 {fill:#D4D2D2}
    .fil121 {fill:white}
    .fil132 {fill:#C4C4C4}
    .fil136 {fill:#CBCBCB}
    .fil123 {fill:#CFCFCF}
    .fil129 {fill:white;fill-rule:nonzero}
    .fil127 {fill:#CCCCCC;fill-rule:nonzero}
    .fil116 {fill:white;fill-rule:nonzero}
    .fil79 {fill:#458BC9;fill-opacity:0.011765}
    .fil111 {fill:#B0E5FF;fill-opacity:0.015686}
    .fil37 {fill:#B8E7FF;fill-opacity:0.015686}
    .fil78 {fill:#458BC9;fill-opacity:0.019608}
    .fil110 {fill:#B0E5FF;fill-opacity:0.031373}
    .fil36 {fill:#B8E7FF;fill-opacity:0.031373}
    .fil77 {fill:#458BC9;fill-opacity:0.031373}
    .fil76 {fill:#458BC9;fill-opacity:0.039216}
    .fil109 {fill:#B0E5FF;fill-opacity:0.047059}
    .fil35 {fill:#B8E7FF;fill-opacity:0.047059}
    .fil75 {fill:#458BC9;fill-opacity:0.050980}
    .fil108 {fill:#B0E5FF;fill-opacity:0.058824}
    .fil34 {fill:#B8E7FF;fill-opacity:0.058824}
    .fil74 {fill:#458BC9;fill-opacity:0.062745}
    .fil73 {fill:#458BC9;fill-opacity:0.070588}
    .fil107 {fill:#B0E5FF;fill-opacity:0.074510}
    .fil33 {fill:#B8E7FF;fill-opacity:0.074510}
    .fil72 {fill:#458BC9;fill-opacity:0.082353}
    .fil106 {fill:#B0E5FF;fill-opacity:0.090196}
    .fil32 {fill:#B8E7FF;fill-opacity:0.090196}
    .fil71 {fill:#458BC9;fill-opacity:0.090196}
    .fil70 {fill:#458BC9;fill-opacity:0.101961}
    .fil105 {fill:#B0E5FF;fill-opacity:0.105882}
    .fil31 {fill:#B8E7FF;fill-opacity:0.105882}
    .fil69 {fill:#458BC9;fill-opacity:0.113725}
    .fil115 {fill:#B2B2B2;fill-rule:nonzero;fill-opacity:0.121569}
    .fil104 {fill:#B0E5FF;fill-opacity:0.121569}
    .fil30 {fill:#B8E7FF;fill-opacity:0.121569}
    .fil68 {fill:#458BC9;fill-opacity:0.121569}
    .fil67 {fill:#458BC9;fill-opacity:0.133333}
    .fil103 {fill:#B0E5FF;fill-opacity:0.137255}
    .fil29 {fill:#B8E7FF;fill-opacity:0.137255}
    .fil66 {fill:#458BC9;fill-opacity:0.145098}
    .fil102 {fill:#B0E5FF;fill-opacity:0.152941}
    .fil28 {fill:#B8E7FF;fill-opacity:0.152941}
    .fil65 {fill:#458BC9;fill-opacity:0.152941}
    .fil64 {fill:#458BC9;fill-opacity:0.164706}
    .fil101 {fill:#B0E5FF;fill-opacity:0.164706}
    .fil27 {fill:#B8E7FF;fill-opacity:0.164706}
    .fil63 {fill:#458BC9;fill-opacity:0.172549}
    .fil100 {fill:#B0E5FF;fill-opacity:0.180392}
    .fil26 {fill:#B8E7FF;fill-opacity:0.180392}
    .fil62 {fill:#458BC9;fill-opacity:0.184314}
    .fil61 {fill:#458BC9;fill-opacity:0.196078}
    .fil99 {fill:#B0E5FF;fill-opacity:0.196078}
    .fil25 {fill:#B8E7FF;fill-opacity:0.196078}
    .fil60 {fill:#458BC9;fill-opacity:0.203922}
    .fil98 {fill:#B0E5FF;fill-opacity:0.211765}
    .fil24 {fill:#B8E7FF;fill-opacity:0.211765}
    .fil59 {fill:#458BC9;fill-opacity:0.215686}
    .fil124 {fill:#191919;fill-opacity:0.219608}
    .fil112 {fill:#A0DFFF;fill-opacity:0.219608}
    .fil58 {fill:#458BC9;fill-opacity:0.223529}
    .fil97 {fill:#B0E5FF;fill-opacity:0.227451}
    .fil23 {fill:#B8E7FF;fill-opacity:0.227451}
    .fil57 {fill:#458BC9;fill-opacity:0.235294}
    .fil96 {fill:#B0E5FF;fill-opacity:0.243137}
    .fil22 {fill:#B8E7FF;fill-opacity:0.243137}
    .fil56 {fill:#458BC9;fill-opacity:0.247059}
    .fil55 {fill:#458BC9;fill-opacity:0.254902}
    .fil95 {fill:#B0E5FF;fill-opacity:0.258824}
    .fil21 {fill:#B8E7FF;fill-opacity:0.258824}
    .fil54 {fill:#458BC9;fill-opacity:0.266667}
    .fil94 {fill:#B0E5FF;fill-opacity:0.274510}
    .fil20 {fill:#B8E7FF;fill-opacity:0.274510}
    .fil53 {fill:#458BC9;fill-opacity:0.274510}
    .fil52 {fill:#458BC9;fill-opacity:0.286275}
    .fil93 {fill:#B0E5FF;fill-opacity:0.286275}
    .fil19 {fill:#B8E7FF;fill-opacity:0.286275}
    .fil51 {fill:#458BC9;fill-opacity:0.298039}
    .fil92 {fill:#B0E5FF;fill-opacity:0.301961}
    .fil18 {fill:#B8E7FF;fill-opacity:0.301961}
    .fil50 {fill:#458BC9;fill-opacity:0.305882}
    .fil49 {fill:#458BC9;fill-opacity:0.317647}
    .fil91 {fill:#B0E5FF;fill-opacity:0.317647}
    .fil17 {fill:#B8E7FF;fill-opacity:0.317647}
    .fil48 {fill:#458BC9;fill-opacity:0.325490}
    .fil90 {fill:#B0E5FF;fill-opacity:0.333333}
    .fil16 {fill:#B8E7FF;fill-opacity:0.333333}
    .fil47 {fill:#458BC9;fill-opacity:0.337255}
    .fil46 {fill:#458BC9;fill-opacity:0.349020}
    .fil89 {fill:#B0E5FF;fill-opacity:0.349020}
    .fil15 {fill:#B8E7FF;fill-opacity:0.349020}
    .fil45 {fill:#458BC9;fill-opacity:0.356863}
    .fil88 {fill:#B0E5FF;fill-opacity:0.364706}
    .fil14 {fill:#B8E7FF;fill-opacity:0.364706}
    .fil44 {fill:#458BC9;fill-opacity:0.368627}
    .fil43 {fill:#458BC9;fill-opacity:0.380392}
    .fil87 {fill:#B0E5FF;fill-opacity:0.380392}
    .fil13 {fill:#B8E7FF;fill-opacity:0.380392}
    .fil42 {fill:#458BC9;fill-opacity:0.388235}
    .fil86 {fill:#B0E5FF;fill-opacity:0.392157}
    .fil12 {fill:#B8E7FF;fill-opacity:0.392157}
    .fil41 {fill:#458BC9;fill-opacity:0.400000}
    .fil85 {fill:#B0E5FF;fill-opacity:0.407843}
    .fil11 {fill:#B8E7FF;fill-opacity:0.407843}
    .fil40 {fill:#458BC9;fill-opacity:0.407843}
    .fil39 {fill:#458BC9;fill-opacity:0.419608}
    .fil84 {fill:#B0E5FF;fill-opacity:0.423529}
    .fil10 {fill:#B8E7FF;fill-opacity:0.423529}
    .fil38 {fill:#458BC9;fill-opacity:0.431373}
    .fil83 {fill:#B0E5FF;fill-opacity:0.439216}
    .fil9 {fill:#B8E7FF;fill-opacity:0.439216}
    .fil2 {fill:#A4A5A7;fill-opacity:0.439216}
    .fil125 {fill:#B2B2B2;fill-opacity:0.439216}
    .fil118 {fill:#CCCCCC;fill-opacity:0.439216}
    .fil82 {fill:#B0E5FF;fill-opacity:0.454902}
    .fil8 {fill:#B8E7FF;fill-opacity:0.454902}
    .fil81 {fill:#B0E5FF;fill-opacity:0.470588}
    .fil7 {fill:#B8E7FF;fill-opacity:0.470588}
    .fil80 {fill:#B0E5FF;fill-opacity:0.486275}
    .fil6 {fill:#B8E7FF;fill-opacity:0.486275}
    .fil113 {fill:#396DA6;fill-opacity:0.501961}
    .fil120 {fill:url(#id0)}
    .fil4 {fill:url(#id1)}
    .fil126 {fill:url(#id2)}
    .fil5 {fill:url(#id3)}
    .fil3 {fill:url(#id4)}
    .fil117 {fill:url(#id5);fill-rule:nonzero}
    .fil130 {fill:url(#id6);fill-rule:nonzero}
    .fil119 {fill:url(#id7);fill-rule:nonzero}
   
  </style>
  <linearGradient
   id="id0"
   gradientUnits="userSpaceOnUse"
   x1="23.9126"
   y1="38.8417"
   x2="23.9126"
   y2="5.7">
   <stop
   offset="0"
   style="stop-color:#7F7F7F"
   id="stop9" />
   <stop
   offset="1"
   style="stop-color:#999999"
   id="stop11" />
  </linearGradient>
  <linearGradient
   id="id1"
   gradientUnits="userSpaceOnUse"
   x1="24.3449"
   y1="1.75039"
   x2="23.4673"
   y2="19.5248">
   <stop
   offset="0"
   style="stop-color:#EDEDED"
   id="stop14" />
   <stop
   offset="1"
   style="stop-color:#D1CFCF"
   id="stop16" />
  </linearGradient>
  <linearGradient
   id="id2"
   gradientUnits="userSpaceOnUse"
   x1="17.3374"
   y1="11.5346"
   x2="17.7614"
   y2="24.4228">
   <stop
   offset="0"
   style="stop-color:white"
   id="stop19" />
   <stop
   offset="1"
   style="stop-color:#EBEBEB"
   id="stop21" />
  </linearGradient>
  <linearGradient
   id="id3"
   gradientUnits="userSpaceOnUse"
   x1="23.9126"
   y1="16.1835"
   x2="23.9126"
   y2="28.3571">
   <stop
   offset="0"
   style="stop-color:#5CA2DA"
   id="stop24" />
   <stop
   offset="1"
   style="stop-color:#84C1F0"
   id="stop26" />
  </linearGradient>
  <linearGradient
   id="id4"
   gradientUnits="userSpaceOnUse"
   x1="24.1618"
   y1="29.237"
   x2="23.9504"
   y2="14.8807">
   <stop
   offset="0"
   style="stop-color:#B0B0B0"
   id="stop29" />
   <stop
   offset="1"
   style="stop-color:#BEBEBE"
   id="stop31" />
  </linearGradient>
  <linearGradient
   id="id5"
   gradientUnits="userSpaceOnUse"
   x1="2.04094"
   y1="38.6339"
   x2="2.89724"
   y2="7.67835">
   <stop
   offset="0"
   style="stop-color:#B8B8B8"
   id="stop34" />
   <stop
   offset="1"
   style="stop-color:white"
   id="stop36" />
  </linearGradient>
  <linearGradient
   id="id6"
   gradientUnits="userSpaceOnUse"
   x1="17.5488"
   y1="28.865"
   x2="17.5488"
   y2="7.09252">
   <stop
   offset="0"
   style="stop-color:#919191"
   id="stop39" />
   <stop
   offset="1"
   style="stop-color:#B2B2B2"
   id="stop41" />
  </linearGradient>
  <linearGradient
   id="id7"
   gradientUnits="userSpaceOnUse"
   xlink:href="#id0"
   x1="24.0402"
   y1="41.7283"
   x2="24.0402"
   y2="0.43937">
  </linearGradient>
 <linearGradient
   inkscape:collect="always"
   xlink:href="#id5"
   id="linearGradient3264"
   gradientUnits="userSpaceOnUse"
   x1="2.04094"
   y1="38.6339"
   x2="2.89724"
   y2="7.67835" /><linearGradient
   inkscape:collect="always"
   xlink:href="#id5"
   id="linearGradient3266"
   gradientUnits="userSpaceOnUse"
   x1="2.04094"
   y1="38.6339"
   x2="2.89724"
   y2="7.67835" /><linearGradient
   inkscape:collect="always"
   xlink:href="#id0"
   id="linearGradient3268"
   gradientUnits="userSpaceOnUse"
   x1="23.9126"
   y1="38.8417"
   x2="23.9126"
   y2="5.7" /><linearGradient
   inkscape:collect="always"
   xlink:href="#id2"
   id="linearGradient3270"
   gradientUnits="userSpaceOnUse"
   x1="17.3374"
   y1="11.5346"
   x2="17.7614"
   y2="24.4228" /><linearGradient
   inkscape:collect="always"
   xlink:href="#id6"
   id="linearGradient3272"
   gradientUnits="userSpaceOnUse"
   x1="17.5488"
   y1="28.865"
   x2="17.5488"
   y2="7.09252" /><linearGradient
   inkscape:collect="always"
   xlink:href="#id2"
   id="linearGradient3274"
   gradientUnits="userSpaceOnUse"
   x1="17.3374"
   y1="11.5346"
   x2="17.7614"
   y2="24.4228" /><linearGradient
   inkscape:collect="always"
   xlink:href="#id6"
   id="linearGradient3276"
   gradientUnits="userSpaceOnUse"
   x1="17.5488"
   y1="28.865"
   x2="17.5488"
   y2="7.09252" />
  
  
  
  
  
  
  
  
  
  
  
  
  
  
  
  
  
  
  
  
  
  
  
  
  
  
  
  
  
  
  
  
  
  
  
  
  
  
  
  
  
  
  
  
  
  
  
  
  
  
  
  
  
 <linearGradient
   inkscape:collect="always"
   xlink:href="#id6"
   id="linearGradient3321"
   gradientUnits="userSpaceOnUse"
   x1="17.5488"
   y1="28.865"
   x2="17.5488"
   y2="7.09252" /><linearGradient
   inkscape:collect="always"
   xlink:href="#id2"
   id="linearGradient3331"
   gradientUnits="userSpaceOnUse"
   x1="17.3374"
   y1="11.5346"
   x2="17.7614"
   y2="24.4228" /><linearGradient
   inkscape:collect="always"
   xlink:href="#id0"
   id="linearGradient3343"
   gradientUnits="userSpaceOnUse"
   x1="23.9126"
   y1="38.8417"
   x2="23.9126"
   y2="5.7" /><linearGradient
   inkscape:collect="always"
   xlink:href="#id0"
   id="linearGradient3346"
   gradientUnits="userSpaceOnUse"
   x1="24.0402"
   y1="41.7283"
   x2="24.0402"
   y2="0.43937"
   gradientTransform="matrix(1,0,0,0.99775094,0,-0.02121198)" /><linearGradient
   inkscape:collect="always"
   xlink:href="#id3"
   id="linearGradient3467"
   gradientUnits="userSpaceOnUse"
   x1="23.9126"
   y1="16.1835"
   x2="23.9126"
   y2="28.3571" /><linearGradient
   inkscape:collect="always"
   xlink:href="#id1"
   id="linearGradient3470"
   gradientUnits="userSpaceOnUse"
   x1="24.3449"
   y1="1.75039"
   x2="23.4673"
   y2="19.5248" /><linearGradient
   inkscape:collect="always"
   xlink:href="#id4"
   id="linearGradient3473"
   gradientUnits="userSpaceOnUse"
   x1="24.1618"
   y1="29.237"
   x2="23.9504"
   y2="14.8807" />
   
   
   
   
   
   
   
   
   
   
   
   
   
   
   
   
   
   
   
   
   
   
   
   
   
  <linearGradient
   inkscape:collect="always"
   xlink:href="#id6"
   id="linearGradient3221"
   gradientUnits="userSpaceOnUse"
   x1="17.5488"
   y1="28.865"
   x2="17.5488"
   y2="7.09252"
   gradientTransform="matrix(1,0,0,1.0071238,0,-0.2488241)" /><linearGradient
   inkscape:collect="always"
   xlink:href="#id2"
   id="linearGradient3231"
   gradientUnits="userSpaceOnUse"
   x1="17.3374"
   y1="11.5346"
   x2="17.7614"
   y2="24.4228" /></defs>
 <rect
   style="fill:#999999"
   id="rect46"
   height="4.3154802"
   width="2.0334899"
   y="41.098801"
   x="22.9844"
   class="fil0" /><path
   style="fill:#c9c9c9"
   inkscape:connector-curvature="0"
   id="path48"
   d="m 3.02953,0.99606055 41.8736,0.0743468 c 1.46693,0 2.45079,0.6772521 2.43071,2.3512125 l -0.04134,3.1748328 -46.4621996,0 0,-3.1748328 c 0,-1.3324275 0.778346,-2.49642305 2.19921,-2.42555866 z"
   class="fil1" /><path
   style="fill:#a4a5a7;fill-opacity:0.43921599"
   inkscape:connector-curvature="0"
   id="path50"
   d="M 0.869291,2.98228 C 1.202362,2.619682 1.378346,2.07165 1.912201,2.001965 l 0.367323,0.804331 -1.57205,1.95118 0.161811,-1.7752 z"
   class="fil2" /><path
   inkscape:connector-curvature="0"
   style="fill:url(#linearGradient3473)"
   id="path52"
   d="m 3.16772,2.45669 41.7756,0 c 1.27795,0 2.32441,1.05118 2.32441,2.32441 l 0,34.5555 c 0,1.27559 -1.04764,2.32441 -2.32441,2.32441 -15.3083,0 -15.665,0 -41.7756,0 -1.27559,0 -2.32441,-1.04528 -2.32441,-2.32441 l 0,-34.5555 c 0,-1.27795 1.04646,-2.32441 2.32441,-2.32441 z"
   class="fil3" /><path
   inkscape:connector-curvature="0"
   style="fill:url(#linearGradient3470)"
   id="path54"
   d="M 47.1177,15.8102 C 36.8693,18.96847 12.4429,18.13933 0.6945,17.51453 l 0,-12.8846 c 0,-1.27795 1.04528,-2.32323 2.32323,-2.32323 l 41.7756,0 c 1.27913,0 2.32441,1.05118 2.32441,2.32323 l 0,11.1803 z"
   class="fil4" /><path
   inkscape:connector-curvature="0"
   style="fill:url(#linearGradient3467)"
   id="path56"
   d="m 2.90315,7.16929 0.115748,30.3071 c 0.077953,0.985039 1.32165,1.70315 2.21102,1.69961 l 37.7776,-0.122835 c 1.28386,-0.03661 1.87087,-0.897638 1.91457,-2.02795 l -0.03898,-29.7815 c 0,-1.19055 -0.709843,-1.84016 -1.9878,-1.84134 L 4.9831116,5.3633986 c -1.18937,-0.00118 -2.07992,0.623622 -2.07992,1.80591 z"
   class="fil5" /><g
   id="_239973288">
   <g
   id="g59">
    <path
   style="fill:#b8e7ff;fill-opacity:0.48627499"
   inkscape:connector-curvature="0"
   d="m 3.21378,22.9075 c 0.36378,-0.07087 0.72874,-0.132283 1.09488,-0.184252 3.19252,-0.453543 6.46299,-0.132283 9.55512,1.58268 1.76929,0.990945 3.3685,1.90866 4.80827,2.73898 7.74803,4.60039 10.1398,6.00354 16.239,4.21063 2.56535,-0.720472 6.21496,-2.90079 9.99803,-4.42795 l 0,0.33189 c -3.75118,1.52717 -7.36654,3.6874 -9.91299,4.40433 -6.23031,1.83543 -8.64567,0.415748 -16.4858,-4.23898 -1.42323,-0.822047 -3.00354,-1.72795 -4.80118,-2.7378 -2.93504,-1.62047 -6.09567,-1.91693 -9.2185,-1.47874 -0.426378,0.06024 -0.851575,0.133465 -1.27559,0.217323 l -0.00118,-0.41811 z"
   class="fil6"
   id="_239958624" />
    <path
   style="fill:#b8e7ff;fill-opacity:0.470588"
   inkscape:connector-curvature="0"
   d="m 3.21496,23.3728 c 0.49252,-0.09331 0.98622,-0.172441 1.48346,-0.23622 3.20433,-0.413386 6.47008,-0.113386 9.58465,1.52953 1.76811,0.950787 3.39449,1.84252 4.87441,2.6622 7.62756,4.4811 10.0795,5.89252 16.1031,4.24134 2.5122,-0.625984 6.02126,-2.59134 9.64961,-3.97441 l 0,0.320079 c -3.6,1.38307 -7.07953,3.33898 -9.5752,3.9626 -6.14764,1.69488 -8.62323,0.269291 -16.337,-4.26496 -1.4622,-0.811417 -3.0685,-1.69252 -4.8626,-2.66102 -2.96339,-1.55079 -6.12638,-1.82717 -9.26457,-1.42913 -0.552756,0.07087 -1.10551,0.159449 -1.65472,0.264567 L 3.21492,23.372809 z"
   class="fil7"
   id="_239984304" />
    <path
   style="fill:#b8e7ff;fill-opacity:0.45490202"
   inkscape:connector-curvature="0"
   d="m 3.21732,23.8276 c 0.620079,-0.111024 1.2437,-0.204331 1.87087,-0.277559 3.21378,-0.372047 6.47835,-0.09449 9.61181,1.4752 1.76811,0.91063 3.42283,1.77638 4.94291,2.58898 7.50591,4.35945 10.0217,5.77913 15.9685,4.2685 2.45787,-0.532677 5.82638,-2.2937 9.29882,-3.53386 l 0.0012,0.31063 c -3.44764,1.2437 -6.79488,2.99882 -9.23622,3.53386 -6.06614,1.55315 -8.60197,0.121654 -16.1882,-4.28976 -1.50236,-0.80315 -3.13583,-1.65945 -4.92756,-2.5878 -2.98701,-1.4811 -6.1535399,-1.73386 -9.3070899,-1.37717 -0.680315,0.07677 -1.35827,0.177165 -2.03386,0.298819 L 3.2173,23.827597 z"
   class="fil8"
   id="_239989392" />
    <path
   style="fill:#b8e7ff;fill-opacity:0.43921599"
   inkscape:connector-curvature="0"
   d="m 3.2185,24.2669 c 0.747638,-0.122835 1.50118,-0.225591 2.25827,-0.303543 3.22795,-0.33189 6.48543,-0.07441 9.64134,1.41969 1.76811,0.871654 3.44882,1.71142 5.01024,2.51457 7.38425,4.24016 9.96378,5.66811 15.8339,4.29803 2.39882,-0.445276 5.62913,-2.00433 8.94921,-3.10512 l 0.0012,0.302362 c -3.30236,1.10669 -6.5126,2.66575 -8.89724,3.11457 -5.98465,1.4126 -8.57953,-0.02598 -16.0417,-4.31457 -1.54252,-0.793701 -3.20079,-1.62402 -4.9878,-2.5122 -3.01772,-1.41024 -6.1830699,-1.64291 -9.3531499,-1.32874 -0.807874,0.0815 -1.6122,0.191339 -2.41299,0.320079 L 3.21858,24.26691 z"
   class="fil9"
   id="_239988936" />
    <path
   style="fill:#b8e7ff;fill-opacity:0.42352899"
   inkscape:connector-curvature="0"
   d="m 3.21969,24.6909 c 0.876378,-0.127559 1.75866,-0.233858 2.64685,-0.312992 3.23858,-0.290551 6.4937,-0.05551 9.66969,1.36535 1.76575,0.831496 3.4748,1.64528 5.07756,2.44016 7.26378,4.12087 9.90354,5.55472 15.698,4.3252 2.34094,-0.357874 5.43189,-1.72441 8.60079,-2.69291 l 0,0.296457 c -3.15472,0.973228 -6.2315,2.34567 -8.55945,2.70945 -5.90079,1.27205 -8.55591,-0.172441 -15.8917,-4.34055 -1.5815,-0.783071 -3.26693,-1.58858 -5.04921,-2.43543 -3.04606,-1.34055 -6.2126,-1.55197 -9.39921,-1.27795 -0.935433,0.08031 -1.86378,0.190157 -2.79094,0.320079 l -0.00236,-0.39685 z"
   class="fil10"
   id="_239984280" />
    <path
   style="fill:#b8e7ff;fill-opacity:0.40784302"
   inkscape:connector-curvature="0"
   d="m 3.22205,25.0961 c 1.00512,-0.122835 2.01496,-0.227953 3.03307,-0.305906 3.25039,-0.249213 6.50315,-0.03543 9.69921,1.31339 1.76575,0.790157 3.50197,1.57913 5.14606,2.36339 7.14094,4.00157 9.84449,5.4437 15.5622,4.35472 2.27835,-0.276378 5.2311,-1.45984 8.25118,-2.2937 l 0,0.287008 c -3.00945,0.844488 -5.95276,2.03976 -8.22047,2.32205 -5.81811,1.1315 -8.53465,-0.320079 -15.7429,-4.36654 -1.62165,-0.774803 -3.33307,-1.55433 -5.11417,-2.36102 -3.07205,-1.2685 -6.24094,-1.46102 -9.44291,-1.22598 -1.06181,0.07795 -2.11772,0.18189 -3.17008,0.301181 L 3.22206,25.09611 z"
   class="fil11"
   id="_239962440" />
    <path
   style="fill:#b8e7ff;fill-opacity:0.39215698"
   inkscape:connector-curvature="0"
   d="m 3.22323,25.4811 c 1.13622,-0.106299 2.27362,-0.20315 3.42165,-0.276378 3.2622,-0.209055 6.51024,-0.01772 9.72874,1.25906 1.76339,0.748819 3.52677,1.51181 5.2122,2.28898 7.01811,3.8811 9.78661,5.32913 15.4264,4.38189 2.21339,-0.197244 5.03031,-1.20709 7.90276,-1.91339 l 0,0.284646 c -2.86535,0.719291 -5.67756,1.73976 -7.88268,1.94646 -5.73543,0.989764 -8.51102,-0.468898 -15.5941,-4.39252 -1.66063,-0.765354 -3.39921,-1.52008 -5.17559,-2.28661 -3.10039,-1.19764 -6.26929,-1.3689 -9.48898,-1.1752 -1.18819,0.07087 -2.36811,0.161811 -3.54921,0.261024 L 3.22324,25.481109 z"
   class="fil12"
   id="_239990640" />
    <path
   style="fill:#b8e7ff;fill-opacity:0.38039198"
   inkscape:connector-curvature="0"
   d="m 3.22441,25.8402 c 1.26732,-0.08031 2.53228,-0.157087 3.81024,-0.222047 3.27165,-0.168898 6.51732,0.0024 9.75709,1.20354 1.7622,0.711024 3.55276,1.44803 5.27953,2.21457 6.89646,3.76181 9.72638,5.21929 15.2917,4.4126 2.14488,-0.124016 4.82598,-0.966142 7.55197,-1.55079 l 0.0012,0.27874 c -2.7248,0.597638 -5.40472,1.45866 -7.5437,1.58976 -5.65394,0.849213 -8.49094,-0.614173 -15.4476,-4.41732 -1.70079,-0.755906 -3.46417,-1.48583 -5.23701,-2.2122 -3.12874,-1.12559 -6.3,-1.27559 -9.5338599,-1.12441 -1.31339,0.0626 -2.6185,0.132283 -3.92835,0.199606 l -0.0012,-0.372047 z"
   class="fil13"
   id="_239969784" />
    <path
   style="fill:#b8e7ff;fill-opacity:0.364706"
   inkscape:connector-curvature="0"
   d="m 3.22559,26.1768 c 1.40079,-0.04016 2.79213,-0.09095 4.19882,-0.145276 3.28228,-0.127559 6.52559,0.02244 9.78661,1.15039 1.76102,0.670866 3.57874,1.38189 5.34567,2.14016 6.7748,3.64016 9.6685,5.10472 15.1559,4.44094 2.0752,-0.05433 4.62165,-0.738189 7.20354,-1.20591 l 0,0.276378 c -2.58307,0.48189 -5.13307,1.18583 -7.20472,1.24724 -5.57126,0.708661 -8.46732,-0.761811 -15.2965,-4.44213 -1.74213,-0.748819 -3.53031,-1.45157 -5.30197,-2.13661 -3.15591,-1.05591 -6.32835,-1.18583 -9.57874,-1.0748 -1.43858,0.04961 -2.86535,0.09213 -4.30748,0.114567 L 3.22554,26.176788 z"
   class="fil14"
   id="_239964720" />
    <path
   style="fill:#b8e7ff;fill-opacity:0.34902003"
   inkscape:connector-curvature="0"
   d="m 3.22677,26.4886 c 1.53661,0.01417 3.05315,-0.0047 4.58622,-0.0437 3.29409,-0.08622 6.53386,0.04134 9.81614,1.09606 1.75866,0.630709 3.60472,1.31575 5.41299,2.06457 6.65433,3.52087 9.61063,4.9937 15.0213,4.46929 2.00079,0.01299 4.41378,-0.524409 6.85394,-0.879921 l 0,0.275197 c -2.44606,0.370866 -4.86614,0.928346 -6.86693,0.924803 -5.4874,0.56811 -8.4437,-0.908268 -15.1488,-4.46693 -1.77992,-0.73937 -3.59528,-1.41732 -5.36339,-2.0622 -3.18307,-0.985039 -6.35669,-1.09488 -9.62362,-1.02283 -1.56142,0.03307 -3.10984,0.03661 -4.68661,0.0012 L 3.22683,26.488627 z"
   class="fil15"
   id="_239960448" />
    <path
   style="fill:#b8e7ff;fill-opacity:0.33333297"
   inkscape:connector-curvature="0"
   d="m 3.22795,26.7732 c 1.67717,0.08032 3.31535,0.10748 4.9748,0.08622 3.30591,-0.04724 6.54213,0.06024 9.84449,1.04055 1.75866,0.590551 3.63189,1.25079 5.48031,1.99016 6.53268,3.40157 9.55157,4.8815 14.8866,4.49764 1.92402,0.07441 4.20354,-0.325984 6.50315,-0.576378 l 0.0012,0.275197 c -2.30906,0.265748 -4.60039,0.687402 -6.52913,0.623622 -5.40472,0.426378 -8.42244,-1.05709 -14.9988,-4.49173 -1.82126,-0.731102 -3.6626,-1.38307 -5.42598,-1.98898 -3.21142,-0.912992 -6.38622,-1.00157 -9.6696899,-0.972047 -1.68307,0.01535 -3.35197,-0.02953 -5.06575,-0.135827 l -0.0012,-0.348425 z"
   class="fil16"
   id="_239968680" />
    <path
   style="fill:#b8e7ff;fill-opacity:0.317647"
   inkscape:connector-curvature="0"
   d="m 3.22913,27.0295 c 1.8189,0.161811 3.57992,0.244488 5.3622,0.242126 3.3189,-0.0059 6.54921,0.08031 9.8752,0.988583 1.7563,0.550394 3.65787,1.18465 5.54528,1.91457 6.4122,3.28228 9.4937,4.76929 14.752,4.52717 1.84606,0.129921 3.99331,-0.145276 6.15472,-0.296457 l 0,0.276378 c -2.17441,0.167717 -4.33701,0.464173 -6.18898,0.34252 -5.32441,0.287008 -8.4,-1.20354 -14.8524,-4.51654 -1.85906,-0.721654 -3.72874,-1.35 -5.48858,-1.91339 -3.2374,-0.842126 -6.41457,-0.91063 -9.71339,-0.922441 -1.80354,-0.0059 -3.58937,-0.108661 -5.44488,-0.3 l -0.00118,-0.34252 z"
   class="fil17"
   id="_239962320" />
    <path
   style="fill:#b8e7ff;fill-opacity:0.30196102"
   inkscape:connector-curvature="0"
   d="m 3.23031,27.2587 c 1.96654,0.258661 3.84449,0.406299 5.75079,0.426378 3.32835,0.03661 6.5563,0.100394 9.90354,0.934252 1.7563,0.510236 3.68386,1.1185 5.61496,1.84016 6.28937,3.16181 9.43346,4.65709 14.615,4.55551 1.76339,0.180709 3.77953,0.02126 5.80512,-0.03898 l 0,0.279921 c -2.04213,0.07559 -4.07717,0.255118 -5.85,0.08386 -5.24291,0.145276 -8.37756,-1.35236 -14.7035,-4.54252 -1.90039,-0.713386 -3.79488,-1.31339 -5.55118,-1.8378 C 15.54929,28.185859 12.37095,28.139796 9.05677,28.087827 7.13394,28.057117 5.23118,27.88704 3.23157,27.595307 L 3.23039,27.258693 z"
   class="fil18"
   id="_239969592" />
    <path
   style="fill:#b8e7ff;fill-opacity:0.28627499"
   inkscape:connector-curvature="0"
   d="m 3.23031,27.4583 c 2.11654,0.369685 4.11378,0.592913 6.14055,0.641339 3.34134,0.07559 6.56457,0.119291 9.93071,0.879921 1.7563,0.468898 3.71102,1.05236 5.68346,1.76575 6.16654,3.04134 9.37559,4.54488 14.4791,4.58268 1.67717,0.225591 3.56457,0.170079 5.45551,0.193701 l 0.0012,0.284646 c -1.91102,-0.01063 -3.82205,0.06614 -5.5122,-0.152362 -5.16024,0.0047 -8.3563,-1.49764 -14.5547,-4.56732 -1.94055,-0.703937 -3.85984,-1.27913 -5.61378,-1.76339 -3.29409,-0.702756 -6.47244,-0.72874 -9.8031499,-0.820866 -2.04094,-0.05669 -4.05827,-0.304724 -6.20551,-0.709843 L 3.2303,27.458304 z"
   class="fil19"
   id="_239962152" />
    <path
   style="fill:#b8e7ff;fill-opacity:0.27450998"
   inkscape:connector-curvature="0"
   d="m 3.2315,27.6307 c 2.27244,0.496063 4.38543,0.806693 6.52795,0.881102 3.35197,0.11811 6.57283,0.13937 9.96142,0.826772 1.75394,0.429921 3.73819,0.98622 5.74843,1.69016 6.04606,2.92205 9.31654,4.43386 14.3457,4.6122 1.5874,0.264567 3.34724,0.301181 5.10591,0.399213 l 0,0.28937 c -1.78228,-0.08622 -3.56811,-0.102756 -5.17205,-0.360236 -5.07756,-0.137008 -8.33504,-1.64528 -14.4071,-4.59331 -1.97953,-0.694488 -3.92598,-1.24488 -5.67638,-1.6878 -3.32126,-0.63189 -6.50079,-0.637795 -9.84921,-0.77126 C 7.66184,28.83069 5.53349,28.495257 3.23271,27.96258 L 3.23153,27.63069 z"
   class="fil20"
   id="_239961720" />
    <path
   style="fill:#b8e7ff;fill-opacity:0.25882401"
   inkscape:connector-curvature="0"
   d="m 3.2315,27.7748 c 2.43307,0.636614 4.65827,1.04528 6.91772,1.15157 3.3626,0.157087 6.5811,0.157087 9.98976,0.772441 1.75276,0.388583 3.76417,0.920079 5.81693,1.61457 5.92323,2.80157 9.25748,4.32165 14.2098,4.64055 1.49528,0.296457 3.12756,0.413386 4.75512,0.576378 l 0.0012,0.07677 c -0.03661,0.07323 -0.07795,0.144094 -0.122835,0.211417 -1.61457,-0.147638 -3.23268,-0.250394 -4.7126,-0.535039 -4.9937,-0.277559 -8.31142,-1.79291 -14.2583,-4.61929 -2.01732,-0.683858 -3.99213,-1.20945 -5.73661,-1.61339 -3.34961,-0.559843 -6.53268,-0.543307 -9.89409,-0.71811 -2.2677199,-0.11811 -4.5059099,-0.552756 -6.9649599,-1.22598 l -0.00118,-0.33189 z"
   class="fil21"
   id="_239963832" />
    <path
   style="fill:#b8e7ff;fill-opacity:0.24313702"
   inkscape:connector-curvature="0"
   d="m 3.23268,27.8917 c 2.59961,0.791339 4.93346,1.30748 7.30512,1.44803 3.37441,0.198425 6.58937,0.177165 10.0193,0.71811 1.75276,0.348425 3.79134,0.853937 5.88425,1.54016 5.80276,2.68228 9.19961,4.20945 14.074,4.6689 1.32874,0.307087 2.75433,0.486614 4.17874,0.692126 -0.08386,0.101575 -0.180709,0.191339 -0.288189,0.270472 -1.35945,-0.18189 -2.71417,-0.347244 -3.97913,-0.63189 -4.9122,-0.41811 -8.28898,-1.93937 -14.1094,-4.64409 -2.05866,-0.674409 -4.05827,-1.1752 -5.80157,-1.5378 -3.37559,-0.488976 -6.55984,-0.453543 -9.9378,-0.669685 -2.37638,-0.15 -4.72323,-0.693307 -7.34409,-1.52008 l -0.00118,-0.334252 z"
   class="fil22"
   id="_239966712" />
    <path
   style="fill:#b8e7ff;fill-opacity:0.22745098"
   inkscape:connector-curvature="0"
   d="m 3.23268,27.9839 c 2.77087,0.957874 5.21339,1.59331 7.69488,1.76929 3.38504,0.239764 6.59646,0.197244 10.0476,0.662598 1.75157,0.31063 3.81732,0.790157 5.95039,1.46811 5.68228,2.56181 9.14055,4.09606 13.9406,4.69724 1.10315,0.28937 2.26417,0.50315 3.42992,0.722835 -0.161811,0.09921 -0.348425,0.174803 -0.558661,0.223228 -1.01102,-0.183071 -2.01378,-0.369685 -2.97165,-0.615354 -4.82953,-0.558661 -8.26535,-2.08701 -13.9606,-4.66772 -2.09764,-0.668504 -4.12323,-1.14213 -5.86299,-1.46339 -3.40394,-0.419291 -6.58937,-0.36378 -9.98504,-0.618898 -2.48386,-0.186614 -4.93465,-0.848031 -7.72323,-1.84252 l -0.00118,-0.335433 z"
   class="fil23"
   id="_239961312" />
    <path
   style="fill:#b8e7ff;fill-opacity:0.21176501"
   inkscape:connector-curvature="0"
   d="m 3.23268,28.05 c 2.94921,1.1374 5.49567,1.90157 8.08465,2.11654 3.39685,0.279921 6.60472,0.216142 10.0772,0.609449 1.75039,0.269291 3.84213,0.724016 6.0189,1.39134 5.55827,2.44252 9.08031,3.98386 13.8024,4.72677 0.809055,0.238583 1.64528,0.441732 2.48622,0.641339 -0.13937,0.02953 -0.28937,0.04606 -0.45,0.05079 l -0.775984,0.0024 c -0.462992,-0.112205 -0.92126,-0.231496 -1.37008,-0.361417 -4.74685,-0.699213 -8.24528,-2.23465 -13.8142,-4.6937 -2.13661,-0.659055 -4.18819,-1.10787 -5.92441,-1.38898 -3.43228,-0.347244 -6.61772,-0.270472 -10.0287,-0.56811 -2.58898,-0.225591 -5.14252,-1.01457 -8.10472,-2.18622 l -0.00118,-0.340157 z"
   class="fil24"
   id="_239977368" />
    <path
   style="fill:#b8e7ff;fill-opacity:0.19607801"
   inkscape:connector-curvature="0"
   d="m 3.23268,28.089 c 3.13346,1.33228 5.78031,2.23819 8.47441,2.49213 3.40748,0.320079 6.61181,0.233858 10.1055,0.553937 1.75039,0.230315 3.86929,0.657874 6.08622,1.31811 5.43661,2.32205 9.02244,3.87047 13.6689,4.75394 0.406299,0.132283 0.816142,0.258661 1.23189,0.380315 l -1.2,0.0047 -0.153543,-0.04961 c -4.66535,-0.840945 -8.22283,-2.3811 -13.6654,-4.71969 -2.17795,-0.649606 -4.25551,-1.07362 -5.98819,-1.31457 -3.45945,-0.276378 -6.64606,-0.178346 -10.0736,-0.516142 -2.69173,-0.264567 -5.34331,-1.19291 -8.48386,-2.55472 l -0.00236,-0.348425 z"
   class="fil25"
   id="_239982552" />
    <path
   style="fill:#b8e7ff;fill-opacity:0.18039198"
   inkscape:connector-curvature="0"
   d="m 3.23268,28.1067 c 3.32244,1.53543 6.06969,2.59134 8.86299,2.8878 3.42047,0.361417 6.62008,0.255118 10.135,0.500787 1.74803,0.188976 3.89528,0.591732 6.15236,1.24252 5.31614,2.20157 8.96339,3.75827 13.5331,4.78228 l 0.198425,0.06969 -1.47638,0.0047 c -4.06299,-0.98622 -7.50354,-2.45433 -12.3697,-4.48228 -2.21693,-0.641339 -4.32165,-1.03937 -6.04961,-1.23898 -3.4878,-0.205512 -6.67559,-0.0874 -10.1185,-0.467717 -2.79331,-0.307087 -5.54055,-1.37953 -8.86535,-2.94213 l -0.00236,-0.356693 z"
   class="fil26"
   id="_239968560" />
    <path
   style="fill:#b8e7ff;fill-opacity:0.164706"
   inkscape:connector-curvature="0"
   d="m 3.23268,28.102 c 3.51732,1.75157 6.36024,2.96575 9.25157,3.30591 3.4311,0.402756 6.62953,0.274016 10.1646,0.446457 1.74685,0.148819 3.92126,0.525591 6.21969,1.16811 4.84488,1.94055 8.39882,3.43346 12.502,4.56969 l -1.35709,0.0047 c -3.60827,-1.05945 -6.89882,-2.43661 -11.2559,-4.19528 -2.25709,-0.63189 -4.3878,-1.00394 -6.11457,-1.16339 -3.51378,-0.135827 -6.70394,0.0024 -10.1622,-0.416929 C 9.5918,31.470481 6.74771,30.243318 3.23511,28.469298 L 3.23275,28.101975 z"
   class="fil27"
   id="_239974392" />
    <path
   style="fill:#b8e7ff;fill-opacity:0.152941"
   inkscape:connector-curvature="0"
   d="m 3.23268,28.0772 c 3.72047,1.97598 6.65315,3.35906 9.64134,3.74409 3.44291,0.442913 6.63661,0.294094 10.1941,0.393307 1.74567,0.109843 3.94724,0.458268 6.28583,1.09134 4.37717,1.6937 7.78819,3.09685 11.4791,4.28858 l -1.23898,0.0035 c -3.27756,-1.09016 -6.4122,-2.37402 -10.3488,-3.90709 -2.29843,-0.622441 -4.45394,-0.969685 -6.17598,-1.08898 -3.54213,-0.06378 -6.73465,0.09449 -10.2094,-0.364961 -2.98228,-0.39685 -5.91732,-1.78819 -9.6248,-3.78189 L 3.23273,28.077143 z"
   class="fil28"
   id="_239969424" />
    <path
   style="fill:#b8e7ff;fill-opacity:0.13725502"
   inkscape:connector-curvature="0"
   d="m 3.23268,28.0323 c 3.92717,2.21339 6.95197,3.77008 10.0311,4.20118 3.45354,0.484252 6.64488,0.315354 10.2213,0.341339 1.74567,0.06732 3.97559,0.393307 6.35433,1.01693 3.98504,1.4811 7.24724,2.79449 10.6299,4.00394 l -1.16693,0.0035 c -3.01772,-1.08898 -5.99528,-2.27953 -9.57047,-3.61772 -2.33622,-0.614173 -4.5189,-0.936614 -6.2374,-1.01693 -3.56929,0.0071 -6.76299,0.188976 -10.2531,-0.314173 C 10.167,32.209815 7.14338,30.647216 3.23391,28.424386 L 3.23273,28.03226 z"
   class="fil29"
   id="_239962992" />
    <path
   style="fill:#b8e7ff;fill-opacity:0.12156899"
   inkscape:connector-curvature="0"
   d="m 3.23268,27.9673 c 4.13858,2.45669 7.25079,4.20118 10.4197,4.68071 3.46535,0.525591 6.65315,0.333071 10.2508,0.284646 1.74567,0.02953 4.00157,0.328346 6.42165,0.943701 3.63898,1.29685 6.74882,2.51811 9.88465,3.71929 l -1.12559,0.0035 c -2.79685,-1.06417 -5.6126,-2.16142 -8.86299,-3.32835 -2.37638,-0.604724 -4.58622,-0.902362 -6.3,-0.941339 -3.59764,0.07677 -6.79252,0.27874 -10.3004,-0.263386 -3.16299,-0.490157 -6.27402,-2.23228 -10.3866,-4.69252 L 3.23272,27.967253 z"
   class="fil30"
   id="_239978040" />
    <path
   style="fill:#b8e7ff;fill-opacity:0.10588199"
   inkscape:connector-curvature="0"
   d="m 3.23268,27.887 c 4.35827,2.70827 7.55433,4.64528 10.8083,5.17441 3.47835,0.565748 6.6626,0.351969 10.2815,0.231496 1.74213,-0.01181 4.02756,0.262205 6.48898,0.86811 3.32717,1.1315 6.28346,2.26063 9.20906,3.43583 l -1.10315,0.0035 c -2.60079,-1.0252 -5.25236,-2.02795 -8.20866,-3.04016 -2.41654,-0.596457 -4.65118,-0.866929 -6.36378,-0.865748 -3.62362,0.147638 -6.81969,0.369685 -10.3441,-0.21378 -3.25039,-0.538583 -6.44291,-2.46732 -10.7669,-5.17087 L 3.23275,27.886953 z"
   class="fil31"
   id="_239959872" />
    <path
   style="fill:#b8e7ff;fill-opacity:0.09019602"
   inkscape:connector-curvature="0"
   d="m 3.2315,27.789 c 4.5815,2.96693 7.86024,5.10472 11.1992,5.68701 3.48898,0.605906 6.66969,0.370866 10.3098,0.175984 1.74213,-0.05197 4.05354,0.197244 6.5563,0.793701 3.04134,0.982677 5.83819,2.01969 8.57598,3.15118 l -1.0937,0.0035 C 36.359,36.628371 33.87869,35.722468 31.19758,34.849628 28.73971,34.26262 26.47908,34.01577 24.7712,34.058289 21.11805,34.276793 17.92199,34.5201 14.3822,33.896478 11.04677,33.308289 7.77157,31.185848 3.2338,28.228368 l -0.00236,-0.43937 z"
   class="fil32"
   id="_239970720" />
    <path
   style="fill:#b8e7ff;fill-opacity:0.07450998"
   inkscape:connector-curvature="0"
   d="m 3.2315,27.6768 c 4.81063,3.23386 8.1685,5.57953 11.5902,6.2126 3.49843,0.646063 6.67441,0.390945 10.337,0.122835 1.74094,-0.09213 4.07953,0.129921 6.62362,0.716929 2.77795,0.84685 5.41063,1.79291 7.9748,2.8689 l -1.09843,0.0035 C 36.41341,36.695701 34.1079,35.881917 31.68428,35.137827 29.18861,34.561449 26.90082,34.340583 25.1953,34.42326 21.51617,34.71263 18.31774,34.976016 14.7614,34.309874 11.34447,33.672079 7.99132,31.348854 3.2338,28.133894 L 3.23144,27.676807 z"
   class="fil33"
   id="_239982264" />
    <path
   style="fill:#b8e7ff;fill-opacity:0.05882401"
   inkscape:connector-curvature="0"
   d="m 3.2315,27.5504 c 5.04331,3.50669 8.47795,6.06614 11.9787,6.75236 3.51024,0.687402 6.68386,0.409843 10.3677,0.0685 1.73976,-0.132283 4.10551,0.06378 6.68976,0.643701 2.52756,0.722835 4.99016,1.57323 7.3878,2.58307 l -1.11024,0.0035 C 36.47239,36.771216 34.34758,36.054291 32.17199,35.427121 29.63616,34.860192 27.32238,34.664129 25.6216,34.786964 21.91412,35.1472 18.71451,35.431846 15.1429,34.725544 11.64566,34.034599 8.21455,31.508224 3.2327,28.026334 L 3.2315189,27.5504 z"
   class="fil34"
   id="_239962200" />
    <path
   style="fill:#b8e7ff;fill-opacity:0.047059"
   inkscape:connector-curvature="0"
   d="m 3.23031,27.4134 0.196063,0.138189 c 5.17441,3.71457 8.64213,6.43346 12.1724,7.16457 3.52323,0.72874 6.69213,0.429921 10.3972,0.01535 1.7374,-0.172441 4.13268,-0.0024 6.75709,0.566929 2.29134,0.609449 4.57913,1.36654 6.81496,2.29961 l -1.1374,0.0035 c -1.89921,-0.742913 -3.8315,-1.36654 -5.76969,-1.88504 -2.57598,-0.558661 -4.91693,-0.727559 -6.61299,-0.564567 -3.73583,0.431102 -6.93661,0.734646 -10.5248,-0.01063 -3.57402,-0.745276 -7.08189,-3.48425 -12.2906,-7.23543 l -0.00236,-0.49252 z"
   class="fil35"
   id="_239976960" />
    <path
   style="fill:#b8e7ff;fill-opacity:0.03137303"
   inkscape:connector-curvature="0"
   d="m 3.23031,27.2728 c 0.159449,0.108661 0.317717,0.223228 0.478346,0.34252 5.25709,3.88937 8.7378,6.74291 12.2799,7.51417 3.53386,0.768898 6.70039,0.448819 10.4256,-0.03898 1.7374,-0.212598 4.15748,-0.06732 6.82441,0.493701 2.06339,0.504331 4.17165,1.16693 6.24213,2.01378 l -1.17638,0.0047 c -1.71614,-0.648425 -3.45118,-1.17756 -5.15551,-1.59685 -2.61614,-0.549213 -4.98189,-0.693307 -6.67677,-0.490157 -3.76299,0.501969 -6.96496,0.827953 -10.5685,0.03898 -3.59528,-0.786614 -7.12323,-3.66614 -12.4311,-7.60039 L 3.231491,27.779471 3.230311,27.272778 z"
   class="fil36"
   id="_239967672" />
    <path
   style="fill:#b8e7ff;fill-opacity:0.01568598"
   inkscape:connector-curvature="0"
   d="m 3.22913,27.1287 c 0.251575,0.170079 0.506693,0.35315 0.762992,0.548031 5.33858,4.06535 8.8311,7.05472 12.385,7.86614 3.54567,0.810236 6.70866,0.468898 10.4563,-0.09331 1.73504,-0.251575 4.18465,-0.133465 6.89173,0.41811 1.84134,0.408661 3.76063,0.980315 5.65984,1.7315 l -1.22953,0.0035 c -1.52244,-0.54685 -3.04606,-0.979134 -4.52008,-1.3063 -2.65512,-0.542126 -5.04685,-0.660236 -6.73701,-0.416929 -3.79134,0.572835 -6.99449,0.918898 -10.6146,0.09094 -3.61063,-0.826772 -7.15512,-3.84094 -12.5457,-7.95118 -0.170079,-0.12987 -0.338976,-0.252705 -0.506693,-0.370815 l -0.00236,-0.519685 z"
   class="fil37"
   id="_239971776" />
   </g>
   <g
   id="g93">
    <path
   style="fill:#458bc9;fill-opacity:0.43137303"
   inkscape:connector-curvature="0"
   d="M 44.4827,5.99646 C 40.91341,6.018901 37.66301,6.014176 34.71735,6.01772 17.16735,5.552366 11.83585,5.521657 3.24095,18.33902 L 3.196068,18.40516 3.191348,17.12721 C 8.6232337,9.1783915 12.824414,6.3012115 19.654744,5.3788115 l 23.2406,0.023622 c 0.715748,0.00118 1.25315,0.205512 1.5874,0.594094 z"
   class="fil38"
   id="_239958768" />
    <path
   style="fill:#458bc9;fill-opacity:0.41960802"
   inkscape:connector-curvature="0"
   d="M 44.4472,5.95512 C 40.67476,6.081498 37.21885,6.196065 34.0771,6.316537 17.0586,6.033072 11.5736,6.153545 3.1948,18.201937 L 3.19008,16.940517 C 9.92,7.464537 14.90068,5.597217 25.54598,5.384617 l 5.9752,0.00591 2.54409,0.040157 0.988583,-0.036614 7.84134,0.00827 c 0.690945,0.00118 1.21535,0.190157 1.55197,0.552756 z"
   class="fil39"
   id="_239971200" />
    <path
   style="fill:#458bc9;fill-opacity:0.40784302"
   inkscape:connector-curvature="0"
   d="m 44.3634,5.87362 -0.335433,0.029528 c -3.82205,0.229134 -7.35236,0.47126 -10.5898,0.712205 -16.4634,-0.106299 -22.0937,0.158268 -30.2433,11.4189 l -0.00472,-1.24488 C 11.272423,5.8558726 17.042143,5.6090726 33.413343,5.7295726 c 1.50945,-0.111024 3.08504,-0.223228 4.73504,-0.33189 l 4.74685,0.00472 c 0.636614,0 1.1315,0.162992 1.46811,0.47126 z"
   class="fil40"
   id="_239977104" />
    <path
   style="fill:#458bc9;fill-opacity:0.4"
   inkscape:connector-curvature="0"
   d="m 44.2004,5.7437 c -0.282283,0.043701 -0.566929,0.082677 -0.853937,0.114567 -3.76535,0.330709 -7.2874,0.694488 -10.5484,1.05591 -15.9142,0.062598 -21.672,0.470079 -29.6043,10.9819 l -0.00472,-1.22835 c 7.86732,-10.2118 13.7492,-10.5945 29.5713,-10.6429 1.92756,-0.210236 3.94961,-0.422835 6.08268,-0.627165 l 4.05236,0.00472 c 0.539764,0 0.977953,0.11811 1.30512,0.341339 z"
   class="fil41"
   id="_239959728" />
    <path
   style="fill:#458bc9;fill-opacity:0.38823499"
   inkscape:connector-curvature="0"
   d="m 43.9193,5.58898 c -0.414567,0.087402 -0.830315,0.162992 -1.25197,0.224409 -3.7122,0.432283 -7.2248,0.920079 -10.5094,1.39961 -15.372,0.227953 -21.2398,0.773622 -28.9642,10.5803 l -0.00472,-1.21417 c 7.66299,-9.53031 13.6382,-10.0488 28.9181,-10.2567 2.15669,-0.311811 4.41142,-0.625984 6.79016,-0.923622 l 3.99803,0.00354 c 0.398031,0 0.740551,0.063779 1.02402,0.186614 z"
   class="fil42"
   id="_239986680" />
    <path
   style="fill:#458bc9;fill-opacity:0.38039198"
   inkscape:connector-curvature="0"
   d="M 43.4457,5.44843 C 42.964991,5.572446 42.479558,5.679926 41.98822,5.76969 38.32916,6.301186 34.82602,6.913 31.52012,7.50945 16.68312,7.898033 10.72092,8.5748 3.19372,17.72245 L 3.189,16.52009 c 7.465746,-8.89016 13.521296,-9.53622 28.267296,-9.90118 2.30315,-0.412205 4.70551,-0.830315 7.22244,-1.22126 l 4.21654,0.00472 c 0.197244,0 0.381496,0.015354 0.550394,0.046063 z"
   class="fil43"
   id="_239960616" />
    <path
   style="fill:#458bc9;fill-opacity:0.36862703"
   inkscape:connector-curvature="0"
   d="m 42.5953,5.40236 c -0.425197,0.121654 -0.853937,0.229134 -1.2874,0.323622 -3.60472,0.63189 -7.09724,1.36654 -10.428,2.08228 -14.3091,0.540945 -20.3457,1.34528 -27.6862,9.87638 l -0.00472,-1.19173 c 7.28031,-8.29252 13.3949,-9.06496 27.613,-9.57638 2.41063,-0.51378 4.90748,-1.03583 7.50827,-1.5189 l 4.28504,0.00472 z"
   class="fil44"
   id="_239969112" />
    <path
   style="fill:#458bc9;fill-opacity:0.35686298"
   inkscape:connector-curvature="0"
   d="m 41.628,5.40118 c -0.330709,0.101575 -0.66378,0.194882 -0.999213,0.281102 -3.55157,0.731102 -7.03583,1.58976 -10.3878,2.4248 -13.7906,0.687402 -19.885,1.61457 -27.0472,9.56811 l -0.00472,-1.18228 c 7.10315,-7.73504 13.2626,-8.62323 26.961,-9.27874 2.49213,-0.615354 5.05866,-1.24134 7.71142,-1.81654 l 3.76654,0.00354 z"
   class="fil45"
   id="_239973960" />
    <path
   style="fill:#458bc9;fill-opacity:0.34902003"
   inkscape:connector-curvature="0"
   d="m 40.7067,5.4 c -0.250394,0.083858 -0.504331,0.162992 -0.758268,0.237402 -3.49724,0.833858 -6.97205,1.81535 -10.3476,2.76732 -13.2803,0.829134 -19.4161,1.87205 -26.4071,9.29173 l -0.00472,-1.17756 c 6.93189,-7.21181 13.1209,-8.21575 26.3079,-9.00827 2.55709,-0.716929 5.17441,-1.44803 7.85315,-2.11417 l 3.35669,0.00354 z"
   class="fil46"
   id="_239985984" />
    <path
   style="fill:#458bc9;fill-opacity:0.33725502"
   inkscape:connector-curvature="0"
   d="m 39.8315,5.39882 -0.562205,0.196063 c -3.44409,0.93189 -6.90827,2.0374 -10.3075,3.10866 -12.7795,0.962598 -18.939,2.12008 -25.7681,9.04016 l -0.00472,-1.17047 c 6.7689,-6.72874 12.9709,-7.84252 25.6559,-8.76496 2.61614,-0.819685 5.27008,-1.65472 7.96654,-2.41181 l 3.02008,0.00236 z"
   class="fil47"
   id="_239987016" />
    <path
   style="fill:#458bc9;fill-opacity:0.32549002"
   inkscape:connector-curvature="0"
   d="m 38.9846,5.39882 -0.395669,0.151181 c -3.38976,1.03346 -6.84567,2.26181 -10.2673,3.45236 -12.2858,1.09134 -18.4547,2.35394 -25.128,8.81457 l -0.00472,-1.16575 c 6.61181,-6.2811 12.8114,-7.49882 25.0028,-8.54528 2.66575,-0.92126 5.35157,-1.8626 8.05157,-2.71063 l 2.74134,0.00354 z"
   class="fil48"
   id="_239963448" />
    <path
   style="fill:#458bc9;fill-opacity:0.317647"
   inkscape:connector-curvature="0"
   d="m 38.1685,5.39764 -0.258661,0.108661 c -3.33543,1.13268 -6.78189,2.48504 -10.2272,3.79488 -11.8028,1.21181 -17.9669,2.57953 -24.489,8.61378 l -0.00354,-1.16102 c 6.46063,-5.86772 12.6425,-7.18465 24.3484,-8.35157 2.70945,-1.02283 5.41772,-2.06811 8.11417,-3.00709 l 2.51575,0.00236 z"
   class="fil49"
   id="_239991216" />
    <path
   style="fill:#458bc9;fill-opacity:0.30588199"
   inkscape:connector-curvature="0"
   d="m 37.3724,5.39646 -0.144094,0.066142 c -3.2811,1.23425 -6.71693,2.70945 -10.1858,4.13504 -11.328,1.32874 -17.4697,2.79213 -23.8476,8.43661 l -0.00472,-1.15748 c 6.31181,-5.4874 12.463,-6.89882 23.6965,-8.17677 2.74961,-1.12441 5.47913,-2.27598 8.16614,-3.30591 l 2.31969,0.00236 z"
   class="fil50"
   id="_239975712" />
    <path
   style="fill:#458bc9;fill-opacity:0.29803898"
   inkscape:connector-curvature="0"
   d="m 36.5953,5.39646 -0.04606,0.022441 c -3.22795,1.33465 -6.65433,2.9315 -10.1457,4.47756 -10.8638,1.43858 -16.9736,2.99528 -23.2087,8.27953 L 3.1913,17.018511 c 6.1689,-5.13661 12.2776,-6.63543 23.0421,-8.02205 2.7874,-1.22598 5.5311,-2.48031 8.20512,-3.60236 l 2.15669,0.00236 z"
   class="fil51"
   id="_239965272" />
    <path
   style="fill:#458bc9;fill-opacity:0.28627499"
   inkscape:connector-curvature="0"
   d="m 35.8264,5.39528 c -3.16181,1.42913 -6.56457,3.14409 -10.063,4.8 C 15.3543,11.7378 9.2941,13.38071 3.1961,18.3378 L 3.19138,17.1815 c 6.02953,-4.81654 12.0803,-6.40157 22.389,-7.8874 2.82165,-1.32874 5.57598,-2.68937 8.23228,-3.90118 l 2.01378,0.00236 z"
   class="fil52"
   id="_239959896" />
    <path
   style="fill:#458bc9;fill-opacity:0.27450998"
   inkscape:connector-curvature="0"
   d="m 35.0622,5.39409 c -3.08504,1.52126 -6.44882,3.34134 -9.9378,5.1 -9.96496,1.63819 -15.965,3.36496 -21.9283,8.02087 l -0.00354,-1.1563 c 5.89134,-4.52244 11.8713,-6.1878 21.737,-7.76693 2.85354,-1.43031 5.6185,-2.89488 8.25354,-4.19882 l 1.87913,0.00118 z"
   class="fil53"
   id="_239990160" />
    <path
   style="fill:#458bc9;fill-opacity:0.26666703"
   inkscape:connector-curvature="0"
   d="m 34.3087,5.39409 c -3.01417,1.61575 -6.34134,3.53622 -9.82441,5.39764 -9.53031,1.73031 -15.4559,3.53504 -21.287,7.91811 L 3.19257,17.55236 c 5.75551,-4.25551 11.6551,-5.99528 21.0839,-7.66417 2.88307,-1.53307 5.65866,-3.10394 8.27126,-4.49646 l 1.76102,0.00236 z"
   class="fil54"
   id="_239973384" />
    <path
   style="fill:#458bc9;fill-opacity:0.25490202"
   inkscape:connector-curvature="0"
   d="m 33.5681,5.39291 c -2.94567,1.70551 -6.24094,3.73465 -9.72283,5.69646 -9.1063,1.81654 -14.948,3.69331 -20.6469,7.82835 L 3.19365,17.75906 C 8.81452,13.74449 14.62085,11.93623 23.62315,10.18583 26.53693,8.55 29.31961,6.87402 31.90858,5.39055 l 1.65945,0.00236 z"
   class="fil55"
   id="_239980800" />
    <path
   style="fill:#458bc9;fill-opacity:0.247059"
   inkscape:connector-curvature="0"
   d="m 32.8382,5.39173 c -2.88307,1.79764 -6.15118,3.93189 -9.63307,5.99646 -8.69173,1.89567 -14.4378,3.8374 -20.0067,7.74685 L 3.19489,17.97638 c 5.48622,-3.79252 11.1909,-5.66693 19.7764,-7.49291 2.94213,-1.7374 5.72953,-3.51969 8.29134,-5.09291 l 1.57559,0.00118 z"
   class="fil56"
   id="_239982216" />
    <path
   style="fill:#458bc9;fill-opacity:0.235294"
   inkscape:connector-curvature="0"
   d="m 32.1165,5.39173 c -2.82283,1.88858 -6.06496,4.12913 -9.55039,6.29528 -8.28661,1.96772 -13.9287,3.97087 -19.3665,7.67953 l -0.00472,-1.1622 c 5.35276,-3.59291 10.9441,-5.52756 19.1232,-7.42441 2.96929,-1.8378 5.76142,-3.72638 8.29488,-5.39055 l 1.50354,0.00236 z"
   class="fil57"
   id="_239983896" />
    <path
   style="fill:#458bc9;fill-opacity:0.22352899"
   inkscape:connector-curvature="0"
   d="m 31.3996,5.39055 c -2.76496,1.97953 -5.98465,4.3252 -9.47362,6.59409 -7.89213,2.03504 -13.4185,4.09488 -18.7252,7.62047 L 3.19606,18.43936 c 5.21693,-3.41339 10.6878,-5.40118 18.4689,-7.36181 2.99764,-1.94173 5.79094,-3.93307 8.29606,-5.68819 l 1.43858,0.00118 z"
   class="fil58"
   id="_239963712" />
    <path
   style="fill:#458bc9;fill-opacity:0.21568598"
   inkscape:connector-curvature="0"
   d="m 30.6874,5.38937 c -2.70945,2.07283 -5.90669,4.5248 -9.40039,6.89409 -7.50591,2.09528 -12.9094,4.20827 -18.085,7.56732 L 3.19729,18.68149 c 5.08228,-3.25157 10.4209,-5.2878 17.8146,-7.3063 3.02362,-2.04331 5.82047,-4.13976 8.29488,-5.98701 l 1.38071,0.00118 z"
   class="fil59"
   id="_239986728" />
    <path
   style="fill:#458bc9;fill-opacity:0.20392199"
   inkscape:connector-curvature="0"
   d="m 29.9811,5.38937 c -2.65512,2.16378 -5.83228,4.72087 -9.33425,7.19173 -7.12913,2.14961 -12.4016,4.30984 -17.4437,7.52244 l -0.00472,-1.1752 c 4.94646,-3.10512 10.1457,-5.18622 17.1614,-7.25669 3.04843,-2.14488 5.84764,-4.34764 8.29134,-6.28346 l 1.32992,0.00118 z"
   class="fil60"
   id="_239979720" />
    <path
   style="fill:#458bc9;fill-opacity:0.19607801"
   inkscape:connector-curvature="0"
   d="m 29.2783,5.38819 c -2.60197,2.25472 -5.7626,4.91929 -9.26929,7.49173 -6.76535,2.19921 -11.8972,4.39961 -16.8059,7.47874 L 3.19957,19.17874 c 4.80709,-2.9752 9.85984,-5.09409 16.5071,-7.20945 3.07323,-2.24764 5.8748,-4.55551 8.28661,-6.58228 l 1.28504,0.00118 z"
   class="fil61"
   id="_239982096" />
    <path
   style="fill:#458bc9;fill-opacity:0.18431402"
   inkscape:connector-curvature="0"
   d="m 28.5803,5.38819 c -2.55118,2.34567 -5.69409,5.11417 -9.21024,7.78937 -6.40866,2.24291 -11.3941,4.47874 -16.1657,7.43858 L 3.19964,19.43031 c 4.66654,-2.85709 9.56693,-5.00906 15.8551,-7.16339 3.09685,-2.34921 5.89724,-4.76339 8.27835,-6.8811 l 1.24724,0.00236 z"
   class="fil62"
   id="_239961216" />
    <path
   style="fill:#458bc9;fill-opacity:0.17254902"
   inkscape:connector-curvature="0"
   d="m 27.8858,5.38701 c -2.50157,2.4378 -5.62913,5.3126 -9.15591,8.08937 -6.0626,2.27835 -10.8921,4.54488 -15.5244,7.39724 L 3.20077,19.68071 c 4.52362,-2.74961 9.26339,-4.92874 15.2008,-7.11732 3.12165,-2.45197 5.92205,-4.97008 8.27008,-7.17756 l 1.21417,0.00118 z"
   class="fil63"
   id="_239967000" />
    <path
   style="fill:#458bc9;fill-opacity:0.164706"
   inkscape:connector-curvature="0"
   d="m 27.1902,5.38583 c -2.45315,2.5311 -5.56299,5.50984 -9.10039,8.38937 -5.72244,2.30669 -10.3925,4.59803 -14.8831,7.35354 L 3.20199,19.92992 c 4.37717,-2.65512 8.95039,-4.85433 14.5476,-7.0689 3.14528,-2.55472 5.94567,-5.17913 8.25945,-7.47638 l 1.1811,0.00118 z"
   class="fil64"
   id="_239975928" />
    <path
   style="fill:#458bc9;fill-opacity:0.152941"
   inkscape:connector-curvature="0"
   d="m 26.5004,5.38583 c -2.40472,2.62087 -5.50157,5.70591 -9.05079,8.68819 -5.39173,2.33031 -9.89646,4.64055 -14.2417,7.30866 L 3.20319,20.17796 c 4.22717,-2.56654 8.62795,-4.78465 13.8933,-7.02047 3.1689,-2.65512 5.96929,-5.38465 8.24882,-7.77283 l 1.15512,0.00118 z"
   class="fil65"
   id="_239975256" />
    <path
   style="fill:#458bc9;fill-opacity:0.14509798"
   inkscape:connector-curvature="0"
   d="m 25.813,5.38465 c -2.35866,2.71181 -5.44134,5.90315 -9.00118,8.98701 -5.07283,2.34685 -9.4063,4.67008 -13.6028,7.26024 L 3.2043,20.41891 c 4.07362,-2.48858 8.29606,-4.71614 13.2402,-6.96378 3.19252,-2.75787 5.99055,-5.5937 8.23583,-8.07165 l 1.13268,0.00118 z"
   class="fil66"
   id="_239989560" />
    <path
   style="fill:#458bc9;fill-opacity:0.13333297"
   inkscape:connector-curvature="0"
   d="m 25.1268,5.38465 c -2.3126,2.80394 -5.38346,6.10039 -8.9563,9.28465 -4.75984,2.35866 -8.91496,4.6878 -12.9614,7.20591 L 3.20438,20.65277 c 3.91772,-2.41654 7.95827,-4.64528 12.587,-6.9 3.21496,-2.86063 6.01299,-5.80157 8.22402,-8.36929 l 1.11142,0.00118 z"
   class="fil67"
   id="_239972448" />
    <path
   style="fill:#458bc9;fill-opacity:0.12156899"
   inkscape:connector-curvature="0"
   d="M 24.4429,5.38346 C 22.17518,8.27834 19.11731,11.6811 15.53266,14.96811 11.074,17.32795 7.09959,19.65827 3.21026,22.11142 L 3.20554,20.87953 c 3.75709,-2.34803 7.61102,-4.57559 11.9327,-6.83031 3.2374,-2.96102 6.03307,-6.00709 8.20984,-8.66693 l 1.09488,0.00118 z"
   class="fil68"
   id="_239989776" />
    <path
   style="fill:#458bc9;fill-opacity:0.11372501"
   inkscape:connector-curvature="0"
   d="m 23.7591,5.38228 c -2.22283,2.98583 -5.26654,6.4937 -8.86654,9.88346 C 10.72799,17.62322 6.9402,19.94763 3.21146,22.337 L 3.20674,21.09566 c 3.59173,-2.28661 7.25197,-4.50236 11.2807,-6.74882 3.25984,-3.06496 6.05315,-6.21496 8.19331,-8.96575 l 1.07835,0.00118 z"
   class="fil69"
   id="_239976192" />
    <path
   style="fill:#458bc9;fill-opacity:0.10196102"
   inkscape:connector-curvature="0"
   d="m 23.0787,5.38228 c -2.17913,3.07913 -5.21339,6.69094 -8.8252,10.1823 -3.87756,2.34567 -7.47638,4.65709 -11.0421,6.98976 L 3.20668,21.30119 c 3.42283,-2.2252 6.88937,-4.42677 10.6264,-6.65669 3.28228,-3.16772 6.07441,-6.42283 8.17913,-9.26339 l 1.06654,0.00118 z"
   class="fil70"
   id="_239976336" />
    <path
   style="fill:#458bc9;fill-opacity:0.09019602"
   inkscape:connector-curvature="0"
   d="m 22.3984,5.3811 c -2.13425,3.17008 -5.15787,6.88819 -8.78504,10.4823 -3.59764,2.32559 -7.00394,4.61811 -10.4008,6.89291 L 3.20784,21.48899 c 3.24803,-2.16614 6.51614,-4.34055 9.97323,-6.54803 3.30354,-3.26811 6.09213,-6.62953 8.16142,-9.56102 l 1.05591,0.00118 z"
   class="fil71"
   id="_239962272" />
    <path
   style="fill:#458bc9;fill-opacity:0.082353"
   inkscape:connector-curvature="0"
   d="m 21.7193,5.3811 c -2.09055,3.26102 -5.10354,7.08425 -8.74488,10.7799 -3.32835,2.29961 -6.5374,4.56142 -9.76063,6.78189 L 3.20907,21.66376 c 3.0685,-2.10827 6.13465,-4.25079 9.3189,-6.4252 3.32598,-3.37087 6.11339,-6.8374 8.14606,-9.85866 l 1.04528,0.00118 z"
   class="fil72"
   id="_239967480" />
    <path
   style="fill:#458bc9;fill-opacity:0.070588"
   inkscape:connector-curvature="0"
   d="m 21.0413,5.37992 c -2.04803,3.35315 -5.05157,7.2815 -8.70709,11.0787 -3.06496,2.26417 -6.07559,4.49291 -9.12047,6.65551 L 3.20902,21.81846 c 2.88425,-2.04803 5.74724,-4.15039 8.66693,-6.28228 3.34724,-3.47362 6.13228,-7.04646 8.12835,-10.1575 l 1.03701,0.00118 z"
   class="fil73"
   id="_239976576" />
    <path
   style="fill:#458bc9;fill-opacity:0.06274498"
   inkscape:connector-curvature="0"
   d="m 20.3634,5.37874 c -2.00551,3.44409 -4.99724,7.47992 -8.66811,11.3787 -2.80984,2.21929 -5.6185,4.40315 -8.48031,6.50787 l -0.00472,-1.3122 c 2.69646,-1.98661 5.35039,-4.03819 8.0126,-6.12047 3.36969,-3.5752 6.15354,-7.25197 8.11299,-10.4551 l 1.02756,0.00118 z"
   class="fil74"
   id="_239967744" />
    <path
   style="fill:#458bc9;fill-opacity:0.05097997"
   inkscape:connector-curvature="0"
   d="m 19.689,5.37874 c -1.96417,3.53622 -4.94528,7.67598 -8.63268,11.6776 -2.56417,2.16378 -5.16732,4.29449 -7.84134,6.3378 L 3.21026,22.06186 c 2.50276,-1.91693 4.94646,-3.90945 7.35945,-5.9315 3.39213,-3.67795 6.17126,-7.46102 8.09409,-10.7528 l 1.0252,0.00118 z"
   class="fil75"
   id="_239967336" />
    <path
   style="fill:#458bc9;fill-opacity:0.03921599"
   inkscape:connector-curvature="0"
   d="m 19.0134,5.37756 c -1.92165,3.62717 -4.89567,7.87441 -8.59724,11.9776 -2.32323,2.09882 -4.71969,4.16811 -7.2,6.14409 L 3.21025,22.14334 C 5.51222,20.29728 7.74568,18.37562 9.91773,16.4268 13.331124,12.64609 16.106714,8.76026 17.992934,5.3764 l 1.02047,0.00118 z"
   class="fil76"
   id="_239975448" />
    <path
   style="fill:#458bc9;fill-opacity:0.03137303"
   inkscape:connector-curvature="0"
   d="m 18.3402,5.37756 c -1.8815,3.71929 -4.84488,8.07047 -8.56299,12.2752 -2.09055,2.02323 -4.27795,4.01693 -6.56102,5.92205 L 3.21028,22.19528 c 2.09882,-1.76575 4.1185,-3.60472 6.05433,-5.47087 3.43346,-3.8811 6.20669,-7.87559 8.056299,-11.348 l 1.01929,0.00118 z"
   class="fil77"
   id="_239965680" />
    <path
   style="fill:#458bc9;fill-opacity:0.01960802"
   inkscape:connector-curvature="0"
   d="M 17.6646,5.37638 C 15.82562,9.18662 12.87169,13.6441 9.13704,17.95158 7.27326,19.88741 5.29491,21.79489 3.21617,23.61851 L 3.21026,22.21064 c 1.8874,-1.67717 3.69213,-3.42165 5.40118,-5.18858 3.457094,-3.98504 6.224414,-8.08346 8.037404,-11.6469 l 1.01575,0.00118 z"
   class="fil78"
   id="_239959320" />
    <path
   style="fill:#458bc9;fill-opacity:0.01176501"
   inkscape:connector-curvature="0"
   d="m 16.9937,5.3752 c -1.79882,3.90236 -4.74685,8.46496 -8.49567,12.8752 -1.64528,1.83189 -3.4122,3.64134 -5.28189,5.37283 L 3.21023,22.18229 c 1.67362,-1.57559 3.2622,-3.20787 4.75039,-4.86378 3.4748,-4.08543 6.24094,-8.29016 8.01496,-11.9433 l 1.01811,0 z"
   class="fil79"
   id="_239976288" />
   </g>
   <g
   id="g137">
    <path
   style="fill:#b0e5ff;fill-opacity:0.48627499"
   inkscape:connector-curvature="0"
   d="m 44.8972,18.4075 -4.17165,1.90984 c -13.9205,6.74764 -18.2244,8.7248 -28.1976,8.22165 C 9.92952,28.411431 6.73582,27.793714 3.22913,27.16537 l 0.00236,0.387402 c 3.42402,0.616535 6.54449,1.21535 9.08976,1.34055 10.1846,0.514961 14.5346,-1.48819 28.6169,-8.3185 l 3.96024,-1.81417 -0.0012,-0.35315 z"
   class="fil80"
   id="_239991240" />
    <path
   style="fill:#b0e5ff;fill-opacity:0.470588"
   inkscape:connector-curvature="0"
   d="m 44.8972,18.3425 c -1.79291,0.770079 -3.49488,1.49173 -5.10591,2.16378 -13.6949,6.49016 -18.1193,8.3752 -28.0205,7.89685 C 9.34244,28.292106 6.42158,27.780689 3.23024,27.23974 l 0.00118,0.38622 c 3.11575,0.531496 5.96693,1.02638 8.34567,1.13386 10.102,0.490157 14.5677,-1.41969 28.4173,-7.99134 1.54252,-0.643701 3.17362,-1.33465 4.90394,-2.07992 l -0.0012,-0.346063 z"
   class="fil81"
   id="_239974440" />
    <path
   style="fill:#b0e5ff;fill-opacity:0.45490202"
   inkscape:connector-curvature="0"
   d="m 44.8972,18.3295 c -2.11417,0.851575 -4.12913,1.63819 -6.03898,2.36457 -13.4705,6.23504 -18.0154,8.02677 -27.8445,7.57441 -2.25,-0.09567 -4.90276,-0.510236 -7.78346,-0.968504 l 0.00118,0.382677 c 2.8122,0.448819 5.39882,0.852756 7.60157,0.944882 10.0181,0.464173 14.6008,-1.35236 28.2165,-7.66417 1.8437,-0.702756 3.78661,-1.4622 5.84882,-2.29724 l -0.0012,-0.336614 z"
   class="fil82"
   id="_239990760" />
    <path
   style="fill:#b0e5ff;fill-opacity:0.43921599"
   inkscape:connector-curvature="0"
   d="m 44.8972,18.3638 c -2.4248,0.917717 -4.75748,1.75157 -6.97323,2.52047 -13.2449,5.97638 -17.9102,7.6748 -27.6673,7.24843 C 8.1921,28.053566 5.80746,27.721676 3.23029,27.342543 l 0.00118,0.380315 c 2.51102,0.372047 4.83661,0.694488 6.85512,0.773622 9.93898,0.435827 14.635,-1.28504 28.0181,-7.33937 2.14843,-0.746457 4.40787,-1.55787 6.7937,-2.46614 l -0.0012,-0.327165 z"
   class="fil83"
   id="_239959848" />
    <path
   style="fill:#b0e5ff;fill-opacity:0.42352899"
   inkscape:connector-curvature="0"
   d="m 44.8972,18.437 c -2.72126,0.970866 -5.37283,1.84016 -7.9063,2.63504 C 23.9728,26.79212 19.1834,28.39842 9.4996,27.99684 7.62637,27.93188 5.50747,27.674399 3.23031,27.367312 l 0.00118,0.381496 c 2.21811,0.3 4.28386,0.550394 6.11102,0.614173 9.85512,0.412205 14.6669,-1.21654 27.8173,-7.0122 2.46378,-0.774803 5.04094,-1.62402 7.73858,-2.59606 l -0.0012,-0.317717 z"
   class="fil84"
   id="_239982192" />
    <path
   style="fill:#b0e5ff;fill-opacity:0.40784302"
   inkscape:connector-curvature="0"
   d="m 44.8984,18.5528 c -3.00354,1.0122 -5.97992,1.90039 -8.84055,2.70945 -12.7937,5.4626 -17.7035,6.97441 -27.3165,6.6 C 7.07009,27.810282 5.21222,27.6154 3.23033,27.374455 l 0.00118,0.381496 c 1.92874,0.233858 3.73701,0.424016 5.36693,0.475984 9.77244,0.383858 14.7,-1.15039 27.6165,-6.68622 2.78976,-0.79252 5.68937,-1.66299 8.68346,-2.68583 l 0,-0.307087 z"
   class="fil85"
   id="_239963592" />
    <path
   style="fill:#b0e5ff;fill-opacity:0.39215698"
   inkscape:connector-curvature="0"
   d="m 44.8984,18.7323 -0.638976,0.172441 c -3.05551,0.959055 -6.14055,1.78819 -9.13465,2.54646 -12.5693,5.2063 -17.5996,6.6248 -27.1406,6.2752 -1.46457,-0.04134 -3.06142,-0.183071 -4.75394,-0.364961 l 0.00118,0.381496 c 1.64291,0.177165 3.19606,0.315354 4.62165,0.356693 9.68976,0.357874 14.7343,-1.08307 27.4169,-6.35906 2.95394,-0.751181 5.99409,-1.57559 9.07677,-2.56299 l 0.551575,-0.142913 0,-0.302362 z"
   class="fil86"
   id="_239961144" />
    <path
   style="fill:#b0e5ff;fill-opacity:0.38039198"
   inkscape:connector-curvature="0"
   d="m 44.8984,18.9815 c -0.493701,0.108661 -0.988583,0.223228 -1.48346,0.347244 -3.03898,0.876378 -6.16063,1.62283 -9.22441,2.31142 -12.3437,4.94882 -17.4945,6.27402 -26.9622,5.95157 -1.24961,-0.03071 -2.59016,-0.12874 -3.99803,-0.258661 l 0.00118,0.381496 c 1.36535,0.126378 2.66457,0.223228 3.87638,0.253937 9.60827,0.33189 14.7685,-1.01575 27.2173,-6.03425 3.02008,-0.683858 6.09567,-1.42559 9.15827,-2.33031 0.472441,-0.112205 0.94252,-0.217323 1.41496,-0.316535 l 0,-0.305906 z"
   class="fil87"
   id="_239962056" />
    <path
   style="fill:#b0e5ff;fill-opacity:0.364706"
   inkscape:connector-curvature="0"
   d="m 44.8984,19.2898 c -0.773622,0.137008 -1.54961,0.290551 -2.32913,0.462992 -3.02008,0.791339 -6.17953,1.45748 -9.31299,2.07638 -12.1181,4.69252 -17.3894,5.92441 -26.7862,5.62677 -1.02638,-0.02126 -2.11063,-0.08622 -3.23976,-0.172441 l 0.00118,0.383858 c 1.09016,0.08386 2.1378,0.145276 3.1311,0.167717 9.52677,0.307087 14.8028,-0.947244 27.0189,-5.70709 3.0874,-0.615354 6.19724,-1.27677 9.23858,-2.09882 0.76063,-0.158268 1.52008,-0.298819 2.27953,-0.424016 l -0.0012,-0.315354 z"
   class="fil88"
   id="_239987352" />
    <path
   style="fill:#b0e5ff;fill-opacity:0.34902003"
   inkscape:connector-curvature="0"
   d="m 44.8996,19.6535 c -1.05354,0.145276 -2.11063,0.317717 -3.17362,0.522047 -3.00472,0.708661 -6.20079,1.29331 -9.40276,1.84252 -11.8925,4.43622 -17.2854,5.57362 -26.6102,5.30197 -0.797244,-0.01417 -1.6252,-0.05197 -2.48268,-0.103937 l 0.00118,0.38622 c 0.823228,0.04961 1.62047,0.08622 2.38701,0.100394 9.44291,0.279921 14.8346,-0.879921 26.8181,-5.37992 3.15354,-0.54685 6.3,-1.12913 9.3189,-1.86732 1.05236,-0.187795 2.1,-0.343701 3.14409,-0.473622 l 0,-0.328346 z"
   class="fil89"
   id="_239985048" />
    <path
   style="fill:#b0e5ff;fill-opacity:0.33333297"
   inkscape:connector-curvature="0"
   d="m 44.8996,20.074 c -1.3311,0.132283 -2.66929,0.304724 -4.01929,0.524409 -2.98701,0.627165 -6.2185,1.12913 -9.49134,1.60866 -11.6669,4.17992 -17.1803,5.22402 -26.4331,4.97953 -0.561024,-0.0094 -1.1374,-0.02953 -1.72677,-0.05551 l 0.00236,0.388583 c 0.559843,0.0248 1.10787,0.04252 1.64291,0.05197 9.36024,0.252756 14.8665,-0.812598 26.6173,-5.05512 3.21969,-0.477165 6.40157,-0.979134 9.40039,-1.63465 1.34409,-0.200787 2.67874,-0.351969 4.00866,-0.465354 l -0.0012,-0.34252 z"
   class="fil90"
   id="_239990352" />
    <path
   style="fill:#b0e5ff;fill-opacity:0.317647"
   inkscape:connector-curvature="0"
   d="m 44.9008,20.5453 c -1.60984,0.101575 -3.22795,0.258661 -4.86614,0.478346 -2.96811,0.540945 -6.23858,0.962598 -9.57756,1.37362 -11.4425,3.92126 -17.0776,4.87323 -26.2583,4.65354 l -0.969685,-0.02008 0.00118,0.388583 0.897638,0.0189 c 9.27874,0.229134 14.902,-0.744094 26.4189,-4.72677 3.28819,-0.408661 6.50433,-0.833858 9.48189,-1.40433 1.63583,-0.193701 3.25394,-0.324803 4.87205,-0.406299 l 0,-0.355512 z"
   class="fil91"
   id="_239977680" />
    <path
   style="fill:#b0e5ff;fill-opacity:0.30196102"
   inkscape:connector-curvature="0"
   d="m 44.9008,21.0638 c -1.88858,0.05787 -3.78307,0.179528 -5.71063,0.382677 -2.95157,0.458268 -6.25866,0.797244 -9.66614,1.13858 -11.2181,3.66614 -16.9748,4.52362 -26.0835,4.3311 l -0.211417,-0.0024 0.00118,0.390945 0.153543,0.0012 c 9.19488,0.201969 14.935,-0.676772 26.2181,-4.40079 3.35433,-0.341339 6.60709,-0.683858 9.5622,-1.17165 1.9311,-0.172441 3.83268,-0.266929 5.7378,-0.3 l -0.0012,-0.369685 z"
   class="fil92"
   id="_239969232" />
    <path
   style="fill:#b0e5ff;fill-opacity:0.28627499"
   inkscape:connector-curvature="0"
   d="m 44.902,21.6283 c -2.1685,0.0012 -4.33819,0.07205 -6.55748,0.242126 -2.93386,0.373228 -6.27874,0.63189 -9.75472,0.904724 -10.7705,3.33898 -16.6299,4.13976 -25.3618,4.01339 l 0.00118,0.395669 c 8.77913,0.129921 14.6197,-0.694488 25.428,-4.08543 3.42283,-0.271654 6.70866,-0.535039 9.6437,-0.940157 2.2252,-0.133465 4.40787,-0.17126 6.60118,-0.145276 l 0,-0.385039 z"
   class="fil93"
   id="_239986248" />
    <path
   style="fill:#b0e5ff;fill-opacity:0.27450998"
   inkscape:connector-curvature="0"
   d="m 44.9031,22.2354 c -2.45079,-0.0685 -4.89449,-0.06142 -7.40197,0.05787 -2.9185,0.291732 -6.3,0.468898 -9.84567,0.669685 -10.2366,2.99646 -16.1634,3.75118 -24.4276,3.69685 l 0.00118,0.398031 c 8.30433,0.05787 14.2075,-0.71811 24.4843,-3.76417 3.4878,-0.20315 6.81024,-0.387402 9.72402,-0.708661 2.51929,-0.07795 4.98071,-0.04842 7.46575,0.04961 l 0,-0.399213 z"
   class="fil94"
   id="_239972328" />
    <path
   style="fill:#b0e5ff;fill-opacity:0.25882401"
   inkscape:connector-curvature="0"
   d="m 44.9031,22.8803 c -2.73661,-0.142913 -5.44724,-0.216142 -8.24764,-0.164173 -2.89843,0.209055 -6.31772,0.304724 -9.93307,0.437008 -9.70984,2.66575 -15.6661,3.36614 -23.4957,3.37087 l 0.00236,0.400394 c 7.8626,0 13.7941,-0.721654 23.5394,-3.43701 3.55512,-0.133465 6.91417,-0.238583 9.80551,-0.475984 2.81575,-0.0071 5.55,0.105118 8.33031,0.281102 l -0.0012,-0.412205 z"
   class="fil95"
   id="_239984640" />
    <path
   style="fill:#b0e5ff;fill-opacity:0.24313702"
   inkscape:connector-curvature="0"
   d="m 44.9043,23.563 c -3.0248,-0.225591 -6.00118,-0.390945 -9.09331,-0.422835 -2.88189,0.124016 -6.33898,0.13937 -10.0217,0.200787 -9.18661,2.35039 -15.1406,2.98937 -22.5626,3.03898 l 0.00118,0.406299 c 7.44921,-0.04843 13.3783,-0.709843 22.5957,-3.10512 3.62244,-0.06614 7.01575,-0.08858 9.88583,-0.244488 3.1122,0.08268 6.11693,0.28937 9.19606,0.548031 L 44.90428,23.563 z"
   class="fil96"
   id="_239985312" />
    <path
   style="fill:#b0e5ff;fill-opacity:0.22745098"
   inkscape:connector-curvature="0"
   d="m 44.9055,24.2764 c -3.3189,-0.312992 -6.5563,-0.581102 -9.94016,-0.712205 -2.86299,0.04016 -6.35787,-0.02598 -10.1091,-0.03307 -8.67047,2.04567 -14.5878,2.62205 -21.6307,2.70472 l 0.00236,0.406299 c 7.06299,-0.0815 12.9531,-0.676772 21.6508,-2.76614 3.68976,0.0012 7.11732,0.05906 9.96732,-0.01299 3.4063,0.187795 6.67441,0.500787 10.0594,0.848031 l 0,-0.434646 z"
   class="fil97"
   id="_239973840" />
    <path
   style="fill:#b0e5ff;fill-opacity:0.21176501"
   inkscape:connector-curvature="0"
   d="m 44.9067,25.0193 c -3.62244,-0.402756 -7.11024,-0.783071 -10.787,-1.0311 -2.84528,-0.04488 -6.37677,-0.191339 -10.1976,-0.266929 -8.16142,1.75512 -14.0091,2.26417 -20.6965,2.36575 l 0.00118,0.409843 c 6.70157,-0.101575 12.522,-0.629528 20.7071,-2.42717 3.75591,0.07087 7.2189,0.206693 10.0488,0.219685 3.70039,0.309449 7.2248,0.738189 10.924,1.17165 l 0,-0.441732 z"
   class="fil98"
   id="_239973216" />
    <path
   style="fill:#b0e5ff;fill-opacity:0.19607801"
   inkscape:connector-curvature="0"
   d="M 44.9079,25.7894 C 40.97365,25.299243 37.239,24.793731 33.2752,24.41105 30.44646,24.284672 26.87835,24.055538 22.989,23.909081 c -7.66417,1.48346 -13.4091,1.91811 -19.7646,2.02795 l 0.00236,0.413386 c 6.36024,-0.112205 12.0791,-0.563386 19.7622,-2.08701 3.82323,0.13937 7.32165,0.356693 10.1291,0.451181 3.99331,0.446457 7.76693,1.00039 11.7898,1.52126 l 0,-0.446457 z"
   class="fil99"
   id="_239958912" />
    <path
   style="fill:#b0e5ff;fill-opacity:0.18039198"
   inkscape:connector-curvature="0"
   d="m 44.9079,26.5783 c -4.25551,-0.576378 -8.22638,-1.21181 -12.4772,-1.74449 -2.81102,-0.209055 -6.41575,-0.519685 -10.376,-0.734646 -7.1752,1.22598 -12.7878,1.58268 -18.8303,1.6878 l 0.00118,0.416929 c 6.04016,-0.109843 11.6268,-0.483071 18.8185,-1.74567 3.89055,0.207874 7.42559,0.504331 10.2106,0.682677 4.28268,0.598819 8.29843,1.28622 12.6543,1.89213 l -0.0012,-0.454724 z"
   class="fil100"
   id="_239974224" />
    <path
   style="fill:#b0e5ff;fill-opacity:0.164706"
   inkscape:connector-curvature="0"
   d="M 44.9091,27.3874 C 40.31816,26.729526 36.11934,25.95354 31.5863,25.25787 28.79181,24.963776 25.14929,24.572831 21.1229,24.287004 14.42133,25.274406 8.9658,25.550784 3.2233,25.644094 l 0.00236,0.419291 c 5.73543,-0.09803 11.1638,-0.390945 17.8748,-1.41142 3.95669,0.276378 7.52717,0.65315 10.2909,0.914173 4.57205,0.768898 8.81575,1.59213 13.5189,2.27835 l -0.0012,-0.457087 z"
   class="fil101"
   id="_239973936" />
    <path
   style="fill:#b0e5ff;fill-opacity:0.152941"
   inkscape:connector-curvature="0"
   d="M 44.9102,28.213 C 39.97319,27.477173 35.55469,26.55946 30.7405,25.6819 27.96373,25.305128 24.28459,24.831506 20.1885,24.47599 13.9511,25.238982 8.6787,25.435045 3.2231,25.50473 l 0.00118,0.421654 c 5.44252,-0.07559 10.6878,-0.287008 16.9311,-1.08071 4.02283,0.344882 7.62874,0.801969 10.3713,1.14685 4.85551,0.949606 9.32244,1.91929 14.3846,2.67992 l -0.0012,-0.459449 z"
   class="fil102"
   id="_239986200" />
    <path
   style="fill:#b0e5ff;fill-opacity:0.13725502"
   inkscape:connector-curvature="0"
   d="M 44.9114,29.048 C 39.61416,28.24485 34.9866,27.17713 29.8972,26.10469 27.13578,25.645241 23.41885,25.09012 19.2543,24.66611 13.46454,25.221228 8.4,25.335795 3.2232,25.375953 l 0.00118,0.422835 c 5.15906,-0.04606 10.1965,-0.174803 15.9862,-0.758268 4.09016,0.413386 7.7315,0.950787 10.4528,1.37835 5.13307,1.14685 9.8126,2.26181 15.2492,3.09094 l -0.0012,-0.461811 z"
   class="fil103"
   id="_239985528" />
    <path
   style="fill:#b0e5ff;fill-opacity:0.12156899"
   inkscape:connector-curvature="0"
   d="M 44.9126,29.8925 C 39.23386,29.029114 34.4102,27.81022 29.0516,26.52872 26.30908,25.984232 22.55554,25.34762 18.3213,24.85392 12.96618,25.220062 8.1272,25.251951 3.2221,25.256676 l 0.00236,0.425197 c 4.8815,-0.0083 9.69331,-0.05551 15.0413,-0.446457 4.15748,0.480709 7.83307,1.09843 10.5343,1.60866 5.40709,1.35591 10.2839,2.62323 16.1138,3.50906 l -0.0012,-0.46063 z"
   class="fil104"
   id="_239976096" />
    <path
   style="fill:#b0e5ff;fill-opacity:0.10588199"
   inkscape:connector-curvature="0"
   d="M 44.9138,30.7441 44.9079,30.7429 C 38.83467,29.829908 33.828,28.45629 28.2059,26.95156 25.4811,26.324395 21.68976,25.60628 17.3882,25.04408 12.45237,25.237781 7.8567005,25.190537 3.2221005,25.150379 l 0.00118,0.426378 c 4.60866,0.03307 9.1748005,0.06732 14.0976005,-0.147638 4.22362,0.550394 7.93583,1.24724 10.6146,1.84134 5.61969,1.5626 10.6406,2.97047 16.7976,3.90591 l 0.18189,0.02598 -0.0012,-0.458268 z"
   class="fil105"
   id="_239963208" />
    <path
   style="fill:#b0e5ff;fill-opacity:0.09019602"
   inkscape:connector-curvature="0"
   d="m 44.915,31.5921 -0.839764,-0.121654 c -6.10276,-0.959055 -11.087,-2.42835 -16.7138,-4.09488 -2.70827,-0.712205 -6.53622,-1.51063 -10.9063,-2.14252 -4.53189,0.03779 -8.86654,-0.08622 -13.2331,-0.173622 l 0.00118,0.429921 c 4.33583,0.08031 8.63976,0.191339 13.1528,0.134646 4.29094,0.617717 8.03858,1.3937 10.6961,2.07165 5.63504,1.72087 10.6429,3.22559 16.8378,4.20827 0.33189,0.05197 0.666142,0.100394 1.00512,0.144094 l 0,-0.455906 z"
   class="fil106"
   id="_239968344" />
    <path
   style="fill:#b0e5ff;fill-opacity:0.07450998"
   inkscape:connector-curvature="0"
   d="m 44.9161,32.4319 c -0.566929,-0.06614 -1.12441,-0.144094 -1.67126,-0.233858 -6.13583,-1.00276 -11.0976,-2.57244 -16.7291,-4.39961 -2.68937,-0.793701 -6.55394,-1.6748 -10.9949,-2.37638 -4.13858,-0.100394 -8.20394,-0.297638 -12.3,-0.433465 l 0.00236,0.429921 c 4.06299,0.12874 8.09173,0.316535 12.2079,0.399213 4.35827,0.687402 8.14016,1.54252 10.7776,2.30433 5.65039,1.87913 10.6429,3.48071 16.878,4.50827 0.598819,0.09803 1.20827,0.18189 1.82953,0.253937 l 0,-0.452362 z"
   class="fil107"
   id="_239964384" />
    <path
   style="fill:#b0e5ff;fill-opacity:0.05882401"
   inkscape:connector-curvature="0"
   d="m 44.9173,33.261 c -0.858661,-0.08504 -1.69134,-0.194882 -2.50394,-0.334252 -6.16654,-1.05 -11.1059,-2.71654 -16.7409,-4.70433 -2.67402,-0.877559 -6.57638,-1.84016 -11.0846,-2.61024 -3.76299,-0.220866 -7.5437,-0.487795 -11.3669,-0.673228 l 0.00236,0.431102 c 3.78543,0.180709 7.52953,0.435827 11.2642,0.641339 4.42441,0.754724 8.24173,1.69252 10.8567,2.53701 5.66693,2.03504 10.6453,3.73465 16.9193,4.80827 0.861024,0.147638 1.74331,0.263386 2.65394,0.35315 l 0,-0.448819 z"
   class="fil108"
   id="_239976000" />
    <path
   style="fill:#b0e5ff;fill-opacity:0.047059"
   inkscape:connector-curvature="0"
   d="m 44.9185,34.0772 c -1.1563,-0.09567 -2.26535,-0.232677 -3.3378,-0.421654 -6.19606,-1.09606 -11.1142,-2.86181 -16.7551,-5.00906 -2.65512,-0.962598 -6.59409,-2.00551 -11.172,-2.84646 C 10.25439,25.476404 6.76541,25.149239 3.2209,24.913018 l 0.00236,0.433465 c 3.50197,0.230315 6.95315,0.548031 10.3193,0.859843 4.49055,0.823228 8.34449,1.84016 10.9382,2.76732 5.6811,2.19331 10.6465,3.98976 16.9594,5.10945 1.11614,0.198425 2.27244,0.34252 3.47835,0.440551 l 0,-0.446457 z"
   class="fil109"
   id="_239972976" />
    <path
   style="fill:#b0e5ff;fill-opacity:0.03137303"
   inkscape:connector-curvature="0"
   d="m 44.9197,34.8815 c -1.46102,-0.09685 -2.84646,-0.25748 -4.17047,-0.499606 -6.22677,-1.13976 -11.1236,-3.00354 -16.7669,-5.3126 -2.63858,-1.04409 -6.61535,-2.16969 -11.2618,-3.07913 -3.04961,-0.409843 -6.23976,-0.79252 -9.49961,-1.07717 l 0.00236,0.437008 c 3.21614,0.27874 6.36142,0.65315 9.37441,1.05 4.55906,0.892913 8.44606,1.98898 11.0197,3 5.69646,2.35039 10.6476,4.24488 16.9984,5.41063 1.36654,0.250394 2.79331,0.416929 4.30394,0.516142 l 0,-0.445276 z"
   class="fil110"
   id="_239987232" />
    <path
   style="fill:#b0e5ff;fill-opacity:0.01568598"
   inkscape:connector-curvature="0"
   d="m 44.9209,35.6752 c -1.7752,-0.08976 -3.43346,-0.266929 -5.00433,-0.564567 -6.2563,-1.18583 -11.1307,-3.14764 -16.7799,-5.6185 -2.62087,-1.12677 -6.63425,-2.33386 -11.348,-3.31417 C 9.0745,25.70316 6.19143,25.273239 3.22095,24.944893 l 0.00236,0.440551 c 2.92087,0.322441 5.75787,0.744094 8.42953,1.20945 4.6252,0.960236 8.54882,2.13661 11.1,3.23031 5.71181,2.50984 10.65,4.5 17.0409,5.71299 1.60984,0.305906 3.30827,0.487795 5.12717,0.581102 l 0,-0.444094 z"
   class="fil111"
   id="_239972808" />
   </g>
  </g><path
   style="fill:#a0dfff;fill-opacity:0.21960802"
   inkscape:connector-curvature="0"
   id="path171"
   d="m 44.6882,15.5469 c -10.0358,2.43307 -29.726,1.86614 -40.7398,1.29803 l 0,-9.23976 C 3.9472189,6.42289 4.789345,5.79808 5.93029,5.79926 l 36.8622,0.038976 c 1.2189,0.00118 1.89567,0.651969 1.89567,1.84134 l 0,7.86732 z"
   class="fil112" /><path
   style="fill:#396da6;fill-opacity:0.5019609"
   inkscape:connector-curvature="0"
   id="path173"
   d="m 2.90315,7.16929 0.115748,29.3339 c 0.077953,0.985039 1.32165,1.70315 2.21102,1.69961 l 37.7776,-0.122835 c 1.28386,-0.03661 1.87087,-0.897638 1.91457,-2.02795 l -0.03898,-28.8083 c 0,-1.19055 -0.709843,-1.84016 -1.9878,-1.84134 L 4.9831116,5.3633986 c -1.18937,-0.00118 -2.07992,0.623622 -2.07992,1.80591 z m 0.995669,0 0.115748,29.2559 c 0.01063,0.144094 0.142913,0.302362 0.318898,0.438189 0.279921,0.214961 0.625984,0.344882 0.892913,0.343701 l 0.00354,0 37.7504,-0.122835 c 0.318898,-0.0083 0.542126,-0.09803 0.675591,-0.239764 0.170079,-0.179528 0.25748,-0.474803 0.270472,-0.826772 l -0.03898,-28.774 -0.0035,0 c 0,-0.301181 -0.06614,-0.514961 -0.188976,-0.63189 l 0,0.00118 C 43.543744,6.473629 43.270909,6.398038 42.895319,6.398038 L 4.9831183,6.359062 l 0,0.00354 -0.00354,0 c -0.362598,0 -0.661417,0.080315 -0.849213,0.233858 l -0.00472,0 C 3.9874129,6.70985 3.9023739,6.901188 3.9023739,7.166936 l 0,0.00236 -0.00354,0 z m 39.0815,29.915 0.02716,0"
   class="fil113" /><path
   style="fill:none"
   inkscape:connector-curvature="0"
   id="path175"
   d="m 2.95984,38.1154 -0.253937,0.276378 m 42.0201,-0.02953 -0.283465,-0.250394"
   class="fil114" /><path
   style="fill:#b2b2b2;fill-opacity:0.12156899;fill-rule:nonzero"
   inkscape:connector-curvature="0"
   id="path177"
   d="m 0.307087,5.24173 c 0,-0.72874 0.3,-1.39252 0.780709,-1.87323 0.479528,-0.479528 1.14449,-0.779528 1.87323,-0.779528 l 41.7744,0 c 0.72874,0 1.39252,0.3 1.87323,0.780709 0.480709,0.480709 0.780709,1.14685 0.780709,1.87205 l -0.657874,0 c 0,-0.54685 -0.225591,-1.04646 -0.587008,-1.40669 -0.361417,-0.361417 -0.861024,-0.587008 -1.40906,-0.587008 l -41.7744,0 c -0.549213,0 -1.04882,0.225591 -1.40906,0.585827 C 1.191727,4.194096 0.966136,4.693703 0.966136,5.24173 l -0.659055,0 z"
   class="fil115" /><path
   style="fill:#ffffff;fill-rule:nonzero"
   inkscape:connector-curvature="0"
   id="path179"
   d="m 3.12992,2.00615 41.7744,0 c 0.774803,0 1.48228,0.3237691 1.9937,0.841082 0.486614,0.492224 0.799606,1.1648461 0.829134,1.9007939 l -1.00276,0 C 46.694866,4.2880595 46.49526,3.8687131 46.191717,3.5616747 45.862189,3.2283477 45.405103,3.0192728 44.904317,3.0192728 l -41.7744,0 c -0.501969,0 -0.959055,0.2078813 -1.28858,0.5412073 C 1.537794,3.8675226 1.339368,4.2844797 1.311022,4.748035 l -1.00276,0 C 0.3377896,4.0073098 0.649601,3.3370739 1.135034,2.8460475 1.647632,2.32754 2.352754,2.0061601 3.129914,2.0061601 z"
   class="fil116" /><polygon
   style="fill:url(#linearGradient3264);fill-rule:nonzero"
   id="polygon181"
   points="1.95354,38.6327 1.95354,7.67953 2.98465,7.67953 2.98465,38.6327 "
   class="fil117" /><polygon
   style="fill:url(#linearGradient3266);fill-rule:nonzero"
   id="polygon183"
   points="45.0402,38.6327 45.0402,7.67953 46.0713,7.67953 46.0713,38.6327 "
   class="fil117" /><path
   style="fill:#cccccc;fill-opacity:0.43921599"
   inkscape:connector-curvature="0"
   id="path185"
   d="m 47.2087,39.7335 c -0.07087,0.31063 -0.20315,0.597638 -0.385039,0.848031 -0.465354,0.336614 -1.03701,0.537402 -1.65,0.537402 l -42.3201,-0.06142 c -0.581102,0 -1.12323,-0.178346 -1.57441,-0.484252 C 1.101986,40.325233 0.970883,40.040587 0.901198,39.7335 l 0.92126,0 c 0.294094,0.20315 0.649606,0.322441 1.0311,0.322441 l 42.3201,0.06142 c 0.41811,0 0.805512,-0.144094 1.11496,-0.383858 l 0.920079,0 z"
   class="fil118" /><path
   inkscape:connector-curvature="0"
   style="fill:url(#linearGradient3346);fill-rule:nonzero"
   id="path187"
   d="m 2.90551,0 42.2291,0.06127917 0.06142,0 0.0059,0.0023569 c 0.826772,0.01060599 1.53307,0.22508364 2.04331,0.685856 0.519685,0.46902174 0.818504,1.17019224 0.817323,2.13770134 l 0.0024,0 0,0.056566 -0.0024,0.00589 -0.04016,3.2206901 -0.0071,0.493769 -0.01654,0 0,32.5498289 c 0,0.771883 -0.320079,1.47777 -0.831496,1.989216 l 0,0.0012 c -0.511417,0.510267 -1.2189,0.829625 -1.9937,0.829625 L 2.8534903,41.97268 c -0.774803,0 -1.48228,-0.319358 -1.9937,-0.829626 l 0,-0.0012 c -0.510236,-0.511445 -0.830315,-1.216158 -0.830315,-1.989216 l 0,-32.549828 -0.0141732,0 0,-0.4996607 0,-3.2206902 0.0059055,-0.157912 c 0,-0.68232 0.33189,-1.4318125 0.80315,-1.91850542 0.48189,-0.49848235 1.15512,-0.80841373 1.94646,-0.80723538 l 0.011811,0 0.122835,0.00353528 0,-0.0023568877 z M 45.13461,1.0605992 2.90551,0.99932014 2.893699,0.99696325 2.759053,0.99342786 C 2.261809,0.99696325 1.840155,1.1878716 1.542513,1.4966246 1.234245,1.8159837 1.044088,2.2649717 1.018104,2.7622717 l -0.00354,0.1202011 0.00236,0 0,2.7210364 0.014173,0 0,0.4996607 0,33.0495021 c 0,0.50084 0.206693,0.959255 0.533858,1.28686 l 0.00118,-0.0012 c 0.329528,0.328787 0.786614,0.535014 1.2874,0.535014 l 42.3201,0.06128 c 0.500787,0 0.957874,-0.206229 1.2874,-0.535014 l 0,0.0012 c 0.329528,-0.329966 0.53622,-0.787202 0.53622,-1.28686 l 0,-33.049502 0,-0.4996606 0.03425,0 0.03425,-2.7210365 -0.0024,0 0,-0.056566 0.0024,0 c 0,-0.6622871 -0.178346,-1.1195264 -0.488976,-1.3999942 C 46.260244,1.2020099 45.780716,1.0664884 45.196069,1.05824 l 0,0.00235 -0.06142,0 z"
   class="fil119" /><path
   inkscape:connector-curvature="0"
   style="fill:url(#linearGradient3343)"
   id="path189"
   d="m 2.90315,7.16929 0.115748,30.3071 c 0.077953,0.985039 1.32165,1.70315 2.21102,1.69961 l 37.7776,-0.122835 c 1.28386,-0.03661 1.87087,-0.897638 1.91457,-2.02795 l -0.03898,-29.7815 c 0,-1.19055 -0.709843,-1.84016 -1.9878,-1.84134 L 4.9831116,5.3633986 c -1.18937,-0.00118 -2.07992,0.623622 -2.07992,1.80591 z m 0.498425,0 0.115748,30.2681 c 0.023622,0.301181 0.232677,0.579921 0.512598,0.794882 0.362598,0.277559 0.826772,0.446457 1.19764,0.445276 l 0.00236,0 37.7634,-0.122835 c 0.464173,-0.01299 0.80315,-0.159449 1.0252,-0.395669 0.256299,-0.271654 0.387402,-0.679134 0.405118,-1.15157 l -0.03898,-29.7638 -0.0024,0 c 0,-0.447638 -0.121654,-0.784252 -0.349606,-0.998031 -0.244488,-0.225591 -0.630709,-0.344882 -1.1374,-0.344882 L 4.9830524,5.861785 l 0,0.00236 -0.00354,0 c -0.478346,0 -0.887008,0.11811 -1.16575,0.346063 l -0.00236,0 c -0.253937,0.206693 -0.40748,0.529134 -0.40748,0.956693 l 0,0.00236 -0.00236,0 z"
   class="fil120" /><path
   style="fill:#ffffff"
   inkscape:connector-curvature="0"
   id="path191"
   d="m 3.46417,38.27367 c 0.459449,0.481804 1.18701,0.783374 1.76575,0.781017 l 37.7776,-0.122513 c 0.712205,-0.02003 1.20827,-0.293322 1.5189,-0.72565 l -0.685039,-0.828138 c -0.0437,0.128403 -0.105118,0.237958 -0.185433,0.321595 -0.133465,0.14136 -0.356693,0.23089 -0.675591,0.239136 l -37.7504,0.122513 -0.00354,0 C 4.959488,38.062855 4.613425,37.933227 4.333504,37.718831 4.263819,37.664645 4.198858,37.608097 4.148071,37.549197 L 3.4642097,38.27367 z m 39.5161,-0.334553 0.02717,0"
   class="fil121" /><path
   style="fill:none"
   inkscape:connector-curvature="0"
   id="path193"
   d="m 3.64488,38.3622 -0.249213,0.271654 m 41.3587,-0.02953 -0.279921,-0.245669"
   class="fil114" /><path
   style="fill:#396da6"
   inkscape:connector-curvature="0"
   id="path195"
   d="m 44.8783,6.54094 -41.9728,0 C 2.951563,5.42007 3.825579,5.36338 4.98306,5.36338 l 37.9122,0.038976 c 1.21654,0.00118 1.91811,0.055512 1.98307,1.13858 z"
   class="fil122" /><rect
   style="fill:#999999"
   y="-37.999901"
   x="45.1012"
   id="rect197"
   height="27.99914"
   width="1.8987999"
   transform="matrix(0,1,-1,0,0,0)"
   class="fil0" /><rect
   style="fill:#cfcfcf"
   y="-37.999901"
   x="45"
   id="rect199"
   height="27.999901"
   width="1.0192114"
   transform="matrix(0,1,-1,0,0,0)"
   class="fil123" /><path
   style="fill:#999999"
   inkscape:connector-curvature="0"
   id="path203"
   d="m 18.424,43.998878 11.1201,-0.03506 c 0.24685,-0.0012 0.446457,0.145886 0.446457,0.315522 l 0,3.405141 C 29.990557,47.854113 29.786226,48 29.5441,48 l -11.1201,0.03506 c -0.240945,0 -0.445276,-0.141362 -0.445276,-0.315521 l 0,-3.405142 c 0,-0.174158 0.199606,-0.314389 0.445276,-0.315521 z"
   class="fil0" /><path
   style="fill:#e6e6e6"
   inkscape:connector-curvature="0"
   id="path205"
   d="M 19.1598,46.970522 28.63578,47 c 0.201969,9.84e-4 0.367323,-0.05421 0.367323,-0.112221 l 0,-1.74608 c 0,-0.05802 -0.170079,-0.112221 -0.367323,-0.112221 L 19.1598,45 c -0.198425,0 -0.367323,0.05041 -0.367323,0.112221 l 0,1.74608 c 0,0.06182 0.164173,0.11127 0.367323,0.112221 z"
   class="fil121" /><polygon
   style="fill:#808080;fill-opacity:0.43921599"
   id="polygon207"
   points="29.0031,46.1835 29.0031,47.3835 28.9937,47.4236 18.7925,47.4236 18.7925,46.1835 "
   class="fil125"
   transform="matrix(1,0,0,0.80638659,0,8.7582451)" /><path
   inkscape:connector-curvature="0"
   style="fill:url(#linearGradient3331)"
   id="path209"
   d="m 7.59331,7.6311 19.911,-0.037795 c 0.617717,-0.00118 1.12559,0.511417 1.12441,1.12441 l -0.03543,18.4854 c -0.0024,0.614173 -0.506693,1.12441 -1.12441,1.12441 -7.39961,0 -7.25197,0.03779 -19.8732001,0.03779 -0.617717,0 -1.12677,-0.505512 -1.12441,-1.12323 L 6.4689099,8.7554853 c 0,-0.617717 0.505512,-1.12323 1.12441,-1.12441 z"
   class="fil126" /><path
   style="fill:#ffffff;fill-rule:nonzero"
   inkscape:connector-curvature="0"
   id="path211"
   d="m 28.2579,28.4031 c -0.148819,0.03425 -0.322441,0.177165 -0.50315,0.180709 l -0.01181,-0.06732 -19.4114,0.03898 c -1.26378,0.0035 -1.30748,-0.370866 -1.16457,-1.30512 l 0.041339,0.0248 0.00236,0.0012 c 0.177165,0.09803 0.897638,0.462992 1.07362,0.462992 l 19.0429,0.01063 c 0.262205,0.152362 0.837402,-0.34252 0.947244,-0.516142 0.08622,-0.138189 -0.120472,1.10197 -0.01654,1.16929 z"
   class="fil116" /><path
   style="fill:#cccccc;fill-rule:nonzero"
   inkscape:connector-curvature="0"
   id="path213"
   d="m 27.8114,11.987 -19.552,0 c 0.172441,-0.389764 0.490157,-0.493701 0.871654,-0.493701 l 17.8972,0.02953 c 0.356693,0.0012 0.62126,0.16063 0.783071,0.464173 z"
   class="fil127" /><path
   style="fill:none"
   inkscape:connector-curvature="0"
   id="path215"
   d="m 8.24055,27.5008 -0.122835,0.133465 m 20.3126,-0.01417 -0.137008,-0.121654"
   class="fil114" /><path
   style="fill:none"
   inkscape:connector-curvature="0"
   id="path217"
   d="m 8.57126,27.6201 -0.120472,0.131102 m 19.9925,-0.01417 -0.134646,-0.119291"
   class="fil114" /><path
   style="fill:#a4a5a7;fill-opacity:0.43921599"
   inkscape:connector-curvature="0"
   id="path219"
   d="m 7.22953,10.5165 c 0.16063,-0.175984 0.245669,-0.440551 0.504331,-0.474803 l 0.178346,0.389764 -0.76063,0.943701 0.077953,-0.858661 z"
   class="fil2" /><path
   style="fill:#d4d2d2"
   inkscape:connector-curvature="0"
   id="path221"
   d="m 28.8366,11.9031 -21.6602,0 -0.00236,-2.70709 c 0,-0.024803 0.00118,-0.049606 0.00354,-0.075591 L 7.17404,8.951521 C 7.17404,8.900734 7.17876,8.849946 7.185851,8.80034 7.230733,8.690497 7.294512,8.590104 7.376008,8.501521 7.508291,8.33971 7.685457,8.215694 7.888606,8.150734 l 19.9583,0 c 0.638976,0.288189 0.901181,1.00512 0.989764,3.75236 z"
   class="fil128" /><path
   style="fill:#ffffff;fill-rule:nonzero"
   inkscape:connector-curvature="0"
   id="path223"
   d="M 7.16693,9.3437 C 7.1303158,8.746062 7.373623,8.11417 8.030316,8.11417 l 19.5047,0.00827 0.01535,0 0.0035,0.00118 c 0.659055,0.00827 1.01693,0.591732 1.0311,1.2626 0.02126,0.106299 0.03071,0.218504 0.03071,0.335433 l 0.0012,0 0,0.015354 -0.0059,-0.00118 c 0.0035,0.044882 0.0047,0.087402 0.0047,0.133465 l 0.0012,0 0,0.014173 -0.106299,-0.00709 0,-0.016535 0,0 c 0,-0.497244 -0.45,-0.881102 -0.930709,-0.88937 l 0,0.00118 -0.01535,0 L 8.2062181,8.9811 c -0.135827,0 -0.282283,0.087402 -0.392126,0.087402 -0.197244,0.093307 -0.395669,0.292913 -0.479528,0.499606 l 0.00118,0.00118 C 7.3026731,9.653146 7.2837751,9.746453 7.2837751,9.840942 L 7.1963731,9.777163 c -0.00354,-0.049606 -0.00354,-0.099213 0,-0.147638 L 7.1940131,9.510234 7.1668481,9.490155 c -0.00354,-0.049606 -0.00354,-0.099213 0,-0.146457 z"
   class="fil129" /><path
   inkscape:connector-curvature="0"
   style="fill:url(#linearGradient3321);fill-rule:nonzero"
   id="path225"
   d="m 7.59331,7.13268 19.911,-0.037795 0,-0.00236 0.0047,0 c 0.444094,0 0.850394,0.185433 1.14331,0.480709 0.291732,0.292913 0.477165,0.700394 0.477165,1.13976 l 0,0.00472 -0.0024,0 -0.03543,18.4854 c -0.0012,0.446457 -0.185433,0.853937 -0.478346,1.14685 -0.292913,0.295276 -0.699213,0.478346 -1.14449,0.478346 -3.77598,0 -5.30906,0.0071 -7.02283,0.01299 -2.92441,0.01063 -6.27992,0.0248 -12.8503999,0.0248 l -0.00472,0 0,-0.0024 c -0.442913,-0.0012 -0.850394,-0.184252 -1.14213,-0.474803 l -0.00118,0 c -0.292913,-0.292913 -0.477165,-0.698031 -0.477165,-1.14213 l 0,-0.0047 0.00236,0 -0.00236,-18.4865994 -0.00236,0 c 0,-0.445276 0.184252,-0.850394 0.477165,-1.14567 l 0.00118,-0.00118 c 0.294094,-0.292913 0.701575,-0.478346 1.14685,-0.478346 l 0,0.00236 z m 19.8555,0.79252 -19.8555,0.020079 0,0.00236 c -0.17126,0 -0.329528,0.072047 -0.441732,0.18189 l -0.00118,0.00118 C 7.040555,8.242914 6.969689,8.4 6.969689,8.57126 l -0.00236,0 0.00236,18.6709 0.00236,0 0,0.0047 c 0,0.168898 0.070866,0.324803 0.18189,0.435827 l -0.00118,0.0012 c 0.112205,0.112205 0.270472,0.183071 0.438189,0.183071 l 0,-0.0024 0.00472,0 c 7.72559,0 10.4787,-0.01063 12.8457,-0.02008 2.3374,-0.0094 4.3878,-0.01772 7.02756,-0.01772 0.170079,0 0.327165,-0.06968 0.438189,-0.18189 l 0,-0.0012 c 0.114567,-0.114567 0.187795,-0.274016 0.187795,-0.440551 l 0.03543,-18.4854 -0.0024,0 0,-0.00472 c 0,-0.168898 -0.07205,-0.324803 -0.18189,-0.435827 C 27.835028,8.164965 27.62243,7.927564 27.453532,7.927564 l -0.0047,0 0,-0.00236 z"
   class="fil130" /><rect
   style="fill:#b3b3b3"
   id="rect227"
   height="0.99566901"
   width="21"
   y="10.9346"
   x="7"
   class="fil131" /><polygon
   style="fill:#c4c4c4"
   id="polygon229"
   points="8.04094,27.0035 8.04094,22.8756 12.0083,22.8756 12.0083,27.0035 "
   class="fil132"
   transform="matrix(1,0,0,0.96986361,0,0.81378798)" /><polygon
   style="fill:#8cbd38"
   id="polygon231"
   points="11.0091,23.8748 9.04016,23.8748 9.04016,26.0043 11.0091,26.0043 "
   class="fil133"
   transform="matrix(1,0,0,0.9391876,-0.04016,1.5770838)" /><polygon
   style="fill:#c4c4c4"
   id="polygon233"
   points="8.04094,17.8642 12.0083,17.8642 12.0083,21.9921 8.04094,21.9921 "
   class="fil132"
   transform="matrix(1,0,0,0.96901572,-0.0083,0.68930933)" /><polygon
   style="fill:#9acc43"
   id="polygon235"
   points="11.0091,20.9929 11.0091,18.8634 9.04016,18.8634 9.04016,20.9929 "
   class="fil134"
   transform="matrix(1.0203968,0,0,0.93585349,-0.22454999,1.3466213)" /><polygon
   style="fill:#c4c4c4"
   id="polygon237"
   points="8.04094,16.9807 8.04094,12.8528 12.0083,12.8528 12.0083,16.9807 "
   class="fil132"
   transform="matrix(0.99790793,0,0,0.96434022,0.01682222,0.605528)" /><polygon
   style="fill:#a1d44a"
   id="polygon239"
   points="11.0091,15.9815 11.0091,13.852 9.04016,13.852 9.04016,15.9815 "
   class="fil135"
   transform="matrix(1.0203968,0,0,0.93050012,-0.22454999,1.1107124)" /><rect
   style="fill:#cbcbcb"
   id="rect241"
   height="1.03228"
   width="8.4696999"
   y="12.8882"
   x="15"
   class="fil136" /><rect
   style="fill:#cbcbcb"
   id="rect243"
   height="1.03228"
   width="4.839499"
   y="14.9327"
   x="15"
   class="fil136" /><rect
   style="fill:#cbcbcb"
   id="rect245"
   height="1.03228"
   width="5.4377999"
   y="14.9327"
   x="20.8972"
   class="fil136" /><rect
   style="fill:#cbcbcb"
   id="rect247"
   height="1.03228"
   width="6.1563482"
   y="18.009399"
   x="15"
   class="fil136" /><rect
   style="fill:#cbcbcb"
   id="rect249"
   height="1.03228"
   width="6.7615786"
   y="19.9795"
   x="15"
   class="fil136" /><rect
   style="fill:#cbcbcb"
   id="rect251"
   height="1.03228"
   width="3.71102"
   y="19.9051"
   x="23.2488"
   class="fil136" /><rect
   style="fill:#cbcbcb"
   id="rect253"
   height="1.03228"
   width="6.1563482"
   y="22.948799"
   x="14.929093"
   class="fil136" /><rect
   style="fill:#cbcbcb"
   id="rect255"
   height="1.03228"
   width="7.188323"
   y="24.901199"
   x="15.035453"
   class="fil136" /><rect
   style="fill:#cbcbcb"
   id="rect257"
   height="1.03228"
   width="3.63661"
   y="24.864599"
   x="23.0646"
   class="fil136" /><path
   id="_243512864"
   class="fil126"
   d="m 20.6138,13.6937 19.911,-0.03779 c 0.617717,-0.0012 1.12559,0.511417 1.12441,1.12441 l -0.03543,18.4854 c -0.0024,0.614173 -0.506693,1.12441 -1.12441,1.12441 -7.39961,0 -7.25197,0.0378 -19.8732,0.0378 -0.617717,0 -1.12677,-0.505512 -1.12441,-1.12323 l -0.0024,-18.4866 c 0,-0.617717 0.505512,-1.12323 1.12441,-1.12441 z"
   style="fill:url(#linearGradient3231)"
   inkscape:connector-curvature="0" /><path
   id="_243493424"
   class="fil116"
   d="m 41.2783,34.4657 c -0.148819,0.03425 -0.322441,0.177165 -0.50315,0.180709 l -0.01181,-0.06732 -19.4114,0.03898 c -1.26378,0.0035 -1.30748,-0.370866 -1.16457,-1.30512 l 0.04134,0.0248 0.0024,0.0012 c 0.177165,0.09803 0.897638,0.462992 1.07362,0.462992 l 19.0429,0.01063 c 0.262205,0.152362 0.837402,-0.34252 0.947244,-0.516142 0.08622,-0.138189 -0.120472,1.10197 -0.01654,1.16929 z"
   inkscape:connector-curvature="0"
   style="fill:#ffffff;fill-rule:nonzero" /><path
   id="_243502496"
   class="fil127"
   d="m 40.8319,18.0496 -19.552,0 c 0.172441,-0.389764 0.490157,-0.493701 0.871654,-0.493701 l 17.8972,0.02953 c 0.356693,0.0012 0.62126,0.16063 0.783071,0.464173 z"
   inkscape:connector-curvature="0"
   style="fill:#cccccc;fill-rule:nonzero" /><path
   id="_243496808"
   class="fil114"
   d="m 21.261,33.5634 -0.122835,0.133465 m 20.3126,-0.01417 -0.137008,-0.121654"
   inkscape:connector-curvature="0"
   style="fill:none" /><path
   id="_243494744"
   class="fil114"
   d="m 21.5917,33.6827 -0.120472,0.131102 m 19.9925,-0.01417 -0.134646,-0.119291"
   inkscape:connector-curvature="0"
   style="fill:none" /><path
   id="_243491840"
   class="fil2"
   d="m 20.25,16.5791 c 0.16063,-0.175984 0.245669,-0.440551 0.504331,-0.474803 l 0.178346,0.389764 -0.76063,0.943701 0.07795,-0.858661 z"
   inkscape:connector-curvature="0"
   style="fill:#a4a5a7;fill-opacity:0.43921599" /><path
   id="_243512192"
   class="fil128"
   d="m 41.8571,17.9657 -21.6602,0 -0.0024,-2.70709 c 0,-0.0248 0.0012,-0.04961 0.0035,-0.07559 l -0.0035,-0.168898 c 0,-0.05079 0.0047,-0.101575 0.01181,-0.151181 0.04488,-0.109843 0.108661,-0.210236 0.190157,-0.298819 0.132283,-0.161811 0.309449,-0.285827 0.512598,-0.350787 l 19.9583,0 c 0.638976,0.288189 0.901181,1.00512 0.989764,3.75236 z"
   inkscape:connector-curvature="0"
   style="fill:#d4d2d2" /><path
   id="_243500000"
   class="fil129"
   d="m 20.1874,15.4063 c -0.03661,-0.597638 0.206693,-1.22953 0.863386,-1.22953 l 19.5047,0.0083 0.01535,0 0.0035,0.0012 c 0.659055,0.0083 1.01693,0.591732 1.0311,1.2626 0.02126,0.106299 0.03071,0.218504 0.03071,0.335433 l 0.0012,0 0,0.01535 -0.0059,-0.0012 c 0.0035,0.04488 0.0047,0.0874 0.0047,0.133465 l 0.0012,0 0,0.01417 -0.106299,-0.0071 0,-0.01654 0,0 c 0,-0.497244 -0.45,-0.881102 -0.930709,-0.88937 l 0,0.0012 -0.01535,0 -19.3583,0.0094 c -0.135827,0 -0.282283,0.0874 -0.392126,0.0874 -0.197244,0.09331 -0.395669,0.292913 -0.479528,0.499606 l 0.0012,0.0012 c -0.03307,0.08386 -0.05197,0.177165 -0.05197,0.271654 l -0.0874,-0.06378 c -0.0035,-0.04961 -0.0035,-0.09921 0,-0.147638 l -0.0024,-0.119291 -0.02717,-0.02008 c -0.0035,-0.04961 -0.0035,-0.09921 0,-0.146457 z"
   inkscape:connector-curvature="0"
   style="fill:#ffffff;fill-rule:nonzero" /><path
   id="_243177664"
   class="fil130"
   d="m 20.6138,13.040476 19.911,-0.03806 0,-0.0024 0.0047,0 c 0.444094,0 0.850394,0.186754 1.14331,0.484133 0.291732,0.295 0.477165,0.705384 0.477165,1.14788 l 0,0.0047 -0.0024,0 -0.03543,18.617086 c -0.0012,0.449638 -0.185433,0.860021 -0.478346,1.15502 -0.292913,0.29738 -0.699213,0.481754 -1.14449,0.481754 -3.77598,0 -5.30906,0.0072 -7.02283,0.01308 -2.92441,0.01071 -6.27992,0.02498 -12.8504,0.02498 l -0.0047,0 0,-0.0024 c -0.442913,-0.0012 -0.850394,-0.185565 -1.14213,-0.478185 l -0.0012,0 c -0.292913,-0.295 -0.477165,-0.703004 -0.477165,-1.150267 l 0,-0.0047 0.0024,0 -0.0024,-18.618295 -0.0024,0 c 0,-0.448448 0.184252,-0.856452 0.477165,-1.153831 l 0.0012,-0.0012 c 0.294094,-0.294999 0.701575,-0.481753 1.14685,-0.481753 l 0,0.0024 z m 19.8555,0.798166 -19.8555,0.02022 0,0.0024 c -0.17126,0 -0.329528,0.07256 -0.441732,0.183186 l -0.0012,0.0012 c -0.109843,0.113005 -0.180709,0.27121 -0.180709,0.44369 l -0.0024,0 0.0024,18.803907 0.0024,0 0,0.0047 c 0,0.170101 0.07087,0.327117 0.18189,0.438931 l -0.0012,0.0012 c 0.112205,0.113004 0.270472,0.184375 0.438189,0.184375 l 0,-0.0024 0.0047,0 c 7.72559,0 10.4787,-0.01071 12.8457,-0.02022 2.3374,-0.0095 4.3878,-0.01785 7.02756,-0.01785 0.170079,0 0.327165,-0.07018 0.438189,-0.183186 l 0,-0.0012 c 0.114567,-0.115383 0.187795,-0.275968 0.187795,-0.443689 l 0.03543,-18.617086 -0.0024,0 0,-0.0047 c 0,-0.170101 -0.07205,-0.327117 -0.18189,-0.438932 -0.111024,-0.113004 -0.323622,-0.352097 -0.49252,-0.352097 l -0.0047,0 0,-0.0024 z"
   style="fill:url(#linearGradient3221);fill-rule:nonzero"
   inkscape:connector-curvature="0" /><rect
   id="_243190552"
   class="fil131"
   x="20"
   y="16.9972"
   width="21"
   height="0.99566901"
   style="fill:#b3b3b3" /><polygon
   id="_243161512"
   class="fil132"
   points="25.0287,33.0661 21.0614,33.0661 21.0614,28.9382 25.0287,28.9382 "
   style="fill:#c4c4c4"
   transform="matrix(1.0082424,0,0,0.9690157,-0.23499599,0.95842991)" /><polygon
   id="_239988576"
   class="fil137"
   points="24.0295,32.0669 24.0295,29.9374 22.0606,29.9374 22.0606,32.0669 "
   style="fill:#74afe5"
   transform="matrix(1.0157957,0,0,0.93918758,-0.40906293,1.8831659)" /><polygon
   id="_239973672"
   class="fil132"
   points="25.0287,28.0547 21.0614,28.0547 21.0614,23.9268 25.0287,23.9268 "
   style="fill:#c4c4c4"
   transform="matrix(1.0082424,0,0,0.96901572,-0.23499599,0.81455459)" /><polygon
   id="_242552704"
   class="fil137"
   points="24.0295,24.926 22.0606,24.926 22.0606,27.0555 24.0295,27.0555 "
   style="fill:#74afe5"
   transform="matrix(1.0157957,0,0,0.93918759,-0.40906293,1.5898103)" /><polygon
   id="_242554552"
   class="fil132"
   points="25.0287,23.0433 21.0614,23.0433 21.0614,18.9154 25.0287,18.9154 "
   style="fill:#c4c4c4"
   transform="matrix(1.0082425,0,0,0.96901571,-0.23499882,0.67068029)" /><rect
   id="_239974896"
   class="fil136"
   x="28"
   y="19"
   width="8.4902"
   height="0.98307991"
   style="fill:#cbcbcb" /><rect
   id="_239986872"
   class="fil136"
   x="28"
   y="20.9953"
   width="5"
   height="1.03228"
   style="fill:#cbcbcb" /><rect
   id="_243182584"
   class="fil136"
   x="34"
   y="20.9953"
   width="5.3555017"
   height="1.03228"
   style="fill:#cbcbcb" /><rect
   id="_243163120"
   class="fil136"
   x="28"
   y="24"
   width="6.1020103"
   height="1"
   style="fill:#cbcbcb" /><rect
   id="_239981280"
   class="fil136"
   x="28"
   y="26"
   width="6"
   height="1"
   style="fill:#cbcbcb" /><rect
   id="_239966856"
   class="fil136"
   x="36"
   y="25.967699"
   width="3.9803185"
   height="1.03228"
   style="fill:#cbcbcb" /><rect
   id="_239983488"
   class="fil136"
   x="28"
   y="29.0114"
   width="6.0287108"
   height="1.03228"
   style="fill:#cbcbcb" /><rect
   id="_239981640"
   class="fil136"
   x="28"
   y="31"
   width="7"
   height="0.9960804"
   style="fill:#cbcbcb" /><rect
   id="_239961528"
   class="fil136"
   x="36.084999"
   y="31"
   width="3.9150009"
   height="1"
   style="fill:#cbcbcb" />
<polygon
   style="fill:#74afe5"
   points="24.0295,24.926 22.0606,24.926 22.0606,27.0555 24.0295,27.0555 "
   class="fil137"
   id="polygon3233"
   transform="matrix(1.0157956,0,0,0.9391876,-0.4090609,-3.4101901)" /></svg>