<?xml version="1.0" encoding="UTF-8"?>
<!DOCTYPE svg PUBLIC "-//W3C//DTD SVG 1.1//EN" "http://www.w3.org/Graphics/SVG/1.1/DTD/svg11.dtd">
<!-- Creator: CorelDRAW -->
<svg xmlns="http://www.w3.org/2000/svg" xml:space="preserve" width="48px" height="48px" style="shape-rendering:geometricPrecision; text-rendering:geometricPrecision; image-rendering:optimizeQuality; fill-rule:evenodd; clip-rule:evenodd"
viewBox="0 0 48 48"
 xmlns:xlink="http://www.w3.org/1999/xlink">
 <defs>
  <style type="text/css">
   <![CDATA[
    .fil35 {fill:#B2B2B2}
    .fil15 {fill:#E5E5E5}
    .fil37 {fill:white}
    .fil36 {fill:#8A8787}
    .fil17 {fill:#8C8C8C}
    .fil18 {fill:#D67FF2}
    .fil42 {fill:black;fill-rule:nonzero}
    .fil16 {fill:#8C8C8C;fill-rule:nonzero}
    .fil38 {fill:#9756AD;fill-rule:nonzero}
    .fil40 {fill:#E69CFF;fill-rule:nonzero}
    .fil49 {fill:#F2F2F2;fill-rule:nonzero}
    .fil24 {fill:#FFD6F9;fill-rule:nonzero}
    .fil0 {fill:black;fill-opacity:0.000000}
    .fil26 {fill:#713E82;fill-opacity:0.000000}
    .fil1 {fill:black;fill-opacity:0.003922}
    .fil2 {fill:black;fill-opacity:0.007843}
    .fil3 {fill:black;fill-opacity:0.015686}
    .fil4 {fill:black;fill-opacity:0.019608}
    .fil5 {fill:black;fill-opacity:0.023529}
    .fil6 {fill:black;fill-opacity:0.027451}
    .fil27 {fill:#713E82;fill-opacity:0.031373}
    .fil7 {fill:black;fill-opacity:0.031373}
    .fil8 {fill:black;fill-opacity:0.035294}
    .fil9 {fill:black;fill-opacity:0.043137}
    .fil10 {fill:black;fill-opacity:0.047059}
    .fil11 {fill:black;fill-opacity:0.050980}
    .fil12 {fill:black;fill-opacity:0.054902}
    .fil13 {fill:black;fill-opacity:0.058824}
    .fil28 {fill:#713E82;fill-opacity:0.062745}
    .fil29 {fill:#713E82;fill-opacity:0.094118}
    .fil30 {fill:#713E82;fill-opacity:0.125490}
    .fil31 {fill:#713E82;fill-opacity:0.156863}
    .fil32 {fill:#713E82;fill-opacity:0.188235}
    .fil33 {fill:#713E82;fill-opacity:0.219608}
    .fil43 {fill:#9756AD;fill-rule:nonzero;fill-opacity:0.219608}
    .fil19 {fill:#A95DC2;fill-opacity:0.321569}
    .fil48 {fill:#969696;fill-rule:nonzero;fill-opacity:0.439216}
    .fil21 {fill:#9756AD;fill-rule:nonzero;fill-opacity:0.439216}
    .fil25 {fill:#FFD6F9;fill-rule:nonzero;fill-opacity:0.501961}
    .fil45 {fill:#E69CFF;fill-rule:nonzero;fill-opacity:0.580392}
    .fil22 {fill:#D67FF2;fill-opacity:0.678431}
    .fil50 {fill:#D67FF2;fill-rule:nonzero;fill-opacity:0.678431}
    .fil41 {fill:#E69CFF;fill-rule:nonzero;fill-opacity:0.678431}
    .fil20 {fill:url(#id0)}
    .fil14 {fill:url(#id1)}
    .fil34 {fill:url(#id2)}
    .fil47 {fill:url(#id3);fill-rule:nonzero}
    .fil39 {fill:url(#id4);fill-rule:nonzero}
    .fil46 {fill:url(#id5);fill-rule:nonzero;fill-opacity:0.439216}
    .fil23 {fill:url(#id6);fill-rule:nonzero;fill-opacity:0.501961}
    .fil44 {fill:url(#id7);fill-rule:nonzero;fill-opacity:0.501961}
   ]]>
  </style>
  <linearGradient id="id0" gradientUnits="userSpaceOnUse" x1="24.2291" y1="3.88819" x2="24.2291" y2="46.3217">
   <stop offset="0" style="stop-color:#D67FF2"/>
   <stop offset="1" style="stop-color:#B575DD"/>
  </linearGradient>
  <linearGradient id="id1" gradientUnits="userSpaceOnUse" x1="23.5287" y1="45.4228" x2="24.4193" y2="0.650787">
   <stop offset="0" style="stop-color:#999999"/>
   <stop offset="1" style="stop-color:#B2B2B2"/>
  </linearGradient>
  <linearGradient id="id2" gradientUnits="userSpaceOnUse" x1="23.9858" y1="43.1965" x2="23.8252" y2="44.7094">
   <stop offset="0" style="stop-color:#C4C4C4"/>
   <stop offset="1" style="stop-color:#D4D4D4"/>
  </linearGradient>
  <linearGradient id="id3" gradientUnits="userSpaceOnUse" x1="24.6815" y1="30.039" x2="24.078" y2="7.79882">
   <stop offset="0" style="stop-color:#F3F3F3"/>
   <stop offset="1" style="stop-color:white"/>
  </linearGradient>
  <linearGradient id="id4" gradientUnits="userSpaceOnUse" x1="23.9669" y1="46.9098" x2="23.8654" y2="41.1012">
   <stop offset="0" style="stop-color:#7F7F7F"/>
   <stop offset="1" style="stop-color:#8F8F8F"/>
  </linearGradient>
  <linearGradient id="id5" gradientUnits="userSpaceOnUse" x1="24.9827" y1="8.50748" x2="25.3654" y2="26.0492">
   <stop offset="0" style="stop-color:#9E59B5"/>
   <stop offset="1" style="stop-color:#B476DE"/>
  </linearGradient>
  <linearGradient id="id6" gradientUnits="userSpaceOnUse" x1="11.2772" y1="9.67441" x2="10.6346" y2="44.9965">
   <stop offset="0" style="stop-color:#FFD6F9"/>
   <stop offset="1" style="stop-color:#B575DD"/>
  </linearGradient>
  <linearGradient id="id7" gradientUnits="userSpaceOnUse" x1="34.7563" y1="25.9937" x2="34.9854" y2="28.9417">
   <stop offset="0" style="stop-color:#9756AD"/>
   <stop offset="1" style="stop-color:#B476DE"/>
  </linearGradient>
 </defs>
 <g id="Слой_x0020_1">
  <metadata id="CorelCorpID_0Corel-Layer"/>
  <g id="_46942560">
   <path id="_61632432" class="fil0" d="M23.0575 41.0161c14.7638,-0.640157 20.7413,0.858661 23.0646,2.80512l0 4.07008c-0.131102,0.0389764 -0.270472,0.0755906 -0.419291,0.108661l-43.976 0 0 -3.15354c1.76102,-1.62402 6.82559,-3.20079 21.3307,-3.83031z"/>
   <g>
    <path id="_56352640" class="fil1" d="M23.1083 41.3752c14.8193,-0.620079 20.7992,0.973228 23.0138,2.93858l0 3.48661c-0.237402,0.0767717 -0.506693,0.142913 -0.807874,0.199606l-43.3406 0 -0.24685 -0.0956693 0 -2.58543c1.58268,-1.65118 6.50197,-3.32244 21.3815,-3.9437z"/>
    <path id="_107415560" class="fil2" d="M23.1567 41.7319c14.8394,-0.595276 20.8701,1.08898 22.9654,3.05551l0 2.9185c-0.340157,0.121654 -0.766535,0.219685 -1.26732,0.294094l-42.5386 0c-0.231496,-0.0673228 -0.427559,-0.140551 -0.58937,-0.222047l0 -1.99961c1.38898,-1.66535 6.19252,-3.43583 21.4299,-4.04646z"/>
    <path id="_61258632" class="fil3" d="M23.2051 42.0909c14.8276,-0.56811 20.9657,1.20236 22.9169,3.15354l0 2.36693c-0.434646,0.174803 -1.04646,0.301181 -1.81063,0.388583l-41.6138 0c-0.427559,-0.100394 -0.753543,-0.218504 -0.970866,-0.357874l0 -1.41142c1.14331,-1.66299 5.87126,-3.54331 21.4783,-4.13976z"/>
    <path id="_46809344" class="fil4" d="M23.2535 42.4488c14.785,-0.533858 21.1063,1.31457 22.8685,3.2315l0 1.83189c-0.516142,0.245669 -1.38307,0.398031 -2.53465,0.487795l-40.4386 0c-0.727559,-0.133465 -1.21654,-0.308268 -1.42205,-0.530315l0 -0.752362c0.732283,-1.64409 5.38346,-3.68386 21.5268,-4.2685z"/>
    <path id="_120730912" class="fil5" d="M23.302 42.8079c14.7496,-0.499606 21.339,1.43504 22.8201,3.3l0 1.29449c-0.569291,0.344882 -1.84488,0.517323 -3.63543,0.597638l-11.3433 0c-1.10669,-0.00590551 -2.24055,-0.00708661 -3.39685,0l-24.039 0c-1.20709,-0.165354 -1.8874,-0.409843 -1.8874,-0.758268 0,-1.58976 4.57087,-3.86102 21.4819,-4.43386z"/>
    <path id="_47257752" class="fil6" d="M23.3504 43.1657c14.8346,-0.464173 21.7972,1.59449 22.7717,3.39685l0 0.698031c-0.605906,0.615354 -3.44055,0.73937 -7.47047,0.73937 -4.00157,0 -9.17717,-0.120472 -14.5122,0l-19.6713 0c-1.55079,-0.145276 -2.4437,-0.379134 -2.4437,-0.732283 0,-1.47638 5.32441,-3.6 21.326,-4.10197z"/>
    <path id="_109443776" class="fil7" d="M23.3988 43.5248c15.0898,-0.429921 22.5898,1.81299 22.6323,3.52205 0.0437008,1.40433 -10.6996,0.667323 -22.0358,0.9l-2.69291 0.0531496 -15.6295 0c-2.15787,-0.11811 -3.44409,-0.337795 -3.44409,-0.706299 0,-1.36181 6.07913,-3.34016 21.1701,-3.7689z"/>
    <path id="_59073784" class="fil8" d="M23.4472 43.8827c14.1803,-0.357874 22.3382,1.69252 22.3736,3.23031 0.0354331,1.18819 -10.6382,0.583465 -21.8055,0.777165 -2.5311,0.0437008 -5.02205,0.0838583 -7.36299,0.109843l-8.34921 0c-3.5811,-0.0685039 -5.87008,-0.261024 -5.87008,-0.680315 0,-1.24843 6.83268,-3.07913 21.0142,-3.43701z"/>
    <path id="_58055784" class="fil9" d="M23.4957 44.2417c13.2709,-0.287008 22.0854,1.57087 22.1138,2.93622 0.0295276,0.973228 -10.5744,0.499606 -21.5764,0.654331 -10.9984,0.154724 -21.3957,0.248031 -21.3957,-0.486614 0,-1.13504 7.5874,-2.81811 20.8583,-3.10394z"/>
    <path id="_56052616" class="fil10" d="M23.5441 44.5996c12.3591,-0.21378 21.835,1.45039 21.8551,2.64449 0.0224409,0.757087 -10.5142,0.415748 -21.3461,0.531496 -10.8319,0.115748 -21.2114,0.172441 -21.2114,-0.405118 0,-1.01929 8.33976,-2.55591 20.7024,-2.77087z"/>
    <path id="_57433960" class="fil11" d="M23.5925 44.9587c11.4496,-0.142913 21.5823,1.32992 21.5965,2.35157 0.0141732,0.540945 -10.4528,0.330709 -21.1169,0.408661 -10.6642,0.0767717 -21.026,0.0968504 -21.026,-0.322441 0,-0.905906 9.09449,-2.29488 20.5465,-2.4378z"/>
    <path id="_57490256" class="fil12" d="M23.6421 45.3154c10.539,-0.0708661 21.3295,1.20945 21.3354,2.05866 0.00826772,0.325984 -10.3902,0.248031 -20.8866,0.285827 -10.4953,0.0389764 -20.8417,0.0224409 -20.8417,-0.238583 0,-0.791339 9.85039,-2.03386 20.3929,-2.10591z"/>
   </g>
   <path id="_111758640" class="fil13" d="M23.687 45.6768c9.63189,0 21.0791,1.0878 21.0791,1.76575 0,0.220866 -41.315,0.212598 -41.315,0.00708661 0,-0.677953 10.6039,-1.77283 20.2358,-1.77283z"/>
  </g>
  <path class="fil14" d="M9.20315 0.0271654l29.5429 0c0.668504,0 1.21535,0.54685 1.21535,1.21535l0 43.5886c0,0.668504 -0.548031,1.21654 -1.21535,1.21654l-29.5429 0c-0.667323,0 -1.21535,-0.54685 -1.21535,-1.21654l0 -43.5886c0,-0.669685 0.54685,-1.21535 1.21535,-1.21535z"/>
  <path class="fil15" d="M9.00945 0.95315l29.5429 0c0.630709,0 1.15394,0.485433 1.21063,1.10315 0.0366142,0.115748 0.0555118,0.238583 0.0555118,0.364961l0 0.575197 -0.0011811 -0.00354331c-0.0779528,-0.594094 -0.58937,-1.05709 -1.20472,-1.05709l-29.5429 0c-0.668504,0 -1.21535,0.54685 -1.21535,1.21654l0 44.1756c-0.00590551,-0.0484252 -0.00944882,-0.0992126 -0.00944882,-0.15l0 -44.5913c-0.0271654,0.100394 -0.0413386,0.204331 -0.0413386,0.312992l0 44.1756c-0.00590551,-0.0484252 -0.00944882,-0.0992126 -0.00944882,-0.15l0 -44.7567c0,-0.669685 0.54685,-1.21535 1.21535,-1.21535z"/>
  <path class="fil16" d="M8.79921 -0.0685039l29.5429 0c0.470079,0 0.9,0.194882 1.21063,0.504331l0.0011811 0.0011811c0.309449,0.31063 0.504331,0.740551 0.504331,1.21063l0 43.5886c0,0.47126 -0.194882,0.901181 -0.505512,1.21181l0 -0.0011811c-0.31063,0.311811 -0.73937,0.506693 -1.21063,0.506693l-29.5429 0c-0.47126,0 -0.901181,-0.194882 -1.21181,-0.505512 -0.309449,-0.309449 -0.504331,-0.741732 -0.504331,-1.21181l0 -43.5886c0,-0.470079 0.194882,-0.902362 0.504331,-1.21181l0.0011811 0c0.31063,-0.309449 0.740551,-0.504331 1.21063,-0.504331zm29.5429 1.00157l-29.5429 0c-0.197244,0 -0.377953,0.0826772 -0.505512,0.209055 -0.127559,0.127559 -0.209055,0.308268 -0.209055,0.505512l0 43.5886c0,0.197244 0.0814961,0.377953 0.209055,0.505512 0.12874,0.12874 0.31063,0.210236 0.505512,0.210236l29.5429 0c0.194882,0 0.376772,-0.080315 0.504331,-0.209055l0 -0.0011811c0.12874,-0.12874 0.210236,-0.31063 0.210236,-0.505512l0 -43.5886c0,-0.196063 -0.0814961,-0.376772 -0.207874,-0.505512l-0.0011811 -0.0011811c-0.12874,-0.126378 -0.309449,-0.207874 -0.505512,-0.207874z"/>
  <path class="fil17" d="M39.9614 34.2602l0 10.3382c0,0.667323 -0.548031,1.21535 -1.21535,1.21535l-29.5429 0c-0.667323,0 -1.21535,-0.54685 -1.21535,-1.21535l0 -10.3382 31.9736 0z"/>
  <path class="fil18" d="M44.8441 12.9236l0.0637795 0.388583 -42.1724 -0.00944882 0 -8.59606c0,-0.518504 0.205512,-0.994488 0.544488,-1.36535 0.433465,-0.527953 1.09134,-0.865748 1.8248,-0.865748l37.4598 0.0106299c1.30039,0 2.45433,1.07008 2.44016,2.36339l-0.0944882 8.07402 -0.0661417 0z"/>
  <path class="fil19" d="M2.73661 5.54409l-0.0011811 -0.011811 0 -0.558661c0,-0.518504 0.205512,-0.994488 0.544488,-1.36535 0.344882,-0.41811 0.829134,-0.71811 1.38189,-0.823228l0.194882 2.21575 0.347244 0.0685039c-0.340157,0.638976 -2.12244,1.02165 -2.41417,0.551575 -0.291732,-0.470079 -0.034252,-0.0507874 -0.0531496,-0.0767717z"/>
  <path class="fil19" d="M43.5283 2.48504l-0.204331 2.04094 -0.346063 0.0685039c0.281102,0.527953 1.35827,1.18583 2.04449,0.881102l0.00944882 -0.816142c0.0106299,-0.968504 -0.634252,-1.81299 -1.50354,-2.17441z"/>
  <path class="fil20" d="M2.8878 11.6988l-0.00472441 -5.2748c0,-0.518504 0.204331,-1.04646 0.543307,-1.41732 0.433465,-0.527953 1.04173,-1.1185 1.77402,-1.1185l37.8425 0.0106299c1.29921,0 2.4378,1.08661 2.42126,2.3752 -0.0248031,1.78819 0.108661,3.54685 0.109843,5.29016l-0.0992126 32.3917c-0.0023622,1.28858 -1.04291,2.36575 -2.31378,2.36575 -15.2457,0 -11.9575,-0.00944882 -37.9583,-0.00944882 -1.27087,0 -2.31496,-1.06417 -2.31496,-2.36575l-0.00472441 -32.087c0,-0.0543307 0.0011811,-0.10748 0.00472441,-0.16063z"/>
  <path class="fil21" d="M25.0476 36.6071l-0.00826772 -0.151181c0,-0.409843 0.168898,-0.784252 0.434646,-1.05354l0.011811 -0.011811c0.269291,-0.265748 0.643701,-0.434646 1.05354,-0.434646l11.1591 0c0.411024,0 0.785433,0.170079 1.05354,0.434646l0.011811 0.011811c0.265748,0.269291 0.434646,0.643701 0.434646,1.05354l-0.00826772 0.151181 -14.1425 0zm-15.7583 0l-0.00826772 -0.151181c0,-0.409843 0.168898,-0.784252 0.434646,-1.05354l0.011811 -0.011811c0.26811,-0.264567 0.64252,-0.434646 1.05354,-0.434646l11.1591 0c0.409843,0 0.784252,0.168898 1.05354,0.434646l0.011811 0.011811c0.265748,0.269291 0.434646,0.643701 0.434646,1.05354l-0.00826772 0.151181 -14.1425 0z"/>
  <path class="fil22" d="M9.28937 36.6071l14.1425 0c-0.0354331,0.350787 -0.194882,0.667323 -0.426378,0.902362l-0.011811 0.011811c-0.269291,0.265748 -0.643701,0.434646 -1.05354,0.434646l-11.1591 0c-0.411024,0 -0.785433,-0.170079 -1.05354,-0.434646l-0.011811 -0.011811c-0.231496,-0.235039 -0.390945,-0.551575 -0.426378,-0.902362zm15.7583 0l14.1425 0c-0.0354331,0.350787 -0.194882,0.667323 -0.426378,0.902362l-0.011811 0.011811c-0.26811,0.264567 -0.64252,0.434646 -1.05354,0.434646l-11.1591 0c-0.409843,0 -0.784252,-0.168898 -1.05354,-0.434646l-0.011811 -0.011811c-0.231496,-0.235039 -0.390945,-0.551575 -0.426378,-0.902362z"/>
  <path class="fil23" d="M45.0343 6.22441l0.0106299 37.7315c-0.0011811,0.542126 -0.154724,1.05354 -0.416929,1.48937 -0.425197,0.531496 -1.07008,0.876378 -1.78937,0.876378 -15.2457,0 -11.7307,-0.00944882 -37.7315,-0.00944882 -0.542126,0 -1.04291,-0.194882 -1.43858,-0.517323 -0.416929,-0.499606 -0.670866,-1.14567 -0.670866,-1.84843l0.0023622 0c-0.0224409,-12.4264 -0.0566929,-25.8827 -0.0590551,-38.3091 0.0933071,-0.235039 0.225591,-0.451181 0.389764,-0.630709 0.187795,-0.229134 0.40748,-0.47126 0.657874,-0.669685 -0.0295276,0.116929 -0.046063,0.240945 -0.046063,0.369685 0,12.737 0.0318898,26.5028 0.0543307,39.2398l0.0023622 0c0,0.514961 0.206693,0.985039 0.537402,1.32283 0.325984,0.334252 0.780709,0.542126 1.27677,0.542126l0 0.0023622 36.4193 0.00944882 0 -0.0023622c0.494882,0 0.946063,-0.210236 1.27205,-0.543307 0.333071,-0.340157 0.543307,-0.81378 0.543307,-1.32165l-0.0106299 -37.7315 -0.0023622 0 0 -0.0838583 0.0023622 0c0,-0.687402 -0.109843,-1.45039 -0.405118,-2.05866 0.629528,0.259843 1.14094,0.775984 1.37362,1.40669 0.0200787,0.220866 0.0283465,0.43937 0.0283465,0.651969l0.0023622 0 0 0.0838583 -0.0023622 0z"/>
  <path class="fil24" d="M2.91732 6.65079c0,-1.49528 0.703937,-2.70591 2.1626,-2.70591l0 0.0023622 37.6157 0.0106299 0 -0.0023622 0.0318898 0 0.00590551 0.0023622c1.51772,0.0177165 2.22756,1.13504 2.22756,2.69528l0 0.0271654 -0.116929 0.101575 0 -0.0271654c0,-1.01102 -1.14213,-1.78701 -2.11654,-1.8l0 0.0023622 -0.0318898 0 0 -0.0023622 -37.6157 -0.0106299 0 0.0023622c-0.912992,0 -2.12008,0.80315 -2.12008,1.75512l-0.0425197 -0.0507874z"/>
  <path class="fil25" d="M44.8972 43.9087c-0.0555118,0.218504 -0.141732,0.425197 -0.253937,0.614173 0.0637795,-0.0720472 0.11811,-0.154724 0.159449,-0.275197l0.0944882 -0.114567 -0.0472441 0.16063 0.0472441 -0.0566929c-0.259843,1.01339 -1.16929,1.77402 -2.23937,1.77402 -15.2445,0 -11.7307,-0.00944882 -37.7315,-0.00944882 -1.07126,0 -1.98071,-0.757087 -2.24055,-1.77402l0.0318898 0.00590551 -0.0318898 -0.109843 0.0744094 0.0153543c-0.0283465,-0.0779528 -0.0531496,-0.158268 -0.0744094,-0.239764l0.0318898 0.00590551 -0.0318898 -0.109843 0.0933071 0.0188976c0.0885827,0.262205 0.235039,0.496063 0.421654,0.687402 0.318898,0.323622 1.17165,0.504331 1.65,0.504331l37.7303 0.0106299c0.478346,0 1.48465,-0.240945 1.80118,-0.565748 0.186614,-0.190157 0.33189,-0.271654 0.420472,-0.531496l0.0944882 -0.114567 -0.0472441 0.16063 0.0472441 -0.0566929z"/>
  <g id="_111763720">
   <path id="_59119576" class="fil26" d="M11.4803 40.2626l25.1268 0.0814961c0.871654,0.0023622 1.30512,0.584646 1.58504,1.21654l2.43543 4.29449c0.12874,0.227953 0.0637795,0.453543 -0.115748,0.648425 -12.2315,-0.0011811 -10.9323,-0.00944882 -33.0791,-0.0106299 -0.17126,-0.19252 -0.232677,-0.414567 -0.101575,-0.637795l2.56535 -4.37598c0.357874,-0.61063 0.712205,-1.2189 1.58386,-1.21654z"/>
   <g>
    <path id="_58016136" class="fil27" d="M11.6563 40.3087c8.26299,0.0318898 16.5236,0.0637795 24.7878,0.0956693 0.858661,0.00354331 1.28622,0.583465 1.56142,1.21535 0.793701,1.4126 1.5874,2.82402 2.3811,4.23543 0.12874,0.226772 0.0625984,0.453543 -0.113386,0.648425 -11.9362,-0.0011811 -10.8484,-0.00944882 -32.6161,-0.0106299 -0.170079,-0.19252 -0.230315,-0.414567 -0.100394,-0.637795 0.84685,-1.44331 1.69252,-2.8878 2.53819,-4.32992 0.355512,-0.608268 0.701575,-1.2189 1.56142,-1.21654z"/>
    <path id="_60329824" class="fil28" d="M11.8299 40.3547c8.15079,0.0366142 16.2992,0.0744094 24.45,0.111024 0.84685,0.00354331 1.26732,0.583465 1.53898,1.21535 0.774803,1.39134 1.55079,2.78268 2.32677,4.17402 0.127559,0.226772 0.0625984,0.453543 -0.112205,0.648425 -11.6421,-0.0011811 -10.7634,-0.00944882 -32.1543,-0.0106299 -0.168898,-0.19252 -0.226772,-0.415748 -0.0968504,-0.637795 0.83622,-1.42913 1.67244,-2.85591 2.50866,-4.28386 0.355512,-0.607087 0.692126,-1.2189 1.53898,-1.21654z"/>
    <path id="_61136312" class="fil29" d="M12.0035 40.402c8.03858,0.0413386 16.0748,0.0826772 24.1122,0.124016 0.833858,0.00354331 1.24843,0.583465 1.51535,1.21535 0.758268,1.37126 1.51535,2.74252 2.27362,4.11378 0.125197,0.226772 0.0614173,0.453543 -0.111024,0.648425 -11.3504,-0.0011811 -10.6772,-0.00944882 -31.6913,-0.0106299 -0.166535,-0.19252 -0.225591,-0.415748 -0.0956693,-0.637795 0.827953,-1.4126 1.65472,-2.8252 2.4815,-4.2378 0.354331,-0.604724 0.681496,-1.21772 1.51535,-1.21535z"/>
    <path id="_107478808" class="fil30" d="M12.1772 40.448c7.9252,0.046063 15.8492,0.092126 23.7744,0.13937 0.820866,0.00354331 1.22953,0.583465 1.49291,1.21535 0.73937,1.35 1.47874,2.70118 2.21811,4.05236 0.124016,0.226772 0.0614173,0.453543 -0.108661,0.648425 -11.0657,-0.0011811 -10.5874,-0.00944882 -31.2295,-0.0106299 -0.165354,-0.19252 -0.222047,-0.416929 -0.092126,-0.637795 0.817323,-1.39724 1.63465,-2.79449 2.45315,-4.19173 0.351969,-0.603543 0.670866,-1.21772 1.49173,-1.21535z"/>
    <path id="_46829728" class="fil31" d="M12.3508 40.4941c7.81299,0.0507874 15.6248,0.101575 23.4378,0.153543 0.807874,0.00472441 1.21063,0.583465 1.46929,1.21535 0.720472,1.3311 1.44213,2.66102 2.16378,3.99213 0.122835,0.226772 0.0614173,0.453543 -0.106299,0.648425 -10.7799,-0.0011811 -10.4988,-0.00944882 -30.7689,-0.0106299 -0.161811,-0.193701 -0.219685,-0.416929 -0.0897638,-0.637795 0.809055,-1.38189 1.61693,-2.76378 2.4248,-4.14567 0.351969,-0.601181 0.661417,-1.21772 1.46929,-1.21535z"/>
    <path id="_113716472" class="fil32" d="M12.5256 40.5402c7.69961,0.0555118 15.3992,0.112205 23.0988,0.167717 0.794882,0.00590551 1.19173,0.584646 1.44685,1.21654 0.702756,1.30984 1.40551,2.61969 2.10945,3.93071 0.120472,0.226772 0.0602362,0.453543 -0.103937,0.648425 -10.5,-0.0011811 -10.4138,-0.00944882 -30.3083,-0.0106299 -0.16063,-0.193701 -0.216142,-0.416929 -0.0862205,-0.637795 0.798425,-1.36654 1.59803,-2.73307 2.39646,-4.09961 0.350787,-0.6 0.650787,-1.21772 1.44685,-1.21535z"/>
   </g>
   <path id="_106806336" class="fil33" d="M12.6992 40.5874l22.761 0.18189c0.783071,0.00590551 1.17283,0.583465 1.42323,1.21535l2.05512 3.87047c0.120472,0.226772 0.0614173,0.453543 -0.100394,0.648425 -10.2224,-0.0011811 -10.3287,-0.00944882 -29.8476,-0.0106299 -0.158268,-0.193701 -0.212598,-0.416929 -0.0838583,-0.637795l2.36811 -4.05236c0.350787,-0.598819 0.641339,-1.21772 1.42441,-1.21535z"/>
  </g>
  <path class="fil34" d="M12.4866 41.5748l23.0799 0.0755906c0.75,0.0023622 1.12323,0.54685 1.36417,1.13976l1.32402 2.40472c0.312992,0.56811 -0.615354,1.13976 -1.36417,1.13976l-25.9394 0c-0.748819,0 -1.70906,-0.583465 -1.36417,-1.13976l1.53543 -2.4815c0.344882,-0.556299 0.614173,-1.14094 1.36417,-1.13858z"/>
  <path class="fil35" d="M9.74528 44.8654l28.5543 0c-0.0484252,0.0897638 -0.113386,0.174803 -0.190157,0.252756l0.190157 0c-0.225591,0.416929 -0.788976,0.719291 -1.30276,0.719291l-25.9382 0c-0.511417,0 -1.08661,-0.304724 -1.31339,-0.719291l0.193701 0c-0.0779528,-0.0779528 -0.144094,-0.162992 -0.193701,-0.252756z"/>
  <path class="fil36" d="M9.79606 43.9535l28.5543 0c-0.0484252,0.0897638 -0.113386,0.174803 -0.190157,0.252756l0.190157 0c-0.225591,0.416929 -0.788976,0.719291 -1.30276,0.719291l-25.9382 0c-0.511417,0 -1.08661,-0.304724 -1.31339,-0.719291l0.193701 0c-0.0779528,-0.0779528 -0.144094,-0.162992 -0.193701,-0.252756z"/>
  <path class="fil37" d="M10.402 42.9921l27.2409 0c-0.0484252,0.0897638 -0.113386,0.174803 -0.190157,0.252756l0.190157 0c-0.225591,0.416929 -0.133465,0.719291 -0.646063,0.719291l-25.9382 0c-0.510236,0 -0.429921,-0.304724 -0.656693,-0.719291l0.193701 0c-0.0779528,-0.0779528 -0.144094,-0.162992 -0.193701,-0.252756z"/>
  <path class="fil38" d="M45.9933 6.22441l0.0106299 37.7315c-0.0011811,0.780709 -0.318898,1.49882 -0.824409,2.01614 -0.511417,0.601181 -1.21654,1.3689 -1.9878,0.850394l0 -0.0023622 -38.3882 -0.00944882 0 0.0023622c-0.773622,0 -1.48228,-0.325984 -1.99252,-0.849213 -0.506693,-0.517323 -0.823228,-1.23307 -0.823228,-2.01732l0.0023622 0c-0.0224409,-12.737 -0.0590551,-26.5028 -0.0590551,-39.2398 0,-0.314173 0.0637795,-0.623622 0.177165,-0.908268l0 -0.0011811c0.116929,-0.292913 0.28937,-0.562205 0.498425,-0.79252l0.0011811 0.0011811c0.264567,-0.317717 0.597638,-0.577559 0.973228,-0.754724 0.372047,-0.175984 0.786614,-0.276378 1.22008,-0.276378l0 0.0023622 38.1165 0.0106299 0 -0.0023622 0.0354331 0 0.00590551 0.0023622c1.20118,0.0141732 1.9748,0.634252 2.4437,1.48819 0.431102,0.787795 0.591732,1.78465 0.590551,2.66457l0.0023622 0 0 0.0838583 -0.0023622 0zm-0.98622 37.7315l-0.0106299 -37.7315 -0.0023622 0 0 -0.0838583 0.0023622 0c0,-0.735827 -0.126378,-1.55787 -0.470079,-2.18504 -0.304724,-0.556299 -0.805512,-0.960236 -1.57323,-0.970866l0 0.0023622 -0.0354331 0 0 -0.0023622 -38.1165 -0.0106299 0 0.0023622c-0.287008,0 -0.55748,0.0649606 -0.794882,0.177165 -0.249213,0.116929 -0.47126,0.291732 -0.644882,0.504331l-0.0153543 0.0200787c-0.133465,0.146457 -0.242126,0.314173 -0.311811,0.490157 -0.0649606,0.164173 -0.101575,0.346063 -0.101575,0.538583 0,12.737 0.0318898,26.5028 0.0543307,39.2398l0.0023622 0c0,0.514961 0.206693,0.985039 0.537402,1.32283 0.325984,0.334252 0.780709,0.542126 1.27677,0.542126l0 0.0023622 38.3882 0.00944882 0 -0.0023622c0.494882,0 0.946063,-0.210236 1.27205,-0.543307 0.333071,-0.340157 0.543307,-0.81378 0.543307,-1.32165z"/>
  <path class="fil39" d="M12.4866 41.178l23.0799 0.0755906c0.519685,0.0011811 0.914173,0.194882 1.2189,0.488976 0.277559,0.269291 0.466535,0.612992 0.608268,0.961417l1.32402 2.30315c0.0531496,0.132283 0.0791339,0.264567 0.0791339,0.393307 0,0.302362 -0.135827,0.57874 -0.35315,0.805512 -0.18189,0.190157 -0.426378,0.348425 -0.687402,0.454724l-0.0023622 0c-0.270472,0.108661 -0.575197,0.174803 -0.863386,0.174803l-25.9394 0c-0.324803,0 -0.670866,-0.0814961 -0.969685,-0.219685 -0.242126,-0.111024 -0.464173,-0.263386 -0.625984,-0.441732 -0.197244,-0.217323 -0.318898,-0.477165 -0.318898,-0.761811 0,-0.140551 0.0330709,-0.283465 0.0956693,-0.422835l0.0519685 -0.0011811 1.53543 -2.37992 -0.0507874 -0.0023622c0.154724,-0.336614 0.337795,-0.673228 0.603543,-0.935433l0.0011811 0.0011811c0.301181,-0.297638 0.688583,-0.494882 1.21299,-0.493701zm23.0799 1.07244l-23.0799 -0.0755906c-0.223228,0 -0.387402,0.0814961 -0.510236,0.204331l0 0.0023622c-0.159449,0.158268 -0.288189,0.398031 -0.400394,0.64252l-0.0011811 0 -1.53307 2.37638 -0.00354331 0.011811c0,0.0177165 0.0224409,0.0507874 0.0566929,0.0885827 0.0708661,0.0779528 0.180709,0.151181 0.304724,0.207874 0.170079,0.0779528 0.367323,0.125197 0.551575,0.125197l25.9394 0c0.162992,0 0.337795,-0.0377953 0.490157,-0.0980315l0 -0.0011811c0.142913,-0.057874 0.265748,-0.133465 0.344882,-0.216142 0.0413386,-0.0437008 0.069685,-0.0874016 0.069685,-0.11811l-0.00354331 -0.0177165 -1.32402 -2.30315c-0.0980315,-0.242126 -0.219685,-0.47126 -0.374409,-0.62126 -0.12874,-0.125197 -0.301181,-0.207874 -0.526772,-0.207874z"/>
  <path class="fil40" d="M12.4866 41.178l23.0799 0.0755906c0.393307,0.0011811 0.714567,0.112205 0.980315,0.292913l-1.16811 0.702756 -22.8921 -0.0744094c-0.0968504,0 -0.184252,0.0153543 -0.261024,0.0437008l-0.712205 -0.747638c0.261024,-0.18189 0.57874,-0.294094 0.973228,-0.292913z"/>
  <path class="fil41" d="M12.235 38.9492l23.0799 0.0755906c0.393307,0.0011811 0.714567,0.112205 0.980315,0.292913l-1.16811 0.702756 -22.8921 -0.0744094c-0.0968504,0 -0.184252,0.0153543 -0.261024,0.0437008l-0.712205 -0.747638c0.261024,-0.18189 0.57874,-0.294094 0.973228,-0.292913z"/>
  <polygon class="fil42" points="21.9307,28.2803 21.9307,28.4055 15.3236,28.4055 15.4772,28.3665 "/>
  <path class="fil42" d="M23.0528 15.7217l3.67441 0 6.6378 -1.05827 -0.0011811 0.298819c-1.21772,0.0389764 -5.84055,1.21535 -5.84055,1.21535l-4.47047 -0.455906z"/>
  <path class="fil42" d="M33.2421 20.7343l0.0755906 -1.29094c0,0 -1.9311,0.303543 -2.23465,0.303543 -0.0814961,0 -0.272835,0.0472441 -0.509055,0.114567 0.23622,-0.0673228 0.427559,-0.114567 0.509055,-0.114567 0.303543,0 2.23465,-0.303543 2.23465,-0.303543l-0.0755906 1.29094 -1.4563 0.670866 1.4563 -0.670866z"/>
  <path class="fil43" d="M31.1563 23.0705l0 -0.0011811 0.484252 -0.106299 1.56496 1.37953 -6.66732 1.06299 -4.50709 0 -6.36378 -0.874016 1.30866 -1.59213 0.301181 0.0590551 0 0.0011811 0.674409 0.127559 0.00826772 0 0.550394 0.108661 0.00826772 0.00354331c0.379134,0.0767717 0.80315,0.15 1.26142,0.211417 0.432283,0.057874 0.916535,0.112205 1.43976,0.155906 0.545669,0.0448819 1.07835,0.0791339 1.59094,0.100394 0.487795,0.0188976 1.04055,0.0295276 1.66063,0.0295276 0.634252,0 1.24134,-0.011811 1.7752,-0.0330709 0.571654,-0.023622 1.11614,-0.057874 1.58386,-0.100394 0.440551,-0.0401575 0.888189,-0.0944882 1.33937,-0.159449 0.441732,-0.0649606 0.833858,-0.133465 1.17756,-0.20315l0 -0.0011811 0.809055 -0.168898z"/>
  <path class="fil43" d="M15.6673 19.4799l1.27087 -1.54606 0 0.101575c2.54764,0.400394 4.96772,0.778346 7.55669,0.778346 1.34882,0 2.67874,-0.0720472 3.99213,-0.224409 1.09724,-0.127559 2.19094,-0.315354 3.2811,-0.566929l1.4374 1.2685 -6.66732 1.06299 -4.50709 0 -6.36378 -0.874016z"/>
  <path class="fil43" d="M15.8563 14.8476l1.2248 -1.49055 0.237402 0.0484252c0.657874,0.134646 1.31575,0.264567 1.98307,0.375591 0.63189,0.103937 1.2815,0.191339 1.96063,0.248031 0.54685,0.0448819 1.07953,0.0791339 1.59331,0.100394 0.486614,0.0188976 1.04173,0.0295276 1.66063,0.0295276 0.637795,0 1.24724,-0.011811 1.78346,-0.0330709 0.569291,-0.0224409 1.11142,-0.0566929 1.57795,-0.0992126 0.441732,-0.0401575 0.88937,-0.0944882 1.33819,-0.159449 0.433465,-0.0625984 0.827953,-0.132283 1.1811,-0.204331l0.00472441 0 0.849213 -0.172441 0.0413386 -0.011811 0.601181 -0.105118 0.0011811 -0.0389764 1.47047 1.29803 0 0.0307087 -6.6378 1.05827 -4.50709 0 -6.36378 -0.874016z"/>
  <path class="fil44" d="M19.9323 26.7201c1.20945,0.113386 6.49134,0.574016 8.7437,0.244488l0 0.0141732 4.61102 0c0.20315,0 0.405118,0.0472441 0.592913,0.134646l0.00826772 0.00354331c0.173622,0.0826772 0.335433,0.20315 0.464173,0.350787l-0.0011811 0.0011811c0.10748,0.120472 0.199606,0.255118 0.26811,0.408661l0.00472441 0.00354331c0.0318898,0.0732283 0.057874,0.148819 0.0779528,0.227953l-8.02441 0.10748 0 -0.0129921 -1.37953 0 -0.328346 0 -0.0212598 0 -0.977953 0 -0.0212598 0 -0.441732 0 -1.57677 0 0 0.0767717 -6.45354 0.0862205 -0.153543 0.0389764 -1.56142 0c0.011811,-0.148819 0.0448819,-0.292913 0.0909449,-0.426378l0.00826772 -0.0188976c0.0673228,-0.180709 0.166535,-0.347244 0.294094,-0.490157l-0.0011811 -0.0011811 0.0448819 -0.0484252 0.266929 -0.294094 0.134646 0 0.0188976 -0.00944882 0.00826772 -0.00354331c0.187795,-0.0874016 0.390945,-0.134646 0.591732,-0.134646l4.7126 0 0 -0.258661z"/>
  <path class="fil45" d="M13.7622 28.4055l8.1685 0 0 0.571654 0 0.0401575 4.74685 0 0 -0.0401575 0 -0.571654 8.06929 0 0.0023622 0.0838583c0,0.185433 -0.034252,0.387402 -0.0956693,0.569291 -0.0649606,0.187795 -0.167717,0.373228 -0.302362,0.525591l0.0011811 0.0011811c-0.129921,0.148819 -0.290551,0.26811 -0.464173,0.350787l-0.00826772 0.00354331c-0.187795,0.0874016 -0.389764,0.134646 -0.592913,0.134646l-4.61102 0 0 0.941339 -0.999213 0 -6.74528 0 -0.999213 0 0 -0.941339 -4.7126 0c-0.206693,0 -0.405118,-0.0484252 -0.57874,-0.127559l-0.011811 -0.00708661c-0.170079,-0.0791339 -0.325984,-0.193701 -0.455906,-0.335433 -0.133465,-0.144094 -0.240945,-0.320079 -0.311811,-0.512598l-0.00826772 -0.011811c-0.0590551,-0.166535 -0.0956693,-0.356693 -0.0956693,-0.552756l0.00472441 -0.121654z"/>
  <path class="fil46" d="M14.2346 24.6531l1.28031 -1.03346 -0.151181 -13.9736 2.44134 -0.0649606 -0.504331 -0.127559c0.283465,-0.0625984 0.588189,-0.121654 0.915354,-0.177165 0.843307,-0.142913 1.82598,-0.258661 2.8937,-0.336614l0.00354331 0c1.02756,-0.0767717 2.14252,-0.11811 3.3,-0.11811 1.12677,0 2.24882,0.0389764 3.27874,0.109843 1.04882,0.0720472 2.01614,0.177165 2.8122,0.305906l0.00472441 0 0.0200787 0.00354331 1.88031 -0.0507874 0.985039 0.303543 -0.0767717 13.7469c0,0 0.413386,0.84685 1.02402,1.59449 0.0708661,-0.0661417 0.135827,-0.133465 0.194882,-0.20315 0.266929,-0.311811 0.427559,-0.659055 0.454724,-1.03583l0.00354331 -0.0744094 0 -0.115748 0 -13.624 0 -0.101575 0.0011811 -0.0248031 0 -0.184252 -0.00354331 -0.0472441c-0.00590551,-0.133465 -0.0259843,-0.251575 -0.0614173,-0.36378l-0.0590551 -0.144094 -0.0011811 -0.0023622 -0.00826772 -0.023622 -0.0200787 -0.0377953 -0.108661 -0.159449 -0.0307087 -0.0377953 -0.0661417 -0.0791339 -0.00590551 -0.00590551 -0.0318898 -0.0271654c-0.325984,-0.298819 -0.853937,-0.561024 -1.53661,-0.774803 -0.58937,-0.185433 -1.35118,-0.354331 -2.23701,-0.497244l0 -0.0011811c-0.871654,-0.141732 -1.90394,-0.253937 -3.00118,-0.329528 -1.09724,-0.0744094 -2.26535,-0.116929 -3.41102,-0.116929 -1.19291,0 -2.35866,0.0448819 -3.44882,0.125197 -1.12087,0.0814961 -2.16614,0.206693 -3.07677,0.360236 -0.891732,0.15 -1.65118,0.328346 -2.22756,0.517323 -0.688583,0.226772 -1.20472,0.51378 -1.49764,0.844488l-0.155906 0.235039c-0.0720472,0.153543 -0.112205,0.282283 -0.137008,0.424016l-0.0011811 0c-0.0200787,0.125197 -0.0188976,0.217323 -0.0177165,0.330709l-0.00354331 0 0 0.00354331 0.00354331 0.00826772 0 0.00354331 0.0011811 0.105118 -0.00354331 0 0 0.0011811 0 12.9909 0.00354331 0 -0.0011811 0.774803 0.00354331 0.0897638 0.00354331 0.0330709 -0.0011811 0 0.0011811 0.0200787 0.0011811 0c0.0165354,0.355512 0.147638,0.676772 0.375591,0.962598z"/>
  <path class="fil47" d="M31.9547 23.9173c-0.305906,0.0708661 -0.791339,0.173622 -1.40433,0.298819 -0.780709,0.159449 -1.65118,0.290551 -2.63031,0.379134 -0.981496,0.0897638 -2.25236,0.140551 -3.44882,0.140551 -1.18583,0 -2.31378,-0.0484252 -3.33307,-0.133465 -1.05827,-0.0885827 -2.01614,-0.222047 -2.81929,-0.38622 -0.372047,-0.0755906 -0.83622,-0.164173 -1.22835,-0.237402l-0.0011811 0 -0.706299 -0.137008 -0.00708661 -0.0011811c-0.235039,-0.0507874 -0.35315,-0.211417 -0.406299,-0.38622 -0.0389764,-0.124016 -0.0389764,-0.253937 -0.0354331,-0.329528l0.00472441 -0.0153543 0 -2.68346 0.454724 -0.3c1.42205,0.6 3.15236,0.764173 4.66063,0.894094 1.06417,0.0909449 2.22756,0.141732 3.44055,0.141732 1.2437,0 2.55118,-0.0519685 3.55512,-0.145276 1.00984,-0.0944882 1.92047,-0.230315 2.74016,-0.399213 0.329528,-0.0673228 0.634252,-0.141732 0.908268,-0.220866 0.265748,-0.0767717 0.506693,-0.162992 0.71811,-0.252756l0.457087 0.296457 0.0283465 2.33031c0.0023622,0.0259843 0.0023622,0.0531496 0.0023622,0.0791339l0 0.0023622 -0.0011811 0.00590551c-0.0814961,0.682677 -0.367323,0.855118 -0.948425,1.05945zm-6.98504 3.22559l-0.0188976 -1.00512 0 -0.320079 0.322441 -0.00590551c1.07362,-0.0200787 2.2252,-0.0814961 3.09921,-0.17126 0.875197,-0.092126 1.66417,-0.217323 2.39173,-0.367323 0.999213,-0.204331 1.85669,-0.490157 2.44724,-0.838583 0.470079,-0.279921 0.759449,-0.590551 0.784252,-0.912992 0,-0.0377953 0.0011811,-0.0779528 0,-0.115748l0 -13.624 0 -0.111024 0.0011811 -0.0153543c0.00590551,-0.152362 0,-0.242126 -0.0153543,-0.294094l-0.0011811 -0.0023622c-0.00826772,-0.0259843 -0.0283465,-0.0496063 -0.0507874,-0.0755906l-0.00590551 -0.00590551c-0.435827,-0.399213 -1.61693,-0.758268 -3.25866,-1.02402 -1.66181,-0.269291 -3.96614,-0.431102 -6.25157,-0.431102 -2.39291,0 -4.63228,0.177165 -6.36142,0.470079 -1.64055,0.277559 -2.79685,0.644882 -3.14291,1.03819 -0.0649606,0.134646 -0.0649606,0.198425 -0.0625984,0.329528l0 0.00354331 0.0011811 0.116929 0 0.0011811 0 12.9909 0 0c0.0023622,0.25748 0,0.517323 -0.0011811,0.774803l0.00590551 0.0637795 0.0011811 0.0200787c0.0106299,0.337795 0.32126,0.635433 0.835039,0.897638 0.592913,0.301181 1.43622,0.544488 2.41417,0.744094 0.721654,0.147638 1.56496,0.272835 2.49094,0.36378 0.895276,0.0874016 1.87441,0.148819 2.90079,0.170079l0.435827 0.00708661 0 0.318898 0.0188976 1.00984 0 0.0614173 -0.441732 0 -2.57598 0 0 0.446457 0 0.327165 -0.328346 0 -5.38346 0c-0.120472,0 -0.232677,0.0555118 -0.315354,0.147638l-0.0011811 0c-0.0897638,0.0992126 -0.146457,0.242126 -0.146457,0.401575 0,0.157087 0.0566929,0.3 0.146457,0.398031l0.0011811 0.00354331c0.0814961,0.0897638 0.194882,0.146457 0.315354,0.146457l5.38346 0 0.328346 0 0 0.592913 0 0.348425 6.74528 0 0 -0.348425 0 -0.592913 0.328346 0 5.28189 0c0.121654,0 0.235039,-0.0555118 0.315354,-0.146457 0.0909449,-0.100394 0.147638,-0.281102 0.147638,-0.43937 0,-0.159449 -0.057874,-0.265748 -0.147638,-0.364961 -0.080315,-0.0909449 -0.193701,-0.146457 -0.315354,-0.146457l-5.28189 0 -0.328346 0 0 -0.327165 0 -0.446457 -2.37874 0 -0.328346 0 0 -0.0614173zm7.93228 -11.3327l-0.0129921 2.71299 -0.24685 0.315354c-2.67874,0.681496 -5.38228,0.974409 -8.14724,0.974409 -2.68583,0 -5.1874,-0.398031 -7.83189,-0.81378l-0.459449 -0.0755906 -0.264567 -0.320079 0 -2.84173 0.455906 -0.3c2.2878,0.964961 5.61614,1.04528 8.12126,1.04528 2.46969,0 5.58189,0.0129921 7.92874,-0.998031l0.457087 0.301181zm-8.69291 -4.5874c2.89961,-0.0129921 5.99646,-0.383858 8.23583,-1.07835l0.426378 -0.131102 0 0.441732c0,0.625984 0.00944882,1.28976 0.0165354,1.94173 0.00944882,0.680315 0.0188976,1.08189 0.0188976,1.48819 0,0.28937 -0.565748,0.402756 -1.42323,0.575197l-0.887008 0.179528c-0.779528,0.16063 -1.65,0.290551 -2.62913,0.379134 -0.981496,0.0897638 -2.25236,0.13937 -3.45118,0.13937 -1.18701,0 -2.31496,-0.0484252 -3.33543,-0.133465 -1.38543,-0.115748 -2.70827,-0.36378 -4.06181,-0.64252 -0.574016,0.00944882 -0.922441,-0.501969 -0.933071,-0.209055l-0.24685 -0.0614173 0 -0.255118 0 -2.49094 0 -0.325984 0.00354331 0 0 -0.506693 0 -0.445276 0.427559 0.134646c2.1874,0.689764 5.00906,1.01339 7.83898,1.00039z"/>
  <path class="fil48" d="M15.3709 10.3287l-0.00708661 -0.682677 2.44134 -0.0649606 -0.504331 -0.127559c0.283465,-0.0625984 0.588189,-0.121654 0.915354,-0.177165 0.843307,-0.142913 1.82598,-0.258661 2.8937,-0.336614l0.00354331 0c1.02756,-0.0767717 2.14252,-0.11811 3.3,-0.11811 1.12677,0 2.24882,0.0389764 3.27874,0.109843 1.04882,0.0720472 2.01614,0.177165 2.8122,0.305906l0.00472441 0 0.0200787 0.00354331 1.88031 -0.0507874 0.985039 0.303543 -0.00472441 0.835039 0.605906 0 0 -0.54685 0 -0.111024 0.0011811 -0.0153543c0.00590551,-0.152362 0,-0.242126 -0.0153543,-0.294094l-0.0011811 -0.0023622c-0.00826772,-0.0259843 -0.0283465,-0.0496063 -0.0507874,-0.0755906l-0.00590551 -0.00590551c-0.435827,-0.399213 -1.61693,-0.758268 -3.25866,-1.02402 -1.66181,-0.269291 -3.96614,-0.431102 -6.25157,-0.431102 -2.39291,0 -4.63228,0.177165 -6.36142,0.470079 -1.64055,0.277559 -2.79685,0.644882 -3.14291,1.03819 -0.0649606,0.134646 -0.0649606,0.198425 -0.0625984,0.329528l0 0.00354331 0.0011811 0.116929 0 0.0011811 0 0.54685 0.523228 0z"/>
  <path class="fil49" d="M26.5394 36.9567c-0.276378,0 -0.500787,-0.224409 -0.500787,-0.500787 0,-0.276378 0.224409,-0.500787 0.500787,-0.500787l11.1591 0c0.276378,0 0.500787,0.224409 0.500787,0.500787 0,0.276378 -0.224409,0.500787 -0.500787,0.500787l-11.1591 0zm-15.7583 0c-0.276378,0 -0.500787,-0.224409 -0.500787,-0.500787 0,-0.276378 0.224409,-0.500787 0.500787,-0.500787l11.1591 0c0.276378,0 0.500787,0.224409 0.500787,0.500787 0,0.276378 -0.224409,0.500787 -0.500787,0.500787l-11.1591 0z"/>
  <path class="fil50" d="M26.5394 34.9181c-0.409843,0 -0.784252,-0.168898 -1.05354,-0.434646l-0.011811 -0.011811c-0.264567,-0.26811 -0.434646,-0.64252 -0.434646,-1.05354l0.00826772 -0.152362 14.1425 0 0.00826772 0.152362c0,0.411024 -0.170079,0.785433 -0.434646,1.05354l-0.011811 0.011811c-0.26811,0.264567 -0.64252,0.434646 -1.05354,0.434646l-11.1591 0zm-15.7583 0c-0.411024,0 -0.785433,-0.170079 -1.05354,-0.434646l-0.011811 -0.011811c-0.264567,-0.26811 -0.434646,-0.64252 -0.434646,-1.05354l0.00826772 -0.152362 14.1425 0 0.00826772 0.152362c0,0.411024 -0.170079,0.785433 -0.434646,1.05354l-0.011811 0.011811c-0.269291,0.265748 -0.643701,0.434646 -1.05354,0.434646l-11.1591 0z"/>
  <path class="fil21" d="M25.0476 33.2657c0.0354331,-0.349606 0.193701,-0.664961 0.426378,-0.901181l0.011811 -0.011811c0.269291,-0.265748 0.643701,-0.434646 1.05354,-0.434646l11.1591 0c0.411024,0 0.785433,0.170079 1.05354,0.434646l0.011811 0.011811c0.232677,0.23622 0.390945,0.551575 0.426378,0.901181l-14.1425 0zm-1.61575 0l-14.1425 0c0.0354331,-0.349606 0.193701,-0.664961 0.426378,-0.901181l0.011811 -0.011811c0.26811,-0.264567 0.64252,-0.434646 1.05354,-0.434646l11.1591 0c0.409843,0 0.784252,0.168898 1.05354,0.434646l0.011811 0.011811c0.232677,0.23622 0.390945,0.551575 0.426378,0.901181z"/>
  <path class="fil49" d="M26.5394 33.9189c-0.276378,0 -0.500787,-0.224409 -0.500787,-0.500787 0,-0.276378 0.224409,-0.500787 0.500787,-0.500787l11.1591 0c0.276378,0 0.500787,0.224409 0.500787,0.500787 0,0.276378 -0.224409,0.500787 -0.500787,0.500787l-11.1591 0zm-15.7583 0c-0.276378,0 -0.500787,-0.224409 -0.500787,-0.500787 0,-0.276378 0.224409,-0.500787 0.500787,-0.500787l11.1591 0c0.276378,0 0.500787,0.224409 0.500787,0.500787 0,0.276378 -0.224409,0.500787 -0.500787,0.500787l-11.1591 0z"/>
 </g>
</svg>
