<?xml version="1.0" encoding="UTF-8"?>
<!DOCTYPE svg PUBLIC "-//W3C//DTD SVG 1.1//EN" "http://www.w3.org/Graphics/SVG/1.1/DTD/svg11.dtd">
<!-- Creator: CorelDRAW -->
<svg xmlns="http://www.w3.org/2000/svg" xml:space="preserve" width="48px" height="48px" style="shape-rendering:geometricPrecision; text-rendering:geometricPrecision; image-rendering:optimizeQuality; fill-rule:evenodd; clip-rule:evenodd"
viewBox="0 0 48 48"
 xmlns:xlink="http://www.w3.org/1999/xlink">
 <defs>
  <style type="text/css">
   <![CDATA[
    .fil33 {fill:none}
    .fil58 {fill:#7F7F7F}
    .fil57 {fill:#E5E5E5}
    .fil63 {fill:#FFF5BA}
    .fil101 {fill:white}
    .fil55 {fill:#454545}
    .fil49 {fill:#4C4C4C}
    .fil29 {fill:#7A9A35}
    .fil32 {fill:#85A839}
    .fil27 {fill:#92B640}
    .fil22 {fill:#A2BF69}
    .fil34 {fill:#A5CE53}
    .fil23 {fill:#A5CF50}
    .fil38 {fill:#A7CF49}
    .fil61 {fill:#B2B2B2}
    .fil103 {fill:#FFF2A6}
    .fil102 {fill:#8A8787}
    .fil36 {fill:#E070E0}
    .fil42 {fill:#FF94FF}
    .fil64 {fill:#FFEBFF}
    .fil15 {fill:#333333;fill-rule:nonzero}
    .fil43 {fill:#B2B2B2;fill-rule:nonzero}
    .fil50 {fill:#333333;fill-rule:nonzero}
    .fil17 {fill:#404040;fill-rule:nonzero}
    .fil54 {fill:#454545;fill-rule:nonzero}
    .fil30 {fill:#7A9A35;fill-rule:nonzero}
    .fil104 {fill:gray;fill-rule:nonzero}
    .fil53 {fill:#A567BB;fill-rule:nonzero}
    .fil0 {fill:black;fill-opacity:0.000000}
    .fil90 {fill:#FFF2A6;fill-opacity:0.000000}
    .fil66 {fill:#FFFD94;fill-opacity:0.000000}
    .fil1 {fill:black;fill-opacity:0.003922}
    .fil2 {fill:black;fill-opacity:0.007843}
    .fil3 {fill:black;fill-opacity:0.015686}
    .fil4 {fill:black;fill-opacity:0.019608}
    .fil67 {fill:#FFFD94;fill-opacity:0.019608}
    .fil5 {fill:black;fill-opacity:0.023529}
    .fil6 {fill:black;fill-opacity:0.027451}
    .fil7 {fill:black;fill-opacity:0.031373}
    .fil8 {fill:black;fill-opacity:0.035294}
    .fil68 {fill:#FFFD94;fill-opacity:0.039216}
    .fil9 {fill:black;fill-opacity:0.043137}
    .fil10 {fill:black;fill-opacity:0.047059}
    .fil11 {fill:black;fill-opacity:0.050980}
    .fil12 {fill:black;fill-opacity:0.054902}
    .fil91 {fill:#FFF5B0;fill-opacity:0.054902}
    .fil69 {fill:#FFFD94;fill-opacity:0.058824}
    .fil13 {fill:black;fill-opacity:0.058824}
    .fil70 {fill:#FFFD94;fill-opacity:0.078431}
    .fil71 {fill:#FFFD94;fill-opacity:0.094118}
    .fil92 {fill:#FFF5BA;fill-opacity:0.109804}
    .fil72 {fill:#FFFD94;fill-opacity:0.113725}
    .fil73 {fill:#FFFD94;fill-opacity:0.133333}
    .fil74 {fill:#FFFD94;fill-opacity:0.152941}
    .fil93 {fill:#FFF7C4;fill-opacity:0.164706}
    .fil75 {fill:#FFFD94;fill-opacity:0.172549}
    .fil76 {fill:#FFFD94;fill-opacity:0.192157}
    .fil77 {fill:#FFFD94;fill-opacity:0.211765}
    .fil94 {fill:#FFF7CF;fill-opacity:0.223529}
    .fil78 {fill:#FFFD94;fill-opacity:0.231373}
    .fil79 {fill:#FFFD94;fill-opacity:0.247059}
    .fil80 {fill:#FFFD94;fill-opacity:0.266667}
    .fil95 {fill:#FFFAD9;fill-opacity:0.278431}
    .fil81 {fill:#FFFD94;fill-opacity:0.286275}
    .fil82 {fill:#FFFD94;fill-opacity:0.305882}
    .fil48 {fill:black;fill-rule:nonzero;fill-opacity:0.321569}
    .fil47 {fill:#404040;fill-rule:nonzero;fill-opacity:0.321569}
    .fil83 {fill:#FFFD94;fill-opacity:0.325490}
    .fil96 {fill:#FFFAE3;fill-opacity:0.333333}
    .fil84 {fill:#FFFD94;fill-opacity:0.345098}
    .fil85 {fill:#FFFD94;fill-opacity:0.364706}
    .fil86 {fill:#FFFD94;fill-opacity:0.384314}
    .fil97 {fill:#FFFCED;fill-opacity:0.388235}
    .fil87 {fill:#FFFD94;fill-opacity:0.400000}
    .fil88 {fill:#FFFD94;fill-opacity:0.419608}
    .fil89 {fill:#FFFD94;fill-opacity:0.439216}
    .fil16 {fill:#E9DFA3;fill-rule:nonzero;fill-opacity:0.439216}
    .fil100 {fill:#724A80;fill-rule:nonzero;fill-opacity:0.439216}
    .fil98 {fill:#FFFFF5;fill-opacity:0.443137}
    .fil56 {fill:#4C4C4C;fill-opacity:0.501961}
    .fil20 {fill:#999999;fill-opacity:0.501961}
    .fil99 {fill:white;fill-opacity:0.501961}
    .fil59 {fill:#4C4C4C;fill-opacity:0.501961}
    .fil28 {fill:#6A872B;fill-opacity:0.501961}
    .fil39 {fill:#6A872B;fill-opacity:0.690196}
    .fil35 {fill:#6A872B;fill-opacity:0.729412}
    .fil62 {fill:#575757;fill-opacity:0.780392}
    .fil65 {fill:#74AFE9;fill-opacity:0.780392}
    .fil40 {fill:#7A9A35;fill-opacity:0.780392}
    .fil41 {fill:#FF99FF;fill-opacity:0.780392}
    .fil52 {fill:#FFF2A6;fill-rule:nonzero;fill-opacity:0.780392}
    .fil31 {fill:url(#id0)}
    .fil37 {fill:url(#id1)}
    .fil19 {fill:url(#id2)}
    .fil14 {fill:url(#id3)}
    .fil60 {fill:url(#id4)}
    .fil25 {fill:url(#id5)}
    .fil24 {fill:url(#id6)}
    .fil18 {fill:url(#id7)}
    .fil26 {fill:url(#id8);fill-rule:nonzero}
    .fil51 {fill:url(#id9);fill-opacity:0.678431}
    .fil21 {fill:url(#id10);fill-opacity:0.780392}
    .fil45 {fill:url(#id11);fill-rule:nonzero;fill-opacity:0.780392}
    .fil46 {fill:url(#id12);fill-rule:nonzero;fill-opacity:0.780392}
    .fil44 {fill:url(#id13);fill-rule:nonzero;fill-opacity:0.780392}
   ]]>
  </style>
  <linearGradient id="id0" gradientUnits="userSpaceOnUse" x1="31.2224" y1="9.11102" x2="31.2224" y2="10.4551">
   <stop offset="0" style="stop-color:#D67FF2"/>
   <stop offset="1" style="stop-color:#B575DD"/>
  </linearGradient>
  <linearGradient id="id1" gradientUnits="userSpaceOnUse" xlink:href="#id0" x1="32.1496" y1="12.7122" x2="32.1496" y2="14.2642">
  </linearGradient>
  <linearGradient id="id2" gradientUnits="userSpaceOnUse" x1="34.9382" y1="6.91772" x2="35.2287" y2="14.1283">
   <stop offset="0" style="stop-color:#83C3F9"/>
   <stop offset="0.639216" style="stop-color:#BEE4FE"/>
   <stop offset="1" style="stop-color:#BEE4FE"/>
  </linearGradient>
  <linearGradient id="id3" gradientUnits="userSpaceOnUse" x1="24.1665" y1="5.58071" x2="24.1665" y2="42.1913">
   <stop offset="0" style="stop-color:#575757"/>
   <stop offset="1" style="stop-color:#454545"/>
  </linearGradient>
  <linearGradient id="id4" gradientUnits="userSpaceOnUse" x1="36.1098" y1="28.3594" x2="36.0071" y2="30.9791">
   <stop offset="0" style="stop-color:#B2B2B2"/>
   <stop offset="1" style="stop-color:#666666"/>
  </linearGradient>
  <linearGradient id="id5" gradientUnits="userSpaceOnUse" x1="35.002" y1="11.8925" x2="35.165" y2="14.2394">
   <stop offset="0" style="stop-color:#B8DE60"/>
   <stop offset="1" style="stop-color:#AADB4F"/>
  </linearGradient>
  <linearGradient id="id6" gradientUnits="userSpaceOnUse" x1="35.165" y1="13.7598" x2="35.002" y2="12.0319">
   <stop offset="0" style="stop-color:#8CAB57"/>
   <stop offset="1" style="stop-color:#B2CF56"/>
  </linearGradient>
  <linearGradient id="id7" gradientUnits="userSpaceOnUse" x1="24.1984" y1="12.9744" x2="23.7224" y2="35.4224">
   <stop offset="0" style="stop-color:whitesmoke"/>
   <stop offset="1" style="stop-color:#EBEBEB"/>
  </linearGradient>
  <linearGradient id="id8" gradientUnits="userSpaceOnUse" x1="31.6772" y1="12.626" x2="31.9878" y2="9.81732">
   <stop offset="0" style="stop-color:#92B640"/>
   <stop offset="1" style="stop-color:#A7CF49"/>
  </linearGradient>
  <linearGradient id="id9" gradientUnits="userSpaceOnUse" xlink:href="#id0" x1="22.1504" y1="25.2343" x2="22.0205" y2="34.624">
  </linearGradient>
  <linearGradient id="id10" gradientUnits="userSpaceOnUse" x1="33.4169" y1="9.89528" x2="33.4642" y2="11.2016">
   <stop offset="0" style="stop-color:#9AA6BC"/>
   <stop offset="1" style="stop-color:#9AA56B"/>
  </linearGradient>
  <linearGradient id="id11" gradientUnits="userSpaceOnUse" x1="16.0819" y1="-169.923" x2="16.0819" y2="318.694">
   <stop offset="0" style="stop-color:#BEBEBE"/>
   <stop offset="1" style="stop-color:#B7B7B7"/>
  </linearGradient>
  <linearGradient id="id12" gradientUnits="userSpaceOnUse" xlink:href="#id11" x1="16.1126" y1="-158.926" x2="16.1126" y2="329.692">
  </linearGradient>
  <linearGradient id="id13" gradientUnits="userSpaceOnUse" xlink:href="#id11" x1="11.7874" y1="-64.8035" x2="14.263" y2="123.433">
  </linearGradient>
 </defs>
 <g id="Слой_x0020_1">
  <metadata id="CorelCorpID_0Corel-Layer"/>
  <g id="_126693480">
   <path id="_122986664" class="fil0" d="M23.0398 41.0161c15.0661,-0.640157 21.1654,0.858661 23.5358,2.80512l0 4.07008c-0.133465,0.0389764 -0.276378,0.0755906 -0.427559,0.108661l-44.8748 0 0 -3.15354c1.79646,-1.62402 6.96496,-3.20079 21.7665,-3.83031z"/>
   <g>
    <path id="_86621496" class="fil1" d="M23.0906 41.3752c15.1228,-0.620079 21.2244,0.973228 23.485,2.93858l0 3.48661c-0.242126,0.0767717 -0.517323,0.142913 -0.824409,0.199606l-44.2264 0 -0.251575 -0.0956693 0 -2.58543c1.61575,-1.65118 6.63543,-3.32244 21.8173,-3.9437z"/>
    <path id="_122570224" class="fil2" d="M23.1413 41.7319c15.1429,-0.595276 21.2965,1.08898 23.4343,3.05551l0 2.9185c-0.347244,0.121654 -0.78189,0.219685 -1.29331,0.294094l-43.4079 0c-0.23622,-0.0673228 -0.435827,-0.140551 -0.601181,-0.222047l0 -1.99961c1.41732,-1.66535 6.3189,-3.43583 21.8681,-4.04646z"/>
    <path id="_81502424" class="fil3" d="M23.1898 42.0909c15.1311,-0.56811 21.3957,1.20236 23.3858,3.15354l0 2.36693c-0.442913,0.174803 -1.0689,0.301181 -1.84843,0.388583l-42.463 0c-0.435827,-0.100394 -0.768898,-0.218504 -0.990945,-0.357874l0 -1.41142c1.16693,-1.66299 5.99173,-3.54331 21.9165,-4.13976z"/>
    <path id="_123562432" class="fil4" d="M23.2406 42.4488c15.0874,-0.533858 21.5374,1.31457 23.335,3.2315l0 1.83189c-0.526772,0.245669 -1.41142,0.398031 -2.58661,0.487795l-41.2642 0c-0.742913,-0.133465 -1.24252,-0.308268 -1.45157,-0.530315l0 -0.752362c0.747638,-1.64409 5.49331,-3.68386 21.9673,-4.2685z"/>
    <path id="_86715584" class="fil5" d="M23.289 42.8079c15.052,-0.499606 21.7748,1.43504 23.2866,3.3l0 1.29449c-0.579921,0.344882 -1.88268,0.517323 -3.70984,0.597638l-11.576 0c-1.12795,-0.00590551 -2.28543,-0.00708661 -3.46535,0l-24.5303 0c-1.23071,-0.165354 -1.9252,-0.409843 -1.9252,-0.758268 0,-1.58976 4.66299,-3.86102 21.9201,-4.43386z"/>
    <path id="_122753840" class="fil6" d="M23.3386 43.1657c15.1382,-0.464173 22.2425,1.59449 23.237,3.39685l0 0.698031c-0.617717,0.615354 -3.51142,0.73937 -7.62283,0.73937 -4.08307,0 -9.36496,-0.120472 -14.8087,0l-20.074 0c-1.5815,-0.145276 -2.49331,-0.379134 -2.49331,-0.732283 0,-1.47638 5.43307,-3.6 21.7618,-4.10197z"/>
    <path id="_84599200" class="fil7" d="M23.3882 43.5248c15.398,-0.429921 23.0516,1.81299 23.0953,3.52205 0.0437008,1.40433 -10.9193,0.667323 -22.487,0.9l-2.74843 0.0531496 -15.9472 0c-2.20276,-0.11811 -3.51496,-0.337795 -3.51496,-0.706299 0,-1.36181 6.20315,-3.34016 21.6024,-3.7689z"/>
    <path id="_86841632" class="fil8" d="M23.4378 43.8827c14.4697,-0.357874 22.7941,1.69252 22.8307,3.23031 0.0366142,1.18819 -10.8555,0.583465 -22.252,0.777165 -2.58189,0.0437008 -5.12362,0.0838583 -7.51299,0.109843l-8.51929 0c-3.65433,-0.0685039 -5.99055,-0.261024 -5.99055,-0.680315 0,-1.24843 6.97323,-3.07913 21.4441,-3.43701z"/>
    <path id="_123420576" class="fil9" d="M23.4862 44.2417c13.5425,-0.287008 22.5378,1.57087 22.5673,2.93622 0.0295276,0.973228 -10.7917,0.499606 -22.0181,0.654331 -11.2228,0.154724 -21.8327,0.248031 -21.8327,-0.486614 0,-1.13504 7.74213,-2.81811 21.2835,-3.10394z"/>
    <path id="_122495016" class="fil10" d="M23.537 44.5996c12.6118,-0.21378 22.2803,1.45039 22.3016,2.64449 0.0212598,0.757087 -10.7291,0.415748 -21.7831,0.531496 -11.0528,0.115748 -21.6449,0.172441 -21.6449,-0.405118 0,-1.01929 8.51102,-2.55591 21.1264,-2.77087z"/>
    <path id="_83885720" class="fil11" d="M23.5854 44.9587c11.6846,-0.142913 22.0228,1.32992 22.0382,2.35157 0.0141732,0.540945 -10.6665,0.330709 -21.5492,0.408661 -10.8815,0.0767717 -21.4559,0.0968504 -21.4559,-0.322441 0,-0.905906 9.2811,-2.29488 20.9669,-2.4378z"/>
    <path id="_85171864" class="fil12" d="M23.6362 45.3154c10.7539,-0.0708661 21.7654,1.20945 21.7724,2.05866 0.00708661,0.325984 -10.6039,0.248031 -21.3142,0.285827 -10.7102,0.0389764 -21.2669,0.0224409 -21.2669,-0.238583 0,-0.791339 10.05,-2.03386 20.8087,-2.10591z"/>
   </g>
   <path id="_126822352" class="fil13" d="M23.6823 45.6768c9.82795,0 21.5102,1.0878 21.5102,1.76575 0,0.220866 -42.1594,0.212598 -42.1594,0.00708661 0,-0.677953 10.8213,-1.77283 20.6492,-1.77283z"/>
  </g>
  <path class="fil14" d="M3.51142 3.20787c0,-0.512598 0.198425,-0.982677 0.527953,-1.34882 0.420472,-0.520866 1.05945,-0.853937 1.77047,-0.853937l36.5409 0.00944882c1.2626,0 2.3622,1.02992 2.34921,2.29606 -0.135827,13.6902 0.122835,27.4252 0.131102,41.1213 0.0011811,1.26496 -1.01102,2.33622 -2.24646,2.33622 -14.798,0 -11.5996,-0.00944882 -36.8386,-0.00944882 -1.23425,0 -2.24646,-1.05118 -2.24646,-2.33622 0.00354331,-12.1382 0.023622,-29.0776 0.011811,-41.2146z"/>
  <path class="fil15" d="M4.1185 43.6429l-0.119291 -38.7791 -0.00354331 0c0,-0.872835 0.399213,-1.55197 1.0063,-2.02677 0.609449,-0.474803 1.43504,-0.721654 2.23228,-0.721654l0 0.00354331 33.4276 -0.10748c0.843307,0.0011811 1.64764,0.250394 2.23228,0.721654 0.601181,0.483071 0.981496,1.17756 0.981496,2.05748l-0.00354331 0 0.0496063 38.4614 0 0.0389764c-0.0330709,0.823228 -0.390945,1.54961 -0.966142,2.07638l0 0.00354331c-0.551575,0.501969 -1.30512,0.816142 -2.15079,0.840945l-0.023622 0 -33.1783 0.172441 -0.00354331 0c-0.635433,0.0011811 -1.55906,-0.31063 -2.25236,-0.796063l-0.00354331 0c-0.654331,-0.46063 -1.16811,-1.10551 -1.2248,-1.87087l0 -0.0744094z"/>
  <path class="fil16" d="M4.05 1.97598l0.0011811 -0.0023622m-0.0011811 0.343701l0.0011811 -0.0023622m-0.0389764 -0.112205l0.0023622 -0.0011811m0.0295276 0.258661l0.0011811 -0.0023622m0.034252 0.116929l0.0023622 -0.0011811m-0.069685 -0.712205l0.0023622 -0.0011811m0.0295276 0.258661l0.0011811 -0.0023622m0.034252 0.116929l0.0023622 -0.0011811m40.3311 1.49528l0.0011811 0.0401575 0.0011811 0.0744094 -0.0271654 0.0188976 -0.034252 0.023622 0 0.069685 -0.0011811 0.0011811 0.0011811 0.0389764 0 0.0744094 -0.0271654 0.0200787 -0.0401575 0.0283465c0,-0.579921 -0.379134,-1.15984 -0.68622,-1.5437 -0.200787,-0.250394 -0.453543,-0.437008 -0.733465,-0.537402l0.0129921 -0.0366142 -0.127559 -0.0200787c-0.0791339,-0.00944882 -0.125197,-0.0141732 -0.209055,-0.0141732l-36.5835 0c-0.13937,0 -0.3,0.0141732 -0.441732,0.0401575l0.0165354 0.0767717c-0.157087,0.034252 -0.302362,0.0862205 -0.442913,0.151181 -0.284646,0.134646 -0.532677,0.333071 -0.729921,0.571654l-0.00944882 0.00826772c-0.151181,0.166535 -0.274016,0.357874 -0.356693,0.566929 -0.0779528,0.194882 -0.120472,0.412205 -0.120472,0.636614l-0.364961 0c0,-0.0413386 0.00354331,-0.080315 0.00826772,-0.115748l-0.0448819 0c0,-0.0519685 0.00472441,-0.0992126 0.0129921,-0.142913l-0.00708661 0c0,-0.0413386 0.00472441,-0.0791339 0.00944882,-0.113386l-0.0472441 0c0,-0.0885827 0.0141732,-0.162992 0.0377953,-0.231496l0.00944882 -0.109843 -0.0472441 0c0,-0.269291 0.138189,-0.40748 0.235039,-0.649606 0.0992126,-0.24685 0.157087,-0.596457 0.337795,-0.793701 0.229134,-0.282283 0.522047,-0.512598 0.856299,-0.667323 0.16063,-0.0779528 0.33189,-0.137008 0.512598,-0.178346l0.00708661 -0.0023622 0 0.0011811c0.211417,-0.0401575 0.350787,-0.0590551 0.524409,-0.0590551l36.5846 0c0.159449,0 0.318898,0.0165354 0.470079,0.046063 0.0838583,0.0177165 0.165354,0.0366142 0.24685,0.0614173l-0.0283465 0.069685 0.0283465 0.00708661 -0.0106299 0.0248031c0.250394,0.125197 0.475984,0.311811 0.66378,0.54685 0.349606,0.434646 0.531496,1.02638 0.544488,1.67717l0.0011811 0.0732283 -0.0023622 0.0011811 0.0011811 0.0401575 0.0011811 0.0744094 -0.0023622 0.0023622 0.0011811 0.0744094 0.0011811 0.0732283 -0.0023622 0.0011811z"/>
  <path class="fil17" d="M3.01063 2.67638c0,-0.312992 0.0602362,-0.616535 0.17126,-0.898819 0.109843,-0.281102 0.274016,-0.544488 0.475984,-0.772441 0.25748,-0.316535 0.588189,-0.57874 0.957874,-0.757087 0.36378,-0.174803 0.77126,-0.275197 1.19409,-0.275197l0 0.0023622 36.4654 0.00944882 0 -0.0023622 0.023622 0 0.00354331 0.0023622c0.752362,0.00708661 1.45984,0.318898 1.97244,0.81378 0.518504,0.499606 0.849213,1.19291 0.848031,1.95827l0.0023622 0 0 0.0224409 -0.0023622 0.00354331c-0.134646,13.8827 -0.142913,27.5386 -0.134646,41.4213l0.0023622 0 0 0.0023622c0,0.762992 -0.307087,1.46929 -0.799606,1.98425 -0.497244,0.520866 -1.18819,0.850394 -1.94528,0.850394l-0.0023622 0 0 -0.0023622 -12.5445 -0.00354331 -23.9528 -0.00590551 0 0.0023622c-0.757087,0 -1.44685,-0.323622 -1.94528,-0.840945 -0.493701,-0.51378 -0.801969,-1.22126 -0.801969,-1.99606l0.0023622 0 0.00708661 -12.5102c0.00472441,-9.69449 0.011811,-20.7343 0.00472441,-29.0079l-0.0023622 0zm1.10197 -0.535039c-0.0649606,0.165354 -0.100394,0.346063 -0.100394,0.535039l-0.0023622 0c0.00708661,8.27362 0,19.3134 -0.00472441,29.0079l-0.00708661 12.5102 0.0023622 0c0,0.509055 0.199606,0.972047 0.518504,1.30394 0.315354,0.327165 0.75,0.531496 1.22717,0.531496l0 0.0023622 23.9528 0.00590551 12.5445 0.00354331 0 -0.0023622 0.0023622 0c0.474803,0 0.909449,-0.207874 1.22244,-0.53622 0.32126,-0.335433 0.520866,-0.797244 0.520866,-1.29685l0 -0.0023622 0.0023622 0c-0.00590551,-13.8839 -0.0023622,-27.5409 0.134646,-41.4248l-0.0023622 0 0 -0.0224409 0.0023622 0c0,-0.479528 -0.211417,-0.920079 -0.543307,-1.24016 -0.335433,-0.323622 -0.797244,-0.530315 -1.28386,-0.535039l0 0.0023622 -0.023622 0 0 -0.0023622 -36.4654 -0.00944882 0 0.0023622c-0.274016,0 -0.533858,0.0625984 -0.759449,0.17126 -0.239764,0.115748 -0.454724,0.287008 -0.622441,0.494882l-0.0177165 0.0212598c-0.126378,0.140551 -0.229134,0.305906 -0.297638,0.479528z"/>
  <path class="fil18" d="M4.99488 4.86378l0.119291 38.7791c0.0720472,0.954331 1.65709,1.74803 2.48504,1.74567l33.1783 -0.172441c1.19764,-0.0354331 2.10472,-0.870472 2.14843,-1.96417l-0.0496063 -38.4614c0,-1.15157 -1.02638,-1.78228 -2.21457,-1.78346l-33.4276 0.10748c-1.10433,0 -2.23937,0.603543 -2.23937,1.74921z"/>
  <polygon class="fil19" points="39.5622,6.50433 39.5622,14.5406 30.6047,14.5406 30.6047,6.50433 "/>
  <path class="fil20" d="M30.9508 11.2051l0 -0.266929c1.04173,-0.172441 3.75709,-0.256299 3.73819,-0.283465 0,0 0.690945,-0.198425 0.901181,-0.069685 0.210236,0.12874 0.0011811,0.161811 0.0011811,0.161811l0.812598 -0.183071 0.316535 0.255118c0,0 1.85079,0.334252 1.97953,0.346063 0.12874,0.011811 -1.48465,0.249213 -1.48465,0.249213 0,0 -4.83307,-0.00826772 -6.26457,-0.209055z"/>
  <path class="fil21" d="M31.8094 12.0744l-0.0283465 -0.304724 -1.17638 0.112205 0 -0.961417 1.22008 -0.302362 0.23622 0 0.949606 -1.06535 1.19055 0.916535 0.901181 -0.10748 1.69606 0.673228 0.514961 -0.309449 0.676772 0.337795 1.00039 -0.0023622 0.25748 0.261024 -2.9126 0.034252 -3.58465 0.227953c0,0 -0.543307,0.833858 -0.941339,0.490157z"/>
  <path class="fil22" d="M34.1374 11.374c1.32756,0.10748 1.46929,-0.398031 2.94567,-0.415748 1.64528,-0.0200787 1.62638,0.328346 2.47913,0.330709l0 0.741732 -5.4248 0 0 -0.656693z"/>
  <path class="fil23" d="M30.6047 11.3504c0.688583,-0.170079 1.44921,-0.411024 2.77087,-0.474803 3.7878,-0.183071 3.12047,0.79252 5.89488,0.49252l0.291732 -0.0318898 0 0.925984 -6.47953 0 -2.47795 0.196063 0 -1.10787z"/>
  <path class="fil24" d="M39.5622 12.2492c-0.282283,-0.0212598 -0.611811,-0.0755906 -0.928346,-0.0850394 -5.32677,-0.165354 -4.95236,0.612992 -8.02913,0.533858l0 1.09488 8.95748 0 0 -1.5437z"/>
  <path class="fil25" d="M39.5622 11.8228c-0.23622,-0.023622 -0.490157,-0.057874 -0.738189,-0.0649606 -5.45315,-0.165354 -5.06811,0.614173 -8.21929,0.533858l0 2.24882 8.95748 0 0 -2.71772z"/>
  <polygon class="fil26" points="31.8472,8.21339 31.539,9.72756 31.7728,11.263 32.4874,10.539 31.9075,11.6504 31.9689,14.2441 31.5661,14.2217 31.702,11.7862 31.1776,10.0949 31.702,10.9028 31.3594,9.74528 31.3594,9.71339 31.8142,8.19921 "/>
  <path class="fil27" d="M32.1815 13.6748c0,0 -0.296457,0.121654 0.571654,0.0330709 0.0732283,-0.00708661 0.765354,-0.995669 0.848031,-0.990945 0.0330709,0.00354331 -0.25748,-0.571654 -0.577559,-1.08661 -0.138189,-0.223228 0.258661,0.605906 0.190157,0.708661 -0.198425,0.297638 -0.907087,0.825591 -1.04409,1.07717 -0.135827,0.252756 0.011811,0.258661 0.011811,0.258661z"/>
  <path class="fil28" d="M32.1094 13.9004c0,0 0.98622,-0.26811 1.22362,-1.0748 -0.223228,0.069685 -0.314173,0.0212598 -0.34252,-0.0649606 -0.225591,0.275197 -0.778346,0.698031 -0.891732,0.908268 -0.122835,0.226772 0.0106299,0.231496 0.0106299,0.231496z"/>
  <path class="fil29" d="M32.1921 14.5406c0.168898,-0.296457 0.529134,-0.741732 1.21535,-0.870472 1.06063,-0.199606 1.75157,0.19252 2.85591,-0.0318898 1.10315,-0.224409 -1.32992,0.544488 -2.48504,0.825591l-0.3 0.0767717 -1.28622 0z"/>
  <path class="fil30" d="M33.7169 14.5406c0.0165354,-0.282283 0.119291,-0.807874 0.540945,-1.00984 0.338976,-0.161811 0.674409,0.0590551 0.784252,-0.26811 0.328346,-0.992126 1.04646,-0.779528 1.04764,-0.783071l-0.0625984 -0.0011811c-0.00354331,0.0023622 -0.522047,-0.120472 -0.837402,0.827953 -0.0909449,0.277559 -0.239764,0.283465 -0.516142,0.425197 -0.445276,0.230315 -0.661417,0.581102 -0.76063,0.809055l-0.196063 0z"/>
  <path class="fil31" d="M31.1539 10.1433c-0.126378,-0.0401575 -0.392126,-0.125197 -0.549213,-0.231496l0 -0.409843c0.0153543,-0.00590551 0.0307087,-0.0106299 0.0472441,-0.0129921 -0.0401575,-0.105118 -0.023622,-0.185433 0.0838583,-0.217323 0.0318898,-0.00944882 0.0637795,-0.0129921 0.0944882,-0.0106299 0.0129921,-0.0318898 0.0330709,-0.0614173 0.0602362,-0.0850394l0 0c0.0200787,-0.0188976 0.0401575,-0.0318898 0.0614173,-0.0401575l0.0011811 -0.0011811c0.0566929,-0.023622 0.109843,-0.0153543 0.158268,0.0165354l0.0011811 0c0.0188976,0.0141732 0.0366142,0.0307087 0.0531496,0.0519685l0.00708661 -0.00590551 -0.0011811 0c0.0295276,-0.0224409 0.0637795,-0.0330709 0.102756,-0.0318898 0.0212598,0.0011811 0.0425197,0.00708661 0.0625984,0.0165354l0 0c0.100394,0.0472441 0.154724,0.115748 0.173622,0.197244 0.0755906,-0.0330709 0.155906,-0.0307087 0.23622,0.0295276l0 0c0.023622,0.0165354 0.0413386,0.0366142 0.0543307,0.0566929 0.034252,0.0519685 0.0401575,0.108661 0.0224409,0.165354l0 0.0011811c-0.0141732,0.0437008 -0.0413386,0.0885827 -0.0767717,0.131102 -0.0885827,0.103937 -0.23622,0.207874 -0.350787,0.27874l0.122835 0.122835 -0.0472441 0.0011811c0.0389764,0.0720472 0.0330709,0.151181 -0.106299,0.210236 -0.185433,0.0791339 -0.214961,-0.0956693 -0.211417,-0.232677z"/>
  <path class="fil32" d="M31.8083 12.9531l0.579921 -2.27598 -0.362598 2.23937c0,0 -0.162992,0.0708661 -0.217323,0.0366142z"/>
  <path class="fil33" d="M30.7713 10.1728c0,0 0.238583,-0.637795 -0.166535,-0.741732"/>
  <path class="fil27" d="M31.722 13.161c0,0 -0.0566929,-0.483071 -0.0980315,-0.56811 -0.0413386,-0.0814961 -0.0755906,-0.581102 -1.01929,-0.692126l0 0.125197c0.178346,0.157087 0.45,0.45 0.540945,0.87874 0.046063,0.21378 0.144094,0.258661 0.158268,0.448819 0.00944882,0.154724 0.0259843,0.473622 0.125197,0.517323 0.0992126,0.0425197 0.270472,-0.0519685 0.25748,-0.116929 -0.0129921,-0.0661417 0.0354331,-0.592913 0.0354331,-0.592913z"/>
  <path class="fil34" d="M30.6047 11.9327c0.174803,0.126378 0.537402,0.425197 0.641339,0.92126 0.0448819,0.212598 0.144094,0.258661 0.158268,0.447638 0.00472441,0.080315 0.011811,0.31063 0.0318898,0.41811 0.432283,0.252756 0.239764,-0.538583 0.0224409,-1.00276 -0.133465,-0.285827 -0.484252,-0.748819 -0.853937,-0.839764l0 0.0555118z"/>
  <path class="fil35" d="M31.6287 13.1941c0,0 0.127559,-0.0590551 0.101575,-0.113386 -0.0165354,-0.0307087 -0.0625984,-0.62126 -0.197244,-0.734646 0.0519685,0.191339 -0.0188976,0.833858 -0.409843,0.362598 0.0590551,0.0885827 0.10748,0.194882 0.134646,0.320079 0.0295276,0.137008 0.092126,0.166535 0.101575,0.28937 0.00708661,0.0992126 0.0165354,0.305906 0.0814961,0.334252 0.0637795,0.0271654 0.173622,-0.034252 0.165354,-0.0755906 -0.00826772,-0.0425197 0.0224409,-0.382677 0.0224409,-0.382677z"/>
  <path class="fil36" d="M30.6047 9.07323l0.0307087 0c0.187795,-0.011811 0.0838583,-0.216142 0.0224409,-0.315354l0.0011811 0 0.0366142 -0.0200787 0.023622 -0.0165354c0.0838583,-0.0566929 0.288189,-0.198425 0.381496,-0.327165 0.0732283,-0.101575 0.0909449,-0.200787 -0.0106299,-0.275197 -0.0448819,-0.034252 -0.0555118,-0.0259843 -0.100394,-0.0212598 0.00590551,-0.0933071 -0.0248031,-0.155906 -0.112205,-0.159449 -0.0259843,0 -0.0496063,0.00354331 -0.0720472,0.011811 -0.0177165,-0.0224409 -0.0389764,-0.0425197 -0.0649606,-0.0555118l0 -0.0011811c-0.0177165,-0.0106299 -0.0377953,-0.0177165 -0.0543307,-0.0200787l-0.0011811 0c-0.0354331,0.0023622 -0.0614173,0.0141732 -0.080315,0.0330709l0 1.16693z"/>
  <path class="fil36" d="M32.172 13.0228c-0.126378,-0.0566929 -0.398031,-0.177165 -0.537402,-0.305906 -0.113386,-0.105118 -0.155906,-0.217323 -0.0437008,-0.323622 0.0507874,-0.0484252 0.103937,-0.0720472 0.16063,-0.0744094 -0.0271654,-0.108661 0,-0.185433 0.109843,-0.206693 0.034252,-0.00590551 0.0649606,-0.00590551 0.0956693,-0.0011811 0.0165354,-0.0295276 0.0401575,-0.0555118 0.0708661,-0.0779528l0 0c0.0212598,-0.0165354 0.0437008,-0.0271654 0.0661417,-0.0330709l0 0c0.0602362,-0.0177165 0.112205,-0.00472441 0.155906,0.0330709l0.0011811 0c0.0165354,0.0153543 0.0330709,0.034252 0.046063,0.0566929l0.00708661 -0.00472441 0 0c0.0318898,-0.0200787 0.0673228,-0.0271654 0.105118,-0.0212598 0.0200787,0.00354331 0.0413386,0.011811 0.0614173,0.0224409l0 0c0.0944882,0.057874 0.13937,0.132283 0.147638,0.216142 0.0791339,-0.0259843 0.158268,-0.0153543 0.230315,0.0543307l0.0011811 0c0.0212598,0.0188976 0.0366142,0.0401575 0.0472441,0.0614173 0.0271654,0.0543307 0.0259843,0.111024 0.0011811,0.166535l0 0.0011811c-0.0177165,0.0413386 -0.0507874,0.0838583 -0.092126,0.121654 -0.100394,0.0944882 -0.259843,0.18189 -0.380315,0.239764l0.106299 0.134646 -0.046063 -0.00354331c0.0295276,0.0755906 0.0129921,0.153543 -0.133465,0.198425 -0.19252,0.0590551 -0.200787,-0.119291 -0.180709,-0.253937z"/>
  <path class="fil37" d="M31.689 13.7858c-0.0295276,-0.165354 -0.0909449,-0.526772 -0.0472441,-0.759449 0.0366142,-0.190157 0.133465,-0.314173 0.336614,-0.281102 0.092126,0.0153543 0.158268,0.0519685 0.201969,0.106299 0.103937,-0.106299 0.211417,-0.138189 0.315354,-0.0425197 0.0307087,0.0283465 0.0555118,0.0602362 0.0708661,0.0933071 0.046063,-0.00472441 0.0933071,-0.0011811 0.140551,0.0129921l0 0c0.034252,0.00944882 0.0637795,0.023622 0.0874016,0.0413386l0 0.0011811c0.0637795,0.046063 0.0874016,0.10748 0.0779528,0.178346l-0.0011811 0.0011811c-0.00354331,0.0271654 -0.0141732,0.057874 -0.0295276,0.0874016l0.00944882 0.0023622 0.0011811 0c0.0448819,0.0188976 0.0791339,0.0484252 0.100394,0.0909449 0.0106299,0.0224409 0.0177165,0.0484252 0.0188976,0.0779528l0 0c0.00354331,0.135827 -0.0472441,0.235039 -0.135827,0.304724 0.0874016,0.0590551 0.132283,0.146457 0.10748,0.26811l0 0.0011811c-0.00708661,0.0354331 -0.0188976,0.0649606 -0.0354331,0.0933071 -0.0425197,0.0673228 -0.10748,0.10748 -0.187795,0.124016l-0.0011811 0c-0.0614173,0.011811 -0.133465,0.0106299 -0.207874,-0.0023622 -0.179528,-0.0307087 -0.395669,-0.126378 -0.551575,-0.20315l-0.0744094 0.204331 -0.0295276 -0.0496063c-0.0649606,0.0850394 -0.164173,0.127559 -0.322441,0.0141732 -0.209055,-0.148819 -0.0141732,-0.285827 0.155906,-0.364961z"/>
  <path class="fil38" d="M31.5283 9.24685c-0.252756,-0.201969 -0.327165,-0.701575 -0.373228,-0.983858 0.145276,0.138189 0.426378,0.797244 0.457087,0.701575 0.0307087,-0.0956693 -0.0838583,0.282283 -0.0838583,0.282283z"/>
  <path class="fil36" d="M31.1209 14.5406c-0.00590551,-0.0307087 -0.0224409,-0.0602362 -0.0472441,-0.0885827 0.0850394,-0.0129921 0.145276,-0.0519685 0.157087,-0.127559l0 0c0.00354331,-0.0212598 0.0023622,-0.0413386 -0.00472441,-0.0614173 -0.0165354,-0.0484252 -0.057874,-0.0874016 -0.11811,-0.115748l-0.0011811 0 -0.00472441 -0.0011811 0.0200787 -0.0188976 0.0011811 0c0.0401575,-0.0425197 0.0590551,-0.0933071 0.0507874,-0.151181 -0.0023622,-0.0224409 -0.0106299,-0.046063 -0.023622,-0.069685l-0.0011811 0c-0.0448819,-0.0826772 -0.114567,-0.115748 -0.198425,-0.115748 0.0188976,-0.0767717 0.0519685,-0.12874 -0.0188976,-0.206693l0 0c-0.0141732,-0.0165354 -0.0318898,-0.0295276 -0.0496063,-0.0377953 -0.034252,-0.0177165 -0.069685,-0.0212598 -0.106299,-0.011811l-0.17126 0.142913 0 0.863386 0.516142 0z"/>
  <path class="fil36" d="M34.539 13.8803l-0.0767717 0.0814961 0 0c0,0.0129921 -0.0153543,0.0259843 -0.0354331,0.0401575l-0.0011811 0.00354331c-0.00708661,0.0141732 -0.0200787,0.0318898 -0.0377953,0.0519685l0.579921 -0.151181c0.0602362,0.00826772 0.109843,0.0330709 0.144094,0.0755906 0.0188976,0.0212598 0.0307087,0.0484252 0.0377953,0.0779528l0 0.0011811c0.0307087,0.146457 -0.0637795,0.197244 -0.164173,0.292913 0.0968504,0.0354331 0.161811,0.0956693 0.180709,0.186614l-1.69606 0c-0.0708661,-0.184252 -0.197244,-0.532677 -0.184252,-0.778346 0.0106299,-0.214961 0.112205,-0.369685 0.375591,-0.377953 0.119291,-0.00472441 0.127559,0.0188976 0.194882,0.0673228 0.111024,-0.138189 0.242126,-0.196063 0.393307,-0.114567 0.0437008,0.023622 0.0779528,0.0543307 0.105118,0.0862205 0.057874,-0.0165354 0.11811,-0.0224409 0.179528,-0.0165354l0.0011811 -0.0011811c0.0448819,0.00354331 0.0838583,0.0129921 0.115748,0.0271654l0.0011811 0c0.201969,0.137008 0.0366142,0.338976 -0.113386,0.447638zm-0.155906 0.183071l0.0318898 0.0283465 -0.0850394 0.0248031 0.0531496 -0.0531496z"/>
  <path class="fil36" d="M30.6047 11.687c0.034252,0.0165354 0.0732283,0.0212598 0.119291,0.00826772 0.0259843,-0.00590551 0.0472441,-0.0153543 0.0637795,-0.0271654 0.0283465,0.0106299 0.0590551,0.0188976 0.092126,0.0200787l0 0c0.0224409,0.0023622 0.0437008,0.0011811 0.0614173,-0.0011811l0.0011811 0c0.0496063,-0.00944882 0.0779528,-0.0318898 0.0862205,-0.0649606l0 0c0.0023622,-0.0129921 0.0023622,-0.0283465 -0.0011811,-0.0437008l0.00708661 0 0 0c0.0318898,0 0.0602362,-0.00708661 0.0814961,-0.0200787 0.011811,-0.00944882 0.0212598,-0.0188976 0.0283465,-0.0318898l0 0c0.0295276,-0.0590551 0.0177165,-0.111024 -0.0224409,-0.157087 0.0661417,-0.0106299 0.112205,-0.0413386 0.121654,-0.0980315l0 -0.0011811c0.0023622,-0.0165354 0.0011811,-0.0318898 -0.0023622,-0.0472441 -0.0141732,-0.0377953 -0.0448819,-0.0673228 -0.0933071,-0.0897638l-0.0011811 0 -0.0165354 -0.00590551 0.0307087 -0.0224409 0 0c0.0307087,-0.0283465 0.0448819,-0.0614173 0.0389764,-0.0992126 -0.00354331,-0.0165354 -0.0106299,-0.0318898 -0.0200787,-0.0472441l0 0c-0.0377953,-0.0555118 -0.0933071,-0.0791339 -0.158268,-0.080315 0.0129921,-0.0519685 0.0389764,-0.0850394 -0.0165354,-0.13937l-0.0011811 0c-0.011811,-0.0106299 -0.0248031,-0.0200787 -0.0389764,-0.0259843 -0.0259843,-0.0106299 -0.0543307,-0.0141732 -0.0826772,-0.00944882l-0.204331 0.146457 -0.00590551 0.0023622 -0.0129921 0.0413386c0.0129921,-0.0129921 0.0271654,-0.0259843 0.0448819,-0.0377953l-0.0307087 -0.00944882 0.00590551 -0.0212598c0.00472441,-0.00944882 0.00944882,-0.0188976 0.00590551,-0.0259843l0.00944882 -0.046063c0.0307087,-0.0637795 0.0401575,-0.166535 -0.0850394,-0.19252l0 0 -0.00472441 0 0 1.12677z"/>
  <g id="_82984536">
   <path id="_86745072" class="fil32" d="M33.4949 14.5406c-0.0767717,-0.0708661 -0.183071,-0.0968504 -0.383858,-0.240945 -0.0543307,-0.0389764 -0.0897638,-0.0814961 -0.145276,-0.11811 -0.119291,-0.0791339 -0.24685,-0.152362 -0.444094,-0.198425 -0.109843,0.069685 -0.324803,0.219685 -0.416929,0.382677 -0.0377953,0.0685039 -0.0614173,0.126378 -0.0779528,0.174803l-0.572835 0 -0.00472441 -0.080315c-0.00354331,-0.152362 -0.151181,-0.248031 0.00944882,-0.39685 0.0212598,-0.0720472 0.0944882,-0.261024 0.308268,-0.364961 0.13937,-0.0685039 0.438189,-0.0980315 0.597638,-0.112205 0.312992,-0.0295276 0.415748,-0.0472441 0.45,-0.0555118l0.00708661 0.0023622c0.585827,0.18189 0.840945,0.598819 0.943701,1.00748l-0.270472 0zm-1.76457 -0.699213c-0.124016,0.0224409 -0.21378,0.140551 -0.255118,0.205512l0.0011811 0c0.0779528,-0.0661417 0.161811,-0.142913 0.253937,-0.205512z"/>
   <path id="_79979072" class="fil28" d="M32.6776 13.9075c0,0 -0.305906,0.188976 -0.445276,0.399213 -0.153543,-0.00708661 -0.362598,0.168898 -0.510236,0.10748l-0.0720472 -0.0307087c-0.102756,-0.0425197 -0.161811,-0.255118 0.0271654,-0.413386 0.188976,-0.159449 0.3,-0.34252 0.601181,-0.269291 0.301181,0.0744094 0.399213,0.206693 0.399213,0.206693z"/>
   <path id="_123304696" class="fil27" d="M32.8323 13.5248c0,0 0.526772,-0.356693 0.796063,-0.249213 0.330709,0.134646 0.558661,0.308268 0.467717,0.745276 -0.0271654,0.133465 -0.0791339,0.314173 -0.135827,0.519685l-0.465354 0c-0.0767717,-0.0708661 -0.183071,-0.0968504 -0.383858,-0.240945 -0.0543307,-0.0389764 -0.0897638,-0.0814961 -0.145276,-0.11811 -0.138189,-0.092126 -0.28937,-0.175984 -0.54685,-0.219685 -0.080315,-0.0129921 -0.444094,-0.142913 -0.664961,-0.124016 -0.190157,0.0177165 -0.303543,0.253937 -0.303543,0.253937 0,0 0.0484252,-0.262205 0.316535,-0.393307 0.13937,-0.0685039 0.438189,-0.0980315 0.597638,-0.112205 0.465354,-0.0425197 0.467717,-0.0614173 0.467717,-0.0614173z"/>
   <path id="_123304648" class="fil34" d="M33.8268 14.5406c-0.0732283,-0.41811 -0.347244,-0.837402 -1.00512,-1.00748l-0.00590551 -0.0023622c-0.034252,0.00944882 -0.135827,0.0271654 -0.451181,0.0555118 -0.159449,0.0141732 -0.458268,0.0437008 -0.597638,0.112205 -0.26811,0.131102 -0.316535,0.393307 -0.316535,0.393307 0,0 0.113386,-0.23622 0.303543,-0.253937 0.220866,-0.0188976 0.584646,0.111024 0.664961,0.124016 0.25748,0.0437008 0.408661,0.127559 0.54685,0.219685 0.0555118,0.0366142 0.0909449,0.0791339 0.145276,0.11811 0.200787,0.144094 0.307087,0.170079 0.383858,0.240945l0.33189 0z"/>
   <path id="_46399168" class="fil32" d="M31.6146 13.8047c-0.134646,0.131102 -0.164173,0.287008 -0.164173,0.287008 0,0 0.0330709,-0.0708661 0.0944882,-0.137008 0.0106299,-0.0330709 0.0318898,-0.0897638 0.069685,-0.15zm1.88031 0.735827c-0.0767717,-0.0708661 -0.183071,-0.0968504 -0.383858,-0.240945 -0.0543307,-0.0389764 -0.0897638,-0.0814961 -0.145276,-0.11811 -0.138189,-0.092126 -0.28937,-0.175984 -0.54685,-0.219685 -0.080315,-0.0129921 -0.444094,-0.142913 -0.664961,-0.124016 -0.0744094,0.00708661 -0.137008,0.0472441 -0.185433,0.0933071 0.046063,-0.0720472 0.140551,-0.187795 0.272835,-0.199606 0.220866,-0.0188976 0.584646,0.109843 0.664961,0.124016 0.256299,0.0437008 0.40748,0.127559 0.54685,0.219685 0.0543307,0.0366142 0.0909449,0.080315 0.145276,0.11811 0.276378,0.197244 0.373228,0.17126 0.459449,0.347244l-0.162992 0z"/>
   <path id="_82984560" class="fil28" d="M32.8323 13.5248c0,0 0.216142,-0.147638 0.442913,-0.224409 -0.0531496,0.159449 0.538583,0.957874 0.144094,0.551575 -0.395669,-0.406299 -1.33583,-0.212598 -1.63346,-0.162992 0.146457,-0.0625984 0.426378,-0.0885827 0.57874,-0.102756 0.465354,-0.0425197 0.467717,-0.0614173 0.467717,-0.0614173z"/>
  </g>
  <g id="_124100464">
   <path id="_82549080" class="fil32" d="M30.6047 13.7516c0.0649606,0.00944882 0.124016,0.00354331 0.187795,0.0153543 0.144094,0.0259843 0.288189,0.0637795 0.46063,0.164173 0.0212598,0.124016 0.0519685,0.373228 -0.00944882,0.54685l-0.0259843 0.0625984 0.702756 0c-0.0023622,-0.0555118 -0.00590551,-0.113386 -0.0129921,-0.170079 0.034252,0.0507874 0.0448819,0.112205 0.0413386,0.170079l0.0484252 0c0.0224409,-0.080315 0.0307087,-0.18189 -0.00354331,-0.294094 -0.0437008,-0.141732 -0.226772,-0.36378 -0.325984,-0.48189 -0.19252,-0.231496 -0.250394,-0.314173 -0.266929,-0.34252l-0.00590551 -0.00472441c-0.277559,-0.138189 -0.544488,-0.175984 -0.790157,-0.151181l0 0.485433z"/>
   <path id="_81984192" class="fil39" d="M31.2024 13.774c0,0 0.0649606,0.338976 -0.0011811,0.576378 0.0484252,0.0437008 0.0755906,0.116929 0.105118,0.190157l0.538583 0 0 -0.0448819c-0.00708661,-0.238583 0.057874,-0.43937 -0.206693,-0.592913 -0.264567,-0.153543 -0.435827,-0.12874 -0.435827,-0.12874z"/>
   <path id="_78917440" class="fil27" d="M31.3949 13.4055c0,0 -0.0862205,-0.602362 -0.356693,-0.711024 -0.152362,-0.0602362 -0.295276,-0.100394 -0.433465,-0.0909449l0 1.14803c0.0649606,0.00944882 0.124016,0.00354331 0.187795,0.0153543 0.167717,0.0318898 0.336614,0.0755906 0.54685,0.219685 0.0661417,0.0448819 0.416929,0.20315 0.555118,0.366142 0.0448819,0.0543307 0.057874,0.124016 0.0555118,0.187795l0.0472441 0c0.0212598,-0.080315 0.0307087,-0.18189 -0.00354331,-0.294094 -0.0437008,-0.141732 -0.226772,-0.36378 -0.325984,-0.48189 -0.287008,-0.343701 -0.272835,-0.359055 -0.272835,-0.359055z"/>
   <path id="_78917392" class="fil34" d="M30.6047 13.2106c0.242126,-0.00944882 0.507874,0.0496063 0.790157,0.206693l0.00590551 0.00472441c0.0165354,0.0283465 0.0744094,0.109843 0.266929,0.34252 0.0992126,0.11811 0.282283,0.340157 0.325984,0.48189 0.034252,0.112205 0.0259843,0.21378 0.00472441,0.294094l-0.0484252 0c0.0023622,-0.0637795 -0.0106299,-0.133465 -0.0555118,-0.187795 -0.138189,-0.162992 -0.488976,-0.32126 -0.555118,-0.366142 -0.210236,-0.144094 -0.379134,-0.187795 -0.54685,-0.219685 -0.0637795,-0.011811 -0.122835,-0.00590551 -0.187795,-0.0153543l0 -0.540945z"/>
   <path id="_86594544" class="fil32" d="M32.0161 14.4224c-0.0023622,0.0425197 -0.00944882,0.0826772 -0.0188976,0.11811l-0.0307087 0c0.0165354,-0.0295276 0.0354331,-0.069685 0.0496063,-0.11811zm-1.41142 -0.807874l0.0188976 0.00354331c0.0673228,0.00944882 0.126378,0.00472441 0.191339,0.0165354 0.167717,0.0307087 0.336614,0.0755906 0.548031,0.219685 0.0661417,0.046063 0.415748,0.201969 0.553937,0.366142 0.0814961,0.0968504 0.0566929,0.239764 0.0330709,0.320079l-0.0011811 0c0.00354331,-0.0637795 -0.00944882,-0.133465 -0.0543307,-0.187795 -0.138189,-0.162992 -0.488976,-0.32126 -0.555118,-0.366142 -0.210236,-0.144094 -0.379134,-0.187795 -0.54685,-0.219685 -0.0637795,-0.011811 -0.122835,-0.00590551 -0.187795,-0.0153543l0 -0.137008z"/>
   <path id="_124100488" class="fil40" d="M31.3949 13.4055c0,0 -0.0354331,-0.248031 -0.132283,-0.454724 -0.0566929,0.0944882 -0.507874,0.190157 -0.657874,0.243307l0 0.0389764c0.0295276,0.0023622 0.0720472,0.0023622 0.131102,0.0011811 0.588189,-0.011811 1.08543,0.758268 1.25079,0.994488 -0.0519685,-0.142913 -0.223228,-0.350787 -0.318898,-0.464173 -0.287008,-0.343701 -0.272835,-0.359055 -0.272835,-0.359055z"/>
  </g>
  <g id="_124664256">
   <path id="_129044464" class="fil27" d="M32.8228 11.8854c0,0 -0.210236,-0.218504 -0.364961,-0.219685 -0.191339,-0.0023622 -0.336614,0.0259843 -0.36378,0.205512 -0.0177165,0.119291 -0.0153543,0.341339 -0.0496063,0.548031 0.281102,-0.334252 0.222047,-0.235039 0.505512,-0.285827 0.034252,-0.00590551 0.0602362,-0.0165354 0.0944882,-0.0212598 0.0862205,-0.0129921 0.177165,-0.0200787 0.315354,0.00472441 0.0437008,0.00708661 0.250394,0.0165354 0.359055,0.0590551 0.0956693,0.0366142 0.113386,0.144094 0.113386,0.144094 0,0 0.0188976,-0.106299 -0.0968504,-0.198425 -0.0590551,-0.0484252 -0.205512,-0.10748 -0.285827,-0.138189 -0.230315,-0.0909449 -0.226772,-0.0980315 -0.226772,-0.0980315z"/>
   <path id="_129044416" class="fil34" d="M32.0598 12.3012c0.0437008,-0.214961 0.250394,-0.467717 0.765354,-0.411024l0.00472441 0.0011811c0.0153543,0.00826772 0.0649606,0.0318898 0.219685,0.092126 0.080315,0.0307087 0.226772,0.0897638 0.285827,0.138189 0.115748,0.092126 0.0968504,0.198425 0.0968504,0.198425 0,0 -0.0177165,-0.10748 -0.113386,-0.144094 -0.108661,-0.0425197 -0.315354,-0.0519685 -0.359055,-0.0590551 -0.138189,-0.0248031 -0.229134,-0.0177165 -0.315354,-0.00472441 -0.034252,0.00472441 -0.0602362,0.0153543 -0.0944882,0.0212598 -0.283465,0.0507874 -0.224409,-0.0484252 -0.505512,0.285827 0.00590551,-0.0401575 0.011811,-0.0791339 0.0153543,-0.11811z"/>
   <path id="_124664328" class="fil32" d="M33.3957 12.1854c0.0472441,0.0708661 0.0366142,0.134646 0.0366142,0.134646 0,0 -0.00472441,-0.0330709 -0.0259843,-0.0673228 0,-0.0129921 0,-0.0377953 -0.0106299,-0.0673228zm0.00354331 0.0555118c-0.0177165,-0.0259843 -0.0425197,-0.0507874 -0.080315,-0.0649606 -0.108661,-0.0425197 -0.315354,-0.0519685 -0.359055,-0.0590551 -0.138189,-0.0248031 -0.229134,-0.0177165 -0.315354,-0.00472441 -0.034252,0.00472441 -0.0602362,0.0153543 -0.0944882,0.0212598 -0.283465,0.0507874 -0.224409,-0.0484252 -0.505512,0.285827 0.00590551,-0.034252 0.0106299,-0.0685039 0.0129921,-0.101575 0.23622,-0.277559 0.197244,-0.191339 0.465354,-0.238583 0.034252,-0.00472441 0.0614173,-0.0165354 0.0944882,-0.0212598 0.0862205,-0.0129921 0.178346,-0.0200787 0.316535,0.00472441 0.0425197,0.00826772 0.249213,0.0165354 0.359055,0.0590551 0.0661417,0.0259843 0.0944882,0.0850394 0.106299,0.119291z"/>
   <path id="_124664280" class="fil32" d="M32.8228 11.8854c0,0 -0.0862205,-0.0885827 -0.188976,-0.153543 0,0.0673228 -0.435827,0.274016 -0.165354,0.184252 0.269291,-0.0897638 0.715748,0.132283 0.859843,0.198425 -0.0637795,-0.0472441 -0.20315,-0.101575 -0.27874,-0.131102 -0.230315,-0.0909449 -0.226772,-0.0980315 -0.226772,-0.0980315z"/>
  </g>
  <path class="fil27" d="M30.678 11.1791l-0.0437008 -0.0129921c0,0 1.13976,0.681496 1.12795,0.981496 -0.011811,0.3 0.468898,-0.634252 -1.08425,-0.968504z"/>
  <path class="fil41" d="M31.2461 9.29055c0,0 -0.080315,0.190157 -0.0129921,0.222047 0.0685039,0.0307087 0.106299,0.102756 0.122835,-0.0366142 0.0165354,-0.140551 -0.0224409,-0.113386 -0.0224409,-0.113386 0,0 -0.0850394,-0.069685 -0.0874016,-0.0720472z"/>
  <path class="fil41" d="M32.2323 7.67244c0,0.00590551 -0.00590551,0.0141732 -0.0141732,0.023622l0.0011811 0.0011811c-0.0023622,0.00944882 -0.00708661,0.0200787 -0.0141732,0.0330709l0.265748 -0.126378c0.0283465,0.0011811 0.0555118,0.011811 0.0755906,0.0330709 0.0106299,0.0106299 0.0188976,0.0248031 0.0248031,0.0413386l0 0c0.0295276,0.0814961 -0.011811,0.116929 -0.0519685,0.177165 0.0637795,0.0177165 0.106299,0.0602362 0.114567,0.13937l0 0c0.0023622,0.0224409 0.0011811,0.0437008 -0.00354331,0.0637795 -0.0129921,0.0496063 -0.0437008,0.0862205 -0.0874016,0.113386l-0.0011811 0c-0.0330709,0.0212598 -0.0755906,0.034252 -0.122835,0.0425197 -0.109843,0.0188976 -0.256299,0.00708661 -0.362598,-0.00708661l-0.0472441 0.0755906 -0.034252 -0.0295276c-0.023622,0.102756 -0.0732283,0.28937 -0.251575,0.187795 -0.161811,-0.0909449 0.0330709,-0.227953 0.137008,-0.288189l-0.0023622 -0.0011811 -0.0200787 -0.0330709 -0.0141732 -0.0248031c-0.046063,-0.0874016 -0.157087,-0.301181 -0.174803,-0.457087 -0.0141732,-0.120472 0.0188976,-0.214961 0.145276,-0.238583 0.0566929,-0.00944882 0.0637795,0.0023622 0.100394,0.0259843 0.0401575,-0.0862205 0.0980315,-0.127559 0.178346,-0.092126 0.023622,0.0106299 0.0425197,0.0248031 0.057874,0.0413386 0.0259843,-0.0129921 0.0555118,-0.0200787 0.0862205,-0.0212598l0 0c0.0212598,-0.0011811 0.0413386,0.0011811 0.057874,0.00590551l0.0011811 0.0011811c0.108661,0.0625984 0.0484252,0.186614 -0.0129921,0.258661l-0.0307087 0.0543307zm-0.0283465 0.0602362l-0.0200787 0.034252 0.0377953 -0.0200787 -0.0177165 -0.0141732z"/>
  <g id="_123270544">
   <path id="_126041920" class="fil32" d="M34.8165 14.5406c0.0590551,-0.046063 0.121654,-0.0897638 0.165354,-0.120472 0.184252,-0.129921 0.240945,-0.177165 0.259843,-0.194882l0.00590551 -0.0011811c0.454724,-0.0968504 0.790157,0.0874016 1.02283,0.316535l-1.45394 0z"/>
   <path id="_122762536" class="fil28" d="M35.3091 14.511l-0.0141732 0.0295276 -0.372047 0 0.0519685 -0.0177165c0.218504,-0.0602362 0.334252,-0.011811 0.334252,-0.011811z"/>
   <path id="_83122232" class="fil27" d="M35.25 14.2157c0,0 0.186614,-0.412205 0.399213,-0.43937 0.262205,-0.034252 0.475984,-0.00590551 0.597638,0.3 0.0448819,0.113386 0.0944882,0.27874 0.154724,0.464173l-1.58504 0c0.0590551,-0.046063 0.120472,-0.0897638 0.164173,-0.120472 0.276378,-0.191339 0.269291,-0.204331 0.269291,-0.204331z"/>
   <path id="_84628320" class="fil34" d="M36.3248 14.5406c-0.212598,-0.25748 -0.56811,-0.451181 -1.07717,-0.316535l-0.00590551 0.0011811c-0.0177165,0.0177165 -0.0744094,0.0649606 -0.261024,0.194882 -0.0437008,0.0307087 -0.105118,0.0744094 -0.164173,0.120472l1.50827 0z"/>
   <path id="_85001304" class="fil32" d="M35.1732 14.5406l0.00708661 -0.0023622c0.178346,-0.0637795 0.307087,-0.0637795 0.432283,-0.0555118 0.0496063,0.0023622 0.0897638,0.0177165 0.13937,0.0224409 0.230315,0.0224409 0.294094,-0.0165354 0.398031,0.0354331l-0.976772 0z"/>
   <path id="_79463272" class="fil32" d="M35.25 14.2157c0,0 0.0755906,-0.170079 0.187795,-0.298819 0.0307087,0.11811 0.72874,0.409843 0.314173,0.295276 -0.31063,-0.0862205 -0.675591,0.147638 -0.908268,0.328346l-0.0283465 0c0.0590551,-0.046063 0.121654,-0.0897638 0.165354,-0.120472 0.276378,-0.191339 0.269291,-0.204331 0.269291,-0.204331z"/>
  </g>
  <path class="fil42" d="M34.4339 13.5543c0.080315,-0.0484252 0.168898,-0.0519685 0.199606,-0.00708661 0.0295276,0.0425197 -0.011811,0.116929 -0.092126,0.165354 -0.080315,0.0484252 -0.168898,0.0519685 -0.199606,0.00826772 -0.0307087,-0.0437008 0.011811,-0.119291 0.092126,-0.166535z"/>
  <path class="fil43" d="M40.063 6.50433l0 8.03622 0 0.500787 -0.500787 0 -9.07913 0 -0.500787 0 0 -0.500787 0 -8.03622 0 -0.500787 0.500787 0 9.07913 0 0.500787 0 0 0.500787zm-1.00157 7.53543l0 -7.03465 -8.07756 0 0 7.03465 8.07756 0z"/>
  <g id="_86622832">
   <path id="_84986336" class="fil44" d="M7.98071 10.0724l3.53268 0 0 1.00157 -3.53268 0 0 -1.00157zm4.85906 0l15.0201 0 0 1.00157 -15.0201 0 0 -1.00157zm-4.85906 1.95827l7.57087 0 0 1.00157 -7.57087 0 0 -1.00157zm8.89724 0l10.9819 0 0 1.00157c-3.18543,0 -6.57283,0 -10.9819,0l0 -1.00157zm-8.89724 -4.00866l8.89606 0 0 1.00157 -8.89606 0 0 -1.00157zm10.2213 0l4.1315 0 0 1.00157 -4.1315 0 0 -1.00157zm5.42717 0l4.23071 0 0 1.00157 -4.23071 0 0 -1.00157z"/>
   <path id="_46791536" class="fil45" d="M7.97953 21.0591l14.2713 0 0 1.00157 -4.03228 0 0 -0.0259843 -1.3252 0 0 0.0259843 -8.91378 0 0 -1.00157zm15.5965 0l6.89291 0 0 1.00157 -6.89291 0 0 -1.00157zm8.21929 0l8.11772 0 0 1.00157 -8.11772 0 0 -1.00157zm-23.8157 8.01969l20.4201 0 0 1.00157 -20.4201 0 0 -1.00157zm21.7453 0l10.1882 0 0 1.00157 -10.1882 0 0 -1.00157zm-21.7453 -2.05039l7.39134 0 0 1.00157 -7.39134 0 0 -1.00157zm8.71772 0l5.61378 0 0 0.930709 1.32638 0 0 -0.930709 9.57165 0 0 1.00157 -16.5118 0 0 -1.00157zm17.837 0l5.37874 0 0 1.00157 -5.37874 0 0 -1.00157zm-26.5547 -1.96063l6.11339 0 0 1.00157 -6.11339 0 0 -1.00157zm7.43858 0l11.7638 0 0 1.00157 -11.7638 0 0 -1.00157zm13.089 0l11.4059 0 0 1.00157 -11.4059 0 0 -1.00157zm-20.5276 -2.05039l8.91378 0 0 1.00157 -8.91378 0 0 -1.00157zm10.239 0l13.7114 0 0 1.00157 -3.42283 0 0 -0.00944882 -1.3252 0 0 0.00944882 -8.96339 0 0 -1.00157zm15.0378 0l6.65669 0 0 1.00157 -6.65669 0 0 -1.00157zm-25.2768 -4.00866l2.76496 0 0 1.00157 -2.76496 0 0 -1.00157zm4.09016 0l7.44094 0 0 1.00157 -7.44094 0 0 -1.00157zm8.76732 0l12.3106 0 0 1.00157 -12.3106 0 0 -1.00157zm13.637 0l5.43898 0 0 1.00157 -5.43898 0 0 -1.00157z"/>
   <path id="_86622856" class="fil46" d="M8.01142 38.9787l17.0091 0 0 1.00157 -17.0091 0 0 -1.00157zm18.3354 0l13.5969 0 0 1.00157 -13.5969 0 0 -1.00157zm-18.3354 1.95827l4.83425 0 0 1.00157 -4.83425 0 0 -1.00157zm6.15945 0l25.7728 0 0 1.00157 -25.7728 0 0 -1.00157zm-6.15945 -4.00866l11.5913 0 0 1.00157 -11.5913 0 0 -1.00157zm12.9165 0l19.0157 0 0 1.00157 -19.0157 0 0 -1.00157z"/>
  </g>
  <polygon class="fil17" points="19.7114,44.0492 15.7441,48.1181 14.589,47.8016 14.7461,46.7504 15.4512,46.8177 18.998,43.1728 19.1634,43.0028 19.428,43.0028 23.0965,43.0028 25.6465,43.0028 29.3138,43.0028 29.5795,43.0028 29.7449,43.1728 33.2906,46.8177 33.9957,46.7504 34.1528,47.8016 32.9374,48.1181 29.0362,44.1165 "/>
  <polygon class="fil47" points="25.3217,44.4579 23.3232,44.4579 20.0386,44.4579 18.815,47.002 17.4402,47.002 19.5,43.7587 19.5083,43.5886 19.7728,43.5886 23.3232,43.5886 25.3217,43.5886 28.4374,43.5886 28.7031,43.5886 29.1839,43.7587 31.1445,47.0067 29.6563,47.0067 28.5272,44.4579 "/>
  <path class="fil48" d="M19.5579 45.3224l-0.742913 1.67953 -1.3748 0 0.995669 -1.67598 1.12205 -0.00354331zm10.6181 -0.0295276l0.968504 1.71378 -1.48819 0 -0.69685 -1.71024 1.21654 -0.00354331z"/>
  <path class="fil49" d="M43.9146 19.4563l0 1.6122 -0.948425 0c-0.19252,0 -0.355512,0.131102 -0.355512,0.284646l0 4.11732c0,0.154724 0.159449,0.284646 0.355512,0.284646l0.979134 0 -0.0732283 1.65236c0.929528,-0.315354 1.15039,0.0673228 1.62283,-0.800787 0,-2.19331 0,-3.96142 0,-6.15591 -0.23622,-0.915354 -0.555118,-1.27913 -1.58031,-0.994488z"/>
  <polygon class="fil50" points="44.8465,18.7394 44.8465,27.437 44.0315,27.437 44.0315,18.7394 "/>
  <path class="fil50" d="M44.7094 19.7197l0 1.24724 0 0.333071 -0.33189 0 -1.41496 0 0.00826772 0.0023622 -0.0307087 3.96614 0.0224409 0.0023622 1.41496 0 0.346063 0 -0.0153543 0.346063 -0.0543307 1.35827c0.146457,-0.0271654 0.277559,-0.0413386 0.39685,-0.0531496l0.0011811 0c0.287008,-0.0307087 0.0885827,-0.0519685 0.3,-0.400394l0 -6.03189c-0.0944882,-0.351969 -0.219685,-0.594094 -0.399213,-0.706299 -0.145276,-0.092126 0.0425197,-0.114567 -0.243307,-0.0637795zm-0.66378 0.915354l0 -1.17756 0 -0.251575 0.244488 -0.0685039c0.608268,-0.168898 0.664961,-0.134646 1.01575,0.0862205 0.346063,0.219685 0.559843,0.605906 0.699213,1.14567l0.011811 0.0814961 0 6.15709 -0.0413386 0.158268c-0.394488,0.722835 -0.337795,0.76063 -0.855118,0.81378 -0.196063,0.0200787 -0.42874,0.046063 -0.709843,0.141732l-0.459449 0.154724 0.0224409 -0.483071 0.057874 -1.45748 -1.0689 0c-0.172441,0 -0.334252,-0.0602362 -0.455906,-0.157087 -0.142913,-0.113386 -0.231496,-0.27874 -0.231496,-0.459449l0 -4.06772c0,-0.183071 0.0897638,-0.344882 0.230315,-0.457087 0.120472,-0.0980315 0.284646,-0.159449 0.457087,-0.159449l1.08307 0z"/>
  <path class="fil51" d="M8.67638 24.5941l30.4642 0c0.807874,0 1.47283,0.680315 1.46811,1.49409l-0.0448819 7.38425c-0.00472441,0.814961 -0.668504,1.49646 -1.46693,1.49646l-30.2197 0c-0.799606,0 -1.44685,-0.673228 -1.46811,-1.49646l-0.199606 -7.38425c-0.0212598,-0.822047 0.659055,-1.49409 1.46693,-1.49409zm2.60787 3.7063l25.7551 0c0.494882,0 0.898819,0.420472 0.898819,0.918898l0 1.18228c0,0.498425 -0.411024,0.918898 -0.898819,0.918898l-25.7551 0c-0.486614,0 -0.898819,-0.413386 -0.898819,-0.918898l0 -1.18228c0,-0.505512 0.405118,-0.918898 0.898819,-0.918898z"/>
  <path class="fil52" d="M7.67717 27.0437l0.0023622 -0.0791339 -0.0295276 0c0,-0.0826772 0.00590551,-0.164173 0.0177165,-0.243307l-0.0177165 0c0,-0.455906 0.185433,-0.872835 0.480709,-1.17402 0.296457,-0.301181 0.705118,-0.490157 1.1563,-0.490157l29.6858 0c0.451181,0 0.859843,0.188976 1.15748,0.490157 0.295276,0.301181 0.479528,0.71811 0.479528,1.17402l-0.00472441 0c0.0200787,0.105118 0.0307087,0.212598 0.0307087,0.322441l-0.0177165 0c0.011811,0.080315 0.0177165,0.16063 0.0177165,0.243307l-0.40748 0c0,-0.346063 -0.13937,-0.661417 -0.361417,-0.888189 -0.222047,-0.225591 -0.529134,-0.366142 -0.866929,-0.366142l-29.687 0c-0.336614,0 -0.643701,0.140551 -0.866929,0.366142 -0.222047,0.226772 -0.360236,0.542126 -0.360236,0.888189l-0.408661 0c0,-0.0826772 0.00708661,-0.162992 0.0188976,-0.243307l-0.0188976 0z"/>
  <path class="fil52" d="M37.7563 31.2614c0,0.0944882 -0.0129921,0.186614 -0.0354331,0.274016l0.0354331 0 -0.00354331 0.0767717 0.0307087 0c0,0.0944882 -0.011811,0.185433 -0.034252,0.274016l0.034252 0c0,0.3 -0.121654,0.575197 -0.317717,0.775984l0 0c-0.196063,0.200787 -0.467717,0.325984 -0.765354,0.325984l-25.089 0c-0.297638,0 -0.56811,-0.125197 -0.765354,-0.325984l-0.0011811 0c-0.19252,-0.199606 -0.315354,-0.474803 -0.315354,-0.775984l0.0307087 0c-0.0366142,-0.111024 -0.0566929,-0.229134 -0.0566929,-0.350787l0.034252 0c-0.0224409,-0.0874016 -0.034252,-0.179528 -0.034252,-0.274016l0.40748 0c0,0.191339 0.0767717,0.366142 0.198425,0.491339l0.0011811 0.0011811c0.122835,0.124016 0.28937,0.201969 0.474803,0.201969l25.089 0c0.185433,0 0.351969,-0.0779528 0.473622,-0.201969l0.0011811 -0.0011811c0.121654,-0.124016 0.198425,-0.298819 0.198425,-0.491339l0.408661 0z"/>
  <path class="fil53" d="M8.85827 24.0933l30.2823 0 0.00826772 0 0.0023622 0.0023622c0.538583,0.0023622 1.03228,0.230315 1.38543,0.590551l-0.0011811 0.0011811c0.351969,0.359055 0.574016,0.856299 0.574016,1.39252l0 0.00826772 -0.0023622 0.0023622 -0.0448819 7.68898c-0.0023622,0.540945 -0.226772,1.04291 -0.579921,1.40197 -0.356693,0.36378 -0.849213,0.592913 -1.38543,0.592913l-30.2197 0c-0.53622,0 -1.02283,-0.225591 -1.37835,-0.587008 -0.350787,-0.357874 -0.575197,-0.855118 -0.588189,-1.39843l-0.0177165 -7.68898 -0.0023622 -0.011811 0 -0.0377953c0,-0.530315 0.219685,-1.01339 0.56811,-1.36654l0.0023622 -0.0023622c0.346063,-0.349606 0.826772,-0.571654 1.34764,-0.585827l0.011811 -0.0023622 0.0377953 0zm30.2823 1.00157l-30.2823 0 -0.0377953 0 0 -0.0023622c-0.249213,0.00944882 -0.48189,0.119291 -0.650787,0.290551l-0.0023622 0.0023622c-0.167717,0.170079 -0.275197,0.406299 -0.275197,0.664961l0 0.0377953 -0.0023622 0 0.0177165 7.67717c0.00708661,0.279921 0.122835,0.539764 0.302362,0.722835 0.17126,0.174803 0.408661,0.284646 0.667323,0.284646l30.2197 0c0.259843,0 0.500787,-0.113386 0.674409,-0.290551 0.179528,-0.18189 0.292913,-0.437008 0.294094,-0.70748l0.0448819 -7.68661 -0.0023622 0 0 -0.00826772c0,-0.269291 -0.111024,-0.517323 -0.284646,-0.694488l-0.0023622 0c-0.174803,-0.178346 -0.415748,-0.290551 -0.672047,-0.292913l0 0.0023622 -0.00826772 0zm-27.8563 2.82638l25.7551 0c0.38622,0 0.735827,0.162992 0.988583,0.421654 0.252756,0.258661 0.411024,0.615354 0.411024,0.998031l0 1.18228c0,0.381496 -0.158268,0.737008 -0.409843,0.993307l-0.0023622 0.0023622c-0.253937,0.259843 -0.607087,0.424016 -0.987402,0.424016l-25.7551 0c-0.382677,0 -0.735827,-0.162992 -0.989764,-0.422835l-0.0023622 -0.0023622c-0.248031,-0.255118 -0.40748,-0.609449 -0.40748,-0.994488l0 -1.18228c0,-0.38622 0.158268,-0.741732 0.409843,-0.998031 0.252756,-0.258661 0.604724,-0.421654 0.989764,-0.421654zm25.7551 1.00157l-25.7551 0c-0.10748,0 -0.207874,0.0472441 -0.27874,0.119291 -0.0732283,0.0744094 -0.119291,0.180709 -0.119291,0.298819l0 1.18228c0,0.114567 0.0484252,0.223228 0.120472,0.298819 0.0720472,0.0720472 0.17126,0.119291 0.277559,0.119291l25.7551 0c0.103937,0 0.204331,-0.0472441 0.274016,-0.119291l0.0023622 -0.0023622c0.0744094,-0.0755906 0.121654,-0.18189 0.121654,-0.296457l0 -1.18228c0,-0.115748 -0.0472441,-0.223228 -0.120472,-0.298819 -0.0708661,-0.0720472 -0.170079,-0.119291 -0.277559,-0.119291z"/>
  <path class="fil54" d="M36.4016 32.348l7.19291 -6.4252 0 -2.19331 -8.3563 7.3748 1.16339 1.2437zm-1.91693 -1.68898l9.10984 -7.81181 0 -2.14724 -10.2732 8.72126 1.16339 1.2378z"/>
  <circle class="fil55" transform="matrix(0.631282 -0.125532 0.12553 0.631293 36.0768 29.7333)" r="4.54252"/>
  <path class="fil56" d="M35.7732 27.6413c1.30984,-0.261024 2.58307,0.590551 2.84291,1.89921 0.261024,1.31102 -0.58937,2.58307 -1.90039,2.84409 -1.30866,0.259843 -2.58189,-0.590551 -2.84291,-1.90039 -0.259843,-1.30984 0.590551,-2.58307 1.90039,-2.84291z"/>
  <circle class="fil57" transform="matrix(0.171644 -0.0341317 0.0341311 0.171647 36.0929 28.9239)" r="4.54252"/>
  <ellipse class="fil58" cx="36.0655" cy="29.6437" rx="1.55669" ry="1.55672"/>
  <path class="fil59" d="M36.1382 28.3724c0.924803,0 1.67362,0.75 1.67362,1.67362 0,0.924803 -0.748819,1.6748 -1.67362,1.6748 -0.923622,0 -1.67362,-0.75 -1.67362,-1.6748 0,-0.923622 0.75,-1.67362 1.67362,-1.67362z"/>
  <ellipse class="fil60" cx="36.0584" cy="29.6697" rx="1.61866" ry="1.61869"/>
  <path class="fil61" d="M37.6583 29.4201c0.0129921,0.0814961 0.0188976,0.165354 0.0188976,0.249213 0,0.894094 -0.724016,1.61929 -1.61811,1.61929 -0.894094,0 -1.61929,-0.725197 -1.61929,-1.61929 0,-0.0496063 0.0023622,-0.0992126 0.00708661,-0.147638 0.119291,0.775984 0.790157,1.3689 1.59921,1.3689 0.844488,0 1.5378,-0.646063 1.6122,-1.47047z"/>
  <path class="fil62" d="M36.1075 30.8161c0.797244,0 1.32874,-0.464173 1.32874,-1.03701 0,-0.571654 -0.531496,-0.700394 -1.32874,-0.700394 -0.797244,0 -1.44331,0.12874 -1.44331,0.700394 0,0.572835 0.646063,1.03701 1.44331,1.03701z"/>
  <path class="fil63" d="M36.1429 27.789c0.794882,0 1.3252,0.478346 1.3252,1.0689 0,0.58937 -0.530315,0.721654 -1.3252,0.721654 -0.796063,0 -1.44094,-0.132283 -1.44094,-0.721654 0,-0.590551 0.644882,-1.0689 1.44094,-1.0689z"/>
  <polygon class="fil63" points="36.8575,28.8472 37.3157,29.2724 35.7496,30.9319 35.2913,30.5067 "/>
  <ellipse class="fil64" cx="36.123" cy="30.6826" rx="0.832352" ry="0.444689"/>
  <polygon class="fil49" points="36.6602,28.5827 37.0524,28.9748 35.5689,30.535 35.1768,30.1429 "/>
  <g id="_86931656">
   <polygon id="_45651336" class="fil65" points="7.99843,5.96929 21.5657,5.96929 21.5657,7.0122 7.99843,7.0122 "/>
   <path id="_86931680" class="fil65" d="M18.3969 16.9299l4.95236 0 0 1.10906 -4.95236 0 0 -1.10906zm-10.3476 0l9.10866 0 0 1.10906 -9.10866 0 0 -1.10906z"/>
  </g>
  <g id="_86487584">
   <path id="_83987120" class="fil66" d="M22.6299 19.5437c11.2146,0 20.3102,0.431102 20.3102,0.962598 0,0.532677 -9.09567,0.96378 -20.3102,0.96378 -11.2157,0 -20.3102,-0.431102 -20.3102,-0.96378 0,-0.531496 9.09449,-0.962598 20.3102,-0.962598z"/>
   <g>
    <path id="_123723504" class="fil67" d="M22.7091 18.8091c10.9783,0 19.8815,0.431102 19.8815,0.962598 0,0.531496 -8.90315,0.96378 -19.8815,0.96378 -10.9783,0 -19.8827,-0.432283 -19.8827,-0.96378 0,-0.531496 8.90433,-0.962598 19.8827,-0.962598z"/>
    <path id="_82907824" class="fil68" d="M22.7882 18.0732c10.7421,0 19.4539,0.432283 19.4539,0.96378 0,0.531496 -8.71181,0.962598 -19.4539,0.962598 -10.7433,0 -19.4539,-0.431102 -19.4539,-0.962598 0,-0.531496 8.71063,-0.96378 19.4539,-0.96378z"/>
    <path id="_82213888" class="fil69" d="M22.8661 17.3386c10.5059,0 19.0276,0.432283 19.0276,0.96378 0,0.531496 -8.52165,0.962598 -19.0276,0.962598 -10.5059,0 -19.0264,-0.431102 -19.0264,-0.962598 0,-0.531496 8.52047,-0.96378 19.0264,-0.96378z"/>
    <path id="_83240552" class="fil70" d="M22.9453 16.6039c10.2697,0 18.6,0.432283 18.6,0.96378 0,0.531496 -8.33031,0.962598 -18.6,0.962598 -10.2697,0 -18.5988,-0.431102 -18.5988,-0.962598 0,-0.531496 8.32913,-0.96378 18.5988,-0.96378z"/>
    <path id="_82916176" class="fil71" d="M23.0244 15.8681c10.0335,0 18.1713,0.432283 18.1713,0.96378 0,0.531496 -8.1378,0.96378 -18.1713,0.96378 -10.0346,0 -18.1713,-0.432283 -18.1713,-0.96378 0,-0.531496 8.13661,-0.96378 18.1713,-0.96378z"/>
    <path id="_46111568" class="fil72" d="M23.1035 15.1346c9.79724,0 17.7425,0.431102 17.7425,0.962598 0,0.531496 -7.94528,0.96378 -17.7425,0.96378 -9.79843,0 -17.7425,-0.432283 -17.7425,-0.96378 0,-0.531496 7.94409,-0.962598 17.7425,-0.962598z"/>
    <path id="_81065776" class="fil73" d="M23.1827 14.4c9.56102,0 17.315,0.431102 17.315,0.962598 0,0.531496 -7.75394,0.96378 -17.315,0.96378 -9.5622,0 -17.3161,-0.432283 -17.3161,-0.96378 0,-0.531496 7.75394,-0.962598 17.3161,-0.962598z"/>
    <path id="_85655944" class="fil74" d="M23.2618 13.6642c9.3248,0 16.8874,0.431102 16.8874,0.962598 0,0.532677 -7.5626,0.96378 -16.8874,0.96378 -9.3248,0 -16.8874,-0.431102 -16.8874,-0.96378 0,-0.531496 7.5626,-0.962598 16.8874,-0.962598z"/>
    <path id="_123608680" class="fil75" d="M23.3398 12.9295c9.08858,0 16.461,0.432283 16.461,0.96378 0,0.531496 -7.37244,0.962598 -16.461,0.962598 -9.08858,0 -16.4598,-0.431102 -16.4598,-0.962598 0,-0.531496 7.37126,-0.96378 16.4598,-0.96378z"/>
    <path id="_82304728" class="fil76" d="M23.4189 12.1949c8.85236,0 16.0323,0.432283 16.0323,0.96378 0,0.531496 -7.17992,0.96378 -16.0323,0.96378 -8.85236,0 -16.0311,-0.432283 -16.0311,-0.96378 0,-0.531496 7.17874,-0.96378 16.0311,-0.96378z"/>
    <path id="_83237056" class="fil77" d="M23.4992 11.4591c8.61614,0 15.6035,0.431102 15.6035,0.96378 0,0.531496 -6.9874,0.962598 -15.6035,0.962598 -8.61732,0 -15.6047,-0.431102 -15.6047,-0.962598 0,-0.532677 6.9874,-0.96378 15.6047,-0.96378z"/>
    <path id="_83107088" class="fil78" d="M23.576 10.7256c8.37992,0 15.1772,0.431102 15.1772,0.962598 0,0.531496 -6.79724,0.96378 -15.1772,0.96378 -8.3811,0 -15.176,-0.432283 -15.176,-0.96378 0,-0.531496 6.79488,-0.962598 15.176,-0.962598z"/>
    <path id="_124395648" class="fil79" d="M23.6563 9.98976c8.1437,0 14.7484,0.431102 14.7484,0.962598 0,0.532677 -6.60472,0.96378 -14.7484,0.96378 -8.14488,0 -14.7496,-0.431102 -14.7496,-0.96378 0,-0.531496 6.60472,-0.962598 14.7496,-0.962598z"/>
    <path id="_86421760" class="fil80" d="M23.7354 9.25512c7.9063,0 14.3197,0.431102 14.3197,0.962598 0,0.532677 -6.41339,0.96378 -14.3197,0.96378 -7.90866,0 -14.3209,-0.431102 -14.3209,-0.96378 0,-0.531496 6.4122,-0.962598 14.3209,-0.962598z"/>
    <path id="_80447800" class="fil81" d="M23.8134 8.52047c7.67126,0 13.8921,0.432283 13.8921,0.96378 0,0.531496 -6.22087,0.962598 -13.8921,0.962598 -7.67244,0 -13.8933,-0.431102 -13.8933,-0.962598 0,-0.531496 6.22087,-0.96378 13.8933,-0.96378z"/>
    <path id="_122881912" class="fil82" d="M23.8925 7.78465c7.43504,0 13.4646,0.431102 13.4646,0.96378 0,0.531496 -6.02953,0.962598 -13.4646,0.962598 -7.43504,0 -13.4657,-0.431102 -13.4657,-0.962598 0,-0.532677 6.03071,-0.96378 13.4657,-0.96378z"/>
    <path id="_45291944" class="fil83" d="M23.9717 7.05118c7.19882,0 13.037,0.429921 13.037,0.962598 0,0.531496 -5.83819,0.962598 -13.037,0.962598 -7.19882,0 -13.0382,-0.431102 -13.0382,-0.962598 0,-0.532677 5.83937,-0.962598 13.0382,-0.962598z"/>
    <path id="_122391384" class="fil84" d="M24.0496 6.31654c6.96378,0 12.6106,0.429921 12.6106,0.962598 0,0.531496 -5.64685,0.962598 -12.6106,0.962598 -6.96142,0 -12.6083,-0.431102 -12.6083,-0.962598 0,-0.532677 5.64685,-0.962598 12.6083,-0.962598z"/>
    <path id="_84396504" class="fil85" d="M24.1287 5.58071c6.72756,0 12.1819,0.431102 12.1819,0.962598 0,0.532677 -5.45433,0.96378 -12.1819,0.96378 -6.72638,0 -12.1819,-0.431102 -12.1819,-0.96378 0,-0.531496 5.45551,-0.962598 12.1819,-0.962598z"/>
    <path id="_79380736" class="fil86" d="M24.2079 4.84606c6.49016,0 11.7543,0.431102 11.7543,0.962598 0,0.532677 -5.26417,0.96378 -11.7543,0.96378 -6.49016,0 -11.7543,-0.431102 -11.7543,-0.96378 0,-0.531496 5.26417,-0.962598 11.7543,-0.962598z"/>
    <path id="_45851136" class="fil87" d="M24.2858 4.11142c6.25512,0 11.3268,0.431102 11.3268,0.962598 0,0.532677 -5.07165,0.96378 -11.3268,0.96378 -6.25276,0 -11.3256,-0.431102 -11.3256,-0.96378 0,-0.531496 5.07283,-0.962598 11.3256,-0.962598z"/>
    <path id="_126039832" class="fil88" d="M24.3661 3.37559c6.01772,0 10.898,0.431102 10.898,0.96378 0,0.531496 -4.88031,0.962598 -10.898,0.962598 -6.0189,0 -10.898,-0.431102 -10.898,-0.962598 0,-0.532677 4.87913,-0.96378 10.898,-0.96378z"/>
   </g>
   <path id="_86487608" class="fil89" d="M24.4441 2.64213c5.78268,0 10.4717,0.431102 10.4717,0.96378 0,0.531496 -4.68898,0.962598 -10.4717,0.962598 -5.7815,0 -10.4705,-0.431102 -10.4705,-0.962598 0,-0.532677 4.68898,-0.96378 10.4705,-0.96378z"/>
  </g>
  <g id="_123997776">
   <path id="_86024952" class="fil90" d="M23.7862 1.50827c2.49685,0 4.52244,2.38228 4.52244,5.32087 0,2.93858 -2.02559,5.32205 -4.52244,5.32205 -2.49803,0 -4.52244,-2.38346 -4.52244,-5.32205 0,-2.93858 2.02441,-5.32087 4.52244,-5.32087z"/>
   <g>
    <path id="_79879608" class="fil91" d="M23.8583 1.62874c2.29488,0 4.15748,2.18386 4.15748,4.87795 0,2.69291 -1.8626,4.87677 -4.15748,4.87677 -2.29606,0 -4.15866,-2.18386 -4.15866,-4.87677 0,-2.69409 1.8626,-4.87795 4.15866,-4.87795z"/>
    <path id="_85350824" class="fil92" d="M23.9303 1.74921c2.09291,0 3.79252,1.98425 3.79252,4.43268 0,2.44843 -1.69961,4.43504 -3.79252,4.43504 -2.09646,0 -3.79488,-1.98661 -3.79488,-4.43504 0,-2.44843 1.69843,-4.43268 3.79488,-4.43268z"/>
    <path id="_80247600" class="fil93" d="M24.0012 1.8685c1.89331,0 3.42992,1.78701 3.42992,3.99094 0,2.20276 -1.53661,3.98976 -3.42992,3.98976 -1.89449,0 -3.4311,-1.78701 -3.4311,-3.98976 0,-2.20394 1.53661,-3.99094 3.4311,-3.99094z"/>
    <path id="_46515448" class="fil94" d="M24.072 1.98898c1.69252,0 3.06614,1.5874 3.06614,3.54685 0,1.95709 -1.37362,3.54685 -3.06614,3.54685 -1.69252,0 -3.06614,-1.58976 -3.06614,-3.54685 0,-1.95945 1.37362,-3.54685 3.06614,-3.54685z"/>
    <path id="_122624784" class="fil95" d="M24.1429 2.10945c1.49173,0 2.70236,1.38898 2.70236,3.10276 0,1.71378 -1.21063,3.10276 -2.70236,3.10276 -1.49055,0 -2.70118,-1.38898 -2.70118,-3.10276 0,-1.71378 1.21063,-3.10276 2.70118,-3.10276z"/>
    <path id="_80181400" class="fil96" d="M24.215 2.22992c1.29094,0 2.3374,1.19055 2.3374,2.65866 0,1.46811 -1.04646,2.65866 -2.3374,2.65866 -1.29094,0 -2.3374,-1.19055 -2.3374,-2.65866 0,-1.46811 1.04646,-2.65866 2.3374,-2.65866z"/>
    <path id="_86167528" class="fil97" d="M24.2858 2.34921c1.09016,0 1.97362,0.992126 1.97362,2.21575 0,1.22362 -0.883465,2.21457 -1.97362,2.21457 -1.08898,0 -1.97362,-0.990945 -1.97362,-2.21457 0,-1.22362 0.884646,-2.21575 1.97362,-2.21575z"/>
    <path id="_82969296" class="fil98" d="M24.3567 2.46969c0.88937,0 1.60984,0.793701 1.60984,1.77165 0,0.977953 -0.720472,1.77165 -1.60984,1.77165 -0.887008,0 -1.60866,-0.793701 -1.60866,-1.77165 0,-0.977953 0.721654,-1.77165 1.60866,-1.77165z"/>
   </g>
   <path id="_45865136" class="fil99" d="M24.4287 2.58898c0.687402,0 1.24488,0.595276 1.24488,1.32874 0,0.733465 -0.55748,1.32874 -1.24488,1.32874 -0.687402,0 -1.24488,-0.595276 -1.24488,-1.32874 0,-0.733465 0.55748,-1.32874 1.24488,-1.32874z"/>
  </g>
  <path class="fil100" d="M40.5803 34.9807c0,0.0944882 -0.0153543,0.186614 -0.0425197,0.274016l0.0425197 0 -0.00354331 0.0767717 0.0366142 0c0,0.0944882 -0.0141732,0.185433 -0.0413386,0.274016l0.0413386 0c0,0.3 -0.146457,0.575197 -0.381496,0.775984l0 0c-0.235039,0.200787 -0.561024,0.325984 -0.917717,0.325984l-30.098 0c-0.356693,0 -0.681496,-0.125197 -0.917717,-0.325984l-0.0011811 0c-0.231496,-0.199606 -0.379134,-0.474803 -0.379134,-0.775984l0.0377953 0c-0.0448819,-0.111024 -0.0685039,-0.229134 -0.0685039,-0.350787l0.0413386 0c-0.0271654,-0.0874016 -0.0413386,-0.179528 -0.0413386,-0.274016l0.488976 0c0,0.191339 0.092126,0.366142 0.237402,0.491339l0.0023622 0.0011811c0.146457,0.124016 0.347244,0.201969 0.569291,0.201969l30.098 0c0.222047,0 0.421654,-0.0779528 0.56811,-0.201969l0.0011811 -0.0011811c0.145276,-0.124016 0.237402,-0.298819 0.237402,-0.491339l0.490157 0z"/>
  <ellipse class="fil101" cx="24.4509" cy="3.20217" rx="1.79844" ry="1.24262"/>
  <path class="fil102" d="M34.2567 0.925984c0.102756,0.023622 0.165354,0.132283 0.165354,0.220866l0 1.59921c0,0.10748 -0.111024,0.198425 -0.243307,0.198425l-21.0543 0c-0.129921,0 -0.242126,-0.0897638 -0.242126,-0.198425l0 -1.63937c0,-0.0413386 0.0165354,-0.0814961 0.0437008,-0.113386l0.879921 -0.685039 19.6441 -0.080315 0.806693 0.698031z"/>
  <rect class="fil103" x="13.1253" y="2.91291" width="21.3989" height="0.917116"/>
  <path class="fil104" d="M34.0606 5.05157l-21.4122 0c-0.0531496,0 -0.154724,-0.00826772 -0.271654,-0.0224409l0 -1.23307 0.366142 0 0 0.10748 21.3177 0 0 1.14803z"/>
  <rect class="fil101" x="13.1253" y="1.00425" width="21.3989" height="0.917116"/>
  <path class="fil104" d="M34.6358 0.876378c0.0850394,0.0531496 0.152362,0.132283 0.201969,0.222047l0.0023622 0.00472441c0.0614173,0.11811 0.0992126,0.261024 0.0992126,0.388583l0 2.01614c0,0.173622 -0.0649606,0.338976 -0.17126,0.457087l0 0c-0.102756,0.116929 -0.431102,0.19252 -0.58937,0.19252l-0.441732 0 0 -1.14803 0.0484252 0 0 -1.51417 -0.0720472 -0.0496063 -0.437008 -0.566929 -19.3677 0.106299 -0.693307 0.50315 0 1.41378 -0.351969 0 0 1.23307c-0.233858,-0.0307087 -0.530315,-0.0897638 -0.601181,-0.170079 -0.103937,-0.116929 -0.170079,-0.279921 -0.170079,-0.457087l0 -2.07047c0,-0.0637795 0.0106299,-0.131102 0.0271654,-0.191339l0.0023622 -0.00708661c0.0188976,-0.0602362 0.0448819,-0.120472 0.0755906,-0.17126l0.0437008 -0.057874 1.33583 -0.943701 0.227953 -0.102756 19.6429 -0.108661 0.142913 0 0.0992126 0.115748 0.946063 0.905906z"/>
 </g>
</svg>
