<?xml version="1.0" encoding="UTF-8" standalone="no"?>
<!-- Created with Inkscape (http://www.inkscape.org/) -->

<svg
   xmlns:dc="http://purl.org/dc/elements/1.1/"
   xmlns:cc="http://creativecommons.org/ns#"
   xmlns:rdf="http://www.w3.org/1999/02/22-rdf-syntax-ns#"
   xmlns:svg="http://www.w3.org/2000/svg"
   xmlns="http://www.w3.org/2000/svg"
   xmlns:sodipodi="http://sodipodi.sourceforge.net/DTD/sodipodi-0.dtd"
   xmlns:inkscape="http://www.inkscape.org/namespaces/inkscape"
   width="48"
   height="48"
   id="svg2"
   version="1.1"
   inkscape:version="0.48.3.1 r9886"
   sodipodi:docname="48.svg">
  <defs
     id="defs4">
    <linearGradient
       gradientTransform="translate(6.751,4.5)"
       y2="0"
       x2="24.749"
       y1="0"
       x1="0"
       gradientUnits="userSpaceOnUse"
       id="LinearGradient_24-99">
      <stop
         id="stop121550"
         stop-color="#2e2c2c"
         offset="0" />
      <stop
         id="stop121552"
         stop-color="#8a8a8a"
         offset="3.80952395498753E-02" />
      <stop
         id="stop121554"
         stop-color="#bdbaba"
         offset="0.512344062328339" />
      <stop
         id="stop121556"
         stop-color="#8a8a8a"
         offset="0.952380955219269" />
      <stop
         id="stop121558"
         stop-color="#2e2c2c"
         offset="1" />
    </linearGradient>
    <linearGradient
       gradientTransform="matrix(-0.6856278,-0.72795228,0.77345857,-0.63731236,22.064,15.801)"
       y2="0"
       x2="10.772"
       y1="0"
       x1="0"
       gradientUnits="userSpaceOnUse"
       id="LinearGradient_23-58">
      <stop
         id="stop121545"
         stop-color="#adfaff"
         offset="0" />
      <stop
         id="stop121547"
         stop-color="#588fcc"
         offset="1" />
    </linearGradient>
    <linearGradient
       gradientTransform="matrix(0.93360482,0.3583044,-0.40228718,0.91672485,12.883,12.066)"
       y2="0"
       x2="8.336"
       y1="0"
       x1="0"
       gradientUnits="userSpaceOnUse"
       id="LinearGradient_22-52">
      <stop
         id="stop121540"
         stop-color="#adfaff"
         offset="0" />
      <stop
         id="stop121542"
         stop-color="#588fcc"
         offset="1" />
    </linearGradient>
    <linearGradient
       gradientTransform="matrix(-0.49053878,0.87141936,-0.8985561,-0.44233163,18.472,6.839)"
       y2="0"
       x2="12.211"
       y1="0"
       x1="0"
       gradientUnits="userSpaceOnUse"
       id="LinearGradient_21-26">
      <stop
         id="stop121535"
         stop-color="#adfaff"
         offset="0" />
      <stop
         id="stop121537"
         stop-color="#588fcc"
         offset="1" />
    </linearGradient>
    <linearGradient
       gradientTransform="matrix(-0.58027661,-0.81441946,0.85019494,-0.53006565,21.664,13.746)"
       y2="0"
       x2="5.5"
       y1="0"
       x1="0"
       gradientUnits="userSpaceOnUse"
       id="LinearGradient_20-80">
      <stop
         id="stop121530"
         stop-color="#adfaff"
         offset="0" />
      <stop
         id="stop121532"
         stop-color="#588fcc"
         offset="1" />
    </linearGradient>
    <linearGradient
       gradientTransform="matrix(0,-1,1,0,16.976,20.287)"
       y2="0"
       x2="13.575"
       y1="0"
       x1="0"
       gradientUnits="userSpaceOnUse"
       id="LinearGradient_19-29">
      <stop
         id="stop121525"
         stop-color="#9dd4ff"
         offset="0" />
      <stop
         id="stop121527"
         stop-color="#588fcc"
         offset="1" />
    </linearGradient>
    <linearGradient
       gradientTransform="translate(7.772,20.254)"
       y2="0"
       x2="22.704"
       y1="0"
       x1="0"
       gradientUnits="userSpaceOnUse"
       id="LinearGradient_18-75">
      <stop
         id="stop121518"
         stop-color="#2f2d2d"
         offset="0" />
      <stop
         id="stop121520"
         stop-color="#ffffff"
         offset="0.496963858604431" />
      <stop
         id="stop121522"
         stop-color="#2f2e2e"
         offset="1" />
    </linearGradient>
    <linearGradient
       gradientTransform="translate(4.499,2.251)"
       y2="0"
       x2="29.252"
       y1="0"
       x1="0"
       gradientUnits="userSpaceOnUse"
       id="LinearGradient_17-54">
      <stop
         id="stop121507"
         stop-color="#2e2c2c"
         offset="0" />
      <stop
         id="stop121509"
         stop-color="#8a8a8a"
         offset="3.80952395498753E-02" />
      <stop
         id="stop121511"
         stop-color="#ffffff"
         offset="0.493790477514267" />
      <stop
         id="stop121513"
         stop-color="#8a8a8a"
         offset="0.952380955219269" />
      <stop
         id="stop121515"
         stop-color="#2e2c2c"
         offset="1" />
    </linearGradient>
    <linearGradient
       gradientTransform="matrix(0,-1,1,0,19.269,20.028)"
       y2="0"
       x2="7.769"
       y1="0"
       x1="0"
       gradientUnits="userSpaceOnUse"
       id="LinearGradient_16-55">
      <stop
         id="stop121502"
         stop-color="#2e2c2c"
         offset="0" />
      <stop
         id="stop121504"
         stop-color="#ffffff"
         offset="1" />
    </linearGradient>
    <linearGradient
       gradientTransform="matrix(0,1,-1,0,18.718,3)"
       y2="0"
       x2="2.001"
       y1="0"
       x1="0"
       gradientUnits="userSpaceOnUse"
       id="LinearGradient_15-04">
      <stop
         id="stop121497"
         stop-color="#8692a0"
         offset="0" />
      <stop
         id="stop121499"
         stop-color="#2e2c2c"
         offset="1" />
    </linearGradient>
    <linearGradient
       gradientTransform="translate(3.458,1.313)"
       y2="0"
       x2="31.333"
       y1="0"
       x1="0"
       gradientUnits="userSpaceOnUse"
       id="LinearGradient_14-47">
      <stop
         id="stop121488"
         stop-color="#959595"
         offset="0" />
      <stop
         id="stop121490"
         stop-color="#1d1d1d"
         offset="3.73831763863564E-02" />
      <stop
         id="stop121492"
         stop-color="#1d1d1d"
         offset="0.943925261497498" />
      <stop
         id="stop121494"
         stop-color="#959595"
         offset="1" />
    </linearGradient>
    <linearGradient
       gradientTransform="translate(6.374,16.688)"
       y2="-1.407"
       x2="0"
       y1="0"
       x1="0"
       gradientUnits="userSpaceOnUse"
       id="LinearGradient_13-91">
      <stop
         id="stop121483"
         stop-color="#bfe8ff"
         offset="0" />
      <stop
         id="stop121485"
         stop-color="#90aaf0"
         offset="1" />
    </linearGradient>
    <linearGradient
       gradientTransform="translate(6.374,14.562)"
       y2="3.125"
       x2="0"
       y1="0"
       x1="0"
       gradientUnits="userSpaceOnUse"
       id="LinearGradient_12-88">
      <stop
         id="stop121478"
         stop-color="#6e78db"
         offset="0" />
      <stop
         id="stop121480"
         stop-color="#7e87e6"
         offset="1" />
    </linearGradient>
    <linearGradient
       gradientTransform="matrix(-0.66192696,-0.74956834,0.75115238,-0.66013319,22.037,29.119)"
       y2="0"
       x2="16.122"
       y1="0"
       x1="0"
       gradientUnits="userSpaceOnUse"
       id="LinearGradient_11-556">
      <stop
         id="stop121473"
         stop-color="#adfaff"
         offset="0" />
      <stop
         id="stop121475"
         stop-color="#8ca0ee"
         offset="1" />
    </linearGradient>
    <linearGradient
       gradientTransform="matrix(0.92548564,0.37878269,-0.38050933,0.92477896,8.77,23.363)"
       y2="0"
       x2="12.154"
       y1="0"
       x1="0"
       gradientUnits="userSpaceOnUse"
       id="LinearGradient_10-16">
      <stop
         id="stop121468"
         stop-color="#adfaff"
         offset="0" />
      <stop
         id="stop121470"
         stop-color="#7b94e3"
         offset="1" />
    </linearGradient>
    <linearGradient
       gradientTransform="matrix(-0.46669539,0.88441812,-0.88539971,-0.46483521,16.847,15.308)"
       y2="0"
       x2="18.543"
       y1="0"
       x1="0"
       gradientUnits="userSpaceOnUse"
       id="LinearGradient_9-6633">
      <stop
         id="stop121463"
         stop-color="#adfaff"
         offset="0" />
      <stop
         id="stop121465"
         stop-color="#868fea"
         offset="1" />
    </linearGradient>
    <linearGradient
       gradientTransform="matrix(-0.55564279,-0.83142113,0.83275664,-0.55364443,21.461,25.953)"
       y2="0"
       x2="8.303"
       y1="0"
       x1="0"
       gradientUnits="userSpaceOnUse"
       id="LinearGradient_8-16">
      <stop
         id="stop121458"
         stop-color="#adfaff"
         offset="0" />
      <stop
         id="stop121460"
         stop-color="#8492e9"
         offset="1" />
    </linearGradient>
    <linearGradient
       gradientTransform="matrix(0,-1,1,0,18.576,33.434)"
       y2="0"
       x2="21.866"
       y1="0"
       x1="0"
       gradientUnits="userSpaceOnUse"
       id="LinearGradient_7-246">
      <stop
         id="stop121451"
         stop-color="#bdbcfd"
         offset="0" />
      <stop
         id="stop121453"
         stop-color="#9cd3fe"
         offset="0.502222239971161" />
      <stop
         id="stop121455"
         stop-color="#817ee7"
         offset="1" />
    </linearGradient>
    <linearGradient
       gradientTransform="translate(14.25,34.5)"
       y2="-1.5"
       x2="0"
       y1="0"
       x1="0"
       gradientUnits="userSpaceOnUse"
       id="LinearGradient_6-447">
      <stop
         id="stop121446"
         stop-color="#fcfcfc"
         offset="0" />
      <stop
         id="stop121448"
         stop-color="#d6d6d6"
         offset="1" />
    </linearGradient>
    <linearGradient
       gradientTransform="translate(20.25,12)"
       y2="0.75"
       x2="0"
       y1="0"
       x1="0"
       gradientUnits="userSpaceOnUse"
       id="LinearGradient_5-630">
      <stop
         id="stop121441"
         stop-color="#ffffff"
         offset="0" />
      <stop
         id="stop121443"
         stop-color="#b2b2b2"
         offset="1" />
    </linearGradient>
    <linearGradient
       gradientTransform="matrix(0,-1,1,0,14.441,34.791)"
       y2="0"
       x2="23.832"
       y1="0"
       x1="0"
       gradientUnits="userSpaceOnUse"
       id="LinearGradient_4-251">
      <stop
         id="stop121436"
         stop-color="#c9c9c9"
         offset="0" />
      <stop
         id="stop121438"
         stop-color="#b0b0b0"
         offset="1" />
    </linearGradient>
    <linearGradient
       gradientTransform="matrix(0,-1,1,0,14.344,35.762)"
       y2="0"
       x2="25.773"
       y1="0"
       x1="0"
       gradientUnits="userSpaceOnUse"
       id="LinearGradient_3-85">
      <stop
         id="stop121431"
         stop-color="#878b8e"
         offset="0" />
      <stop
         id="stop121433"
         stop-color="#818689"
         offset="1" />
    </linearGradient>
    <linearGradient
       gradientTransform="matrix(-1,0,0,-1,35.372,5.44)"
       y2="0"
       x2="35.159"
       y1="0"
       x1="0"
       gradientUnits="userSpaceOnUse"
       id="LinearGradient_2-64">
      <stop
         id="stop121422"
         stop-color="#c0c0c0"
         offset="0" />
      <stop
         id="stop121424"
         stop-color="#efefef"
         offset="5.88235296308994E-02" />
      <stop
         id="stop121426"
         stop-color="#efefef"
         offset="0.939999997615814" />
      <stop
         id="stop121428"
         stop-color="#c0c0c0"
         offset="1" />
    </linearGradient>
    <linearGradient
       gradientTransform="translate(20.25,9)"
       y2="-2.25"
       x2="0"
       y1="0"
       x1="0"
       gradientUnits="userSpaceOnUse"
       id="LinearGradient_1-434">
      <stop
         id="stop121415"
         stop-color="#ffffff"
         offset="0" />
      <stop
         id="stop121417"
         stop-color="#a2a2a2"
         offset="0.424888879060745" />
      <stop
         id="stop121419"
         stop-color="#e5e5e5"
         offset="1" />
    </linearGradient>
    <linearGradient
       gradientTransform="matrix(0,-1,1,0,33.733,9.854)"
       y2="0"
       x2="5.018"
       y1="0"
       x1="0"
       gradientUnits="userSpaceOnUse"
       id="LinearGradient-1738">
      <stop
         id="stop121408"
         stop-color="#494848"
         offset="0" />
      <stop
         id="stop121410"
         stop-color="#818284"
         offset="0.490416675806046" />
      <stop
         id="stop121412"
         stop-color="#818284"
         offset="1" />
    </linearGradient>
  </defs>
  <sodipodi:namedview
     id="base"
     pagecolor="#ffffff"
     bordercolor="#666666"
     borderopacity="1.0"
     inkscape:pageopacity="0.0"
     inkscape:pageshadow="2"
     inkscape:zoom="5.496732"
     inkscape:cx="35.37931"
     inkscape:cy="35.068966"
     inkscape:document-units="px"
     inkscape:current-layer="layer1"
     showgrid="false"
     inkscape:snap-page="true"
     inkscape:snap-grids="false"
     inkscape:snap-to-guides="false"
     inkscape:window-width="901"
     inkscape:window-height="665"
     inkscape:window-x="520"
     inkscape:window-y="200"
     inkscape:window-maximized="0">
    <inkscape:grid
       type="xygrid"
       id="grid11920"
       empspacing="5"
       visible="true"
       enabled="true"
       snapvisiblegridlinesonly="true" />
  </sodipodi:namedview>
  <metadata
     id="metadata7">
    <rdf:RDF>
      <cc:Work
         rdf:about="">
        <dc:format>image/svg+xml</dc:format>
        <dc:type
           rdf:resource="http://purl.org/dc/dcmitype/StillImage" />
        <dc:title />
      </cc:Work>
    </rdf:RDF>
  </metadata>
  <g
     inkscape:label="Layer 1"
     inkscape:groupmode="layer"
     id="layer1"
     transform="translate(0,-1004.3622)">
    <g
       style="fill-rule:evenodd;stroke-width:0.50099999;stroke-linejoin:bevel;overflow:visible"
       id="g121798"
       transform="matrix(1.3333704,0,0,1.3333333,0,1004.3622)">
      <g
         transform="scale(1,-1)"
         font-size="16"
         id="Document"
         style="font-size:16px;fill:none;stroke:#000000;font-family:Times New Roman">
        <g
           transform="translate(0,-36)"
           id="Spread">
          <g
             id="MouseOff">
            <g
               id="Group"
               style="stroke:none">
              <g
                 id="Group_1">
                <path
                   id="path121565"
                   d="m 0.75,4.501 0,0 C 0.75,4.086 1.076,3.75 1.479,3.75 l 33.043,0 c 0.403,0 0.728,0.336 0.728,0.751 l 0,0 c 0,0.414 -0.325,0.749 -0.728,0.749 l -33.043,0 C 1.076,5.25 0.75,4.915 0.75,4.501 z"
                   inkscape:connector-curvature="0"
                   style="fill:#a6a6a6;fill-opacity:0.45490202;marker-start:none;marker-end:none" />
                <path
                   style="fill:url(#LinearGradient-1738);marker-start:none;marker-end:none"
                   id="path121567"
                   d="m 2.088,6.857 c 1.028,0 3.088,0.59 4.116,1.769 0.514,0.588 0.942,2.855 1.029,4.124 l 10.216,-0.103 0,-0.011 11.318,0.114 c 0.087,-1.269 0.515,-3.536 1.029,-4.124 1.029,-1.179 3.087,-1.769 4.116,-1.769 0.684,0 0.877,-2.386 0,-2.357 l -16.46,0 -15.364,0 c -0.878,-0.029 -0.684,2.357 0,2.357 z"
                   inkscape:connector-curvature="0" />
                <path
                   style="fill:url(#LinearGradient_1-434);marker-start:none;marker-end:none"
                   id="path121569"
                   d="M 2.288,5.25 2.261,5.355 C 2.241,5.547 2.256,5.807 2.3,6 l 0.046,0.122 0.231,0.015 c 1.244,0.14 3.131,0.778 4.191,1.995 0.538,0.615 0.906,2.218 1.09,3.474 l 0.05,0.386 9.54,-0.102 10.642,0.103 0.05,-0.384 c 0.183,-1.255 0.551,-2.86 1.091,-3.477 1.06,-1.216 2.945,-1.855 4.19,-1.995 L 33.652,6.122 33.697,6.004 C 33.741,5.811 33.758,5.552 33.738,5.359 L 33.71,5.25 2.288,5.25 z"
                   inkscape:connector-curvature="0" />
                <path
                   style="fill:url(#LinearGradient_2-64);marker-start:none;marker-end:none"
                   id="path121571"
                   d="m 2.249,6 0,-0.749 31.501,0 0,0.749 -31.501,0 z"
                   inkscape:connector-curvature="0" />
                <path
                   id="path121573"
                   d="m 2.25,6.376 0,-0.001 c 0,-0.206 0.196,-0.374 0.437,-0.374 l 30.627,0 c 0.241,0 0.437,0.168 0.437,0.374 l 0,0.001 c 0,0.206 -0.196,0.374 -0.437,0.374 l -30.627,0 C 2.446,6.75 2.25,6.582 2.25,6.376 z"
                   inkscape:connector-curvature="0"
                   style="fill:#8b8b8b;marker-start:none;marker-end:none" />
                <g
                   id="Group_2">
                  <g
                     id="Group_3">
                    <path
                       style="fill:url(#LinearGradient_3-85);stroke-width:0.122;marker-start:none;marker-end:none"
                       id="path121577"
                       stroke-miterlimit="79.8403193612775"
                       d="M 0,33.883 0,11.866 C 0,10.698 0.949,9.749 2.117,9.749 l 31.765,0 c 1.168,0 2.117,0.949 2.117,2.117 l 0,22.017 C 35.999,35.051 35.05,36 33.882,36 L 2.117,36 C 0.949,36 0,35.051 0,33.883 z"
                       inkscape:connector-curvature="0" />
                    <path
                       style="fill:url(#LinearGradient_4-251);stroke-width:0.122;marker-start:none;marker-end:none"
                       id="path121579"
                       stroke-miterlimit="79.8403193612775"
                       d="m 0.749,33.688 0,-21.627 c 0,-0.862 0.7,-1.562 1.562,-1.562 l 31.377,0 c 0.862,0 1.562,0.7 1.562,1.562 l 0,21.627 c 0,0.862 -0.7,1.562 -1.562,1.562 l -31.377,0 c -0.862,0 -1.562,-0.7 -1.562,-1.562 z"
                       inkscape:connector-curvature="0" />
                    <path
                       id="path121581"
                       stroke-miterlimit="79.8403193612775"
                       d="m 0.75,22.889 0,10.201 c 0,0.453 1.076,1.41 1.407,1.41 l 31.687,0 c 0.329,0 1.406,-0.956 1.406,-1.41 l 0,-10.201 C 31.24,20.369 25.001,18.751 18,18.751 c -7.002,0 -13.24,1.619 -17.25,4.138 z"
                       inkscape:connector-curvature="0"
                       style="fill:#ffffff;fill-opacity:0.164706;stroke-width:0.051;marker-start:none;marker-end:none" />
                    <path
                       style="fill:url(#LinearGradient_5-630);stroke-width:0.122;marker-start:none;marker-end:none"
                       id="path121583"
                       stroke-miterlimit="79.8403193612775"
                       d="m 2.251,13.875 0,-10e-4 c 0,-1.035 0.884,-1.875 1.973,-1.875 l 27.553,0 c 1.089,0 1.973,0.84 1.973,1.875 l 0,10e-4 c 0,1.035 -0.884,1.875 -1.973,1.875 l -27.553,0 c -1.089,0 -1.973,-0.84 -1.973,-1.875 z"
                       inkscape:connector-curvature="0" />
                    <path
                       id="path121585"
                       stroke-miterlimit="79.8403193612775"
                       d="m 2.251,30.674 0,-16.349 c 0,-0.869 0.707,-1.576 1.576,-1.576 l 28.347,0 c 0.869,0 1.576,0.707 1.576,1.576 l 0,16.349 c 0,0.869 -0.707,1.576 -1.576,1.576 l -28.347,0 c -0.869,0 -1.576,-0.707 -1.576,-1.576 z"
                       inkscape:connector-curvature="0"
                       style="fill:#7f7f7f;stroke-width:0.122;marker-start:none;marker-end:none" />
                    <path
                       id="path121587"
                       stroke-miterlimit="79.8403193612775"
                       d="m 3.001,31.056 0,-17.111 c 0,-0.659 0.535,-1.194 1.194,-1.194 l 27.611,0 c 0.659,0 1.194,0.535 1.194,1.194 l 0,17.111 c 0,0.659 -0.535,1.194 -1.194,1.194 l -27.611,0 c -0.659,0 -1.194,-0.535 -1.194,-1.194 z"
                       inkscape:connector-curvature="0"
                       style="fill:#1d1d1d;stroke-width:0.122;marker-start:none;marker-end:none" />
                    <path
                       style="fill:url(#LinearGradient_6-447);stroke-width:0.122;marker-start:none;marker-end:none"
                       id="path121589"
                       stroke-miterlimit="79.8403193612775"
                       d="m 2.311,34.5 31.377,0 c 0.841,0 1.528,-0.668 1.56,-1.501 l -0.751,0 c -0.031,0.418 -0.383,0.751 -0.809,0.751 l -31.377,0 c -0.428,0 -0.779,-0.333 -0.81,-0.751 l -0.751,0 C 0.782,33.832 1.469,34.5 2.311,34.5 z"
                       inkscape:connector-curvature="0" />
                  </g>
                  <g
                     stroke-miterlimit="79.8403193612775"
                     id="Group_4">
                    <path
                       style="fill:url(#LinearGradient_7-246);marker-start:none;marker-end:none"
                       id="path121592"
                       d="m 3.752,14.276 0,16.448 c 0,0.427 0.334,0.776 0.744,0.776 l 27.009,0 c 0.41,0 0.744,-0.349 0.744,-0.776 l 0,-16.448 c 0,-0.427 -0.334,-0.776 -0.744,-0.776 l -27.009,0 c -0.41,0 -0.744,0.349 -0.744,0.776 z"
                       inkscape:connector-curvature="0" />
                    <g
                       id="Group_5">
                      <g
                         id="Group_6">
                        <path
                           style="fill:url(#LinearGradient_8-16);fill-opacity:0.34509798;marker-start:none;marker-end:none"
                           id="path121596"
                           d="m 3.752,14.276 0,16.448 c 0,0.107 0.021,0.209 0.059,0.303 3.685,-0.622 6.809,-2.41 10.523,-3.95 6.531,-2.715 11.632,-7.337 17.914,-9.586 l 0.001,-3.215 c 0,-0.427 -0.334,-0.776 -0.744,-0.776 l -27.009,0 c -0.41,0 -0.744,0.349 -0.744,0.776 z"
                           inkscape:connector-curvature="0" />
                        <path
                           style="fill:url(#LinearGradient_9-6633);fill-opacity:0.69019596;marker-start:none;marker-end:none"
                           id="path121598"
                           d="m 3.751,17.358 10e-4,13.366 c 0,0.427 0.334,0.776 0.744,0.776 l 27.009,0 c 0.41,0 0.744,-0.349 0.744,-0.776 l 0,-1.584 C 27.393,22.825 14.978,22.478 3.751,17.358 z"
                           inkscape:connector-curvature="0" />
                        <path
                           style="fill:url(#LinearGradient_10-16);fill-opacity:0.54509798;marker-start:none;marker-end:none"
                           id="path121600"
                           d="m 3.752,25.77 0,4.954 c 0,0.427 0.334,0.776 0.744,0.776 l 27.009,0 c 0.41,0 0.744,-0.349 0.744,-0.776 L 32.248,16.915 C 17.134,17.675 19.677,25.606 3.752,25.77 z"
                           inkscape:connector-curvature="0" />
                        <path
                           style="fill:url(#LinearGradient_11-556);fill-opacity:0.38039198;marker-start:none;marker-end:none"
                           id="path121602"
                           d="M 3.752,14.276 3.751,30.254 C 9.632,26.607 17.09,17.417 26.235,13.5 l -21.739,0 c -0.41,0 -0.744,0.349 -0.744,0.776 z"
                           inkscape:connector-curvature="0" />
                      </g>
                    </g>
                  </g>
                  <g
                     id="Group_7">
                    <path
                       style="fill:url(#LinearGradient_12-88);stroke-width:0.095;marker-start:none;marker-end:none"
                       id="path121605"
                       stroke-miterlimit="79.8403193612775"
                       d="m 6.374,17.999 c 1.035,0 1.875,-0.84 1.875,-1.875 0,-1.035 -0.84,-1.875 -1.875,-1.875 -1.035,0 -1.875,0.84 -1.875,1.875 0,1.035 0.84,1.875 1.875,1.875 z"
                       inkscape:connector-curvature="0" />
                    <path
                       style="fill:url(#LinearGradient_13-91);stroke-width:0.063;marker-start:none;marker-end:none"
                       id="path121607"
                       stroke-miterlimit="79.8403193612775"
                       d="m 6.375,17.25 c 0.621,0 1.125,-0.505 1.125,-1.126 0,-0.621 -0.504,-1.126 -1.125,-1.126 -0.621,0 -1.125,0.505 -1.125,1.126 0,0.621 0.504,1.126 1.125,1.126 z"
                       inkscape:connector-curvature="0" />
                    <path
                       id="path121609"
                       stroke-miterlimit="79.8403193612775"
                       d="m 6.375,16.929 c 0.443,0 0.803,-0.24 0.803,-0.536 0,-0.296 -0.36,-0.536 -0.803,-0.536 -0.443,0 -0.803,0.24 -0.803,0.536 0,0.296 0.36,0.536 0.803,0.536 z"
                       inkscape:connector-curvature="0"
                       style="fill:#ffffff;fill-opacity:0.52548996;stroke-width:0.063;marker-start:none;marker-end:none" />
                  </g>
                </g>
              </g>
              <g
                 id="Group_8">
                <path
                   id="path121612"
                   d="m 3,0.751 0,0 C 3,0.336 3.305,0 3.681,0 l 30.888,0 c 0.377,0 0.681,0.336 0.681,0.751 l 0,0 C 35.25,1.165 34.946,1.5 34.569,1.5 L 3.681,1.5 C 3.305,1.5 3,1.165 3,0.751 z"
                   inkscape:connector-curvature="0"
                   style="fill:#a6a6a6;fill-opacity:0.45490202;marker-start:none;marker-end:none" />
                <path
                   style="fill:url(#LinearGradient_14-47);stroke-width:0.28099999;marker-start:none;marker-end:none"
                   id="path121614"
                   stroke-miterlimit="79.8403193612775"
                   d="m 3.75,2.39 0,-1.031 C 3.75,1.023 4.023,0.75 4.359,0.75 l 29.533,0 c 0.336,0 0.609,0.273 0.609,0.609 l 0,1.031 c 0,0.336 -0.273,0.609 -0.609,0.609 l -29.533,0 C 4.023,2.999 3.75,2.726 3.75,2.39 z"
                   inkscape:connector-curvature="0" />
                <path
                   id="path121616"
                   stroke-miterlimit="79.8403193612775"
                   d="m 6,13.5 0,9.274 c 0,0.262 0.224,0.476 0.498,0.476 l 23.754,0 c 0.274,0 0.498,-0.214 0.498,-0.476 l 0,-9.274 -24.75,0 z"
                   inkscape:connector-curvature="0"
                   style="fill:#1d1d1d;fill-opacity:0.2;stroke-width:0.28099999;marker-start:none;marker-end:none" />
                <path
                   id="path121618"
                   stroke-miterlimit="79.8403193612775"
                   d="m 6.749,21.214 0,-15.429 C 6.749,5.49 6.99,5.249 7.285,5.249 l 23.679,0 c 0.295,0 0.536,0.241 0.536,0.536 l 0,15.429 c 0,0.295 -0.241,0.536 -0.536,0.536 l -23.679,0 c -0.295,0 -0.536,-0.241 -0.536,-0.536 z"
                   inkscape:connector-curvature="0"
                   style="fill:#1d1d1d;stroke-width:0.28099999;marker-start:none;marker-end:none" />
                <path
                   id="path121620"
                   stroke-miterlimit="79.8403193612775"
                   d="M 7.5,20.663 7.5,6.336 C 7.5,6.15 7.651,5.999 7.837,5.999 l 22.575,0 c 0.186,0 0.337,0.151 0.337,0.337 l 0,14.327 C 30.749,20.849 30.598,21 30.412,21 L 7.837,21 C 7.651,21 7.5,20.849 7.5,20.663 z"
                   inkscape:connector-curvature="0"
                   style="fill:#2e2c2c;stroke-width:0.28099999;marker-start:none;marker-end:none" />
                <path
                   id="path121622"
                   stroke-miterlimit="79.8403193612775"
                   d="M 6.219,5.561 4.018,3.082 C 3.71,2.74 3.655,2.437 3.92,2.437 l 30.411,0 c 0.265,0 0.209,0.303 -0.097,0.645 L 32.032,5.561 C 31.808,5.812 31.471,6 31.262,6 L 6.989,6 C 6.781,6 6.443,5.812 6.219,5.561 z"
                   inkscape:connector-curvature="0"
                   style="fill:#1d1d1d;stroke-width:0.28099999;marker-start:none;marker-end:none" />
                <path
                   style="fill:url(#LinearGradient_15-04);stroke-width:0.28099999;marker-start:none;marker-end:none"
                   id="path121624"
                   stroke-miterlimit="79.8403193612775"
                   d="m 5.25,3 1.5,2.25 24.75,0 L 33,3 5.25,3 z"
                   inkscape:connector-curvature="0" />
                <path
                   style="fill:url(#LinearGradient_16-55);fill-opacity:0.12549002;stroke-width:0.28099999;marker-start:none;marker-end:none"
                   id="path121626"
                   stroke-miterlimit="79.8403193612775"
                   d="m 7.5,13.005 0,6.213 C 7.501,19.374 7.65,19.5 7.831,19.5 l 22.588,0 c 0.181,0 0.33,-0.126 0.331,-0.282 l 0,-6.213 C 27.395,12.368 23.405,12 19.126,12 14.846,12 10.854,12.368 7.5,13.005 z"
                   inkscape:connector-curvature="0" />
                <path
                   id="path121628"
                   stroke-miterlimit="79.8403193612775"
                   d="m 8.249,19.714 0,-12.427 c 0,-0.295 0.241,-0.536 0.536,-0.536 l 20.679,0 C 29.759,6.751 30,6.992 30,7.287 l 0,12.427 c 0,0.295 -0.241,0.536 -0.536,0.536 l -20.679,0 c -0.295,0 -0.536,-0.241 -0.536,-0.536 z"
                   inkscape:connector-curvature="0"
                   style="fill:#1d1d1d;stroke-width:0.28099999;marker-start:none;marker-end:none" />
                <path
                   style="fill:url(#LinearGradient_17-54);stroke-width:0.28099999;marker-start:none;marker-end:none"
                   id="path121630"
                   stroke-miterlimit="79.8403193612775"
                   d="M 4.5,2.921 4.5,2.33 C 4.5,2.287 4.536,2.251 4.579,2.251 l 29.093,0 c 0.043,0 0.079,0.036 0.079,0.079 l 0,0.591 C 33.751,2.964 33.715,3 33.672,3 L 4.579,3 C 4.536,3 4.5,2.964 4.5,2.921 z"
                   inkscape:connector-curvature="0" />
                <path
                   style="fill:url(#LinearGradient_18-75);fill-opacity:0.67450998;stroke-width:0.28099999;marker-start:none;marker-end:none"
                   id="path121632"
                   stroke-miterlimit="79.8403193612775"
                   d="m 7.5,20.626 0,-0.001 c 0,-0.206 0.216,-0.374 0.48,-0.374 l 22.289,0 c 0.264,0 0.48,0.168 0.48,0.374 l 0,0.001 c 0,0.206 -0.216,0.374 -0.48,0.374 L 7.98,21 C 7.716,21 7.5,20.832 7.5,20.626 z"
                   inkscape:connector-curvature="0" />
                <path
                   id="path121634"
                   stroke-miterlimit="79.8403193612775"
                   d="m 7.5,6.395 0,-0.039 C 7.5,6.161 7.66,6.001 7.855,6.001 l 22.539,0 c 0.195,0 0.355,0.16 0.355,0.355 l 0,0.039 c 0,0.195 -0.16,0.355 -0.355,0.355 l -22.539,0 C 7.66,6.75 7.5,6.59 7.5,6.395 z"
                   inkscape:connector-curvature="0"
                   style="fill:#434343;stroke-width:0.28099999;marker-start:none;marker-end:none" />
                <g
                   id="Group_9">
                  <g
                     id="Group_10">
                    <path
                       style="fill:url(#LinearGradient_19-29);stroke-width:0.28099999;marker-start:none;marker-end:none"
                       id="path121638"
                       stroke-miterlimit="79.8403193612775"
                       d="M 9,7.95 9,19.049 C 9,19.297 9.209,19.5 9.465,19.5 l 19.322,0 c 0.257,0 0.464,-0.203 0.464,-0.451 l 0,-11.099 C 29.251,7.702 29.044,7.5 28.787,7.5 L 9.465,7.5 C 9.209,7.5 9,7.702 9,7.95 z"
                       inkscape:connector-curvature="0" />
                    <g
                       stroke-miterlimit="79.8403193612775"
                       id="Group_11">
                      <path
                         style="fill:url(#LinearGradient_20-80);fill-opacity:0.34509798;marker-start:none;marker-end:none"
                         id="path121641"
                         d="m 9,7.95 0,9.153 c 2.751,-0.332 5.011,-1.569 7.733,-2.628 4.562,-1.778 8.115,-3.872 12.518,-5.16 l 0,-1.365 C 29.251,7.702 29.044,7.5 28.787,7.5 L 9.465,7.5 C 9.209,7.5 9,7.702 9,7.95 z"
                         inkscape:connector-curvature="0" />
                      <path
                         style="fill:url(#LinearGradient_21-26);fill-opacity:0.69019596;marker-start:none;marker-end:none"
                         id="path121643"
                         d="m 9,9.107 0,9.942 C 9,19.297 9.209,19.5 9.465,19.5 l 19.322,0 c 0.257,0 0.464,-0.203 0.464,-0.451 l 0,-3.032 C 25.922,11.914 16.968,12.584 9,9.107 z"
                         inkscape:connector-curvature="0" />
                      <path
                         style="fill:url(#LinearGradient_22-52);fill-opacity:0.54509798;marker-start:none;marker-end:none"
                         id="path121645"
                         d="m 9,13.632 0,5.417 C 9,19.297 9.209,19.5 9.465,19.5 l 19.322,0 c 0.257,0 0.464,-0.203 0.464,-0.451 l 0,-10.056 C 18.529,9.387 20.52,13.699 9,13.632 z"
                         inkscape:connector-curvature="0" />
                      <path
                         style="fill:url(#LinearGradient_23-58);fill-opacity:0.38039198;marker-start:none;marker-end:none"
                         id="path121647"
                         d="m 9,7.95 0,8.823 C 12.71,14.891 17.357,10.16 23.002,7.5 L 9.465,7.5 C 9.209,7.5 9,7.702 9,7.95 z"
                         inkscape:connector-curvature="0" />
                    </g>
                  </g>
                  <path
                     id="path121649"
                     stroke-miterlimit="79.8403193612775"
                     d="m 9,14.33 0,4.719 C 9,19.297 9.209,19.5 9.465,19.5 l 19.322,0 c 0.257,0 0.464,-0.203 0.464,-0.451 l 0,-4.766 C 26.274,13.782 22.875,13.5 19.267,13.5 15.544,13.5 12.043,13.801 9,14.33 z"
                     inkscape:connector-curvature="0"
                     style="fill:#ffffff;fill-opacity:0.12549002;stroke-width:0.28099999;marker-start:none;marker-end:none" />
                </g>
                <path
                   style="fill:url(#LinearGradient_24-99);stroke-width:0.28099999;marker-start:none;marker-end:none"
                   id="path121651"
                   stroke-miterlimit="79.8403193612775"
                   d="m 6.751,5.172 0,-0.593 C 6.751,4.536 6.787,4.5 6.83,4.5 l 24.591,0 c 0.043,0 0.079,0.036 0.079,0.079 l 0,0.593 c 0,0.043 -0.036,0.079 -0.079,0.079 l -24.591,0 C 6.787,5.251 6.751,5.215 6.751,5.172 z"
                   inkscape:connector-curvature="0" />
                <path
                   id="path121653"
                   stroke-miterlimit="79.8403193612775"
                   d="M 17.25,3.75 16.5,3 l 6,0 -0.75,0.75 -4.5,0 z"
                   inkscape:connector-curvature="0"
                   style="fill:#191919;fill-opacity:0.74509798;stroke-width:0.28099999;marker-start:none;marker-end:none" />
                <path
                   id="path121655"
                   stroke-miterlimit="79.8403193612775"
                   d="M 9,7.915 9,7.836 C 9,7.652 9.151,7.501 9.335,7.501 l 19.581,0 c 0.184,0 0.335,0.151 0.335,0.335 l 0,0.079 c 0,0.184 -0.151,0.335 -0.335,0.335 l -19.581,0 C 9.151,8.25 9,8.099 9,7.915 z"
                   inkscape:connector-curvature="0"
                   style="fill:#81b6e9;stroke-width:0.28099999;marker-start:none;marker-end:none" />
                <path
                   id="path121657"
                   stroke-miterlimit="79.8403193612775"
                   d="M 6,4.299 6,3.95 C 6,3.84 6.12,3.75 6.267,3.75 l 25.714,0 c 0.148,0 0.269,0.09 0.269,0.2 l 0,0.349 C 32.25,4.41 32.129,4.5 31.981,4.5 L 6.267,4.5 C 6.12,4.5 6,4.41 6,4.299 z"
                   inkscape:connector-curvature="0"
                   style="fill:#1d1d1d;stroke-width:0.28099999;marker-start:none;marker-end:none" />
                <path
                   id="path121659"
                   stroke-miterlimit="79.8403193612775"
                   d="m 4.499,1.421 0,-0.591 c 0,-0.043 0.036,-0.079 0.079,-0.079 l 29.093,0 c 0.043,0 0.079,0.036 0.079,0.079 l 0,0.591 C 33.75,1.464 33.714,1.5 33.671,1.5 L 4.578,1.5 C 4.535,1.5 4.499,1.464 4.499,1.421 z"
                   inkscape:connector-curvature="0"
                   style="fill:#3e3e3e;stroke-width:0.28099999;marker-start:none;marker-end:none" />
              </g>
            </g>
          </g>
        </g>
      </g>
    </g>
  </g>
</svg>
