<?xml version="1.0" encoding="UTF-8" standalone="no"?>
<!-- Created with Inkscape (http://www.inkscape.org/) -->

<svg
   xmlns:dc="http://purl.org/dc/elements/1.1/"
   xmlns:cc="http://creativecommons.org/ns#"
   xmlns:rdf="http://www.w3.org/1999/02/22-rdf-syntax-ns#"
   xmlns:svg="http://www.w3.org/2000/svg"
   xmlns="http://www.w3.org/2000/svg"
   xmlns:sodipodi="http://sodipodi.sourceforge.net/DTD/sodipodi-0.dtd"
   xmlns:inkscape="http://www.inkscape.org/namespaces/inkscape"
   width="48"
   height="48"
   id="svg2"
   version="1.1"
   inkscape:version="0.48.3.1 r9886"
   sodipodi:docname="48.svg">
  <defs
     id="defs4">
    <linearGradient
       gradientTransform="translate(24.264,14.072)"
       y2="5.515"
       x2="0.275"
       y1="0"
       x1="0"
       gradientUnits="userSpaceOnUse"
       id="LinearGradient_4-55">
      <stop
         id="stop23921"
         stop-color="#dfdfdf"
         offset="0" />
      <stop
         id="stop23923"
         stop-color="#ffffff"
         offset="1" />
    </linearGradient>
    <linearGradient
       gradientTransform="translate(14.25,34.5)"
       y2="-1.5"
       x2="0"
       y1="0"
       x1="0"
       gradientUnits="userSpaceOnUse"
       id="LinearGradient_3-72">
      <stop
         id="stop23916"
         stop-color="#fcfcfc"
         offset="0" />
      <stop
         id="stop23918"
         stop-color="#d6d6d6"
         offset="1" />
    </linearGradient>
    <linearGradient
       gradientTransform="translate(20.25,7.5)"
       y2="0.75"
       x2="0"
       y1="0"
       x1="0"
       gradientUnits="userSpaceOnUse"
       id="LinearGradient_2-00">
      <stop
         id="stop23911"
         stop-color="#ffffff"
         offset="0" />
      <stop
         id="stop23913"
         stop-color="#b2b2b2"
         offset="1" />
    </linearGradient>
    <linearGradient
       gradientTransform="matrix(0,-1,1,0,14.441,34.708)"
       y2="0"
       x2="28.166"
       y1="0"
       x1="0"
       gradientUnits="userSpaceOnUse"
       id="LinearGradient_1-90">
      <stop
         id="stop23906"
         stop-color="#c9c9c9"
         offset="0" />
      <stop
         id="stop23908"
         stop-color="#b0b0b0"
         offset="1" />
    </linearGradient>
    <linearGradient
       gradientTransform="matrix(0,-1,1,0,14.344,35.721)"
       y2="0"
       x2="30.192"
       y1="0"
       x1="0"
       gradientUnits="userSpaceOnUse"
       id="LinearGradient-8">
      <stop
         id="stop23901"
         stop-color="#878b8e"
         offset="0" />
      <stop
         id="stop23903"
         stop-color="#818689"
         offset="1" />
    </linearGradient>
  </defs>
  <sodipodi:namedview
     id="base"
     pagecolor="#ffffff"
     bordercolor="#666666"
     borderopacity="1.0"
     inkscape:pageopacity="0.0"
     inkscape:pageshadow="2"
     inkscape:zoom="7.9094203"
     inkscape:cx="24.711864"
     inkscape:cy="23.491525"
     inkscape:document-units="px"
     inkscape:current-layer="layer1"
     showgrid="false"
     inkscape:window-width="909"
     inkscape:window-height="633"
     inkscape:window-x="500"
     inkscape:window-y="212"
     inkscape:window-maximized="0" />
  <metadata
     id="metadata7">
    <rdf:RDF>
      <cc:Work
         rdf:about="">
        <dc:format>image/svg+xml</dc:format>
        <dc:type
           rdf:resource="http://purl.org/dc/dcmitype/StillImage" />
        <dc:title />
      </cc:Work>
    </rdf:RDF>
  </metadata>
  <g
     inkscape:label="Layer 1"
     inkscape:groupmode="layer"
     id="layer1"
     transform="translate(0,-1004.3622)">
    <g
       style="fill-rule:evenodd;stroke-width:0.50099999;stroke-linejoin:bevel;overflow:visible"
       id="g24188"
       transform="matrix(1.3333333,0,0,1.3333333,0,1004.3622)">
      <g
         transform="scale(1,-1)"
         font-size="16"
         id="Document"
         style="font-size:16px;fill:none;stroke:#000000;font-family:Times New Roman">
        <g
           transform="translate(0,-36)"
           id="Spread">
          <g
             id="MouseOff">
            <g
               id="Group"
               style="stroke:none">
              <g
                 id="Group_1">
                <g
                   stroke-miterlimit="79.8403193612775"
                   id="Group_2"
                   style="fill:#494a4f">
                  <path
                     id="path23931"
                     d="m 0.001,5.626 0,-0.002 C 0.001,5.004 0.448,4.5 0.998,4.5 l 34.005,0 C 35.553,4.5 36,5.004 36,5.624 l 0,0.002 c 0,0.62 -0.447,1.124 -0.997,1.124 l -34.005,0 C 0.448,6.75 0.001,6.246 0.001,5.626 z"
                     inkscape:connector-curvature="0"
                     style="fill-opacity:0.05490202;marker-start:none;marker-end:none" />
                  <path
                     id="path23933"
                     d="m 0.141,5.672 0,-0.002 c 0,-0.594 0.446,-1.077 0.997,-1.077 l 33.724,0 c 0.551,0 0.997,0.483 0.997,1.077 l 0,0.002 c 0,0.594 -0.446,1.078 -0.997,1.078 l -33.724,0 C 0.587,6.75 0.141,6.266 0.141,5.672 z"
                     inkscape:connector-curvature="0"
                     style="fill-opacity:0.07450998;marker-start:none;marker-end:none" />
                  <path
                     id="path23935"
                     d="m 0.281,5.72 0,-0.002 c 0,-0.568 0.447,-1.031 0.998,-1.031 l 33.442,0 c 0.551,0 0.998,0.463 0.998,1.031 l 0,0.002 c 0,0.567 -0.447,1.03 -0.998,1.03 l -33.442,0 C 0.728,6.75 0.281,6.287 0.281,5.72 z"
                     inkscape:connector-curvature="0"
                     style="fill-opacity:0.09411801;marker-start:none;marker-end:none" />
                  <path
                     id="path23937"
                     d="m 0.422,5.766 0,0 c 0,-0.544 0.447,-0.985 0.998,-0.985 l 33.161,0 c 0.551,0 0.997,0.441 0.997,0.985 l 0,0 c 0,0.543 -0.446,0.984 -0.997,0.984 L 1.42,6.75 C 0.869,6.75 0.422,6.309 0.422,5.766 z"
                     inkscape:connector-curvature="0"
                     style="fill-opacity:0.10980398;marker-start:none;marker-end:none" />
                  <path
                     id="path23939"
                     d="m 0.563,5.812 0,-0.002 c 0,-0.516 0.447,-0.935 0.996,-0.935 l 32.882,0 c 0.55,0 0.997,0.419 0.997,0.935 l 0,0.002 c 0,0.518 -0.447,0.938 -0.997,0.938 l -32.882,0 C 1.01,6.75 0.563,6.33 0.563,5.812 z"
                     inkscape:connector-curvature="0"
                     style="fill-opacity:0.129412;marker-start:none;marker-end:none" />
                  <path
                     id="path23941"
                     d="m 0.704,5.858 0,0 c 0,-0.492 0.446,-0.89 0.996,-0.89 l 32.6,0 c 0.55,0 0.997,0.398 0.997,0.89 l 0,0 C 35.297,6.35 34.85,6.75 34.3,6.75 l -32.6,0 C 1.15,6.75 0.704,6.35 0.704,5.858 z"
                     inkscape:connector-curvature="0"
                     style="fill-opacity:0.14902003;marker-start:none;marker-end:none" />
                  <path
                     id="path23943"
                     d="m 0.844,5.906 0,0 c 0,-0.468 0.447,-0.845 0.997,-0.845 l 32.319,0 c 0.549,0 0.996,0.377 0.996,0.845 l 0,0 c 0,0.467 -0.447,0.844 -0.996,0.844 l -32.319,0 C 1.291,6.75 0.844,6.373 0.844,5.906 z"
                     inkscape:connector-curvature="0"
                     style="fill-opacity:0.164706;marker-start:none;marker-end:none" />
                </g>
                <g
                   id="Group_3">
                  <path
                     style="fill:url(#LinearGradient-8);stroke-width:0.122;marker-start:none;marker-end:none"
                     id="path23946"
                     stroke-miterlimit="79.8403193612775"
                     d="M 0,33.883 0,7.366 C 0,6.198 0.949,5.249 2.117,5.249 l 31.765,0 c 1.168,0 2.117,0.949 2.117,2.117 l 0,26.517 C 35.999,35.051 35.05,36 33.882,36 L 2.117,36 C 0.949,36 0,35.051 0,33.883 z"
                     inkscape:connector-curvature="0" />
                  <path
                     style="fill:url(#LinearGradient_1-90);stroke-width:0.122;marker-start:none;marker-end:none"
                     id="path23948"
                     stroke-miterlimit="79.8403193612775"
                     d="m 0.749,33.688 0,-26.127 c 0,-0.862 0.7,-1.562 1.562,-1.562 l 31.377,0 c 0.862,0 1.562,0.7 1.562,1.562 l 0,26.127 c 0,0.862 -0.7,1.562 -1.562,1.562 l -31.377,0 c -0.862,0 -1.562,-0.7 -1.562,-1.562 z"
                     inkscape:connector-curvature="0" />
                  <path
                     id="path23950"
                     stroke-miterlimit="79.8403193612775"
                     d="m 0.75,22.889 0,10.201 c 0,0.453 1.076,1.41 1.407,1.41 l 31.687,0 c 0.329,0 1.406,-0.956 1.406,-1.41 l 0,-10.201 C 31.24,20.369 25.001,18.751 18,18.751 c -7.002,0 -13.24,1.619 -17.25,4.138 z"
                     inkscape:connector-curvature="0"
                     style="fill:#ffffff;fill-opacity:0.164706;stroke-width:0.051;marker-start:none;marker-end:none" />
                  <path
                     style="fill:url(#LinearGradient_2-00);stroke-width:0.122;marker-start:none;marker-end:none"
                     id="path23952"
                     stroke-miterlimit="79.8403193612775"
                     d="m 2.251,9.375 0,-10e-4 c 0,-1.035 0.884,-1.875 1.973,-1.875 l 27.553,0 c 1.089,0 1.973,0.84 1.973,1.875 l 0,10e-4 c 0,1.035 -0.884,1.875 -1.973,1.875 l -27.553,0 c -1.089,0 -1.973,-0.84 -1.973,-1.875 z"
                     inkscape:connector-curvature="0" />
                  <path
                     id="path23954"
                     stroke-miterlimit="79.8403193612775"
                     d="m 2.251,30.674 0,-20.849 c 0,-0.869 0.707,-1.576 1.576,-1.576 l 28.347,0 c 0.869,0 1.576,0.707 1.576,1.576 l 0,20.849 c 0,0.869 -0.707,1.576 -1.576,1.576 l -28.347,0 c -0.869,0 -1.576,-0.707 -1.576,-1.576 z"
                     inkscape:connector-curvature="0"
                     style="fill:#7f7f7f;stroke-width:0.122;marker-start:none;marker-end:none" />
                  <path
                     id="path23956"
                     stroke-miterlimit="79.8403193612775"
                     d="m 3.001,31.056 0,-20.863 c 0,-0.659 0.535,-1.194 1.194,-1.194 l 27.611,0 c 0.659,0 1.194,0.535 1.194,1.194 l 0,20.863 c 0,0.659 -0.535,1.194 -1.194,1.194 l -27.611,0 c -0.659,0 -1.194,-0.535 -1.194,-1.194 z"
                     inkscape:connector-curvature="0"
                     style="fill:#1d1d1d;stroke-width:0.122;marker-start:none;marker-end:none" />
                  <path
                     id="path23958"
                     stroke-miterlimit="79.8403193612775"
                     d="m 3.752,30.756 0,-20.263 c 0,-0.41 0.334,-0.744 0.744,-0.744 l 27.009,0 c 0.41,0 0.744,0.334 0.744,0.744 l 0,20.263 c 0,0.41 -0.334,0.744 -0.744,0.744 l -27.009,0 c -0.41,0 -0.744,-0.334 -0.744,-0.744 z"
                     inkscape:connector-curvature="0"
                     style="fill:#2e2c2c;stroke-width:0.122;marker-start:none;marker-end:none" />
                  <path
                     id="path23960"
                     stroke-miterlimit="79.8403193612775"
                     d="m 4.501,30.231 0,-19.213 c 0,-0.286 0.233,-0.519 0.519,-0.519 l 25.961,0 c 0.286,0 0.519,0.233 0.519,0.519 l 0,19.213 c 0,0.286 -0.233,0.519 -0.519,0.519 l -25.961,0 c -0.286,0 -0.519,-0.233 -0.519,-0.519 z"
                     inkscape:connector-curvature="0"
                     style="fill:#3c3d41;stroke-width:0.122;marker-start:none;marker-end:none" />
                  <path
                     style="fill:url(#LinearGradient_3-72);stroke-width:0.122;marker-start:none;marker-end:none"
                     id="path23962"
                     stroke-miterlimit="79.8403193612775"
                     d="m 2.311,34.5 31.377,0 c 0.841,0 1.528,-0.668 1.56,-1.501 l -0.751,0 c -0.031,0.418 -0.383,0.751 -0.809,0.751 l -31.377,0 c -0.428,0 -0.779,-0.333 -0.81,-0.751 l -0.751,0 C 0.782,33.832 1.469,34.5 2.311,34.5 z"
                     inkscape:connector-curvature="0" />
                </g>
              </g>
              <path
                 id="path23964"
                 stroke-miterlimit="79.8403193612775"
                 d="m 6,10.875 c 0,0.207 0.168,0.375 0.375,0.375 0.207,0 0.375,-0.168 0.375,-0.375 C 6.75,10.668 6.582,10.5 6.375,10.5 6.168,10.5 6,10.668 6,10.875 z m 1.5,0 c 0,0.207 0.168,0.375 0.375,0.375 0.207,0 0.375,-0.168 0.375,-0.375 C 8.25,10.668 8.082,10.5 7.875,10.5 7.668,10.5 7.5,10.668 7.5,10.875 z m 1.5,0 c 0,0.207 0.168,0.375 0.375,0.375 0.207,0 0.375,-0.168 0.375,-0.375 C 9.75,10.668 9.582,10.5 9.375,10.5 9.168,10.5 9,10.668 9,10.875 z m 1.5,0 c 0,0.207 0.168,0.375 0.375,0.375 0.207,0 0.375,-0.168 0.375,-0.375 0,-0.207 -0.168,-0.375 -0.375,-0.375 -0.207,0 -0.375,0.168 -0.375,0.375 z m 1.5,0 c 0,0.207 0.168,0.375 0.375,0.375 0.207,0 0.375,-0.168 0.375,-0.375 C 12.75,10.668 12.582,10.5 12.375,10.5 12.168,10.5 12,10.668 12,10.875 z m 1.5,0 c 0,0.207 0.168,0.375 0.375,0.375 0.207,0 0.375,-0.168 0.375,-0.375 0,-0.207 -0.168,-0.375 -0.375,-0.375 -0.207,0 -0.375,0.168 -0.375,0.375 z m 1.5,0 c 0,0.207 0.168,0.375 0.375,0.375 0.207,0 0.375,-0.168 0.375,-0.375 C 15.75,10.668 15.582,10.5 15.375,10.5 15.168,10.5 15,10.668 15,10.875 z m 1.5,0 c 0,0.207 0.168,0.375 0.375,0.375 0.207,0 0.375,-0.168 0.375,-0.375 0,-0.207 -0.168,-0.375 -0.375,-0.375 -0.207,0 -0.375,0.168 -0.375,0.375 z m 1.5,0 c 0,0.207 0.168,0.375 0.375,0.375 0.207,0 0.375,-0.168 0.375,-0.375 C 18.75,10.668 18.582,10.5 18.375,10.5 18.168,10.5 18,10.668 18,10.875 z m 1.5,0 c 0,0.207 0.168,0.375 0.375,0.375 0.207,0 0.375,-0.168 0.375,-0.375 0,-0.207 -0.168,-0.375 -0.375,-0.375 -0.207,0 -0.375,0.168 -0.375,0.375 z m 1.5,0 c 0,0.207 0.168,0.375 0.375,0.375 0.207,0 0.375,-0.168 0.375,-0.375 C 21.75,10.668 21.582,10.5 21.375,10.5 21.168,10.5 21,10.668 21,10.875 z m 1.5,0 c 0,0.207 0.168,0.375 0.375,0.375 0.207,0 0.375,-0.168 0.375,-0.375 0,-0.207 -0.168,-0.375 -0.375,-0.375 -0.207,0 -0.375,0.168 -0.375,0.375 z m 1.5,0 c 0,0.207 0.168,0.375 0.375,0.375 0.207,0 0.375,-0.168 0.375,-0.375 C 24.75,10.668 24.582,10.5 24.375,10.5 24.168,10.5 24,10.668 24,10.875 z m 1.5,0 c 0,0.207 0.168,0.375 0.375,0.375 0.207,0 0.375,-0.168 0.375,-0.375 0,-0.207 -0.168,-0.375 -0.375,-0.375 -0.207,0 -0.375,0.168 -0.375,0.375 z m 1.5,0 c 0,0.207 0.168,0.375 0.375,0.375 0.207,0 0.375,-0.168 0.375,-0.375 C 27.75,10.668 27.582,10.5 27.375,10.5 27.168,10.5 27,10.668 27,10.875 z m 1.5,0 c 0,0.207 0.168,0.375 0.375,0.375 0.207,0 0.375,-0.168 0.375,-0.375 0,-0.207 -0.168,-0.375 -0.375,-0.375 -0.207,0 -0.375,0.168 -0.375,0.375 z m 1.5,0 c 0,0.207 0.168,0.375 0.375,0.375 0.207,0 0.375,-0.168 0.375,-0.375 C 30.75,10.668 30.582,10.5 30.375,10.5 30.168,10.5 30,10.668 30,10.875 z m -25.494,0.07 c 0.032,0.172 0.185,0.305 0.369,0.305 0.207,0 0.375,-0.168 0.375,-0.375 0,-0.186 -0.135,-0.34 -0.31,-0.37 -0.225,0.035 -0.402,0.214 -0.434,0.44 z m -0.006,1.424 0,0.011 c 0.002,0.204 0.169,0.37 0.375,0.37 0.207,0 0.375,-0.168 0.375,-0.375 C 5.25,12.168 5.082,12 4.875,12 4.669,12 4.502,12.165 4.5,12.369 z M 6,12.375 c 0,0.207 0.168,0.375 0.375,0.375 0.207,0 0.375,-0.168 0.375,-0.375 C 6.75,12.168 6.582,12 6.375,12 6.168,12 6,12.168 6,12.375 z m 1.5,0 c 0,0.207 0.168,0.375 0.375,0.375 0.207,0 0.375,-0.168 0.375,-0.375 C 8.25,12.168 8.082,12 7.875,12 7.668,12 7.5,12.168 7.5,12.375 z m 1.5,0 c 0,0.207 0.168,0.375 0.375,0.375 0.207,0 0.375,-0.168 0.375,-0.375 C 9.75,12.168 9.582,12 9.375,12 9.168,12 9,12.168 9,12.375 z m 1.5,0 c 0,0.207 0.168,0.375 0.375,0.375 0.207,0 0.375,-0.168 0.375,-0.375 C 11.25,12.168 11.082,12 10.875,12 10.668,12 10.5,12.168 10.5,12.375 z m 1.5,0 c 0,0.207 0.168,0.375 0.375,0.375 0.207,0 0.375,-0.168 0.375,-0.375 C 12.75,12.168 12.582,12 12.375,12 12.168,12 12,12.168 12,12.375 z m 1.5,0 c 0,0.207 0.168,0.375 0.375,0.375 0.207,0 0.375,-0.168 0.375,-0.375 C 14.25,12.168 14.082,12 13.875,12 13.668,12 13.5,12.168 13.5,12.375 z m 1.5,0 c 0,0.207 0.168,0.375 0.375,0.375 0.207,0 0.375,-0.168 0.375,-0.375 C 15.75,12.168 15.582,12 15.375,12 15.168,12 15,12.168 15,12.375 z m 1.5,0 c 0,0.207 0.168,0.375 0.375,0.375 0.207,0 0.375,-0.168 0.375,-0.375 C 17.25,12.168 17.082,12 16.875,12 16.668,12 16.5,12.168 16.5,12.375 z m 1.5,0 c 0,0.207 0.168,0.375 0.375,0.375 0.207,0 0.375,-0.168 0.375,-0.375 C 18.75,12.168 18.582,12 18.375,12 18.168,12 18,12.168 18,12.375 z m 1.5,0 c 0,0.207 0.168,0.375 0.375,0.375 0.207,0 0.375,-0.168 0.375,-0.375 C 20.25,12.168 20.082,12 19.875,12 19.668,12 19.5,12.168 19.5,12.375 z m 1.5,0 c 0,0.207 0.168,0.375 0.375,0.375 0.207,0 0.375,-0.168 0.375,-0.375 C 21.75,12.168 21.582,12 21.375,12 21.168,12 21,12.168 21,12.375 z m 1.5,0 c 0,0.207 0.168,0.375 0.375,0.375 0.207,0 0.375,-0.168 0.375,-0.375 C 23.25,12.168 23.082,12 22.875,12 22.668,12 22.5,12.168 22.5,12.375 z m 1.5,0 c 0,0.207 0.168,0.375 0.375,0.375 0.207,0 0.375,-0.168 0.375,-0.375 C 24.75,12.168 24.582,12 24.375,12 24.168,12 24,12.168 24,12.375 z m 1.5,0 c 0,0.207 0.168,0.375 0.375,0.375 0.207,0 0.375,-0.168 0.375,-0.375 C 26.25,12.168 26.082,12 25.875,12 25.668,12 25.5,12.168 25.5,12.375 z m 1.5,0 c 0,0.207 0.168,0.375 0.375,0.375 0.207,0 0.375,-0.168 0.375,-0.375 C 27.75,12.168 27.582,12 27.375,12 27.168,12 27,12.168 27,12.375 z m 1.5,0 c 0,0.207 0.168,0.375 0.375,0.375 0.207,0 0.375,-0.168 0.375,-0.375 C 29.25,12.168 29.082,12 28.875,12 28.668,12 28.5,12.168 28.5,12.375 z m 1.5,0 c 0,0.207 0.168,0.375 0.375,0.375 0.207,0 0.375,-0.168 0.375,-0.375 C 30.75,12.168 30.582,12 30.375,12 30.168,12 30,12.168 30,12.375 z m -25.5,1.494 0,0.011 c 0.002,0.204 0.169,0.37 0.375,0.37 0.207,0 0.375,-0.168 0.375,-0.375 C 5.25,13.668 5.082,13.5 4.875,13.5 4.669,13.5 4.502,13.665 4.5,13.869 z M 6,13.875 c 0,0.207 0.168,0.375 0.375,0.375 0.207,0 0.375,-0.168 0.375,-0.375 C 6.75,13.668 6.582,13.5 6.375,13.5 6.168,13.5 6,13.668 6,13.875 z m 1.5,0 c 0,0.207 0.168,0.375 0.375,0.375 0.207,0 0.375,-0.168 0.375,-0.375 C 8.25,13.668 8.082,13.5 7.875,13.5 7.668,13.5 7.5,13.668 7.5,13.875 z m 1.5,0 c 0,0.207 0.168,0.375 0.375,0.375 0.207,0 0.375,-0.168 0.375,-0.375 C 9.75,13.668 9.582,13.5 9.375,13.5 9.168,13.5 9,13.668 9,13.875 z m 1.5,0 c 0,0.207 0.168,0.375 0.375,0.375 0.207,0 0.375,-0.168 0.375,-0.375 0,-0.207 -0.168,-0.375 -0.375,-0.375 -0.207,0 -0.375,0.168 -0.375,0.375 z m 1.5,0 c 0,0.207 0.168,0.375 0.375,0.375 0.207,0 0.375,-0.168 0.375,-0.375 C 12.75,13.668 12.582,13.5 12.375,13.5 12.168,13.5 12,13.668 12,13.875 z m 1.5,0 c 0,0.207 0.168,0.375 0.375,0.375 0.207,0 0.375,-0.168 0.375,-0.375 0,-0.207 -0.168,-0.375 -0.375,-0.375 -0.207,0 -0.375,0.168 -0.375,0.375 z m 1.5,0 c 0,0.207 0.168,0.375 0.375,0.375 0.207,0 0.375,-0.168 0.375,-0.375 C 15.75,13.668 15.582,13.5 15.375,13.5 15.168,13.5 15,13.668 15,13.875 z m 1.5,0 c 0,0.207 0.168,0.375 0.375,0.375 0.207,0 0.375,-0.168 0.375,-0.375 0,-0.207 -0.168,-0.375 -0.375,-0.375 -0.207,0 -0.375,0.168 -0.375,0.375 z m 1.5,0 c 0,0.207 0.168,0.375 0.375,0.375 0.207,0 0.375,-0.168 0.375,-0.375 C 18.75,13.668 18.582,13.5 18.375,13.5 18.168,13.5 18,13.668 18,13.875 z m 1.5,0 c 0,0.207 0.168,0.375 0.375,0.375 0.207,0 0.375,-0.168 0.375,-0.375 0,-0.207 -0.168,-0.375 -0.375,-0.375 -0.207,0 -0.375,0.168 -0.375,0.375 z m 1.5,0 c 0,0.207 0.168,0.375 0.375,0.375 0.207,0 0.375,-0.168 0.375,-0.375 C 21.75,13.668 21.582,13.5 21.375,13.5 21.168,13.5 21,13.668 21,13.875 z m 1.5,0 c 0,0.207 0.168,0.375 0.375,0.375 0.207,0 0.375,-0.168 0.375,-0.375 0,-0.207 -0.168,-0.375 -0.375,-0.375 -0.207,0 -0.375,0.168 -0.375,0.375 z m 1.5,0 c 0,0.207 0.168,0.375 0.375,0.375 0.207,0 0.375,-0.168 0.375,-0.375 C 24.75,13.668 24.582,13.5 24.375,13.5 24.168,13.5 24,13.668 24,13.875 z m 1.5,0 c 0,0.207 0.168,0.375 0.375,0.375 0.207,0 0.375,-0.168 0.375,-0.375 0,-0.207 -0.168,-0.375 -0.375,-0.375 -0.207,0 -0.375,0.168 -0.375,0.375 z m 1.5,0 c 0,0.207 0.168,0.375 0.375,0.375 0.207,0 0.375,-0.168 0.375,-0.375 C 27.75,13.668 27.582,13.5 27.375,13.5 27.168,13.5 27,13.668 27,13.875 z m 1.5,0 c 0,0.207 0.168,0.375 0.375,0.375 0.207,0 0.375,-0.168 0.375,-0.375 0,-0.207 -0.168,-0.375 -0.375,-0.375 -0.207,0 -0.375,0.168 -0.375,0.375 z m 1.5,0 c 0,0.207 0.168,0.375 0.375,0.375 0.207,0 0.375,-0.168 0.375,-0.375 C 30.75,13.668 30.582,13.5 30.375,13.5 30.168,13.5 30,13.668 30,13.875 z m -25.5,1.494 0,0.011 c 0.002,0.204 0.169,0.37 0.375,0.37 0.207,0 0.375,-0.168 0.375,-0.375 C 5.25,15.168 5.082,15 4.875,15 4.669,15 4.502,15.165 4.5,15.369 z M 6,15.375 c 0,0.207 0.168,0.375 0.375,0.375 0.207,0 0.375,-0.168 0.375,-0.375 C 6.75,15.168 6.582,15 6.375,15 6.168,15 6,15.168 6,15.375 z m 1.5,0 c 0,0.207 0.168,0.375 0.375,0.375 0.207,0 0.375,-0.168 0.375,-0.375 C 8.25,15.168 8.082,15 7.875,15 7.668,15 7.5,15.168 7.5,15.375 z m 1.5,0 c 0,0.207 0.168,0.375 0.375,0.375 0.207,0 0.375,-0.168 0.375,-0.375 C 9.75,15.168 9.582,15 9.375,15 9.168,15 9,15.168 9,15.375 z m 1.5,0 c 0,0.207 0.168,0.375 0.375,0.375 0.207,0 0.375,-0.168 0.375,-0.375 C 11.25,15.168 11.082,15 10.875,15 10.668,15 10.5,15.168 10.5,15.375 z m 1.5,0 c 0,0.207 0.168,0.375 0.375,0.375 0.207,0 0.375,-0.168 0.375,-0.375 C 12.75,15.168 12.582,15 12.375,15 12.168,15 12,15.168 12,15.375 z m 1.5,0 c 0,0.207 0.168,0.375 0.375,0.375 0.207,0 0.375,-0.168 0.375,-0.375 C 14.25,15.168 14.082,15 13.875,15 13.668,15 13.5,15.168 13.5,15.375 z m 1.5,0 c 0,0.207 0.168,0.375 0.375,0.375 0.207,0 0.375,-0.168 0.375,-0.375 C 15.75,15.168 15.582,15 15.375,15 15.168,15 15,15.168 15,15.375 z m 1.5,0 c 0,0.207 0.168,0.375 0.375,0.375 0.207,0 0.375,-0.168 0.375,-0.375 C 17.25,15.168 17.082,15 16.875,15 16.668,15 16.5,15.168 16.5,15.375 z m 1.5,0 c 0,0.207 0.168,0.375 0.375,0.375 0.207,0 0.375,-0.168 0.375,-0.375 C 18.75,15.168 18.582,15 18.375,15 18.168,15 18,15.168 18,15.375 z m 1.5,0 c 0,0.207 0.168,0.375 0.375,0.375 0.207,0 0.375,-0.168 0.375,-0.375 C 20.25,15.168 20.082,15 19.875,15 19.668,15 19.5,15.168 19.5,15.375 z m 1.5,0 c 0,0.207 0.168,0.375 0.375,0.375 0.207,0 0.375,-0.168 0.375,-0.375 C 21.75,15.168 21.582,15 21.375,15 21.168,15 21,15.168 21,15.375 z m 1.5,0 c 0,0.207 0.168,0.375 0.375,0.375 0.207,0 0.375,-0.168 0.375,-0.375 C 23.25,15.168 23.082,15 22.875,15 22.668,15 22.5,15.168 22.5,15.375 z m 1.5,0 c 0,0.207 0.168,0.375 0.375,0.375 0.207,0 0.375,-0.168 0.375,-0.375 C 24.75,15.168 24.582,15 24.375,15 24.168,15 24,15.168 24,15.375 z m 1.5,0 c 0,0.207 0.168,0.375 0.375,0.375 0.207,0 0.375,-0.168 0.375,-0.375 C 26.25,15.168 26.082,15 25.875,15 25.668,15 25.5,15.168 25.5,15.375 z m 1.5,0 c 0,0.207 0.168,0.375 0.375,0.375 0.207,0 0.375,-0.168 0.375,-0.375 C 27.75,15.168 27.582,15 27.375,15 27.168,15 27,15.168 27,15.375 z m 1.5,0 c 0,0.207 0.168,0.375 0.375,0.375 0.207,0 0.375,-0.168 0.375,-0.375 C 29.25,15.168 29.082,15 28.875,15 28.668,15 28.5,15.168 28.5,15.375 z m 1.5,0 c 0,0.207 0.168,0.375 0.375,0.375 0.207,0 0.375,-0.168 0.375,-0.375 C 30.75,15.168 30.582,15 30.375,15 30.168,15 30,15.168 30,15.375 z m -25.5,1.494 0,0.011 c 0.002,0.204 0.169,0.37 0.375,0.37 0.207,0 0.375,-0.168 0.375,-0.375 C 5.25,16.668 5.082,16.5 4.875,16.5 4.669,16.5 4.502,16.665 4.5,16.869 z M 6,16.875 c 0,0.207 0.168,0.375 0.375,0.375 0.207,0 0.375,-0.168 0.375,-0.375 C 6.75,16.668 6.582,16.5 6.375,16.5 6.168,16.5 6,16.668 6,16.875 z m 1.5,0 c 0,0.207 0.168,0.375 0.375,0.375 0.207,0 0.375,-0.168 0.375,-0.375 C 8.25,16.668 8.082,16.5 7.875,16.5 7.668,16.5 7.5,16.668 7.5,16.875 z m 1.5,0 c 0,0.207 0.168,0.375 0.375,0.375 0.207,0 0.375,-0.168 0.375,-0.375 C 9.75,16.668 9.582,16.5 9.375,16.5 9.168,16.5 9,16.668 9,16.875 z m 1.5,0 c 0,0.207 0.168,0.375 0.375,0.375 0.207,0 0.375,-0.168 0.375,-0.375 0,-0.207 -0.168,-0.375 -0.375,-0.375 -0.207,0 -0.375,0.168 -0.375,0.375 z m 1.5,0 c 0,0.207 0.168,0.375 0.375,0.375 0.207,0 0.375,-0.168 0.375,-0.375 C 12.75,16.668 12.582,16.5 12.375,16.5 12.168,16.5 12,16.668 12,16.875 z m 1.5,0 c 0,0.207 0.168,0.375 0.375,0.375 0.207,0 0.375,-0.168 0.375,-0.375 0,-0.207 -0.168,-0.375 -0.375,-0.375 -0.207,0 -0.375,0.168 -0.375,0.375 z m 1.5,0 c 0,0.207 0.168,0.375 0.375,0.375 0.207,0 0.375,-0.168 0.375,-0.375 C 15.75,16.668 15.582,16.5 15.375,16.5 15.168,16.5 15,16.668 15,16.875 z m 1.5,0 c 0,0.207 0.168,0.375 0.375,0.375 0.207,0 0.375,-0.168 0.375,-0.375 0,-0.207 -0.168,-0.375 -0.375,-0.375 -0.207,0 -0.375,0.168 -0.375,0.375 z m 1.5,0 c 0,0.207 0.168,0.375 0.375,0.375 0.207,0 0.375,-0.168 0.375,-0.375 C 18.75,16.668 18.582,16.5 18.375,16.5 18.168,16.5 18,16.668 18,16.875 z m 1.5,0 c 0,0.207 0.168,0.375 0.375,0.375 0.207,0 0.375,-0.168 0.375,-0.375 0,-0.207 -0.168,-0.375 -0.375,-0.375 -0.207,0 -0.375,0.168 -0.375,0.375 z m 1.5,0 c 0,0.207 0.168,0.375 0.375,0.375 0.207,0 0.375,-0.168 0.375,-0.375 C 21.75,16.668 21.582,16.5 21.375,16.5 21.168,16.5 21,16.668 21,16.875 z m 1.5,0 c 0,0.207 0.168,0.375 0.375,0.375 0.207,0 0.375,-0.168 0.375,-0.375 0,-0.207 -0.168,-0.375 -0.375,-0.375 -0.207,0 -0.375,0.168 -0.375,0.375 z m 1.5,0 c 0,0.207 0.168,0.375 0.375,0.375 0.207,0 0.375,-0.168 0.375,-0.375 C 24.75,16.668 24.582,16.5 24.375,16.5 24.168,16.5 24,16.668 24,16.875 z m 1.5,0 c 0,0.207 0.168,0.375 0.375,0.375 0.207,0 0.375,-0.168 0.375,-0.375 0,-0.207 -0.168,-0.375 -0.375,-0.375 -0.207,0 -0.375,0.168 -0.375,0.375 z m 1.5,0 c 0,0.207 0.168,0.375 0.375,0.375 0.207,0 0.375,-0.168 0.375,-0.375 C 27.75,16.668 27.582,16.5 27.375,16.5 27.168,16.5 27,16.668 27,16.875 z m 1.5,0 c 0,0.207 0.168,0.375 0.375,0.375 0.207,0 0.375,-0.168 0.375,-0.375 0,-0.207 -0.168,-0.375 -0.375,-0.375 -0.207,0 -0.375,0.168 -0.375,0.375 z m 1.5,0 c 0,0.207 0.168,0.375 0.375,0.375 0.207,0 0.375,-0.168 0.375,-0.375 C 30.75,16.668 30.582,16.5 30.375,16.5 30.168,16.5 30,16.668 30,16.875 z m -25.5,1.494 0,0.011 c 0.002,0.204 0.169,0.37 0.375,0.37 0.207,0 0.375,-0.168 0.375,-0.375 C 5.25,18.168 5.082,18 4.875,18 4.669,18 4.502,18.165 4.5,18.369 z M 6,18.375 c 0,0.207 0.168,0.375 0.375,0.375 0.207,0 0.375,-0.168 0.375,-0.375 C 6.75,18.168 6.582,18 6.375,18 6.168,18 6,18.168 6,18.375 z m 1.5,0 c 0,0.207 0.168,0.375 0.375,0.375 0.207,0 0.375,-0.168 0.375,-0.375 C 8.25,18.168 8.082,18 7.875,18 7.668,18 7.5,18.168 7.5,18.375 z m 1.5,0 c 0,0.207 0.168,0.375 0.375,0.375 0.207,0 0.375,-0.168 0.375,-0.375 C 9.75,18.168 9.582,18 9.375,18 9.168,18 9,18.168 9,18.375 z m 1.5,0 c 0,0.207 0.168,0.375 0.375,0.375 0.207,0 0.375,-0.168 0.375,-0.375 C 11.25,18.168 11.082,18 10.875,18 10.668,18 10.5,18.168 10.5,18.375 z m 1.5,0 c 0,0.207 0.168,0.375 0.375,0.375 0.207,0 0.375,-0.168 0.375,-0.375 C 12.75,18.168 12.582,18 12.375,18 12.168,18 12,18.168 12,18.375 z m 1.5,0 c 0,0.207 0.168,0.375 0.375,0.375 0.207,0 0.375,-0.168 0.375,-0.375 C 14.25,18.168 14.082,18 13.875,18 13.668,18 13.5,18.168 13.5,18.375 z m 1.5,0 c 0,0.207 0.168,0.375 0.375,0.375 0.207,0 0.375,-0.168 0.375,-0.375 C 15.75,18.168 15.582,18 15.375,18 15.168,18 15,18.168 15,18.375 z m 1.5,0 c 0,0.207 0.168,0.375 0.375,0.375 0.207,0 0.375,-0.168 0.375,-0.375 C 17.25,18.168 17.082,18 16.875,18 16.668,18 16.5,18.168 16.5,18.375 z m 1.5,0 c 0,0.207 0.168,0.375 0.375,0.375 0.207,0 0.375,-0.168 0.375,-0.375 C 18.75,18.168 18.582,18 18.375,18 18.168,18 18,18.168 18,18.375 z m 1.5,0 c 0,0.207 0.168,0.375 0.375,0.375 0.207,0 0.375,-0.168 0.375,-0.375 C 20.25,18.168 20.082,18 19.875,18 19.668,18 19.5,18.168 19.5,18.375 z m 1.5,0 c 0,0.207 0.168,0.375 0.375,0.375 0.207,0 0.375,-0.168 0.375,-0.375 C 21.75,18.168 21.582,18 21.375,18 21.168,18 21,18.168 21,18.375 z m 1.5,0 c 0,0.207 0.168,0.375 0.375,0.375 0.207,0 0.375,-0.168 0.375,-0.375 C 23.25,18.168 23.082,18 22.875,18 22.668,18 22.5,18.168 22.5,18.375 z m 1.5,0 c 0,0.207 0.168,0.375 0.375,0.375 0.207,0 0.375,-0.168 0.375,-0.375 C 24.75,18.168 24.582,18 24.375,18 24.168,18 24,18.168 24,18.375 z m 1.5,0 c 0,0.207 0.168,0.375 0.375,0.375 0.207,0 0.375,-0.168 0.375,-0.375 C 26.25,18.168 26.082,18 25.875,18 25.668,18 25.5,18.168 25.5,18.375 z m 1.5,0 c 0,0.207 0.168,0.375 0.375,0.375 0.207,0 0.375,-0.168 0.375,-0.375 C 27.75,18.168 27.582,18 27.375,18 27.168,18 27,18.168 27,18.375 z m 1.5,0 c 0,0.207 0.168,0.375 0.375,0.375 0.207,0 0.375,-0.168 0.375,-0.375 C 29.25,18.168 29.082,18 28.875,18 28.668,18 28.5,18.168 28.5,18.375 z m 1.5,0 c 0,0.207 0.168,0.375 0.375,0.375 0.207,0 0.375,-0.168 0.375,-0.375 C 30.75,18.168 30.582,18 30.375,18 30.168,18 30,18.168 30,18.375 z m -25.5,1.494 0,0.011 c 0.002,0.204 0.169,0.37 0.375,0.37 0.207,0 0.375,-0.168 0.375,-0.375 C 5.25,19.668 5.082,19.5 4.875,19.5 4.669,19.5 4.502,19.665 4.5,19.869 z M 6,19.875 c 0,0.207 0.168,0.375 0.375,0.375 0.207,0 0.375,-0.168 0.375,-0.375 C 6.75,19.668 6.582,19.5 6.375,19.5 6.168,19.5 6,19.668 6,19.875 z m 1.5,0 c 0,0.207 0.168,0.375 0.375,0.375 0.207,0 0.375,-0.168 0.375,-0.375 C 8.25,19.668 8.082,19.5 7.875,19.5 7.668,19.5 7.5,19.668 7.5,19.875 z m 1.5,0 c 0,0.207 0.168,0.375 0.375,0.375 0.207,0 0.375,-0.168 0.375,-0.375 C 9.75,19.668 9.582,19.5 9.375,19.5 9.168,19.5 9,19.668 9,19.875 z m 1.5,0 c 0,0.207 0.168,0.375 0.375,0.375 0.207,0 0.375,-0.168 0.375,-0.375 0,-0.207 -0.168,-0.375 -0.375,-0.375 -0.207,0 -0.375,0.168 -0.375,0.375 z m 1.5,0 c 0,0.207 0.168,0.375 0.375,0.375 0.207,0 0.375,-0.168 0.375,-0.375 C 12.75,19.668 12.582,19.5 12.375,19.5 12.168,19.5 12,19.668 12,19.875 z m 1.5,0 c 0,0.207 0.168,0.375 0.375,0.375 0.207,0 0.375,-0.168 0.375,-0.375 0,-0.207 -0.168,-0.375 -0.375,-0.375 -0.207,0 -0.375,0.168 -0.375,0.375 z m 1.5,0 c 0,0.207 0.168,0.375 0.375,0.375 0.207,0 0.375,-0.168 0.375,-0.375 C 15.75,19.668 15.582,19.5 15.375,19.5 15.168,19.5 15,19.668 15,19.875 z m 1.5,0 c 0,0.207 0.168,0.375 0.375,0.375 0.207,0 0.375,-0.168 0.375,-0.375 0,-0.207 -0.168,-0.375 -0.375,-0.375 -0.207,0 -0.375,0.168 -0.375,0.375 z m 1.5,0 c 0,0.207 0.168,0.375 0.375,0.375 0.207,0 0.375,-0.168 0.375,-0.375 C 18.75,19.668 18.582,19.5 18.375,19.5 18.168,19.5 18,19.668 18,19.875 z m 1.5,0 c 0,0.207 0.168,0.375 0.375,0.375 0.207,0 0.375,-0.168 0.375,-0.375 0,-0.207 -0.168,-0.375 -0.375,-0.375 -0.207,0 -0.375,0.168 -0.375,0.375 z m 1.5,0 c 0,0.207 0.168,0.375 0.375,0.375 0.207,0 0.375,-0.168 0.375,-0.375 C 21.75,19.668 21.582,19.5 21.375,19.5 21.168,19.5 21,19.668 21,19.875 z m 1.5,0 c 0,0.207 0.168,0.375 0.375,0.375 0.207,0 0.375,-0.168 0.375,-0.375 0,-0.207 -0.168,-0.375 -0.375,-0.375 -0.207,0 -0.375,0.168 -0.375,0.375 z m 1.5,0 c 0,0.207 0.168,0.375 0.375,0.375 0.207,0 0.375,-0.168 0.375,-0.375 C 24.75,19.668 24.582,19.5 24.375,19.5 24.168,19.5 24,19.668 24,19.875 z m 1.5,0 c 0,0.207 0.168,0.375 0.375,0.375 0.207,0 0.375,-0.168 0.375,-0.375 0,-0.207 -0.168,-0.375 -0.375,-0.375 -0.207,0 -0.375,0.168 -0.375,0.375 z m 1.5,0 c 0,0.207 0.168,0.375 0.375,0.375 0.207,0 0.375,-0.168 0.375,-0.375 C 27.75,19.668 27.582,19.5 27.375,19.5 27.168,19.5 27,19.668 27,19.875 z m 1.5,0 c 0,0.207 0.168,0.375 0.375,0.375 0.207,0 0.375,-0.168 0.375,-0.375 0,-0.207 -0.168,-0.375 -0.375,-0.375 -0.207,0 -0.375,0.168 -0.375,0.375 z m 1.5,0 c 0,0.207 0.168,0.375 0.375,0.375 0.207,0 0.375,-0.168 0.375,-0.375 C 30.75,19.668 30.582,19.5 30.375,19.5 30.168,19.5 30,19.668 30,19.875 z m -25.5,1.494 0,0.011 c 0.002,0.204 0.169,0.37 0.375,0.37 0.207,0 0.375,-0.168 0.375,-0.375 C 5.25,21.168 5.082,21 4.875,21 4.669,21 4.502,21.165 4.5,21.369 z M 6,21.375 c 0,0.207 0.168,0.375 0.375,0.375 0.207,0 0.375,-0.168 0.375,-0.375 C 6.75,21.168 6.582,21 6.375,21 6.168,21 6,21.168 6,21.375 z m 1.5,0 c 0,0.207 0.168,0.375 0.375,0.375 0.207,0 0.375,-0.168 0.375,-0.375 C 8.25,21.168 8.082,21 7.875,21 7.668,21 7.5,21.168 7.5,21.375 z m 1.5,0 c 0,0.207 0.168,0.375 0.375,0.375 0.207,0 0.375,-0.168 0.375,-0.375 C 9.75,21.168 9.582,21 9.375,21 9.168,21 9,21.168 9,21.375 z m 1.5,0 c 0,0.207 0.168,0.375 0.375,0.375 0.207,0 0.375,-0.168 0.375,-0.375 C 11.25,21.168 11.082,21 10.875,21 10.668,21 10.5,21.168 10.5,21.375 z m 1.5,0 c 0,0.207 0.168,0.375 0.375,0.375 0.207,0 0.375,-0.168 0.375,-0.375 C 12.75,21.168 12.582,21 12.375,21 12.168,21 12,21.168 12,21.375 z m 1.5,0 c 0,0.207 0.168,0.375 0.375,0.375 0.207,0 0.375,-0.168 0.375,-0.375 C 14.25,21.168 14.082,21 13.875,21 13.668,21 13.5,21.168 13.5,21.375 z m 1.5,0 c 0,0.207 0.168,0.375 0.375,0.375 0.207,0 0.375,-0.168 0.375,-0.375 C 15.75,21.168 15.582,21 15.375,21 15.168,21 15,21.168 15,21.375 z m 1.5,0 c 0,0.207 0.168,0.375 0.375,0.375 0.207,0 0.375,-0.168 0.375,-0.375 C 17.25,21.168 17.082,21 16.875,21 16.668,21 16.5,21.168 16.5,21.375 z m 1.5,0 c 0,0.207 0.168,0.375 0.375,0.375 0.207,0 0.375,-0.168 0.375,-0.375 C 18.75,21.168 18.582,21 18.375,21 18.168,21 18,21.168 18,21.375 z m 1.5,0 c 0,0.207 0.168,0.375 0.375,0.375 0.207,0 0.375,-0.168 0.375,-0.375 C 20.25,21.168 20.082,21 19.875,21 19.668,21 19.5,21.168 19.5,21.375 z m 1.5,0 c 0,0.207 0.168,0.375 0.375,0.375 0.207,0 0.375,-0.168 0.375,-0.375 C 21.75,21.168 21.582,21 21.375,21 21.168,21 21,21.168 21,21.375 z m 1.5,0 c 0,0.207 0.168,0.375 0.375,0.375 0.207,0 0.375,-0.168 0.375,-0.375 C 23.25,21.168 23.082,21 22.875,21 22.668,21 22.5,21.168 22.5,21.375 z m 1.5,0 c 0,0.207 0.168,0.375 0.375,0.375 0.207,0 0.375,-0.168 0.375,-0.375 C 24.75,21.168 24.582,21 24.375,21 24.168,21 24,21.168 24,21.375 z m 1.5,0 c 0,0.207 0.168,0.375 0.375,0.375 0.207,0 0.375,-0.168 0.375,-0.375 C 26.25,21.168 26.082,21 25.875,21 25.668,21 25.5,21.168 25.5,21.375 z m 1.5,0 c 0,0.207 0.168,0.375 0.375,0.375 0.207,0 0.375,-0.168 0.375,-0.375 C 27.75,21.168 27.582,21 27.375,21 27.168,21 27,21.168 27,21.375 z m 1.5,0 c 0,0.207 0.168,0.375 0.375,0.375 0.207,0 0.375,-0.168 0.375,-0.375 C 29.25,21.168 29.082,21 28.875,21 28.668,21 28.5,21.168 28.5,21.375 z m 1.5,0 c 0,0.207 0.168,0.375 0.375,0.375 0.207,0 0.375,-0.168 0.375,-0.375 C 30.75,21.168 30.582,21 30.375,21 30.168,21 30,21.168 30,21.375 z m -25.5,1.494 0,0.011 c 0.002,0.204 0.169,0.37 0.375,0.37 0.207,0 0.375,-0.168 0.375,-0.375 C 5.25,22.668 5.082,22.5 4.875,22.5 4.669,22.5 4.502,22.665 4.5,22.869 z M 6,22.875 c 0,0.207 0.168,0.375 0.375,0.375 0.207,0 0.375,-0.168 0.375,-0.375 C 6.75,22.668 6.582,22.5 6.375,22.5 6.168,22.5 6,22.668 6,22.875 z m 1.5,0 c 0,0.207 0.168,0.375 0.375,0.375 0.207,0 0.375,-0.168 0.375,-0.375 C 8.25,22.668 8.082,22.5 7.875,22.5 7.668,22.5 7.5,22.668 7.5,22.875 z m 1.5,0 c 0,0.207 0.168,0.375 0.375,0.375 0.207,0 0.375,-0.168 0.375,-0.375 C 9.75,22.668 9.582,22.5 9.375,22.5 9.168,22.5 9,22.668 9,22.875 z m 1.5,0 c 0,0.207 0.168,0.375 0.375,0.375 0.207,0 0.375,-0.168 0.375,-0.375 0,-0.207 -0.168,-0.375 -0.375,-0.375 -0.207,0 -0.375,0.168 -0.375,0.375 z m 1.5,0 c 0,0.207 0.168,0.375 0.375,0.375 0.207,0 0.375,-0.168 0.375,-0.375 C 12.75,22.668 12.582,22.5 12.375,22.5 12.168,22.5 12,22.668 12,22.875 z m 1.5,0 c 0,0.207 0.168,0.375 0.375,0.375 0.207,0 0.375,-0.168 0.375,-0.375 0,-0.207 -0.168,-0.375 -0.375,-0.375 -0.207,0 -0.375,0.168 -0.375,0.375 z m 1.5,0 c 0,0.207 0.168,0.375 0.375,0.375 0.207,0 0.375,-0.168 0.375,-0.375 C 15.75,22.668 15.582,22.5 15.375,22.5 15.168,22.5 15,22.668 15,22.875 z m 1.5,0 c 0,0.207 0.168,0.375 0.375,0.375 0.207,0 0.375,-0.168 0.375,-0.375 0,-0.207 -0.168,-0.375 -0.375,-0.375 -0.207,0 -0.375,0.168 -0.375,0.375 z m 1.5,0 c 0,0.207 0.168,0.375 0.375,0.375 0.207,0 0.375,-0.168 0.375,-0.375 C 18.75,22.668 18.582,22.5 18.375,22.5 18.168,22.5 18,22.668 18,22.875 z m 1.5,0 c 0,0.207 0.168,0.375 0.375,0.375 0.207,0 0.375,-0.168 0.375,-0.375 0,-0.207 -0.168,-0.375 -0.375,-0.375 -0.207,0 -0.375,0.168 -0.375,0.375 z m 1.5,0 c 0,0.207 0.168,0.375 0.375,0.375 0.207,0 0.375,-0.168 0.375,-0.375 C 21.75,22.668 21.582,22.5 21.375,22.5 21.168,22.5 21,22.668 21,22.875 z m 1.5,0 c 0,0.207 0.168,0.375 0.375,0.375 0.207,0 0.375,-0.168 0.375,-0.375 0,-0.207 -0.168,-0.375 -0.375,-0.375 -0.207,0 -0.375,0.168 -0.375,0.375 z m 1.5,0 c 0,0.207 0.168,0.375 0.375,0.375 0.207,0 0.375,-0.168 0.375,-0.375 C 24.75,22.668 24.582,22.5 24.375,22.5 24.168,22.5 24,22.668 24,22.875 z m 1.5,0 c 0,0.207 0.168,0.375 0.375,0.375 0.207,0 0.375,-0.168 0.375,-0.375 0,-0.207 -0.168,-0.375 -0.375,-0.375 -0.207,0 -0.375,0.168 -0.375,0.375 z m 1.5,0 c 0,0.207 0.168,0.375 0.375,0.375 0.207,0 0.375,-0.168 0.375,-0.375 C 27.75,22.668 27.582,22.5 27.375,22.5 27.168,22.5 27,22.668 27,22.875 z m 1.5,0 c 0,0.207 0.168,0.375 0.375,0.375 0.207,0 0.375,-0.168 0.375,-0.375 0,-0.207 -0.168,-0.375 -0.375,-0.375 -0.207,0 -0.375,0.168 -0.375,0.375 z m 1.5,0 c 0,0.207 0.168,0.375 0.375,0.375 0.207,0 0.375,-0.168 0.375,-0.375 C 30.75,22.668 30.582,22.5 30.375,22.5 30.168,22.5 30,22.668 30,22.875 z m -25.5,1.494 0,0.011 c 0.002,0.204 0.169,0.37 0.375,0.37 0.207,0 0.375,-0.168 0.375,-0.375 C 5.25,24.168 5.082,24 4.875,24 4.669,24 4.502,24.165 4.5,24.369 z M 6,24.375 c 0,0.207 0.168,0.375 0.375,0.375 0.207,0 0.375,-0.168 0.375,-0.375 C 6.75,24.168 6.582,24 6.375,24 6.168,24 6,24.168 6,24.375 z m 1.5,0 c 0,0.207 0.168,0.375 0.375,0.375 0.207,0 0.375,-0.168 0.375,-0.375 C 8.25,24.168 8.082,24 7.875,24 7.668,24 7.5,24.168 7.5,24.375 z m 1.5,0 c 0,0.207 0.168,0.375 0.375,0.375 0.207,0 0.375,-0.168 0.375,-0.375 C 9.75,24.168 9.582,24 9.375,24 9.168,24 9,24.168 9,24.375 z m 1.5,0 c 0,0.207 0.168,0.375 0.375,0.375 0.207,0 0.375,-0.168 0.375,-0.375 C 11.25,24.168 11.082,24 10.875,24 10.668,24 10.5,24.168 10.5,24.375 z m 1.5,0 c 0,0.207 0.168,0.375 0.375,0.375 0.207,0 0.375,-0.168 0.375,-0.375 C 12.75,24.168 12.582,24 12.375,24 12.168,24 12,24.168 12,24.375 z m 1.5,0 c 0,0.207 0.168,0.375 0.375,0.375 0.207,0 0.375,-0.168 0.375,-0.375 C 14.25,24.168 14.082,24 13.875,24 13.668,24 13.5,24.168 13.5,24.375 z m 1.5,0 c 0,0.207 0.168,0.375 0.375,0.375 0.207,0 0.375,-0.168 0.375,-0.375 C 15.75,24.168 15.582,24 15.375,24 15.168,24 15,24.168 15,24.375 z m 1.5,0 c 0,0.207 0.168,0.375 0.375,0.375 0.207,0 0.375,-0.168 0.375,-0.375 C 17.25,24.168 17.082,24 16.875,24 16.668,24 16.5,24.168 16.5,24.375 z m 1.5,0 c 0,0.207 0.168,0.375 0.375,0.375 0.207,0 0.375,-0.168 0.375,-0.375 C 18.75,24.168 18.582,24 18.375,24 18.168,24 18,24.168 18,24.375 z m 1.5,0 c 0,0.207 0.168,0.375 0.375,0.375 0.207,0 0.375,-0.168 0.375,-0.375 C 20.25,24.168 20.082,24 19.875,24 19.668,24 19.5,24.168 19.5,24.375 z m 1.5,0 c 0,0.207 0.168,0.375 0.375,0.375 0.207,0 0.375,-0.168 0.375,-0.375 C 21.75,24.168 21.582,24 21.375,24 21.168,24 21,24.168 21,24.375 z m 1.5,0 c 0,0.207 0.168,0.375 0.375,0.375 0.207,0 0.375,-0.168 0.375,-0.375 C 23.25,24.168 23.082,24 22.875,24 22.668,24 22.5,24.168 22.5,24.375 z m 1.5,0 c 0,0.207 0.168,0.375 0.375,0.375 0.207,0 0.375,-0.168 0.375,-0.375 C 24.75,24.168 24.582,24 24.375,24 24.168,24 24,24.168 24,24.375 z m 1.5,0 c 0,0.207 0.168,0.375 0.375,0.375 0.207,0 0.375,-0.168 0.375,-0.375 C 26.25,24.168 26.082,24 25.875,24 25.668,24 25.5,24.168 25.5,24.375 z m 1.5,0 c 0,0.207 0.168,0.375 0.375,0.375 0.207,0 0.375,-0.168 0.375,-0.375 C 27.75,24.168 27.582,24 27.375,24 27.168,24 27,24.168 27,24.375 z m 1.5,0 c 0,0.207 0.168,0.375 0.375,0.375 0.207,0 0.375,-0.168 0.375,-0.375 C 29.25,24.168 29.082,24 28.875,24 28.668,24 28.5,24.168 28.5,24.375 z m 1.5,0 c 0,0.207 0.168,0.375 0.375,0.375 0.207,0 0.375,-0.168 0.375,-0.375 C 30.75,24.168 30.582,24 30.375,24 30.168,24 30,24.168 30,24.375 z m -25.5,1.494 0,0.011 c 0.002,0.204 0.169,0.37 0.375,0.37 0.207,0 0.375,-0.168 0.375,-0.375 C 5.25,25.668 5.082,25.5 4.875,25.5 4.669,25.5 4.502,25.665 4.5,25.869 z M 6,25.875 c 0,0.207 0.168,0.375 0.375,0.375 0.207,0 0.375,-0.168 0.375,-0.375 C 6.75,25.668 6.582,25.5 6.375,25.5 6.168,25.5 6,25.668 6,25.875 z m 1.5,0 c 0,0.207 0.168,0.375 0.375,0.375 0.207,0 0.375,-0.168 0.375,-0.375 C 8.25,25.668 8.082,25.5 7.875,25.5 7.668,25.5 7.5,25.668 7.5,25.875 z m 1.5,0 c 0,0.207 0.168,0.375 0.375,0.375 0.207,0 0.375,-0.168 0.375,-0.375 C 9.75,25.668 9.582,25.5 9.375,25.5 9.168,25.5 9,25.668 9,25.875 z m 1.5,0 c 0,0.207 0.168,0.375 0.375,0.375 0.207,0 0.375,-0.168 0.375,-0.375 0,-0.207 -0.168,-0.375 -0.375,-0.375 -0.207,0 -0.375,0.168 -0.375,0.375 z m 1.5,0 c 0,0.207 0.168,0.375 0.375,0.375 0.207,0 0.375,-0.168 0.375,-0.375 C 12.75,25.668 12.582,25.5 12.375,25.5 12.168,25.5 12,25.668 12,25.875 z m 1.5,0 c 0,0.207 0.168,0.375 0.375,0.375 0.207,0 0.375,-0.168 0.375,-0.375 0,-0.207 -0.168,-0.375 -0.375,-0.375 -0.207,0 -0.375,0.168 -0.375,0.375 z m 1.5,0 c 0,0.207 0.168,0.375 0.375,0.375 0.207,0 0.375,-0.168 0.375,-0.375 C 15.75,25.668 15.582,25.5 15.375,25.5 15.168,25.5 15,25.668 15,25.875 z m 1.5,0 c 0,0.207 0.168,0.375 0.375,0.375 0.207,0 0.375,-0.168 0.375,-0.375 0,-0.207 -0.168,-0.375 -0.375,-0.375 -0.207,0 -0.375,0.168 -0.375,0.375 z m 1.5,0 c 0,0.207 0.168,0.375 0.375,0.375 0.207,0 0.375,-0.168 0.375,-0.375 C 18.75,25.668 18.582,25.5 18.375,25.5 18.168,25.5 18,25.668 18,25.875 z m 1.5,0 c 0,0.207 0.168,0.375 0.375,0.375 0.207,0 0.375,-0.168 0.375,-0.375 0,-0.207 -0.168,-0.375 -0.375,-0.375 -0.207,0 -0.375,0.168 -0.375,0.375 z m 1.5,0 c 0,0.207 0.168,0.375 0.375,0.375 0.207,0 0.375,-0.168 0.375,-0.375 C 21.75,25.668 21.582,25.5 21.375,25.5 21.168,25.5 21,25.668 21,25.875 z m 1.5,0 c 0,0.207 0.168,0.375 0.375,0.375 0.207,0 0.375,-0.168 0.375,-0.375 0,-0.207 -0.168,-0.375 -0.375,-0.375 -0.207,0 -0.375,0.168 -0.375,0.375 z m 1.5,0 c 0,0.207 0.168,0.375 0.375,0.375 0.207,0 0.375,-0.168 0.375,-0.375 C 24.75,25.668 24.582,25.5 24.375,25.5 24.168,25.5 24,25.668 24,25.875 z m 1.5,0 c 0,0.207 0.168,0.375 0.375,0.375 0.207,0 0.375,-0.168 0.375,-0.375 0,-0.207 -0.168,-0.375 -0.375,-0.375 -0.207,0 -0.375,0.168 -0.375,0.375 z m 1.5,0 c 0,0.207 0.168,0.375 0.375,0.375 0.207,0 0.375,-0.168 0.375,-0.375 C 27.75,25.668 27.582,25.5 27.375,25.5 27.168,25.5 27,25.668 27,25.875 z m 1.5,0 c 0,0.207 0.168,0.375 0.375,0.375 0.207,0 0.375,-0.168 0.375,-0.375 0,-0.207 -0.168,-0.375 -0.375,-0.375 -0.207,0 -0.375,0.168 -0.375,0.375 z m 1.5,0 c 0,0.207 0.168,0.375 0.375,0.375 0.207,0 0.375,-0.168 0.375,-0.375 C 30.75,25.668 30.582,25.5 30.375,25.5 30.168,25.5 30,25.668 30,25.875 z m -25.5,1.494 0,0.011 c 0.002,0.204 0.169,0.37 0.375,0.37 0.207,0 0.375,-0.168 0.375,-0.375 C 5.25,27.168 5.082,27 4.875,27 4.669,27 4.502,27.165 4.5,27.369 z M 6,27.375 c 0,0.207 0.168,0.375 0.375,0.375 0.207,0 0.375,-0.168 0.375,-0.375 C 6.75,27.168 6.582,27 6.375,27 6.168,27 6,27.168 6,27.375 z m 1.5,0 c 0,0.207 0.168,0.375 0.375,0.375 0.207,0 0.375,-0.168 0.375,-0.375 C 8.25,27.168 8.082,27 7.875,27 7.668,27 7.5,27.168 7.5,27.375 z m 1.5,0 c 0,0.207 0.168,0.375 0.375,0.375 0.207,0 0.375,-0.168 0.375,-0.375 C 9.75,27.168 9.582,27 9.375,27 9.168,27 9,27.168 9,27.375 z m 1.5,0 c 0,0.207 0.168,0.375 0.375,0.375 0.207,0 0.375,-0.168 0.375,-0.375 C 11.25,27.168 11.082,27 10.875,27 10.668,27 10.5,27.168 10.5,27.375 z m 1.5,0 c 0,0.207 0.168,0.375 0.375,0.375 0.207,0 0.375,-0.168 0.375,-0.375 C 12.75,27.168 12.582,27 12.375,27 12.168,27 12,27.168 12,27.375 z m 1.5,0 c 0,0.207 0.168,0.375 0.375,0.375 0.207,0 0.375,-0.168 0.375,-0.375 C 14.25,27.168 14.082,27 13.875,27 13.668,27 13.5,27.168 13.5,27.375 z m 1.5,0 c 0,0.207 0.168,0.375 0.375,0.375 0.207,0 0.375,-0.168 0.375,-0.375 C 15.75,27.168 15.582,27 15.375,27 15.168,27 15,27.168 15,27.375 z m 1.5,0 c 0,0.207 0.168,0.375 0.375,0.375 0.207,0 0.375,-0.168 0.375,-0.375 C 17.25,27.168 17.082,27 16.875,27 16.668,27 16.5,27.168 16.5,27.375 z m 1.5,0 c 0,0.207 0.168,0.375 0.375,0.375 0.207,0 0.375,-0.168 0.375,-0.375 C 18.75,27.168 18.582,27 18.375,27 18.168,27 18,27.168 18,27.375 z m 1.5,0 c 0,0.207 0.168,0.375 0.375,0.375 0.207,0 0.375,-0.168 0.375,-0.375 C 20.25,27.168 20.082,27 19.875,27 19.668,27 19.5,27.168 19.5,27.375 z m 1.5,0 c 0,0.207 0.168,0.375 0.375,0.375 0.207,0 0.375,-0.168 0.375,-0.375 C 21.75,27.168 21.582,27 21.375,27 21.168,27 21,27.168 21,27.375 z m 1.5,0 c 0,0.207 0.168,0.375 0.375,0.375 0.207,0 0.375,-0.168 0.375,-0.375 C 23.25,27.168 23.082,27 22.875,27 22.668,27 22.5,27.168 22.5,27.375 z m 1.5,0 c 0,0.207 0.168,0.375 0.375,0.375 0.207,0 0.375,-0.168 0.375,-0.375 C 24.75,27.168 24.582,27 24.375,27 24.168,27 24,27.168 24,27.375 z m 1.5,0 c 0,0.207 0.168,0.375 0.375,0.375 0.207,0 0.375,-0.168 0.375,-0.375 C 26.25,27.168 26.082,27 25.875,27 25.668,27 25.5,27.168 25.5,27.375 z m 1.5,0 c 0,0.207 0.168,0.375 0.375,0.375 0.207,0 0.375,-0.168 0.375,-0.375 C 27.75,27.168 27.582,27 27.375,27 27.168,27 27,27.168 27,27.375 z m 1.5,0 c 0,0.207 0.168,0.375 0.375,0.375 0.207,0 0.375,-0.168 0.375,-0.375 C 29.25,27.168 29.082,27 28.875,27 28.668,27 28.5,27.168 28.5,27.375 z m 1.5,0 c 0,0.207 0.168,0.375 0.375,0.375 0.207,0 0.375,-0.168 0.375,-0.375 C 30.75,27.168 30.582,27 30.375,27 30.168,27 30,27.168 30,27.375 z m -25.5,1.494 0,0.011 c 0.002,0.204 0.169,0.37 0.375,0.37 0.207,0 0.375,-0.168 0.375,-0.375 C 5.25,28.668 5.082,28.5 4.875,28.5 4.669,28.5 4.502,28.665 4.5,28.869 z M 6,28.875 c 0,0.207 0.168,0.375 0.375,0.375 0.207,0 0.375,-0.168 0.375,-0.375 C 6.75,28.668 6.582,28.5 6.375,28.5 6.168,28.5 6,28.668 6,28.875 z m 1.5,0 c 0,0.207 0.168,0.375 0.375,0.375 0.207,0 0.375,-0.168 0.375,-0.375 C 8.25,28.668 8.082,28.5 7.875,28.5 7.668,28.5 7.5,28.668 7.5,28.875 z m 1.5,0 c 0,0.207 0.168,0.375 0.375,0.375 0.207,0 0.375,-0.168 0.375,-0.375 C 9.75,28.668 9.582,28.5 9.375,28.5 9.168,28.5 9,28.668 9,28.875 z m 1.5,0 c 0,0.207 0.168,0.375 0.375,0.375 0.207,0 0.375,-0.168 0.375,-0.375 0,-0.207 -0.168,-0.375 -0.375,-0.375 -0.207,0 -0.375,0.168 -0.375,0.375 z m 1.5,0 c 0,0.207 0.168,0.375 0.375,0.375 0.207,0 0.375,-0.168 0.375,-0.375 C 12.75,28.668 12.582,28.5 12.375,28.5 12.168,28.5 12,28.668 12,28.875 z m 1.5,0 c 0,0.207 0.168,0.375 0.375,0.375 0.207,0 0.375,-0.168 0.375,-0.375 0,-0.207 -0.168,-0.375 -0.375,-0.375 -0.207,0 -0.375,0.168 -0.375,0.375 z m 1.5,0 c 0,0.207 0.168,0.375 0.375,0.375 0.207,0 0.375,-0.168 0.375,-0.375 C 15.75,28.668 15.582,28.5 15.375,28.5 15.168,28.5 15,28.668 15,28.875 z m 1.5,0 c 0,0.207 0.168,0.375 0.375,0.375 0.207,0 0.375,-0.168 0.375,-0.375 0,-0.207 -0.168,-0.375 -0.375,-0.375 -0.207,0 -0.375,0.168 -0.375,0.375 z m 1.5,0 c 0,0.207 0.168,0.375 0.375,0.375 0.207,0 0.375,-0.168 0.375,-0.375 C 18.75,28.668 18.582,28.5 18.375,28.5 18.168,28.5 18,28.668 18,28.875 z m 1.5,0 c 0,0.207 0.168,0.375 0.375,0.375 0.207,0 0.375,-0.168 0.375,-0.375 0,-0.207 -0.168,-0.375 -0.375,-0.375 -0.207,0 -0.375,0.168 -0.375,0.375 z m 1.5,0 c 0,0.207 0.168,0.375 0.375,0.375 0.207,0 0.375,-0.168 0.375,-0.375 C 21.75,28.668 21.582,28.5 21.375,28.5 21.168,28.5 21,28.668 21,28.875 z m 1.5,0 c 0,0.207 0.168,0.375 0.375,0.375 0.207,0 0.375,-0.168 0.375,-0.375 0,-0.207 -0.168,-0.375 -0.375,-0.375 -0.207,0 -0.375,0.168 -0.375,0.375 z m 1.5,0 c 0,0.207 0.168,0.375 0.375,0.375 0.207,0 0.375,-0.168 0.375,-0.375 C 24.75,28.668 24.582,28.5 24.375,28.5 24.168,28.5 24,28.668 24,28.875 z m 1.5,0 c 0,0.207 0.168,0.375 0.375,0.375 0.207,0 0.375,-0.168 0.375,-0.375 0,-0.207 -0.168,-0.375 -0.375,-0.375 -0.207,0 -0.375,0.168 -0.375,0.375 z m 1.5,0 c 0,0.207 0.168,0.375 0.375,0.375 0.207,0 0.375,-0.168 0.375,-0.375 C 27.75,28.668 27.582,28.5 27.375,28.5 27.168,28.5 27,28.668 27,28.875 z m 1.5,0 c 0,0.207 0.168,0.375 0.375,0.375 0.207,0 0.375,-0.168 0.375,-0.375 0,-0.207 -0.168,-0.375 -0.375,-0.375 -0.207,0 -0.375,0.168 -0.375,0.375 z m 1.5,0 c 0,0.207 0.168,0.375 0.375,0.375 0.207,0 0.375,-0.168 0.375,-0.375 C 30.75,28.668 30.582,28.5 30.375,28.5 30.168,28.5 30,28.668 30,28.875 z M 4.506,30.303 C 4.539,30.53 4.717,30.709 4.943,30.744 5.116,30.712 5.25,30.559 5.25,30.375 5.25,30.168 5.082,30 4.875,30 4.691,30 4.538,30.131 4.506,30.303 z M 6,30.375 c 0,0.207 0.168,0.375 0.375,0.375 0.207,0 0.375,-0.168 0.375,-0.375 C 6.75,30.168 6.582,30 6.375,30 6.168,30 6,30.168 6,30.375 z m 1.5,0 c 0,0.207 0.168,0.375 0.375,0.375 0.207,0 0.375,-0.168 0.375,-0.375 C 8.25,30.168 8.082,30 7.875,30 7.668,30 7.5,30.168 7.5,30.375 z m 1.5,0 c 0,0.207 0.168,0.375 0.375,0.375 0.207,0 0.375,-0.168 0.375,-0.375 C 9.75,30.168 9.582,30 9.375,30 9.168,30 9,30.168 9,30.375 z m 1.5,0 c 0,0.207 0.168,0.375 0.375,0.375 0.207,0 0.375,-0.168 0.375,-0.375 C 11.25,30.168 11.082,30 10.875,30 10.668,30 10.5,30.168 10.5,30.375 z m 1.5,0 c 0,0.207 0.168,0.375 0.375,0.375 0.207,0 0.375,-0.168 0.375,-0.375 C 12.75,30.168 12.582,30 12.375,30 12.168,30 12,30.168 12,30.375 z m 1.5,0 c 0,0.207 0.168,0.375 0.375,0.375 0.207,0 0.375,-0.168 0.375,-0.375 C 14.25,30.168 14.082,30 13.875,30 13.668,30 13.5,30.168 13.5,30.375 z m 1.5,0 c 0,0.207 0.168,0.375 0.375,0.375 0.207,0 0.375,-0.168 0.375,-0.375 C 15.75,30.168 15.582,30 15.375,30 15.168,30 15,30.168 15,30.375 z m 1.5,0 c 0,0.207 0.168,0.375 0.375,0.375 0.207,0 0.375,-0.168 0.375,-0.375 C 17.25,30.168 17.082,30 16.875,30 16.668,30 16.5,30.168 16.5,30.375 z m 1.5,0 c 0,0.207 0.168,0.375 0.375,0.375 0.207,0 0.375,-0.168 0.375,-0.375 C 18.75,30.168 18.582,30 18.375,30 18.168,30 18,30.168 18,30.375 z m 1.5,0 c 0,0.207 0.168,0.375 0.375,0.375 0.207,0 0.375,-0.168 0.375,-0.375 C 20.25,30.168 20.082,30 19.875,30 19.668,30 19.5,30.168 19.5,30.375 z m 1.5,0 c 0,0.207 0.168,0.375 0.375,0.375 0.207,0 0.375,-0.168 0.375,-0.375 C 21.75,30.168 21.582,30 21.375,30 21.168,30 21,30.168 21,30.375 z m 1.5,0 c 0,0.207 0.168,0.375 0.375,0.375 0.207,0 0.375,-0.168 0.375,-0.375 C 23.25,30.168 23.082,30 22.875,30 22.668,30 22.5,30.168 22.5,30.375 z m 1.5,0 c 0,0.207 0.168,0.375 0.375,0.375 0.207,0 0.375,-0.168 0.375,-0.375 C 24.75,30.168 24.582,30 24.375,30 24.168,30 24,30.168 24,30.375 z m 1.5,0 c 0,0.207 0.168,0.375 0.375,0.375 0.207,0 0.375,-0.168 0.375,-0.375 C 26.25,30.168 26.082,30 25.875,30 25.668,30 25.5,30.168 25.5,30.375 z m 1.5,0 c 0,0.207 0.168,0.375 0.375,0.375 0.207,0 0.375,-0.168 0.375,-0.375 C 27.75,30.168 27.582,30 27.375,30 27.168,30 27,30.168 27,30.375 z m 1.5,0 c 0,0.207 0.168,0.375 0.375,0.375 0.207,0 0.375,-0.168 0.375,-0.375 C 29.25,30.168 29.082,30 28.875,30 28.668,30 28.5,30.168 28.5,30.375 z m 1.5,0 c 0,0.207 0.168,0.375 0.375,0.375 0.207,0 0.375,-0.168 0.375,-0.375 C 30.75,30.168 30.582,30 30.375,30 30.168,30 30,30.168 30,30.375 z"
                 inkscape:connector-curvature="0"
                 style="fill:#494a4f;stroke-width:0.75;marker-start:none;marker-end:none" />
              <path
                 id="path23966"
                 stroke-miterlimit="79.8403193612775"
                 d="m 4.5,22.053 0.001,8.178 c 0,0.286 0.233,0.519 0.519,0.519 l 25.961,0 c 0.286,0 0.519,-0.233 0.519,-0.519 l 0,-7.846 C 24.327,21.333 13.195,21.197 4.5,22.053 z"
                 inkscape:connector-curvature="0"
                 style="fill:#ffffff;fill-opacity:0.06274498;stroke-width:0.077;marker-start:none;marker-end:none" />
              <g
                 id="Group_4">
                <path
                   id="path23969"
                   stroke-miterlimit="79.8403193612775"
                   d="m 22.539,23.767 c -0.386,-0.827 0.939,-1.269 1.325,-2.592 0.375,-1.288 0.447,-2.63 -0.277,-3.585 -0.709,-0.938 -2.026,-1.371 -3.31,-1.214 -1.144,0.14 -2.362,1.208 -2.869,0.386 -0.711,-1.161 1.145,-2.765 2.318,-3.365 2.372,-1.214 5.662,-0.647 7.282,1.103 2.041,2.206 1.789,5.651 0.441,7.558 -0.877,1.239 -4.084,3.478 -4.91,1.709 z"
                   inkscape:connector-curvature="0"
                   style="fill:#fde973;fill-opacity:0.4;stroke-width:0.04;marker-start:none;marker-end:none" />
                <path
                   style="fill:url(#LinearGradient_4-55);stroke-width:0.114;marker-start:none;marker-end:none"
                   id="path23971"
                   stroke-miterlimit="79.8403193612775"
                   d="m 18.012,16.142 c 0.772,-0.606 1.747,-0.967 2.804,-0.967 2.513,0 4.552,2.039 4.552,4.551 0,1.701 -0.937,3.186 -2.321,3.966 2.547,-0.285 4.526,-2.449 4.526,-5.069 0,-2.817 -2.285,-5.103 -5.102,-5.103 -1.917,0 -3.588,1.058 -4.459,2.622 z"
                   inkscape:connector-curvature="0" />
              </g>
              <g
                 id="Group_5">
                <g
                   id="Group_6"
                   style="fill:#ffffff">
                  <path
                     id="path23975"
                     stroke-miterlimit="79.8403193612775"
                     d="m 6.954,28.564 0.165,-0.959 -0.702,-0.677 0.971,-0.14 0.435,-0.871 0.437,0.871 0.971,0.14 -0.701,0.677 0.165,0.959 -0.869,-0.452 -0.872,0.452 z"
                     inkscape:connector-curvature="0"
                     style="fill-opacity:0.09019602;stroke-width:0.193;marker-start:none;marker-end:none" />
                  <path
                     id="path23977"
                     stroke-miterlimit="79.8403193612775"
                     d="m 6.721,26.996 0.762,-0.11 0.34,-0.682 0.344,0.682 0.76,0.11 -0.552,0.532 0.132,0.749 -0.681,-0.353 -0.685,0.353 0.132,-0.749 -0.552,-0.532 z"
                     inkscape:connector-curvature="0"
                     style="fill-opacity:0.19607801;stroke-width:0.152;marker-start:none;marker-end:none" />
                  <path
                     id="path23979"
                     stroke-miterlimit="79.8403193612775"
                     d="m 7.026,27.063 0.552,-0.08 0.245,-0.494 0.248,0.494 0.551,0.08 -0.399,0.385 0.096,0.544 -0.493,-0.257 -0.495,0.257 0.095,-0.544 -0.4,-0.385 z"
                     inkscape:connector-curvature="0"
                     style="fill-opacity:0.29803898;stroke-width:0.109;marker-start:none;marker-end:none" />
                  <path
                     id="path23981"
                     stroke-miterlimit="79.8403193612775"
                     d="m 7.52,27.705 0.058,-0.336 -0.247,-0.238 0.34,-0.05 0.153,-0.305 0.154,0.305 0.341,0.05 -0.248,0.238 0.058,0.336 -0.303,-0.158 -0.306,0.158 z"
                     inkscape:connector-curvature="0"
                     style="fill-opacity:0.4;stroke-width:0.068;marker-start:none;marker-end:none" />
                </g>
                <g
                   id="Group_7"
                   style="fill:#fde973">
                  <path
                     id="path23984"
                     stroke-miterlimit="79.8403193612775"
                     d="m 7.875,29.25 c 1.035,0 1.876,-0.841 1.876,-1.876 C 9.751,26.341 8.91,25.5 7.875,25.5 6.84,25.5 6,26.341 6,27.374 6,28.409 6.84,29.25 7.875,29.25 z"
                     inkscape:connector-curvature="0"
                     style="fill-opacity:0.05490202;stroke-width:0.048;marker-start:none;marker-end:none" />
                  <path
                     id="path23986"
                     stroke-miterlimit="79.8403193612775"
                     d="m 7.875,25.915 c 0.806,0 1.458,0.654 1.458,1.459 0,0.807 -0.652,1.459 -1.458,1.459 -0.806,0 -1.458,-0.652 -1.458,-1.459 0,-0.805 0.652,-1.459 1.458,-1.459 z"
                     inkscape:connector-curvature="0"
                     style="fill-opacity:0.04313702;stroke-width:0.038;marker-start:none;marker-end:none" />
                  <path
                     id="path23988"
                     stroke-miterlimit="79.8403193612775"
                     d="m 7.875,26.333 c 0.574,0 1.041,0.467 1.041,1.041 0,0.576 -0.467,1.042 -1.041,1.042 -0.577,0 -1.042,-0.466 -1.042,-1.042 0,-0.574 0.465,-1.041 1.042,-1.041 z"
                     inkscape:connector-curvature="0"
                     style="fill-opacity:0.03137303;stroke-width:0.028;marker-start:none;marker-end:none" />
                  <path
                     id="path23990"
                     stroke-miterlimit="79.8403193612775"
                     d="M 7.875,28 C 8.22,28 8.5,27.72 8.5,27.374 8.5,27.03 8.22,26.751 7.875,26.751 7.53,26.751 7.25,27.03 7.25,27.374 7.25,27.72 7.53,28 7.875,28 z"
                     inkscape:connector-curvature="0"
                     style="fill-opacity:0.01960802;stroke-width:0.016;marker-start:none;marker-end:none" />
                </g>
              </g>
              <g
                 id="Group_8">
                <g
                   id="Group_9"
                   style="fill:#ffffff">
                  <path
                     id="path23994"
                     stroke-miterlimit="79.8403193612775"
                     d="m 11.074,23.589 0.099,-0.575 -0.421,-0.406 0.583,-0.084 0.26,-0.523 0.262,0.523 0.582,0.084 -0.421,0.406 0.099,0.575 -0.52,-0.271 -0.523,0.271 z"
                     inkscape:connector-curvature="0"
                     style="fill-opacity:0.09019602;stroke-width:0.116;marker-start:none;marker-end:none" />
                  <path
                     id="path23996"
                     stroke-miterlimit="79.8403193612775"
                     d="m 10.934,22.649 0.457,-0.066 0.204,-0.409 0.205,0.409 0.457,0.066 -0.331,0.319 0.078,0.448 -0.407,-0.211 -0.411,0.211 0.08,-0.448 -0.332,-0.319 z"
                     inkscape:connector-curvature="0"
                     style="fill-opacity:0.19607801;stroke-width:0.091;marker-start:none;marker-end:none" />
                  <path
                     id="path23998"
                     stroke-miterlimit="79.8403193612775"
                     d="m 11.117,22.689 0.331,-0.048 0.147,-0.296 0.148,0.296 0.331,0.048 -0.239,0.231 0.057,0.325 -0.295,-0.153 -0.297,0.153 0.057,-0.325 -0.24,-0.231 z"
                     inkscape:connector-curvature="0"
                     style="fill-opacity:0.29803898;stroke-width:0.065;marker-start:none;marker-end:none" />
                  <path
                     id="path24000"
                     stroke-miterlimit="79.8403193612775"
                     d="m 11.413,23.074 0.035,-0.202 -0.148,-0.142 0.204,-0.03 0.091,-0.183 0.093,0.183 0.204,0.03 -0.149,0.142 0.035,0.202 -0.181,-0.095 -0.184,0.095 z"
                     inkscape:connector-curvature="0"
                     style="fill-opacity:0.4;stroke-width:0.041;marker-start:none;marker-end:none" />
                </g>
                <g
                   id="Group_10"
                   style="fill:#fde973">
                  <path
                     id="path24003"
                     stroke-miterlimit="79.8403193612775"
                     d="m 11.626,24 c 0.621,0 1.124,-0.504 1.124,-1.125 0,-0.619 -0.503,-1.123 -1.124,-1.123 -0.621,0 -1.124,0.504 -1.124,1.123 0,0.621 0.503,1.125 1.124,1.125 z"
                     inkscape:connector-curvature="0"
                     style="fill-opacity:0.05490202;stroke-width:0.029;marker-start:none;marker-end:none" />
                  <path
                     id="path24005"
                     stroke-miterlimit="79.8403193612775"
                     d="m 11.626,22.001 c 0.483,0 0.875,0.392 0.875,0.874 0,0.484 -0.392,0.876 -0.875,0.876 -0.483,0 -0.875,-0.392 -0.875,-0.876 0,-0.482 0.392,-0.874 0.875,-0.874 z"
                     inkscape:connector-curvature="0"
                     style="fill-opacity:0.04313702;stroke-width:0.023;marker-start:none;marker-end:none" />
                  <path
                     id="path24007"
                     stroke-miterlimit="79.8403193612775"
                     d="m 11.626,22.251 c 0.344,0 0.624,0.28 0.624,0.624 0,0.346 -0.28,0.625 -0.624,0.625 -0.345,0 -0.625,-0.279 -0.625,-0.625 0,-0.344 0.28,-0.624 0.625,-0.624 z"
                     inkscape:connector-curvature="0"
                     style="fill-opacity:0.03137303;stroke-width:0.017;marker-start:none;marker-end:none" />
                  <path
                     id="path24009"
                     stroke-miterlimit="79.8403193612775"
                     d="m 11.626,23.251 c 0.207,0 0.375,-0.168 0.375,-0.376 0,-0.206 -0.168,-0.373 -0.375,-0.373 -0.207,0 -0.375,0.167 -0.375,0.373 0,0.208 0.168,0.376 0.375,0.376 z"
                     inkscape:connector-curvature="0"
                     style="fill-opacity:0.01960802;stroke-width:0.01;marker-start:none;marker-end:none" />
                </g>
              </g>
              <g
                 id="Group_11">
                <g
                   id="Group_12"
                   style="fill:#ffffff">
                  <path
                     id="path24013"
                     stroke-miterlimit="79.8403193612775"
                     d="m 14.822,25.839 0.099,-0.575 -0.421,-0.406 0.583,-0.084 0.26,-0.523 0.262,0.523 0.582,0.084 -0.421,0.406 0.099,0.575 -0.52,-0.271 -0.523,0.271 z"
                     inkscape:connector-curvature="0"
                     style="fill-opacity:0.09019602;stroke-width:0.116;marker-start:none;marker-end:none" />
                  <path
                     id="path24015"
                     stroke-miterlimit="79.8403193612775"
                     d="m 14.682,24.899 0.457,-0.066 0.204,-0.409 0.205,0.409 0.457,0.066 -0.331,0.319 0.078,0.448 -0.407,-0.211 -0.411,0.211 0.08,-0.448 -0.332,-0.319 z"
                     inkscape:connector-curvature="0"
                     style="fill-opacity:0.19607801;stroke-width:0.091;marker-start:none;marker-end:none" />
                  <path
                     id="path24017"
                     stroke-miterlimit="79.8403193612775"
                     d="m 14.865,24.939 0.331,-0.048 0.147,-0.296 0.148,0.296 0.331,0.048 -0.239,0.231 0.057,0.325 -0.295,-0.153 -0.297,0.153 0.057,-0.325 -0.24,-0.231 z"
                     inkscape:connector-curvature="0"
                     style="fill-opacity:0.29803898;stroke-width:0.065;marker-start:none;marker-end:none" />
                  <path
                     id="path24019"
                     stroke-miterlimit="79.8403193612775"
                     d="m 15.161,25.324 0.035,-0.202 -0.148,-0.142 0.204,-0.03 0.091,-0.183 0.093,0.183 0.204,0.03 -0.149,0.142 0.035,0.202 -0.181,-0.095 -0.184,0.095 z"
                     inkscape:connector-curvature="0"
                     style="fill-opacity:0.4;stroke-width:0.041;marker-start:none;marker-end:none" />
                </g>
                <g
                   id="Group_13"
                   style="fill:#fde973">
                  <path
                     id="path24022"
                     stroke-miterlimit="79.8403193612775"
                     d="m 15.374,26.25 c 0.621,0 1.125,-0.504 1.125,-1.125 0,-0.619 -0.504,-1.123 -1.125,-1.123 -0.621,0 -1.124,0.504 -1.124,1.123 0,0.621 0.503,1.125 1.124,1.125 z"
                     inkscape:connector-curvature="0"
                     style="fill-opacity:0.05490202;stroke-width:0.029;marker-start:none;marker-end:none" />
                  <path
                     id="path24024"
                     stroke-miterlimit="79.8403193612775"
                     d="m 15.374,24.251 c 0.483,0 0.875,0.392 0.875,0.874 0,0.484 -0.392,0.876 -0.875,0.876 -0.483,0 -0.875,-0.392 -0.875,-0.876 0,-0.482 0.392,-0.874 0.875,-0.874 z"
                     inkscape:connector-curvature="0"
                     style="fill-opacity:0.04313702;stroke-width:0.023;marker-start:none;marker-end:none" />
                  <path
                     id="path24026"
                     stroke-miterlimit="79.8403193612775"
                     d="m 15.374,24.501 c 0.344,0 0.624,0.28 0.624,0.624 0,0.346 -0.28,0.625 -0.624,0.625 -0.345,0 -0.625,-0.279 -0.625,-0.625 0,-0.344 0.28,-0.624 0.625,-0.624 z"
                     inkscape:connector-curvature="0"
                     style="fill-opacity:0.03137303;stroke-width:0.017;marker-start:none;marker-end:none" />
                  <path
                     id="path24028"
                     stroke-miterlimit="79.8403193612775"
                     d="m 15.374,25.501 c 0.207,0 0.375,-0.168 0.375,-0.376 0,-0.206 -0.168,-0.373 -0.375,-0.373 -0.207,0 -0.375,0.167 -0.375,0.373 0,0.208 0.168,0.376 0.375,0.376 z"
                     inkscape:connector-curvature="0"
                     style="fill-opacity:0.01960802;stroke-width:0.01;marker-start:none;marker-end:none" />
                </g>
              </g>
              <g
                 id="Group_14">
                <g
                   id="Group_15"
                   style="fill:#fde973">
                  <path
                     id="path24032"
                     stroke-miterlimit="79.8403193612775"
                     d="m 18.987,22.974 c 0.959,0 1.737,-0.779 1.737,-1.738 0,-0.957 -0.778,-1.736 -1.737,-1.736 -0.958,0 -1.737,0.779 -1.737,1.736 0,0.959 0.779,1.738 1.737,1.738 z"
                     inkscape:connector-curvature="0"
                     style="fill-opacity:0.05490202;stroke-width:0.045;marker-start:none;marker-end:none" />
                  <path
                     id="path24034"
                     stroke-miterlimit="79.8403193612775"
                     d="m 18.987,19.885 c 0.746,0 1.351,0.606 1.351,1.351 0,0.747 -0.605,1.352 -1.351,1.352 -0.746,0 -1.351,-0.605 -1.351,-1.352 0,-0.745 0.605,-1.351 1.351,-1.351 z"
                     inkscape:connector-curvature="0"
                     style="fill-opacity:0.04313702;stroke-width:0.035;marker-start:none;marker-end:none" />
                  <path
                     id="path24036"
                     stroke-miterlimit="79.8403193612775"
                     d="m 18.987,20.272 c 0.532,0 0.965,0.432 0.965,0.964 0,0.534 -0.433,0.966 -0.965,0.966 -0.534,0 -0.965,-0.432 -0.965,-0.966 0,-0.532 0.431,-0.964 0.965,-0.964 z"
                     inkscape:connector-curvature="0"
                     style="fill-opacity:0.03137303;stroke-width:0.026;marker-start:none;marker-end:none" />
                  <path
                     id="path24038"
                     stroke-miterlimit="79.8403193612775"
                     d="m 18.987,21.816 c 0.32,0 0.579,-0.259 0.579,-0.58 0,-0.319 -0.259,-0.578 -0.579,-0.578 -0.32,0 -0.579,0.259 -0.579,0.578 0,0.321 0.259,0.58 0.579,0.58 z"
                     inkscape:connector-curvature="0"
                     style="fill-opacity:0.01960802;stroke-width:0.014;marker-start:none;marker-end:none" />
                </g>
                <g
                   id="Group_16"
                   style="fill:#ffffff">
                  <path
                     id="path24041"
                     stroke-miterlimit="79.8403193612775"
                     d="m 17.931,22.853 0.212,-1.213 -0.893,-0.859 1.232,-0.176 0.551,-1.105 0.552,1.105 1.233,0.176 -0.892,0.859 0.211,1.213 -1.102,-0.572 -1.104,0.572 z"
                     inkscape:connector-curvature="0"
                     style="fill-opacity:0.09019602;stroke-width:0.245;marker-start:none;marker-end:none" />
                  <path
                     id="path24043"
                     stroke-miterlimit="79.8403193612775"
                     d="m 17.637,20.866 0.965,-0.138 0.431,-0.864 0.433,0.864 0.966,0.138 -0.699,0.674 0.165,0.951 -0.863,-0.449 -0.866,0.449 0.167,-0.951 -0.699,-0.674 z"
                     inkscape:connector-curvature="0"
                     style="fill-opacity:0.19607801;stroke-width:0.192;marker-start:none;marker-end:none" />
                  <path
                     id="path24045"
                     stroke-miterlimit="79.8403193612775"
                     d="m 18.022,20.952 0.699,-0.099 0.312,-0.628 0.314,0.628 0.699,0.099 -0.507,0.488 0.12,0.687 -0.624,-0.323 -0.627,0.323 0.12,-0.687 -0.506,-0.488 z"
                     inkscape:connector-curvature="0"
                     style="fill-opacity:0.29803898;stroke-width:0.139;marker-start:none;marker-end:none" />
                  <path
                     id="path24047"
                     stroke-miterlimit="79.8403193612775"
                     d="m 18.648,21.766 0.073,-0.426 -0.312,-0.302 0.431,-0.061 0.193,-0.388 0.195,0.388 0.432,0.061 -0.313,0.302 0.073,0.426 -0.385,-0.201 -0.387,0.201 z"
                     inkscape:connector-curvature="0"
                     style="fill-opacity:0.4;stroke-width:0.086;marker-start:none;marker-end:none" />
                </g>
              </g>
              <g
                 id="Group_17">
                <g
                   id="Group_18"
                   style="fill:#ffffff">
                  <path
                     id="path24051"
                     stroke-miterlimit="79.8403193612775"
                     d="m 23.453,29.314 0.165,-0.959 -0.702,-0.677 0.971,-0.14 0.435,-0.871 0.437,0.871 0.971,0.14 -0.701,0.677 0.165,0.959 -0.869,-0.452 -0.872,0.452 z"
                     inkscape:connector-curvature="0"
                     style="fill-opacity:0.09019602;stroke-width:0.193;marker-start:none;marker-end:none" />
                  <path
                     id="path24053"
                     stroke-miterlimit="79.8403193612775"
                     d="m 23.22,27.746 0.762,-0.11 0.34,-0.682 0.344,0.682 0.76,0.11 -0.552,0.532 0.132,0.749 -0.681,-0.353 -0.685,0.353 0.132,-0.749 -0.552,-0.532 z"
                     inkscape:connector-curvature="0"
                     style="fill-opacity:0.19607801;stroke-width:0.152;marker-start:none;marker-end:none" />
                  <path
                     id="path24055"
                     stroke-miterlimit="79.8403193612775"
                     d="m 23.525,27.813 0.552,-0.08 0.245,-0.494 0.248,0.494 0.551,0.08 -0.399,0.385 0.096,0.544 -0.493,-0.257 -0.495,0.257 0.095,-0.544 -0.4,-0.385 z"
                     inkscape:connector-curvature="0"
                     style="fill-opacity:0.29803898;stroke-width:0.109;marker-start:none;marker-end:none" />
                  <path
                     id="path24057"
                     stroke-miterlimit="79.8403193612775"
                     d="m 24.019,28.455 0.058,-0.336 -0.247,-0.238 0.34,-0.05 0.153,-0.305 0.154,0.305 0.341,0.05 -0.248,0.238 0.058,0.336 -0.303,-0.158 -0.306,0.158 z"
                     inkscape:connector-curvature="0"
                     style="fill-opacity:0.4;stroke-width:0.068;marker-start:none;marker-end:none" />
                </g>
                <g
                   id="Group_19"
                   style="fill:#fde973">
                  <path
                     id="path24060"
                     stroke-miterlimit="79.8403193612775"
                     d="m 24.374,30 c 1.035,0 1.876,-0.841 1.876,-1.876 0,-1.033 -0.841,-1.874 -1.876,-1.874 -1.035,0 -1.875,0.841 -1.875,1.874 0,1.035 0.84,1.876 1.875,1.876 z"
                     inkscape:connector-curvature="0"
                     style="fill-opacity:0.05490202;stroke-width:0.048;marker-start:none;marker-end:none" />
                  <path
                     id="path24062"
                     stroke-miterlimit="79.8403193612775"
                     d="m 24.374,26.665 c 0.806,0 1.458,0.654 1.458,1.459 0,0.807 -0.652,1.459 -1.458,1.459 -0.806,0 -1.458,-0.652 -1.458,-1.459 0,-0.805 0.652,-1.459 1.458,-1.459 z"
                     inkscape:connector-curvature="0"
                     style="fill-opacity:0.04313702;stroke-width:0.038;marker-start:none;marker-end:none" />
                  <path
                     id="path24064"
                     stroke-miterlimit="79.8403193612775"
                     d="m 24.374,27.083 c 0.574,0 1.041,0.467 1.041,1.041 0,0.576 -0.467,1.042 -1.041,1.042 -0.577,0 -1.042,-0.466 -1.042,-1.042 0,-0.574 0.465,-1.041 1.042,-1.041 z"
                     inkscape:connector-curvature="0"
                     style="fill-opacity:0.03137303;stroke-width:0.028;marker-start:none;marker-end:none" />
                  <path
                     id="path24066"
                     stroke-miterlimit="79.8403193612775"
                     d="m 24.374,28.75 c 0.345,0 0.625,-0.28 0.625,-0.626 0,-0.344 -0.28,-0.623 -0.625,-0.623 -0.345,0 -0.625,0.279 -0.625,0.623 0,0.346 0.28,0.626 0.625,0.626 z"
                     inkscape:connector-curvature="0"
                     style="fill-opacity:0.01960802;stroke-width:0.016;marker-start:none;marker-end:none" />
                </g>
              </g>
              <g
                 id="Group_20">
                <g
                   id="Group_21"
                   style="fill:#ffffff">
                  <path
                     id="path24070"
                     stroke-miterlimit="79.8403193612775"
                     d="m 28.323,27.339 0.099,-0.575 -0.421,-0.406 0.583,-0.084 0.26,-0.523 0.262,0.523 0.582,0.084 -0.421,0.406 0.099,0.575 -0.52,-0.271 -0.523,0.271 z"
                     inkscape:connector-curvature="0"
                     style="fill-opacity:0.09019602;stroke-width:0.116;marker-start:none;marker-end:none" />
                  <path
                     id="path24072"
                     stroke-miterlimit="79.8403193612775"
                     d="m 28.183,26.399 0.457,-0.066 0.204,-0.409 0.205,0.409 0.457,0.066 -0.331,0.319 0.078,0.448 -0.407,-0.211 -0.411,0.211 0.08,-0.448 -0.332,-0.319 z"
                     inkscape:connector-curvature="0"
                     style="fill-opacity:0.19607801;stroke-width:0.091;marker-start:none;marker-end:none" />
                  <path
                     id="path24074"
                     stroke-miterlimit="79.8403193612775"
                     d="m 28.366,26.439 0.331,-0.048 0.147,-0.296 0.148,0.296 0.331,0.048 -0.239,0.231 0.057,0.325 -0.295,-0.153 -0.297,0.153 0.057,-0.325 -0.24,-0.231 z"
                     inkscape:connector-curvature="0"
                     style="fill-opacity:0.29803898;stroke-width:0.065;marker-start:none;marker-end:none" />
                  <path
                     id="path24076"
                     stroke-miterlimit="79.8403193612775"
                     d="m 28.662,26.824 0.035,-0.202 -0.148,-0.142 0.204,-0.03 0.091,-0.183 0.093,0.183 0.204,0.03 -0.149,0.142 0.035,0.202 -0.181,-0.095 -0.184,0.095 z"
                     inkscape:connector-curvature="0"
                     style="fill-opacity:0.4;stroke-width:0.041;marker-start:none;marker-end:none" />
                </g>
                <g
                   id="Group_22"
                   style="fill:#fde973">
                  <path
                     id="path24079"
                     stroke-miterlimit="79.8403193612775"
                     d="m 28.875,27.75 c 0.621,0 1.125,-0.504 1.125,-1.125 0,-0.619 -0.504,-1.123 -1.125,-1.123 -0.621,0 -1.124,0.504 -1.124,1.123 0,0.621 0.503,1.125 1.124,1.125 z"
                     inkscape:connector-curvature="0"
                     style="fill-opacity:0.05490202;stroke-width:0.029;marker-start:none;marker-end:none" />
                  <path
                     id="path24081"
                     stroke-miterlimit="79.8403193612775"
                     d="m 28.875,25.751 c 0.483,0 0.875,0.392 0.875,0.874 0,0.484 -0.392,0.876 -0.875,0.876 -0.483,0 -0.875,-0.392 -0.875,-0.876 0,-0.482 0.392,-0.874 0.875,-0.874 z"
                     inkscape:connector-curvature="0"
                     style="fill-opacity:0.04313702;stroke-width:0.023;marker-start:none;marker-end:none" />
                  <path
                     id="path24083"
                     stroke-miterlimit="79.8403193612775"
                     d="m 28.875,26.001 c 0.344,0 0.624,0.28 0.624,0.624 0,0.346 -0.28,0.625 -0.624,0.625 -0.345,0 -0.625,-0.279 -0.625,-0.625 0,-0.344 0.28,-0.624 0.625,-0.624 z"
                     inkscape:connector-curvature="0"
                     style="fill-opacity:0.03137303;stroke-width:0.017;marker-start:none;marker-end:none" />
                  <path
                     id="path24085"
                     stroke-miterlimit="79.8403193612775"
                     d="m 28.875,27.001 c 0.207,0 0.375,-0.168 0.375,-0.376 0,-0.206 -0.168,-0.373 -0.375,-0.373 -0.207,0 -0.375,0.167 -0.375,0.373 0,0.208 0.168,0.376 0.375,0.376 z"
                     inkscape:connector-curvature="0"
                     style="fill-opacity:0.01960802;stroke-width:0.01;marker-start:none;marker-end:none" />
                </g>
              </g>
              <g
                 id="Group_23">
                <g
                   id="Group_24"
                   style="fill:#ffffff">
                  <path
                     id="path24089"
                     stroke-miterlimit="79.8403193612775"
                     d="m 6.954,17.314 0.165,-0.959 -0.702,-0.677 0.971,-0.14 0.435,-0.871 0.437,0.871 0.971,0.14 -0.701,0.677 0.165,0.959 -0.869,-0.452 -0.872,0.452 z"
                     inkscape:connector-curvature="0"
                     style="fill-opacity:0.09019602;stroke-width:0.193;marker-start:none;marker-end:none" />
                  <path
                     id="path24091"
                     stroke-miterlimit="79.8403193612775"
                     d="m 6.721,15.746 0.762,-0.11 0.34,-0.682 0.344,0.682 0.76,0.11 -0.552,0.532 0.132,0.749 -0.681,-0.353 -0.685,0.353 0.132,-0.749 -0.552,-0.532 z"
                     inkscape:connector-curvature="0"
                     style="fill-opacity:0.19607801;stroke-width:0.152;marker-start:none;marker-end:none" />
                  <path
                     id="path24093"
                     stroke-miterlimit="79.8403193612775"
                     d="m 7.026,15.813 0.552,-0.08 0.245,-0.494 0.248,0.494 0.551,0.08 -0.399,0.385 0.096,0.544 -0.493,-0.257 -0.495,0.257 0.095,-0.544 -0.4,-0.385 z"
                     inkscape:connector-curvature="0"
                     style="fill-opacity:0.29803898;stroke-width:0.109;marker-start:none;marker-end:none" />
                  <path
                     id="path24095"
                     stroke-miterlimit="79.8403193612775"
                     d="m 7.52,16.455 0.058,-0.336 -0.247,-0.238 0.34,-0.05 0.153,-0.305 0.154,0.305 0.341,0.05 -0.248,0.238 0.058,0.336 -0.303,-0.158 -0.306,0.158 z"
                     inkscape:connector-curvature="0"
                     style="fill-opacity:0.4;stroke-width:0.068;marker-start:none;marker-end:none" />
                </g>
                <g
                   id="Group_25"
                   style="fill:#fde973">
                  <path
                     id="path24098"
                     stroke-miterlimit="79.8403193612775"
                     d="M 7.875,18 C 8.91,18 9.751,17.159 9.751,16.124 9.751,15.091 8.91,14.25 7.875,14.25 6.84,14.25 6,15.091 6,16.124 6,17.159 6.84,18 7.875,18 z"
                     inkscape:connector-curvature="0"
                     style="fill-opacity:0.05490202;stroke-width:0.048;marker-start:none;marker-end:none" />
                  <path
                     id="path24100"
                     stroke-miterlimit="79.8403193612775"
                     d="m 7.875,14.665 c 0.806,0 1.458,0.654 1.458,1.459 0,0.807 -0.652,1.459 -1.458,1.459 -0.806,0 -1.458,-0.652 -1.458,-1.459 0,-0.805 0.652,-1.459 1.458,-1.459 z"
                     inkscape:connector-curvature="0"
                     style="fill-opacity:0.04313702;stroke-width:0.038;marker-start:none;marker-end:none" />
                  <path
                     id="path24102"
                     stroke-miterlimit="79.8403193612775"
                     d="m 7.875,15.083 c 0.574,0 1.041,0.467 1.041,1.041 0,0.576 -0.467,1.042 -1.041,1.042 -0.577,0 -1.042,-0.466 -1.042,-1.042 0,-0.574 0.465,-1.041 1.042,-1.041 z"
                     inkscape:connector-curvature="0"
                     style="fill-opacity:0.03137303;stroke-width:0.028;marker-start:none;marker-end:none" />
                  <path
                     id="path24104"
                     stroke-miterlimit="79.8403193612775"
                     d="m 7.875,16.75 c 0.345,0 0.625,-0.28 0.625,-0.626 0,-0.344 -0.28,-0.623 -0.625,-0.623 -0.345,0 -0.625,0.279 -0.625,0.623 0,0.346 0.28,0.626 0.625,0.626 z"
                     inkscape:connector-curvature="0"
                     style="fill-opacity:0.01960802;stroke-width:0.016;marker-start:none;marker-end:none" />
                </g>
              </g>
              <g
                 id="Group_26">
                <g
                   id="Group_27"
                   style="fill:#ffffff">
                  <path
                     id="path24108"
                     stroke-miterlimit="79.8403193612775"
                     d="m 12.573,15.338 0.099,-0.576 -0.419,-0.407 0.583,-0.084 0.26,-0.523 0.26,0.523 0.583,0.084 -0.421,0.407 0.098,0.576 -0.52,-0.272 -0.523,0.272 z"
                     inkscape:connector-curvature="0"
                     style="fill-opacity:0.09019602;stroke-width:0.117;marker-start:none;marker-end:none" />
                  <path
                     id="path24110"
                     stroke-miterlimit="79.8403193612775"
                     d="m 12.435,14.397 0.455,-0.066 0.206,-0.41 0.203,0.41 0.458,0.066 -0.332,0.32 0.078,0.448 -0.407,-0.212 -0.409,0.212 0.08,-0.448 -0.332,-0.32 z"
                     inkscape:connector-curvature="0"
                     style="fill-opacity:0.19607801;stroke-width:0.09;marker-start:none;marker-end:none" />
                  <path
                     id="path24112"
                     stroke-miterlimit="79.8403193612775"
                     d="m 12.618,14.436 0.329,-0.048 0.149,-0.296 0.147,0.296 0.331,0.048 -0.239,0.233 0.057,0.323 -0.296,-0.153 -0.296,0.153 0.057,-0.323 -0.239,-0.233 z"
                     inkscape:connector-curvature="0"
                     style="fill-opacity:0.29803898;stroke-width:0.066;marker-start:none;marker-end:none" />
                  <path
                     id="path24114"
                     stroke-miterlimit="79.8403193612775"
                     d="m 12.914,14.821 0.033,-0.2 -0.147,-0.143 0.203,-0.03 0.093,-0.183 0.093,0.183 0.203,0.03 -0.149,0.143 0.035,0.2 -0.182,-0.095 -0.182,0.095 z"
                     inkscape:connector-curvature="0"
                     style="fill-opacity:0.4;stroke-width:0.042;marker-start:none;marker-end:none" />
                </g>
                <g
                   id="Group_28"
                   style="fill:#fde973">
                  <path
                     id="path24117"
                     stroke-miterlimit="79.8403193612775"
                     d="m 13.126,15.748 c 0.622,0 1.124,-0.505 1.124,-1.124 0,-0.619 -0.502,-1.124 -1.124,-1.124 -0.622,0 -1.124,0.505 -1.124,1.124 0,0.619 0.502,1.124 1.124,1.124 z"
                     inkscape:connector-curvature="0"
                     style="fill-opacity:0.05490202;stroke-width:0.03;marker-start:none;marker-end:none" />
                  <path
                     id="path24119"
                     stroke-miterlimit="79.8403193612775"
                     d="m 13.126,13.748 c 0.484,0 0.876,0.392 0.876,0.876 0,0.484 -0.392,0.876 -0.876,0.876 -0.484,0 -0.876,-0.392 -0.876,-0.876 0,-0.484 0.392,-0.876 0.876,-0.876 z"
                     inkscape:connector-curvature="0"
                     style="fill-opacity:0.04313702;stroke-width:0.024;marker-start:none;marker-end:none" />
                  <path
                     id="path24121"
                     stroke-miterlimit="79.8403193612775"
                     d="m 13.126,13.999 c 0.344,0 0.625,0.281 0.625,0.625 0,0.344 -0.281,0.625 -0.625,0.625 -0.344,0 -0.625,-0.281 -0.625,-0.625 0,-0.344 0.281,-0.625 0.625,-0.625 z"
                     inkscape:connector-curvature="0"
                     style="fill-opacity:0.03137303;stroke-width:0.018;marker-start:none;marker-end:none" />
                  <path
                     id="path24123"
                     stroke-miterlimit="79.8403193612775"
                     d="m 13.126,14.998 c 0.206,0 0.374,-0.168 0.374,-0.374 0,-0.206 -0.168,-0.374 -0.374,-0.374 -0.206,0 -0.374,0.168 -0.374,0.374 0,0.206 0.168,0.374 0.374,0.374 z"
                     inkscape:connector-curvature="0"
                     style="fill-opacity:0.01960802;stroke-width:0.009;marker-start:none;marker-end:none" />
                </g>
              </g>
            </g>
          </g>
        </g>
      </g>
    </g>
  </g>
</svg>
