<?xml version="1.0" encoding="UTF-8"?>
<!DOCTYPE svg PUBLIC "-//W3C//DTD SVG 1.1//EN" "http://www.w3.org/Graphics/SVG/1.1/DTD/svg11.dtd">
<!-- Creator: CorelDRAW -->
<svg xmlns="http://www.w3.org/2000/svg" xml:space="preserve" width="32px" height="32px" style="shape-rendering:geometricPrecision; text-rendering:geometricPrecision; image-rendering:optimizeQuality; fill-rule:evenodd; clip-rule:evenodd"
viewBox="0 0 32 32"
 xmlns:xlink="http://www.w3.org/1999/xlink">
 <defs>
  <style type="text/css">
   <![CDATA[
    .fil25 {fill:black}
    .fil10 {fill:#191919}
    .fil28 {fill:white}
    .fil63 {fill:black}
    .fil50 {fill:#191919}
    .fil52 {fill:#2063A1}
    .fil53 {fill:#2A6BA8}
    .fil49 {fill:#636566}
    .fil51 {fill:#63A5DB}
    .fil55 {fill:#74E2FB}
    .fil54 {fill:#82E5FB}
    .fil26 {fill:#CBCBCB}
    .fil47 {fill:#CFCDCD}
    .fil42 {fill:#FDD425}
    .fil43 {fill:#191919;fill-rule:nonzero}
    .fil39 {fill:white;fill-rule:nonzero}
    .fil32 {fill:#808385;fill-rule:nonzero}
    .fil30 {fill:#787878;fill-rule:nonzero}
    .fil14 {fill:#292929;fill-opacity:0.000000}
    .fil56 {fill:#74E2FB;fill-opacity:0.000000}
    .fil48 {fill:#82E5FB;fill-opacity:0.000000}
    .fil0 {fill:black;fill-opacity:0.007843}
    .fil57 {fill:#74E2FB;fill-opacity:0.011765}
    .fil1 {fill:black;fill-opacity:0.019608}
    .fil58 {fill:#74E2FB;fill-opacity:0.027451}
    .fil2 {fill:black;fill-opacity:0.035294}
    .fil59 {fill:#74E2FB;fill-opacity:0.039216}
    .fil3 {fill:black;fill-opacity:0.047059}
    .fil15 {fill:#292929;fill-opacity:0.047059}
    .fil60 {fill:#74E2FB;fill-opacity:0.054902}
    .fil4 {fill:black;fill-opacity:0.058824}
    .fil61 {fill:#74E2FB;fill-opacity:0.066667}
    .fil5 {fill:black;fill-opacity:0.070588}
    .fil62 {fill:#74E2FB;fill-opacity:0.078431}
    .fil6 {fill:black;fill-opacity:0.082353}
    .fil7 {fill:black;fill-opacity:0.094118}
    .fil16 {fill:#292929;fill-opacity:0.098039}
    .fil8 {fill:black;fill-opacity:0.105882}
    .fil9 {fill:black;fill-opacity:0.121569}
    .fil38 {fill:#191919;fill-rule:nonzero;fill-opacity:0.121569}
    .fil17 {fill:#292929;fill-opacity:0.145098}
    .fil18 {fill:#292929;fill-opacity:0.196078}
    .fil41 {fill:#191919;fill-rule:nonzero;fill-opacity:0.219608}
    .fil29 {fill:#666666;fill-rule:nonzero;fill-opacity:0.219608}
    .fil19 {fill:#292929;fill-opacity:0.243137}
    .fil20 {fill:#292929;fill-opacity:0.294118}
    .fil21 {fill:#292929;fill-opacity:0.341176}
    .fil22 {fill:#292929;fill-opacity:0.392157}
    .fil23 {fill:black;fill-opacity:0.439216}
    .fil37 {fill:url(#id0)}
    .fil46 {fill:url(#id1)}
    .fil24 {fill:url(#id2)}
    .fil13 {fill:url(#id3)}
    .fil11 {fill:url(#id4)}
    .fil12 {fill:url(#id5)}
    .fil27 {fill:url(#id6);fill-rule:nonzero}
    .fil35 {fill:url(#id7);fill-rule:nonzero}
    .fil36 {fill:url(#id8);fill-rule:nonzero}
    .fil40 {fill:url(#id9);fill-rule:nonzero}
    .fil33 {fill:url(#id10);fill-rule:nonzero}
    .fil44 {fill:url(#id11);fill-rule:nonzero}
    .fil34 {fill:url(#id12);fill-rule:nonzero}
    .fil45 {fill:url(#id13);fill-rule:nonzero}
    .fil31 {fill:url(#id14);fill-rule:nonzero}
   ]]>
  </style>
  <linearGradient id="id0" gradientUnits="userSpaceOnUse" x1="8.56105" y1="20.6809" x2="15.7437" y2="24.6638">
   <stop offset="0" style="stop-color:#7A7A7A"/>
   <stop offset="0.368627" style="stop-color:white"/>
   <stop offset="1" style="stop-color:white"/>
  </linearGradient>
  <linearGradient id="id1" gradientUnits="userSpaceOnUse" x1="14.3924" y1="17.2875" x2="18.9564" y2="16.541">
   <stop offset="0" style="stop-color:#7A7A7A"/>
   <stop offset="0.2" style="stop-color:white"/>
   <stop offset="0.788235" style="stop-color:white"/>
   <stop offset="1" style="stop-color:#7A7A7A"/>
  </linearGradient>
  <linearGradient id="id2" gradientUnits="userSpaceOnUse" x1="3.29426" y1="27.5919" x2="6.11959" y2="27.5919">
   <stop offset="0" style="stop-color:#222324"/>
   <stop offset="0.160784" style="stop-color:#414142"/>
   <stop offset="0.760784" style="stop-color:#414142"/>
   <stop offset="1" style="stop-color:#242424"/>
  </linearGradient>
  <linearGradient id="id3" gradientUnits="userSpaceOnUse" x1="29.7794" y1="27.436" x2="29.1888" y2="27.436">
   <stop offset="0" style="stop-color:#191919"/>
   <stop offset="1" style="stop-color:#373738"/>
  </linearGradient>
  <linearGradient id="id4" gradientUnits="userSpaceOnUse" x1="18.1296" y1="26.3517" x2="18.1296" y2="28.8581">
   <stop offset="0" style="stop-color:#333333"/>
   <stop offset="1" style="stop-color:#444445"/>
  </linearGradient>
  <linearGradient id="id5" gradientUnits="userSpaceOnUse" x1="26.5773" y1="29.8326" x2="26.5147" y2="29.19">
   <stop offset="0" style="stop-color:#437EB4"/>
   <stop offset="1" style="stop-color:#414141"/>
  </linearGradient>
  <linearGradient id="id6" gradientUnits="userSpaceOnUse" x1="16.4406" y1="26.4663" x2="16.4406" y2="0.216152">
   <stop offset="0" style="stop-color:#7F7F7F"/>
   <stop offset="1" style="stop-color:#999999"/>
  </linearGradient>
  <linearGradient id="id7" gradientUnits="userSpaceOnUse" x1="25.5331" y1="2.38476" x2="26.1355" y2="12.7459">
   <stop offset="0" style="stop-color:#8B8B8B"/>
   <stop offset="1" style="stop-color:#8B8B8B"/>
  </linearGradient>
  <linearGradient id="id8" gradientUnits="userSpaceOnUse" x1="9.35715" y1="25.2131" x2="23.8925" y2="20.3727">
   <stop offset="0" style="stop-color:#595959"/>
   <stop offset="0.129412" style="stop-color:white"/>
   <stop offset="0.768627" style="stop-color:white"/>
   <stop offset="1" style="stop-color:#7A7A7A"/>
  </linearGradient>
  <linearGradient id="id9" gradientUnits="userSpaceOnUse" x1="26.8608" y1="18.0694" x2="27.5376" y2="14.37">
   <stop offset="0" style="stop-color:#969494"/>
   <stop offset="1" style="stop-color:#666666"/>
  </linearGradient>
  <linearGradient id="id10" gradientUnits="userSpaceOnUse" x1="7.53226" y1="20.6656" x2="6.38653" y2="18.7261">
   <stop offset="0" style="stop-color:#7A7A7A"/>
   <stop offset="1" style="stop-color:#969494"/>
  </linearGradient>
  <linearGradient id="id11" gradientUnits="userSpaceOnUse" x1="19.5577" y1="15.5771" x2="19.149" y2="16.4276">
   <stop offset="0" style="stop-color:#969494"/>
   <stop offset="1" style="stop-color:#7A7A7A"/>
  </linearGradient>
  <linearGradient id="id12" gradientUnits="userSpaceOnUse" x1="25.252" y1="20.5935" x2="26.5442" y2="19.2565">
   <stop offset="0" style="stop-color:#777777"/>
   <stop offset="1" style="stop-color:#969494"/>
  </linearGradient>
  <linearGradient id="id13" gradientUnits="userSpaceOnUse" xlink:href="#id10" x1="14.1302" y1="16.1335" x2="13.8125" y2="15.7083">
  </linearGradient>
  <linearGradient id="id14" gradientUnits="userSpaceOnUse" xlink:href="#id7" x1="15.2913" y1="2.35287" x2="17.8993" y2="3.03322">
  </linearGradient>
 </defs>
 <g id="Слой_x0020_1">
  <metadata id="CorelCorpID_0Corel-Layer"/>
  <g id="_126080032">
   <path id="_126869432" class="fil0" d="M15.0704 9.69024c11.4809,-0.465377 15.6894,11.8435 17.0524,18.458l0 3.87539 -31.5771 0c-0.0106304,-2.61155 0.0862247,-21.7487 14.5247,-22.3334z"/>
   <g>
    <path id="_128079864" class="fil1" d="M15.1047 9.8934c13.6944,-0.538609 16.4441,18.6706 16.8138,20.9184 0.170087,0.451203 0.232689,0.870515 0.186623,1.21187l-31.3445 0c0.0153551,-2.41429 0.649638,-21.607 14.344,-22.1302z"/>
    <path id="_67884576" class="fil2" d="M15.1401 10.0966c12.4353,-0.471283 15.3161,16.8906 15.9965,19.4525 0.44766,0.944928 0.666175,1.86269 0.608298,2.47453l-30.7704 0c0.0248044,-2.18987 1.21305,-21.4664 14.1657,-21.9271z"/>
    <path id="_128583128" class="fil3" d="M15.1744 10.2985c11.1785,-0.403957 14.1905,15.1106 15.1791,17.9867 0.759486,1.46228 1.17644,2.91983 1.11383,3.73837l-30.2802 0c0.0200797,-1.96191 1.7871,-21.327 13.9873,-21.7251z"/>
    <path id="_62535176" class="fil4" d="M15.2098 10.5017c9.91939,-0.336631 13.0648,13.3306 14.3617,16.5209 1.08903,1.99616 1.72922,4.0313 1.65362,5.00103l-29.8243 0c-0.0141739,-1.65008 2.34578,-21.1877 13.8089,-21.5219z"/>
    <path id="_129308416" class="fil5" d="M15.2441 10.7049c8.66263,-0.269305 11.938,11.5506 13.5444,15.0551 1.43629,2.54894 2.31271,5.18648 2.21113,6.26369l-29.3766 0 -0.0106304 -0.0118116c-0.0543334,-1.42212 2.94936,-21.0376 13.6318,-21.307z"/>
    <path id="_63164720" class="fil6" d="M15.2783 10.908c7.4047,-0.201978 10.8123,9.77056 12.727,13.5893 1.79536,3.11944 2.91983,6.38535 2.77691,7.52635l-28.6715 0c-0.178355,-0.0188986 -0.277573,-0.0389783 -0.28466,-0.0578769 -0.066145,-1.41739 3.6238,-20.8558 13.4522,-21.0577z"/>
    <path id="_129620664" class="fil7" d="M15.3137 11.11c6.14794,-0.134652 9.68788,7.99055 11.9096,12.1234 2.16861,3.70884 3.54821,7.62793 3.34505,8.7902l-27.2257 0c-0.805551,-0.0342537 -1.2851,-0.0685073 -1.30282,-0.102761 -0.0767754,-1.41267 4.29824,-20.6762 13.2739,-20.8109z"/>
    <path id="_129605856" class="fil8" d="M15.3492 11.3132c4.88882,-0.0673261 8.55987,6.21054 11.0923,10.6576 2.52768,4.27462 4.16477,8.82445 3.92027,10.0174 -0.0909494,0.0129928 -0.218515,0.0236232 -0.380334,0.0354348l-23.6988 0c-2.38476,-0.0472464 -3.99468,-0.100399 -4.02894,-0.148826 -0.088587,-1.40794 4.97269,-20.4943 13.0955,-20.5616z"/>
   </g>
   <path id="_127390592" class="fil9" d="M15.3799 11.5163c7.26886,0 15.211,17.7257 14.7893,20.3668 -0.0106304,0.0673261 -1.0158,0.113391 -2.63281,0.140558l-14.2353 0c-5.74989,-0.0472464 -10.7722,-0.129928 -10.836,-0.192529 -0.100399,-1.4044 5.64713,-20.3148 12.9148,-20.3148z"/>
  </g>
  <path class="fil10" d="M3.60136 25.9548l25.78 0c0.338993,0 0.616566,0.31537 0.616566,0.682711l0 2.93755c0,0.915399 -0.209065,1.42802 -1.17644,1.42802l-15.1933 0 -9.38314 0c-0.719327,0 -1.29101,-0.158276 -1.28392,-1.10202l0.0248044 -3.26355c0.00236232,-0.374428 0.276392,-0.682711 0.615385,-0.682711z"/>
  <path class="fil11" d="M6.30622 25.1953l23.0444 0c0.338993,0 0.616566,0.310645 0.616566,0.683892l0 3.45135c0,0.00826812 0,0.0236232 0,0.0354348 -0.229145,0.219696 -0.485457,0.437029 -0.760667,0.648457l-11.0592 0 -3.95807 -0.00236232c-4.251,-0.179536 -7.62439,-2.97534 -7.62439,-2.97534 -0.192529,-0.67208 -0.271667,-1.28392 -0.258674,-1.84143z"/>
  <path class="fil12" d="M27.7289 28.818c0.00472464,0.0354348 0.00944928,0.0708696 0.00944928,0.106304 0,0.0543334 -0.00708696,0.106304 -0.0177174,0.157094 -0.0059058,0.0649638 -0.0212609,0.131109 -0.0437029,0.191348 0.0248044,-0.0578769 0.0425218,-0.116935 0.0519711,-0.178355 0.00472464,0.0354348 0.00944928,0.0708696 0.00944928,0.107486 0,0.0531522 -0.00708696,0.105123 -0.0177174,0.155913 -0.0401595,0.474827 -0.553964,0.846892 -1.18116,0.846892 -0.655544,0 -1.18589,-0.405138 -1.18589,-0.90595 0,-0.0354348 0.00354348,-0.0696885 0.00826812,-0.106304l0.0059058 0.0437029 0 -0.0342537 0.00118116 -0.0342537c-0.00944928,-0.0472464 -0.0153551,-0.095674 -0.0153551,-0.145283 0,-0.0354348 0.00354348,-0.0696885 0.00826812,-0.106304l0.0059058 0.0437029 0 -0.0354348c0,-0.0354348 0.00472464,-0.0708696 0.00944928,-0.106304 0.0685073,0.450022 0.570501,0.799646 1.17525,0.799646 0.607116,0 1.10675,-0.349624 1.17644,-0.799646z"/>
  <polygon class="fil13" points="29.8338,29.5798 29.4144,29.8255 29.0069,29.8255 29.0069,25.0465 29.9613,25.0465 29.9613,29.2337 "/>
  <g id="_130166000">
   <path id="_68841992" class="fil14" d="M15.0244 25.78l0.351986 4.92308c-3.92618,0.285841 -7.38107,-2.02333 -8.4453,-2.81825 0.175993,-0.759486 0.349624,-1.49653 0.490182,-2.10483l7.60313 0z"/>
   <g>
    <path id="_130206560" class="fil15" d="M14.5649 25.78l0.334268 4.94552c-3.77263,0.0791378 -7.02672,-2.13199 -8.00472,-2.86904 0.164181,-0.750037 0.327181,-1.47645 0.45829,-2.07648l7.21217 0z"/>
    <path id="_130226792" class="fil16" d="M14.1042 25.78l0.316551 4.94316c-3.61671,-0.105123 -6.67474,-2.21822 -7.56415,-2.89502 0.153551,-0.739406 0.305921,-1.45519 0.42758,-2.04813l6.82002 0z"/>
    <path id="_130211416" class="fil17" d="M13.6436 25.78l0.297652 4.91717c-3.45844,-0.269305 -6.32157,-2.28318 -7.1224,-2.89739 0.14292,-0.729957 0.283479,-1.43511 0.39687,-2.01978l6.42788 0z"/>
    <path id="_130274856" class="fil18" d="M13.1829 25.78l0.276392 4.86874c-3.29662,-0.413406 -5.97077,-2.33043 -6.67946,-2.87967 0.13229,-0.718146 0.262218,-1.41267 0.367341,-1.98907l6.03573 0z"/>
    <path id="_130274208" class="fil19" d="M12.7235 25.78l0.25395 4.79669c-3.13598,-0.537428 -5.62351,-2.3576 -6.23653,-2.83833 0.12166,-0.707515 0.240957,-1.38904 0.337812,-1.95836l5.64477 0z"/>
    <path id="_67885736" class="fil20" d="M12.2628 25.78l0.232689 4.70338c-2.97889,-0.643732 -5.28569,-2.37177 -5.79477,-2.77573 0.111029,-0.696885 0.220877,-1.36778 0.309464,-1.92765l5.25262 0z"/>
    <path id="_130200416" class="fil21" d="M11.8022 25.78l0.209065 4.58763c-2.82888,-0.737044 -4.95969,-2.37768 -5.35066,-2.69305l0.281116 -1.89458 4.86048 0z"/>
    <path id="_130161744" class="fil22" d="M11.3427 25.78l0.186623 4.45179c-2.70722,-0.822088 -4.6774,-2.39894 -4.91008,-2.59028l0.25395 -1.86151 4.46951 0z"/>
   </g>
   <path id="_130160000" class="fil23" d="M10.882 25.78l0.164181 4.2947c-2.62808,-0.911856 -4.45061,-2.45327 -4.45061,-2.45327l-0.0141739 -0.0496087 0.223239 -1.79182 4.07737 0z"/>
  </g>
  <path class="fil24" d="M6.31567 25.2249c0.0708696,0.088587 0.114573,0.199616 0.114573,0.31537l0 3.8931c0,0.283479 -0.261036,0.525616 -0.568138,0.525616l-2.61273 0c-0.161819,-0.125203 -0.265761,-0.314189 -0.265761,-0.525616l0 -3.52458c0,-0.375609 0.239776,-0.683892 0.643732,-0.683892l2.68832 0z"/>
  <path class="fil25" d="M3.00605 26.7745l26.406 0c0.177174,0 0.338993,0.059058 0.460653,0.155913l0 0.931936c-0.10158,0.0437029 -0.220877,0.0637827 -0.362616,0.0626015l-13.2692 0 -1.29691 0 -11.7856 0c-0.115754,-0.411044 -0.163,-0.79374 -0.15237,-1.15045z"/>
  <path class="fil26" d="M17.7245 26.2336l-1.19415 0 -12.3502 0c-0.608298,-0.184261 -0.637827,-0.0377971 -0.655544,-0.589399 0.635464,-8.19725 1.27211,-16.3945 1.90757,-24.5906 0.00236232,-0.316551 0.178355,-0.500812 0.526798,-0.553964 7.37517,0 14.7492,0 22.1243,0 0.39687,0.0531522 0.644914,0.26458 0.745312,0.633102 0.629559,8.10749 1.25794,16.2162 1.88631,24.3236 -0.0248044,0.523254 -0.246863,0.781928 -0.667356,0.777204l-12.323 0z"/>
  <path class="fil26" d="M2.46744 25.2851c0.62129,-8.00236 1.31227,-16.0047 1.93356,-24.0083 0.0389783,-0.510261 0.164181,-0.777204 0.716964,-0.777204 7.23225,0 15.4803,0 22.7137,0 0.648457,0 0.972095,0.29529 1.02643,1.01344 0.611841,7.9811 0.988631,15.9622 1.60756,23.9433 -0.0248044,0.522073 -0.246863,0.781928 -0.667356,0.777204 -8.41459,0 -17.8426,0 -26.2572,0 -0.705153,0 -1.14454,-0.0342537 -1.07367,-0.948472z"/>
  <path class="fil27" d="M1.96899 25.2485c0.314189,-4.04666 0.64137,-8.02126 0.966189,-11.997 0.329544,-4.02539 0.659088,-8.10276 0.96737,-12.062 0.0271667,-0.351986 0.0933117,-0.631921 0.27521,-0.857523 0.204341,-0.25395 0.497269,-0.383877 0.940204,-0.383877l22.7137 0c0.457109,0 0.81382,0.120478 1.08194,0.379153 0.261036,0.251587 0.406319,0.614203 0.442935,1.09848 0.297652,3.89901 0.545696,7.90314 0.790196,11.8518 0.250406,4.0313 0.501993,8.06496 0.817363,12.1423l0 0.0602392c-0.0177174,0.372066 -0.120478,0.670899 -0.305921,0.88587l0.00118116 0.00118116c-0.209065,0.245681 -0.499631,0.367341 -0.861066,0.364979l0 0.00236232 -26.2572 0c-0.433486,0 -0.792559,-0.0141739 -1.09966,-0.21379 -0.348442,-0.225602 -0.523254,-0.602392 -0.472464,-1.27211zm1.96309 -11.9191c-0.328363,4.01831 -0.660269,8.04607 -0.966189,11.9923 -0.0177174,0.242138 -0.00826812,0.344899 0.0188986,0.362616 0.0696885,0.0448841 0.265761,0.415768 0.536247,0.415768l26.2773 -0.184261 0.00354348 -0.180718c0.0531522,0 0.0897682,0.175993 0.0992175,0.165362l0.00236232 -0.184261c0.0318913,-0.036616 0.0531522,-0.122841 0.0614203,-0.249225 -0.310645,-4.01122 -0.563414,-8.07087 -0.815001,-12.1305 -0.242138,-3.91082 -0.487819,-7.87716 -0.790196,-11.8376 -0.0165362,-0.230326 -0.0637827,-0.381515 -0.138196,-0.453566 -0.066145,-0.0637827 -0.197254,-0.095674 -0.389783,-0.095674l-22.7137 0c-0.108667,0 -0.158276,0.00354348 -0.163,0.00944928l0 0.00118116c-0.0271667,0.0330725 -0.0437029,0.144102 -0.0555145,0.302377 -0.314189,4.04666 -0.64137,8.08741 -0.96737,12.0667z"/>
  <path class="fil28" d="M3.61671 26.6375l-0.00236232 0 0.0141739 -0.668537 12.9349 0 1.19415 0 11.2671 0 0.0153551 0.668537 -0.00236232 0 0.00236232 0.095674 -0.00472464 0 0.00472464 0.19371 -0.00236232 0 0.00236232 0.095674 -11.358 0 -1.19297 0 -12.8746 0 0.00236232 -0.095674 -0.00236232 0 0.00472464 -0.19371 -0.00472464 0 0.00236232 -0.095674zm26.7131 -0.359073l0.00118116 0 -0.0059058 0.0259855 0.00472464 -0.0259855zm0.0106304 0l0.00354348 0 -0.0165362 0.0673261 0.0129928 -0.0673261zm0.0507899 0l0 0 0 0.00472464 0 -0.00472464zm-0.0614203 -0.0968552l0.00118116 0 -0.0059058 0.0271667 0.00472464 -0.0271667zm0.0106304 0l0.00354348 0 -0.0165362 0.0685073 0.0129928 -0.0685073zm0.0507899 0l0 0 0 0.00472464 0 -0.00472464zm-0.0614203 -0.192529l0.00118116 0 -0.0059058 0.0259855 0.00472464 -0.0259855zm0.0106304 0l0.00354348 0 -0.0165362 0.0673261 0.0129928 -0.0673261zm0.0507899 0l0 0 0 0.00472464 0 -0.00472464zm-0.0614203 -0.0968552l0.00118116 0 -0.0059058 0.0271667 0.00472464 -0.0271667zm0.0106304 0l0.00354348 0 -0.0165362 0.0673261 0.0129928 -0.0673261zm0.0507899 0l0 0 0 0.00472464 0 -0.00472464z"/>
  <path class="fil29" d="M17.5686 25.9631l-1.19415 0 -12.4211 0 -0.0354348 -0.00708696c-0.126384,-0.0377971 -0.231507,-0.0626015 -0.313008,-0.0815001 -0.342537,-0.0779566 -0.400413,-0.0933117 -0.420493,-0.465377l0.0165362 0c-0.00708696,-0.0472464 -0.0129928,-0.105123 -0.0165362,-0.173631l0.0413406 0 -0.00236232 -0.0330725c-0.022442,-0.059058 -0.0330725,-0.141739 -0.0389783,-0.261036l0.0165362 0c-0.00708696,-0.0472464 -0.0129928,-0.105123 -0.0165362,-0.173631l0.0413406 0 -0.00472464 -0.073232 0.242138 0c0.0153551,0.180718 0.059058,0.190167 0.231507,0.230326 0.0803189,0.0188986 0.181899,0.0413406 0.309464,0.0803189l12.4069 0 1.19297 0 12.075 0 0.00118116 0.00118116c0.172449,0.00118116 0.303558,-0.0496087 0.389783,-0.148826l0 0c0.0165362,-0.0212609 0.0318913,-0.0413406 0.0460653,-0.0649638l0.00944928 -0.0248044 0.00354348 0c0.0118116,-0.022442 0.022442,-0.0472464 0.0330725,-0.073232l0.19371 0c-0.0177174,0.0626015 -0.0259855,0.12166 -0.036616,0.173631l0.036616 0c-0.0330725,0.114573 -0.0318913,0.212609 -0.0838624,0.294109l0.0838624 0c-0.0177174,0.0626015 -0.0259855,0.12166 -0.036616,0.173631l0.036616 0c-0.0342537,0.118116 -0.0318913,0.218515 -0.088587,0.301196 -0.0118116,0.0330725 -0.0271667,0.0637827 -0.0519711,0.0921305l0.00118116 0c-0.135833,0.155913 -0.328363,0.235051 -0.574044,0.232689l0 0.00118116 -12.0738 0z"/>
  <path class="fil30" d="M16.6544 8.05906c0.827994,0 1.50125,0.0519711 2.16743,0.148826 0.615385,0.0838624 1.03588,0.150007 1.6052,0.298834l1.46228 -2.97298 -14.3995 0c-0.0129928,0 -0.0307102,-0.00118116 -0.0543334,-0.00236232 -0.214971,-0.0153551 -0.393326,-0.118116 -0.520892,-0.27521 -0.33545,-0.682711 -0.0968552,-1.1599 -0.137015,-2.49343 0.0153551,-0.227964 0.105123,-0.437029 0.246863,-0.587037 0.146464,-0.155913 0.341355,-0.251587 0.565776,-0.251587l18.2052 0c0.22442,0 0.42758,0.0968552 0.574044,0.255131 0.148826,0.157094 0.239776,0.373247 0.239776,0.613022 0,2.50052 0.382696,7.08106 0.577587,9.4422 0.0153551,0.19371 0.0307102,0.372066 0.0496087,0.601211 0.298834,0.49845 0.533885,1.01934 0.694522,1.56149 0.168906,0.565776 0.256312,1.15281 0.256312,1.7552 0,2.32452 -1.36306,4.82386 -3.48679,6.32748 -2.07176,1.467 -4.92662,2.37295 -8.07087,2.37295 -3.14543,0 -6.0003,-0.90595 -8.07205,-2.37295 -2.08239,-1.50362 -3.20921,-4.00295 -3.38521,-6.32748 0,-2.32571 1.06068,-4.36675 3.18323,-5.87037 2.07176,-1.46582 5.15458,-2.22294 8.29883,-2.22294zm2.06467 1.02525c-0.660269,-0.0897682 -1.35007,-0.137015 -2.06467,-0.137015 -2.97889,0 -5.64595,0.648457 -7.58778,2.02333 -1.89222,1.33944 -3.06275,3.1726 -3.06275,5.18175 0,2.00797 1.11974,4.24863 3.01196,5.58807 1.94183,1.37487 4.6585,2.02451 7.63856,2.02451 2.97889,0 5.64713,-0.649638 7.58896,-2.02451 1.89104,-1.33944 3.11236,-3.5801 3.11236,-5.58807 0,-0.510261 -0.0744131,-1.00871 -0.217334,-1.48944 -0.148826,-0.49845 -0.369703,-0.979182 -0.653182,-1.43511l-0.0602392 -0.0944928 -0.00944928 -0.11221c-0.00826812,-0.114573 -0.0307102,-0.392145 -0.0578769,-0.709877 -0.194891,-2.36823 -0.578769,-6.95704 -0.581131,-9.49889l-18.1686 0c-0.00118116,0.00236232 -0.00118116,0.0059058 -0.00236232,0.00944928l-0.171268 2.22649 14.644 0 0.235051 0 0.12166 0.21379 0.206703 0.364979 0.126384 0.223239 -0.122841 0.227964 -1.65835 3.16197 -0.158276 0.29529 -0.307102 -0.0874059c-0.636646,-0.181899 -1.12565,-0.270486 -1.80245,-0.363797z"/>
  <path class="fil31" d="M6.94404 3.41237l0.0342537 -0.373247c-0.141739,-0.309464 0.327181,-1.03942 0.839805,-1.0406l17.7729 -0.0248044c0.218515,0 0.367341,0.343718 0.511442,0.497269 0.14292,0.15237 0.232689,0.363797 0.232689,0.597667 0,0.188986 0.0141739,0.129928 0.0188986,0.343718l-0.810276 0c-0.00472464,-0.206703 -0.0188986,-0.141739 -0.0188986,-0.326l-17.6902 0c-0.00118116,0.00354348 -0.00118116,0.0059058 -0.00118116,0.0106304l-0.029529 0.31537 -0.859885 0z"/>
  <path class="fil32" d="M7.3043 5.9625c-0.036616,-0.0307102 -0.119297,-0.066145 -0.150007,-0.103942 -0.196073,-0.145283 -0.373247,-0.836262 -0.285841,-1.04296l-0.00236232 0c0,-0.604754 0.0791378,-1.15872 0.0992175,-1.7871 0.0141739,-0.222058 0.164181,-0.0685073 0.302377,-0.214971 0.059058,-0.0637827 0.127565,-0.116935 0.20316,-0.157094 0.204341,0.179536 0.373247,0.333087 0.373247,0.333087l-0.0377971 0.882327 -0.102761 0.685073 -0.399232 1.40558z"/>
  <path class="fil33" d="M7.64801 21.7145c-0.98745,-0.904769 -1.64654,-2.36941 -2.06113,-3.53994l0.564595 -0.497269c0.344899,1.15517 1.13982,2.21349 2.18042,3.09818l-0.683892 0.939023z"/>
  <path class="fil34" d="M24.8103 22.0003c0.0637827,-0.0566957 0.431124,0.0377971 0.505537,-0.0153551 1.10911,-0.900044 1.89104,-2.32807 2.35405,-3.52222l-0.734682 -0.654363c-0.409863,1.1788 -1.23904,2.24775 -2.37295,3.12535 -0.0767754,0.0779566 -0.354348,0.499631 -0.435848,0.568138l0.63074 0.538609 0.0531522 -0.0401595z"/>
  <path class="fil35" d="M24.6154 2.11664l0.92603 0c0.219696,0 0.41695,0.0944928 0.561051,0.248044 0.14292,0.15237 0.232689,0.363797 0.232689,0.596486 0,2.43437 0.385058,7.0031 0.574044,9.30164 0.0153551,0.188986 0.0307102,0.362616 0.0484276,0.585856 0.0330725,0.0543334 0.0649638,0.109848 0.0968552,0.165362 -0.314189,-0.022442 -0.635464,-0.0401595 -0.900044,-0.0543334l-0.0519711 -0.622472c-0.190167,-2.30563 -0.576406,-6.88144 -0.577587,-9.35715l-0.83508 0 -0.0744131 -0.863428z"/>
  <path class="fil36" d="M25.2886 22.1527c-0.133471,0.103942 -0.270486,0.206703 -0.411044,0.307102 -2.01742,1.42802 -5.18529,2.37768 -8.24686,2.37768 -3.06275,0 -5.79241,-1.37015 -7.80983,-2.79817 -0.2445,-0.177174 -0.640189,-0.50908 -0.859885,-0.70279l0.578769 -0.588218c0.227964,0.199616 0.471283,0.390964 0.727595,0.571682 1.89104,1.33825 4.53566,1.97018 7.43659,1.97018 2.90211,0 5.4983,-0.631921 7.38816,-1.97018 0.111029,-0.0791378 0.219696,-0.158276 0.326,-0.240957l0.870515 1.07367z"/>
  <path class="fil37" d="M16.5422 23.4389l-0.073232 1.35715c-3.05684,-0.00236232 -5.83139,-0.884689 -7.84645,-2.31035 -0.2445,-0.177174 -0.640189,-0.50908 -0.859885,-0.70279l0.429942 -1.23313c0.227964,0.199616 0.471283,0.390964 0.727595,0.571682 1.88868,1.33589 4.72582,2.31507 7.62203,2.31744z"/>
  <path class="fil38" d="M21.5467 6.9842l-13.9885 -0.00826812c-0.0118116,0 -0.36616,-0.0815001 -0.480732,-0.187805l0.390964 -0.789015 0.133471 -0.0248044 -0.00118116 0.0141739 14.259 0 0.0944928 0 0.0318913 0.0626015 -0.439392 0.933117z"/>
  <path class="fil39" d="M21.6483 6.06762l-13.9885 -0.00826812c-0.0118116,0 -0.36616,-0.0815001 -0.480732,-0.187805l0.390964 -0.789015 0.133471 -0.0248044 -0.00118116 0.0141739 14.259 0 0.0944928 0 0.0318913 0.0626015 -0.439392 0.933117z"/>
  <path class="fil40" d="M27.3321 12.9798l0.00354348 0.0059058 0.00708696 0.0118116 0.0059058 0.0106304 0.00708696 0.0129928 0.0059058 0.00944928 0.00708696 0.0129928 0.0059058 0.0106304 0.0059058 0.0118116 0.00708696 0.0118116 0.0059058 0.0118116 0.0059058 0.0106304 0.00708696 0.0118116 0.0059058 0.0118116 0.0059058 0.0106304 0.00708696 0.0118116 0.0059058 0.0118116 0.0059058 0.0118116 0.0059058 0.0106304 0.00708696 0.0118116 0.0059058 0.0118116 0.0059058 0.0118116 0.0059058 0.0106304 0.0059058 0.0129928 0.0059058 0.0106304 0.0059058 0.0118116 0.0059058 0.0106304 0.0059058 0.0129928 0.0059058 0.0106304 0.0059058 0.0129928 0.0059058 0.00944928 0.00708696 0.0141739 0.00472464 0.00944928 0.0059058 0.0141739 0.00472464 0.00944928 0.00708696 0.0141739 0.00472464 0.00944928 0.00708696 0.0141739 0.00354348 0.00826812 0.00708696 0.0141739 0.00472464 0.00944928 0.00708696 0.0141739 0.00354348 0.00944928 0.00708696 0.0141739 0.00472464 0.00826812 0.00708696 0.0153551 0.00354348 0.00826812 0.00708696 0.0153551 0.00354348 0.00826812 0.00708696 0.0153551 0.00354348 0.00826812 0.00708696 0.0153551 0.00354348 0.00826812 0.00708696 0.0165362 0.00354348 0.00708696 0.00708696 0.0165362 0.00354348 0.00708696 0.00708696 0.0165362 0.00354348 0.00708696 0.00708696 0.0165362 0.00236232 0.00708696 0.00826812 0.0165362 0.00236232 0.00708696 0.00708696 0.0177174 0.00236232 0.0059058 0.00826812 0.0177174 0.00236232 0.0059058 0.00708696 0.0177174 0.00236232 0.0059058 0.00708696 0.0177174 0.00236232 0.0059058 0.00826812 0.0188986 0.00236232 0.00472464 0.00708696 0.0188986 0.00236232 0.0059058 0.00708696 0.0188986 0.00236232 0.00472464 0.00708696 0.0188986 0.00236232 0.00472464 0.00708696 0.0188986 0.00118116 0.00472464 0.00826812 0.0200797 0.00118116 0.00472464 0.00708696 0.0200797 0.00236232 0.00354348 0.00708696 0.0200797 0.00118116 0.00354348 0.00826812 0.0212609 0.00118116 0.00236232 0.00708696 0.0212609 0.00118116 0.00354348 0.00826812 0.0212609 0.00118116 0.00236232 0.00708696 0.0212609 0.00118116 0.00354348 0.00708696 0.0212609 0.00118116 0.00236232 0.00708696 0.022442 0.00118116 0.00236232 0.00708696 0.0212609 0.00118116 0.00236232 0.00708696 0.022442 0.00118116 0.00236232 0.00708696 0.022442 0.00118116 0.00118116 0.00708696 0.0236232 0 0.00118116 0.00826812 0.022442 0 0.00118116 0.00708696 0.0236232 0 0.00118116 0.00826812 0.0236232 0 0.00118116 0.00708696 0.0236232 0 0 0.00826812 0.0248044 0.00708696 0.0248044c0.164181,0.550421 0.250406,1.1221 0.250406,1.70796 0,1.00517 -0.302377,2.36232 -0.76303,3.24701l-1.2036 0.379153c0.707515,-0.973276 1.15636,-2.46863 1.15636,-3.62616 0,-1.45283 -0.512624,-2.11546 -1.04651,-3.28363 0.242138,-0.0566957 0.764211,0.235051 1.00635,0.186623z"/>
  <path class="fil26" d="M16.5469 8.44412c1.39968,0 2.73557,0.14292 3.95807,0.492544l1.60992 -3.72538 -0.145283 -0.210247 -14.2188 0c-0.206703,0 -0.348442,-0.18308 -0.333087,-0.405138l0.066145 -1.72095c0.00826812,-0.222058 0.170087,-0.406319 0.379153,-0.406319l17.389 0c0.210247,0 0.381515,0.18308 0.381515,0.406319 0,2.68123 0.483095,7.98819 0.633102,9.84615 0.577587,0.92603 0.900044,0.41695 0.900044,3.02495 0,2.60918 -4.20257,7.35154 -10.0529,7.35154 -5.85029,0 -11.1383,-3.21039 -11.1383,-7.35154 0,-2.00443 1.11383,-3.82814 2.92573,-5.17348 1.92884,-1.43157 4.62779,-2.12845 7.64565,-2.12845z"/>
  <path class="fil41" d="M7.48147 4.7022l-0.066145 -0.0543334 0.0448841 -0.0767754 -0.00472464 -0.00472464 0.0862247 -0.148826 -0.066145 -0.0543334 0.102761 -0.177174c0.0944928,0.059058 0.20316,0.0980363 0.324819,0.106304 0.0236232,0.00118116 0.0437029,0.00236232 0.0543334,0.00236232l13.5621 0.00826812 0.758305 0.0200797c-0.317732,0.225602 0.0543334,0.392145 -0.413406,0.724051l-13.9873 -0.00944928c-0.0106304,0 -0.0307102,-0.00118116 -0.0543334,-0.00236232 -0.166544,-0.0129928 -0.313008,-0.0791378 -0.42758,-0.184261l0.0862247 -0.148826z"/>
  <path class="fil28" d="M8.37797 3.05448c0.696885,0.00118116 1.49181,0.00236232 2.18869,0.00236232 0.698066,0 1.39613,0 2.0942,0 0.695704,0.00118116 1.39377,0.00118116 2.09065,0.00118116 0.696885,0 1.29455,-0.0188986 1.99144,-0.0188986 0.0921305,0.0673261 0.18308,0.133471 0.272848,0.199616 0.0909494,0.066145 0.184261,0.13229 0.278754,0.199616 0.00236232,0.0944928 0.00472464,0.188986 0.0059058,0.283479 0.00118116,0.0944928 0.00472464,0.155913 0.0059058,0.250406 0.00118116,0.0944928 0.00236232,0.190167 0.00354348,0.283479 0.00236232,0.0944928 0.0129928,0.246863 0.0141739,0.341355 -0.761849,0.00118116 -1.4233,0.022442 -2.18397,0.022442 -0.760667,0.00118116 -1.52252,0.00236232 -2.28318,0.00354348 -0.760667,0.00118116 -1.52252,0.00118116 -2.28318,0.00236232 -0.761849,0.00118116 -1.52252,0.00118116 -2.282,0.00236232 0.0626015,-0.523254 0.022442,-1.04887 0.0862247,-1.57331z"/>
  <path class="fil42" d="M11.2328 3.03558c0.92603,0.00118116 1.8497,0.00118116 2.77573,0.00236232 0.92603,0 1.85206,0 2.77809,0 0.095674,0.0685073 0.192529,0.135833 0.288203,0.20316 0.0968552,0.0673261 0.19371,0.135833 0.292928,0.20316 0.00118116,0.0696885 0.0248044,0.942566 0.0248044,1.01107 0.00118116,0.0685073 0.00354348,0.0909494 0.00354348,0.159457 -1.03352,0 -2.06703,0 -3.09937,0 -1.03115,0 -2.06467,0 -3.09818,0 0.00944928,-0.137015 -0.00118116,-1.03115 0.00708696,-1.16817 0.00944928,-0.135833 0.0177174,-0.274029 0.0271667,-0.411044z"/>
  <path class="fil10" d="M8.4264 3.06865c0.778385,0 1.55677,0 2.33397,0 -0.00708696,0.124022 -0.0165362,0.249225 -0.0248044,0.372066 -0.00708696,0.124022 -0.0141739,0.248044 -0.022442,0.370884 -0.781928,0 -1.56386,0 -2.34578,0 0.0106304,-0.122841 0.0177174,-0.246863 0.0271667,-0.370884 0.0106304,-0.122841 0.0236232,-0.248044 0.0318913,-0.372066z"/>
  <path class="fil39" d="M9.32526 3.71121c-0.0472464,0 -0.0921305,0 -0.139377,0 0.00236232,-0.116935 0.00826812,-0.235051 0.0106304,-0.351986 -0.088587,0.116935 -0.178355,0.235051 -0.269305,0.351986 -0.0472464,0 -0.0944928,0 -0.140558,0 0.00236232,-0.160638 0.00708696,-0.321276 0.0129928,-0.481913 0.0437029,0 0.088587,0 0.133471,0 -0.00826812,0.11221 -0.0165362,0.225602 -0.0212609,0.337812 0.0838624,-0.11221 0.170087,-0.225602 0.256312,-0.337812 0.0484276,0 0.0980363,0 0.146464,0 -0.00354348,0.111029 -0.0059058,0.223239 -0.00944928,0.334268 0.0815001,-0.111029 0.161819,-0.223239 0.245681,-0.334268 0.0437029,0 0.088587,0 0.13229,0 -0.120478,0.160638 -0.239776,0.321276 -0.357892,0.481913zm0.248044 0c0.0566957,-0.160638 0.113391,-0.321276 0.173631,-0.481913 0.059058,0 0.119297,0 0.179536,0 0.0507899,0 0.0803189,0 0.0944928,0.00118116 0.0283479,0.00236232 0.0519711,0.00708696 0.0744131,0.0129928 0.0188986,0.0059058 0.0401595,0.0141739 0.0566957,0.0259855 0.0177174,0.0106304 0.0307102,0.0248044 0.0413406,0.0401595 0.0118116,0.0153551 0.022442,0.0330725 0.0283479,0.0531522 0.0059058,0.0200797 0.0059058,0.0425218 0.00472464,0.066145 -0.00236232,0.0519711 -0.0177174,0.0992175 -0.0484276,0.138196 -0.0307102,0.0413406 -0.0673261,0.073232 -0.11221,0.0968552 -0.0307102,0.0188986 -0.0744131,0.0318913 -0.125203,0.0401595 -0.0283479,0.0059058 -0.073232,0.00708696 -0.131109,0.00708696 -0.0803189,0 -0.158276,0 -0.236232,0zm0.165362 -0.0767754c0.0212609,0 0.0448841,0 0.0696885,0 0.0496087,0 0.0874059,-0.00236232 0.109848,-0.00708696 0.0236232,-0.00472464 0.0437029,-0.0129928 0.0637827,-0.0248044 0.0283479,-0.0177174 0.0531522,-0.0425218 0.0720508,-0.0720508 0.0200797,-0.029529 0.0342537,-0.0637827 0.036616,-0.103942 0.00118116,-0.0342537 -0.00236232,-0.0602392 -0.0177174,-0.0779566 -0.0141739,-0.0165362 -0.0318913,-0.0283479 -0.0543334,-0.0342537 -0.0165362,-0.00354348 -0.0437029,-0.00472464 -0.0850436,-0.00472464 -0.0259855,0 -0.0531522,0 -0.0791378,0 -0.036616,0.107486 -0.0767754,0.216152 -0.115754,0.324819z"/>
  <path class="fil43" d="M11.6545 3.96752c-0.0850436,-0.235051 -0.167725,-0.470102 -0.248044,-0.705153 0.0437029,0 0.088587,0 0.133471,0 0.0448841,0.154732 0.0921305,0.308283 0.140558,0.461834 0.0153551,0.0496087 0.0283479,0.0968552 0.0377971,0.145283 0.0271667,-0.0755943 0.0437029,-0.119297 0.0484276,-0.131109 0.0637827,-0.158276 0.127565,-0.316551 0.196073,-0.476008 0.0519711,0 0.102761,0 0.154732,0 0.0472464,0.119297 0.0909494,0.238594 0.137015,0.35671 0.0330725,0.088587 0.0578769,0.172449 0.0708696,0.250406 0.0141739,-0.0448841 0.029529,-0.095674 0.0543334,-0.153551 0.0519711,-0.151189 0.105123,-0.302377 0.159457,-0.453566 0.0425218,0 0.0850436,0 0.129928,0 -0.0933117,0.235051 -0.185442,0.470102 -0.278754,0.705153 -0.0425218,0 -0.0850436,0 -0.126384,0 -0.0685073,-0.178355 -0.131109,-0.357892 -0.198435,-0.537428 -0.0165362,-0.0448841 -0.029529,-0.0720508 -0.0307102,-0.0815001 -0.0106304,0.0318913 -0.0200797,0.059058 -0.0307102,0.0815001 -0.073232,0.179536 -0.147645,0.359073 -0.218515,0.537428 -0.0437029,0 -0.088587,0 -0.131109,0zm1.57685 0c0,-0.0212609 0,-0.0425218 0,-0.0649638 -0.0448841,0.0507899 -0.11221,0.0767754 -0.200797,0.0767754 -0.0555145,0 -0.108667,-0.0118116 -0.158276,-0.0342537 -0.0472464,-0.022442 -0.0815001,-0.0531522 -0.109848,-0.0933117 -0.0259855,-0.0413406 -0.0354348,-0.0874059 -0.0342537,-0.138196 0,-0.0507899 0.0106304,-0.0980363 0.0342537,-0.139377 0.0236232,-0.0413406 0.0614203,-0.073232 0.108667,-0.095674 0.0472464,-0.0212609 0.100399,-0.0330725 0.159457,-0.0330725 0.0448841,0 0.0803189,0.0059058 0.113391,0.0200797 0.0354348,0.0118116 0.0614203,0.029529 0.0838624,0.0496087 0,-0.0838624 0,-0.167725 0.00236232,-0.252768 0.0389783,0 0.0779566,0 0.119297,0 -0.00236232,0.235051 -0.00472464,0.470102 -0.0059058,0.705153 -0.0377971,0 -0.0755943,0 -0.11221,0zm-0.379153 -0.25395c-0.00118116,0.0649638 0.0165362,0.113391 0.0555145,0.145283 0.0377971,0.0318913 0.0803189,0.0496087 0.13229,0.0496087 0.0543334,0 0.10158,-0.0153551 0.139377,-0.0472464 0.0377971,-0.0307102 0.0555145,-0.0779566 0.0566957,-0.141739 0.00118116,-0.0696885 -0.0165362,-0.120478 -0.0566957,-0.15237 -0.036616,-0.0330725 -0.0826812,-0.0496087 -0.139377,-0.0496087 -0.0519711,0 -0.0968552,0.0165362 -0.13229,0.0472464 -0.036616,0.0307102 -0.0555145,0.0803189 -0.0555145,0.148826zm1.2851 0.171268c-0.00236232,0.0271667 0,0.0555145 0,0.0826812 -0.218515,0 -0.435848,0 -0.652001,0 -0.00118116,-0.0212609 0.00236232,-0.0401595 0.0118116,-0.0602392 0.0188986,-0.0318913 0.0472464,-0.0626015 0.0815001,-0.0944928 0.0354348,-0.029529 0.0921305,-0.0649638 0.160638,-0.105123 0.106304,-0.0626015 0.180718,-0.113391 0.217334,-0.150007 0.036616,-0.036616 0.0555145,-0.0720508 0.0555145,-0.103942 0,-0.0342537 -0.0141739,-0.0626015 -0.0496087,-0.0874059 -0.0342537,-0.022442 -0.0803189,-0.0342537 -0.134652,-0.0342537 -0.0578769,0 -0.103942,0.0118116 -0.138196,0.0377971 -0.0354348,0.0236232 -0.0543334,0.059058 -0.0543334,0.102761 -0.0425218,-0.00354348 -0.0838624,-0.0059058 -0.124022,-0.00944928 0.00944928,-0.066145 0.0425218,-0.115754 0.095674,-0.151189 0.0566957,-0.0354348 0.13229,-0.0519711 0.226783,-0.0519711 0.0933117,0 0.165362,0.0188986 0.220877,0.0555145 0.0555145,0.0377971 0.0803189,0.0850436 0.0803189,0.140558 0,0.0271667 -0.00354348,0.0566957 -0.0212609,0.0826812 -0.0165362,0.0283479 -0.0437029,0.0555145 -0.0815001,0.0862247 -0.036616,0.029529 -0.0992175,0.0708696 -0.187805,0.124022 -0.0720508,0.0425218 -0.118116,0.073232 -0.138196,0.088587 -0.022442,0.0153551 -0.0389783,0.0307102 -0.0519711,0.0472464 0.160638,0 0.320094,0 0.483095,0zm0.765392 0c-0.00118116,0.0271667 0.00236232,0.0555145 0.00236232,0.0826812 -0.218515,0 -0.435848,0 -0.654363,0 0.00118116,-0.0212609 0.00354348,-0.0401595 0.0129928,-0.0602392 0.0177174,-0.0318913 0.0448841,-0.0626015 0.0826812,-0.0944928 0.0342537,-0.029529 0.088587,-0.0649638 0.157094,-0.105123 0.107486,-0.0626015 0.179536,-0.113391 0.217334,-0.150007 0.0377971,-0.036616 0.0555145,-0.0720508 0.0555145,-0.103942 0,-0.0342537 -0.0165362,-0.0626015 -0.0507899,-0.0874059 -0.0342537,-0.022442 -0.0791378,-0.0342537 -0.133471,-0.0342537 -0.0566957,0 -0.105123,0.0118116 -0.138196,0.0377971 -0.0354348,0.0236232 -0.0555145,0.059058 -0.0555145,0.102761 -0.0425218,-0.00354348 -0.0815001,-0.0059058 -0.122841,-0.00944928 0.00826812,-0.066145 0.0413406,-0.115754 0.0968552,-0.151189 0.0543334,-0.0354348 0.129928,-0.0519711 0.223239,-0.0519711 0.0944928,0 0.167725,0.0188986 0.222058,0.0555145 0.0543334,0.0377971 0.0838624,0.0850436 0.0838624,0.140558 0,0.0271667 -0.00826812,0.0555145 -0.0248044,0.0826812 -0.0165362,0.0271667 -0.0413406,0.0555145 -0.0791378,0.0862247 -0.0377971,0.029529 -0.0992175,0.0720508 -0.186623,0.124022 -0.0744131,0.0437029 -0.119297,0.073232 -0.140558,0.088587 -0.0188986,0.0153551 -0.0377971,0.0307102 -0.0507899,0.0472464 0.159457,0 0.322457,0 0.483095,0zm0.128746 -0.10158c0.0425218,-0.00236232 0.0862247,-0.0059058 0.126384,-0.00826812 0.0118116,0.0448841 0.0342537,0.0779566 0.0673261,0.100399 0.0354348,0.022442 0.0744131,0.0330725 0.124022,0.0330725 0.0578769,0 0.109848,-0.0153551 0.150007,-0.0472464 0.0401595,-0.0318913 0.0578769,-0.073232 0.0578769,-0.125203 0,-0.0484276 -0.0188986,-0.088587 -0.0566957,-0.116935 -0.0413406,-0.029529 -0.0909494,-0.0425218 -0.153551,-0.0425218 -0.0389783,0 -0.0755943,0.00708696 -0.105123,0.0188986 -0.0307102,0.0129928 -0.0555145,0.029529 -0.073232,0.0496087 -0.0401595,-0.00354348 -0.0755943,-0.0059058 -0.113391,-0.0106304 0.0283479,-0.120478 0.0626015,-0.240957 0.0944928,-0.362616 0.163,0 0.326,0 0.489,0 0,0.0283479 0,0.0555145 -0.00236232,0.0838624 -0.131109,0 -0.262218,0 -0.392145,0 -0.0153551,0.0626015 -0.0330725,0.125203 -0.0519711,0.188986 0.0602392,-0.029529 0.122841,-0.0448841 0.184261,-0.0448841 0.0874059,0 0.159457,0.022442 0.220877,0.0649638 0.0602392,0.0425218 0.0897682,0.0968552 0.0897682,0.164181 0,0.0637827 -0.0271667,0.118116 -0.0779566,0.165362 -0.0637827,0.0555145 -0.148826,0.0850436 -0.258674,0.0850436 -0.088587,0 -0.163,-0.0165362 -0.222058,-0.0543334 -0.0543334,-0.0342537 -0.0862247,-0.0826812 -0.0968552,-0.141739zm1.39259 -0.348442c-0.0413406,0.00354348 -0.0826812,0.00472464 -0.12166,0.00708696 -0.00944928,-0.0342537 -0.0248044,-0.0578769 -0.0437029,-0.073232 -0.0354348,-0.0248044 -0.0755943,-0.0377971 -0.12166,-0.0377971 -0.0401595,0 -0.073232,0.00826812 -0.103942,0.0236232 -0.0354348,0.0200797 -0.066145,0.0484276 -0.0874059,0.0862247 -0.0212609,0.0389783 -0.0330725,0.0933117 -0.0330725,0.163 0.0283479,-0.0307102 0.0626015,-0.0543334 0.105123,-0.0696885 0.0437029,-0.0153551 0.0874059,-0.0236232 0.133471,-0.0236232 0.0803189,0 0.150007,0.0212609 0.205522,0.0637827 0.0566957,0.0425218 0.088587,0.0968552 0.088587,0.164181 0,0.0448841 -0.0129928,0.0862247 -0.0389783,0.124022 -0.0271667,0.036616 -0.0649638,0.0673261 -0.108667,0.0874059 -0.0472464,0.0200797 -0.100399,0.029529 -0.160638,0.029529 -0.10158,0 -0.181899,-0.0259855 -0.246863,-0.0791378 -0.0626015,-0.0531522 -0.0968552,-0.140558 -0.0980363,-0.262218 0,-0.137015 0.0354348,-0.235051 0.105123,-0.297652 0.0578769,-0.0531522 0.141739,-0.0803189 0.248044,-0.0803189 0.0755943,0 0.137015,0.0153551 0.188986,0.0460653 0.0472464,0.0318913 0.0779566,0.0744131 0.0897682,0.128746zm-0.491363 0.304739c0,0.029529 0.00944928,0.0578769 0.0271667,0.0850436 0.0177174,0.0271667 0.0425218,0.0484276 0.0744131,0.0626015 0.0330725,0.0141739 0.0649638,0.0212609 0.0992175,0.0212609 0.0507899,0 0.095674,-0.0141739 0.13229,-0.0448841 0.036616,-0.0283479 0.0543334,-0.0685073 0.0543334,-0.119297 0,-0.0484276 -0.0177174,-0.0874059 -0.0555145,-0.115754 -0.036616,-0.0271667 -0.0838624,-0.0425218 -0.138196,-0.0425218 -0.0543334,0 -0.0992175,0.0141739 -0.138196,0.0425218 -0.0377971,0.0283479 -0.0555145,0.0649638 -0.0555145,0.111029z"/>
  <path class="fil30" d="M16.6177 12.4553c0.913037,0 1.74694,0.270486 2.35642,0.707515 0.660269,0.472464 1.06895,1.24849 1.06895,2.00443 0,0.755943 -0.408682,1.42684 -1.06895,1.89931 -0.609479,0.437029 -1.44338,0.707515 -2.35642,0.707515 -0.913037,0 -1.74694,-0.270486 -2.35642,-0.707515 -0.660269,-0.472464 -1.06895,-1.14336 -1.06895,-1.89931 0,-0.755943 0.408682,-1.53197 1.06895,-2.00443 0.609479,-0.437029 1.44338,-0.707515 2.35642,-0.707515zm1.89458 1.56622c-0.47837,-0.343718 -1.14691,-0.555145 -1.89458,-0.555145 -0.746493,0 -1.41621,0.211428 -1.89458,0.555145 -0.42758,0.305921 -0.69216,0.71224 -0.69216,1.14573 0,0.433486 0.26458,0.839805 0.69216,1.14691 0.47837,0.342537 1.14809,0.555145 1.89458,0.555145 0.747675,0 1.41621,-0.212609 1.89458,-0.555145 0.428761,-0.307102 0.693341,-0.713421 0.693341,-1.14691 0,-0.433486 -0.26458,-0.839805 -0.693341,-1.14573z"/>
  <path class="fil44" d="M19.9581 15.7531c-0.134652,0.455928 -0.424037,0.863428 -0.825631,1.19179l-0.0921305 -0.0897682 -0.291747 -0.735863c0.285841,-0.274029 0.457109,-0.604754 0.457109,-0.952015 0,-0.0354348 -0.00236232,-0.0720508 -0.0059058,-0.107486 0.175993,0.155913 0.510261,0.454747 0.758305,0.693341z"/>
  <path class="fil45" d="M14.0345 16.8882c-0.393326,-0.341355 -0.669718,-0.761849 -0.784291,-1.22959 0.343718,-0.323638 0.778385,-0.705153 0.778385,-0.705153l0.0177174 0.022442c-0.0118116,0.0626015 -0.0177174,0.127565 -0.0177174,0.191348 0,0.309464 0.432305,0.604754 0.664993,0.859885l-0.626015 0.827994 -0.0330725 0.0330725z"/>
  <path class="fil46" d="M14.4728 16.1252l-0.45829 0.757124c0.0779566,0.0673261 0.159457,0.13229 0.245681,0.192529 0.611841,0.432305 1.44456,0.699247 2.35642,0.699247 0.911856,0 1.75048,-0.266942 2.35642,-0.699247 0.131109,-0.0921305 0.252768,-0.192529 0.362616,-0.300015l-0.503174 -0.719327c-0.0921305,0.0980363 -0.198435,0.191348 -0.317732,0.276392 -0.47837,0.338993 -1.14809,0.548058 -1.89812,0.548058 -0.744131,0 -1.41503,-0.209065 -1.89222,-0.548058 -0.0921305,-0.0649638 -0.175993,-0.133471 -0.251587,-0.206703z"/>
  <ellipse class="fil47" cx="16.618" cy="14.7798" rx="2.97372" ry="2.10453"/>
  <path class="fil48" d="M26.8537 27.6852c-0.0507899,-0.89532 0.291747,-1.64772 0.76303,-1.67843 0.471283,-0.0307102 0.894138,0.670899 0.944928,1.5674 0.0507899,0.896501 -0.291747,1.64772 -0.76303,1.67843 -0.471283,0.0307102 -0.89532,-0.670899 -0.944928,-1.5674z"/>
  <path class="fil49" d="M2.29499 25.3418l-0.00118116 -0.0425218 0.491363 0.331906c0.165362,0.0425218 1.05832,0.0496087 1.25794,0.0803189 -0.00708696,0.259855 0.0129928,0.479551 0.00472464,0.733501 -2.17334,0.151189 -1.84852,-0.806733 -1.75284,-1.1032z"/>
  <path class="fil49" d="M30.585 25.5261l0.00118116 -0.0437029 -0.490182 0.331906c-0.166544,0.0425218 -1.05832,0.0496087 -1.25912,0.0803189 0.00826812,0.259855 -0.0118116,0.480732 -0.00472464,0.733501 2.17452,0.151189 1.84852,-0.806733 1.75284,-1.10202z"/>
  <ellipse class="fil50" cx="26.5225" cy="28.561" rx="1.35177" ry="1.21776"/>
  <ellipse class="fil51" cx="26.5453" cy="28.4858" rx="0.728388" ry="0.75424"/>
  <path class="fil52" d="M26.5454 27.7313c0.402776,0 0.728776,0.337812 0.728776,0.754762 0,0.0437029 -0.00472464,0.0862247 -0.0106304,0.127565 -0.0803189,-0.327181 -0.36616,-0.569319 -0.706334,-0.569319 -0.360254,0 -0.660269,0.270486 -0.718146,0.626015 -0.0141739,-0.059058 -0.022442,-0.120478 -0.022442,-0.184261 0,-0.41695 0.326,-0.754762 0.728776,-0.754762z"/>
  <ellipse class="fil53" cx="26.5491" cy="28.6039" rx="0.523874" ry="0.347373"/>
  <ellipse class="fil54" cx="26.4961" cy="28.1705" rx="0.423604" ry="0.287712"/>
  <ellipse class="fil54" cx="26.6214" cy="29.0116" rx="0.295442" ry="0.192496"/>
  <ellipse class="fil55" cx="26.5729" cy="29.9607" rx="0.590483" ry="0.170811"/>
  <path class="fil49" d="M2.19342 25.9926l-0.00118116 -0.0425218 0.491363 0.331906c0.165362,0.0425218 1.05832,0.0496087 1.25794,0.0803189 -0.00708696,0.259855 0.0129928,0.479551 0.00472464,0.733501 -2.17334,0.151189 -1.84852,-0.806733 -1.75284,-1.1032z"/>
  <path class="fil49" d="M30.585 25.9725l0.00118116 -0.0437029 -0.490182 0.331906c-0.166544,0.0425218 -1.05832,0.0496087 -1.25912,0.0803189 0.00826812,0.259855 -0.0118116,0.480732 -0.00472464,0.733501 2.17452,0.151189 1.84852,-0.806733 1.75284,-1.10202z"/>
  <g id="_50030256">
   <g>
    <path id="_67885920" class="fil56" d="M26.2454 30.5968c2.33279,-0.0472464 4.28879,0.265761 4.36911,0.698066 0.0803189,0.433486 -1.74576,0.822088 -4.07737,0.868153 -2.33161,0.0472464 -4.28879,-0.265761 -4.36911,-0.699247 -0.0803189,-0.432305 1.74576,-0.820907 4.07737,-0.866972z"/>
    <g>
     <path id="_129861568" class="fil57" d="M26.3021 30.7114c2.00797,-0.0401595 3.69349,0.229145 3.762,0.602392 0.0696885,0.372066 -1.50362,0.707515 -3.51159,0.747675 -2.00915,0.0401595 -3.69349,-0.229145 -3.76318,-0.602392 -0.0696885,-0.373247 1.50362,-0.707515 3.51277,-0.747675z"/>
     <path id="_129839768" class="fil58" d="M26.3564 30.8271c1.68552,-0.0342537 3.09937,0.191348 3.15724,0.504356 0.059058,0.313008 -1.26148,0.594124 -2.947,0.627196 -1.68552,0.0342537 -3.09937,-0.192529 -3.15724,-0.504356 -0.0578769,-0.313008 1.26148,-0.594124 2.947,-0.627196z"/>
     <path id="_129821128" class="fil59" d="M26.4119 30.9417c1.36188,-0.0271667 2.50524,0.155913 2.55131,0.408682 0.0472464,0.252768 -1.01934,0.479551 -2.38122,0.506718 -1.36306,0.0271667 -2.50524,-0.155913 -2.55249,-0.408682 -0.0472464,-0.252768 1.01934,-0.479551 2.3824,-0.506718z"/>
     <path id="_129671952" class="fil60" d="M26.4663 31.0563c1.03942,-0.0200797 1.91112,0.119297 1.94773,0.311826 0.0354348,0.192529 -0.778385,0.36616 -1.81781,0.386239 -1.03824,0.0212609 -1.90994,-0.118116 -1.94655,-0.310645 -0.0354348,-0.19371 0.778385,-0.36616 1.81662,-0.387421z"/>
     <path id="_129643968" class="fil61" d="M26.5218 31.172c0.715783,-0.0141739 1.31581,0.0815001 1.34062,0.21379 0.0248044,0.133471 -0.535066,0.252768 -1.25203,0.266942 -0.714602,0.0141739 -1.31581,-0.0815001 -1.34062,-0.214971 -0.0248044,-0.13229 0.536247,-0.251587 1.25203,-0.265761z"/>
    </g>
    <path id="_127196792" class="fil62" d="M26.5761 31.2866c0.393326,-0.00826812 0.72287,0.0448841 0.735863,0.118116 0.0141739,0.0720508 -0.294109,0.138196 -0.686254,0.145283 -0.393326,0.00826812 -0.72287,-0.0448841 -0.735863,-0.116935 -0.0129928,-0.073232 0.294109,-0.138196 0.686254,-0.146464z"/>
   </g>
   <g>
    <path id="_126853984" class="fil56" d="M26.2324 30.3865c2.33161,-0.0472464 4.28879,0.265761 4.36911,0.699247 0.0803189,0.432305 -1.74576,0.820907 -4.07855,0.866972 -2.33161,0.0472464 -4.28761,-0.265761 -4.36793,-0.698066 -0.0803189,-0.433486 1.74576,-0.822088 4.07737,-0.868153z"/>
    <g>
     <path id="_128233184" class="fil57" d="M26.2879 30.5011c2.00915,-0.0401595 3.69349,0.230326 3.76318,0.602392 0.0696885,0.373247 -1.50362,0.707515 -3.51159,0.747675 -2.00915,0.0401595 -3.69467,-0.229145 -3.76436,-0.602392 -0.0685073,-0.372066 1.5048,-0.707515 3.51277,-0.747675z"/>
     <path id="_126220488" class="fil58" d="M26.3434 30.6169c1.68552,-0.0342537 3.09937,0.192529 3.15724,0.504356 0.0578769,0.313008 -1.26148,0.594124 -2.947,0.627196 -1.68552,0.0342537 -3.09937,-0.192529 -3.15724,-0.504356 -0.0578769,-0.313008 1.26148,-0.594124 2.947,-0.627196z"/>
     <path id="_127910448" class="fil59" d="M26.3978 30.7314c1.36306,-0.0271667 2.50524,0.155913 2.55249,0.408682 0.0472464,0.252768 -1.01934,0.479551 -2.3824,0.506718 -1.36188,0.0271667 -2.50406,-0.155913 -2.55131,-0.408682 -0.0472464,-0.252768 1.01934,-0.479551 2.38122,-0.506718z"/>
     <path id="_128106816" class="fil60" d="M26.4533 30.846c1.03942,-0.0200797 1.91112,0.119297 1.94655,0.311826 0.0354348,0.192529 -0.777204,0.36616 -1.81662,0.387421 -1.03942,0.0200797 -1.91112,-0.119297 -1.94655,-0.311826 -0.036616,-0.192529 0.777204,-0.36616 1.81662,-0.387421z"/>
     <path id="_125846344" class="fil61" d="M26.5088 30.9618c0.715783,-0.0141739 1.31581,0.0815001 1.34062,0.214971 0.0248044,0.13229 -0.536247,0.251587 -1.25203,0.265761 -0.715783,0.0141739 -1.31581,-0.0815001 -1.34062,-0.214971 -0.0248044,-0.13229 0.536247,-0.251587 1.25203,-0.265761z"/>
    </g>
    <path id="_69990904" class="fil62" d="M26.5631 31.0763c0.392145,-0.00708696 0.721689,0.0448841 0.735863,0.118116 0.0129928,0.073232 -0.294109,0.138196 -0.687435,0.146464 -0.392145,0.00708696 -0.721689,-0.0448841 -0.734682,-0.118116 -0.0141739,-0.073232 0.294109,-0.138196 0.686254,-0.146464z"/>
   </g>
   <g>
    <path id="_50834816" class="fil56" d="M26.2324 30.3865c2.33161,-0.0472464 4.28879,0.265761 4.36911,0.699247 0.0803189,0.432305 -1.74576,0.820907 -4.07855,0.866972 -2.33161,0.0472464 -4.28761,-0.265761 -4.36793,-0.698066 -0.0803189,-0.433486 1.74576,-0.822088 4.07737,-0.868153z"/>
    <g>
     <path id="_65060544" class="fil57" d="M26.2879 30.5011c2.00915,-0.0401595 3.69349,0.230326 3.76318,0.602392 0.0696885,0.373247 -1.50362,0.707515 -3.51159,0.747675 -2.00915,0.0401595 -3.69467,-0.229145 -3.76436,-0.602392 -0.0685073,-0.372066 1.5048,-0.707515 3.51277,-0.747675z"/>
     <path id="_126923072" class="fil58" d="M26.3434 30.6169c1.68552,-0.0342537 3.09937,0.192529 3.15724,0.504356 0.0578769,0.313008 -1.26148,0.594124 -2.947,0.627196 -1.68552,0.0342537 -3.09937,-0.192529 -3.15724,-0.504356 -0.0578769,-0.313008 1.26148,-0.594124 2.947,-0.627196z"/>
     <path id="_127644592" class="fil59" d="M26.3978 30.7314c1.36306,-0.0271667 2.50524,0.155913 2.55249,0.408682 0.0472464,0.252768 -1.01934,0.479551 -2.3824,0.506718 -1.36188,0.0271667 -2.50406,-0.155913 -2.55131,-0.408682 -0.0472464,-0.252768 1.01934,-0.479551 2.38122,-0.506718z"/>
     <path id="_127821224" class="fil60" d="M26.4533 30.846c1.03942,-0.0200797 1.91112,0.119297 1.94655,0.311826 0.0354348,0.192529 -0.777204,0.36616 -1.81662,0.387421 -1.03942,0.0200797 -1.91112,-0.119297 -1.94655,-0.311826 -0.036616,-0.192529 0.777204,-0.36616 1.81662,-0.387421z"/>
     <path id="_66814392" class="fil61" d="M26.5088 30.9618c0.715783,-0.0141739 1.31581,0.0815001 1.34062,0.214971 0.0248044,0.13229 -0.536247,0.251587 -1.25203,0.265761 -0.715783,0.0141739 -1.31581,-0.0815001 -1.34062,-0.214971 -0.0248044,-0.13229 0.536247,-0.251587 1.25203,-0.265761z"/>
    </g>
    <path id="_126784632" class="fil62" d="M26.5631 31.0763c0.392145,-0.00708696 0.721689,0.0448841 0.735863,0.118116 0.0129928,0.073232 -0.294109,0.138196 -0.687435,0.146464 -0.392145,0.00708696 -0.721689,-0.0448841 -0.734682,-0.118116 -0.0141739,-0.073232 0.294109,-0.138196 0.686254,-0.146464z"/>
   </g>
   <g>
    <path id="_126089208" class="fil56" d="M26.2324 30.3865c2.33161,-0.0472464 4.28879,0.265761 4.36911,0.699247 0.0803189,0.432305 -1.74576,0.820907 -4.07855,0.866972 -2.33161,0.0472464 -4.28761,-0.265761 -4.36793,-0.698066 -0.0803189,-0.433486 1.74576,-0.822088 4.07737,-0.868153z"/>
    <g>
     <path id="_21720784" class="fil57" d="M26.2879 30.5011c2.00915,-0.0401595 3.69349,0.230326 3.76318,0.602392 0.0696885,0.373247 -1.50362,0.707515 -3.51159,0.747675 -2.00915,0.0401595 -3.69467,-0.229145 -3.76436,-0.602392 -0.0685073,-0.372066 1.5048,-0.707515 3.51277,-0.747675z"/>
     <path id="_126732672" class="fil58" d="M26.3434 30.6169c1.68552,-0.0342537 3.09937,0.192529 3.15724,0.504356 0.0578769,0.313008 -1.26148,0.594124 -2.947,0.627196 -1.68552,0.0342537 -3.09937,-0.192529 -3.15724,-0.504356 -0.0578769,-0.313008 1.26148,-0.594124 2.947,-0.627196z"/>
     <path id="_126083408" class="fil59" d="M26.3978 30.7314c1.36306,-0.0271667 2.50524,0.155913 2.55249,0.408682 0.0472464,0.252768 -1.01934,0.479551 -2.3824,0.506718 -1.36188,0.0271667 -2.50406,-0.155913 -2.55131,-0.408682 -0.0472464,-0.252768 1.01934,-0.479551 2.38122,-0.506718z"/>
     <path id="_64348768" class="fil60" d="M26.4533 30.846c1.03942,-0.0200797 1.91112,0.119297 1.94655,0.311826 0.0354348,0.192529 -0.777204,0.36616 -1.81662,0.387421 -1.03942,0.0200797 -1.91112,-0.119297 -1.94655,-0.311826 -0.036616,-0.192529 0.777204,-0.36616 1.81662,-0.387421z"/>
     <path id="_127076720" class="fil61" d="M26.5088 30.9618c0.715783,-0.0141739 1.31581,0.0815001 1.34062,0.214971 0.0248044,0.13229 -0.536247,0.251587 -1.25203,0.265761 -0.715783,0.0141739 -1.31581,-0.0815001 -1.34062,-0.214971 -0.0248044,-0.13229 0.536247,-0.251587 1.25203,-0.265761z"/>
    </g>
    <path id="_125534080" class="fil62" d="M26.5631 31.0763c0.392145,-0.00708696 0.721689,0.0448841 0.735863,0.118116 0.0129928,0.073232 -0.294109,0.138196 -0.687435,0.146464 -0.392145,0.00708696 -0.721689,-0.0448841 -0.734682,-0.118116 -0.0141739,-0.073232 0.294109,-0.138196 0.686254,-0.146464z"/>
   </g>
   <g>
    <path id="_126711992" class="fil56" d="M26.2324 30.3865c2.33161,-0.0472464 4.28879,0.265761 4.36911,0.699247 0.0803189,0.432305 -1.74576,0.820907 -4.07855,0.866972 -2.33161,0.0472464 -4.28761,-0.265761 -4.36793,-0.698066 -0.0803189,-0.433486 1.74576,-0.822088 4.07737,-0.868153z"/>
    <g>
     <path id="_50711576" class="fil57" d="M26.2879 30.5011c2.00915,-0.0401595 3.69349,0.230326 3.76318,0.602392 0.0696885,0.373247 -1.50362,0.707515 -3.51159,0.747675 -2.00915,0.0401595 -3.69467,-0.229145 -3.76436,-0.602392 -0.0685073,-0.372066 1.5048,-0.707515 3.51277,-0.747675z"/>
     <path id="_126911560" class="fil58" d="M26.3434 30.6169c1.68552,-0.0342537 3.09937,0.192529 3.15724,0.504356 0.0578769,0.313008 -1.26148,0.594124 -2.947,0.627196 -1.68552,0.0342537 -3.09937,-0.192529 -3.15724,-0.504356 -0.0578769,-0.313008 1.26148,-0.594124 2.947,-0.627196z"/>
     <path id="_125386272" class="fil59" d="M26.3978 30.7314c1.36306,-0.0271667 2.50524,0.155913 2.55249,0.408682 0.0472464,0.252768 -1.01934,0.479551 -2.3824,0.506718 -1.36188,0.0271667 -2.50406,-0.155913 -2.55131,-0.408682 -0.0472464,-0.252768 1.01934,-0.479551 2.38122,-0.506718z"/>
     <path id="_128585360" class="fil60" d="M26.4533 30.846c1.03942,-0.0200797 1.91112,0.119297 1.94655,0.311826 0.0354348,0.192529 -0.777204,0.36616 -1.81662,0.387421 -1.03942,0.0200797 -1.91112,-0.119297 -1.94655,-0.311826 -0.036616,-0.192529 0.777204,-0.36616 1.81662,-0.387421z"/>
     <path id="_126649032" class="fil61" d="M26.5088 30.9618c0.715783,-0.0141739 1.31581,0.0815001 1.34062,0.214971 0.0248044,0.13229 -0.536247,0.251587 -1.25203,0.265761 -0.715783,0.0141739 -1.31581,-0.0815001 -1.34062,-0.214971 -0.0248044,-0.13229 0.536247,-0.251587 1.25203,-0.265761z"/>
    </g>
    <path id="_125058848" class="fil62" d="M26.5631 31.0763c0.392145,-0.00708696 0.721689,0.0448841 0.735863,0.118116 0.0129928,0.073232 -0.294109,0.138196 -0.687435,0.146464 -0.392145,0.00708696 -0.721689,-0.0448841 -0.734682,-0.118116 -0.0141739,-0.073232 0.294109,-0.138196 0.686254,-0.146464z"/>
   </g>
  </g>
  <polygon class="fil63" points="4.10217,30.5424 4.10217,27.0722 2.98479,27.0722 2.98479,30.1349 "/>
  <polygon class="fil63" points="29.9731,30.5424 29.9731,27.0722 28.8558,27.0722 28.8558,30.1349 "/>
 </g>
</svg>
