<?xml version="1.0" encoding="UTF-8" standalone="no"?>
<!-- Creator: CorelDRAW -->

<svg
   xmlns:dc="http://purl.org/dc/elements/1.1/"
   xmlns:cc="http://creativecommons.org/ns#"
   xmlns:rdf="http://www.w3.org/1999/02/22-rdf-syntax-ns#"
   xmlns:svg="http://www.w3.org/2000/svg"
   xmlns="http://www.w3.org/2000/svg"
   xmlns:xlink="http://www.w3.org/1999/xlink"
   xmlns:sodipodi="http://sodipodi.sourceforge.net/DTD/sodipodi-0.dtd"
   xmlns:inkscape="http://www.inkscape.org/namespaces/inkscape"
   xml:space="preserve"
   width="32px"
   height="32px"
   style="shape-rendering:geometricPrecision; text-rendering:geometricPrecision; image-rendering:optimizeQuality; fill-rule:evenodd; clip-rule:evenodd"
   viewBox="0 0 32 32"
   id="svg2"
   version="1.1"
   inkscape:version="0.48.1 r9760"
   sodipodi:docname="applications-multimedia.svg"><metadata
   id="metadata182"><rdf:RDF><cc:Work
       rdf:about=""><dc:format>image/svg+xml</dc:format><dc:type
         rdf:resource="http://purl.org/dc/dcmitype/StillImage" /><dc:title></dc:title></cc:Work></rdf:RDF></metadata><sodipodi:namedview
   pagecolor="#ffffff"
   bordercolor="#666666"
   borderopacity="1"
   objecttolerance="10"
   gridtolerance="10"
   guidetolerance="10"
   inkscape:pageopacity="0"
   inkscape:pageshadow="2"
   inkscape:window-width="646"
   inkscape:window-height="480"
   id="namedview180"
   showgrid="false"
   inkscape:zoom="8.3125"
   inkscape:cx="16"
   inkscape:cy="16"
   inkscape:window-x="0"
   inkscape:window-y="24"
   inkscape:window-maximized="0"
   inkscape:current-layer="svg2" />
 <defs
   id="defs4">
  <style
   type="text/css"
   id="style6">
   
    .fil11 {fill:none}
    .fil22 {fill:white}
    .fil28 {fill:#333333}
    .fil45 {fill:#4C4C4C}
    .fil38 {fill:#666666}
    .fil14 {fill:#8BC5F5}
    .fil44 {fill:#999999}
    .fil25 {fill:#E0981B}
    .fil43 {fill:#FFEC8B}
    .fil26 {fill:#EDA21D;fill-rule:nonzero}
    .fil29 {fill:black;fill-opacity:0.000000}
    .fil0 {fill:#333333;fill-opacity:0.011765}
    .fil1 {fill:#333333;fill-opacity:0.023529}
    .fil30 {fill:black;fill-opacity:0.035294}
    .fil2 {fill:#333333;fill-opacity:0.035294}
    .fil3 {fill:#333333;fill-opacity:0.047059}
    .fil4 {fill:#333333;fill-opacity:0.058824}
    .fil5 {fill:#333333;fill-opacity:0.074510}
    .fil31 {fill:black;fill-opacity:0.074510}
    .fil6 {fill:#333333;fill-opacity:0.086275}
    .fil7 {fill:#333333;fill-opacity:0.098039}
    .fil8 {fill:#333333;fill-opacity:0.109804}
    .fil32 {fill:black;fill-opacity:0.109804}
    .fil9 {fill:#333333;fill-opacity:0.121569}
    .fil33 {fill:black;fill-opacity:0.145098}
    .fil34 {fill:black;fill-opacity:0.184314}
    .fil35 {fill:black;fill-opacity:0.219608}
    .fil21 {fill:#999999;fill-opacity:0.321569}
    .fil18 {fill:#CCEDFF;fill-rule:nonzero;fill-opacity:0.439216}
    .fil20 {fill:#999999;fill-opacity:0.501961}
    .fil27 {fill:#FED716;fill-opacity:0.780392}
    .fil39 {fill:url(#id0)}
    .fil40 {fill:url(#id1)}
    .fil19 {fill:url(#id2)}
    .fil41 {fill:url(#id3)}
    .fil42 {fill:url(#id4)}
    .fil36 {fill:url(#id5)}
    .fil37 {fill:url(#id6)}
    .fil13 {fill:url(#id7)}
    .fil24 {fill:url(#id8)}
    .fil23 {fill:url(#id9)}
    .fil15 {fill:url(#id10)}
    .fil16 {fill:url(#id11);fill-rule:nonzero}
    .fil12 {fill:url(#id12);fill-rule:nonzero}
    .fil10 {fill:url(#id13);fill-rule:nonzero}
    .fil17 {fill:url(#id14);fill-rule:nonzero;fill-opacity:0.439216}
   
  </style>
  <linearGradient
   id="id0"
   gradientUnits="userSpaceOnUse"
   x1="2.57729"
   y1="18.2359"
   x2="2.57729"
   y2="15.094">
   <stop
   offset="0"
   style="stop-color:#FFEC80"
   id="stop9" />
   <stop
   offset="1"
   style="stop-color:white"
   id="stop11" />
  </linearGradient>
  <linearGradient
   id="id1"
   gradientUnits="userSpaceOnUse"
   xlink:href="#id0"
   x1="29.4983"
   y1="18.2359"
   x2="29.4983"
   y2="15.094">
  </linearGradient>
  <linearGradient
   id="id2"
   gradientUnits="userSpaceOnUse"
   x1="18.217"
   y1="25.1847"
   x2="17.9666"
   y2="13.138">
   <stop
   offset="0"
   style="stop-color:#E5E5E5"
   id="stop15" />
   <stop
   offset="1"
   style="stop-color:white"
   id="stop17" />
  </linearGradient>
  <linearGradient
   id="id3"
   gradientUnits="userSpaceOnUse"
   x1="0.857523"
   y1="16.841"
   x2="0.857523"
   y2="22.3357">
   <stop
   offset="0"
   style="stop-color:#4C4C4C"
   id="stop20" />
   <stop
   offset="1"
   style="stop-color:#333333"
   id="stop22" />
  </linearGradient>
  <linearGradient
   id="id4"
   gradientUnits="userSpaceOnUse"
   xlink:href="#id3"
   x1="31.2216"
   y1="16.841"
   x2="31.2216"
   y2="22.3357">
  </linearGradient>
  <linearGradient
   id="id5"
   gradientUnits="userSpaceOnUse"
   x1="5.45814"
   y1="13.5893"
   x2="5.45814"
   y2="25.0524">
   <stop
   offset="0"
   style="stop-color:#575757"
   id="stop26" />
   <stop
   offset="1"
   style="stop-color:#2E2D2D"
   id="stop28" />
  </linearGradient>
  <linearGradient
   id="id6"
   gradientUnits="userSpaceOnUse"
   xlink:href="#id5"
   x1="26.5962"
   y1="13.5893"
   x2="26.5962"
   y2="25.0524">
  </linearGradient>
  <linearGradient
   id="id7"
   gradientUnits="userSpaceOnUse"
   x1="16.3543"
   y1="29.4593"
   x2="16.0142"
   y2="8.60475">
   <stop
   offset="0"
   style="stop-color:#5E9DD5"
   id="stop32" />
   <stop
   offset="0.568627"
   style="stop-color:#7EBBEE"
   id="stop34" />
   <stop
   offset="1"
   style="stop-color:#8FCDFF"
   id="stop36" />
  </linearGradient>
  <linearGradient
   id="id8"
   gradientUnits="userSpaceOnUse"
   x1="29.138"
   y1="14.8779"
   x2="29.138"
   y2="23.9504">
   <stop
   offset="0"
   style="stop-color:#FED716"
   id="stop39" />
   <stop
   offset="1"
   style="stop-color:#E89309"
   id="stop41" />
  </linearGradient>
  <linearGradient
   id="id9"
   gradientUnits="userSpaceOnUse"
   xlink:href="#id8"
   x1="2.93755"
   y1="14.8779"
   x2="2.93755"
   y2="23.9504">
  </linearGradient>
  <linearGradient
   id="id10"
   gradientUnits="userSpaceOnUse"
   x1="16.0035"
   y1="9.13982"
   x2="16.0933"
   y2="12.9006">
   <stop
   offset="0"
   style="stop-color:#E5F6FF"
   id="stop45" />
   <stop
   offset="1"
   style="stop-color:#C4E8FF"
   id="stop47" />
  </linearGradient>
  <linearGradient
   id="id11"
   gradientUnits="userSpaceOnUse"
   x1="15.8323"
   y1="7.26886"
   x2="16.5362"
   y2="30.7952">
   <stop
   offset="0"
   style="stop-color:#5E9DD5"
   id="stop50" />
   <stop
   offset="1"
   style="stop-color:#4E87B4"
   id="stop52" />
  </linearGradient>
  <linearGradient
   id="id12"
   gradientUnits="userSpaceOnUse"
   x1="16.1028"
   y1="19.1466"
   x2="15.5642"
   y2="3.8683">
   <stop
   offset="0"
   style="stop-color:#191919"
   id="stop55" />
   <stop
   offset="1"
   style="stop-color:#4C4C4C"
   id="stop57" />
  </linearGradient>
  <linearGradient
   id="id13"
   gradientUnits="userSpaceOnUse"
   x1="15.7331"
   y1="2.69895"
   x2="15.8842"
   y2="17.304">
   <stop
   offset="0"
   style="stop-color:#666666"
   id="stop60" />
   <stop
   offset="1"
   style="stop-color:#333333"
   id="stop62" />
  </linearGradient>
  <linearGradient
   id="id14"
   gradientUnits="userSpaceOnUse"
   x1="20.5924"
   y1="12.5109"
   x2="20.9538"
   y2="26.8525">
   <stop
   offset="0"
   style="stop-color:#5A93C4"
   id="stop65" />
   <stop
   offset="1"
   style="stop-color:#4A7FA8"
   id="stop67" />
  </linearGradient>
 </defs>
 <g
   id="Слой_x0020_1">
  <metadata
   id="CorelCorpID_0Corel-Layer" />
  <g
   id="_246057544">
   <path
   id="_246060256"
   class="fil0"
   d="M15.9717 30.6747c8.82917,-0.14292 11.1513,0.644914 11.7266,1.08785l-22.7822 0c0.474827,-0.364979 2.49343,-0.949653 11.0557,-1.08785z" />
   <g
   id="g73">
    <path
   id="_246066736"
   class="fil1"
   d="M16.0295 30.7078c8.36616,-0.133471 10.38,0.660269 10.8123,1.05478l-21.0199 0c0.336631,-0.333087 2.0127,-0.924849 10.2076,-1.05478z" />
    <path
   id="_246060328"
   class="fil2"
   d="M16.085 30.7409c7.92441,-0.124022 9.60992,0.685073 9.88986,1.0217l-19.2352 0c0.200797,-0.294109 1.5048,-0.900044 9.34534,-1.0217z" />
    <path
   id="_245970440"
   class="fil3"
   d="M16.1417 30.774c7.54053,-0.113391 8.84807,0.733501 8.94729,0.988631l-17.4138 0c0.0626015,-0.237413 0.937841,-0.87524 8.46656,-0.988631z" />
    <path
   id="_245973944"
   class="fil4"
   d="M16.1996 30.8082c6.83301,-0.0992175 7.97047,0.716964 7.97047,0.913037 0,0.0129928 -0.0342537,0.0271667 -0.100399,0.0413406l-15.3315 0c-0.066145,-0.0141739 -0.100399,-0.0283479 -0.100399,-0.0413406 0,-0.196073 0.728776,-0.81382 7.56179,-0.913037z" />
    <path
   id="_245970872"
   class="fil5"
   d="M16.2539 30.8413c5.7806,-0.0791378 6.98656,0.622472 6.98656,0.809095 0,0.0354348 -0.307102,0.0744131 -0.842167,0.11221l-11.9368 0c-0.544515,-0.0377971 -0.858704,-0.0767754 -0.858704,-0.11221 0,-0.186623 0.870515,-0.729957 6.65111,-0.809095z" />
    <path
   id="_245974904"
   class="fil6"
   d="M16.3118 30.8755c4.72937,-0.059058 6.00266,0.526798 6.00266,0.703972 0,0.0637827 -1.3855,0.14292 -3.31197,0.18308l-5.05655 0c-1.95955,-0.0401595 -3.37576,-0.120478 -3.37576,-0.18308 0,-0.177174 1.01225,-0.644914 5.74162,-0.703972z" />
    <path
   id="_245975552"
   class="fil7"
   d="M16.3685 30.9086c3.67695,-0.0389783 5.01757,0.432305 5.01757,0.598848 0,0.0673261 -2.33279,0.151189 -4.92308,0.150007 -2.59383,0 -4.92662,-0.0838624 -4.92662,-0.150007 0,-0.166544 1.15517,-0.558689 4.83213,-0.598848z" />
    <path
   id="_245980184"
   class="fil8"
   d="M16.424 30.9429c2.6269,-0.0200797 4.03603,0.336631 4.03603,0.492544 0,0.0460653 -1.92529,0.0933117 -3.97815,0.0921305 -2.05404,0 -3.97933,-0.0484276 -3.97933,-0.0921305 0,-0.155913 1.29691,-0.473645 3.92145,-0.492544z" />
   </g>
   <path
   id="_246063712"
   class="fil9"
   d="M16.4807 30.9771c1.57449,0 3.05212,0.240957 3.05212,0.387421 0,0.0472464 -6.06408,0.0437029 -6.06408,0 0,-0.146464 1.43747,-0.387421 3.01196,-0.387421z" />
  </g>
  <path
   class="fil10"
   d="M0.970914 18.3741c0,-0.829175 0.0862247,-1.89222 0.25395,-3.04503 0.15237,-1.05241 0.375609,-2.18869 0.667356,-3.29544 1.63,-6.18338 5.216,-10.3682 13.8184,-10.3682 9.38668,-0.204341 12.4223,4.12107 14.0086,10.3552 0.288203,1.13155 0.512624,2.30917 0.667356,3.3982 0.171268,1.2036 0.261036,2.30444 0.261036,3.12299l-1.39023 0c0,-0.764211 -0.0838624,-1.79536 -0.2445,-2.92692 -0.147645,-1.03942 -0.362616,-2.16743 -0.639008,-3.25292 -0.705153,-2.771 -2.19578,-4.97859 -4.34076,-6.48339 -2.13436,-1.49771 -4.93489,-2.31389 -8.27167,-2.31389 -3.35804,0 -6.10896,0.800827 -8.19843,2.27964 -2.12491,1.50362 -3.58955,3.72892 -4.33013,6.54245 -0.27521,1.04769 -0.489,2.12963 -0.634283,3.13716 -0.158276,1.08194 -0.238594,2.07648 -0.238594,2.85014l-1.38904 0z"
   id="path84" />
  <path
   class="fil11"
   d="M1.71623 19.5234c0,-1.54141 0.304739,-3.91437 0.897682,-6.16448 1.54614,-5.87273 6.10424,-9.33944 13.1983,-9.33944 7.00901,0 11.7986,3.48206 13.2845,9.32054 0.592943,2.32689 0.90595,4.83685 0.90595,6.3511"
   id="path86" />
  <path
   class="fil12"
   d="M1.42802 19.5234c0,-0.830356 0.0862247,-1.89222 0.25395,-3.04621 0.153551,-1.05123 0.37679,-2.18751 0.668537,-3.29426 0.82445,-3.13126 2.06349,-5.62114 4.46597,-7.31965 2.32689,-1.64772 5.34711,-2.5395 8.99572,-2.5395 3.62734,0 6.69836,0.90595 9.06895,2.56902 2.42138,1.69733 3.64152,4.12461 4.43053,7.22516 0.288203,1.13155 0.512624,2.31035 0.667356,3.3982 0.171268,1.20478 0.261036,2.30444 0.261036,3.12299l-0.931936 0.0519711c0,-0.764211 0.272848,-1.84852 0.111029,-2.98007 -0.918943,-6.48693 -5.00812,-12.2522 -13.5574,-12.303 -3.83995,0.166544 -6.62631,1.05714 -8.64137,2.48398 -2.28318,1.61583 -3.57537,3.92145 -4.29234,6.64285 -0.429942,1.63473 -0.872878,4.23092 -0.872878,5.88572l-0.627196 0.102761z"
   id="path88" />
  <path
   class="fil13"
   d="M16.1843 7.36808c6.33574,0 11.4738,5.22309 11.4738,11.664 0,6.44205 -5.13805,11.6651 -11.4738,11.6651 -6.33693,0 -11.475,-5.22309 -11.475,-11.6651 0,-6.44087 5.13805,-11.664 11.475,-11.664z"
   id="path90" />
  <path
   class="fil14"
   d="M16.1843 7.36808c6.33574,0 11.4738,5.22309 11.4738,11.664 0,6.44205 -5.13805,11.6651 -11.4738,11.6651 -6.33693,0 -11.475,-5.22309 -11.475,-11.6651 0,-6.44087 5.13805,-11.664 11.475,-11.664zm7.0468 4.46597c-1.80127,-1.8308 -4.2947,-2.96589 -7.0468,-2.96589 -2.7521,0 -5.24553,1.13391 -7.0468,2.96589 -1.80718,1.83789 -2.9281,4.38329 -2.9281,7.19799 0,2.81471 1.11856,5.36129 2.9281,7.19917 1.80127,1.8308 4.29352,2.96589 7.0468,2.96589 2.7521,0 5.24553,-1.1351 7.0468,-2.96589 1.80718,-1.83789 2.92692,-4.38447 2.92692,-7.19917 0,-2.81352 -1.11974,-5.36011 -2.92692,-7.19799z"
   id="path92" />
  <path
   class="fil15"
   d="M25.3194 14.1515c-0.494906,-0.965008 -1.23904,-1.82726 -2.25602,-2.51942 -1.80599,-1.80599 -4.3514,-2.67415 -7.09405,-2.67415l-0.00118116 0c-2.74384,0 -5.39082,0.969733 -7.19799,2.77573 -0.894138,0.68153 -1.5863,1.50244 -2.06939,2.41784l-0.232689 0c0.0685073,-0.135833 0.140558,-0.269305 0.214971,-0.401595l-0.0543334 0c0.514986,-1.01462 1.18707,-1.93592 1.98435,-2.73439l0.00118116 -0.00118116c1.92765,-1.92765 4.58881,-3.12535 7.51454,-3.12535l0.00118116 0c2.92455,0 5.58689,1.19652 7.51572,3.12535l0 0.00118116c0.797283,0.797283 1.46936,1.71977 1.98317,2.73439l-0.148826 0c-0.451203,-0.879965 -1.11029,-1.6737 -1.99498,-2.33279 0.797283,0.797283 1.46936,1.71977 1.98317,2.73439l-0.148826 0z"
   id="path94" />
  <path
   class="fil16"
   d="M16.1843 6.86727c3.30607,0 6.30149,1.36542 8.46892,3.56829 2.16507,2.20168 3.50568,5.24435 3.50568,8.59649 0,3.3545 -1.34062,6.39598 -3.50568,8.59767 -2.16743,2.20286 -5.16285,3.56829 -8.46892,3.56829 -3.30725,0 -6.30149,-1.36542 -8.46892,-3.56829 -2.16625,-2.2005 -3.50687,-5.24317 -3.50687,-8.59767 0,-3.35568 1.3418,-6.3948 3.50687,-8.59649 2.16743,-2.20405 5.16403,-3.56829 8.46892,-3.56829zm7.75786 4.26753c-1.98317,-2.01624 -4.72819,-3.26591 -7.75786,-3.26591 -3.02968,0 -5.77469,1.24849 -7.75786,3.26591 -1.98553,2.0186 -3.2163,4.81205 -3.2163,7.89724 0,3.08637 1.22959,5.87982 3.2163,7.89842 1.98317,2.01624 4.727,3.26591 7.75786,3.26591 3.02968,0 5.77469,-1.24967 7.75786,-3.26591 1.98553,-2.0186 3.21512,-4.81205 3.21512,-7.89842 0,-3.08519 -1.22959,-5.87864 -3.21512,-7.89724z"
   id="path96" />
  <path
   class="fil17"
   d="M12.8345 26.0139l-0.377971 0.217334 0 -1.15045 0 -5.9188 0 -5.91998 0 -1.15045 0.998081 0.575225 5.12506 2.95881 0.00236232 0 5.12624 2.95999 0.995718 0.576406 -0.115754 0.066145c-0.476008,-0.168906 -1.00044,-0.237413 -1.50952,-0.073232 -1.57685,0.510261 -8.90241,4.28879 -9.15754,5.36011 0,0 -0.639008,0.790196 -1.08667,1.49889zm5.08253 -4.46715l-0.00118116 -0.00118116 4.12816 -2.38358 -4.12816 -2.38476 0.00118116 0 -4.12697 -2.38358 0 4.76834 0 4.76716 4.12697 -2.3824z"
   id="path98" />
  <path
   class="fil18"
   d="M23.3067 19.7372l-5.12624 2.95999 -0.00236232 0 -5.12506 2.95881 -0.620109 0.357892c0.44766,-0.708696 1.08667,-1.49889 1.08667,-1.49889 0.255131,-1.07131 7.58069,-4.84984 9.15754,-5.36011 0.50908,-0.164181 1.03352,-0.095674 1.50952,0.073232l-0.879965 0.50908z"
   id="path100" />
  <polygon
   class="fil19"
   points="23.2169,19.162 18.0918,22.1208 12.9668,25.0808 12.9668,19.162 12.9668,13.242 18.0918,16.202 "
   id="polygon102" />
  <polygon
   class="fil20"
   points="23.2169,19.162 22.5932,19.5222 15.4578,15.4472 13.633,14.3936 13.633,14.4279 12.9668,14.1267 12.9668,13.242 18.0918,16.202 "
   id="polygon104" />
  <polygon
   class="fil21"
   points="12.9668,25.0808 12.9668,19.162 12.9668,14.1267 13.633,14.4279 13.633,19.162 13.633,23.9291 "
   id="polygon106" />
  <ellipse
   class="fil22"
   cx="16.3114"
   cy="8.52464"
   rx="1.44365"
   ry="0.441803"
   id="ellipse108" />
  <path
   class="fil23"
   d="M3.79625 13.744c1.5048,0 1.83789,2.5891 1.83789,5.72036 0,3.13008 -0.333087,5.62114 -1.83789,5.62114 -1.50362,0 -3.55529,-2.54068 -3.55529,-5.67075 0,-3.13126 2.05168,-5.67075 3.55529,-5.67075z"
   id="path110" />
  <path
   class="fil24"
   d="M28.2793 13.744c-1.5048,0 -1.83789,2.5891 -1.83789,5.72036 0,3.13008 0.333087,5.62114 1.83789,5.62114 1.50362,0 3.55529,-2.54068 3.55529,-5.67075 0,-3.13126 -2.05168,-5.67075 -3.55529,-5.67075z"
   id="path112" />
  <path
   class="fil25"
   d="M5.10498 21.0967c-0.20316,1.43039 -0.615385,2.35405 -1.40322,2.35405 -1.04178,0 -2.38949,-1.65362 -2.8714,-3.93917l0.493725 0.10158c0.620109,1.65599 2.08829,1.9501 2.78518,1.9501 0.696885,0 0.754762,0.274029 0.995718,-0.466558z"
   id="path114" />
  <path
   class="fil25"
   d="M26.9706 21.0967c0.20316,1.43039 0.615385,2.35405 1.40322,2.35405 1.04178,0 2.38949,-1.65362 2.8714,-3.93917l-0.493725 0.10158c-0.620109,1.65599 -2.08829,1.9501 -2.78518,1.9501 -0.696885,0 -0.754762,0.274029 -0.995718,-0.466558z"
   id="path116" />
  <path
   class="fil26"
   d="M3.79625 13.4097c0.93666,0 1.49535,0.744131 1.80481,1.9371 0.279935,1.07249 0.367341,2.53005 0.367341,4.11753 0,1.58866 -0.0874059,3.02377 -0.367341,4.07028 -0.311826,1.16699 -0.869334,1.88513 -1.80481,1.88513 -0.913037,0 -1.97844,-0.783109 -2.75801,-2.02451l0 -0.00118116c-0.660269,-1.05478 -0.850436,-2.4013 -0.850436,-3.92854 0,-1.52724 0.190167,-2.97534 0.850436,-4.03012l0 -0.00118116c0.779566,-1.2414 1.84497,-2.02451 2.75801,-2.02451zm1.16108 2.10365c-0.230326,-0.883508 -0.594124,-1.43511 -1.16108,-1.43511 -0.688617,0 -1.53669,0.66145 -2.19578,1.71032l0 -0.00118116c-0.597667,0.95674 -1.02525,2.22885 -1.02525,3.62734 0,1.39731 0.42758,2.6706 1.02525,3.62734l0 -0.00118116c0.659088,1.04887 1.50716,1.71032 2.19578,1.71032 0.568138,0 0.931936,-0.52916 1.16108,-1.38786 0.261036,-0.979182 0.342537,-2.35878 0.342537,-3.89901 0,-1.5426 -0.0815001,-2.94818 -0.342537,-3.95098z"
   id="path118" />
  <path
   class="fil26"
   d="M28.2793 13.4097c-0.93666,0 -1.49535,0.744131 -1.80481,1.9371 -0.279935,1.07249 -0.367341,2.53005 -0.367341,4.11753 0,1.58866 0.0874059,3.02377 0.367341,4.07028 0.311826,1.16699 0.869334,1.88513 1.80481,1.88513 0.913037,0 1.97844,-0.783109 2.75801,-2.02451l0 -0.00118116c0.660269,-1.05478 0.850436,-2.4013 0.850436,-3.92854 0,-1.52724 -0.190167,-2.97534 -0.850436,-4.03012l0 -0.00118116c-0.779566,-1.2414 -1.84497,-2.02451 -2.75801,-2.02451zm-1.16108 2.10365c0.230326,-0.883508 0.594124,-1.43511 1.16108,-1.43511 0.688617,0 1.53669,0.66145 2.19578,1.71032l0 -0.00118116c0.597667,0.95674 1.02525,2.22885 1.02525,3.62734 0,1.39731 -0.42758,2.6706 -1.02525,3.62734l0 -0.00118116c-0.659088,1.04887 -1.50716,1.71032 -2.19578,1.71032 -0.568138,0 -0.931936,-0.52916 -1.16108,-1.38786 -0.261036,-0.979182 -0.342537,-2.35878 -0.342537,-3.89901 0,-1.5426 0.0815001,-2.94818 0.342537,-3.95098z"
   id="path120" />
  <path
   class="fil27"
   d="M5.05419 22.4243c-0.20316,1.43039 -0.616566,2.35405 -1.40322,2.35405 -1.04178,0 -2.39067,-1.65362 -2.8714,-3.93917l0.594124 0c0.620109,1.65599 1.67843,2.7651 2.53123,2.7651 0.542153,0 0.908312,-0.439392 1.14927,-1.17998z"
   id="path122" />
  <path
   class="fil27"
   d="M27.0214 22.4243c0.20316,1.43039 0.616566,2.35405 1.40322,2.35405 1.04178,0 2.39067,-1.65362 2.8714,-3.93917l-0.594124 0c-0.620109,1.65599 -1.67843,2.7651 -2.53123,2.7651 -0.542153,0 -0.908312,-0.439392 -1.14927,-1.17998z"
   id="path124" />
  <path
   class="fil28"
   d="M4.52384 12.2628l1.97608 0c0.290565,0 0.524435,0.311826 0.526798,0.690979l0.0566957 12.6337c0.00236232,0.377971 -0.237413,0.688617 -0.525616,0.688617l-1.97608 0c-0.288203,0 -0.525616,-0.308283 -0.526798,-0.688617l-0.0566957 -12.6337c-0.00118116,-0.380334 0.236232,-0.690979 0.525616,-0.690979z"
   id="path126" />
  <path
   class="fil28"
   d="M27.5069 12.2628l-1.92647 0c-0.282297,0 -0.510261,0.311826 -0.512624,0.690979l-0.0555145 12.6337c-0.00236232,0.377971 0.231507,0.688617 0.511442,0.688617l1.92647 0c0.279935,0 0.511442,-0.308283 0.512624,-0.688617l0.0566957 -12.6337c0,-0.380334 -0.230326,-0.690979 -0.512624,-0.690979z"
   id="path128" />
  <path
   class="fil29"
   d="M7.06334 13.1321l1.39849 0.10158c0.223239,0.0153551 0.368522,0.300015 0.406319,0.642551l1.49653 13.6731c0.0377971,0.343718 -0.729957,0.26458 -0.934298,0.13229l-2.45445 -1.58276c-0.204341,-0.13229 -0.374428,-0.294109 -0.406319,-0.643732l-1.09966 -11.6285c-0.0318913,-0.349624 1.37015,-0.709877 1.59339,-0.694522z"
   id="path130" />
  <g
   id="_246042376">
   <path
   id="_245973848"
   class="fil30"
   d="M6.9405 13.1144c0.438211,0.0342537 0.87524,0.0685073 1.31227,0.10158 0.226783,0.0177174 0.310645,0.22442 0.340174,0.566957 0.398051,4.47305 0.796102,8.94847 1.19297,13.4251 0.0307102,0.343718 -0.76303,0.296471 -0.948472,0.13229 -0.686254,-0.457109 -1.37251,-0.914218 -2.05994,-1.37015 -0.184261,-0.164181 -0.381515,-0.294109 -0.412225,-0.643732 -0.347261,-3.83995 -0.694522,-7.67991 -1.04296,-11.5175 -0.0307102,-0.349624 1.39141,-0.711059 1.61819,-0.694522z" />
   <path
   id="_246085656"
   class="fil31"
   d="M6.81766 13.0979c0.408682,0.0342537 0.817363,0.0685073 1.22604,0.10158 0.230326,0.0188986 0.251587,0.146464 0.274029,0.489 0.297652,4.39155 0.594124,8.78547 0.890595,13.1782 0.022442,0.343718 -0.797283,0.329544 -0.963827,0.13229 -0.553964,-0.386239 -1.10911,-0.771298 -1.66426,-1.15636 -0.166544,-0.197254 -0.389783,-0.294109 -0.419312,-0.643732 -0.328363,-3.80334 -0.656725,-7.60549 -0.986269,-11.4065 -0.0283479,-0.349624 1.41267,-0.714602 1.64299,-0.694522z" />
   <path
   id="_246087528"
   class="fil32"
   d="M6.69246 13.0802c0.380334,0.0342537 0.759486,0.0685073 1.13864,0.10158 0.23387,0.0212609 0.194891,0.0708696 0.209065,0.413406 0.196073,4.30887 0.392145,8.62011 0.587037,12.9313 0.0141739,0.343718 -0.831537,0.361435 -0.978001,0.13229 -0.422855,-0.31537 -0.845711,-0.629559 -1.26975,-0.943747 -0.146464,-0.229145 -0.39687,-0.294109 -0.425218,-0.643732 -0.309464,-3.76672 -0.618928,-7.53226 -0.929573,-11.2966 -0.0271667,-0.349624 1.43393,-0.715783 1.6678,-0.694522z" />
   <path
   id="_246072000"
   class="fil33"
   d="M6.5708 13.0636c0.350805,0.0342537 0.701609,0.0685073 1.05123,0.10158 0.237413,0.0236232 0.137015,-0.0059058 0.144102,0.336631 0.0944928,4.22619 0.188986,8.45475 0.282297,12.6845 0.00708696,0.343718 -0.864609,0.392145 -0.990994,0.13229 -0.291747,-0.2445 -0.583493,-0.489 -0.87524,-0.73232 -0.127565,-0.261036 -0.405138,-0.292928 -0.431124,-0.643732 -0.290565,-3.72892 -0.581131,-7.45785 -0.872878,-11.1844 -0.0271667,-0.350805 1.45519,-0.718146 1.6926,-0.694522z" />
   <path
   id="_246094536"
   class="fil34"
   d="M6.44677 13.0459c0.321276,0.0342537 0.643732,0.0685073 0.965008,0.10158 0.240957,0.0259855 0.0779566,-0.0826812 0.0779566,0.259855 -0.00708696,4.14469 -0.0129928,8.29175 -0.0200797,12.4376 -0.00118116,0.343718 -0.898863,0.425218 -1.00635,0.13229 -0.160638,-0.173631 -0.320094,-0.34608 -0.480732,-0.518529 -0.108667,-0.292928 -0.412225,-0.292928 -0.437029,-0.643732 -0.271667,-3.69231 -0.543334,-7.38343 -0.816182,-11.0746 -0.0248044,-0.349624 1.47645,-0.720508 1.71741,-0.694522z" />
  </g>
  <path
   class="fil35"
   d="M6.32039 13.0294l0.878783 0.10158c0.2445,0.0271667 0.0200797,-0.159457 0.0118116,0.18308l-0.323638 12.1919c-0.00826812,0.343718 -0.931936,0.457109 -1.02052,0.13229l-0.0850436 -0.305921c-0.0897682,-0.326 -0.420493,-0.292928 -0.444116,-0.643732l-0.759486 -10.9647c-0.0236232,-0.350805 1.49771,-0.72287 1.74221,-0.694522z"
   id="path138" />
  <path
   class="fil29"
   d="M25.0123 13.1321l-1.39849 0.10158c-0.223239,0.0153551 -0.368522,0.300015 -0.406319,0.642551l-1.49653 13.6731c-0.0377971,0.343718 0.729957,0.26458 0.934298,0.13229l2.45445 -1.58276c0.204341,-0.13229 0.374428,-0.294109 0.406319,-0.643732l1.09966 -11.6285c0.0318913,-0.349624 -1.37015,-0.709877 -1.59339,-0.694522z"
   id="path140" />
  <g
   id="_246047296">
   <path
   id="_246043744"
   class="fil30"
   d="M25.1375 13.1144c-0.435848,0.0342537 -0.872878,0.0685073 -1.30754,0.10158 -0.226783,0.0177174 -0.310645,0.22442 -0.341355,0.566957 -0.399232,4.47305 -0.796102,8.94847 -1.19415,13.4251 -0.0307102,0.343718 0.759486,0.296471 0.943747,0.13229 0.686254,-0.457109 1.37251,-0.914218 2.05994,-1.37015 0.184261,-0.164181 0.380334,-0.294109 0.411044,-0.643732 0.34608,-3.83995 0.69216,-7.67991 1.03942,-11.5175 0.029529,-0.349624 -1.3855,-0.711059 -1.6111,-0.694522z" />
   <path
   id="_246047584"
   class="fil31"
   d="M25.2603 13.0979c-0.406319,0.0342537 -0.812638,0.0685073 -1.21778,0.10158 -0.227964,0.0188986 -0.252768,0.146464 -0.27521,0.489 -0.297652,4.39155 -0.595305,8.78547 -0.892957,13.1782 -0.022442,0.343718 0.790196,0.329544 0.955559,0.13229 0.553964,-0.386239 1.10793,-0.771298 1.66307,-1.15636 0.165362,-0.197254 0.386239,-0.294109 0.415768,-0.643732 0.326,-3.80334 0.652001,-7.60549 0.979182,-11.4065 0.029529,-0.349624 -1.39968,-0.714602 -1.62764,-0.694522z" />
   <path
   id="_246045808"
   class="fil32"
   d="M25.3843 13.0802c-0.375609,0.0342537 -0.752399,0.0685073 -1.12683,0.10158 -0.231507,0.0212609 -0.194891,0.0708696 -0.209065,0.413406 -0.198435,4.30887 -0.394508,8.62011 -0.591761,12.9313 -0.0141739,0.343718 0.819725,0.361435 0.965008,0.13229 0.422855,-0.31537 0.845711,-0.629559 1.26857,-0.943747 0.145283,-0.229145 0.392145,-0.294109 0.420493,-0.643732 0.305921,-3.76672 0.611841,-7.53226 0.918943,-11.2966 0.0271667,-0.349624 -1.41503,-0.715783 -1.64536,-0.694522z" />
   <path
   id="_246046216"
   class="fil33"
   d="M25.5083 13.0636c-0.34608,0.0342537 -0.69216,0.0685073 -1.03706,0.10158 -0.23387,0.0236232 -0.135833,-0.0059058 -0.14292,0.336631 -0.0980363,4.22619 -0.19371,8.45475 -0.289384,12.6845 -0.00708696,0.343718 0.849254,0.392145 0.974457,0.13229 0.290565,-0.2445 0.582312,-0.489 0.874059,-0.73232 0.125203,-0.261036 0.398051,-0.292928 0.424037,-0.643732 0.285841,-3.72892 0.572863,-7.45785 0.859885,-11.1844 0.0248044,-0.350805 -1.43039,-0.718146 -1.66307,-0.694522z" />
   <path
   id="_246041512"
   class="fil34"
   d="M25.6324 13.0459c-0.31537,0.0342537 -0.631921,0.0685073 -0.94611,0.10158 -0.236232,0.0259855 -0.0791378,-0.0826812 -0.0779566,0.259855 0.00354348,4.14469 0.00826812,8.29175 0.0118116,12.4376 0.00118116,0.343718 0.879965,0.425218 0.986269,0.13229 0.158276,-0.173631 0.317732,-0.34608 0.477189,-0.518529 0.106304,-0.292928 0.403957,-0.292928 0.429942,-0.643732 0.265761,-3.69231 0.531522,-7.38343 0.798464,-11.0746 0.0248044,-0.349624 -1.44456,-0.720508 -1.67961,-0.694522z" />
  </g>
  <path
   class="fil35"
   d="M25.7564 13.0294l-0.856341 0.10158c-0.238594,0.0271667 -0.0200797,-0.159457 -0.0118116,0.18308l0.314189 12.1919c0.00826812,0.343718 0.909494,0.457109 0.995718,0.13229l0.0826812 -0.305921c0.0862247,-0.326 0.409863,-0.292928 0.433486,-0.643732l0.739406 -10.9647c0.022442,-0.350805 -1.45991,-0.72287 -1.69733,-0.694522z"
   id="path148" />
  <path
   class="fil29"
   d="M25.1339 13.0306l-1.51307 0.10158c-0.243319,0.0153551 -0.400413,0.300015 -0.441754,0.642551l-1.61937 13.6731c-0.0413406,0.343718 0.790196,0.26458 1.01107,0.13229l2.65761 -1.58276c0.222058,-0.13229 0.406319,-0.294109 0.440573,-0.643732l1.19179 -11.6285c0.0342537,-0.349624 -1.48354,-0.709877 -1.72686,-0.694522z"
   id="path150" />
  <path
   class="fil36"
   d="M4.9715 12.9526l0.943747 0c0.138196,0 0.250406,0.283479 0.251587,0.624834l0.0271667 11.4868c0.00118116,0.342537 -0.113391,0.626015 -0.251587,0.626015l-0.942566 0c-0.138196,0 -0.250406,-0.281116 -0.250406,-0.626015l-0.0283479 -11.4868c0,-0.343718 0.11221,-0.624834 0.250406,-0.624834z"
   id="path152" />
  <path
   class="fil37"
   d="M27.0698 12.9526l-0.920124 0c-0.134652,0 -0.243319,0.283479 -0.2445,0.624834l-0.0271667 11.4868c0,0.342537 0.111029,0.626015 0.245681,0.626015l0.918943 0c0.133471,0 0.2445,-0.281116 0.2445,-0.626015l0.0271667 -11.4868c0,-0.343718 -0.109848,-0.624834 -0.2445,-0.624834z"
   id="path154" />
  <path
   class="fil38"
   d="M5.07663 14.357l0.725233 0.0507899c0.14292,0.00944928 0.419312,-1.36542 0.419312,-1.32172l0.029529 5.78414c0,0.0437029 -0.343718,-2.85368 -0.463015,-2.82888l-0.746493 0.153551c-0.118116,0.0236232 -0.375609,2.51351 -0.375609,2.445l0.0141739 -5.5798c0,-0.0448841 0.252768,1.28746 0.39687,1.29691z"
   id="path156" />
  <path
   class="fil38"
   d="M26.9671 14.357l-0.705153 0.0507899c-0.140558,0.00944928 -0.409863,-1.36542 -0.409863,-1.32172l-0.0283479 5.78414c0,0.0437029 0.334268,-2.85368 0.451203,-2.82888l0.726414 0.153551c0.115754,0.0236232 0.36616,2.51351 0.36616,2.445l-0.0129928 -5.5798c0,-0.0448841 -0.246863,1.28746 -0.387421,1.29691z"
   id="path158" />
  <path
   class="fil39"
   d="M1.78001 16.8185c0,-0.866972 0.785472,-1.72449 1.19061,-1.72449 0.405138,0 0.326,0.857523 0.326,1.72449 0,0.866972 -0.277573,1.41739 -0.682711,1.41739 -0.405138,0 -0.833899,-0.550421 -0.833899,-1.41739z"
   id="path160" />
  <path
   class="fil40"
   d="M30.2956 16.8185c0,-0.866972 -0.785472,-1.72449 -1.19061,-1.72449 -0.405138,0 -0.326,0.857523 -0.326,1.72449 0,0.866972 0.277573,1.41739 0.682711,1.41739 0.405138,0 0.833899,-0.550421 0.833899,-1.41739z"
   id="path162" />
  <path
   class="fil41"
   d="M0.480732 16.6024l0.75358 0c0.2445,0 0.442935,0.322457 0.442935,0.715783l0 4.54156c0,0.393326 -0.199616,0.715783 -0.442935,0.715783l-0.75358 0c-0.243319,0 -0.444116,-0.321276 -0.444116,-0.715783l0 -4.54156c0,-0.394508 0.199616,-0.715783 0.444116,-0.715783z"
   id="path164" />
  <path
   class="fil42"
   d="M31.5972 16.6024l-0.751218 0c-0.243319,0 -0.441754,0.322457 -0.441754,0.715783l0 4.54156c0,0.393326 0.198435,0.715783 0.441754,0.715783l0.751218 0c0.242138,0 0.441754,-0.321276 0.441754,-0.715783l0 -4.54156c0,-0.394508 -0.198435,-0.715783 -0.441754,-0.715783z"
   id="path166" />
  <path
   class="fil43"
   d="M0.992175 17.4705l0.350805 0c0.113391,0 0.205522,0.0909494 0.205522,0.201978l0 1.28038c0,0.111029 -0.0921305,0.201978 -0.205522,0.201978l-0.350805 0c-0.113391,0 -0.206703,-0.0909494 -0.206703,-0.201978l0 -1.28038c0,-0.111029 0.0933117,-0.201978 0.206703,-0.201978z"
   id="path168" />
  <path
   class="fil43"
   d="M31.2464 17.4705l-0.350805 0c-0.113391,0 -0.205522,0.0909494 -0.205522,0.201978l0 1.28038c0,0.111029 0.0921305,0.201978 0.205522,0.201978l0.350805 0c0.113391,0 0.206703,-0.0909494 0.206703,-0.201978l0 -1.28038c0,-0.111029 -0.0933117,-0.201978 -0.206703,-0.201978z"
   id="path170" />
  <path
   class="fil44"
   d="M4.76362 13.4121l0.631921 1.73158 0.561051 0.106304c0.138196,0.0271667 0.262218,0.0779566 0.26458,0.168906l0.0578769 2.18987c0.00236232,0.0909494 -0.122841,0.167725 -0.266942,0.167725l-0.457109 0 0.0165362 0.0141739c0.0921305,0.0696885 -0.83508,3.29308 -0.83508,3.20094l-0.0153551 -5.85383c0,-0.0933117 0.0106304,-1.81426 0.0425218,-1.72568z"
   id="path172" />
  <path
   class="fil44"
   d="M27.2718 13.4121l-0.614203 1.73158 -0.546877 0.106304c-0.135833,0.0271667 -0.256312,0.0779566 -0.258674,0.168906l-0.0555145 2.18987c-0.00236232,0.0909494 0.119297,0.167725 0.258674,0.167725l0.446479 0 -0.0165362 0.0141739c-0.0897682,0.0696885 0.81382,3.29308 0.81382,3.20094l0.0153551 -5.85383c0,-0.0933117 -0.0106304,-1.81426 -0.0425218,-1.72568z"
   id="path174" />
  <path
   class="fil45"
   d="M5.02111 24.8469l0.823269 0c0.13229,0 0.239776,0.0165362 0.239776,0.0354348l0.0271667 0.617747c0,0.0200797 -0.108667,0.0354348 -0.239776,0.0354348l-0.901225 0c-0.131109,0 -0.239776,-0.0153551 -0.239776,-0.0354348l-0.0649638 -3.60372c0,-0.0200797 0.22442,2.95054 0.355529,2.95054z"
   id="path176" />
  <path
   class="fil45"
   d="M27.0214 24.8469l-0.802008 0c-0.128746,0 -0.232689,0.0165362 -0.23387,0.0354348l-0.0259855 0.617747c0,0.0200797 0.105123,0.0354348 0.23387,0.0354348l0.877602 0c0.127565,0 0.23387,-0.0153551 0.23387,-0.0354348l0.0637827 -3.60372c0,-0.0200797 -0.218515,2.95054 -0.347261,2.95054z"
   id="path178" />
 </g>
</svg>