<?xml version="1.0" encoding="UTF-8" standalone="no"?>
<!-- Creator: CorelDRAW -->

<svg
   xmlns:dc="http://purl.org/dc/elements/1.1/"
   xmlns:cc="http://creativecommons.org/ns#"
   xmlns:rdf="http://www.w3.org/1999/02/22-rdf-syntax-ns#"
   xmlns:svg="http://www.w3.org/2000/svg"
   xmlns="http://www.w3.org/2000/svg"
   xmlns:xlink="http://www.w3.org/1999/xlink"
   xmlns:sodipodi="http://sodipodi.sourceforge.net/DTD/sodipodi-0.dtd"
   xmlns:inkscape="http://www.inkscape.org/namespaces/inkscape"
   xml:space="preserve"
   width="48px"
   height="48px"
   style="shape-rendering:geometricPrecision; text-rendering:geometricPrecision; image-rendering:optimizeQuality; fill-rule:evenodd; clip-rule:evenodd"
   viewBox="0 0 48 48"
   id="svg2"
   version="1.1"
   inkscape:version="0.48.3.1 r9886"
   sodipodi:docname="evolution.svg"><metadata
   id="metadata262"><rdf:RDF><cc:Work
       rdf:about=""><dc:format>image/svg+xml</dc:format><dc:type
         rdf:resource="http://purl.org/dc/dcmitype/StillImage" /></cc:Work></rdf:RDF></metadata><sodipodi:namedview
   pagecolor="#ffffff"
   bordercolor="#666666"
   borderopacity="1"
   objecttolerance="10"
   gridtolerance="10"
   guidetolerance="10"
   inkscape:pageopacity="0"
   inkscape:pageshadow="2"
   inkscape:window-width="1920"
   inkscape:window-height="1057"
   id="namedview260"
   showgrid="true"
   inkscape:zoom="13.906433"
   inkscape:cx="28.769378"
   inkscape:cy="20.965511"
   inkscape:window-x="-8"
   inkscape:window-y="-8"
   inkscape:window-maximized="1"
   inkscape:current-layer="svg2"><inkscape:grid
     type="xygrid"
     id="grid3239" /></sodipodi:namedview>
 <defs
   id="defs4">
  <style
   type="text/css"
   id="style6">
   
    .fil17 {fill:#CCCCCC}
    .fil20 {fill:white}
    .fil16 {fill:#5589C4}
    .fil32 {fill:#A2672B}
    .fil15 {fill:#C36332}
    .fil65 {fill:#FFF2A6}
    .fil61 {fill:#C4C4C4}
    .fil21 {fill:white;fill-rule:nonzero}
    .fil70 {fill:#D4962A;fill-rule:nonzero}
    .fil69 {fill:#F2C738;fill-rule:nonzero}
    .fil68 {fill:#FFF5BA;fill-rule:nonzero}
    .fil42 {fill:#666666;fill-opacity:0.000000}
    .fil30 {fill:#B2B2B2;fill-opacity:0.000000}
    .fil0 {fill:black;fill-opacity:0.000000}
    .fil1 {fill:black;fill-opacity:0.003922}
    .fil53 {fill:#A2672B;fill-opacity:0.007843}
    .fil43 {fill:#666666;fill-opacity:0.007843}
    .fil2 {fill:black;fill-opacity:0.007843}
    .fil54 {fill:#A2672B;fill-opacity:0.011765}
    .fil3 {fill:black;fill-opacity:0.015686}
    .fil44 {fill:#666666;fill-opacity:0.019608}
    .fil4 {fill:black;fill-opacity:0.019608}
    .fil55 {fill:#A2672B;fill-opacity:0.019608}
    .fil5 {fill:black;fill-opacity:0.023529}
    .fil45 {fill:#666666;fill-opacity:0.027451}
    .fil56 {fill:#A2672B;fill-opacity:0.027451}
    .fil6 {fill:black;fill-opacity:0.027451}
    .fil7 {fill:black;fill-opacity:0.031373}
    .fil57 {fill:#A2672B;fill-opacity:0.031373}
    .fil46 {fill:#666666;fill-opacity:0.035294}
    .fil8 {fill:black;fill-opacity:0.035294}
    .fil58 {fill:#A2672B;fill-opacity:0.039216}
    .fil9 {fill:black;fill-opacity:0.043137}
    .fil47 {fill:#666666;fill-opacity:0.043137}
    .fil10 {fill:black;fill-opacity:0.047059}
    .fil59 {fill:#A2672B;fill-opacity:0.047059}
    .fil11 {fill:black;fill-opacity:0.050980}
    .fil48 {fill:#666666;fill-opacity:0.054902}
    .fil60 {fill:#A2672B;fill-opacity:0.054902}
    .fil12 {fill:black;fill-opacity:0.054902}
    .fil13 {fill:black;fill-opacity:0.058824}
    .fil49 {fill:#666666;fill-opacity:0.062745}
    .fil50 {fill:#666666;fill-opacity:0.070588}
    .fil29 {fill:#B2B2B2;fill-opacity:0.074510}
    .fil51 {fill:#666666;fill-opacity:0.078431}
    .fil28 {fill:#B2B2B2;fill-opacity:0.145098}
    .fil27 {fill:#B2B2B2;fill-opacity:0.219608}
    .fil23 {fill:#633695;fill-rule:nonzero;fill-opacity:0.219608}
    .fil26 {fill:#B2B2B2;fill-opacity:0.294118}
    .fil25 {fill:#B2B2B2;fill-opacity:0.368627}
    .fil24 {fill:#B2B2B2;fill-opacity:0.439216}
    .fil40 {fill:#CCCCCC;fill-opacity:0.439216}
    .fil67 {fill:#FFEC80;fill-rule:nonzero;fill-opacity:0.439216}
    .fil19 {fill:white;fill-opacity:0.560784}
    .fil66 {fill:#F9C518;fill-opacity:0.780392}
    .fil31 {fill:#FFEC80;fill-opacity:0.780392}
    .fil64 {fill:#FFE351;fill-opacity:0.839216}
    .fil18 {fill:url(#id6)}
    .fil62 {fill:url(#id7)}
    .fil38 {fill:url(#id8)}
    .fil35 {fill:url(#id9)}
    .fil33 {fill:url(#id10)}
    .fil52 {fill:url(#id11)}
    .fil37 {fill:url(#id12)}
    .fil39 {fill:url(#id13)}
    .fil34 {fill:url(#id14)}
    .fil36 {fill:url(#id15)}
    .fil41 {fill:url(#id16)}
    .fil14 {fill:url(#id17)}
    .fil22 {fill:url(#id18);fill-rule:nonzero}
    .fil63 {fill:url(#id19);fill-rule:nonzero}
   
  </style>
   <mask
   id="id0">
  <linearGradient
   id="id1"
   gradientUnits="userSpaceOnUse"
   x1="24.8728"
   y1="36.2622"
   x2="23.3067"
   y2="19.5472">
   <stop
   offset="0"
   style="stop-opacity:1; stop-color:white"
   id="stop10" />
   <stop
   offset="1"
   style="stop-opacity:0; stop-color:white"
   id="stop12" />
  </linearGradient>
    <rect
   style="fill:url(#id1)"
   x="3.46063"
   y="17.8902"
   width="41.2594"
   height="20.0291"
   id="rect14" />
   </mask>
   <mask
   id="id2">
  <linearGradient
   id="id3"
   gradientUnits="userSpaceOnUse"
   x1="24.8728"
   y1="43.8543"
   x2="23.087"
   y2="25.9748">
   <stop
   offset="0"
   style="stop-opacity:1; stop-color:white"
   id="stop18" />
   <stop
   offset="1"
   style="stop-opacity:0; stop-color:white"
   id="stop20" />
  </linearGradient>
    <rect
   style="fill:url(#id3)"
   x="2.07874"
   y="24.3803"
   width="43.8012"
   height="21.0697"
   id="rect22" />
   </mask>
   <mask
   id="id4">
  <linearGradient
   id="id5"
   gradientUnits="userSpaceOnUse"
   x1="24.8728"
   y1="43.1705"
   x2="23.087"
   y2="25.2909">
   <stop
   offset="0"
   style="stop-opacity:1; stop-color:white"
   id="stop26" />
   <stop
   offset="1"
   style="stop-opacity:0; stop-color:white"
   id="stop28" />
  </linearGradient>
    <rect
   style="fill:url(#id5)"
   x="2.07874"
   y="23.6965"
   width="43.8012"
   height="21.0697"
   id="rect30" />
   </mask>
  <linearGradient
   id="id6"
   gradientUnits="userSpaceOnUse"
   x1="24.124"
   y1="36.7925"
   x2="24.124"
   y2="18.5303">
   <stop
   offset="0"
   style="stop-color:#CCCCCC"
   id="stop33" />
   <stop
   offset="1"
   style="stop-color:#EDEDED"
   id="stop35" />
  </linearGradient>
  <linearGradient
   id="id7"
   gradientUnits="userSpaceOnUse"
   x1="23.9031"
   y1="8.85472"
   x2="24.1819"
   y2="30.9484">
   <stop
   offset="0"
   style="stop-color:whitesmoke"
   id="stop38" />
   <stop
   offset="1"
   style="stop-color:white"
   id="stop40" />
  </linearGradient>
  <linearGradient
   id="id8"
   gradientUnits="userSpaceOnUse"
   x1="43.1823"
   y1="26.1898"
   x2="42.9213"
   y2="21.8917">
   <stop
   offset="0"
   style="stop-color:#5589C4"
   id="stop43" />
   <stop
   offset="1"
   style="stop-color:#5B8EC9"
   id="stop45" />
  </linearGradient>
  <linearGradient
   id="id9"
   gradientUnits="userSpaceOnUse"
   xlink:href="#id8"
   x1="4.92165"
   y1="26.1744"
   x2="4.63346"
   y2="21.5268">
  </linearGradient>
  <linearGradient
   id="id10"
   gradientUnits="userSpaceOnUse"
   x1="24.0142"
   y1="42.7807"
   x2="23.7295"
   y2="10.9157">
   <stop
   offset="0"
   style="stop-color:#D4D4D4"
   id="stop49" />
   <stop
   offset="1"
   style="stop-color:#EDEDED"
   id="stop51" />
  </linearGradient>
  <linearGradient
   id="id11"
   gradientUnits="userSpaceOnUse"
   x1="23.9386"
   y1="10.4185"
   x2="24.1854"
   y2="27.411">
   <stop
   offset="0"
   style="stop-color:#E5E5E5"
   id="stop54" />
   <stop
   offset="1"
   style="stop-color:white"
   id="stop56" />
  </linearGradient>
  <linearGradient
   id="id12"
   gradientUnits="userSpaceOnUse"
   x1="43.3665"
   y1="31.9087"
   x2="42.737"
   y2="27.9059">
   <stop
   offset="0"
   style="stop-color:#C36332"
   id="stop59" />
   <stop
   offset="1"
   style="stop-color:#CF6A38"
   id="stop61" />
  </linearGradient>
  <linearGradient
   id="id13"
   gradientUnits="userSpaceOnUse"
   xlink:href="#id12"
   x1="43.3134"
   y1="20.5559"
   x2="42.6791"
   y2="16.5189">
  </linearGradient>
  <linearGradient
   id="id14"
   gradientUnits="userSpaceOnUse"
   xlink:href="#id12"
   x1="5.12362"
   y1="31.8685"
   x2="4.43268"
   y2="27.5646">
  </linearGradient>
  <linearGradient
   id="id15"
   gradientUnits="userSpaceOnUse"
   xlink:href="#id12"
   x1="5.18268"
   y1="20.5169"
   x2="4.48465"
   y2="16.1776">
  </linearGradient>
  <linearGradient
   id="id16"
   gradientUnits="userSpaceOnUse"
   x1="24.1854"
   y1="40.7917"
   x2="23.8429"
   y2="28.5094">
   <stop
   offset="0"
   style="stop-color:#D6D6D6"
   id="stop67" />
   <stop
   offset="1"
   style="stop-color:#EAEAEA"
   id="stop69" />
  </linearGradient>
  <linearGradient
   id="id17"
   gradientUnits="userSpaceOnUse"
   xlink:href="#id6"
   x1="24.15"
   y1="29.6256"
   x2="24.15"
   y2="12.7996">
  </linearGradient>
  <linearGradient
   id="id18"
   gradientUnits="userSpaceOnUse"
   x1="24.0354"
   y1="37.2933"
   x2="24.0354"
   y2="4.90748">
   <stop
   offset="0"
   style="stop-color:#919191"
   id="stop73" />
   <stop
   offset="1"
   style="stop-color:#B2B2B2"
   id="stop75" />
  </linearGradient>
  <linearGradient
   id="id19"
   gradientUnits="userSpaceOnUse"
   xlink:href="#id18"
   x1="23.9705"
   y1="44.8618"
   x2="23.9705"
   y2="8.04921">
  </linearGradient>
 <linearGradient
   inkscape:collect="always"
   xlink:href="#id6"
   id="linearGradient3241"
   gradientUnits="userSpaceOnUse"
   x1="24.124"
   y1="36.7925"
   x2="24.124"
   y2="18.5303" /><linearGradient
   inkscape:collect="always"
   xlink:href="#id18"
   id="linearGradient3243"
   gradientUnits="userSpaceOnUse"
   x1="24.0354"
   y1="37.2933"
   x2="24.0354"
   y2="4.90748" /><linearGradient
   inkscape:collect="always"
   xlink:href="#id12"
   id="linearGradient3245"
   gradientUnits="userSpaceOnUse"
   x1="43.3665"
   y1="31.9087"
   x2="42.737"
   y2="27.9059" /><linearGradient
   inkscape:collect="always"
   xlink:href="#id8"
   id="linearGradient3247"
   gradientUnits="userSpaceOnUse"
   x1="43.1823"
   y1="26.1898"
   x2="42.9213"
   y2="21.8917" /></defs>
 <g
   id="Слой_x0020_1"
   transform="matrix(0.95609823,0,0,0.97508314,1.02028,0.12227722)">
  <metadata
   id="CorelCorpID_0Corel-Layer" />
  <g
   id="_119066032">
   <path
   id="_111920176"
   class="fil0"
   d="m 22.9866,41.0161 c 16.3039,-0.65315 22.7043,0.92126 25.1043,2.92677 l 0,3.90472 c -0.291732,0.08858 -0.628346,0.165354 -1.0063,0.227953 l -47.0303,0 -0.069685,-0.02362 0,-3.26811 c 1.97244,-1.60157 7.51063,-3.14646 23.002,-3.76772 z"
   inkscape:connector-curvature="0"
   style="fill:#000000;fill-opacity:0" />
   <g
   id="g82">
    <path
   id="_197911536"
   class="fil1"
   d="m 23.0409,41.3752 c 16.3831,-0.633071 22.7811,1.04409 25.05,3.06732 l 0,3.30945 c -0.406299,0.137008 -0.917717,0.243307 -1.52126,0.323622 l -46.1374,0 c -0.164173,-0.0437 -0.312992,-0.09213 -0.447638,-0.142913 l 0,-2.68465 c 1.79173,-1.62874 7.18937,-3.25984 23.0563,-3.87283 z"
   inkscape:connector-curvature="0"
   style="fill:#000000;fill-opacity:0.00392199" />
    <path
   id="_76422856"
   class="fil2"
   d="m 23.0941,41.7319 c 16.4291,-0.609449 22.878,1.16811 24.9969,3.1937 l 0,2.72717 c -0.518504,0.196063 -1.25315,0.33189 -2.16732,0.422835 l -45.0685,0 C 0.507936,47.998833 0.216204,47.911432 -0.015292,47.812219 l 0,-2.11535 c 1.59803,-1.64055 6.89173,-3.36378 23.1094,-3.96496 z"
   inkscape:connector-curvature="0"
   style="fill:#000000;fill-opacity:0.00784302" />
    <path
   id="_74445912"
   class="fil3"
   d="m 23.1461,42.0909 c 16.4421,-0.582283 23.0102,1.29213 24.9449,3.3 l 0,2.16024 c -0.617717,0.271654 -1.64646,0.432283 -3,0.524409 l -43.7469,0 C 0.745281,47.970431 0.28583,47.841691 -0.01535,47.684604 l 0,-1.54961 c 1.36181,-1.63819 6.59882,-3.45945 23.1614,-4.04409 z"
   inkscape:connector-curvature="0"
   style="fill:#000000;fill-opacity:0.01568598" />
    <path
   id="_112749832"
   class="fil4"
   d="m 23.1992,42.4488 c 16.4528,-0.549213 23.2181,1.42323 24.8917,3.39685 l 0,1.59213 c -0.701575,0.381496 -2.21929,0.562205 -4.32165,0.637795 l -9.0685,0 c -2.74488,-0.02835 -5.73661,-0.05079 -8.81811,0 l -23.9291,0 C 0.973225,47.944473 0.29645,47.769669 -0.01536,47.53463 l 0,-0.95315 C 0.9874,44.96219 6.21141,43.01691 23.19924,42.4488 z"
   inkscape:connector-curvature="0"
   style="fill:#000000;fill-opacity:0.01960802" />
    <path
   id="_77552264"
   class="fil5"
   d="m 23.2512,42.8079 c 16.5295,-0.517323 23.5866,1.57677 24.8398,3.49961 l 0,0.995669 c -1.62047,1.29567 -12.5126,0.472441 -24.1299,0.757087 l -0.640157,0.01535 -20.5783,0 c -1.73386,-0.162992 -2.73189,-0.427559 -2.73189,-0.833858 0,-1.58976 4.94409,-3.86102 23.2406,-4.43386 z"
   inkscape:connector-curvature="0"
   style="fill:#000000;fill-opacity:0.02352899" />
    <path
   id="_117711952"
   class="fil6"
   d="m 23.3031,43.1657 c 17.3102,-0.500787 24.7134,1.93346 24.7677,3.81496 0.05433,1.61929 -11.6433,0.752362 -24.0886,1.02283 l -3.40512,0.07205 -16.6465,0 C 1.60971,47.940891 0.23137,47.690498 0.23137,47.267663 c 0,-1.47638 5.76024,-3.6 23.0717,-4.10197 z"
   inkscape:connector-curvature="0"
   style="fill:#000000;fill-opacity:0.02745098" />
    <path
   id="_126128464"
   class="fil7"
   d="m 23.3563,43.5248 c 16.3252,-0.429921 24.4394,1.81299 24.4854,3.52205 0.04724,1.40433 -11.576,0.667323 -23.8406,0.9 -2.62795,0.04961 -5.21102,0.09567 -7.64764,0.12874 l -10.0961,0 C 2.69161,47.98819 0.45224,47.761417 0.45224,47.2937 c 0,-1.36181 6.57638,-3.34016 22.9039,-3.7689 z"
   inkscape:connector-curvature="0"
   style="fill:#000000;fill-opacity:0.03137303" />
    <path
   id="_112148808"
   class="fil8"
   d="m 23.4083,43.8827 c 15.3413,-0.357874 24.1677,1.69252 24.2055,3.23031 0.03898,1.18819 -11.5087,0.583465 -23.5913,0.777165 -12.0827,0.19252 -23.3492,0.322441 -23.3492,-0.570472 0,-1.24843 7.39252,-3.07913 22.735,-3.43701 z"
   inkscape:connector-curvature="0"
   style="fill:#000000;fill-opacity:0.035294" />
    <path
   id="_114079208"
   class="fil9"
   d="m 23.4602,44.2417 c 14.3575,-0.287008 23.8949,1.57087 23.9256,2.93622 0.03189,0.973228 -11.4413,0.499606 -23.3433,0.654331 -11.8996,0.154724 -23.1484,0.248031 -23.1484,-0.486614 0,-1.13504 8.20866,-2.81811 22.5661,-3.10394 z"
   inkscape:connector-curvature="0"
   style="fill:#000000;fill-opacity:0.04313702" />
    <path
   id="_114467576"
   class="fil10"
   d="m 23.5134,44.5996 c 13.3713,-0.21378 23.622,1.45039 23.6445,2.64449 0.02362,0.757087 -11.3752,0.415748 -23.0941,0.531496 C 12.3449,47.891334 1.115,47.948027 1.115,47.370468 c 0,-1.01929 9.02362,-2.55591 22.3984,-2.77087 z"
   inkscape:connector-curvature="0"
   style="fill:#000000;fill-opacity:0.047059" />
    <path
   id="_77053536"
   class="fil11"
   d="m 23.5654,44.9587 c 12.3874,-0.142913 23.3492,1.32992 23.3646,2.35157 0.01535,0.540945 -11.3079,0.330709 -22.8461,0.408661 -11.537,0.07677 -22.748,0.09685 -22.748,-0.322441 0,-0.905906 9.83976,-2.29488 22.2295,-2.4378 z"
   inkscape:connector-curvature="0"
   style="fill:#000000;fill-opacity:0.05097997" />
    <path
   id="_113241312"
   class="fil12"
   d="m 23.6185,45.3154 c 11.4024,-0.07087 23.0764,1.20945 23.0835,2.05866 0.0083,0.325984 -11.2417,0.248031 -22.5969,0.285827 -11.3551,0.03898 -22.5484,0.02244 -22.5484,-0.238583 0,-0.791339 10.6559,-2.03386 22.0618,-2.10591 z"
   inkscape:connector-curvature="0"
   style="fill:#000000;fill-opacity:0.05490202" />
   </g>
   <path
   id="_124021872"
   class="fil13"
   d="m 23.6681,45.6768 c 10.4197,0 22.8047,1.0878 22.8047,1.76575 0,0.220866 -44.6976,0.212598 -44.6976,0.0071 0,-0.677953 11.472,-1.77283 21.8929,-1.77283 z"
   inkscape:connector-curvature="0"
   style="fill:#000000;fill-opacity:0.05882401" />
  </g>
  <path
   class="fil14"
   d="m 6.22559,36.7925 35.8476,0 c 0.58937,0 1.07835,-0.61063 1.07008,-1.35709 L 42.844451,6.99561 C 42.837364,6.249153 42.36138,5.63262 41.774371,5.6397 l -35.3244,0.373228 c -0.587008,0.00591 -1.06417,0.612992 -1.0689,1.35709 l -0.225591,28.0654 c -0.00472,0.745276 0.480709,1.35709 1.07008,1.35709 z"
   id="path97"
   style="fill:url(#id17)"
   inkscape:connector-curvature="0" />
  <g
   id="_71809112">
   <polygon
   id="_115406792"
   class="fil15"
   points="5.57835,19.8591 6.77953,20.6929 6.80315,23.9043 5.60197,23.0717 "
   style="fill:#c36332" />
   <path
   id="_74441952"
   class="fil16"
   d="m 6.77953,14.8642 c 0.00827,1.07008 0.016535,2.14134 0.023622,3.2126 -0.401575,-0.277559 -0.800787,-0.555118 -1.20118,-0.833858 -0.00827,-1.07008 -0.016535,-2.14134 -0.023622,-3.2126 0.400394,0.27874 0.801969,0.556299 1.20118,0.833858 z"
   inkscape:connector-curvature="0"
   style="fill:#5589c4" />
   <path
   id="_77921064"
   class="fil15"
   d="m 6.77953,32.0646 c 0.00827,1.07008 0.016535,2.14016 0.023622,3.2126 -0.401575,-0.277559 -0.800787,-0.556299 -1.20118,-0.833858 -0.00827,-1.07126 -0.016535,-2.14134 -0.023622,-3.2126 0.400394,0.27874 0.801969,0.555118 1.20118,0.833858 z"
   inkscape:connector-curvature="0"
   style="fill:#c36332" />
   <path
   id="_126593320"
   class="fil16"
   d="m 6.77953,26.237 c 0.00827,1.07008 0.016535,2.14134 0.023622,3.2126 -0.401575,-0.27874 -0.800787,-0.556299 -1.20118,-0.833858 -0.00827,-1.07126 -0.016535,-2.14134 -0.023622,-3.21142 0.400394,0.277559 0.801969,0.555118 1.20118,0.832677 z"
   inkscape:connector-curvature="0"
   style="fill:#5589c4" />
   <path
   id="_119147776"
   class="fil15"
   d="m 6.77953,9.03661 c 0.00827,1.07126 0.016535,2.14134 0.023622,3.2126 C 6.401577,11.971651 6.002365,11.692911 5.601972,11.416533 5.593702,10.345273 5.585437,9.275193 5.57835,8.203933 5.978744,8.481492 6.380319,8.759051 6.77953,9.03661 z"
   inkscape:connector-curvature="0"
   style="fill:#c36332" />
  </g>
  <path
   class="fil17"
   style="fill:#cccccc"
   d="m 43.6783,36.7299 c -0.05906,-0.07205 -0.124016,-0.142913 -0.190157,-0.210236 l -16.3205,-16.6701 c -1.29094,-1.31929 -4.77402,-1.16811 -6.06969,0.147638 l -16.4067,16.6701 c -0.066142,0.06732 -0.129921,0.137008 -0.188976,0.210236 l 39.176,-0.147638 z"
   id="path105"
   mask="url(#id0)"
   inkscape:connector-curvature="0" />
  <path
   class="fil18"
   d="m 42.8327,36.3886 -0.544488,-0.537402 -15.665,-16.0016 c -1.29213,-1.31929 -3.41457,-1.31575 -4.70906,0 l -14.6421,14.8772 c -0.222047,0.225591 -0.961417,0.845669 -1.85906,1.58976 0.197244,0.290551 0.487795,0.475984 0.812598,0.475984 l 35.8476,0 c 0.296457,0 0.565748,-0.154724 0.759449,-0.403937 z"
   id="path107"
   style="fill:url(#linearGradient3241)"
   inkscape:connector-curvature="0" />
  <path
   class="fil19"
   d="M 42.2882,35.8512 26.6232,19.8496 c -1.29213,-1.31929 -3.41457,-1.31575 -4.70906,0 l -14.6421,14.8772 -0.01063,0.01063 -0.011811,0.01181 -0.01063,0.01063 -0.00118,0.0012 -0.012992,0.01299 -0.014173,0.01299 -0.01063,0.01063 -0.00354,0.0035 -0.015354,0.01299 -0.015354,0.01535 -0.011811,0.01063 -0.00472,0.0047 -0.017717,0.01535 -0.017716,0.01654 -0.01063,0.01063 -0.00827,0.0059 -0.018898,0.01772 -0.020079,0.01772 -0.00945,0.0083 -0.01063,0.01063 -0.02126,0.01772 -0.022441,0.02008 -0.00827,0.0071 -0.012992,0.01181 -0.023622,0.02008 -0.023622,0.02126 -0.00709,0.0059 -0.017716,0.01535 -0.024803,0.02126 -0.024803,0.02244 -0.00472,0.0035 -0.02126,0.0189 -0.027165,0.02244 -0.025984,0.02362 -0.00236,0.0012 -0.025984,0.02244 -0.028346,0.0248 -0.027165,0.02244 -0.00118,0.0012 -0.029528,0.0248 -0.029528,0.02598 -0.025984,0.02126 -0.00354,0.0047 -0.030709,0.0248 -0.03189,0.02717 -0.023622,0.02008 -0.00709,0.0071 -0.033071,0.02716 -0.03189,0.02717 -0.02126,0.01772 -0.011811,0.0094 -0.034252,0.02835 -0.033071,0.02835 -0.018898,0.01654 -0.015354,0.01299 -0.035433,0.02953 -0.035433,0.02953 -0.015354,0.01299 -0.020079,0.01653 -0.036614,0.03071 -0.185433,0.154724 -0.037795,0.03189 -0.038976,0.03189 -0.00472,0.0047 -0.073228,0.06024 -0.038976,0.03307 -0.00118,0 -0.038976,0.03307 -0.040158,0.03307 -0.036614,0.03071 -0.00354,0.0024 -0.23622,0.196063 -0.011811,0.01063 c 0.197244,0.290551 0.487795,0.475984 0.812598,0.475984 l 1.89803,0 c 0.23622,-0.205512 0.419291,-0.370866 0.529134,-0.48189 l 14.6409,-14.8772 c 0.25748,-0.261024 0.612992,-0.392126 0.977953,-0.392126 0.366142,0 0.720472,0.127559 0.970866,0.383858 l 15.0461,15.3673 1.78465,0 c 0.296457,0 0.565748,-0.154724 0.759449,-0.403937 L 42.288178,35.85115 z"
   id="path109"
   inkscape:connector-curvature="0"
   style="fill:#ffffff;fill-opacity:0.56078384" />
  <path
   class="fil20"
   d="M 42.2882,35.8512 26.6232,19.8496 c -1.29213,-1.31929 -3.41457,-1.31575 -4.70906,0 l -14.6421,14.8772 -0.01063,0.01063 -0.011811,0.01181 -0.01063,0.01063 -0.00118,0.0012 -0.012992,0.01299 -0.014173,0.01299 -0.01063,0.01063 -0.00354,0.0035 -0.015354,0.01299 -0.015354,0.01535 -0.011811,0.01063 -0.00472,0.0047 -0.017717,0.01535 -0.017716,0.01654 -0.01063,0.01063 -0.00827,0.0059 -0.018898,0.01772 -0.020079,0.01772 -0.00945,0.0083 -0.01063,0.01063 -0.02126,0.01772 -0.022441,0.02008 -0.00827,0.0071 -0.012992,0.01181 -0.023622,0.02008 -0.023622,0.02126 -0.00709,0.0059 -0.017716,0.01535 -0.024803,0.02126 -0.024803,0.02244 -0.00472,0.0035 -0.02126,0.0189 -0.027165,0.02244 -0.025984,0.02362 -0.00236,0.0012 -0.025984,0.02244 -0.028346,0.0248 -0.027165,0.02244 -0.00118,0.0012 -0.029528,0.0248 -0.029528,0.02598 -0.025984,0.02126 -0.00354,0.0047 -0.030709,0.0248 -0.03189,0.02717 -0.023622,0.02008 -0.00709,0.0071 -0.033071,0.02716 -0.03189,0.02717 -0.02126,0.01772 -0.011811,0.0094 -0.034252,0.02835 -0.033071,0.02835 -0.018898,0.01654 -0.015354,0.01299 -0.035433,0.02953 -0.035433,0.02953 -0.015354,0.01299 -0.020079,0.01653 -0.036614,0.03071 -0.185433,0.154724 -0.037795,0.03189 -0.038976,0.03189 -0.00472,0.0047 -0.073228,0.06024 -0.038976,0.03307 -0.00118,0 -0.038976,0.03307 -0.040158,0.03307 -0.036614,0.03071 -0.00354,0.0024 -0.23622,0.196063 -0.011811,0.01063 c 0.10748,0.158268 0.243307,0.285827 0.39685,0.368504 l 0.01063,-0.0094 0.073228,-0.06024 0.00472,-0.0047 0.038976,-0.03189 0.037795,-0.03189 0.185433,-0.154724 0.036614,-0.03071 0.020079,-0.01654 0.015354,-0.01299 0.035433,-0.02953 0.035433,-0.02953 0.015354,-0.01299 0.018898,-0.01535 0.033071,-0.02835 0.034252,-0.02835 0.011811,-0.01063 0.02126,-0.01772 0.03189,-0.02716 0.033071,-0.02717 0.00709,-0.0071 0.023622,-0.02008 0.03189,-0.02598 0.030709,-0.02598 0.00354,-0.0035 0.025984,-0.02244 0.029528,-0.0248 0.029528,-0.0248 0.00118,-0.0024 0.027165,-0.02244 0.028346,-0.0248 0.025984,-0.02244 0.00236,-0.0012 0.025984,-0.02244 0.027165,-0.02362 0.02126,-0.0189 0.00472,-0.0035 0.024803,-0.02126 0.024803,-0.02244 0.017716,-0.01535 0.00709,-0.0059 0.023622,-0.02008 0.023622,-0.02008 0.012992,-0.01299 0.00827,-0.0071 0.022441,-0.0189 0.02126,-0.0189 0.01063,-0.0094 0.00945,-0.0094 0.020079,-0.01654 0.018898,-0.01772 0.00827,-0.0071 0.01063,-0.01063 0.017716,-0.01535 0.017717,-0.01654 0.00472,-0.0047 0.011811,-0.01063 0.015354,-0.01417 0.015354,-0.01417 0.00354,-0.0024 0.01063,-0.01063 0.014173,-0.01417 0.012992,-0.01181 0.00118,-0.0012 0.01063,-0.01063 0.011811,-0.01181 0.01063,-0.01063 14.6421,-14.8772 c 1.29449,-1.31693 3.41693,-1.32047 4.70906,0 l 15.665,16.0004 0.159449,0.157087 c 0.146457,-0.06968 0.277559,-0.178346 0.385039,-0.317717 L 42.2882,35.851181 z"
   id="path111"
   inkscape:connector-curvature="0"
   style="fill:#ffffff" />
  <g
   id="_74343016">
   <g
   id="g114">
    <polygon
   id="_118123248"
   class="fil15"
   points="11.7626,36.7287 12.5315,35.6185 15.5055,35.5866 14.7378,36.6957 "
   style="fill:#c36332" />
    <path
   id="_119236720"
   class="fil16"
   d="m 7.1315,35.6386 c 0.992126,-0.01063 1.98425,-0.02126 2.97638,-0.03189 -0.256299,0.369685 -0.512598,0.73937 -0.768898,1.11024 -0.992126,0.0094 -1.98307,0.02126 -2.9752,0.03189 0.256299,-0.370866 0.511417,-0.740551 0.767717,-1.11024 z"
   inkscape:connector-curvature="0"
   style="fill:#5589c4" />
    <path
   id="_115469088"
   class="fil15"
   d="m 23.0657,35.5795 c 0.990945,-0.01063 1.98189,-0.02126 2.9752,-0.03189 -0.256299,0.370866 -0.512598,0.740551 -0.768898,1.11024 -0.992126,0.01063 -1.98307,0.02244 -2.97638,0.03189 0.25748,-0.369685 0.512598,-0.740551 0.770079,-1.11024 z"
   inkscape:connector-curvature="0"
   style="fill:#c36332" />
    <path
   id="_115722152"
   class="fil16"
   d="m 17.6669,35.5996 c 0.992126,-0.01063 1.98307,-0.02126 2.97638,-0.03189 -0.25748,0.370866 -0.51378,0.73937 -0.768898,1.11024 -0.992126,0.01063 -1.98425,0.02126 -2.97638,0.03189 0.256299,-0.369685 0.512598,-0.740551 0.768898,-1.11024 z"
   inkscape:connector-curvature="0"
   style="fill:#5589c4" />
   </g>
   <g
   id="g120">
    <polygon
   id="_112485064"
   class="fil16"
   points="38.5417,36.7287 39.3106,35.6185 42.2846,35.5866 41.5169,36.6957 "
   style="fill:#5589c4" />
    <path
   id="_113662576"
   class="fil15"
   d="m 33.9118,35.6386 c 0.990945,-0.01063 1.98307,-0.02126 2.9752,-0.03189 -0.255118,0.369685 -0.512598,0.73937 -0.768898,1.11024 -0.990945,0.0094 -1.98307,0.02126 -2.9752,0.03189 0.256299,-0.370866 0.512598,-0.740551 0.768898,-1.11024 z"
   inkscape:connector-curvature="0"
   style="fill:#c36332" />
    <path
   id="_113838784"
   class="fil16"
   d="m 28.513,35.6587 c 0.992126,-0.01063 1.98425,-0.02126 2.97638,-0.03307 -0.256299,0.370866 -0.512598,0.740551 -0.768898,1.11024 -0.992126,0.01063 -1.98307,0.02244 -2.9752,0.03307 0.256299,-0.370866 0.512598,-0.740551 0.767717,-1.11024 z"
   inkscape:connector-curvature="0"
   style="fill:#5589c4" />
   </g>
  </g>
  <path
   class="fil21"
   d="m 24.4547,26.2016 c -0.909449,0.04606 -1.83425,-0.308268 -2.5252,-1.06063 L 6.0472,10.91577 5.267672,7.6453 l 0,-0.087402 c 0,-0.746457 0.480709,-1.35709 1.07008,-1.35709 l 0.685039,0 0.831496,3.50551 15.3614,13.7575 0.141732,0.144094 c 0.137008,0.15 0.291732,0.258661 0.453543,0.325984 0.175984,0.07441 0.367323,0.106299 0.556299,0.09685 l 0.173622,0 c 0.190157,0.0094 0.381496,-0.02244 0.55748,-0.09685 0.16063,-0.06732 0.316535,-0.175984 0.453543,-0.325984 l 0.126378,-0.127559 14.7201,-13.4858 1.20354,-3.6437 0.303543,0.158268 c 0.530315,0.275197 1.07008,0.61063 1.07008,1.35709 l 0,0.540945 -0.870472,2.87598 -15.1264,13.8579 c -0.690945,0.752362 -1.61457,1.10669 -2.52402,1.06063 z"
   id="path125"
   inkscape:connector-curvature="0"
   style="fill:#ffffff;fill-rule:nonzero" />
  <path
   class="fil21"
   d="M 41.2618,7.44331 C 41.23463,7.387798 41.20274,7.33583 41.16731,7.289767 l -0.0024,-0.00118 C 41.06928,7.1633889 40.944084,7.0866169 40.821249,7.0866169 L 6.8799486,6.8539399 c -0.126378,0 -0.253937,0.082677 -0.351969,0.210236 l 0,0.00118 C 6.4500268,7.168113 6.3909716,7.298034 6.3555386,7.44331 l -0.983858,0 C 5.4189247,7.060633 5.5606566,6.71457 5.7638066,6.448822 6.0390036,6.088586 6.4334916,5.860633 6.8740466,5.85709 L 40.815347,6.089767 c 0.441732,-0.00354 0.83622,0.219685 1.11378,0.584646 l -0.0012,0.00118 c 0.161811,0.211417 0.285827,0.475984 0.355512,0.767717 l -1.02165,0 z"
   id="path127"
   inkscape:connector-curvature="0"
   style="fill:#ffffff;fill-rule:nonzero" />
  <path
   class="fil22"
   d="m 6.3,35.6846 35.4685,0.607087 0.0083,0 0,0.0024 c 0.129921,-0.0012 0.261024,-0.08386 0.361417,-0.209055 0.122835,-0.154724 0.201969,-0.380315 0.201969,-0.633071 l 0,-0.01653 0.0024,0 -0.298819,-28.4327002 0,-0.00236 c -0.0024,-0.259843 -0.08622,-0.497244 -0.214961,-0.660236 l -0.0024,-0.00118 c -0.09803,-0.125197 -0.226772,-0.201969 -0.35315,-0.201969 L 6.5291237,5.9042625 c -0.131102,0 -0.262205,0.082677 -0.362598,0.210236 l 0,0.00118 c -0.127559,0.162992 -0.210236,0.395669 -0.211417,0.649606 l 0,0.00118 -0.225591,28.0618005 0.00236,0 0,0.01063 c 0,0.255118 0.079134,0.483071 0.20315,0.640157 l 0.00236,0 c 0.098031,0.125197 0.229134,0.206693 0.356693,0.207874 l 0,-0.0024 0.00591,0 z M 41.7685,37.29326 6.3,36.686173 6.29409,37.29326 6.29055,36.683811 c -0.45,-0.0035 -0.856299,-0.227953 -1.13976,-0.588189 l 0.00118,-0.0012 C 4.893309,35.766076 4.730316,35.3208 4.730316,34.838912 l 0,-0.01063 0.00236,-0.0035 0.225591,-28.0654003 c 0.00236,-0.486614 0.165354,-0.934252 0.421654,-1.26024 0.283465,-0.360236 0.689764,-0.588189 1.14213,-0.591732 l 34.944099,0.232677 c 0.455906,-0.00354 0.861024,0.219685 1.14685,0.584646 l -0.0012,0.00118 c 0.258661,0.327165 0.422835,0.779528 0.42874,1.26496 l 0,0.00236 0.298819,28.4386003 0.0024,0.0035 0,0.01654 c 0,0.480709 -0.164173,0.927165 -0.426378,1.25433 -0.284647,0.355512 -0.688584,0.581102 -1.13504,0.584646 l -0.0035,0.0024 -0.0083,0 z"
   id="path129"
   style="fill:url(#linearGradient3243);fill-rule:nonzero"
   inkscape:connector-curvature="0" />
  <g
   id="_114981024">
   <path
   id="_111558440"
   class="fil23"
   d="m 35.6303,35.0835 c -4.75984,0.936614 -7.05,-4.40315 -5.51575,-7.97835 0.129921,0.461811 0.685039,-0.354331 0.685039,-0.617717 l -0.01063,0.01063 c 0.09803,-0.114567 0.04606,-0.429921 0.02835,-0.569291 2.6185,-3.25276 6.95906,-1.49764 8.53701,1.57441 -0.114567,-0.0012 -0.193701,0.0437 -0.11811,0.196063 0.133465,0.271654 0.06968,0.301181 0.346063,0.303543 0.131102,0.329528 0.229134,0.670866 0.291732,1.01929 -0.132283,0.05197 -0.09921,0.184252 -0.09921,0.500787 0,0.23622 -0.180709,0.485433 0.04606,0.633071 0.0437,0.02835 0.08386,0.0437 0.119291,0.04842 -0.08386,1.23071 -0.655512,2.50157 -1.90984,3.65433 -0.0083,-0.01063 -2.00079,1.2248 -2.4,1.2248 z m -3.57402,-1.29921 c 5.03268,3.75709 10.2283,-4.62283 5.30906,-8.29134 -1.06063,-0.79252 -2.14724,-1.04528 -3.15,-0.915354 -0.03661,-0.06732 -0.146457,-0.177165 -0.174803,-0.196063 -0.0626,-0.0437 -0.445276,-0.08268 -0.514961,-0.0248 -0.112205,0.09449 -0.197244,0.105118 -0.25748,0.303543 l 0.02835,0.146457 c -3.16654,1.19409 -4.9878,6.18071 -1.24016,8.97756 z m 1.8437,-9.15354 c -0.0874,0.01772 -0.172441,0.03898 -0.258661,0.06378 l 0.0012,-0.03425 c 0,-0.121654 0.03661,-0.126378 0.140551,-0.126378 0.08386,0 0.102756,0.04961 0.116929,0.09685 z"
   inkscape:connector-curvature="0"
   style="fill:#633695;fill-opacity:0.21960802;fill-rule:nonzero" />
   <path
   id="_111558392"
   class="fil23"
   d="m 34.4717,26.9598 0.249213,-0.04961 0.166535,0.990945 -0.193701,0.03779 c -0.08976,-0.06614 -0.210236,-0.127559 -0.36378,-0.185433 -0.153543,-0.05787 -0.312992,-0.09213 -0.477165,-0.105118 -0.165354,-0.01417 -0.309449,-0.0083 -0.432283,0.01772 l -0.04724,-0.281102 c 0.193701,-0.03307 0.399213,-0.02953 0.614173,0.01299 0.214961,0.04134 0.413386,0.115748 0.595276,0.219685 L 34.4717,26.959801 z m -0.572835,1.3311 0.07559,0.282283 c -0.05906,0.02126 -0.102756,0.05433 -0.131102,0.102756 -0.02835,0.04724 -0.03898,0.09803 -0.02953,0.15 0.01063,0.06142 0.04134,0.108661 0.09449,0.140551 0.05197,0.03307 0.125197,0.04016 0.216142,0.02244 0.08622,-0.01654 0.147638,-0.04961 0.183071,-0.100394 0.03661,-0.05079 0.04843,-0.108661 0.0378,-0.174803 -0.01417,-0.08386 -0.06142,-0.152362 -0.140551,-0.204331 l -0.0083,-0.240945 0.754724,0.0047 0.129921,0.766535 -0.252756,0.04961 -0.09213,-0.54685 -0.245669,0.0012 c 0.04134,0.05905 0.06732,0.121654 0.07795,0.190157 0.02244,0.127559 -0.0024,0.245669 -0.07441,0.351969 -0.07087,0.106299 -0.175984,0.173622 -0.314173,0.199606 -0.115748,0.02362 -0.224409,0.0083 -0.327165,-0.04724 -0.140551,-0.07323 -0.224409,-0.197244 -0.253937,-0.372047 -0.02362,-0.140551 -0.0083,-0.261024 0.04606,-0.362598 0.05433,-0.101575 0.13937,-0.172441 0.253937,-0.212598 z m 0.198425,1.17402 0.07677,0.284646 c -0.05906,0.02008 -0.103937,0.05315 -0.132283,0.101575 -0.02835,0.04724 -0.0378,0.09803 -0.02953,0.15 0.01063,0.06142 0.04252,0.10748 0.09449,0.141732 0.05315,0.03189 0.125197,0.03898 0.217323,0.02126 0.08504,-0.01654 0.146457,-0.04961 0.18189,-0.100394 0.03661,-0.05079 0.04961,-0.108661 0.0378,-0.175984 -0.01417,-0.08386 -0.06024,-0.151181 -0.140551,-0.20315 l -0.0083,-0.242126 0.754724,0.0059 0.12874,0.766535 -0.250394,0.04961 -0.09331,-0.548031 -0.244488,0.0024 c 0.04016,0.05906 0.06732,0.121654 0.07795,0.190157 0.02126,0.127559 -0.0035,0.245669 -0.07441,0.351969 -0.07205,0.106299 -0.177165,0.173622 -0.315354,0.200787 -0.114567,0.02244 -0.224409,0.0071 -0.327165,-0.04724 -0.140551,-0.07441 -0.224409,-0.199606 -0.253937,-0.373228 -0.02362,-0.13937 -0.0083,-0.261024 0.04606,-0.362598 0.05551,-0.101575 0.138189,-0.172441 0.253937,-0.21378 z m 0.969685,1.01929 0.249213,-0.04843 0.167717,0.990945 -0.194882,0.03898 c -0.08858,-0.06732 -0.209055,-0.129921 -0.36378,-0.186614 -0.153543,-0.05787 -0.312992,-0.09213 -0.477165,-0.106299 -0.164173,-0.01299 -0.308268,-0.0071 -0.431102,0.01772 l -0.04843,-0.279921 c 0.194882,-0.03307 0.400394,-0.02953 0.614173,0.01299 0.216142,0.04134 0.414567,0.115748 0.596457,0.220866 l -0.112205,-0.660236 z m 0.199606,1.1752 0.249213,-0.04843 0.166535,0.990945 -0.194882,0.03898 c -0.0874,-0.06732 -0.209055,-0.12874 -0.362598,-0.186614 -0.154724,-0.05669 -0.312992,-0.09213 -0.478346,-0.106299 -0.164173,-0.01299 -0.307087,-0.0083 -0.431102,0.01772 l -0.04724,-0.279921 c 0.193701,-0.03307 0.398031,-0.02835 0.614173,0.01299 0.214961,0.04252 0.413386,0.115748 0.595276,0.220866 l -0.111024,-0.660236 z"
   inkscape:connector-curvature="0"
   style="fill:#633695;fill-opacity:0.21960802;fill-rule:nonzero" />
   <path
   id="_114981048"
   class="fil23"
   d="m 30.4972,28.4705 0.253937,-0.81378 0.949606,0.344882 -0.06496,0.206693 -0.788976,-0.288189 -0.126378,0.401575 0.790157,0.287008 -0.06496,0.207874 L 30.4972,28.4705 z m 0.88937,-0.979134 c -0.07913,-0.0685 -0.137008,-0.138189 -0.172441,-0.210236 -0.0248,-0.05433 -0.04252,-0.111024 -0.04842,-0.172441 -0.0071,-0.05905 -0.0035,-0.115748 0.01063,-0.168898 0.01772,-0.07087 0.05315,-0.140551 0.103937,-0.209055 0.09213,-0.124016 0.200787,-0.19252 0.328346,-0.205512 0.126378,-0.01299 0.252756,0.03425 0.381496,0.145276 0.125197,0.108661 0.196063,0.231496 0.212598,0.367323 0.01653,0.134646 -0.02126,0.264567 -0.113386,0.388583 -0.09213,0.126378 -0.201969,0.194882 -0.328346,0.207874 -0.125197,0.01299 -0.250394,-0.03425 -0.374409,-0.142913 z m 0.125197,-0.179528 c 0.0874,0.07677 0.17126,0.112205 0.249213,0.10748 0.07913,-0.0047 0.142913,-0.04016 0.193701,-0.108661 0.05079,-0.0685 0.0685,-0.142913 0.05551,-0.226772 -0.01299,-0.08268 -0.06496,-0.161811 -0.154724,-0.240945 -0.08976,-0.07677 -0.172441,-0.113386 -0.248031,-0.108661 -0.07559,0.0035 -0.13937,0.04134 -0.191339,0.112205 -0.05197,0.06968 -0.07205,0.145276 -0.05906,0.226772 0.01299,0.0815 0.06378,0.16063 0.154724,0.238583 z m 0.413386,-1.29094 0.164173,-0.126378 0.13937,0.210236 c 0.04488,0.0685 0.07677,0.112205 0.09567,0.131102 0.02008,0.0189 0.04606,0.02717 0.08031,0.02598 0.03307,-0.0012 0.07323,-0.0189 0.116929,-0.05197 0.03543,-0.02717 0.06378,-0.05551 0.08622,-0.08504 0.02126,-0.02953 0.0378,-0.06024 0.04724,-0.09095 l -0.250394,-0.380314 0.166535,-0.126378 0.57874,0.882283 -0.165354,0.125197 -0.232677,-0.354331 c -0.02244,0.04134 -0.04724,0.07913 -0.07441,0.112205 -0.02717,0.03307 -0.05669,0.06142 -0.0874,0.08504 -0.0815,0.0626 -0.162992,0.09331 -0.245669,0.09449 -0.0815,0 -0.157087,-0.05079 -0.223228,-0.153543 l -0.196063,-0.297638 z m 1.63701,0.230315 -0.302362,-0.83622 -0.277559,0.116929 -0.06142,-0.17126 0.741732,-0.311811 0.06142,0.170079 -0.275197,0.116929 0.302362,0.83622 -0.188976,0.07913 z m 1.41732,-0.226772 -0.219685,0.01063 -0.09685,-0.240945 -0.399213,0.01772 -0.07323,0.248031 -0.214961,0.0094 0.349606,-1.09724 0.212598,-0.0094 0.441732,1.06181 z m -0.387402,-0.409843 -0.153543,-0.394488 -0.120472,0.406299 0.274016,-0.01181 z m 0.887008,0.490157 0.336614,-1.01811 0.305906,0.119291 c 0.115748,0.0437 0.188976,0.07795 0.220866,0.102756 0.04843,0.03543 0.08386,0.08622 0.103937,0.152362 0.0189,0.06496 0.01535,0.137008 -0.01181,0.218504 -0.02008,0.0626 -0.04843,0.111024 -0.08386,0.145276 -0.03543,0.03425 -0.07205,0.05669 -0.113386,0.0685 -0.04016,0.01181 -0.07913,0.01654 -0.113386,0.01181 -0.04961,-0.0083 -0.116929,-0.02953 -0.20315,-0.0626 l -0.124016,-0.04725 -0.127559,0.382677 -0.190157,-0.07323 z m 0.470079,-0.77126 -0.09567,0.288189 0.103937,0.04016 c 0.07559,0.02953 0.127559,0.0437 0.155906,0.04252 0.02953,-0.0012 0.05433,-0.0094 0.07677,-0.02717 0.02126,-0.01654 0.0378,-0.04016 0.04725,-0.07087 0.01181,-0.03662 0.01181,-0.07087 0.0012,-0.102756 -0.01299,-0.03189 -0.03425,-0.05669 -0.0626,-0.07559 -0.02126,-0.01299 -0.06614,-0.03307 -0.134646,-0.05906 l -0.09213,-0.03543 z m 0.650787,0.664961 c 0.06142,-0.08858 0.125197,-0.152362 0.190157,-0.19252 0.04961,-0.02953 0.101575,-0.04961 0.157087,-0.05906 0.05669,-0.0094 0.108661,-0.0083 0.157087,0.0059 0.06732,0.01654 0.132283,0.05197 0.197244,0.103937 0.11811,0.09567 0.185433,0.211417 0.201969,0.347244 0.01654,0.137008 -0.02362,0.275197 -0.121654,0.415748 -0.09567,0.140551 -0.206693,0.222047 -0.333071,0.244488 -0.124016,0.02244 -0.245669,-0.01417 -0.362598,-0.108661 -0.120472,-0.09685 -0.187795,-0.211417 -0.204331,-0.347244 -0.01653,-0.134646 0.02362,-0.271654 0.11811,-0.409843 z m 0.17126,0.12874 c -0.06732,0.09803 -0.09685,0.188976 -0.09094,0.274016 0.0083,0.08504 0.0437,0.152362 0.10748,0.204331 0.06496,0.05197 0.134646,0.06968 0.211417,0.05197 0.07677,-0.01654 0.148819,-0.07559 0.218504,-0.175984 0.0685,-0.09921 0.09921,-0.190157 0.09331,-0.270472 -0.0083,-0.0815 -0.0437,-0.15 -0.111024,-0.20315 -0.06732,-0.05433 -0.138189,-0.07205 -0.212598,-0.05551 -0.07559,0.01653 -0.146457,0.07441 -0.216142,0.174803 z m 1.09606,1.39724 0.06024,0.212598 c -0.10748,0.04016 -0.201969,0.0437 -0.285827,0.01535 -0.08268,-0.03071 -0.154724,-0.09331 -0.216142,-0.188976 -0.07441,-0.119291 -0.09921,-0.243307 -0.07205,-0.375591 0.02716,-0.131102 0.106299,-0.245669 0.235039,-0.341339 0.137008,-0.100394 0.269291,-0.141732 0.393307,-0.121654 0.125197,0.02126 0.226772,0.09331 0.305906,0.218504 0.0685,0.108661 0.09567,0.220866 0.07795,0.33189 -0.0083,0.06732 -0.04016,0.134646 -0.09331,0.204331 l -0.153543,-0.15 c 0.03661,-0.04252 0.05669,-0.08858 0.06024,-0.140551 0.0035,-0.05197 -0.0094,-0.101575 -0.04016,-0.148819 -0.04252,-0.06614 -0.09803,-0.103937 -0.167717,-0.113386 -0.06968,-0.0083 -0.153543,0.02362 -0.252756,0.09685 -0.103937,0.07677 -0.166535,0.152362 -0.184252,0.225591 -0.02008,0.07205 -0.0083,0.141732 0.03307,0.206693 0.03071,0.04724 0.06968,0.07913 0.120472,0.09331 0.04961,0.01299 0.109843,0.0047 0.179528,-0.0248 z m 0.43937,1.10551 0,0.223228 c -0.113386,0.0035 -0.205512,-0.02126 -0.277559,-0.07677 -0.07087,-0.05433 -0.122835,-0.138189 -0.154724,-0.249213 -0.04016,-0.135827 -0.02953,-0.263386 0.03189,-0.381496 0.0626,-0.116929 0.167717,-0.200787 0.316535,-0.251575 0.159449,-0.05315 0.296457,-0.05079 0.409843,0.0083 0.113386,0.05906 0.191339,0.16063 0.233858,0.305906 0.03661,0.125197 0.03071,0.239764 -0.01535,0.341339 -0.02716,0.06024 -0.07559,0.115748 -0.145276,0.165354 L 38.600744,28.52368 c 0.04606,-0.02835 0.07795,-0.06732 0.09449,-0.115748 0.0189,-0.04842 0.0189,-0.100394 0.0024,-0.155906 -0.02126,-0.07677 -0.06496,-0.129921 -0.129921,-0.159449 -0.06496,-0.03071 -0.153543,-0.02717 -0.266929,0.01181 -0.121654,0.04016 -0.200787,0.09331 -0.237402,0.155906 -0.03898,0.06496 -0.04606,0.134646 -0.0248,0.209055 0.01653,0.05669 0.04606,0.09803 0.09094,0.126378 0.0437,0.02953 0.102756,0.04134 0.177165,0.03425 z m 0.742913,0.522047 -0.0024,0.204331 -0.666142,-0.0083 0.662598,0.445276 -0.0024,0.218504 -1.00157,-0.01181 0.0024,-0.205512 0.65315,0.0083 -0.648425,-0.444094 0.0024,-0.218504 1.00039,0.01181 z m -0.05906,1.41142 -0.05787,0.194882 -0.635433,-0.217323 0.512598,0.634252 -0.06024,0.207874 -0.954331,-0.327165 0.05669,-0.196063 0.622441,0.214961 -0.499606,-0.630709 0.06142,-0.207874 0.954331,0.327165 z m -3.07795,2.66575 -0.07559,-0.173622 0.608268,-0.31063 c 0.02244,0.0685 0.02953,0.141732 0.02244,0.217323 -0.0071,0.07559 -0.0378,0.186614 -0.09213,0.334252 -0.0437,0.11811 -0.0685,0.196063 -0.07441,0.232677 -0.0059,0.05197 -0.0012,0.09567 0.01535,0.133465 0.0189,0.04134 0.0437,0.0685 0.07323,0.08031 0.03071,0.01181 0.06496,0.0083 0.100394,-0.01063 0.03661,-0.0189 0.06024,-0.04488 0.07205,-0.07913 0.01063,-0.03543 0.0059,-0.08031 -0.01535,-0.137008 l 0.18189,-0.0685 c 0.03425,0.10748 0.03543,0.198425 0,0.270472 -0.03425,0.07323 -0.09331,0.129921 -0.173622,0.17126 -0.08976,0.04606 -0.17126,0.05551 -0.245669,0.02953 -0.07323,-0.02598 -0.127559,-0.07677 -0.16063,-0.154724 -0.02008,-0.0437 -0.03071,-0.08858 -0.03425,-0.137008 -0.0024,-0.04606 0.0024,-0.09921 0.01417,-0.159449 0.0094,-0.04016 0.02953,-0.101575 0.06024,-0.183071 0.03071,-0.08268 0.04961,-0.135827 0.05551,-0.161811 0.0071,-0.0248 0.01181,-0.04843 0.01417,-0.06968 l -0.346063,0.175984 z m -0.797244,0.191339 -0.03543,-0.188976 0.660236,-0.141732 c 0.0059,0.07205 -0.0024,0.144094 -0.02717,0.216142 -0.02362,0.07205 -0.07795,0.172441 -0.164173,0.3 -0.0685,0.103937 -0.109843,0.172441 -0.124016,0.206693 -0.01772,0.04843 -0.02244,0.09213 -0.01535,0.133465 0.0083,0.04488 0.02598,0.07677 0.05315,0.09685 0.02717,0.0189 0.06024,0.0248 0.09921,0.01535 0.04016,-0.0083 0.06968,-0.02717 0.08858,-0.05787 0.01772,-0.03071 0.02244,-0.07677 0.01535,-0.135827 l 0.19252,-0.02008 c 0.0083,0.113386 -0.01181,0.201969 -0.06142,0.263386 -0.04961,0.06142 -0.119291,0.101575 -0.207874,0.120472 -0.09567,0.02126 -0.178346,0.0083 -0.244488,-0.03543 -0.06496,-0.0437 -0.105118,-0.108661 -0.120472,-0.19252 -0.0094,-0.04724 -0.01063,-0.09449 -0.0024,-0.140551 0.0083,-0.04724 0.0248,-0.09685 0.04961,-0.151181 0.01772,-0.03661 0.05079,-0.09094 0.09921,-0.161811 0.04724,-0.07205 0.07795,-0.119291 0.08976,-0.141732 0.01299,-0.02362 0.02244,-0.04488 0.02835,-0.06496 l -0.373228,0.08031 z m -0.659055,0.373228 c -0.01772,0.10748 -0.04961,0.196063 -0.09213,0.263386 -0.03189,0.04961 -0.07087,0.09094 -0.116929,0.126378 -0.04606,0.03543 -0.09449,0.05905 -0.144094,0.06968 -0.06614,0.01535 -0.13937,0.01535 -0.218504,-0.0012 -0.145276,-0.02835 -0.253937,-0.101575 -0.323622,-0.216142 -0.06968,-0.114567 -0.08976,-0.25748 -0.06024,-0.431102 0.03071,-0.17126 0.09685,-0.297638 0.200787,-0.376772 0.102756,-0.07913 0.226772,-0.103937 0.370866,-0.07441 0.146457,0.02953 0.253937,0.101574 0.324803,0.214961 0.0685,0.114567 0.08858,0.256299 0.05906,0.425197 z M 34.250737,33.7583 c 0.02126,-0.119291 0.01063,-0.214961 -0.02953,-0.288189 -0.04134,-0.07323 -0.100394,-0.116929 -0.179528,-0.133465 -0.07913,-0.01654 -0.15,0.0012 -0.211417,0.05315 -0.06142,0.05197 -0.102756,0.13937 -0.125197,0.262205 -0.02008,0.120472 -0.01181,0.216142 0.02717,0.287008 0.04016,0.06968 0.100394,0.112206 0.18189,0.12874 0.08268,0.01772 0.152362,0 0.21378,-0.04961 0.06024,-0.05079 0.100394,-0.137008 0.122835,-0.259843 z m -0.993307,-0.877559 -0.38622,0.796063 0.263386,0.148819 -0.07913,0.161811 -0.703937,-0.399213 0.07795,-0.161811 0.263386,0.148819 0.385039,-0.796063 0.179528,0.101575 z m -1.23307,0.447638 -0.524409,-0.486614 0.543307,-0.682677 -0.06732,-0.0626 0.252756,-0.315354 0.126378,0.11811 -0.141732,0.178346 0.478346,0.444094 0.141732,-0.178346 0.127559,0.116929 -0.251575,0.316535 -0.06496,-0.06024 c -0.08622,0.04134 -0.172441,0.103937 -0.256299,0.186614 -0.08386,0.08386 -0.180709,0.196063 -0.294094,0.337795 l -0.06968,0.0874 z m -0.03543,-0.274016 c 0.197244,-0.248031 0.362598,-0.411024 0.494882,-0.486614 l -0.288189,-0.266929 -0.433465,0.544488 0.226772,0.209055 z m 0.04843,-1.24252 -0.845669,0.57874 -0.398031,-0.677953 0.144094,-0.09803 0.288189,0.49252 0.187795,-0.127559 -0.269291,-0.458268 0.142913,-0.09685 0.269291,0.457087 0.230315,-0.157087 -0.3,-0.509055 0.142913,-0.09803 0.40748,0.694488 z m -1.44213,-0.673228 -0.185433,-0.729921 0.966142,-0.285827 0.05315,0.210236 -0.801969,0.237402 0.07913,0.312992 0.412205,-0.121654 c 0.11811,-0.03543 0.201969,-0.05433 0.251575,-0.06024 0.04843,-0.0059 0.08976,0.0047 0.125197,0.02953 0.03307,0.0248 0.06024,0.07323 0.07795,0.142913 0.0071,0.0248 0.01535,0.06968 0.02835,0.135827 l -0.151181,0.04606 -0.01181,-0.04843 c -0.01181,-0.0437 -0.02362,-0.07205 -0.03898,-0.08386 -0.01535,-0.01181 -0.0437,-0.01063 -0.0874,0.0024 l -0.165354,0.04842 -0.551575,0.164173 z"
   inkscape:connector-curvature="0"
   style="fill:#633695;fill-opacity:0.21960802;fill-rule:nonzero" />
  </g>
  <g
   id="_115376408">
   <path
   id="_71275096"
   class="fil24"
   d="M 5.20512,9.42756 C 5.357482,9.296458 5.531104,9.222048 5.714175,9.222048 l 36.7063,0 c 0.185433,0 0.361417,0.077953 0.514961,0.212598 l 0,0.588189 C 42.781893,9.888189 42.605908,9.811418 42.420475,9.811418 l -36.7063,0 c -0.183071,0 -0.356693,0.074409 -0.509055,0.205512 l 0,-0.58937 z"
   inkscape:connector-curvature="0"
   style="fill:#b2b2b2;fill-opacity:0.43921599" />
   <g
   id="g137">
    <path
   id="_52287264"
   class="fil25"
   d="M 5.20512,9.15 C 5.357482,9.017717 5.531104,8.943307 5.714175,8.943307 c 12.2362,0 24.4713,0 36.7063,0 0.193701,0 0.367323,0.081496 0.514961,0.223228 l 0,0.58937 c -0.147638,-0.141732 -0.32126,-0.223228 -0.514961,-0.223228 -12.235,0 -24.4701,0 -36.7063,0 -0.183071,0 -0.356693,0.074409 -0.509055,0.205512 l 0,-0.588189 z"
   inkscape:connector-curvature="0"
   style="fill:#b2b2b2;fill-opacity:0.36862703" />
    <path
   id="_112296608"
   class="fil26"
   d="M 5.20512,8.87244 C 5.357482,8.740157 5.531104,8.665747 5.714175,8.665747 c 12.2362,0 24.4713,0 36.7063,0 0.204331,0 0.375591,0.08622 0.514961,0.238583 l 0,0.58937 c -0.13937,-0.152362 -0.31063,-0.238583 -0.514961,-0.238583 -12.235,0 -24.4701,0 -36.7063,0 -0.183071,0 -0.356693,0.074409 -0.509055,0.205512 l 0,-0.588189 z"
   inkscape:connector-curvature="0"
   style="fill:#b2b2b2;fill-opacity:0.29411801" />
    <path
   id="_78743680"
   class="fil27"
   d="M 5.20512,8.5937 C 5.357482,8.461417 5.531104,8.387007 5.714175,8.387007 c 12.2362,0 24.4713,0 36.7063,0 0.216142,0 0.385039,0.093307 0.514961,0.25748 l 0,0.58937 c -0.129921,-0.165354 -0.298819,-0.25748 -0.514961,-0.25748 -12.235,0 -24.4701,0 -36.7063,0 -0.183071,0 -0.356693,0.074409 -0.509055,0.205512 l 0,-0.588189 z"
   inkscape:connector-curvature="0"
   style="fill:#b2b2b2;fill-opacity:0.21960802" />
    <path
   id="_115224808"
   class="fil28"
   d="M 5.20512,8.31614 C 5.357482,8.185038 5.531104,8.110628 5.714175,8.110628 c 12.2362,0 24.4713,0 36.7063,0 0.230315,0 0.39685,0.103937 0.514961,0.287008 l 0,0.588189 C 42.817326,8.802754 42.65079,8.698817 42.420475,8.698817 c -12.235,0 -24.4701,0 -36.7063,0 -0.183071,0 -0.356693,0.074409 -0.509055,0.206693 l 0,-0.58937 z"
   inkscape:connector-curvature="0"
   style="fill:#b2b2b2;fill-opacity:0.14509798" />
    <path
   id="_118461760"
   class="fil29"
   d="M 5.20512,8.03858 C 5.357482,7.906297 5.531104,7.831887 5.714175,7.831887 c 12.2362,0 24.4713,0 36.7063,0 0.251575,0 0.413386,0.120472 0.514961,0.329528 l 0,0.58937 C 42.833861,8.540549 42.67205,8.421257 42.420475,8.421257 c -12.235,0 -24.4701,0 -36.7063,0 -0.183071,0 -0.356693,0.074409 -0.509055,0.205512 l 0,-0.588189 z"
   inkscape:connector-curvature="0"
   style="fill:#b2b2b2;fill-opacity:0.07450998" />
   </g>
   <path
   id="_115376432"
   class="fil30"
   d="M 5.20512,7.75984 C 5.357482,7.628738 5.531104,7.554328 5.714175,7.554328 l 36.7063,0 c 0.284646,0 0.435827,0.146457 0.514961,0.406299 l 0,0.588189 C 42.856302,8.290155 42.705121,8.142517 42.420475,8.142517 l -36.7063,0 c -0.183071,0 -0.356693,0.074409 -0.509055,0.205512 l 0,-0.588189 z"
   inkscape:connector-curvature="0"
   style="fill:#b2b2b2;fill-opacity:0" />
  </g>
  <path
   class="fil31"
   d="m 2.23937,46.9181 c -0.343701,0 -0.590551,-0.412205 -0.861024,-0.608268 0,-0.19252 -0.072047,-0.09213 -0.066142,-0.292913 l 6.2315,-5.57835 31.6087,1.18937 4.89685,1.41378 2.59606,2.9752 c 0,0 0.0035,0.263386 -0.161811,0.701575 -0.231496,0.127559 -0.490157,0.199606 -0.762992,0.199606 -14.4933,0 -28.9878,0 -43.4811,0 z"
   id="path145"
   inkscape:connector-curvature="0"
   style="fill:#ffec80;fill-opacity:0.78039198" />
  <path
   class="fil32"
   d="M 1.24843,46.2874 C 0.879926,45.924802 0.644887,45.392124 0.644887,44.80039 l -0.0437008,-11.2252 3.48661,-3.16417 c -0.31063,3.85748 0.265748,12.7051 0.265748,12.7051 l -2.8937,3.19843 -0.211417,-0.02716 z"
   id="path147"
   inkscape:connector-curvature="0"
   style="fill:#a2672b" />
  <path
   class="fil32"
   d="m 46.839,46.2874 c 0.368504,-0.362598 0.603543,-0.895276 0.603543,-1.48701 l -0.0059,-11.2252 -3.48661,-3.16417 c 0.31063,3.85748 -0.216142,12.7051 -0.216142,12.7051 l 2.8937,3.19843 0.211417,-0.02716 z"
   id="path149"
   inkscape:connector-curvature="0"
   style="fill:#a2672b" />
  <path
   class="fil33"
   d="m 4.50591,44.3622 38.9953,-0.113386 c 0.627165,-0.0012 0.992126,-4.0311 0.992126,-4.77874 l 0,-28.7764 c 0,-0.746457 -0.514961,-1.36063 -1.13976,-1.35591 l -39.4772,0.409843 c -0.625984,0.00354 -0.507874,3.73701 -0.507874,4.4811 l 0,28.7764 c 0,0.744094 0.510236,1.35827 1.1374,1.35709 z"
   id="path151"
   style="fill:url(#id10)"
   inkscape:connector-curvature="0" />
  <polygon
   class="fil34"
   points="3.70512,27.0555 5.80984,29.1673 5.85,32.3787 3.74528,30.2681 "
   id="polygon153"
   style="fill:url(#id14)" />
  <polygon
   class="fil35"
   points="3.70512,21.3402 5.80984,23.1484 5.85,26.361 3.74528,24.5528 "
   id="polygon155"
   style="fill:url(#id9)" />
  <path
   class="fil15"
   d="m 5.69291,38.7768 c 0.012992,1.07008 0.025984,2.14134 0.040157,3.2126 C 5.030311,41.711841 4.329917,41.434282 3.628347,41.156723 3.615355,40.085463 3.6,39.014203 3.58819,37.944123 c 0.701575,0.27874 1.40433,0.555118 2.10472,0.832677 z"
   id="path157"
   inkscape:connector-curvature="0"
   style="fill:#c36332" />
  <path
   class="fil16"
   d="M 5.69291,32.9504 C 5.705902,34.02048 5.718894,35.09174 5.733067,36.163 5.030311,35.88426 4.329917,35.606701 3.628347,35.329142 3.615355,34.257882 3.6,33.187802 3.58819,32.116542 c 0.701575,0.27874 1.40433,0.556299 2.10472,0.833858 z"
   id="path159"
   inkscape:connector-curvature="0"
   style="fill:#5589c4" />
  <polygon
   class="fil36"
   points="3.70512,15.6661 5.92323,17.8157 5.96339,21.0283 3.74528,18.8787 "
   id="polygon161"
   style="fill:url(#id15)" />
  <polygon
   class="fil37"
   points="44.113,27.4358 42.0307,29.1673 41.9917,32.3787 44.0728,30.6484 "
   id="polygon163"
   style="fill:url(#linearGradient3245)" />
  <polygon
   class="fil38"
   points="44.113,21.7205 42.0307,23.1484 41.9917,26.361 44.0728,24.9331 "
   id="polygon165"
   style="fill:url(#linearGradient3247)" />
  <path
   class="fil15"
   d="m 42.1465,38.7768 c -0.01299,1.07008 -0.02598,2.14134 -0.03898,3.2126 0.694488,-0.277559 1.3878,-0.174803 2.0811,-0.452362 0.01299,-1.07126 0.02835,-2.14252 0.04016,-3.2126 -0.694488,0.27874 -1.38898,0.174803 -2.08228,0.452362 z"
   id="path167"
   inkscape:connector-curvature="0"
   style="fill:#c36332" />
  <path
   class="fil16"
   d="m 42.1465,32.9504 c -0.01299,1.07008 -0.02598,2.14134 -0.03898,3.2126 0.694488,-0.27874 1.3878,-0.175984 2.0811,-0.453543 0.01299,-1.07126 0.02835,-2.14134 0.04016,-3.2126 -0.694488,0.27874 -1.38898,0.175984 -2.08228,0.453543 z"
   id="path169"
   inkscape:connector-curvature="0"
   style="fill:#5589c4" />
  <polygon
   class="fil39"
   points="44.113,16.0465 41.9185,17.8157 41.8795,21.0283 44.0728,19.2591 "
   id="polygon171"
   style="fill:url(#id13)" />
  <path
   class="fil17"
   style="fill:#cccccc"
   d="m 44.8394,44.2606 c -0.06378,-0.07205 -0.132283,-0.141732 -0.201969,-0.209055 l -3.55157,-4.44803 -13.8295,-13.2638 c -1.3748,-1.31929 -5.08346,-1.16929 -6.46299,0.147638 l -15.0165,14.3268 -2.45669,3.38504 c -0.056693,0.07677 -0.138189,0.137008 -0.201969,0.209055 l 41.7213,-0.147638 z"
   id="path173"
   mask="url(#id2)"
   inkscape:connector-curvature="0" />
  <path
   class="fil17"
   style="fill:#cccccc"
   d="m 44.8394,43.5768 c -0.06378,-0.07205 -0.132283,-0.141732 -0.201969,-0.209055 l -3.55157,-4.44803 -13.8295,-13.2638 c -1.3748,-1.31929 -5.08346,-1.16929 -6.46299,0.147638 l -15.0165,14.3268 -2.45669,3.38504 c -0.056693,0.07677 -0.138189,0.137008 -0.201969,0.209055 l 41.7213,-0.147638 z"
   id="path175"
   mask="url(#id4)"
   inkscape:connector-curvature="0" />
  <path
   class="fil40"
   d="m 44.8394,43.5768 c -0.06378,-0.07205 -0.132283,-0.141732 -0.201969,-0.209055 l -3.55157,-4.44803 -13.8295,-13.2638 c -1.3748,-1.31929 -5.08346,-1.16929 -6.46299,0.147638 l -15.0165,14.3268 -2.45669,3.38504 c -0.056693,0.07677 -0.138189,0.137008 -0.201969,0.209055 l 41.7213,-0.147638 z"
   id="path177"
   inkscape:connector-curvature="0"
   style="fill:#cccccc;fill-opacity:0.43921599" />
  <path
   class="fil41"
   d="m 43.9394,43.9205 -0.579921,-0.538583 -16.6831,-17.0421 c -1.33346,-1.36181 -3.63543,-1.31693 -5.01496,0 l -15.5929,14.8772 c -0.235039,0.225591 -1.02402,1.88622 -1.97953,2.63031 0.209055,0.290551 0.519685,0.475984 0.865748,0.475984 l 38.1756,0 c 0.315354,0 0.602362,-0.154724 0.809055,-0.402756 z"
   id="path179"
   style="fill:url(#id16)"
   inkscape:connector-curvature="0" />
  <path
   class="fil19"
   d="m 43.3594,43.3819 -1.71378,-2.68465 -14.9693,-14.3575 c -1.3748,-1.31929 -3.63543,-1.31693 -5.01496,0 l -15.1949,14.498 c -0.742913,0.70748 -1.55787,2.37165 -2.36457,3 l -0.012992,0.0094 c 0.209055,0.290551 0.519685,0.475984 0.865748,0.475984 l 2.02087,0 c 0.608268,-0.494882 1.1622,-2.09409 1.73031,-2.63504 l 14.4248,-13.7646 c 0.274016,-0.262205 0.65315,-0.393307 1.04055,-0.393307 0.390945,0 0.767717,0.12874 1.03465,0.383858 l 14.5394,13.9453 1.48465,2.46378 1.90039,0 c 0.315354,0 0.602362,-0.154724 0.809055,-0.402756 L 43.3594,43.381835 z"
   id="path181"
   inkscape:connector-curvature="0"
   style="fill:#ffffff;fill-opacity:0.56078384" />
  <path
   class="fil20"
   d="M 43.3594,43.3819 41.6846,40.73387 26.6763,26.33977 c -1.3748,-1.31929 -3.63543,-1.31693 -5.01496,0 l -15.365,14.6598 c -0.685039,0.65315 -1.45039,2.25709 -2.19567,2.83819 l -0.011811,0.0094 c 0.088583,0.122835 0.194882,0.226772 0.314173,0.305906 -0.101575,0.108661 -0.201969,0.206693 -0.302362,0.283465 l -0.011811,0.0094 c 0.114567,0.159449 0.258661,0.287008 0.422835,0.369685 l 0.011811,-0.0083 c 0.71811,-0.565748 1.42913,-2.1815 2.09173,-2.81339 l 15.0461,-14.3563 c 1.37953,-1.31693 3.63898,-1.31929 5.01496,0 l 14.2157,13.6346 2.46732,3.40748 0.168898,0.157087 c 0.155906,-0.06968 0.295276,-0.178346 0.411024,-0.317717 l -0.341339,-0.316535 c 0.127559,-0.06968 0.243307,-0.165354 0.341339,-0.283465 l -0.579921,-0.537402 z"
   id="path183"
   inkscape:connector-curvature="0"
   style="fill:#ffffff" />
  <path
   class="fil42"
   d="M 18.5906,38.5677 3.4123,15.6401 4.030017,11.61136 c -0.132283,-0.712205 0.497244,-1.31693 1.10669,-1.31693 12.6933,0 25.298,0 37.9913,0 0.609449,0 1.23898,0.604724 1.10787,1.31693 l 0.18189,4.24961 -14.2264,22.4126 c -1.59921,1.63937 -9.98504,1.94764 -11.6008,0.294094 z"
   id="path185"
   inkscape:connector-curvature="0"
   style="fill:#666666;fill-opacity:0" />
  <g
   id="_124031352">
   <path
   id="_112521320"
   class="fil43"
   d="M 18.9201,37.8957 C 13.80238,30.41578 8.6835,22.9382 3.5658,15.4595 c 0.141732,-1.36299 0.283465,-2.7248 0.424016,-4.08661 -0.131102,-0.713386 0.545669,-1.23661 1.1563,-1.23661 12.6933,0 25.3205,0 38.0138,0 0.61063,0 1.21535,0.744094 1.08425,1.45748 0.01535,1.37598 0.02953,2.75079 0.04488,4.12677 -4.82008,7.30394 -9.63898,14.6079 -14.4579,21.913 -1.57913,1.61693 -9.31772,1.89094 -10.911,0.262205 z"
   inkscape:connector-curvature="0"
   style="fill:#666666;fill-opacity:0.00784302" />
   <path
   id="_194074624"
   class="fil44"
   d="M 19.2496,37.2224 C 14.07283,29.90665 8.8949,22.5921 3.7181,15.2763 3.7960528,13.89559 3.872824,12.5137 3.949596,11.13299 3.817313,10.419604 4.54369,9.97905 5.153136,9.97905 c 12.6933,0 25.3453,0 38.0386,0 0.61063,0 1.19173,0.882283 1.05945,1.59449 -0.02953,1.33583 -0.06024,2.67047 -0.09094,4.00512 -4.89803,7.13858 -9.79488,14.276 -14.6929,21.4146 -1.55669,1.59449 -8.64803,1.83543 -10.2177,0.229134 z"
   inkscape:connector-curvature="0"
   style="fill:#666666;fill-opacity:0.01960802" />
   <path
   id="_197873144"
   class="fil45"
   d="M 19.5791,36.5504 C 14.34327,29.39764 9.1074,22.2473 3.8704,15.0957 3.883392,13.69491 3.896384,12.29413 3.909376,10.89452 3.777093,10.181134 4.551896,9.82208 5.161346,9.82208 c 12.6933,0 25.3689,0 38.0634,0 0.609449,0 1.16693,1.02165 1.03465,1.73386 -0.07559,1.29449 -0.152362,2.5878 -0.227953,3.88228 -4.9748,6.97205 -9.95079,13.9429 -14.9256,20.915 -1.53543,1.57323 -7.97953,1.77874 -9.52677,0.197244 z"
   inkscape:connector-curvature="0"
   style="fill:#666666;fill-opacity:0.02745098" />
   <path
   id="_110925208"
   class="fil46"
   d="M 19.9087,35.8772 C 14.61382,28.8898 9.3189,21.9012 4.0241,14.9126 3.9721315,13.4941 3.920163,12.07441 3.869376,10.65473 3.737093,9.942525 4.55914,9.663785 5.169766,9.663785 c 12.6933,0 25.3925,0 38.087,0 0.609449,0 1.14213,1.16102 1.01102,1.87441 -0.121654,1.25315 -0.243307,2.5063 -0.364961,3.75827 -5.05276,6.80669 -10.1055,13.611 -15.1594,20.4177 -1.51417,1.55079 -7.31102,1.72205 -8.83465,0.162992 z"
   inkscape:connector-curvature="0"
   style="fill:#666666;fill-opacity:0.035294" />
   <path
   id="_120855632"
   class="fil47"
   d="M 20.2394,35.2039 C 14.88546,28.37949 9.5303,21.5551 4.1764,14.7307 4.060652,13.29212 3.944904,11.85353 3.827975,10.41495 c -0.131102,-0.713386 0.73937,-0.909449 1.35,-0.909449 12.6933,0 25.4173,0 38.1106,0 0.61063,0 1.1185,1.30039 0.987402,2.0126 -0.167717,1.21299 -0.334252,2.4248 -0.501969,3.63661 -5.13071,6.64016 -10.2614,13.2791 -15.3921,19.9181 -1.49291,1.52835 -6.64252,1.66654 -8.14252,0.131102 z"
   inkscape:connector-curvature="0"
   style="fill:#666666;fill-opacity:0.04313702" />
   <path
   id="_112060520"
   class="fil48"
   d="M 20.5689,34.5319 C 15.15591,27.87048 9.7429,21.2091 4.3299,14.5476 4.149191,13.09012 3.968483,11.63264 3.787774,10.17516 3.656672,9.462955 4.575569,9.348388 5.185014,9.348388 c 12.6945,0 25.4421,0 38.1354,0 0.61063,0 1.09488,1.43858 0.96378,2.15079 -0.212598,1.17165 -0.425197,2.34331 -0.637795,3.51496 -5.20984,6.47244 -10.4185,12.9449 -15.6272,19.4197 -1.47047,1.50591 -5.97402,1.60866 -7.45039,0.09803 z"
   inkscape:connector-curvature="0"
   style="fill:#666666;fill-opacity:0.05490202" />
   <path
   id="_71723288"
   class="fil49"
   d="M 20.8984,33.8598 C 15.42635,27.36137 9.9543,20.8641 4.4823,14.3669 4.237812,12.89052 3.993324,11.41296 3.747654,9.93659 3.616552,9.223204 4.583874,9.191314 5.193324,9.191314 c 12.6933,0 25.4657,0 38.1602,0 0.609449,0 1.07008,1.57795 0.937795,2.29016 -0.25748,1.13031 -0.516142,2.26063 -0.773622,3.39213 -5.28661,6.30709 -10.5732,12.613 -15.8598,18.9201 -1.44921,1.48465 -5.30551,1.55315 -6.75945,0.06614 z"
   inkscape:connector-curvature="0"
   style="fill:#666666;fill-opacity:0.06274498" />
   <path
   id="_122059176"
   class="fil50"
   d="M 21.228,33.1866 C 15.6969,26.85235 10.1658,20.5193 4.6347,14.185 4.325251,12.68854 4.015802,11.19327 3.707535,9.69799 3.576433,8.984604 4.591,9.033029 5.201625,9.033029 c 12.6933,0 25.4894,0 38.1839,0 0.609449,0 1.04528,1.71732 0.914173,2.42953 -0.303543,1.09016 -0.607087,2.18031 -0.911811,3.26929 -5.36339,6.14055 -10.728,12.2811 -16.0925,18.4228 -1.42795,1.4622 -4.63701,1.49646 -6.06732,0.03189 z"
   inkscape:connector-curvature="0"
   style="fill:#666666;fill-opacity:0.070588" />
  </g>
  <path
   class="fil51"
   d="M 21.5575,32.5146 4.787,14.0032 3.66731,9.45832 C 3.535027,8.746115 4.5992,8.876037 5.20983,8.876037 c 12.6933,0 25.5142,0 38.2075,0 0.609449,0 1.02165,1.85669 0.890551,2.5689 l -1.04764,3.14646 -16.3264,17.9232 c -1.40669,1.44094 -3.96969,1.44094 -5.37638,0 z"
   id="path196"
   inkscape:connector-curvature="0"
   style="fill:#666666;fill-opacity:0.07843101" />
  <path
   class="fil52"
   d="m 24.248,28.9311 c -0.968504,0.04606 -1.95236,-0.307087 -2.68819,-1.06063 L 4.64521,13.64527 3.95899,10.17047 C 3.827888,9.458265 4.456234,8.85354 5.06686,8.85354 c 12.6933,0 25.2969,0 37.9902,0 0.61063,0 1.24016,0.604724 1.10787,1.31693 l -1.11969,3.84213 -16.1091,13.8579 c -0.735827,0.753543 -1.71969,1.10669 -2.68819,1.06063 z"
   id="path198"
   style="fill:url(#id11)"
   inkscape:connector-curvature="0" />
  <g
   id="_113776680">
   <path
   id="_123280032"
   class="fil53"
   d="m 3.69921,32.0752 0.049606,-1.51417 c 2.52992,0.07913 4.69016,0.312992 7.21772,0.392126 0.695669,0.214961 1.73031,0.591732 2.24528,2.09882 0.219685,0.478346 0.43937,0.955512 0.657874,1.43386 0.411024,0.882283 1.10315,2.21693 1.93701,2.22165 5.74961,0.02598 11.4992,0.05197 17.2488,0.07913 0.833858,0.0024 1.56378,-1.0748 1.81772,-2.06575 0.258661,-0.972047 0.518504,-1.94409 0.777165,-2.91496 0.514961,-1.50709 2.20866,-0.793701 2.90433,-1.00866 1.64646,-0.05079 4.05709,-0.235039 6.23504,-0.377953 l 0,1.67008 -4.44921,0.119291 c -0.800787,0.214961 -1.57559,0.592913 -2.1685,2.1 l -0.205512,2.51575 c -0.08622,1.04291 -0.786614,1.89803 -1.74567,1.90866 l -23.4201,0 c -0.959055,-0.01063 -1.65945,-0.865748 -1.74567,-1.90866 l -0.205512,-2.51575 c -0.592913,-1.50709 -1.36772,-1.88504 -2.1685,-2.1 l -4.98189,-0.133465 z"
   inkscape:connector-curvature="0"
   style="fill:#a2672b;fill-opacity:0.00784302" />
   <path
   id="_198432792"
   class="fil54"
   d="m 3.68031,32.074 0.038976,-1.31693 c 2.52874,0.07795 4.65709,0.292913 7.18701,0.372047 0.694488,0.214961 1.68307,0.591732 2.19803,2.09882 0.199606,0.497244 0.400394,0.995669 0.598819,1.49291 0.372047,0.901181 1.05,2.17677 1.88386,2.18268 5.90551,0.02244 11.8098,0.04488 17.7154,0.0685 0.833858,0.0012 1.54843,-1.04882 1.77992,-2.04567 0.233858,-0.930709 0.468898,-1.86024 0.702756,-2.78858 0.514961,-1.50709 2.0811,-0.930709 2.77677,-1.14449 1.68661,-0.05315 4.0748,-0.226772 6.22795,-0.360236 l 0,1.4563 -4.44921,0.119291 c -0.800787,0.214961 -1.57559,0.592913 -2.1685,2.1 l -0.205512,2.51575 c -0.08622,1.04291 -0.786614,1.89803 -1.74567,1.90866 l -23.4201,0 c -0.959055,-0.01063 -1.65945,-0.865748 -1.74567,-1.90866 l -0.205512,-2.51575 c -0.592913,-1.50709 -1.36772,-1.88504 -2.1685,-2.1 L 3.6803374,32.074 z"
   inkscape:connector-curvature="0"
   style="fill:#a2672b;fill-opacity:0.01176501" />
   <path
   id="_123259944"
   class="fil55"
   d="m 3.95787,32.074 0.028346,-1.12205 c 2.52874,0.07795 4.32992,0.272835 6.858661,0.351969 0.695669,0.214961 1.639369,0.591732 2.15433,2.09882 0.179527,0.517323 0.359054,1.03465 0.538582,1.55197 0.333071,0.92126 0.99685,2.13661 1.83189,2.14252 6.06024,0.02008 12.1193,0.04016 18.179499,0.05906 0.83504,-0.0012 1.53425,-1.02283 1.743311,-2.02559 0.209055,-0.888189 0.418109,-1.7752 0.628346,-2.6622 0.514961,-1.50709 1.953539,-1.06654 2.64921,-1.2815 1.72913,-0.05315 4.09134,-0.217323 6.21969,-0.338976 l 0,1.24134 -4.44921,0.119291 c -0.800787,0.214961 -1.57559,0.592913 -2.1685,2.1 l -0.205512,2.51575 c -0.08622,1.04291 -0.786614,1.89803 -1.74567,1.90866 l -23.4201,0 c -0.959055,-0.01063 -1.65945,-0.865748 -1.74567,-1.90866 l -0.205512,-2.51575 c -0.592913,-1.50709 -1.36772,-1.88504 -2.1685,-2.1 l -4.72323,-0.134646 z"
   inkscape:connector-curvature="0"
   style="fill:#a2672b;fill-opacity:0.01960802" />
   <path
   id="_121022416"
   class="fil56"
   d="m 3.64016,32.0728 0.018898,-0.925984 c 2.52874,0.07913 4.59567,0.253937 7.12441,0.333071 0.695669,0.214961 1.59331,0.591732 2.10945,2.09882 0.159449,0.537402 0.318898,1.07362 0.478346,1.60984 0.294094,0.941339 0.944882,2.09764 1.77992,2.10472 6.21496,0.01653 12.4299,0.03189 18.6461,0.04843 0.833858,-0.0024 1.5189,-0.995669 1.70433,-2.00669 0.185433,-0.844488 0.368504,-1.69016 0.553937,-2.53465 0.514961,-1.50709 1.82598,-1.20354 2.52165,-1.41732 1.77638,-0.05551 4.10669,-0.206693 6.2126,-0.318898 l 0,1.0252 -4.44921,0.119291 c -0.800787,0.214961 -1.57559,0.592913 -2.1685,2.1 l -0.205512,2.51575 c -0.08622,1.04291 -0.786614,1.89803 -1.74567,1.90866 l -23.4201,0 c -0.959055,-0.01063 -1.65945,-0.865748 -1.74567,-1.90866 l -0.205512,-2.51575 c -0.592913,-1.50709 -1.36772,-1.88504 -2.1685,-2.1 l -5.04094,-0.135827 z"
   inkscape:connector-curvature="0"
   style="fill:#a2672b;fill-opacity:0.02745098" />
   <path
   id="_75919672"
   class="fil57"
   d="m 3.61772,32.0728 0.011811,-0.731102 c 2.52874,0.07913 4.56378,0.235039 7.09134,0.314173 0.69685,0.214961 1.54961,0.591732 2.06575,2.09882 0.13937,0.556299 0.27874,1.1126 0.41811,1.66772 0.253937,0.960236 0.892913,2.05748 1.72677,2.06575 6.37205,0.01299 12.7417,0.02598 19.1138,0.03898 0.833858,-0.0047 1.50236,-0.969685 1.66654,-1.9878 0.159449,-0.80315 0.318898,-1.60512 0.478346,-2.40827 0.514961,-1.50709 1.69843,-1.33819 2.39528,-1.55315 1.8248,-0.05669 4.1185,-0.194882 6.20433,-0.296457 l 0,0.807874 -4.44921,0.119291 c -0.800787,0.214961 -1.57559,0.592913 -2.1685,2.1 l -0.205512,2.51575 c -0.08622,1.04291 -0.786614,1.89803 -1.74567,1.90866 l -23.4201,0 c -0.959055,-0.01063 -1.65945,-0.865748 -1.74567,-1.90866 l -0.205512,-2.51575 c -0.592913,-1.50709 -1.36772,-1.88504 -2.1685,-2.1 l -5.06339,-0.135827 z"
   inkscape:connector-curvature="0"
   style="fill:#a2672b;fill-opacity:0.03137303" />
   <path
   id="_124083200"
   class="fil58"
   d="M 3.59291,32.0717 3.6,31.537842 c 2.52756,0.07795 4.53189,0.214961 7.05945,0.294094 0.69685,0.214961 1.50472,0.591732 2.01969,2.09882 0.120472,0.575197 0.239764,1.15039 0.359055,1.72677 0.214961,0.980315 0.840945,2.01732 1.6748,2.02559 6.52677,0.0094 13.0524,0.02008 19.5791,0.02953 0.833858,-0.0059 1.48819,-0.943701 1.62992,-1.96772 0.133465,-0.76063 0.26811,-1.52126 0.402756,-2.28189 0.516142,-1.50591 1.57205,-1.4752 2.26654,-1.69016 1.87795,-0.05787 4.12913,-0.180709 6.19843,-0.271654 l 0,0.588189 -4.44921,0.119291 c -0.800787,0.214961 -1.57559,0.592913 -2.1685,2.1 l -0.205512,2.51575 c -0.08622,1.04291 -0.786614,1.89803 -1.74567,1.90866 l -23.4201,0 c -0.959055,-0.01063 -1.65945,-0.865748 -1.74567,-1.90866 L 10.849564,34.3087 c -0.592913,-1.50709 -1.3677204,-1.88504 -2.1685004,-2.1 l -5.08819,-0.137008 z"
   inkscape:connector-curvature="0"
   style="fill:#a2672b;fill-opacity:0.03921599" />
   <path
   id="_50792984"
   class="fil59"
   d="m 3.56693,32.0717 0.00236,-0.338976 c 2.52992,0.07795 4.50118,0.194882 7.02992,0.274016 0.695669,0.214961 1.45866,0.592913 1.9748,2.09882 0.09921,0.595276 0.198425,1.18937 0.297638,1.78465 0.177165,1.00039 0.788976,1.97835 1.62283,1.9878 6.6815,0.0059 13.363,0.01299 20.0457,0.0189 0.833858,-0.0071 1.47283,-0.917717 1.59213,-1.94764 0.108661,-0.71811 0.218504,-1.43622 0.328346,-2.15551 0.514961,-1.50709 1.44331,-1.61102 2.13898,-1.82598 1.93465,-0.06024 4.13268,-0.166535 6.19016,-0.248031 l 0,0.369685 -4.44921,0.119291 c -0.800787,0.214961 -1.57559,0.592913 -2.1685,2.1 l -0.205512,2.51575 c -0.08622,1.04291 -0.786614,1.89803 -1.74567,1.90866 l -23.4201,0 c -0.959055,-0.01063 -1.65945,-0.865748 -1.74567,-1.90866 l -0.205512,-2.51575 c -0.592913,-1.50709 -1.36772,-1.88504 -2.1685,-2.1 L 3.56695,32.071717 z"
   inkscape:connector-curvature="0"
   style="fill:#a2672b;fill-opacity:0.047059" />
   <path
   id="_123416288"
   class="fil60"
   d="m 3.53858,32.0705 0.00118,-0.142913 c 2.52874,0.07913 4.46929,0.175984 6.99685,0.255118 0.695669,0.214961 1.41496,0.592913 1.92992,2.09882 0.08032,0.615354 0.159449,1.22953 0.238583,1.8437 0.137008,1.01929 0.735827,1.93819 1.56969,1.94764 6.8374,0.0035 13.6748,0.0071 20.5122,0.0094 0.833858,-0.0083 1.45748,-0.891732 1.55315,-1.92756 0.08622,-0.676772 0.170079,-1.35236 0.255118,-2.02913 0.514961,-1.50709 1.31575,-1.74803 2.01142,-1.96299 1.99488,-0.06142 4.12913,-0.147638 6.18307,-0.219685 l 0,0.146457 -4.44921,0.119291 c -0.800787,0.214961 -1.57559,0.592913 -2.1685,2.1 l -0.205512,2.51575 c -0.08622,1.04291 -0.786614,1.89803 -1.74567,1.90866 l -23.4201,0 c -0.959055,-0.01063 -1.65945,-0.865748 -1.74567,-1.90866 l -0.205512,-2.51575 c -0.592913,-1.50709 -1.36772,-1.88504 -2.1685,-2.1 l -5.14252,-0.138189 z"
   inkscape:connector-curvature="0"
   style="fill:#a2672b;fill-opacity:0.05490202" />
  </g>
  <g
   id="_113733976">
   <path
   id="_195825176"
   class="fil53"
   d="m 3.69921,33.1394 0.049606,-1.51417 c 2.52992,0.07913 4.69016,0.312992 7.21772,0.392126 0.695669,0.214961 1.73031,0.591732 2.24528,2.09882 0.219685,0.478346 0.43937,0.955512 0.657874,1.43386 0.411024,0.882283 1.10315,2.21693 1.93701,2.22165 5.74961,0.02598 11.4992,0.05197 17.2488,0.07913 0.833858,0.0024 1.56378,-1.0748 1.81772,-2.06575 0.258661,-0.972047 0.518504,-1.94409 0.777165,-2.91496 0.514961,-1.50709 2.20866,-0.793701 2.90433,-1.00866 1.64646,-0.05079 4.05709,-0.235039 6.23504,-0.377953 l 0,1.67008 -4.44921,0.119291 c -0.800787,0.214961 -1.57559,0.592913 -2.1685,2.1 l -0.205512,2.51575 c -0.08622,1.04291 -0.786614,1.89803 -1.74567,1.90866 l -23.4201,0 c -0.959055,-0.01063 -1.65945,-0.865748 -1.74567,-1.90866 l -0.205512,-2.51575 c -0.592913,-1.50709 -1.36772,-1.88504 -2.1685,-2.1 l -4.98189,-0.133465 z"
   inkscape:connector-curvature="0"
   style="fill:#a2672b;fill-opacity:0.00784302" />
   <path
   id="_116106608"
   class="fil54"
   d="m 3.68031,33.1382 0.038976,-1.31693 c 2.52874,0.07795 4.65709,0.292913 7.18701,0.372047 0.694488,0.214961 1.68307,0.591732 2.19803,2.09882 0.199606,0.497244 0.400394,0.995669 0.598819,1.49291 0.372047,0.901181 1.05,2.17677 1.88386,2.18268 5.90551,0.02244 11.8098,0.04488 17.7154,0.0685 0.833858,0.0012 1.54843,-1.04882 1.77992,-2.04567 0.233858,-0.930709 0.468898,-1.86024 0.702756,-2.78858 0.514961,-1.50709 2.0811,-0.930709 2.77677,-1.14449 1.68661,-0.05315 4.0748,-0.226772 6.22795,-0.360236 l 0,1.4563 -4.44921,0.119291 c -0.800787,0.214961 -1.57559,0.592913 -2.1685,2.1 l -0.205512,2.51575 c -0.08622,1.04291 -0.786614,1.89803 -1.74567,1.90866 l -23.4201,0 c -0.959055,-0.01063 -1.65945,-0.865748 -1.74567,-1.90866 l -0.205512,-2.51575 c -0.592913,-1.50709 -1.36772,-1.88504 -2.1685,-2.1 L 3.6803374,33.1382 z"
   inkscape:connector-curvature="0"
   style="fill:#a2672b;fill-opacity:0.01176501" />
   <path
   id="_124204528"
   class="fil55"
   d="m 3.95787,33.1382 0.028346,-1.12205 c 2.52874,0.07795 4.32992,0.272835 6.858661,0.351969 0.695669,0.214961 1.639369,0.591732 2.15433,2.09882 0.179527,0.517323 0.359054,1.03465 0.538582,1.55197 0.333071,0.92126 0.99685,2.13661 1.83189,2.14252 6.06024,0.02008 12.1193,0.04016 18.179499,0.05906 0.83504,-0.0012 1.53425,-1.02283 1.743311,-2.02559 0.209055,-0.888189 0.418109,-1.7752 0.628346,-2.6622 0.514961,-1.50709 1.953539,-1.06654 2.64921,-1.2815 1.72913,-0.05315 4.09134,-0.217323 6.21969,-0.338976 l 0,1.24134 -4.44921,0.119291 c -0.800787,0.214961 -1.57559,0.592913 -2.1685,2.1 l -0.205512,2.51575 c -0.08622,1.04291 -0.786614,1.89803 -1.74567,1.90866 l -23.4201,0 c -0.959055,-0.01063 -1.65945,-0.865748 -1.74567,-1.90866 l -0.205512,-2.51575 c -0.592913,-1.50709 -1.36772,-1.88504 -2.1685,-2.1 l -4.72323,-0.134646 z"
   inkscape:connector-curvature="0"
   style="fill:#a2672b;fill-opacity:0.01960802" />
   <path
   id="_124171160"
   class="fil56"
   d="m 3.64016,33.137 0.018898,-0.925984 c 2.52874,0.07913 4.59567,0.253937 7.12441,0.333071 0.695669,0.214961 1.59331,0.591732 2.10945,2.09882 0.159449,0.537402 0.318898,1.07362 0.478346,1.60984 0.294094,0.941339 0.944882,2.09764 1.77992,2.10472 6.21496,0.01653 12.4299,0.03189 18.6461,0.04843 0.833858,-0.0024 1.5189,-0.995669 1.70433,-2.00669 0.185433,-0.844488 0.368504,-1.69016 0.553937,-2.53465 0.514961,-1.50709 1.82598,-1.20354 2.52165,-1.41732 1.77638,-0.05551 4.10669,-0.206693 6.2126,-0.318898 l 0,1.0252 -4.44921,0.119291 c -0.800787,0.214961 -1.57559,0.592913 -2.1685,2.1 l -0.205512,2.51575 c -0.08622,1.04291 -0.786614,1.89803 -1.74567,1.90866 l -23.4201,0 c -0.959055,-0.01063 -1.65945,-0.865748 -1.74567,-1.90866 l -0.205512,-2.51575 c -0.592913,-1.50709 -1.36772,-1.88504 -2.1685,-2.1 l -5.04094,-0.135827 z"
   inkscape:connector-curvature="0"
   style="fill:#a2672b;fill-opacity:0.02745098" />
   <path
   id="_120940208"
   class="fil57"
   d="m 3.61772,33.137 0.011811,-0.731102 c 2.52874,0.07913 4.56378,0.235039 7.09134,0.314173 0.69685,0.214961 1.54961,0.591732 2.06575,2.09882 0.13937,0.556299 0.27874,1.1126 0.41811,1.66772 0.253937,0.960236 0.892913,2.05748 1.72677,2.06575 6.37205,0.01299 12.7417,0.02598 19.1138,0.03898 0.833858,-0.0047 1.50236,-0.969685 1.66654,-1.9878 0.159449,-0.80315 0.318898,-1.60512 0.478346,-2.40827 0.514961,-1.50709 1.69843,-1.33819 2.39528,-1.55315 1.8248,-0.05669 4.1185,-0.194882 6.20433,-0.296457 l 0,0.807874 -4.44921,0.119291 c -0.800787,0.214961 -1.57559,0.592913 -2.1685,2.1 l -0.205512,2.51575 c -0.08622,1.04291 -0.786614,1.89803 -1.74567,1.90866 l -23.4201,0 c -0.959055,-0.01063 -1.65945,-0.865748 -1.74567,-1.90866 l -0.205512,-2.51575 c -0.592913,-1.50709 -1.36772,-1.88504 -2.1685,-2.1 l -5.06339,-0.135827 z"
   inkscape:connector-curvature="0"
   style="fill:#a2672b;fill-opacity:0.03137303" />
   <path
   id="_114738160"
   class="fil58"
   d="M 3.59291,33.1358 3.6,32.601942 c 2.52756,0.07795 4.53189,0.214961 7.05945,0.294094 0.69685,0.214961 1.50472,0.591732 2.01969,2.09882 0.120472,0.575197 0.239764,1.15039 0.359055,1.72677 0.214961,0.980315 0.840945,2.01732 1.6748,2.02559 6.52677,0.0094 13.0524,0.02008 19.5791,0.02953 0.833858,-0.0059 1.48819,-0.943701 1.62992,-1.96772 0.133465,-0.76063 0.26811,-1.52126 0.402756,-2.28189 0.516142,-1.50591 1.57205,-1.4752 2.26654,-1.69016 1.87795,-0.05787 4.12913,-0.180709 6.19843,-0.271654 l 0,0.588189 -4.44921,0.119291 c -0.800787,0.214961 -1.57559,0.592913 -2.1685,2.1 l -0.205512,2.51575 c -0.08622,1.04291 -0.786614,1.89803 -1.74567,1.90866 l -23.4201,0 c -0.959055,-0.01063 -1.65945,-0.865748 -1.74567,-1.90866 L 10.849564,35.3728 c -0.592913,-1.50709 -1.3677204,-1.88504 -2.1685004,-2.1 l -5.08819,-0.137008 z"
   inkscape:connector-curvature="0"
   style="fill:#a2672b;fill-opacity:0.03921599" />
   <path
   id="_74622192"
   class="fil59"
   d="m 3.56693,33.1358 0.00236,-0.338976 c 2.52992,0.07795 4.50118,0.194882 7.02992,0.274016 0.695669,0.214961 1.45866,0.592913 1.9748,2.09882 0.09921,0.595276 0.198425,1.18937 0.297638,1.78465 0.177165,1.00039 0.788976,1.97835 1.62283,1.9878 6.6815,0.0059 13.363,0.01299 20.0457,0.0189 0.833858,-0.0071 1.47283,-0.917717 1.59213,-1.94764 0.108661,-0.71811 0.218504,-1.43622 0.328346,-2.15551 0.514961,-1.50709 1.44331,-1.61102 2.13898,-1.82598 1.93465,-0.06024 4.13268,-0.166535 6.19016,-0.248031 l 0,0.369685 -4.44921,0.119291 c -0.800787,0.214961 -1.57559,0.592913 -2.1685,2.1 l -0.205512,2.51575 c -0.08622,1.04291 -0.786614,1.89803 -1.74567,1.90866 l -23.4201,0 c -0.959055,-0.01063 -1.65945,-0.865748 -1.74567,-1.90866 l -0.205512,-2.51575 c -0.592913,-1.50709 -1.36772,-1.88504 -2.1685,-2.1 L 3.56695,33.135817 z"
   inkscape:connector-curvature="0"
   style="fill:#a2672b;fill-opacity:0.047059" />
   <path
   id="_113981488"
   class="fil60"
   d="m 3.53858,33.1346 0.00118,-0.142913 c 2.52874,0.07913 4.46929,0.175984 6.99685,0.255118 0.695669,0.214961 1.41496,0.592913 1.92992,2.09882 0.08032,0.615354 0.159449,1.22953 0.238583,1.8437 0.137008,1.01929 0.735827,1.93819 1.56969,1.94764 6.8374,0.0035 13.6748,0.0071 20.5122,0.0094 0.833858,-0.0083 1.45748,-0.891732 1.55315,-1.92756 0.08622,-0.676772 0.170079,-1.35236 0.255118,-2.02913 0.514961,-1.50709 1.31575,-1.74803 2.01142,-1.96299 1.99488,-0.06142 4.12913,-0.147638 6.18307,-0.219685 l 0,0.146457 -4.44921,0.119291 c -0.800787,0.214961 -1.57559,0.592913 -2.1685,2.1 l -0.205512,2.51575 c -0.08622,1.04291 -0.786614,1.89803 -1.74567,1.90866 l -23.4201,0 c -0.959055,-0.01063 -1.65945,-0.865748 -1.74567,-1.90866 l -0.205512,-2.51575 c -0.592913,-1.50709 -1.36772,-1.88504 -2.1685,-2.1 l -5.14252,-0.138189 z"
   inkscape:connector-curvature="0"
   style="fill:#a2672b;fill-opacity:0.05490202" />
  </g>
  <g
   id="_125288824">
   <g
   id="g219">
    <polygon
   id="_123289656"
   class="fil15"
   points="10.8508,44.2594 11.6693,43.1492 14.837,43.1173 14.0185,44.2276 "
   style="fill:#c36332" />
    <path
   id="_198527184"
   class="fil16"
   d="m 5.91969,43.1693 c 1.05472,-0.01063 2.11181,-0.02126 3.1689,-0.03189 -0.272835,0.370866 -0.545669,0.740551 -0.818504,1.11024 -1.05591,0.01063 -2.11181,0.02244 -3.1689,0.03189 0.272835,-0.369685 0.545669,-0.740551 0.818504,-1.11024 z"
   inkscape:connector-curvature="0"
   style="fill:#5589c4" />
    <path
   id="_123137472"
   class="fil15"
   d="m 22.8874,43.1114 c 1.05591,-0.01063 2.11181,-0.02126 3.1689,-0.03307 -0.272835,0.370866 -0.545669,0.740551 -0.818504,1.11024 -1.05591,0.01063 -2.11299,0.02244 -3.1689,0.03307 0.272835,-0.370866 0.545669,-0.741732 0.818504,-1.11024 z"
   inkscape:connector-curvature="0"
   style="fill:#c36332" />
    <path
   id="_114925632"
   class="fil16"
   d="m 17.139,43.1303 c 1.05591,-0.0094 2.11181,-0.02126 3.1689,-0.03189 -0.274016,0.370866 -0.545669,0.740551 -0.818504,1.11024 -1.05709,0.01063 -2.11299,0.02244 -3.1689,0.03189 0.272835,-0.369685 0.545669,-0.740551 0.818504,-1.11024 z"
   inkscape:connector-curvature="0"
   style="fill:#5589c4" />
   </g>
   <g
   id="g225">
    <polygon
   id="_195691304"
   class="fil16"
   points="39.3697,44.2594 40.187,43.1492 43.3559,43.1173 42.5374,44.2276 "
   style="fill:#5589c4" />
    <path
   id="_77410176"
   class="fil15"
   d="m 34.4386,43.1693 c 1.05472,-0.01063 2.11181,-0.02126 3.16772,-0.03189 -0.271654,0.370866 -0.544488,0.740551 -0.817323,1.11024 -1.05709,0.01063 -2.11299,0.02244 -3.1689,0.03189 0.272835,-0.369685 0.544488,-0.740551 0.818504,-1.11024 z"
   inkscape:connector-curvature="0"
   style="fill:#c36332" />
    <path
   id="_70577728"
   class="fil16"
   d="m 28.689,43.1894 c 1.05591,-0.01063 2.11299,-0.02126 3.17008,-0.03189 -0.274016,0.370866 -0.54685,0.73937 -0.819685,1.11024 -1.05591,0.01063 -2.11181,0.02126 -3.16772,0.03189 0.272835,-0.370866 0.545669,-0.740551 0.817323,-1.11024 z"
   inkscape:connector-curvature="0"
   style="fill:#5589c4" />
   </g>
  </g>
  <path
   class="fil61"
   d="m 24.248,29.4106 c -0.968504,0.04488 -1.95236,-0.308268 -2.68819,-1.06181 l -16.9146,-14.2252 -0.830315,-3.53268 0,-0.0874 c 0,-0.7464566 0.512598,-1.3570896 1.13976,-1.3570896 l 38.1756,0 c 0.627165,0 1.13976,0.61063 1.13976,1.3570896 l 0,0.542126 -1.2248,3.44646 -16.1091,13.8567 c -0.735827,0.753543 -1.71969,1.10669 -2.68819,1.06181 z"
   id="path230"
   inkscape:connector-curvature="0"
   style="fill:#c4c4c4" />
  <path
   class="fil62"
   d="m 24.248,30.8657 c -0.968504,0.04488 -1.95236,-0.308268 -2.68819,-1.06181 l -17.0634,-16.1587 -0.829134,-3.30827 0,-0.0874 c 0,-0.7464566 0.511417,-1.3570896 1.13858,-1.3570896 l 38.472,0 c 0.627165,0 1.13976,0.611811 1.13976,1.3570896 l 0,0.540945 -1.2248,3.22205 -16.2567,15.7913 c -0.735827,0.753543 -1.71969,1.10669 -2.68819,1.06181 z"
   id="path232"
   style="fill:url(#id7)"
   inkscape:connector-curvature="0" />
  <path
   class="fil21"
   d="m 43.8626,11.3339 c 0.0035,-0.115748 0.0071,-0.239764 0.0071,-0.380315 0,-0.601181 -0.09213,-1.17047 -0.669685,-1.17047 L 5.0469016,9.8220914 c -0.285827,0.038976 -0.506693,0.140551 -0.636614,0.3425196 -0.148819,0.227953 -0.217323,0.601181 -0.187795,1.16929 l -0.640157,0 c -0.03189,-0.700394 0.074409,-1.19291 0.296457,-1.5342496 0.253937,-0.390945 0.634252,-0.574016 1.11496,-0.633071 l 0.037795,-0.00354 38.1685004,-0.037795 c 1.1315,0 1.31102,0.8870086 1.31102,1.8283506 0,0.112205 -0.0035,0.244488 -0.0094,0.380315 l -0.638976,0 z"
   id="path234"
   inkscape:connector-curvature="0"
   style="fill:#ffffff;fill-rule:nonzero" />
  <path
   class="fil21"
   d="m 24.248,30.8657 c -0.968504,0.04488 -1.95236,-0.308268 -2.68819,-1.06181 l -17.0634,-16.1587 -0.829134,-3.53268 0,-0.0874 c 0,-0.7464566 0.511417,-1.1704696 1.13858,-1.1704696 l 0.731102,0 0.884646,3.5810996 16.5071,15.6909 0.151181,0.145276 c 0.145276,0.148819 0.31063,0.258661 0.48189,0.325984 0.187795,0.07323 0.392126,0.106299 0.594094,0.09685 l 0.184252,0 c 0.201969,0.0094 0.406299,-0.02362 0.592913,-0.09685 0.17126,-0.06732 0.337795,-0.177165 0.483071,-0.325984 l 0.134646,-0.12874 15.8244,-15.4193 1.42323,-3.7003896 0.46063,0 c 0.627165,0 1.15866,0.255118 1.15866,1.0015696 l 0,0.540945 -1.2248,3.44646 -16.2567,15.7913 c -0.735827,0.753543 -1.71969,1.10669 -2.68819,1.06181 z"
   id="path236"
   inkscape:connector-curvature="0"
   style="fill:#ffffff;fill-rule:nonzero" />
  <path
   class="fil63"
   d="m 4.62756,43.8626 38.8713,-0.111024 0.0024,0 c 0.0626,-0.0083 -0.0059,-0.408661 0.102756,-0.929528 0.249213,-1.20827 0.387402,-2.89961 0.387402,-3.35079 l 0,-29.1201 c 0,-0.06496 -0.0035,-0.124016 -0.01063,-0.167717 l -0.0024,-0.0059 c -0.0071,-0.05315 -0.02126,-0.10748 -0.03543,-0.152362 l -0.02362,-0.1452755 c -0.0047,-0.243307 -0.09213,-0.465354 -0.224409,-0.617717 C 43.582724,9.1322655 43.433905,9.0507695 43.278,9.0507695 l -38.3504,0 c -0.125197,0 -0.244488,0.051968 -0.34252,0.135827 l 0.00118,0.00118 C 4.46815,9.2905325 4.373662,9.4440755 4.326417,9.6224225 L 4.234291,9.8019505 C 3.946102,10.168093 3.974448,12.559821 3.98626,13.551951 l 0,0.0035 0.00236,0.328346 0.00236,0.0024 0,29.1177 0,0.0059 -0.00236,0 c 0,0.24685 0.085039,0.474803 0.217323,0.634252 0.111024,0.133465 0.259843,0.216142 0.41811,0.216142 l 0.00354,0 0,0.0024 z m 38.8736,0.885827 -38.8736,0.111024 0,0.0024 -0.00354,0 c -0.465354,0 -0.887008,-0.223228 -1.18346,-0.579921 C 3.166544,43.952402 2.992922,43.498859 2.991741,43.00988 l -0.00236,0 0,-0.0059 0,-29.1177 0.00236,0 -0.00236,-0.322441 C 2.97757,12.524469 2.949224,10.092579 3.379145,9.2988787 3.485444,8.9539967 3.680326,8.6504537 3.929539,8.4343117 l 0.00236,0 c 0.277559,-0.240945 0.623622,-0.385039 0.995669,-0.385039 l 38.3504,0 c 0.457087,0 0.872835,0.214961 1.17047,0.561024 0.262205,0.303543 0.437008,0.71811 0.464173,1.17165 0.02362,0.082677 0.0437,0.167717 0.05551,0.2515753 l -0.0012,0 c 0.01654,0.112205 0.02598,0.219685 0.02598,0.317717 l 0,29.1201 c 0,0.477165 -0.146457,2.2689 -0.411024,3.55157 l 0,0.0024 c -0.20315,0.975591 -0.539764,1.72087 -1.07835,1.72323 l -0.0024,0 z"
   id="path238"
   style="fill:url(#id19);fill-rule:nonzero"
   inkscape:connector-curvature="0" />
  <path
   class="fil64"
   d="m 3.02717,32.2795 -0.301181,0.367323 c 0.448819,-0.0012 0.823228,-0.0035 1.27205,-0.0071 -0.00354,0.261024 -0.00591,0.527953 -0.00472,0.799606 -1.07244,0.0189 -2.14961,0.03071 -3.25039001,0.0071 l 2.28425001,-2.07283 0,0.905906 z"
   id="path240"
   inkscape:connector-curvature="0"
   style="fill:#ffe351;fill-opacity:0.83921599" />
  <path
   class="fil65"
   d="m 39.5953,32.5157 0.355512,0.755906 -0.336614,0.0071 c -0.340157,0.0815 -0.680315,0.212598 -1.00157,0.444094 l -0.240945,-0.614173 c 0.374409,-0.327165 0.779528,-0.494882 1.18701,-0.591732 l 0.03661,-0.0012 z"
   id="path242"
   inkscape:connector-curvature="0"
   style="fill:#fff2a6" />
  <path
   class="fil66"
   d="m 2.61024,46.5449 c -0.956693,0 -1.77756,-0.86811 -1.77992,-1.95 L 0.721659,33.2126 c 0.248031,0.0059 0.429921,0.186614 0.675591,0.188976 2.53583,0.03189 5.07047,-0.06024 7.6063,0 0.765354,0.183071 1.5248,0.614173 2.09173,1.89213 l 0.196063,2.13307 c 0.0815,0.883465 0.752362,1.50827 1.6689,1.50827 l 22.3972,0 c 0.916535,0 1.5437,-0.647244 1.62756,-1.53071 l 0.200787,-2.14724 c 0.566929,-1.27795 1.34528,-1.63583 2.11063,-1.81772 2.43425,-0.05906 4.86969,0.02362 7.30276,0.0024 0.346063,-0.0024 0.538583,0.04843 0.885827,0.04016 l 0.08976,11.1496 c 0.0083,1.08071 -0.673228,1.9689 -1.6311,1.9689 -14.4933,0 -28.8402,-0.05551 -43.3335002,-0.05551 z"
   id="path244"
   inkscape:connector-curvature="0"
   style="fill:#f9c518;fill-opacity:0.78039198" />
  <path
   class="fil67"
   d="m 2.21811,33.4087 0.106299,11.1744 0,0.01181 c 0,0.141732 0.055512,0.274016 0.138189,0.364961 0.047244,0.05197 0.101575,0.08504 0.147638,0.08504 4.2437,0 12.9567,0.01772 21.6661,0.03425 5.64094,0.0094 10.8177,0.02126 21.6673,0.02126 l 0.0083,0 c 0.0012,-0.0035 -0.0024,-0.0094 0.0083,-0.02126 0.07087,-0.0874 0.114567,-0.239764 0.114567,-0.42874 l 0,-0.0189 0.0059,0 -0.08976,-11.1378 0.608268,-0.0047 0,-0.04606 c 0.346063,-0.0024 0.538583,0.04724 0.884646,0.0378 l 0.09213,11.1508 c 0.0083,1.08071 -0.675591,1.9689 -1.63228,1.9689 -14.4957,0 -28.8413,-0.05669 -43.3334999,-0.05669 -0.956693,0 -1.77755995,-0.866929 -1.77991995,-1.94882 l -0.108661,-11.3823 c 0.248031,0.0059 0.42992095,0.186614 0.67440895,0.190157 l 0.822047,0.0059 z"
   id="path246"
   inkscape:connector-curvature="0"
   style="fill:#ffec80;fill-opacity:0.43921599;fill-rule:nonzero" />
  <path
   class="fil68"
   d="m 37.0925,35.5583 0.09803,-0.344882 -0.02244,0.227953 0.02126,0.01299 -0.02126,0.214961 0.0378,0.02244 c 0.09567,-1.19882 1.08661,-1.66417 2.02559,-1.73504 1.38898,-0.03307 2.77913,-0.0189 4.16693,-0.0071 1.02874,0.0094 2.06102,0.02008 3.08976,0.01063 l 0.0012,0 c 0.137008,0 0.266929,0.01181 0.394488,0.02126 0.145276,0.01181 0.28937,0.02362 0.496063,0.0189 l -0.0059,-0.227953 0.0059,0 -0.01535,-0.655512 -0.07205,0 -0.0024,-0.112205 c -0.153543,0.0047 -0.290551,-0.0071 -0.426378,-0.0189 -0.12874,-0.0094 -0.262205,-0.02126 -0.452362,-0.02008 l -0.0012,0 c -1.0252,0.0071 -2.05394,-0.0024 -3.08268,-0.01063 -1.40787,-0.01417 -2.81929,-0.02716 -4.22598,0.0071 l -0.0685,0.0071 c -1.19528,0.269291 -1.66299,1.30039 -1.94055,2.36102 l 0.0378,0.02126 c 0.08622,-0.682677 0.103937,-0.649606 0.07323,-0.279921 l -0.0012,0.0094 -0.0012,0.0035 c -0.01299,0.07087 -0.03661,0.227953 -0.07087,0.494882 l -0.0378,-0.02126 z"
   id="path248"
   inkscape:connector-curvature="0"
   style="fill:#fff5ba;fill-rule:nonzero" />
  <path
   class="fil68"
   d="m 36.9626,36.3874 0.0094,-0.09094 -0.01772,-0.0071 -0.02244,-0.349606 0.04016,0.01535 c -0.06142,0.662598 -0.373228,1.93937 -0.895276,2.43307 -0.219685,0.206693 -0.524409,0.422835 -0.887008,0.422835 l -22.3984,0 c -0.370866,0 -0.689764,-0.122835 -0.92126,-0.330709 l 0,-0.0012 c -0.154724,-0.09213 -0.276378,-0.207874 -0.376772,-0.341339 -0.276378,-0.455906 -0.338976,-1.07598 -0.440551,-1.66063 l 0.07913,0.02244 -0.02835,-0.349606 0.02835,0.0083 c -0.07205,-0.79252 -0.05906,-1.51299 -0.50315,-2.12244 C 10.51538,33.853935 10.363018,33.679132 10.162231,33.514959 9.7618368,33.188975 9.3354588,33.017715 8.9126208,32.917321 l -0.068504,-0.0094 c -1.40197,-0.03425 -2.8063,-0.02244 -4.20945,-0.0083 -1.1315,0.01181 -1.85787,0.02008 -2.98937,0.0083 -0.05315,0 -0.135827,-0.03661 -0.21378,-0.06968 -0.133465,-0.05787 -0.272835,-0.116929 -0.45944898,-0.121654 l -0.0141732,0.656693 0.007087,0 -0.007087,0.341339 c 0.0212598,0 0.0484252,0.0059 0.0767717,0.01535 l -0.00236,0.09449 c 0.055512,0.0012 0.137008,0.03661 0.21378,0.06968 0.134646,0.05906 0.271654,0.119291 0.465354,0.121654 1.1374,0.01417 1.86614,0.0047 3.00472,-0.0071 1.38307,-0.01299 2.76969,-0.02598 4.15276,0.0047 0.327165,0.08268 0.651969,0.217323 0.954331,0.464173 0.2633857,0.21378 0.4972437,0.457087 0.6874017,0.726378 l 0.01299,0.01772 c 0.222047,0.347244 0.367323,0.731102 0.405118,1.13031 l 0.04016,0.01181 0.0378,0.523228 -0.0437,-0.249213 c 0.04843,0.518504 0.108661,2.18386 0.445276,2.55354 0.02835,0.05787 0.06142,0.102756 0.09803,0.134646 l 0,0 c 0.350787,0.316535 0.822047,0.598819 1.36181,0.598819 l 22.3961,0 c 0.53622,0 0.99685,-0.285827 1.33819,-0.604724 0.424016,-0.480709 0.496063,-1.09961 0.479528,-1.7315 l 0,-0.04488 c 0.01063,-0.34252 -0.0189,-0.695669 -0.04488,-1.03819 l 0.0094,-0.09685 -0.01772,-0.0071 -0.02008,-0.349606 0.03779,0.01535 c -0.01181,0.13937 -0.03543,0.307087 -0.07205,0.490157 l -0.01181,-0.170079 z m -25.9217,0.369685 -0.0012,-0.0059 0.0024,0.01063 0.0012,0.01181 0.0012,0.0047 0.0012,0.0071 0.0024,0.01063 0.0035,0.02362 0.0024,0.01063 0.0012,0.0047 0,0.0071 0.0024,0.01063 0.0035,0.02362 0.0024,0.01063 0.0012,0.0059 0,0.0059 0.0024,0.01063 0.0024,0.01181 0.0012,0.01181 0.0024,0.01063 0.0012,0.0059 0.0012,0.0059 0.0012,0.01063 0.0024,0.01181 0.0024,0.01063 0.0024,0.01181 0,0.0071 0.0012,0.0035 0.0024,0.01181 -0.04134,-0.54685 -0.04252,-0.01181 -0.01063,-0.09331 -0.01772,-0.0047 0.06496,0.383858 0,0.0012 0,-0.0012"
   id="path250"
   inkscape:connector-curvature="0"
   style="fill:#fff5ba;fill-rule:nonzero" />
  <g
   id="_71671200">
   <path
   id="_110064712"
   class="fil69"
   d="m 11.3185,36.6094 c 0.03307,0.357874 0.539764,0.849213 0.775984,1.06299 l 0,0 c 0.230315,0.209055 0.550394,0.33189 0.922441,0.33189 l 22.3961,0 c 0.362598,0 0.668504,-0.122835 0.887008,-0.329528 0.31063,-0.292913 0.414567,-0.731102 0.46063,-1.1752 0.03071,-0.304724 0.448819,-1.7563 0.473622,-2.02441 -0.02716,0.360236 -0.0626,0.785433 -0.04724,1.2 0.03543,0.915354 0.109843,1.85906 -0.435827,2.47795 -0.340157,0.320079 -0.800787,0.69685 -1.33819,0.69685 l -22.3961,0.0189 c -0.539764,0 -1.10669,-0.205512 -1.4563,-0.522047 l 0,0.0012 c -0.355512,-0.32126 -0.415748,-1.52362 -0.464173,-2.05276 l 0.222047,0.314173 z"
   inkscape:connector-curvature="0"
   style="fill:#f2c738;fill-rule:nonzero" />
   <path
   id="_115683928"
   class="fil69"
   d="m 37.148,34.5024 c 0.467717,-1.05472 1.13268,-2.24528 2.25827,-2.51102 l 0.0685,-0.0083 c 1.40669,-0.03425 3.45236,-0.02126 4.86024,-0.0071 l 0.877559,0.0071 0.709843,0.685039 c -2.1248,0.125197 -4.26378,-0.0047 -6.39213,0.04488 -0.83622,0.20315 -1.78465,1.04882 -2.13898,1.84724 l -0.243307,-0.05787 z"
   inkscape:connector-curvature="0"
   style="fill:#f2c738;fill-rule:nonzero" />
   <path
   id="_119165360"
   class="fil69"
   d="m 2.84055,31.989 c 0.716929,-0.0012 1.43386,-0.0071 2.14961,-0.01299 1.40197,-0.01299 2.8063,-0.02598 4.20709,0.0071 l 0.068504,0.0094 c 0.424016,0.101575 0.851575,0.31063 1.25079,0.635433 0.84685,0.689764 0.545669,1.42441 0.634252,2.4 l 0.02126,1.07008 c -0.01772,-0.19252 -0.194882,-1.47756 -0.233858,-1.64646 -0.11811,-0.507874 -0.377953,-0.870472 -0.853937,-1.25787 -0.3023622,-0.245669 -0.6094492,-0.41811 -0.9354332,-0.499606 -1.38425,-0.03189 -2.76969,-0.0189 -4.15394,-0.0059 -0.716929,0.0071 -1.43622,0.01299 -2.15433,0.01417 l -0.80315,-0.03543 0.80315,-0.677953 z"
   inkscape:connector-curvature="0"
   style="fill:#f2c738;fill-rule:nonzero" />
   <path
   id="_72772344"
   class="fil69"
   d="m 2.80276,32.3693 c 0.716929,-0.0012 1.43386,-0.0071 2.14961,-0.01299 1.40197,-0.01299 2.8063,-0.02598 4.20709,0.0071 l 0.068504,0.0094 c 0.424016,0.101575 0.851575,0.31063 1.25079,0.635433 0.84685,0.689764 0.545669,1.42441 0.634252,2.4 l 0.02126,1.07008 c -0.01772,-0.19252 -0.194882,-1.47756 -0.233858,-1.64646 -0.11811,-0.507874 -0.377953,-0.870472 -0.853937,-1.25787 -0.3023622,-0.245669 -0.6094492,-0.41811 -0.9354332,-0.499606 -1.38425,-0.03189 -2.76969,-0.0189 -4.15394,-0.0059 -0.716929,0.0071 -1.43622,0.01299 -2.15433,0.01417 l -0.80315,-0.03543 0.80315,-0.677953 z"
   inkscape:connector-curvature="0"
   style="fill:#f2c738;fill-rule:nonzero" />
   <path
   id="_110270888"
   class="fil69"
   d="m 37.2248,34.7681 c 0.467717,-1.05472 1.13268,-2.24528 2.25827,-2.51102 l 0.0685,-0.0083 c 1.40669,-0.03425 3.45236,-0.02126 4.86024,-0.0071 l 0.877559,0.0071 0.709843,0.685039 c -2.1248,0.125197 -4.26378,-0.0047 -6.39213,0.04488 -0.83622,0.20315 -1.78465,1.04882 -2.13898,1.84724 l -0.243307,-0.05787 z"
   inkscape:connector-curvature="0"
   style="fill:#f2c738;fill-rule:nonzero" />
  </g>
  <path
   class="fil70"
   d="m 44.8583,30.5622 2.52165,2.32795 0.0035,0.0024 c 0.0626,0.05669 0.115748,0.08976 0.152362,0.111024 l 0.0059,0.0035 c 0.31063,0.191339 0.39685,0.242126 0.398031,0.842126 l 0.01299,10.7787 0.0024,0.0035 0,0.0189 c 0,0.647244 -0.211417,1.24606 -0.569291,1.68661 -0.377953,0.466535 -0.918898,0.757087 -1.54961,0.761811 l -0.0024,0.0024 -0.01181,0 c -6.04724,0 -13.7386,-0.01654 -21.548,-0.03071 -6.60709,-0.01181 -13.4598,-0.02598 -21.9071001,-0.02598 -0.624803,0 -1.20472,-0.282283 -1.62282998,-0.740551 l -0.002362,0 c -0.39685,-0.437008 -0.650787,-1.03937 -0.65315,-1.70551 l -0.108661,-11.3823 -0.0011811,-0.210236 0.147638,-0.146457 0.206693,-0.205512 0.0448819,-0.04134 2.67873998,-1.93701 0.100394,0.394488 0,0.823228 -2.14961,1.49646 -0.0283465,0.02835 0.106299,11.1732 0,0.0035 c 0,0.403937 0.155906,0.77126 0.395669,1.03583 l -0.00118,0.0012 c 0.231496,0.252756 0.549213,0.411024 0.887008,0.411024 6.0437,0 14.0987998,0.01654 21.9070998,0.03071 6.60827,0.01181 13.0984,0.02598 21.548,0.02598 l 0.01181,0 0,0.0024 c 0.309449,-0.0024 0.582283,-0.153543 0.777165,-0.393307 0.214961,-0.264567 0.34252,-0.640157 0.34252,-1.05827 l 0,-0.0189 0.0024,0 -0.01299,-10.7752 0,-0.0035 c 0,-0.0189 0.02953,-0.01063 0.05551,0 l 0.01181,0 c -0.07441,-0.04488 -0.172441,-0.10748 -0.302362,-0.225591 l -1.92638,-1.77874 0,-1.20118 0.07677,-0.08504 z m 2.16378,3.29764 -0.0071,-0.0035 -0.0083,0 c 0.02598,0.01063 0.04606,0.02126 0.01535,0.0035 z m -0.0071,-0.0035 -0.0047,-0.0035 -0.01181,0 0.0083,0.0035 0.0083,0 z"
   id="path258"
   inkscape:connector-curvature="0"
   style="fill:#d4962a;fill-rule:nonzero" />
 </g>
</svg>