<?xml version="1.0" encoding="UTF-8" standalone="no"?>
<!-- Creator: CorelDRAW -->

<svg
   xmlns:dc="http://purl.org/dc/elements/1.1/"
   xmlns:cc="http://creativecommons.org/ns#"
   xmlns:rdf="http://www.w3.org/1999/02/22-rdf-syntax-ns#"
   xmlns:svg="http://www.w3.org/2000/svg"
   xmlns="http://www.w3.org/2000/svg"
   xmlns:xlink="http://www.w3.org/1999/xlink"
   xmlns:sodipodi="http://sodipodi.sourceforge.net/DTD/sodipodi-0.dtd"
   xmlns:inkscape="http://www.inkscape.org/namespaces/inkscape"
   xml:space="preserve"
   width="48px"
   height="48px"
   style="shape-rendering:geometricPrecision; text-rendering:geometricPrecision; image-rendering:optimizeQuality; fill-rule:evenodd; clip-rule:evenodd"
   viewBox="0 0 48 48"
   id="svg4081"
   version="1.1"
   inkscape:version="0.48.1 r9760"
   sodipodi:docname="preferences-system-power-management.svg"><metadata
   id="metadata4296"><rdf:RDF><cc:Work
       rdf:about=""><dc:format>image/svg+xml</dc:format><dc:type
         rdf:resource="http://purl.org/dc/dcmitype/StillImage" /><dc:title></dc:title></cc:Work></rdf:RDF></metadata><sodipodi:namedview
   pagecolor="#ffffff"
   bordercolor="#666666"
   borderopacity="1"
   objecttolerance="10"
   gridtolerance="10"
   guidetolerance="10"
   inkscape:pageopacity="0"
   inkscape:pageshadow="2"
   inkscape:window-width="646"
   inkscape:window-height="480"
   id="namedview4294"
   showgrid="false"
   inkscape:zoom="5.5416667"
   inkscape:cx="24"
   inkscape:cy="24"
   inkscape:window-x="0"
   inkscape:window-y="24"
   inkscape:window-maximized="0"
   inkscape:current-layer="svg4081" />
 <defs
   id="defs4083">
  <style
   type="text/css"
   id="style4085">
   
    .fil22 {fill:#4C4C4C}
    .fil38 {fill:#999999}
    .fil19 {fill:#B7DD5F}
    .fil21 {fill:#CCCCCC}
    .fil18 {fill:#D0F280}
    .fil20 {fill:#E3FF9C}
    .fil45 {fill:#E5E5E5}
    .fil41 {fill:#EEFFC2}
    .fil46 {fill:white}
    .fil24 {fill:#8FB53F;fill-rule:nonzero}
    .fil27 {fill:#191919;fill-opacity:0.000000}
    .fil6 {fill:#82AB2B;fill-opacity:0.000000}
    .fil28 {fill:#191919;fill-opacity:0.007843}
    .fil29 {fill:#191919;fill-opacity:0.019608}
    .fil30 {fill:#191919;fill-opacity:0.027451}
    .fil31 {fill:#191919;fill-opacity:0.035294}
    .fil7 {fill:#82AB2B;fill-opacity:0.035294}
    .fil32 {fill:#191919;fill-opacity:0.043137}
    .fil33 {fill:#191919;fill-opacity:0.054902}
    .fil34 {fill:#191919;fill-opacity:0.062745}
    .fil35 {fill:#191919;fill-opacity:0.070588}
    .fil8 {fill:#82AB2B;fill-opacity:0.074510}
    .fil36 {fill:#191919;fill-opacity:0.078431}
    .fil9 {fill:#82AB2B;fill-opacity:0.109804}
    .fil3 {fill:#333333;fill-opacity:0.121569}
    .fil10 {fill:#82AB2B;fill-opacity:0.145098}
    .fil11 {fill:#82AB2B;fill-opacity:0.184314}
    .fil12 {fill:#82AB2B;fill-opacity:0.219608}
    .fil16 {fill:#82AB2B;fill-opacity:0.321569}
    .fil26 {fill:#7F7F7F;fill-opacity:0.501961}
    .fil40 {fill:#8FB53F;fill-opacity:0.501961}
    .fil0 {fill:#E5E5E5;fill-opacity:0.501961}
    .fil47 {fill:#8FB53F;fill-opacity:0.580392}
    .fil13 {fill:#D7F48E;fill-opacity:0.580392}
    .fil17 {fill:#D7F48E;fill-opacity:0.729412}
    .fil48 {fill:#EEFFC2;fill-opacity:0.729412}
    .fil2 {fill:white;fill-opacity:0.760784}
    .fil15 {fill:#D7F48E;fill-opacity:0.780392}
    .fil1 {fill:white;fill-opacity:0.780392}
    .fil4 {fill:url(#id0)}
    .fil43 {fill:url(#id1)}
    .fil37 {fill:url(#id2)}
    .fil5 {fill:url(#id3)}
    .fil23 {fill:url(#id4)}
    .fil25 {fill:url(#id5)}
    .fil39 {fill:url(#id6)}
    .fil44 {fill:url(#id7)}
    .fil14 {fill:url(#id8);fill-rule:nonzero}
    .fil42 {fill:url(#id9);fill-rule:nonzero}
   
  </style>
  <linearGradient
   id="id0"
   gradientUnits="userSpaceOnUse"
   x1="41.2122"
   y1="8.77677"
   x2="9.87756"
   y2="8.33386">
   <stop
   offset="0"
   style="stop-color:#CCCCCC"
   id="stop4088" />
   <stop
   offset="0.0705882"
   style="stop-color:#CCCACA"
   id="stop4090" />
   <stop
   offset="0.109804"
   style="stop-color:#A0A2A4"
   id="stop4092" />
   <stop
   offset="0.329412"
   style="stop-color:#7A7A7A"
   id="stop4094" />
   <stop
   offset="0.411765"
   style="stop-color:white"
   id="stop4096" />
   <stop
   offset="0.690196"
   style="stop-color:white"
   id="stop4098" />
   <stop
   offset="0.780392"
   style="stop-color:#A3A3A3"
   id="stop4100" />
   <stop
   offset="0.901961"
   style="stop-color:gray"
   id="stop4102" />
   <stop
   offset="0.960784"
   style="stop-color:#CCCACA"
   id="stop4104" />
   <stop
   offset="1"
   style="stop-color:#A8A8A8"
   id="stop4106" />
  </linearGradient>
  <linearGradient
   id="id1"
   gradientUnits="userSpaceOnUse"
   x1="31.1303"
   y1="2.63622"
   x2="18.3886"
   y2="2.5252">
   <stop
   offset="0"
   style="stop-color:#ABABAB"
   id="stop4109" />
   <stop
   offset="0.0509804"
   style="stop-color:#CCCACA"
   id="stop4111" />
   <stop
   offset="0.109804"
   style="stop-color:#A0A2A4"
   id="stop4113" />
   <stop
   offset="0.329412"
   style="stop-color:#7A7A7A"
   id="stop4115" />
   <stop
   offset="0.411765"
   style="stop-color:white"
   id="stop4117" />
   <stop
   offset="0.690196"
   style="stop-color:white"
   id="stop4119" />
   <stop
   offset="0.780392"
   style="stop-color:#A3A3A3"
   id="stop4121" />
   <stop
   offset="0.901961"
   style="stop-color:gray"
   id="stop4123" />
   <stop
   offset="0.960784"
   style="stop-color:#CCCACA"
   id="stop4125" />
   <stop
   offset="1"
   style="stop-color:#A8A8A8"
   id="stop4127" />
  </linearGradient>
  <linearGradient
   id="id2"
   gradientUnits="userSpaceOnUse"
   xlink:href="#id1"
   x1="40.3961"
   y1="44.0374"
   x2="9.83622"
   y2="43.7787">
  </linearGradient>
  <linearGradient
   id="id3"
   gradientUnits="userSpaceOnUse"
   x1="11.2701"
   y1="31.9311"
   x2="38.8949"
   y2="32.224">
   <stop
   offset="0"
   style="stop-color:#A2C849"
   id="stop4131" />
   <stop
   offset="0.341176"
   style="stop-color:#B7DD5F"
   id="stop4133" />
   <stop
   offset="0.858824"
   style="stop-color:#A2C849"
   id="stop4135" />
   <stop
   offset="1"
   style="stop-color:#A2C849"
   id="stop4137" />
  </linearGradient>
  <linearGradient
   id="id4"
   gradientUnits="userSpaceOnUse"
   x1="11.1283"
   y1="4.52244"
   x2="38.2512"
   y2="4.52244">
   <stop
   offset="0"
   style="stop-color:#7F7F7F"
   id="stop4140" />
   <stop
   offset="0.180392"
   style="stop-color:#EFEFEF"
   id="stop4142" />
   <stop
   offset="0.54902"
   style="stop-color:white"
   id="stop4144" />
   <stop
   offset="1"
   style="stop-color:#7F7F7F"
   id="stop4146" />
  </linearGradient>
  <linearGradient
   id="id5"
   gradientUnits="userSpaceOnUse"
   x1="11.5831"
   y1="11.3988"
   x2="38.9539"
   y2="11.3988">
   <stop
   offset="0"
   style="stop-color:#7F7F7F"
   id="stop4149" />
   <stop
   offset="0.101961"
   style="stop-color:#999999"
   id="stop4151" />
   <stop
   offset="0.180392"
   style="stop-color:#EFEFEF"
   id="stop4153" />
   <stop
   offset="0.54902"
   style="stop-color:white"
   id="stop4155" />
   <stop
   offset="0.8"
   style="stop-color:#7F7F7F"
   id="stop4157" />
   <stop
   offset="1"
   style="stop-color:#7F7F7F"
   id="stop4159" />
  </linearGradient>
  <linearGradient
   id="id6"
   gradientUnits="userSpaceOnUse"
   xlink:href="#id5"
   x1="11.4697"
   y1="43.8685"
   x2="38.8665"
   y2="43.8685">
  </linearGradient>
  <linearGradient
   id="id7"
   gradientUnits="userSpaceOnUse"
   x1="24.8941"
   y1="1.33819"
   x2="24.7488"
   y2="0.220866">
   <stop
   offset="0"
   style="stop-color:#808385"
   id="stop4163" />
   <stop
   offset="1"
   style="stop-color:#949494"
   id="stop4165" />
  </linearGradient>
  <linearGradient
   id="id8"
   gradientUnits="userSpaceOnUse"
   x1="10.1256"
   y1="20.3835"
   x2="40.0642"
   y2="20.3835">
   <stop
   offset="0"
   style="stop-color:#B7DD5F"
   id="stop4168" />
   <stop
   offset="0.109804"
   style="stop-color:#E3FF9C"
   id="stop4170" />
   <stop
   offset="0.611765"
   style="stop-color:#E3FF9C"
   id="stop4172" />
   <stop
   offset="1"
   style="stop-color:#B7DD5F"
   id="stop4174" />
  </linearGradient>
  <linearGradient
   id="id9"
   gradientUnits="userSpaceOnUse"
   xlink:href="#id7"
   x1="25.0476"
   y1="43.0524"
   x2="25.0476"
   y2="4.71614">
  </linearGradient>
 </defs>
 <g
   id="Слой_x0020_1">
  <metadata
   id="CorelCorpID_0Corel-Layer" />
  <polygon
   class="fil0"
   points="9.87165,4.71142 40.285,4.63465 40.285,45.5551 9.90118,45.45 "
   id="polygon4179" />
  <polygon
   class="fil1"
   points="39.8657,11.9079 38.798,11.9079 38.798,41.602 39.8657,41.602 "
   id="polygon4181" />
  <polygon
   class="fil1"
   points="11.035,11.602 9.96732,11.602 9.96732,41.2961 11.035,41.2961 "
   id="polygon4183" />
  <polygon
   class="fil2"
   points="17.1354,13.5921 25.6783,13.5921 25.6783,43.2862 17.1354,43.2862 "
   id="polygon4185" />
  <polygon
   class="fil3"
   points="26.1354,13.5921 34.526,13.5921 34.526,43.2862 26.1354,43.2862 "
   id="polygon4187" />
  <polygon
   class="fil3"
   points="14.3894,13.7457 17.1354,13.7457 17.1354,43.4398 14.3894,43.4398 "
   id="polygon4189" />
  <path
   class="fil4"
   d="M40.9252 11.7248c0.0354331,0.0555118 0.0543307,-0.401575 0.0543307,0.167717 0,0.569291 -7.32638,1.95945 -15.3697,1.95945 -8.04449,0 -14.5654,-0.650787 -15.6437,-1.59685l0 -8.91969 31.1575 -0.0767717 0 8.46614 -0.198425 0z"
   id="path4191" />
  <polygon
   class="fil5"
   points="9.8811,18.6 40.285,18.6 40.285,45.5551 9.90118,45.45 "
   id="polygon4193" />
  <polygon
   class="fil6"
   points="40.4752,20.0976 34.9843,20.0976 34.9843,43.363 40.4752,43.363 "
   id="polygon4195" />
  <g
   id="_109599736">
   <path
   id="_110096344"
   class="fil7"
   d="M40.2213 20.0976c-1.54724,0 -3.09449,0 -4.64055,0 0,7.75394 0,15.5091 0,23.2642 1.54606,0 3.09331,0 4.64055,0 0,-7.75512 0,-15.5102 0,-23.2642z" />
   <path
   id="_110090872"
   class="fil8"
   d="M39.965 20.0976c-1.26378,0 -2.52638,0 -3.78898,0 0,7.75394 0,15.5091 0,23.2642 1.2626,0 2.5252,0 3.78898,0 0,-7.75512 0,-15.5102 0,-23.2642z" />
   <path
   id="_106391760"
   class="fil9"
   d="M39.7098 20.0976c-0.980315,0 -1.95945,0 -2.93858,0 0,7.75394 0,15.5091 0,23.2642 0.979134,0 1.95827,0 2.93858,0 0,-7.75512 0,-15.5102 0,-23.2642z" />
   <path
   id="_106391352"
   class="fil10"
   d="M39.4524 20.0976c-0.695669,0 -1.39252,0 -2.08819,0 0,7.75394 0,15.5091 0,23.2642 0.695669,0 1.39252,0 2.08819,0 0,-7.75512 0,-15.5102 0,-23.2642z" />
   <path
   id="_106391040"
   class="fil11"
   d="M39.1984 20.0976c-0.413386,0 -0.825591,0 -1.2378,0 0,7.75394 0,15.5091 0,23.2642 0.412205,0 0.824409,0 1.2378,0 0,-7.75512 0,-15.5102 0,-23.2642z" />
  </g>
  <polygon
   class="fil12"
   points="38.9409,20.0976 38.5547,20.0976 38.5547,43.363 38.9409,43.363 "
   id="polygon4203" />
  <polygon
   class="fil6"
   points="10.8059,19.7138 15.5339,19.7138 15.5339,42.9791 10.8059,42.9791 "
   id="polygon4205" />
  <g
   id="_109612336">
   <path
   id="_110093608"
   class="fil7"
   d="M11.0268 19.7138c1.33228,0 2.66457,0 3.99567,0 0,7.75394 0,15.5091 0,23.2642 -1.3311,0 -2.66339,0 -3.99567,0 0,-7.75512 0,-15.5102 0,-23.2642z" />
   <path
   id="_110091256"
   class="fil8"
   d="M11.2488 19.7138c1.0878,0 2.17559,0 3.2622,0 0,7.75394 0,15.5091 0,23.2642 -1.08661,0 -2.17441,0 -3.2622,0 0,-7.75512 0,-15.5102 0,-23.2642z" />
   <path
   id="_106392600"
   class="fil9"
   d="M11.4685 19.7138c0.843307,0 1.68661,0 2.52992,0 0,7.75394 0,15.5091 0,23.2642 -0.843307,0 -1.68661,0 -2.52992,0 0,-7.75512 0,-15.5102 0,-23.2642z" />
   <path
   id="_106391232"
   class="fil10"
   d="M11.6858 19.7138c0.6,0 1.19882,0 1.79882,0 0,7.75394 0,15.5091 0,23.2642 -0.6,0 -1.19882,0 -1.79882,0 0,-7.75512 0,-15.5102 0,-23.2642z" />
   <path
   id="_106390296"
   class="fil11"
   d="M11.9079 19.7138c0.354331,0 0.709843,0 1.06535,0 0,7.75394 0,15.5091 0,23.2642 -0.355512,0 -0.711024,0 -1.06535,0 0,-7.75512 0,-15.5102 0,-23.2642z" />
  </g>
  <polygon
   class="fil12"
   points="12.1264,19.7138 12.4594,19.7138 12.4594,42.9791 12.1264,42.9791 "
   id="polygon4213" />
  <g
   id="_109612480">
   <path
   id="_109606480"
   class="fil13"
   d="M40.1445 27.1654c0.00826772,-0.0248031 0.0129921,0.0153543 0.0129921,0.266929 0,0.0129921 -0.00472441,0.0259843 -0.0129921,0.0389764 0,0.0318898 0,0.0614173 0,0.092126 -0.034252,0 -0.0685039,0 -0.101575,0 -0.0129921,0.00708661 -0.0259843,0.0153543 -0.0377953,0.0224409 0,0.0448819 0,0.0909449 0,0.135827 0,0.538583 -7.15276,1.85315 -15.0035,1.85315 -7.85079,0 -14.2169,-0.615354 -15.2693,-1.51063 0,-0.264567 0,-0.530315 0,-0.796063 0.0425197,0.0354331 0.0933071,0.069685 0.152362,0.105118 0,-0.131102 0,-0.262205 0,-0.394488 1.05236,0.895276 7.4185,1.51063 15.2693,1.51063 7.18228,0 13.7787,-1.10079 14.8512,-1.69961 -0.00354331,-0.318898 -0.023622,0.023622 -0.0543307,-0.0224409 0.0307087,0 0.0614173,0 0.092126,0 0.0755906,-0.0484252 0.114567,-0.092126 0.114567,-0.131102 0,-0.538583 -0.0200787,-0.106299 -0.0543307,-0.158268 0.0637795,0 0.12874,0 0.193701,0 0,0.265748 0,0.531496 0,0.796063 -0.0507874,0 -0.101575,0 -0.152362,0 0,-0.0354331 0,-0.0720472 0,-0.108661z" />
   <path
   id="_109600480"
   class="fil13"
   d="M40.3488 34.0394c0.00826772,-0.023622 0.0129921,0.0129921 0.0129921,0.251575 0,0.0106299 -0.00472441,0.023622 -0.0129921,0.0366142 0,0.0283465 0,0.057874 0,0.0862205 -0.034252,0 -0.0685039,0 -0.101575,0 -0.0129921,0.00708661 -0.0259843,0.0129921 -0.0377953,0.0200787 0,0.0437008 0,0.0862205 0,0.129921 0,0.506693 -7.15276,1.74567 -15.0035,1.74567 -7.85079,0 -14.2169,-0.579921 -15.2693,-1.42323 0,-0.250394 0,-0.500787 0,-0.75 0.0425197,0.0330709 0.0933071,0.0649606 0.152362,0.0980315 0,-0.124016 0,-0.248031 0,-0.370866 1.05236,0.842126 7.4185,1.42205 15.2693,1.42205 7.18228,0 13.7787,-1.03583 14.8512,-1.60157 -0.00354331,-0.3 -0.023622,0.023622 -0.0543307,-0.0212598 0.0307087,0 0.0614173,0 0.092126,0 0.0755906,-0.0448819 0.114567,-0.0862205 0.114567,-0.122835 0,-0.506693 -0.0200787,-0.100394 -0.0543307,-0.15 0.0637795,0 0.12874,0 0.193701,0 0,0.250394 0,0.500787 0,0.751181 -0.0507874,0 -0.101575,0 -0.152362,0 0,-0.034252 0,-0.0673228 0,-0.101575z" />
  </g>
  <path
   class="fil14"
   d="M40.6878 19.3559c0,0.729921 -1.86378,1.28622 -4.87205,1.59567 -2.75669,0.284646 -6.55039,0.46063 -10.7209,0.46063 -4.17047,0 -7.96417,-0.175984 -10.7209,-0.46063 -3.00827,-0.309449 -4.87205,-0.865748 -4.87205,-1.59567l1.00157 0c0,0.129921 1.5189,0.351969 3.97205,0.603543 2.70118,0.27874 6.45591,0.451181 10.6193,0.451181 4.16339,0 7.91811,-0.172441 10.6193,-0.451181 2.45315,-0.251575 3.97205,-0.473622 3.97205,-0.603543l1.00157 0z"
   id="path4218" />
  <polygon
   class="fil15"
   points="38.798,18.1075 39.8657,18.1075 39.8657,41.602 38.798,41.602 "
   id="polygon4220" />
  <polygon
   class="fil15"
   points="9.96732,18.6 9.96732,41.2961 11.035,41.2961 11.035,18.6 "
   id="polygon4222" />
  <polygon
   class="fil16"
   points="26.1354,18.1417 34.526,18.1417 34.526,43.2862 26.1354,43.2862 "
   id="polygon4224" />
  <polygon
   class="fil17"
   points="25.6783,18.1417 25.6783,43.2862 17.1354,43.2862 17.1354,18.1417 "
   id="polygon4226" />
  <ellipse
   class="fil18"
   cx="25.0177"
   cy="18.8969"
   rx="15.0921"
   ry="1.5551"
   id="ellipse4228" />
  <path
   class="fil19"
   d="M26.1354 17.3469c3.05669,0.0177165 5.91024,0.0968504 8.39055,0.220866l0 2.65984c-2.48031,0.124016 -5.33386,0.201969 -8.39055,0.219685l0 -3.10039z"
   id="path4230" />
  <path
   class="fil20"
   d="M25.0181 17.3421l0.660236 0.0011811 0 3.10748 -0.660236 0.0011811c-2.88898,0 -5.5878,-0.0826772 -7.88268,-0.227953l0 -2.65276c2.29488,-0.145276 4.9937,-0.229134 7.88268,-0.229134z"
   id="path4232" />
  <ellipse
   class="fil21"
   cx="25.115"
   cy="3.09065"
   rx="15.0677"
   ry="2.08164"
   id="ellipse4234" />
  <ellipse
   class="fil22"
   cx="25.115"
   cy="3.09073"
   rx="10.9567"
   ry="1.51371"
   id="ellipse4236" />
  <path
   class="fil23"
   d="M39.6142 3.10866c0.0944882,0.0944882 0.142913,0.190157 0.142913,0.288189 0,0.0767717 -0.0318898,0.152362 -0.0909449,0.227953 0.0602362,0.0755906 0.0909449,0.153543 0.0909449,0.231496 0,1.14921 -6.74764,2.0811 -15.0673,2.0811 -8.32087,0 -15.0685,-0.93189 -15.0685,-2.0811 0,-0.0779528 0.0318898,-0.154724 0.092126,-0.230315 -0.0602362,-0.0755906 -0.092126,-0.151181 -0.092126,-0.229134 0,-0.0838583 0.0366142,-0.166535 0.106299,-0.24685 1.01575,1.01339 7.31102,1.79291 14.9232,1.79291 7.71614,0 14.0787,-0.801969 14.9634,-1.83425z"
   id="path4238" />
  <path
   class="fil24"
   d="M41.0291 12.1984l-0.0248031 28.1799 -1.00157 0.359055 0.0259843 -28.3028 1.00039 -0.23622zm-31.95 28.3205l-0.0507874 -8.85827 0 -20.4413 0.99685 0.270472 0 20.1709 0.0496063 8.8252c-0.312992,0.0141732 -0.647244,0.0248031 -0.995669,0.0330709z"
   id="path4240" />
  <path
   class="fil25"
   d="M40.2815 11.1874c0.034252,0.0555118 0.0543307,-0.401575 0.0543307,0.167717 0,0.569291 -7.15276,1.95945 -15.0035,1.95945 -7.85197,0 -14.2181,-0.650787 -15.2705,-1.59685l0 -0.459449 0 -0.382677 0 -0.459449c1.05236,0.946063 7.4185,1.59685 15.2705,1.59685 7.85079,0 15.0035,-1.39016 15.0035,-1.95945 0,-0.569291 -0.0200787,-0.112205 -0.0543307,-0.167717l0.193701 0 0 0.459449 0 0.382677 0 0.459449 -0.193701 0z"
   id="path4242" />
  <path
   class="fil3"
   d="M9.83268 13.2484l0 -0.383858 0 -0.458268c1.05236,0.946063 7.4185,1.59685 15.2705,1.59685 7.85079,0 15.0035,-1.39016 15.0035,-1.95945 0,-0.569291 -0.0200787,-0.112205 -0.0543307,-0.167717l0.193701 0 0 0.458268 0 0.383858 0 0.458268 -0.193701 0c0.034252,0.0555118 0.0543307,-0.401575 0.0543307,0.167717 0,0.569291 -7.15276,1.95945 -15.0035,1.95945 -7.85197,0 -14.2181,-0.650787 -15.2705,-1.59685l0 -0.458268z"
   id="path4244" />
  <path
   class="fil26"
   d="M40.3193 11.9917c0.034252,0.0555118 0.0543307,-0.401575 0.0543307,0.167717 0,0.569291 -7.15276,1.95945 -15.0035,1.95945 -7.85197,0 -14.2181,-0.650787 -15.2705,-1.59685l0 -0.842126c1.05236,0.946063 7.4185,1.59685 15.2705,1.59685 7.85079,0 15.0035,-1.39016 15.0035,-1.95945 0,-0.569291 -0.0200787,-0.112205 -0.0543307,-0.167717l0.193701 0 0 0.842126 -0.193701 0z"
   id="path4246" />
  <g
   id="_109613296">
   <path
   id="_109602112"
   class="fil27"
   d="M25.0264 41.8087c11.3185,-0.858661 20.1012,2.73189 20.1012,3.85984 0,1.13031 -1.92874,3.09213 -19.7634,3.1878 -17.837,0.0944882 -18.7913,-0.529134 -19.6902,-3.1878 -0.898819,-2.6563 8.03268,-3 19.3524,-3.85984z" />
   <g
   id="g4250">
    <path
   id="_109608856"
   class="fil28"
   d="M25.0606 42.1228c10.9807,-0.765354 19.5343,2.47087 19.5343,3.56693 0,1.09724 -2.46142,2.94803 -19.2354,3.03307 -16.7752,0.0838583 -18.3945,-0.594094 -19.1941,-3.04724 -0.798425,-2.45669 7.9122,-2.78976 18.8953,-3.55276z" />
    <path
   id="_109605520"
   class="fil29"
   d="M25.0925 42.4358c10.6465,-0.668504 18.9697,2.2122 18.9697,3.2752 0,1.06299 -2.99409,2.80512 -18.7063,2.87835 -15.7134,0.0755906 -18,-0.656693 -18.6992,-2.91024 -0.699213,-2.25118 7.79055,-2.57362 18.4358,-3.24331z" />
    <path
   id="_109606120"
   class="fil30"
   d="M25.1268 42.75c10.3087,-0.572835 18.4039,1.95118 18.4039,2.98228 0,1.03228 -3.52677,2.66102 -18.1783,2.72598 -14.6528,0.0625984 -17.6055,-0.721654 -18.2031,-2.77323 -0.6,-2.05039 7.6689,-2.3622 17.9776,-2.93504z" />
    <path
   id="_109606696"
   class="fil31"
   d="M25.1598 43.063c9.97205,-0.477165 17.8382,1.69252 17.8382,2.69055 0,0.998031 -4.05945,2.51811 -17.6504,2.57008 -13.5921,0.0543307 -17.2087,-0.784252 -17.7071,-2.63268 -0.499606,-1.84724 7.54843,-2.15079 17.5193,-2.62795z" />
    <path
   id="_109602016"
   class="fil32"
   d="M25.1929 43.3772c9.63543,-0.381496 17.2724,1.43268 17.2724,2.39882 0,0.966142 -4.59094,2.37283 -17.1213,2.41654 -12.5315,0.0413386 -16.813,-0.850394 -17.2134,-2.49685 -0.399213,-1.64409 7.42913,-1.93583 17.0622,-2.3185z" />
    <path
   id="_109603672"
   class="fil33"
   d="M25.226 43.6902c9.29882,-0.285827 16.7055,1.17165 16.7055,2.10591 0,0.933071 -5.12244,2.2311 -16.5921,2.26299 -11.4697,0.0307087 -16.4173,-0.914173 -16.7173,-2.35748 -0.3,-1.44213 7.3063,-1.72441 16.6039,-2.01142z" />
    <path
   id="_109601272"
   class="fil34"
   d="M25.2602 44.0043c8.95984,-0.191339 16.1386,0.911811 16.1386,1.81299 0,0.902362 -5.6563,2.08819 -16.0642,2.10945 -10.4079,0.0212598 -16.0205,-0.977953 -16.2201,-2.21929 -0.200787,-1.24016 7.18583,-1.51181 16.1457,-1.70315z" />
    <path
   id="_109601488"
   class="fil35"
   d="M25.2933 44.3173c8.62323,-0.0944882 15.5728,0.65315 15.5728,1.52126 0,0.86811 -6.1878,1.94409 -15.535,1.95472 -9.34843,0.0106299 -15.6272,-1.04173 -15.7264,-2.07874 -0.100394,-1.03819 7.06535,-1.30157 15.6886,-1.39724z" />
   </g>
   <path
   id="_109611784"
   class="fil36"
   d="M25.3264 44.6327c8.28661,0 15.0071,0.390945 15.0071,1.22835 0,0.835039 -6.72047,1.8 -15.0071,1.8 -8.2878,0 -15.2315,-1.10551 -15.2315,-1.94055 0,-0.83622 6.9437,-1.0878 15.2315,-1.0878z" />
  </g>
  <path
   class="fil26"
   d="M9.79488 41.5736l0 -0.870472 0.131102 0c0.427559,0.666142 7.57559,1.75039 15.4724,1.75039 7.89685,0 14.3161,-1.16102 14.7425,-1.82717l0.0673228 0 0 4.05472c0,0.465354 0.0283465,0.712205 -0.154724,0.897638l0 -0.0555118 0 -4.05472 -0.0673228 0c-0.426378,0.666142 -6.84567,1.82717 -14.7425,1.82717 -7.78583,0 -14.8417,-1.05354 -15.4488,-1.72205z"
   id="path4261" />
  <path
   class="fil37"
   d="M39.4606 45.6555c-1.86496,0.539764 -7.2685,1.4563 -13.9087,1.4563 -7.28031,0 -13.8839,-1.0878 -15.2409,-1.56614 -0.322441,-0.113386 -0.43937,-0.297638 -0.43937,-0.689764l0 -4.07953 0.131102 0c0.427559,0.625984 7.57559,1.64409 15.4724,1.64409 7.89685,0 14.315,-1.09016 14.7425,-1.71614l0.0673228 0 0 3.80906c0,0.71811 0.0767717,0.881102 -0.824409,1.14213z"
   id="path4263" />
  <path
   class="fil21"
   d="M12.4453 41.2406l-1.5248 1.20354 0.0129921 1.87559 2.61732 1.50118c-0.276378,-0.0708661 -3.0874,0.0933071 -3.23976,0.0366142 -0.164173,-0.0614173 -0.274016,-0.140551 -0.343701,-0.261024l0 -4.81535 0.0354331 0c0.0826772,0.12874 1.90276,0.31063 2.44252,0.459449z"
   id="path4265" />
  <path
   class="fil38"
   d="M39.0449 41.1839l0 4.87677c-0.550394,0.115748 -1.18937,0.237402 -1.9063,0.35315l0 -4.89921c0.713386,-0.106299 1.35354,-0.217323 1.9063,-0.330709z"
   id="path4267" />
  <path
   class="fil39"
   d="M9.94724 42.339l0 -0.870472 0.131102 0c0.427559,0.666142 7.57559,1.75039 15.4724,1.75039 7.89685,0 14.3161,-1.16102 14.7425,-1.82717l0.0673228 0 0 4.05472c0,0.465354 0.0283465,0.712205 -0.154724,0.897638l0 -0.0555118 0 -4.05472 -0.0673228 0c-0.426378,0.666142 -6.84567,1.82717 -14.7425,1.82717 -7.78583,0 -14.8417,-1.05354 -15.4488,-1.72205z"
   id="path4269" />
  <path
   class="fil40"
   d="M9.87165 40.885l0 -0.870472 0.131102 0c0.427559,0.666142 7.57559,1.75039 15.4724,1.75039 7.89685,0 14.3161,-1.16102 14.7425,-1.82717l0.0673228 0 0 4.05472c0,0.465354 0.0283465,0.712205 -0.154724,0.897638l0 -0.0555118 0 -4.05472 -0.0673228 0c-0.426378,0.666142 -6.84567,1.82717 -14.7425,1.82717 -7.78583,0 -14.8417,-1.05354 -15.4488,-1.72205z"
   id="path4271" />
  <path
   class="fil41"
   d="M25.6783 20.4094l0 1.00157 -0.583465 0.0011811c-2.91142,0 -5.63976,-0.0862205 -7.95945,-0.233858l0 -1.00039c2.30079,0.147638 5.02913,0.232677 7.95945,0.232677l0.583465 -0.0011811z"
   id="path4273" />
  <path
   class="fil42"
   d="M24.9224 0.507874c4.22835,0 8.20039,0.209055 11.0787,0.566929 2.96102,0.368504 4.85669,0.993307 4.91102,1.83307l0.100394 1.5437 0.0023622 0.0307087 0.0141732 7.71614 -1.00039 0.23622 -0.0153543 -7.95236 -0.0980315 -1.51299c-0.0177165,-0.274016 -1.57795,-0.596457 -4.03465,-0.902362 -2.82992,-0.351969 -6.75827,-0.55748 -10.9583,-0.55748l0 -0.0023622 -1.06299 0.00472441c-3.85039,0.034252 -7.41969,0.264567 -10.0217,0.620079 -2.34921,0.32126 -3.83031,0.646063 -3.83031,0.9l0 0.0023622 -0.0023622 0 0.0177165 1.65472 0 0.00354331 0.0023622 6.79724 -0.99685 -0.270472 -0.0023622 -6.52323 -0.0177165 -1.65827 -0.0023622 -0.00354331 0 -0.0023622c0,-0.844488 1.81654,-1.49528 4.69961,-1.88976 2.6315,-0.359055 6.24449,-0.591732 10.1469,-0.627165l0.0011811 0 1.06654 -0.00472441 0.0023622 -0.0023622zm16.1587 39.8705l0.00944882 3.46417 0 0.0354331 0 0.034252 0 0.034252 0 0.320079 0 0.372047 0 0.500787 -0.348425 0c-0.0637795,0.0566929 -0.138189,0.108661 -0.224409,0.155906l-0.00472441 0.0023622c-0.142913,0.0779528 -0.33189,0.153543 -0.582283,0.233858l0 0.0011811c-1.65591,0.544488 -3.90354,0.947244 -6.23858,1.22244 -2.95157,0.349606 -6.04724,0.505512 -8.26299,0.505512 -2.99409,0 -5.94803,-0.205512 -8.47323,-0.48189 -3.56102,-0.388583 -6.28583,-0.929528 -7.09724,-1.2378l-0.0023622 0c-0.175984,-0.0673228 -0.318898,-0.153543 -0.437008,-0.271654l-0.0023622 -0.00354331 -0.0850394 -0.0980315 -0.20315 0 0 -0.485433 -0.0177165 -0.134646 -0.0023622 -0.023622 -0.00708661 -0.162992 0 -0.0212598 -0.0224409 -3.82087c0.348425,-0.00826772 0.682677,-0.0188976 0.995669,-0.0330709l0.023622 3.83268 0.00708661 0.15 0.00826772 0.0519685 0.0011811 0.0106299 0.0011811 0.00354331 0.0106299 0.0295276c0.0129921,0.011811 0.0425197,0.0271654 0.0862205,0.0437008l0 0.0011811c0.755906,0.285827 3.37677,0.797244 6.84921,1.17756 2.47559,0.270472 5.38701,0.472441 8.36693,0.472441 2.19449,0 5.24882,-0.152362 8.14488,-0.496063 2.27717,-0.269291 4.45866,-0.657874 6.04724,-1.17992l0.0023622 0c0.180709,-0.057874 0.314173,-0.109843 0.405118,-0.159449l0.0023622 -0.0011811 0.0023622 -0.0011811 0.0401575 -0.0177165 0.0153543 -0.0283465 0 -0.108661 0 -0.320079 0 -0.034252 0 -0.034252 0 -0.0354331 -0.00944882 -3.10512 1.00157 -0.359055z"
   id="path4275" />
  <path
   class="fil43"
   d="M18.4772 1.06063l12.6331 0 -0.0330709 2.25354c0.0212598,0.023622 0.0330709,0.0484252 0.0330709,0.0732283 0,0.394488 -2.84409,0.714567 -6.35079,0.714567 -3.50669,0 -6.35079,-0.320079 -6.35079,-0.714567 0,-0.0259843 0.0129921,-0.0507874 0.0354331,-0.0755906l0.0330709 -2.25118z"
   id="path4277" />
  <ellipse
   class="fil44"
   cx="24.8213"
   cy="0.779004"
   rx="6.65408"
   ry="0.771937"
   id="ellipse4279" />
  <ellipse
   class="fil45"
   cx="24.8591"
   cy="1.14278"
   rx="6.35055"
   ry="0.714057"
   id="ellipse4281" />
  <path
   class="fil46"
   d="M18.6803 4.79055c0.972047,0 1.75984,0.0838583 1.75984,0.274016 0,0.190157 -0.787795,0.415748 -1.75984,0.415748 -0.972047,0 -1.75984,-0.225591 -1.75984,-0.415748 0,-0.190157 0.787795,-0.274016 1.75984,-0.274016z"
   id="path4283" />
  <path
   class="fil39"
   d="M10.0228 41.6504l0 -0.870472 0.131102 0c0.427559,0.666142 7.57559,1.75039 15.4724,1.75039 7.89685,0 14.3161,-1.16102 14.7425,-1.82717l0.0673228 0 0 4.05472c0,0.465354 0.0283465,0.712205 -0.154724,0.897638l0 -0.0555118 0 -4.05472 -0.0673228 0c-0.426378,0.666142 -6.84567,1.82717 -14.7425,1.82717 -7.78583,0 -14.8417,-1.05354 -15.4488,-1.72205z"
   id="path4285" />
  <path
   class="fil47"
   d="M39.9933 26.1531c0.00826772,-0.0248031 0.0129921,0.0141732 0.0129921,0.266929 0,0.011811 -0.00472441,0.0248031 -0.0129921,0.0389764 0,0.0307087 0,0.0614173 0,0.0909449 -0.034252,0 -0.0685039,0 -0.101575,0 -0.0129921,0.00826772 -0.0259843,0.0153543 -0.0377953,0.0224409 0,0.046063 0,0.0909449 0,0.137008 0,0.537402 -7.15276,1.85197 -15.0035,1.85197 -7.85079,0 -14.2169,-0.615354 -15.2693,-1.50945 0,-0.264567 0,-0.530315 0,-0.796063 0.0425197,0.0354331 0.0933071,0.0685039 0.152362,0.103937 0,-0.131102 0,-0.262205 0,-0.393307 1.05236,0.894094 7.4185,1.50945 15.2693,1.50945 7.18228,0 13.7787,-1.09961 14.8512,-1.69961 -0.00354331,-0.318898 -0.023622,0.0248031 -0.0543307,-0.0224409 0.0307087,0 0.0614173,0 0.092126,0 0.0755906,-0.0484252 0.114567,-0.092126 0.114567,-0.131102 0,-0.537402 -0.0200787,-0.105118 -0.0543307,-0.158268 0.0637795,0 0.12874,0 0.193701,0 0,0.265748 0,0.531496 0,0.796063 -0.0507874,0 -0.101575,0 -0.152362,0 0,-0.0354331 0,-0.0708661 0,-0.10748z"
   id="path4287" />
  <path
   class="fil47"
   d="M40.1976 33.0839c0.00826772,-0.023622 0.0129921,0.0141732 0.0129921,0.251575 0,0.011811 -0.00472441,0.0248031 -0.0129921,0.0366142 0,0.0295276 0,0.057874 0,0.0874016 -0.034252,0 -0.0685039,0 -0.101575,0 -0.0129921,0.00590551 -0.0259843,0.0129921 -0.0377953,0.0200787 0,0.0425197 0,0.0862205 0,0.12874 0,0.507874 -7.15276,1.74685 -15.0035,1.74685 -7.85079,0 -14.2169,-0.579921 -15.2693,-1.42323 0,-0.250394 0,-0.500787 0,-0.751181 0.0425197,0.034252 0.0933071,0.0661417 0.152362,0.0992126 0,-0.124016 0,-0.248031 0,-0.372047 1.05236,0.843307 7.4185,1.42441 15.2693,1.42441 7.18228,0 13.7787,-1.03819 14.8512,-1.60276 -0.00354331,-0.3 -0.023622,0.0224409 -0.0543307,-0.0212598 0.0307087,0 0.0614173,0 0.092126,0 0.0755906,-0.0448819 0.114567,-0.0862205 0.114567,-0.122835 0,-0.507874 -0.0200787,-0.100394 -0.0543307,-0.15 0.0637795,0 0.12874,0 0.193701,0 0,0.250394 0,0.500787 0,0.751181 -0.0507874,0 -0.101575,0 -0.152362,0 0,-0.034252 0,-0.0685039 0,-0.102756z"
   id="path4289" />
  <g
   id="_109613536">
   <path
   id="_109611808"
   class="fil48"
   d="M25.6783 28.487l0 1.08425 -0.676772 0.00354331c-2.88661,0 -5.57126,-0.0826772 -7.86614,-0.232677l0 -1.09606c2.32795,0.155906 5.06811,0.243307 8.0185,0.243307l0.524409 -0.0023622z" />
   <path
   id="_109613056"
   class="fil48"
   d="M25.6783 35.2843l0 1.02283 -0.472441 0.0023622c-2.97165,0 -5.73189,-0.0826772 -8.07047,-0.232677l0 -1.03346c2.37047,0.155906 5.18622,0.242126 8.22283,0.242126l0.320079 -0.0011811z" />
  </g>
 </g>
</svg>