<?xml version="1.0" encoding="UTF-8"?>
<!DOCTYPE svg PUBLIC "-//W3C//DTD SVG 1.1//EN" "http://www.w3.org/Graphics/SVG/1.1/DTD/svg11.dtd">
<!-- Creator: CorelDRAW -->
<svg xmlns="http://www.w3.org/2000/svg" xml:space="preserve" width="48px" height="48px" style="shape-rendering:geometricPrecision; text-rendering:geometricPrecision; image-rendering:optimizeQuality; fill-rule:evenodd; clip-rule:evenodd"
viewBox="0 0 48 48"
 xmlns:xlink="http://www.w3.org/1999/xlink">
 <defs>
  <style type="text/css">
   <![CDATA[
    .fil23 {fill:none}
    .fil14 {fill:#C9C9C9}
    .fil31 {fill:white}
    .fil33 {fill:#CCF272;fill-rule:nonzero}
    .fil32 {fill:#FCDD4C;fill-rule:nonzero}
    .fil26 {fill:white;fill-rule:nonzero}
    .fil0 {fill:black;fill-opacity:0.000000}
    .fil1 {fill:black;fill-opacity:0.003922}
    .fil2 {fill:black;fill-opacity:0.007843}
    .fil3 {fill:black;fill-opacity:0.015686}
    .fil4 {fill:black;fill-opacity:0.019608}
    .fil5 {fill:black;fill-opacity:0.023529}
    .fil6 {fill:black;fill-opacity:0.027451}
    .fil7 {fill:black;fill-opacity:0.031373}
    .fil8 {fill:black;fill-opacity:0.035294}
    .fil9 {fill:black;fill-opacity:0.043137}
    .fil10 {fill:black;fill-opacity:0.047059}
    .fil11 {fill:black;fill-opacity:0.050980}
    .fil12 {fill:black;fill-opacity:0.054902}
    .fil13 {fill:black;fill-opacity:0.058824}
    .fil20 {fill:#99FFFF;fill-opacity:0.121569}
    .fil19 {fill:#99FFFF;fill-rule:nonzero;fill-opacity:0.121569}
    .fil25 {fill:#B2B2B2;fill-rule:nonzero;fill-opacity:0.121569}
    .fil21 {fill:black;fill-opacity:0.219608}
    .fil22 {fill:#A0DFFF;fill-opacity:0.219608}
    .fil15 {fill:#A4A5A7;fill-opacity:0.439216}
    .fil28 {fill:#CCCCCC;fill-opacity:0.439216}
    .fil24 {fill:#D1CFCF;fill-rule:nonzero;fill-opacity:0.501961}
    .fil30 {fill:url(#id0)}
    .fil17 {fill:url(#id1)}
    .fil18 {fill:url(#id2)}
    .fil16 {fill:url(#id3)}
    .fil27 {fill:url(#id4);fill-rule:nonzero}
    .fil29 {fill:url(#id5);fill-rule:nonzero}
   ]]>
  </style>
  <linearGradient id="id0" gradientUnits="userSpaceOnUse" x1="23.9126" y1="43.7055" x2="23.9126" y2="10.5638">
   <stop offset="0" style="stop-color:#7F7F7F"/>
   <stop offset="1" style="stop-color:#999999"/>
  </linearGradient>
  <linearGradient id="id1" gradientUnits="userSpaceOnUse" x1="24.3449" y1="6.61417" x2="23.4673" y2="24.3886">
   <stop offset="0" style="stop-color:#EDEDED"/>
   <stop offset="1" style="stop-color:#D1CFCF"/>
  </linearGradient>
  <linearGradient id="id2" gradientUnits="userSpaceOnUse" x1="24.0496" y1="40.8283" x2="23.7756" y2="13.4409">
   <stop offset="0" style="stop-color:#2E2E2E"/>
   <stop offset="1" style="stop-color:#4A4A4A"/>
  </linearGradient>
  <linearGradient id="id3" gradientUnits="userSpaceOnUse" x1="24.1618" y1="34.1008" x2="23.9504" y2="19.7445">
   <stop offset="0" style="stop-color:#B0B0B0"/>
   <stop offset="1" style="stop-color:#BEBEBE"/>
  </linearGradient>
  <linearGradient id="id4" gradientUnits="userSpaceOnUse" x1="2.04094" y1="43.4976" x2="2.89724" y2="12.5421">
   <stop offset="0" style="stop-color:#B8B8B8"/>
   <stop offset="1" style="stop-color:white"/>
  </linearGradient>
  <linearGradient id="id5" gradientUnits="userSpaceOnUse" xlink:href="#id0" x1="24.0402" y1="46.5921" x2="24.0402" y2="5.30315">
  </linearGradient>
 </defs>
 <g id="Слой_x0020_1">
  <metadata id="CorelCorpID_0Corel-Layer"/>
  <g id="_103966768">
   <path id="_63905264" class="fil0" d="M22.9866 41.0161c23.2181,-0.930709 26.3504,2.65866 26.4508,5.57126 0.101575,2.91378 -12.0449,1.25669 -25.5815,1.75984 -13.5366,0.501969 -24.952,0.925984 -24.952,-1.23307 0,-2.16024 0.864567,-5.16732 24.0827,-6.09803z"/>
   <g>
    <path id="_65483248" class="fil1" d="M23.0409 41.3752c22.2331,-0.859843 26.0764,2.53701 26.1697,5.27835 0.0933071,2.69764 -11.9776,1.17165 -25.3323,1.63701 -13.3547,0.462992 -24.7512,0.850394 -24.7512,-1.15039 0,-2.04685 1.68071,-4.9063 23.9138,-5.76496z"/>
    <path id="_64668712" class="fil2" d="M23.0941 41.7319c21.248,-0.787795 25.8035,2.41654 25.8886,4.98543 0.0862205,2.48268 -11.9114,1.08898 -25.0831,1.51417 -13.1728,0.425197 -24.5516,0.775984 -24.5516,-1.06654 0,-1.93228 2.49685,-4.64528 23.7461,-5.43307z"/>
    <path id="_58152664" class="fil3" d="M23.1461 42.0909c20.2642,-0.716929 25.5307,2.29606 25.6087,4.69252 0.0779528,2.26654 -11.8441,1.00394 -24.835,1.39134 -12.9909,0.38622 -24.3508,0.700394 -24.3508,-0.983858 0,-1.8189 3.31299,-4.38425 23.5772,-5.1z"/>
    <path id="_63773248" class="fil4" d="M23.1992 42.4488c19.278,-0.643701 25.2579,2.17559 25.3276,4.40079 0.069685,2.05039 -11.778,0.920079 -24.5858,1.2685 -12.8102,0.347244 -24.1512,0.624803 -24.1512,-0.902362 0,-1.70315 4.12795,-4.12205 23.4094,-4.76693z"/>
    <path id="_65745392" class="fil5" d="M23.2512 42.8079c18.2941,-0.572835 24.985,2.05394 25.0476,4.10669 0.0625984,1.83543 -11.7106,0.83622 -24.3378,1.14567 -12.6272,0.309449 -23.9504,0.550394 -23.9504,-0.818504 0,-1.58976 4.94409,-3.86102 23.2406,-4.43386z"/>
    <path id="_63573256" class="fil6" d="M23.3031 43.1657c17.3102,-0.500787 24.7134,1.93346 24.7677,3.81496 0.0543307,1.61929 -11.6433,0.752362 -24.0886,1.02283 -12.4465,0.270472 -23.7508,0.474803 -23.7508,-0.735827 0,-1.47638 5.76024,-3.6 23.0717,-4.10197z"/>
    <path id="_64527952" class="fil7" d="M23.3563 43.5248c16.3252,-0.429921 24.4394,1.81299 24.4854,3.52205 0.0472441,1.40433 -11.576,0.667323 -23.8406,0.9 -12.2634,0.231496 -23.5488,0.398031 -23.5488,-0.65315 0,-1.36181 6.57638,-3.34016 22.9039,-3.7689z"/>
    <path id="_60186368" class="fil8" d="M23.4083 43.8827c15.3413,-0.357874 24.1677,1.69252 24.2055,3.23031 0.0389764,1.18819 -11.5087,0.583465 -23.5913,0.777165 -12.0827,0.19252 -23.3492,0.322441 -23.3492,-0.570472 0,-1.24843 7.39252,-3.07913 22.735,-3.43701z"/>
    <path id="_64688120" class="fil9" d="M23.4602 44.2417c14.3575,-0.287008 23.8949,1.57087 23.9256,2.93622 0.0318898,0.973228 -11.4413,0.499606 -23.3433,0.654331 -11.8996,0.154724 -23.1484,0.248031 -23.1484,-0.486614 0,-1.13504 8.20866,-2.81811 22.5661,-3.10394z"/>
    <path id="_64786176" class="fil10" d="M23.5134 44.5996c13.3713,-0.21378 23.622,1.45039 23.6445,2.64449 0.023622,0.757087 -11.3752,0.415748 -23.0941,0.531496 -11.7189,0.115748 -22.9488,0.172441 -22.9488,-0.405118 0,-1.01929 9.02362,-2.55591 22.3984,-2.77087z"/>
    <path id="_104022496" class="fil11" d="M23.5654 44.9587c12.3874,-0.142913 23.3492,1.32992 23.3646,2.35157 0.0153543,0.540945 -11.3079,0.330709 -22.8461,0.408661 -11.537,0.0767717 -22.748,0.0968504 -22.748,-0.322441 0,-0.905906 9.83976,-2.29488 22.2295,-2.4378z"/>
    <path id="_64689536" class="fil12" d="M23.6185 45.3154c11.4024,-0.0708661 23.0764,1.20945 23.0835,2.05866 0.00826772,0.325984 -11.2417,0.248031 -22.5969,0.285827 -11.3551,0.0389764 -22.5484,0.0224409 -22.5484,-0.238583 0,-0.791339 10.6559,-2.03386 22.0618,-2.10591z"/>
   </g>
   <path id="_62709480" class="fil13" d="M23.6681 45.6768c10.4197,0 22.8047,1.0878 22.8047,1.76575 0,0.220866 -44.6976,0.212598 -44.6976,0.00708661 0,-0.677953 11.472,-1.77283 21.8929,-1.77283z"/>
  </g>
  <path class="fil14" d="M3.02953 5.76614l41.8736 0.0755906c1.46693,0 2.45079,0.688583 2.43071,2.39055l-0.0413386 3.22795 -46.4622 0 0 -3.22795c0,-1.35472 0.778346,-2.53819 2.19921,-2.46614z"/>
  <path class="fil15" d="M0.869291 7.84606c0.333071,-0.362598 0.509055,-0.91063 1.04291,-0.980315l0.367323 0.804331 -1.57205 1.95118 0.161811 -1.7752z"/>
  <path class="fil16" d="M3.16772 7.32047l41.7756 0c1.27795,0 2.32441,1.05118 2.32441,2.32441l0 34.5555c0,1.27559 -1.04764,2.32441 -2.32441,2.32441 -15.3083,0 -15.665,0 -41.7756,0 -1.27559,0 -2.32441,-1.04528 -2.32441,-2.32441l0 -34.5555c0,-1.27795 1.04646,-2.32441 2.32441,-2.32441z"/>
  <path class="fil17" d="M47.1177 20.674c-10.2484,3.15827 -34.6748,2.32913 -46.4232,1.70433l0 -12.8846c0,-1.27795 1.04528,-2.32323 2.32323,-2.32323l41.7756 0c1.27913,0 2.32441,1.05118 2.32441,2.32323l0 11.1803z"/>
  <path class="fil18" d="M2.90315 12.0331l0.115748 30.3071c0.0779528,0.985039 1.32165,1.70315 2.21102,1.69961l37.7776 -0.122835c1.28386,-0.0366142 1.87087,-0.897638 1.91457,-2.02795l-0.0389764 -29.7815c0,-1.19055 -0.709843,-1.84016 -1.9878,-1.84134l-37.9122 -0.0389764c-1.18937,-0.0011811 -2.07992,0.623622 -2.07992,1.80591z"/>
  <g id="_63057664">
   <g>
    <polygon id="_63593344" class="fil19" points="8.92205,13.0831 8.92205,41.0728 7.92047,41.0728 7.92047,13.0831 "/>
    <g>
     <polygon id="_63463832" class="fil20" points="16.9406,13.0831 16.9406,41.0728 15.939,41.0728 15.939,13.0831 "/>
     <polygon id="_60219256" class="fil20" points="24.9567,13.0831 24.9567,41.0728 23.9551,41.0728 23.9551,13.0831 "/>
     <polygon id="_103968040" class="fil20" points="32.9728,13.0831 32.9728,41.0728 31.9713,41.0728 31.9713,13.0831 "/>
    </g>
    <polygon id="_64682936" class="fil19" points="40.9902,13.0831 40.9902,41.0728 39.9886,41.0728 39.9886,13.0831 "/>
   </g>
   <g>
    <polygon id="_62805928" class="fil19" points="5.92323,37.9465 42.124,37.9465 42.124,38.948 5.92323,38.948 "/>
    <g>
     <polygon id="_103990640" class="fil20" points="5.92323,31.9713 42.124,31.9713 42.124,32.9728 5.92323,32.9728 "/>
     <polygon id="_60689808" class="fil20" points="5.92323,25.9972 42.124,25.9972 42.124,26.9988 5.92323,26.9988 "/>
     <polygon id="_57965744" class="fil20" points="5.92323,20.0244 42.124,20.0244 42.124,21.026 5.92323,21.026 "/>
    </g>
    <polygon id="_63463232" class="fil19" points="5.92323,14.0504 42.124,14.0504 42.124,15.052 5.92323,15.052 "/>
   </g>
  </g>
  <path class="fil21" d="M2.90315 12.0331l0.115748 30.3071c0.0779528,0.985039 1.32165,1.70315 2.21102,1.69961l37.7776 -0.122835c1.28386,-0.0366142 1.87087,-0.897638 1.91457,-2.02795l-0.0389764 -29.7815c0,-1.19055 -0.709843,-1.84016 -1.9878,-1.84134l-37.9122 -0.0389764c-1.18937,-0.0011811 -2.07992,0.623622 -2.07992,1.80591zm3.02008 1.05l36.2008 0 0 27.9898 -36.2008 0 0 -27.9898z"/>
  <path class="fil22" d="M44.6882 20.4106c-10.0358,2.43307 -29.726,1.86614 -40.7398,1.29803l0 -9.23976c-0.0011811,-1.18228 0.840945,-1.80709 1.98189,-1.80591l36.8622 0.0389764c1.2189,0.0011811 1.89567,0.651969 1.89567,1.84134l0 7.86732z"/>
  <path class="fil23" d="M2.95984 42.9791l-0.253937 0.276378m42.0201 -0.0295276l-0.283465 -0.250394"/>
  <polygon class="fil24" points="47.3114,10.7705 47.3114,43.2047 46.9417,43.2047 46.9417,10.7705 "/>
  <path class="fil25" d="M0.307087 10.1055c0,-0.72874 0.3,-1.39252 0.780709,-1.87323 0.479528,-0.479528 1.14449,-0.779528 1.87323,-0.779528l41.7744 0c0.72874,0 1.39252,0.3 1.87323,0.780709 0.480709,0.480709 0.780709,1.14685 0.780709,1.87205l-0.657874 0c0,-0.54685 -0.225591,-1.04646 -0.587008,-1.40669 -0.361417,-0.361417 -0.861024,-0.587008 -1.40906,-0.587008l-41.7744 0c-0.549213,0 -1.04882,0.225591 -1.40906,0.585827 -0.360236,0.360236 -0.585827,0.859843 -0.585827,1.40787l-0.659055 0z"/>
  <path class="fil26" d="M3.12992 6.90118l41.7744 0c0.774803,0 1.48228,0.320079 1.9937,0.831496 0.486614,0.486614 0.799606,1.15157 0.829134,1.87913l-1.00276 0c-0.0295276,-0.454724 -0.229134,-0.869291 -0.532677,-1.17283 -0.329528,-0.329528 -0.786614,-0.53622 -1.2874,-0.53622l-41.7744 0c-0.501969,0 -0.959055,0.205512 -1.28858,0.535039 -0.303543,0.303543 -0.501969,0.715748 -0.530315,1.17402l-1.00276 0c0.0295276,-0.732283 0.341339,-1.39488 0.826772,-1.88031 0.512598,-0.512598 1.21772,-0.830315 1.99488,-0.830315z"/>
  <polygon class="fil27" points="2.98465,12.5433 2.98465,43.4965 1.95354,43.4965 1.95354,12.5433 "/>
  <polygon class="fil27" points="46.0713,12.5433 46.0713,43.4965 45.0402,43.4965 45.0402,12.5433 "/>
  <path class="fil28" d="M47.2087 44.5972c-0.0708661,0.31063 -0.20315,0.597638 -0.385039,0.848031 -0.465354,0.336614 -1.03701,0.537402 -1.65,0.537402l-42.3201 -0.0614173c-0.581102,0 -1.12323,-0.178346 -1.57441,-0.484252 -0.177165,-0.248031 -0.308268,-0.532677 -0.377953,-0.839764l0.92126 0c0.294094,0.20315 0.649606,0.322441 1.0311,0.322441l42.3201 0.0614173c0.41811,0 0.805512,-0.144094 1.11496,-0.383858l0.920079 0z"/>
  <path class="fil29" d="M2.90551 4.88504l42.2291 0.0614173 0.0614173 0 0.00590551 0.0023622c0.826772,0.0106299 1.53307,0.225591 2.04331,0.687402 0.519685,0.470079 0.818504,1.17283 0.817323,2.14252l0.0023622 0 0 0.0566929 -0.0023622 0.00590551 -0.0401575 3.22795 -0.00708661 0.494882 -0.0165354 0 0 32.6232c0,0.773622 -0.320079,1.4811 -0.831496,1.9937l0 0.0011811c-0.511417,0.511417 -1.2189,0.831496 -1.9937,0.831496l-42.3201 -0.0614173c-0.774803,0 -1.48228,-0.320079 -1.9937,-0.831496l0 -0.0011811c-0.510236,-0.512598 -0.830315,-1.2189 -0.830315,-1.9937l0 -32.6232 -0.0141732 0 0 -0.500787 0 -3.22795 0.00590551 -0.158268c0,-0.683858 0.33189,-1.43504 0.80315,-1.92283 0.48189,-0.499606 1.15512,-0.810236 1.94646,-0.809055l0.011811 0 0.122835 0.00354331 0 -0.0023622zm42.2291 1.06299l-42.2291 -0.0614173 -0.011811 -0.0023622 -0.134646 -0.00354331c-0.497244,0.00354331 -0.918898,0.194882 -1.21654,0.504331 -0.308268,0.320079 -0.498425,0.770079 -0.524409,1.2685l-0.00354331 0.120472 0.0023622 0 0 2.72717 0.0141732 0 0 0.500787 0 33.124c0,0.501969 0.206693,0.961417 0.533858,1.28976l0.0011811 -0.0011811c0.329528,0.329528 0.786614,0.53622 1.2874,0.53622l42.3201 0.0614173c0.500787,0 0.957874,-0.206693 1.2874,-0.53622l0 0.0011811c0.329528,-0.330709 0.53622,-0.788976 0.53622,-1.28976l0 -33.124 0 -0.500787 0.034252 0 0.034252 -2.72717 -0.0023622 0 0 -0.0566929 0.0023622 0c0,-0.66378 -0.178346,-1.12205 -0.488976,-1.40315 -0.316535,-0.285827 -0.796063,-0.421654 -1.38071,-0.429921l0 0.0023622 -0.0614173 0z"/>
  <path class="fil30" d="M2.90315 12.0331l0.115748 30.3071c0.0779528,0.985039 1.32165,1.70315 2.21102,1.69961l37.7776 -0.122835c1.28386,-0.0366142 1.87087,-0.897638 1.91457,-2.02795l-0.0389764 -29.7815c0,-1.19055 -0.709843,-1.84016 -1.9878,-1.84134l-37.9122 -0.0389764c-1.18937,-0.0011811 -2.07992,0.623622 -2.07992,1.80591zm0.498425 0l0.115748 30.2681c0.023622,0.301181 0.232677,0.579921 0.512598,0.794882 0.362598,0.277559 0.826772,0.446457 1.19764,0.445276l0.0023622 0 37.7634 -0.122835c0.464173,-0.0129921 0.80315,-0.159449 1.0252,-0.395669 0.256299,-0.271654 0.387402,-0.679134 0.405118,-1.15157l-0.0389764 -29.7638 -0.0023622 0c0,-0.447638 -0.121654,-0.784252 -0.349606,-0.998031 -0.244488,-0.225591 -0.630709,-0.344882 -1.1374,-0.344882l-37.9122 -0.0389764 0 0.0023622 -0.00354331 0c-0.478346,0 -0.887008,0.11811 -1.16575,0.346063l-0.0023622 0c-0.253937,0.206693 -0.40748,0.529134 -0.40748,0.956693l0 0.0023622 -0.0023622 0z"/>
  <path class="fil31" d="M3.46417 43.2567c0.459449,0.483071 1.18701,0.785433 1.76575,0.783071l37.7776 -0.122835c0.712205,-0.0200787 1.20827,-0.294094 1.5189,-0.727559l-0.685039 -0.830315c-0.0437008,0.12874 -0.105118,0.238583 -0.185433,0.322441 -0.133465,0.141732 -0.356693,0.231496 -0.675591,0.239764l-37.7504 0.122835 -0.00354331 0c-0.266929,0.0011811 -0.612992,-0.12874 -0.892913,-0.343701 -0.069685,-0.0543307 -0.134646,-0.111024 -0.185433,-0.170079l-0.683858 0.726378zm39.5161 -0.335433l0.0271654 0"/>
  <path class="fil23" d="M3.64488 43.226l-0.249213 0.271654m41.3587 -0.0295276l-0.279921 -0.245669"/>
  <polygon class="fil32" points="5.92677,24.1087 7.92047,24.1087 10.8898,18.0591 11.8276,18.1524 16.2484,36.6484 19.6854,23.2583 19.7894,22.8898 20.1661,22.8898 41.7083,22.8898 41.7083,23.8913 20.5441,23.8913 16.6913,38.7661 15.7264,38.7496 11.1933,19.7823 8.69291,24.8185 8.55827,25.1102 8.23937,25.1102 5.92677,25.1102 "/>
  <polygon class="fil33" points="6.10984,34.0476 9.39567,34.0476 9.73228,34.0476 9.85866,34.363 10.702,36.4583 11.6409,30.3874 11.7071,29.9634 12.1335,29.9634 22.1693,29.9634 24.6012,13.4398 25.5921,13.4516 28.1173,34.0146 29.1094,28.4835 29.185,28.0724 29.5996,28.0724 33.7606,28.0724 36.4346,18.3319 37.389,18.4075 39.3756,28.011 42.124,28.011 42.124,29.0126 38.9705,29.0126 38.5654,29.0126 38.4815,28.6157 36.7583,20.2571 34.5673,28.7528 34.4421,29.074 34.102,29.074 30.013,29.074 28.5071,37.3819 27.5209,37.3524 25.0512,17.2488 23.0965,30.5362 23.0339,30.965 22.6016,30.965 12.5598,30.965 11.4094,38.4059 10.4539,38.5146 9.05906,35.0492 6.10984,35.0492 "/>
 </g>
</svg>
