<?xml version="1.0" encoding="UTF-8" standalone="no"?>
<!-- Creator: CorelDRAW -->

<svg
   xmlns:dc="http://purl.org/dc/elements/1.1/"
   xmlns:cc="http://creativecommons.org/ns#"
   xmlns:rdf="http://www.w3.org/1999/02/22-rdf-syntax-ns#"
   xmlns:svg="http://www.w3.org/2000/svg"
   xmlns="http://www.w3.org/2000/svg"
   xmlns:xlink="http://www.w3.org/1999/xlink"
   xmlns:sodipodi="http://sodipodi.sourceforge.net/DTD/sodipodi-0.dtd"
   xmlns:inkscape="http://www.inkscape.org/namespaces/inkscape"
   xml:space="preserve"
   width="48px"
   height="48px"
   style="shape-rendering:geometricPrecision; text-rendering:geometricPrecision; image-rendering:optimizeQuality; fill-rule:evenodd; clip-rule:evenodd"
   viewBox="0 0 48 48"
   id="svg4873"
   version="1.1"
   inkscape:version="0.48.1 r9760"
   sodipodi:docname="preferences-desktop-filetype-association.svg"><metadata
   id="metadata5134"><rdf:RDF><cc:Work
       rdf:about=""><dc:format>image/svg+xml</dc:format><dc:type
         rdf:resource="http://purl.org/dc/dcmitype/StillImage" /><dc:title></dc:title></cc:Work></rdf:RDF></metadata><sodipodi:namedview
   pagecolor="#ffffff"
   bordercolor="#666666"
   borderopacity="1"
   objecttolerance="10"
   gridtolerance="10"
   guidetolerance="10"
   inkscape:pageopacity="0"
   inkscape:pageshadow="2"
   inkscape:window-width="646"
   inkscape:window-height="480"
   id="namedview5132"
   showgrid="false"
   inkscape:zoom="5.5416667"
   inkscape:cx="24"
   inkscape:cy="24"
   inkscape:window-x="0"
   inkscape:window-y="24"
   inkscape:window-maximized="0"
   inkscape:current-layer="svg4873" />
 <defs
   id="defs4875">
  <style
   type="text/css"
   id="style4877">
   
    .fil31 {fill:none}
    .fil49 {fill:#538CBA}
    .fil57 {fill:#5A93C4}
    .fil53 {fill:#73AEE4}
    .fil52 {fill:#82BDF0}
    .fil40 {fill:#91CAFA}
    .fil60 {fill:#A3D6FF}
    .fil72 {fill:#DCF995}
    .fil34 {fill:white}
    .fil30 {fill:#BFBFBF}
    .fil51 {fill:#CBCBCB}
    .fil38 {fill:white;fill-rule:nonzero}
    .fil47 {fill:#4F7FB3;fill-rule:nonzero}
    .fil59 {fill:#5481A8;fill-rule:nonzero}
    .fil43 {fill:#77B6EA;fill-rule:nonzero}
    .fil62 {fill:#88A640;fill-rule:nonzero}
    .fil28 {fill:#BFBFBF;fill-rule:nonzero}
    .fil27 {fill:#CCCCCC;fill-rule:nonzero}
    .fil56 {fill:white;fill-rule:nonzero}
    .fil29 {fill:#C9C9C9;fill-rule:nonzero}
    .fil50 {fill:#CBCBCB;fill-rule:nonzero}
    .fil0 {fill:black;fill-opacity:0.000000}
    .fil14 {fill:#333333;fill-opacity:0.000000}
    .fil35 {fill:#759145;fill-opacity:0.000000}
    .fil1 {fill:black;fill-opacity:0.003922}
    .fil2 {fill:black;fill-opacity:0.007843}
    .fil15 {fill:#333333;fill-opacity:0.011765}
    .fil3 {fill:black;fill-opacity:0.015686}
    .fil4 {fill:black;fill-opacity:0.019608}
    .fil5 {fill:black;fill-opacity:0.023529}
    .fil64 {fill:#DCF995;fill-opacity:0.023529}
    .fil16 {fill:#333333;fill-opacity:0.027451}
    .fil6 {fill:black;fill-opacity:0.027451}
    .fil7 {fill:black;fill-opacity:0.031373}
    .fil8 {fill:black;fill-opacity:0.035294}
    .fil17 {fill:#333333;fill-opacity:0.039216}
    .fil9 {fill:black;fill-opacity:0.043137}
    .fil10 {fill:black;fill-opacity:0.047059}
    .fil65 {fill:#DCF995;fill-opacity:0.047059}
    .fil11 {fill:black;fill-opacity:0.050980}
    .fil18 {fill:#333333;fill-opacity:0.054902}
    .fil12 {fill:black;fill-opacity:0.054902}
    .fil13 {fill:black;fill-opacity:0.058824}
    .fil19 {fill:#333333;fill-opacity:0.066667}
    .fil66 {fill:#DCF995;fill-opacity:0.074510}
    .fil20 {fill:#333333;fill-opacity:0.078431}
    .fil21 {fill:#333333;fill-opacity:0.094118}
    .fil67 {fill:#DCF995;fill-opacity:0.098039}
    .fil22 {fill:#333333;fill-opacity:0.105882}
    .fil23 {fill:#333333;fill-opacity:0.121569}
    .fil68 {fill:#DCF995;fill-opacity:0.121569}
    .fil69 {fill:#DCF995;fill-opacity:0.145098}
    .fil70 {fill:#DCF995;fill-opacity:0.172549}
    .fil71 {fill:#DCF995;fill-opacity:0.196078}
    .fil46 {fill:#191919;fill-rule:nonzero;fill-opacity:0.219608}
    .fil45 {fill:#ABD9FF;fill-rule:nonzero;fill-opacity:0.219608}
    .fil61 {fill:black;fill-opacity:0.321569}
    .fil54 {fill:#4C4C4C;fill-opacity:0.321569}
    .fil39 {fill:#A4A5A7;fill-opacity:0.439216}
    .fil32 {fill:#CCCCCC;fill-opacity:0.439216}
    .fil24 {fill:url(#id0)}
    .fil42 {fill:url(#id1)}
    .fil41 {fill:url(#id2)}
    .fil26 {fill:url(#id3)}
    .fil55 {fill:url(#id4)}
    .fil48 {fill:url(#id5)}
    .fil63 {fill:url(#id6)}
    .fil58 {fill:url(#id7)}
    .fil36 {fill:url(#id8);fill-rule:nonzero}
    .fil37 {fill:url(#id9);fill-rule:nonzero}
    .fil44 {fill:url(#id10);fill-rule:nonzero}
    .fil33 {fill:url(#id11);fill-rule:nonzero}
    .fil25 {fill:url(#id12);fill-rule:nonzero}
   
  </style>
  <linearGradient
   id="id0"
   gradientUnits="userSpaceOnUse"
   x1="23.4591"
   y1="3.02835"
   x2="22.4457"
   y2="46.1173">
   <stop
   offset="0"
   style="stop-color:#EDEDED"
   id="stop4880" />
   <stop
   offset="1"
   style="stop-color:#D1CFCF"
   id="stop4882" />
  </linearGradient>
  <linearGradient
   id="id1"
   gradientUnits="userSpaceOnUse"
   x1="23.1602"
   y1="3.03189"
   x2="23.1602"
   y2="10.6382">
   <stop
   offset="0"
   style="stop-color:#7BBDF2"
   id="stop4885" />
   <stop
   offset="1"
   style="stop-color:#5C96D2"
   id="stop4887" />
  </linearGradient>
  <linearGradient
   id="id2"
   gradientUnits="userSpaceOnUse"
   x1="2.06457"
   y1="2.02795"
   x2="2.06457"
   y2="6.27047">
   <stop
   offset="0"
   style="stop-color:#6FAFE4"
   id="stop4890" />
   <stop
   offset="1"
   style="stop-color:#528BC7"
   id="stop4892" />
  </linearGradient>
  <linearGradient
   id="id3"
   gradientUnits="userSpaceOnUse"
   x1="22.7303"
   y1="11.139"
   x2="23.2972"
   y2="41.7154">
   <stop
   offset="0"
   style="stop-color:white"
   id="stop4895" />
   <stop
   offset="1"
   style="stop-color:#DEDEDE"
   id="stop4897" />
  </linearGradient>
  <linearGradient
   id="id4"
   gradientUnits="userSpaceOnUse"
   x1="34.6441"
   y1="45.3094"
   x2="34.6441"
   y2="20.5819">
   <stop
   offset="0"
   style="stop-color:#6CADE6"
   id="stop4900" />
   <stop
   offset="1"
   style="stop-color:#85C2F5"
   id="stop4902" />
  </linearGradient>
  <linearGradient
   id="id5"
   gradientUnits="userSpaceOnUse"
   x1="22.9689"
   y1="9.71693"
   x2="23.087"
   y2="2.19567">
   <stop
   offset="0"
   style="stop-color:#4E87B4"
   id="stop4905" />
   <stop
   offset="1"
   style="stop-color:#66A1D1"
   id="stop4907" />
  </linearGradient>
  <linearGradient
   id="id6"
   gradientUnits="userSpaceOnUse"
   x1="14.7602"
   y1="33.0886"
   x2="33.0886"
   y2="37.0287">
   <stop
   offset="0"
   style="stop-color:#91B837"
   id="stop4910" />
   <stop
   offset="0.580392"
   style="stop-color:#B7DD5F"
   id="stop4912" />
   <stop
   offset="1"
   style="stop-color:#A8CE52"
   id="stop4914" />
  </linearGradient>
  <linearGradient
   id="id7"
   gradientUnits="userSpaceOnUse"
   x1="45.939"
   y1="20.9504"
   x2="42.7665"
   y2="22.3157">
   <stop
   offset="0"
   style="stop-color:#BCE6FF"
   id="stop4917" />
   <stop
   offset="1"
   style="stop-color:#BBE6FF"
   id="stop4919" />
  </linearGradient>
  <linearGradient
   id="id8"
   gradientUnits="userSpaceOnUse"
   x1="9.33189"
   y1="7.65591"
   x2="9.29173"
   y2="5.29016">
   <stop
   offset="0"
   style="stop-color:#7F7F7F"
   id="stop4922" />
   <stop
   offset="1"
   style="stop-color:#999999"
   id="stop4924" />
  </linearGradient>
  <linearGradient
   id="id9"
   gradientUnits="userSpaceOnUse"
   xlink:href="#id8"
   x1="9.58937"
   y1="7.59094"
   x2="9.54803"
   y2="5.22638">
  </linearGradient>
  <linearGradient
   id="id10"
   gradientUnits="userSpaceOnUse"
   xlink:href="#id7"
   x1="8.39764"
   y1="4.88031"
   x2="37.6819"
   y2="4.06063">
  </linearGradient>
  <linearGradient
   id="id11"
   gradientUnits="userSpaceOnUse"
   x1="23.8217"
   y1="36.848"
   x2="22.2059"
   y2="10.1811">
   <stop
   offset="0"
   style="stop-color:#919191"
   id="stop4929" />
   <stop
   offset="1"
   style="stop-color:#B2B2B2"
   id="stop4931" />
  </linearGradient>
  <linearGradient
   id="id12"
   gradientUnits="userSpaceOnUse"
   xlink:href="#id11"
   x1="23.7165"
   y1="37.1161"
   x2="22.2047"
   y2="15.9154">
  </linearGradient>
 </defs>
 <g
   id="Слой_x0020_1">
  <metadata
   id="CorelCorpID_0Corel-Layer" />
  <g
   id="_110315984">
   <path
   id="_307867240"
   class="fil0"
   d="M22.5283 39.9449c23.2181,-0.930709 26.3504,2.65866 26.4508,5.57126 0.101575,2.91378 -12.0449,1.25669 -25.5815,1.75984 -13.5366,0.501969 -24.952,0.925984 -24.952,-1.23307 0,-2.16024 0.864567,-5.16732 24.0827,-6.09803z" />
   <g
   id="g4938">
    <path
   id="_307856920"
   class="fil1"
   d="M22.5827 40.3039c22.2331,-0.859843 26.0764,2.53701 26.1697,5.27835 0.0933071,2.69764 -11.9776,1.17165 -25.3323,1.63701 -13.3547,0.462992 -24.7512,0.850394 -24.7512,-1.15039 0,-2.04685 1.68071,-4.9063 23.9138,-5.76496z" />
    <path
   id="_307862776"
   class="fil2"
   d="M22.6358 40.6606c21.248,-0.787795 25.8035,2.41654 25.8886,4.98543 0.0862205,2.48268 -11.9114,1.08898 -25.0831,1.51417 -13.1728,0.425197 -24.5516,0.775984 -24.5516,-1.06654 0,-1.93228 2.49685,-4.64528 23.7461,-5.43307z" />
    <path
   id="_307851040"
   class="fil3"
   d="M22.6878 41.0197c20.2642,-0.716929 25.5307,2.29606 25.6087,4.69252 0.0779528,2.26654 -11.8441,1.00394 -24.835,1.39134 -12.9909,0.38622 -24.3508,0.700394 -24.3508,-0.983858 0,-1.8189 3.31299,-4.38425 23.5772,-5.1z" />
    <path
   id="_307865104"
   class="fil4"
   d="M22.7409 41.3776c19.278,-0.643701 25.2579,2.17559 25.3276,4.40079 0.069685,2.05039 -11.778,0.920079 -24.5858,1.2685 -12.8102,0.347244 -24.1512,0.624803 -24.1512,-0.902362 0,-1.70315 4.12795,-4.12205 23.4094,-4.76693z" />
    <path
   id="_307850728"
   class="fil5"
   d="M22.7929 41.7366c18.2941,-0.572835 24.985,2.05394 25.0476,4.10669 0.0625984,1.83543 -11.7106,0.83622 -24.3378,1.14567 -12.6272,0.309449 -23.9504,0.550394 -23.9504,-0.818504 0,-1.58976 4.94409,-3.86102 23.2406,-4.43386z" />
    <path
   id="_307871488"
   class="fil6"
   d="M22.8449 42.0945c17.3102,-0.500787 24.7134,1.93346 24.7677,3.81496 0.0543307,1.61929 -11.6433,0.752362 -24.0886,1.02283 -12.4465,0.270472 -23.7508,0.474803 -23.7508,-0.735827 0,-1.47638 5.76024,-3.6 23.0717,-4.10197z" />
    <path
   id="_307859128"
   class="fil7"
   d="M22.898 42.4535c16.3252,-0.429921 24.4394,1.81299 24.4854,3.52205 0.0472441,1.40433 -11.576,0.667323 -23.8406,0.9 -12.2634,0.231496 -23.5488,0.398031 -23.5488,-0.65315 0,-1.36181 6.57638,-3.34016 22.9039,-3.7689z" />
    <path
   id="_307853224"
   class="fil8"
   d="M22.95 42.8114c15.3413,-0.357874 24.1677,1.69252 24.2055,3.23031 0.0389764,1.18819 -11.5087,0.583465 -23.5913,0.777165 -12.0827,0.19252 -23.3492,0.322441 -23.3492,-0.570472 0,-1.24843 7.39252,-3.07913 22.735,-3.43701z" />
    <path
   id="_307851400"
   class="fil9"
   d="M23.002 43.1705c14.3575,-0.287008 23.8949,1.57087 23.9256,2.93622 0.0318898,0.973228 -11.4413,0.499606 -23.3433,0.654331 -11.8996,0.154724 -23.1484,0.248031 -23.1484,-0.486614 0,-1.13504 8.20866,-2.81811 22.5661,-3.10394z" />
   </g>
  </g>
  <g
   id="_310712088">
   <path
   id="_310714128"
   class="fil0"
   d="M31.6028 43.9087c13.9476,-0.54685 15.8291,1.55906 15.8894,3.26811 0.0602362,1.70906 -7.23543,0.737008 -15.3673,1.03228 -8.13189,0.294094 -14.9894,0.543307 -14.9894,-0.724016 0,-1.26614 0.519685,-3.03071 14.4673,-3.57638z" />
   <g
   id="g4951">
    <path
   id="_310713408"
   class="fil1"
   d="M31.6346 44.1189c13.3559,-0.504331 15.665,1.48819 15.7217,3.09567 0.0555118,1.58268 -7.19528,0.687402 -15.2185,0.961417 -8.02205,0.271654 -14.8677,0.498425 -14.8677,-0.675591 0,-1.2 1.00866,-2.87835 14.3646,-3.3815z" />
    <path
   id="_310713096"
   class="fil2"
   d="M31.6665 44.328c12.7642,-0.461811 15.5008,1.41732 15.5528,2.92441 0.0519685,1.4563 -7.1563,0.638976 -15.0685,0.888189 -7.91339,0.249213 -14.7484,0.455906 -14.7484,-0.624803 0,-1.13386 1.5,-2.72598 14.2642,-3.1878z" />
    <path
   id="_310713192"
   class="fil3"
   d="M31.6984 44.5382c12.1736,-0.420472 15.3366,1.34764 15.3839,2.75315 0.046063,1.32992 -7.11496,0.58937 -14.9197,0.816142 -7.80354,0.226772 -14.628,0.411024 -14.628,-0.577559 0,-1.06654 1.99016,-2.57126 14.1638,-2.99173z" />
    <path
   id="_310712904"
   class="fil4"
   d="M31.7303 44.7484c11.5807,-0.377953 15.1724,1.27677 15.215,2.58189 0.0413386,1.20236 -7.07598,0.539764 -14.7697,0.744094 -7.69488,0.20315 -14.5075,0.366142 -14.5075,-0.529134 0,-0.999213 2.47913,-2.4189 14.0622,-2.79685z" />
    <path
   id="_310713024"
   class="fil5"
   d="M31.761 44.9587c10.9902,-0.335433 15.0094,1.20591 15.0472,2.40945 0.0377953,1.07717 -7.03465,0.491339 -14.6209,0.672047 -7.58504,0.18189 -14.387,0.323622 -14.387,-0.479528 0,-0.933071 2.97047,-2.26535 13.9606,-2.60197z" />
    <path
   id="_310713456"
   class="fil6"
   d="M31.7929 45.1689c10.3984,-0.294094 14.8453,1.13386 14.8783,2.23819 0.0330709,0.949606 -6.99449,0.441732 -14.4709,0.6 -7.47638,0.158268 -14.2677,0.27874 -14.2677,-0.431102 0,-0.866929 3.46063,-2.11299 13.8602,-2.40709z" />
    <path
   id="_310711920"
   class="fil7"
   d="M31.8248 45.3791c9.80669,-0.251575 14.6811,1.06417 14.7083,2.06693 0.0283465,0.823228 -6.95315,0.390945 -14.3209,0.527953 -7.36772,0.135827 -14.1461,0.233858 -14.1461,-0.383858 0,-0.798425 3.94961,-1.95945 13.7587,-2.21102z" />
    <path
   id="_310713144"
   class="fil8"
   d="M31.8555 45.5894c9.21614,-0.210236 14.5181,0.993307 14.5406,1.89567 0.023622,0.69685 -6.91299,0.34252 -14.1709,0.455906 -7.25906,0.112205 -14.0268,0.188976 -14.0268,-0.335433 0,-0.732283 4.44094,-1.80591 13.6571,-2.01614z" />
    <path
   id="_310712136"
   class="fil9"
   d="M31.8874 45.8008c8.62441,-0.168898 14.3539,0.92126 14.3728,1.72205 0.0188976,0.570472 -6.87402,0.292913 -14.0232,0.383858 -7.14803,0.0909449 -13.9063,0.145276 -13.9063,-0.285827 0,-0.666142 4.9311,-1.65354 13.5567,-1.82008z" />
    <path
   id="_310712304"
   class="fil10"
   d="M31.9193 46.0098c8.0315,-0.125197 14.1898,0.851575 14.2039,1.55197 0.0141732,0.444094 -6.83386,0.243307 -13.8732,0.311811 -7.04055,0.0673228 -13.7858,0.100394 -13.7858,-0.237402 0,-0.598819 5.42008,-1.5 13.4551,-1.62638z" />
    <path
   id="_310713984"
   class="fil11"
   d="M31.95 46.2213c7.44213,-0.0838583 14.0268,0.779528 14.0362,1.37953 0.00826772,0.316535 -6.7937,0.193701 -13.7244,0.239764 -6.93071,0.0448819 -13.6654,0.0566929 -13.6654,-0.188976 0,-0.531496 5.91142,-1.34646 13.3535,-1.43031z" />
    <path
   id="_310712976"
   class="fil12"
   d="M31.9819 46.4303c6.85039,-0.0413386 13.8626,0.709843 13.8673,1.20709 0.00472441,0.191339 -6.75354,0.146457 -13.5744,0.167717 -6.82205,0.023622 -13.5461,0.0129921 -13.5461,-0.13937 0,-0.464173 6.40157,-1.19291 13.2531,-1.23543z" />
   </g>
   <path
   id="_310713840"
   class="fil13"
   d="M32.0114 46.6429c6.25984,0 13.6996,0.637795 13.6996,1.03465 0,0.129921 -26.8512,0.125197 -26.8512,0.00472441 0,-0.398031 6.89173,-1.03937 13.1516,-1.03937z" />
  </g>
  <g
   id="_310693416">
   <path
   id="_310714080"
   class="fil14"
   d="M34.9004 46.2035c-18.5622,0.0212598 -11.7142,1.64173 -11.7142,2.08465 0,0.0980315 -0.0755906,0.21378 -0.0519685,0.335433l26.4248 0c0.0200787,-0.0283465 0.0318898,-0.0566929 0.0318898,-0.0838583 0,-0.442913 3.87165,-2.3563 -14.6906,-2.33622z" />
   <g
   id="g4968">
    <path
   id="_310706496"
   class="fil15"
   d="M34.2366 46.3181c-16.6429,0.0177165 -10.6902,1.49409 -10.6902,1.90748 0,0.116929 -0.100394,0.255118 0.0354331,0.398031l23.8311 0c0.111024,-0.0590551 0.158268,-0.115748 0.158268,-0.173622 0,-0.413386 3.30945,-2.14843 -13.3346,-2.13189z" />
    <path
   id="_310706976"
   class="fil16"
   d="M33.5764 46.4339c-14.726,0.0165354 -9.6685,1.34764 -9.6685,1.7315 0,0.131102 -0.125197,0.297638 0.245669,0.458268l20.9362 0c0.336614,-0.0862205 0.461811,-0.177165 0.461811,-0.262205 0,-0.38622 2.74843,-1.94173 -11.9752,-1.92756z" />
    <path
   id="_310705680"
   class="fil17"
   d="M32.9114 46.5508c-12.8055,0.0129921 -8.64449,1.19528 -8.64449,1.55433 0,0.147638 -0.140551,0.349606 0.737008,0.518504l17.3965 0c0.843307,-0.111024 1.12913,-0.235039 1.12913,-0.351969 0,-0.356693 2.1874,-1.73386 -10.6181,-1.72087z" />
    <path
   id="_310707816"
   class="fil18"
   d="M32.2488 46.6665c-10.8862,0.011811 -7.62047,1.04882 -7.62047,1.37835 0,0.17126 -0.126378,0.42874 2.02323,0.57874l12.0425 0c2.15433,-0.113386 2.81575,-0.285827 2.81575,-0.440551 0,-0.328346 1.62638,-1.52598 -9.26102,-1.51654z" />
    <path
   id="_310704264"
   class="fil19"
   d="M31.5874 46.7823c-8.96811,0.0106299 -6.59882,0.9 -6.59882,1.2 0,0.21378 0.0153543,0.576378 6.38976,0.576378 6.37441,0 8.11063,-0.250394 8.11063,-0.462992 0,-0.3 1.06535,-1.32283 -7.90157,-1.31339z" />
    <path
   id="_310698264"
   class="fil20"
   d="M30.9248 46.8992c-7.05,0.00590551 -5.57362,0.752362 -5.57362,1.02283 0,0.167717 0.32126,0.444094 5.41417,0.442913 5.09173,0 6.70394,-0.191339 6.70394,-0.357874 0,-0.271654 0.504331,-1.11614 -6.54449,-1.10787z" />
    <path
   id="_310687440"
   class="fil21"
   d="M30.2598 47.015c-5.12953,0.00472441 -4.55197,0.602362 -4.55197,0.845669 0,0.122835 0.63189,0.311811 4.43976,0.309449 3.81024,0 5.29961,-0.132283 5.29961,-0.252756 0,-0.243307 -0.0566929,-0.907087 -5.1874,-0.902362z" />
    <path
   id="_310688016"
   class="fil22"
   d="M29.5972 47.1319c-3.21142,0.0011811 -3.52795,0.454724 -3.52795,0.668504 0,0.0767717 0.936614,0.178346 3.46535,0.177165 2.52638,0 3.89291,-0.0744094 3.89291,-0.148819 0,-0.214961 -0.618898,-0.700394 -3.83031,-0.69685z" />
   </g>
   <path
   id="_310695960"
   class="fil23"
   d="M28.9358 47.2476c-1.29213,0 -2.50512,0.307087 -2.50512,0.493701 0,0.0614173 4.97835,0.0555118 4.97835,0 0,-0.186614 -1.1811,-0.493701 -2.47323,-0.493701z" />
  </g>
  <path
   class="fil24"
   d="M3.16772 3.53976l39.7228 0c1.27795,0 2.32795,1.05591 2.32441,2.32441l-0.152362 37.4173c-0.00354331,1.27087 -1.04764,2.32441 -2.32441,2.32441 -15.3083,0 -13.6122,0 -39.7228,0 -1.27559,0 -2.32913,-1.04528 -2.32441,-2.32441l0.152362 -37.4173c0.00472441,-1.27795 1.04646,-2.32441 2.32441,-2.32441z"
   id="path4979" />
  <path
   class="fil25"
   d="M3.89882 11.8299l0.115748 29.4366c0.0106299,0.144094 0.142913,0.302362 0.318898,0.438189 0.279921,0.214961 0.625984,0.344882 0.892913,0.343701l0.00354331 0 35.85 -0.199606c0.318898,-0.00826772 0.542126,-0.0980315 0.675591,-0.239764 0.170079,-0.179528 0.25748,-0.474803 0.270472,-0.826772l-0.0389764 -28.9547 -0.00354331 0c0,-0.301181 -0.0661417,-0.514961 -0.188976,-0.63189l0 0.0011811c-0.151181,-0.13937 -0.424016,-0.214961 -0.799606,-0.214961l-36.0118 0.0377953 0 0.00354331 -0.00354331 0c-0.36378,0 -0.662598,0.0791339 -0.851575,0.231496l0.0023622 0.0023622c-0.140551,0.115748 -0.227953,0.307087 -0.227953,0.570472l0 0.0023622 -0.00354331 0zm-1.87559 29.5146l-0.115748 -29.5146 -0.00354331 0 0 -0.0023622c0,-0.914173 0.362598,-1.62874 0.960236,-2.11772l0.00472441 0c0.553937,-0.452362 1.29331,-0.685039 2.11063,-0.685039l0.00354331 0 0 0.00354331 36.0118 -0.0377953c0.9,0.0011811 1.62874,0.255118 2.15079,0.737008l0.00354331 0.00472441c0.543307,0.505512 0.832677,1.21299 0.832677,2.09528l-0.00354331 0 0.0389764 28.989 0 0.0354331c-0.0307087,0.829134 -0.290551,1.57559 -0.809055,2.1248 -0.488976,0.518504 -1.17638,0.837402 -2.07402,0.863386l-0.0271654 0 -35.8736 0.199606 -0.00354331 0c-0.682677,0.0011811 -1.49764,-0.282283 -2.10827,-0.75 -0.592913,-0.455906 -1.03701,-1.10079 -1.09843,-1.86732l0 -0.0779528zm39.0567 0.504331l0.0271654 0"
   id="path4981" />
  <path
   class="fil26"
   d="M2.92913 11.8039l0.0897638 29.5406c0.0779528,0.985039 1.32165,1.70315 2.21102,1.69961l35.9539 -0.35315c1.28386,-0.0366142 1.87087,-0.897638 1.91457,-2.02795l-0.0129921 -29.015c0,-1.19055 -0.709843,-1.84016 -1.9878,-1.84134l-36.0886 0.191339c-1.18701,0.00590551 -2.0811,0.318898 -2.07992,1.80591z"
   id="path4983" />
  <path
   class="fil27"
   d="M43.4457 10.8886l-40.4457 0c0.355512,-0.806693 1.01339,-1.02283 1.80354,-1.02047l37.024 0.0602362c0.737008,0.0011811 1.28386,0.33189 1.61811,0.960236z"
   id="path4985" />
  <polygon
   class="fil28"
   points="31.6701,16.0783 38.9988,16.0783 38.9988,17.0799 31.6701,17.0799 "
   id="polygon4987" />
  <polygon
   class="fil28"
   points="26.876,16.0783 30.7689,16.0783 30.7689,17.0799 26.876,17.0799 "
   id="polygon4989" />
  <polygon
   class="fil28"
   points="17.9398,16.0783 25.6724,16.0783 25.6724,17.0799 17.9398,17.0799 "
   id="polygon4991" />
  <polygon
   class="fil28"
   points="17.9398,14.113 27.6957,14.113 27.6957,15.1146 17.9398,15.1146 "
   id="polygon4993" />
  <polygon
   class="fil28"
   points="31.6701,18.0957 38.9988,18.0957 38.9988,19.0972 31.6701,19.0972 "
   id="polygon4995" />
  <polygon
   class="fil28"
   points="33.235,24.887 39.2504,24.887 39.2504,25.8886 33.235,25.8886 "
   id="polygon4997" />
  <polygon
   class="fil28"
   points="25.6441,24.887 32.0339,24.887 32.0339,25.8886 25.6441,25.8886 "
   id="polygon4999" />
  <polygon
   class="fil28"
   points="31.9217,26.9043 39.2504,26.9043 39.2504,27.9059 31.9217,27.9059 "
   id="polygon5001" />
  <g
   id="_310709304">
   <polygon
   id="_310688232"
   class="fil29"
   points="17.9398,24.887 24.7429,24.887 24.7429,25.8886 17.9398,25.8886 " />
   <polygon
   id="_310687176"
   class="fil29"
   points="17.9398,22.9217 27.9472,22.9217 27.9472,23.9232 17.9398,23.9232 " />
   <polygon
   id="_310709352"
   class="fil29"
   points="17.9398,26.9043 31.0205,26.9043 31.0205,27.9059 17.9398,27.9059 " />
  </g>
  <polygon
   class="fil28"
   points="33.9555,34.9795 41.3823,34.9819 41.3823,35.9941 33.9555,35.9917 "
   id="polygon5007" />
  <polygon
   class="fil28"
   points="35.4909,34.9795 34.2709,34.9795 34.2709,35.9917 35.4909,35.9917 "
   id="polygon5009" />
  <polygon
   class="fil28"
   points="17.9398,34.9795 34.2744,34.9795 34.2744,35.9917 17.9398,35.9917 "
   id="polygon5011" />
  <polygon
   class="fil28"
   points="17.9398,32.9917 24.8232,32.9917 24.8232,34.0051 17.9398,34.0051 "
   id="polygon5013" />
  <polygon
   class="fil28"
   points="33.1051,37.0701 41.3823,37.0984 41.3823,38.1106 33.1051,38.0835 "
   id="polygon5015" />
  <polygon
   class="fil28"
   points="22.9252,37.0193 32.1933,37.0701 32.1933,38.0835 22.9252,38.0315 "
   id="polygon5017" />
  <polygon
   class="fil28"
   points="17.9398,37.0193 21.8008,37.0193 21.8008,38.0315 17.9398,38.0315 "
   id="polygon5019" />
  <polygon
   class="fil28"
   points="17.9398,18.0957 30.7689,18.0957 30.7689,19.0972 17.9398,19.0972 "
   id="polygon5021" />
  <path
   class="fil30"
   d="M3.40276 42.2669c0.459449,0.483071 1.18701,0.785433 1.76575,0.783071l35.7248 -0.122835c0.712205,-0.0200787 1.20827,-0.294094 1.5189,-0.727559l-0.685039 -0.830315c-0.0437008,0.12874 -0.105118,0.238583 -0.185433,0.322441 -0.133465,0.141732 -0.356693,0.231496 -0.675591,0.239764l-35.6976 0.122835 -0.00354331 0c-0.266929,0.0011811 -0.612992,-0.12874 -0.892913,-0.343701 -0.069685,-0.0543307 -0.134646,-0.111024 -0.185433,-0.170079l-0.683858 0.726378zm37.4634 -0.335433l0.0271654 0"
   id="path5023" />
  <path
   class="fil31"
   d="M2.95984 42.9791l-0.253937 0.276378m42.0201 -0.0295276l-0.283465 -0.250394"
   id="path5025" />
  <path
   class="fil32"
   d="M46.148 43.6016c-0.0708661,0.31063 -0.20315,0.597638 -0.385039,0.848031 -0.465354,0.336614 -1.03701,0.537402 -1.65,0.537402l-41.2594 -0.0614173c-0.581102,0 -1.12323,-0.178346 -1.57441,-0.484252 -0.177165,-0.248031 -0.308268,-0.532677 -0.377953,-0.839764l0.92126 0c0.294094,0.20315 0.649606,0.322441 1.0311,0.322441l41.2594 0.0614173c0.41811,0 0.805512,-0.144094 1.11496,-0.383858l0.920079 0z"
   id="path5027" />
  <path
   class="fil33"
   d="M2.90551 1.01339l40.1764 0.0614173 0.0614173 0 0.00590551 0.0023622c0.826772,0.0106299 1.53307,0.225591 2.04331,0.687402 0.519685,0.470079 0.818504,1.17283 0.817323,2.14252l0.0023622 0 0 0.0566929 -0.0023622 0.00590551 -0.0401575 3.22795 -0.00708661 0.494882 -0.0165354 0 0 35.4992c0,0.773622 -0.320079,1.4811 -0.831496,1.9937l0 0.0011811c-0.511417,0.511417 -1.2189,0.831496 -1.9937,0.831496l-40.2673 -0.0614173c-0.774803,0 -1.48228,-0.320079 -1.9937,-0.831496l0 -0.0011811c-0.510236,-0.512598 -0.830315,-1.2189 -0.830315,-1.9937l0 -35.4992 -0.0141732 0 0 -0.500787 0 -3.22795 0.00590551 -0.158268c0,-0.683858 0.33189,-1.43504 0.80315,-1.92283 0.48189,-0.499606 1.15512,-0.810236 1.94646,-0.809055l0.011811 0 0.122835 0.00354331 0 -0.0023622zm40.1764 1.06299l-40.1764 -0.0614173 -0.011811 -0.0023622 -0.134646 -0.00354331c-0.497244,0.00354331 -0.918898,0.194882 -1.21654,0.504331 -0.308268,0.320079 -0.498425,0.770079 -0.524409,1.2685l-0.00354331 0.120472 0.0023622 0 0 2.72717 0.0141732 0 0 0.500787 0 36c0,0.501969 0.206693,0.961417 0.533858,1.28976l0.0011811 -0.0011811c0.329528,0.329528 0.786614,0.53622 1.2874,0.53622l40.2673 0.0614173c0.500787,0 0.957874,-0.206693 1.2874,-0.53622l0 0.0011811c0.329528,-0.330709 0.53622,-0.788976 0.53622,-1.28976l0 -36 0 -0.500787 0.034252 0 0.034252 -2.72717 -0.0023622 0 0 -0.0566929 0.0023622 0c0,-0.66378 -0.178346,-1.12205 -0.488976,-1.40315 -0.316535,-0.285827 -0.796063,-0.421654 -1.38071,-0.429921l0 0.0023622 -0.0614173 0z"
   id="path5029" />
  <path
   class="fil34"
   d="M3.52441 43.2425c0.459449,0.483071 1.18701,0.785433 1.76575,0.783071l35.7248 -0.122835c0.712205,-0.0200787 1.20827,-0.294094 1.5189,-0.727559l-0.685039 -0.830315c-0.0437008,0.12874 -0.105118,0.238583 -0.185433,0.322441 -0.133465,0.141732 -0.356693,0.231496 -0.675591,0.239764l-35.6976 0.122835 -0.00354331 0c-0.266929,0.0011811 -0.612992,-0.12874 -0.892913,-0.343701 -0.069685,-0.0543307 -0.134646,-0.111024 -0.185433,-0.170079l-0.683858 0.726378zm37.4634 -0.335433l0.0271654 0"
   id="path5031" />
  <path
   class="fil31"
   d="M3.64488 43.226l-0.249213 0.271654m41.3587 -0.0295276l-0.279921 -0.245669"
   id="path5033" />
  <path
   class="fil35"
   d="M8.72717 16.6878c-0.291732,0.291732 -1.01811,-0.092126 -1.30984,0.199606 -0.132283,0.132283 0.168898,0.94252 0.0354331,1.0748 -0.0590551,0.0519685 -0.046063,0.103937 0.0011811,0.155906 1.34291,1.50827 2.31969,3.01654 3.6626,4.5248 0.0354331,0.0295276 0.435827,0.0283465 0.470079,-0.00354331 1.97244,-3.02835 3.6,-6.08268 5.57244,-9.1122 0.0413386,-0.198425 0.0779528,-1.31339 -0.161811,-1.19646l-6.12402 6.83858c-0.0791339,0.0366142 0.3,0.0507874 0.218504,-0.00826772 -0.747638,-0.819685 -1.49528,-1.63937 -2.24291,-2.45906 -0.034252,-0.0354331 -0.0744094,-0.0401575 -0.121654,-0.0141732z"
   id="path5035" />
  <path
   class="fil36"
   d="M3.1878 6.08504l0 0.209055 0.467717 1.07126 0.468898 -1.07126 0 -0.209055c0,-0.0519685 0.0153543,-0.0944882 0.0448819,-0.127559 0.0295276,-0.0318898 0.0685039,-0.0484252 0.115748,-0.0484252 0.0472441,0 0.0850394,0.0153543 0.115748,0.0484252 0.0295276,0.0318898 0.0437008,0.0744094 0.0437008,0.127559l0 0.23622c0,0.0165354 -0.0011811,0.0318898 -0.00590551,0.0472441 -0.00354331,0.0141732 -0.00826772,0.0295276 -0.0165354,0.046063l-0.50315 1.15512c-0.023622,0.0531496 -0.0472441,0.0885827 -0.0720472,0.109843 -0.0248031,0.0188976 -0.0555118,0.0271654 -0.092126,0.0271654l-0.196063 0c-0.0377953,0 -0.0685039,-0.00826772 -0.092126,-0.0271654 -0.023622,-0.0188976 -0.0472441,-0.0555118 -0.0720472,-0.109843l-0.504331 -1.15276c-0.00944882,-0.0200787 -0.0141732,-0.0354331 -0.0177165,-0.0484252 -0.00354331,-0.0141732 -0.00472441,-0.0295276 -0.00472441,-0.0472441l0 -0.23622c0,-0.0543307 0.0141732,-0.0968504 0.0437008,-0.12874 0.0295276,-0.0318898 0.0685039,-0.0472441 0.115748,-0.0472441 0.0472441,0 0.0862205,0.0165354 0.116929,0.0484252 0.0283465,0.0330709 0.0437008,0.0755906 0.0437008,0.127559zm11.1697 -0.845669l1.07835 0c0.0885827,0 0.162992,0.0307087 0.225591,0.0933071 0.0625984,0.0614173 0.0944882,0.137008 0.0944882,0.226772l0 0.752362c0,0.0897638 -0.0318898,0.165354 -0.0944882,0.226772 -0.0625984,0.0625984 -0.137008,0.0933071 -0.225591,0.0933071l-0.936614 0 0 0.755906 1.07835 0c0.0531496,0 0.0956693,0.0141732 0.12874,0.0437008 0.0330709,0.0307087 0.0496063,0.0685039 0.0496063,0.115748 0,0.0472441 -0.0165354,0.0850394 -0.0507874,0.115748 -0.0330709,0.0295276 -0.0755906,0.0437008 -0.127559,0.0437008l-1.39843 0 0 -1.0748c0,-0.0885827 0.0307087,-0.162992 0.0933071,-0.225591 0.0614173,-0.0625984 0.137008,-0.0944882 0.226772,-0.0944882l0.936614 0 0 -0.752362 -1.07835 0c-0.0543307,0 -0.0980315,-0.0141732 -0.129921,-0.0437008 -0.0330709,-0.0295276 -0.0484252,-0.0685039 -0.0484252,-0.115748 0,-0.0484252 0.0165354,-0.0862205 0.0496063,-0.116929 0.034252,-0.0295276 0.0767717,-0.0437008 0.12874,-0.0437008zm-2.21339 0.320079l0 1.82835 0.936614 0 0 -1.82835 -0.936614 0zm0.034252 -0.320079l0.86811 0c0.113386,0 0.200787,0.0307087 0.263386,0.0909449 0.0602362,0.0602362 0.0909449,0.147638 0.0909449,0.262205l0 1.76102c0,0.114567 -0.0307087,0.201969 -0.0909449,0.262205 -0.0625984,0.0614173 -0.15,0.0909449 -0.263386,0.0909449l-0.86811 0c-0.114567,0 -0.201969,-0.0295276 -0.262205,-0.0909449 -0.0614173,-0.0602362 -0.092126,-0.147638 -0.092126,-0.262205l0 -1.76102c0,-0.114567 0.0307087,-0.201969 0.092126,-0.262205 0.0602362,-0.0602362 0.147638,-0.0909449 0.262205,-0.0909449zm-1.49055 1.84134l0.311811 0c0.0472441,0 0.0862205,0.0165354 0.115748,0.0484252 0.0295276,0.0318898 0.0437008,0.0744094 0.0437008,0.126378l0 0.23622c0,0.0543307 -0.0141732,0.0980315 -0.0437008,0.129921 -0.0283465,0.0330709 -0.0673228,0.0484252 -0.115748,0.0484252l-0.311811 0c-0.0472441,0 -0.0862205,-0.0153543 -0.115748,-0.0496063 -0.0295276,-0.034252 -0.0437008,-0.0767717 -0.0437008,-0.12874l0 -0.23622c0,-0.0543307 0.0141732,-0.0968504 0.0437008,-0.12874 0.0283465,-0.0307087 0.0673228,-0.046063 0.115748,-0.046063zm-1.88622 -1.52126l0 1.82835 0.936614 0 0 -1.82835 -0.936614 0zm0.0330709 -0.320079l0.86811 0c0.114567,0 0.201969,0.0307087 0.263386,0.0909449 0.0614173,0.0602362 0.092126,0.147638 0.092126,0.262205l0 1.76102c0,0.114567 -0.0307087,0.201969 -0.092126,0.262205 -0.0614173,0.0614173 -0.148819,0.0909449 -0.263386,0.0909449l-0.86811 0c-0.113386,0 -0.200787,-0.0295276 -0.262205,-0.0909449 -0.0602362,-0.0602362 -0.0909449,-0.147638 -0.0909449,-0.262205l0 -1.76102c0,-0.114567 0.0307087,-0.201969 0.0909449,-0.262205 0.0614173,-0.0602362 0.148819,-0.0909449 0.262205,-0.0909449zm-1.23898 1.84134l0.312992 0c0.046063,0 0.0850394,0.0165354 0.114567,0.0484252 0.0307087,0.0318898 0.0448819,0.0744094 0.0448819,0.126378l0 0.23622c0,0.0543307 -0.0141732,0.0980315 -0.0437008,0.129921 -0.0295276,0.0330709 -0.0685039,0.0484252 -0.115748,0.0484252l-0.312992 0c-0.0472441,0 -0.0862205,-0.0153543 -0.115748,-0.0496063 -0.0295276,-0.034252 -0.0437008,-0.0767717 -0.0437008,-0.12874l0 -0.23622c0,-0.0543307 0.0141732,-0.0968504 0.0437008,-0.12874 0.0295276,-0.0307087 0.0673228,-0.046063 0.115748,-0.046063zm-2.19449 -1.84134l1.07835 0c0.0885827,0 0.162992,0.0307087 0.225591,0.0933071 0.0625984,0.0614173 0.0944882,0.137008 0.0944882,0.226772l0 0.752362c0,0.0897638 -0.0318898,0.165354 -0.0944882,0.226772 -0.0625984,0.0625984 -0.137008,0.0933071 -0.225591,0.0933071l-0.936614 0 0 0.755906 1.07835 0c0.0531496,0 0.0956693,0.0141732 0.12874,0.0437008 0.0330709,0.0307087 0.0496063,0.0685039 0.0496063,0.115748 0,0.0472441 -0.0165354,0.0850394 -0.0507874,0.115748 -0.0330709,0.0295276 -0.0755906,0.0437008 -0.127559,0.0437008l-1.39843 0 0 -1.0748c0,-0.0885827 0.0307087,-0.162992 0.0933071,-0.225591 0.0614173,-0.0625984 0.135827,-0.0944882 0.226772,-0.0944882l0.936614 0 0 -0.752362 -1.07835 0c-0.0543307,0 -0.0980315,-0.0141732 -0.129921,-0.0437008 -0.0330709,-0.0295276 -0.0484252,-0.0685039 -0.0484252,-0.115748 0,-0.0484252 0.0153543,-0.0862205 0.0496063,-0.116929 0.034252,-0.0295276 0.0767717,-0.0437008 0.12874,-0.0437008z"
   id="path5037" />
  <path
   class="fil37"
   d="M3.44528 6.02008l0 0.209055 0.467717 1.07126 0.468898 -1.07126 0 -0.209055c0,-0.0519685 0.0153543,-0.0944882 0.0448819,-0.126378 0.0295276,-0.0330709 0.0685039,-0.0496063 0.115748,-0.0496063 0.0472441,0 0.0850394,0.0165354 0.114567,0.0484252 0.0307087,0.0318898 0.0448819,0.0744094 0.0448819,0.127559l0 0.237402c0,0.0165354 -0.0023622,0.0307087 -0.00590551,0.0472441 -0.00354331,0.0141732 -0.00826772,0.0283465 -0.0165354,0.046063l-0.50315 1.15394c-0.023622,0.0531496 -0.0484252,0.0897638 -0.0732283,0.109843 -0.0248031,0.0188976 -0.0555118,0.0283465 -0.0909449,0.0283465l-0.197244 0c-0.0377953,0 -0.0685039,-0.00944882 -0.0909449,-0.0283465 -0.023622,-0.0188976 -0.0484252,-0.0543307 -0.0732283,-0.109843l-0.50315 -1.15276c-0.00944882,-0.0188976 -0.0141732,-0.034252 -0.0177165,-0.0472441 -0.00354331,-0.0153543 -0.00472441,-0.0295276 -0.00472441,-0.0472441l0 -0.237402c0,-0.0531496 0.0141732,-0.0968504 0.0437008,-0.127559 0.0295276,-0.0318898 0.0673228,-0.0484252 0.115748,-0.0484252 0.0472441,0 0.0862205,0.0165354 0.115748,0.0496063 0.0295276,0.0318898 0.0448819,0.0744094 0.0448819,0.126378zm11.1697 -0.845669l1.07835 0c0.0885827,0 0.162992,0.0318898 0.225591,0.0933071 0.0625984,0.0614173 0.0944882,0.137008 0.0944882,0.226772l0 0.753543c0,0.0885827 -0.0318898,0.164173 -0.0944882,0.226772 -0.0625984,0.0614173 -0.137008,0.0933071 -0.225591,0.0933071l-0.936614 0 0 0.754724 1.07717 0c0.0543307,0 0.0968504,0.0141732 0.129921,0.0448819 0.0330709,0.0295276 0.0496063,0.0685039 0.0496063,0.114567 0,0.0472441 -0.0165354,0.0862205 -0.0507874,0.115748 -0.034252,0.0295276 -0.0755906,0.0448819 -0.12874,0.0448819l-1.39724 0 0 -1.0748c0,-0.0897638 0.0307087,-0.164173 0.0933071,-0.226772 0.0614173,-0.0625984 0.135827,-0.0933071 0.226772,-0.0933071l0.936614 0 0 -0.753543 -1.07835 0c-0.0555118,0 -0.0980315,-0.0141732 -0.131102,-0.0437008 -0.0318898,-0.0295276 -0.0472441,-0.0673228 -0.0472441,-0.115748 0,-0.0472441 0.0153543,-0.0862205 0.0496063,-0.115748 0.034252,-0.0295276 0.0767717,-0.0448819 0.12874,-0.0448819zm-2.21339 0.320079l0 1.82835 0.936614 0 0 -1.82835 -0.936614 0zm0.0330709 -0.320079l0.86811 0c0.114567,0 0.201969,0.0307087 0.263386,0.0909449 0.0614173,0.0614173 0.092126,0.148819 0.092126,0.263386l0 1.75984c0,0.114567 -0.0307087,0.20315 -0.092126,0.262205 -0.0614173,0.0614173 -0.148819,0.092126 -0.263386,0.092126l-0.86811 0c-0.113386,0 -0.200787,-0.0307087 -0.262205,-0.092126 -0.0602362,-0.0590551 -0.0909449,-0.147638 -0.0909449,-0.262205l0 -1.75984c0,-0.114567 0.0307087,-0.201969 0.0909449,-0.263386 0.0614173,-0.0602362 0.148819,-0.0909449 0.262205,-0.0909449zm-1.48937 1.84134l0.311811 0c0.0472441,0 0.0862205,0.0165354 0.115748,0.0484252 0.0295276,0.0330709 0.0437008,0.0744094 0.0437008,0.126378l0 0.23622c0,0.0555118 -0.0141732,0.0980315 -0.0437008,0.131102 -0.0295276,0.0318898 -0.0673228,0.0484252 -0.115748,0.0484252l-0.311811 0c-0.0472441,0 -0.0862205,-0.0165354 -0.115748,-0.0507874 -0.0295276,-0.0330709 -0.0448819,-0.0755906 -0.0448819,-0.12874l0 -0.23622c0,-0.0543307 0.0153543,-0.0968504 0.0437008,-0.12874 0.0295276,-0.0307087 0.0685039,-0.046063 0.116929,-0.046063zm-1.88622 -1.52126l0 1.82835 0.936614 0 0 -1.82835 -0.936614 0zm0.0330709 -0.320079l0.86811 0c0.114567,0 0.201969,0.0307087 0.263386,0.0909449 0.0614173,0.0614173 0.092126,0.148819 0.092126,0.263386l0 1.75984c0,0.114567 -0.0307087,0.20315 -0.092126,0.262205 -0.0614173,0.0614173 -0.148819,0.092126 -0.263386,0.092126l-0.86811 0c-0.113386,0 -0.200787,-0.0307087 -0.262205,-0.092126 -0.0602362,-0.0590551 -0.0909449,-0.147638 -0.0909449,-0.262205l0 -1.75984c0,-0.114567 0.0307087,-0.201969 0.0909449,-0.263386 0.0614173,-0.0602362 0.148819,-0.0909449 0.262205,-0.0909449zm-1.23898 1.84134l0.311811 0c0.0472441,0 0.0862205,0.0165354 0.115748,0.0484252 0.0295276,0.0330709 0.0448819,0.0744094 0.0448819,0.126378l0 0.23622c0,0.0555118 -0.0153543,0.0980315 -0.0437008,0.131102 -0.0295276,0.0318898 -0.0685039,0.0484252 -0.116929,0.0484252l-0.311811 0c-0.0472441,0 -0.0862205,-0.0165354 -0.115748,-0.0507874 -0.0295276,-0.0330709 -0.0437008,-0.0755906 -0.0437008,-0.12874l0 -0.23622c0,-0.0543307 0.0141732,-0.0968504 0.0437008,-0.12874 0.0295276,-0.0307087 0.0673228,-0.046063 0.115748,-0.046063zm-2.19449 -1.84134l1.07835 0c0.0885827,0 0.161811,0.0318898 0.225591,0.0933071 0.0625984,0.0614173 0.0933071,0.137008 0.0933071,0.226772l0 0.753543c0,0.0885827 -0.0307087,0.164173 -0.0933071,0.226772 -0.0637795,0.0614173 -0.137008,0.0933071 -0.225591,0.0933071l-0.937795 0 0 0.754724 1.07835 0c0.0543307,0 0.0968504,0.0141732 0.129921,0.0448819 0.0330709,0.0295276 0.0484252,0.0685039 0.0484252,0.114567 0,0.0472441 -0.0153543,0.0862205 -0.0496063,0.115748 -0.034252,0.0295276 -0.0767717,0.0448819 -0.12874,0.0448819l-1.39843 0 0 -1.0748c0,-0.0897638 0.0318898,-0.164173 0.0933071,-0.226772 0.0625984,-0.0625984 0.137008,-0.0933071 0.226772,-0.0933071l0.937795 0 0 -0.753543 -1.07835 0c-0.0555118,0 -0.0980315,-0.0141732 -0.131102,-0.0437008 -0.0318898,-0.0295276 -0.0484252,-0.0673228 -0.0484252,-0.115748 0,-0.0472441 0.0165354,-0.0862205 0.0507874,-0.115748 0.034252,-0.0295276 0.0767717,-0.0448819 0.12874,-0.0448819z"
   id="path5039" />
  <path
   class="fil38"
   d="M4.75512 7.75512l0.00944882 0.0271654 0 0.0011811c0.0366142,0.092126 0.0956693,0.17126 0.170079,0.237402 0.0661417,0.057874 0.140551,0.102756 0.222047,0.132283 0.080315,0.0283465 0.161811,0.0437008 0.244488,0.0437008l1.07835 0c0.10748,0 0.212598,-0.0212598 0.315354,-0.0637795l0.00354331 0c0.0944882,-0.0389764 0.18189,-0.0980315 0.262205,-0.175984 0.0614173,-0.0602362 0.111024,-0.127559 0.15,-0.201969l-2.45551 0zm3.31417 0c0.0366142,0.0732283 0.0850394,0.13937 0.141732,0.197244l0.0023622 0.00472441c0.158268,0.158268 0.367323,0.239764 0.622441,0.239764l0.866929 0c0.112205,0 0.218504,-0.0177165 0.314173,-0.0507874 0.116929,-0.0401575 0.219685,-0.102756 0.305906,-0.187795l0.00354331 -0.0011811c0.057874,-0.057874 0.10748,-0.125197 0.145276,-0.201969l-2.40236 0zm3.34134 0c0.0389764,0.0767717 0.0874016,0.144094 0.145276,0.201969 0.0826772,0.0826772 0.185433,0.146457 0.308268,0.188976 0.0956693,0.0330709 0.201969,0.0507874 0.312992,0.0507874l0.869291 0c0.111024,0 0.217323,-0.0177165 0.314173,-0.0507874 0.119291,-0.0413386 0.223228,-0.105118 0.308268,-0.188976 0.0318898,-0.0318898 0.0602362,-0.0661417 0.0862205,-0.103937 0.0354331,0.0637795 0.0826772,0.122835 0.142913,0.173622l0 0c0.0625984,0.0543307 0.133465,0.0956693 0.211417,0.124016l0 0.0011811c0.0814961,0.0295276 0.164173,0.0448819 0.248031,0.0448819l1.07835 0c0.112205,0 0.219685,-0.0224409 0.318898,-0.0637795l-0.0011811 -0.0011811c0.0980315,-0.0401575 0.185433,-0.0980315 0.264567,-0.174803l0.0011811 -0.0023622c0.0625984,-0.0614173 0.112205,-0.127559 0.15,-0.199606l-4.75866 0z"
   id="path5041" />
  <path
   class="fil39"
   d="M0.869291 7.84606c0.333071,-0.362598 0.509055,-0.91063 1.04291,-0.980315l0.367323 0.804331 -1.57205 1.95118 0.161811 -1.7752z"
   id="path5043" />
  <path
   class="fil40"
   d="M45.535 6.37441l0.0614173 0.375591 -44.9055 0 0.486614 -3.15709c0.0755906,-0.493701 0.120472,-0.957874 0.447638,-1.31457 0.41811,-0.509055 1.12795,-0.835039 1.83307,-0.835039l40.3677 0c1.25197,0 1.71496,1.18346 1.70079,2.42953l0.0708661 2.50157 -0.0625984 0z"
   id="path5045" />
  <path
   class="fil31"
   d="M0.879921 4.65354c0,-0.498425 0.198425,-0.957874 0.524409,-1.31457 0.416929,-0.507874 1.05118,-0.833858 1.7563,-0.833858l39.6732 0c1.25315,0 2.35039,0.995669 2.3315,2.24055"
   id="path5047" />
  <path
   class="fil41"
   d="M0.916535 5.55118l-0.0614173 -1.69843c-0.0165354,-0.499606 0.258661,-0.947244 0.584646,-1.30394 0.264567,-0.320079 0.833858,-0.617717 1.23307,-0.755906l0.0129921 0.15 -0.102756 0 0 0.757087 0.170079 0 0.205512 2.32677 0.334252 0.0673228c-0.328346,0.615354 -1.77874,1.4126 -2.32559,0.530315 -0.0153543,-0.0248031 -0.0318898,-0.0484252 -0.0507874,-0.0732283z"
   id="path5049" />
  <path
   class="fil42"
   d="M45.5657 10.7161l-44.8063 0 -0.00472441 -5.59961c0,-0.0519685 0.0011811,-0.103937 0.00590551,-0.157087l-0.00590551 -0.350787c0,-0.105118 0.00826772,-0.209055 0.0248031,-0.31063 0.0909449,-0.227953 0.224409,-0.437008 0.392126,-0.620079 0.274016,-0.334252 0.641339,-0.58937 1.06063,-0.724016l41.2878 0c1.32165,0.594094 1.8626,2.07756 2.04567,7.7622z"
   id="path5051" />
  <path
   class="fil43"
   d="M0.837402 4.35709c-0.0744094,-1.23425 0.731102,-2.42598 2.09173,-2.42598l40.2295 0.0377953 0.034252 0 0.00472441 0.0023622c1.45512,-0.0023622 2.19567,1.05354 1.88858,2.59843l0.0011811 0 0 0.0307087 -0.0106299 -0.0011811c0.00708661,0.0909449 0.00944882,0.18189 0.00944882,0.275197l0.0011811 0 0 0.0307087 -0.217323 -0.0188976 0 -0.0307087 0.0011811 0c0,-1.02874 -0.93189,-1.8248 -1.92638,-1.84016l0 0.0023622 -0.034252 0 -39.9815 0c-0.281102,0 -0.584646,0.180709 -0.810236,0.180709 -0.408661,0.191339 -0.822047,0.605906 -0.993307,1.03228l0.0011811 0.0011811c-0.0685039,0.174803 -0.10748,0.364961 -0.10748,0.562205l-0.18189 -0.131102c-0.00590551,-0.102756 -0.00590551,-0.205512 0,-0.305906z"
   id="path5053" />
  <path
   class="fil44"
   d="M0.951969 5.39055c-0.0744094,-1.23425 0.731102,-2.38819 2.09173,-2.38819l39.9815 0 0.034252 0 0.00472441 0.0023622c1.39724,0.0177165 2.1378,1.16339 2.13661,2.59843l0.0011811 0 0 0.0307087 -0.0106299 -0.0011811c0.00708661,0.0909449 0.00944882,0.18189 0.00944882,0.275197l0.0011811 0 0 0.0307087 -0.217323 -0.0188976 0 -0.0307087 0.0011811 0c0,-1.02874 -0.93189,-1.8248 -1.92638,-1.84016l0 0.0023622 -0.034252 0 -39.9815 0c-0.281102,0 -0.584646,0.180709 -0.810236,0.180709 -0.408661,0.191339 -0.822047,0.605906 -0.993307,1.03228l0.0011811 0.0011811c-0.0685039,0.174803 -0.10748,0.364961 -0.10748,0.562205l-0.18189 -0.131102c-0.00590551,-0.102756 -0.00590551,-0.205512 0,-0.305906z"
   id="path5055" />
  <polygon
   class="fil45"
   points="0.951969,8.82992 46.4705,8.82992 46.4705,9.8315 0.951969,9.8315 "
   id="polygon5057" />
  <polygon
   class="fil46"
   points="0.587008,10.8909 45.1134,10.8909 45.1134,11.8925 0.587008,11.8925 "
   id="polygon5059" />
  <polygon
   class="fil47"
   points="0.034252,9.89291 45.763,9.89291 45.763,10.8945 0.034252,10.8945 "
   id="polygon5061" />
  <path
   class="fil48"
   d="M46.0535 10.9677l-0.99685 0 0.00354331 -4.81063c-0.0484252,-1.38543 -0.0141732,-1.0122 0.0023622,-2.39882l-0.0023622 0 0 -0.023622c0,-0.470079 -0.212598,-0.902362 -0.542126,-1.22008 -0.337795,-0.322441 -0.798425,-0.527953 -1.28031,-0.533858l0 0.0023622 -0.0259843 0 -40.4362 -0.0377953c-0.272835,0 -0.530315,0.0602362 -0.753543,0.166535l-0.0023622 0.0023622c-0.235039,0.111024 -0.446457,0.277559 -0.612992,0.480709l-0.0200787 0.0200787c-0.121654,0.133465 -0.224409,0.292913 -0.291732,0.464173l-0.0023622 0.0011811c-0.0614173,0.154724 -0.0968504,0.329528 -0.0968504,0.512598l0 1.35236 0 0.023622 0 0.023622 0 0.320079 0 0.0377953 0 1.14567 0 0.500787 0.00472441 3.74055 -0.99685 0 -0.00354331 -3.23976 -0.00590551 1.9122 0 -2.41299 0 -1.64646 0 -0.0377953 0 -0.320079 0 -0.023622 0 -0.023622 0 -1.35236c0,-0.305906 0.0614173,-0.604724 0.17126,-0.881102l-0.0011811 -0.0011811c0.106299,-0.271654 0.269291,-0.524409 0.468898,-0.747638l-0.0011811 -0.0011811c0.25748,-0.315354 0.588189,-0.574016 0.962598,-0.75l0 0.0011811c0.362598,-0.172441 0.764173,-0.269291 1.1811,-0.269291l40.4362 0.0377953 0.0259843 0 0.00354331 0.0023622c0.746457,0.00826772 1.45157,0.317717 1.96417,0.807874l0.0023622 0.0023622c0.519685,0.498425 0.853937,1.18583 0.853937,1.94055l0 0.023622 -0.0023622 0.00590551c-0.0153543,1.37126 -0.0507874,0.987402 -0.0023622,2.35748l-0.00354331 4.84606z"
   id="path5063" />
  <path
   class="fil49"
   d="M2.88425 4.97362l4.04646 0 0 4.02638 -4.04646 0 0 -4.02638zm3.04724 0.999213l-2.04803 0 0 2.02795 2.04803 0 0 -2.02795z"
   id="path5065" />
  <path
   class="fil49"
   d="M7.84252 4.97362l4.04646 0 0 4.02638 -4.04646 0 0 -4.02638zm3.04724 0.999213l-2.04803 0 0 2.02795 2.04803 0 0 -2.02795z"
   id="path5067" />
  <path
   class="fil49"
   d="M12.9839 4.97362l4.04646 0 0 4.02638 -4.04646 0 0 -4.02638zm3.04724 0.999213l-2.04803 0 0 2.02795 2.04803 0 0 -2.02795z"
   id="path5069" />
  <rect
   class="fil40"
   x="3.00709"
   y="9"
   width="3.9248"
   height="0.823228"
   id="rect5071" />
  <rect
   class="fil40"
   x="7.93583"
   y="9"
   width="3.9248"
   height="0.823228"
   id="rect5073" />
  <rect
   class="fil40"
   x="12.9862"
   y="9"
   width="3.9248"
   height="0.823228"
   id="rect5075" />
  <path
   class="fil50"
   d="M5.49213 13.2272l6.95551 0 0.500787 0 0 0.500787 0 7.07598 0 0.500787 -0.500787 0 -6.95551 0 -0.500787 0 0 -0.500787 0 -7.07598 0 -0.500787 0.500787 0zm6.45472 1.00157l-5.95394 0 0 6.07441 5.95394 0 0 -6.07441z"
   id="path5077" />
  <rect
   class="fil51"
   x="6.9874"
   y="15.2988"
   width="4.03583"
   height="3.90827"
   id="rect5079" />
  <path
   class="fil29"
   d="M5.49213 23.1248l6.95551 0 0.500787 0 0 0.500787 0 7.07598 0 0.500787 -0.500787 0 -6.95551 0 -0.500787 0 0 -0.500787 0 -7.07598 0 -0.500787 0.500787 0zm6.45472 1.00157l-5.95394 0 0 6.07441 5.95394 0 0 -6.07441z"
   id="path5081" />
  <rect
   class="fil52"
   x="6.9874"
   y="25.1965"
   width="4.03583"
   height="3.90827"
   id="rect5083" />
  <path
   class="fil28"
   d="M5.49213 33.0732l6.95551 0 0.500787 0 0 0.500787 0 7.07598 0 0.500787 -0.500787 0 -6.95551 0 -0.500787 0 0 -0.500787 0 -7.07598 0 -0.500787 0.500787 0zm6.45472 1.00157l-5.95394 0 0 6.07441 5.95394 0 0 -6.07441z"
   id="path5085" />
  <rect
   class="fil53"
   x="6.9874"
   y="35.1449"
   width="4.03583"
   height="3.90827"
   id="rect5087" />
  <polygon
   class="fil54"
   points="18.9862,21.6236 44.3846,21.6236 44.3846,45.502 18.9862,45.502 "
   id="polygon5089" />
  <path
   class="fil55"
   d="M21.7984 18.3531l19.2413 -0.126378c1.36063,0.993307 5.17913,3.93543 6.45118,6.52913l0 22.7398 -25.6925 0.168898 0 -29.3114z"
   id="path5091" />
  <path
   class="fil56"
   d="M23.7756 41.9717l15.1937 0 0 1.00157 -15.1937 0 0 -1.00157zm0.0377953 -14.0055l10.9984 0 0 1.00157 -10.9984 0 0 -1.00157zm0 10.0063l3.86102 0 0 0.437008 1.12441 0 0 -0.437008 9.26811 0.0507874 0 1.01339 -4.49764 -0.0248031 -0.0377953 -0.0212598 -9.71811 0.420472 0 -0.426378 0 -0.575197 0 -0.437008zm15.1654 0.0507874l6.06496 0.0283465 0 1.0122 -6.06496 -0.0271654 0 -1.01339zm-15.1654 -2.01378l14.2075 0 0 1.0122 -14.2075 0 0 -1.0122zm15.424 0l-1.22008 0 0 1.0122 1.22008 0 0 -1.0122zm-1.53543 0l7.34173 0.0023622 0 1.0122 -7.34173 -0.0023622 0 -1.0122zm-13.8886 -1.99016l13.0807 0 0 1.00157 -13.0807 0 0 -1.00157zm13.9819 0l7.32874 0 0 1.00157 -7.32874 0 0 -1.00157zm-13.9819 -2.01732l6.80315 0 0 1.00157 -6.80315 0 0 -1.00157zm7.70433 0l6.38976 0 0 1.00157 -6.38976 0 0 -1.00157zm7.59094 0l6.01535 0 0 1.00157 -6.01535 0 0 -1.00157zm-3.39567 -4.03583l9.15945 0 0 1.00157 -9.15945 0 0 -1.00157zm-11.8996 -3.98268l9.75591 0 0 1.00157 -9.75591 0 0 -1.00157zm0 1.96535l7.73268 0 0 1.00157 -7.73268 0 0 -1.00157zm8.93622 0l3.89291 0 0 1.00157 -3.89291 0 0 -1.00157zm4.79409 0l7.32874 0 0 1.00157 -7.32874 0 0 -1.00157zm2.32677 16.0228l4.96417 0 0 1.00157 -4.96417 0 0 -1.00157zm-16.0949 -2.01732l7.73268 0 0 1.00157 -7.73268 0 0 -1.00157zm8.93622 0l8.08819 0 0 1.00157 -8.08819 0 0 -1.00157zm8.98937 0l3.13346 0 0 1.00157 -3.13346 0 0 -1.00157z"
   id="path5093" />
  <path
   class="fil57"
   d="M47.537 26.511c-2.14961,0.0141732 -4.54488,-0.011811 -6.69567,0.0023622 0,-2.18976 -0.0011811,-5.89016 -0.0011811,-8.0811 3.56575,2.52992 5.57717,4.76339 6.38976,6.33071 0.368504,0.712205 0.103937,1.51535 0.307087,1.74803z"
   id="path5095" />
  <path
   class="fil58"
   d="M47.6386 24.8764c-2.14961,0.0141732 -4.40197,0.0283465 -6.55276,0.0425197 0,-2.18976 -0.0200787,-4.38071 -0.0200787,-6.57165 4.29449,3.67087 5.91024,5.78504 6.57283,6.52913z"
   id="path5097" />
  <path
   class="fil59"
   d="M47.9917 25.5591l0 21.9366 0 0.494882 -0.498425 0.00354331 -25.9972 0.168898 -0.50315 0.0023622 0 -0.500787 0 -29.0055 0 -0.494882 0.498425 -0.00354331 19.1445 -0.122835 0.126378 -0.0011811 0.0023622 0c0.637795,-0.00708661 0.729921,-0.00708661 1.32165,0.505512 0.369685,0.320079 0.679134,0.594094 0.946063,0.833858 0.302362,0.271654 0.579921,0.527953 0.842126,0.773622l-0.0011811 0.0011811c0.574016,0.496063 1.17047,1.04528 1.72913,1.61575 0.570472,0.582283 1.10787,1.19291 1.55197,1.80236l0.152362 0.175984c0.517323,0.595276 0.607087,0.698031 0.682677,1.77874l0.0023622 0.0354331zm-1.00157 21.4417l0 -21.4406c-0.0531496,-0.720472 -0.113386,-0.791339 -0.437008,-1.16339l-0.170079 -0.197244 -0.0271654 -0.0330709c-0.416929,-0.572835 -0.925984,-1.15039 -1.46457,-1.70079 -0.54685,-0.558661 -1.12913,-1.09488 -1.68543,-1.57559l-0.0165354 -0.0129921c-0.272835,-0.255118 -0.548031,-0.510236 -0.825591,-0.759449 -0.315354,-0.282283 -0.627165,-0.559843 -0.929528,-0.822047 -0.307087,-0.265748 -0.351969,-0.265748 -0.660236,-0.262205l-0.0023622 0 -0.12874 0.0011811 -0.0011811 0 -18.6472 0.119291 0 28.0087 24.9957 -0.161811z"
   id="path5099" />
  <polygon
   class="fil60"
   points="42.5102,19.1787 22.0559,19.1787 22.0559,20.0209 38.0185,20.0209 42.5728,19.3713 "
   id="polygon5101" />
  <path
   class="fil61"
   d="M42.535 34.5543l-6.66142 0.349606 -7.19882 -5.01142 -0.0531496 6.02126c-3.89528,1.24606 -8.1248,1.40079 -11.8807,-1.34409 -2.87362,-2.10236 -4.46811,-4.64291 -4.05236,-7.5874l-0.356693 -0.0543307c-0.812598,2.42953 0.376772,14.0457 11.6244,17.2287 0.765354,0.216142 2.79213,0.27874 4.5248,0.412205l0.0141732 3.49961 1.53661 -0.0354331 12.5031 -13.4787z"
   id="path5103" />
  <path
   class="fil62"
   d="M39.2315 34.2343l-5.6811 -4.1752 -0.0011811 0.0011811 -5.64921 -3.93307 -0.0366142 4.1315 -0.00708661 0.721654 -0.683858 0.219685c-2.05984,0.659055 -4.2189,1.02874 -6.3685,0.870472 -2.18976,-0.161811 -4.36417,-0.86811 -6.4063,-2.35984 -0.820866,-0.601181 -1.54843,-1.24016 -2.16732,-1.91693 0.145276,0.420472 0.309449,0.848031 0.497244,1.27913 1.41142,3.24685 4.12323,6.60118 8.96457,8.22047l0 0.0011811c0.214961,0.0720472 0.475984,0.151181 0.783071,0.238583l0 0.0011811c0.453543,0.125197 1.6122,0.200787 2.83465,0.276378l1.49173 0.0992126 0.916535 0.069685 0.00472441 0.922441 0.0129921 3.25512 5.74134 -3.84921 0.0011811 0.0011811 5.75315 -4.0748zm-4.52244 -5.79803l6.81378 5.00669 1.1126 0.817323 -1.12795 0.799606 -6.90118 4.88858 -0.0188976 0.0153543 -7.28504 4.88386 -1.5437 1.03465 -0.00708661 -1.85906 -0.0165354 -4.18701 -0.543307 -0.034252c-1.33819,-0.0826772 -2.60669,-0.165354 -3.25866,-0.348425l-0.00354331 0c-0.252756,-0.0720472 -0.544488,-0.162992 -0.866929,-0.270472l-0.00354331 0c-7.6311,-3.45118 -12.1063,-11.1142 -10.1504,-18.8823l-0.18189 -0.0248031 0.356693 0.0543307 0.977953 0.15 -0.138189 0.975591c-0.170079,1.20709 0.0590551,2.33858 0.616535,3.38268 0.625984,1.17283 1.67244,2.26535 3.03661,3.26339 1.71142,1.25079 3.53386,1.84252 5.36929,1.97717 1.64291,0.121654 3.31063,-0.116929 4.93228,-0.572835l0.0472441 -6.12638 1.56614 0.0295276 7.19882 5.01142 0.0188976 0.0153543z"
   id="path5105" />
  <path
   class="fil63"
   d="M40.9335 34.2472l-6.81378 -5.00669 -7.19882 -5.01142 -0.0531496 6.02126c-3.89528,1.24606 -8.1248,1.40079 -11.8807,-1.34409 -2.87362,-2.10236 -4.46811,-4.64291 -4.05236,-7.5874l-0.356693 -0.0543307c-0.812598,2.42953 0.376772,14.0457 11.6244,17.2287 0.765354,0.216142 2.79213,0.27874 4.5248,0.412205l0.0200787 5.11417 7.28504 -4.88386 6.90118 -4.88858z"
   id="path5107" />
  <g
   id="_307847752">
   <g
   id="g5110">
    <path
   id="_310708872"
   class="fil64"
   d="M17.5028 36.3449l0.011811 -6.03307c3.06496,1.2189 6.31063,0.911811 9.35315,-0.0614173l0.0531496 -6.02126 7.19882 5.01142 0.922441 0.677953 -0.0153543 8.51339 -0.994488 0.703937 -7.28504 4.88386 -0.0200787 -5.11417c-1.73268,-0.133465 -3.75945,-0.194882 -4.5248,-0.412205 -1.79528,-0.507874 -3.35315,-1.25197 -4.69961,-2.14843z" />
    <path
   id="_310708632"
   class="fil65"
   d="M18.1453 36.75l0.0106299 -6.20669c2.87362,0.940157 5.88071,0.612992 8.71181,-0.292913l0.0531496 -6.02126 6.85394 4.77165 -0.0188976 10.3205 -7.00866 4.69843 -0.0200787 -5.11417c-1.73268,-0.133465 -3.75945,-0.194882 -4.5248,-0.412205 -1.51654,-0.42874 -2.86299,-1.02756 -4.05709,-1.74331z" />
    <path
   id="_310685640"
   class="fil66"
   d="M18.7831 37.115l0.011811 -6.38268c2.67874,0.701575 5.45079,0.356693 8.07283,-0.48189l0.0531496 -6.02126 5.58425 3.88701 -0.0224409 12.0591 -5.73543 3.84449 -0.0200787 -5.11417c-1.73268,-0.133465 -3.75945,-0.194882 -4.5248,-0.412205 -1.25197,-0.354331 -2.38819,-0.823228 -3.41929,-1.37835z" />
    <path
   id="_310709784"
   class="fil67"
   d="M19.4232 37.4398l0.011811 -6.55984c2.47795,0.496063 5.01969,0.142913 7.43268,-0.629528l0.0531496 -6.02126 4.31457 3.00354 -0.0248031 13.7953 -4.46339 2.99173 -0.0200787 -5.11417c-1.73268,-0.133465 -3.75945,-0.194882 -4.5248,-0.412205 -0.999213,-0.282283 -1.92165,-0.638976 -2.77913,-1.05354z" />
    <path
   id="_310708200"
   class="fil68"
   d="M20.0657 37.7339l0.0129921 -6.74409c2.27244,0.32126 4.58386,-0.034252 6.78898,-0.73937l0.0531496 -6.02126 3.04961 2.12244 -0.0283465 15.5256 -3.19488 2.14252 -0.0200787 -5.11417c-1.73268,-0.133465 -3.75945,-0.194882 -4.5248,-0.412205 -0.753543,-0.21378 -1.46457,-0.468898 -2.13661,-0.759449z" />
    <path
   id="_310704096"
   class="fil69"
   d="M20.7071 37.9961l0.0129921 -6.93425c2.06457,0.178346 4.15039,-0.172441 6.14764,-0.811417l0.0531496 -6.02126 1.77874 1.2378 -0.0318898 17.2654 -1.92047 1.2874 -0.0200787 -5.11417c-1.73268,-0.133465 -3.75945,-0.194882 -4.5248,-0.412205 -0.518504,-0.146457 -1.01693,-0.314173 -1.49528,-0.497244z" />
    <path
   id="_310698672"
   class="fil70"
   d="M21.3461 38.2252l0.0129921 -7.12441c1.85433,0.0649606 3.71693,-0.277559 5.50866,-0.850394l0.0531496 -6.02126 0.511417 0.356693 -0.034252 18.9969 -0.650787 0.437008 -0.0200787 -5.11417c-1.73268,-0.133465 -3.75945,-0.194882 -4.5248,-0.412205 -0.291732,-0.0826772 -0.576378,-0.173622 -0.856299,-0.26811z" />
    <path
   id="_310693896"
   class="fil71"
   d="M21.9862 38.4283l0.0141732 -7.32047c1.39606,-0.0200787 2.79094,-0.259843 4.15157,-0.64252l-0.0153543 8.39764c-1.58031,-0.106299 -3.25512,-0.177165 -3.93425,-0.369685l-0.216142 -0.0649606z" />
   </g>
   <g
   id="g5120">
    <path
   id="_310702680"
   class="fil64"
   d="M22.1043 38.4638l0.0141732 -7.35827c1.60157,-0.0377953 3.20197,-0.360236 4.74921,-0.855118l0.0531496 -6.02126 0.801969 0.558661 -0.0330709 18.6 -0.94252 0.63189 -0.0200787 -5.11417c-1.73268,-0.133465 -3.75945,-0.194882 -4.5248,-0.412205l-0.0980315 -0.0295276zm4.48937 -27.3024l0 -0.180709c0.405118,0.173622 0.788976,0.368504 1.15394,0.582283l0 0.00826772c-0.382677,-0.140551 -0.767717,-0.277559 -1.15394,-0.409843z" />
    <path
   id="_310708992"
   class="fil65"
   d="M22.3087 38.5205l0.0141732 -7.42205c1.53425,-0.0590551 3.06378,-0.374409 4.54488,-0.848031l0.0531496 -6.02126 0.39685 0.276378 -0.034252 19.1551 -0.53622 0.359055 -0.0200787 -5.11417c-1.65709,-0.127559 -3.58465,-0.188976 -4.4185,-0.385039zm4.28504 -27.3591l0 -0.180709c0.25748,0.109843 0.507874,0.229134 0.748819,0.356693l0 0.0862205 -0.748819 -0.262205z" />
    <path
   id="_310705656"
   class="fil66"
   d="M22.513 38.5618l0.0129921 -7.47283c1.46457,-0.0779528 2.92559,-0.38622 4.34173,-0.838583l0.0437008 -4.95 -0.034252 18.6319 -0.129921 0.0874016 -0.0200787 -5.11417c-1.53425,-0.11811 -3.29882,-0.179528 -4.21417,-0.343701zm4.08071 -27.4004l0 -0.180709 0.343701 0.154724 0 0.145276 -0.343701 -0.119291z" />
    <path
   id="_310705272"
   class="fil67"
   d="M22.7173 38.5949l0.0129921 -7.51772c1.2685,-0.0862205 2.53346,-0.341339 3.76654,-0.712205l-0.0153543 8.52165c-1.36417,-0.0980315 -2.86181,-0.16063 -3.76417,-0.291732z" />
    <path
   id="_307851376"
   class="fil68"
   d="M22.924 38.622l0.0129921 -7.56024c1.06063,-0.0874016 2.11772,-0.290551 3.15591,-0.579921l-0.0153543 8.37756c-1.14685,-0.0779528 -2.33622,-0.135827 -3.15354,-0.237402z" />
    <path
   id="_307867624"
   class="fil69"
   d="M23.1283 38.6457l0.0129921 -7.60157c0.855118,-0.0826772 1.70551,-0.239764 2.54528,-0.453543l-0.0153543 8.24173c-0.923622,-0.0590551 -1.84134,-0.111024 -2.54291,-0.186614z" />
    <path
   id="_307858672"
   class="fil70"
   d="M23.3315 38.6669l0.0129921 -7.64409c0.648425,-0.0720472 1.29567,-0.185433 1.93701,-0.334252l-0.0153543 8.1189c-0.69685,-0.0437008 -1.37244,-0.0862205 -1.93465,-0.140551z" />
    <path
   id="_307852120"
   class="fil71"
   d="M23.537 38.6858l0.0129921 -7.68661c0.442913,-0.0555118 0.884646,-0.129921 1.3252,-0.220866l-0.0141732 8.00315c-0.470079,-0.0295276 -0.92126,-0.0602362 -1.32402,-0.0956693z" />
   </g>
  </g>
  <path
   class="fil72"
   d="M40.9335 33.8634l-3.87638 -2.84764 -10.2213 -6.84331 0.0141732 -0.486614 -0.0437008 -0.0318898 0.0295276 1.32165 13.9488 9.10394 0.148819 -0.216142zm-14.0953 -3.9874l-0.00590551 0.0011811 -0.0023622 0.372047c-3.89528,1.24606 -8.1189,1.56142 -11.6528,-1.45866 -0.283465,-0.242126 -0.553937,-0.491339 -0.811417,-0.745276 -2.12598,-1.72087 -3.41102,-3.71693 -3.49134,-5.96929 0.119291,2.30906 1.59449,5.20276 4.30276,7.51772 3.53386,3.02008 7.75748,2.70472 11.6528,1.45866l0.00826772 -1.17638z"
   id="path5130" />
 </g>
</svg>