<?xml version="1.0" encoding="UTF-8" standalone="no"?>
<!-- Creator: CorelDRAW -->

<svg
   xmlns:dc="http://purl.org/dc/elements/1.1/"
   xmlns:cc="http://creativecommons.org/ns#"
   xmlns:rdf="http://www.w3.org/1999/02/22-rdf-syntax-ns#"
   xmlns:svg="http://www.w3.org/2000/svg"
   xmlns="http://www.w3.org/2000/svg"
   xmlns:sodipodi="http://sodipodi.sourceforge.net/DTD/sodipodi-0.dtd"
   xmlns:inkscape="http://www.inkscape.org/namespaces/inkscape"
   xml:space="preserve"
   width="16px"
   height="16px"
   style="shape-rendering:geometricPrecision; text-rendering:geometricPrecision; image-rendering:optimizeQuality; fill-rule:evenodd; clip-rule:evenodd"
   viewBox="0 0 16 16"
   id="svg2"
   version="1.1"
   inkscape:version="0.48.1 r9760"
   sodipodi:docname="stock_new-dir.svg"><metadata
   id="metadata47"><rdf:RDF><cc:Work
       rdf:about=""><dc:format>image/svg+xml</dc:format><dc:type
         rdf:resource="http://purl.org/dc/dcmitype/StillImage" /><dc:title /></cc:Work></rdf:RDF></metadata><sodipodi:namedview
   pagecolor="#ffffff"
   bordercolor="#666666"
   borderopacity="1"
   objecttolerance="10"
   gridtolerance="10"
   guidetolerance="10"
   inkscape:pageopacity="0"
   inkscape:pageshadow="2"
   inkscape:window-width="1091"
   inkscape:window-height="548"
   id="namedview45"
   showgrid="false"
   inkscape:zoom="18.875"
   inkscape:cx="14.123803"
   inkscape:cy="8"
   inkscape:window-x="297"
   inkscape:window-y="104"
   inkscape:window-maximized="0"
   inkscape:current-layer="svg2" />
 <defs
   id="defs4">
  <style
   type="text/css"
   id="style6">
   
    .fil1 {fill:#E5E5E5}
    .fil2 {fill:white}
    .fil3 {fill:white;fill-rule:nonzero}
    .fil0 {fill:#0F172E;fill-opacity:0.219608}
    .fil6 {fill:#CCEDFF;fill-rule:nonzero;fill-opacity:0.439216}
    .fil5 {fill:url(#id0)}
    .fil7 {fill:url(#id1);fill-rule:nonzero}
    .fil4 {fill:url(#id2);fill-rule:nonzero}
   
  </style>
  <linearGradient
   id="id0"
   gradientUnits="userSpaceOnUse"
   x1="8.02466"
   y1="3.73241"
   x2="8.12983"
   y2="14.285">
   <stop
   offset="0"
   style="stop-color:#5589C4"
   id="stop9" />
   <stop
   offset="0.0392157"
   style="stop-color:#649FCF"
   id="stop11" />
   <stop
   offset="0.909804"
   style="stop-color:#A6D5FC"
   id="stop13" />
   <stop
   offset="1"
   style="stop-color:#83B8E3"
   id="stop15" />
  </linearGradient>
  <linearGradient
   id="id1"
   gradientUnits="userSpaceOnUse"
   x1="8.09723"
   y1="14.1852"
   x2="7.93452"
   y2="3.83474">
   <stop
   offset="0"
   style="stop-color:#567FA3"
   id="stop18" />
   <stop
   offset="1"
   style="stop-color:#6494BA"
   id="stop20" />
  </linearGradient>
  <linearGradient
   id="id2"
   gradientUnits="userSpaceOnUse"
   x1="7.80838"
   y1="5.70505"
   x2="7.80838"
   y2="3.36645">
   <stop
   offset="0"
   style="stop-color:#949494"
   id="stop23" />
   <stop
   offset="1"
   style="stop-color:#ABABAB"
   id="stop25" />
  </linearGradient>
 </defs>
 <g
   id="Слой_x0020_1"
   transform="matrix(0.98666991,0,0,0.96002136,0.10685212,0.31941068)">
  <metadata
   id="CorelCorpID_0Corel-Layer" />
  <polygon
   class="fil0"
   points="15.8934,14.941 15.8934,15.9408 0.106584,15.9408 0.106584,14.941 "
   id="polygon29"
   style="fill:#0f172e;fill-opacity:0.21960802" />
  <path
   class="fil1"
   d="m 1.39948,1.59734 0.61569,0 C 2.194888,1.5088984 2.329818,1.5911037 2.487142,1.25066 2.612434,0.979382 2.726955,0.538308 3.025729,0.538308 c 1.33995,0 2.68046,0 4.02069,0 0.298774,0 0.395153,0.441074 0.521012,0.712352 0.193891,0.420381 0.416129,0.292538 0.695061,0.34668 l 5.92984,0 c 0.363121,0 0.65821,0.29764 0.659911,0.659627 l 0.02495,5.61689 c 0.0017,0.361987 -0.29764,0.659627 -0.659627,0.659627 l -12.7928999,0 c -0.361987,0 -0.65821,-0.29679 -0.659627,-0.659627 L 0.7398056,2.256967 C 0.73838827,1.875137 1.0258236,1.59734 1.3994326,1.59734 z"
   id="path31"
   inkscape:connector-curvature="0"
   style="fill:#e5e5e5" />
  <rect
   class="fil2"
   x="7.6317801"
   y="2.0574"
   width="6.7484899"
   height="0.98363"
   id="rect33"
   style="fill:#ffffff" />
  <path
   class="fil3"
   d="m 2.17816,1.04117 c 0.211183,-0.026362 5.81419,0.023528 5.82978,0.023528 l -0.015874,0.996102 c -0.015307,0 -5.49841,-0.051874 -5.69258,-0.027496 l -0.121324,-0.992134 z"
   id="path35"
   inkscape:connector-curvature="0"
   style="fill:#ffffff;fill-rule:nonzero" />
  <path
   class="fil4"
   d="m 1.39948,1.0973 0.525547,0 c 0.040252,-0.013039 0.076253,-0.02211 0.111402,-0.030614 l 0,-5.669e-4 c 0.00794,-0.0017 -0.015307,0.0034 -0.00255,-0.024378 0.014457,-0.031181 0.036,-0.0839062 0.058111,-0.13833203 l 0.00198,0 c 0.163844,-0.400822 0.3532,-0.865141 0.931755,-0.865141 l 4.02069,0 c 0.577138,0 0.753455,0.447594 0.910779,0.848983 l 0,0.001984 c 0.019276,0.0501736 0.039685,0.100631 0.063497,0.15250496 0.017291,0.037985 0.037701,0.039118 0.060662,0.039685 l 0.00198,0 c 0.067465,0.00227 0.138615,0.00482 0.215718,0.015874 l 5.8932705,0 c 0.317766,0 0.606902,0.130678 0.816384,0.339877 l 0.002,0.00198 c 0.208065,0.208632 0.338176,0.497484 0.339593,0.815817 l 0.02495,5.61689 0.002,0.00198 0,0.00312 c 0,0.316065 -0.131245,0.604918 -0.340727,0.814684 l 8.51e-4,0.00113 c -0.207781,0.207781 -0.497201,0.337325 -0.814684,0.338743 l -0.002,0.00198 -0.0031,0 -12.7928998,0 c -0.318617,0 -0.60888702,-0.130678 -0.81836902,-0.34016 -0.208348,-0.208348 -0.337892,-0.498051 -0.33931,-0.817518 l -0.0252285,-5.61689 -0.001984,-0.00198 0,-0.00283 c 0,-0.327971 0.127844,-0.61569 0.337609,-0.823755 l 0.001984,-0.00198 c 0.208065,-0.205513 0.49550002,-0.328255 0.81723502,-0.329105 l 0,-0.00198 0.00283,0 z m 0.61569,1.00007 -0.61569,0 -0.00283,0 0,-0.00198 c -0.047339,0 -0.088442,0.015874 -0.116221,0.041953 l -0.00198,0.00198 c -0.023811,0.025228 -0.038552,0.064914 -0.038552,0.114804 l 0,0.00283 -0.00198,0 0.025228,5.61491 c 0,0.04252 0.019559,0.083906 0.050174,0.114521 0.02863,0.02863 0.068599,0.047055 0.111402,0.047055 l 12.7928996,0 0.0031,0 0,0.00198 c 0.04025,-5.669e-4 0.08022,-0.020126 0.109702,-0.049607 l 0.002,0 c 0.02721,-0.027213 0.04479,-0.066331 0.04479,-0.108851 l 0,-0.00312 0.002,0 -0.02494,-5.61491 c 0,-0.043087 -0.01899,-0.08419 -0.04847,-0.114804 -0.02863,-0.02863 -0.06917,-0.046772 -0.113387,-0.046772 l -5.92984,0 -0.093827,-0.00964 c -0.036567,-0.00709 -0.079087,-0.00879 -0.118489,-0.010205 l -0.00198,0 C 7.6919212,2.0653389 7.3877612,2.0531499 7.1142162,1.45957 7.0875703,1.4017428 7.0580898,1.327191 7.0280423,1.250372 l -5.669e-4,2.835e-4 c -0.039118,-0.100064 0.120757,-0.212317 0.018992,-0.212317 l -4.02069,0 c -0.088442,0 0.034866,0.128977 -0.00964,0.239813 l 0.0017,5.669e-4 c -0.023528,0.057827 -0.046772,0.114521 -0.077386,0.180852 -0.214301,0.464319 -0.426051,0.516193 -0.665864,0.575438 l -0.00198,0 -0.038551,0.00964 -0.218836,0.052725 z"
   id="path37"
   style="fill:url(#id2);fill-rule:nonzero"
   inkscape:connector-curvature="0" />
  <path
   class="fil5"
   d="M 1.4505,3.49713 14.7539,3.471618 c 0.744951,-0.00142 0.833676,0.384948 0.833676,1.16335 l 0,8.59698 c 0,0.720573 -0.59528,1.31557 -1.31557,1.31557 l -12.3895,0 c -0.720573,0 -1.31529,-0.591879 -1.31529,-1.31557 l -2.8347e-4,-8.49578 c 0,-0.723407 0.160442,-1.23762 0.88356597,-1.23903 z"
   id="path39"
   style="fill:url(#id0)"
   inkscape:connector-curvature="0" />
  <path
   class="fil6"
   d="m 15.5348,3.97846 -14.8616,0 C 0.5932624,4.18284 0.5669,4.442212 0.5669,4.736167 l 0,0.242364 15.0206,0 0,-0.343562 c 0,-0.263908 -0.01021,-0.482744 -0.05273,-0.656509 z"
   id="path41"
   inkscape:connector-curvature="0"
   style="fill:#ccedff;fill-opacity:0.43921599;fill-rule:nonzero" />
  <path
   class="fil7"
   d="M 1.4505,2.99908 14.6311,2.973568 c 0.573737,-8.504e-4 0.912196,0.175749 1.12395,0.531217 0.175749,0.295372 0.209765,0.659627 0.209765,1.13018 l 0,8.59698 c 0,0.498051 -0.20523,0.952732 -0.534051,1.28155 l -0.002,0 c -0.329105,0.328821 -0.782935,0.534051 -1.27957,0.534051 l -12.2667003,0 c -0.498618,0 -0.95329897,-0.204663 -1.28211997,-0.533485 -0.328538,-0.328538 -0.533201,-0.782935 -0.533201,-1.28212 l 0.0019843,0 -2.8347e-4,-8.49578 -0.0019843,0 c 0,-0.442492 0.0569768,-0.83481 0.240947,-1.14436 l 0.001984,0 C 0.53122453,3.219609 0.88725853,2.999922 1.4505065,2.999072 z M 14.6311,3.96967 1.4505,3.995182 c -0.158458,0 -0.245482,0.038835 -0.284601,0.103749 l 0.00142,8.504e-4 c -0.076536,0.128694 -0.100347,0.356318 -0.100347,0.636383 l -0.00198,0 2.834e-4,8.4957796 0.00198,0 c 0,0.223372 0.09241,0.427468 0.240096,0.575154 0.14797,0.14797 0.352633,0.24038 0.575154,0.24038 l 12.2667002,0 c 0.222805,0 0.427184,-0.09241 0.575438,-0.240096 l -8.51e-4,-8.5e-4 c 0.148253,-0.148253 0.240947,-0.352349 0.240947,-0.574587 l 0,-8.59698 c 0,-0.307845 -0.01077,-0.526681 -0.0652,-0.618241 -0.01871,-0.031465 -0.09808,-0.047055 -0.268443,-0.047055 z"
   id="path43"
   style="fill:url(#id1);fill-rule:nonzero"
   inkscape:connector-curvature="0" />
 </g>
</svg>