<?xml version="1.0" encoding="UTF-8" standalone="no"?>
<!-- Created with Inkscape (http://www.inkscape.org/) -->

<svg
   xmlns:dc="http://purl.org/dc/elements/1.1/"
   xmlns:cc="http://creativecommons.org/ns#"
   xmlns:rdf="http://www.w3.org/1999/02/22-rdf-syntax-ns#"
   xmlns:svg="http://www.w3.org/2000/svg"
   xmlns="http://www.w3.org/2000/svg"
   xmlns:sodipodi="http://sodipodi.sourceforge.net/DTD/sodipodi-0.dtd"
   xmlns:inkscape="http://www.inkscape.org/namespaces/inkscape"
   width="16"
   height="16"
   id="svg2"
   version="1.1"
   inkscape:version="0.48.3.1 r9886"
   sodipodi:docname="16.svg">
  <defs
     id="defs4">
    <linearGradient
       gradientTransform="translate(6.6,3.249)"
       y2="1.251"
       x2="-0.6"
       y1="0"
       x1="0"
       gradientUnits="userSpaceOnUse"
       id="LinearGradient_4-03">
      <stop
         id="stop25665"
         stop-color="#555555"
         offset="0" />
      <stop
         id="stop25667"
         stop-color="#6a6a6a"
         offset="1" />
    </linearGradient>
    <linearGradient
       gradientTransform="translate(7.08,3.291)"
       y2="0.459"
       x2="-0.327"
       y1="0"
       x1="0"
       gradientUnits="userSpaceOnUse"
       id="LinearGradient_3-83">
      <stop
         id="stop25660"
         stop-color="#dad8d8"
         offset="0" />
      <stop
         id="stop25662"
         stop-color="#a9a9a9"
         offset="1" />
    </linearGradient>
    <linearGradient
       gradientTransform="matrix(0,1,-1,0,5.551,6.83)"
       y2="0"
       x2="3.671"
       y1="0"
       x1="0"
       gradientUnits="userSpaceOnUse"
       id="LinearGradient_2-81">
      <stop
         id="stop25655"
         stop-color="#222222"
         offset="0" />
      <stop
         id="stop25657"
         stop-color="#707070"
         offset="1" />
    </linearGradient>
    <linearGradient
       gradientTransform="matrix(0,-1,1,0,4.876,11.082)"
       y2="0"
       x2="10.159"
       y1="0"
       x1="0"
       gradientUnits="userSpaceOnUse"
       id="LinearGradient_1-670">
      <stop
         id="stop25650"
         stop-color="#c9c9c9"
         offset="0" />
      <stop
         id="stop25652"
         stop-color="#b0b0b0"
         offset="1" />
    </linearGradient>
    <linearGradient
       gradientTransform="matrix(0,-1,1,0,4.844,11.999)"
       y2="0"
       x2="11.905"
       y1="0"
       x1="0"
       gradientUnits="userSpaceOnUse"
       id="LinearGradient-28">
      <stop
         id="stop25645"
         stop-color="#878b8e"
         offset="0" />
      <stop
         id="stop25647"
         stop-color="#818689"
         offset="1" />
    </linearGradient>
  </defs>
  <sodipodi:namedview
     id="base"
     pagecolor="#ffffff"
     bordercolor="#666666"
     borderopacity="1.0"
     inkscape:pageopacity="0.0"
     inkscape:pageshadow="2"
     inkscape:zoom="20.180998"
     inkscape:cx="8.2985828"
     inkscape:cy="7.6257247"
     inkscape:document-units="px"
     inkscape:current-layer="layer1"
     showgrid="false"
     inkscape:window-width="860"
     inkscape:window-height="523"
     inkscape:window-x="845"
     inkscape:window-y="315"
     inkscape:window-maximized="0" />
  <metadata
     id="metadata7">
    <rdf:RDF>
      <cc:Work
         rdf:about="">
        <dc:format>image/svg+xml</dc:format>
        <dc:type
           rdf:resource="http://purl.org/dc/dcmitype/StillImage" />
        <dc:title />
      </cc:Work>
    </rdf:RDF>
  </metadata>
  <g
     inkscape:label="Layer 1"
     inkscape:groupmode="layer"
     id="layer1"
     transform="translate(0,-1036.3622)">
    <g
       style="fill-rule:evenodd;stroke-width:0.50099999;stroke-linejoin:bevel;overflow:visible"
       id="g25766"
       transform="matrix(1.3332222,0,0,1.3334445,0,1036.3609)">
      <g
         transform="scale(1,-1)"
         font-size="16"
         id="Document"
         style="font-size:16px;fill:none;stroke:#000000;font-family:Times New Roman">
        <g
           transform="translate(0,-12)"
           id="Spread">
          <g
             id="MouseOff">
            <g
               id="Group"
               style="stroke:none">
              <path
                 style="fill:url(#LinearGradient-28);stroke-width:0.041;marker-start:none;marker-end:none"
                 id="path25673"
                 stroke-miterlimit="79.8403193612775"
                 d="M 0,10.79 0,1.209 C 0,0.542 0.542,0 1.209,0 l 9.583,0 c 0.667,0 1.209,0.542 1.209,1.209 l 0,9.581 c 0,0.667 -0.542,1.209 -1.209,1.209 l -9.583,0 C 0.542,11.999 0,11.457 0,10.79 z"
                 inkscape:connector-curvature="0" />
              <path
                 style="fill:url(#LinearGradient_1-670);stroke-width:0.041;marker-start:none;marker-end:none"
                 id="path25675"
                 stroke-miterlimit="79.8403193612775"
                 d="m 0.751,10.709 0,-9.417 c 0,-0.298 0.243,-0.541 0.541,-0.541 l 9.419,0 c 0.298,0 0.541,0.243 0.541,0.541 l 0,9.417 c 0,0.298 -0.243,0.541 -0.541,0.541 l -9.419,0 c -0.298,0 -0.541,-0.243 -0.541,-0.541 z"
                 inkscape:connector-curvature="0" />
              <path
                 id="path25677"
                 stroke-miterlimit="79.8403193612775"
                 d="M 6.002,5.393 C 5.337,5.393 4.798,4.995 4.791,4.502 3.352,4.524 1.991,4.59 0.751,4.689 l 0,5.406 c 0,0.222 0.255,0.405 0.568,0.405 l 9.364,0 c 0.314,0 0.568,-0.183 0.568,-0.407 l 0,-5.414 C 10.01,4.582 8.648,4.522 7.213,4.5 7.206,4.994 6.667,5.393 6.002,5.393 z"
                 inkscape:connector-curvature="0"
                 style="fill:#ffffff;fill-opacity:0.2;stroke-width:0.021;marker-start:none;marker-end:none" />
              <path
                 style="fill:url(#LinearGradient_2-81);stroke-width:0.041;marker-start:none;marker-end:none"
                 id="path25679"
                 stroke-miterlimit="79.8403193612775"
                 d="m 1.502,10.38 0,-3.511 c 0,-0.066 0.054,-0.12 0.12,-0.12 l 8.759,0 c 0.066,0 0.12,0.054 0.12,0.12 l 0,3.511 c 0,0.066 -0.054,0.12 -0.12,0.12 l -8.759,0 c -0.066,0 -0.12,-0.054 -0.12,-0.12 z"
                 inkscape:connector-curvature="0" />
              <path
                 id="path25681"
                 stroke-miterlimit="79.8403193612775"
                 d="m 1.5,11.25 0,-0.749 9.001,0 0,0.749 -9.001,0 z"
                 inkscape:connector-curvature="0"
                 style="fill:#e5e5e5;stroke-width:0.041;marker-start:none;marker-end:none" />
              <path
                 id="path25683"
                 stroke-miterlimit="79.8403193612775"
                 d="m 1.5,1.5 0,-0.751 9.001,0 0,0.751 -9.001,0 z"
                 inkscape:connector-curvature="0"
                 style="fill:#c0c0c0;stroke-width:0.041;marker-start:none;marker-end:none" />
              <path
                 id="path25685"
                 stroke-miterlimit="79.8403193612775"
                 d="m 1.502,6.749 0,-0.749 8.999,0 0,0.749 -8.999,0 z"
                 inkscape:connector-curvature="0"
                 style="fill:#e5e5e5;stroke-width:0.041;marker-start:none;marker-end:none" />
              <path
                 id="path25687"
                 stroke-miterlimit="79.8403193612775"
                 d="m 2.251,8.249 0,-0.749 1.499,0 0,0.749 -1.499,0 z"
                 inkscape:connector-curvature="0"
                 style="fill:#4c89c0;stroke-width:0.054;marker-start:none;marker-end:none" />
              <path
                 id="path25689"
                 stroke-miterlimit="79.8403193612775"
                 d="m 4.501,8.25 0,-0.749 1.499,0 0,0.749 -1.499,0 z"
                 inkscape:connector-curvature="0"
                 style="fill:#b4deff;stroke-width:0.054;marker-start:none;marker-end:none" />
              <path
                 id="path25691"
                 stroke-miterlimit="79.8403193612775"
                 d="m 6.752,8.25 0,-0.749 1.499,0 0,0.749 -1.499,0 z"
                 inkscape:connector-curvature="0"
                 style="fill:#4c89c0;stroke-width:0.054;marker-start:none;marker-end:none" />
              <path
                 id="path25693"
                 stroke-miterlimit="79.8403193612775"
                 d="m 2.251,9.749 0,-0.749 1.499,0 0,0.749 -1.499,0 z"
                 inkscape:connector-curvature="0"
                 style="fill:#b4deff;stroke-width:0.054;marker-start:none;marker-end:none" />
              <path
                 id="path25695"
                 stroke-miterlimit="79.8403193612775"
                 d="m 6.752,9.75 0,-0.749 1.499,0 0,0.749 -1.499,0 z"
                 inkscape:connector-curvature="0"
                 style="fill:#b4deff;stroke-width:0.054;marker-start:none;marker-end:none" />
              <path
                 id="path25697"
                 stroke-miterlimit="79.8403193612775"
                 d="M 9,8.249 9,7.5 l 0.751,0 0,0.749 -0.751,0 z"
                 inkscape:connector-curvature="0"
                 style="fill:#4c89c0;stroke-width:0.054;marker-start:none;marker-end:none" />
              <path
                 style="fill:url(#LinearGradient_3-83);stroke-width:0.19;marker-start:none;marker-end:none"
                 id="path25699"
                 stroke-miterlimit="79.8403193612775"
                 d="M 4.946,1.599 C 4.572,1.8 4.503,2.168 4.503,2.373 l 0,2.756 c 0,0.201 0.068,0.565 0.437,0.769 0.374,0.206 0.739,0.055 0.904,-0.058 l 2.01,-1.356 c 0.528,-0.363 0.529,-1.106 0,-1.471 L 5.844,1.66 C 5.681,1.549 5.331,1.391 4.946,1.599 z"
                 inkscape:connector-curvature="0" />
              <path
                 style="fill:url(#LinearGradient_4-03);stroke-width:0.19;marker-start:none;marker-end:none"
                 id="path25701"
                 stroke-miterlimit="79.8403193612775"
                 d="m 5.419,2.28 2.01,1.353 c 0.093,0.064 0.093,0.167 0,0.231 L 5.419,5.22 C 5.326,5.284 5.25,5.241 5.25,5.128 l 0,-2.756 C 5.25,2.256 5.326,2.216 5.419,2.28 z"
                 inkscape:connector-curvature="0" />
            </g>
          </g>
        </g>
      </g>
    </g>
  </g>
</svg>
