<?xml version="1.0" encoding="UTF-8" standalone="no"?>
<!-- Creator: CorelDRAW -->

<svg
   xmlns:dc="http://purl.org/dc/elements/1.1/"
   xmlns:cc="http://creativecommons.org/ns#"
   xmlns:rdf="http://www.w3.org/1999/02/22-rdf-syntax-ns#"
   xmlns:svg="http://www.w3.org/2000/svg"
   xmlns="http://www.w3.org/2000/svg"
   xmlns:sodipodi="http://sodipodi.sourceforge.net/DTD/sodipodi-0.dtd"
   xmlns:inkscape="http://www.inkscape.org/namespaces/inkscape"
   xml:space="preserve"
   width="16"
   height="16"
   style="fill-rule:evenodd"
   viewBox="0 0 16 15.9986"
   id="svg6261"
   version="1.1"
   inkscape:version="0.48.2 r9819"
   sodipodi:docname="certificate_16.svg"><metadata
   id="metadata6308"><rdf:RDF><cc:Work
       rdf:about=""><dc:format>image/svg+xml</dc:format><dc:type
         rdf:resource="http://purl.org/dc/dcmitype/StillImage" /><dc:title></dc:title></cc:Work></rdf:RDF></metadata><sodipodi:namedview
   pagecolor="#ffffff"
   bordercolor="#666666"
   borderopacity="1"
   objecttolerance="10"
   gridtolerance="10"
   guidetolerance="10"
   inkscape:pageopacity="0"
   inkscape:pageshadow="2"
   inkscape:window-width="1920"
   inkscape:window-height="1024"
   id="namedview6306"
   showgrid="false"
   inkscape:zoom="14.75"
   inkscape:cx="7"
   inkscape:cy="8"
   inkscape:window-x="-4"
   inkscape:window-y="-4"
   inkscape:window-maximized="1"
   inkscape:current-layer="svg6261" />
 <defs
   id="defs6263">
  <style
   type="text/css"
   id="style6265">
   
    .fil6 {fill:#474747}
    .fil2 {fill:#BC6C00}
    .fil5 {fill:#D2D0D2}
    .fil7 {fill:white}
    .fil3 {fill:url(#id0)}
    .fil0 {fill:url(#id1)}
    .fil1 {fill:url(#id2)}
    .fil4 {fill:url(#id3)}
   
  </style>
  <linearGradient
   id="id0"
   gradientUnits="userSpaceOnUse"
   x1="8.9997301"
   y1="13.9981"
   x2="8.9997301"
   y2="7.9985399">
   <stop
   offset="0"
   style="stop-color:#FCD24A"
   id="stop6268" />
   <stop
   offset="1"
   style="stop-color:#FCFCC4"
   id="stop6270" />
  </linearGradient>
  <linearGradient
   id="id1"
   gradientUnits="userSpaceOnUse"
   x1="7"
   y1="0"
   x2="7"
   y2="15.9986">
   <stop
   offset="0"
   style="stop-color:#BFBFBF"
   id="stop6273" />
   <stop
   offset="1"
   style="stop-color:#8C8B8B"
   id="stop6275" />
  </linearGradient>
  <linearGradient
   id="id2"
   gradientUnits="userSpaceOnUse"
   x1="7"
   y1="1.0000499"
   x2="7"
   y2="14.9985">
   <stop
   offset="0"
   style="stop-color:white"
   id="stop6278" />
   <stop
   offset="1"
   style="stop-color:#E1E1E1"
   id="stop6280" />
  </linearGradient>
  <linearGradient
   id="id3"
   gradientUnits="userSpaceOnUse"
   x1="9.0390396"
   y1="11.7947"
   x2="8.9611797"
   y2="10.202">
   <stop
   offset="0"
   style="stop-color:#FFBB31"
   id="stop6283" />
   <stop
   offset="1"
   style="stop-color:#FFFE7F"
   id="stop6285" />
  </linearGradient>
 </defs>
 <g
   id="Layer_x0020_1"
   transform="matrix(1,0,0,1.000088,1,-7.0720063e-4)">
  <metadata
   id="CorelCorpID_0Corel-Layer" />
  <g
   id="Document">
   <g
   id="Spread">
    <g
   id="MouseOff">
     <g
   id="Group">
      <path
   id="_192485392"
   class="fil0"
   d="M 4.89482,15.9986 4.89066,15.9971 C 4.618536,15.9933 4.372113,15.779779 4.185407,15.630489 l -0.00151,0 c -1.05334,-0.917283 -2.84105,-2.6585 -3.82900004,-3.69861 -0.206738,-0.227903 -0.330706,-0.471681 -0.353383,-0.77593 L 2.96e-6,2.1762372 C 0.04535686,0.9683072 1.041253,7.2e-6 2.261273,7.2e-6 l 9.47595,0 c 1.24799,0 2.26278,1.01479 2.26278,2.26278 l 0,11.4729998 c 0,1.24799 -1.01479,2.26278 -2.26278,2.26278 l -6.8424,0 z"
   inkscape:connector-curvature="0"
   style="fill:url(#id1)" />
      <path
   id="_192484888"
   class="fil1"
   d="M 11.7372,14.9985 4.98551,14.989051 4.819968,14.859792 4.423877,14.507921 c -1.03709,-0.941472 -2.49447,-2.36785 -3.33729,-3.25603 -0.041197,-0.04384 -0.062362,-0.0771 -0.074456,-0.102424 l -0.012094,-0.0548 0,-8.8984404 c 0.024189,-0.654608 0.580152,-1.19621 1.26122,-1.19621 l 9.47595,0 c 0.694671,0 1.26273,0.568058 1.26273,1.26273 l 0,11.4730004 c 0,0.696183 -0.568058,1.26273 -1.26273,1.26273 z"
   inkscape:connector-curvature="0"
   style="fill:url(#id2)" />
      <polygon
   id="_192484312"
   class="fil2"
   points="5.05734,11.8052 5.50521,11.1559 4.99989,10.5482 5.62653,10.0667 5.33476,9.33346 6.08121,9.07078 6.02791,8.28389 6.81858,8.26273 7.01323,7.49889 7.77064,7.72264 8.19319,7.05594 8.84401,7.50532 9.45214,6.99887 9.93213,7.62664 10.6654,7.33335 10.928,8.07867 11.7161,8.02802 11.7372,8.81756 12.5026,9.01485 12.2758,9.77075 12.9467,10.1922 12.4946,10.8441 12.9999,11.4492 12.3744,11.9307 12.6651,12.6655 11.9198,12.9255 11.9719,13.7146 11.1828,13.7347 10.9881,14.5 10.2318,14.2748 9.80779,14.9426 9.15998,14.4932 8.54808,14.9985 8.06808,14.3719 7.33335,14.6625 7.07332,13.9187 6.28416,13.9694 6.26413,13.1798 5.49727,12.9841 5.72253,12.2267 "
   style="fill:#bc6c00" />
      <polygon
   id="_192484528"
   class="fil3"
   points="6.77323,8.96005 6.80951,9.55191 6.25204,9.75072 6.472,10.3014 5.99995,10.6601 6.37752,11.1159 6.04265,11.6053 6.54419,11.9213 6.37752,12.4878 6.94935,12.6333 6.96258,13.2252 7.55483,13.1878 7.75212,13.7479 8.30279,13.5268 8.66411,13.9985 9.11878,13.6198 9.60672,13.9546 9.92268,13.4546 10.4907,13.6228 10.6374,13.0495 11.2277,13.0374 11.1907,12.4425 11.7504,12.2452 11.5293,11.696 11.9999,11.3358 11.6227,10.8812 11.9572,10.3921 11.4572,10.0761 11.6238,9.50921 11.0531,9.36143 11.0373,8.77069 10.4454,8.80811 10.2481,8.25215 9.69856,8.46947 9.33724,7.99854 8.88257,8.37611 8.39463,8.04125 8.07867,8.54128 7.51061,8.37347 7.36283,8.94795 "
   style="fill:url(#id0)" />
      <path
   id="_192483352"
   class="fil2"
   d="m 8.46796,12.9255 c 1.06393,0.293289 2.16678,-0.332217 2.45856,-1.39501 C 11.219809,10.46656 10.59468,9.36522 9.53189,9.07193 8.46796,8.778641 7.36548,9.404147 7.07333,10.46656 6.780041,11.53049 7.40517,12.63183 8.46796,12.9255 z"
   inkscape:connector-curvature="0"
   style="fill:#bc6c00" />
      <path
   id="_192483568"
   class="fil4"
   d="m 8.87727,10.0081 c 0.548027,-0.066897 1.04805,0.321257 1.11457,0.867772 0.066897,0.546893 -0.322391,1.04692 -0.869284,1.11344 -0.548027,0.06652 -1.04805,-0.321257 -1.11457,-0.86815 -0.066519,-0.546515 0.322769,-1.04654 0.869284,-1.11306 z"
   inkscape:connector-curvature="0"
   style="fill:url(#id3)" />
      <path
   id="_192482440"
   class="fil5"
   d="m 4.99876,2.06965 0,0.857189 c 0,0.038551 0.032126,0.070676 0.070677,0.070676 l 3.86,0 c 0.038551,0 0.070677,-0.032126 0.070677,-0.070676 l 0,-0.857189 c 0,-0.038929 -0.032126,-0.070677 -0.070677,-0.070677 l -3.86,0 c -0.038551,0 -0.070677,0.031748 -0.070677,0.070677 z"
   inkscape:connector-curvature="0"
   style="fill:#d2d0d2" />
      <path
   id="_192482080"
   class="fil5"
   d="m 1.9986,4.07089 0,0.857189 c 0,0.038551 0.032126,0.070676 0.070677,0.070676 l 2.85994,0 c 0.038929,0 0.070677,-0.032126 0.070677,-0.070676 l 0,-0.857189 c 0,-0.038929 -0.031748,-0.070677 -0.070677,-0.070677 l -2.85994,0 C 2.030726,4.000213 1.9986,4.031961 1.9986,4.07089 z"
   inkscape:connector-curvature="0"
   style="fill:#d2d0d2" />
      <path
   id="_192481744"
   class="fil5"
   d="m 5.99881,4.07089 0,0.857189 c 0,0.038551 0.031748,0.070676 0.070677,0.070676 l 1.85989,0 c 0.038551,0 0.070676,-0.032126 0.070676,-0.070676 l 0,-0.857189 c 0,-0.038929 -0.032126,-0.070677 -0.070676,-0.070677 l -1.85989,0 c -0.038929,0 -0.070677,0.031748 -0.070677,0.070677 z"
   inkscape:connector-curvature="0"
   style="fill:#d2d0d2" />
      <path
   id="_192481408"
   class="fil5"
   d="m 9.00124,4.06938 0,0.857567 c 0,0.038551 0.032126,0.070677 0.070677,0.070677 l 2.857299,0 c 0.03855,0 0.07068,-0.032126 0.07068,-0.070677 l 0,-0.857567 c 0,-0.038551 -0.03213,-0.070676 -0.07068,-0.070676 l -2.857299,0 c -0.038551,0 -0.070677,0.032126 -0.070677,0.070676 z"
   inkscape:connector-curvature="0"
   style="fill:#d2d0d2" />
      <path
   id="_192481072"
   class="fil5"
   d="m 2.00011,6.07062 0,0.857567 c 0,0.038551 0.032126,0.070676 0.070677,0.070676 l 2.85994,0 c 0.038551,0 0.070677,-0.032126 0.070677,-0.070676 l 0,-0.857567 c 0,-0.038551 -0.032126,-0.070677 -0.070677,-0.070677 l -2.85994,0 c -0.038551,0 -0.070677,0.032126 -0.070677,0.070677 z"
   inkscape:connector-curvature="0"
   style="fill:#d2d0d2" />
      <path
   id="_192480736"
   class="fil6"
   d="m 1.04805,10.6548 3.37471,0.07597 0.974731,4.24928 c -0.088062,-0.0079 -0.264187,0.04535 -0.374926,0 -0.998542,-1.14292 -3.56898,-3.16797 -3.99984,-3.87474 -0.0548027,-0.09184 0.00529,-0.413099 0.025323,-0.450516 z"
   inkscape:connector-curvature="0"
   style="fill:#474747" />
      <path
   id="_192480376"
   class="fil7"
   d="m 1.01593,10.9987 3.00016,0 1.00005,3.99984 C 3.34258,13.48523 0.77895,11.50137 1.01592,10.9987 z"
   inkscape:connector-curvature="0"
   style="fill:#ffffff" />
     </g>
    </g>
   </g>
  </g>
 </g>
</svg>