<?xml version="1.0" encoding="UTF-8" standalone="no"?>
<!-- Created with Inkscape (http://www.inkscape.org/) -->

<svg
   xmlns:dc="http://purl.org/dc/elements/1.1/"
   xmlns:cc="http://creativecommons.org/ns#"
   xmlns:rdf="http://www.w3.org/1999/02/22-rdf-syntax-ns#"
   xmlns:svg="http://www.w3.org/2000/svg"
   xmlns="http://www.w3.org/2000/svg"
   xmlns:xlink="http://www.w3.org/1999/xlink"
   version="1.1"
   width="16"
   height="16"
   viewBox="0 0 16 16"
   id="svg3592"
   xml:space="preserve"><metadata
   id="metadata3671"><rdf:RDF><cc:Work
       rdf:about=""><dc:format>image/svg+xml</dc:format><dc:type
         rdf:resource="http://purl.org/dc/dcmitype/StillImage" /><dc:title></dc:title></cc:Work></rdf:RDF></metadata><defs
   id="defs3669" />
<g
   id="svg2">
	
		
	<g
   transform="translate(0,-1036.3622)"
   id="layer1">
		<g
   transform="matrix(1.3333333,0,0,1.3333333,0,1036.3622)"
   id="g25395">
			<g
   transform="scale(1,-1)"
   id="Document">
				<g
   transform="translate(0,-12)"
   id="Spread">
					<g
   id="MouseOff">
						<g
   id="Group">
							<g
   id="Group_1">
								
									<linearGradient
   x1="-53.3741"
   y1="-541.88171"
   x2="-53.3741"
   y2="-551.97662"
   id="path25298_1_"
   gradientUnits="userSpaceOnUse"
   gradientTransform="matrix(1.3333,0,0,1.3333,77.1658,732.8893)">
									<stop
   id="stop3604"
   style="stop-color:#b0b0b0;stop-opacity:1"
   offset="0" />
									<stop
   id="stop3606"
   style="stop-color:#9f9f9f;stop-opacity:1"
   offset="1" />
								</linearGradient>
								<path
   d="M 0,11.121 V 0.879 C 0,0.394 0.394,0 0.879,0 H 11.121 C 11.606,0 12,0.394 12,0.879 V 11.121 C 12,11.606 11.606,12 11.121,12 H 0.879 C 0.394,12 0,11.606 0,11.121 z"
   id="path25298"
   style="fill:url(#path25298_1_)" />
								
									<linearGradient
   x1="15.3823"
   y1="-145.7153"
   x2="24.2693"
   y2="-145.7153"
   id="path25300_1_"
   gradientUnits="userSpaceOnUse"
   gradientTransform="matrix(0,-1.3333,1.3333,0,200.2851,30.3187)">
									<stop
   id="stop3610"
   style="stop-color:#eaeaea;stop-opacity:1"
   offset="0" />
									<stop
   id="stop3612"
   style="stop-color:#cccccc;stop-opacity:1"
   offset="1" />
								</linearGradient>
								<path
   d="M 0.749,10.816 V 1.184 c 0,-0.239 0.194,-0.432 0.433,-0.432 h 9.633 c 0.239,0 0.434,0.193 0.434,0.432 v 9.632 c 0,0.238 -0.195,0.432 -0.434,0.432 H 1.182 c -0.239,0 -0.433,-0.194 -0.433,-0.432 z"
   id="path25300"
   style="fill:url(#path25300_1_)" />
								<path
   d="m 1.498,11.25 v -0.751 h 9 v 0.751 h -9 z"
   id="path25302"
   style="fill:#ffffff" />
								<path
   d="M 1.498,1.502 V 0.75 h 9 v 0.751 h -9 z"
   id="path25304"
   style="fill:#dcdcdc" />
							</g>
							<path
   d="M 1.874,9.75 C 2.081,9.75 2.249,9.582 2.249,9.375 2.249,9.168 2.081,9 1.874,9 1.667,9 1.499,9.168 1.499,9.375 c 0,0.207 0.168,0.375 0.375,0.375 z"
   id="path25306"
   style="fill:#b2b2b2" />
							<path
   d="M 1.874,3 C 2.081,3 2.249,2.832 2.249,2.625 2.249,2.418 2.081,2.25 1.874,2.25 1.667,2.25 1.499,2.418 1.499,2.625 1.499,2.832 1.667,3 1.874,3 z"
   id="path25310"
   style="fill:#999999" />
							<path
   d="M 2.999,8.686 V 3.315 C 2.999,3.142 3.141,3 3.314,3 H 3.435 C 3.608,3 3.75,3.142 3.75,3.315 v 5.371 c 0,0.173 -0.142,0.315 -0.315,0.315 H 3.314 C 3.141,9.001 2.999,8.859 2.999,8.686 z"
   id="path25314"
   style="fill:#959595" />
							
								<linearGradient
   x1="-54.584801"
   y1="-541.88239"
   x2="-54.584801"
   y2="-543.38239"
   id="path25320_1_"
   gradientUnits="userSpaceOnUse"
   gradientTransform="matrix(1.3333,0,0,1.3333,76.1535,730.7594)">
								<stop
   id="stop3621"
   style="stop-color:#9bcaf5;stop-opacity:1"
   offset="0" />
								<stop
   id="stop3623"
   style="stop-color:#5ba2de;stop-opacity:1"
   offset="1" />
							</linearGradient>
							<path
   d="M 2.248,7.865 V 6.384 C 2.248,6.173 2.421,6 2.632,6 h 1.483 c 0.211,0 0.384,0.173 0.384,0.384 v 1.481 c 0,0.211 -0.173,0.384 -0.384,0.384 H 2.632 C 2.421,8.249 2.248,8.076 2.248,7.865 z"
   id="path25320"
   style="fill:url(#path25320_1_)" />
							<path
   d="M 2.999,7.393 V 6.856 C 2.999,6.798 3.047,6.75 3.105,6.75 h 0.537 c 0.058,0 0.106,0.048 0.106,0.106 V 7.393 C 3.748,7.451 3.7,7.499 3.642,7.499 H 3.105 C 3.047,7.499 2.999,7.451 2.999,7.393 z"
   id="path25322"
   style="fill:#e9f5ff" />
						</g>
					</g>
				</g>
			</g>
		</g>
	</g>
</g>
<g
   id="Layer_2">
	<linearGradient
   x1="8.1444998"
   y1="8.0106001"
   x2="14.001"
   y2="8.0106001"
   id="path68508_2_"
   gradientUnits="userSpaceOnUse">
		<stop
   id="stop3629"
   style="stop-color:#579ad6;stop-opacity:1"
   offset="0" />
		<stop
   id="stop3631"
   style="stop-color:#518ec4;stop-opacity:1"
   offset="1" />
	</linearGradient>
	<path
   d="m 8.145,2.23 v 11.561 c 0,0.126 0.104,0.23 0.23,0.23 h 5.396 c 0.126,0 0.23,-0.104 0.23,-0.23 V 2.23 C 14.001,2.104 13.897,2 13.771,2 H 8.375 C 8.249,2 8.145,2.104 8.145,2.23 z"
   id="path68508"
   style="fill:url(#path68508_2_)" />
</g>
<g
   id="Layer_3">
	<g
   id="g3635">
		<defs
   id="defs3637"><path
     d="m 8.145,2.23 v 11.561 c 0,0.126 0.104,0.23 0.23,0.23 h 5.396 c 0.126,0 0.23,-0.104 0.23,-0.23 V 2.23 C 14.001,2.104 13.897,2 13.771,2 H 8.375 C 8.249,2 8.145,2.104 8.145,2.23 z"
     id="path68508_1_" /></defs>
		<clipPath
   id="path68508_3_">
			<use
   id="use3641"
   style="overflow:visible"
   x="0"
   y="0"
   width="16"
   height="16"
   xlink:href="#path68508_1_" />
		</clipPath>
		<g
   clip-path="url(#path68508_3_)"
   id="g3643">
			<path
   d="m 12.083,4.335 0.254,-0.851 0.161,-0.541 0.57,-0.016 1.215,-0.033 0.604,-0.017 0.166,0.582 0.245,0.854 0.771,-0.445 0.523,-0.304 0.424,0.432 0.853,0.869 0.396,0.404 -0.258,0.5 -0.408,0.787 0.004,0.008 0.008,0.018 0.855,0.228 0.586,0.157 -0.006,0.604 -0.011,1.216 -0.007,0.57 -0.537,0.17 -0.76,0.243 -0.019,0.052 -0.031,0.077 0.366,0.681 0.268,0.492 -0.39,0.412 -0.836,0.885 -0.416,0.438 -0.527,-0.292 -0.626,-0.347 -0.09,0.04 -0.095,0.037 -0.197,0.742 -0.155,0.584 L 14.378,13.564 13.16,13.553 12.592,13.549 12.421,13.009 12.178,12.242 12.101,12.21 12.04,12.184 11.326,12.568 10.831,12.839 10.419,12.447 9.535,11.61 9.097,11.196 9.392,10.667 9.83,9.88 9.824,9.87 8.961,9.613 8.423,9.451 8.407,8.883 8.374,7.667 8.356,7.064 8.938,6.897 9.813,6.646 9.347,5.839 9.044,5.315 9.476,4.891 l 0.869,-0.853 0.404,-0.397 0.499,0.26 0.835,0.434 0,0 z m 1.59,0.136 -0.238,0.804 -0.116,0.391 -0.392,0.128 c -0.076,0.024 -0.142,0.049 -0.194,0.07 L 12.73,5.867 c -0.069,0.029 -0.133,0.06 -0.193,0.09 L 12.179,6.142 11.822,5.957 11.035,5.548 11,5.579 11.409,6.286 11.63,6.665 11.419,7.05 C 11.387,7.108 11.35,7.184 11.312,7.276 11.273,7.363 11.245,7.441 11.223,7.508 l -0.129,0.399 -0.4,0.113 -0.747,0.214 0.002,0.044 0.711,0.211 0.412,0.123 0.116,0.421 c 0.021,0.078 0.052,0.167 0.09,0.266 0.036,0.091 0.075,0.177 0.117,0.258 l 0.191,0.368 -0.203,0.368 -0.336,0.604 0.034,0.03 0.576,-0.311 0.386,-0.211 0.379,0.222 c 0.099,0.061 0.197,0.11 0.288,0.148 0.11,0.048 0.215,0.086 0.309,0.112 l 0.406,0.116 0.125,0.396 0.191,0.601 0.042,0.002 0.15,-0.563 0.113,-0.428 0.435,-0.123 c 0.103,-0.028 0.213,-0.066 0.33,-0.118 0.117,-0.05 0.224,-0.104 0.316,-0.159 l 0.386,-0.232 0.394,0.22 0.468,0.26 0.03,-0.034 L 16.123,10.3 15.925,9.936 16.118,9.565 C 16.17,9.47 16.213,9.372 16.252,9.274 16.29,9.171 16.321,9.067 16.348,8.961 L 16.452,8.534 16.871,8.401 17.479,8.209 17.481,8.165 16.83,7.992 16.424,7.884 16.29,7.48 C 16.261,7.394 16.226,7.304 16.184,7.213 16.145,7.129 16.1,7.043 16.048,6.959 L 15.824,6.585 16.023,6.201 16.358,5.556 16.326,5.523 15.666,5.904 15.306,6.112 14.933,5.928 C 14.874,5.901 14.799,5.868 14.705,5.833 14.619,5.8 14.542,5.773 14.474,5.755 L 14.052,5.637 13.93,5.217 13.716,4.467 13.673,4.471 z"
   id="path3645"
   style="fill:#666666" />
			
				<linearGradient
   x1="13.6602"
   y1="8.1293001"
   x2="13.74"
   y2="3.1702001"
   id="SVGID_1_"
   gradientUnits="userSpaceOnUse"
   gradientTransform="matrix(1,0,0,-1,0.04,15.1541)">
				<stop
   id="stop3648"
   style="stop-color:#e3e3e3;stop-opacity:1"
   offset="0" />
				<stop
   id="stop3650"
   style="stop-color:#a8a8a8;stop-opacity:1"
   offset="1" />
			</linearGradient>
			<path
   d="m 12.685,5.051 0.401,-1.344 1.217,-0.033 0.38,1.331 c 0.206,0.057 0.404,0.133 0.593,0.225 l 1.184,-0.685 0.853,0.868 -0.594,1.146 c 0.127,0.213 0.232,0.439 0.312,0.678 l 1.236,0.331 -0.011,1.217 -1.149,0.364 C 17.041,9.423 16.938,9.686 16.811,9.93 l 0.551,1.021 -0.835,0.885 -0.996,-0.556 c -0.259,0.157 -0.541,0.28 -0.84,0.364 l -0.306,1.146 -1.217,-0.012 -0.361,-1.141 c -0.274,-0.08 -0.535,-0.191 -0.777,-0.334 l -1.071,0.582 -0.884,-0.838 0.629,-1.133 C 10.592,9.699 10.504,9.474 10.439,9.238 L 9.187,8.865 9.152,7.648 10.479,7.269 C 10.545,7.062 10.63,6.864 10.734,6.677 l -0.713,-1.23 0.87,-0.852 1.289,0.668 C 12.342,5.18 12.511,5.107 12.685,5.051 z"
   id="path3652"
   style="fill:url(#SVGID_1_)" />
			
				<linearGradient
   x1="13.8027"
   y1="8.7869997"
   x2="13.8027"
   y2="4.5853"
   id="SVGID_2_"
   gradientUnits="userSpaceOnUse"
   gradientTransform="matrix(1,0,0,-1,0.04,15.1541)">
				<stop
   id="stop3655"
   style="stop-color:#7f7f7f;stop-opacity:1"
   offset="0" />
				<stop
   id="stop3657"
   style="stop-color:#ffffff;stop-opacity:1"
   offset="1" />
			</linearGradient>
			<circle
   cx="13.844"
   cy="8.4680004"
   r="2.7639999"
   id="circle3659"
   style="fill:url(#SVGID_2_)" />
			<circle
   cx="13.844"
   cy="8.4689999"
   r="1.67"
   id="circle3661"
   style="fill:#999999" />
			<ellipse
   cx="13.851"
   cy="7.987"
   rx="1.339"
   ry="1.041"
   id="ellipse3663"
   style="fill:#ffffff" />
			<polygon
   points="12.589,9.101 14.539,7.194 15.171,7.836 13.223,9.744 "
   id="polygon3665"
   style="fill:#4c4c4c" />
		</g>
	</g>
</g>
</svg>