<?xml version="1.0" encoding="UTF-8" standalone="no"?>
<!-- Created with Inkscape (http://www.inkscape.org/) -->

<svg
   xmlns:dc="http://purl.org/dc/elements/1.1/"
   xmlns:cc="http://creativecommons.org/ns#"
   xmlns:rdf="http://www.w3.org/1999/02/22-rdf-syntax-ns#"
   xmlns:svg="http://www.w3.org/2000/svg"
   xmlns="http://www.w3.org/2000/svg"
   xmlns:sodipodi="http://sodipodi.sourceforge.net/DTD/sodipodi-0.dtd"
   xmlns:inkscape="http://www.inkscape.org/namespaces/inkscape"
   width="16"
   height="16"
   id="svg2"
   version="1.1"
   inkscape:version="0.48.3.1 r9886"
   sodipodi:docname="16.svg">
  <defs
     id="defs4">
    <linearGradient
       gradientTransform="translate(3,3.001)"
       y2="0"
       x2="4.5"
       y1="0"
       x1="0"
       gradientUnits="userSpaceOnUse"
       id="LinearGradient_10-824">
      <stop
         id="stop61589"
         stop-color="#b9de65"
         offset="0" />
      <stop
         id="stop61591"
         stop-color="#eaffb4"
         offset="0.530666649341583" />
      <stop
         id="stop61593"
         stop-color="#b9de65"
         offset="1" />
    </linearGradient>
    <linearGradient
       gradientTransform="translate(10.5,4.501)"
       y2="-2.25"
       x2="-3"
       y1="0"
       x1="0"
       gradientUnits="userSpaceOnUse"
       id="LinearGradient_9-470">
      <stop
         id="stop61582"
         stop-color="#b9de65"
         offset="0" />
      <stop
         id="stop61584"
         stop-color="#e2fca0"
         offset="0.422333329916" />
      <stop
         id="stop61586"
         stop-color="#b9de65"
         offset="1" />
    </linearGradient>
    <linearGradient
       gradientTransform="translate(1.5,3.751)"
       y2="0"
       x2="1.5"
       y1="0"
       x1="0"
       gradientUnits="userSpaceOnUse"
       id="LinearGradient_8-26">
      <stop
         id="stop61575"
         stop-color="#b9de65"
         offset="0" />
      <stop
         id="stop61577"
         stop-color="#eaffb4"
         offset="0.530666649341583" />
      <stop
         id="stop61579"
         stop-color="#b9de65"
         offset="1" />
    </linearGradient>
    <linearGradient
       gradientTransform="translate(3,2.251)"
       y2="4.5"
       x2="0"
       y1="0"
       x1="0"
       gradientUnits="userSpaceOnUse"
       id="LinearGradient_7-91">
      <stop
         id="stop61570"
         stop-color="#779337"
         offset="0" />
      <stop
         id="stop61572"
         stop-color="#8dac45"
         offset="1" />
    </linearGradient>
    <linearGradient
       gradientTransform="translate(4.043,5.41)"
       y2="2.214"
       x2="0"
       y1="0"
       x1="0"
       gradientUnits="userSpaceOnUse"
       id="LinearGradient_6-62">
      <stop
         id="stop61565"
         stop-color="#eca61a"
         offset="0" />
      <stop
         id="stop61567"
         stop-color="#f8c322"
         offset="1" />
    </linearGradient>
    <linearGradient
       gradientTransform="translate(8.546,5.408)"
       y2="2.211"
       x2="0"
       y1="0"
       x1="0"
       gradientUnits="userSpaceOnUse"
       id="LinearGradient_5-4069">
      <stop
         id="stop61560"
         stop-color="#6e6cd0"
         offset="0" />
      <stop
         id="stop61562"
         stop-color="#9f9cf1"
         offset="1" />
    </linearGradient>
    <linearGradient
       gradientTransform="translate(4.048,1.657)"
       y2="2.211"
       x2="0"
       y1="0"
       x1="0"
       gradientUnits="userSpaceOnUse"
       id="LinearGradient_4-656">
      <stop
         id="stop61555"
         stop-color="#b669d7"
         offset="0" />
      <stop
         id="stop61557"
         stop-color="#c87de9"
         offset="1" />
    </linearGradient>
    <linearGradient
       gradientTransform="translate(8.547,1.661)"
       y2="2.208"
       x2="0"
       y1="0"
       x1="0"
       gradientUnits="userSpaceOnUse"
       id="LinearGradient_3-229">
      <stop
         id="stop61550"
         stop-color="#ba5a2a"
         offset="0" />
      <stop
         id="stop61552"
         stop-color="#d56c38"
         offset="1" />
    </linearGradient>
    <linearGradient
       gradientTransform="matrix(0,-1,1,0,5.169,9)"
       y2="0"
       x2="7.498"
       y1="0"
       x1="0"
       gradientUnits="userSpaceOnUse"
       id="LinearGradient_2-7746">
      <stop
         id="stop61545"
         stop-color="#ebebeb"
         offset="0" />
      <stop
         id="stop61547"
         stop-color="#b0b0b0"
         offset="1" />
    </linearGradient>
    <linearGradient
       gradientTransform="translate(5.25,9.001)"
       y2="-8.25"
       x2="0"
       y1="0"
       x1="0"
       gradientUnits="userSpaceOnUse"
       id="LinearGradient_1-70">
      <stop
         id="stop61536"
         stop-color="#ffffff"
         offset="0" />
      <stop
         id="stop61538"
         stop-color="#c7c7c7"
         offset="9.09090936183929E-02" />
      <stop
         id="stop61540"
         stop-color="#c3c3c3"
         offset="0.909090936183929" />
      <stop
         id="stop61542"
         stop-color="#dfdede"
         offset="1" />
    </linearGradient>
    <linearGradient
       gradientTransform="matrix(0,-1,1,0,4.826,10.334)"
       y2="0"
       x2="10.167"
       y1="0"
       x1="0"
       gradientUnits="userSpaceOnUse"
       id="LinearGradient-86">
      <stop
         id="stop61531"
         stop-color="#9ea1a4"
         offset="0" />
      <stop
         id="stop61533"
         stop-color="#818689"
         offset="1" />
    </linearGradient>
  </defs>
  <sodipodi:namedview
     id="base"
     pagecolor="#ffffff"
     bordercolor="#666666"
     borderopacity="1.0"
     inkscape:pageopacity="0.0"
     inkscape:pageshadow="2"
     inkscape:zoom="21.483414"
     inkscape:cx="7.635054"
     inkscape:cy="6.8865193"
     inkscape:document-units="px"
     inkscape:current-layer="layer1"
     showgrid="false"
     inkscape:snap-page="true"
     inkscape:snap-grids="false"
     inkscape:snap-to-guides="false"
     inkscape:window-width="995"
     inkscape:window-height="665"
     inkscape:window-x="426"
     inkscape:window-y="200"
     inkscape:window-maximized="0">
    <inkscape:grid
       type="xygrid"
       id="grid11920"
       empspacing="5"
       visible="true"
       enabled="true"
       snapvisiblegridlinesonly="true" />
  </sodipodi:namedview>
  <metadata
     id="metadata7">
    <rdf:RDF>
      <cc:Work
         rdf:about="">
        <dc:format>image/svg+xml</dc:format>
        <dc:type
           rdf:resource="http://purl.org/dc/dcmitype/StillImage" />
        <dc:title />
      </cc:Work>
    </rdf:RDF>
  </metadata>
  <g
     inkscape:label="Layer 1"
     inkscape:groupmode="layer"
     id="layer1"
     transform="translate(0,-1036.3622)">
    <g
       style="fill-rule:evenodd;stroke-width:0.50099999;stroke-linejoin:bevel;overflow:visible"
       id="g61731"
       transform="matrix(1.3333333,0,0,1.3332222,0,1036.3635)">
      <g
         transform="scale(1,-1)"
         font-size="16"
         id="Document"
         style="font-size:16px;fill:none;stroke:#000000;font-family:Times New Roman">
        <g
           transform="translate(0,-12)"
           id="Spread">
          <g
             id="MouseOff">
            <g
               id="Group"
               style="stroke:none">
              <g
                 id="Group_1">
                <path
                   id="path61600"
                   stroke-miterlimit="79.8403193612775"
                   d="m 2.25,10.904 0,-0.805 c 0,-0.605 0.492,-1.097 1.097,-1.097 l 6.057,0 c 0.605,0 1.097,0.492 1.097,1.097 l 0,0.805 c 0,0.605 -0.492,1.097 -1.097,1.097 l -6.057,0 c -0.605,0 -1.097,-0.492 -1.097,-1.097 z"
                   inkscape:connector-curvature="0"
                   style="fill:#b0b0b0;stroke-width:0.041;marker-start:none;marker-end:none" />
                <path
                   id="path61602"
                   stroke-miterlimit="79.8403193612775"
                   d="m 3.001,10.793 0,-1.335 c 0,-0.252 0.205,-0.457 0.457,-0.457 l 5.835,0 c 0.252,0 0.457,0.205 0.457,0.457 l 0,1.335 c 0,0.252 -0.205,0.457 -0.457,0.457 l -5.835,0 c -0.252,0 -0.457,-0.205 -0.457,-0.457 z"
                   inkscape:connector-curvature="0"
                   style="fill:#e6e6e6;stroke-width:0.041;marker-start:none;marker-end:none" />
                <path
                   style="fill:url(#LinearGradient-86);stroke-width:0.041;marker-start:none;marker-end:none"
                   id="path61604"
                   stroke-miterlimit="79.8403193612775"
                   d="m 0.75,9.889 0,-9.277 C 0.75,0.275 1.025,0 1.362,0 l 10.025,0 c 0.337,0 0.612,0.275 0.612,0.612 l 0,9.277 c 0,0.337 -0.275,0.612 -0.612,0.612 l -10.025,0 C 1.025,10.501 0.75,10.226 0.75,9.889 z"
                   inkscape:connector-curvature="0" />
                <path
                   style="fill:url(#LinearGradient_1-70);stroke-width:0.041;marker-start:none;marker-end:none"
                   id="path61606"
                   stroke-miterlimit="79.8403193612775"
                   d="m 1.499,9.289 0,-8.077 C 1.499,0.957 1.706,0.75 1.961,0.75 l 8.827,0 c 0.255,0 0.462,0.207 0.462,0.462 l 0,8.077 c 0,0.255 -0.207,0.462 -0.462,0.462 l -8.827,0 C 1.706,9.751 1.499,9.544 1.499,9.289 z"
                   inkscape:connector-curvature="0" />
                <path
                   style="fill:url(#LinearGradient_2-7746);stroke-width:0.041;marker-start:none;marker-end:none"
                   id="path61608"
                   stroke-miterlimit="79.8403193612775"
                   d="m 2.249,8.671 0,-6.841 c 0,-0.181 0.148,-0.329 0.329,-0.329 l 7.593,0 c 0.181,0 0.329,0.148 0.329,0.329 l 0,6.841 C 10.5,8.852 10.352,9 10.171,9 L 2.578,9 C 2.397,9 2.249,8.852 2.249,8.671 z"
                   inkscape:connector-curvature="0" />
                <path
                   id="path61610"
                   stroke-miterlimit="79.8403193612775"
                   d="M 8.625,5.251 C 9.66,5.251 10.5,4.411 10.5,3.376 10.5,2.341 9.66,1.501 8.625,1.501 7.59,1.501 6.75,2.341 6.75,3.376 c 0,1.035 0.84,1.875 1.875,1.875 z"
                   inkscape:connector-curvature="0"
                   style="fill:#999999;stroke-width:0.049;marker-start:none;marker-end:none" />
                <path
                   style="fill:url(#LinearGradient_3-229);stroke-width:0.039;marker-start:none;marker-end:none"
                   id="path61612"
                   stroke-miterlimit="79.8403193612775"
                   d="m 8.625,1.501 c 0.828,0 1.5,0.672 1.5,1.5 0,0.828 -0.672,1.5 -1.5,1.5 -0.828,0 -1.5,-0.672 -1.5,-1.5 0,-0.828 0.672,-1.5 1.5,-1.5 z"
                   inkscape:connector-curvature="0" />
                <path
                   id="path61614"
                   stroke-miterlimit="79.8403193612775"
                   d="M 4.125,5.251 C 5.16,5.251 6,4.411 6,3.376 6,2.341 5.16,1.501 4.125,1.501 3.09,1.501 2.25,2.341 2.25,3.376 c 0,1.035 0.84,1.875 1.875,1.875 z"
                   inkscape:connector-curvature="0"
                   style="fill:#999999;stroke-width:0.049;marker-start:none;marker-end:none" />
                <path
                   style="fill:url(#LinearGradient_4-656);stroke-width:0.037;marker-start:none;marker-end:none"
                   id="path61616"
                   stroke-miterlimit="79.8403193612775"
                   d="m 4.125,1.5 c 0.828,0 1.5,0.672 1.5,1.5 0,0.828 -0.672,1.5 -1.5,1.5 -0.828,0 -1.5,-0.672 -1.5,-1.5 0,-0.828 0.672,-1.5 1.5,-1.5 z"
                   inkscape:connector-curvature="0" />
                <path
                   id="path61618"
                   stroke-miterlimit="79.8403193612775"
                   d="M 8.625,9.001 C 9.66,9.001 10.5,8.161 10.5,7.126 10.5,6.091 9.66,5.251 8.625,5.251 7.59,5.251 6.75,6.091 6.75,7.126 c 0,1.035 0.84,1.875 1.875,1.875 z"
                   inkscape:connector-curvature="0"
                   style="fill:#999999;stroke-width:0.049;marker-start:none;marker-end:none" />
                <path
                   style="fill:url(#LinearGradient_5-4069);stroke-width:0.039;marker-start:none;marker-end:none"
                   id="path61620"
                   stroke-miterlimit="79.8403193612775"
                   d="m 8.625,5.251 c 0.828,0 1.5,0.671 1.5,1.499 0,0.828 -0.672,1.499 -1.5,1.499 -0.828,0 -1.5,-0.671 -1.5,-1.499 0,-0.828 0.672,-1.499 1.5,-1.499 z"
                   inkscape:connector-curvature="0" />
                <path
                   id="path61622"
                   stroke-miterlimit="79.8403193612775"
                   d="M 4.125,9.001 C 5.16,9.001 6,8.161 6,7.126 6,6.091 5.16,5.251 4.125,5.251 3.09,5.251 2.25,6.091 2.25,7.126 c 0,1.035 0.84,1.875 1.875,1.875 z"
                   inkscape:connector-curvature="0"
                   style="fill:#999999;stroke-width:0.049;marker-start:none;marker-end:none" />
                <path
                   style="fill:url(#LinearGradient_6-62);stroke-width:0.034;marker-start:none;marker-end:none"
                   id="path61624"
                   stroke-miterlimit="79.8403193612775"
                   d="m 4.125,5.251 c 0.827,0 1.499,0.672 1.499,1.5 0,0.828 -0.672,1.5 -1.499,1.5 -0.827,0 -1.499,-0.672 -1.499,-1.5 0,-0.828 0.672,-1.5 1.499,-1.5 z"
                   inkscape:connector-curvature="0" />
                <path
                   id="path61626"
                   stroke-miterlimit="79.8403193612775"
                   d="m 4.125,8.251 c 0.414,0 0.75,-0.336 0.75,-0.75 0,-0.414 -0.336,-0.75 -0.75,-0.75 -0.414,0 -0.75,0.336 -0.75,0.75 0,0.414 0.336,0.75 0.75,0.75 z"
                   inkscape:connector-curvature="0"
                   style="fill:#ffeb98;stroke-width:0.019;marker-start:none;marker-end:none" />
                <path
                   id="path61628"
                   stroke-miterlimit="79.8403193612775"
                   d="m 8.625,8.251 c 0.414,0 0.75,-0.336 0.75,-0.749 0,-0.413 -0.336,-0.749 -0.75,-0.749 -0.414,0 -0.75,0.336 -0.75,0.749 0,0.413 0.336,0.749 0.75,0.749 z"
                   inkscape:connector-curvature="0"
                   style="fill:#d8d6ff;stroke-width:0.018;marker-start:none;marker-end:none" />
                <path
                   id="path61630"
                   stroke-miterlimit="79.8403193612775"
                   d="m 4.126,4.501 c 0.414,0 0.75,-0.336 0.75,-0.75 0,-0.414 -0.336,-0.75 -0.75,-0.75 -0.414,0 -0.75,0.336 -0.75,0.75 0,0.414 0.336,0.75 0.75,0.75 z"
                   inkscape:connector-curvature="0"
                   style="fill:#e9b1ff;stroke-width:0.019;marker-start:none;marker-end:none" />
                <path
                   id="path61632"
                   stroke-miterlimit="79.8403193612775"
                   d="m 8.625,4.501 c 0.414,0 0.75,-0.336 0.75,-0.75 0,-0.414 -0.336,-0.75 -0.75,-0.75 -0.414,0 -0.75,0.336 -0.75,0.75 0,0.414 0.336,0.75 0.75,0.75 z"
                   inkscape:connector-curvature="0"
                   style="fill:#ffa065;stroke-width:0.018;marker-start:none;marker-end:none" />
              </g>
              <g
                 stroke-miterlimit="79.8403193612775"
                 id="Group_2">
                <path
                   style="fill:url(#LinearGradient_7-91);marker-start:none;marker-end:none"
                   id="path61635"
                   d="m 6.75,0.001 0,2.25 -3.75,0 c -2.25,0 -3,0 -3,2.25 l 0,3 c 0,0.545 0.249,0.75 0.75,0.75 l 0,-0.75 C 0.972,6.668 1.5,6.751 3,6.751 l 3.75,0 0,2.25 5.25,-4.5 -5.25,-4.5 z"
                   inkscape:connector-curvature="0" />
                <path
                   style="fill:url(#LinearGradient_8-26);marker-start:none;marker-end:none"
                   id="path61637"
                   d="m 7.5,1.632 0,1.369 -4.5,0 C 1.643,3.001 1.248,3.051 1.042,3.175 0.956,3.226 0.75,3.38 0.75,4.501 l 0,1.775 L 0.783,6.25 C 0.912,6.178 1.057,6.123 1.22,6.084 1.681,5.973 2.33,6.001 3,6.001 l 4.5,0 0,1.368 L 10.847,4.501 7.5,1.632 z"
                   inkscape:connector-curvature="0" />
                <path
                   style="fill:url(#LinearGradient_9-470);marker-start:none;marker-end:none"
                   id="path61639"
                   d="m 7.5,1.632 0,0.75 2.909,2.493 L 10.847,4.501 7.5,1.632 z"
                   inkscape:connector-curvature="0" />
                <path
                   id="path61641"
                   d="M 10.409,4.125 7.5,6.619 7.5,7.369 10.847,4.501 10.409,4.125 z M 1.22,5.334 C 1.057,5.373 0.912,5.428 0.783,5.5 L 0.75,5.526 0.75,6.276 0.783,6.25 C 0.912,6.178 1.057,6.123 1.22,6.084 1.681,5.973 2.33,6.001 3,6.001 l 4.5,0 0,-0.75 -4.5,0 c -0.67,0 -1.319,-0.028 -1.78,0.083 z"
                   inkscape:connector-curvature="0"
                   style="fill:#e2fca0;marker-start:none;marker-end:none" />
                <path
                   style="fill:url(#LinearGradient_10-824);marker-start:none;marker-end:none"
                   id="path61643"
                   d="m 2.999,3.75 0,-0.749 4.501,0 0,0.749 -4.501,0 z"
                   inkscape:connector-curvature="0" />
              </g>
            </g>
          </g>
        </g>
      </g>
    </g>
  </g>
</svg>
