<?xml version="1.0" encoding="UTF-8" standalone="no"?>
<!-- Created with Inkscape (http://www.inkscape.org/) -->

<svg
   xmlns:dc="http://purl.org/dc/elements/1.1/"
   xmlns:cc="http://creativecommons.org/ns#"
   xmlns:rdf="http://www.w3.org/1999/02/22-rdf-syntax-ns#"
   xmlns:svg="http://www.w3.org/2000/svg"
   xmlns="http://www.w3.org/2000/svg"
   xmlns:sodipodi="http://sodipodi.sourceforge.net/DTD/sodipodi-0.dtd"
   xmlns:inkscape="http://www.inkscape.org/namespaces/inkscape"
   width="16"
   height="16"
   id="svg2"
   version="1.1"
   inkscape:version="0.48.3.1 r9886"
   sodipodi:docname="16.svg">
  <defs
     id="defs4">
    <linearGradient
       gradientTransform="matrix(0.04643698,0.99892122,-0.99860581,0.05322191,7.838,5.457)"
       y2="0"
       x2="1.938"
       y1="0"
       x1="0"
       gradientUnits="userSpaceOnUse"
       id="LinearGradient_3-05">
      <stop
         id="stop19710"
         stop-color="#dfdfdf"
         offset="0" />
      <stop
         id="stop19712"
         stop-color="#ffffff"
         offset="1" />
    </linearGradient>
    <linearGradient
       gradientTransform="matrix(0,1,-1,0,7.563,5.264)"
       y2="0"
       x2="2.226"
       y1="0"
       x1="0"
       gradientUnits="userSpaceOnUse"
       id="LinearGradient_2-282">
      <stop
         id="stop19705"
         stop-color="#cfc67c"
         offset="0" />
      <stop
         id="stop19707"
         stop-color="#f5eebb"
         offset="1" />
    </linearGradient>
    <linearGradient
       gradientTransform="matrix(0,-1,1,0,4.92,11.097)"
       y2="0"
       x2="7.944"
       y1="0"
       x1="0"
       gradientUnits="userSpaceOnUse"
       id="LinearGradient_1-89">
      <stop
         id="stop19700"
         stop-color="#e2e2e2"
         offset="0" />
      <stop
         id="stop19702"
         stop-color="#c5c4c4"
         offset="1" />
    </linearGradient>
    <linearGradient
       gradientTransform="matrix(0,-1,1,0,4.782,11.911)"
       y2="0"
       x2="9.573"
       y1="0"
       x1="0"
       gradientUnits="userSpaceOnUse"
       id="LinearGradient-0">
      <stop
         id="stop19695"
         stop-color="#878b8e"
         offset="0" />
      <stop
         id="stop19697"
         stop-color="#818689"
         offset="1" />
    </linearGradient>
  </defs>
  <sodipodi:namedview
     id="base"
     pagecolor="#ffffff"
     bordercolor="#666666"
     borderopacity="1.0"
     inkscape:pageopacity="0.0"
     inkscape:pageshadow="2"
     inkscape:zoom="21.492508"
     inkscape:cx="8.0630633"
     inkscape:cy="7.9340542"
     inkscape:document-units="px"
     inkscape:current-layer="layer1"
     showgrid="false"
     inkscape:window-width="807"
     inkscape:window-height="555"
     inkscape:window-x="510"
     inkscape:window-y="298"
     inkscape:window-maximized="0" />
  <metadata
     id="metadata7">
    <rdf:RDF>
      <cc:Work
         rdf:about="">
        <dc:format>image/svg+xml</dc:format>
        <dc:type
           rdf:resource="http://purl.org/dc/dcmitype/StillImage" />
        <dc:title />
      </cc:Work>
    </rdf:RDF>
  </metadata>
  <g
     inkscape:label="Layer 1"
     inkscape:groupmode="layer"
     id="layer1"
     transform="translate(0,-1036.3622)">
    <g
       style="fill-rule:evenodd;stroke-width:0.50099999;stroke-linejoin:bevel;overflow:visible"
       id="g19807"
       transform="matrix(1.3332222,0,0,1.3334701,0,1036.3609)">
      <g
         transform="scale(1,-1)"
         font-size="16"
         id="Document"
         style="font-size:16px;fill:none;stroke:#000000;font-family:Times New Roman">
        <g
           transform="translate(0,-12)"
           id="Spread">
          <g
             id="MouseOff">
            <g
               id="Group"
               style="stroke:none">
              <g
                 stroke-miterlimit="79.8403193612775"
                 id="Group_1">
                <path
                   style="fill:url(#LinearGradient-0);marker-start:none;marker-end:none"
                   id="path19719"
                   d="M 0,11.138 0,3.111 C 0,2.636 0.386,2.25 0.861,2.25 l 10.279,0 c 0.475,0 0.861,0.386 0.861,0.861 l 0,8.027 c 0,0.475 -0.386,0.861 -0.861,0.861 l -10.279,0 C 0.386,11.999 0,11.613 0,11.138 z"
                   inkscape:connector-curvature="0" />
                <path
                   style="fill:url(#LinearGradient_1-89);marker-start:none;marker-end:none"
                   id="path19721"
                   d="m 0.75,10.729 0,-7.211 c 0,-0.287 0.233,-0.52 0.52,-0.52 l 9.461,0 c 0.287,0 0.52,0.233 0.52,0.52 l 0,7.211 c 0,0.287 -0.233,0.52 -0.52,0.52 l -9.461,0 c -0.287,0 -0.52,-0.233 -0.52,-0.52 z"
                   inkscape:connector-curvature="0" />
                <path
                   id="path19723"
                   d="m 1.5,10.326 0,-6.403 C 1.5,3.828 1.578,3.75 1.673,3.75 l 8.655,0 c 0.095,0 0.173,0.078 0.173,0.173 l 0,6.403 c 0,0.095 -0.078,0.173 -0.173,0.173 l -8.655,0 C 1.578,10.499 1.5,10.421 1.5,10.326 z"
                   inkscape:connector-curvature="0"
                   style="fill:#48494f;marker-start:none;marker-end:none" />
              </g>
              <path
                 id="path19725"
                 stroke-miterlimit="79.8403193612775"
                 d="m 1.499,8.426 10e-4,1.9 c 0,0.095 0.078,0.173 0.173,0.173 l 8.655,0 c 0.095,0 0.173,-0.078 0.173,-0.173 l 0,-1.826 C 8.988,8.337 7.344,8.249 5.626,8.249 4.186,8.249 2.8,8.311 1.499,8.426 z"
                 inkscape:connector-curvature="0"
                 style="fill:#ffffff;fill-opacity:0.10980398;stroke-width:0.077;marker-start:none;marker-end:none" />
              <g
                 stroke-miterlimit="79.8403193612775"
                 id="Group_2">
                <path
                   style="fill:url(#LinearGradient_2-282);fill-opacity:0.4;marker-start:none;marker-end:none"
                   id="path19728"
                   d="m 5.515,6.031 c -0.156,0.297 0.187,0.617 0.443,0.4 0.203,-0.169 0.461,-0.27 0.742,-0.27 0.663,0 1.204,0.573 1.204,1.28 0,0.478 -0.247,0.898 -0.615,1.118 -0.283,0.17 -0.138,0.626 0.18,0.588 0.988,-0.118 1.757,-1.01 1.757,-2.091 0,-1.164 -0.888,-2.107 -1.981,-2.107 -0.743,0 -1.392,0.437 -1.73,1.082 z"
                   inkscape:connector-curvature="0" />
                <path
                   style="fill:url(#LinearGradient_3-05);marker-start:none;marker-end:none"
                   id="path19730"
                   d="M 5.774,6.184 C 6.029,5.973 6.351,5.845 6.7,5.845 c 0.828,0 1.502,0.716 1.502,1.596 0,0.598 -0.31,1.119 -0.767,1.393 0.841,-0.099 1.493,-0.859 1.493,-1.778 0,-0.989 -0.753,-1.792 -1.683,-1.792 -0.632,0 -1.182,0.372 -1.471,0.92 z"
                   inkscape:connector-curvature="0" />
              </g>
              <g
                 id="Group_3">
                <path
                   id="path19733"
                   stroke-miterlimit="79.8403193612775"
                   d="M 5.363,8.412 5.423,8.079 5.171,7.842 5.519,7.793 5.675,7.49 5.83,7.793 6.179,7.842 5.927,8.079 5.986,8.412 5.675,8.255 5.363,8.412 z"
                   inkscape:connector-curvature="0"
                   style="fill:#e4e3e2;stroke-width:0.037;marker-start:none;marker-end:none" />
                <path
                   id="path19735"
                   stroke-miterlimit="79.8403193612775"
                   d="m 5.7,8.773 c 0.414,0 0.75,-0.336 0.75,-0.75 0,-0.414 -0.336,-0.75 -0.75,-0.75 -0.414,0 -0.75,0.336 -0.75,0.75 0,0.414 0.336,0.75 0.75,0.75 z"
                   inkscape:connector-curvature="0"
                   style="fill:#d6cc87;fill-opacity:0.25490202;stroke-width:0.038;marker-start:none;marker-end:none" />
              </g>
              <g
                 id="Group_4">
                <path
                   id="path19738"
                   stroke-miterlimit="79.8403193612775"
                   d="M 3.797,6.915 3.868,6.514 3.566,6.231 3.983,6.172 4.169,5.808 4.356,6.172 4.773,6.231 4.472,6.514 4.543,6.915 4.17,6.726 3.797,6.915 z"
                   inkscape:connector-curvature="0"
                   style="fill:#e4e3e2;stroke-width:0.044;marker-start:none;marker-end:none" />
                <path
                   id="path19740"
                   stroke-miterlimit="79.8403193612775"
                   d="m 4.201,7.349 c 0.497,0 0.9,-0.403 0.9,-0.9 0,-0.497 -0.403,-0.9 -0.9,-0.9 -0.497,0 -0.9,0.403 -0.9,0.9 0,0.497 0.403,0.9 0.9,0.9 z"
                   inkscape:connector-curvature="0"
                   style="fill:#d6cc87;fill-opacity:0.25490202;stroke-width:0.046;marker-start:none;marker-end:none" />
              </g>
              <g
                 id="Group_5">
                <path
                   id="path19743"
                   stroke-miterlimit="79.8403193612775"
                   d="M 3.047,8.94 3.118,8.539 2.816,8.256 3.233,8.197 3.419,7.833 3.606,8.197 4.023,8.256 3.722,8.539 3.793,8.94 3.42,8.751 3.047,8.94 z"
                   inkscape:connector-curvature="0"
                   style="fill:#e4e3e2;stroke-width:0.044;marker-start:none;marker-end:none" />
                <path
                   id="path19745"
                   stroke-miterlimit="79.8403193612775"
                   d="m 3.451,9.374 c 0.497,0 0.9,-0.403 0.9,-0.9 0,-0.497 -0.403,-0.9 -0.9,-0.9 -0.497,0 -0.9,0.403 -0.9,0.9 0,0.497 0.403,0.9 0.9,0.9 z"
                   inkscape:connector-curvature="0"
                   style="fill:#d6cc87;fill-opacity:0.25490202;stroke-width:0.046;marker-start:none;marker-end:none" />
              </g>
            </g>
          </g>
        </g>
      </g>
    </g>
  </g>
</svg>
