<?xml version="1.0" encoding="UTF-8"?>
<!DOCTYPE svg PUBLIC "-//W3C//DTD SVG 1.1//EN" "http://www.w3.org/Graphics/SVG/1.1/DTD/svg11.dtd">
<!-- Creator: CorelDRAW -->
<svg xmlns="http://www.w3.org/2000/svg" xml:space="preserve" width="16px" height="16px" style="shape-rendering:geometricPrecision; text-rendering:geometricPrecision; image-rendering:optimizeQuality; fill-rule:evenodd; clip-rule:evenodd"
viewBox="0 0 16 16"
 xmlns:xlink="http://www.w3.org/1999/xlink">
 <defs>
  <style type="text/css">
   <![CDATA[
    .fil17 {fill:none}
    .fil22 {fill:#7FBCF0}
    .fil18 {fill:#A0D3FA}
    .fil25 {fill:#B7DD5F}
    .fil24 {fill:#BDE06B}
    .fil15 {fill:#CBCBCB}
    .fil23 {fill:#BFBFBF;fill-rule:nonzero}
    .fil26 {fill:#DAFF8F;fill-rule:nonzero}
    .fil0 {fill:black;fill-opacity:0.000000}
    .fil1 {fill:black;fill-opacity:0.003922}
    .fil2 {fill:black;fill-opacity:0.007843}
    .fil3 {fill:black;fill-opacity:0.015686}
    .fil4 {fill:black;fill-opacity:0.019608}
    .fil5 {fill:black;fill-opacity:0.023529}
    .fil6 {fill:black;fill-opacity:0.027451}
    .fil7 {fill:black;fill-opacity:0.031373}
    .fil8 {fill:black;fill-opacity:0.035294}
    .fil9 {fill:black;fill-opacity:0.043137}
    .fil10 {fill:black;fill-opacity:0.047059}
    .fil11 {fill:black;fill-opacity:0.050980}
    .fil12 {fill:black;fill-opacity:0.054902}
    .fil13 {fill:black;fill-opacity:0.058824}
    .fil16 {fill:url(#id0)}
    .fil20 {fill:url(#id1)}
    .fil14 {fill:url(#id2)}
    .fil19 {fill:url(#id3);fill-rule:nonzero}
    .fil27 {fill:url(#id4);fill-rule:nonzero}
    .fil21 {fill:url(#id5);fill-rule:nonzero}
   ]]>
  </style>
  <linearGradient id="id0" gradientUnits="userSpaceOnUse" x1="7.5062" y1="1.63475" x2="7.5062" y2="3.48409">
   <stop offset="0" style="stop-color:#7BBDF2"/>
   <stop offset="1" style="stop-color:#5C96D2"/>
  </linearGradient>
  <linearGradient id="id1" gradientUnits="userSpaceOnUse" x1="7.4325" y1="4.27723" x2="7.48636" y2="0.677202">
   <stop offset="0" style="stop-color:#4E87B4"/>
   <stop offset="1" style="stop-color:#66A1D1"/>
  </linearGradient>
  <linearGradient id="id2" gradientUnits="userSpaceOnUse" x1="7.55666" y1="5.16136" x2="7.55666" y2="11.8072">
   <stop offset="0" style="stop-color:white"/>
   <stop offset="1" style="stop-color:#E0E0E0"/>
  </linearGradient>
  <linearGradient id="id3" gradientUnits="userSpaceOnUse" x1="7.47899" y1="14.9883" x2="7.47899" y2="3.73978">
   <stop offset="0" style="stop-color:#919191"/>
   <stop offset="1" style="stop-color:#B2B2B2"/>
  </linearGradient>
  <linearGradient id="id4" gradientUnits="userSpaceOnUse" x1="10.2731" y1="15.4197" x2="10.5407" y2="4.69818">
   <stop offset="0" style="stop-color:#81A640"/>
   <stop offset="1" style="stop-color:#94B94A"/>
  </linearGradient>
  <linearGradient id="id5" gradientUnits="userSpaceOnUse" xlink:href="#id1" x1="7.49203" y1="4.42917" x2="7.59833" y2="2.45709">
  </linearGradient>
 </defs>
 <g id="Слой_x0020_1">
  <metadata id="CorelCorpID_0Corel-Layer"/>
  <g id="_398603728">
   <path id="_398599288" class="fil0" d="M7.38119 13.8303c3.97052,-0.162426 6.24392,0.0649139 7.53398,0.46035l0 1.74984 -14.9353 0 0 -1.20899c1.00943,-0.438523 3.09517,-0.824888 7.40132,-1.0012z"/>
   <g>
    <path id="_398618848" class="fil1" d="M7.3656 13.868c3.99461,-0.157608 6.27482,0.0915598 7.54957,0.504004l0 1.66849 -14.9353 0 0 -1.1676c0.996669,-0.441641 3.07647,-0.835093 7.38573,-1.00489z"/>
    <path id="_398610616" class="fil2" d="M7.35001 13.9063c4.00992,-0.151655 6.30317,0.119906 7.56516,0.547091l0 1.58713 -14.9353 0 0 -1.12962c0.989583,-0.442208 3.07221,-0.841896 7.37014,-1.00461z"/>
    <path id="_398608720" class="fil3" d="M7.33385 13.9446c4.01502,-0.144852 6.32981,0.14882 7.58132,0.58791l0 1.50804 -14.9353 0 0 -1.0973c0.987882,-0.440507 3.08469,-0.844731 7.35398,-0.998654z"/>
    <path id="_398600824" class="fil4" d="M7.31855 13.9826c4.00595,-0.136631 6.35362,0.178017 7.59663,0.625328l0 1.3887c-1.52959,0.111402 -4.35944,-0.0411027 -7.33981,0.0416696l-0.0830558 0.00226773 -7.37694 0 -0.135497 -0.0164411 0 -1.05421c0.991,-0.436539 3.11502,-0.843314 7.33867,-0.987315z"/>
    <path id="_398612416" class="fil5" d="M7.30296 14.0208c3.98214,-0.127277 6.37687,0.206647 7.61222,0.65821l0 1.21522c-1.49104,0.115654 -4.35859,-0.0269293 -7.36645,0.0481894 -3.24314,0.0810715 -6.2374,0.147686 -7.56885,-0.0218269l0 -0.930622c0.998937,-0.429169 3.16632,-0.836227 7.32308,-0.969173z"/>
    <path id="_398607232" class="fil6" d="M7.28765 14.0591c3.94161,-0.116505 6.40011,0.234427 7.62752,0.685423l0 1.04769c-1.44738,0.118206 -4.35547,-0.0130395 -7.39281,0.0541422 -3.22954,0.0717171 -6.23684,0.128977 -7.54248,-0.0286301l0 -0.813833c1.01028,-0.419247 3.23691,-0.824605 7.30777,-0.944795z"/>
    <path id="_398598016" class="fil7" d="M7.27177 14.0971c3.88463,-0.104316 6.42704,0.261073 7.6434,0.706399l0 0.886684c-1.39636,0.119056 -4.3498,0.00113387 -7.41974,0.0603784 -3.21565,0.0620792 -6.23684,0.109418 -7.51556,-0.0345829l0 -0.705265c1.02417,-0.406491 3.32875,-0.80703 7.2919,-0.913613z"/>
    <path id="_398597080" class="fil8" d="M7.25618 14.1354c3.80951,-0.0907094 6.45907,0.286018 7.65899,0.720006l0 0.734179c-1.3374,0.117639 -4.34073,0.0144568 -7.44639,0.0649139 -3.20204,0.0521579 -6.2391,0.089859 -7.48891,-0.0394019l0 -0.604351c1.03919,-0.391184 3.44015,-0.784069 7.27631,-0.875345z"/>
    <path id="_398602984" class="fil9" d="M7.24031 14.1736c3.71653,-0.0759691 6.50074,0.308412 7.67486,0.725675l0 0.590745c-1.26823,0.11282 -4.3274,0.0269293 -7.47304,0.068599 -3.18957,0.0422366 -6.24336,0.0694494 -7.46226,-0.0436539l0 -0.51024c1.05365,-0.373042 3.57055,-0.756006 7.26044,-0.831125z"/>
    <path id="_398626096" class="fil10" d="M7.225 14.2116c3.60626,-0.0592446 6.5563,0.328821 7.69017,0.723691l0 0.456665c-1.18574,0.104032 -4.30813,0.0385515 -7.49911,0.0705832 -3.17681,0.0320317 -6.25044,0.0493232 -7.43618,-0.0459216l0 -0.423783c1.06612,-0.352633 3.71908,-0.723407 7.24513,-0.781234z"/>
    <path id="_398599912" class="fil11" d="M7.20884 14.2499c3.48012,-0.0411027 6.63539,0.346113 7.70633,0.713202l0 0.33364c-1.08369,0.0904259 -4.28063,0.0479059 -7.52633,0.0700163 -3.16462,0.0215435 -6.2581,0.0280632 -7.40897,-0.047339l0 -0.344412c1.07661,-0.330239 3.88463,-0.685706 7.22897,-0.725108z"/>
    <path id="_398605696" class="fil12" d="M7.19325 14.2881c3.34151,-0.02126 6.74934,0.361704 7.72192,0.694777l0 0.222521c-0.952448,0.0691659 -4.23953,0.0541422 -7.55297,0.0654808 -3.15328,0.0110552 -6.26972,0.0068032 -7.38233,-0.0470555l0 -0.271278c1.08228,-0.305861 4.0652,-0.644037 7.21338,-0.664446z"/>
   </g>
   <path id="_398611336" class="fil13" d="M7.1771 14.3264c3.19694,0 6.92679,0.375594 7.73808,0.668698l0 0.125009c-1.47544,0.0720006 -12.7013,0.0720006 -14.9353,0.00963787l0 -0.204946c1.08256,-0.279782 4.26022,-0.598398 7.19722,-0.598398z"/>
  </g>
  <path class="fil14" d="M1.24158 2.33038l12.6301 0c0.46035,0 0.837361,0.379562 0.837361,0.836794l0 10.6337c0,0.458082 -0.377578,0.837361 -0.837361,0.837361 -5.51343,0 -3.22585,0 -12.6301,0 -0.4595,0 -0.837077,-0.376727 -0.837077,-0.837361l0 -10.6337c0,-0.46035 0.376727,-0.836794 0.837077,-0.836794z"/>
  <rect class="fil15" x="5.05109" y="8.02523" width="4.52526" height="0.969456"/>
  <path class="fil16" d="M14.6076 3.80894l-14.2031 0 0 -1.93523c0,-0.310113 0.376727,-0.563815 0.837077,-0.563815l12.5289 0c0.46035,0 0.837077,0.256537 0.837077,0.563815l0 1.93523z"/>
  <path class="fil17" d="M0.730777 13.6141l-0.089859 0.0980795m14.8962 -0.0104883l-0.100631 -0.0890086"/>
  <path class="fil18" d="M14.6011 2.04323l-14.1901 0c0.0513075,-0.629013 0.405074,-1.11969 0.830558,-1.11969l12.5287 0c0.425484,0 0.77925,0.494083 0.830841,1.11969z"/>
  <path class="fil19" d="M14.8344 3.73978c0.055276,0.147686 0.0853235,0.306995 0.0853235,0.47339l0.051024 9.40996c0,0.374743 -0.153639,0.715187 -0.400539,0.962653l0 0.00198427c-0.2469,0.2469 -0.589044,0.400539 -0.964638,0.400539l-12.2021 0c-0.375594,0 -0.717738,-0.153639 -0.964638,-0.400539l0 -0.00198427c-0.2469,-0.247467 -0.400539,-0.58791 -0.400539,-0.962653l-0.051024 -9.40996c0,-0.166395 0.0300475,-0.325703 0.0853235,-0.47339l14.7618 0zm-1.27985 0.108284l-12.2021 0c-0.0997803,0 -0.191624,0.0413862 -0.257671,0.107434l-0.00113387 -0.0008504c-0.0654808,0.0663312 -0.1063,0.157891 -0.1063,0.258522l0.051024 9.40996c0,0.100631 0.0408192,0.19219 0.1063,0.258522l0.00113387 -0.0008504c0.0660478,0.0660478 0.157891,0.107434 0.257671,0.107434l12.2021 0c0.0997803,0 0.191624,-0.0413862 0.257671,-0.107434l0.00113387 0.0008504c0.0654808,-0.0663312 0.1063,-0.157891 0.1063,-0.258522l-0.051024 -9.40996c0,-0.100631 -0.0408192,-0.19219 -0.1063,-0.258522l-0.00113387 0.0008504c-0.0660478,-0.0660478 -0.157891,-0.107434 -0.257671,-0.107434z"/>
  <path class="fil20" d="M14.9316 4.93799l-1.00007 0 -0.0119056 -3.55637c0,-0.100631 -0.0408192,-0.19219 -0.1063,-0.258522l-0.00113387 0.0008504c-0.0660478,-0.0660478 -0.157891,-0.107434 -0.257671,-0.107434l-12.2021 0c-0.0997803,0 -0.191624,0.0413862 -0.257671,0.107434l-0.00113387 -0.0008504c-0.0654808,0.0663312 -0.1063,0.157891 -0.1063,0.258522l0.0119056 3.55637 -1.00007 0 -0.0119056 -3.55637c0,-0.374743 0.153639,-0.715187 0.400539,-0.962653l0 -0.00198427c0.2469,-0.2469 0.589044,-0.400539 0.964638,-0.400539l12.2021 0c0.375594,0 0.717738,0.153639 0.964638,0.400539l0 0.00198427c0.2469,0.247467 0.400539,0.58791 0.400539,0.962653l0.0119056 3.55637z"/>
  <polygon class="fil21" points="0.603501,2.91461 14.4866,2.91461 14.4866,3.97137 0.603501,3.97137 "/>
  <rect class="fil15" x="2.02537" y="4.96435" width="2.03416" height="2.01517"/>
  <rect class="fil22" x="2.0506" y="10.9591" width="2.03416" height="2.01517"/>
  <rect class="fil22" x="2.02537" y="7.97449" width="2.03416" height="2.01517"/>
  <polygon class="fil23" points="6.47353,11.7885 10.1104,11.8087 10.1104,12.2064 6.47353,12.186 "/>
  <path class="fil24" d="M6.48345 8.38296c-0.481894,0.48246 -0.966905,0.964354 -1.44852,1.44653 -0.0337325,0.0294805 -0.046772,0.0589611 -0.0450712,0.0884416 0.0104883,0.161576 -0.0283467,0.599532 0.0762526,0.717171 1.42782,1.60386 2.70767,2.54326 4.13606,4.14712 0.0396854,0.034016 0.0796542,0.0323152 0.11934,-0.00368507 2.23797,-3.4359 4.37191,-6.41826 6.60988,-9.85387 0.0198427,0.00708667 0.0394019,0.0464886 0.0229608,-0.064347 -0.0198427,-0.133796 0.0575438,-0.0745518 0.00878747,-0.175182 -0.0538587,-0.109985 -0.108568,-0.150804 -0.236128,-0.109135l-0.232726 0.0700163 -6.56878 6.19602c-0.0890086,0.0411027 -0.0737014,0.0575438 -0.165828,-0.0093544 -0.848416,-0.930055 -1.29006,-1.50322 -2.13819,-2.433 -0.0385515,-0.0405358 -0.0844731,-0.0459216 -0.138048,-0.0167245z"/>
  <path class="fil25" d="M6.16285 8.98703c-0.481894,0.481894 -0.734462,0.683155 -1.21607,1.1659 -0.0671816,0.0586776 -0.0524414,0.117639 0.000283467,0.177167 1.52392,1.71072 2.81794,3.70236 4.34101,5.41308 0.0399688,0.034016 0.0796542,0.0323152 0.119623,-0.00368507 2.23769,-3.43562 4.2795,-7.08979 6.51719,-10.5254 0.0464886,-0.22649 0.211466,-0.496634 -0.0615123,-0.362838l-6.85224 6.95174c-0.0887251,0.0413862 -0.0734179,0.0575438 -0.165545,-0.00907094 -0.848133,-0.930055 -1.69655,-1.86068 -2.54468,-2.79045 -0.038268,-0.0405358 -0.0841896,-0.0459216 -0.138048,-0.0164411z"/>
  <path class="fil26" d="M15.9748 4.72001l-0.0136064 0.00283467 0.0164411 0.0360003c0.0731344,0.112253 0.142584,0.37531 0.0464886,0.121607l-0.0034016 0.000566934c0.00283467,0.0107717 0.00198427,0.0130395 -0.004252,0.0008504l-0.00566934 0.00141733c0.0578272,0.120757 0.0949614,0.273829 0.0133229,0.060095l-0.0385515 -0.0093544c0.00283467,0.008504 0.00141733,0.00992134 -0.00481894,-0.0008504l-0.0209765 -0.00481894 0.0059528 0.0192757 0.0034016 -0.0008504c0.0966622,0.256254 0.0802211,0.140883 0.00651974,0.0308979l-0.285451 -0.0717171 0.0864574 -0.0206931 0.173198 0.0402523 0.0107717 0.0235277 -0.0051024 0.000566934c0.0572603,0.12104 0.0943944,0.274679 0.0136064,0.060095l-0.294805 0.0731344 -6.26292 7.27943c-0.113103,0.0351499 -0.0742683,0.0394019 -0.183686,-0.004252l-2.57756 -2.49451 -0.00141733 -0.00368507c-0.0399688,-0.0419531 -0.0873078,-0.0663312 -0.139466,-0.0720006 -0.0479059,-0.0059528 -0.0980795,0.00566934 -0.148253,0.0328821l-0.0141733 0.0076536 -0.012756 0.0130395 -1.36007 0.859755 -0.00141733 -0.00283467 0 -0.00141733 -0.00198427 -0.00368507 -0.0008504 -0.00283467 -0.000566934 -0.00141733 -0.00226773 -0.004252 0 -0.00141733 -0.0008504 -0.00141733 0 -0.00198427 -0.00198427 -0.00453547 0 -0.00198427 -0.0008504 -0.00226773 -0.00141733 -0.00481894 -0.000566934 -0.00141733 -0.0008504 -0.00311813 -0.00141733 -0.00481894 0 -0.00141733 -0.00141733 -0.00368507 -0.00141733 -0.004252 0 -0.00141733 -0.00141733 -0.004252 -0.000566934 -0.0051024 -0.0017008 -0.0051024 -0.00141733 -0.004252 0 -0.000566934 0 -0.00566934 -0.00141733 -0.00368507 0 -0.0008504 -0.000566934 -0.000566934 -0.0008504 -0.00566934 -0.000566934 -0.00283467 -0.0008504 -0.00283467 -0.000566934 -0.0059528 -0.0008504 -0.00141733 0 -0.004252 -0.000566934 -0.004252 -0.0008504 -0.00226773 -0.000566934 -0.004252 -0.0008504 -0.00566934 0 -0.000566934 -0.000566934 -0.0051024 0 -0.00566934 -0.0008504 0 0.0615123 0.420665 0 -0.0059528 0 0 -0.00141733 -0.00623627 -0.0408192 -0.0980795 0 -0.00141733 0.00708667 -0.00708667 0 -0.00368507 -0.000566934 -0.0051024 -0.0008504 -0.00198427 0 -0.00368507 -0.00141733 -0.00566934 0 -0.00141733 -0.000566934 -0.0051024 0 -0.00481894 -0.0008504 -0.0008504 -0.000566934 -0.00566934 0 -0.00566934 0 0 -0.00141733 -0.00566934 -0.0008504 -0.0051024 0 -0.00141733 0.0257955 -0.0257955 0 -0.00141733 -0.000566934 -0.00226773 -0.00141733 -0.004252 -0.0008504 -0.00141733 -0.0008504 -0.0034016 -0.00141733 -0.00453547 0 -0.00141733 -0.00141733 -0.0034016 -0.00141733 -0.0051024 0 -0.000566934 -0.00141733 -0.00453547 -0.000566934 -0.00481894 -0.00141733 -0.00566934 -0.00141733 -0.00368507 0 -0.00141733 0 -0.00566934 -0.00141733 -0.00283467 0 -0.00141733 0 0 -0.00141733 -0.0059528 -0.0008504 -0.0034016 -0.000566934 -0.00226773 -0.0008504 -0.00566934 -0.0008504 -0.00226773 0 -0.0034016 -0.000566934 -0.0051024 -0.0008504 -0.00141733 0 -0.004252 -0.00141733 -0.00566934 0 -0.00141733 -0.000566934 -0.004252 0 -0.0059528 -0.0008504 -0.000566934 -0.000566934 -0.0051024 0 -0.00566934 0 0 -0.00141733 -0.00651974 -0.0008504 -0.00481894 0 -0.00141733 0.00708667 -0.00737014 0 -0.0034016 -0.000566934 -0.00566934 -0.0008504 -0.00141733 0 -0.00368507 -0.00141733 -0.00566934 0 -0.00226773 -0.000566934 -0.004252 0 -0.0051024 -0.0008504 -0.000566934 -0.000566934 -0.00566934 0 -0.0059528 0 0 -0.00141733 -0.00566934 -0.0008504 -0.00481894 0 -0.00141733 0.302743 -0.303309 -0.338459 0.254553 -0.00141733 -0.00283467 0 -0.00141733 -0.00226773 -0.00368507 -0.000566934 -0.00283467 -0.0008504 -0.00141733 -0.00198427 -0.004252 0 -0.00141733 -0.0008504 -0.00141733 0 -0.00226773 -0.00198427 -0.004252 0 -0.00198427 -0.0008504 -0.00226773 -0.00141733 -0.0051024 -0.000566934 -0.00141733 -0.0008504 -0.00283467 -0.00141733 -0.0051024 0 -0.00141733 -0.00141733 -0.0034016 -0.00141733 -0.004252 0 -0.00141733 -0.00141733 -0.00453547 -0.0008504 -0.00481894 -0.00141733 -0.0051024 -0.00141733 -0.004252 0 -0.0008504 0 -0.00566934 -0.00141733 -0.0034016 0 -0.0008504 -0.000566934 -0.000566934 -0.0008504 -0.0059528 -0.000566934 -0.00283467 -0.0008504 -0.00283467 -0.000566934 -0.00566934 -0.0008504 -0.00141733 0 -0.004252 -0.000566934 -0.004252 -0.0008504 -0.00226773 -0.000566934 -0.004252 -0.0008504 -0.00566934 0 -0.0008504 -0.0008504 -0.00481894 0 -0.0059528 -0.000566934 0 0.0215435 0.327688 0 -0.00566934 0 0 -0.00141733 -0.00651974 -0.0008504 -0.00481894 0 -0.00141733 0.00708667 -0.00737014 0 -0.0034016 -0.000566934 -0.0051024 -0.0008504 -0.00198427 0 -0.00368507 -0.00141733 -0.00566934 0 -0.00141733 -0.000566934 -0.0051024 0 -0.0051024 -0.0008504 -0.000566934 -0.000566934 -0.00566934 0 -0.0059528 0 0 -0.00141733 -0.00566934 -0.0008504 -0.00481894 0 -0.00141733 0.0257955 -0.0257955 0 -0.00141733 -0.0008504 -0.00226773 -0.00141733 -0.004252 -0.000566934 -0.00141733 -0.0008504 -0.00368507 -0.00141733 -0.004252 0 -0.00141733 -0.00141733 -0.00368507 -0.00141733 -0.00481894 0 -0.0008504 -0.00141733 -0.004252 -0.000566934 -0.0051024 -0.00141733 -0.00566934 -0.00141733 -0.0034016 0 -0.00141733 0 -0.0059528 -0.0017008 -0.00283467 0 -0.00141733 0 0 -0.00141733 -0.00566934 -0.000566934 -0.0034016 -0.0008504 -0.00226773 -0.000566934 -0.00566934 -0.0008504 -0.00226773 0 -0.0034016 -0.000566934 -0.0051024 -0.0008504 -0.00141733 0 -0.004252 -0.00141733 -0.00566934 0 -0.0017008 -0.000566934 -0.004252 0 -0.00566934 -0.0008504 -0.000566934 -0.000566934 -0.0051024 0 -0.00566934 0 0 -0.00141733 -0.00651974 -0.0008504 -0.0051024 0 -0.00141733 0.00708667 -0.00708667 0 -0.00368507 -0.000566934 -0.00566934 -0.0008504 -0.00141733 0 -0.0034016 -0.00141733 -0.0059528 0 -0.00198427 -0.000566934 -0.004252 0 -0.0051024 -0.0008504 -0.000566934 -0.000566934 -0.0059528 0 -0.00566934 0 0 -0.00141733 -0.00566934 -0.0008504 -0.0051024 0 -0.00141733 1.30763 -1.75749 0.0130395 -0.0121891 0.0141733 -0.008504c0.0501736,-0.0272128 0.100064,-0.0374176 0.148253,-0.0323152 0.0521579,0.00566934 0.0992134,0.0300475 0.139466,0.0714336l0.00141733 0.00226773 2.28049 2.21331 0.100914 -0.00283467 6.38736 -5.94175 0.308412 -0.285451 0.314081 -0.0802211c0.0737014,0.110269 0.145135,0.380696 0.0484728,0.124442zm-0.0549926 0.0501736l-0.294805 -0.0694494 -0.0334491 0.0328821 0.238112 0.059528 0.0901424 -0.0229608z"/>
  <path class="fil27" d="M4.97881 10.9739l-0.00283467 -0.0700163c-0.0615123,-0.104599 -0.128694,-0.251719 -0.185387,-0.397704 -0.0844731,-0.215435 -0.11367,-0.454397 -0.12019,-0.567501l0 -0.0034016c-0.00283467,-0.0609454 0.008504,-0.130962 0.0445043,-0.198994l0.00198427 -0.00566934c0.0192757,-0.0351499 0.0479059,-0.0737014 0.0873078,-0.110836l-0.000566934 -0.0008504c0.270994,-0.270994 0.542839,-0.548508 0.814684,-0.825455l0.670966 -0.735313 0.0708667 -0.0521579c0.0802211,-0.043087 0.165828,-0.0629296 0.253986,-0.0524414 0.0952448,0.0116221 0.176033,0.0538587 0.244632,0.125292l0.00651974 0.00566934 2.26036 2.44008 5.93976 -6.1569 0.120757 -0.0694494 0.225356 -0.068032c0.375027,-0.123025 0.530083,0.307561 0.621643,0.591595 0.0895755,0.068599 0.113954,0.18397 0.0980795,0.33279 -0.00708667,0.0742683 -0.0314648,0.1423 -0.0549926,0.217419l-0.0102048 -0.00283467 -0.00708667 0.0164411 0.0130395 0.004252 -0.0229608 0.0737014 -0.0158741 0.0620792 -0.0399688 0.0909928c-1.10949,1.70392 -1.98795,3.26554 -3.04812,5.06385 -1.0596,1.79491 -1.93665,3.43307 -3.06314,5.1642l-0.0530083 0.0615123c-0.089292,0.0788038 -0.213167,0.104599 -0.324853,0.0909928l0 -0.0008504c-0.0921267,-0.0104883 -0.199561,-0.0535752 -0.26164,-0.105166l-0.0328821 -0.0306144c-1.47743,-1.66027 -2.63397,-2.97952 -4.11282,-4.63922l0.0008504 -0.000566934c-0.0651974,-0.0731344 -0.107434,-0.156757 -0.118773,-0.2469zm0.758841 -0.138048c1.39154,1.56729 2.38934,2.68131 3.78003,4.24917 1.05818,-1.63957 1.89072,-2.99086 2.90667,-4.71207 1.04996,-1.78045 1.8655,-3.38006 2.9815,-5.09617l0.060095 0.0249451 0.004252 -0.0164411 0.0235277 -0.0756856 0.0051024 -0.0093544 0.00226773 -0.00992134 0.0093544 -0.0308979 -0.0059528 -0.0141733 -0.0342995 -0.100347 -0.00141733 -0.00566934c-0.0206931,-0.064347 0.315499,-0.294522 0.130111,-0.23386l-0.00708667 0.00226773 -0.162993 0.0493232 -6.02764 6.34512 -0.0751187 0.0507406 -0.0323152 0.0158741 0.0008504 0.000566934c-0.200411,0.103182 -0.216852,0.113103 -0.444192,-0.0521579l-0.0464886 -0.0408192 -2.24619 -2.39841 -1.18631 1.20672c0.0223939,0.076536 0.0615123,0.0830558 0.105166,0.195309 0.0623627,0.160159 0.324853,0.59528 0.261073,0.655942z"/>
  <rect class="fil15" x="5.02558" y="4.98987" width="6.99143" height="0.969456"/>
 </g>
</svg>
