<?xml version="1.0" encoding="UTF-8" standalone="no"?>
<!-- Creator: CorelDRAW -->

<svg
   xmlns:dc="http://purl.org/dc/elements/1.1/"
   xmlns:cc="http://creativecommons.org/ns#"
   xmlns:rdf="http://www.w3.org/1999/02/22-rdf-syntax-ns#"
   xmlns:svg="http://www.w3.org/2000/svg"
   xmlns="http://www.w3.org/2000/svg"
   xmlns:sodipodi="http://sodipodi.sourceforge.net/DTD/sodipodi-0.dtd"
   xmlns:inkscape="http://www.inkscape.org/namespaces/inkscape"
   xml:space="preserve"
   width="16px"
   height="16px"
   style="shape-rendering:geometricPrecision; text-rendering:geometricPrecision; image-rendering:optimizeQuality; fill-rule:evenodd; clip-rule:evenodd"
   viewBox="0 0 16 16"
   id="svg3073"
   version="1.1"
   inkscape:version="0.48.1 r9760"
   sodipodi:docname="preferences-desktop-font.svg"><metadata
   id="metadata3147"><rdf:RDF><cc:Work
       rdf:about=""><dc:format>image/svg+xml</dc:format><dc:type
         rdf:resource="http://purl.org/dc/dcmitype/StillImage" /><dc:title></dc:title></cc:Work></rdf:RDF></metadata><sodipodi:namedview
   pagecolor="#ffffff"
   bordercolor="#666666"
   borderopacity="1"
   objecttolerance="10"
   gridtolerance="10"
   guidetolerance="10"
   inkscape:pageopacity="0"
   inkscape:pageshadow="2"
   inkscape:window-width="646"
   inkscape:window-height="480"
   id="namedview3145"
   showgrid="false"
   inkscape:zoom="16.625"
   inkscape:cx="8"
   inkscape:cy="8"
   inkscape:window-x="0"
   inkscape:window-y="24"
   inkscape:window-maximized="0"
   inkscape:current-layer="svg3073" />
 <defs
   id="defs3075">
  <style
   type="text/css"
   id="style3077">
   
    .fil22 {fill:#666666}
    .fil14 {fill:#6B8242}
    .fil15 {fill:#9CD2FF}
    .fil21 {fill:white}
    .fil16 {fill:#6097D0;fill-rule:nonzero}
    .fil0 {fill:black;fill-opacity:0.000000}
    .fil1 {fill:black;fill-opacity:0.003922}
    .fil2 {fill:black;fill-opacity:0.007843}
    .fil3 {fill:black;fill-opacity:0.015686}
    .fil4 {fill:black;fill-opacity:0.019608}
    .fil5 {fill:black;fill-opacity:0.023529}
    .fil6 {fill:black;fill-opacity:0.027451}
    .fil7 {fill:black;fill-opacity:0.031373}
    .fil8 {fill:black;fill-opacity:0.035294}
    .fil9 {fill:black;fill-opacity:0.043137}
    .fil10 {fill:black;fill-opacity:0.047059}
    .fil11 {fill:black;fill-opacity:0.050980}
    .fil12 {fill:black;fill-opacity:0.054902}
    .fil13 {fill:black;fill-opacity:0.058824}
    .fil17 {fill:#6097D0;fill-opacity:0.780392}
    .fil18 {fill:url(#id0)}
    .fil19 {fill:url(#id1);fill-rule:nonzero}
    .fil20 {fill:url(#id2);fill-rule:nonzero}
   
  </style>
  <linearGradient
   id="id0"
   gradientUnits="userSpaceOnUse"
   x1="13.1571"
   y1="4.75232"
   x2="12.9077"
   y2="15.5076">
   <stop
   offset="0"
   style="stop-color:#FCFCFC"
   id="stop3080" />
   <stop
   offset="1"
   style="stop-color:#DBDBDB"
   id="stop3082" />
  </linearGradient>
  <linearGradient
   id="id1"
   gradientUnits="userSpaceOnUse"
   x1="0.930055"
   y1="7.51187"
   x2="14.9775"
   y2="7.51187">
   <stop
   offset="0"
   style="stop-color:#919191"
   id="stop3085" />
   <stop
   offset="1"
   style="stop-color:#B2B2B2"
   id="stop3087" />
  </linearGradient>
  <linearGradient
   id="id2"
   gradientUnits="userSpaceOnUse"
   x1="7.49344"
   y1="10.2023"
   x2="7.49344"
   y2="4.69676">
   <stop
   offset="0"
   style="stop-color:#383838"
   id="stop3090" />
   <stop
   offset="1"
   style="stop-color:#4F4F4F"
   id="stop3092" />
  </linearGradient>
 </defs>
 <g
   id="Слой_x0020_1">
  <metadata
   id="CorelCorpID_0Corel-Layer" />
  <g
   id="_104735504">
   <path
   id="_294297208"
   class="fil0"
   d="M7.75083 13.8303c3.81943,-0.162426 6.00666,0.0649139 7.24768,0.46035l0 1.74984 -14.3678 0 0 -1.20899c0.970874,-0.438523 2.97754,-0.824888 7.12012,-1.0012z" />
   <g
   id="g3098">
    <path
   id="_294287560"
   class="fil1"
   d="M7.73553 13.868c3.84324,-0.157608 6.03671,0.0915598 7.26299,0.504004l0 1.66849 -14.3678 0 0 -1.1676c0.958685,-0.441641 2.95968,-0.835093 7.10481,-1.00489z" />
    <path
   id="_294278728"
   class="fil2"
   d="M7.72079 13.9063c3.8577,-0.151655 6.06364,0.119906 7.27773,0.547091l0 1.58713 -14.3678 0 0 -1.12962c0.952165,-0.442208 2.95542,-0.841896 7.09007,-1.00461z" />
    <path
   id="_294309928"
   class="fil3"
   d="M7.70519 13.9446c3.8628,-0.144852 6.08943,0.14882 7.29332,0.58791l0 1.50804 -14.3678 0 0 -1.0973c0.950464,-0.440507 2.96733,-0.844731 7.07448,-0.998654z" />
    <path
   id="_294300016"
   class="fil4"
   d="M7.69074 13.9826c3.85345,-0.136631 6.11211,0.178017 7.30777,0.625328l0 1.3887c-1.47119,0.111402 -4.19389,-0.0411027 -7.06116,0.0416696l-0.0796542 0.00226773 -7.09659 0 -0.130395 -0.0164411 0 -1.05421c0.953299,-0.436539 2.99681,-0.843314 7.06002,-0.987315z" />
    <path
   id="_294298768"
   class="fil5"
   d="M7.67543 14.0208c3.83105,-0.127277 6.13451,0.206647 7.32308,0.65821l0 1.21522c-1.43434,0.115654 -4.19304,-0.0269293 -7.08667,0.0481894 -3.11984,0.0810715 -6.00014,0.147686 -7.28113,-0.0218269l0 -0.930622c0.960952,-0.429169 3.04585,-0.836227 7.04472,-0.969173z" />
    <path
   id="_294307528"
   class="fil6"
   d="M7.66069 14.0591c3.79222,-0.116505 6.1569,0.234427 7.33782,0.685423l0 1.04769c-1.39211,0.118206 -4.18992,-0.0130395 -7.1119,0.0541422 -3.1068,0.0717171 -5.99957,0.128977 -7.2559,-0.0286301l0 -0.813833c0.972008,-0.419247 3.11388,-0.824605 7.02998,-0.944795z" />
    <path
   id="_294305872"
   class="fil7"
   d="M7.64538 14.0971c3.73694,-0.104316 6.18298,0.261073 7.35313,0.706399l0 0.886684c-1.34335,0.119056 -4.18454,0.00113387 -7.13769,0.0603784 -3.09376,0.0620792 -6.00014,0.109418 -7.2301,-0.0345829l0 -0.705265c0.985331,-0.406491 3.20232,-0.80703 7.01467,-0.913613z" />
    <path
   id="_294278296"
   class="fil8"
   d="M7.63064 14.1354c3.66466,-0.0907094 6.21388,0.286018 7.36787,0.720006l0 0.734179c-1.28666,0.117639 -4.17575,0.0144568 -7.16349,0.0649139 -3.08043,0.0521579 -6.00213,0.089859 -7.20431,-0.0394019l0 -0.604351c0.999787,-0.391184 3.30947,-0.784069 6.99993,-0.875345z" />
    <path
   id="_294299368"
   class="fil9"
   d="M7.61534 14.1736c3.57537,-0.0759691 6.25356,0.308412 7.38318,0.725675l0 0.590745c-1.22004,0.11282 -4.16299,0.0269293 -7.189,0.068599 -3.06824,0.0422366 -6.00638,0.0694494 -7.1788,-0.0436539l0 -0.51024c1.01339,-0.373042 3.43477,-0.756006 6.98462,-0.831125z" />
    <path
   id="_294281728"
   class="fil10"
   d="M7.60088 14.2116c3.46878,-0.0592446 6.30685,0.328821 7.39763,0.723691l0 0.456665c-1.14095,0.104032 -4.14428,0.0385515 -7.21423,0.0705832 -3.05606,0.0320317 -6.01261,0.0493232 -7.15357,-0.0459216l0 -0.423783c1.02558,-0.352633 3.57763,-0.723407 6.97017,-0.781234z" />
    <path
   id="_294294976"
   class="fil11"
   d="M7.585 14.2499c3.34803,-0.0411027 6.38311,0.346113 7.41351,0.713202l0 0.33364c-1.04259,0.0904259 -4.11792,0.0479059 -7.24031,0.0700163 -3.04443,0.0215435 -6.02055,0.0280632 -7.12749,-0.047339l0 -0.344412c1.0355,-0.330239 3.73694,-0.685706 6.95429,-0.725108z" />
    <path
   id="_294308392"
   class="fil12"
   d="M7.56998 14.2881c3.21423,-0.02126 6.49281,0.361704 7.42853,0.694777l0 0.222521c-0.916165,0.0691659 -4.07852,0.0541422 -7.2661,0.0654808 -3.03366,0.0110552 -6.03132,0.0068032 -7.10169,-0.0470555l0 -0.271278c1.04117,-0.305861 3.91071,-0.644037 6.93927,-0.664446z" />
   </g>
   <path
   id="_294302704"
   class="fil13"
   d="M7.55439 14.3264c3.07533,0 6.66345,0.375594 7.44412,0.668698l0 0.125009c-1.41932,0.0720006 -12.2186,0.0720006 -14.3678,0.00963787l0 -0.204946c1.04146,-0.279782 4.09865,-0.598398 6.92368,-0.598398z" />
  </g>
  <path
   class="fil14"
   d="M15.7299 11.3713c-0.110836,0.131245 -0.330522,0.20438 -0.575154,0.286301 -0.258238,0.0858904 -0.437389,0.179434 -0.561831,0.280065l0 -4.87393c0.11934,0.0819219 0.279782,0.159025 0.494933,0.230742 0.278081,0.0926936 0.549359,0.174332 0.639501,0.342711l0.0025512 3.73411z"
   id="path3113" />
  <path
   class="fil15"
   d="M11.7931 1.18234l1.53327 -0.101198c0.151371,0 0.290837,0.0598115 0.399405,0.159025 0.153922,0.12671 0.252285,0.3189 0.252569,0.533485l0.0300475 2.81908c0.000566934,0.122174 -0.0277797,0.196159 0.0932606,0.241514 0.0354333,0.0133229 0.0739848,0.0272128 0.113954,0.0408192 0.252002,0.0839062 1.15683,0.340727 1.15683,0.620792l0.00311813 7.11105c-0.0907094,0.167812 -0.335908,0.249451 -0.613989,0.342428 -0.110269,0.0368507 -0.206364,0.0751187 -0.289987,0.114521l-0.337042 0.967189c-0.0144568,0.380129 -0.357735,0.712352 -0.733896,0.707533 -0.522713,-0.0068032 -1.05081,0.0323152 -1.56077,0.0323152l-7.05067 -0.00368507c-0.376444,0 -0.691659,-0.304727 -0.691659,-0.675785 0,-4.45468 -0.02126,-4.56495 -0.02126,-12.1627 0,-0.371342 0.311247,-0.674368 0.691376,-0.676635l6.97839 -0.0711502c0.0155907,-0.000283467 0.0311813,0.000566934 0.0470555,0.00141733z"
   id="path3115" />
  <path
   class="fil16"
   d="M12.3478 0.735029l1.52137 -0.100347 0.0266459 -0.0017008c0.126993,0 0.251435,0.0257955 0.36879,0.0725675 0.119623,0.0476224 0.22734,0.115654 0.31805,0.198427l-0.000566934 0.000283467c0.119623,0.102332 0.217703,0.229608 0.285451,0.372192 0.0671816,0.142867 0.106017,0.30416 0.1063,0.47509l0.0291971 2.72525 0.008504 0.00283467 0 0.000566934c0.4252,0.135497 0.99185,0.454114 0.99185,1.01566l-0.0017008 0 0.0034016 6.85649 -0.0501736 0.201828c-0.17093,0.316065 -0.693076,0.422932 -1.05478,0.543973l-0.008504 0.00311813 -0.00311813 0.00113387 -0.000283467 -0.00113387 -0.077103 0.0280632 -0.255687 0.734179c-0.0291971,0.277231 -0.163277,0.532067 -0.357168,0.718872 -0.211183,0.203246 -0.498335,0.331373 -0.802778,0.327688 -0.270994,-0.00368507 -0.519028,-0.357452 -0.799943,-0.348097 -0.260789,0.00907094 -0.519595,0.0181419 -0.719439,0.0181419l0 0.252852 -7.05067 -0.112536 0 0.256254c-0.303593,0 -0.582524,-0.378145 -0.78492,-0.576005 -0.205513,-0.200411 -0.333924,-0.477642 -0.333924,-0.782085 0,-2.50811 -0.0399688,-3.1255 -0.0433704,-4.38211 -0.00651974,-2.28446 -0.0141733,-3.56913 -0.0141733,-7.30749 0,-0.303876 0.126993,-0.580257 0.331089,-0.780668l0.00141733 -0.00141733c0.200978,-0.196159 0.478775,-0.318617 0.782652,-0.320601l7.54787 -0.0918432 0.0153072 0 0.0204096 0.000566934zm1.38729 0.773297l-1.3459 0.0793707 -0.0266459 -0.426051 -0.0119056 0.426051 -0.043087 -0.00141733 -7.53653 0.0918432 -0.00198427 0c-0.0737014,0.000283467 -0.142017,0.0303309 -0.191057,0.0785203l-0.00141733 0.00141733c-0.0445043,0.0436539 -0.0725675,0.104316 -0.0725675,0.17093 0,4.86712 0.0059528,5.53781 0.0110552,7.30749 0.0051024,1.84792 0.0464886,3.02686 0.0464886,4.38211 0,0.0657643 0.0283467,0.126426 0.0737014,0.170647 0.0487563,0.0476224 0.116788,0.0779534 0.190206,0.0779534l0 0.00141733 7.01467 0.221671 0 -0.0017008c0.264758,0 0.478775,-0.00737014 0.692509,-0.0147403 0.286301,-0.00963787 0.575154,-0.0195592 0.872794,-0.0155907 0.0708667,0.0008504 0.143718,-0.0348664 0.201828,-0.0904259 0.0589611,-0.0569768 0.0986464,-0.132379 0.101481,-0.208348l0.0235277 -0.123308 0.337042 -0.967189 0.0586776 -0.16923 0.161576 -0.0762526c0.0518744,-0.0246616 0.106017,-0.0481894 0.161576,-0.0700163 0.0416696,-0.0164411 0.0997803,-0.0371342 0.176883,-0.0629296l0.00141733 -0.0008504 0 0 0.00226773 -0.0008504 0.00283467 -0.00141733 0.0034016 -0.00113387 0 0.000566934c0.129261,-0.0433704 0.338176,-0.0827723 0.402523,-0.109702l0.0513075 -6.68131 -0.0017008 0c0,-0.0589611 -0.0994968,-0.128694 -0.337325,-0.20438l-0.0017008 0 -0.0963787 -0.0311813 -0.00992134 -0.0034016 -0.0566934 -0.0198427 -0.0068032 -0.00141733 -0.0569768 -0.02126 -0.0034016 -0.00141733c-0.388066,-0.145985 -0.543689,-0.303309 -0.533201,-0.576571l0.000283467 0 0.00113387 -0.0513075 -0.029764 -2.81001 0 -0.0017008c0,-0.0385515 -0.00963787,-0.077103 -0.0263624,-0.112536 -0.017008,-0.0357168 -0.0416696,-0.0674651 -0.0711502,-0.0915598l-0.0167245 -0.0133229c-0.0195592,-0.0178584 -0.0394019,-0.0314648 -0.0572603,-0.0385515 -0.0138899,-0.00538587 -0.0320317,-0.00878747 -0.0527248,-0.00907094z"
   id="path3117" />
  <path
   class="fil17"
   d="M11.8781 1.17384l0.96889 0.126143c0.0909928,0 0.900857,-0.1063 0.979094,-0.0671816l0.189639 4.06661c0.00566934,0.230742 -0.0408192,0.338743 0.224222,0.525831 0.072284,0.0325987 0.153922,0.0640635 0.245766,0.0946779 0.168379,0.0561264 0.335341,0.108851 0.459216,0.178017 0.164127,0.0915598 0.180001,0.198994 0.180001,0.381263l0.124442 5.57381c-0.119056,0.0759691 -0.568634,1.02927 -0.746652,1.0888 -0.110552,0.0368507 -0.206364,0.0751187 -0.289987,0.114237l-0.1766 -0.410176c-0.0402523,0.0161576 -0.0785203,0.034016 -0.117639,0.0541422 -0.166112,0.0841896 -0.241514,0.456382 -0.175182,0.28942l0.284884 -0.720289c0.139466,-0.352066 -0.302743,0.712069 -0.679186,0.70725 -0.522713,-0.0068032 -1.05223,0.0323152 -1.56048,0.0323152l-7.16746 0c-0.152789,0 -0.298491,-0.0507406 -0.414712,-0.136631 -0.000283467,-4.30161 -0.202395,-3.66324 -0.202395,-11.17 0,-0.371625 0.311247,-0.674651 0.691092,-0.676635l7.13599 -0.0532918c0.0155907,0 0.0311813,0.000566934 0.0470555,0.0017008z"
   id="path3119" />
  <path
   class="fil18"
   d="M13.0684 0.4595c0.151938,0 0.29112,0.0598115 0.399405,0.159025 0.154206,0.12671 0.252002,0.3189 0.252852,0.533201l-0.0873078 5.52477c0.00623627,0.230175 -0.0402523,0.337892 0.224222,0.525264 0.0731344,0.0325987 0.154773,0.0640635 0.246049,0.0949614 0.168379,0.0561264 0.270711,0.109418 0.394019,0.178017 0.16356,0.0907094 0.180001,0.198994 0.180001,0.381546l0.00311813 4.81355c0.000283467,0.258805 -0.0490398,0.358302 -0.282616,0.462334 -0.0975126,0.0433704 -0.211183,0.0816384 -0.330806,0.121607 -0.131812,0.0436539 -0.218269,0.0782368 -0.31068,0.124725 -0.165545,0.0836227 -0.175466,0.109702 -0.175466,0.28942l0 0.178301c0,0.378712 -0.304443,0.711502 -0.67947,0.70725 -0.522429,-0.0059528 -1.05421,0.0337325 -1.5602,0.0323152l-9.37368 -0.0317483c-0.37446,-0.0008504 -0.691659,-0.30501 -0.691659,-0.676352 0,-4.45468 0.0436539,-5.16477 0.0436539,-12.7622 0,-0.371342 0.310963,-0.677486 0.691376,-0.676635 4.15364,0.0121891 6.90355,0.0249451 11.0572,0.0206931z"
   id="path3121" />
  <path
   class="fil19"
   d="M12.8073 0.0320317c0.540004,0 1.27532,0.607753 1.27673,1.11969l0 0.0051024 -0.0870243 5.514c0.0008504,0.0342995 0.000566934,0.0691659 0.000283467,0.100914 -0.00113387,0.164978 0.726525,0.226207 0.917299,0.701013l0.000566934 -0.000283467c0.051591,0.128977 0.0603784,0.245199 0.0603784,0.383814l-0.0017008 0 0.00311813 4.81355c0.000566934,0.867125 -0.903976,0.653958 -0.903976,1.17639l0 0.00822054 -0.0017008 0.0034016c-0.00283467,0.297924 -0.123592,0.576855 -0.315782,0.779817l-0.0008504 -0.0008504c-0.19871,0.209482 -0.800227,0.342711 -1.10694,0.342428l0 0.0017008 -0.00708667 0 -0.0034016 -0.0017008c-0.263624,-0.00283467 -0.541138,0.0068032 -0.815534,0.0161576 -0.246049,0.008504 -0.490964,0.0167245 -0.741266,0.0161576l-9.03125 -0.0317483c-0.303876,-0.000566934 -0.583375,-0.123308 -0.785203,-0.320884 -0.204946,-0.200128 -0.333924,-0.476791 -0.333924,-0.781234 0,-1.73482 0.012756,-3.31231 0.0269293,-5.09872 0.017008,-2.10077 0.0167245,-3.16207 0.0167245,-7.66352l0 -0.0017008 0.0017008 0c0.000566934,-0.304443 0.127277,-0.58139 0.329672,-0.780384 0.201261,-0.197293 0.479626,-0.320601 0.785487,-0.320317l0 -0.0017008 0.00198427 0 0 0.0017008 0.407058 0.00113387c4.01843,0.0116221 6.28984,0.0232443 10.3077,0.0195592l0 -0.0017008zm0.0530083 0.988165c-0.0144568,-0.00566934 -0.0331656,-0.00907094 -0.055276,-0.00907094l0 -0.00141733c-4.01757,0.00368507 -6.05854,-0.00793707 -10.0772,-0.0195592l-0.407058 -0.00113387 0 0.0017008 -0.0017008 0 0 -0.0017008c-0.0725675,0 -0.139466,0.029764 -0.187655,0.0768195 -0.0464886,0.0459216 -0.0759691,0.107434 -0.0759691,0.172064l0.00141733 0 0 0.0017008c0,4.10347 0.0008504,5.25888 -0.0175749,7.54617 -0.0124725,1.57324 -0.0442208,2.86613 -0.0442208,4.99497 0,0.0651974 0.0286301,0.125859 0.0737014,0.17008 0.0507406,0.0493232 0.119056,0.0802211 0.190773,0.0802211l8.80051 0.0317483c0.22564,0.000566934 0.469138,-0.00793707 0.71462,-0.0161576 0.277514,-0.00963787 0.55843,-0.0189923 0.845581,-0.0161576l0 -0.0017008 0.00708667 0 0 0.0017008c0.0615123,0 0.12019,-0.029764 0.164127,-0.0759691l0 -0.0017008c0.0493232,-0.0518744 0.080788,-0.122174 0.0822054,-0.195309l-0.00141733 0 0 -0.00822054 0 -0.178301 1.1659 -0.787187c0.0320317,-0.0141733 0.0269293,0.0133229 0.0354333,-0.00113387 0.0034016,-0.0059528 -0.00481894,-0.0201261 -0.00481894,-0.0720006l-0.00311813 -4.81355 -0.00141733 0 0.0008504 -0.0306144c-0.0334491,-0.0181419 -0.0694494,-0.0362838 -0.113954,-0.0569768l0 -0.0017008c-0.0490398,-0.0229608 -0.102332,-0.0445043 -0.167245,-0.0660478l-0.0017008 0c-0.0413862,-0.0138899 -0.0907094,-0.0320317 -0.146552,-0.0532918l-0.0017008 0c-0.0456382,-0.0175749 -0.0912763,-0.0365672 -0.136064,-0.0566934l-0.0717171 -0.0416696c-0.407909,-0.288853 -0.481327,-0.514776 -0.479342,-0.821487l-0.000283467 -0.0822054 0 -0.0150237 0.08504 -5.40061c-0.0008504,-0.0360003 -0.0104883,-0.0725675 -0.0260789,-0.1063l-0.000566934 0.000283467c-0.0178584,-0.0377011 -0.04252,-0.0694494 -0.0708667,-0.0929771 -0.0223939,-0.0201261 -0.0447878,-0.0402523 -0.0737014,-0.051591zm1.1744 12.6936c0.0291971,-0.0549926 -0.0124725,0.0175749 0,0z"
   id="path3123" />
  <path
   class="fil20"
   d="M10.9948 2.86216l-0.0365672 2.71618 -0.264191 0c-0.158458,-0.627595 -0.336475,-1.07831 -0.524981,-1.34845 -0.188789,-0.271278 -0.399405,-0.297357 -0.73021,-0.45298 -0.181135,-0.08504 0.433704,-0.0754022 -0.0235277,-0.0932606l-0.718021 -0.0272128 -0.0136064 6.23599c-0.0008504,0.505988 0.055276,0.835093 0.111119,0.960386 0.0547091,0.12756 0.317199,0.260506 0.477925,0.355751 0.166112,0.097796 0.350648,0.146552 0.635816,0.146552l0.332223 0 0 0.682305 -5.06782 -0.0130395 0 -0.681738 0.332223 0c0.289987,0 0.334491,-0.0445043 0.510807,-0.142584 0.125292,-0.0691659 0.352066,-0.2126 0.425484,-0.377294 0.0504571,-0.114521 0.101198,-0.426618 0.101198,-0.930338l0.0017008 -6.24307 -0.683438 0.0226773c-0.667281,0.0192757 -0.524697,0.158458 -0.826873,0.440507 -0.422932,0.394869 -0.582524,0.767912 -0.695061,1.50606l-0.346963 0 0.0365672 -2.71561 6.9662 -0.0408192z"
   id="path3125" />
  <rect
   class="fil21"
   x="5.08877"
   y="12.1544"
   width="5.18202"
   height="0.661628"
   id="rect3127" />
  <path
   class="fil22"
   d="M0.115371 2.04635l1.85359 0c0.139182,0 0.253136,0.240663 0.253136,0.534618l0 0.0479059c0,0.294239 -0.113954,0.534618 -0.253136,0.534618l-1.85359 0c-0.121324,0 -0.12019,-1.08511 0,-1.11714z"
   id="path3129" />
  <rect
   class="fil21"
   x="1.00032"
   y="2.06901"
   width="1.01819"
   height="1.07414"
   id="rect3131" />
  <path
   class="fil22"
   d="M0.115371 5.06697l1.85359 0c0.139182,0 0.253136,0.240663 0.253136,0.534618l0 0.0479059c0,0.294239 -0.113954,0.534618 -0.253136,0.534618l-1.85359 0c-0.121324,0 -0.12019,-1.08511 0,-1.11714z"
   id="path3133" />
  <rect
   class="fil21"
   x="1.00032"
   y="5.08963"
   width="1.01819"
   height="1.07414"
   id="rect3135" />
  <path
   class="fil22"
   d="M0.115371 8.12813l1.85359 0c0.139182,0 0.253136,0.240663 0.253136,0.534618l0 0.0479059c0,0.294239 -0.113954,0.534618 -0.253136,0.534618l-1.85359 0c-0.121324,0 -0.12019,-1.08511 0,-1.11714z"
   id="path3137" />
  <rect
   class="fil21"
   x="1.00032"
   y="8.15079"
   width="1.01819"
   height="1.07414"
   id="rect3139" />
  <path
   class="fil22"
   d="M0.115371 11.0668l1.85359 0c0.139182,0 0.253136,0.240663 0.253136,0.534618l0 0.0479059c0,0.294239 -0.113954,0.534618 -0.253136,0.534618l-1.85359 0c-0.121324,0 -0.12019,-1.08511 0,-1.11714z"
   id="path3141" />
  <rect
   class="fil21"
   x="1.00032"
   y="11.0895"
   width="1.01819"
   height="1.07414"
   id="rect3143" />
 </g>
</svg>