<?xml version="1.0" encoding="UTF-8"?>
<!DOCTYPE svg PUBLIC "-//W3C//DTD SVG 1.1//EN" "http://www.w3.org/Graphics/SVG/1.1/DTD/svg11.dtd">
<!-- Creator: CorelDRAW -->
<svg xmlns="http://www.w3.org/2000/svg" xml:space="preserve" width="16px" height="16px" style="shape-rendering:geometricPrecision; text-rendering:geometricPrecision; image-rendering:optimizeQuality; fill-rule:evenodd; clip-rule:evenodd"
viewBox="0 0 16 16"
 xmlns:xlink="http://www.w3.org/1999/xlink">
 <defs>
  <style type="text/css">
   <![CDATA[
    .fil12 {fill:#6F7273}
    .fil13 {fill:#747678}
    .fil39 {fill:#946C47}
    .fil29 {fill:#A8D45D}
    .fil16 {fill:#999999;fill-rule:nonzero}
    .fil38 {fill:#4E87B4;fill-rule:nonzero}
    .fil34 {fill:#946C47;fill-rule:nonzero}
    .fil30 {fill:#A8D45D;fill-rule:nonzero}
    .fil37 {fill:#AADDFA;fill-rule:nonzero}
    .fil32 {fill:#878787;fill-rule:nonzero}
    .fil24 {fill:#454545;fill-opacity:0.000000}
    .fil17 {fill:#526185;fill-opacity:0.000000}
    .fil0 {fill:#223B52;fill-opacity:0.007843}
    .fil1 {fill:#223B52;fill-opacity:0.011765}
    .fil2 {fill:#223B52;fill-opacity:0.019608}
    .fil18 {fill:#526185;fill-opacity:0.019608}
    .fil25 {fill:#4F4F4F;fill-opacity:0.023529}
    .fil3 {fill:#223B52;fill-opacity:0.023529}
    .fil4 {fill:#223B52;fill-opacity:0.031373}
    .fil5 {fill:#223B52;fill-opacity:0.035294}
    .fil19 {fill:#526185;fill-opacity:0.039216}
    .fil6 {fill:#223B52;fill-opacity:0.043137}
    .fil26 {fill:#4F4F4F;fill-opacity:0.047059}
    .fil7 {fill:#223B52;fill-opacity:0.050980}
    .fil8 {fill:#223B52;fill-opacity:0.054902}
    .fil20 {fill:#526185;fill-opacity:0.058824}
    .fil9 {fill:#223B52;fill-opacity:0.062745}
    .fil10 {fill:#223B52;fill-opacity:0.066667}
    .fil27 {fill:#4F4F4F;fill-opacity:0.070588}
    .fil11 {fill:#223B52;fill-opacity:0.074510}
    .fil21 {fill:#526185;fill-opacity:0.078431}
    .fil28 {fill:#4F4F4F;fill-opacity:0.094118}
    .fil22 {fill:#526185;fill-opacity:0.101961}
    .fil23 {fill:#526185;fill-opacity:0.121569}
    .fil33 {fill:#5E3616;fill-opacity:0.439216}
    .fil14 {fill:#7F7F7F;fill-opacity:0.501961}
    .fil36 {fill:url(#id0)}
    .fil35 {fill:url(#id1)}
    .fil15 {fill:url(#id2)}
    .fil31 {fill:url(#id3)}
   ]]>
  </style>
  <linearGradient id="id0" gradientUnits="userSpaceOnUse" x1="8.18284" y1="6.11976" x2="8.18284" y2="14.9948">
   <stop offset="0" style="stop-color:#5589C4"/>
   <stop offset="0.0705882" style="stop-color:#5094D4"/>
   <stop offset="0.258824" style="stop-color:#5FA2D9"/>
   <stop offset="0.8" style="stop-color:#95CEFD"/>
   <stop offset="1" style="stop-color:#528CC7"/>
  </linearGradient>
  <linearGradient id="id1" gradientUnits="userSpaceOnUse" x1="10.9951" y1="5.45135" x2="11.096" y2="3.22047">
   <stop offset="0" style="stop-color:#75A7DB"/>
   <stop offset="1" style="stop-color:#89C2F3"/>
  </linearGradient>
  <linearGradient id="id2" gradientUnits="userSpaceOnUse" x1="7.45404" y1="4.76366" x2="7.43052" y2="6.73205">
   <stop offset="0" style="stop-color:#EBEBEB"/>
   <stop offset="1" style="stop-color:#B2B2B2"/>
  </linearGradient>
  <linearGradient id="id3" gradientUnits="userSpaceOnUse" x1="8.23216" y1="5.35412" x2="8.31323" y2="9.31727">
   <stop offset="0" style="stop-color:white"/>
   <stop offset="0.0784314" style="stop-color:#F9F9F9"/>
   <stop offset="0.439216" style="stop-color:#F9F9F9"/>
   <stop offset="1" style="stop-color:#CBCACC"/>
  </linearGradient>
 </defs>
 <g id="Слой_x0020_1">
  <metadata id="CorelCorpID_0Corel-Layer"/>
  <g id="_60869872">
   <path id="_63414640" class="fil0" d="M7.54844 13.6897c7.62866,-0.292254 8.33846,0.880164 8.37049,1.81277 0.0051024,0.144852 -0.0790872,0.253703 -0.242648,0.334491l-15.6712 0 0 -0.992134c0.646588,-0.494933 2.46276,-0.960386 7.54334,-1.15513z"/>
   <path id="_49775392" class="fil1" d="M7.56743 13.8017c7.2851,-0.267876 8.25314,0.838778 8.28233,1.71299 0.00481894,0.142017 -0.0915598,0.246333 -0.276947,0.322302l-15.5677 0 0 -0.834526c0.571469,-0.50939 2.32443,-1.00772 7.56233,-1.20077z"/>
   <path id="_60081952" class="fil2" d="M7.58699 13.9143c6.94153,-0.243498 8.16753,0.796825 8.19417,1.61264 0.00481894,0.139749 -0.108001,0.239529 -0.322302,0.310113l-15.3225 0c-0.0496067,-0.0158741 -0.0932606,-0.0328821 -0.131245,-0.0507406l0 -0.625611c0.485579,-0.520162 2.17873,-1.05676 7.58189,-1.2464z"/>
   <path id="_59894792" class="fil3" d="M7.60598 14.0265c6.59797,-0.219403 8.08221,0.755156 8.10602,1.5123 0.00481894,0.138048 -0.131245,0.233293 -0.385515,0.298207l-15.0402 0c-0.123592,-0.0314648 -0.218269,-0.0674651 -0.281199,-0.108284l0 -0.405358c0.36794,-0.526965 2.00383,-1.11091 7.60088,-1.29686z"/>
   <path id="_49229568" class="fil4" d="M7.62526 14.1385c6.25441,-0.194742 7.99688,0.713769 8.01786,1.41252 0.00481894,0.137481 -0.164694,0.227907 -0.477075,0.286018l-14.7023 0c-0.272695,-0.0530083 -0.432854,-0.121324 -0.458649,-0.208348l0 -0.0717171c0.0782368,-0.535469 1.54348,-1.22911 7.62015,-1.41847z"/>
   <path id="_21768872" class="fil5" d="M7.64453 14.251c5.91057,-0.170647 7.91127,0.6721 7.92998,1.31217 0.00481894,0.138899 -0.218836,0.223655 -0.621926,0.273829l-14.2663 0c-0.382964,-0.0535752 -0.596981,-0.127844 -0.596981,-0.227907 0,-0.50202 1.64467,-1.18744 7.55524,-1.35809z"/>
   <path id="_62134816" class="fil6" d="M7.66381 14.3633c5.56729,-0.145985 7.82567,0.63043 7.84183,1.2121 0.00481894,0.145135 -0.321735,0.222238 -0.892353,0.26164l-13.6183 0c-0.520162,-0.0479059 -0.817802,-0.11934 -0.817802,-0.222238 0,-0.463185 1.91935,-1.10524 7.48664,-1.25151z"/>
   <path id="_59862704" class="fil7" d="M7.68308 14.4758c5.22344,-0.121891 7.74034,0.588761 7.75367,1.11204 0.00566934,0.169797 -0.622493,0.230742 -1.64864,0.249167l-2.49451 0c-0.866558,-0.0051024 -1.82014,-0.00992134 -2.81029,0l-6.9764 0c-0.778683,-0.0394019 -1.24187,-0.107434 -1.24187,-0.216569 0,-0.42435 2.1946,-1.02275 7.41804,-1.14464z"/>
   <path id="_59795072" class="fil8" d="M7.70236 14.5878c4.87988,-0.0975126 7.65502,0.547374 7.66551,1.01198 0.0107717,0.331089 -3.57111,0.164411 -7.49174,0.216569 -0.624761,0.00822054 -1.2413,0.0155907 -1.83686,0.0206931l-3.22472 0c-1.48678,-0.0206931 -2.46191,-0.0810715 -2.46191,-0.211183 0,-0.385515 2.46985,-0.940543 7.34973,-1.03806z"/>
   <path id="_62721320" class="fil9" d="M7.72135 14.7c4.53632,-0.0731344 7.56941,0.505705 7.57763,0.911629 0.00793707,0.257955 -3.57792,0.137481 -7.41776,0.176316 -3.83927,0.0391184 -7.441,0.0399688 -7.441,-0.156474 0,-0.346963 2.74509,-0.858337 7.28113,-0.931472z"/>
   <path id="_49927464" class="fil10" d="M7.74091 14.8126c4.19276,-0.0490398 7.48409,0.463752 7.48919,0.811282 0.00538587,0.184537 -3.58415,0.109985 -7.34321,0.135781 -3.75877,0.0257955 -7.3588,0.0201261 -7.3588,-0.122458 0,-0.308128 3.02034,-0.776132 7.21281,-0.824605z"/>
   <path id="_21827456" class="fil11" d="M7.7599 14.9245c3.8492,-0.0243781 7.39877,0.422366 7.4016,0.711502 0.0025512,0.111119 -3.59096,0.0824888 -7.26894,0.0949614 -3.67798,0.012756 -7.27659,0.000566934 -7.27659,-0.0884416 0,-0.269293 3.2953,-0.693643 7.14393,-0.718021z"/>
  </g>
  <polygon class="fil12" points="14.761,12.9927 14.4321,13.5565 14.9254,14.0262 15.0195,13.1571 "/>
  <polygon class="fil13" points="15.0124,14.3463 14.2828,12.9456 13.7328,13.8967 14.3063,14.6034 "/>
  <path class="fil14" d="M3.52094 4.22762l-0.932322 -0.00566934 0 3.87074 0.932322 0 6.41202 0 1.41422 0 1.52987 0 0.631281 0 0 -3.86875 -0.055843 0.000283467c-0.223939,-0.0504571 -0.418964,-0.187088 -0.585642,-0.548225 -0.111402,-0.241797 -0.205513,-0.447878 -0.471689,-0.447878l-1.04798 0 -1.41422 0 -1.11941 0c-0.266175,0 -0.360286,0.20608 -0.471972,0.447878 -0.300191,0.65084 -0.692509,0.572319 -1.17837,0.574587l-3.64226 -0.0229608 0 0z"/>
  <path class="fil15" d="M3.26667 4.22791l-1.31273 -0.00737014c-0.266175,-0.00226773 -0.484161,0.217703 -0.484161,0.483878l0 2.90412c0,0.266175 0.217986,0.484161 0.484161,0.484161 5.67302,0 9.57636,0.174616 11.4611,0.00113387l0 -3.87556c-0.214868,-0.0541422 -0.402806,-0.192757 -0.563815,-0.542272 -0.111402,-0.241514 -0.205797,-0.447311 -0.471972,-0.447311l-1.04741 0 -1.65318 0 -1.11969 0c-0.266175,0 -0.360003,0.205797 -0.471405,0.447311 -0.300758,0.65084 -0.692793,0.572603 -1.17865,0.574871l-3.64226 -0.0229608 0 0z"/>
  <path class="fil16" d="M3.04245 4.79966l-1.31103 -0.00737014 0 0.00141733 -0.004252 0c-0.0422366,0 -0.080788,0.0172915 -0.108001,0.0445043 -0.0289136,0.0289136 -0.047339,0.068032 -0.0484728,0.109702l0.00113387 0 0 0.00453547 0 2.90412c0,0.0442208 0.0178584,0.0841896 0.0459216,0.111969l0.00141733 0c0.0289136,0.0289136 0.0688824,0.047339 0.112253,0.047339 2.07356,0 4.03288,0.0260789 5.71327,0.0484728 2.42506,0.0323152 4.25144,0.0566934 5.42272,-0.0215435l0 -3.35766c-0.0663312,-0.0365672 -0.131245,-0.0824888 -0.194175,-0.139466l-0.00113387 0c-0.125009,-0.113103 -0.238112,-0.269293 -0.337892,-0.485862l0 -0.00141733c-0.0450712,-0.0980795 -0.0873078,-0.189356 -0.12841,-0.236695 -0.0107717,-0.0124725 -0.0260789,-0.0204096 -0.0493232,-0.0204096l-1.04741 0 -1.65289 0 -1.11969 0c-0.0578272,0 -0.111969,0.117355 -0.175749,0.255687l-0.00113387 0.00141733 -0.000566934 0.00113387 0.000566934 0.000283467c-0.358302,0.775282 -0.797676,0.770179 -1.33286,0.763376l-0.141733 -0.0008504 -3.64255 -0.0226773zm-1.30962 -0.654525l1.31217 0.00737014 3.64255 0.0226773 0.144285 0.0008504 0.0025512 0c0.30416,0.00396854 0.553894,0.00708667 0.736163,-0.387783l0.00141733 -0.00113387 0.000566934 -0.00141733 -0.000566934 0c0.157891,-0.342995 0.292538,-0.633832 0.76451,-0.633832l1.11969 0 1.65289 0 1.04741 0c0.242648,0 0.408192,0.0949614 0.539154,0.245766 0.0994968,0.115088 0.161009,0.24775 0.226773,0.390901l0.000566934 -0.000283467c0.0609454,0.132379 0.122741,0.221104 0.185387,0.278081l-0.000566934 0.000566934c0.0490398,0.0439374 0.104032,0.0697328 0.162993,0.0847566l0.246333 0.0623627 0 0.252285 0 3.87556 0 0.295089 -0.295656 0.0272128c-1.18149,0.108568 -3.1255,0.0827723 -5.78442,0.047339 -1.59138,-0.02126 -3.44809,-0.0459216 -5.70562,-0.0459216 -0.222521,0 -0.4252,-0.0912763 -0.571469,-0.237829l0.000566934 -0.000566934c-0.146836,-0.146836 -0.238112,-0.349231 -0.238112,-0.570619l0 -2.90412 0 -0.00453547 0.00113387 -0.0025512c0.00198427,-0.219403 0.0924102,-0.419531 0.236411,-0.563815 0.145702,-0.146269 0.34668,-0.237545 0.567217,-0.237545l0.004252 0 0.00141733 0.00113387z"/>
  <g id="_21849056">
   <g>
    <path id="_49172936" class="fil17" d="M1.46978 5.63532c0.185104,-0.0717171 0.345546,-0.156757 0.375877,-0.248033 -0.0104883,-0.146836 0.372759,-0.392885 0.805896,-0.333924l2.32499 0.0445043c0.0773864,0.0260789 0.127277,0.0873078 0.17093,0.160726l0 2.8341 -1.8808 0 -1.31273 0c-0.266175,0 -0.484161,-0.217986 -0.484161,-0.483878l0 -1.9735z"/>
    <g>
     <path id="_60168624" class="fil18" d="M1.46978 5.69145c0.207498,-0.0748352 0.400822,-0.166962 0.435972,-0.267309 0.00141733,-0.144285 0.329388,-0.368223 0.708384,-0.325987 0.791439,0.0102048 1.58288,0.0201261 2.37432,0.0303309 0.0705832,0.0240947 0.117922,0.0788038 0.159025,0.145418l0 2.81879 -1.8808 0 -1.31273 0c-0.266175,0 -0.484161,-0.217986 -0.484161,-0.483878l0 -1.91737z"/>
     <path id="_49225840" class="fil19" d="M1.46978 5.74559c0.227057,-0.076536 0.455248,-0.175182 0.496067,-0.285168 0.0130395,-0.140883 0.286301,-0.342995 0.610871,-0.317766 0.80788,0.00538587 1.61604,0.0107717 2.42392,0.0161576 0.06378,0.0226773 0.108568,0.0705832 0.146836,0.130111l0 2.80377 -1.8808 0 -1.31273 0c-0.266175,0 -0.484161,-0.217986 -0.484161,-0.483878l0 -1.86323z"/>
     <path id="_49875592" class="fil20" d="M1.46978 5.79831c0.242648,-0.077103 0.50939,-0.181702 0.556445,-0.301042 0.0246616,-0.138048 0.242648,-0.318333 0.513358,-0.309829 0.824321,0.000566934 1.64864,0.00141733 2.47325,0.00226773 0.0572603,0.0204096 0.0992134,0.0623627 0.134647,0.115088l0 2.7879 -1.8808 0 -1.31273 0c-0.266175,0 -0.484161,-0.217986 -0.484161,-0.483878l0 -1.8105z"/>
     <path id="_60521504" class="fil21" d="M1.46978 5.8499c0.253419,-0.076536 0.562965,-0.186805 0.61654,-0.315782 0.0365672,-0.135214 0.199277,-0.293672 0.415846,-0.301892 0.841046,-0.00396854 1.68181,-0.00793707 2.52285,-0.0119056 0.051024,0.0187088 0.0895755,0.0549926 0.122458,0.100631l0 2.77174 -1.8808 0 -1.31273 0c-0.266175,0 -0.484161,-0.217986 -0.484161,-0.483878l0 -1.75891z"/>
     <path id="_63733752" class="fil22" d="M1.46978 5.90008c0.257671,-0.0745518 0.61569,-0.189923 0.676919,-0.329388 0.0481894,-0.132379 0.155623,-0.268443 0.31805,-0.293955 0.857487,-0.00878747 1.71497,-0.0172915 2.57246,-0.0260789 0.0447878,0.017008 0.0799376,0.0479059 0.110269,0.0873078l0 2.75473 -1.8808 0 -1.31273 0c-0.266175,0 -0.484161,-0.217986 -0.484161,-0.483878l0 -1.70874z"/>
    </g>
    <path id="_62066816" class="fil23" d="M1.46978 5.9494c0.252002,-0.0705832 0.667564,-0.191057 0.737297,-0.342144 0.0598115,-0.129261 0.112253,-0.243781 0.220537,-0.285735l2.62178 -0.0402523c0.038835,0.0150237 0.0705832,0.0408192 0.0980795,0.0739848l0 2.73744 -1.8808 0 -1.31273 0c-0.266175,0 -0.484161,-0.217986 -0.484161,-0.483878l0 -1.65941z"/>
   </g>
   <g>
    <path id="_64825280" class="fil17" d="M1.46978 5.63532c0.0232443,-0.00907094 0.0459216,-0.0184253 0.068032,-0.0277797l0 2.12317c0,0.0663312 0.0153072,0.128977 0.04252,0.185104 -0.0688824,-0.0836227 -0.110552,-0.190773 -0.110552,-0.306995l0 -1.9735z"/>
    <g>
     <path id="_63225488" class="fil18" d="M1.46978 5.69145l0.068032 -0.025512 0 2.06477c0,0.0663312 0.0153072,0.128977 0.04252,0.185104 -0.0688824,-0.0836227 -0.110552,-0.190773 -0.110552,-0.306995l0 -1.91737z"/>
     <path id="_49785992" class="fil19" d="M1.46978 5.74559l0.068032 -0.0235277 0 2.00865c0,0.0663312 0.0153072,0.128977 0.04252,0.185104 -0.0688824,-0.0836227 -0.110552,-0.190773 -0.110552,-0.306995l0 -1.86323z"/>
     <path id="_60203328" class="fil20" d="M1.46978 5.79831l0.068032 -0.0221104 0 1.9545c0,0.0663312 0.0153072,0.128977 0.04252,0.185104 -0.0688824,-0.0836227 -0.110552,-0.190773 -0.110552,-0.306995l0 -1.8105z"/>
     <path id="_49810928" class="fil21" d="M1.46978 5.8499l0.068032 -0.0209765 0 1.90178c0,0.0663312 0.0153072,0.128977 0.04252,0.185104 -0.0688824,-0.0836227 -0.110552,-0.190773 -0.110552,-0.306995l0 -1.75891z"/>
     <path id="_60706152" class="fil22" d="M1.46978 5.90008l0.068032 -0.0201261 0 1.85075c0,0.0663312 0.0153072,0.128977 0.04252,0.185104 -0.0688824,-0.0836227 -0.110552,-0.190773 -0.110552,-0.306995l0 -1.70874z"/>
    </g>
    <path id="_59883688" class="fil23" d="M1.46978 5.9494l0.068032 -0.0192757 0 1.80058c0,0.0663312 0.0153072,0.128977 0.04252,0.185104 -0.0688824,-0.0836227 -0.110552,-0.190773 -0.110552,-0.306995l0 -1.65941z"/>
   </g>
   <g>
    <path id="_64674864" class="fil17" d="M1.41138 5.65715c0.0399688,-0.0147403 0.0793707,-0.029764 0.117072,-0.0456382l0 1.99731c0,0.116788 0.0479059,0.223372 0.125009,0.300475l-0.000283467 0c0.077103,0.0768195 0.183686,0.125009 0.300758,0.125009l1.31245 0 1.88109 0 0 0.117072 -1.88109 0 -1.31245 0c-0.149104,0 -0.284884,-0.0615123 -0.382964,-0.159592l-0.000283467 0c-0.0980795,-0.098363 -0.159308,-0.234144 -0.159308,-0.382964l0 -1.95167z"/>
    <g>
     <path id="_49182144" class="fil18" d="M1.41138 5.71186c0.0394019,-0.0136064 0.0788038,-0.0277797 0.117072,-0.0422366l0 1.9392c0,0.116788 0.0479059,0.223372 0.125009,0.300475l-0.000283467 0c0.077103,0.0768195 0.183686,0.125009 0.300758,0.125009l1.31245 0 1.88109 0 0 0.117072 -1.88109 0 -1.31245 0c-0.149104,0 -0.284884,-0.0615123 -0.382964,-0.159592l-0.000283467 0c-0.0980795,-0.098363 -0.159308,-0.234144 -0.159308,-0.382964l0 -1.89696z"/>
     <path id="_62792328" class="fil19" d="M1.41138 5.76486c0.038835,-0.0124725 0.0782368,-0.0257955 0.117072,-0.0396854l0 1.88364c0,0.116788 0.0479059,0.223372 0.125009,0.300475l-0.000283467 0c0.077103,0.0768195 0.183686,0.125009 0.300758,0.125009l1.31245 0 1.88109 0 0 0.117072 -1.88109 0 -1.31245 0c-0.149104,0 -0.284884,-0.0615123 -0.382964,-0.159592l-0.000283467 0c-0.0980795,-0.098363 -0.159308,-0.234144 -0.159308,-0.382964l0 -1.84395z"/>
     <path id="_59862880" class="fil20" d="M1.41138 5.81674c0.038268,-0.0119056 0.0776699,-0.0243781 0.117072,-0.0374176l0 1.82949c0,0.116788 0.0479059,0.223372 0.125009,0.300475l-0.000283467 0c0.077103,0.0768195 0.183686,0.125009 0.300758,0.125009l1.31245 0 1.88109 0 0 0.117072 -1.88109 0 -1.31245 0c-0.149104,0 -0.284884,-0.0615123 -0.382964,-0.159592l-0.000283467 0c-0.0980795,-0.098363 -0.159308,-0.234144 -0.159308,-0.382964l0 -1.79208z"/>
     <path id="_48801408" class="fil21" d="M1.41138 5.8672l0.117072 -0.0354333 0 1.77705c0,0.116788 0.0479059,0.223372 0.125009,0.300475l-0.000283467 0c0.077103,0.0768195 0.183686,0.125009 0.300758,0.125009l1.31245 0 1.88109 0 0 0.117072 -1.88109 0 -1.31245 0c-0.149104,0 -0.284884,-0.0615123 -0.382964,-0.159592l-0.000283467 0c-0.0980795,-0.098363 -0.159308,-0.234144 -0.159308,-0.382964l0 -1.74162z"/>
     <path id="_49776360" class="fil22" d="M1.41138 5.9168l0.117072 -0.034016 0 1.72603c0,0.116788 0.0479059,0.223372 0.125009,0.300475l-0.000283467 0c0.077103,0.0768195 0.183686,0.125009 0.300758,0.125009l1.31245 0 1.88109 0 0 0.117072 -1.88109 0 -1.31245 0c-0.149104,0 -0.284884,-0.0615123 -0.382964,-0.159592l-0.000283467 0c-0.0980795,-0.098363 -0.159308,-0.234144 -0.159308,-0.382964l0 -1.69201z"/>
    </g>
    <path id="_62495776" class="fil23" d="M1.41138 5.96584l0.117072 -0.0331656 0 1.67614c0,0.116788 0.0479059,0.223372 0.125009,0.300475l-0.000283467 0c0.077103,0.0768195 0.183686,0.125009 0.300758,0.125009l1.31245 0 1.88109 0 0 0.117072 -1.88109 0 -1.31245 0c-0.149104,0 -0.284884,-0.0615123 -0.382964,-0.159592l-0.000283467 0c-0.0980795,-0.098363 -0.159308,-0.234144 -0.159308,-0.382964l0 -1.64297z"/>
   </g>
  </g>
  <polygon class="fil24" points="2.21246,3.29077 13.1324,3.29077 13.1324,14.0812 2.21246,14.0812 "/>
  <g id="_49838168">
   <g>
    <path id="_63076536" class="fil25" d="M8.39969 3.28056l4.30331 0c0.0997803,0.0822054 0.16186,0.217419 0.230175,0.365956 0.105166,0.227907 0.221671,0.366239 0.349231,0.450145l0 3.96683 -0.339026 0 -1.52959 0 -1.65289 0 -6.4123 0 -0.985614 0 0 -3.87074 0.985614 0.00566934 0 0 3.64226 0.0229608c0.486146,-0.00226773 0.87818,0.0762526 1.17865,-0.574871 0.068599,-0.148537 0.130678,-0.28375 0.230175,-0.365956z"/>
    <path id="_49770576" class="fil26" d="M8.37814 3.29984l4.3464 0c0.0873078,0.0830558 0.145418,0.209198 0.208632,0.34668 0.123592,0.267593 0.26249,0.411877 0.417263,0.489264l0 3.92772 -0.407058 0 -1.52959 0 -1.65289 0 -6.4123 0 -0.917582 0 0 -3.87017 0.917582 0.0051024 0 0 3.64226 0.0229608c0.486146,-0.00226773 0.87818,0.0762526 1.17865,-0.574871 0.0634966,-0.137481 0.121324,-0.263624 0.208632,-0.34668z"/>
    <path id="_62315960" class="fil27" d="M8.35944 3.31883l4.38381 0c0.077103,0.0824888 0.131245,0.200128 0.189923,0.327688 0.14145,0.306428 0.303026,0.451279 0.485295,0.518744l0 3.89824 -0.47509 0 -1.52959 0 -1.65289 0 -6.4123 0 -0.84955 0 0 -3.86989 0.84955 0.00481894 0 0 3.64226 0.0229608c0.486146,-0.00226773 0.87818,0.0762526 1.17865,-0.574871 0.0589611,-0.12756 0.11282,-0.245199 0.189923,-0.327688z"/>
    <path id="_62416792" class="fil28" d="M8.34271 3.33782l4.41755 0c0.0683155,0.0810715 0.118773,0.190773 0.172915,0.308695 0.158741,0.343845 0.342995,0.484161 0.553327,0.540571l0 3.87641 -0.543122 0 -1.52959 0 -1.65289 0 -6.4123 0 -0.781518 0 0 -3.86961 0.781518 0.00453547 0 0 3.64226 0.0229608c0.486146,-0.00226773 0.87818,0.0762526 1.17865,-0.574871 0.0544256,-0.117922 0.104883,-0.227624 0.173198,-0.308695z"/>
   </g>
   <g>
    <path id="_62031992" class="fil25" d="M8.51251 3.28056l4.09638 0c0.0955283,0.0277797 0.164978,0.0853235 0.222805,0.161293 0.0357168,0.0620792 0.0677486,0.131812 0.101481,0.204663 0.043087,0.0932606 0.0881582,0.171497 0.134647,0.237262 0.0586776,0.0997803 0.12019,0.175182 0.184537,0.231876l0.0300475 0.0246616 0 0.14145c-0.0362838,-0.0221104 -0.0720006,-0.0479059 -0.106584,-0.0785203 -0.103749,-0.0907094 -0.199277,-0.221955 -0.286301,-0.410176l0.000283467 0 -0.0008504 -0.0017008 -0.000283467 -0.000283467c-0.102332,-0.222521 -0.189923,-0.411877 -0.41783,-0.411877l-1.04769 0 -1.65289 0 -1.11969 0c-0.227624,0 -0.314932,0.189072 -0.417547,0.411027l-0.00113387 0.0025512 -0.000283467 0.000283467c-0.285451,0.619091 -0.646871,0.614839 -1.08738,0.609454 -0.046772,-0.000283467 -0.0952448,-0.00113387 -0.143434,-0.0008504l-0.000566934 0 -3.64255 -0.0229608 -0.994685 -0.00566934 0 -0.116505 0.995252 0.00566934 3.64255 0.0229608c0.0493232,-0.000283467 0.0975126,0.000566934 0.144568,0.0008504l0.000283467 0c0.398554,0.00481894 0.725958,0.008504 0.979945,-0.541705l0.00141733 -0.0025512 0 -0.000566934c0.0992134,-0.214584 0.186238,-0.402523 0.385515,-0.460634z"/>
    <path id="_61895400" class="fil26" d="M8.46035 3.29984l4.20069 0c0.0697328,0.0311813 0.124158,0.0805046 0.170647,0.142017 0.0357168,0.0620792 0.0677486,0.131812 0.101481,0.204663 0.043087,0.0932606 0.0881582,0.171497 0.134647,0.237262 0.0586776,0.0997803 0.12019,0.175182 0.184537,0.231876 0.0320317,0.0277797 0.0646304,0.0513075 0.0980795,0.0708667l0 0.131529c-0.0603784,-0.0283467 -0.118773,-0.0654808 -0.174616,-0.114804 -0.103749,-0.0907094 -0.199277,-0.221955 -0.286301,-0.410176l0.000283467 0 -0.0008504 -0.0017008 -0.000283467 -0.000283467c-0.102332,-0.222521 -0.189923,-0.411877 -0.41783,-0.411877l-1.04769 0 -1.65289 0 -1.11969 0c-0.227624,0 -0.314932,0.189072 -0.417547,0.411027l-0.00113387 0.0025512 -0.000283467 0.000283467c-0.285451,0.619091 -0.646871,0.614839 -1.08738,0.609454 -0.046772,-0.000283467 -0.0952448,-0.00113387 -0.143434,-0.0008504l-0.000566934 0 -3.64255 -0.0229608 -0.926653 -0.00538587 0 -0.116221 0.92722 0.0051024 3.64255 0.0229608c0.0493232,-0.000283467 0.0975126,0.000566934 0.144568,0.0008504l0.000283467 0c0.398554,0.00481894 0.725958,0.008504 0.979945,-0.541705l0.00141733 -0.0025512 0 -0.000566934c0.0901424,-0.195025 0.17008,-0.36794 0.333357,-0.441358z"/>
    <path id="_64542240" class="fil27" d="M8.42378 3.31883l4.27411 0c0.0524414,0.0306144 0.0958118,0.072851 0.133796,0.123025 0.0357168,0.0620792 0.0677486,0.131812 0.101481,0.204663 0.043087,0.0932606 0.0881582,0.171497 0.134647,0.237262 0.0586776,0.0997803 0.12019,0.175182 0.184537,0.231876 0.0530083,0.0464886 0.108284,0.0802211 0.166112,0.105166l0 0.125009c-0.0847566,-0.0300475 -0.166112,-0.0751187 -0.242648,-0.142584 -0.103749,-0.0907094 -0.199277,-0.221955 -0.286301,-0.410176l0.000283467 0 -0.0008504 -0.0017008 -0.000283467 -0.000283467c-0.102332,-0.222521 -0.189923,-0.411877 -0.41783,-0.411877l-1.04769 0 -1.65289 0 -1.11969 0c-0.227624,0 -0.314932,0.189072 -0.417547,0.411027l-0.00113387 0.0025512 -0.000283467 0.000283467c-0.285451,0.619091 -0.646871,0.614839 -1.08738,0.609454 -0.046772,-0.000283467 -0.0952448,-0.00113387 -0.143434,-0.0008504l-0.000566934 0 -3.64255 -0.0229608 -0.858621 -0.00481894 0 -0.116505 0.859188 0.00481894 3.64255 0.0229608c0.0493232,-0.000283467 0.0975126,0.000566934 0.144568,0.0008504l0.000283467 0c0.398554,0.00481894 0.725958,0.008504 0.979945,-0.541705l0.00141733 -0.0025512 0 -0.000566934c0.0830558,-0.179718 0.157608,-0.340727 0.29679,-0.422366z"/>
    <path id="_61298592" class="fil28" d="M8.3943 3.33782l4.33307 0c0.0394019,0.0283467 0.0737014,0.06378 0.104316,0.104032 0.0357168,0.0620792 0.0677486,0.131812 0.101481,0.204663 0.043087,0.0932606 0.0881582,0.171497 0.134647,0.237262 0.0586776,0.0997803 0.12019,0.175182 0.184537,0.231876 0.0734179,0.064347 0.151655,0.104599 0.234144,0.129828l0 0.121324c-0.109985,-0.0286301 -0.213734,-0.0782368 -0.31068,-0.16356 -0.103749,-0.0907094 -0.199277,-0.221955 -0.286301,-0.410176l0.000283467 0 -0.0008504 -0.0017008 -0.000283467 -0.000283467c-0.102332,-0.222521 -0.189923,-0.411877 -0.41783,-0.411877l-1.04769 0 -1.65289 0 -1.11969 0c-0.227624,0 -0.314932,0.189072 -0.417547,0.411027l-0.00113387 0.0025512 -0.000283467 0.000283467c-0.285451,0.619091 -0.646871,0.614839 -1.08738,0.609454 -0.046772,-0.000283467 -0.0952448,-0.00113387 -0.143434,-0.0008504l-0.000566934 0 -3.64255 -0.0229608 -0.790589 -0.00453547 0 -0.116505 0.791156 0.00453547 3.64255 0.0229608c0.0493232,-0.000283467 0.0975126,0.000566934 0.144568,0.0008504l0.000283467 0c0.398554,0.00481894 0.725958,0.008504 0.979945,-0.541705l0.00141733 -0.0025512 0 -0.000566934c0.077103,-0.166678 0.146836,-0.317199 0.267309,-0.403373z"/>
   </g>
   <g>
    <path id="_48847864" class="fil25" d="M8.31295 3.28056l0.202679 0c-0.139182,0.0572603 -0.210899,0.212033 -0.291971,0.387499l-0.00113387 0.0025512 -0.000283467 0.000566934c-0.285451,0.618808 -0.646871,0.614556 -1.08738,0.609454 -0.046772,-0.000566934 -0.0952448,-0.00113387 -0.143434,-0.0008504l-0.000566934 0 -3.64255 -0.0232443 -0.985331 -0.00538587 0 -0.116505 0.985898 0.00566934 3.64255 0.0226773c0.0493232,-0.000283467 0.0975126,0.000566934 0.144568,0.00113387l0.000283467 0c0.398554,0.00481894 0.725958,0.008504 0.979945,-0.541989l0.00141733 -0.0025512 0 -0.000283467c0.0603784,-0.130395 0.115938,-0.251152 0.195309,-0.338743zm4.27411 0l0.202679 0c0.0793707,0.0878747 0.135214,0.208915 0.195592,0.339593l0 0 0.0008504 0.0017008 0.000283467 0.000283467c0.0793707,0.172631 0.164978,0.29112 0.256537,0.371342 0.0130395,0.0113387 0.0260789,0.0221104 0.0394019,0.0320317l0 0.139749c-0.0396854,-0.0232443 -0.0782368,-0.051024 -0.115938,-0.0841896 -0.103749,-0.0907094 -0.199277,-0.221671 -0.286301,-0.409893l0.000283467 0 -0.0008504 -0.0017008 -0.000283467 -0.000283467c-0.0810715,-0.176316 -0.152789,-0.331373 -0.292254,-0.388633zm0.695344 4.72426l0 0.117072 -0.339026 0 -1.52959 0 -1.65289 0 -6.4123 0 -0.985614 0 0 -0.117072 0.985614 0 6.4123 0 1.65289 0 1.52959 0 0.339026 0z"/>
    <path id="_61428768" class="fil26" d="M8.29622 3.29984l0.180852 0c-0.114521,0.0677486 -0.180001,0.209765 -0.253419,0.368223l-0.00113387 0.0025512 -0.000283467 0.000566934c-0.285451,0.618808 -0.646871,0.614556 -1.08738,0.609454 -0.046772,-0.000566934 -0.0952448,-0.00113387 -0.143434,-0.0008504l-0.000566934 0 -3.64255 -0.0232443 -0.917299 -0.0051024 0 -0.116505 0.917865 0.00538587 3.64255 0.0226773c0.0493232,-0.000283467 0.0975126,0.000566934 0.144568,0.00113387l0.000283467 0c0.398554,0.00481894 0.725958,0.008504 0.979945,-0.541989l0.00141733 -0.0025512 0 -0.000283467c0.0561264,-0.121324 0.108284,-0.23386 0.178584,-0.319467zm4.32939 0l0.180852 0c0.0708667,0.085607 0.123025,0.198994 0.178868,0.320317l0 0 0.0008504 0.0017008 0.000283467 0.000283467c0.0793707,0.172631 0.164978,0.29112 0.256537,0.371342 0.0345829,0.0303309 0.0705832,0.0555595 0.107434,0.0762526l0 0.130678c-0.06378,-0.0286301 -0.125292,-0.0674651 -0.18397,-0.11934 -0.103749,-0.0907094 -0.199277,-0.221671 -0.286301,-0.409893l0.000283467 0 -0.0008504 -0.0017008 -0.000283467 -0.000283467c-0.0731344,-0.159025 -0.138899,-0.301325 -0.253703,-0.369357zm0.724825 4.70498l0 0.117072 -0.407058 0 -1.52959 0 -1.65289 0 -6.4123 0 -0.917582 0 0 -0.117072 0.917582 0 6.4123 0 1.65289 0 1.52959 0 0.407058 0z"/>
    <path id="_60511872" class="fil27" d="M8.2812 3.31883l0.167812 0c-0.097796,0.0731344 -0.158174,0.204096 -0.225356,0.349231l-0.00113387 0.0025512 -0.000283467 0.000566934c-0.285451,0.618808 -0.646871,0.614556 -1.08738,0.609454 -0.046772,-0.000566934 -0.0952448,-0.00113387 -0.143434,-0.0008504l-0.000566934 0 -3.64255 -0.0232443 -0.849267 -0.00453547 0 -0.116788 0.849833 0.0051024 3.64255 0.0226773c0.0493232,-0.000283467 0.0975126,0.000566934 0.144568,0.00113387l0.000283467 0c0.398554,0.00481894 0.725958,0.008504 0.979945,-0.541989l0.00141733 -0.0025512 0 -0.000283467c0.0518744,-0.112536 0.100347,-0.217419 0.16356,-0.300475zm4.37248 0l0.167812 0c0.0632131,0.0830558 0.111969,0.188505 0.163844,0.301325l0 0 0.0008504 0.0017008 0.000283467 0.000283467c0.0793707,0.172631 0.164978,0.29112 0.256537,0.371342 0.055843,0.0490398 0.114521,0.0841896 0.175466,0.109135l0 0.124725c-0.0881582,-0.0300475 -0.172348,-0.0762526 -0.252002,-0.146269 -0.103749,-0.0907094 -0.199277,-0.221671 -0.286301,-0.409893l0.000283467 0 -0.0008504 -0.0017008 -0.000283467 -0.000283467c-0.0668982,-0.145702 -0.12756,-0.276947 -0.22564,-0.350365zm0.764793 4.68599l0 0.117072 -0.47509 0 -1.52959 0 -1.65289 0 -6.4123 0 -0.84955 0 0 -0.117072 0.84955 0 6.4123 0 1.65289 0 1.52959 0 0.47509 0z"/>
    <path id="_60688416" class="fil28" d="M8.26731 3.33782l0.158458 0c-0.0844731,0.0756856 -0.1406,0.197009 -0.202112,0.330239l-0.00113387 0.0025512 -0.000283467 0.000566934c-0.285451,0.618808 -0.646871,0.614556 -1.08738,0.609454 -0.046772,-0.000566934 -0.0952448,-0.00113387 -0.143434,-0.0008504l-0.000566934 0 -3.64255 -0.0232443 -0.781234 -0.004252 0 -0.116505 0.781801 0.00453547 3.64255 0.0226773c0.0493232,-0.000283467 0.0975126,0.000566934 0.144568,0.00113387l0.000283467 0c0.398554,0.00481894 0.725958,0.008504 0.979945,-0.541989l0.00141733 -0.0025512 0 -0.000283467c0.0481894,-0.104032 0.0932606,-0.201545 0.14967,-0.281483zm4.40989 0l0.158174 0c0.0564099,0.0802211 0.101765,0.178017 0.149954,0.282333l0 0 0.0008504 0.0017008 0.000283467 0.000283467c0.0793707,0.172631 0.164978,0.29112 0.256537,0.371342 0.0762526,0.0668982 0.157608,0.108001 0.243498,0.132946l0 0.120757c-0.113387,-0.0283467 -0.220254,-0.0782368 -0.320034,-0.166112 -0.103749,-0.0907094 -0.199277,-0.221671 -0.286301,-0.409893l0.000283467 0 -0.0008504 -0.0017008 -0.000283467 -0.000283467c-0.0615123,-0.133796 -0.117639,-0.255404 -0.202112,-0.331373zm0.809298 4.667l0 0.117072 -0.543122 0 -1.52959 0 -1.65289 0 -6.4123 0 -0.781518 0 0 -0.117072 0.781518 0 6.4123 0 1.65289 0 1.52959 0 0.543122 0z"/>
   </g>
  </g>
  <polygon class="fil29" points="3.11955,0.691659 13.1001,0.691659 13.1001,11.2981 3.11955,11.2981 "/>
  <path class="fil30" d="M3.55099 -0.0121891l9.98058 0.0507406 0.500035 0 0 0.500035 0 10.4795 0 0.500035 -0.500035 0 -9.98058 0.025512 -0.500035 0 0 -0.500035 0 -10.5557 0 -0.500035 0.500035 0zm9.48055 0.974559l-8.98051 0.025512 0 9.55567 8.98051 -0.025512 0 -9.55567z"/>
  <polygon class="fil31" points="2.81284,1.94061 13.7325,1.94061 13.7325,12.7311 2.81284,12.7311 "/>
  <polygon class="fil32" points="2.55914,0.906243 3.27914,0.906243 3.27914,1.90631 3.05917,1.90631 3.05917,11.6967 13.0553,11.6967 13.0553,1.90631 13.0253,1.90631 13.0253,0.906243 13.5554,0.906243 14.0554,0.906243 14.0554,1.40628 14.0554,12.1967 14.0554,12.6968 13.5554,12.6968 2.55914,12.6968 2.0591,12.6968 2.0591,12.1967 2.0591,1.40628 2.0591,0.906243 "/>
  <path class="fil33" d="M7.03961 1.50152c-0.0470555,0.117355 -0.991567,4.48955 -1.27362,4.58366 -0.281766,0.0938275 3.29332,1.57012 3.71625,0.32542 0.422649,-1.24499 -1.59734,-4.97938 -2.44263,-4.90908z"/>
  <path class="fil34" d="M15.0572 1.51428l0 4.27298 -0.224789 0.523563 -0.00198427 0.00198427 -0.517894 0.210332 -6.38651 0 -0.518744 -0.210332 -0.226207 -0.525547 -0.017008 -2.20112 -0.0206931 -2.13649 0.00793707 -0.0782368 0.0034016 -0.0215435 -0.000283467 0 0.449862 -0.492098 0.107434 -0.0136064 6.70853 0.0280632 0 -0.00198427 0.004252 0 0.00793707 0.00198427 0.428885 0.172348 0.195876 0.464602 0 0.0051024zm-1.00007 4.50911l-5.85189 0 -0.0260789 -0.00141733 0.00113387 0.16271 5.87683 0 0 -0.161293z"/>
  <polygon class="fil35" points="9.09135,6.67678 13.0001,6.67678 13.0001,1.99504 9.09135,1.99504 "/>
  <path class="fil36" d="M1.34477 7.02658c-0.237262,0.0504571 -0.440507,0.0830558 -0.372759,0.57969 0.309262,2.26858 0.636666,4.3206 0.765927,6.6113 0.0439374,0.127844 -0.204663,0.962086 0.803345,0.77925 3.34831,-0.168946 7.86252,-0.189639 11.0816,-0.0269293 1.0596,0.189639 0.820069,-0.513925 0.886401,-0.773297 0.223372,-2.2391 0.582524,-4.26958 0.8847,-6.49366 0.0677486,-0.496917 -0.257104,-0.820636 -0.494366,-0.871377l-7.55836 0.00311813c-0.175182,-0.0702998 -0.19871,-0.215435 -0.335341,-0.511941 -0.0884416,-0.191057 -0.298207,-0.313231 -0.458366,-0.37531l-3.54333 -0.0124725c-0.160159,0.0623627 -0.237545,0.248884 -0.325703,0.43994 -0.136631,0.296223 -0.356601,0.595564 -0.5315,0.665864l-0.802211 -0.0141733z"/>
  <path class="fil37" d="M1.22344 7.30579l-0.000283467 -0.00113387 0.0141733 -0.00311813 0.115371 -0.00963787 0.638367 -0.0396854 0.0331656 -0.04252c0.0269293,-0.0334491 0.0532918,-0.0773864 0.0788038,-0.125009l0.625044 -0.161293c-0.0405358,0.0737014 -0.0827723,0.14145 -0.125576,0.195309 -0.105166,0.132096 -0.376444,0.881015 -0.500602,0.957551l-1.47006 0.025512c-0.0141733,-0.667281 0.16923,-0.706966 0.591595,-0.795975zm1.01254 -0.537453l0.00453547 -0.0484728c0.125576,-0.273829 0.244065,-0.532351 0.583942,-0.664446l0.179718 -0.0331656 3.54333 0.0124725 0.179718 0.0331656c0.0671816,0.0257955 0.1406,0.0592446 0.214017,0.100347l0.261356 0.836511 -4.57232 0.0147403c-0.305861,-0.111119 -0.077103,-0.269293 -0.188505,-0.317199l-0.205797 0.0660478zm4.7801 -0.555595c0.0462051,0.0291971 0.0918432,0.0615123 0.13493,0.0969456 0.0768195,0.0632131 0.14967,0.167245 0.211183,0.27553 -0.126993,-0.13408 -0.269293,-0.285735 -0.346113,-0.372475zm0.503437 0.7424l0.0187088 0.051591c0.008504,0.0201261 0.0051024,-0.0175749 -0.0017008,-0.008504l7.36305 0.0476224 0.103465 0.00963787c0.253419,0.0538587 0.549926,0.254553 0.727092,0.567501 0.0782368,0.137481 -0.26986,0.425767 -0.246333,0.606052l-0.628729 -0.127277c-0.017008,-0.0286301 -0.0325987,-0.0487563 -0.0442208,-0.0598115l-6.83523 -0.0476224 -0.185671 -0.0351499c-0.170364,-0.0683155 -0.678336,-1.10836 -0.755156,-1.23053l0.484728 0.22649z"/>
  <path class="fil38" d="M1.23903 6.98661c-0.0493232,0.00793707 -0.0969456,0.012756 -0.144852,0.017008 0.28942,2.15973 0.57402,4.37928 0.684289,6.54525 0.00453547,0.0272128 0.00708667,0.0544256 0.00963787,0.08504l0.000283467 0c0.0068032,0.0773864 0.0289136,0.324286 0.399688,0.315499l0.0116221 -0.00198427 11.4586 0.051024 0.0331656 0.00198427c0.345829,0.0240947 0.392602,-0.0617958 0.396854,-0.122174 0.00311813,-0.0462051 0.00368507,-0.0705832 0.00368507,-0.0901424l0 -0.00198427c0.000283467,-0.108568 0.000566934,-0.201545 0.0300475,-0.286585 0.193608,-2.03813 0.733329,-4.0978 0.821203,-6.20084l0.00396854 -0.0447878c0.0093544,-0.072851 0.00141733,-0.114237 -0.0147403,-0.135214 -0.0311813,-0.0402523 -0.0955283,-0.0671816 -0.155907,-0.0844731l-7.41946 0.0008504 -0.19134 -0.0371342c-0.169513,-0.0702998 -0.325136,-0.188222 -0.463185,-0.3532l0 -0.00198427c-0.113387,-0.136064 -0.216852,-0.305861 -0.307278,-0.508823l0.000283467 0 -0.00226773 -0.004252c-0.0311813,-0.0697328 -0.0470555,-0.129828 -0.0586776,-0.166112l-3.45206 0c-0.0116221,0.0365672 -0.0274963,0.0969456 -0.0586776,0.167245l0 0.00198427 -0.00141733 0.00311813 -0.0008504 -0.000283467c-0.0901424,0.202112 -0.184253,0.363971 -0.28942,0.493232 -0.131245,0.161576 -0.276947,0.272128 -0.447594,0.343278l-0.208915 0.0371342 -0.636666 -0.0226773zm0.513642 -0.979094l0.00623627 -0.00737014c0.047339,-0.0583942 0.0975126,-0.148253 0.153072,-0.272695l0 -0.00198427 0.00141733 -0.00311813 0.0008504 0.000283467c0.136631,-0.306995 0.258522,-0.579123 0.615406,-0.72199l4.15817 0c0.356885,0.142584 0.478775,0.415279 0.615973,0.722557l-0.000283467 0 0.00226773 0.004252c0.0535752,0.119906 0.108284,0.212884 0.16186,0.277514l0.0008504 -0.0008504 0.0314648 0.0348664 7.33725 -0.0008504 0.107434 0.0116221c0.229892,0.0507406 0.555028,0.172348 0.776982,0.4595 0.160726,0.208632 0.258238,0.485012 0.216852,0.848416 -0.0921267,2.15321 -0.648856,4.27014 -0.836511,6.35958l-0.0150237 0.165545 -0.0025512 0.06378 0 0.00198427c-0.0325987,0.4612 -0.21997,1.12225 -1.42612,1.04996l-11.4586 -0.051024 0 -0.0017008c-1.29714,0.0257955 -1.38105,-0.925803 -1.40741,-1.22571l0 -0.00396854c-0.000283467,-0.0034016 0.00113387,-0.00311813 0.00283467,-0.000283467l0.008504 -0.000566934 -0.0187088 -0.068599c-0.106584,-2.17674 -0.402239,-4.41698 -0.689108,-6.58947 -0.151655,-1.15711 0.909928,-1.07604 1.65686,-1.04968zm-0.934307 7.76104l-0.0136064 -0.0496067 -0.0076536 0.0008504 0.02126 0.0487563zm-0.0136064 -0.0496067l-0.00113387 -0.00368507 -0.008504 0.000566934 0.00198427 0.00396854 0.0076536 -0.0008504z"/>
  <rect class="fil39" x="8.91361" y="3.97959" width="4.41613" height="0.915881"/>
 </g>
</svg>
