<?xml version="1.0" encoding="UTF-8" standalone="no"?>
<!-- Created with Inkscape (http://www.inkscape.org/) -->

<svg
   xmlns:dc="http://purl.org/dc/elements/1.1/"
   xmlns:cc="http://creativecommons.org/ns#"
   xmlns:rdf="http://www.w3.org/1999/02/22-rdf-syntax-ns#"
   xmlns:svg="http://www.w3.org/2000/svg"
   xmlns="http://www.w3.org/2000/svg"
   xmlns:sodipodi="http://sodipodi.sourceforge.net/DTD/sodipodi-0.dtd"
   xmlns:inkscape="http://www.inkscape.org/namespaces/inkscape"
   width="48"
   height="48"
   id="svg2"
   version="1.1"
   inkscape:version="0.48.3.1 r9886"
   sodipodi:docname="48.svg">
  <defs
     id="defs4">
    <linearGradient
       gradientTransform="matrix(0,-1,1,0,21,33)"
       y2="0"
       x2="0.749"
       y1="0"
       x1="0"
       gradientUnits="userSpaceOnUse"
       id="LinearGradient_23-158">
      <stop
         id="stop89061"
         stop-color="#84c1f1"
         offset="0" />
      <stop
         id="stop89063"
         stop-color="#2b5087"
         offset="1" />
    </linearGradient>
    <linearGradient
       gradientTransform="matrix(0,-1,1,0,14.999,33)"
       y2="0"
       x2="0.749"
       y1="0"
       x1="0"
       gradientUnits="userSpaceOnUse"
       id="LinearGradient_22-11">
      <stop
         id="stop89056"
         stop-color="#84c1f1"
         offset="0" />
      <stop
         id="stop89058"
         stop-color="#2b5087"
         offset="1" />
    </linearGradient>
    <linearGradient
       gradientTransform="translate(12.751,26.25)"
       y2="3.75"
       x2="0"
       y1="0"
       x1="0"
       gradientUnits="userSpaceOnUse"
       id="LinearGradient_21-058">
      <stop
         id="stop89051"
         stop-color="#979797"
         offset="0" />
      <stop
         id="stop89053"
         stop-color="#5d5d5d"
         offset="1" />
    </linearGradient>
    <linearGradient
       gradientTransform="matrix(0,1,-1,0,30.01,31.113)"
       y2="0"
       x2="1.485"
       y1="0"
       x1="0"
       gradientUnits="userSpaceOnUse"
       id="LinearGradient_20-69">
      <stop
         id="stop89046"
         stop-color="#d06226"
         offset="0" />
      <stop
         id="stop89048"
         stop-color="#f19137"
         offset="1" />
    </linearGradient>
    <linearGradient
       gradientTransform="matrix(0,1,-1,0,24.751,31.5)"
       y2="0"
       x2="2.252"
       y1="0"
       x1="0"
       gradientUnits="userSpaceOnUse"
       id="LinearGradient_19-11">
      <stop
         id="stop89041"
         stop-color="#335897"
         offset="0" />
      <stop
         id="stop89043"
         stop-color="#5f82bb"
         offset="1" />
    </linearGradient>
    <linearGradient
       gradientTransform="matrix(0,1,-1,0,18.002,30.75)"
       y2="0"
       x2="1.286"
       y1="0"
       x1="0"
       gradientUnits="userSpaceOnUse"
       id="LinearGradient_18-06">
      <stop
         id="stop89036"
         stop-color="#163561"
         offset="0" />
      <stop
         id="stop89038"
         stop-color="#4568a0"
         offset="1" />
    </linearGradient>
    <linearGradient
       gradientTransform="matrix(0,1,-1,0,27.362,29.25)"
       y2="0"
       x2="1.875"
       y1="0"
       x1="0"
       gradientUnits="userSpaceOnUse"
       id="LinearGradient_17-38">
      <stop
         id="stop89031"
         stop-color="#73912e"
         offset="0" />
      <stop
         id="stop89033"
         stop-color="#9fbd5a"
         offset="1" />
    </linearGradient>
    <linearGradient
       gradientTransform="matrix(0,1,-1,0,28.167,32.996)"
       y2="0"
       x2="2.22"
       y1="0"
       x1="0"
       gradientUnits="userSpaceOnUse"
       id="LinearGradient_16-66">
      <stop
         id="stop89026"
         stop-color="#df8e00"
         offset="0" />
      <stop
         id="stop89028"
         stop-color="#ffc60e"
         offset="1" />
    </linearGradient>
    <linearGradient
       gradientTransform="matrix(0,1,-1,0,23.187,27.936)"
       y2="0"
       x2="0.94"
       y1="0"
       x1="0"
       gradientUnits="userSpaceOnUse"
       id="LinearGradient_15-64">
      <stop
         id="stop89021"
         stop-color="#9a9a9a"
         offset="0" />
      <stop
         id="stop89023"
         stop-color="#5d5d5d"
         offset="1" />
    </linearGradient>
    <linearGradient
       gradientTransform="matrix(0,1,-1,0,13.127,26.25)"
       y2="0"
       x2="2.251"
       y1="0"
       x1="0"
       gradientUnits="userSpaceOnUse"
       id="LinearGradient_14-74">
      <stop
         id="stop89016"
         stop-color="#474747"
         offset="0" />
      <stop
         id="stop89018"
         stop-color="#2d2c2c"
         offset="1" />
    </linearGradient>
    <linearGradient
       gradientTransform="matrix(-0.11197885,0.99371059,-1.0023913,-0.0349456,8.759,32.384)"
       y2="0"
       x2="1.205"
       y1="0"
       x1="0"
       gradientUnits="userSpaceOnUse"
       id="LinearGradient_13-84">
      <stop
         id="stop89011"
         stop-color="#9c9c9c"
         offset="0" />
      <stop
         id="stop89013"
         stop-color="#5d5d5d"
         offset="1" />
    </linearGradient>
    <linearGradient
       gradientTransform="matrix(0,1,-1,0,22.876,26.25)"
       y2="0"
       x2="1.155"
       y1="0"
       x1="0"
       gradientUnits="userSpaceOnUse"
       id="LinearGradient_12-43">
      <stop
         id="stop89006"
         stop-color="#4b4b4b"
         offset="0" />
      <stop
         id="stop89008"
         stop-color="#2d2c2c"
         offset="1" />
    </linearGradient>
    <linearGradient
       gradientTransform="translate(23.251,28.5)"
       y2="-3"
       x2="0"
       y1="0"
       x1="0"
       gradientUnits="userSpaceOnUse"
       id="LinearGradient_11-68">
      <stop
         id="stop89001"
         stop-color="#a0a0a0"
         offset="0" />
      <stop
         id="stop89003"
         stop-color="#e2e2e2"
         offset="1" />
    </linearGradient>
    <linearGradient
       gradientTransform="matrix(0,-1,1,0,22.958,28.497)"
       y2="0"
       x2="2.702"
       y1="0"
       x1="0"
       gradientUnits="userSpaceOnUse"
       id="LinearGradient_10-434">
      <stop
         id="stop88996"
         stop-color="#bdbdbd"
         offset="0" />
      <stop
         id="stop88998"
         stop-color="#8a8989"
         offset="1" />
    </linearGradient>
    <linearGradient
       gradientTransform="matrix(0,-1,1,0,13.126,30)"
       y2="0"
       x2="4.251"
       y1="0"
       x1="0"
       gradientUnits="userSpaceOnUse"
       id="LinearGradient_9-91">
      <stop
         id="stop88991"
         stop-color="#bfbfbf"
         offset="0" />
      <stop
         id="stop88993"
         stop-color="#eaeaea"
         offset="1" />
    </linearGradient>
    <linearGradient
       gradientTransform="matrix(0,-1,1,0,13.126,28.989)"
       y2="0"
       x2="4.037"
       y1="0"
       x1="0"
       gradientUnits="userSpaceOnUse"
       id="LinearGradient_8-266">
      <stop
         id="stop88986"
         stop-color="#8a8989"
         offset="0" />
      <stop
         id="stop88988"
         stop-color="#8a8989"
         offset="1" />
    </linearGradient>
    <linearGradient
       gradientTransform="translate(6.628,33.138)"
       y2="0"
       x2="3.926"
       y1="0"
       x1="0"
       gradientUnits="userSpaceOnUse"
       id="LinearGradient_7-41">
      <stop
         id="stop88975"
         stop-color="#dfdfdf"
         offset="0" />
      <stop
         id="stop88977"
         stop-color="#ffffff"
         offset="0.164504826068878" />
      <stop
         id="stop88979"
         stop-color="#cccccc"
         offset="0.510175466537476" />
      <stop
         id="stop88981"
         stop-color="#ffffff"
         offset="0.855555534362793" />
      <stop
         id="stop88983"
         stop-color="#dfdfdf"
         offset="1" />
    </linearGradient>
    <linearGradient
       gradientTransform="translate(9.751,32.25)"
       y2="-1.5"
       x2="0"
       y1="0"
       x1="0"
       gradientUnits="userSpaceOnUse"
       id="LinearGradient_6-28">
      <stop
         id="stop88970"
         stop-color="#c1c1c1"
         offset="0" />
      <stop
         id="stop88972"
         stop-color="#999999"
         offset="1" />
    </linearGradient>
    <linearGradient
       gradientTransform="translate(24.751,21.001)"
       y2="-7.5"
       x2="8.25"
       y1="0"
       x1="0"
       gradientUnits="userSpaceOnUse"
       id="LinearGradient_5-536">
      <stop
         id="stop88963"
         stop-color="#6393c9"
         offset="0" />
      <stop
         id="stop88965"
         stop-color="#79aee6"
         offset="0.488444447517395" />
      <stop
         id="stop88967"
         stop-color="#5a89bd"
         offset="1" />
    </linearGradient>
    <linearGradient
       gradientTransform="translate(3.001,13.501)"
       y2="6.75"
       x2="8.25"
       y1="0"
       x1="0"
       gradientUnits="userSpaceOnUse"
       id="LinearGradient_4-25">
      <stop
         id="stop88956"
         stop-color="#5a89bd"
         offset="0" />
      <stop
         id="stop88958"
         stop-color="#79aee6"
         offset="0.488444447517395" />
      <stop
         id="stop88960"
         stop-color="#6394ca"
         offset="1" />
    </linearGradient>
    <linearGradient
       gradientTransform="translate(9.001,18.001)"
       y2="0"
       x2="18"
       y1="0"
       x1="0"
       gradientUnits="userSpaceOnUse"
       id="LinearGradient_3-244">
      <stop
         id="stop88949"
         stop-color="#5a89bd"
         offset="0" />
      <stop
         id="stop88951"
         stop-color="#79aee6"
         offset="0.488444447517395" />
      <stop
         id="stop88953"
         stop-color="#5a89bd"
         offset="1" />
    </linearGradient>
    <linearGradient
       gradientTransform="translate(11.586,23.216)"
       y2="-0.15"
       x2="12.75"
       y1="0"
       x1="0"
       gradientUnits="userSpaceOnUse"
       id="LinearGradient_2-399">
      <stop
         id="stop88942"
         stop-color="#d0d0d0"
         offset="0" />
      <stop
         id="stop88944"
         stop-color="#ffffff"
         offset="0.494117647409439" />
      <stop
         id="stop88946"
         stop-color="#d0d0d0"
         offset="1" />
    </linearGradient>
    <linearGradient
       gradientTransform="translate(7.501,34.501)"
       y2="-21.001"
       x2="0"
       y1="0"
       x1="0"
       gradientUnits="userSpaceOnUse"
       id="LinearGradient_1-908">
      <stop
         id="stop88937"
         stop-color="#e1e1e1"
         offset="0" />
      <stop
         id="stop88939"
         stop-color="#9d9d9d"
         offset="1" />
    </linearGradient>
    <linearGradient
       gradientTransform="matrix(0,-1,1,0,18.287,33.78)"
       y2="0"
       x2="20.198"
       y1="0"
       x1="0"
       gradientUnits="userSpaceOnUse"
       id="LinearGradient-552">
      <stop
         id="stop88932"
         stop-color="#cdcdcd"
         offset="0" />
      <stop
         id="stop88934"
         stop-color="#6a6a6a"
         offset="1" />
    </linearGradient>
  </defs>
  <sodipodi:namedview
     id="base"
     pagecolor="#ffffff"
     bordercolor="#666666"
     borderopacity="1.0"
     inkscape:pageopacity="0.0"
     inkscape:pageshadow="2"
     inkscape:zoom="5.3333333"
     inkscape:cx="20.082983"
     inkscape:cy="22.222689"
     inkscape:document-units="px"
     inkscape:current-layer="layer1"
     showgrid="false"
     inkscape:snap-page="true"
     inkscape:snap-grids="false"
     inkscape:snap-to-guides="false"
     inkscape:window-width="901"
     inkscape:window-height="665"
     inkscape:window-x="520"
     inkscape:window-y="200"
     inkscape:window-maximized="0">
    <inkscape:grid
       type="xygrid"
       id="grid11920"
       empspacing="5"
       visible="true"
       enabled="true"
       snapvisiblegridlinesonly="true" />
  </sodipodi:namedview>
  <metadata
     id="metadata7">
    <rdf:RDF>
      <cc:Work
         rdf:about="">
        <dc:format>image/svg+xml</dc:format>
        <dc:type
           rdf:resource="http://purl.org/dc/dcmitype/StillImage" />
        <dc:title />
      </cc:Work>
    </rdf:RDF>
  </metadata>
  <g
     inkscape:label="Layer 1"
     inkscape:groupmode="layer"
     id="layer1"
     transform="translate(0,-1004.3622)">
    <g
       style="fill-rule:evenodd;stroke-width:0.50099999;stroke-linejoin:bevel;overflow:visible"
       id="g89319"
       transform="matrix(1.3332786,0,0,1.3332814,0,1004.3634)">
      <g
         transform="scale(1,-1)"
         font-size="16"
         id="Document"
         style="font-size:16px;fill:none;stroke:#000000;font-family:Times New Roman">
        <g
           transform="translate(0,-36)"
           id="Spread">
          <g
             id="MouseOff">
            <g
               id="Group"
               style="stroke:none">
              <g
                 stroke-miterlimit="79.8403193612775"
                 id="Group_1"
                 style="fill:#000000">
                <path
                   id="path89070"
                   d="m 30.376,13.5 c -3.105,0 -5.625,-0.336 -5.625,-0.75 0,-0.414 2.52,-0.75 5.625,-0.75 3.105,0 5.625,0.336 5.625,0.75 0,0.414 -2.52,0.75 -5.625,0.75 z"
                   inkscape:connector-curvature="0"
                   style="fill-opacity:0.047059;marker-start:none;marker-end:none" />
                <path
                   id="path89072"
                   d="m 30.792,13.5 c -2.711,0 -4.91,-0.336 -4.91,-0.75 0,-0.414 2.199,-0.75 4.91,-0.75 2.711,0 4.91,0.336 4.91,0.75 0,0.414 -2.199,0.75 -4.91,0.75 z"
                   inkscape:connector-curvature="0"
                   style="fill-opacity:0.07450998;marker-start:none;marker-end:none" />
                <path
                   id="path89074"
                   d="m 31.239,13.501 c -2.136,0 -3.869,-0.224 -3.869,-0.5 0,-0.276 1.733,-0.5 3.869,-0.5 2.136,0 3.869,0.224 3.869,0.5 0,0.276 -1.733,0.5 -3.869,0.5 z"
                   inkscape:connector-curvature="0"
                   style="fill-opacity:0.09019602;marker-start:none;marker-end:none" />
                <path
                   id="path89076"
                   d="m 31.536,13.501 c -1.807,0 -3.274,-0.224 -3.274,-0.5 0,-0.276 1.467,-0.5 3.274,-0.5 1.807,0 3.274,0.224 3.274,0.5 0,0.276 -1.467,0.5 -3.274,0.5 z"
                   inkscape:connector-curvature="0"
                   style="fill-opacity:0.09019602;marker-start:none;marker-end:none" />
                <path
                   id="path89078"
                   d="m 32.132,13.501 c -1.314,0 -2.381,-0.224 -2.381,-0.5 0,-0.276 1.067,-0.5 2.381,-0.5 1.314,0 2.381,0.224 2.381,0.5 0,0.276 -1.067,0.5 -2.381,0.5 z"
                   inkscape:connector-curvature="0"
                   style="fill-opacity:0.09019602;marker-start:none;marker-end:none" />
                <path
                   id="path89080"
                   d="m 32.578,13.501 c -0.739,0 -1.339,-0.224 -1.339,-0.5 0,-0.276 0.6,-0.5 1.339,-0.5 0.739,0 1.339,0.224 1.339,0.5 0,0.276 -0.6,0.5 -1.339,0.5 z"
                   inkscape:connector-curvature="0"
                   style="fill-opacity:0.047059;marker-start:none;marker-end:none" />
              </g>
              <g
                 stroke-miterlimit="79.8403193612775"
                 id="Group_2"
                 style="fill:#000000">
                <path
                   id="path89083"
                   d="M 5.625,13.5 C 8.73,13.5 11.25,13.164 11.25,12.75 11.25,12.336 8.73,12 5.625,12 2.52,12 0,12.336 0,12.75 0,13.164 2.52,13.5 5.625,13.5 z"
                   inkscape:connector-curvature="0"
                   style="fill-opacity:0.047059;marker-start:none;marker-end:none" />
                <path
                   id="path89085"
                   d="m 5.209,13.5 c 2.711,0 4.91,-0.336 4.91,-0.75 0,-0.414 -2.199,-0.75 -4.91,-0.75 -2.711,0 -4.91,0.336 -4.91,0.75 0,0.414 2.199,0.75 4.91,0.75 z"
                   inkscape:connector-curvature="0"
                   style="fill-opacity:0.07450998;marker-start:none;marker-end:none" />
                <path
                   id="path89087"
                   d="m 4.762,13.501 c 2.136,0 3.869,-0.224 3.869,-0.5 0,-0.276 -1.733,-0.5 -3.869,-0.5 -2.136,0 -3.869,0.224 -3.869,0.5 0,0.276 1.733,0.5 3.869,0.5 z"
                   inkscape:connector-curvature="0"
                   style="fill-opacity:0.09019602;marker-start:none;marker-end:none" />
                <path
                   id="path89089"
                   d="m 4.465,13.501 c 1.807,0 3.274,-0.224 3.274,-0.5 0,-0.276 -1.467,-0.5 -3.274,-0.5 -1.807,0 -3.274,0.224 -3.274,0.5 0,0.276 1.467,0.5 3.274,0.5 z"
                   inkscape:connector-curvature="0"
                   style="fill-opacity:0.09019602;marker-start:none;marker-end:none" />
                <path
                   id="path89091"
                   d="m 3.869,13.501 c 1.314,0 2.381,-0.224 2.381,-0.5 0,-0.276 -1.067,-0.5 -2.381,-0.5 -1.314,0 -2.381,0.224 -2.381,0.5 0,0.276 1.067,0.5 2.381,0.5 z"
                   inkscape:connector-curvature="0"
                   style="fill-opacity:0.09019602;marker-start:none;marker-end:none" />
                <path
                   id="path89093"
                   d="m 3.423,13.501 c 0.739,0 1.339,-0.224 1.339,-0.5 0,-0.276 -0.6,-0.5 -1.339,-0.5 -0.739,0 -1.339,0.224 -1.339,0.5 0,0.276 0.6,0.5 1.339,0.5 z"
                   inkscape:connector-curvature="0"
                   style="fill-opacity:0.047059;marker-start:none;marker-end:none" />
              </g>
              <path
                 style="fill:url(#LinearGradient-552);stroke-width:0.071;marker-start:none;marker-end:none"
                 id="path89095"
                 stroke-miterlimit="79.8403193612775"
                 d="m 1.63,12.945 c -0.892,0.461 -1.57,1.778 -1.621,3.495 -0.087,2.965 0.599,5.922 1.293,8.673 0.822,3.256 2.183,6.518 3.745,8.713 1.326,1.804 3.122,2.674 5.89,1.88 1.386,-0.367 2.062,-1.033 3.314,-1.206 l 7.5,0 c 1.291,0.179 2.004,0.859 3.314,1.206 2.768,0.794 4.564,-0.076 5.89,-1.88 1.562,-2.195 2.924,-5.457 3.746,-8.713 0.693,-2.751 1.38,-5.708 1.293,-8.673 -0.051,-1.717 -0.729,-3.034 -1.622,-3.495 -0.824,-0.422 -1.853,-0.06 -2.49,0.196 -1.131,1.86 -3.374,5.107 -6.431,6.486 -1.782,0.806 -5.347,1.778 -7.43,1.783 l -0.04,0 C 15.898,21.405 13.833,21.183 12.052,20.377 9.094,19.042 6.751,16.501 4.12,13.141 3.483,12.885 2.455,12.523 1.63,12.945 z"
                 inkscape:connector-curvature="0" />
              <path
                 style="fill:url(#LinearGradient_1-908);stroke-width:0.071;marker-start:none;marker-end:none"
                 id="path89097"
                 stroke-miterlimit="79.8403193612775"
                 d="m 32.161,13.837 c -3.602,1.441 -4.577,4.973 -7.902,6.473 -1.925,0.871 -4.115,1.094 -6.238,1.1 l -0.041,0 C 15.857,21.404 13.667,21.181 11.743,20.31 8.453,18.825 7.341,15.237 3.84,13.837 3.153,13.56 2.45,13.367 1.972,13.612 c -0.541,0.279 -1.167,1.258 -1.214,2.85 -0.083,2.848 0.576,5.712 1.271,8.467 0.807,3.197 2.137,6.365 3.625,8.457 1.148,1.561 2.626,2.301 5.083,1.596 0.923,-0.244 1.78,-0.866 2.764,-1.232 l 9,0 c 1.012,0.377 1.965,1.021 2.763,1.232 2.457,0.705 3.935,-0.035 5.083,-1.596 1.488,-2.092 2.819,-5.26 3.626,-8.457 0.694,-2.755 1.354,-5.619 1.271,-8.467 -0.047,-1.592 -0.673,-2.571 -1.215,-2.851 -0.477,-0.244 -1.181,-0.051 -1.868,0.226 z"
                 inkscape:connector-curvature="0" />
              <path
                 id="path89099"
                 stroke-miterlimit="79.8403193612775"
                 d="m 33.001,24.848 c 0.457,0.01 1.469,-5.453 1.499,-7.115 0.045,-2.38 -1.486,-2.133 -1.347,-1.219 0.351,2.316 -0.081,8.3 -0.152,8.334 z"
                 inkscape:connector-curvature="0"
                 style="fill:#ffffff;fill-opacity:0.52548996;stroke-width:0.122;marker-start:none;marker-end:none" />
              <path
                 id="path89101"
                 stroke-miterlimit="79.8403193612775"
                 d="m 2.257,16.505 c -0.076,2.615 0.529,5.294 1.226,8.056 0.777,3.081 2.045,6.06 3.386,7.945 0.781,1.062 1.624,1.559 3.469,1.029 0.854,-0.226 2.285,-1.291 3.934,-1.52 1.07,-0.144 2.363,-0.28 3.739,-0.298 1.232,0.03 2.468,0.116 3.728,0.301 1.603,0.221 3.347,1.365 3.923,1.517 1.831,0.526 2.68,0.044 3.469,-1.029 1.341,-1.885 2.61,-4.865 3.387,-7.944 0.696,-2.764 1.302,-5.442 1.226,-8.057 -0.024,-0.822 -0.24,-1.283 -0.371,-1.483 l -0.106,0.018 c -0.129,0.033 -0.308,0.091 -0.547,0.188 -3.218,1.288 -4.109,4.764 -7.844,6.448 -2.211,1.001 -4.651,1.227 -6.853,1.234 l -0.046,0 C 15.776,22.903 13.335,22.677 11.125,21.676 7.401,19.996 6.449,16.495 3.281,15.228 3.041,15.131 2.862,15.073 2.733,15.04 L 2.627,15.022 c -0.131,0.201 -0.346,0.661 -0.37,1.483 z"
                 inkscape:connector-curvature="0"
                 style="fill:#ffffff;fill-opacity:0.10980398;stroke-width:0.071;marker-start:none;marker-end:none" />
              <path
                 id="path89103"
                 stroke-miterlimit="79.8403193612775"
                 d="m 25.494,23.043 c -2.497,1.13 -5.188,1.36 -7.469,1.367 l -0.05,0 c -2.28,-0.007 -4.972,-0.237 -7.468,-1.367 -2.371,-2.27 -6.006,-5.042 -6.694,-4.685 -0.688,0.357 0.599,3.758 1.124,5.836 0.748,2.964 1.954,5.755 3.147,7.433 0.334,0.454 0.545,0.551 0.626,0.58 0.075,0.027 0.392,0.122 1.229,-0.118 0.507,-0.134 2.257,-1.3 4.13,-1.56 1.104,-0.149 2.463,-0.293 3.951,-0.312 1.305,0.032 2.604,0.121 3.931,0.316 1.892,0.261 3.586,1.407 4.068,1.545 l 0.057,0.016 c 0.822,0.235 1.139,0.14 1.214,0.113 0.081,-0.029 0.292,-0.126 0.626,-0.58 1.194,-1.678 2.4,-4.47 3.148,-7.432 0.523,-2.079 2.247,-6.194 1.187,-6.194 -0.75,0 -4.419,3.444 -6.757,5.042 z"
                 inkscape:connector-curvature="0"
                 style="fill:#ffffff;fill-opacity:0.29019602;stroke-width:0.071;marker-start:none;marker-end:none" />
              <path
                 style="fill:url(#LinearGradient_2-399);stroke-width:0.071;marker-start:none;marker-end:none"
                 id="path89105"
                 stroke-miterlimit="79.8403193612775"
                 d="m 11.125,23.177 c 2.843,1.219 11.693,1.144 13.752,0 3.68,-1.66 9.051,-9.422 7.005,-8.536 -3.69,1.477 -4.874,5.107 -7.931,6.486 -1.958,0.794 -9.233,1.019 -11.9,0 C 8.994,19.748 7.81,16.118 4.12,14.641 c -2.046,-0.886 3.325,6.876 7.005,8.536 z"
                 inkscape:connector-curvature="0" />
              <path
                 id="path89107"
                 stroke-miterlimit="79.8403193612775"
                 d="m 11.125,22.427 c 2.843,1.219 11.693,1.144 13.752,0 3.68,-1.66 9.051,-9.422 7.005,-8.536 -3.69,1.477 -4.874,5.107 -7.931,6.486 -1.958,0.794 -9.233,1.019 -11.9,0 C 8.994,18.998 7.81,15.368 4.12,13.891 c -2.046,-0.886 3.325,6.876 7.005,8.536 z"
                 inkscape:connector-curvature="0"
                 style="fill:#7f7f7f;stroke-width:0.071;marker-start:none;marker-end:none" />
              <path
                 id="path89109"
                 stroke-miterlimit="79.8403193612775"
                 d="m 30.75,20.725 -0.476,0.39 c -1.025,0.968 -1.841,2.423 -3.782,3.298 -1.58,0.715 -7.033,0.861 -8.476,0.865 l -0.032,0 C 16.541,25.274 11.088,25.128 9.508,24.413 7.609,23.556 6.717,22.071 5.692,21.102 L 5.25,20.737 5.272,21.448 c 0.1,1.162 0.379,2.379 0.712,3.694 0.473,1.875 1.236,3.641 1.991,4.703 0.211,0.288 0.345,0.349 0.396,0.367 0.048,0.017 0.248,0.077 0.778,-0.074 0.321,-0.085 1.428,-0.823 2.613,-0.988 0.699,-0.094 5.309,-0.185 6.251,-0.197 0.825,0.02 5.398,0.077 6.237,0.2 1.198,0.165 2.27,0.89 2.575,0.978 l 0.036,0.01 c 0.52,0.148 0.72,0.088 0.768,0.071 0.051,-0.018 0.185,-0.079 0.396,-0.367 0.756,-1.062 1.519,-2.828 1.992,-4.703 0.331,-1.315 0.61,-2.532 0.711,-3.694 l 0.022,-0.723 z"
                 inkscape:connector-curvature="0"
                 style="fill:#ffffff;fill-opacity:0.32549002;stroke-width:0.045;marker-start:none;marker-end:none" />
              <path
                 id="path89111"
                 stroke-miterlimit="79.8403193612775"
                 d="m 3.086,14.655 c 2.122,1.563 4.359,5.362 8.039,7.022 2.843,1.219 11.693,1.144 13.752,0 3.68,-1.66 5.917,-5.459 8.039,-7.022 1.425,-1.05 1.012,-2.4 -1.034,-1.514 -3.69,1.477 -4.874,5.107 -7.931,6.486 -1.958,0.794 -9.233,1.019 -11.9,0 C 8.994,18.248 7.81,14.618 4.12,13.141 2.074,12.255 1.661,13.605 3.086,14.655 z"
                 inkscape:connector-curvature="0"
                 style="fill:#406a98;stroke-width:0.071;marker-start:none;marker-end:none" />
              <path
                 style="fill:url(#LinearGradient_3-244);stroke-width:0.071;marker-start:none;marker-end:none"
                 id="path89113"
                 stroke-miterlimit="79.8403193612775"
                 d="m 3.53,14.051 c 2.248,1.655 4.046,5.636 7.561,7.222 4.084,1.192 9.084,1.097 13.762,-0.075 3.522,-1.589 5.334,-5.466 7.618,-7.147 0.226,-0.168 0.359,-0.317 0.426,-0.437 -0.17,0.02 -0.402,0.078 -0.727,0.219 -3.526,1.411 -4.629,4.815 -7.954,6.315 -4.079,0.838 -8.099,0.94 -12.375,0 C 8.548,18.663 7.386,15.256 3.831,13.833 3.505,13.692 3.273,13.634 3.104,13.615 3.17,13.734 3.303,13.883 3.53,14.051 z"
                 inkscape:connector-curvature="0" />
              <path
                 style="fill:url(#LinearGradient_4-25);stroke-width:0.071;marker-start:none;marker-end:none"
                 id="path89115"
                 stroke-miterlimit="79.8403193612775"
                 d="m 3.53,14.051 c 2.248,1.655 4.388,5.356 7.903,6.942 L 11.742,20.31 C 8.449,18.825 7.386,15.256 3.831,13.833 3.505,13.692 3.273,13.634 3.104,13.615 3.17,13.734 3.303,13.883 3.53,14.051 z"
                 inkscape:connector-curvature="0" />
              <path
                 style="fill:url(#LinearGradient_5-536);stroke-width:0.071;marker-start:none;marker-end:none"
                 id="path89117"
                 stroke-miterlimit="79.8403193612775"
                 d="m 24.568,20.993 c 3.522,-1.589 5.619,-5.261 7.903,-6.942 0.226,-0.168 0.359,-0.317 0.426,-0.437 -0.17,0.02 -0.402,0.078 -0.727,0.219 -3.526,1.411 -4.586,4.977 -7.911,6.477 l 0.309,0.683 z"
                 inkscape:connector-curvature="0" />
              <path
                 id="path89119"
                 stroke-miterlimit="79.8403193612775"
                 d="M 4.742,16.78 C 4.585,16.914 4.566,17.151 4.7,17.309 l 3.45,4.05 c 0.134,0.157 0.371,0.176 0.529,0.042 0.157,-0.134 0.176,-0.371 0.042,-0.529 l -3.45,-4.05 C 5.137,16.665 4.9,16.646 4.742,16.78 z"
                 inkscape:connector-curvature="0"
                 style="fill:#ffffff;fill-opacity:0.58039198;fill-rule:evenodd;stroke-width:0.5;marker-start:none;marker-end:none" />
              <path
                 id="path89121"
                 stroke-miterlimit="79.8403193612775"
                 d="m 31.26,16.78 c 0.157,0.134 0.176,0.371 0.042,0.529 l -3.45,4.05 c -0.134,0.157 -0.371,0.176 -0.529,0.042 -0.157,-0.134 -0.176,-0.371 -0.042,-0.529 l 3.45,-4.05 c 0.134,-0.157 0.371,-0.176 0.529,-0.042 z"
                 inkscape:connector-curvature="0"
                 style="fill:#ffffff;fill-opacity:0.58039198;fill-rule:evenodd;stroke-width:0.5;marker-start:none;marker-end:none" />
              <g
                 id="Group_3">
                <path
                   style="fill:url(#LinearGradient_6-28);stroke-width:0.071;marker-start:none;marker-end:none"
                   id="path89124"
                   stroke-miterlimit="79.8403193612775"
                   d="m 8.627,34.5 c 1.862,0 3.374,-1.176 3.374,-2.625 0,-1.449 -1.512,-2.625 -3.374,-2.625 -1.862,0 -3.374,1.176 -3.374,2.625 0,1.449 1.512,2.625 3.374,2.625 z"
                   inkscape:connector-curvature="0" />
                <path
                   style="fill:url(#LinearGradient_7-41);stroke-width:0.071;marker-start:none;marker-end:none"
                   id="path89126"
                   stroke-miterlimit="79.8403193612775"
                   d="m 8.626,34.5 c 1.449,0 2.625,-1.008 2.625,-2.25 0,-1.242 -1.176,-2.25 -2.625,-2.25 -1.449,0 -2.625,1.008 -2.625,2.25 0,1.242 1.176,2.25 2.625,2.25 z"
                   inkscape:connector-curvature="0" />
                <path
                   id="path89128"
                   stroke-miterlimit="79.8403193612775"
                   d="m 8.626,34.5 c 1.449,0 2.625,-0.84 2.625,-1.875 0,-1.035 -1.176,-1.875 -2.625,-1.875 -1.449,0 -2.625,0.84 -2.625,1.875 0,1.035 1.176,1.875 2.625,1.875 z"
                   inkscape:connector-curvature="0"
                   style="fill:#2d2c2c;stroke-width:0.071;marker-start:none;marker-end:none" />
                <path
                   id="path89130"
                   stroke-miterlimit="79.8403193612775"
                   d="m 8.688,34.5 c 1,0 1.813,-0.672 1.813,-1.499 0,-0.827 -0.813,-1.499 -1.813,-1.499 -1,0 -1.813,0.672 -1.813,1.499 0,0.827 0.813,1.499 1.813,1.499 z"
                   inkscape:connector-curvature="0"
                   style="fill:#545454;stroke-width:0.071;marker-start:none;marker-end:none" />
                <path
                   id="path89132"
                   stroke-miterlimit="79.8403193612775"
                   d="m 8.626,34.5 c 1.035,0 1.875,-0.504 1.875,-1.125 0,-0.621 -0.84,-1.125 -1.875,-1.125 -1.035,0 -1.875,0.504 -1.875,1.125 0,0.621 0.84,1.125 1.875,1.125 z"
                   inkscape:connector-curvature="0"
                   style="fill:#2d2c2c;stroke-width:0.071;marker-start:none;marker-end:none" />
                <path
                   style="fill:url(#LinearGradient_8-266);stroke-width:0.071;marker-start:none;marker-end:none"
                   id="path89134"
                   stroke-miterlimit="79.8403193612775"
                   d="m 13.126,30 c 1.863,0 3.375,-1.176 3.375,-2.625 0,-1.449 -1.512,-2.625 -3.375,-2.625 -1.863,0 -3.375,1.176 -3.375,2.625 0,1.449 1.512,2.625 3.375,2.625 z"
                   inkscape:connector-curvature="0" />
                <path
                   style="fill:url(#LinearGradient_9-91);stroke-width:0.071;marker-start:none;marker-end:none"
                   id="path89136"
                   stroke-miterlimit="79.8403193612775"
                   d="m 13.126,30 c 1.862,0 3.374,-1.008 3.374,-2.249 0,-1.241 -1.512,-2.249 -3.374,-2.249 -1.862,0 -3.374,1.008 -3.374,2.249 0,1.241 1.512,2.249 3.374,2.249 z"
                   inkscape:connector-curvature="0" />
                <path
                   style="fill:url(#LinearGradient_10-434);stroke-width:0.071;marker-start:none;marker-end:none"
                   id="path89138"
                   stroke-miterlimit="79.8403193612775"
                   d="m 22.876,29.25 c 1.863,0 3.375,-1.008 3.375,-2.25 0,-1.242 -1.512,-2.25 -3.375,-2.25 -1.863,0 -3.375,1.008 -3.375,2.25 0,1.242 1.512,2.25 3.375,2.25 z"
                   inkscape:connector-curvature="0" />
                <path
                   style="fill:url(#LinearGradient_11-68);stroke-width:0.071;marker-start:none;marker-end:none"
                   id="path89140"
                   stroke-miterlimit="79.8403193612775"
                   d="m 22.876,30 c 1.863,0 3.375,-1.008 3.375,-2.25 0,-1.242 -1.512,-2.25 -3.375,-2.25 -1.863,0 -3.375,1.008 -3.375,2.25 0,1.242 1.512,2.25 3.375,2.25 z"
                   inkscape:connector-curvature="0" />
                <path
                   style="fill:url(#LinearGradient_12-43);stroke-width:0.071;marker-start:none;marker-end:none"
                   id="path89142"
                   stroke-miterlimit="79.8403193612775"
                   d="m 22.876,29.25 c 1.449,0 2.625,-0.672 2.625,-1.499 0,-0.827 -1.176,-1.499 -2.625,-1.499 -1.449,0 -2.625,0.672 -2.625,1.499 0,0.827 1.176,1.499 2.625,1.499 z"
                   inkscape:connector-curvature="0" />
                <path
                   id="path89144"
                   stroke-miterlimit="79.8403193612775"
                   d="m 22.876,30 c 1.449,0 2.625,-0.672 2.625,-1.5 0,-0.828 -1.176,-1.5 -2.625,-1.5 -1.449,0 -2.625,0.672 -2.625,1.5 0,0.828 1.176,1.5 2.625,1.5 z"
                   inkscape:connector-curvature="0"
                   style="fill:#545454;stroke-width:0.071;marker-start:none;marker-end:none" />
                <path
                   style="fill:url(#LinearGradient_13-84);stroke-width:0.071;marker-start:none;marker-end:none"
                   id="path89146"
                   stroke-miterlimit="79.8403193612775"
                   d="m 8.626,33.75 c 1.035,0 1.875,-0.336 1.875,-0.75 0,-0.414 -0.84,-0.75 -1.875,-0.75 -1.035,0 -1.875,0.336 -1.875,0.75 0,0.414 0.84,0.75 1.875,0.75 z"
                   inkscape:connector-curvature="0" />
                <path
                   style="fill:url(#LinearGradient_14-74);stroke-width:0.071;marker-start:none;marker-end:none"
                   id="path89148"
                   stroke-miterlimit="79.8403193612775"
                   d="m 13.127,30 c 1.449,0 2.624,-0.841 2.624,-1.875 0,-1.035 -1.175,-1.875 -2.624,-1.875 -1.45,0 -2.626,0.84 -2.626,1.875 0,1.034 1.176,1.875 2.626,1.875 z"
                   inkscape:connector-curvature="0" />
                <path
                   id="path89150"
                   stroke-miterlimit="79.8403193612775"
                   d="m 22.876,30 c 1.035,0 1.875,-0.504 1.875,-1.125 0,-0.621 -0.84,-1.125 -1.875,-1.125 -1.035,0 -1.875,0.504 -1.875,1.125 0,0.621 0.84,1.125 1.875,1.125 z"
                   inkscape:connector-curvature="0"
                   style="fill:#2d2c2c;stroke-width:0.071;marker-start:none;marker-end:none" />
                <path
                   style="fill:url(#LinearGradient_15-64);stroke-width:0.071;marker-start:none;marker-end:none"
                   id="path89152"
                   stroke-miterlimit="79.8403193612775"
                   d="m 22.876,29.25 c 1.035,0 1.875,-0.336 1.875,-0.75 0,-0.414 -0.84,-0.75 -1.875,-0.75 -1.035,0 -1.875,0.336 -1.875,0.75 0,0.414 0.84,0.75 1.875,0.75 z"
                   inkscape:connector-curvature="0" />
                <path
                   id="path89154"
                   stroke-miterlimit="79.8403193612775"
                   d="m 27.939,34.467 c 0.823,-0.147 1.404,-0.757 1.3,-1.36 -0.105,-0.602 -0.856,-0.976 -1.677,-0.824 -0.823,0.144 -1.403,0.755 -1.299,1.36 0.104,0.602 0.856,0.974 1.676,0.824 z"
                   inkscape:connector-curvature="0"
                   style="fill:#ffffff;fill-opacity:0.964706;stroke-width:0.026;marker-start:none;marker-end:none" />
                <path
                   style="fill:url(#LinearGradient_16-66);stroke-width:0.026;marker-start:none;marker-end:none"
                   id="path89156"
                   stroke-miterlimit="79.8403193612775"
                   d="m 27.939,35.217 c 0.823,-0.145 1.404,-0.757 1.3,-1.36 -0.104,-0.603 -0.856,-0.975 -1.677,-0.822 -0.823,0.144 -1.404,0.754 -1.299,1.357 0.104,0.603 0.856,0.972 1.676,0.825 z"
                   inkscape:connector-curvature="0" />
                <path
                   id="path89158"
                   stroke-miterlimit="79.8403193612775"
                   d="m 27.849,35.24 c 0.408,-0.048 0.7,-0.252 0.646,-0.452 -0.052,-0.202 -0.43,-0.328 -0.84,-0.276 -0.41,0.048 -0.702,0.251 -0.648,0.452 0.048,0.202 0.426,0.324 0.842,0.276 z"
                   inkscape:connector-curvature="0"
                   style="fill:#f9d835;stroke-width:0.026;marker-start:none;marker-end:none" />
                <path
                   id="path89160"
                   stroke-miterlimit="79.8403193612775"
                   d="m 27,30.75 c 0.829,0 1.501,-0.504 1.501,-1.126 0,-0.62 -0.672,-1.124 -1.501,-1.124 -0.828,0 -1.499,0.504 -1.499,1.124 0,0.622 0.671,1.126 1.499,1.126 z"
                   inkscape:connector-curvature="0"
                   style="fill:#ffffff;fill-opacity:0.54509798;stroke-width:0.026;marker-start:none;marker-end:none" />
                <path
                   style="fill:url(#LinearGradient_17-38);stroke-width:0.026;marker-start:none;marker-end:none"
                   id="path89162"
                   stroke-miterlimit="79.8403193612775"
                   d="m 27,31.5 c 0.829,0 1.501,-0.504 1.501,-1.126 0,-0.62 -0.672,-1.124 -1.501,-1.124 -0.828,0 -1.499,0.504 -1.499,1.124 0,0.622 0.671,1.126 1.499,1.126 z"
                   inkscape:connector-curvature="0" />
                <path
                   id="path89164"
                   stroke-miterlimit="79.8403193612775"
                   d="m 26.999,31.5 c 0.416,0 0.752,-0.168 0.752,-0.376 0,-0.207 -0.336,-0.375 -0.752,-0.375 -0.412,0 -0.748,0.168 -0.748,0.375 0,0.208 0.336,0.376 0.748,0.376 z"
                   inkscape:connector-curvature="0"
                   style="fill:#b9df63;stroke-width:0.026;marker-start:none;marker-end:none" />
                <path
                   id="path89166"
                   stroke-miterlimit="79.8403193612775"
                   d="m 18.001,33 c 0.828,0 1.5,-0.336 1.5,-0.75 0,-0.413 -0.672,-0.75 -1.5,-0.75 -0.827,0 -1.499,0.337 -1.499,0.75 0,0.414 0.672,0.75 1.499,0.75 z"
                   inkscape:connector-curvature="0"
                   style="fill:#545454;stroke-width:0.071;marker-start:none;marker-end:none" />
                <path
                   style="fill:url(#LinearGradient_18-06);stroke-width:0.071;marker-start:none;marker-end:none"
                   id="path89168"
                   stroke-miterlimit="79.8403193612775"
                   d="m 18.002,32.25 c 0.826,0 1.499,-0.335 1.499,-0.749 0,-0.415 -0.673,-0.751 -1.499,-0.751 -0.828,0 -1.5,0.336 -1.5,0.751 0,0.414 0.672,0.749 1.5,0.749 z"
                   inkscape:connector-curvature="0" />
                <path
                   id="path89170"
                   stroke-miterlimit="79.8403193612775"
                   d="m 18.002,32.25 c 0.413,0 0.749,-0.167 0.749,-0.376 0,-0.206 -0.336,-0.374 -0.749,-0.374 -0.414,0 -0.751,0.168 -0.751,0.374 0,0.209 0.337,0.376 0.751,0.376 z"
                   inkscape:connector-curvature="0"
                   style="fill:#84a6db;stroke-width:0.071;marker-start:none;marker-end:none" />
                <path
                   id="path89172"
                   stroke-miterlimit="79.8403193612775"
                   d="m 24.75,33 c 0.829,0 1.501,-0.504 1.501,-1.126 0,-0.62 -0.672,-1.124 -1.501,-1.124 -0.828,0 -1.499,0.504 -1.499,1.124 0,0.622 0.671,1.126 1.499,1.126 z"
                   inkscape:connector-curvature="0"
                   style="fill:#ffffff;fill-opacity:0.61960796;stroke-width:0.026;marker-start:none;marker-end:none" />
                <path
                   style="fill:url(#LinearGradient_19-11);stroke-width:0.026;marker-start:none;marker-end:none"
                   id="path89174"
                   stroke-miterlimit="79.8403193612775"
                   d="m 24.751,33.75 c 0.827,0 1.5,-0.502 1.5,-1.126 0,-0.618 -0.673,-1.124 -1.5,-1.124 -0.825,0 -1.5,0.506 -1.5,1.124 0,0.624 0.675,1.126 1.5,1.126 z"
                   inkscape:connector-curvature="0" />
                <path
                   id="path89176"
                   stroke-miterlimit="79.8403193612775"
                   d="m 24.751,33.75 c 0.413,0 0.75,-0.168 0.75,-0.376 0,-0.206 -0.337,-0.375 -0.75,-0.375 -0.414,0 -0.751,0.169 -0.751,0.375 0,0.208 0.337,0.376 0.751,0.376 z"
                   inkscape:connector-curvature="0"
                   style="fill:#a9c1f5;stroke-width:0.026;marker-start:none;marker-end:none" />
                <path
                   id="path89178"
                   stroke-miterlimit="79.8403193612775"
                   d="m 30.189,32.218 c 0.823,-0.147 1.404,-0.757 1.3,-1.36 -0.105,-0.602 -0.856,-0.976 -1.677,-0.824 -0.823,0.144 -1.403,0.755 -1.299,1.36 0.104,0.602 0.856,0.974 1.676,0.824 z"
                   inkscape:connector-curvature="0"
                   style="fill:#ffffff;fill-opacity:0.45490202;stroke-width:0.026;marker-start:none;marker-end:none" />
                <path
                   style="fill:url(#LinearGradient_20-69);stroke-width:0.026;marker-start:none;marker-end:none"
                   id="path89180"
                   stroke-miterlimit="79.8403193612775"
                   d="m 30.189,32.967 c 0.823,-0.147 1.404,-0.757 1.3,-1.36 -0.105,-0.602 -0.856,-0.976 -1.677,-0.824 -0.823,0.144 -1.403,0.755 -1.299,1.36 0.104,0.602 0.856,0.974 1.676,0.824 z"
                   inkscape:connector-curvature="0" />
                <path
                   id="path89182"
                   stroke-miterlimit="79.8403193612775"
                   d="m 30.096,32.989 c 0.413,-0.05 0.701,-0.254 0.649,-0.459 -0.052,-0.202 -0.429,-0.327 -0.837,-0.277 -0.411,0.05 -0.703,0.253 -0.651,0.459 0.052,0.203 0.429,0.326 0.839,0.277 z"
                   inkscape:connector-curvature="0"
                   style="fill:#ffac58;stroke-width:0.026;marker-start:none;marker-end:none" />
                <path
                   style="fill:url(#LinearGradient_21-058);stroke-width:0.071;marker-start:none;marker-end:none"
                   id="path89184"
                   stroke-miterlimit="79.8403193612775"
                   d="m 12.751,26.463 0,1.287 -1.21,0 c -0.16,0 -0.291,0.131 -0.291,0.291 l 0,0.167 c 0,0.16 0.131,0.291 0.291,0.291 l 1.21,0 0,1.287 c 0,0.118 0.096,0.214 0.214,0.214 l 0.321,0 c 0.118,0 0.214,-0.096 0.214,-0.214 l 0,-1.287 1.21,0 c 0.16,0 0.291,-0.131 0.291,-0.291 l 0,-0.167 c 0,-0.16 -0.131,-0.291 -0.291,-0.291 l -1.21,0 0,-1.287 c 0,-0.118 -0.096,-0.214 -0.214,-0.214 l -0.321,0 c -0.118,0 -0.214,0.096 -0.214,0.214 z"
                   inkscape:connector-curvature="0" />
                <path
                   style="fill:url(#LinearGradient_22-11);stroke-width:0.071;marker-start:none;marker-end:none"
                   id="path89186"
                   stroke-miterlimit="79.8403193612775"
                   d="m 14.251,32.895 0,-1.289 c 0,-0.058 0.048,-0.106 0.106,-0.106 l 1.287,0 c 0.058,0 0.106,0.048 0.106,0.106 l 0,1.289 c 0,0.058 -0.048,0.106 -0.106,0.106 l -1.287,0 c -0.058,0 -0.106,-0.048 -0.106,-0.106 z"
                   inkscape:connector-curvature="0" />
                <path
                   style="fill:url(#LinearGradient_23-158);stroke-width:0.071;marker-start:none;marker-end:none"
                   id="path89188"
                   stroke-miterlimit="79.8403193612775"
                   d="m 20.252,32.895 0,-1.289 c 0,-0.058 0.048,-0.106 0.106,-0.106 l 1.287,0 c 0.058,0 0.106,0.048 0.106,0.106 l 0,1.289 c 0,0.058 -0.048,0.106 -0.106,0.106 l -1.287,0 c -0.058,0 -0.106,-0.048 -0.106,-0.106 z"
                   inkscape:connector-curvature="0" />
              </g>
              <path
                 id="path89190"
                 stroke-miterlimit="79.8403193612775"
                 d="M 3.001,24.848 C 2.544,24.858 1.532,19.395 1.502,17.733 1.457,15.353 2.988,15.6 2.849,16.514 c -0.351,2.316 0.081,8.3 0.152,8.334 z"
                 inkscape:connector-curvature="0"
                 style="fill:#ffffff;fill-opacity:0.52548996;stroke-width:0.122;marker-start:none;marker-end:none" />
            </g>
          </g>
        </g>
      </g>
    </g>
  </g>
</svg>
