<?xml version="1.0" encoding="UTF-8" standalone="no"?>
<!-- Created with Inkscape (http://www.inkscape.org/) -->

<svg
   xmlns:dc="http://purl.org/dc/elements/1.1/"
   xmlns:cc="http://creativecommons.org/ns#"
   xmlns:rdf="http://www.w3.org/1999/02/22-rdf-syntax-ns#"
   xmlns:svg="http://www.w3.org/2000/svg"
   xmlns="http://www.w3.org/2000/svg"
   xmlns:sodipodi="http://sodipodi.sourceforge.net/DTD/sodipodi-0.dtd"
   xmlns:inkscape="http://www.inkscape.org/namespaces/inkscape"
   width="48"
   height="48"
   id="svg2"
   version="1.1"
   inkscape:version="0.48.3.1 r9886"
   sodipodi:docname="48.svg">
  <defs
     id="defs4">
    <linearGradient
       gradientTransform="translate(7.893,8.009)"
       y2="-1.275"
       x2="0"
       y1="0"
       x1="0"
       gradientUnits="userSpaceOnUse"
       id="LinearGradient_21-9">
      <stop
         id="stop15603"
         stop-color="#999999"
         offset="0" />
      <stop
         id="stop15605"
         stop-color="#ffffff"
         offset="1" />
    </linearGradient>
    <linearGradient
       gradientTransform="translate(8.838,10.096)"
       y2="-2.1"
       x2="0"
       y1="0"
       x1="0"
       gradientUnits="userSpaceOnUse"
       id="LinearGradient_20-27">
      <stop
         id="stop15598"
         stop-color="#848585"
         offset="0" />
      <stop
         id="stop15600"
         stop-color="#969696"
         offset="1" />
    </linearGradient>
    <linearGradient
       gradientTransform="translate(8.884,6.06)"
       y2="3.633"
       x2="0"
       y1="0"
       x1="0"
       gradientUnits="userSpaceOnUse"
       id="LinearGradient_19-44">
      <stop
         id="stop15593"
         stop-color="#ffffff"
         offset="0" />
      <stop
         id="stop15595"
         stop-color="#858585"
         offset="1" />
    </linearGradient>
    <linearGradient
       gradientTransform="translate(7.331,10.671)"
       y2="-8.248"
       x2="-0.003"
       y1="0"
       x1="0"
       gradientUnits="userSpaceOnUse"
       id="LinearGradient_18-24">
      <stop
         id="stop15588"
         stop-color="#fefefe"
         offset="0" />
      <stop
         id="stop15590"
         stop-color="#a4a4a4"
         offset="1" />
    </linearGradient>
    <linearGradient
       gradientTransform="translate(7.5,12.751)"
       y2="-5.25"
       x2="0"
       y1="0"
       x1="0"
       gradientUnits="userSpaceOnUse"
       id="LinearGradient_17-3">
      <stop
         id="stop15583"
         stop-color="#c7c7c7"
         offset="0" />
      <stop
         id="stop15585"
         stop-color="#a1a1a1"
         offset="1" />
    </linearGradient>
    <linearGradient
       gradientTransform="translate(7.5,14.251)"
       y2="-11.53"
       x2="0.056"
       y1="0"
       x1="0"
       gradientUnits="userSpaceOnUse"
       id="LinearGradient_16-65">
      <stop
         id="stop15578"
         stop-color="#858585"
         offset="0" />
      <stop
         id="stop15580"
         stop-color="#6b6b6b"
         offset="1" />
    </linearGradient>
    <linearGradient
       gradientTransform="translate(21.376,14.475)"
       y2="-2.532"
       x2="0"
       y1="0"
       x1="0"
       gradientUnits="userSpaceOnUse"
       id="LinearGradient_15-92">
      <stop
         id="stop15573"
         stop-color="#696969"
         offset="0" />
      <stop
         id="stop15575"
         stop-color="#747474"
         offset="1" />
    </linearGradient>
    <linearGradient
       gradientTransform="translate(21.759,13.697)"
       y2="-1.05"
       x2="0.975"
       y1="0"
       x1="0"
       gradientUnits="userSpaceOnUse"
       id="LinearGradient_14-95">
      <stop
         id="stop15568"
         stop-color="#525252"
         offset="0" />
      <stop
         id="stop15570"
         stop-color="#ffffff"
         offset="1" />
    </linearGradient>
    <linearGradient
       gradientTransform="translate(22.918,10.299)"
       y2="4.582"
       x2="0"
       y1="0"
       x1="0"
       gradientUnits="userSpaceOnUse"
       id="LinearGradient_13-39">
      <stop
         id="stop15563"
         stop-color="#f5f5f5"
         offset="0" />
      <stop
         id="stop15565"
         stop-color="#a5a5a5"
         offset="1" />
    </linearGradient>
    <linearGradient
       gradientTransform="matrix(0,-1,1,0,22.501,17.797)"
       y2="0"
       x2="8.002"
       y1="0"
       x1="0"
       gradientUnits="userSpaceOnUse"
       id="LinearGradient_12-1">
      <stop
         id="stop15558"
         stop-color="#848585"
         offset="0" />
      <stop
         id="stop15560"
         stop-color="#969696"
         offset="1" />
    </linearGradient>
    <linearGradient
       gradientTransform="translate(22.5,18.751)"
       y2="-9.75"
       x2="0"
       y1="0"
       x1="0"
       gradientUnits="userSpaceOnUse"
       id="LinearGradient_11-5">
      <stop
         id="stop15553"
         stop-color="#919293"
         offset="0" />
      <stop
         id="stop15555"
         stop-color="#f1f1f1"
         offset="1" />
    </linearGradient>
    <linearGradient
       gradientTransform="translate(22.5,7.501)"
       y2="11.25"
       x2="0"
       y1="0"
       x1="0"
       gradientUnits="userSpaceOnUse"
       id="LinearGradient_10-76">
      <stop
         id="stop15546"
         stop-color="#fefefe"
         offset="0" />
      <stop
         id="stop15548"
         stop-color="#ededed"
         offset="0.236360549926758" />
      <stop
         id="stop15550"
         stop-color="#838484"
         offset="1" />
    </linearGradient>
    <linearGradient
       gradientTransform="translate(20.231,21.771)"
       y2="-5.884"
       x2="0.012"
       y1="0"
       x1="0"
       gradientUnits="userSpaceOnUse"
       id="LinearGradient_9-72">
      <stop
         id="stop15541"
         stop-color="#ffffff"
         offset="0" />
      <stop
         id="stop15543"
         stop-color="#e5e5e5"
         offset="1" />
    </linearGradient>
    <linearGradient
       gradientTransform="matrix(0,-1,1,0,20.853,24.955)"
       y2="0"
       x2="22.097"
       y1="0"
       x1="0"
       gradientUnits="userSpaceOnUse"
       id="LinearGradient_8-62">
      <stop
         id="stop15536"
         stop-color="#ffffff"
         offset="0" />
      <stop
         id="stop15538"
         stop-color="#a5a5a5"
         offset="1" />
    </linearGradient>
    <linearGradient
       gradientTransform="translate(21,24.88)"
       y2="-15.75"
       x2="0"
       y1="0"
       x1="0"
       gradientUnits="userSpaceOnUse"
       id="LinearGradient_7-1">
      <stop
         id="stop15531"
         stop-color="#d3d3d3"
         offset="0" />
      <stop
         id="stop15533"
         stop-color="#929292"
         offset="1" />
    </linearGradient>
    <linearGradient
       gradientTransform="translate(21,25.63)"
       y2="-12.75"
       x2="0"
       y1="0"
       x1="0"
       gradientUnits="userSpaceOnUse"
       id="LinearGradient_6-19">
      <stop
         id="stop15526"
         stop-color="#9a9a9a"
         offset="0" />
      <stop
         id="stop15528"
         stop-color="#676767"
         offset="1" />
    </linearGradient>
    <linearGradient
       gradientTransform="translate(14.25,31.501)"
       y2="-1.5"
       x2="0"
       y1="0"
       x1="0"
       gradientUnits="userSpaceOnUse"
       id="LinearGradient_5-77">
      <stop
         id="stop15521"
         stop-color="#fcfcfc"
         offset="0" />
      <stop
         id="stop15523"
         stop-color="#d6d6d6"
         offset="1" />
    </linearGradient>
    <linearGradient
       gradientTransform="matrix(0,1,-1,0,20.25,5.252)"
       y2="0"
       x2="0.6"
       y1="0"
       x1="0"
       gradientUnits="userSpaceOnUse"
       id="LinearGradient_4-76">
      <stop
         id="stop15516"
         stop-color="#ffffff"
         offset="0" />
      <stop
         id="stop15518"
         stop-color="#b2b2b2"
         offset="1" />
    </linearGradient>
    <linearGradient
       gradientTransform="matrix(0,-1,1,0,14.441,31.723)"
       y2="0"
       x2="27.443"
       y1="0"
       x1="0"
       gradientUnits="userSpaceOnUse"
       id="LinearGradient_3-6">
      <stop
         id="stop15511"
         stop-color="#c9c9c9"
         offset="0" />
      <stop
         id="stop15513"
         stop-color="#b0b0b0"
         offset="1" />
    </linearGradient>
    <linearGradient
       gradientTransform="matrix(0,-1,1,0,14.344,32.729)"
       y2="0"
       x2="29.455"
       y1="0"
       x1="0"
       gradientUnits="userSpaceOnUse"
       id="LinearGradient_2-6">
      <stop
         id="stop15506"
         stop-color="#878b8e"
         offset="0" />
      <stop
         id="stop15508"
         stop-color="#818689"
         offset="1" />
    </linearGradient>
    <linearGradient
       gradientTransform="translate(17.25,33.001)"
       y2="1.5"
       x2="0"
       y1="0"
       x1="0"
       gradientUnits="userSpaceOnUse"
       id="LinearGradient_1-56">
      <stop
         id="stop15501"
         stop-color="#b1b1b1"
         offset="0" />
      <stop
         id="stop15503"
         stop-color="#cbcbcb"
         offset="1" />
    </linearGradient>
    <linearGradient
       gradientTransform="matrix(0,-1,1,0,14.648,35.729)"
       y2="0"
       x2="29.455"
       y1="0"
       x1="0"
       gradientUnits="userSpaceOnUse"
       id="LinearGradient-203">
      <stop
         id="stop15496"
         stop-color="#878b8e"
         offset="0" />
      <stop
         id="stop15498"
         stop-color="#818689"
         offset="1" />
    </linearGradient>
  </defs>
  <sodipodi:namedview
     id="base"
     pagecolor="#ffffff"
     bordercolor="#666666"
     borderopacity="1.0"
     inkscape:pageopacity="0.0"
     inkscape:pageshadow="2"
     inkscape:zoom="6.7819317"
     inkscape:cx="24.370822"
     inkscape:cy="23.776412"
     inkscape:document-units="px"
     inkscape:current-layer="layer1"
     showgrid="false"
     inkscape:window-width="860"
     inkscape:window-height="523"
     inkscape:window-x="845"
     inkscape:window-y="315"
     inkscape:window-maximized="0" />
  <metadata
     id="metadata7">
    <rdf:RDF>
      <cc:Work
         rdf:about="">
        <dc:format>image/svg+xml</dc:format>
        <dc:type
           rdf:resource="http://purl.org/dc/dcmitype/StillImage" />
        <dc:title />
      </cc:Work>
    </rdf:RDF>
  </metadata>
  <g
     inkscape:label="Layer 1"
     inkscape:groupmode="layer"
     id="layer1"
     transform="translate(0,-1004.3622)">
    <g
       style="fill-rule:evenodd;stroke-width:0.50099999;stroke-linejoin:bevel;overflow:visible"
       id="g15917"
       transform="matrix(1.3333333,0,0,1.3333494,0,1004.3622)">
      <g
         transform="scale(1,-1)"
         font-size="16"
         id="Document"
         style="font-size:16px;fill:none;stroke:#000000;font-family:Times New Roman">
        <g
           transform="translate(0,-36)"
           id="Spread">
          <g
             id="MouseOff">
            <g
               id="Group"
               style="stroke-linejoin:miter">
              <g
                 id="Group_1"
                 style="stroke:none">
                <g
                   stroke-miterlimit="79.8403193612775"
                   id="Group_2">
                  <path
                     style="fill:url(#LinearGradient-203);marker-start:none;marker-end:none"
                     id="path15633"
                     d="m 1.499,32.251 0,1.632 C 1.499,35.051 2.448,36 3.616,36 l 28.767,0 c 1.168,0 2.117,-0.949 2.117,-2.117 l 0,-1.632 -33.001,0 z"
                     inkscape:connector-curvature="0" />
                  <path
                     style="fill:url(#LinearGradient_1-56);marker-start:none;marker-end:none"
                     id="path15635"
                     d="m 2.249,32.251 0,1.556 c 0,0.797 0.647,1.444 1.444,1.444 l 28.613,0 c 0.797,0 1.444,-0.647 1.444,-1.444 l 0,-1.556 -31.501,0 z"
                     inkscape:connector-curvature="0" />
                  <path
                     id="path15637"
                     d="m 2.249,32.307 0,0.75 c 0,0.797 0.647,1.444 1.444,1.444 l 28.613,0 c 0.797,0 1.444,-0.647 1.444,-1.444 l 0,-0.75 c 0,0.797 -0.647,1.444 -1.444,1.444 l -28.613,0 c -0.797,0 -1.444,-0.647 -1.444,-1.444 z"
                     inkscape:connector-curvature="0"
                     style="fill:#e7e7e7;marker-start:none;marker-end:none" />
                </g>
                <g
                   id="Group_3">
                  <g
                     stroke-miterlimit="79.8403193612775"
                     id="Group_4"
                     style="fill:#494a4f">
                    <path
                       id="path15641"
                       d="m 0.001,3.377 0,-0.002 c 0,-0.62 0.447,-1.124 0.997,-1.124 l 34.005,0 c 0.55,0 0.997,0.504 0.997,1.124 l 0,0.002 c 0,0.62 -0.447,1.124 -0.997,1.124 l -34.005,0 c -0.55,0 -0.997,-0.504 -0.997,-1.124 z"
                       inkscape:connector-curvature="0"
                       style="fill-opacity:0.05490202;marker-start:none;marker-end:none" />
                    <path
                       id="path15643"
                       d="m 0.141,3.423 0,-0.002 c 0,-0.594 0.446,-1.077 0.997,-1.077 l 33.724,0 c 0.551,0 0.997,0.483 0.997,1.077 l 0,0.002 c 0,0.594 -0.446,1.078 -0.997,1.078 l -33.724,0 C 0.587,4.501 0.141,4.017 0.141,3.423 z"
                       inkscape:connector-curvature="0"
                       style="fill-opacity:0.07450998;marker-start:none;marker-end:none" />
                    <path
                       id="path15645"
                       d="m 0.281,3.471 0,-0.002 c 0,-0.568 0.447,-1.031 0.998,-1.031 l 33.442,0 c 0.551,0 0.998,0.463 0.998,1.031 l 0,0.002 c 0,0.567 -0.447,1.03 -0.998,1.03 l -33.442,0 c -0.551,0 -0.998,-0.463 -0.998,-1.03 z"
                       inkscape:connector-curvature="0"
                       style="fill-opacity:0.09411801;marker-start:none;marker-end:none" />
                    <path
                       id="path15647"
                       d="m 0.422,3.517 0,0 c 0,-0.544 0.447,-0.985 0.998,-0.985 l 33.161,0 c 0.551,0 0.997,0.441 0.997,0.985 l 0,0 c 0,0.543 -0.446,0.984 -0.997,0.984 l -33.161,0 C 0.869,4.501 0.422,4.06 0.422,3.517 z"
                       inkscape:connector-curvature="0"
                       style="fill-opacity:0.10980398;marker-start:none;marker-end:none" />
                    <path
                       id="path15649"
                       d="m 0.563,3.563 0,-0.002 c 0,-0.516 0.447,-0.935 0.996,-0.935 l 32.882,0 c 0.55,0 0.997,0.419 0.997,0.935 l 0,0.002 c 0,0.518 -0.447,0.938 -0.997,0.938 l -32.882,0 C 1.01,4.501 0.563,4.081 0.563,3.563 z"
                       inkscape:connector-curvature="0"
                       style="fill-opacity:0.129412;marker-start:none;marker-end:none" />
                    <path
                       id="path15651"
                       d="m 0.704,3.609 0,0 c 0,-0.492 0.446,-0.89 0.996,-0.89 l 32.6,0 c 0.55,0 0.997,0.398 0.997,0.89 l 0,0 c 0,0.492 -0.447,0.892 -0.997,0.892 l -32.6,0 c -0.55,0 -0.996,-0.4 -0.996,-0.892 z"
                       inkscape:connector-curvature="0"
                       style="fill-opacity:0.14902003;marker-start:none;marker-end:none" />
                    <path
                       id="path15653"
                       d="m 0.844,3.657 0,0 c 0,-0.468 0.447,-0.845 0.997,-0.845 l 32.319,0 c 0.549,0 0.996,0.377 0.996,0.845 l 0,0 c 0,0.467 -0.447,0.844 -0.996,0.844 l -32.319,0 c -0.55,0 -0.997,-0.377 -0.997,-0.844 z"
                       inkscape:connector-curvature="0"
                       style="fill-opacity:0.164706;marker-start:none;marker-end:none" />
                  </g>
                  <path
                     style="fill:url(#LinearGradient_2-6);stroke-width:0.122;marker-start:none;marker-end:none"
                     id="path15655"
                     stroke-miterlimit="79.8403193612775"
                     d="M 0,30.883 0,5.118 C 0,3.95 0.949,3.001 2.117,3.001 l 31.765,0 c 1.168,0 2.117,0.949 2.117,2.117 l 0,25.765 C 35.999,32.051 35.05,33 33.882,33 L 2.117,33 C 0.949,33 0,32.051 0,30.883 z"
                     inkscape:connector-curvature="0" />
                  <path
                     style="fill:url(#LinearGradient_3-6);stroke-width:0.122;marker-start:none;marker-end:none"
                     id="path15657"
                     stroke-miterlimit="79.8403193612775"
                     d="m 0.749,30.688 0,-25.375 c 0,-0.862 0.7,-1.562 1.562,-1.562 l 31.377,0 c 0.862,0 1.562,0.7 1.562,1.562 l 0,25.375 c 0,0.862 -0.7,1.562 -1.562,1.562 l -31.377,0 c -0.862,0 -1.562,-0.7 -1.562,-1.562 z"
                     inkscape:connector-curvature="0" />
                  <path
                     id="path15659"
                     stroke-miterlimit="79.8403193612775"
                     d="m 0.75,19.89 0,10.201 c 0,0.453 1.076,1.41 1.407,1.41 l 31.687,0 c 0.329,0 1.406,-0.956 1.406,-1.41 l 0,-10.201 C 31.24,17.37 25.001,15.752 18,15.752 c -7.002,0 -13.24,1.619 -17.25,4.138 z"
                     inkscape:connector-curvature="0"
                     style="fill:#ffffff;fill-opacity:0.164706;stroke-width:0.051;marker-start:none;marker-end:none" />
                  <path
                     style="fill:url(#LinearGradient_4-76);stroke-width:0.122;marker-start:none;marker-end:none"
                     id="path15661"
                     stroke-miterlimit="79.8403193612775"
                     d="m 2.251,6.751 0,-0.001 c 0,-0.827 0.884,-1.499 1.973,-1.499 l 27.553,0 c 1.089,0 1.973,0.672 1.973,1.499 l 0,0.001 c 0,0.827 -0.884,1.499 -1.973,1.499 l -27.553,0 C 3.135,8.25 2.251,7.578 2.251,6.751 z"
                     inkscape:connector-curvature="0" />
                  <path
                     id="path15663"
                     stroke-miterlimit="79.8403193612775"
                     d="m 2.251,27.674 0,-20.097 c 0,-0.869 0.707,-1.576 1.576,-1.576 l 28.347,0 c 0.869,0 1.576,0.707 1.576,1.576 l 0,20.097 c 0,0.869 -0.707,1.576 -1.576,1.576 l -28.347,0 c -0.869,0 -1.576,-0.707 -1.576,-1.576 z"
                     inkscape:connector-curvature="0"
                     style="fill:#7f7f7f;stroke-width:0.122;marker-start:none;marker-end:none" />
                  <path
                     id="path15665"
                     stroke-miterlimit="79.8403193612775"
                     d="m 3.001,28.057 0,-20.113 C 3.001,7.285 3.536,6.75 4.195,6.75 l 27.611,0 C 32.465,6.75 33,7.285 33,7.944 l 0,20.113 c 0,0.659 -0.535,1.194 -1.194,1.194 l -27.611,0 c -0.659,0 -1.194,-0.535 -1.194,-1.194 z"
                     inkscape:connector-curvature="0"
                     style="fill:#1d1d1d;stroke-width:0.122;marker-start:none;marker-end:none" />
                  <path
                     id="path15667"
                     stroke-miterlimit="79.8403193612775"
                     d="m 3.752,27.756 0,-19.511 c 0,-0.41 0.334,-0.744 0.744,-0.744 l 27.009,0 c 0.41,0 0.744,0.334 0.744,0.744 l 0,19.511 c 0,0.41 -0.334,0.744 -0.744,0.744 l -27.009,0 c -0.41,0 -0.744,-0.334 -0.744,-0.744 z"
                     inkscape:connector-curvature="0"
                     style="fill:#2e2c2c;stroke-width:0.122;marker-start:none;marker-end:none" />
                  <path
                     id="path15669"
                     stroke-miterlimit="79.8403193612775"
                     d="m 4.501,27.231 0,-18.461 c 0,-0.286 0.233,-0.519 0.519,-0.519 l 25.961,0 c 0.286,0 0.519,0.233 0.519,0.519 l 0,18.461 c 0,0.286 -0.233,0.519 -0.519,0.519 l -25.961,0 c -0.286,0 -0.519,-0.233 -0.519,-0.519 z"
                     inkscape:connector-curvature="0"
                     style="fill:#3c3d41;stroke-width:0.122;marker-start:none;marker-end:none" />
                  <path
                     style="fill:url(#LinearGradient_5-77);stroke-width:0.122;marker-start:none;marker-end:none"
                     id="path15671"
                     stroke-miterlimit="79.8403193612775"
                     d="m 2.311,31.501 31.377,0 c 0.841,0 1.528,-0.668 1.56,-1.501 l -0.751,0 c -0.031,0.418 -0.383,0.751 -0.809,0.751 l -31.377,0 C 1.883,30.751 1.532,30.418 1.501,30 L 0.75,30 c 0.032,0.833 0.719,1.501 1.561,1.501 z"
                     inkscape:connector-curvature="0" />
                  <path
                     id="path15673"
                     stroke-miterlimit="79.8403193612775"
                     d="m 4.5,9.37 0,0.011 C 4.502,9.585 4.669,9.751 4.875,9.751 5.082,9.751 5.25,9.583 5.25,9.376 5.25,9.169 5.082,9.001 4.875,9.001 4.669,9.001 4.502,9.166 4.5,9.37 z M 6,9.376 C 6,9.583 6.168,9.751 6.375,9.751 6.582,9.751 6.75,9.583 6.75,9.376 6.75,9.169 6.582,9.001 6.375,9.001 6.168,9.001 6,9.169 6,9.376 z m 1.5,0 C 7.5,9.583 7.668,9.751 7.875,9.751 8.082,9.751 8.25,9.583 8.25,9.376 8.25,9.169 8.082,9.001 7.875,9.001 7.668,9.001 7.5,9.169 7.5,9.376 z m 1.5,0 C 9,9.583 9.168,9.751 9.375,9.751 9.582,9.751 9.75,9.583 9.75,9.376 9.75,9.169 9.582,9.001 9.375,9.001 9.168,9.001 9,9.169 9,9.376 z m 1.5,0 c 0,0.207 0.168,0.375 0.375,0.375 0.207,0 0.375,-0.168 0.375,-0.375 0,-0.207 -0.168,-0.375 -0.375,-0.375 -0.207,0 -0.375,0.168 -0.375,0.375 z m 1.5,0 c 0,0.207 0.168,0.375 0.375,0.375 0.207,0 0.375,-0.168 0.375,-0.375 0,-0.207 -0.168,-0.375 -0.375,-0.375 C 12.168,9.001 12,9.169 12,9.376 z m 1.5,0 c 0,0.207 0.168,0.375 0.375,0.375 0.207,0 0.375,-0.168 0.375,-0.375 0,-0.207 -0.168,-0.375 -0.375,-0.375 -0.207,0 -0.375,0.168 -0.375,0.375 z m 1.5,0 c 0,0.207 0.168,0.375 0.375,0.375 0.207,0 0.375,-0.168 0.375,-0.375 0,-0.207 -0.168,-0.375 -0.375,-0.375 C 15.168,9.001 15,9.169 15,9.376 z m 1.5,0 c 0,0.207 0.168,0.375 0.375,0.375 0.207,0 0.375,-0.168 0.375,-0.375 0,-0.207 -0.168,-0.375 -0.375,-0.375 -0.207,0 -0.375,0.168 -0.375,0.375 z m 1.5,0 c 0,0.207 0.168,0.375 0.375,0.375 0.207,0 0.375,-0.168 0.375,-0.375 0,-0.207 -0.168,-0.375 -0.375,-0.375 C 18.168,9.001 18,9.169 18,9.376 z m 1.5,0 c 0,0.207 0.168,0.375 0.375,0.375 0.207,0 0.375,-0.168 0.375,-0.375 0,-0.207 -0.168,-0.375 -0.375,-0.375 -0.207,0 -0.375,0.168 -0.375,0.375 z m 1.5,0 c 0,0.207 0.168,0.375 0.375,0.375 0.207,0 0.375,-0.168 0.375,-0.375 0,-0.207 -0.168,-0.375 -0.375,-0.375 C 21.168,9.001 21,9.169 21,9.376 z m 1.5,0 c 0,0.207 0.168,0.375 0.375,0.375 0.207,0 0.375,-0.168 0.375,-0.375 0,-0.207 -0.168,-0.375 -0.375,-0.375 -0.207,0 -0.375,0.168 -0.375,0.375 z m 1.5,0 c 0,0.207 0.168,0.375 0.375,0.375 0.207,0 0.375,-0.168 0.375,-0.375 0,-0.207 -0.168,-0.375 -0.375,-0.375 C 24.168,9.001 24,9.169 24,9.376 z m 1.5,0 c 0,0.207 0.168,0.375 0.375,0.375 0.207,0 0.375,-0.168 0.375,-0.375 0,-0.207 -0.168,-0.375 -0.375,-0.375 -0.207,0 -0.375,0.168 -0.375,0.375 z m 1.5,0 c 0,0.207 0.168,0.375 0.375,0.375 0.207,0 0.375,-0.168 0.375,-0.375 0,-0.207 -0.168,-0.375 -0.375,-0.375 C 27.168,9.001 27,9.169 27,9.376 z m 1.5,0 c 0,0.207 0.168,0.375 0.375,0.375 0.207,0 0.375,-0.168 0.375,-0.375 0,-0.207 -0.168,-0.375 -0.375,-0.375 -0.207,0 -0.375,0.168 -0.375,0.375 z m 1.5,0 c 0,0.207 0.168,0.375 0.375,0.375 0.207,0 0.375,-0.168 0.375,-0.375 0,-0.207 -0.168,-0.375 -0.375,-0.375 C 30.168,9.001 30,9.169 30,9.376 z m -25.5,1.494 0,0.011 c 0.002,0.204 0.169,0.37 0.375,0.37 0.207,0 0.375,-0.168 0.375,-0.375 0,-0.207 -0.168,-0.375 -0.375,-0.375 -0.206,0 -0.373,0.165 -0.375,0.369 z M 6,10.876 c 0,0.207 0.168,0.375 0.375,0.375 0.207,0 0.375,-0.168 0.375,-0.375 0,-0.207 -0.168,-0.375 -0.375,-0.375 C 6.168,10.501 6,10.669 6,10.876 z m 1.5,0 c 0,0.207 0.168,0.375 0.375,0.375 0.207,0 0.375,-0.168 0.375,-0.375 0,-0.207 -0.168,-0.375 -0.375,-0.375 -0.207,0 -0.375,0.168 -0.375,0.375 z m 1.5,0 c 0,0.207 0.168,0.375 0.375,0.375 0.207,0 0.375,-0.168 0.375,-0.375 0,-0.207 -0.168,-0.375 -0.375,-0.375 C 9.168,10.501 9,10.669 9,10.876 z m 1.5,0 c 0,0.207 0.168,0.375 0.375,0.375 0.207,0 0.375,-0.168 0.375,-0.375 0,-0.207 -0.168,-0.375 -0.375,-0.375 -0.207,0 -0.375,0.168 -0.375,0.375 z m 1.5,0 c 0,0.207 0.168,0.375 0.375,0.375 0.207,0 0.375,-0.168 0.375,-0.375 0,-0.207 -0.168,-0.375 -0.375,-0.375 -0.207,0 -0.375,0.168 -0.375,0.375 z m 1.5,0 c 0,0.207 0.168,0.375 0.375,0.375 0.207,0 0.375,-0.168 0.375,-0.375 0,-0.207 -0.168,-0.375 -0.375,-0.375 -0.207,0 -0.375,0.168 -0.375,0.375 z m 1.5,0 c 0,0.207 0.168,0.375 0.375,0.375 0.207,0 0.375,-0.168 0.375,-0.375 0,-0.207 -0.168,-0.375 -0.375,-0.375 -0.207,0 -0.375,0.168 -0.375,0.375 z m 1.5,0 c 0,0.207 0.168,0.375 0.375,0.375 0.207,0 0.375,-0.168 0.375,-0.375 0,-0.207 -0.168,-0.375 -0.375,-0.375 -0.207,0 -0.375,0.168 -0.375,0.375 z m 1.5,0 c 0,0.207 0.168,0.375 0.375,0.375 0.207,0 0.375,-0.168 0.375,-0.375 0,-0.207 -0.168,-0.375 -0.375,-0.375 -0.207,0 -0.375,0.168 -0.375,0.375 z m 1.5,0 c 0,0.207 0.168,0.375 0.375,0.375 0.207,0 0.375,-0.168 0.375,-0.375 0,-0.207 -0.168,-0.375 -0.375,-0.375 -0.207,0 -0.375,0.168 -0.375,0.375 z m 1.5,0 c 0,0.207 0.168,0.375 0.375,0.375 0.207,0 0.375,-0.168 0.375,-0.375 0,-0.207 -0.168,-0.375 -0.375,-0.375 -0.207,0 -0.375,0.168 -0.375,0.375 z m 1.5,0 c 0,0.207 0.168,0.375 0.375,0.375 0.207,0 0.375,-0.168 0.375,-0.375 0,-0.207 -0.168,-0.375 -0.375,-0.375 -0.207,0 -0.375,0.168 -0.375,0.375 z m 1.5,0 c 0,0.207 0.168,0.375 0.375,0.375 0.207,0 0.375,-0.168 0.375,-0.375 0,-0.207 -0.168,-0.375 -0.375,-0.375 -0.207,0 -0.375,0.168 -0.375,0.375 z m 1.5,0 c 0,0.207 0.168,0.375 0.375,0.375 0.207,0 0.375,-0.168 0.375,-0.375 0,-0.207 -0.168,-0.375 -0.375,-0.375 -0.207,0 -0.375,0.168 -0.375,0.375 z m 1.5,0 c 0,0.207 0.168,0.375 0.375,0.375 0.207,0 0.375,-0.168 0.375,-0.375 0,-0.207 -0.168,-0.375 -0.375,-0.375 -0.207,0 -0.375,0.168 -0.375,0.375 z m 1.5,0 c 0,0.207 0.168,0.375 0.375,0.375 0.207,0 0.375,-0.168 0.375,-0.375 0,-0.207 -0.168,-0.375 -0.375,-0.375 -0.207,0 -0.375,0.168 -0.375,0.375 z m 1.5,0 c 0,0.207 0.168,0.375 0.375,0.375 0.207,0 0.375,-0.168 0.375,-0.375 0,-0.207 -0.168,-0.375 -0.375,-0.375 -0.207,0 -0.375,0.168 -0.375,0.375 z m -25.5,1.494 0,0.011 c 0.002,0.204 0.169,0.37 0.375,0.37 0.207,0 0.375,-0.168 0.375,-0.375 0,-0.207 -0.168,-0.375 -0.375,-0.375 -0.206,0 -0.373,0.165 -0.375,0.369 z M 6,12.376 c 0,0.207 0.168,0.375 0.375,0.375 0.207,0 0.375,-0.168 0.375,-0.375 0,-0.207 -0.168,-0.375 -0.375,-0.375 C 6.168,12.001 6,12.169 6,12.376 z m 1.5,0 c 0,0.207 0.168,0.375 0.375,0.375 0.207,0 0.375,-0.168 0.375,-0.375 0,-0.207 -0.168,-0.375 -0.375,-0.375 -0.207,0 -0.375,0.168 -0.375,0.375 z m 1.5,0 c 0,0.207 0.168,0.375 0.375,0.375 0.207,0 0.375,-0.168 0.375,-0.375 0,-0.207 -0.168,-0.375 -0.375,-0.375 C 9.168,12.001 9,12.169 9,12.376 z m 1.5,0 c 0,0.207 0.168,0.375 0.375,0.375 0.207,0 0.375,-0.168 0.375,-0.375 0,-0.207 -0.168,-0.375 -0.375,-0.375 -0.207,0 -0.375,0.168 -0.375,0.375 z m 1.5,0 c 0,0.207 0.168,0.375 0.375,0.375 0.207,0 0.375,-0.168 0.375,-0.375 0,-0.207 -0.168,-0.375 -0.375,-0.375 -0.207,0 -0.375,0.168 -0.375,0.375 z m 1.5,0 c 0,0.207 0.168,0.375 0.375,0.375 0.207,0 0.375,-0.168 0.375,-0.375 0,-0.207 -0.168,-0.375 -0.375,-0.375 -0.207,0 -0.375,0.168 -0.375,0.375 z m 1.5,0 c 0,0.207 0.168,0.375 0.375,0.375 0.207,0 0.375,-0.168 0.375,-0.375 0,-0.207 -0.168,-0.375 -0.375,-0.375 -0.207,0 -0.375,0.168 -0.375,0.375 z m 1.5,0 c 0,0.207 0.168,0.375 0.375,0.375 0.207,0 0.375,-0.168 0.375,-0.375 0,-0.207 -0.168,-0.375 -0.375,-0.375 -0.207,0 -0.375,0.168 -0.375,0.375 z m 1.5,0 c 0,0.207 0.168,0.375 0.375,0.375 0.207,0 0.375,-0.168 0.375,-0.375 0,-0.207 -0.168,-0.375 -0.375,-0.375 -0.207,0 -0.375,0.168 -0.375,0.375 z m 1.5,0 c 0,0.207 0.168,0.375 0.375,0.375 0.207,0 0.375,-0.168 0.375,-0.375 0,-0.207 -0.168,-0.375 -0.375,-0.375 -0.207,0 -0.375,0.168 -0.375,0.375 z m 1.5,0 c 0,0.207 0.168,0.375 0.375,0.375 0.207,0 0.375,-0.168 0.375,-0.375 0,-0.207 -0.168,-0.375 -0.375,-0.375 -0.207,0 -0.375,0.168 -0.375,0.375 z m 1.5,0 c 0,0.207 0.168,0.375 0.375,0.375 0.207,0 0.375,-0.168 0.375,-0.375 0,-0.207 -0.168,-0.375 -0.375,-0.375 -0.207,0 -0.375,0.168 -0.375,0.375 z m 1.5,0 c 0,0.207 0.168,0.375 0.375,0.375 0.207,0 0.375,-0.168 0.375,-0.375 0,-0.207 -0.168,-0.375 -0.375,-0.375 -0.207,0 -0.375,0.168 -0.375,0.375 z m 1.5,0 c 0,0.207 0.168,0.375 0.375,0.375 0.207,0 0.375,-0.168 0.375,-0.375 0,-0.207 -0.168,-0.375 -0.375,-0.375 -0.207,0 -0.375,0.168 -0.375,0.375 z m 1.5,0 c 0,0.207 0.168,0.375 0.375,0.375 0.207,0 0.375,-0.168 0.375,-0.375 0,-0.207 -0.168,-0.375 -0.375,-0.375 -0.207,0 -0.375,0.168 -0.375,0.375 z m 1.5,0 c 0,0.207 0.168,0.375 0.375,0.375 0.207,0 0.375,-0.168 0.375,-0.375 0,-0.207 -0.168,-0.375 -0.375,-0.375 -0.207,0 -0.375,0.168 -0.375,0.375 z m 1.5,0 c 0,0.207 0.168,0.375 0.375,0.375 0.207,0 0.375,-0.168 0.375,-0.375 0,-0.207 -0.168,-0.375 -0.375,-0.375 -0.207,0 -0.375,0.168 -0.375,0.375 z m -25.5,1.494 0,0.011 c 0.002,0.204 0.169,0.37 0.375,0.37 0.207,0 0.375,-0.168 0.375,-0.375 0,-0.207 -0.168,-0.375 -0.375,-0.375 -0.206,0 -0.373,0.165 -0.375,0.369 z M 6,13.876 c 0,0.207 0.168,0.375 0.375,0.375 0.207,0 0.375,-0.168 0.375,-0.375 0,-0.207 -0.168,-0.375 -0.375,-0.375 C 6.168,13.501 6,13.669 6,13.876 z m 1.5,0 c 0,0.207 0.168,0.375 0.375,0.375 0.207,0 0.375,-0.168 0.375,-0.375 0,-0.207 -0.168,-0.375 -0.375,-0.375 -0.207,0 -0.375,0.168 -0.375,0.375 z m 1.5,0 c 0,0.207 0.168,0.375 0.375,0.375 0.207,0 0.375,-0.168 0.375,-0.375 0,-0.207 -0.168,-0.375 -0.375,-0.375 C 9.168,13.501 9,13.669 9,13.876 z m 1.5,0 c 0,0.207 0.168,0.375 0.375,0.375 0.207,0 0.375,-0.168 0.375,-0.375 0,-0.207 -0.168,-0.375 -0.375,-0.375 -0.207,0 -0.375,0.168 -0.375,0.375 z m 1.5,0 c 0,0.207 0.168,0.375 0.375,0.375 0.207,0 0.375,-0.168 0.375,-0.375 0,-0.207 -0.168,-0.375 -0.375,-0.375 -0.207,0 -0.375,0.168 -0.375,0.375 z m 1.5,0 c 0,0.207 0.168,0.375 0.375,0.375 0.207,0 0.375,-0.168 0.375,-0.375 0,-0.207 -0.168,-0.375 -0.375,-0.375 -0.207,0 -0.375,0.168 -0.375,0.375 z m 1.5,0 c 0,0.207 0.168,0.375 0.375,0.375 0.207,0 0.375,-0.168 0.375,-0.375 0,-0.207 -0.168,-0.375 -0.375,-0.375 -0.207,0 -0.375,0.168 -0.375,0.375 z m 1.5,0 c 0,0.207 0.168,0.375 0.375,0.375 0.207,0 0.375,-0.168 0.375,-0.375 0,-0.207 -0.168,-0.375 -0.375,-0.375 -0.207,0 -0.375,0.168 -0.375,0.375 z m 1.5,0 c 0,0.207 0.168,0.375 0.375,0.375 0.207,0 0.375,-0.168 0.375,-0.375 0,-0.207 -0.168,-0.375 -0.375,-0.375 -0.207,0 -0.375,0.168 -0.375,0.375 z m 1.5,0 c 0,0.207 0.168,0.375 0.375,0.375 0.207,0 0.375,-0.168 0.375,-0.375 0,-0.207 -0.168,-0.375 -0.375,-0.375 -0.207,0 -0.375,0.168 -0.375,0.375 z m 1.5,0 c 0,0.207 0.168,0.375 0.375,0.375 0.207,0 0.375,-0.168 0.375,-0.375 0,-0.207 -0.168,-0.375 -0.375,-0.375 -0.207,0 -0.375,0.168 -0.375,0.375 z m 1.5,0 c 0,0.207 0.168,0.375 0.375,0.375 0.207,0 0.375,-0.168 0.375,-0.375 0,-0.207 -0.168,-0.375 -0.375,-0.375 -0.207,0 -0.375,0.168 -0.375,0.375 z m 1.5,0 c 0,0.207 0.168,0.375 0.375,0.375 0.207,0 0.375,-0.168 0.375,-0.375 0,-0.207 -0.168,-0.375 -0.375,-0.375 -0.207,0 -0.375,0.168 -0.375,0.375 z m 1.5,0 c 0,0.207 0.168,0.375 0.375,0.375 0.207,0 0.375,-0.168 0.375,-0.375 0,-0.207 -0.168,-0.375 -0.375,-0.375 -0.207,0 -0.375,0.168 -0.375,0.375 z m 1.5,0 c 0,0.207 0.168,0.375 0.375,0.375 0.207,0 0.375,-0.168 0.375,-0.375 0,-0.207 -0.168,-0.375 -0.375,-0.375 -0.207,0 -0.375,0.168 -0.375,0.375 z m 1.5,0 c 0,0.207 0.168,0.375 0.375,0.375 0.207,0 0.375,-0.168 0.375,-0.375 0,-0.207 -0.168,-0.375 -0.375,-0.375 -0.207,0 -0.375,0.168 -0.375,0.375 z m 1.5,0 c 0,0.207 0.168,0.375 0.375,0.375 0.207,0 0.375,-0.168 0.375,-0.375 0,-0.207 -0.168,-0.375 -0.375,-0.375 -0.207,0 -0.375,0.168 -0.375,0.375 z m -25.5,1.494 0,0.011 c 0.002,0.204 0.169,0.37 0.375,0.37 0.207,0 0.375,-0.168 0.375,-0.375 0,-0.207 -0.168,-0.375 -0.375,-0.375 -0.206,0 -0.373,0.165 -0.375,0.369 z M 6,15.376 c 0,0.207 0.168,0.375 0.375,0.375 0.207,0 0.375,-0.168 0.375,-0.375 0,-0.207 -0.168,-0.375 -0.375,-0.375 C 6.168,15.001 6,15.169 6,15.376 z m 1.5,0 c 0,0.207 0.168,0.375 0.375,0.375 0.207,0 0.375,-0.168 0.375,-0.375 0,-0.207 -0.168,-0.375 -0.375,-0.375 -0.207,0 -0.375,0.168 -0.375,0.375 z m 1.5,0 c 0,0.207 0.168,0.375 0.375,0.375 0.207,0 0.375,-0.168 0.375,-0.375 0,-0.207 -0.168,-0.375 -0.375,-0.375 C 9.168,15.001 9,15.169 9,15.376 z m 1.5,0 c 0,0.207 0.168,0.375 0.375,0.375 0.207,0 0.375,-0.168 0.375,-0.375 0,-0.207 -0.168,-0.375 -0.375,-0.375 -0.207,0 -0.375,0.168 -0.375,0.375 z m 1.5,0 c 0,0.207 0.168,0.375 0.375,0.375 0.207,0 0.375,-0.168 0.375,-0.375 0,-0.207 -0.168,-0.375 -0.375,-0.375 -0.207,0 -0.375,0.168 -0.375,0.375 z m 1.5,0 c 0,0.207 0.168,0.375 0.375,0.375 0.207,0 0.375,-0.168 0.375,-0.375 0,-0.207 -0.168,-0.375 -0.375,-0.375 -0.207,0 -0.375,0.168 -0.375,0.375 z m 1.5,0 c 0,0.207 0.168,0.375 0.375,0.375 0.207,0 0.375,-0.168 0.375,-0.375 0,-0.207 -0.168,-0.375 -0.375,-0.375 -0.207,0 -0.375,0.168 -0.375,0.375 z m 1.5,0 c 0,0.207 0.168,0.375 0.375,0.375 0.207,0 0.375,-0.168 0.375,-0.375 0,-0.207 -0.168,-0.375 -0.375,-0.375 -0.207,0 -0.375,0.168 -0.375,0.375 z m 1.5,0 c 0,0.207 0.168,0.375 0.375,0.375 0.207,0 0.375,-0.168 0.375,-0.375 0,-0.207 -0.168,-0.375 -0.375,-0.375 -0.207,0 -0.375,0.168 -0.375,0.375 z m 1.5,0 c 0,0.207 0.168,0.375 0.375,0.375 0.207,0 0.375,-0.168 0.375,-0.375 0,-0.207 -0.168,-0.375 -0.375,-0.375 -0.207,0 -0.375,0.168 -0.375,0.375 z m 1.5,0 c 0,0.207 0.168,0.375 0.375,0.375 0.207,0 0.375,-0.168 0.375,-0.375 0,-0.207 -0.168,-0.375 -0.375,-0.375 -0.207,0 -0.375,0.168 -0.375,0.375 z m 1.5,0 c 0,0.207 0.168,0.375 0.375,0.375 0.207,0 0.375,-0.168 0.375,-0.375 0,-0.207 -0.168,-0.375 -0.375,-0.375 -0.207,0 -0.375,0.168 -0.375,0.375 z m 1.5,0 c 0,0.207 0.168,0.375 0.375,0.375 0.207,0 0.375,-0.168 0.375,-0.375 0,-0.207 -0.168,-0.375 -0.375,-0.375 -0.207,0 -0.375,0.168 -0.375,0.375 z m 1.5,0 c 0,0.207 0.168,0.375 0.375,0.375 0.207,0 0.375,-0.168 0.375,-0.375 0,-0.207 -0.168,-0.375 -0.375,-0.375 -0.207,0 -0.375,0.168 -0.375,0.375 z m 1.5,0 c 0,0.207 0.168,0.375 0.375,0.375 0.207,0 0.375,-0.168 0.375,-0.375 0,-0.207 -0.168,-0.375 -0.375,-0.375 -0.207,0 -0.375,0.168 -0.375,0.375 z m 1.5,0 c 0,0.207 0.168,0.375 0.375,0.375 0.207,0 0.375,-0.168 0.375,-0.375 0,-0.207 -0.168,-0.375 -0.375,-0.375 -0.207,0 -0.375,0.168 -0.375,0.375 z m 1.5,0 c 0,0.207 0.168,0.375 0.375,0.375 0.207,0 0.375,-0.168 0.375,-0.375 0,-0.207 -0.168,-0.375 -0.375,-0.375 -0.207,0 -0.375,0.168 -0.375,0.375 z m -25.5,1.494 0,0.011 c 0.002,0.204 0.169,0.37 0.375,0.37 0.207,0 0.375,-0.168 0.375,-0.375 0,-0.207 -0.168,-0.375 -0.375,-0.375 -0.206,0 -0.373,0.165 -0.375,0.369 z M 6,16.876 c 0,0.207 0.168,0.375 0.375,0.375 0.207,0 0.375,-0.168 0.375,-0.375 0,-0.207 -0.168,-0.375 -0.375,-0.375 C 6.168,16.501 6,16.669 6,16.876 z m 1.5,0 c 0,0.207 0.168,0.375 0.375,0.375 0.207,0 0.375,-0.168 0.375,-0.375 0,-0.207 -0.168,-0.375 -0.375,-0.375 -0.207,0 -0.375,0.168 -0.375,0.375 z m 1.5,0 c 0,0.207 0.168,0.375 0.375,0.375 0.207,0 0.375,-0.168 0.375,-0.375 0,-0.207 -0.168,-0.375 -0.375,-0.375 C 9.168,16.501 9,16.669 9,16.876 z m 1.5,0 c 0,0.207 0.168,0.375 0.375,0.375 0.207,0 0.375,-0.168 0.375,-0.375 0,-0.207 -0.168,-0.375 -0.375,-0.375 -0.207,0 -0.375,0.168 -0.375,0.375 z m 1.5,0 c 0,0.207 0.168,0.375 0.375,0.375 0.207,0 0.375,-0.168 0.375,-0.375 0,-0.207 -0.168,-0.375 -0.375,-0.375 -0.207,0 -0.375,0.168 -0.375,0.375 z m 1.5,0 c 0,0.207 0.168,0.375 0.375,0.375 0.207,0 0.375,-0.168 0.375,-0.375 0,-0.207 -0.168,-0.375 -0.375,-0.375 -0.207,0 -0.375,0.168 -0.375,0.375 z m 1.5,0 c 0,0.207 0.168,0.375 0.375,0.375 0.207,0 0.375,-0.168 0.375,-0.375 0,-0.207 -0.168,-0.375 -0.375,-0.375 -0.207,0 -0.375,0.168 -0.375,0.375 z m 1.5,0 c 0,0.207 0.168,0.375 0.375,0.375 0.207,0 0.375,-0.168 0.375,-0.375 0,-0.207 -0.168,-0.375 -0.375,-0.375 -0.207,0 -0.375,0.168 -0.375,0.375 z m 1.5,0 c 0,0.207 0.168,0.375 0.375,0.375 0.207,0 0.375,-0.168 0.375,-0.375 0,-0.207 -0.168,-0.375 -0.375,-0.375 -0.207,0 -0.375,0.168 -0.375,0.375 z m 1.5,0 c 0,0.207 0.168,0.375 0.375,0.375 0.207,0 0.375,-0.168 0.375,-0.375 0,-0.207 -0.168,-0.375 -0.375,-0.375 -0.207,0 -0.375,0.168 -0.375,0.375 z m 1.5,0 c 0,0.207 0.168,0.375 0.375,0.375 0.207,0 0.375,-0.168 0.375,-0.375 0,-0.207 -0.168,-0.375 -0.375,-0.375 -0.207,0 -0.375,0.168 -0.375,0.375 z m 1.5,0 c 0,0.207 0.168,0.375 0.375,0.375 0.207,0 0.375,-0.168 0.375,-0.375 0,-0.207 -0.168,-0.375 -0.375,-0.375 -0.207,0 -0.375,0.168 -0.375,0.375 z m 1.5,0 c 0,0.207 0.168,0.375 0.375,0.375 0.207,0 0.375,-0.168 0.375,-0.375 0,-0.207 -0.168,-0.375 -0.375,-0.375 -0.207,0 -0.375,0.168 -0.375,0.375 z m 1.5,0 c 0,0.207 0.168,0.375 0.375,0.375 0.207,0 0.375,-0.168 0.375,-0.375 0,-0.207 -0.168,-0.375 -0.375,-0.375 -0.207,0 -0.375,0.168 -0.375,0.375 z m 1.5,0 c 0,0.207 0.168,0.375 0.375,0.375 0.207,0 0.375,-0.168 0.375,-0.375 0,-0.207 -0.168,-0.375 -0.375,-0.375 -0.207,0 -0.375,0.168 -0.375,0.375 z m 1.5,0 c 0,0.207 0.168,0.375 0.375,0.375 0.207,0 0.375,-0.168 0.375,-0.375 0,-0.207 -0.168,-0.375 -0.375,-0.375 -0.207,0 -0.375,0.168 -0.375,0.375 z m 1.5,0 c 0,0.207 0.168,0.375 0.375,0.375 0.207,0 0.375,-0.168 0.375,-0.375 0,-0.207 -0.168,-0.375 -0.375,-0.375 -0.207,0 -0.375,0.168 -0.375,0.375 z m -25.5,1.494 0,0.011 c 0.002,0.204 0.169,0.37 0.375,0.37 0.207,0 0.375,-0.168 0.375,-0.375 0,-0.207 -0.168,-0.375 -0.375,-0.375 -0.206,0 -0.373,0.165 -0.375,0.369 z M 6,18.376 c 0,0.207 0.168,0.375 0.375,0.375 0.207,0 0.375,-0.168 0.375,-0.375 0,-0.207 -0.168,-0.375 -0.375,-0.375 C 6.168,18.001 6,18.169 6,18.376 z m 1.5,0 c 0,0.207 0.168,0.375 0.375,0.375 0.207,0 0.375,-0.168 0.375,-0.375 0,-0.207 -0.168,-0.375 -0.375,-0.375 -0.207,0 -0.375,0.168 -0.375,0.375 z m 1.5,0 c 0,0.207 0.168,0.375 0.375,0.375 0.207,0 0.375,-0.168 0.375,-0.375 0,-0.207 -0.168,-0.375 -0.375,-0.375 C 9.168,18.001 9,18.169 9,18.376 z m 1.5,0 c 0,0.207 0.168,0.375 0.375,0.375 0.207,0 0.375,-0.168 0.375,-0.375 0,-0.207 -0.168,-0.375 -0.375,-0.375 -0.207,0 -0.375,0.168 -0.375,0.375 z m 1.5,0 c 0,0.207 0.168,0.375 0.375,0.375 0.207,0 0.375,-0.168 0.375,-0.375 0,-0.207 -0.168,-0.375 -0.375,-0.375 -0.207,0 -0.375,0.168 -0.375,0.375 z m 1.5,0 c 0,0.207 0.168,0.375 0.375,0.375 0.207,0 0.375,-0.168 0.375,-0.375 0,-0.207 -0.168,-0.375 -0.375,-0.375 -0.207,0 -0.375,0.168 -0.375,0.375 z m 1.5,0 c 0,0.207 0.168,0.375 0.375,0.375 0.207,0 0.375,-0.168 0.375,-0.375 0,-0.207 -0.168,-0.375 -0.375,-0.375 -0.207,0 -0.375,0.168 -0.375,0.375 z m 1.5,0 c 0,0.207 0.168,0.375 0.375,0.375 0.207,0 0.375,-0.168 0.375,-0.375 0,-0.207 -0.168,-0.375 -0.375,-0.375 -0.207,0 -0.375,0.168 -0.375,0.375 z m 1.5,0 c 0,0.207 0.168,0.375 0.375,0.375 0.207,0 0.375,-0.168 0.375,-0.375 0,-0.207 -0.168,-0.375 -0.375,-0.375 -0.207,0 -0.375,0.168 -0.375,0.375 z m 1.5,0 c 0,0.207 0.168,0.375 0.375,0.375 0.207,0 0.375,-0.168 0.375,-0.375 0,-0.207 -0.168,-0.375 -0.375,-0.375 -0.207,0 -0.375,0.168 -0.375,0.375 z m 1.5,0 c 0,0.207 0.168,0.375 0.375,0.375 0.207,0 0.375,-0.168 0.375,-0.375 0,-0.207 -0.168,-0.375 -0.375,-0.375 -0.207,0 -0.375,0.168 -0.375,0.375 z m 1.5,0 c 0,0.207 0.168,0.375 0.375,0.375 0.207,0 0.375,-0.168 0.375,-0.375 0,-0.207 -0.168,-0.375 -0.375,-0.375 -0.207,0 -0.375,0.168 -0.375,0.375 z m 1.5,0 c 0,0.207 0.168,0.375 0.375,0.375 0.207,0 0.375,-0.168 0.375,-0.375 0,-0.207 -0.168,-0.375 -0.375,-0.375 -0.207,0 -0.375,0.168 -0.375,0.375 z m 1.5,0 c 0,0.207 0.168,0.375 0.375,0.375 0.207,0 0.375,-0.168 0.375,-0.375 0,-0.207 -0.168,-0.375 -0.375,-0.375 -0.207,0 -0.375,0.168 -0.375,0.375 z m 1.5,0 c 0,0.207 0.168,0.375 0.375,0.375 0.207,0 0.375,-0.168 0.375,-0.375 0,-0.207 -0.168,-0.375 -0.375,-0.375 -0.207,0 -0.375,0.168 -0.375,0.375 z m 1.5,0 c 0,0.207 0.168,0.375 0.375,0.375 0.207,0 0.375,-0.168 0.375,-0.375 0,-0.207 -0.168,-0.375 -0.375,-0.375 -0.207,0 -0.375,0.168 -0.375,0.375 z m 1.5,0 c 0,0.207 0.168,0.375 0.375,0.375 0.207,0 0.375,-0.168 0.375,-0.375 0,-0.207 -0.168,-0.375 -0.375,-0.375 -0.207,0 -0.375,0.168 -0.375,0.375 z m -25.5,1.494 0,0.011 c 0.002,0.204 0.169,0.37 0.375,0.37 0.207,0 0.375,-0.168 0.375,-0.375 0,-0.207 -0.168,-0.375 -0.375,-0.375 -0.206,0 -0.373,0.165 -0.375,0.369 z M 6,19.876 c 0,0.207 0.168,0.375 0.375,0.375 0.207,0 0.375,-0.168 0.375,-0.375 0,-0.207 -0.168,-0.375 -0.375,-0.375 C 6.168,19.501 6,19.669 6,19.876 z m 1.5,0 c 0,0.207 0.168,0.375 0.375,0.375 0.207,0 0.375,-0.168 0.375,-0.375 0,-0.207 -0.168,-0.375 -0.375,-0.375 -0.207,0 -0.375,0.168 -0.375,0.375 z m 1.5,0 c 0,0.207 0.168,0.375 0.375,0.375 0.207,0 0.375,-0.168 0.375,-0.375 0,-0.207 -0.168,-0.375 -0.375,-0.375 C 9.168,19.501 9,19.669 9,19.876 z m 1.5,0 c 0,0.207 0.168,0.375 0.375,0.375 0.207,0 0.375,-0.168 0.375,-0.375 0,-0.207 -0.168,-0.375 -0.375,-0.375 -0.207,0 -0.375,0.168 -0.375,0.375 z m 1.5,0 c 0,0.207 0.168,0.375 0.375,0.375 0.207,0 0.375,-0.168 0.375,-0.375 0,-0.207 -0.168,-0.375 -0.375,-0.375 -0.207,0 -0.375,0.168 -0.375,0.375 z m 1.5,0 c 0,0.207 0.168,0.375 0.375,0.375 0.207,0 0.375,-0.168 0.375,-0.375 0,-0.207 -0.168,-0.375 -0.375,-0.375 -0.207,0 -0.375,0.168 -0.375,0.375 z m 1.5,0 c 0,0.207 0.168,0.375 0.375,0.375 0.207,0 0.375,-0.168 0.375,-0.375 0,-0.207 -0.168,-0.375 -0.375,-0.375 -0.207,0 -0.375,0.168 -0.375,0.375 z m 1.5,0 c 0,0.207 0.168,0.375 0.375,0.375 0.207,0 0.375,-0.168 0.375,-0.375 0,-0.207 -0.168,-0.375 -0.375,-0.375 -0.207,0 -0.375,0.168 -0.375,0.375 z m 1.5,0 c 0,0.207 0.168,0.375 0.375,0.375 0.207,0 0.375,-0.168 0.375,-0.375 0,-0.207 -0.168,-0.375 -0.375,-0.375 -0.207,0 -0.375,0.168 -0.375,0.375 z m 1.5,0 c 0,0.207 0.168,0.375 0.375,0.375 0.207,0 0.375,-0.168 0.375,-0.375 0,-0.207 -0.168,-0.375 -0.375,-0.375 -0.207,0 -0.375,0.168 -0.375,0.375 z m 1.5,0 c 0,0.207 0.168,0.375 0.375,0.375 0.207,0 0.375,-0.168 0.375,-0.375 0,-0.207 -0.168,-0.375 -0.375,-0.375 -0.207,0 -0.375,0.168 -0.375,0.375 z m 1.5,0 c 0,0.207 0.168,0.375 0.375,0.375 0.207,0 0.375,-0.168 0.375,-0.375 0,-0.207 -0.168,-0.375 -0.375,-0.375 -0.207,0 -0.375,0.168 -0.375,0.375 z m 1.5,0 c 0,0.207 0.168,0.375 0.375,0.375 0.207,0 0.375,-0.168 0.375,-0.375 0,-0.207 -0.168,-0.375 -0.375,-0.375 -0.207,0 -0.375,0.168 -0.375,0.375 z m 1.5,0 c 0,0.207 0.168,0.375 0.375,0.375 0.207,0 0.375,-0.168 0.375,-0.375 0,-0.207 -0.168,-0.375 -0.375,-0.375 -0.207,0 -0.375,0.168 -0.375,0.375 z m 1.5,0 c 0,0.207 0.168,0.375 0.375,0.375 0.207,0 0.375,-0.168 0.375,-0.375 0,-0.207 -0.168,-0.375 -0.375,-0.375 -0.207,0 -0.375,0.168 -0.375,0.375 z m 1.5,0 c 0,0.207 0.168,0.375 0.375,0.375 0.207,0 0.375,-0.168 0.375,-0.375 0,-0.207 -0.168,-0.375 -0.375,-0.375 -0.207,0 -0.375,0.168 -0.375,0.375 z m 1.5,0 c 0,0.207 0.168,0.375 0.375,0.375 0.207,0 0.375,-0.168 0.375,-0.375 0,-0.207 -0.168,-0.375 -0.375,-0.375 -0.207,0 -0.375,0.168 -0.375,0.375 z m -25.5,1.494 0,0.011 c 0.002,0.204 0.169,0.37 0.375,0.37 0.207,0 0.375,-0.168 0.375,-0.375 0,-0.207 -0.168,-0.375 -0.375,-0.375 -0.206,0 -0.373,0.165 -0.375,0.369 z M 6,21.376 c 0,0.207 0.168,0.375 0.375,0.375 0.207,0 0.375,-0.168 0.375,-0.375 0,-0.207 -0.168,-0.375 -0.375,-0.375 C 6.168,21.001 6,21.169 6,21.376 z m 1.5,0 c 0,0.207 0.168,0.375 0.375,0.375 0.207,0 0.375,-0.168 0.375,-0.375 0,-0.207 -0.168,-0.375 -0.375,-0.375 -0.207,0 -0.375,0.168 -0.375,0.375 z m 1.5,0 c 0,0.207 0.168,0.375 0.375,0.375 0.207,0 0.375,-0.168 0.375,-0.375 0,-0.207 -0.168,-0.375 -0.375,-0.375 C 9.168,21.001 9,21.169 9,21.376 z m 1.5,0 c 0,0.207 0.168,0.375 0.375,0.375 0.207,0 0.375,-0.168 0.375,-0.375 0,-0.207 -0.168,-0.375 -0.375,-0.375 -0.207,0 -0.375,0.168 -0.375,0.375 z m 1.5,0 c 0,0.207 0.168,0.375 0.375,0.375 0.207,0 0.375,-0.168 0.375,-0.375 0,-0.207 -0.168,-0.375 -0.375,-0.375 -0.207,0 -0.375,0.168 -0.375,0.375 z m 1.5,0 c 0,0.207 0.168,0.375 0.375,0.375 0.207,0 0.375,-0.168 0.375,-0.375 0,-0.207 -0.168,-0.375 -0.375,-0.375 -0.207,0 -0.375,0.168 -0.375,0.375 z m 1.5,0 c 0,0.207 0.168,0.375 0.375,0.375 0.207,0 0.375,-0.168 0.375,-0.375 0,-0.207 -0.168,-0.375 -0.375,-0.375 -0.207,0 -0.375,0.168 -0.375,0.375 z m 1.5,0 c 0,0.207 0.168,0.375 0.375,0.375 0.207,0 0.375,-0.168 0.375,-0.375 0,-0.207 -0.168,-0.375 -0.375,-0.375 -0.207,0 -0.375,0.168 -0.375,0.375 z m 1.5,0 c 0,0.207 0.168,0.375 0.375,0.375 0.207,0 0.375,-0.168 0.375,-0.375 0,-0.207 -0.168,-0.375 -0.375,-0.375 -0.207,0 -0.375,0.168 -0.375,0.375 z m 1.5,0 c 0,0.207 0.168,0.375 0.375,0.375 0.207,0 0.375,-0.168 0.375,-0.375 0,-0.207 -0.168,-0.375 -0.375,-0.375 -0.207,0 -0.375,0.168 -0.375,0.375 z m 1.5,0 c 0,0.207 0.168,0.375 0.375,0.375 0.207,0 0.375,-0.168 0.375,-0.375 0,-0.207 -0.168,-0.375 -0.375,-0.375 -0.207,0 -0.375,0.168 -0.375,0.375 z m 1.5,0 c 0,0.207 0.168,0.375 0.375,0.375 0.207,0 0.375,-0.168 0.375,-0.375 0,-0.207 -0.168,-0.375 -0.375,-0.375 -0.207,0 -0.375,0.168 -0.375,0.375 z m 1.5,0 c 0,0.207 0.168,0.375 0.375,0.375 0.207,0 0.375,-0.168 0.375,-0.375 0,-0.207 -0.168,-0.375 -0.375,-0.375 -0.207,0 -0.375,0.168 -0.375,0.375 z m 1.5,0 c 0,0.207 0.168,0.375 0.375,0.375 0.207,0 0.375,-0.168 0.375,-0.375 0,-0.207 -0.168,-0.375 -0.375,-0.375 -0.207,0 -0.375,0.168 -0.375,0.375 z m 1.5,0 c 0,0.207 0.168,0.375 0.375,0.375 0.207,0 0.375,-0.168 0.375,-0.375 0,-0.207 -0.168,-0.375 -0.375,-0.375 -0.207,0 -0.375,0.168 -0.375,0.375 z m 1.5,0 c 0,0.207 0.168,0.375 0.375,0.375 0.207,0 0.375,-0.168 0.375,-0.375 0,-0.207 -0.168,-0.375 -0.375,-0.375 -0.207,0 -0.375,0.168 -0.375,0.375 z m 1.5,0 c 0,0.207 0.168,0.375 0.375,0.375 0.207,0 0.375,-0.168 0.375,-0.375 0,-0.207 -0.168,-0.375 -0.375,-0.375 -0.207,0 -0.375,0.168 -0.375,0.375 z m -25.5,1.494 0,0.011 c 0.002,0.204 0.169,0.37 0.375,0.37 0.207,0 0.375,-0.168 0.375,-0.375 0,-0.207 -0.168,-0.375 -0.375,-0.375 -0.206,0 -0.373,0.165 -0.375,0.369 z M 6,22.876 c 0,0.207 0.168,0.375 0.375,0.375 0.207,0 0.375,-0.168 0.375,-0.375 0,-0.207 -0.168,-0.375 -0.375,-0.375 C 6.168,22.501 6,22.669 6,22.876 z m 1.5,0 c 0,0.207 0.168,0.375 0.375,0.375 0.207,0 0.375,-0.168 0.375,-0.375 0,-0.207 -0.168,-0.375 -0.375,-0.375 -0.207,0 -0.375,0.168 -0.375,0.375 z m 1.5,0 c 0,0.207 0.168,0.375 0.375,0.375 0.207,0 0.375,-0.168 0.375,-0.375 0,-0.207 -0.168,-0.375 -0.375,-0.375 C 9.168,22.501 9,22.669 9,22.876 z m 1.5,0 c 0,0.207 0.168,0.375 0.375,0.375 0.207,0 0.375,-0.168 0.375,-0.375 0,-0.207 -0.168,-0.375 -0.375,-0.375 -0.207,0 -0.375,0.168 -0.375,0.375 z m 1.5,0 c 0,0.207 0.168,0.375 0.375,0.375 0.207,0 0.375,-0.168 0.375,-0.375 0,-0.207 -0.168,-0.375 -0.375,-0.375 -0.207,0 -0.375,0.168 -0.375,0.375 z m 1.5,0 c 0,0.207 0.168,0.375 0.375,0.375 0.207,0 0.375,-0.168 0.375,-0.375 0,-0.207 -0.168,-0.375 -0.375,-0.375 -0.207,0 -0.375,0.168 -0.375,0.375 z m 1.5,0 c 0,0.207 0.168,0.375 0.375,0.375 0.207,0 0.375,-0.168 0.375,-0.375 0,-0.207 -0.168,-0.375 -0.375,-0.375 -0.207,0 -0.375,0.168 -0.375,0.375 z m 1.5,0 c 0,0.207 0.168,0.375 0.375,0.375 0.207,0 0.375,-0.168 0.375,-0.375 0,-0.207 -0.168,-0.375 -0.375,-0.375 -0.207,0 -0.375,0.168 -0.375,0.375 z m 1.5,0 c 0,0.207 0.168,0.375 0.375,0.375 0.207,0 0.375,-0.168 0.375,-0.375 0,-0.207 -0.168,-0.375 -0.375,-0.375 -0.207,0 -0.375,0.168 -0.375,0.375 z m 1.5,0 c 0,0.207 0.168,0.375 0.375,0.375 0.207,0 0.375,-0.168 0.375,-0.375 0,-0.207 -0.168,-0.375 -0.375,-0.375 -0.207,0 -0.375,0.168 -0.375,0.375 z m 1.5,0 c 0,0.207 0.168,0.375 0.375,0.375 0.207,0 0.375,-0.168 0.375,-0.375 0,-0.207 -0.168,-0.375 -0.375,-0.375 -0.207,0 -0.375,0.168 -0.375,0.375 z m 1.5,0 c 0,0.207 0.168,0.375 0.375,0.375 0.207,0 0.375,-0.168 0.375,-0.375 0,-0.207 -0.168,-0.375 -0.375,-0.375 -0.207,0 -0.375,0.168 -0.375,0.375 z m 1.5,0 c 0,0.207 0.168,0.375 0.375,0.375 0.207,0 0.375,-0.168 0.375,-0.375 0,-0.207 -0.168,-0.375 -0.375,-0.375 -0.207,0 -0.375,0.168 -0.375,0.375 z m 1.5,0 c 0,0.207 0.168,0.375 0.375,0.375 0.207,0 0.375,-0.168 0.375,-0.375 0,-0.207 -0.168,-0.375 -0.375,-0.375 -0.207,0 -0.375,0.168 -0.375,0.375 z m 1.5,0 c 0,0.207 0.168,0.375 0.375,0.375 0.207,0 0.375,-0.168 0.375,-0.375 0,-0.207 -0.168,-0.375 -0.375,-0.375 -0.207,0 -0.375,0.168 -0.375,0.375 z m 1.5,0 c 0,0.207 0.168,0.375 0.375,0.375 0.207,0 0.375,-0.168 0.375,-0.375 0,-0.207 -0.168,-0.375 -0.375,-0.375 -0.207,0 -0.375,0.168 -0.375,0.375 z m 1.5,0 c 0,0.207 0.168,0.375 0.375,0.375 0.207,0 0.375,-0.168 0.375,-0.375 0,-0.207 -0.168,-0.375 -0.375,-0.375 -0.207,0 -0.375,0.168 -0.375,0.375 z m -25.5,1.494 0,0.011 c 0.002,0.204 0.169,0.37 0.375,0.37 0.207,0 0.375,-0.168 0.375,-0.375 0,-0.207 -0.168,-0.375 -0.375,-0.375 -0.206,0 -0.373,0.165 -0.375,0.369 z M 6,24.376 c 0,0.207 0.168,0.375 0.375,0.375 0.207,0 0.375,-0.168 0.375,-0.375 0,-0.207 -0.168,-0.375 -0.375,-0.375 C 6.168,24.001 6,24.169 6,24.376 z m 1.5,0 c 0,0.207 0.168,0.375 0.375,0.375 0.207,0 0.375,-0.168 0.375,-0.375 0,-0.207 -0.168,-0.375 -0.375,-0.375 -0.207,0 -0.375,0.168 -0.375,0.375 z m 1.5,0 c 0,0.207 0.168,0.375 0.375,0.375 0.207,0 0.375,-0.168 0.375,-0.375 0,-0.207 -0.168,-0.375 -0.375,-0.375 C 9.168,24.001 9,24.169 9,24.376 z m 1.5,0 c 0,0.207 0.168,0.375 0.375,0.375 0.207,0 0.375,-0.168 0.375,-0.375 0,-0.207 -0.168,-0.375 -0.375,-0.375 -0.207,0 -0.375,0.168 -0.375,0.375 z m 1.5,0 c 0,0.207 0.168,0.375 0.375,0.375 0.207,0 0.375,-0.168 0.375,-0.375 0,-0.207 -0.168,-0.375 -0.375,-0.375 -0.207,0 -0.375,0.168 -0.375,0.375 z m 1.5,0 c 0,0.207 0.168,0.375 0.375,0.375 0.207,0 0.375,-0.168 0.375,-0.375 0,-0.207 -0.168,-0.375 -0.375,-0.375 -0.207,0 -0.375,0.168 -0.375,0.375 z m 1.5,0 c 0,0.207 0.168,0.375 0.375,0.375 0.207,0 0.375,-0.168 0.375,-0.375 0,-0.207 -0.168,-0.375 -0.375,-0.375 -0.207,0 -0.375,0.168 -0.375,0.375 z m 1.5,0 c 0,0.207 0.168,0.375 0.375,0.375 0.207,0 0.375,-0.168 0.375,-0.375 0,-0.207 -0.168,-0.375 -0.375,-0.375 -0.207,0 -0.375,0.168 -0.375,0.375 z m 1.5,0 c 0,0.207 0.168,0.375 0.375,0.375 0.207,0 0.375,-0.168 0.375,-0.375 0,-0.207 -0.168,-0.375 -0.375,-0.375 -0.207,0 -0.375,0.168 -0.375,0.375 z m 1.5,0 c 0,0.207 0.168,0.375 0.375,0.375 0.207,0 0.375,-0.168 0.375,-0.375 0,-0.207 -0.168,-0.375 -0.375,-0.375 -0.207,0 -0.375,0.168 -0.375,0.375 z m 1.5,0 c 0,0.207 0.168,0.375 0.375,0.375 0.207,0 0.375,-0.168 0.375,-0.375 0,-0.207 -0.168,-0.375 -0.375,-0.375 -0.207,0 -0.375,0.168 -0.375,0.375 z m 1.5,0 c 0,0.207 0.168,0.375 0.375,0.375 0.207,0 0.375,-0.168 0.375,-0.375 0,-0.207 -0.168,-0.375 -0.375,-0.375 -0.207,0 -0.375,0.168 -0.375,0.375 z m 1.5,0 c 0,0.207 0.168,0.375 0.375,0.375 0.207,0 0.375,-0.168 0.375,-0.375 0,-0.207 -0.168,-0.375 -0.375,-0.375 -0.207,0 -0.375,0.168 -0.375,0.375 z m 1.5,0 c 0,0.207 0.168,0.375 0.375,0.375 0.207,0 0.375,-0.168 0.375,-0.375 0,-0.207 -0.168,-0.375 -0.375,-0.375 -0.207,0 -0.375,0.168 -0.375,0.375 z m 1.5,0 c 0,0.207 0.168,0.375 0.375,0.375 0.207,0 0.375,-0.168 0.375,-0.375 0,-0.207 -0.168,-0.375 -0.375,-0.375 -0.207,0 -0.375,0.168 -0.375,0.375 z m 1.5,0 c 0,0.207 0.168,0.375 0.375,0.375 0.207,0 0.375,-0.168 0.375,-0.375 0,-0.207 -0.168,-0.375 -0.375,-0.375 -0.207,0 -0.375,0.168 -0.375,0.375 z m 1.5,0 c 0,0.207 0.168,0.375 0.375,0.375 0.207,0 0.375,-0.168 0.375,-0.375 0,-0.207 -0.168,-0.375 -0.375,-0.375 -0.207,0 -0.375,0.168 -0.375,0.375 z m -25.5,1.494 0,0.011 c 0.002,0.204 0.169,0.37 0.375,0.37 0.207,0 0.375,-0.168 0.375,-0.375 0,-0.207 -0.168,-0.375 -0.375,-0.375 -0.206,0 -0.373,0.165 -0.375,0.369 z M 6,25.876 c 0,0.207 0.168,0.375 0.375,0.375 0.207,0 0.375,-0.168 0.375,-0.375 0,-0.207 -0.168,-0.375 -0.375,-0.375 C 6.168,25.501 6,25.669 6,25.876 z m 1.5,0 c 0,0.207 0.168,0.375 0.375,0.375 0.207,0 0.375,-0.168 0.375,-0.375 0,-0.207 -0.168,-0.375 -0.375,-0.375 -0.207,0 -0.375,0.168 -0.375,0.375 z m 1.5,0 c 0,0.207 0.168,0.375 0.375,0.375 0.207,0 0.375,-0.168 0.375,-0.375 0,-0.207 -0.168,-0.375 -0.375,-0.375 C 9.168,25.501 9,25.669 9,25.876 z m 1.5,0 c 0,0.207 0.168,0.375 0.375,0.375 0.207,0 0.375,-0.168 0.375,-0.375 0,-0.207 -0.168,-0.375 -0.375,-0.375 -0.207,0 -0.375,0.168 -0.375,0.375 z m 1.5,0 c 0,0.207 0.168,0.375 0.375,0.375 0.207,0 0.375,-0.168 0.375,-0.375 0,-0.207 -0.168,-0.375 -0.375,-0.375 -0.207,0 -0.375,0.168 -0.375,0.375 z m 1.5,0 c 0,0.207 0.168,0.375 0.375,0.375 0.207,0 0.375,-0.168 0.375,-0.375 0,-0.207 -0.168,-0.375 -0.375,-0.375 -0.207,0 -0.375,0.168 -0.375,0.375 z m 1.5,0 c 0,0.207 0.168,0.375 0.375,0.375 0.207,0 0.375,-0.168 0.375,-0.375 0,-0.207 -0.168,-0.375 -0.375,-0.375 -0.207,0 -0.375,0.168 -0.375,0.375 z m 1.5,0 c 0,0.207 0.168,0.375 0.375,0.375 0.207,0 0.375,-0.168 0.375,-0.375 0,-0.207 -0.168,-0.375 -0.375,-0.375 -0.207,0 -0.375,0.168 -0.375,0.375 z m 1.5,0 c 0,0.207 0.168,0.375 0.375,0.375 0.207,0 0.375,-0.168 0.375,-0.375 0,-0.207 -0.168,-0.375 -0.375,-0.375 -0.207,0 -0.375,0.168 -0.375,0.375 z m 1.5,0 c 0,0.207 0.168,0.375 0.375,0.375 0.207,0 0.375,-0.168 0.375,-0.375 0,-0.207 -0.168,-0.375 -0.375,-0.375 -0.207,0 -0.375,0.168 -0.375,0.375 z m 1.5,0 c 0,0.207 0.168,0.375 0.375,0.375 0.207,0 0.375,-0.168 0.375,-0.375 0,-0.207 -0.168,-0.375 -0.375,-0.375 -0.207,0 -0.375,0.168 -0.375,0.375 z m 1.5,0 c 0,0.207 0.168,0.375 0.375,0.375 0.207,0 0.375,-0.168 0.375,-0.375 0,-0.207 -0.168,-0.375 -0.375,-0.375 -0.207,0 -0.375,0.168 -0.375,0.375 z m 1.5,0 c 0,0.207 0.168,0.375 0.375,0.375 0.207,0 0.375,-0.168 0.375,-0.375 0,-0.207 -0.168,-0.375 -0.375,-0.375 -0.207,0 -0.375,0.168 -0.375,0.375 z m 1.5,0 c 0,0.207 0.168,0.375 0.375,0.375 0.207,0 0.375,-0.168 0.375,-0.375 0,-0.207 -0.168,-0.375 -0.375,-0.375 -0.207,0 -0.375,0.168 -0.375,0.375 z m 1.5,0 c 0,0.207 0.168,0.375 0.375,0.375 0.207,0 0.375,-0.168 0.375,-0.375 0,-0.207 -0.168,-0.375 -0.375,-0.375 -0.207,0 -0.375,0.168 -0.375,0.375 z m 1.5,0 c 0,0.207 0.168,0.375 0.375,0.375 0.207,0 0.375,-0.168 0.375,-0.375 0,-0.207 -0.168,-0.375 -0.375,-0.375 -0.207,0 -0.375,0.168 -0.375,0.375 z m 1.5,0 c 0,0.207 0.168,0.375 0.375,0.375 0.207,0 0.375,-0.168 0.375,-0.375 0,-0.207 -0.168,-0.375 -0.375,-0.375 -0.207,0 -0.375,0.168 -0.375,0.375 z M 4.506,27.304 c 0.033,0.227 0.211,0.406 0.437,0.441 0.173,-0.032 0.307,-0.185 0.307,-0.369 0,-0.207 -0.168,-0.375 -0.375,-0.375 -0.184,0 -0.337,0.131 -0.369,0.303 z M 6,27.376 c 0,0.207 0.168,0.375 0.375,0.375 0.207,0 0.375,-0.168 0.375,-0.375 0,-0.207 -0.168,-0.375 -0.375,-0.375 C 6.168,27.001 6,27.169 6,27.376 z m 1.5,0 c 0,0.207 0.168,0.375 0.375,0.375 0.207,0 0.375,-0.168 0.375,-0.375 0,-0.207 -0.168,-0.375 -0.375,-0.375 -0.207,0 -0.375,0.168 -0.375,0.375 z m 1.5,0 c 0,0.207 0.168,0.375 0.375,0.375 0.207,0 0.375,-0.168 0.375,-0.375 0,-0.207 -0.168,-0.375 -0.375,-0.375 C 9.168,27.001 9,27.169 9,27.376 z m 1.5,0 c 0,0.207 0.168,0.375 0.375,0.375 0.207,0 0.375,-0.168 0.375,-0.375 0,-0.207 -0.168,-0.375 -0.375,-0.375 -0.207,0 -0.375,0.168 -0.375,0.375 z m 1.5,0 c 0,0.207 0.168,0.375 0.375,0.375 0.207,0 0.375,-0.168 0.375,-0.375 0,-0.207 -0.168,-0.375 -0.375,-0.375 -0.207,0 -0.375,0.168 -0.375,0.375 z m 1.5,0 c 0,0.207 0.168,0.375 0.375,0.375 0.207,0 0.375,-0.168 0.375,-0.375 0,-0.207 -0.168,-0.375 -0.375,-0.375 -0.207,0 -0.375,0.168 -0.375,0.375 z m 1.5,0 c 0,0.207 0.168,0.375 0.375,0.375 0.207,0 0.375,-0.168 0.375,-0.375 0,-0.207 -0.168,-0.375 -0.375,-0.375 -0.207,0 -0.375,0.168 -0.375,0.375 z m 1.5,0 c 0,0.207 0.168,0.375 0.375,0.375 0.207,0 0.375,-0.168 0.375,-0.375 0,-0.207 -0.168,-0.375 -0.375,-0.375 -0.207,0 -0.375,0.168 -0.375,0.375 z m 1.5,0 c 0,0.207 0.168,0.375 0.375,0.375 0.207,0 0.375,-0.168 0.375,-0.375 0,-0.207 -0.168,-0.375 -0.375,-0.375 -0.207,0 -0.375,0.168 -0.375,0.375 z m 1.5,0 c 0,0.207 0.168,0.375 0.375,0.375 0.207,0 0.375,-0.168 0.375,-0.375 0,-0.207 -0.168,-0.375 -0.375,-0.375 -0.207,0 -0.375,0.168 -0.375,0.375 z m 1.5,0 c 0,0.207 0.168,0.375 0.375,0.375 0.207,0 0.375,-0.168 0.375,-0.375 0,-0.207 -0.168,-0.375 -0.375,-0.375 -0.207,0 -0.375,0.168 -0.375,0.375 z m 1.5,0 c 0,0.207 0.168,0.375 0.375,0.375 0.207,0 0.375,-0.168 0.375,-0.375 0,-0.207 -0.168,-0.375 -0.375,-0.375 -0.207,0 -0.375,0.168 -0.375,0.375 z m 1.5,0 c 0,0.207 0.168,0.375 0.375,0.375 0.207,0 0.375,-0.168 0.375,-0.375 0,-0.207 -0.168,-0.375 -0.375,-0.375 -0.207,0 -0.375,0.168 -0.375,0.375 z m 1.5,0 c 0,0.207 0.168,0.375 0.375,0.375 0.207,0 0.375,-0.168 0.375,-0.375 0,-0.207 -0.168,-0.375 -0.375,-0.375 -0.207,0 -0.375,0.168 -0.375,0.375 z m 1.5,0 c 0,0.207 0.168,0.375 0.375,0.375 0.207,0 0.375,-0.168 0.375,-0.375 0,-0.207 -0.168,-0.375 -0.375,-0.375 -0.207,0 -0.375,0.168 -0.375,0.375 z m 1.5,0 c 0,0.207 0.168,0.375 0.375,0.375 0.207,0 0.375,-0.168 0.375,-0.375 0,-0.207 -0.168,-0.375 -0.375,-0.375 -0.207,0 -0.375,0.168 -0.375,0.375 z m 1.5,0 c 0,0.207 0.168,0.375 0.375,0.375 0.207,0 0.375,-0.168 0.375,-0.375 0,-0.207 -0.168,-0.375 -0.375,-0.375 -0.207,0 -0.375,0.168 -0.375,0.375 z"
                     inkscape:connector-curvature="0"
                     style="fill:#494a4f;stroke-width:0.75;marker-start:none;marker-end:none" />
                  <path
                     id="path15675"
                     stroke-miterlimit="79.8403193612775"
                     d="m 4.5,19.054 0.001,8.178 c 0,0.286 0.233,0.519 0.519,0.519 l 25.961,0 c 0.286,0 0.519,-0.233 0.519,-0.519 l 0,-7.846 C 24.327,18.334 13.195,18.198 4.5,19.054 z"
                     inkscape:connector-curvature="0"
                     style="fill:#ffffff;fill-opacity:0.06274498;stroke-width:0.077;marker-start:none;marker-end:none" />
                  <g
                     stroke-miterlimit="79.8403193612775"
                     id="Group_5"
                     style="fill:#ffffff;fill-opacity:0.10980398">
                    <path
                       id="path15678"
                       d="m 5.999,26.202 0,-2.201 6.751,0 0,2.201 -6.751,0 z"
                       inkscape:connector-curvature="0"
                       style="fill-opacity:0.10980398;marker-start:none;marker-end:none" />
                    <path
                       id="path15680"
                       d="m 14.252,26.251 0,-2.201 15.749,0 0,2.201 -15.749,0 z"
                       inkscape:connector-curvature="0"
                       style="fill-opacity:0.10980398;marker-start:none;marker-end:none" />
                    <path
                       id="path15682"
                       d="m 6,21.702 0,-2.201 6.751,0 0,2.201 -6.751,0 z"
                       inkscape:connector-curvature="0"
                       style="fill-opacity:0.10980398;marker-start:none;marker-end:none" />
                    <path
                       id="path15684"
                       d="m 14.253,21.751 0,-2.201 15.749,0 0,2.201 -15.749,0 z"
                       inkscape:connector-curvature="0"
                       style="fill-opacity:0.10980398;marker-start:none;marker-end:none" />
                    <path
                       id="path15686"
                       d="m 6,17.202 0,-2.201 6.751,0 0,2.201 -6.751,0 z"
                       inkscape:connector-curvature="0"
                       style="fill-opacity:0.10980398;marker-start:none;marker-end:none" />
                    <path
                       id="path15688"
                       d="m 14.253,17.251 0,-2.201 15.749,0 0,2.201 -15.749,0 z"
                       inkscape:connector-curvature="0"
                       style="fill-opacity:0.10980398;marker-start:none;marker-end:none" />
                  </g>
                </g>
              </g>
              <g
                 stroke-miterlimit="79.8403193612775"
                 id="Group_6"
                 style="fill:#000000;stroke:none">
                <g
                   id="Group_7">
                  <path
                     id="path15692"
                     d="m 1.969,2.252 0,0 C 1.969,1.837 2.252,1.501 2.6,1.501 l 12.237,0 c 0.348,0 0.632,0.336 0.632,0.751 l 0,0 c 0,0.414 -0.284,0.749 -0.632,0.749 L 2.6,3.001 C 2.252,3.001 1.969,2.666 1.969,2.252 z"
                     inkscape:connector-curvature="0"
                     style="fill-opacity:0.01960802;marker-start:none;marker-end:none" />
                  <path
                     id="path15694"
                     d="m 2.531,2.252 0,0 c 0,-0.415 0.283,-0.751 0.632,-0.751 l 9.765,0 c 0.491,0 0.971,0.056 1.405,0.124 0.291,0 0.526,0.28 0.526,0.627 l 0,0 c 0,0.414 -0.283,0.749 -0.631,0.749 l -11.065,0 C 2.814,3.001 2.531,2.666 2.531,2.252 z"
                     inkscape:connector-curvature="0"
                     style="fill-opacity:0.03137303;marker-start:none;marker-end:none" />
                  <path
                     id="path15696"
                     d="m 3.094,2.252 0,0 c 0,-0.415 0.283,-0.751 0.631,-0.751 l 8.854,0 c 0.462,0 0.903,0.111 1.25,0.249 0.232,0 0.42,0.224 0.42,0.502 l 0,0 c 0,0.414 -0.282,0.749 -0.631,0.749 l -9.893,0 C 3.377,3.001 3.094,2.666 3.094,2.252 z"
                     inkscape:connector-curvature="0"
                     style="fill-opacity:0.03921599;marker-start:none;marker-end:none" />
                  <path
                     id="path15698"
                     d="m 3.656,2.252 0,0 c 0,-0.415 0.284,-0.751 0.632,-0.751 l 7.942,0 c 0.433,0 0.835,0.168 1.095,0.373 0.174,0 0.315,0.171 0.315,0.378 l 0,0 c 0,0.414 -0.282,0.749 -0.631,0.749 l -8.721,0 C 3.94,3.001 3.656,2.666 3.656,2.252 z"
                     inkscape:connector-curvature="0"
                     style="fill-opacity:0.047059;marker-start:none;marker-end:none" />
                  <path
                     id="path15700"
                     d="m 4.219,2.252 0,0 c 0,-0.415 0.283,-0.751 0.631,-0.751 l 7.029,0 c 0.406,0 0.768,0.223 0.941,0.497 0.117,0 0.211,0.114 0.211,0.254 l 0,0 c 0,0.414 -0.283,0.749 -0.632,0.749 l -7.549,0 C 4.502,3.001 4.219,2.666 4.219,2.252 z"
                     inkscape:connector-curvature="0"
                     style="fill-opacity:0.05882401;marker-start:none;marker-end:none" />
                  <path
                     id="path15702"
                     d="m 4.781,2.252 0,0 c 0,-0.415 0.283,-0.751 0.632,-0.751 l 6.117,0 c 0.377,0 0.7,0.28 0.786,0.625 0.058,0 0.106,0.055 0.106,0.126 l 0,0 c 0,0.414 -0.283,0.749 -0.633,0.749 l -6.376,0 C 5.064,3.001 4.781,2.666 4.781,2.252 z"
                     inkscape:connector-curvature="0"
                     style="fill-opacity:0.06666703;marker-start:none;marker-end:none" />
                  <path
                     id="path15704"
                     d="m 5.344,2.252 0,0 c 0,-0.415 0.283,-0.751 0.631,-0.751 l 5.205,0 c 0.349,0 0.632,0.336 0.632,0.751 l 0,0 c 0,0.414 -0.283,0.749 -0.632,0.749 l -5.205,0 C 5.627,3.001 5.344,2.666 5.344,2.252 z"
                     inkscape:connector-curvature="0"
                     style="fill-opacity:0.07450998;marker-start:none;marker-end:none" />
                </g>
                <g
                   id="Group_8">
                  <path
                     id="path15707"
                     d="m 14.5,2.252 0,0 c 0,-0.415 0.377,-0.751 0.842,-0.751 l 16.316,0 c 0.465,0 0.842,0.336 0.842,0.751 l 0,0 c 0,0.414 -0.377,0.749 -0.842,0.749 l -16.316,0 C 14.877,3.001 14.5,2.666 14.5,2.252 z"
                     inkscape:connector-curvature="0"
                     style="fill-opacity:0.01960802;marker-start:none;marker-end:none" />
                  <path
                     id="path15709"
                     d="m 15.182,2.252 0,0 c 0,-0.415 0.388,-0.751 0.866,-0.751 l 13.372,0 c 0.618,0 1.218,0.056 1.745,0.124 0.388,0 0.702,0.28 0.702,0.627 l 0,0 c 0,0.414 -0.389,0.749 -0.867,0.749 l -14.952,0 c -0.478,0 -0.866,-0.335 -0.866,-0.749 z"
                     inkscape:connector-curvature="0"
                     style="fill-opacity:0.03137303;marker-start:none;marker-end:none" />
                  <path
                     id="path15711"
                     d="m 15.863,2.252 0,0 c 0,-0.415 0.4,-0.751 0.891,-0.751 l 12.324,0 c 0.603,0 1.172,0.111 1.593,0.249 0.31,0 0.561,0.224 0.561,0.502 l 0,0 c 0,0.414 -0.398,0.749 -0.89,0.749 l -13.588,0 c -0.491,0 -0.891,-0.335 -0.891,-0.749 z"
                     inkscape:connector-curvature="0"
                     style="fill-opacity:0.03921599;marker-start:none;marker-end:none" />
                  <path
                     id="path15713"
                     d="m 16.545,2.252 0,0 c 0,-0.415 0.41,-0.751 0.915,-0.751 l 11.277,0 c 0.588,0 1.125,0.168 1.442,0.373 0.231,0 0.42,0.171 0.42,0.378 l 0,0 c 0,0.414 -0.41,0.749 -0.915,0.749 l -12.224,0 c -0.505,0 -0.915,-0.335 -0.915,-0.749 z"
                     inkscape:connector-curvature="0"
                     style="fill-opacity:0.047059;marker-start:none;marker-end:none" />
                  <path
                     id="path15715"
                     d="m 17.228,2.252 0,0 c 0,-0.415 0.42,-0.751 0.937,-0.751 l 10.23,0 c 0.575,0 1.079,0.223 1.29,0.497 0.155,0 0.281,0.114 0.281,0.254 l 0,0 c 0,0.414 -0.42,0.749 -0.939,0.749 l -10.862,0 c -0.517,0 -0.937,-0.335 -0.937,-0.749 z"
                     inkscape:connector-curvature="0"
                     style="fill-opacity:0.05882401;marker-start:none;marker-end:none" />
                  <path
                     id="path15717"
                     d="m 17.909,2.252 0,0 c 0,-0.415 0.432,-0.751 0.964,-0.751 l 9.18,0 c 0.56,0 1.034,0.28 1.139,0.625 0.078,0 0.141,0.055 0.141,0.126 l 0,0 c 0,0.414 -0.432,0.749 -0.963,0.749 l -9.497,0 c -0.532,0 -0.964,-0.335 -0.964,-0.749 z"
                     inkscape:connector-curvature="0"
                     style="fill-opacity:0.06666703;marker-start:none;marker-end:none" />
                  <path
                     id="path15719"
                     d="m 18.591,2.252 0,0 c 0,-0.415 0.443,-0.751 0.987,-0.751 l 8.134,0 c 0.545,0 0.988,0.336 0.988,0.751 l 0,0 c 0,0.414 -0.443,0.749 -0.988,0.749 l -8.134,0 c -0.544,0 -0.987,-0.335 -0.987,-0.749 z"
                     inkscape:connector-curvature="0"
                     style="fill-opacity:0.07450998;marker-start:none;marker-end:none" />
                </g>
              </g>
              <g
                 id="Group_9">
                <path
                   id="path15722"
                   stroke-miterlimit="79.8403193612775"
                   d="m 15.303,3.001 0.086,2.142 -0.171,0.128 -2.87,-0.983 -2.059,2.917 0.007,1.231 1.321,1.715 -2.617,0.792 0,4.625 2.897,0.874 0.033,0.106 -1.435,1.926 0.057,1.311 2.178,2.808 2.825,-1.112 0.176,0.121 0.009,3.053 3.703,1.104 1.651,-2.545 0.222,-0.009 1.764,2.473 3.652,-1.264 -0.096,-3.073 0.14,-0.105 2.872,0.986 2.058,-2.904 L 31.679,17.93 30.378,16.358 33,15.568 33,10.943 30.099,10.067 30.066,9.959 31.455,7.988 31.477,6.571 29.269,3.915 26.44,5.024 26.266,4.904 26.26,3.001 l -5.167,0 -0.191,0.294 -0.221,0.008 -0.216,-0.302 -5.162,0 z"
                   inkscape:connector-curvature="0"
                   style="fill:#000000;fill-opacity:0.27450998;stroke:none;stroke-width:0.59899998;marker-start:none;marker-end:none" />
                <g
                   id="Group_10">
                  <path
                     style="fill:url(#LinearGradient_6-19);stroke:none;stroke-width:0.59899998;marker-start:none;marker-end:none"
                     id="path15725"
                     stroke-miterlimit="79.8403193612775"
                     d="m 24.056,1.501 -1.654,2.544 -0.221,0.008 -1.763,-2.472 -3.65,1.264 0.121,3.048 -0.171,0.128 -2.87,-0.983 -2.059,2.917 0.007,1.231 1.321,1.715 -2.617,0.792 0,4.625 2.897,0.874 0.033,0.106 -1.435,1.926 0.057,1.311 2.178,2.808 2.825,-1.112 0.176,0.121 0.009,3.053 3.703,1.104 1.651,-2.545 0.222,-0.009 1.764,2.473 3.652,-1.264 -0.096,-3.073 0.14,-0.105 2.872,0.986 2.058,-2.904 -0.027,-1.388 -1.301,-1.572 2.622,-0.79 0,-4.625 L 31.599,10.817 31.566,10.709 32.955,8.738 32.977,7.321 30.769,4.665 27.94,5.774 27.766,5.654 27.757,2.604 24.056,1.501 z"
                     inkscape:connector-curvature="0" />
                  <path
                     style="fill:url(#LinearGradient_7-1);stroke:none;stroke-width:0.59899998;marker-start:none;marker-end:none"
                     id="path15727"
                     stroke-miterlimit="79.8403193612775"
                     d="m 17.655,7.006 0,10e-4 C 17.376,7.193 17.108,7.395 16.852,7.611 L 16.85,7.609 14.137,6.68 l -1.603,1.523 0.011,0.726 1.756,2.279 c -0.119,0.312 -0.223,0.633 -0.306,0.962 L 11.25,13 l 0,2.761 2.746,0.828 c 0.116,0.454 0.267,0.895 0.451,1.32 l 0,0 -1.688,1.619 0.032,0.736 1.688,2.176 2.672,-1.048 0.001,-0.003 c 0.264,0.205 0.541,0.395 0.828,0.569 l 0,0.001 0.009,2.887 2.631,0.784 1.569,-2.416 0.001,-0.002 c 0.102,0.004 0.207,0.006 0.31,0.006 0.232,0 0.463,-0.009 0.693,-0.027 l 0,0.001 1.672,2.344 2.595,-0.898 -0.117,-2.884 0,-0.003 c 0.278,-0.185 0.546,-0.387 0.802,-0.603 l 0.002,0.002 2.714,0.931 1.594,-2.249 -0.008,-0.792 -1.751,-1.488 c 0.119,-0.313 0.223,-0.633 0.307,-0.963 L 33.75,15.761 33.75,13 31.003,12.17 C 30.887,11.716 30.735,11.274 30.551,10.85 L 30.553,10.849 32.209,8.496 32.222,7.678 30.521,6.319 27.849,7.368 27.846,7.369 C 27.583,7.164 27.306,6.975 27.019,6.801 L 27.02,6.799 17.655,7.006 z"
                     inkscape:connector-curvature="0" />
                  <path
                     style="fill:url(#LinearGradient_8-62);stroke:none;stroke-width:0.59899998;marker-start:none;marker-end:none"
                     id="path15729"
                     stroke-miterlimit="79.8403193612775"
                     d="M 24.38,2.38 22.81,4.795 22.809,4.797 C 22.707,4.793 22.602,4.792 22.5,4.792 c -0.233,0 -0.465,0.009 -0.694,0.026 L 21.805,4.816 20.134,2.474 17.54,3.372 l 0.115,2.884 0,10e-4 C 17.376,6.443 17.108,6.645 16.852,6.861 L 16.85,6.859 14.137,5.93 l -1.592,2.249 1.756,2.279 c -0.119,0.312 -0.223,0.633 -0.306,0.962 l -2.745,0.83 0,2.761 2.746,0.828 c 0.116,0.454 0.267,0.895 0.451,1.32 l 0,0 -1.656,2.355 1.688,2.176 2.672,-1.048 0.001,-0.003 c 0.264,0.205 0.541,0.395 0.828,0.569 l 0,0.001 0.009,2.887 2.631,0.784 1.569,-2.416 0.001,-0.002 c 0.102,0.004 0.207,0.006 0.31,0.006 0.232,0 0.463,-0.009 0.693,-0.027 l 0,0.001 1.672,2.344 2.595,-0.898 -0.117,-2.884 0,-0.003 c 0.278,-0.185 0.546,-0.387 0.802,-0.603 l 0.002,0.002 2.714,0.931 1.594,-2.249 -1.759,-2.28 c 0.119,-0.313 0.223,-0.633 0.307,-0.963 l 2.747,-0.828 0,-2.761 -2.747,-0.83 C 30.887,10.966 30.735,10.524 30.551,10.1 L 30.553,10.099 32.209,7.746 30.521,5.569 27.849,6.618 27.846,6.619 C 27.583,6.414 27.306,6.225 27.019,6.051 L 27.02,6.049 27.009,3.164 24.38,2.38 z"
                     inkscape:connector-curvature="0" />
                  <path
                     style="fill:url(#LinearGradient_9-72);stroke:none;stroke-width:0.61400002;marker-start:none;marker-end:none"
                     id="path15731"
                     stroke-miterlimit="79.8403193612775"
                     d="m 11.249,14.677 10e-4,0.334 2.746,0.828 c 0.116,0.454 0.267,0.895 0.451,1.32 l -1.656,2.355 1.688,2.176 2.672,-1.048 0.001,-0.003 c 0.264,0.205 0.541,0.395 0.828,0.569 l 0,0.001 0.009,2.887 2.631,0.784 1.569,-2.416 0.001,-0.002 c 0.102,0.004 0.207,0.006 0.31,0.006 0.232,0 0.463,-0.009 0.693,-0.027 l 0,0.001 1.672,2.344 2.595,-0.898 -0.117,-2.884 0,-0.003 c 0.278,-0.185 0.546,-0.387 0.802,-0.603 l 0.002,0.002 2.714,0.931 1.594,-2.249 -1.759,-2.28 c 0.119,-0.313 0.223,-0.633 0.307,-0.963 l 2.747,-0.828 0,-0.312 C 26.424,13.266 16.958,13.147 11.249,14.677 z"
                     inkscape:connector-curvature="0" />
                  <path
                     style="fill:url(#LinearGradient_10-76);stroke:none;stroke-width:0.495;marker-start:none;marker-end:none"
                     id="path15733"
                     stroke-miterlimit="79.8403193612775"
                     d="m 22.5,20.38 c 3.726,0 6.75,-3.024 6.75,-6.75 0,-3.726 -3.024,-6.75 -6.75,-6.75 -3.726,0 -6.75,3.024 -6.75,6.75 0,3.726 3.024,6.75 6.75,6.75 z"
                     inkscape:connector-curvature="0" />
                  <path
                     style="fill:url(#LinearGradient_11-5);stroke:none;stroke-width:0.426;marker-start:none;marker-end:none"
                     id="path15735"
                     stroke-miterlimit="79.8403193612775"
                     d="m 22.501,7.63 c -3.312,0 -6.001,2.688 -6.001,6 0,3.312 2.689,6 6.001,6 3.312,0 6.001,-2.688 6.001,-6 0,-3.312 -2.689,-6 -6.001,-6 z"
                     inkscape:connector-curvature="0" />
                  <path
                     style="fill:url(#LinearGradient_12-1);stroke:none;stroke-width:0.26899999;marker-start:none;marker-end:none"
                     id="path15737"
                     stroke-miterlimit="79.8403193612775"
                     d="m 22.5,18.13 c -2.484,0 -4.5,-2.016 -4.5,-4.5 0,-2.484 2.016,-4.5 4.5,-4.5 2.484,0 4.5,2.016 4.5,4.5 0,2.484 -2.016,4.5 -4.5,4.5 z"
                     inkscape:connector-curvature="0" />
                  <path
                     style="fill:url(#LinearGradient_13-39);stroke:none;stroke-width:0.2;marker-start:none;marker-end:none"
                     id="path15739"
                     stroke-miterlimit="79.8403193612775"
                     d="m 22.5,17.38 c -2.07,0 -3.75,-1.68 -3.75,-3.75 0,-2.07 1.68,-3.75 3.75,-3.75 2.07,0 3.75,1.68 3.75,3.75 0,2.07 -1.68,3.75 -3.75,3.75 z"
                     inkscape:connector-curvature="0" />
                  <path
                     id="path15741"
                     stroke-miterlimit="79.8403193612775"
                     d="m 22.501,15.88 c -1.656,0 -3.001,-0.84 -3.001,-1.875 0,-1.035 1.345,-1.875 3.001,-1.875 1.656,0 3.001,0.84 3.001,1.875 0,1.035 -1.345,1.875 -3.001,1.875 z"
                     inkscape:connector-curvature="0"
                     style="fill:#747474;stroke:none;stroke-width:0.28099999;marker-start:none;marker-end:none" />
                  <path
                     id="path15743"
                     stroke-miterlimit="79.8403193612775"
                     d="m 23.398,16.485 c -1.419,0.305 -2.807,0.114 -3.095,-0.426 -0.288,-0.54 0.63,-1.229 2.049,-1.534 1.419,-0.305 2.807,-0.114 3.095,0.426 0.288,0.54 -0.63,1.229 -2.049,1.534 z"
                     inkscape:connector-curvature="0"
                     style="fill:#ffffff;stroke:none;stroke-width:0.28099999;marker-start:none;marker-end:none" />
                  <path
                     style="fill:url(#LinearGradient_14-95);stroke:none;stroke-width:0.28099999;marker-start:none;marker-end:none"
                     id="path15745"
                     stroke-miterlimit="79.8403193612775"
                     d="m 20.38,11.507 c -0.443,0.443 -0.443,1.15 -0.007,1.587 l 2.662,2.663 c 0.439,0.439 1.146,0.433 1.589,-0.009 0.439,-0.44 0.437,-1.145 0.004,-1.582 l -2.664,-2.665 c -0.436,-0.432 -1.141,-0.436 -1.584,0.006 z"
                     inkscape:connector-curvature="0" />
                  <path
                     style="fill:url(#LinearGradient_15-92);stroke:none;stroke-width:0.28099999;marker-start:none;marker-end:none"
                     id="path15747"
                     stroke-miterlimit="79.8403193612775"
                     d="m 20.911,12.038 c -0.153,0.153 -0.148,0.385 -0.007,0.526 l 2.662,2.663 c 0.141,0.141 0.373,0.146 0.528,-0.009 0.147,-0.147 0.145,-0.379 0.003,-0.522 l -2.662,-2.663 c -0.142,-0.141 -0.374,-0.145 -0.524,0.005 z"
                     inkscape:connector-curvature="0" />
                  <path
                     id="path15749"
                     stroke-miterlimit="79.8403193612775"
                     d="m 20.513,25.293 0,-0.75"
                     inkscape:connector-curvature="0"
                     style="fill:none;stroke:#ffffff;stroke-width:0.63300002;stroke-linecap:round;stroke-miterlimit:79.84031677" />
                  <path
                     id="path15751"
                     stroke-miterlimit="79.8403193612775"
                     d="m 24.975,25.18 0,-0.75"
                     inkscape:connector-curvature="0"
                     style="fill:none;stroke:#ffffff;stroke-width:0.63300002;stroke-linecap:round;stroke-miterlimit:79.84031677" />
                  <path
                     id="path15753"
                     stroke-miterlimit="79.8403193612775"
                     d="m 30.75,21.73 0,-0.75"
                     inkscape:connector-curvature="0"
                     style="fill:none;stroke:#ededed;stroke-width:0.63300002;stroke-linecap:round;stroke-miterlimit:79.84031677" />
                  <path
                     id="path15755"
                     stroke-miterlimit="79.8403193612775"
                     d="m 14.588,22.105 0,-0.75"
                     inkscape:connector-curvature="0"
                     style="fill:none;stroke:#ededed;stroke-width:0.63300002;stroke-linecap:round;stroke-miterlimit:79.84031677" />
                  <path
                     id="path15757"
                     stroke-miterlimit="79.8403193612775"
                     d="M 18.084,5.953 17.971,3.628"
                     inkscape:connector-curvature="0"
                     style="fill:none;stroke:#cbcbcb;stroke-width:0.75;stroke-linecap:round;stroke-miterlimit:79.84031677" />
                  <path
                     id="path15759"
                     stroke-miterlimit="79.8403193612775"
                     d="M 26.632,5.766 26.599,3.439"
                     inkscape:connector-curvature="0"
                     style="fill:none;stroke:#b4b4b4;stroke-width:0.75;stroke-linecap:round;stroke-miterlimit:79.84031677" />
                </g>
              </g>
              <g
                 id="Group_11">
                <path
                   id="path15762"
                   stroke-miterlimit="79.8403193612775"
                   d="M 3.953,3.001 4.002,3.335 3.872,3.461 3.761,3.596 3.232,3.566 C 3.042,3.555 2.3,3.553 2.037,4.267 L 1.569,5.556 1.507,5.843 1.494,5.881 1.522,6.597 c 0.011,0.309 0.14,0.746 0.511,1.021 L 2.222,7.758 2.08,7.885 1.882,8.108 1.805,8.18 C 1.364,8.766 1.637,9.79 1.725,9.981 l 0.584,1.25 c 0.315,0.678 1.039,0.626 1.254,0.594 l 0.55,-0.082 0.21,0.195 -0.007,0.599 c -0.009,0.166 -0.016,0.912 0.7,1.177 l 1.296,0.469 c 0.714,0.261 1.202,-0.324 1.307,-0.466 l 0.314,-0.424 0.175,0.002 0.18,-0.018 0.35,0.397 c 0.124,0.14 0.654,0.663 1.34,0.353 l 1.25,-0.585 c 0.516,-0.236 0.609,-0.712 0.611,-1.017 l -0.009,-0.155 -0.024,-0.692 0.158,-0.177 0.554,0.033 c 0.187,0.011 0.931,0.015 1.194,-0.7 L 14.184,9.437 C 14.241,9.278 14.294,9.013 14.312,8.766 14.318,8.675 14.348,8.322 14.205,7.997 L 14.12,7.872 13.952,7.599 C 13.87,7.504 13.784,7.432 13.716,7.382 L 13.526,7.241 13.672,7.113 C 13.791,7.007 14.213,6.585 14.105,6.022 L 14.095,5.99 14.1,5.553 14.117,5.404 C 14.112,5.28 14.084,5.15 14.024,5.02 L 13.441,3.773 C 13.129,3.086 12.386,3.148 12.189,3.176 l -0.526,0.076 -0.126,-0.13 -0.136,-0.111 0,-0.01 -7.448,0 z"
                   inkscape:connector-curvature="0"
                   style="fill:#000000;fill-opacity:0.32549002;stroke:none;stroke-width:1.28299999;marker-start:none;marker-end:none" />
                <path
                   style="fill:url(#LinearGradient_16-65);stroke:none;stroke-width:1.28299999;marker-start:none;marker-end:none"
                   id="path15764"
                   stroke-miterlimit="79.8403193612775"
                   d="M 8.882,2.033 8.567,2.456 8.391,2.454 8.211,2.472 7.862,2.078 C 7.747,1.949 7.209,1.404 6.518,1.726 L 5.272,2.309 C 4.585,2.623 4.648,3.363 4.676,3.56 L 4.752,4.085 4.622,4.211 4.511,4.346 3.982,4.316 C 3.792,4.305 3.05,4.303 2.787,5.017 L 2.319,6.306 2.257,6.593 2.244,6.631 2.272,7.347 c 0.011,0.309 0.14,0.746 0.511,1.021 L 2.972,8.508 2.83,8.635 2.632,8.858 2.555,8.93 c -0.441,0.586 -0.168,1.61 -0.08,1.801 l 0.584,1.25 c 0.315,0.678 1.039,0.626 1.254,0.594 l 0.55,-0.082 0.21,0.195 -0.007,0.599 c -0.009,0.166 -0.016,0.912 0.7,1.177 l 1.296,0.469 c 0.714,0.261 1.202,-0.324 1.307,-0.466 l 0.314,-0.424 0.175,0.002 0.18,-0.018 0.35,0.397 c 0.124,0.14 0.654,0.663 1.34,0.353 l 1.25,-0.585 c 0.516,-0.236 0.609,-0.712 0.611,-1.017 l -0.009,-0.155 -0.024,-0.692 0.158,-0.177 0.554,0.033 c 0.187,0.011 0.931,0.015 1.194,-0.7 l 0.472,-1.297 c 0.057,-0.159 0.11,-0.424 0.128,-0.671 0.006,-0.091 0.036,-0.444 -0.107,-0.769 L 14.87,8.622 14.702,8.349 C 14.62,8.254 14.534,8.182 14.466,8.132 L 14.276,7.991 14.422,7.863 C 14.541,7.757 14.963,7.335 14.855,6.772 L 14.845,6.74 14.85,6.303 14.867,6.154 C 14.862,6.03 14.834,5.9 14.774,5.77 L 14.191,4.523 C 13.879,3.836 13.136,3.898 12.939,3.926 L 12.413,4.002 12.287,3.872 12.151,3.761 12.183,3.232 C 12.194,3.041 12.195,2.306 11.487,2.038 L 10.19,1.569 C 9.471,1.3 8.981,1.9 8.882,2.033 z"
                   inkscape:connector-curvature="0" />
                <path
                   style="fill:url(#LinearGradient_17-3);stroke:none;stroke-width:1.28299999;marker-start:none;marker-end:none"
                   id="path15766"
                   stroke-miterlimit="79.8403193612775"
                   d="M 5.55,5.104 C 5.286,5.334 5.052,5.592 4.85,5.869 L 4.849,5.868 3.94,5.815 C 3.499,5.79 3.067,6.569 3,6.751 l 0.022,0.568 c 0.006,0.164 0.077,0.35 0.209,0.448 l 0.73,0.543 0.001,0 C 3.938,8.654 3.953,9.001 4.007,9.347 l -10e-4,0 L 3.309,9.311 C 2.938,9.292 3.076,10.241 3.156,10.416 l 0.583,1.249 c 0.081,0.174 0.302,0.193 0.465,0.169 l 0.9,-0.133 0,0 c 0.23,0.265 0.488,0.498 0.766,0.701 l 0,0.002 -0.054,0.908 c -0.009,0.164 0.027,0.381 0.208,0.448 l 1.295,0.469 c 0.181,0.066 0.35,-0.076 0.448,-0.208 l 0.542,-0.729 0,-0.002 c 0.343,0.024 0.692,0.009 1.038,-0.045 l 0.603,0.682 c 0.109,0.123 0.29,0.248 0.465,0.169 l 1.249,-0.584 c 0.175,-0.08 0.191,-0.302 0.168,-0.465 L 11.7,12.148 c 0.264,-0.23 0.499,-0.488 0.701,-0.766 l 0.91,0.054 c 0.164,0.009 0.38,-0.027 0.447,-0.209 l 0.471,-1.294 c 0.066,-0.181 0.214,-0.999 -0.12,-0.997 l -0.819,0.006 -10e-4,0 C 13.313,8.598 13.298,8.25 13.244,7.905 l 0,0 0.681,-0.603 C 14.048,7.193 14.174,7.011 14.094,6.837 L 14.109,6.199 C 14.03,6.025 13.48,5.356 13.046,5.419 l -0.9,0.132 10e-4,-0.001 C 11.916,5.285 11.659,5.051 11.381,4.849 L 5.55,5.104 z"
                   inkscape:connector-curvature="0" />
                <path
                   style="fill:url(#LinearGradient_18-24);stroke:none;stroke-width:1.28299999;marker-start:none;marker-end:none"
                   id="path15768"
                   stroke-miterlimit="79.8403193612775"
                   d="m 5.419,3.454 0.131,0.9 C 5.286,4.584 5.052,4.842 4.85,5.119 L 4.849,5.118 3.94,5.065 C 3.776,5.056 3.559,5.093 3.492,5.275 l -0.47,1.294 c -0.066,0.18 0.077,0.35 0.209,0.448 l 0.73,0.543 0.001,0 C 3.938,7.904 3.953,8.251 4.007,8.597 l -10e-4,0 L 3.325,9.2 C 3.202,9.309 3.076,9.491 3.156,9.666 l 0.583,1.249 c 0.081,0.174 0.302,0.193 0.465,0.169 l 0.9,-0.133 0,0 c 0.23,0.265 0.488,0.498 0.766,0.701 l 0,0.002 -0.054,0.908 c -0.009,0.164 0.027,0.381 0.208,0.448 l 1.295,0.469 c 0.181,0.066 0.35,-0.076 0.448,-0.208 l 0.542,-0.729 0,-0.002 c 0.343,0.024 0.692,0.009 1.038,-0.045 l 0.603,0.682 c 0.109,0.123 0.29,0.248 0.465,0.169 l 1.249,-0.584 c 0.175,-0.08 0.191,-0.302 0.168,-0.465 L 11.7,11.398 c 0.264,-0.23 0.499,-0.488 0.701,-0.766 l 0.91,0.054 c 0.164,0.009 0.38,-0.027 0.447,-0.209 L 14.229,9.183 C 14.295,9.002 14.152,8.833 14.02,8.735 l -0.73,-0.543 -10e-4,0 C 13.313,7.848 13.298,7.5 13.244,7.155 l 0,0 0.681,-0.603 C 14.048,6.443 14.174,6.261 14.094,6.087 L 13.51,4.837 C 13.431,4.663 13.208,4.646 13.046,4.669 L 12.146,4.801 12.147,4.8 C 11.916,4.535 11.659,4.301 11.381,4.099 L 11.435,3.19 C 11.444,3.026 11.407,2.81 11.227,2.742 L 9.932,2.273 C 9.75,2.205 9.582,2.349 9.484,2.481 L 8.941,3.211 C 8.598,3.187 8.25,3.201 7.904,3.256 L 7.301,2.576 C 7.192,2.453 7.01,2.325 6.836,2.406 L 5.587,2.99 C 5.412,3.07 5.396,3.292 5.419,3.454 z"
                   inkscape:connector-curvature="0" />
                <path
                   style="fill:url(#LinearGradient_19-44);stroke:none;stroke-width:1.41999996;marker-start:none;marker-end:none"
                   id="path15770"
                   stroke-miterlimit="79.8403193612775"
                   d="M 8.625,11.251 C 10.488,11.251 12,9.739 12,7.876 12,6.013 10.488,4.501 8.625,4.501 6.762,4.501 5.25,6.013 5.25,7.876 c 0,1.863 1.512,3.375 3.375,3.375 z"
                   inkscape:connector-curvature="0" />
                <path
                   style="fill:url(#LinearGradient_20-27);stroke:none;stroke-width:1.68400002;marker-start:none;marker-end:none"
                   id="path15772"
                   stroke-miterlimit="79.8403193612775"
                   d="m 8.625,10.501 c 1.449,0 2.625,-1.176 2.625,-2.625 C 11.25,6.427 10.074,5.251 8.625,5.251 7.176,5.251 6,6.427 6,7.876 c 0,1.449 1.176,2.625 2.625,2.625 z"
                   inkscape:connector-curvature="0" />
                <path
                   style="fill:url(#LinearGradient_21-9);stroke:none;stroke-width:1.55999994;marker-start:none;marker-end:none"
                   id="path15774"
                   stroke-miterlimit="79.8403193612775"
                   d="M 8.625,9.751 C 9.66,9.751 10.5,8.911 10.5,7.876 10.5,6.841 9.66,6.001 8.625,6.001 7.59,6.001 6.75,6.841 6.75,7.876 c 0,1.035 0.84,1.875 1.875,1.875 z"
                   inkscape:connector-curvature="0" />
                <path
                   id="path15776"
                   stroke-miterlimit="79.8403193612775"
                   d="m 8.663,9.526 c 0.724,0 1.312,-0.353 1.312,-0.787 0,-0.434 -0.588,-0.787 -1.312,-0.787 -0.724,0 -1.312,0.353 -1.312,0.787 0,0.434 0.588,0.787 1.312,0.787 z"
                   inkscape:connector-curvature="0"
                   style="fill:#ffffff;stroke:none;stroke-width:1.55999994;marker-start:none;marker-end:none" />
                <path
                   id="path15778"
                   stroke-miterlimit="79.8403193612775"
                   d="M 7.397,8.168 8.822,6.593"
                   inkscape:connector-curvature="0"
                   style="fill:none;stroke:#ffffff;stroke-width:1.125;stroke-linecap:round;stroke-miterlimit:79.84031677" />
                <path
                   id="path15780"
                   stroke-miterlimit="79.8403193612775"
                   d="M 7.922,8.768 9.347,7.193"
                   inkscape:connector-curvature="0"
                   style="fill:none;stroke:#7f7f7f;stroke-width:1.125;stroke-linecap:round;stroke-miterlimit:79.84031677" />
                <path
                   id="path15782"
                   stroke-miterlimit="79.8403193612775"
                   d="m 10.27,13.84 0.103,-0.995"
                   inkscape:connector-curvature="0"
                   style="fill:none;stroke:#fefefe;stroke-width:0.5;stroke-linecap:round;stroke-miterlimit:79.84031677" />
                <path
                   id="path15784"
                   stroke-miterlimit="79.8403193612775"
                   d="m 7.451,13.992 -0.035,-1"
                   inkscape:connector-curvature="0"
                   style="fill:none;stroke:#fefefe;stroke-width:0.5;stroke-linecap:round;stroke-miterlimit:79.84031677" />
                <path
                   id="path15786"
                   stroke-miterlimit="79.8403193612775"
                   d="M 4.045,11.59 4.022,10.83"
                   inkscape:connector-curvature="0"
                   style="fill:none;stroke:#fefefe;stroke-width:0.5;stroke-linecap:round;stroke-miterlimit:79.84031677" />
                <path
                   id="path15788"
                   stroke-miterlimit="79.8403193612775"
                   d="M 13.458,11.14 13.435,10.38"
                   inkscape:connector-curvature="0"
                   style="fill:none;stroke:#fefefe;stroke-width:0.5;stroke-linecap:round;stroke-miterlimit:79.84031677" />
              </g>
            </g>
          </g>
        </g>
      </g>
    </g>
  </g>
</svg>
