<?xml version="1.0" encoding="UTF-8" standalone="no"?>
<!-- Created with Inkscape (http://www.inkscape.org/) -->

<svg
   xmlns:dc="http://purl.org/dc/elements/1.1/"
   xmlns:cc="http://creativecommons.org/ns#"
   xmlns:rdf="http://www.w3.org/1999/02/22-rdf-syntax-ns#"
   xmlns:svg="http://www.w3.org/2000/svg"
   xmlns="http://www.w3.org/2000/svg"
   xmlns:sodipodi="http://sodipodi.sourceforge.net/DTD/sodipodi-0.dtd"
   xmlns:inkscape="http://www.inkscape.org/namespaces/inkscape"
   width="32"
   height="32"
   id="svg2"
   version="1.1"
   inkscape:version="0.48.3.1 r9886"
   sodipodi:docname="32.svg">
  <defs
     id="defs4">
    <linearGradient
       gradientTransform="matrix(0,-1,1,0,8.242,8.246)"
       y2="0"
       x2="0.75"
       y1="0"
       x1="0"
       gradientUnits="userSpaceOnUse"
       id="LinearGradient_12-0">
      <stop
         id="stop18598"
         stop-color="#949494"
         offset="0" />
      <stop
         id="stop18600"
         stop-color="#555555"
         offset="1" />
    </linearGradient>
    <linearGradient
       gradientTransform="translate(13.077,7.041)"
       y2="0.459"
       x2="-0.327"
       y1="0"
       x1="0"
       gradientUnits="userSpaceOnUse"
       id="LinearGradient_11-0">
      <stop
         id="stop18593"
         stop-color="#e4e4e4"
         offset="0" />
      <stop
         id="stop18595"
         stop-color="#9c9c9c"
         offset="1" />
    </linearGradient>
    <linearGradient
       gradientTransform="translate(12,15)"
       y2="3.75"
       x2="0"
       y1="0"
       x1="0"
       gradientUnits="userSpaceOnUse"
       id="LinearGradient_10-93">
      <stop
         id="stop18588"
         stop-color="#3b7cb7"
         offset="0" />
      <stop
         id="stop18590"
         stop-color="#9dcbef"
         offset="1" />
    </linearGradient>
    <linearGradient
       gradientTransform="translate(7.5,20.25)"
       y2="-5.25"
       x2="0"
       y1="0"
       x1="0"
       gradientUnits="userSpaceOnUse"
       id="LinearGradient_9-60">
      <stop
         id="stop18583"
         stop-color="#535353"
         offset="0" />
      <stop
         id="stop18585"
         stop-color="#262626"
         offset="1" />
    </linearGradient>
    <linearGradient
       gradientTransform="translate(15.75,8.25)"
       y2="-0.75"
       x2="0"
       y1="0"
       x1="0"
       gradientUnits="userSpaceOnUse"
       id="LinearGradient_8-48">
      <stop
         id="stop18578"
         stop-color="#949494"
         offset="0" />
      <stop
         id="stop18580"
         stop-color="#555555"
         offset="1" />
    </linearGradient>
    <linearGradient
       gradientTransform="translate(12,4.5)"
       y2="-0.75"
       x2="0"
       y1="0"
       x1="0"
       gradientUnits="userSpaceOnUse"
       id="LinearGradient_7-18">
      <stop
         id="stop18573"
         stop-color="#878787"
         offset="0" />
      <stop
         id="stop18575"
         stop-color="#555555"
         offset="1" />
    </linearGradient>
    <linearGradient
       gradientTransform="matrix(0,1,-1,0,11.174,14.396)"
       y2="0"
       x2="6.604"
       y1="0"
       x1="0"
       gradientUnits="userSpaceOnUse"
       id="LinearGradient_6-80">
      <stop
         id="stop18568"
         stop-color="#222222"
         offset="0" />
      <stop
         id="stop18570"
         stop-color="#707070"
         offset="1" />
    </linearGradient>
    <linearGradient
       gradientTransform="matrix(0,-1,1,0,11.472,21.749)"
       y2="0"
       x2="8.249"
       y1="0"
       x1="0"
       gradientUnits="userSpaceOnUse"
       id="LinearGradient_5-82">
      <stop
         id="stop18561"
         stop-color="#363738"
         offset="0" />
      <stop
         id="stop18563"
         stop-color="#bbbbbb"
         offset="0.909079909324646" />
      <stop
         id="stop18565"
         stop-color="#ffffff"
         offset="1" />
    </linearGradient>
    <linearGradient
       gradientTransform="translate(12,3.125)"
       y2="8.75"
       x2="0"
       y1="0"
       x1="0"
       gradientUnits="userSpaceOnUse"
       id="LinearGradient_4-91">
      <stop
         id="stop18556"
         stop-color="#ffffff"
         offset="0" />
      <stop
         id="stop18558"
         stop-color="#a8a8a8"
         offset="1" />
    </linearGradient>
    <linearGradient
       gradientTransform="translate(12,9.75)"
       y2="-4.5"
       x2="0"
       y1="0"
       x1="0"
       gradientUnits="userSpaceOnUse"
       id="LinearGradient_3-93">
      <stop
         id="stop18551"
         stop-color="#8b8b8b"
         offset="0" />
      <stop
         id="stop18553"
         stop-color="#fdfdfd"
         offset="1" />
    </linearGradient>
    <linearGradient
       gradientTransform="translate(12,11.786)"
       y2="-6"
       x2="0"
       y1="0"
       x1="0"
       gradientUnits="userSpaceOnUse"
       id="LinearGradient_2-37">
      <stop
         id="stop18546"
         stop-color="#e2e2e2"
         offset="0" />
      <stop
         id="stop18548"
         stop-color="#8f8f8f"
         offset="1" />
    </linearGradient>
    <linearGradient
       gradientTransform="matrix(0,-1,1,0,9.909,22.899)"
       y2="0"
       x2="21.046"
       y1="0"
       x1="0"
       gradientUnits="userSpaceOnUse"
       id="LinearGradient_1-378">
      <stop
         id="stop18541"
         stop-color="#c9c9c9"
         offset="0" />
      <stop
         id="stop18543"
         stop-color="#b0b0b0"
         offset="1" />
    </linearGradient>
    <linearGradient
       gradientTransform="matrix(8.7266462e-5,-1,1,8.7266462e-5,9.972,23.998)"
       y2="0"
       x2="23.064"
       y1="0"
       x1="0"
       gradientUnits="userSpaceOnUse"
       id="LinearGradient-58">
      <stop
         id="stop18536"
         stop-color="#878b8e"
         offset="0" />
      <stop
         id="stop18538"
         stop-color="#818689"
         offset="1" />
    </linearGradient>
  </defs>
  <sodipodi:namedview
     id="base"
     pagecolor="#ffffff"
     bordercolor="#666666"
     borderopacity="1.0"
     inkscape:pageopacity="0.0"
     inkscape:pageshadow="2"
     inkscape:zoom="9.7207688"
     inkscape:cx="15.924666"
     inkscape:cy="15.924666"
     inkscape:document-units="px"
     inkscape:current-layer="layer1"
     showgrid="false"
     inkscape:window-width="860"
     inkscape:window-height="523"
     inkscape:window-x="845"
     inkscape:window-y="315"
     inkscape:window-maximized="0" />
  <metadata
     id="metadata7">
    <rdf:RDF>
      <cc:Work
         rdf:about="">
        <dc:format>image/svg+xml</dc:format>
        <dc:type
           rdf:resource="http://purl.org/dc/dcmitype/StillImage" />
        <dc:title />
      </cc:Work>
    </rdf:RDF>
  </metadata>
  <g
     inkscape:label="Layer 1"
     inkscape:groupmode="layer"
     id="layer1"
     transform="translate(0,-1020.3622)">
    <g
       style="fill-rule:evenodd;stroke-width:0.50099999;stroke-linejoin:bevel;overflow:visible"
       id="g18767"
       transform="matrix(1.3333968,0,0,1.3333889,-9.52e-5,1020.3609)">
      <g
         transform="scale(1,-1)"
         font-size="16"
         id="Document"
         style="font-size:16px;fill:none;stroke:#000000;font-family:Times New Roman">
        <g
           transform="translate(0,-24)"
           id="Spread">
          <g
             id="MouseOff">
            <g
               id="Group"
               style="stroke-linejoin:miter">
              <g
                 stroke-miterlimit="79.8403193612775"
                 id="Group_1"
                 style="fill:#494a4f;stroke:none">
                <path
                   id="path18617"
                   d="m 1.5,0.75 0,0 C 1.5,0.336 1.792,0 2.154,0 l 19.692,0 c 0.361,0 0.653,0.336 0.653,0.75 l 0,0 c 0,0.414 -0.292,0.75 -0.653,0.75 L 2.154,1.5 C 1.792,1.5 1.5,1.164 1.5,0.75 z"
                   inkscape:connector-curvature="0"
                   style="fill-opacity:0.05490202;marker-start:none;marker-end:none" />
                <path
                   id="path18619"
                   d="m 1.592,0.78 0,0 c 0,-0.394 0.292,-0.717 0.652,-0.717 l 19.511,0 c 0.36,0 0.652,0.323 0.652,0.717 l 0,0 c 0,0.396 -0.292,0.72 -0.652,0.72 L 2.244,1.5 C 1.884,1.5 1.592,1.176 1.592,0.78 z"
                   inkscape:connector-curvature="0"
                   style="fill-opacity:0.07450998;marker-start:none;marker-end:none" />
                <path
                   id="path18621"
                   d="m 1.684,0.813 0,-0.003 c 0,-0.376 0.292,-0.685 0.653,-0.685 l 19.325,0 c 0.361,0 0.653,0.309 0.653,0.685 l 0,0.003 c 0,0.378 -0.292,0.687 -0.653,0.687 L 2.337,1.5 C 1.976,1.5 1.684,1.191 1.684,0.813 z"
                   inkscape:connector-curvature="0"
                   style="fill-opacity:0.09411801;marker-start:none;marker-end:none" />
                <path
                   id="path18623"
                   d="m 1.776,0.843 0,0 c 0,-0.36 0.293,-0.655 0.653,-0.655 l 19.141,0 c 0.36,0 0.653,0.295 0.653,0.655 l 0,0 C 22.223,1.205 21.93,1.5 21.57,1.5 L 2.429,1.5 C 2.069,1.5 1.776,1.205 1.776,0.843 z"
                   inkscape:connector-curvature="0"
                   style="fill-opacity:0.10980398;marker-start:none;marker-end:none" />
                <path
                   id="path18625"
                   d="m 1.867,0.875 0,-0.002 c 0,-0.342 0.294,-0.622 0.655,-0.622 l 18.955,0 c 0.361,0 0.654,0.28 0.654,0.622 l 0,0.002 C 22.131,1.22 21.838,1.5 21.477,1.5 L 2.522,1.5 C 2.161,1.5 1.867,1.22 1.867,0.875 z"
                   inkscape:connector-curvature="0"
                   style="fill-opacity:0.129412;marker-start:none;marker-end:none" />
                <path
                   id="path18627"
                   d="m 1.96,0.906 0,-0.001 c 0,-0.326 0.293,-0.591 0.653,-0.591 l 18.773,0 c 0.36,0 0.653,0.265 0.653,0.591 l 0,0.001 c 0,0.326 -0.293,0.594 -0.653,0.594 L 2.613,1.5 C 2.253,1.5 1.96,1.232 1.96,0.906 z"
                   inkscape:connector-curvature="0"
                   style="fill-opacity:0.14902003;marker-start:none;marker-end:none" />
                <path
                   id="path18629"
                   d="m 2.052,0.936 0,0 c 0,-0.307 0.293,-0.559 0.653,-0.559 l 18.589,0 c 0.36,0 0.653,0.252 0.653,0.559 l 0,0 c 0,0.312 -0.293,0.564 -0.653,0.564 L 2.705,1.5 C 2.345,1.5 2.052,1.248 2.052,0.936 z"
                   inkscape:connector-curvature="0"
                   style="fill-opacity:0.164706;marker-start:none;marker-end:none" />
              </g>
              <path
                 style="fill:url(#LinearGradient-58);stroke:none;stroke-width:0.081;marker-start:none;marker-end:none"
                 id="path18631"
                 stroke-miterlimit="79.8403193612775"
                 d="M 1.5,22.359 1.5,2.39 C 1.5,1.485 2.235,0.75 3.14,0.75 l 17.719,0 c 0.905,0 1.64,0.735 1.64,1.64 l 0,19.969 c 0,0.905 -0.735,1.64 -1.64,1.64 l -17.719,0 c -0.905,0 -1.64,-0.735 -1.64,-1.64 z"
                 inkscape:connector-curvature="0" />
              <path
                 style="fill:url(#LinearGradient_1-378);stroke:none;stroke-width:0.081;marker-start:none;marker-end:none"
                 id="path18633"
                 stroke-miterlimit="79.8403193612775"
                 d="m 2.248,22.168 0,-19.587 c 0,-0.597 0.485,-1.082 1.082,-1.082 l 17.339,0 c 0.597,0 1.082,0.485 1.082,1.082 l 0,19.587 c 0,0.597 -0.485,1.082 -1.082,1.082 l -17.339,0 c -0.597,0 -1.082,-0.485 -1.082,-1.082 z"
                 inkscape:connector-curvature="0" />
              <path
                 id="path18635"
                 stroke-miterlimit="79.8403193612775"
                 d="m 2.3,2.249 19.398,0 C 21.56,1.82 21.161,1.507 20.688,1.5 L 3.31,1.5 C 2.837,1.507 2.438,1.82 2.3,2.249 z"
                 inkscape:connector-curvature="0"
                 style="fill:#c0c0c0;stroke:none;stroke-width:0.081;marker-start:none;marker-end:none" />
              <path
                 style="fill:url(#LinearGradient_2-37);stroke:none;stroke-width:0.093;marker-start:none;marker-end:none"
                 id="path18637"
                 stroke-miterlimit="79.8403193612775"
                 d="m 6,7.5 c 0,3.312 2.688,6 6,6 3.312,0 6,-2.688 6,-6 0,-3.312 -2.688,-6 -6,-6 -3.312,0 -6,2.688 -6,6 z m 9.429,0 c 0,1.891 -1.536,3.427 -3.428,3.427 -1.894,0 -3.43,-1.536 -3.43,-3.427 0,-1.891 1.536,-3.427 3.43,-3.427 1.892,0 3.428,1.536 3.428,3.427 z"
                 inkscape:connector-curvature="0" />
              <path
                 id="path18639"
                 stroke-miterlimit="79.8403193612775"
                 d="M 12,11.25 C 9.952,11.25 8.287,9.608 8.249,7.57 6.13,7.65 4.115,7.793 2.25,7.994 L 2.249,21.489 C 2.25,22.046 2.723,22.5 3.304,22.5 l 17.391,0 c 0.581,0 1.055,-0.456 1.055,-1.014 l 0,-13.519 C 19.881,7.773 17.865,7.636 15.749,7.562 15.716,9.603 14.049,11.25 12,11.25 z"
                 inkscape:connector-curvature="0"
                 style="fill:#ffffff;fill-opacity:0.14509798;stroke:none;stroke-width:0.042;marker-start:none;marker-end:none" />
              <path
                 style="fill:url(#LinearGradient_3-93);stroke:none;stroke-width:0.066;marker-start:none;marker-end:none"
                 id="path18641"
                 stroke-miterlimit="79.8403193612775"
                 d="m 8.249,7.5 c 0,2.07 1.68,3.75 3.751,3.75 2.07,0 3.75,-1.68 3.75,-3.75 C 15.75,5.43 14.07,3.75 12,3.75 9.929,3.75 8.249,5.43 8.249,7.5 z m 6,0 c 0,1.242 -1.007,2.25 -2.249,2.25 -1.243,0 -2.251,-1.008 -2.251,-2.25 0,-1.242 1.008,-2.25 2.251,-2.25 1.242,0 2.249,1.008 2.249,2.25 z"
                 inkscape:connector-curvature="0" />
              <path
                 style="fill:url(#LinearGradient_4-91);stroke:none;stroke-width:0.092;marker-start:none;marker-end:none"
                 id="path18643"
                 stroke-miterlimit="79.8403193612775"
                 d="m 6.749,7.5 c 0,2.898 2.352,5.25 5.251,5.25 2.898,0 5.25,-2.352 5.25,-5.25 C 17.25,4.602 14.898,2.25 12,2.25 9.101,2.25 6.749,4.602 6.749,7.5 z M 15,7.5 c 0,1.656 -1.344,3 -3,3 -1.657,0 -3.001,-1.344 -3.001,-3 0,-1.656 1.344,-3 3.001,-3 1.656,0 3,1.344 3,3 z"
                 inkscape:connector-curvature="0" />
              <path
                 style="fill:url(#LinearGradient_5-82);stroke:none;stroke-width:0.081;marker-start:none;marker-end:none"
                 id="path18645"
                 stroke-miterlimit="79.8403193612775"
                 d="m 2.999,21.243 0,-7.237 c 0,-0.279 0.228,-0.507 0.507,-0.507 l 16.987,0 c 0.279,0 0.507,0.228 0.507,0.507 l 0,7.237 c 0,0.279 -0.228,0.507 -0.507,0.507 l -16.987,0 c -0.279,0 -0.507,-0.228 -0.507,-0.507 z"
                 inkscape:connector-curvature="0" />
              <path
                 style="fill:url(#LinearGradient_6-80);stroke:none;stroke-width:0.081;marker-start:none;marker-end:none"
                 id="path18647"
                 stroke-miterlimit="79.8403193612775"
                 d="m 3.75,20.759 0,-6.269 c 0,-0.133 0.108,-0.241 0.241,-0.241 l 16.017,0 c 0.133,0 0.241,0.108 0.241,0.241 l 0,6.269 C 20.249,20.892 20.141,21 20.008,21 L 3.991,21 C 3.858,21 3.75,20.892 3.75,20.759 z"
                 inkscape:connector-curvature="0" />
              <path
                 style="fill:url(#LinearGradient_7-18);stroke:none;stroke-width:0.042;marker-start:none;marker-end:none"
                 id="path18649"
                 stroke-miterlimit="79.8403193612775"
                 d="m 11.251,4.092 0,-0.685 C 11.251,3.183 11.434,3 11.658,3 l 0.685,0 c 0.225,0 0.407,0.183 0.407,0.407 l 0,0.685 c 0,0.225 -0.182,0.407 -0.407,0.407 l -0.685,0 c -0.224,0 -0.407,-0.182 -0.407,-0.407 z"
                 inkscape:connector-curvature="0" />
              <path
                 style="fill:url(#LinearGradient_8-48);stroke:none;stroke-width:0.042;marker-start:none;marker-end:none"
                 id="path18651"
                 stroke-miterlimit="79.8403193612775"
                 d="m 15.927,6.774 1.243,0.637 c 0.097,0.05 0.097,0.132 0,0.182 L 15.927,8.231 C 15.83,8.281 15.75,8.232 15.75,8.123 l 0,-1.241 c 0,-0.109 0.08,-0.158 0.177,-0.108 z"
                 inkscape:connector-curvature="0" />
              <path
                 id="path18653"
                 stroke-miterlimit="79.8403193612775"
                 d="m 3.749,22.499 0,-0.749 16.501,0 0,0.749 -16.501,0 z"
                 inkscape:connector-curvature="0"
                 style="fill:#e5e5e5;stroke:none;stroke-width:0.081;marker-start:none;marker-end:none" />
              <path
                 style="fill:url(#LinearGradient_9-60);stroke:none;stroke-width:0.375;marker-start:none;marker-end:none"
                 id="path18655"
                 stroke-miterlimit="79.8403193612775"
                 d="m 4.5,15 0,0.749 1.499,0 0,-0.749 -1.499,0 z m 9.001,0 0,0.749 1.499,0 0,-0.749 -1.499,0 z m -6.75,10e-4 0,0.749 1.499,0 0,-0.749 -1.499,0 z m 2.249,0 0,0.749 1.499,0 0,-0.749 -1.499,0 z m 2.251,0 0,0.749 1.499,0 0,-0.749 -1.499,0 z m 4.5,0 0,0.749 1.499,0 0,-0.749 -1.499,0 z m 2.25,0 0,0.749 1.499,0 0,-0.749 -1.499,0 z M 4.5,16.5 l 0,0.749 1.499,0 0,-0.749 -1.499,0 z m 9.001,0 0,0.749 1.499,0 0,-0.749 -1.499,0 z m -6.75,0.001 0,0.749 1.499,0 0,-0.749 -1.499,0 z m 2.249,0 0,0.749 1.499,0 0,-0.749 -1.499,0 z m 2.251,0 0,0.749 1.499,0 0,-0.749 -1.499,0 z m 4.5,0 0,0.749 1.499,0 0,-0.749 -1.499,0 z m 2.25,0 0,0.749 1.499,0 0,-0.749 -1.499,0 z M 4.5,18 l 0,0.749 1.499,0 0,-0.749 -1.499,0 z m 9.001,0 0,0.749 1.499,0 0,-0.749 -1.499,0 z m -6.75,0.001 0,0.749 1.499,0 0,-0.749 -1.499,0 z m 2.249,0 0,0.749 1.499,0 0,-0.749 -1.499,0 z m 2.251,0 0,0.749 1.499,0 0,-0.749 -1.499,0 z m 4.5,0 0,0.749 1.499,0 0,-0.749 -1.499,0 z m 2.25,0 0,0.749 1.499,0 0,-0.749 -1.499,0 z M 4.5,19.5 l 0,0.749 1.499,0 0,-0.749 -1.499,0 z m 9.001,0 0,0.749 1.499,0 0,-0.749 -1.499,0 z m -6.75,0.001 0,0.749 1.499,0 0,-0.749 -1.499,0 z m 2.249,0 0,0.749 1.499,0 0,-0.749 -1.499,0 z m 2.251,0 0,0.749 1.499,0 0,-0.749 -1.499,0 z m 4.5,0 0,0.749 1.499,0 0,-0.749 -1.499,0 z m 2.25,0 0,0.749 1.499,0 0,-0.749 -1.499,0 z"
                 inkscape:connector-curvature="0" />
              <path
                 style="fill:url(#LinearGradient_10-93);stroke:none;stroke-width:0.375;marker-start:none;marker-end:none"
                 id="path18657"
                 stroke-miterlimit="79.8403193612775"
                 d="m 4.5,15 0,0.749 1.499,0 0,-0.749 -1.499,0 z m 2.251,0 0,0.749 1.499,0 0,-0.749 -1.499,0 z m 2.25,0 0,0.749 1.499,0 0,-0.749 -1.499,0 z m 2.249,0 0,0.749 1.499,0 0,-0.749 -1.499,0 z m 4.5,0 0,0.749 1.499,0 0,-0.749 -1.499,0 z m -2.249,10e-4 0,0.749 1.499,0 0,-0.749 -1.499,0 z m 4.5,0 0,0.749 1.499,0 0,-0.749 -1.499,0 z M 9,16.5 l 0,0.749 1.499,0 0,-0.749 -1.499,0 z m 4.5,0 0,0.749 1.499,0 0,-0.749 -1.499,0 z m -6.75,0.001 0,0.749 1.499,0 0,-0.749 -1.499,0 z m 4.5,0 0,0.749 1.499,0 0,-0.749 -1.499,0 z m 4.5,0 0,0.749 1.499,0 0,-0.749 -1.499,0 z m -4.5,1.5 0,0.749 1.499,0 0,-0.749 -1.499,0 z"
                 inkscape:connector-curvature="0" />
              <path
                 id="path18659"
                 stroke-miterlimit="79.8403193612775"
                 d="m 4.5,18.001 0,0.749 1.499,0 0,-0.749 -1.499,0 z m 13.501,0 0,0.749 1.499,0 0,-0.749 -1.499,0 z m -11.251,1.5 0,0.749 1.499,0 0,-0.749 -1.499,0 z m 6.75,0 0,0.749 1.499,0 0,-0.749 -1.499,0 z"
                 inkscape:connector-curvature="0"
                 style="fill:#b4deff;stroke:none;stroke-width:0.375;marker-start:none;marker-end:none" />
              <path
                 id="path18661"
                 stroke-miterlimit="79.8403193612775"
                 d="m 10.5,7.5 c 0,0.827 0.672,1.499 1.5,1.499 0.828,0 1.5,-0.672 1.5,-1.499 0,-0.827 -0.672,-1.499 -1.5,-1.499 -0.828,0 -1.5,0.672 -1.5,1.499 z"
                 inkscape:connector-curvature="0"
                 style="fill:#c2c2c2;stroke:none;stroke-width:0.04;marker-start:none;marker-end:none" />
              <path
                 style="fill:url(#LinearGradient_11-0);stroke:none;stroke-width:0.19;marker-start:none;marker-end:none"
                 id="path18663"
                 stroke-miterlimit="79.8403193612775"
                 d="M 10.943,5.349 C 10.569,5.55 10.5,5.918 10.5,6.123 l 0,2.756 c 0,0.201 0.068,0.565 0.437,0.769 0.374,0.206 0.739,0.055 0.904,-0.058 l 2.01,-1.356 c 0.528,-0.363 0.529,-1.106 0,-1.471 L 11.841,5.41 C 11.678,5.299 11.328,5.141 10.943,5.349 z"
                 inkscape:connector-curvature="0" />
              <path
                 id="path18665"
                 stroke-miterlimit="79.8403193612775"
                 d="m 11.419,6.031 2.01,1.353 c 0.093,0.064 0.093,0.167 0,0.231 l -2.01,1.356 C 11.326,9.035 11.25,8.992 11.25,8.879 l 0,-2.756 c 0,-0.116 0.076,-0.156 0.169,-0.092 z"
                 inkscape:connector-curvature="0"
                 style="fill:#6a6a6a;stroke:none;stroke-width:0.19;marker-start:none;marker-end:none" />
              <path
                 style="fill:url(#LinearGradient_12-0);stroke:none;stroke-width:0.042;marker-start:none;marker-end:none"
                 id="path18667"
                 stroke-miterlimit="79.8403193612775"
                 d="M 8.065,6.77 6.822,7.407 c -0.097,0.05 -0.097,0.132 0,0.182 l 1.243,0.638 c 0.097,0.05 0.177,10e-4 0.177,-0.108 l 0,-1.241 C 8.242,6.769 8.162,6.72 8.065,6.77 z"
                 inkscape:connector-curvature="0" />
              <path
                 id="path18669"
                 stroke-miterlimit="79.8403193612775"
                 d="m 11.25,12 0,-0.75"
                 inkscape:connector-curvature="0"
                 style="fill:none;stroke:#555555;stroke-width:0.75;stroke-linecap:round;stroke-miterlimit:79.84031677" />
              <path
                 id="path18671"
                 stroke-miterlimit="79.8403193612775"
                 d="m 12.75,12 0,-0.75"
                 inkscape:connector-curvature="0"
                 style="fill:none;stroke:#555555;stroke-width:0.75;stroke-linecap:round;stroke-miterlimit:79.84031677" />
            </g>
          </g>
        </g>
      </g>
    </g>
  </g>
</svg>
