<?xml version="1.0" encoding="UTF-8" standalone="no"?>
<!-- Creator: CorelDRAW -->

<svg
   xmlns:dc="http://purl.org/dc/elements/1.1/"
   xmlns:cc="http://creativecommons.org/ns#"
   xmlns:rdf="http://www.w3.org/1999/02/22-rdf-syntax-ns#"
   xmlns:svg="http://www.w3.org/2000/svg"
   xmlns="http://www.w3.org/2000/svg"
   xmlns:xlink="http://www.w3.org/1999/xlink"
   xmlns:sodipodi="http://sodipodi.sourceforge.net/DTD/sodipodi-0.dtd"
   xmlns:inkscape="http://www.inkscape.org/namespaces/inkscape"
   xml:space="preserve"
   width="32px"
   height="32px"
   style="shape-rendering:geometricPrecision; text-rendering:geometricPrecision; image-rendering:optimizeQuality; fill-rule:evenodd; clip-rule:evenodd"
   viewBox="0 0 32 32"
   id="svg3911"
   version="1.1"
   inkscape:version="0.48.1 r9760"
   sodipodi:docname="knotes.svg"><metadata
   id="metadata4138"><rdf:RDF><cc:Work
       rdf:about=""><dc:format>image/svg+xml</dc:format><dc:type
         rdf:resource="http://purl.org/dc/dcmitype/StillImage" /><dc:title></dc:title></cc:Work></rdf:RDF></metadata><sodipodi:namedview
   pagecolor="#ffffff"
   bordercolor="#666666"
   borderopacity="1"
   objecttolerance="10"
   gridtolerance="10"
   guidetolerance="10"
   inkscape:pageopacity="0"
   inkscape:pageshadow="2"
   inkscape:window-width="646"
   inkscape:window-height="480"
   id="namedview4136"
   showgrid="false"
   inkscape:zoom="8.3125"
   inkscape:cx="16"
   inkscape:cy="16"
   inkscape:window-x="0"
   inkscape:window-y="24"
   inkscape:window-maximized="0"
   inkscape:current-layer="svg3911" />
 <defs
   id="defs3913">
  <style
   type="text/css"
   id="style3915">
   
    .fil16 {fill:#85C2F5}
    .fil15 {fill:#91591D}
    .fil14 {fill:#9C6121}
    .fil101 {fill:#B3DCFB}
    .fil24 {fill:#C3E671}
    .fil91 {fill:#D99A3D}
    .fil96 {fill:#E3A13D}
    .fil19 {fill:#F07E41}
    .fil63 {fill:#F2BF16}
    .fil23 {fill:#FDD425}
    .fil68 {fill:#FFAF7D}
    .fil30 {fill:#FFF46D}
    .fil70 {fill:#4F81B3;fill-rule:nonzero}
    .fil18 {fill:#669ED5;fill-rule:nonzero}
    .fil93 {fill:#824A12;fill-rule:nonzero}
    .fil28 {fill:#86A836;fill-rule:nonzero}
    .fil25 {fill:#95B842;fill-rule:nonzero}
    .fil21 {fill:#994319;fill-rule:nonzero}
    .fil99 {fill:#9C6121;fill-rule:nonzero}
    .fil26 {fill:#A0C646;fill-rule:nonzero}
    .fil29 {fill:#D0F280;fill-rule:nonzero}
    .fil20 {fill:#D16A35;fill-rule:nonzero}
    .fil31 {fill:#EDA21D;fill-rule:nonzero}
    .fil97 {fill:#F3C069;fill-rule:nonzero}
    .fil62 {fill:#F5B71B;fill-rule:nonzero}
    .fil95 {fill:#FFD278;fill-rule:nonzero}
    .fil32 {fill:#FFF28C;fill-rule:nonzero}
    .fil61 {fill:#FFF5A8;fill-rule:nonzero}
    .fil0 {fill:black;fill-opacity:0.000000}
    .fil71 {fill:#4F2F13;fill-opacity:0.000000}
    .fil51 {fill:#FFF28C;fill-opacity:0.000000}
    .fil72 {fill:#4F2F13;fill-opacity:0.003922}
    .fil1 {fill:black;fill-opacity:0.003922}
    .fil73 {fill:#4F2F13;fill-opacity:0.007843}
    .fil33 {fill:#FBE663;fill-opacity:0.007843}
    .fil2 {fill:black;fill-opacity:0.007843}
    .fil74 {fill:#4F2F13;fill-opacity:0.011765}
    .fil3 {fill:black;fill-opacity:0.015686}
    .fil75 {fill:#4F2F13;fill-opacity:0.015686}
    .fil34 {fill:#F6DD5F;fill-opacity:0.015686}
    .fil76 {fill:#4F2F13;fill-opacity:0.019608}
    .fil4 {fill:black;fill-opacity:0.019608}
    .fil77 {fill:#4F2F13;fill-opacity:0.019608}
    .fil35 {fill:#F1D45C;fill-opacity:0.019608}
    .fil5 {fill:black;fill-opacity:0.023529}
    .fil52 {fill:#FFF38F;fill-opacity:0.023529}
    .fil78 {fill:#4F2F13;fill-opacity:0.023529}
    .fil6 {fill:black;fill-opacity:0.027451}
    .fil79 {fill:#4F2F13;fill-opacity:0.027451}
    .fil36 {fill:#ECCB58;fill-opacity:0.027451}
    .fil80 {fill:#4F2F13;fill-opacity:0.031373}
    .fil7 {fill:black;fill-opacity:0.031373}
    .fil81 {fill:#4F2F13;fill-opacity:0.035294}
    .fil37 {fill:#E7C254;fill-opacity:0.035294}
    .fil8 {fill:black;fill-opacity:0.035294}
    .fil82 {fill:#4F2F13;fill-opacity:0.039216}
    .fil9 {fill:black;fill-opacity:0.043137}
    .fil83 {fill:#4F2F13;fill-opacity:0.043137}
    .fil38 {fill:#E3B951;fill-opacity:0.043137}
    .fil84 {fill:#4F2F13;fill-opacity:0.047059}
    .fil10 {fill:black;fill-opacity:0.047059}
    .fil53 {fill:#FFF391;fill-opacity:0.047059}
    .fil85 {fill:#4F2F13;fill-opacity:0.050980}
    .fil39 {fill:#DEB04D;fill-opacity:0.050980}
    .fil11 {fill:black;fill-opacity:0.050980}
    .fil86 {fill:#4F2F13;fill-opacity:0.054902}
    .fil12 {fill:black;fill-opacity:0.054902}
    .fil87 {fill:#4F2F13;fill-opacity:0.054902}
    .fil40 {fill:#D9A749;fill-opacity:0.054902}
    .fil13 {fill:black;fill-opacity:0.058824}
    .fil88 {fill:#4F2F13;fill-opacity:0.058824}
    .fil41 {fill:#D49F46;fill-opacity:0.062745}
    .fil42 {fill:#CF9642;fill-opacity:0.070588}
    .fil54 {fill:#FFF393;fill-opacity:0.074510}
    .fil43 {fill:#CA8D3E;fill-opacity:0.078431}
    .fil44 {fill:#C6843B;fill-opacity:0.086275}
    .fil45 {fill:#C17B37;fill-opacity:0.090196}
    .fil55 {fill:#FFF396;fill-opacity:0.098039}
    .fil46 {fill:#BC7233;fill-opacity:0.098039}
    .fil47 {fill:#B76930;fill-opacity:0.105882}
    .fil48 {fill:#B2602C;fill-opacity:0.113725}
    .fil49 {fill:#AD5728;fill-opacity:0.121569}
    .fil56 {fill:#FFF498;fill-opacity:0.121569}
    .fil57 {fill:#FFF49A;fill-opacity:0.145098}
    .fil58 {fill:#FFF49D;fill-opacity:0.172549}
    .fil59 {fill:#FFF49F;fill-opacity:0.196078}
    .fil60 {fill:#FFF4A1;fill-opacity:0.219608}
    .fil100 {fill:#4F2F13;fill-opacity:0.439216}
    .fil67 {fill:#752706;fill-opacity:0.439216}
    .fil69 {fill:#669ED5;fill-rule:nonzero;fill-opacity:0.501961}
    .fil17 {fill:#BEE4FE;fill-rule:nonzero;fill-opacity:0.501961}
    .fil64 {fill:#EDA21D;fill-rule:nonzero;fill-opacity:0.501961}
    .fil27 {fill:#A0C646;fill-rule:nonzero;fill-opacity:0.780392}
    .fil65 {fill:#EDA21D;fill-rule:nonzero;fill-opacity:0.780392}
    .fil22 {fill:#FFA770;fill-rule:nonzero;fill-opacity:0.780392}
    .fil66 {fill:#FFE461;fill-rule:nonzero;fill-opacity:0.780392}
    .fil89 {fill:url(#id0)}
    .fil90 {fill:url(#id1)}
    .fil92 {fill:url(#id2)}
    .fil50 {fill:url(#id3)}
    .fil94 {fill:url(#id4);fill-rule:nonzero}
    .fil98 {fill:url(#id5);fill-rule:nonzero}
   
  </style>
  <linearGradient
   id="id0"
   gradientUnits="userSpaceOnUse"
   x1="8.95083"
   y1="29.529"
   x2="8.95083"
   y2="10.8525">
   <stop
   offset="0"
   style="stop-color:#9D6123"
   id="stop3918" />
   <stop
   offset="0.568627"
   style="stop-color:#B3732A"
   id="stop3920" />
   <stop
   offset="1"
   style="stop-color:#C48231"
   id="stop3922" />
  </linearGradient>
  <linearGradient
   id="id1"
   gradientUnits="userSpaceOnUse"
   x1="16.1193"
   y1="27.8955"
   x2="16.1193"
   y2="11.0568">
   <stop
   offset="0"
   style="stop-color:#91591D"
   id="stop3925" />
   <stop
   offset="1"
   style="stop-color:#B07129"
   id="stop3927" />
  </linearGradient>
  <linearGradient
   id="id2"
   gradientUnits="userSpaceOnUse"
   xlink:href="#id0"
   x1="15.948"
   y1="29.4593"
   x2="15.948"
   y2="11.8151">
  </linearGradient>
  <linearGradient
   id="id3"
   gradientUnits="userSpaceOnUse"
   x1="3.96161"
   y1="11.1242"
   x2="20.3538"
   y2="3.31197">
   <stop
   offset="0"
   style="stop-color:#FFDA53"
   id="stop3931" />
   <stop
   offset="1"
   style="stop-color:#FFF67A"
   id="stop3933" />
  </linearGradient>
  <linearGradient
   id="id4"
   gradientUnits="userSpaceOnUse"
   x1="16.1146"
   y1="28.8262"
   x2="15.9256"
   y2="10.8631">
   <stop
   offset="0"
   style="stop-color:#C88E3B"
   id="stop3936" />
   <stop
   offset="1"
   style="stop-color:#E9B760"
   id="stop3938" />
  </linearGradient>
  <linearGradient
   id="id5"
   gradientUnits="userSpaceOnUse"
   x1="15.7106"
   y1="29.5999"
   x2="16.2681"
   y2="12.088">
   <stop
   offset="0"
   style="stop-color:#743F0D"
   id="stop3941" />
   <stop
   offset="1"
   style="stop-color:#91591D"
   id="stop3943" />
  </linearGradient>
 </defs>
 <g
   id="Слой_x0020_1">
  <metadata
   id="CorelCorpID_0Corel-Layer" />
  <g
   id="_46767272">
   <path
   id="_46504072"
   class="fil0"
   d="M15.2641 27.0285c10.7994,-0.442935 14.8495,0.668537 16.2906,2.04459l0 2.41902c-2.14263,0.772479 -8.64137,0.10158 -15.7319,0.372066l-2.26783 0.0850436 -11.7254 0c-0.63074,-0.0767754 -1.13273,-0.181899 -1.48472,-0.320094l0 -2.02097c1.17171,-1.08903 4.64905,-2.1568 14.9192,-2.57965z" />
   <g
   id="g3949">
    <path
   id="_46498792"
   class="fil1"
   d="M15.2996 27.2624c10.8655,-0.428761 14.9098,0.757124 16.2551,2.14499l0 2.01506c-1.96781,0.800827 -8.55633,0.146464 -15.7165,0.401595l-3.61553 0.125203 -9.76229 0c-0.961465,-0.0826812 -1.68552,-0.211428 -2.11546,-0.403957l0 -1.62173c1.03942,-1.10793 4.39982,-2.24302 14.9547,-2.66115z" />
    <path
   id="_87954048"
   class="fil2"
   d="M15.3326 27.4998c10.9246,-0.414587 14.996,0.850436 16.2221,2.23948l0 1.61347c-1.75993,0.832718 -8.45357,0.196073 -15.7035,0.434667 -1.84025,0.0614203 -3.62616,0.119297 -5.29514,0.161819l-7.16256 0c-1.48708,-0.0744131 -2.55839,-0.226783 -3.04858,-0.490182l0 -1.22132c0.88587,-1.11738 4.14824,-2.32689 14.9877,-2.73793z" />
    <path
   id="_46539624"
   class="fil3"
   d="M15.3657 27.7372c10.9801,-0.398051 15.1224,0.94611 16.189,2.32452l0 1.21305c-1.49417,0.869334 -8.32482,0.250406 -15.6905,0.474827 -3.11826,0.095674 -6.09124,0.184261 -8.59294,0.199616l-1.52133 0c-2.83715,-0.022442 -4.84158,-0.177174 -5.40499,-0.59058l0 -0.805551c0.683892,-1.1162 3.86121,-2.41193 15.0208,-2.81589z" />
    <path
   id="_90011544"
   class="fil4"
   d="M15.4 27.9746c11.0722,-0.377971 15.3303,1.0595 16.1547,2.41665l0 0.789015c-1.11738,0.92603 -8.1382,0.323638 -15.6775,0.533885 -8.01063,0.223239 -15.1307,0.401595 -15.5323,-0.511442l0 -0.243319c0.250406,-1.11029 3.21512,-2.57965 15.0551,-2.98479z" />
    <path
   id="_46542312"
   class="fil5"
   d="M15.4342 28.2097c11.5399,-0.369703 15.9114,1.28628 16.1205,2.6269l0 0.154732c-0.262218,1.11265 -7.6988,0.484276 -15.6634,0.683892 -8.13111,0.204341 -15.4236,0.361435 -15.4236,-0.540972 0,-1.04887 3.18441,-2.54658 14.9665,-2.92455z" />
    <path
   id="_46513528"
   class="fil6"
   d="M15.4673 28.4447c11.1466,-0.329544 15.915,1.27683 15.9504,2.51705 0.0342537,1.06777 -7.49919,0.496087 -15.5145,0.674443 -8.01417,0.178355 -15.2925,0.311826 -15.2925,-0.485457 0,-0.974457 3.70884,-2.37531 14.8566,-2.70604z" />
    <path
   id="_46430544"
   class="fil7"
   d="M15.5016 28.6845c10.5135,-0.283479 15.7378,1.19533 15.7685,2.32334 0.029529,0.924849 -7.4543,0.439392 -15.3527,0.592943 -7.89606,0.153551 -15.1649,0.263399 -15.1649,-0.431124 0,-0.897682 4.23446,-2.20168 14.7492,-2.48516z" />
    <path
   id="_87717848"
   class="fil8"
   d="M15.5358 28.9195c9.87805,-0.236232 15.563,1.1162 15.5878,2.13081 0.0236232,0.781928 -7.41296,0.383877 -15.1944,0.511442 -7.77912,0.127565 -15.035,0.21379 -15.035,-0.375609 0,-0.823269 4.76126,-2.03041 14.6417,-2.26665z" />
    <path
   id="_46488328"
   class="fil9"
   d="M15.5689 29.1546c9.24494,-0.188986 15.387,1.03706 15.4059,1.9371 0.0212609,0.64137 -7.3669,0.329544 -15.0314,0.431124 -7.66337,0.102761 -14.9074,0.164181 -14.9074,-0.321276 0,-0.747675 5.28569,-1.85797 14.533,-2.04695z" />
    <path
   id="_87257944"
   class="fil10"
   d="M15.6019 29.392c8.61066,-0.140558 15.2122,0.957921 15.2275,1.74457 0.0153551,0.49845 -7.32674,0.274029 -14.8732,0.350805 -7.54407,0.0755943 -14.7775,0.113391 -14.7775,-0.266942 0,-0.673261 5.81131,-1.6867 14.4232,-1.82844z" />
    <path
   id="_91840776"
   class="fil11"
   d="M15.6362 29.6294c7.97756,-0.0944928 15.0374,0.876421 15.048,1.55086 0.00826812,0.355529 -7.2854,0.217334 -14.7137,0.269305 -7.4295,0.0507899 -14.6499,0.0637827 -14.6499,-0.212609 0,-0.597667 6.33811,-1.51307 14.3157,-1.60756z" />
    <path
   id="_46463288"
   class="fil12"
   d="M15.6705 29.8668c7.34327,-0.0472464 14.8602,0.797283 14.8649,1.35715 0.0059058,0.214971 -7.23933,0.163 -14.5519,0.188986 -7.31138,0.0248044 -14.52,0.0141739 -14.52,-0.157094 0,-0.523254 6.86254,-1.3418 14.207,-1.38904z" />
   </g>
   <path
   id="_46479608"
   class="fil13"
   d="M15.7012 30.1031c6.70899,0 14.6865,0.718146 14.6865,1.16462 0,0.145283 -28.7849,0.140558 -28.7849,0.00472464 0,-0.44766 7.38816,-1.16935 14.0983,-1.16935z" />
  </g>
  <polygon
   class="fil14"
   points="6.93105,6.73143 4.28525,6.8023 3.00487,8.42049 2.6458,25.5851 6.29559,27.5482 7.04562,9.7493 "
   id="polygon3964" />
  <polygon
   class="fil14"
   points="24.7418,6.77986 28.251,7.35981 29.5314,9.12801 29.8893,26.2926 26.2395,28.2557 24.8989,11.0557 "
   id="polygon3966" />
  <polygon
   class="fil15"
   points="4.97859,7.26532 3.68995,7.48501 2.63044,9.1032 2.30799,24.5469 4.24745,24.5469 4.86284,10.0021 "
   id="polygon3968" />
  <polygon
   class="fil15"
   points="27.1596,6.99129 28.1506,7.48501 29.431,9.1032 29.7534,24.5469 27.5931,24.5469 27.1844,10.634 "
   id="polygon3970" />
  <rect
   class="fil16"
   x="2.15895"
   y="13.9668"
   width="28.7138"
   height="14.6606"
   id="rect3972" />
  <polygon
   class="fil17"
   points="4.06555,19.1785 29.1262,19.1785 29.027,19.1584 4.09863,19.1584 "
   id="polygon3974" />
  <polygon
   class="fil18"
   points="3.99823,19.1124 10.4119,18.8454 28.9432,18.1828 29.0589,19.1596 3.99823,19.1596 "
   id="polygon3976" />
  <polygon
   class="fil19"
   points="30.8484,21.0128 30.7066,28.6443 2.15916,29.4451 2.10837,21.464 "
   id="polygon3978" />
  <polygon
   class="fil20"
   points="2.72257,24.1984 28.4825,23.8276 28.3679,24.3862 2.75565,24.2634 "
   id="polygon3980" />
  <polygon
   class="fil21"
   points="3.9061,22.2613 4.48723,22.0334 29.4948,21.6956 29.4274,22.9098 3.87184,22.2578 "
   id="polygon3982" />
  <polygon
   class="fil20"
   points="3.9061,22.2613 4.45416,22.233 29.4274,22.3948 29.3766,22.709 3.87184,22.2578 "
   id="polygon3984" />
  <polygon
   class="fil20"
   points="29.7156,23.0563 3.95453,22.6854 4.0691,23.2441 29.6826,23.1212 "
   id="polygon3986" />
  <polygon
   class="fil22"
   points="4.02185,22.9889 29.5491,22.4184 29.5007,22.6759 3.98878,22.9866 "
   id="polygon3988" />
  <polygon
   class="fil22"
   points="29.2491,24.9922 3.72184,24.4217 3.77026,24.6792 29.2821,24.991 "
   id="polygon3990" />
  <polygon
   class="fil23"
   points="3.85058,19.8695 29.581,19.8695 29.5928,21.9731 3.762,21.9743 "
   id="polygon3992" />
  <polygon
   class="fil24"
   points="30.9901,25.0973 30.6736,28.8274 1.95955,28.8274 2.2761,25.0973 "
   id="polygon3994" />
  <polygon
   class="fil25"
   points="29.2597,26.0647 28.7459,26.3316 3.30607,26.0824 3.42182,26.3647 28.929,25.8958 "
   id="polygon3996" />
  <polygon
   class="fil25"
   points="29.5928,27.1998 29.079,27.4667 3.63916,27.2175 3.65451,27.7667 29.2621,27.0309 "
   id="polygon3998" />
  <polygon
   class="fil26"
   points="2.60918,26.5655 3.18913,26.5324 29.6282,26.3836 29.6117,26.7651 2.57257,26.5631 "
   id="polygon4000" />
  <polygon
   class="fil25"
   points="29.5266,25.4635 28.9455,25.2308 2.37413,25.3146 2.05876,26.4285 29.5621,25.4611 "
   id="polygon4002" />
  <polygon
   class="fil27"
   points="2.26428,27.1431 29.5373,26.9895 29.4121,27.4136 2.29854,27.208 "
   id="polygon4004" />
  <polygon
   class="fil28"
   points="2.16507,25.1977 29.5042,25.0855 29.5125,25.7339 2.31507,25.8804 "
   id="polygon4006" />
  <polygon
   class="fil29"
   points="2.48044,26.1107 13.1416,25.8072 29.2774,25.7883 29.3495,25.9784 2.37413,26.1072 "
   id="polygon4008" />
  <polygon
   class="fil30"
   points="4.24273,9.92293 1.00044,15.6527 30.6818,14.9984 27.7147,10.4993 19.8529,10.5206 "
   id="polygon4010" />
  <path
   class="fil31"
   d="M4.37266 10.6659l-2.78163 4.61479 28.7648 -0.246863 -2.83124 -3.99114 -7.82164 -0.00354348 -0.00236232 0 -15.3279 -0.373247zm-3.34387 4.73527l3.02141 -5.06009 0.0637827 -0.115754 0.13229 0.00118116 15.3102 0.251587 8.10985 -0.0472464 0.115754 0 0.066145 0.0992175 3.09464 4.5959 0.0460653 0.283479 -0.225602 0.0555145 -29.5373 0.258674 -0.373247 0.0059058 0.175993 -0.328363z"
   id="path4012" />
  <polygon
   class="fil32"
   points="28.6691,13.4451 28.6691,13.5101 28.6691,13.6932 4.00295,13.6932 4.00295,13.5101 4.00295,13.4451 4.00295,13.2621 28.6691,13.2621 "
   id="polygon4014" />
  <g
   id="_46673816">
   <g
   id="g4017">
    <path
   id="_46716704"
   class="fil33"
   d="M17.5414 9.39377c3.31079,0 5.93297,1.15281 5.93297,2.55721 0,1.40558 -2.72848,2.53359 -6.03691,2.53359 -3.31079,0 -5.9873,-1.06304 -5.89045,-2.54658 0.0944928,-1.48354 2.68478,-2.54422 5.99439,-2.54422z" />
    <path
   id="_46715192"
   class="fil34"
   d="M17.4044 9.46228c3.23992,0 5.74516,1.1351 5.74516,2.49934 0,1.36542 -2.71549,2.45327 -5.95541,2.45327 -3.23992,0 -5.84911,-0.957921 -5.65776,-2.48044 0.191348,-1.52133 2.62808,-2.47217 5.86801,-2.47217z" />
    <path
   id="_46713816"
   class="fil35"
   d="M17.2686 9.53078c3.16905,0 5.55382,1.1162 5.55382,2.44264 0,1.32526 -2.70013,2.36941 -5.87037,2.36941 -3.16905,0 -5.71209,-0.849254 -5.42389,-2.41075 0.287022,-1.56149 2.57021,-2.4013 5.74044,-2.4013z" />
    <path
   id="_46712440"
   class="fil36"
   d="M17.1316 9.59929c3.09818,0 5.36483,1.09848 5.36483,2.38358 0,1.28746 -2.68596,2.28909 -5.78532,2.28909 -3.09818,0 -5.5739,-0.74295 -5.1912,-2.34342 0.382696,-1.59929 2.51233,-2.32925 5.61169,-2.32925z" />
    <path
   id="_46711064"
   class="fil37"
   d="M16.9969 9.6678c3.0285,0 5.17466,1.0784 5.17466,2.32689 0,1.24612 -2.67297,2.20641 -5.70146,2.20641 -3.0285,0 -5.43688,-0.636646 -4.95969,-2.27492 0.47837,-1.63945 2.45681,-2.25838 5.48649,-2.25838z" />
    <path
   id="_46709688"
   class="fil38"
   d="M16.8599 9.73512c2.95881,0 4.98686,1.06068 4.98686,2.26901 0,1.20833 -2.65997,2.12491 -5.6176,2.12491 -2.95763,0 -5.30105,-0.52916 -4.727,-2.20641 0.572863,-1.67843 2.39894,-2.18751 5.35774,-2.18751z" />
    <path
   id="_46708312"
   class="fil39"
   d="M16.7241 9.80481c2.88676,0 4.79551,1.04296 4.79551,2.21113 0,1.16699 -2.64462,2.04223 -5.53256,2.04223 -2.88676,0 -5.16403,-0.422855 -4.49313,-2.13908 0.668537,-1.71623 2.34106,-2.11428 5.23018,-2.11428z" />
    <path
   id="_46706936"
   class="fil40"
   d="M16.5859 9.87214c2.81943,0 4.60771,1.02525 4.60771,2.15326 0,1.12801 -2.63163,1.96191 -5.44751,1.96191 -2.81707,0 -5.02702,-0.316551 -4.26281,-2.07057 0.766573,-1.7552 2.28673,-2.04459 5.10261,-2.04459z" />
    <path
   id="_46705560"
   class="fil41"
   d="M16.45 9.94183c2.7462,0 4.41754,1.00517 4.41754,2.0942 0,1.08903 -2.61627,1.88041 -5.36247,1.88041 -2.74738,0 -4.89119,-0.209065 -4.03012,-2.00325 0.862247,-1.793 2.22767,-1.97136 4.97505,-1.97136z" />
    <path
   id="_46704184"
   class="fil42"
   d="M16.3154 10.0092c2.67415,0 4.22619,0.988631 4.22619,2.03632 0,1.05123 -2.6021,1.80009 -5.27861,1.80009 -2.67651,0 -4.75417,-0.10158 -3.79625,-1.93474 0.955559,-1.83434 2.17097,-1.90167 4.84866,-1.90167z" />
    <path
   id="_46702808"
   class="fil43"
   d="M16.1772 10.0788c2.60564,0 4.03839,0.968552 4.03839,1.97844 0,1.00989 -2.58792,1.71741 -5.19474,1.71741 -2.60564,0 -4.61598,0.00472464 -3.56356,-1.86623 1.05241,-1.87332 2.11428,-1.82962 4.71992,-1.82962z" />
    <path
   id="_46689448"
   class="fil44"
   d="M16.0413 10.1462c2.53595,0 3.8494,0.950834 3.8494,1.92175 0,0.969733 -2.57493,1.63473 -5.11088,1.63473 -2.53595,0 -4.47778,0.11221 -3.33087,-1.79891 1.14691,-1.90994 2.0564,-1.75757 4.59235,-1.75757z" />
    <path
   id="_46689344"
   class="fil45"
   d="M15.9055 10.2159c2.46508,0 3.65805,0.930754 3.65805,1.86269 0,0.930754 -2.56076,1.55323 -5.02466,1.55323 -2.46626,0 -4.34195,0.219696 -3.09818,-1.7304 1.24376,-1.9501 1.99852,-1.68552 4.46479,-1.68552z" />
    <path
   id="_46687968"
   class="fil46"
   d="M15.7685 10.2832c2.39539,0 3.47025,0.914218 3.47025,1.80481 0,0.892957 -2.54658,1.47291 -4.94198,1.47291 -2.39421,0 -4.20493,0.326 -2.86313,-1.66189 1.33707,-1.99026 1.93947,-1.61583 4.33486,-1.61583z" />
    <path
   id="_46686608"
   class="fil47"
   d="M15.6327 10.3517c2.32334,0 3.28008,0.896501 3.28008,1.74812 0,0.851617 -2.53241,1.38904 -4.85693,1.38904 -2.32334,0 -4.0691,0.433486 -2.63399,-1.59339 1.43629,-2.02805 1.88631,-1.54378 4.21084,-1.54378z" />
    <path
   id="_46694616"
   class="fil48"
   d="M15.4968 10.4214c2.25365,0 3.08992,0.877602 3.08992,1.68906 0,0.812638 -2.51823,1.30754 -4.77307,1.30754 -2.25365,0 -3.9309,0.540972 -2.40012,-1.52488 1.53078,-2.06703 1.82844,-1.47173 4.08327,-1.47173z" />
   </g>
   <path
   id="_46673936"
   class="fil49"
   d="M15.3586 10.4899c2.18397,0 2.89975,0.858704 2.89975,1.63118 0,0.77366 -2.50288,1.22604 -4.68448,1.22604 -2.18515,0 -3.79625,0.648457 -2.16979,-1.45755 1.62764,-2.10483 1.77174,-1.39968 3.95453,-1.39968z" />
  </g>
  <path
   class="fil50"
   d="M18.4993 0.604754l3.40056 4.90418c-0.357892,2.99542 -4.96324,6.41606 -7.77794,7.16964 -4.31596,1.15399 -6.71608,0.597667 -11.7065,1.08076l1.98317 -3.77617c3.41946,-0.288203 3.90374,0.497269 6.76687,-0.879965 2.37413,-1.14336 6.62513,-5.26561 6.9783,-8.47955l0.355529 -0.0188986z"
   id="path4036" />
  <g
   id="_87407552">
   <path
   id="_87224896"
   class="fil51"
   d="M14.9901 11.7301c-0.716964,-1.17762 -1.38786,-2.32925 -2.00797,-3.4419 1.50952,-0.842167 3.55766,-2.56548 4.97032,-4.48014l2.88558 4.97977c0.0283479,0.0944928 0.0531522,0.186623 0.0767754,0.278754 -1.53787,1.46346 -3.5234,2.66942 -5.06954,3.16551 -0.283479,-0.158276 -0.568138,-0.326 -0.85516,-0.501993z" />
   <g
   id="g4040">
    <path
   id="_46843784"
   class="fil52"
   d="M15.4661 12.0159c-0.822088,-1.31699 -1.58748,-2.60328 -2.28673,-3.84113 1.47645,-0.870515 3.39466,-2.51115 4.7459,-4.32895l0.205522 0.271667 2.70722 4.67031c0.0283479,0.0944928 0.0531522,0.186623 0.0767754,0.278754 -1.53787,1.46346 -3.52104,2.66942 -5.06954,3.16551l-0.379153 -0.216152z" />
    <path
   id="_88032248"
   class="fil53"
   d="M15.9067 12.2132c-0.915399,-1.42448 -1.76347,-2.82061 -2.52886,-4.15768 1.41031,-0.874059 3.16433,-2.39185 4.44707,-4.07737 0.640189,0.995718 1.28865,2.01388 1.91466,2.91629l1.09848 1.8934c0.0283479,0.0944928 0.0531522,0.186623 0.0767754,0.278754 -1.51779,1.44338 -3.46907,2.63871 -5.00812,3.14661z" />
    <path
   id="_87516280"
   class="fil54"
   d="M20.6219 8.84453l0.199616 0.309464c-1.41621,1.32408 -3.18559,2.42492 -4.6455,2.96471l-0.375609 -0.577587c-0.800827,-1.23431 -1.54496,-2.445 -2.22413,-3.61199 1.26266,-0.817363 2.76155,-2.11428 3.94508,-3.5671 1.0158,1.37369 2.06231,2.88085 3.10055,4.4825z" />
    <path
   id="_87517112"
   class="fil55"
   d="M19.7431 8.17363c0.270486,0.41695 0.533885,0.832718 0.790196,1.24258 -1.27093,1.12446 -2.77809,2.06467 -4.07973,2.59383 -0.321276,-0.474827 -0.643732,-0.961465 -0.966189,-1.45873 -0.607116,-0.93666 -1.1788,-1.85915 -1.71032,-2.75447 1.14218,-0.771298 2.44736,-1.90521 3.53167,-3.1785 0.800827,1.10439 1.61937,2.29736 2.43437,3.55529z" />
    <path
   id="_87517992"
   class="fil56"
   d="M18.8655 7.50037c0.479551,0.739406 0.934298,1.46936 1.36188,2.18042 -1.10675,0.927211 -2.3576,1.70796 -3.4856,2.20641 -0.519711,-0.739406 -1.04296,-1.51661 -1.56504,-2.32334 -0.41695,-0.644914 -0.817363,-1.28274 -1.1977,-1.90639 1.01462,-0.709877 2.13554,-1.68788 3.10763,-2.78281 0.588218,0.829175 1.1847,1.70796 1.77883,2.62572z" />
    <path
   id="_87518872"
   class="fil57"
   d="M17.9891 6.82947c0.696885,1.07604 1.33707,2.12727 1.90521,3.12063 -0.918943,0.728776 -1.91466,1.35125 -2.84542,1.79536 -0.713421,-0.970914 -1.44928,-2.0375 -2.18397,-3.17142 -0.231507,-0.357892 -0.45829,-0.713421 -0.676805,-1.06541 0.876421,-0.635464 1.81662,-1.45991 2.66588,-2.37768 0.375609,0.546877 0.755943,1.11265 1.1351,1.69851z" />
    <path
   id="_87519752"
   class="fil58"
   d="M17.1103 6.15621c0.940204,1.44928 1.75993,2.84423 2.41429,4.07855 -0.701609,0.522073 -1.43393,0.981544 -2.14144,1.34534 -0.890595,-1.13628 -1.86151,-2.49934 -2.82888,-3.99468l-0.15237 -0.235051c0.728776,-0.546877 1.49535,-1.21896 2.20523,-1.95836 0.167725,0.251587 0.33545,0.505537 0.503174,0.764211z" />
    <path
   id="_87520632"
   class="fil59"
   d="M16.3461 5.65776c1.1977,1.86269 2.16034,3.60254 2.74029,4.89237 -0.433486,0.301196 -0.874059,0.575225 -1.30873,0.818544 -0.894138,-1.00044 -2.01152,-2.47335 -3.15252,-4.18721 0.570501,-0.445298 1.15872,-0.962646 1.72095,-1.5237z" />
   </g>
   <path
   id="_87257736"
   class="fil60"
   d="M16.0626 5.93533c1.49771,2.45445 2.38594,4.42817 2.04341,4.61952 -0.329544,0.184261 -1.69024,-1.33471 -3.24583,-3.5612 0.401595,-0.323638 0.806733,-0.677986 1.20242,-1.05832z" />
  </g>
  <path
   class="fil61"
   d="M18.3517 0.643732l3.52222 4.73291 0.0177174 0.0803189c-0.166544,1.39495 -1.34652,2.89148 -2.72021,4.1565 -1.63236,1.50716 -3.78562,2.70368 -5.33412,3.11708 -2.95526,0.791378 -4.20966,0.693341 -7.22752,0.868153 -1.40322,0.0803189 -2.8714,0.0637827 -4.44943,0.217334l-0.219696 0.0212609 0.0980363 -0.199616 0.146464 -0.297652 0.287022 -0.0259855 -0.114573 0.235051c1.50716,-0.140558 2.83597,-0.0212609 4.17186,-0.0980363 5.10734,-0.26458 10.7627,-0.592943 14.2365,-7.98228l-2.33515 -4.22855 -0.251587 -0.0815001c-0.0106304,-0.144102 0.0767754,-0.574044 0.0519711,-0.715783l0.120478 0.200797z"
   id="path4051" />
  <path
   class="fil62"
   d="M18.7179 0.419312l3.39938 4.90418 0.0566957 0.22442c-1.82253,7.97756 -10.8738,8.78547 -15.2878,8.27049 -1.4044,0.0803189 -2.87613,0.114573 -4.43998,0.265761l-0.601211 0.059058 0.281116 -0.536247 1.98317 -3.37812 0.0838624 -0.158276 0.178355 -0.0153551c0.928392,-0.0779566 1.7682,-0.103942 2.54186,-0.127565 1.97018,-0.0578769 1.94419,-0.251587 3.95689,-1.22014 2.70604,-1.30164 6.34992,-5.06954 6.696,-8.2197l0.0307102 -0.277573 0.47837 0.0862247 0.35671 -0.0188986 0.180718 -0.00944928 0.105123 0.151189zm2.78872 5.16994l-3.12063 -4.85575 -0.251587 0.00236232c-0.631921,3.25882 -3.99468,7.27359 -6.8779,8.66145 -2.1379,1.02879 -2.2761,0.724051 -4.32423,0.785472 -0.700428,0.0212609 -1.45519,0.0448841 -2.32807,0.113391l-1.61937 3.08165c1.37251,-0.120478 2.64462,-0.19371 3.86594,-0.263399 2.9907,-0.172449 4.22147,0.0271667 7.13657,-0.752399 1.48708,-0.399232 3.49742,-1.57212 5.07899,-3.02968 1.26148,-1.16226 2.24184,-2.49815 2.44028,-3.7431z"
   id="path4053" />
  <polygon
   class="fil63"
   points="3.17968,13.4475 29.7085,13.4475 29.6778,15.7023 3.14897,15.7023 "
   id="polygon4055" />
  <polygon
   class="fil64"
   points="29.1428,14.7054 28.5593,14.4775 17.0052,14.6275 3.55293,14.5389 3.67105,15.1531 29.1758,14.7031 "
   id="polygon4057" />
  <polygon
   class="fil64"
   points="29.1428,14.7054 28.5935,14.6771 3.61908,14.8389 3.67105,15.1531 29.1758,14.7031 "
   id="polygon4059" />
  <polygon
   class="fil65"
   points="3.33323,15.5016 29.0932,15.1307 28.9786,15.6882 18.0044,15.4685 3.38639,15.8795 3.36513,15.5653 "
   id="polygon4061" />
  <polygon
   class="fil66"
   points="3.53285,15.4342 29.092,14.5956 28.9786,15.1555 25.4965,15.1933 23.5653,15.5535 21.0341,15.2417 3.4986,15.4319 "
   id="polygon4063" />
  <polygon
   class="fil67"
   points="19.7006,22.8732 8.71933,25.9099 7.92795,22.8814 "
   id="polygon4065" />
  <polygon
   class="fil68"
   points="19.7006,22.8732 8.6142,24.6709 7.92795,22.8814 "
   id="polygon4067" />
  <polygon
   class="fil69"
   points="3.81515,15.8665 28.8746,15.8665 28.8746,16.1134 3.81515,16.1134 "
   id="polygon4069" />
  <polygon
   class="fil18"
   points="4.14824,17.493 29.1758,17.7942 29.0424,18.2915 4.14824,17.5402 "
   id="polygon4071" />
  <polygon
   class="fil18"
   points="29.0754,18.7946 3.74782,18.7119 4.01476,19.0427 29.0754,18.8419 "
   id="polygon4073" />
  <polygon
   class="fil70"
   points="28.6739,18.7686 27.8718,18.321 3.39702,18.2572 3.51395,19.1655 28.7069,18.7663 "
   id="polygon4075" />
  <polygon
   class="fil17"
   points="3.93208,17.2768 28.9928,17.2768 29.092,17.2568 3.84822,17.591 "
   id="polygon4077" />
  <polygon
   class="fil69"
   points="3.34859,17.0087 12.8581,17.0087 16.489,17.2426 20.4175,17.0087 28.4105,17.043 28.4105,17.2568 20.5841,17.2568 16.4229,17.2568 13.0258,17.2568 3.34859,17.2568 "
   id="polygon4079" />
  <g
   id="_46553024">
   <path
   id="_46582624"
   class="fil71"
   d="M29.1983 13.353l0.181899 14.0038c0.0106304,0.896501 -0.663812,1.73631 -1.47409,1.73158l-23.4543 -0.120478c-0.810276,-0.00472464 -1.84734,-0.451203 -1.85915,-1.34889l-0.18308 -13.5704 0.660269 -2.65289 1.94301 2.65289 0.0330725 12.0927c0,0.565776 0.61066,1.02997 0.927211,1.02761l20.1093 -0.178355c0.510261,-0.00472464 0.923668,-0.461834 0.928392,-1.02879l-0.0318913 -12.525 1.18943 -1.25203 1.02997 1.16817z" />
   <g
   id="g4083">
    <path
   id="_46580984"
   class="fil72"
   d="M29.1865 13.353c0.0602392,4.66677 0.12166,9.33471 0.181899,14.0027 0.0118116,0.897682 -0.662631,1.73631 -1.47409,1.73276 -7.81456,-0.0413406 -15.6279,-0.0826812 -23.4413,-0.122841 -0.810276,-0.00354348 -1.84852,-0.450022 -1.85915,-1.3477 -0.0614203,-4.52384 -0.12166,-9.04533 -0.18308,-13.5692 0.216152,-0.879965 0.433486,-1.75875 0.649638,-2.63871 0.640189,0.878783 1.2792,1.75757 1.92057,2.63517 0.00708696,4.04784 0.0153551,8.09686 0.0236232,12.1459 0,0.564595 0.598848,1.02997 0.915399,1.02761 6.7338,-0.0555145 13.4664,-0.113391 20.2002,-0.168906 0.499631,-0.00472464 0.90595,-0.463015 0.928392,-1.02761 -0.00826812,-4.19312 -0.0165362,-8.38742 -0.0236232,-12.5794 0.388602,-0.420493 0.778385,-0.840986 1.16817,-1.26148 0.330725,0.389783 0.662631,0.780747 0.993356,1.17171z" />
    <path
   id="_46579312"
   class="fil73"
   d="M29.1758 13.353c0.0602392,4.66677 0.120478,9.33471 0.181899,14.0027 0.0106304,0.897682 -0.663812,1.73631 -1.47527,1.73276 -7.80983,-0.0413406 -15.6197,-0.0826812 -23.4295,-0.122841 -0.810276,-0.00354348 -1.84852,-0.450022 -1.85915,-1.3477 -0.0614203,-4.52384 -0.12166,-9.04533 -0.18308,-13.5692 0.21379,-0.87524 0.426399,-1.7493 0.639008,-2.62454 0.633102,0.872878 1.26502,1.74576 1.89694,2.61863 0.00472464,4.06555 0.0106304,8.13229 0.0153551,12.1978 0,0.564595 0.587037,1.02997 0.904769,1.02761 6.76332,-0.0531522 13.5255,-0.105123 20.29,-0.159457 0.490182,-0.00472464 0.889414,-0.461834 0.928392,-1.02761 -0.0059058,-4.21084 -0.0106304,-8.42167 -0.0153551,-12.6313 0.381515,-0.422855 0.764211,-0.848073 1.14691,-1.27093 0.318913,0.390964 0.639008,0.783109 0.959102,1.17407z" />
    <path
   id="_46577672"
   class="fil74"
   d="M29.1629 13.353c0.0614203,4.66677 0.12166,9.33471 0.181899,14.0027 0.0129928,0.897682 -0.662631,1.73631 -1.47409,1.73276 -7.80511,-0.0413406 -15.6114,-0.0826812 -23.4177,-0.122841 -0.810276,-0.00354348 -1.84852,-0.450022 -1.85915,-1.3477 -0.0614203,-4.52384 -0.12166,-9.04533 -0.18308,-13.5692 0.210247,-0.869334 0.419312,-1.73985 0.628377,-2.60918 0.626015,0.866972 1.25085,1.73394 1.8745,2.59973 0.00236232,4.08445 0.00472464,8.16772 0.0059058,12.251 0.00118116,0.565776 0.576406,1.03115 0.892957,1.02761 6.79404,-0.0496087 13.5857,-0.0992175 20.3797,-0.148826 0.480732,-0.00354348 0.872878,-0.463015 0.928392,-1.02761 -0.00236232,-4.22855 -0.00472464,-8.45711 -0.0059058,-12.6845 0.374428,-0.42758 0.750037,-0.853979 1.12446,-1.28156 0.308283,0.393326 0.616566,0.784291 0.923668,1.17762z" />
    <path
   id="_46576032"
   class="fil75"
   d="M29.151 13.353c0.0602392,4.66677 0.12166,9.33471 0.181899,14.0027 0.0118116,0.897682 -0.662631,1.73631 -1.47409,1.73276 -7.80157,-0.0413406 -15.6031,-0.0826812 -23.4059,-0.122841 -0.810276,-0.00354348 -1.84852,-0.450022 -1.85915,-1.3477 -0.0614203,-4.52384 -0.12166,-9.04533 -0.18308,-13.5692 0.206703,-0.864609 0.413406,-1.72922 0.618928,-2.59501 0.617747,0.861066 1.23431,1.72331 1.85206,2.5832 -0.00236232,4.10099 -0.00236232,8.20316 -0.00472464,12.3041 0,0.564595 0.564595,1.03115 0.882327,1.02761 6.82356,-0.0460653 13.6459,-0.0933117 20.4695,-0.139377 0.470102,-0.00354348 0.856341,-0.461834 0.928392,-1.02879 0,-4.24509 0.00236232,-8.49136 0.00236232,-12.7376 0.368522,-0.428761 0.735863,-0.859885 1.1032,-1.29101 0.296471,0.394508 0.592943,0.787834 0.888233,1.18116z" />
    <path
   id="_46574256"
   class="fil76"
   d="M29.1392 13.353c0.0602392,4.66677 0.12166,9.33471 0.181899,14.0027 0.0118116,0.897682 -0.662631,1.73631 -1.47291,1.73276 -7.80038,-0.0413406 -15.5972,-0.0826812 -23.3952,-0.122841 -0.810276,-0.00354348 -1.84852,-0.450022 -1.85915,-1.3477 -0.0614203,-4.52384 -0.12166,-9.04533 -0.18308,-13.5692 0.20316,-0.859885 0.406319,-1.71977 0.609479,-2.57965 0.609479,0.85516 1.21778,1.71032 1.82726,2.56548 -0.00472464,4.11753 -0.00826812,8.23741 -0.0118116,12.3573 -0.00118116,0.564595 0.552783,1.02879 0.869334,1.02761 6.85427,-0.0437029 13.7062,-0.088587 20.5593,-0.131109 0.460653,-0.00236232 0.839805,-0.461834 0.928392,-1.02643 0.00472464,-4.26399 0.00708696,-8.52798 0.0118116,-12.792 0.361435,-0.433486 0.721689,-0.866972 1.08312,-1.30046 0.283479,0.394508 0.568138,0.789015 0.851617,1.18352z" />
    <path
   id="_46572616"
   class="fil77"
   d="M29.1286 13.353c0.0602392,4.66677 0.120478,9.33471 0.181899,14.0027 0.0106304,0.897682 -0.663812,1.73631 -1.47527,1.73276 -7.79448,-0.0413406 -15.5878,-0.0826812 -23.3823,-0.122841 -0.810276,-0.00354348 -1.84852,-0.450022 -1.85915,-1.3477 -0.0614203,-4.52384 -0.12166,-9.04533 -0.18308,-13.5692 0.199616,-0.85516 0.399232,-1.70914 0.598848,-2.56548 0.602392,0.849254 1.20242,1.69851 1.80481,2.54776 -0.00708696,4.13642 -0.0141739,8.27403 -0.0212609,12.4105 0,0.564595 0.540972,1.02879 0.857523,1.02643 6.88498,-0.0389783 13.7664,-0.0791378 20.6502,-0.118116 0.451203,-0.00472464 0.823269,-0.463015 0.928392,-1.02879 0.0059058,-4.28171 0.0129928,-8.56341 0.0200797,-12.8439 0.354348,-0.435848 0.707515,-0.872878 1.06068,-1.31109 0.271667,0.395689 0.545696,0.791378 0.818544,1.18707z" />
    <path
   id="_46570944"
   class="fil78"
   d="M29.1168 13.353c0.059058,4.66677 0.120478,9.33471 0.181899,14.0027 0.0106304,0.897682 -0.663812,1.73631 -1.47409,1.73276 -7.79093,-0.0413406 -15.5807,-0.0826812 -23.3716,-0.122841 -0.810276,-0.00354348 -1.84852,-0.450022 -1.85915,-1.3477 -0.0614203,-4.52384 -0.12166,-9.04533 -0.18308,-13.5692 0.196073,-0.850436 0.392145,-1.70087 0.588218,-2.55013 0.594124,0.843349 1.18825,1.6867 1.78237,2.52886 -0.0106304,4.15414 -0.0188986,8.30946 -0.029529,12.4636 -0.00236232,0.565776 0.52916,1.03115 0.845711,1.02761 6.91333,-0.036616 13.8255,-0.073232 20.74,-0.109848 0.440573,-0.00354348 0.805551,-0.463015 0.927211,-1.02761 0.0106304,-4.29942 0.0200797,-8.59885 0.029529,-12.8959 0.347261,-0.440573 0.693341,-0.881146 1.03942,-1.32172 0.259855,0.395689 0.522073,0.79374 0.783109,1.18943z" />
    <path
   id="_46569304"
   class="fil79"
   d="M29.1038 13.353c0.0602392,4.66677 0.120478,9.33471 0.18308,14.0027 0.0106304,0.897682 -0.663812,1.73631 -1.47409,1.73276 -7.78739,-0.0413406 -15.5724,-0.0826812 -23.3598,-0.122841 -0.810276,-0.00354348 -1.84852,-0.450022 -1.85915,-1.3477 -0.0614203,-4.52384 -0.12166,-9.04533 -0.18308,-13.5692 0.192529,-0.84453 0.385058,-1.69024 0.577587,-2.53477 0.587037,0.836262 1.17407,1.67489 1.75875,2.51115 -0.0118116,4.17186 -0.0248044,8.34372 -0.0389783,12.5156 0,0.565776 0.518529,1.03115 0.83508,1.02879 6.94404,-0.0330725 13.8869,-0.0673261 20.8309,-0.10158 0.429942,-0.00118116 0.789015,-0.461834 0.927211,-1.02643 0.0129928,-4.31832 0.0259855,-8.63428 0.0389783,-12.9502 0.338993,-0.442935 0.677986,-0.887052 1.01698,-1.33117 0.249225,0.39687 0.49845,0.794921 0.746493,1.19297z" />
    <path
   id="_46567664"
   class="fil80"
   d="M29.092 13.353c0.0614203,4.66677 0.12166,9.33471 0.18308,14.0027 0.0118116,0.897682 -0.663812,1.73631 -1.47527,1.73276 -7.78267,-0.0413406 -15.5642,-0.0826812 -23.3468,-0.122841 -0.810276,-0.00354348 -1.84852,-0.450022 -1.85915,-1.3477 -0.0614203,-4.52384 -0.12166,-9.04533 -0.18308,-13.5692 0.188986,-0.839805 0.377971,-1.67961 0.566957,-2.5206 0.57995,0.831537 1.15754,1.66307 1.73631,2.49461 -0.0141739,4.18958 -0.0307102,8.37915 -0.0460653,12.5687 -0.00236232,0.564595 0.504356,1.02997 0.822088,1.02761 6.97239,-0.029529 13.946,-0.0602392 20.9195,-0.0897682 0.421674,-0.00236232 0.772479,-0.463015 0.928392,-1.02879 0.0153551,-4.33486 0.0307102,-8.66854 0.0484276,-13.0022 0.330725,-0.446479 0.662631,-0.894138 0.994537,-1.34062 0.236232,0.399232 0.474827,0.797283 0.711059,1.19533z" />
    <path
   id="_46566024"
   class="fil81"
   d="M29.0814 13.353c0.0602392,4.66677 0.120478,9.33471 0.181899,14.0027 0.0106304,0.897682 -0.663812,1.73631 -1.47409,1.73276 -7.77912,-0.0413406 -15.5571,-0.0826812 -23.3362,-0.122841 -0.810276,-0.00354348 -1.84852,-0.450022 -1.85915,-1.3477 -0.0614203,-4.52384 -0.12166,-9.04533 -0.18308,-13.5692 0.186623,-0.83508 0.370884,-1.67016 0.557508,-2.50642 0.571682,0.826812 1.14218,1.65126 1.71268,2.47807 -0.0177174,4.20611 -0.0377971,8.41341 -0.0566957,12.6219 -0.00118116,0.564595 0.493725,1.02879 0.811457,1.02643 7.0031,-0.0271667 14.0062,-0.0531522 21.0105,-0.0803189 0.412225,-0.00118116 0.755943,-0.461834 0.928392,-1.02761 0.0188986,-4.35258 0.036616,-8.70515 0.0566957,-13.0565 0.323638,-0.450022 0.648457,-0.898863 0.973276,-1.34889 0.22442,0.399232 0.451203,0.797283 0.676805,1.1977z" />
    <path
   id="_46564384"
   class="fil82"
   d="M29.0695 13.353c0.0602392,4.66677 0.120478,9.33471 0.181899,14.0027 0.0118116,0.897682 -0.662631,1.73631 -1.47409,1.73276 -7.7744,-0.0413406 -15.5488,-0.0826812 -23.3244,-0.122841 -0.810276,-0.00354348 -1.84852,-0.450022 -1.85915,-1.3477 -0.0614203,-4.52384 -0.12166,-9.04533 -0.18308,-13.5692 0.18308,-0.830356 0.364979,-1.65953 0.546877,-2.49107 0.563414,0.819725 1.12683,1.63945 1.69024,2.45918 -0.0212609,4.22501 -0.0425218,8.44884 -0.0649638,12.675 -0.00236232,0.564595 0.481913,1.02997 0.798464,1.02761 7.03381,-0.0236232 14.0664,-0.0484276 21.1014,-0.0708696 0.401595,-0.00236232 0.739406,-0.463015 0.927211,-1.02761 0.0212609,-4.37029 0.0437029,-8.74059 0.0649638,-13.1097 0.317732,-0.452384 0.635464,-0.90595 0.953197,-1.35952 0.21379,0.400413 0.42758,0.800827 0.64137,1.20124z" />
    <path
   id="_46562744"
   class="fil83"
   d="M29.0577 13.353c0.0602392,4.66677 0.12166,9.33471 0.181899,14.0027 0.0118116,0.897682 -0.663812,1.73631 -1.47409,1.73276 -7.77204,-0.0413406 -15.5417,-0.0826812 -23.3126,-0.122841 -0.810276,-0.00354348 -1.84852,-0.450022 -1.85915,-1.3477 -0.0614203,-4.52384 -0.12166,-9.04533 -0.18308,-13.5692 0.179536,-0.825631 0.357892,-1.65126 0.536247,-2.47689 0.556327,0.815001 1.11147,1.62882 1.6678,2.44146 -0.0248044,4.24273 -0.0484276,8.48546 -0.0744131,12.7282 -0.00236232,0.564595 0.470102,1.02997 0.787834,1.02761 7.06334,-0.0200797 14.1267,-0.0401595 21.19,-0.0602392 0.392145,-0.00236232 0.72287,-0.463015 0.928392,-1.02879 0.0236232,-4.38801 0.0496087,-8.77484 0.0744131,-13.1617 0.309464,-0.455928 0.620109,-0.913037 0.930754,-1.37015 0.200797,0.401595 0.403957,0.803189 0.605935,1.20478z" />
    <path
   id="_46561104"
   class="fil84"
   d="M29.0459 13.353c0.0602392,4.66677 0.120478,9.33471 0.181899,14.0027 0.0106304,0.897682 -0.663812,1.73631 -1.47291,1.73276 -7.76849,-0.0413406 -15.5358,-0.0826812 -23.3019,-0.122841 -0.810276,-0.00354348 -1.84852,-0.450022 -1.85915,-1.3477 -0.0614203,-4.52384 -0.12166,-9.04533 -0.18308,-13.5692 0.175993,-0.820907 0.350805,-1.64063 0.526798,-2.46272 0.548058,0.809095 1.09612,1.61701 1.64299,2.42492 -0.0271667,4.26045 -0.0543334,8.51971 -0.0815001,12.7813 -0.00472464,0.564595 0.45829,1.02879 0.774841,1.02643 7.09405,-0.0165362 14.1869,-0.0342537 21.281,-0.0507899 0.381515,-0.00118116 0.705153,-0.463015 0.928392,-1.02761 0.0271667,-4.40573 0.0543334,-8.81146 0.0826812,-13.2148 0.302377,-0.460653 0.605935,-0.920124 0.908312,-1.3796 0.191348,0.402776 0.381515,0.80437 0.571682,1.20715z" />
    <path
   id="_46559464"
   class="fil85"
   d="M29.0341 13.353c0.0602392,4.66677 0.120478,9.33471 0.181899,14.0027 0.0106304,0.897682 -0.663812,1.73631 -1.47409,1.73276 -7.76377,-0.0413406 -15.5252,-0.0826812 -23.2889,-0.122841 -0.810276,-0.00354348 -1.84852,-0.450022 -1.85915,-1.3477 -0.0614203,-4.52384 -0.12166,-9.04533 -0.18308,-13.5692 0.172449,-0.815001 0.343718,-1.63118 0.516167,-2.44618 0.540972,0.802008 1.08076,1.60283 1.62055,2.40484 -0.0307102,4.27698 -0.0602392,8.55633 -0.0909494,12.8345 -0.00472464,0.564595 0.44766,1.02997 0.76303,1.02643 7.12476,-0.0129928 14.2472,-0.0271667 21.3707,-0.0401595 0.372066,-0.00118116 0.689798,-0.463015 0.928392,-1.02761 0.0318913,-4.42345 0.0614203,-8.84571 0.0921305,-13.268 0.29529,-0.463015 0.591761,-0.927211 0.888233,-1.39023 0.177174,0.403957 0.35671,0.807914 0.535066,1.21069z" />
    <path
   id="_46557704"
   class="fil86"
   d="M29.0223 13.353c0.0602392,4.66677 0.120478,9.33471 0.181899,14.0027 0.0118116,0.897682 -0.663812,1.73631 -1.47409,1.73276 -7.75904,-0.0413406 -15.5169,-0.0826812 -23.2771,-0.122841 -0.810276,-0.00354348 -1.84852,-0.450022 -1.85915,-1.3477 -0.0614203,-4.52384 -0.12166,-9.04533 -0.18308,-13.5692 0.168906,-0.810276 0.337812,-1.62173 0.505537,-2.43319 0.532703,0.797283 1.06541,1.59339 1.59811,2.38949 -0.0330725,4.2947 -0.0673261,8.59058 -0.100399,12.8865 -0.00472464,0.565776 0.435848,1.02997 0.752399,1.02761 7.15429,-0.0106304 14.3062,-0.0212609 21.4605,-0.0307102 0.361435,-0.00118116 0.67208,-0.463015 0.928392,-1.02761 0.0330725,-4.44116 0.0673261,-8.88233 0.100399,-13.3211 0.289384,-0.466558 0.577587,-0.933117 0.865791,-1.39968 0.166544,0.403957 0.334268,0.809095 0.500812,1.21305z" />
    <path
   id="_46555400"
   class="fil87"
   d="M29.0105 13.353c0.0602392,4.66677 0.120478,9.33471 0.18308,14.0027 0.0106304,0.897682 -0.663812,1.73631 -1.47409,1.73276 -7.75668,-0.0413406 -15.511,-0.0826812 -23.2665,-0.122841 -0.810276,-0.00354348 -1.84852,-0.450022 -1.85915,-1.3477 -0.0614203,-4.52384 -0.12166,-9.04533 -0.18308,-13.5692 0.165362,-0.805551 0.330725,-1.6111 0.494906,-2.41784 0.525616,0.791378 1.05123,1.58039 1.57567,2.37177 -0.0354348,4.31242 -0.0720508,8.62602 -0.109848,12.9396 -0.00472464,0.564595 0.424037,1.02997 0.740588,1.02761 7.18382,-0.00826812 14.3676,-0.0153551 21.5503,-0.022442 0.353167,0 0.656725,-0.461834 0.928392,-1.02761 0.036616,-4.45888 0.0744131,-8.91658 0.109848,-13.3731 0.281116,-0.470102 0.563414,-0.940204 0.84453,-1.40912 0.154732,0.405138 0.310645,0.810276 0.465377,1.21541z" />
   </g>
   <path
   id="_46553064"
   class="fil88"
   d="M28.9975 13.353l0.181899 14.0038c0.0118116,0.896501 -0.662631,1.73631 -1.47291,1.73158l-23.2547 -0.120478c-0.810276,-0.00472464 -1.84734,-0.451203 -1.85915,-1.34889l-0.18308 -13.5704 0.485457 -2.40248 1.55204 2.35287 -0.118116 12.9939c-0.00472464,0.564595 0.411044,1.02997 0.728776,1.02761l21.6412 -0.0129928c0.342537,0 0.640189,-0.461834 0.927211,-1.02761l0.119297 -13.4274 0.823269 -1.41739 0.428761 1.21778z" />
  </g>
  <path
   class="fil89"
   d="M16.906 29.7192l-14.5814 0c-0.838624,0 -1.32762,-0.701609 -1.32762,-1.55913l0 -17.4481 2.36114 -0.0496087 0 16.9237c0,0.69216 0.556327,1.26266 1.23431,1.26266 6.15385,0 9.63473,-0.00472464 12.3136,-0.0106304l0 0.881146z"
   id="path4102" />
  <path
   class="fil90"
   d="M17.754 29.0436l-1.92057 0 -12.6372 0c-0.836262,0 -1.54968,-0.701609 -1.54968,-1.56031l0 -17.3465 2.48398 -0.0507899 0 16.8245c0,0.688617 0.556327,1.35833 1.23431,1.35833 4.78961,0 8.03543,-0.00236232 10.4686,-0.0059058l0 -0.00354348 0.909494 0.00236232 0.10158 0 0.909494 -0.00236232 0 0.00354348c2.43319,0.00354348 3.912,0.0059058 8.70161,0.0059058 0.676805,0 1.48354,-0.569319 1.48354,-1.26148l0 -17.0985 2.65289 0.0496087 0 17.3749c0,0.857523 -0.689798,1.71032 -1.52606,1.71032l-11.312 0z"
   id="path4104" />
  <path
   class="fil91"
   d="M17.754 28.9561l-1.92057 0 -12.6597 0c-0.0437029,0 -0.0862247,-0.00236232 -0.127565,-0.0059058 0.421674,-0.262218 1.04651,-0.582312 1.61347,-0.957921 0.187805,0.119297 0.408682,0.28466 0.642551,0.28466 7.11177,0 14.1999,0.00118116 21.3093,0.00118116 0.375609,0 0.802008,-0.0626015 1.02879,-0.337812 0.301196,0.341355 0.79374,0.682711 1.22368,1.01462l-0.0472464 0.00118116 -11.0627 0z"
   id="path4106" />
  <path
   class="fil92"
   d="M16.8717 30.6629l-1.92057 0 -12.6113 0c-0.836262,0 -1.37841,-0.70279 -1.37605,-1.56031l0.0330725 -18.4911 1.83552 0.059058 -0.00472464 16.828c0,0.689798 0.556327,1.26266 1.23431,1.26266 4.78961,0 8.47246,-0.0118116 10.9057,-0.0153551l0 -0.00354348 0.909494 0.00236232 0.10158 0 0.960283 -0.00236232 -0.0496087 0.00354348c2.43201,0.00354348 6.23298,-0.0307102 11.0226,-0.0307102 0.676805,0 1.23313,-0.570501 1.23431,-1.26148l0.0165362 -16.8292 1.7552 0.0874059 0.0165362 18.3907c-0.00118116,0.857523 -0.514986,1.56031 -1.35243,1.56031l-12.7105 0z"
   id="path4108" />
  <path
   class="fil93"
   d="M4.54392 10.6706l-0.00472464 16.6768 0.00236232 0c0,0.088587 0.0153551,0.174812 0.0425218,0.255131 4.61716,-0.00118116 8.07087,-0.0118116 11.508,-0.0212609 4.10453,-0.0106304 8.34372,-0.0236232 11.3521,-0.0248044 0.0283479,-0.0803189 0.0437029,-0.166544 0.0437029,-0.25395l0.0165362 -16.678 1.55323 0 -0.0165362 16.678c-0.00118116,0.479551 -0.196073,0.921305 -0.504356,1.23786l-0.00236232 0.00236232c-0.311826,0.316551 -0.740588,0.517348 -1.21069,0.522073 -0.0637827,-0.173631 -0.255131,-0.344899 -0.451203,-0.506718 -4.40809,0.00118116 -7.52635,0.0118116 -10.7805,0.0200797 -3.8931,0.0106304 -7.79684,0.0236232 -10.9305,0.0259855l-0.431124 0.415768c-0.251587,-0.0862247 -0.479551,-0.230326 -0.664993,-0.415768 -0.185442,-0.00472464 -0.36616,-0.0354348 -0.536247,-0.0909494l0.270486 -0.246863c-0.164181,-0.269305 -0.259855,-0.584674 -0.259855,-0.918943l0.00236232 0 0.00472464 -16.6768 0.996899 0z"
   id="path4110" />
  <path
   class="fil94"
   d="M3.9876 10.6706l-0.00472464 16.6768 0.00236232 0c0,0.210247 0.0838624,0.403957 0.218515,0.540972 0.13229,0.135833 0.316551,0.220877 0.514986,0.220877l0.400413 0 -0.944928 0.910675c-0.258674,-0.088587 -0.492544,-0.238594 -0.68153,-0.432305 -0.313008,-0.320094 -0.50908,-0.761849 -0.50908,-1.24022l0.00236232 0 0.00472464 -16.6768 0.996899 0zm22.9488 17.3926l0.372066 0c0.197254,0 0.380334,-0.0838624 0.512624,-0.217334l0.00236232 -0.00236232c0.134652,-0.139377 0.220877,-0.334268 0.220877,-0.540972l0.0165362 -16.678 0.996899 0 -0.0165362 16.678c-0.00118116,0.479551 -0.196073,0.921305 -0.504356,1.23786l-0.00236232 0.00236232c-0.311826,0.316551 -0.740588,0.517348 -1.21069,0.522073 -0.134652,-0.363797 -0.271667,-0.715783 -0.387421,-1.00162z"
   id="path4112" />
  <path
   class="fil95"
   d="M5.11915 28.1093c4.401,-0.00118116 7.68581,-0.0118116 10.9553,-0.0212609 3.93799,-0.0106304 8.00709,-0.0236232 10.862,-0.0248044 0.115754,0.285841 0.252768,0.637827 0.387421,1.00162l-0.0153551 0c-4.72819,0 -7.90551,0.0106304 -11.234,0.0200797 -4.11516,0.0118116 -8.24332,0.0259855 -11.3557,0.0259855 -0.188986,0 -0.372066,-0.0318913 -0.544515,-0.0909494l0.944928 -0.910675z"
   id="path4114" />
  <path
   class="fil96"
   d="M5.26443 6.56489c-0.939023,0.00354348 -1.00281,0.355529 -1.2603,0.726414 -0.791378,1.11029 -1.54496,2.05168 -2.33752,3.16197 -0.145283,0.147645 -0.268123,0.161819 0.0685073,0.170087l0.294109 0.105123 1.89812 -0.00826812 0.15237 -0.0708696 0.473645 -0.695704 -0.0519711 -0.0708696 -0.706334 0.0791378 -0.029529 -0.0779566 1.16462 -1.5863c0.157094,-0.235051 0.246863,-0.439392 0.614203,-0.442935l1.43039 -0.0649638 0.0850436 -1.22604 -1.79536 0.00118116z"
   id="path4116" />
  <path
   class="fil96"
   d="M26.0918 6.56489c0.939023,0.00354348 1.00281,0.355529 1.2603,0.726414 0.791378,1.11029 1.54496,2.05168 2.33752,3.16197 0.145283,0.147645 0.268123,0.161819 -0.0685073,0.170087l-0.294109 0.105123 -1.89812 -0.00826812 -0.15237 -0.0708696 -0.473645 -0.695704 0.0519711 -0.0708696 0.706334 0.0791378 0.029529 -0.0779566 -1.16462 -1.5863c-0.157094,-0.235051 -0.246863,-0.439392 -0.614203,-0.442935l-1.43039 -0.0649638 -0.0850436 -1.22604 1.79536 0.00118116z"
   id="path4118" />
  <polygon
   class="fil93"
   points="4.04666,10.7982 4.2947,10.3493 3.55175,10.1722 4.28289,9.3477 5.83257,9.63236 4.31714,12.1884 "
   id="polygon4120" />
  <polygon
   class="fil93"
   points="27.938,10.7982 27.6899,10.3493 28.4329,10.1722 27.7018,9.3477 26.1521,9.63236 27.6675,12.1884 "
   id="polygon4122" />
  <polygon
   class="fil97"
   points="1.27211,9.96545 3.89074,9.98199 4.22383,9.9123 4.81795,9.73394 4.97977,9.96781 4.46006,10.9883 4.33368,11.0675 3.95334,11.0864 3.90019,11.0899 1.25321,11.0639 "
   id="polygon4124" />
  <polygon
   class="fil97"
   points="30.7125,9.96545 28.0939,9.98199 27.7608,9.9123 27.1667,9.73394 27.0049,9.96781 27.5246,10.9883 27.651,11.0675 28.0313,11.0864 28.0845,11.0899 30.7314,11.0639 "
   id="polygon4126" />
  <path
   class="fil98"
   d="M2.11546 10.6328l-0.0696885 0.0968552 -0.022442 0.0448841 -0.0578769 18.2218 0.00236232 0 0 0.0141739 -0.00236232 0c0,0.302377 0.095674,0.576406 0.257493,0.767754 0.14292,0.168906 0.354348,0.276392 0.609479,0.276392l0.0106304 0 0 0.00236232 12.0821 -0.0460653 0 -0.00236232 1.92175 0 0 0.00236232 12.3041 -0.0507899 0.00236232 0c0.248044,0 0.453566,-0.102761 0.594124,-0.26458 0.166544,-0.192529 0.259855,-0.477189 0.259855,-0.796102l0.00826812 -18.0718 -0.126384 -0.194891 1.11147 0 0.0118116 0.0283479 -0.00826812 18.2383c-0.00118116,0.55987 -0.181899,1.07604 -0.504356,1.45047l-0.00118116 0.00236232c-0.322457,0.369703 -0.783109,0.602392 -1.34298,0.604754l-12.3065 0.0507899 -0.00236232 0.00236232 -1.92175 0 0 -0.00236232 -12.0821 0.0460653 0 0.00236232 -0.0106304 0c-0.566957,0 -1.04296,-0.2445 -1.37251,-0.633102 -0.310645,-0.367341 -0.490182,-0.869334 -0.491363,-1.41267l-0.00236232 0 0 -0.0141739 0.00236232 0 0.0578769 -18.3387 0.0059058 -0.0248044 1.08312 0z"
   id="path4128" />
  <path
   class="fil99"
   d="M6.95349 7.01019l-1.16226 0.0259855 0 -0.00236232c-0.372066,0 -0.689798,0.0626015 -0.939023,0.155913 -0.239776,0.0921305 -0.4075,0.212609 -0.490182,0.331906l-0.00354348 0.00354348c-0.406319,0.569319 -0.792559,1.15872 -1.17762,1.6678l-0.00118116 -0.00118116c-0.342537,0.457109 -0.68153,0.907131 -1.06423,1.44102l-1.08312 0 0.0437029 -0.19371 0.0897682 -0.184261 0.0425218 -0.0708696c0.367341,-0.514986 0.777204,-1.05832 1.17644,-1.59102l0 -0.00236232c0.386239,-0.511442 0.772479,-1.10084 1.15872,-1.64063l-0.00118116 0c0.188986,-0.271667 0.516167,-0.523254 0.955559,-0.69216l0.00236232 -0.00118116c0.350805,-0.13229 0.787834,-0.218515 1.29101,-0.219696l0 -0.00236232 2.20286 -0.0129928c-0.0236232,1.31227 -0.0330725,2.56194 -0.0377971,3.87421l-1.00989 0.0602392 0.00708696 -2.94581zm22.9358 3.62262l-0.00708696 -0.0118116c-0.0649638,-0.103942 -0.13229,-0.210247 -0.150007,-0.227964l-0.0448841 -0.0543334c-0.470102,-0.659088 -0.900044,-1.21778 -1.32881,-1.77647l-0.00236232 -0.00236232c-0.37679,-0.491363 -0.758305,-0.98745 -1.15281,-1.5296l-2.08829 0.00472464 -0.102761 3.41828 -0.995718 0.0129928 -0.0106304 -4.46479 2.79108 0.0283479c1.15281,0.00944928 0.937841,0.0496087 1.67016,1.02997 0.232689,0.309464 0.45829,0.603573 0.682711,0.89532 0.434667,0.565776 0.870515,1.13273 1.33235,1.78119 0.0755943,0.0874059 0.160638,0.220877 0.243319,0.353167 0.0649638,0.103942 0.13229,0.210247 0.150007,0.227964l0.125203 0.31537 -1.11147 0z"
   id="path4130" />
  <polygon
   class="fil100"
   points="13.5467,17.3217 24.0012,21.9649 25.7528,17.3701 "
   id="polygon4132" />
  <polygon
   class="fil101"
   points="13.5467,17.3217 23.5972,20.0408 25.7528,17.3701 "
   id="polygon4134" />
 </g>
</svg>