<?xml version="1.0" encoding="UTF-8"?>
<!DOCTYPE svg PUBLIC "-//W3C//DTD SVG 1.1//EN" "http://www.w3.org/Graphics/SVG/1.1/DTD/svg11.dtd">
<!-- Creator: CorelDRAW -->
<svg xmlns="http://www.w3.org/2000/svg" xml:space="preserve" width="32px" height="32px" style="shape-rendering:geometricPrecision; text-rendering:geometricPrecision; image-rendering:optimizeQuality; fill-rule:evenodd; clip-rule:evenodd"
viewBox="0 0 32 32"
 xmlns:xlink="http://www.w3.org/1999/xlink">
 <defs>
  <style type="text/css">
   <![CDATA[
    .fil18 {fill:white}
    .fil10 {fill:#81C2F7}
    .fil12 {fill:#8BC5F5;fill-rule:nonzero}
    .fil0 {fill:#333333;fill-opacity:0.011765}
    .fil1 {fill:#333333;fill-opacity:0.023529}
    .fil2 {fill:#333333;fill-opacity:0.035294}
    .fil3 {fill:#333333;fill-opacity:0.047059}
    .fil4 {fill:#333333;fill-opacity:0.058824}
    .fil5 {fill:#333333;fill-opacity:0.074510}
    .fil6 {fill:#333333;fill-opacity:0.086275}
    .fil7 {fill:#333333;fill-opacity:0.098039}
    .fil8 {fill:#333333;fill-opacity:0.109804}
    .fil9 {fill:#333333;fill-opacity:0.121569}
    .fil14 {fill:#CCEDFF;fill-rule:nonzero;fill-opacity:0.780392}
    .fil11 {fill:url(#id0)}
    .fil16 {fill:url(#id1)}
    .fil17 {fill:url(#id2);fill-rule:nonzero}
    .fil15 {fill:url(#id3);fill-rule:nonzero}
    .fil13 {fill:url(#id4);fill-rule:nonzero;fill-opacity:0.321569}
   ]]>
  </style>
  <linearGradient id="id0" gradientUnits="userSpaceOnUse" x1="16.3508" y1="29.3873" x2="16.0378" y2="3.60018">
   <stop offset="0" style="stop-color:#5E9DD5"/>
   <stop offset="0.568627" style="stop-color:#7EBBEE"/>
   <stop offset="1" style="stop-color:#8FCDFF"/>
  </linearGradient>
  <linearGradient id="id1" gradientUnits="userSpaceOnUse" x1="15.9516" y1="2.82179" x2="16.0295" y2="6.09597">
   <stop offset="0" style="stop-color:#E5F6FF"/>
   <stop offset="1" style="stop-color:#C4E8FF"/>
  </linearGradient>
  <linearGradient id="id2" gradientUnits="userSpaceOnUse" x1="15.687" y1="0.822088" x2="16.3225" y2="30.8023">
   <stop offset="0" style="stop-color:#5E9DD5"/>
   <stop offset="1" style="stop-color:#4E87B4"/>
  </linearGradient>
  <linearGradient id="id3" gradientUnits="userSpaceOnUse" x1="16.867" y1="24.0083" x2="16.4311" y2="8.41577">
   <stop offset="0" style="stop-color:#E5E5E5"/>
   <stop offset="1" style="stop-color:white"/>
  </linearGradient>
  <linearGradient id="id4" gradientUnits="userSpaceOnUse" x1="19.0072" y1="5.23845" x2="19.4348" y2="28.8924">
   <stop offset="0" style="stop-color:#5A93C4"/>
   <stop offset="1" style="stop-color:#4A7FA8"/>
  </linearGradient>
 </defs>
 <g id="Слой_x0020_1">
  <metadata id="CorelCorpID_0Corel-Layer"/>
  <g id="_205469040">
   <path id="_206454680" class="fil0" d="M16.3626 30.6747c8.82917,-0.14292 11.1513,0.644914 11.7266,1.08785l-22.7822 0c0.474827,-0.364979 2.49343,-0.949653 11.0557,-1.08785z"/>
   <g>
    <path id="_206452136" class="fil1" d="M16.4205 30.7078c8.36616,-0.133471 10.38,0.660269 10.8123,1.05478l-21.0199 0c0.336631,-0.333087 2.0127,-0.924849 10.2076,-1.05478z"/>
    <path id="_206456864" class="fil2" d="M16.476 30.7409c7.92441,-0.124022 9.60992,0.685073 9.88986,1.0217l-19.2352 0c0.200797,-0.294109 1.5048,-0.900044 9.34534,-1.0217z"/>
    <path id="_206454152" class="fil3" d="M16.5327 30.774c7.54053,-0.113391 8.84807,0.733501 8.94729,0.988631l-17.4138 0c0.0626015,-0.237413 0.937841,-0.87524 8.46656,-0.988631z"/>
    <path id="_206450288" class="fil4" d="M16.5906 30.8082c6.83301,-0.0992175 7.97047,0.716964 7.97047,0.913037 0,0.0129928 -0.0342537,0.0271667 -0.100399,0.0413406l-15.3315 0c-0.066145,-0.0141739 -0.100399,-0.0283479 -0.100399,-0.0413406 0,-0.196073 0.728776,-0.81382 7.56179,-0.913037z"/>
    <path id="_206451656" class="fil5" d="M16.6449 30.8413c5.7806,-0.0791378 6.98656,0.622472 6.98656,0.809095 0,0.0354348 -0.307102,0.0744131 -0.842167,0.11221l-11.9368 0c-0.544515,-0.0377971 -0.858704,-0.0767754 -0.858704,-0.11221 0,-0.186623 0.870515,-0.729957 6.65111,-0.809095z"/>
    <path id="_206451488" class="fil6" d="M16.7028 30.8755c4.72937,-0.059058 6.00266,0.526798 6.00266,0.703972 0,0.0637827 -1.3855,0.14292 -3.31197,0.18308l-5.05655 0c-1.95955,-0.0401595 -3.37576,-0.120478 -3.37576,-0.18308 0,-0.177174 1.01225,-0.644914 5.74162,-0.703972z"/>
    <path id="_205162448" class="fil7" d="M16.7595 30.9086c3.67695,-0.0389783 5.01757,0.432305 5.01757,0.598848 0,0.0673261 -2.33279,0.151189 -4.92308,0.150007 -2.59383,0 -4.92662,-0.0838624 -4.92662,-0.150007 0,-0.166544 1.15517,-0.558689 4.83213,-0.598848z"/>
    <path id="_205472304" class="fil8" d="M16.815 30.9429c2.6269,-0.0200797 4.03603,0.336631 4.03603,0.492544 0,0.0460653 -1.92529,0.0933117 -3.97815,0.0921305 -2.05404,0 -3.97933,-0.0484276 -3.97933,-0.0921305 0,-0.155913 1.29691,-0.473645 3.92145,-0.492544z"/>
   </g>
   <path id="_208883032" class="fil9" d="M16.8717 30.9771c1.57449,0 3.05212,0.240957 3.05212,0.387421 0,0.0472464 -6.06408,0.0437029 -6.06408,0 0,-0.146464 1.43747,-0.387421 3.01196,-0.387421z"/>
  </g>
  <path class="fil10" d="M16.1949 0.591761l0.00118116 0c5.60343,0 10.1887,4.59944 10.1887,10.2218l0 9.9997c0,5.62232 -4.58527,10.2206 -10.1887,10.2206l-0.00118116 0c-5.60461,0 -10.1887,-4.59826 -10.1887,-10.2206l0 -9.9997c0,-5.62232 4.58408,-10.2218 10.1887,-10.2218z"/>
  <path class="fil11" d="M16.1949 1.95364l0.00118116 0c5.60343,0 10.1887,4.39392 10.1887,9.76465l0 9.55204c0,5.37074 -4.58527,9.76347 -10.1887,9.76347l-0.00118116 0c-5.60461,0 -10.1887,-4.39274 -10.1887,-9.76347l0 -9.55204c0,-5.37074 4.58408,-9.76465 10.1887,-9.76465z"/>
  <path class="fil12" d="M25.7753 8.40041c0.393326,1.03706 0.609479,2.15444 0.609479,3.3167l0 9.55204c0,5.37192 -4.58527,9.76465 -10.1875,9.76465l-0.00118116 0c-5.60579,0 -10.1899,-4.39274 -10.1899,-9.76465l0 -9.55204c0,-1.27329 0.257493,-2.49225 0.726414,-3.60963 0.434667,0.155913 0.441754,0.368522 0.931936,0.465377 -0.429942,0.973276 -0.667356,2.04105 -0.667356,3.15842l0 9.51897c0,2.2572 1.27565,4.71756 2.83597,6.207 1.57331,1.50362 4.06083,2.13318 6.46449,2.13318l0.00118116 0c2.4013,0 4.4825,-1.08785 6.05699,-2.59147 1.55913,-1.49062 2.52886,-3.54348 2.52886,-5.7995l0 -9.51897c0,-1.14573 -0.250406,-2.24066 -0.70279,-3.2352l1.59339 -0.0448841z"/>
  <path class="fil13" d="M13.1097 10.1355l0.884689 0.870515 -0.0165362 -4.49195 -0.00236232 -0.674443 0.63074 -0.251587 1.71977 -0.682711 0.629559 -0.249225 0.464196 0.491363 4.61243 4.89945 0.642551 0.68153 0.642551 0.682711 -0.474827 0.506718 -2.16507 -0.611841 -3.55884 4.08209 2.18633 0.846892 3.10173 3.05448 0.709877 0.699247 0.709877 0.699247 -0.338993 0.34608c-0.511442,-0.439392 -1.14336,-0.70279 -1.793,-0.289384 -1.52488,0.969733 -5.33885,4.79551 -5.38964,5.05064l0.372066 1.90876 -0.457109 -0.192529 -1.65362 -0.698066 -0.613022 -0.259855 0 -0.657906 0 -4.53093 -0.892957 0.957921 -0.683892 0.733501 -0.729957 -0.686254 -1.44928 -1.36542 -0.719327 -0.679167 0.673261 -0.726414 3.15016 -3.39466 2.19105 -0.357892 -1.01698 -1.47881 -3.20331 -2.14263 -1.65717 0.0425218 0.688617 -0.701609 1.39613 -1.41857 0.700428 -0.711059 0.709877 0.699247zm1.18943 3.97106l-1.87805 -1.8497 -0.00118116 0.00236232 3.08873 3.08165 0.425218 0.424037 0 -0.0472464 -1.63473 -1.6111zm1.69615 -0.246863l0.00708696 1.91584 0.245681 0.242138 0.666175 -0.706334 0.744131 -0.791378 -1.66307 -0.660269zm-0.0236232 -6.67001l0.00708696 1.81544 1.69733 -0.674443 -1.24612 -1.3229 -0.45829 0.181899zm0.398051 18.2229l1.23786 -1.25439 -1.65599 -0.679167 0 1.75757 0.418131 0.175993zm-2.14735 -7.26177l1.69969 0.667356 0.00236232 -0.738225 0.00708696 -1.78001 -0.395689 0.42758 -3.00015 3.23284 1.6867 -1.80954zm3.9687 2.58084l-0.283479 -0.279935 -0.00236232 0.569319 0.285841 -0.289384z"/>
  <path class="fil14" d="M23.1815 20.8817l-0.359073 0.364979 -0.698066 0.708696 -5.11324 5.18529 -0.474827 0.480732 -0.165362 -0.0696885 -0.372066 -1.90876c0.0507899,-0.255131 3.86476,-4.08091 5.38964,-5.05064 0.649638,-0.413406 1.28156,-0.150007 1.793,0.289384z"/>
  <path class="fil14" d="M22.6901 11.6628l-0.167725 0.178355 -0.642551 0.683892 -2.99779 3.18913 0.270486 0.265761 -2.18633 -0.846892 3.55884 -4.08209 2.16507 0.611841zm-9.1351 4.38801l0.119297 -0.128746 -3.10881 -3.10291 -0.701609 -0.700428 0.00472464 -0.00472464 1.65717 -0.0425218 3.20331 2.14263 1.01698 1.47881 -2.19105 0.357892z"/>
  <path class="fil15" d="M12.4105 10.8466l2.58792 2.54894 -0.0248044 -6.88144 1.71977 -0.682711 4.61243 4.89945 0.642551 0.68153 -0.642551 0.683892 -3.66514 3.89901 4.06674 4.00532 0.709877 0.699247 -0.698066 0.708696 -5.11324 5.18529 -1.65362 -0.698066 0 -7.0657 -2.62218 2.81352 -1.44928 -1.36542 3.925 -4.22974 -3.79153 -3.78326 1.39613 -1.41857zm7.19091 9.8745l-2.68123 -2.64107 -0.0200797 5.38019 2.70131 -2.73911zm-2.64816 -11.7077l-0.0177174 4.82386 2.27846 -2.42374 -2.26074 -2.40012z"/>
  <path class="fil16" d="M25.2898 6.91806l0.22442 0.587037 -0.148826 0c-1.64181,-3.20803 -5.78769,-5.1345 -9.2414,-5.1345l-0.00118116 0c-2.71313,0 -5.3294,0.959102 -7.11649,2.74384 -0.882327,0.674443 -2.06467,1.77292 -2.54068,2.67887l0.190167 -0.87524c0.50908,-1.00399 1.17407,-1.91348 1.96309,-2.7025l0 -0.00118116c1.90521,-1.90521 4.53566,-3.08992 7.42832,-3.08992l0.00118116 0c3.97342,0 7.61849,2.30563 9.39023,5.79359l-0.148826 0z"/>
  <path class="fil17" d="M26.9872 11.7171l0 9.0973 0 0.454747c0,2.68242 -1.08785,5.1345 -2.85959,6.96767 -1.67961,1.73867 -4.07973,2.92337 -6.64875,3.22221l0 0.0165362 -0.258674 0.0153551 0 0.0129928 -0.485457 0.0165362 -0.259855 0.00826812 -0.00944928 0 -0.262218 0.00354348 -0.0059058 0.00236232 -0.00118116 0 -0.0059058 -0.00236232 -0.262218 -0.00354348 -0.00944928 0 -0.261036 -0.00826812 -0.485457 -0.0165362 0 -0.0129928 -0.258674 -0.0153551 0 -0.0165362c-2.57021,-0.297652 -5.35184,-1.49653 -7.03145,-3.23402 -1.77174,-1.83316 -2.85959,-4.28525 -2.85959,-6.96885l0 -0.454747 0 -9.0973 0 -0.904769c0,-2.947 1.2036,-5.62823 3.14071,-7.57006 1.93828,-1.94419 5.09435,-3.13834 8.03307,-3.13834l0.00118116 0c2.93755,0 5.71327,1.20833 7.6492,3.15134 1.9371,1.94183 3.14071,4.62424 3.14071,7.57006l0 0.904769zm-1.00162 9.0973l0 -9.0973 0 -0.904769c0,-2.67297 -1.09021,-5.10616 -2.84542,-6.86609 -1.75402,-1.75993 -4.27934,-2.85368 -6.94286,-2.85368l-0.00118116 0c-2.6647,0 -5.57153,1.08076 -7.32674,2.84069 -1.7552,1.75993 -2.84542,4.19194 -2.84542,6.86609l0 0.904769 0 9.0973 0 0.454747c0,2.41547 0.980363,4.62542 2.57611,6.27669 1.61347,1.66898 4.34549,2.78872 6.84955,2.97298l0.107486 0.00826812 0.145283 0.00826812 0.0626015 0.00354348 0.184261 0.0059058 0.246863 0.00354348 0 -0.00236232 0.00118116 0 0 0.00236232 0.246863 -0.00354348 0.181899 -0.0059058 0.0637827 -0.00354348 0.145283 -0.00826812 0.107486 -0.00826812c2.50524,-0.184261 4.85457,-1.29101 6.46685,-2.96117 1.59575,-1.65126 2.57611,-3.86121 2.57611,-6.27551l0 -0.454747z"/>
  <ellipse class="fil18" cx="15.9743" cy="2.20305" rx="1.52955" ry="0.507666"/>
 </g>
</svg>
