<?xml version="1.0" encoding="UTF-8" standalone="no"?>
<!-- Creator: CorelDRAW -->

<svg
   xmlns:dc="http://purl.org/dc/elements/1.1/"
   xmlns:cc="http://creativecommons.org/ns#"
   xmlns:rdf="http://www.w3.org/1999/02/22-rdf-syntax-ns#"
   xmlns:svg="http://www.w3.org/2000/svg"
   xmlns="http://www.w3.org/2000/svg"
   xmlns:xlink="http://www.w3.org/1999/xlink"
   xmlns:sodipodi="http://sodipodi.sourceforge.net/DTD/sodipodi-0.dtd"
   xmlns:inkscape="http://www.inkscape.org/namespaces/inkscape"
   xml:space="preserve"
   width="32px"
   height="32px"
   style="shape-rendering:geometricPrecision; text-rendering:geometricPrecision; image-rendering:optimizeQuality; fill-rule:evenodd; clip-rule:evenodd"
   viewBox="0 0 32 32"
   id="svg2"
   version="1.1"
   inkscape:version="0.48.3.1 r9886"
   sodipodi:docname="evolution.svg"><metadata
   id="metadata241"><rdf:RDF><cc:Work
       rdf:about=""><dc:format>image/svg+xml</dc:format><dc:type
         rdf:resource="http://purl.org/dc/dcmitype/StillImage" /></cc:Work></rdf:RDF></metadata><sodipodi:namedview
   pagecolor="#ffffff"
   bordercolor="#666666"
   borderopacity="1"
   objecttolerance="10"
   gridtolerance="10"
   guidetolerance="10"
   inkscape:pageopacity="0"
   inkscape:pageshadow="2"
   inkscape:window-width="1920"
   inkscape:window-height="1057"
   id="namedview239"
   showgrid="true"
   inkscape:zoom="14.75"
   inkscape:cx="8.4198229"
   inkscape:cy="14.683966"
   inkscape:window-x="-8"
   inkscape:window-y="-8"
   inkscape:window-maximized="1"
   inkscape:current-layer="svg2"><inkscape:grid
     type="xygrid"
     id="grid3218" /></sodipodi:namedview>
 <defs
   id="defs4">
  <style
   type="text/css"
   id="style6">
   
    .fil17 {fill:#CCCCCC}
    .fil20 {fill:white}
    .fil16 {fill:#5589C4}
    .fil32 {fill:#A2672B}
    .fil15 {fill:#C36332}
    .fil57 {fill:#FFF2A6}
    .fil53 {fill:#C4C4C4}
    .fil21 {fill:white;fill-rule:nonzero}
    .fil63 {fill:#D4962A;fill-rule:nonzero}
    .fil61 {fill:#E6B820;fill-rule:nonzero}
    .fil60 {fill:#FFF5BA;fill-rule:nonzero}
    .fil42 {fill:#666666;fill-opacity:0.000000}
    .fil0 {fill:black;fill-opacity:0.000000}
    .fil30 {fill:#BAB8B8;fill-opacity:0.000000}
    .fil1 {fill:black;fill-opacity:0.003922}
    .fil43 {fill:#666666;fill-opacity:0.007843}
    .fil2 {fill:black;fill-opacity:0.007843}
    .fil3 {fill:black;fill-opacity:0.015686}
    .fil44 {fill:#666666;fill-opacity:0.019608}
    .fil4 {fill:black;fill-opacity:0.019608}
    .fil5 {fill:black;fill-opacity:0.023529}
    .fil45 {fill:#666666;fill-opacity:0.027451}
    .fil6 {fill:black;fill-opacity:0.027451}
    .fil7 {fill:black;fill-opacity:0.031373}
    .fil46 {fill:#666666;fill-opacity:0.035294}
    .fil8 {fill:black;fill-opacity:0.035294}
    .fil9 {fill:black;fill-opacity:0.043137}
    .fil47 {fill:#666666;fill-opacity:0.043137}
    .fil10 {fill:black;fill-opacity:0.047059}
    .fil11 {fill:black;fill-opacity:0.050980}
    .fil48 {fill:#666666;fill-opacity:0.054902}
    .fil12 {fill:black;fill-opacity:0.054902}
    .fil13 {fill:black;fill-opacity:0.058824}
    .fil49 {fill:#666666;fill-opacity:0.062745}
    .fil50 {fill:#666666;fill-opacity:0.070588}
    .fil29 {fill:#BAB8B8;fill-opacity:0.074510}
    .fil51 {fill:#666666;fill-opacity:0.121569}
    .fil28 {fill:#BAB8B8;fill-opacity:0.145098}
    .fil27 {fill:#BAB8B8;fill-opacity:0.219608}
    .fil23 {fill:#633695;fill-rule:nonzero;fill-opacity:0.219608}
    .fil62 {fill:#A2672B;fill-rule:nonzero;fill-opacity:0.219608}
    .fil26 {fill:#BAB8B8;fill-opacity:0.294118}
    .fil25 {fill:#BAB8B8;fill-opacity:0.368627}
    .fil24 {fill:#BAB8B8;fill-opacity:0.439216}
    .fil40 {fill:#C2C2C2;fill-opacity:0.439216}
    .fil59 {fill:#FFEC80;fill-rule:nonzero;fill-opacity:0.439216}
    .fil19 {fill:white;fill-opacity:0.560784}
    .fil58 {fill:#F9C518;fill-opacity:0.780392}
    .fil31 {fill:#FFEC80;fill-opacity:0.780392}
    .fil56 {fill:#FFE351;fill-opacity:0.839216}
    .fil18 {fill:url(#id6)}
    .fil54 {fill:url(#id7)}
    .fil38 {fill:url(#id8)}
    .fil35 {fill:url(#id9)}
    .fil33 {fill:url(#id10)}
    .fil37 {fill:url(#id11)}
    .fil39 {fill:url(#id12)}
    .fil52 {fill:url(#id13)}
    .fil34 {fill:url(#id14)}
    .fil36 {fill:url(#id15)}
    .fil41 {fill:url(#id16)}
    .fil14 {fill:url(#id17)}
    .fil22 {fill:url(#id18);fill-rule:nonzero}
    .fil55 {fill:url(#id19);fill-rule:nonzero}
   
  </style>
   <mask
   id="id0">
  <linearGradient
   id="id1"
   gradientUnits="userSpaceOnUse"
   x1="16.5516"
   y1="23.8618"
   x2="15.524"
   y2="12.8888">
   <stop
   offset="0"
   style="stop-opacity:1; stop-color:white"
   id="stop10" />
   <stop
   offset="1"
   style="stop-opacity:0; stop-color:white"
   id="stop12" />
  </linearGradient>
    <rect
   style="fill:url(#id1)"
   x="2.13908"
   y="11.4443"
   width="27.7974"
   height="13.8633"
   id="rect14" />
   </mask>
   <mask
   id="id2">
  <linearGradient
   id="id3"
   gradientUnits="userSpaceOnUse"
   x1="16.5516"
   y1="28.8451"
   x2="15.3799"
   y2="17.1091">
   <stop
   offset="0"
   style="stop-opacity:1; stop-color:white"
   id="stop18" />
   <stop
   offset="1"
   style="stop-opacity:0; stop-color:white"
   id="stop20" />
  </linearGradient>
    <rect
   style="fill:url(#id3)"
   x="1.23077"
   y="15.7047"
   width="29.4688"
   height="14.5448"
   id="rect22" />
   </mask>
   <mask
   id="id4">
  <linearGradient
   id="id5"
   gradientUnits="userSpaceOnUse"
   x1="16.5516"
   y1="28.3951"
   x2="15.3799"
   y2="16.6614">
   <stop
   offset="0"
   style="stop-opacity:1; stop-color:white"
   id="stop26" />
   <stop
   offset="1"
   style="stop-opacity:0; stop-color:white"
   id="stop28" />
  </linearGradient>
    <rect
   style="fill:url(#id5)"
   x="1.23077"
   y="15.2571"
   width="29.4688"
   height="14.5436"
   id="rect30" />
   </mask>
  <linearGradient
   id="id6"
   gradientUnits="userSpaceOnUse"
   x1="16.0591"
   y1="24.2091"
   x2="16.0591"
   y2="12.2226">
   <stop
   offset="0"
   style="stop-color:#CCCCCC"
   id="stop33" />
   <stop
   offset="1"
   style="stop-color:#EDEDED"
   id="stop35" />
  </linearGradient>
  <linearGradient
   id="id7"
   gradientUnits="userSpaceOnUse"
   x1="15.9988"
   y1="6.19401"
   x2="16.1784"
   y2="20.3762">
   <stop
   offset="0"
   style="stop-color:whitesmoke"
   id="stop38" />
   <stop
   offset="1"
   style="stop-color:white"
   id="stop40" />
  </linearGradient>
  <linearGradient
   id="id8"
   gradientUnits="userSpaceOnUse"
   x1="28.6113"
   y1="17.2804"
   x2="28.4601"
   y2="14.3995">
   <stop
   offset="0"
   style="stop-color:#5589C4"
   id="stop43" />
   <stop
   offset="1"
   style="stop-color:#5B8EC9"
   id="stop45" />
  </linearGradient>
  <linearGradient
   id="id9"
   gradientUnits="userSpaceOnUse"
   xlink:href="#id8"
   x1="3.45726"
   y1="17.2402"
   x2="3.26709"
   y2="14.1893">
  </linearGradient>
  <linearGradient
   id="id10"
   gradientUnits="userSpaceOnUse"
   x1="15.9882"
   y1="28.14"
   x2="15.8004"
   y2="7.22516">
   <stop
   offset="0"
   style="stop-color:#D4D4D4"
   id="stop49" />
   <stop
   offset="1"
   style="stop-color:#EDEDED"
   id="stop51" />
  </linearGradient>
  <linearGradient
   id="id11"
   gradientUnits="userSpaceOnUse"
   x1="28.7246"
   y1="21.0684"
   x2="28.3467"
   y2="18.3115">
   <stop
   offset="0"
   style="stop-color:#C36332"
   id="stop54" />
   <stop
   offset="1"
   style="stop-color:#CF6A38"
   id="stop56" />
  </linearGradient>
  <linearGradient
   id="id12"
   gradientUnits="userSpaceOnUse"
   xlink:href="#id11"
   x1="28.6916"
   y1="13.6176"
   x2="28.3112"
   y2="10.8371">
  </linearGradient>
  <linearGradient
   id="id13"
   gradientUnits="userSpaceOnUse"
   x1="15.9409"
   y1="7.19445"
   x2="16.098"
   y2="18.0812">
   <stop
   offset="0"
   style="stop-color:#E5E5E5"
   id="stop60" />
   <stop
   offset="1"
   style="stop-color:white"
   id="stop62" />
  </linearGradient>
  <linearGradient
   id="id14"
   gradientUnits="userSpaceOnUse"
   xlink:href="#id11"
   x1="3.58955"
   y1="20.9774"
   x2="3.1348"
   y2="18.1521">
  </linearGradient>
  <linearGradient
   id="id15"
   gradientUnits="userSpaceOnUse"
   xlink:href="#id11"
   x1="3.62853"
   y1="13.5266"
   x2="3.17023"
   y2="10.6789">
  </linearGradient>
  <linearGradient
   id="id16"
   gradientUnits="userSpaceOnUse"
   x1="16.1004"
   y1="26.8336"
   x2="15.876"
   y2="18.7734">
   <stop
   offset="0"
   style="stop-color:#D6D6D6"
   id="stop67" />
   <stop
   offset="1"
   style="stop-color:#EAEAEA"
   id="stop69" />
  </linearGradient>
  <linearGradient
   id="id17"
   gradientUnits="userSpaceOnUse"
   xlink:href="#id6"
   x1="16.0768"
   y1="19.5057"
   x2="16.0768"
   y2="8.46183">
  </linearGradient>
  <linearGradient
   id="id18"
   gradientUnits="userSpaceOnUse"
   x1="16.0165"
   y1="24.7087"
   x2="16.0165"
   y2="2.89739">
   <stop
   offset="0"
   style="stop-color:#919191"
   id="stop73" />
   <stop
   offset="1"
   style="stop-color:#B2B2B2"
   id="stop75" />
  </linearGradient>
  <linearGradient
   id="id19"
   gradientUnits="userSpaceOnUse"
   xlink:href="#id18"
   x1="16.0012"
   y1="29.6778"
   x2="16.0012"
   y2="5.96486">
  </linearGradient>
 <linearGradient
   inkscape:collect="always"
   xlink:href="#id6"
   id="linearGradient3220"
   gradientUnits="userSpaceOnUse"
   x1="16.0591"
   y1="24.2091"
   x2="16.0591"
   y2="12.2226" /><linearGradient
   inkscape:collect="always"
   xlink:href="#id18"
   id="linearGradient3222"
   gradientUnits="userSpaceOnUse"
   x1="16.0165"
   y1="24.7087"
   x2="16.0165"
   y2="2.89739" /><linearGradient
   inkscape:collect="always"
   xlink:href="#id11"
   id="linearGradient3224"
   gradientUnits="userSpaceOnUse"
   x1="28.7246"
   y1="21.0684"
   x2="28.3467"
   y2="18.3115" /><linearGradient
   inkscape:collect="always"
   xlink:href="#id8"
   id="linearGradient3226"
   gradientUnits="userSpaceOnUse"
   x1="28.6113"
   y1="17.2804"
   x2="28.4601"
   y2="14.3995" /></defs>
 <g
   id="Слой_x0020_1"
   transform="matrix(0.9394726,0,0,0.96563898,0.97567705,0.09951587)">
  <metadata
   id="CorelCorpID_0Corel-Layer" />
  <g
   id="_117052984">
   <path
   id="_115510152"
   class="fil0"
   d="m 15.322,27.0285 c 10.9387,-0.438211 15.1177,0.643732 16.6366,1.99852 l 0,2.48162 c -2.2442,0.745312 -8.85516,0.08741 -16.0638,0.355529 -1.29455,0.04843 -2.55957,0.09567 -3.77617,0.135833 l -10.0765,0 c -0.883508,-0.0815 -1.56976,-0.201978 -2.01624,-0.37679 l 0,-2.00207 c 1.18589,-1.09375 4.73409,-2.16861 15.296,-2.59265 z"
   inkscape:connector-curvature="0"
   style="fill:#000000;fill-opacity:0" />
   <g
   id="g82">
    <path
   id="_112230696"
   class="fil1"
   d="m 15.3586,27.2624 c 10.9978,-0.424037 15.172,0.729957 16.6,2.09656 l 0,2.08357 c -2.07766,0.770117 -8.77366,0.128746 -16.0472,0.381515 -1.90167,0.06733 -3.7431,0.129928 -5.46169,0.175993 l -7.50509,0 C 1.57684,31.924444 0.56576,31.779161 0.02597,31.538204 l 0,-1.59929 c 1.04651,-1.11265 4.47069,-2.25602 15.3326,-2.67651 z"
   inkscape:connector-curvature="0"
   style="fill:#000000;fill-opacity:0.00392199" />
    <path
   id="_115715816"
   class="fil2"
   d="m 15.3929,27.4998 c 11.0439,-0.408682 15.2511,0.817363 16.5658,2.18515 l 0,1.69142 c -1.87805,0.798464 -8.67799,0.173631 -16.0343,0.411044 -2.91983,0.09449 -5.70501,0.18308 -8.11693,0.212609 l -3.02023,0 C 2.4013,31.961045 0.68271,31.806313 0.02598,31.450783 l 0,-1.19415 c 0.887052,-1.12328 4.20257,-2.34342 15.3669,-2.75683 z"
   inkscape:connector-curvature="0"
   style="fill:#000000;fill-opacity:0.00784302" />
    <path
   id="_112906056"
   class="fil3"
   d="m 15.4283,27.7372 c 11.0769,-0.392145 15.361,0.90595 16.5303,2.2631 l 0,1.30164 C 30.33096,32.131115 23.40227,31.527542 15.9385,31.7496 8.07433,31.984651 1.1173,32.17718 0.0259,31.348005 l 0,-0.770117 c 0.669718,-1.1221 3.88602,-2.43319 15.4023,-2.84069 z"
   inkscape:connector-curvature="0"
   style="fill:#000000;fill-opacity:0.01568598" />
    <path
   id="_75706112"
   class="fil4"
   d="m 15.4626,27.9746 c 11.1313,-0.370884 15.5382,1.00753 16.4961,2.34106 l 0,0.902407 C 30.66769,32.090945 23.56774,31.50627 15.9516,31.714154 7.60788,31.940937 0.2091,32.120473 0.026,31.155465 l 0,-0.111029 c 0.120478,-1.11974 2.99779,-2.65407 15.4366,-3.06984 z"
   inkscape:connector-curvature="0"
   style="fill:#000000;fill-opacity:0.01960802" />
    <path
   id="_73262456"
   class="fil5"
   d="m 15.4968,28.2097 c 11.3132,-0.353167 15.8996,1.14809 16.4618,2.45209 l 0,0.433486 c -0.72287,0.966189 -8.10512,0.386239 -15.9929,0.57995 -8.32954,0.204341 -15.798,0.361435 -15.798,-0.540972 0,-1.04887 3.26118,-2.54658 15.3291,-2.92455 z"
   inkscape:connector-curvature="0"
   style="fill:#000000;fill-opacity:0.02352899" />
    <path
   id="_113526640"
   class="fil6"
   d="m 15.5311,28.4447 c 11.4183,-0.329544 16.3012,1.27683 16.3366,2.51705 0.03662,1.06777 -7.67991,0.496087 -15.889,0.674443 C 7.76963,31.814548 0.313,31.948019 0.313,31.150736 c 0,-0.974457 3.79979,-2.37531 15.2181,-2.70604 z"
   inkscape:connector-curvature="0"
   style="fill:#000000;fill-opacity:0.02745098" />
    <path
   id="_113854776"
   class="fil7"
   d="m 15.5665,28.6845 c 10.7675,-0.283479 16.1205,1.19533 16.1512,2.32334 0.03071,0.924849 -7.6362,0.439392 -15.7248,0.592943 -8.08977,0.153551 -15.5346,0.263399 -15.5346,-0.431124 0,-0.897682 4.3384,-2.20168 15.1082,-2.48516 z"
   inkscape:connector-curvature="0"
   style="fill:#000000;fill-opacity:0.03137303" />
    <path
   id="_115275200"
   class="fil8"
   d="m 15.6008,28.9195 c 10.119,-0.236232 15.9409,1.1162 15.9669,2.13081 0.0248,0.781928 -7.5925,0.383877 -15.563,0.511442 -7.96811,0.127565 -15.4012,0.21379 -15.4012,-0.375609 0,-0.823269 4.87701,-2.03041 14.9972,-2.26665 z"
   inkscape:connector-curvature="0"
   style="fill:#000000;fill-opacity:0.035294" />
    <path
   id="_112163504"
   class="fil9"
   d="m 15.635,29.1546 c 9.46936,-0.188986 15.7614,1.03706 15.7815,1.9371 0.02126,0.64137 -7.54762,0.329544 -15.3976,0.431124 C 8.17009,31.625585 0.75,31.687005 0.75,31.201548 c 0,-0.747675 5.41444,-1.85797 14.885,-2.04695 z"
   inkscape:connector-curvature="0"
   style="fill:#000000;fill-opacity:0.04313702" />
    <path
   id="_119166672"
   class="fil10"
   d="m 15.6693,29.392 c 8.82091,-0.140558 15.5819,0.957921 15.5972,1.74457 0.01535,0.49845 -7.50391,0.274029 -15.2346,0.350805 -7.72833,0.07559 -15.1366,0.113391 -15.1366,-0.266942 0,-0.673261 5.95305,-1.6867 14.774,-1.82844 z"
   inkscape:connector-curvature="0"
   style="fill:#000000;fill-opacity:0.047059" />
    <path
   id="_117887424"
   class="fil11"
   d="m 15.7047,29.6294 c 8.17009,-0.09449 15.4012,0.876421 15.4118,1.55086 0.0094,0.355529 -7.46021,0.217334 -15.0704,0.269305 -7.60904,0.05079 -15.0055,0.06378 -15.0055,-0.212609 0,-0.597667 6.49166,-1.51307 14.6641,-1.60756 z"
   inkscape:connector-curvature="0"
   style="fill:#000000;fill-opacity:0.05097997" />
    <path
   id="_121457816"
   class="fil12"
   d="m 15.739,29.8668 c 7.52163,-0.04725 15.2216,0.797283 15.2263,1.35715 0.0059,0.214971 -7.41533,0.163 -14.9062,0.188986 -7.48856,0.0248 -14.872,0.01417 -14.872,-0.157094 0,-0.523254 7.02909,-1.3418 14.5519,-1.38904 z"
   inkscape:connector-curvature="0"
   style="fill:#000000;fill-opacity:0.05490202" />
   </g>
   <path
   id="_121774872"
   class="fil13"
   d="m 15.7709,30.1031 c 6.87317,0 15.0433,0.718146 15.0433,1.16462 0,0.145283 -29.4841,0.140558 -29.4841,0.0047 0,-0.44766 7.5677,-1.16935 14.4409,-1.16935 z"
   inkscape:connector-curvature="0"
   style="fill:#000000;fill-opacity:0.05882401" />
  </g>
  <path
   class="fil14"
   d="m 4.31242,24.2091 23.5287,0 c 0.386239,0 0.707515,-0.400413 0.70279,-0.890595 l -0.196073,-18.6659 c -0.0059,-0.490182 -0.317732,-0.89532 -0.70279,-0.890595 l -23.185,0.245681 C 4.074989,4.011231 3.761981,4.409286 3.757257,4.898286 l -0.147645,18.4202 c -0.00354,0.489 0.316551,0.890595 0.70279,0.890595 z"
   id="path97"
   style="fill:url(#id17)"
   inkscape:connector-curvature="0" />
  <g
   id="_120933184">
   <polygon
   id="_118885408"
   class="fil15"
   points="3.8872,13.0955 4.67621,13.6424 4.69157,15.7496 3.90255,15.2027 "
   style="fill:#c36332" />
   <path
   id="_124094848"
   class="fil16"
   d="M 4.67621,9.81662 C 4.68093,10.51941 4.68684,11.2222 4.691565,11.92499 4.428166,11.743091 4.165949,11.561193 3.90255,11.378113 3.89783,10.675323 3.89192,9.972533 3.887195,9.269743 4.150594,9.452823 4.413993,9.634722 4.67621,9.81662 z"
   inkscape:connector-curvature="0"
   style="fill:#5589c4" />
   <path
   id="_117442944"
   class="fil15"
   d="m 4.67621,21.1062 c 0.00472,0.701609 0.01063,1.4044 0.015355,2.10837 C 4.428166,23.032671 4.165949,22.849591 3.90255,22.667693 3.89783,21.964903 3.89192,21.262113 3.887195,20.559323 4.150594,20.742403 4.413993,20.92312 4.67621,21.1062 z"
   inkscape:connector-curvature="0"
   style="fill:#c36332" />
   <path
   id="_116393360"
   class="fil16"
   d="m 4.67621,17.2816 c 0.00472,0.701609 0.01063,1.40558 0.015355,2.10837 C 4.428166,19.20689 4.165949,19.024991 3.90255,18.843093 3.89783,18.139121 3.89192,17.437513 3.887195,16.734723 4.150594,16.916622 4.413993,17.09852 4.67621,17.2816 z"
   inkscape:connector-curvature="0"
   style="fill:#5589c4" />
   <path
   id="_197577976"
   class="fil15"
   d="M 4.67621,5.99203 C 4.68093,6.69482 4.68684,7.39761 4.691565,8.1004 4.4281661,7.91732 4.1659491,7.735421 3.9025501,7.553523 3.8978255,6.850733 3.8919197,6.147943 3.887195,5.445153 4.150594,5.628233 4.413993,5.810132 4.67621,5.99203 z"
   inkscape:connector-curvature="0"
   style="fill:#c36332" />
  </g>
  <path
   class="fil17"
   style="fill:#cccccc"
   d="m 28.8947,24.1677 c -0.03898,-0.04725 -0.0815,-0.09331 -0.125203,-0.137015 l -10.7119,-10.9423 c -0.846892,-0.865791 -3.13362,-0.766573 -3.98287,0.09685 l -10.7698,10.9423 c -0.042522,0.0437 -0.085044,0.08977 -0.124022,0.137015 l 25.7139,-0.09686 z"
   id="path105"
   mask="url(#id0)"
   inkscape:connector-curvature="0" />
  <path
   class="fil18"
   d="m 28.3396,23.9445 -0.35671,-0.353167 -10.2832,-10.5029 c -0.846892,-0.865791 -2.24066,-0.863428 -3.08992,0 l -9.60992,9.76583 c -0.146464,0.147645 -0.631921,0.553964 -1.22014,1.04296 0.128746,0.190167 0.320094,0.311826 0.532703,0.311826 l 23.5287,0 c 0.194891,0 0.370884,-0.10158 0.49845,-0.26458 z"
   id="path107"
   style="fill:url(#linearGradient3220)"
   inkscape:connector-curvature="0" />
  <path
   class="fil19"
   d="M 27.9829,23.5913 17.6997,13.0884 c -0.846892,-0.865791 -2.24066,-0.863428 -3.08992,0 l -9.60992,9.76583 -0.00709,0.0071 -0.00827,0.0071 -0.00709,0.0071 -0.00118,0.0012 -0.00827,0.0083 -0.00827,0.0083 -0.00827,0.0071 -0.00236,0.0012 -0.00945,0.0095 -0.01063,0.01063 -0.00709,0.0059 -0.00354,0.0035 -0.011812,0.01063 -0.011812,0.01063 -0.00591,0.0059 -0.00591,0.0047 -0.011812,0.01181 -0.014174,0.01181 -0.00591,0.0047 -0.00709,0.0071 -0.014174,0.01181 -0.014174,0.01299 -0.00591,0.0047 -0.00827,0.0083 -0.015355,0.01299 -0.015355,0.01299 -0.00472,0.0047 -0.011812,0.0094 -0.015355,0.01417 -0.017717,0.01417 -0.00236,0.0035 -0.014174,0.01181 -0.017717,0.01535 -0.017717,0.01536 -0.00118,0 -0.016536,0.01535 -0.018899,0.01535 -0.017717,0.01535 -0.00118,0.0012 -0.018899,0.01654 -0.018899,0.01654 -0.017717,0.01417 -0.00236,0.0024 -0.02008,0.01654 -0.021261,0.01772 -0.015355,0.01299 -0.00472,0.0047 -0.021261,0.01772 -0.021261,0.01772 -0.014174,0.01181 -0.00709,0.0071 -0.022442,0.0189 -0.022442,0.01772 -0.011812,0.01063 -0.01063,0.0094 -0.022442,0.0189 -0.023623,0.0189 -0.01063,0.0083 -0.012993,0.01181 -0.023623,0.02008 -0.12166,0.10158 -0.024804,0.02008 -0.025985,0.02126 -0.00236,0.0035 -0.048428,0.03898 -0.025985,0.02244 -0.00118,0 -0.024804,0.02126 -0.025985,0.02126 -0.024804,0.02126 -0.00236,0.0012 -0.154732,0.128746 -0.00709,0.0071 c 0.128746,0.190167 0.320094,0.311826 0.532703,0.311826 l 1.24612,0 C 5.713262,24.07436 5.83374,23.965693 5.90461,23.892461 l 9.6111,-9.76465 c 0.168906,-0.171268 0.401595,-0.257493 0.64137,-0.257493 0.239776,0 0.472464,0.08386 0.637827,0.252768 l 9.8745,10.0859 1.17171,0 c 0.194891,0 0.370884,-0.10158 0.49845,-0.26458 l -0.35671,-0.353167 z"
   id="path109"
   inkscape:connector-curvature="0"
   style="fill:#ffffff;fill-opacity:0.56078384" />
  <path
   class="fil20"
   d="M 27.9829,23.5913 17.6997,13.0884 c -0.846892,-0.865791 -2.24066,-0.863428 -3.08992,0 l -9.60992,9.76583 -0.00709,0.0071 -0.00827,0.0071 -0.00709,0.0071 -0.00118,0.0012 -0.00827,0.0083 -0.00827,0.0083 -0.00827,0.0071 -0.00236,0.0012 -0.00945,0.0095 -0.01063,0.01063 -0.00709,0.0059 -0.00354,0.0035 -0.011812,0.01063 -0.011812,0.01063 -0.00591,0.0059 -0.00591,0.0047 -0.011812,0.01181 -0.014174,0.01181 -0.00591,0.0047 -0.00709,0.0071 -0.014174,0.01181 -0.014174,0.01299 -0.00591,0.0047 -0.00827,0.0083 -0.015355,0.01299 -0.015355,0.01299 -0.00472,0.0047 -0.011812,0.0094 -0.015355,0.01417 -0.017717,0.01417 -0.00236,0.0035 -0.014174,0.01181 -0.017717,0.01535 -0.017717,0.01536 -0.00118,0 -0.016536,0.01535 -0.018899,0.01535 -0.017717,0.01535 -0.00118,0.0012 -0.018899,0.01654 -0.018899,0.01654 -0.017717,0.01417 -0.00236,0.0024 -0.02008,0.01654 -0.021261,0.01772 -0.015355,0.01299 -0.00472,0.0047 -0.021261,0.01772 -0.021261,0.01772 -0.014174,0.01181 -0.00709,0.0071 -0.022442,0.0189 -0.022442,0.01772 -0.011812,0.01063 -0.01063,0.0094 -0.022442,0.0189 -0.023623,0.0189 -0.01063,0.0083 -0.012993,0.01181 -0.023623,0.02008 -0.12166,0.10158 -0.024804,0.02008 -0.025985,0.02126 -0.00236,0.0035 -0.048428,0.03898 -0.025985,0.02244 -0.00118,0 -0.024804,0.02126 -0.025985,0.02126 -0.024804,0.02126 -0.00236,0.0012 -0.154732,0.128746 -0.00709,0.0071 c 0.069688,0.103942 0.159457,0.187805 0.259855,0.242138 l 0.00709,-0.0059 0.048428,-0.04016 0.00236,-0.0035 0.025985,-0.02126 0.024804,-0.02008 0.12166,-0.10158 0.023623,-0.02008 0.012993,-0.01181 0.01063,-0.0083 0.023623,-0.0189 0.022442,-0.0189 0.01063,-0.0094 0.011812,-0.01063 0.022442,-0.01772 0.022442,-0.0189 0.00709,-0.0059 0.014174,-0.01181 0.021261,-0.0189 0.021261,-0.01772 0.00472,-0.0047 0.015355,-0.01299 0.021261,-0.01772 0.02008,-0.01654 0.00236,-0.0024 0.017717,-0.01417 0.018899,-0.01654 0.018899,-0.01654 0.00118,-0.0012 0.017717,-0.01535 0.018899,-0.01535 0.016536,-0.01535 0.00118,0 0.017717,-0.01535 0.017717,-0.01535 0.014174,-0.01181 0.00236,-0.0024 0.017717,-0.01535 0.015355,-0.01417 0.011812,-0.0094 0.00472,-0.0035 0.015355,-0.01417 0.015355,-0.01299 0.00827,-0.0083 0.00591,-0.0047 0.014174,-0.01299 0.014174,-0.01181 0.00709,-0.0071 0.00591,-0.0047 0.014174,-0.01181 0.011812,-0.01181 0.00591,-0.0047 0.00591,-0.0059 0.011812,-0.01063 0.011812,-0.01063 0.00354,-0.0035 0.00709,-0.0059 0.01063,-0.01063 0.00945,-0.0094 0.00236,-0.0012 0.00827,-0.0071 0.00827,-0.0083 0.00827,-0.0083 0.00118,-0.0012 0.00709,-0.0071 0.00827,-0.0071 0.00709,-0.0071 9.60992,-9.76465 c 0.849254,-0.864609 2.24302,-0.866972 3.08992,0 l 10.2832,10.5017 0.103942,0.102761 c 0.09567,-0.04488 0.181899,-0.116935 0.252768,-0.207884 L 27.9829,23.59128 z"
   id="path111"
   inkscape:connector-curvature="0"
   style="fill:#ffffff" />
  <g
   id="_70606056">
   <g
   id="g114">
    <polygon
   id="_115913528"
   class="fil15"
   points="7.94685,24.1677 8.4512,23.4389 10.4037,23.4177 9.89931,24.1465 "
   style="fill:#c36332" />
    <path
   id="_113462776"
   class="fil16"
   d="m 4.90772,23.4519 c 0.649638,-0.0071 1.30164,-0.01417 1.95246,-0.02126 -0.167725,0.243319 -0.33545,0.485457 -0.504356,0.728776 -0.650819,0.0071 -1.30164,0.01417 -1.95246,0.02126 0.167725,-0.243319 0.33545,-0.486638 0.504356,-0.728776 z"
   inkscape:connector-curvature="0"
   style="fill:#5589c4" />
    <path
   id="_122997432"
   class="fil15"
   d="m 15.3645,23.413 c 0.650819,-0.0071 1.30164,-0.01299 1.95364,-0.02126 -0.167725,0.2445 -0.336631,0.486638 -0.504356,0.728776 -0.650819,0.0071 -1.30164,0.01535 -1.95364,0.02126 C 15.02905,23.898457 15.196775,23.656319 15.3645,23.413 z"
   inkscape:connector-curvature="0"
   style="fill:#c36332" />
    <path
   id="_123258632"
   class="fil16"
   d="m 11.8222,23.426 c 0.650819,-0.0059 1.30164,-0.01299 1.95246,-0.02008 -0.167725,0.243319 -0.336631,0.485457 -0.504356,0.727595 -0.650819,0.0071 -1.30164,0.01535 -1.95246,0.02126 0.167725,-0.242138 0.336631,-0.485457 0.504356,-0.728776 z"
   inkscape:connector-curvature="0"
   style="fill:#5589c4" />
   </g>
   <g
   id="g120">
    <polygon
   id="_113909256"
   class="fil16"
   points="25.5237,24.1677 26.0281,23.4389 27.9805,23.4177 27.4762,24.1465 "
   style="fill:#5589c4" />
    <path
   id="_122777160"
   class="fil15"
   d="m 22.4846,23.4519 c 0.649638,-0.0071 1.30164,-0.01417 1.95246,-0.02126 -0.167725,0.243319 -0.336631,0.485457 -0.504356,0.728776 -0.650819,0.0071 -1.30164,0.01417 -1.95364,0.02126 0.168906,-0.243319 0.336631,-0.486638 0.505537,-0.728776 z"
   inkscape:connector-curvature="0"
   style="fill:#c36332" />
    <path
   id="_113915720"
   class="fil16"
   d="m 18.9411,23.4649 c 0.650819,-0.0071 1.30164,-0.01417 1.95364,-0.02126 -0.168906,0.243319 -0.336631,0.485457 -0.505537,0.728776 -0.650819,0.0071 -1.30164,0.01417 -1.95246,0.02126 0.167725,-0.243319 0.336631,-0.486638 0.504356,-0.728776 z"
   inkscape:connector-curvature="0"
   style="fill:#5589c4" />
   </g>
  </g>
  <polygon
   class="fil21"
   points="4.49432,3.94744 27.4419,3.89547 28.1719,4.27934 28.1719,4.27934 28.4057,4.7837 28.2628,4.7837 28.4057,5.14868 27.736,5.14868 27.6734,5.04828 27.6722,5.0471 27.4454,4.91481 4.4577,4.96442 4.22619,5.10379 4.22619,5.10379 4.11398,5.35184 3.46789,5.35184 3.56356,4.98686 3.46789,4.98686 3.76672,4.33486 "
   id="polygon125"
   style="fill:#ffffff;fill-rule:nonzero" />
  <path
   class="fil22"
   d="m 4.0691,23.7071 23.8949,0 0.0071,0 0,0.0012 c 0.02953,-0.0035 0.06733,-0.02953 0.09922,-0.06969 0.05906,-0.07559 0.09804,-0.184261 0.09804,-0.304739 l -0.0024,-0.0024 0,-0.01299 0.0024,0 -0.197254,-19.0285005 -0.0024,-0.00354 0,-0.00354 0.0024,0 c -0.0024,-0.125203 -0.04252,-0.240957 -0.103942,-0.317732 l 0,-0.00118 c -0.03189,-0.041341 -0.06851,-0.068507 -0.09213,-0.068507 l -0.0059,0.00236 -0.0012,0 0,-0.00236 -23.5263997,0.102761 -0.00118,0 c -0.028348,0 -0.068507,0.028348 -0.102761,0.072051 -0.062601,0.079138 -0.102761,0.196073 -0.103942,0.322457 l -0.168906,18.9257005 0.00236,0 0,0.0083 c 0,0.126384 0.037797,0.237413 0.095674,0.310645 0.033072,0.04134 0.073232,0.07087 0.102761,0.07205 l 0,-0.0024 0.00354,0 z m 23.8949,1.00162 -23.8949,0 -0.00354,0 -0.00236,-0.0024 C 3.711214,24.70512 3.397025,24.531508 3.180873,24.25866 2.988344,24.015341 2.865503,23.683435 2.865503,23.326724 l 0,-0.0083 0.00236,-0.0035 0.168906,-18.9292999 c 0.00236,-0.359073 0.124022,-0.690979 0.314189,-0.931936 l 0.00236,-0.00236 c 0.217334,-0.274029 0.527979,-0.448841 0.881146,-0.450022 l 23.5287,-0.102761 0.0012,0 0.0035,-0.00236 0.0012,0 0,0.00236 c 0.35671,-0.00236 0.667356,0.171268 0.884689,0.450022 0.188986,0.239776 0.311826,0.572863 0.314189,0.930754 l 0.0024,0.00354 0,0.00354 -0.0024,0 0.197254,19.0284999 0.0024,0.0035 0,0.01299 -0.0024,0 c 0.0012,0.35671 -0.12166,0.686254 -0.313008,0.928392 -0.217334,0.272848 -0.52916,0.442935 -0.87524,0.446479 l -0.0059,0.0024 -0.0071,0 z"
   id="path127"
   style="fill:url(#linearGradient3222);fill-rule:nonzero"
   inkscape:connector-curvature="0" />
  <g
   id="_52082032">
   <path
   id="_113122296"
   class="fil23"
   d="m 23.6126,23.0881 c -3.12535,0.614203 -4.62779,-2.8903 -3.62026,-5.23727 0.08504,0.302377 0.448841,-0.232689 0.448841,-0.405138 l -0.0059,0.0059 c 0.06378,-0.07441 0.02953,-0.281116 0.01772,-0.372066 1.71859,-2.13554 4.56755,-0.983907 5.60343,1.03352 -0.07559,-0.0012 -0.126384,0.02717 -0.07796,0.127565 0.08741,0.178355 0.04606,0.197254 0.227964,0.199616 0.08504,0.216152 0.150007,0.440573 0.191348,0.668537 -0.08622,0.03425 -0.06496,0.120478 -0.06496,0.329544 0,0.154732 -0.119297,0.317732 0.02953,0.414587 0.02835,0.0189 0.05551,0.02835 0.07914,0.03189 -0.05551,0.807914 -0.429942,1.64181 -1.25321,2.39894 -0.0059,-0.0071 -1.31345,0.80437 -1.57567,0.80437 z m -2.34697,-0.852798 c 3.30371,2.46626 6.71372,-3.0344 3.4856,-5.44279 -0.695704,-0.519711 -1.40912,-0.686254 -2.06821,-0.601211 -0.02362,-0.0437 -0.09567,-0.115754 -0.114573,-0.128746 -0.04134,-0.02835 -0.291747,-0.05433 -0.337812,-0.01535 -0.07441,0.06142 -0.128746,0.06851 -0.168906,0.198435 l 0.0189,0.09686 c -2.07884,0.784291 -3.27418,4.05729 -0.815001,5.89281 z m 1.21069,-6.00856 c -0.0567,0.01181 -0.113391,0.02599 -0.168906,0.04134 l 0,-0.02244 c 0,-0.07914 0.0248,-0.08268 0.09213,-0.08268 0.05551,0 0.06733,0.03307 0.07678,0.06378 z"
   inkscape:connector-curvature="0"
   style="fill:#633695;fill-opacity:0.21960802;fill-rule:nonzero" />
   <path
   id="_111417960"
   class="fil23"
   d="m 22.8519,17.7552 0.163,-0.03189 0.109848,0.650819 -0.127565,0.0248 c -0.05788,-0.04488 -0.138196,-0.08504 -0.238594,-0.122841 -0.10158,-0.0378 -0.205522,-0.06024 -0.313008,-0.06851 -0.108667,-0.0094 -0.20316,-0.0059 -0.28466,0.01181 l -0.03071,-0.184261 c 0.127565,-0.02126 0.262218,-0.02008 0.403957,0.0083 0.140558,0.02717 0.270486,0.07559 0.389783,0.144102 L 22.8519,17.7552 z m -0.375609,0.874059 0.04961,0.185442 c -0.03898,0.01417 -0.06733,0.03543 -0.08622,0.06733 -0.0189,0.03071 -0.02599,0.06378 -0.02008,0.09804 0.0071,0.04016 0.02835,0.07087 0.0626,0.09331 0.03425,0.02126 0.0815,0.02599 0.141739,0.01417 0.0567,-0.01063 0.09685,-0.03307 0.120478,-0.06614 0.02362,-0.03307 0.03189,-0.07087 0.02362,-0.114573 -0.0083,-0.05551 -0.03898,-0.09922 -0.09213,-0.134652 l -0.0047,-0.158276 0.494906,0.0035 0.08504,0.503174 -0.165362,0.03307 -0.06024,-0.359073 -0.160638,0 c 0.02599,0.03898 0.0437,0.08032 0.05079,0.125203 0.01417,0.08386 -0.0024,0.161819 -0.04961,0.231507 -0.04606,0.06969 -0.114573,0.113391 -0.205522,0.131109 -0.07559,0.01535 -0.147645,0.0047 -0.214971,-0.03071 -0.09213,-0.04843 -0.147645,-0.129928 -0.166544,-0.2445 -0.01654,-0.09213 -0.0059,-0.171268 0.02953,-0.238594 0.03662,-0.06614 0.09213,-0.11221 0.167725,-0.139377 z m 0.129928,0.771298 0.04961,0.186623 c -0.03898,0.01299 -0.06733,0.03425 -0.08622,0.06614 -0.0189,0.03071 -0.0248,0.06378 -0.0189,0.09804 0.0059,0.04016 0.02717,0.07087 0.06142,0.09331 0.03425,0.02126 0.08268,0.02598 0.14292,0.01417 0.05551,-0.01063 0.09567,-0.03307 0.119297,-0.06615 0.02362,-0.03307 0.03189,-0.07205 0.0248,-0.115754 -0.0094,-0.05433 -0.04016,-0.09804 -0.09213,-0.133471 l -0.0059,-0.158276 0.496087,0.0035 0.08386,0.503174 -0.164181,0.03307 -0.06142,-0.360254 -0.160638,0.0012 c 0.02717,0.03898 0.0437,0.08032 0.05197,0.125203 0.01417,0.08386 -0.0024,0.161819 -0.04961,0.231507 -0.04725,0.06969 -0.115754,0.113391 -0.206703,0.131109 -0.07559,0.01535 -0.146464,0.0047 -0.214971,-0.03071 -0.09213,-0.04843 -0.147645,-0.131109 -0.166544,-0.2445 -0.01535,-0.09213 -0.0047,-0.171268 0.03071,-0.238594 0.03662,-0.06615 0.09095,-0.113391 0.166544,-0.139377 z m 0.636646,0.668537 0.163,-0.03189 0.109848,0.650819 -0.127565,0.0248 c -0.05788,-0.0437 -0.137015,-0.08504 -0.238594,-0.122841 -0.100399,-0.0378 -0.205522,-0.06024 -0.313008,-0.06969 -0.107486,-0.0083 -0.201978,-0.0047 -0.283479,0.01181 l -0.03189,-0.18308 c 0.128746,-0.02126 0.262218,-0.0189 0.403957,0.0083 0.141739,0.02717 0.271667,0.07559 0.390964,0.144102 l -0.07323,-0.432305 z m 0.129928,0.771298 0.164181,-0.03189 0.109848,0.650819 -0.128746,0.0248 c -0.0567,-0.0437 -0.137015,-0.08504 -0.237413,-0.122841 -0.10158,-0.03662 -0.205522,-0.06024 -0.314189,-0.06851 -0.107486,-0.0094 -0.201978,-0.0059 -0.283479,0.01063 l -0.03071,-0.18308 c 0.127565,-0.02244 0.262218,-0.0189 0.402776,0.0083 0.141739,0.02835 0.271667,0.07559 0.390964,0.145283 l -0.07323,-0.433486 z"
   inkscape:connector-curvature="0"
   style="fill:#633695;fill-opacity:0.21960802;fill-rule:nonzero" />
   <path
   id="_115643912"
   class="fil23"
   d="m 20.2427,18.7474 0.167725,-0.535066 0.622472,0.226783 -0.04252,0.135833 -0.517348,-0.188986 -0.08268,0.263399 0.517348,0.188986 -0.04252,0.135833 -0.622472,-0.226783 z m 0.584674,-0.642551 c -0.05315,-0.04488 -0.09095,-0.09095 -0.113391,-0.138196 -0.01654,-0.03543 -0.02835,-0.07323 -0.03189,-0.113391 -0.0047,-0.03898 -0.0024,-0.07559 0.0059,-0.111029 0.01181,-0.04606 0.03543,-0.09213 0.06851,-0.137015 0.06142,-0.0815 0.13229,-0.126384 0.216152,-0.134652 0.08268,-0.0083 0.166544,0.02244 0.250406,0.09449 0.08268,0.07205 0.128746,0.15237 0.139377,0.242138 0.01063,0.08859 -0.01417,0.173631 -0.07441,0.255131 -0.06024,0.08268 -0.13229,0.127565 -0.214971,0.135833 -0.08268,0.0083 -0.164181,-0.02244 -0.245681,-0.09331 z m 0.0815,-0.118116 c 0.05788,0.05079 0.11221,0.07441 0.164181,0.07087 0.05079,-0.0035 0.09331,-0.02717 0.126384,-0.07205 0.03307,-0.04488 0.04606,-0.09331 0.03662,-0.148826 -0.0083,-0.05315 -0.04252,-0.106304 -0.10158,-0.157094 -0.05906,-0.05079 -0.113391,-0.07559 -0.163,-0.07205 -0.04961,0.0024 -0.09095,0.02717 -0.125203,0.07323 -0.03425,0.04606 -0.04725,0.09567 -0.03898,0.150007 0.0083,0.05315 0.04252,0.105123 0.10158,0.155913 z m 0.271667,-0.846892 0.107486,-0.08268 0.09095,0.137015 c 0.02953,0.04606 0.05079,0.07323 0.06378,0.08622 0.01299,0.01181 0.02953,0.01772 0.05197,0.01772 0.02244,-0.0012 0.04843,-0.01299 0.07678,-0.03425 0.02362,-0.0189 0.04252,-0.03662 0.0567,-0.0567 0.01417,-0.0189 0.02481,-0.03898 0.03189,-0.05906 l -0.164181,-0.249225 0.108667,-0.08386 0.379153,0.578769 -0.107486,0.08268 -0.153551,-0.232689 c -0.01417,0.02717 -0.03071,0.05197 -0.04843,0.07441 -0.0189,0.02126 -0.0378,0.04016 -0.05788,0.05551 -0.05315,0.04016 -0.106304,0.06142 -0.160638,0.06142 -0.05433,0 -0.102761,-0.03307 -0.146464,-0.100399 l -0.128746,-0.194891 z m 1.07367,0.151189 -0.198435,-0.54924 -0.181899,0.07677 -0.04016,-0.11221 0.486638,-0.205522 0.04134,0.11221 -0.181899,0.07678 0.198435,0.54924 -0.124022,0.05197 z m 0.930754,-0.148826 -0.144102,0.0059 -0.06378,-0.158276 -0.262218,0.01181 -0.04725,0.163 -0.141739,0.0059 0.229145,-0.719327 0.140558,-0.0059 0.289384,0.696885 z m -0.25395,-0.269305 -0.10158,-0.259855 -0.07796,0.266942 0.179536,-0.0071 z m 0.582312,0.321276 0.220877,-0.667356 0.200797,0.07678 c 0.07559,0.02953 0.124022,0.05197 0.145283,0.06851 0.03189,0.02244 0.05433,0.0567 0.06733,0.09922 0.01181,0.04252 0.01063,0.09095 -0.0071,0.144102 -0.01417,0.04134 -0.03189,0.07205 -0.05551,0.09449 -0.02244,0.02362 -0.04725,0.0378 -0.07441,0.04607 -0.02599,0.0071 -0.05197,0.01063 -0.07441,0.0071 -0.03189,-0.0047 -0.07678,-0.0189 -0.133471,-0.04134 l -0.0815,-0.03071 -0.08386,0.251587 -0.124022,-0.04843 z m 0.308283,-0.505537 -0.0626,0.188986 0.06851,0.02598 c 0.04961,0.02008 0.08268,0.02835 0.10158,0.02717 0.02008,0 0.03543,-0.0059 0.05079,-0.01654 0.01417,-0.01181 0.0248,-0.02717 0.03071,-0.04725 0.0083,-0.02362 0.0083,-0.04607 0,-0.06733 -0.0071,-0.02126 -0.02126,-0.0378 -0.04016,-0.04961 -0.01417,-0.0083 -0.0437,-0.02126 -0.08859,-0.03898 l -0.06024,-0.02244 z m 0.42758,0.435848 c 0.04016,-0.05788 0.0815,-0.09922 0.124022,-0.126384 0.03189,-0.0189 0.06733,-0.03189 0.102761,-0.03898 0.0378,-0.0059 0.07205,-0.0047 0.103942,0.0035 0.0437,0.01181 0.08622,0.03425 0.128746,0.06851 0.07796,0.0626 0.122841,0.139377 0.133471,0.229145 0.01063,0.08859 -0.01654,0.179536 -0.08032,0.271667 -0.0626,0.09331 -0.135833,0.146464 -0.218515,0.160638 -0.0815,0.01417 -0.160638,-0.0094 -0.238594,-0.07087 -0.07796,-0.06378 -0.122841,-0.139377 -0.133471,-0.227964 -0.01063,-0.08859 0.01535,-0.178355 0.07796,-0.269305 z m 0.11221,0.08504 c -0.04488,0.06378 -0.06378,0.124022 -0.06024,0.179536 0.0047,0.05551 0.02835,0.100399 0.07087,0.134652 0.04252,0.03307 0.08859,0.04488 0.139377,0.03307 0.04961,-0.01063 0.09686,-0.04961 0.14292,-0.115754 0.04489,-0.06496 0.06496,-0.124022 0.06142,-0.177174 -0.0059,-0.05315 -0.02953,-0.09804 -0.07323,-0.13229 -0.0437,-0.03662 -0.09095,-0.04725 -0.139377,-0.0378 -0.04961,0.01181 -0.09686,0.04961 -0.141739,0.115754 z m 0.719327,0.916581 0.03898,0.139377 c -0.06969,0.02598 -0.13229,0.02953 -0.187805,0.0094 -0.05433,-0.0189 -0.10158,-0.06024 -0.141739,-0.124022 -0.04843,-0.07678 -0.06496,-0.159457 -0.04725,-0.245681 0.01772,-0.08622 0.06969,-0.160638 0.154732,-0.22442 0.08977,-0.06615 0.175993,-0.09331 0.257493,-0.07914 0.08268,0.01417 0.148826,0.06142 0.200797,0.14292 0.04606,0.07205 0.0626,0.145283 0.05197,0.218515 -0.0059,0.0437 -0.02717,0.08859 -0.06142,0.133471 l -0.100399,-0.09804 c 0.02362,-0.02835 0.03662,-0.05906 0.03898,-0.09213 0.0024,-0.03425 -0.0071,-0.06733 -0.02599,-0.09804 -0.02835,-0.0437 -0.06496,-0.06851 -0.109848,-0.07441 -0.04725,-0.0047 -0.10158,0.01535 -0.166544,0.06378 -0.06851,0.04961 -0.108667,0.09922 -0.12166,0.147645 -0.01181,0.04725 -0.0047,0.09331 0.02244,0.135833 0.02008,0.03189 0.04606,0.05197 0.07914,0.06142 0.03307,0.0083 0.07205,0.0024 0.118116,-0.01654 z m 0.288203,0.725233 0,0.146464 c -0.07441,0.0024 -0.134652,-0.01417 -0.181899,-0.04961 -0.04725,-0.03662 -0.0815,-0.09095 -0.10158,-0.163 -0.02598,-0.08977 -0.02008,-0.173631 0.02008,-0.251587 0.04134,-0.07678 0.111029,-0.131109 0.209065,-0.164181 0.103942,-0.03543 0.19371,-0.03425 0.268123,0.0047 0.07441,0.03898 0.125203,0.105123 0.153551,0.200797 0.02362,0.08268 0.02008,0.157094 -0.01063,0.22442 -0.01772,0.04016 -0.04961,0.07559 -0.09449,0.108667 l -0.06969,-0.126384 c 0.03071,-0.01772 0.05079,-0.0437 0.0626,-0.0756 0.01181,-0.03189 0.01181,-0.06614 0.0012,-0.10158 -0.01417,-0.05079 -0.04252,-0.08622 -0.08504,-0.105123 -0.04252,-0.02008 -0.100399,-0.0189 -0.175993,0.0071 -0.07914,0.02717 -0.131109,0.06142 -0.155913,0.102761 -0.0248,0.04252 -0.02953,0.08859 -0.01535,0.137015 0.01063,0.0378 0.02953,0.06496 0.05906,0.08386 0.02953,0.0189 0.06851,0.02599 0.116935,0.02126 z m 0.487819,0.343718 -0.0012,0.133471 -0.438211,-0.0047 0.434667,0.291747 -0.0012,0.14292 -0.656725,-0.0083 0.0012,-0.133471 0.428761,0.0047 -0.426399,-0.291747 0.0024,-0.14292 0.656725,0.0083 z m -0.03898,0.92603 -0.0378,0.127565 -0.41695,-0.14292 0.33545,0.41695 -0.03898,0.135833 -0.627196,-0.214971 0.0378,-0.127565 0.408681,0.140558 -0.327181,-0.414587 0.04016,-0.135833 0.626015,0.214971 z m -2.01978,1.7493 -0.04961,-0.113391 0.398051,-0.204341 c 0.01536,0.04488 0.02008,0.09331 0.01536,0.14292 -0.0047,0.04961 -0.0248,0.122841 -0.06024,0.218515 -0.02953,0.07796 -0.04488,0.128746 -0.04961,0.153551 -0.0035,0.03307 0,0.0626 0.01063,0.08741 0.01181,0.02717 0.02835,0.04489 0.04843,0.05315 0.02008,0.0071 0.04252,0.0047 0.06615,-0.0083 0.02362,-0.01181 0.03898,-0.02835 0.04607,-0.05197 0.0071,-0.02244 0.0047,-0.05197 -0.0095,-0.08859 l 0.119297,-0.04607 c 0.02244,0.07087 0.02244,0.131109 0,0.178355 -0.02244,0.04725 -0.06142,0.08504 -0.114573,0.11221 -0.05906,0.02953 -0.11221,0.03662 -0.160638,0.02008 -0.04843,-0.01772 -0.08386,-0.05079 -0.105123,-0.10158 -0.01299,-0.02953 -0.02008,-0.05906 -0.02244,-0.09095 -0.0012,-0.03071 0.0012,-0.06496 0.0095,-0.105123 0.0059,-0.02598 0.0189,-0.06614 0.03898,-0.119297 0.02008,-0.05433 0.03189,-0.08977 0.03662,-0.106304 0.0047,-0.01654 0.0071,-0.03189 0.0094,-0.04488 l -0.226783,0.114573 z m -0.523254,0.125203 -0.02362,-0.122841 0.432305,-0.09331 c 0.0047,0.04725 -0.0012,0.09449 -0.01654,0.141739 -0.01654,0.04606 -0.05197,0.11221 -0.107486,0.196073 -0.04606,0.06851 -0.07323,0.113391 -0.08268,0.135833 -0.01063,0.03189 -0.01417,0.06024 -0.0094,0.08741 0.0059,0.02953 0.01772,0.05079 0.03543,0.06378 0.01654,0.01299 0.03898,0.01654 0.06496,0.01063 0.02598,-0.0059 0.04488,-0.01772 0.05788,-0.0378 0.01181,-0.02008 0.01536,-0.05079 0.01063,-0.08977 l 0.125203,-0.01299 c 0.0059,0.07441 -0.0071,0.13229 -0.04016,0.172449 -0.03189,0.04016 -0.07796,0.06733 -0.135833,0.08032 -0.06378,0.01299 -0.116935,0.0047 -0.160638,-0.02362 -0.04252,-0.02953 -0.06969,-0.07205 -0.07914,-0.126384 -0.0059,-0.03071 -0.0071,-0.0626 -0.0024,-0.09331 0.0059,-0.03071 0.01654,-0.0626 0.03307,-0.09922 0.01181,-0.02362 0.03307,-0.05906 0.06496,-0.106304 0.03189,-0.04607 0.05197,-0.07796 0.05906,-0.09213 0.0095,-0.01535 0.01536,-0.02953 0.0189,-0.04252 l -0.2445,0.05197 z m -0.433486,0.245681 c -0.01181,0.06969 -0.03189,0.128746 -0.06024,0.172449 -0.02126,0.03307 -0.04607,0.06024 -0.07678,0.08268 -0.03071,0.02362 -0.06142,0.03898 -0.09449,0.04606 -0.0437,0.01063 -0.09095,0.01063 -0.144102,-0.0012 -0.09449,-0.01772 -0.165362,-0.06614 -0.211428,-0.141739 -0.04606,-0.07441 -0.05906,-0.168906 -0.04016,-0.282297 0.02008,-0.113391 0.06378,-0.194891 0.13229,-0.246863 0.06733,-0.05197 0.148826,-0.06851 0.243319,-0.04961 0.09567,0.02008 0.166544,0.06614 0.212609,0.141739 0.04607,0.07441 0.05906,0.167725 0.03898,0.278754 z m -0.134652,-0.02362 c 0.01417,-0.07796 0.0071,-0.141739 -0.0189,-0.188986 -0.02717,-0.04843 -0.06614,-0.07678 -0.118116,-0.08741 -0.05197,-0.01063 -0.09804,0.0012 -0.138196,0.03425 -0.04134,0.03425 -0.06851,0.09213 -0.08268,0.172449 -0.01299,0.07914 -0.0083,0.141739 0.01772,0.187805 0.02599,0.04606 0.06496,0.07441 0.119297,0.08504 0.05433,0.01181 0.100399,0 0.140558,-0.03189 0.03898,-0.03425 0.06614,-0.08977 0.08032,-0.171268 z m -0.652001,-0.575225 -0.252768,0.522073 0.172449,0.09686 -0.05197,0.107486 -0.461834,-0.262218 0.05079,-0.106304 0.172449,0.09686 0.25395,-0.522073 0.116935,0.06733 z m -0.809095,0.292928 -0.344899,-0.318913 0.35671,-0.448841 -0.0437,-0.04016 0.165362,-0.207884 0.08386,0.07796 -0.09331,0.116935 0.314189,0.291747 0.09331,-0.116935 0.08386,0.07678 -0.165362,0.207884 -0.04252,-0.04016 c -0.05788,0.02717 -0.113391,0.06851 -0.168906,0.122841 -0.05433,0.05433 -0.119297,0.128746 -0.192529,0.222058 l -0.04607,0.0567 z m -0.02362,-0.179536 c 0.129928,-0.163 0.238594,-0.269305 0.324819,-0.318913 l -0.188986,-0.175993 -0.28466,0.357892 0.148826,0.137015 z m 0.03189,-0.816182 -0.555145,0.380334 -0.261036,-0.444116 0.09449,-0.06496 0.188986,0.323638 0.122841,-0.08386 -0.175993,-0.301196 0.09331,-0.06378 0.177174,0.300015 0.151189,-0.102761 -0.197254,-0.334268 0.09449,-0.06496 0.266942,0.455928 z m -0.94611,-0.441754 -0.12166,-0.47837 0.633102,-0.187805 0.03544,0.138196 -0.526798,0.155913 0.05315,0.205522 0.270486,-0.08032 c 0.07677,-0.02244 0.13229,-0.03543 0.164181,-0.04016 0.03189,-0.0024 0.05906,0.0035 0.08268,0.02008 0.02244,0.01654 0.03898,0.04843 0.05079,0.09449 0.0047,0.01536 0.01063,0.04489 0.0189,0.08859 l -0.09922,0.02953 -0.0083,-0.03071 c -0.0071,-0.02953 -0.01535,-0.04725 -0.0248,-0.05551 -0.01063,-0.0071 -0.02953,-0.0071 -0.05788,0.0012 l -0.108667,0.03189 -0.361435,0.107486 z"
   inkscape:connector-curvature="0"
   style="fill:#633695;fill-opacity:0.21960802;fill-rule:nonzero" />
  </g>
  <g
   id="_76151720">
   <path
   id="_196619288"
   class="fil24"
   d="M 3.92618,5.96368 C 4.026579,5.8774553 4.141151,5.829028 4.262811,5.829028 l 24.2965,0 c 0.122841,0 0.239776,0.05079 0.341355,0.139377 l 0,0.386239 C 28.799086,6.266057 28.682151,6.215267 28.559311,6.215267 l -24.2965,0 c -0.12166,0 -0.236232,0.049609 -0.336631,0.134652 l 0,-0.386239 z"
   inkscape:connector-curvature="0"
   style="fill:#bab8b8;fill-opacity:0.43921599" />
   <g
   id="g135">
    <path
   id="_118762912"
   class="fil25"
   d="M 3.92618,5.78178 C 4.02776,5.694374 4.142332,5.645947 4.262811,5.645947 c 8.09922,0 16.1984,0 24.2977,0 0.127565,0 0.243319,0.053152 0.340174,0.146464 l 0,0.386239 c -0.09685,-0.093312 -0.212609,-0.146464 -0.340174,-0.146464 -8.09922,0 -16.1984,0 -24.2977,0 -0.120478,0 -0.235051,0.049609 -0.336631,0.135833 l 0,-0.386239 z"
   inkscape:connector-curvature="0"
   style="fill:#bab8b8;fill-opacity:0.36862703" />
    <path
   id="_115874256"
   class="fil26"
   d="M 3.92618,5.5987 C 4.02776,5.512475 4.142332,5.464048 4.262811,5.464048 c 8.09922,0 16.1984,0 24.2977,0 0.134652,0 0.248044,0.056696 0.340174,0.155913 l 0,0.386239 c -0.09213,-0.099217 -0.205522,-0.155913 -0.340174,-0.155913 -8.09922,0 -16.1984,0 -24.2977,0 -0.120478,0 -0.235051,0.048428 -0.336631,0.135833 l 0,-0.387421 z"
   inkscape:connector-curvature="0"
   style="fill:#bab8b8;fill-opacity:0.29411801" />
    <path
   id="_114601792"
   class="fil27"
   d="M 3.92618,5.41562 C 4.02776,5.329395 4.142332,5.280968 4.262811,5.280968 c 8.09922,0 16.1984,0 24.2977,0 0.141739,0 0.25395,0.060239 0.340174,0.168906 l 0,0.386239 C 28.81446,5.728627 28.70225,5.667207 28.560511,5.667207 c -8.09922,0 -16.1984,0 -24.2977,0 -0.120478,0 -0.235051,0.049609 -0.336631,0.135833 l 0,-0.387421 z"
   inkscape:connector-curvature="0"
   style="fill:#bab8b8;fill-opacity:0.21960802" />
    <path
   id="_112303784"
   class="fil28"
   d="M 3.92618,5.23372 C 4.02776,5.147495 4.142332,5.099068 4.262811,5.099068 c 8.09922,0 16.1984,0 24.2977,0 0.15237,0 0.262218,0.068507 0.340174,0.187805 l 0,0.386239 C 28.822728,5.553815 28.71288,5.485307 28.560511,5.485307 c -8.09922,0 -16.1984,0 -24.2977,0 -0.120478,0 -0.235051,0.049609 -0.336631,0.135833 l 0,-0.387421 z"
   inkscape:connector-curvature="0"
   style="fill:#bab8b8;fill-opacity:0.14509798" />
    <path
   id="_110587504"
   class="fil29"
   d="M 3.92618,5.05182 C 4.02776,4.965595 4.142332,4.915987 4.262811,4.915987 c 8.09922,0 16.1984,0 24.2977,0 0.166544,0 0.272848,0.079138 0.340174,0.216152 l 0,0.387421 c -0.06733,-0.138196 -0.173631,-0.216152 -0.340174,-0.216152 -8.09922,0 -16.1984,0 -24.2977,0 -0.120478,0 -0.235051,0.048428 -0.336631,0.134652 l 0,-0.386239 z"
   inkscape:connector-curvature="0"
   style="fill:#bab8b8;fill-opacity:0.07450998" />
   </g>
   <path
   id="_196833160"
   class="fil30"
   d="M 3.92618,4.86874 C 4.026579,4.7825153 4.141151,4.734088 4.262811,4.734088 l 24.2965,0 c 0.188986,0 0.288203,0.096855 0.341355,0.266942 l 0,0.386239 C 28.847514,5.217182 28.748296,5.120327 28.559311,5.120327 l -24.2965,0 c -0.12166,0 -0.236232,0.048428 -0.336631,0.134652 l 0,-0.386239 z"
   inkscape:connector-curvature="0"
   style="fill:#bab8b8;fill-opacity:0" />
  </g>
  <path
   class="fil31"
   d="m 1.69615,30.8555 c -0.225602,0 -0.387421,-0.270486 -0.565776,-0.399232 0.00118,-0.126384 -0.047246,-0.06024 -0.042522,-0.192529 l 4.09036,-3.6616 20.7459,0.780747 3.21394,0.928392 1.70441,1.95246 c 0,0 0.0024,0.172449 -0.107486,0.460653 -0.151189,0.08386 -0.321276,0.131109 -0.499631,0.131109 -9.51307,0 -19.0273,0 -28.5392,0 z"
   id="path143"
   inkscape:connector-curvature="0"
   style="fill:#ffec80;fill-opacity:0.78039198" />
  <path
   class="fil32"
   d="M 1.04533,30.4409 C 0.803192,30.203487 0.649641,29.853863 0.649641,29.465261 l -0.029529,-7.36808 2.28909,-2.07648 c -0.204341,2.53241 0.174812,8.33899 0.174812,8.33899 l -1.89931,2.09892 -0.139377,-0.01772 z"
   id="path145"
   inkscape:connector-curvature="0"
   style="fill:#a2672b" />
  <path
   class="fil32"
   d="m 30.9688,30.4409 c 0.242138,-0.237413 0.395689,-0.587037 0.39687,-0.975639 l -0.0047,-7.36808 -2.28791,-2.07648 c 0.20316,2.53241 -0.141739,8.33899 -0.141739,8.33899 l 1.89812,2.09892 0.139377,-0.01772 z"
   id="path147"
   inkscape:connector-curvature="0"
   style="fill:#a2672b" />
  <path
   class="fil33"
   d="m 3.18441,29.177 25.5934,-0.07323 c 0.412225,-0.0012 0.652001,-2.64698 0.652001,-3.13716 l 0,-18.8868 c 0,-0.490182 -0.338993,-0.892957 -0.748856,-0.890595 L 2.769855,6.45852 C 2.359992,6.46088 2.436768,8.91061 2.436768,9.39961 l 0,18.8868 c 0,0.489 0.33545,0.891776 0.747675,0.890595 z"
   id="path149"
   style="fill:url(#id10)"
   inkscape:connector-curvature="0" />
  <g
   id="_119680840">
   <polygon
   id="_73257248"
   class="fil34"
   points="2.65761,17.819 4.03957,19.2045 4.06555,21.3129 2.68478,19.9262 "
   style="fill:url(#id14)" />
   <polygon
   id="_112829920"
   class="fil35"
   points="2.65761,14.0676 4.03957,15.2547 4.06555,17.3631 2.68478,16.176 "
   style="fill:url(#id9)" />
   <path
   id="_75898720"
   class="fil15"
   d="m 3.96279,25.5119 c 0.00827,0.70279 0.017717,1.40558 0.025985,2.10837 -0.460653,-0.181899 -0.920124,-0.364979 -1.38078,-0.546877 -0.00827,-0.70279 -0.018899,-1.40558 -0.027167,-2.10837 0.460653,0.18308 0.921305,0.364979 1.38196,0.546877 z"
   inkscape:connector-curvature="0"
   style="fill:#c36332" />
   <path
   id="_115702784"
   class="fil16"
   d="m 3.96279,21.6873 c 0.00827,0.70279 0.017717,1.40558 0.025985,2.10837 -0.460653,-0.18308 -0.920124,-0.364979 -1.38078,-0.546877 -0.00827,-0.70279 -0.018899,-1.40558 -0.027167,-2.10837 0.460653,0.181899 0.921305,0.364979 1.38196,0.546877 z"
   inkscape:connector-curvature="0"
   style="fill:#5589c4" />
   <polygon
   id="_114614728"
   class="fil36"
   points="2.65761,10.3434 4.11398,11.7537 4.13997,13.8621 2.68478,12.4518 "
   style="fill:url(#id15)" />
  </g>
  <polygon
   class="fil37"
   points="29.1853,18.0682 27.9108,19.2045 27.886,21.3129 29.1605,20.1766 "
   id="polygon157"
   style="fill:url(#linearGradient3224)" />
  <polygon
   class="fil38"
   points="29.1853,14.3168 27.9108,15.2547 27.886,17.3631 29.1605,16.4252 "
   id="polygon159"
   style="fill:url(#linearGradient3226)" />
  <path
   class="fil15"
   d="m 27.9817,25.5119 c -0.0083,0.701609 -0.01654,1.40558 -0.0248,2.10837 0.425218,-0.181899 0.849254,-0.114573 1.27447,-0.296471 0.0083,-0.703972 0.01772,-1.40676 0.0248,-2.10955 -0.425218,0.18308 -0.850436,0.115754 -1.27447,0.297652 z"
   id="path161"
   inkscape:connector-curvature="0"
   style="fill:#c36332" />
  <path
   class="fil16"
   d="m 27.9817,21.6873 c -0.0083,0.70279 -0.01654,1.40558 -0.0248,2.10837 0.425218,-0.181899 0.849254,-0.115754 1.27447,-0.297652 0.0083,-0.70279 0.01772,-1.4044 0.0248,-2.10837 -0.425218,0.18308 -0.850436,0.115754 -1.27447,0.297652 z"
   id="path163"
   inkscape:connector-curvature="0"
   style="fill:#5589c4" />
  <polygon
   class="fil39"
   points="29.1853,10.5926 27.8423,11.7537 27.8175,13.8621 29.1605,12.701 "
   id="polygon165"
   style="fill:url(#id12)" />
  <path
   class="fil17"
   style="fill:#cccccc"
   d="m 29.6566,29.1109 c -0.04134,-0.04725 -0.08623,-0.09331 -0.13229,-0.137015 l -2.33161,-2.91983 -9.07722,-8.70515 c -0.902407,-0.866972 -3.33678,-0.767754 -4.24155,0.09686 l -9.8556,9.40322 -1.61228,2.22176 c -0.037797,0.05079 -0.090949,0.08977 -0.133471,0.137015 l 27.384,-0.09685 z"
   id="path167"
   mask="url(#id2)"
   inkscape:connector-curvature="0" />
  <path
   class="fil17"
   style="fill:#cccccc"
   d="m 29.6566,28.662 c -0.04134,-0.04725 -0.08623,-0.09331 -0.13229,-0.137015 l -2.33161,-2.91983 -9.07722,-8.70515 c -0.902407,-0.866972 -3.33678,-0.767754 -4.24155,0.09686 l -9.8556,9.40322 -1.61228,2.22176 c -0.037797,0.05079 -0.090949,0.08977 -0.133471,0.137015 l 27.384,-0.09686 z"
   id="path169"
   mask="url(#id4)"
   inkscape:connector-curvature="0" />
  <path
   class="fil40"
   d="m 29.9554,28.7955 c -0.04252,-0.04843 -0.08859,-0.09449 -0.135833,-0.139377 l -2.38122,-2.98361 -9.27565,-8.89532 c -0.922486,-0.88587 -3.41001,-0.784291 -4.33486,0.09804 l -10.0706,9.60874 -1.64772,2.27019 c -0.037797,0.05197 -0.093312,0.09213 -0.135833,0.140558 l 27.9817,-0.09922 z"
   id="path171"
   inkscape:connector-curvature="0"
   style="fill:#c2c2c2;fill-opacity:0.43921599" />
  <path
   class="fil41"
   d="m 29.066,28.8876 -0.380334,-0.353167 -10.9505,-11.1856 c -0.87524,-0.894138 -2.38594,-0.864609 -3.29189,0 l -10.2336,9.76465 c -0.154732,0.147645 -0.67208,1.23786 -1.29928,1.72568 0.137015,0.191348 0.341355,0.313008 0.566957,0.313008 l 25.0571,0 c 0.207884,0 0.395689,-0.10158 0.531522,-0.26458 z"
   id="path173"
   style="fill:url(#id16)"
   inkscape:connector-curvature="0" />
  <path
   class="fil19"
   d="m 28.6857,28.5345 -1.12565,-1.76229 -9.82489,-9.4233 c -0.902407,-0.865791 -2.38594,-0.864609 -3.29189,0 l -9.97254,9.51543 c -0.487819,0.465377 -1.02288,1.55677 -1.55204,1.96899 l -0.00827,0.0059 c 0.137015,0.191348 0.341355,0.313008 0.566957,0.313008 l 1.32762,0 c 0.398051,-0.324819 0.761849,-1.37487 1.1351,-1.7304 l 9.46818,-9.03352 c 0.179536,-0.172449 0.428761,-0.257493 0.682711,-0.257493 0.256312,0 0.504356,0.08386 0.679167,0.251587 l 9.54378,9.15281 0.973276,1.61701 1.24731,0 c 0.207884,0 0.395689,-0.10158 0.531522,-0.26458 l -0.380334,-0.353167 z"
   id="path175"
   inkscape:connector-curvature="0"
   style="fill:#ffffff;fill-opacity:0.56078384" />
  <path
   class="fil42"
   d="M 12.4282,25.3749 2.46511,10.3257 2.871429,7.68226 c -0.087406,-0.46774 0.326,-0.865791 0.726414,-0.865791 8.33072,0 16.6036,0 24.9355,0 0.400413,0 0.812638,0.398051 0.726414,0.865791 l 0.120478,2.78872 -9.33707,14.7102 c -1.05123,1.07604 -6.55544,1.2792 -7.61494,0.19371 z"
   id="path177"
   inkscape:connector-curvature="0"
   style="fill:#666666;fill-opacity:0" />
  <g
   id="_122355672">
   <g
   id="g180">
    <path
   id="_197854032"
   class="fil43"
   d="M 12.6443,25.5816 C 9.28508,20.50497 5.92586,15.4283 2.5666,10.3517 2.6599117,9.426851 2.752042,8.502 2.845354,7.57715 2.7591293,7.094055 3.203246,6.738526 3.603659,6.738526 c 8.33072,0 16.6189,0 24.9508,0 0.400413,0 0.797283,0.504356 0.711059,0.988631 0.0094,0.934298 0.02008,1.86741 0.02953,2.80171 -3.16315,4.95851 -6.3263,9.91702 -9.48944,14.8755 -1.03706,1.0973 -6.11605,1.28392 -7.16138,0.177174 z"
   inkscape:connector-curvature="0"
   style="fill:#666666;fill-opacity:0.00784302" />
    <path
   id="_75797728"
   class="fil44"
   d="M 12.8605,25.1245 C 9.4623,20.1589 6.0641,15.1933 2.6671,10.2277 2.7178899,9.289859 2.767499,8.35202 2.818289,7.41536 2.7320643,6.931084 3.208072,6.631069 3.608485,6.631069 c 8.33191,0 16.6355,0 24.9662,0 0.401595,0 0.781928,0.598848 0.695704,1.08312 -0.02008,0.90595 -0.03898,1.81308 -0.05906,2.71785 -3.21512,4.8463 -6.42906,9.69142 -9.64418,14.5377 -1.0217,1.08194 -5.67666,1.24494 -6.70663,0.154732 z"
   inkscape:connector-curvature="0"
   style="fill:#666666;fill-opacity:0.01960802" />
    <path
   id="_115428064"
   class="fil45"
   d="M 13.0778,24.6685 C 9.64062,19.81393 6.20345,14.95936 2.7675,10.1048 2.77577,9.153966 2.784036,8.20313 2.792304,7.2523 2.706079,6.769205 3.213978,6.524705 3.614392,6.524705 c 8.33072,0 16.6508,0 24.9827,0 0.399232,0 0.765392,0.693341 0.679167,1.17762 -0.04961,0.878783 -0.100399,1.75639 -0.150007,2.63517 -3.26473,4.73291 -6.53064,9.46464 -9.79655,14.1975 -1.00753,1.06777 -5.23727,1.20715 -6.25188,0.133471 z"
   inkscape:connector-curvature="0"
   style="fill:#666666;fill-opacity:0.02745098" />
    <path
   id="_114719160"
   class="fil46"
   d="M 13.294,24.2126 C 9.81784,19.46788 6.34287,14.72434 2.8667,9.9808 2.8336275,9.016973 2.7993739,8.05433 2.76512,7.0905 2.6788953,6.606224 3.218686,6.417239 3.619099,6.417239 c 8.33191,0 16.6674,0 24.9981,0 0.400413,0 0.750037,0.789015 0.663812,1.27211 -0.07914,0.850436 -0.159457,1.70205 -0.238594,2.55249 -3.3167,4.61952 -6.6334,9.23904 -9.9501,13.8586 -0.994537,1.0536 -4.79906,1.16935 -5.79832,0.11221 z"
   inkscape:connector-curvature="0"
   style="fill:#666666;fill-opacity:0.035294" />
    <path
   id="_195209280"
   class="fil47"
   d="M 13.5101,23.7543 C 9.99615,19.12179 6.4822,14.48928 2.9671,9.8568 2.8915057,8.87998 2.815911,7.90434 2.739136,6.92752 2.6529113,6.443244 3.224593,6.309773 3.625006,6.309773 c 8.33072,0 16.6827,0 25.0134,0 0.400413,0 0.734682,0.882327 0.648457,1.3666 -0.109848,0.823269 -0.219696,1.64536 -0.329544,2.46863 -3.36749,4.50731 -6.73498,9.01344 -10.1025,13.5207 -0.980363,1.03824 -4.36084,1.13155 -5.34475,0.08859 z"
   inkscape:connector-curvature="0"
   style="fill:#666666;fill-opacity:0.04313702" />
    <path
   id="_78724720"
   class="fil48"
   d="M 13.7263,23.2984 C 10.17337,18.77692 6.62044,14.25544 3.0675,9.7328 2.949384,8.744169 2.831268,7.75436 2.711971,6.76454 2.6257463,6.281445 3.229319,6.203489 3.629733,6.203489 c 8.33191,0 16.6992,0 25.03,0 0.400413,0 0.718146,0.97682 0.631921,1.45991 -0.139377,0.796102 -0.278754,1.59102 -0.418131,2.38594 -3.41946,4.39392 -6.83774,8.78783 -10.256,13.1829 -0.966189,1.0217 -3.92145,1.09257 -4.89119,0.06614 z"
   inkscape:connector-curvature="0"
   style="fill:#666666;fill-opacity:0.05490202" />
    <path
   id="_123361392"
   class="fil49"
   d="M 13.9424,22.8425 C 10.35167,18.43205 6.75976,14.02041 3.1679,9.61 3.007262,8.60719 2.846624,7.60557 2.685987,6.60277 2.5997623,6.118494 3.235227,6.096052 3.634459,6.096052 c 8.33191,0 16.7146,0 25.0465,0 0.400413,0 0.70279,1.07131 0.616566,1.55559 -0.170087,0.767754 -0.338993,1.53433 -0.50908,2.30208 -3.46907,4.28171 -6.93932,8.56223 -10.4084,12.8439 -0.952015,1.00753 -3.48324,1.05478 -4.43762,0.04488 z"
   inkscape:connector-curvature="0"
   style="fill:#666666;fill-opacity:0.06274498" />
    <path
   id="_74924976"
   class="fil50"
   d="M 14.1586,22.3854 C 10.52889,18.08598 6.89801,13.78655 3.2683,9.4859 3.06514,8.47128 2.861981,7.45549 2.660002,6.44087 2.5737773,5.956594 3.239952,5.989667 3.640365,5.989667 c 8.33072,0 16.73,0 25.0619,0 0.400413,0 0.686254,1.16581 0.60003,1.6489 -0.199616,0.740588 -0.399232,1.47999 -0.597667,2.2194 -3.52104,4.16832 -7.04208,8.33663 -10.5631,12.5049 -0.93666,0.993356 -3.04385,1.01698 -3.98287,0.02244 z"
   inkscape:connector-curvature="0"
   style="fill:#666666;fill-opacity:0.070588" />
   </g>
   <path
   id="_116082560"
   class="fil51"
   d="M 14.3747,21.9294 3.3686,9.363 2.632737,6.57192 C 2.546512,6.087644 3.244578,6.176231 3.644987,6.176231 c 8.33191,0 16.7465,0 25.0784,0 0.400413,0 0.670899,1.2603 0.584674,1.74339 l -0.688617,1.84261 -10.7155,12.1671 c -0.922486,0.978001 -2.60564,0.978001 -3.52931,0 z"
   inkscape:connector-curvature="0"
   style="fill:#666666;fill-opacity:0.12156899" />
  </g>
  <path
   class="fil52"
   d="m 16.1417,19.0498 c -0.636646,0.02953 -1.28156,-0.201978 -1.76465,-0.696885 l -11.1017,-9.33589 -0.450022,-1.956 c -0.087406,-0.46774 0.326,-0.864609 0.726414,-0.864609 8.33191,0 16.6036,0 24.9355,0 0.400413,0 0.812638,0.39687 0.726414,0.864609 l -0.734682,2.19696 -10.5726,9.09494 c -0.483095,0.494906 -1.12919,0.726414 -1.76465,0.696885 z"
   id="path191"
   style="fill:url(#id13)"
   inkscape:connector-curvature="0" />
  <g
   id="_118165840">
   <g
   id="g194">
    <polygon
   id="_75993360"
   class="fil15"
   points="7.348,29.1109 7.88543,28.3821 9.96427,28.3608 9.42802,29.0896 "
   style="fill:#c36332" />
    <path
   id="_123838224"
   class="fil16"
   d="m 4.11162,28.3951 c 0.69216,-0.0071 1.38668,-0.01417 2.08002,-0.02126 -0.178355,0.243319 -0.357892,0.485457 -0.537428,0.728776 -0.693341,0.0071 -1.38668,0.01417 -2.08002,0.02126 C 3.753728,28.880557 3.932084,28.637238 4.11162,28.3951 z"
   inkscape:connector-curvature="0"
   style="fill:#5589c4" />
    <path
   id="_114079064"
   class="fil15"
   d="m 15.2488,28.3561 c 0.69216,-0.0071 1.3855,-0.01417 2.08002,-0.02126 -0.179536,0.243319 -0.359073,0.486638 -0.537428,0.728776 -0.693341,0.0071 -1.38668,0.01536 -2.08002,0.02126 0.179536,-0.243319 0.357892,-0.485457 0.537428,-0.728776 z"
   inkscape:connector-curvature="0"
   style="fill:#c36332" />
    <path
   id="_52276696"
   class="fil16"
   d="m 11.475,28.3691 c 0.693341,-0.0059 1.38668,-0.01417 2.08002,-0.02126 -0.179536,0.243319 -0.357892,0.486638 -0.537428,0.728776 -0.693341,0.0071 -1.38668,0.01417 -2.08002,0.02126 0.179536,-0.243319 0.359073,-0.485457 0.537428,-0.728776 z"
   inkscape:connector-curvature="0"
   style="fill:#5589c4" />
   </g>
   <g
   id="g200">
    <polygon
   id="_74818912"
   class="fil16"
   points="26.0658,29.1109 26.6033,28.3821 28.6821,28.3608 28.1459,29.0896 "
   style="fill:#5589c4" />
    <path
   id="_118930936"
   class="fil15"
   d="m 22.8295,28.3951 c 0.693341,-0.0071 1.38668,-0.01417 2.08002,-0.02126 -0.178355,0.243319 -0.357892,0.485457 -0.537428,0.728776 -0.693341,0.0071 -1.3855,0.01417 -2.08002,0.02126 0.179536,-0.243319 0.357892,-0.486638 0.537428,-0.728776 z"
   inkscape:connector-curvature="0"
   style="fill:#c36332" />
    <path
   id="_196900768"
   class="fil16"
   d="m 19.0568,28.4081 c 0.69216,-0.0071 1.3855,-0.01417 2.08002,-0.02126 -0.179536,0.243319 -0.359073,0.485457 -0.537428,0.728776 -0.693341,0.0071 -1.38668,0.01417 -2.08002,0.02126 0.179536,-0.243319 0.357892,-0.486638 0.537428,-0.728776 z"
   inkscape:connector-curvature="0"
   style="fill:#5589c4" />
   </g>
  </g>
  <path
   class="fil53"
   d="m 16.1417,19.3639 c -0.636646,0.02953 -1.28156,-0.201978 -1.76465,-0.696885 l -11.1017,-9.33589 -0.545696,-2.3198 0,-0.056696 c 0,-0.490182 0.336631,-0.890595 0.747675,-0.890595 l 25.0571,0 c 0.412225,0 0.747675,0.400413 0.747675,0.890595 l 0,0.355529 -0.803189,2.26192 -10.5726,9.09494 c -0.483095,0.494906 -1.12919,0.726414 -1.76465,0.696885 z"
   id="path205"
   inkscape:connector-curvature="0"
   style="fill:#c4c4c4" />
  <path
   class="fil54"
   d="m 16.1417,20.3183 c -0.636646,0.03071 -1.28156,-0.201978 -1.76465,-0.695704 l -11.1998,-10.6056 -0.463015,-1.84734 0,-0.057877 c 0,-0.489 0.336631,-0.889414 0.747675,-0.889414 l 25.252,0 c 0.411044,0 0.747675,0.400413 0.747675,0.889414 l 0,0.355529 -0.88587,1.79064 -10.6694,10.3647 c -0.483095,0.493725 -1.12919,0.726414 -1.76465,0.695704 z"
   id="path207"
   style="fill:url(#id7)"
   inkscape:connector-curvature="0" />
  <path
   class="fil20"
   d="M 3.46789,8.94729 3.065114,7.30193 3.1336213,7.2369662 c 0.205522,-0.185442 0.465377,-0.296471 0.747675,-0.296471 l 24.5291997,0 c 0.27521,0 0.530341,0.105123 0.733501,0.279935 l 0,0.246863 -0.46774,0.969733 -0.02008,-0.116935 c -0.0035,-0.119297 -0.0437,-0.226783 -0.103942,-0.300015 l -0.0012,0.00118 c -0.04016,-0.047246 -0.09213,-0.079138 -0.140558,-0.079138 l -24.5291996,0 c -0.036616,0 -0.075594,0.017717 -0.107486,0.046065 l -0.00236,0.00118 c -0.05079,0.044884 -0.093312,0.118116 -0.114573,0.20316 l -0.087406,0.179536 c -0.05079,0.064964 -0.082681,0.287022 -0.10158,0.575225 z"
   id="path209"
   inkscape:connector-curvature="0"
   style="fill:#ffffff" />
  <path
   class="fil21"
   d="m 29.0152,7.49919 c 0.0024,-0.075594 0.0047,-0.157094 0.0047,-0.249225 0,-0.394508 -0.06024,-0.767754 -0.439392,-0.767754 L 3.5387326,6.5070154 c -0.187805,0.024804 -0.331906,0.09213 -0.418131,0.22442 -0.098036,0.150007 -0.14292,0.395689 -0.122841,0.767754 l -0.420493,0 c -0.021261,-0.459471 0.048428,-0.783109 0.194891,-1.00753 0.166544,-0.255131 0.415768,-0.37679 0.73232,-0.414587 l 0.024804,-0.00236 25.0512004,-0.024804 c 0.74295,0 0.861066,0.582312 0.861066,1.20006 0,0.073232 -0.0024,0.160638 -0.0059,0.249225 l -0.420493,0 z"
   id="path211"
   inkscape:connector-curvature="0"
   style="fill:#ffffff;fill-rule:nonzero" />
  <path
   class="fil21"
   d="m 16.1417,20.3183 c -0.636646,0.03071 -1.28156,-0.201978 -1.76465,-0.695704 l -11.1998,-10.6056 -0.544515,-1.9938 0,-0.056696 c 0,-0.490182 0.336631,-0.767754 0.747675,-0.767754 l 0.479551,0 0.581131,2.02451 10.8336,10.2985 0.09922,0.09449 c 0.09567,0.09804 0.204341,0.170087 0.317732,0.21379 0.122841,0.04843 0.256312,0.07087 0.388602,0.06378 l 0.121659,0 c 0.132291,0.0071 0.265762,-0.01535 0.389784,-0.06378 0.11221,-0.0437 0.220877,-0.115754 0.316551,-0.21379 l 0.08859,-0.08386 10.3859,-10.1202006 0.934297,-2.10247 0.302377,0 c 0.412225,0 0.760668,0.167725 0.760668,0.656725 l 0,0.355529 -0.80437,1.93592 -10.6694,10.3647006 c -0.483095,0.493725 -1.12919,0.726414 -1.76465,0.695704 z"
   id="path213"
   inkscape:connector-curvature="0"
   style="fill:#ffffff;fill-rule:nonzero" />
  <path
   class="fil55"
   d="M 2.33043,6.88735 C 2.4107489,6.638125 2.552488,6.41961 2.735568,6.261335 2.946996,6.075893 3.212757,5.964864 3.502141,5.964864 l 25.1268,0 c 0.353167,0 0.67208,0.164181 0.897682,0.424037 l 0,0.00236 c 0.191348,0.222058 0.321276,0.520892 0.34608,0.845711 0.01654,0.059058 0.02953,0.119297 0.0378,0.175993 l -0.0024,0 c 0.01181,0.082681 0.02126,0.165362 0.02126,0.236232 l 0.04134,18.3174 c 0,0.318913 -0.09804,1.51425 -0.27521,2.36705 -0.148826,0.718146 -0.419312,1.26975 -0.877602,1.26975 l 0,-0.0024 -25.4315997,0.07559 0,0.0024 c -0.360254,0 -0.682711,-0.171268 -0.910675,-0.442935 -0.207884,-0.246863 -0.337812,-0.585856 -0.337812,-0.949653 l -0.080319,-18.3174007 0.00236,0 -0.00236,-0.211428 0,-0.00236 c -0.00827,-0.689798 -0.025985,-2.2761 0.272848,-2.86786 z m 1.0595,0.126384 C 3.3379589,7.0586181 3.294256,7.13185 3.271814,7.216894 L 3.1820458,7.39643 c -0.15237,0.191348 -0.134652,1.71623 -0.127565,2.34933 l 0,0.00236 0.00236,0.217334 0.00236,0.00354 0.080319,18.3174 c 0,0.124022 0.040159,0.236232 0.10158,0.309464 0.041341,0.04961 0.094493,0.0815 0.145283,0.0815 l 0,0.0024 25.4315992,-0.07559 0,-0.0024 c 0.148826,0 -0.155913,-0.204341 -0.100399,-0.471283 0.161819,-0.779566 0.251587,-1.87214 0.251587,-2.16389 l -0.04134,-18.3174002 -0.0047,-0.083862 -0.0024,-0.00354 -0.01654,-0.076775 -0.02362,-0.140558 c -0.0035,-0.119297 -0.04488,-0.226783 -0.106304,-0.300015 l -0.0012,0.00118 c -0.04134,-0.047246 -0.09449,-0.079138 -0.144102,-0.079138 l -25.1267993,0 c -0.037797,0 -0.077957,0.017717 -0.109848,0.046065 l -0.00236,0.00118 z"
   id="path215"
   style="fill:url(#id19);fill-rule:nonzero"
   inkscape:connector-curvature="0" />
  <path
   class="fil56"
   d="m 2.21349,21.2467 -0.198435,0.242138 c 0.29529,-0.0012 0.540972,-0.0035 0.83508,-0.0047 -0.00236,0.171268 -0.00354,0.34608 -0.00354,0.524435 -0.703972,0.01299 -1.41031,0.02008 -2.13317998,0.0047 l 1.50006998,-1.3607 0,0.594124 z"
   id="path217"
   inkscape:connector-curvature="0"
   style="fill:#ffe351;fill-opacity:0.83921599" />
  <path
   class="fil56"
   d="m 29.0105,21.3601 c 0.340174,0.0024 0.668537,0.0047 1.00871,0.0047 l -0.569319,-0.725233 0,-0.277573 1.85915,1.68788 c -0.728776,0.01535 -1.45165,0.0047 -2.17334,-0.01063 0,-0.179536 -0.124022,-0.505537 -0.125203,-0.679167 z"
   id="path219"
   inkscape:connector-curvature="0"
   style="fill:#ffe351;fill-opacity:0.83921599" />
  <path
   class="fil57"
   d="m 26.2147,21.4026 0.232689,0.496087 -0.219696,0.0047 c -0.22442,0.05315 -0.446479,0.139377 -0.657906,0.291747 l -0.158276,-0.403957 c 0.245681,-0.214971 0.511442,-0.324819 0.779566,-0.388602 l 0.02362,0 z"
   id="path221"
   inkscape:connector-curvature="0"
   style="fill:#fff2a6" />
  <path
   class="fil58"
   d="m 1.93947,30.6098 c -0.628377,0 -1.16699,-0.569319 -1.16817,-1.2792 L 0.7004304,21.85976 c 0.161819,0.0035 0.282297,0.12166 0.442935,0.124022 1.66426,0.02126 3.32851,-0.04016 4.99158,0 0.503174,0.120478 1.00162,0.402776 1.37369,1.24258 l 0.128746,1.39968 c 0.053152,0.57995 0.493725,0.988631 1.09612,0.988631 l 14.6994996,0 c 0.602392,0 1.01344,-0.424037 1.06777,-1.00399 l 0.13229,-1.40912 c 0.372066,-0.838624 0.883508,-1.07367 1.3855,-1.19297 1.59693,-0.03898 3.19622,0.01535 4.79315,0.0024 0.226783,-0.0024 0.353167,0.03071 0.581131,0.02481 l 0.05906,7.31847 c 0.0059,0.708696 -0.441754,1.29219 -1.07013,1.29219 -9.51307,0 -18.9293,-0.03662 -28.4422996,-0.03662 z"
   id="path223"
   inkscape:connector-curvature="0"
   style="fill:#f9c518;fill-opacity:0.78039198" />
  <path
   class="fil59"
   d="m 2.19578,21.9873 0.067326,7.1224 13.8975,0.02362 c 3.1915,0.0059 6.38653,0.01299 13.7948,0.01299 l -0.0567,-7.09877 0.913037,-0.0071 0,-0.02953 c 0.227964,-0.0012 0.353167,0.03071 0.581131,0.0248 l 0.05906,7.31847 c 0.0059,0.709877 -0.441754,1.29219 -1.07013,1.29219 -9.51307,0 -18.9293,-0.03543 -28.4422997,-0.03543 -0.627196,0 -1.16699,-0.569319 -1.16817,-1.28038 L 0.6992856,21.85974 c 0.163,0.0035 0.283479,0.12166 0.444116,0.122841 l 1.05241,0.0047 z"
   id="path225"
   inkscape:connector-curvature="0"
   style="fill:#ffec80;fill-opacity:0.43921599;fill-rule:nonzero" />
  <g
   id="_116481560">
   <path
   id="_113619880"
   class="fil60"
   d="m 24.5717,23.7023 0.06496,-0.225602 -0.01535,0.148826 0.01417,0.0094 -0.01417,0.140558 0.0248,0.01535 c 0.0626,-0.787834 0.713421,-1.09257 1.32999,-1.13982 0.911856,-0.02126 1.82371,-0.01181 2.73439,-0.0047 0.675624,0.0071 1.35361,0.01417 2.02805,0.0071 l 0.0012,0 c 0.08977,0 0.174812,0.0083 0.258674,0.01417 0.09567,0.0083 0.190167,0.01535 0.326,0.01299 l -0.0047,-0.150007 0.0047,0 -0.01063,-0.429942 -0.04725,0 -0.0012,-0.07441 c -0.100399,0.0035 -0.191348,-0.0047 -0.279935,-0.01181 -0.08504,-0.0059 -0.172449,-0.01417 -0.296471,-0.01299 l -0.0012,0 c -0.673261,0.0047 -1.3477,-0.0024 -2.02333,-0.0071 -0.923668,-0.0094 -1.85088,-0.01772 -2.77336,0.0047 l -0.04488,0.0047 c -0.785472,0.175993 -1.09257,0.852798 -1.27447,1.54968 l 0.0248,0.01299 c 0.0567,-0.44766 0.06851,-0.425218 0.04843,-0.18308 l -0.0012,0.0059 0,0.0024 c -0.0094,0.04725 -0.02481,0.150007 -0.04725,0.324819 l -0.0248,-0.01417 z"
   inkscape:connector-curvature="0"
   style="fill:#fff5ba;fill-rule:nonzero" />
   <path
   id="_115483672"
   class="fil60"
   d="m 24.4866,24.2469 0.0059,-0.05906 -0.01181,-0.0047 -0.01417,-0.230326 0.02599,0.01063 c -0.04016,0.434667 -0.2445,1.27329 -0.587037,1.59693 -0.144102,0.135833 -0.344899,0.277573 -0.582312,0.277573 l -14.7019002,0 c -0.243319,0 -0.452384,-0.08032 -0.604754,-0.217334 l 0,-0.0012 c -0.100399,-0.06024 -0.180718,-0.135833 -0.246863,-0.223239 -0.180718,-0.300015 -0.222058,-0.706334 -0.289384,-1.09021 l 0.051971,0.01417 -0.017717,-0.229145 0.017717,0.0059 c -0.047246,-0.520892 -0.038978,-0.993356 -0.329544,-1.39377 -0.074413,-0.119297 -0.174812,-0.23387 -0.307102,-0.341355 -0.262218,-0.21379 -0.542153,-0.326 -0.819725,-0.392145 l -0.044884,-0.0059 c -0.920124,-0.02244 -1.84143,-0.01535 -2.76273,-0.0059 -0.74295,0.0083 -1.22014,0.01299 -1.96191,0.0059 -0.035435,0 -0.089768,-0.0248 -0.140558,-0.04607 -0.087406,-0.0378 -0.179536,-0.07677 -0.301196,-0.08032 l -0.009449,0.431124 0.004725,0 -0.004725,0.22442 c 0.0141739,0 0.0318913,0.0035 0.0496087,0.0095 l -0.001181,0.0626 c 0.036616,0.0012 0.0897682,0.02362 0.140558,0.04606 0.088587,0.0378 0.178355,0.07796 0.304739,0.07914 0.747675,0.0094 1.22486,0.0035 1.97254,-0.0047 0.908312,-0.0083 1.81781,-0.01654 2.72612,0.0035 0.214971,0.05433 0.42758,0.14292 0.626015,0.304739 0.172449,0.140558 0.326,0.300015 0.451203,0.476008 l 0.00827,0.01181 c 0.146464,0.227964 0.240957,0.480732 0.265761,0.741769 l 0.027167,0.0083 0.024804,0.343718 -0.029529,-0.164181 c 0.031891,0.340174 0.072051,1.43393 0.292928,1.67607 0.018899,0.0378 0.040159,0.06733 0.063783,0.08859 l 0,0 c 0.230326,0.207884 0.53979,0.393326 0.894138,0.393326 l 14.6995005,0 c 0.351986,0 0.654363,-0.187805 0.878783,-0.39687 0.277573,-0.31537 0.324819,-0.721689 0.314189,-1.13628 l 0,-0.02953 c 0.0071,-0.225602 -0.01181,-0.457109 -0.02953,-0.68153 l 0.0071,-0.06378 -0.01181,-0.0047 -0.01299,-0.229145 0.0248,0.0095 c -0.0083,0.09213 -0.02362,0.201978 -0.04725,0.322457 l -0.0083,-0.11221 z m -17.0134,0.243319 -0.00118,-0.0047 0.00118,0.0071 0.00118,0.0083 0.00118,0.0024 0,0.0047 0.00236,0.0071 0.00236,0.01535 0.00118,0.0071 0.00118,0.0035 0,0.0047 0.00118,0.0071 0.00236,0.01536 0.00118,0.0071 0.00118,0.0035 0,0.0035 0.00118,0.0071 0.00236,0.0083 0,0.0071 0.00118,0.0071 0.00118,0.0035 0.00118,0.0047 0,0.0071 0.00236,0.0071 0.00118,0.0071 0.00118,0.0083 0,0.0047 0.00118,0.0024 0.00118,0.0071 -0.027167,-0.359073 -0.027167,-0.0071 -0.00709,-0.06142 -0.011812,-0.0035 0.042522,0.252768 0,0 0,0"
   inkscape:connector-curvature="0"
   style="fill:#fff5ba;fill-rule:nonzero" />
  </g>
  <g
   id="_195165096">
   <path
   id="_113168648"
   class="fil60"
   d="m 24.5717,23.9669 0.06496,-0.225602 -0.01535,0.148826 0.01417,0.0094 -0.01417,0.140558 0.0248,0.01535 c 0.0626,-0.787834 0.713421,-1.09257 1.32999,-1.13982 0.911856,-0.02126 1.82371,-0.01181 2.73439,-0.0047 0.675624,0.0071 1.35361,0.01417 2.02805,0.0071 l 0.0012,0 c 0.08977,0 0.174812,0.0083 0.258674,0.01417 0.09567,0.0083 0.190167,0.01535 0.326,0.01299 l -0.0047,-0.150007 0.0047,0 -0.01063,-0.429942 -0.04725,0 -0.0012,-0.07441 c -0.100399,0.0035 -0.191348,-0.0047 -0.279935,-0.01181 -0.08504,-0.0059 -0.172449,-0.01417 -0.296471,-0.01299 l -0.0012,0 c -0.673261,0.0047 -1.3477,-0.0024 -2.02333,-0.0071 -0.923668,-0.0094 -1.85088,-0.01772 -2.77336,0.0047 l -0.04488,0.0047 c -0.785472,0.175993 -1.09257,0.852798 -1.27447,1.54968 l 0.0248,0.01299 c 0.0567,-0.44766 0.06851,-0.425218 0.04843,-0.18308 l -0.0012,0.0059 0,0.0024 c -0.0094,0.04725 -0.02481,0.150007 -0.04725,0.324819 l -0.0248,-0.01417 z"
   inkscape:connector-curvature="0"
   style="fill:#fff5ba;fill-rule:nonzero" />
   <path
   id="_122877496"
   class="fil60"
   d="m 24.4866,24.5114 0.0059,-0.05906 -0.01181,-0.0047 -0.01417,-0.230326 0.02599,0.01063 c -0.04016,0.434667 -0.2445,1.27329 -0.587037,1.59693 -0.144102,0.135833 -0.344899,0.277573 -0.582312,0.277573 l -14.7019002,0 c -0.243319,0 -0.452384,-0.08032 -0.604754,-0.217334 l 0,-0.0012 c -0.100399,-0.06024 -0.180718,-0.135833 -0.246863,-0.223239 -0.180718,-0.300015 -0.222058,-0.706334 -0.289384,-1.09021 l 0.051971,0.01417 -0.017717,-0.229145 0.017717,0.0059 c -0.047246,-0.520892 -0.038978,-0.993356 -0.329544,-1.39377 -0.074413,-0.119297 -0.174812,-0.23387 -0.307102,-0.341355 -0.262218,-0.21379 -0.542153,-0.326 -0.819725,-0.392145 l -0.044884,-0.0059 c -0.920124,-0.02244 -1.84143,-0.01535 -2.76273,-0.0059 -0.74295,0.0083 -1.22014,0.01299 -1.96191,0.0059 -0.035435,0 -0.089768,-0.0248 -0.140558,-0.04606 -0.087406,-0.0378 -0.179536,-0.07678 -0.301196,-0.08032 l -0.009449,0.431124 0.004725,0 -0.004725,0.22442 c 0.0141739,0 0.0318913,0.0035 0.0496087,0.0095 l -0.001181,0.0626 c 0.036616,0.0012 0.0897682,0.02362 0.140558,0.04607 0.088587,0.0378 0.178355,0.07796 0.304739,0.07914 0.747675,0.0094 1.22486,0.0035 1.97254,-0.0047 0.908312,-0.0083 1.81781,-0.01654 2.72612,0.0035 0.214971,0.05433 0.42758,0.14292 0.626015,0.304739 0.172449,0.140558 0.326,0.300015 0.451203,0.476008 l 0.00827,0.01181 c 0.146464,0.227964 0.240957,0.480732 0.265761,0.741769 l 0.027167,0.0083 0.024804,0.343718 -0.029529,-0.164181 c 0.031891,0.340174 0.072051,1.43393 0.292928,1.67607 0.018899,0.0378 0.040159,0.06733 0.063783,0.08859 l 0,0 c 0.230326,0.207884 0.53979,0.393326 0.894138,0.393326 l 14.6995005,0 c 0.351986,0 0.654363,-0.187805 0.878783,-0.39687 0.277573,-0.31537 0.324819,-0.721689 0.314189,-1.13628 l 0,-0.02953 c 0.0071,-0.225602 -0.01181,-0.457109 -0.02953,-0.68153 l 0.0071,-0.06378 -0.01181,-0.0047 -0.01299,-0.229145 0.0248,0.0094 c -0.0083,0.09213 -0.02362,0.201978 -0.04725,0.322457 l -0.0083,-0.11221 z m -17.0134,0.243319 -0.00118,-0.0047 0.00118,0.0071 0.00118,0.0083 0.00118,0.0024 0,0.0047 0.00236,0.0071 0.00236,0.01535 0.00118,0.0071 0.00118,0.0035 0,0.0047 0.00118,0.0071 0.00236,0.01536 0.00118,0.0071 0.00118,0.0035 0,0.0035 0.00118,0.0071 0.00236,0.0083 0,0.0071 0.00118,0.0071 0.00118,0.0035 0.00118,0.0047 0,0.0071 0.00236,0.0071 0.00118,0.0071 0.00118,0.0083 0,0.0047 0.00118,0.0024 0.00118,0.0071 -0.027167,-0.359073 -0.027167,-0.0071 -0.00709,-0.06142 -0.011812,-0.0035 0.042522,0.252768 0,0 0,0"
   inkscape:connector-curvature="0"
   style="fill:#fff5ba;fill-rule:nonzero" />
  </g>
  <path
   class="fil61"
   d="m 7.65628,24.0886 c 0.02008,0.235051 0.353167,0.557508 0.507899,0.696885 l 0,0 c 0.150007,0.138196 0.361435,0.219696 0.605935,0.219696 l 14.6995,0 c 0.237413,0 0.438211,-0.0815 0.581131,-0.216152 0.141739,-0.134652 0.218515,-0.314189 0.262218,-0.50908 l 0.0012,-0.0071 0.01772,-0.100399 0.0024,-0.0071 0.0012,-0.01063 0.0012,-0.0024 0.0024,-0.01417 0,-0.0024 0.01417,-0.119297 c 0.01536,-0.145283 0.163,-0.685073 0.250406,-1.03824 l -0.03543,-0.0083 0.07678,-0.167725 0.01654,-0.08268 -0.05315,-0.01299 c 0.307102,-0.69216 0.74295,-1.47173 1.48354,-1.6489 l 0.04252,-0.0047 c 0.924849,-0.02362 2.26665,-0.01536 3.1915,-0.0047 l 0.576406,0.0047 0.465377,0.448841 -0.125203,0.0071 0.174812,0.168906 -0.171268,0.0094 0.0815,0.07796 -0.125203,0.0071 0.174812,0.168906 c -1.39377,0.08032 -2.79935,-0.0035 -4.19548,0.02835 -0.548058,0.133471 -1.17053,0.688617 -1.40322,1.21305 l -0.141739,-0.03425 c -0.0035,0.108667 -0.0059,0.218515 -0.0024,0.327181 0.01536,0.383877 0.04016,0.774841 -0.03662,1.11383 -0.02717,0.29529 -0.103942,0.564595 -0.290565,0.776022 -0.222058,0.209065 -0.525616,0.45829 -0.877602,0.45829 l -14.6995004,0.01299 c -0.355529,0 -0.726414,-0.137015 -0.955559,-0.342537 l 0,0 c -0.23387,-0.211428 -0.272848,-1.00044 -0.304739,-1.3477 l 0.011812,0.01772 c -0.033072,-0.26458 -0.120478,-0.883508 -0.140558,-0.978001 -0.079138,-0.333087 -0.248044,-0.571682 -0.561051,-0.826812 -0.198435,-0.160638 -0.399232,-0.272848 -0.614203,-0.326 -0.908312,-0.02244 -1.81781,-0.01417 -2.72612,-0.0035 -0.470102,0.0047 -0.942566,0.0083 -1.41385,0.0083 l -0.526798,-0.0248 0.281116,-0.237413 -0.256312,-0.01181 0.015355,-0.01417 0.282297,-0.237413 -0.257493,-0.01181 0.526798,-0.444116 c 0.471283,-0.0012 0.940204,-0.0047 1.40912,-0.0083 0.922486,-0.0095 1.84379,-0.01772 2.76273,0.0047 l 0.046065,0.0059 c 0.277573,0.06615 0.558689,0.20316 0.820907,0.418131 0.555145,0.451203 0.35671,0.933117 0.415768,1.57331 l 0.014174,0.70279 -0.035435,-0.28466 0.00945,0.446479 0.122841,0.173631 z m -0.113391,0.159457 -0.023623,-0.256312 0,0.0248 -0.036616,-0.287022 0.00945,0.448841 0.05079,0.06969 z m 17.1162,-1.47763 0.02244,-0.04607 -0.0189,-0.0047 -0.0035,0.05079 z m 0.02717,0.227964 -0.04134,-0.01063 -0.0071,0.115754 0.04843,-0.105123 z m -17.1693003,0.89532 0.00472,0.0071 -0.00591,-0.04134 0.00118,0.03425 z"
   id="path233"
   inkscape:connector-curvature="0"
   style="fill:#e6b820;fill-rule:nonzero" />
  <path
   class="fil62"
   d="m 7.73778,23.3574 c 0.02008,0.235051 0.353167,0.557508 0.507899,0.696885 l 0,0 c 0.150007,0.138196 0.361435,0.219696 0.605935,0.219696 l 14.6995,0 c 0.237413,0 0.438211,-0.0815 0.581131,-0.216152 0.141739,-0.134652 0.218515,-0.314189 0.262218,-0.50908 l 0.0012,-0.0071 0.01772,-0.100399 0.0024,-0.0071 0.0012,-0.01063 0.0012,-0.0024 0.0024,-0.01417 0,-0.0024 0.01417,-0.119297 c 0.01536,-0.145283 0.163,-0.685073 0.250406,-1.03824 l -0.03543,-0.0083 0.07677,-0.167725 0.01654,-0.08268 -0.05315,-0.01299 c 0.307102,-0.69216 0.74295,-1.47173 1.48354,-1.6489 l 0.04252,-0.0047 c 0.924849,-0.02362 2.26665,-0.01535 3.1915,-0.0047 l 0.576406,0.0047 0.465377,0.448841 -0.125203,0.0071 0.174812,0.168906 -0.171268,0.0095 0.0815,0.07796 -0.125203,0.0071 0.174812,0.168906 c -1.39377,0.08032 -2.79935,-0.0035 -4.19548,0.02835 -0.548058,0.133471 -1.17053,0.688617 -1.40322,1.21305 l -0.141739,-0.03425 c -0.0035,0.108667 -0.0059,0.218515 -0.0024,0.327181 0.01535,0.383877 0.04016,0.774841 -0.03662,1.11383 -0.02717,0.29529 -0.103942,0.564595 -0.290565,0.776022 -0.222058,0.209065 -0.525616,0.45829 -0.877602,0.45829 l -14.6995004,0.01299 c -0.355529,0 -0.726414,-0.137015 -0.955559,-0.342537 l 0,0 c -0.23387,-0.211428 -0.272848,-1.00044 -0.304739,-1.3477 l 0.011812,0.01772 c -0.033072,-0.26458 -0.120478,-0.883508 -0.140558,-0.978001 -0.079138,-0.333087 -0.248044,-0.571682 -0.561051,-0.826812 -0.198435,-0.160638 -0.399232,-0.272848 -0.614203,-0.326 -0.908312,-0.02244 -1.81781,-0.01417 -2.72612,-0.0035 -0.470102,0.0047 -0.942566,0.0083 -1.41385,0.0083 l -0.526798,-0.0248 0.281116,-0.237413 -0.256312,-0.01181 0.015355,-0.01417 0.282297,-0.237413 -0.257493,-0.01181 0.526798,-0.444116 c 0.471283,-0.0012 0.940204,-0.0047 1.40912,-0.0083 0.922486,-0.0094 1.84379,-0.01772 2.76273,0.0047 l 0.046065,0.0059 c 0.277573,0.06614 0.558689,0.20316 0.820907,0.418131 0.555145,0.451203 0.35671,0.933117 0.415768,1.57331 l 0.014174,0.70279 -0.035435,-0.28466 0.00945,0.446479 0.122841,0.173631 z m -0.113391,0.159457 -0.023623,-0.256312 0,0.0248 -0.036616,-0.287022 0.00945,0.448841 0.05079,0.06969 z m 17.1162,-1.47763 0.02244,-0.04606 -0.0189,-0.0047 -0.0035,0.05079 z m 0.02717,0.227964 -0.04134,-0.01063 -0.0071,0.115754 0.04843,-0.105123 z m -17.1693003,0.89532 0.00472,0.0071 -0.00591,-0.04134 0.00118,0.03425 z"
   id="path235"
   inkscape:connector-curvature="0"
   style="fill:#a2672b;fill-opacity:0.21960802;fill-rule:nonzero" />
  <path
   class="fil63"
   d="m 29.8456,19.9923 1.67607,1.52015 0.138196,0.115754 c 0.107486,0.08386 0.170087,0.141739 0.230326,0.276392 l 0.0024,0.0059 c 0.0626,0.14292 0.06142,0.242138 0.0626,0.466558 l 0.0024,0.0024 0,0.09213 -0.0024,0 -0.0047,6.87908 0.0024,0.0035 0,0.01417 c 0,0.464196 -0.153551,0.896501 -0.411044,1.21305 -0.279935,0.342537 -0.680348,0.55987 -1.149271,0.563414 l -0.0024,0.0024 -0.0083,0 c -3.18087,0 -8.86107,-0.01181 -14.2212,-0.02008 -4.09863,-0.0071 -8.0507899,-0.01535 -14.3829999,-0.01535 -0.460653,0 -0.88468904,-0.207884 -1.19179004,-0.543334 l -0.002362,0 c -0.289384,-0.316551 -0.474827,-0.755943 -0.474827,-1.23786 l 0.002362,0 -0.0673261,-7.13539 -0.0023623,-0.0035 0,-0.0071 0.0023623,0 c -0.0035435,-0.461834 -0.0023623,-0.531522 0.389783,-0.850436 l 1.46228004,-1.06659 0.633102,0.770117 -1.46464,1.06895 -0.00236,0.0024 c -0.02008,0.01535 -0.021261,0.02481 -0.021261,0.07205 l 0.00236,0.0035 0,0.0071 -0.00236,0 0.067326,7.13539 0.00236,0.0035 c 0,0.222058 0.083862,0.422855 0.212609,0.564595 l -0.00118,0.0012 c 0.12166,0.131109 0.28466,0.21379 0.455928,0.21379 3.18087,0 9.02289,0.01181 14.383,0.02008 4.09863,0.0071 7.88897,0.01535 14.2212,0.01535 l 0.0083,0 0,0.0024 c 0.147645,-0.0012 0.281116,-0.07914 0.37679,-0.194891 0.114573,-0.141739 0.184261,-0.350805 0.184261,-0.584674 l 0,-0.01417 0.0024,0 0.0047,-6.879079 -0.0024,-0.0035 0,-0.09213 0.0024,0 0.0059,-0.03307 -0.08268,-0.06851 -0.01417,-0.01299 -1.69024,-1.53315 0.668537,-0.739406 z"
   id="path237"
   inkscape:connector-curvature="0"
   style="fill:#d4962a;fill-rule:nonzero" />
 </g>
</svg>