<?xml version="1.0" encoding="UTF-8" standalone="no"?>
<!-- Creator: CorelDRAW -->

<svg
   xmlns:dc="http://purl.org/dc/elements/1.1/"
   xmlns:cc="http://creativecommons.org/ns#"
   xmlns:rdf="http://www.w3.org/1999/02/22-rdf-syntax-ns#"
   xmlns:svg="http://www.w3.org/2000/svg"
   xmlns="http://www.w3.org/2000/svg"
   xmlns:xlink="http://www.w3.org/1999/xlink"
   xmlns:sodipodi="http://sodipodi.sourceforge.net/DTD/sodipodi-0.dtd"
   xmlns:inkscape="http://www.inkscape.org/namespaces/inkscape"
   xml:space="preserve"
   width="32"
   height="32"
   style="fill-rule:evenodd"
   viewBox="0 0 32.001714 32.0033"
   id="svg5388"
   version="1.1"
   inkscape:version="0.48.2 r9819"
   sodipodi:docname="certificate_32.svg"><metadata
   id="metadata5492"><rdf:RDF><cc:Work
       rdf:about=""><dc:format>image/svg+xml</dc:format><dc:type
         rdf:resource="http://purl.org/dc/dcmitype/StillImage" /><dc:title></dc:title></cc:Work></rdf:RDF></metadata><sodipodi:namedview
   pagecolor="#ffffff"
   bordercolor="#666666"
   borderopacity="1"
   objecttolerance="10"
   gridtolerance="10"
   guidetolerance="10"
   inkscape:pageopacity="0"
   inkscape:pageshadow="2"
   inkscape:window-width="1920"
   inkscape:window-height="1024"
   id="namedview5490"
   showgrid="false"
   inkscape:zoom="19.658838"
   inkscape:cx="16"
   inkscape:cy="13.423729"
   inkscape:window-x="-4"
   inkscape:window-y="-4"
   inkscape:window-maximized="1"
   inkscape:current-layer="svg5388" />
 <defs
   id="defs5390">
  <style
   type="text/css"
   id="style5392">
   
    .str0 {stroke:#B0B0B0;stroke-width:0.500081;stroke-linecap:round;stroke-linejoin:round}
    .fil7 {fill:none}
    .fil10 {fill:#D2D0D2}
    .fil14 {fill:#E8980E}
    .fil0 {fill:black;fill-opacity:0.098039}
    .fil1 {fill:black;fill-opacity:0.152941}
    .fil13 {fill:black;fill-opacity:0.200000}
    .fil4 {fill:black;fill-opacity:0.301961}
    .fil16 {fill:url(#id0)}
    .fil19 {fill:url(#id1)}
    .fil11 {fill:url(#id2)}
    .fil12 {fill:url(#id3)}
    .fil6 {fill:url(#id4)}
    .fil5 {fill:url(#id5)}
    .fil17 {fill:url(#id6)}
    .fil15 {fill:url(#id7)}
    .fil3 {fill:url(#id8)}
    .fil2 {fill:url(#id9)}
    .fil18 {fill:url(#id10)}
    .fil9 {fill:url(#id11)}
    .fil8 {fill:url(#id12)}
   
  </style>
  <linearGradient
   id="id0"
   gradientUnits="userSpaceOnUse"
   x1="19.5005"
   y1="25.006701"
   x2="19.5005"
   y2="15.0134">
   <stop
   offset="0"
   style="stop-color:#FFAF24"
   id="stop5395" />
   <stop
   offset="1"
   style="stop-color:#C76D02"
   id="stop5397" />
  </linearGradient>
  <linearGradient
   id="id1"
   gradientUnits="userSpaceOnUse"
   x1="19.401899"
   y1="23.018101"
   x2="19.401899"
   y2="20.9701">
   <stop
   offset="0"
   style="stop-color:#FFF1B6"
   id="stop5400" />
   <stop
   offset="1"
   style="stop-color:#FDEAA3"
   id="stop5402" />
  </linearGradient>
  <linearGradient
   id="id2"
   gradientUnits="userSpaceOnUse"
   x1="16.793699"
   y1="29.3279"
   x2="16.793699"
   y2="22.452999">
   <stop
   offset="0"
   style="stop-color:#FFFEA4"
   id="stop5405" />
   <stop
   offset="1"
   style="stop-color:#FFD340"
   id="stop5407" />
  </linearGradient>
  <linearGradient
   id="id3"
   gradientUnits="userSpaceOnUse"
   xlink:href="#id2"
   x1="22.6087"
   y1="29.024401"
   x2="22.6087"
   y2="22.132799">
  </linearGradient>
  <linearGradient
   id="id4"
   gradientUnits="userSpaceOnUse"
   x1="6.0678802"
   y1="20.651501"
   x2="6.0678802"
   y2="29.9788">
   <stop
   offset="0"
   style="stop-color:#C7C6C6"
   id="stop5411" />
   <stop
   offset="1"
   style="stop-color:#CCCBCB"
   id="stop5413" />
  </linearGradient>
  <linearGradient
   id="id5"
   gradientUnits="userSpaceOnUse"
   x1="19.7111"
   y1="21.036699"
   x2="19.7111"
   y2="30.5658">
   <stop
   offset="0"
   style="stop-color:#C76C02"
   id="stop5416" />
   <stop
   offset="1"
   style="stop-color:#E8980E"
   id="stop5418" />
  </linearGradient>
  <linearGradient
   id="id6"
   gradientUnits="userSpaceOnUse"
   x1="19.5005"
   y1="16.298901"
   x2="19.5005"
   y2="23.721201">
   <stop
   offset="0"
   style="stop-color:#FFEB77"
   id="stop5421" />
   <stop
   offset="1"
   style="stop-color:#FFBB04"
   id="stop5423" />
  </linearGradient>
  <linearGradient
   id="id7"
   gradientUnits="userSpaceOnUse"
   x1="19.5005"
   y1="14.5095"
   x2="19.5005"
   y2="25.510599">
   <stop
   offset="0"
   style="stop-color:#FFFEA4"
   id="stop5426" />
   <stop
   offset="1"
   style="stop-color:#FFEFA2"
   id="stop5428" />
  </linearGradient>
  <linearGradient
   id="id8"
   gradientUnits="userSpaceOnUse"
   x1="14"
   y1="1.2912101"
   x2="14"
   y2="29.6896">
   <stop
   offset="0"
   style="stop-color:#FEFEFE"
   id="stop5431" />
   <stop
   offset="0.419608"
   style="stop-color:#F0F0F0"
   id="stop5433" />
   <stop
   offset="1"
   style="stop-color:#E1E1E1"
   id="stop5435" />
  </linearGradient>
  <linearGradient
   id="id9"
   gradientUnits="userSpaceOnUse"
   x1="13.8458"
   y1="0.483071"
   x2="14.1557"
   y2="30.521999">
   <stop
   offset="0"
   style="stop-color:#BFBFBF"
   id="stop5438" />
   <stop
   offset="0.419608"
   style="stop-color:#A6A5A5"
   id="stop5440" />
   <stop
   offset="1"
   style="stop-color:#8C8B8B"
   id="stop5442" />
  </linearGradient>
  <linearGradient
   id="id10"
   gradientUnits="userSpaceOnUse"
   x1="19.5769"
   y1="17.4216"
   x2="19.370501"
   y2="18.6168">
   <stop
   offset="0"
   style="stop-color:white"
   id="stop5445" />
   <stop
   offset="1"
   style="stop-color:#FDEAA3"
   id="stop5447" />
  </linearGradient>
  <linearGradient
   id="id11"
   gradientUnits="userSpaceOnUse"
   x1="7.8877354"
   y1="23.625525"
   x2="5.4115534"
   y2="25.670252">
   <stop
   offset="0"
   style="stop-color:white"
   id="stop5450" />
   <stop
   offset="0.54902"
   style="stop-color:#EAEAEA"
   id="stop5452" />
   <stop
   offset="1"
   style="stop-color:#C8C8C8"
   id="stop5454" />
  </linearGradient>
  <linearGradient
   id="id12"
   gradientUnits="userSpaceOnUse"
   x1="6.7615924"
   y1="22.098537"
   x2="8.9839468"
   y2="25.336168">
   <stop
   offset="0"
   style="stop-color:white"
   id="stop5457" />
   <stop
   offset="0.5889101"
   style="stop-color:#D8D8D8"
   id="stop5459" />
   <stop
   offset="1"
   style="stop-color:#B0B0B0"
   id="stop5461" />
  </linearGradient>
 <linearGradient
   inkscape:collect="always"
   xlink:href="#id2"
   id="linearGradient5494"
   gradientUnits="userSpaceOnUse"
   x1="16.793699"
   y1="29.3279"
   x2="16.793699"
   y2="22.452999" /></defs>
 <g
   id="Layer_x0020_1"
   transform="matrix(1.0000496,0,0,1.0000003,1.9994122,-8.4587875e-6)">
  <metadata
   id="CorelCorpID_0Corel-Layer" />
  <g
   id="Document">
   <g
   id="Spread">
    <g
   id="MouseOff">
     <g
   id="Group">
      <path
   id="_191589904"
   class="fil0"
   d="m 28.0015,31.0031 0,0.0015 c 0,0.550732 -0.760138,0.99865 -1.69642,0.99865 l -15.9414,0 c -0.936282,0 -1.69642,-0.447918 -1.69642,-0.99865 l 0,-0.0015 c 0,-0.550732 0.760138,-0.99865 1.69642,-0.99865 l 15.9414,0 c 0.936282,0 1.69642,0.447918 1.69642,0.99865 z"
   inkscape:connector-curvature="0"
   style="fill:#000000;fill-opacity:0.09803898" />
      <path
   id="_191590144"
   class="fil1"
   d="m 27.5188,30.7631 0,0.0015 c 0,0.418435 -0.760138,0.758626 -1.69642,0.758626 l -14.976,0 c -0.936282,0 -1.69642,-0.340191 -1.69642,-0.758626 l 0,-0.0015 c 0,-0.418813 0.760138,-0.758626 1.69642,-0.758626 l 14.976,0 c 0.936282,0 1.69642,0.339813 1.69642,0.758626 z"
   inkscape:connector-curvature="0"
   style="fill:#000000;fill-opacity:0.152941" />
      <path
   id="_191589424"
   class="fil2"
   d="M 8.66467,30.291 C 6.48593,28.51747 2.77899,25.14126 0.73179,23.12506 0.302771,22.683567 0.048006,22.211458 0.001135,21.62104 L 1.03e-6,1.71074 C 1.03e-6,0.766521 0.78659903,-4e-5 1.753501,-4e-5 l 24.4945,0 c 0.966521,0 1.7535,0.766564 1.7535,1.71078 l 0,27.5827 c 0,0.945731 -0.786976,1.71116 -1.7535,1.71116 l -16.1005,0 c -0.570765,-0.0042 -1.08521,-0.424105 -1.4787,-0.709488 l -0.00416,-0.0042 z"
   inkscape:connector-curvature="0"
   style="fill:url(#id9)" />
      <path
   id="_191591224"
   class="fil3"
   d="M 10.3743,29.9792 C 9.934319,29.976554 9.632683,29.555095 9.23164,29.260263 7.17386,27.582743 3.66687,24.382673 1.73194,22.473073 1.357352,22.083743 1.038706,21.779461 0.998639,21.288833 l 0,-18.8991 c 0,-0.764296 0.637291,-1.38836 1.42011,-1.38836 l 23.1636,0 c 0.782818,0 1.41898,0.624062 1.41898,1.38836 l 0,26.2011 c 0,0.766942 -0.636157,1.38836 -1.41898,1.38836 l -15.2081,0 z"
   inkscape:connector-curvature="0"
   style="fill:url(#id8)" />
      <path
   id="_191592232"
   class="fil4"
   d="M 16.8735,30.3779 15.1733,28.02831 13.224,27.877492 c -0.830822,-0.0601 -1.74972,-0.700038 -0.500081,-2.10011 l 4.30039,-4.04979 5.14974,-0.450942 4.55138,4.10044 c 0.574545,0.602894 0.278579,2.02452 -0.550732,2.10049 l -1.84951,0.15044 -1.60041,2.30045 c -0.578703,0.831956 -2.35072,1.24926 -2.95097,-0.750688 -0.44943,2.30007 -2.45353,1.896 -2.90032,1.20012 z"
   inkscape:connector-curvature="0"
   style="fill:#000000;fill-opacity:0.30196102" />
      <path
   id="_191591968"
   class="fil5"
   d="m 17.1857,29.8699 -1.50553,-2.34694 -2.12695,-0.157622 c -0.830822,-0.05972 -1.22658,-1.05724 -0.664129,-1.67223 l 3.58448,-3.91484 c 0.31222,-0.341325 0.817593,-0.424105 1.2228,-0.199957 l 1.7414,0.963875 2.19763,-1.27345 c 0.399914,-0.232086 0.90831,-0.15989 1.22696,0.176143 l 3.65894,3.84567 c 0.574545,0.602894 0.197311,1.60835 -0.632,1.68432 l -2.12166,0.197311 -1.46131,2.37605 c -0.432043,0.705708 -1.48966,0.606674 -1.78563,-0.165182 l -0.746909,-1.94967 -0.805119,2.23506 c -0.280091,0.777526 -1.3362,0.897349 -1.78298,0.201469 z"
   inkscape:connector-curvature="0"
   style="fill:url(#id5)" />
      <path
   id="_191593096"
   class="fil6"
   d="M 10.0731,29.9111 C 9.823626,29.68166 9.596832,29.437856 9.45433,29.201612 7.12478,27.251942 3.49494,24.054522 1.11322,21.707582 1.0508516,21.582089 1.010785,21.444879 0.998689,21.288769 L 0.997555,20.651478 c 0.635779,0.588153 1.56261,0.686808 2.38285,0.664129 1.04817,-0.02684 2.85496,-0.114909 4.17641,-0.192019 1.22544,-0.06955 2.55484,1.11734 2.55597,2.43879 0,1.45337 -0.0026,2.98045 0.185593,4.29661 0.08656,0.602516 0.214698,1.43447 0.839894,2.12015 l -0.763918,0 c -0.108105,0 -0.207895,-0.02532 -0.301258,-0.06804 z"
   inkscape:connector-curvature="0"
   style="fill:url(#id4)" />
      <path
   id="_191593912"
   class="fil7 str0"
   d="m 4.80955,19.2087 c -0.192019,-0.61877 -0.86522,-0.61877 -1.21713,-0.048 -0.089584,0.14666 -0.192019,0.672067 -0.175009,0.882607 0.041579,0.461526 -0.034397,0.417301 0.125493,0.78433 0.053297,0.125115 0.29332,0.09601 0.47211,0.09866 0.263837,0.0064 0.907932,-0.14666 1.0682,-0.341703 0.062368,-0.07711 0.277067,-0.573033 0.049139,-0.517091 -0.254765,0.06388 -0.424105,0.634645 -0.22377,0.760138 0.121335,0.07598 0.391976,0.0344 0.498569,-0.02268 0.149306,-0.08165 0.422593,-0.237378 0.497435,-0.393488 0.298612,-0.634645 -0.390842,-1.72553 0.421459,-1.98709 0.263837,1.01377 -0.30277,0.794913 -0.596091,1.42427 -0.358713,0.762784 1.23338,1.38685 0.322426,2.77105 -0.789243,-0.874669 0.188239,-1.75765 0.770722,-2.42821 -0.131919,0.316 0.237378,0.570765 0.422971,0.29332 0.610454,0.659971 1.87067,-0.60554 1.9629,-1.22696 0.055943,-0.371942 -0.062746,-0.758626 -0.100167,-1.12943 -0.740105,2.03623 -1.10524,4.1046 -1.24283,6.25801 -0.894703,-1.99201 0.812301,-4.23916 3.00842,-4.14693"
   inkscape:connector-curvature="0"
   style="fill:none;stroke:#b0b0b0;stroke-width:0.500081;stroke-linecap:round;stroke-linejoin:round" />
      <path
   id="_191594320"
   class="fil8"
   d="M 11.2891,30.0045 C 9.62103,29.595137 9.85576,28.65356 9.72346,27.77738 9.56357,26.69066 9.526149,25.32536 9.526149,24.12788 c 0.260057,-1.08823 -1.2107,-2.40969 -2.40288,-2.3511 -1.11356,0.06275 -2.9109,0.177655 -3.79351,0.201469 -1.06442,0.02532 -2.14963,-0.100167 -2.28155,-1.34262 0.065014,1.03607 0.226416,1.01453 0.618392,1.71192 1.97651,1.95232 4.99401,4.52341 7.09563,6.24213 0.353421,0.562827 0.741239,0.892057 1.06253,1.05081 0.430909,0.215832 0.878827,0.291808 1.46433,0.364005 z"
   inkscape:connector-curvature="0"
   style="fill:url(#id12)" />
      <path
   id="_191594992"
   class="fil9"
   d="M 9.29402,29.3672 C 7.20184,27.65868 3.62833,24.39701 1.66013,22.45149 1.277226,22.055734 1.064039,21.650151 1.025485,21.15007 l 0,-0.582483 c 0,-0.0015 0,-0.0026 0,-0.0026 0.144014,1.39856 1.09844,2.2789 2.37227,2.24526 0.885253,-0.02268 2.41082,-0.0945 3.524,-0.155732 0.83876,-0.05065 1.68584,0.689076 1.68697,1.5679 0,1.19105 -0.00529,2.47508 0.162914,3.58977 0.149306,1.03494 0.667909,1.82305 2.4335,2.18554 -0.0026,0.0015 -0.0068,0.0042 -0.0095,0.0053 l -0.624062,0 c -0.450564,-0.0026 -0.8667307,-0.338679 -1.2776097,-0.635779 z"
   inkscape:connector-curvature="0"
   style="fill:url(#id11)" />
      <path
   id="_191595904"
   class="fil10"
   d="m 1.99881,10.0024 0,-6.06183 0.235866,0 0,0.00113 0.236244,0 0,-1.21335 -0.00151,0 0,-0.240024 1.41633,0 0,-0.486851 7.78471,0 0,0.241536 -7.54733,0 0,0.245316 4.95092,0 0,0.240024 -4.95092,0 0,0.243804 2.35752,0 0,0.24267 -2.38172,0 C 4.0082004,3.692231 3.64155,4.068331 3.17889,4.16056 l 0,2.44824 -0.235866,0 0,-2.42556 -0.236244,0 0,5.09228 -0.235866,0 0,-5.09228 -0.236244,0 0,5.81916 -0.235866,0 z m 23.7665,0 0,-5.81916 -0.236244,0 0,5.09228 -0.235866,0 0,-5.09228 -0.236244,0 0,2.42556 -0.235866,0 0,-2.44824 C 24.355784,4.0683304 23.990268,3.69223 23.901062,3.214829 l -2.38285,0 0,-0.24267 2.36017,0 0,-0.243804 -4.95394,0 0,-0.240024 4.95394,0 0,-0.245316 -7.54733,0 0,-0.241536 7.7832,0 0,0.486851 1.41482,0 0,1.45337 0.236244,0 0,-0.00113 0.235866,0 0,6.06183 -0.235866,0 z m -22.8223,-6.06069 0,-0.969545 0.942707,0 0,-0.243804 -1.17895,0 0,1.21335 0.236244,0 z m 22.3502,0 0,-1.21335 -1.17895,0 0,0.243804 0.942707,0 0,0.969545 0.236244,0 z m -0.47211,-0.026459 0,-0.700416 -0.680004,0 c 0.08278,0.344349 0.345483,0.613478 0.680004,0.700416 z M 3.8578,3.214835 l -0.67887,0 0,0.700416 C 3.512317,3.828313 3.776154,3.5591837 3.8578,3.2148347 z"
   inkscape:connector-curvature="0"
   style="fill:#d2d0d2" />
      <polygon
   id="_191596288"
   class="fil11"
   points="18.0282,29.3283 19.9594,23.9733 17.2122,22.453 13.6281,26.3682 16.2521,26.5614 "
   style="fill:url(#linearGradient5494)" />
      <polygon
   id="_191597008"
   class="fil12"
   points="21.4555,29.0244 19.4204,23.7079 22.1381,22.1328 25.7971,25.9785 23.1784,26.2212 "
   style="fill:url(#id3)" />
      <polygon
   id="_191598040"
   class="fil13"
   points="12.1437,19.1819 13.3,18.2977 12.7598,16.9472 14.1293,16.4645 14.0359,15.0149 15.4866,14.9801 15.8469,13.5721 17.239,13.9868 18.015,12.7587 19.2125,13.5827 20.3287,12.6532 21.2128,13.8095 22.5649,13.2693 23.0464,14.6388 24.4983,14.5454 24.5331,16.0003 25.9411,16.3575 25.5238,17.7497 26.7545,18.5261 25.9279,19.722 26.8573,20.8382 25.7011,21.7223 26.2412,23.0744 24.8718,23.5556 24.9651,25.0078 23.5144,25.0426 23.1542,26.4506 21.762,26.036 20.986,27.2629 19.7901,26.4374 18.6723,27.3669 17.7897,26.2121 16.4361,26.7507 15.955,25.3813 14.5054,25.4746 14.468,24.0198 13.0599,23.6637 13.4772,22.2704 12.2491,21.4955 13.0732,20.2981 "
   style="fill:#000000;fill-opacity:0.2" />
      <polygon
   id="_191597824"
   class="fil14"
   points="12.7492,19.2499 13.8106,18.438 13.3147,17.2004 14.5719,16.7563 14.4853,15.4254 15.8174,15.3936 16.1481,14.1028 17.4257,14.4816 18.1379,13.3559 19.2367,14.1123 20.2607,13.2588 21.0726,14.3202 22.3116,13.8242 22.7543,15.0814 24.0863,14.9949 24.1196,16.3296 25.4104,16.6592 25.029,17.9364 26.1573,18.6485 25.3987,19.7462 26.2518,20.7702 25.1904,21.5821 25.6867,22.8212 24.4291,23.2638 24.5157,24.5958 23.1836,24.6291 22.8529,25.9199 21.5753,25.54 20.8647,26.6653 19.7659,25.9078 18.7404,26.7613 17.9296,25.7014 16.6898,26.1959 16.2468,24.9387 14.9162,25.0252 14.8815,23.6905 13.5906,23.3624 13.972,22.0837 12.8464,21.3727 13.6027,20.2743 "
   style="fill:#e8980e" />
      <polygon
   id="_191598640"
   class="fil15"
   points="14.4615,17.7217 14.8641,18.7287 14,19.3901 14.6932,20.2263 14.0775,21.121 14.996,21.7008 14.6868,22.7422 15.7388,23.0105 15.7656,24.0946 16.8497,24.0251 17.2095,25.0494 18.2203,24.648 18.8817,25.5106 19.7152,24.8173 20.6114,25.4346 21.1928,24.5146 22.233,24.8253 22.501,23.7718 23.5862,23.745 23.5155,22.6609 24.541,22.2984 24.1385,21.2914 25.001,20.6315 24.3078,19.7953 24.9239,18.8991 24.005,18.3193 24.3157,17.2791 23.2623,17.0096 23.2354,15.9255 22.1514,15.995 21.79,14.9722 20.7808,15.3721 20.1193,14.5095 19.2858,15.2028 18.3896,14.5866 17.8098,15.5055 16.7684,15.1948 16.5004,16.2483 15.4148,16.2763 15.4855,17.3592 "
   style="fill:url(#id7)" />
      <path
   id="_191599312"
   class="fil16"
   d="m 18.303,24.3463 c 2.39495,0.660349 4.87532,-0.746531 5.53529,-3.13883 0.659971,-2.39343 -0.746909,-4.87381 -3.14034,-5.53378 -2.39495,-0.660349 -4.87532,0.746531 -5.53529,3.13883 -0.659971,2.39343 0.746909,4.87381 3.14034,5.53378 z"
   inkscape:connector-curvature="0"
   style="fill:url(#id0)" />
      <path
   id="_191600056"
   class="fil17"
   d="m 19.07,16.5363 c 1.91754,-0.237378 3.66688,1.12679 3.90426,3.0432 0.237378,1.91754 -1.12679,3.66688 -3.04282,3.90426 -1.91754,0.237378 -3.66726,-1.12679 -3.90464,-3.0432 -0.237378,-1.91717 1.12679,-3.66688 3.0432,-3.90426 z"
   inkscape:connector-curvature="0"
   style="fill:url(#id6)" />
      <path
   id="_191600800"
   class="fil18"
   d="m 16.5295,18.8046 c 2.20028,-1.26967 4.01237,-1.26702 5.88871,0.32545 -0.106593,-0.98542 -1.56148,-2.02149 -2.66181,-2.1175 -1.20654,-0.104325 -2.76689,0.711755 -3.2269,1.79205 z"
   inkscape:connector-curvature="0"
   style="fill:url(#id10)" />
      <path
   id="_191601496"
   class="fil19"
   d="m 16.4017,20.9701 c 2.0506,1.38949 3.88158,1.63216 6.00059,0.52276 -0.244182,0.831956 -1.86047,1.52557 -2.98461,1.45602 -1.23452,-0.07446 -2.69885,-0.988066 -3.01598,-1.97878 z"
   inkscape:connector-curvature="0"
   style="fill:url(#id1)" />
      <path
   id="_191602240"
   class="fil10"
   d="m 4.99779,12.8615 0,-0.716291 c 0,-0.07749 0.06388,-0.141368 0.141368,-0.141368 l 3.71905,0 c 0.07711,0 0.141368,0.06388 0.141368,0.141368 l 0,0.716291 c 0,0.07711 -0.064258,0.14099 -0.141368,0.14099 l -3.71905,0 c -0.077488,0 -0.141368,-0.06388 -0.141368,-0.14099 z m 0,-2.00032 0,-0.716291 c 0,-0.07711 0.06388,-0.141368 0.141368,-0.141368 l 5.71937,0 c 0.07711,0 0.14099,0.06426 0.14099,0.141368 l 0,0.716291 c 0,0.07711 -0.06388,0.141368 -0.14099,0.141368 l -5.71937,0 c -0.077488,0 -0.141368,-0.06426 -0.141368,-0.141368 z m 7.00189,0 0,-0.716291 c 0,-0.07711 0.06426,-0.141368 0.141368,-0.141368 l 5.71937,0 c 0.07749,0 0.141368,0.06426 0.141368,0.141368 l 0,0.716291 c 0,0.07711 -0.06388,0.141368 -0.141368,0.141368 l -5.71937,0 c -0.07711,0 -0.141368,-0.06426 -0.141368,-0.141368 z m 6.99962,0 0,-0.716291 c 0,-0.07711 0.06388,-0.141368 0.141368,-0.141368 l 3.71905,0 c 0.07711,0 0.141368,0.06426 0.141368,0.141368 l 0,0.716291 c 0,0.07711 -0.06426,0.141368 -0.141368,0.141368 l -3.71905,0 c -0.07749,0 -0.141368,-0.06426 -0.141368,-0.141368 z m -2.99784,-2.00032 0,-0.715913 c 0,-0.077488 0.06426,-0.141368 0.140234,-0.141368 l 6.71915,0 c 0.07598,0 0.140234,0.06388 0.140234,0.141368 l 0,0.715913 c 0,0.077488 -0.06426,0.141368 -0.140234,0.141368 l -6.71915,0 c -0.07598,0 -0.140234,-0.06388 -0.140234,-0.141368 z m -11.0037,-0.00113 0,-0.716291 c 0,-0.07711 0.06388,-0.141368 0.141368,-0.141368 l 3.71905,0 c 0.07711,0 0.141368,0.064258 0.141368,0.141368 l 0,0.716291 c 0,0.07711 -0.064258,0.141368 -0.141368,0.141368 l -3.71905,0 C 5.06164,9.001098 4.99776,8.93684 4.99776,8.85973 z m 5.00043,0 0,-0.716291 c 0,-0.07711 0.06388,-0.141368 0.141368,-0.141368 l 4.71921,0 c 0.07749,0 0.141368,0.064258 0.141368,0.141368 l 0,0.716291 c 0,0.07711 -0.06388,0.141368 -0.141368,0.141368 l -4.71921,0 c -0.07749,0 -0.141368,-0.064258 -0.141368,-0.141368 z m -5.00308,-1.99919 0,-0.715913 c 0,-0.077488 0.06388,-0.141368 0.141368,-0.141368 l 5.72202,0 c 0.07711,0 0.14099,0.06388 0.14099,0.141368 l 0,0.715913 c 0,0.077488 -0.06388,0.141368 -0.14099,0.141368 l -5.72202,0 C 5.05899,7.001908 4.99511,6.938028 4.99511,6.86054 z m 7.00454,0 0,-0.715913 c 0,-0.077488 0.06426,-0.141368 0.141368,-0.141368 l 5.72202,0 c 0.07749,0 0.141368,0.06388 0.141368,0.141368 l 0,0.715913 c 0,0.077488 -0.06388,0.141368 -0.141368,0.141368 l -5.72202,0 c -0.07711,0 -0.141368,-0.06388 -0.141368,-0.141368 z m 6.99698,-0.00113 0,-0.715913 c 0,-0.077488 0.06388,-0.141368 0.141368,-0.141368 l 3.72169,0 c 0.07711,0 0.141368,0.06388 0.141368,0.141368 l 0,0.715913 c 0,0.077488 -0.06426,0.141368 -0.141368,0.141368 l -3.72169,0 c -0.07749,0 -0.141368,-0.06388 -0.141368,-0.141368 z M 9.99706,4.8606 l 0,-0.716291 c 0,-0.07711 0.06388,-0.141368 0.141368,-0.141368 l 7.72196,0 c 0.07749,0 0.141368,0.064258 0.141368,0.141368 l 0,0.716291 c 0,0.07711 -0.06388,0.141368 -0.141368,0.141368 l -7.72196,0 C 10.060938,5.001968 9.99706,4.93771 9.99706,4.8606 z"
   inkscape:connector-curvature="0"
   style="fill:#d2d0d2" />
     </g>
    </g>
   </g>
  </g>
 </g>
</svg>