<?xml version="1.0" encoding="UTF-8" standalone="no"?>
<!-- Created with Inkscape (http://www.inkscape.org/) -->

<svg
   xmlns:dc="http://purl.org/dc/elements/1.1/"
   xmlns:cc="http://creativecommons.org/ns#"
   xmlns:rdf="http://www.w3.org/1999/02/22-rdf-syntax-ns#"
   xmlns:svg="http://www.w3.org/2000/svg"
   xmlns="http://www.w3.org/2000/svg"
   xmlns:sodipodi="http://sodipodi.sourceforge.net/DTD/sodipodi-0.dtd"
   xmlns:inkscape="http://www.inkscape.org/namespaces/inkscape"
   width="32"
   height="32"
   id="svg2"
   version="1.1"
   inkscape:version="0.48.3.1 r9886"
   sodipodi:docname="32.svg">
  <defs
     id="defs4">
    <linearGradient
       gradientTransform="matrix(0,1,-1,0,12.043,6.8)"
       y2="0"
       x2="10.244"
       y1="0"
       x1="0"
       gradientUnits="userSpaceOnUse"
       id="LinearGradient_9-14">
      <stop
         id="stop146439"
         stop-color="#ededed"
         offset="0" />
      <stop
         id="stop146441"
         stop-color="#ffffff"
         offset="1" />
    </linearGradient>
    <linearGradient
       gradientTransform="translate(6.859,19.802)"
       y2="0"
       x2="10.285"
       y1="0"
       x1="0"
       gradientUnits="userSpaceOnUse"
       id="LinearGradient_8-08">
      <stop
         id="stop146432"
         stop-color="#fef5cb"
         offset="0" />
      <stop
         id="stop146434"
         stop-color="#ffffff"
         offset="0.499931275844574" />
      <stop
         id="stop146436"
         stop-color="#fef5cb"
         offset="1" />
    </linearGradient>
    <linearGradient
       gradientTransform="matrix(0,-1,1,0,11.01,20.251)"
       y2="0"
       x2="14"
       y1="0"
       x1="0"
       gradientUnits="userSpaceOnUse"
       id="LinearGradient_7-79">
      <stop
         id="stop146427"
         stop-color="#fede4d"
         offset="0" />
      <stop
         id="stop146429"
         stop-color="#f7c019"
         offset="1" />
    </linearGradient>
    <linearGradient
       gradientTransform="matrix(0,-1,1,0,11.471,21.001)"
       y2="0"
       x2="14.175"
       y1="0"
       x1="0"
       gradientUnits="userSpaceOnUse"
       id="LinearGradient_6-0">
      <stop
         id="stop146422"
         stop-color="#edbc6d"
         offset="0" />
      <stop
         id="stop146424"
         stop-color="#e6a356"
         offset="1" />
    </linearGradient>
    <linearGradient
       gradientTransform="matrix(-0.01306342,0.99991467,-1.0000266,-0.0044983,22.288,3.406)"
       y2="0"
       x2="18.295"
       y1="0"
       x1="0"
       gradientUnits="userSpaceOnUse"
       id="LinearGradient_5-04">
      <stop
         id="stop146415"
         stop-color="#ededed"
         offset="0" />
      <stop
         id="stop146417"
         stop-color="#ffffff"
         offset="0.666675209999084" />
      <stop
         id="stop146419"
         stop-color="#ffffff"
         offset="1" />
    </linearGradient>
    <linearGradient
       gradientTransform="matrix(-0.99995641,0.00933738,-0.00933738,-0.99995641,23.251,11.23)"
       y2="0"
       x2="2.25"
       y1="0"
       x1="0"
       gradientUnits="userSpaceOnUse"
       id="LinearGradient_4-31">
      <stop
         id="stop146408"
         stop-color="#dee0e1"
         offset="0" />
      <stop
         id="stop146410"
         stop-color="#949da2"
         offset="0.666695713996887" />
      <stop
         id="stop146412"
         stop-color="#8b8b8b"
         offset="1" />
    </linearGradient>
    <linearGradient
       gradientTransform="matrix(0,-1,1,0,22.016,23.634)"
       y2="0"
       x2="21.053"
       y1="0"
       x1="0"
       gradientUnits="userSpaceOnUse"
       id="LinearGradient_3-14">
      <stop
         id="stop146403"
         stop-color="#b0b0b0"
         offset="0" />
      <stop
         id="stop146405"
         stop-color="#818689"
         offset="1" />
    </linearGradient>
    <linearGradient
       gradientTransform="matrix(0.01306342,0.99991467,-1.0000266,0.0044983,1.714,3.406)"
       y2="0"
       x2="18.295"
       y1="0"
       x1="0"
       gradientUnits="userSpaceOnUse"
       id="LinearGradient_2-83">
      <stop
         id="stop146396"
         stop-color="#ededed"
         offset="0" />
      <stop
         id="stop146398"
         stop-color="#ffffff"
         offset="0.666675209999084" />
      <stop
         id="stop146400"
         stop-color="#ffffff"
         offset="1" />
    </linearGradient>
    <linearGradient
       gradientTransform="translate(0.751,11.23)"
       y2="0.021"
       x2="2.25"
       y1="0"
       x1="0"
       gradientUnits="userSpaceOnUse"
       id="LinearGradient_1-02">
      <stop
         id="stop146389"
         stop-color="#dee0e1"
         offset="0" />
      <stop
         id="stop146391"
         stop-color="#949da2"
         offset="0.666695713996887" />
      <stop
         id="stop146393"
         stop-color="#8b8b8b"
         offset="1" />
    </linearGradient>
    <linearGradient
       gradientTransform="matrix(0,-1,1,0,1.986,23.634)"
       y2="0"
       x2="21.053"
       y1="0"
       x1="0"
       gradientUnits="userSpaceOnUse"
       id="LinearGradient-19">
      <stop
         id="stop146384"
         stop-color="#b0b0b0"
         offset="0" />
      <stop
         id="stop146386"
         stop-color="#818689"
         offset="1" />
    </linearGradient>
  </defs>
  <sodipodi:namedview
     id="base"
     pagecolor="#ffffff"
     bordercolor="#666666"
     borderopacity="1.0"
     inkscape:pageopacity="0.0"
     inkscape:pageshadow="2"
     inkscape:zoom="11.662765"
     inkscape:cx="16.048309"
     inkscape:cy="15.729469"
     inkscape:document-units="px"
     inkscape:current-layer="layer1"
     showgrid="false"
     inkscape:snap-global="false"
     inkscape:window-width="875"
     inkscape:window-height="593"
     inkscape:window-x="507"
     inkscape:window-y="329"
     inkscape:window-maximized="0" />
  <metadata
     id="metadata7">
    <rdf:RDF>
      <cc:Work
         rdf:about="">
        <dc:format>image/svg+xml</dc:format>
        <dc:type
           rdf:resource="http://purl.org/dc/dcmitype/StillImage" />
        <dc:title />
      </cc:Work>
    </rdf:RDF>
  </metadata>
  <g
     inkscape:label="Layer 1"
     inkscape:groupmode="layer"
     id="layer1"
     transform="translate(0,-1020.3622)">
    <g
       style="fill-rule:evenodd;stroke-width:0.50099999;stroke-linejoin:bevel;overflow:visible"
       id="g146606"
       transform="matrix(1.3332778,0,0,1.3332778,0,1020.3635)">
      <g
         transform="scale(1,-1)"
         font-size="16"
         id="Document"
         style="font-size:16px;fill:none;stroke:#000000;font-family:Times New Roman">
        <g
           transform="translate(0,-24)"
           id="Spread">
          <g
             id="MouseOff">
            <g
               id="Group"
               style="stroke:none">
              <g
                 id="Group_1">
                <g
                   id="Group_2">
                  <g
                     stroke-miterlimit="79.8403193612775"
                     id="Group_3"
                     style="fill:#000000">
                    <path
                       id="path146450"
                       d="M 3.375,1.5 C 5.238,1.5 6.75,1.164 6.75,0.75 6.75,0.336 5.238,0 3.375,0 1.512,0 0,0.336 0,0.75 0,1.164 1.512,1.5 3.375,1.5 z"
                       inkscape:connector-curvature="0"
                       style="fill-opacity:0.047059;marker-start:none;marker-end:none" />
                    <path
                       id="path146452"
                       d="M 3.125,1.5 C 4.751,1.5 6.071,1.164 6.071,0.75 6.071,0.336 4.751,0 3.125,0 1.499,0 0.179,0.336 0.179,0.75 c 0,0.414 1.32,0.75 2.946,0.75 z"
                       inkscape:connector-curvature="0"
                       style="fill-opacity:0.07450998;marker-start:none;marker-end:none" />
                    <path
                       id="path146454"
                       d="M 2.858,1.5 C 4.139,1.5 5.179,1.276 5.179,1 5.179,0.724 4.139,0.5 2.858,0.5 1.577,0.5 0.537,0.724 0.537,1 c 0,0.276 1.04,0.5 2.321,0.5 z"
                       inkscape:connector-curvature="0"
                       style="fill-opacity:0.09019602;marker-start:none;marker-end:none" />
                    <path
                       id="path146456"
                       d="M 2.679,1.5 C 3.763,1.5 4.643,1.276 4.643,1 4.643,0.724 3.763,0.5 2.679,0.5 1.595,0.5 0.715,0.724 0.715,1 c 0,0.276 0.88,0.5 1.964,0.5 z"
                       inkscape:connector-curvature="0"
                       style="fill-opacity:0.09019602;marker-start:none;marker-end:none" />
                    <path
                       id="path146458"
                       d="M 2.322,1.5 C 3.111,1.5 3.751,1.276 3.751,1 3.751,0.724 3.111,0.5 2.322,0.5 1.533,0.5 0.893,0.724 0.893,1 c 0,0.276 0.64,0.5 1.429,0.5 z"
                       inkscape:connector-curvature="0"
                       style="fill-opacity:0.09019602;marker-start:none;marker-end:none" />
                    <path
                       id="path146460"
                       d="M 2.054,1.5 C 2.498,1.5 2.858,1.276 2.858,1 2.858,0.724 2.498,0.5 2.054,0.5 1.61,0.5 1.25,0.724 1.25,1 c 0,0.276 0.36,0.5 0.804,0.5 z"
                       inkscape:connector-curvature="0"
                       style="fill-opacity:0.047059;marker-start:none;marker-end:none" />
                  </g>
                  <path
                     style="fill:url(#LinearGradient-19);stroke-width:0.18700001;marker-start:none;marker-end:none"
                     id="path146462"
                     stroke-miterlimit="79.8403193612775"
                     d="m 0.001,1.117 0,22.517 c 0,0.203 0.84,0.367 1.874,0.367 1.035,0 1.876,-0.164 1.876,-0.367 0,0 -10e-4,0 -10e-4,-0.001 l 0,-22.515 C 3.75,1.117 3.751,1.117 3.751,1.117 3.751,0.914 2.91,0.751 1.875,0.751 0.842,0.751 0.002,0.914 0.001,1.117 z"
                     inkscape:connector-curvature="0" />
                  <path
                     style="fill:url(#LinearGradient_1-02);stroke-width:0.18700001;marker-start:none;marker-end:none"
                     id="path146464"
                     stroke-miterlimit="79.8403193612775"
                     d="M 1.074,1.567 C 0.957,1.59 0.869,1.615 0.807,1.637 l -0.056,0.023 0,21.432 0.056,0.022 c 0.062,0.022 0.15,0.047 0.267,0.071 0.218,0.039 0.495,0.066 0.803,0.066 0.306,0 0.583,-0.027 0.801,-0.066 0.117,-0.024 0.205,-0.049 0.266,-0.071 L 3.001,23.091 3.001,1.66 2.944,1.637 C 2.883,1.615 2.795,1.59 2.678,1.567 2.46,1.527 2.183,1.501 1.877,1.501 1.57,1.501 1.292,1.527 1.074,1.567 z"
                     inkscape:connector-curvature="0" />
                  <path
                     style="fill:url(#LinearGradient_2-83);stroke-width:0.18700001;marker-start:none;marker-end:none"
                     id="path146466"
                     stroke-miterlimit="79.8403193612775"
                     d="m 1.501,21.314 0,-17.875 c 0,-0.242 0.28,-0.438 0.622,-0.438 l 0.256,0 c 0.342,0 0.622,0.196 0.622,0.438 l 0,17.875 c 0,0.242 -0.28,0.437 -0.622,0.437 l -0.256,0 c -0.342,0 -0.622,-0.195 -0.622,-0.437 z"
                     inkscape:connector-curvature="0" />
                  <path
                     id="path146468"
                     stroke-miterlimit="79.8403193612775"
                     d="m 2.251,20.592 0,-16.432 c 0,-0.225 0.167,-0.409 0.375,-0.409 l 0,0 c 0.207,0 0.375,0.184 0.375,0.409 l 0,16.432 c 0,0.225 -0.168,0.409 -0.375,0.409 l 0,0 c -0.208,0 -0.375,-0.184 -0.375,-0.409 z"
                     inkscape:connector-curvature="0"
                     style="fill:#747474;stroke-width:0.18700001;marker-start:none;marker-end:none" />
                  <path
                     id="path146470"
                     stroke-miterlimit="79.8403193612775"
                     d="m 1.876,23.251 c 0.621,0 1.125,-0.168 1.125,-0.375 0,-0.207 -0.504,-0.375 -1.125,-0.375 -0.621,0 -1.125,0.168 -1.125,0.375 0,0.207 0.504,0.375 1.125,0.375 z"
                     inkscape:connector-curvature="0"
                     style="fill:#ffffff;stroke-width:0.18700001;marker-start:none;marker-end:none" />
                  <path
                     id="path146472"
                     stroke-miterlimit="79.8403193612775"
                     d="m 1.876,2.251 c 0.621,0 1.125,-0.168 1.125,-0.375 0,-0.207 -0.504,-0.375 -1.125,-0.375 -0.621,0 -1.125,0.168 -1.125,0.375 0,0.207 0.504,0.375 1.125,0.375 z"
                     inkscape:connector-curvature="0"
                     style="fill:#ffffff;stroke-width:0.18700001;marker-start:none;marker-end:none" />
                </g>
                <g
                   id="Group_4">
                  <g
                     stroke-miterlimit="79.8403193612775"
                     id="Group_5"
                     style="fill:#000000">
                    <path
                       id="path146476"
                       d="m 20.626,1.5 c -1.863,0 -3.375,-0.336 -3.375,-0.75 0,-0.414 1.512,-0.75 3.375,-0.75 1.863,0 3.375,0.336 3.375,0.75 0,0.414 -1.512,0.75 -3.375,0.75 z"
                       inkscape:connector-curvature="0"
                       style="fill-opacity:0.047059;marker-start:none;marker-end:none" />
                    <path
                       id="path146478"
                       d="M 20.876,1.5 C 19.25,1.5 17.93,1.164 17.93,0.75 17.93,0.336 19.25,0 20.876,0 c 1.626,0 2.946,0.336 2.946,0.75 0,0.414 -1.32,0.75 -2.946,0.75 z"
                       inkscape:connector-curvature="0"
                       style="fill-opacity:0.07450998;marker-start:none;marker-end:none" />
                    <path
                       id="path146480"
                       d="m 21.143,1.5 c -1.281,0 -2.321,-0.224 -2.321,-0.5 0,-0.276 1.04,-0.5 2.321,-0.5 1.281,0 2.321,0.224 2.321,0.5 0,0.276 -1.04,0.5 -2.321,0.5 z"
                       inkscape:connector-curvature="0"
                       style="fill-opacity:0.09019602;marker-start:none;marker-end:none" />
                    <path
                       id="path146482"
                       d="m 21.322,1.5 c -1.084,0 -1.964,-0.224 -1.964,-0.5 0,-0.276 0.88,-0.5 1.964,-0.5 1.084,0 1.964,0.224 1.964,0.5 0,0.276 -0.88,0.5 -1.964,0.5 z"
                       inkscape:connector-curvature="0"
                       style="fill-opacity:0.09019602;marker-start:none;marker-end:none" />
                    <path
                       id="path146484"
                       d="M 21.679,1.5 C 20.89,1.5 20.25,1.276 20.25,1 c 0,-0.276 0.64,-0.5 1.429,-0.5 0.789,0 1.429,0.224 1.429,0.5 0,0.276 -0.64,0.5 -1.429,0.5 z"
                       inkscape:connector-curvature="0"
                       style="fill-opacity:0.09019602;marker-start:none;marker-end:none" />
                    <path
                       id="path146486"
                       d="m 21.947,1.5 c -0.444,0 -0.804,-0.224 -0.804,-0.5 0,-0.276 0.36,-0.5 0.804,-0.5 0.444,0 0.804,0.224 0.804,0.5 0,0.276 -0.36,0.5 -0.804,0.5 z"
                       inkscape:connector-curvature="0"
                       style="fill-opacity:0.047059;marker-start:none;marker-end:none" />
                  </g>
                  <path
                     style="fill:url(#LinearGradient_3-14);stroke-width:0.18700001;marker-start:none;marker-end:none"
                     id="path146488"
                     stroke-miterlimit="79.8403193612775"
                     d="m 24.001,1.117 0,22.517 c 0,0.203 -0.84,0.367 -1.874,0.367 -1.035,0 -1.876,-0.164 -1.876,-0.367 0,0 10e-4,0 10e-4,-0.001 l 0,-22.515 c 0,-0.001 -10e-4,-0.001 -10e-4,-0.001 0,-0.203 0.841,-0.366 1.876,-0.366 1.033,0 1.873,0.163 1.874,0.366 z"
                     inkscape:connector-curvature="0" />
                  <path
                     style="fill:url(#LinearGradient_4-31);stroke-width:0.18700001;marker-start:none;marker-end:none"
                     id="path146490"
                     stroke-miterlimit="79.8403193612775"
                     d="m 22.928,1.567 c 0.117,0.023 0.205,0.048 0.267,0.07 l 0.056,0.023 0,21.432 -0.056,0.022 c -0.062,0.022 -0.15,0.047 -0.267,0.071 -0.218,0.039 -0.495,0.066 -0.803,0.066 -0.306,0 -0.583,-0.027 -0.801,-0.066 -0.117,-0.024 -0.205,-0.049 -0.266,-0.071 l -0.057,-0.023 0,-21.431 0.057,-0.023 c 0.061,-0.022 0.149,-0.047 0.266,-0.07 0.218,-0.04 0.495,-0.066 0.801,-0.066 0.307,0 0.585,0.026 0.803,0.066 z"
                     inkscape:connector-curvature="0" />
                  <path
                     style="fill:url(#LinearGradient_5-04);stroke-width:0.18700001;marker-start:none;marker-end:none"
                     id="path146492"
                     stroke-miterlimit="79.8403193612775"
                     d="m 22.501,21.314 0,-17.875 c 0,-0.242 -0.28,-0.438 -0.622,-0.438 l -0.256,0 c -0.342,0 -0.622,0.196 -0.622,0.438 l 0,17.875 c 0,0.242 0.28,0.437 0.622,0.437 l 0.256,0 c 0.342,0 0.622,-0.195 0.622,-0.437 z"
                     inkscape:connector-curvature="0" />
                  <path
                     id="path146494"
                     stroke-miterlimit="79.8403193612775"
                     d="m 21.751,20.592 0,-16.432 c 0,-0.225 -0.167,-0.409 -0.375,-0.409 l 0,0 c -0.207,0 -0.375,0.184 -0.375,0.409 l 0,16.432 c 0,0.225 0.168,0.409 0.375,0.409 l 0,0 c 0.208,0 0.375,-0.184 0.375,-0.409 z"
                     inkscape:connector-curvature="0"
                     style="fill:#747474;stroke-width:0.18700001;marker-start:none;marker-end:none" />
                  <path
                     id="path146496"
                     stroke-miterlimit="79.8403193612775"
                     d="m 22.126,23.251 c -0.621,0 -1.125,-0.168 -1.125,-0.375 0,-0.207 0.504,-0.375 1.125,-0.375 0.621,0 1.125,0.168 1.125,0.375 0,0.207 -0.504,0.375 -1.125,0.375 z"
                     inkscape:connector-curvature="0"
                     style="fill:#ffffff;stroke-width:0.18700001;marker-start:none;marker-end:none" />
                  <path
                     id="path146498"
                     stroke-miterlimit="79.8403193612775"
                     d="m 22.126,2.251 c -0.621,0 -1.125,-0.168 -1.125,-0.375 0,-0.207 0.504,-0.375 1.125,-0.375 0.621,0 1.125,0.168 1.125,0.375 0,0.207 -0.504,0.375 -1.125,0.375 z"
                     inkscape:connector-curvature="0"
                     style="fill:#ffffff;stroke-width:0.18700001;marker-start:none;marker-end:none" />
                </g>
                <path
                   style="fill:url(#LinearGradient_6-0);stroke-width:0.18700001;marker-start:none;marker-end:none"
                   id="path146500"
                   stroke-miterlimit="79.8403193612775"
                   d="m 3.001,21.001 0,-17.248 18,0 0,17.248 -18,0 z"
                   inkscape:connector-curvature="0" />
                <path
                   style="fill:url(#LinearGradient_7-79);stroke-width:0.18700001;marker-start:none;marker-end:none"
                   id="path146502"
                   stroke-miterlimit="79.8403193612775"
                   d="m 3.751,4.501 0,15.75 16.5,0 0,-15.75 -16.5,0 z"
                   inkscape:connector-curvature="0" />
                <path
                   id="path146504"
                   stroke-miterlimit="79.8403193612775"
                   d="m 3.752,20.251 0,-0.751 16.499,0 0,0.751 -16.499,0 z"
                   inkscape:connector-curvature="0"
                   style="fill:#fef5cb;stroke-width:0.30899999;marker-start:none;marker-end:none" />
                <path
                   style="fill:url(#LinearGradient_8-08);stroke-width:0.30899999;marker-start:none;marker-end:none"
                   id="path146506"
                   stroke-miterlimit="79.8403193612775"
                   d="m 12.001,20.251 c 2.898,0 5.25,-0.236 5.25,-0.525 0,-0.289 -2.352,-0.525 -5.25,-0.525 -2.898,0 -5.25,0.236 -5.25,0.525 0,0.289 2.352,0.525 5.25,0.525 z"
                   inkscape:connector-curvature="0" />
                <path
                   id="path146508"
                   stroke-miterlimit="79.8403193612775"
                   d="m 3.751,5.25 0,-0.749 16.499,0 0,0.749 -16.499,0 z"
                   inkscape:connector-curvature="0"
                   style="fill:#fede4d;stroke-width:0.30899999;marker-start:none;marker-end:none" />
                <path
                   id="path146510"
                   stroke-miterlimit="79.8403193612775"
                   d="m 4.502,21 0,-17.249 -1.501,0 0,17.249 1.501,0 z"
                   inkscape:connector-curvature="0"
                   style="fill:#000000;fill-opacity:0.05490202;stroke-width:0.18700001;marker-start:none;marker-end:none" />
                <path
                   id="path146512"
                   stroke-miterlimit="79.8403193612775"
                   d="m 19.5,21.001 0,-17.251 1.501,0 0,17.251 -1.501,0 z"
                   inkscape:connector-curvature="0"
                   style="fill:#000000;fill-opacity:0.05490202;stroke-width:0.18700001;marker-start:none;marker-end:none" />
                <path
                   id="path146514"
                   stroke-miterlimit="79.8403193612775"
                   d="m 5.251,5.25 0,1.501 -1.499,0 0,0.749 1.499,0 0,1.501 -1.499,0 0,0.749 1.499,0 0,1.501 -1.499,0 0,0.749 1.499,0 0,1.501 -1.499,0 0,0.749 1.499,0 0,1.501 -1.499,0 0,0.749 1.499,0 0,1.501 -1.5,0 0,0.749 1.5,0 0,0.751 0.749,0 0,-0.751 1.502,0 0,0.751 0.749,0 0,-0.751 1.501,0 0,0.751 0.749,0 0,-0.751 1.501,0 0,0.751 0.749,0 0,-0.751 1.501,0 0,0.751 0.749,0 0,-0.751 1.501,0 0,0.752 0.749,0 0,-0.752 1.501,0 0,0.752 0.749,0 0,-0.752 0.749,0 0,-0.749 -0.749,0 0,-1.501 0.75,0 0,-0.749 -0.75,0 0,-1.501 0.75,0 0,-0.749 -0.75,0 0,-1.501 0.75,0 0,-0.749 -0.75,0 0,-1.501 0.75,0 0,-0.749 -0.75,0 0,-1.501 0.75,0 0,-0.749 -0.75,0 0,-1.5 -0.749,0 0,1.5 -1.501,0 0,-1.5 -0.749,0 0,1.5 -1.501,0 0,-1.501 -0.749,0 0,1.501 -1.501,0 0,-1.501 -0.749,0 0,1.501 -1.501,0 0,-1.501 -0.749,0 0,1.501 -1.501,0 0,-1.501 -0.749,0 0,1.501 -1.502,0 0,-1.501 -0.749,0 z m 2.251,2.25 0,1.501 -1.502,0 0,-1.501 1.502,0 z m 2.25,0 0,1.501 -1.501,0 0,-1.501 1.501,0 z m 2.25,0 0,1.501 -1.501,0 0,-1.501 1.501,0 z m 2.25,0 0,1.501 -1.501,0 0,-1.501 1.501,0 z m 2.25,0 0,1.501 -1.501,0 0,-1.501 1.501,0 z m 2.25,0 0,1.501 -1.501,0 0,-1.501 1.501,0 z m -11.25,2.25 0,1.501 -1.502,0 0,-1.501 1.502,0 z m 2.25,0 0,1.501 -1.501,0 0,-1.501 1.501,0 z m 2.25,0 0,1.501 -1.501,0 0,-1.501 1.501,0 z m 2.25,0 0,1.501 -1.501,0 0,-1.501 1.501,0 z m 2.25,0 0,1.501 -1.501,0 0,-1.501 1.501,0 z m 2.25,0 0,1.501 -1.501,0 0,-1.501 1.501,0 z M 7.502,12 l 0,1.501 L 6,13.501 6,12 7.502,12 z m 2.25,0 0,1.501 -1.501,0 0,-1.501 1.501,0 z m 2.25,0 0,1.501 -1.501,0 0,-1.501 1.501,0 z m 2.25,0 0,1.501 -1.501,0 0,-1.501 1.501,0 z m 2.25,0 0,1.501 -1.501,0 0,-1.501 1.501,0 z m 2.25,0 0,1.501 -1.501,0 0,-1.501 1.501,0 z m -11.25,2.25 0,1.501 -1.502,0 0,-1.501 1.502,0 z m 2.25,0 0,1.501 -1.501,0 0,-1.501 1.501,0 z m 2.25,0 0,1.501 -1.501,0 0,-1.501 1.501,0 z m 2.25,0 0,1.501 -1.501,0 0,-1.501 1.501,0 z m 2.25,0 0,1.501 -1.501,0 0,-1.501 1.501,0 z m 2.25,0 0,1.501 -1.501,0 0,-1.501 1.501,0 z m -11.25,2.25 0,1.501 -1.502,0 0,-1.501 1.502,0 z m 2.25,0 0,1.501 -1.501,0 0,-1.501 1.501,0 z m 2.25,0 0,1.501 -1.501,0 0,-1.501 1.501,0 z m 2.25,0 0,1.501 -1.501,0 0,-1.501 1.501,0 z m 2.25,0 0,1.501 -1.501,0 0,-1.501 1.501,0 z m 2.25,0 0,1.501 -1.501,0 0,-1.501 1.501,0 z"
                   inkscape:connector-curvature="0"
                   style="fill:#ffffff;fill-opacity:0.14509798;stroke-width:0.30899999;marker-start:none;marker-end:none" />
                <path
                   id="path146516"
                   stroke-miterlimit="79.8403193612775"
                   d="m 3.751,12.759 10e-4,7.492 16.499,0 0,-7.492 c -2.396,-0.482 -5.224,-0.758 -8.25,-0.758 -3.026,0 -5.855,0.276 -8.25,0.758 z"
                   inkscape:connector-curvature="0"
                   style="fill:#ffffff;fill-opacity:0.164706;stroke-width:0.18700001;marker-start:none;marker-end:none" />
              </g>
              <g
                 stroke-miterlimit="79.8403193612775"
                 id="Group_6">
                <path
                   id="path146519"
                   d="m 6.028,10.643 c 0.075,0.825 0.562,1.537 0.75,1.687 0.75,-0.6 2.4,-2.512 3.9,-0.6 1.241,1.582 -0.3,2.738 -1.162,3.45 0.563,1.65 2.511,2.196 4.342,2 1.725,-0.187 3.399,-1.699 3.937,-3.586 0.955,-3.362 -1.432,-7.544 -6.44,-7.544 -3.757,0 -5.57,1.914 -5.327,4.593 z M 10.501,8.625 C 10.501,9.246 9.997,9.75 9.376,9.75 8.755,9.75 8.251,9.246 8.251,8.625 8.251,8.004 8.755,7.5 9.376,7.5 c 0.621,0 1.125,0.504 1.125,1.125 z m 3.75,0 c 0,0.621 -0.504,1.125 -1.125,1.125 -0.621,0 -1.125,-0.504 -1.125,-1.125 0,-0.621 0.504,-1.125 1.125,-1.125 0.621,0 1.125,0.504 1.125,1.125 z m 2.25,3 c 0,0.621 -0.504,1.125 -1.125,1.125 -0.621,0 -1.125,-0.504 -1.125,-1.125 0,-0.621 0.504,-1.125 1.125,-1.125 0.621,0 1.125,0.504 1.125,1.125 z m -7.924,0.481 -1.143,0.807 c 0.619,0.024 1.396,1.132 1.408,1.555 l 1.161,-1.05 C 10.78,12.919 9.632,11.289 8.577,12.106 z m 5.674,2.519 c 0,0.621 -0.504,1.125 -1.125,1.125 -0.621,0 -1.125,-0.504 -1.125,-1.125 0,-0.621 0.504,-1.125 1.125,-1.125 0.621,0 1.125,0.504 1.125,1.125 z M 5.86,13.894 C 4.678,14.918 5.385,17.178 6.326,18.001 6.151,16.404 7.785,16.272 8.128,14.993 8.324,14.261 6.987,12.919 5.86,13.894 z"
                   inkscape:connector-curvature="0"
                   style="fill:#cb8a05;marker-start:none;marker-end:none" />
                <path
                   style="fill:url(#LinearGradient_9-14);marker-start:none;marker-end:none"
                   id="path146521"
                   d="m 6.028,11.393 c 0.075,0.825 0.562,1.537 0.75,1.687 0.75,-0.6 2.4,-2.512 3.9,-0.6 1.241,1.582 -0.3,2.738 -1.162,3.45 0.563,1.65 2.511,2.196 4.342,2 1.725,-0.187 3.399,-1.699 3.937,-3.586 C 18.75,10.982 16.363,6.8 11.355,6.8 7.598,6.8 5.785,8.714 6.028,11.393 z m 4.473,-2.018 c 0,0.621 -0.504,1.125 -1.125,1.125 -0.621,0 -1.125,-0.504 -1.125,-1.125 0,-0.621 0.504,-1.125 1.125,-1.125 0.621,0 1.125,0.504 1.125,1.125 z m 3.75,0 c 0,0.621 -0.504,1.125 -1.125,1.125 -0.621,0 -1.125,-0.504 -1.125,-1.125 0,-0.621 0.504,-1.125 1.125,-1.125 0.621,0 1.125,0.504 1.125,1.125 z m 2.25,3 c 0,0.621 -0.504,1.125 -1.125,1.125 -0.621,0 -1.125,-0.504 -1.125,-1.125 0,-0.621 0.504,-1.125 1.125,-1.125 0.621,0 1.125,0.504 1.125,1.125 z m -7.924,0.481 -1.143,0.807 c 0.619,0.024 1.396,1.132 1.408,1.555 l 1.161,-1.05 C 10.78,13.669 9.632,12.039 8.577,12.856 z m 5.674,2.519 c 0,0.621 -0.504,1.125 -1.125,1.125 -0.621,0 -1.125,-0.504 -1.125,-1.125 0,-0.621 0.504,-1.125 1.125,-1.125 0.621,0 1.125,0.504 1.125,1.125 z M 5.86,14.644 C 4.678,15.668 5.385,17.928 6.326,18.751 6.151,17.154 7.785,17.022 8.128,15.743 8.324,15.011 6.987,13.669 5.86,14.644 z"
                   inkscape:connector-curvature="0" />
              </g>
            </g>
          </g>
        </g>
      </g>
    </g>
  </g>
</svg>
