<?xml version="1.0" encoding="UTF-8" standalone="no"?>
<!-- Created with Inkscape (http://www.inkscape.org/) -->

<svg
   xmlns:dc="http://purl.org/dc/elements/1.1/"
   xmlns:cc="http://creativecommons.org/ns#"
   xmlns:rdf="http://www.w3.org/1999/02/22-rdf-syntax-ns#"
   xmlns:svg="http://www.w3.org/2000/svg"
   xmlns="http://www.w3.org/2000/svg"
   xmlns:sodipodi="http://sodipodi.sourceforge.net/DTD/sodipodi-0.dtd"
   xmlns:inkscape="http://www.inkscape.org/namespaces/inkscape"
   width="32"
   height="32"
   id="svg2"
   version="1.1"
   inkscape:version="0.48.3.1 r9886"
   sodipodi:docname="32.svg">
  <defs
     id="defs4">
    <linearGradient
       gradientTransform="translate(4.499,3.749)"
       y2="0"
       x2="15.001"
       y1="0"
       x1="0"
       gradientUnits="userSpaceOnUse"
       id="LinearGradient_16-564">
      <stop
         id="stop122300"
         stop-color="#2e2c2c"
         offset="0" />
      <stop
         id="stop122302"
         stop-color="#8a8a8a"
         offset="3.80952395498753E-02" />
      <stop
         id="stop122304"
         stop-color="#b1afaf"
         offset="0.493790477514267" />
      <stop
         id="stop122306"
         stop-color="#8a8a8a"
         offset="0.952380955219269" />
      <stop
         id="stop122308"
         stop-color="#2e2c2c"
         offset="1" />
    </linearGradient>
    <linearGradient
       gradientTransform="translate(6,13.5)"
       y2="0"
       x2="12.75"
       y1="0"
       x1="0"
       gradientUnits="userSpaceOnUse"
       id="LinearGradient_15-59">
      <stop
         id="stop122293"
         stop-color="#1d1d1d"
         offset="0" />
      <stop
         id="stop122295"
         stop-color="#e5e5e5"
         offset="0.499215692281723" />
      <stop
         id="stop122297"
         stop-color="#1d1d1d"
         offset="1" />
    </linearGradient>
    <linearGradient
       gradientTransform="matrix(-0.65314311,-0.7572345,0.74360043,-0.66895004,14.225,10.957)"
       y2="0"
       x2="7.119"
       y1="0"
       x1="0"
       gradientUnits="userSpaceOnUse"
       id="LinearGradient_14-44">
      <stop
         id="stop122288"
         stop-color="#adfaff"
         offset="0" />
      <stop
         id="stop122290"
         stop-color="#588fcc"
         offset="1" />
    </linearGradient>
    <linearGradient
       gradientTransform="matrix(0.92234602,0.38636488,-0.37274069,0.92805311,8.444,8.389)"
       y2="0"
       x2="5.313"
       y1="0"
       x1="0"
       gradientUnits="userSpaceOnUse"
       id="LinearGradient_13-11">
      <stop
         id="stop122283"
         stop-color="#adfaff"
         offset="0" />
      <stop
         id="stop122285"
         stop-color="#588fcc"
         offset="1" />
    </linearGradient>
    <linearGradient
       gradientTransform="matrix(-0.45821524,0.88884126,-0.88093613,-0.47354953,11.963,4.796)"
       y2="0"
       x2="8.229"
       y1="0"
       x1="0"
       gradientUnits="userSpaceOnUse"
       id="LinearGradient_12-7790">
      <stop
         id="stop122278"
         stop-color="#adfaff"
         offset="0" />
      <stop
         id="stop122280"
         stop-color="#588fcc"
         offset="1" />
    </linearGradient>
    <linearGradient
       gradientTransform="matrix(-0.54675974,-0.83728955,0.82689624,-0.56267571,13.973,9.544)"
       y2="0"
       x2="3.676"
       y1="0"
       x1="0"
       gradientUnits="userSpaceOnUse"
       id="LinearGradient_11-235">
      <stop
         id="stop122273"
         stop-color="#adfaff"
         offset="0" />
      <stop
         id="stop122275"
         stop-color="#588fcc"
         offset="1" />
    </linearGradient>
    <linearGradient
       gradientTransform="matrix(0,-1,1,0,11.022,14.041)"
       y2="0"
       x2="9.332"
       y1="0"
       x1="0"
       gradientUnits="userSpaceOnUse"
       id="LinearGradient_10-25">
      <stop
         id="stop122268"
         stop-color="#9dd4ff"
         offset="0" />
      <stop
         id="stop122270"
         stop-color="#588fcc"
         offset="1" />
    </linearGradient>
    <linearGradient
       gradientTransform="translate(2.999,1.5)"
       y2="0"
       x2="18.751"
       y1="0"
       x1="0"
       gradientUnits="userSpaceOnUse"
       id="LinearGradient_9-037">
      <stop
         id="stop122257"
         stop-color="#2e2c2c"
         offset="0" />
      <stop
         id="stop122259"
         stop-color="#8a8a8a"
         offset="3.80952395498753E-02" />
      <stop
         id="stop122261"
         stop-color="#ffffff"
         offset="0.493790477514267" />
      <stop
         id="stop122263"
         stop-color="#8a8a8a"
         offset="0.952380955219269" />
      <stop
         id="stop122265"
         stop-color="#2e2c2c"
         offset="1" />
    </linearGradient>
    <linearGradient
       gradientTransform="matrix(-0.63915716,-0.76907615,0.73212363,-0.68362087,14.691,20.063)"
       y2="0"
       x2="11.13"
       y1="0"
       x1="0"
       gradientUnits="userSpaceOnUse"
       id="LinearGradient_8-09">
      <stop
         id="stop122252"
         stop-color="#adfaff"
         offset="0" />
      <stop
         id="stop122254"
         stop-color="#8ca0ee"
         offset="1" />
    </linearGradient>
    <linearGradient
       gradientTransform="matrix(0.91704476,0.39878428,-0.36139293,0.93330469,5.847,15.986)"
       y2="0"
       x2="8.177"
       y1="0"
       x1="0"
       gradientUnits="userSpaceOnUse"
       id="LinearGradient_7-875">
      <stop
         id="stop122247"
         stop-color="#adfaff"
         offset="0" />
      <stop
         id="stop122249"
         stop-color="#7b94e3"
         offset="1" />
    </linearGradient>
    <linearGradient
       gradientTransform="matrix(-0.44477587,0.89564191,-0.87435855,-0.48763401,11.231,10.28)"
       y2="0"
       x2="12.97"
       y1="0"
       x1="0"
       gradientUnits="userSpaceOnUse"
       id="LinearGradient_6-988">
      <stop
         id="stop122242"
         stop-color="#adfaff"
         offset="0" />
      <stop
         id="stop122244"
         stop-color="#868fea"
         offset="1" />
    </linearGradient>
    <linearGradient
       gradientTransform="matrix(-0.53237404,-0.84650923,0.81789373,-0.57787454,14.307,17.821)"
       y2="0"
       x2="5.777"
       y1="0"
       x1="0"
       gradientUnits="userSpaceOnUse"
       id="LinearGradient_5-021">
      <stop
         id="stop122237"
         stop-color="#adfaff"
         offset="0" />
      <stop
         id="stop122239"
         stop-color="#8492e9"
         offset="1" />
    </linearGradient>
    <linearGradient
       gradientTransform="matrix(0,-1,1,0,12.384,23.12)"
       y2="0"
       x2="15.488"
       y1="0"
       x1="0"
       gradientUnits="userSpaceOnUse"
       id="LinearGradient_4-496">
      <stop
         id="stop122230"
         stop-color="#bdbcfd"
         offset="0" />
      <stop
         id="stop122232"
         stop-color="#9cd3fe"
         offset="0.502222239971161" />
      <stop
         id="stop122234"
         stop-color="#817ee7"
         offset="1" />
    </linearGradient>
    <linearGradient
       gradientTransform="matrix(0,-1,1,0,9.679,22.959)"
       y2="0"
       x2="15.168"
       y1="0"
       x1="0"
       gradientUnits="userSpaceOnUse"
       id="LinearGradient_3-313">
      <stop
         id="stop122225"
         stop-color="#e2e2e2"
         offset="0" />
      <stop
         id="stop122227"
         stop-color="#b0b0b0"
         offset="1" />
    </linearGradient>
    <linearGradient
       gradientTransform="matrix(0,-1,1,0,9.563,23.843)"
       y2="0"
       x2="16.936"
       y1="0"
       x1="0"
       gradientUnits="userSpaceOnUse"
       id="LinearGradient_2-37">
      <stop
         id="stop122220"
         stop-color="#878b8e"
         offset="0" />
      <stop
         id="stop122222"
         stop-color="#818689"
         offset="1" />
    </linearGradient>
    <linearGradient
       gradientTransform="translate(12,6.75)"
       y2="-1.5"
       x2="0"
       y1="0"
       x1="0"
       gradientUnits="userSpaceOnUse"
       id="LinearGradient_1-010">
      <stop
         id="stop122215"
         stop-color="#b2b2b2"
         offset="0" />
      <stop
         id="stop122217"
         stop-color="#ffffff"
         offset="1" />
    </linearGradient>
    <linearGradient
       gradientTransform="matrix(0,-1,1,0,22.727,6.408)"
       y2="0"
       x2="3.194"
       y1="0"
       x1="0"
       gradientUnits="userSpaceOnUse"
       id="LinearGradient-557">
      <stop
         id="stop122208"
         stop-color="#494848"
         offset="0" />
      <stop
         id="stop122210"
         stop-color="#818284"
         offset="0.490416675806046" />
      <stop
         id="stop122212"
         stop-color="#818284"
         offset="1" />
    </linearGradient>
  </defs>
  <sodipodi:namedview
     id="base"
     pagecolor="#ffffff"
     bordercolor="#666666"
     borderopacity="1.0"
     inkscape:pageopacity="0.0"
     inkscape:pageshadow="2"
     inkscape:zoom="12.752418"
     inkscape:cx="15.827586"
     inkscape:cy="15.099881"
     inkscape:document-units="px"
     inkscape:current-layer="layer1"
     showgrid="false"
     inkscape:snap-page="true"
     inkscape:snap-grids="false"
     inkscape:snap-to-guides="false"
     inkscape:window-width="901"
     inkscape:window-height="665"
     inkscape:window-x="520"
     inkscape:window-y="200"
     inkscape:window-maximized="0">
    <inkscape:grid
       type="xygrid"
       id="grid11920"
       empspacing="5"
       visible="true"
       enabled="true"
       snapvisiblegridlinesonly="true" />
  </sodipodi:namedview>
  <metadata
     id="metadata7">
    <rdf:RDF>
      <cc:Work
         rdf:about="">
        <dc:format>image/svg+xml</dc:format>
        <dc:type
           rdf:resource="http://purl.org/dc/dcmitype/StillImage" />
        <dc:title />
      </cc:Work>
    </rdf:RDF>
  </metadata>
  <g
     inkscape:label="Layer 1"
     inkscape:groupmode="layer"
     id="layer1"
     transform="translate(0,-1020.3622)">
    <g
       style="fill-rule:evenodd;stroke-width:0.50099999;stroke-linejoin:bevel;overflow:visible"
       id="g122498"
       transform="matrix(1.3333889,0,0,1.3333333,0,1020.3622)">
      <g
         transform="scale(1,-1)"
         font-size="16"
         id="Document"
         style="font-size:16px;fill:none;stroke:#000000;font-family:Times New Roman">
        <g
           transform="translate(0,-24)"
           id="Spread">
          <g
             id="MouseOff">
            <g
               id="Group"
               style="stroke:none">
              <g
                 id="Group_1">
                <path
                   id="path122315"
                   d="m 0.75,2.626 0,0 C 0.75,2.418 0.963,2.25 1.226,2.25 l 21.549,0 c 0.263,0 0.475,0.168 0.475,0.376 l 0,0 C 23.25,2.833 23.038,3 22.775,3 L 1.226,3 C 0.963,3 0.75,2.833 0.75,2.626 z"
                   inkscape:connector-curvature="0"
                   style="fill:#a6a6a6;fill-opacity:0.45490202;marker-start:none;marker-end:none" />
                <path
                   style="fill:url(#LinearGradient-557);marker-start:none;marker-end:none"
                   id="path122317"
                   d="m 1.15,4.501 c 0.701,0 2.106,0.375 2.807,1.125 C 4.307,6 4.599,7.442 4.658,8.25 l 6.966,-0.066 0,-0.007 7.717,0.073 C 19.4,7.442 19.693,6 20.042,5.626 c 0.702,-0.75 2.105,-1.125 2.807,-1.125 0.466,0 0.598,-1.519 0,-1.501 L 11.626,3 1.15,3 c -0.598,-0.018 -0.466,1.501 0,1.501 z"
                   inkscape:connector-curvature="0" />
                <path
                   id="path122319"
                   d="m 3.751,4.501 -2.25,-0.751 20.999,0 -2.25,0.751 -16.499,0 z"
                   inkscape:connector-curvature="0"
                   style="fill:#e5e5e5;marker-start:none;marker-end:none" />
                <path
                   style="fill:url(#LinearGradient_1-010);marker-start:none;marker-end:none"
                   id="path122321"
                   d="m 4.504,5.113 c 0.335,0.358 0.532,1.04 0.641,1.484 0.066,0.272 0.123,0.559 0.168,0.834 l 0.008,0.062 6.302,-0.064 7.053,0.064 0.009,-0.062 c 0.045,-0.275 0.102,-0.562 0.169,-0.834 0.113,-0.462 0.302,-1.122 0.64,-1.484 0.222,-0.238 0.49,-0.442 0.781,-0.614 l -16.554,0 c 0.291,0.172 0.56,0.376 0.783,0.614 z"
                   inkscape:connector-curvature="0" />
                <g
                   stroke-miterlimit="79.8403193612775"
                   id="Group_2">
                  <g
                     id="Group_3">
                    <path
                       style="fill:url(#LinearGradient_2-37);marker-start:none;marker-end:none"
                       id="path122325"
                       d="M 0,22.408 0,8.341 C 0,7.463 0.714,6.749 1.592,6.749 l 20.815,0 c 0.878,0 1.592,0.714 1.592,1.592 l 0,14.067 C 23.999,23.286 23.285,24 22.407,24 L 1.592,24 C 0.714,24 0,23.286 0,22.408 z"
                       inkscape:connector-curvature="0" />
                    <path
                       style="fill:url(#LinearGradient_3-313);marker-start:none;marker-end:none"
                       id="path122327"
                       d="m 0.749,22.209 0,-13.669 c 0,-0.574 0.467,-1.041 1.041,-1.041 l 20.419,0 c 0.574,0 1.041,0.467 1.041,1.041 l 0,13.669 c 0,0.574 -0.467,1.041 -1.041,1.041 l -20.419,0 c -0.574,0 -1.041,-0.467 -1.041,-1.041 z"
                       inkscape:connector-curvature="0" />
                    <path
                       id="path122329"
                       d="m 1.501,21.207 0,-12.415 C 1.501,8.493 1.744,8.25 2.043,8.25 l 19.915,0 c 0.299,0 0.542,0.243 0.542,0.542 l 0,12.415 c 0,0.299 -0.243,0.542 -0.542,0.542 l -19.915,0 c -0.299,0 -0.542,-0.243 -0.542,-0.542 z"
                       inkscape:connector-curvature="0"
                       style="fill:#989898;marker-start:none;marker-end:none" />
                    <path
                       id="path122331"
                       d="m 2.251,9.749 0,-1.499 19.499,0 0,1.499 -19.499,0 z"
                       inkscape:connector-curvature="0"
                       style="fill:#cccbcb;marker-start:none;marker-end:none" />
                    <path
                       id="path122333"
                       d="m 2.251,20.953 0,-11.157 C 2.251,9.357 2.608,9 3.047,9 l 17.907,0 c 0.439,0 0.796,0.357 0.796,0.796 l 0,11.157 c 0,0.439 -0.357,0.796 -0.796,0.796 l -17.907,0 c -0.439,0 -0.796,-0.357 -0.796,-0.796 z"
                       inkscape:connector-curvature="0"
                       style="fill:#1d1d1d;marker-start:none;marker-end:none" />
                    <path
                       id="path122335"
                       d="m 1.5,23.249 0,-0.749 20.999,0 0,0.749 -20.999,0 z"
                       inkscape:connector-curvature="0"
                       style="fill:#f1f0f0;marker-start:none;marker-end:none" />
                  </g>
                  <g
                     id="Group_4">
                    <path
                       style="fill:url(#LinearGradient_4-496);marker-start:none;marker-end:none"
                       id="path122338"
                       d="m 3.001,10.097 0,10.557 c 0,0.19 0.156,0.346 0.346,0.346 l 17.307,0 C 20.844,21 21,20.844 21,20.654 L 21,10.097 C 21,9.907 20.844,9.751 20.654,9.751 l -17.307,0 c -0.19,0 -0.346,0.156 -0.346,0.346 z"
                       inkscape:connector-curvature="0" />
                    <g
                       id="Group_5">
                      <g
                         id="Group_6">
                        <path
                           style="fill:url(#LinearGradient_5-021);fill-opacity:0.34509798;marker-start:none;marker-end:none"
                           id="path122342"
                           d="m 3.001,10.097 0,10.557 c 0,0.19 0.156,0.346 0.346,0.346 l 0.812,0 C 5.959,20.41 7.64,19.461 9.556,18.617 13.736,16.77 17.037,13.679 21,12.025 l 0,-1.928 C 21,9.907 20.844,9.751 20.654,9.751 l -17.307,0 c -0.19,0 -0.346,0.156 -0.346,0.346 z"
                           inkscape:connector-curvature="0" />
                        <path
                           style="fill:url(#LinearGradient_6-988);fill-opacity:0.69019596;marker-start:none;marker-end:none"
                           id="path122344"
                           d="m 3,11.969 10e-4,8.685 c 0,0.19 0.156,0.346 0.346,0.346 l 17.307,0 C 20.844,21 21,20.844 21,20.654 l 0,-1.191 C 17.552,15.665 9.99,15.205 3,11.969 z"
                           inkscape:connector-curvature="0" />
                        <path
                           style="fill:url(#LinearGradient_7-875);fill-opacity:0.54509798;marker-start:none;marker-end:none"
                           id="path122346"
                           d="m 3.001,17.681 0,2.973 c 0,0.19 0.156,0.346 0.346,0.346 l 17.307,0 C 20.844,21 21,20.844 21,20.654 L 20.999,11.45 C 11.63,12.133 12.894,17.4 3.001,17.681 z"
                           inkscape:connector-curvature="0" />
                        <path
                           style="fill:url(#LinearGradient_8-09);fill-opacity:0.38039198;marker-start:none;marker-end:none"
                           id="path122348"
                           d="M 3.001,10.097 3,20.52 C 6.513,17.98 10.835,12.672 16.016,9.751 l -12.669,0 c -0.19,0 -0.346,0.156 -0.346,0.346 z"
                           inkscape:connector-curvature="0" />
                      </g>
                    </g>
                  </g>
                </g>
                <path
                   id="path122350"
                   d="m 3.75,5.143 0,-0.537 C 3.75,4.548 3.798,4.5 3.856,4.5 l 16.287,0 c 0.058,0 0.106,0.048 0.106,0.106 l 0,0.537 c 0,0.058 -0.048,0.106 -0.106,0.106 l -16.287,0 C 3.798,5.249 3.75,5.201 3.75,5.143 z"
                   inkscape:connector-curvature="0"
                   style="fill:#818284;marker-start:none;marker-end:none" />
              </g>
              <path
                 id="path122352"
                 stroke-miterlimit="79.8403193612775"
                 d="m 3.75,9.75 0,6.75 15,0 0,-6.75 -15,0 z"
                 inkscape:connector-curvature="0"
                 style="fill:#1d1d1d;fill-opacity:0.2;stroke-width:0.18700001;marker-start:none;marker-end:none" />
              <g
                 id="Group_7">
                <path
                   id="path122355"
                   d="m 1.5,0.376 0,0 C 1.5,0.168 1.706,0 1.96,0 l 20.83,0 c 0.255,0 0.46,0.168 0.46,0.376 l 0,0 c 0,0.207 -0.205,0.374 -0.46,0.374 l -20.83,0 C 1.706,0.75 1.5,0.583 1.5,0.376 z"
                   inkscape:connector-curvature="0"
                   style="fill:#a6a6a6;fill-opacity:0.45490202;marker-start:none;marker-end:none" />
                <path
                   id="path122357"
                   stroke-miterlimit="79.8403193612775"
                   d="m 4.499,14.643 0,-9.787 c 0,-0.197 0.16,-0.357 0.357,-0.357 l 15.037,0 c 0.197,0 0.357,0.16 0.357,0.357 l 0,9.787 C 20.25,14.84 20.09,15 19.893,15 L 4.856,15 C 4.659,15 4.499,14.84 4.499,14.643 z"
                   inkscape:connector-curvature="0"
                   style="fill:#1d1d1d;stroke-width:0.18700001;marker-start:none;marker-end:none" />
                <path
                   id="path122359"
                   stroke-miterlimit="79.8403193612775"
                   d="M 2.251,0.749 2.25,1.5 l 2.25,3 15.75,0 2.25,-3 0,-0.751 -20.249,0 z"
                   inkscape:connector-curvature="0"
                   style="fill:#1d1d1d;stroke-width:0.18700001;marker-start:none;marker-end:none" />
                <path
                   id="path122361"
                   stroke-miterlimit="79.8403193612775"
                   d="m 3,1.5 2.25,3 14.25,0 2.25,-3 L 3,1.5 z"
                   inkscape:connector-curvature="0"
                   style="fill:#7d8894;stroke-width:0.18700001;marker-start:none;marker-end:none" />
                <path
                   style="fill:url(#LinearGradient_9-037);stroke-width:0.18700001;marker-start:none;marker-end:none"
                   id="path122363"
                   stroke-miterlimit="79.8403193612775"
                   d="M 3,2.197 3,1.554 C 3,1.525 3.024,1.501 3.053,1.501 l 18.643,0 c 0.029,0 0.053,0.024 0.053,0.053 l 0,0.643 c 0,0.029 -0.024,0.053 -0.053,0.053 l -18.643,0 C 3.024,2.25 3,2.226 3,2.197 z"
                   inkscape:connector-curvature="0" />
                <g
                   id="Group_8">
                  <g
                     id="Group_9">
                    <path
                       style="fill:url(#LinearGradient_10-25);stroke-width:0.18700001;marker-start:none;marker-end:none"
                       id="path122367"
                       stroke-miterlimit="79.8403193612775"
                       d="m 6,5.559 0,7.631 c 0,0.171 0.131,0.31 0.293,0.31 l 12.165,0 c 0.162,0 0.292,-0.139 0.292,-0.31 l 0,-7.631 c 0,-0.17 -0.13,-0.309 -0.292,-0.309 l -12.165,0 C 6.131,5.25 6,5.389 6,5.559 z"
                       inkscape:connector-curvature="0" />
                    <g
                       stroke-miterlimit="79.8403193612775"
                       id="Group_10">
                      <path
                         style="fill:url(#LinearGradient_11-235);fill-opacity:0.34509798;marker-start:none;marker-end:none"
                         id="path122370"
                         d="m 6,5.559 0,6.293 c 1.732,-0.227 3.154,-1.079 4.869,-1.807 2.872,-1.222 5.109,-2.661 7.881,-3.546 l 0,-0.94 c 0,-0.17 -0.13,-0.309 -0.292,-0.309 l -12.165,0 C 6.131,5.25 6,5.389 6,5.559 z"
                         inkscape:connector-curvature="0" />
                      <path
                         style="fill:url(#LinearGradient_12-7790);fill-opacity:0.69019596;marker-start:none;marker-end:none"
                         id="path122372"
                         d="m 6,6.356 0,6.834 c 0,0.171 0.131,0.31 0.293,0.31 l 12.165,0 c 0.162,0 0.292,-0.139 0.292,-0.31 l 0,-2.085 C 16.654,8.285 11.017,8.745 6,6.356 z"
                         inkscape:connector-curvature="0" />
                      <path
                         style="fill:url(#LinearGradient_13-11);fill-opacity:0.54509798;marker-start:none;marker-end:none"
                         id="path122374"
                         d="m 6,9.466 0,3.724 c 0,0.171 0.131,0.31 0.293,0.31 l 12.165,0 c 0.162,0 0.292,-0.139 0.292,-0.31 l 0,-6.913 C 11.999,6.547 13.253,9.513 6,9.466 z"
                         inkscape:connector-curvature="0" />
                      <path
                         style="fill:url(#LinearGradient_14-44);fill-opacity:0.38039198;marker-start:none;marker-end:none"
                         id="path122376"
                         d="m 6,5.559 0,6.066 C 8.336,10.331 11.262,7.079 14.815,5.25 l -8.522,0 C 6.131,5.25 6,5.389 6,5.559 z"
                         inkscape:connector-curvature="0" />
                    </g>
                  </g>
                  <path
                     id="path122378"
                     stroke-miterlimit="79.8403193612775"
                     d="m 6,9.945 0,3.245 c 0,0.171 0.131,0.31 0.293,0.31 l 12.165,0 c 0.162,0 0.292,-0.139 0.292,-0.31 l 0,-3.277 C 16.875,9.569 14.736,9.375 12.464,9.375 10.12,9.375 7.915,9.582 6,9.945 z"
                     inkscape:connector-curvature="0"
                     style="fill:#ffffff;fill-opacity:0.12549002;stroke-width:0.18700001;marker-start:none;marker-end:none" />
                </g>
                <path
                   id="path122380"
                   stroke-miterlimit="79.8403193612775"
                   d="M 10.5,3 9.75,2.25 15,2.25 14.25,3 10.5,3 z"
                   inkscape:connector-curvature="0"
                   style="fill:#191919;fill-opacity:0.74509798;stroke-width:0.18700001;marker-start:none;marker-end:none" />
                <path
                   id="path122382"
                   stroke-miterlimit="79.8403193612775"
                   d="m 5.999,5.777 0,-0.303 c 0,-0.123 0.1,-0.223 0.223,-0.223 l 12.305,0 c 0.123,0 0.223,0.1 0.223,0.223 l 0,0.303 C 18.75,5.9 18.65,6 18.527,6 L 6.222,6 C 6.099,6 5.999,5.9 5.999,5.777 z"
                   inkscape:connector-curvature="0"
                   style="fill:#81b6e9;stroke-width:0.18700001;marker-start:none;marker-end:none" />
                <path
                   id="path122384"
                   stroke-miterlimit="79.8403193612775"
                   d="m 4.5,3.549 0,-0.348 C 4.5,3.09 4.572,3 4.66,3 l 15.429,0 c 0.089,0 0.161,0.09 0.161,0.201 l 0,0.348 c 0,0.111 -0.072,0.201 -0.161,0.201 L 4.66,3.75 C 4.572,3.75 4.5,3.66 4.5,3.549 z"
                   inkscape:connector-curvature="0"
                   style="fill:#1d1d1d;stroke-width:0.18700001;marker-start:none;marker-end:none" />
                <path
                   style="fill:url(#LinearGradient_15-59);stroke-width:0.18700001;marker-start:none;marker-end:none"
                   id="path122386"
                   stroke-miterlimit="79.8403193612775"
                   d="m 6,14.25 0,-0.751 12.749,0 0,0.751 -12.749,0 z"
                   inkscape:connector-curvature="0" />
                <path
                   style="fill:url(#LinearGradient_16-564);stroke-width:0.18700001;marker-start:none;marker-end:none"
                   id="path122388"
                   stroke-miterlimit="79.8403193612775"
                   d="M 5.25,4.5 4.5,3.75 20.25,3.75 19.5,4.5 5.25,4.5 z"
                   inkscape:connector-curvature="0" />
              </g>
            </g>
          </g>
        </g>
      </g>
    </g>
  </g>
</svg>
