<?xml version="1.0" encoding="UTF-8"?>
<!DOCTYPE svg PUBLIC "-//W3C//DTD SVG 1.1//EN" "http://www.w3.org/Graphics/SVG/1.1/DTD/svg11.dtd">
<!-- Creator: CorelDRAW -->
<svg xmlns="http://www.w3.org/2000/svg" xml:space="preserve" width="32px" height="32px" style="shape-rendering:geometricPrecision; text-rendering:geometricPrecision; image-rendering:optimizeQuality; fill-rule:evenodd; clip-rule:evenodd"
viewBox="0 0 32 32"
 xmlns:xlink="http://www.w3.org/1999/xlink">
 <defs>
  <style type="text/css">
   <![CDATA[
    .fil22 {fill:none}
    .fil40 {fill:#7F7F7F}
    .fil58 {fill:#999999}
    .fil57 {fill:#E5E5E5}
    .fil47 {fill:white}
    .fil49 {fill:#4C4C4C}
    .fil28 {fill:#5C5C5C}
    .fil14 {fill:#666666}
    .fil61 {fill:dimgray}
    .fil27 {fill:#7F7F7F}
    .fil54 {fill:#CFCFCF}
    .fil15 {fill:#D6D6D6}
    .fil48 {fill:#E5E5E5}
    .fil52 {fill:#F0F0F0}
    .fil26 {fill:white}
    .fil55 {fill:white;fill-rule:nonzero}
    .fil20 {fill:#396DA6;fill-rule:nonzero}
    .fil59 {fill:#7F7F7F;fill-rule:nonzero}
    .fil64 {fill:#808385;fill-rule:nonzero}
    .fil0 {fill:black;fill-opacity:0.000000}
    .fil30 {fill:#191919;fill-opacity:0.000000}
    .fil1 {fill:black;fill-opacity:0.007843}
    .fil31 {fill:#191919;fill-opacity:0.007843}
    .fil2 {fill:black;fill-opacity:0.011765}
    .fil32 {fill:#191919;fill-opacity:0.019608}
    .fil3 {fill:black;fill-opacity:0.019608}
    .fil4 {fill:black;fill-opacity:0.023529}
    .fil33 {fill:#191919;fill-opacity:0.027451}
    .fil5 {fill:black;fill-opacity:0.031373}
    .fil34 {fill:#191919;fill-opacity:0.035294}
    .fil6 {fill:black;fill-opacity:0.035294}
    .fil7 {fill:black;fill-opacity:0.043137}
    .fil35 {fill:#191919;fill-opacity:0.043137}
    .fil8 {fill:black;fill-opacity:0.050980}
    .fil36 {fill:#191919;fill-opacity:0.054902}
    .fil9 {fill:black;fill-opacity:0.054902}
    .fil10 {fill:black;fill-opacity:0.062745}
    .fil37 {fill:#191919;fill-opacity:0.062745}
    .fil11 {fill:black;fill-opacity:0.066667}
    .fil38 {fill:#191919;fill-opacity:0.070588}
    .fil12 {fill:black;fill-opacity:0.074510}
    .fil13 {fill:black;fill-opacity:0.078431}
    .fil39 {fill:#191919;fill-opacity:0.078431}
    .fil63 {fill:#333333;fill-opacity:0.219608}
    .fil23 {fill:#191919;fill-opacity:0.321569}
    .fil53 {fill:#A4A5A7;fill-opacity:0.439216}
    .fil21 {fill:#7CBAED;fill-rule:nonzero;fill-opacity:0.501961}
    .fil19 {fill:#2C5480;fill-opacity:0.560784}
    .fil18 {fill:#35679E;fill-opacity:0.560784}
    .fil46 {fill:#575757;fill-opacity:0.780392}
    .fil16 {fill:url(#id2)}
    .fil45 {fill:url(#id3)}
    .fil50 {fill:url(#id4)}
    .fil41 {fill:url(#id5)}
    .fil60 {fill:url(#id6)}
    .fil17 {fill:url(#id7)}
    .fil56 {fill:url(#id8)}
    .fil29 {fill:url(#id9)}
    .fil25 {fill:url(#id10)}
    .fil51 {fill:url(#id11)}
    .fil44 {fill:url(#id12)}
    .fil43 {fill:url(#id13)}
    .fil62 {fill:url(#id14);fill-rule:nonzero}
    .fil42 {fill:url(#id15);fill-rule:nonzero}
    .fil24 {fill:url(#id16);fill-rule:nonzero}
   ]]>
  </style>
   <mask id="id0">
  <linearGradient id="id1" gradientUnits="userSpaceOnUse" x1="5.6554" y1="19.8577" x2="5.38373" y2="11.7856">
   <stop offset="0" style="stop-opacity:0; stop-color:white"/>
   <stop offset="0.541176" style="stop-opacity:0.698039; stop-color:white"/>
   <stop offset="1" style="stop-opacity:0; stop-color:white"/>
  </linearGradient>
    <rect style="fill:url(#id1)" x="1.96191" y="10.1273" width="7.11531" height="11.3876"/>
   </mask>
  <linearGradient id="id2" gradientUnits="userSpaceOnUse" x1="30.2483" y1="17.8143" x2="30.2483" y2="29.9802">
   <stop offset="0" style="stop-color:#E9E9E9"/>
   <stop offset="0.478431" style="stop-color:#E5E5E5"/>
   <stop offset="1" style="stop-color:#A1A1A1"/>
  </linearGradient>
  <linearGradient id="id3" gradientUnits="userSpaceOnUse" x1="12.5829" y1="10.3328" x2="12.7116" y2="19.7147">
   <stop offset="0" style="stop-color:white"/>
   <stop offset="0.231373" style="stop-color:white"/>
   <stop offset="0.431373" style="stop-color:#7D7D7D"/>
   <stop offset="0.619608" style="stop-color:#A8A8A8"/>
   <stop offset="1" style="stop-color:#666666"/>
  </linearGradient>
  <linearGradient id="id4" gradientUnits="userSpaceOnUse" xlink:href="#id2" x1="15.7071" y1="19.7443" x2="16.3449" y2="30.9606">
  </linearGradient>
  <linearGradient id="id5" gradientUnits="userSpaceOnUse" x1="12.3278" y1="6.6204" x2="12.9656" y2="23.4307">
   <stop offset="0" style="stop-color:#E3E3E3"/>
   <stop offset="1" style="stop-color:#A8A8A8"/>
  </linearGradient>
  <linearGradient id="id6" gradientUnits="userSpaceOnUse" x1="8.49491" y1="22.6617" x2="8.49491" y2="28.3656">
   <stop offset="0" style="stop-color:#ADADAD"/>
   <stop offset="1" style="stop-color:gray"/>
  </linearGradient>
  <linearGradient id="id7" gradientUnits="userSpaceOnUse" x1="16.0083" y1="5.30814" x2="16.0083" y2="26.8466">
   <stop offset="0" style="stop-color:#579AD6"/>
   <stop offset="1" style="stop-color:#518EC4"/>
  </linearGradient>
  <linearGradient id="id8" gradientUnits="userSpaceOnUse" x1="3.62262" y1="3.71239" x2="3.62262" y2="4.61598">
   <stop offset="0" style="stop-color:#B2B2B2"/>
   <stop offset="1" style="stop-color:white"/>
  </linearGradient>
  <linearGradient id="id9" gradientUnits="userSpaceOnUse" x1="12.5156" y1="10.8383" x2="12.7778" y2="19.2116">
   <stop offset="0" style="stop-color:#919191"/>
   <stop offset="1" style="stop-color:#CDCDCD"/>
  </linearGradient>
  <linearGradient id="id10" gradientUnits="userSpaceOnUse" x1="23.5689" y1="8.87878" x2="23.6386" y2="14.8649">
   <stop offset="0" style="stop-color:#C2C2C2"/>
   <stop offset="1" style="stop-color:#A1A1A1"/>
  </linearGradient>
  <linearGradient id="id11" gradientUnits="userSpaceOnUse" x1="16.1181" y1="28.3408" x2="15.9079" y2="22.3133">
   <stop offset="0" style="stop-color:#B2B2B2"/>
   <stop offset="1" style="stop-color:#CFCFCF"/>
  </linearGradient>
  <linearGradient id="id12" gradientUnits="userSpaceOnUse" x1="12.4317" y1="19.7549" x2="12.4671" y2="17.565">
   <stop offset="0" style="stop-color:#F7F7F7"/>
   <stop offset="1" style="stop-color:#BDBBBB"/>
  </linearGradient>
  <linearGradient id="id13" gradientUnits="userSpaceOnUse" x1="12.6774" y1="13.7523" x2="12.616" y2="16.2988">
   <stop offset="0" style="stop-color:#8A8A8A"/>
   <stop offset="1" style="stop-color:#BDBBBB"/>
  </linearGradient>
  <linearGradient id="id14" gradientUnits="userSpaceOnUse" x1="16.013" y1="30.8673" x2="16.013" y2="18.021">
   <stop offset="0" style="stop-color:#7F7F7F"/>
   <stop offset="1" style="stop-color:#999999"/>
  </linearGradient>
  <linearGradient id="id15" gradientUnits="userSpaceOnUse" x1="12.2746" y1="6.56843" x2="13.0188" y2="23.4827">
   <stop offset="0" style="stop-color:#8C8C8C"/>
   <stop offset="1" style="stop-color:#666666"/>
  </linearGradient>
  <linearGradient id="id16" gradientUnits="userSpaceOnUse" xlink:href="#id15" x1="23.3858" y1="6.90625" x2="23.8228" y2="16.8374">
  </linearGradient>
 </defs>
 <g id="Слой_x0020_1">
  <metadata id="CorelCorpID_0Corel-Layer"/>
  <path class="fil0" d="M15.2889 26.9198c15.3303,-0.622472 16.5362,1.78001 16.6024,3.72892 0.066145,1.94891 -7.09051,0.840986 -16.0283,1.17644 -8.93784,0.336631 -15.8913,0.570501 -15.8913,-0.874059 0,-1.44574 -0.0129928,-3.40883 15.3173,-4.0313z"/>
  <g id="_48840448">
   <path id="_48585856" class="fil1" d="M15.3137 27.5104c14.9204,-0.575225 16.7122,1.69851 16.7748,3.53285 0.0626015,1.80363 -7.24051,0.784291 -16.2126,1.09375 -8.97328,0.310645 -16.085,0.523254 -16.085,-0.815001 0,-1.36897 0.601211,-3.23638 15.5228,-3.8116z"/>
   <path id="_48584480" class="fil2" d="M15.348 27.7502c14.2814,-0.526798 16.6426,1.61819 16.7004,3.33678 0.0566957,1.66071 -7.28658,0.728776 -16.1595,1.01225 -8.87288,0.28466 -16.0402,0.477189 -16.0402,-0.755943 0,-1.29219 1.2166,-3.06629 15.4992,-3.59309z"/>
   <path id="_48583104" class="fil3" d="M15.3823 27.9911c13.6424,-0.479551 16.5729,1.53551 16.6248,3.13952 0.0519711,1.51661 -7.33028,0.67208 -16.1039,0.930754 -8.77366,0.258674 -15.9976,0.429942 -15.9976,-0.696885 0,-1.2166 1.83316,-2.89502 15.4767,-3.37339z"/>
   <path id="_48581728" class="fil4" d="M15.4165 28.2297c13.0034,-0.429942 16.5032,1.45637 16.5504,2.94581 0.0472464,1.37133 -7.37635,0.615385 -16.0496,0.848073 -8.67444,0.232689 -15.9539,0.382696 -15.9539,-0.637827 0,-1.141 2.44855,-2.72376 15.4531,-3.15606z"/>
   <path id="_48580352" class="fil5" d="M15.4508 28.4707c12.3644,-0.382696 16.4335,1.37487 16.4748,2.74856 0.0413406,1.22723 -7.42005,0.558689 -15.9941,0.766573 -8.57523,0.206703 -15.9102,0.336631 -15.9102,-0.578769 0,-1.06423 3.06393,-2.55367 15.4295,-2.93636z"/>
   <path id="_48578976" class="fil6" d="M15.485 28.7105c11.7254,-0.33545 16.3638,1.29337 16.3992,2.55249 0.036616,1.08431 -7.46493,0.503174 -15.9398,0.685073 -8.47483,0.180718 -15.8653,0.289384 -15.8653,-0.519711 0,-0.98745 3.67931,-2.3824 15.4059,-2.71785z"/>
   <path id="_48577600" class="fil7" d="M15.5193 28.9502c11.0876,-0.288203 16.2941,1.21305 16.3248,2.3576 0.0318913,0.939023 -7.50982,0.446479 -15.8842,0.601211 -8.37679,0.154732 -15.8228,0.2445 -15.8228,-0.459471 0,-0.911856 4.2947,-2.21231 15.3823,-2.49934z"/>
   <path id="_48576224" class="fil8" d="M15.5535 29.19c10.4474,-0.239776 16.2232,1.13273 16.2504,2.16152 0.0259855,0.794921 -7.55588,0.390964 -15.8311,0.519711 -8.27639,0.128746 -15.7779,0.197254 -15.7779,-0.400413 0,-0.836262 4.91008,-2.04105 15.3586,-2.28082z"/>
   <path id="_48574712" class="fil9" d="M15.5878 29.4298c9.80836,-0.191348 16.1536,1.05123 16.1748,1.96545 0.0200797,0.650819 -7.60077,0.334268 -15.7768,0.437029 -8.17599,0.103942 -15.7331,0.151189 -15.7331,-0.341355 0,-0.758305 5.52547,-1.86978 15.335,-2.06113z"/>
   <path id="_48573336" class="fil10" d="M15.622 29.6696c9.17053,-0.14292 16.0839,0.970914 16.0992,1.76938 0.0165362,0.506718 -7.64447,0.278754 -15.7212,0.355529 -8.07678,0.0779566 -15.6882,0.103942 -15.6882,-0.282297 0,-0.68153 6.13967,-1.69851 15.3102,-1.84261z"/>
   <path id="_48571976" class="fil11" d="M15.6563 29.9093c8.53152,-0.095674 16.0142,0.890595 16.0248,1.57331 0.0106304,0.362616 -7.68935,0.222058 -15.6669,0.274029 -7.97756,0.0519711 -15.6457,0.0566957 -15.6457,-0.223239 0,-0.605935 6.75624,-1.52724 15.2878,-1.6241z"/>
   <path id="_48840488" class="fil12" d="M15.6905 30.1503c7.89251,-0.0484276 15.9445,0.807914 15.9492,1.37723 0.0059058,0.217334 -7.73424,0.165362 -15.6114,0.191348 -7.87834,0.0259855 -15.6008,0.0106304 -15.6008,-0.164181 0,-0.530341 7.37044,-1.35715 15.263,-1.4044z"/>
  </g>
  <path class="fil13" d="M15.7272 30.0393c7.1472,0 15.6397,0.727595 15.6397,1.18116 0,0.148826 -30.6547,0.141739 -30.6547,0.00472464 0,-0.453566 7.86771,-1.18589 15.0149,-1.18589z"/>
  <path class="fil14" d="M2.71313 18.0635l-2.55367 2.26547 0.246863 3.74782c0,0 -0.700428,3.00723 1.11265,2.55485 1.8119,-0.453566 4.32541,-2.67769 4.28407,-3.1726 -0.0413406,-0.493725 -3.08992,-5.39554 -3.08992,-5.39554z"/>
  <path class="fil14" d="M28.6715 17.9962l2.47689 2.19696 -0.239776 3.63443c0,0 0.679167,2.9151 -1.0784,2.47571 -1.75757,-0.439392 -4.19312,-2.59501 -4.15414,-3.07456 0.0401595,-0.479551 2.99542,-5.23254 2.99542,-5.23254z"/>
  <polygon class="fil15" points="0.36616,20.427 3.45371,17.8143 3.58482,18.4533 1.35479,20.6585 2.2572,29.5562 1.76702,29.9814 "/>
  <polygon class="fil16" points="31.4791,20.9621 31.7012,20.6538 31.6043,20.0797 28.9266,17.8143 28.7955,18.4533 31.0244,20.6585 30.1231,29.5562 30.6133,29.9814 "/>
  <polygon class="fil17" points="29.0306,2.5076 2.98597,2.27019 2.98597,29.5455 28.0762,29.8845 29.0306,22.9133 "/>
  <path class="fil18" d="M3.67105 29.3306c-0.370884,-0.0437029 -1.02525,-1.3796 -1.52842,-2.55013l1.0347 0 0 -7.24996 2.4261 -0.00118116c0.405138,0.00118116 0.934298,0.229145 1.01107,0.533885 0.0874059,0.347261 -0.0271667,0.0755943 0.144102,0.496087 0.603573,1.4859 4.53211,3.20921 9.24022,3.24819 4.70811,-0.0389783 9.86623,-1.91112 10.4686,-3.39584 0.171268,-0.421674 0.0566957,-0.150007 0.144102,-0.496087 0.0779566,-0.305921 0.605935,-0.532703 1.01107,-0.533885l1.80245 0.0862247 0 7.19681c-0.12166,0.111029 -0.240957,0.186623 -0.350805,0.199616l-25.4032 2.46626z"/>
  <polygon class="fil19" points="29.0884,2.83006 2.87849,2.77691 2.87849,5.36601 6.94877,5.36601 6.94877,4.81677 25.2201,4.81677 25.2201,5.27152 29.0884,5.27152 "/>
  <polygon class="fil20" points="1.9938,4.11398 1.9938,20.4671 2.98125,20.4671 2.98125,4.11398 "/>
  <polygon class="fil20" points="29.9684,4.11398 29.9684,20.4671 28.981,20.4671 28.981,4.11398 "/>
  <polygon class="fil21" points="2.88676,4.26281 2.88676,20.616 3.87303,20.616 3.87303,4.26281 "/>
  <polygon class="fil21" points="29.0754,4.26281 29.0754,20.616 28.088,20.616 28.088,4.26281 "/>
  <path class="fil22" d="M13.9436 25.4091c0.00944928,-0.219696 -0.124022,-0.317732 -0.35671,-0.321276 -2.55131,-0.225602 -4.87819,-1.06068 -6.72789,-2.31389 -2.3198,-1.57094 -3.91437,-3.8057 -4.3384,-6.36291 -0.0389783,-0.245681 -0.118116,-0.486638 -0.161819,-0.73232 -0.0212609,-0.119297 -0.108667,-0.198435 -0.263399,-0.236232 -0.261036,0 -0.523254,0 -0.784291,0 -0.113391,0.0602392 -0.192529,0.129928 -0.198435,0.218515"/>
  <path class="fil23" d="M14.4243 9.50952c0.222058,0.0318913 0.440573,0.0744131 0.657906,0.126384l1.02407 -1.49535 1.4481 0.576406 -0.271667 1.79891c0.249225,0.145283 0.491363,0.304739 0.72287,0.47837l1.54496 -0.965008 1.10439 1.10202 -0.972095 1.54023c0.12166,0.165362 0.237413,0.334268 0.34608,0.50908l1.7871 -0.343718 0.626015 1.42802 -1.46346 1.08903c0.0779566,0.291747 0.139377,0.591761 0.185442,0.89532l1.77292 0.411044 0 1.55913 -1.77292 0.400413c-0.0496087,0.324819 -0.118116,0.643732 -0.20316,0.954378l1.46228 1.08903 -0.635464 1.42566 -1.79655 -0.347261c-0.0980363,0.157094 -0.204341,0.307102 -0.311826,0.455928l0.975639 1.54496 -1.10439 1.10202 -1.55204 -0.969733c-0.204341,0.150007 -0.413406,0.290565 -0.629559,0.421674l0.309464 1.80009 -1.4422 0.596486 -1.06068 -1.48708c-0.246863,0.0602392 -0.497269,0.111029 -0.751218,0.148826l-0.411044 1.77292 -1.56031 0 -0.399232 -1.7741c-0.212609,-0.0307102 -0.421674,-0.0708696 -0.628377,-0.119297l-1.03942 1.50007 -1.44928 -0.577587 0.283479 -1.79655c-0.256312,-0.150007 -0.501993,-0.311826 -0.739406,-0.487819l-1.54023 0.972095 -1.1032 -1.10202 0.966189 -1.54614c-0.119297,-0.159457 -0.232689,-0.324819 -0.337812,-0.492544l-1.79064 0.334268 -0.624834 -1.4292 1.4611 -1.07367c-0.0815001,-0.298834 -0.146464,-0.604754 -0.192529,-0.915399l-1.7741 -0.400413 0 -1.55913 1.7741 -0.411044c0.0472464,-0.323638 0.114573,-0.639008 0.199616,-0.947291l-1.45047 -1.09139 0.636646 -1.42566 1.7741 0.354348c0.102761,-0.159457 0.209065,-0.316551 0.321276,-0.466558l-0.962646 -1.54141 1.1032 -1.10202 1.53197 0.96737c0.206703,-0.15237 0.419312,-0.29529 0.640189,-0.428761l-0.300015 -1.78946 1.44102 -0.596486 1.04533 1.47763c0.245681,-0.0602392 0.49845,-0.11221 0.754762,-0.150007l0.399232 -1.7741 1.56031 0 0.411044 1.7741zm-1.7056 4.63842c0.836262,0 3.51986,2.57021 3.51986,3.4041 0,0.83508 -1.90167,3.40529 -2.73675,3.40529 -0.833899,0 -3.23992,-2.81116 -3.23992,-3.64624 0,-0.83508 1.62173,-3.16315 2.45681,-3.16315z"/>
  <path class="fil23" d="M23.1909 10.2607c0.377971,-0.0874059 0.76303,-0.118116 1.14218,-0.095674l0.589399 -0.892957 1.37015 0.437029 -0.0425218 1.07013c0.318913,0.200797 0.613022,0.446479 0.869334,0.734682l1.04651 -0.21379 0.660269 1.27802 -0.785472 0.724051c0.0862247,0.375609 0.115754,0.757124 0.0944928,1.13155l0.901225 0.588218 -0.438211 1.37015 -1.07722 -0.0354348c-0.200797,0.317732 -0.446479,0.61066 -0.734682,0.866972l0.21379 1.04651 -1.27802 0.660269 -0.725233 -0.785472c-0.374428,0.0862247 -0.752399,0.115754 -1.12565,0.0944928l-0.584674 0.896501 -1.37015 -0.438211 0.036616 -1.06777c-0.320094,-0.199616 -0.614203,-0.445298 -0.871696,-0.733501l-1.04651 0.220877 -0.659088 -1.27802 0.780747 -0.729957c-0.0874059,-0.377971 -0.118116,-0.760667 -0.095674,-1.13746l-0.888233 -0.585856 0.437029 -1.37015 1.0595 0.0413406c0.199616,-0.320094 0.445298,-0.614203 0.733501,-0.871696l-0.219696 -1.04651 1.27802 -0.659088 0.729957 0.780747zm0.974457 2.87376c0.64137,0 1.16226,0.519711 1.16226,1.16108 0,0.64137 -0.520892,1.16226 -1.16226,1.16226 -0.64137,0 -1.16108,-0.520892 -1.16108,-1.16226 0,-0.64137 0.519711,-1.16108 1.16108,-1.16108z"/>
  <path class="fil24" d="M23.0503 6.85782l0.124022 -0.0129928 0.12166 -0.00826812 0.294109 -0.446479 0.414587 -0.627196 0.718146 0.227964 1.37015 0.437029 0.724051 0.231507 -0.029529 0.757124 -0.0212609 0.531522 0.088587 0.0744131 0.0874059 0.0755943 0.524435 -0.107486 0.739406 -0.151189 0.347261 0.670899 0.564595 1.09375 0.095674 0.184261 0.349624 0.674443 -0.561051 0.517348 -0.389783 0.359073 0.0106304 0.105123 0 0.00826812 0.00708696 0.108667 0.448841 0.292928 0.635464 0.415768 -0.229145 0.721689 -0.437029 1.37015 -0.230326 0.720508 -0.750037 -0.0259855 -0.546877 -0.0188986 -0.0755943 0.0909494 -0.0755943 0.0874059 0.106304 0.523254 0.150007 0.739406 -0.669718 0.347261 -1.27802 0.660269 -0.675624 0.348442 -0.516167 -0.55987 -0.359073 -0.388602 -0.105123 0.0106304 -0.00826812 0 -0.102761 0.00708696 -0.289384 0.442935 -0.415768 0.635464 -0.721689 -0.229145 -1.37015 -0.437029 -0.720508 -0.230326 0.0259855 -0.750037 0.0188986 -0.536247 -0.088587 -0.0720508 -0.0874059 -0.0755943 -0.524435 0.111029 -0.741769 0.157094 -0.348442 -0.676805 -0.660269 -1.27802 -0.344899 -0.666175 0.552783 -0.517348 0.388602 -0.363797 -0.0118116 -0.119297 -0.00118116 0 -0.00826812 -0.12166 -0.440573 -0.291747 -0.628377 -0.414587 0.229145 -0.718146 0.435848 -1.37015 0.230326 -0.724051 0.758305 0.029529 0.520892 0.0212609 0.0696885 -0.0850436 0.0767754 -0.0897682 -0.109848 -0.523254 -0.155913 -0.741769 0.675624 -0.348442 1.27802 -0.659088 0.666175 -0.343718 0.517348 0.551602 0.363797 0.388602zm0.283479 1.97844c-0.140558,0.0106304 -0.283479,0.0330725 -0.41695,0.0637827l-0.557508 0.129928 -0.395689 -0.422855 -0.12166 -0.129928 0.036616 0.173631 0.116935 0.561051 -0.429942 0.383877c-0.0992175,0.088587 -0.199616,0.192529 -0.296471,0.308283 -0.0909494,0.108667 -0.177174,0.227964 -0.252768,0.348442l-0.308283 0.492544 -0.578769 -0.0236232 -0.160638 -0.0059058 0.141739 0.0933117 0.480732 0.318913 -0.0354348 0.571682c-0.00826812,0.13229 -0.0059058,0.276392 0.00708696,0.426399l0 0.00826812c0.0106304,0.139377 0.0342537,0.281116 0.0649638,0.415768l0.129928 0.557508 -0.422855 0.395689 -0.129928 0.12166 0.172449 -0.036616 0.55987 -0.118116 0.385058 0.431124c0.0874059,0.0980363 0.192529,0.198435 0.308283,0.29529 0.115754,0.0968552 0.236232,0.184261 0.353167,0.258674l0.483095 0.305921 -0.0188986 0.568138 -0.0059058 0.177174 0.0921305 -0.141739 0.316551 -0.484276 0.574044 0.0318913c0.13229,0.00708696 0.276392,0.00472464 0.425218,-0.0059058l0 -0.00118116c0.151189,-0.0129928 0.296471,-0.0354348 0.424037,-0.0637827l0.563414 -0.128746 0.393326 0.425218 0.11221 0.12166 -0.0342537 -0.167725 -0.114573 -0.558689 0.424037 -0.382696c0.107486,-0.0968552 0.211428,-0.201978 0.303558,-0.311826 0.0921305,-0.108667 0.177174,-0.223239 0.250406,-0.341355l0.304739 -0.487819 0.574044 0.0188986 0.187805 0.0059058 -0.147645 -0.095674 -0.485457 -0.31537 0.0330725 -0.575225c0.00708696,-0.134652 0.00472464,-0.279935 -0.0059058,-0.431124l-0.00118116 0c-0.0129928,-0.151189 -0.0354348,-0.296471 -0.0637827,-0.424037l-0.129928 -0.563414 0.426399 -0.393326 0.120478 -0.111029 -0.166544 0.0342537 -0.55987 0.115754 -0.381515 -0.428761c-0.0874059,-0.0980363 -0.19371,-0.200797 -0.311826,-0.300015 -0.108667,-0.0921305 -0.22442,-0.177174 -0.342537,-0.250406l-0.492544 -0.307102 0.0236232 -0.57995 0.00708696 -0.171268 -0.0968552 0.146464 -0.317732 0.480732 -0.572863 -0.0354348c-0.135833,-0.00826812 -0.283479,-0.0059058 -0.435848,0.00708696l-0.00354348 0zm0.331906 0.966189c0.596486,0 1.13864,0.242138 1.52842,0.631921l0 0.00472464c0.389783,0.392145 0.631921,0.933117 0.631921,1.52488 0,0.596486 -0.242138,1.13864 -0.631921,1.52842 -0.389783,0.389783 -0.931936,0.631921 -1.52842,0.631921 -0.597667,0 -1.13982,-0.242138 -1.5296,-0.631921 -0.389783,-0.389783 -0.631921,-0.929573 -0.631921,-1.52842 0,-0.597667 0.242138,-1.13982 0.631921,-1.5296 0.389783,-0.389783 0.931936,-0.631921 1.5296,-0.631921zm0.115754 2.04459l-0.00236232 0.00236232c-0.0283479,-0.0283479 -0.0708696,-0.0484276 -0.113391,-0.0484276 -0.0437029,0 -0.0862247,0.0200797 -0.114573,0.0484276 -0.0283479,0.0283479 -0.0484276,0.0708696 -0.0484276,0.114573 0,0.0425218 0.0200797,0.0850436 0.0484276,0.113391 0.0283479,0.0283479 0.0708696,0.0484276 0.114573,0.0484276 0.0425218,0 0.0850436,-0.0200797 0.113391,-0.0484276 0.0283479,-0.0283479 0.0484276,-0.0708696 0.0484276,-0.113391 0,-0.0448841 -0.0177174,-0.0874059 -0.0460653,-0.116935z"/>
  <path class="fil25" d="M22.6901 7.92913c0.379153,-0.0874059 0.76303,-0.118116 1.14218,-0.095674l0.589399 -0.892957 1.37015 0.437029 -0.0425218 1.06895c0.318913,0.200797 0.613022,0.446479 0.869334,0.735863l1.04769 -0.214971 0.564595 1.09494 0.0944928 0.18308 -0.785472 0.725233c0.0862247,0.375609 0.115754,0.755943 0.0944928,1.13155l0.901225 0.588218 -0.437029 1.37015 -1.0784 -0.036616c-0.200797,0.318913 -0.446479,0.611841 -0.734682,0.868153l0.21379 1.04651 -1.27802 0.660269 -0.725233 -0.785472c-0.373247,0.0850436 -0.752399,0.115754 -1.12565,0.0944928l-0.584674 0.89532 -1.37015 -0.437029 0.036616 -1.06777c-0.320094,-0.200797 -0.614203,-0.445298 -0.870515,-0.733501l-1.04651 0.219696 -0.660269 -1.27802 0.780747 -0.729957c-0.0874059,-0.37679 -0.118116,-0.759486 -0.095674,-1.13628l-0.887052 -0.585856 0.435848 -1.37133 1.0595 0.0425218c0.199616,-0.320094 0.445298,-0.614203 0.734682,-0.871696l-0.220877 -1.04651 1.27802 -0.659088 0.729957 0.780747zm0.974457 2.87258c0.64137,0 1.16226,0.520892 1.16226,1.16226 0,0.64137 -0.520892,1.16226 -1.16226,1.16226 -0.64137,0 -1.16108,-0.520892 -1.16108,-1.16226 0,-0.64137 0.519711,-1.16226 1.16108,-1.16226z"/>
  <path class="fil26" d="M22.6901 7.92913c0.379153,-0.0874059 0.76303,-0.118116 1.14218,-0.095674l0.589399 -0.892957 1.37015 0.437029 -0.0425218 1.06895c0.318913,0.200797 0.613022,0.446479 0.869334,0.735863l1.04769 -0.214971 0.111029 0.216152 -2.73321 1.92411 -0.617747 -0.0212609c-0.204341,-0.177174 -0.470102,-0.28466 -0.761849,-0.28466 -0.261036,0 -0.503174,0.0874059 -0.696885,0.23387l-1.4044 -0.0496087 -2.48634 -1.20242 0.0318913 -0.100399 1.0595 0.0425218c0.199616,-0.320094 0.445298,-0.614203 0.734682,-0.871696l-0.220877 -1.04651 1.27802 -0.659088 0.729957 0.780747z"/>
  <circle class="fil27" cx="23.3939" cy="11.8327" r="1.73388"/>
  <path class="fil28" style="mask:url(#id0)" d="M5.93887 20.3337l0.398051 -0.637827c-0.115754,-0.157094 -0.226783,-0.320094 -0.330725,-0.484276l-1.75402 0.328363 -0.613022 -1.40204 1.43157 -1.05241c-0.0791378,-0.291747 -0.14292,-0.591761 -0.187805,-0.896501l-1.73985 -0.392145 0 -1.5296 1.73749 -0.401595c0.0484276,-0.31537 0.114573,-0.626015 0.197254,-0.928392l-1.41975 -1.07013 0.246863 -0.557508c1.10557,0.406319 2.44382,0.812638 3.30607,0.778385 1.68906,-0.0673261 -0.270486,8.10158 -0.270486,8.10158 0,0 -0.393326,0.0472464 -1.00162,0.144102z"/>
  <path class="fil29" d="M12.6467 8.86815c3.40056,0 6.15739,2.75683 6.15739,6.15739 0,3.39938 -2.75683,6.15739 -6.15739,6.15739 -3.39938,0 -6.15739,-2.75801 -6.15739,-6.15739 0,-3.40056 2.75801,-6.15739 6.15739,-6.15739zm0 4.04311c1.16699,0 2.11428,0.94611 2.11428,2.11428 0,1.16699 -0.947291,2.1131 -2.11428,2.1131 -1.16699,0 -2.11428,-0.94611 -2.11428,-2.1131 0,-1.16817 0.947291,-2.11428 2.11428,-2.11428z"/>
  <g id="_48508592">
   <path id="_48530952" class="fil30" d="M20.9042 8.53743l1.84025 1.74576 0.491363 0.796102c-0.375609,0.192529 -0.633102,0.583493 -0.633102,1.0347 0,0.640189 0.520892,1.16108 1.16226,1.16108 0.186623,0 0.363797,-0.0437029 0.522073,-0.124022l0.563414 3.08755 -0.25395 -0.276392c-0.374428,0.0862247 -0.75358,0.115754 -1.12683,0.0944928l-0.583493 0.896501 -1.37015 -0.437029 0.0354348 -1.06895c-0.318913,-0.199616 -0.613022,-0.445298 -0.870515,-0.73232l-1.04651 0.219696 -0.660269 -1.27802 0.781928 -0.729957c-0.0874059,-0.377971 -0.118116,-0.760667 -0.0968552,-1.13628l-0.887052 -0.587037 0.437029 -1.37015 1.0595 0.0413406c0.199616,-0.318913 0.445298,-0.614203 0.733501,-0.871696l-0.0980363 -0.465377z"/>
   <g>
    <path id="_48530064" class="fil31" d="M20.9373 8.69216l1.72449 1.63591 0.491363 0.798464c-0.330725,0.204341 -0.550421,0.570501 -0.550421,0.98745 0,0.640189 0.520892,1.16108 1.16226,1.16108 0.14292,0 0.279935,-0.0259855 0.406319,-0.073232l0.525616 2.87022 -0.100399 -0.109848c-0.374428,0.0862247 -0.75358,0.115754 -1.12683,0.0944928l-0.583493 0.896501 -1.37015 -0.437029 0.0354348 -1.06895c-0.318913,-0.199616 -0.613022,-0.445298 -0.870515,-0.73232l-1.04651 0.219696 -0.660269 -1.27802 0.781928 -0.729957c-0.0874059,-0.377971 -0.118116,-0.760667 -0.0968552,-1.13628l-0.887052 -0.587037 0.437029 -1.37015 1.0595 0.0413406c0.199616,-0.318913 0.445298,-0.614203 0.733501,-0.871696l-0.0649638 -0.310645z"/>
    <path id="_48528472" class="fil32" d="M20.9703 8.84807l1.60638 1.52488 0.49845 0.805551c-0.285841,0.212609 -0.472464,0.551602 -0.472464,0.935479 0,0.640189 0.520892,1.16108 1.16226,1.16108 0.100399,0 0.197254,-0.0129928 0.290565,-0.036616l0.49845 2.73321c-0.359073,0.0779566 -0.725233,0.106304 -1.08431,0.0850436l-0.583493 0.896501 -1.37015 -0.437029 0.0354348 -1.06895c-0.318913,-0.199616 -0.613022,-0.445298 -0.870515,-0.73232l-1.04651 0.219696 -0.660269 -1.27802 0.781928 -0.729957c-0.0874059,-0.377971 -0.118116,-0.760667 -0.0968552,-1.13628l-0.887052 -0.587037 0.425218 -1.33353 0.0460653 -0.0354348 1.02525 0.0401595c0.199616,-0.318913 0.445298,-0.614203 0.733501,-0.871696l-0.0318913 -0.154732z"/>
    <path id="_48525080" class="fil33" d="M21.0022 9.00281l1.49181 1.41503 0.505537 0.820907c-0.243319,0.21379 -0.39687,0.525616 -0.39687,0.87524 0,0.640189 0.520892,1.16108 1.16226,1.16108 0.0578769,0 0.115754,-0.00354348 0.171268,-0.0129928l0.499631 2.73321c-0.321276,0.0602392 -0.646095,0.0803189 -0.966189,0.0614203l-0.583493 0.896501 -1.37015 -0.437029 0.0354348 -1.06895c-0.318913,-0.199616 -0.613022,-0.445298 -0.870515,-0.73232l-1.04651 0.219696 -0.660269 -1.27802 0.781928 -0.729957c-0.0874059,-0.377971 -0.118116,-0.760667 -0.0968552,-1.13628l-0.887052 -0.587037 0.388602 -1.22014 0.184261 -0.144102 0.923668 0.0354348c0.199616,-0.318913 0.445298,-0.614203 0.733501,-0.871696z"/>
    <path id="_48522408" class="fil34" d="M20.9349 9.06423l1.47409 1.39849 0.520892 0.843349c-0.201978,0.209065 -0.327181,0.493725 -0.327181,0.807914 0,0.640189 0.520892,1.16108 1.16226,1.16108l0.0496087 -0.00118116 0.500812 2.74265c-0.281116,0.0437029 -0.564595,0.0566957 -0.845711,0.0401595l-0.583493 0.896501 -1.37015 -0.437029 0.0354348 -1.06895c-0.318913,-0.199616 -0.613022,-0.445298 -0.870515,-0.73232l-1.04651 0.219696 -0.660269 -1.27802 0.781928 -0.729957c-0.0874059,-0.377971 -0.118116,-0.760667 -0.0968552,-1.13628l-0.887052 -0.587037 0.353167 -1.10911 0.320094 -0.251587 0.823269 0.0318913c0.184261,-0.29529 0.406319,-0.566957 0.666175,-0.810276z"/>
    <path id="_48520872" class="fil35" d="M20.8699 9.12683l1.45637 1.38078 0.537428 0.871696c-0.163,0.200797 -0.261036,0.455928 -0.261036,0.734682 0,0.615385 0.480732,1.11974 1.08785,1.15872l0.504356 2.76037c-0.242138,0.0307102 -0.484276,0.0377971 -0.725233,0.0236232l-0.583493 0.896501 -1.37015 -0.437029 0.0354348 -1.06895c-0.318913,-0.199616 -0.613022,-0.445298 -0.870515,-0.73232l-1.04651 0.219696 -0.660269 -1.27802 0.781928 -0.729957c-0.0874059,-0.377971 -0.118116,-0.760667 -0.0968552,-1.13628l-0.887052 -0.587037 0.317732 -0.996899 0.457109 -0.360254 0.721689 0.0283479c0.167725,-0.269305 0.369703,-0.520892 0.601211,-0.747675z"/>
    <path id="_48519336" class="fil36" d="M20.8061 9.19061l1.43629 1.36188 0.561051 0.909494c-0.126384,0.186623 -0.200797,0.409863 -0.200797,0.652001 0,0.571682 0.415768,1.04887 0.961465,1.14336l0.510261 2.7899c-0.201978,0.0177174 -0.403957,0.0212609 -0.604754,0.00944928l-0.583493 0.896501 -1.37015 -0.437029 0.0354348 -1.06895c-0.318913,-0.199616 -0.613022,-0.445298 -0.870515,-0.73232l-1.04651 0.219696 -0.660269 -1.27802 0.781928 -0.729957c-0.0874059,-0.377971 -0.118116,-0.760667 -0.0968552,-1.13628l-0.887052 -0.587037 0.282297 -0.884689 0.594124 -0.46774 0.620109 0.0236232c0.15237,-0.2445 0.331906,-0.474827 0.537428,-0.683892z"/>
    <path id="_48517512" class="fil37" d="M20.7435 9.25557l1.41503 1.3418 0.588218 0.954378c-0.0909494,0.167725 -0.144102,0.359073 -0.144102,0.562232 0,0.526798 0.350805,0.970914 0.831537,1.11383l0.517348 2.8277c-0.160638,0.0106304 -0.321276,0.0106304 -0.481913,0.00118116l-0.583493 0.896501 -1.37015 -0.437029 0.0354348 -1.06895c-0.318913,-0.199616 -0.613022,-0.445298 -0.870515,-0.73232l-1.04651 0.219696 -0.660269 -1.27802 0.781928 -0.729957c-0.0874059,-0.377971 -0.118116,-0.760667 -0.0968552,-1.13628l-0.887052 -0.587037 0.246863 -0.77366 0.731138 -0.575225 0.518529 0.0200797c0.137015,-0.219696 0.29529,-0.426399 0.474827,-0.618928z"/>
    <path id="_48505752" class="fil38" d="M20.6821 9.32172l1.39259 1.32054 0.623653 1.01107c-0.0614203,0.140558 -0.095674,0.296471 -0.095674,0.460653 0,0.477189 0.288203,0.88587 0.699247,1.06541l0.494906 2.70604 -0.177174 0.177174c-0.0496087,-0.00118116 -0.100399,-0.00236232 -0.150007,-0.0059058l-0.290565 0.446479 -0.412225 0.412225 -1.25085 -0.399232 0.0354348 -1.06895c-0.318913,-0.199616 -0.613022,-0.445298 -0.870515,-0.73232l-1.04651 0.219696 -0.660269 -1.27802 0.781928 -0.729957c-0.0874059,-0.377971 -0.118116,-0.760667 -0.0968552,-1.13628l-0.887052 -0.587037 0.211428 -0.66145 0.866972 -0.683892 0.418131 0.0165362c0.120478,-0.19371 0.259855,-0.379153 0.413406,-0.552783z"/>
   </g>
   <path id="_48508632" class="fil39" d="M20.6231 9.39023l1.36778 1.29691 0.664993 1.0784c-0.0342537,0.109848 -0.0531522,0.226783 -0.0531522,0.348442 0,0.421674 0.225602,0.791378 0.563414,0.994537l0.476008 2.60446 -1.12328 1.12328 -1.00281 -0.320094 0.0354348 -1.06895c-0.318913,-0.199616 -0.613022,-0.445298 -0.870515,-0.73232l-1.04651 0.219696 -0.660269 -1.27802 0.781928 -0.729957c-0.0874059,-0.377971 -0.118116,-0.760667 -0.0968552,-1.13628l-0.887052 -0.587037 0.175993 -0.54924 1.00399 -0.791378 0.316551 0.0118116c0.105123,-0.168906 0.22442,-0.330725 0.354348,-0.484276z"/>
  </g>
  <ellipse class="fil40" cx="12.5476" cy="15.0827" rx="6.98518" ry="6.98508"/>
  <path class="fil41" d="M14.6724 7.82755c0.575225,0.161819 1.12092,0.388602 1.63236,0.674443l2.11546 -1.69024 2.44973 2.45091 -1.67134 2.07766c0.303558,0.520892 0.546877,1.0784 0.721689,1.6678l2.61627 0.291747 0 3.46552 -2.52414 0.272848c-0.158276,0.64137 -0.399232,1.24849 -0.708696,1.81426l1.56622 1.94655 -2.44973 2.44973 -1.88513 -1.50716c-0.587037,0.354348 -1.22368,0.634283 -1.90049,0.820907l-0.262218 2.35287 -3.46552 0 -0.250406 -2.3198c-0.693341,-0.179536 -1.35007,-0.455928 -1.95246,-0.811457l-1.82135 1.46464 -2.44973 -2.44973 1.48472 -1.85678c-0.33545,-0.594124 -0.595305,-1.23668 -0.761849,-1.91702l-2.39894 -0.259855 0 -3.46552 2.48989 -0.277573c0.185442,-0.627196 0.450022,-1.22014 0.778385,-1.76938l-1.5922 -1.99026 2.44973 -2.45091 2.05522 1.65244c0.526798,-0.285841 1.08903,-0.512624 1.68079,-0.668537l0.288203 -2.65997 3.46552 0 0.300015 2.69186z"/>
  <path class="fil26" d="M14.6724 7.82755c0.575225,0.163 1.12092,0.388602 1.63236,0.675624l2.11546 -1.69142 2.44855 2.45091 -1.67016 2.07766c0.252768,0.435848 0.465377,0.897682 0.63074,1.38196l-7.55943 2.46272 -7.01964 -2.17334c0.185442,-0.623653 0.44766,-1.21423 0.774841,-1.75757l-1.5922 -1.99144 2.44973 -2.45091 2.05522 1.65244c0.526798,-0.28466 1.08785,-0.512624 1.68197,-0.668537l0.287022 -2.65997 3.46434 0 0.301196 2.69186z"/>
  <path class="fil42" d="M15.146 7.43304c0.191348,0.0637827 0.380334,0.134652 0.565776,0.211428l0 0.00118116c0.185442,0.0767754 0.364979,0.158276 0.537428,0.2445l1.85088 -1.47881 0.359073 -0.285841 0.324819 0.323638 2.44855 2.44973 0.326 0.327181 -0.289384 0.359073 -1.45283 1.80836c0.095674,0.18308 0.186623,0.369703 0.268123,0.558689l-0.00236232 0.00118116c0.0815001,0.191348 0.158276,0.383877 0.226783,0.57995l2.28318 0.255131 0.460653 0.0531522 0 0.459471 0 3.46434 0 0.461834 -0.461834 0.0496087 -2.17452 0.23387c-0.0637827,0.219696 -0.137015,0.432305 -0.217334,0.637827l-0.00118116 0c-0.0838624,0.217334 -0.179536,0.432305 -0.282297,0.64137l1.35361 1.6867 0.289384 0.360254 -0.326 0.326 -2.44855 2.44973 -0.326 0.324819 -0.357892 -0.285841 -1.61228 -1.28865c-0.220877,0.119297 -0.446479,0.230326 -0.679167,0.330725l0 -0.00118116c-0.229145,0.0992175 -0.463015,0.187805 -0.701609,0.265761l-0.223239 2.01388 -0.0519711 0.459471 -0.460653 0 -3.46434 0 -0.460653 0 -0.0507899 -0.460653 -0.21379 -1.97372c-0.2445,-0.0755943 -0.485457,-0.165362 -0.72287,-0.262218l-0.00236232 0c-0.239776,-0.100399 -0.473645,-0.212609 -0.700428,-0.333087l-1.54968 1.24612 -0.360254 0.289384 -0.326 -0.324819 -2.44973 -2.44973 -0.326 -0.324819 0.288203 -0.359073 1.27211 -1.59102c-0.114573,-0.223239 -0.219696,-0.454747 -0.311826,-0.689798l-0.00236232 0c-0.088587,-0.223239 -0.168906,-0.457109 -0.239776,-0.699247l-2.04813 -0.222058 -0.461834 -0.0496087 0 -0.461834 0 -3.46434 0 -0.459471 0.460653 -0.0531522 2.1568 -0.240957c0.0755943,-0.219696 0.159457,-0.434667 0.251587,-0.642551 0.0897682,-0.205522 0.190167,-0.4075 0.29529,-0.604754l-1.37251 -1.71741 -0.288203 -0.359073 0.324819 -0.326 2.44973 -2.44973 0.326 -0.324819 0.361435 0.288203 1.79418 1.4422c0.187805,-0.0909494 0.380334,-0.175993 0.575225,-0.25395 0.187805,-0.0744131 0.377971,-0.14292 0.570501,-0.204341l0.249225 -2.31389 0.0496087 -0.461834 0.461834 0 3.46434 0 0.460653 0 0.0519711 0.460653 0.262218 2.35287zm0.171268 1.16108c-0.251587,-0.102761 -0.513805,-0.196073 -0.783109,-0.271667l-0.334268 -0.0933117 -0.0389783 -0.34608 -0.249225 -2.23121 -2.54304 0 -0.237413 2.19814 -0.0377971 0.353167 -0.344899 0.0909494c-0.274029,0.0708696 -0.540972,0.160638 -0.792559,0.259855 -0.259855,0.103942 -0.520892,0.225602 -0.771298,0.362616l-0.301196 0.164181 -0.268123 -0.216152 -1.69497 -1.36188 -1.79891 1.80009 1.30518 1.63118 0.22442 0.281116 -0.184261 0.304739c-0.153551,0.252768 -0.294109,0.523254 -0.414587,0.798464 -0.12166,0.276392 -0.227964,0.564595 -0.311826,0.849254l-0.0980363 0.329544 -0.338993 0.0377971 -2.03041 0.226783 0 2.54186 1.9371 0.209065 0.360254 0.0377971 0.0850436 0.351986c0.0744131,0.303558 0.174812,0.613022 0.294109,0.915399l-0.00236232 0.00118116c0.119297,0.301196 0.261036,0.592943 0.418131,0.870515l0.171268 0.300015 -0.217334 0.272848 -1.1977 1.49771 1.79773 1.79773 1.46228 -1.17525 0.279935 -0.225602 0.304739 0.18308c0.283479,0.167725 0.581131,0.317732 0.884689,0.444116l0 0.00118116c0.29529,0.12166 0.61066,0.227964 0.934298,0.311826l0.344899 0.0897682 0.0377971 0.354348 0.200797 1.85797 2.54304 0 0.210247 -1.89222 0.0389783 -0.347261 0.336631 -0.0921305c0.313008,-0.0874059 0.618928,-0.194891 0.90595,-0.320094l0.00236232 -0.00236232c0.297652,-0.126384 0.587037,-0.277573 0.863428,-0.444116l0.307102 -0.185442 0.279935 0.223239 1.52488 1.21896 1.79655 -1.79655 -1.27447 -1.58748 -0.214971 -0.268123 0.164181 -0.301196c0.145283,-0.265761 0.276392,-0.545696 0.386239,-0.829175l0 -0.00236232c0.109848,-0.279935 0.201978,-0.570501 0.272848,-0.858704l0.0850436 -0.350805 0.359073 -0.0377971 2.06467 -0.222058 0 -2.54186 -2.15562 -0.242138 -0.341355 -0.0377971 -0.095674 -0.328363c-0.0803189,-0.274029 -0.179536,-0.540972 -0.289384,-0.794921l-0.00236232 0c-0.11221,-0.259855 -0.243319,-0.517348 -0.383877,-0.759486l-0.175993 -0.304739 0.222058 -0.276392 1.38078 -1.71977 -1.79773 -1.79773 -1.7552 1.40322 -0.272848 0.218515 -0.300015 -0.168906c-0.245681,-0.138196 -0.492544,-0.259855 -0.733501,-0.359073l-0.00236232 0z"/>
  <circle class="fil43" cx="12.6467" cy="15.0257" r="6.2168"/>
  <path class="fil44" d="M12.7695 21.7806c3.02613,0 5.10852,-2.51587 5.84438,-5.05773l-6.49993 -1.18352c0,0 -3.94508,0.68153 -5.82903,1.467 0.853979,2.33752 3.45726,4.77425 6.48457,4.77425z"/>
  <path class="fil45" d="M12.6467 10.2029c2.66234,0 4.82268,2.15916 4.82268,4.8215 0,2.66352 -2.16034,4.82268 -4.82268,4.82268 -2.66234,0 -4.8215,-2.15916 -4.8215,-4.82268 0,-2.66234 2.15916,-4.8215 4.8215,-4.8215zm-0.0602392 1.0158c2.13436,0 3.86594,1.7304 3.86594,3.86594 0,2.13436 -1.73158,3.86476 -3.86594,3.86476 -2.13318,0 -3.86476,-1.7304 -3.86476,-3.86476 0,-2.13554 1.73158,-3.86594 3.86476,-3.86594z"/>
  <ellipse class="fil40" cx="12.5005" cy="14.6292" rx="2.0806" ry="2.08057"/>
  <ellipse class="fil27" cx="12.491" cy="14.6639" rx="2.16344" ry="2.1634"/>
  <path class="fil46" d="M12.5569 16.1961c1.06541,0 1.77647,-0.62129 1.77647,-1.38668 0,-0.764211 -0.711059,-0.935479 -1.77647,-0.935479 -1.06541,0 -1.92884,0.171268 -1.92884,0.935479 0,0.765392 0.863428,1.38668 1.92884,1.38668z"/>
  <path class="fil47" d="M12.5794 12.74c0.731138,0 1.21778,0.439392 1.21778,0.981544 0,0.542153 -0.486638,0.663812 -1.21778,0.663812 -0.731138,0 -1.32408,-0.12166 -1.32408,-0.663812 0,-0.542153 0.592943,-0.981544 1.32408,-0.981544z"/>
  <polygon class="fil48" points="13.5656,13.5207 14.1775,14.0889 12.0856,16.3059 11.4726,15.7378 "/>
  <polygon class="fil49" points="13.2951,13.2101 13.8196,13.7345 11.8376,15.8205 11.3132,15.296 "/>
  <path class="fil50" d="M1.71977 30.7114c-0.674443,-0.127565 -1.21541,-0.646095 -1.37251,-1.30873l0 -9.40794 4.59826 -0.00118116c0.433486,0.00118116 0.999262,0.387421 1.08312,0.907131 0.0933117,0.588218 -0.029529,0.126384 0.153551,0.843349 0.646095,2.52178 4.7589,4.48014 9.80245,4.54747 5.04237,-0.0673261 9.15517,-2.02569 9.80245,-4.54747 0.18308,-0.716964 0.059058,-0.255131 0.153551,-0.843349 0.0826812,-0.519711 0.648457,-0.90595 1.08312,-0.907131l4.68094 0.00118116 0 8.69807c-0.0354348,0.389783 -0.109848,0.767754 -0.298834,1.1162 -0.249225,0.459471 -0.650819,0.802008 -1.16344,0.902407l-28.5227 0z"/>
  <path class="fil51" d="M1.70678 30.585c-0.674443,-0.127565 -1.21541,-0.646095 -1.37251,-1.30873l0 -9.20596 4.59826 -0.00118116c0.433486,0.00118116 0.999262,0.387421 1.08312,0.907131 0.0933117,0.588218 -0.029529,0.126384 0.153551,0.843349 0.646095,2.52178 4.7589,4.48014 9.80245,4.54747 5.04237,-0.0673261 9.15517,-2.02569 9.80245,-4.54747 0.18308,-0.716964 0.059058,-0.255131 0.153551,-0.843349 0.0826812,-0.519711 0.648457,-0.90595 1.08312,-0.907131l4.68094 0.00118116 0 8.49609c-0.0354348,0.389783 -0.109848,0.767754 -0.298834,1.1162 -0.249225,0.459471 -0.650819,0.802008 -1.16344,0.902407l-28.5227 0z"/>
  <path class="fil52" d="M2.62454 0.420493l26.699 0c0.878783,0 1.9938,1.09021 2.09184,1.99144l-30.7822 -0.0992175c0.0933117,-0.901225 1.11383,-1.89222 1.99144,-1.89222z"/>
  <path class="fil53" d="M1.31345 1.02525c0.281116,-0.172449 0.694522,-0.542153 1.05123,-0.489l-0.111029 0.709877 -1.54496 0.915399 0.604754 -1.13628z"/>
  <path class="fil53" d="M30.8283 1.16344c-0.281116,-0.172449 -0.93666,-0.761849 -1.29337,-0.707515l-0.0141739 0.670899 1.73985 1.14809 -0.432305 -1.11147z"/>
  <path class="fil54" d="M2.08593 1.11856l27.7762 0c0.869334,0 1.59457,1.08194 1.72213,1.9938l-31.0397 -0.00944928c0.128746,-0.913037 0.673261,-1.98435 1.54141,-1.98435z"/>
  <path class="fil55" d="M2.5395 0.990994l27.3356 0c0.282297,0.0141739 0.533885,0.128746 0.747675,0.29529l0.00708696 0.00472464 0.0141739 0.0118116c1.08549,0.75358 0.746493,1.14336 0.705153,2.03868 -0.00708696,0.170087 -0.64137,-1.31818 -1.63945,-1.35715l-27.3356 0c-0.618928,0 -1.14573,0.353167 -1.33707,0.70279 0.0578769,-0.385058 -0.0531522,-1.42448 0.931936,-1.6241l0.0177174 -0.00472464c0.15237,-0.0425218 0.333087,-0.066145 0.552783,-0.0673261z"/>
  <polygon class="fil56" points="5.80422,3.49978 1.43983,3.49978 1.49062,4.82858 5.80422,4.82858 "/>
  <polygon class="fil56" points="30.1716,3.52576 25.8072,3.52576 25.858,4.85339 30.1716,4.85339 "/>
  <polygon class="fil47" points="1.55086,4.75771 5.97077,4.75771 5.97077,4.03603 1.55086,4.03603 "/>
  <polygon class="fil47" points="25.9182,4.78252 30.3369,4.78252 30.3369,4.06201 25.9182,4.06201 "/>
  <polygon class="fil57" points="1.61701,3.96988 6.03573,3.96988 6.03573,3.05684 1.56504,3.05684 "/>
  <polygon class="fil57" points="25.9832,3.99587 30.4031,3.99587 30.4031,3.08165 25.9324,3.08165 "/>
  <polygon class="fil58" points="0.859885,4.09745 5.20774,4.09745 5.20774,3.22221 0.859885,3.22221 "/>
  <polygon class="fil58" points="25.93,4.12225 30.2779,4.12225 30.2779,3.24819 25.93,3.24819 "/>
  <polygon class="fil59" points="1.78591,3.62498 1.793,4.05611 1.81899,4.74945 5.8243,4.72464 5.85265,3.63679 5.85737,3.58128 5.85737,3.08755 6.09361,3.08755 6.33456,3.08755 6.33456,3.32969 6.3074,5.14395 6.3074,5.38609 6.06526,5.38609 1.55086,5.38609 1.30873,5.38609 1.30873,5.14395 1.28628,3.32969 1.28628,3.08755 1.52724,3.08755 1.78591,3.08755 "/>
  <polygon class="fil59" points="26.1533,3.65097 26.1592,4.08209 26.1863,4.77425 30.1916,4.74945 30.2188,3.6616 30.2247,3.60726 30.2247,3.11236 30.4598,3.11236 30.7019,3.11236 30.7019,3.3545 30.6747,5.16876 30.6747,5.4109 30.4326,5.4109 25.9182,5.4109 25.6761,5.4109 25.6761,5.16876 25.6524,3.3545 25.6524,3.11236 25.8946,3.11236 26.1533,3.11236 "/>
  <path class="fil60" d="M2.02333 22.2696c0,2.07884 -0.0129928,4.15532 -0.0129928,6.23417 0.0555145,0.394508 0.303558,0.574044 0.744131,0.53979l12.2002 0 0.0259855 -0.878783c-2.35051,-0.146464 -4.48723,-0.673261 -6.17629,-1.45637 -2.22058,-1.02997 -3.77971,-2.58202 -4.23919,-4.37856l-0.0649638 -0.381515 -2.0942 0c-0.231507,0.0531522 -0.359073,0.059058 -0.382696,0.321276z"/>
  <path class="fil60" d="M29.9802 22.2696c0,2.07884 0.0129928,4.15532 0.0129928,6.23417 -0.0555145,0.394508 -0.303558,0.574044 -0.744131,0.53979l-12.2002 0 -0.0259855 -0.878783c2.35051,-0.146464 4.48723,-0.673261 6.17629,-1.45637 2.22058,-1.02997 3.77971,-2.58202 4.23919,-4.37856l0.0649638 -0.381515 2.0942 0c0.231507,0.0531522 0.359073,0.059058 0.382696,0.321276z"/>
  <path class="fil61" d="M2.02333 22.2696c0,2.07884 -0.0129928,4.15532 -0.0129928,6.23417 0.0555145,0.394508 0.303558,0.574044 0.744131,0.53979l12.2002 0 0.0259855 -0.878783c-2.35051,-0.146464 -4.48723,-0.673261 -6.17629,-1.45637 -2.22058,-1.02997 -3.77971,-2.58202 -4.23919,-4.37856l-0.0649638 -0.381515 -2.0942 0c-0.231507,0.0531522 -0.359073,0.059058 -0.382696,0.321276zm0.49845 0.179536l-0.0059058 2.93755 -0.00708696 3.06629c0.00708696,0.0448841 0.0165362,0.0744131 0.0248044,0.0791378 0.0248044,0.0153551 0.0874059,0.0200797 0.181899,0.0129928l0.0389783 -0.00236232 10.8938 0c-0.719327,-0.0897682 -1.41267,-0.214971 -2.07176,-0.369703 -1.08785,-0.256312 -2.09538,-0.601211 -2.98125,-1.01107 -1.17762,-0.545696 -2.18397,-1.23786 -2.9529,-2.03278 -0.771298,-0.797283 -1.31345,-1.70323 -1.56149,-2.67651l-0.00118116 -0.00354348 -1.55795 0z"/>
  <path class="fil61" d="M29.9802 22.2696c0,2.07884 0.0129928,4.15532 0.0129928,6.23417 -0.0555145,0.394508 -0.303558,0.574044 -0.744131,0.53979l-12.2002 0 -0.0259855 -0.878783c2.35051,-0.146464 4.48723,-0.673261 6.17629,-1.45637 2.22058,-1.02997 3.77971,-2.58202 4.23919,-4.37856l0.0649638 -0.381515 2.0942 0c0.231507,0.0531522 0.359073,0.059058 0.382696,0.321276zm-0.49845 0.179536l0.0059058 2.93755 0.00708696 3.06629c-0.00708696,0.0448841 -0.0165362,0.0744131 -0.0248044,0.0791378 -0.0248044,0.0153551 -0.0874059,0.0200797 -0.181899,0.0129928l-0.0389783 -0.00236232 -10.8938 0c0.719327,-0.0897682 1.41267,-0.214971 2.07176,-0.369703 1.08785,-0.256312 2.09538,-0.601211 2.98125,-1.01107 1.17762,-0.545696 2.18397,-1.23786 2.9529,-2.03278 0.771298,-0.797283 1.31345,-1.70323 1.56149,-2.67651l0.00118116 -0.00354348 1.55795 0z"/>
  <path class="fil26" d="M2.01034 27.9841l0 0.519711c0.0413406,0.291747 0.187805,0.465377 0.439392,0.523254l12.5049 0 0.0059058 -0.180718c-0.939023,-0.102761 -3.06039,-0.655544 -3.83168,-0.862247l-9.11856 0z"/>
  <path class="fil26" d="M29.9932 27.9841l0 0.519711c-0.0413406,0.291747 -0.187805,0.465377 -0.439392,0.523254l-12.5049 0 -0.0059058 -0.180718c0.939023,-0.102761 3.06039,-0.655544 3.83168,-0.862247l9.11856 0z"/>
  <path class="fil26" d="M12.6514 17.3347c0.705153,0 1.17525,-0.328363 1.17525,0.128746 0,0.457109 -0.470102,0.55987 -1.17525,0.55987 -0.705153,0 -1.27683,-0.102761 -1.27683,-0.55987 0,-0.457109 0.571682,-0.128746 1.27683,-0.128746z"/>
  <path class="fil26" d="M25.8178 21.0471l-0.00826812 -0.171268 -0.00472464 0.0188986c0.0897682,-0.514986 0.480732,-0.870515 0.911856,-0.871696l4.04784 -0.0342537 0.25395 0.0141739 0.223239 -0.211428 0.257493 0.18308 -0.088587 0.0803189 0.100399 0.0708696 -0.0602392 0.0555145 0.0484276 0.0342537 -0.0708696 0.0637827 0.0708696 0.0507899 -0.0177174 0.0165362 0.029529 0.0212609 -0.0696885 0.0637827 0.0696885 0.0496087 -0.0602392 0.0555145 0.0484276 0.0342537 -0.088587 0.0803189 0.100399 0.0720508 -0.309464 0.283479 -0.400413 0.00944928 -4.07146 0.0354348c-0.348442,0.00118116 -0.706334,0.206703 -0.908312,0.574044l-0.00354348 0.0177174 -0.00826812 -0.170087 -0.00472464 0.0188986c0.00708696,-0.0448841 0.0177174,-0.0897682 0.0307102,-0.13229l-0.0141739 0.0236232 -0.00354348 0.0188986 -0.00826812 -0.171268 -0.00472464 0.0188986 0.00944928 -0.0448841 -0.00472464 -0.0874059 -0.00472464 0.0188986c0.00708696,-0.0448841 0.0177174,-0.0897682 0.0307102,-0.13229l-0.0141739 0.0236232 -0.00354348 0.0188986z"/>
  <path class="fil26" d="M5.44397 21.0471l0.00826812 -0.171268 0.00472464 0.0188986c-0.0897682,-0.514986 -0.480732,-0.870515 -0.911856,-0.871696l-4.04784 -0.0342537 -0.25395 0.0141739 -0.223239 -0.211428 -0.257493 0.18308 0.088587 0.0803189 -0.100399 0.0708696 0.0602392 0.0555145 -0.0484276 0.0342537 0.0708696 0.0637827 -0.0708696 0.0507899 0.0177174 0.0165362 -0.029529 0.0212609 0.0696885 0.0637827 -0.0696885 0.0496087 0.0602392 0.0555145 -0.0484276 0.0342537 0.088587 0.0803189 -0.100399 0.0720508 0.309464 0.283479 0.400413 0.00944928 4.07146 0.0354348c0.348442,0.00118116 0.706334,0.206703 0.908312,0.574044l0.00354348 0.0177174 0.00826812 -0.170087 0.00472464 0.0188986c-0.00708696,-0.0448841 -0.0177174,-0.0897682 -0.0307102,-0.13229l0.0141739 0.0236232 0.00354348 0.0188986 0.00826812 -0.171268 0.00472464 0.0188986 -0.00944928 -0.0448841 0.00472464 -0.0874059 0.00472464 0.0188986c-0.00708696,-0.0448841 -0.0177174,-0.0897682 -0.0307102,-0.13229l0.0141739 0.0236232 0.00354348 0.0188986z"/>
  <path class="fil22" d="M14.8649 28.1388c-2.35051,-0.146464 -4.48605,-0.673261 -6.17511,-1.45637 -2.22058,-1.02997 -3.77853,-2.73084 -4.23919,-4.52621l-0.0649638 -0.255131"/>
  <path class="fil22" d="M17.1386 28.1388c2.35051,-0.146464 4.48605,-0.673261 6.17511,-1.45637 2.22058,-1.02997 3.77853,-2.73084 4.23919,-4.52621l0.0649638 -0.255131"/>
  <path class="fil22" d="M17.0524 28.1388c2.35051,-0.146464 4.48605,-0.673261 6.17511,-1.45637 2.22058,-1.02997 3.77853,-2.73084 4.23919,-4.52621l0.0649638 -0.255131"/>
  <path class="fil22" d="M17.1067 28.1388c2.35051,-0.146464 4.48605,-0.673261 6.17629,-1.45637 2.22058,-1.02997 3.77853,-2.73084 4.238,-4.52621l0.0649638 -0.255131"/>
  <path class="fil22" d="M16.9839 28.2097c2.35051,-0.146464 4.48605,-0.673261 6.17629,-1.45637 2.22058,-1.02997 3.77853,-2.58202 4.238,-4.37856l0.0649638 -0.25395 2.14381 0c0.232689,0.0531522 0.360254,0.211428 0.383877,0.473645"/>
  <path class="fil22" d="M17.0737 28.1388c2.35051,-0.146464 4.48605,-0.673261 6.17511,-1.45637 2.22058,-1.02997 3.77853,-2.73084 4.23919,-4.52621l0.0649638 -0.255131"/>
  <path class="fil62" d="M29.9849 17.891l1.61347 1.37841 0.167725 0.297652c0.0141739,0.0850436 0.0354348,0.166544 0.0566957,0.243319l0.00236232 0.00472464c0.0259855,0.100399 0.0543334,0.204341 0.0767754,0.337812l0.0342537 0.205522 -0.0484276 0.0673261 0 8.02717 -0.00472464 0.0448841c-0.0188986,0.219696 -0.0519711,0.439392 -0.102761,0.648457 -0.0555145,0.225602 -0.138196,0.448841 -0.252768,0.66145 -0.159457,0.294109 -0.374428,0.553964 -0.633102,0.75358l0.00118116 0.00118116c-0.249225,0.19371 -0.546877,0.33545 -0.877602,0.399232l-0.0933117 0.0106304 -27.9628 0.0259855 -0.0921305 -0.0106304c-0.432305,-0.0815001 -0.82445,-0.289384 -1.13155,-0.581131 -0.309464,-0.29529 -0.536247,-0.677986 -0.635464,-1.1032l-0.0141739 -0.113391 0 -8.95202 0.0401595 -0.187805 0.103942 -0.25395 0.138196 -0.19371 1.54023 -1.304 0 1.30873 -0.805551 0.68153 -0.0153551 0.0389783 0 8.80319c0.0602392,0.212609 0.179536,0.403957 0.33545,0.552783 0.158276,0.150007 0.359073,0.262218 0.578769,0.313008l27.873 -0.0259855c0.147645,-0.0354348 0.28466,-0.105123 0.403957,-0.197254l0.00236232 0c0.145283,-0.11221 0.271667,-0.265761 0.367341,-0.442935 0.0720508,-0.133471 0.125203,-0.277573 0.160638,-0.422855 0.036616,-0.147645 0.059058,-0.301196 0.0744131,-0.454747l0 -8.1878 0.0129928 -0.0389783 -0.0401595 -0.155913 0.00118116 0 -0.0401595 -0.15237 -0.83508 -0.713421 0 -1.31345z"/>
  <path class="fil63" d="M1.93002 24.2469l0 0.214971 0 0.21379 0 0.0555145 0.771298 -1.09021 2.11782 -0.00118116c-0.0696885,-0.387421 -0.129928,-0.780747 -0.177174,-1.17998l-0.0673261 -0.571682 -2.24302 0c-0.242138,0.119297 -0.375609,0.473645 -0.400413,1.06068l-0.00118116 1.2981z"/>
  <path class="fil63" d="M30.0735 24.2469l0 0.214971 0 0.21379 0 0.0555145 -0.771298 -1.08903 -2.11782 -0.00236232c0.0696885,-0.387421 0.129928,-0.781928 0.177174,-1.18116l0.0673261 -0.570501 2.24302 0c0.242138,0.120478 0.375609,0.474827 0.400413,1.06068l0.00118116 1.2981z"/>
  <path class="fil64" d="M31.889 4.04311l-31.3445 -0.0354348 -0.486638 0.0129928c-0.00708696,-0.556327 0.0413406,-1.07604 0.0791378,-1.63118 0.059058,-0.574044 0.401595,-1.16699 0.861066,-1.60165 0.460653,-0.438211 1.05714,-0.740588 1.62646,-0.740588l26.699 0c0.568138,0 1.18825,0.327181 1.67134,0.786653 0.483095,0.460653 0.853979,1.0784 0.916581,1.65244 -0.00708696,0.510261 0.0874059,1.04533 -0.022442,1.55677zm-0.965008 -1.0217l0 -0.00118116c-0.2445,-0.770117 -0.385058,-1.97136 -1.60047,-1.97136l-26.699 0c-1.25912,0 -1.19652,1.1162 -1.40794,1.85678l-0.0401595 0.105123 29.7475 0.0106304z"/>
  <path class="fil45" d="M12.6467 10.7072c2.38358,0 4.31832,1.93356 4.31832,4.31714 0,2.38476 -1.93474,4.31832 -4.31832,4.31832 -2.38476,0 -4.31714,-1.93356 -4.31714,-4.31832 0,-2.38358 1.93238,-4.31714 4.31714,-4.31714zm-0.0531522 0.909494c1.91112,0 3.4608,1.54968 3.4608,3.46198 0,1.91112 -1.54968,3.4608 -3.4608,3.4608 -1.91112,0 -3.4608,-1.54968 -3.4608,-3.4608 0,-1.9123 1.54968,-3.46198 3.4608,-3.46198z"/>
 </g>
</svg>
