<?xml version="1.0" encoding="UTF-8" standalone="no"?>
<!-- Creator: CorelDRAW -->

<svg
   xmlns:dc="http://purl.org/dc/elements/1.1/"
   xmlns:cc="http://creativecommons.org/ns#"
   xmlns:rdf="http://www.w3.org/1999/02/22-rdf-syntax-ns#"
   xmlns:svg="http://www.w3.org/2000/svg"
   xmlns="http://www.w3.org/2000/svg"
   xmlns:sodipodi="http://sodipodi.sourceforge.net/DTD/sodipodi-0.dtd"
   xmlns:inkscape="http://www.inkscape.org/namespaces/inkscape"
   xml:space="preserve"
   width="32px"
   height="32px"
   style="shape-rendering:geometricPrecision; text-rendering:geometricPrecision; image-rendering:optimizeQuality; fill-rule:evenodd; clip-rule:evenodd"
   viewBox="0 0 32 32"
   id="svg4183"
   version="1.1"
   inkscape:version="0.48.1 r9760"
   sodipodi:docname="preferences-system-effects.svg"><metadata
   id="metadata4455"><rdf:RDF><cc:Work
       rdf:about=""><dc:format>image/svg+xml</dc:format><dc:type
         rdf:resource="http://purl.org/dc/dcmitype/StillImage" /><dc:title></dc:title></cc:Work></rdf:RDF></metadata><sodipodi:namedview
   pagecolor="#ffffff"
   bordercolor="#666666"
   borderopacity="1"
   objecttolerance="10"
   gridtolerance="10"
   guidetolerance="10"
   inkscape:pageopacity="0"
   inkscape:pageshadow="2"
   inkscape:window-width="646"
   inkscape:window-height="480"
   id="namedview4453"
   showgrid="false"
   inkscape:zoom="8.3125"
   inkscape:cx="16"
   inkscape:cy="16"
   inkscape:window-x="0"
   inkscape:window-y="24"
   inkscape:window-maximized="0"
   inkscape:current-layer="svg4183" />
 <defs
   id="defs4185">
  <style
   type="text/css"
   id="style4187">
   
    .fil16 {fill:none}
    .fil155 {fill:#333333}
    .fil157 {fill:#9933CC}
    .fil163 {fill:white}
    .fil131 {fill:#396DA6}
    .fil130 {fill:white}
    .fil158 {fill:#EFCCFF}
    .fil160 {fill:#191919;fill-rule:nonzero}
    .fil18 {fill:white;fill-rule:nonzero}
    .fil159 {fill:#7C448F;fill-rule:nonzero}
    .fil0 {fill:black;fill-opacity:0.000000}
    .fil166 {fill:#333333;fill-opacity:0.000000}
    .fil132 {fill:#41015E;fill-opacity:0.000000}
    .fil146 {fill:#CF60CF;fill-opacity:0.000000}
    .fil139 {fill:#F07DF0;fill-opacity:0.000000}
    .fil1 {fill:black;fill-opacity:0.003922}
    .fil2 {fill:black;fill-opacity:0.007843}
    .fil167 {fill:#333333;fill-opacity:0.007843}
    .fil94 {fill:#458BC9;fill-opacity:0.011765}
    .fil3 {fill:black;fill-opacity:0.015686}
    .fil126 {fill:#BAE8FF;fill-opacity:0.015686}
    .fil52 {fill:#C4EBFF;fill-opacity:0.015686}
    .fil4 {fill:black;fill-opacity:0.019608}
    .fil168 {fill:#333333;fill-opacity:0.019608}
    .fil133 {fill:#41015E;fill-opacity:0.019608}
    .fil93 {fill:#458BC9;fill-opacity:0.019608}
    .fil5 {fill:black;fill-opacity:0.023529}
    .fil6 {fill:black;fill-opacity:0.027451}
    .fil169 {fill:#333333;fill-opacity:0.027451}
    .fil125 {fill:#BAE8FF;fill-opacity:0.031373}
    .fil51 {fill:#C4EBFF;fill-opacity:0.031373}
    .fil92 {fill:#458BC9;fill-opacity:0.031373}
    .fil7 {fill:black;fill-opacity:0.031373}
    .fil8 {fill:black;fill-opacity:0.035294}
    .fil170 {fill:#333333;fill-opacity:0.035294}
    .fil134 {fill:#41015E;fill-opacity:0.039216}
    .fil91 {fill:#458BC9;fill-opacity:0.039216}
    .fil9 {fill:black;fill-opacity:0.043137}
    .fil124 {fill:#BAE8FF;fill-opacity:0.047059}
    .fil50 {fill:#C4EBFF;fill-opacity:0.047059}
    .fil10 {fill:black;fill-opacity:0.047059}
    .fil171 {fill:#333333;fill-opacity:0.047059}
    .fil11 {fill:black;fill-opacity:0.050980}
    .fil90 {fill:#458BC9;fill-opacity:0.050980}
    .fil172 {fill:#333333;fill-opacity:0.054902}
    .fil135 {fill:#41015E;fill-opacity:0.058824}
    .fil123 {fill:#BAE8FF;fill-opacity:0.058824}
    .fil49 {fill:#C4EBFF;fill-opacity:0.058824}
    .fil89 {fill:#458BC9;fill-opacity:0.062745}
    .fil147 {fill:#D364D3;fill-opacity:0.062745}
    .fil173 {fill:#333333;fill-opacity:0.062745}
    .fil88 {fill:#458BC9;fill-opacity:0.070588}
    .fil174 {fill:#333333;fill-opacity:0.074510}
    .fil122 {fill:#BAE8FF;fill-opacity:0.074510}
    .fil48 {fill:#C4EBFF;fill-opacity:0.074510}
    .fil136 {fill:#41015E;fill-opacity:0.078431}
    .fil87 {fill:#458BC9;fill-opacity:0.082353}
    .fil175 {fill:#333333;fill-opacity:0.082353}
    .fil140 {fill:#F07DF0;fill-opacity:0.082353}
    .fil121 {fill:#BAE8FF;fill-opacity:0.090196}
    .fil47 {fill:#C4EBFF;fill-opacity:0.090196}
    .fil86 {fill:#458BC9;fill-opacity:0.090196}
    .fil176 {fill:#333333;fill-opacity:0.094118}
    .fil137 {fill:#41015E;fill-opacity:0.101961}
    .fil177 {fill:#333333;fill-opacity:0.101961}
    .fil85 {fill:#458BC9;fill-opacity:0.101961}
    .fil120 {fill:#BAE8FF;fill-opacity:0.105882}
    .fil46 {fill:#C4EBFF;fill-opacity:0.105882}
    .fil178 {fill:#333333;fill-opacity:0.109804}
    .fil84 {fill:#458BC9;fill-opacity:0.113725}
    .fil179 {fill:#333333;fill-opacity:0.121569}
    .fil138 {fill:#41015E;fill-opacity:0.121569}
    .fil17 {fill:#B2B2B2;fill-rule:nonzero;fill-opacity:0.121569}
    .fil119 {fill:#BAE8FF;fill-opacity:0.121569}
    .fil45 {fill:#C4EBFF;fill-opacity:0.121569}
    .fil83 {fill:#458BC9;fill-opacity:0.121569}
    .fil148 {fill:#D769D7;fill-opacity:0.125490}
    .fil82 {fill:#458BC9;fill-opacity:0.133333}
    .fil118 {fill:#BAE8FF;fill-opacity:0.137255}
    .fil44 {fill:#C4EBFF;fill-opacity:0.137255}
    .fil81 {fill:#458BC9;fill-opacity:0.145098}
    .fil117 {fill:#BAE8FF;fill-opacity:0.152941}
    .fil43 {fill:#C4EBFF;fill-opacity:0.152941}
    .fil80 {fill:#458BC9;fill-opacity:0.152941}
    .fil79 {fill:#458BC9;fill-opacity:0.164706}
    .fil116 {fill:#BAE8FF;fill-opacity:0.164706}
    .fil42 {fill:#C4EBFF;fill-opacity:0.164706}
    .fil164 {fill:#DA6CDA;fill-opacity:0.168627}
    .fil141 {fill:#F07DF0;fill-opacity:0.168627}
    .fil78 {fill:#458BC9;fill-opacity:0.172549}
    .fil115 {fill:#BAE8FF;fill-opacity:0.180392}
    .fil41 {fill:#C4EBFF;fill-opacity:0.180392}
    .fil77 {fill:#458BC9;fill-opacity:0.184314}
    .fil149 {fill:#DB6DDB;fill-opacity:0.188235}
    .fil76 {fill:#458BC9;fill-opacity:0.196078}
    .fil114 {fill:#BAE8FF;fill-opacity:0.196078}
    .fil40 {fill:#C4EBFF;fill-opacity:0.196078}
    .fil75 {fill:#458BC9;fill-opacity:0.203922}
    .fil113 {fill:#BAE8FF;fill-opacity:0.211765}
    .fil39 {fill:#C4EBFF;fill-opacity:0.211765}
    .fil74 {fill:#458BC9;fill-opacity:0.215686}
    .fil127 {fill:#A0DFFF;fill-opacity:0.219608}
    .fil162 {fill:#FF87FF;fill-opacity:0.219608}
    .fil73 {fill:#458BC9;fill-opacity:0.223529}
    .fil112 {fill:#BAE8FF;fill-opacity:0.227451}
    .fil38 {fill:#C4EBFF;fill-opacity:0.227451}
    .fil72 {fill:#458BC9;fill-opacity:0.235294}
    .fil111 {fill:#BAE8FF;fill-opacity:0.243137}
    .fil37 {fill:#C4EBFF;fill-opacity:0.243137}
    .fil71 {fill:#458BC9;fill-opacity:0.247059}
    .fil150 {fill:#DF72DF;fill-opacity:0.250980}
    .fil142 {fill:#F07DF0;fill-opacity:0.250980}
    .fil70 {fill:#458BC9;fill-opacity:0.254902}
    .fil110 {fill:#BAE8FF;fill-opacity:0.258824}
    .fil36 {fill:#C4EBFF;fill-opacity:0.258824}
    .fil69 {fill:#458BC9;fill-opacity:0.266667}
    .fil109 {fill:#BAE8FF;fill-opacity:0.274510}
    .fil35 {fill:#C4EBFF;fill-opacity:0.274510}
    .fil68 {fill:#458BC9;fill-opacity:0.274510}
    .fil67 {fill:#458BC9;fill-opacity:0.286275}
    .fil108 {fill:#BAE8FF;fill-opacity:0.286275}
    .fil34 {fill:#C4EBFF;fill-opacity:0.286275}
    .fil66 {fill:#458BC9;fill-opacity:0.298039}
    .fil107 {fill:#BAE8FF;fill-opacity:0.301961}
    .fil33 {fill:#C4EBFF;fill-opacity:0.301961}
    .fil65 {fill:#458BC9;fill-opacity:0.305882}
    .fil151 {fill:#E376E3;fill-opacity:0.313725}
    .fil64 {fill:#458BC9;fill-opacity:0.317647}
    .fil106 {fill:#BAE8FF;fill-opacity:0.317647}
    .fil32 {fill:#C4EBFF;fill-opacity:0.317647}
    .fil63 {fill:#458BC9;fill-opacity:0.325490}
    .fil105 {fill:#BAE8FF;fill-opacity:0.333333}
    .fil31 {fill:#C4EBFF;fill-opacity:0.333333}
    .fil165 {fill:#E578E5;fill-opacity:0.333333}
    .fil143 {fill:#F07DF0;fill-opacity:0.333333}
    .fil62 {fill:#458BC9;fill-opacity:0.337255}
    .fil61 {fill:#458BC9;fill-opacity:0.349020}
    .fil104 {fill:#BAE8FF;fill-opacity:0.349020}
    .fil30 {fill:#C4EBFF;fill-opacity:0.349020}
    .fil60 {fill:#458BC9;fill-opacity:0.356863}
    .fil103 {fill:#BAE8FF;fill-opacity:0.364706}
    .fil29 {fill:#C4EBFF;fill-opacity:0.364706}
    .fil59 {fill:#458BC9;fill-opacity:0.368627}
    .fil152 {fill:#E77BE7;fill-opacity:0.376471}
    .fil58 {fill:#458BC9;fill-opacity:0.380392}
    .fil102 {fill:#BAE8FF;fill-opacity:0.380392}
    .fil28 {fill:#C4EBFF;fill-opacity:0.380392}
    .fil57 {fill:#458BC9;fill-opacity:0.388235}
    .fil101 {fill:#BAE8FF;fill-opacity:0.392157}
    .fil27 {fill:#C4EBFF;fill-opacity:0.392157}
    .fil56 {fill:#458BC9;fill-opacity:0.400000}
    .fil100 {fill:#BAE8FF;fill-opacity:0.407843}
    .fil26 {fill:#C4EBFF;fill-opacity:0.407843}
    .fil55 {fill:#458BC9;fill-opacity:0.407843}
    .fil144 {fill:#F07DF0;fill-opacity:0.415686}
    .fil54 {fill:#458BC9;fill-opacity:0.419608}
    .fil99 {fill:#BAE8FF;fill-opacity:0.423529}
    .fil25 {fill:#C4EBFF;fill-opacity:0.423529}
    .fil53 {fill:#458BC9;fill-opacity:0.431373}
    .fil153 {fill:#EB7FEB;fill-opacity:0.439216}
    .fil98 {fill:#BAE8FF;fill-opacity:0.439216}
    .fil24 {fill:#C4EBFF;fill-opacity:0.439216}
    .fil128 {fill:#396DA6;fill-opacity:0.439216}
    .fil12 {fill:#A4A5A7;fill-opacity:0.439216}
    .fil97 {fill:#BAE8FF;fill-opacity:0.454902}
    .fil23 {fill:#C4EBFF;fill-opacity:0.454902}
    .fil96 {fill:#BAE8FF;fill-opacity:0.470588}
    .fil22 {fill:#C4EBFF;fill-opacity:0.470588}
    .fil95 {fill:#BAE8FF;fill-opacity:0.486275}
    .fil21 {fill:#C4EBFF;fill-opacity:0.486275}
    .fil145 {fill:#F07DF0;fill-opacity:0.501961}
    .fil154 {fill:#F085F0;fill-opacity:0.501961}
    .fil129 {fill:url(#id0)}
    .fil15 {fill:url(#id1)}
    .fil156 {fill:url(#id2)}
    .fil20 {fill:url(#id3)}
    .fil14 {fill:url(#id4)}
    .fil13 {fill:url(#id5)}
    .fil19 {fill:url(#id6);fill-rule:nonzero}
    .fil161 {fill:url(#id7);fill-opacity:0.501961}
   
  </style>
  <linearGradient
   id="id0"
   gradientUnits="userSpaceOnUse"
   x1="15.4638"
   y1="27.9309"
   x2="15.4638"
   y2="6.06053">
   <stop
   offset="0"
   style="stop-color:#7F7F7F"
   id="stop4190" />
   <stop
   offset="1"
   style="stop-color:#999999"
   id="stop4192" />
  </linearGradient>
  <linearGradient
   id="id1"
   gradientUnits="userSpaceOnUse"
   x1="15.9764"
   y1="4.24155"
   x2="15.3976"
   y2="15.9539">
   <stop
   offset="0"
   style="stop-color:#EDEDED"
   id="stop4195" />
   <stop
   offset="1"
   style="stop-color:#D1CFCF"
   id="stop4197" />
  </linearGradient>
  <linearGradient
   id="id2"
   gradientUnits="userSpaceOnUse"
   x1="25.2012"
   y1="15.1118"
   x2="19.775"
   y2="26.5206">
   <stop
   offset="0"
   style="stop-color:#939393"
   id="stop4200" />
   <stop
   offset="1"
   style="stop-color:#7F7F7F"
   id="stop4202" />
  </linearGradient>
  <linearGradient
   id="id3"
   gradientUnits="userSpaceOnUse"
   x1="15.4638"
   y1="12.8569"
   x2="15.4638"
   y2="21.5975">
   <stop
   offset="0"
   style="stop-color:#5CA2DA"
   id="stop4205" />
   <stop
   offset="1"
   style="stop-color:#84C1F0"
   id="stop4207" />
  </linearGradient>
  <linearGradient
   id="id4"
   gradientUnits="userSpaceOnUse"
   x1="15.4685"
   y1="21.4522"
   x2="15.3362"
   y2="11.9274">
   <stop
   offset="0"
   style="stop-color:#C2C2C2"
   id="stop4210" />
   <stop
   offset="1"
   style="stop-color:#D9D9D9"
   id="stop4212" />
  </linearGradient>
  <linearGradient
   id="id5"
   gradientUnits="userSpaceOnUse"
   x1="15.7189"
   y1="21.4948"
   x2="15.5783"
   y2="11.997">
   <stop
   offset="0"
   style="stop-color:#B0B0B0"
   id="stop4215" />
   <stop
   offset="1"
   style="stop-color:#BEBEBE"
   id="stop4217" />
  </linearGradient>
  <linearGradient
   id="id6"
   gradientUnits="userSpaceOnUse"
   x1="15.5004"
   y1="30.0157"
   x2="15.5004"
   y2="2.93873">
   <stop
   offset="0"
   style="stop-color:#919191"
   id="stop4220" />
   <stop
   offset="1"
   style="stop-color:#B2B2B2"
   id="stop4222" />
  </linearGradient>
  <linearGradient
   id="id7"
   gradientUnits="userSpaceOnUse"
   x1="17.2627"
   y1="9.17998"
   x2="22.0818"
   y2="17.5662">
   <stop
   offset="0"
   style="stop-color:#ECA6F3"
   id="stop4225" />
   <stop
   offset="1"
   style="stop-color:#D594E9"
   id="stop4227" />
  </linearGradient>
 </defs>
 <g
   id="Слой_x0020_1">
  <metadata
   id="CorelCorpID_0Corel-Layer" />
  <g
   id="_295868976">
   <g
   id="g4232">
    <path
   id="_295879608"
   class="fil0"
   d="M14.6381 26.282c15.1708,-0.608298 17.2178,1.73749 17.2839,3.64034 0.066145,1.90403 -7.87125,0.820907 -16.7158,1.14927 -8.84571,0.328363 -16.3047,0.605935 -16.3047,-0.805551 0,-1.41031 0.564595,-3.37576 15.7366,-3.98405z" />
    <g
   id="g4235">
     <path
   id="_295889880"
   class="fil1"
   d="M14.6736 26.5159c14.5271,-0.561051 17.0394,1.65835 17.0997,3.45017 0.0614203,1.76229 -7.82637,0.765392 -16.5528,1.06895 -8.72641,0.302377 -16.1736,0.556327 -16.1736,-0.751218 0,-1.33825 1.09848,-3.20685 15.6268,-3.7679z" />
     <path
   id="_295886544"
   class="fil2"
   d="M14.7078 26.7497c13.8845,-0.514986 16.8611,1.57921 16.9166,3.25764 0.0566957,1.62173 -7.78267,0.711059 -16.3898,0.988631 -8.60712,0.278754 -16.0425,0.507899 -16.0425,-0.696885 0,-1.26266 1.63118,-3.0344 15.5157,-3.54939z" />
     <path
   id="_295876512"
   class="fil3"
   d="M14.7421 26.9836c13.2408,-0.46774 16.6827,1.50125 16.7335,3.06629 0.0507899,1.48118 -7.73896,0.656725 -16.228,0.909494 -8.489,0.252768 -15.9114,0.45829 -15.9114,-0.642551 0,-1.18825 2.16507,-2.8655 15.4059,-3.33323z" />
     <path
   id="_295889736"
   class="fil4"
   d="M14.7763 27.2175c12.5971,-0.420493 16.5044,1.42212 16.5504,2.87613 0.0448841,1.33944 -7.69644,0.601211 -16.065,0.829175 -8.37088,0.226783 -15.7815,0.4075 -15.7815,-0.589399 0,-1.11383 2.69777,-2.69423 15.296,-3.1159z" />
     <path
   id="_295867416"
   class="fil5"
   d="M14.8106 27.4525c11.9545,-0.374428 16.326,1.3418 16.3673,2.6836 0.0401595,1.19888 -7.65274,0.546877 -15.9031,0.748856 -8.25159,0.201978 -15.6504,0.359073 -15.6504,-0.535066 0,-1.03942 3.23047,-2.52296 15.1862,-2.89739z" />
     <path
   id="_295877232"
   class="fil6"
   d="M14.8448 27.6864c11.3108,-0.327181 16.1488,1.26384 16.1843,2.49225 0.0354348,1.05832 -7.60904,0.492544 -15.7401,0.668537 -8.13347,0.177174 -15.5204,0.310645 -15.5204,-0.480732 0,-0.963827 3.76436,-2.35169 15.0763,-2.68005z" />
     <path
   id="_295874400"
   class="fil7"
   d="M14.8791 27.9215c10.6682,-0.281116 15.9693,1.1847 16,2.3009 0.0307102,0.917762 -7.56415,0.435848 -15.5783,0.588218 -8.01299,0.151189 -15.387,0.259855 -15.387,-0.426399 0,-0.890595 4.29706,-2.18278 14.9653,-2.46272z" />
     <path
   id="_295895136"
   class="fil8"
   d="M14.9133 28.1553c10.0245,-0.23387 15.7921,1.10557 15.8169,2.11073 0.0248044,0.776022 -7.52045,0.380334 -15.4153,0.507899 -7.89488,0.125203 -15.2571,0.210247 -15.2571,-0.373247 0,-0.816182 4.82977,-2.01152 14.8555,-2.24539z" />
     <path
   id="_295885632"
   class="fil9"
   d="M14.9476 28.3892c9.38078,-0.187805 15.6138,1.02643 15.6338,1.91939 0.0200797,0.635464 -7.47675,0.326 -15.2535,0.42758 -7.77558,0.100399 -15.1259,0.161819 -15.1259,-0.318913 0,-0.741769 5.36365,-1.84143 14.7456,-2.02805z" />
     <path
   id="_295888008"
   class="fil10"
   d="M14.9818 28.6231c8.73704,-0.139377 15.4354,0.948472 15.4508,1.72804 0.0153551,0.494906 -7.43304,0.271667 -15.0905,0.347261 -7.65746,0.0755943 -14.996,0.113391 -14.996,-0.26458 0,-0.666175 5.89635,-1.67016 14.6358,-1.81072z" />
     <path
   id="_295863120"
   class="fil11"
   d="M15.0161 28.8581c8.09449,-0.0933117 15.2571,0.869334 15.2665,1.53669 0.0106304,0.353167 -7.38816,0.216152 -14.9275,0.266942 -7.53935,0.0496087 -14.8649,0.0626015 -14.8649,-0.211428 0,-0.591761 6.43024,-1.49889 14.5259,-1.5922z" />
    </g>
   </g>
   <path
   id="_296948496"
   class="fil12"
   d="M0.68153 4.20611c0.219696,-0.239776 0.336631,-0.601211 0.688617,-0.647276l0.242138 0.530341 -1.03706 1.28746 0.106304 -1.17053z" />
   <path
   id="_296950704"
   class="fil13"
   d="M2.19814 3.85885l26.8997 -0.0826812c0.843349,-0.00236232 1.53433,0.693341 1.53433,1.53315l0 22.794c0,0.839805 -0.69216,1.53315 -1.53433,1.53315 -10.0966,0 -9.67725,0.0826812 -26.8997,0.0826812 -0.840986,0 -1.53315,-0.689798 -1.53315,-1.53315l0 -22.794c0,-0.843349 0.689798,-1.53078 1.53315,-1.53315z" />
   <path
   id="_296930352"
   class="fil14"
   d="M2.19814 3.66042l26.4072 0c0.843349,0 1.53315,0.693341 1.53315,1.53315l0 22.9925c0,0.839805 -0.690979,1.53315 -1.53315,1.53315 -10.0966,0 -9.1847,0 -26.4072,0 -0.840986,0 -1.53315,-0.689798 -1.53315,-1.53315l0 -22.9925c0,-0.843349 0.689798,-1.53315 1.53315,-1.53315z" />
   <path
   id="_296939424"
   class="fil15"
   d="M30.3995 13.5101c-6.75978,2.08357 -22.1349,1.53669 -29.8834,1.12446l0 -8.49845c0,-0.843349 0.689798,-1.53433 1.53197,-1.53315l27.2281 0.0826812c0.84453,0.00118116 1.58039,0.698066 1.53433,1.53315l-0.411044 7.2913z" />
   <path
   id="_296933016"
   class="fil16"
   d="M2.51351 27.5423l-0.165362 0.179536m27.2813 -0.0188986l-0.184261 -0.163" />
   <path
   id="_296935488"
   class="fil17"
   d="M0.311826 5.29987c0,-0.480732 0.197254,-0.918943 0.513805,-1.23549 0.316551,-0.317732 0.754762,-0.514986 1.23549,-0.514986l27.5553 0c0.480732,0 0.918943,0.197254 1.23668,0.514986 0.316551,0.317732 0.514986,0.755943 0.514986,1.23549l-0.270486 0.0826812c0,-0.361435 -0.313008,-0.77366 -0.551602,-1.01225 -0.238594,-0.237413 -0.568138,-0.386239 -0.929573,-0.386239l-27.5553 0c-0.361435,0 -0.690979,0.148826 -0.928392,0.386239 -0.238594,0.237413 -0.386239,0.566957 -0.386239,0.929573l-0.434667 0z" />
   <path
   id="_296934816"
   class="fil18"
   d="M2.12136 3.82224l26.6222 0c0.556327,0 1.06659,0.230326 1.43393,0.598848l0.00118116 0.00118116c0.259855,0.258674 0.451203,0.588218 0.540972,0.955559l-1.06186 0c-0.0496087,-0.0933117 -0.111029,-0.177174 -0.184261,-0.250406l-0.00118116 -0.00118116c-0.185442,-0.186623 -0.445298,-0.302377 -0.728776,-0.302377l-26.6222 0c-0.283479,0 -0.543334,0.116935 -0.728776,0.302377 -0.073232,0.073232 -0.137015,0.158276 -0.185442,0.251587l-1.06186 0c0.0897682,-0.368522 0.281116,-0.698066 0.540972,-0.957921 0.367341,-0.367341 0.876421,-0.597667 1.43511,-0.597667z" />
   <path
   id="_296938872"
   class="fil19"
   d="M1.94183 2.94345l26.9789 0.0496087 0 -0.00236232 0.0389783 0 0.0059058 0.00236232c0.585856,0.00708696 1.09021,0.163 1.45991,0.497269l0.00118116 -0.00118116c0.380334,0.342537 0.598848,0.849254 0.598848,1.54141l0 0.0354348 -0.00236232 0.0059058 -0.0271667 2.13081 -0.00708696 0.494906 -0.00826812 0 0 20.2853c0,0.556327 -0.231507,1.06423 -0.598848,1.43393 -0.367341,0.369703 -0.878783,0.60003 -1.43511,0.60003l-26.9281 0c-0.556327,0 -1.06777,-0.230326 -1.43511,-0.60003l0 0.00118116c-0.367341,-0.367341 -0.597667,-0.876421 -0.597667,-1.43511l0 -20.2853 -0.00944928 0 0 -0.500812 0 -2.13081 0.00236232 -0.0141739 0.00354348 -0.12166 0 -0.0118116c0.0259855,-0.50908 0.197254,-0.992175 0.497269,-1.35007 0.321276,-0.386239 0.783109,-0.629559 1.36424,-0.629559l0.0141739 0.00236232 0.0838624 0.00236232zm26.9789 1.04651l-26.9931 -0.0496087 -0.0141739 0 -0.0696885 -0.00236232 0 0.00236232c-0.261036,0 -0.463015,0.102761 -0.598848,0.265761l-0.00118116 0.00118116c-0.157094,0.187805 -0.249225,0.463015 -0.26458,0.76303l-0.00354348 0.095674 0.00236232 0 0 1.63 0.00944928 0 0 0.500812 0 20.7861c0,0.283479 0.116935,0.543334 0.302377,0.728776l0 0.00118116c0.185442,0.186623 0.445298,0.302377 0.728776,0.302377l26.9281 0c0.283479,0 0.543334,-0.115754 0.728776,-0.302377 0.186623,-0.186623 0.303558,-0.446479 0.303558,-0.729957l0 -20.7861 0 -0.500812 0.0259855 0 0.0212609 -1.63 -0.00236232 0 0 -0.0354348c0,-0.386239 -0.0980363,-0.648457 -0.265761,-0.799646l0 -0.00118116c-0.174812,-0.158276 -0.454747,-0.235051 -0.798464,-0.239776l0 0.00236232 -0.0389783 0 0 -0.00236232z" />
   <path
   id="_296924064"
   class="fil20"
   d="M1.92411 7.4673l0.0744131 19.5884c0.0507899,0.635464 0.852798,1.09848 1.42684,1.09612l24.3425 -0.0791378c0.829175,-0.0236232 1.20715,-0.578769 1.23549,-1.30754l-0.0248044 -19.2506c0,-0.767754 -0.45829,-1.18707 -1.28274,-1.18707l-24.4299 -0.0259855c-0.761849,-0.00118116 -1.3418,0.402776 -1.3418,1.16581z" />
   <g
   id="g4257">
    <g
   id="g4259">
     <path
   id="_296941944"
   class="fil21"
   d="M2.15444 18.0127c0.380334,-0.095674 0.766573,-0.174812 1.15517,-0.232689 1.96073,-0.308283 3.9687,-0.0921305 5.86682,1.06068 1.08312,0.667356 2.06821,1.28392 2.94936,1.84261 4.76126,3.08992 6.2259,4.03366 9.97136,2.83006 1.71977,-0.526798 4.22619,-2.22176 6.77041,-3.24347l0.00118116 0.223239c-2.52414,1.01816 -5.01048,2.70013 -6.71844,3.22457 -3.82224,1.23195 -5.30695,0.281116 -10.1225,-2.84896 -0.869334,-0.54924 -1.84143,-1.1599 -2.94463,-1.83789 -1.80363,-1.09021 -3.74428,-1.28983 -5.66248,-0.993356 -0.422855,0.0637827 -0.845711,0.153551 -1.26502,0.261036l-0.00118116 -0.285841z" />
     <path
   id="_296938560"
   class="fil22"
   d="M2.15562 18.3245c0.460653,-0.11221 0.92603,-0.201978 1.39141,-0.269305 1.96781,-0.27521 3.97342,-0.0755943 5.88572,1.02997 1.08431,0.636646 2.08593,1.23668 2.99542,1.78591 4.68094,3.0155 6.18692,3.96043 9.88631,2.85368 1.68906,-0.461834 4.1069,-2.00207 6.55426,-2.92337l0 0.212609c-2.43083,0.929573 -4.83567,2.45918 -6.50819,2.91747 -3.77735,1.13982 -5.2975,0.179536 -10.0328,-2.86668 -0.896501,-0.545696 -1.88395,-1.13864 -2.98834,-1.78828 -1.81662,-1.04533 -3.75963,-1.22841 -5.68374,-0.961465 -0.503174,0.0720508 -1.00162,0.170087 -1.49889,0.288203l-0.00118116 -0.278754z" />
     <path
   id="_296933088"
   class="fil23"
   d="M2.1568 18.621c0.538609,-0.12166 1.08312,-0.217334 1.62882,-0.287022 1.9749,-0.250406 3.97933,-0.0602392 5.90344,0.990994 1.08549,0.613022 2.09892,1.19415 3.03676,1.73985 4.60771,2.92928 6.1503,3.88366 9.80245,2.86786 1.65717,-0.393326 3.99114,-1.78001 6.34165,-2.608l0 0.206703c-2.33634,0.831537 -4.65613,2.21586 -6.30267,2.60918 -3.72656,1.04651 -5.27979,0.0838624 -9.93947,-2.88321 -0.923668,-0.537428 -1.92411,-1.11383 -3.02259,-1.73867 -1.83789,-0.993356 -3.77735,-1.16108 -5.718,-0.923668 -0.578769,0.0720508 -1.15636,0.174812 -1.72922,0.301196l-0.00118116 -0.27521z" />
     <path
   id="_296938656"
   class="fil24"
   d="M2.15798 18.908c0.616566,-0.125203 1.24022,-0.226783 1.86741,-0.29529 1.98081,-0.225602 3.98169,-0.0496087 5.91998,0.953197 1.08431,0.585856 2.11782,1.15045 3.07692,1.69024 4.53448,2.85014 6.11487,3.80924 9.71977,2.88558 1.63,-0.326 3.87184,-1.56976 6.12786,-2.30326l0 0.201978c-2.2442,0.737044 -4.47778,1.98081 -6.09361,2.31153 -3.67459,0.952015 -5.26679,-0.0153551 -9.84852,-2.89739 -0.948472,-0.535066 -1.96545,-1.09139 -3.06275,-1.68906 -1.85206,-0.947291 -3.79625,-1.10439 -5.7428,-0.890595 -0.659088,0.0696885 -1.31345,0.173631 -1.96309,0.301196l-0.00118116 -0.268123z" />
     <path
   id="_296928120"
   class="fil25"
   d="M2.15916 19.1809c0.696885,-0.12166 1.39968,-0.222058 2.10719,-0.289384 1.98671,-0.197254 3.9876,-0.0389783 5.93415,0.914218 1.08903,0.558689 2.13554,1.10675 3.12181,1.64181 4.45652,2.76746 6.07825,3.73365 9.63709,2.90447 1.58984,-0.265761 3.75018,-1.36424 5.91171,-2.00561l0 0.194891c-2.15444,0.649638 -4.30533,1.75402 -5.88572,2.02451 -3.62616,0.853979 -5.25853,-0.119297 -9.75875,-2.91865 -0.972095,-0.525616 -2.00679,-1.06423 -3.10055,-1.63827 -1.8686,-0.898863 -3.81633,-1.04296 -5.77115,-0.856341 -0.737044,0.0696885 -1.46936,0.168906 -2.19578,0.289384l0 -0.261036z" />
     <path
   id="_296924016"
   class="fil26"
   d="M2.15916 19.4407c0.777204,-0.113391 1.55559,-0.206703 2.34342,-0.271667 1.99734,-0.168906 3.9935,-0.0236232 5.95659,0.879965 1.08312,0.533885 2.15089,1.06304 3.15724,1.58984 4.38565,2.69068 6.04636,3.65687 9.55677,2.92692 1.55677,-0.206703 3.62734,-1.16817 5.69792,-1.72331l0 0.191348c-2.06349,0.561051 -4.13052,1.53197 -5.6802,1.74457 -3.56947,0.759486 -5.23727,-0.216152 -9.66662,-2.93518 -0.995718,-0.520892 -2.04695,-1.04533 -3.13834,-1.58748 -1.88513,-0.853979 -3.8305,-0.981544 -5.79595,-0.822088 -0.81382,0.0614203 -1.62291,0.155913 -2.42965,0.263399l-0.00118116 -0.256312z" />
     <path
   id="_296922600"
   class="fil27"
   d="M2.16034 19.6817c0.857523,-0.0921305 1.71623,-0.175993 2.58202,-0.237413 2.00443,-0.139377 3.99941,-0.00944928 5.97431,0.848073 1.08194,0.505537 2.16507,1.0158 3.19976,1.53787 4.31124,2.60918 6.00856,3.58364 9.47291,2.947 1.52015,-0.150007 3.50332,-0.982726 5.48295,-1.4481l0 0.188986c-1.9749,0.476008 -3.95453,1.31581 -5.47114,1.47054 -3.52104,0.664993 -5.22427,-0.314189 -9.57449,-2.95054 -1.0217,-0.514986 -2.08829,-1.02288 -3.17968,-1.53905 -1.90285,-0.803189 -3.85058,-0.920124 -5.8243,-0.787834 -0.891776,0.059058 -1.77528,0.135833 -2.66115,0.218515l-0.00118116 -0.248044z" />
     <path
   id="_296934504"
   class="fil28"
   d="M2.16152 19.9085c0.939023,-0.0649638 1.87332,-0.131109 2.82297,-0.185442 2.00679,-0.11221 3.99823,0 5.98966,0.809095 1.08194,0.47837 2.18042,0.973276 3.23992,1.49062 4.23328,2.5265 5.97313,3.50687 9.38786,2.96235 1.48236,-0.0909494 3.38166,-0.794921 5.27034,-1.17998l0.00118116 0.186623c-1.88631,0.389783 -3.78798,1.10911 -5.26561,1.20715 -3.46907,0.572863 -5.2101,-0.413406 -9.48118,-2.96589 -1.04769,-0.50908 -2.13081,-0.999262 -3.21748,-1.48708 -1.92175,-0.759486 -3.86712,-0.858704 -5.85501,-0.757124 -0.963827,0.0484276 -1.92411,0.106304 -2.89148,0.159457l-0.00118116 -0.239776z" />
     <path
   id="_296946144"
   class="fil29"
   d="M2.1627 20.1152c1.02407,-0.0283479 2.03396,-0.0708696 3.05802,-0.113391 2.01506,-0.0850436 4.00768,0.0141739 6.00856,0.772479 1.08194,0.450022 2.19932,0.927211 3.28481,1.43983 4.15887,2.44382 5.93651,3.42891 9.30518,2.98361 1.4422,-0.0413406 3.2541,-0.622472 5.05419,-0.92603l0 0.18308c-1.80009,0.310645 -3.61553,0.907131 -5.05537,0.957921 -3.42064,0.474827 -5.19829,-0.513805 -9.39023,-2.98715 -1.07249,-0.501993 -2.17215,-0.978001 -3.25764,-1.43511 -1.93592,-0.711059 -3.88366,-0.799646 -5.881,-0.72287 -1.04415,0.0377971 -2.07766,0.0696885 -3.12653,0.0838624l0 -0.236232z" />
     <path
   id="_296952936"
   class="fil30"
   d="M2.1627 20.303c1.11029,0.0188986 2.19696,0.00944928 3.29544,-0.0248044 2.02687,-0.0555145 4.0124,0.029529 6.02864,0.738225 1.08194,0.426399 2.21586,0.882327 3.32379,1.38668 4.08682,2.36705 5.90108,3.35686 9.2225,3.00369 1.40322,0.0118116 3.12889,-0.461834 4.8404,-0.686254l0.00118116 0.186623c-1.71386,0.230326 -3.44663,0.718146 -4.84984,0.716964 -3.36985,0.377971 -5.18411,-0.61066 -9.29928,-3.00369 -1.09257,-0.49845 -2.20641,-0.952015 -3.29426,-1.38432 -1.95246,-0.663812 -3.90374,-0.737044 -5.90698,-0.689798 -1.12092,0.0271667 -2.22413,0.0259855 -3.3604,-0.0118116l-0.00118116 -0.231507z" />
     <path
   id="_296943312"
   class="fil31"
   d="M2.16389 20.4719c1.19652,0.0755943 2.35878,0.102761 3.53639,0.0862247 2.03041,-0.0307102 4.01713,0.0401595 6.04164,0.699247 1.08076,0.398051 2.23121,0.840986 3.36749,1.33589 4.00886,2.28791 5.86446,3.28008 9.13982,3.02613 1.35833,0.0566957 3.00251,-0.307102 4.62542,-0.45829l0 0.18308c-1.62646,0.155913 -3.28008,0.540972 -4.63842,0.490182 -3.32142,0.287022 -5.1723,-0.711059 -9.21069,-3.01787 -1.11856,-0.491363 -2.24775,-0.930754 -3.33205,-1.33825 -1.97136,-0.61066 -3.92145,-0.674443 -5.93887,-0.653182 -1.18825,0.0106304 -2.36705,-0.0283479 -3.59073,-0.125203l0 -0.227964z" />
     <path
   id="_296922816"
   class="fil32"
   d="M2.16389 20.6207c1.28865,0.14292 2.52414,0.214971 3.77499,0.214971 2.03868,-0.00354348 4.01831,0.0531522 6.06172,0.664993 1.07722,0.370884 2.24657,0.79374 3.40647,1.2851 3.93681,2.20641 5.82785,3.20685 9.05478,3.04267 1.31345,0.0980363 2.87613,-0.159457 4.41282,-0.239776l0.00118116 0.184261c-1.54496,0.0874059 -3.11708,0.367341 -4.43408,0.271667 -3.26945,0.191348 -5.15695,-0.807914 -9.11856,-3.03558 -1.14218,-0.485457 -2.28673,-0.90595 -3.36749,-1.2851 -1.99026,-0.565776 -3.94153,-0.611841 -5.96604,-0.617747 -1.26266,-0.00472464 -2.51351,-0.095674 -3.8246,-0.262218l-0.00118116 -0.223239z" />
     <path
   id="_296930928"
   class="fil33"
   d="M2.16507 20.7542c1.38314,0.218515 2.68596,0.343718 4.01358,0.359073 2.04105,0.0259855 4.02303,0.0685073 6.07707,0.629559 1.08312,0.341355 2.2631,0.747675 3.44899,1.23549 3.86239,2.12491 5.79477,3.12889 8.97564,3.05921 1.26384,0.144102 2.74502,-0.0271667 4.19548,-0.0401595l0 0.154732 -0.00118116 0.0307102c-1.4611,0.0212609 -2.9529,0.209065 -4.22265,0.0744131 -3.22102,0.0992175 -5.14277,-0.907131 -9.02879,-3.0533 -1.16699,-0.479551 -2.32807,-0.883508 -3.40647,-1.23549 -2.00797,-0.520892 -3.95807,-0.550421 -5.99439,-0.584674 -1.33471,-0.0236232 -2.64934,-0.166544 -4.05729,-0.412225l0 -0.217334z" />
     <path
   id="_296928912"
   class="fil34"
   d="M2.16507 20.8676c1.48118,0.303558 2.85486,0.487819 4.251,0.525616 2.05049,0.0507899 4.03248,0.0779566 6.10188,0.589399 1.07722,0.314189 2.27492,0.707515 3.4856,1.18589 3.7868,2.04577 5.7558,3.05684 8.88941,3.07929 1.21305,0.178355 2.59973,0.095674 3.95925,0.145283l-0.0377971 0.185442c-1.35952,-0.0354348 -2.74856,0.0614203 -3.95571,-0.111029 -3.16905,0.00354348 -5.13096,-1.00517 -8.9343,-3.06984 -1.19415,-0.471283 -2.37177,-0.857523 -3.44781,-1.18352 -2.02097,-0.470102 -3.97579,-0.490182 -6.01919,-0.552783 -1.40558,-0.0437029 -2.7899,-0.248044 -4.29116,-0.578769l-0.00118116 -0.214971z" />
     <path
   id="_296931240"
   class="fil35"
   d="M2.16507 20.9585c1.57921,0.402776 3.02495,0.654363 4.48959,0.709877 2.05758,0.0779566 4.03957,0.0933117 6.11605,0.555145 1.08076,0.288203 2.29499,0.663812 3.53049,1.13864 3.71357,1.96073 5.72036,2.97652 8.80673,3.097 1.13037,0.206703 2.39657,0.207884 3.64506,0.303558 -0.0271667,0.0649638 -0.0566957,0.126384 -0.0944928,0.18308 -1.22959,-0.0815001 -2.47926,-0.0696885 -3.58837,-0.265761 -3.11708,-0.0909494 -5.12033,-1.10439 -8.84925,-3.08401 -1.21305,-0.470102 -2.40839,-0.838624 -3.48206,-1.13864 -2.03986,-0.422855 -3.9935,-0.426399 -6.04636,-0.513805 -1.47527,-0.0637827 -2.92928,-0.337812 -4.52621,-0.770117l-0.00118116 -0.214971z" />
     <path
   id="_296941680"
   class="fil36"
   d="M2.16625 21.0329c1.6867,0.506718 3.19268,0.836262 4.72937,0.915399 2.06467,0.102761 4.03839,0.102761 6.13377,0.519711 1.07722,0.257493 2.31035,0.615385 3.57065,1.08312 3.63916,1.88277 5.68493,2.90447 8.72523,3.11944 1.01107,0.219696 2.12609,0.291747 3.22811,0.421674 -0.059058,0.066145 -0.124022,0.125203 -0.198435,0.177174 -1.05241,-0.111029 -2.11191,-0.174812 -3.07692,-0.379153 -3.06747,-0.186623 -5.10379,-1.20242 -8.75594,-3.10055 -1.23904,-0.461834 -2.45091,-0.816182 -3.5234,-1.08667 -2.0564,-0.37679 -4.01122,-0.364979 -6.07471,-0.484276 -1.53787,-0.0874059 -3.05684,-0.433486 -4.75771,-0.968552l0 -0.217334z" />
     <path
   id="_296939736"
   class="fil37"
   d="M2.16625 21.0873c1.79182,0.623653 3.36631,1.03352 4.96796,1.13746 2.07176,0.13229 4.04429,0.120478 6.15267,0.481913 1.07486,0.237413 2.32807,0.577587 3.61199,1.0347 3.56002,1.80481 5.64831,2.83124 8.64137,3.13716 0.84453,0.214971 1.75166,0.336631 2.65761,0.480732 -0.15237,0.0720508 -0.334268,0.11221 -0.544515,0.118116l-0.0649638 0c-0.719327,-0.102761 -1.43157,-0.209065 -2.10128,-0.374428 -3.01787,-0.279935 -5.0908,-1.304 -8.66617,-3.12063 -1.26502,-0.453566 -2.49225,-0.791378 -3.5612,-1.03352 -2.0753,-0.328363 -4.02658,-0.305921 -6.10188,-0.450022 -1.60283,-0.11221 -3.18441,-0.543334 -4.99158,-1.19179l0 -0.219696z" />
     <path
   id="_296927952"
   class="fil38"
   d="M2.16625 21.1298c1.90403,0.744131 3.54112,1.2414 5.20301,1.37369 2.08357,0.159457 4.05492,0.131109 6.17274,0.445298 1.07604,0.207884 2.34342,0.530341 3.65451,0.983907 3.48797,1.72213 5.61287,2.7521 8.55987,3.1596 0.525616,0.151189 1.07131,0.271667 1.62291,0.386239l-1.02997 0.00354348c-0.220877,-0.0507899 -0.440573,-0.106304 -0.655544,-0.166544 -2.96353,-0.377971 -5.07663,-1.40204 -8.5705,-3.13716 -1.29219,-0.450022 -2.53477,-0.771298 -3.60372,-0.986269 -2.08829,-0.279935 -4.04075,-0.242138 -6.12668,-0.41695 -1.66898,-0.137015 -3.30843,-0.656725 -5.22545,-1.4292l-0.00118116 -0.216152z" />
     <path
   id="_296932344"
   class="fil39"
   d="M2.16625 21.1487c2.01742,0.879965 3.71475,1.47645 5.44515,1.63354 2.08475,0.187805 4.05492,0.144102 6.18574,0.4075 1.07722,0.180718 2.36114,0.487819 3.69703,0.937841 3.41355,1.63709 5.57626,2.67415 8.47483,3.17496 0.196073,0.0626015 0.39687,0.122841 0.597667,0.178355l-0.902407 0.00354348c-2.79581,-0.489 -4.91717,-1.50598 -8.24214,-3.11236 -1.31463,-0.444116 -2.57493,-0.745312 -3.64152,-0.933117 -2.10247,-0.235051 -4.06083,-0.181899 -6.15739,-0.381515 -1.72804,-0.165362 -3.43009,-0.778385 -5.45578,-1.68197l-0.00118116 -0.226783z" />
     <path
   id="_296940312"
   class="fil40"
   d="M2.16625 21.1569c2.1379,1.02052 3.89429,1.71623 5.68611,1.90167 2.09065,0.216152 4.05965,0.158276 6.20345,0.373247 1.07249,0.153551 2.37413,0.440573 3.73719,0.884689 3.28481,1.53787 5.46877,2.57021 8.25749,3.16669l-1.04533 0.00354348c-2.3576,-0.597667 -4.38565,-1.55913 -7.28776,-2.91983 -1.33471,-0.437029 -2.60918,-0.721689 -3.67577,-0.883508 -2.12255,-0.185442 -4.08091,-0.12166 -6.18219,-0.350805 -1.78946,-0.192529 -3.54939,-0.90595 -5.69201,-1.94655l-0.00118116 -0.229145z" />
     <path
   id="_296926104"
   class="fil41"
   d="M2.16625 21.1487c2.26192,1.16817 4.07618,1.97372 5.92234,2.18633 2.10128,0.245681 4.06674,0.172449 6.22353,0.340174 1.07486,0.124022 2.39303,0.395689 3.77853,0.831537 2.9092,1.32054 5.00576,2.29499 7.41296,2.97771l-0.874059 0.00354348c-2.09184,-0.650819 -4.02421,-1.5485 -6.60977,-2.72848 -1.36306,-0.428761 -2.65171,-0.698066 -3.71593,-0.831537 -2.1379,-0.138196 -4.09745,-0.059058 -6.2129,-0.316551 -1.84497,-0.220877 -3.6616,-1.0406 -5.92352,-2.22885l-0.00118116 -0.23387z" />
     <path
   id="_296945472"
   class="fil42"
   d="M2.16625 21.1298c2.38594,1.31699 4.2569,2.24066 6.1633,2.48398 2.10719,0.272848 4.06555,0.184261 6.24007,0.302377 1.07367,0.0992175 2.40839,0.353167 3.81869,0.784291 2.61745,1.14573 4.62306,2.06113 6.77986,2.78518l-0.785472 0.00354348c-1.89694,-0.669718 -3.73129,-1.50362 -6.0629,-2.53831 -1.38668,-0.420493 -2.69305,-0.67208 -3.75255,-0.777204 -2.16034,-0.095674 -4.11753,0.00118116 -6.24007,-0.281116 -1.90403,-0.252768 -3.77617,-1.18707 -6.15975,-2.52296l-0.00118116 -0.239776z" />
     <path
   id="_296933904"
   class="fil43"
   d="M2.16625 21.092c2.51469,1.47999 4.44116,2.52414 6.39953,2.80053 2.11546,0.300015 4.07855,0.197254 6.26133,0.263399 1.07367,0.0755943 2.42492,0.311826 3.86003,0.733501 2.37531,1.00635 4.28643,1.86033 6.26133,2.59737l-0.737044 0.00236232c-1.7493,-0.668537 -3.48206,-1.43983 -5.59161,-2.33988 -1.41149,-0.41695 -2.73557,-0.653182 -3.79153,-0.73232 -2.17334,-0.0437029 -4.13406,0.0626015 -6.26842,-0.2445 -1.96073,-0.285841 -3.88602,-1.33471 -6.39244,-2.82888l-0.00118116 -0.251587z" />
     <path
   id="_296953392"
   class="fil44"
   d="M2.16625 21.0459c2.64816,1.64418 4.62306,2.81471 6.64167,3.12653 2.11782,0.323638 4.07855,0.210247 6.27432,0.226783 1.07367,0.0437029 2.44028,0.263399 3.90255,0.682711 2.16034,0.881146 3.97697,1.67252 5.8054,2.40484l-0.707515 0.00236232c-1.61701,-0.653182 -3.25173,-1.36188 -5.16403,-2.14381 -1.43393,-0.412225 -2.77573,-0.631921 -3.83168,-0.683892 -2.18869,0.00472464 -4.1506,0.126384 -6.2944,-0.21379 -2.01152,-0.314189 -3.98996,-1.4859 -6.62631,-3.13716l0 -0.26458z" />
     <path
   id="_296949720"
   class="fil45"
   d="M2.16507 20.9892c2.78636,1.81426 4.81677,3.11708 6.88026,3.45726 2.12727,0.355529 4.08563,0.226783 6.29559,0.192529 1.06895,0.0188986 2.45799,0.222058 3.94271,0.635464 1.97018,0.767754 3.69113,1.49771 5.392,2.21349l-0.700428 0.00236232c-1.49653,-0.626015 -3.02377,-1.26975 -4.75417,-1.95246 -1.4611,-0.4075 -2.81825,-0.603573 -3.87184,-0.629559 -2.20759,0.0507899 -4.1695,0.185442 -6.32157,-0.177174 -2.06585,-0.353167 -4.09508,-1.65126 -6.86136,-3.47379l-0.00118116 -0.268123z" />
     <path
   id="_296936064"
   class="fil46"
   d="M2.16507 20.9231c2.92692,1.98907 5.0034,3.42537 7.12004,3.80452 2.1379,0.377971 4.09036,0.23387 6.3133,0.153551 1.06777,-0.00708696 2.47217,0.175993 3.98287,0.583493 1.79655,0.667356 3.41592,1.33589 5.0034,2.02333l-0.698066 0.00236232c-1.38314,-0.588218 -2.80762,-1.17289 -4.36911,-1.75993 -1.48354,-0.39687 -2.85368,-0.57995 -3.90846,-0.57995 -2.22413,0.100399 -4.18367,0.248044 -6.34756,-0.141739 -2.11782,-0.385058 -4.19076,-1.81781 -7.09523,-3.80688l-0.00118116 -0.278754z" />
     <path
   id="_296940336"
   class="fil47"
   d="M2.16507 20.8404l0.0815001 0.0578769c3.02731,2.14381 5.12978,3.69703 7.27595,4.1069 2.14381,0.4075 4.0939,0.249225 6.32984,0.118116 1.07013,-0.0342537 2.48989,0.131109 4.02776,0.531522 1.63354,0.576406 3.14897,1.18116 4.62897,1.83316l-0.696885 0.00236232c-1.27683,-0.546877 -2.59028,-1.06304 -3.99468,-1.56386 -1.50834,-0.394508 -2.89621,-0.55987 -3.94508,-0.531522 -2.24184,0.150007 -4.20611,0.309464 -6.37945,-0.109848 -2.16152,-0.41695 -4.28879,-1.98553 -7.32674,-4.1506l-0.00118116 -0.294109z" />
     <path
   id="_296928624"
   class="fil48"
   d="M2.16507 20.7577l0.252768 0.181899c3.0781,2.26074 5.1912,3.90728 7.34682,4.34431 2.14735,0.433486 4.09981,0.261036 6.34401,0.0803189 1.07131,-0.0602392 2.50642,0.088587 4.0691,0.481913 1.47645,0.492544 2.88676,1.03588 4.26045,1.64181l-0.700428 0.00236232c-1.16935,-0.496087 -2.36823,-0.947291 -3.62026,-1.3666 -1.53197,-0.390964 -2.93755,-0.537428 -3.98405,-0.483095 -2.25838,0.194891 -4.22265,0.372066 -6.40661,-0.0755943 -2.17688,-0.446479 -4.3136,-2.11073 -7.42005,-4.401l-0.140558 -0.10158 -0.00118116 -0.304739z" />
     <path
   id="_296924520"
   class="fil49"
   d="M2.16389 20.6727c0.14292,0.0968552 0.285841,0.198435 0.429942,0.309464 3.12653,2.37886 5.24908,4.11162 7.40706,4.57582 2.15562,0.465377 4.10571,0.277573 6.36527,0.0484276 1.06895,-0.0874059 2.52414,0.0437029 4.10926,0.431124 1.33117,0.41695 2.63044,0.896501 3.90019,1.45165l-0.714602 0.00236232c-1.06186,-0.439392 -2.14144,-0.829175 -3.24347,-1.17762 -1.55795,-0.380334 -2.97771,-0.50908 -4.02421,-0.42758 -2.27492,0.240957 -4.23919,0.432305 -6.4326,-0.0437029 -2.18751,-0.474827 -4.33604,-2.22885 -7.49092,-4.63724l-0.304739 -0.222058 -0.00118116 -0.310645z" />
     <path
   id="_296926800"
   class="fil50"
   d="M2.16389 20.5864c0.198435,0.13229 0.399232,0.277573 0.601211,0.438211 3.17968,2.49579 5.30695,4.32187 7.47438,4.81441 2.16389,0.489 4.11044,0.288203 6.38653,0.00708696 1.06541,-0.116935 2.53595,0 4.14824,0.385058 1.18707,0.343718 2.37177,0.759486 3.53639,1.25794l-0.741769 0.00236232c-0.941385,-0.375609 -1.89458,-0.701609 -2.85014,-0.980363 -1.58512,-0.377971 -3.01905,-0.489 -4.06319,-0.380334 -2.29263,0.290565 -4.26163,0.496087 -6.45977,-0.00708696 -2.19814,-0.500812 -4.3573,-2.34815 -7.56297,-4.87111 -0.157094,-0.122841 -0.314189,-0.239776 -0.46774,-0.347261l-0.00118116 -0.318913z" />
     <path
   id="_296925072"
   class="fil51"
   d="M2.16389 20.4979c0.255131,0.166544 0.513805,0.353167 0.779566,0.566957 3.22457,2.61627 5.36247,4.53093 7.53462,5.05182 2.17215,0.516167 4.11516,0.303558 6.40661,-0.0259855 1.06304,-0.144102 2.54894,-0.0460653 4.1884,0.330725 1.04296,0.281116 2.10719,0.633102 3.16197,1.06777l-0.774841 0.00236232c-0.816182,-0.308283 -1.63709,-0.569319 -2.445,-0.786653 -1.60638,-0.369703 -3.05684,-0.46774 -4.09745,-0.329544 -2.31153,0.337812 -4.27698,0.557508 -6.48693,0.0236232 -2.21113,-0.526798 -4.3762,-2.46036 -7.63266,-5.10261 -0.21379,-0.173631 -0.424037,-0.328363 -0.633102,-0.468921l-0.00118116 -0.329544z" />
     <path
   id="_296923992"
   class="fil52"
   d="M2.16389 20.4034c0.310645,0.199616 0.628377,0.434667 0.949653,0.70279 3.28008,2.73321 5.42389,4.74 7.60431,5.28806 2.17924,0.543334 4.12225,0.314189 6.42079,-0.0637827 1.06423,-0.168906 2.57021,-0.0909494 4.23092,0.282297 0.908312,0.219696 1.84734,0.50908 2.78518,0.876421l-0.833899 0.00354348c-0.675624,-0.237413 -1.34889,-0.433486 -2.00443,-0.592943 -1.63236,-0.363797 -3.09937,-0.442935 -4.13761,-0.278754 -2.32807,0.385058 -4.2947,0.618928 -6.51882,0.0602392 -2.21704,-0.553964 -4.39274,-2.58202 -7.70353,-5.34121 -0.266942,-0.225602 -0.531522,-0.421674 -0.791378,-0.596486l-0.00118116 -0.340174z" />
    </g>
    <g
   id="g4293">
     <path
   id="_296939352"
   class="fil53"
   d="M28.8451 7.22162l-0.31537 0.00944928c-2.40957,0.0212609 -4.59117,0.0188986 -6.55072,0.0212609 -10.7745,-0.314189 -14.0511,-0.334268 -19.3238,8.27757 -0.159457,0.251587 -0.328363,0.493725 -0.510261,0.727595l-0.00236232 -0.787834c0.0815001,-0.116935 0.159457,-0.235051 0.235051,-0.35671 5.38727,-8.80201 8.69807,-8.7772 19.6025,-8.45829 1.93592,-0.00236232 4.08918,0.00118116 6.54363,-0.0141739l0.148826 -0.00236232c0.0980363,0.158276 0.158276,0.354348 0.172449,0.583493z" />
     <path
   id="_296929440"
   class="fil54"
   d="M28.8404 7.1413c-0.240957,0.0271667 -0.484276,0.0484276 -0.728776,0.0626015 -2.37768,0.0838624 -4.55101,0.163 -6.52473,0.248044 -10.6033,-0.19371 -13.9153,-0.107486 -19.188,8.34962 -0.0826812,0.125203 -0.166544,0.249225 -0.25395,0.370884l-0.00236232 -0.825631c5.37074,-8.61184 8.72287,-8.69452 19.4372,-8.49136 1.9501,-0.0791378 4.09626,-0.155913 6.51882,-0.239776 0.175993,-0.00944928 0.353167,-0.0236232 0.52916,-0.0425218 0.11221,0.151189 0.185442,0.341355 0.212609,0.568138z" />
     <path
   id="_296924040"
   class="fil55"
   d="M28.8191 7.01727c-0.369703,0.0696885 -0.745312,0.12166 -1.12092,0.154732 -2.34697,0.153551 -4.51676,0.316551 -6.50347,0.479551 -10.4285,-0.0767754 -13.7759,0.118116 -19.0509,8.4075l-0.00118116 -0.84453c5.22073,-8.06142 8.66263,-8.24096 19.0356,-8.15946 1.96545,-0.160638 4.10571,-0.317732 6.49284,-0.464196 0.292928,-0.0271667 0.582312,-0.0673261 0.869334,-0.119297 0.139377,0.138196 0.231507,0.322457 0.278754,0.545696z" />
     <path
   id="_296949672"
   class="fil56"
   d="M28.7743 6.85427c-0.489,0.127565 -0.98745,0.22442 -1.49417,0.288203 -2.31744,0.223239 -4.4766,0.468921 -6.47748,0.708696 -10.0907,0.0437029 -13.5302,0.334268 -18.6588,8.08859l-0.00236232 -0.83508c5.08017,-7.54407 8.60357,-7.81692 18.6352,-7.84999 1.97844,-0.237413 4.1128,-0.476008 6.46331,-0.687435 0.388602,-0.0519711 0.771298,-0.125203 1.14927,-0.220877 0.180718,0.120478 0.310645,0.290565 0.385058,0.507899z" />
     <path
   id="_296942880"
   class="fil57"
   d="M28.688 6.66293c-0.594124,0.198435 -1.2036,0.349624 -1.82726,0.450022 -2.28082,0.288203 -4.43644,0.616566 -6.4515,0.940204 -9.7552,0.157094 -13.2739,0.543334 -18.2655,7.7933l-0.00236232 -0.827994c4.94316,-7.05389 8.53743,-7.42005 18.2359,-7.56179 1.99144,-0.31537 4.12225,-0.637827 6.43378,-0.914218 0.448841,-0.0791378 0.889414,-0.184261 1.32172,-0.316551 0.248044,0.0850436 0.433486,0.232689 0.555145,0.437029z" />
     <path
   id="_296950248"
   class="fil58"
   d="M28.5333 6.46331c-0.679167,0.269305 -1.37369,0.47837 -2.08711,0.620109 -2.25011,0.359073 -4.39982,0.766573 -6.42788,1.17053 -9.42566,0.268123 -13.0176,0.746493 -17.8757,7.51572l-0.00118116 -0.819725c4.81323,-6.58497 8.46774,-7.04208 17.8355,-7.29603 2.00443,-0.393326 4.12934,-0.792559 6.4078,-1.13982 0.445298,-0.095674 0.883508,-0.218515 1.31581,-0.367341 0.357892,0.0200797 0.637827,0.127565 0.832718,0.316551z" />
     <path
   id="_296943744"
   class="fil59"
   d="M28.2734 6.28259c-0.727595,0.326 -1.47645,0.587037 -2.24775,0.770117 -2.21231,0.426399 -4.35494,0.917762 -6.40189,1.39731 -9.0973,0.380334 -12.7471,0.947291 -17.4812,7.26414l-0.00118116 -0.810276c4.69039,-6.15148 8.39215,-6.69364 17.4339,-7.05035 2.0186,-0.470102 4.13761,-0.954378 6.37945,-1.3607 0.377971,-0.0992175 0.75358,-0.214971 1.12092,-0.349624l0.507899 0c0.270486,0 0.500812,0.0472464 0.689798,0.139377z" />
     <path
   id="_296942520"
   class="fil60"
   d="M27.86 6.16211c-0.728776,0.354348 -1.47999,0.644914 -2.25129,0.861066 -2.17924,0.493725 -4.3195,1.07013 -6.37945,1.63 -8.77366,0.481913 -12.4719,1.13037 -17.0867,7.02909l-0.00236232 -0.805551c4.57109,-5.74162 8.31655,-6.36527 17.0347,-6.8212 2.0316,-0.552783 4.14351,-1.11383 6.35346,-1.58866 0.316551,-0.0944928 0.627196,-0.204341 0.937841,-0.324819l1.11738 0.00118116c0.0980363,0 0.190167,0.0059058 0.276392,0.0188986z" />
     <path
   id="_296932488"
   class="fil61"
   d="M27.2482 6.14322c-0.668537,0.337812 -1.35361,0.623653 -2.0564,0.850436 -2.14971,0.55987 -4.28289,1.21778 -6.35464,1.86033 -8.45357,0.576406 -12.1931,1.31109 -16.6945,6.81648l-0.00236232 -0.803189c4.4577,-5.35656 8.23387,-6.0629 16.6343,-6.61214 2.04459,-0.629559 4.14824,-1.27329 6.3263,-1.81544 0.26458,-0.0921305 0.524435,-0.190167 0.783109,-0.298834l1.36424 0.00236232z" />
     <path
   id="_296931528"
   class="fil62"
   d="M26.6186 6.14203c-0.601211,0.318913 -1.21423,0.592943 -1.84379,0.822088 -2.11546,0.627196 -4.24155,1.37015 -6.33102,2.08947 -8.14292,0.67208 -11.9085,1.48472 -16.3012,6.62513l-0.00236232 -0.798464c4.35021,-4.99985 8.14765,-5.78296 16.2351,-6.43024 2.05522,-0.703972 4.15414,-1.42802 6.29559,-2.03396 0.219696,-0.0850436 0.439392,-0.177174 0.655544,-0.27521l1.29219 0.00118116z" />
     <path
   id="_296927880"
   class="fil63"
   d="M26.0068 6.14203c-0.53979,0.298834 -1.08903,0.564595 -1.64772,0.794921 -2.08357,0.69216 -4.20493,1.51779 -6.30503,2.31626 -7.837,0.764211 -11.6226,1.65244 -15.9114,6.45032l-0.00118116 -0.794921c4.24745,-4.66913 8.05079,-5.52429 15.8323,-6.25661 2.07294,-0.784291 4.16359,-1.58866 6.2696,-2.26192 0.18308,-0.0791378 0.364979,-0.163 0.546877,-0.250406l1.2166 0.00236232z" />
     <path
   id="_296935776"
   class="fil64"
   d="M25.415 6.14085c-0.481913,0.281116 -0.974457,0.537428 -1.47645,0.766573 -2.04813,0.761849 -4.16477,1.66898 -6.27905,2.54894 -7.5358,0.845711 -11.325,1.80836 -15.5169,6.28968l-0.00118116 -0.791378c4.14587,-4.36203 7.95275,-5.28687 15.4307,-6.10188 2.08593,-0.861066 4.17186,-1.74694 6.24125,-2.48871l0.44766 -0.22442 1.15399 0.00118116z" />
     <path
   id="_296954136"
   class="fil65"
   d="M24.8457 6.14085c-0.433486,0.265761 -0.87524,0.511442 -1.32408,0.737044 -2.01388,0.826812 -4.12461,1.81899 -6.25306,2.77691 -7.24051,0.933117 -11.0297,1.95836 -15.1259,6.1503l-0.00118116 -0.786653c4.04784,-4.08091 7.84881,-5.06954 15.0303,-5.96722 2.09656,-0.939023 4.18131,-1.90521 6.21645,-2.71076l0.367341 -0.200797 1.09021 0.00118116z" />
     <path
   id="_296952144"
   class="fil66"
   d="M24.2894 6.13967c-0.389783,0.252768 -0.783109,0.487819 -1.1847,0.707515 -1.98081,0.89532 -4.08563,1.97018 -6.22826,3.0096 -6.94995,1.00635 -10.7308,2.09892 -14.7326,6.02274l-0.00236232 -0.784291c3.95571,-3.81751 7.73896,-4.87465 14.6287,-5.84556 2.11428,-1.01816 4.19076,-2.06467 6.18928,-2.93518l0.297652 -0.175993 1.03233 0.00118116z" />
     <path
   id="_296943360"
   class="fil67"
   d="M23.7472 6.13967c-0.348442,0.239776 -0.70279,0.464196 -1.06068,0.677986 -1.94891,0.963827 -4.04666,2.12136 -6.20227,3.23992 -6.66765,1.08076 -10.4285,2.23712 -14.3405,5.91053l-0.00236232 -0.783109c3.86594,-3.57774 7.62557,-4.69393 14.2271,-5.73453 2.12845,-1.09612 4.1943,-2.22413 6.16093,-3.16315l0.23387 -0.148826 0.983907 0.00118116z" />
     <path
   id="_296938080"
   class="fil68"
   d="M23.2193 6.13849c-0.31537,0.225602 -0.629559,0.441754 -0.950834,0.649638 -1.91466,1.03115 -4.00532,2.26901 -6.18101,3.46789 -6.38535,1.15045 -10.1178,2.3635 -13.9436,5.81367l-0.00118116 -0.781928c3.77617,-3.35686 7.50155,-4.52857 13.8267,-5.63532 2.14144,-1.17644 4.20021,-2.38594 6.1314,-3.38639l0.187805 -0.128746 0.930754 0.00118116z" />
     <path
   id="_296937816"
   class="fil69"
   d="M22.7019 6.13849c-0.281116,0.21379 -0.563414,0.420493 -0.849254,0.620109 -1.88159,1.0973 -3.96988,2.4202 -6.15621,3.69821 -6.11251,1.21423 -9.81072,2.48516 -13.5515,5.72745l-0.00236232 -0.783109c3.69113,-3.15606 7.37398,-4.37738 13.4251,-5.54909 2.15207,-1.25557 4.20729,-2.54186 6.1066,-3.60963l0.140558 -0.105123 0.887052 0.00118116z" />
     <path
   id="_296931216"
   class="fil70"
   d="M22.1952 6.13731c-0.251587,0.201978 -0.505537,0.400413 -0.761849,0.591761 -1.84734,1.16581 -3.92618,2.57139 -6.12904,3.92972 -5.84556,1.27683 -9.50598,2.59501 -13.1593,5.65185l-0.00236232 -0.785472c3.6049,-2.96826 7.23815,-4.24391 13.0258,-5.4735 2.16861,-1.33235 4.2132,-2.70486 6.07825,-3.83759l0.0968552 -0.0779566 0.851617 0.00118116z" />
     <path
   id="_296936568"
   class="fil71"
   d="M21.6956 6.13731c-0.225602,0.191348 -0.450022,0.379153 -0.680348,0.563414 -1.81308,1.23313 -3.88838,2.72257 -6.10424,4.16005 -5.58571,1.33235 -9.19179,2.69777 -12.766,5.58216l-0.00236232 -0.784291c3.5175,-2.80526 7.09996,-4.12343 12.6242,-5.40735 2.18042,-1.41031 4.22029,-2.86195 6.05109,-4.06083l0.0649638 -0.0543334 0.812638 0.00118116z" />
     <path
   id="_296950416"
   class="fil72"
   d="M21.203 6.13613l-0.603573 0.532703c-1.78473,1.30046 -3.8494,2.87494 -6.0818,4.39392 -5.33058,1.38196 -8.87996,2.79344 -12.3715,5.52429l-0.00354348 -0.785472c3.43718,-2.65052 6.95467,-4.01358 12.2238,-5.34829 2.19223,-1.48826 4.23092,-3.02495 6.02156,-4.28879l0.0318913 -0.029529 0.783109 0.00118116z" />
     <path
   id="_296936136"
   class="fil73"
   d="M20.7223 6.13613c-0.178355,0.172449 -0.360254,0.337812 -0.540972,0.504356 -1.75048,1.36778 -3.81279,3.02259 -6.05463,4.61834 -5.08135,1.43511 -8.57168,2.8903 -11.9805,5.47822l-0.00236232 -0.786653c3.34977,-2.51351 6.80585,-3.91673 11.8211,-5.30105 2.20877,-1.56504 4.238,-3.17968 5.99557,-4.51085l0.00354348 -0.00354348 0.758305 0.00118116z" />
     <path
   id="_296950680"
   class="fil74"
   d="M20.2427 6.13495l-0.477189 0.473645c-1.71741,1.43865 -3.77381,3.17614 -6.02982,4.85103 -4.84276,1.48118 -8.25867,2.97062 -11.5884,5.43334l-0.00354348 -0.787834c3.26945,-2.38713 6.64639,-3.82932 11.4195,-5.25616 2.21231,-1.63354 4.22737,-3.3226 5.94478,-4.71401l0.734682 0z" />
     <path
   id="_296931936"
   class="fil75"
   d="M19.7726 6.13495l-0.422855 0.445298c-1.68433,1.50125 -3.73483,3.32379 -6.00738,5.08017 -4.60889,1.52252 -7.94921,3.04621 -11.195,5.39672l-0.00236232 -0.79374c3.18441,-2.27728 6.48457,-3.75018 11.0202,-5.216 2.20995,-1.70441 4.20729,-3.45726 5.88454,-4.91363l0.72287 0.00118116z" />
     <path
   id="_296941176"
   class="fil76"
   d="M19.3049 6.13377l-0.373247 0.415768c-1.65126,1.57449 -3.69467,3.47734 -5.98494,5.31286 -4.37384,1.55677 -7.6362,3.11118 -10.7982,5.35893l-0.00354348 -0.797283c3.09818,-2.17452 6.31448,-3.67577 10.6186,-5.17466 2.21349,-1.77292 4.20021,-3.60136 5.8373,-5.11561l0.703972 0z" />
     <path
   id="_296931408"
   class="fil77"
   d="M18.8431 6.13377l-0.330725 0.388602c-1.61347,1.63827 -3.65805,3.62498 -5.95659,5.53846 -4.14942,1.59102 -7.33146,3.17378 -10.406,5.33058l-0.00354348 -0.800827c3.01196,-2.08593 6.13731,-3.61081 10.2159,-5.14159 2.22058,-1.84025 4.18721,-3.74192 5.79241,-5.3164l0.688617 0.00118116z" />
     <path
   id="_296937336"
   class="fil78"
   d="M18.3848 6.13377l-0.287022 0.359073c-1.58748,1.7056 -3.62144,3.77381 -5.93415,5.76997 -3.93208,1.61583 -7.02082,3.22693 -10.0139,5.29987l-0.00354348 -0.806733c2.92573,-2.00443 5.95777,-3.55057 9.81544,-5.10734 2.22176,-1.90876 4.17776,-3.88129 5.74398,-5.51602l0.679167 0.00118116z" />
     <path
   id="_296931864"
   class="fil79"
   d="M17.93 6.13259l-0.251587 0.329544c-1.55204,1.77174 -3.58128,3.925 -5.90935,6.0003 -3.71829,1.63945 -6.71135,3.26827 -9.61819,5.27152l-0.00354348 -0.811457c2.83479,-1.9312 5.77115,-3.49624 9.41503,-5.07545 2.22767,-1.98081 4.1695,-4.01949 5.70028,-5.71445l0.667356 0z" />
     <path
   id="_296954256"
   class="fil80"
   d="M17.48 6.13259l-0.219696 0.303558c-1.51779,1.84025 -3.53758,4.07264 -5.88336,6.2259 -3.51277,1.66071 -6.4078,3.30843 -9.22604,5.24081l-0.00236232 -0.815001c2.74384,-1.86269 5.5798,-3.44426 9.01225,-5.04001 2.23239,-2.04695 4.16359,-4.15887 5.65894,-5.91643l0.660269 0.00118116z" />
     <path
   id="_296949600"
   class="fil81"
   d="M17.0323 6.1314l-0.186623 0.271667c-1.48826,1.90757 -3.50332,4.22501 -5.85974,6.46095 -3.30843,1.67489 -6.10542,3.33323 -8.8339,5.20774l-0.00354348 -0.819725c2.65407,-1.80599 5.379,-3.39584 8.61066,-5.00458 2.23712,-2.11546 4.16005,-4.29824 5.62232,-6.11605l0.650819 0z" />
     <path
   id="_296927136"
   class="fil82"
   d="M16.5847 6.1314l-0.158276 0.240957c-1.45047,1.97844 -3.46434,4.37738 -5.83493,6.69009 -3.11118,1.68906 -5.80304,3.35568 -8.43939,5.17466l-0.00236232 -0.825631c2.55721,-1.75166 5.17703,-3.34741 8.2067,-4.96442 2.2442,-2.18397 4.15768,-4.43526 5.58571,-6.31685l0.642551 0.00118116z" />
     <path
   id="_296934480"
   class="fil83"
   d="M16.1406 6.1314l-0.133471 0.211428c-1.41857,2.04223 -3.42064,4.52975 -5.80895,6.9216 -2.91983,1.6926 -5.50303,3.3604 -8.04488,5.13214l-0.00354348 -0.829175c2.46036,-1.70205 4.9715,-3.30016 7.80747,-4.92071 2.24893,-2.25129 4.15178,-4.57936 5.54909,-6.51646l0.634283 0.00118116z" />
     <path
   id="_296936928"
   class="fil84"
   d="M15.7 6.13022l-0.109848 0.184261c-1.38432,2.11428 -3.38166,4.6774 -5.78296,7.15311 -2.73557,1.69142 -5.2101,3.36158 -7.65392,5.08844l-0.00236232 -0.836262c2.36232,-1.65481 4.75417,-3.2541 7.40588,-4.87111 2.25838,-2.32216 4.14942,-4.71756 5.51602,-6.71844l0.627196 0z" />
     <path
   id="_296937264"
   class="fil85"
   d="M15.2606 6.13022l-0.088587 0.154732c-1.35243,2.17806 -3.34623,4.8274 -5.75816,7.37871 -2.55485,1.6926 -4.91245,3.35804 -7.25941,5.04237l-0.00354348 -0.843349c2.25838,-1.61228 4.53684,-3.20213 7.00546,-4.81441 2.26665,-2.39303 4.14587,-4.85811 5.48177,-6.91924l0.622472 0.00118116z" />
     <path
   id="_296941536"
   class="fil86"
   d="M14.8236 6.12904l-0.066145 0.126384c-1.32054,2.24539 -3.31079,4.97623 -5.73572,7.61022 -2.37886,1.68315 -4.62188,3.34032 -6.86727,4.98332l-0.00236232 -0.850436c2.15326,-1.57449 4.31124,-3.15134 6.60505,-4.75181 2.27019,-2.45799 4.14233,-4.99631 5.44751,-7.11767l0.618928 0z" />
     <path
   id="_296924712"
   class="fil87"
   d="M14.3877 6.12904l-0.0484276 0.0980363c-1.28746,2.31271 -3.26827,5.12742 -5.71091,7.84172 -2.20877,1.6678 -4.3325,3.30843 -6.47276,4.91363l-0.00354348 -0.857523c2.04695,-1.53315 4.08091,-3.09228 6.20109,-4.67621 2.28082,-2.53359 4.14824,-5.14041 5.42153,-7.32083l0.613022 0.00118116z" />
     <path
   id="_296945808"
   class="fil88"
   d="M13.9519 6.12904l-0.0318913 0.0673261c-1.25321,2.38004 -3.22575,5.27979 -5.68374,8.06851 -2.04577,1.65244 -4.04784,3.27654 -6.08061,4.84512l-0.00354348 -0.868153c1.93828,-1.49417 3.85176,-3.03322 5.80186,-4.59471 2.28673,-2.59619 4.14351,-5.27624 5.38491,-7.51927l0.613022 0.00118116z" />
     <path
   id="_296946336"
   class="fil89"
   d="M13.5219 6.12786l-0.0177174 0.0377971c-1.22132,2.45091 -3.18913,5.42861 -5.66012,8.30238 -1.88041,1.62646 -3.76082,3.22575 -5.68847,4.75653l-0.00236232 -0.878783c1.82253,-1.45401 3.60608,-2.96826 5.40263,-4.5014 2.29381,-2.66234 4.14115,-5.41208 5.3542,-7.71652l0.611841 0z" />
     <path
   id="_296932032"
   class="fil90"
   d="M13.0896 6.12786l-0.00472464 0.00944928c-1.18589,2.51469 -3.15016,5.57862 -5.63295,8.53034 -1.72922,1.59457 -3.48324,3.16551 -5.29514,4.6585l-0.00354348 -0.892957c1.7056,-1.41149 3.36158,-2.88676 4.99985,-4.38565 2.30326,-2.73793 4.14587,-5.55618 5.32467,-7.92086l0.611841 0.00118116z" />
     <path
   id="_296931960"
   class="fil91"
   d="M12.6585 6.12668c-1.15517,2.57847 -3.10763,5.718 -5.60106,8.74295 -1.57449,1.55441 -3.20567,3.0911 -4.90063,4.54392l-0.00354348 -0.908312c1.58512,-1.3666 3.1159,-2.80171 4.59944,-4.25926 2.31153,-2.80408 4.14705,-5.69437 5.2975,-8.1193l0.608298 0z" />
     <path
   id="_296949648"
   class="fil92"
   d="M12.2297 6.12668c-1.12328,2.64462 -3.06629,5.85029 -5.56681,8.94257 -1.42566,1.51543 -2.92928,3.00487 -4.50613,4.414l-0.00354348 -0.923668c1.46228,-1.32054 2.86195,-2.70958 4.20021,-4.11516 2.31744,-2.8714 4.14824,-5.83257 5.26916,-8.31891l0.607116 0.00118116z" />
     <path
   id="_296932656"
   class="fil93"
   d="M11.8022 6.12668c-1.09257,2.70604 -3.02495,5.98258 -5.52783,9.141 -1.28746,1.46464 -2.66588,2.90447 -4.11753,4.26517l-0.00354348 -0.941385c1.33471,-1.26502 2.60328,-2.59501 3.79861,-3.94626 2.32571,-2.93873 4.14942,-5.97195 5.24435,-8.51971l0.605935 0.00118116z" />
     <path
   id="_296926464"
   class="fil94"
   d="M11.3769 6.1255c-1.06423,2.7651 -2.98597,6.11487 -5.49594,9.34416 -1.14809,1.40204 -2.39657,2.784 -3.72302,4.09036l-0.00472464 -0.959102c1.20478,-1.20715 2.34106,-2.47335 3.3982,-3.75609 2.33634,-3.00723 4.14942,-6.11014 5.21482,-8.71933l0.61066 0z" />
    </g>
    <g
   id="g4337">
     <path
   id="_296941488"
   class="fil95"
   d="M28.8605 14.559c-1.13391,0.571682 -2.19578,1.10675 -3.19031,1.60165 -8.54688,4.53684 -11.1915,5.86564 -17.317,5.52547 -1.71268,-0.0897682 -3.84704,-0.563414 -6.18928,-1.01934l0.00118116 0.262218c2.29145,0.446479 4.38092,0.907131 6.0629,0.995718 6.25306,0.34608 8.92485,-0.999262 17.5721,-5.58925l3.06039 -1.53551 0 -0.240957z" />
     <path
   id="_296951304"
   class="fil96"
   d="M28.8605 14.5365c-1.33117,0.63074 -2.58792,1.21541 -3.76672,1.75166 -8.40632,4.36203 -11.1254,5.62941 -17.2048,5.30814 -1.6111,-0.0838624 -3.57655,-0.476008 -5.7239,-0.870515l0 0.257493c2.1001,0.388602 4.02539,0.77366 5.60697,0.850436 6.20109,0.330725 8.94375,-0.953197 17.4493,-5.36837 1.12919,-0.518529 2.34106,-1.0784 3.63916,-1.69497l0 -0.23387z" />
     <path
   id="_296937984"
   class="fil97"
   d="M28.8605 14.5472c-1.52842,0.680348 -2.97889,1.29928 -4.3384,1.87096 -8.27049,4.18721 -11.0592,5.38845 -17.0961,5.08608 -1.50598,-0.0685073 -3.30489,-0.394508 -5.26089,-0.73232l0.00118116 0.255131c1.91348,0.333087 3.66987,0.650819 5.14868,0.719327 6.15385,0.309464 8.96383,-0.909494 17.3264,-5.15104 1.31818,-0.550421 2.71667,-1.15163 4.21911,-1.82489l0 -0.223239z" />
     <path
   id="_296932104"
   class="fil98"
   d="M28.8605 14.585c-1.71623,0.720508 -3.35804,1.36778 -4.91127,1.95718 -8.13347,4.01595 -10.9978,5.15695 -16.9875,4.87111 -1.39613,-0.0578769 -3.02968,-0.323638 -4.79669,-0.61066l0.00118116 0.257493c1.72686,0.282297 3.3226,0.542153 4.69039,0.597667 6.09951,0.29529 8.98391,-0.861066 17.2024,-4.93135 1.50834,-0.574044 3.10291,-1.2036 4.80142,-1.92175l0 -0.219696z" />
     <path
   id="_296925888"
   class="fil99"
   d="M28.8605 14.6476c-1.88868,0.759486 -3.73719,1.41975 -5.48531,2.02097 -7.99291,3.84586 -10.9328,4.92308 -16.8788,4.65495 -1.28038,-0.0484276 -2.75092,-0.257493 -4.33132,-0.494906l0.00118116 0.252768c1.5426,0.23387 2.98007,0.437029 4.23092,0.485457 6.05345,0.278754 9.00753,-0.816182 17.0796,-4.70811 1.70678,-0.589399 3.4986,-1.23786 5.38373,-1.99616l0 -0.214971z" />
     <path
   id="_296936760"
   class="fil100"
   d="M28.8605 14.7633l-0.501993 0.164181c-1.88986,0.70279 -3.76082,1.31227 -5.55618,1.86741 -7.85354,3.67105 -10.8679,4.68803 -16.7701,4.43526 -1.16108,-0.036616 -2.46981,-0.200797 -3.86712,-0.390964l0.00118116 0.255131c1.36542,0.186623 2.63989,0.349624 3.77499,0.385058 6.00384,0.261036 9.02643,-0.771298 16.9579,-4.48959 1.77174,-0.555145 3.61789,-1.1599 5.52429,-1.88041l0.437029 -0.138196 0 -0.207884z" />
     <path
   id="_296930592"
   class="fil101"
   d="M28.8605 14.9192c-0.340174,0.0909494 -0.68153,0.188986 -1.0217,0.292928 -1.87686,0.644914 -3.77026,1.20242 -5.60933,1.71268 -7.71652,3.49624 -10.8029,4.44825 -16.6626,4.21674 -1.03824,-0.0307102 -2.18397,-0.153551 -3.40174,-0.303558l0.00118116 0.255131c1.18825,0.146464 2.30563,0.26458 3.31906,0.300015 5.94832,0.239776 9.04651,-0.728776 16.8351,-4.2758 1.81308,-0.506718 3.6805,-1.0595 5.57272,-1.72213 0.322457,-0.095674 0.647276,-0.18308 0.968552,-0.263399l-0.00118116 -0.212609z" />
     <path
   id="_296923272"
   class="fil102"
   d="M28.8617 15.1177c-0.511442,0.11221 -1.02525,0.238594 -1.5426,0.379153 -1.86387,0.588218 -3.78089,1.09139 -5.66012,1.55441 -7.58187,3.32615 -10.7462,4.21674 -16.5599,3.99941 -0.907131,-0.0248044 -1.8934,-0.114573 -2.934,-0.225602l0.00118116 0.257493c1.01344,0.109848 1.97608,0.194891 2.86195,0.220877 5.89753,0.223239 9.06659,-0.683892 16.7111,-4.05611 1.85442,-0.457109 3.74428,-0.957921 5.62114,-1.56504 0.501993,-0.13229 1.00162,-0.246863 1.50125,-0.348442l0 -0.216152z" />
     <path
   id="_296948088"
   class="fil103"
   d="M28.8617 15.3527c-0.682711,0.119297 -1.37015,0.259855 -2.06113,0.428761 -1.85324,0.533885 -3.79271,0.981544 -5.71564,1.39377 -7.44249,3.15488 -10.6812,3.98405 -16.45,3.78562 -0.772479,-0.0212609 -1.60283,-0.0803189 -2.46981,-0.159457l0.00118116 0.256312c0.84453,0.0791378 1.6489,0.138196 2.40721,0.155913 5.84556,0.205522 9.08312,-0.636646 16.5859,-3.83287 1.89458,-0.414587 3.80216,-0.859885 5.67193,-1.41267 0.677986,-0.153551 1.35597,-0.283479 2.03041,-0.390964l0 -0.22442z" />
     <path
   id="_296951352"
   class="fil104"
   d="M28.8617 15.6279c-0.853979,0.11221 -1.71386,0.257493 -2.57847,0.438211 -1.84615,0.476008 -3.80688,0.869334 -5.77351,1.23904 -7.30193,2.98007 -10.6127,3.74546 -16.339,3.56356 -0.639008,-0.0118116 -1.30873,-0.0507899 -2.00561,-0.102761l0.00118116 0.257493c0.677986,0.0507899 1.32762,0.088587 1.94655,0.100399 5.7995,0.188986 9.10439,-0.59058 16.4666,-3.61553 1.93474,-0.367341 3.8683,-0.755943 5.72272,-1.25439 0.857523,-0.165362 1.70914,-0.296471 2.55957,-0.39687l0 -0.229145z" />
     <path
   id="_296931336"
   class="fil105"
   d="M28.8617 15.9362c-1.02643,0.0933117 -2.0564,0.227964 -3.09818,0.415768 -1.83198,0.420493 -3.81633,0.758305 -5.82666,1.07958 -7.16374,2.80998 -10.5501,3.51159 -16.2315,3.34505 -0.496087,-0.00826812 -1.00871,-0.0318913 -1.54023,-0.0614203l0 0.261036c0.512624,0.029529 1.00989,0.0519711 1.49062,0.0602392 5.74635,0.168906 9.13155,-0.548058 16.3437,-3.39702 1.97844,-0.322457 3.93208,-0.657906 5.77115,-1.09848 1.03588,-0.167725 2.06467,-0.287022 3.09228,-0.36616l-0.00118116 -0.238594z" />
     <path
   id="_296954856"
   class="fil106"
   d="M28.8628 16.2764c-1.19533,0.0649638 -2.39776,0.179536 -3.61908,0.359073 -1.82017,0.362616 -3.83168,0.647276 -5.87982,0.923668 -7.02554,2.63517 -10.4887,3.27536 -16.124,3.12889 -0.350805,-0.00472464 -0.708696,-0.0177174 -1.07604,-0.0307102l0.00118116 0.258674c0.351986,0.0165362 0.696885,0.0271667 1.03352,0.0307102 5.69674,0.15237 9.14927,-0.49845 16.2197,-3.17614 2.01742,-0.272848 3.99468,-0.55987 5.82076,-0.943747 1.21778,-0.158276 2.42256,-0.25395 3.6238,-0.303558l0 -0.246863z" />
     <path
   id="_296930112"
   class="fil107"
   d="M28.8628 16.6473c-1.36897,0.0283479 -2.73793,0.111029 -4.13879,0.274029 -1.81072,0.308283 -3.84113,0.536247 -5.93415,0.764211 -6.88853,2.4639 -10.4226,3.04149 -16.013,2.91038l-0.613022 -0.0118116 0.00118116 0.26458 0.576406 0.0106304c5.64595,0.134652 9.17053,-0.454747 16.0957,-2.95763 2.05994,-0.227964 4.05847,-0.460653 5.87155,-0.787834 1.40086,-0.137015 2.77455,-0.199616 4.15532,-0.209065l-0.00118116 -0.257493z" />
     <path
   id="_296938248"
   class="fil108"
   d="M28.864 17.0453c-1.54141,-0.0177174 -3.08047,0.0259855 -4.65495,0.159457 -1.80245,0.252768 -3.85885,0.425218 -5.99085,0.605935 -6.75151,2.29145 -10.3576,2.80526 -15.9067,2.69659l-0.147645 -0.00236232 0.00118116 0.263399 0.119297 0.00118116c5.59279,0.119297 9.19061,-0.409863 15.9752,-2.73675 2.09892,-0.184261 4.11989,-0.359073 5.9188,-0.631921 1.57921,-0.103942 3.12535,-0.125203 4.68566,-0.088587l0 -0.266942z" />
     <path
   id="_296932464"
   class="fil109"
   d="M28.864 17.4717c-1.71741,-0.066145 -3.42064,-0.073232 -5.17585,0.0177174 -1.793,0.196073 -3.86594,0.31537 -6.04518,0.451203 -6.48221,2.07412 -10.1509,2.55131 -15.4791,2.47807l0 0.268123c5.35538,0.073232 9.00871,-0.412225 15.5145,-2.52414 2.14026,-0.138196 4.18013,-0.258674 5.96959,-0.477189 1.76347,-0.0602392 3.47616,-0.0271667 5.21719,0.0602392l-0.00118116 -0.274029z" />
     <path
   id="_296936616"
   class="fil110"
   d="M28.8652 17.9217c-1.8934,-0.119297 -3.762,-0.187805 -5.69556,-0.147645 -1.77883,0.139377 -3.87893,0.205522 -6.10069,0.294109 -6.15739,1.84852 -9.85797,2.29145 -14.9062,2.2631l0.00118116 0.268123c5.07308,0.0342537 8.75476,-0.421674 14.9334,-2.30917 2.18278,-0.0874059 4.24627,-0.158276 6.02038,-0.317732 1.94419,-0.00472464 3.82342,0.0909494 5.74753,0.235051l0 -0.285841z" />
     <path
   id="_296929104"
   class="fil111"
   d="M28.8652 18.3966c-2.07766,-0.179536 -4.10335,-0.314189 -6.21527,-0.336631 -1.7682,0.0838624 -3.88838,0.0909494 -6.15148,0.134652 -5.8373,1.63236 -9.55204,2.03632 -14.3357,2.04577l0.00118116 0.270486c4.80378,-0.00472464 8.49963,-0.421674 14.3535,-2.08947 2.22413,-0.0448841 4.31005,-0.0602392 6.07235,-0.161819 2.12255,0.0578769 4.16359,0.223239 6.27669,0.42758l-0.00118116 -0.290565z" />
     <path
   id="_296930448"
   class="fil112"
   d="M28.8664 18.8891c-2.2631,-0.239776 -4.44116,-0.445298 -6.73616,-0.546877 -1.7552,0.0283479 -3.90019,-0.0177174 -6.20464,-0.0212609 -5.51956,1.42684 -9.22368,1.79064 -13.7629,1.82135l0.00118116 0.274029c4.55337,-0.029529 8.23741,-0.405138 13.7747,-1.86387 2.26428,0.00118116 4.37029,0.0401595 6.12077,-0.00708696 2.30326,0.138196 4.5014,0.377971 6.80703,0.640189l0 -0.296471z" />
     <path
   id="_296934456"
   class="fil113"
   d="M28.8664 19.4006c-2.45091,-0.300015 -4.78488,-0.59058 -7.25233,-0.774841 -1.7493,-0.0259855 -3.91555,-0.126384 -6.26251,-0.177174 -5.20774,1.22368 -8.8776,1.54496 -13.19,1.59575l0.00118116 0.276392c4.32187,-0.0496087 7.9752,-0.383877 13.1959,-1.63827 2.30799,0.0484276 4.43171,0.139377 6.17156,0.148826 2.48162,0.22442 4.83331,0.54924 7.33737,0.869334l-0.00118116 -0.300015z" />
     <path
   id="_296933184"
   class="fil114"
   d="M28.8676 19.9238c-2.65171,-0.354348 -5.12742,-0.73232 -7.77204,-1.01344 -1.73749,-0.0838624 -3.92854,-0.237413 -6.31803,-0.33545 -4.89827,1.03942 -8.51735,1.31227 -12.616,1.37133l0.00118116 0.278754c4.10453,-0.0602392 7.70471,-0.344899 12.6148,-1.41149 2.34933,0.0944928 4.4955,0.239776 6.21999,0.302377 2.65997,0.326 5.16049,0.734682 7.87007,1.11265l0 -0.304739z" />
     <path
   id="_296925168"
   class="fil115"
   d="M28.8687 20.4601c-2.85486,-0.4075 -5.47586,-0.877602 -8.29293,-1.26148 -1.72922,-0.14292 -3.93917,-0.350805 -6.37,-0.496087 -4.59708,0.859885 -8.14883,1.08312 -12.0443,1.14573l0.00118116 0.277573c3.89547,-0.0614203 7.4295,-0.296471 12.0348,-1.18116 2.39185,0.140558 4.56164,0.338993 6.27078,0.457109 2.83479,0.435848 5.4794,0.937841 8.40041,1.3666l0 -0.308283z" />
     <path
   id="_296926176"
   class="fil116"
   d="M28.8687 21.0093c-3.06511,-0.461834 -5.81958,-1.02407 -8.81264,-1.52724 -1.71505,-0.196073 -3.95334,-0.461834 -6.42315,-0.653182 -4.30179,0.693341 -7.76731,0.864609 -11.4726,0.920124l0.00118116 0.283479c3.70412,-0.0566957 7.14956,-0.239776 11.4549,-0.959102 2.43083,0.185442 4.62306,0.440573 6.32157,0.615385 3.00842,0.553964 5.78887,1.15045 8.93194,1.63118l-0.00118116 -0.310645z" />
     <path
   id="_296952504"
   class="fil117"
   d="M28.8699 21.5668c-3.28953,-0.506718 -6.17038,-1.16817 -9.33235,-1.80009 -1.70323,-0.25395 -3.96516,-0.571682 -6.4763,-0.810276 -4.01595,0.535066 -7.37635,0.657906 -10.9009,0.698066l0.00118116 0.28466c3.5175,-0.0460653 6.86136,-0.174812 10.8773,-0.734682 2.47099,0.232689 4.68094,0.538609 6.37,0.771298 3.17732,0.682711 6.09006,1.37723 9.4611,1.90167l0 -0.310645z" />
     <path
   id="_296929224"
   class="fil118"
   d="M28.8699 22.1302c-3.52222,-0.54924 -6.52237,-1.31109 -9.8497,-2.0812 -1.69497,-0.307102 -3.97815,-0.677986 -6.53536,-0.963827 -3.73129,0.392145 -6.9783,0.454747 -10.3245,0.47837l0.00118116 0.285841c3.33678,-0.0259855 6.56371,-0.100399 10.2974,-0.512624 2.51233,0.276392 4.74708,0.637827 6.41724,0.924849 3.34859,0.817363 6.38063,1.61583 9.99498,2.17924l-0.00118116 -0.310645z" />
     <path
   id="_296924640"
   class="fil119"
   d="M28.8711 22.6972l-0.124022 -0.0177174c-3.70884,-0.585856 -6.79758,-1.43983 -10.2454,-2.3446 -1.68433,-0.363797 -3.98878,-0.791378 -6.58969,-1.12446 -3.46198,0.259855 -6.57316,0.271667 -9.75166,0.271667l0 0.285841c3.16551,-0.00354348 6.25661,-0.0248044 9.71859,-0.301196 2.55249,0.324819 4.8085,0.735863 6.46567,1.07958 3.44545,0.94611 6.533,1.82726 10.2879,2.4261l0.238594 0.0354348 0 -0.310645z" />
     <path
   id="_296928600"
   class="fil120"
   d="M28.8723 23.263c-0.21379,-0.0283479 -0.426399,-0.0602392 -0.635464,-0.0968552 -3.72656,-0.61066 -6.80467,-1.53315 -10.2548,-2.54776 -1.6737,-0.421674 -4.00059,-0.903588 -6.64285,-1.2792 -3.20094,0.138196 -6.17038,0.0933117 -9.17998,0.066145l0.00118116 0.287022c2.99424,0.0236232 5.94242,0.0566957 9.13628,-0.0944928 2.59383,0.369703 4.87347,0.837443 6.51882,1.23668 3.45371,1.05123 6.53536,1.99498 10.3139,2.62336 0.242138,0.0425218 0.492544,0.0791378 0.74295,0.113391l0 -0.308283z" />
     <path
   id="_296939544"
   class="fil121"
   d="M28.8723 23.8228c-0.389783,-0.0448841 -0.771298,-0.10158 -1.14927,-0.165362 -3.7431,-0.644914 -6.80585,-1.63118 -10.2596,-2.75329 -1.66189,-0.474827 -4.01122,-1.01462 -6.69836,-1.43747 -2.94936,0.0271667 -5.76052,-0.0696885 -8.60594,-0.128746l0.00118116 0.289384c2.82534,0.0531522 5.61996,0.141739 8.55633,0.0980363 2.63399,0.418131 4.93607,0.939023 6.5708,1.39613 3.45608,1.15636 6.53182,2.16743 10.3375,2.82415 0.4075,0.0720508 0.823269,0.131109 1.24849,0.18308l-0.00118116 -0.305921z" />
     <path
   id="_296926320"
   class="fil122"
   d="M28.8735 24.3756c-0.568138,-0.0566957 -1.12092,-0.133471 -1.66071,-0.230326 -3.762,-0.675624 -6.80939,-1.72686 -10.2678,-2.95408 -1.65126,-0.532703 -4.02539,-1.12801 -6.74915,-1.60047 -2.70486,-0.0708696 -5.35774,-0.214971 -8.03662,-0.307102l0.00118116 0.289384c2.65525,0.088587 5.28806,0.226783 7.97638,0.283479 2.67533,0.463015 4.99749,1.03942 6.6204,1.55086 3.46671,1.2603 6.533,2.3387 10.3623,3.03086 0.568138,0.10158 1.15281,0.179536 1.75402,0.239776l0 -0.302377z" />
     <path
   id="_296924736"
   class="fil123"
   d="M28.8746 24.9213c-0.75358,-0.0614203 -1.47409,-0.155913 -2.16861,-0.285841 -3.78916,-0.706334 -6.81766,-1.82489 -10.2796,-3.16197 -1.64181,-0.589399 -4.03957,-1.23431 -6.80585,-1.75402 -2.46863,-0.158276 -4.95024,-0.351986 -7.46139,-0.47837l0.00118116 0.291747c2.48871,0.12166 4.94552,0.307102 7.39643,0.454747 2.71785,0.507899 5.06245,1.13628 6.66765,1.7056 3.48088,1.36778 6.53418,2.50878 10.3883,3.23047 0.726414,0.133471 1.47645,0.231507 2.26192,0.296471l0 -0.298834z" />
     <path
   id="_296925504"
   class="fil124"
   d="M28.8746 25.4587c-0.941385,-0.0626015 -1.82962,-0.170087 -2.68123,-0.33545 -3.8057,-0.734682 -6.82593,-1.92175 -10.2867,-3.36513 -1.63236,-0.644914 -4.04784,-1.34652 -6.86136,-1.91112 -2.23948,-0.23387 -4.54392,-0.472464 -6.88617,-0.63074l0.00118116 0.291747c2.31626,0.155913 4.5959,0.385058 6.8153,0.61066 2.76155,0.553964 5.12506,1.23668 6.71844,1.86033 3.49033,1.47409 6.53536,2.68242 10.4143,3.436 0.878783,0.167725 1.79536,0.277573 2.76746,0.342537l-0.00118116 -0.298834z" />
     <path
   id="_296933448"
   class="fil125"
   d="M28.8758 25.9891c-1.13391,-0.0566957 -2.18987,-0.173631 -3.19386,-0.372066 -3.82342,-0.770117 -6.82829,-2.02097 -10.295,-3.57301 -1.62055,-0.701609 -4.06083,-1.45873 -6.91215,-2.07057 -2.02333,-0.297652 -4.14587,-0.572863 -6.31567,-0.767754l0.00118116 0.296471c2.14263,0.190167 4.23919,0.45829 6.23771,0.747675 2.79817,0.60003 5.18766,1.33707 6.76569,2.01624 3.49978,1.57921 6.53772,2.85014 10.4379,3.63443 1.02643,0.205522 2.10483,0.327181 3.26473,0.385058l0.00944928 -0.133471 0 -0.163z" />
     <path
   id="_296924352"
   class="fil126"
   d="M28.8309 26.51c-1.31581,-0.0460653 -2.52414,-0.172449 -3.66042,-0.409863 -3.8435,-0.79374 -6.83183,-2.11073 -10.3044,-3.77381 -1.60756,-0.758305 -4.07146,-1.56858 -6.9653,-2.22413 -1.8119,-0.349624 -3.74782,-0.660269 -5.74162,-0.88587l0.00118116 0.29529c1.96309,0.222058 3.87066,0.527979 5.65658,0.869334 2.83833,0.643732 5.25144,1.43511 6.81766,2.17215 3.50568,1.68552 6.53654,3.02259 10.4627,3.83759 1.13273,0.235051 2.33161,0.363797 3.63679,0.413406 0.0401595,-0.0909494 0.073232,-0.188986 0.0968552,-0.294109z" />
    </g>
   </g>
   <path
   id="_296941584"
   class="fil127"
   d="M28.9869 14.0062c-8.43939,0.883508 -18.458,0.770117 -27.0368,0.453566l-0.0259855 -7.4543c0,-0.76303 0.577587,-1.16581 1.3418,-1.16581l24.4299 0.0259855c0.82445,0 1.28274,0.419312 1.28274,1.18707l0.00826812 6.95349z" />
   <path
   id="_296932368"
   class="fil128"
   d="M1.92411 7.00546l0.0744131 19.4384c0.0507899,0.635464 0.852798,1.09848 1.42684,1.09612l24.3425 -0.0791378c0.829175,-0.0236232 1.20715,-0.578769 1.23549,-1.30754l-0.0248044 -19.1005c0,-0.767754 -0.45829,-1.18707 -1.28274,-1.18707l-24.4299 -0.0259855c-0.759486,-0.00118116 -1.3418,0.402776 -1.3418,1.16581zm0.995718 0l0.0744131 19.3604c0.00118116,0.0153551 0.0283479,-0.00118116 0.0685073,0.029529l0.00354348 0.00354348c0.116935,0.0897682 0.258674,0.145283 0.359073,0.145283l24.3154 -0.0791378c0.102761,-0.00236232 0.165362,-0.0200797 0.187805,-0.0437029 0.0472464,-0.0496087 0.0744131,-0.161819 0.0791378,-0.305921l-0.0248044 -19.0627 -0.00354348 0c0,-0.0921305 -0.00472464,-0.144102 -0.0106304,-0.150007l0.00118116 -0.00118116c-0.0283479,-0.0236232 -0.12166,-0.036616 -0.274029,-0.036616l0 -0.00354348 -24.4299 -0.0259855 0 0.00354348c-0.157094,0 -0.274029,0.0236232 -0.324819,0.0685073l-0.00472464 0.00354348c-0.00708696,0.0059058 -0.0129928,0.0377971 -0.0129928,0.0944928l-0.00354348 0z" />
   <path
   id="_296931624"
   class="fil129"
   d="M1.92411 7.00546l0.0744131 20.0502c0.0507899,0.635464 0.852798,1.09848 1.42684,1.09612l24.3425 -0.0791378c0.829175,-0.0236232 1.20715,-0.578769 1.23549,-1.30754l-0.0248044 -19.7124c0,-0.767754 -0.45829,-1.18707 -1.28274,-1.18707l-24.4299 -0.0259855c-0.759486,-0.00118116 -1.3418,0.402776 -1.3418,1.16581zm0.49845 0l0.0744131 20.0112c0.0106304,0.137015 0.118116,0.276392 0.262218,0.386239l0.00236232 0.00236232c0.201978,0.154732 0.459471,0.248044 0.663812,0.248044l24.3284 -0.0791378c0.246863,-0.00708696 0.426399,-0.0815001 0.537428,-0.199616 0.131109,-0.139377 0.201978,-0.360254 0.21379,-0.617747l-0.0248044 -19.7041 -0.00236232 0c0,-0.238594 -0.0602392,-0.412225 -0.170087,-0.514986l0.00118116 -0.00118116c-0.120478,-0.111029 -0.328363,-0.170087 -0.613022,-0.170087l0 -0.00236232 -24.4299 -0.0259855 0 0.00236232c-0.276392,0 -0.50908,0.066145 -0.653182,0.192529l-0.00236232 0.00118116c-0.114573,0.0992175 -0.185442,0.259855 -0.185442,0.471283l-0.00236232 0z" />
   <path
   id="_296924472"
   class="fil130"
   d="M1.99852 27.0025l0 0.0531522c0.0330725,0.419312 0.394508,0.76303 0.802008,0.948472l25.3902 0c0.463015,-0.147645 0.713421,-0.523254 0.789015,-1.00162l-26.9812 0z" />
   <path
   id="_296923080"
   class="fil131"
   d="M2.1946 5.87745l26.0682 0c0.317732,0.21379 0.487819,0.59058 0.487819,1.10911l0 0.00708696 -26.6836 0 0 -1.01225c0.0401595,-0.0377971 0.0826812,-0.0720508 0.127565,-0.103942z" />
  </g>
  <g
   id="_295863456">
   <path
   id="_295889160"
   class="fil132"
   d="M13.301 9.52488c1.57212,-0.728776 5.77351,4.88646 9.37841,12.5392 1.51779,3.22221 2.68832,6.29322 3.41828,8.82445l-5.82548 0c-1.09375,-1.80363 -2.2194,-3.90255 -3.29426,-6.18219 -3.6049,-7.65274 -5.25262,-14.4515 -3.67695,-15.1815z" />
   <g
   id="g4378">
    <path
   id="_295872432"
   class="fil133"
   d="M13.4404 9.71032c1.40204,-0.650819 5.17821,4.44234 8.43349,11.3722 1.67843,3.57419 2.99542,7.12004 3.68404,9.80599l-4.63842 0c-1.36306,-2.06821 -2.81707,-4.66322 -4.12343,-7.44604 -3.25528,-6.93105 -4.75771,-13.0802 -3.35568,-13.7322z" />
    <path
   id="_295868496"
   class="fil134"
   d="M13.5798 9.89576c1.22959,-0.571682 4.5829,3.99823 7.48738,10.2064 1.83316,3.91909 3.36158,8.09449 3.9309,10.7864l-3.34505 0c-1.61583,-2.20523 -3.50096,-5.41798 -5.04119,-8.70988 -2.90447,-6.20818 -4.26281,-11.7088 -3.03204,-12.2829z" />
    <path
   id="_295868736"
   class="fil135"
   d="M13.718 10.0812c1.05832,-0.493725 3.9876,3.55411 6.54363,9.0406 2.01388,4.32659 3.92263,9.52015 4.12107,11.7667l-1.85678 0c-1.72922,-1.94773 -4.29824,-6.10542 -6.09833,-9.97136 -2.55485,-5.48767 -3.7679,-10.3387 -2.70958,-10.836z" />
    <path
   id="_295882368"
   class="fil136"
   d="M13.8562 10.2678c0.887052,-0.41695 3.39347,3.10881 5.5987,7.87243 2.20523,4.76598 4.83567,11.677 3.9498,12.0939 -0.887052,0.41695 -4.95615,-5.81485 -7.16019,-10.5797 -2.20523,-4.7648 -3.27418,-8.96855 -2.38831,-9.38668z" />
    <path
   id="_295883304"
   class="fil137"
   d="M13.9944 10.4533c0.715783,-0.338993 2.79817,2.6647 4.65377,6.70663 1.8556,4.04429 4.73291,10.9836 4.01831,11.3214 -0.714602,0.338993 -4.75063,-6.04636 -6.60623,-10.0907 -1.85442,-4.04311 -2.77927,-7.59722 -2.06585,-7.9374z" />
   </g>
   <path
   id="_295869000"
   class="fil138"
   d="M14.1314 10.6387c0.543334,-0.261036 2.20405,2.22058 3.71003,5.54201 1.5048,3.32142 4.62779,10.2891 4.08563,10.5489 -0.543334,0.261036 -4.54629,-6.28023 -6.05109,-9.60047 -1.50598,-3.32142 -2.28555,-6.22708 -1.74457,-6.49048z" />
  </g>
  <path
   class="fil16"
   d="M1.13746 28.3065l-0.174812 0.190167m28.9231 -0.0200797l-0.196073 -0.172449"
   id="path4386" />
  <path
   class="fil16"
   d="M1.60874 28.4766l-0.171268 0.187805m28.4671 -0.0212609l-0.192529 -0.168906"
   id="path4388" />
  <g
   id="_295880712">
   <path
   id="_295885512"
   class="fil139"
   d="M9.20242 13.4133c-3.26118,0 -5.9058,2.6458 -5.9058,5.90698 0,3.26118 2.64462,5.90698 5.9058,5.90698 3.26237,0 5.90698,-2.6458 5.90698,-5.90698 0,-3.26118 -2.64462,-5.90698 -5.90698,-5.90698z" />
   <g
   id="g4392">
    <path
   id="_295895040"
   class="fil140"
   d="M9.2036 13.3885c-3.27536,0 -5.93179,2.65525 -5.93179,5.93179 0,3.27536 2.65643,5.93179 5.93179,5.93179 3.27536,0 5.93179,-2.65643 5.93179,-5.93179 0,-3.27654 -2.65643,-5.93179 -5.93179,-5.93179z" />
    <path
   id="_295883280"
   class="fil141"
   d="M9.2036 14.4456c-2.69186,0 -4.87465,2.1816 -4.87465,4.87465 0,2.69186 2.18278,4.87465 4.87465,4.87465 2.69186,0 4.87701,-2.18278 4.87701,-4.87465 0,-2.69305 -2.18515,-4.87465 -4.87701,-4.87465z" />
    <path
   id="_295865904"
   class="fil142"
   d="M9.2036 15.5004c-2.10719,0 -3.81869,1.71032 -3.81869,3.81987 0,2.10719 1.7115,3.81869 3.81869,3.81869 2.10719,0 3.81869,-1.7115 3.81869,-3.81869 0,-2.10955 -1.7115,-3.81987 -3.81869,-3.81987z" />
    <path
   id="_295863024"
   class="fil143"
   d="M9.2036 16.5587c-1.52488,0 -2.76155,1.23668 -2.76155,2.76037 0,1.52488 1.23668,2.76155 2.76155,2.76155 1.52488,0 2.76155,-1.23668 2.76155,-2.76155 0,-1.5237 -1.23668,-2.76037 -2.76155,-2.76037z" />
    <path
   id="_295881264"
   class="fil144"
   d="M9.2036 17.6135c-0.940204,0 -1.70323,0.764211 -1.70323,1.7056 0,0.941385 0.76303,1.70441 1.70323,1.70441 0.942566,0 1.7056,-0.76303 1.7056,-1.70441 0,-0.941385 -0.76303,-1.7056 -1.7056,-1.7056z" />
   </g>
   <path
   id="_295875912"
   class="fil145"
   d="M9.20242 18.7734c-0.301196,0 -0.546877,0.2445 -0.546877,0.546877 0,0.302377 0.245681,0.546877 0.546877,0.546877 0.302377,0 0.548058,-0.2445 0.548058,-0.546877 0,-0.302377 -0.245681,-0.546877 -0.548058,-0.546877z" />
  </g>
  <g
   id="_295863408">
   <path
   id="_295871280"
   class="fil146"
   d="M13.6082 1.96191c-4.51558,0 -8.17836,3.66278 -8.17836,8.17836 0,4.51558 3.66278,8.17836 8.17836,8.17836 4.51558,0 8.17836,-3.66278 8.17836,-8.17836 0,-4.51558 -3.66278,-8.17836 -8.17836,-8.17836z" />
   <g
   id="g4402">
    <path
   id="_295867512"
   class="fil147"
   d="M13.6082 2.78636c-4.05965,0 -7.35272,3.29308 -7.35272,7.35391 0,4.06083 3.29308,7.35272 7.35272,7.35272 4.06083,0 7.35272,-3.29189 7.35272,-7.35272 0,-4.06083 -3.29189,-7.35391 -7.35272,-7.35391z" />
    <path
   id="_295884312"
   class="fil148"
   d="M13.6082 3.61199c-3.60372,0 -6.52709,2.92337 -6.52709,6.52827 0,3.6049 2.92337,6.52709 6.52709,6.52709 3.6049,0 6.52827,-2.92219 6.52827,-6.52709 0,-3.6049 -2.92337,-6.52827 -6.52827,-6.52827z" />
    <path
   id="_295884096"
   class="fil149"
   d="M13.6082 4.43644c-3.14779,0 -5.70264,2.55485 -5.70264,5.70382 0,3.14897 2.55485,5.70264 5.70264,5.70264 3.14897,0 5.70264,-2.55367 5.70264,-5.70264 0,-3.14897 -2.55367,-5.70382 -5.70264,-5.70382z" />
    <path
   id="_295871592"
   class="fil150"
   d="M13.6082 5.26207c-2.69305,0 -4.87701,2.18397 -4.87701,4.87819 0,2.69305 2.18397,4.87701 4.87701,4.87701 2.69423,0 4.87819,-2.18397 4.87819,-4.87701 0,-2.69423 -2.18397,-4.87819 -4.87819,-4.87819z" />
    <path
   id="_295878600"
   class="fil151"
   d="M13.6093 6.0877c-2.2383,0 -4.05256,1.81426 -4.05256,4.05256 0,2.2383 1.81426,4.05256 4.05256,4.05256 2.23712,0 4.05256,-1.81426 4.05256,-4.05256 0,-2.2383 -1.81544,-4.05256 -4.05256,-4.05256z" />
    <path
   id="_295886904"
   class="fil152"
   d="M13.6093 6.91333c-1.78237,0 -3.22693,1.44574 -3.22693,3.22693 0,1.78237 1.44456,3.22811 3.22693,3.22811 1.78237,0 3.22693,-1.44574 3.22693,-3.22811 0,-1.78119 -1.44456,-3.22693 -3.22693,-3.22693z" />
    <path
   id="_295882944"
   class="fil153"
   d="M13.6093 7.73778c-1.32644,0 -2.40248,1.07604 -2.40248,2.40248 0,1.32644 1.07604,2.40248 2.40248,2.40248 1.32644,0 2.4013,-1.07604 2.4013,-2.40248 0,-1.32644 -1.07486,-2.40248 -2.4013,-2.40248z" />
   </g>
   <path
   id="_295891392"
   class="fil154"
   d="M13.6082 8.56341c-0.870515,0 -1.57685,0.706334 -1.57685,1.57685 0,0.870515 0.706334,1.57685 1.57685,1.57685 0.871696,0 1.57803,-0.706334 1.57803,-1.57685 0,-0.870515 -0.706334,-1.57685 -1.57803,-1.57685z" />
  </g>
  <g
   id="_295883568">
   <rect
   id="_295874424"
   class="fil155"
   transform="matrix(-0.0112104 0.00861334 0.00861326 0.0112105 16.3526 9.93452)"
   width="239.583"
   height="1781.25" />
   <polygon
   id="_295863504"
   class="fil156"
   points="15.9421,10.4261 13.6908,12.2179 13.7617,12.3101 14.9582,11.3285 30.2306,31.2051 31.2854,30.3948 " />
   <path
   id="_295863672"
   class="fil157"
   d="M16.3532 9.93474l-2.68714 2.06349c1.61583,2.10128 3.23047,4.20257 4.8463,6.30503 1.05714,-0.524435 1.85206,-1.31109 2.68478,-2.06349l-4.84394 -6.30503z" />
   <polygon
   id="_295881432"
   class="fil158"
   points="15.9421,10.4273 13.7523,12.1093 13.8231,12.2014 14.9582,11.3285 19.6474,17.4316 20.7022,16.6213 " />
   <path
   id="_295867008"
   class="fil159"
   d="M16.1984 9.73394c-1.07722,0.460653 -1.89931,1.23904 -2.68478,2.06467 -0.0673261,0.0507899 -0.134652,0.102761 -0.200797,0.153551 0.0519711,0.066145 0.102761,0.133471 0.153551,0.199616l4.97623 6.4763 0.388602 -0.322457c-1.60402,-2.08711 -3.20685,-4.17422 -4.81087,-6.26133 0.673261,-0.673261 1.39613,-1.29928 2.28555,-1.75639l4.7459 6.17629 0.388602 -0.322457c-1.63,-2.12018 -3.25882,-4.24037 -4.88764,-6.36055 -0.0519711,-0.0673261 -0.102761,-0.133471 -0.154732,-0.200797 -0.066145,0.0519711 -0.13229,0.102761 -0.199616,0.153551z" />
   <path
   id="_295866456"
   class="fil160"
   d="M18.4426 18.6281c3.45489,4.49668 6.91097,8.99454 10.367,13.4924 0.0507899,0.066145 0.10158,0.133471 0.153551,0.200797 1.21778,-0.52916 2.45681,-1.04415 3.08519,-2.37177 -0.0507899,-0.066145 -0.102761,-0.133471 -0.153551,-0.199616l-10.4545 -13.6082 -0.388602 0.322457c3.42891,4.46361 6.859,8.92839 10.2891,13.392 -0.556327,0.792559 -1.22368,1.47291 -2.28555,1.75639l-10.2241 -13.307 -0.388602 0.322457z" />
   <polygon
   id="_295891176"
   class="fil161"
   points="15.9421,10.4273 13.7523,12.1093 13.8231,12.2014 14.9582,11.3285 19.6474,17.4316 20.7022,16.6213 " />
  </g>
  <path
   class="fil162"
   d="M13.9353 10.8986c-0.493725,0 -0.892957,0.400413 -0.892957,0.894138 0,0.493725 0.399232,0.894138 0.892957,0.894138 0.493725,0 0.894138,-0.400413 0.894138,-0.894138 0,-0.493725 -0.400413,-0.894138 -0.894138,-0.894138z"
   id="path4420" />
  <polygon
   class="fil163"
   points="13.9779,0.320094 13.1841,9.8556 3.91318,10.3859 13.4487,11.1809 13.9779,20.4518 14.7728,10.9151 24.0437,10.3859 14.5082,9.59102 "
   id="polygon4422" />
  <polygon
   class="fil163"
   points="8.52325,11.8919 7.8807,18.4332 1.20478,19.2104 8.07323,19.8529 8.52325,26.5289 9.23077,19.7266 15.8417,19.2104 9.36424,18.4367 "
   id="polygon4424" />
  <g
   id="_295863600">
   <g
   id="g4427">
    <path
   id="_295881024"
   class="fil146"
   d="M14.5838 17.721c-3.24583,0 -5.87864,2.63163 -5.87864,5.87745 0,3.24583 2.63281,5.87745 5.87864,5.87745 3.24465,0 5.87745,-2.63163 5.87745,-5.87745 0,-3.24583 -2.63281,-5.87745 -5.87745,-5.87745z" />
    <g
   id="g4430">
     <path
   id="_296930832"
   class="fil164"
   d="M14.5838 19.2541c-2.39776,0 -4.34313,1.94537 -4.34313,4.34313 0,2.39894 1.94537,4.34431 4.34313,4.34431 2.39776,0 4.34313,-1.94537 4.34313,-4.34431 0,-2.39776 -1.94537,-4.34313 -4.34313,-4.34313z" />
     <path
   id="_295890528"
   class="fil165"
   d="M14.5838 20.7884c-1.55086,0 -2.8088,1.25794 -2.8088,2.8088 0,1.55204 1.25794,2.8088 2.8088,2.8088 1.54968,0 2.8088,-1.25675 2.8088,-2.8088 0,-1.55086 -1.25912,-2.8088 -2.8088,-2.8088z" />
    </g>
    <path
   id="_295870992"
   class="fil154"
   d="M14.5838 22.3239c-0.703972,0 -1.27565,0.570501 -1.27565,1.27447 0,0.703972 0.571682,1.27447 1.27565,1.27447 0.70279,0 1.27447,-0.570501 1.27447,-1.27447 0,-0.703972 -0.571682,-1.27447 -1.27447,-1.27447z" />
   </g>
   <polygon
   id="_295873488"
   class="fil163"
   points="14.0983,19.1998 13.4759,23.902 8.79728,24.4996 13.4546,25.141 14.0983,29.8007 14.7527,25.1989 19.3982,24.4996 14.8779,23.9067 " />
  </g>
  <g
   id="_295874952">
   <path
   id="_295870704"
   class="fil166"
   d="M23.3468 30.3098c10.1355,-0.484276 10.8879,1.18116 10.9057,1.47763 0.0177174,0.297652 -4.64669,0.862247 -10.4332,1.00162 -5.78414,0.139377 -10.5017,-0.199616 -10.5194,-0.496087 -0.0177174,-0.297652 -0.0874059,-1.49889 10.047,-1.98317z" />
   <g
   id="g4438">
    <path
   id="_295895160"
   class="fil167"
   d="M23.6964 30.3913c9.45755,-0.450022 10.2466,1.10793 10.2643,1.39495 0.0165362,0.276392 -4.38683,0.800827 -9.82371,0.931936 -5.4357,0.131109 -9.88749,-0.180718 -9.90403,-0.455928 -0.0177174,-0.288203 0.00944928,-1.42212 9.46346,-1.87096z" />
    <path
   id="_295863072"
   class="fil168"
   d="M24.0461 30.4704c8.7772,-0.414587 9.6052,1.0347 9.62173,1.31227 0.0141739,0.256312 -4.12579,0.740588 -9.21541,0.863428 -5.08844,0.122841 -9.27447,-0.161819 -9.28746,-0.41695 -0.0165362,-0.278754 0.105123,-1.34416 8.88115,-1.75875z" />
    <path
   id="_295876680"
   class="fil169"
   d="M24.3969 30.5531c8.09804,-0.379153 8.96501,0.961465 8.97918,1.22959 0.0141739,0.235051 -3.86358,0.679167 -8.60475,0.79374 -4.74,0.114573 -8.66027,-0.14292 -8.67444,-0.37679 -0.0141739,-0.269305 0.20316,-1.2662 8.30001,-1.64654z" />
    <path
   id="_295891872"
   class="fil170"
   d="M24.7465 30.6322c7.41887,-0.344899 8.32364,0.887052 8.33781,1.14691 0.0129928,0.214971 -3.60372,0.618928 -7.99646,0.724051 -4.39155,0.105123 -8.04488,-0.124022 -8.05788,-0.337812 -0.0153551,-0.258674 0.298834,-1.18825 7.71652,-1.53315z" />
    <path
   id="_295863696"
   class="fil171"
   d="M25.0961 30.7137c6.7397,-0.309464 7.68109,0.815001 7.69644,1.06423 0.00944928,0.194891 -3.34387,0.558689 -7.38816,0.655544 -4.04429,0.0968552 -7.43186,-0.105123 -7.44249,-0.297652 -0.0141739,-0.250406 0.395689,-1.11147 7.13421,-1.42212z" />
    <path
   id="_295893624"
   class="fil172"
   d="M25.4457 30.7952c6.06172,-0.27521 7.03972,0.741769 7.05507,0.981544 0.00944928,0.173631 -3.08401,0.497269 -6.77868,0.585856 -3.69585,0.088587 -6.81766,-0.0862247 -6.82711,-0.257493 -0.0141739,-0.240957 0.491363,-1.0347 6.55072,-1.30991z" />
    <path
   id="_295888536"
   class="fil173"
   d="M25.7977 30.8767c5.38137,-0.239776 6.39953,0.667356 6.41252,0.898863 0.00944928,0.15237 -2.82061,0.435848 -6.1692,0.516167 -3.34741,0.0803189 -6.20227,-0.0673261 -6.21172,-0.218515 -0.0129928,-0.230326 0.587037,-0.955559 5.9684,-1.19652z" />
    <path
   id="_295875360"
   class="fil174"
   d="M26.1473 30.9582c4.70338,-0.205522 5.75816,0.594124 5.77115,0.816182 0.00826812,0.131109 -2.56076,0.374428 -5.55972,0.446479 -2.99897,0.0720508 -5.58925,-0.0484276 -5.59634,-0.178355 -0.0129928,-0.220877 0.683892,-0.878783 5.38491,-1.08431z" />
    <path
   id="_295862592"
   class="fil175"
   d="M26.4982 31.0397c4.02303,-0.170087 5.11442,0.522073 5.12742,0.733501 0.0059058,0.111029 -2.29972,0.314189 -4.95142,0.377971 -2.65052,0.0637827 -4.97505,-0.029529 -4.98095,-0.138196 -0.0106304,-0.212609 0.780747,-0.802008 4.80496,-0.973276z" />
    <path
   id="_295885608"
   class="fil176"
   d="M26.8478 31.1189c3.34387,-0.135833 4.47305,0.44766 4.48605,0.650819 0.00472464,0.0909494 -2.03986,0.25395 -4.34195,0.308283 -2.30326,0.0543334 -4.36084,-0.0106304 -4.36557,-0.0992175 -0.0118116,-0.201978 0.877602,-0.724051 4.22147,-0.859885z" />
    <path
   id="_295880880"
   class="fil177"
   d="M27.1986 31.2015c2.6647,-0.100399 3.83287,0.374428 3.8435,0.568138 0.00472464,0.0696885 -1.77765,0.192529 -3.73247,0.238594 -1.95364,0.0460653 -3.74546,0.00826812 -3.75018,-0.059058 -0.0106304,-0.192529 0.973276,-0.646095 3.63916,-0.747675z" />
    <path
   id="_295876056"
   class="fil178"
   d="M27.5482 31.2807c1.98553,-0.0649638 3.1915,0.301196 3.20094,0.485457 0.00236232,0.0496087 -1.51661,0.13229 -3.12299,0.170087 -1.60756,0.0377971 -3.13244,0.0271667 -3.1348,-0.0200797 -0.00944928,-0.18308 1.07013,-0.568138 3.05684,-0.635464z" />
   </g>
   <path
   id="_295863528"
   class="fil179"
   d="M27.8978 31.3645c1.30636,-0.0307102 2.55013,0.227964 2.56076,0.402776 0.00354348,0.0566957 -5.03056,0.173631 -5.03411,0.120478 -0.00944928,-0.173631 1.16581,-0.491363 2.47335,-0.523254z" />
  </g>
 </g>
</svg>