<?xml version="1.0" encoding="UTF-8"?>
<!DOCTYPE svg PUBLIC "-//W3C//DTD SVG 1.1//EN" "http://www.w3.org/Graphics/SVG/1.1/DTD/svg11.dtd">
<!-- Creator: CorelDRAW -->
<svg xmlns="http://www.w3.org/2000/svg" xml:space="preserve" width="32px" height="32px" style="shape-rendering:geometricPrecision; text-rendering:geometricPrecision; image-rendering:optimizeQuality; fill-rule:evenodd; clip-rule:evenodd"
viewBox="0 0 32 32"
 xmlns:xlink="http://www.w3.org/1999/xlink">
 <defs>
  <style type="text/css">
   <![CDATA[
    .fil20 {fill:none}
    .fil14 {fill:#C9C9C9}
    .fil135 {fill:white}
    .fil23 {fill:white;fill-rule:nonzero}
    .fil0 {fill:black;fill-opacity:0.000000}
    .fil1 {fill:black;fill-opacity:0.003922}
    .fil2 {fill:black;fill-opacity:0.007843}
    .fil99 {fill:#458BC9;fill-opacity:0.011765}
    .fil3 {fill:black;fill-opacity:0.015686}
    .fil131 {fill:#BAE8FF;fill-opacity:0.015686}
    .fil57 {fill:#C4EBFF;fill-opacity:0.015686}
    .fil4 {fill:black;fill-opacity:0.019608}
    .fil98 {fill:#458BC9;fill-opacity:0.019608}
    .fil5 {fill:black;fill-opacity:0.023529}
    .fil6 {fill:black;fill-opacity:0.027451}
    .fil130 {fill:#BAE8FF;fill-opacity:0.031373}
    .fil56 {fill:#C4EBFF;fill-opacity:0.031373}
    .fil97 {fill:#458BC9;fill-opacity:0.031373}
    .fil7 {fill:black;fill-opacity:0.031373}
    .fil8 {fill:black;fill-opacity:0.035294}
    .fil96 {fill:#458BC9;fill-opacity:0.039216}
    .fil9 {fill:black;fill-opacity:0.043137}
    .fil129 {fill:#BAE8FF;fill-opacity:0.047059}
    .fil55 {fill:#C4EBFF;fill-opacity:0.047059}
    .fil10 {fill:black;fill-opacity:0.047059}
    .fil11 {fill:black;fill-opacity:0.050980}
    .fil95 {fill:#458BC9;fill-opacity:0.050980}
    .fil12 {fill:black;fill-opacity:0.054902}
    .fil13 {fill:black;fill-opacity:0.058824}
    .fil128 {fill:#BAE8FF;fill-opacity:0.058824}
    .fil54 {fill:#C4EBFF;fill-opacity:0.058824}
    .fil94 {fill:#458BC9;fill-opacity:0.062745}
    .fil93 {fill:#458BC9;fill-opacity:0.070588}
    .fil127 {fill:#BAE8FF;fill-opacity:0.074510}
    .fil53 {fill:#C4EBFF;fill-opacity:0.074510}
    .fil92 {fill:#458BC9;fill-opacity:0.082353}
    .fil126 {fill:#BAE8FF;fill-opacity:0.090196}
    .fil52 {fill:#C4EBFF;fill-opacity:0.090196}
    .fil91 {fill:#458BC9;fill-opacity:0.090196}
    .fil90 {fill:#458BC9;fill-opacity:0.101961}
    .fil125 {fill:#BAE8FF;fill-opacity:0.105882}
    .fil51 {fill:#C4EBFF;fill-opacity:0.105882}
    .fil89 {fill:#458BC9;fill-opacity:0.113725}
    .fil22 {fill:#B2B2B2;fill-rule:nonzero;fill-opacity:0.121569}
    .fil124 {fill:#BAE8FF;fill-opacity:0.121569}
    .fil50 {fill:#C4EBFF;fill-opacity:0.121569}
    .fil88 {fill:#458BC9;fill-opacity:0.121569}
    .fil87 {fill:#458BC9;fill-opacity:0.133333}
    .fil123 {fill:#BAE8FF;fill-opacity:0.137255}
    .fil49 {fill:#C4EBFF;fill-opacity:0.137255}
    .fil86 {fill:#458BC9;fill-opacity:0.145098}
    .fil122 {fill:#BAE8FF;fill-opacity:0.152941}
    .fil48 {fill:#C4EBFF;fill-opacity:0.152941}
    .fil85 {fill:#458BC9;fill-opacity:0.152941}
    .fil84 {fill:#458BC9;fill-opacity:0.164706}
    .fil121 {fill:#BAE8FF;fill-opacity:0.164706}
    .fil47 {fill:#C4EBFF;fill-opacity:0.164706}
    .fil83 {fill:#458BC9;fill-opacity:0.172549}
    .fil120 {fill:#BAE8FF;fill-opacity:0.180392}
    .fil46 {fill:#C4EBFF;fill-opacity:0.180392}
    .fil82 {fill:#458BC9;fill-opacity:0.184314}
    .fil81 {fill:#458BC9;fill-opacity:0.196078}
    .fil119 {fill:#BAE8FF;fill-opacity:0.196078}
    .fil45 {fill:#C4EBFF;fill-opacity:0.196078}
    .fil80 {fill:#458BC9;fill-opacity:0.203922}
    .fil118 {fill:#BAE8FF;fill-opacity:0.211765}
    .fil44 {fill:#C4EBFF;fill-opacity:0.211765}
    .fil79 {fill:#458BC9;fill-opacity:0.215686}
    .fil132 {fill:#A0DFFF;fill-opacity:0.219608}
    .fil78 {fill:#458BC9;fill-opacity:0.223529}
    .fil117 {fill:#BAE8FF;fill-opacity:0.227451}
    .fil43 {fill:#C4EBFF;fill-opacity:0.227451}
    .fil77 {fill:#458BC9;fill-opacity:0.235294}
    .fil116 {fill:#BAE8FF;fill-opacity:0.243137}
    .fil42 {fill:#C4EBFF;fill-opacity:0.243137}
    .fil76 {fill:#458BC9;fill-opacity:0.247059}
    .fil75 {fill:#458BC9;fill-opacity:0.254902}
    .fil115 {fill:#BAE8FF;fill-opacity:0.258824}
    .fil41 {fill:#C4EBFF;fill-opacity:0.258824}
    .fil74 {fill:#458BC9;fill-opacity:0.266667}
    .fil114 {fill:#BAE8FF;fill-opacity:0.274510}
    .fil40 {fill:#C4EBFF;fill-opacity:0.274510}
    .fil73 {fill:#458BC9;fill-opacity:0.274510}
    .fil72 {fill:#458BC9;fill-opacity:0.286275}
    .fil113 {fill:#BAE8FF;fill-opacity:0.286275}
    .fil39 {fill:#C4EBFF;fill-opacity:0.286275}
    .fil71 {fill:#458BC9;fill-opacity:0.298039}
    .fil112 {fill:#BAE8FF;fill-opacity:0.301961}
    .fil38 {fill:#C4EBFF;fill-opacity:0.301961}
    .fil70 {fill:#458BC9;fill-opacity:0.305882}
    .fil69 {fill:#458BC9;fill-opacity:0.317647}
    .fil111 {fill:#BAE8FF;fill-opacity:0.317647}
    .fil37 {fill:#C4EBFF;fill-opacity:0.317647}
    .fil136 {fill:#396DA6;fill-opacity:0.321569}
    .fil68 {fill:#458BC9;fill-opacity:0.325490}
    .fil110 {fill:#BAE8FF;fill-opacity:0.333333}
    .fil36 {fill:#C4EBFF;fill-opacity:0.333333}
    .fil67 {fill:#458BC9;fill-opacity:0.337255}
    .fil66 {fill:#458BC9;fill-opacity:0.349020}
    .fil109 {fill:#BAE8FF;fill-opacity:0.349020}
    .fil35 {fill:#C4EBFF;fill-opacity:0.349020}
    .fil65 {fill:#458BC9;fill-opacity:0.356863}
    .fil108 {fill:#BAE8FF;fill-opacity:0.364706}
    .fil34 {fill:#C4EBFF;fill-opacity:0.364706}
    .fil64 {fill:#458BC9;fill-opacity:0.368627}
    .fil63 {fill:#458BC9;fill-opacity:0.380392}
    .fil107 {fill:#BAE8FF;fill-opacity:0.380392}
    .fil33 {fill:#C4EBFF;fill-opacity:0.380392}
    .fil62 {fill:#458BC9;fill-opacity:0.388235}
    .fil106 {fill:#BAE8FF;fill-opacity:0.392157}
    .fil32 {fill:#C4EBFF;fill-opacity:0.392157}
    .fil61 {fill:#458BC9;fill-opacity:0.400000}
    .fil105 {fill:#BAE8FF;fill-opacity:0.407843}
    .fil31 {fill:#C4EBFF;fill-opacity:0.407843}
    .fil60 {fill:#458BC9;fill-opacity:0.407843}
    .fil59 {fill:#458BC9;fill-opacity:0.419608}
    .fil104 {fill:#BAE8FF;fill-opacity:0.423529}
    .fil30 {fill:#C4EBFF;fill-opacity:0.423529}
    .fil58 {fill:#458BC9;fill-opacity:0.431373}
    .fil103 {fill:#BAE8FF;fill-opacity:0.439216}
    .fil29 {fill:#C4EBFF;fill-opacity:0.439216}
    .fil133 {fill:#396DA6;fill-opacity:0.439216}
    .fil15 {fill:#A4A5A7;fill-opacity:0.439216}
    .fil102 {fill:#BAE8FF;fill-opacity:0.454902}
    .fil28 {fill:#C4EBFF;fill-opacity:0.454902}
    .fil101 {fill:#BAE8FF;fill-opacity:0.470588}
    .fil27 {fill:#C4EBFF;fill-opacity:0.470588}
    .fil100 {fill:#BAE8FF;fill-opacity:0.486275}
    .fil26 {fill:#C4EBFF;fill-opacity:0.486275}
    .fil21 {fill:#D1CFCF;fill-rule:nonzero;fill-opacity:0.501961}
    .fil134 {fill:url(#id0)}
    .fil19 {fill:url(#id1)}
    .fil25 {fill:url(#id2)}
    .fil16 {fill:url(#id3)}
    .fil17 {fill:url(#id4)}
    .fil18 {fill:url(#id5)}
    .fil24 {fill:url(#id6);fill-rule:nonzero}
   ]]>
  </style>
  <linearGradient id="id0" gradientUnits="userSpaceOnUse" x1="15.974" y1="28.9124" x2="15.974" y2="6.22235">
   <stop offset="0" style="stop-color:#7F7F7F"/>
   <stop offset="1" style="stop-color:#999999"/>
  </linearGradient>
  <linearGradient id="id1" gradientUnits="userSpaceOnUse" x1="16.1677" y1="4.24273" x2="15.5878" y2="15.9669">
   <stop offset="0" style="stop-color:#EDEDED"/>
   <stop offset="1" style="stop-color:#D1CFCF"/>
  </linearGradient>
  <linearGradient id="id2" gradientUnits="userSpaceOnUse" x1="16" y1="13.301" x2="16" y2="21.6353">
   <stop offset="0" style="stop-color:#5CA2DA"/>
   <stop offset="1" style="stop-color:#84C1F0"/>
  </linearGradient>
  <linearGradient id="id3" gradientUnits="userSpaceOnUse" x1="16.0969" y1="22.4669" x2="15.9575" y2="12.9975">
   <stop offset="0" style="stop-color:#B0B0B0"/>
   <stop offset="1" style="stop-color:#BEBEBE"/>
  </linearGradient>
  <linearGradient id="id4" gradientUnits="userSpaceOnUse" x1="16.0969" y1="22.4043" x2="15.9563" y2="12.8628">
   <stop offset="0" style="stop-color:#B0B0B0"/>
   <stop offset="1" style="stop-color:#CCCCCC"/>
  </linearGradient>
  <linearGradient id="id5" gradientUnits="userSpaceOnUse" xlink:href="#id4" x1="15.9941" y1="22.3924" x2="15.8583" y2="13.1758">
  </linearGradient>
  <linearGradient id="id6" gradientUnits="userSpaceOnUse" xlink:href="#id0" x1="16.0189" y1="30.6795" x2="16.0189" y2="3.22457">
  </linearGradient>
 </defs>
 <g id="Слой_x0020_1">
  <metadata id="CorelCorpID_0Corel-Layer"/>
  <g id="_127197112">
   <path id="_69679616" class="fil0" d="M15.322 27.0285c11.358,-0.454747 15.4295,0.728776 16.8008,2.15562l0 2.26547c-2.07057,0.839805 -8.83508,0.139377 -16.228,0.414587 -1.5485,0.0578769 -3.05448,0.113391 -4.48723,0.159457l-9.08431 0c-1.02052,-0.0803189 -1.80481,-0.207884 -2.29736,-0.400413l0 -2.00207c1.18589,-1.09375 4.73409,-2.16861 15.296,-2.59265z"/>
   <g>
    <path id="_69680312" class="fil1" d="M15.3586 27.2624c11.4525,-0.441754 15.5075,0.827994 16.7642,2.26665l0 1.84497c-1.86623,0.87524 -8.7335,0.190167 -16.2114,0.450022 -2.25365,0.0791378 -4.42345,0.153551 -6.40307,0.199616l-6.07235 0c-1.61701,-0.0673261 -2.80762,-0.216152 -3.41001,-0.485457l0 -1.59929c1.04651,-1.11265 4.47069,-2.25602 15.3326,-2.67651z"/>
    <path id="_67884000" class="fil2" d="M15.3929 27.4998c11.5553,-0.42758 15.6256,0.934298 16.73,2.37531l0 1.42094c-1.60992,0.918943 -8.6083,0.246863 -16.1984,0.491363 -7.67872,0.248044 -14.4314,0.457109 -15.8984,-0.336631l0 -1.19415c0.887052,-1.12328 4.20257,-2.34342 15.3669,-2.75683z"/>
    <path id="_130014672" class="fil3" d="M15.4283 27.7372c11.6793,-0.413406 15.8063,1.05241 16.6945,2.48398l0 0.979182c-1.26266,0.978001 -8.43585,0.318913 -16.1843,0.54924 -7.86417,0.235051 -14.8212,0.42758 -15.9126,-0.401595l0 -0.770117c0.669718,-1.1221 3.88602,-2.43319 15.4023,-2.84069z"/>
    <path id="_130014208" class="fil4" d="M15.4626 27.9746c12.0053,-0.400413 16.1902,1.23431 16.6603,2.65407l0 0.426399c-0.649638,1.10439 -8.12284,0.439392 -16.1713,0.659088 -8.34372,0.226783 -15.7425,0.406319 -15.9256,-0.558689l0 -0.111029c0.120478,-1.11974 2.99779,-2.65407 15.4366,-3.06984z"/>
    <path id="_129997080" class="fil5" d="M15.4968 28.2097c12.0667,-0.37679 16.4807,1.35597 16.5209,2.70958 0.0425218,1.21069 -7.72361,0.551602 -16.052,0.755943 -8.32954,0.204341 -15.798,0.361435 -15.798,-0.540972 0,-1.04887 3.26118,-2.54658 15.3291,-2.92455z"/>
    <path id="_129879312" class="fil6" d="M15.5311 28.4447c11.4183,-0.329544 16.3012,1.27683 16.3366,2.51705 0.036616,1.06777 -7.67991,0.496087 -15.889,0.674443 -8.20907,0.178355 -15.6657,0.311826 -15.6657,-0.485457 0,-0.974457 3.79979,-2.37531 15.2181,-2.70604z"/>
    <path id="_129884296" class="fil7" d="M15.5665 28.6845c10.7675,-0.283479 16.1205,1.19533 16.1512,2.32334 0.0307102,0.924849 -7.6362,0.439392 -15.7248,0.592943 -8.08977,0.153551 -15.5346,0.263399 -15.5346,-0.431124 0,-0.897682 4.3384,-2.20168 15.1082,-2.48516z"/>
    <path id="_129914176" class="fil8" d="M15.6008 28.9195c10.119,-0.236232 15.9409,1.1162 15.9669,2.13081 0.0248044,0.781928 -7.5925,0.383877 -15.563,0.511442 -7.96811,0.127565 -15.4012,0.21379 -15.4012,-0.375609 0,-0.823269 4.87701,-2.03041 14.9972,-2.26665z"/>
    <path id="_129926256" class="fil9" d="M15.635 29.1546c9.46936,-0.188986 15.7614,1.03706 15.7815,1.9371 0.0212609,0.64137 -7.54762,0.329544 -15.3976,0.431124 -7.84881,0.102761 -15.2689,0.164181 -15.2689,-0.321276 0,-0.747675 5.41444,-1.85797 14.885,-2.04695z"/>
    <path id="_129937328" class="fil10" d="M15.6693 29.392c8.82091,-0.140558 15.5819,0.957921 15.5972,1.74457 0.0153551,0.49845 -7.50391,0.274029 -15.2346,0.350805 -7.72833,0.0755943 -15.1366,0.113391 -15.1366,-0.266942 0,-0.673261 5.95305,-1.6867 14.774,-1.82844z"/>
    <path id="_132981712" class="fil11" d="M15.7047 29.6294c8.17009,-0.0944928 15.4012,0.876421 15.4118,1.55086 0.00944928,0.355529 -7.46021,0.217334 -15.0704,0.269305 -7.60904,0.0507899 -15.0055,0.0637827 -15.0055,-0.212609 0,-0.597667 6.49166,-1.51307 14.6641,-1.60756z"/>
    <path id="_129418256" class="fil12" d="M15.739 29.8668c7.52163,-0.0472464 15.2216,0.797283 15.2263,1.35715 0.0059058,0.214971 -7.41533,0.163 -14.9062,0.188986 -7.48856,0.0248044 -14.872,0.0141739 -14.872,-0.157094 0,-0.523254 7.02909,-1.3418 14.5519,-1.38904z"/>
   </g>
   <path id="_69680440" class="fil13" d="M15.7709 30.1031c6.87317,0 15.0433,0.718146 15.0433,1.16462 0,0.145283 -29.4841,0.140558 -29.4841,0.00472464 0,-0.44766 7.5677,-1.16935 14.4409,-1.16935z"/>
  </g>
  <path class="fil14" d="M2.15798 3.77735l27.6203 0.0496087c0.96737,0 1.61701,0.454747 1.60283,1.57685l-0.0271667 2.12963 -30.6464 0 0 -2.12963c0,-0.892957 0.512624,-1.6737 1.45047,-1.62646z"/>
  <path class="fil15" d="M0.73232 5.14986c0.219696,-0.239776 0.336631,-0.601211 0.688617,-0.647276l0.242138 0.530341 -1.03706 1.28746 0.106304 -1.17053z"/>
  <path class="fil16" d="M2.24893 4.8026l27.5553 0c0.843349,0 1.53315,0.693341 1.53315,1.53315l0 22.794c0,0.839805 -0.690979,1.53315 -1.53315,1.53315 -10.0977,0 -10.3328,0 -27.5553,0 -0.840986,0 -1.53315,-0.689798 -1.53315,-1.53315l0 -22.794c0,-0.843349 0.689798,-1.53315 1.53315,-1.53315z"/>
  <path class="fil17" d="M2.24893 4.60416l27.5553 0c0.843349,0 1.53315,0.693341 1.53315,1.53315l0 22.9925c0,0.839805 -0.690979,1.53315 -1.53315,1.53315 -10.0966,0 -10.3328,0 -27.5553,0 -0.840986,0 -1.53315,-0.689798 -1.53315,-1.53315l0 -22.9925c0,-0.843349 0.689798,-1.53315 1.53315,-1.53315z"/>
  <path class="fil18" d="M2.14853 5.20656l27.5553 0c0.843349,0 1.53315,0.693341 1.53315,1.53315l0 22.0889c0,0.839805 -0.690979,1.53315 -1.53315,1.53315 -10.0966,0 -10.3328,0 -27.5553,0 -0.840986,0 -1.53315,-0.689798 -1.53315,-1.53315l0 -22.0889c0,-0.843349 0.689798,-1.53315 1.53315,-1.53315z"/>
  <path class="fil19" d="M31.1885 13.516c-6.76096,2.08357 -22.8732,1.53669 -30.6216,1.12446l0 -8.49845c0,-0.843349 0.689798,-1.53315 1.53197,-1.53315l27.5565 0c0.843349,0 1.53315,0.693341 1.53315,1.53315l0 7.37398z"/>
  <path class="fil20" d="M2.5643 28.486l-0.165362 0.179536m27.2813 -0.0188986l-0.184261 -0.163"/>
  <polygon class="fil21" points="31.3657,7.07869 31.3657,28.4719 31.1224,28.4719 31.1224,7.07869 "/>
  <path class="fil22" d="M0.362616 6.24361c0,-0.480732 0.197254,-0.918943 0.513805,-1.23549 0.316551,-0.317732 0.754762,-0.514986 1.23549,-0.514986l27.5553 0c0.480732,0 0.918943,0.197254 1.23668,0.514986 0.316551,0.317732 0.514986,0.755943 0.514986,1.23549l-0.434667 0c0,-0.361435 -0.148826,-0.690979 -0.387421,-0.929573 -0.238594,-0.237413 -0.568138,-0.386239 -0.929573,-0.386239l-27.5553 0c-0.361435,0 -0.690979,0.148826 -0.928392,0.386239 -0.238594,0.237413 -0.386239,0.566957 -0.386239,0.929573l-0.434667 0z"/>
  <path class="fil23" d="M2.17215 3.82814l27.5565 0c0.556327,0 1.06659,0.230326 1.43393,0.598848l0.00118116 0.00118116c0.259855,0.258674 0.451203,0.588218 0.540972,0.955559l-1.06186 0c-0.0496087,-0.0933117 -0.111029,-0.177174 -0.184261,-0.250406l-0.00118116 -0.00118116c-0.185442,-0.186623 -0.445298,-0.302377 -0.728776,-0.302377l-27.5565 0c-0.283479,0 -0.543334,0.116935 -0.728776,0.302377 -0.073232,0.073232 -0.137015,0.158276 -0.185442,0.251587l-1.06186 0c0.0897682,-0.368522 0.281116,-0.698066 0.540972,-0.957921 0.367341,-0.367341 0.876421,-0.597667 1.43511,-0.597667z"/>
  <path class="fil24" d="M1.99262 2.94936l27.9132 0.0496087 0 -0.00236232 0.0389783 0 0.0059058 0.00236232c0.585856,0.00708696 1.09021,0.163 1.45991,0.497269l0.00118116 -0.00118116c0.380334,0.342537 0.598848,0.849254 0.598848,1.54141l0 0.0354348 -0.00236232 0.0059058 -0.0271667 2.13081 -0.00708696 0.494906 -0.00826812 0 0 21.2231c0,0.556327 -0.231507,1.06423 -0.598848,1.43393 -0.367341,0.369703 -0.878783,0.60003 -1.43511,0.60003l-27.8624 0c-0.556327,0 -1.06777,-0.230326 -1.43511,-0.60003l0 0.00118116c-0.367341,-0.367341 -0.597667,-0.876421 -0.597667,-1.43511l0 -21.2231 -0.00944928 0 0 -0.500812 0 -2.13081 0.00236232 -0.0141739 0.00354348 -0.12166 0 -0.0118116c0.0259855,-0.50908 0.197254,-0.992175 0.497269,-1.35007 0.321276,-0.386239 0.783109,-0.629559 1.36424,-0.629559l0.0141739 0.00236232 0.0838624 0.00236232zm27.9132 1.04651l-27.9274 -0.0496087 -0.0141739 0 -0.0696885 -0.00236232 0 0.00236232c-0.261036,0 -0.463015,0.102761 -0.598848,0.265761l-0.00118116 0.00118116c-0.157094,0.187805 -0.249225,0.463015 -0.26458,0.76303l-0.00354348 0.095674 0.00236232 0 0 1.63 0.00944928 0 0 0.500812 0 21.7239c0,0.283479 0.116935,0.543334 0.302377,0.728776l0 0.00118116c0.185442,0.186623 0.445298,0.302377 0.728776,0.302377l27.8624 0c0.283479,0 0.543334,-0.115754 0.728776,-0.302377 0.186623,-0.186623 0.303558,-0.446479 0.303558,-0.729957l0 -21.7239 0 -0.500812 0.0259855 0 0.0212609 -1.63 -0.00236232 0 0 -0.0354348c0,-0.386239 -0.0980363,-0.648457 -0.265761,-0.799646l0 -0.00118116c-0.174812,-0.158276 -0.454747,-0.235051 -0.798464,-0.239776l0 0.00236232 -0.0389783 0 0 -0.00236232z"/>
  <path class="fil25" d="M29.4227 18.0068l-12.6691 0.0448841 -0.00118116 0c-0.166544,0.00118116 -0.323638,0.0708696 -0.438211,0.18308 -0.108667,0.105123 -0.177174,0.252768 -0.177174,0.412225l-0.00118116 0 0.00118116 9.74103 0.00118116 0 0 0.00708696 -0.00118116 0c0,0.160638 0.0649638,0.309464 0.168906,0.415768l0.00236232 0.00118116c0.10158,0.103942 0.243319,0.171268 0.39687,0.171268l0 -0.00236232 0.00708696 0 0 0.00236232 12.6691 -0.0460653 0.00118116 0c0.159457,0 0.309464,-0.0685073 0.418131,-0.177174 0.108667,-0.108667 0.177174,-0.259855 0.177174,-0.418131l0.0401595 -9.73985 -0.00118116 0 0 -0.00826812 0.00118116 0c0,-0.157094 -0.0685073,-0.305921 -0.174812,-0.412225 -0.107486,-0.107486 -0.256312,-0.174812 -0.413406,-0.174812l0 0.00118116 -0.00708696 0 0 -0.00118116zm-14.9393 0l-11.8435 0.00472464 0 0.00118116c-0.164181,0 -0.313008,0.0673261 -0.420493,0.173631 -0.107486,0.107486 -0.175993,0.258674 -0.175993,0.420493l-0.0401595 9.84261 0.00118116 0 0 0.0118116 -0.00118116 0c0.00118116,0.155913 0.0708696,0.303558 0.177174,0.409863l0.00118116 0c0.106304,0.106304 0.252768,0.173631 0.406319,0.173631l0 -0.00118116 0.0118116 0 0 0.00118116 11.8423 -0.107486 0.00236232 -0.00118116c0.160638,0 0.310645,-0.0685073 0.41695,-0.175993 0.109848,-0.108667 0.178355,-0.258674 0.178355,-0.418131l0.0389783 -9.73985 -0.00118116 0 0 -0.00472464c0,-0.160638 -0.0673261,-0.308283 -0.173631,-0.415768 -0.107486,-0.106304 -0.256312,-0.174812 -0.415768,-0.174812l0 0.00118116 -0.00472464 0 0 -0.00118116zm-0.0259855 -12.1152l-11.8388 0.0153551 0 0.00118116c-0.163,0 -0.313008,0.0685073 -0.420493,0.174812 -0.107486,0.107486 -0.174812,0.259855 -0.175993,0.421674l-0.0401595 9.7741 0.00118116 0 0 0.00354348 -0.00118116 0c0,0.160638 0.0685073,0.310645 0.175993,0.41695 0.106304,0.107486 0.256312,0.175993 0.414587,0.175993l0 -0.00236232 0.00472464 0 0 0.00236232 11.8447 -0.0059058 0 -0.00236232c0.161819,0 0.310645,-0.0673261 0.41695,-0.173631l0.00118116 0c0.108667,-0.108667 0.177174,-0.258674 0.177174,-0.420493l0.0354348 -9.78473 -0.00236232 0 0 -0.00472464 0.00236232 0c0,-0.159457 -0.0685073,-0.308283 -0.174812,-0.414587l0 -0.00118116c-0.107486,-0.107486 -0.256312,-0.175993 -0.415768,-0.175993l0 0.00118116 -0.00472464 0 0 -0.00118116zm15.0716 0.00708696l-12.812 -0.00236232 0 0.00118116c-0.171268,0 -0.333087,0.0720508 -0.451203,0.184261l-0.00236232 0.00236232c-0.109848,0.105123 -0.181899,0.251587 -0.181899,0.408682l0 9.82726 0 0.00708696 -0.00118116 0c0,0.157094 0.0685073,0.305921 0.175993,0.413406 0.107486,0.106304 0.255131,0.174812 0.412225,0.174812l0 -0.00236232 0.00708696 0 0 0.00236232 12.6691 -0.0460653 0.00118116 0c0.160638,0 0.310645,-0.0685073 0.419312,-0.177174l0 0c0.108667,-0.108667 0.177174,-0.257493 0.177174,-0.418131l0 -0.00118116 0.0401595 -9.75402 -0.00118116 0 0 -0.00472464c0,-0.18308 -0.0460653,-0.349624 -0.133471,-0.463015l0.00118116 0c-0.0708696,-0.0921305 -0.179536,-0.15237 -0.317732,-0.15237l0 0.00236232 -0.00236232 0 0 -0.00236232z"/>
  <g id="_127199208">
   <g>
    <path id="_129373552" class="fil26" d="M2.04341 18.6505c0.235051,-0.0519711 0.471283,-0.0968552 0.708696,-0.134652 1.97726,-0.323638 4.00177,-0.0968552 5.91643,1.1162 1.09375,0.70279 2.08593,1.35125 2.97534,1.93947 1.36306,0.923668 2.45799,1.66544 3.41355,2.22413l0 0.255131c-0.981544,-0.569319 -2.10719,-1.32999 -3.51395,-2.28436 -0.876421,-0.578769 -1.85678,-1.22132 -2.96826,-1.93474 -1.82017,-1.14691 -3.77617,-1.35597 -5.71091,-1.04533 -0.274029,0.0437029 -0.54924,0.0980363 -0.822088,0.161819l0.00118116 -0.297652zm14.0936 5.72272c1.84025,0.881146 3.28245,0.941385 5.5609,0.175993 1.73512,-0.553964 4.26281,-2.33752 6.82829,-3.41237l0.00118116 0.23387c-2.5454,1.07249 -5.053,2.84187 -6.77514,3.39347 -2.30799,0.777204 -3.77026,0.729957 -5.61524,-0.140558l0 -0.250406z"/>
    <path id="_129360056" class="fil27" d="M2.04223 18.9812c0.31537,-0.0696885 0.631921,-0.127565 0.949653,-0.175993 1.98553,-0.289384 4.00768,-0.0791378 5.93533,1.08431 1.09375,0.669718 2.10365,1.30046 3.02023,1.88041 1.22014,0.819725 2.22531,1.49299 3.11,2.02215l0 0.263399c-0.910675,-0.53979 -1.94773,-1.23549 -3.21039,-2.08357 -0.904769,-0.574044 -1.90049,-1.19652 -3.01314,-1.88159 -1.83198,-1.09966 -3.79153,-1.29219 -5.73335,-1.01107 -0.354348,0.0531522 -0.707515,0.118116 -1.0595,0.196073l0.00118116 -0.294109zm14.0948 5.41208c1.95246,0.988631 3.42655,1.11383 5.7806,0.379153 1.70323,-0.485457 4.14115,-2.10719 6.60977,-3.07692l0 0.22442c-2.45091,0.97682 -4.87583,2.58792 -6.56371,3.06984 -2.3824,0.750037 -3.87421,0.635464 -5.82666,-0.340174l0 -0.256312z"/>
    <path id="_129357192" class="fil28" d="M2.04105 19.3013c0.394508,-0.0826812 0.792559,-0.150007 1.19179,-0.20316 1.99144,-0.262218 4.0124,-0.0637827 5.95187,1.04415 1.09612,0.644914 2.11782,1.25557 3.06275,1.82962 1.08194,0.718146 1.99734,1.32408 2.80998,1.81662l0 0.265761c-0.838624,-0.505537 -1.78355,-1.13155 -2.90802,-1.87923 -0.931936,-0.565776 -1.94065,-1.17171 -3.04858,-1.82962 -1.85324,-1.04533 -3.80924,-1.22132 -5.76524,-0.972095 -0.433486,0.0555145 -0.865791,0.129928 -1.29573,0.219696l0.00118116 -0.291747zm14.096 5.10379c2.06939,1.09494 3.57183,1.28983 5.99557,0.585856 1.67252,-0.413406 4.02539,-1.87332 6.39598,-2.74502l0 0.217334c-2.35642,0.876421 -4.69629,2.33279 -6.35582,2.74738 -2.45209,0.718146 -3.97106,0.535066 -6.03573,-0.545696l0 -0.259855z"/>
    <path id="_129349240" class="fil29" d="M2.03986 19.6132c0.474827,-0.0909494 0.953197,-0.166544 1.43511,-0.220877 1.99734,-0.237413 4.01476,-0.0519711 5.96959,1.00281 1.09257,0.616566 2.13554,1.21069 3.10173,1.77883 0.950834,0.624834 1.77292,1.16226 2.51115,1.61347l0 0.266942c-0.764211,-0.465377 -1.61583,-1.0217 -2.60564,-1.67134 -0.955559,-0.563414 -1.98199,-1.14927 -3.08873,-1.77765 -1.86741,-0.996899 -3.82814,-1.16226 -5.79123,-0.937841 -0.512624,0.0566957 -1.02525,0.133471 -1.53315,0.229145l0.00118116 -0.283479zm14.0972 4.8026c2.18869,1.1977 3.72184,1.4611 6.2129,0.796102 1.64181,-0.343718 3.90374,-1.65244 6.17865,-2.42492l0 0.212609c-2.2631,0.776022 -4.51558,2.08475 -6.14558,2.43319 -2.51705,0.680348 -4.06437,0.428761 -6.24598,-0.752399l0 -0.26458z"/>
    <path id="_129347904" class="fil30" d="M2.0375 19.912c0.556327,-0.0933117 1.11738,-0.171268 1.67961,-0.226783 2.00325,-0.206703 4.02067,-0.0401595 5.98494,0.962646 1.0973,0.588218 2.15326,1.16462 3.14779,1.72804 0.822088,0.532703 1.54732,1.00162 2.20759,1.40794l0 0.270486c-0.686254,-0.419312 -1.44338,-0.909494 -2.30444,-1.46818 -0.979182,-0.553964 -2.02333,-1.12092 -3.12653,-1.72449 -1.88513,-0.94611 -3.84822,-1.0973 -5.81958,-0.901225 -0.592943,0.0578769 -1.18234,0.137015 -1.76938,0.230326l0 -0.278754zm14.0995 4.50849c2.31153,1.29691 3.87539,1.63236 6.43142,1.01225 1.60283,-0.279935 3.78089,-1.43629 5.96132,-2.11191l0 0.205522c-2.17215,0.683892 -4.34195,1.84615 -5.93533,2.13081 -2.57965,0.634283 -4.15768,0.311826 -6.4574,-0.968552l0 -0.268123z"/>
    <path id="_128670816" class="fil31" d="M2.0375 20.1978c0.635464,-0.0897682 1.27329,-0.165362 1.9182,-0.220877 2.01388,-0.177174 4.02776,-0.0248044 6.0062,0.92603 1.09375,0.562232 2.16979,1.11974 3.18441,1.6737 0.700428,0.44766 1.32999,0.849254 1.91112,1.20715l0 0.274029c-0.605935,-0.372066 -1.2662,-0.79374 -2.00325,-1.2662 -1.00517,-0.548058 -2.06467,-1.10084 -3.16551,-1.67134 -1.90049,-0.897682 -3.86358,-1.03233 -5.84438,-0.864609 -0.67208,0.0531522 -1.3418,0.129928 -2.00797,0.217334l0.00118116 -0.27521zm14.0995 4.22974c2.43673,1.39141 4.03248,1.79773 6.64757,1.22959 1.56976,-0.217334 3.65687,-1.22959 5.74516,-1.81308l0 0.200797c-2.0812,0.59058 -4.16477,1.61228 -5.72745,1.83552 -2.63635,0.584674 -4.24155,0.192529 -6.66529,-1.18234l0 -0.270486z"/>
    <path id="_129322064" class="fil32" d="M2.03632 20.4671c0.718146,-0.0779566 1.43629,-0.146464 2.16152,-0.199616 2.02097,-0.147645 4.03248,-0.0106304 6.02392,0.891776 1.09139,0.531522 2.18278,1.06895 3.22693,1.61937 0.57995,0.36616 1.11147,0.701609 1.60874,1.00635l0 0.27521c-0.522073,-0.320094 -1.08431,-0.674443 -1.69851,-1.06304 -1.03115,-0.542153 -2.10719,-1.07604 -3.20685,-1.61937 -1.91939,-0.845711 -3.88247,-0.968552 -5.87391,-0.830356 -0.751218,0.0519711 -1.49653,0.115754 -2.24302,0.187805l0.00118116 -0.268123zm14.1007 3.96279c2.5643,1.48236 4.19312,1.96191 6.8649,1.44928 1.53315,-0.157094 3.53285,-1.03352 5.52901,-1.5237l0 0.199616c-1.99144,0.500812 -3.9876,1.38432 -5.5172,1.54732 -2.69186,0.530341 -4.33013,0.066145 -6.87672,-1.39849l0 -0.274029z"/>
    <path id="_129351992" class="fil33" d="M2.03514 20.7235c0.799646,-0.0578769 1.59693,-0.114573 2.40602,-0.163 2.02333,-0.118116 4.0313,0 6.04164,0.851617 1.09021,0.504356 2.19696,1.02407 3.26591,1.56858l1.30873 0.810276 -0.00118116 0.27521 -1.39495 -0.863428c-1.05714,-0.536247 -2.14971,-1.05241 -3.24465,-1.56504 -1.93828,-0.799646 -3.90019,-0.904769 -5.90462,-0.797283 -0.827994,0.0437029 -1.65126,0.0933117 -2.47807,0.141739l0.00118116 -0.258674zm14.1019 3.71239c2.6895,1.56504 4.35494,2.11664 7.07988,1.66307 1.49417,-0.095674 3.40883,-0.837443 5.31404,-1.2414l0.00118116 0.194891c-1.90285,0.411044 -3.81987,1.16817 -5.30932,1.27093 -2.74384,0.473645 -4.41518,-0.0637827 -7.08578,-1.61228l0 -0.27521z"/>
    <path id="_129306568" class="fil34" d="M2.03396 20.9597c0.884689,-0.029529 1.75993,-0.0673261 2.6458,-0.105123 2.03278,-0.0909494 4.04193,0.0141739 6.05935,0.812638 1.09021,0.473645 2.21704,0.975639 3.31197,1.51425l1.00635 0.614203 -0.00118116 0.277573 -1.09139 -0.668537c-1.08194,-0.527979 -2.18987,-1.02879 -3.28599,-1.5107 -1.95128,-0.747675 -3.91555,-0.840986 -5.93061,-0.759486 -0.907131,0.0330725 -1.80599,0.0637827 -2.71549,0.0803189l0.00118116 -0.255131zm14.1031 3.4797c2.81825,1.64418 4.52266,2.26547 7.29839,1.88277 1.45401,-0.0425218 3.28245,-0.655544 5.09671,-0.974457l0 0.192529c-1.81426,0.327181 -3.64624,0.955559 -5.09789,1.00753 -2.79463,0.405138 -4.50258,-0.200797 -7.29721,-1.82962l0 -0.278754z"/>
    <path id="_129318704" class="fil35" d="M2.03278 21.177c0.968552,0.0106304 1.92293,-0.00118116 2.88676,-0.0318913 2.04341,-0.059058 4.04547,0.0307102 6.07943,0.777204 1.09021,0.44766 2.23476,0.928392 3.35213,1.45873l0.706334 0.426399 -0.00118116 0.281116 -0.792559 -0.479551c-1.10084,-0.523254 -2.22413,-1.00162 -3.32142,-1.45637 -1.96899,-0.698066 -3.93563,-0.774841 -5.95659,-0.725233 -0.98745,0.0248044 -1.96073,0.0271667 -2.95408,0.00118116l0.00118116 -0.251587zm14.1042 3.27063c2.94581,1.71623 4.69039,2.40839 7.51454,2.0942 1.41385,0.0118116 3.15488,-0.486638 4.88056,-0.721689l0.00118116 0.196073c-1.72804,0.242138 -3.47616,0.757124 -4.89,0.755943 -2.84187,0.331906 -4.58645,-0.341355 -7.50627,-2.04223l0 -0.282297z"/>
    <path id="_129316344" class="fil36" d="M2.0316 21.3755c1.05478,0.059058 2.08711,0.0791378 3.13126,0.0637827 2.04813,-0.0318913 4.05138,0.0425218 6.09243,0.735863 1.09139,0.419312 2.25129,0.88587 3.39702,1.40676l0.405138 0.240957 -0.00118116 0.283479 -0.489 -0.290565c-1.12801,-0.516167 -2.26665,-0.978001 -3.35922,-1.40676 -1.98907,-0.644914 -3.95571,-0.709877 -5.98966,-0.688617 -1.05832,0.00944928 -2.10601,-0.0212609 -3.18677,-0.0992175l0 -0.245681zm14.1054 3.08165c3.0722,1.78237 4.86166,2.54068 7.73188,2.30799 1.37015,0.0602392 3.02731,-0.322457 4.6644,-0.480732l0 0.191348c-1.64063,0.165362 -3.30725,0.569319 -4.6774,0.517348 -2.88794,0.259855 -4.67267,-0.485457 -7.71888,-2.25129l0 -0.28466z"/>
    <path id="_129188040" class="fil37" d="M2.0316 21.5526c1.14454,0.119297 2.25129,0.178355 3.37339,0.178355 2.05404,-0.00354348 4.05138,0.0566957 6.11132,0.700428 1.08667,0.389783 2.26665,0.836262 3.436,1.35243l0.105123 0.0614203 -0.00118116 0.28466 -0.188986 -0.111029c-1.15163,-0.510261 -2.30563,-0.953197 -3.39584,-1.35243 -2.00679,-0.595305 -3.97461,-0.643732 -6.01683,-0.650819 -1.13391,-0.00472464 -2.2572,-0.0791378 -3.42418,-0.220877l0.00118116 -0.242138zm14.1054 2.91983c3.19976,1.84025 5.03292,2.66824 7.94685,2.51469 1.32408,0.102761 2.89975,-0.168906 4.44943,-0.252768l0.00118116 0.19371c-1.55795,0.0921305 -3.14307,0.386239 -4.47187,0.285841 -2.92692,0.179536 -4.75535,-0.63074 -7.92559,-2.45563l0 -0.285841z"/>
    <path id="_129347960" class="fil38" d="M2.03041 21.7145c1.23549,0.187805 2.41547,0.294109 3.61553,0.309464 2.05876,0.0271667 4.05729,0.0720508 6.12904,0.66145 1.03233,0.340174 2.15326,0.740588 3.28245,1.21778l-0.00118116 0.272848c-1.13864,-0.483095 -2.27019,-0.892957 -3.32142,-1.25203 -2.02451,-0.548058 -3.99232,-0.578769 -6.044,-0.615385 -1.20951,-0.022442 -2.40248,-0.145283 -3.6616,-0.357892l0.00118116 -0.236232zm14.1066 2.77809c3.32497,1.88986 5.21128,2.78163 8.16654,2.71431 1.27447,0.151189 2.76864,-0.029529 4.23092,-0.0425218l0 0.161819 -0.00118116 0.0330725c-1.47409,0.022442 -2.97771,0.219696 -4.25926,0.0779566 -2.96826,0.0944928 -4.84276,-0.781928 -8.13701,-2.65761l0 -0.287022z"/>
    <path id="_67884272" class="fil39" d="M2.03041 21.8538c1.33117,0.266942 2.58438,0.428761 3.85413,0.464196 2.06821,0.0543334 4.06674,0.0815001 6.15385,0.62129 0.939023,0.285841 1.96781,0.631921 3.01905,1.04651l-0.00118116 0.272848c-1.0595,-0.420493 -2.09892,-0.77366 -3.05921,-1.07722 -2.03868,-0.494906 -4.00886,-0.514986 -6.06998,-0.581131 -1.28274,-0.0401595 -2.54658,-0.220877 -3.89783,-0.512624l0.00118116 -0.23387zm14.1066 2.65997c3.44663,1.93238 5.38609,2.8903 8.38151,2.91392 1.2225,0.186623 2.621,0.100399 3.99232,0.15237l-0.0389783 0.196073c-1.37015,-0.0377971 -2.771,0.0637827 -3.98878,-0.116935 -3.00605,0.00354348 -4.93489,-0.93666 -8.34608,-2.85723l0 -0.288203z"/>
    <path id="_61998600" class="fil40" d="M2.02923 21.9719c1.42684,0.357892 2.75447,0.582312 4.09745,0.635464 2.07412,0.0826812 4.07264,0.0992175 6.16684,0.584674 0.856341,0.238594 1.79418,0.532703 2.76273,0.890595l-0.00118116 0.27521c-0.975639,-0.36616 -1.92293,-0.666175 -2.79463,-0.918943 -2.0564,-0.445298 -4.02658,-0.448841 -6.09715,-0.542153 -1.35361,-0.0614203 -2.6895,-0.305921 -4.13406,-0.69216l0 -0.232689zm14.1078 2.57375c3.56592,1.96309 5.56445,2.98125 8.59767,3.10409 1.13982,0.217334 2.41784,0.218515 3.67577,0.318913 -0.0271667,0.0685073 -0.0578769,0.133471 -0.0944928,0.19371 -1.24022,-0.0862247 -2.50052,-0.073232 -3.62026,-0.279935 -3.04031,-0.0921305 -5.02938,-1.09375 -8.55869,-3.04503l0 -0.291747z"/>
    <path id="_69905280" class="fil41" d="M2.02923 22.0712c1.5296,0.457109 2.92219,0.754762 4.33958,0.831537 2.08239,0.108667 4.07264,0.108667 6.18574,0.546877 0.771298,0.192529 1.61937,0.438211 2.5017,0.739406l-0.00118116 0.276392c-0.889414,-0.308283 -1.74812,-0.561051 -2.53241,-0.767754 -2.07294,-0.39687 -4.04429,-0.385058 -6.1255,-0.510261 -1.42094,-0.0838624 -2.82534,-0.39687 -4.36911,-0.881146l0.00118116 -0.235051zm14.1078 2.51115l0.0177174 0.00708696c3.66987,1.98199 5.73335,3.05684 8.79965,3.28363 1.01934,0.230326 2.14381,0.305921 3.2541,0.442935 -0.0578769,0.0696885 -0.124022,0.13229 -0.198435,0.186623 -1.06186,-0.116935 -2.13081,-0.184261 -3.10409,-0.399232 -3.07692,-0.194891 -5.12387,-1.25439 -8.76894,-3.23047l0 -0.290565z"/>
    <path id="_125913208" class="fil42" d="M2.02923 22.1503c1.63118,0.569319 3.09346,0.942566 4.57936,1.04296 2.09065,0.139377 4.07855,0.126384 6.20464,0.507899 0.687435,0.158276 1.4481,0.360254 2.24302,0.609479l-0.00118116 0.274029c-0.802008,-0.256312 -1.56858,-0.464196 -2.26783,-0.629559 -2.09302,-0.34608 -4.06083,-0.321276 -6.15385,-0.472464 -1.48944,-0.108667 -2.95881,-0.501993 -4.60534,-1.0973l0.00118116 -0.235051zm14.1078 2.52296l0.318913 0.116935c3.59073,1.89812 5.69674,2.97889 8.7146,3.30134 0.851617,0.225602 1.76702,0.354348 2.68005,0.505537 -0.153551,0.0755943 -0.336631,0.118116 -0.548058,0.125203l-0.066145 0c-0.725233,-0.109848 -1.44338,-0.220877 -2.119,-0.395689 -3.04267,-0.294109 -5.1345,-1.37133 -8.73941,-3.28363l-0.240957 -0.0897682 0 -0.279935z"/>
    <path id="_126994792" class="fil43" d="M2.02923 22.2129c1.73985,0.687435 3.26709,1.14573 4.81795,1.27447 2.1001,0.167725 4.088,0.138196 6.22472,0.46774 0.609479,0.122841 1.2792,0.282297 1.98317,0.485457l-0.00118116 0.27521c-0.711059,-0.207884 -1.38668,-0.374428 -2.00561,-0.504356 -2.10601,-0.294109 -4.075,-0.255131 -6.17865,-0.438211 -1.55677,-0.133471 -3.08992,-0.611841 -4.84158,-1.32644l0.00118116 -0.23387zm14.1078 2.56312l0.618928 0.214971c3.51868,1.8119 5.66012,2.89621 8.6331,3.32497 0.52916,0.159457 1.07958,0.285841 1.63591,0.4075l-1.03824 0.00354348c-0.223239,-0.0543334 -0.444116,-0.11221 -0.66145,-0.175993 -2.98834,-0.39687 -5.11915,-1.47527 -8.64255,-3.30134l-0.545696 -0.191348 0 -0.282297z"/>
    <path id="_64370808" class="fil44" d="M2.02805 22.2542c1.8497,0.820907 3.4419,1.37251 5.06245,1.52606 2.10247,0.197254 4.08918,0.151189 6.23771,0.428761 0.531522,0.0933117 1.11383,0.217334 1.72686,0.37679l-0.00118116 0.27521c-0.617747,-0.161819 -1.2036,-0.291747 -1.74221,-0.389783 -2.12018,-0.246863 -4.09508,-0.191348 -6.20936,-0.401595 -1.61937,-0.161819 -3.21512,-0.731138 -5.07427,-1.57331l0 -0.242138zm14.109 2.63753c0.302377,0.0921305 0.609479,0.194891 0.920124,0.303558 3.4419,1.72449 5.62232,2.81589 8.5457,3.3415 0.198435,0.066145 0.400413,0.129928 0.602392,0.188986l-0.909494 0.00354348c-2.81943,-0.514986 -4.95851,-1.58512 -8.31183,-3.27654 -0.285841,-0.100399 -0.566957,-0.19371 -0.846892,-0.281116l0 -0.279935z"/>
    <path id="_126773552" class="fil45" d="M2.02805 22.2814c1.96545,0.957921 3.62026,1.60756 5.30577,1.78946 2.10837,0.227964 4.0939,0.166544 6.25543,0.392145 0.452384,0.0673261 0.944928,0.160638 1.46464,0.278754l-0.00118116 0.277573c-0.523254,-0.12166 -1.01934,-0.218515 -1.47763,-0.290565 -2.14026,-0.196073 -4.11516,-0.128746 -6.23417,-0.368522 -1.68433,-0.190167 -3.34387,-0.857523 -5.31404,-1.83552l0.00118116 -0.243319zm14.109 2.73557c0.398051,0.111029 0.806733,0.237413 1.22132,0.377971 3.31197,1.61819 5.51484,2.70486 8.32718,3.33323l-1.05478 0.00354348c-2.37768,-0.629559 -4.42226,-1.64063 -7.348,-3.07338 -0.388602,-0.13229 -0.771298,-0.251587 -1.14573,-0.357892l0 -0.283479z"/>
    <path id="_69445736" class="fil46" d="M2.02805 22.2909c2.08475,1.10439 3.79979,1.86151 5.54437,2.07176 2.11782,0.257493 4.09981,0.180718 6.27551,0.357892 0.375609,0.0448841 0.779566,0.108667 1.20596,0.191348l-0.00118116 0.277573c-0.42758,-0.0862247 -0.83508,-0.153551 -1.21305,-0.20316 -2.1568,-0.146464 -4.1317,-0.0626015 -6.26488,-0.333087 -1.74457,-0.218515 -3.46198,-0.988631 -5.54791,-2.1131l0.00118116 -0.249225zm14.109 2.86313c0.491363,0.124022 1.00162,0.270486 1.52133,0.440573 2.934,1.39141 5.0471,2.41547 7.47438,3.1348l-0.879965 0.00354348c-2.10955,-0.685073 -4.05847,-1.63 -6.66529,-2.8714 -0.496087,-0.163 -0.980363,-0.304739 -1.45047,-0.424037l0 -0.283479z"/>
    <path id="_125912632" class="fil47" d="M2.02805 22.2861c2.20405,1.25557 3.97933,2.12845 5.78651,2.36941 2.12491,0.287022 4.10099,0.19371 6.29322,0.317732 0.296471,0.029529 0.611841,0.0696885 0.944928,0.122841l-0.00118116 0.277573c-0.331906,-0.0543334 -0.648457,-0.0980363 -0.94611,-0.128746 -2.17806,-0.100399 -4.15296,0.00118116 -6.29322,-0.296471 -1.80599,-0.250406 -3.58128,-1.13273 -5.78532,-2.40721l0.00118116 -0.255131zm14.109 3.01905c0.582312,0.129928 1.19415,0.294109 1.82135,0.493725 2.63989,1.20596 4.66204,2.16861 6.83774,2.93164l-0.792559 0.00354348c-1.91348,-0.705153 -3.76318,-1.58276 -6.11487,-2.6706 -0.603573,-0.191348 -1.19179,-0.350805 -1.75166,-0.477189l0 -0.281116z"/>
    <path id="_128410616" class="fil48" d="M2.02805 22.2637c2.32925,1.41857 4.16359,2.41075 6.0251,2.68478 2.13318,0.31537 4.1128,0.207884 6.31448,0.277573 0.217334,0.0165362 0.445298,0.0389783 0.683892,0.0685073l-0.00118116 0.277573c-0.237413,-0.0318913 -0.465377,-0.0543334 -0.68153,-0.0708696 -2.19223,-0.0472464 -4.1695,0.066145 -6.32157,-0.257493 -1.86505,-0.283479 -3.69821,-1.28274 -6.02038,-2.71313l0.00118116 -0.266942zm14.109 3.20331c0.668537,0.128746 1.38432,0.304739 2.12255,0.531522 2.39539,1.0595 4.32305,1.95718 6.31448,2.73321l-0.744131 0.00236232c-1.76229,-0.703972 -3.51041,-1.51543 -5.63886,-2.46272 -0.714602,-0.220877 -1.40676,-0.392145 -2.05404,-0.519711l0 -0.28466z"/>
    <path id="_129295576" class="fil49" d="M2.02805 22.2306c2.45799,1.58394 4.34549,2.7025 6.2696,3.01196 2.13554,0.341355 4.1128,0.222058 6.32748,0.238594l0.426399 0.0259855 -0.00118116 0.281116 -0.420493 -0.0307102c-2.20759,0.00472464 -4.18603,0.133471 -6.34756,-0.22442 -1.91939,-0.313008 -3.8057,-1.43275 -6.25424,-3.02259l0 -0.279935zm14.109 3.41001c0.750037,0.119297 1.56976,0.304739 2.42374,0.55987 2.17806,0.927211 4.01004,1.75993 5.85265,2.53123l-0.713421 0.00236232c-1.62882,-0.687435 -3.27772,-1.43275 -5.20656,-2.2572 -0.829175,-0.248044 -1.62646,-0.429942 -2.35642,-0.550421l0 -0.285841z"/>
    <path id="_129207968" class="fil50" d="M2.02923 22.1857c2.59147,1.75639 4.53329,3.00723 6.50701,3.34623 2.14499,0.373247 4.12107,0.237413 6.34874,0.201978l0.165362 0.00354348 -0.00118116 0.28466 -0.155913 -0.00472464c-2.22649,0.0543334 -4.20493,0.196073 -6.37472,-0.186623 -1.9749,-0.351986 -3.91673,-1.59811 -6.49048,-3.36158l0.00118116 -0.283479zm14.1078 3.6427c0.826812,0.103942 1.7552,0.292928 2.72494,0.574044 1.98671,0.809095 3.72184,1.57685 5.43688,2.33043l-0.706334 0.00236232c-1.50834,-0.659088 -3.04976,-1.33707 -4.79433,-2.05522 -0.948472,-0.276392 -1.85324,-0.459471 -2.66115,-0.563414l0 -0.288203z"/>
    <path id="_129315440" class="fil51" d="M2.02923 22.129c2.7273,1.93474 4.71992,3.32024 6.74915,3.69821 2.12491,0.392145 4.0691,0.251587 6.27078,0.165362l-0.00118116 0.285841c-2.19814,0.103942 -4.14705,0.248044 -6.2944,-0.155913 -2.02923,-0.383877 -4.01831,-1.76583 -6.72553,-3.70058l0.00118116 -0.292928zm14.1078 3.90255c0.896501,0.0779566 1.93356,0.26458 3.02495,0.571682 1.81072,0.70279 3.44426,1.40558 5.04474,2.12963l-0.70279 0.00236232c-1.39613,-0.620109 -2.83242,-1.23431 -4.40691,-1.85206 -1.07013,-0.298834 -2.0812,-0.483095 -2.95999,-0.562232l0 -0.289384z"/>
    <path id="_129330720" class="fil52" d="M2.02923 22.0558c2.86786,2.12255 4.9089,3.6486 6.98893,4.06319 2.04813,0.406319 3.92145,0.278754 6.02982,0.147645l-0.00118116 0.289384c-2.10719,0.147645 -3.98878,0.27521 -6.05817,-0.140558 -2.07766,-0.419312 -4.12225,-1.9371 -6.96058,-4.05138l0.00118116 -0.308283zm14.1078 4.1943c0.957921,0.0437029 2.10483,0.222058 3.32615,0.552783 1.64654,0.607116 3.17614,1.24376 4.66677,1.93002l-0.701609 0.00236232c-1.28746,-0.575225 -2.61273,-1.11974 -4.02894,-1.64536 -1.19888,-0.327181 -2.32216,-0.505537 -3.26237,-0.550421l0 -0.289384z"/>
    <path id="_129310264" class="fil53" d="M2.02923 21.9767c3.0096,2.30917 5.10025,3.98524 7.23343,4.43526 1.96781,0.415768 3.77263,0.303558 5.78414,0.137015l-0.00118116 0.296471c-2.01624,0.178355 -3.82696,0.289384 -5.82194,-0.135833 -2.12845,-0.455928 -4.21674,-2.11428 -7.19563,-4.41045l0.00118116 -0.322457zm14.1078 4.50731c1.01225,0 2.27137,0.164181 3.62616,0.520892 1.48826,0.518529 2.91038,1.09021 4.29588,1.72804l-0.705153 0.00236232c-1.17998,-0.522073 -2.38949,-0.996899 -3.65215,-1.43865 -1.33235,-0.354348 -2.57257,-0.518529 -3.56474,-0.519711l0 -0.292928z"/>
    <path id="_129320984" class="fil54" d="M2.03041 21.8857c3.15252,2.50288 5.29278,4.32777 7.46966,4.81677 1.89104,0.424037 3.62616,0.330725 5.54555,0.140558l-0.00118116 0.301196c-1.92411,0.198435 -3.66868,0.290565 -5.58453,-0.14292 -2.17806,-0.493725 -4.31596,-2.29854 -7.43068,-4.78488l0.00118116 -0.330725zm14.1066 4.85103c1.0536,-0.0578769 2.43201,0.088587 3.92618,0.470102 1.3418,0.438211 2.65289,0.942566 3.93326,1.52724l-0.721689 0.00236232c-1.07013,-0.461834 -2.15916,-0.872878 -3.26945,-1.23904 -1.47881,-0.37679 -2.8336,-0.519711 -3.8683,-0.464196l0 -0.296471z"/>
    <path id="_129347168" class="fil55" d="M2.03041 21.79l0.173631 0.140558c3.20685,2.6269 5.35184,4.54747 7.53699,5.06718 1.81426,0.426399 3.47616,0.353167 5.30341,0.146464l-0.00118116 0.307102c-1.83434,0.210247 -3.51041,0.283479 -5.34593,-0.154732 -2.21704,-0.526798 -4.3951,-2.47099 -7.62675,-5.12624l-0.0413406 -0.0342537 0.00118116 -0.34608zm14.1066 5.22073l0.0437029 -0.0059058c1.07486,-0.122841 2.55839,0 4.18367,0.405138 1.19652,0.361435 2.39185,0.799646 3.5671,1.32408l-0.748856 0.00236232c-0.949653,-0.395689 -1.91112,-0.738225 -2.87376,-1.03115 -1.59811,-0.398051 -3.04503,-0.516167 -4.09745,-0.400413l-0.0744131 0.00944928 0 -0.303558z"/>
    <path id="_129356872" class="fil56" d="M2.03041 21.6885c0.116935,0.088587 0.23387,0.184261 0.351986,0.283479 3.25292,2.75447 5.40853,4.76953 7.59959,5.31758 1.73512,0.429942 3.32615,0.379153 5.06127,0.166544l-0.00118116 0.308283c-1.74457,0.214971 -3.34977,0.265761 -5.10852,-0.177174 -2.22885,-0.555145 -4.41282,-2.5891 -7.69762,-5.37074l-0.206703 -0.170087 0.00118116 -0.357892zm14.1066 5.61878l0.304739 -0.0460653c1.07249,-0.151189 2.57139,-0.0472464 4.22383,0.348442 1.05241,0.296471 2.12609,0.667356 3.18913,1.12446l-0.780747 0.00236232c-0.82445,-0.324819 -1.65126,-0.598848 -2.46626,-0.827994 -1.62055,-0.388602 -3.08283,-0.491363 -4.13288,-0.34608l-0.337812 0.0507899 0 -0.305921z"/>
    <path id="_129533032" class="fil57" d="M2.0316 21.5893c0.172449,0.13229 0.347261,0.274029 0.523254,0.42758 3.30725,2.87613 5.46877,4.98804 7.66809,5.56445 1.65717,0.431124 3.17732,0.400413 4.81913,0.188986l-0.00118116 0.313008c-1.65481,0.21379 -3.1915,0.240957 -4.87583,-0.199616 -2.23594,-0.583493 -4.43053,-2.71785 -7.76849,-5.62232 -0.122841,-0.107486 -0.245681,-0.209065 -0.367341,-0.304739l0.00236232 -0.367341zm14.1054 6.02038l0.562232 -0.0944928c1.07249,-0.179536 2.59147,-0.095674 4.26517,0.296471 0.916581,0.230326 1.86269,0.536247 2.8088,0.922486l-0.839805 0.00354348c-0.682711,-0.249225 -1.3607,-0.455928 -2.02215,-0.624834 -1.64654,-0.381515 -3.12535,-0.465377 -4.17304,-0.292928l-0.601211 0.10158 0 -0.311826z"/>
   </g>
   <g>
    <path id="_129557432" class="fil58" d="M28.5038 7.4047l-0.318913 0.00944928c-2.42965,0.0212609 -4.63015,0.0188986 -6.60505,0.0212609 -2.08947,-0.0637827 -3.90019,-0.115754 -5.4983,-0.0933117l0 -0.63074c1.60165,-0.0200797 3.41355,0.0318913 5.49948,0.095674 1.95246,-0.00236232 4.12343,0.00118116 6.59796,-0.0153551l0.150007 -0.00236232c0.100399,0.166544 0.159457,0.373247 0.174812,0.615385zm-13.4546 -0.036616c-5.99911,0.229145 -8.88823,1.84497 -12.9573,8.77957l-0.107486 0.174812 -0.00236232 -0.0401595 0.00118116 0 0 -0.00354348 -0.00118116 0 0.00354348 -0.863428c4.08209,-6.86727 7.02436,-8.45947 13.066,-8.68035l-0.00236232 0.633102z"/>
    <path id="_129580080" class="fil59" d="M28.4979 7.31847c-0.242138,0.029529 -0.486638,0.0519711 -0.734682,0.066145 -2.39657,0.0897682 -4.58881,0.172449 -6.57906,0.261036 -1.92057,-0.036616 -3.60254,-0.0637827 -5.10261,-0.0318913l0 -0.631921c1.50125,-0.029529 3.18087,-0.00118116 5.09553,0.036616 1.96663,-0.0838624 4.13052,-0.164181 6.57316,-0.251587 0.178355,-0.0106304 0.35671,-0.0259855 0.533885,-0.0460653 0.113391,0.159457 0.186623,0.359073 0.21379,0.597667zm-13.4499 0.328363c-6.06408,0.266942 -9.00635,1.82489 -13.066,8.54097l0.00354348 -0.907131c4.01949,-6.50819 7.01373,-8.01536 13.0648,-8.26812l-0.00236232 0.634283z"/>
    <path id="_129585744" class="fil60" d="M28.4766 7.18854c-0.372066,0.0744131 -0.750037,0.127565 -1.13037,0.163 -2.36586,0.161819 -4.55337,0.333087 -6.5578,0.504356 -1.75402,-0.0129928 -3.30843,-0.0188986 -4.70692,0.022442l0 -0.633102c1.39613,-0.0389783 2.94581,-0.0307102 4.69039,-0.0165362 1.98199,-0.168906 4.13997,-0.334268 6.54717,-0.489 0.29529,-0.0283479 0.587037,-0.0708696 0.876421,-0.125203 0.140558,0.145283 0.235051,0.338993 0.281116,0.574044zm-13.4286 0.729957c-6.06644,0.305921 -9.06659,1.78591 -13.0648,8.13229l0.00354348 -0.884689c3.95925,-6.15975 7.00546,-7.59132 13.0636,-7.88188l-0.00236232 0.634283z"/>
    <path id="_129608200" class="fil61" d="M28.4329 7.01727c-0.493725,0.133471 -0.995718,0.236232 -1.50716,0.303558 -2.33752,0.235051 -4.51558,0.492544 -6.533,0.745312 -1.58984,0.00708696 -3.01668,0.0200797 -4.31124,0.0696885l0 -0.634283c1.28865,-0.0460653 2.70722,-0.0566957 4.28525,-0.0626015 1.99616,-0.250406 4.14824,-0.501993 6.51764,-0.724051 0.392145,-0.0543334 0.778385,-0.13229 1.15872,-0.231507 0.18308,0.126384 0.314189,0.304739 0.389783,0.533885zm-13.3861 1.16817c-6.06998,0.349624 -9.12446,1.76111 -13.0636,7.76377l0.00354348 -0.87524c3.9061,-5.82903 7.00192,-7.19445 13.0625,-7.52635l-0.00236232 0.637827z"/>
    <path id="_129620712" class="fil62" d="M28.3443 6.8153c-0.598848,0.209065 -1.21305,0.368522 -1.84143,0.473645 -2.3009,0.303558 -4.47424,0.649638 -6.50583,0.989812 -1.43039,0.0236232 -2.7273,0.0543334 -3.91555,0.109848l0 -0.637827c1.17998,-0.0519711 2.46626,-0.0791378 3.88247,-0.100399 2.00797,-0.331906 4.1565,-0.669718 6.48811,-0.961465 0.452384,-0.0826812 0.896501,-0.19371 1.33353,-0.333087 0.249225,0.088587 0.437029,0.2445 0.558689,0.459471zm-13.2987 1.63c-6.06998,0.395689 -9.17525,1.75166 -13.0625,7.43068l0.00354348 -0.868153c3.85413,-5.5172 7.00074,-6.82593 13.0613,-7.20272l-0.00236232 0.640189z"/>
    <path id="_129630128" class="fil63" d="M28.1884 6.60623c-0.683892,0.282297 -1.38432,0.503174 -2.10365,0.652001 -2.26901,0.377971 -4.43644,0.806733 -6.48221,1.23195 -1.27447,0.0377971 -2.44146,0.0791378 -3.52104,0.140558l0 -0.639008c1.06895,-0.059058 2.22294,-0.0980363 3.4797,-0.133471 2.02097,-0.413406 4.16359,-0.833899 6.46095,-1.19888 0.448841,-0.100399 0.890595,-0.230326 1.32644,-0.386239 0.361435,0.0200797 0.643732,0.133471 0.839805,0.333087zm-13.144 2.09184c-6.06408,0.44766 -9.2225,1.75402 -13.0601,7.12004l0.00354348 -0.857523c3.80806,-5.21719 7.00192,-6.4763 13.0589,-6.90506l-0.00236232 0.642551z"/>
    <path id="_129648768" class="fil64" d="M27.9274 6.41606c-0.734682,0.342537 -1.48944,0.616566 -2.26665,0.810276 -2.23121,0.44766 -4.39274,0.966189 -6.45622,1.47054 -1.11856,0.0484276 -2.15562,0.100399 -3.12299,0.165362l0 -0.639008c0.953197,-0.0614203 1.9749,-0.108667 3.07456,-0.154732 2.03514,-0.494906 4.17186,-1.00399 6.4326,-1.43157 0.381515,-0.103942 0.759486,-0.225602 1.13155,-0.367341l0.511442 0c0.272848,0 0.505537,0.0496087 0.695704,0.146464zm-12.8841 2.52414c-6.05463,0.505537 -9.26384,1.77056 -13.0589,6.84483l0.00354348 -0.849254c3.76554,-4.93843 7.00783,-6.15857 13.0577,-6.6393l-0.00236232 0.643732z"/>
    <path id="_129656568" class="fil65" d="M27.5104 6.2885c-0.735863,0.373247 -1.49299,0.679167 -2.27019,0.907131 -2.19814,0.518529 -4.35612,1.12565 -6.43378,1.71505 -0.96737,0.0555145 -1.87332,0.11221 -2.72494,0.179536l0 -0.64137c0.837443,-0.0626015 1.72449,-0.115754 2.66942,-0.167725 2.04931,-0.581131 4.18013,-1.17171 6.4078,-1.67134 0.318913,-0.100399 0.633102,-0.214971 0.94611,-0.341355l1.12683 0.00118116c0.0980363,0 0.191348,0.0059058 0.278754,0.0188986zm-12.4671 2.8903c-6.04164,0.562232 -9.30282,1.793 -13.0589,6.5956l0.00354348 -0.84453c3.72774,-4.67385 7.01964,-5.85974 13.0577,-6.39717l-0.00236232 0.646095z"/>
    <path id="_129677112" class="fil66" d="M26.8927 6.2696c-0.673261,0.355529 -1.36424,0.655544 -2.07294,0.894138 -2.16743,0.589399 -4.3195,1.28156 -6.40898,1.95836 -0.818544,0.0578769 -1.59339,0.118116 -2.32925,0.18308l0 -0.642551c0.716964,-0.0614203 1.47173,-0.116935 2.26665,-0.171268 2.06113,-0.662631 4.18249,-1.34062 6.37945,-1.91112 0.265761,-0.095674 0.52916,-0.199616 0.790196,-0.314189l1.37487 0.00354348zm-11.8506 3.13598c-6.02628,0.622472 -9.33471,1.83198 -13.0577,6.37945l0.00354348 -0.843349c3.69585,-4.42699 7.03145,-5.59043 13.0565,-6.18456l-0.00236232 0.648457z"/>
    <path id="_129804680" class="fil67" d="M26.2584 6.26842c-0.605935,0.334268 -1.22486,0.623653 -1.85915,0.864609 -2.13436,0.660269 -4.27816,1.4422 -6.38417,2.19932 -0.673261,0.0578769 -1.31699,0.116935 -1.93356,0.179536l0 -0.648457c0.596486,-0.0578769 1.21541,-0.11221 1.86387,-0.166544 2.07294,-0.741769 4.18958,-1.50244 6.34874,-2.14026 0.222058,-0.0897682 0.442935,-0.187805 0.66145,-0.290565l1.30282 0.00236232zm-11.2175 3.35568c-6.00974,0.687435 -9.36542,1.88041 -13.0565,6.19164l0.00354348 -0.837443c3.6675,-4.19666 7.04798,-5.34593 13.0554,-6.00738l-0.00236232 0.653182z"/>
    <path id="_129845176" class="fil68" d="M25.6418 6.26842c-0.544515,0.313008 -1.09848,0.592943 -1.66307,0.83508 -2.1001,0.729957 -4.23919,1.59811 -6.35819,2.4391l-1.53905 0.165362 0 -0.647276 1.45873 -0.151189c2.08947,-0.825631 4.19903,-1.67252 6.32275,-2.38122 0.184261,-0.0826812 0.368522,-0.171268 0.550421,-0.263399l1.22841 0.00354348zm-10.6009 3.56474c-5.98848,0.757124 -9.39259,1.94183 -13.0577,6.02982l0.00354348 -0.830356c3.64388,-3.98642 7.0657,-5.12742 13.0565,-5.85383l-0.00236232 0.654363z"/>
    <path id="_129853728" class="fil69" d="M25.0441 6.26606c-0.486638,0.296471 -0.982726,0.565776 -1.48944,0.806733 -2.06349,0.802008 -4.19903,1.75757 -6.33102,2.6836l-1.14218 0.138196 0 -0.649638 1.05478 -0.124022c2.10247,-0.907131 4.20611,-1.83907 6.29322,-2.61981l0.451203 -0.236232 1.16344 0.00118116zm-10.0044 3.76672c-5.96604,0.82445 -9.40912,2.01152 -13.0565,5.89753l0.00354348 -0.830356c3.62144,-3.78916 7.08578,-4.92898 13.0554,-5.72272l-0.00236232 0.655544z"/>
    <path id="_129868768" class="fil70" d="M24.4701 6.26606c-0.437029,0.279935 -0.882327,0.538609 -1.33589,0.776022 -2.03041,0.870515 -4.15887,1.91348 -6.30503,2.92337l-0.747675 0.102761 0 -0.652001 0.649638 -0.0862247c2.11546,-0.988631 4.21674,-2.00561 6.2696,-2.85368l0.370884 -0.211428 1.09848 0.00118116zm-9.43039 3.95334c-5.94124,0.901225 -9.42684,2.09184 -13.0565,5.79241l0.00354348 -0.825631c3.60372,-3.61081 7.10822,-4.75653 13.0554,-5.62351l-0.00236232 0.656725z"/>
    <path id="_129896184" class="fil71" d="M23.9091 6.26488c-0.392145,0.265761 -0.790196,0.513805 -1.19415,0.744131 -1.99734,0.942566 -4.11989,2.07412 -6.28141,3.16787l-0.351986 0.0531522 0 -0.654363 0.2445 -0.036616c2.13318,-1.07131 4.22619,-2.17452 6.24243,-3.08992l0.300015 -0.185442 1.0406 0.00118116zm-8.87052 4.1317c-5.91407,0.975639 -9.44102,2.18278 -13.0554,5.71327l0.00236232 -0.82445c3.59073,-3.44781 7.13421,-4.60889 13.0554,-5.55027l-0.00236232 0.66145z"/>
    <path id="_129884344" class="fil72" d="M23.3634 6.26488c-0.351986,0.252768 -0.708696,0.489 -1.07013,0.714602 -1.95246,1.00635 -4.05256,2.21468 -6.21172,3.38521l0 -0.700428c2.08947,-1.12801 4.11989,-2.27964 6.05227,-3.24347l0.237413 -0.157094 0.992175 0.00118116zm-8.32482 4.29706c-5.8869,1.05478 -9.45283,2.28436 -13.0565,5.65894l0.00354348 -0.82445c3.58364,-3.29898 7.16374,-4.48014 13.0554,-5.49712l-0.00236232 0.662631z"/>
    <path id="_129896608" class="fil73" d="M22.8295 6.26369c-0.316551,0.237413 -0.634283,0.465377 -0.957921,0.683892 -1.80127,1.01107 -3.75609,2.21349 -5.79005,3.39347l0 -0.70279c1.95836,-1.13391 3.8435,-2.27964 5.61996,-3.23992l0.190167 -0.135833 0.937841 0.00118116zm-7.79212 4.44825c-5.85383,1.13628 -9.45519,2.39185 -13.0518,5.62823l-0.00354348 -0.0578769 0.00118116 0 0 -0.00354348 -0.00118116 0 0.00354348 -0.757124c3.57419,-3.16551 7.18972,-4.37147 13.0542,-5.47114l-0.00236232 0.66145z"/>
    <path id="_129912384" class="fil74" d="M22.3086 6.26369c-0.283479,0.225602 -0.568138,0.442935 -0.856341,0.653182 -1.65599,1.00753 -3.47143,2.19696 -5.37074,3.37694l0 -0.716964c1.82017,-1.12801 3.56238,-2.24775 5.19002,-3.20449l0.141739 -0.109848 0.89532 0.00118116zm-7.27122 4.58881c-5.80777,1.2166 -9.4422,2.5076 -13.0282,5.60343 -0.0177174,-0.0543334 -0.0271667,-0.114573 -0.0271667,-0.173631l0.00118116 0 0 -0.00354348 -0.00118116 0 0.00236232 -0.623653c3.57183,-3.04503 7.22162,-4.28407 13.0554,-5.46759l-0.00236232 0.664993z"/>
    <path id="_129924464" class="fil75" d="M21.7971 6.26251c-0.25395,0.212609 -0.50908,0.421674 -0.767754,0.622472 -1.51425,0.999262 -3.18323,2.16152 -4.94788,3.32969l0 -0.725233c1.68079,-1.10911 3.27654,-2.20641 4.7589,-3.14543l0.0980363 -0.0826812 0.858704 0.00118116zm-6.76096 4.63724l-0.187805 0.12166c-5.64122,1.2851 -9.26266,2.61036 -12.7931,5.54082 -0.0460653,-0.0838624 -0.073232,-0.179536 -0.073232,-0.279935l0.00118116 0 0 -0.00354348 -0.00118116 0 0.00236232 -0.47837c3.5045,-2.88085 7.10941,-4.17304 12.727,-5.41916l0.328363 -0.211428 -0.00354348 0.729957z"/>
    <path id="_129951632" class="fil76" d="M21.294 6.26251c-0.226783,0.201978 -0.454747,0.399232 -0.686254,0.592943 -1.37605,0.97682 -2.90211,2.10601 -4.52621,3.25055l0 -0.738225c1.53551,-1.0784 2.98715,-2.13318 4.32659,-3.04858l0.066145 -0.0578769 0.819725 0.00118116zm-6.25661 4.57227l-0.585856 0.399232c-5.34948,1.33117 -8.89886,2.69541 -12.329,5.42861 -0.0874059,-0.102761 -0.140558,-0.237413 -0.140558,-0.380334l0.00118116 0 0 -0.00354348 -0.00118116 0 0.00118116 -0.327181c3.41946,-2.72612 6.9653,-4.05965 12.323,-5.36011l0.733501 -0.499631 -0.00236232 0.74295z"/>
    <path id="_129970416" class="fil77" d="M20.7967 6.26133l-0.608298 0.561051c-1.24612,0.948472 -2.62808,2.03396 -4.1069,3.14189l0 -0.747675c1.38904,-1.03588 2.69659,-2.04341 3.8931,-2.92573l0.0330725 -0.0307102 0.789015 0.00118116zm-5.75934 4.4766l-0.981544 0.707515c-5.05182,1.36897 -8.51617,2.76037 -11.8376,5.30814l-0.0602392 -0.0543334c-0.107486,-0.106304 -0.175993,-0.256312 -0.175993,-0.41695l0.00118116 0 0 -0.00354348 -0.00118116 0 0.00118116 -0.166544c3.33914,-2.58084 6.81411,-3.95807 11.9191,-5.30814 0.383877,-0.271667 0.764211,-0.545696 1.13746,-0.818544l-0.00236232 0.752399z"/>
    <path id="_129974296" class="fil78" d="M20.3124 6.26133c-0.179536,0.180718 -0.363797,0.355529 -0.546877,0.530341 -1.11383,0.908312 -2.35287,1.93828 -3.68404,2.9966l0 -0.758305c1.23904,-0.978001 2.39894,-1.92647 3.46198,-2.76628l0.00354348 -0.00354348 0.765392 0.00118116zm-5.27506 4.34549c-0.451203,0.349624 -0.909494,0.698066 -1.37605,1.04533 -4.74354,1.39849 -8.11103,2.81471 -11.312,5.17703 -0.073232,-0.0307102 -0.137015,-0.0755943 -0.191348,-0.129928 -0.107486,-0.106304 -0.175993,-0.256312 -0.175993,-0.41695l0.00118116 0 0 -0.00354348 -0.00118116 0c3.25292,-2.45209 6.66056,-3.8683 11.5163,-5.26798 0.524435,-0.387421 1.03942,-0.778385 1.5426,-1.16817l-0.00354348 0.764211z"/>
    <path id="_129993528" class="fil79" d="M19.8281 6.26015l-0.480732 0.49845c-0.986269,0.862247 -2.08357,1.82726 -3.26591,2.82297l0 -0.772479c1.07722,-0.900044 2.08357,-1.7682 3.00605,-2.54894l0.740588 0zm-4.78961 4.1884c-0.575225,0.471283 -1.16699,0.94611 -1.77292,1.41503 -4.42108,1.41149 -7.66219,2.83124 -10.7285,5.01048 -0.144102,-0.00944928 -0.281116,-0.0755943 -0.379153,-0.174812 -0.073232,-0.0720508 -0.127565,-0.164181 -0.155913,-0.265761 3.16551,-2.32334 6.48457,-3.77617 11.0911,-5.21246 0.668537,-0.514986 1.31818,-1.0347 1.94773,-1.55086l-0.00236232 0.778385z"/>
    <path id="_130014720" class="fil80" d="M19.3545 6.26015l-0.426399 0.468921c-0.859885,0.799646 -1.81544,1.6867 -2.8466,2.608l0 -0.786653c0.910675,-0.806733 1.76111,-1.58276 2.54304,-2.29145l0.729957 0.00118116zm-4.31596 3.99587c-0.695704,0.604754 -1.41975,1.21541 -2.16861,1.81899 -4.07264,1.40322 -7.16256,2.80998 -10.0682,4.80024l-0.22442 0 0 -0.00236232 -0.00472464 0 0 0.00236232c-0.158276,0 -0.308283,-0.0685073 -0.414587,-0.175993 -0.0389783,-0.0389783 -0.0720508,-0.0826812 -0.0992175,-0.131109 3.06511,-2.19932 6.28732,-3.67105 10.6316,-5.13805 0.815001,-0.655544 1.60047,-1.31699 2.35169,-1.96899l-0.00354348 0.794921z"/>
    <path id="_130009624" class="fil81" d="M18.8832 6.25897l-0.37679 0.438211c-0.734682,0.731138 -1.54732,1.53078 -2.42492,2.36114l0 -0.802008c0.746493,-0.700428 1.44574,-1.37369 2.09065,-1.99734l0.711059 0zm-3.8435 3.77145c-0.812638,0.746493 -1.67252,1.50716 -2.56902,2.2572 -3.72538,1.38314 -6.65111,2.76628 -9.39141,4.58763l-0.501993 0 0 -0.00236232 -0.00472464 0 0 0.00236232c-0.158276,0 -0.308283,-0.0685073 -0.414587,-0.175993l-0.0153551 -0.0153551c2.9529,-2.07412 6.06408,-3.55766 10.1438,-5.04119 0.965008,-0.806733 1.88749,-1.6241 2.75683,-2.42138l-0.00354348 0.809095z"/>
    <path id="_130022928" class="fil82" d="M18.4178 6.25897l-0.334268 0.408682c-0.609479,0.646095 -1.28038,1.34298 -2.00207,2.06821l0 -0.816182c0.581131,-0.57995 1.13037,-1.13864 1.64181,-1.66189l0.694522 0.00118116zm-3.37694 3.50568c-0.924849,0.898863 -1.9182,1.82371 -2.96353,2.73202 -3.39111,1.35597 -6.14085,2.70722 -8.71106,4.37856l-0.789015 0 0 -0.00236232 -0.00472464 0 0 0.00236232c-0.11221,0 -0.219696,-0.0354348 -0.311826,-0.0933117 2.83124,-1.95364 5.81485,-3.43954 9.62055,-4.92898 1.1221,-0.970914 2.1816,-1.95836 3.16197,-2.91038l-0.00236232 0.822088z"/>
    <path id="_130119920" class="fil83" d="M17.9548 6.25897l-0.289384 0.377971c-0.487819,0.546877 -1.01698,1.12919 -1.58394,1.73394l0 -0.833899c0.41695,-0.441754 0.815001,-0.870515 1.18943,-1.2792l0.683892 0.00118116zm-2.91274 3.20331c-1.02997,1.06068 -2.15916,2.16389 -3.36158,3.24701 -3.06629,1.31581 -5.62587,2.62926 -8.0248,4.16595l-1.0784 0 0 -0.00236232 -0.00472464 0 0 0.00236232c-0.0531522,0 -0.103942,-0.00826812 -0.154732,-0.022442 2.69659,-1.8308 5.53728,-3.30607 9.06068,-4.78961 1.2851,-1.15281 2.48044,-2.32807 3.56592,-3.44426l-0.00236232 0.843349z"/>
    <path id="_130133456" class="fil84" d="M17.4965 6.25779l-0.25395 0.347261c-0.361435,0.431124 -0.750037,0.884689 -1.16108,1.35243l0 -0.851617 0.741769 -0.848073 0.673261 0zm-2.45327 2.85723c-1.12683,1.23077 -2.39185,2.53241 -3.75963,3.80452 -2.76155,1.27093 -5.12506,2.53477 -7.35154,3.95453l-1.28392 0.00118116c2.53477,-1.70205 5.20656,-3.14661 8.4264,-4.60298 1.45637,-1.35125 2.79226,-2.72848 3.97224,-4.01595l-0.00354348 0.858704z"/>
    <path id="_62587088" class="fil85" d="M17.0418 6.25779l-0.220877 0.318913c-0.235051,0.296471 -0.480732,0.603573 -0.739406,0.918943l0 -0.879965 0.29529 -0.359073 0.664993 0.00118116zm-1.99734 2.47217c-1.21305,1.41031 -2.61509,2.92337 -4.1565,4.39982 -2.47217,1.21896 -4.64078,2.43083 -6.69127,3.74428l-1.28865 0.00118116c2.36468,-1.57685 4.84984,-2.97889 7.76141,-4.39155 1.63827,-1.5674 3.11472,-3.17023 4.37856,-4.6396l-0.00354348 0.88587zm-12.6183 9.3229l-0.232689 0.160638 0.0259855 -0.0271667c0.0578769,-0.0578769 0.128746,-0.103942 0.206703,-0.133471z"/>
    <path id="_130172744" class="fil86" d="M16.5906 6.25661l-0.187805 0.285841 -0.321276 0.425218 0 -0.474827c0,-0.0838624 0.0200797,-0.164181 0.0555145,-0.236232l0.453566 0zm-1.54496 2.0316c-1.28865,1.59929 -2.83006,3.34859 -4.55219,5.05419 -2.19932,1.16108 -4.17304,2.31507 -6.05227,3.53167l-1.28628 0.00118116c2.19223,-1.467 4.48605,-2.81943 7.11059,-4.18131 1.82844,-1.80599 3.44899,-3.65805 4.7837,-5.31404l-0.00354348 0.908312zm-12.3065 9.72331l-0.683892 0.476008c0.0248044,-0.115754 0.0838624,-0.220877 0.164181,-0.301196 0.107486,-0.106304 0.256312,-0.173631 0.420493,-0.173631l0 -0.00118116 0.0992175 0z"/>
    <path id="_130192560" class="fil87" d="M16.1406 6.25661l-0.0129928 0.0212609 0.00944928 -0.0212609 0.00354348 0zm-1.09257 1.53551c-1.3477,1.79418 -3.03322,3.8057 -4.95261,5.75934 -1.94537,1.10202 -3.72774,2.1946 -5.4357,3.3226l-1.27565 0.00118116c2.01978,-1.36778 4.12461,-2.66352 6.47512,-3.97106 2.03986,-2.07294 3.80806,-4.20257 5.19238,-6.05227l-0.00354348 0.940204zm-12.0703 10.2194l-0.934298 0.657906 0 -0.0626015c0,-0.161819 0.0685073,-0.313008 0.175993,-0.420493 0.107486,-0.106304 0.256312,-0.173631 0.420493,-0.173631l0 -0.00118116 0.337812 0z"/>
    <path id="_68929592" class="fil88" d="M15.0503 7.22634c-1.3855,1.9938 -3.2163,4.30415 -5.35066,6.53772 -1.71505,1.03706 -3.31316,2.06467 -4.85575,3.11l-1.25085 0.00118116c1.85206,-1.27565 3.76908,-2.51233 5.86328,-3.76082 2.25129,-2.35405 4.16005,-4.78606 5.56563,-6.8153 0.0200797,0.0578769 0.0307102,0.120478 0.0307102,0.184261l-0.00236232 0 0 0.00472464 0.00236232 0 -0.00236232 0.738225zm-11.8518 10.7852l-1.15636 0.822088 0.00118116 -0.226783c0,-0.161819 0.0685073,-0.313008 0.175993,-0.420493 0.107486,-0.106304 0.256312,-0.173631 0.420493,-0.173631l0 -0.00118116 0.558689 0z"/>
    <path id="_130211464" class="fil89" d="M15.0527 6.58261c-1.39259,2.19814 -3.37458,4.8404 -5.74753,7.39525 -1.50007,0.96737 -2.92337,1.92765 -4.30415,2.89621l-1.22604 0c1.68433,-1.19179 3.41828,-2.36586 5.27743,-3.54939 2.27728,-2.44264 4.18485,-4.96324 5.56208,-7.06925l0.390964 0c0.0307102,0.0708696 0.0472464,0.147645 0.0472464,0.227964l-0.00236232 0 0 0.00472464 0.00236232 0 0 0.0944928zm-11.6521 11.4289l-1.35833 0.986269 0.00118116 -0.390964c0,-0.161819 0.0685073,-0.313008 0.175993,-0.420493 0.107486,-0.106304 0.256312,-0.173631 0.420493,-0.173631l0 -0.00118116 0.760667 0z"/>
    <path id="_130228928" class="fil90" d="M14.8047 6.25543l-0.0897682 0.163c-1.36306,2.29145 -3.37339,5.08017 -5.80658,7.76613 -1.30518,0.901225 -2.55839,1.79536 -3.78562,2.6895l-1.1977 0c1.5237,-1.11265 3.08165,-2.2194 4.72346,-3.33914 2.28555,-2.51823 4.18013,-5.11206 5.52783,-7.28067l0.628377 0.00118116zm-11.2305 11.7561l-1.53315 1.13982 0.00236232 -0.544515c0,-0.161819 0.0685073,-0.313008 0.175993,-0.420493 0.107486,-0.106304 0.256312,-0.173631 0.420493,-0.173631l0 -0.00118116 0.934298 0z"/>
    <path id="_130240832" class="fil91" d="M14.3641 6.25424l-0.0673261 0.13229c-1.33235,2.36232 -3.33914,5.23845 -5.78414,8.00945 -1.12565,0.831537 -2.22058,1.65717 -3.30134,2.47807l-1.16817 0c1.37015,-1.03706 2.75919,-2.07766 4.20257,-3.13008 2.28909,-2.58674 4.17776,-5.25735 5.49358,-7.48974l0.624834 0zm-10.6458 11.7573l-1.67725 1.28274 0.00236232 -0.687435c0,-0.0909494 0.0212609,-0.178355 0.0602392,-0.257493l0.428761 -0.327181 0.107486 -0.00944928 0 -0.00118116 1.0784 0z"/>
    <path id="_130256632" class="fil92" d="M13.9247 6.25424l-0.0496087 0.102761c-1.2981,2.43437 -3.29544,5.39554 -5.75934,8.25277 -0.965008,0.760667 -1.91348,1.51425 -2.85486,2.26428l-1.12801 0c1.21896,-0.963827 2.44736,-1.93474 3.70648,-2.91747 2.29972,-2.66588 4.18249,-5.40853 5.46641,-7.70353l0.618928 0.00118116zm-10.0918 11.7573l-1.793 1.41621 0.00354348 -0.820907 0.00708696 -0.0921305 0.64137 -0.503174 1.141 0z"/>
    <path id="_130274904" class="fil93" d="M13.4853 6.25424l-0.0330725 0.0708696c-1.26384,2.50524 -3.25292,5.55618 -5.73099,8.49018l-2.44264 2.05876 -1.09257 0c1.07958,-0.892957 2.15916,-1.79655 3.25055,-2.7084 2.30563,-2.73202 4.17776,-5.55145 5.42979,-7.91259l0.618928 0.00118116zm-9.56976 11.7573c-0.623653,0.518529 -1.24849,1.03115 -1.87568,1.53905l0.00354348 -0.920124 0.761849 -0.618928 1.11029 0z"/>
    <path id="_130295528" class="fil94" d="M13.0506 6.25306l-0.0177174 0.0389783c-1.23195,2.57965 -3.2163,5.71327 -5.70855,8.73823 -0.686254,0.618928 -1.37133,1.23431 -2.05994,1.84379l-1.0595 0c0.944928,-0.823269 1.88513,-1.65953 2.82888,-2.50052 2.31389,-2.80171 4.17776,-5.69556 5.40027,-8.12048l0.616566 0zm-9.08076 11.7585c-0.640189,0.557508 -1.28274,1.10675 -1.9312,1.6489l0.00472464 -0.931936 0.845711 -0.716964 1.08076 0z"/>
    <path id="_130345040" class="fil95" d="M12.6148 6.25306l-0.00472464 0.00944928c-1.19533,2.64698 -3.17614,5.87155 -5.6802,8.97682 -0.569319,0.548058 -1.13982,1.09494 -1.71623,1.63473l-1.02052 0c0.819725,-0.75358 1.63,-1.51661 2.43555,-2.28673 2.32216,-2.88085 4.18013,-5.84793 5.36956,-8.33545l0.616566 0.00118116zm-8.6272 11.7585c-0.643732,0.59058 -1.29219,1.17171 -1.94891,1.74339l0.00354348 -0.948472 0.898863 -0.794921 1.04651 0z"/>
    <path id="_128186312" class="fil96" d="M12.1801 6.25188c-1.16462,2.71431 -3.1348,6.01801 -5.64831,9.20006 -0.461834,0.476008 -0.929573,0.950834 -1.40086,1.42212l-0.981544 0c0.70279,-0.685073 1.39377,-1.37841 2.0753,-2.07766 2.33161,-2.95054 4.18249,-5.99321 5.34239,-8.54452l0.613022 0zm-8.20434 11.7596c-0.636646,0.615385 -1.28156,1.22368 -1.9371,1.81899l0.00354348 -0.965008 0.920124 -0.853979 1.01344 0z"/>
    <path id="_128050480" class="fil97" d="M11.7478 6.25188c-1.13273,2.78281 -3.09228,6.15739 -5.61287,9.41031 -0.36616,0.405138 -0.737044,0.810276 -1.11383,1.21187l-0.949653 0c0.595305,-0.616566 1.1788,-1.24022 1.75048,-1.8686 2.33752,-3.02141 4.18367,-6.13849 5.31404,-8.75476l0.611841 0.00118116zm-7.81338 11.7596c-0.620109,0.635464 -1.25203,1.26148 -1.89576,1.8745l0.00354348 -0.982726c0.305921,-0.29529 0.61066,-0.591761 0.910675,-0.891776l0.981544 0z"/>
    <path id="_62710408" class="fil98" d="M11.3167 6.25188c-1.10202,2.8466 -3.04976,6.29677 -5.57508,9.61937 -0.282297,0.336631 -0.569319,0.670899 -0.861066,1.00281l-0.913037 0c0.493725,-0.546877 0.97682,-1.10084 1.44928,-1.65717 2.34578,-3.09228 4.18485,-6.28495 5.28924,-8.96619l0.61066 0.00118116zm-7.4543 11.7596c-0.592943,0.646095 -1.20242,1.28274 -1.82489,1.90639l0.00472464 -1.00399c0.29529,-0.297652 0.585856,-0.598848 0.872878,-0.902407l0.947291 0z"/>
    <path id="_125505520" class="fil99" d="M10.8879 6.2507c-1.07367,2.9092 -3.01078,6.43496 -5.54201,9.83316l-0.63074 0.790196 -0.882327 0c0.403957,-0.479551 0.797283,-0.961465 1.17998,-1.44692 2.35642,-3.16433 4.18485,-6.43142 5.25971,-9.17644l0.615385 0zm-7.12358 11.7608c-0.557508,0.649638 -1.13391,1.28746 -1.72686,1.9123l0.00472464 -1.02761c0.272848,-0.291747 0.540972,-0.587037 0.805551,-0.884689l0.916581 0z"/>
   </g>
   <g>
    <path id="_129292896" class="fil100" d="M28.5191 15.1259c-1.14336,0.601211 -2.21468,1.16462 -3.21748,1.68552l-0.13229 0.073232 0.479551 -0.00236232 2.87022 -1.50362 0 -0.252768zm-5.42389 2.90329c-2.87613,1.57685 -5.02584,2.69305 -6.9594,3.436l0 0.245681c2.04577,-0.781928 4.32541,-1.97608 7.42832,-3.68286l-0.468921 0.00118116zm-8.02953 3.81515c-2.28082,0.739406 -4.38092,0.948472 -7.22634,0.783109 -1.62173,-0.0897682 -3.61553,-0.533885 -5.80777,-0.985088l-0.00118116 0.27521c2.14263,0.441754 4.09154,0.872878 5.68256,0.960283 2.90211,0.166544 5.04001,-0.0437029 7.35154,-0.789015l0.00118116 -0.2445z"/>
    <path id="_124470576" class="fil101" d="M28.5191 15.1023c-1.29573,0.640189 -2.51942,1.23549 -3.67105,1.78355l0.518529 -0.00236232c0.989812,-0.476008 2.03868,-0.982726 3.15252,-1.53433l0 -0.246863zm-5.81131 2.9281c-2.67651,1.43157 -4.73291,2.47571 -6.57198,3.19858l0 0.249225c1.95364,-0.765392 4.14824,-1.88749 7.05271,-3.44899l-0.480732 0.00118116zm-7.64093 3.59073c-2.47217,0.838624 -4.67149,1.0784 -7.69644,0.910675 -1.51661,-0.0815001 -3.34268,-0.446479 -5.34003,-0.832718l-0.00118116 0.271667c1.9501,0.379153 3.73719,0.737044 5.22309,0.811457 3.08047,0.172449 5.31404,-0.0696885 7.81338,-0.913037l0.00118116 -0.248044z"/>
    <path id="_128665648" class="fil102" d="M28.5191 15.1129c-1.37605,0.639008 -2.6895,1.22723 -3.9309,1.7741l0.551602 -0.00236232c1.07013,-0.472464 2.19342,-0.980363 3.3793,-1.53551l0 -0.236232zm-6.18219 2.91865c-2.48989,1.29928 -4.45179,2.27019 -6.20109,2.96708l0 0.249225c1.86623,-0.74295 3.9687,-1.793 6.68537,-3.21748l-0.484276 0.00118116zm-7.26886 3.36631c-2.66824,0.933117 -4.96442,1.2036 -8.16418,1.03706 -1.40676,-0.0673261 -3.06865,-0.36616 -4.87347,-0.69216l-0.00118116 0.268123c1.76229,0.321276 3.38284,0.611841 4.76244,0.679167 3.2541,0.171268 5.58098,-0.100399 8.27521,-1.04178l0.00118116 -0.250406z"/>
    <path id="_128307512" class="fil103" d="M28.5191 15.1531c-1.43275,0.627196 -2.81471,1.20242 -4.13524,1.73394l0.592943 -0.00236232c1.13155,-0.460653 2.31035,-0.955559 3.5423,-1.50007l0 -0.231507zm-6.55426 2.87967c-2.30681,1.17289 -4.1695,2.07294 -5.82903,2.73911l0 0.25395c1.78237,-0.714602 3.79389,-1.69497 6.33102,-2.99424l-0.501993 0.00118116zm-6.8968 3.14425c-2.87731,1.03115 -5.26443,1.33117 -8.6331,1.16344 -1.29337,-0.0566957 -2.78872,-0.298834 -4.40455,-0.570501l-0.00118116 0.270486c1.57685,0.266942 3.03558,0.501993 4.29942,0.556327 3.42182,0.172449 5.83966,-0.126384 8.73823,-1.16462l0.00118116 -0.255131z"/>
    <path id="_128307328" class="fil104" d="M28.5191 15.2193c-1.45637,0.61066 -2.88912,1.1599 -4.2699,1.66898l0.637827 -0.00236232c1.17171,-0.440573 2.38122,-0.915399 3.63207,-1.44102l0 -0.225602zm-6.90979 2.81471c-2.13672,1.05832 -3.89901,1.88631 -5.4735,2.51942l0 0.255131c1.70087,-0.683892 3.61671,-1.59457 5.98376,-2.77573l-0.510261 0.00118116zm-6.54009 2.9281c-3.08992,1.12328 -5.57035,1.44928 -9.1032,1.28274 -1.17407,-0.0460653 -2.50524,-0.232689 -3.93563,-0.453566l-0.00118116 0.266942c1.39259,0.216152 2.69186,0.39687 3.83641,0.442935 3.586,0.172449 6.09243,-0.154732 9.20242,-1.28392l0.00118116 -0.255131z"/>
    <path id="_128638808" class="fil105" d="M28.5191 15.3409l-0.505537 0.172449c-1.2851,0.49845 -2.56076,0.952015 -3.8116,1.37487l0.679167 -0.00236232c1.04415,-0.362616 2.11073,-0.752399 3.1974,-1.17998l0.440573 -0.146464 0 -0.218515zm-7.25469 2.69423c-1.97726,0.952015 -3.63797,1.71268 -5.1286,2.30917l0 0.257493c1.62173,-0.649638 3.44426,-1.49417 5.65422,-2.56784l-0.525616 0.00118116zm-6.19401 2.71785c-3.30961,1.21069 -5.881,1.55913 -9.57212,1.39377 -1.05005,-0.0354348 -2.22058,-0.175993 -3.46789,-0.349624l-0.00118116 0.268123c1.21541,0.170087 2.35287,0.310645 3.37812,0.344899 3.7431,0.168906 6.33693,-0.18308 9.66189,-1.39968l0.00118116 -0.257493z"/>
    <path id="_128638632" class="fil106" d="M28.5191 15.5051c-0.343718,0.095674 -0.687435,0.199616 -1.03115,0.308283 -1.07367,0.385058 -2.15444,0.740588 -3.22693,1.07486l0.719327 -0.00354348c0.846892,-0.272848 1.70323,-0.564595 2.56312,-0.878783 0.326,-0.100399 0.652001,-0.192529 0.97682,-0.277573l-0.00118116 -0.223239zm-7.58541 2.53123c-1.82726,0.853979 -3.38993,1.55086 -4.79787,2.10837l0 0.256312c1.54496,-0.614203 3.273,-1.39377 5.3294,-2.36586l-0.531522 0.00118116zm-5.86328 2.51469c-3.53521,1.29219 -6.19637,1.66189 -10.0422,1.50362 -0.922486,-0.029529 -1.93002,-0.133471 -2.99779,-0.265761l-0.00118116 0.268123c1.03824,0.127565 2.0186,0.229145 2.91747,0.261036 3.89074,0.164181 6.57316,-0.207884 10.1237,-1.50952l0 -0.257493z"/>
    <path id="_128638440" class="fil107" d="M28.5203 15.7142c-0.514986,0.118116 -1.0347,0.250406 -1.55559,0.398051 -0.832718,0.274029 -1.67607,0.531522 -2.52296,0.774841l0.761849 -0.00236232c0.601211,-0.18308 1.2036,-0.373247 1.80363,-0.576406 0.505537,-0.139377 1.00989,-0.259855 1.51307,-0.367341l0 -0.226783zm-7.8996 2.32334c-1.68788,0.766573 -3.15488,1.40086 -4.48487,1.92057l0 0.25395c1.47054,-0.577587 3.10763,-1.29455 5.02466,-2.1757l-0.53979 0.00118116zm-5.54909 2.32216c-3.76672,1.36897 -6.52001,1.75402 -10.5147,1.59811 -0.787834,-0.022442 -1.63473,-0.095674 -2.5265,-0.190167l-0.00118116 0.271667c0.864609,0.0921305 1.68906,0.161819 2.45681,0.184261 4.03839,0.159457 6.80939,-0.230326 10.5844,-1.60756l0.00118116 -0.256312z"/>
    <path id="_128638240" class="fil108" d="M28.5203 15.961c-0.688617,0.125203 -1.38196,0.274029 -2.07884,0.452384 -0.54924,0.164181 -1.10557,0.321276 -1.6678,0.472464l0.777204 -0.00236232 0.921305 -0.27521c0.685073,-0.161819 1.36778,-0.297652 2.04813,-0.411044l0 -0.236232zm-8.20552 2.07766c-1.55559,0.683892 -2.9281,1.2603 -4.17895,1.74103l0 0.257493c1.36778,-0.527979 2.87967,-1.16935 4.61716,-1.94183l0.257493 -0.059058 -0.695704 0.00236232zm-5.24199 2.1379c-3.99823,1.43747 -6.84601,1.83552 -10.9836,1.6867 -0.649638,-0.0177174 -1.33944,-0.0637827 -2.05876,-0.127565l-0.00118116 0.269305c0.695704,0.0626015 1.36306,0.108667 1.99734,0.125203 4.18013,0.153551 7.03972,-0.249225 11.045,-1.69497l0.00118116 -0.258674z"/>
    <path id="_128638064" class="fil109" d="M28.5203 16.2504c-0.861066,0.118116 -1.72804,0.271667 -2.60092,0.461834l-0.654363 0.172449 0.823269 -0.00354348c0.81382,-0.160638 1.6241,-0.289384 2.43201,-0.388602l0 -0.242138zm-8.47837 1.78946c-1.43983,0.613022 -2.72612,1.1351 -3.9061,1.57921l0 0.25395c1.21541,-0.459471 2.54068,-1.00399 4.03248,-1.64299l0.966189 -0.19371 -1.09257 0.00354348zm-4.96914 1.96663c-4.23328,1.49535 -7.17319,1.90167 -11.4514,1.75993 -0.511442,-0.0106304 -1.04296,-0.0377971 -1.59102,-0.0767754l-0.00118116 0.271667c0.52916,0.0377971 1.04178,0.0637827 1.53315,0.073232 4.32187,0.147645 7.27004,-0.262218 11.5092,-1.77056l0.00118116 -0.257493z"/>
    <path id="_128637872" class="fil110" d="M28.5203 16.5752c-0.790196,0.0744131 -1.58157,0.174812 -2.37886,0.305921l1.82962 -0.00708696 0.550421 -0.0484276 -0.00118116 -0.250406zm-8.34962 1.46464l-0.650819 0.108667c-1.22841,0.503174 -2.34578,0.940204 -3.38402,1.32172l0 0.25395c1.05478,-0.389783 2.1946,-0.839805 3.44781,-1.35597 0.636646,-0.108667 1.27211,-0.218515 1.90049,-0.333087l-1.31345 0.00472464zm-5.09671 1.80954c-4.46833,1.54614 -7.50864,1.956 -11.9226,1.82017 -0.363797,-0.00708696 -0.737044,-0.0212609 -1.11974,-0.0413406l-0.00118116 0.276392c0.36616,0.0188986 0.72287,0.0318913 1.07013,0.0377971 4.45179,0.135833 7.49919,-0.277573 11.9722,-1.83552l0.00118116 -0.257493z"/>
    <path id="_128637672" class="fil111" d="M20.6467 18.0375l-1.70441 0.245681c-1.00162,0.392145 -1.9312,0.741769 -2.80644,1.0536l0 0.25395c0.890595,-0.320094 1.83907,-0.680348 2.86195,-1.08431 1.05832,-0.150007 2.10719,-0.303558 3.12771,-0.473645l-1.47881 0.00472464zm-5.57272 1.66898c-4.70102,1.58748 -7.84645,1.99262 -12.3916,1.86978l-0.650819 -0.0165362 -0.00118116 0.274029 0.61066 0.0153551c4.5829,0.127565 7.72715,-0.282297 12.4317,-1.88513l0.00118116 -0.257493z"/>
    <path id="_128637496" class="fil112" d="M21.542 18.0351c-1.02879,0.134652 -2.09538,0.257493 -3.1785,0.381515 -0.783109,0.291747 -1.52252,0.557508 -2.22767,0.802008l0 0.252768c0.718146,-0.251587 1.47409,-0.525616 2.27492,-0.827994 1.61819,-0.186623 3.1974,-0.37679 4.68094,-0.614203l-1.54968 0.0059058zm-6.46685 1.54141c-4.93489,1.61701 -8.18426,2.01624 -12.8593,1.90167l-0.184261 -0.00354348 -0.00118116 0.278754 0.148826 0.00236232c4.71165,0.116935 7.95748,-0.287022 12.8947,-1.92293l0.00118116 -0.256312z"/>
    <path id="_128637304" class="fil113" d="M22.9547 18.0292c-1.59693,0.20316 -3.35568,0.357892 -5.16758,0.519711 -0.571682,0.201978 -1.12092,0.392145 -1.65126,0.568138l0 0.25395c0.542153,-0.18308 1.10557,-0.379153 1.6926,-0.589399 2.11664,-0.19371 4.15414,-0.377971 5.96959,-0.664993 0.715783,-0.0496087 1.42448,-0.0815001 2.13081,-0.0980363l-2.97416 0.0106304zm-7.87952 1.43393c-5.06009,1.60402 -8.38978,2.00443 -13.0436,1.92765l-0.00118116 0.278754c4.66677,0.0838624 7.98819,-0.330725 13.0436,-1.9501l0.00118116 -0.256312zm12.9313 -1.45047l0.516167 0.0106304 0 -0.0129928 -0.516167 0.00236232z"/>
    <path id="_128637104" class="fil114" d="M28.5227 18.1922c-1.73158,-0.0696885 -3.44899,-0.0779566 -5.21955,0.0177174 -1.80718,0.206703 -3.89901,0.331906 -6.09597,0.474827l-1.07131 0.350805 0 0.250406 1.10675 -0.367341c2.15798,-0.145283 4.21556,-0.272848 6.01919,-0.501993 1.77883,-0.0637827 3.50568,-0.029529 5.26207,0.0637827l-0.00118116 -0.288203zm-13.4475 1.17525c-5.10852,1.55795 -8.50317,1.96781 -13.0424,1.93002l-0.00118116 0.282297c4.55337,0.0377971 7.9374,-0.37679 13.0436,-1.956l0 -0.256312z"/>
    <path id="_128636928" class="fil115" d="M28.5238 18.6647c-1.90994,-0.126384 -3.79389,-0.198435 -5.7428,-0.154732 -1.79536,0.146464 -3.912,0.216152 -6.15267,0.308283l-0.492544 0.15237 0 0.246863 0.520892 -0.164181c2.20168,-0.0933117 4.28171,-0.167725 6.07116,-0.334268 1.96073,-0.0059058 3.85531,0.0944928 5.79595,0.245681l0 -0.300015zm-13.4475 0.624834c-5.14277,1.50362 -8.60357,1.9123 -13.0436,1.9123l-0.00118116 0.283479c4.45534,0.0059058 7.8996,-0.414587 13.0436,-1.94419l0.00118116 -0.251587z"/>
    <path id="_128636736" class="fil116" d="M28.5238 19.1643c-2.0942,-0.188986 -4.13761,-0.329544 -6.26842,-0.354348 -1.75993,0.0874059 -3.8683,0.095674 -6.11959,0.139377l0 0.240957c2.2194,-0.0472464 4.29942,-0.0637827 6.05935,-0.170087 2.14026,0.0614203 4.19903,0.235051 6.32984,0.450022l-0.00118116 -0.305921zm-13.4475 0.0649638c-5.16403,1.43865 -8.69452,1.84143 -13.0436,1.87332l-0.00118116 0.285841c4.36084,-0.0283479 7.87598,-0.441754 13.0436,-1.90639l0.00118116 -0.252768z"/>
    <path id="_128636536" class="fil117" d="M28.525 19.6829c-2.282,-0.251587 -4.47896,-0.468921 -6.79285,-0.575225 -1.60165,0.0271667 -3.5234,-0.0106304 -5.59634,-0.0200797l0 0.242138c2.03632,0.00708696 3.92736,0.036616 5.52429,-0.00826812 2.32216,0.145283 4.5392,0.398051 6.8649,0.673261l0 -0.311826zm-13.4487 -0.491363c-5.1723,1.3666 -8.77012,1.75284 -13.0424,1.80599l-0.00118116 0.289384c4.28171,-0.0519711 7.8618,-0.450022 13.0424,-1.84615l0.00118116 -0.249225z"/>
    <path id="_128319472" class="fil118" d="M28.525 20.2215c-2.47217,-0.31537 -4.82622,-0.622472 -7.31256,-0.815001 -1.45165,-0.0236232 -3.18913,-0.0968552 -5.07663,-0.153551l0 0.243319c1.85088,0.0519711 3.55057,0.118116 4.9904,0.126384 2.50288,0.236232 4.87465,0.577587 7.39997,0.914218l-0.00118116 -0.31537zm-13.4487 -0.998081l-0.180718 -0.00354348c-5.07427,1.24376 -8.69925,1.60283 -12.8617,1.67252l-0.00118116 0.290565c4.17068,-0.0696885 7.78267,-0.441754 12.8699,-1.71741l0.172449 0.00354348 0.00118116 -0.245681z"/>
    <path id="_128319280" class="fil119" d="M28.5262 20.7719c-2.67297,-0.373247 -5.16994,-0.770117 -7.83818,-1.06659 -1.30046,-0.066145 -2.8525,-0.171268 -4.55219,-0.26458l0 0.249225c1.65717,0.0874059 3.17142,0.18308 4.45416,0.231507 2.68123,0.343718 5.20419,0.77366 7.93622,1.17053l0 -0.320094zm-13.4511 -1.3855l-0.758305 -0.0342537c-4.76362,1.05478 -8.32836,1.35833 -12.2829,1.43511l-0.00118116 0.292928c3.95925,-0.0779566 7.50746,-0.394508 12.2841,-1.47763l0.757124 0.0342537 0.00118116 -0.250406z"/>
    <path id="_128319080" class="fil120" d="M28.5274 21.3365c-2.87849,-0.429942 -5.52193,-0.923668 -8.36262,-1.32762 -1.15517,-0.0992175 -2.52296,-0.229145 -4.02894,-0.349624l0 0.250406c1.4611,0.113391 2.7899,0.231507 3.91909,0.313008 2.85959,0.45829 5.52665,0.98745 8.47246,1.43747l0 -0.323638zm-13.4522 -1.75875l-1.33471 -0.0909494c-4.46242,0.870515 -7.94685,1.12092 -11.7053,1.19652l-0.00118116 0.292928c3.75727,-0.0744131 7.22752,-0.337812 11.6982,-1.23549l1.3418 0.0897682 0.00118116 -0.252768z"/>
    <path id="_128318904" class="fil121" d="M28.5274 21.9153c-3.0911,-0.486638 -5.86801,-1.0784 -8.88705,-1.60874 -1.00871,-0.119297 -2.19696,-0.26458 -3.5045,-0.405138l0 0.25395c1.2603,0.131109 2.40366,0.263399 3.38521,0.368522 3.03322,0.583493 5.83848,1.21187 9.00753,1.71741l-0.00118116 -0.326zm-13.4534 -2.12373c-0.616566,-0.0614203 -1.25557,-0.119297 -1.91112,-0.172449 -4.16713,0.701609 -7.5547,0.894138 -11.1277,0.960283l-0.00118116 0.298834c3.57183,-0.0673261 6.94168,-0.272848 11.1124,-1.00162 0.66145,0.0531522 1.30636,0.111029 1.92647,0.171268l0.00118116 -0.256312z"/>
    <path id="_128318712" class="fil122" d="M28.5286 22.5011c-3.3167,-0.533885 -6.22235,-1.22959 -9.41149,-1.89458 -0.864609,-0.134652 -1.87096,-0.285841 -2.98125,-0.434667l0 0.257493c1.05714,0.138196 2.01742,0.277573 2.85132,0.39687 3.20449,0.718146 6.14085,1.45047 9.54141,2.00089l0 -0.326zm-13.4558 -2.46744c-0.791378,-0.0992175 -1.6241,-0.19371 -2.48634,-0.279935 -3.88129,0.53979 -7.15547,0.680348 -10.5501,0.728776l-0.00236232 0.300015c3.38757,-0.0543334 6.64757,-0.20316 10.53,-0.767754 0.871696,0.0862247 1.7115,0.180718 2.5076,0.278754l0.00118116 -0.259855z"/>
    <path id="_128318512" class="fil123" d="M28.5286 23.094c-3.55175,-0.577587 -6.57788,-1.3796 -9.93238,-2.19105 -0.72287,-0.135833 -1.55086,-0.283479 -2.46036,-0.432305l0 0.261036c0.851617,0.137015 1.63118,0.272848 2.31507,0.395689 3.37576,0.861066 6.43378,1.69969 10.0788,2.29381l-0.00118116 -0.327181zm-13.457 -2.79226c-0.957921,-0.146464 -1.98789,-0.287022 -3.06629,-0.412225 -3.59781,0.394508 -6.74915,0.472464 -9.96899,0.499631l-0.00118116 0.300015c3.21039,-0.0318913 6.34283,-0.120478 9.94301,-0.535066 1.09139,0.125203 2.12845,0.268123 3.09228,0.412225l0.00118116 -0.26458z"/>
    <path id="_128318336" class="fil124" d="M28.5298 23.6905l-0.125203 -0.0188986c-3.73955,-0.615385 -6.85546,-1.51543 -10.3316,-2.46626 -0.577587,-0.129928 -1.22841,-0.268123 -1.9371,-0.4075l0 0.265761c0.648457,0.125203 1.24494,0.248044 1.77883,0.363797 3.47379,0.995718 6.58851,1.92293 10.3753,2.55249l0.239776 0.0377971 0 -0.327181zm-13.4593 -3.09464c-1.11502,-0.201978 -2.34224,-0.401595 -3.6427,-0.575225 -3.33087,0.261036 -6.33811,0.28466 -9.39141,0.285841l-0.00118116 0.300015c3.03913,-0.00472464 6.02864,-0.0377971 9.35833,-0.31537 1.31699,0.174812 2.55603,0.373247 3.67577,0.574044l0.00118116 -0.269305z"/>
    <path id="_128318144" class="fil125" d="M28.5309 24.287c-0.214971,-0.0307102 -0.429942,-0.0637827 -0.64137,-0.102761 -3.75845,-0.643732 -6.86136,-1.61347 -10.3411,-2.68123 -0.429942,-0.113391 -0.902407,-0.230326 -1.41267,-0.348442l0 0.276392c0.445298,0.10158 0.862247,0.201978 1.24494,0.298834 3.48324,1.10675 6.58969,2.1001 10.4001,2.76155 0.245681,0.0448841 0.497269,0.0838624 0.750037,0.119297l0 -0.323638zm-13.4617 -3.36985c-1.25794,-0.268123 -2.68596,-0.532703 -4.21911,-0.760667 -3.06984,0.138196 -5.93061,0.10158 -8.81382,0.073232l-0.00118116 0.302377c2.86786,0.0236232 5.70855,0.0472464 8.7713,-0.102761 1.55559,0.230326 2.99779,0.49845 4.26163,0.766573l0.00118116 -0.278754z"/>
    <path id="_127200304" class="fil126" d="M28.5309 24.8752c-0.393326,-0.0472464 -0.778385,-0.106304 -1.15872,-0.173631 -3.77499,-0.679167 -6.86372,-1.71623 -10.347,-2.89739l-0.889414 -0.25395 0 0.281116 0.713421 0.200797c3.48442,1.2166 6.58615,2.28082 10.4237,2.97298 0.411044,0.0755943 0.830356,0.138196 1.25912,0.191348l-0.00118116 -0.321276zm-13.4629 -3.60372c-1.3855,-0.343718 -3.01787,-0.688617 -4.79669,-0.980363 -2.82061,0.0271667 -5.51602,-0.0614203 -8.23387,-0.125203l-0.00118116 0.303558c2.69895,0.0555145 5.379,0.137015 8.18544,0.0944928 1.80481,0.298834 3.45608,0.647276 4.84512,0.990994l0.00118116 -0.283479z"/>
    <path id="_127200088" class="fil127" d="M28.5321 25.4576c-0.572863,-0.0602392 -1.13037,-0.140558 -1.6737,-0.242138 -3.79507,-0.711059 -6.86727,-1.81899 -10.3552,-3.11l-0.367341 -0.120478 0 0.289384 0.177174 0.0578769c3.49624,1.32762 6.58851,2.46272 10.4497,3.19031 0.572863,0.107486 1.16226,0.190167 1.76938,0.252768l0 -0.317732zm-13.4652 -3.79861c-1.49417,-0.429942 -3.33442,-0.868153 -5.36956,-1.23668 -2.57847,-0.0708696 -5.1097,-0.210247 -7.65983,-0.308283l-0.00118116 0.304739c2.52768,0.0933117 5.03883,0.226783 7.60077,0.282297 2.07176,0.373247 3.93563,0.819725 5.42861,1.24849l0.00118116 -0.290565z"/>
    <path id="_127199888" class="fil128" d="M28.5333 26.0316c-0.760667,-0.0649638 -1.48708,-0.164181 -2.18751,-0.301196 -3.76436,-0.73232 -6.7834,-1.88395 -10.21,-3.26473l0 0.316551c3.36276,1.37369 6.36409,2.51823 10.1166,3.25173 0.73232,0.140558 1.48826,0.2445 2.28082,0.313008l0 -0.31537zm-13.4688 -3.95216c-1.57921,-0.525616 -3.63561,-1.06895 -5.94832,-1.52252 -2.34224,-0.157094 -4.69866,-0.34608 -7.07869,-0.47837l-0.00118116 0.305921c2.35878,0.126384 4.68921,0.308283 7.01609,0.454747 2.36114,0.460653 4.44471,1.01462 6.01093,1.54378l0.00118116 -0.303558z"/>
    <path id="_127199696" class="fil129" d="M28.5333 26.5974c-0.948472,-0.066145 -1.84497,-0.178355 -2.70368,-0.353167 -3.58718,-0.72287 -6.48103,-1.86151 -9.69378,-3.24701l0 0.329544c3.15606,1.37369 6.02982,2.49815 9.60756,3.22339 0.88587,0.177174 1.81072,0.294109 2.79108,0.361435l-0.00118116 -0.314189zm-13.47 -4.05138c-1.62882,-0.634283 -3.90728,-1.30636 -6.52709,-1.8556 -2.11546,-0.230326 -4.28997,-0.465377 -6.49875,-0.631921l-0.00118116 0.307102c2.18397,0.164181 4.33368,0.388602 6.42906,0.61066 2.68242,0.563414 4.99395,1.25085 6.59678,1.88631l0.00118116 -0.316551z"/>
    <path id="_127199512" class="fil130" d="M28.5345 27.1549c-1.14336,-0.059058 -2.20877,-0.18308 -3.22102,-0.392145 -3.40647,-0.714602 -6.16802,-1.82607 -9.17644,-3.20213l0 0.341355c2.95644,1.35479 5.70264,2.44855 9.09612,3.16079 1.0347,0.216152 2.12255,0.342537 3.29189,0.403957l0.00944928 -0.140558 0 -0.171268zm-13.4735 -4.09154l-0.128746 -0.0602392c-1.63473,-0.739406 -4.09508,-1.53551 -6.97121,-2.17924 -1.90167,-0.291747 -3.88956,-0.563414 -5.92352,-0.765392l-0.00118116 0.311826c2.00679,0.197254 3.96988,0.461834 5.84674,0.744131 2.82297,0.631921 5.23136,1.40794 6.82356,2.12255l0.353167 0.165362 0.00118116 -0.338993z"/>
    <path id="_127199336" class="fil131" d="M28.4884 27.7041c-1.32644,-0.0496087 -2.54422,-0.181899 -3.68995,-0.431124 -3.22339,-0.695704 -5.85265,-1.77174 -8.66145,-3.12181l0 0.353167c2.76037,1.32054 5.37664,2.37768 8.58704,3.07338 1.14218,0.246863 2.35169,0.382696 3.6675,0.435848 0.0413406,-0.095674 0.073232,-0.199616 0.0968552,-0.309464zm-13.4298 -4.07855l-0.653182 -0.324819c-1.61937,-0.798464 -4.10453,-1.65126 -7.02318,-2.34106 -1.69142,-0.341355 -3.49151,-0.646095 -5.34475,-0.878783l-0.00118116 0.311826c1.82371,0.227964 3.59545,0.527979 5.26207,0.859885 2.86195,0.677986 5.29514,1.5107 6.87435,2.28555l0.884689 0.440573 0.00118116 -0.353167z"/>
   </g>
  </g>
  <path class="fil132" d="M29.9649 10.9057c-4.21674,0.431124 -9.04533,0.617747 -13.8834,0.656725l0 -5.06954c0,-0.157094 0.0720508,-0.303558 0.181899,-0.408682l0.00236232 -0.00236232c0.118116,-0.11221 0.279935,-0.184261 0.451203,-0.184261l0 -0.00118116 12.812 0.00236232 0 0.00236232 0.00236232 0 0 -0.00236232c0.138196,0 0.246863,0.0602392 0.317732,0.15237l-0.00118116 0c0.0874059,0.113391 0.133471,0.279935 0.133471,0.463015l0 0.00472464 0.00118116 0 -0.0177174 4.38683zm-14.931 0.662631c-4.46361,0.0177174 -8.89768,-0.0850436 -12.8333,-0.230326l-0.0177174 -5.23845 0.0153551 -0.0165362c0.107486,-0.106304 0.257493,-0.174812 0.420493,-0.174812l0 -0.00118116 11.8388 -0.0153551 0 0.00118116 0.00472464 0 0 -0.00118116c0.159457,0 0.308283,0.0685073 0.415768,0.175993l0 0.00118116c0.106304,0.106304 0.174812,0.255131 0.174812,0.414587l-0.00236232 0 0 0.00472464 0.00236232 0 -0.0188986 5.08017z"/>
  <path class="fil133" d="M29.4227 18.0068l-12.6691 0.0448841 -0.00118116 0c-0.166544,0.00118116 -0.323638,0.0708696 -0.438211,0.18308 -0.108667,0.105123 -0.177174,0.252768 -0.177174,0.412225l-0.00118116 0 0.0507899 9.19533 0.00118116 0 0 0.00708696 -0.0507899 0.545696c0,0.160638 0.0649638,0.309464 0.168906,0.415768l0.00236232 0.00118116c0.10158,0.103942 0.243319,0.171268 0.39687,0.171268l0 -0.00236232 0.00708696 0 0 0.00236232 12.6691 -0.0460653 0.00118116 0c0.159457,0 0.309464,-0.0685073 0.418131,-0.177174 0.108667,-0.108667 0.177174,-0.259855 0.177174,-0.418131l0.0401595 -9.73985 -0.00118116 0 0 -0.00826812 0.00118116 0c0,-0.157094 -0.0685073,-0.305921 -0.174812,-0.412225 -0.107486,-0.107486 -0.256312,-0.174812 -0.413406,-0.174812l0 0.00118116 -0.00708696 0 0 -0.00118116zm-0.999262 0.999262l-11.2872 0.0401595 0 0.60003 -0.00472464 0 0.0507899 7.19681 0.00472464 0 0 0.592943 0.574044 0 0 0.00236232 11.2718 -0.0413406 -0.0153551 -7.79566 0 -0.594124 -0.594124 0 0 -0.00118116zm-14.9393 -0.00354348l-9.84497 0.00472464 0 0.00472464 -0.601211 0 0.0141739 7.89251 0.00118116 0 0 0.594124 0.108667 0 10.9328 -0.0992175 -0.0153551 -7.79802 -0.00118116 0 0 -0.594124 -0.594124 0 0 -0.00472464zm-0.0259855 -12.114l-9.84025 0.0129928 0 0.0059058 -0.601211 0 -0.0354348 8.0248 0.00118116 0 0 0.594124 0.594124 0 0 0.0059058 9.84615 -0.0059058 0 -0.0059058 0.60003 0 0.0307102 -8.03307 -0.00236232 0 0 -0.595305 -0.592943 0 0 -0.00354348zm15.0716 0.0059058l-10.8135 -0.00236232 0 0.00472464 -0.635464 0 0 8.66972 0.594124 0 0 0.00236232 11.273 -0.0413406 0.0354348 -8.00945 -0.00118116 0 0 -0.617747 -0.452384 0 0 -0.0059058zm-14.0464 11.1124l-11.8435 0.00472464 0 0.00118116c-0.164181,0 -0.313008,0.0673261 -0.420493,0.173631 -0.107486,0.107486 -0.175993,0.258674 -0.175993,0.420493l-0.0401595 9.84261 0.00118116 0 0 0.0118116 -0.00118116 0c0.00118116,0.155913 0.0708696,0.303558 0.177174,0.409863l0.00118116 0c0.106304,0.106304 0.252768,0.173631 0.406319,0.173631l0 -0.00118116 0.0118116 0 0 0.00118116 11.8423 -0.107486 0.00236232 -0.00118116c0.160638,0 0.310645,-0.0685073 0.41695,-0.175993 0.109848,-0.108667 0.227964,-0.80437 0.227964,-0.963827l-0.0106304 -9.19415 -0.00118116 0 0 -0.00472464c0,-0.160638 -0.0673261,-0.308283 -0.173631,-0.415768 -0.107486,-0.106304 -0.256312,-0.174812 -0.415768,-0.174812l0 0.00118116 -0.00472464 0 0 -0.00118116zm-0.0259855 -12.1152l-11.8388 0.0153551 0 0.00118116c-0.163,0 -0.313008,0.0685073 -0.420493,0.174812 -0.107486,0.107486 -0.174812,0.259855 -0.175993,0.421674l-0.0401595 9.7741 0.00118116 0 0 0.00354348 -0.00118116 0c0,0.160638 0.0685073,0.310645 0.175993,0.41695 0.106304,0.107486 0.256312,0.175993 0.414587,0.175993l0 -0.00236232 0.00472464 0 0 0.00236232 11.8447 -0.0059058 0 -0.00236232c0.161819,0 0.310645,-0.0673261 0.41695,-0.173631l0.00118116 0c0.108667,-0.108667 0.177174,-0.605935 0.177174,-0.767754l0.0354348 -9.43747 -0.00236232 0 0 -0.00472464 0.00236232 0c0,-0.159457 -0.0685073,-0.308283 -0.174812,-0.414587l0 -0.00118116c-0.107486,-0.107486 -0.256312,-0.175993 -0.415768,-0.175993l0 0.00118116 -0.00472464 0 0 -0.00118116zm15.0716 0.00708696l-12.812 -0.00236232 0 0.00118116c-0.171268,0 -0.333087,0.0720508 -0.451203,0.184261l-0.00236232 0.00236232c-0.109848,0.105123 -0.181899,0.251587 -0.181899,0.408682l0 9.82726 0 0.00708696 -0.00118116 -0.347261c0,0.157094 0.0685073,0.653182 0.175993,0.760667 0.107486,0.106304 0.255131,0.174812 0.412225,0.174812l0 -0.00236232 0.00708696 0 0 0.00236232 12.6691 -0.0460653 0.00118116 0c0.160638,0 0.310645,-0.0685073 0.419312,-0.177174l0 0c0.108667,-0.108667 0.177174,-0.257493 0.177174,-0.418131l0 -0.00118116 0.0401595 -9.75402 -0.00118116 0 0 -0.00472464c0,-0.18308 -0.0460653,-0.349624 -0.133471,-0.463015l0.00118116 0c-0.0708696,-0.0921305 -0.179536,-0.15237 -0.317732,-0.15237l0 0.00236232 -0.00236232 0 0 -0.00236232z"/>
  <path class="fil134" d="M29.3967 18.0044l-12.7199 0.0448841 -0.00118116 0c-0.166544,0.00118116 -0.323638,0.0708696 -0.438211,0.18308 -0.108667,0.105123 -0.177174,0.252768 -0.177174,0.412225l-0.00118116 0 0.00118116 9.84261 0.00118116 0 0 0.00708696 -0.00118116 0c0,0.160638 0.0649638,0.309464 0.168906,0.415768l0.00236232 0.00118116c0.10158,0.103942 0.243319,0.171268 0.39687,0.171268l0 -0.00236232 0.00708696 0 0 0.00236232 12.7199 -0.0460653 0.00118116 0c0.159457,0 0.309464,-0.0685073 0.418131,-0.177174 0.108667,-0.108667 0.177174,-0.259855 0.177174,-0.418131l0.0401595 -9.84143 -0.00118116 0 0 -0.00826812 0.00118116 0c0,-0.157094 -0.0685073,-0.305921 -0.174812,-0.412225 -0.107486,-0.107486 -0.256312,-0.174812 -0.413406,-0.174812l0 0.00118116 -0.00708696 0 0 -0.00118116zm-0.500812 0.500812l-12.2191 0.0425218 0 0.00236232 -0.00118116 0 -0.0413406 0.00826812 0 -0.00118116 -0.0472464 0.0307102 -0.00354348 0.00354348 -0.0177174 0.0259855 0 0.00236232 -0.00472464 0.0248044 0 0.500812 -0.00354348 0 0.00118116 8.84099 0.00354348 0 0 0.500812 0 0.00708696 0 0.00708696 0.00472464 0.029529 -0.00118116 0 0.0188986 0.029529 0.00472464 0.00354348 0.0200797 0.0141739 0.00118116 0 0.0059058 0.00118116 0.0118116 0 0.00708696 0 0.500812 0 0 0.00236232 12.2191 -0.0437029 0 -0.00236232 0.00118116 0 0.029529 -0.00472464 0.0354348 -0.0248044 0.0236232 -0.0342537 0.0059058 -0.0307102 0.00236232 -0.00236232 0.0377971 -9.33825 -0.00118116 0 0 -0.500812 0 -0.00826812 0 -0.0059058 -0.00354348 -0.0177174 -0.00118116 -0.00826812 -0.0212609 -0.0271667 -0.029529 -0.0212609 -0.00236232 -0.00118116 -0.0212609 -0.00354348 -0.00708696 0 -0.00708696 0 -0.500812 0 0 -0.00118116zm-14.9393 -0.00236232l-10.8419 0.00472464 0 0.00354348 -0.500812 0 -0.0354348 0.00708696 -0.0318913 0.0188986 -0.022442 0.0342537 -0.0059058 0.0330725 -0.00236232 0.00236232 -0.0377971 9.44102 0.00118116 0 0 0.500812 0 0.0118116 0 0.00472464 0.00472464 0.0165362 0 0.00236232 0.0200797 0.0283479 0.00472464 0.00472464 0.0330725 0.022442 0.0129928 0.00236232 0.00708696 0 0.0118116 0 0.387421 0 11.4431 -0.103942 0.0141739 -0.00354348 0.0307102 -0.00472464 0 -0.00118116 0.0330725 -0.022442 0.0259855 -0.0354348 0.00472464 -0.029529 0.00236232 -0.00236232 0.036616 -9.33825 -0.00118116 0 0 -0.500812 0 -0.00472464 -0.00708696 -0.0330725 -0.0188986 -0.029529 -0.0342537 -0.022442 0 -0.00118116 -0.0200797 -0.00236232 -0.00826812 0 -0.00472464 0 -0.500812 0 0 -0.00354348zm-0.0259855 -12.0124l-10.8371 0.0129928 0 0.00472464 -0.500812 0 -0.0342537 0.00708696 -0.0330725 0.0200797 -0.0188986 0.0259855 -0.00236232 0.0059058 -0.00708696 0.036616 -0.00236232 0.00236232 -0.0377971 9.27093 0.00118116 0 0 0.500812 0 0.00354348 0 0.00826812 0.00354348 0.022442 0.00118116 0 0.022442 0.0330725 0.0330725 0.0236232 0.0141739 0.00236232 0.0141739 0 0.00472464 0 0.500812 0 0 0.00472464 10.8431 -0.0059058 0 -0.00472464 0.500812 0 0.0307102 -0.00354348 0 -0.00118116 0.0330725 -0.0212609 0.00354348 -0.00354348 0.0212609 -0.0318913 0.00118116 0 0.00472464 -0.0318913 0.00236232 0 0.0330725 -9.28392 -0.00236232 0 0 -0.500812 0 -0.00472464 0 -0.0129928 -0.00236232 -0.0118116 -0.00354348 -0.0118116 -0.0188986 -0.0248044 -0.00354348 -0.00354348 -0.0307102 -0.0212609 -0.0212609 -0.00354348 -0.00708696 0 -0.00472464 0 -0.500812 0 0 -0.00236232zm15.0716 0.0059058l-11.8612 -0.00236232 0 0.00354348 -0.500812 0c-0.0177174,0 -0.0377971,0.00472464 -0.0531522,0.0106304l-0.00118116 -0.00236232 -0.0437029 0.0283479 -0.00236232 0.00236232 -0.00708696 0.0059058 -0.0236232 0.0318913 -0.00236232 0.00236232 -0.00118116 0.0153551 0 9.82726 0 0.00708696 0 0.0059058 0.00354348 0.0177174 0 0.00236232 0.0236232 0.0342537 0.0330725 0.0236232 0.0106304 0.00118116 0.0153551 0 0.00708696 0 0.500812 0 0 0.00236232 12.2191 -0.0437029 0 -0.00236232 0.00118116 0 0.0307102 -0.00472464 0 -0.00118116 0.0354348 -0.0236232c0.0165362,-0.0165362 0.029529,-0.0413406 0.029529,-0.0649638l0 -0.00118116 0.00236232 -0.00236232 0.0377971 -9.25085 -0.00118116 0 0 -0.500812 0 -0.00472464c0,-0.0437029 -0.00472464,-0.0826812 -0.0106304,-0.11221l-0.441754 0 0 -0.00472464zm-12.4364 10.0139l0.00118116 0m-2.10955 1.49417l-11.8435 0.00472464 0 0.00118116c-0.164181,0 -0.313008,0.0673261 -0.420493,0.173631 -0.107486,0.107486 -0.175993,0.258674 -0.175993,0.420493l-0.0401595 9.94419 0.00118116 0 0 0.0118116 -0.00118116 0c0.00118116,0.155913 0.0708696,0.303558 0.177174,0.409863l0.00118116 0c0.106304,0.106304 0.252768,0.173631 0.406319,0.173631l0 -0.00118116 0.0118116 0 0 0.00118116 11.8423 -0.107486 0.00236232 -0.00118116c0.160638,0 0.310645,-0.0685073 0.41695,-0.175993 0.109848,-0.108667 0.178355,-0.258674 0.178355,-0.418131l0.0389783 -9.84143 -0.00118116 0 0 -0.00472464c0,-0.160638 -0.0673261,-0.308283 -0.173631,-0.415768 -0.107486,-0.106304 -0.256312,-0.174812 -0.415768,-0.174812l0 0.00118116 -0.00472464 0 0 -0.00118116zm-0.0259855 -12.0136l-11.8388 0.0153551 0 0.00118116c-0.163,0 -0.313008,0.0685073 -0.420493,0.174812 -0.107486,0.107486 -0.174812,0.259855 -0.175993,0.421674l-0.0401595 9.7741 0.00118116 0 0 0.00354348 -0.00118116 0c0,0.160638 0.0685073,0.310645 0.175993,0.41695 0.106304,0.107486 0.256312,0.175993 0.414587,0.175993l0 -0.00236232 0.00472464 0 0 0.00236232 11.8447 -0.0059058 0 -0.00236232c0.161819,0 0.310645,-0.0673261 0.41695,-0.173631l0.00118116 0c0.108667,-0.108667 0.177174,-0.258674 0.177174,-0.420493l0.0354348 -9.78473 -0.00236232 0 0 -0.00472464 0.00236232 0c0,-0.159457 -0.0685073,-0.308283 -0.174812,-0.414587l0 -0.00118116c-0.107486,-0.107486 -0.256312,-0.175993 -0.415768,-0.175993l0 0.00118116 -0.00472464 0 0 -0.00118116zm15.0716 0.00708696l-12.8628 -0.00236232 0 0.00118116c-0.171268,0 -0.333087,0.0720508 -0.451203,0.184261l-0.00236232 0.00236232c-0.109848,0.105123 -0.181899,0.251587 -0.181899,0.408682l0 9.82726 0 0.00708696 -0.00118116 0c0,0.157094 0.0685073,0.305921 0.175993,0.413406 0.107486,0.106304 0.255131,0.174812 0.412225,0.174812l0 -0.00236232 0.00708696 0 0 0.00236232 12.7199 -0.0460653 0.00118116 0c0.160638,0 0.310645,-0.0685073 0.419312,-0.177174l0 0c0.108667,-0.108667 0.177174,-0.257493 0.177174,-0.418131l0 -0.00118116 0.0401595 -9.75402 -0.00118116 0 0 -0.00472464c0,-0.18308 -0.0460653,-0.349624 -0.133471,-0.463015l0.00118116 0c-0.0708696,-0.0921305 -0.179536,-0.15237 -0.317732,-0.15237l0 0.00236232 -0.00236232 0 0 -0.00236232z"/>
  <path class="fil135" d="M17.0619 28.9278c0.0838624,0.0460653 0.178355,0.0720508 0.276392,0.0720508l0 -0.00236232 0.00472464 0 0 0.00236232 11.8447 -0.0059058 0 -0.00236232c0.113391,0 0.220877,-0.0318913 0.310645,-0.088587l-0.372066 -0.881146 -0.414587 0 0 0.00472464 -10.8431 0.0059058 0 -0.00472464 -0.500812 0 -0.0188986 0c-0.158276,-0.0165362 -0.151189,0.666175 -0.287022,0.900044zm-14.8649 -12.0254c0.0838624,0.0460653 0.178355,0.0720508 0.276392,0.0720508l0 -0.00236232 0.00472464 0 0 0.00236232 11.8447 -0.0059058 0 -0.00236232c0.113391,0 0.220877,-0.0318913 0.310645,-0.088587l-0.372066 -0.881146 -0.414587 0 0 0.00472464 -10.8431 0.0059058 0 -0.00472464 -0.500812 0 -0.0188986 0c-0.158276,-0.0165362 -0.151189,0.666175 -0.287022,0.900044zm14.6062 0c0.0838624,0.0460653 0.178355,0.0720508 0.276392,0.0720508l0 -0.00236232 0.00472464 0 0 0.00236232 11.8447 -0.0059058 0 -0.00236232c0.113391,0 0.220877,-0.0318913 0.310645,-0.088587l-0.372066 -0.881146 -0.414587 0 0 0.00472464 -10.8431 0.0059058 0 -0.00472464 -0.500812 0 -0.0188986 0c-0.158276,-0.0165362 -0.151189,0.666175 -0.287022,0.900044zm-14.3476 12.0254c0.0838624,0.0460653 0.178355,0.0720508 0.276392,0.0720508l0 -0.00236232 0.00472464 0 0 0.00236232 11.8447 -0.0059058 0 -0.00236232c0.113391,0 0.220877,-0.0318913 0.310645,-0.088587l-0.372066 -0.881146 -0.414587 0 0 0.00472464 -10.8431 0.0059058 0 -0.00472464 -0.500812 0 -0.0188986 0c-0.158276,-0.0165362 -0.151189,0.666175 -0.287022,0.900044z"/>
  <path class="fil136" d="M29.9814 6.86372l-13.8999 0 0 -0.370884c0,-0.157094 0.0720508,-0.303558 0.181899,-0.408682l0.00236232 -0.00236232c0.118116,-0.11221 0.279935,-0.184261 0.451203,-0.184261l0 -0.00118116 12.812 0.00236232 0 0.00236232 0.00236232 0 0 -0.00236232c0.138196,0 0.246863,0.0602392 0.317732,0.15237l-0.00118116 0c0.0874059,0.113391 0.133471,0.279935 0.133471,0.463015l0 0.00472464 0.00118116 0 -0.00118116 0.344899zm-27.6651 11.2446l12.4979 0c0.0318913,0.0212609 0.0626015,0.0460653 0.0897682,0.073232 0.106304,0.107486 0.173631,0.255131 0.173631,0.415768l0 0.00472464 0.00118116 0 -0.00236232 0.510261 -13.0353 0 0.00236232 -0.505537c0,-0.161819 0.0685073,-0.313008 0.175993,-0.420493 0.029529,-0.029529 0.0614203,-0.0555145 0.0968552,-0.0779566zm14.181 0l13.2538 0 0.0236232 0.0141739 0.00354348 0.00354348 0.00354348 0.00118116 0.0614203 0.0543334c0.106304,0.106304 0.174812,0.255131 0.174812,0.412225l-0.00118116 0 0 0.00826812 0.00118116 0 -0.00236232 0.510261 -13.8798 0 0 -0.465377 0.00118116 0c0,-0.159457 0.0685073,-0.307102 0.177174,-0.412225 0.0531522,-0.0519711 0.115754,-0.0944928 0.18308,-0.126384zm-1.44574 -11.2446l-13.0306 0 0.00118116 -0.359073c0.00118116,-0.161819 0.0685073,-0.314189 0.175993,-0.421674 0.107486,-0.106304 0.257493,-0.174812 0.420493,-0.174812l0 -0.00118116 11.8388 -0.0153551 0 0.00118116 0.00472464 0 0 -0.00118116c0.159457,0 0.308283,0.0685073 0.415768,0.175993l0 0.00118116c0.106304,0.106304 0.174812,0.255131 0.174812,0.414587l-0.00236232 0 0 0.00472464 0.00236232 0 -0.00118116 0.375609z"/>
 </g>
</svg>
