<?xml version="1.0" encoding="UTF-8" standalone="no"?>
<!-- Creator: CorelDRAW -->

<svg
   xmlns:dc="http://purl.org/dc/elements/1.1/"
   xmlns:cc="http://creativecommons.org/ns#"
   xmlns:rdf="http://www.w3.org/1999/02/22-rdf-syntax-ns#"
   xmlns:svg="http://www.w3.org/2000/svg"
   xmlns="http://www.w3.org/2000/svg"
   xmlns:xlink="http://www.w3.org/1999/xlink"
   xmlns:sodipodi="http://sodipodi.sourceforge.net/DTD/sodipodi-0.dtd"
   xmlns:inkscape="http://www.inkscape.org/namespaces/inkscape"
   xml:space="preserve"
   width="24px"
   height="24px"
   style="shape-rendering:geometricPrecision; text-rendering:geometricPrecision; image-rendering:optimizeQuality; fill-rule:evenodd; clip-rule:evenodd"
   viewBox="0 0 24 24"
   id="svg2"
   version="1.1"
   inkscape:version="0.48.1 r9760"
   sodipodi:docname="applets-screenshooter.svg"><metadata
   id="metadata227"><rdf:RDF><cc:Work
       rdf:about=""><dc:format>image/svg+xml</dc:format><dc:type
         rdf:resource="http://purl.org/dc/dcmitype/StillImage" /><dc:title></dc:title></cc:Work></rdf:RDF></metadata><sodipodi:namedview
   pagecolor="#ffffff"
   bordercolor="#666666"
   borderopacity="1"
   objecttolerance="10"
   gridtolerance="10"
   guidetolerance="10"
   inkscape:pageopacity="0"
   inkscape:pageshadow="2"
   inkscape:window-width="640"
   inkscape:window-height="480"
   id="namedview225"
   showgrid="false"
   inkscape:zoom="12.583333"
   inkscape:cx="12"
   inkscape:cy="12"
   inkscape:window-x="0"
   inkscape:window-y="24"
   inkscape:window-maximized="0"
   inkscape:current-layer="svg2" />
 <defs
   id="defs4">
  <style
   type="text/css"
   id="style6">
   
    .fil17 {fill:none}
    .fil88 {fill:#4C4C4C}
    .fil46 {fill:#666666}
    .fil16 {fill:white}
    .fil91 {fill:#76C8CC}
    .fil47 {fill:#808385}
    .fil77 {fill:#C2FFFF}
    .fil26 {fill:#808385;fill-rule:nonzero}
    .fil27 {fill:#191919;fill-opacity:0.000000}
    .fil0 {fill:black;fill-opacity:0.000000}
    .fil52 {fill:#6EE6C6;fill-opacity:0.000000}
    .fil67 {fill:#F8EBB3;fill-opacity:0.000000}
    .fil78 {fill:#FFFBBF;fill-opacity:0.000000}
    .fil36 {fill:#424141;fill-opacity:0.000000}
    .fil1 {fill:black;fill-opacity:0.003922}
    .fil2 {fill:black;fill-opacity:0.007843}
    .fil28 {fill:#191919;fill-opacity:0.011765}
    .fil37 {fill:#424141;fill-opacity:0.011765}
    .fil3 {fill:black;fill-opacity:0.015686}
    .fil53 {fill:#76E8C0;fill-opacity:0.015686}
    .fil4 {fill:black;fill-opacity:0.019608}
    .fil5 {fill:black;fill-opacity:0.023529}
    .fil79 {fill:#FFFBBF;fill-opacity:0.023529}
    .fil29 {fill:#191919;fill-opacity:0.027451}
    .fil38 {fill:#424141;fill-opacity:0.027451}
    .fil6 {fill:black;fill-opacity:0.027451}
    .fil7 {fill:black;fill-opacity:0.031373}
    .fil54 {fill:#7EEAB9;fill-opacity:0.035294}
    .fil8 {fill:black;fill-opacity:0.035294}
    .fil30 {fill:#191919;fill-opacity:0.039216}
    .fil39 {fill:#424141;fill-opacity:0.039216}
    .fil9 {fill:black;fill-opacity:0.043137}
    .fil10 {fill:black;fill-opacity:0.047059}
    .fil68 {fill:#F8EBB3;fill-opacity:0.047059}
    .fil80 {fill:#FFFBBF;fill-opacity:0.047059}
    .fil11 {fill:black;fill-opacity:0.050980}
    .fil55 {fill:#86ECB3;fill-opacity:0.050980}
    .fil31 {fill:#191919;fill-opacity:0.054902}
    .fil40 {fill:#424141;fill-opacity:0.054902}
    .fil12 {fill:black;fill-opacity:0.054902}
    .fil13 {fill:black;fill-opacity:0.058824}
    .fil32 {fill:#191919;fill-opacity:0.066667}
    .fil41 {fill:#424141;fill-opacity:0.066667}
    .fil56 {fill:#8EEEAC;fill-opacity:0.066667}
    .fil81 {fill:#FFFBBF;fill-opacity:0.074510}
    .fil24 {fill:#191919;fill-opacity:0.078431}
    .fil42 {fill:#424141;fill-opacity:0.078431}
    .fil57 {fill:#96F0A5;fill-opacity:0.086275}
    .fil33 {fill:#191919;fill-opacity:0.094118}
    .fil43 {fill:#424141;fill-opacity:0.094118}
    .fil69 {fill:#F8EBB3;fill-opacity:0.098039}
    .fil82 {fill:#FFFBBF;fill-opacity:0.098039}
    .fil58 {fill:#9EF29F;fill-opacity:0.101961}
    .fil34 {fill:#191919;fill-opacity:0.105882}
    .fil44 {fill:#424141;fill-opacity:0.105882}
    .fil59 {fill:#A5F498;fill-opacity:0.117647}
    .fil35 {fill:#191919;fill-opacity:0.121569}
    .fil45 {fill:#424141;fill-opacity:0.121569}
    .fil83 {fill:#FFFBBF;fill-opacity:0.121569}
    .fil60 {fill:#ADF692;fill-opacity:0.137255}
    .fil70 {fill:#F8EBB3;fill-opacity:0.145098}
    .fil84 {fill:#FFFBBF;fill-opacity:0.145098}
    .fil61 {fill:#B5F88B;fill-opacity:0.152941}
    .fil62 {fill:#BDFA84;fill-opacity:0.168627}
    .fil85 {fill:#FFFBBF;fill-opacity:0.172549}
    .fil90 {fill:#BBE6FF;fill-opacity:0.180392}
    .fil63 {fill:#C5FC7E;fill-opacity:0.184314}
    .fil71 {fill:#F8EBB3;fill-opacity:0.196078}
    .fil86 {fill:#FFFBBF;fill-opacity:0.196078}
    .fil64 {fill:#CDFE77;fill-opacity:0.203922}
    .fil65 {fill:#D4FF70;fill-opacity:0.219608}
    .fil87 {fill:#FFFBBF;fill-opacity:0.219608}
    .fil72 {fill:#F8EBB3;fill-opacity:0.243137}
    .fil73 {fill:#F8EBB3;fill-opacity:0.294118}
    .fil74 {fill:#F8EBB3;fill-opacity:0.341176}
    .fil75 {fill:#F8EBB3;fill-opacity:0.392157}
    .fil22 {fill:#DBF1FF;fill-opacity:0.439216}
    .fil76 {fill:#F8EBB3;fill-opacity:0.439216}
    .fil92 {fill:#B2FFFF;fill-opacity:0.439216}
    .fil21 {fill:#BBE6FF;fill-opacity:0.521569}
    .fil50 {fill:black;fill-opacity:0.760784}
    .fil49 {fill:url(#id2)}
    .fil48 {fill:url(#id3)}
    .fil89 {fill:url(#id4)}
    .fil25 {fill:url(#id5)}
    .fil15 {fill:url(#id6)}
    .fil20 {fill:url(#id7)}
    .fil14 {fill:url(#id8)}
    .fil19 {fill:url(#id9);fill-rule:nonzero}
    .fil18 {fill:url(#id10);fill-rule:nonzero}
    .fil23 {fill:url(#id11);fill-rule:nonzero}
    .fil51 {fill:url(#id12);fill-opacity:0.439216}
    .fil66 {fill:url(#id13);fill-opacity:0.501961}
   
  </style>
   <mask
   id="id0">
  <linearGradient
   id="id1"
   gradientUnits="userSpaceOnUse"
   x1="12.2676"
   y1="15.4591"
   x2="11.6644"
   y2="14.6286">
   <stop
   offset="0"
   style="stop-opacity:1; stop-color:white"
   id="stop10" />
   <stop
   offset="1"
   style="stop-opacity:0; stop-color:white"
   id="stop12" />
  </linearGradient>
    <rect
   style="fill:url(#id1)"
   x="11.3483"
   y="14.4262"
   width="1.23506"
   height="1.23535"
   id="rect14" />
   </mask>
  <linearGradient
   id="id2"
   gradientUnits="userSpaceOnUse"
   x1="12.1792"
   y1="19.6893"
   x2="12.0918"
   y2="10.3613">
   <stop
   offset="0"
   style="stop-color:#999999"
   id="stop17" />
   <stop
   offset="0.701961"
   style="stop-color:#CCCCCC"
   id="stop19" />
   <stop
   offset="1"
   style="stop-color:white"
   id="stop21" />
  </linearGradient>
  <linearGradient
   id="id3"
   gradientUnits="userSpaceOnUse"
   xlink:href="#id2"
   x1="12.18"
   y1="19.6494"
   x2="12.0913"
   y2="10.4015">
  </linearGradient>
  <linearGradient
   id="id4"
   gradientUnits="userSpaceOnUse"
   x1="12.1077"
   y1="11.8982"
   x2="12.1077"
   y2="14.6371">
   <stop
   offset="0"
   style="stop-color:#FFC7FF"
   id="stop25" />
   <stop
   offset="1"
   style="stop-color:#DEF3FF"
   id="stop27" />
  </linearGradient>
  <linearGradient
   id="id5"
   gradientUnits="userSpaceOnUse"
   x1="11.9155"
   y1="12.6744"
   x2="11.9841"
   y2="15.9898">
   <stop
   offset="0"
   style="stop-color:#EDEDED"
   id="stop30" />
   <stop
   offset="1"
   style="stop-color:#D1CFCF"
   id="stop32" />
  </linearGradient>
  <linearGradient
   id="id6"
   gradientUnits="userSpaceOnUse"
   x1="11.8826"
   y1="20.5386"
   x2="12.2699"
   y2="6.77627">
   <stop
   offset="0"
   style="stop-color:#B0B0B0"
   id="stop35" />
   <stop
   offset="1"
   style="stop-color:#E6E1E1"
   id="stop37" />
  </linearGradient>
  <linearGradient
   id="id7"
   gradientUnits="userSpaceOnUse"
   x1="12.0351"
   y1="6.0472"
   x2="12.0351"
   y2="11.5139">
   <stop
   offset="0"
   style="stop-color:#5CA2DA"
   id="stop40" />
   <stop
   offset="1"
   style="stop-color:#84C1F0"
   id="stop42" />
  </linearGradient>
  <linearGradient
   id="id8"
   gradientUnits="userSpaceOnUse"
   x1="12.3974"
   y1="17.2458"
   x2="12.292"
   y2="10.0095">
   <stop
   offset="0"
   style="stop-color:#B0B0B0"
   id="stop45" />
   <stop
   offset="1"
   style="stop-color:#CCCCCC"
   id="stop47" />
  </linearGradient>
  <linearGradient
   id="id9"
   gradientUnits="userSpaceOnUse"
   x1="12.0096"
   y1="19.0181"
   x2="12.0096"
   y2="0.0209765">
   <stop
   offset="0"
   style="stop-color:#919191"
   id="stop50" />
   <stop
   offset="1"
   style="stop-color:#B2B2B2"
   id="stop52" />
  </linearGradient>
  <linearGradient
   id="id10"
   gradientUnits="userSpaceOnUse"
   x1="12.142"
   y1="22.85"
   x2="12.142"
   y2="4.35774">
   <stop
   offset="0"
   style="stop-color:#7F7F7F"
   id="stop55" />
   <stop
   offset="1"
   style="stop-color:#999999"
   id="stop57" />
  </linearGradient>
  <linearGradient
   id="id11"
   gradientUnits="userSpaceOnUse"
   x1="12.1417"
   y1="19.7823"
   x2="12.1417"
   y2="7.1221">
   <stop
   offset="0"
   style="stop-color:#487AA3"
   id="stop60" />
   <stop
   offset="1"
   style="stop-color:#5993C2"
   id="stop62" />
  </linearGradient>
  <linearGradient
   id="id12"
   gradientUnits="userSpaceOnUse"
   x1="11.7531"
   y1="12.1434"
   x2="12.3121"
   y2="18.1416">
   <stop
   offset="0"
   style="stop-color:#A100A1"
   id="stop65" />
   <stop
   offset="1"
   style="stop-color:#2467D4"
   id="stop67" />
  </linearGradient>
  <linearGradient
   id="id13"
   gradientUnits="userSpaceOnUse"
   x1="12.1919"
   y1="13.8332"
   x2="12.3563"
   y2="16.5703">
   <stop
   offset="0"
   style="stop-color:#333333"
   id="stop70" />
   <stop
   offset="1"
   style="stop-color:#333333"
   id="stop72" />
  </linearGradient>
 </defs>
 <g
   id="Слой_x0020_1">
  <metadata
   id="CorelCorpID_0Corel-Layer" />
  <g
   id="_89583544">
   <path
   id="_88091808"
   class="fil0"
   d="M11.3236 20.3855c7.70321,-0.313798 11.1485,0.346396 12.646,1.26426l0 2.43668c-0.0694494,0.0136064 -0.142017,0.0260789 -0.217419,0.0379846l-23.646 0 0 -2.19035c1.46496,-0.676635 4.58423,-1.27844 11.2173,-1.54858z" />
   <g
   id="g78">
    <path
   id="_88629872"
   class="fil1"
   d="M11.3511 20.5743c7.71143,-0.302459 11.1621,0.396287 12.6185,1.32492l0 2.14443c-0.153072,0.0314648 -0.322585,0.0581107 -0.507689,0.080788l-23.3557 0 0 -1.9786c1.42159,-0.68599 4.52526,-1.30792 11.2448,-1.57154z" />
    <path
   id="_89538976"
   class="fil2"
   d="M11.3784 20.7637c7.69754,-0.289987 11.176,0.44561 12.5913,1.3768l0 1.86039c-0.244348,0.0535752 -0.536319,0.093544 -0.87166,0.123592l-22.9917 0 0 -1.77365c1.38388,-0.691942 4.48643,-1.33173 11.2721,-1.58713z" />
    <path
   id="_88922176"
   class="fil3"
   d="M11.4056 20.9527c7.66012,-0.274679 11.193,0.492382 12.5641,1.41818l0 1.58798c-0.350365,0.0816384 -0.815534,0.133513 -1.37793,0.165545l-6.70569 0c-0.627029,-0.00396854 -1.27078,-0.00481894 -1.92672,0l-13.7958 0 -0.0572603 -0.0102048 0 -1.56814c1.35157,-0.692509 4.47282,-1.34817 11.2993,-1.59337z" />
    <path
   id="_88924792"
   class="fil4"
   d="M11.4328 21.1418c7.59719,-0.257671 11.2165,0.53717 12.5369,1.44823l0 1.32719c-0.507122,0.127277 -1.30678,0.18482 -2.32046,0.207214l-3.03083 0c-1.92247,-0.0206931 -4.15591,-0.0549926 -6.46191,0l-11.655 0c-0.143151,-0.0178584 -0.275246,-0.0374176 -0.395153,-0.0589611l0 -1.3357c1.32181,-0.687124 4.48955,-1.35582 11.3265,-1.58798z" />
    <path
   id="_87346992"
   class="fil5"
   d="M11.46 21.3309c7.51017,-0.238963 11.2542,0.577422 12.5097,1.46496l0 1.08029c-1.58203,0.430019 -6.70909,0.0918432 -12.1409,0.226773l-0.868542 0.0215435 -9.99816 0c-0.335058,-0.0286301 -0.621643,-0.0640635 -0.855786,-0.106584l0 -1.11686c1.29233,-0.675501 4.53972,-1.35355 11.3537,-1.57012z" />
    <path
   id="_89799168"
   class="fil6"
   d="M11.4866 21.5202c7.40359,-0.217703 11.3168,0.615406 12.483,1.47063l0 0.844448c-1.42102,0.428885 -6.63454,0.116505 -12.1304,0.237545 -0.824038,0.0181419 -1.63815,0.0357168 -2.43186,0.051591l-7.73297 0c-0.662745,-0.0331656 -1.19623,-0.0824888 -1.56814,-0.151655l0 -0.913897c1.25718,-0.65736 4.62533,-1.33966 11.3803,-1.53866z" />
    <path
   id="_87271944"
   class="fil7"
   d="M11.5147 21.7099c7.27999,-0.195025 11.4158,0.649989 12.455,1.46382l0 0.621926c-1.22231,0.424633 -6.54298,0.140033 -12.1191,0.247183 -1.79123,0.0345829 -3.54248,0.0660478 -5.13415,0.0816384l-3.38828 0c-1.4797,-0.02126 -2.61697,-0.0790872 -3.22188,-0.195025l0 -0.725958c1.20842,-0.632698 4.7441,-1.31557 11.4084,-1.49359z" />
    <path
   id="_89739920"
   class="fil8"
   d="M11.5416 21.8992c7.16916,-0.17008 11.5975,0.688541 12.428,1.45362l0 0.400255c-0.942527,0.422082 -6.41089,0.167529 -12.1086,0.259939 -5.34165,0.0867408 -10.3752,0.149387 -11.7548,-0.124725l0 -0.553044c1.13613,-0.602083 4.89405,-1.28127 11.4353,-1.43604z" />
    <path
   id="_89808496"
   class="fil9"
   d="M11.5688 22.088c7.16831,-0.145418 12.0224,0.754872 12.4008,1.46496l0 0.139749c-0.412161,0.439657 -6.1518,0.211466 -12.0978,0.289987 -5.41847,0.0714336 -10.5756,0.117922 -11.7656,-0.132946l0 -0.394586c1.02275,-0.5658 5.0681,-1.23762 11.4625,-1.36716z" />
    <path
   id="_89807248"
   class="fil10"
   d="M11.5958 22.2774c6.94522,-0.11367 12.2679,0.765077 12.2801,1.39494 0.0119056,0.399688 -5.90745,0.21912 -11.9932,0.280065 -5.53129,0.055843 -10.8517,0.085607 -11.7763,-0.138048l0 -0.245766c0.82914,-0.52413 5.24612,-1.18943 11.4895,-1.29119z" />
    <path
   id="_89782088"
   class="fil11"
   d="M11.6233 22.4664c6.43356,-0.0756856 12.1259,0.701297 12.1341,1.24073 0.00793707,0.285451 -5.87258,0.174616 -11.8642,0.215151 -5.75778,0.0394019 -11.3579,0.0507406 -11.7868,-0.144852l0 -0.0858904c0.40309,-0.476791 5.35185,-1.15286 11.517,-1.22514z" />
    <path
   id="_89805184"
   class="fil12"
   d="M11.6505 22.6558c5.92219,-0.0379846 11.9844,0.637517 11.9884,1.08596 0.00396854,0.171781 -5.83772,0.130395 -11.735,0.150521 -5.89724,0.0204096 -11.7103,0.0116221 -11.7103,-0.126143 0,-0.417547 5.53384,-1.07264 11.4569,-1.11034z" />
   </g>
   <path
   id="_89583568"
   class="fil13"
   d="M11.6774 22.8452c5.41138,0 11.843,0.57402 11.843,0.931755 0,0.116505 -23.2122,0.111969 -23.2122,0.0034016 0,-0.357735 5.95762,-0.935157 11.3693,-0.935157z" />
  </g>
  <path
   class="fil14"
   d="M3.38941 4.25087l17.9108 0c0.62958,0 1.14464,0.518744 1.14464,1.14464l0 16.4646c0,0.626178 -0.516193,1.14464 -1.14464,1.14464 -7.53795,0 -5.05393,0 -17.9108,0 -0.628729,0 -1.14464,-0.515059 -1.14464,-1.14464l0 -16.4646c0,-0.62958 0.515059,-1.14464 1.14464,-1.14464z"
   id="path93" />
  <path
   class="fil15"
   d="M2.30827 4.40054l19.5561 0.0586776c0.62958,0 1.14521,0.521862 1.14464,1.14464l-0.0198427 16.1661c-0.000566934,0.624194 -0.51591,1.14436 -1.14436,1.14436 -7.53823,0 -6.69889,-0.0586776 -19.5564,-0.0586776 -0.628446,0 -1.14549,-0.515059 -1.14464,-1.14464l0.0198427 -16.1661c0.0008504,-0.62958 0.515059,-1.14436 1.14464,-1.14436z"
   id="path95" />
  <rect
   class="fil16"
   x="1.51447"
   y="4.75664"
   width="20.9326"
   height="0.824403"
   id="rect97" />
  <path
   class="fil17"
   d="M3.61335 21.5469l-0.122741 0.13408m20.6041 -0.0147403l-0.137481 -0.121324"
   id="path99" />
  <path
   class="fil18"
   d="M23.0782 7.98469l0 13.4049c0,0.452696 -0.185954,0.865708 -0.484728,1.16448 -0.298207,0.298207 -0.711218,0.484728 -1.1642,0.484728l-18.8281 0c-0.453263,0 -0.865991,-0.185954 -1.16448,-0.484445 -0.298491,-0.298491 -0.484161,-0.711218 -0.484161,-1.16477l0 -14.4996c0,-0.643753 0.0615123,-1.71186 0.473956,-2.20452 0.265041,-0.316349 0.642619,-0.516193 1.12054,-0.516193l0.00963787 0.00198427 0.0606619 0.00141733 18.8676 0.0374176 0.00396854 0 0.0277797 0.000283467 0.00198427 0c1.81305,0.0218269 1.59507,1.89809 1.57863,3.25165l-0.0189923 0.522713zm-1.00007 13.4049l0 -13.9049c0,-0.440507 -0.0141733,-1.79293 -0.201828,-2.06392 -0.108851,-0.0986464 -0.138615,-0.21175 -0.369641,-0.214301l-0.0257955 -0.000283467 -18.8732 -0.0374176 -0.00963787 0 -0.051024 -0.00113387 0 0.0017008c-0.155056,0 -0.274396,0.0609454 -0.354617,0.156757 -0.253986,0.303876 -0.239813,1.13018 -0.239813,1.56389l0 14.4996c0,0.177734 0.0734179,0.34016 0.191057,0.457799 0.117639,0.117639 0.280065,0.19134 0.457515,0.19134l18.8281 0c0.176883,0 0.339593,-0.0739848 0.457232,-0.191624 0.117922,-0.117922 0.191624,-0.280632 0.191624,-0.457515z"
   id="path101" />
  <polygon
   class="fil16"
   points="3.36163,0.766494 20.3549,0.769045 20.3549,18.6858 3.36163,18.5852 "
   id="polygon103" />
  <path
   class="fil19"
   d="M3.36163 0.055843l17.2969 -0.0348664 0.370491 0.0008504 0 0.36794 0 18.2584 0 0.370775 -0.372192 -0.0017008 -17.2969 -0.0629296 -0.36879 -0.00283467 0 -0.366239 0 -18.1603 0 -0.369074 0.370491 0zm16.6987 1.08313l-16.0632 -0.0411027 0 17.0826 16.0632 0.134647 0 -17.1761z"
   id="path105" />
  <polygon
   class="fil20"
   points="5.03777,1.94713 19.0322,2.02367 19.0192,15.6139 5.06045,15.4815 "
   id="polygon107" />
  <path
   class="fil21"
   d="M3.51527 7.08894l0.0068032 12.8297c0.0238112,0.303876 0.304443,0.547941 0.604635,0.665297l15.9365 0.0745518c0.483878,-0.060095 0.706399,-0.41698 0.724258,-0.873645l-0.0391184 -12.6551c0,-0.518177 -0.31068,-0.800794 -0.869393,-0.801361l-15.454 -0.0249451c-0.519595,-0.000566934 -0.910212,0.271278 -0.909645,0.785487z"
   id="path109" />
  <polygon
   class="fil22"
   points="3.8183,6.98746 19.803,6.98746 19.803,8.05074 3.8183,8.05074 "
   id="polygon111" />
  <path
   class="fil23"
   d="M21.0327 9.95932l-0.0756856 9.37963c0,0.452696 -0.185954,0.865708 -0.484728,1.16448 -0.298207,0.298207 -0.711218,0.484728 -1.1642,0.484728l-14.5858 0c-0.453263,0 -0.865991,-0.185954 -1.16448,-0.484445 -0.298491,-0.298491 -0.484161,-0.711218 -0.484161,-1.16477l-0.000283467 -10.702c0,-0.643753 0.0615123,-1.71186 0.473956,-2.20452 0.265041,-0.316349 0.642619,-0.516193 1.12054,-0.516193l0.00963787 0.00198427 0.0606619 0.00141733 14.6252 0.0374176 0.00396854 0 0.0277797 0.000283467 0.00198427 0c1.81305,0.0218269 1.67104,2.12572 1.6546,3.47927l-0.0189923 0.522713zm-1.07576 9.37963l0.0756856 -9.87967c0,-0.440507 -0.0901424,-2.02055 -0.277797,-2.29155 -0.108851,-0.0986464 -0.138615,-0.21175 -0.369641,-0.214301l-0.0257955 -0.000283467 -14.6309 -0.0374176 -0.00963787 0 -0.051024 -0.00113387 0 0.0017008c-0.155056,0 -0.274396,0.0609454 -0.354617,0.156757 -0.253986,0.303876 -0.239813,1.13018 -0.239813,1.56389l0.000283467 10.702c0,0.177734 0.0734179,0.34016 0.191057,0.457799 0.117639,0.117639 0.280065,0.19134 0.457515,0.19134l14.5858 0c0.176883,0 0.339593,-0.0739848 0.457232,-0.191624 0.117922,-0.117922 0.191624,-0.280632 0.191624,-0.457515z"
   id="path113" />
  <g
   id="_88097896">
   <polygon
   id="_89209048"
   class="fil24"
   points="0.957551,12.9731 23.1215,12.9731 23.1215,17.5112 0.957551,17.5112 " />
   <g
   id="g117">
    <path
   id="_90012320"
   class="fil24"
   d="M0.938842 13.1798c7.38828,0 14.7757,0 22.1637,0 0,1.5123 0,3.02516 0,4.53774 -7.388,0 -14.7754,0 -22.1637,0 0,-1.51258 0,-3.02544 0,-4.53774z" />
    <path
   id="_88110136"
   class="fil24"
   d="M0.938842 13.1427c7.38828,0 14.7757,0 22.1637,0 0,1.51258 0,3.02544 0,4.53802 -7.388,0 -14.7754,0 -22.1637,0 0,-1.51258 0,-3.02544 0,-4.53802z" />
    <path
   id="_89654824"
   class="fil24"
   d="M0.938842 13.1061c7.38828,0 14.7757,0 22.1637,0 0,1.51258 0,3.02516 0,4.53802 -7.388,0 -14.7754,0 -22.1637,0 0,-1.51286 0,-3.02544 0,-4.53802z" />
   </g>
  </g>
  <path
   class="fil25"
   d="M0.720006 12.3209l22.1881 -0.0566934c0.0839062,-0.000283467 0.255687,0.0411027 0.244348,0.109985l0.176316 3.86677c0.00311813,0.0654808 -0.118489,0.146552 -0.198143,0.146552l-22.3358 0.0130395c-0.0802211,0 -0.152222,-0.0578272 -0.152222,-0.12841 0,-1.35242 -0.0748352,-2.50273 -0.0748352,-3.82283 0,-0.0705832 0.0683155,-0.12841 0.152222,-0.12841z"
   id="path122" />
  <polygon
   class="fil16"
   points="0.659627,12.7747 23.191,12.7251 23.191,13.9766 0.716321,13.9899 "
   id="polygon124" />
  <path
   class="fil26"
   d="M0.477642 12.1202l22.8647 -0.0688824c0.149387,0.0059528 0.596131,0.166962 0.615406,0.471972l-0.0017008 0.0226773 0.0445043 3.94728 0.0017008 0.0113387 0 0.0017008c0,0.16356 -0.0952448,0.303309 -0.221955,0.394302 -0.0918432,0.0674651 -0.223939,0.117072 -0.335625,0.119056l-0.00708667 0.0017008 -0.0034016 0 0 -0.0017008 -22.9775 0.0130395 0.0759691 0.0017008c-0.129261,0 -0.331373,-0.0507406 -0.421232,-0.12671 -0.108568,-0.0918432 -0.17745,-0.221955 -0.17745,-0.372475l0.0017008 0 0.0209765 -3.91751 -0.0017008 0c0,-0.148537 0.068032,-0.279782 0.172064,-0.369641l0.0104883 -0.00793707c0.0901424,-0.0725675 0.210899,-0.121607 0.34016,-0.121607l0 0.0017008zm22.5963 0.668982l-22.1898 0.0688824 0.0549926 3.43675 22.1654 -0.0130395 -0.0306144 -3.49259z"
   id="path126" />
  <g
   id="_88320248">
   <path
   id="_87870704"
   class="fil27"
   d="M12.3736 11.4779c3.38459,0 6.1294,2.48714 6.1294,5.55397 0,3.06683 -2.74481,5.55425 -6.1294,5.55425 -3.38459,0 -6.1294,-2.48742 -6.1294,-5.55425 0,-3.06683 2.74481,-5.55397 6.1294,-5.55397z" />
   <g
   id="g130">
    <path
   id="_87681504"
   class="fil28"
   d="M12.36 11.4129c3.33867,0 6.04635,2.46078 6.04635,5.495 0,3.03451 -2.70767,5.49557 -6.04635,5.49557 -3.33839,0 -6.04578,-2.46106 -6.04578,-5.49557 0,-3.03423 2.70739,-5.495 6.04578,-5.495z" />
    <path
   id="_87569696"
   class="fil29"
   d="M12.3467 11.348c3.29275,0 5.96301,2.43441 5.96301,5.43661 0,3.00191 -2.67026,5.43661 -5.96301,5.43661 -3.29303,0 -5.96329,-2.4347 -5.96329,-5.43661 0,-3.0022 2.67026,-5.43661 5.96329,-5.43661z" />
    <path
   id="_89068056"
   class="fil30"
   d="M12.3328 11.2831c3.24683,0 5.88052,2.40805 5.88052,5.37765 0,2.9696 -2.63369,5.37793 -5.88052,5.37793 -3.24683,0 -5.88024,-2.40833 -5.88024,-5.37793 0,-2.9696 2.63341,-5.37765 5.88024,-5.37765z" />
    <path
   id="_89684032"
   class="fil31"
   d="M12.3195 11.2182c3.20062,0 5.7969,2.38169 5.7969,5.31897 0,2.93728 -2.59627,5.31925 -5.7969,5.31925 -3.20147,0 -5.79746,-2.38197 -5.79746,-5.31925 0,-2.93728 2.59599,-5.31897 5.79746,-5.31897z" />
    <path
   id="_89672080"
   class="fil32"
   d="M12.3056 11.1533c3.15527,0 5.71412,2.35561 5.71412,5.26029 0,2.90497 -2.55885,5.26086 -5.71412,5.26086 -3.15555,0 -5.71441,-2.35589 -5.71441,-5.26086 0,-2.90468 2.55885,-5.26029 5.71441,-5.26029z" />
    <path
   id="_89660592"
   class="fil24"
   d="M12.292 11.0884c3.10935,0 5.63107,2.32896 5.63107,5.20162 0,2.87265 -2.52172,5.20218 -5.63107,5.20218 -3.10963,0 -5.63135,-2.32953 -5.63135,-5.20218 0,-2.87265 2.52172,-5.20162 5.63135,-5.20162z" />
    <path
   id="_89823560"
   class="fil33"
   d="M12.2784 11.0235c3.06314,0 5.54801,2.30288 5.54801,5.14294 0,2.84005 -2.48487,5.14322 -5.54801,5.14322 -3.06371,0 -5.5483,-2.30317 -5.5483,-5.14322 0,-2.84005 2.48459,-5.14294 5.5483,-5.14294z" />
    <path
   id="_87579776"
   class="fil34"
   d="M12.2648 10.9585c3.0175,0 5.46496,2.27652 5.46496,5.08426 0,2.80774 -2.44745,5.08454 -5.46496,5.08454 -3.01807,0 -5.46552,-2.27681 -5.46552,-5.08454 0,-2.80774 2.44745,-5.08426 5.46552,-5.08426z" />
   </g>
   <path
   id="_88098016"
   class="fil35"
   d="M12.2506 10.8936c2.97187,0 5.38218,2.25044 5.38218,5.02587 0,2.77514 -2.41032,5.02587 -5.38218,5.02587 -2.97215,0 -5.38247,-2.25073 -5.38247,-5.02587 0,-2.77542 2.41032,-5.02587 5.38247,-5.02587z" />
  </g>
  <g
   id="_87568544">
   <path
   id="_88092184"
   class="fil36"
   d="M16.2217 11.2738c1.41223,1.24045 2.3301,3.13599 2.37545,5.26908l-12.5936 0c0.0453547,-2.13309 0.96322,-4.02863 2.37545,-5.26908l7.84268 0z" />
   <g
   id="g143">
    <path
   id="_88043280"
   class="fil37"
   d="M16.2015 11.2738c1.37765,1.25094 2.25895,3.1462 2.2666,5.26908l-12.3903 0c0.00793707,-2.12288 0.888952,-4.01814 2.2666,-5.26908l7.85713 0z" />
    <path
   id="_87850840"
   class="fil38"
   d="M16.1777 11.2738c1.32096,1.2396 2.16002,3.09121 2.16002,5.15995l-0.00141733 0.109135 -12.182 0 -0.00113387 -0.109135c0,-2.06874 0.839062,-3.92035 2.15973,-5.15995l7.86479 0z" />
    <path
   id="_89210264"
   class="fil39"
   d="M16.1525 11.2738c1.25888,1.22174 2.05428,3.01892 2.05428,5.02275 0,0.0824888 -0.00198427,0.164411 -0.00453547,0.246333l-11.9691 0c-0.0025512,-0.0819219 -0.00453547,-0.163844 -0.00453547,-0.246333 0,-2.00383 0.795691,-3.80101 2.05428,-5.02275l7.86961 0z" />
    <path
   id="_89246952"
   class="fil40"
   d="M16.1239 11.2738c1.19821,1.20247 1.95195,2.94579 1.95195,4.88555 0,0.128694 -0.0034016,0.256821 -0.0102048,0.383531l-11.7511 0c-0.0068032,-0.12671 -0.0102048,-0.254837 -0.0102048,-0.383531 0,-1.93976 0.754022,-3.68308 1.95195,-4.88555l7.86762 0z" />
    <path
   id="_89257568"
   class="fil41"
   d="M16.093 11.2738c1.13869,1.18262 1.85189,2.87209 1.85189,4.74807 0,0.175182 -0.00651974,0.349231 -0.0187088,0.521012l-11.528 0c-0.0121891,-0.171781 -0.0187088,-0.345829 -0.0187088,-0.521012 0,-1.87598 0.713202,-3.56545 1.85217,-4.74807l7.86138 0z" />
    <path
   id="_90121728"
   class="fil42"
   d="M16.0601 11.2738c1.08058,1.16193 1.75381,2.7981 1.75381,4.61087 0,0.222238 -0.0102048,0.441925 -0.029764,0.65821l-11.299 0c-0.0195592,-0.216285 -0.0300475,-0.435972 -0.0300475,-0.65821 0,-1.81277 0.673234,-3.44894 1.75381,-4.61087l7.85118 0z" />
    <path
   id="_87568384"
   class="fil43"
   d="M16.0238 11.2738c1.02445,1.1401 1.65941,2.72298 1.65941,4.47367 0,0.269293 -0.0153072,0.534902 -0.0445043,0.795408l-11.0637 0c-0.0291971,-0.260506 -0.0445043,-0.526114 -0.0445043,-0.795408 0,-1.75069 0.634966,-3.33357 1.65941,-4.47367l7.83389 0z" />
    <path
   id="_89590256"
   class="fil44"
   d="M15.9855 11.2738c0.969173,1.11743 1.56672,2.64786 1.56672,4.33619 0,0.317199 -0.02126,0.628729 -0.0620792,0.932889l-10.8222 0c-0.0405358,-0.30416 -0.0620792,-0.61569 -0.0620792,-0.932889 0,-1.68833 0.597831,-3.21877 1.56672,-4.33619l7.81291 0z" />
   </g>
   <path
   id="_87453344"
   class="fil45"
   d="M15.9447 11.2738c0.914747,1.09361 1.47658,2.57218 1.47658,4.19928 0,0.364822 -0.0283467,0.722557 -0.0824888,1.0698l-10.5753 0c-0.0541422,-0.347247 -0.0824888,-0.704982 -0.0824888,-1.0698 0,-1.6271 0.561831,-3.10566 1.47658,-4.19928l7.78712 0z" />
  </g>
  <ellipse
   class="fil46"
   cx="12.1357"
   cy="15.0255"
   rx="5.04454"
   ry="4.89705"
   id="ellipse154" />
  <ellipse
   class="fil47"
   cx="12.1357"
   cy="15.0255"
   rx="5.69863"
   ry="5.53203"
   id="ellipse156" />
  <ellipse
   class="fil48"
   cx="12.1357"
   cy="15.0255"
   rx="4.81605"
   ry="4.67525"
   id="ellipse158" />
  <path
   class="fil49"
   d="M12.1363 10.3114c2.68131,0 4.85635,2.11239 4.85635,4.7132 0,2.60336 -2.17504,4.71547 -4.85635,4.71547 -2.68301,0 -4.85805,-2.11211 -4.85805,-4.71547 0,-2.60081 2.17504,-4.7132 4.85805,-4.7132zm0 0.387499c2.46021,0 4.4544,1.93891 4.4544,4.3257 0,2.38934 -1.99419,4.3274 -4.4544,4.3274 -2.46191,0 -4.45581,-1.93806 -4.45581,-4.3274 0,-2.38679 1.99391,-4.3257 4.45581,-4.3257z"
   id="path160" />
  <path
   class="fil50"
   d="M12.1389 11.4345c2.07356,0 3.7548,1.67132 3.7548,3.73241 0,2.0608 -1.68124,3.73241 -3.7548,3.73241 -2.07356,0 -3.7548,-1.6716 -3.7548,-3.73241 0,-2.06109 1.68124,-3.73241 3.7548,-3.73241z"
   id="path162" />
  <path
   class="fil51"
   d="M12.0927 11.4101c2.07328,0 3.7548,1.67132 3.7548,3.73241 0,2.0608 -1.68153,3.73212 -3.7548,3.73212 -2.07356,0 -3.75508,-1.67132 -3.75508,-3.73212 0,-2.06109 1.68153,-3.73241 3.75508,-3.73241z"
   id="path164" />
  <g
   id="_42963184">
   <path
   id="_87955520"
   class="fil52"
   d="M12.2582 13.9429c1.85246,0 3.35483,1.21494 3.35483,2.71278 0,1.49784 -1.50237,2.71278 -3.35483,2.71278 -1.85274,0 -3.35511,-1.21494 -3.35511,-2.71278 0,-1.49784 1.50237,-2.71278 3.35511,-2.71278z" />
   <g
   id="g168">
    <path
   id="_88216032"
   class="fil53"
   d="M12.2489 14.1957c1.73907,0 3.14988,1.14095 3.14988,2.54723 0,1.40628 -1.41081,2.54752 -3.14988,2.54752 -1.73964,0 -3.15045,-1.14124 -3.15045,-2.54752 0,-1.40628 1.41081,-2.54723 3.15045,-2.54723z" />
    <path
   id="_87931144"
   class="fil54"
   d="M12.2387 14.4489c1.62625,0 2.94522,1.06669 2.94522,2.38169 0,1.315 -1.31897,2.38197 -2.94522,2.38197 -1.62653,0 -2.94579,-1.06697 -2.94579,-2.38197 0,-1.315 1.31925,-2.38169 2.94579,-2.38169z" />
    <path
   id="_46267680"
   class="fil55"
   d="M12.2296 14.702c1.51286,0 2.74027,0.992417 2.74027,2.21614 0,1.22373 -1.22741,2.21643 -2.74027,2.21643 -1.514,0 -2.74141,-0.992701 -2.74141,-2.21643 0,-1.22373 1.22741,-2.21614 2.74141,-2.21614z" />
    <path
   id="_87458960"
   class="fil56"
   d="M12.2194 14.9551c1.39976,0 2.53561,0.918432 2.53561,2.05088 0,1.13217 -1.13585,2.0506 -2.53561,2.0506 -1.40089,0 -2.53674,-0.918432 -2.53674,-2.0506 0,-1.13245 1.13585,-2.05088 2.53674,-2.05088z" />
    <path
   id="_46269104"
   class="fil57"
   d="M12.2092 15.208c1.28722,0 2.33123,0.844448 2.33123,1.88562 0,1.04061 -1.04401,1.88505 -2.33123,1.88505 -1.28751,0 -2.33151,-0.844448 -2.33151,-1.88505 0,-1.04117 1.04401,-1.88562 2.33151,-1.88562z" />
    <path
   id="_88040248"
   class="fil58"
   d="M12.199 15.4611c1.17412,0 2.12657,0.770463 2.12657,1.72008 0,0.94933 -0.952448,1.71951 -2.12657,1.71951 -1.1744,0 -2.12685,-0.770179 -2.12685,-1.71951 0,-0.949614 0.952448,-1.72008 2.12685,-1.72008z" />
    <path
   id="_88109984"
   class="fil59"
   d="M12.1896 15.7145c1.06073,0 1.9219,0.695911 1.9219,1.55396 0,0.858337 -0.861172,1.55453 -1.9219,1.55453 -1.06187,0 -1.92247,-0.696194 -1.92247,-1.55453 0,-0.858054 0.860605,-1.55396 1.92247,-1.55396z" />
    <path
   id="_45655840"
   class="fil60"
   d="M12.1794 15.9677c0.947913,0 1.71724,0.621926 1.71724,1.38842 0,0.767061 -0.769329,1.38899 -1.71724,1.38899 -0.94848,0 -1.71781,-0.621926 -1.71781,-1.38899 0,-0.766494 0.769329,-1.38842 1.71781,-1.38842z" />
    <path
   id="_88212232"
   class="fil61"
   d="M12.1695 16.2205c0.835093,0 1.5123,0.547941 1.5123,1.22316 0,0.675501 -0.677202,1.22344 -1.5123,1.22344 -0.835377,0 -1.51286,-0.547941 -1.51286,-1.22344 0,-0.675218 0.677486,-1.22316 1.51286,-1.22316z" />
    <path
   id="_88211504"
   class="fil62"
   d="M12.159 16.4737c0.72199,0 1.30792,0.473673 1.30792,1.05761 0,0.584225 -0.585926,1.0579 -1.30792,1.0579 -0.722273,0 -1.30792,-0.473673 -1.30792,-1.0579 0,-0.583942 0.585642,-1.05761 1.30792,-1.05761z" />
    <path
   id="_88516912"
   class="fil63"
   d="M12.15 16.7268c0.608887,0 1.10325,0.399405 1.10325,0.89207 0,0.492665 -0.494366,0.892353 -1.10325,0.892353 -0.609454,0 -1.10354,-0.399688 -1.10354,-0.892353 0,-0.492665 0.494083,-0.89207 1.10354,-0.89207z" />
    <path
   id="_88210672"
   class="fil64"
   d="M12.1397 16.9799c0.495783,0 0.89859,0.32542 0.89859,0.726525 0,0.401389 -0.402806,0.726809 -0.89859,0.726809 -0.49635,0 -0.898873,-0.32542 -0.898873,-0.726809 0,-0.401106 0.402523,-0.726525 0.898873,-0.726525z" />
   </g>
   <path
   id="_86899200"
   class="fil65"
   d="M12.1295 17.2331c0.383247,0 0.69421,0.251435 0.69421,0.561264 0,0.309829 -0.310963,0.561264 -0.69421,0.561264 -0.383247,0 -0.69421,-0.251435 -0.69421,-0.561264 0,-0.309829 0.310963,-0.561264 0.69421,-0.561264z" />
  </g>
  <path
   class="fil66"
   d="M12.1432 13.6923c0.740132,0 1.34051,0.596698 1.34051,1.33229 0,0.735596 -0.600383,1.33229 -1.34051,1.33229 -0.740132,0 -1.34023,-0.596698 -1.34023,-1.33229 0,-0.735596 0.600099,-1.33229 1.34023,-1.33229z"
   id="path183" />
  <path
   class="fil67"
   d="M12.4623 16.9703c1.459,0 2.64219,0.410176 2.64219,0.915598 0,0.505705 -1.18319,0.915881 -2.64219,0.915881 -1.45929,0 -2.64276,-0.410176 -2.64276,-0.915881 0,-0.505421 1.18347,-0.915598 2.64276,-0.915598z"
   id="path185" />
  <g
   id="_87536616">
   <path
   id="_88254984"
   class="fil68"
   d="M12.4433 17.0607c1.33031,0 2.40947,0.373893 2.40947,0.835093 0,0.460917 -1.07916,0.83481 -2.40947,0.83481 -1.33088,0 -2.40947,-0.373893 -2.40947,-0.83481 0,-0.4612 1.07859,-0.835093 2.40947,-0.835093z" />
   <path
   id="_88159680"
   class="fil69"
   d="M12.4238 17.1512c1.2019,0 2.17674,0.337892 2.17674,0.754305 0,0.416696 -0.974842,0.754305 -2.17674,0.754305 -1.2019,0 -2.17646,-0.337609 -2.17646,-0.754305 0,-0.416413 0.974559,-0.754305 2.17646,-0.754305z" />
   <path
   id="_87570008"
   class="fil70"
   d="M12.4048 17.2416c1.07321,0 1.94373,0.301892 1.94373,0.673801 0,0.371908 -0.870527,0.673801 -1.94373,0.673801 -1.07349,0 -1.94373,-0.301892 -1.94373,-0.673801 0,-0.371908 0.870243,-0.673801 1.94373,-0.673801z" />
   <path
   id="_88118240"
   class="fil71"
   d="M12.3849 17.3323c0.944795,0 1.71129,0.265608 1.71129,0.593013 0,0.327404 -0.766494,0.593013 -1.71129,0.593013 -0.944511,0 -1.71072,-0.265608 -1.71072,-0.593013 0,-0.327404 0.766211,-0.593013 1.71072,-0.593013z" />
   <path
   id="_90149480"
   class="fil72"
   d="M12.366 17.423c0.816101,0 1.478,0.229325 1.478,0.512225 0,0.282616 -0.661895,0.512225 -1.478,0.512225 -0.816101,0 -1.478,-0.229608 -1.478,-0.512225 0,-0.2829 0.661895,-0.512225 1.478,-0.512225z" />
   <path
   id="_90011880"
   class="fil73"
   d="M12.3464 17.5134c0.68769,0 1.24527,0.193324 1.24527,0.431436 0,0.238679 -0.557579,0.43172 -1.24527,0.43172 -0.687407,0 -1.24499,-0.193041 -1.24499,-0.43172 0,-0.238112 0.557579,-0.431436 1.24499,-0.431436z" />
   <path
   id="_88181064"
   class="fil74"
   d="M12.3271 17.6041c0.558997,0 1.01254,0.157041 1.01254,0.350648 0,0.193891 -0.453547,0.350932 -1.01254,0.350932 -0.558713,0 -1.01198,-0.157041 -1.01198,-0.350932 0,-0.193608 0.453263,-0.350648 1.01198,-0.350648z" />
   <path
   id="_88515632"
   class="fil75"
   d="M12.3076 17.6946c0.43087,0 0.779534,0.12104 0.779534,0.270144 0,0.149387 -0.348664,0.270427 -0.779534,0.270427 -0.430019,0 -0.77925,-0.12104 -0.77925,-0.270427 0,-0.149104 0.349231,-0.270144 0.77925,-0.270144z" />
  </g>
  <path
   class="fil76"
   d="M12.3614 17.048c0.490398,0 0.888101,0.137765 0.888101,0.307561 0,0.17008 -0.397704,0.307845 -0.888101,0.307845 -0.490398,0 -0.888101,-0.137765 -0.888101,-0.307845 0,-0.169797 0.397704,-0.307561 0.888101,-0.307561z"
   id="path196" />
  <ellipse
   class="fil77"
   cx="12.1717"
   cy="17.8001"
   rx="1.28594"
   ry="0.913704"
   id="ellipse198" />
  <g
   id="_87534288">
   <path
   id="_88813504"
   class="fil78"
   d="M12.3036 11.0841c1.54801,0 2.80349,1.11941 2.80349,2.49961 0,1.3802 -1.25547,2.49961 -2.80349,2.49961 -1.5483,0 -2.80349,-1.11941 -2.80349,-2.49961 0,-1.3802 1.25519,-2.49961 2.80349,-2.49961z" />
   <g
   id="g202">
    <path
   id="_86962160"
   class="fil79"
   d="M12.2886 11.1913c1.45475,0 2.63454,1.05195 2.63454,2.34909 0,1.29743 -1.17979,2.34937 -2.63454,2.34937 -1.45532,0 -2.63511,-1.05195 -2.63511,-2.34937 0,-1.29714 1.17979,-2.34909 2.63511,-2.34909z" />
    <path
   id="_88212752"
   class="fil80"
   d="M12.2733 11.2981c1.36149,0 2.46616,0.984764 2.46616,2.19885 0,1.21437 -1.10467,2.19914 -2.46616,2.19914 -1.36206,0 -2.46644,-0.984764 -2.46644,-2.19914 0,-1.21409 1.10439,-2.19885 2.46644,-2.19885z" />
    <path
   id="_89143696"
   class="fil81"
   d="M12.2577 11.405c1.2688,0 2.29778,0.917865 2.29778,2.0489 0,1.13132 -1.02898,2.04918 -2.29778,2.04918 -1.2688,0 -2.29778,-0.917865 -2.29778,-2.04918 0,-1.13103 1.02898,-2.0489 2.29778,-2.0489z" />
    <path
   id="_88513328"
   class="fil82"
   d="M12.2424 11.5122c1.17554,0 2.1294,0.850117 2.1294,1.89894 0,1.04826 -0.953866,1.89838 -2.1294,1.89838 -1.17582,0 -2.1294,-0.850117 -2.1294,-1.89838 0,-1.04883 0.953582,-1.89894 2.1294,-1.89894z" />
    <path
   id="_88093960"
   class="fil83"
   d="M12.2271 11.6196c1.08256,0 1.96074,0.782652 1.96074,1.74814 0,0.965204 -0.87818,1.74842 -1.96074,1.74842 -1.08284,0 -1.96102,-0.783219 -1.96102,-1.74842 0,-0.965488 0.87818,-1.74814 1.96102,-1.74814z" />
    <path
   id="_46083152"
   class="fil84"
   d="M12.2117 11.7265c0.989583,0 1.79236,0.71547 1.79236,1.59819 0,0.882149 -0.802778,1.5979 -1.79236,1.5979 -0.989866,0 -1.79236,-0.715754 -1.79236,-1.5979 0,-0.882716 0.802495,-1.59819 1.79236,-1.59819z" />
    <path
   id="_89747520"
   class="fil85"
   d="M12.1964 11.8336c0.896605,0 1.6237,0.648289 1.6237,1.44795 0,0.799376 -0.727092,1.44795 -1.6237,1.44795 -0.896889,0 -1.62398,-0.648572 -1.62398,-1.44795 0,-0.79966 0.727092,-1.44795 1.62398,-1.44795z" />
    <path
   id="_88125776"
   class="fil86"
   d="M12.1811 11.9408c0.803345,0 1.45504,0.580823 1.45504,1.29743 0,0.716321 -0.65169,1.29771 -1.45504,1.29771 -0.803628,0 -1.45532,-0.58139 -1.45532,-1.29771 0,-0.716604 0.65169,-1.29743 1.45532,-1.29743z" />
   </g>
   <path
   id="_88132960"
   class="fil87"
   d="M12.1655 12.0479c0.710651,0 1.28666,0.513925 1.28666,1.14747 0,0.633548 -0.576005,1.14747 -1.28666,1.14747 -0.710651,0 -1.28694,-0.513925 -1.28694,-1.14747 0,-0.633548 0.576288,-1.14747 1.28694,-1.14747z" />
  </g>
  <path
   class="fil88"
   d="M12.1358 18.9435c2.17646,0 3.94132,-1.71356 3.94132,-3.82595 0,-2.11211 -1.76486,-3.82623 -3.94132,-3.82623 -2.17674,0 -3.94161,1.71412 -3.94161,3.82623 0,2.11239 1.76486,3.82595 3.94161,3.82595zm0 -0.19786c2.06364,0 3.73694,-1.62568 3.73694,-3.62809 0,-2.00241 -1.6733,-3.62809 -3.73694,-3.62809 -2.06392,0 -3.73723,1.62568 -3.73723,3.62809 0,2.00241 1.6733,3.62809 3.73723,3.62809z"
   id="path213" />
  <path
   class="fil89"
   d="M13.2113 12.1803c0.629863,0.564099 0.65169,1.46212 0.0493232,2.00553 -0.602367,0.543122 -1.60187,0.526398 -2.23145,-0.0377011 -0.629863,-0.564099 -0.651974,-1.46212 -0.0496067,-2.00553 0.60265,-0.543122 1.60187,-0.526398 2.23173,0.0377011z"
   id="path215" />
  <path
   class="fil90"
   d="M12.0763 14.5356c0.421232,0 0.763093,0.339593 0.763093,0.758557 0,0.418964 -0.341861,0.758557 -0.763093,0.758557 -0.421515,0 -0.763093,-0.339593 -0.763093,-0.758557 0,-0.418964 0.341577,-0.758557 0.763093,-0.758557z"
   id="path217" />
  <path
   class="fil91"
   style="mask:url(#id0)"
   d="M11.9657 14.6762c0.202962,0 0.367656,0.164694 0.367656,0.367656 0,0.202679 -0.164694,0.367373 -0.367656,0.367373 -0.202962,0 -0.367656,-0.164694 -0.367656,-0.367373 0,-0.202962 0.164694,-0.367656 0.367656,-0.367656z"
   id="path219"
   mask="url(#id0)" />
  <path
   class="fil92"
   d="M12.0232 14.8656c0.384948,0 0.697045,0.312097 0.697045,0.697328 0,0.384664 -0.312097,0.696761 -0.697045,0.696761 -0.384948,0 -0.697045,-0.312097 -0.697045,-0.696761 0,-0.385231 0.312097,-0.697328 0.697045,-0.697328z"
   id="path221" />
  <polygon
   class="fil22"
   points="3.8183,4.93686 19.803,4.93686 19.803,6.00014 3.8183,6.00014 "
   id="polygon223" />
 </g>
</svg>