<?xml version="1.0" encoding="UTF-8" standalone="no"?>
<!-- Creator: CorelDRAW -->

<svg
   xmlns:dc="http://purl.org/dc/elements/1.1/"
   xmlns:cc="http://creativecommons.org/ns#"
   xmlns:rdf="http://www.w3.org/1999/02/22-rdf-syntax-ns#"
   xmlns:svg="http://www.w3.org/2000/svg"
   xmlns="http://www.w3.org/2000/svg"
   xmlns:xlink="http://www.w3.org/1999/xlink"
   xmlns:sodipodi="http://sodipodi.sourceforge.net/DTD/sodipodi-0.dtd"
   xmlns:inkscape="http://www.inkscape.org/namespaces/inkscape"
   xml:space="preserve"
   width="24px"
   height="24px"
   style="shape-rendering:geometricPrecision; text-rendering:geometricPrecision; image-rendering:optimizeQuality; fill-rule:evenodd; clip-rule:evenodd"
   viewBox="0 0 24 24"
   id="svg2"
   version="1.1"
   inkscape:version="0.48.1 r9760"
   sodipodi:docname="knotes.svg"><metadata
   id="metadata144"><rdf:RDF><cc:Work
       rdf:about=""><dc:format>image/svg+xml</dc:format><dc:type
         rdf:resource="http://purl.org/dc/dcmitype/StillImage" /><dc:title></dc:title></cc:Work></rdf:RDF></metadata><sodipodi:namedview
   pagecolor="#ffffff"
   bordercolor="#666666"
   borderopacity="1"
   objecttolerance="10"
   gridtolerance="10"
   guidetolerance="10"
   inkscape:pageopacity="0"
   inkscape:pageshadow="2"
   inkscape:window-width="640"
   inkscape:window-height="480"
   id="namedview142"
   showgrid="false"
   inkscape:zoom="12.583333"
   inkscape:cx="12"
   inkscape:cy="12"
   inkscape:window-x="0"
   inkscape:window-y="24"
   inkscape:window-maximized="0"
   inkscape:current-layer="svg2" />
 <defs
   id="defs4">
  <style
   type="text/css"
   id="style6">
   
    .fil16 {fill:#85C2F5}
    .fil15 {fill:#91591D}
    .fil14 {fill:#9C6121}
    .fil22 {fill:#C3E671}
    .fil19 {fill:#F07E41}
    .fil58 {fill:#F2BF16}
    .fil21 {fill:#FDD425}
    .fil26 {fill:#FFF46D}
    .fil59 {fill:#4F81B3;fill-rule:nonzero}
    .fil18 {fill:#669ED5;fill-rule:nonzero}
    .fil25 {fill:#86A836;fill-rule:nonzero}
    .fil23 {fill:#95B842;fill-rule:nonzero}
    .fil62 {fill:#9C6121;fill-rule:nonzero}
    .fil63 {fill:#E3A13D;fill-rule:nonzero}
    .fil27 {fill:#EDA21D;fill-rule:nonzero}
    .fil57 {fill:#F5B71B;fill-rule:nonzero}
    .fil65 {fill:#FFD278;fill-rule:nonzero}
    .fil28 {fill:#FFF28C;fill-rule:nonzero}
    .fil0 {fill:black;fill-opacity:0.000000}
    .fil47 {fill:#FFF28C;fill-opacity:0.000000}
    .fil1 {fill:black;fill-opacity:0.003922}
    .fil29 {fill:#FBE663;fill-opacity:0.007843}
    .fil2 {fill:black;fill-opacity:0.007843}
    .fil3 {fill:black;fill-opacity:0.015686}
    .fil30 {fill:#F6DD5F;fill-opacity:0.015686}
    .fil4 {fill:black;fill-opacity:0.019608}
    .fil31 {fill:#F1D45C;fill-opacity:0.019608}
    .fil5 {fill:black;fill-opacity:0.023529}
    .fil48 {fill:#FFF38F;fill-opacity:0.023529}
    .fil6 {fill:black;fill-opacity:0.027451}
    .fil32 {fill:#ECCB58;fill-opacity:0.027451}
    .fil7 {fill:black;fill-opacity:0.031373}
    .fil33 {fill:#E7C254;fill-opacity:0.035294}
    .fil8 {fill:black;fill-opacity:0.035294}
    .fil9 {fill:black;fill-opacity:0.043137}
    .fil34 {fill:#E3B951;fill-opacity:0.043137}
    .fil10 {fill:black;fill-opacity:0.047059}
    .fil49 {fill:#FFF391;fill-opacity:0.047059}
    .fil35 {fill:#DEB04D;fill-opacity:0.050980}
    .fil11 {fill:black;fill-opacity:0.050980}
    .fil12 {fill:black;fill-opacity:0.054902}
    .fil36 {fill:#D9A749;fill-opacity:0.054902}
    .fil13 {fill:black;fill-opacity:0.058824}
    .fil37 {fill:#D49F46;fill-opacity:0.062745}
    .fil38 {fill:#CF9642;fill-opacity:0.070588}
    .fil50 {fill:#FFF393;fill-opacity:0.074510}
    .fil39 {fill:#CA8D3E;fill-opacity:0.078431}
    .fil40 {fill:#C6843B;fill-opacity:0.086275}
    .fil41 {fill:#C17B37;fill-opacity:0.090196}
    .fil51 {fill:#FFF396;fill-opacity:0.098039}
    .fil42 {fill:#BC7233;fill-opacity:0.098039}
    .fil43 {fill:#B76930;fill-opacity:0.105882}
    .fil44 {fill:#B2602C;fill-opacity:0.113725}
    .fil45 {fill:#AD5728;fill-opacity:0.121569}
    .fil52 {fill:#FFF498;fill-opacity:0.121569}
    .fil53 {fill:#FFF49A;fill-opacity:0.145098}
    .fil54 {fill:#FFF49D;fill-opacity:0.172549}
    .fil55 {fill:#FFF49F;fill-opacity:0.196078}
    .fil56 {fill:#FFF4A1;fill-opacity:0.219608}
    .fil17 {fill:#BEE4FE;fill-rule:nonzero;fill-opacity:0.501961}
    .fil20 {fill:#A05A17;fill-rule:nonzero;fill-opacity:0.780392}
    .fil24 {fill:#A0C646;fill-rule:nonzero;fill-opacity:0.780392}
    .fil60 {fill:url(#id0)}
    .fil46 {fill:url(#id1)}
    .fil64 {fill:url(#id2);fill-rule:nonzero}
    .fil61 {fill:url(#id3);fill-rule:nonzero}
   
  </style>
  <linearGradient
   id="id0"
   gradientUnits="userSpaceOnUse"
   x1="11.9348"
   y1="21.736"
   x2="11.9348"
   y2="8.57912">
   <stop
   offset="0"
   style="stop-color:#9D6123"
   id="stop9" />
   <stop
   offset="0.568627"
   style="stop-color:#B3732A"
   id="stop11" />
   <stop
   offset="1"
   style="stop-color:#C48231"
   id="stop13" />
  </linearGradient>
  <linearGradient
   id="id1"
   gradientUnits="userSpaceOnUse"
   x1="3.04273"
   y1="8.1029"
   x2="15.4263"
   y2="2.20112">
   <stop
   offset="0"
   style="stop-color:#FFDA53"
   id="stop16" />
   <stop
   offset="1"
   style="stop-color:#FFF67A"
   id="stop18" />
  </linearGradient>
  <linearGradient
   id="id2"
   gradientUnits="userSpaceOnUse"
   x1="11.7622"
   y1="20.4833"
   x2="12.1806"
   y2="8.20863">
   <stop
   offset="0"
   style="stop-color:#743F0D"
   id="stop21" />
   <stop
   offset="1"
   style="stop-color:#91591D"
   id="stop23" />
  </linearGradient>
  <linearGradient
   id="id3"
   gradientUnits="userSpaceOnUse"
   xlink:href="#id2"
   x1="11.7735"
   y1="21.9256"
   x2="12.2197"
   y2="8.8419">
  </linearGradient>
 </defs>
 <g
   id="Слой_x0020_1">
  <metadata
   id="CorelCorpID_0Corel-Layer" />
  <g
   id="_89877872">
   <path
   id="_87441184"
   class="fil0"
   d="M11.3217 20.5017c7.72475,-0.293955 11.1796,0.324286 12.6815,1.18404l0 2.28191c-0.0697328,0.012756 -0.1423,0.0243781 -0.217986,0.0354333l-23.7123 0 0 -2.05117c1.46892,-0.633548 4.59698,-1.19736 11.2488,-1.45022z" />
   <g
   id="g30">
    <path
   id="_87441008"
   class="fil1"
   d="M11.3492 20.6786c7.73297,-0.283467 11.1935,0.371058 12.654,1.24073l0 2.00808c-0.153639,0.0294805 -0.323436,0.0544256 -0.509106,0.0756856l-23.4212 0 0 -1.85274c1.42555,-0.642619 4.53802,-1.22486 11.2763,-1.47176z" />
    <path
   id="_89186160"
   class="fil2"
   d="M11.3764 20.8558c7.71937,-0.271561 11.2074,0.417263 12.6267,1.28949l0 1.74219c-0.244915,0.0501736 -0.537737,0.0875912 -0.874212,0.115654l-23.0561 0 0 -1.66083c1.38785,-0.648005 4.4989,-1.24725 11.3035,-1.4865z" />
    <path
   id="_89186072"
   class="fil3"
   d="M11.4039 21.033c7.68138,-0.257388 11.2242,0.4612 12.5992,1.32804l0 1.48707c-0.351215,0.076536 -0.817802,0.125292 -1.3819,0.155056l-6.7244 0c-0.628729,-0.00368507 -1.27447,-0.00453547 -1.93211,0l-13.8343 0 -0.0575438 -0.0093544 0 -1.46864c1.35525,-0.648572 4.4853,-1.26256 11.331,-1.49217z" />
    <path
   id="_92976960"
   class="fil4"
   d="M11.4311 21.2101c7.61845,-0.241514 11.248,0.50287 12.572,1.35611l0 1.243c-0.508539,0.119056 -1.31047,0.172915 -2.32698,0.193891l-3.03933 0c-1.92786,-0.0192757 -4.16753,-0.0513075 -6.48005,0l-11.6876 0c-0.143718,-0.0167245 -0.276097,-0.0348664 -0.396287,-0.0549926l0 -1.25094c1.32549,-0.64347 4.50202,-1.26965 11.3582,-1.48707z" />
    <path
   id="_92976784"
   class="fil5"
   d="M11.4583 21.387c7.53143,-0.223655 11.2859,0.540855 12.5448,1.37198l0 1.01169c-1.58656,0.402806 -6.7278,0.0858904 -12.1749,0.212317l-0.871093 0.0201261 -10.0262 0c-0.335908,-0.0266459 -0.623343,-0.0598115 -0.858054,-0.0997803l0 -1.04599c1.29601,-0.632414 4.55248,-1.26738 11.3854,-1.47034z" />
    <path
   id="_92976608"
   class="fil6"
   d="M11.4852 21.5645c7.42428,-0.203813 11.3483,0.576288 12.5179,1.37708l0 0.790872c-1.42499,0.401672 -6.65325,0.109135 -12.1644,0.222521 -0.826306,0.017008 -1.64269,0.0334491 -2.43866,0.0481894l-7.75452 0c-0.66473,-0.0308979 -1.19963,-0.077103 -1.57267,-0.142017l0 -0.855786c1.26058,-0.61569 4.63837,-1.25462 11.4124,-1.44086z" />
    <path
   id="_92551400"
   class="fil7"
   d="M11.5133 21.7419c7.3004,-0.182553 11.4478,0.608887 12.4898,1.37085l0 0.582524c-1.22571,0.397704 -6.56141,0.131245 -12.1531,0.231592 -1.79633,0.0323152 -3.55241,0.0617958 -5.14861,0.0762526l-3.39763 0c-1.48395,-0.0198427 -2.62434,-0.0739848 -3.23095,-0.182553l0 -0.679753c1.21182,-0.592729 4.75742,-1.23223 11.4404,-1.39891z" />
    <path
   id="_92551224"
   class="fil8"
   d="M11.5402 21.9194c7.18928,-0.159308 11.6301,0.644887 12.4629,1.36121l0 0.375027c-0.945078,0.395153 -6.42874,0.156757 -12.1426,0.243215 -5.35667,0.081355 -10.4041,0.140033 -11.7877,-0.116788l0 -0.517894c1.13925,-0.563815 4.90766,-1.19991 11.4674,-1.34477z" />
    <path
   id="_93114104"
   class="fil9"
   d="M11.5674 22.0962c7.18843,-0.136348 12.0561,0.706683 12.4357,1.3717l0 0.130962c-0.413295,0.411877 -6.16909,0.198143 -12.1318,0.271561 -5.43349,0.0668982 -10.6051,0.110552 -11.7985,-0.124442l0 -0.369641c1.02558,-0.529799 5.08228,-1.15881 11.4946,-1.28014z" />
    <path
   id="_93113944"
   class="fil10"
   d="M11.5946 22.2734c6.9645,-0.1063 12.3022,0.716604 12.3144,1.3065 0.0119056,0.374176 -5.92389,0.20523 -12.0269,0.262207 -5.54659,0.0521579 -10.882,0.0802211 -11.8092,-0.129261l0 -0.230175c0.831408,-0.490964 5.26086,-1.11402 11.5218,-1.20927z" />
    <path
   id="_88417832"
   class="fil11"
   d="M11.6221 22.4506c6.4517,-0.0708667 12.1599,0.656793 12.1681,1.16193 0.00793707,0.267309 -5.88902,0.16356 -11.8974,0.201545 -5.77394,0.0368507 -11.39,0.047339 -11.82,-0.135781l0 -0.0805046c0.404224,-0.44646 5.36688,-1.07944 11.5493,-1.14719z" />
    <path
   id="_88417624"
   class="fil12"
   d="M11.6494 22.6277c5.93891,-0.0354333 12.0181,0.597265 12.0221,1.01708 0.00396854,0.161009 -5.85416,0.122174 -11.7678,0.140883 -5.91397,0.0192757 -11.7432,0.0110552 -11.7432,-0.117922 0,-0.391184 5.54943,-1.00461 11.4889,-1.04004z" />
   </g>
   <path
   id="_89706272"
   class="fil13"
   d="M11.6763 22.8052c5.42669,0 11.8764,0.537453 11.8764,0.872511 0,0.109135 -23.2774,0.104883 -23.2774,0.00311813 0,-0.334774 5.97435,-0.875629 11.401,-0.875629z" />
  </g>
  <polygon
   class="fil14"
   points="5.21097,4.78832 3.23832,4.8419 2.84175,5.34307 2.7947,5.351 2.59939,5.64949 2.28361,6.04833 2.28191,6.13422 2.00468,6.55744 1.76373,18.0727 2.03217,18.0727 2.01602,18.8469 4.73758,20.3104 5.29658,7.03933 "
   id="polygon45" />
  <polygon
   class="fil14"
   points="18.4914,4.82489 21.1081,5.25774 22.0625,6.57615 22.3301,19.3744 19.6085,20.8382 18.609,8.01361 "
   id="polygon47" />
  <polygon
   class="fil15"
   points="20.2945,4.98278 21.0335,5.351 21.9882,6.55744 22.2289,18.0727 20.618,18.0727 20.3127,7.69896 "
   id="polygon49" />
  <rect
   class="fil16"
   x="1.65284"
   y="10.1838"
   width="21.4104"
   height="10.9316"
   id="rect51" />
  <polygon
   class="fil17"
   points="3.07448,14.0699 21.7609,14.0699 21.6863,14.0554 3.09943,14.0554 "
   id="polygon53" />
  <polygon
   class="fil18"
   points="3.02459,14.0206 7.80668,13.8213 21.6248,13.3275 21.7113,14.0557 3.02459,14.0557 "
   id="polygon55" />
  <polygon
   class="fil19"
   points="23.0447,15.4376 22.939,21.1279 1.65289,21.7255 1.61548,15.7744 "
   id="polygon57" />
  <polygon
   class="fil20"
   points="2.95514,16.3682 3.38941,16.1981 22.0359,15.9467 21.9857,16.8524 2.9302,16.3662 "
   id="polygon59" />
  <polygon
   class="fil21"
   points="2.91432,14.5852 22.0999,14.5852 22.1093,16.1536 2.84856,16.1545 "
   id="polygon61" />
  <polygon
   class="fil22"
   points="23.1505,18.4829 22.9143,21.2648 1.50379,21.2648 1.7402,18.4829 "
   id="polygon63" />
  <polygon
   class="fil23"
   points="22.109,20.051 21.7255,20.2503 2.75643,20.0643 2.76834,20.4737 21.8624,19.9246 "
   id="polygon65" />
  <polygon
   class="fil23"
   points="22.0591,18.7564 21.6262,18.5827 1.81305,18.6456 1.57778,19.4753 22.0857,18.7544 "
   id="polygon67" />
  <polygon
   class="fil24"
   points="1.73113,20.0088 22.0676,19.8943 21.9746,20.21 1.75664,20.0573 "
   id="polygon69" />
  <polygon
   class="fil25"
   points="1.65686,18.5577 22.0427,18.4744 22.0492,18.9583 1.7694,19.0671 "
   id="polygon71" />
  <polygon
   class="fil26"
   points="3.20686,7.16831 0.789172,11.441 22.9208,10.9526 20.7087,7.59833 14.846,7.61449 "
   id="polygon73" />
  <path
   class="fil27"
   d="M3.30352 7.7222l-2.07413 3.44129 21.4482 -0.18397 -2.11126 -2.9764 -5.83176 -0.00283467 -0.00198427 0 -11.4291 -0.278081zm-2.49309 3.53143l2.25299 -3.77351 0.0470555 -0.0864574 0.098363 0.00113387 11.4161 0.187655 6.0472 -0.0348664 0.0864574 0 0.0493232 0.0734179 2.30714 3.42683 0.0348664 0.21175 -0.168379 0.0413862 -22.0245 0.192757 -0.278364 0.004252 0.131812 -0.244348z"
   id="path75" />
  <polygon
   class="fil28"
   points="21.4199,9.7952 21.4199,9.84338 21.4199,9.98002 3.02828,9.98002 3.02828,9.84338 3.02828,9.7952 3.02828,9.65856 21.4199,9.65856 "
   id="polygon77" />
  <g
   id="_122246560">
   <g
   id="g80">
    <path
   id="_122260864"
   class="fil29"
   d="M13.3754 6.77344c2.46843,0 4.42407,0.859755 4.42407,1.90745 0,1.04769 -2.03416,1.88987 -4.5023,1.88987 -2.46871,0 -4.46375,-0.793991 -4.39232,-1.90008 0.0714336,-1.1058 2.00213,-1.89724 4.47055,-1.89724z" />
    <path
   id="_122260048"
   class="fil30"
   d="M13.2733 6.82503c2.41599,0 4.2829,0.846148 4.2829,1.86408 0,1.01821 -2.02367,1.82864 -4.43937,1.82864 -2.41599,0 -4.36142,-0.713769 -4.21884,-1.84934 0.142867,-1.13472 1.95961,-1.84338 4.37531,-1.84338z" />
    <path
   id="_122259232"
   class="fil31"
   d="M13.1719 6.87605c2.36326,0 4.14117,0.832259 4.14117,1.82099 0,0.988732 -2.01318,1.7677 -4.37616,1.7677 -2.36383,0 -4.25937,-0.634399 -4.04535,-1.79831 0.214301,-1.16391 1.9168,-1.79038 4.28035,-1.79038z" />
    <path
   id="_122258416"
   class="fil32"
   d="M13.0701 6.92736c2.31082,0 4,0.818369 4,1.77734 0,0.959252 -2.00269,1.70675 -4.31351,1.70675 -2.31082,0 -4.15704,-0.554178 -3.87159,-1.74729 0.285451,-1.19311 1.87428,-1.7368 4.1851,-1.7368z" />
    <path
   id="_122257600"
   class="fil33"
   d="M12.9689 6.9781c2.2581,0 3.85855,0.804762 3.85855,1.73453 0,0.929771 -1.99249,1.64609 -4.25058,1.64609 -2.25838,0 -4.05499,-0.474807 -3.69811,-1.69683 0.356885,-1.22174 1.83148,-1.68379 4.09014,-1.68379z" />
    <path
   id="_122256784"
   class="fil34"
   d="M12.8668 7.02884c2.20566,0 3.71738,0.790872 3.71738,1.69116 0,0.900857 -1.982,1.58515 -4.18766,1.58515 -2.20594,0 -3.95294,-0.394586 -3.52463,-1.64609 0.428318,-1.25066 1.78896,-1.63022 3.9949,-1.63022z" />
    <path
   id="_122255968"
   class="fil35"
   d="M12.7651 7.08043c2.15321,0 3.57622,0.777266 3.57622,1.64808 0,0.87081 -1.9718,1.52392 -4.12473,1.52392 -2.15321,0 -3.85061,-0.315215 -3.35114,-1.59507 0.499752,-1.27985 1.74616,-1.57693 3.89965,-1.57693z" />
    <path
   id="_122255152"
   class="fil36"
   d="M12.6636 7.13117c2.10049,0 3.43477,0.76366 3.43477,1.60499 0,0.841613 -1.96131,1.46297 -4.0618,1.46297 -2.10077,0 -3.74856,-0.234994 -3.17766,-1.54404 0.570902,-1.30877 1.70364,-1.52392 3.80469,-1.52392z" />
    <path
   id="_122254336"
   class="fil37"
   d="M12.5618 7.18248c2.04805,0 3.29332,0.74977 3.29332,1.5619 0,0.811849 -1.95082,1.40203 -3.99887,1.40203 -2.04805,0 -3.64623,-0.155623 -3.0039,-1.49359 0.642336,-1.33796 1.66112,-1.47034 3.70945,-1.47034z" />
    <path
   id="_122253520"
   class="fil38"
   d="M12.4601 7.23322c1.99561,0 3.15215,0.736447 3.15215,1.51882 0,0.782652 -1.94033,1.34108 -3.93594,1.34108 -1.99561,0 -3.54419,-0.0754022 -2.83042,-1.44256 0.713769,-1.36688 1.6186,-1.41733 3.6142,-1.41733z" />
    <path
   id="_122252704"
   class="fil39"
   d="M12.3586 7.28481c1.94288,0 3.0107,0.722557 3.0107,1.47544 0,0.752888 -1.92984,1.28014 -3.87301,1.28014 -1.94316,0 -3.44185,0.00396854 -2.65693,-1.39154 0.78492,-1.39636 1.57579,-1.36404 3.51924,-1.36404z" />
    <path
   id="_122251888"
   class="fil40"
   d="M12.2565 7.33555c1.89044,0 2.86953,0.708667 2.86953,1.43207 0,0.723974 -1.91935,1.21919 -3.81008,1.21919 -1.89044,0 -3.33981,0.0841896 -2.48345,-1.3408 0.856353,-1.42499 1.53327,-1.31047 3.424,-1.31047z" />
    <path
   id="_122251072"
   class="fil41"
   d="M12.1551 7.38629c1.838,0 2.72837,0.695061 2.72837,1.38955 0,0.69421 -1.90915,1.15796 -3.74715,1.15796 -1.838,0 -3.23776,0.163844 -2.30997,-1.29006 0.927787,-1.4539 1.49047,-1.25746 3.32875,-1.25746z" />
    <path
   id="_122250256"
   class="fil42"
   d="M12.0536 7.4376c1.78527,0 2.58692,0.681454 2.58692,1.3459 0,0.66473 -1.89866,1.0973 -3.6845,1.0973 -1.78527,0 -3.13543,0.243781 -2.13621,-1.23932 0.998937,-1.4831 1.44795,-1.20388 3.23379,-1.20388z" />
    <path
   id="_122249456"
   class="fil43"
   d="M11.9518 7.48863c1.73283,0 2.44547,0.667564 2.44547,1.30281 0,0.635533 -1.88817,1.03635 -3.621,1.03635 -1.73312,0 -3.03366,0.323152 -1.96301,-1.18829 1.07037,-1.5123 1.40543,-1.15088 3.13854,-1.15088z" />
    <path
   id="_122248040"
   class="fil44"
   d="M11.8498 7.54022c1.68039,0 2.30459,0.653674 2.30459,1.25916 0,0.606052 -1.87768,0.975409 -3.55864,0.975409 -1.68039,0 -2.93105,0.403373 -1.78924,-1.13727 1.1418,-1.54149 1.36291,-1.0973 3.0433,-1.0973z" />
   </g>
   <path
   id="_122246600"
   class="fil45"
   d="M11.748 7.59096c1.62795,0 2.16342,0.640068 2.16342,1.21664 0,0.576571 -1.86776,0.91418 -3.49571,0.91418 -1.62795,0 -2.82928,0.483027 -1.61604,-1.08681 1.21324,-1.57012 1.32039,-1.04401 2.94834,-1.04401z" />
  </g>
  <path
   class="fil46"
   d="M13.8371 0.220254l2.7879 3.40387c-0.266742,2.23343 -3.95323,5.03721 -6.05202,5.59904 -3.2182,0.860605 -5.00772,0.445893 -8.72908,0.805896l1.47885 -2.81568c2.54978,-0.214868 2.91092,0.370775 5.04571,-0.655942 1.77025,-0.852668 4.93998,-3.9263 5.20332,-6.32301l0.265325 -0.0141733z"
   id="path99" />
  <g
   id="_90804048">
   <path
   id="_122245000"
   class="fil47"
   d="M11.2202 8.51619c-0.534335,-0.877897 -1.03465,-1.7368 -1.49699,-2.56651 1.12508,-0.627879 2.65325,-1.91312 3.70604,-3.34037l2.15151 3.71342c0.0209765,0.0702998 0.0396854,0.138899 0.0572603,0.207214 -1.14662,1.09135 -2.62689,1.9905 -3.78031,2.36071 -0.211183,-0.118489 -0.423499,-0.243498 -0.637517,-0.37446z" />
   <g
   id="g103">
    <path
   id="_122244184"
   class="fil48"
   d="M11.5754 8.72908c-0.613422,-0.981362 -1.18404,-1.9409 -1.70477,-2.86387 1.10042,-0.649706 2.53108,-1.87315 3.53823,-3.22812l0.153639 0.202395 2.01828 3.48324c0.0209765,0.0702998 0.0396854,0.138899 0.0572603,0.207214 -1.14662,1.09135 -2.62604,1.9905 -3.78003,2.36071l-0.282616 -0.161576z" />
    <path
   id="_122242856"
   class="fil49"
   d="M11.9039 8.87563c-0.682872,-1.06215 -1.31472,-2.10276 -1.88562,-3.09999 1.05109,-0.651407 2.35929,-1.78357 3.31571,-3.03933 0.478208,0.741549 0.961236,1.50124 1.42839,2.17391l0.818369 1.41252c0.0209765,0.0702998 0.0396854,0.138899 0.0572603,0.207214 -1.1316,1.07661 -2.5872,1.96754 -3.73411,2.34569z" />
    <path
   id="_122242040"
   class="fil50"
   d="M15.4195 6.36468l0.148537 0.231025c-1.05563,0.986181 -2.3746,1.80767 -3.46311,2.20962l-0.280916 -0.430303c-0.596414,-0.920133 -1.15116,-1.82326 -1.658,-2.69293 0.941393,-0.610021 2.0591,-1.57693 2.9421,-2.66005 0.757423,1.02388 1.53724,2.14811 2.31139,3.34264z" />
    <path
   id="_94721448"
   class="fil51"
   d="M14.7647 5.86408c0.201261,0.310963 0.397987,0.620792 0.589044,0.926653 -0.947913,0.838495 -2.07129,1.53922 -3.04217,1.93438 -0.239813,-0.354333 -0.479626,-0.717454 -0.720006,-1.08795 -0.452696,-0.698746 -0.879597,-1.38644 -1.27588,-2.05428 0.852101,-0.574587 1.82553,-1.42045 2.63341,-2.36978 0.597265,0.824038 1.20814,1.71356 1.8156,2.65098z" />
    <path
   id="_89324424"
   class="fil52"
   d="M14.1104 5.36234c0.357452,0.551343 0.696194,1.09503 1.01509,1.62483 -0.825455,0.691942 -1.75834,1.2739 -2.59882,1.64609 -0.387216,-0.551343 -0.777833,-1.13132 -1.16703,-1.73255 -0.31153,-0.481043 -0.610021,-0.956417 -0.892637,-1.42159 0.756289,-0.529799 1.59195,-1.25859 2.31649,-2.07526 0.438807,0.618241 0.883566,1.27418 1.32691,1.95847z" />
    <path
   id="_93655016"
   class="fil53"
   d="M13.4565 4.86174c0.519878,0.802495 0.996953,1.586 1.42074,2.32755 -0.685423,0.542555 -1.42782,1.00659 -2.12175,1.33881 -0.5315,-0.724258 -1.08086,-1.52023 -1.62823,-2.36496 -0.173198,-0.267309 -0.341861,-0.532634 -0.505138,-0.794557 0.653674,-0.474523 1.35525,-1.08908 1.98767,-1.7728 0.280916,0.406775 0.564099,0.829707 0.846715,1.26596z" />
    <path
   id="_92921024"
   class="fil54"
   d="M12.8014 4.36c0.701013,1.08086 1.31217,2.12033 1.8003,3.04103 -0.522996,0.389767 -1.06952,0.731911 -1.59705,1.00319 -0.663596,-0.847282 -1.38814,-1.86379 -2.10956,-2.9781l-0.113103 -0.175749c0.543406,-0.408476 1.11431,-0.908795 1.64467,-1.46014 0.124442,0.187088 0.249734,0.377011 0.374743,0.569768z" />
    <path
   id="_92920760"
   class="fil55"
   d="M12.2316 3.98866c0.893204,1.38899 1.61094,2.68613 2.04323,3.64793 -0.322869,0.224506 -0.651407,0.429169 -0.975693,0.610021 -0.666714,-0.746368 -1.50011,-1.84423 -2.35107,-3.12295 0.426051,-0.331656 0.864574,-0.716604 1.28354,-1.135z" />
   </g>
   <path
   id="_90804072"
   class="fil56"
   d="M12.0201 4.19559c1.11658,1.83006 1.77932,3.30125 1.52335,3.44355 -0.245199,0.137765 -1.26029,-0.994968 -2.41939,-2.65523 0.298774,-0.240663 0.600666,-0.505138 0.896039,-0.788321z" />
  </g>
  <path
   class="fil57"
   d="M14.3797 0.184253l2.48487 3.35313 0.103182 0.410176c-0.139749,1.17299 -0.994685,2.38282 -2.09936,3.40075 -2.77457,2.55772 -5.8689,3.00446 -9.50549,3.09319 -0.603784,0.0147403 -1.2413,0.0303309 -1.94855,0.0688824l-0.40394 -0.912763c0.724541,0.0402523 1.82581,-0.0328821 2.42506,-0.0476224 3.33442,-0.081355 6.17788,-0.43257 8.72312,-2.77911 0.841046,-0.774998 2.0078,-2.10219 2.18836,-2.90667l-2.64446 -3.38261c-1.05988,2.99993 -3.9039,7.08752 -8.58848,7.2936 -1.1985,-0.0394019 -2.17391,0.118206 -2.38736,0.176316 -0.356318,0.0975126 0.334207,0.267026 0.334207,-0.790022 0.821487,-0.0615123 1.78017,-0.0416696 2.29268,-0.0246616 3.00191,0.0994968 7.39565,-4.12047 7.72901,-7.16888l0.50939 -0.0272128 0.265325 -0.0141733 0.331373 -0.0175749 0.191057 0.275246z"
   id="path114" />
  <polygon
   class="fil58"
   points="2.41372,9.7969 22.1952,9.7969 22.1725,11.4776 2.39104,11.4776 "
   id="polygon116" />
  <polygon
   class="fil18"
   points="21.7235,13.7839 2.83807,13.7218 3.03678,13.9687 21.7235,13.8193 "
   id="polygon118" />
  <polygon
   class="fil59"
   points="21.4236,13.7646 20.826,13.4301 2.57586,13.3825 2.66289,14.0605 21.4485,13.7626 "
   id="polygon120" />
  <path
   class="fil60"
   d="M12.6239 22.6328l-1.43292 0 -9.40316 0c-0.62391,0 -1.02757,-0.52328 -1.02643,-1.16306l0.0249451 -13.7878 1.19141 0.0694494 0.325136 12.1684c0.0136064,0.512791 0.415279,0.94111 0.920417,0.94111 6.10389,0 11.365,-0.337892 17.4049,-0.337892 0.505421,0 0.920133,-0.425484 0.9207,-0.94111l0.416129 -11.8897 1.13217 0.0646304 0.0121891 13.713c-0.0008504,0.639218 -0.384381,1.16306 -1.00829,1.16306l-9.47715 0z"
   id="path122" />
  <path
   class="fil61"
   d="M23.9558 7.80441l0 13.5095c0,0.452696 -0.185954,0.865708 -0.484728,1.16448 -0.298207,0.298207 -0.711218,0.484728 -1.1642,0.484728l-20.6208 0c-0.453263,0 -0.865991,-0.185954 -1.16448,-0.484445 -0.298491,-0.298491 -0.484161,-0.711218 -0.484161,-1.16477l0 -13.5095 1.00007 0 0 13.5095c0,0.177734 0.0734179,0.34016 0.191057,0.457799 0.117639,0.117639 0.280065,0.19134 0.457515,0.19134l20.6208 0c0.176883,0 0.339593,-0.0739848 0.457232,-0.191624 0.117922,-0.117922 0.191624,-0.280632 0.191624,-0.457515l0 -13.5095 1.00007 0z"
   id="path124" />
  <path
   class="fil62"
   d="M6.09085 4.98193l-2.58068 -0.0283467c-0.305577,0.0371342 -0.502587,0.103749 -0.502587,0.214868l-1.89441 2.68641 -1.07576 -0.0504571 0.00453547 -0.488697 2.29325 -2.74169c0.260506,-0.392602 0.756856,-0.445893 1.25576,-0.559563l2.49989 0.00198427 0 0.965488z"
   id="path126" />
  <path
   class="fil62"
   d="M18.0424 4.98193l2.32811 0.0980795c0.305577,0.0371342 0.502587,0.103749 0.502587,0.214868l2.07129 2.55999 1.07576 -0.0504571 -0.156757 -0.43087 -2.12855 -2.74934c-0.260506,-0.392602 -0.769329,-0.496067 -1.26823,-0.609737l-2.42421 0.00198427 0 0.965488z"
   id="path128" />
  <path
   class="fil63"
   d="M6.04039 5.91227l-2.02509 -0.0221104c-0.305577,0.0371342 -0.553044,0.103749 -0.553044,0.214868l-1.31359 1.82581 -1.17695 -0.0756856 1.76798 -2.28134c0.260506,-0.392602 0.857487,-0.509106 1.35639,-0.622777l1.9443 0.00141733 0 0.959819z"
   id="path130" />
  <path
   class="fil63"
   d="M18.0171 5.91227l2.02509 -0.0221104c0.305577,0.0371342 0.553044,0.103749 0.553044,0.214868l1.31359 1.82581 1.17695 -0.0756856 -1.76798 -2.28134c-0.260506,-0.392602 -0.857487,-0.509106 -1.35639,-0.622777l-1.9443 0.00141733 0 0.959819z"
   id="path132" />
  <rect
   class="fil14"
   x="5.05563"
   y="3.94954"
   width="0.984764"
   height="3.34179"
   id="rect134" />
  <polygon
   class="fil14"
   points="19.0019,4.15222 18.0171,4.15222 18.0171,7.62015 19.0019,7.62015 "
   id="polygon136" />
  <path
   class="fil64"
   d="M21.9355 7.70321l0 11.6363c0,0.452696 -0.185954,0.865708 -0.484728,1.16448 -0.298207,0.298207 -0.711218,0.484728 -1.1642,0.484728l-16.6307 0c-0.453263,0 -0.865991,-0.185954 -1.16448,-0.484445 -0.298491,-0.298491 -0.484161,-0.711218 -0.484161,-1.16477l0 -11.4336 1.00007 0 0 11.4336c0,0.177734 0.0734179,0.34016 0.191057,0.457799 0.117639,0.117639 0.280065,0.19134 0.457515,0.19134l16.6307 0c0.176883,0 0.339593,-0.0739848 0.457232,-0.191624 0.117922,-0.117922 0.191624,-0.280632 0.191624,-0.457515l0 -11.6363 1.00007 0z"
   id="path138" />
  <path
   class="fil65"
   d="M20.9967 20.8263c-0.215435,0.103749 -0.456382,0.162426 -0.710084,0.162426l-16.6307 0c-0.378428,0 -0.72851,-0.129544 -1.00744,-0.346113l0.82914 -0.67947c0.0566934,0.0167245 0.116505,0.025512 0.178301,0.025512l16.6307 0c0.0839062,0 0.164411,-0.0167245 0.238679,-0.046772l0.471405 0.884416z"
   id="path140" />
 </g>
</svg>