<?xml version="1.0" encoding="UTF-8" standalone="no"?>
<!-- Creator: CorelDRAW -->

<svg
   xmlns:dc="http://purl.org/dc/elements/1.1/"
   xmlns:cc="http://creativecommons.org/ns#"
   xmlns:rdf="http://www.w3.org/1999/02/22-rdf-syntax-ns#"
   xmlns:svg="http://www.w3.org/2000/svg"
   xmlns="http://www.w3.org/2000/svg"
   xmlns:sodipodi="http://sodipodi.sourceforge.net/DTD/sodipodi-0.dtd"
   xmlns:inkscape="http://www.inkscape.org/namespaces/inkscape"
   xml:space="preserve"
   width="24px"
   height="24px"
   style="shape-rendering:geometricPrecision; text-rendering:geometricPrecision; image-rendering:optimizeQuality; fill-rule:evenodd; clip-rule:evenodd"
   viewBox="0 0 24 24"
   id="svg3341"
   version="1.1"
   inkscape:version="0.48.1 r9760"
   sodipodi:docname="cairo-clock.svg"><metadata
   id="metadata3445"><rdf:RDF><cc:Work
       rdf:about=""><dc:format>image/svg+xml</dc:format><dc:type
         rdf:resource="http://purl.org/dc/dcmitype/StillImage" /><dc:title></dc:title></cc:Work></rdf:RDF></metadata><sodipodi:namedview
   pagecolor="#ffffff"
   bordercolor="#666666"
   borderopacity="1"
   objecttolerance="10"
   gridtolerance="10"
   guidetolerance="10"
   inkscape:pageopacity="0"
   inkscape:pageshadow="2"
   inkscape:window-width="646"
   inkscape:window-height="480"
   id="namedview3443"
   showgrid="false"
   inkscape:zoom="11.083333"
   inkscape:cx="12"
   inkscape:cy="12"
   inkscape:window-x="0"
   inkscape:window-y="24"
   inkscape:window-maximized="0"
   inkscape:current-layer="svg3341" />
 <defs
   id="defs3343">
  <style
   type="text/css"
   id="style3345">
   
    .fil20 {fill:none}
    .fil24 {fill:#BBE6FF}
    .fil18 {fill:white}
    .fil17 {fill:#E5E5E5;fill-rule:nonzero}
    .fil0 {fill:black;fill-opacity:0.000000}
    .fil1 {fill:black;fill-opacity:0.003922}
    .fil2 {fill:black;fill-opacity:0.007843}
    .fil3 {fill:black;fill-opacity:0.015686}
    .fil4 {fill:black;fill-opacity:0.019608}
    .fil5 {fill:black;fill-opacity:0.023529}
    .fil6 {fill:black;fill-opacity:0.027451}
    .fil7 {fill:black;fill-opacity:0.031373}
    .fil8 {fill:black;fill-opacity:0.035294}
    .fil9 {fill:black;fill-opacity:0.043137}
    .fil10 {fill:black;fill-opacity:0.047059}
    .fil11 {fill:black;fill-opacity:0.050980}
    .fil12 {fill:black;fill-opacity:0.054902}
    .fil13 {fill:black;fill-opacity:0.058824}
    .fil15 {fill:url(#id0)}
    .fil21 {fill:url(#id1)}
    .fil14 {fill:url(#id2)}
    .fil19 {fill:url(#id3);fill-rule:nonzero}
    .fil23 {fill:url(#id4);fill-rule:nonzero;fill-opacity:0.219608}
    .fil22 {fill:url(#id5);fill-opacity:0.321569}
    .fil16 {fill:url(#id6);fill-rule:nonzero;fill-opacity:0.780392}
   
  </style>
  <linearGradient
   id="id0"
   gradientUnits="userSpaceOnUse"
   x1="11.7786"
   y1="1.38502"
   x2="12.0873"
   y2="12.4209">
   <stop
   offset="0"
   style="stop-color:#F7F7F7"
   id="stop3348" />
   <stop
   offset="1"
   style="stop-color:#D1CFCF"
   id="stop3350" />
  </linearGradient>
  <linearGradient
   id="id1"
   gradientUnits="userSpaceOnUse"
   x1="11.6927"
   y1="19.0028"
   x2="12.2004"
   y2="3.94302">
   <stop
   offset="0"
   style="stop-color:#383838"
   id="stop3353" />
   <stop
   offset="1"
   style="stop-color:#3B3A3A"
   id="stop3355" />
  </linearGradient>
  <linearGradient
   id="id2"
   gradientUnits="userSpaceOnUse"
   x1="11.9991"
   y1="14.9687"
   x2="11.8889"
   y2="7.82425">
   <stop
   offset="0"
   style="stop-color:#B0B0B0"
   id="stop3358" />
   <stop
   offset="1"
   style="stop-color:#BEBEBE"
   id="stop3360" />
  </linearGradient>
  <linearGradient
   id="id3"
   gradientUnits="userSpaceOnUse"
   x1="12.0502"
   y1="22.2748"
   x2="12.0502"
   y2="0.710368">
   <stop
   offset="0"
   style="stop-color:#7F7F7F"
   id="stop3363" />
   <stop
   offset="1"
   style="stop-color:#999999"
   id="stop3365" />
  </linearGradient>
  <linearGradient
   id="id4"
   gradientUnits="userSpaceOnUse"
   x1="15.2264"
   y1="20.2452"
   x2="15.2264"
   y2="16.4467">
   <stop
   offset="0"
   style="stop-color:#E5E5E5"
   id="stop3368" />
   <stop
   offset="1"
   style="stop-color:#333333"
   id="stop3370" />
  </linearGradient>
  <linearGradient
   id="id5"
   gradientUnits="userSpaceOnUse"
   x1="13.1809"
   y1="3.19495"
   x2="13.6243"
   y2="11.9473">
   <stop
   offset="0"
   style="stop-color:white"
   id="stop3373" />
   <stop
   offset="1"
   style="stop-color:#999999"
   id="stop3375" />
  </linearGradient>
  <linearGradient
   id="id6"
   gradientUnits="userSpaceOnUse"
   x1="7.28595"
   y1="-0.18397"
   x2="6.97413"
   y2="24.0156">
   <stop
   offset="0"
   style="stop-color:white"
   id="stop3378" />
   <stop
   offset="0.568627"
   style="stop-color:#E5E5E5"
   id="stop3380" />
   <stop
   offset="1"
   style="stop-color:#D1CFCF"
   id="stop3382" />
  </linearGradient>
 </defs>
 <g
   id="Слой_x0020_1">
  <metadata
   id="CorelCorpID_0Corel-Layer" />
  <g
   id="_400704824">
   <path
   id="_400711568"
   class="fil0"
   d="M11.3066 20.5017c7.88576,-0.293955 11.4129,0.324286 12.9459,1.18404l0 2.28191c-0.0711502,0.012756 -0.145135,0.0243781 -0.222521,0.0354333l-24.2066 0 0 -2.05117c1.49954,-0.633548 4.69279,-1.19736 11.4832,-1.45022z" />
   <g
   id="g3388">
    <path
   id="_400711376"
   class="fil1"
   d="M11.3347 20.6786c7.89427,-0.283467 11.4271,0.371058 12.9179,1.24073l0 2.00808c-0.156757,0.0294805 -0.330239,0.0544256 -0.519595,0.0756856l-23.9096 0 0 -1.85274c1.45532,-0.642619 4.6327,-1.22486 11.5113,-1.47176z" />
    <path
   id="_400710944"
   class="fil2"
   d="M11.3625 20.8558c7.88038,-0.271561 11.4413,0.417263 12.8901,1.28949l0 1.74219c-0.250018,0.0501736 -0.549075,0.0875912 -0.892353,0.115654l-23.5368 0 0 -1.66083c1.41677,-0.648005 4.59273,-1.24725 11.5391,-1.4865z" />
    <path
   id="_400713272"
   class="fil3"
   d="M11.3905 21.033c7.84154,-0.257388 11.4583,0.4612 12.862,1.32804l0 1.48707c-0.358586,0.076536 -0.83481,0.125292 -1.41081,0.155056l-6.86443 0c-0.641769,-0.00368507 -1.30111,-0.00453547 -1.97236,0l-14.1229 0 -0.0586776 -0.0093544 0 -1.46864c1.3836,-0.648572 4.57884,-1.26256 11.5671,-1.49217z" />
    <path
   id="_400711400"
   class="fil4"
   d="M11.4183 21.2101c7.77748,-0.241514 11.4827,0.50287 12.8342,1.35611l0 1.243c-0.519028,0.119056 -1.33768,0.172915 -2.37545,0.193891l-3.10283 0c-1.96783,-0.0192757 -4.25427,-0.0513075 -6.61498,0l-11.9314 0c-0.146552,-0.0167245 -0.281766,-0.0348664 -0.404507,-0.0549926l0 -1.25094c1.35299,-0.64347 4.59585,-1.26965 11.5949,-1.48707z" />
    <path
   id="_400712912"
   class="fil5"
   d="M11.4461 21.387c7.68847,-0.223655 11.5212,0.540855 12.8065,1.37198l0 1.01169c-1.61973,0.402806 -6.86812,0.0858904 -12.4286,0.212317l-0.889235 0.0201261 -10.2354 0c-0.342995,-0.0266459 -0.636383,-0.0598115 -0.875912,-0.0997803l0 -1.04599c1.32294,-0.632414 4.64744,-1.26738 11.6227,-1.47034z" />
    <path
   id="_400717040"
   class="fil6"
   d="M11.4736 21.5645c7.57905,-0.203813 11.585,0.576288 12.779,1.37708l0 0.790872c-1.45475,0.401672 -6.79186,0.109135 -12.4181,0.222521 -0.843314,0.017008 -1.67671,0.0334491 -2.48941,0.0481894l-7.91609 0c-0.67862,-0.0308979 -1.22486,-0.077103 -1.60556,-0.142017l0 -0.855786c1.28694,-0.61569 4.73503,-1.25462 11.6502,-1.44086z" />
    <path
   id="_400696856"
   class="fil7"
   d="M11.5022 21.7419c7.45263,-0.182553 11.6865,0.608887 12.7503,1.37085l0 0.582524c-1.25122,0.397704 -6.69832,0.131245 -12.4065,0.231592 -1.83375,0.0323152 -3.62639,0.0617958 -5.25576,0.0762526l-3.4685 0c-1.51513,-0.0198427 -2.67904,-0.0739848 -3.29842,-0.182553l0 -0.679753c1.23705,-0.592729 4.85664,-1.23223 11.6788,-1.39891z" />
    <path
   id="_400701968"
   class="fil8"
   d="M11.5297 21.9194c7.33924,-0.159308 11.8727,0.644887 12.7228,1.36121l0 0.375027c-0.964921,0.395153 -6.56282,0.156757 -12.3957,0.243215 -5.46836,0.081355 -10.6209,0.140033 -12.0334,-0.116788l0 -0.517894c1.16306,-0.563815 5.00999,-1.19991 11.7063,-1.34477z" />
    <path
   id="_400692248"
   class="fil9"
   d="M11.5575 22.0962c7.33839,-0.136348 12.3076,0.706683 12.6951,1.3717l0 0.130962c-0.421799,0.411877 -6.29778,0.198143 -12.3847,0.271561 -5.54688,0.0668982 -10.8262,0.110552 -12.0445,-0.124442l0 -0.369641c1.04684,-0.529799 5.18829,-1.15881 11.7341,-1.28014z" />
    <path
   id="_400693304"
   class="fil10"
   d="M11.5853 22.2734c7.10991,-0.1063 12.5587,0.716604 12.5712,1.3065 0.0121891,0.374176 -6.04748,0.20523 -12.2775,0.262207 -5.66225,0.0521579 -11.1091,0.0802211 -12.0556,-0.129261l0 -0.230175c0.8487,-0.490964 5.37056,-1.11402 11.7619,-1.20927z" />
    <path
   id="_400690856"
   class="fil11"
   d="M11.6134 22.4506c6.58635,-0.0708667 12.4136,0.656793 12.4218,1.16193 0.00822054,0.267309 -6.01176,0.16356 -12.1454,0.201545 -5.89413,0.0368507 -11.6272,0.047339 -12.0663,-0.135781l0 -0.0805046c0.412728,-0.44646 5.47885,-1.07944 11.79,-1.14719z" />
    <path
   id="_400708376"
   class="fil12"
   d="M11.6411 22.6277c6.06279,-0.0354333 12.2687,0.597265 12.273,1.01708 0.00396854,0.161009 -5.97633,0.122174 -12.0133,0.140883 -6.03728,0.0192757 -11.9881,0.0110552 -11.9881,-0.117922 0,-0.391184 5.66537,-1.00461 11.7284,-1.04004z" />
   </g>
   <path
   id="_400688552"
   class="fil13"
   d="M11.6686 22.8052c5.54008,0 12.1242,0.537453 12.1242,0.872511 0,0.109135 -23.7627,0.104883 -23.7627,0.00311813 0,-0.334774 6.09879,-0.875629 11.6386,-0.875629z" />
  </g>
  <path
   class="fil14"
   d="M1.36348 0.410176l21.0063 0c0.666147,0 1.2121,0.550493 1.21097,1.21097l-0.0394019 19.5507c-0.00113387,0.661328 -0.545674,1.21097 -1.21097,1.21097 -7.97534,0 -7.20459,0 -20.8076,0 -0.66473,0 -1.21664,-0.54454 -1.21097,-1.21097l0.0119056 -19.5507c0.000566934,-0.665864 0.373893,-1.21097 1.03976,-1.21097z"
   id="path3403" />
  <path
   class="fil15"
   d="M23.0784 11.1153c-6.02083,1.35044 -16.4646,0.959819 -22.3083,0.593013l0 -9.3031c0,-0.486429 0.326554,-0.903409 0.781801,-1.06584l21.3952 0 0.089292 0.0357168c0.038268,0.115654 0.0592446,0.239813 0.0592446,0.367656l-0.0172915 9.37255z"
   id="path3405" />
  <path
   class="fil16"
   d="M22.9948 3.90929l0 17.476c0,0.452696 -0.185954,0.865708 -0.484728,1.16448 -0.298207,0.298207 -0.711218,0.484728 -1.1642,0.484728l-18.8454 -0.193891c-0.453263,0 -0.865991,-0.185954 -1.16448,-0.484445 -0.298491,-0.298491 -0.484161,-0.711218 -0.484161,-1.16477l0 -18.5708c0,-0.643753 0.000283467,-1.34448 0.412728,-1.83715 0.265041,-0.316349 0.642619,-0.516193 1.12054,-0.516193l0.00963787 0.00198427 0.0606619 0.00141733 18.8848 0.231309 0.00396854 0 0.0277797 0.000283467 0.978527 -0.122458c1.81305,0.0218269 0.679753,1.65318 0.663312,3.00673l-0.0189923 0.522713zm-1.00007 17.476l0 -17.976c0,-0.440507 -0.0754022,-1.42555 -0.263057,-1.69655 -0.108851,-0.0986464 -0.138615,-0.21175 -0.369641,-0.214301l0.0354333 -0.367656 -18.9517 0.136064 0.051591 -0.367373 -0.112253 0.366239 0 0.0017008c-0.155056,0 -0.274396,0.0609454 -0.354617,0.156757 -0.253986,0.303876 -0.178584,0.762809 -0.178584,1.19651l0 18.5708c0,0.177734 0.0734179,0.34016 0.191057,0.457799 0.117639,0.117639 0.280065,0.19134 0.457515,0.19134l18.8454 0.193891c0.176883,0 0.339593,-0.0739848 0.457232,-0.191624 0.117922,-0.117922 0.191624,-0.280632 0.191624,-0.457515z"
   id="path3407" />
  <path
   class="fil17"
   d="M23.8404 21.7975c-0.363688,0.256537 -0.970874,0.243215 -1.38615,0.243215l-20.9604 0 -0.0113387 0 -0.00283467 -0.0025512c-0.462901,-0.00396854 -1.06073,0.0158741 -1.38133,-0.358302 0.239246,-0.251435 0.495783,-0.504004 0.75147,-0.724825 0.189639,0.0422366 0.456665,-0.0342995 0.632698,-0.0331656l0 -0.0025512 0.0113387 0 20.9604 0 0.437956 -0.0462051c0.291687,0.270994 0.622777,0.58706 0.948196,0.924385z"
   id="path3409" />
  <rect
   class="fil18"
   x="0.421232"
   y="0.958401"
   width="22.6388"
   height="1.04429"
   id="rect3411" />
  <path
   class="fil19"
   d="M23.9714 3.83786l0 17.476c0,0.452696 -0.185954,0.865708 -0.484728,1.16448 -0.298207,0.298207 -0.711218,0.484728 -1.1642,0.484728l-20.7985 0c-0.453263,0 -0.865991,-0.185954 -1.16448,-0.484445 -0.298491,-0.298491 -0.484161,-0.711218 -0.484161,-1.16477l0 -18.5708c0,-0.643753 0.0615123,-1.71186 0.473956,-2.20452 0.265041,-0.316349 0.642619,-0.516193 1.12054,-0.516193l0.00963787 0.00198427 0.0606619 0.00141733 20.8379 0.0374176 0.00396854 0 0.0277797 0.000283467 0.00198427 0c1.81305,0.0218269 1.59507,1.89809 1.57863,3.25165l-0.0189923 0.522713zm-1.00007 17.476l0 -17.976c0,-0.440507 -0.0141733,-1.79293 -0.201828,-2.06392 -0.108851,-0.0986464 -0.138615,-0.21175 -0.369641,-0.214301l-0.0257955 -0.000283467 -20.8436 -0.0374176 -0.00963787 0 -0.051024 -0.00113387 0 0.0017008c-0.155056,0 -0.274396,0.0609454 -0.354617,0.156757 -0.253986,0.303876 -0.239813,1.13018 -0.239813,1.56389l0 18.5708c0,0.177734 0.0734179,0.34016 0.191057,0.457799 0.117639,0.117639 0.280065,0.19134 0.457515,0.19134l20.7985 0c0.176883,0 0.339593,-0.0739848 0.457232,-0.191624 0.117922,-0.117922 0.191624,-0.280632 0.191624,-0.457515z"
   id="path3413" />
  <path
   class="fil20"
   d="M-65.4908 -16.0099l-0.125009 0.136348m20.6965 -0.0147403l-0.139749 -0.123308"
   id="path3415" />
  <ellipse
   class="fil21"
   cx="11.9465"
   cy="11.473"
   rx="9.75407"
   ry="9.60047"
   id="ellipse3417" />
  <path
   class="fil22"
   d="M20.7061 10.8148c-4.6755,1.7385 -15.0946,1.76515 -17.5333,0.274963 0.0742683,-2.29155 1.04117,-4.28602 2.56679,-5.79973 1.58855,-1.57579 3.78371,-2.55092 6.20679,-2.55092 2.42336,0 4.61796,0.975126 6.20651,2.55092 1.46411,1.45277 2.41372,3.34349 2.55319,5.52477z"
   id="path3419" />
  <path
   class="fil23"
   d="M19.3047 16.2772c-0.291687,0.404791 -0.61654,0.78492 -0.97059,1.13642l-0.00113387 0.00113387 -0.00113387 0.00113387c-1.64524,1.63277 -3.9195,2.64219 -6.42676,2.64219 -2.50726,0 -4.78123,-1.00943 -6.42761,-2.64219l-0.00113387 -0.00113387 -0.00113387 -0.00113387c-0.353483,-0.351499 -0.678336,-0.731628 -0.970023,-1.13642l0.18482 0c-0.0629296,-0.081355 -0.124725,-0.163844 -0.18482,-0.247467l0.661612 0c0.215435,0.273262 0.448444,0.534335 0.695628,0.779534l0.00113387 0.00113387 0.00113387 0.00113387c1.55963,1.54688 3.71455,2.50358 6.09,2.50358 2.37545,0 4.53093,-0.9567 6.08915,-2.50358l0.00113387 -0.00113387 0.00141733 -0.00113387c0.247183,-0.245199 0.48076,-0.506272 0.696194,-0.779534l0.562115 0c-0.060095,0.0836227 -0.121891,0.166112 -0.18482,0.247467l0.18482 0z"
   id="path3421" />
  <polygon
   class="fil24"
   points="11.949,5.97973 13.0171,5.97973 13.0171,12.4666 11.949,12.4666 "
   id="polygon3423" />
  <polygon
   class="fil24"
   points="16.7861,15.6632 16.0765,16.2718 9.89809,10.0934 10.6073,9.48537 "
   id="polygon3425" />
  <rect
   class="fil24"
   x="11.9876"
   y="3.87041"
   width="1.00405"
   height="0.961417"
   id="rect3427" />
  <rect
   class="fil24"
   x="12.0383"
   y="18.0537"
   width="1.00405"
   height="0.961417"
   id="rect3429" />
  <rect
   class="fil24"
   x="4.06809"
   y="10.9236"
   width="1.00405"
   height="0.961417"
   id="rect3431" />
  <rect
   class="fil24"
   x="18.9158"
   y="10.9747"
   width="1.00405"
   height="0.961417"
   id="rect3433" />
  <rect
   class="fil24"
   x="5.97468"
   y="5.03093"
   width="1.00405"
   height="0.961417"
   id="rect3435" />
  <rect
   class="fil24"
   x="17.0849"
   y="5.00541"
   width="1.00405"
   height="0.961417"
   id="rect3437" />
  <rect
   class="fil24"
   x="5.99991"
   y="16.6885"
   width="1.00405"
   height="0.961417"
   id="rect3439" />
  <rect
   class="fil24"
   x="17.0086"
   y="16.765"
   width="1.00405"
   height="0.961417"
   id="rect3441" />
 </g>
</svg>