<?xml version="1.0" encoding="UTF-8" standalone="no"?>
<!-- Creator: CorelDRAW -->

<svg
   xmlns:dc="http://purl.org/dc/elements/1.1/"
   xmlns:cc="http://creativecommons.org/ns#"
   xmlns:rdf="http://www.w3.org/1999/02/22-rdf-syntax-ns#"
   xmlns:svg="http://www.w3.org/2000/svg"
   xmlns="http://www.w3.org/2000/svg"
   xmlns:sodipodi="http://sodipodi.sourceforge.net/DTD/sodipodi-0.dtd"
   xmlns:inkscape="http://www.inkscape.org/namespaces/inkscape"
   xml:space="preserve"
   width="24px"
   height="24px"
   style="shape-rendering:geometricPrecision; text-rendering:geometricPrecision; image-rendering:optimizeQuality; fill-rule:evenodd; clip-rule:evenodd"
   viewBox="0 0 24 24"
   id="svg3804"
   version="1.1"
   inkscape:version="0.48.1 r9760"
   sodipodi:docname="draklive-instal.svg"><metadata
   id="metadata3988"><rdf:RDF><cc:Work
       rdf:about=""><dc:format>image/svg+xml</dc:format><dc:type
         rdf:resource="http://purl.org/dc/dcmitype/StillImage" /><dc:title></dc:title></cc:Work></rdf:RDF></metadata><sodipodi:namedview
   pagecolor="#ffffff"
   bordercolor="#666666"
   borderopacity="1"
   objecttolerance="10"
   gridtolerance="10"
   guidetolerance="10"
   inkscape:pageopacity="0"
   inkscape:pageshadow="2"
   inkscape:window-width="646"
   inkscape:window-height="480"
   id="namedview3986"
   showgrid="false"
   inkscape:zoom="11.083333"
   inkscape:cx="12"
   inkscape:cy="12"
   inkscape:window-x="0"
   inkscape:window-y="24"
   inkscape:window-maximized="0"
   inkscape:current-layer="svg3804" />
 <defs
   id="defs3806">
  <style
   type="text/css"
   id="style3808">
   
    .fil68 {fill:#8BC5F5}
    .fil69 {fill:#BCE6FF}
    .fil55 {fill:#E3FF9C}
    .fil10 {fill:#EDEDED}
    .fil42 {fill:#959595;fill-rule:nonzero}
    .fil41 {fill:#B5B5B5;fill-rule:nonzero}
    .fil71 {fill:white;fill-rule:nonzero}
    .fil27 {fill:#FFFFFA;fill-opacity:0.000000}
    .fil0 {fill:#333333;fill-opacity:0.011765}
    .fil45 {fill:#E3FF9C;fill-opacity:0.023529}
    .fil56 {fill:#E6FFA8;fill-opacity:0.023529}
    .fil28 {fill:#FFFFFB;fill-opacity:0.023529}
    .fil1 {fill:#333333;fill-opacity:0.023529}
    .fil2 {fill:#333333;fill-opacity:0.035294}
    .fil3 {fill:#333333;fill-opacity:0.047059}
    .fil46 {fill:#E3FF9C;fill-opacity:0.047059}
    .fil57 {fill:#E6FFA8;fill-opacity:0.047059}
    .fil29 {fill:#FFFFFC;fill-opacity:0.047059}
    .fil19 {fill:#BDC0CB;fill-opacity:0.058824}
    .fil11 {fill:white;fill-opacity:0.058824}
    .fil4 {fill:#333333;fill-opacity:0.058824}
    .fil5 {fill:#333333;fill-opacity:0.074510}
    .fil47 {fill:#E3FF9C;fill-opacity:0.074510}
    .fil58 {fill:#E6FFA8;fill-opacity:0.074510}
    .fil30 {fill:#FFFFFC;fill-opacity:0.074510}
    .fil65 {fill:black;fill-opacity:0.078431}
    .fil6 {fill:#333333;fill-opacity:0.086275}
    .fil7 {fill:#333333;fill-opacity:0.098039}
    .fil48 {fill:#E3FF9C;fill-opacity:0.098039}
    .fil59 {fill:#E6FFA8;fill-opacity:0.098039}
    .fil31 {fill:#FFFFFD;fill-opacity:0.098039}
    .fil8 {fill:#333333;fill-opacity:0.109804}
    .fil20 {fill:#B9C1D2;fill-opacity:0.113725}
    .fil12 {fill:white;fill-opacity:0.113725}
    .fil9 {fill:#333333;fill-opacity:0.121569}
    .fil49 {fill:#E3FF9C;fill-opacity:0.121569}
    .fil60 {fill:#E6FFA8;fill-opacity:0.121569}
    .fil32 {fill:#FFFFFD;fill-opacity:0.121569}
    .fil50 {fill:#E3FF9C;fill-opacity:0.145098}
    .fil61 {fill:#E6FFA8;fill-opacity:0.145098}
    .fil33 {fill:#FFFFFE;fill-opacity:0.145098}
    .fil51 {fill:#E3FF9C;fill-opacity:0.172549}
    .fil62 {fill:#E6FFA8;fill-opacity:0.172549}
    .fil34 {fill:#FFFFFE;fill-opacity:0.172549}
    .fil21 {fill:#B5C2D8;fill-opacity:0.172549}
    .fil13 {fill:white;fill-opacity:0.172549}
    .fil52 {fill:#E3FF9C;fill-opacity:0.196078}
    .fil63 {fill:#E6FFA8;fill-opacity:0.196078}
    .fil35 {fill:white;fill-opacity:0.196078}
    .fil54 {fill:#E3FF9C;fill-opacity:0.219608}
    .fil36 {fill:white;fill-opacity:0.219608}
    .fil22 {fill:#B1C3DF;fill-opacity:0.231373}
    .fil14 {fill:white;fill-opacity:0.231373}
    .fil23 {fill:#AEC4E5;fill-opacity:0.290196}
    .fil15 {fill:white;fill-opacity:0.290196}
    .fil37 {fill:#ADADAD;fill-opacity:0.321569}
    .fil24 {fill:#AAC5EC;fill-opacity:0.345098}
    .fil16 {fill:white;fill-opacity:0.345098}
    .fil25 {fill:#A6C6F2;fill-opacity:0.403922}
    .fil17 {fill:white;fill-opacity:0.403922}
    .fil26 {fill:#A2C7F9;fill-opacity:0.462745}
    .fil18 {fill:white;fill-opacity:0.462745}
    .fil53 {fill:#91B341;fill-opacity:0.501961}
    .fil39 {fill:white;fill-opacity:0.580392}
    .fil67 {fill:url(#id0)}
    .fil44 {fill:url(#id1)}
    .fil66 {fill:url(#id2);fill-rule:nonzero}
    .fil40 {fill:url(#id3);fill-rule:nonzero}
    .fil64 {fill:url(#id4);fill-rule:nonzero}
    .fil70 {fill:url(#id5);fill-rule:nonzero;fill-opacity:0.321569}
    .fil43 {fill:url(#id6);fill-opacity:0.380392}
    .fil38 {fill:url(#id7);fill-opacity:0.921569}
   
  </style>
  <linearGradient
   id="id0"
   gradientUnits="userSpaceOnUse"
   x1="18.3346"
   y1="22.8075"
   x2="18.1926"
   y2="14.219">
   <stop
   offset="0"
   style="stop-color:#5E9DD5"
   id="stop3811" />
   <stop
   offset="0.568627"
   style="stop-color:#7EBBEE"
   id="stop3813" />
   <stop
   offset="1"
   style="stop-color:#8FCDFF"
   id="stop3815" />
  </linearGradient>
  <linearGradient
   id="id1"
   gradientUnits="userSpaceOnUse"
   x1="10.56"
   y1="8.75742"
   x2="10.7408"
   y2="16.1599">
   <stop
   offset="0"
   style="stop-color:#A2C849"
   id="stop3818" />
   <stop
   offset="1"
   style="stop-color:#A8CE52"
   id="stop3820" />
  </linearGradient>
  <linearGradient
   id="id2"
   gradientUnits="userSpaceOnUse"
   x1="17.8649"
   y1="13.3085"
   x2="18.1875"
   y2="23.7863">
   <stop
   offset="0"
   style="stop-color:#5E9DD5"
   id="stop3823" />
   <stop
   offset="1"
   style="stop-color:#4E87B4"
   id="stop3825" />
  </linearGradient>
  <linearGradient
   id="id3"
   gradientUnits="userSpaceOnUse"
   x1="11.1088"
   y1="20.4535"
   x2="11.7704"
   y2="2.5203">
   <stop
   offset="0"
   style="stop-color:#858585"
   id="stop3828" />
   <stop
   offset="1"
   style="stop-color:#BFBFBF"
   id="stop3830" />
  </linearGradient>
  <linearGradient
   id="id4"
   gradientUnits="userSpaceOnUse"
   x1="8.53122"
   y1="21.3221"
   x2="12.1638"
   y2="4.79456">
   <stop
   offset="0"
   style="stop-color:#7C9E2E"
   id="stop3833" />
   <stop
   offset="1"
   style="stop-color:#A8CE52"
   id="stop3835" />
  </linearGradient>
  <linearGradient
   id="id5"
   gradientUnits="userSpaceOnUse"
   x1="19.8707"
   y1="15.3863"
   x2="20.178"
   y2="22.3035">
   <stop
   offset="0"
   style="stop-color:#5A93C4"
   id="stop3838" />
   <stop
   offset="1"
   style="stop-color:#4A7FA8"
   id="stop3840" />
  </linearGradient>
  <linearGradient
   id="id6"
   gradientUnits="userSpaceOnUse"
   x1="10.8273"
   y1="9.82156"
   x2="13.5871"
   y2="22.8191">
   <stop
   offset="0"
   style="stop-color:#191919"
   id="stop3843" />
   <stop
   offset="1"
   style="stop-color:#999999"
   id="stop3845" />
  </linearGradient>
  <linearGradient
   id="id7"
   gradientUnits="userSpaceOnUse"
   x1="11.6459"
   y1="12.3198"
   x2="11.5586"
   y2="8.03203">
   <stop
   offset="0"
   style="stop-color:#E4E4E4"
   id="stop3848" />
   <stop
   offset="1"
   style="stop-color:white"
   id="stop3850" />
  </linearGradient>
 </defs>
 <g
   id="Слой_x0020_1">
  <metadata
   id="CorelCorpID_0Corel-Layer" />
  <g
   id="_110060560">
   <path
   id="_110050792"
   class="fil0"
   d="M11.437 22.5787c9.70704,-0.130962 10.4676,0.804479 10.4676,0.978244 0,0.123308 -2.58663,0.293672 -6.25129,0.370208l-7.80951 0c-3.66579,-0.076536 -6.25384,-0.247183 -6.25384,-0.370208 0,-0.173765 0.140316,-0.847282 9.84707,-0.978244z" />
   <g
   id="g3856">
    <path
   id="_110058616"
   class="fil1"
   d="M11.4878 22.6025c8.78152,-0.116221 9.6013,0.734746 9.6013,0.900857 0,0.147686 -4.20523,0.367373 -9.32436,0.367373 -5.11884,0 -9.32464,-0.220254 -9.32464,-0.367373 0,-0.166112 0.265608,-0.784353 9.04769,-0.900857z" />
    <path
   id="_110051008"
   class="fil2"
   d="M11.5371 22.6272c7.85713,-0.101765 8.73701,0.665013 8.73701,0.823755 0,0.131245 -3.84579,0.324569 -8.49238,0.324569 -4.64489,0 -8.49181,-0.193891 -8.49181,-0.324569 0,-0.158741 0.39005,-0.722273 8.24718,-0.823755z" />
    <path
   id="_110048656"
   class="fil3"
   d="M11.5873 22.6515c6.93218,-0.0873078 7.87131,0.59528 7.87131,0.746652 0,0.115088 -3.48664,0.282049 -7.65899,0.281766 -4.17291,0 -7.66041,-0.167245 -7.66041,-0.281766 0,-0.151371 0.51591,-0.659344 7.44809,-0.746652z" />
    <path
   id="_110050096"
   class="fil4"
   d="M11.6372 22.6762c6.00808,-0.072851 7.0073,0.525547 7.0073,0.669549 0,0.0986464 -3.12834,0.239246 -6.82701,0.238679 -3.69924,0 -6.82758,-0.1406 -6.82758,-0.238679 0,-0.144001 0.640352,-0.596981 6.6473,-0.669549z" />
    <path
   id="_110059264"
   class="fil5"
   d="M11.6859 22.7009c5.08228,-0.0583942 6.14159,0.455815 6.14159,0.592729 0,0.0822054 -2.76862,0.195876 -5.99419,0.195876 -3.22585,0 -5.99504,-0.115088 -5.99504,-0.195876 0,-0.136914 0.764793,-0.534618 5.84764,-0.592729z" />
    <path
   id="_110049640"
   class="fil6"
   d="M11.7361 22.7258c4.15789,-0.0436539 5.2773,0.386082 5.2773,0.515626 0,0.0660478 -2.41003,0.153072 -5.16221,0.153072 -2.75218,0 -5.16221,-0.0884416 -5.16221,-0.153072 0,-0.129544 0.889235,-0.472256 5.04713,-0.515626z" />
    <path
   id="_110055472"
   class="fil7"
   d="M11.786 22.7502c3.23294,-0.0289136 4.41188,0.316632 4.41188,0.438523 0,0.0498902 -2.05088,0.110836 -4.32882,0.110269 -2.27992,0 -4.33109,-0.0617958 -4.33109,-0.110269 0,-0.121891 1.01538,-0.409326 4.24803,-0.438523z" />
    <path
   id="_110048776"
   class="fil8"
   d="M11.8353 22.7749c2.30884,-0.0144568 3.54787,0.246616 3.54787,0.361137 0,0.0337325 -1.69201,0.068032 -3.49685,0.0677486 -1.80653,0 -3.49826,-0.0354333 -3.49826,-0.0677486 0,-0.114521 1.13954,-0.34668 3.44724,-0.361137z" />
   </g>
   <path
   id="_110062864"
   class="fil9"
   d="M11.8849 22.8001c1.38417,0 2.68273,0.1766 2.68273,0.28375 0,0.0348664 -5.33031,0.0323152 -5.33031,0 0,-0.10715 1.26369,-0.28375 2.64758,-0.28375z" />
  </g>
  <path
   class="fil10"
   d="M11.4396 0.398554c6.13961,0 11.1181,4.96549 11.1181,11.0887 0,6.12288 -4.97853,11.0884 -11.1181,11.0884 -6.13932,0 -11.1181,-4.96549 -11.1181,-11.0884 0,-6.12317 4.97881,-11.0887 11.1181,-11.0887zm0 7.37666c2.05513,0 3.72192,1.66225 3.72192,3.712 0,2.04946 -1.66678,3.71171 -3.72192,3.71171 -2.05513,0 -3.72164,-1.66225 -3.72164,-3.71171 0,-2.04975 1.6665,-3.712 3.72164,-3.712z"
   id="path3867" />
  <g
   id="_110049616">
   <path
   id="_110050888"
   class="fil11"
   d="M13.3178 8.28205l1.89923 -7.22642c4.28035,1.54263 7.34094,5.63107 7.34094,10.4316 0,0.604635 -0.0490398,1.19765 -0.142584,1.77649l-7.25845 -1.95592c-0.0615123,-1.29119 -0.78492,-2.41003 -1.83913,-3.02572z" />
   <path
   id="_110053480"
   class="fil12"
   d="M13.4352 8.35377l2.28899 -7.10141c4.01276,1.6733 6.83382,5.62625 6.83382,10.2349 0,0.316632 -0.0141733,0.630147 -0.0402523,0.940543l-7.37694 -1.33088c-0.120757,-1.15371 -0.771597,-2.15038 -1.70562,-2.74311z" />
   <path
   id="_110063296"
   class="fil13"
   d="M13.5534 8.432l2.69719 -6.94409c3.73127,1.78953 6.30742,5.59478 6.30742,9.99929l-0.000283467 0.0308979 -7.44809 -0.649422c-0.169513,-1.00772 -0.746652,-1.87825 -1.55623,-2.43668z" />
   <path
   id="_110050312"
   class="fil14"
   d="M13.6716 8.51676l3.12012 -6.75048c3.17738,1.74417 5.40741,4.9927 5.72631,8.78265l-7.45744 0.0776699c-0.203813,-0.856353 -0.704982,-1.5979 -1.38899,-2.10984z" />
   <path
   id="_110060848"
   class="fil15"
   d="M13.7887 8.60832l3.55326 -6.51889c2.60733,1.63249 4.48785,4.31436 5.04514,7.45121l-7.39565 0.834526c-0.220821,-0.70158 -0.644604,-1.3133 -1.20275,-1.76685z" />
   <path
   id="_110050648"
   class="fil16"
   d="M13.9035 8.70555l3.99121 -6.24704c2.04408,1.45645 3.57253,3.58614 4.26051,6.06335l-7.2542 1.59904c-0.217703,-0.547658 -0.562115,-1.03154 -0.99752,-1.41535z" />
   <path
   id="_110051368"
   class="fil17"
   d="M14.0154 8.80816l4.42633 -5.93324c1.50209,1.21636 2.67961,2.81568 3.38374,4.64886l-7.03536 2.34597c-0.193891,-0.399121 -0.457515,-0.75799 -0.774715,-1.06158z" />
   <path
   id="_110063920"
   class="fil18"
   d="M14.1229 8.91531l4.85182 -5.58033c0.99752,0.917299 1.82553,2.01432 2.43413,3.23946l-6.74736 3.05322c-0.150521,-0.258805 -0.33194,-0.498051 -0.538587,-0.712352z" />
  </g>
  <g
   id="_110058640">
   <path
   id="_110051056"
   class="fil19"
   d="M10.2629 15.0493l-0.716604 7.43618c-4.47254,-0.840196 -8.14939,-4.38807 -8.919,-9.1265 -0.0969456,-0.596981 -0.143434,-1.19028 -0.144001,-1.77649l7.4787 0.773014c0.267876,1.26483 1.16108,2.25384 2.3009,2.69378z" />
   <path
   id="_110051800"
   class="fil20"
   d="M10.1354 14.9971l-1.12083 7.37496c-4.22961,-1.01198 -7.64822,-4.46404 -8.38722,-9.01311 -0.0507406,-0.312947 -0.0870243,-0.624477 -0.110836,-0.934874l7.49515 0.136914c0.304443,1.11998 1.10665,1.99986 2.12373,2.43611z" />
   <path
   id="_110057872"
   class="fil21"
   d="M10.0061 14.9387l-1.54915 7.28481c-3.97024,-1.17128 -7.12352,-4.51704 -7.82964,-8.86457l-0.00453547 -0.0308979 7.45631 -0.546524c0.329105,0.967756 1.03806,1.7351 1.92701,2.15718z" />
   <path
   id="_110049160"
   class="fil22"
   d="M9.8757 14.8738l-1.99731 7.16122c-3.41634,-1.21494 -6.13876,-4.06605 -7.06087,-7.75622l7.34888 -1.26625c0.338459,0.812699 0.952165,1.46496 1.7093,1.86124z" />
   <path
   id="_110052856"
   class="fil23"
   d="M9.74559 14.8021l-2.46219 7.00163c-2.8358,-1.19566 -5.12196,-3.54305 -6.17532,-6.55063l7.16689 -2.00326c0.330522,0.65736 0.846999,1.19368 1.47063,1.55226z" />
   <path
   id="_110056864"
   class="fil24"
   d="M9.61661 14.7244l-2.93842 6.8032c-2.25101,-1.11176 -4.1012,-2.97017 -5.17752,-5.30593l6.9044 -2.73517c0.302743,0.505705 0.720289,0.928354 1.21154,1.2379z" />
   <path
   id="_110052664"
   class="fil25"
   d="M9.48962 14.6411l-3.41804 6.56282c-1.67784,-0.961236 -3.09659,-2.35221 -4.08561,-4.04961l6.56849 -3.43789c0.255687,0.363121 0.573453,0.675501 0.935157,0.924669z" />
   <path
   id="_110048872"
   class="fil26"
   d="M9.36631 14.5523l-3.89455 6.28219c-1.13188,-0.746368 -2.12515,-1.6974 -2.92226,-2.80944l6.17107 -4.09014c0.189923,0.231592 0.407342,0.438807 0.645737,0.617391z" />
  </g>
  <g
   id="_110053624">
   <path
   id="_110052520"
   class="fil27"
   d="M7.97591 10.1269l-5.89668 -4.62476c1.41535,-2.19743 3.58756,-3.86337 6.14896,-4.63298l2.57926 6.95968c-1.29488,0.221388 -2.36185,1.10949 -2.83155,2.29807z" />
   <g
   id="g3889">
    <path
   id="_110055712"
   class="fil28"
   d="M8.02778 10.003l-5.802 -4.72284c1.38474,-2.04011 3.4325,-3.59578 5.8346,-4.35944l2.6266 6.93048c-1.19538,0.245199 -2.18184,1.06243 -2.6592,2.1518z" />
    <path
   id="_110064448"
   class="fil29"
   d="M8.08334 9.88109l-5.70449 -4.82064c1.34703,-1.88534 3.27064,-3.33272 5.514,-4.08532l2.67451 6.90298c-1.09702,0.262774 -2.00553,1.01028 -2.48402,2.00298z" />
    <path
   id="_110048920"
   class="fil30"
   d="M8.14428 9.76118l-5.60641 -4.91787c1.30281,-1.73312 3.10283,-3.07306 5.18829,-3.81036l2.72242 6.87577c-0.999787,0.274963 -1.83091,0.955283 -2.3043,1.85246z" />
    <path
   id="_110059888"
   class="fil31"
   d="M8.20892 9.64382l-5.50634 -5.01396c1.25207,-1.58458 2.9285,-2.81993 4.85777,-3.53682l2.77004 6.84998c-0.903409,0.280916 -1.65885,0.896605 -2.12147,1.7008z" />
    <path
   id="_110053096"
   class="fil32"
   d="M8.27808 9.52817l-5.40429 -5.10949c1.1951,-1.43859 2.74708,-2.57133 4.52073,-3.26299l2.81908 6.82616c-0.808447,0.281199 -1.4899,0.833109 -1.93551,1.54631z" />
    <path
   id="_110063656"
   class="fil33"
   d="M8.35122 9.41563l-5.3014 -5.2036c1.1316,-1.29686 2.56056,-2.3284 4.18028,-2.99001l2.86698 6.80235c-0.715187,0.276097 -1.32322,0.766211 -1.74587,1.39126z" />
    <path
   id="_110056000"
   class="fil34"
   d="M8.42832 9.30593l-5.1968 -5.29714c1.06187,-1.15853 2.36723,-2.09142 3.83474,-2.71845l2.91631 6.78053c-0.623627,0.265041 -1.15995,0.695061 -1.55425,1.23506z" />
    <path
   id="_110051200"
   class="fil35"
   d="M8.50911 9.19906l-5.09078 -5.38927c0.986181,-1.02445 2.16795,-1.86039 3.48466,-2.44859l2.96591 6.7604c-0.534335,0.2486 -1.00007,0.619658 -1.35979,1.07746z" />
   </g>
   <path
   id="_110061760"
   class="fil36"
   d="M8.5933 9.09588l-4.98306 -5.48055c0.904543,-0.894905 1.96272,-1.63532 3.13089,-2.17986l3.01524 6.74056c-0.447311,0.226773 -0.842463,0.540855 -1.16306,0.91985z" />
  </g>
  <g
   id="_110052064">
   <path
   id="_110057512"
   class="fil27"
   d="M15.0535 12.3756l6.36723 4c-1.18347,2.39785 -3.20941,4.30756 -5.69286,5.34448l-3.29247 -6.6558c1.28949,-0.356318 2.29778,-1.38785 2.6181,-2.68868z" />
   <g
   id="g3902">
    <path
   id="_110050720"
   class="fil28"
   d="M15.0147 12.5219l6.26377 4.13153c-1.16562,2.2031 -3.05294,3.96683 -5.34817,4.97938l-3.36305 -6.60733c1.17809,-0.373326 2.10219,-1.31585 2.44745,-2.50358z" />
    <path
   id="_110059768"
   class="fil29"
   d="M14.969 12.6678l6.15747 4.26391c-1.13812,2.00978 -2.88711,3.62951 -4.99525,4.61002l-3.43392 -6.56027c1.0681,-0.38268 1.91,-1.23818 2.2717,-2.31366z" />
    <path
   id="_110058424"
   class="fil30"
   d="M14.9166 12.8124l6.04776 4.39657c-1.10099,1.81901 -2.71136,3.29672 -4.63355,4.23755l-3.50478 -6.51407c0.959252,-0.384381 1.72093,-1.15569 2.09057,-2.12005z" />
    <path
   id="_110058232"
   class="fil31"
   d="M14.8582 12.9559l5.93438 4.5281c-1.05393,1.63135 -2.52541,2.96931 -4.26334,3.86365l-3.57622 -6.469c0.852385,-0.378995 1.53526,-1.06754 1.90518,-1.92276z" />
    <path
   id="_110060008"
   class="fil32"
   d="M14.7936 13.097l5.81674 4.65934c-0.996669,1.44738 -2.32896,2.6473 -3.88435,3.48778l-3.6468 -6.42421c0.746652,-0.366239 1.3527,-0.974842 1.71441,-1.72291z" />
    <path
   id="_110048824"
   class="fil33"
   d="M14.7227 13.2359l5.69598 4.78974c-0.929771,1.26738 -2.12232,2.33095 -3.49798,3.1102l-3.71795 -6.37942c0.64432,-0.34668 1.1744,-0.876479 1.51995,-1.52052z" />
    <path
   id="_110055424"
   class="fil34"
   d="M14.6459 13.3723l5.57182 4.91928c-0.852668,1.09248 -1.90575,2.02112 -3.10424,2.73205l-3.7891 -6.33577c0.54454,-0.319467 1.00007,-0.773014 1.32152,-1.31557z" />
    <path
   id="_110053360"
   class="fil35"
   d="M14.5634 13.5052l5.44398 5.04798c-0.765927,0.922401 -1.67897,1.71894 -2.70286,2.35448l-3.86053 -6.29296c0.447594,-0.286018 0.829991,-0.665013 1.11941,-1.10949z" />
   </g>
   <path
   id="_110052544"
   class="fil36"
   d="M14.4752 13.635l5.31245 5.17412c-0.669832,0.758841 -1.44171,1.42584 -2.29466,1.97917l-3.93197 -6.25158c0.354333,-0.245766 0.664163,-0.551059 0.91418,-0.901708z" />
  </g>
  <path
   class="fil37"
   d="M11.1998 5.82439c3.16292,0 5.72773,2.558 5.72773,5.71214 0,3.15414 -2.56481,5.71242 -5.72773,5.71242 -3.16264,0 -5.72745,-2.55829 -5.72745,-5.71242 0,-3.15414 2.56481,-5.71214 5.72745,-5.71214zm-0.0603784 2.18751c1.97917,0 3.58415,1.60102 3.58415,3.5748 0,1.97406 -1.60499,3.57452 -3.58415,3.57452 -1.97945,0 -3.58444,-1.60045 -3.58444,-3.57452 0,-1.97378 1.60499,-3.5748 3.58444,-3.5748z"
   id="path3913" />
  <path
   class="fil38"
   d="M11.4396 7.76841c1.97917,0 3.58444,1.66537 3.58444,3.71852 0,2.05343 -1.60527,3.7188 -3.58444,3.7188 -1.97917,0 -3.58415,-1.66537 -3.58415,-3.7188 0,-2.05315 1.60499,-3.71852 3.58415,-3.71852zm0 2.30657c0.75147,0 1.36121,0.632414 1.36121,1.41195 0,0.779817 -0.609737,1.41223 -1.36121,1.41223 -0.75147,0 -1.36092,-0.632414 -1.36092,-1.41223 0,-0.779534 0.609454,-1.41195 1.36092,-1.41195z"
   id="path3915" />
  <path
   class="fil39"
   d="M0.492665 10.1994c0.712919,-6.02849 6.19318,-10.3412 12.2381,-9.62993 6.04408,0.710651 10.3684,6.17646 9.65545,12.2049 -0.712636,6.02877 -6.1929,10.3414 -12.2375,9.6305 -6.04493,-0.711218 -10.3689,-6.17703 -9.65601,-12.2055zm1.23677 0.145702c0.632414,-5.34788 5.49359,-9.17327 10.8554,-8.54227 5.36149,0.63043 9.19736,5.47885 8.56495,10.8259 -0.632414,5.34788 -5.49359,9.17355 -10.8551,8.54284 -5.36234,-0.630997 -9.19793,-5.47913 -8.56523,-10.8264z"
   id="path3917" />
  <path
   class="fil39"
   d="M0.492665 10.1994c0.712636,-6.02877 6.1929,-10.3412 12.2381,-9.63022 6.04436,0.710935 10.3684,6.17646 9.65573,12.2052 -0.712919,6.02877 -6.19318,10.3414 -12.2378,9.6305 -6.04493,-0.711218 -10.3692,-6.17703 -9.65601,-12.2055zm0.281199 0.0331656c0.694494,-5.874 6.03387,-10.0758 11.9237,-9.38275 5.88902,0.692509 10.1019,6.01772 9.40741,11.8917 -0.694494,5.87343 -6.03387,10.0755 -11.9235,9.38275 -5.88931,-0.692793 -10.1025,-6.01828 -9.4077,-11.8917z"
   id="path3919" />
  <path
   class="fil40"
   d="M11.4396 0.094111c3.15187,0 6.00723,1.27588 8.07427,3.33754 2.06789,2.0625 3.34774,4.91106 3.34774,8.05556 0,3.14393 -1.27985,5.99277 -3.34803,8.05556 -2.06732,2.06165 -4.9224,3.33725 -8.07398,3.33725 -3.15187,0 -6.00694,-1.27588 -8.07398,-3.33754 -2.06789,-2.0625 -3.34803,-4.91106 -3.34803,-8.05528 0,-3.1445 1.28014,-5.99306 3.34803,-8.05556 2.06704,-2.06165 4.92212,-3.33754 8.07398,-3.33754zm7.37127 4.0445c-1.88562,-1.8808 -4.4921,-3.04443 -7.37127,-3.04443 -2.87917,0 -5.48537,1.16363 -7.37099,3.04443 -1.88449,1.87938 -3.05095,4.47793 -3.05095,7.34859 0,2.87038 1.16647,5.46892 3.05095,7.34831 1.88562,1.8808 4.49181,3.04443 7.37099,3.04443 2.87889,0 5.48537,-1.16363 7.37099,-3.04415 1.88477,-1.87967 3.05095,-4.47821 3.05095,-7.34859 0,-2.87067 -1.16618,-5.46921 -3.05067,-7.34859z"
   id="path3921" />
  <path
   class="fil41"
   d="M11.4399 7.16094c1.19311,0 2.27425,0.484728 3.05691,1.2671l0.00198427 0.00198427c0.782368,0.782652 1.2671,1.86408 1.2671,3.05719 0,1.19311 -0.484728,2.27425 -1.2671,3.05691l-0.00198427 0.00198427c-0.782652,0.782368 -1.86379,1.2671 -3.05691,1.2671 -1.19311,0 -2.27454,-0.484728 -3.05719,-1.2671l-0.00198427 -0.00198427c-0.782368,-0.782652 -1.2671,-1.86379 -1.2671,-3.05691 0,-1.19311 0.484728,-2.27454 1.2671,-3.05719l0.00198427 -0.00198427c0.782652,-0.782368 1.86379,-1.2671 3.05719,-1.2671zm2.35277 1.97321c-0.601517,-0.60095 -1.43378,-0.973142 -2.35277,-0.973142 -0.919283,0 -1.75154,0.372192 -2.35306,0.973142 -0.60095,0.601517 -0.973142,1.43406 -0.973142,2.35306 0,0.918999 0.372192,1.75126 0.973142,2.35277 0.601517,0.60095 1.43406,0.973142 2.35306,0.973142 0.918999,0 1.75126,-0.372192 2.35277,-0.973142 0.60095,-0.601517 0.973142,-1.43378 0.973142,-2.35277 0,-0.918999 -0.372192,-1.75154 -0.973142,-2.35306z"
   id="path3923" />
  <path
   class="fil42"
   d="M11.4396 9.51513c0.544256,0 1.03749,0.220821 1.39437,0.577705 0.356885,0.356885 0.577705,0.850117 0.577705,1.39437 0,0.544256 -0.220821,1.03749 -0.577705,1.39437 -0.356885,0.356885 -0.850117,0.577705 -1.39437,0.577705 -0.544256,0 -1.03749,-0.220821 -1.39437,-0.577705 -0.356885,-0.356885 -0.577705,-0.850117 -0.577705,-1.39437 0,-0.544256 0.220821,-1.03749 0.577705,-1.39437 0.356885,-0.356885 0.850117,-0.577705 1.39437,-0.577705zm0.687407 1.28467c-0.175749,-0.175749 -0.418964,-0.284601 -0.687407,-0.284601 -0.268443,0 -0.511658,0.108851 -0.687407,0.284601 -0.175749,0.175749 -0.284601,0.418964 -0.284601,0.687407 0,0.268443 0.108851,0.511658 0.284601,0.687407 0.175749,0.175749 0.418964,0.284601 0.687407,0.284601 0.268443,0 0.511658,-0.108851 0.687407,-0.284601 0.175749,-0.175749 0.284601,-0.418964 0.284601,-0.687407 0,-0.268443 -0.108851,-0.511658 -0.284601,-0.687407z"
   id="path3925" />
  <path
   class="fil43"
   d="M10.9095 22.0619l3.54589 -6.48657 -4.0292 0.176033c-0.378712,-1.09333 -0.77188,-2.89136 -0.821487,-3.04443 -0.511658,-1.57154 -0.49635,-3.12097 0.6721,-4.62788 0.54539,-0.703848 1.18773,-1.22628 1.88024,-1.58741 -1.92162,-0.398838 -3.78627,-0.683155 -3.99405,-0.713769 -0.109985,0.0980795 -0.218836,0.198427 -0.324569,0.303593 -2.13224,2.11863 -2.57898,4.50315 -2.25923,7.02062 0.0615123,0.486429 0.216285,1.81362 0.37531,2.92594l-3.33017 0.691942 3.51697 3.21848c0.274679,0.0615123 0.565516,0.131245 0.875629,0.211466 0,0 2.30487,1.20502 3.89257,1.91198z"
   id="path3927" />
  <path
   class="fil44"
   d="M6.56084 22.5016l2.96194 -4.10545 2.96251 -4.33591 -3.60485 0c-0.138332,-1.07321 -0.271845,-2.13054 -0.288002,-2.27992 -0.181419,-1.64354 -0.157041,-3.1564 1.29318,-4.39515 2.52342,-2.15463 5.83318,-1.58203 7.89994,0.323436 2.13167,1.96471 1.74984,6.13592 2.01091,6.01715 0.868259,-1.78584 0.623627,-5.78556 -0.424917,-7.06258 -2.53221,-3.0861 -7.59974,-4.24803 -11.4679,-1.72858 -2.51832,1.63929 -3.78457,3.84636 -3.98271,6.37574 -0.0371342,0.476508 -0.151655,1.67302 -0.222805,2.71136l-3.06172 0.0385515 2.96194 4.33591 2.96251 4.10545z"
   id="path3929" />
  <g
   id="_112476848">
   <path
   id="_110061904"
   class="fil45"
   d="M5.08795 8.65878l3.55921 0c-0.121891,0.202112 -0.225073,0.408192 -0.309546,0.618241 -0.326554,0.810715 -0.378428,1.67047 -0.257104,2.55829l0 0.00566934 0.150237 0.982212 0.00226773 0.00198427 0.231592 1.23563 0.0102048 0.0626462 0.0694494 0.437389 0.454964 0 0.0501736 0.369357 3.31911 0 -2.64645 3.17454 -0.933173 1.04599 -4.45752 0 -0.932606 -1.04599 -2.6456 -3.17454 2.69464 0 0.0283467 -0.369357 0.546241 0 0.0357168 -0.468854c0.0606619,-0.791156 0.160726,-1.52505 0.22649,-2.16994l0 -0.0017008 0.0541422 -0.532634c0.0926936,-0.96322 0.322018,-1.88024 0.749203,-2.72893z" />
   <path
   id="_112485272"
   class="fil46"
   d="M4.90964 9.04344l3.53001 0c-0.0365672,0.0773864 -0.0708667,0.154773 -0.102048,0.233577 -0.326554,0.810715 -0.378428,1.67047 -0.257104,2.55829l0 0.00566934 0.150237 0.982212 0.00226773 0.00198427 0.231592 1.23563 0.0102048 0.0626462 0.0694494 0.437389 0.454964 0 0.0501736 0.369357 3.31911 0 -2.64645 3.17454 -0.255687 0.286585 -5.81192 0 -0.255687 -0.286585 -2.6456 -3.17454 2.69464 0 0.0283467 -0.369357 0.546241 0 0.0357168 -0.468854c0.0606619,-0.791156 0.160726,-1.52505 0.22649,-2.16994l0 -0.0017008 0.0541422 -0.532634c0.0788038,-0.819503 0.256821,-1.60556 0.570902,-2.34427z" />
   <path
   id="_112485320"
   class="fil47"
   d="M4.76082 9.42584l3.52037 0c-0.275246,0.767061 -0.314648,1.57608 -0.200694,2.40947l0 0.00566934 0.150237 0.982212 0.00226773 0.00198427 0.231592 1.23563 0.0102048 0.0626462 0.0694494 0.437389 0.454964 0 0.0501736 0.369357 3.31911 0 -2.25073 2.70002 -7.11473 0 -2.24988 -2.70002 2.69464 0 0.0283467 -0.369357 0.546241 0 0.0357168 -0.468854c0.0606619,-0.791156 0.160726,-1.52505 0.22649,-2.16994l0 -0.0017008 0.0541422 -0.532634c0.0654808,-0.67947 0.198427,-1.33598 0.422082,-1.96187z" />
   <path
   id="_112486424"
   class="fil48"
   d="M4.63582 9.8088l3.52774 0c-0.166962,0.651123 -0.178017,1.33031 -0.0830558,2.0265l0 0.00566934 0.150237 0.982212 0.00226773 0.00198427 0.231592 1.23563 0.0102048 0.0626462 0.0694494 0.437389 0.454964 0 0.0501736 0.369357 3.31911 0 -1.61689 1.93948 -8.3824 0 -1.61604 -1.93948 2.69464 0 0.0283467 -0.369357 0.546241 0 0.0357168 -0.468854c0.0606619,-0.791156 0.160726,-1.52505 0.22649,-2.16994l0 -0.0017008 0.0541422 -0.532634c0.0524414,-0.542272 0.148253,-1.07009 0.297073,-1.57891z" />
   <path
   id="_112479560"
   class="fil49"
   d="M4.53348 10.1946l3.54929 0c-0.0870243,0.532067 -0.0790872,1.08086 -0.00226773,1.64071l0 0.00566934 0.150237 0.982212 0.00226773 0.00198427 0.231592 1.23563 0.0102048 0.0626462 0.0694494 0.437389 0.454964 0 0.0501736 0.369357 3.31911 0 -0.98448 1.18121 -9.64666 0 -0.984197 -1.18121 2.69464 0 0.0283467 -0.369357 0.546241 0 0.0357168 -0.468854c0.0606619,-0.791156 0.160726,-1.52505 0.22649,-2.16994l0 -0.0017008 0.0541422 -0.532634c0.0394019,-0.406491 0.102898,-0.804762 0.194742,-1.19311z" />
   <path
   id="_112479488"
   class="fil50"
   d="M4.45241 10.5781l3.58415 0c-0.0328821,0.410743 -0.0144568,0.830841 0.0439374,1.25718l0 0.00566934 0.150237 0.982212 0.00226773 0.00198427 0.231592 1.23563 0.0102048 0.0626462 0.0694494 0.437389 0.454964 0 0.0501736 0.369357 3.31911 0 -0.349798 0.419531 -10.9166 0 -0.348948 -0.419531 2.69464 0 0.0283467 -0.369357 0.546241 0 0.0357168 -0.468854c0.0606619,-0.791156 0.160726,-1.52505 0.22649,-2.16994l0 -0.0017008 0.0541422 -0.532634c0.0260789,-0.273545 0.0634966,-0.543689 0.11367,-0.809581z" />
   <path
   id="_112480088"
   class="fil51"
   d="M4.38977 10.9611l3.63093 0c-0.0017008,0.287719 0.0195592,0.579123 0.0598115,0.874212l0 0.00566934 0.150237 0.982212 0.00226773 0.00198427 0.231592 1.23563 0.0102048 0.0626462 0.0694494 0.437389 0.454964 0 0.004252 0.0294805 -5.52959 0 0.00226773 -0.0294805 0.546241 0 0.0357168 -0.468854c0.0606619,-0.791156 0.160726,-1.52505 0.22649,-2.16994l0 -0.0017008 0.0541422 -0.532634c0.0138899,-0.142867 0.0311813,-0.285451 0.051024,-0.426618z" />
   <path
   id="_112482632"
   class="fil52"
   d="M4.34299 11.3446l3.68847 0c0.0102048,0.16271 0.0263624,0.32627 0.0490398,0.490681l0 0.00566934 0.150237 0.982212 0.00226773 0.00198427 0.188505 1.00461 -4.34129 0c0.0603784,-0.691376 0.145985,-1.33513 0.20438,-1.90773l0 -0.0017008 0.0541422 -0.532634 0.004252 -0.043087z" />
  </g>
  <path
   class="fil53"
   d="M9.97123 17.1084l0.384098 -0.562115 -0.637517 -0.0768195c-0.8487,1.24187 -2.31422,2.53108 -3.19524,3.75338 -0.881865,-1.22231 -2.38594,-2.43413 -3.23492,-3.67656l-0.598115 0 0.418397 0.612855 0.217419 0c0.849267,1.24243 2.35334,2.45426 3.23492,3.67656 0.881015,-1.22231 2.34682,-2.5118 3.19524,-3.75338l0.215718 0.0260789z"
   id="path3940" />
  <path
   class="fil54"
   d="M6.56084 22.5016l2.96194 -4.10545 0.871093 -1.27475 -0.6378 -0.0768195c-0.848416,1.24158 -2.31422,2.53108 -3.19524,3.7531 -0.881582,-1.22203 -2.38566,-2.43413 -3.23492,-3.67628l-0.598115 0 0.870527 1.27475 2.96251 4.10545z"
   id="path3942" />
  <rect
   class="fil55"
   x="1.35079"
   y="14.0126"
   width="2.73838"
   height="0.775178"
   id="rect3944" />
  <polygon
   class="fil55"
   points="8.53604,14.0132 12.1616,13.9973 12.1616,14.8026 8.53604,14.8185 "
   id="polygon3946" />
  <g
   id="_112477280">
   <path
   id="_112497560"
   class="fil56"
   d="M4.25909 11.4155l3.99603 0c0.0076536,0.120757 0.0184253,0.242364 0.0320317,0.364822 0.0164411,0.149387 0.149387,1.20672 0.287719,2.27992l3.91042 0 -0.481043 0.703848 -10.8868 0 -0.481043 -0.703848 3.40529 0c0.0677486,-0.992984 0.174899,-2.12997 0.217419,-2.64475z" />
   <path
   id="_112487408"
   class="fil57"
   d="M4.24888 11.5379l4.01502 0 0.0232443 0.242364c0.0164411,0.149387 0.149387,1.20672 0.287719,2.27992l3.91042 0 -0.315782 0.461484 -11.2173 0 -0.315782 -0.461484 3.40529 0c0.0626462,-0.9207 0.159592,-1.96442 0.207214,-2.52229z" />
   <path
   id="_112481024"
   class="fil58"
   d="M4.2384 11.6601l4.03628 0 0.0124725 0.12019c0.0164411,0.149387 0.149387,1.20672 0.287719,2.27992l3.91042 0 -0.14967 0.218553 -11.5496 0 -0.14967 -0.218553 3.40529 0c0.0583942,-0.85692 0.146552,-1.82071 0.196726,-2.40011z" />
   <path
   id="_112487216"
   class="fil59"
   d="M4.22706 11.7826l4.06009 0c0.0175749,0.155907 0.148253,1.19368 0.284601,2.25328l-4.52838 0c0.0544256,-0.79229 0.132946,-1.67302 0.183686,-2.25328z" />
   <path
   id="_112476920"
   class="fil60"
   d="M4.21657 11.9062l4.08532 0 0.238679 1.88817 -4.48019 0c0.0490398,-0.669549 0.111119,-1.3734 0.15619,-1.88817z" />
   <path
   id="_112480184"
   class="fil61"
   d="M4.2058 12.0283l4.1114 0 0.192757 1.52307 -4.43115 0c0.0413862,-0.541422 0.0887251,-1.08738 0.126993,-1.52307z" />
   <path
   id="_112479056"
   class="fil62"
   d="M4.19531 12.1502l4.13663 0 0.146552 1.15825 -4.3807 0c0.0323152,-0.410176 0.0671816,-0.813266 0.0975126,-1.15825z" />
   <polygon
   id="_112478864"
   class="fil63"
   points="4.18454,12.273 8.34781,12.273 8.44788,13.0661 4.11736,13.0661 " />
  </g>
  <path
   class="fil64"
   d="M6.56112 21.8584l2.65098 -3.67401 -0.0008504 -0.0008504 2.55914 -4.14599 -2.89023 0 -0.331089 0 -0.043087 -0.331373 -0.186521 -1.46014 -0.0008504 -0.00198427 -0.100914 -0.819219 0 -0.00453547c-0.0943944,-0.854369 -0.133796,-1.28099 0.0419531,-2.07101 0.180285,-0.812983 0.586493,-1.57267 1.37992,-2.25101 1.2739,-1.08624 2.73772,-1.52193 4.15874,-1.46382 1.57182,0.0640635 3.09206,0.735313 4.24265,1.79661 1.22288,1.12763 1.66905,2.89136 1.86266,4.26504 0.0490398,-0.533768 0.0564099,-1.1041 0.0223939,-1.6648 -0.0785203,-1.31387 -0.373042,-2.5546 -0.845298,-3.12947 -1.24867,-1.52193 -3.15187,-2.5563 -5.21012,-2.86528 -1.92077,-0.289136 -3.97817,0.0527248 -5.76175,1.21409 -1.18546,0.77103 -2.08235,1.67359 -2.70711,2.67423 -0.647155,1.0355 -1.00886,1.78414 -1.10439,3.0124l0 0.00368507 -0.0586776 0.687407 0 0.0008504c-0.051024,0.582808 -0.118773,1.35837 -0.16356,2.0163l-0.0229608 0.347247 -0.349231 0.00453547 -2.35816 0.0294805 2.56537 4.15676 -0.0008504 0.0008504 2.65183 3.67401zm3.26695 -3.24286l-2.96166 4.10517 -0.304443 0.422366 -0.306144 -0.422366 -2.96251 -4.10517 -0.00623627 -0.00708667 -2.96166 -4.73701 -0.396287 -0.581107 0.703281 -0.00793707 2.71448 -0.034016c0.0445043,-0.609737 0.0980795,-1.21295 0.138332,-1.68351l0.0589611 -0.686273c0.1063,-1.34788 0.503437,-2.21019 1.21664,-3.35199 0.681738,-1.09248 1.65573,-2.07441 2.93757,-2.90809 1.95025,-1.27021 4.19332,-1.64496 6.28474,-1.33003 2.23684,0.336475 4.31125,1.46751 5.67954,3.13486 0.576571,0.70158 0.930055,2.10843 1.0168,3.56346 0.0864574,1.43718 -0.081355,2.95259 -0.543689,3.90334l-0.178584 0.1766c-0.251719,0.118773 -0.432003,0.0411027 -0.547941,-0.216002 -0.0651974,-0.144568 -0.0909928,-0.422082 -0.123308,-0.812132 -0.100914,-1.2121 -0.31238,-3.72135 -1.75579,-5.05223 -1.0236,-0.944228 -2.37233,-1.54234 -3.76217,-1.59875 -1.23988,-0.0498902 -2.52172,0.332223 -3.63745,1.28382 -0.655092,0.559563 -0.989016,1.18092 -1.13528,1.84055 -0.153639,0.686273 -0.114237,1.03721 -0.0286301,1.82156l0.0008504 0 0.100914 0.819503 -0.0008504 0 0.144568 1.12735 3.27319 0 0.714903 0 -0.403373 0.591028 -2.96251 4.73701 -0.00623627 0.00708667z"
   id="path3957" />
  <g
   id="_112497176">
   <path
   id="_112473152"
   class="fil27"
   d="M16.3223 13.241l5.8757 3.6913c-1.0922,2.21274 -2.96166,3.97505 -5.25349,4.93204l-3.0382 -6.14216c1.18999,-0.329105 2.12033,-1.2807 2.41599,-2.48118z" />
   <g
   id="g3961">
    <path
   id="_112482608"
   class="fil28"
   d="M16.2863 13.3759l5.78045 3.81263c-1.07576,2.03302 -2.81738,3.66069 -4.93516,4.595l-3.10339 -6.09737c1.0871,-0.344412 1.93976,-1.21409 2.2581,-2.31025z" />
    <path
   id="_112486304"
   class="fil29"
   d="M16.2443 13.5109l5.68209 3.93452c-1.05053,1.85472 -2.6643,3.34944 -4.60974,4.25427l-3.16859 -6.054c0.985614,-0.352916 1.7626,-1.14237 2.09624,-2.13479z" />
    <path
   id="_112486928"
   class="fil30"
   d="M16.1962 13.6441l5.58061 4.05726c-1.01595,1.67841 -2.50188,3.04217 -4.27581,3.91042l-3.23407 -6.0112c0.884983,-0.354617 1.58798,-1.06669 1.92928,-1.95649z" />
    <path
   id="_112475816"
   class="fil31"
   d="M16.142 13.7765l5.47601 4.17858c-0.972291,1.50549 -2.3301,2.73999 -3.93395,3.56516l-3.29984 -5.96924c0.786337,-0.349798 1.41648,-0.985331 1.75778,-1.7745z" />
    <path
   id="_112476728"
   class="fil32"
   d="M16.0825 13.9069l5.36744 4.29962c-0.919566,1.33541 -2.14896,2.44292 -3.58415,3.2182l-3.36532 -5.92786c0.689108,-0.338176 1.2481,-0.899724 1.58203,-1.58997z" />
    <path
   id="_112493264"
   class="fil33"
   d="M16.017 14.035l5.25604 4.41981c-0.857771,1.16958 -1.95819,2.15095 -3.22784,2.8701l-3.4308 -5.88676c0.594713,-0.319751 1.08398,-0.809014 1.40259,-1.40316z" />
    <path
   id="_112481864"
   class="fil34"
   d="M15.9461 14.1609l5.14152 4.53944c-0.78662,1.00801 -1.75863,1.86521 -2.86443,2.52115l-3.49656 -5.84679c0.502303,-0.294805 0.922968,-0.713202 1.21947,-1.2138z" />
    <path
   id="_112476440"
   class="fil35"
   d="M15.8699 14.2833l5.02388 4.65821c-0.706966,0.851534 -1.54943,1.58656 -2.49422,2.17306l-3.56261 -5.8071c0.413295,-0.264191 0.765927,-0.613706 1.03295,-1.02417z" />
   </g>
   <path
   id="_112480832"
   class="fil36"
   d="M15.7885 14.4032l4.90256 4.77471c-0.618241,0.700446 -1.33059,1.31557 -2.1175,1.82638l-3.62866 -5.76883c0.327121,-0.226773 0.612855,-0.508539 0.843597,-0.832259z" />
  </g>
  <path
   class="fil65"
   d="M13.7303 15.0235l8.16186 0c0.413295,0 0.751187,0.280065 0.751187,0.622493l0 6.76068c0,0.342428 -0.337892,0.622493 -0.751187,0.622493l-8.16186 0c-0.413295,0 -0.751187,-0.280065 -0.751187,-0.622493l0 -6.76068c0,-0.342428 0.337892,-0.622493 0.751187,-0.622493z"
   id="path3972" />
  <path
   class="fil66"
   d="M13.5338 13.0327l9.01538 0.0093544c0.40394,0 0.772164,0.165828 1.03862,0.432287l0.0034016 0.0034016c0.266459,0.266459 0.432003,0.546524 0.432003,0.949614l0 8.16243c0,0.407342 -0.165545,0.775282 -0.432003,1.04202 -0.265608,0.265608 -0.635533,0.431153 -1.04202,0.431153l-9.04599 -0.0093544c-0.406491,0 -0.776416,-0.165828 -1.04202,-0.431436l0 -0.0034016c-0.264758,-0.266459 -0.431153,-0.634399 -0.431153,-1.03834l0.0306144 -8.16243c0,-0.40309 0.166678,-0.684005 0.431436,-0.950464l0 -0.0034016c0.265608,-0.265608 0.635249,-0.431436 1.04174,-0.431436zm9.01538 1.36574l-9.01538 -0.0093544c-0.0059528,0 -0.0136064,0.004252 -0.0187088,0.0093544l-0.0017008 -0.0017008c-0.004252,0.0051024 -0.0076536,0.0136064 -0.0076536,0.02126l-0.0308979 8.16243c0,0.0068032 0.0025512,0.0144568 0.0076536,0.0204096l0.0017008 -0.0017008c0.00538587,0.0051024 0.0130395,0.0093544 0.0189923,0.0093544l9.04599 0.0093544c0.0059528,0 0.0136064,-0.004252 0.0187088,-0.0093544l0.0104883 -0.0187088 0 -8.16243c0,-0.0076536 -0.0034016,-0.0153072 -0.0068032,-0.0187088l-0.00368507 -0.0034016c-0.0034016,-0.0034016 -0.0110552,-0.0068032 -0.0187088,-0.0068032z"
   id="path3974" />
  <path
   class="fil67"
   d="M14.0095 14.1456l8.58763 -0.11282c0.413295,-0.0051024 0.754022,0.339877 0.75147,0.750904l-0.0476224 7.43874c-0.00198427,0.410743 -0.34016,0.746368 -0.751754,0.750904l-8.61824 0.02126c-0.411594,0.004252 -0.754872,-0.338176 -0.75062,-0.75062l0.0785203 -7.34604c0.004252,-0.414145 0.337325,-0.747218 0.75062,-0.752321z"
   id="path3976" />
  <path
   class="fil68"
   d="M13.7955 14.2646l8.80164 -0.11367c0.412728,-0.0051024 0.754305,0.339877 0.752037,0.750337l-0.0481894 7.31968c-0.00283467,0.412444 -0.340444,0.747502 -0.752037,0.752037l-8.83141 0.0209765c-0.411594,0.00453547 -0.755439,-0.338176 -0.750904,-0.75147l0.0785203 -7.22755c0.00453547,-0.413295 0.338743,-0.745234 0.750337,-0.750337zm8.80164 0.603501l-8.80164 0.11367c-0.00907094,0 -0.0175749,0.00453547 -0.0232443,0.00963787l0.000566934 0.000566934c-0.0051024,0.00623627 -0.0102048,0.0155907 -0.0102048,0.0229608l-0.0785203 7.22755c0,0.008504 0.0051024,0.0181419 0.0102048,0.0249451l-0.000566934 0.000566934c0.00566934,0.0051024 0.0141733,0.008504 0.0238112,0.008504l8.83141 -0.0221104c0.00963787,0 0.0181419,-0.0034016 0.0243781,-0.008504l-0.00113387 -0.000566934c0.0051024,-0.00623627 0.0102048,-0.0158741 0.0102048,-0.0243781l0.0481894 -7.31968c0,-0.00708667 -0.0051024,-0.0167245 -0.0102048,-0.0223939l0.00113387 -0.00113387c-0.00623627,-0.0051024 -0.0147403,-0.00963787 -0.0243781,-0.00963787z"
   id="path3978" />
  <path
   class="fil69"
   d="M14.0843 14.0775l8.45581 -0.0456382c0.428035,-0.00226773 0.7784,0.319184 0.7784,0.707533l0 0.72284c-0.0110552,-0.381263 -0.357735,-0.746935 -0.7784,-0.748069l-8.4629 -0.0223939c-0.420665,-0.0008504 -0.760258,0.3892 -0.771597,0.770463l0 -0.72284c0,-0.3892 0.350365,-0.659627 0.778683,-0.661895z"
   id="path3980" />
  <path
   class="fil70"
   d="M13.0375 18.5209c0,-0.303026 0.0311813,-0.595564 0.0912763,-0.872227l0.00283467 -0.00141733c0.0629296,-0.287152 0.155623,-0.556445 0.277514,-0.808731 0.121607,-0.252852 0.270994,-0.483027 0.441074,-0.684572l-0.000566934 0c0.176033,-0.208632 0.373609,-0.383247 0.587343,-0.520162 0.216002,-0.139182 0.447878,-0.243498 0.691376,-0.312947 0.24123,-0.0688824 0.4955,-0.103749 0.757707,-0.103749 0.441074,0 0.843314,0.0907094 1.20473,0.270994l0.0008504 -0.00141733c0.36057,0.178868 0.670682,0.447027 0.928637,0.799943l0.00226773 0.00198427c0.10715,0.14797 0.202679,0.302176 0.286018,0.461484 0.0189923,-0.064347 0.0405358,-0.128127 0.0651974,-0.19049l0.00226773 -0.00141733c0.110836,-0.276664 0.276097,-0.522429 0.494933,-0.72936l0.00198427 0c0.224789,-0.212317 0.493516,-0.369641 0.799943,-0.470271l0.00283467 0c0.287719,-0.093544 0.614273,-0.14145 0.974559,-0.14145 0.334491,0 0.638084,0.0342995 0.901708,0.101481 0.290553,0.0739848 0.544823,0.192757 0.75714,0.350081l0.00226773 0.00198427c0.212884,0.160159 0.394019,0.365956 0.537453,0.613706 0.131812,0.226773 0.235561,0.493516 0.309546,0.799093l0.141166 0.583942 -0.586776 0.132662 -0.262207 0.0586776c0.149954,0.0992134 0.278931,0.207781 0.383247,0.325136l0.00283467 0.00226773c0.165261,0.186805 0.29112,0.407058 0.373042,0.655659l0.00283467 0c0.0768195,0.231025 0.114521,0.486712 0.114521,0.764226 0,0.33194 -0.060095,0.644037 -0.178301,0.931188l0 0.00198427c-0.109985,0.266742 -0.272979,0.508539 -0.483878,0.720289l-0.0093544 -0.034016 -1.73085 -0.1406 -1.46184 0.634682c-0.169513,-0.0782368 -0.327688,-0.174616 -0.472539,-0.287719 -0.237545,-0.186238 -0.436822,-0.415846 -0.593296,-0.68684 -0.0462051,-0.0796542 -0.0890086,-0.162993 -0.12671,-0.249167 -0.102898,0.189639 -0.217986,0.362271 -0.344979,0.51591 -0.172915,0.210049 -0.371625,0.388066 -0.592446,0.533201l0.000566934 0.000566934c-0.0507406,0.0334491 -0.101198,0.0651974 -0.153639,0.094111l-0.606335 -0.695344 -1.07576 0 -0.910779 0.707817c-0.280916,-0.154489 -0.535185,-0.362271 -0.760541,-0.62391 -0.268727,-0.31068 -0.470271,-0.683155 -0.601233,-1.11629l-0.00226773 -0.00283467c-0.122458,-0.407909 -0.185387,-0.87166 -0.185387,-1.38814zm1.22203 -0.466019c-0.0232443,0.145702 -0.0345829,0.297073 -0.0354333,0.453547 0.00283467,-0.159875 0.0153072,-0.31153 0.0354333,-0.453547zm3.29218 0.512225c0,-0.150521 -0.0102048,-0.296223 -0.029764,-0.435972 0.0172915,0.144852 0.0266459,0.297073 0.0266459,0.454964 0,0.0824888 -0.00198427,0.161576 -0.00651974,0.239813m1.18461 0.064347c-0.00566934,0.0805046 -0.0130395,0.160159 -0.0232443,0.239813l0.223939 -0.0428035 -0.029764 -0.0243781 0 -0.00226773c-0.0606619,-0.0544256 -0.117922,-0.110269 -0.17093,-0.170364zm-4.144 1.17865c0.029764,0.0464886 0.0623627,0.0915598 0.0963787,0.13408l-0.0172915 -0.0229608 -0.0790872 -0.111119zm0.826589 -1.47204c0,0.406491 0.0646304,0.695628 0.192757,0.863723 0.0535752,0.0702998 0.10715,0.120757 0.158741,0.148537l-0.0008504 0.000566934c0.0385515,0.0195592 0.0847566,0.0303309 0.136348,0.0303309 0.0926936,0 0.18312,-0.0592446 0.271561,-0.178017 0.0586776,-0.0776699 0.105166,-0.179151 0.136348,-0.303593l-0.0017008 -0.0008504c0.0391184,-0.156474 0.0603784,-0.348381 0.0603784,-0.571469 0,-0.215151 -0.02126,-0.397704 -0.0586776,-0.545674l-0.0008504 0c-0.0325987,-0.125859 -0.0796542,-0.229608 -0.137765,-0.306428l0.0008504 0c-0.0544256,-0.0708667 -0.108001,-0.121607 -0.157324,-0.150521 -0.0360003,-0.0195592 -0.0802211,-0.029764 -0.128127,-0.029764 -0.0949614,0 -0.189072,0.060095 -0.277514,0.178301 -0.055843,0.0745518 -0.102048,0.178868 -0.134647,0.30501l0.000566934 0c-0.0391184,0.155623 -0.060095,0.342428 -0.060095,0.559847zm6.70144 0.854936c0.0116221,0.0368507 0.0218269,0.0739848 0.029764,0.113103 -0.00283467,-0.132662 -0.0218269,-0.250868 -0.055276,-0.351499l0.00311813 -0.000566934c-0.0311813,-0.0929771 -0.0782368,-0.174616 -0.138332,-0.242931l0.000566934 0c-0.0629296,-0.068599 -0.172348,-0.144001 -0.324569,-0.219403l0 -0.00226773c-0.18312,-0.0918432 -0.420948,-0.178868 -0.706399,-0.258522 -0.30501,-0.0841896 -0.547658,-0.159308 -0.726525,-0.221671l-0.00226773 0c-0.215151,-0.0754022 -0.377294,-0.151371 -0.480193,-0.223939l-0.0008504 0.0008504c-0.113103,-0.0782368 -0.20438,-0.173198 -0.272979,-0.279782 0.00992134,0.0428035 0.0229608,0.0833392 0.0391184,0.12104 0.0447878,0.108568 0.11367,0.205797 0.204946,0.286868l0.0008504 -0.00141733c0.0782368,0.068032 0.236128,0.151371 0.47509,0.244915 0.283183,0.112253 0.650556,0.228758 1.09617,0.345546 0.12671,0.0331656 0.24123,0.0739848 0.336192,0.118773l-0.0008504 0.0008504c0.128977,0.0606619 0.236128,0.135214 0.317483,0.220254l0.00992134 0.0107717c0.089859,0.098363 0.155056,0.213734 0.195025,0.336759l0 0.00226773z"
   id="path3982" />
  <path
   class="fil71"
   d="M13.6305 18.5212c0,-0.521012 0.104599,-0.996953 0.312097,-1.42555 0.207498,-0.428318 0.478208,-0.748919 0.814117,-0.963504 0.33364,-0.213734 0.710935,-0.321735 1.12962,-0.321735 0.702431,0 1.25434,0.27553 1.65686,0.826022 0.401106,0.55191 0.601517,1.19425 0.601517,1.93098 0,0.548508 -0.104316,1.04401 -0.313514,1.48593 -0.208915,0.442492 -0.483594,0.774715 -0.822337,0.995535 -0.341577,0.223088 -0.713202,0.334491 -1.11771,0.334491 -0.649139,0 -1.18914,-0.2469 -1.61746,-0.741833 -0.428602,-0.495783 -0.643186,-1.2019 -0.643186,-2.12033zm1.18574 0.0756856c0,0.540004 0.105166,0.947913 0.315499,1.22373 0.211183,0.276097 0.466303,0.413011 0.764226,0.413011 0.291687,0 0.540004,-0.138899 0.747502,-0.416696 0.207498,-0.277514 0.312097,-0.687124 0.312097,-1.23053 0,-0.528099 -0.106584,-0.930338 -0.316916,-1.20955 -0.211183,-0.277514 -0.462901,-0.416413 -0.75799,-0.416413 -0.29112,0 -0.541422,0.138899 -0.750337,0.416413 -0.208915,0.279215 -0.314081,0.685139 -0.314081,1.22004zm3.83049 1.14521l1.16051 -0.216002c0.100914,0.558146 0.410743,0.839345 0.934023,0.839345 0.277514,0 0.484445,-0.0547091 0.621926,-0.160726 0.137481,-0.108001 0.205513,-0.2469 0.205513,-0.416413 0,-0.118489 -0.0289136,-0.209765 -0.089292,-0.27638 -0.0651974,-0.068599 -0.189923,-0.126993 -0.377011,-0.1766 -0.951031,-0.250301 -1.55396,-0.490114 -1.81277,-0.718021 -0.320884,-0.284601 -0.48161,-0.675218 -0.48161,-1.17043 0,-0.4955 0.157891,-0.890936 0.471122,-1.18914 0.315499,-0.298774 0.77273,-0.447311 1.37085,-0.447311 0.572886,0 1.00772,0.111402 1.30622,0.333924 0.298207,0.222805 0.507122,0.582524 0.627029,1.07831l-1.08965 0.244632c-0.0960952,-0.428318 -0.370208,-0.642336 -0.822621,-0.642336 -0.284601,0 -0.487279,0.0408192 -0.608603,0.123592 -0.119906,0.0819219 -0.180001,0.187938 -0.180001,0.318333 0,0.116221 0.0547091,0.214584 0.166112,0.291687 0.109985,0.0805046 0.45298,0.200411 1.0287,0.361137 0.645737,0.180001 1.08454,0.399688 1.31585,0.65821 0.227907,0.257388 0.341011,0.599532 0.341011,1.02813 0,0.51591 -0.176033,0.940826 -0.529516,1.27532 -0.352633,0.335908 -0.841329,0.50202 -1.46326,0.50202 -0.5658,0 -1.0287,-0.138899 -1.387,-0.41783 -0.357452,-0.279782 -0.592446,-0.687124 -0.707533,-1.22344z"
   id="path3984" />
 </g>
</svg>