<?xml version="1.0" encoding="UTF-8" standalone="no"?>
<!-- Creator: CorelDRAW -->

<svg
   xmlns:dc="http://purl.org/dc/elements/1.1/"
   xmlns:cc="http://creativecommons.org/ns#"
   xmlns:rdf="http://www.w3.org/1999/02/22-rdf-syntax-ns#"
   xmlns:svg="http://www.w3.org/2000/svg"
   xmlns="http://www.w3.org/2000/svg"
   xmlns:xlink="http://www.w3.org/1999/xlink"
   xmlns:sodipodi="http://sodipodi.sourceforge.net/DTD/sodipodi-0.dtd"
   xmlns:inkscape="http://www.inkscape.org/namespaces/inkscape"
   xml:space="preserve"
   width="24px"
   height="24px"
   style="shape-rendering:geometricPrecision; text-rendering:geometricPrecision; image-rendering:optimizeQuality; fill-rule:evenodd; clip-rule:evenodd"
   viewBox="0 0 24 24"
   id="svg3094"
   version="1.1"
   inkscape:version="0.48.1 r9760"
   sodipodi:docname="gdm-setup.svg"><metadata
   id="metadata3209"><rdf:RDF><cc:Work
       rdf:about=""><dc:format>image/svg+xml</dc:format><dc:type
         rdf:resource="http://purl.org/dc/dcmitype/StillImage" /><dc:title></dc:title></cc:Work></rdf:RDF></metadata><sodipodi:namedview
   pagecolor="#ffffff"
   bordercolor="#666666"
   borderopacity="1"
   objecttolerance="10"
   gridtolerance="10"
   guidetolerance="10"
   inkscape:pageopacity="0"
   inkscape:pageshadow="2"
   inkscape:window-width="646"
   inkscape:window-height="480"
   id="namedview3207"
   showgrid="false"
   inkscape:zoom="11.083333"
   inkscape:cx="12"
   inkscape:cy="12"
   inkscape:window-x="0"
   inkscape:window-y="24"
   inkscape:window-maximized="0"
   inkscape:current-layer="svg3094" />
 <defs
   id="defs3096">
  <style
   type="text/css"
   id="style3098">
   
    .fil14 {fill:none}
    .fil30 {fill:#7F7F7F}
    .fil23 {fill:white}
    .fil19 {fill:#CFEDFF;fill-rule:nonzero}
    .fil0 {fill:black;fill-opacity:0.000000}
    .fil1 {fill:black;fill-opacity:0.003922}
    .fil2 {fill:black;fill-opacity:0.007843}
    .fil3 {fill:black;fill-opacity:0.015686}
    .fil4 {fill:black;fill-opacity:0.019608}
    .fil5 {fill:black;fill-opacity:0.023529}
    .fil6 {fill:black;fill-opacity:0.027451}
    .fil7 {fill:black;fill-opacity:0.031373}
    .fil8 {fill:black;fill-opacity:0.035294}
    .fil9 {fill:black;fill-opacity:0.043137}
    .fil10 {fill:black;fill-opacity:0.047059}
    .fil11 {fill:black;fill-opacity:0.050980}
    .fil12 {fill:black;fill-opacity:0.054902}
    .fil13 {fill:black;fill-opacity:0.058824}
    .fil27 {fill:#666666;fill-opacity:0.200000}
    .fil17 {fill:white;fill-opacity:0.219608}
    .fil24 {fill:#727272;fill-opacity:0.270588}
    .fil29 {fill:#7F7F7F;fill-opacity:0.580392}
    .fil22 {fill:#E5E5E5;fill-opacity:0.709804}
    .fil15 {fill:url(#id0)}
    .fil16 {fill:url(#id1)}
    .fil18 {fill:url(#id2);fill-rule:nonzero}
    .fil28 {fill:url(#id3);fill-rule:nonzero}
    .fil21 {fill:url(#id4);fill-rule:nonzero}
    .fil20 {fill:url(#id5);fill-opacity:0.670588}
    .fil26 {fill:url(#id6);fill-opacity:0.709804}
    .fil25 {fill:url(#id7);fill-opacity:0.709804}
   
  </style>
  <linearGradient
   id="id0"
   gradientUnits="userSpaceOnUse"
   x1="12.0128"
   y1="5.55"
   x2="12.0128"
   y2="22.3128">
   <stop
   offset="0"
   style="stop-color:#7BBDF2"
   id="stop3101" />
   <stop
   offset="1"
   style="stop-color:#5C96D2"
   id="stop3103" />
  </linearGradient>
  <linearGradient
   id="id1"
   gradientUnits="userSpaceOnUse"
   x1="12.2086"
   y1="19.7633"
   x2="12.0363"
   y2="11.1646">
   <stop
   offset="0"
   style="stop-color:#E5E5E5"
   id="stop3106" />
   <stop
   offset="1"
   style="stop-color:white"
   id="stop3108" />
  </linearGradient>
  <linearGradient
   id="id2"
   gradientUnits="userSpaceOnUse"
   x1="11.958"
   y1="9.86833"
   x2="11.958"
   y2="6.05287">
   <stop
   offset="0"
   style="stop-color:#4E87B4"
   id="stop3111" />
   <stop
   offset="1"
   style="stop-color:#66A1D1"
   id="stop3113" />
  </linearGradient>
  <linearGradient
   id="id3"
   gradientUnits="userSpaceOnUse"
   x1="11.6854"
   y1="8.09411"
   x2="12.3013"
   y2="-0.125576">
   <stop
   offset="0"
   style="stop-color:#999999"
   id="stop3116" />
   <stop
   offset="1"
   style="stop-color:#CCCCCC"
   id="stop3118" />
  </linearGradient>
  <linearGradient
   id="id4"
   gradientUnits="userSpaceOnUse"
   xlink:href="#id2"
   x1="12.1106"
   y1="18.5949"
   x2="12.1106"
   y2="8.33959">
  </linearGradient>
  <linearGradient
   id="id5"
   gradientUnits="userSpaceOnUse"
   xlink:href="#id2"
   x1="13.5109"
   y1="6.45907"
   x2="13.5375"
   y2="4.90624">
  </linearGradient>
  <linearGradient
   id="id6"
   gradientUnits="userSpaceOnUse"
   x1="11.6615"
   y1="2.397"
   x2="11.4246"
   y2="5.53441">
   <stop
   offset="0"
   style="stop-color:white"
   id="stop3123" />
   <stop
   offset="1"
   style="stop-color:white"
   id="stop3125" />
  </linearGradient>
  <linearGradient
   id="id7"
   gradientUnits="userSpaceOnUse"
   xlink:href="#id6"
   x1="12.5831"
   y1="2.4398"
   x2="12.3489"
   y2="5.52165">
  </linearGradient>
 </defs>
 <g
   id="Слой_x0020_1">
  <metadata
   id="CorelCorpID_0Corel-Layer" />
  <g
   id="_294285352">
   <path
   id="_291226952"
   class="fil0"
   d="M11.3066 20.5017c7.88576,-0.293955 11.4129,0.324286 12.9459,1.18404l0 2.28191c-0.0711502,0.012756 -0.145135,0.0243781 -0.222521,0.0354333l-24.2066 0 0 -2.05117c1.49954,-0.633548 4.69279,-1.19736 11.4832,-1.45022z" />
   <g
   id="g3132">
    <path
   id="_291224120"
   class="fil1"
   d="M11.3347 20.6786c7.89427,-0.283467 11.4271,0.371058 12.9179,1.24073l0 2.00808c-0.156757,0.0294805 -0.330239,0.0544256 -0.519595,0.0756856l-23.9096 0 0 -1.85274c1.45532,-0.642619 4.6327,-1.22486 11.5113,-1.47176z" />
    <path
   id="_294391608"
   class="fil2"
   d="M11.3625 20.8558c7.88038,-0.271561 11.4413,0.417263 12.8901,1.28949l0 1.74219c-0.250018,0.0501736 -0.549075,0.0875912 -0.892353,0.115654l-23.5368 0 0 -1.66083c1.41677,-0.648005 4.59273,-1.24725 11.5391,-1.4865z" />
    <path
   id="_294304552"
   class="fil3"
   d="M11.3905 21.033c7.84154,-0.257388 11.4583,0.4612 12.862,1.32804l0 1.48707c-0.358586,0.076536 -0.83481,0.125292 -1.41081,0.155056l-6.86443 0c-0.641769,-0.00368507 -1.30111,-0.00453547 -1.97236,0l-14.1229 0 -0.0586776 -0.0093544 0 -1.46864c1.3836,-0.648572 4.57884,-1.26256 11.5671,-1.49217z" />
    <path
   id="_106391088"
   class="fil4"
   d="M11.4183 21.2101c7.77748,-0.241514 11.4827,0.50287 12.8342,1.35611l0 1.243c-0.519028,0.119056 -1.33768,0.172915 -2.37545,0.193891l-3.10283 0c-1.96783,-0.0192757 -4.25427,-0.0513075 -6.61498,0l-11.9314 0c-0.146552,-0.0167245 -0.281766,-0.0348664 -0.404507,-0.0549926l0 -1.25094c1.35299,-0.64347 4.59585,-1.26965 11.5949,-1.48707z" />
    <path
   id="_106388880"
   class="fil5"
   d="M11.4461 21.387c7.68847,-0.223655 11.5212,0.540855 12.8065,1.37198l0 1.01169c-1.61973,0.402806 -6.86812,0.0858904 -12.4286,0.212317l-0.889235 0.0201261 -10.2354 0c-0.342995,-0.0266459 -0.636383,-0.0598115 -0.875912,-0.0997803l0 -1.04599c1.32294,-0.632414 4.64744,-1.26738 11.6227,-1.47034z" />
    <path
   id="_294377904"
   class="fil6"
   d="M11.4736 21.5645c7.57905,-0.203813 11.585,0.576288 12.779,1.37708l0 0.790872c-1.45475,0.401672 -6.79186,0.109135 -12.4181,0.222521 -0.843314,0.017008 -1.67671,0.0334491 -2.48941,0.0481894l-7.91609 0c-0.67862,-0.0308979 -1.22486,-0.077103 -1.60556,-0.142017l0 -0.855786c1.28694,-0.61569 4.73503,-1.25462 11.6502,-1.44086z" />
    <path
   id="_291286960"
   class="fil7"
   d="M11.5022 21.7419c7.45263,-0.182553 11.6865,0.608887 12.7503,1.37085l0 0.582524c-1.25122,0.397704 -6.69832,0.131245 -12.4065,0.231592 -1.83375,0.0323152 -3.62639,0.0617958 -5.25576,0.0762526l-3.4685 0c-1.51513,-0.0198427 -2.67904,-0.0739848 -3.29842,-0.182553l0 -0.679753c1.23705,-0.592729 4.85664,-1.23223 11.6788,-1.39891z" />
    <path
   id="_294304888"
   class="fil8"
   d="M11.5297 21.9194c7.33924,-0.159308 11.8727,0.644887 12.7228,1.36121l0 0.375027c-0.964921,0.395153 -6.56282,0.156757 -12.3957,0.243215 -5.46836,0.081355 -10.6209,0.140033 -12.0334,-0.116788l0 -0.517894c1.16306,-0.563815 5.00999,-1.19991 11.7063,-1.34477z" />
    <path
   id="_291236432"
   class="fil9"
   d="M11.5575 22.0962c7.33839,-0.136348 12.3076,0.706683 12.6951,1.3717l0 0.130962c-0.421799,0.411877 -6.29778,0.198143 -12.3847,0.271561 -5.54688,0.0668982 -10.8262,0.110552 -12.0445,-0.124442l0 -0.369641c1.04684,-0.529799 5.18829,-1.15881 11.7341,-1.28014z" />
    <path
   id="_294287200"
   class="fil10"
   d="M11.5853 22.2734c7.10991,-0.1063 12.5587,0.716604 12.5712,1.3065 0.0121891,0.374176 -6.04748,0.20523 -12.2775,0.262207 -5.66225,0.0521579 -11.1091,0.0802211 -12.0556,-0.129261l0 -0.230175c0.8487,-0.490964 5.37056,-1.11402 11.7619,-1.20927z" />
    <path
   id="_294301768"
   class="fil11"
   d="M11.6134 22.4506c6.58635,-0.0708667 12.4136,0.656793 12.4218,1.16193 0.00822054,0.267309 -6.01176,0.16356 -12.1454,0.201545 -5.89413,0.0368507 -11.6272,0.047339 -12.0663,-0.135781l0 -0.0805046c0.412728,-0.44646 5.47885,-1.07944 11.79,-1.14719z" />
    <path
   id="_294385560"
   class="fil12"
   d="M11.6411 22.6277c6.06279,-0.0354333 12.2687,0.597265 12.273,1.01708 0.00396854,0.161009 -5.97633,0.122174 -12.0133,0.140883 -6.03728,0.0192757 -11.9881,0.0110552 -11.9881,-0.117922 0,-0.391184 5.66537,-1.00461 11.7284,-1.04004z" />
   </g>
   <path
   id="_294391488"
   class="fil13"
   d="M11.6686 22.8052c5.54008,0 12.1242,0.537453 12.1242,0.872511 0,0.109135 -23.7627,0.104883 -23.7627,0.00311813 0,-0.334774 6.09879,-0.875629 11.6386,-0.875629z" />
  </g>
  <path
   class="fil14"
   d="M-65.4908 -16.0099l-0.125009 0.136348m20.6965 -0.0147403l-0.139749 -0.123308"
   id="path3147" />
  <path
   class="fil15"
   d="M1.30735 5.03097l21.4117 -0.0158741c0.513642,0 0.932889,0.404507 0.932889,0.882999l0 16.0519c0,0.479626 -0.421232,0.881582 -0.932889,0.882432l-21.4117 0.0158741c-0.507122,0 -0.932889,-0.396854 -0.932889,-0.882432l0 -16.0519c0,-0.485579 0.419247,-0.881582 0.932889,-0.882999zm7.6502 2.07129l6.26603 0c0.474807,0 0.844448,0.542272 0.844448,1.01736l0 0c0,0.47509 -0.409893,0.959535 -0.882999,0.959535l-6.26603 0c-0.47339,0 -0.844164,-0.484445 -0.844164,-0.959535l0 0c0,-0.47509 0.407625,-1.01736 0.882716,-1.01736z"
   id="path3149" />
  <path
   class="fil16"
   d="M3.47417 10.9687l17.2875 0c0.178584,0 0.323719,0.170647 0.324286,0.37531l0.00822054 3.28056c0.00113387,0.202112 -0.14882,0.37531 -0.323152,0.37531l-17.2886 0c-0.175749,0 -0.324286,-0.169513 -0.324286,-0.37531l-0.00822054 -3.28056c0,-0.206364 0.146269,-0.37531 0.324286,-0.37531zm0.0581107 5.08171l17.1106 0c0.176883,0 0.320317,0.165545 0.320884,0.363971l0.00822054 3.18078c0.00113387,0.196159 -0.147119,0.363971 -0.320034,0.363971l-17.1118 0c-0.173765,0 -0.320884,-0.164411 -0.320884,-0.363971l-0.00822054 -3.18078c0,-0.200128 0.144568,-0.363971 0.321168,-0.363971z"
   id="path3151" />
  <path
   class="fil17"
   d="M0.329388 9.75778c7.64652,0.676919 15.5,0.538303 23.5521,-0.0496067l-0.0762526 -3.964c-0.0059528,-0.297357 -0.158174,-0.563249 -0.399688,-0.723691l-22.6717 0c-0.286585,0.150804 -0.487846,0.441074 -0.48076,0.77103l0.0762526 3.96627zm8.62816 -2.80972l6.26603 0c0.474807,0 0.844448,0.542555 0.844448,1.01765l0 0c0,0.474807 -0.408759,0.959535 -0.882999,0.959535l-6.26603 0c-0.474523,0 -0.844164,-0.484728 -0.844164,-0.959535l0 0c0,-0.47509 0.407625,-1.01765 0.882716,-1.01765z"
   id="path3153" />
  <path
   class="fil18"
   d="M16.7381 9.86833l0 -1.65658c0,0.452696 -0.185954,0.865708 -0.484728,1.16448 -0.298207,0.298207 -0.711218,0.484728 -1.1642,0.484728l-6.51633 0c-0.453263,0 -0.865991,-0.185954 -1.16448,-0.484445 -0.298491,-0.298491 -0.484161,-0.711218 -0.484161,-1.16477l0 0.561831c0,-0.643753 0.0615123,-1.71186 0.473956,-2.20452 0.265041,-0.316349 0.642619,-0.516193 1.12054,-0.516193l0.00963787 0.00198427 0.0606619 0.00141733 6.55574 0.0374176 0.00396854 0 0.0277797 0.000283467 0.00198427 0c1.81305,0.0218269 1.59507,1.89809 1.57863,3.25165l-0.0189923 0.522713zm-1.00007 -1.65658l0 1.15654c0,-0.440507 -0.0141733,-1.79293 -0.201828,-2.06392 -0.108851,-0.0986464 -0.138615,-0.21175 -0.369641,-0.214301l-0.0257955 -0.000283467 -6.56141 -0.0374176 -0.00963787 0 -0.051024 -0.00113387 0 0.0017008c-0.155056,0 -0.274396,0.0609454 -0.354617,0.156757 -0.253986,0.303876 -0.239813,1.13018 -0.239813,1.56389l0 -0.561831c0,0.177734 0.0734179,0.34016 0.191057,0.457799 0.117639,0.117639 0.280065,0.19134 0.457515,0.19134l6.51633 0c0.176883,0 0.339593,-0.0739848 0.457232,-0.191624 0.117922,-0.117922 0.191624,-0.280632 0.191624,-0.457515z"
   id="path3155" />
  <path
   class="fil19"
   d="M0.219687 7.02147c0,-0.288569 0.0345829,-0.559847 0.104599,-0.795975 -0.0524414,0.118773 -0.0833392,0.246049 -0.0833392,0.377861l-0.02126 -0.0317483c0,-0.918716 0.3532,-1.66338 1.08483,-1.66338l0 0.00113387 21.3102 0.00651974 0 -0.00113387 0.0158741 0 0.00283467 0.00113387c0.760825,0.0107717 1.11686,0.697895 1.11686,1.658l0 0.0164411 -0.0240947 0.0249451c0.0161576,0.129544 0.0240947,0.265608 0.0240947,0.408192l0 0.0164411 -0.0586776 0.0620792 0 -0.0164411c0,-0.621643 -0.572603,-1.09843 -1.06102,-1.10722l0 0.00226773 -0.0158741 0 0 -0.00226773 -21.3102 -0.00651974 0 0.00226773c-0.458082,0 -1.06357,0.493232 -1.06357,1.07887l-0.02126 -0.0314648z"
   id="path3157" />
  <path
   class="fil20"
   d="M16.5763 4.9652l-1.05478 2.02112c-0.0918432,-0.0626462 -0.192757,-0.0994968 -0.297924,-0.0994968l-6.26603 0c-0.17008,0 -0.331089,0.0929771 -0.468004,0.241514l-1.23478 -2.29155 9.32152 0.12841z"
   id="path3159" />
  <path
   class="fil21"
   d="M23.9708 7.78683l0 13.527c0,0.452696 -0.185954,0.865708 -0.484728,1.16448 -0.298207,0.298207 -0.711218,0.484728 -1.1642,0.484728l-20.6764 0c-0.453263,0 -0.865991,-0.185954 -1.16448,-0.484445 -0.298491,-0.298491 -0.484161,-0.711218 -0.484161,-1.16477l0 -14.6218c0,-0.643753 0.0615123,-1.71186 0.473956,-2.20452 0.265041,-0.316349 0.642619,-0.516193 1.12054,-0.516193l0.00963787 0.00198427 0.0606619 0.00141733 20.7158 0.0374176 0.00396854 0 0.0277797 0.000283467 0.00198427 0c1.81305,0.0218269 1.59507,1.89809 1.57863,3.25165l-0.0189923 0.522713zm-1.00007 13.527l0 -14.0271c0,-0.440507 -0.0141733,-1.79293 -0.201828,-2.06392 -0.108851,-0.0986464 -0.138615,-0.21175 -0.369641,-0.214301l-0.0257955 -0.000283467 -20.7214 -0.0374176 -0.00963787 0 -0.051024 -0.00113387 0 0.0017008c-0.155056,0 -0.274396,0.0609454 -0.354617,0.156757 -0.253986,0.303876 -0.239813,1.13018 -0.239813,1.56389l0 14.6218c0,0.177734 0.0734179,0.34016 0.191057,0.457799 0.117639,0.117639 0.280065,0.19134 0.457515,0.19134l20.6764 0c0.176883,0 0.339593,-0.0739848 0.457232,-0.191624 0.117922,-0.117922 0.191624,-0.280632 0.191624,-0.457515z"
   id="path3161" />
  <path
   class="fil22"
   d="M9.62512 0.286018l4.77613 0.0280632c0.155056,0.000283467 0.282616,0.138048 0.282049,0.296223l-0.038268 6.99284c-0.000283467,0.15619 -0.131529,0.29679 -0.282049,0.295656l-4.77698 -0.0291971c-0.149387,-0.0008504 -0.283183,-0.132946 -0.282049,-0.295372l0.0391184 -6.99284c0.0008504,-0.16271 0.126993,-0.296223 0.282049,-0.295372z"
   id="path3163" />
  <polygon
   class="fil23"
   points="9.75721,0.888101 14.4015,0.888101 14.6833,0.939409 14.6833,2.08858 9.47573,2.08858 9.47573,0.939409 "
   id="polygon3165" />
  <path
   class="fil24"
   d="M9.766 7.18163l4.47736 0c0.151938,0 0.276097,0.0104883 0.276097,0.0206931l0 0.454681c0,0.0102048 -0.125292,0.0206931 -0.276097,0.0206931l-4.47736 0c-0.151371,0 -0.276947,-0.0093544 -0.276947,-0.0206931l0 -0.454681c0,-0.0113387 0.124442,-0.0206931 0.276947,-0.0206931z"
   id="path3167" />
  <path
   class="fil23"
   d="M9.7351 6.03926l4.47736 0c0.151938,0 0.276097,0.0172915 0.276097,0.0337325l0 1.07632c0,0.0161576 -0.126143,0.0337325 -0.276097,0.0337325l-4.47736 0c-0.150521,0 -0.276947,-0.0153072 -0.276947,-0.0337325l0 -1.07632c0,-0.0184253 0.124442,-0.0337325 0.276947,-0.0337325z"
   id="path3169" />
  <path
   class="fil25"
   d="M10.1563 1.12026l3.76274 0.117922c0.259372,0 0.472823,0.144852 0.471405,0.311813l-0.06378 5.63419c-0.00141733,0.166962 -0.219403,0.31153 -0.471405,0.31153l-1.06158 -0.00453547c0.161576,-0.0229608 0.290553,-0.15619 0.290553,-0.306995l0.0476224 -5.63419c0.00141733,-0.167812 -0.155907,-0.310963 -0.342711,-0.311813l-2.63284 -0.117922z"
   id="path3171" />
  <path
   class="fil26"
   d="M10.1433 0.553611l1.05563 0.00368507c-0.162426,0.0229608 -0.289136,0.153639 -0.289136,0.308128l-0.047339 6.18553c0,0.169513 0.157891,0.309829 0.341011,0.31068l2.63851 0.0158741 -3.76359 -0.0158741c-0.250868,-0.0008504 -0.837077,-0.140316 -0.83566,-0.31068l0.0649139 -6.18553c0.0017008,-0.171497 0.577422,-0.312664 0.83566,-0.311813z"
   id="path3173" />
  <path
   class="fil27"
   d="M9.74304 2.02735l4.4269 0c0.150521,0 0.264475,0.0178584 0.272979,0.0391184l0.344129 0.867125c0.008504,0.02126 -0.373893,2.01545 -0.377861,1.99504l-0.435688 -1.97548 -4.14882 -0.0178584 -0.387499 1.6271c-0.00453547,0.0201261 -0.4955,-1.60726 -0.483027,-1.6288l0.51591 -0.867125c0.0124725,-0.0215435 0.122458,-0.0391184 0.272979,-0.0391184z"
   id="path3175" />
  <path
   class="fil28"
   d="M9.6271 -0.0890086l4.77415 0.0283467 0 -0.0017008c0.184537,0 0.3532,0.0816384 0.472256,0.208632 0.114521,0.121607 0.186521,0.288569 0.186521,0.464319l-0.00198427 0.0017008 -0.0379846 6.77684 0.0017008 0.122458c0,0.176033 -0.0754022,0.219403 -0.188222,0.34016l-0.0017008 0.0025512c-0.117355,0.123592 -0.286018,0.20608 -0.470555,0.20523l-0.00283467 0 -4.77386 -0.0291971 -0.0025512 0c-0.176883,-0.00198427 -0.346396,-0.080788 -0.465452,-0.203529l-0.0017008 -0.0017008c-0.114521,-0.120757 -0.187372,-0.288569 -0.187372,-0.465169l0.00198427 -0.0017008 0.038835 -6.77883 0 -0.0008504c0.00198427,-0.179434 0.0720006,-0.344412 0.186521,-0.464319 0.119906,-0.126143 0.286868,-0.204946 0.470555,-0.204946l0.0017008 0.0017008zm4.41811 1.03324l-3.99178 -0.0379846 -0.00793707 6.03898 3.93027 -0.0221104 0.0694494 -5.97888zm0 -0.077103l-0.00198427 0 0.00198427 0.0008504 0 -0.0008504zm-4.00057 6.15633l0.0017008 0 -0.0017008 -0.0008504 0 0.0008504z"
   id="path3177" />
  <polygon
   class="fil29"
   points="4.00425,17.0511 6.0163,17.0511 6.0163,19.1326 4.00425,19.1326 "
   id="polygon3179" />
  <polygon
   class="fil29"
   points="6.93416,17.0511 8.94621,17.0511 8.94621,19.1326 6.93416,19.1326 "
   id="polygon3181" />
  <polygon
   class="fil29"
   points="9.98597,17.0511 11.998,17.0511 11.998,19.1326 9.98597,19.1326 "
   id="polygon3183" />
  <rect
   class="fil30"
   x="4.00425"
   y="17.0511"
   width="0.946677"
   height="0.979378"
   id="rect3185" />
  <rect
   class="fil30"
   x="6.96421"
   y="17.0511"
   width="0.946677"
   height="0.979378"
   id="rect3187" />
  <rect
   class="fil30"
   x="10.0463"
   y="17.0511"
   width="0.946677"
   height="0.979378"
   id="rect3189" />
  <polygon
   class="fil29"
   points="12.9768,17.0511 14.9889,17.0511 14.9889,19.1326 12.9768,19.1326 "
   id="polygon3191" />
  <rect
   class="fil30"
   x="13.0372"
   y="17.0511"
   width="0.946677"
   height="0.979378"
   id="rect3193" />
  <polygon
   class="fil29"
   points="4.00425,11.786 6.0163,11.786 6.0163,13.8675 4.00425,13.8675 "
   id="polygon3195" />
  <polygon
   class="fil29"
   points="6.93416,11.786 8.94621,11.786 8.94621,13.8675 6.93416,13.8675 "
   id="polygon3197" />
  <polygon
   class="fil29"
   points="9.98597,11.786 11.998,11.786 11.998,13.8675 9.98597,13.8675 "
   id="polygon3199" />
  <rect
   class="fil30"
   x="7.28453"
   y="12.7963"
   width="0.946677"
   height="0.979378"
   id="rect3201" />
  <rect
   class="fil30"
   x="10.3519"
   y="12.383"
   width="0.946677"
   height="0.979378"
   id="rect3203" />
  <rect
   class="fil30"
   x="4.44674"
   y="12.4595"
   width="0.946677"
   height="0.979378"
   id="rect3205" />
 </g>
</svg>