<?xml version="1.0" encoding="UTF-8" standalone="no"?>
<!-- Creator: CorelDRAW -->

<svg
   xmlns:dc="http://purl.org/dc/elements/1.1/"
   xmlns:cc="http://creativecommons.org/ns#"
   xmlns:rdf="http://www.w3.org/1999/02/22-rdf-syntax-ns#"
   xmlns:svg="http://www.w3.org/2000/svg"
   xmlns="http://www.w3.org/2000/svg"
   xmlns:xlink="http://www.w3.org/1999/xlink"
   xmlns:sodipodi="http://sodipodi.sourceforge.net/DTD/sodipodi-0.dtd"
   xmlns:inkscape="http://www.inkscape.org/namespaces/inkscape"
   xml:space="preserve"
   width="24px"
   height="24px"
   style="shape-rendering:geometricPrecision; text-rendering:geometricPrecision; image-rendering:optimizeQuality; fill-rule:evenodd; clip-rule:evenodd"
   viewBox="0 0 24 24"
   id="svg4122"
   version="1.1"
   inkscape:version="0.48.1 r9760"
   sodipodi:docname="kopete-offline.svg"><metadata
   id="metadata4224"><rdf:RDF><cc:Work
       rdf:about=""><dc:format>image/svg+xml</dc:format><dc:type
         rdf:resource="http://purl.org/dc/dcmitype/StillImage" /><dc:title></dc:title></cc:Work></rdf:RDF></metadata><sodipodi:namedview
   pagecolor="#ffffff"
   bordercolor="#666666"
   borderopacity="1"
   objecttolerance="10"
   gridtolerance="10"
   guidetolerance="10"
   inkscape:pageopacity="0"
   inkscape:pageshadow="2"
   inkscape:window-width="646"
   inkscape:window-height="480"
   id="namedview4222"
   showgrid="false"
   inkscape:zoom="11.083333"
   inkscape:cx="12"
   inkscape:cy="12"
   inkscape:window-x="0"
   inkscape:window-y="24"
   inkscape:window-maximized="0"
   inkscape:current-layer="svg4122" />
 <defs
   id="defs4124">
  <style
   type="text/css"
   id="style4126">
   
    .fil18 {fill:white}
    .fil21 {fill:#EDA21D;fill-rule:nonzero}
    .fil17 {fill:#F2BE13;fill-rule:nonzero}
    .fil0 {fill:#333333;fill-opacity:0.000000}
    .fil1 {fill:#333333;fill-opacity:0.011765}
    .fil2 {fill:#333333;fill-opacity:0.027451}
    .fil3 {fill:#333333;fill-opacity:0.039216}
    .fil4 {fill:#333333;fill-opacity:0.054902}
    .fil5 {fill:#333333;fill-opacity:0.066667}
    .fil6 {fill:#333333;fill-opacity:0.078431}
    .fil7 {fill:#333333;fill-opacity:0.094118}
    .fil8 {fill:#333333;fill-opacity:0.105882}
    .fil9 {fill:#333333;fill-opacity:0.121569}
    .fil14 {fill:#FEDD4D;fill-opacity:0.360784}
    .fil19 {fill:#BABABA;fill-opacity:0.439216}
    .fil11 {fill:url(#id0)}
    .fil12 {fill:url(#id1)}
    .fil10 {fill:url(#id2)}
    .fil20 {fill:url(#id3);fill-rule:nonzero}
    .fil16 {fill:url(#id4);fill-rule:nonzero}
    .fil15 {fill:url(#id5);fill-opacity:0.219608}
    .fil13 {fill:url(#id6);fill-rule:nonzero;fill-opacity:0.780392}
   
  </style>
  <linearGradient
   id="id0"
   gradientUnits="userSpaceOnUse"
   x1="12.5667"
   y1="4.58139"
   x2="12.5667"
   y2="19.0334">
   <stop
   offset="0"
   style="stop-color:#FED716"
   id="stop4129" />
   <stop
   offset="1"
   style="stop-color:#F7BF19"
   id="stop4131" />
  </linearGradient>
  <linearGradient
   id="id1"
   gradientUnits="userSpaceOnUse"
   xlink:href="#id0"
   x1="12.3861"
   y1="4.84615"
   x2="12.7472"
   y2="18.7689">
  </linearGradient>
  <linearGradient
   id="id2"
   gradientUnits="userSpaceOnUse"
   x1="12.6197"
   y1="9.35554"
   x2="12.788"
   y2="12.4215">
   <stop
   offset="0"
   style="stop-color:#FEDD4D"
   id="stop4135" />
   <stop
   offset="0.290196"
   style="stop-color:#FEDD4D"
   id="stop4137" />
   <stop
   offset="1"
   style="stop-color:#F7BF19"
   id="stop4139" />
  </linearGradient>
  <linearGradient
   id="id3"
   gradientUnits="userSpaceOnUse"
   x1="12.5975"
   y1="10.5144"
   x2="12.5975"
   y2="0.965771">
   <stop
   offset="0"
   style="stop-color:#FFEC80"
   id="stop4142" />
   <stop
   offset="1"
   style="stop-color:white"
   id="stop4144" />
  </linearGradient>
  <linearGradient
   id="id4"
   gradientUnits="userSpaceOnUse"
   x1="7.00617"
   y1="8.82546"
   x2="7.05662"
   y2="14.6351">
   <stop
   offset="0"
   style="stop-color:#FEDD4D"
   id="stop4147" />
   <stop
   offset="1"
   style="stop-color:#FFE351"
   id="stop4149" />
  </linearGradient>
  <linearGradient
   id="id5"
   gradientUnits="userSpaceOnUse"
   x1="13.461"
   y1="12.2418"
   x2="13.8199"
   y2="-0.093544">
   <stop
   offset="0"
   style="stop-color:#FFEC8B"
   id="stop4152" />
   <stop
   offset="1"
   style="stop-color:#FFF5C4"
   id="stop4154" />
  </linearGradient>
  <linearGradient
   id="id6"
   gradientUnits="userSpaceOnUse"
   x1="7.72589"
   y1="9.64382"
   x2="8.24123"
   y2="20.8827">
   <stop
   offset="0"
   style="stop-color:#FBCD17"
   id="stop4157" />
   <stop
   offset="1"
   style="stop-color:#FEDD4D"
   id="stop4159" />
  </linearGradient>
 </defs>
 <g
   id="Слой_x0020_1">
  <metadata
   id="CorelCorpID_0Corel-Layer" />
  <g
   id="_71719816">
   <path
   id="_121413504"
   class="fil0"
   d="M8.42463 22.7187c-9.56502,0.0093544 -6.03586,0.753738 -6.03586,0.956984 0,0.0498902 -0.0470555,0.110269 -0.0204096,0.172348l13.5928 0c0.0232443,-0.0189923 0.0337325,-0.0379846 0.0337325,-0.0566934 0,-0.202962 1.99476,-1.08171 -7.57026,-1.07264z" />
   <g
   id="g4165">
    <path
   id="_76427328"
   class="fil1"
   d="M8.08306 22.7715c-8.57572,0.00822054 -5.50861,0.68599 -5.50861,0.875912 0,0.0578272 -0.0615123,0.129544 0.0394019,0.200694l12.2152 0c0.0895755,-0.0331656 0.124725,-0.0657643 0.124725,-0.097796 0,-0.190206 1.70562,-0.986748 -6.87067,-0.978811z" />
    <path
   id="_71300744"
   class="fil2"
   d="M7.74233 22.8247c-7.58756,0.00708667 -4.98165,0.617958 -4.98165,0.794557 0,0.0651974 -0.0754022,0.149954 0.178017,0.228758l10.6513 0c0.238396,-0.0456382 0.323436,-0.093544 0.323436,-0.138615 0,-0.177167 1.4162,-0.891787 -6.17107,-0.8847z" />
    <path
   id="_73508120"
   class="fil3"
   d="M7.3999 22.878c-6.59854,0.0059528 -4.4544,0.549359 -4.4544,0.713486 0,0.0734179 -0.0839062,0.175466 0.494083,0.256537l8.67664 0c0.569485,-0.0549926 0.754872,-0.119623 0.754872,-0.179434 0,-0.164127 1.12763,-0.796542 -5.47119,-0.790589z" />
    <path
   id="_76049496"
   class="fil4"
   d="M7.05861 22.9313c-5.60981,0.00481894 -3.92687,0.481327 -3.92687,0.632414 0,0.0864574 -0.0779534,0.218553 1.37935,0.284317l5.42357 0c1.46666,-0.0504571 1.89583,-0.140883 1.89583,-0.220254 0,-0.150804 0.838211,-0.701297 -4.77188,-0.696478z" />
    <path
   id="_77892120"
   class="fil5"
   d="M6.71731 22.9846c-4.62108,0.004252 -3.3999,0.413578 -3.3999,0.551059 0,0.098363 0.00793707,0.264475 3.29275,0.264475 3.28453,0 4.17943,-0.115088 4.17943,-0.212884 0,-0.137481 0.548792,-0.606902 -4.07228,-0.60265z" />
    <path
   id="_75258608"
   class="fil6"
   d="M6.37602 23.0379c-3.63234,0.00311813 -2.87237,0.345546 -2.87237,0.469988 0,0.077103 0.166395,0.203813 2.78988,0.203246 2.62405,0 3.45546,-0.0881582 3.45546,-0.164694 0,-0.124442 0.259372,-0.511941 -3.37297,-0.508539z" />
    <path
   id="_76788160"
   class="fil7"
   d="M6.03359 23.0912c-2.64333,0.00198427 -2.3454,0.276947 -2.3454,0.388916 0,0.055843 0.325136,0.1423 2.28786,0.141733 1.96301,0 2.73064,-0.0606619 2.73064,-0.116221 0,-0.111402 -0.0289136,-0.416696 -2.67309,-0.414428z" />
    <path
   id="_117204328"
   class="fil8"
   d="M5.69286 23.1442c-1.65488,0.00113387 -1.81844,0.209198 -1.81844,0.307561 0,0.0354333 0.483027,0.0822054 1.78499,0.0816384 1.30253,0 2.00694,-0.0342995 2.00694,-0.068599 0,-0.098363 -0.318617,-0.321451 -1.9735,-0.320601z" />
   </g>
   <path
   id="_118390008"
   class="fil9"
   d="M5.351 23.1981c-0.66558,0 -1.29062,0.14145 -1.29062,0.226773 0,0.0280632 2.56481,0.0260789 2.56481,0 0,-0.0853235 -0.607753,-0.226773 -1.27418,-0.226773z" />
  </g>
  <path
   class="fil10"
   d="M4.23159 21.0097l-0.0532918 -2.1294c-0.346113,-3.21706 -1.07944,-6.4432 -1.26795,-9.66905l0 0c0.300758,-4.5349 4.4904,-8.22195 9.2481,-8.48274 5.18999,-0.284034 9.65289,3.56091 10.1932,8.6721 0.0283467,0.271561 0.0459216,0.542555 0.051591,0.81355 0.0943944,4.14258 -2.43583,7.77408 -6.10899,9.24073 -0.93544,0.373326 -1.54801,0.505421 -2.53334,0.570619 -2.92141,0.194175 -8.54624,0.352066 -9.51626,1.26908 -0.012756,0.0119056 -0.025512,0.0252285 -0.0379846,0.0379846 0.0487563,-0.104032 0.0274963,-0.2126 0.0249451,-0.322869z"
   id="path4176" />
  <path
   class="fil11"
   d="M3.96372 22.0492l-0.0544256 -2.16087c-0.288002,-2.67791 -0.812983,-5.1951 -1.1075,-7.87981 -0.159592,-1.45985 -0.167529,-2.6592 0.323719,-4.09978 1.22826,-3.60145 4.80845,-6.21671 8.88187,-6.4398 5.26625,-0.288286 9.7952,3.61335 10.3434,8.79966 0.0289136,0.275813 0.0464886,0.550776 0.0524414,0.825739 0.0958118,4.20353 -2.47183,7.88888 -6.19914,9.37708 -0.949047,0.378995 -1.57069,0.513075 -2.57048,0.579123 -2.96478,0.197009 -8.61682,0.441074 -9.60074,1.37141 -0.0130395,0.0121891 -0.0819219,-0.0581107 -0.0943944,-0.0450712 0.0490398,-0.105733 0.0277797,-0.216002 0.0252285,-0.327688z"
   id="path4178" />
  <path
   class="fil11"
   d="M3.96372 22.0492l-0.0544256 -2.16087c-0.288002,-2.67791 -0.812983,-5.1951 -1.1075,-7.87981 -0.159592,-1.45985 -0.167529,-2.6592 0.323719,-4.09978 1.22826,-3.60145 4.80845,-6.21671 8.88187,-6.4398 5.26625,-0.288286 9.7952,3.61335 10.3434,8.79966 0.0289136,0.275813 0.0464886,0.550776 0.0524414,0.825739 0.0958118,4.20353 -2.47183,7.88888 -6.19914,9.37708 -0.949047,0.378995 -1.57069,0.513075 -2.57048,0.579123 -2.96478,0.197009 -8.61682,0.441074 -9.60074,1.37141 -0.0130395,0.0121891 -0.0819219,-0.0581107 -0.0943944,-0.0450712 0.0490398,-0.105733 0.0277797,-0.216002 0.0252285,-0.327688z"
   id="path4180" />
  <path
   class="fil12"
   d="M3.96372 22.0492l-0.0544256 -2.16087c-0.288002,-2.67791 -0.812983,-5.1951 -1.1075,-7.87981 -0.159592,-1.45985 -0.167529,-2.6592 0.323719,-4.09978 1.22826,-3.60145 4.80845,-6.21671 8.88187,-6.4398 5.26625,-0.288286 9.7952,3.61335 10.3434,8.79966 0.0289136,0.275813 0.0464886,0.550776 0.0524414,0.825739 0.0958118,4.20353 -2.47183,7.88888 -6.19914,9.37708 -0.949047,0.378995 -1.57069,0.513075 -2.57048,0.579123 -2.96478,0.197009 -8.61682,0.441074 -9.60074,1.37141 -0.0130395,0.0121891 -0.0819219,-0.0581107 -0.0943944,-0.0450712 0.0490398,-0.105733 0.0277797,-0.216002 0.0252285,-0.327688z"
   id="path4182" />
  <path
   class="fil12"
   d="M3.96372 22.0492l-0.0544256 -2.16087c-0.288002,-2.67791 -0.812983,-5.1951 -1.1075,-7.87981 -0.159592,-1.45985 -0.167529,-2.6592 0.323719,-4.09978 1.22826,-3.60145 4.80845,-6.21671 8.88187,-6.4398 5.26625,-0.288286 9.7952,3.61335 10.3434,8.79966 0.0289136,0.275813 0.0464886,0.550776 0.0524414,0.825739 0.0958118,4.20353 -2.47183,7.88888 -6.19914,9.37708 -0.949047,0.378995 -1.57069,0.513075 -2.57048,0.579123 -2.96478,0.197009 -8.61682,0.441074 -9.60074,1.37141 -0.0130395,0.0121891 -0.0819219,-0.0581107 -0.0943944,-0.0450712 0.0490398,-0.105733 0.0277797,-0.216002 0.0252285,-0.327688z"
   id="path4184" />
  <path
   class="fil12"
   d="M3.96372 22.0492l-0.0544256 -2.16087c-0.288002,-2.67791 -0.812983,-5.1951 -1.1075,-7.87981 -0.159592,-1.45985 -0.167529,-2.6592 0.323719,-4.09978 1.22826,-3.60145 4.80845,-6.21671 8.88187,-6.4398 5.26625,-0.288286 9.7952,3.61335 10.3434,8.79966 0.0289136,0.275813 0.0464886,0.550776 0.0524414,0.825739 0.0958118,4.20353 -2.47183,7.88888 -6.19914,9.37708 -0.949047,0.378995 -1.57069,0.513075 -2.57048,0.579123 -2.96478,0.197009 -8.61682,0.441074 -9.60074,1.37141 -0.0130395,0.0121891 -0.0819219,-0.0581107 -0.0943944,-0.0450712 0.0490398,-0.105733 0.0277797,-0.216002 0.0252285,-0.327688z"
   id="path4186" />
  <path
   class="fil13"
   d="M3.96372 22.0492l-0.0541422 -2.16087c-0.288286,-2.67791 -0.813266,-5.1951 -1.10779,-7.87981 -0.0289136,-0.263341 -0.0527248,-0.518461 -0.0697328,-0.767912l1.50067 0c0.0147403,0.197293 0.0342995,0.400255 0.0572603,0.609737 0.146836,1.3408 0.342995,2.58805 0.538587,3.83332 0.212317,1.35327 0.424917,2.70626 0.569201,4.04649l0.0059528 0.123025 0.0130395 0.522429c2.06562,-0.441074 4.91021,-0.617958 7.07051,-0.752037 0.330806,-0.0204096 0.642336,-0.0399688 1.05223,-0.0671816 0.432854,-0.0283467 0.769896,-0.0688824 1.07604,-0.137198 0.314365,-0.0700163 0.6378,-0.176883 1.03806,-0.336475 1.59393,-0.636383 2.94068,-1.75324 3.87386,-3.16519 0.889519,-1.34562 1.39834,-2.95854 1.38332,-4.67692l1.49444 0c0.0334491,4.14258 -2.51719,7.75962 -6.20084,9.23081 -0.94933,0.378712 -1.57097,0.513075 -2.57104,0.579123 -2.9645,0.197009 -8.61654,0.441074 -9.60074,1.37141 -0.012756,0.0119056 -0.0816384,-0.0581107 -0.094111,-0.0453547 0.0490398,-0.105166 0.0277797,-0.215718 0.0252285,-0.327404z"
   id="path4188" />
  <path
   class="fil14"
   d="M4.87875 20.8773l-0.0538587 -2.14443c-0.243498,-2.26405 -0.657643,-4.41216 -0.955567,-6.64616 0.174616,0.0581107 0.346963,0.139466 0.515059,0.246049 0,0 0.973708,5.567 4.57487,5.9528 3.60145,0.385798 8.87846,0.369074 12.7033,-2.82645 -1.09135,1.71923 -2.70711,3.08242 -4.63582,3.85231 -0.94196,0.37616 -1.55878,0.50939 -2.5512,0.574871 -2.94239,0.195592 -8.55134,0.437673 -9.52817,1.36092 -0.0124725,0.0121891 -0.0810715,-0.0575438 -0.093544,-0.0447878 0.0487563,-0.104883 0.0277797,-0.214301 0.0249451,-0.325136z"
   id="path4190" />
  <path
   class="fil15"
   d="M2.73234 11.2349c5.21891,0.347247 14.5333,0.7441 19.6573,-0.0734179 -0.0093544,-0.159025 -0.0221104,-0.737014 -0.038835,-0.896322 -0.157891,-5.25066 -4.96294,-9.10665 -10.3434,-8.79966 -4.07285,0.232443 -7.6536,2.83835 -8.88187,6.44008 -0.402239,1.17951 -0.469704,2.19743 -0.393168,3.32932z"
   id="path4192" />
  <path
   class="fil16"
   d="M8.9224 9.65375c0.520162,0.571753 0.781234,1.32521 0.781234,2.07753 0,0.748069 -0.261073,1.50039 -0.781234,2.07299l-0.004252 0.00481894c-0.521295,0.571469 -1.20615,0.858337 -1.88789,0.858337 -0.681738,0 -1.36631,-0.286868 -1.88761,-0.858337l-0.004252 -0.00481894c-0.518177,-0.572603 -0.780384,-1.32492 -0.780384,-2.07299 0,-0.748919 0.262207,-1.50124 0.780384,-2.07271l0 -0.00481894 0.00198427 -0.00226773c0.520162,-0.571469 1.20729,-0.857204 1.88987,-0.857204 0.682872,0 1.36971,0.285735 1.88987,0.857204l0.00226773 0.00226773zm-0.993268 2.07753c0,-0.251152 -0.089292,-0.505705 -0.263341,-0.697045l-0.00198427 -0.00226773c-0.174049,-0.19134 -0.405924,-0.288002 -0.633548,-0.288002 -0.227624,0 -0.459216,0.0966622 -0.633265,0.288002l-0.00226773 0.00226773 -0.00198427 -0.00226773c-0.172064,0.19134 -0.260223,0.445893 -0.260223,0.699313 0,0.251435 0.0870243,0.505988 0.257955,0.697328l0.004252 0.00453547c0.174049,0.187938 0.405924,0.284601 0.635533,0.284601 0.229608,0 0.461484,-0.0966622 0.635533,-0.284601l0.004252 -0.00453547c0.17093,-0.19134 0.259089,-0.445893 0.259089,-0.697328z"
   id="path4194" />
  <path
   class="fil17"
   d="M8.59188 10.003c0.439657,0.439657 0.660478,1.01935 0.660478,1.59819 0,0.575438 -0.220821,1.15428 -0.660478,1.59478l-0.0034016 0.00368507c-0.440507,0.439657 -1.01935,0.660194 -1.59563,0.660194 -0.576288,0 -1.15513,-0.220537 -1.59563,-0.660194l-0.00368507 -0.00368507c-0.437673,-0.440507 -0.659344,-1.01935 -0.659344,-1.59478 0,-0.576005 0.221671,-1.15484 0.659344,-1.5945l0 -0.00368507 0.00198427 -0.0017008c0.439657,-0.439657 1.0202,-0.659627 1.59734,-0.659627 0.577138,0 1.15768,0.21997 1.59734,0.659627l0.0017008 0.0017008zm-0.839345 1.59819c0,-0.193041 -0.0754022,-0.388916 -0.222521,-0.536319l-0.0017008 -0.0017008c-0.147119,-0.147119 -0.343278,-0.221671 -0.535469,-0.221671 -0.192474,0 -0.38835,0.0745518 -0.535469,0.221671l-0.0017008 0.0017008 -0.0017008 -0.0017008c-0.145418,0.147119 -0.21997,0.342995 -0.21997,0.53802 0,0.193324 0.0737014,0.3892 0.217986,0.536319l0.00368507 0.00368507c0.147119,0.144568 0.342995,0.218836 0.53717,0.218836 0.194175,0 0.39005,-0.0742683 0.53717,-0.218836l0.0034016 -0.00368507c0.144568,-0.147119 0.21912,-0.342995 0.21912,-0.536319z"
   id="path4196" />
  <path
   class="fil18"
   d="M8.00822 10.5855c0.560414,0.560414 0.560414,1.46978 0,2.03047 -0.560414,0.560414 -1.47034,0.560414 -2.03047,0 -0.560414,-0.560697 -0.560414,-1.47006 0,-2.03047 0.56013,-0.560697 1.47006,-0.560697 2.03047,0z"
   id="path4198" />
  <path
   class="fil19"
   d="M8.00935 10.5864c0.263057,0.263057 0.401389,0.60265 0.418114,0.946496 -0.0167245,-0.0790872 -0.0394019,-0.156757 -0.0683155,-0.232443 0.0272128,0.0824888 0.0456382,0.166962 0.0566934,0.252002 0.0269293,0.100347 0.0428035,0.203246 0.0479059,0.305861 -0.0167245,-0.0790872 -0.0396854,-0.156757 -0.0683155,-0.232443 0.0396854,0.122174 0.0615123,0.249451 0.0683155,0.375877 -0.0547091,-0.265608 -0.184537,-0.519311 -0.392035,-0.725958 -0.559563,-0.559563 -1.46921,-0.559563 -2.02962,0 -0.298491,0.298491 -0.436822,0.693927 -0.418114,1.08341 -0.025512,-0.119906 -0.0337325,-0.24123 -0.0280632,-0.363404 -0.00481894,-0.102898 0.0008504,-0.205797 0.017008,-0.307561 -0.0218269,0.11367 -0.0311813,0.229892 -0.0252285,0.345546 -0.0252285,-0.119623 -0.0337325,-0.24123 -0.0277797,-0.363404 -0.0195592,-0.390334 0.119623,-0.786337 0.418114,-1.08398 0.559563,-0.561548 1.46921,-0.561548 2.03132,0z"
   id="path4200" />
  <path
   class="fil20"
   d="M2.46956 9.95932c0.336192,-2.51293 1.6665,-4.90284 3.63291,-6.49536l0.0008504 -0.000566934c1.67869,-1.35724 3.81461,-2.22805 6.07214,-2.35107l0.0008504 0c2.68131,-0.146836 5.17667,0.77273 7.07335,2.38566l0.0008504 -0.0008504c1.87201,1.59138 3.16292,3.86592 3.47559,6.46219l-0.0688824 0.00793707c0.0263624,0.157041 0.0496067,0.315782 0.0688824,0.475374l-0.608887 0.0717171c-0.306711,-2.37545 -1.60839,-4.52753 -3.32705,-5.98909l0 -0.00198427c-1.7609,-1.49869 -4.08079,-2.35164 -6.57615,-2.21614 -2.10531,0.115371 -4.09751,0.92722 -5.66367,2.19432 -1.74927,1.41535 -3.12749,3.65701 -3.46793,5.94118l-0.612855 0c0.0215435,-0.161576 0.0476224,-0.322869 0.0773864,-0.483311l-0.0773864 0z"
   id="path4202" />
  <path
   class="fil16"
   d="M19.9152 9.65375c0.520162,0.571753 0.781518,1.32521 0.781518,2.07753 0,0.748069 -0.261356,1.50039 -0.781518,2.07299l-0.00396854 0.00481894c-0.521295,0.571469 -1.20615,0.858337 -1.88789,0.858337 -0.681738,0 -1.36659,-0.286868 -1.88761,-0.858337l-0.004252 -0.00481894c-0.518177,-0.572603 -0.780384,-1.32492 -0.780384,-2.07299 0,-0.748919 0.262207,-1.50124 0.780384,-2.07271l0 -0.00481894 0.00198427 -0.00226773c0.520162,-0.571469 1.20729,-0.857204 1.88987,-0.857204 0.682872,0 1.36971,0.285735 1.88987,0.857204l0.00198427 0.00226773zm-0.992984 2.07753c0,-0.251152 -0.089292,-0.505705 -0.263341,-0.697045l-0.00198427 -0.00226773c-0.174049,-0.19134 -0.405924,-0.288002 -0.633548,-0.288002 -0.227624,0 -0.459216,0.0966622 -0.633265,0.288002l-0.00226773 0.00226773 -0.00198427 -0.00226773c-0.172064,0.19134 -0.260223,0.445893 -0.260223,0.699313 0,0.251435 0.0870243,0.505988 0.257955,0.697328l0.004252 0.00453547c0.174049,0.187938 0.405924,0.284601 0.635533,0.284601 0.229608,0 0.461484,-0.0966622 0.635533,-0.284601l0.004252 -0.00453547c0.17093,-0.19134 0.259089,-0.445893 0.259089,-0.697328z"
   id="path4204" />
  <path
   class="fil17"
   d="M19.6474 9.9409c0.456665,0.456665 0.68599,1.05903 0.68599,1.66027 0,0.597831 -0.229325,1.19906 -0.68599,1.65686l-0.00368507 0.00368507c-0.457799,0.456665 -1.05932,0.68599 -1.65771,0.68599 -0.598682,0 -1.19991,-0.229325 -1.65771,-0.68599l-0.00368507 -0.00368507c-0.454964,-0.457799 -0.685139,-1.05903 -0.685139,-1.65686 0,-0.598398 0.230175,-1.19991 0.685139,-1.65658l0 -0.00368507 0.0017008 -0.00198427c0.456948,-0.456665 1.06017,-0.685139 1.6597,-0.685139 0.599532,0 1.20275,0.228474 1.65941,0.685139l0.00198427 0.00198427zm-0.872227 1.66027c0,-0.200694 -0.0782368,-0.404224 -0.231025,-0.557012l-0.00198427 -0.00198427c-0.152789,-0.152789 -0.356318,-0.230175 -0.556162,-0.230175 -0.199844,0 -0.403373,0.0773864 -0.556445,0.230175l-0.0017008 0.00198427 -0.00198427 -0.00198427c-0.150804,0.153072 -0.228191,0.356601 -0.228191,0.558997 0,0.200978 0.0762526,0.404507 0.22649,0.557296l0.00368507 0.00368507c0.152789,0.150237 0.356318,0.22734 0.558146,0.22734 0.201545,0 0.405074,-0.077103 0.558146,-0.22734l0.00368507 -0.00368507c0.149954,-0.152789 0.22734,-0.356318 0.22734,-0.557296z"
   id="path4206" />
  <path
   class="fil18"
   d="M19.0013 10.5855c0.56013,0.560414 0.56013,1.46978 0,2.03047 -0.560414,0.560414 -1.47034,0.560414 -2.03047,0 -0.560414,-0.560697 -0.560414,-1.47006 0,-2.03047 0.56013,-0.560697 1.47006,-0.560697 2.03047,0z"
   id="path4208" />
  <path
   class="fil19"
   d="M19.0025 10.5864c0.263057,0.263057 0.401389,0.60265 0.418114,0.946496 -0.0167245,-0.0790872 -0.0396854,-0.156757 -0.0683155,-0.232443 0.0269293,0.0824888 0.0456382,0.166962 0.0566934,0.252002 0.0269293,0.100347 0.0428035,0.203246 0.0479059,0.305861 -0.0167245,-0.0790872 -0.0396854,-0.156757 -0.0683155,-0.232443 0.0396854,0.122174 0.0615123,0.249451 0.0683155,0.375877 -0.0547091,-0.265608 -0.184537,-0.519311 -0.392035,-0.725958 -0.559563,-0.559563 -1.46921,-0.559563 -2.02991,0 -0.298207,0.298491 -0.436539,0.693927 -0.418114,1.08341 -0.0252285,-0.119906 -0.0334491,-0.24123 -0.0277797,-0.363404 -0.0051024,-0.102898 0.0008504,-0.205797 0.017008,-0.307561 -0.0221104,0.11367 -0.0311813,0.229892 -0.0252285,0.345546 -0.025512,-0.119623 -0.0337325,-0.24123 -0.0280632,-0.363404 -0.0192757,-0.390334 0.119906,-0.786337 0.418114,-1.08398 0.559847,-0.561548 1.46949,-0.561548 2.03161,0z"
   id="path4210" />
  <path
   class="fil16"
   d="M14.4378 9.65375c0.520162,0.571753 0.781234,1.32521 0.781234,2.07753 0,0.748069 -0.261073,1.50039 -0.781234,2.07299l-0.004252 0.00481894c-0.521295,0.571469 -1.20615,0.858337 -1.88761,0.858337 -0.681738,0 -1.36659,-0.286868 -1.88789,-0.858337l-0.004252 -0.00481894c-0.517894,-0.572603 -0.780101,-1.32492 -0.780101,-2.07299 0,-0.748919 0.262207,-1.50124 0.780101,-2.07271l0 -0.00481894 0.00226773 -0.00226773c0.520162,-0.571469 1.207,-0.857204 1.88987,-0.857204 0.682588,0 1.36943,0.285735 1.88959,0.857204l0.00226773 0.00226773zm-0.993268 2.07753c0,-0.251152 -0.0890086,-0.505705 -0.263057,-0.697045l-0.00226773 -0.00226773c-0.174049,-0.19134 -0.405924,-0.288002 -0.633265,-0.288002 -0.227624,0 -0.4595,0.0966622 -0.633548,0.288002l-0.00198427 0.00226773 -0.00226773 -0.00226773c-0.172064,0.19134 -0.259939,0.445893 -0.259939,0.699313 0,0.251435 0.0870243,0.505988 0.257955,0.697328l0.004252 0.00453547c0.174049,0.187938 0.405641,0.284601 0.635533,0.284601 0.229608,0 0.4612,-0.0966622 0.635533,-0.284601l0.00396854 -0.00453547c0.17093,-0.19134 0.259089,-0.445893 0.259089,-0.697328z"
   id="path4212" />
  <path
   class="fil17"
   d="M14.1881 9.92276c0.461767,0.461767 0.69336,1.07065 0.69336,1.67841 0,0.604351 -0.231592,1.21239 -0.69336,1.67501l-0.00396854 0.00368507c-0.462618,0.462051 -1.07065,0.693643 -1.67586,0.693643 -0.605202,0 -1.21295,-0.231592 -1.67586,-0.693643l-0.00368507 -0.00368507c-0.460067,-0.462618 -0.692793,-1.07065 -0.692793,-1.67501 0,-0.604918 0.232726,-1.21295 0.692793,-1.67472l0 -0.00368507 0.00198427 -0.00198427c0.461767,-0.461767 1.0715,-0.692793 1.67756,-0.692793 0.606052,0 1.21607,0.231025 1.67784,0.692793l0.00198427 0.00198427zm-0.881865 1.67841c0,-0.202962 -0.0790872,-0.408476 -0.233577,-0.563249l-0.00198427 -0.0017008c-0.154489,-0.154489 -0.360286,-0.232726 -0.562398,-0.232726 -0.201828,0 -0.407625,0.0782368 -0.562398,0.232726l-0.0017008 0.0017008 -0.00198427 -0.0017008c-0.152505,0.154489 -0.230742,0.360286 -0.230742,0.564949 0,0.203246 0.077103,0.408759 0.229041,0.563532l0.00368507 0.00368507c0.154489,0.151655 0.360286,0.229892 0.564099,0.229892 0.204096,0 0.40961,-0.0782368 0.564382,-0.229892l0.00368507 -0.00368507c0.151655,-0.154773 0.229892,-0.360286 0.229892,-0.563532z"
   id="path4214" />
  <path
   class="fil18"
   d="M13.5236 10.5855c0.560414,0.560414 0.560414,1.46978 0,2.03047 -0.560414,0.560414 -1.47006,0.560414 -2.03047,0 -0.560414,-0.560697 -0.560414,-1.47006 0,-2.03047 0.560414,-0.560697 1.47006,-0.560697 2.03047,0z"
   id="path4216" />
  <path
   class="fil19"
   d="M13.5251 10.5864c0.262774,0.263057 0.401106,0.60265 0.418114,0.946496 -0.017008,-0.0790872 -0.0396854,-0.156757 -0.0683155,-0.232443 0.0269293,0.0824888 0.0453547,0.166962 0.0564099,0.252002 0.0269293,0.100347 0.043087,0.203246 0.0481894,0.305861 -0.017008,-0.0790872 -0.0396854,-0.156757 -0.0683155,-0.232443 0.0394019,0.122174 0.0615123,0.249451 0.0683155,0.375877 -0.0549926,-0.265608 -0.18482,-0.519311 -0.392035,-0.725958 -0.559847,-0.559563 -1.46949,-0.559563 -2.02991,0 -0.298491,0.298491 -0.436539,0.693927 -0.418114,1.08341 -0.0252285,-0.119906 -0.0337325,-0.24123 -0.0277797,-0.363404 -0.0051024,-0.102898 0.0008504,-0.205797 0.0167245,-0.307561 -0.0218269,0.11367 -0.0311813,0.229892 -0.0252285,0.345546 -0.0252285,-0.119623 -0.0337325,-0.24123 -0.0277797,-0.363404 -0.0192757,-0.390334 0.119623,-0.786337 0.418114,-1.08398 0.559563,-0.561548 1.46921,-0.561548 2.03161,0z"
   id="path4218" />
  <path
   class="fil21"
   d="M3.37807 21.7124l-0.0442208 -1.76175c-0.146552,-1.35809 -0.349798,-2.65155 -0.553044,-3.94586 -0.204946,-1.30536 -0.41046,-2.613 -0.555595,-3.93537 -0.393452,-3.60882 0.782652,-7.15924 3.69953,-9.51967 1.71327,-1.38615 3.89398,-2.27425 6.20225,-2.40096l0.0025512 0c2.73942,-0.14967 5.28977,0.789172 7.22954,2.43923 1.9494,1.65885 3.28198,4.0377 3.56885,6.75246 0.0150237,0.147403 0.0277797,0.291687 0.0365672,0.429736 0.00793707,0.126993 0.0141733,0.271561 0.0175749,0.431153 0.00226773,0.114521 0.00283467,0.230742 0.00141733,0.347247 -0.00113387,0.116788 -0.004252,0.224222 -0.00822054,0.322302l0.0034016 0.0887251 0 0.0068032 0.0034016 0.112253 0 0.00453547c0.0496067,2.19885 -0.588761,4.26447 -1.72319,5.98087 -1.16051,1.75523 -2.84317,3.14762 -4.84133,3.94529 -0.504004,0.200694 -0.924102,0.337892 -1.3544,0.434271 -0.43257,0.0963787 -0.864857,0.150521 -1.3904,0.185104l0 0.000283467c-0.265325,0.0175749 -0.65084,0.0419531 -1.06328,0.0671816 -3.00787,0.186521 -7.47474,0.464035 -8.20551,1.15484l-0.0068032 0.004252c-1.19651,0.695628 -1.17667,-0.774431 -1.01906,-1.14294zm1.07887 -1.82269l0.0422366 1.68578c1.78471,-0.614273 5.43463,-0.841046 8.04422,-1.00291 0.344129,-0.02126 0.6721,-0.0419531 1.05421,-0.0671816l0.0025512 0c0.474523,-0.0311813 0.855219,-0.0779534 1.22032,-0.159308 0.36879,-0.0824888 0.736447,-0.203246 1.18291,-0.380979 1.77847,-0.710084 3.27943,-1.95337 4.31663,-3.52264 1.01198,-1.53072 1.58146,-3.37269 1.53809,-5.33286l-0.00283467 -0.10545 -0.000283467 0 -0.00453547 -0.112536 0 -0.0464886c0.00481894,-0.11282 0.00822054,-0.217136 0.0093544,-0.309829 0.00113387,-0.101481 0.000566934,-0.20608 -0.0017008,-0.312097 -0.00226773,-0.111119 -0.008504,-0.239246 -0.0175749,-0.38268 -0.00822054,-0.132379 -0.0195592,-0.261356 -0.0323152,-0.385515 -0.255404,-2.41769 -1.44115,-4.53547 -3.17653,-6.01176 -1.72575,-1.46836 -3.9983,-2.30373 -6.44292,-2.17051 -2.06392,0.11282 -4.01701,0.909928 -5.55425,2.15406 -2.60846,2.11013 -3.6417,5.30678 -3.28963,8.52385 0.146836,1.33853 0.346963,2.6113 0.546524,3.88264 0.209198,1.33201 0.418397,2.66345 0.563249,4.0102l0.00226773 0.0462051z"
   id="path4220" />
 </g>
</svg>