<?xml version="1.0" encoding="UTF-8"?>
<!DOCTYPE svg PUBLIC "-//W3C//DTD SVG 1.1//EN" "http://www.w3.org/Graphics/SVG/1.1/DTD/svg11.dtd">
<!-- Creator: CorelDRAW -->
<svg xmlns="http://www.w3.org/2000/svg" xml:space="preserve" width="24px" height="24px" style="shape-rendering:geometricPrecision; text-rendering:geometricPrecision; image-rendering:optimizeQuality; fill-rule:evenodd; clip-rule:evenodd"
viewBox="0 0 24 24"
 xmlns:xlink="http://www.w3.org/1999/xlink">
 <defs>
  <style type="text/css">
   <![CDATA[
    .fil14 {fill:none}
    .fil33 {fill:white}
    .fil15 {fill:#8C8C8C}
    .fil29 {fill:white;fill-rule:nonzero}
    .fil18 {fill:#CFEDFF;fill-rule:nonzero}
    .fil0 {fill:black;fill-opacity:0.000000}
    .fil20 {fill:#3C6A8C;fill-opacity:0.000000}
    .fil1 {fill:black;fill-opacity:0.003922}
    .fil2 {fill:black;fill-opacity:0.007843}
    .fil3 {fill:black;fill-opacity:0.015686}
    .fil4 {fill:black;fill-opacity:0.019608}
    .fil5 {fill:black;fill-opacity:0.023529}
    .fil6 {fill:black;fill-opacity:0.027451}
    .fil21 {fill:#3C6A8C;fill-opacity:0.031373}
    .fil7 {fill:black;fill-opacity:0.031373}
    .fil8 {fill:black;fill-opacity:0.035294}
    .fil9 {fill:black;fill-opacity:0.043137}
    .fil10 {fill:black;fill-opacity:0.047059}
    .fil11 {fill:black;fill-opacity:0.050980}
    .fil12 {fill:black;fill-opacity:0.054902}
    .fil13 {fill:black;fill-opacity:0.058824}
    .fil22 {fill:#3C6A8C;fill-opacity:0.062745}
    .fil23 {fill:#3C6A8C;fill-opacity:0.094118}
    .fil24 {fill:#3C6A8C;fill-opacity:0.125490}
    .fil25 {fill:#3C6A8C;fill-opacity:0.156863}
    .fil26 {fill:#3C6A8C;fill-opacity:0.188235}
    .fil27 {fill:#3C6A8C;fill-opacity:0.219608}
    .fil34 {fill:#5A93C4;fill-rule:nonzero;fill-opacity:0.439216}
    .fil31 {fill:#A1D6F9;fill-rule:nonzero;fill-opacity:0.439216}
    .fil16 {fill:url(#id0)}
    .fil28 {fill:url(#id1)}
    .fil30 {fill:url(#id2);fill-rule:nonzero}
    .fil19 {fill:url(#id3);fill-rule:nonzero}
    .fil32 {fill:url(#id4);fill-rule:nonzero}
    .fil17 {fill:url(#id5);fill-rule:nonzero;fill-opacity:0.501961}
   ]]>
  </style>
  <linearGradient id="id0" gradientUnits="userSpaceOnUse" x1="12.5834" y1="21.6603" x2="12.5834" y2="1.37368">
   <stop offset="0" style="stop-color:#6AA2DE"/>
   <stop offset="1" style="stop-color:#84C5FA"/>
  </linearGradient>
  <linearGradient id="id1" gradientUnits="userSpaceOnUse" x1="12.447" y1="21.0341" x2="12.3702" y2="21.7629">
   <stop offset="0" style="stop-color:#C4C4C4"/>
   <stop offset="1" style="stop-color:#D4D4D4"/>
  </linearGradient>
  <linearGradient id="id2" gradientUnits="userSpaceOnUse" x1="12.4385" y1="23.0923" x2="12.3892" y2="19.8194">
   <stop offset="0" style="stop-color:#7F7F7F"/>
   <stop offset="1" style="stop-color:#8F8F8F"/>
  </linearGradient>
  <linearGradient id="id3" gradientUnits="userSpaceOnUse" x1="12.5825" y1="17.7408" x2="12.5825" y2="5.29318">
   <stop offset="0" style="stop-color:#4E87B4"/>
   <stop offset="1" style="stop-color:#66A1D1"/>
  </linearGradient>
  <linearGradient id="id4" gradientUnits="userSpaceOnUse" x1="10.6221" y1="8.55106" x2="14.3395" y2="11.9419">
   <stop offset="0" style="stop-color:#5A93C4"/>
   <stop offset="1" style="stop-color:#76B5EA"/>
  </linearGradient>
  <linearGradient id="id5" gradientUnits="userSpaceOnUse" x1="8.36" y1="3.40189" x2="8.36" y2="21.834">
   <stop offset="0" style="stop-color:#BBE6FF"/>
   <stop offset="1" style="stop-color:#84C5FA"/>
  </linearGradient>
 </defs>
 <g id="Слой_x0020_1">
  <metadata id="CorelCorpID_0Corel-Layer"/>
  <g id="_91068584">
   <path id="_99125944" class="fil0" d="M11.744 20.5017c6.84714,-0.293955 9.90972,0.324286 11.2409,1.18404l0 2.28191c-0.0617958,0.012756 -0.126143,0.0243781 -0.193324,0.0354333l-21.0188 0 0 -2.05117c1.30196,-0.633548 4.07484,-1.19736 9.97123,-1.45022z"/>
   <g>
    <path id="_96063856" class="fil1" d="M11.7684 20.6786c6.85451,-0.283467 9.9219,0.371058 11.2165,1.24073l0 2.00808c-0.136064,0.0294805 -0.286585,0.0544256 -0.451279,0.0756856l-20.7608 0 0 -1.85274c1.26369,-0.642619 4.02268,-1.22486 9.99561,-1.47176z"/>
    <path id="_47676048" class="fil2" d="M11.7925 20.8558c6.84232,-0.271561 9.93438,0.417263 11.1924,1.28949l0 1.74219c-0.217136,0.0501736 -0.476791,0.0875912 -0.774998,0.115654l-20.4371 0 0 -1.66083c1.23025,-0.648005 3.98781,-1.24725 10.0197,-1.4865z"/>
    <path id="_95087864" class="fil3" d="M11.8169 21.033c6.80887,-0.257388 9.94912,0.4612 11.168,1.32804l0 1.48707c-0.311247,0.076536 -0.724825,0.125292 -1.22486,0.155056l-5.96074 0c-0.557296,-0.00368507 -1.12962,-0.00453547 -1.71271,0l-12.2628 0 -0.051024 -0.0093544 0 -1.46864c1.20133,-0.648572 3.97591,-1.26256 10.0441,-1.49217z"/>
    <path id="_97334048" class="fil4" d="M11.841 21.2101c6.75303,-0.241514 9.97038,0.50287 11.1439,1.35611l0 1.243c-0.450712,0.119056 -1.16165,0.172915 -2.06279,0.193891l-2.69407 0c-1.70874,-0.0192757 -3.69414,-0.0513075 -5.74389,0l-10.3601 0c-0.127277,-0.0167245 -0.244632,-0.0348664 -0.351215,-0.0549926l0 -1.25094c1.17497,-0.64347 3.99065,-1.26965 10.0682,-1.48707z"/>
    <path id="_91060616" class="fil5" d="M11.8651 21.387c6.67593,-0.223655 10.0038,0.540855 11.1198,1.37198l0 1.01169c-1.40628,0.402806 -5.96357,0.0858904 -10.7919,0.212317l-0.772164 0.0201261 -8.88753 0c-0.29764,-0.0266459 -0.552477,-0.0598115 -0.760541,-0.0997803l0 -1.04599c1.14889,-0.632414 4.03543,-1.26738 10.0923,-1.47034z"/>
    <path id="_120717296" class="fil6" d="M11.8889 21.5645c6.58097,-0.203813 10.0594,0.576288 11.096,1.37708l0 0.790872c-1.26313,0.401672 -5.89753,0.109135 -10.7828,0.222521 -0.732478,0.017008 -1.45589,0.0334491 -2.16143,0.0481894l-6.87379 0c-0.589327,-0.0308979 -1.06328,-0.077103 -1.39409,-0.142017l0 -0.855786c1.11743,-0.61569 4.1114,-1.25462 10.1161,-1.44086z"/>
    <path id="_91853360" class="fil7" d="M11.9138 21.7419c6.47098,-0.182553 10.1475,0.608887 11.0711,1.37085l0 0.582524c-1.08653,0.397704 -5.81617,0.131245 -10.7726,0.231592 -1.59223,0.0323152 -3.14903,0.0617958 -4.56382,0.0762526l-3.01183 0c-1.31529,-0.0198427 -2.32613,-0.0739848 -2.86387,-0.182553l0 -0.679753c1.07406,-0.592729 4.21714,-1.23223 10.141,-1.39891z"/>
    <path id="_46911384" class="fil8" d="M11.9376 21.9194c6.37262,-0.159308 10.3091,0.644887 11.0473,1.36121l0 0.375027c-0.837644,0.395153 -5.69853,0.156757 -10.7632,0.243215 -4.74835,0.081355 -9.22231,0.140033 -10.4489,-0.116788l0 -0.517894c1.00971,-0.563815 4.35008,-1.19991 10.1648,-1.34477z"/>
    <path id="_93532824" class="fil9" d="M11.9617 22.0962c6.37205,-0.136348 10.6867,0.706683 11.0232,1.3717l0 0.130962c-0.366239,0.411877 -5.46836,0.198143 -10.7539,0.271561 -4.8161,0.0668982 -9.40033,0.110552 -10.4582,-0.124442l0 -0.369641c0.909078,-0.529799 4.50514,-1.15881 10.1889,-1.28014z"/>
    <path id="_93684384" class="fil10" d="M11.9858 22.2734c6.17334,-0.1063 10.905,0.716604 10.9157,1.3065 0.0104883,0.374176 -5.25122,0.20523 -10.6609,0.262207 -4.91645,0.0521579 -9.64609,0.0802211 -10.4679,-0.129261l0 -0.230175c0.737014,-0.490964 4.66331,-1.11402 10.213,-1.20927z"/>
    <path id="_93890984" class="fil11" d="M12.0102 22.4506c5.71894,-0.0708667 10.7788,0.656793 10.7859,1.16193 0.00708667,0.267309 -5.22004,0.16356 -10.5458,0.201545 -5.11828,0.0368507 -10.0962,0.047339 -10.4775,-0.135781l0 -0.0805046c0.358302,-0.44646 4.75714,-1.07944 10.2374,-1.14719z"/>
    <path id="_95697864" class="fil12" d="M12.0343 22.6277c5.26426,-0.0354333 10.653,0.597265 10.6567,1.01708 0.0034016,0.161009 -5.18914,0.122174 -10.4313,0.140883 -5.24215,0.0192757 -10.4092,0.0110552 -10.4092,-0.117922 0,-0.391184 4.919,-1.00461 10.1838,-1.04004z"/>
   </g>
   <path id="_47497016" class="fil13" d="M12.0581 22.8052c4.81043,0 10.5274,0.537453 10.5274,0.872511 0,0.109135 -20.6333,0.104883 -20.6333,0.00311813 0,-0.334774 5.29573,-0.875629 10.1059,-0.875629z"/>
  </g>
  <path class="fil14" d="M2.89448 21.1047l-0.121607 0.132946m20.174 -0.0144568l-0.136348 -0.12019"/>
  <path class="fil15" d="M20.163 16.7175l0 4.9927c0,0.322585 -0.264475,0.586776 -0.58706,0.586776l-14.2677 0c-0.322585,0 -0.58706,-0.263908 -0.58706,-0.586776l0 -4.9927 15.4419 0z"/>
  <path class="fil16" d="M2.51889 4.26391l-0.00198427 -2.54752c0,-0.250585 0.0986464,-0.505138 0.262207,-0.684572 0.209482,-0.254837 0.503154,-0.540288 0.85692,-0.540288l17.7918 0.00538587c0.627595,0 1.17724,0.524697 1.1693,1.14691 -0.0119056,0.863723 0.0524414,1.71299 0.0530083,2.55517l-0.0479059 17.2008c-0.0008504,0.622493 -0.503721,1.14265 -1.11743,1.14265 -7.36305,0 -5.29034,-0.00453547 -17.8479,-0.00453547 -0.613706,0 -1.11799,-0.513925 -1.11799,-1.14265l-0.00198427 -17.0536c0,-0.0260789 0.000283467,-0.0518744 0.00198427,-0.0776699z"/>
  <path class="fil17" d="M2.96761 4.24265l-0.00198427 -2.52626 -0.00198427 0c0,-0.182269 0.0368507,-0.369074 0.104316,-0.545107l-0.0017008 -0.000566934c0.0666147,-0.174049 0.166112,-0.338176 0.290553,-0.474807l0.000283467 0.000283467c0.0541422,-0.0649139 0.113103,-0.131812 0.1766,-0.196442 0.0334491,-0.0051024 0.0677486,-0.00822054 0.102332,-0.00822054l17.7918 0.00538587c0.0768195,0 0.152222,0.00822054 0.225923,0.0229608 0.281199,0.292254 0.458366,0.684289 0.458366,1.11062l0 0.0133229 -0.00198427 0.0059528c-0.00623627,0.456382 0.0102048,0.922401 0.0260789,1.38445 0.0130395,0.384381 0.0266459,0.767628 0.0269293,1.16477l-0.0479059 17.2008c-0.000566934,0.433988 -0.169513,0.832259 -0.442492,1.12621 -0.0612288,0.0107717 -0.123875,0.0164411 -0.187938,0.0164411 -7.36305,0 -5.29034,-0.00453547 -17.8479,-0.00453547 -0.0805046,0 -0.159308,-0.00878747 -0.235277,-0.0257955 -0.26986,-0.293955 -0.435972,-0.687974 -0.435972,-1.11686l0.00198427 0 -0.00198427 -17.0536 0 -0.00198427 0.000283467 -0.038835 0 -0.0195592 0.0017008 -0.0385515zm0.994118 -2.52626l0.00198427 2.54752 0 0.0215435 -0.0017008 0.038835 -0.000283467 0 0 0.0192757 0.00198427 17.0517 0.00198427 0c0,0.179434 0.0705832,0.341577 0.18397,0.457232l0.00198427 0c0.111686,0.114237 0.265041,0.185387 0.432003,0.185387 4.30133,0 7.11615,0.0025512 10.6827,0.00481894l5.23336 -0.000283467c0.165545,0 0.31805,-0.0717171 0.429736,-0.185954 0.116505,-0.11934 0.189356,-0.282333 0.189639,-0.456665l0.0479059 -17.2008c0,-0.364822 -0.0136064,-0.748636 -0.0269293,-1.13358 -0.0161576,-0.466019 -0.0325987,-0.936291 -0.0260789,-1.42159l-0.00198427 0 0 -0.0133229c0,-0.165545 -0.0754022,-0.320884 -0.193608,-0.435688 -0.122741,-0.11934 -0.288002,-0.195876 -0.4612,-0.199561l0 0.0017008 -0.0144568 0 0 -0.00198427 -15.86 -0.00538587 0 0.00198427c-0.060095,0 -0.126426,0.0323152 -0.19134,0.0788038l0 0.00198427c-0.10545,0.0754022 -0.201261,0.178584 -0.280916,0.275813l-0.0155907 0.0195592c-0.0391184,0.0428035 -0.0720006,0.0980795 -0.0949614,0.158458l-0.00198427 0c-0.0221104,0.0575438 -0.0342995,0.123025 -0.0342995,0.190206l-0.00198427 0zm0 2.62519l0 0.00198427"/>
  <path class="fil14" d="M2.72213 2.95542c0,-0.250585 0.0986464,-0.505138 0.262207,-0.684572 0.209482,-0.25512 0.503154,-0.540288 0.85692,-0.540288l17.0826 0.00538587c0.627312,0 1.17724,0.524697 1.1693,1.14691"/>
  <path class="fil18" d="M2.38934 2.34852c0,-0.167245 0.034016,-0.339877 0.0949614,-0.498902l0.00113387 -0.0025512c0.0612288,-0.16186 0.152505,-0.310963 0.263908,-0.43257 0.117639,-0.141166 0.26249,-0.294239 0.432003,-0.415562l0.00113387 -0.0017008c0.201545,-0.144285 0.433704,-0.243781 0.696761,-0.243781l0 0.0017008 17.0817 0.00538587 0 -0.00198427 0.0138899 0 0.0025512 0.00198427c0.406491,0.004252 0.787187,0.176316 1.06328,0.442492l0.000566934 0.00113387c0.279782,0.271561 0.458933,0.648005 0.458082,1.05875l0.00141733 0 0 0.012756 -0.02126 0.0034016c0.0377011,0.128127 0.0578272,0.262774 0.0575438,0.401389l0.00141733 0 0 0.012756 -0.525547 0.0841896 0 -0.0130395 0.0017008 0c0,-0.414995 -0.597548,-0.844731 -1.00206,-0.849267l0 0.00198427 -0.0138899 0 0 -0.00198427 -17.0817 -0.0051024 0 0.00141733c-0.491531,-0.0748352 -1.2053,0.60917 -1.1041,0.995252l-0.385798 -0.1406c0,-0.12756 0.0198427,-0.257955 0.0561264,-0.383247l-0.0938275 -0.0342995z"/>
  <path class="fil19" d="M2.02083 4.24265l-0.00198427 -2.52626 -0.00198427 0c0,-0.182269 0.0368507,-0.369074 0.104316,-0.545107l-0.0017008 -0.000566934c0.0666147,-0.174049 0.166112,-0.338176 0.290553,-0.474807l0.000283467 0.000283467c0.125859,-0.151088 0.277514,-0.311247 0.45213,-0.436255l0.0008504 0.00141733c0.222238,-0.159308 0.479626,-0.26986 0.77273,-0.26986l0 0.00198427 17.7918 0.00538587 0 -0.00198427 0.0144568 0 0.0059528 0.00198427c0.441074,0.00566934 0.852101,0.190206 1.15088,0.481043 0.30416,0.295939 0.498051,0.704415 0.498051,1.15059l0 0.0133229 -0.00198427 0.0059528c-0.00623627,0.456382 0.0102048,0.922401 0.0260789,1.38445 0.0130395,0.384381 0.0266459,0.767628 0.0269293,1.16477l-0.0479059 17.2008c-0.000566934,0.448728 -0.181135,0.859471 -0.470838,1.15569 -0.292821,0.299341 -0.698179,0.486996 -1.14464,0.486996l-6.21841 -0.00368507 -11.6295 -0.0008504c-0.447027,0 -0.853802,-0.186521 -1.14691,-0.486429l0.00113387 -0.00113387c-0.29112,-0.29764 -0.472256,-0.70725 -0.472256,-1.15513l0.00198427 0 -0.00198427 -17.0536 0 -0.00198427 0.000283467 -0.038835 0 -0.0195592 0.0017008 -0.0385515zm0.994118 -2.52626l0.00198427 2.54752 0 0.0215435 -0.0017008 0.038835 -0.000283467 0 0 0.0192757 0.00198427 17.0517 0.00198427 0c0,0.179434 0.0705832,0.341577 0.18397,0.457232l0.00198427 0c0.111686,0.114237 0.265041,0.185387 0.432003,0.185387 4.30133,0 8.06293,0.0025512 11.6295,0.00481894l6.21841 -0.000283467c0.165545,0 0.31805,-0.0717171 0.429736,-0.185954 0.116505,-0.11934 0.189356,-0.282333 0.189639,-0.456665l0.0479059 -17.2008c0,-0.364822 -0.0136064,-0.748636 -0.0269293,-1.13358 -0.0161576,-0.466019 -0.0325987,-0.936291 -0.0260789,-1.42159l-0.00198427 0 0 -0.0133229c0,-0.165545 -0.0754022,-0.320884 -0.193608,-0.435688 -0.122741,-0.11934 -0.288002,-0.195876 -0.4612,-0.199561l0 0.0017008 -0.0144568 0 0 -0.00198427 -17.7918 -0.00538587 0 0.00198427c-0.060095,0 -0.126426,0.0323152 -0.19134,0.0788038l0 0.00198427c-0.10545,0.0754022 -0.201261,0.178584 -0.280916,0.275813l-0.0155907 0.0195592c-0.0391184,0.0428035 -0.0720006,0.0980795 -0.0949614,0.158458l-0.00198427 0c-0.0221104,0.0575438 -0.0342995,0.123025 -0.0342995,0.190206l-0.00198427 0zm0 2.62519l0 0.00198427"/>
  <g id="_47563472">
   <path id="_120648528" class="fil20" d="M5.80795 19.9368l13.1064 0.0405358c0.454681,0.00113387 0.680887,0.291404 0.826589,0.606619l1.27078 2.14301c0.0671816,0.11367 0.0328821,0.22649 -0.0606619,0.323719 -6.37999,-0.000566934 -5.70222,-0.0051024 -17.2546,-0.0051024 -0.0895755,-0.0963787 -0.121324,-0.207214 -0.0530083,-0.318617l1.33796 -2.18354c0.186521,-0.30416 0.371908,-0.607753 0.826589,-0.606619z"/>
   <g>
    <path id="_45625768" class="fil21" d="M5.89923 19.9597c4.31011,0.0158741 8.61966,0.0314648 12.9298,0.0476224 0.448444,0.00141733 0.670966,0.29112 0.814684,0.606619 0.413862,0.704415 0.828007,1.40855 1.24243,2.11296 0.0666147,0.113387 0.0323152,0.22649 -0.0598115,0.323719 -6.22578,-0.0008504 -5.65856,-0.0051024 -17.0128,-0.0051024 -0.0890086,-0.0963787 -0.120473,-0.207498 -0.0524414,-0.318617 0.441358,-0.720289 0.882432,-1.44058 1.32351,-2.16058 0.185954,-0.303593 0.366239,-0.607753 0.814684,-0.606619z"/>
    <path id="_94211824" class="fil22" d="M5.98994 19.9827c4.25144,0.0181419 8.5023,0.0365672 12.7537,0.0549926 0.441358,0.0017008 0.661328,0.291404 0.802495,0.606619 0.404791,0.69421 0.809298,1.38814 1.21409,2.08263 0.0660478,0.113387 0.0323152,0.226207 -0.0583942,0.323719 -6.07299,-0.0008504 -5.61491,-0.0051024 -16.7724,-0.0051024 -0.0881582,-0.0963787 -0.118773,-0.207781 -0.051024,-0.318617 0.436539,-0.712919 0.872794,-1.42499 1.30877,-2.13762 0.185671,-0.302459 0.361137,-0.607753 0.802778,-0.606619z"/>
    <path id="_99156736" class="fil23" d="M6.08065 20.006c4.19276,0.0204096 8.38466,0.0413862 12.5774,0.0620792 0.435122,0.0017008 0.651407,0.29112 0.790589,0.606619 0.395153,0.684005 0.790305,1.36801 1.18574,2.0523 0.0654808,0.113387 0.0320317,0.226207 -0.0575438,0.323719 -5.92105,-0.0008504 -5.56984,-0.00481894 -16.5315,-0.0051024 -0.0870243,-0.0966622 -0.117355,-0.207781 -0.0496067,-0.318617 0.43172,-0.704982 0.863156,-1.40968 1.29431,-2.11438 0.18482,-0.301892 0.355467,-0.607753 0.790589,-0.606619z"/>
    <path id="_91363272" class="fil24" d="M6.17107 20.0289c4.13408,0.0229608 8.26759,0.0462051 12.4014,0.0694494 0.428318,0.00226773 0.641485,0.291404 0.778683,0.606619 0.385515,0.673801 0.771313,1.34788 1.15711,2.02197 0.0646304,0.113103 0.0317483,0.226207 -0.0566934,0.323719 -5.77195,-0.0008504 -5.52278,-0.00481894 -16.2903,-0.0051024 -0.0858904,-0.0966622 -0.115938,-0.208065 -0.0481894,-0.318617 0.426618,-0.697328 0.852952,-1.39437 1.27957,-2.0917 0.184253,-0.300758 0.350365,-0.607753 0.7784,-0.606335z"/>
    <path id="_119604968" class="fil25" d="M6.26178 20.0519c4.0754,0.025512 8.14995,0.051024 12.2254,0.0768195 0.421515,0.00226773 0.631564,0.29112 0.766494,0.606335 0.37616,0.663879 0.752321,1.32776 1.12876,1.99192 0.06378,0.113103 0.0320317,0.226207 -0.0549926,0.323719 -5.62341,-0.00113387 -5.47658,-0.00481894 -16.0502,-0.0051024 -0.0847566,-0.0969456 -0.114237,-0.208065 -0.0464886,-0.318617 0.421515,-0.689391 0.84303,-1.37907 1.26483,-2.06846 0.183403,-0.300191 0.344696,-0.607753 0.766211,-0.606619z"/>
    <path id="_92413792" class="fil26" d="M6.35277 20.0751c4.01644,0.0277797 8.03232,0.055843 12.0488,0.0839062 0.414995,0.0025512 0.621926,0.29112 0.754589,0.606619 0.366806,0.653391 0.733612,1.30707 1.10042,1.96131 0.0632131,0.113103 0.0320317,0.225923 -0.0541422,0.323436 -5.47658,-0.0008504 -5.43207,-0.00453547 -15.8092,-0.00481894 -0.0836227,-0.0969456 -0.11282,-0.208348 -0.0450712,-0.318617 0.416696,-0.682021 0.833392,-1.36348 1.25009,-2.04521 0.18312,-0.299341 0.339593,-0.607753 0.754589,-0.606619z"/>
   </g>
   <path id="_46246080" class="fil27" d="M6.4432 20.0984l11.873 0.0909928c0.408476,0.00283467 0.611721,0.291404 0.7424,0.606619l1.07207 1.93098c0.0626462,0.113103 0.0317483,0.225923 -0.0524414,0.323436 -5.33201,-0.0008504 -5.38757,-0.00453547 -15.5694,-0.00481894 -0.0827723,-0.0969456 -0.111119,-0.208348 -0.0436539,-0.318617l1.23535 -2.02197c0.182553,-0.298491 0.334207,-0.607753 0.742683,-0.606619z"/>
  </g>
  <path class="fil28" d="M6.89391 20.2497l11.1465 0.0365672c0.362554,0.00113387 0.542839,0.264475 0.658777,0.550493l0.639501 1.16136c0.151371,0.274679 -0.297073,0.550209 -0.658777,0.550209l-12.5275 0c-0.361704,0 -0.825172,-0.281199 -0.658777,-0.550209l0.741549 -1.19821c0.166678,-0.26901 0.296506,-0.551343 0.658777,-0.550209z"/>
  <path class="fil29" d="M5.73879 20.9476l13.2385 0 0.285735 0.887818c0.0419531,0.129828 0.0374176,0.259939 0.0025512,0.379562l-13.8559 0c-0.0360003,-0.12104 -0.0385515,-0.251152 0.0076536,-0.379562l0.321451 -0.887818z"/>
  <path class="fil30" d="M6.89391 19.8654l11.1465 0.0365672c0.329105,0.0008504 0.577422,0.123025 0.769612,0.308979 0.156474,0.151371 0.261923,0.336475 0.341011,0.524981l0.625328 1.0219c0.0632131,0.115088 0.0926936,0.233577 0.0926936,0.352349 0,0.184253 -0.0702998,0.351499 -0.187655,0.493799l-0.0017008 0.00198427c-0.0875912,0.105733 -0.200978,0.195592 -0.325987,0.264475 -0.198143,0.109135 -0.445893,0.178017 -0.673801,0.178017l-12.5275 0c-0.248033,0 -0.527532,-0.0853235 -0.737864,-0.215718l-0.00198427 0c-0.111402,-0.0691659 -0.211183,-0.15534 -0.287719,-0.254553l-0.00198427 -0.00198427c-0.103465,-0.135497 -0.164127,-0.29112 -0.164127,-0.461767 0,-0.126426 0.0345829,-0.254553 0.111119,-0.377861l0.740132 -1.08228 -0.000566934 -0.000283467 0.0479059 -0.0790872 -0.000566934 -0.000283467c0.220254,-0.365389 0.429169,-0.711218 1.03721,-0.709234zm11.1465 1.03267l-11.1465 -0.0365672c-0.043087,0 -0.110836,0.111402 -0.181702,0.229041l-0.00198427 0.0017008 -0.0493232 0.0810715 -0.00198427 -0.111686 -0.60265 0.973708c0.0323152,0.00822054 0.0651974,0.0130395 0.0960952,0.0130395l12.5275 0c0.0342995,0 0.0711502,-0.00623627 0.10715,-0.017008l-0.525547 -0.840763 -0.0252285 -0.0527248c-0.0357168,-0.0881582 -0.076536,-0.168096 -0.121891,-0.212033 -0.0172915,-0.0167245 -0.0413862,-0.0277797 -0.0739848,-0.0277797z"/>
  <path class="fil31" d="M17.2081 6.47495l0.251152 0.270427c0.115938,0.125009 0.231025,0.249451 0.348097,0.372475l-0.0377011 -0.0748352c-0.0314648,-0.059528 -0.068032,-0.121324 -0.107717,-0.183403 -0.0283467,-0.0439374 -0.060095,-0.0895755 -0.093544,-0.136064l1.09815 0.757423c0,0 0.599532,0.233293 1.29544,0.473956l-0.000283467 0.0068032 0 0.046772 -0.00822054 0.0986464 -0.00226773 -0.000283467 -0.0017008 0.0201261c-0.00368507,0.0360003 -0.0110552,0.0867408 -0.0201261,0.145985l-0.00396854 0.0314648 -0.0172915 0.0921267 -0.00396854 0.0195592c-0.00651974,0.0320317 -0.0195592,0.0816384 -0.0345829,0.137765l0.0017008 0.000566934c-0.00737014,0.0283467 -0.0246616,0.0810715 -0.0453547,0.143718l-0.0116221 0.0354333 -0.029764 0.0793707 -0.0119056 0.0351499c-0.0232443,0.0564099 -0.0428035,0.101198 -0.0569768,0.130111 -0.0059528,0.0124725 -0.0337325,0.0609454 -0.0725675,0.12841l0 0.00396854c-0.0391184,0.0668982 -0.0620792,0.104599 -0.0737014,0.122174l-0.0116221 0.0116221c-0.0291971,0.0428035 -0.060095,0.0839062 -0.0907094,0.121891l0.000283467 0.000283467c-0.0368507,0.0456382 -0.0734179,0.0867408 -0.108284,0.122741l-0.0017008 -0.00141733 -0.00226773 0.00566934c-0.0374176,0.038835 -0.0779534,0.0756856 -0.116221,0.109135l-0.0116221 0.0116221 -0.0498902 0.0405358 -6.57501 6.6969 -0.0507406 0.046772 -0.00481894 0.004252 -0.043087 0.0391184 -0.0119056 0.0093544 -0.0739848 0.0507406 -0.00566934 0.00368507 -0.0470555 0.0311813 -0.193608 0.110836 -0.0507406 0.0235277 -0.0068032 0.0034016 -0.089859 0.043087 -0.0155907 0.0059528 -0.10545 0.0311813 -0.00651974 0.0017008 -0.0311813 0.00793707 -5.17922 1.17894 -0.0351499 0.0076536 -0.00453547 0.0008504 -0.0666147 0.0116221 -0.00708667 0.0008504 -0.0235277 0.0017008 -0.0218269 0.00453547 0 0.000566934c-0.0342995,0.00793707 -0.0683155,0.0155907 -0.146836,0.0257955l0.000283467 0.00198427c-0.113387,0.0161576 -0.221388,0.0172915 -0.336475,0.000283467l-0.0076536 -0.00396854c-0.14882,-0.0232443 -0.287152,-0.0717171 -0.423499,-0.155907l0.000566934 -0.0008504c-0.0915598,-0.0564099 -0.166395,-0.117072 -0.236128,-0.186805l-0.00198427 0.0017008 -0.000283467 -0.000283467 -0.0351499 -0.0428035 -0.017008 -0.0189923 1.03295 -0.996386 0.681738 -2.99993 0.454397 -1.89894 7.04557 -7.06314 0.400822 0.27638 -7.25675 6.97668 -0.871377 3.91127 2.15917 0.303876 2.68925 -0.873361 6.70456 -6.72156 -0.530366 -1.29119 -1.6339 -1.43604 1.00886 0.695911zm-10.2232 10.3267l-0.0008504 0.0034016 0 0.00737014 0.0008504 -0.0107717z"/>
  <path class="fil32" d="M15.7806 5.08398l0.607753 0.561548 -0.0017008 0.00198427 0.00198427 0.0017008c0.291687,0.26986 0.56013,0.548225 0.819503,0.825739l-2.67026 -1.84197 -7.04557 7.06314 -0.454397 1.89894 -0.681738 2.99993 -1.03295 0.996386 -0.0113387 -0.012756 -0.0235277 -0.0235277c-0.0368507,-0.0439374 -0.0731344,-0.094111 -0.109702,-0.153922l-0.00396854 -0.00396854c-0.0308979,-0.0513075 -0.0617958,-0.109418 -0.0901424,-0.179434 -0.0266459,-0.0649139 -0.0490398,-0.140316 -0.0660478,-0.22734l-0.00226773 0.000566934c-0.0102048,-0.051591 -0.0172915,-0.115654 -0.0209765,-0.189923 -0.0034016,-0.0640635 -0.00311813,-0.124158 0.0008504,-0.1766l0.0008504 0c0.00396854,-0.0598115 0.0104883,-0.110836 0.0181419,-0.155623l0.0025512 0.000566934c0.00566934,-0.0345829 0.012756,-0.0700163 0.0206931,-0.10545l0.00226773 -0.0184253 0.00992134 -0.04252 0.00396854 -0.0119056 0.0093544 -0.0379846 0.0008504 -0.00368507 -0.000283467 0 0.0116221 -0.0459216 0.175466 -0.712069 0.00538587 0 1.06045 -4.1783 0.0311813 -0.0938275 0.0025512 -0.00708667 0.0195592 -0.0507406 0.00623627 -0.0147403 0.0158741 -0.043087 0.00283467 -0.0059528 0.038835 -0.0702998 0.110269 -0.189923 0.0547091 -0.0819219 0.00368507 -0.0051024 0.0235277 -0.0314648 0.00907094 -0.0116221 0.0586776 -0.0702998 0.004252 -0.00453547 0.0232443 -0.0232443 6.39133 -6.32414 0.00283467 -0.00311813 -0.0017008 -0.0017008 0.000283467 -0.000283467 0.0017008 0.0017008 0.0660478 -0.0671816 -0.000283467 -0.000283467 0.0827723 -0.0870243 0.0150237 -0.0161576 0.00396854 -0.00396854c0.106584,-0.11282 0.221955,-0.235277 0.35405,-0.36142l0.000283467 0.000283467c0.149954,-0.143151 0.309262,-0.281483 0.47424,-0.396003l0.00396854 0c0.209482,-0.145418 0.43824,-0.265325 0.688824,-0.33931 0.294805,-0.0873078 0.604635,-0.109135 0.926086,-0.0391184l0.0167245 0.00708667c0.257104,0.0575438 0.512225,0.1423 0.760541,0.247467l0.00396854 0c0.258805,0.109985 0.514209,0.244348 0.758841,0.393735 1.26483,0.773014 2.64503,2.53363 2.6935,4.08022l0 0.0195592 0.000566934 0.102332 0.00396854 0.00396854 0 0.000283467 -0.00396854 0.0351499 -0.0034016 0.093544c-0.979661,-0.338743 -1.54801,-0.648289 -2.39359,-1.23138l-0.0442208 -0.0598115c-0.0603784,-0.0796542 -0.114237,-0.146552 -0.160442,-0.199277 -0.0564099,-0.0646304 -0.120757,-0.132946 -0.190773,-0.203246 -0.101765,-0.102332 -0.217419,-0.232159 -0.334207,-0.362838l-0.00396854 0c-0.19786,-0.221955 -0.406208,-0.455248 -0.60265,-0.575438 -0.147686,-0.0901424 -0.299624,-0.171497 -0.451563,-0.238963z"/>
  <path class="fil33" d="M17.7017 8.44363l-1.13387 1.12933 -0.000283467 0 -0.000283467 0.000566934 -0.000283467 0.000283467 -0.0121891 0.0124725 -0.0116221 -0.0104883 -0.00113387 -0.00113387 -3.06654 -2.96875 -0.0147403 -0.0130395 0.0133229 -0.0133229 1.18489 -1.15059 0.000283467 0 0.0119056 -0.0116221 0.0121891 0.0110552 0.000566934 0.00113387 1.0287 0.950464 0 0c0.172348,0.159025 2.00751,2.04493 1.98909,2.06364zm-8.12274 6.92453l-1.85047 -1.83686 -0.000283467 0 -0.00878747 -0.00822054 0.0025512 -0.0107717 0.411877 -1.61548 0.0175749 -0.0306144 4.66246 -4.63326 0.012756 -0.0121891 0.0130395 0.0119056 3.07873 2.97668 0.0136064 0.0124725 -0.0133229 0.0136064 -4.58054 4.69223 -0.0308979 0.0178584 -1.71101 0.427751 -0.00907094 0.00226773 -0.00822054 -0.00737014zm5.1041 -11.1978c-0.251152,0.174049 -0.477925,0.414145 -0.672383,0.620225l-0.0153072 0.0161576c-0.0620792,0.0657643 -0.121324,0.128127 -0.173765,0.180285l-0.000283467 0.000283467 -6.39614 6.32868 -0.004252 0.00481894 -0.00878747 0.0116221 -0.00368507 0.00538587 -0.110552 0.189639 -0.00283467 0.0059528 -0.0059528 0.0147403 -0.0025512 0.00737014 -1.25349 4.93601 -0.000566934 0 -0.00878747 0.0379846 -0.0102048 0.04252 0 0.000283467c-0.0116221,0.0490398 -0.0187088,0.0907094 -0.02126,0.126426 -0.00283467,0.0365672 -0.00113387,0.068599 0.00453547,0.0969456l0.000283467 0.0017008c0.0068032,0.0328821 0.0181419,0.060095 0.0331656,0.0841896 0.0141733,0.0229608 0.0317483,0.0433704 0.0521579,0.0646304l0.000283467 0.000283467c0.038835,0.0402523 0.0697328,0.0589611 0.1063,0.064347 0.0337325,0.0051024 0.0657643,-0.0017008 0.111969,-0.0124725l0.000566934 0 0.00141733 -0.000566934c0.0342995,-0.00793707 0.0830558,-0.0189923 0.151088,-0.0252285l0.0017008 -0.000283467 0.00708667 -0.0008504 0.00453547 -0.0008504 5.17922 -1.17894 0.0068032 -0.0017008 0.0153072 -0.0059528 0.0068032 -0.0034016 0.193608 -0.110552 0.00566934 -0.00396854 0.0119056 -0.0093544 0.00481894 -0.004252 6.60506 -6.72752 0.0017008 -0.00198427 0.00311813 -0.00311813 0.000566934 -0.00113387 0.0181419 -0.0215435 0.00878747 -0.00538587 0 0 0.00141733 -0.000566934 0.00198427 -0.00141733c0.0331656,-0.0221104 0.0702998,-0.0527248 0.108001,-0.0915598l0.000283467 -0.000283467c0.0320317,-0.0331656 0.0651974,-0.0734179 0.0969456,-0.119906l0 0c1.08539,-1.59762 -2.20367,-5.79179 -4.05443,-4.50769z"/>
  <path class="fil34" d="M9.55453 15.3438l5.58798 -5.88477 0.775849 0.750337 0.0136064 0.0124725 -0.0133229 0.0136064 -4.58054 4.69223 -0.0308979 0.0178584 -1.71101 0.427751 -0.00907094 0.00226773 -0.00822054 -0.00737014 -0.0243781 -0.0243781zm6.20112 -6.53051l1.11374 -1.17299 0.772164 0.73021c0.0405358,0.0447878 0.0620792,0.0711502 0.060095,0.0731344l-1.13387 1.12933 -0.000283467 0 -0.000283467 0.000566934 -0.000283467 0.000283467 -0.0121891 0.0124725 -0.0116221 -0.0104883 -0.00113387 -0.00113387 -0.786337 -0.761392z"/>
 </g>
</svg>
