<?xml version="1.0" encoding="UTF-8"?>
<!DOCTYPE svg PUBLIC "-//W3C//DTD SVG 1.1//EN" "http://www.w3.org/Graphics/SVG/1.1/DTD/svg11.dtd">
<!-- Creator: CorelDRAW -->
<svg xmlns="http://www.w3.org/2000/svg" xml:space="preserve" width="24px" height="24px" style="shape-rendering:geometricPrecision; text-rendering:geometricPrecision; image-rendering:optimizeQuality; fill-rule:evenodd; clip-rule:evenodd"
viewBox="0 0 24 24"
 xmlns:xlink="http://www.w3.org/1999/xlink">
 <defs>
  <style type="text/css">
   <![CDATA[
    .fil14 {fill:none}
    .fil15 {fill:#8C8C8C}
    .fil29 {fill:white;fill-rule:nonzero}
    .fil19 {fill:#9756AD;fill-rule:nonzero}
    .fil18 {fill:#FFD6F9;fill-rule:nonzero}
    .fil0 {fill:black;fill-opacity:0.000000}
    .fil20 {fill:#713E82;fill-opacity:0.000000}
    .fil1 {fill:black;fill-opacity:0.003922}
    .fil2 {fill:black;fill-opacity:0.007843}
    .fil3 {fill:black;fill-opacity:0.015686}
    .fil4 {fill:black;fill-opacity:0.019608}
    .fil5 {fill:black;fill-opacity:0.023529}
    .fil6 {fill:black;fill-opacity:0.027451}
    .fil21 {fill:#713E82;fill-opacity:0.031373}
    .fil7 {fill:black;fill-opacity:0.031373}
    .fil8 {fill:black;fill-opacity:0.035294}
    .fil9 {fill:black;fill-opacity:0.043137}
    .fil10 {fill:black;fill-opacity:0.047059}
    .fil11 {fill:black;fill-opacity:0.050980}
    .fil12 {fill:black;fill-opacity:0.054902}
    .fil13 {fill:black;fill-opacity:0.058824}
    .fil22 {fill:#713E82;fill-opacity:0.062745}
    .fil23 {fill:#713E82;fill-opacity:0.094118}
    .fil24 {fill:#713E82;fill-opacity:0.125490}
    .fil25 {fill:#713E82;fill-opacity:0.156863}
    .fil26 {fill:#713E82;fill-opacity:0.188235}
    .fil27 {fill:#713E82;fill-opacity:0.219608}
    .fil31 {fill:#9756AD;fill-rule:nonzero;fill-opacity:0.501961}
    .fil32 {fill:#E69CFF;fill-rule:nonzero;fill-opacity:0.580392}
    .fil16 {fill:url(#id0)}
    .fil28 {fill:url(#id1)}
    .fil34 {fill:url(#id2);fill-rule:nonzero}
    .fil30 {fill:url(#id3);fill-rule:nonzero}
    .fil17 {fill:url(#id4);fill-rule:nonzero;fill-opacity:0.501961}
    .fil33 {fill:url(#id5);fill-rule:nonzero;fill-opacity:0.780392}
   ]]>
  </style>
  <linearGradient id="id0" gradientUnits="userSpaceOnUse" x1="12.5023" y1="1.15314" x2="12.5023" y2="21.8811">
   <stop offset="0" style="stop-color:#D67FF2"/>
   <stop offset="1" style="stop-color:#C57CE7"/>
  </linearGradient>
  <linearGradient id="id1" gradientUnits="userSpaceOnUse" x1="12.447" y1="21.0341" x2="12.3702" y2="21.7629">
   <stop offset="0" style="stop-color:#C4C4C4"/>
   <stop offset="1" style="stop-color:#D4D4D4"/>
  </linearGradient>
  <linearGradient id="id2" gradientUnits="userSpaceOnUse" x1="13.175" y1="18.0191" x2="12.8002" y2="3.93395">
   <stop offset="0" style="stop-color:#F3F3F3"/>
   <stop offset="1" style="stop-color:white"/>
  </linearGradient>
  <linearGradient id="id3" gradientUnits="userSpaceOnUse" x1="12.438" y1="23.094" x2="12.3898" y2="19.8937">
   <stop offset="0" style="stop-color:#7F7F7F"/>
   <stop offset="1" style="stop-color:#8F8F8F"/>
  </linearGradient>
  <linearGradient id="id4" gradientUnits="userSpaceOnUse" x1="6.7312" y1="4.06435" x2="6.4398" y2="21.895">
   <stop offset="0" style="stop-color:#FFD6F9"/>
   <stop offset="1" style="stop-color:#B575DD"/>
  </linearGradient>
  <linearGradient id="id5" gradientUnits="userSpaceOnUse" x1="13.3856" y1="4.15931" x2="13.6373" y2="16.5366">
   <stop offset="0" style="stop-color:#A95FC2"/>
   <stop offset="1" style="stop-color:#B476DE"/>
  </linearGradient>
 </defs>
 <g id="Слой_x0020_1">
  <metadata id="CorelCorpID_0Corel-Layer"/>
  <g id="_92471512">
   <path id="_95130272" class="fil0" d="M11.744 20.5017c6.84714,-0.293955 9.90972,0.324286 11.2409,1.18404l0 2.28191c-0.0617958,0.012756 -0.126143,0.0243781 -0.193324,0.0354333l-21.0188 0 0 -2.05117c1.30196,-0.633548 4.07484,-1.19736 9.97123,-1.45022z"/>
   <g>
    <path id="_93852688" class="fil1" d="M11.7684 20.6786c6.85451,-0.283467 9.9219,0.371058 11.2165,1.24073l0 2.00808c-0.136064,0.0294805 -0.286585,0.0544256 -0.451279,0.0756856l-20.7608 0 0 -1.85274c1.26369,-0.642619 4.02268,-1.22486 9.99561,-1.47176z"/>
    <path id="_94278856" class="fil2" d="M11.7925 20.8558c6.84232,-0.271561 9.93438,0.417263 11.1924,1.28949l0 1.74219c-0.217136,0.0501736 -0.476791,0.0875912 -0.774998,0.115654l-20.4371 0 0 -1.66083c1.23025,-0.648005 3.98781,-1.24725 10.0197,-1.4865z"/>
    <path id="_93441640" class="fil3" d="M11.8169 21.033c6.80887,-0.257388 9.94912,0.4612 11.168,1.32804l0 1.48707c-0.311247,0.076536 -0.724825,0.125292 -1.22486,0.155056l-5.96074 0c-0.557296,-0.00368507 -1.12962,-0.00453547 -1.71271,0l-12.2628 0 -0.051024 -0.0093544 0 -1.46864c1.20133,-0.648572 3.97591,-1.26256 10.0441,-1.49217z"/>
    <path id="_97468352" class="fil4" d="M11.841 21.2101c6.75303,-0.241514 9.97038,0.50287 11.1439,1.35611l0 1.243c-0.450712,0.119056 -1.16165,0.172915 -2.06279,0.193891l-2.69407 0c-1.70874,-0.0192757 -3.69414,-0.0513075 -5.74389,0l-10.3601 0c-0.127277,-0.0167245 -0.244632,-0.0348664 -0.351215,-0.0549926l0 -1.25094c1.17497,-0.64347 3.99065,-1.26965 10.0682,-1.48707z"/>
    <path id="_92875992" class="fil5" d="M11.8651 21.387c6.67593,-0.223655 10.0038,0.540855 11.1198,1.37198l0 1.01169c-1.40628,0.402806 -5.96357,0.0858904 -10.7919,0.212317l-0.772164 0.0201261 -8.88753 0c-0.29764,-0.0266459 -0.552477,-0.0598115 -0.760541,-0.0997803l0 -1.04599c1.14889,-0.632414 4.03543,-1.26738 10.0923,-1.47034z"/>
    <path id="_94121472" class="fil6" d="M11.8889 21.5645c6.58097,-0.203813 10.0594,0.576288 11.096,1.37708l0 0.790872c-1.26313,0.401672 -5.89753,0.109135 -10.7828,0.222521 -0.732478,0.017008 -1.45589,0.0334491 -2.16143,0.0481894l-6.87379 0c-0.589327,-0.0308979 -1.06328,-0.077103 -1.39409,-0.142017l0 -0.855786c1.11743,-0.61569 4.1114,-1.25462 10.1161,-1.44086z"/>
    <path id="_94916536" class="fil7" d="M11.9138 21.7419c6.47098,-0.182553 10.1475,0.608887 11.0711,1.37085l0 0.582524c-1.08653,0.397704 -5.81617,0.131245 -10.7726,0.231592 -1.59223,0.0323152 -3.14903,0.0617958 -4.56382,0.0762526l-3.01183 0c-1.31529,-0.0198427 -2.32613,-0.0739848 -2.86387,-0.182553l0 -0.679753c1.07406,-0.592729 4.21714,-1.23223 10.141,-1.39891z"/>
    <path id="_91980544" class="fil8" d="M11.9376 21.9194c6.37262,-0.159308 10.3091,0.644887 11.0473,1.36121l0 0.375027c-0.837644,0.395153 -5.69853,0.156757 -10.7632,0.243215 -4.74835,0.081355 -9.22231,0.140033 -10.4489,-0.116788l0 -0.517894c1.00971,-0.563815 4.35008,-1.19991 10.1648,-1.34477z"/>
    <path id="_91363272" class="fil9" d="M11.9617 22.0962c6.37205,-0.136348 10.6867,0.706683 11.0232,1.3717l0 0.130962c-0.366239,0.411877 -5.46836,0.198143 -10.7539,0.271561 -4.8161,0.0668982 -9.40033,0.110552 -10.4582,-0.124442l0 -0.369641c0.909078,-0.529799 4.50514,-1.15881 10.1889,-1.28014z"/>
    <path id="_94024224" class="fil10" d="M11.9858 22.2734c6.17334,-0.1063 10.905,0.716604 10.9157,1.3065 0.0104883,0.374176 -5.25122,0.20523 -10.6609,0.262207 -4.91645,0.0521579 -9.64609,0.0802211 -10.4679,-0.129261l0 -0.230175c0.737014,-0.490964 4.66331,-1.11402 10.213,-1.20927z"/>
    <path id="_94993224" class="fil11" d="M12.0102 22.4506c5.71894,-0.0708667 10.7788,0.656793 10.7859,1.16193 0.00708667,0.267309 -5.22004,0.16356 -10.5458,0.201545 -5.11828,0.0368507 -10.0962,0.047339 -10.4775,-0.135781l0 -0.0805046c0.358302,-0.44646 4.75714,-1.07944 10.2374,-1.14719z"/>
    <path id="_47665992" class="fil12" d="M12.0343 22.6277c5.26426,-0.0354333 10.653,0.597265 10.6567,1.01708 0.0034016,0.161009 -5.18914,0.122174 -10.4313,0.140883 -5.24215,0.0192757 -10.4092,0.0110552 -10.4092,-0.117922 0,-0.391184 4.919,-1.00461 10.1838,-1.04004z"/>
   </g>
   <path id="_95546920" class="fil13" d="M12.0581 22.8052c4.81043,0 10.5274,0.537453 10.5274,0.872511 0,0.109135 -20.6333,0.104883 -20.6333,0.00311813 0,-0.334774 5.29573,-0.875629 10.1059,-0.875629z"/>
  </g>
  <path class="fil14" d="M2.89448 21.1047l-0.121607 0.132946m20.174 -0.0144568l-0.136348 -0.12019"/>
  <path class="fil15" d="M20.163 16.7175l0 4.9927c0,0.322585 -0.264475,0.586776 -0.58706,0.586776l-14.2677 0c-0.322585,0 -0.58706,-0.263908 -0.58706,-0.586776l0 -4.9927 15.4419 0z"/>
  <path class="fil16" d="M2.51889 4.26391l-0.00198427 -2.54752c0,-0.250585 0.0986464,-0.505138 0.262207,-0.684572 0.209482,-0.254837 0.503154,-0.540288 0.85692,-0.540288l17.6591 0.00538587c0.627595,0 1.17724,0.524697 1.1693,1.14691 -0.0909928,6.57558 0.0232443,13.1767 0.0051024,19.7559 -0.0008504,0.622493 -0.503721,1.14265 -1.11743,1.14265 -7.36305,0 -5.15768,-0.00453547 -17.7153,-0.00453547 -0.613706,0 -1.11799,-0.513925 -1.11799,-1.14265l-0.00198427 -17.0536c0,-0.0260789 0.000283467,-0.0518744 0.00198427,-0.0776699z"/>
  <path class="fil17" d="M2.96761 4.24265l-0.00198427 -2.52626 -0.00198427 0c0,-0.182269 0.0368507,-0.369074 0.104316,-0.545107l-0.0017008 -0.000566934c0.0666147,-0.174049 0.166112,-0.338176 0.290553,-0.474807l0.000283467 0.000283467c0.0541422,-0.0649139 0.113103,-0.131812 0.1766,-0.196442 0.0334491,-0.0051024 0.0677486,-0.00822054 0.102332,-0.00822054l17.6591 0.00538587c0.0768195,0 0.152222,0.00822054 0.225923,0.0229608 0.281199,0.292254 0.458366,0.684289 0.458366,1.11062l0 0.0133229 -0.00198427 0.0059528c-0.0895755,6.57416 0.0232443,13.1724 0.0051024,19.75 -0.000566934,0.433988 -0.169513,0.832259 -0.442492,1.12621 -0.0612288,0.0107717 -0.123875,0.0164411 -0.187938,0.0164411 -7.36305,0 -5.15768,-0.00453547 -17.7153,-0.00453547 -0.0805046,0 -0.159308,-0.00878747 -0.235277,-0.0257955 -0.26986,-0.293955 -0.435972,-0.687974 -0.435972,-1.11686l0.00198427 0 -0.00198427 -17.0536 0 -0.00198427 0.000283467 -0.038835 0 -0.0195592 0.0017008 -0.0385515zm0.994118 -2.52626l0.00198427 2.54752 0 0.0215435 -0.0017008 0.038835 -0.000283467 0 0 0.0192757 0.00198427 17.0517 0.00198427 0c0,0.179434 0.0705832,0.341577 0.18397,0.457232l0.00198427 0c0.111686,0.114237 0.265041,0.185387 0.432003,0.185387 4.30133,0 7.11615,0.0025512 10.6827,0.00481894l5.1007 -0.000283467c0.165545,0 0.31805,-0.0717171 0.429736,-0.185954 0.116505,-0.11934 0.189356,-0.282333 0.189639,-0.456665 0.0181419,-6.57983 -0.0932606,-13.1795 -0.0051024,-19.7559l-0.00198427 0 0 -0.0133229c0,-0.165545 -0.0754022,-0.320884 -0.193608,-0.435688 -0.122741,-0.11934 -0.288002,-0.195876 -0.4612,-0.199561l0 0.0017008 -0.0144568 0 0 -0.00198427 -15.7273 -0.00538587 0 0.00198427c-0.060095,0 -0.126426,0.0323152 -0.19134,0.0788038l0 0.00198427c-0.10545,0.0754022 -0.201261,0.178584 -0.280916,0.275813l-0.0155907 0.0195592c-0.0391184,0.0428035 -0.0720006,0.0980795 -0.0949614,0.158458l-0.00198427 0c-0.0221104,0.0575438 -0.0342995,0.123025 -0.0342995,0.190206l-0.00198427 0zm0 2.62519l0 0.00198427"/>
  <path class="fil14" d="M2.72213 2.95542c0,-0.250585 0.0986464,-0.505138 0.262207,-0.684572 0.209482,-0.25512 0.503154,-0.540288 0.85692,-0.540288l17.0826 0.00538587c0.627312,0 1.17724,0.524697 1.1693,1.14691"/>
  <path class="fil18" d="M2.38934 2.34852c0,-0.167245 0.034016,-0.339877 0.0949614,-0.498902l0.00113387 -0.0025512c0.0612288,-0.16186 0.152505,-0.310963 0.263908,-0.43257 0.117639,-0.141166 0.26249,-0.294239 0.432003,-0.415562l0.00113387 -0.0017008c0.201545,-0.144285 0.433704,-0.243781 0.696761,-0.243781l0 0.0017008 17.0817 0.00538587 0 -0.00198427 0.0138899 0 0.0025512 0.00198427c0.406491,0.004252 0.787187,0.176316 1.06328,0.442492l0.000566934 0.00113387c0.279782,0.271561 0.458933,0.648005 0.458082,1.05875l0.00141733 0 0 0.012756 -0.02126 0.0034016c0.0377011,0.128127 0.0578272,0.262774 0.0575438,0.401389l0.00141733 0 0 0.012756 -0.525547 0.0841896 0 -0.0130395 0.0017008 0c0,-0.414995 -0.597548,-0.844731 -1.00206,-0.849267l0 0.00198427 -0.0138899 0 0 -0.00198427 -17.0817 -0.0051024 0 0.00141733c-0.491531,-0.0748352 -1.2053,0.60917 -1.1041,0.995252l-0.385798 -0.1406c0,-0.12756 0.0198427,-0.257955 0.0561264,-0.383247l-0.0938275 -0.0342995z"/>
  <path class="fil19" d="M2.02083 4.24265l-0.00198427 -2.52626 -0.00198427 0c0,-0.182269 0.0368507,-0.369074 0.104316,-0.545107l-0.0017008 -0.000566934c0.0666147,-0.174049 0.166112,-0.338176 0.290553,-0.474807l0.000283467 0.000283467c0.125859,-0.151088 0.277514,-0.311247 0.45213,-0.436255l0.0008504 0.00141733c0.222238,-0.159308 0.479626,-0.26986 0.77273,-0.26986l0 0.00198427 17.6591 0.00538587 0 -0.00198427 0.0144568 0 0.0059528 0.00198427c0.441074,0.00566934 0.852101,0.190206 1.15088,0.481043 0.30416,0.295939 0.498051,0.704415 0.498051,1.15059l0 0.0133229 -0.00198427 0.0059528c-0.0895755,6.57416 0.0232443,13.1724 0.0051024,19.75 -0.000566934,0.448728 -0.181135,0.859471 -0.470838,1.15569 -0.292821,0.299341 -0.698179,0.486996 -1.14464,0.486996l-6.08575 -0.00368507 -11.6295 -0.0008504c-0.447027,0 -0.853802,-0.186521 -1.14691,-0.486429l0.00113387 -0.00113387c-0.29112,-0.29764 -0.472256,-0.70725 -0.472256,-1.15513l0.00198427 0 -0.00198427 -17.0536 0 -0.00198427 0.000283467 -0.038835 0 -0.0195592 0.0017008 -0.0385515zm0.994118 -2.52626l0.00198427 2.54752 0 0.0215435 -0.0017008 0.038835 -0.000283467 0 0 0.0192757 0.00198427 17.0517 0.00198427 0c0,0.179434 0.0705832,0.341577 0.18397,0.457232l0.00198427 0c0.111686,0.114237 0.265041,0.185387 0.432003,0.185387 4.30133,0 8.06293,0.0025512 11.6295,0.00481894l6.08575 -0.000283467c0.165545,0 0.31805,-0.0717171 0.429736,-0.185954 0.116505,-0.11934 0.189356,-0.282333 0.189639,-0.456665 0.0181419,-6.57983 -0.0932606,-13.1795 -0.0051024,-19.7559l-0.00198427 0 0 -0.0133229c0,-0.165545 -0.0754022,-0.320884 -0.193608,-0.435688 -0.122741,-0.11934 -0.288002,-0.195876 -0.4612,-0.199561l0 0.0017008 -0.0144568 0 0 -0.00198427 -17.6591 -0.00538587 0 0.00198427c-0.060095,0 -0.126426,0.0323152 -0.19134,0.0788038l0 0.00198427c-0.10545,0.0754022 -0.201261,0.178584 -0.280916,0.275813l-0.0155907 0.0195592c-0.0391184,0.0428035 -0.0720006,0.0980795 -0.0949614,0.158458l-0.00198427 0c-0.0221104,0.0575438 -0.0342995,0.123025 -0.0342995,0.190206l-0.00198427 0zm0 2.62519l0 0.00198427"/>
  <g id="_47139592">
   <path id="_96039504" class="fil20" d="M5.80795 19.9368l13.1064 0.0405358c0.454681,0.00113387 0.680887,0.291404 0.826589,0.606619l1.27078 2.14301c0.0671816,0.11367 0.0328821,0.22649 -0.0606619,0.323719 -6.37999,-0.000566934 -5.70222,-0.0051024 -17.2546,-0.0051024 -0.0895755,-0.0963787 -0.121324,-0.207214 -0.0530083,-0.318617l1.33796 -2.18354c0.186521,-0.30416 0.371908,-0.607753 0.826589,-0.606619z"/>
   <g>
    <path id="_47097992" class="fil21" d="M5.89923 19.9597c4.31011,0.0158741 8.61966,0.0314648 12.9298,0.0476224 0.448444,0.00141733 0.670966,0.29112 0.814684,0.606619 0.413862,0.704415 0.828007,1.40855 1.24243,2.11296 0.0666147,0.113387 0.0323152,0.22649 -0.0598115,0.323719 -6.22578,-0.0008504 -5.65856,-0.0051024 -17.0128,-0.0051024 -0.0890086,-0.0963787 -0.120473,-0.207498 -0.0524414,-0.318617 0.441358,-0.720289 0.882432,-1.44058 1.32351,-2.16058 0.185954,-0.303593 0.366239,-0.607753 0.814684,-0.606619z"/>
    <path id="_47742808" class="fil22" d="M5.98994 19.9827c4.25144,0.0181419 8.5023,0.0365672 12.7537,0.0549926 0.441358,0.0017008 0.661328,0.291404 0.802495,0.606619 0.404791,0.69421 0.809298,1.38814 1.21409,2.08263 0.0660478,0.113387 0.0323152,0.226207 -0.0583942,0.323719 -6.07299,-0.0008504 -5.61491,-0.0051024 -16.7724,-0.0051024 -0.0881582,-0.0963787 -0.118773,-0.207781 -0.051024,-0.318617 0.436539,-0.712919 0.872794,-1.42499 1.30877,-2.13762 0.185671,-0.302459 0.361137,-0.607753 0.802778,-0.606619z"/>
    <path id="_47698368" class="fil23" d="M6.08065 20.006c4.19276,0.0204096 8.38466,0.0413862 12.5774,0.0620792 0.435122,0.0017008 0.651407,0.29112 0.790589,0.606619 0.395153,0.684005 0.790305,1.36801 1.18574,2.0523 0.0654808,0.113387 0.0320317,0.226207 -0.0575438,0.323719 -5.92105,-0.0008504 -5.56984,-0.00481894 -16.5315,-0.0051024 -0.0870243,-0.0966622 -0.117355,-0.207781 -0.0496067,-0.318617 0.43172,-0.704982 0.863156,-1.40968 1.29431,-2.11438 0.18482,-0.301892 0.355467,-0.607753 0.790589,-0.606619z"/>
    <path id="_47487144" class="fil24" d="M6.17107 20.0289c4.13408,0.0229608 8.26759,0.0462051 12.4014,0.0694494 0.428318,0.00226773 0.641485,0.291404 0.778683,0.606619 0.385515,0.673801 0.771313,1.34788 1.15711,2.02197 0.0646304,0.113103 0.0317483,0.226207 -0.0566934,0.323719 -5.77195,-0.0008504 -5.52278,-0.00481894 -16.2903,-0.0051024 -0.0858904,-0.0966622 -0.115938,-0.208065 -0.0481894,-0.318617 0.426618,-0.697328 0.852952,-1.39437 1.27957,-2.0917 0.184253,-0.300758 0.350365,-0.607753 0.7784,-0.606335z"/>
    <path id="_92306328" class="fil25" d="M6.26178 20.0519c4.0754,0.025512 8.14995,0.051024 12.2254,0.0768195 0.421515,0.00226773 0.631564,0.29112 0.766494,0.606335 0.37616,0.663879 0.752321,1.32776 1.12876,1.99192 0.06378,0.113103 0.0320317,0.226207 -0.0549926,0.323719 -5.62341,-0.00113387 -5.47658,-0.00481894 -16.0502,-0.0051024 -0.0847566,-0.0969456 -0.114237,-0.208065 -0.0464886,-0.318617 0.421515,-0.689391 0.84303,-1.37907 1.26483,-2.06846 0.183403,-0.300191 0.344696,-0.607753 0.766211,-0.606619z"/>
    <path id="_46312680" class="fil26" d="M6.35277 20.0751c4.01644,0.0277797 8.03232,0.055843 12.0488,0.0839062 0.414995,0.0025512 0.621926,0.29112 0.754589,0.606619 0.366806,0.653391 0.733612,1.30707 1.10042,1.96131 0.0632131,0.113103 0.0320317,0.225923 -0.0541422,0.323436 -5.47658,-0.0008504 -5.43207,-0.00453547 -15.8092,-0.00481894 -0.0836227,-0.0969456 -0.11282,-0.208348 -0.0450712,-0.318617 0.416696,-0.682021 0.833392,-1.36348 1.25009,-2.04521 0.18312,-0.299341 0.339593,-0.607753 0.754589,-0.606619z"/>
   </g>
   <path id="_92612872" class="fil27" d="M6.4432 20.0984l11.873 0.0909928c0.408476,0.00283467 0.611721,0.291404 0.7424,0.606619l1.07207 1.93098c0.0626462,0.113103 0.0317483,0.225923 -0.0524414,0.323436 -5.33201,-0.0008504 -5.38757,-0.00453547 -15.5694,-0.00481894 -0.0827723,-0.0969456 -0.111119,-0.208348 -0.0436539,-0.318617l1.23535 -2.02197c0.182553,-0.298491 0.334207,-0.607753 0.742683,-0.606619z"/>
  </g>
  <path class="fil28" d="M6.89391 20.2497l11.1465 0.0365672c0.362554,0.00113387 0.542839,0.264475 0.658777,0.550493l0.639501 1.16136c0.151371,0.274679 -0.297073,0.550209 -0.658777,0.550209l-12.5275 0c-0.361704,0 -0.825172,-0.281199 -0.658777,-0.550209l0.741549 -1.19821c0.166678,-0.26901 0.296506,-0.551343 0.658777,-0.550209z"/>
  <path class="fil29" d="M5.73879 20.9476l13.2385 0 0.285735 0.887818c0.0419531,0.129828 0.0374176,0.259939 0.0025512,0.379562l-13.8559 0c-0.0360003,-0.12104 -0.0385515,-0.251152 0.0076536,-0.379562l0.321451 -0.887818z"/>
  <path class="fil30" d="M6.89391 19.9413l11.1465 0.0365672c0.329105,0.0008504 0.577422,0.123025 0.769612,0.308979 0.156474,0.151371 0.261923,0.336475 0.341011,0.524981l0.625328 0.945929c0.0632131,0.115088 0.0926936,0.233577 0.0926936,0.352349 0,0.184253 -0.0702998,0.351499 -0.187655,0.493799l-0.0017008 0.00198427c-0.0875912,0.105733 -0.200978,0.195592 -0.325987,0.264475 -0.198143,0.109135 -0.445893,0.178017 -0.673801,0.178017l-12.5275 0c-0.248033,0 -0.527532,-0.0853235 -0.737864,-0.215718l-0.00198427 0c-0.111402,-0.0691659 -0.211183,-0.15534 -0.287719,-0.254553l-0.00198427 -0.00198427c-0.103465,-0.135497 -0.164127,-0.29112 -0.164127,-0.461767 0,-0.126426 0.0345829,-0.254553 0.111119,-0.377861l0.740132 -1.00631 -0.000566934 -0.000283467 0.0479059 -0.0790872 -0.000566934 -0.000283467c0.220254,-0.365389 0.429169,-0.711218 1.03721,-0.709234zm11.1465 1.03267l-11.1465 -0.0365672c-0.043087,0 -0.110836,0.111402 -0.181702,0.229041l-0.00198427 0.0017008 -0.0493232 0.0810715 -0.00198427 -0.111686 -0.60265 0.897739c0.0323152,0.00822054 0.0651974,0.0130395 0.0960952,0.0130395l12.5275 0c0.0342995,0 0.0711502,-0.00623627 0.10715,-0.017008l-0.525547 -0.764793 -0.0252285 -0.0527248c-0.0357168,-0.0881582 -0.076536,-0.168096 -0.121891,-0.212033 -0.0172915,-0.0167245 -0.0413862,-0.0277797 -0.0739848,-0.0277797z"/>
  <path class="fil31" d="M12.9723 15.9872l-0.00651974 0.99922 0 0.0161576 0.0586776 0 -0.00651974 -1.01538 5.06243 0 -0.0068032 0.0025512 0.303593 -0.0025512 0.21997 0c0.414145,0.0357168 0.749486,0.26901 0.979945,0.583658 0.207214,0.283467 0.338743,0.673517 0.338743,0.998087l0 0.0133229 -1.70364 0 -12.1114 0 0 -0.0133229c0,-0.324569 0.131529,-0.71462 0.338743,-0.998087 0.230459,-0.314648 0.5658,-0.547941 0.979945,-0.583658l5.55283 0z"/>
  <path class="fil32" d="M19.9158 17.5823c-0.00368507,0.388066 -0.162143,0.740982 -0.414995,0.996669 -0.153922,0.155623 -0.343278,0.276097 -0.555028,0.348097l-0.733612 -1.34477 1.70364 0zm-1.70364 0l-10.4545 0.189923 -1.02558 0.986181c-0.0776699,-0.0527248 -0.150521,-0.11282 -0.216285,-0.179434 -0.252852,-0.255687 -0.41131,-0.608603 -0.414995,-0.996669l12.1114 0zm0.733612 1.34477c-0.144001,0.0490398 -0.298774,0.0756856 -0.4595,0.0756856l-10.956 0c-0.295939,0 -0.570335,-0.0901424 -0.798243,-0.244348l1.02558 -0.986181 10.4545 -0.189923 0.733612 1.34477z"/>
  <path class="fil33" d="M17.9709 13.8323l0.0337325 -0.0277797 0 -8.28545 -0.117072 -0.0391184 0 -0.00396854c-0.140316,-0.0445043 -0.315782,-0.0907094 -0.521295,-0.136914 -0.201545,-0.0453547 -0.427751,-0.0890086 -0.674084,-0.128977 -0.237829,-0.0391184 -0.510807,-0.0756856 -0.809865,-0.108568 -0.294522,-0.0323152 -0.610304,-0.0609454 -0.938559,-0.0833392 -0.360003,-0.0249451 -0.656226,-0.0439374 -0.906243,-0.0538587 -0.236695,-0.00963787 -0.528666,-0.0147403 -0.927503,-0.0147403 -0.418114,0 -0.766211,0.00566934 -1.04713,0.0155907 -0.31068,0.0110552 -0.65084,0.0308979 -1.01254,0.0581107l-0.00396854 0c-0.319751,0.0232443 -0.635533,0.0538587 -0.94111,0.089859l-0.00368507 0c-0.299341,0.0351499 -0.584792,0.0762526 -0.851534,0.121607 -0.243498,0.0413862 -0.470271,0.0870243 -0.674934,0.134647 -0.203246,0.0476224 -0.371908,0.0938275 -0.499469,0.136348l-0.0076536 0.00396854 -0.0419531 0.0136064 0.0144568 6.71816 -0.851251 1.65715 -1.00064 0.877897c-0.202679,-0.377011 -0.175749,-0.733896 -0.14882,-1.08143 0.0034016,-0.0479059 0.00737014,-0.0960952 0.00737014,-0.143718l0.00396854 0 -0.0184253 -8.49068 0.0116221 -0.160159c0.146269,-0.880731 0.89122,-1.12225 1.35072,-1.27135l0.0555595 -0.0181419 0.000283467 0.00113387c0.211183,-0.0702998 0.436822,-0.133229 0.671249,-0.188505 0.239529,-0.055843 0.505421,-0.109135 0.791723,-0.157891 0.295656,-0.0504571 0.616824,-0.0966622 0.957267,-0.136348l0 -0.000566934c0.320317,-0.0379846 0.66558,-0.0708667 1.03069,-0.0975126l0 -0.000283467c0.314365,-0.0235277 0.67947,-0.0433704 1.09078,-0.0581107 0.42435,-0.0153072 0.800794,-0.0235277 1.11743,-0.0235277 0.319751,0 0.641485,0.0076536 1.00574,0.0226773 0.351499,0.0141733 0.646871,0.0320317 0.960669,0.0538587 0.353767,0.0243781 0.698462,0.055276 1.02473,0.0912763 0.316065,0.0348664 0.62221,0.076536 0.911346,0.123875 0.280632,0.0456382 0.546241,0.0969456 0.791439,0.152222 0.24123,0.0544256 0.470838,0.115938 0.684005,0.183686l0.00113387 -0.00368507c0.223939,0.0708667 0.423783,0.149104 0.594713,0.232159 0.209482,0.102048 0.388916,0.220821 0.532918,0.35405l-0.0218269 0.0238112 0.14882 0.117639c0.275246,0.371908 0.267876,0.625611 0.258522,0.916165l-0.000283467 0 -0.0008504 0.0411027 0.00368507 0 0 8.61739 -0.00396854 0 0.000283467 0.0334491c0.00113387,0.233577 0.00226773,0.417263 -0.143718,0.727092l-0.00368507 0.0119056c-0.0280632,0.0575438 -0.0660478,0.121607 -0.110269,0.188505 -0.0394019,0.059528 -0.0822054,0.116221 -0.126993,0.168663 -0.234994,0.278081 -0.536603,0.505421 -0.879881,0.691092 -0.504854,-0.385515 -0.638084,-1.45589 -0.638084,-1.45589l-0.12756 -0.408192zm-9.94572 -8.67805l0.000283467 0.102898c0.0076536,-0.0972291 0.012756,-0.168379 -0.000283467,-0.102898z"/>
  <path class="fil34" d="M13.1211 14.3638c1.32294,0 4.49295,-0.051024 4.85267,-1.03976l0.0181419 -1.2311 -0.236978 -0.15534c-0.0161576,0.00708667 -0.19134,0.0737014 -0.19134,0.0745518 -1.41903,0.503437 -2.91716,0.568067 -4.40196,0.568067 -1.60329,0 -3.40614,-0.0379846 -4.88583,-0.653958l-0.236128 0.157608 0.0192757 1.46637c0.214868,0.591595 4.36227,0.81355 5.06215,0.81355zm-1.14237 1.20048c-1.3442,-0.0175749 -3.78797,-0.0266459 -4.81412,-1.12876 -0.217703,-0.239529 -0.117355,-0.587343 -0.117355,-0.884133l0 0 -0.0184253 -8.49068c0.0498902,-0.300758 0.500602,-0.423783 0.730494,-0.500319 0.343278,-0.114804 0.793991,-0.21997 1.32266,-0.310113 0.558146,-0.0952448 1.19906,-0.172064 1.89413,-0.223088 0.669265,-0.0501736 1.3904,-0.0776699 2.13394,-0.0776699 0.719155,0 1.22543,0.025512 1.90008,0.0725675 0.67947,0.0470555 1.31273,0.116505 1.84225,0.203529 0.527815,0.0861739 0.981646,0.188505 1.33598,0.301042 0.351499,0.111402 0.609737,0.235277 0.752604,0.367373l0.00198427 0.0008504c0.08504,0.114804 0.0617958,0.226207 0.0617958,0.363404l0 8.61739c0,0.124725 0.00708667,0.214017 -0.0496067,0.334774 -0.0243781,0.0498902 -0.0586776,0.101198 -0.100347,0.150237 -0.882149,1.04287 -3.44469,1.15229 -4.55276,1.19113l-0.290553 0.00822054 0.00907094 1.46042 4.46574 -0.0379846c0.236978,0 0.429452,0.346963 0.429452,0.586493 0,0.239246 -0.192474,0.433704 -0.429452,0.433704l-10.956 0c-0.236978,0 -0.429452,-0.194458 -0.429452,-0.433704 0,-0.239529 0.192474,-0.586493 0.429452,-0.586493l3.51159 0 0.927787 0 0.00907094 -1.41818zm6.02339 -5.17412l0.00793707 -1.25349 -0.236978 -0.157608c-1.47148,0.629296 -2.99398,0.63043 -4.54057,0.63043l0 0 -0.0575438 0c-0.791156,0 -1.71497,-0.0133229 -2.62235,-0.103465 -0.897456,-0.0890086 -1.55255,-0.254837 -2.27595,-0.557579l-0.236978 0.157608 0 1.33626 0.140883 0.17093c1.71979,0.288569 3.23294,0.563815 4.98108,0.563815 1.64297,0 3.11558,-0.209765 4.70867,-0.614839l0.131812 -0.172064zm-2.41259 -4.34385c-0.914747,0.120757 -1.66934,0.185104 -2.60818,0.189072 -0.916448,0.004252 -1.83318,-0.0479059 -2.69407,-0.158458 -0.823471,-0.106584 -1.37141,-0.267026 -2.0489,-0.483027l-0.196442 -0.0623627c0,0.72851 -0.00226773,1.17072 -0.00226773,1.90121l0 0.117639 0.055843 0.0133229c0.0150237,-0.0325987 0.04252,-0.0459216 0.0819219,-0.0450712 0.0405358,0.00226773 0.08504,0.0266459 0.142867,0.0603784 1.2104,0.689958 3.46708,0.627312 4.85465,0.627312 0.379846,0 4.83821,-0.265892 4.83821,-0.755156 0,-0.682588 -0.0223939,-1.08058 -0.0223939,-1.76316l0 -0.204663 -0.195309 0.0615123c-0.694777,0.216852 -1.33003,0.385798 -2.20594,0.501453z"/>
 </g>
</svg>
