<?xml version="1.0" encoding="UTF-8" standalone="no"?>
<!-- Creator: CorelDRAW -->

<svg
   xmlns:dc="http://purl.org/dc/elements/1.1/"
   xmlns:cc="http://creativecommons.org/ns#"
   xmlns:rdf="http://www.w3.org/1999/02/22-rdf-syntax-ns#"
   xmlns:svg="http://www.w3.org/2000/svg"
   xmlns="http://www.w3.org/2000/svg"
   xmlns:xlink="http://www.w3.org/1999/xlink"
   xmlns:sodipodi="http://sodipodi.sourceforge.net/DTD/sodipodi-0.dtd"
   xmlns:inkscape="http://www.inkscape.org/namespaces/inkscape"
   xml:space="preserve"
   width="24px"
   height="24px"
   style="shape-rendering:geometricPrecision; text-rendering:geometricPrecision; image-rendering:optimizeQuality; fill-rule:evenodd; clip-rule:evenodd"
   viewBox="0 0 24 24"
   id="svg3661"
   version="1.1"
   inkscape:version="0.48.1 r9760"
   sodipodi:docname="preferences-desktop-filetype-association.svg"><metadata
   id="metadata3787"><rdf:RDF><cc:Work
       rdf:about=""><dc:format>image/svg+xml</dc:format><dc:type
         rdf:resource="http://purl.org/dc/dcmitype/StillImage" /><dc:title></dc:title></cc:Work></rdf:RDF></metadata><sodipodi:namedview
   pagecolor="#ffffff"
   bordercolor="#666666"
   borderopacity="1"
   objecttolerance="10"
   gridtolerance="10"
   guidetolerance="10"
   inkscape:pageopacity="0"
   inkscape:pageshadow="2"
   inkscape:window-width="646"
   inkscape:window-height="480"
   id="namedview3785"
   showgrid="false"
   inkscape:zoom="11.083333"
   inkscape:cx="12"
   inkscape:cy="12"
   inkscape:window-x="0"
   inkscape:window-y="24"
   inkscape:window-maximized="0"
   inkscape:current-layer="svg3661" />
 <defs
   id="defs3663">
  <style
   type="text/css"
   id="style3665">
   
    .fil36 {fill:#5481A8}
    .fil37 {fill:#5A93C4}
    .fil20 {fill:#74AFE5}
    .fil21 {fill:#7FBCF0}
    .fil35 {fill:#A3D6FF}
    .fil41 {fill:#DCF995}
    .fil34 {fill:white}
    .fil13 {fill:#C4C4C4}
    .fil11 {fill:#C9C9C9}
    .fil12 {fill:#CBCBCB}
    .fil18 {fill:#4F7FB3;fill-rule:nonzero}
    .fil42 {fill:#88A640;fill-rule:nonzero}
    .fil22 {fill:#BFBFBF;fill-rule:nonzero}
    .fil0 {fill:black;fill-opacity:0.000000}
    .fil23 {fill:#333333;fill-opacity:0.000000}
    .fil1 {fill:black;fill-opacity:0.003922}
    .fil2 {fill:black;fill-opacity:0.007843}
    .fil24 {fill:#333333;fill-opacity:0.011765}
    .fil3 {fill:black;fill-opacity:0.015686}
    .fil4 {fill:black;fill-opacity:0.019608}
    .fil5 {fill:black;fill-opacity:0.023529}
    .fil25 {fill:#333333;fill-opacity:0.027451}
    .fil6 {fill:black;fill-opacity:0.027451}
    .fil7 {fill:black;fill-opacity:0.031373}
    .fil8 {fill:black;fill-opacity:0.035294}
    .fil26 {fill:#333333;fill-opacity:0.039216}
    .fil9 {fill:black;fill-opacity:0.043137}
    .fil27 {fill:#333333;fill-opacity:0.054902}
    .fil28 {fill:#333333;fill-opacity:0.066667}
    .fil29 {fill:#333333;fill-opacity:0.078431}
    .fil30 {fill:#333333;fill-opacity:0.094118}
    .fil31 {fill:#333333;fill-opacity:0.105882}
    .fil32 {fill:#333333;fill-opacity:0.121569}
    .fil39 {fill:black;fill-opacity:0.219608}
    .fil19 {fill:#4C4C4C;fill-rule:nonzero;fill-opacity:0.219608}
    .fil33 {fill:url(#id0)}
    .fil14 {fill:url(#id1)}
    .fil17 {fill:url(#id2)}
    .fil15 {fill:url(#id3)}
    .fil10 {fill:url(#id4)}
    .fil40 {fill:url(#id5)}
    .fil38 {fill:url(#id6)}
    .fil16 {fill:url(#id7);fill-rule:nonzero}
   
  </style>
  <linearGradient
   id="id0"
   gradientUnits="userSpaceOnUse"
   x1="17.514"
   y1="22.4375"
   x2="17.514"
   y2="10.6498">
   <stop
   offset="0"
   style="stop-color:#6CADE6"
   id="stop3668" />
   <stop
   offset="1"
   style="stop-color:#85C2F5"
   id="stop3670" />
  </linearGradient>
  <linearGradient
   id="id1"
   gradientUnits="userSpaceOnUse"
   x1="10.9858"
   y1="3.15867"
   x2="10.9858"
   y2="6.43952">
   <stop
   offset="0"
   style="stop-color:#7BBDF2"
   id="stop3673" />
   <stop
   offset="1"
   style="stop-color:#5C96D2"
   id="stop3675" />
  </linearGradient>
  <linearGradient
   id="id2"
   gradientUnits="userSpaceOnUse"
   x1="11.1139"
   y1="6.40777"
   x2="11.187"
   y2="1.84849">
   <stop
   offset="0"
   style="stop-color:#4E87B4"
   id="stop3678" />
   <stop
   offset="1"
   style="stop-color:#66A1D1"
   id="stop3680" />
  </linearGradient>
  <linearGradient
   id="id3"
   gradientUnits="userSpaceOnUse"
   x1="4.34073"
   y1="2.62774"
   x2="17.9817"
   y2="2.38452">
   <stop
   offset="0"
   style="stop-color:#BCE6FF"
   id="stop3683" />
   <stop
   offset="1"
   style="stop-color:#BBE6FF"
   id="stop3685" />
  </linearGradient>
  <linearGradient
   id="id4"
   gradientUnits="userSpaceOnUse"
   x1="11.0733"
   y1="6.98406"
   x2="11.4923"
   y2="18.7267">
   <stop
   offset="0"
   style="stop-color:white"
   id="stop3688" />
   <stop
   offset="1"
   style="stop-color:#EBEBEB"
   id="stop3690" />
  </linearGradient>
  <linearGradient
   id="id5"
   gradientUnits="userSpaceOnUse"
   x1="2.70541"
   y1="14.8545"
   x2="13.3371"
   y2="17.141">
   <stop
   offset="0"
   style="stop-color:#91B837"
   id="stop3693" />
   <stop
   offset="0.580392"
   style="stop-color:#B7DD5F"
   id="stop3695" />
   <stop
   offset="1"
   style="stop-color:#A8CE52"
   id="stop3697" />
  </linearGradient>
  <linearGradient
   id="id6"
   gradientUnits="userSpaceOnUse"
   xlink:href="#id3"
   x1="22.6986"
   y1="11.0368"
   x2="20.8481"
   y2="11.7211">
  </linearGradient>
  <linearGradient
   id="id7"
   gradientUnits="userSpaceOnUse"
   x1="11.0237"
   y1="22.9628"
   x2="11.0237"
   y2="6.93785">
   <stop
   offset="0"
   style="stop-color:#919191"
   id="stop3701" />
   <stop
   offset="1"
   style="stop-color:#B2B2B2"
   id="stop3703" />
  </linearGradient>
 </defs>
 <g
   id="Слой_x0020_1">
  <metadata
   id="CorelCorpID_0Corel-Layer" />
  <g
   id="_112481072">
   <path
   id="_112495496"
   class="fil0"
   d="M10.8755 20.3487c7.39848,-0.293955 10.7077,0.324286 12.146,1.18404l0 2.28191c-0.0668982,0.012756 -0.136348,0.0243781 -0.208915,0.0354333l-22.7111 0 0 -2.05117c1.40685,-0.633548 4.40281,-1.19736 10.774,-1.45022z" />
   <g
   id="g3709">
    <path
   id="_112481192"
   class="fil1"
   d="M10.9018 20.5255c7.40642,-0.283467 10.721,0.371058 12.1196,1.24073l0 2.00808c-0.147119,0.0294805 -0.309829,0.0544256 -0.487563,0.0756856l-22.4324 0 0 -1.85274c1.36546,-0.642619 4.3464,-1.22486 10.8004,-1.47176z" />
    <path
   id="_112487432"
   class="fil2"
   d="M10.9279 20.7027c7.39338,-0.271561 10.734,0.417263 12.0935,1.28949l0 1.74219c-0.234711,0.0501736 -0.515059,0.0875912 -0.837361,0.115654l-22.0826 0 0 -1.66083c1.32918,-0.648005 4.30898,-1.24725 10.8264,-1.4865z" />
    <path
   id="_112486952"
   class="fil3"
   d="M10.954 20.8799c7.3571,-0.257388 10.7505,0.4612 12.0675,1.32804l0 1.48707c-0.336475,0.076536 -0.783219,0.125292 -1.32351,0.155056l-6.44065 0c-0.602083,-0.00368507 -1.22061,-0.00453547 -1.85047,0l-13.2504 0 -0.0549926 -0.0093544 0 -1.46864c1.29799,-0.648572 4.29594,-1.26256 10.8525,-1.49217z" />
    <path
   id="_112484288"
   class="fil4"
   d="M10.9801 21.057c7.297,-0.241514 10.7732,0.50287 12.0414,1.35611l0 1.243c-0.486996,0.119056 -1.25519,0.172915 -2.22862,0.193891l-2.9112 0c-1.8465,-0.0192757 -3.9915,-0.0513075 -6.20651,0l-11.1941 0c-0.137765,-0.0167245 -0.264475,-0.0348664 -0.379562,-0.0549926l0 -1.25094c1.26965,-0.64347 4.31181,-1.26965 10.8786,-1.48707z" />
    <path
   id="_112481912"
   class="fil5"
   d="M11.0062 21.2339c7.21366,-0.223655 10.8094,0.540855 12.0153,1.37198l0 1.01169c-1.51967,0.402806 -6.44377,0.0858904 -11.661,0.212317l-0.834243 0.0201261 -9.603 0c-0.321735,-0.0266459 -0.596981,-0.0598115 -0.82177,-0.0997803l0 -1.04599c1.2413,-0.632414 4.36029,-1.26738 10.9047,-1.47034z" />
    <path
   id="_112477184"
   class="fil6"
   d="M11.032 21.4114c7.11105,-0.203813 10.8693,0.576288 11.9895,1.37708l0 0.790872c-1.36489,0.401672 -6.37233,0.109135 -11.6508,0.222521 -0.791439,0.017008 -1.57352,0.0334491 -2.33577,0.0481894l-7.42711 0c-0.636666,-0.0308979 -1.14917,-0.077103 -1.50634,-0.142017l0 -0.855786c1.20729,-0.61569 4.44249,-1.25462 10.9305,-1.44086z" />
    <path
   id="_112486160"
   class="fil7"
   d="M11.0589 21.5888c6.99228,-0.182553 10.9645,0.608887 11.9626,1.37085l0 0.582524c-1.17384,0.397704 -6.28446,0.131245 -11.64,0.231592 -1.72064,0.0323152 -3.40245,0.0617958 -4.93119,0.0762526l-3.2542 0c-1.4213,-0.0198427 -2.5135,-0.0739848 -3.09461,-0.182553l0 -0.679753c1.16051,-0.592729 4.55645,-1.23223 10.9574,-1.39891z" />
    <path
   id="_112481000"
   class="fil8"
   d="M11.0847 21.7663c6.88569,-0.159308 11.1391,0.644887 11.9368,1.36121l0 0.375027c-0.905109,0.395153 -6.15747,0.156757 -11.6301,0.243215 -5.13047,0.081355 -9.96471,0.140033 -11.2899,-0.116788l0 -0.517894c1.09106,-0.563815 4.70045,-1.19991 10.9832,-1.34477z" />
    <path
   id="_112477304"
   class="fil9"
   d="M11.1108 21.9432c6.88484,-0.136348 11.5473,0.706683 11.9107,1.3717l0 0.130962c-0.39572,0.411877 -5.90858,0.198143 -11.6196,0.271561 -5.20417,0.0668982 -10.1575,0.110552 -11.3004,-0.124442l0 -0.369641c0.982212,-0.529799 4.86769,-1.15881 11.0093,-1.28014z" />
   </g>
  </g>
  <path
   class="fil10"
   d="M1.9511 3.43165l18.6632 0c0.631847,0 1.14889,0.519878 1.14889,1.14832l0 16.5502c0,0.629296 -0.517894,1.14917 -1.14889,1.14917 -7.56545,0 -5.75891,0 -18.6632,0 -0.63043,0 -1.14861,-0.517043 -1.14861,-1.14917l0 -16.5502c0,-0.631847 0.51676,-1.14832 1.14861,-1.14832z"
   id="path3720" />
  <rect
   class="fil11"
   x="5.25037"
   y="14.1047"
   width="14.2623"
   height="0.9567"
   id="rect3722" />
  <rect
   class="fil12"
   x="5.25037"
   y="9.97236"
   width="14.2623"
   height="0.9567"
   id="rect3724" />
  <rect
   class="fil13"
   x="5.25037"
   y="18.084"
   width="11.9362"
   height="0.9567"
   id="rect3726" />
  <path
   class="fil14"
   d="M21.4661 7.0158l-20.9607 0 0 -3.2851c0,-0.631847 0.51676,-1.14832 1.14861,-1.14832l18.6632 0c0.631847,0 1.14889,0.520445 1.14889,1.14832l0 3.2851z"
   id="path3728" />
  <polygon
   class="fil15"
   points="0.833392,1.98398 21.4893,1.98398 21.4893,3.02828 0.833392,3.02828 "
   id="polygon3730" />
  <path
   class="fil16"
   d="M22.0041 6.93785l0 14.376c0,0.452696 -0.185954,0.865708 -0.484728,1.16448 -0.298207,0.298207 -0.711218,0.484728 -1.1642,0.484728l-18.6632 0c-0.453263,0 -0.865991,-0.185954 -1.16448,-0.484445 -0.298491,-0.298491 -0.484161,-0.711218 -0.484161,-1.16477l0 -14.376 1.00007 0 0 14.376c0,0.177734 0.0734179,0.34016 0.191057,0.457799 0.117639,0.117639 0.280065,0.19134 0.457515,0.19134l18.6632 0c0.176883,0 0.339593,-0.0739848 0.457232,-0.191624 0.117922,-0.117922 0.191624,-0.280632 0.191624,-0.457515l0 -14.376 1.00007 0z"
   id="path3732" />
  <path
   class="fil17"
   d="M21.004 7.20799l0 -2.84431c0,-0.440507 -0.0141733,-1.79293 -0.201828,-2.06392 -0.108851,-0.0986464 -0.138615,-0.21175 -0.369641,-0.214301l-0.0257955 -0.000283467 -18.7082 -0.0374176 -0.00963787 0 -0.051024 -0.00113387 0 0.0017008c-0.155056,0 -0.274396,0.0609454 -0.354617,0.156757 -0.253986,0.303876 -0.239813,1.13018 -0.239813,1.56389l0 3.43902 -1.00007 0 0 -3.43902c0,-0.643753 0.0615123,-1.71186 0.473956,-2.20452 0.265041,-0.316349 0.642619,-0.516193 1.12054,-0.516193l0.00963787 0.00198427 0.0606619 0.00141733 18.7026 0.0374176 0.00396854 0 0.0277797 0.000283467 0.00198427 0c1.81305,0.0218269 1.59507,1.89809 1.57863,3.25165l-0.0189923 0.522713 0 2.34427 -1.00007 0z"
   id="path3734" />
  <polygon
   class="fil18"
   points="0.977394,5.88647 21.1534,5.88647 21.1534,7.0861 0.977394,7.0861 "
   id="polygon3736" />
  <polygon
   class="fil19"
   points="0.901708,7.10169 21.0777,7.10169 21.0777,8.30133 0.901708,8.30133 "
   id="polygon3738" />
  <rect
   class="fil12"
   x="2.06534"
   y="10.0103"
   width="1.98313"
   height="2.00865"
   id="rect3740" />
  <rect
   class="fil20"
   x="2.04635"
   y="18.0651"
   width="1.98313"
   height="1.95139"
   id="rect3742" />
  <rect
   class="fil21"
   x="2.04663"
   y="14.1045"
   width="1.98313"
   height="1.93239"
   id="rect3744" />
  <polygon
   class="fil22"
   points="10.9804,18.3913 15.805,18.4177 15.805,18.9452 10.9804,18.9183 "
   id="polygon3746" />
  <g
   id="_110318528">
   <path
   id="_110311400"
   class="fil23"
   d="M15.9022 22.5648c-9.0545,0.0104883 -5.71412,0.80051 -5.71412,1.0168 0,0.0479059 -0.0365672,0.104599 -0.0252285,0.16356l12.8898 0c0.00963787,-0.0133229 0.0153072,-0.0277797 0.0153072,-0.0405358 0,-0.216285 1.88874,-1.14946 -7.16576,-1.13982z" />
   <g
   id="g3750">
    <path
   id="_110322848"
   class="fil24"
   d="M15.5785 22.6207c-8.11821,0.00878747 -5.21466,0.728793 -5.21466,0.930622 0,0.0566934 -0.0487563,0.124725 0.017008,0.193891l11.625 0c0.0544256,-0.0286301 0.077103,-0.0564099 0.077103,-0.0844731 0,-0.201828 1.61463,-1.04798 -6.50443,-1.04004z" />
    <path
   id="_110296424"
   class="fil25"
   d="M15.2565 22.6773c-7.18305,0.00793707 -4.71604,0.656793 -4.71604,0.844448 0,0.06378 -0.0609454,0.145418 0.119623,0.223372l10.2127 0c0.164127,-0.0422366 0.225073,-0.0861739 0.225073,-0.12756 0,-0.188505 1.34051,-0.947346 -5.8414,-0.940259z" />
    <path
   id="_110317304"
   class="fil26"
   d="M14.9319 22.734c-6.24591,0.00623627 -4.21657,0.583375 -4.21657,0.758274 0,0.0717171 -0.0683155,0.170647 0.359436,0.252852l8.48586 0c0.411594,-0.0541422 0.550776,-0.114804 0.550776,-0.171497 0,-0.174049 1.06725,-0.846148 -5.17951,-0.839629z" />
    <path
   id="_110315528"
   class="fil27"
   d="M14.609 22.7907c-5.31075,0.00566934 -3.71738,0.511658 -3.71738,0.6721 0,0.0836227 -0.0617958,0.208915 0.986748,0.282333l5.87428 0c1.05081,-0.0549926 1.37368,-0.139466 1.37368,-0.214584 0,-0.160442 0.79314,-0.744667 -4.51733,-0.739848z" />
    <path
   id="_110318024"
   class="fil28"
   d="M14.2859 22.8474c-4.37418,0.00481894 -3.21848,0.438807 -3.21848,0.585075 0,0.104599 0.00737014,0.280916 3.117,0.280916 3.10935,0 3.95606,-0.122174 3.95606,-0.225923 0,-0.145985 0.519878,-0.644887 -3.85458,-0.640068z" />
    <path
   id="_110303888"
   class="fil29"
   d="M13.963 22.9041c-3.43902,0.00311813 -2.71901,0.36709 -2.71901,0.498902 0,0.0822054 0.157041,0.216852 2.64106,0.216285 2.48402,0 3.27064,-0.093544 3.27064,-0.174899 0,-0.132379 0.245482,-0.544256 -3.19269,-0.540288z" />
    <path
   id="_110300336"
   class="fil30"
   d="M13.6384 22.9608c-2.50188,0.00226773 -2.2204,0.293672 -2.2204,0.412444 0,0.060095 0.308128,0.151655 2.16597,0.151088 1.85869,0 2.58493,-0.0649139 2.58493,-0.123875 0,-0.118206 -0.0277797,-0.442208 -2.53051,-0.439657z" />
    <path
   id="_110295848"
   class="fil31"
   d="M13.3156 23.0175c-1.56644,0.000566934 -1.72093,0.221671 -1.72093,0.32627 0,0.0377011 0.456948,0.0870243 1.69003,0.0861739 1.23223,0 1.89923,-0.0357168 1.89923,-0.0725675 0,-0.104599 -0.301609,-0.341577 -1.86833,-0.339877z" />
   </g>
   <path
   id="_110307104"
   class="fil32"
   d="M12.9927 23.0739c-0.63043,0 -1.22174,0.150237 -1.22174,0.24123 0,0.0294805 2.42789,0.0272128 2.42789,0 0,-0.0909928 -0.575721,-0.24123 -1.20615,-0.24123z" />
  </g>
  <path
   class="fil33"
   d="M11.0135 8.98873l9.81986 -0.00141733c0.677486,0.494366 2.5478,1.77649 3.18106,3.06739l-0.0306144 12.0065 -12.8793 0.038835 -0.0909928 -15.1113z"
   id="path3761" />
  <path
   class="fil34"
   d="M13.1599 11.8472l8.88045 0 0 1.04061 -8.88045 0 0 -1.04061zm0 8.05017l8.88045 0 0 1.04061 -8.88045 0 0 -1.04061zm0 -1.95904l8.88045 0 0 1.04061 -8.88045 0 0 -1.04061zm0 -2.11183l8.88045 0 0 1.04061 -8.88045 0 0 -1.04061zm0 -1.89781l8.88045 0 0 1.04061 -8.88045 0 0 -1.04061z"
   id="path3763" />
  <polygon
   class="fil35"
   points="20.4419,10.0197 11.9926,9.98994 11.9926,10.9509 19.03,10.9509 20.7279,10.2096 "
   id="polygon3765" />
  <path
   class="fil36"
   d="M11.0135 8.98873l9.81986 -0.00141733c0.677486,0.494366 2.5478,1.77649 3.18106,3.06739l-0.0306144 12.0065 -12.8793 0.038835 -0.0909928 -15.1113zm9.49699 0.994685l-8.49493 0.00113387 0.0790872 13.1163 10.8956 -0.0325987 0.0274963 -10.761c-0.53717,-0.880448 -1.81334,-1.82212 -2.50726,-2.32386z"
   id="path3767" />
  <path
   class="fil37"
   d="M23.3979 13.9072c-1.0698,0.00708667 -2.26207,-0.00566934 -3.33244,0.00141733 0,-1.08993 -0.0008504,-2.93161 -0.0008504,-4.02211 1.77479,1.25916 2.77599,2.37063 3.1805,3.15073 0.183403,0.354617 0.051591,0.754305 0.152789,0.86996z"
   id="path3769" />
  <path
   class="fil38"
   d="M23.5235 12.9544c-1.15484,0.0068032 -2.33463,0.0138899 -3.49033,0.0209765 0,-1.08993 -0.0107717,-2.10332 -0.0107717,-3.19382 0.588194,0.16186 1.36829,0.737864 1.80937,1.1299 1.1282,1.00461 1.43604,1.77649 1.69173,2.04295z"
   id="path3771" />
  <polygon
   class="fil22"
   points="17.6756,17.2045 17.0684,17.2045 17.0684,17.7082 17.6756,17.7082 "
   id="polygon3773" />
  <polygon
   class="fil22"
   points="11.4214,18.2195 16.0343,18.2451 16.0343,18.7493 11.4214,18.7235 "
   id="polygon3775" />
  <path
   class="fil39"
   d="M18.8157 15.0949l-3.99745 0.209482 -4.31975 -3.0073 -0.0317483 3.61307c-2.33747,0.747785 -4.63241,0.810148 -6.88484,-0.837077 -1.72405,-1.26001 -1.70477,-3.61165 -1.45589,-5.37907l-0.213451 -0.0325987c-0.487846,1.45844 -0.994685,9.28694 5.75466,11.1955 0.458366,0.129544 1.67529,0.166678 2.71561,0.2469l0.00822054 2.10021 0.921834 -0.0209765 7.5028 -8.08816z"
   id="path3777" />
  <path
   class="fil40"
   d="M17.6387 15.5394l-3.8526 -2.83127 -4.07058 -2.83382 -0.029764 3.40444c-2.20254,0.704698 -3.43505,1.15995 -5.55822,-0.392318 -1.62483,-1.18773 -2.06761,-2.1963 -1.83375,-3.86138l-0.201261 -0.0308979c-0.4595,1.37425 -1.40373,7.14676 4.95528,8.94565 0.433137,0.122174 1.57863,0.157324 2.55885,0.23301l0.0107717 2.89193 4.11962 -2.76153 3.90164 -2.7638z"
   id="path3779" />
  <path
   class="fil41"
   d="M17.5645 15.9212l-0.344696 -0.228474 0.225356 0.143151 0.0841896 -0.122174 -0.0249451 -0.017008 0.060095 -0.0870243 -0.1423 -0.098363 0.0229608 0.0130395 0.0841896 -0.122174 -0.0929771 -0.0691659 0.0238112 -0.0348664 -1.18688 -0.787471 1.10297 0.598115 0.0839062 -0.122174 -1.74275 -1.19595 -5.77875 -3.86875 0.00793707 -0.275246 -0.0249451 -0.0181419 0.0068032 0.316632 -0.0068032 -0.0051024 0.017008 0.747218 0.060095 0.0391184 0.00878747 0.376727 0.0311813 0.0198427 0.00396854 0.187372 0.060095 0.0391184 0.00907094 0.376727 7.4376 4.73276 0.0841896 -0.122174 -1.18716 -0.787187 1.10297 0.597831 0.0841896 -0.122174 -0.0932606 -0.0691659 0.0240947 -0.0348664zm-7.62497 -2.77486l-0.00283467 0.00113387 -0.00226773 0.210332c-2.20169,0.704132 -3.42966,1.24924 -5.42811,-0.457799 -0.160159,-0.136064 -0.313514,-0.277514 -0.458649,-0.420665 -0.950748,-0.770179 -1.60471,-1.63674 -1.85812,-2.59429l0.0178584 0.15619 0.00113387 0 0.0008504 0.00992134 0.00113387 0.00822054 0 0.0008504 0.00198427 0.00907094 0.0411027 0.185387 -0.00708667 -0.112253 0.00992134 0.125292c0.0541422,0.221104 0.126426,0.446744 0.219403,0.676919 -0.0518744,-0.103182 -0.0992134,-0.206364 -0.141166,-0.31153 -0.0260789,-0.094111 -0.051024,-0.188222 -0.0711502,-0.280349l-0.00396854 -0.0442208c0.108284,0.398838 0.284601,0.783502 0.521862,1.14917l0.0130395 0.0198427 0.0161576 0.0221104c0.163277,0.232443 0.351499,0.458649 0.562965,0.677202 -0.606052,-0.771313 -1.00489,-1.58486 -1.18801,-2.3369l-0.00822054 -0.113387 0.0051024 0.101198 -0.0229608 -0.0980795 -0.017008 -0.210332 0.0119056 0.185387c-0.043087,-0.206364 -0.0711502,-0.406775 -0.0810715,-0.601233 0.00793707,0.222521 0.0371342,0.43994 0.08504,0.653108 0.0121891,0.114237 0.0291971,0.225356 0.0521579,0.337609l0 0.00311813 0.00198427 0.00992134c0.0130395,0.0921267 0.0300475,0.182269 0.0501736,0.272412l0.00992134 0.0881582c-0.0311813,-0.0901424 -0.0581107,-0.179151 -0.0830558,-0.271278l0.0178584 0.157041 0.00198427 0.0102048 0.00113387 0.00907094 0.043087 0.19219 -0.00708667 -0.111119 0.00992134 0.123025c0.0371342,0.149387 0.081355,0.300758 0.135497,0.45383l0.00396854 0.0110552c0.0980795,0.325703 0.244348,0.640068 0.430586,0.943661 -0.164127,-0.292538 -0.300475,-0.585926 -0.406775,-0.875629 0.0442208,0.151371 0.098363,0.304727 0.160442,0.457799 -0.136348,-0.267309 -0.237545,-0.543973 -0.306428,-0.82829 0.164127,1.25321 0.84218,2.93983 2.40607,3.9657 0.159025,0.105166 0.294239,0.266459 0.464602,0.282333 1.95847,0.19049 2.99823,0.194458 4.9635,0.0521579 0.0119056,-1.65176 -0.175466,-0.668131 -0.168379,-1.89327zm-7.75508 -3.28028l-0.0161576 -0.0671816 0.0260789 0.173198 -0.00992134 -0.106017zm0.131245 0.719155l-0.0331656 -0.0912763 -0.00992134 -0.0720006 0.043087 0.163277zm-0.131245 -0.408759l-0.0150237 -0.060095 0.0249451 0.163277 -0.00992134 -0.103182zm0.0720006 0.118206l-0.0150237 -0.0541422 0.0172915 0.0873078 -0.00226773 -0.0331656zm0.636099 1.63986c-0.20438,-0.287719 -0.369641,-0.586209 -0.492665,-0.894621 -0.0501736,-0.182269 -0.089292,-0.362554 -0.116221,-0.536886l0.0521579 0.149104 0.00396854 0.0121891 0.0110552 0.0308979c0.0980795,0.303593 0.237262,0.599249 0.412728,0.883566 -0.164411,-0.28942 -0.300758,-0.581957 -0.406775,-0.867408 0.12019,0.399688 0.300475,0.811282 0.535752,1.22316zm-0.512791 -0.94763c-0.0470555,-0.121324 -0.0861739,-0.245482 -0.12019,-0.370775l0.0051024 0.0581107c0.140033,0.641202 0.443626,1.32918 0.897456,2.00354l0.0229608 0.0360003 0.00907094 0.0130395 0.0331656 0.0490398 0.00481894 0.0059528c0.098363,0.146269 0.202395,0.290553 0.314648,0.433704 -0.731344,-0.75714 -1.18603,-1.59762 -1.28325,-2.51605 -0.0221104,-0.0972291 -0.0411027,-0.196442 -0.0541422,-0.295656l-0.00198427 -0.0110552 0 -0.00481894c-0.0198427,-0.102332 -0.0360003,-0.207498 -0.0479059,-0.31153 -0.0490398,-0.215435 -0.0782368,-0.435972 -0.0861739,-0.661328 0.00992134,0.194458 0.0371342,0.396854 0.0810715,0.603217l-0.0119056 -0.187372 0.0178584 0.220254 0.0221104 0.0960952 -0.0051024 -0.109135 0.00822054 0.122174c0.0249451,0.103182 0.0538587,0.206364 0.0881582,0.31068l-0.00113387 -0.00311813m-0.017008 0.134363l-0.0201261 -0.0762526 0.0232443 0.115371 -0.00311813 -0.0391184zm0.124158 0.384664c-0.0490398,-0.168379 -0.0830558,-0.340727 -0.106017,-0.51591"
   id="path3781" />
  <path
   class="fil42"
   d="M16.703 15.3973l-6.57218 -4.31947 -0.0221104 2.20367 -0.00283467 0.305577 -0.229325 0.125292c-1.14804,0.367656 -2.44518,0.268443 -3.64028,0.180285 -1.2121,-0.089292 -1.22599,0.162143 -2.35703,-0.664163l-0.00198427 0c-0.673234,-0.491815 -1.2311,-1.0287 -1.64779,-1.60981 0.11934,0.454964 0.280349,0.93374 0.490964,1.41847 0.811282,1.86606 1.21097,3.42683 3.9915,4.35632l0.00226773 0c0.142017,0.0481894 0.293388,0.0952448 0.447594,0.138332 0.268443,0.0751187 0.928637,0.118206 1.62568,0.161293l0.00311813 0 0.844448 0.0569768 0.392602 0.0260789 0.00198427 0.39657 0.00793707 1.61179c2.56537,-1.35724 4.2914,-2.70541 6.66544,-4.38722zm1.18603 -0.199561l0.471689 0.34668 -0.478775 0.339593c-2.65949,1.8842 -5.32096,3.71738 -8.02863,5.53242l-0.811282 -0.351782 -0.00907094 -2.49621 -0.451846 -0.0300475c-0.7441,-0.0459216 -1.29318,-0.0921267 -1.64779,-0.19134 -0.164127,-0.0459216 -0.330522,-0.0969456 -0.491815,-0.152222l0 -0.0008504c-3.05407,-1.0219 -3.60598,-2.76975 -4.49663,-4.81809 -0.702147,-1.61689 -0.281483,-3.37382 0.2486,-5.1007 0.324569,0.0490398 -0.202395,-0.0841896 0.122174,-0.034016 -0.122174,0.859471 -0.11934,1.61576 0.305577,2.41202 0.363404,0.682021 0.968606,1.31529 1.75693,1.89214l-0.00113387 0.00113387c0.978811,0.646021 3.53313,0.493799 4.64489,0.266459l0.0260789 -2.91092 -0.0249451 -0.342711 0.93459 -0.0328821c2.67536,1.86209 5.3048,3.74119 7.9314,5.67132z"
   id="path3783" />
 </g>
</svg>