<?xml version="1.0" encoding="UTF-8" standalone="no"?>
<!-- Creator: CorelDRAW -->

<svg
   xmlns:dc="http://purl.org/dc/elements/1.1/"
   xmlns:cc="http://creativecommons.org/ns#"
   xmlns:rdf="http://www.w3.org/1999/02/22-rdf-syntax-ns#"
   xmlns:svg="http://www.w3.org/2000/svg"
   xmlns="http://www.w3.org/2000/svg"
   xmlns:xlink="http://www.w3.org/1999/xlink"
   xmlns:sodipodi="http://sodipodi.sourceforge.net/DTD/sodipodi-0.dtd"
   xmlns:inkscape="http://www.inkscape.org/namespaces/inkscape"
   xml:space="preserve"
   width="24px"
   height="24px"
   style="shape-rendering:geometricPrecision; text-rendering:geometricPrecision; image-rendering:optimizeQuality; fill-rule:evenodd; clip-rule:evenodd"
   viewBox="0 0 24 24"
   id="svg3526"
   version="1.1"
   inkscape:version="0.48.1 r9760"
   sodipodi:docname="preferences-system-effects.svg"><metadata
   id="metadata3782"><rdf:RDF><cc:Work
       rdf:about=""><dc:format>image/svg+xml</dc:format><dc:type
         rdf:resource="http://purl.org/dc/dcmitype/StillImage" /><dc:title></dc:title></cc:Work></rdf:RDF></metadata><sodipodi:namedview
   pagecolor="#ffffff"
   bordercolor="#666666"
   borderopacity="1"
   objecttolerance="10"
   gridtolerance="10"
   guidetolerance="10"
   inkscape:pageopacity="0"
   inkscape:pageshadow="2"
   inkscape:window-width="646"
   inkscape:window-height="480"
   id="namedview3780"
   showgrid="false"
   inkscape:zoom="11.083333"
   inkscape:cx="12"
   inkscape:cy="12"
   inkscape:window-x="0"
   inkscape:window-y="24"
   inkscape:window-maximized="0"
   inkscape:current-layer="svg3526" />
 <defs
   id="defs3528">
  <style
   type="text/css"
   id="style3530">
   
    .fil18 {fill:none}
    .fil154 {fill:#333333}
    .fil156 {fill:#9933CC}
    .fil162 {fill:white}
    .fil126 {fill:white}
    .fil157 {fill:#EFCCFF}
    .fil159 {fill:#191919;fill-rule:nonzero}
    .fil158 {fill:#7C448F;fill-rule:nonzero}
    .fil0 {fill:black;fill-opacity:0.000000}
    .fil131 {fill:#41015E;fill-opacity:0.000000}
    .fil145 {fill:#CF60CF;fill-opacity:0.000000}
    .fil138 {fill:#F07DF0;fill-opacity:0.000000}
    .fil1 {fill:black;fill-opacity:0.003922}
    .fil2 {fill:black;fill-opacity:0.007843}
    .fil93 {fill:#458BC9;fill-opacity:0.011765}
    .fil3 {fill:black;fill-opacity:0.015686}
    .fil125 {fill:#BAE8FF;fill-opacity:0.015686}
    .fil51 {fill:#C4EBFF;fill-opacity:0.015686}
    .fil4 {fill:black;fill-opacity:0.019608}
    .fil132 {fill:#41015E;fill-opacity:0.019608}
    .fil92 {fill:#458BC9;fill-opacity:0.019608}
    .fil5 {fill:black;fill-opacity:0.023529}
    .fil6 {fill:black;fill-opacity:0.027451}
    .fil124 {fill:#BAE8FF;fill-opacity:0.031373}
    .fil50 {fill:#C4EBFF;fill-opacity:0.031373}
    .fil91 {fill:#458BC9;fill-opacity:0.031373}
    .fil7 {fill:black;fill-opacity:0.031373}
    .fil8 {fill:black;fill-opacity:0.035294}
    .fil133 {fill:#41015E;fill-opacity:0.039216}
    .fil90 {fill:#458BC9;fill-opacity:0.039216}
    .fil9 {fill:black;fill-opacity:0.043137}
    .fil123 {fill:#BAE8FF;fill-opacity:0.047059}
    .fil49 {fill:#C4EBFF;fill-opacity:0.047059}
    .fil10 {fill:black;fill-opacity:0.047059}
    .fil11 {fill:black;fill-opacity:0.050980}
    .fil89 {fill:#458BC9;fill-opacity:0.050980}
    .fil12 {fill:black;fill-opacity:0.054902}
    .fil13 {fill:black;fill-opacity:0.058824}
    .fil134 {fill:#41015E;fill-opacity:0.058824}
    .fil122 {fill:#BAE8FF;fill-opacity:0.058824}
    .fil48 {fill:#C4EBFF;fill-opacity:0.058824}
    .fil88 {fill:#458BC9;fill-opacity:0.062745}
    .fil146 {fill:#D364D3;fill-opacity:0.062745}
    .fil87 {fill:#458BC9;fill-opacity:0.070588}
    .fil121 {fill:#BAE8FF;fill-opacity:0.074510}
    .fil47 {fill:#C4EBFF;fill-opacity:0.074510}
    .fil135 {fill:#41015E;fill-opacity:0.078431}
    .fil86 {fill:#458BC9;fill-opacity:0.082353}
    .fil139 {fill:#F07DF0;fill-opacity:0.082353}
    .fil120 {fill:#BAE8FF;fill-opacity:0.090196}
    .fil46 {fill:#C4EBFF;fill-opacity:0.090196}
    .fil85 {fill:#458BC9;fill-opacity:0.090196}
    .fil136 {fill:#41015E;fill-opacity:0.101961}
    .fil84 {fill:#458BC9;fill-opacity:0.101961}
    .fil119 {fill:#BAE8FF;fill-opacity:0.105882}
    .fil45 {fill:#C4EBFF;fill-opacity:0.105882}
    .fil83 {fill:#458BC9;fill-opacity:0.113725}
    .fil137 {fill:#41015E;fill-opacity:0.121569}
    .fil118 {fill:#BAE8FF;fill-opacity:0.121569}
    .fil44 {fill:#C4EBFF;fill-opacity:0.121569}
    .fil82 {fill:#458BC9;fill-opacity:0.121569}
    .fil147 {fill:#D769D7;fill-opacity:0.125490}
    .fil81 {fill:#458BC9;fill-opacity:0.133333}
    .fil117 {fill:#BAE8FF;fill-opacity:0.137255}
    .fil43 {fill:#C4EBFF;fill-opacity:0.137255}
    .fil80 {fill:#458BC9;fill-opacity:0.145098}
    .fil116 {fill:#BAE8FF;fill-opacity:0.152941}
    .fil42 {fill:#C4EBFF;fill-opacity:0.152941}
    .fil79 {fill:#458BC9;fill-opacity:0.152941}
    .fil78 {fill:#458BC9;fill-opacity:0.164706}
    .fil115 {fill:#BAE8FF;fill-opacity:0.164706}
    .fil41 {fill:#C4EBFF;fill-opacity:0.164706}
    .fil140 {fill:#F07DF0;fill-opacity:0.168627}
    .fil77 {fill:#458BC9;fill-opacity:0.172549}
    .fil114 {fill:#BAE8FF;fill-opacity:0.180392}
    .fil40 {fill:#C4EBFF;fill-opacity:0.180392}
    .fil76 {fill:#458BC9;fill-opacity:0.184314}
    .fil148 {fill:#DB6DDB;fill-opacity:0.188235}
    .fil75 {fill:#458BC9;fill-opacity:0.196078}
    .fil113 {fill:#BAE8FF;fill-opacity:0.196078}
    .fil39 {fill:#C4EBFF;fill-opacity:0.196078}
    .fil74 {fill:#458BC9;fill-opacity:0.203922}
    .fil112 {fill:#BAE8FF;fill-opacity:0.211765}
    .fil38 {fill:#C4EBFF;fill-opacity:0.211765}
    .fil73 {fill:#458BC9;fill-opacity:0.215686}
    .fil129 {fill:#396DA6;fill-opacity:0.219608}
    .fil128 {fill:#A0DFFF;fill-opacity:0.219608}
    .fil161 {fill:#FF87FF;fill-opacity:0.219608}
    .fil72 {fill:#458BC9;fill-opacity:0.223529}
    .fil111 {fill:#BAE8FF;fill-opacity:0.227451}
    .fil37 {fill:#C4EBFF;fill-opacity:0.227451}
    .fil71 {fill:#458BC9;fill-opacity:0.235294}
    .fil110 {fill:#BAE8FF;fill-opacity:0.243137}
    .fil36 {fill:#C4EBFF;fill-opacity:0.243137}
    .fil70 {fill:#458BC9;fill-opacity:0.247059}
    .fil149 {fill:#DF72DF;fill-opacity:0.250980}
    .fil141 {fill:#F07DF0;fill-opacity:0.250980}
    .fil69 {fill:#458BC9;fill-opacity:0.254902}
    .fil109 {fill:#BAE8FF;fill-opacity:0.258824}
    .fil35 {fill:#C4EBFF;fill-opacity:0.258824}
    .fil68 {fill:#458BC9;fill-opacity:0.266667}
    .fil108 {fill:#BAE8FF;fill-opacity:0.274510}
    .fil34 {fill:#C4EBFF;fill-opacity:0.274510}
    .fil67 {fill:#458BC9;fill-opacity:0.274510}
    .fil66 {fill:#458BC9;fill-opacity:0.286275}
    .fil107 {fill:#BAE8FF;fill-opacity:0.286275}
    .fil33 {fill:#C4EBFF;fill-opacity:0.286275}
    .fil65 {fill:#458BC9;fill-opacity:0.298039}
    .fil106 {fill:#BAE8FF;fill-opacity:0.301961}
    .fil32 {fill:#C4EBFF;fill-opacity:0.301961}
    .fil64 {fill:#458BC9;fill-opacity:0.305882}
    .fil150 {fill:#E376E3;fill-opacity:0.313725}
    .fil63 {fill:#458BC9;fill-opacity:0.317647}
    .fil105 {fill:#BAE8FF;fill-opacity:0.317647}
    .fil31 {fill:#C4EBFF;fill-opacity:0.317647}
    .fil62 {fill:#458BC9;fill-opacity:0.325490}
    .fil104 {fill:#BAE8FF;fill-opacity:0.333333}
    .fil30 {fill:#C4EBFF;fill-opacity:0.333333}
    .fil142 {fill:#F07DF0;fill-opacity:0.333333}
    .fil61 {fill:#458BC9;fill-opacity:0.337255}
    .fil60 {fill:#458BC9;fill-opacity:0.349020}
    .fil103 {fill:#BAE8FF;fill-opacity:0.349020}
    .fil29 {fill:#C4EBFF;fill-opacity:0.349020}
    .fil59 {fill:#458BC9;fill-opacity:0.356863}
    .fil102 {fill:#BAE8FF;fill-opacity:0.364706}
    .fil28 {fill:#C4EBFF;fill-opacity:0.364706}
    .fil58 {fill:#458BC9;fill-opacity:0.368627}
    .fil151 {fill:#E77BE7;fill-opacity:0.376471}
    .fil57 {fill:#458BC9;fill-opacity:0.380392}
    .fil101 {fill:#BAE8FF;fill-opacity:0.380392}
    .fil27 {fill:#C4EBFF;fill-opacity:0.380392}
    .fil56 {fill:#458BC9;fill-opacity:0.388235}
    .fil100 {fill:#BAE8FF;fill-opacity:0.392157}
    .fil26 {fill:#C4EBFF;fill-opacity:0.392157}
    .fil55 {fill:#458BC9;fill-opacity:0.400000}
    .fil99 {fill:#BAE8FF;fill-opacity:0.407843}
    .fil25 {fill:#C4EBFF;fill-opacity:0.407843}
    .fil54 {fill:#458BC9;fill-opacity:0.407843}
    .fil143 {fill:#F07DF0;fill-opacity:0.415686}
    .fil53 {fill:#458BC9;fill-opacity:0.419608}
    .fil98 {fill:#BAE8FF;fill-opacity:0.423529}
    .fil24 {fill:#C4EBFF;fill-opacity:0.423529}
    .fil52 {fill:#458BC9;fill-opacity:0.431373}
    .fil152 {fill:#EB7FEB;fill-opacity:0.439216}
    .fil97 {fill:#BAE8FF;fill-opacity:0.439216}
    .fil23 {fill:#C4EBFF;fill-opacity:0.439216}
    .fil14 {fill:#A4A5A7;fill-opacity:0.439216}
    .fil96 {fill:#BAE8FF;fill-opacity:0.454902}
    .fil22 {fill:#C4EBFF;fill-opacity:0.454902}
    .fil95 {fill:#BAE8FF;fill-opacity:0.470588}
    .fil21 {fill:#C4EBFF;fill-opacity:0.470588}
    .fil94 {fill:#BAE8FF;fill-opacity:0.486275}
    .fil20 {fill:#C4EBFF;fill-opacity:0.486275}
    .fil144 {fill:#F07DF0;fill-opacity:0.501961}
    .fil153 {fill:#F085F0;fill-opacity:0.501961}
    .fil130 {fill:url(#id0)}
    .fil17 {fill:url(#id1)}
    .fil155 {fill:url(#id2)}
    .fil19 {fill:url(#id3)}
    .fil16 {fill:url(#id4)}
    .fil15 {fill:url(#id5)}
    .fil127 {fill:url(#id6);fill-rule:nonzero}
    .fil160 {fill:url(#id7);fill-opacity:0.501961}
   
  </style>
  <linearGradient
   id="id0"
   gradientUnits="userSpaceOnUse"
   x1="11.5465"
   y1="20.7308"
   x2="11.5465"
   y2="5.15995">
   <stop
   offset="0"
   style="stop-color:#7F7F7F"
   id="stop3533" />
   <stop
   offset="1"
   style="stop-color:#999999"
   id="stop3535" />
  </linearGradient>
  <linearGradient
   id="id1"
   gradientUnits="userSpaceOnUse"
   x1="11.642"
   y1="3.70378"
   x2="11.2012"
   y2="12.6265">
   <stop
   offset="0"
   style="stop-color:#EDEDED"
   id="stop3538" />
   <stop
   offset="1"
   style="stop-color:#D1CFCF"
   id="stop3540" />
  </linearGradient>
  <linearGradient
   id="id2"
   gradientUnits="userSpaceOnUse"
   x1="19.0393"
   y1="11.1272"
   x2="15.0167"
   y2="19.587">
   <stop
   offset="0"
   style="stop-color:#939393"
   id="stop3543" />
   <stop
   offset="1"
   style="stop-color:#7F7F7F"
   id="stop3545" />
  </linearGradient>
  <linearGradient
   id="id3"
   gradientUnits="userSpaceOnUse"
   x1="11.5467"
   y1="9.60896"
   x2="11.5467"
   y2="16.282">
   <stop
   offset="0"
   style="stop-color:#5CA2DA"
   id="stop3548" />
   <stop
   offset="1"
   style="stop-color:#84C1F0"
   id="stop3550" />
  </linearGradient>
  <linearGradient
   id="id4"
   gradientUnits="userSpaceOnUse"
   x1="11.5122"
   y1="17.1098"
   x2="11.4044"
   y2="9.8105">
   <stop
   offset="0"
   style="stop-color:#B0B0B0"
   id="stop3553" />
   <stop
   offset="1"
   style="stop-color:#CCCCCC"
   id="stop3555" />
  </linearGradient>
  <linearGradient
   id="id5"
   gradientUnits="userSpaceOnUse"
   xlink:href="#id4"
   x1="11.6797"
   y1="16.4606"
   x2="11.5816"
   y2="9.31529">
  </linearGradient>
  <linearGradient
   id="id6"
   gradientUnits="userSpaceOnUse"
   x1="11.6233"
   y1="22.9628"
   x2="11.6233"
   y2="2.96138">
   <stop
   offset="0"
   style="stop-color:#919191"
   id="stop3559" />
   <stop
   offset="1"
   style="stop-color:#B2B2B2"
   id="stop3561" />
  </linearGradient>
  <linearGradient
   id="id7"
   gradientUnits="userSpaceOnUse"
   x1="13.2603"
   y1="6.71363"
   x2="17.2056"
   y2="13.5792">
   <stop
   offset="0"
   style="stop-color:#ECA6F3"
   id="stop3564" />
   <stop
   offset="1"
   style="stop-color:#D594E9"
   id="stop3566" />
  </linearGradient>
 </defs>
 <g
   id="Слой_x0020_1">
  <metadata
   id="CorelCorpID_0Corel-Layer" />
  <g
   id="_294094464">
   <path
   id="_294085704"
   class="fil0"
   d="M11.3307 20.5017c7.5354,-0.293955 10.9058,0.324286 12.3708,1.18404l0 2.28191c-0.068032,0.012756 -0.138899,0.0243781 -0.2126,0.0354333l-23.1315 0 0 -2.05117c1.43292,-0.633548 4.48444,-1.19736 10.9733,-1.45022z" />
   <g
   id="g3572">
    <path
   id="_294104208"
   class="fil1"
   d="M11.3577 20.6786c7.54334,-0.283467 10.9191,0.371058 12.3438,1.24073l0 2.00808c-0.149954,0.0294805 -0.315499,0.0544256 -0.496634,0.0756856l-22.8474 0 0 -1.85274c1.39069,-0.642619 4.4269,-1.22486 11.0002,-1.47176z" />
    <path
   id="_294084456"
   class="fil2"
   d="M11.384 20.8558c7.5303,-0.271561 10.933,0.417263 12.3175,1.28949l0 1.74219c-0.238963,0.0501736 -0.524697,0.0875912 -0.852668,0.115654l-22.4914 0 0 -1.66083c1.35384,-0.648005 4.38863,-1.24725 11.0266,-1.4865z" />
    <path
   id="_294092760"
   class="fil3"
   d="M11.411 21.033c7.49316,-0.257388 10.9492,0.4612 12.2906,1.32804l0 1.48707c-0.342711,0.076536 -0.797676,0.125292 -1.34817,0.155056l-6.55942 0c-0.613422,-0.00368507 -1.24329,-0.00453547 -1.88505,0l-13.4953 0 -0.0561264 -0.0093544 0 -1.46864c1.32209,-0.648572 4.37531,-1.26256 11.0535,-1.49217z" />
    <path
   id="_294108792"
   class="fil4"
   d="M11.4373 21.2101c7.43193,-0.241514 10.9724,0.50287 12.2642,1.35611l0 1.243c-0.496067,0.119056 -1.27844,0.172915 -2.27,0.193891l-2.96478 0c-1.8808,-0.0192757 -4.06548,-0.0513075 -6.32131,0l-11.4013 0c-0.140316,-0.0167245 -0.269293,-0.0348664 -0.386649,-0.0549926l0 -1.25094c1.29289,-0.64347 4.39175,-1.26965 11.0799,-1.48707z" />
    <path
   id="_294102816"
   class="fil5"
   d="M11.464 21.387c7.34689,-0.223655 11.0096,0.540855 12.2375,1.37198l0 1.01169c-1.54773,0.402806 -6.56311,0.0858904 -11.8767,0.212317l-0.849833 0.0201261 -9.78045 0c-0.327688,-0.0266459 -0.608036,-0.0598115 -0.837077,-0.0997803l0 -1.04599c1.26426,-0.632414 4.44107,-1.26738 11.1065,-1.47034z" />
    <path
   id="_294088296"
   class="fil6"
   d="M11.4903 21.5645c7.24229,-0.203813 11.0702,0.576288 12.2112,1.37708l0 0.790872c-1.39012,0.401672 -6.49026,0.109135 -11.8665,0.222521 -0.805896,0.017008 -1.60244,0.0334491 -2.37885,0.0481894l-7.5646 0c-0.648289,-0.0308979 -1.17015,-0.077103 -1.53412,-0.142017l0 -0.855786c1.22968,-0.61569 4.5247,-1.25462 11.1329,-1.44086z" />
    <path
   id="_294085512"
   class="fil7"
   d="M11.5175 21.7419c7.12154,-0.182553 11.1675,0.608887 12.184,1.37085l0 0.582524c-1.19566,0.397704 -6.40068,0.131245 -11.8554,0.231592 -1.75239,0.0323152 -3.46538,0.0617958 -5.02246,0.0762526l-3.31429 0c-1.44766,-0.0198427 -2.55999,-0.0739848 -3.15187,-0.182553l0 -0.679753c1.18206,-0.592729 4.64092,-1.23223 11.1601,-1.39891z" />
    <path
   id="_294084696"
   class="fil8"
   d="M11.5439 21.9194c7.01325,-0.159308 11.3452,0.644887 12.1576,1.36121l0 0.375027c-0.921834,0.395153 -6.27114,0.156757 -11.8452,0.243215 -5.22543,0.081355 -10.1492,0.140033 -11.4988,-0.116788l0 -0.517894c1.11147,-0.563815 4.78747,-1.19991 11.1865,-1.34477z" />
    <path
   id="_294097224"
   class="fil9"
   d="M11.5705 22.0962c7.01212,-0.136348 11.7608,0.706683 12.131,1.3717l0 0.130962c-0.40309,0.411877 -6.018,0.198143 -11.8347,0.271561 -5.30026,0.0668982 -10.3451,0.110552 -11.5093,-0.124442l0 -0.369641c1.00035,-0.529799 4.95783,-1.15881 11.2131,-1.28014z" />
    <path
   id="_294102864"
   class="fil10"
   d="M11.5969 22.2734c6.79385,-0.1063 12.0009,0.716604 12.0128,1.3065 0.0116221,0.374176 -5.77875,0.20523 -11.7324,0.262207 -5.41053,0.0521579 -10.6153,0.0802211 -11.5198,-0.129261l0 -0.230175c0.810999,-0.490964 5.13188,-1.11402 11.2395,-1.20927z" />
    <path
   id="_294104424"
   class="fil11"
   d="M11.6238 22.4506c6.29353,-0.0708667 11.862,0.656793 11.8699,1.16193 0.00793707,0.267309 -5.74474,0.16356 -11.6057,0.201545 -5.63249,0.0368507 -11.111,0.047339 -11.5306,-0.135781l0 -0.0805046c0.394302,-0.44646 5.23535,-1.07944 11.2664,-1.14719z" />
    <path
   id="_294088200"
   class="fil12"
   d="M11.6505 22.6277c5.79321,-0.0354333 11.7236,0.597265 11.7276,1.01708 0.00368507,0.161009 -5.71072,0.122174 -11.4796,0.140883 -5.76912,0.0192757 -11.4557,0.0110552 -11.4557,-0.117922 0,-0.391184 5.41365,-1.00461 11.2077,-1.04004z" />
   </g>
   <path
   id="_294084264"
   class="fil13"
   d="M11.6766 22.8052c5.29374,0 11.5856,0.537453 11.5856,0.872511 0,0.109135 -22.7071,0.104883 -22.7071,0.00311813 0,-0.334774 5.82779,-0.875629 11.1215,-0.875629z" />
  </g>
  <path
   class="fil14"
   d="M0.593013 3.53455c0.164411,-0.179718 0.251719,-0.450429 0.51591,-0.485295l0.181419 0.397987 -0.777266 0.964638 0.0799376 -0.87733z"
   id="path3587" />
  <path
   class="fil15"
   d="M1.68691 3.1255l19.8875 0c0.60832,0 1.10665,0.519595 1.10665,1.14832l0 17.2274c0,0.629863 -0.498902,1.14917 -1.10665,1.14917 -7.28736,0 -7.45716,0 -19.8875,0 -0.607186,0 -1.10637,-0.517043 -1.10637,-1.14917l0 -17.2274c0,-0.631564 0.498051,-1.14832 1.10637,-1.14832z"
   id="path3589" />
  <path
   class="fil16"
   d="M1.65403 4.4955l19.6085 0c0.631847,0 1.14889,0.520729 1.14889,1.14832l0 15.6318c0,0.628446 -0.517894,1.14917 -1.14889,1.14917 -7.56545,0 -6.70427,0 -19.6085,0 -0.63043,0 -1.14861,-0.517043 -1.14861,-1.14917l0 -15.6318c0,-0.631847 0.51676,-1.14832 1.14861,-1.14832z"
   id="path3591" />
  <path
   class="fil17"
   d="M22.3746 10.7216c-5.06498,1.56105 -16.0998,1.15116 -21.906,0.842463l0 -6.3678c0,-0.631847 0.51676,-1.14861 1.14832,-1.14861l19.6088 0c0.632131,0 1.14889,0.520729 1.14889,1.14861l0 5.52533z"
   id="path3593" />
  <path
   class="fil18"
   d="M1.96499 21.0196l-0.123308 0.134647m20.4402 -0.0147403l-0.138048 -0.121891"
   id="path3595" />
  <path
   class="fil19"
   d="M2.07554 5.87428l-0.0198427 14.1926c0.0374176,0.475657 0.638084,0.822904 1.06839,0.821487l16.9306 -0.0788038c0.621076,-0.0172915 0.904543,-0.433704 0.925519,-0.979945l0.0572603 -13.9386c0,-0.575438 -0.342995,-0.889519 -0.960669,-0.889802l-16.9961 0.000283467c-0.570619,0 -1.00546,0.301325 -1.00517,0.872794z"
   id="path3597" />
  <g
   id="_103952384">
   <g
   id="g3600">
    <path
   id="_294091560"
   class="fil20"
   d="M2.30912 13.1891c0.178868,-0.0379846 0.358586,-0.0711502 0.53887,-0.0980795 1.46552,-0.229041 2.96506,-0.0683155 4.38268,0.790872 0.810432,0.496917 1.54574,0.956417 2.20424,1.37226 3.55609,2.30345 4.65056,3.00702 7.44781,2.10956 1.10382,-0.337325 2.64021,-1.31614 4.25597,-2.06817l-0.0008504 0.168663c-1.5996,0.747785 -3.12069,1.71639 -4.21487,2.05145 -2.85593,0.918999 -3.96457,0.209482 -7.56233,-2.12317 -0.649139,-0.410176 -1.37481,-0.86429 -2.19885,-1.37 -1.3476,-0.812132 -2.79697,-0.960669 -4.23018,-0.740415 -0.207781,0.0317483 -0.415846,0.0708667 -0.622777,0.117355l0.000283467 -0.210332z" />
    <path
   id="_294108288"
   class="fil21"
   d="M2.30884 13.423c0.238112,-0.0504571 0.477358,-0.0926936 0.717454,-0.12671 1.47034,-0.20523 2.96818,-0.0572603 4.396,0.767061 0.810432,0.474523 1.5585,0.920984 2.2374,1.33173 3.49741,2.24647 4.62221,2.95089 7.38601,2.12628 1.07604,-0.293105 2.54752,-1.17128 4.09128,-1.84962l-0.000566934 0.162993c-1.53129,0.679186 -2.99171,1.54971 -4.05698,1.84083 -2.82078,0.8487 -3.95748,0.133513 -7.49373,-2.13791 -0.670682,-0.405641 -1.4077,-0.846999 -2.2323,-1.33173 -1.35724,-0.7784 -2.80802,-0.915031 -4.24718,-0.71547 -0.266742,0.0377011 -0.532634,0.0853235 -0.797676,0.14145l0.000283467 -0.208915z" />
    <path
   id="_294086760"
   class="fil22"
   d="M2.30855 13.6492c0.297073,-0.0586776 0.595847,-0.108001 0.895755,-0.145985 1.47544,-0.185954 2.97243,-0.0450712 4.40876,0.739281 0.812132,0.456665 1.56956,0.889519 2.26915,1.29516 3.44185,2.1844 4.59556,2.89561 7.3228,2.13876 1.04798,-0.24775 2.45766,-1.02615 3.93055,-1.6339l-0.000566934 0.157041c-1.46212,0.60917 -2.86103,1.38445 -3.9005,1.63249 -2.78308,0.77925 -3.94359,0.0612288 -7.42485,-2.14925 -0.689958,-0.401389 -1.43718,-0.830274 -2.25866,-1.29629 -1.37226,-0.739848 -2.82135,-0.864857 -4.27014,-0.688541 -0.325703,0.0402523 -0.649989,0.0938275 -0.972575,0.157891l0.000283467 -0.206647z" />
    <path
   id="_294108984"
   class="fil23"
   d="M2.30827 13.87c0.356034,-0.0651974 0.71462,-0.119056 1.07547,-0.158458 1.48026,-0.168379 2.9747,-0.0368507 4.42208,0.709801 0.809298,0.437106 1.58231,0.857204 2.29778,1.26029 3.38828,2.12402 4.5692,2.83835 7.26242,2.15151 1.02076,-0.204946 2.36553,-0.890936 3.76812,-1.42981l-0.000283467 0.154206c-1.39409,0.539721 -2.73092,1.22458 -3.74318,1.43179 -2.74509,0.708667 -3.93452,-0.0121891 -7.35681,-2.16002 -0.7081,-0.399121 -1.46779,-0.81355 -2.28871,-1.25944 -1.38247,-0.705832 -2.83523,-0.823188 -4.28942,-0.663596 -0.384098,0.0408192 -0.767345,0.0972291 -1.14776,0.165545l0.000283467 -0.201828z" />
    <path
   id="_294107712"
   class="fil24"
   d="M2.30799 14.0815c0.416129,-0.0668982 0.834243,-0.122458 1.25491,-0.162426 1.48452,-0.146552 2.97867,-0.0286301 4.4337,0.681738 0.812699,0.417263 1.59478,0.824888 2.33208,1.22316 3.32932,2.06279 4.54,2.78251 7.19921,2.1654 0.988449,-0.164978 2.27142,-0.759974 3.60513,-1.23081l-0.0008504 0.149954c-1.32719,0.474523 -2.60336,1.07179 -3.585,1.23903 -2.70881,0.637233 -3.92828,-0.0884416 -7.28992,-2.17391 -0.726242,-0.392318 -1.49897,-0.794274 -2.31677,-1.22174 -1.39636,-0.670399 -2.84969,-0.776699 -4.31096,-0.6378 -0.442492,0.0416696 -0.882999,0.097796 -1.32181,0.165261l0.000283467 -0.19786z" />
    <path
   id="_294103104"
   class="fil25"
   d="M2.3077 14.2836c0.47509,-0.0640635 0.951315,-0.118206 1.43236,-0.158174 1.49189,-0.125009 2.98349,-0.0172915 4.44901,0.656226 0.810432,0.397704 1.60782,0.79229 2.35929,1.18461 3.27659,2.00496 4.51619,2.72638 7.13968,2.18128 0.958968,-0.127277 2.17788,-0.636383 3.44355,-1.04287l-0.000566934 0.146269c-1.26029,0.41046 -2.47637,0.924385 -3.43023,1.05478 -2.66742,0.566083 -3.91241,-0.159875 -7.22075,-2.18723 -0.744667,-0.388066 -1.5293,-0.77925 -2.34512,-1.18319 -1.40741,-0.635816 -2.86188,-0.731344 -4.32939,-0.612572 -0.501453,0.038268 -1.00064,0.0924102 -1.49784,0.15534l0 -0.194458z" />
    <path
   id="_294092472"
   class="fil26"
   d="M2.3077 14.4744c0.534902,-0.055843 1.07094,-0.10545 1.61151,-0.142584 1.49784,-0.105166 2.98689,-0.00822054 4.46262,0.63043 0.808447,0.377011 1.61689,0.757707 2.39076,1.14747 3.22018,1.94345 4.48813,2.66941 7.07647,2.19488 0.926936,-0.0901424 2.08348,-0.519878 3.28113,-0.86344l-0.000566934 0.145135c-1.19396,0.349231 -2.34796,0.782652 -3.27206,0.877046 -2.63029,0.494933 -3.90305,-0.234144 -7.1513,-2.19885 -0.76451,-0.384098 -1.5619,-0.761959 -2.3763,-1.14747 -1.4213,-0.598682 -2.87549,-0.685706 -4.3515,-0.58791 -0.55928,0.0377011 -1.11459,0.0839062 -1.67104,0.13493l0.000283467 -0.189639z" />
    <path
   id="_294100584"
   class="fil27"
   d="M2.30742 14.6547c0.595564,-0.0413862 1.18999,-0.0819219 1.79208,-0.115938 1.49897,-0.0841896 2.98632,0 4.47566,0.603217 0.807597,0.357452 1.62738,0.725108 2.41967,1.11034 3.16264,1.8842 4.46092,2.6147 7.01354,2.20821 0.893204,-0.0544256 1.98909,-0.406775 3.12069,-0.691376l-0.000566934 0.141733c-1.13018,0.289703 -2.22606,0.650273 -3.11587,0.708667 -2.59174,0.427468 -3.89285,-0.307561 -7.0827,-2.21019 -0.783786,-0.378712 -1.59308,-0.744951 -2.40408,-1.10779 -1.43548,-0.566367 -2.88909,-0.640352 -4.37304,-0.564382 -0.616824,0.0303309 -1.22968,0.0663312 -1.84565,0.101198l0.000283467 -0.183686z" />
    <path
   id="_294083448"
   class="fil28"
   d="M2.30714 14.8213c0.657926,-0.0204096 1.30962,-0.047339 1.96896,-0.0748352 1.50634,-0.06378 2.99454,0.0107717 4.48898,0.576571 0.807597,0.334774 1.64212,0.690525 2.45312,1.0715 3.10708,1.82212 4.43512,2.5563 6.95174,2.22408 0.858621,-0.0238112 1.89299,-0.304727 2.95769,-0.5315l-0.000566934 0.140883c-1.06555,0.23301 -2.10106,0.521012 -2.95798,0.550209 -2.55574,0.35405 -3.88378,-0.381546 -7.01495,-2.22521 -0.801077,-0.37446 -1.62228,-0.729077 -2.43413,-1.06952 -1.44483,-0.530083 -2.89987,-0.595847 -4.3926,-0.538303 -0.675218,0.0243781 -1.34448,0.0456382 -2.02055,0.0572603l0.000283467 -0.181135z" />
    <path
   id="_294087648"
   class="fil29"
   d="M2.30685 14.9753c0.720856,0.00708667 1.43094,0 2.14754,-0.0223939 1.51371,-0.0416696 2.99624,0.0221104 4.50315,0.550493 0.807597,0.316632 1.65545,0.65736 2.48289,1.03295 3.0518,1.7643 4.40819,2.50159 6.88994,2.23769 0.823188,0.0068032 1.79661,-0.209765 2.79612,-0.383247l-0.000566934 0.1423c-1.00177,0.180001 -1.97831,0.405358 -2.8015,0.404791 -2.51832,0.280916 -3.87386,-0.457515 -6.94862,-2.24024 -0.815534,-0.370208 -1.64779,-0.709517 -2.46078,-1.03125 -1.45844,-0.493799 -2.91461,-0.549359 -4.41244,-0.513642 -0.733045,0.0181419 -1.45702,0.0198427 -2.19602,0.0008504l0.000283467 -0.178301z" />
    <path
   id="_294088560"
   class="fil30"
   d="M2.30657 15.1153c0.784353,0.0428035 1.55141,0.0572603 2.32726,0.0453547 1.51768,-0.0223939 3.00135,0.0308979 4.51364,0.522146 0.808731,0.295939 1.66764,0.625895 2.51633,0.996102 2.99454,1.70392 4.3807,2.44348 6.82758,2.25328 0.78577,0.0334491 1.6991,-0.121607 2.63397,-0.245199l-0.000566934 0.139749c-0.938559,0.130395 -1.85671,0.295656 -2.64361,0.267309 -2.48118,0.212884 -3.86365,-0.53065 -6.88031,-2.25016 -0.836227,-0.365105 -1.67926,-0.691942 -2.48799,-0.996102 -1.47403,-0.457232 -2.93105,-0.502587 -4.43739,-0.487846 -0.78662,0.00708667 -1.56615,-0.0153072 -2.36893,-0.0702998l0 -0.174332z" />
    <path
   id="_294089520"
   class="fil31"
   d="M2.30657 15.2412c0.851251,0.0839062 1.67359,0.12671 2.50726,0.12671 1.52137,-0.0025512 3.00135,0.0399688 4.52725,0.4955 0.804195,0.27638 1.67841,0.592729 2.54496,0.957834 2.94097,1.64439 4.35292,2.38991 6.76465,2.2683 0.746652,0.055843 1.60187,-0.04252 2.47381,-0.11934l-0.0008504 0.142584c-0.877897,0.0833392 -1.73879,0.191624 -2.48912,0.137198 -2.44178,0.143718 -3.85203,-0.602083 -6.81171,-2.26207 -0.852668,-0.361704 -1.70817,-0.675218 -2.51492,-0.957267 -1.48678,-0.422366 -2.94437,-0.456665 -4.4578,-0.461484 -0.84218,-0.0034016 -1.67699,-0.0561264 -2.54383,-0.156757l0.000283467 -0.171214z" />
    <path
   id="_294087168"
   class="fil32"
   d="M2.30629 15.3551c0.918149,0.133229 1.79406,0.209765 2.68556,0.219687 1.52505,0.0195592 3.0056,0.051024 4.54,0.468854 0.808447,0.254553 1.69116,0.557863 2.57671,0.921551 2.88541,1.58345 4.32797,2.33236 6.70512,2.27992 0.704698,0.0802211 1.50096,0.0289136 2.30969,-0.0059528l-0.000566934 0.143718c-0.816951,0.0413862 -1.62086,0.100914 -2.33151,0.0257955 -2.40493,0.0734179 -3.84154,-0.676635 -6.74424,-2.27567 -0.871377,-0.356318 -1.73992,-0.657926 -2.54411,-0.921267 -1.50011,-0.387783 -2.95798,-0.40961 -4.47707,-0.434838 -0.898306,-0.0155907 -1.78471,-0.103749 -2.71986,-0.25512l0.000283467 -0.166678z" />
    <path
   id="_294085584"
   class="fil33"
   d="M2.30629 15.4529c0.988732,0.189923 1.91935,0.306144 2.86273,0.329955 1.53157,0.0385515 3.01269,0.0578272 4.55815,0.440507 0.804762,0.234427 1.69938,0.526114 2.60421,0.883566 2.829,1.52392 4.30019,2.27709 6.64134,2.29466 0.665297,0.0972291 1.40203,0.0901424 2.14953,0.0943944l-0.000566934 0.129544 -0.0008504 0.017008c-0.756856,0.0025512 -1.50322,0.0181419 -2.17447,-0.0768195 -2.36666,0.0025512 -3.8319,-0.74977 -6.67451,-2.28843 -0.89207,-0.351215 -1.7711,-0.638934 -2.57445,-0.882716 -1.51059,-0.350081 -2.96988,-0.363971 -4.49692,-0.411594 -0.951598,-0.0286301 -1.89101,-0.155623 -2.89448,-0.363971l0.000283467 -0.166112z" />
    <path
   id="_294087768"
   class="fil34"
   d="M2.306 15.5371c1.0596,0.25512 2.04521,0.414145 3.04217,0.450996 1.53667,0.0586776 3.01665,0.0700163 4.56807,0.414428 0.807597,0.214868 1.71412,0.494083 2.63766,0.847849 2.77429,1.46269 4.27241,2.21926 6.57841,2.30827 0.620225,0.113387 1.29573,0.143718 1.98058,0.180568 -0.0059528,0.0507406 -0.0144568,0.0994968 -0.0257955,0.146552 -0.686557,-0.0300475 -1.36404,-0.0527248 -1.98313,-0.16186 -2.3284,-0.068032 -3.82453,-0.823188 -6.60931,-2.29892 -0.907661,-0.350648 -1.79973,-0.625328 -2.60251,-0.847566 -1.52307,-0.315782 -2.98264,-0.31805 -4.51704,-0.384381 -1.00517,-0.043087 -1.99646,-0.217419 -3.0691,-0.491815l0 -0.164127z" />
    <path
   id="_294088104"
   class="fil35"
   d="M2.306 15.606c1.13585,0.325136 2.16937,0.536886 3.2216,0.591312 1.54291,0.077103 3.01694,0.077103 4.58196,0.386932 0.805046,0.193324 1.72546,0.459216 2.66771,0.807597 2.71788,1.40344 4.24633,2.16455 6.51747,2.32528 0.56013,0.12104 1.16193,0.181135 1.77138,0.244065 -0.0161576,0.0518744 -0.0362838,0.101198 -0.0603784,0.147403 -0.600666,-0.0561264 -1.19453,-0.112253 -1.74672,-0.228191 -2.29098,-0.138899 -3.81206,-0.896322 -6.53986,-2.3111 -0.925803,-0.343562 -1.83176,-0.607469 -2.63284,-0.809298 -1.53582,-0.280632 -2.99596,-0.272695 -4.53717,-0.360853 -1.05506,-0.0603784 -2.09709,-0.282333 -3.24343,-0.626178l0.000283467 -0.166962z" />
    <path
   id="_294102408"
   class="fil36"
   d="M2.306 15.6621c1.21125,0.404224 2.29693,0.670399 3.39905,0.741266 1.54858,0.0989299 3.02176,0.0890086 4.59641,0.359152 0.803345,0.1766 1.73964,0.430019 2.69804,0.771597 2.65977,1.34392 4.21997,2.10956 6.45539,2.33747 0.487279,0.123308 1.00262,0.205797 1.52335,0.286301l-0.00651974 0.0110552c-0.0731344,0.0167245 -0.152789,0.0257955 -0.238963,0.0283467l-0.520729 0.00226773c-0.271278,-0.0459216 -0.537737,-0.0975126 -0.796258,-0.161009 -2.25328,-0.208915 -3.80327,-0.971724 -6.47325,-2.32528 -0.945929,-0.337892 -1.86266,-0.589611 -2.65977,-0.770463 -1.55085,-0.245199 -3.00843,-0.22734 -4.55928,-0.334774 -1.10495,-0.0776699 -2.19488,-0.356885 -3.41776,-0.778967l0.000283467 -0.166962z" />
    <path
   id="_294095496"
   class="fil37"
   d="M2.306 15.7063c1.29176,0.488413 2.42563,0.81355 3.57593,0.905109 1.55595,0.119056 3.02799,0.097796 4.61115,0.331373 0.803345,0.154489 1.74984,0.39572 2.72893,0.733612 2.60704,1.28269 4.19247,2.05088 6.39473,2.35419 0.215435,0.0620792 0.436255,0.117072 0.659344,0.168663l-0.689958 0.00311813 -0.0161576 -0.00481894c-2.21359,-0.281199 -3.79194,-1.04514 -6.40181,-2.3386 -0.965204,-0.335341 -1.89384,-0.573737 -2.69208,-0.734462 -1.56105,-0.208915 -3.01949,-0.180852 -4.57771,-0.31068 -1.15484,-0.0943944 -2.29268,-0.434271 -3.59266,-0.942244l0.000283467 -0.165261z" />
    <path
   id="_294094704"
   class="fil38"
   d="M2.30572 15.7358c1.3734,0.581674 2.5546,0.973708 3.75594,1.08256 1.55765,0.139749 3.02998,0.107717 4.62164,0.30416 0.804762,0.13493 1.76316,0.363688 2.76153,0.697895 2.55007,1.22174 4.16469,1.99447 6.33066,2.36638l0.0442208 0.0141733 -0.873645 0.00396854c-1.80625,-0.398838 -3.31486,-1.12111 -5.55538,-2.20169 -0.981362,-0.330239 -1.92304,-0.555595 -2.71986,-0.695061 -1.57097,-0.175182 -3.03366,-0.136064 -4.59953,-0.284317 -1.2019,-0.114804 -2.38651,-0.518461 -3.76557,-1.11686l0 -0.171214z" />
    <path
   id="_294092904"
   class="fil39"
   d="M2.30572 15.7542c1.45844,0.680037 2.68641,1.14152 3.93679,1.2705 1.56162,0.16186 3.03309,0.118206 4.63412,0.277797 0.801361,0.115371 1.77365,0.329388 2.79186,0.659627 2.24704,1.04911 3.80469,1.78329 5.65119,2.24109l-0.706683 0.0025512c-1.57976,-0.449295 -3.01694,-1.12791 -5.00092,-2.05684 -0.996953,-0.325703 -1.9494,-0.537737 -2.74594,-0.65821 -1.58543,-0.139466 -3.0484,-0.0912763 -4.61852,-0.261923 -1.24952,-0.133229 -2.47977,-0.607469 -3.94217,-1.30111l0.000283467 -0.173482z" />
    <path
   id="_294092664"
   class="fil40"
   d="M2.30572 15.7613c1.54688,0.783219 2.81936,1.32039 4.1131,1.46921 1.56927,0.18312 3.03735,0.128977 4.64942,0.253986 0.803345,0.0924102 1.78726,0.294239 2.82248,0.619091 2.0095,0.910779 3.49911,1.59932 5.13387,2.10106l-0.619091 0.00198427c-1.42499,-0.47339 -2.78903,-1.10467 -4.56778,-1.91397 -1.01793,-0.320884 -1.98058,-0.520162 -2.77571,-0.619658 -1.59819,-0.103749 -3.06116,-0.0445043 -4.64063,-0.235844 -1.29374,-0.155056 -2.56849,-0.702147 -4.11594,-1.49982l0.000283467 -0.176033z" />
    <path
   id="_294114720"
   class="fil41"
   d="M2.30572 15.7574c1.63589,0.89122 2.95259,1.51059 4.2931,1.68181 1.57437,0.202395 3.03791,0.136914 4.66189,0.224506 0.80051,0.0742683 1.79831,0.263341 2.85253,0.584225 1.81447,0.79314 3.23464,1.43718 4.71774,1.95734l-0.571753 0.00198427c-1.30225,-0.477358 -2.5923,-1.06187 -4.19814,-1.77138 -1.03494,-0.314648 -2.01148,-0.501169 -2.80207,-0.579973 -1.61349,-0.0708667 -3.07647,0.000566934 -4.66218,-0.210049 -1.33881,-0.176316 -2.65665,-0.803912 -4.2914,-1.7076l0.000283467 -0.180852z" />
    <path
   id="_294099120"
   class="fil42"
   d="M2.30572 15.7412c1.72801,1.00631 3.08837,1.71072 4.46914,1.90461 1.58061,0.223655 3.0467,0.14797 4.67834,0.196726 0.800794,0.0561264 1.8105,0.231592 2.88314,0.547091 1.64694,0.696761 2.99568,1.29459 4.36114,1.81617l-0.542839 0.00198427c-1.20275,-0.469988 -2.41627,-1.00687 -3.86932,-1.62483 -1.05421,-0.31153 -2.04295,-0.486996 -2.83127,-0.545674 -1.62398,-0.0331656 -3.08922,0.0476224 -4.68344,-0.182553 -1.38247,-0.200978 -2.74197,-0.909645 -4.46517,-1.92389l0.000283467 -0.189639z" />
    <path
   id="_294115008"
   class="fil43"
   d="M2.30572 15.7174c1.82383,1.12366 3.22387,1.91709 4.65084,2.13649 1.58203,0.242081 3.0467,0.157608 4.68741,0.169513 0.800794,0.0334491 1.82241,0.196726 2.91461,0.509673 1.49756,0.608603 2.77372,1.16023 4.04054,1.67274l-0.524697 0.0025512c-1.11261,-0.453547 -2.25186,-0.943094 -3.56516,-1.47998 -1.07179,-0.307561 -2.07384,-0.469704 -2.8616,-0.508823 -1.63617,0.00311813 -3.10141,0.094111 -4.70215,-0.159592 -1.42385,-0.221671 -2.82361,-1.01538 -4.64007,-2.14414l0.000283467 -0.198427z" />
    <path
   id="_294095376"
   class="fil44"
   d="M2.306 15.6854c1.92304,1.24669 3.3639,2.13309 4.82772,2.37375 1.58798,0.263908 3.05237,0.167812 4.70186,0.143434 0.799376,0.0141733 1.83715,0.164978 2.94635,0.472823 1.36234,0.530366 2.56481,1.03579 3.74346,1.531l-0.524414 0.00226773c-1.02672,-0.428885 -2.08291,-0.87166 -3.26582,-1.33683 -1.0922,-0.303309 -2.10531,-0.450145 -2.8925,-0.468854 -1.64949,0.0385515 -3.11473,0.138615 -4.72256,-0.132096 -1.46524,-0.249167 -2.9044,-1.13358 -4.8144,-2.38396l0.000283467 -0.201545z" />
    <path
   id="_294084072"
   class="fil45"
   d="M2.306 15.6445c2.02367,1.37226 3.50167,2.35561 5.00659,2.62349 1.59649,0.282616 3.05521,0.175182 4.71575,0.114804 0.798243,-0.00538587 1.84707,0.131812 2.97612,0.435405 1.23762,0.458933 2.36326,0.917299 3.46028,1.38814l-0.524981 0.0025512c-0.946212,-0.399121 -1.92219,-0.794557 -2.98349,-1.19283 -1.10836,-0.295939 -2.13139,-0.432287 -2.91971,-0.431436 -1.66112,0.0731344 -3.12579,0.18397 -4.74268,-0.106867 -1.50379,-0.272979 -2.97924,-1.25236 -4.98817,-2.62462l0.000283467 -0.208632z" />
    <path
   id="_294088344"
   class="fil46"
   d="M2.306 15.5918c2.1277,1.50578 3.64085,2.5889 5.18376,2.88342 1.60187,0.303026 3.05861,0.185954 4.72879,0.0881582 0.798809,-0.0252285 1.85954,0.097796 3.00872,0.39572 1.11998,0.394869 2.1671,0.80703 3.18532,1.24754l-0.527815 0.0025512c-0.866275,-0.363688 -1.75778,-0.710651 -2.70427,-1.04628 -1.12621,-0.294239 -2.16399,-0.41783 -2.9472,-0.39657 -1.67472,0.110836 -3.14166,0.230742 -4.76508,-0.081355 -1.54008,-0.297357 -3.05662,-1.37396 -5.1625,-2.8735l0.000283467 -0.219687z" />
    <path
   id="_294083592"
   class="fil47"
   d="M2.306 15.5371c2.23287,1.63759 3.78286,2.82645 5.36518,3.14506 1.60442,0.324286 3.06116,0.195025 4.739,0.0615123 0.799943,-0.0456382 1.87173,0.0651974 3.0399,0.358586 1.00489,0.334774 1.96896,0.70073 2.90922,1.10467l-0.532918 0.00226773c-0.78492,-0.323152 -1.5877,-0.621076 -2.42194,-0.900574 -1.14379,-0.290553 -2.19432,-0.400255 -2.97555,-0.359436 -1.68776,0.145418 -3.15442,0.27638 -4.78662,-0.0564099 -1.57778,-0.322585 -3.12692,-1.49954 -5.33655,-3.12777l0.000283467 -0.227907z" />
    <path
   id="_294087696"
   class="fil48"
   d="M2.30629 15.4711l0.0076536 0.00623627c2.33548,1.77195 3.92063,3.06428 5.5327,3.41124 1.61037,0.344979 3.06796,0.20608 4.75601,0.0348664 0.799093,-0.0651974 1.88449,0.0323152 3.06938,0.321735 0.896889,0.280065 1.77535,0.598398 2.63567,0.961803l-0.549642 0.00283467c-0.697895,-0.278648 -1.40741,-0.530933 -2.12912,-0.758557 -1.16335,-0.28375 -2.22408,-0.380129 -3.00588,-0.319751 -1.69967,0.181135 -3.16774,0.323436 -4.80533,-0.0314648 -1.61548,-0.349798 -3.20091,-1.62993 -5.51173,-3.39281l0.000283467 -0.236128z" />
    <path
   id="_294085344"
   class="fil49"
   d="M2.30629 15.4039l0.136348 0.104316c2.37545,1.86096 3.96428,3.22103 5.58316,3.58954 1.61689,0.363121 3.07051,0.214017 4.77018,0.00453547 0.796542,-0.0870243 1.89469,0 3.09943,0.286868 0.789739,0.228191 1.57863,0.499469 2.35731,0.818085l-0.573737 0.00283467c-0.604918,-0.230742 -1.21466,-0.433988 -1.82524,-0.612005 -1.18347,-0.281483 -2.25498,-0.365105 -3.0348,-0.283183 -1.71327,0.215718 -3.18305,0.36879 -4.82574,-0.00623627 -1.64241,-0.372759 -3.25533,-1.74927 -5.64921,-3.62979l-0.0379846 -0.029764 0.000283467 -0.245199z" />
    <path
   id="_294098832"
   class="fil50"
   d="M2.30629 15.3322c0.0884416,0.064347 0.178301,0.133796 0.26816,0.205513 2.40975,1.95082 4.00624,3.37807 5.63022,3.76614 1.622,0.384381 3.07306,0.225923 4.78464,-0.0204096 0.794841,-0.106584 1.90518,-0.0334491 3.12862,0.247183 0.682305,0.183403 1.37595,0.407625 2.06562,0.677202l-0.603217 0.0025512c-0.503721,-0.179151 -1.00716,-0.334491 -1.50521,-0.468004 -1.2002,-0.27553 -2.28333,-0.347814 -3.06087,-0.245766 -1.72631,0.252569 -3.19495,0.414995 -4.84615,0.0184253 -1.65119,-0.393168 -3.26837,-1.83403 -5.70165,-3.80356 -0.0538587,-0.0433704 -0.10715,-0.085607 -0.160442,-0.126143l0.000283467 -0.253136z" />
    <path
   id="_294083952"
   class="fil51"
   d="M2.30657 15.261c0.130395,0.0946779 0.26249,0.19786 0.39572,0.308695 2.44972,2.03671 4.05131,3.53256 5.68039,3.94104 1.62823,0.405641 3.07987,0.23386 4.79739,-0.047339 0.793991,-0.126993 1.91964,-0.0671816 3.15924,0.209765 0.577422,0.138899 1.17128,0.316632 1.76742,0.534902l-0.660761 0.00283467c-0.386082,-0.124725 -0.769612,-0.232443 -1.14577,-0.323436 -1.21919,-0.271278 -2.31479,-0.330239 -3.09121,-0.208348 -1.7385,0.287719 -3.20771,0.461484 -4.86911,0.0456382 -1.65601,-0.413011 -3.2817,-1.92502 -5.75494,-3.98186 -0.093544,-0.0779534 -0.186521,-0.152505 -0.278931,-0.221955l0.000566934 -0.259939z" />
   </g>
   <g
   id="g3634">
    <path
   id="_294085200"
   class="fil52"
   d="M21.0449 5.23393c-1.54688,0.00963787 -2.96308,0.00878747 -4.24973,0.0102048 -8.04847,-0.233577 -10.4954,-0.249167 -14.4358,6.16994l-0.0479059 0.0745518 0.00113387 -0.642903c2.54667,-4.08249 4.49947,-5.51116 7.74403,-5.94742l10.2133 -0.000283467c0.365956,0.000283467 0.62958,0.116221 0.774998,0.335908z" />
    <path
   id="_105233584"
   class="fil53"
   d="M21.0355 5.22004c-1.64297,0.059528 -3.15357,0.114521 -4.53348,0.173482 -7.82425,-0.1423 -10.3332,-0.0810715 -14.1903,5.99532l0.0008504 -0.638367c3.82227,-5.89356 6.40607,-5.94855 14.1844,-5.80171l1.29062 -0.0507406 2.48232 0c0.358302,0.000283467 0.618241,0.111402 0.765644,0.322018z" />
    <path
   id="_105229912"
   class="fil54"
   d="M21.0117 5.18801c-1.73142,0.11367 -3.33357,0.23386 -4.80278,0.353767 -7.56771,-0.0549926 -10.1444,0.0810715 -13.8972,5.75438l0.0008504 -0.624194c3.71852,-5.50804 6.36014,-5.63334 13.8845,-5.57381 0.831408,-0.0677486 1.70477,-0.134647 2.62972,-0.200128l1.44313 0c0.339877,0.000283467 0.591028,0.100347 0.741833,0.289987z" />
    <path
   id="_105232192"
   class="fil55"
   d="M20.9638 5.13443c-0.0691659,0.0102048 -0.138899,0.0195592 -0.208632,0.0283467 -1.73113,0.166962 -3.34462,0.349231 -4.83935,0.528099 -7.31685,0.0325987 -9.95224,0.237545 -13.6039,5.53469l0.000566934 -0.617958c3.62015,-5.14464 6.31422,-5.3374 13.5846,-5.36092 0.983063,-0.118206 2.01743,-0.236411 3.11672,-0.348664l1.25604 0c0.305861,0.000283467 0.540288,0.0810715 0.693927,0.236411z" />
    <path
   id="_105231712"
   class="fil56"
   d="M20.8756 5.05932c-0.143718,0.0308979 -0.288002,0.0578272 -0.433421,0.081355 -1.70449,0.215151 -3.31401,0.460067 -4.81922,0.701297 -7.06796,0.11367 -9.75466,0.387499 -13.311,5.33456l0.000566934 -0.613706c3.52548,-4.80334 6.2632,-5.06328 13.2858,-5.16647 1.06584,-0.168946 2.18553,-0.339026 3.37042,-0.498335l1.30111 0c0.252285,0 0.456098,0.055276 0.605769,0.161293z" />
    <path
   id="_105232432"
   class="fil57"
   d="M20.7279 4.97853c-0.196442,0.0541422 -0.394869,0.100914 -0.59528,0.1406 -1.68124,0.267309 -3.28651,0.570619 -4.80221,0.87166 -6.82333,0.194458 -9.55397,0.534618 -13.0185,5.14577l0.000566934 -0.605202c3.43533,-4.47991 6.20962,-4.80363 12.9876,-4.9876 1.11771,-0.218269 2.28559,-0.43994 3.51414,-0.645737l1.4556 0c0.177167,0 0.330806,0.0272128 0.458082,0.0805046z" />
    <path
   id="_105233728"
   class="fil58"
   d="M20.4791 4.91248c-0.217986,0.0694494 -0.437956,0.130962 -0.660194,0.183686 -1.65289,0.317483 -3.25448,0.684289 -4.78322,1.04202 -6.57926,0.272979 -9.34448,0.678336 -12.7237,4.97824l0.000566934 -0.600099c3.34888,-4.18 6.15095,-4.56608 12.6874,-4.82375 1.15796,-0.269293 2.36014,-0.543973 3.61449,-0.794557l1.65545 0c0.0737014,0 0.143718,0.0051024 0.209198,0.0144568z" />
    <path
   id="_105231112"
   class="fil59"
   d="M20.068 4.89802c-0.185387,0.0646304 -0.372475,0.123308 -0.561264,0.176316 -1.62795,0.36709 -3.22699,0.797392 -4.76593,1.21466 -6.34059,0.34668 -9.13273,0.811565 -12.4289,4.82177l0.000566934 -0.596698c3.26695,-3.8971 6.09085,-4.34243 12.3875,-4.67068 1.18914,-0.322585 2.41457,-0.648856 3.6828,-0.945362l1.68521 0z" />
    <path
   id="_105233008"
   class="fil60"
   d="M19.638 4.89802c-0.146269,0.0547091 -0.293955,0.1063 -0.442775,0.153922 -1.60527,0.41783 -3.19949,0.907661 -4.7475,1.38672 -6.10389,0.414712 -8.9173,0.940826 -12.1358,4.6806l0.000566934 -0.594713c3.18843,-3.63263 6.02679,-4.13748 12.0893,-4.53292 1.21154,-0.371908 2.45057,-0.750904 3.72362,-1.09361l1.51258 0z" />
    <path
   id="_105230224"
   class="fil61"
   d="M19.2284 4.89802c-0.114237,0.0459216 -0.228758,0.089859 -0.344129,0.131812 -1.58118,0.46772 -3.16944,1.02161 -4.72936,1.55793 -5.87598,0.483594 -8.70073,1.06498 -11.843,4.55531l0.000566934 -0.590461c3.11388,-3.3897 5.95876,-3.94983 11.7902,-4.41443 1.23393,-0.422932 2.48799,-0.853235 3.76245,-1.24017l1.36319 0z" />
    <path
   id="_105233152"
   class="fil62"
   d="M18.8335 4.89802c-0.0867408,0.038268 -0.173765,0.0751187 -0.261356,0.110836 -1.55567,0.51761 -3.13996,1.1316 -4.70952,1.72745 -5.64921,0.549359 -8.48104,1.18574 -11.5507,4.44221l0.000566934 -0.587343c3.0416,-3.16519 5.88449,-3.77634 11.4903,-4.30303 1.25349,-0.47339 2.51662,-0.9567 3.78683,-1.39012l1.24385 0z" />
    <path
   id="_105233104"
   class="fil63"
   d="M18.4503 4.89802l-0.19134 0.0890086c-1.5293,0.567784 -3.11076,1.24527 -4.69024,1.90093 -5.42839,0.607469 -8.25427,1.29544 -11.2568,4.33903l0.000566934 -0.586209c2.97073,-2.95628 5.80823,-3.61789 11.1916,-4.20325 1.2705,-0.523847 2.54185,-1.05932 3.80696,-1.53951l1.13925 0z" />
    <path
   id="_105232168"
   class="fil64"
   d="M18.0798 4.89802l-0.132662 0.0671816c-1.50407,0.616824 -3.08072,1.35554 -4.67097,2.07129 -5.21154,0.667848 -8.02948,1.40259 -10.9645,4.24917l0.0008504 -0.582808c2.90213,-2.76607 5.72631,-3.47389 10.8916,-4.11679 1.28637,-0.575154 2.56566,-1.16335 3.82425,-1.68804l1.05138 0z" />
    <path
   id="_105230656"
   class="fil65"
   d="M17.717 4.89802l-0.0810715 0.0445043c-1.47885,0.668131 -3.05152,1.46921 -4.65254,2.24307 -4.9978,0.72284 -7.80271,1.50379 -10.6717,4.17008l0.0008504 -0.58139c2.83694,-2.58947 5.64042,-3.34548 10.5906,-4.04025 1.30366,-0.625895 2.58663,-1.26681 3.83417,-1.83601l0.979661 0z" />
    <path
   id="_105233368"
   class="fil66"
   d="M17.3638 4.89802l-0.0394019 0.0238112c-1.45645,0.717171 -3.02374,1.57948 -4.63412,2.41315 -4.79116,0.774998 -7.57282,1.60187 -10.3786,4.10063l0.0008504 -0.581107c2.77401,-2.42846 5.55198,-3.22529 10.2918,-3.97109 1.3167,-0.677769 2.60194,-1.36971 3.83842,-1.9854l0.920984 0z" />
    <path
   id="_105232576"
   class="fil67"
   d="M17.0128 4.89802l-0.00113387 0.0008504c-1.43037,0.767912 -2.99228,1.69088 -4.61711,2.58493 -4.58479,0.823188 -7.33896,1.69145 -10.0832,4.03997l0.0008504 -0.580823c2.70909,-2.28049 5.45645,-3.11615 9.99391,-3.90957 1.33059,-0.729077 2.61952,-1.47573 3.84523,-2.13536l0.861456 0z" />
    <path
   id="_105232504"
   class="fil68"
   d="M16.6639 4.89802c-1.39607,0.813266 -2.94324,1.79151 -4.56155,2.73517 -4.38551,0.869393 -7.1068,1.77677 -9.79094,3.98838l0.0008504 -0.582241c2.64815,-2.14613 5.35639,-3.01949 9.694,-3.85742 1.3425,-0.780951 2.63426,-1.57863 3.84948,-2.28389l0.808164 0z" />
    <path
   id="_105229888"
   class="fil69"
   d="M16.3183 4.89802c-1.36291,0.861456 -2.89136,1.88931 -4.50911,2.88513 -4.19021,0.913613 -6.87605,1.85472 -9.49812,3.94161l0.0008504 -0.582524c2.58607,-2.02282 5.25122,-2.93303 9.39607,-3.81149 1.35469,-0.830841 2.64616,-1.68238 3.84749,-2.43271l0.762809 0z" />
    <path
   id="_105230368"
   class="fil70"
   d="M15.9799 4.89802c-1.33173,0.906527 -2.84799,1.98937 -4.46432,3.03621 -4.00057,0.951598 -6.64134,1.92672 -9.20445,3.8988l0.0008504 -0.582524c2.52342,-1.91368 5.14407,-2.85394 9.09532,-3.77124 1.36801,-0.880731 2.66147,-1.78556 3.85005,-2.58125l0.722557 0z" />
    <path
   id="_105230776"
   class="fil71"
   d="M15.6434 4.89802c-1.30565,0.952448 -2.8049,2.08858 -4.42095,3.1856 -3.8149,0.988165 -6.40805,1.99419 -8.91163,3.86535l0.0008504 -0.584509c2.46389,-1.81192 5.03182,-2.78308 8.79654,-3.73496 1.37737,-0.932322 2.67394,-1.88987 3.84664,-2.73149l0.688541 0z" />
    <path
   id="_105232552"
   class="fil72"
   d="M15.3117 4.89802c-1.27588,0.997236 -2.76664,2.18553 -4.38183,3.33244 -3.63291,1.0236 -6.17646,2.06052 -8.61909,3.83814l0.000566934 -0.584792c2.40011,-1.72206 4.91673,-2.72128 8.49748,-3.70746 1.38984,-0.982496 2.68443,-1.99192 3.84296,-2.87832l0.659911 0z" />
    <path
   id="_105233344"
   class="fil73"
   d="M14.9824 4.89802c-1.25009,1.04543 -2.72893,2.28559 -4.34526,3.48211 -3.45829,1.05478 -5.94231,2.11636 -8.32655,3.81149l0.0008504 -0.58706c2.33973,-1.63872 4.79399,-2.6643 8.19758,-3.6794 1.40174,-1.03324 2.69747,-2.09567 3.84154,-3.02714l0.631847 0z" />
    <path
   id="_105232528"
   class="fil74"
   d="M14.6581 4.89802c-1.22486,1.08823 -2.69435,2.38197 -4.31465,3.63178 -3.28736,1.08256 -5.71129,2.16795 -8.03317,3.78797l0.0008504 -0.589611c2.27766,-1.56672 4.66955,-2.61215 7.89909,-3.65474 1.41166,-1.08539 2.70626,-2.198 3.83446,-3.1754l0.613422 0z" />
    <path
   id="_105232888"
   class="fil75"
   d="M14.3326 4.89802c-1.19906,1.13699 -2.65864,2.4826 -4.28517,3.78258 -3.11558,1.1058 -5.47658,2.21189 -7.73723,3.76444l0.0008504 -0.593296c2.21331,-1.49869 4.53802,-2.56339 7.60003,-3.62781 1.42215,-1.13727 2.7193,-2.30402 3.8319,-3.32592l0.589611 0z" />
    <path
   id="_105230392"
   class="fil76"
   d="M14.0103 4.89802c-1.17412,1.18092 -2.62887,2.5804 -4.25427,3.93027 -2.95344,1.12876 -5.24952,2.25356 -7.44611,3.74658l0.0008504 -0.595564c2.14896,-1.44001 4.40281,-2.522 7.3004,-3.60683 1.43406,-1.18688 2.72723,-2.40692 3.82709,-3.47445l0.572036 0z" />
    <path
   id="_105232456"
   class="fil77"
   d="M13.6906 4.89802c-1.15371,1.22713 -2.59826,2.67791 -4.22847,4.08079 -2.793,1.14662 -5.01765,2.28758 -7.15243,3.72617l0.0008504 -0.60095c2.08405,-1.38644 4.26504,-2.48147 7.00248,-3.58274 1.44313,-1.2379 2.73631,-2.51067 3.81915,-3.62327l0.55843 0z" />
    <path
   id="_105231880"
   class="fil78"
   d="M13.3689 4.89802c-1.12905,1.27248 -2.56594,2.77599 -4.20069,4.23018 -2.63851,1.1608 -4.78832,2.31394 -6.85848,3.70576l0.0008504 -0.604068c2.01602,-1.33796 4.12217,-2.44433 6.70257,-3.56063 1.4556,-1.29034 2.74764,-2.61413 3.81376,-3.77124l0.541989 0z" />
    <path
   id="_105229936"
   class="fil79"
   d="M13.0519 4.89802c-1.10637,1.31897 -2.53533,2.87464 -4.17688,4.37871 -2.48884,1.17384 -4.5624,2.33832 -6.56566,3.68422l0.0008504 -0.606902c1.94855,-1.29374 3.97619,-2.40918 6.40295,-3.5354 1.46609,-1.33995 2.75643,-2.71788 3.80639,-3.92063l0.532351 0z" />
    <path
   id="_105231784"
   class="fil80"
   d="M12.7347 4.89802c-1.08624,1.36433 -2.50783,2.97357 -4.15165,4.52895 -2.34087,1.18234 -4.33733,2.35306 -6.27397,3.65984l0.00113387 -0.610587c1.87995,-1.25491 3.8234,-2.3763 6.10389,-3.50819 1.47346,-1.39154 2.76579,-2.8222 3.79987,-4.07002l0.520729 0z" />
    <path
   id="_105232264"
   class="fil81"
   d="M12.4173 4.89802c-1.06215,1.41138 -2.47948,3.07278 -4.12926,4.67749 -2.1963,1.18858 -4.1131,2.36326 -5.97888,3.63348l0.0008504 -0.614556c1.80682,-1.21919 3.66891,-2.34144 5.80342,-3.47814 1.48537,-1.44285 2.77656,-2.92453 3.79364,-4.21827l0.51024 0z" />
    <path
   id="_104737976"
   class="fil82"
   d="M12.1009 4.89802c-1.04202,1.45532 -2.45,3.17199 -4.10573,4.82772 -2.05797,1.19028 -3.89172,2.36298 -5.68634,3.6006l0.0008504 -0.618525c1.73368,-1.18517 3.5113,-2.30657 5.50464,-3.44185 1.49444,-1.49359 2.78421,-3.03054 3.78513,-4.36766l0.501453 -0.000283467z" />
    <path
   id="_104731664"
   class="fil83"
   d="M11.7871 4.89802c-1.01991,1.50322 -2.42251,3.26894 -4.08447,4.97881 -1.92247,1.18546 -3.67288,2.35816 -5.39381,3.56403l0.0008504 -0.622493c1.65828,-1.15258 3.34689,-2.27312 5.20558,-3.40359 1.50606,-1.54489 2.79442,-3.13231 3.7789,-4.51648l0.492949 -0.000283467z" />
    <path
   id="_104738672"
   class="fil84"
   d="M11.473 4.89831c-1.00035,1.54659 -2.39785,3.36702 -4.06406,5.12565 -1.79151,1.18262 -3.45348,2.34909 -5.10042,3.52604l0.0008504 -0.629863c1.58061,-1.12196 3.18106,-2.23202 4.90709,-3.3571 1.51598,-1.59649 2.7998,-3.23691 3.76841,-4.66473l0.48813 0z" />
    <path
   id="_104735240"
   class="fil85"
   d="M11.1615 4.89831c-0.980795,1.59308 -2.37545,3.46567 -4.04564,5.27503 -1.66282,1.17412 -3.23691,2.33151 -4.80731,3.47899l0.0008504 -0.636099c1.50067,-1.09418 3.0107,-2.1912 4.60889,-3.30437 1.52335,-1.64666 2.80746,-3.34009 3.75934,-4.81355l0.483878 0z" />
    <path
   id="_104735576"
   class="fil86"
   d="M10.8488 4.89831c-0.959535,1.63872 -2.34711,3.56374 -4.02721,5.42612 -1.53951,1.16023 -3.02346,2.30175 -4.51336,3.42116l0.0008504 -0.640635c1.42017,-1.06413 2.83665,-2.14499 4.30813,-3.24258 1.53469,-1.7008 2.81879,-3.44639 3.75395,-4.96407l0.477642 0z" />
    <path
   id="_104745632"
   class="fil87"
   d="M10.5356 4.89831c-0.939409,1.68493 -2.31989,3.66296 -4.00595,5.57182 -1.42045,1.14577 -2.81256,2.27255 -4.22139,3.36333l0.0008504 -0.649706c1.33626,-1.03494 2.66062,-2.09737 4.00907,-3.17313 1.54404,-1.74956 2.8256,-3.54787 3.74205,-5.11232l0.475374 0z" />
    <path
   id="_104731184"
   class="fil88"
   d="M10.2252 4.89831c-0.9207,1.73142 -2.29665,3.76019 -3.98923,5.72433 -1.30055,1.12139 -2.60052,2.22493 -3.928,3.28821l0.00113387 -0.657926c1.24924,-1.00347 2.47637,-2.04238 3.71086,-3.09517 1.55368,-1.79888 2.83325,-3.6502 3.73326,-5.25944l0.471972 0z" />
    <path
   id="_104734472"
   class="fil89"
   d="M9.91425 4.89831c-0.899724,1.77564 -2.27312,3.85912 -3.9708,5.87258 -1.18943,1.09503 -2.39501,2.17391 -3.63546,3.20714l0.0008504 -0.669549c1.16023,-0.970023 2.29183,-1.9769 3.41124,-2.99965 1.56275,-1.85274 2.84119,-3.75679 3.72334,-5.41053l0.470838 0z" />
    <path
   id="_104738384"
   class="fil90"
   d="M9.60329 4.89831c-0.881015,1.82212 -2.24903,3.95833 -3.95465,6.02254 -1.07717,1.0613 -2.18921,2.11069 -3.34066,3.11105l0.0008504 -0.681454c1.06924,-0.933173 2.10502,-1.90603 3.11218,-2.89306 1.57296,-1.90291 2.85026,-3.85997 3.71512,-5.55907l0.467153 0z" />
    <path
   id="_104731736"
   class="fil91"
   d="M9.29403 4.89831c-0.861739,1.86861 -2.22521,4.05669 -3.93934,6.17164 -0.96889,1.02672 -1.98512,2.03728 -3.0467,3.00163l0.0008504 -0.693927c0.975693,-0.895188 1.91397,-1.82808 2.81341,-2.77287 1.58089,-1.95252 2.85763,-3.96202 3.70548,-5.70647l0.466303 0z" />
    <path
   id="_104743880"
   class="fil92"
   d="M8.98476 4.89831c-0.841896,1.91425 -2.20084,4.15506 -3.92176,6.31989 -0.866275,0.983913 -1.78754,1.95224 -2.7553,2.87634l0.00113387 -0.708384c0.879314,-0.849833 1.71838,-1.73397 2.5135,-2.63199 1.58997,-2.00298 2.86528,-4.06548 3.69726,-5.85586l0.465169 0z" />
    <path
   id="_294292984"
   class="fil93"
   d="M8.67607 4.89831c-0.824321,1.95904 -2.17816,4.25229 -3.90561,6.47013 -0.76536,0.932606 -1.59025,1.85246 -2.46276,2.73092l0.00113387 -0.724258c0.780668,-0.800227 1.52052,-1.63078 2.21444,-2.47126 1.60017,-2.05457 2.8718,-4.16951 3.68564,-6.00553l0.467153 0z" />
   </g>
   <g
   id="g3678">
    <path
   id="_294299296"
   class="fil94"
   d="M21.1548 11.083c-0.558713,0.280632 -1.09276,0.547941 -1.60272,0.801361 -6.38396,3.38063 -8.35972,4.37162 -12.9349,4.11821 -1.2036,-0.0632131 -2.68415,-0.379562 -4.31068,-0.699029l-0.000283467 0.194742c1.58997,0.313231 3.03706,0.618808 4.21742,0.681454 4.67068,0.258238 6.66657,-0.745518 13.1256,-4.16526l1.50493 -0.753455 0.000566934 -0.178017z" />
    <path
   id="_294308056"
   class="fil95"
   d="M21.1551 11.0407c-0.708667,0.332223 -1.387,0.64517 -2.03331,0.938842 -6.27907,3.25051 -8.31011,4.19531 -12.8521,3.9555 -1.12508,-0.0578272 -2.48118,-0.316916 -3.96343,-0.591312l-0.000283467 0.192474c1.4471,0.268443 2.77401,0.522429 3.87584,0.576288 4.63326,0.246049 6.68245,-0.710084 13.0347,-4.00113 0.613139,-0.281199 1.25831,-0.578272 1.93778,-0.895755l0.0008504 -0.174899z" />
    <path
   id="_294284512"
   class="fil96"
   d="M21.1551 11.0243c-0.857204,0.37446 -1.67897,0.723974 -2.46021,1.05109 -6.17844,3.12125 -8.26164,4.01616 -12.771,3.79052 -1.04486,-0.046772 -2.27737,-0.259089 -3.6176,-0.490964l-0.000283467 0.189923c1.30848,0.227907 2.51095,0.433704 3.53511,0.481894 4.59641,0.230742 6.69605,-0.677769 12.9425,-3.83842 0.752604,-0.313798 1.54064,-0.649139 2.37092,-1.01339l0.000566934 -0.170647z" />
    <path
   id="_294297328"
   class="fil97"
   d="M21.1551 11.0328c-1.00149,0.409893 -1.96669,0.786337 -2.88796,1.13557 -6.07611,2.99228 -8.21629,3.84353 -12.6908,3.63121 -0.959819,-0.0396854 -2.06959,-0.21175 -3.27007,-0.404507l-0.000283467 0.19049c1.171,0.189356 2.25384,0.356318 3.19184,0.394869 4.55815,0.220254 6.71193,-0.642336 12.8513,-3.67401 0.892353,-0.33931 1.82553,-0.704132 2.80519,-1.10722l0.0008504 -0.166395z" />
    <path
   id="_294305776"
   class="fil98"
   d="M21.1548 11.0626c-1.13925,0.439657 -2.25243,0.835093 -3.31685,1.2002 -5.97066,2.86585 -8.16725,3.66863 -12.6086,3.4685 -0.871944,-0.0323152 -1.86068,-0.164694 -2.92311,-0.322018l-0.000283467 0.188789c1.03465,0.153639 1.99929,0.282616 2.84941,0.315499 4.5213,0.206931 6.72893,-0.60832 12.7591,-3.50932 1.03664,-0.356885 2.11523,-0.743817 3.23974,-1.18007l0.000566934 -0.161576z" />
    <path
   id="_294287536"
   class="fil99"
   d="M21.1548 11.1136c-1.27333,0.461767 -2.53164,0.868542 -3.74516,1.24414 -5.86606,2.73574 -8.11821,3.49316 -12.527,3.30494 -0.780101,-0.025512 -1.64978,-0.12671 -2.57643,-0.250301l-0.000283467 0.190773c0.902558,0.121607 1.74786,0.220821 2.50925,0.245482 4.48416,0.193041 6.74282,-0.575721 12.6681,-3.34774 1.18092,-0.368507 2.40692,-0.767912 3.67061,-1.23053l0.0008504 -0.156757z" />
    <path
   id="_294303400"
   class="fil100"
   d="M21.1546 11.1828c-1.39551,0.478208 -2.80405,0.891503 -4.17291,1.27021 -5.7643,2.60591 -8.07002,3.31514 -12.4473,3.14421 -0.68599,-0.0209765 -1.43463,-0.0949614 -2.22805,-0.189639l-0.000283467 0.189923c0.77188,0.0912763 1.50039,0.163277 2.16852,0.185387 4.44334,0.179434 6.75785,-0.543122 12.5763,-3.18702 1.33456,-0.370775 2.70938,-0.776132 4.10318,-1.26171l0.000566934 -0.151371z" />
    <path
   id="_294286168"
   class="fil101"
   d="M21.154 11.2913c-0.123025,0.0308979 -0.246616,0.06378 -0.370208,0.0972291 -1.39182,0.43909 -2.8239,0.813833 -4.22791,1.15881 -5.66423,2.4792 -8.02693,3.14223 -12.3702,2.98037 -0.585926,-0.0158741 -1.21636,-0.0677486 -1.87938,-0.135214l-0.000283467 0.192757c0.64347,0.0651974 1.25632,0.115654 1.82694,0.131529 4.40564,0.165545 6.77316,-0.509673 12.483,-3.02374 1.38644,-0.340727 2.79725,-0.712636 4.19984,-1.16562 0.112536,-0.029764 0.225073,-0.0581107 0.337609,-0.0853235l0.000566934 -0.150804z" />
    <path
   id="_294289552"
   class="fil102"
   d="M21.1534 11.4308c-0.251719,0.0524414 -0.504004,0.109418 -0.75714,0.171214 -1.3836,0.39657 -2.83268,0.731061 -4.26929,1.03834 -5.55992,2.35107 -7.97789,2.96875 -12.288,2.82106 -0.483878,-0.0121891 -0.99752,-0.0456382 -1.5327,-0.0907094l-0.000283467 0.19049c0.51761,0.0445043 1.01424,0.0773864 1.48622,0.0890086 4.36709,0.152789 6.78591,-0.475374 12.3912,-2.85735 1.41507,-0.308412 2.83949,-0.640352 4.23584,-1.05308 0.245199,-0.0549926 0.489831,-0.106017 0.733612,-0.153072l0.000566934 -0.155907z" />
    <path
   id="_294278680"
   class="fil103"
   d="M21.1529 11.6017c-0.379562,0.0612288 -0.760825,0.131812 -1.14322,0.211466 -1.3785,0.355184 -2.84204,0.648856 -4.31181,0.923818 -5.45532,2.22153 -7.92857,2.79073 -12.2055,2.65552 -0.380979,-0.00737014 -0.777266,-0.0272128 -1.18603,-0.0547091l-0.000283467 0.19219c0.394869,0.0269293 0.776699,0.0459216 1.14294,0.0530083 4.33222,0.1406 6.80122,-0.440791 12.301,-2.69492 1.44483,-0.273545 2.88966,-0.563815 4.27525,-0.934023 0.377011,-0.0731344 0.752604,-0.137198 1.12706,-0.192757l0.000566934 -0.159592z" />
    <path
   id="_105707320"
   class="fil104"
   d="M21.1523 11.7987c-0.507406,0.0603784 -1.01651,0.135214 -1.5293,0.227057 -1.37028,0.313231 -2.85168,0.566083 -4.35377,0.804762 -5.35129,2.09425 -7.88094,2.61782 -12.1244,2.49366 -0.272412,-0.0051024 -0.551626,-0.0155907 -0.838211,-0.029764l-0.000283467 0.195592c0.273545,0.0136064 0.540288,0.0229608 0.799943,0.0272128 4.2931,0.126143 6.82276,-0.407625 12.2106,-2.53164 1.47743,-0.239813 2.93587,-0.490681 4.31125,-0.818369 0.509673,-0.0822054 1.0168,-0.148537 1.52335,-0.201545l0.0008504 -0.166962z" />
    <path
   id="_105706792"
   class="fil105"
   d="M21.1514 12.0224c-0.634115,0.0507406 -1.27163,0.121324 -1.91709,0.215718 -1.35979,0.270711 -2.86245,0.48246 -4.39288,0.687407 -5.2481,1.96414 -7.83474,2.44178 -12.0442,2.3318 -0.161293,-0.0017008 -0.324853,-0.00566934 -0.490681,-0.0113387l-0.000283467 0.194458c0.15534,0.00538587 0.308979,0.00907094 0.459783,0.0104883 4.25512,0.11367 6.83495,-0.372192 12.1162,-2.36695 1.50748,-0.203813 2.98377,-0.41698 4.34781,-0.703281 0.644887,-0.0836227 1.28382,-0.144285 1.92049,-0.185104l0.0008504 -0.173198z" />
    <path
   id="_105707296"
   class="fil106"
   d="M21.1503 12.2707c-0.761392,0.0320317 -1.52675,0.0890086 -2.30459,0.179434 -1.3527,0.229892 -2.86953,0.399688 -4.43285,0.570902 -5.14577,1.83573 -7.78513,2.26575 -11.9614,2.16795l-0.144852 -0.00283467 -0.000283467 0.197576 0.117639 0.0017008c4.21827,0.100631 6.85168,-0.338176 12.0238,-2.20452 1.54064,-0.169797 3.03338,-0.342428 4.38608,-0.58706 0.779534,-0.0756856 1.54773,-0.121324 2.31564,-0.1423l0.0008504 -0.180852z" />
    <path
   id="_105707224"
   class="fil107"
   d="M21.1492 12.5417c-0.889235,0.00708667 -1.78074,0.0439374 -2.6884,0.120757 -1.34618,0.187372 -2.88229,0.316349 -4.47452,0.45213 -4.96067,1.67897 -7.6485,2.07696 -11.6797,2.01233l-0.000283467 0.196442c4.05187,0.0702998 6.7329,-0.341294 11.7103,-2.04465 1.56785,-0.137198 3.0776,-0.267593 4.42208,-0.470838 0.912196,-0.060095 1.8105,-0.0824888 2.70966,-0.0773864l0.0008504 -0.188789z" />
    <path
   id="_105706264"
   class="fil108"
   d="M21.148 12.8371c-1.01708,-0.0243781 -2.03444,-0.0164411 -3.0759,0.0371342 -1.33938,0.146836 -2.88796,0.234711 -4.51534,0.336192 -4.7149,1.50464 -7.43703,1.88194 -11.2499,1.8499l-0.000283467 0.199844c3.83247,0.0308979 6.54355,-0.351215 11.2757,-1.88449 1.59904,-0.102332 3.12352,-0.193041 4.45922,-0.354617 1.04911,-0.0362838 2.07441,-0.0280632 3.10595,0.00992134l0.000566934 -0.193891z" />
    <path
   id="_105707272"
   class="fil109"
   d="M21.1469 13.1506c-1.14634,-0.0598115 -2.28814,-0.089292 -3.46141,-0.0640635 -1.33003,0.103749 -2.89845,0.152505 -4.55843,0.218269 -4.4697,1.34051 -7.20714,1.68918 -10.8202,1.68833l-0.000283467 0.200411c3.63093,0.00368507 6.35504,-0.3549 10.842,-1.72206 1.63078,-0.0660478 3.17199,-0.118773 4.49777,-0.236411 1.18347,-0.0034016 2.33548,0.043087 3.49968,0.117922l0.0008504 -0.202395z" />
    <path
   id="_105707608"
   class="fil110"
   d="M21.1455 13.4842c-1.2773,-0.100064 -2.541,-0.17093 -3.84948,-0.185387 -1.32067,0.0629296 -2.90525,0.0688824 -4.59556,0.100631 -4.23074,1.18092 -6.96903,1.49982 -10.3936,1.52335l-0.000283467 0.201545c3.43817,-0.02126 6.16455,-0.348948 10.4092,-1.55453 1.6614,-0.0354333 3.21962,-0.0453547 4.53519,-0.121607 1.31784,0.0362838 2.594,0.127277 3.8937,0.244065l0.0008504 -0.208065z" />
    <path
   id="_105706384"
   class="fil111"
   d="M21.1441 13.8354c-1.40996,-0.1423 -2.79186,-0.261923 -4.23556,-0.325136 -1.31245,0.02126 -2.91376,-0.0138899 -4.63582,-0.0167245 -3.99461,1.0304 -6.71618,1.3167 -9.96556,1.35497l-0.000283467 0.204663c3.25958,-0.0379846 5.96783,-0.333073 9.97633,-1.38672 1.69088,0.00113387 3.26469,0.029764 4.57147,-0.00481894 1.45333,0.0867408 2.85111,0.22734 4.28885,0.386649l0.000566934 -0.212884z" />
    <path
   id="_105706144"
   class="fil112"
   d="M21.1429 14.2014c-1.54518,-0.187655 -3.04698,-0.363404 -4.61966,-0.479626 -1.30678,-0.0198427 -2.92538,-0.0943944 -4.6789,-0.132096 -3.76274,0.881582 -6.45057,1.13528 -9.53724,1.18432l-0.000283467 0.20523c3.09347,-0.0487563 5.77053,-0.311247 9.54263,-1.21551 1.72433,0.0360003 3.31089,0.102898 4.61002,0.111119 1.58741,0.142584 3.10453,0.34016 4.68259,0.54454l0.0008504 -0.217986z" />
    <path
   id="_109296944"
   class="fil113"
   d="M21.1412 14.5798c-1.68464,-0.230742 -3.29814,-0.465452 -5.00631,-0.646588 -1.29743,-0.0629296 -2.93416,-0.17745 -4.71916,-0.250301 -3.53285,0.748069 -6.17561,0.96322 -9.10864,1.01651l-0.000283467 0.208065c2.93643,-0.0549926 5.56672,-0.279215 9.10892,-1.04713 1.75494,0.0708667 3.35851,0.179434 4.64659,0.225923 1.72178,0.211183 3.3554,0.468004 5.07802,0.715754l0.0008504 -0.222238z" />
    <path
   id="_109296680"
   class="fil114"
   d="M21.1398 14.9707c-1.82864,-0.274396 -3.55496,-0.57317 -5.39267,-0.822621 -1.29176,-0.106867 -2.94352,-0.261356 -4.75912,-0.369641 -3.30976,0.617107 -5.89271,0.794557 -8.6806,0.847282l-0.000283467 0.207781c2.78761,-0.0527248 5.35922,-0.238963 8.67493,-0.875062 1.78669,0.104883 3.40727,0.252569 4.68429,0.341011 1.85529,0.284317 3.60145,0.606619 5.47233,0.896322l0.00113387 -0.225073z" />
    <path
   id="_109295504"
   class="fil115"
   d="M21.1384 15.3727c-1.97576,-0.317766 -3.80781,-0.682872 -5.77989,-1.01424 -1.28127,-0.144568 -2.95287,-0.343278 -4.79824,-0.486429 -3.09064,0.497484 -5.603,0.634682 -8.25285,0.680887l-0.000283467 0.211183c2.64843,-0.0484728 5.14776,-0.193324 8.24123,-0.709517 1.8156,0.138899 3.45291,0.328821 4.72171,0.457799 1.9871,0.365672 3.84211,0.755156 5.86748,1.08823l0.0008504 -0.227907z" />
    <path
   id="_109295408"
   class="fil116"
   d="M21.1367 15.7834c-2.13054,-0.357735 -4.06491,-0.793424 -6.16569,-1.21267 -1.2722,-0.188222 -2.96166,-0.425484 -4.83764,-0.603501 -2.87974,0.383531 -5.30763,0.483027 -7.82567,0.51676l-0.000283467 0.212317c2.51293,-0.0394019 4.92977,-0.144001 7.80894,-0.543689 1.84622,0.172631 3.49741,0.401106 4.75856,0.57402 2.11608,0.453547 4.07512,0.915031 6.26093,1.28637l0.0008504 -0.229608z" />
    <path
   id="_109297304"
   class="fil117"
   d="M21.135 16.1998c-2.29155,-0.394302 -4.32287,-0.903692 -6.54978,-1.41818 -1.2671,-0.229041 -2.97187,-0.506272 -4.88215,-0.718305 -2.66969,0.279215 -5.00716,0.334491 -7.39537,0.354333l-0.000283467 0.212317c2.38112,-0.0223939 4.70498,-0.08504 7.37552,-0.378712 1.87768,0.205513 3.54589,0.47424 4.79484,0.688257 2.24619,0.548225 4.30331,1.08369 6.65637,1.49132l0.0008504 -0.231025z" />
    <path
   id="_109296920"
   class="fil118"
   d="M21.1336 16.6228c-2.45879,-0.428035 -4.58621,-1.01311 -6.93587,-1.6271 -1.25774,-0.271561 -2.98037,-0.591028 -4.92212,-0.839062 -2.47126,0.185387 -4.70328,0.200694 -6.9679,0.201828l-0.000283467 0.212884c2.25498,-0.004252 4.47254,-0.0269293 6.94239,-0.223088 1.90716,0.24123 3.59294,0.548508 4.83084,0.804479 2.37659,0.65169 4.52668,1.26086 7.0518,1.70108l0.00113387 -0.231025z" />
    <path
   id="_106388928"
   class="fil119"
   d="M21.1316 17.048c-2.63369,-0.455248 -4.84955,-1.11658 -7.3228,-1.84168 -1.24952,-0.313514 -2.98802,-0.673517 -4.96209,-0.953299 -2.27766,0.0975126 -4.3994,0.0717171 -6.53901,0.051591l-0.000283467 0.213734c2.12799,0.017008 4.23528,0.0342995 6.50726,-0.072284 1.93835,0.27553 3.64141,0.624194 4.87081,0.921267 2.50046,0.759691 4.73956,1.4437 7.44526,1.91142l0.0008504 -0.230742z" />
    <path
   id="_106387944"
   class="fil120"
   d="M21.1299 17.4786l-0.0433704 -0.00708667c-2.79697,-0.48076 -5.08454,-1.21551 -7.66551,-2.05173 -1.24017,-0.3549 -2.99624,-0.756573 -5.00262,-1.0715 -2.09284,0.0192757 -4.09411,-0.0450712 -6.11069,-0.089292l0 0.214868c2.00269,0.0399688 3.99065,0.0972291 6.07413,0.0674651 1.96811,0.311247 3.68819,0.699313 4.90908,1.04004 2.58125,0.861456 4.87903,1.61463 7.72164,2.10502l0.116788 0.0195592 0.000566934 -0.22734z" />
    <path
   id="_106390944"
   class="fil121"
   d="M21.1285 17.9046c-0.1423,-0.02126 -0.283183,-0.0445043 -0.422649,-0.0694494 -2.81171,-0.503721 -5.08738,-1.28836 -7.67146,-2.20225 -1.2345,-0.397704 -3.00645,-0.839912 -5.04117,-1.19198 -1.91368,-0.0504571 -3.79222,-0.14967 -5.68549,-0.218553l0 0.215435c1.87598,0.0663312 3.74063,0.160726 5.64127,0.200411 1.99787,0.344129 3.73326,0.774431 4.94479,1.15541 2.59004,0.939976 4.8813,1.74417 7.74119,2.25866 0.162426,0.0291971 0.326554,0.055843 0.492665,0.0799376l0.0008504 -0.227624z" />
    <path
   id="_106392312"
   class="fil122"
   d="M21.1268 18.3264c-0.272412,-0.0354333 -0.539437,-0.0776699 -0.801077,-0.126426 -2.83042,-0.526114 -5.09248,-1.36064 -7.67883,-2.35759 -1.22628,-0.437673 -3.01694,-0.918999 -5.08369,-1.30678 -1.73964,-0.110836 -3.48778,-0.245482 -5.25547,-0.339593l0 0.217136c1.75041,0.0904259 3.48097,0.219403 5.20757,0.322869 2.03019,0.378712 3.78201,0.846999 4.98165,1.27192 2.60024,1.0185 4.88101,1.86861 7.75962,2.40663 0.284601,0.0527248 0.573737,0.0972291 0.869393,0.135497l0.0008504 -0.223655z" />
    <path
   id="_291233264"
   class="fil123"
   d="M21.1251 18.7414c-0.405641,-0.0445043 -0.798809,-0.103182 -1.18177,-0.178017 -2.84317,-0.547658 -5.09928,-1.43207 -7.68393,-2.50783 -1.21947,-0.48076 -3.02487,-1.00291 -5.12565,-1.42499 -1.57097,-0.162993 -3.18532,-0.329388 -4.82602,-0.447878l0 0.217419c1.62115,0.115654 3.21735,0.27553 4.77301,0.432854 2.06279,0.414428 3.82964,0.923251 5.01991,1.387 2.60648,1.09928 4.88101,1.99957 7.7789,2.56027 0.403373,0.0773864 0.817518,0.138048 1.24499,0.184537l0.000566934 -0.223372z" />
    <path
   id="_291224432"
   class="fil124"
   d="M21.1237 19.1513c-0.541989,-0.0493232 -1.06073,-0.121324 -1.5619,-0.221104 -2.85593,-0.572036 -5.10127,-1.50521 -7.69017,-2.66147 -1.21154,-0.52413 -3.03395,-1.08766 -5.16477,-1.54404 -1.41166,-0.206364 -2.88853,-0.399405 -4.39912,-0.541989l0 0.21997c1.48962,0.140033 2.94834,0.327971 4.34186,0.528382 2.09085,0.447594 3.87499,0.997236 5.05393,1.50294 2.61498,1.17724 4.88442,2.1243 7.79817,2.70938 0.519878,0.104032 1.0579,0.178301 1.62115,0.229325l0.0008504 -0.221388z" />
    <path
   id="_291221960"
   class="fil125"
   d="M21.122 19.555c-0.682305,-0.0498902 -1.32606,-0.134647 -1.94231,-0.26249 -2.87095,-0.592729 -5.10382,-1.57494 -7.69839,-2.81312 -1.19935,-0.565233 -3.04075,-1.16902 -5.20275,-1.65771 -1.25689,-0.242081 -2.59372,-0.458366 -3.9708,-0.623627l0 0.220254c1.3544,0.162426 2.67082,0.375027 3.90844,0.610587 2.12062,0.479342 3.92233,1.06952 5.0922,1.61831 2.6198,1.25632 4.88328,2.25356 7.81603,2.86075 0.62958,0.130111 1.28694,0.216569 1.9837,0.267593 0.00737014,-0.0484728 0.0119056,-0.0986464 0.0136064,-0.149954l0.000283467 -0.0705832z" />
   </g>
  </g>
  <polygon
   class="fil126"
   points="0.833392,3.8971 22.5589,3.8971 22.5589,4.94139 0.833392,4.94139 "
   id="polygon3712" />
  <path
   class="fil127"
   d="M22.9495 6.77684l0 14.537c0,0.452696 -0.185954,0.865708 -0.484728,1.16448 -0.298207,0.298207 -0.711218,0.484728 -1.1642,0.484728l-19.6085 0c-0.453263,0 -0.865991,-0.185954 -1.16448,-0.484445 -0.298491,-0.298491 -0.484161,-0.711218 -0.484161,-1.16477l0 -15.6318c0,-0.643753 0.0615123,-1.71186 0.473956,-2.20452 0.265041,-0.316349 0.642619,-0.516193 1.12054,-0.516193l0.00963787 0.00198427 0.0606619 0.00141733 19.6479 0.0374176 0.00396854 0 0.0277797 0.000283467 0.00198427 0c1.81305,0.0218269 1.59507,1.89809 1.57863,3.25165l-0.0189923 0.522713zm-1.00007 14.537l0 -15.0371c0,-0.440507 -0.0141733,-1.79293 -0.201828,-2.06392 -0.108851,-0.0986464 -0.138615,-0.21175 -0.369641,-0.214301l-0.0257955 -0.000283467 -19.6536 -0.0374176 -0.00963787 0 -0.051024 -0.00113387 0 0.0017008c-0.155056,0 -0.274396,0.0609454 -0.354617,0.156757 -0.253986,0.303876 -0.239813,1.13018 -0.239813,1.56389l0 15.6318c0,0.177734 0.0734179,0.34016 0.191057,0.457799 0.117639,0.117639 0.280065,0.19134 0.457515,0.19134l19.6085 0c0.176883,0 0.339593,-0.0739848 0.457232,-0.191624 0.117922,-0.117922 0.191624,-0.280632 0.191624,-0.457515z"
   id="path3714" />
  <path
   class="fil128"
   d="M21.0191 10.7176c-6.09142,0.577705 -12.7965,0.505138 -18.9503,0.290837l0.0068032 -4.95982c-0.000283467,-0.55276 0.433421,-0.844164 1.00517,-0.844164l16.9961 -0.000283467c0.617674,0.000283467 0.960669,0.303876 0.960669,0.860605l-0.0184253 4.65282z"
   id="path3716" />
  <path
   class="fil129"
   d="M2.10616 6.1192l-0.0198427 14.0707c0.0374176,0.475657 0.638084,0.822904 1.06839,0.821487l16.9306 -0.0788038c0.621076,-0.0172915 0.904543,-0.433704 0.925519,-0.979945l0.0572603 -13.8167c0,-0.575438 -0.342995,-0.889519 -0.960669,-0.889802l-16.9961 0.000283467c-0.571186,0 -1.00546,0.301325 -1.00517,0.872794zm0.995819 0.127277l-0.0192757 13.2073c0.0280632,0.0164411 0.0530083,0.0263624 0.0697328,0.0272128l16.8623 -0.0785203 0 -0.00822054 0 0.52328 0.0569768 -13.6753 -16.9604 0.000283467 0 0.00396854 -0.0008504 0 -0.008504 0zm16.9233 13.7328c-0.00822054,0.00992134 -0.0124725,0.0147403 -0.0017008,0.0034016l0.0017008 -0.0034016zm0.046772 -13.8403l0 -0.00311813 -0.00396854 0 0.00396854 0.00311813zm0.064347 0.0620792l0.00453547 0.00453547 0.00113387 -0.00113387 -0.00566934 -0.0034016z"
   id="path3718" />
  <path
   class="fil130"
   d="M2.07554 5.87428l-0.0198427 14.1926c0.0374176,0.475657 0.638084,0.822904 1.06839,0.821487l16.9306 -0.0788038c0.621076,-0.0172915 0.904543,-0.433704 0.925519,-0.979945l0.0572603 -13.9386c0,-0.575438 -0.342995,-0.889519 -0.960669,-0.889802l-16.9961 0.000283467c-0.570619,0 -1.00546,0.301325 -1.00517,0.872794zm0.498051 0l-0.0198427 14.1541c0.0051024,0.0646304 0.0663312,0.137481 0.149104,0.200978 0.130111,0.100064 0.291971,0.160726 0.419247,0.161009l16.919 -0.0788038c0.150237,-0.00396854 0.253419,-0.0450712 0.314932,-0.109985 0.0790872,-0.0836227 0.119906,-0.222238 0.126143,-0.389483l0.0572603 -13.9211 -0.00198427 0c0,-0.142017 -0.0303309,-0.24123 -0.0878747,-0.294522l0.0008504 -0.0008504c-0.0688824,-0.0626462 -0.195309,-0.0963787 -0.373609,-0.0963787l-16.9961 0.000283467 0 0.00198427 -0.0008504 0c-0.172631,0 -0.314365,0.0371342 -0.401956,0.108851 -0.0634966,0.0518744 -0.102332,0.139749 -0.102332,0.263341l0 0.000566934 -0.00198427 0z"
   id="path3720" />
  <path
   class="fil126"
   d="M2.05769 19.9391c6.65467,0 12.2718,0 18.9265,0 -0.160159,0.496067 -0.167529,0.915881 -0.936574,1.14492 -6.09936,0 -11.1615,0 -17.2609,0 -0.625611,-0.317766 -0.715754,-0.725108 -0.729077,-1.14492z"
   id="path3722" />
  <g
   id="_294461296">
   <path
   id="_294453352"
   class="fil131"
   d="M10.0157 6.99539c1.28807,-0.596131 4.72766,4.00198 7.67968,10.2675 1.24272,2.63879 2.20084,5.15343 2.79838,7.22585l-4.76933 0c-0.896039,-1.47743 -1.81787,-3.1958 -2.6969,-5.06215 -2.95259,-6.26603 -4.30104,-11.833 -3.01183,-12.4312z" />
   <g
   id="g3726">
    <path
   id="_294448816"
   class="fil132"
   d="M10.1305 7.14762c1.14747,-0.532634 4.2401,3.63745 6.90525,9.31188 1.37481,2.92623 2.45227,5.82978 3.01609,8.0292l-3.7976 0c-1.11629,-1.69343 -2.30657,-3.8183 -3.37694,-6.0968 -2.66487,-5.67472 -3.8954,-10.7099 -2.74679,-11.2443z" />
    <path
   id="_294456496"
   class="fil133"
   d="M10.2445 7.29984c1.00716,-0.468571 3.75225,3.27404 6.1311,8.3566 1.50096,3.20913 2.7519,6.62802 3.21763,8.83226l-2.73857 0c-1.32266,-1.80625 -2.86698,-4.43626 -4.12728,-7.13146 -2.37885,-5.08369 -3.49089,-9.58713 -2.48289,-10.0574z" />
    <path
   id="_294442288"
   class="fil134"
   d="M10.3573 7.45178c0.866841,-0.404791 3.26582,2.9095 5.35781,7.40189 1.64949,3.54277 3.21225,7.79505 3.37496,9.63504l-1.52023 0c-1.41648,-1.59507 -3.51952,-4.99922 -4.99298,-8.16498 -2.09227,-4.49267 -3.0861,-8.46545 -2.21955,-8.87194z" />
    <path
   id="_294444520"
   class="fil135"
   d="M10.4704 7.60428c0.726525,-0.341577 2.77883,2.54525 4.58423,6.44604 1.80597,3.9022 3.96031,9.56077 3.23492,9.90235 -0.726525,0.341577 -4.05839,-4.76139 -5.86323,-8.66275 -1.8054,-3.90135 -2.68075,-7.34321 -1.95592,-7.68564z" />
    <path
   id="_294456304"
   class="fil136"
   d="M10.5844 7.75565c0.585926,-0.27638 2.29126,2.18213 3.81008,5.49189 1.5191,3.31118 3.87499,8.99298 3.28963,9.26993 -0.585075,0.277797 -3.88916,-4.95103 -5.40826,-8.26192 -1.5191,-3.31061 -2.27567,-6.22068 -1.69145,-6.49989z" />
   </g>
   <path
   id="_294441472"
   class="fil137"
   d="M10.6963 7.90844c0.445326,-0.213734 1.80427,1.81759 3.03735,4.53689 1.23251,2.71986 3.78967,8.42492 3.34548,8.6378 -0.444759,0.213734 -3.72249,-5.1418 -4.95443,-7.86053 -1.23251,-2.72015 -1.87201,-5.09928 -1.42839,-5.31415z" />
  </g>
  <path
   class="fil18"
   d="M0.871093 21.0471l-0.130678 0.1423m21.6447 -0.0153072l-0.145985 -0.129261"
   id="path3734" />
  <path
   class="fil18"
   d="M1.22429 21.1741l-0.128694 0.140316m21.3039 -0.0153072l-0.144001 -0.126993"
   id="path3736" />
  <g
   id="_294465520">
   <path
   id="_294452752"
   class="fil138"
   d="M5.74757 11.0651c-2.44065,0 -4.4201,1.97973 -4.4201,4.42038 0,2.44065 1.97945,4.42038 4.4201,4.42038 2.44093,0 4.42038,-1.97973 4.42038,-4.42038 0,-2.44065 -1.97945,-4.42038 -4.42038,-4.42038z" />
   <g
   id="g3740">
    <path
   id="_294455032"
   class="fil139"
   d="M5.74871 11.0461c-2.45142,0 -4.43966,1.98767 -4.43966,4.43909 0,2.45057 1.98824,4.43881 4.43966,4.43881 2.45057,0 4.43881,-1.98824 4.43881,-4.43881 0,-2.45142 -1.98824,-4.43909 -4.43881,-4.43909z" />
    <path
   id="_294444088"
   class="fil140"
   d="M5.74871 11.8364c-2.01517,0 -3.6485,1.63362 -3.6485,3.64878 0,2.01432 1.63334,3.6485 3.6485,3.6485 2.01432,0 3.6485,-1.63419 3.6485,-3.6485 0,-2.01517 -1.63419,-3.64878 -3.6485,-3.64878z" />
    <path
   id="_294464848"
   class="fil141"
   d="M5.74871 12.627c-1.57806,0 -2.8582,1.28014 -2.8582,2.8582 0,1.57721 1.28014,2.85735 2.8582,2.85735 1.57721,0 2.85735,-1.28014 2.85735,-2.85735 0,-1.57806 -1.28014,-2.8582 -2.85735,-2.8582z" />
    <path
   id="_294459304"
   class="fil142"
   d="M5.74871 13.4182c-1.14124,0 -2.06704,0.925803 -2.06704,2.06619 0,1.14095 0.925803,2.06704 2.06704,2.06704 1.14039,0 2.06619,-0.926086 2.06619,-2.06704 0,-1.14039 -0.925803,-2.06619 -2.06619,-2.06619z" />
    <path
   id="_294458680"
   class="fil143"
   d="M5.74871 14.2088c-0.704982,0 -1.27588,0.571469 -1.27588,1.2756 0,0.704698 0.570902,1.27645 1.27588,1.27645 0.704132,0 1.2756,-0.571753 1.2756,-1.27645 0,-0.704132 -0.571469,-1.2756 -1.2756,-1.2756z" />
   </g>
   <path
   id="_294466264"
   class="fil144"
   d="M5.74786 15.0759c-0.226207,0 -0.40961,0.183403 -0.40961,0.40961 0,0.225923 0.183403,0.409326 0.40961,0.409326 0.225923,0 0.409326,-0.183403 0.409326,-0.409326 0,-0.226207 -0.183403,-0.40961 -0.409326,-0.40961z" />
  </g>
  <g
   id="_294471472">
   <path
   id="_294445888"
   class="fil145"
   d="M8.3121 1.20899c-3.37949,0 -6.12062,2.74112 -6.12062,6.12062 0,3.37949 2.74112,6.12033 6.12062,6.12033 3.37949,0 6.12033,-2.74084 6.12033,-6.12033 0,-3.37949 -2.74084,-6.12062 -6.12033,-6.12062z" />
   <g
   id="g3750">
    <path
   id="_294464320"
   class="fil146"
   d="M8.31238 2.99993c-2.39048,0 -4.32939,1.9392 -4.32939,4.32939 0,2.39076 1.93891,4.32882 4.32939,4.32882 2.39019,0 4.32854,-1.93806 4.32854,-4.32882 0,-2.39019 -1.93835,-4.32939 -4.32854,-4.32939z" />
    <path
   id="_294446320"
   class="fil147"
   d="M8.31238 3.48579c-2.12175,0 -3.84353,1.72121 -3.84353,3.84353 0,2.12232 1.72178,3.84296 3.84353,3.84296 2.12175,0 3.84296,-1.72064 3.84296,-3.84296 0,-2.12232 -1.72121,-3.84353 -3.84296,-3.84353z" />
    <path
   id="_294442504"
   class="fil148"
   d="M8.31238 3.97165c-1.85387,0 -3.35766,1.50379 -3.35766,3.35766 0,1.85416 1.50379,3.35766 3.35766,3.35766 1.85359,0 3.35681,-1.50351 3.35681,-3.35766 0,-1.85387 -1.50322,-3.35766 -3.35681,-3.35766z" />
    <path
   id="_294468304"
   class="fil149"
   d="M8.31238 4.45752c-1.586,0 -2.87209,1.28609 -2.87209,2.8718 0,1.58571 1.28609,2.8718 2.87209,2.8718 1.58543,0 2.8718,-1.28609 2.8718,-2.8718 0,-1.58571 -1.28637,-2.8718 -2.8718,-2.8718z" />
    <path
   id="_294464872"
   class="fil150"
   d="M8.31266 4.94366c-1.31755,0 -2.38594,1.06839 -2.38594,2.38594 0,1.31755 1.06839,2.38622 2.38594,2.38622 1.3167,0 2.38566,-1.06867 2.38566,-2.38622 0,-1.31755 -1.06895,-2.38594 -2.38566,-2.38594z" />
    <path
   id="_294462880"
   class="fil151"
   d="M8.31266 5.42952c-1.04968,0 -1.90008,0.851251 -1.90008,1.90008 0,1.04939 0.8504,1.90036 1.90008,1.90036 1.04911,0 1.89979,-0.850967 1.89979,-1.90036 0,-1.04883 -0.850684,-1.90008 -1.89979,-1.90008z" />
    <path
   id="_294450088"
   class="fil152"
   d="M8.31266 5.91539c-0.781234,0 -1.41422,0.633265 -1.41422,1.41422 0,0.780951 0.632981,1.4145 1.41422,1.4145 0.780668,0 1.41393,-0.633548 1.41393,-1.4145 0,-0.780951 -0.633265,-1.41422 -1.41393,-1.41422z" />
   </g>
   <path
   id="_294452032"
   class="fil153"
   d="M8.3121 6.14953c-0.65169,0 -1.18036,0.528666 -1.18036,1.18036 0,0.65169 0.528666,1.18036 1.18036,1.18036 0.65169,0 1.18036,-0.528666 1.18036,-1.18036 0,-0.65169 -0.528666,-1.18036 -1.18036,-1.18036z" />
  </g>
  <polygon
   class="fil154"
   points="12.5151,7.33159 10.3156,9.02105 21.8573,23.6029 24.0564,21.9134 "
   id="polygon3760" />
  <polygon
   class="fil155"
   points="12.1792,7.73439 10.3355,9.20105 10.393,9.27617 11.3733,8.47311 22.8571,22.9798 23.7205,22.3162 "
   id="polygon3762" />
  <path
   class="fil156"
   d="M12.5151 7.33159l-2.19942 1.68975c1.32237,1.72064 2.64475,3.44157 3.96712,5.16278 0.865991,-0.429452 1.51711,-1.07434 2.19885,-1.68946l-3.96655 -5.16306z"
   id="path3764" />
  <polygon
   class="fil157"
   points="12.1789,7.73468 10.3857,9.11232 10.4435,9.18773 11.373,8.47311 15.2125,13.4701 16.076,12.8067 "
   id="polygon3766" />
  <path
   class="fil158"
   d="M12.3889 7.16774c-0.882149,0.376444 -1.55538,1.01424 -2.19885,1.69003 -0.0547091,0.0416696 -0.109418,0.0836227 -0.164127,0.125859 0.0422366,0.0544256 0.0841896,0.108851 0.126143,0.16356l4.0737 5.30225 0.318333 -0.263908c-1.3133,-1.70874 -2.62575,-3.41748 -3.93877,-5.12621 0.551626,-0.551626 1.14265,-1.06442 1.87145,-1.43831l3.8852 5.05676 0.318333 -0.263908c-1.33399,-1.73623 -2.66771,-3.47218 -4.0017,-5.20814 -0.0422366,-0.0544256 -0.0841896,-0.109135 -0.126143,-0.163844 -0.0547091,0.0419531 -0.109135,0.0839062 -0.16356,0.125859z"
   id="path3768" />
  <path
   class="fil159"
   d="M14.2258 14.4494c2.82928,3.68252 4.63808,5.59677 7.46765,9.27929 0.0419531,0.0547091 0.0839062,0.109418 0.125859,0.164127 0.997236,-0.432854 2.01233,-0.854652 2.52654,-1.94146 -0.0419531,-0.0547091 -0.0839062,-0.109418 -0.125859,-0.163844l-7.53965 -9.37368 -0.318333 0.263908c2.80831,3.65502 4.59613,5.54234 7.40472,9.19765 -0.455531,0.648572 -1.00177,1.20558 -1.87145,1.43803l-7.35114 -9.12791 -0.318333 0.263908z"
   id="path3770" />
  <polygon
   class="fil160"
   points="12.1792,7.73468 10.3857,9.11232 10.4435,9.18773 11.373,8.47282 15.2128,13.4703 16.076,12.807 "
   id="polygon3772" />
  <path
   class="fil161"
   d="M10.5359 8.12104c-0.40394,0 -0.731911,0.327971 -0.731911,0.731911 0,0.404224 0.327971,0.731911 0.731911,0.731911 0.404224,0 0.731911,-0.327688 0.731911,-0.731911 0,-0.40394 -0.327688,-0.731911 -0.731911,-0.731911z"
   id="path3774" />
  <polygon
   class="fil162"
   points="8.10063,-0.612288 7.42201,6.55063 0.280916,7.20714 7.38403,8.00822 8.10063,15.0269 8.9618,7.92488 15.9201,7.20714 8.87846,6.46701 "
   id="polygon3776" />
  <polygon
   class="fil162"
   points="5.78811,10.1739 4.99525,14.9719 0.492382,15.7704 5.17809,16.3189 5.78811,21.3672 6.27652,16.199 13.8913,15.8316 6.40295,14.9753 "
   id="polygon3778" />
 </g>
</svg>