<?xml version="1.0" encoding="UTF-8" standalone="no"?>
<!-- Created with Inkscape (http://www.inkscape.org/) -->

<svg
   xmlns:dc="http://purl.org/dc/elements/1.1/"
   xmlns:cc="http://creativecommons.org/ns#"
   xmlns:rdf="http://www.w3.org/1999/02/22-rdf-syntax-ns#"
   xmlns:svg="http://www.w3.org/2000/svg"
   xmlns="http://www.w3.org/2000/svg"
   xmlns:sodipodi="http://sodipodi.sourceforge.net/DTD/sodipodi-0.dtd"
   xmlns:inkscape="http://www.inkscape.org/namespaces/inkscape"
   width="24"
   height="24"
   id="svg2"
   version="1.1"
   inkscape:version="0.48.3.1 r9886"
   sodipodi:docname="24.svg">
  <defs
     id="defs4">
    <linearGradient
       gradientTransform="translate(9.001,8.25)"
       y2="4.5"
       x2="0"
       y1="0"
       x1="0"
       gradientUnits="userSpaceOnUse"
       id="LinearGradient_15-211">
      <stop
         id="stop43125"
         stop-color="#e6e6e6"
         offset="0" />
      <stop
         id="stop43127"
         stop-color="#ffffff"
         offset="1" />
    </linearGradient>
    <linearGradient
       gradientTransform="matrix(0,-1,1,0,8.881,15.311)"
       y2="0"
       x2="2.853"
       y1="0"
       x1="0"
       gradientUnits="userSpaceOnUse"
       id="LinearGradient_14-03">
      <stop
         id="stop43120"
         stop-color="#3e3d3d"
         offset="0" />
      <stop
         id="stop43122"
         stop-color="#ffffff"
         offset="1" />
    </linearGradient>
    <linearGradient
       gradientTransform="matrix(-1,0,0,-1,15.51,9.279)"
       y2="0"
       x2="12.776"
       y1="0"
       x1="0"
       gradientUnits="userSpaceOnUse"
       id="LinearGradient_13-03">
      <stop
         id="stop43113"
         stop-color="#588fcc"
         offset="0" />
      <stop
         id="stop43115"
         stop-color="#9ed4ff"
         offset="0.50943398475647" />
      <stop
         id="stop43117"
         stop-color="#588fcc"
         offset="1" />
    </linearGradient>
    <linearGradient
       gradientTransform="matrix(0,1,-1,0,6.229,6.884)"
       y2="0"
       x2="7.233"
       y1="0"
       x1="0"
       gradientUnits="userSpaceOnUse"
       id="LinearGradient_12-33">
      <stop
         id="stop43108"
         stop-color="#87bbeb"
         offset="0" />
      <stop
         id="stop43110"
         stop-color="#ccedff"
         offset="1" />
    </linearGradient>
    <linearGradient
       gradientTransform="matrix(-0.51322672,0.85825307,-0.87865671,-0.47910634,6.63,10.38)"
       y2="0"
       x2="2.912"
       y1="0"
       x1="0"
       gradientUnits="userSpaceOnUse"
       id="LinearGradient_11-857">
      <stop
         id="stop43103"
         stop-color="#5a5a5a"
         offset="0" />
      <stop
         id="stop43105"
         stop-color="#2e2c2c"
         offset="1" />
    </linearGradient>
    <linearGradient
       gradientTransform="matrix(-0.90828196,0.41835856,-0.45186138,-0.89285042,6.257,6.811)"
       y2="0"
       x2="3.982"
       y1="0"
       x1="0"
       gradientUnits="userSpaceOnUse"
       id="LinearGradient_10-04">
      <stop
         id="stop43098"
         stop-color="#5a5a5a"
         offset="0" />
      <stop
         id="stop43100"
         stop-color="#2e2c2c"
         offset="1" />
    </linearGradient>
    <linearGradient
       gradientTransform="matrix(-0.99399538,-0.10942204,0.1196573,-0.99286865,8.128,6.693)"
       y2="0"
       x2="3.262"
       y1="0"
       x1="0"
       gradientUnits="userSpaceOnUse"
       id="LinearGradient_9-29">
      <stop
         id="stop43093"
         stop-color="#5a5a5a"
         offset="0" />
      <stop
         id="stop43095"
         stop-color="#2e2c2c"
         offset="1" />
    </linearGradient>
    <linearGradient
       gradientTransform="matrix(-0.46414652,-0.88575844,0.90328874,-0.4306924,11.495,8.001)"
       y2="0"
       x2="3.761"
       y1="0"
       x1="0"
       gradientUnits="userSpaceOnUse"
       id="LinearGradient_8-35">
      <stop
         id="stop43088"
         stop-color="#5a5a5a"
         offset="0" />
      <stop
         id="stop43090"
         stop-color="#2e2c2c"
         offset="1" />
    </linearGradient>
    <linearGradient
       gradientTransform="matrix(-0.09543748,-0.99543543,0.99629754,-0.08644546,14.488,8.715)"
       y2="0"
       x2="2.63"
       y1="0"
       x1="0"
       gradientUnits="userSpaceOnUse"
       id="LinearGradient_7-13">
      <stop
         id="stop43083"
         stop-color="#5a5a5a"
         offset="0" />
      <stop
         id="stop43085"
         stop-color="#2e2c2c"
         offset="1" />
    </linearGradient>
    <linearGradient
       gradientTransform="matrix(0.55214655,-0.83374708,0.85786291,0.51573139,13.987,11.096)"
       y2="0"
       x2="2.713"
       y1="0"
       x1="0"
       gradientUnits="userSpaceOnUse"
       id="LinearGradient_6-92">
      <stop
         id="stop43078"
         stop-color="#5a5a5a"
         offset="0" />
      <stop
         id="stop43080"
         stop-color="#2e2c2c"
         offset="1" />
    </linearGradient>
    <linearGradient
       gradientTransform="matrix(-0.97755216,0.21069356,-0.2304021,-0.97330434,15.609,13.118)"
       y2="0"
       x2="3.953"
       y1="0"
       x1="0"
       gradientUnits="userSpaceOnUse"
       id="LinearGradient_5-50">
      <stop
         id="stop43073"
         stop-color="#2e2c2c"
         offset="0" />
      <stop
         id="stop43075"
         stop-color="#5a5a5a"
         offset="1" />
    </linearGradient>
    <linearGradient
       gradientTransform="matrix(-0.09434288,0.99553976,-0.99625409,-0.08680506,5.758,12.047)"
       y2="0"
       x2="2.628"
       y1="0"
       x1="0"
       gradientUnits="userSpaceOnUse"
       id="LinearGradient_4-8">
      <stop
         id="stop43068"
         stop-color="#5a5a5a"
         offset="0" />
      <stop
         id="stop43070"
         stop-color="#2e2c2c"
         offset="1" />
    </linearGradient>
    <linearGradient
       gradientTransform="matrix(-0.90913437,-0.41650295,0.45003848,-0.89377069,12.99,14.903)"
       y2="0"
       x2="3.428"
       y1="0"
       x1="0"
       gradientUnits="userSpaceOnUse"
       id="LinearGradient_3-13">
      <stop
         id="stop43063"
         stop-color="#2e2c2c"
         offset="0" />
      <stop
         id="stop43065"
         stop-color="#5a5a5a"
         offset="1" />
    </linearGradient>
    <linearGradient
       gradientTransform="matrix(-0.3774206,-0.92604195,0.93781069,-0.34854473,8.627,15.379)"
       y2="0"
       x2="2.313"
       y1="0"
       x1="0"
       gradientUnits="userSpaceOnUse"
       id="LinearGradient_2-54">
      <stop
         id="stop43058"
         stop-color="#2e2c2c"
         offset="0" />
      <stop
         id="stop43060"
         stop-color="#5a5a5a"
         offset="1" />
    </linearGradient>
    <linearGradient
       gradientTransform="matrix(0,-1,1,0,7.299,17.001)"
       y2="0"
       x2="13.001"
       y1="0"
       x1="0"
       gradientUnits="userSpaceOnUse"
       id="LinearGradient_1-561">
      <stop
         id="stop43053"
         stop-color="#e2e2e2"
         offset="0" />
      <stop
         id="stop43055"
         stop-color="#b0b0b0"
         offset="1" />
    </linearGradient>
    <linearGradient
       gradientTransform="matrix(0,-1,1,0,7.173,17.864)"
       y2="0"
       x2="14.727"
       y1="0"
       x1="0"
       gradientUnits="userSpaceOnUse"
       id="LinearGradient-29">
      <stop
         id="stop43048"
         stop-color="#878b8e"
         offset="0" />
      <stop
         id="stop43050"
         stop-color="#818689"
         offset="1" />
    </linearGradient>
  </defs>
  <sodipodi:namedview
     id="base"
     pagecolor="#ffffff"
     bordercolor="#666666"
     borderopacity="1.0"
     inkscape:pageopacity="0.0"
     inkscape:pageshadow="2"
     inkscape:zoom="15.276441"
     inkscape:cx="14.394145"
     inkscape:cy="11.345973"
     inkscape:document-units="px"
     inkscape:current-layer="layer1"
     showgrid="false"
     inkscape:snap-page="true"
     inkscape:snap-grids="false"
     inkscape:snap-to-guides="false"
     inkscape:window-width="995"
     inkscape:window-height="665"
     inkscape:window-x="386"
     inkscape:window-y="256"
     inkscape:window-maximized="0">
    <inkscape:grid
       type="xygrid"
       id="grid11920"
       empspacing="5"
       visible="true"
       enabled="true"
       snapvisiblegridlinesonly="true" />
  </sodipodi:namedview>
  <metadata
     id="metadata7">
    <rdf:RDF>
      <cc:Work
         rdf:about="">
        <dc:format>image/svg+xml</dc:format>
        <dc:type
           rdf:resource="http://purl.org/dc/dcmitype/StillImage" />
        <dc:title />
      </cc:Work>
    </rdf:RDF>
  </metadata>
  <g
     inkscape:label="Layer 1"
     inkscape:groupmode="layer"
     id="layer1"
     transform="translate(0,-1028.3622)">
    <g
       style="fill-rule:evenodd;stroke-width:0.50099999;stroke-linejoin:bevel;overflow:visible"
       id="g43273"
       transform="matrix(1.3332593,0,0,1.3333333,0,1028.3622)">
      <g
         transform="scale(1,-1)"
         font-size="16"
         id="Document"
         style="font-size:16px;fill:none;stroke:#000000;font-family:Times New Roman">
        <g
           transform="translate(0,-18)"
           id="Spread">
          <g
             id="MouseOff">
            <g
               id="Group"
               style="stroke:none">
              <path
                 id="path43133"
                 stroke-miterlimit="79.8403193612775"
                 d="M 0.001,3.001 0.001,3 c 0,-0.414 0.355,-0.75 0.791,-0.75 l 16.417,0 C 17.645,2.25 18,2.586 18,3 l 0,10e-4 c 0,0.414 -0.355,0.75 -0.791,0.75 l -16.417,0 c -0.436,0 -0.791,-0.336 -0.791,-0.75 z"
                 inkscape:connector-curvature="0"
                 style="fill:#000000;fill-opacity:0.12549002;stroke-width:0.061;marker-start:none;marker-end:none" />
              <g
                 stroke-miterlimit="79.8403193612775"
                 id="Group_1">
                <g
                   id="Group_2">
                  <path
                     style="fill:url(#LinearGradient-29);marker-start:none;marker-end:none"
                     id="path43137"
                     d="M 0,16.708 0,4.293 C 0,3.58 0.579,3.001 1.292,3.001 l 15.417,0 c 0.713,0 1.292,0.579 1.292,1.292 l 0,12.415 C 18.001,17.421 17.422,18 16.709,18 L 1.292,18 C 0.579,18 0,17.421 0,16.708 z"
                     inkscape:connector-curvature="0" />
                  <path
                     style="fill:url(#LinearGradient_1-561);marker-start:none;marker-end:none"
                     id="path43139"
                     d="M 0.75,16.469 0.75,4.53 C 0.75,4.099 1.1,3.749 1.531,3.749 l 14.939,0 c 0.431,0 0.781,0.35 0.781,0.781 l 0,11.939 c 0,0.431 -0.35,0.781 -0.781,0.781 l -14.939,0 C 1.1,17.25 0.75,16.9 0.75,16.469 z"
                     inkscape:connector-curvature="0" />
                  <path
                     id="path43141"
                     d="m 1.502,4.5 0,-0.751 14.999,0 0,0.751 -14.999,0 z"
                     inkscape:connector-curvature="0"
                     style="fill:#cccbcb;marker-start:none;marker-end:none" />
                  <path
                     id="path43143"
                     d="m 1.503,15.903 0,-10.805 C 1.503,4.769 1.771,4.501 2.1,4.501 l 13.803,0 c 0.329,0 0.597,0.268 0.597,0.597 l 0,10.805 c 0,0.329 -0.268,0.597 -0.597,0.597 L 2.1,16.5 c -0.329,0 -0.597,-0.268 -0.597,-0.597 z"
                     inkscape:connector-curvature="0"
                     style="fill:#1d1d1d;marker-start:none;marker-end:none" />
                </g>
              </g>
              <g
                 stroke-miterlimit="79.8403193612775"
                 id="Group_3">
                <path
                   style="fill:url(#LinearGradient_2-54);marker-start:none;marker-end:none"
                   id="path43146"
                   d="m 2.251,15.024 0,0.61 c 0,0.064 0.053,0.116 0.12,0.116 l 6.944,0 c 1.508,-1.009 2.521,-2.179 3.165,-3.209 0.003,-0.015 0.007,-0.028 0.012,-0.041 -2.867,2.247 -7.631,2.512 -10.241,2.524 z"
                   inkscape:connector-curvature="0" />
                <path
                   style="fill:url(#LinearGradient_3-13);marker-start:none;marker-end:none"
                   id="path43148"
                   d="m 9.315,15.75 3.524,0 c 0.673,-1.981 0.739,-3.665 0.481,-5.024 -0.337,1.181 -1.473,3.328 -4.005,5.024 z"
                   inkscape:connector-curvature="0" />
                <path
                   style="fill:url(#LinearGradient_4-8);marker-start:none;marker-end:none"
                   id="path43150"
                   d="m 2.251,11.993 0,3.031 C 4.319,15.015 8.485,14.84 11.245,13.237 8.428,13.408 4.326,13.039 2.251,11.993 z"
                   inkscape:connector-curvature="0" />
                <path
                   style="fill:url(#LinearGradient_5-50);marker-start:none;marker-end:none"
                   id="path43152"
                   d="m 12.839,15.75 2.791,0 c 0.068,0 0.121,-0.052 0.121,-0.116 l 0,-3.208 C 14.896,10.73 13.675,9.472 12.562,8.621 c 0.875,1.548 1.354,3.955 0.277,7.129 z"
                   inkscape:connector-curvature="0" />
                <path
                   style="fill:url(#LinearGradient_6-92);marker-start:none;marker-end:none"
                   id="path43154"
                   d="m 15.751,12.457 0,-3.444 C 13.706,7.987 11.606,7.525 8.004,7.525 c 1.162,0.412 6.02,1.895 7.747,4.932 z"
                   inkscape:connector-curvature="0" />
                <path
                   style="fill:url(#LinearGradient_7-13);marker-start:none;marker-end:none"
                   id="path43156"
                   d="m 6.881,7.764 c 1.6,-0.191 5.377,-0.478 8.87,1.249 l 0,-2.939 C 13.016,6.038 8.82,6.606 6.881,7.764 z"
                   inkscape:connector-curvature="0" />
                <path
                   style="fill:url(#LinearGradient_8-35);marker-start:none;marker-end:none"
                   id="path43158"
                   d="M 5.715,8.502 C 7.476,6.881 12.049,6.013 15.751,6.073 l 0,-0.706 C 15.751,5.303 15.698,5.25 15.63,5.25 l -6.691,0 C 7.381,6.337 6.353,7.504 5.715,8.502 z"
                   inkscape:connector-curvature="0" />
                <path
                   style="fill:url(#LinearGradient_9-29);marker-start:none;marker-end:none"
                   id="path43160"
                   d="M 4.874,10.389 C 5.08,9.359 6.178,7.175 8.939,5.25 l -3.517,0 C 4.639,7.318 4.581,8.973 4.874,10.389 z"
                   inkscape:connector-curvature="0" />
                <path
                   style="fill:url(#LinearGradient_10-04);marker-start:none;marker-end:none"
                   id="path43162"
                   d="m 2.251,5.367 0,3.166 C 3.075,10.081 4.138,11.53 5.643,12.606 4.756,10.729 4.191,8.497 5.422,5.25 l -3.051,0 c -0.067,0 -0.12,0.053 -0.12,0.117 z"
                   inkscape:connector-curvature="0" />
                <path
                   style="fill:url(#LinearGradient_11-857);marker-start:none;marker-end:none"
                   id="path43164"
                   d="m 2.251,8.297 0,3.692 c 1.638,0.785 5.906,1.588 8.87,1.248 -2.269,-0.684 -7.005,-1.841 -8.87,-4.94 z"
                   inkscape:connector-curvature="0" />
              </g>
              <path
                 style="fill:url(#LinearGradient_12-33);stroke-width:0.061;marker-start:none;marker-end:none"
                 id="path43166"
                 stroke-miterlimit="79.8403193612775"
                 d="m 2.25,14.249 0,-7.499 13.501,0 0,7.499 -13.501,0 z"
                 inkscape:connector-curvature="0" />
              <path
                 style="fill:url(#LinearGradient_13-03);stroke-width:0.061;marker-start:none;marker-end:none"
                 id="path43168"
                 stroke-miterlimit="79.8403193612775"
                 d="m 2.25,13.5 0,-6.001 13.501,0 0,6.001 -13.501,0 z"
                 inkscape:connector-curvature="0" />
              <path
                 style="fill:url(#LinearGradient_14-03);fill-opacity:0.09019602;stroke-width:0.019;marker-start:none;marker-end:none"
                 id="path43170"
                 stroke-miterlimit="79.8403193612775"
                 d="m 2.251,11.825 0,3.602 c 0,0.178 0.157,0.323 0.349,0.323 l 12.802,0 c 0.192,0 0.349,-0.145 0.349,-0.323 l 0,-3.602 c -1.878,-0.361 -4.217,-0.575 -6.75,-0.575 -2.533,0 -4.871,0.214 -6.75,0.575 z"
                 inkscape:connector-curvature="0" />
              <path
                 id="path43172"
                 stroke-miterlimit="79.8403193612775"
                 d="m 10.014,7.5 -3.157,0 C 6.799,7.5 6.751,7.548 6.751,7.606 l 0,0.537 c 0,0.058 0.048,0.106 0.106,0.106 l 0.644,0 0,0.253 c 0,0.241 0.074,0.434 0.187,0.591 C 7.741,9.167 7.8,9.229 7.855,9.281 7.908,9.332 7.964,9.379 8.01,9.417 8.117,9.507 8.166,9.55 8.203,9.603 8.232,9.642 8.251,9.685 8.251,9.758 8.251,9.83 8.232,9.873 8.203,9.912 8.17,9.959 8.122,10.004 8.01,10.098 7.929,10.166 7.791,10.279 7.688,10.422 7.575,10.579 7.501,10.772 7.501,11.014 l 0,0.236 -0.644,0 c -0.058,0 -0.106,0.048 -0.106,0.106 l 0,0.537 c 0,0.058 0.048,0.106 0.106,0.106 l 0.908,0 c 0.035,0.011 0.072,0.017 0.111,0.017 0.038,0 0.075,-0.006 0.11,-0.017 l 2.129,0 c 0.004,0 0.007,10e-4 0.011,10e-4 0.003,0 0.006,-10e-4 0.01,-10e-4 l 1.008,0 c 0.058,0 0.106,-0.048 0.106,-0.106 l 0,-0.537 c 0,-0.058 -0.048,-0.106 -0.106,-0.106 l -0.643,0 0,-0.252 c 0,-0.242 -0.075,-0.435 -0.188,-0.592 C 10.26,10.332 10.201,10.27 10.146,10.218 10.093,10.167 10.037,10.12 9.991,10.082 9.884,9.992 9.835,9.949 9.798,9.896 9.769,9.857 9.751,9.814 9.751,9.742 9.751,9.669 9.769,9.626 9.798,9.587 9.831,9.54 9.879,9.495 9.991,9.401 10.072,9.333 10.21,9.22 10.313,9.077 10.426,8.92 10.501,8.727 10.501,8.486 l 0,-0.237 0.643,0 c 0.058,0 0.106,-0.048 0.106,-0.106 l 0,-0.537 C 11.25,7.548 11.202,7.5 11.144,7.5 l -0.907,0 C 10.202,7.489 10.164,7.484 10.126,7.484 c -0.039,0 -0.077,0.005 -0.112,0.016 z m -0.263,0.749 0,0.237 C 9.751,8.558 9.732,8.601 9.703,8.64 9.67,8.687 9.622,8.732 9.51,8.826 9.429,8.894 9.291,9.007 9.188,9.15 9.075,9.307 9.001,9.5 9.001,9.742 c 0,0.241 0.074,0.434 0.187,0.591 0.053,0.074 0.112,0.136 0.167,0.188 0.053,0.051 0.109,0.098 0.155,0.136 0.107,0.09 0.156,0.133 0.193,0.186 0.029,0.039 0.048,0.082 0.048,0.155 l 0,0.252 -1.5,0 0,-0.236 c 0,-0.073 0.018,-0.116 0.047,-0.155 C 8.331,10.812 8.379,10.767 8.491,10.673 8.572,10.605 8.71,10.492 8.813,10.349 8.926,10.192 9.001,9.999 9.001,9.758 9.001,9.516 8.926,9.323 8.813,9.166 8.76,9.092 8.701,9.03 8.646,8.978 8.593,8.927 8.537,8.88 8.491,8.842 8.384,8.752 8.335,8.709 8.298,8.656 8.269,8.617 8.251,8.574 8.251,8.502 l 0,-0.253 1.5,0 z"
                 inkscape:connector-curvature="0"
                 style="fill:#588fcc;fill-rule:evenodd;stroke-width:0.5;marker-start:none;marker-end:none" />
              <path
                 style="fill:url(#LinearGradient_15-211);fill-rule:evenodd;stroke-width:0.5;marker-start:none;marker-end:none"
                 id="path43174"
                 stroke-miterlimit="79.8403193612775"
                 d="m 6.857,8.25 c -0.058,0 -0.106,0.048 -0.106,0.106 l 0,0.537 c 0,0.058 0.048,0.106 0.106,0.106 l 0.644,0 0,0.253 c 0,0.241 0.074,0.434 0.187,0.591 0.053,0.074 0.112,0.136 0.167,0.188 0.053,0.051 0.109,0.098 0.155,0.136 0.107,0.09 0.156,0.133 0.193,0.186 0.029,0.039 0.048,0.082 0.048,0.155 0,0.072 -0.019,0.115 -0.048,0.154 -0.033,0.047 -0.081,0.092 -0.193,0.186 -0.081,0.068 -0.219,0.181 -0.322,0.324 -0.113,0.157 -0.187,0.35 -0.187,0.592 l 0,0.236 -0.644,0 c -0.058,0 -0.106,0.048 -0.106,0.106 l 0,0.537 c 0,0.058 0.048,0.106 0.106,0.106 l 4.287,0 c 0.058,0 0.106,-0.048 0.106,-0.106 l 0,-0.537 C 11.25,12.048 11.202,12 11.144,12 l -0.643,0 0,-0.252 c 0,-0.242 -0.075,-0.435 -0.188,-0.592 C 10.26,11.082 10.201,11.02 10.146,10.968 10.093,10.917 10.037,10.87 9.991,10.832 9.884,10.742 9.835,10.699 9.798,10.646 9.769,10.607 9.751,10.564 9.751,10.492 c 0,-0.073 0.018,-0.116 0.047,-0.155 0.033,-0.047 0.081,-0.092 0.193,-0.186 0.081,-0.068 0.219,-0.181 0.322,-0.324 0.113,-0.157 0.188,-0.35 0.188,-0.591 l 0,-0.237 0.643,0 c 0.058,0 0.106,-0.048 0.106,-0.106 l 0,-0.537 C 11.25,8.298 11.202,8.25 11.144,8.25 l -4.287,0 z m 2.894,0.749 0,0.237 C 9.751,9.308 9.732,9.351 9.703,9.39 9.67,9.437 9.622,9.482 9.51,9.576 9.429,9.644 9.291,9.757 9.188,9.9 c -0.113,0.157 -0.187,0.35 -0.187,0.592 0,0.241 0.074,0.434 0.187,0.591 0.053,0.074 0.112,0.136 0.167,0.188 0.053,0.051 0.109,0.098 0.155,0.136 0.107,0.09 0.156,0.133 0.193,0.186 0.029,0.039 0.048,0.082 0.048,0.155 l 0,0.252 -1.5,0 0,-0.236 c 0,-0.073 0.018,-0.116 0.047,-0.155 0.033,-0.047 0.081,-0.092 0.193,-0.186 0.081,-0.068 0.219,-0.181 0.322,-0.324 0.113,-0.157 0.188,-0.35 0.188,-0.591 0,-0.242 -0.075,-0.435 -0.188,-0.592 C 8.76,9.842 8.701,9.78 8.646,9.728 8.593,9.677 8.537,9.63 8.491,9.592 8.384,9.502 8.335,9.459 8.298,9.406 8.269,9.367 8.251,9.324 8.251,9.252 l 0,-0.253 1.5,0 z"
                 inkscape:connector-curvature="0" />
            </g>
          </g>
        </g>
      </g>
    </g>
  </g>
</svg>
