<?xml version="1.0" encoding="UTF-8" standalone="no"?>
<!-- Creator: CorelDRAW -->

<svg
   xmlns:dc="http://purl.org/dc/elements/1.1/"
   xmlns:cc="http://creativecommons.org/ns#"
   xmlns:rdf="http://www.w3.org/1999/02/22-rdf-syntax-ns#"
   xmlns:svg="http://www.w3.org/2000/svg"
   xmlns="http://www.w3.org/2000/svg"
   xmlns:sodipodi="http://sodipodi.sourceforge.net/DTD/sodipodi-0.dtd"
   xmlns:inkscape="http://www.inkscape.org/namespaces/inkscape"
   xml:space="preserve"
   width="64px"
   height="64px"
   style="shape-rendering:geometricPrecision; text-rendering:geometricPrecision; image-rendering:optimizeQuality; fill-rule:evenodd; clip-rule:evenodd"
   viewBox="0 0 64 64"
   id="svg5762"
   version="1.1"
   inkscape:version="0.48.1 r9760"
   sodipodi:docname="draklive-instal.svg"><metadata
   id="metadata6045"><rdf:RDF><cc:Work
       rdf:about=""><dc:format>image/svg+xml</dc:format><dc:type
         rdf:resource="http://purl.org/dc/dcmitype/StillImage" /><dc:title></dc:title></cc:Work></rdf:RDF></metadata><sodipodi:namedview
   pagecolor="#ffffff"
   bordercolor="#666666"
   borderopacity="1"
   objecttolerance="10"
   gridtolerance="10"
   guidetolerance="10"
   inkscape:pageopacity="0"
   inkscape:pageshadow="2"
   inkscape:window-width="646"
   inkscape:window-height="480"
   id="namedview6043"
   showgrid="false"
   inkscape:zoom="4.15625"
   inkscape:cx="32"
   inkscape:cy="32"
   inkscape:window-x="0"
   inkscape:window-y="24"
   inkscape:window-maximized="0"
   inkscape:current-layer="svg5762" />
 <defs
   id="defs5764">
  <style
   type="text/css"
   id="style5766">
   
    .fil72 {fill:none}
    .fil101 {fill:#8BC5F5}
    .fil70 {fill:#ACD157}
    .fil73 {fill:#B3D761}
    .fil71 {fill:#E3FF9C}
    .fil24 {fill:#E5E5E5}
    .fil56 {fill:#ADADAD;fill-rule:nonzero}
    .fil0 {fill:black;fill-opacity:0.000000}
    .fil89 {fill:#B3D761;fill-opacity:0.000000}
    .fil33 {fill:white;fill-opacity:0.000000}
    .fil40 {fill:#FFFFFA;fill-opacity:0.000000}
    .fil1 {fill:black;fill-opacity:0.003922}
    .fil2 {fill:black;fill-opacity:0.007843}
    .fil14 {fill:#333333;fill-opacity:0.011765}
    .fil3 {fill:black;fill-opacity:0.015686}
    .fil4 {fill:black;fill-opacity:0.019608}
    .fil5 {fill:black;fill-opacity:0.023529}
    .fil62 {fill:#E3FF9C;fill-opacity:0.023529}
    .fil90 {fill:#E6FFA8;fill-opacity:0.023529}
    .fil41 {fill:#FFFFFB;fill-opacity:0.023529}
    .fil15 {fill:#333333;fill-opacity:0.023529}
    .fil6 {fill:black;fill-opacity:0.027451}
    .fil7 {fill:black;fill-opacity:0.031373}
    .fil34 {fill:white;fill-opacity:0.035294}
    .fil8 {fill:black;fill-opacity:0.035294}
    .fil16 {fill:#333333;fill-opacity:0.035294}
    .fil9 {fill:black;fill-opacity:0.043137}
    .fil10 {fill:black;fill-opacity:0.047059}
    .fil17 {fill:#333333;fill-opacity:0.047059}
    .fil63 {fill:#E3FF9C;fill-opacity:0.047059}
    .fil91 {fill:#E6FFA8;fill-opacity:0.047059}
    .fil42 {fill:#FFFFFC;fill-opacity:0.047059}
    .fil11 {fill:black;fill-opacity:0.050980}
    .fil12 {fill:black;fill-opacity:0.054902}
    .fil25 {fill:white;fill-opacity:0.058824}
    .fil13 {fill:black;fill-opacity:0.058824}
    .fil18 {fill:#333333;fill-opacity:0.058824}
    .fil88 {fill:#B3D761;fill-opacity:0.062745}
    .fil19 {fill:#333333;fill-opacity:0.074510}
    .fil64 {fill:#E3FF9C;fill-opacity:0.074510}
    .fil92 {fill:#E6FFA8;fill-opacity:0.074510}
    .fil43 {fill:#FFFFFC;fill-opacity:0.074510}
    .fil35 {fill:white;fill-opacity:0.074510}
    .fil20 {fill:#333333;fill-opacity:0.086275}
    .fil21 {fill:#333333;fill-opacity:0.098039}
    .fil65 {fill:#E3FF9C;fill-opacity:0.098039}
    .fil93 {fill:#E6FFA8;fill-opacity:0.098039}
    .fil44 {fill:#FFFFFD;fill-opacity:0.098039}
    .fil22 {fill:#333333;fill-opacity:0.109804}
    .fil36 {fill:white;fill-opacity:0.109804}
    .fil26 {fill:white;fill-opacity:0.113725}
    .fil23 {fill:#333333;fill-opacity:0.121569}
    .fil66 {fill:#E3FF9C;fill-opacity:0.121569}
    .fil94 {fill:#E6FFA8;fill-opacity:0.121569}
    .fil45 {fill:#FFFFFD;fill-opacity:0.121569}
    .fil87 {fill:#B3D761;fill-opacity:0.125490}
    .fil67 {fill:#E3FF9C;fill-opacity:0.145098}
    .fil95 {fill:#E6FFA8;fill-opacity:0.145098}
    .fil46 {fill:#FFFFFE;fill-opacity:0.145098}
    .fil37 {fill:white;fill-opacity:0.145098}
    .fil68 {fill:#E3FF9C;fill-opacity:0.172549}
    .fil96 {fill:#E6FFA8;fill-opacity:0.172549}
    .fil47 {fill:#FFFFFE;fill-opacity:0.172549}
    .fil27 {fill:white;fill-opacity:0.172549}
    .fil38 {fill:white;fill-opacity:0.184314}
    .fil86 {fill:#B3D761;fill-opacity:0.188235}
    .fil69 {fill:#E3FF9C;fill-opacity:0.196078}
    .fil97 {fill:#E6FFA8;fill-opacity:0.196078}
    .fil48 {fill:white;fill-opacity:0.196078}
    .fil99 {fill:black;fill-opacity:0.219608}
    .fil49 {fill:#A6A8A4;fill-opacity:0.219608}
    .fil60 {fill:#E3FF9C;fill-opacity:0.219608}
    .fil39 {fill:white;fill-opacity:0.219608}
    .fil28 {fill:white;fill-opacity:0.231373}
    .fil85 {fill:#B3D761;fill-opacity:0.250980}
    .fil29 {fill:white;fill-opacity:0.290196}
    .fil84 {fill:#B3D761;fill-opacity:0.313725}
    .fil30 {fill:white;fill-opacity:0.345098}
    .fil83 {fill:#B3D761;fill-opacity:0.376471}
    .fil31 {fill:white;fill-opacity:0.403922}
    .fil82 {fill:#B3D761;fill-opacity:0.439216}
    .fil108 {fill:#B3B3B3;fill-rule:nonzero;fill-opacity:0.439216}
    .fil105 {fill:#CCEDFF;fill-rule:nonzero;fill-opacity:0.439216}
    .fil32 {fill:white;fill-opacity:0.462745}
    .fil59 {fill:#91B341;fill-opacity:0.501961}
    .fil81 {fill:#B3D761;fill-opacity:0.501961}
    .fil53 {fill:white;fill-rule:nonzero;fill-opacity:0.501961}
    .fil80 {fill:#B3D761;fill-opacity:0.560784}
    .fil54 {fill:white;fill-opacity:0.580392}
    .fil79 {fill:#B3D761;fill-opacity:0.623529}
    .fil78 {fill:#B3D761;fill-opacity:0.686275}
    .fil77 {fill:#B3D761;fill-opacity:0.749020}
    .fil52 {fill:white;fill-opacity:0.780392}
    .fil76 {fill:#B3D761;fill-opacity:0.811765}
    .fil75 {fill:#B3D761;fill-opacity:0.874510}
    .fil74 {fill:#B3D761;fill-opacity:0.937255}
    .fil100 {fill:url(#id0)}
    .fil58 {fill:url(#id1)}
    .fil61 {fill:url(#id2)}
    .fil102 {fill:url(#id3)}
    .fil51 {fill:url(#id4);fill-rule:nonzero}
    .fil107 {fill:url(#id5);fill-rule:nonzero}
    .fil103 {fill:url(#id6);fill-rule:nonzero}
    .fil55 {fill:url(#id7);fill-rule:nonzero}
    .fil98 {fill:url(#id8);fill-rule:nonzero}
    .fil104 {fill:url(#id9);fill-rule:nonzero;fill-opacity:0.321569}
    .fil57 {fill:url(#id10);fill-opacity:0.380392}
    .fil106 {fill:url(#id11);fill-rule:nonzero;fill-opacity:0.780392}
    .fil50 {fill:url(#id12);fill-opacity:0.921569}
   
  </style>
  <linearGradient
   id="id0"
   gradientUnits="userSpaceOnUse"
   x1="50.2093"
   y1="61.0862"
   x2="49.8053"
   y2="36.956">
   <stop
   offset="0"
   style="stop-color:#5E9DD5"
   id="stop5769" />
   <stop
   offset="0.568627"
   style="stop-color:#7EBBEE"
   id="stop5771" />
   <stop
   offset="1"
   style="stop-color:#8FCDFF"
   id="stop5773" />
  </linearGradient>
  <linearGradient
   id="id1"
   gradientUnits="userSpaceOnUse"
   x1="26.5125"
   y1="24.6877"
   x2="27.0015"
   y2="44.7277">
   <stop
   offset="0"
   style="stop-color:#A2C849"
   id="stop5776" />
   <stop
   offset="1"
   style="stop-color:#A8CE52"
   id="stop5778" />
  </linearGradient>
  <linearGradient
   id="id2"
   gradientUnits="userSpaceOnUse"
   x1="26.8373"
   y1="45.7671"
   x2="26.9873"
   y2="29.0732">
   <stop
   offset="0"
   style="stop-color:#EAFFB5"
   id="stop5781" />
   <stop
   offset="0.368627"
   style="stop-color:#E3FF9C"
   id="stop5783" />
   <stop
   offset="1"
   style="stop-color:#A8CE52"
   id="stop5785" />
  </linearGradient>
  <linearGradient
   id="id3"
   gradientUnits="userSpaceOnUse"
   x1="49.9884"
   y1="38.1253"
   x2="50.09"
   y2="39.8899">
   <stop
   offset="0"
   style="stop-color:#E5F6FF"
   id="stop5788" />
   <stop
   offset="1"
   style="stop-color:#C4E8FF"
   id="stop5790" />
  </linearGradient>
  <linearGradient
   id="id4"
   gradientUnits="userSpaceOnUse"
   x1="31.9598"
   y1="35.2493"
   x2="31.9598"
   y2="26.9602">
   <stop
   offset="0"
   style="stop-color:#7F7F7F"
   id="stop5793" />
   <stop
   offset="1"
   style="stop-color:#999999"
   id="stop5795" />
  </linearGradient>
  <linearGradient
   id="id5"
   gradientUnits="userSpaceOnUse"
   x1="50.0864"
   y1="55.7723"
   x2="49.5845"
   y2="43.4722">
   <stop
   offset="0"
   style="stop-color:#E5E5E5"
   id="stop5798" />
   <stop
   offset="1"
   style="stop-color:white"
   id="stop5800" />
  </linearGradient>
  <linearGradient
   id="id6"
   gradientUnits="userSpaceOnUse"
   x1="49.5927"
   y1="35.7619"
   x2="50.4242"
   y2="62.2803">
   <stop
   offset="0"
   style="stop-color:#5E9DD5"
   id="stop5803" />
   <stop
   offset="1"
   style="stop-color:#528EBD"
   id="stop5805" />
  </linearGradient>
  <linearGradient
   id="id7"
   gradientUnits="userSpaceOnUse"
   x1="31.0657"
   y1="54.8452"
   x2="32.8539"
   y2="7.36426">
   <stop
   offset="0"
   style="stop-color:#7F7F7F"
   id="stop5808" />
   <stop
   offset="1"
   style="stop-color:#ABABAB"
   id="stop5810" />
  </linearGradient>
  <linearGradient
   id="id8"
   gradientUnits="userSpaceOnUse"
   x1="22.3314"
   y1="57.7885"
   x2="30.7409"
   y2="14.9045">
   <stop
   offset="0"
   style="stop-color:#7C9E2E"
   id="stop5813" />
   <stop
   offset="1"
   style="stop-color:#BBDD6A"
   id="stop5815" />
  </linearGradient>
  <linearGradient
   id="id9"
   gradientUnits="userSpaceOnUse"
   x1="53.3877"
   y1="43.0021"
   x2="54.0302"
   y2="57.8676">
   <stop
   offset="0"
   style="stop-color:#5A93C4"
   id="stop5818" />
   <stop
   offset="1"
   style="stop-color:#4A7FA8"
   id="stop5820" />
  </linearGradient>
  <linearGradient
   id="id10"
   gradientUnits="userSpaceOnUse"
   x1="27.3653"
   y1="27.2236"
   x2="34.6693"
   y2="61.62">
   <stop
   offset="0"
   style="stop-color:#191919"
   id="stop5823" />
   <stop
   offset="1"
   style="stop-color:#999999"
   id="stop5825" />
  </linearGradient>
  <linearGradient
   id="id11"
   gradientUnits="userSpaceOnUse"
   x1="53.4668"
   y1="42.6123"
   x2="52.8904"
   y2="56.0464">
   <stop
   offset="0"
   style="stop-color:#5E9DD5"
   id="stop5828" />
   <stop
   offset="1"
   style="stop-color:#4E87B4"
   id="stop5830" />
  </linearGradient>
  <linearGradient
   id="id12"
   gradientUnits="userSpaceOnUse"
   x1="32.5256"
   y1="33.3099"
   x2="32.287"
   y2="21.9759">
   <stop
   offset="0"
   style="stop-color:#E4E4E4"
   id="stop5833" />
   <stop
   offset="1"
   style="stop-color:white"
   id="stop5835" />
  </linearGradient>
 </defs>
 <g
   id="Слой_x0020_1">
  <metadata
   id="CorelCorpID_0Corel-Layer" />
  <g
   id="_246077688">
   <path
   id="_249337552"
   class="fil0"
   d="M48.9289 59.2767c14.1521,-0.598826 16.062,1.71144 16.1234,3.58705 0.0625992,1.87561 -7.343,0.809065 -15.5931,1.13269 -8.25246,0.323626 -15.2104,0.596464 -15.2104,-0.793711 0,-1.39017 0.526778,-3.32721 14.6801,-3.92603z" />
   <g
   id="g5841">
    <path
   id="_156718960"
   class="fil1"
   d="M48.962 59.507c13.5521,-0.551582 15.8943,1.63467 15.9522,3.39925 0.0566936,1.73624 -7.30166,0.753553 -15.4419,1.05356 -8.14144,0.297641 -15.0888,0.548038 -15.0888,-0.74056 0,-1.31695 1.02639,-3.15831 14.5785,-3.71225z" />
    <path
   id="_156718696"
   class="fil2"
   d="M48.9939 59.7385c12.9521,-0.50788 15.7301,1.55553 15.7821,3.20909 0.050788,1.59805 -7.26151,0.700402 -15.2919,0.974421 -8.02923,0.274019 -14.9659,0.499612 -14.9659,-0.68741 0,-1.24253 1.52246,-2.98941 14.4758,-3.49611z" />
    <path
   id="_156719464"
   class="fil3"
   d="M49.0246 59.9688c12.3533,-0.460636 15.5636,1.47876 15.6108,3.0213 0.0472447,1.45868 -7.21899,0.646071 -15.1384,0.895287 -7.91939,0.249216 -14.8431,0.451187 -14.8431,-0.63426 0,-1.16931 2.01853,-2.82169 14.3706,-3.28232z" />
    <path
   id="_246038632"
   class="fil4"
   d="M49.0577 60.1992c11.7521,-0.414572 15.397,1.4008 15.4396,2.83232 0.0425202,1.32049 -7.17883,0.592921 -14.9872,0.816152 -7.80836,0.224412 -14.7226,0.402761 -14.7226,-0.579928 0,-1.09608 2.51696,-2.65397 14.2703,-3.06854z" />
    <path
   id="_155633512"
   class="fil5"
   d="M49.0896 60.4295c11.1533,-0.367327 15.2305,1.32403 15.2683,2.6457 0.0377957,1.18112 -7.13867,0.537408 -14.8348,0.737017 -7.6997,0.198428 -14.5998,0.353154 -14.5998,-0.526778 0,-1.02285 3.01421,-2.48625 14.1663,-2.85594z" />
    <path
   id="_246056560"
   class="fil6"
   d="M49.1215 60.6622c10.5521,-0.322445 15.0651,1.2449 15.0982,2.45554 0.0318902,1.04175 -7.09733,0.483077 -14.686,0.657882 -7.58513,0.174805 -14.4769,0.305909 -14.4769,-0.473628 0,-0.949618 3.51146,-2.31735 14.0647,-2.6398z" />
    <path
   id="_155635936"
   class="fil7"
   d="M49.1534 60.8913c9.95209,-0.276381 14.8986,1.16694 14.9258,2.26774 0.0295279,0.903554 -7.05481,0.429927 -14.5325,0.578747 -7.47529,0.150002 -14.3553,0.256302 -14.3553,-0.419296 0,-0.87757 4.00989,-2.15081 13.962,-2.4272z" />
    <path
   id="_155639032"
   class="fil8"
   d="M49.1853 61.1228c9.3509,-0.230318 14.7321,1.08899 14.7557,2.07877 0.0236223,0.765364 -7.01702,0.375595 -14.3813,0.500794 -7.36426,0.124017 -14.2325,0.207877 -14.2325,-0.367327 0,-0.803159 4.50478,-1.98191 13.858,-2.21223z" />
    <path
   id="_155640160"
   class="fil9"
   d="M49.2183 61.3543c8.7509,-0.184254 14.5644,1.01104 14.5833,1.89097 0.0188979,0.624811 -6.9745,0.321264 -14.2277,0.420478 -7.25442,0.100395 -14.112,0.159451 -14.112,-0.314177 0,-0.72993 5.00321,-1.81301 13.7565,-1.99727z" />
    <path
   id="_155635288"
   class="fil10"
   d="M49.249 61.5846c8.15207,-0.138191 14.4002,0.933082 14.4144,1.70199 0.0129923,0.487801 -6.93434,0.266932 -14.0789,0.341343 -7.14339,0.0755915 -13.9903,0.111025 -13.9903,-0.259846 0,-0.656701 5.50282,-1.6453 13.6549,-1.78349z" />
    <path
   id="_155639824"
   class="fil11"
   d="M49.2809 61.8149c7.55206,-0.0921271 14.2336,0.85631 14.2431,1.51419 0.00826782,0.348429 -6.89418,0.212601 -13.9277,0.263389 -7.03237,0.0484258 -13.8651,0.0625992 -13.8651,-0.207877 0,-0.583472 5.99653,-1.47758 13.5498,-1.5697z" />
    <path
   id="_246046816"
   class="fil12"
   d="M49.314 62.0453c6.95087,-0.0460636 14.0659,0.778356 14.0706,1.32521 0.00472447,0.210239 -6.85284,0.159451 -13.7754,0.184254 -6.92135,0.0248035 -13.7435,0.0141734 -13.7435,-0.153545 0,-0.510242 6.49614,-1.30986 13.4482,-1.35592z" />
   </g>
   <path
   id="_156719800"
   class="fil13"
   d="M49.3447 62.2779c6.35087,0 13.9006,0.700402 13.9006,1.13623 0,0.141734 -27.246,0.13701 -27.246,0.00354335 0,-0.435832 6.99221,-1.13978 13.3454,-1.13978z" />
  </g>
  <g
   id="_246064528">
   <path
   id="_246045208"
   class="fil14"
   d="M30.7787 61.0708c16.0266,-0.331894 17.2821,2.04097 17.2821,2.48153 0,0.171262 -1.27679,0.377957 -3.4217,0.561031l-26.6968 0c-2.14491,-0.184254 -3.4217,-0.39095 -3.4217,-0.561031 0,-0.440557 0.23268,-2.14963 16.2581,-2.48153z" />
   <g
   id="g5858">
    <path
   id="_246061744"
   class="fil15"
   d="M30.8626 61.1311c14.4982,-0.295279 15.8518,1.8638 15.8518,2.28546 0,0.219688 -2.37995,0.500794 -6.04732,0.696859l-18.6947 0c-3.66855,-0.196065 -6.04732,-0.478352 -6.04732,-0.696859 0,-0.421659 0.438194,-1.99018 14.9376,-2.28546z" />
    <path
   id="_246055936"
   class="fil16"
   d="M30.9441 61.1937c12.9722,-0.258665 14.425,1.68663 14.425,2.0894 0,0.333075 -6.34968,0.823238 -14.021,0.823238 -7.66899,0 -14.0199,-0.491345 -14.0199,-0.823238 0,-0.402761 0.643709,-1.83191 13.6159,-2.0894z" />
    <path
   id="_246067696"
   class="fil17"
   d="M31.0268 61.2551c11.445,-0.220869 12.9958,1.51065 12.9958,1.89451 0,0.291736 -5.75676,0.715757 -12.645,0.714576 -6.88945,0 -12.6474,-0.424021 -12.6474,-0.714576 0,-0.383863 0.851585,-1.67246 12.2966,-1.89451z" />
    <path
   id="_246062680"
   class="fil18"
   d="M31.1094 61.3177c9.91902,-0.184254 11.569,1.33348 11.569,1.69845 0,0.250397 -5.16502,0.607094 -11.2714,0.605913 -6.10756,0 -11.2726,-0.356697 -11.2726,-0.605913 0,-0.364965 1.0571,-1.51419 10.9749,-1.69845z" />
    <path
   id="_246061000"
   class="fil19"
   d="M31.1898 61.3803c8.39065,-0.14764 10.1399,1.15631 10.1399,1.50356 0,0.209058 -4.57092,0.49725 -9.89658,0.49725 -5.32566,0 -9.89776,-0.291736 -9.89776,-0.49725 0,-0.347248 1.26261,-1.35592 9.65445,-1.50356z" />
    <path
   id="_246054760"
   class="fil20"
   d="M31.2724 61.4441c6.86465,-0.111025 8.7131,0.979146 8.7131,1.3075 0,0.167719 -3.97918,0.388587 -8.52294,0.388587 -4.54376,0 -8.52294,-0.224412 -8.52294,-0.388587 0,-0.32835 1.46813,-1.19765 8.33278,-1.3075z" />
    <path
   id="_246046024"
   class="fil21"
   d="M31.3551 61.5055c5.33747,-0.0732292 7.28395,0.803159 7.28395,1.11261 0,0.12638 -3.38626,0.281106 -7.14694,0.279925 -3.76422,0 -7.15048,-0.157089 -7.15048,-0.279925 0,-0.309453 1.676,-1.0382 7.01347,-1.11261z" />
    <path
   id="_246049840"
   class="fil22"
   d="M31.4366 61.5681c3.81146,-0.0366146 5.85716,0.625992 5.85716,0.916547 0,0.0850404 -2.79334,0.172443 -5.7733,0.171262 -2.98232,0 -5.77566,-0.0897649 -5.77566,-0.171262 0,-0.290555 1.88152,-0.879932 5.6918,-0.916547z" />
   </g>
   <path
   id="_246057736"
   class="fil23"
   d="M31.5181 61.6319c2.28546,0 4.42919,0.448824 4.42919,0.720481 0,0.0885838 -8.8005,0.0814971 -8.8005,0 0,-0.271657 2.08703,-0.720481 4.37131,-0.720481z" />
  </g>
  <path
   class="fil24"
   d="M31.9598 0.648433c16.8628,0 30.5378,13.6384 30.5378,30.4563 0,16.8179 -13.675,30.4563 -30.5378,30.4563 -16.864,0 -30.539,-13.6384 -30.539,-30.4563 0,-16.8179 13.675,-30.4563 30.539,-30.4563zm0 20.2621c5.64456,0 10.2226,4.56502 10.2226,10.1942 0,5.63038 -4.57801,10.1954 -10.2226,10.1954 -5.64574,0 -10.2237,-4.56502 -10.2237,-10.1954 0,-5.6292 4.57801,-10.1942 10.2237,-10.1942z"
   id="path5869" />
  <g
   id="_246046096">
   <path
   id="_246067864"
   class="fil25"
   d="M37.1178 22.3018l5.21699 -19.8487c11.7568,4.23785 20.1628,15.4679 20.1628,28.6515 0,1.66183 -0.134647,3.29059 -0.39095,4.88038l-19.9373 -5.37172c-0.1689,-3.54689 -2.15554,-6.62016 -5.05164,-8.31152z" />
   <path
   id="_246061768"
   class="fil26"
   d="M37.4402 22.4991l6.28709 -19.505c11.0222,4.59573 18.7703,15.4537 18.7703,28.1106 0,0.870483 -0.0389769,1.73152 -0.109844,2.58428l-20.2621 -3.65556c-0.331894,-3.16894 -2.1201,-5.90558 -4.68549,-7.53434z" />
   <path
   id="_246058936"
   class="fil27"
   d="M37.765 22.7141l7.40797 -19.0727c10.2486,4.91463 17.3246,15.3663 17.3246,27.4633l-0.00118112 0.0862215 -20.4569 -1.78467c-0.46536,-2.76736 -2.05042,-5.15912 -4.27446,-6.69221z" />
   <path
   id="_246060952"
   class="fil28"
   d="M38.0898 22.9467l8.569 -18.5412c8.72845,4.79061 14.8537,13.7128 15.7289,24.1231l-20.4829 0.213782c-0.559849,-2.35278 -1.93585,-4.39021 -3.81501,-5.79574z" />
   <path
   id="_246044512"
   class="fil29"
   d="M38.4111 23.1983l9.75957 -17.9057c7.16111,4.4847 12.3273,11.8501 13.858,20.4664l-20.314 2.29137c-0.605913,-1.9264 -1.77049,-3.60595 -3.30358,-4.85203z" />
   <path
   id="_246044344"
   class="fil30"
   d="M38.7265 23.4652l10.9631 -17.1581c5.61385,4.00044 9.81154,9.84933 11.7013,16.6537l-19.9243 4.39139c-0.597645,-1.50356 -1.54372,-2.83232 -2.74019,-3.88706z" />
   <path
   id="_246057280"
   class="fil31"
   d="M39.0336 23.7475l12.1584 -16.2971c4.12564,3.34138 7.35954,7.73395 9.29421,12.7691l-19.3243 6.44417c-0.532684,-1.09726 -1.25671,-2.08231 -2.12837,-2.91618z" />
   <path
   id="_246061264"
   class="fil32"
   d="M39.33 24.0416l13.3254 -15.3274c2.74019,2.51932 5.01502,5.53353 6.68512,8.89735l-18.5317 8.38593c-0.413391,-0.709851 -0.911822,-1.36773 -1.47876,-1.95593z" />
  </g>
  <g
   id="_246041272">
   <path
   id="_246039496"
   class="fil25"
   d="M28.7271 40.8891l-1.96774 20.4251c-12.2848,-2.3079 -22.3833,-12.0533 -24.4975,-25.068 -0.266932,-1.63939 -0.394493,-3.26933 -0.395674,-4.87919l20.5408 2.12365c0.735836,3.47366 3.1902,6.19023 6.32016,7.39852z" />
   <path
   id="_246063832"
   class="fil26"
   d="M28.3763 40.7462l-3.07799 20.2562c-11.6175,-2.77917 -21.0073,-12.2612 -23.0365,-24.7562 -0.139372,-0.858672 -0.239767,-1.71498 -0.304728,-2.56775l20.5869 0.376776c0.836231,3.07563 3.03901,5.49219 5.83236,6.69103z" />
   <path
   id="_246050704"
   class="fil27"
   d="M28.022 40.5855l-4.25556 20.0081c-10.9041,-3.21618 -19.5652,-12.4065 -21.5046,-24.3475l-0.0129923 -0.0838593 20.4806 -1.50238c0.903554,2.65869 2.85122,4.76581 5.29258,5.92566z" />
   <path
   id="_246048808"
   class="fil28"
   d="M27.6641 40.4072l-5.48629 19.6691c-9.38397,-3.33666 -16.8616,-11.1675 -19.3939,-21.3038l20.1853 -3.47721c0.929539,2.23231 2.61499,4.02407 4.69494,5.11187z" />
   <path
   id="_246039064"
   class="fil29"
   d="M27.3062 40.2099l-6.76308 19.2321c-7.78828,-3.28469 -14.0683,-9.7324 -16.9608,-17.9931l19.6845 -5.50164c0.907098,1.80475 2.3268,3.2776 4.03942,4.26265z" />
   <path
   id="_246040000"
   class="fil30"
   d="M26.9519 39.9962l-8.07057 18.6865c-6.18315,-3.05319 -11.2655,-8.15797 -14.2218,-14.5738l18.964 -7.5119c0.831506,1.38899 1.97955,2.55003 3.32839,3.39925z" />
   <path
   id="_246055144"
   class="fil31"
   d="M26.6035 39.7682l-9.3887 18.025c-4.60872,-2.6398 -8.50522,-6.46071 -11.2218,-11.1226l18.0416 -9.44185c0.702765,0.996863 1.57443,1.85435 2.56893,2.5394z" />
   <path
   id="_246047896"
   class="fil32"
   d="M26.2645 39.5249l-10.6974 17.2549c-3.1087,-2.05042 -5.83708,-4.66305 -8.02569,-7.71742l16.949 -11.2336c0.522054,0.635441 1.1197,1.20474 1.77404,1.69608z" />
  </g>
  <g
   id="_246059464">
   <path
   id="_246060472"
   class="fil33"
   d="M37.7485 22.7022l11.3328 -16.8179c3.95084,2.67405 7.23907,6.24811 9.57295,10.4245l-16.5805 13.3124c-0.420478,-2.86657 -2.03506,-5.34692 -4.32525,-6.91898z" />
   <g
   id="g5891">
    <path
   id="_246044056"
   class="fil34"
   d="M38.0887 22.9456l11.712 -16.5569c3.38154,2.43192 6.24338,5.53826 8.39065,9.1194l-16.2782 13.2663c-0.555125,-2.36578 -1.93703,-4.4162 -3.82446,-5.82881z" />
    <path
   id="_246061696"
   class="fil35"
   d="M38.4135 23.1995l12.0946 -16.2864c2.82759,2.16026 5.26778,4.80124 7.19418,7.80246l-16.0148 13.2521c-0.613,-1.88979 -1.76459,-3.53981 -3.27406,-4.76817z" />
    <path
   id="_246053608"
   class="fil36"
   d="M38.7265 23.4652l12.4785 -16.003c2.29255,1.8579 4.30871,4.0406 5.98118,6.47843l-15.7809 13.2639c-0.600007,-1.44332 -1.52246,-2.72011 -2.67877,-3.73942z" />
    <path
   id="_246045064"
   class="fil37"
   d="M39.0253 23.7381l12.8624 -15.7077c1.77522,1.52718 3.37327,3.25516 4.75754,5.14731l-15.5766 13.2994c-0.524416,-1.02521 -1.21773,-1.95002 -2.04333,-2.73901z" />
    <path
   id="_246051424"
   class="fil38"
   d="M39.3076 24.0204l13.2486 -15.3982c1.27915,1.16576 2.45909,2.44019 3.52327,3.80674l-15.397 13.3584c-0.393312,-0.638984 -0.855129,-1.2319 -1.37482,-1.76695z" />
   </g>
   <path
   id="_246049240"
   class="fil39"
   d="M39.5757 24.3062l13.6289 -15.0746c0.805522,0.778356 1.56852,1.59923 2.28428,2.46145l-15.2447 13.4411c-0.207877,-0.287011 -0.432289,-0.564574 -0.668512,-0.827963z" />
  </g>
  <g
   id="_246059728">
   <path
   id="_246043792"
   class="fil40"
   d="M22.4459 27.3688l-16.1967 -12.7029c3.88706,-6.03433 9.85406,-10.61 16.8888,-12.7242l7.08552 19.1152c-3.55752,0.608275 -6.48788,3.04846 -7.77765,6.31189z" />
   <g
   id="g5901">
    <path
   id="_246041128"
   class="fil41"
   d="M22.5877 27.0287l-15.9356 -12.9722c3.8032,-5.60322 9.42768,-9.8765 16.0254,-11.973l7.21426 19.0349c-3.28232,0.673237 -5.99181,2.91854 -7.30403,5.91031z" />
    <path
   id="_246046840"
   class="fil42"
   d="M22.7412 26.6944l-15.6687 -13.2415c3.69926,-5.17802 8.98358,-9.15247 15.1443,-11.2206l7.34655 18.9605c-3.01303,0.721662 -5.50755,2.77562 -6.82213,5.50164z" />
    <path
   id="_246040480"
   class="fil43"
   d="M22.9078 26.3649l-15.3982 -13.5073c3.5776,-4.76108 8.52176,-8.44026 14.2502,-10.4659l7.47765 18.8849c-2.7461,0.754734 -5.0292,2.62326 -6.32961,5.08825z" />
    <path
   id="_246064648"
   class="fil44"
   d="M23.0861 26.0424l-15.1242 -13.7718c3.43941,-4.35242 8.04341,-7.74458 13.3419,-9.71351l7.60876 18.814c-2.48153,0.771269 -4.55675,2.46263 -5.82645,4.67132z" />
    <path
   id="_246065896"
   class="fil45"
   d="M23.2763 25.7247l-14.8443 -14.034c3.28232,-3.95084 7.54497,-7.0619 12.4171,-8.96232l7.74222 18.749c-2.21932,0.77245 -4.09139,2.28782 -5.31503,4.2473z" />
    <path
   id="_246044248"
   class="fil46"
   d="M23.4759 25.4153l-14.5608 -14.2927c3.1087,-3.56107 7.03237,-6.39457 11.4816,-8.21112l7.87569 18.6829c-1.9642,0.758277 -3.63548,2.10475 -4.79652,3.82091z" />
    <path
   id="_246063280"
   class="fil47"
   d="M23.6885 25.1141l-14.2738 -14.549c2.91618,-3.18193 6.50087,-5.74377 10.532,-7.46702l8.01033 18.6239c-1.71262,0.728749 -3.18665,1.90987 -4.26856,3.39217z" />
    <path
   id="_246057520"
   class="fil48"
   d="M23.9093 24.8212l-13.9821 -14.8029c2.7083,-2.81342 5.95401,-5.10951 9.57177,-6.72528l8.14616 18.5683c-1.46813,0.682686 -2.74728,1.70199 -3.73587,2.95988z" />
   </g>
   <path
   id="_246049192"
   class="fil39"
   d="M24.142 24.5377l-13.688 -15.0533c2.48507,-2.4579 5.3918,-4.49179 8.60089,-5.98708l8.28081 18.514c-1.22836,0.622449 -2.31381,1.48466 -3.19374,2.52641z" />
  </g>
  <g
   id="_246058384">
   <path
   id="_246039112"
   class="fil33"
   d="M28.7248 40.7792l-13.2899 15.9404c-4.11265,-2.64452 -7.54734,-6.24693 -9.98752,-10.4907l17.1238 -11.0871c1.14568,2.64925 3.38626,4.71738 6.15362,5.63747z" />
   <g
   id="g5914">
    <path
   id="_246042976"
   class="fil34"
   d="M28.3043 40.6281l-13.6136 15.5966c-3.528,-2.41657 -6.51977,-5.55361 -8.76625,-9.19736l16.9868 -11.1757c1.15041,2.1768 3.06736,3.88824 5.39298,4.77644z" />
    <path
   id="_246046432"
   class="fil35"
   d="M27.8944 40.4615l-13.9384 15.2423c-2.95634,-2.15554 -5.50991,-4.82959 -7.52726,-7.8875l16.8758 -11.2856c1.09253,1.72916 2.69177,3.1087 4.58982,3.93076z" />
    <path
   id="_246038872"
   class="fil36"
   d="M27.494 40.2784l-14.2643 14.8797c-2.40239,-1.86262 -4.51895,-4.07722 -6.27173,-6.56465l16.7908 -11.4155c0.975603,1.31104 2.25948,2.37877 3.74532,3.10043z" />
    <path
   id="_246063352"
   class="fil37"
   d="M27.1066 40.08l-14.5892 14.5112c-1.86735,-1.54018 -3.54926,-3.29768 -5.00439,-5.23353l16.7305 -11.5643c0.805522,0.922452 1.77522,1.69963 2.86303,2.28664z" />
    <path
   id="_246050656"
   class="fil38"
   d="M26.7322 39.8674l-14.9128 14.1285c-1.3512,-1.18466 -2.59728,-2.48507 -3.7217,-3.88706l16.6939 -11.7368c0.583472,0.572842 1.23427,1.07482 1.94058,1.49529z" />
   </g>
   <path
   id="_246058504"
   class="fil39"
   d="M26.3732 39.643l-15.2352 13.7376c-0.857491,-0.798435 -1.66892,-1.64411 -2.42956,-2.53468l16.6821 -11.9305c0.311815,0.261027 0.641346,0.504337 0.982689,0.727568z" />
  </g>
  <path
   class="fil49"
   d="M32.1252 15.2777c8.68711,0 15.7325,7.02646 15.7325,15.69 0,8.66349 -7.04536,15.69 -15.7325,15.69 -8.68593,0 -15.7313,-7.02646 -15.7313,-15.69 0,-8.66349 7.04536,-15.69 15.7313,-15.69zm-0.165356 6.00952c5.4355,0 9.84461,4.39612 9.84461,9.81744 0,5.42251 -4.40911,9.81862 -9.84461,9.81862 -5.43668,0 -9.84579,-4.39612 -9.84579,-9.81862 0,-5.42133 4.40911,-9.81744 9.84579,-9.81744z"
   id="path5922" />
  <path
   class="fil50"
   d="M31.9598 21.2861c5.4355,0 9.84461,4.3973 9.84461,9.81862 0,5.42251 -4.40911,9.81862 -9.84461,9.81862 -5.43668,0 -9.84579,-4.39612 -9.84579,-9.81862 0,-5.42133 4.40911,-9.81862 9.84579,-9.81862zm0 6.09102c2.06341,0 3.73823,1.6701 3.73823,3.7276 0,2.05869 -1.67482,3.72879 -3.73823,3.72879 -2.06459,0 -3.73942,-1.6701 -3.73942,-3.72879 0,-2.05751 1.67482,-3.7276 3.73942,-3.7276z"
   id="path5924" />
  <path
   class="fil51"
   d="M31.9598 26.8763c1.16694,0 2.22877,0.474809 2.99531,1.24017 0.766545,0.765364 1.24372,1.82364 1.24372,2.98823 0,1.16458 -0.47599,2.22404 -1.24372,2.98941 -0.767726,0.764183 -1.82719,1.24017 -2.99531,1.24017 -1.16812,0 -2.22877,-0.474809 -2.99531,-1.24017 -0.767726,-0.764183 -1.2449,-1.82364 -1.2449,-2.98941 0,-1.16458 0.477171,-2.22404 1.2449,-2.98823 0.766545,-0.765364 1.82719,-1.24017 2.99531,-1.24017zm2.29137 1.94648c-0.584653,-0.583472 -1.39726,-0.944894 -2.29137,-0.944894 -0.895287,0 -1.70671,0.361422 -2.29137,0.944894 -0.584653,0.582291 -0.947256,1.39136 -0.947256,2.28192 0,0.891743 0.362603,1.70081 0.947256,2.2831 0.584653,0.583472 1.39608,0.944894 2.29137,0.944894 0.896468,0 1.70671,-0.362603 2.29137,-0.944894 0.584653,-0.582291 0.946075,-1.39136 0.946075,-2.2831 0,-0.891743 -0.363784,-1.69963 -0.946075,-2.28192z"
   id="path5926" />
  <path
   class="fil52"
   d="M31.9598 22.3952c5.4355,0 9.84461,4.39612 9.84461,9.81744 0,0.144096 -0.00472447,0.28583 -0.0106301,0.427564 -0.224412,-5.2229 -4.54139,-9.39224 -9.83398,-9.39224 -5.29377,0 -9.61075,4.16934 -9.83516,9.39224 -0.00590558,-0.141734 -0.0106301,-0.283468 -0.0106301,-0.427564 0,-5.42133 4.40911,-9.81744 9.84579,-9.81744zm3.71343 10.2438c-0.212601,1.8579 -1.79412,3.3024 -3.71343,3.3024 -1.9205,0 -3.50201,-1.44451 -3.71461,-3.3024 -0.0165356,0.140553 -0.0248035,0.283468 -0.0248035,0.427564 0,2.05869 1.67482,3.72879 3.73942,3.72879 2.06341,0 3.73823,-1.6701 3.73823,-3.72879 0,-0.144096 -0.00826782,-0.287011 -0.0248035,-0.427564z"
   id="path5928" />
  <path
   class="fil53"
   d="M31.9598 22.4318c2.40003,0 4.5721,0.972059 6.14889,2.54058 1.57325,1.57089 2.54885,3.7406 2.54885,6.13236 0,2.39412 -0.975603,4.56384 -2.54885,6.13236 -1.57679,1.56852 -3.74887,2.54176 -6.14889,2.54176 -2.40121,0 -4.57328,-0.97324 -6.15008,-2.54176 -1.57325,-1.56852 -2.54885,-3.73823 -2.54885,-6.13236 0,-2.39176 0.975603,-4.56147 2.54885,-6.13236 1.57679,-1.56852 3.74887,-2.54058 6.15008,-2.54058zm5.52172 3.16657c-1.4138,-1.40789 -3.365,-2.28192 -5.52172,-2.28192 -2.1579,0 -4.10911,0.874027 -5.5229,2.28192 -1.41143,1.40907 -2.28664,3.35673 -2.28664,5.50637 0,2.14963 0.875208,4.09966 2.28664,5.50755 1.4138,1.40671 3.365,2.28074 5.5229,2.28074 2.15672,0 4.10792,-0.874027 5.52172,-2.28074 1.41143,-1.40789 2.28664,-3.35792 2.28664,-5.50755 0,-2.14963 -0.875208,-4.09729 -2.28664,-5.50637z"
   id="path5930" />
  <path
   class="fil54"
   d="M1.89215 27.5684c1.95711,-16.5581 17.0104,-28.4035 33.6134,-26.4499 16.6018,1.95239 28.4779,16.9644 26.5208,33.5225 -1.95829,16.5593 -17.0104,28.4035 -33.6134,26.4511 -16.603,-1.95357 -28.4803,-16.9656 -26.5208,-33.5236zm3.39571 0.400399c1.73742,-14.6896 15.0888,-25.1956 29.8161,-23.4629 14.7273,1.73152 25.2629,15.0486 23.5255,29.7358 -1.73742,14.6884 -15.0888,25.1956 -29.8149,23.4629 -14.7285,-1.7327 -25.2641,-15.0486 -23.5267,-29.7358z"
   id="path5932" />
  <path
   class="fil54"
   d="M1.89215 27.5684c1.95711,-16.5593 17.0093,-28.4035 33.6134,-26.4499 16.6018,1.95239 28.4779,16.9644 26.5208,33.5225 -1.95829,16.5581 -17.0104,28.4035 -33.6134,26.4511 -16.603,-1.95357 -28.4803,-16.9656 -26.5208,-33.5236zm0.77245 0.090946c1.90632,-16.1329 16.5723,-27.6747 32.75,-25.7708 16.1742,1.9016 27.7468,16.5285 25.8393,32.6614 -1.9075,16.1329 -16.5734,27.6747 -32.75,25.772 -16.1766,-1.90278 -27.748,-16.5297 -25.8393,-32.6626z"
   id="path5934" />
  <path
   class="fil55"
   d="M31.9598 0.14764c8.56664,0 16.3266,3.46658 21.944,9.06862 5.61857,5.60322 9.0946,13.3454 9.0946,21.8885 0,8.54302 -3.47603,16.2852 -9.0946,21.8885 -5.61739,5.60204 -13.3773,9.06862 -21.944,9.06862 -8.56664,0 -16.3278,-3.46658 -21.9452,-9.06862 -5.61739,-5.60322 -9.0946,-13.3431 -9.0946,-21.8885 0,-8.54538 3.47721,-16.2852 9.0946,-21.8885 5.61739,-5.60204 13.3785,-9.06862 21.9452,-9.06862zm21.24 9.77492c-5.43432,-5.41896 -12.9439,-8.77334 -21.24,-8.77334 -8.29617,0 -15.8069,3.35437 -21.2412,8.77334 -5.43314,5.41896 -8.79696,12.9096 -8.79696,21.1822 0,8.27254 3.36382,15.7632 8.79696,21.1822 5.43432,5.41896 12.945,8.77334 21.2412,8.77334 8.29617,0 15.8057,-3.35437 21.24,-8.77334 5.43432,-5.42015 8.79696,-12.9108 8.79696,-21.1822 0,-8.27136 -3.36264,-15.762 -8.79696,-21.1822z"
   id="path5936" />
  <path
   class="fil56"
   d="M31.9598 20.4085c2.95752,0 5.63865,1.19883 7.57923,3.13468 1.94058,1.93585 3.14295,4.61108 3.14295,7.56151 0,2.95043 -1.20238,5.62684 -3.14295,7.56269 -1.94058,1.93585 -4.62171,3.13468 -7.57923,3.13468 -2.9587,0 -5.63983,-1.20001 -7.58041,-3.13468 -1.94058,-1.93585 -3.14295,-4.61226 -3.14295,-7.56269 0,-2.95043 1.20238,-5.62566 3.14295,-7.56151 1.94058,-1.93585 4.62289,-3.13468 7.58041,-3.13468zm6.87528 3.84099c-1.7575,-1.75278 -4.1906,-2.83941 -6.87528,-2.83941 -2.68468,0 -5.11778,1.08545 -6.87646,2.83941 -1.75632,1.7516 -2.84531,4.17761 -2.84531,6.8552 0,2.67759 1.08899,5.10479 2.84531,6.85638 1.7575,1.7516 4.18942,2.83941 6.87646,2.83941 2.68468,0 5.11778,-1.08663 6.87528,-2.83941 1.75632,-1.7516 2.84531,-4.17879 2.84531,-6.85638 0,-2.67759 -1.08899,-5.10361 -2.84531,-6.8552z"
   id="path5938" />
  <path
   class="fil57"
   d="M27.5838 59.6157l9.38397 -17.1664 -10.6631 0.466541c-1.00277,-2.89374 -2.04215,-7.65246 -2.17326,-8.05758 -1.35474,-4.15871 -1.31458,-8.25955 1.77758,-12.2482 1.44332,-1.86262 3.14413,-3.24453 4.97723,-4.20005 -5.08589,-1.05592 -10.0206,-1.80829 -10.571,-1.88979 -0.291736,0.259846 -0.578747,0.525597 -0.858672,0.804341 -5.64338,5.60676 -6.82567,11.9175 -5.97881,18.5801 0.161813,1.28624 0.571661,4.79888 0.992138,7.74222l-8.81231 1.83191 9.3072 8.51703c0.727568,0.162994 1.49648,0.347248 2.31735,0.559849 0,0 6.09929,3.18902 10.3017,5.0599z"
   id="path5940" />
  <path
   class="fil58"
   d="M15.5931 61.9035l7.83907 -10.8651 7.84025 -11.4746 -9.54106 0c-0.364965,-2.84059 -0.7193,-5.63865 -0.760639,-6.03433 -0.480715,-4.34887 -0.416934,-8.35286 3.4217,-11.6305 8.22057,-7.0182 19.59,-3.10279 24.1019,4.86502 1.06419,-0.520873 2.63153,-1.29805 3.97328,-1.74333 -4.59809,-11.7285 -21.1857,-17.5089 -33.3205,-9.6072 -6.66504,4.33942 -10.0159,10.1789 -10.5403,16.8734 -0.0980327,1.26025 -0.40158,4.42683 -0.589377,7.17529l-8.10364 0.101576 7.83907 11.4746 7.84025 10.8651zm35.7193 -21.1396c0.875208,-1.50356 1.53663,-3.20791 1.94766,-5.15203 0.15827,-0.75119 0.269295,-1.49057 0.338981,-2.21814 -0.614181,2.32326 -1.39136,4.8851 -2.28664,7.37017z"
   id="path5942" />
  <path
   class="fil59"
   d="M24.6995 49.7191l1.01694 -1.48703 -1.68782 -0.203152c-2.24648,3.28587 -6.12527,6.69811 -8.4568,9.93201 -2.33389,-3.2339 -6.31425,-6.44181 -8.56074,-9.72886l-1.5827 0 1.10671 1.62167 0.575204 0c2.24767,3.28705 6.22803,6.49496 8.56192,9.72886 2.33152,-3.2339 6.21031,-6.64614 8.4568,-9.93201l0.570479 0.0685048z"
   id="path5944" />
  <path
   class="fil60"
   d="M15.7537 61.6626l9.50209 -12.7939 -1.1256 0.360241c-2.24648,3.28587 -6.12527,6.69811 -8.4568,9.93319 -2.33389,-3.23508 -6.31307,-6.44181 -8.56074,-9.73004l-0.620086 -0.40158 9.26114 12.632z"
   id="path5946" />
  <path
   class="fil61"
   d="M14.7096 61.7429l0.0590558 -0.0826782 -0.0590558 0.0814971 0 0.00118112zm10.7139 -22.4991l-2.57838 0 0 0.00118112 2.57365 0 0.00472447 -0.00118112zm-3.50083 -5.46503l-0.0685048 -0.569298c-0.00472447,0.0933082 0.020079,0.288193 0.0685048,0.569298zm3.63784 -12.4383c1.90868,-1.55907 2.21105,-2.37995 4.32171,-2.8713l-0.0141734 -0.020079c-2.10829,0.493707 -2.40712,1.32285 -4.30753,2.89137zm0.385044 -1.93231c-3.15476,1.46577 -5.07408,3.58705 -6.1111,6.76544 -0.763002,2.33979 -0.884657,4.79415 -0.608275,7.31584l0 0.0413391 0.279925 2.2583 0.00944894 0.0106301 0.481896 3.77603 0.20079 1.55789 1.2012 -0.274019 0.857491 -0.290555 -0.724025 0 -0.14764 -1.15749 -0.0224412 -0.166537 -0.496069 -3.26933 -0.00472447 -0.00472447 -0.321264 -2.59964 0 -0.0153545c-0.259846,-2.34924 -0.148821,-4.62525 0.5504,-6.77134 0.709851,-2.1768 2.01617,-4.20005 4.13509,-6.00834 0.50788,-0.43347 0.207877,-0.823238 0.7193,-1.16812zm-18.8246 19.8936l-5.86306 0.101576 0.00472447 0.00118112 5.85834 -0.101576 0 -0.00118112zm-2.16853 1.32521l4.40084 0.426383 0.0472447 0 0.1689 -2.47444c0.112206,-1.65474 0.511424,-2.96815 0.651977,-4.57801l0 -0.0106301 0.140553 -1.64648 0 -0.0106301c0.236223,-3.01775 0.891743,-5.83708 2.21341,-8.34577 1.43269,-4.92998 9.23161,-10.7104 14.9648,-10.6041l-0.354335 -0.288193c-3.13941,0.566936 -6.02252,1.68309 -8.20286,3.26461 -3.12642,2.03743 -6.17134,4.34179 -7.57568,7.01111 -1.41498,2.68586 -2.11656,5.67763 -2.36578,8.85838l-0.115749 1.40907 0 0.00472447c-0.140553,1.70671 -0.354335,3.64847 -0.484258,5.74259l-0.0767726 1.24135 -1.24135 0 -0.0767726 0 -2.09412 0zm45.4765 -0.0236223c0.875208,-1.50356 1.53663,-3.20791 1.94766,-5.15203 0.0732292,-0.348429 0.135828,-0.694497 0.191341,-1.03702l-0.159451 -0.0448824c-0.558668,2.00554 -1.22836,4.1469 -1.97955,6.23393z"
   id="path5948" />
  <g
   id="_246080472">
   <path
   id="_246075528"
   class="fil62"
   d="M11.9068 23.2609l9.15602 0c-0.314177,0.535046 -0.579928,1.08072 -0.796073,1.63585 -0.839774,2.14609 -0.974421,4.4221 -0.661425,6.77134l0 0.0153545 0.385044 2.59964 0.00590558 0.00472447 0.596464 3.26933 0.0259846 0.166537 0.17953 1.15749 1.16931 0 0.129923 0.976784 8.53711 0 -6.80796 8.40247 -2.40003 2.76736 -11.4663 0 -2.39649 -2.76736 -6.80678 -8.40247 6.93198 0 0.0720481 -0.976784 1.40553 0 0.090946 -1.24017c0.157089,-2.09412 0.414572,-4.03706 0.583472,-5.74377l0 -0.00472447 0.139372 -1.40907c0.237404,-2.54885 0.829144,-4.97605 1.9264,-7.22253z" />
   <path
   id="_246087648"
   class="fil63"
   d="M11.4486 24.279l9.08043 0c-0.0933082,0.205514 -0.181892,0.409848 -0.262208,0.617724 -0.839774,2.14609 -0.974421,4.4221 -0.661425,6.77134l0 0.0153545 0.385044 2.59964 0.00590558 0.00472447 0.596464 3.26933 0.0259846 0.166537 0.17953 1.15749 1.16931 0 0.129923 0.976784 8.53711 0 -6.80796 8.40247 -0.65552 0.758277 -14.9518 0 -0.65552 -0.758277 -6.80678 -8.40247 6.93198 0 0.0720481 -0.976784 1.40553 0 0.090946 -1.24017c0.157089,-2.09412 0.414572,-4.03706 0.583472,-5.74377l0 -0.00472447 0.139372 -1.40907c0.203152,-2.16853 0.661425,-4.24848 1.46813,-6.20441z" />
   <path
   id="_246084984"
   class="fil64"
   d="M11.0659 25.2913l9.05562 0c-0.707489,2.03034 -0.809065,4.1717 -0.516148,6.37685l0 0.0153545 0.385044 2.59964 0.00590558 0.00472447 0.596464 3.26933 0.0259846 0.166537 0.17953 1.15749 1.16931 0 0.129923 0.976784 8.53711 0 -5.78865 7.14576 -18.3014 0 -5.78747 -7.14576 6.93198 0 0.0720481 -0.976784 1.40553 0 0.090946 -1.24017c0.157089,-2.09412 0.414572,-4.03706 0.583472,-5.74377l0 -0.00472447 0.139372 -1.40907c0.1689,-1.79884 0.511424,-3.53626 1.08545,-5.19219z" />
   <path
   id="_246099480"
   class="fil65"
   d="M10.7446 26.3047l9.07452 0c-0.429927,1.72325 -0.458273,3.52091 -0.213782,5.36345l0 0.0153545 0.385044 2.59964 0.00590558 0.00472447 0.596464 3.26933 0.0259846 0.166537 0.17953 1.15749 1.16931 0 0.129923 0.976784 8.53711 0 -4.15871 5.13313 -21.5625 0 -4.15635 -5.13313 6.93198 0 0.0720481 -0.976784 1.40553 0 0.090946 -1.24017c0.157089,-2.09412 0.414572,-4.03706 0.583472,-5.74377l0 -0.00472447 0.139372 -1.40907c0.134647,-1.43506 0.381501,-2.83232 0.764183,-4.17879z" />
   <path
   id="_246096384"
   class="fil66"
   d="M10.4812 27.3263l9.13003 0c-0.224412,1.40789 -0.203152,2.86067 -0.00590558,4.34179l0 0.0153545 0.385044 2.59964 0.00590558 0.00472447 0.596464 3.26933 0.0259846 0.166537 0.17953 1.15749 1.16931 0 0.129923 0.976784 8.53711 0 -2.53231 3.12642 -24.8129 0 -2.53231 -3.12642 6.93198 0 0.0720481 -0.976784 1.40553 0 0.090946 -1.24017c0.157089,-2.09412 0.414572,-4.03706 0.583472,-5.74377l0 -0.00472447 0.139372 -1.40907c0.100395,-1.076 0.263389,-2.12955 0.500794,-3.15713z" />
   <path
   id="_246087360"
   class="fil67"
   d="M10.2734 28.3409l9.21862 0c-0.0838593,1.08663 -0.0377957,2.19924 0.113387,3.32721l0 0.0153545 0.385044 2.59964 0.00590558 0.00472447 0.596464 3.26933 0.0259846 0.166537 0.17953 1.15749 1.16931 0 0.129923 0.976784 8.53711 0 -0.900011 1.11025 -28.0787 0 -0.89883 -1.11025 6.93198 0 0.0720481 -0.976784 1.40553 0 0.090946 -1.24017c0.157089,-2.09412 0.414572,-4.03706 0.583472,-5.74377l0 -0.00472447 0.139372 -1.40907c0.0661425,-0.724025 0.164175,-1.4386 0.292917,-2.14255z" />
   <path
   id="_246071184"
   class="fil68"
   d="M10.1115 29.3543l9.33909 0c-0.00472447,0.76182 0.050788,1.53309 0.154726,2.31381l0 0.0153545 0.385044 2.59964 0.00590558 0.00472447 0.596464 3.26933 0.0259846 0.166537 0.17953 1.15749 1.16931 0 0.0106301 0.0779537 -14.2218 0 0.00472447 -0.0779537 1.40553 0 0.090946 -1.24017c0.157089,-2.09412 0.414572,-4.03706 0.583472,-5.74377l0 -0.00472447 0.139372 -1.40907c0.0366146,-0.377957 0.0814971,-0.754734 0.131104,-1.12915z" />
   <path
   id="_246081888"
   class="fil69"
   d="M9.99225 30.3701l9.48673 0c0.0271657,0.429927 0.0685048,0.863396 0.12638,1.29805l0 0.0153545 0.385044 2.59964 0.00590558 0.00472447 0.485439 2.65869 -11.1663 0c0.154726,-1.83073 0.375595,-3.5339 0.525597,-5.04927l0 -0.00472447 0.139372 -1.40907 0.0118112 -0.113387z" />
  </g>
  <path
   class="fil70"
   d="M48.127 26.1511c0.418115,0.66615 0.786624,1.36183 1.1008,2.08703l3.71816 -1.82719c-0.26457,-0.882294 -0.59174,-1.73506 -0.982689,-2.55357l-3.77721 2.27247 -0.0590558 0.0212601z"
   id="path5959" />
  <rect
   class="fil71"
   x="0.870436"
   y="39.8607"
   width="8.79201"
   height="1.11806"
   id="rect5961" />
  <g
   id="_246061096">
   <path
   id="_246071688"
   class="fil72"
   d="M39.0324 52.4085c0,0 8.45798,-2.87484 12.2872,-11.1675 0.884657,-1.9205 2.73665,-10.2143 -0.468903,-14.1675" />
   <path
   id="_249361864"
   class="fil73"
   d="M49.099 28.0976l3.79847 -2.28664 0.00590558 0.00472447c0.38032,0.832687 0.69804,1.69608 0.949618,2.59137l-3.68745 1.81301c-0.302366,-0.734655 -0.659063,-1.44451 -1.06655,-2.12247z" />
   <g
   id="g5966">
    <path
   id="_246043720"
   class="fil74"
   d="M50.0841 30.298c1.20592,-0.680323 2.4142,-1.36065 3.62249,-2.04215 0.00118112,0.00118112 0.00236223,0.00354335 0.00590558,0.00472447 0.333075,0.790167 0.608275,1.6075 0.820876,2.45318 -1.16812,0.535046 -2.33625,1.06891 -3.50437,1.60159 -0.26457,-0.695678 -0.58111,-1.37128 -0.944894,-2.01735z" />
    <path
   id="_155639680"
   class="fil75"
   d="M50.5447 32.541c1.14805,-0.600007 2.29609,-1.20001 3.4465,-1.8012 0,0.00118112 0.00118112,0.00236223 0.00354335,0.00472447 0.289374,0.748828 0.520873,1.5201 0.694497,2.31617 -1.10671,0.464179 -2.21459,0.928358 -3.32248,1.39136 -0.225593,-0.657882 -0.499612,-1.29923 -0.822057,-1.91105z" />
    <path
   id="_155636920"
   class="fil76"
   d="M50.6841 34.713c1.08899,-0.51851 2.17916,-1.03702 3.26697,-1.55553 0.00236223,0.00118112 0.00354335,0.00236223 0.0070867,0.00472447 0.242129,0.703946 0.431108,1.43033 0.565755,2.17798 -1.04765,0.394493 -2.09412,0.788986 -3.14059,1.1823 -0.187798,-0.622449 -0.420478,-1.22718 -0.699221,-1.80947z" />
    <path
   id="_155640352"
   class="fil77"
   d="M50.6073 36.7882c1.02993,-0.437013 2.05987,-0.874027 3.09098,-1.3134 0.00118112,0.00118112 0.00354335,0.00354335 0.00472447,0.00472447 0.197247,0.663788 0.343705,1.34529 0.439375,2.04215 -0.987414,0.325988 -1.97247,0.648433 -2.95752,0.972059 -0.148821,-0.583472 -0.341343,-1.15277 -0.577566,-1.70553z" />
    <path
   id="_155639272"
   class="fil78"
   d="M50.3664 38.7654c0.972059,-0.357878 1.94294,-0.714576 2.91382,-1.07127 0,0 0.00236223,0.00118112 0.00472447,0.00354335 0.150002,0.622449 0.255121,1.25671 0.309453,1.90632 -0.923633,0.255121 -1.84845,0.50788 -2.77444,0.76182 -0.108663,-0.545676 -0.261027,-1.08072 -0.453549,-1.60041z" />
    <path
   id="_155634328"
   class="fil79"
   d="M49.9435 40.6186c0.911822,-0.276381 1.82364,-0.551582 2.73665,-0.826782 0,0 0.00118112,0.00118112 0.00354335,0.00236223 0.106301,0.58111 0.166537,1.17049 0.181892,1.76931 -0.862215,0.184254 -1.72561,0.367327 -2.59137,0.5504 -0.0720481,-0.506699 -0.183073,-1.00749 -0.330713,-1.49529z" />
    <path
   id="_155633728"
   class="fil80"
   d="M49.2254 42.2875c0.851585,-0.194884 1.70553,-0.389769 2.55948,-0.584653 0,0.00118112 0,0.00118112 0.00354335,0.00354335 0.0590558,0.538589 0.0779537,1.0819 0.0543314,1.6323 -0.801978,0.114568 -1.60514,0.226774 -2.4083,0.341343 -0.0342524,-0.471266 -0.102757,-0.935445 -0.209058,-1.39254z" />
    <path
   id="_155637352"
   class="fil81"
   d="M48.3691 43.8053c0.793711,-0.114568 1.5886,-0.229137 2.38231,-0.342524 0,0.00118112 0,0.00118112 0.00236223,0.00236223 0.0129923,0.49725 -0.00826782,0.9945 -0.0720481,1.49648 -0.741741,0.0425202 -1.48466,0.0862215 -2.22641,0.128742 0.00354335,-0.431108 -0.0248035,-0.862215 -0.0862215,-1.28506z" />
    <path
   id="_155633752"
   class="fil82"
   d="M47.4112 45.1754c0.733474,-0.0330713 1.46813,-0.0661425 2.20396,-0.0992138 0,0 0.00118112,0.00118112 0.00236223,0.00354335 -0.0330713,0.453549 -0.0968516,0.907098 -0.199609,1.35828 -0.682686,-0.0271657 -1.36301,-0.0543314 -2.04451,-0.0803159 0.0425202,-0.394493 0.0543314,-0.790167 0.0377957,-1.1823z" />
    <path
   id="_155634760"
   class="fil83"
   d="M46.3706 46.412c0.674418,0.0484258 1.3512,0.0968516 2.0268,0.145277 0,0 0,0 0.00236223,0.00118112 -0.0767726,0.413391 -0.185435,0.819695 -0.327169,1.22364 -0.621267,-0.0992138 -1.24017,-0.196065 -1.86144,-0.292917 0.0803159,-0.354335 0.134647,-0.715757 0.159451,-1.07718z" />
    <path
   id="_155635528"
   class="fil84"
   d="M45.2687 47.5069c0.614181,0.129923 1.2319,0.259846 1.84963,0.387406 0,0.00236223 0,0.00236223 0.00118112,0.00354335 -0.122836,0.370871 -0.272838,0.732292 -0.45473,1.08545 -0.559849,-0.1689 -1.1197,-0.336618 -1.67837,-0.501975 0.118112,-0.318902 0.212601,-0.64489 0.282287,-0.974421z" />
    <path
   id="_155640112"
   class="fil85"
   d="M44.1253 48.486c0.556306,0.209058 1.11497,0.420478 1.67364,0.629535 -0.00236223,0 0,0.00236223 0,0.00354335 -0.1689,0.32835 -0.361422,0.64489 -0.582291,0.947256 -0.498431,-0.237404 -0.998044,-0.474809 -1.49648,-0.712213 0.15827,-0.279925 0.294098,-0.569298 0.405123,-0.868121z" />
    <path
   id="_155638264"
   class="fil86"
   d="M42.9501 49.3447c0.49725,0.290555 0.996863,0.58111 1.49766,0.874027 -0.00236223,0 -0.00236223,0 0,0.00118112 -0.216144,0.288193 -0.451187,0.557487 -0.712213,0.811427 -0.435832,-0.30709 -0.874027,-0.615362 -1.31222,-0.922452 0.196065,-0.242129 0.372052,-0.49725 0.526778,-0.764183z" />
    <path
   id="_246060376"
   class="fil87"
   d="M41.7584 50.0935c0.438194,0.372052 0.878751,0.744104 1.31931,1.11852 0,0 0,0 0,0.00118112 -0.259846,0.244491 -0.538589,0.468903 -0.838593,0.674418 -0.376776,-0.379139 -0.752371,-0.757096 -1.12915,-1.13387 0.23268,-0.203152 0.450006,-0.424021 0.648433,-0.660244z" />
    <path
   id="_246062440"
   class="fil88"
   d="M40.5548 50.7431c0.379139,0.451187 0.759458,0.904736 1.14096,1.35828 -0.00118112,0 -0.00118112,0 0,0.00236223 -0.305909,0.203152 -0.627173,0.381501 -0.966154,0.537408 -0.315358,-0.448824 -0.631898,-0.896468 -0.947256,-1.34293 0.271657,-0.167719 0.531503,-0.351973 0.77245,-0.555125z" />
   </g>
   <path
   id="_246054040"
   class="fil89"
   d="M39.3418 51.277l0.963791 1.60278 -0.00236223 0.00236223c-0.350792,0.160632 -0.714576,0.294098 -1.09253,0.400399l-0.764183 -1.55553c0.309453,-0.127561 0.609456,-0.277562 0.895287,-0.450006z" />
  </g>
  <g
   id="_246055312">
   <path
   id="_246059560"
   class="fil90"
   d="M10.232 33.8484l10.5745 0c0.0212601,0.320083 0.0496069,0.641346 0.0850404,0.964973 0.0437013,0.395674 0.395674,3.19374 0.76182,6.03433l10.3489 0 -1.27324 1.86262 -28.8122 0 -1.27324 -1.86262 9.01192 0c0.180711,-2.62799 0.462998,-5.63629 0.576385,-6.9993z" />
   <path
   id="_246065344"
   class="fil91"
   d="M10.2048 34.1733l10.6253 0 0.0614181 0.640165c0.0437013,0.395674 0.395674,3.19374 0.76182,6.03433l10.3489 0 -0.83505 1.22127 -29.6874 0 -0.836231 -1.22127 9.01192 0c0.166537,-2.43664 0.42284,-5.1981 0.549219,-6.67449z" />
   <path
   id="_246058720"
   class="fil92"
   d="M10.1765 34.4969l10.682 0 0.0330713 0.316539c0.0437013,0.395674 0.395674,3.19374 0.76182,6.03433l10.3489 0 -0.395674 0.578747 -30.5661 0 -0.396855 -0.578747 9.01192 0c0.154726,-2.26774 0.388587,-4.81896 0.520873,-6.35087z" />
   <path
   id="_246054328"
   class="fil93"
   d="M10.147 34.8205l10.7446 0c0.0472447,0.41221 0.392131,3.15949 0.753553,5.96346l-11.9848 0c0.144096,-2.09766 0.351973,-4.42801 0.48662,-5.96346z" />
   <path
   id="_246060064"
   class="fil94"
   d="M10.1186 35.1477l10.8119 0 0.631898 4.99612 -11.8561 0c0.129923,-1.77168 0.294098,-3.6343 0.41221,-4.99612z" />
   <path
   id="_155640256"
   class="fil95"
   d="M10.0903 35.4713l10.8816 0 0.509061 4.02997 -11.7261 0c0.108663,-1.43269 0.233861,-2.8772 0.335437,-4.02997z" />
   <path
   id="_156718816"
   class="fil96"
   d="M10.0631 35.7926l10.9478 0 0.387406 3.06618 -11.5938 0c0.0862215,-1.08545 0.178349,-2.15199 0.258665,-3.06618z" />
   <polygon
   id="_246040696"
   class="fil97"
   points="10.0348,36.1186 21.0522,36.1186 21.3168,38.2174 9.85642,38.2174 " />
  </g>
  <rect
   class="fil71"
   x="20.973"
   y="39.8607"
   width="9.07311"
   height="1.11806"
   id="rect5993" />
  <path
   class="fil98"
   d="M15.5931 61.0531l7.42804 -10.2946 -0.00118112 -0.00118112 7.30639 -10.6927 -8.59499 0 -0.438194 0 -0.0566936 -0.438194 -0.523235 -4.10556 -0.00118112 -0.00236223 -0.237404 -1.92876 0 -0.00590558c-0.245672,-2.21814 -0.349611,-4.35832 0.100395,-6.37921 0.458273,-2.05396 1.4823,-3.96737 3.49256,-5.68472 0.82442,-0.703946 1.68545,-1.30513 2.56775,-1.80357 3.56343,-2.01853 7.47765,-2.38704 11.099,-1.54254 3.5965,0.838593 6.67449,3.11933 9.08279,5.92684l-0.159451 0.198428c-2.26774,-2.62208 -5.78157,-4.36659 -9.15011,-5.15203 -3.39217,-0.791348 -7.05363,-0.447643 -10.3808,1.43624 -0.823238,0.46536 -1.63112,1.02993 -2.40948,1.6949 -1.82719,1.56026 -2.75673,3.29059 -3.16894,5.1414 -0.419296,1.8827 -0.316539,3.92367 -0.0826782,6.04968l0.00118112 0 0.237404 1.92876 -0.00118112 0 0.467722 3.66501 9.10169 0 0.946075 0 -0.533865 0.781899 -7.84025 11.4746 -0.00826782 0.00944894 -7.83907 10.8651 -0.402761 0.558668 -0.405123 -0.558668 -7.84025 -10.8651 -0.00826782 -0.00944894 -7.83907 -11.4746 -0.524416 -0.768907 0.93072 -0.0106301 7.64301 -0.0956705c0.125198,-1.75632 0.287011,-3.57878 0.407485,-4.96305l0.150002 -1.76105c0.274019,-3.48902 1.30159,-6.75717 3.14413,-9.7076 1.76931,-2.83232 4.29218,-5.37526 7.62293,-7.54261 1.33112,-0.865759 2.71539,-1.57325 4.12446,-2.12601 5.22762,-2.04924 10.8887,-2.03388 15.9285,-0.445281 4.86738,1.53427 8.76625,5.18274 11.549,9.21153l-0.477171 0.277562c-5.45912,-8.76743 -16.8203,-11.973 -26.6365,-8.11309 -1.35238,0.530321 -2.67641,1.20592 -3.94493,2.03152 -3.20319,2.08467 -5.62566,4.5225 -7.3182,7.23316 -1.75632,2.81106 -2.73547,5.92803 -2.99531,9.25878l0 0.00472447 -0.150002 1.76223 0 0.00118112c-0.133466,1.53309 -0.316539,3.59532 -0.439375,5.40361l-0.030709 0.459454 -0.461817 0.00590558 -7.17292 0.0897649 7.31466 10.7068 -0.00118112 0.00118112 7.42923 10.2946zm37.3339 -22.5215c-0.335437,0.881113 -0.732292,1.71144 -1.1823,2.48271l-0.901192 -0.418115c0.421659,-1.17167 0.82442,-2.37995 1.19647,-3.58233 0.395674,-1.27561 0.758277,-2.54294 1.076,-3.74768l0.979146 0.172443c-0.0366146,0.399218 -0.0850404,0.774813 -0.13701,1.12797l0 0.00236223c-0.0555125,0.364965 -0.12638,0.748828 -0.209058,1.1445 -0.210239,0.9945 -0.48662,1.93349 -0.822057,2.81578l0 0.00236223z"
   id="path5995" />
  <g
   id="_246046216">
   <path
   id="_246045808"
   class="fil40"
   d="M41.8859 32.5563l17.4876 10.9856c-3.24925,6.58591 -8.81468,11.8324 -15.6356,14.6801l-9.04381 -18.2813c3.54217,-0.979146 6.31071,-3.81146 7.19182,-7.38434z" />
   <g
   id="g5999">
    <path
   id="_246046984"
   class="fil41"
   d="M41.7785 32.9579l17.2053 11.3482c-3.20201,6.05086 -8.38593,10.8946 -14.6896,13.6762l-9.23752 -18.149c3.23508,-1.02521 5.7733,-3.61304 6.72174,-6.87528z" />
    <path
   id="_246063016"
   class="fil42"
   d="M41.6533 33.3583l16.9124 11.7108c-3.12642,5.52054 -7.93002,9.96981 -13.7199,12.6628l-9.4324 -18.0191c2.93389,-1.05001 5.24652,-3.40044 6.23984,-6.35441z" />
    <path
   id="_246060592"
   class="fil43"
   d="M41.5092 33.7551l16.6112 12.0757c-3.02366,4.99612 -7.44694,9.05562 -12.7265,11.6399l-9.6261 -17.8916c2.63389,-1.05592 4.72565,-3.17484 5.74141,-5.82409z" />
    <path
   id="_246066952"
   class="fil44"
   d="M41.3485 34.1496l16.2994 12.4372c-2.89374,4.47998 -6.93552,8.15561 -11.7096,10.6112l-9.82217 -17.7675c2.34097,-1.04056 4.21659,-2.93153 5.23235,-5.28077z" />
    <path
   id="_246051472"
   class="fil45"
   d="M41.1714 34.5382l15.977 12.7974c-2.73783,3.97446 -6.39693,7.26977 -10.669,9.57886l-10.0171 -17.6447c2.0516,-1.00631 3.71579,-2.67759 4.70911,-4.73155z" />
    <path
   id="_246062776"
   class="fil46"
   d="M40.9765 34.9185l15.6451 13.1553c-2.55357,3.48193 -5.82881,6.40283 -9.6072,8.54302l-10.2119 -17.5219c1.76931,-0.95198 3.22563,-2.40712 4.17407,-4.17643z" />
    <path
   id="_246060832"
   class="fil47"
   d="M40.7651 35.2941l15.3037 13.5108c-2.34097,3.00004 -5.23353,5.55125 -8.5253,7.50364l-10.4068 -17.4014c1.49411,-0.878751 2.7461,-2.12365 3.62839,-3.61304z" />
    <path
   id="_246047368"
   class="fil48"
   d="M40.5395 35.6579l14.9529 13.8651c-2.10475,2.53468 -4.61226,4.72211 -7.4245,6.4678l-10.6041 -17.2845c1.22954,-0.786624 2.27956,-1.82719 3.07563,-3.04846z" />
   </g>
   <path
   id="_246046912"
   class="fil39"
   d="M40.2962 36.0146l14.5927 14.2112c-1.84018,2.08467 -3.96028,3.91658 -6.30244,5.43668l-10.8001 -17.1711c0.97324,-0.674418 1.82364,-1.51301 2.50987,-2.4768z" />
  </g>
  <g
   id="_156721120">
   <path
   id="_156719008"
   class="fil40"
   d="M43.9009 34.3303l16.2522 10.2096c-3.0213,6.12055 -8.19223,10.995 -14.5313,13.6419l-8.40365 -16.9892c3.29177,-0.90946 5.86543,-3.54217 6.68276,-6.86229z" />
   <g
   id="g6012">
    <path
   id="_156723616"
   class="fil41"
   d="M43.8017 34.7036l15.9876 10.545c-2.97523,5.6233 -7.79183,10.1257 -13.6502,12.71l-8.58436 -16.8652c3.00712,-0.953161 5.36581,-3.35792 6.24693,-6.38984z" />
    <path
   id="_156720904"
   class="fil42"
   d="M43.6848 35.0768l15.7171 10.8828c-2.90555,5.12959 -7.37017,9.2635 -12.7502,11.7663l-8.76507 -16.7447c2.72602,-0.976784 4.87565,-3.16067 5.7981,-5.9044z" />
    <path
   id="_156719824"
   class="fil43"
   d="M43.5513 35.4453l15.4372 11.2218c-2.81106,4.64297 -6.92135,8.41428 -11.8277,10.8155l-8.9446 -16.6266c2.44727,-0.980327 4.39139,-2.94925 5.33511,-5.4107z" />
    <path
   id="_156718936"
   class="fil44"
   d="M43.4025 35.8115l15.1466 11.5572c-2.6894,4.16344 -6.44535,7.57923 -10.8816,9.86114l-9.12767 -16.5108c2.17562,-0.967335 3.91895,-2.72484 4.86266,-4.90754z" />
    <path
   id="_156720400"
   class="fil45"
   d="M43.2383 36.1717l14.8455 11.8927c-2.54413,3.69335 -5.94338,6.75717 -9.9143,8.90208l-9.30838 -16.3974c1.90632,-0.934263 3.45359,-2.48743 4.37722,-4.3973z" />
    <path
   id="_156725320"
   class="fil46"
   d="M43.0564 36.526l14.5384 12.2257c-2.37286,3.23508 -5.4166,5.94929 -8.92806,7.93829l-9.48909 -16.2829c1.64411,-0.884657 2.99767,-2.23704 3.87879,-3.88115z" />
    <path
   id="_156724144"
   class="fil47"
   d="M42.8604 36.8745l14.2218 12.5553c-2.1768,2.78862 -4.86502,5.15912 -7.92293,6.9745l-9.67099 -16.1719c1.38899,-0.816152 2.55239,-1.97365 3.37209,-3.35792z" />
    <path
   id="_156724744"
   class="fil48"
   d="M42.6501 37.2135l13.8947 12.8836c-1.95475,2.35515 -4.28509,4.38785 -6.8989,6.0107l-9.85288 -16.062c1.14214,-0.731111 2.11774,-1.69726 2.85712,-2.83232z" />
   </g>
   <path
   id="_156724504"
   class="fil39"
   d="M42.4245 37.5442l13.5604 13.2072c-1.71026,1.93703 -3.68036,3.63902 -5.85716,5.05164l-10.036 -15.9569c0.904736,-0.627173 1.6949,-1.40671 2.33271,-2.302z" />
  </g>
  <path
   class="fil99"
   d="M36.089 39.3406l22.5759 0c1.14214,0 2.07758,0.774813 2.07758,1.72089l0 18.7006c0,0.947256 -0.935445,1.72089 -2.07758,1.72089l-22.5759 0c-1.14332,0 -2.07758,-0.773632 -2.07758,-1.72089l0 -18.7006c0,-0.946075 0.934263,-1.72089 2.07758,-1.72089z"
   id="path6023" />
  <path
   class="fil100"
   d="M38.6721 35.5339l22.7377 0c1.14332,0 2.08113,0.936626 2.07877,2.07758l-0.0649614 22.8204c-0.00236223,1.13978 -0.937807,2.07758 -2.07877,2.07758l-22.7377 0c-1.14096,0 -2.08231,-0.935445 -2.07877,-2.07758l0.0649614 -22.8204c0.00354335,-1.14332 0.935445,-2.07758 2.07877,-2.07758z"
   id="path6025" />
  <path
   class="fil101"
   d="M63.3386 36.8367c0.0968516,0.239767 0.150002,0.501975 0.150002,0.774813l-0.0649614 22.8204c-0.00236223,1.13978 -0.937807,2.07758 -2.07877,2.07758l-22.7377 0c-1.14096,0 -2.08231,-0.935445 -2.07877,-2.07758l0.0649614 -22.8204c0.00118112,-0.416934 0.12638,-0.806703 0.340162,-1.13269l1.26025 0.81379c-0.0661425,0.0933082 -0.105119,0.204333 -0.106301,0.318902l0 0.00590558 -0.0649614 22.8145 0.00590558 0 0 0.00590558 -0.00590558 0c0,0.151183 0.0661425,0.29646 0.171262,0.400399l0.00590558 0c0.107482,0.107482 0.252759,0.177168 0.40158,0.177168l0 -0.00590558 0.00590558 0 22.7377 0c0.155907,0 0.300004,-0.0661425 0.405123,-0.171262 0.109844,-0.109844 0.17953,-0.256302 0.17953,-0.406304l0.0614181 -21.5684c0.0732292,-0.0177168 0.118112,-0.0389769 0.127561,-0.0625992 0.0720481,-0.17953 0.628354,-1.05474 1.22009,-1.9642z"
   id="path6027" />
  <path
   class="fil102"
   d="M62.9736 38.3804c-0.439375,0.682686 0.2752,2.46027 0.24331,2.54176 -0.0318902,0.0814971 -0.0543314,0.0448824 -0.127561,0.0625992l0.00354335 -1.25198 -0.00590558 0 0 -0.00472447c0,-0.153545 -1.16458,-1.43978 -1.26852,-1.54372l0.00236223 -0.00354335c-0.108663,-0.107482 -0.255121,-0.173624 -0.406304,-0.173624l0 0.00590558 -0.00472447 0 -22.7377 0c-0.160632,0 -1.66892,0.901192 -1.76931,1.00159l1.36419 -0.831506c-0.0271657,0.0271657 -1.41616,0.894105 -1.43742,0.925996l0.523235 -1.38073c0.060237,-0.0921271 0.129923,-0.175986 0.206695,-0.252759l0 -0.00118112c0.283468,-0.283468 0.677961,-0.460636 1.11261,-0.460636l22.7377 0 0.00472447 0 0 -0.00236223c0.429927,0 0.826782,0.17953 1.11261,0.46536l-0.00118112 0c0.237404,0.237404 0.40158,0.553944 0.447643,0.903554z"
   id="path6029" />
  <path
   class="fil103"
   d="M38.6721 35.0331l22.7377 0 0.00472447 0 0 0.00236223c0.705127,0.00118112 1.3512,0.291736 1.81656,0.755915l0.00118112 0c0.46536,0.46536 0.757096,1.11143 0.757096,1.81538l0 0.00472447 -0.00236223 0 -0.0649614 22.8204c-0.00118112,0.707489 -0.292917,1.35474 -0.758277,1.8201 -0.466541,0.466541 -1.11143,0.758277 -1.81892,0.758277l-22.7377 0 -0.00590558 0 0 -0.00236223c-0.705127,-0.00118112 -1.3512,-0.291736 -1.81538,-0.755915l0.00118112 -0.00118112c-0.46536,-0.464179 -0.758277,-1.10907 -0.757096,-1.81301l-0.00236223 0 0 -0.00590558 0.00236223 0 0.0649614 -22.8204 0 -0.00236223c0.00236223,-0.706308 0.292917,-1.35356 0.758277,-1.81892l0.00118112 0.00118112c0.46536,-0.466541 1.11025,-0.758277 1.81774,-0.758277zm22.7377 1.00159l-22.7377 0c-0.434651,0 -0.829144,0.177168 -1.11261,0.460636l0 0.00118112c-0.287011,0.287011 -0.46536,0.683867 -0.467722,1.11497l0 0.00236223 -0.0649614 22.818 0.00236223 0 0 0.00590558 -0.00236223 0c0,0.428745 0.178349,0.823238 0.464179,1.10789l0.00118112 0c0.284649,0.284649 0.681504,0.46536 1.10907,0.46536l0 -0.00236223 0.00590558 0 22.7377 0c0.432289,0 0.827963,-0.178349 1.11261,-0.462998 0.28583,-0.28583 0.467722,-0.683867 0.467722,-1.11379l0.0649614 -22.8204 -0.00236223 0 0 -0.00472447c0,-0.431108 -0.178349,-0.825601 -0.461817,-1.10907l0.00118112 0c-0.28583,-0.28583 -0.682686,-0.46536 -1.11261,-0.46536l0 0.00236223 -0.00472447 0z"
   id="path6031" />
  <path
   class="fil104"
   d="M39.0111 49.4593c0,-0.63426 0.0649614,-1.24372 0.191341,-1.82483 0.127561,-0.587015 0.322445,-1.15041 0.582291,-1.68663 0.261027,-0.53977 0.565755,-1.01576 0.911822,-1.42443 0.355516,-0.420478 0.759458,-0.774813 1.20592,-1.06182l0.00354335 0c0.442919,-0.282287 0.916547,-0.498431 1.41498,-0.640165l0 -0.00118112c0.496069,-0.140553 1.01694,-0.212601 1.55907,-0.212601 0.908279,0 1.7327,0.184254 2.4709,0.552763l0.00118112 -0.00118112c0.741741,0.368508 1.37954,0.918909 1.90868,1.64175l0 0.00354335c0.399218,0.549219 0.7193,1.13269 0.957886,1.74923 0.0472447,-0.435832 0.146458,-0.842136 0.297641,-1.22364l-0.00354335 -0.00118112c0.220869,-0.561031 0.559849,-1.05592 1.00395,-1.47876 0.450006,-0.426383 0.996863,-0.744104 1.62994,-0.95198 0.594102,-0.192522 1.26734,-0.290555 2.01735,-0.290555 0.693316,0 1.32049,0.0720481 1.87679,0.214963 0.598826,0.153545 1.11261,0.388587 1.53663,0.703946l0.00354335 0.00354335c0.833869,0.62363 1.41025,1.5886 1.72443,2.89137l0.237404 0.98387 -0.987414 0.22205 -1.27443 0.28583 0.00590558 0.00354335c0.585834,0.292917 1.04765,0.628354 1.38191,1.00159l0.00472447 0.00354335c0.338981,0.382682 0.592921,0.82442 0.754734,1.31813 0.153545,0.466541 0.23268,0.988595 0.23268,1.56026 0,0.686229 -0.120474,1.32285 -0.362603,1.90632l-0.00118112 0c-0.134647,0.323626 -0.304728,0.628354 -0.511424,0.913003 -0.60237,-0.180711 -1.28151,-0.237404 -1.28151,-0.237404 0,0 -0.748828,0 -1.61222,0.0212601 0.364965,-0.131104 0.677961,-0.322445 0.940169,-0.572842l0.00354335 -0.00354335c0.277562,-0.262208 0.48662,-0.558668 0.620086,-0.882294l0 -0.00354335c0.13701,-0.331894 0.206695,-0.713395 0.206695,-1.14096 0,-0.353154 -0.0460636,-0.667331 -0.133466,-0.934263 -0.0791348,-0.24331 -0.198428,-0.453549 -0.348429,-0.62363l0.00118112 0c-0.165356,-0.181892 -0.428745,-0.366146 -0.785443,-0.544495 -0.413391,-0.206695 -0.94135,-0.40158 -1.57679,-0.577566 -0.649614,-0.17953 -1.16812,-0.340162 -1.54963,-0.473628 -0.440557,-0.154726 -0.765364,-0.301185 -0.967335,-0.441738 -0.246853,-0.1689 -0.437013,-0.375595 -0.570479,-0.605913l-0.00354335 -0.0070867c-0.14764,-0.259846 -0.22205,-0.540952 -0.22205,-0.840955 0,-0.314177 0.0791348,-0.607094 0.230318,-0.875208 0.139372,-0.246853 0.340162,-0.461817 0.596464,-0.636622 0.240948,-0.164175 0.542133,-0.28583 0.895287,-0.355516l0 0.00236223c0.289374,-0.0578747 0.618905,-0.0874027 0.980327,-0.0874027 0.714576,0 1.3134,0.188979 1.78939,0.559849 0.235042,0.183073 0.432289,0.406304 0.59174,0.667331l0.438194 -0.0980327c-0.173624,-0.343705 -0.387406,-0.610637 -0.638984,-0.799616 -0.219688,-0.162994 -0.500794,-0.289374 -0.839774,-0.375595 -0.379139,-0.0968516 -0.842136,-0.146458 -1.38545,-0.146458 -0.542133,0 -1.01104,0.0649614 -1.4008,0.191341 -0.349611,0.114568 -0.643709,0.282287 -0.871664,0.498431 -0.229137,0.217326 -0.405123,0.47599 -0.519691,0.767726l-0.00354335 0c-0.120474,0.303547 -0.181892,0.663788 -0.181892,1.076 0,0.407485 0.0614181,0.76182 0.181892,1.05474 0.114568,0.276381 0.288193,0.519691 0.517329,0.724025l0.00118112 -0.00236223c0.191341,0.1689 0.561031,0.363784 1.10553,0.578747l0 0.00354335c0.604732,0.239767 1.40671,0.491345 2.40121,0.753553l0.00354335 0c0.252759,0.0673237 0.477171,0.146458 0.667331,0.233861l0.00354335 0.00354335c0.252759,0.118112 0.455911,0.261027 0.609456,0.421659l0.0188979 0.020079c0.159451,0.177168 0.278744,0.385044 0.353154,0.614181l0 0.00354335c0.0649614,0.203152 0.0968516,0.419296 0.0968516,0.64489 0,0.331894 -0.0720481,0.647252 -0.217326,0.940169l0.00118112 0.00118112c-0.138191,0.279925 -0.343705,0.527959 -0.610637,0.739379l-0.0070867 0.00826782c-0.256302,0.197247 -0.563393,0.342524 -0.92009,0.435832l-0.00472447 0.00354335c-0.301185,0.0755915 -0.64489,0.116931 -1.02757,0.116931 -0.817333,0 -1.49057,-0.238586 -2.01735,-0.711032 -0.28583,-0.257483 -0.513786,-0.577566 -0.686229,-0.957886l-0.522054 0.0968516c0.0425202,0.0897649 0.0862215,0.174805 0.133466,0.257483l0.00118112 -0.00118112c0.19016,0.329532 0.428745,0.607094 0.709851,0.826782 0.284649,0.22205 0.620086,0.392131 0.999225,0.505518 0.161813,0.0484258 0.333075,0.0874027 0.513786,0.116931 -0.963791,0.197247 -2.33271,0.773632 -2.33271,0.773632l-0.373233 0.199609 -0.0330713 -0.0248035c-0.488982,-0.38032 -0.892924,-0.849223 -1.21064,-1.39844l0 -0.00354335c-0.192522,-0.335437 -0.356697,-0.700402 -0.485439,-1.09253l-0.0755915 0.165356c-0.258665,0.548038 -0.566936,1.0382 -0.915366,1.46104 -0.145277,0.177168 -0.298823,0.342524 -0.459454,0.496069 -0.555125,-0.577566 -1.12679,-1.1386 -1.34647,-1.24844 -0.0661425,-0.0330713 -0.131104,-0.0460636 -0.197247,-0.0448824 0.165356,-0.135828 0.320083,-0.295279 0.46536,-0.468903 0.239767,-0.290555 0.458273,-0.641346 0.648433,-1.04529 0.386225,-0.816152 0.579928,-1.74687 0.579928,-2.78271 0,-0.695678 -0.0944894,-1.34293 -0.278744,-1.93821 -0.185435,-0.592921 -0.460636,-1.14332 -0.82442,-1.64175l-0.00118112 0.00118112c-0.337799,-0.462998 -0.734655,-0.809065 -1.18348,-1.0323l-0.00354335 -0.00354335c-0.450006,-0.224412 -0.979146,-0.337799 -1.58506,-0.337799 -0.360241,0 -0.699221,0.0460636 -1.0134,0.134647l-0.00354335 0c-0.311815,0.0885838 -0.608275,0.223231 -0.884657,0.399218l0.00118112 0.00118112c-0.276381,0.177168 -0.531503,0.402761 -0.759458,0.672056 -0.237404,0.281106 -0.451187,0.616543 -0.637803,1.00159 -0.187798,0.387406 -0.330713,0.803159 -0.426383,1.24253 -0.0968516,0.445281 -0.146458,0.913003 -0.146458,1.40199 0,0.89883 0.101576,1.68191 0.301185,2.34097 0.19016,0.627173 0.472447,1.15631 0.840955,1.58388 0.366146,0.424021 0.777175,0.74056 1.22718,0.947256 0.0850404,0.0389769 0.173624,0.0744104 0.262208,0.106301 -0.575204,-0.107482 -1.03938,-0.216144 -1.03938,-0.216144 0,0 -0.85631,0.324807 -1.73506,0.709851l-0.22205 -0.24331c-0.552763,-0.640165 -0.968516,-1.41262 -1.24017,-2.30908 -0.261027,-0.862215 -0.393312,-1.83664 -0.393312,-2.91972zm5.99417 5.17802c0.301185,-0.00826782 0.585834,-0.0543314 0.857491,-0.13701l0.217326 -0.0732292c-0.133466,0.0862215 -0.276381,0.15827 -0.426383,0.196065 -0.144096,0.0354335 -0.375595,0.0366146 -0.648433,0.0141734zm5.7485 -5.21936l0.00118112 0.140553c0,0.53977 -0.0425202,1.06064 -0.127561,1.56144l0.0318902 -0.00590558 1.5012 -0.279925c-0.236223,-0.13701 -0.43347,-0.276381 -0.594102,-0.418115l0 -0.00354335c-0.32835,-0.291736 -0.600007,-0.62363 -0.812608,-0.9945zm-7.18473 0.204333c0,0.50788 0.0460636,0.938988 0.135828,1.28978 0.0779537,0.303547 0.192522,0.553944 0.338981,0.745285 0.139372,0.183073 0.284649,0.316539 0.431108,0.396855l0.00118112 -0.00118112c0.125198,0.0673237 0.269295,0.102757 0.425202,0.102757 0.145277,0 0.277562,-0.0330713 0.389769,-0.0956705 0.142915,-0.0791348 0.287011,-0.214963 0.426383,-0.40158 0.141734,-0.188979 0.25394,-0.4441 0.333075,-0.759458l0 -0.00354335c0.090946,-0.360241 0.138191,-0.793711 0.138191,-1.29569 0,-0.48662 -0.0472447,-0.904736 -0.135828,-1.2508l-0.00118112 0c-0.0814971,-0.311815 -0.198428,-0.566936 -0.344886,-0.763002l0.00118112 -0.00118112c-0.13701,-0.17953 -0.283468,-0.312996 -0.434651,-0.395674 -0.121655,-0.0661425 -0.257483,-0.100395 -0.406304,-0.100395 -0.142915,0 -0.276381,0.0354335 -0.395674,0.100395l-0.00118112 -0.00236223c-0.140553,0.0803159 -0.283468,0.216144 -0.425202,0.402761l-0.00118112 -0.00118112c-0.142915,0.191341 -0.256302,0.4441 -0.335437,0.755915l-0.00354335 0.00472447c-0.0897649,0.349611 -0.135828,0.774813 -0.135828,1.27324zm-1.79412 1.78112c-0.135828,-0.527959 -0.204333,-1.12324 -0.204333,-1.78112 0,-0.653158 0.0685048,-1.2449 0.203152,-1.76931l-0.00236223 0c0.142915,-0.563393 0.372052,-1.05238 0.679142,-1.46222l0 -0.00354335c0.30709,-0.406304 0.661425,-0.724025 1.05592,-0.943712l0.00354335 -0.00472447c0.419296,-0.230318 0.872845,-0.348429 1.3571,-0.348429 0.488982,0 0.944894,0.115749 1.36773,0.348429 0.392131,0.214963 0.745285,0.532684 1.06182,0.948437l0.00472447 0.00354335c0.304728,0.406304 0.533865,0.892924 0.680323,1.45041l0 0.00354335c0.135828,0.522054 0.205514,1.10907 0.205514,1.75514 0,0.668512 -0.0673237,1.26616 -0.199609,1.78703l-0.00118112 0c-0.144096,0.569298 -0.368508,1.05946 -0.674418,1.46695 -0.308272,0.41221 -0.659063,0.728749 -1.05238,0.947256 -0.420478,0.235042 -0.874027,0.353154 -1.35828,0.353154 -0.487801,0 -0.947256,-0.114568 -1.3701,-0.343705l-0.00354335 -0.00354335c-0.398036,-0.216144 -0.757096,-0.52914 -1.06891,-0.937807 -0.305909,-0.400399 -0.536227,-0.889381 -0.683867,-1.46577zm12.6226 0.349611c0.0685048,0.220869 0.161813,0.385044 0.279925,0.491345 0.144096,0.129923 0.372052,0.196065 0.682686,0.196065 0.213782,0 0.393312,-0.020079 0.536227,-0.0555125l0 0.00236223c0.090946,-0.0236223 0.15827,-0.0519691 0.197247,-0.0826782l0.00118112 0.00118112 0.0413391 -0.0448824c-0.0696859,-0.0259846 -0.154726,-0.0519691 -0.25394,-0.0791348l0 -0.00118112c-0.542133,-0.141734 -1.03702,-0.284649 -1.48466,-0.427564zm1.49411 -4.68431c-0.0354335,-0.0578747 -0.0755915,-0.105119 -0.119293,-0.139372 -0.112206,-0.0874027 -0.301185,-0.132285 -0.563393,-0.132285l-0.17953 0.00236223c0.238586,0.0814971 0.527959,0.171262 0.862215,0.269295z"
   id="path6033" />
  <path
   class="fil105"
   d="M59.7858 54.6196c-0.170081,0.235042 -0.363784,0.45473 -0.582291,0.660244 -0.484258,0.458273 -1.05946,0.805522 -1.72207,1.03112l0 0.00118112c-0.631898,0.216144 -1.34057,0.324807 -2.12129,0.324807 -0.705127,0 -1.35947,-0.090946 -1.95121,-0.268114 -0.600007,-0.180711 -1.1445,-0.455911 -1.62285,-0.823238l0.373233 -0.199609c0,0 1.36891,-0.576385 2.33271,-0.773632 0.269295,0.0437013 0.559849,0.0661425 0.868121,0.0661425 0.559849,0 1.05474,-0.0720481 1.47403,-0.216144l0.00354335 0 0.0531503 -0.0188979c0.863396,-0.0212601 1.61341,-0.0212601 1.61341,-0.0212601 0,0 0.679142,0.0566936 1.28151,0.237404zm-11.1793 0.52914c-0.238586,0.226774 -0.491345,0.428745 -0.758277,0.60237l0.00118112 0.00118112c-0.446462,0.291736 -0.921271,0.512605 -1.41734,0.661425 -0.494888,0.14764 -1.00985,0.223231 -1.54136,0.223231 -0.842136,0 -1.62404,-0.165356 -2.34097,-0.493707 -0.618905,-0.283468 -1.1823,-0.688591 -1.68309,-1.21183 0.878751,-0.385044 1.73506,-0.709851 1.73506,-0.709851 0,0 0.46536,0.108663 1.04175,0.216144 0.379139,0.133466 0.794892,0.20079 1.24726,0.20079l0.114568 -0.00118112c0.272838,0.0224412 0.504337,0.0212601 0.648433,-0.0141734 0.150002,-0.0377957 0.292917,-0.109844 0.426383,-0.196065 0.230318,-0.0874027 0.455911,-0.204333 0.675599,-0.347248l0.00354335 0c0.103938,-0.0685048 0.205514,-0.142915 0.303547,-0.224412 0.0661425,-0.00118112 0.131104,0.0118112 0.197247,0.0448824 0.219688,0.109844 0.791348,0.670874 1.34647,1.24844z"
   id="path6035" />
  <path
   class="fil106"
   d="M39.356 47.0427c0.114568,-0.376776 0.257483,-0.741741 0.428745,-1.0949 0.261027,-0.53977 0.565755,-1.01576 0.911822,-1.42443 0.355516,-0.420478 0.759458,-0.774813 1.20592,-1.06182l0.00354335 0c0.442919,-0.282287 0.916547,-0.498431 1.41498,-0.640165l0 -0.00118112c0.496069,-0.140553 1.01694,-0.212601 1.55907,-0.212601 0.908279,0 1.7327,0.184254 2.4709,0.552763l0.00118112 -0.00118112c0.741741,0.368508 1.37954,0.918909 1.90868,1.64175l0 0.00354335c0.19016,0.261027 0.361422,0.530321 0.516148,0.806703l-0.0271657 0.0165356 -0.963791 0.240948 -1.13742 0.106301c-0.336618,-0.460636 -0.732292,-0.805522 -1.17994,-1.02757l-0.00354335 -0.00354335c-0.450006,-0.224412 -0.979146,-0.337799 -1.58506,-0.337799 -0.360241,0 -0.699221,0.0460636 -1.0134,0.134647l-0.00354335 0c-0.311815,0.0885838 -0.608275,0.223231 -0.884657,0.399218l0.00118112 0.00118112c-0.276381,0.177168 -0.531503,0.402761 -0.759458,0.672056 -0.207877,0.245672 -0.396855,0.532684 -0.565755,0.858672l-2.29845 0.370871zm11.2572 -1.94648c0.217326,-0.466541 0.522054,-0.882294 0.903554,-1.24608 0.450006,-0.426383 0.996863,-0.744104 1.62994,-0.95198 0.594102,-0.192522 1.26734,-0.290555 2.01735,-0.290555 0.693316,0 1.32049,0.0720481 1.87679,0.214963 0.598826,0.153545 1.11261,0.388587 1.53663,0.703946l0.00354335 0.00354335c0.674418,0.504337 1.18112,1.23309 1.51537,2.1827 -1.02521,-0.139372 -2.47562,-0.968516 -2.47562,-0.968516l-0.872845 0.0661425 -0.198428 -0.0578747c-0.379139,-0.0968516 -0.842136,-0.146458 -1.38545,-0.146458 -0.542133,0 -1.01104,0.0649614 -1.4008,0.191341 -0.209058,0.0685048 -0.399218,0.157089 -0.566936,0.263389l-2.40239 -0.0755915 -0.180711 0.111025zm-8.28435 1.46695l1.31695 -0.212601 3.35319 -0.314177c-0.236223,-0.248035 -0.491345,-0.447643 -0.764183,-0.597645 -0.42284,-0.23268 -0.878751,-0.348429 -1.36773,-0.348429 -0.484258,0 -0.937807,0.118112 -1.3571,0.348429l-0.00354335 0.00472447c-0.394493,0.219688 -0.748828,0.537408 -1.05592,0.943712l0 0.00354335 -0.121655 0.172443zm11.3765 -1.52364l2.22759 -0.167719c-0.225593,-0.0484258 -0.467722,-0.0732292 -0.724025,-0.0732292 -0.361422,0 -0.690953,0.0295279 -0.980327,0.0874027l0 -0.00236223c-0.19016,0.0377957 -0.364965,0.0897649 -0.523235,0.155907z"
   id="path6037" />
  <path
   class="fil107"
   d="M40.0103 49.4593c0,-1.1256 0.225593,-2.15318 0.673237,-3.07799 0.447643,-0.924815 1.0323,-1.61577 1.7575,-2.07995 0.720481,-0.460636 1.53545,-0.694497 2.43901,-0.694497 1.51655,0 2.70712,0.595283 3.57642,1.78349 0.865759,1.19057 1.29923,2.5772 1.29923,4.16816 0,1.18348 -0.225593,2.25475 -0.67678,3.20791 -0.451187,0.955524 -1.04529,1.67246 -1.7764,2.14963 -0.737017,0.480715 -1.539,0.721662 -2.41184,0.721662 -1.40199,0 -2.56775,-0.532684 -3.49256,-1.60159 -0.924815,-1.07009 -1.38781,-2.59373 -1.38781,-4.57683zm2.55948 0.162994c0,1.16576 0.226774,2.04688 0.681504,2.64098 0.45473,0.596464 1.00631,0.891743 1.65002,0.891743 0.629535,0 1.16458,-0.298823 1.61341,-0.89883 0.447643,-0.598826 0.673237,-1.48348 0.673237,-2.65633 0,-1.13978 -0.230318,-2.00908 -0.683867,-2.61145 -0.455911,-0.598826 -0.999225,-0.89883 -1.63703,-0.89883 -0.627173,0 -1.16812,0.300004 -1.61931,0.89883 -0.451187,0.60237 -0.677961,1.47876 -0.677961,2.63389zm8.269 2.47208l2.50515 -0.466541c0.218507,1.20474 0.887019,1.81183 2.01617,1.81183 0.600007,0 1.04647,-0.118112 1.34293,-0.346067 0.29646,-0.233861 0.4441,-0.532684 0.4441,-0.900011 0,-0.255121 -0.0625992,-0.452368 -0.192522,-0.595283 -0.140553,-0.148821 -0.411029,-0.274019 -0.814971,-0.381501 -2.05278,-0.540952 -3.35437,-1.05828 -3.91304,-1.55081 -0.693316,-0.614181 -1.03938,-1.4575 -1.03938,-2.52641 0,-1.07009 0.340162,-1.92404 1.01694,-2.56657 0.681504,-0.64489 1.66774,-0.966154 2.95988,-0.966154 1.23663,0 2.17444,0.240948 2.81933,0.720481 0.643709,0.481896 1.0949,1.25789 1.35356,2.32798l-2.35278 0.52914c-0.206695,-0.925996 -0.798435,-1.38663 -1.77522,-1.38663 -0.614181,0 -1.05238,0.0874027 -1.3134,0.265751 -0.258665,0.177168 -0.389769,0.406304 -0.389769,0.68741 0,0.251578 0.118112,0.462998 0.35906,0.629535 0.237404,0.173624 0.977965,0.43347 2.2205,0.779537 1.39372,0.388587 2.34215,0.863396 2.84177,1.42206 0.491345,0.555125 0.734655,1.29332 0.734655,2.21814 0,1.11497 -0.379139,2.03152 -1.14214,2.75318 -0.76182,0.725206 -1.81656,1.08427 -3.15949,1.08427 -1.22127,0 -2.2205,-0.300004 -2.99413,-0.902373 -0.771269,-0.603551 -1.27915,-1.48348 -1.52718,-2.64098z"
   id="path6039" />
  <path
   class="fil108"
   d="M40.0103 49.4593c0,-1.1256 0.225593,-2.15318 0.673237,-3.07799 0.447643,-0.924815 1.0323,-1.61577 1.7575,-2.07995 0.720481,-0.460636 1.53545,-0.694497 2.43901,-0.694497 1.51655,0 2.70712,0.595283 3.57642,1.78349 0.865759,1.19057 1.29923,2.5772 1.29923,4.16816 0,1.18348 -0.225593,2.25475 -0.67678,3.20791 -0.451187,0.955524 -1.04529,1.67246 -1.7764,2.14963 -0.737017,0.480715 -1.539,0.721662 -2.41184,0.721662 -1.40199,0 -2.56775,-0.532684 -3.49256,-1.60159 -0.924815,-1.07009 -1.38781,-2.59373 -1.38781,-4.57683zm0.657882 -1.50829c-0.103938,0.477171 -0.157089,0.981508 -0.157089,1.50829 0,0.947256 0.108663,1.77758 0.323626,2.48625 0.555125,1.83427 2.08113,3.68154 4.07603,3.68154 1.689,0 3.00712,-1.57207 3.71697,-3.07327 0.416934,-0.882294 0.627173,-1.88388 0.627173,-2.99531 0,-0.746466 -0.101576,-1.44214 -0.301185,-2.08585 -0.20079,-0.642528 -0.501975,-1.24135 -0.89883,-1.78821l-0.00118112 0.00118112c-0.386225,-0.527959 -0.843317,-0.925996 -1.36419,-1.18466l-0.00236223 -0.00236223c-0.519691,-0.259846 -1.12442,-0.39095 -1.80711,-0.39095 -0.406304,0 -0.791348,0.0519691 -1.14923,0.153545l-0.00236223 0c-0.357878,0.101576 -0.699221,0.257483 -1.01812,0.460636 -0.320083,0.204333 -0.610637,0.461817 -0.870483,0.768907 -0.266932,0.315358 -0.503156,0.685048 -0.707489,1.10789 -0.204333,0.42284 -0.360241,0.875208 -0.464179,1.35238zm12.5128 3.79729c-0.00118112,-0.0248035 0.00118112,-0.0566936 -0.00472447,-0.0897649l0.167719 -0.030709c0.218507,1.20474 0.887019,1.81183 2.01617,1.81183 0.600007,0 1.04647,-0.118112 1.34293,-0.346067 0.29646,-0.233861 0.4441,-0.532684 0.4441,-0.900011 0,-0.35906 -0.131104,-0.613 -0.446462,-0.773632 0.244491,0.139372 0.304728,0.278744 0.947256,0.773632 0,0.255121 -0.0555125,0.498431 -0.165356,0.720481l0.00118112 0c-0.106301,0.213782 -0.265751,0.406304 -0.472447,0.570479l-0.00354335 0.00354335c-0.201971,0.155907 -0.451187,0.272838 -0.74056,0.348429l-0.00236223 0.00118112c-0.26457,0.0673237 -0.566936,0.102757 -0.904736,0.102757 -0.690953,0 -1.25198,-0.196065 -1.68427,-0.583472 -0.779537,-1.01812 -0.447643,-0.95198 -0.494888,-1.60868zm5.97999 0.0519691c0,-0.411029 -0.0531503,-0.777175 -0.157089,-1.09135 -0.100395,-0.304728 -0.251578,-0.571661 -0.450006,-0.796073l0.00118112 -0.00118112c-0.206695,-0.230318 -0.520873,-0.450006 -0.936626,-0.659063 -0.441738,-0.220869 -1.00041,-0.427564 -1.66537,-0.611819 -0.636622,-0.175986 -1.14568,-0.333075 -1.51892,-0.464179 -0.40158,-0.140553 -0.68741,-0.270476 -0.850404,-0.385044l0 0.00118112c-0.184254,-0.12638 -0.324807,-0.277562 -0.420478,-0.442919l-0.00118112 -0.00472447c-0.103938,-0.184254 -0.157089,-0.382682 -0.157089,-0.594102 0,-0.225593 0.0566936,-0.437013 0.165356,-0.628354 0.102757,-0.180711 0.251578,-0.340162 0.4441,-0.471266 0.184254,-0.12638 0.424021,-0.220869 0.709851,-0.277562 0.255121,-0.050788 0.552763,-0.0767726 0.884657,-0.0767726 0.600007,0 1.09726,0.152364 1.48348,0.453549 0.272838,0.212601 0.483077,0.494888 0.628354,0.84568l1.39136 -0.311815c-0.236223,-0.701583 -0.577566,-1.22127 -1.02521,-1.55671 -0.269295,-0.20079 -0.609456,-0.353154 -1.01458,-0.457092 -0.421659,-0.107482 -0.925996,-0.162994 -1.50829,-0.162994 -0.595283,0 -1.11616,0.0732292 -1.55435,0.214963 -0.421659,0.138191 -0.778356,0.343705 -1.06182,0.611819 -0.282287,0.268114 -0.498431,0.585834 -0.640165,0.946075l-0.00236223 0c-0.144096,0.362603 -0.217326,0.784262 -0.217326,1.25907 0,0.36969 0.235042,2.18034 0.45473,2.41538 -0.120474,0.12638 0.00826782,-0.152364 -0.0377957,-0.00236223 -0.611819,-0.603551 -0.917728,-1.40789 -0.917728,-2.41302 0,-1.07009 0.340162,-1.92404 1.01694,-2.56657 0.681504,-0.64489 1.66774,-0.966154 2.95988,-0.966154 1.23663,0 2.17444,0.240948 2.81933,0.720481 0.643709,0.481896 1.0949,1.25789 1.35356,2.32798l-2.35278 0.527959c-0.206695,-0.924815 -0.798435,-1.38545 -1.77522,-1.38545 -0.614181,0 -1.05238,0.0874027 -1.3134,0.265751 -0.258665,0.177168 -0.389769,0.406304 -0.389769,0.68741 0,0.251578 0.118112,0.462998 0.35906,0.629535 0.237404,0.173624 0.977965,0.43347 2.2205,0.779537 1.39372,0.388587 2.34215,0.863396 2.84177,1.42206 0.491345,0.555125 0.734655,1.29332 0.734655,2.21814 0,0.871664 -0.231499,1.62049 -0.696859,2.25121 -0.0956705,-0.942531 0.196065,-1.13623 0.196065,-2.25121z"
   id="path6041" />
 </g>
</svg>