<?xml version="1.0" encoding="UTF-8"?>
<!DOCTYPE svg PUBLIC "-//W3C//DTD SVG 1.1//EN" "http://www.w3.org/Graphics/SVG/1.1/DTD/svg11.dtd">
<!-- Creator: CorelDRAW -->
<svg xmlns="http://www.w3.org/2000/svg" xml:space="preserve" width="64px" height="64px" style="shape-rendering:geometricPrecision; text-rendering:geometricPrecision; image-rendering:optimizeQuality; fill-rule:evenodd; clip-rule:evenodd"
viewBox="0 0 64 64"
 xmlns:xlink="http://www.w3.org/1999/xlink">
 <defs>
  <style type="text/css">
   <![CDATA[
    .fil39 {fill:#999999}
    .fil42 {fill:#B2B2B2}
    .fil15 {fill:#E5E5E5}
    .fil41 {fill:white}
    .fil19 {fill:#91CAFA}
    .fil40 {fill:#8A8787}
    .fil17 {fill:#8C8C8C}
    .fil51 {fill:#7EC1F7;fill-rule:nonzero}
    .fil27 {fill:#A1D5FF;fill-rule:nonzero}
    .fil26 {fill:#CFEDFF;fill-rule:nonzero}
    .fil16 {fill:#8C8C8C;fill-rule:nonzero}
    .fil59 {fill:#F2F2F2;fill-rule:nonzero}
    .fil0 {fill:black;fill-opacity:0.000000}
    .fil30 {fill:#3C6A8C;fill-opacity:0.000000}
    .fil43 {fill:#76B5EA;fill-opacity:0.000000}
    .fil1 {fill:black;fill-opacity:0.003922}
    .fil2 {fill:black;fill-opacity:0.007843}
    .fil3 {fill:black;fill-opacity:0.015686}
    .fil4 {fill:black;fill-opacity:0.019608}
    .fil5 {fill:black;fill-opacity:0.023529}
    .fil6 {fill:black;fill-opacity:0.027451}
    .fil31 {fill:#3C6A8C;fill-opacity:0.031373}
    .fil7 {fill:black;fill-opacity:0.031373}
    .fil8 {fill:black;fill-opacity:0.035294}
    .fil9 {fill:black;fill-opacity:0.043137}
    .fil10 {fill:black;fill-opacity:0.047059}
    .fil11 {fill:black;fill-opacity:0.050980}
    .fil12 {fill:black;fill-opacity:0.054902}
    .fil44 {fill:#76B5EA;fill-opacity:0.054902}
    .fil13 {fill:black;fill-opacity:0.058824}
    .fil32 {fill:#3C6A8C;fill-opacity:0.062745}
    .fil33 {fill:#3C6A8C;fill-opacity:0.094118}
    .fil45 {fill:#76B5EA;fill-opacity:0.109804}
    .fil34 {fill:#3C6A8C;fill-opacity:0.125490}
    .fil35 {fill:#3C6A8C;fill-opacity:0.156863}
    .fil46 {fill:#76B5EA;fill-opacity:0.164706}
    .fil36 {fill:#3C6A8C;fill-opacity:0.188235}
    .fil37 {fill:#3C6A8C;fill-opacity:0.219608}
    .fil54 {fill:#5A93C4;fill-rule:nonzero;fill-opacity:0.219608}
    .fil47 {fill:#76B5EA;fill-opacity:0.223529}
    .fil48 {fill:#76B5EA;fill-opacity:0.278431}
    .fil49 {fill:#76B5EA;fill-opacity:0.333333}
    .fil57 {fill:#A3A3A3;fill-opacity:0.439216}
    .fil60 {fill:#B2B2B2;fill-rule:nonzero;fill-opacity:0.439216}
    .fil23 {fill:#B0E2FC;fill-rule:nonzero;fill-opacity:0.439216}
    .fil18 {fill:#7F7F7F;fill-opacity:0.501961}
    .fil28 {fill:#E1E0FF;fill-rule:nonzero;fill-opacity:0.501961}
    .fil52 {fill:#7EC1F7;fill-rule:nonzero;fill-opacity:0.639216}
    .fil14 {fill:url(#id0)}
    .fil22 {fill:url(#id1)}
    .fil56 {fill:url(#id2)}
    .fil38 {fill:url(#id3)}
    .fil50 {fill:url(#id4);fill-rule:nonzero}
    .fil29 {fill:url(#id5);fill-rule:nonzero}
    .fil53 {fill:url(#id6);fill-rule:nonzero}
    .fil58 {fill:url(#id7);fill-opacity:0.439216}
    .fil20 {fill:url(#id8);fill-opacity:0.439216}
    .fil21 {fill:url(#id9);fill-opacity:0.439216}
    .fil55 {fill:url(#id10);fill-rule:nonzero;fill-opacity:0.439216}
    .fil25 {fill:url(#id11);fill-rule:nonzero;fill-opacity:0.501961}
    .fil24 {fill:url(#id12);fill-rule:nonzero;fill-opacity:0.780392}
   ]]>
  </style>
  <linearGradient id="id0" gradientUnits="userSpaceOnUse" x1="31.2382" y1="60.8452" x2="32.4252" y2="1.17994">
   <stop offset="0" style="stop-color:#999999"/>
   <stop offset="1" style="stop-color:#B2B2B2"/>
  </linearGradient>
  <linearGradient id="id1" gradientUnits="userSpaceOnUse" x1="31.8571" y1="59.4078" x2="31.8571" y2="5.70479">
   <stop offset="0" style="stop-color:#6AA2DE"/>
   <stop offset="1" style="stop-color:#84C5FA"/>
  </linearGradient>
  <linearGradient id="id2" gradientUnits="userSpaceOnUse" x1="36.7694" y1="37.5028" x2="35.8859" y2="10.3537">
   <stop offset="0" style="stop-color:#F3F3F3"/>
   <stop offset="1" style="stop-color:white"/>
  </linearGradient>
  <linearGradient id="id3" gradientUnits="userSpaceOnUse" x1="31.9256" y1="56.7952" x2="31.713" y2="58.8019">
   <stop offset="0" style="stop-color:#C4C4C4"/>
   <stop offset="1" style="stop-color:#D4D4D4"/>
  </linearGradient>
  <linearGradient id="id4" gradientUnits="userSpaceOnUse" x1="31.9091" y1="62.0453" x2="31.7555" y2="53.8081">
   <stop offset="0" style="stop-color:#7F7F7F"/>
   <stop offset="1" style="stop-color:#8F8F8F"/>
  </linearGradient>
  <linearGradient id="id5" gradientUnits="userSpaceOnUse" x1="31.9811" y1="47.4561" x2="31.9811" y2="15.5919">
   <stop offset="0" style="stop-color:#4E87B4"/>
   <stop offset="1" style="stop-color:#66A1D1"/>
  </linearGradient>
  <linearGradient id="id6" gradientUnits="userSpaceOnUse" x1="32.0709" y1="19.5522" x2="40.8962" y2="27.7846">
   <stop offset="0" style="stop-color:#B0E2FC"/>
   <stop offset="1" style="stop-color:#78B7EB"/>
  </linearGradient>
  <linearGradient id="id7" gradientUnits="userSpaceOnUse" x1="39.6702" y1="11.9021" x2="39.0135" y2="33.6394">
   <stop offset="0" style="stop-color:#999999"/>
   <stop offset="1" style="stop-color:#CCCCCC"/>
  </linearGradient>
  <linearGradient id="id8" gradientUnits="userSpaceOnUse" xlink:href="#id5" x1="6.4489" y1="5.91503" x2="6.4489" y2="2.89374">
  </linearGradient>
  <linearGradient id="id9" gradientUnits="userSpaceOnUse" xlink:href="#id5" x1="58.3826" y1="6.14063" x2="58.3826" y2="3.09807">
  </linearGradient>
  <linearGradient id="id10" gradientUnits="userSpaceOnUse" x1="34.8866" y1="14.3081" x2="45.0112" y2="23.0932">
   <stop offset="0" style="stop-color:#5A93C4"/>
   <stop offset="1" style="stop-color:#76B5EA"/>
  </linearGradient>
  <linearGradient id="id11" gradientUnits="userSpaceOnUse" x1="20.1239" y1="8.81113" x2="20.1239" y2="59.07">
   <stop offset="0" style="stop-color:#BBE6FF"/>
   <stop offset="1" style="stop-color:#84C5FA"/>
  </linearGradient>
  <linearGradient id="id12" gradientUnits="userSpaceOnUse" x1="19.1317" y1="45.6773" x2="19.6372" y2="49.8703">
   <stop offset="0" style="stop-color:#63A3DB"/>
   <stop offset="1" style="stop-color:#5C96D2"/>
  </linearGradient>
 </defs>
 <g id="Слой_x0020_1">
  <metadata id="CorelCorpID_0Corel-Layer"/>
  <g id="_112181520">
   <path id="_62216056" class="fil0" d="M31.0622 54.0042c16.1518,-0.93072 21.5731,1.60868 23.2609,4.55557l0 4.05123c-2.59964,1.84609 -12.084,0.383863 -22.4731,0.937807 -1.62876,0.0874027 -3.22209,0.172443 -4.76344,0.248035l-14.4167 0c-1.42206,-0.198428 -2.45318,-0.513786 -2.99295,-0.985051l0 -3.08272c1.17521,-2.35751 5.51582,-4.81069 21.3853,-5.72487z"/>
   <g>
    <path id="_60480824" class="fil1" d="M31.1106 54.4707c16.3585,-0.908279 21.7278,1.83782 23.2125,4.81541l0 3.15713c-2.25475,1.9453 -11.9116,0.504337 -22.453,1.03112 -2.38349,0.119293 -4.69848,0.233861 -6.87882,0.322445l-11.2112 0c-2.11774,-0.19016 -3.56934,-0.564574 -4.1032,-1.21183l0 -2.0764c0.865759,-2.41302 4.80124,-5.11424 21.4337,-6.03787z"/>
    <path id="_60564160" class="fil2" d="M31.159 54.9373c16.616,-0.885838 21.9617,2.10357 23.1641,5.08825l0 2.21814c-1.78939,2.07995 -11.6777,0.656701 -22.4341,1.15513 -3.57997,0.166537 -7.01347,0.324807 -10.0667,0.398036l-5.99181 0c-3.55752,-0.131104 -5.87251,-0.571661 -6.15362,-1.57443l0 -0.688591c0.314177,-2.46381 3.41815,-5.63393 21.4822,-6.59654z"/>
    <path id="_61003496" class="fil3" d="M31.2063 55.4038c17.1179,-0.869302 22.4211,2.48271 23.1168,5.46975l0 1.07364c-1.00277,2.34806 -11.2738,0.901192 -22.4152,1.37836 -11.7698,0.503156 -22.0597,0.911822 -22.0597,-1.28269 0,-2.36578 3.00122,-5.70716 21.3581,-6.63906z"/>
    <path id="_58447496" class="fil4" d="M31.2535 55.8692c17.4664,-0.838593 22.8818,2.8335 22.9444,5.7296 0.0637803,2.67051 -10.6678,1.19883 -22.2723,1.65002 -11.6033,0.453549 -21.8766,0.81379 -21.8766,-1.17285 0,-2.21696 3.73942,-5.36818 21.2046,-6.20677z"/>
    <path id="_60737080" class="fil5" d="M31.3008 56.3369c16.5734,-0.744104 22.6337,2.67641 22.6916,5.34928 0.0555125,2.3894 -10.6088,1.08781 -22.0479,1.49057 -11.4391,0.402761 -21.6959,0.715757 -21.6959,-1.06537 0,-2.06932 4.47998,-5.02801 21.0522,-5.77448z"/>
    <path id="_47486584" class="fil6" d="M31.3492 56.8058c15.6805,-0.653158 22.3869,2.51814 22.4365,4.9666 0.0496069,2.10829 -10.5474,0.977965 -21.8223,1.33112 -11.2749,0.353154 -21.5152,0.617724 -21.5152,-0.957886 0,-1.92168 5.21936,-4.68785 20.901,-5.33983z"/>
    <path id="_61135072" class="fil7" d="M31.3964 57.27c14.7899,-0.558668 22.14,2.35987 22.1814,4.5851 0.0437013,1.82837 -10.486,0.870483 -21.5955,1.17167 -11.1108,0.302366 -21.3333,0.51851 -21.3333,-0.849223 0,-1.77286 5.95755,-4.34887 20.7475,-4.90754z"/>
    <path id="_61760880" class="fil8" d="M31.4437 57.7389c13.8982,-0.466541 21.8932,2.2016 21.9286,4.2036 0.0342524,1.54726 -10.4269,0.759458 -21.3723,1.01222 -10.9442,0.251578 -21.1514,0.420478 -21.1514,-0.742923 0,-1.62522 6.69693,-4.00753 20.5951,-4.47289z"/>
    <path id="_60593416" class="fil9" d="M31.4909 58.2043c13.0065,-0.370871 21.6463,2.04688 21.6747,3.82564 0.0271657,1.26498 -10.3655,0.649614 -21.1467,0.851585 -10.7801,0.20079 -20.9695,0.322445 -20.9695,-0.635441 0,-1.4764 7.43631,-3.66737 20.4416,-4.04178z"/>
    <path id="_107738384" class="fil10" d="M31.5394 58.6708c12.1135,-0.278744 21.3983,1.88861 21.4196,3.44177 0.0212601,0.987414 -10.3052,0.542133 -20.9223,0.693316 -10.6147,0.151183 -20.7877,0.224412 -20.7877,-0.527959 0,-1.32639 8.17451,-3.32721 20.2904,-3.60713z"/>
    <path id="_46786840" class="fil11" d="M31.5866 59.1373c11.2218,-0.185435 21.1514,1.7327 21.1656,3.06145 0.0141734,0.705127 -10.2438,0.431108 -20.6955,0.533865 -10.4517,0.0992138 -20.6069,0.125198 -20.6069,-0.420478 0,-1.17875 8.91389,-2.98704 20.1369,-3.17484z"/>
    <path id="_61086280" class="fil12" d="M31.6339 59.6039c10.3312,-0.0933082 20.9046,1.57443 20.9117,2.67995 0.0070867,0.424021 -10.1836,0.322445 -20.4711,0.370871 -10.2852,0.050788 -20.4251,0.0295279 -20.4251,-0.309453 0,-1.03112 9.65327,-2.64806 19.9845,-2.74137z"/>
   </g>
   <path id="_59574048" class="fil13" d="M31.6799 60.0728c9.43949,0 20.6577,1.41734 20.6577,2.29963 0,0.287011 -40.4899,0.276381 -40.4899,0.00826782 0,-0.883475 10.3926,-2.3079 19.8321,-2.3079z"/>
  </g>
  <g id="_58078456">
   <path id="_56836392" class="fil0" d="M30.6512 52.8963c21.4869,-0.959067 28.6988,1.65829 30.9441,4.69494l0 4.17407c-3.45831,1.90278 -16.075,0.395674 -29.8964,0.967335 -2.16735,0.0897649 -4.28745,0.177168 -6.33787,0.255121l-19.1766 0c-1.89215,-0.204333 -3.26461,-0.52914 -3.98273,-1.01458l0 -3.1772c1.5638,-2.42956 7.33828,-4.95715 28.4496,-5.89968z"/>
   <g>
    <path id="_59812592" class="fil1" d="M30.7161 53.377c21.7621,-0.935445 28.9043,1.89451 30.8791,4.96187l0 3.25398c-2.99886,2.00436 -15.8459,0.519691 -29.8693,1.06301 -3.1713,0.122836 -6.25047,0.240948 -9.15129,0.331894l-14.9151 0c-2.81578,-0.196065 -4.74691,-0.582291 -5.45794,-1.24844l0 -2.14018c1.15159,-2.48625 6.3863,-5.27014 28.5145,-6.22212z"/>
    <path id="_57121424" class="fil2" d="M30.7799 53.8577c22.1046,-0.913003 29.2161,2.16735 30.8153,5.24416l0 2.28546c-2.37995,2.14373 -15.5352,0.67678 -29.8456,1.19057 -4.76226,0.171262 -9.32846,0.334256 -13.3903,0.409848l-7.97136 0c-4.73274,-0.134647 -7.81309,-0.589377 -8.18632,-1.62285l0 -0.70867c0.418115,-2.5394 4.5473,-5.80637 28.5783,-6.79851z"/>
    <path id="_62685696" class="fil3" d="M30.8425 54.3385c22.7731,-0.895287 29.8279,2.5583 30.7527,5.63629l0 1.10671c-1.33348,2.42011 -14.9978,0.928358 -29.8197,1.42088 -15.6569,0.51851 -29.3448,0.938988 -29.3448,-1.32167 0,-2.43783 3.99218,-5.88196 28.4118,-6.84221z"/>
    <path id="_61607328" class="fil4" d="M30.9063 54.818c23.2338,-0.863396 30.4386,2.91972 30.5236,5.9044 0.0838593,2.752 -14.1935,1.23545 -29.6307,1.70081 -15.436,0.467722 -29.1027,0.838593 -29.1027,-1.20828 0,-2.28546 4.97486,-5.53235 28.2098,-6.39693z"/>
    <path id="_60681488" class="fil5" d="M30.9689 55.2999c22.0479,-0.766545 30.1102,2.75791 30.1858,5.51227 0.0744104,2.46263 -14.1132,1.12206 -29.3295,1.53663 -15.2187,0.414572 -28.863,0.737017 -28.863,-1.09844 0,-2.13192 5.95873,-5.18038 28.0066,-5.95047z"/>
    <path id="_46251104" class="fil6" d="M31.0327 55.783c20.8609,-0.672056 29.7819,2.59491 29.8468,5.11896 0.0661425,2.17207 -14.0305,1.00749 -29.0307,1.37128 -14.9978,0.363784 -28.6208,0.636622 -28.6208,-0.987414 0,-1.97955 6.94261,-4.83077 27.8047,-5.50282z"/>
    <path id="_59714504" class="fil7" d="M31.0953 56.2613c19.675,-0.575204 29.4523,2.43192 29.509,4.72565 0.0566936,1.88388 -13.9502,0.896468 -28.7295,1.2071 -14.7805,0.311815 -28.3799,0.535046 -28.3799,-0.875208 0,-1.82719 7.92529,-4.48116 27.6003,-5.05754z"/>
    <path id="_106627904" class="fil8" d="M31.159 56.7444c18.488,-0.480715 29.124,2.26893 29.1712,4.33234 0.0460636,1.59451 -13.871,0.783081 -28.4318,1.04293 -14.5596,0.259846 -28.1377,0.43347 -28.1377,-0.765364 0,-1.67482 8.90916,-4.13037 27.3984,-4.6099z"/>
    <path id="_60331640" class="fil9" d="M31.2216 57.2251c17.301,-0.382682 28.7956,2.10829 28.8334,3.94139 0.0366146,1.30395 -13.7895,0.669693 -28.1318,0.87757 -14.3411,0.207877 -27.8968,0.333075 -27.8968,-0.654339 0,-1.52128 9.89304,-3.77957 27.1952,-4.16462z"/>
    <path id="_59340624" class="fil10" d="M31.2854 57.7058c16.1163,-0.288193 28.4673,1.9453 28.4956,3.54689 0.0271657,1.01694 -13.7092,0.557487 -27.833,0.713395 -14.1214,0.155907 -27.6559,0.231499 -27.6559,-0.543314 0,-1.36773 10.8757,-3.42878 26.9932,-3.71697z"/>
    <path id="_107739696" class="fil11" d="M31.348 58.1865c14.9293,-0.191341 28.1389,1.78467 28.1566,3.15476 0.0188979,0.726387 -13.6265,0.4441 -27.5318,0.549219 -13.9029,0.102757 -27.4125,0.129923 -27.4125,-0.432289 0,-1.21537 11.8584,-3.07917 26.7877,-3.27169z"/>
    <path id="_61275864" class="fil12" d="M31.4118 58.6673c13.7435,-0.0968516 27.8094,1.62167 27.8188,2.76145 0.00944894,0.437013 -13.5486,0.331894 -27.233,0.382682 -13.6832,0.0519691 -27.1716,0.0295279 -27.1716,-0.320083 0,-1.06182 12.8411,-2.72838 26.5858,-2.82405z"/>
   </g>
   <path id="_46525072" class="fil13" d="M31.472 59.1503c12.5576,0 27.4822,1.45986 27.4822,2.36932 0,0.29646 -53.8648,0.284649 -53.8648,0.00826782 0,-0.90946 13.8262,-2.37759 26.3826,-2.37759z"/>
  </g>
  <path class="fil14" d="M12.6285 0.337799l38.4076 0c0.869302,0 1.58033,0.711032 1.58033,1.58033l0 58.1889c0,0.869302 -0.712213,1.58033 -1.58033,1.58033l-38.4076 0c-0.869302,0 -1.58033,-0.711032 -1.58033,-1.58033l0 -58.1889c0,-0.869302 0.711032,-1.58033 1.58033,-1.58033z"/>
  <path class="fil15" d="M12.7053 0.949618l38.4076 0c0.869302,0 1.58033,0.711032 1.58033,1.58033l0 0.746466 -0.00118112 -0.00354335c-0.102757,-0.771269 -0.767726,-1.37364 -1.56734,-1.37364l-38.4076 0c-0.869302,0 -1.58033,0.711032 -1.58033,1.58033l0 57.433c-0.00826782,-0.0637803 -0.0118112,-0.128742 -0.0118112,-0.193703l0 -58.1889c0,-0.870483 0.711032,-1.58033 1.58033,-1.58033z"/>
  <path class="fil16" d="M13.0324 -0.0614181l38.0036 0c0.571661,0 1.09371,0.236223 1.46931,0.611819 0.375595,0.375595 0.611819,0.897649 0.611819,1.46931l0 58.1889c0,0.570479 -0.236223,1.09017 -0.611819,1.46813l-0.00118112 0.00118112c-0.377957,0.375595 -0.897649,0.611819 -1.46813,0.611819l-38.4076 0c-0.571661,0 -1.09371,-0.236223 -1.46931,-0.611819 -0.375595,-0.375595 -0.611819,-0.897649 -0.611819,-1.46931l0.403942 -58.1889c0,-0.571661 0.236223,-1.09371 0.611819,-1.46931 0.375595,-0.375595 0.897649,-0.611819 1.46931,-0.611819zm38.0036 1.00159l-38.0036 0c-0.297641,0 -0.569298,0.122836 -0.763002,0.316539 -0.193703,0.193703 -0.316539,0.46536 -0.316539,0.763002l-0.403942 58.1889c0,0.297641 0.122836,0.569298 0.316539,0.763002 0.193703,0.193703 0.46536,0.316539 0.763002,0.316539l38.4076 0c0.297641,0 0.568117,-0.121655 0.763002,-0.315358l0.00118112 -0.00118112c0.193703,-0.194884 0.315358,-0.46536 0.315358,-0.763002l0 -58.1889c0,-0.297641 -0.122836,-0.569298 -0.316539,-0.763002 -0.193703,-0.193703 -0.46536,-0.316539 -0.763002,-0.316539z"/>
  <path class="fil17" d="M52.6164 44.8458l0 15.2612c0,0.869302 -0.712213,1.58033 -1.58033,1.58033l-38.4076 0c-0.869302,0 -1.58033,-0.711032 -1.58033,-1.58033l0 -15.2612 41.5682 0z"/>
  <path class="fil18" d="M11.0482 2.26774l41.5682 0.0106301 0 56.5684c-15.0427,-0.00118112 -13.9785,-0.0118112 -41.5682,-0.0129923l0 -56.5661z"/>
  <path class="fil19" d="M58.9649 16.3325l0.0826782 0.506699 -54.8274 -0.0129923 0 -11.1757c0,-0.674418 0.265751,-1.29332 0.706308,-1.77522 0.564574,-0.686229 1.4197,-1.1256 2.37286,-1.1256l48.7022 0.0129923c1.69018,0 3.1902,1.39136 3.1713,3.07327l-0.122836 10.4966 -0.0850404 0z"/>
  <path class="fil20" d="M4.22013 6.3922l0 -0.0153545 0 -0.726387c0,-0.674418 0.265751,-1.29332 0.706308,-1.77522 0.448824,-0.544495 1.07954,-0.933082 1.79648,-1.07009l0.255121 2.87956 0.450006 0.090946c-0.441738,0.830325 -2.75909,1.32758 -3.13823,0.715757 -0.379139,-0.611819 -0.0437013,-0.0661425 -0.0696859,-0.0992138z"/>
  <path class="fil21" d="M57.2168 3.0083l-0.26457 2.65397 -0.450006 0.0897649c0.364965,0.686229 1.76577,1.54018 2.65751,1.1445l0.0129923 -1.06064c0.0141734,-1.26025 -0.82442,-2.35633 -1.95593,-2.82759z"/>
  <path class="fil22" d="M4.22604 14.3447l-0.00472447 -6.85756c0,-0.674418 0.265751,-1.2945 0.705127,-1.7764 0.564574,-0.685048 1.42088,-1.12442 2.37286,-1.12442l48.903 0.0129923c1.69018,0 3.17012,1.34884 3.14886,3.02366 -0.0318902,2.32562 0.140553,4.67604 0.142915,6.94261l-0.128742 42.8852c-0.00354335,1.67482 -1.3571,3.07563 -3.00949,3.07563 -19.8191,0 -15.2506,-0.0129923 -49.0541,-0.0129923 -1.6512,0 -3.0083,-1.38427 -3.0083,-3.07563l-0.0720481 -42.8852c0,-0.0696859 0.00118112,-0.139372 0.00472447,-0.207877z"/>
  <path class="fil23" d="M13.8533 49.001c-0.5504,0 -1.04293,-0.24331 -1.39254,-0.631898 -0.302366,-0.336618 -0.498431,-0.788986 -0.524416,-1.28033l26.6283 0c-0.0259846,0.491345 -0.22205,0.943712 -0.524416,1.28033 -0.349611,0.388587 -0.842136,0.631898 -1.39254,0.631898l-22.7944 0zm0 -3.90005c-0.5504,0 -1.04293,-0.24331 -1.39254,-0.631898 -0.324807,-0.361422 -0.526778,-0.85631 -0.526778,-1.39136 0,-0.0814971 0.00472447,-0.162994 0.0141734,-0.242129l39.8863 0c0.00944894,0.0791348 0.0141734,0.160632 0.0141734,0.242129 0,0.535046 -0.201971,1.02993 -0.526778,1.39136 -0.349611,0.388587 -0.842136,0.631898 -1.39254,0.631898l-36.076 0zm0.0791348 -2.02325l0.00236223 0.0248035 35.913 0 0.00236223 -0.0248035 -0.00236223 -0.0248035 -35.913 0 -0.00236223 0.0248035z"/>
  <path class="fil24" d="M11.9364 47.0888l-0.00236223 -0.111025c0,-0.533865 0.201971,-1.02875 0.526778,-1.39136 0.349611,-0.388587 0.842136,-0.631898 1.39254,-0.631898l22.7944 0c0.5504,0 1.04293,0.24331 1.39254,0.631898 0.324807,0.362603 0.526778,0.857491 0.526778,1.39136l-0.00236223 0.111025 -26.6283 0zm0.0118112 -4.2532c0.050788,-0.440557 0.237404,-0.842136 0.512605,-1.14923 0.349611,-0.388587 0.842136,-0.631898 1.39254,-0.631898l36.076 0c0.5504,0 1.04293,0.24331 1.39254,0.631898 0.2752,0.30709 0.461817,0.70867 0.512605,1.14923l-39.8863 0zm1.98428 4.14218l0.00236223 0.0248035 22.6314 0 0.00236223 -0.0248035 -0.00236223 -0.0248035 -22.6314 0 -0.00236223 0.0248035z"/>
  <path class="fil25" d="M58.9141 7.39497l0 0.00590558 -0.0377957 49.9955c0.0259846,0.15827 0.0389769,0.315358 0.0389769,0.46536 0,0.790167 -0.340162,1.50711 -0.874027,2.05751 -0.0732292,0.0755915 -0.151183,0.14764 -0.23268,0.217326 -0.432289,0.248035 -0.927177,0.389769 -1.45277,0.389769 -17.516,0 -15.9864,-0.0106301 -38.7312,-0.0129923 9.55878,-0.151183 15.8754,-0.492526 21.7644,-0.490164l16.0313 0.00472447 0 -0.00236223c0.154726,0 0.309453,-0.0141734 0.457092,-0.040158l0 0.00236223c0.553944,-0.0992138 1.07127,-0.375595 1.44805,-0.763002 0.35906,-0.36969 0.588196,-0.846861 0.588196,-1.36301 0,-0.108663 -0.00944894,-0.218507 -0.0283468,-0.324807l-0.00590558 -0.0862215 0.0377957 -50.0557 0 -0.00590558c0.00472447,-0.659063 -0.105119,-1.67364 -0.370871,-2.49452 0.501975,0.230318 0.936626,0.584653 1.25435,1.02285 0.0814971,0.526778 0.118112,1.04175 0.113387,1.47758zm-53.2814 52.5963c-0.375595,-0.568117 -0.595283,-1.24962 -0.595283,-1.98073l0.00236223 0c-0.0283468,-17.2703 -0.0755915,-34.752 -0.0755915,-52.0152 0,-0.119293 0.0070867,-0.237404 0.0212601,-0.354335 0.373233,-0.427564 0.864578,-0.75119 1.4197,-0.921271 -0.124017,0.160632 -0.224412,0.335437 -0.29646,0.517329 -0.0921271,0.23268 -0.142915,0.488982 -0.142915,0.758277 0,17.2597 0.0425202,34.752 0.070867,52.0152l0.00236223 0c0,0.711032 0.284649,1.3571 0.739379,1.82128l0.00236223 0.00236223c0.318902,0.327169 0.724025,0.566936 1.17757,0.679142l-0.656701 0c-0.615362,0 -1.18938,-0.192522 -1.66892,-0.522054z"/>
  <path class="fil26" d="M6.69575 4.29218c0.341343,-0.133466 0.713395,-0.206695 1.10907,-0.206695l0 0.00236223 48.2203 0.0129923 0 -0.00236223 0.040158 0 0.00590558 0.00236223c0.381501,0.00472447 0.725206,0.060237 1.03112,0.161813l0 1.06301c-0.323626,-0.142915 -0.675599,-0.223231 -1.03702,-0.227956l0 0.00236223 -0.040158 0 0 -0.00236223 -48.2203 -0.0129923 0 0.00236223c-0.343705,0 -0.72993,0.0862215 -1.10907,0.239767l0 -1.03466z"/>
  <path class="fil27" d="M57.1023 4.26265c1.20592,0.40158 1.81538,1.52364 1.81538,3.0709l0 0.0354335 -0.269295 0.25394 0 -0.0354335c0,-1.02167 -0.662607,-1.87325 -1.54608,-2.26184l0 -1.06301z"/>
  <path class="fil27" d="M4.65596 7.5119c0,-1.47758 0.816152,-2.74019 2.03979,-3.21972l0 1.03466c-1.02167,0.411029 -1.99845,1.29923 -1.99845,2.26184l-0.0413391 -0.0767726z"/>
  <path class="fil28" d="M58.9673 57.7507c-0.337799,1.31813 -1.5201,2.30672 -2.91145,2.30672 -19.8191,0 -15.2506,-0.0129923 -49.0541,-0.0129923 -1.39372,0 -2.57602,-0.982689 -2.91263,-2.30554l0.0413391 0.00826782 -0.0413391 -0.142915 0.121655 0.0248035c0.115749,0.340162 0.304728,0.64489 0.548038,0.892924 0.413391,0.420478 1.52246,0.656701 2.14491,0.656701l49.053 0.0118112c0.621267,0 1.92876,-0.312996 2.34097,-0.734655 0.242129,-0.246853 0.431108,-0.353154 0.546857,-0.690953l0.122836 -0.148821 -0.0614181 0.209058 0.0614181 -0.0744104z"/>
  <path class="fil29" d="M59.9748 7.39497l0 0.00590558 -0.0377957 49.9955c0.0259846,0.15827 0.0389769,0.315358 0.0389769,0.46536 0,0.790167 -0.340162,1.50711 -0.874027,2.05751 -0.517329,0.532684 -1.22718,0.911822 -1.989,1.04883l0 0.00236223c-0.207877,0.0366146 -0.421659,0.0566936 -0.631898,0.0566936l0 -0.00236223 -17.0919 -0.00472447c-4.20832,-0.00236223 -8.53003,-0.00590558 -31.8346,-0.00590558 -0.963791,0 -1.84372,-0.406304 -2.48153,-1.05828 -0.633079,-0.647252 -1.02757,-1.539 -1.02757,-2.51814l0.00236223 0c-0.0283468,-17.2703 -0.0755915,-34.752 -0.0755915,-52.0152 0,-0.389769 0.0779537,-0.771269 0.218507,-1.12679 0.145277,-0.364965 0.357878,-0.699221 0.618905,-0.985051 0.331894,-0.395674 0.750009,-0.722844 1.22127,-0.946075 0.462998,-0.219688 0.980327,-0.343705 1.52128,-0.343705l0 0.00236223 48.5746 0.0129923 0 -0.00236223 0.0342524 0 0.00354335 0.00236223c0.960248,0.0106301 1.86853,0.411029 2.53231,1.04529l0.00118112 -0.00118112c0.924815,0.882294 1.29096,2.97405 1.27679,4.31462zm-1.9642 -3.59178l0 -0.00236223c-0.485439,-0.464179 -1.15041,-0.759458 -1.84963,-0.767726l0 0.00236223 -0.0342524 0 0 -0.00236223 -48.5746 -0.0129923 0 0.00236223c-0.394493,0 -0.766545,0.0885838 -1.09608,0.244491 -0.344886,0.162994 -0.650795,0.405123 -0.891743,0.696859l-0.0153545 0.020079c-0.185435,0.203152 -0.335437,0.434651 -0.432289,0.680323 -0.0921271,0.23268 -0.142915,0.488982 -0.142915,0.758277 0,17.2597 0.0425202,34.752 0.070867,52.0152l0.00236223 0c0,0.711032 0.284649,1.3571 0.739379,1.82128l0.00236223 0.00236223c0.452368,0.462998 1.07954,0.75119 1.76577,0.75119 14.9836,0 24.259,0.0070867 31.8346,0.0106301l17.0919 0.00472447 0 -0.00236223c0.154726,0 0.309453,-0.0141734 0.457092,-0.040158l0 0.00236223c0.553944,-0.0992138 1.07127,-0.375595 1.44805,-0.763002 0.35906,-0.36969 0.588196,-0.846861 0.588196,-1.36301 0,-0.108663 -0.00944894,-0.218507 -0.0283468,-0.324807l-0.00590558 -0.0862215 0.0377957 -50.0557 0 -0.00590558c0.0070867,-1.02521 -0.261027,-2.91145 -0.967335,-3.58587z"/>
  <g id="_63537264">
   <path id="_62200976" class="fil30" d="M15.5896 52.6495l32.6662 0.105119c1.13269,0.00354335 1.69726,0.759458 2.05987,1.58033l3.16657 5.58432c0.167719,0.295279 0.0826782,0.590558 -0.150002,0.843317 -15.9026,-0.00118112 -14.2136,-0.0129923 -43.0056,-0.0129923 -0.223231,-0.251578 -0.302366,-0.53977 -0.132285,-0.830325l3.33547 -5.68944c0.464179,-0.792529 0.925996,-1.58388 2.05987,-1.58033z"/>
   <g>
    <path id="_56210560" class="fil31" d="M15.8163 52.7085c10.7434,0.0413391 21.4833,0.0826782 32.2268,0.124017 1.11734,0.00354335 1.67246,0.759458 2.02916,1.58033 1.0323,1.83664 2.06459,3.67091 3.09689,5.50637 0.166537,0.295279 0.0814971,0.590558 -0.148821,0.843317 -15.5163,-0.00236223 -14.1037,-0.0129923 -42.4021,-0.0129923 -0.220869,-0.251578 -0.300004,-0.540952 -0.129923,-0.830325 1.09962,-1.87679 2.19924,-3.75359 3.29768,-5.63038 0.462998,-0.790167 0.913003,-1.5827 2.03034,-1.58033z"/>
    <path id="_109966264" class="fil32" d="M16.0431 52.7688c10.5958,0.0472447 21.1904,0.0956705 31.7862,0.142915 1.1008,0.00472447 1.64884,0.759458 2.00081,1.58152 1.00867,1.80829 2.01735,3.61658 3.02602,5.42605 0.164175,0.295279 0.0803159,0.589377 -0.145277,0.843317 -15.136,-0.00236223 -13.9951,-0.0129923 -41.8033,-0.0129923 -0.219688,-0.251578 -0.29646,-0.540952 -0.127561,-0.830325 1.08781,-1.8579 2.17562,-3.71343 3.26224,-5.57015 0.461817,-0.787805 0.900011,-1.5827 2.00081,-1.58033z"/>
    <path id="_59739936" class="fil33" d="M16.2687 52.829c10.4505,0.0531503 20.8987,0.107482 31.348,0.161813 1.08427,0.00472447 1.62285,0.759458 1.9701,1.58033 0.985051,1.78349 1.9701,3.56461 2.95515,5.3481 0.162994,0.295279 0.0803159,0.589377 -0.142915,0.843317 -14.7581,-0.00236223 -13.8828,-0.0118112 -41.2033,-0.0129923 -0.216144,-0.251578 -0.291736,-0.542133 -0.122836,-0.830325 1.076,-1.83664 2.15081,-3.67327 3.22563,-5.50991 0.460636,-0.786624 0.885838,-1.5827 1.9701,-1.58033z"/>
    <path id="_57446064" class="fil34" d="M16.4943 52.8892c10.3041,0.060237 20.6058,0.120474 30.9086,0.180711 1.06773,0.00590558 1.59923,0.759458 1.94058,1.58033 0.961429,1.75632 1.92286,3.51264 2.88429,5.26896 0.160632,0.294098 0.0791348,0.589377 -0.140553,0.843317 -14.386,-0.00236223 -13.7647,-0.0118112 -40.6021,-0.0129923 -0.213782,-0.251578 -0.289374,-0.542133 -0.119293,-0.830325 1.06301,-1.81656 2.12483,-3.63312 3.18783,-5.44967 0.459454,-0.784262 0.874027,-1.58388 1.94058,-1.58033z"/>
    <path id="_61866384" class="fil35" d="M16.7211 52.9495c10.1564,0.0661425 20.3117,0.132285 30.4693,0.199609 1.05119,0.00590558 1.57443,0.758277 1.90987,1.58033 0.937807,1.72916 1.87561,3.45949 2.81342,5.18983 0.159451,0.294098 0.0803159,0.589377 -0.13701,0.843317 -14.0151,-0.00236223 -13.649,-0.0118112 -40.0021,-0.0129923 -0.21142,-0.252759 -0.28583,-0.542133 -0.116931,-0.830325 1.05119,-1.79648 2.10239,-3.59296 3.1524,-5.38944 0.458273,-0.783081 0.859853,-1.58388 1.91105,-1.58033z"/>
    <path id="_59765152" class="fil36" d="M16.9467 53.0097c10.0111,0.0720481 20.0199,0.145277 30.0311,0.218507 1.03348,0.0070867 1.54963,0.758277 1.88034,1.58033 0.914184,1.70317 1.82837,3.40634 2.74255,5.11069 0.15827,0.294098 0.0791348,0.589377 -0.134647,0.843317 -13.6502,-0.00236223 -13.5391,-0.0118112 -39.4021,-0.0129923 -0.209058,-0.252759 -0.282287,-0.543314 -0.113387,-0.830325 1.03938,-1.7764 2.07758,-3.5528 3.11579,-5.3292 0.457092,-0.779537 0.846861,-1.58388 1.88034,-1.58033z"/>
   </g>
   <path id="_61882512" class="fil37" d="M17.1723 53.0699l29.5917 0.237404c1.01812,0.0070867 1.52482,0.758277 1.85081,1.58033l2.67169 5.03156c0.155907,0.294098 0.0803159,0.589377 -0.129923,0.843317 -13.2899,-0.00236223 -13.4281,-0.0118112 -38.8056,-0.0129923 -0.205514,-0.252759 -0.276381,-0.543314 -0.108663,-0.830325l3.07917 -5.26896c0.455911,-0.777175 0.832687,-1.58388 1.85081,-1.58033z"/>
  </g>
  <path class="fil38" d="M16.9726 54.1459l30.0051 0.0992138c0.975603,0.00236223 1.46104,0.711032 1.77404,1.48112l1.72089 4.24612c0.312996,0.771269 -0.799616,1.48112 -1.77404,1.48112l-33.7221 0c-0.974421,0 -2.12365,-0.720481 -1.77404,-1.48112l1.99609 -4.34533c0.349611,-0.760639 0.798435,-1.48348 1.77404,-1.48112z"/>
  <path class="fil39" d="M13.16 59.9771l37.3351 -0.0531503c0.230318,0.746466 -0.848042,1.41852 -1.79648,1.41852l-33.7221 0c-0.924815,0 -2.00672,-0.648433 -1.81656,-1.36537z"/>
  <path class="fil40" d="M13.2828 59.018l37.1532 -0.127561 0.0874027 0.183073c0.312996,0.654339 -0.799616,1.25671 -1.77404,1.25671l-33.7221 0c-0.974421,0 -2.12365,-0.611819 -1.77404,-1.25671l0.0295279 -0.0555125z"/>
  <polygon class="fil41" points="14.0636,58.0271 50.0085,58.0271 50.2612,58.998 13.1198,58.998 "/>
  <path class="fil42" d="M13.1175 60.0019l37.1249 0c-0.295279,0.540952 -1.02757,0.935445 -1.6949,0.935445l-33.7221 0c-0.664969,0 -1.41262,-0.396855 -1.7079,-0.935445z"/>
  <g id="_109903680">
   <path id="_46793856" class="fil43" d="M49.6081 58.4003l-35.8528 0 1.24372 -2.70476c0.349611,-0.760639 0.797254,-1.48466 1.77286,-1.48112l30.0051 0.0980327c0.975603,0.00354335 1.46222,0.712213 1.77404,1.4823l1.0571 2.60554z"/>
   <g>
    <path id="_57433144" class="fil44" d="M49.3482 57.7613l-35.2989 0 0.949618 -2.06577c0.349611,-0.760639 0.797254,-1.48466 1.77286,-1.48112l30.0051 0.0980327c0.975603,0.00354335 1.46222,0.712213 1.77404,1.4823l0.797254 1.96656z"/>
    <path id="_61000024" class="fil45" d="M49.0884 57.12l-34.7437 0 0.654339 -1.42443c0.349611,-0.760639 0.797254,-1.48466 1.77286,-1.48112l30.0051 0.0980327c0.975603,0.00354335 1.46222,0.712213 1.77404,1.4823l0.537408 1.32521z"/>
    <path id="_106699024" class="fil46" d="M48.8286 56.481l-34.191 0 0.361422 -0.785443c0.349611,-0.760639 0.797254,-1.48466 1.77286,-1.48112l30.0051 0.0980327c0.975603,0.00354335 1.46222,0.712213 1.77404,1.4823l0.277562 0.686229z"/>
    <path id="_60994960" class="fil47" d="M48.5699 55.8408l-33.6382 0 0.0673237 -0.145277c0.349611,-0.760639 0.797254,-1.48466 1.77286,-1.48112l30.0051 0.0980327c0.975603,0.00354335 1.46222,0.712213 1.77404,1.4823l0.0188979 0.0460636z"/>
    <path id="_45881032" class="fil48" d="M48.2557 55.2007l-33.0039 0c0.322445,-0.552763 0.76182,-0.988595 1.5201,-0.986233l30.0051 0.0980327c0.714576,0.00236223 1.16576,0.382682 1.47876,0.8882z"/>
    <path id="_59422336" class="fil49" d="M47.6569 54.5617l-31.889 0c0.259846,-0.214963 0.582291,-0.348429 1.00395,-0.347248l30.0051 0.0980327c0.351973,0.00118112 0.640165,0.0944894 0.879932,0.249216z"/>
   </g>
  </g>
  <path class="fil50" d="M16.9726 53.9003l30.0051 0.0992138c0.633079,0.00118112 1.11261,0.235042 1.48112,0.59174 0.343705,0.331894 0.577566,0.760639 0.755915,1.20001l1.72089 3.99336 0 0.00236223c0.0614181,0.152364 0.0921271,0.305909 0.0921271,0.453549 0,0.353154 -0.15827,0.67678 -0.416934,0.946075 -0.217326,0.225593 -0.516148,0.420478 -0.84568,0.552763 -0.335437,0.135828 -0.709851,0.214963 -1.06655,0.214963l-33.7221 0c-0.402761,0 -0.831506,-0.102757 -1.20238,-0.272838l0 -0.00118112c-0.29646,-0.135828 -0.565755,-0.322445 -0.760639,-0.536227l-0.00236223 0c-0.231499,-0.255121 -0.373233,-0.561031 -0.373233,-0.889381 0,-0.15827 0.0366146,-0.323626 0.111025,-0.488982l1.99609 -4.09257c0.194884,-0.424021 0.424021,-0.846861 0.753553,-1.17285 0.364965,-0.361422 0.837412,-0.601189 1.47403,-0.600007zm30.0051 1.09608l-30.0051 -0.0992138c-0.334256,0 -0.582291,0.122836 -0.770088,0.309453 -0.224412,0.22205 -0.398036,0.546857 -0.5504,0.879932l-1.99609 4.09257c-0.0106301,0.0236223 -0.0165356,0.050788 -0.0165356,0.0755915 0,0.0637803 0.0425202,0.140553 0.111025,0.216144l-0.00118112 0.00118112c0.105119,0.114568 0.262208,0.220869 0.440557,0.302366l0.00236223 0c0.242129,0.111025 0.523235,0.178349 0.784262,0.178349l33.7221 0c0.233861,0 0.478352,-0.0519691 0.695678,-0.139372 0.20079,-0.0803159 0.377957,-0.193703 0.498431,-0.318902 0.0814971,-0.0850404 0.133466,-0.175986 0.133466,-0.25394 0,-0.0259846 -0.0070867,-0.0555125 -0.0153545,-0.0803159l-0.00118112 0 -1.72089 -3.99336c-0.134647,-0.329532 -0.301185,-0.643709 -0.522054,-0.857491 -0.194884,-0.187798 -0.451187,-0.312996 -0.788986,-0.312996z"/>
  <path class="fil51" d="M16.9726 53.9003l30.0051 0.0992138c0.388587,0.00118112 0.720481,0.0897649 1.00277,0.239767l-0.338981 0.963791c-0.175986,-0.128742 -0.394493,-0.206695 -0.663788,-0.206695l-30.0051 -0.0992138c-0.0791348,0 -0.152364,0.00590558 -0.22205,0.0188979 -0.256302,-0.24331 -0.546857,-0.522054 -0.803159,-0.758277 0.284649,-0.162994 0.622449,-0.258665 1.02521,-0.257483z"/>
  <path class="fil52" d="M16.7199 51.9254l30.0051 0.0992138c0.388587,0.00118112 0.720481,0.0897649 1.00277,0.239767l-0.338981 0.963791c-0.175986,-0.128742 -0.394493,-0.206695 -0.663788,-0.206695l-30.0051 -0.0992138c-0.0791348,0 -0.152364,0.00590558 -0.22205,0.0188979 -0.256302,-0.24331 -0.546857,-0.522054 -0.803159,-0.758277 0.284649,-0.162994 0.622449,-0.258665 1.02521,-0.257483z"/>
  <path class="fil53" d="M41.5422 12.1029c1.99727,2.17444 3.72879,4.04533 5.09061,5.51818l1.01576 1.09726 0.641346 0.694497 0.177168 -0.214963 0.162994 -0.131104 -0.00118112 -0.00118112 0.0330713 -0.030709 -0.407485 0.457092c-0.418115,-0.106301 -0.699221,-0.150002 -0.699221,-0.150002l-2.52523 0.542133 0.510242 -0.514967 -0.367327 -0.396855 -4.40084 -4.76108 -0.649614 0.636622 4.60399 5.10361 -0.504337 1.41616 -0.707489 1.51892 -1.82364 -0.392131 -4.39494 -4.87211 -9.34145 9.16783 -0.715757 2.8713 2.90082 3.27878c-0.321264,0.674418 -0.706308,1.48703 -0.922452,1.96538l-0.150002 -0.1689 -3.66973 -4.14808 -0.344886 -0.389769 -1.29332 5.19573 -0.564574 0.0496069 0.421659 -0.304728 1.3134 -5.16502 1.21183 -4.15163 0.070867 -0.0779537 -0.0874027 0.151183 -0.0318902 0.129923 0.229137 -0.402761 6.88945 -7.59812 6.6674 -5.67054 1.47049 -0.460636 0.192522 0.209058zm7.30875 6.71819c0.0944894,-0.12638 0.187798,-0.2752 0.248035,-0.432289l-0.00354335 -0.00118112c0.0625992,-0.171262 0.090946,-0.372052 0.0437013,-0.59174l0.00354335 -0.00118112c-0.0484258,-0.219688 -0.12638,-0.467722 -0.230318,-0.735836l0.858672 0.731111 -0.92009 1.03112z"/>
  <path class="fil54" d="M48.2545 19.492l-3.02248 3.39453 -4.84848 4.2532 -5.75676 6.07567 -3.33429 1.51892 -2.06695 0.180711 -0.00826782 -0.00944894c0.216144,-0.478352 0.601189,-1.29096 0.922452,-1.96538l0.0153545 0.0177168 2.59373 -0.663788 9.30248 -9.40051 -0.360241 -0.399218 1.82364 0.392131 0.707489 -1.51892 0.504337 -1.41616 0.113387 0.125198 0.19016 -0.192522 2.52523 -0.542133c0,0 0.281106,0.0437013 0.699221,0.150002z"/>
  <path class="fil23" d="M48.662 19.0349l0.103938 -0.112206 0.00354335 0 0.0578747 -0.0720481 0.0118112 -0.0153545 0.0118112 -0.0141734 0.92009 -1.03112 1.26852 1.07954 -0.0685048 0.205514 -0.00472447 0.00354335c-0.171262,0.45473 -0.426383,0.831506 -0.664969,1.11616l0.00236223 0.00118112c-0.102757,0.125198 -0.217326,0.242129 -0.330713,0.346067l-0.0118112 0.00826782 -0.161813 0.135828 -0.0944894 0.13701 -14.5207 14.6742 -0.21142 0.160632 -0.460636 0.265751 -0.250397 0.105119 -10.3478 2.64806 -0.0153545 0c-0.805522,0.192522 -1.44214,0.0850404 -1.91105,-0.367327 -0.381501,-0.368508 -0.563393,-0.895287 -0.544495,-1.60159l1.7516 -1.2638 0.564574 -0.0496069 -0.335437 1.34529 6.04732 -1.54726 -0.245672 -0.277562 2.06695 -0.180711 3.33429 -1.51892 5.75676 -6.07567 4.84848 -4.2532 3.42996 -3.85162zm-14.7073 14.8691l-0.439375 0.252759 0.132285 -0.0330713 0.210239 -0.121655 0.0968516 -0.0980327zm-10.532 2.83704l0 0.00118112 -0.00590558 -0.00118112 -0.00354335 0.0106301 0.0106301 -0.0070867 -0.00118112 -0.00354335zm-0.0366146 0.070867c-0.0188979,0.0342524 -0.030709,0.0484258 -0.0165356,0.0614181 0.0413391,0.0389769 0.0165356,-0.0106301 0.0165356,-0.0614181z"/>
  <path class="fil55" d="M48.9124 17.0589c-0.455911,-1.17521 -1.42325,-2.74019 -2.69413,-4.00635 -1.0949,-1.09017 -2.40121,-1.93113 -3.74532,-2.01971l-0.00354335 0c-0.540952,-0.0354335 -0.953161,0.0248035 -1.25671,0.127561 -0.312996,0.107482 -0.485439,0.239767 -0.565755,0.338981l-0.030709 0.0496069 -0.199609 0.17953 0.0177168 0.0188979 0.409848 -0.402761 0.505518 0.549219 -1.47049 0.460636 -6.6674 5.67054 -6.88945 7.59812 0.0224412 -0.0389769 -0.0921271 0.090946 -0.040158 0.0696859 -0.070867 0.0779537 -1.21183 4.15163 -1.3134 5.16502 -2.17326 1.56852c0.00236223,-0.0956705 0.00944894,-0.194884 0.0188979,-0.297641l0.0236223 -0.145277 2.73547 -10.9785 0.105119 -0.257483 0.270476 -0.470085 0.164175 -0.214963 14.2785 -14.0151 0.00118112 -0.00118112c0.263389,-0.348429 0.755915,-0.792529 1.53191,-1.0571 0.524416,-0.177168 1.19529,-0.284649 2.02916,-0.229137 1.89333,0.12638 3.62367,1.20356 5.02211,2.59609 1.83191,1.82483 3.14059,4.26147 3.46422,5.73196l0.00472447 0.00354335c0.120474,0.552763 0.0779537,1.05474 -0.0531503,1.49648l-2.12719 -1.81065z"/>
  <path class="fil56" d="M40.8088 12.7785c1.43624,1.5638 4.49887,4.87447 6.10992,6.61425l-2.11302 2.13546 -6.06385 -6.72174 2.06695 -2.02798zm-14.6636 17.1498l3.66855 4.14808 3.44768 -0.882294 10.1623 -10.2698 -6.08275 -6.743 -10.2863 10.095 -0.90946 3.65201zm22.9042 -9.92256c0.170081,-0.121655 0.338981,-0.269295 0.485439,-0.446462 0.362603,-0.438194 0.771269,-1.11261 0.58111,-1.97483 -0.509061,-2.30082 -3.75241,-7.29222 -7.58041,-7.54734 -1.67364,-0.111025 -2.46263,0.538589 -2.73074,0.93072l-0.0366146 0.0590558 -0.0295279 0.0129923 -14.2797 14.0151 -0.269295 0.471266 -2.73547 10.9773c-0.105119,1.07482 0.297641,1.42561 1.21301,1.20474 3.45004,-0.882294 6.90008,-1.76577 10.3489,-2.64806l0.459454 -0.26457 14.5218 -14.6754 0.0519691 -0.114568z"/>
  <path class="fil57" d="M46.8124 19.5014c-0.823238,0.831506 -3.29768,3.38508 -3.4524,3.35201l-10.0997 10.3407 -3.4465 0.882294 -0.138191 -0.157089 -0.458273 0.986233 0.00826782 0.00944894 2.06695 -0.180711 3.33429 -1.51892 5.75676 -6.07567 7.87096 -7.64773c-0.418115,-0.106301 -0.699221,-0.150002 -0.699221,-0.150002l-0.742923 0.159451z"/>
  <path class="fil58" d="M48.9124 17.0589c-0.455911,-1.17521 -1.42325,-2.74019 -2.69413,-4.00635 -1.0949,-1.09017 -2.40121,-1.93113 -3.74532,-2.01971l-0.00354335 0c-0.540952,-0.0354335 -0.953161,0.0248035 -1.25671,0.127561 -0.312996,0.107482 -0.485439,0.239767 -0.565755,0.338981l-0.230318 0.229137 0.0177168 0.0188979 0.409848 -0.402761 -0.964973 1.00985 -13.5569 13.2687 0.0224412 -0.0389769 -0.0921271 0.090946 -0.040158 0.0696859 -0.070867 0.0779537 -1.21183 4.15163 -1.3134 5.16502 -1.00277 0.724025 2.57602 -10.3383 0.270476 -0.470085 14.2785 -14.0151 0.0295279 -0.0141734 0.0366146 -0.0590558c0.268114,-0.39095 1.0571,-1.04056 2.73074,-0.929539 3.828,0.255121 7.07135,5.24652 7.58041,7.54734 0.0413391,0.188979 0.0543314,0.368508 0.0460636,0.538589l-1.24962 -1.06419z"/>
  <path class="fil59" d="M13.8533 44.1017c-0.50788,0 -0.92009,-0.458273 -0.92009,-1.02403 0,-0.565755 0.41221,-1.02403 0.92009,-1.02403l36.076 0c0.50788,0 0.92009,0.458273 0.92009,1.02403 0,0.565755 -0.41221,1.02403 -0.92009,1.02403l-36.076 0z"/>
  <path class="fil60" d="M12.9592 42.8356c0.0980327,-0.448824 0.460636,-0.781899 0.894105,-0.781899l36.076 0c0.43347,0 0.796073,0.333075 0.894105,0.781899l-37.8642 0z"/>
  <path class="fil59" d="M13.8533 48.0018c-0.50788,0 -0.92009,-0.458273 -0.92009,-1.02403 0,-0.565755 0.41221,-1.02403 0.92009,-1.02403l22.7944 0c0.50788,0 0.92009,0.458273 0.92009,1.02403 0,0.565755 -0.41221,1.02403 -0.92009,1.02403l-22.7944 0z"/>
  <path class="fil60" d="M12.938 47.0888l-0.00472447 -0.111025c0,-0.565755 0.41221,-1.02403 0.92009,-1.02403l22.7944 0c0.50788,0 0.92009,0.458273 0.92009,1.02403l-0.00472447 0.111025 -24.6251 0zm0.9945 -0.111025l0.00236223 0.0248035 22.6314 0 0.00236223 -0.0248035 -0.00236223 -0.0248035 -22.6314 0 -0.00236223 0.0248035z"/>
 </g>
</svg>
