<?xml version="1.0" encoding="UTF-8" standalone="no"?>
<!-- Creator: CorelDRAW -->

<svg
   xmlns:dc="http://purl.org/dc/elements/1.1/"
   xmlns:cc="http://creativecommons.org/ns#"
   xmlns:rdf="http://www.w3.org/1999/02/22-rdf-syntax-ns#"
   xmlns:svg="http://www.w3.org/2000/svg"
   xmlns="http://www.w3.org/2000/svg"
   xmlns:xlink="http://www.w3.org/1999/xlink"
   xmlns:sodipodi="http://sodipodi.sourceforge.net/DTD/sodipodi-0.dtd"
   xmlns:inkscape="http://www.inkscape.org/namespaces/inkscape"
   xml:space="preserve"
   width="64px"
   height="64px"
   style="shape-rendering:geometricPrecision; text-rendering:geometricPrecision; image-rendering:optimizeQuality; fill-rule:evenodd; clip-rule:evenodd"
   viewBox="0 0 64 64"
   id="svg3981"
   version="1.1"
   inkscape:version="0.48.1 r9760"
   sodipodi:docname="preferences-desktop-display.svg"><metadata
   id="metadata4258"><rdf:RDF><cc:Work
       rdf:about=""><dc:format>image/svg+xml</dc:format><dc:type
         rdf:resource="http://purl.org/dc/dcmitype/StillImage" /><dc:title></dc:title></cc:Work></rdf:RDF></metadata><sodipodi:namedview
   pagecolor="#ffffff"
   bordercolor="#666666"
   borderopacity="1"
   objecttolerance="10"
   gridtolerance="10"
   guidetolerance="10"
   inkscape:pageopacity="0"
   inkscape:pageshadow="2"
   inkscape:window-width="646"
   inkscape:window-height="480"
   id="namedview4256"
   showgrid="false"
   inkscape:zoom="4.15625"
   inkscape:cx="32"
   inkscape:cy="32"
   inkscape:window-x="0"
   inkscape:window-y="24"
   inkscape:window-maximized="0"
   inkscape:current-layer="svg3981" />
 <defs
   id="defs3983">
  <style
   type="text/css"
   id="style3985">
   
    .fil129 {fill:none}
    .fil137 {fill:#7F7F7F}
    .fil132 {fill:white}
    .fil21 {fill:#404040}
    .fil14 {fill:#B2B2B2}
    .fil16 {fill:#C9C9C9}
    .fil130 {fill:#CCCCCC}
    .fil141 {fill:#D38D24}
    .fil139 {fill:#D9942B}
    .fil136 {fill:#E09613}
    .fil134 {fill:#FED716}
    .fil140 {fill:#FFC42E}
    .fil18 {fill:white}
    .fil131 {fill:#7A7A7A}
    .fil135 {fill:#7F7F7F;fill-rule:nonzero}
    .fil19 {fill:white;fill-rule:nonzero}
    .fil0 {fill:black;fill-opacity:0.000000}
    .fil1 {fill:black;fill-opacity:0.003922}
    .fil2 {fill:black;fill-opacity:0.007843}
    .fil96 {fill:#458BC9;fill-opacity:0.011765}
    .fil3 {fill:black;fill-opacity:0.015686}
    .fil128 {fill:#B0E5FF;fill-opacity:0.015686}
    .fil54 {fill:#B8E7FF;fill-opacity:0.015686}
    .fil4 {fill:black;fill-opacity:0.019608}
    .fil95 {fill:#458BC9;fill-opacity:0.019608}
    .fil5 {fill:black;fill-opacity:0.023529}
    .fil6 {fill:black;fill-opacity:0.027451}
    .fil127 {fill:#B0E5FF;fill-opacity:0.031373}
    .fil53 {fill:#B8E7FF;fill-opacity:0.031373}
    .fil94 {fill:#458BC9;fill-opacity:0.031373}
    .fil7 {fill:black;fill-opacity:0.031373}
    .fil8 {fill:black;fill-opacity:0.035294}
    .fil93 {fill:#458BC9;fill-opacity:0.039216}
    .fil9 {fill:black;fill-opacity:0.043137}
    .fil126 {fill:#B0E5FF;fill-opacity:0.047059}
    .fil52 {fill:#B8E7FF;fill-opacity:0.047059}
    .fil10 {fill:black;fill-opacity:0.047059}
    .fil11 {fill:black;fill-opacity:0.050980}
    .fil92 {fill:#458BC9;fill-opacity:0.050980}
    .fil12 {fill:black;fill-opacity:0.054902}
    .fil13 {fill:black;fill-opacity:0.058824}
    .fil125 {fill:#B0E5FF;fill-opacity:0.058824}
    .fil51 {fill:#B8E7FF;fill-opacity:0.058824}
    .fil91 {fill:#458BC9;fill-opacity:0.062745}
    .fil90 {fill:#458BC9;fill-opacity:0.070588}
    .fil124 {fill:#B0E5FF;fill-opacity:0.074510}
    .fil50 {fill:#B8E7FF;fill-opacity:0.074510}
    .fil89 {fill:#458BC9;fill-opacity:0.082353}
    .fil123 {fill:#B0E5FF;fill-opacity:0.090196}
    .fil49 {fill:#B8E7FF;fill-opacity:0.090196}
    .fil88 {fill:#458BC9;fill-opacity:0.090196}
    .fil87 {fill:#458BC9;fill-opacity:0.101961}
    .fil122 {fill:#B0E5FF;fill-opacity:0.105882}
    .fil48 {fill:#B8E7FF;fill-opacity:0.105882}
    .fil86 {fill:#458BC9;fill-opacity:0.113725}
    .fil121 {fill:#B0E5FF;fill-opacity:0.121569}
    .fil47 {fill:#B8E7FF;fill-opacity:0.121569}
    .fil85 {fill:#458BC9;fill-opacity:0.121569}
    .fil84 {fill:#458BC9;fill-opacity:0.133333}
    .fil120 {fill:#B0E5FF;fill-opacity:0.137255}
    .fil46 {fill:#B8E7FF;fill-opacity:0.137255}
    .fil83 {fill:#458BC9;fill-opacity:0.145098}
    .fil119 {fill:#B0E5FF;fill-opacity:0.152941}
    .fil45 {fill:#B8E7FF;fill-opacity:0.152941}
    .fil82 {fill:#458BC9;fill-opacity:0.152941}
    .fil81 {fill:#458BC9;fill-opacity:0.164706}
    .fil118 {fill:#B0E5FF;fill-opacity:0.164706}
    .fil44 {fill:#B8E7FF;fill-opacity:0.164706}
    .fil80 {fill:#458BC9;fill-opacity:0.172549}
    .fil117 {fill:#B0E5FF;fill-opacity:0.180392}
    .fil43 {fill:#B8E7FF;fill-opacity:0.180392}
    .fil79 {fill:#458BC9;fill-opacity:0.184314}
    .fil78 {fill:#458BC9;fill-opacity:0.196078}
    .fil116 {fill:#B0E5FF;fill-opacity:0.196078}
    .fil42 {fill:#B8E7FF;fill-opacity:0.196078}
    .fil77 {fill:#458BC9;fill-opacity:0.203922}
    .fil115 {fill:#B0E5FF;fill-opacity:0.211765}
    .fil41 {fill:#B8E7FF;fill-opacity:0.211765}
    .fil76 {fill:#458BC9;fill-opacity:0.215686}
    .fil133 {fill:#261401;fill-opacity:0.219608}
    .fil75 {fill:#458BC9;fill-opacity:0.223529}
    .fil114 {fill:#B0E5FF;fill-opacity:0.227451}
    .fil40 {fill:#B8E7FF;fill-opacity:0.227451}
    .fil74 {fill:#458BC9;fill-opacity:0.235294}
    .fil113 {fill:#B0E5FF;fill-opacity:0.243137}
    .fil39 {fill:#B8E7FF;fill-opacity:0.243137}
    .fil73 {fill:#458BC9;fill-opacity:0.247059}
    .fil72 {fill:#458BC9;fill-opacity:0.254902}
    .fil112 {fill:#B0E5FF;fill-opacity:0.258824}
    .fil38 {fill:#B8E7FF;fill-opacity:0.258824}
    .fil71 {fill:#458BC9;fill-opacity:0.266667}
    .fil111 {fill:#B0E5FF;fill-opacity:0.274510}
    .fil37 {fill:#B8E7FF;fill-opacity:0.274510}
    .fil70 {fill:#458BC9;fill-opacity:0.274510}
    .fil69 {fill:#458BC9;fill-opacity:0.286275}
    .fil110 {fill:#B0E5FF;fill-opacity:0.286275}
    .fil36 {fill:#B8E7FF;fill-opacity:0.286275}
    .fil68 {fill:#458BC9;fill-opacity:0.298039}
    .fil109 {fill:#B0E5FF;fill-opacity:0.301961}
    .fil35 {fill:#B8E7FF;fill-opacity:0.301961}
    .fil67 {fill:#458BC9;fill-opacity:0.305882}
    .fil66 {fill:#458BC9;fill-opacity:0.317647}
    .fil108 {fill:#B0E5FF;fill-opacity:0.317647}
    .fil34 {fill:#B8E7FF;fill-opacity:0.317647}
    .fil65 {fill:#458BC9;fill-opacity:0.325490}
    .fil107 {fill:#B0E5FF;fill-opacity:0.333333}
    .fil33 {fill:#B8E7FF;fill-opacity:0.333333}
    .fil64 {fill:#458BC9;fill-opacity:0.337255}
    .fil63 {fill:#458BC9;fill-opacity:0.349020}
    .fil106 {fill:#B0E5FF;fill-opacity:0.349020}
    .fil32 {fill:#B8E7FF;fill-opacity:0.349020}
    .fil62 {fill:#458BC9;fill-opacity:0.356863}
    .fil105 {fill:#B0E5FF;fill-opacity:0.364706}
    .fil31 {fill:#B8E7FF;fill-opacity:0.364706}
    .fil61 {fill:#458BC9;fill-opacity:0.368627}
    .fil60 {fill:#458BC9;fill-opacity:0.380392}
    .fil104 {fill:#B0E5FF;fill-opacity:0.380392}
    .fil30 {fill:#B8E7FF;fill-opacity:0.380392}
    .fil59 {fill:#458BC9;fill-opacity:0.388235}
    .fil103 {fill:#B0E5FF;fill-opacity:0.392157}
    .fil29 {fill:#B8E7FF;fill-opacity:0.392157}
    .fil58 {fill:#458BC9;fill-opacity:0.400000}
    .fil102 {fill:#B0E5FF;fill-opacity:0.407843}
    .fil28 {fill:#B8E7FF;fill-opacity:0.407843}
    .fil57 {fill:#458BC9;fill-opacity:0.407843}
    .fil56 {fill:#458BC9;fill-opacity:0.419608}
    .fil101 {fill:#B0E5FF;fill-opacity:0.423529}
    .fil27 {fill:#B8E7FF;fill-opacity:0.423529}
    .fil55 {fill:#458BC9;fill-opacity:0.431373}
    .fil100 {fill:#B0E5FF;fill-opacity:0.439216}
    .fil26 {fill:#B8E7FF;fill-opacity:0.439216}
    .fil15 {fill:#666666;fill-opacity:0.439216}
    .fil99 {fill:#B0E5FF;fill-opacity:0.454902}
    .fil25 {fill:#B8E7FF;fill-opacity:0.454902}
    .fil98 {fill:#B0E5FF;fill-opacity:0.470588}
    .fil24 {fill:#B8E7FF;fill-opacity:0.470588}
    .fil97 {fill:#B0E5FF;fill-opacity:0.486275}
    .fil23 {fill:#B8E7FF;fill-opacity:0.486275}
    .fil138 {fill:#999999;fill-opacity:0.501961}
    .fil17 {fill:url(#id0)}
    .fil146 {fill:url(#id1)}
    .fil142 {fill:url(#id2)}
    .fil22 {fill:url(#id3)}
    .fil20 {fill:url(#id4);fill-rule:nonzero}
    .fil152 {fill:url(#id5);fill-rule:nonzero}
    .fil144 {fill:url(#id6);fill-opacity:0.219608}
    .fil145 {fill:url(#id7);fill-opacity:0.501961}
    .fil143 {fill:url(#id8);fill-opacity:0.501961}
    .fil150 {fill:url(#id9);fill-opacity:0.780392}
    .fil149 {fill:url(#id10);fill-opacity:0.780392}
    .fil153 {fill:url(#id11);fill-opacity:0.780392}
    .fil151 {fill:url(#id12);fill-opacity:0.780392}
    .fil148 {fill:url(#id13);fill-opacity:0.780392}
    .fil147 {fill:url(#id14);fill-rule:nonzero;fill-opacity:0.780392}
   
  </style>
  <linearGradient
   id="id0"
   gradientUnits="userSpaceOnUse"
   x1="32.0472"
   y1="7.78947"
   x2="32.0472"
   y2="46.8644">
   <stop
   offset="0"
   style="stop-color:#DADADA"
   id="stop3988" />
   <stop
   offset="1"
   style="stop-color:#BEBEBE"
   id="stop3990" />
  </linearGradient>
  <linearGradient
   id="id1"
   gradientUnits="userSpaceOnUse"
   x1="50.0959"
   y1="53.5199"
   x2="53.4786"
   y2="63.752">
   <stop
   offset="0"
   style="stop-color:#EDA21D"
   id="stop3993" />
   <stop
   offset="1"
   style="stop-color:#B9792C"
   id="stop3995" />
  </linearGradient>
  <linearGradient
   id="id2"
   gradientUnits="userSpaceOnUse"
   x1="46.4226"
   y1="62.0984"
   x2="57.5027"
   y2="41.169">
   <stop
   offset="0"
   style="stop-color:#FED817"
   id="stop3998" />
   <stop
   offset="1"
   style="stop-color:#F3B618"
   id="stop4000" />
  </linearGradient>
  <linearGradient
   id="id3"
   gradientUnits="userSpaceOnUse"
   x1="32.0201"
   y1="20.1321"
   x2="32.0201"
   y2="34.9717">
   <stop
   offset="0"
   style="stop-color:#5CA2DA"
   id="stop4003" />
   <stop
   offset="1"
   style="stop-color:#84C1F0"
   id="stop4005" />
  </linearGradient>
  <linearGradient
   id="id4"
   gradientUnits="userSpaceOnUse"
   x1="32.0472"
   y1="51.655"
   x2="32.0472"
   y2="3.00004">
   <stop
   offset="0"
   style="stop-color:#7F7F7F"
   id="stop4008" />
   <stop
   offset="1"
   style="stop-color:#999999"
   id="stop4010" />
  </linearGradient>
  <linearGradient
   id="id5"
   gradientUnits="userSpaceOnUse"
   xlink:href="#id1"
   x1="50.9994"
   y1="47.2435"
   x2="53.6215"
   y2="54.2074">
  </linearGradient>
  <linearGradient
   id="id6"
   gradientUnits="userSpaceOnUse"
   x1="45.8415"
   y1="61.2598"
   x2="50.5872"
   y2="56.6015">
   <stop
   offset="0"
   style="stop-color:#D9942B"
   id="stop4014" />
   <stop
   offset="1"
   style="stop-color:#EDB428"
   id="stop4016" />
  </linearGradient>
  <linearGradient
   id="id7"
   gradientUnits="userSpaceOnUse"
   xlink:href="#id6"
   x1="62.3453"
   y1="39.128"
   x2="59.083"
   y2="45.3573">
  </linearGradient>
  <linearGradient
   id="id8"
   gradientUnits="userSpaceOnUse"
   xlink:href="#id6"
   x1="47.5293"
   y1="60.9846"
   x2="53.7751"
   y2="55.7617">
  </linearGradient>
  <linearGradient
   id="id9"
   gradientUnits="userSpaceOnUse"
   x1="59.8874"
   y1="43.7675"
   x2="44.325"
   y2="62.7126">
   <stop
   offset="0"
   style="stop-color:#7F7F7F"
   id="stop4021" />
   <stop
   offset="1"
   style="stop-color:#4C4C4C"
   id="stop4023" />
  </linearGradient>
  <linearGradient
   id="id10"
   gradientUnits="userSpaceOnUse"
   xlink:href="#id9"
   x1="59.9913"
   y1="41.3072"
   x2="45.2415"
   y2="60.8948">
  </linearGradient>
  <linearGradient
   id="id11"
   gradientUnits="userSpaceOnUse"
   xlink:href="#id9"
   x1="67.3804"
   y1="36.3276"
   x2="52.6306"
   y2="55.9153">
  </linearGradient>
  <linearGradient
   id="id12"
   gradientUnits="userSpaceOnUse"
   xlink:href="#id9"
   x1="62.8709"
   y1="42.4257"
   x2="50.4597"
   y2="63.5701">
  </linearGradient>
  <linearGradient
   id="id13"
   gradientUnits="userSpaceOnUse"
   xlink:href="#id9"
   x1="58.9637"
   y1="37.6753"
   x2="46.1793"
   y2="59.148">
  </linearGradient>
  <linearGradient
   id="id14"
   gradientUnits="userSpaceOnUse"
   xlink:href="#id9"
   x1="64.1618"
   y1="43.1698"
   x2="45.3088"
   y2="59.2968">
  </linearGradient>
 </defs>
 <g
   id="Слой_x0020_1">
  <metadata
   id="CorelCorpID_0Corel-Layer" />
  <g
   id="_155952640">
   <path
   id="_155953624"
   class="fil0"
   d="M34.6989 54.1778c19.975,-1.24135 22.6692,3.54926 22.7566,7.43749 0.0862215,3.88942 -10.3631,1.67719 -22.0078,2.34924 -11.647,0.669693 -21.468,1.23545 -21.468,-1.64648 0,-2.88311 0.744104,-6.89772 20.7192,-8.14026z" />
   <g
   id="g4034">
    <path
   id="_155953552"
   class="fil1"
   d="M34.7461 54.6574c19.127,-1.14805 22.433,3.38626 22.5133,7.04654 0.0803159,3.60004 -10.3041,1.5638 -21.7928,2.18507 -11.4887,0.617724 -21.2944,1.13505 -21.2944,-1.53545 0,-2.7331 1.44569,-6.54929 20.5739,-7.69616z" />
    <path
   id="_155953480"
   class="fil2"
   d="M34.791 55.1334c18.2813,-1.05119 22.1991,3.22563 22.2735,6.65559 0.0744104,3.31421 -10.2486,1.45277 -21.579,2.02089 -11.3352,0.568117 -21.1243,1.03584 -21.1243,-1.42325 0,-2.57956 2.14963,-6.20086 20.4298,-7.25324z" />
    <path
   id="_155953408"
   class="fil3"
   d="M34.8359 55.6129c17.4345,-0.956705 21.9652,3.065 22.0326,6.26346 0.0661425,3.02602 -10.1907,1.34057 -21.3664,1.8579 -11.1757,0.514967 -20.9495,0.934263 -20.9495,-1.3134 0,-2.42838 2.85004,-5.85243 20.2833,-6.80796z" />
    <path
   id="_155953336"
   class="fil4"
   d="M34.8807 56.0912c16.5864,-0.859853 21.7314,2.90319 21.7904,5.87369 0.060237,2.73783 -10.1328,1.22836 -21.1514,1.69372 -11.021,0.462998 -20.7782,0.833869 -20.7782,-1.20474 0,-2.27365 3.55162,-5.50282 20.1392,-6.36268z" />
    <path
   id="_155953264"
   class="fil5"
   d="M34.9268 56.5696c15.7384,-0.764183 21.4963,2.74255 21.5495,5.48274 0.0531503,2.44964 -10.0761,1.11616 -20.9388,1.52837 -10.8627,0.413391 -20.6046,0.734655 -20.6046,-1.09253 0,-2.12129 4.2532,-5.15321 19.9939,-5.91858z" />
    <path
   id="_155953192"
   class="fil6"
   d="M34.9717 57.0479c14.8927,-0.668512 21.2613,2.58074 21.3073,5.09179 0.0472447,2.16144 -10.0159,1.00513 -20.7227,1.36537 -10.7092,0.361422 -20.4345,0.63426 -20.4345,-0.981508 0,-1.97128 4.95715,-4.80596 19.8499,-5.47566z" />
    <path
   id="_155953120"
   class="fil7"
   d="M35.0166 57.5275c14.0447,-0.574023 21.0262,2.42011 21.0652,4.70085 0.0413391,1.87443 -9.958,0.890562 -20.5101,1.2012 -10.5509,0.309453 -20.2597,0.531503 -20.2597,-0.871664 0,-1.81774 5.65873,-4.45872 19.7046,-5.03038z" />
    <path
   id="_155953048"
   class="fil8"
   d="M35.0615 58.0047c13.199,-0.477171 20.7924,2.25948 20.8255,4.31226 0.0330713,1.58624 -9.9013,0.778356 -20.2963,1.03702 -10.3962,0.257483 -20.0896,0.431108 -20.0896,-0.760639 0,-1.66656 6.36031,-4.11029 19.5605,-4.58864z" />
    <path
   id="_155952976"
   class="fil9"
   d="M35.1063 58.4842c12.3521,-0.382682 20.5573,2.09648 20.5845,3.91895 0.0271657,1.29923 -9.84461,0.667331 -20.0825,0.874027 -10.2391,0.206695 -19.916,0.330713 -19.916,-0.649614 0,-1.51537 7.0619,-3.76186 19.414,-4.14336z" />
    <path
   id="_155952904"
   class="fil10"
   d="M35.1524 58.9614c11.5029,-0.284649 20.3223,1.93703 20.3412,3.53036 0.0212601,1.01104 -9.78555,0.555125 -19.8687,0.709851 -10.082,0.154726 -19.7424,0.230318 -19.7424,-0.540952 0,-1.36065 7.76348,-3.41225 19.2699,-3.69926z" />
    <path
   id="_155952832"
   class="fil11"
   d="M35.1961 59.4409c10.6584,-0.19016 20.0884,1.77522 20.1026,3.13941 0.0118112,0.721662 -9.73004,0.441738 -19.6561,0.545676 -9.92493,0.101576 -19.5699,0.128742 -19.5699,-0.431108 0,-1.20946 8.46388,-3.06264 19.1235,-3.25398z" />
    <path
   id="_155952760"
   class="fil12"
   d="M35.2422 59.9169c9.81036,-0.0944894 19.8546,1.61459 19.8593,2.74846 0.00826782,0.434651 -9.67099,0.330713 -19.44,0.381501 -9.76902,0.0519691 -19.3987,0.0295279 -19.3987,-0.318902 0,-1.05592 9.16665,-2.71421 18.9794,-2.81106z" />
   </g>
   <path
   id="_155952664"
   class="fil13"
   d="M35.2847 60.4c8.96468,0 19.6207,1.45159 19.6207,2.35633 0,0.295279 -38.4548,0.284649 -38.4548,0.00944894 0,-0.904736 9.86941,-2.36578 18.8341,-2.36578z" />
  </g>
  <polygon
   class="fil14"
   points="21.4136,51.1459 42.6915,51.0715 42.6915,57.0054 21.4113,57.2357 "
   id="polygon4049" />
  <polygon
   class="fil14"
   points="21.4136,51.1471 42.6915,51.0703 42.6915,56.6983 43.0104,56.696 48.4482,59.4586 49.1132,59.4562 49.1132,59.7952 49.4664,59.9759 49.1132,59.9724 49.1132,59.9736 49.164,59.9736 49.2148,61.9968 16.1317,62.0488 16.101,60.7921 16.0313,60.7921 16.5203,59.5094 21.4125,56.846 "
   id="polygon4051" />
  <polygon
   class="fil15"
   points="21.4656,50.8412 42.7434,50.7644 42.7434,54.1448 21.4644,54.1448 "
   id="polygon4053" />
  <path
   class="fil16"
   d="M5.63157 4.68077l50.3557 -1.33584c1.78939,0 2.99059,0.85631 2.9646,2.97287l-0.0496069 4.0158 -56.6641 0 0 -4.0158c0,-1.68427 1.66183,-1.72679 3.39335,-1.63703z"
   id="path4055" />
  <path
   class="fil17"
   d="M5.35991 3.50792l53.2211 -0.0070867c1.58978,0 2.88547,1.30986 2.89137,2.89137l0.152364 41.8151c0.00590558,1.57915 -1.30277,2.89137 -2.89137,2.89137 -19.0408,0 -20.8479,0.0555125 -53.3262,0.0555125 -1.58624,0 -2.86067,-0.942531 -2.86657,-2.5335l-0.070867 -42.2214c-0.00472447,-1.58978 1.30159,-2.87838 2.89019,-2.89137z"
   id="path4057" />
  <path
   class="fil18"
   d="M4.99022 45.8569l-0.00236223 1.0819c0.102757,1.23899 1.69254,2.14136 2.86657,2.13664l48.6502 -0.0744104c1.6949,-0.0460636 2.46972,-1.12915 2.52759,-2.55121l-0.00118112 -1.07364c-0.0673237,1.40789 -0.843317,2.4768 -2.52641,2.52287l-48.6502 0.0744104c-1.16694,0.00472447 -2.7461,-0.8882 -2.86421,-2.11656z"
   id="path4059" />
  <path
   class="fil19"
   d="M4.95597 3.80674l54.0928 -0.455911c1.83427,0 2.54885,1.50592 2.62208,3.37209l-0.395674 0c-0.0744104,-1.17875 -1.06064,-1.59569 -2.22641,-1.59569l-54.0928 -0.0755915c-1.16694,0 -2.37759,0.943712 -2.44846,2.12601l-0.622449 0.151183c0.0791348,-2.00672 0.811427,-3.52209 3.0709,-3.52209z"
   id="path4061" />
  <path
   class="fil20"
   d="M5.35991 3.00949l53.2211 -0.0070867 0 -0.00236223c0.929539,0 1.7764,0.383863 2.3894,0.996863 0.614181,0.614181 0.996863,1.46458 1.00041,2.39294l0 0.00236223 0.152364 41.8151 0.00236223 0 0 0.0106301c0,0.921271 -0.382682,1.76695 -0.995682,2.37995l-0.00118112 0c-0.609456,0.610637 -1.45514,0.995682 -2.38231,0.999225l-0.00236223 0.00236223 -0.0106301 0c-9.40523,0 -13.8734,0.0106301 -18.9546,0.020079 -7.94892,0.0153545 -17.1203,0.0354335 -34.3717,0.0354335 -0.936626,0 -1.79057,-0.29646 -2.40357,-0.838593 -0.59174,-0.522054 -0.959067,-1.27088 -0.961429,-2.1957l-0.070867 -42.2214c-0.00236223,-0.928358 0.376776,-1.77404 0.988595,-2.38586 0.613,-0.613 1.46577,-0.995682 2.39649,-1.00395l0.00354335 0zm53.2211 0.989776l-53.2176 0.0070867 -0.00354335 0c-0.65552,0.00590558 -1.25907,0.278744 -1.69372,0.713395 -0.431108,0.431108 -0.699221,1.02757 -0.69804,1.67955l0.070867 42.2214c0.00118112,0.614181 0.240948,1.10907 0.625992,1.44923 0.426383,0.376776 1.04529,0.583472 1.74215,0.583472 19.5357,0 27.4822,-0.0165356 34.3717,-0.030709 6.27764,-0.0129923 11.8478,-0.0248035 18.9546,-0.0248035l0.0106301 0 0 0.00236223c0.650795,-0.00354335 1.24844,-0.2752 1.67955,-0.707489l0 -0.00118112c0.431108,-0.431108 0.700402,-1.02521 0.700402,-1.67364l0 -0.0106301 0.00236223 0 -0.152364 -41.8127 0 -0.00236223c-0.00354335,-0.651977 -0.274019,-1.25317 -0.709851,-1.689 -0.431108,-0.431108 -1.02875,-0.701583 -1.68309,-0.701583l0 -0.00236223z"
   id="path4063" />
  <path
   class="fil21"
   d="M5.05872 9.40523l-0.070867 36.4316c0.102757,1.23899 1.69254,2.14136 2.86657,2.13664l48.6502 -0.0744104c1.6949,-0.0460636 2.46972,-1.12915 2.52759,-2.55121l-0.050788 -35.9875c0,-1.49766 -0.936626,-2.31499 -2.62444,-2.31617l-48.8061 -0.0129923c-1.55907,0 -2.49216,0.887019 -2.49216,2.37404z"
   id="path4065" />
  <path
   class="fil22"
   d="M6.05441 9.40523l-0.0496069 36.4504c0.0224412,0.261027 0.231499,0.522054 0.51851,0.734655l0.00354335 0c0.407485,0.304728 0.924815,0.487801 1.34529,0.487801l48.6053 -0.257483c0.523235,-0.0141734 0.896468,-0.161813 1.13151,-0.396855l0.00354335 -0.00354335c0.266932,-0.272838 0.403942,-0.694497 0.424021,-1.19293l-0.050788 -35.867 -0.00354335 0c0,-0.448824 -0.116931,-0.775994 -0.337799,-0.970878 -0.258665,-0.227956 -0.694497,-0.349611 -1.28742,-0.349611l-48.8061 -0.0129923 0 0.00354335c-0.514967,0 -0.904736,0.125198 -1.14332,0.353154 -0.225593,0.213782 -0.349611,0.563393 -0.349611,1.02167l-0.00354335 0z"
   id="path4067" />
  <g
   id="_156417176">
   <g
   id="g4070">
    <path
   id="_156874504"
   class="fil23"
   d="M6.03787 21.8625c0.255121,-0.0531503 0.510242,-0.102757 0.766545,-0.14764 4.26147,-0.746466 8.62688,-0.218507 12.7549,2.60672 2.36223,1.6323 4.49651,3.14413 6.41819,4.51305 10.343,7.57686 13.5356,9.88831 21.677,6.93316 2.74255,-0.949618 6.41346,-3.44059 10.3608,-5.68708l0.00118112 0.555125c-3.90359,2.23467 -7.5308,4.69848 -10.2486,5.6422 -8.31624,3.0213 -11.5407,0.683867 -22.0066,-6.98394 -1.89924,-1.35356 -4.00871,-2.84649 -6.40874,-4.5095 -3.91776,-2.66814 -8.13671,-3.15713 -12.3049,-2.43664 -0.337799,0.0590558 -0.674418,0.125198 -1.01104,0.199609l0.00118112 -0.685048z" />
    <path
   id="_156873376"
   class="fil24"
   d="M6.03669 22.6326c0.427564,-0.0885838 0.857491,-0.167719 1.2886,-0.235042 4.27682,-0.682686 8.63633,-0.187798 12.7939,2.51932 2.35987,1.56498 4.53076,3.03311 6.50677,4.38431 10.1812,7.38198 13.4541,9.70524 21.4951,6.98631 2.65751,-0.817333 6.15126,-3.02012 9.8954,-5.03392l0.00118112 0.538589c-3.70634,2.00554 -7.16347,4.19178 -9.79736,5.00203 -8.2064,2.79216 -11.51,0.445281 -21.807,-7.02528 -1.95239,-1.33702 -4.09611,-2.78862 -6.49142,-4.38312 -3.95556,-2.55476 -8.17805,-3.01067 -12.3675,-2.35397 -0.506699,0.0803159 -1.0134,0.174805 -1.51892,0.282287l0.00118112 -0.681504z" />
    <path
   id="_156869944"
   class="fil25"
   d="M6.03551 23.3885c0.600007,-0.119293 1.20356,-0.223231 1.80947,-0.311815 4.28982,-0.613 8.64814,-0.155907 12.8305,2.42956 2.35987,1.5012 4.56974,2.92563 6.59772,4.26501 10.0194,7.18119 13.3785,9.51862 21.3168,7.03119 2.56775,-0.68741 5.88432,-2.61617 9.42886,-4.40084l0 0.523235c-3.51028,1.78349 -6.79733,3.70044 -9.34382,4.39021 -8.09774,2.55712 -11.4828,0.199609 -21.6097,-7.0678 -2.00554,-1.32167 -4.18588,-2.7331 -6.57764,-4.26147 -3.98745,-2.44137 -8.21349,-2.85594 -12.423,-2.26893 -0.677961,0.0956705 -1.35474,0.21142 -2.03034,0.347248l0.00118112 -0.675599z" />
    <path
   id="_156874936"
   class="fil26"
   d="M6.03433 24.1243c0.773632,-0.144096 1.54963,-0.268114 2.32916,-0.366146 4.30871,-0.545676 8.65759,-0.124017 12.8706,2.33861 2.35987,1.43506 4.60281,2.81933 6.68748,4.141 9.8576,6.98513 13.3006,9.33791 21.1361,7.0808 2.47562,-0.569298 5.61739,-2.23231 8.96232,-3.79611l0.00118112 0.512605c-3.3213,1.56498 -6.43591,3.22563 -8.89263,3.79493 -7.98907,2.32798 -11.4521,-0.040158 -21.4136,-7.1056 -2.05869,-1.30868 -4.2721,-2.67523 -6.65796,-4.13863 -4.02761,-2.32208 -8.25364,-2.70476 -12.4856,-2.18861 -0.849223,0.106301 -1.69608,0.240948 -2.53822,0.396855l0.00118112 -0.669693z" />
    <path
   id="_156870280"
   class="fil27"
   d="M6.03315 24.8377c0.946075,-0.15827 1.89569,-0.291736 2.85122,-0.396855 4.32289,-0.478352 8.66822,-0.0921271 12.9072,2.24885 2.35751,1.36891 4.63825,2.70948 6.77843,4.01934 9.69579,6.78906 13.2191,9.15011 20.9542,7.1245 2.38231,-0.450006 5.3481,-1.8638 8.49695,-3.21854l0.00118112 0.498431c-3.12996,1.36065 -6.07567,2.78035 -8.44262,3.23626 -7.87687,2.0953 -11.4214,-0.284649 -21.2129,-7.15048 -2.11184,-1.28978 -4.36186,-2.61736 -6.74063,-4.01107 -4.06659,-2.20869 -8.29262,-2.55712 -12.547,-2.10593 -1.02048,0.108663 -2.03506,0.248035 -3.04728,0.413391l0.00118112 -0.657882z" />
    <path
   id="_156875248"
   class="fil28"
   d="M6.03196 25.5239c1.11734,-0.159451 2.24058,-0.297641 3.37091,-0.403942 4.33824,-0.41221 8.68121,-0.0590558 12.9474,2.16263 2.35633,1.30041 4.67486,2.59964 6.86938,3.89296 9.53161,6.59181 13.1411,8.96822 20.7735,7.1741 2.2831,-0.340162 5.07408,-1.52718 8.03041,-2.67759l0 0.490164c-2.94216,1.1634 -5.72015,2.35633 -7.99026,2.70712 -7.76584,1.86144 -11.3919,-0.527959 -21.0144,-7.19418 -2.16499,-1.27561 -4.44927,-2.56066 -6.82686,-3.88942 -4.10084,-2.0894 -8.33042,-2.40475 -12.6049,-2.01853 -1.19057,0.108663 -2.37404,0.245672 -3.55516,0.403942l0 -0.647252z" />
    <path
   id="_156873136"
   class="fil29"
   d="M6.03196 26.1795c1.29096,-0.144096 2.58665,-0.272838 3.8906,-0.376776 4.35478,-0.343705 8.69066,-0.030709 12.9876,2.07286 2.35397,1.23427 4.70675,2.49098 6.95678,3.77131 9.36862,6.39339 13.0643,8.77924 20.5928,7.21781 2.18034,-0.239767 4.80124,-1.21064 7.56505,-2.16735l0 0.485439c-2.75555,0.972059 -5.36818,1.95475 -7.53907,2.20396 -7.656,1.62994 -11.36,-0.771269 -20.816,-7.23552 -2.21578,-1.25907 -4.53667,-2.50161 -6.90835,-3.76422 -4.13863,-1.97483 -8.36821,-2.25475 -12.6663,-1.93821 -1.36065,0.101576 -2.71184,0.225593 -4.06422,0.361422l0.00118112 -0.630716z" />
    <path
   id="_156874048"
   class="fil30"
   d="M6.03078 26.7972c1.46695,-0.113387 2.93389,-0.220869 4.41265,-0.314177 4.36659,-0.276381 8.70011,0.00354335 13.0242,1.98428 2.35278,1.16931 4.74218,2.38349 7.04772,3.64611 9.20563,6.19732 12.9828,8.59735 20.4121,7.26859 2.07286,-0.150002 4.5225,-0.917728 7.09851,-1.69608l0.00118112 0.480715c-2.57483,0.796073 -5.01857,1.58152 -7.0867,1.7386 -7.54734,1.39962 -11.334,-1.01222 -20.6211,-7.27568 -2.27011,-1.24608 -4.62407,-2.44727 -6.98985,-3.64493 -4.17643,-1.85317 -8.40955,-2.10003 -12.7265,-1.85199 -1.52955,0.0897649 -3.04964,0.188979 -4.57328,0.287011l0.00118112 -0.622449z" />
    <path
   id="_156872320"
   class="fil31"
   d="M6.0296 27.3783c1.64411,-0.0614181 3.28114,-0.135828 4.93353,-0.214963 4.38194,-0.210239 8.71074,0.0377957 13.0643,1.89451 2.35042,1.10671 4.77762,2.27719 7.13631,3.52563 9.04263,5.99771 12.9061,8.40955 20.2302,7.31584 1.9642,-0.0637803 4.24375,-0.649614 6.63315,-1.25789l0.00118112 0.474809c-2.39176,0.628354 -4.67486,1.23545 -6.63551,1.30632 -7.43631,1.16812 -11.3033,-1.25553 -20.4191,-7.31702 -2.32562,-1.23309 -4.71266,-2.39058 -7.07725,-3.51973 -4.21304,-1.7386 -8.44735,-1.95121 -12.7856,-1.76813 -1.69726,0.0685048 -3.3839,0.133466 -5.08116,0.173624l0 -0.613z" />
    <path
   id="_156871768"
   class="fil32"
   d="M6.0296 27.924c1.82364,0.00944894 3.62957,-0.020079 5.45322,-0.0779537 4.39612,-0.144096 8.72137,0.0673237 13.1033,1.80475 2.34688,1.0382 4.81187,2.16853 7.22489,3.39925 8.88318,5.80165 12.8293,8.22648 20.0518,7.36308 1.84845,0.0141734 3.96028,-0.405123 6.16543,-0.857491l0.00118112 0.474809c-2.21341,0.47599 -4.3347,0.916547 -6.18433,0.910641 -7.32529,0.935445 -11.2714,-1.49648 -20.2219,-7.35954 -2.37523,-1.21773 -4.79888,-2.33507 -7.15875,-3.39571 -4.24966,-1.62285 -8.48514,-1.80357 -12.847,-1.68545 -1.8638,0.0484258 -3.71343,0.0590558 -5.58905,0.0188979l0.00118112 -0.595283z" />
    <path
   id="_156873760"
   class="fil33"
   d="M6.02842 28.4236c2.0079,0.101576 3.97918,0.135828 5.97409,0.102757 4.41265,-0.0755915 8.73318,0.101576 13.1411,1.7138 2.34806,0.974421 4.84848,2.06223 7.31584,3.28114 8.72019,5.60204 12.7502,8.03986 19.8711,7.40678 1.73034,0.0838593 3.67564,-0.187798 5.69889,-0.500794l0.00118112 0.47599c-2.03743,0.333075 -3.9969,0.627173 -5.73314,0.556306 -7.21426,0.701583 -11.2431,-1.74215 -20.0211,-7.39734 -2.43074,-1.20592 -4.88864,-2.27956 -7.24261,-3.2776 -4.28745,-1.50238 -8.5253,-1.64884 -12.9084,-1.60041 -2.02798,0.0224412 -4.04296,-0.0354335 -6.09811,-0.177168l0.00118112 -0.583472z" />
    <path
   id="_156873088"
   class="fil34"
   d="M6.02842 28.8783c2.19452,0.219688 4.33116,0.333075 6.4926,0.32835 4.43037,-0.00944894 8.74263,0.132285 13.1824,1.62876 2.34452,0.905917 4.88274,1.95002 7.40206,3.15476 8.55955,5.40597 12.6734,7.85561 19.6916,7.45521 1.60986,0.139372 3.38981,-0.00354335 5.23353,-0.191341l0.00118112 0.481896c-1.8638,0.207877 -3.66146,0.373233 -5.27959,0.240948 -7.10796,0.472447 -11.2135,-1.98191 -19.8262,-7.43867 -2.48153,-1.1882 -4.97723,-2.22404 -7.32647,-3.1524 -4.32171,-1.38663 -8.5631,-1.50002 -12.9663,-1.5201 -2.19215,-0.00826782 -4.36541,-0.148821 -6.60599,-0.411029l0.00118112 -0.576385z" />
    <path
   id="_156869680"
   class="fil35"
   d="M6.02724 29.2893c2.38704,0.361422 4.68431,0.566936 7.01465,0.597645 4.44218,0.060237 8.75208,0.166537 13.2191,1.539 2.34452,0.842136 4.91817,1.84372 7.49537,3.03193 8.39538,5.20873 12.5931,7.67135 19.5097,7.50364 1.47994,0.187798 3.09807,0.152364 4.76581,0.0767726l0.00118112 0.491345c-1.69254,0.0944894 -3.32957,0.145277 -4.82722,-0.0330713 -6.99812,0.238586 -11.1828,-2.22759 -19.6266,-7.48238 -2.53704,-1.17521 -5.06581,-2.16381 -7.41033,-3.0272 -4.3595,-1.27324 -8.60207,-1.34884 -13.0265,-1.43624 -2.35397,-0.0460636 -4.68549,-0.28583 -7.11623,-0.695678l0.00118112 -0.565755z" />
    <path
   id="_156873784"
   class="fil36"
   d="M6.02724 29.6531c2.58192,0.526778 5.04219,0.844499 7.53434,0.916547 4.46108,0.125198 8.76271,0.197247 13.2569,1.45041 2.34452,0.773632 4.9536,1.7327 7.58631,2.90791 8.2312,5.0103 12.5151,7.4871 19.3278,7.5497 1.3512,0.224412 2.80633,0.278744 4.30045,0.29646l0.00118112 0.499612c-1.52364,0 -3.00476,-0.0389769 -4.37604,-0.259846 -6.88827,0.00826782 -11.1545,-2.46735 -19.4282,-7.52371 -2.59019,-1.15868 -5.15203,-2.10593 -7.49419,-2.90319 -4.3973,-1.15868 -8.63987,-1.2012 -13.0856,-1.35356 -2.5146,-0.0850404 -5.00321,-0.439375 -7.62411,-1.0193l0.00118112 -0.561031z" />
    <path
   id="_156867856"
   class="fil37"
   d="M6.02606 29.9708c2.78507,0.715757 5.40243,1.16576 8.05404,1.28033 4.47525,0.193703 8.77452,0.229137 13.2982,1.36065 2.34097,0.707489 4.98904,1.62522 7.67254,2.78271 8.07057,4.81541 12.4372,7.30403 19.1494,7.59812 1.21773,0.250397 2.50987,0.374414 3.83391,0.466541l0 0.511424c-1.3571,-0.0779537 -2.67995,-0.191341 -3.92131,-0.438194 -6.77843,-0.224412 -11.1261,-2.70948 -19.2321,-7.56387 -2.64216,-1.1445 -5.24062,-2.0516 -7.57686,-2.78153 -4.43391,-1.04056 -8.67767,-1.05119 -13.1482,-1.27088 -2.66814,-0.131104 -5.30912,-0.615362 -8.12963,-1.38545l0 -0.559849z" />
    <path
   id="_156875272"
   class="fil38"
   d="M6.02606 30.2449c2.99177,0.929539 5.76385,1.52482 8.57491,1.68782 4.48824,0.258665 8.78515,0.258665 13.3348,1.27206 2.33979,0.640165 5.02447,1.51655 7.76466,2.66106 7.90758,4.61462 12.358,7.11741 18.9687,7.64183 1.07954,0.263389 2.21105,0.439375 3.36618,0.589377l0 0.526778c-1.19293,-0.140553 -2.36105,-0.309453 -3.47248,-0.571661 -6.66504,-0.457092 -11.0942,-2.95515 -19.0325,-7.60876 -2.69295,-1.12797 -5.3292,-1.99373 -7.65718,-2.65869 -4.47171,-0.922452 -8.72019,-0.894105 -13.2072,-1.18348 -2.82405,-0.181892 -5.61503,-0.817333 -8.64105,-1.8012l0.00118112 -0.555125z" />
    <path
   id="_156872704"
   class="fil39"
   d="M6.02606 30.4716c3.20909,1.16576 6.12882,1.92522 9.09342,2.14373 4.50478,0.324807 8.79578,0.289374 13.375,1.1823 2.33979,0.571661 5.06109,1.40435 7.85443,2.53704 7.74576,4.41738 12.2801,6.93198 18.7868,7.69025 0.936626,0.266932 1.90987,0.474809 2.89964,0.662607l0.00118112 0.538589c-1.0323,-0.181892 -2.04569,-0.387406 -3.01893,-0.657882 -6.55756,-0.688591 -11.0647,-3.19492 -18.8341,-7.64891 -2.74846,-1.11143 -5.41778,-1.93585 -7.74458,-2.5335 -4.50596,-0.805522 -8.7568,-0.747647 -13.2663,-1.10198 -2.97169,-0.23268 -5.91031,-1.03348 -9.14775,-2.25357l0.00118112 -0.558668z" />
    <path
   id="_156869200"
   class="fil40"
   d="M6.02606 30.6571c3.42996,1.42206 6.49851,2.3646 9.61429,2.63743 4.51777,0.394493 8.80523,0.324807 13.4116,1.09135 2.33861,0.512605 5.09534,1.30159 7.94301,2.41775 7.58513,4.22131 12.2021,6.74654 18.6085,7.73632 0.792529,0.257483 1.6075,0.478352 2.4331,0.683867l0 0.00354335c-0.0070867,0.181892 -0.030709,0.353154 -0.0685048,0.510242l-0.0496069 0.0141734c-0.830325,-0.199609 -1.65238,-0.413391 -2.44846,-0.66615 -6.44654,-0.92009 -11.0328,-3.43823 -18.6357,-7.68907 -2.80043,-1.09962 -5.504,-1.87916 -7.82608,-2.4083 -4.54376,-0.692135 -8.79578,-0.601189 -13.3289,-1.02048 -3.11933,-0.289374 -6.20086,-1.27088 -9.65445,-2.75082l0.00118112 -0.559849z" />
    <path
   id="_156874096"
   class="fil41"
   d="M6.02488 30.7976c3.66146,1.70317 6.87292,2.84531 10.1352,3.17839 4.53431,0.461817 8.81704,0.355516 13.4517,1.00395 2.33625,0.442919 5.12841,1.19175 8.03396,2.29019 7.41978,4.02525 12.1218,6.56347 18.4254,7.7871 0.624811,0.226774 1.26261,0.434651 1.9075,0.633079l-0.0106301 0.0472447c-0.132285,0.040158 -0.287011,0.0637803 -0.464179,0.070867l0 0.00118112 -0.0153545 0 -0.0212601 0 -0.950799 0.00118112 -0.592921 -0.206695c-6.33551,-1.15041 -11.0056,-3.68036 -18.4396,-7.72923 -2.8524,-1.08663 -5.59023,-1.82483 -7.90876,-2.289 -4.58155,-0.571661 -8.83357,-0.4441 -13.3868,-0.935445 -3.26343,-0.350792 -6.48551,-1.52955 -10.1635,-3.28469l0 -0.568117z" />
    <path
   id="_156870664"
   class="fil42"
   d="M6.02488 30.8945c3.89887,2.0079 7.2497,3.36855 10.656,3.76422 4.54848,0.525597 8.82531,0.383863 13.4895,0.910641 2.33625,0.38032 5.16502,1.08545 8.12372,2.17326 7.25678,3.82446 12.0438,6.37567 18.2459,7.83081l0.601189 0.236223 -2.0705 0.00354335c-5.60794,-1.43978 -10.186,-3.88351 -16.9337,-7.4623 -2.90791,-1.07127 -5.68117,-1.76931 -7.9938,-2.16499 -4.61817,-0.455911 -8.87137,-0.292917 -13.447,-0.849223 -3.40516,-0.414572 -6.76071,-1.80947 -10.6714,-3.86343l0 -0.578747z" />
    <path
   id="_156874576"
   class="fil43"
   d="M6.02488 30.9547c4.14336,2.3268 7.6312,3.92013 11.1745,4.38431 4.56502,0.595283 8.83712,0.419296 13.5285,0.82442 2.33389,0.310634 5.19928,0.976784 8.21231,2.04688 6.72056,3.43587 11.4415,5.91503 17.1038,7.60049l-2.00908 0.00236223c-4.89219,-1.61341 -9.26232,-3.90832 -15.247,-6.98631 -2.95988,-1.05474 -5.76857,-1.71262 -8.0753,-2.03979 -4.65596,-0.338981 -8.91153,-0.144096 -13.5073,-0.771269 -3.54453,-0.479533 -7.03473,-2.10121 -11.1816,-4.46935l0.00118112 -0.59174z" />
    <path
   id="_156867400"
   class="fil44"
   d="M6.02488 30.976c4.39612,2.66932 8.01506,4.5095 11.6931,5.04455 4.58037,0.663788 8.84893,0.451187 13.5687,0.734655 2.33152,0.245672 5.23353,0.865759 8.30207,1.92522 6.02252,2.97641 10.5509,5.31266 15.5671,7.13276l-1.76577 0.00118112c-4.40793,-1.68663 -8.569,-3.828 -13.949,-6.51032 -3.01303,-1.04056 -5.85716,-1.65356 -8.1627,-1.91695 -4.69022,-0.223231 -8.94932,0.00354335 -13.5651,-0.685048 -3.67564,-0.551582 -7.29812,-2.41302 -11.6895,-5.1166l0.00118112 -0.609456z" />
    <path
   id="_156873448"
   class="fil45"
   d="M6.02488 30.963c4.65833,3.02602 8.40128,5.13313 12.2127,5.73905 4.59691,0.72993 8.85956,0.483077 13.6088,0.647252 2.32916,0.17953 5.26896,0.753553 8.39065,1.79766 5.45204,2.60436 9.78083,4.78825 14.3376,6.66622l-1.6323 0.00118112c-4.03233,-1.7079 -7.98199,-3.69453 -12.8506,-6.03315 -3.06854,-1.02639 -5.94574,-1.59805 -8.2442,-1.7953 -4.72801,-0.103938 -8.98948,0.157089 -13.6289,-0.600007 -3.80438,-0.624811 -7.55088,-2.74728 -12.195,-5.80047l0.00118112 -0.622449z" />
    <path
   id="_156869920"
   class="fil46"
   d="M6.02488 30.9157c4.92526,3.4028 8.79696,5.78393 12.7336,6.46425 4.6099,0.797254 8.87019,0.519691 13.6443,0.561031 2.33034,0.113387 5.30676,0.649614 8.4816,1.676 4.96542,2.27837 9.08988,4.31344 13.2899,6.19614l-1.55435 0.00118112c-3.72642,-1.68545 -7.46112,-3.51619 -11.8785,-5.55479 -3.11933,-1.01222 -6.03196,-1.54254 -8.32687,-1.67364 -4.76463,0.0106301 -9.02728,0.310634 -13.6856,-0.51851 -3.93076,-0.694497 -7.8001,-3.08626 -12.7053,-6.50323l0.00118112 -0.648433z" />
    <path
   id="_156868480"
   class="fil47"
   d="M6.02488 30.8354c5.19928,3.79139 9.19145,6.46898 13.2521,7.22844 4.62643,0.863396 8.88082,0.548038 13.6832,0.467722 2.33034,0.0496069 5.34219,0.540952 8.57255,1.55553 4.53076,1.99254 8.44735,3.87524 12.3509,5.72605l-1.51537 0.00118112c-3.45359,-1.62522 -6.96859,-3.30122 -10.9749,-5.0788 -3.1713,-0.995682 -6.12173,-1.48585 -8.40955,-1.55081 -4.80242,0.127561 -9.06625,0.458273 -13.7494,-0.43347 -4.05241,-0.775994 -8.04104,-3.45004 -13.2096,-7.24615l0 -0.669693z" />
    <path
   id="_156875128"
   class="fil48"
   d="M6.02488 30.7232c5.48511,4.19651 9.59303,7.18237 13.7706,8.01978 4.64297,0.933082 8.89381,0.579928 13.7246,0.383863 2.32562,-0.0212601 5.37644,0.429927 8.66231,1.42797 4.13391,1.73388 7.83907,3.46894 11.4805,5.25951l-1.49648 0.00118112c-3.20437,-1.54963 -6.49142,-3.06972 -10.121,-4.60163 -3.22563,-0.98387 -6.20913,-1.42797 -8.49459,-1.42679 -4.83785,0.242129 -9.10405,0.608275 -13.8084,-0.353154 -4.17407,-0.851585 -8.2749,-3.82446 -13.7175,-8.0127l0 -0.69804z" />
    <path
   id="_156872536"
   class="fil49"
   d="M6.02606 30.585c5.77448,4.61226 9.99461,7.91703 14.2903,8.84302 4.65714,0.998044 8.90326,0.609456 13.7624,0.288193 2.32562,-0.0850404 5.4107,0.325988 8.7509,1.30868 3.76658,1.5012 7.25442,3.07917 10.6572,4.78943l-1.49293 0.00118112c-2.97051,-1.44805 -6.02133,-2.8087 -9.29657,-4.12564 -3.28114,-0.968516 -6.29772,-1.37364 -8.57845,-1.30513 -4.87565,0.360241 -9.14184,0.76182 -13.8675,-0.26457 -4.291,-0.934263 -8.50522,-4.21423 -14.2266,-8.80995l0.00118112 -0.725206z" />
    <path
   id="_156870688"
   class="fil50"
   d="M6.02606 30.4197c6.07212,5.04455 10.4033,8.68121 14.8124,9.68752 4.66896,1.06419 8.90916,0.64489 13.7978,0.203152 2.32444,-0.152364 5.44613,0.212601 8.84184,1.18112 3.42406,1.28624 6.68512,2.71657 9.85878,4.32289l-1.50592 0.00118112c-2.73665,-1.32994 -5.54534,-2.53822 -8.48396,-3.65083 -3.33075,-0.949618 -6.38512,-1.3134 -8.66113,-1.17757 -4.91108,0.47599 -9.18082,0.90946 -13.9277,-0.186616 -4.4032,-1.01458 -8.72609,-4.61462 -14.7333,-9.62492l0.00118112 -0.755915z" />
    <path
   id="_156873184"
   class="fil51"
   d="M6.02606 30.233c6.37567,5.48393 10.8119,9.46193 15.3309,10.5556 4.68549,1.13151 8.92216,0.674418 13.8391,0.113387 2.32208,-0.218507 5.48038,0.103938 8.93042,1.05946 3.09807,1.09253 6.12291,2.3646 9.07452,3.8528l-1.53073 0.00118112c-2.50161,-1.19765 -5.0599,-2.24648 -7.67135,-3.17484 -3.38508,-0.933082 -6.4737,-1.25671 -8.74499,-1.05474 -4.94888,0.592921 -9.2198,1.06064 -13.9868,-0.100395 -4.51423,-1.1008 -8.9446,-5.02565 -15.2423,-10.4682l0.00118112 -0.784262z" />
    <path
   id="_156872872"
   class="fil52"
   d="M6.02606 30.0228c6.68748,5.93629 11.2277,10.2651 15.8494,11.4462 4.70321,1.2012 8.93279,0.70867 13.8793,0.0259846 2.31853,-0.284649 5.51582,-0.00354335 9.01901,0.933082 2.78744,0.914184 5.57015,2.03152 8.30089,3.38626l-1.5827 0.00118112c-2.25711,-1.04765 -4.54494,-1.94058 -6.84103,-2.69767 -3.43823,-0.921271 -6.56347,-1.19883 -8.82767,-0.93072 -4.98668,0.711032 -9.25878,1.21064 -14.0482,-0.0177168 -4.61935,-1.1882 -9.15602,-5.4544 -15.7502,-11.3328l0.00118112 -0.81379z" />
    <path
   id="_156871384"
   class="fil53"
   d="M6.02724 29.7937c7.00402,6.39693 11.6446,11.0871 16.3679,12.3568 4.71738,1.26616 8.9446,0.739379 13.9171,-0.0649614 2.31971,-0.349611 5.55007,-0.109844 9.10995,0.81379 2.48507,0.748828 5.0162,1.71262 7.51781,2.915l-1.65474 0.00118112c-1.99727,-0.884657 -4.00399,-1.62049 -5.98236,-2.2205 -3.49256,-0.905917 -6.65087,-1.14332 -8.91271,-0.807884 -5.02329,0.826782 -9.29775,1.36183 -14.1084,0.0649614 -4.72211,-1.27679 -9.35681,-5.89023 -16.2557,-12.2139l0.00118112 -0.844499z" />
    <path
   id="_156867880"
   class="fil54"
   d="M6.02724 29.5468l0.354335 0.325988c7.12686,6.69811 11.7887,11.6222 16.5333,12.9569 4.73274,1.33584 8.95523,0.774813 13.9573,-0.151183 2.31617,-0.415753 5.5855,-0.220869 9.19972,0.68741 2.18389,0.597645 4.44927,1.40789 6.7052,2.44846l-1.74215 0.00118112c-1.71498,-0.70867 -3.42288,-1.28742 -5.08353,-1.74333 -3.54335,-0.894105 -6.73591,-1.08781 -8.99302,-0.686229 -5.0599,0.943712 -9.33673,1.51183 -14.1687,0.148821 -4.81896,-1.36065 -9.55051,-6.32724 -16.7471,-13.095l-0.0165356 -0.0165356 0.00118112 -0.876389z" />
   </g>
   <g
   id="g4104">
    <path
   id="_156868936"
   class="fil55"
   d="M9.18909 8.02687c-1.02285,1.57207 -2.06223,3.3154 -3.13941,5.24652l0.00236223 -2.09176c0.635441,-1.11497 1.26025,-2.16499 1.87798,-3.15476l1.25907 0z" />
    <path
   id="_156869392"
   class="fil56"
   d="M9.15011 8.02687c-1.0134,1.48585 -2.03979,3.13587 -3.10043,4.96069l0.00236223 -2.06459c0.607094,-1.02167 1.20592,-1.98664 1.7953,-2.8961l1.30277 0z" />
    <path
   id="_156872824"
   class="fil57"
   d="M9.14893 8.02687c-1.01458,1.41734 -2.04333,2.99059 -3.09925,4.73392l0.00236223 -2.03743c0.588196,-0.950799 1.16812,-1.84845 1.74333,-2.69649l1.35356 0z" />
    <path
   id="_156867424"
   class="fil58"
   d="M9.17728 8.02687c-1.02875,1.36183 -2.06577,2.87484 -3.1276,4.55557l0.00354335 -2.01144c0.578747,-0.896468 1.15159,-1.74333 1.71971,-2.54413l1.40435 0z" />
    <path
   id="_156872992"
   class="fil59"
   d="M9.25287 8.02687c-1.05592,1.32167 -2.11892,2.79452 -3.20319,4.43628l0.00354335 -1.989c0.583472,-0.863396 1.16104,-1.67837 1.73506,-2.44727l1.46458 0z" />
    <path
   id="_156872416"
   class="fil60"
   d="M9.37334 8.02687c-1.09844,1.29687 -2.19806,2.74846 -3.32248,4.37131l0.00236223 -1.97247c0.600007,-0.848042 1.19175,-1.64648 1.78349,-2.39885l1.53663 0z" />
    <path
   id="_156874864"
   class="fil61"
   d="M9.54579 8.02687c-1.15986,1.28387 -2.31735,2.72838 -3.49492,4.35478l0.00236223 -1.95357c0.629535,-0.850404 1.25553,-1.65002 1.87798,-2.40121l1.61459 0z" />
    <path
   id="_156872176"
   class="fil62"
   d="M9.77256 8.02805c-1.23899,1.28269 -2.46972,2.73547 -3.7217,4.38549l0.00236223 -1.94058c0.674418,-0.870483 1.34529,-1.68427 2.01499,-2.44609l1.70435 0.00118112z" />
    <path
   id="_156872152"
   class="fil63"
   d="M10.0667 8.02805c-1.34175,1.29332 -2.67051,2.76972 -4.01698,4.46344l0.00354335 -1.93113c0.735836,-0.907098 1.46813,-1.74923 2.2016,-2.5335l1.81183 0.00118112z" />
    <path
   id="_156871960"
   class="fil64"
   d="M10.4293 8.02805c-1.46931,1.31458 -2.91618,2.82877 -4.37958,4.58391l0.00354335 -1.9205c0.817333,-0.960248 1.62994,-1.84609 2.44491,-2.6646l1.93113 0.00118112z" />
    <path
   id="_156872080"
   class="fil65"
   d="M10.871 8.02805c-1.62876,1.34293 -3.21736,2.90909 -4.82132,4.74691l0.00236223 -1.91341c0.916547,-1.02993 1.83191,-1.97128 2.752,-2.83468l2.06695 0.00118112z" />
    <path
   id="_156869176"
   class="fil66"
   d="M11.3966 8.02805c-1.81656,1.38073 -3.57642,3.00949 -5.34692,4.9477l0.00236223 -1.9075c1.03938,-1.11616 2.0764,-2.12601 3.12642,-3.04138l2.21814 0.00118112z" />
    <path
   id="_156869368"
   class="fil67"
   d="M12.012 8.02805c-2.04097,1.42443 -3.99926,3.12405 -5.96228,5.18038l0.00236223 -1.9016c1.18466,-1.21655 2.36814,-2.30318 3.5717,-3.27996l2.38822 0.00118112z" />
    <path
   id="_156871480"
   class="fil68"
   d="M12.7194 8.02805c-2.30318,1.4764 -4.48706,3.25634 -6.67095,5.44731l0.00236223 -1.90042c1.35238,-1.32994 2.70712,-2.50397 4.09257,-3.54689l2.57602 0z" />
    <path
   id="_156870232"
   class="fil69"
   d="M13.5262 8.02805c-2.60672,1.53663 -5.04809,3.40516 -7.47765,5.74495l0.00236223 -1.89924c1.5449,-1.45986 3.09689,-2.72956 4.69612,-3.84572l2.77917 0z" />
    <path
   id="_156869704"
   class="fil70"
   d="M14.4155 8.02923c-2.94925,1.6075 -5.66936,3.56815 -8.36703,6.06622l0.00236223 -1.89924c1.75986,-1.59923 3.53272,-2.97287 5.37763,-4.16816l2.98704 0.00118112z" />
    <path
   id="_156869512"
   class="fil71"
   d="M15.384 8.02923c-3.32721,1.68782 -6.35205,3.74887 -9.33673,6.41346l0.00236223 -1.90278c1.99609,-1.75042 4.01462,-3.23035 6.1359,-4.51187l3.19846 0.00118112z" />
    <path
   id="_156416264"
   class="fil72"
   d="M16.4022 8.02923c-3.73233,1.78585 -7.07371,3.94847 -10.3549,6.78079l0.00236223 -1.90632c2.25003,-1.90868 4.53431,-3.50201 6.96032,-4.87565l3.39217 0.00118112z" />
    <path
   id="_156417512"
   class="fil73"
   d="M17.4392 8.02923c-4.15163,1.89687 -7.81309,4.1658 -11.3931,7.15993l0.00354335 -1.90632c2.51932,-2.06932 5.08353,-3.77957 7.84025,-5.25479l3.54926 0.00118112z" />
    <path
   id="_156417824"
   class="fil74"
   d="M18.4679 8.02923c-4.57447,2.0268 -8.55247,4.41029 -12.4218,7.55915l0.00236223 -1.91223c2.78744,-2.22877 5.63865,-4.05832 8.7379,-5.64692l3.68154 0z" />
    <path
   id="_156415184"
   class="fil75"
   d="M19.4447 8.03041c-4.97841,2.1768 -9.25405,4.67368 -13.3998,7.96663l0.00354335 -1.91695c3.05319,-2.38586 6.19023,-4.33942 9.63791,-6.05086l3.75831 0.00118112z" />
    <path
   id="_156414464"
   class="fil76"
   d="M20.3495 8.03041c-5.35164,2.34215 -9.90721,4.96423 -14.3045,8.38593l0.00236223 -1.92286c3.31067,-2.53704 6.72292,-4.6158 10.5119,-6.46425l3.7902 0.00118112z" />
    <path
   id="_156419432"
   class="fil77"
   d="M21.1432 8.03041c-5.67527,2.5205 -10.4777,5.27487 -15.0994,8.81349l0.00354335 -1.93349c3.55044,-2.67405 7.22253,-4.88274 11.3316,-6.88119l3.76422 0.00118112z" />
    <path
   id="_156417608"
   class="fil78"
   d="M21.8282 8.03041c-5.95165,2.71066 -10.9679,5.60322 -15.7844,9.24342l0.00236223 -1.94058c3.76776,-2.80751 7.67135,-5.14731 12.0687,-7.30403l3.71343 0.00118112z" />
    <path
   id="_156421352"
   class="fil79"
   d="M22.3798 8.03041c-6.16425,2.90791 -11.3564,5.94456 -16.3372,9.67453l0.00354335 -1.95239c3.9591,-2.92208 8.06703,-5.39889 12.7147,-7.72214l3.61894 0z" />
    <path
   id="_156415592"
   class="fil80"
   d="M22.8133 8.03041c-6.32134,3.10398 -11.6517,6.28827 -16.7707,10.1009l0.00236223 -1.96184c4.1221,-3.02956 8.40128,-5.64338 13.2486,-8.13908l3.51973 0z" />
    <path
   id="_156415784"
   class="fil81"
   d="M23.1121 8.03159c-6.41346,3.29886 -11.849,6.6367 -17.0707,10.5249l0.00354335 -1.97601c4.25793,-3.13114 8.6753,-5.88078 13.6773,-8.55011l3.38981 0.00118112z" />
    <path
   id="_156413888"
   class="fil82"
   d="M23.2999 8.03159c-6.45008,3.49256 -11.96,6.98394 -17.2585,10.9442l0.00236223 -1.98546c4.36305,-3.22091 8.88672,-6.11464 13.9927,-8.95995l3.26343 0.00118112z" />
    <path
   id="_156414080"
   class="fil83"
   d="M23.3672 8.03159c-6.43354,3.67918 -11.9777,7.32647 -17.3258,11.3517l0.00236223 -1.99727c4.43982,-3.30595 9.03436,-6.3426 14.1935,-9.35563l3.12996 0.00118112z" />
    <path
   id="_156419528"
   class="fil84"
   d="M23.0164 8.03041l-0.377957 0.418115c-6.07803,3.71579 -11.4167,7.39025 -16.5982,11.3328l0.00236223 -2.01735c4.49415,-3.38626 9.12885,-6.55638 14.2939,-9.73358l2.67995 0z" />
    <path
   id="_156416840"
   class="fil85"
   d="M22.5841 8.03041l-0.797254 0.910641c-5.68353,3.71225 -10.7777,7.3808 -15.7467,11.223l0.00236223 -2.03152c4.51777,-3.45949 9.16192,-6.76898 14.2856,-10.1021l2.25593 0z" />
    <path
   id="_156415520"
   class="fil86"
   d="M22.1188 8.03041c-0.389769,0.467722 -0.785443,0.934263 -1.18584,1.4008 -5.29967,3.70162 -10.1411,7.35363 -14.8939,11.0966l0.00354335 -2.05042c4.51895,-3.53154 9.13594,-6.96741 14.1852,-10.447l1.89097 0z" />
    <path
   id="_156414344"
   class="fil87"
   d="M21.6333 8.03041c-0.509061,0.631898 -1.02639,1.2638 -1.55317,1.89215 -4.92408,3.67564 -9.50917,7.2993 -14.0411,10.9513l0.00236223 -2.06932c4.33942,-3.4713 8.74617,-6.91308 13.4765,-10.3974l0.311815 -0.376776 1.80357 0z" />
    <path
   id="_156421640"
   class="fil88"
   d="M21.1231 8.03041c-0.617724,0.797254 -1.2508,1.59215 -1.89805,2.38468 -4.55675,3.63666 -8.88318,7.21899 -13.1872,10.7777l0.00354335 -2.09176c4.1032,-3.37681 8.24183,-6.76662 12.6061,-10.206l0.701583 -0.864578 1.77404 0z" />
    <path
   id="_156416552"
   class="fil89"
   d="M20.5975 8.03041c-0.7193,0.961429 -1.46222,1.92168 -2.22522,2.87602 -4.20478,3.58351 -8.26546,7.1115 -12.3344,10.5793l0.00354335 -2.11302c3.86107,-3.28114 7.72805,-6.61071 11.7344,-9.98634 0.360241,-0.451187 0.715757,-0.903554 1.06773,-1.35592l1.75396 0z" />
    <path
   id="_156417560"
   class="fil90"
   d="M20.0483 8.03041c-0.81379,1.1256 -1.65829,2.24767 -2.53113,3.365 -3.85871,3.51737 -7.65009,6.98158 -11.4793,10.3537l0.00236223 -2.14255c3.61304,-3.17839 7.20599,-6.43236 10.8651,-9.73122 0.479533,-0.613 0.950799,-1.22954 1.41262,-1.84609l1.73034 0.00118112z" />
    <path
   id="_156417320"
   class="fil91"
   d="M19.4837 8.03041c-0.902373,1.2886 -1.84136,2.57838 -2.81933,3.85871 -3.52327,3.43351 -7.04536,6.81623 -10.6265,10.0879l0.00236223 -2.17089c3.35792,-3.07209 6.67213,-6.23393 9.99343,-9.44067 0.592921,-0.777175 1.17285,-1.55553 1.73742,-2.33625l1.71262 0.00118112z" />
    <path
   id="_156417272"
   class="fil92"
   d="M18.9061 8.03041c-0.982689,1.45277 -2.01735,2.90673 -3.09453,4.35005 -3.20083,3.33311 -6.44772,6.6178 -9.77492,9.78319l0.00354335 -2.20515c3.09571,-2.95279 6.12645,-6.00598 9.12177,-9.10405 0.701583,-0.938988 1.38309,-1.88152 2.04451,-2.82523l1.69963 0.00118112z" />
    <path
   id="_156415400"
   class="fil93"
   d="M18.3085 8.02923c-1.05828,1.61695 -2.1768,3.23744 -3.35083,4.84376 -2.88547,3.21618 -5.8548,6.38866 -8.92098,9.43712l0.00354335 -2.24767c2.82523,-2.82641 5.57251,-5.75322 8.25128,-8.719 0.805522,-1.1008 1.58624,-2.20751 2.33625,-3.31421l1.68073 0z" />
    <path
   id="_156414800"
   class="fil94"
   d="M17.7038 8.02923c-1.12915,1.77994 -2.33152,3.56461 -3.60004,5.33392 -2.57838,3.08035 -5.26778,6.11819 -8.06703,9.03909l0.00354335 -2.289c2.55003,-2.6835 5.01148,-5.46267 7.37962,-8.27963 0.905917,-1.26261 1.7764,-2.53468 2.61027,-3.80438l1.67364 0z" />
    <path
   id="_156417992"
   class="fil95"
   d="M17.0825 8.02923c-1.19529,1.94176 -2.47562,3.89296 -3.83272,5.82527 -2.28074,2.92445 -4.68903,5.80755 -7.21308,8.58081l0.00354335 -2.34097c2.26538,-2.52405 4.43864,-5.13195 6.50795,-7.77057 1.00277,-1.42679 1.96184,-2.86067 2.87366,-4.29454l1.66065 0z" />
    <path
   id="_156420416"
   class="fil96"
   d="M16.4494 8.02923c-1.25435,2.10593 -2.60791,4.22131 -4.05241,6.31898 -1.99254,2.73665 -4.11974,5.44377 -6.36031,8.05285l0.00354335 -2.40121c1.97719,-2.33861 3.86225,-4.74691 5.63865,-7.1871 1.0949,-1.5886 2.139,-3.18783 3.12287,-4.78352l1.64766 0z" />
   </g>
   <g
   id="g4148">
    <path
   id="_156418424"
   class="fil97"
   d="M57.9952 16.2959l-2.57838 1.45514c-18.5825,11.1143 -24.3275,14.3718 -37.641,13.5427 -3.30358,-0.198428 -7.32883,-1.13269 -11.7486,-2.1142l-0.00118112 0.637803c4.31108,0.96261 8.24065,1.8638 11.4746,2.05987 13.5947,0.849223 19.401,-2.452 38.1997,-13.701l2.29609 -1.29687 -0.00118112 -0.583472z" />
    <path
   id="_156414920"
   class="fil98"
   d="M57.9952 16.075c-1.31576,0.689772 -2.59137,1.35238 -3.82564,1.98782 -18.2813,10.6915 -24.1869,13.7954 -37.4036,13.0088 -3.07327,-0.173624 -6.73709,-0.938988 -10.7387,-1.77758l-0.00118112 0.635441c3.90241,0.822057 7.47411,1.56144 10.4812,1.72797 13.4848,0.807884 19.4459,-2.33743 37.9328,-13.1612 1.14686,-0.59174 2.33389,-1.2071 3.55634,-1.84845l-0.00118112 -0.572842z" />
    <path
   id="_156420200"
   class="fil99"
   d="M57.9952 15.9486c-1.74569,0.850404 -3.43823,1.65829 -5.07172,2.42365 -17.9813,10.271 -24.0475,13.2214 -37.1686,12.4773 -2.82996,-0.148821 -6.13708,-0.764183 -9.72768,-1.46577l-0.00118112 0.628354c3.49847,0.688591 6.71937,1.28624 9.48791,1.42797 13.3726,0.765364 19.4896,-2.22759 37.6646,-12.6238 1.55199,-0.732292 3.15476,-1.50002 4.81778,-2.30908l-0.00118112 -0.558668z" />
    <path
   id="_156417368"
   class="fil100"
   d="M57.9952 15.9096c-2.17326,0.982689 -4.28273,1.90396 -6.31898,2.77562 -17.6801,9.84461 -23.907,12.6415 -36.9323,11.9399 -2.57838,-0.122836 -5.52999,-0.609456 -8.71664,-1.1823l-0.00118112 0.627173c3.10043,0.561031 5.97409,1.03348 8.49105,1.15395 13.2675,0.718119 19.5357,-2.11538 37.4012,-12.0887 1.95475,-0.837412 3.978,-1.72679 6.07803,-2.68114l-0.00118112 -0.544495z" />
    <path
   id="_156416504"
   class="fil101"
   d="M57.9952 15.9439c-2.58783,1.09253 -5.11778,2.10239 -7.56387,3.05082 -17.3778,9.42177 -23.7712,12.0675 -36.6973,11.4072 -2.31735,-0.0992138 -4.91817,-0.471266 -7.70679,-0.927177l-0.00118112 0.628354c2.71184,0.445281 5.24062,0.804341 7.49773,0.902373 13.1553,0.677961 19.5782,-2.00436 37.1331,-11.5525 2.36814,-0.917728 4.81305,-1.89687 7.33946,-2.97169l-0.00118112 -0.537408z" />
    <path
   id="_156416624"
   class="fil102"
   d="M57.9952 16.0573c-2.98941,1.17994 -5.94338,2.25357 -8.80995,3.25161 -17.0778,8.99775 -23.6318,11.4864 -36.4634,10.8722 -2.04333,-0.0803159 -4.2969,-0.356697 -6.69457,-0.706308l-0.00118112 0.628354c2.3268,0.338981 4.51541,0.607094 6.50441,0.685048 13.0454,0.631898 19.6231,-1.89569 36.865,-11.0127 2.78862,-0.979146 5.65637,-2.02562 8.60089,-3.19846l-0.00118112 -0.519691z" />
    <path
   id="_156418208"
   class="fil103"
   d="M57.9952 16.2309c-3.37563,1.24372 -6.75717,2.35751 -10.0548,3.38862 -16.7789,8.57609 -23.4936,10.9123 -36.2296,10.336 -1.76223,-0.0614181 -3.66973,-0.258665 -5.68353,-0.513786l-0.00118112 0.628354c1.94884,0.249216 3.79965,0.439375 5.50991,0.499612 12.9344,0.59174 19.668,-1.78231 36.5981,-10.4741 3.22209,-1.01104 6.51858,-2.10357 9.86233,-3.35437l-0.00118112 -0.510242z" />
    <path
   id="_156416984"
   class="fil104"
   d="M57.9964 16.4778c-3.73587,1.29096 -7.55206,2.41066 -11.3033,3.4524 -16.4778,8.15325 -23.353,10.336 -35.991,9.80445 -1.47049,-0.0448824 -3.03665,-0.175986 -4.67486,-0.351973l-0.00118112 0.627173c1.5827,0.171262 3.09335,0.300004 4.51541,0.346067 12.8257,0.546857 19.714,-1.67482 36.3312,-9.94028 3.66855,-1.02639 7.40088,-2.12955 11.1238,-3.44414l0 -0.493707z" />
    <path
   id="_156420032"
   class="fil105"
   d="M57.9964 16.7908l-0.119293 0.0318902c-4.03115,1.30159 -8.24892,2.40121 -12.4313,3.41933 -16.1766,7.73041 -23.2125,9.75957 -35.756,9.26822 -1.16812,-0.0295279 -2.39294,-0.111025 -3.66264,-0.223231l-0.00118112 0.633079c1.21891,0.108663 2.39649,0.184254 3.51973,0.214963 12.7171,0.505518 19.7601,-1.56144 36.0666,-9.40169 4.1221,-1.0134 8.27254,-2.10239 12.3332,-3.45595l0.050788 -0.0129923 0 -0.473628z" />
    <path
   id="_156415568"
   class="fil106"
   d="M57.9964 17.2349c-0.414572,0.0897649 -0.829144,0.184254 -1.2449,0.284649 -4.01107,1.16576 -8.27727,2.12955 -12.5517,3.03311 -15.8742,7.30757 -23.0731,9.182 -35.5209,8.73436 -0.857491,-0.0177168 -1.74215,-0.0637803 -2.65161,-0.125198l0 0.637803c0.865759,0.0578747 1.7079,0.0992138 2.52523,0.118112 12.6061,0.460636 19.8026,-1.44923 35.7997,-8.86192 4.2095,-0.901192 8.40955,-1.86144 12.4395,-3.07681 0.402761,-0.0885838 0.804341,-0.172443 1.20592,-0.251578l-0.00118112 -0.492526z" />
    <path
   id="_156418832"
   class="fil107"
   d="M57.9976 17.7817c-0.788986,0.129923 -1.58033,0.274019 -2.37523,0.432289 -3.98627,1.03466 -8.30089,1.86026 -12.6687,2.65043 -15.5742,6.88473 -22.9337,8.60562 -35.2847,8.20168 -0.537408,-0.0106301 -1.08427,-0.030709 -1.64175,-0.0566936l0 0.640165c0.519691,0.0248035 1.02993,0.0413391 1.53191,0.050788 12.495,0.416934 19.8451,-1.33702 35.5315,-8.32687 4.29808,-0.785443 8.54538,-1.61104 12.5482,-2.69058 0.787805,-0.146458 1.57561,-0.277562 2.35987,-0.393312l-0.00118112 -0.50788z" />
    <path
   id="_156420080"
   class="fil108"
   d="M57.9987 18.4172c-1.1634,0.138191 -2.33034,0.303547 -3.50437,0.49725 -3.96265,0.891743 -8.32806,1.58742 -12.7856,2.2642 -15.2742,6.45953 -22.7956,8.02569 -35.0508,7.66545l-0.629535 -0.0165356 -0.00118112 0.640165 0.536227 0.0129923c12.3852,0.377957 19.8924,-1.22482 35.2658,-7.78474 4.38903,-0.673237 8.68239,-1.37364 12.6568,-2.31499 1.17757,-0.170081 2.34688,-0.314177 3.51264,-0.429927l0 -0.533865z" />
    <path
   id="_156414152"
   class="fil109"
   d="M57.9999 19.1459c-1.53427,0.112206 -3.07563,0.26457 -4.63352,0.466541 -3.94021,0.753553 -8.35404,1.31222 -12.9025,1.87443 -14.8171,5.97527 -22.4967,7.41978 -34.4355,7.14339l-0.00118112 0.646071c12.0084,0.282287 19.6668,-1.20474 34.5406,-7.26269 4.47761,-0.561031 8.8194,-1.1256 12.7643,-1.92995 1.56734,-0.172443 3.12051,-0.297641 4.66777,-0.381501l0 -0.556306z" />
    <path
   id="_156415232"
   class="fil110"
   d="M58.0011 19.9573c-1.90514,0.0566936 -3.81855,0.1689 -5.76267,0.354335 -3.91658,0.613 -8.38239,1.0382 -13.0218,1.48939 -14.1014,5.39416 -21.8979,6.76426 -33.1882,6.62016l-0.00118112 0.651977c11.3541,0.151183 19.1258,-1.25907 33.2791,-6.73945 4.56856,-0.447643 8.95523,-0.881113 12.873,-1.54844 1.95947,-0.145277 3.89178,-0.223231 5.82173,-0.244491l0 -0.583472z" />
    <path
   id="_156421448"
   class="fil111"
   d="M58.0023 20.8444c-2.27601,-0.0236223 -4.56265,0.0236223 -6.89064,0.161813 -3.89532,0.480715 -8.40955,0.77245 -13.1423,1.10198 -13.388,4.83667 -21.2542,6.12882 -31.9409,6.09456l0 0.65552c10.7387,0.0377957 18.5766,-1.28624 32.0189,-6.20323 4.65478,-0.335437 9.08988,-0.638984 12.9793,-1.16812 2.3516,-0.090946 4.66659,-0.0921271 6.97686,-0.0295279l-0.00118112 -0.613z" />
    <path
   id="_156419192"
   class="fil112"
   d="M58.0035 21.807c-2.64925,-0.118112 -5.30321,-0.165356 -8.01978,-0.103938 -3.86934,0.346067 -8.43317,0.503156 -13.2592,0.720481 -12.6828,4.29454 -20.5692,5.49337 -30.6949,5.54889l-0.00118112 0.661425c10.1694,-0.050788 18.025,-1.28269 30.7575,-5.65991 4.74573,-0.218507 9.22925,-0.392131 13.0891,-0.785443 2.74492,-0.0070867 5.43432,0.0897649 8.12963,0.25394l-0.00118112 -0.635441z" />
    <path
   id="_156416144"
   class="fil113"
   d="M58.0047 22.8428c-3.02602,-0.238586 -6.04259,-0.402761 -9.14893,-0.440557 -3.8469,0.204333 -8.46152,0.227956 -13.3773,0.329532 -11.9848,3.7843 -19.8487,4.87565 -29.4488,4.99967l-0.00118112 0.668512c9.63437,-0.124017 17.4687,-1.2508 29.496,-5.10597 4.83549,-0.109844 9.36508,-0.146458 13.1954,-0.403942 3.14295,0.101576 6.20441,0.322445 9.28594,0.608275l-0.00118112 -0.65552z" />
    <path
   id="_156415712"
   class="fil114"
   d="M58.0058 23.9377c-3.40398,-0.366146 -6.78315,-0.669693 -10.2781,-0.838593 -3.82209,0.0673237 -8.48751,-0.0413391 -13.4943,-0.0519691 -11.2986,3.28823 -19.0939,4.26974 -28.2039,4.441l-0.00118112 0.668512c9.13594,-0.1689 16.8994,-1.18348 28.2346,-4.54258 4.92526,0.00118112 9.5009,0.0956705 13.3053,-0.0224412 3.53626,0.242129 6.96387,0.607094 10.4387,1.02521l-0.00118112 -0.679142z" />
    <path
   id="_156418328"
   class="fil115"
   d="M58.0082 25.0893c-3.78784,-0.509061 -7.52017,-0.967335 -11.4096,-1.29096 -3.79847,-0.0744104 -8.51231,-0.315358 -13.6124,-0.439375 -10.6206,2.81696 -18.3061,3.68627 -26.9566,3.88115l0 0.67678c8.66704,-0.198428 16.3195,-1.09726 26.972,-3.98391 5.01384,0.115749 9.63673,0.340162 13.4139,0.362603 3.93312,0.406304 7.72096,0.937807 11.5938,1.49648l-0.00118112 -0.702765z" />
    <path
   id="_156417152"
   class="fil116"
   d="M58.0094 26.3035c-4.18115,-0.654339 -8.25955,-1.29805 -12.5387,-1.80829 -3.77603,-0.207877 -8.53829,-0.585834 -13.7305,-0.825601 -9.95918,2.37641 -17.49,3.12051 -25.7094,3.32366l-0.00118112 0.681504c8.2253,-0.210239 15.7254,-0.980327 25.7106,-3.42406 5.10361,0.230318 9.77374,0.588196 13.5214,0.742923 4.33234,0.600007 8.46979,1.31222 12.749,2.02089l-0.00118112 -0.711032z" />
    <path
   id="_156420848"
   class="fil117"
   d="M58.0117 27.5531c-4.58273,-0.803159 -8.99775,-1.64057 -13.6679,-2.36105 -3.75241,-0.344886 -8.56428,-0.857491 -13.851,-1.21064 -9.31074,1.96184 -16.6502,2.57247 -24.4621,2.76381l-0.00118112 0.686229c7.80718,-0.198428 15.1159,-0.837412 24.4491,-2.8583 5.19337,0.343705 9.91193,0.830325 13.6301,1.12324 4.72565,0.816152 9.20681,1.7327 13.9041,2.58901l-0.00118112 -0.732292z" />
    <path
   id="_156416696"
   class="fil118"
   d="M58.0129 28.8488c-4.99849,-0.950799 -9.74067,-2.00081 -14.797,-2.95988 -3.72997,-0.484258 -8.59144,-1.12679 -13.9667,-1.59687 -8.68239,1.57797 -15.7986,2.05278 -23.2184,2.2205l-0.00118112 0.688591c7.41033,-0.175986 14.4935,-0.67678 23.19,-2.31026 5.28077,0.455911 10.0478,1.07718 13.7364,1.50711 5.12132,1.06301 9.93319,2.18979 15.0581,3.19256l-0.00118112 -0.741741z" />
    <path
   id="_156418976"
   class="fil119"
   d="M58.0153 30.1775c-5.42487,-1.09726 -10.486,-2.36578 -15.9274,-3.58941 -3.70634,-0.620086 -8.61861,-1.4008 -14.086,-1.98546 -8.06703,1.21773 -14.9258,1.55671 -21.97,1.68309l-0.00118112 0.692135c7.02646,-0.133466 13.851,-0.499612 21.9274,-1.76695 5.36936,0.568117 10.1836,1.32049 13.8439,1.88861 5.50991,1.32994 10.6466,2.68468 16.2144,3.83036l-0.00118112 -0.752371z" />
    <path
   id="_156415328"
   class="fil120"
   d="M58.0176 31.5394c-5.86543,-1.23309 -11.236,-2.74019 -17.0553,-4.2532 -3.68627,-0.758277 -8.64814,-1.67246 -14.2077,-2.36932 -7.47529,0.884657 -14.0458,1.09017 -20.7227,1.15986l-0.00118112 0.696859c6.65205,-0.0838593 13.1884,-0.312996 20.666,-1.24253 5.4603,0.681504 10.3206,1.56734 13.9525,2.27011 5.89495,1.62522 11.3423,3.21146 17.3683,4.49415l0 -0.755915z" />
    <path
   id="_156414608"
   class="fil121"
   d="M58.0188 32.9225c-6.32961,-1.36183 -11.9907,-3.11106 -18.1857,-4.93943 -3.66146,-0.897649 -8.67176,-1.9453 -14.3234,-2.75791 -6.90127,0.58111 -13.1612,0.649614 -19.4778,0.661425l-0.00118112 0.700402c6.28709,-0.0177168 12.5116,-0.113387 19.4046,-0.733474 5.55007,0.792529 10.4564,1.80947 14.0624,2.64925 6.27527,1.94176 12.0155,3.77249 18.5223,5.17802l-0.00118112 -0.758277z" />
    <path
   id="_156420728"
   class="fil122"
   d="M58.0212 34.3268c-6.81268,-1.47285 -12.7502,-3.47957 -19.3172,-5.64692 -3.63666,-1.0323 -8.69774,-2.21578 -14.4403,-3.14177 -6.34732,0.308272 -12.2742,0.245672 -18.2317,0.181892l-0.00118112 0.701583c5.9233,0.0531503 11.8124,0.0921271 18.1431,-0.250397 5.63865,0.907098 10.5934,2.05396 14.1687,3.03311 6.64969,2.28192 12.6722,4.36305 19.6798,5.88078l-0.00118112 -0.758277z" />
    <path
   id="_156416744"
   class="fil123"
   d="M58.0235 35.7406c-7.31702,-1.57325 -13.5167,-3.83036 -20.4463,-6.36268 -3.6154,-1.17285 -8.72491,-2.48861 -14.5584,-3.528 -5.81464,0.060237 -11.3871,-0.128742 -16.9868,-0.270476l0 0.706308c5.55952,0.131104 11.0919,0.29646 16.8805,0.206695 5.72842,1.01694 10.7304,2.29609 14.2785,3.41343 7.01702,2.64334 13.3065,4.97486 20.8337,6.59299l-0.00118112 -0.758277z" />
    <path
   id="_156417728"
   class="fil124"
   d="M58.0247 37.1674c-7.84616,-1.65947 -14.2915,-4.17643 -21.5766,-7.09261 -3.58941,-1.30868 -8.74853,-2.75909 -14.6766,-3.91422 -5.29495,-0.15827 -10.5013,-0.462998 -15.7396,-0.686229l0 0.706308c5.19573,0.21142 10.3525,0.500794 15.6191,0.630716 5.81818,1.13387 10.8663,2.54176 14.3872,3.79493 7.37844,3.02956 13.9159,5.61975 21.9877,7.31348l-0.00118112 -0.752371z" />
    <path
   id="_156420992"
   class="fil125"
   d="M58.0271 38.5965l-0.357878 -0.0744104c-8.2312,-1.72916 -14.8254,-4.47525 -22.3467,-7.74813 -3.56934,-1.44569 -8.77924,-3.03193 -14.797,-4.30045 -4.80006,-0.347248 -9.6202,-0.764183 -14.4923,-1.06773l-0.00118112 0.707489c4.82368,0.29646 9.59776,0.694497 14.36,1.01812 5.90558,1.24372 11.0009,2.78744 14.4923,4.17761 7.56387,3.35201 14.21,6.15244 22.5853,7.92175l0.558668 0.113387 -0.00118112 -0.747647z" />
    <path
   id="_156416336"
   class="fil126"
   d="M58.0295 40.0092c-0.496069,-0.0862215 -0.987414,-0.180711 -1.47167,-0.287011 -8.27136,-1.80475 -14.836,-4.71384 -22.3656,-8.2501 -3.54453,-1.58624 -8.80286,-3.30477 -14.914,-4.68903 -4.31934,-0.50788 -8.74735,-1.02048 -13.245,-1.40435l-0.00118112 0.712213c4.44336,0.375595 8.82294,0.872845 13.0986,1.36183 5.99417,1.35592 11.1391,3.03075 14.601,4.55793 7.58395,3.61304 14.2112,6.57173 22.6385,8.41664 0.545676,0.119293 1.1008,0.226774 1.66065,0.324807l-0.00118112 -0.742923z" />
    <path
   id="_156419552"
   class="fil127"
   d="M58.0306 41.4005c-0.879932,-0.132285 -1.74097,-0.290555 -2.5831,-0.481896 -8.31152,-1.87561 -14.8478,-4.94652 -22.381,-8.74971 -3.52209,-1.71971 -8.83121,-3.57406 -15.0333,-5.07172 -3.85871,-0.641346 -7.88514,-1.24135 -12.0001,-1.70081l-0.00118112 0.7193c4.05832,0.450006 8.02687,1.03584 11.8372,1.65593 6.0863,1.46931 11.2749,3.27524 14.7096,4.94061 7.60403,3.87052 14.2136,6.99221 22.6904,8.91271 0.900011,0.204333 1.81892,0.373233 2.76263,0.512605l-0.00118112 -0.737017z" />
    <path
   id="_156420296"
   class="fil128"
   d="M58.033 42.7741c-1.27443,-0.160632 -2.50515,-0.375595 -3.6969,-0.654339 -8.35168,-1.95475 -14.8573,-5.18628 -22.3987,-9.25523 -3.49847,-1.85672 -8.85601,-3.84454 -15.1478,-5.45912 -3.41579,-0.738198 -7.03237,-1.40789 -10.7576,-1.93585l0 0.725206c3.66146,0.517329 7.21662,1.17521 10.5757,1.89805 6.1737,1.58033 11.412,3.51973 14.8171,5.31975 7.62411,4.13391 14.2159,7.41151 22.7471,9.41114 1.24372,0.290555 2.52877,0.512605 3.86225,0.680323l-0.00118112 -0.72993z" />
   </g>
  </g>
  <path
   class="fil129"
   d="M4.88746 47.0876l-0.315358 0.347248m52.268 -0.0377957l-0.353154 -0.315358"
   id="path4182" />
  <path
   class="fil129"
   d="M5.74023 47.397l-0.310634 0.342524m51.4447 -0.0366146l-0.347248 -0.310634"
   id="path4184" />
  <polygon
   class="fil130"
   points="21.5896,56.7491 43.0116,56.6972 49.4675,59.9759 16.1341,59.7185 "
   id="polygon4186" />
  <polygon
   class="fil131"
   points="16.0821,59.9712 49.164,59.9169 49.2148,61.9956 16.1317,62.0488 "
   id="polygon4188" />
  <polygon
   class="fil132"
   points="16.0313,61.0366 49.1132,60.9964 49.1132,59.9984 16.0313,60.0385 "
   id="polygon4190" />
  <polygon
   class="fil133"
   points="62.1185,26.7795 2.04215,26.8137 2.08113,34.9741 62.0819,34.8973 "
   id="polygon4192" />
  <polygon
   class="fil134"
   points="63.0823,25.0125 0.917728,25.0444 0.959067,33.0441 63.0445,32.9673 "
   id="polygon4194" />
  <polygon
   class="fil132"
   points="21.4337,57.0102 40.5749,56.9735 40.5749,56.0393 21.4337,56.0771 "
   id="polygon4196" />
  <polygon
   class="fil135"
   points="0.7193,25.9444 62.4397,25.9444 62.4397,27.2814 0.7193,27.2814 "
   id="polygon4198" />
  <path
   class="fil136"
   d="M63.0823 25.0125l-62.1645 0.0318902 0.040158 7.9997 62.0866 -0.0755915 0.0377957 -7.956zm-1.00041 0.995682l-60.1637 0.0318902 0.030709 6.00716 60.1047 -0.0732292 0.0283468 -5.96582z"
   id="path4200" />
  <g
   id="_150409792">
   <rect
   id="_156717616"
   class="fil137"
   x="4.00245"
   y="26.4999"
   width="1.03701"
   height="3.52105" />
   <rect
   id="_156717544"
   class="fil137"
   x="8.03541"
   y="27.1315"
   width="0.996855"
   height="1.90917" />
   <rect
   id="_155952280"
   class="fil137"
   x="11.9785"
   y="26.4999"
   width="1.03701"
   height="3.52105" />
   <rect
   id="_156868696"
   class="fil137"
   x="16.0103"
   y="27.1315"
   width="0.996855"
   height="1.90917" />
   <rect
   id="_156868024"
   class="fil137"
   x="19.9534"
   y="26.4999"
   width="1.03701"
   height="3.52105" />
   <rect
   id="_155951200"
   class="fil137"
   x="24.0254"
   y="27.1315"
   width="0.996855"
   height="1.90917" />
   <rect
   id="_155951128"
   class="fil137"
   x="27.9685"
   y="26.4999"
   width="1.03701"
   height="3.52105" />
   <rect
   id="_155951056"
   class="fil137"
   x="32.0003"
   y="27.1315"
   width="0.996855"
   height="1.90917" />
   <rect
   id="_155950984"
   class="fil137"
   x="35.9434"
   y="26.4999"
   width="1.03701"
   height="3.52105" />
  </g>
  <path
   class="fil138"
   d="M16.3963 59.5767l0.124017 -0.0673237 4.89219 -2.66342 0.00118112 -5.69889 21.2778 -0.0767726 0 5.62684 0.318902 -0.00118112 5.43786 2.76263 0.664969 -0.00236223 0 0.338981 0.353154 0.180711 -0.301185 -0.00236223 0.0496069 2.02207 0 0.00118112 -33.0831 0.0519691 -0.030709 -1.25671 -0.00354335 -0.173624 -0.0106301 -0.403942c-0.00354335,-0.24331 0.290555,-0.627173 0.309453,-0.637803zm0.600007 0.807884l-0.0555125 0.0295279 0.109844 -0.050788 -0.0070867 -0.00472447 -0.0472447 0.0259846zm4.89219 -2.66342l-4.80242 2.61499 0.0070867 0.258665 0 0.00354335 0.00354335 0.170081 0.0070867 0.283468 31.0905 -0.0496069 -0.0141734 -0.565755 -0.0661425 -0.0342524 0 -0.0259846 -0.114568 -0.0271657 -5.2288 -2.65633 -0.0791348 0 -0.999225 0.00354335 0 -0.999225 0 -4.62762 -19.2829 0.0696859 -0.00118112 4.70675 0 0.59174 -0.519691 0.283468zm-4.82722 2.62799l-0.00826782 0.00472447 0.00826782 0.00354335 0 -0.00826782zm-0.00826782 0.00472447l-0.00944894 0.00472447 0.0070867 0.00472447 0.0106301 -0.00354335 0 -0.00236223 -0.00826782 -0.00354335z"
   id="path4212" />
  <g
   id="_156725128">
   <rect
   id="_156725344"
   class="fil137"
   x="36.0485"
   y="26.4999"
   width="1.03701"
   height="3.52105" />
   <rect
   id="_156868744"
   class="fil137"
   x="40.0815"
   y="27.1315"
   width="0.996855"
   height="1.90917" />
   <rect
   id="_91332264"
   class="fil137"
   x="44.0246"
   y="26.4999"
   width="1.03701"
   height="3.52105" />
   <rect
   id="_156725272"
   class="fil137"
   x="48.0564"
   y="27.1315"
   width="0.996855"
   height="1.90917" />
   <rect
   id="_94841920"
   class="fil137"
   x="51.9995"
   y="26.4999"
   width="1.03701"
   height="3.52105" />
   <rect
   id="_94422416"
   class="fil137"
   x="56.0714"
   y="27.1315"
   width="0.996855"
   height="1.90917" />
   <rect
   id="_94422632"
   class="fil137"
   x="60.0146"
   y="26.4999"
   width="1.03701"
   height="3.52105" />
  </g>
  <path
   class="fil139"
   d="M61.9472 35.5918c0,0 1.99373,2.69767 1.85317,3.13823 -0.139372,0.441738 -1.52837,2.00081 -1.66774,2.04688 -0.140553,0.0460636 -0.256302,-4.60399 -0.185435,-5.1851z"
   id="path4222" />
  <polygon
   class="fil140"
   points="48.0738,58.5527 57.022,57.4483 61.1051,57.4235 63.8441,63.9516 47.3911,63.9681 45.2049,60.6929 "
   id="polygon4224" />
  <path
   class="fil139"
   d="M48.0738 58.5527l8.94932 -1.10316 1.26498 -0.00826782c-0.141734,0.304728 -0.315358,0.636622 -0.52914,1.00395 -1.48821,0.107482 -4.15281,2.61381 -0.457092,4.24021 3.69571,1.62522 0.0897649,0.77245 -0.343705,1.27324l-9.56705 0.00944894 -2.18625 -3.27406 2.86893 -2.14136z"
   id="path4226" />
  <path
   class="fil141"
   d="M48.0738 58.5527l8.94932 -1.10316 4.08194 -0.0259846 2.73901 6.52803 -16.453 0.0165356 -3.77249 -2.94807 4.45517 -2.46735zm9.08043 0.225593l-8.56546 1.05592 -1.57443 1.17285 1.09017 1.6323 13.7364 -0.0153545 -1.62167 -3.8658 -3.065 0.020079z"
   id="path4228" />
  <path
   class="fil142"
   d="M42.3312 54.2204c0.31772,0.969697 0.9945,-0.291736 3.0461,-1.12206 4.45754,-1.80238 11.6045,-6.88001 15.351,-11.0151 0.70867,-0.785443 1.82955,-1.41498 2.25239,-2.10239l0.90946 0.0874027c0.330713,4.63352 -0.479533,11.9812 -3.76658,12.8966 -2.60672,4.85439 -11.2123,7.22607 -12.9793,8.77452 -1.76695,1.54844 -7.43986,-3.70516 -4.81305,-7.51899z"
   id="path4230" />
  <path
   class="fil134"
   d="M41.7324 55.046c0.320083,0.972059 -0.0129923,-1.03584 2.23113,-1.53073 4.57683,-1.00985 10.6501,-6.93079 15.1962,-9.99225 2.83941,-1.91223 4.94297,-3.3154 4.18115,-4.60754 0.439375,2.2642 0.720481,7.82844 -0.641346,11.2679 -0.653158,1.65711 -2.42956,2.93862 -3.71934,4.38903 -3.38626,3.7902 -10.2781,5.80165 -11.836,7.16702 -1.76695,1.54726 -8.03632,-2.87956 -5.41188,-6.69339z"
   id="path4232" />
  <path
   class="fil143"
   d="M42.069 55.5113c0.318902,0.969697 -1.70199,-0.500794 0.347248,-1.32876 1.96774,-0.794892 2.27365,0.220869 4.76817,-1.48939 0.120474,1.95947 1.46931,4.95006 5.87842,5.14849 -3.60713,2.97523 -4.2284,2.97169 -5.79692,4.34651 -1.56852,1.37482 -7.82372,-2.86303 -5.19691,-6.67685z"
   id="path4234" />
  <path
   class="fil144"
   d="M42.4564 55.1357c0.318902,0.969697 -0.0106301,-1.0382 2.23349,-1.53191 0.398036,-0.0862215 -0.861034,0.295279 -0.439375,0.135828 1.03348,2.37759 4.02761,6.35087 5.61975,6.39102 1.59215,0.0413391 0.366146,0.0590558 0.543314,0.154726 -2.22522,1.07718 -2.01262,0.923633 -3.26933,2.02562 -1.25671,1.10198 -7.31348,-3.36146 -4.68785,-7.17529z"
   id="path4236" />
  <path
   class="fil145"
   d="M58.2763 44.0521c0.413391,-0.301185 0.814971,-0.588196 1.20592,-0.850404 1.88034,-1.26616 3.43705,-2.30908 4.05359,-3.24453 0.112206,0.0425202 0.225593,0.0944894 0.342524,0.150002 0.323626,2.91618 -0.193703,6.41228 -1.2449,9.7076 -0.611819,0.343705 -1.38427,1.67364 -0.647252,-0.931901 0.738198,-2.60672 -3.58233,-4.65478 -3.58233,-4.65478l-0.127561 -0.175986z"
   id="path4238" />
  <path
   class="fil146"
   d="M56.233 56.044c0,0 -9.3698,6.12882 -10.8934,5.92566 -1.00159,-0.132285 3.75005,1.29923 6.93316,-1.34884 1.52837,-1.27206 5.87606,-3.7406 6.15244,-4.47407 0.810246,-2.14255 -2.0894,-0.102757 -2.19215,-0.102757z"
   id="path4240" />
  <path
   class="fil147"
   d="M41.743 55.2219c0.0295279,-0.0129923 9.31429,-4.25556 15.6982,-10.2627 1.11025,-1.04411 3.05791,-1.84727 3.94257,-3.00476l0.144096 0.499612c-6.16307,8.06585 -18.964,13.7683 -18.9983,13.7825l-0.786624 -1.01458z"
   id="path4242" />
  <polygon
   class="fil148"
   points="43.1226,55.242 44.0935,54.2711 46.8986,57.0739 45.9254,58.0472 "
   id="polygon4244" />
  <polygon
   class="fil149"
   points="47.6333,53.1538 48.5474,52.1274 50.2943,53.931 49.3813,54.9597 "
   id="polygon4246" />
  <polygon
   class="fil150"
   points="50.7242,50.4975 51.7164,49.5455 54.4625,52.405 53.4703,53.357 "
   id="polygon4248" />
  <polygon
   class="fil151"
   points="58.6413,44.6769 58.907,44.3793 58.8822,44.3557 59.311,43.8749 61.5043,46.0411 61.2421,46.3411 61.2634,46.3624 60.896,46.7817 "
   id="polygon4250" />
  <path
   class="fil152"
   d="M42.0277 55.7806c-0.0590558,0.0188979 -0.113387,0.0318902 -0.164175,0.0377957 -0.416934,0.908279 -0.303547,1.84136 0.105119,2.67523 0.302366,0.615362 0.764183,1.1882 1.29569,1.66656l0 0.00118112c0.530321,0.480715 1.13387,0.865759 1.71026,1.11025 0.778356,0.329532 1.44451,0.485439 1.80002,0.174805 0.598826,-0.524416 1.86853,-1.17994 3.37445,-1.87916 2.69531,-1.25317 6.32842,-2.94098 8.45916,-5.32447l-0.00118112 -0.00118112c0.403942,-0.45473 0.851585,-0.889381 1.29332,-1.31931 0.959067,-0.934263 1.91931,-1.86853 2.33389,-2.9209l0.00236223 -0.00236223c0.549219,-1.38781 0.823238,-3.15713 0.921271,-4.904 0.0779537,-1.39017 0.0484258,-2.76145 -0.0389769,-3.92131 -0.814971,0.833869 -2.11774,1.71144 -3.61658,2.72129l-0.00118112 -0.00118112 -0.0614181 0.0413391 -0.00236223 0.00236223c-1.37246,0.923633 -2.915,2.13664 -4.51069,3.38981 -3.64138,2.86067 -7.5745,5.95047 -10.8556,6.67449 -1.14214,0.251578 -1.4764,0.979146 -1.62404,1.30868l0.00118112 0c-0.103938,0.235042 -0.177168,0.393312 -0.420478,0.471266l0 -0.00118112zm-0.0625992 -1.62167c0.338981,-0.441738 0.902373,-0.911822 1.89097,-1.13033 3.05319,-0.673237 6.89654,-3.69335 10.4541,-6.48788 1.60159,-1.25789 3.14886,-2.47444 4.5721,-3.43233l0.060237 -0.040158 0 -0.00236223c2.11302,-1.42325 3.77131,-2.54058 4.02052,-3.38036 -0.0354335,-0.249216 -0.0732292,-0.47599 -0.112206,-0.67678l0.92009 -0.344886c0.22205,0.377957 0.283468,0.745285 0.210239,1.11261 0.17953,1.39844 0.28583,3.37327 0.173624,5.3729 -0.103938,1.83782 -0.398036,3.71461 -0.990957,5.21581l0.00118112 0c-0.492526,1.2508 -1.53309,2.26184 -2.57011,3.27287 -0.428745,0.416934 -0.862215,0.838593 -1.24135,1.26498l-0.00236223 0.00118112c-2.27129,2.54294 -6.00952,4.28037 -8.78397,5.57015 -1.43506,0.66615 -2.6457,1.2945 -3.13587,1.72325 -0.673237,0.588196 -1.72561,0.467722 -2.84531,-0.0070867l-0.00118112 0c-0.672056,-0.284649 -1.37364,-0.732292 -1.989,-1.28978l0 0.00118112c-0.616543,-0.556306 -1.15986,-1.2319 -1.52246,-1.97128 -0.629535,-1.28742 -0.718119,-2.76263 0.249216,-4.16816l0.568117 -0.826782 0.0744104 0.223231z"
   id="path4252" />
  <polygon
   class="fil153"
   points="55.0223,48.1742 55.9365,47.1478 57.6834,48.9514 56.7704,49.9801 "
   id="polygon4254" />
 </g>
</svg>