<?xml version="1.0" encoding="UTF-8"?>
<!DOCTYPE svg PUBLIC "-//W3C//DTD SVG 1.1//EN" "http://www.w3.org/Graphics/SVG/1.1/DTD/svg11.dtd">
<!-- Creator: CorelDRAW -->
<svg xmlns="http://www.w3.org/2000/svg" xml:space="preserve" width="22px" height="22px" style="shape-rendering:geometricPrecision; text-rendering:geometricPrecision; image-rendering:optimizeQuality; fill-rule:evenodd; clip-rule:evenodd"
viewBox="0 0 22 22"
 xmlns:xlink="http://www.w3.org/1999/xlink">
 <defs>
  <style type="text/css">
   <![CDATA[
    .fil27 {fill:#484848}
    .fil18 {fill:#999999}
    .fil23 {fill:#C98014}
    .fil24 {fill:#E08F17}
    .fil21 {fill:#BFD48E}
    .fil19 {fill:#333333;fill-rule:nonzero}
    .fil20 {fill:#7F7F7F;fill-rule:nonzero}
    .fil15 {fill:white;fill-rule:nonzero}
    .fil26 {fill:#292929;fill-rule:nonzero}
    .fil0 {fill:black;fill-opacity:0.000000}
    .fil1 {fill:black;fill-opacity:0.003922}
    .fil2 {fill:black;fill-opacity:0.007843}
    .fil3 {fill:black;fill-opacity:0.015686}
    .fil4 {fill:black;fill-opacity:0.019608}
    .fil5 {fill:black;fill-opacity:0.023529}
    .fil6 {fill:black;fill-opacity:0.027451}
    .fil7 {fill:black;fill-opacity:0.031373}
    .fil8 {fill:black;fill-opacity:0.035294}
    .fil9 {fill:black;fill-opacity:0.043137}
    .fil10 {fill:black;fill-opacity:0.047059}
    .fil11 {fill:black;fill-opacity:0.050980}
    .fil12 {fill:black;fill-opacity:0.054902}
    .fil13 {fill:black;fill-opacity:0.058824}
    .fil22 {fill:white;fill-rule:nonzero;fill-opacity:0.321569}
    .fil29 {fill:url(#id0)}
    .fil37 {fill:url(#id1)}
    .fil31 {fill:url(#id2)}
    .fil30 {fill:url(#id3)}
    .fil28 {fill:url(#id4)}
    .fil32 {fill:url(#id5)}
    .fil33 {fill:url(#id6)}
    .fil36 {fill:url(#id7)}
    .fil34 {fill:url(#id8)}
    .fil35 {fill:url(#id9)}
    .fil14 {fill:url(#id10)}
    .fil17 {fill:url(#id11)}
    .fil25 {fill:url(#id12);fill-rule:nonzero}
    .fil16 {fill:url(#id13);fill-rule:nonzero}
   ]]>
  </style>
  <linearGradient id="id0" gradientUnits="userSpaceOnUse" x1="16.3312" y1="4.97119" x2="16.0863" y2="3.56348">
   <stop offset="0" style="stop-color:#333333"/>
   <stop offset="1" style="stop-color:#666666"/>
  </linearGradient>
  <linearGradient id="id1" gradientUnits="userSpaceOnUse" xlink:href="#id0" x1="13.0965" y1="6.32957" x2="13.0498" y2="5.80827">
  </linearGradient>
  <linearGradient id="id2" gradientUnits="userSpaceOnUse" xlink:href="#id0" x1="14.8093" y1="6.30349" x2="14.5697" y2="3.59977">
  </linearGradient>
  <linearGradient id="id3" gradientUnits="userSpaceOnUse" xlink:href="#id0" x1="17.0535" y1="5.23652" x2="16.4398" y2="4.69481">
  </linearGradient>
  <linearGradient id="id4" gradientUnits="userSpaceOnUse" xlink:href="#id0" x1="17.8458" y1="6.27628" x2="17.6119" y2="3.62726">
  </linearGradient>
  <linearGradient id="id5" gradientUnits="userSpaceOnUse" xlink:href="#id0" x1="14.5558" y1="4.13354" x2="14.0711" y2="3.59183">
  </linearGradient>
  <linearGradient id="id6" gradientUnits="userSpaceOnUse" xlink:href="#id0" x1="11.781" y1="6.22072" x2="11.5559" y2="3.68254">
  </linearGradient>
  <linearGradient id="id7" gradientUnits="userSpaceOnUse" xlink:href="#id0" x1="11.1003" y1="6.56712" x2="10.4645" y2="5.85278">
  </linearGradient>
  <linearGradient id="id8" gradientUnits="userSpaceOnUse" xlink:href="#id0" x1="11.0201" y1="4.12163" x2="10.409" y2="3.4484">
  </linearGradient>
  <linearGradient id="id9" gradientUnits="userSpaceOnUse" xlink:href="#id0" x1="11.1188" y1="5.18266" x2="10.3489" y2="4.71975">
  </linearGradient>
  <linearGradient id="id10" gradientUnits="userSpaceOnUse" x1="10.8157" y1="18.6381" x2="10.8157" y2="7.50143">
   <stop offset="0" style="stop-color:#CFCFCF"/>
   <stop offset="1" style="stop-color:#EBEBEB"/>
  </linearGradient>
  <linearGradient id="id11" gradientUnits="userSpaceOnUse" x1="10.9325" y1="1.65631" x2="10.9977" y2="7.89233">
   <stop offset="0" style="stop-color:#4D4D4D"/>
   <stop offset="1" style="stop-color:#333232"/>
  </linearGradient>
  <linearGradient id="id12" gradientUnits="userSpaceOnUse" x1="10.9306" y1="21.0141" x2="10.9306" y2="7.87646">
   <stop offset="0" style="stop-color:#7F7F7F"/>
   <stop offset="1" style="stop-color:#999999"/>
  </linearGradient>
  <linearGradient id="id13" gradientUnits="userSpaceOnUse" x1="11.0439" y1="19.565" x2="10.9413" y2="10.1062">
   <stop offset="0" style="stop-color:#C4C4C4"/>
   <stop offset="0.568627" style="stop-color:white"/>
   <stop offset="1" style="stop-color:white"/>
  </linearGradient>
 </defs>
 <g id="Слой_x0020_1">
  <metadata id="CorelCorpID_0Corel-Layer"/>
  <g id="_57236496">
   <path id="_46745408" class="fil0" d="M10.5989 18.9334c6.67313,-0.253988 9.84742,0.239248 11.3243,0.959258l0 2.1983 -21.8464 0 0 -1.70563c1.20446,-0.6293 4.00881,-1.20417 10.5221,-1.45193z"/>
   <g>
    <path id="_46747272" class="fil1" d="M10.6029 19.0514c6.7046,-0.245767 9.88285,0.283185 11.3203,1.01765l0 1.97663c-0.114238,0.0170081 -0.23698,0.0323154 -0.367092,0.045355l-21.4793 0 0 -1.57297c1.16534,-0.634119 3.95042,-1.22543 10.526,-1.46667z"/>
    <path id="_46748920" class="fil2" d="M10.6065 19.1698c6.71849,-0.236413 9.91772,0.325705 11.3166,1.06953l0 1.72547c-0.449581,0.0728514 -1.04316,0.109702 -1.74928,0.126144l-2.59317 0c-1.88847,-0.022394 -4.1256,-0.0663317 -6.44579,0l-10.6896 0c-0.134081,-0.0187089 -0.25739,-0.0394021 -0.368509,-0.0623631l0 -1.38588c1.13217,-0.634686 3.91584,-1.24018 10.5297,-1.4729z"/>
    <path id="_57784512" class="fil3" d="M10.6094 19.2881c6.71339,-0.225074 9.95599,0.368509 11.3138,1.11488l0 1.48084c-1.78812,0.312666 -6.21817,0.00935446 -10.947,0.142868 -0.801082,0.0226775 -1.58913,0.044788 -2.35364,0.0643474l-7.34694 0c-0.488983,-0.0340162 -0.893777,-0.081639 -1.19879,-0.145136l0 -1.18858c1.10468,-0.629867 3.91017,-1.24726 10.5326,-1.46922z"/>
    <path id="_57582680" class="fil4" d="M10.6128 19.4065c6.68532,-0.212035 9.99851,0.409329 11.3104,1.15003l0 1.24641c-1.68721,0.319753 -6.1816,0.0317485 -10.9583,0.154774 -4.90429,0.126427 -9.3539,0.232161 -10.888,-0.0929777l0 -1.00291c1.07831,-0.620229 3.93426,-1.24584 10.536,-1.45533z"/>
    <path id="_45760224" class="fil5" d="M10.6162 19.5248c6.63628,-0.197011 10.0535,0.448164 11.307,1.17611l0 1.02162c-1.56843,0.325139 -6.13681,0.054426 -10.97,0.16668 -4.92442,0.114521 -9.4293,0.207783 -10.8764,-0.104883l0 -0.83028c1.05053,-0.604922 3.99266,-1.23451 10.5394,-1.42925z"/>
    <path id="_57533128" class="fil6" d="M10.6199 19.6432c6.5674,-0.18057 10.1278,0.484448 11.3033,1.19114l0 0.808453c-1.42613,0.328257 -6.08125,0.0765365 -10.9813,0.177735 -4.94993,0.102049 -9.51803,0.183121 -10.8651,-0.114521l0 -0.671821c1.01567,-0.583945 4.08393,-1.21353 10.543,-1.39098z"/>
    <path id="_57329144" class="fil7" d="M10.6224 19.7614c6.4869,-0.161861 10.2403,0.520165 11.3008,1.19794l0 0.603221c-1.24443,0.330524 -6.00755,0.099781 -10.994,0.189074 -4.98083,0.0895761 -9.62064,0.157325 -10.8523,-0.122175l0 -0.527252c0.967478,-0.557583 4.20724,-1.18263 10.5456,-1.34081z"/>
    <path id="_57323632" class="fil8" d="M10.6261 19.8799c6.40526,-0.142018 10.4155,0.555882 11.2971,1.19709l0 0.40451c-0.999794,0.331375 -5.9021,0.124159 -11.0054,0.201546 -5.02533,0.0762531 -9.75245,0.130679 -10.841,-0.128411l0 -0.393454c0.89321,-0.526968 4.35493,-1.14436 10.5493,-1.28128z"/>
    <path id="_46480104" class="fil9" d="M10.6295 19.9981c6.38428,-0.121041 10.7596,0.606623 11.2937,1.20417l0 0.189074c-0.580827,0.341863 -5.70906,0.157609 -11.017,0.22309 -5.0894,0.0626466 -9.92622,0.102899 -10.8294,-0.13238l0 -0.270429c0.775854,-0.491818 4.51934,-1.09929 10.5527,-1.21353z"/>
    <path id="_58742416" class="fil10" d="M10.6329 20.1166c6.34318,-0.0966628 11.2049,0.652545 11.216,1.18972 0.0110553,0.340729 -5.39554,0.187089 -10.9541,0.239248 -5.1957,0.0487566 -10.1873,0.0742688 -10.818,-0.134648l0 -0.150522c0.565236,-0.452983 4.67326,-1.05422 10.5561,-1.1438z"/>
    <path id="_57345352" class="fil11" d="M10.6357 20.2348c5.8763,-0.0643474 11.0757,0.598402 11.0831,1.05819 0.00737018,0.243783 -5.36408,0.149104 -10.8364,0.183971 -5.47265,0.0348666 -10.7905,0.0436542 -10.7905,-0.144852 0,-0.407628 4.66788,-1.03296 10.5439,-1.09731z"/>
    <path id="_57847376" class="fil12" d="M10.6394 20.3533c5.40915,-0.0323154 10.9461,0.543693 10.9498,0.926092 0.00368509,0.146837 -5.33204,0.111403 -10.7182,0.128695 -5.38647,0.0175751 -10.6956,0.0099214 -10.6956,-0.107435 0,-0.35632 5.05481,-0.91532 10.464,-0.947352z"/>
   </g>
   <path id="_57186696" class="fil13" d="M10.6425 20.4718c4.94256,0 10.8172,0.48955 10.8172,0.794563 0,0.0994975 -21.2012,0.0955289 -21.2012,0.00311815 0,-0.305012 5.44175,-0.797681 10.384,-0.797681z"/>
  </g>
  <path class="fil14" d="M20.5348 5.5455l0 13.8877c0,0.607473 -0.503724,1.11715 -1.11715,1.11715 -7.35544,0 -4.65767,0.0442211 -17.2031,0.0442211 -0.613426,0 -1.11743,-0.502306 -1.11743,-1.1163l0 -13.6791 19.4377 -0.253704z"/>
  <polygon class="fil15" points="0.593016,9.08233 20.4415,9.08233 20.4415,10.0376 0.593016,10.0376 "/>
  <path class="fil16" d="M18.6409 20.467c-0.0549929,0.0107718 -0.111687,0.0178585 -0.170365,0.0212601l-0.499188 -0.529519 0.130112 0 0 -0.00170081c0.4887,0.0104883 0.895761,-0.382116 0.866564,-0.86543l0.000850406 0 0.013323 -9.61526 0.303311 0 0.195877 0 0.303311 0 0 0.0189924 0.208349 0 -0.013323 9.61526 0.000850406 0c0.16668,0.767917 -0.300477,1.35753 -0.998377,1.39665l-0.0377013 -0.0402525 -0.0459219 0.00822059c-0.0697333,0.0170081 -0.143435,0.0274965 -0.219688,0.032032l-0.0379848 -0.0402525zm-15.972 0.181703c-0.0294807,-0.0255122 -0.0561268,-0.0532921 -0.0807886,-0.0830563l-0.127561 0.0640639 -0.0204097 -0.0184255 -0.0739853 0.0374179c-0.0294807,-0.0255122 -0.0566937,-0.0530086 -0.081639,-0.0830563l-0.12671 0.0640639c-0.238964,-0.205798 -0.319753,-0.555315 -0.28687,-1.1095 0,-3.91243 -0.0104883,-3.99634 -0.0204097,-7.32795l-0.00963793 -3.17003 0.303311 0 0.195877 0 0.303311 0 0 0.0189924 0.208349 0 0.00963793 3.17003c0.0107718,3.71202 0.0232444,4.23927 0.0232444,7.32795 -0.0178585,0.517897 0.0479062,0.744105 0.358021,0.827445 -0.176317,0.0833398 -0.372194,0.180003 -0.57374,0.282051z"/>
  <path class="fil17" d="M2.35874 0.811854l17.0966 -0.253421c0.585363,-0.00878753 1.27107,0.679758 1.2277,1.12169l-0.250586 7.04079 -0.46744 0.278366 -18.498 -0.0603788 -0.256823 -0.229326 -0.00595284 -6.60737c0,-0.626749 0.540291,-1.29007 1.15457,-1.29035z"/>
  <path class="fil18" d="M20.7199 1.01113l-0.00198428 0.0425203 -0.022394 0.974282 -0.78124 0c-0.0291973,-0.214302 -0.0688829,-0.386084 -0.123876,-0.465172 -0.108852,-0.0986471 -0.138616,-0.211751 -0.369643,-0.214302l-0.0257956 -0.000283469 -16.8772 0.197011 -0.00963793 0 -0.0510244 -0.00113387 0 0.00170081c-0.155057,0 -0.274398,0.0609458 -0.354619,0.156758 -0.102049,0.122175 -0.160727,0.32854 -0.194459,0.559851l-0.664734 0 -0.00425203 -0.786625c0,-0.121041 0.0201263,-0.2435 0.0572607,-0.362273l0.0402525 -0.0515913c0.265043,-0.316351 0.642623,-0.516196 1.12055,-0.516196l0.00963793 0.00198428 0.0606623 0.00141734 16.8715 -0.197011 0.00396856 0 0.0277799 0.000283469 0.00198428 0c0.667002,0.00793712 1.05876,0.267311 1.28723,0.658781z"/>
  <path class="fil19" d="M3.30439 2.52627l15.415 0c0.250586,0 0.479062,0.102616 0.644608,0.265894 0.168947,0.16668 0.274965,0.397706 0.274965,0.64886l0 3.29192c0,0.251153 -0.107151,0.48218 -0.275248,0.647726 -0.166113,0.163845 -0.395722,0.266744 -0.644324,0.266744l-15.415 0c-0.26476,0 -0.486716,-0.110553 -0.646875,-0.289421 -0.149955,-0.16753 -0.234712,-0.390903 -0.234712,-0.625048l0 -3.29192c0,-0.234429 0.0827728,-0.457518 0.234145,-0.626182 0.159593,-0.178302 0.380131,-0.288571 0.647442,-0.288571zm15.135 1.19964l-14.8169 0 0 2.72187 14.8169 0 0 -2.72187z"/>
  <path class="fil20" d="M19.4374 7.29507c-0.154774,0.163845 -0.369076,0.266744 -0.60067,0.266744l-16.251 0c-0.0325989,0 -0.0649143,-0.00226775 -0.0963793,-0.00595284l0.455251 -1.14465 15.8034 0c0.0657647,0 0.127844,-0.0240948 0.177735,-0.0640639l0.511661 0.947919z"/>
  <path class="fil21" d="M3.30439 3.12609l15.415 0c0.176034,0 0.319753,0.145136 0.319753,0.314934l0 3.29192c0,0.169514 -0.147404,0.31465 -0.319753,0.31465l-15.415 0c-0.172065,0 -0.281768,-0.141734 -0.281768,-0.31465l0 -3.29192c0,-0.173199 0.105734,-0.314934 0.281768,-0.314934z"/>
  <path class="fil22" d="M2.9957 5.88424l0.07682 -0.049607c0.0479062,0.053859 0.116789,0.0870249 0.200412,0.0870249l15.574 0c0.118773,0 0.224224,-0.0674655 0.277232,-0.162711l0.0374179 0.0102049 0 0.561835c0,0.163845 -0.144002,0.302744 -0.31465,0.302744l-15.574 0c-0.170081,0 -0.277232,-0.136348 -0.277232,-0.302744l0 -0.446747z"/>
  <path class="fil23" d="M16.4148 16.0129l2.13282 0c0.28687,0 0.520732,0.180003 0.520732,0.399974l0 4.0604c0,0.219972 -0.234145,0.399974 -0.520732,0.399974l-2.13282 0c-0.286303,0 -0.520732,-0.179719 -0.520732,-0.399974l0 -4.0604c0,-0.220255 0.234145,-0.399974 0.520732,-0.399974z"/>
  <path class="fil24" d="M16.9562 16.7408l1.04997 0c0.141167,0 0.256256,0.127561 0.256256,0.283185l0 2.87437c0,0.155624 -0.115372,0.283185 -0.256256,0.283185l-1.04997 0c-0.140884,0 -0.256256,-0.127277 -0.256256,-0.283185l0 -2.87437c0,-0.155908 0.115372,-0.283185 0.256256,-0.283185z"/>
  <path class="fil25" d="M20.9954 7.87646l0 11.4626c0,0.452699 -0.185955,0.865713 -0.484731,1.16449 -0.298209,0.298209 -0.711223,0.484731 -1.16421,0.484731l-16.8321 0.0257956c-0.453266,0 -0.865997,-0.185955 -1.16449,-0.484448 -0.298492,-0.298492 -0.484164,-0.711223 -0.484164,-1.16477l0 -11.254 1.00008 0 0 11.254c0,0.177735 0.0734184,0.340162 0.191058,0.457802 0.117639,0.117639 0.280067,0.191341 0.457518,0.191341l16.8321 -0.0257956c0.176884,0 0.339595,-0.0739853 0.457235,-0.191625 0.117923,-0.117923 0.191625,-0.280634 0.191625,-0.457518l0 -11.4626 1.00008 0z"/>
  <path class="fil26" d="M20.9954 3.84185l0 5.10669 -1.00008 0 0 -5.60673c0,-0.44051 -0.0141734,-1.79294 -0.20183,-2.06394 -0.108852,-0.0986471 -0.138616,-0.211751 -0.369643,-0.214302l-0.0257956 -0.000283469 -16.8772 -0.0467723 -0.00963793 0 -0.0510244 -0.00113387 0 0.00170081c-0.155057,0 -0.274398,0.0609458 -0.354619,0.156758 -0.253988,0.303878 -0.239814,1.13019 -0.239814,1.5639l0 6.44523 -1.00008 0 0 -6.44523c0,-0.643757 0.0615127,-1.71187 0.47396,-2.20454 0.265043,-0.316351 0.642623,-0.516196 1.12055,-0.516196l0.00963793 0.00198428 0.0606623 0.00141734 16.8715 0.0467723 0.0317485 0.000283469c1.93439,0 1.61067,2.42451 1.56163,3.77438z"/>
  <path class="fil27" d="M3.4603 19.0885l2.13282 0c0.28687,0 0.520732,0.179719 0.520732,0.399974l0 0.98477c0,0.220255 -0.233862,0.399974 -0.520732,0.399974l-2.13282 0c-0.286587,0 -0.520732,-0.179719 -0.520732,-0.399974l0 -0.98477c0,-0.220255 0.234145,-0.399974 0.520732,-0.399974z"/>
  <path class="fil27" d="M7.77866 19.0885c0.710939,0 1.42188,0 2.13282,0 0.28687,0 0.520732,0.179719 0.520732,0.399974 0,0.328257 0,0.65623 0,0.98477 0,0.219972 -0.233862,0.399691 -0.520732,0.399691 -0.710939,0 -1.42188,0 -2.13282,0 -0.286587,0 -0.520732,-0.179719 -0.520732,-0.399691 0,-0.32854 0,-0.656513 0,-0.98477 0,-0.220255 0.234145,-0.399974 0.520732,-0.399974z"/>
  <path class="fil27" d="M12.0967 19.0885c0.710939,0 1.42188,0 2.13282,0 0.28687,0 0.520732,0.179719 0.520732,0.399974 0,0.328257 0,0.65623 0,0.98477 0,0.219972 -0.233862,0.399691 -0.520732,0.399691 -0.710939,0 -1.42188,0 -2.13282,0 -0.286587,0 -0.520732,-0.179719 -0.520732,-0.399691 0,-0.32854 0,-0.656513 0,-0.98477 0,-0.220255 0.234145,-0.399974 0.520732,-0.399974z"/>
  <path class="fil27" d="M3.47533 16.035c0.697049,0 1.39382,0 2.09058,0 0.280917,0 0.510244,0.189074 0.510244,0.420384 0,0.345265 0,0.690246 0,1.03523 0,0.231594 -0.229326,0.420384 -0.510244,0.420384 -0.696766,0 -1.39353,0 -2.09058,0 -0.280917,0 -0.510244,-0.18879 -0.510244,-0.420384 0,-0.344981 0,-0.689963 0,-1.03523 0,-0.23131 0.229326,-0.420384 0.510244,-0.420384z"/>
  <path class="fil27" d="M7.80247 16.0347c0.696766,0 1.39353,0 2.0903,0 0.281201,0 0.510244,0.189074 0.510244,0.420384 0,0.345265 0,0.689963 0,1.03523 0,0.23131 -0.229043,0.420101 -0.510244,0.420101 -0.696766,0 -1.39353,0 -2.0903,0 -0.280917,0 -0.510527,-0.18879 -0.510527,-0.420101 0,-0.345265 0,-0.689963 0,-1.03523 0,-0.23131 0.22961,-0.420384 0.510527,-0.420384z"/>
  <path class="fil27" d="M12.1282 16.0347c0.697049,0 1.39382,0 2.09058,0 0.280917,0 0.510244,0.189074 0.510244,0.420384 0,0.345265 0,0.689963 0,1.03523 0,0.23131 -0.229326,0.420101 -0.510244,0.420101 -0.696766,0 -1.39353,0 -2.09058,0 -0.280917,0 -0.510244,-0.18879 -0.510244,-0.420101 0,-0.345265 0,-0.689963 0,-1.03523 0,-0.23131 0.229326,-0.420384 0.510244,-0.420384z"/>
  <path class="fil27" d="M3.49035 12.982c0.682592,0 1.36518,0 2.04778,0 0.275532,0 0.500039,0.197861 0.500039,0.440794 0,0.361706 0,0.723695 0,1.08568 0,0.242649 -0.224507,0.440794 -0.500039,0.440794 -0.682592,0 -1.36518,0 -2.04778,0 -0.275248,0 -0.500039,-0.198145 -0.500039,-0.440794 0,-0.361989 0,-0.723979 0,-1.08568 0,-0.242933 0.224791,-0.440794 0.500039,-0.440794z"/>
  <path class="fil27" d="M7.82572 12.9823c0.682592,0 1.36518,0 2.04806,0 0.275248,0 0.500039,0.197861 0.500039,0.440794 0,0.361706 0,0.723412 0,1.0854 0,0.242649 -0.224791,0.440794 -0.500039,0.440794 -0.682876,0 -1.36547,0 -2.04806,0 -0.275248,0 -0.499755,-0.198145 -0.499755,-0.440794 0,-0.361989 0,-0.723695 0,-1.0854 0,-0.242933 0.224507,-0.440794 0.499755,-0.440794z"/>
  <path class="fil27" d="M12.16 12.9823c0.682592,0 1.36518,0 2.04778,0 0.275532,0 0.500039,0.197861 0.500039,0.440794 0,0.361706 0,0.723412 0,1.0854 0,0.242649 -0.224507,0.440794 -0.500039,0.440794 -0.682592,0 -1.36518,0 -2.04778,0 -0.275248,0 -0.500039,-0.198145 -0.500039,-0.440794 0,-0.361989 0,-0.723695 0,-1.0854 0,-0.242933 0.224791,-0.440794 0.500039,-0.440794z"/>
  <path class="fil27" d="M16.495 12.982c0.682592,0 1.36518,0 2.04806,0 0.275248,0 0.500039,0.197861 0.500039,0.440794 0,0.361706 0,0.723695 0,1.08568 0,0.242649 -0.224791,0.440794 -0.500039,0.440794 -0.682876,0 -1.36547,0 -2.04806,0 -0.275248,0 -0.499755,-0.198145 -0.499755,-0.440794 0,-0.361989 0,-0.723979 0,-1.08568 0,-0.242933 0.224507,-0.440794 0.499755,-0.440794z"/>
  <g id="_21517072">
   <rect id="_46418416" class="fil27" x="3.01528" y="9.92914" width="2.9846" height="2.05846" rx="0.246051" ry="0.246051"/>
   <g>
    <path id="_46436784" class="fil27" d="M7.84896 9.92906c0.668419,0 1.33684,0 2.00554,0 0.269579,0 0.48955,0.207216 0.48955,0.461203 0,0.378714 0,0.757145 0,1.13586 0,0.253988 -0.219972,0.461203 -0.48955,0.461203 -0.668702,0 -1.33712,0 -2.00554,0 -0.269579,0 -0.48955,-0.207216 -0.48955,-0.461203 0,-0.378714 0,-0.757145 0,-1.13586 0,-0.253988 0.219972,-0.461203 0.48955,-0.461203z"/>
    <path id="_46426616" class="fil27" d="M12.1914 9.92906c0.668702,0 1.33712,0 2.00554,0 0.269579,0 0.48955,0.207216 0.48955,0.461203 0,0.378714 0,0.757145 0,1.13586 0,0.253988 -0.219972,0.461203 -0.48955,0.461203 -0.668419,0 -1.33684,0 -2.00554,0 -0.269579,0 -0.48955,-0.207216 -0.48955,-0.461203 0,-0.378714 0,-0.757145 0,-1.13586 0,-0.253988 0.219972,-0.461203 0.48955,-0.461203z"/>
   </g>
   <rect id="_46526208" class="fil27" x="16.0458" y="9.92914" width="2.9846" height="2.05846" rx="0.246051" ry="0.246051"/>
  </g>
  <path class="fil28" d="M17.3732 3.58361l0.712073 0 0 1.18688 -0.712073 0 0 -1.18688zm0.712073 1.57722l0 1.15967 -0.712073 0 0 -1.15967 0.712073 0z"/>
  <rect class="fil29" x="15.8532" y="3.56916" width="0.711895" height="1.39683"/>
  <rect class="fil30" x="15.8145" y="4.68585" width="1.86659" height="0.559645"/>
  <path class="fil31" d="M14.3342 3.58361l0.71179 0 0 1.18688 -0.71179 0 0 -1.18688zm0.71179 1.57722l0 1.15967 -0.71179 0 0 -1.15967 0.71179 0z"/>
  <rect class="fil32" x="13.5826" y="3.58284" width="1.46339" height="0.559645"/>
  <path class="fil33" d="M11.3129 3.58361l0.71179 0 0 1.18688 -0.71179 0 0 -1.18688zm0.71179 1.57722l0 1.15967 -0.71179 0 0 -1.15967 0.71179 0z"/>
  <rect class="fil34" x="9.73347" y="3.41402" width="1.96469" height="0.742132"/>
  <rect class="fil35" x="9.73347" y="4.67151" width="2.00339" height="0.559645"/>
  <rect class="fil36" x="9.75327" y="5.81621" width="2.06099" height="0.787586"/>
  <polygon class="fil37" points="13.4296,5.81819 13.4296,6.31993 12.7175,6.31993 12.7175,5.81819 "/>
 </g>
</svg>
