<?xml version="1.0" encoding="UTF-8" standalone="no"?>
<!-- Creator: CorelDRAW -->

<svg
   xmlns:dc="http://purl.org/dc/elements/1.1/"
   xmlns:cc="http://creativecommons.org/ns#"
   xmlns:rdf="http://www.w3.org/1999/02/22-rdf-syntax-ns#"
   xmlns:svg="http://www.w3.org/2000/svg"
   xmlns="http://www.w3.org/2000/svg"
   xmlns:xlink="http://www.w3.org/1999/xlink"
   xmlns:sodipodi="http://sodipodi.sourceforge.net/DTD/sodipodi-0.dtd"
   xmlns:inkscape="http://www.inkscape.org/namespaces/inkscape"
   xml:space="preserve"
   width="22px"
   height="22px"
   style="shape-rendering:geometricPrecision; text-rendering:geometricPrecision; image-rendering:optimizeQuality; fill-rule:evenodd; clip-rule:evenodd"
   viewBox="0 0 22 22"
   id="svg2"
   version="1.1"
   inkscape:version="0.48.1 "
   sodipodi:docname="krds_22.svg"><metadata
   id="metadata224"><rdf:RDF><cc:Work
       rdf:about=""><dc:format>image/svg+xml</dc:format><dc:type
         rdf:resource="http://purl.org/dc/dcmitype/StillImage" /></cc:Work></rdf:RDF></metadata><sodipodi:namedview
   pagecolor="#ffffff"
   bordercolor="#666666"
   borderopacity="1"
   objecttolerance="10"
   gridtolerance="10"
   guidetolerance="10"
   inkscape:pageopacity="0"
   inkscape:pageshadow="2"
   inkscape:window-width="1920"
   inkscape:window-height="1138"
   id="namedview222"
   showgrid="false"
   inkscape:zoom="5.6568542"
   inkscape:cx="2.3159469"
   inkscape:cy="-19.92975"
   inkscape:window-x="-8"
   inkscape:window-y="-8"
   inkscape:window-maximized="1"
   inkscape:current-layer="svg2"><inkscape:grid
     type="xygrid"
     id="grid3201" /></sodipodi:namedview>
 <defs
   id="defs4">
  <style
   type="text/css"
   id="style6">
   
    .fil3 {fill:none}
    .fil0 {fill:#999999}
    .fil122 {fill:#396DA6}
    .fil123 {fill:#7FBCF0}
    .fil126 {fill:#8CBD38}
    .fil125 {fill:#9ACC43}
    .fil124 {fill:#A1D44A}
    .fil115 {fill:#D4D2D2}
    .fil111 {fill:white}
    .fil119 {fill:#CBCBCB}
    .fil118 {fill:#9C9C9C;fill-rule:nonzero}
    .fil78 {fill:#458BC9;fill-opacity:0.011765}
    .fil110 {fill:#BAE8FF;fill-opacity:0.015686}
    .fil36 {fill:#C4EBFF;fill-opacity:0.015686}
    .fil77 {fill:#458BC9;fill-opacity:0.019608}
    .fil109 {fill:#BAE8FF;fill-opacity:0.031373}
    .fil35 {fill:#C4EBFF;fill-opacity:0.031373}
    .fil76 {fill:#458BC9;fill-opacity:0.031373}
    .fil75 {fill:#458BC9;fill-opacity:0.039216}
    .fil108 {fill:#BAE8FF;fill-opacity:0.047059}
    .fil34 {fill:#C4EBFF;fill-opacity:0.047059}
    .fil74 {fill:#458BC9;fill-opacity:0.050980}
    .fil107 {fill:#BAE8FF;fill-opacity:0.058824}
    .fil33 {fill:#C4EBFF;fill-opacity:0.058824}
    .fil73 {fill:#458BC9;fill-opacity:0.062745}
    .fil72 {fill:#458BC9;fill-opacity:0.070588}
    .fil106 {fill:#BAE8FF;fill-opacity:0.074510}
    .fil32 {fill:#C4EBFF;fill-opacity:0.074510}
    .fil71 {fill:#458BC9;fill-opacity:0.082353}
    .fil105 {fill:#BAE8FF;fill-opacity:0.090196}
    .fil31 {fill:#C4EBFF;fill-opacity:0.090196}
    .fil70 {fill:#458BC9;fill-opacity:0.090196}
    .fil69 {fill:#458BC9;fill-opacity:0.101961}
    .fil104 {fill:#BAE8FF;fill-opacity:0.105882}
    .fil30 {fill:#C4EBFF;fill-opacity:0.105882}
    .fil68 {fill:#458BC9;fill-opacity:0.113725}
    .fil103 {fill:#BAE8FF;fill-opacity:0.121569}
    .fil29 {fill:#C4EBFF;fill-opacity:0.121569}
    .fil67 {fill:#458BC9;fill-opacity:0.121569}
    .fil66 {fill:#458BC9;fill-opacity:0.133333}
    .fil102 {fill:#BAE8FF;fill-opacity:0.137255}
    .fil28 {fill:#C4EBFF;fill-opacity:0.137255}
    .fil65 {fill:#458BC9;fill-opacity:0.145098}
    .fil101 {fill:#BAE8FF;fill-opacity:0.152941}
    .fil27 {fill:#C4EBFF;fill-opacity:0.152941}
    .fil64 {fill:#458BC9;fill-opacity:0.152941}
    .fil63 {fill:#458BC9;fill-opacity:0.164706}
    .fil100 {fill:#BAE8FF;fill-opacity:0.164706}
    .fil26 {fill:#C4EBFF;fill-opacity:0.164706}
    .fil62 {fill:#458BC9;fill-opacity:0.172549}
    .fil99 {fill:#BAE8FF;fill-opacity:0.180392}
    .fil25 {fill:#C4EBFF;fill-opacity:0.180392}
    .fil61 {fill:#458BC9;fill-opacity:0.184314}
    .fil60 {fill:#458BC9;fill-opacity:0.196078}
    .fil98 {fill:#BAE8FF;fill-opacity:0.196078}
    .fil24 {fill:#C4EBFF;fill-opacity:0.196078}
    .fil59 {fill:#458BC9;fill-opacity:0.203922}
    .fil97 {fill:#BAE8FF;fill-opacity:0.211765}
    .fil23 {fill:#C4EBFF;fill-opacity:0.211765}
    .fil58 {fill:#458BC9;fill-opacity:0.215686}
    .fil113 {fill:#A0DFFF;fill-opacity:0.219608}
    .fil57 {fill:#458BC9;fill-opacity:0.223529}
    .fil96 {fill:#BAE8FF;fill-opacity:0.227451}
    .fil22 {fill:#C4EBFF;fill-opacity:0.227451}
    .fil56 {fill:#458BC9;fill-opacity:0.235294}
    .fil95 {fill:#BAE8FF;fill-opacity:0.243137}
    .fil21 {fill:#C4EBFF;fill-opacity:0.243137}
    .fil55 {fill:#458BC9;fill-opacity:0.247059}
    .fil54 {fill:#458BC9;fill-opacity:0.254902}
    .fil94 {fill:#BAE8FF;fill-opacity:0.258824}
    .fil20 {fill:#C4EBFF;fill-opacity:0.258824}
    .fil53 {fill:#458BC9;fill-opacity:0.266667}
    .fil93 {fill:#BAE8FF;fill-opacity:0.274510}
    .fil19 {fill:#C4EBFF;fill-opacity:0.274510}
    .fil52 {fill:#458BC9;fill-opacity:0.274510}
    .fil51 {fill:#458BC9;fill-opacity:0.286275}
    .fil92 {fill:#BAE8FF;fill-opacity:0.286275}
    .fil18 {fill:#C4EBFF;fill-opacity:0.286275}
    .fil50 {fill:#458BC9;fill-opacity:0.298039}
    .fil91 {fill:#BAE8FF;fill-opacity:0.301961}
    .fil17 {fill:#C4EBFF;fill-opacity:0.301961}
    .fil49 {fill:#458BC9;fill-opacity:0.305882}
    .fil48 {fill:#458BC9;fill-opacity:0.317647}
    .fil90 {fill:#BAE8FF;fill-opacity:0.317647}
    .fil16 {fill:#C4EBFF;fill-opacity:0.317647}
    .fil47 {fill:#458BC9;fill-opacity:0.325490}
    .fil89 {fill:#BAE8FF;fill-opacity:0.333333}
    .fil15 {fill:#C4EBFF;fill-opacity:0.333333}
    .fil46 {fill:#458BC9;fill-opacity:0.337255}
    .fil45 {fill:#458BC9;fill-opacity:0.349020}
    .fil88 {fill:#BAE8FF;fill-opacity:0.349020}
    .fil14 {fill:#C4EBFF;fill-opacity:0.349020}
    .fil44 {fill:#458BC9;fill-opacity:0.356863}
    .fil87 {fill:#BAE8FF;fill-opacity:0.364706}
    .fil13 {fill:#C4EBFF;fill-opacity:0.364706}
    .fil43 {fill:#458BC9;fill-opacity:0.368627}
    .fil42 {fill:#458BC9;fill-opacity:0.380392}
    .fil86 {fill:#BAE8FF;fill-opacity:0.380392}
    .fil12 {fill:#C4EBFF;fill-opacity:0.380392}
    .fil41 {fill:#458BC9;fill-opacity:0.388235}
    .fil85 {fill:#BAE8FF;fill-opacity:0.392157}
    .fil11 {fill:#C4EBFF;fill-opacity:0.392157}
    .fil40 {fill:#458BC9;fill-opacity:0.400000}
    .fil84 {fill:#BAE8FF;fill-opacity:0.407843}
    .fil10 {fill:#C4EBFF;fill-opacity:0.407843}
    .fil39 {fill:#458BC9;fill-opacity:0.407843}
    .fil38 {fill:#458BC9;fill-opacity:0.419608}
    .fil83 {fill:#BAE8FF;fill-opacity:0.423529}
    .fil9 {fill:#C4EBFF;fill-opacity:0.423529}
    .fil37 {fill:#458BC9;fill-opacity:0.431373}
    .fil82 {fill:#BAE8FF;fill-opacity:0.439216}
    .fil8 {fill:#C4EBFF;fill-opacity:0.439216}
    .fil120 {fill:#396DA6;fill-opacity:0.439216}
    .fil81 {fill:#BAE8FF;fill-opacity:0.454902}
    .fil7 {fill:#C4EBFF;fill-opacity:0.454902}
    .fil80 {fill:#BAE8FF;fill-opacity:0.470588}
    .fil6 {fill:#C4EBFF;fill-opacity:0.470588}
    .fil79 {fill:#BAE8FF;fill-opacity:0.486275}
    .fil5 {fill:#C4EBFF;fill-opacity:0.486275}
    .fil121 {fill:url(#id0)}
    .fil2 {fill:url(#id1)}
    .fil117 {fill:url(#id2)}
    .fil114 {fill:url(#id3)}
    .fil4 {fill:url(#id4)}
    .fil1 {fill:url(#id5)}
    .fil116 {fill:url(#id6);fill-rule:nonzero}
    .fil112 {fill:url(#id7);fill-rule:nonzero}
   
  </style>
  <linearGradient
   id="id0"
   gradientUnits="userSpaceOnUse"
   x1="11.1001"
   y1="16.6884"
   x2="11.1001"
   y2="2.13735">
   <stop
   offset="0"
   style="stop-color:#7F7F7F"
   id="stop9" />
   <stop
   offset="1"
   style="stop-color:#999999"
   id="stop11" />
  </linearGradient>
  <linearGradient
   id="id1"
   gradientUnits="userSpaceOnUse"
   x1="11.1942"
   y1="0.714908"
   x2="10.7559"
   y2="9.59116">
   <stop
   offset="0"
   style="stop-color:#EDEDED"
   id="stop14" />
   <stop
   offset="1"
   style="stop-color:#D1CFCF"
   id="stop16" />
  </linearGradient>
  <linearGradient
   id="id2"
   gradientUnits="userSpaceOnUse"
   x1="8.95109"
   y1="7.76732"
   x2="8.99985"
   y2="3.14282">
   <stop
   offset="0"
   style="stop-color:#919191"
   id="stop19" />
   <stop
   offset="1"
   style="stop-color:#B2B2B2"
   id="stop21" />
  </linearGradient>
  <linearGradient
   id="id3"
   gradientUnits="userSpaceOnUse"
   x1="9.54524"
   y1="6.91352"
   x2="9.54524"
   y2="12.1523">
   <stop
   offset="0"
   style="stop-color:white"
   id="stop24" />
   <stop
   offset="1"
   style="stop-color:#E0E0E0"
   id="stop26" />
  </linearGradient>
  <linearGradient
   id="id4"
   gradientUnits="userSpaceOnUse"
   x1="11.1001"
   y1="5.99791"
   x2="11.1001"
   y2="12.8278">
   <stop
   offset="0"
   style="stop-color:#5CA2DA"
   id="stop29" />
   <stop
   offset="1"
   style="stop-color:#84C1F0"
   id="stop31" />
  </linearGradient>
  <linearGradient
   id="id5"
   gradientUnits="userSpaceOnUse"
   x1="11.0649"
   y1="13.5382"
   x2="10.9586"
   y2="6.3171">
   <stop
   offset="0"
   style="stop-color:#B0B0B0"
   id="stop34" />
   <stop
   offset="1"
   style="stop-color:#CCCCCC"
   id="stop36" />
  </linearGradient>
  <linearGradient
   id="id6"
   gradientUnits="userSpaceOnUse"
   xlink:href="#id2"
   x1="8.99474"
   y1="14.1077"
   x2="8.99474"
   y2="5.24927">
  </linearGradient>
  <linearGradient
   id="id7"
   gradientUnits="userSpaceOnUse"
   xlink:href="#id0"
   x1="11.1766"
   y1="18.7206"
   x2="11.1766"
   y2="0.138616">
  </linearGradient>
 <linearGradient
   inkscape:collect="always"
   xlink:href="#id3"
   id="linearGradient3211"
   gradientUnits="userSpaceOnUse"
   x1="9.54524"
   y1="6.91352"
   x2="9.54524"
   y2="12.1523" /><linearGradient
   inkscape:collect="always"
   xlink:href="#id2"
   id="linearGradient3213"
   gradientUnits="userSpaceOnUse"
   x1="8.95109"
   y1="7.76732"
   x2="8.99985"
   y2="3.14282" />
  
  
  
  
  
  
  
  
  
  
  
  
  
  
  
  
  
  
  
  
  
  
  
  
  
  
  
  
  
  
 <linearGradient
   inkscape:collect="always"
   xlink:href="#id0"
   id="linearGradient3237"
   gradientUnits="userSpaceOnUse"
   x1="11.1001"
   y1="16.6884"
   x2="11.1001"
   y2="2.13735" /><linearGradient
   inkscape:collect="always"
   xlink:href="#id2"
   id="linearGradient3245"
   gradientUnits="userSpaceOnUse"
   x1="8.95109"
   y1="7.76732"
   x2="8.99985"
   y2="3.14282"
   gradientTransform="matrix(1,0,0,1.0159339,0,-0.04199058)" /><linearGradient
   inkscape:collect="always"
   xlink:href="#id2"
   id="linearGradient3248"
   gradientUnits="userSpaceOnUse"
   x1="8.99474"
   y1="14.1077"
   x2="8.99474"
   y2="5.24927" /><linearGradient
   inkscape:collect="always"
   xlink:href="#id3"
   id="linearGradient3253"
   gradientUnits="userSpaceOnUse"
   x1="9.54524"
   y1="6.91352"
   x2="9.54524"
   y2="12.1523" /><linearGradient
   inkscape:collect="always"
   xlink:href="#id0"
   id="linearGradient3257"
   gradientUnits="userSpaceOnUse"
   x1="11.1766"
   y1="18.7206"
   x2="11.1766"
   y2="0.138616"
   gradientTransform="matrix(1,0,0,1.0022391,0,0.04748751)" /><linearGradient
   inkscape:collect="always"
   xlink:href="#id4"
   id="linearGradient3371"
   gradientUnits="userSpaceOnUse"
   x1="11.1001"
   y1="5.99791"
   x2="11.1001"
   y2="12.8278" /><linearGradient
   inkscape:collect="always"
   xlink:href="#id1"
   id="linearGradient3375"
   gradientUnits="userSpaceOnUse"
   x1="11.1942"
   y1="0.714908"
   x2="10.7559"
   y2="9.59116" /><linearGradient
   inkscape:collect="always"
   xlink:href="#id5"
   id="linearGradient3378"
   gradientUnits="userSpaceOnUse"
   x1="11.0649"
   y1="13.5382"
   x2="10.9586"
   y2="6.3171" />
   
   
   
   
   
   
   
   
   
   
   
   
  <linearGradient
   inkscape:collect="always"
   xlink:href="#id2"
   id="linearGradient3389"
   gradientUnits="userSpaceOnUse"
   x1="8.95109"
   y1="7.76732"
   x2="8.99985"
   y2="3.14282"
   gradientTransform="matrix(1,0,0,0.98736007,0,0.05106884)" /><linearGradient
   inkscape:collect="always"
   xlink:href="#id2"
   id="linearGradient3392"
   gradientUnits="userSpaceOnUse"
   x1="8.99474"
   y1="14.1077"
   x2="8.99474"
   y2="5.24927"
   gradientTransform="matrix(1,0,0,0.98736007,0,0.05106884)" /><linearGradient
   inkscape:collect="always"
   xlink:href="#id3"
   id="linearGradient3397"
   gradientUnits="userSpaceOnUse"
   x1="9.54524"
   y1="6.91352"
   x2="9.54524"
   y2="12.1523"
   gradientTransform="matrix(1,0,0,0.98736007,0,0.05106884)" /></defs>
 <rect
   style="fill:#999999"
   id="rect42"
   height="3.2678199"
   width="1.9066401"
   y="16.7591"
   x="10.0467"
   class="fil0" /><path
   inkscape:connector-curvature="0"
   style="fill:url(#linearGradient3378)"
   id="path44"
   d="m 1.70081,1.48339 18.6219,0 c 0.631852,0 1.1489,0.520732 1.1489,1.14833 l 0,14.591 c 0,0.629017 -0.517897,1.14918 -1.1489,1.14918 -7.56549,0 -5.71756,0 -18.6219,0 -0.630434,0 -1.14861,-0.517047 -1.14861,-1.14918 l 0,-14.591 c 0,-0.631852 0.516763,-1.14833 1.14861,-1.14833 z"
   class="fil1" /><path
   inkscape:connector-curvature="0"
   style="fill:url(#linearGradient3375)"
   id="path46"
   d="M 21.4348,7.7095 C 16.36978,9.27056 6.3217,8.86067 0.5154,8.551969 l 0,-6.36784 c 0,-0.631852 0.516763,-1.14861 1.14833,-1.14861 l 18.6222,0 c 0.632135,0 1.1489,0.520732 1.1489,1.14861 l 0,5.52537 z"
   class="fil2" /><path
   style="fill:none"
   inkscape:connector-curvature="0"
   id="path48"
   d="m 0.999794,16.9667 -0.123309,0.134648 m 20.4404,-0.01474 -0.138049,-0.121892"
   class="fil3" /><path
   inkscape:connector-curvature="0"
   style="fill:url(#linearGradient3371)"
   id="path50"
   d="m 2.12233,2.86218 -0.019843,13.1518 c 0.037418,0.47566 0.638088,0.822909 1.06839,0.821492 l 15.944,-0.0788 c 0.62108,-0.01729 0.904548,-0.433707 0.925525,-0.979951 l 0.05726,-12.8978003 c 0,-0.575441 -0.342997,-0.889525 -0.960675,-0.889808 L 3.1274879,1.9893922 c -0.570622,0 -1.00546,0.301327 -1.00518,0.8728 z"
   class="fil4" /><g
   id="_241871016">
   <g
   id="g53">
    <path
   style="fill:#c4ebff;fill-opacity:0.48627499"
   inkscape:connector-curvature="0"
   d="M 2.11156,9.92197 C 2.252444,9.89334 2.394178,9.868678 2.536196,9.847134 c 1.4644,-0.231027 2.96338,-0.069166 4.38016,0.796547 0.80987,0.500606 1.54462,0.963793 2.20283,1.38304 3.55413,2.32047 4.64775,3.02915 7.44332,2.12516 0.92836,-0.285736 2.16258,-1.02927 3.49262,-1.70932 l -5.67e-4,0.170932 c -1.31416,0.674088 -2.53336,1.40827 -3.4518,1.69146 -2.85425,0.926092 -3.96204,0.211184 -7.5578399,-2.13905 -0.648576,-0.413014 -1.37397,-0.870816 -2.19773,-1.38049 -1.34676,-0.817807 -2.79528,-0.967762 -4.22737,-0.746089 -0.169514,0.02608 -0.339312,0.05754 -0.508543,0.09354 l 2.834e-4,-0.2109014 z"
   class="fil5"
   id="_241884456" />
    <path
   style="fill:#c4ebff;fill-opacity:0.470588"
   inkscape:connector-curvature="0"
   d="m 2.11127,10.1578 c 0.200129,-0.04054 0.401392,-0.07512 0.603221,-0.104033 1.4695,-0.206649 2.96622,-0.057544 4.3932,0.773019 0.80987,0.478212 1.55766,0.927793 2.236,1.34137 3.49545,2.26406 4.6194,2.9733 7.38152,2.14217 0.896895,-0.246051 2.06904,-0.902281 3.32849,-1.50975 l -8.5e-4,0.166963 c -1.24698,0.605489 -2.40722,1.25435 -3.29362,1.4987 -2.8191,0.854658 -3.95524,0.134648 -7.4895204,-2.15379 -0.67012,-0.409045 -1.40657,-0.853808 -2.2309,-1.34194 -1.35668,-0.784641 -2.80634,-0.922123 -4.24466,-0.721144 -0.228192,0.03232 -0.456101,0.072 -0.683159,0.11849 l 2.835e-4,-0.21005 z"
   class="fil6"
   id="_241881984" />
    <path
   style="fill:#c4ebff;fill-opacity:0.45490202"
   inkscape:connector-curvature="0"
   d="m 2.11099,10.3874 c 0.259374,-0.04932 0.519881,-0.09156 0.78124,-0.12501 1.4746,-0.187656 2.97075,-0.04564 4.40624,0.745239 0.811287,0.459786 1.56843,0.895761 2.26775,1.30481 3.43989,2.20057 4.59276,2.91718 7.31859,2.15436 0.865146,-0.206082 1.97691,-0.777271 3.16719,-1.31501 l -5.67e-4,0.161294 c -1.17951,0.53689 -2.28051,1.10468 -3.13715,1.31076 -2.78168,0.785208 -3.94135,0.06151 -7.4206399,-2.1657 -0.689396,-0.404226 -1.43634,-0.836516 -2.25726,-1.30566 -1.37142,-0.745806 -2.81966,-0.871666 -4.26762,-0.693931 -0.287437,0.03572 -0.573174,0.08221 -0.85806,0.136632 l 2.834e-4,-0.207783 z"
   class="fil7"
   id="_241874160" />
    <path
   style="fill:#c4ebff;fill-opacity:0.43921599"
   inkscape:connector-curvature="0"
   d="m 2.11071,10.6114 c 0.318335,-0.05669 0.638655,-0.10375 0.960959,-0.139183 1.47942,-0.169514 2.97274,-0.03685 4.41928,0.715191 0.809019,0.44051 1.58147,0.863729 2.29638,1.26994 3.3866,2.1399 4.56668,2.85963 7.25821,2.1674 0.833681,-0.168664 1.88393,-0.661332 3.00505,-1.13189 l -8.5e-4,0.157892 c -1.11233,0.470274 -2.15379,0.960959 -2.97954,1.13161 -2.74341,0.714057 -3.93228,-0.01247 -7.3526104,-2.17647 -0.707538,-0.402242 -1.46695,-0.819508 -2.28731,-1.26852 -1.38163,-0.711506 -2.83327,-0.829429 -4.28661,-0.669269 -0.345832,0.03742 -0.69053,0.08731 -1.03324,0.146837 l 2.835e-4,-0.20353 z"
   class="fil8"
   id="_241891056" />
    <path
   style="fill:#c4ebff;fill-opacity:0.42352899"
   inkscape:connector-curvature="0"
   d="m 2.11042,10.8268 c 0.378431,-0.05925 0.757995,-0.108852 1.14011,-0.145419 1.48367,-0.147971 2.97699,-0.02891 4.43118,0.686844 0.812421,0.420101 1.59394,0.83113 2.33068,1.23252 3.32735,2.07839 4.5372,2.80322 7.19472,2.18157 0.798248,-0.134364 1.7884,-0.551346 2.84206,-0.956707 l -8.5e-4,0.15449 c -1.04713,0.407344 -2.0302,0.825461 -2.82165,0.961242 -2.70741,0.642056 -3.92604,-0.08873 -7.2857104,-2.19008 -0.72568,-0.395155 -1.49785,-0.800232 -2.31537,-1.23082 -1.39552,-0.675506 -2.84801,-0.78294 -4.30844,-0.64234 -0.403659,0.03799 -0.806185,0.08873 -1.20701,0.148821 l 2.835e-4,-0.200129 z"
   class="fil9"
   id="_241893936" />
    <path
   style="fill:#c4ebff;fill-opacity:0.40784302"
   inkscape:connector-curvature="0"
   d="m 2.11014,11.0332 c 0.437109,-0.05783 0.875068,-0.106868 1.31756,-0.144002 1.49104,-0.12586 2.98181,-0.01758 4.44649,0.661332 0.80987,0.400541 1.6067,0.798248 2.35761,1.19369 3.27491,2.01971 4.51367,2.74681 7.13576,2.19717 0.764231,-0.101765 1.69344,-0.449014 2.6802,-0.793145 l -8.5e-4,0.151089 c -0.981935,0.347249 -1.90746,0.697049 -2.66687,0.801649 -2.66574,0.570339 -3.90988,-0.161294 -7.21626,-2.2034 -0.7441054,-0.391187 -1.5284604,-0.785492 -2.3440004,-1.19227 -1.40657,-0.640639 -2.8602,-0.737018 -4.32658,-0.616828 -0.462904,0.03515 -0.924108,0.08419 -1.38361,0.141734 l 5.669e-4,-0.197011 z"
   class="fil10"
   id="_241878768" />
    <path
   style="fill:#c4ebff;fill-opacity:0.39215698"
   inkscape:connector-curvature="0"
   d="m 2.10957,11.2288 c 0.496921,-0.05131 0.994975,-0.09695 1.49728,-0.131529 1.49671,-0.106301 2.98492,-0.0082 4.45981,0.63497 0.807886,0.379848 1.61605,0.763664 2.38936,1.15627 3.21822,1.95792 4.48561,2.68955 7.07226,2.21162 0.728231,-0.07172 1.59791,-0.354619 2.51805,-0.640356 l -8.5e-4,0.150522 c -0.916738,0.289421 -1.78358,0.574874 -2.5087,0.649427 -2.6286,0.498621 -3.90053,-0.236129 -7.14709,-2.21531 -0.7639484,-0.387502 -1.5610604,-0.767633 -2.3749004,-1.15599 -1.42046,-0.603221 -2.8738,-0.691097 -4.34898,-0.592449 -0.520732,0.03515 -1.03863,0.07795 -1.55653,0.125293 l 2.835e-4,-0.192475 z"
   class="fil11"
   id="_241877712" />
    <path
   style="fill:#c4ebff;fill-opacity:0.38039198"
   inkscape:connector-curvature="0"
   d="m 2.10929,11.4144 c 0.557299,-0.03912 1.11432,-0.07682 1.67785,-0.108852 1.49785,-0.08476 2.98436,0 4.47257,0.607473 0.807319,0.360289 1.62654,0.730782 2.41855,1.11885 3.16039,1.89839 4.45839,2.63427 7.00905,2.22495 0.69053,-0.04224 1.5021,-0.264476 2.35761,-0.495503 l -5.67e-4,0.14712 c -0.854374,0.235562 -1.66538,0.463188 -2.35251,0.508543 -2.59034,0.430589 -3.89061,-0.309831 -7.0785,-2.22665 -0.7835069,-0.381549 -1.5922399,-0.750908 -2.4026799,-1.1163 -1.43463,-0.570339 -2.88769,-0.645175 -4.37052,-0.568071 -0.578559,0.02835 -1.15372,0.0618 -1.73114,0.09468 l 2.834e-4,-0.18624 z"
   class="fil12"
   id="_241884096" />
    <path
   style="fill:#c4ebff;fill-opacity:0.364706"
   inkscape:connector-curvature="0"
   d="m 2.10929,11.5868 c 0.619379,-0.02013 1.23309,-0.04592 1.85417,-0.072 1.5055,-0.06378 2.99286,0.01106 4.48646,0.580827 0.807035,0.337611 1.64072,0.696199 2.45144,1.07973 3.1054,1.83603 4.4326,2.5756 6.94782,2.24082 0.651127,-0.01814 1.40402,-0.185388 2.19433,-0.365108 l -5.67e-4,0.14627 c -0.791161,0.184538 -1.54434,0.357454 -2.19461,0.380131 -2.55434,0.356604 -3.88182,-0.384383 -7.01103,-2.24252 -0.800515,-0.377013 -1.6211599,-0.734184 -2.4330099,-1.07746 -1.44371,-0.534055 -2.8979,-0.600387 -4.3898,-0.542275 -0.636954,0.02296 -1.26824,0.04337 -1.90548,0.05584 L 2.1092965,11.5868 z"
   class="fil13"
   id="_241876944" />
    <path
   style="fill:#c4ebff;fill-opacity:0.34902003"
   inkscape:connector-curvature="0"
   d="m 2.10901,11.7464 c 0.681459,0.0051 1.35413,-0.002 2.03247,-0.02353 1.51287,-0.04252 2.99456,0.02239 4.50063,0.554465 0.807035,0.319186 1.65432,0.662183 2.48148,1.0409 3.05012,1.77735 4.40539,2.5206 6.88574,2.25471 0.611725,0.0051 1.30651,-0.114238 2.03304,-0.247752 l -5.67e-4,0.148538 c -0.729081,0.1389 -1.42641,0.264476 -2.03842,0.263909 -2.5172,0.283469 -3.87133,-0.460637 -6.94441,-2.25669 -0.814972,-0.373045 -1.6469499,-0.714908 -2.4593699,-1.03976 -1.4576,-0.496921 -2.91292,-0.552764 -4.40964,-0.516763 -0.695065,0.01701 -1.38219,0.01956 -2.08123,0.0037 l 2.834e-4,-0.181703 z"
   class="fil14"
   id="_241885008" />
    <path
   style="fill:#c4ebff;fill-opacity:0.33333297"
   inkscape:connector-curvature="0"
   d="m 2.10872,11.8929 c 0.744389,0.03827 1.47432,0.05074 2.21219,0.0394 1.51712,-0.02268 2.99966,0.0309 4.51112,0.525834 0.808169,0.298209 1.66651,0.631001 2.51465,1.00376 2.99286,1.71669 4.37817,2.46221 6.82337,2.2703 0.570055,0.02438 1.20729,-0.05102 1.87118,-0.142018 l -5.67e-4,0.146553 c -0.667852,0.09723 -1.30906,0.179436 -1.8811,0.158175 -2.47922,0.214869 -3.86113,-0.534338 -6.87581,-2.26662 -0.835666,-0.368226 -1.6781299,-0.697616 -2.4865899,-1.00376 -1.47319,-0.460637 -2.92908,-0.506275 -4.43458,-0.491535 -0.748924,0.0068 -1.49161,-0.01361 -2.25414,-0.06321 l 2.834e-4,-0.176884 z"
   class="fil15"
   id="_241878168" />
    <path
   style="fill:#c4ebff;fill-opacity:0.317647"
   inkscape:connector-curvature="0"
   d="m 2.10844,12.0245 c 0.810153,0.0771 1.59621,0.116506 2.39219,0.116506 1.52081,-0.0026 2.99966,0.04054 4.52473,0.499188 0.803634,0.278366 1.67728,0.596985 2.54328,0.965211 2.93929,1.65687 4.35039,2.4075 6.76101,2.28532 0.525834,0.03969 1.10524,0.002 1.70676,-0.05046 -0.004,0.05187 -0.01049,0.102332 -0.01956,0.151372 -0.60067,0.05726 -1.17923,0.09893 -1.70365,0.06095 -2.44038,0.144569 -3.84979,-0.606623 -6.8075,-2.27937 -0.85239,-0.364257 -1.7070503,-0.680325 -2.5135203,-0.96436 -1.48594,-0.425486 -2.9424,-0.46007 -4.45499,-0.465172 -0.805051,-0.0031 -1.60302,-0.05216 -2.42904,-0.144852 L 2.1084332,12.0245 z"
   class="fil16"
   id="_241867320" />
    <path
   style="fill:#c4ebff;fill-opacity:0.30196102"
   inkscape:connector-curvature="0"
   d="m 2.10844,12.1446 c 0.876485,0.124159 1.71612,0.195026 2.57021,0.204948 1.52421,0.01956 3.0042,0.05131 4.53748,0.472259 0.807886,0.256539 1.69032,0.562118 2.57503,0.92836 2.88373,1.59564 4.32545,2.35024 6.7012,2.29695 0.469141,0.05414 0.978817,0.04932 1.50579,0.02976 -0.01389,0.05358 -0.0309,0.104883 -0.05159,0.153357 -0.517047,0.02296 -1.01624,0.0309 -1.47659,-0.01814 -2.40353,0.07399 -3.8393,-0.681459 -6.74003,-2.29241 -0.871099,-0.359438 -1.7390803,-0.663033 -2.5427103,-0.92836 -1.49927,-0.39062 -2.95629,-0.41273 -4.47427,-0.438242 -0.861461,-0.01531 -1.71158,-0.09723 -2.60479,-0.238964 l 2.835e-4,-0.169514 z"
   class="fil17"
   id="_241887792" />
    <path
   style="fill:#c4ebff;fill-opacity:0.28627499"
   inkscape:connector-curvature="0"
   d="m 2.10816,12.2484 c 0.945935,0.178585 1.84113,0.287437 2.74766,0.310965 1.53073,0.03855 3.01072,0.05783 4.55534,0.443628 0.804484,0.236129 1.69854,0.529803 2.60281,0.890091 2.82703,1.53555 4.29767,2.2944 6.63713,2.31225 0.400825,0.05896 0.827445,0.07994 1.26654,0.08788 -0.02863,0.05584 -0.06208,0.108002 -0.100915,0.155341 -0.413297,-0.0057 -0.814405,-0.0241 -1.1917,-0.07824 -2.36526,0.0031 -3.82994,-0.755444 -6.67058,-2.30573 -0.891509,-0.353485 -1.77026,-0.643474 -2.57304,-0.889241 -1.50975,-0.352635 -2.9682,-0.366525 -4.49411,-0.414431 -0.91532,-0.02778 -1.81902,-0.147404 -2.77941,-0.343281 l 2.835e-4,-0.169231 z"
   class="fil18"
   id="_241884264" />
    <path
   style="fill:#c4ebff;fill-opacity:0.27450998"
   inkscape:connector-curvature="0"
   d="m 2.10816,12.3388 c 1.01595,0.241232 1.96585,0.391187 2.92653,0.427187 1.53583,0.05924 3.01526,0.07058 4.56555,0.417549 0.807035,0.216287 1.71328,0.497204 2.63597,0.854091 2.77261,1.47375 4.27017,2.236 6.57449,2.32586 0.312949,0.05754 0.640072,0.09383 0.975132,0.120474 -0.05244,0.05698 -0.113387,0.105734 -0.183121,0.14627 -0.281201,-0.02239 -0.556449,-0.05329 -0.820358,-0.100348 -2.32671,-0.0686 -3.82201,-0.829429 -6.60539,-2.31651 -0.9071,-0.352918 -1.79832,-0.630151 -2.60054,-0.853808 -1.52251,-0.318052 -2.98152,-0.32032 -4.5148,-0.387218 -0.969179,-0.04195 -1.92504,-0.206649 -2.95374,-0.466873 l 2.835e-4,-0.16668 z"
   class="fil19"
   id="_241882944" />
    <path
   style="fill:#c4ebff;fill-opacity:0.25882401"
   inkscape:connector-curvature="0"
   d="m 2.10787,12.4131 c 1.09079,0.309264 2.08973,0.510244 3.10625,0.563536 1.54207,0.07767 3.01526,0.07767 4.57944,0.389769 0.804484,0.194743 1.72406,0.462621 2.66602,0.813555 2.7162,1.41394 4.24353,2.18101 6.51354,2.34287 0.20268,0.04422 0.410746,0.08022 0.622497,0.111403 -0.09865,0.05584 -0.214586,0.09468 -0.349233,0.112254 -0.104316,-0.01757 -0.207216,-0.03742 -0.308981,-0.05896 -2.28958,-0.140034 -3.80982,-0.903131 -6.53594,-2.328689 -0.925242,-0.346115 -1.83064,-0.61201 -2.63087,-0.815256 -1.53527,-0.282618 -2.99456,-0.274965 -4.53493,-0.36369 -1.01964,-0.05868 -2.02708,-0.269579 -3.12808,-0.596701 l 2.835e-4,-0.170081 z"
   class="fil20"
   id="_241879752" />
    <path
   style="fill:#c4ebff;fill-opacity:0.24313702"
   inkscape:connector-curvature="0"
   d="m 2.10787,12.4752 c 1.16506,0.386084 2.21672,0.640072 3.2837,0.709239 1.54774,0.0995 3.01979,0.08958 4.59361,0.361706 0.802783,0.178018 1.73851,0.433424 2.69635,0.777271 2.65837,1.35413 4.21773,2.12545 6.45175,2.35506 0.06945,0.01786 0.13975,0.03487 0.210334,0.05102 -0.0703,0.01559 -0.146553,0.02495 -0.228759,0.02721 l -0.71916,0.0037 c -1.89669,-0.29424 -3.38717,-1.03806 -5.77114,-2.25641 -0.945368,-0.340729 -1.86154,-0.593867 -2.65809,-0.776421 -1.55001,-0.246618 -3.00675,-0.228759 -4.55647,-0.337044 -1.06981,-0.0754 -2.1263,-0.342147 -3.30241,-0.745806 l 2.835e-4,-0.169514 z"
   class="fil21"
   id="_241881480" />
    <path
   style="fill:#c4ebff;fill-opacity:0.22745098"
   inkscape:connector-curvature="0"
   d="m 2.10787,12.5248 c 1.24414,0.46829 2.34457,0.779822 3.46058,0.869115 1.55483,0.119624 3.02603,0.09865 4.60835,0.333643 0.802783,0.155908 1.74872,0.39884 2.72725,0.739286 2.40098,1.19057 3.93511,1.94176 5.88339,2.29156 l -0.869682,0.0043 c -1.59309,-0.386935 -3.0093,-1.08342 -5.06757,-2.11156 -0.964644,-0.337895 -1.893,-0.577993 -2.6904,-0.739853 -1.56021,-0.210901 -3.01781,-0.182837 -4.57518,-0.313233 -1.12027,-0.09184 -2.22495,-0.417549 -3.47703,-0.904832 l 2.835e-4,-0.16838 z"
   class="fil22"
   id="_241895088" />
    <path
   style="fill:#c4ebff;fill-opacity:0.21176501"
   inkscape:connector-curvature="0"
   d="m 2.10759,12.5599 c 1.32437,0.559567 2.4727,0.936013 3.6403,1.0426 1.55681,0.140884 3.0283,0.108568 4.61884,0.30643 0.8042,0.135781 1.76204,0.366241 2.76042,0.703286 2.09909,1.01397 3.56433,1.72094 5.22546,2.14813 l -0.685427,0.0034 c -1.41763,-0.42662 -2.76098,-1.07605 -4.59474,-1.96756 -0.980801,-0.332792 -1.92163,-0.559851 -2.7179,-0.700451 -1.57013,-0.176034 -3.03198,-0.136915 -4.59701,-0.286303 -1.16817,-0.112254 -2.32019,-0.500889 -3.65023,-1.07605 l 2.835e-4,-0.173483 z"
   class="fil23"
   id="_241873656" />
    <path
   style="fill:#c4ebff;fill-opacity:0.19607801"
   inkscape:connector-curvature="0"
   d="m 2.10759,12.5835 c 1.40827,0.655946 2.60423,1.10014 3.82116,1.22657 1.56078,0.163278 3.03113,0.11934 4.63103,0.28035 0.801082,0.116222 1.77281,0.331658 2.79047,0.66445 1.87543,0.882721 3.27038,1.54434 4.75434,2.00696 l -0.609174,0.0028 c -1.28666,-0.441644 -2.55604,-1.04487 -4.20157,-1.82185 -0.996392,-0.327973 -1.948,-0.541425 -2.74426,-0.663033 -1.58459,-0.140317 -3.04644,-0.09184 -4.61572,-0.263342 -1.21608,-0.131529 -2.4143,-0.58763 -3.82654,-1.25747 l 2.835e-4,-0.175467 z"
   class="fil24"
   id="_241875408" />
    <path
   style="fill:#c4ebff;fill-opacity:0.18039198"
   inkscape:connector-curvature="0"
   d="m 2.10759,12.5951 c 1.49501,0.757995 2.73604,1.27646 3.99719,1.42273 1.56843,0.184822 3.03567,0.129545 4.64662,0.255405 0.803067,0.09355 1.78614,0.296792 2.82108,0.624198 1.69344,0.773869 3.01752,1.38815 4.3708,1.86494 l -0.56637,0.0028 C 16.1957,16.322713 15.00144,15.767682 13.51947,15.087928 12.50238,14.764774 11.54001,14.564078 10.74516,14.463447 9.14781,14.358847 7.68568,14.418659 6.10733,14.2259 4.84618,14.073677 3.60317,13.545292 2.1073,12.77341 l 2.835e-4,-0.178302 z"
   class="fil25"
   id="_241879272" />
    <path
   style="fill:#c4ebff;fill-opacity:0.164706"
   inkscape:connector-curvature="0"
   d="m 2.10759,12.5954 c 1.58289,0.864579 2.86842,1.46383 4.17719,1.63221 1.57325,0.204664 3.03595,0.138333 4.65909,0.226208 0.800232,0.07512 1.79719,0.265894 2.85084,0.589048 1.53357,0.675506 2.78536,1.24358 4.03149,1.72009 l -0.543409,0.0028 c -1.08739,-0.430872 -2.20454,-0.938848 -3.54024,-1.53357 -1.03438,-0.316918 -2.01036,-0.505425 -2.80067,-0.584512 -1.61237,-0.07143 -3.0745,8.5e-4 -4.65937,-0.211468 -1.30679,-0.173483 -2.59374,-0.781523 -4.17521,-1.65772 L 2.1075845,12.5954 z"
   class="fil26"
   id="_241873728" />
    <path
   style="fill:#c4ebff;fill-opacity:0.152941"
   inkscape:connector-curvature="0"
   d="m 2.10759,12.5837 c 1.6736,0.977967 3.00335,1.66169 4.35323,1.85247 1.57949,0.225358 3.04474,0.148821 4.67525,0.198145 0.800515,0.05641 1.80966,0.233295 2.88146,0.551063 1.389,0.592733 2.56539,1.11375 3.71911,1.57807 l -0.527252,0.0026 c -1.00348,-0.411313 -2.04097,-0.870249 -3.24288,-1.38588 -1.05309,-0.3138 -2.04182,-0.490684 -2.8293,-0.549646 -1.62314,-0.03345 -3.08726,0.04819 -4.68063,-0.183688 -1.35129,-0.198428 -2.68048,-0.885273 -4.34926,-1.87174 l 2.835e-4,-0.191341 z"
   class="fil27"
   id="_241886208" />
    <path
   style="fill:#c4ebff;fill-opacity:0.13725502"
   inkscape:connector-curvature="0"
   d="m 2.10759,12.5633 c 1.76743,1.09476 3.13828,1.86607 4.53465,2.08264 1.58119,0.2435 3.04502,0.158742 4.68489,0.170648 0.800232,0.03373 1.821,0.197861 2.91264,0.513362 1.25633,0.515062 2.35704,0.989306 3.42685,1.43378 l -0.520165,0.0026 c -0.92269,-0.385234 -1.88081,-0.796263 -2.95601,-1.23932 -1.07123,-0.310115 -2.07244,-0.473109 -2.8602,-0.513078 -1.63476,0.0037 -3.09916,0.09525 -4.69906,-0.160443 -1.39296,-0.218554 -2.76354,-0.990439 -4.52388,-2.08916 l 2.835e-4,-0.200979 z"
   class="fil28"
   id="_241864800" />
    <path
   style="fill:#c4ebff;fill-opacity:0.12156899"
   inkscape:connector-curvature="0"
   d="m 2.10787,12.535 c 1.86551,1.21693 3.27746,2.07981 4.71125,2.31764 1.58742,0.26561 3.05069,0.168947 4.69934,0.144569 0.798815,0.01417 1.83603,0.166113 2.94439,0.476227 1.13331,0.444762 2.15521,0.871949 3.14537,1.29063 l -0.525551,0.0026 c -0.840484,-0.353769 -1.71215,-0.716892 -2.66659,-1.09532 -1.09135,-0.305579 -2.1039,-0.45355 -2.89053,-0.472542 -1.64865,0.03884 -3.11305,0.139467 -4.72032,-0.132947 -1.43463,-0.245767 -2.84517,-1.10723 -4.69793,-2.32728 l 5.669e-4,-0.20353 z"
   class="fil29"
   id="_241872912" />
    <path
   style="fill:#c4ebff;fill-opacity:0.10588199"
   inkscape:connector-curvature="0"
   d="m 2.10787,12.4973 c 1.96472,1.34222 3.41466,2.30091 4.89012,2.56596 1.59564,0.284319 3.05352,0.176034 4.71323,0.115372 0.797114,-0.0054 1.84595,0.132947 2.97415,0.438526 1.01737,0.380131 1.95877,0.760263 2.87097,1.1472 l -0.534622,0.0026 c -0.759979,-0.317201 -1.54547,-0.632702 -2.38454,-0.950187 -1.10751,-0.298209 -2.12998,-0.435691 -2.91774,-0.434841 -1.66028,0.07399 -3.12411,0.185672 -4.74016,-0.107435 -1.47432,-0.270146 -2.92114,-1.22487 -4.87169,-2.56652 l 2.835e-4,-0.210617 z"
   class="fil30"
   id="_241889400" />
    <path
   style="fill:#c4ebff;fill-opacity:0.09019602"
   inkscape:connector-curvature="0"
   d="m 2.10787,12.4477 c 2.06705,1.47517 3.553,2.53279 5.06729,2.8242 1.60103,0.305579 3.05664,0.187373 4.72599,0.08873 0.798248,-0.02523 1.85842,0.09865 3.00704,0.398273 0.904832,0.321737 1.76232,0.655096 2.59544,1.00575 l -0.54426,0.0028 C 16.283581,16.491385 15.5888,16.224641 14.86142,15.9647 13.73577,15.667908 12.69855,15.543749 11.9159,15.564726 10.2423,15.676696 8.7762,15.797454 7.15363,15.483087 5.64246,15.18913 4.1534,14.138027 2.1076,12.669377 l 2.835e-4,-0.221672 z"
   class="fil31"
   id="_241876272" />
    <path
   style="fill:#c4ebff;fill-opacity:0.07450998"
   inkscape:connector-curvature="0"
   d="m 2.10787,12.3958 c 2.1708,1.60642 3.69416,2.76921 5.24842,3.08471 1.60358,0.326556 3.05948,0.19616 4.73619,0.06208 0.799382,-0.04621 1.87061,0.06548 3.03822,0.361139 0.793145,0.266461 1.56078,0.552197 2.3114,0.861178 l -0.557866,0.0028 c -0.586213,-0.231027 -1.18405,-0.448731 -1.79889,-0.65623 -1.14323,-0.293107 -2.19348,-0.403376 -2.97415,-0.362556 -1.68664,0.14712 -3.15245,0.27865 -4.78353,-0.05641 -1.54972,-0.319469 -3.07167,-1.47007 -5.22007,-3.06713 l 2.835e-4,-0.22961 z"
   class="fil32"
   id="_241874088" />
    <path
   style="fill:#c4ebff;fill-opacity:0.05882401"
   inkscape:connector-curvature="0"
   d="m 2.10816,12.332 c 2.27625,1.74362 3.83703,3.01157 5.42389,3.35627 1.60925,0.347533 3.066,0.207783 4.75292,0.03515 0.798531,-0.06605 1.88337,0.03232 3.0677,0.323721 0.68486,0.21572 1.35923,0.454117 2.02312,0.718026 l -0.584796,0.0031 c -0.488133,-0.183121 -0.981935,-0.354336 -1.48169,-0.513078 -1.1625,-0.28602 -2.22268,-0.382966 -3.00392,-0.322304 -1.69883,0.181987 -3.16578,0.325705 -4.80224,-0.03175 -1.58799,-0.346399 -3.14707,-1.60018 -5.39554,-3.33132 l 5.669e-4,-0.23783 z"
   class="fil33"
   id="_241871280" />
    <path
   style="fill:#c4ebff;fill-opacity:0.047059"
   inkscape:connector-curvature="0"
   d="m 2.10816,12.2648 0.022678,0.01758 c 2.37405,1.87458 3.96204,3.24543 5.58008,3.61649 1.61634,0.365958 3.068549,0.21572 4.76738,0.0048 0.79598,-0.08788 1.893571,0 3.09746,0.288855 0.57459,0.16753 1.149179,0.357737 1.719239,0.573174 l -0.621362,0.0031 c -0.378714,-0.132096 -0.758846,-0.253988 -1.13926,-0.365675 -1.182909,-0.283752 -2.253859,-0.368226 -3.03311,-0.285453 -1.71243,0.21742 -3.18137,0.371627 -4.82294,-0.0062 -1.62399,-0.371911 -3.21935,-1.73341 -5.57044,-3.5975 l 2.835e-4,-0.249169 z"
   class="fil34"
   id="_241867104" />
    <path
   style="fill:#c4ebff;fill-opacity:0.03137303"
   inkscape:connector-curvature="0"
   d="m 2.10816,12.1903 0.154774,0.122175 c 2.40835,1.965 4.00371,3.40304 5.62657,3.79394 1.62116,0.387502 3.07138,0.227909 4.78183,-0.02041 0.794563,-0.107435 1.90406,-0.03345 3.12694,0.249169 0.459219,0.124443 0.924108,0.267878 1.38956,0.431156 l -0.674655,0.0031 c -0.253421,-0.07937 -0.506558,-0.153073 -0.757712,-0.221106 -1.19964,-0.277232 -2.28192,-0.350367 -3.05891,-0.247468 -1.72547,0.254271 -3.19327,0.418116 -4.84363,0.01843 -1.65007,-0.396006 -3.26613,-1.84793 -5.69829,-3.83221 l -0.046772,-0.0377 2.835e-4,-0.25909 z"
   class="fil35"
   id="_241895256" />
    <path
   style="fill:#c4ebff;fill-opacity:0.01568598"
   inkscape:connector-curvature="0"
   d="m 2.10844,12.1183 c 0.093545,0.07143 0.187373,0.146837 0.282335,0.226208 2.44804,2.05231 4.04878,3.55923 5.67674,3.97055 1.62711,0.409045 3.07819,0.235846 4.79459,-0.04762 0.793712,-0.127844 1.91823,-0.06775 3.15727,0.211468 0.339312,0.08249 0.684577,0.178302 1.03239,0.288004 l -0.773019,0.0037 c -0.09978,-0.02636 -0.199562,-0.05159 -0.298492,-0.07569 -1.21835,-0.273547 -2.31339,-0.333076 -3.08924,-0.21005 -1.73766,0.289705 -3.20603,0.464889 -4.86631,0.04592 C 6.369814,16.114658 4.745254,14.5913 2.273414,12.51914 2.218138,12.47237 2.162578,12.4273 2.107868,12.383642 l 5.669e-4,-0.265327 z"
   class="fil36"
   id="_241887696" />
   </g>
   <g
   id="g87">
    <path
   style="fill:#458bc9;fill-opacity:0.43137303"
   inkscape:connector-curvature="0"
   d="M 10.2307,1.98938 C 6.73978,2.360157 4.75635,3.7415 2.11443,8.04795 L 2.11556,7.400224 C 4.10041,4.234444 5.73687,2.700594 7.9363,1.989374 l 2.2944,0 z"
   class="fil37"
   id="_241863336" />
    <path
   style="fill:#458bc9;fill-opacity:0.41960802"
   inkscape:connector-curvature="0"
   d="M 18.7529,1.9891 C 17.850336,2.0231162 16.99341,2.0565655 16.18212,2.091432 8.44059,1.949698 5.90522,2.009793 2.11472,7.951862 l 8.504e-4,-0.639505 c 2.15861,-3.30978 3.93795,-4.73619 6.52006,-5.32297 L 18.75293,1.9891035 z"
   class="fil38"
   id="_241865136" />
    <path
   style="fill:#458bc9;fill-opacity:0.40784302"
   inkscape:connector-curvature="0"
   d="M 19.163,1.98938 C 18.00758,2.0715859 16.91594,2.156343 15.88894,2.2411 8.40338,2.1861071 5.80374,2.3204712 2.11464,7.8654 L 2.11577,7.239785 c 2.42677,-3.57142 4.41587,-4.82719 7.65394,-5.25041 l 9.36722,-2.835e-4 0.02608,2.835e-4 z"
   class="fil39"
   id="_241890528" />
    <path
   style="fill:#458bc9;fill-opacity:0.4"
   inkscape:connector-curvature="0"
   d="M 19.1429,1.9891 C 17.89479,2.119779 16.71244,2.256411 15.59614,2.390775 8.3606,2.4236574 5.70564,2.627188 2.11494,7.802195 l 8.504e-4,-0.620229 c 2.97699,-4.19987 5.36096,-5.02221 10.2632996,-5.19286 l 6.75789,0 0.006,0 z"
   class="fil40"
   id="_241867464" />
    <path
   style="fill:#458bc9;fill-opacity:0.38823499"
   inkscape:connector-curvature="0"
   d="M 18.9706,1.9891 C 17.68904,2.165417 16.46502,2.355341 15.30365,2.543281 8.31586,2.656385 5.61328,2.928231 2.11495,7.759101 l 8.504e-4,-0.61541 c 3.46852,-4.68857 6.22129,-4.94653 13.1630996,-5.04943 l 0.66445,-0.105167 3.02716,0 z"
   class="fil41"
   id="_241882728" />
    <path
   style="fill:#458bc9;fill-opacity:0.38039198"
   inkscape:connector-curvature="0"
   d="M 18.7625,1.9891 C 17.46081,2.212473 16.20788,2.453705 15.01136,2.69352 8.26736,2.887129 5.52395,3.225024 2.11496,7.72594 L 2.1158104,7.11875 C 5.4967404,2.74766 8.2829504,2.42593 14.98071,2.24281 15.409598,2.158336 15.845573,2.073579 16.28977,1.989106 l 2.4727,0 z"
   class="fil42"
   id="_241884792" />
    <path
   style="fill:#458bc9;fill-opacity:0.36862703"
   inkscape:connector-curvature="0"
   d="M 18.5136,1.9891 C 17.20879,2.259246 15.93914,2.553486 14.71654,2.84149 8.21575,3.11362 5.44088,3.516429 2.11494,7.71205 l 8.504e-4,-0.602371 c 3.29646,-4.07656 6.10733,-4.46038 12.5649996,-4.7172 0.573174,-0.134364 1.1574,-0.269862 1.75325,-0.403376 l 2.07953,0 z"
   class="fil43"
   id="_241887096" />
    <path
   style="fill:#458bc9;fill-opacity:0.35686298"
   inkscape:connector-curvature="0"
   d="M 18.2534,1.9891 C 16.94803,2.305451 15.66533,2.65355 14.42204,2.99371 8.1588,3.339258 5.35983,3.800745 2.11494,7.71261 l 8.504e-4,-0.598119 c 3.21709,-3.80018 6.04639,-4.24267 12.2653996,-4.5698 0.680325,-0.185955 1.37256,-0.373328 2.07783,-0.555599 l 1.79436,0 z"
   class="fil44"
   id="_241870848" />
    <path
   style="fill:#458bc9;fill-opacity:0.34902003"
   inkscape:connector-curvature="0"
   d="M 17.9798,1.9891 C 16.67811,2.351656 15.38833,2.751914 14.12888,3.14452 8.1012,3.556967 5.28438,4.08025 2.11488,7.72792 l 8.504e-4,-0.597268 c 3.14055,-3.54109 5.98119,-4.04283 11.9671996,-4.43628 0.761964,-0.235846 1.53498,-0.474526 2.32019,-0.70527 l 1.57665,0 z"
   class="fil45"
   id="_241872720" />
    <path
   style="fill:#458bc9;fill-opacity:0.33725502"
   inkscape:connector-curvature="0"
   d="M 17.7032,1.9891 C 16.40832,2.398145 15.11286,2.852262 13.83612,3.29476 8.03522,3.77609 5.20989,4.3538 2.11502,7.75797 l 8.504e-4,-0.593016 c 3.0677,-3.30383 5.91231,-3.86084 11.6683996,-4.32346 0.827728,-0.285736 1.66481,-0.575158 2.51097,-0.85239 l 1.40799,0 z"
   class="fil46"
   id="_241887984" />
    <path
   style="fill:#458bc9;fill-opacity:0.32549002"
   inkscape:connector-curvature="0"
   d="M 17.4237,1.9891 C 16.13675,2.4435 14.83563,2.950342 13.54472,3.44443 7.96861,3.990958 5.13931,4.62366 2.11502,7.79908 l 8.504e-4,-0.589898 c 2.99711,-3.08499 5.8369,-3.69218 11.3687996,-4.21631 0.884139,-0.336477 1.7731,-0.67834 2.66631,-1.00376 l 1.27277,0 z"
   class="fil47"
   id="_241863216" />
    <path
   style="fill:#458bc9;fill-opacity:0.317647"
   inkscape:connector-curvature="0"
   d="M 17.1382,1.9891 C 15.86146,2.490273 14.55523,3.05126 13.25043,3.59693 7.89372,4.201569 5.07321,4.88473 2.11463,7.85321 L 2.11576,7.264729 c 2.92795,-2.88203 5.75867,-3.53939 11.07,-4.12135 0.931761,-0.387218 1.86409,-0.780956 2.79387,-1.15428 l 1.15854,0 z"
   class="fil48"
   id="_241870728" />
    <path
   style="fill:#458bc9;fill-opacity:0.30588199"
   inkscape:connector-curvature="0"
   d="M 16.8482,1.9891 C 15.58336,2.535628 14.27516,3.14905 12.95816,3.74689 7.81717,4.411057 5.00715,5.14099 2.11466,7.91756 L 2.1155104,7.33163 C 4.9762804,4.63556 7.7919704,3.93227 12.88621,3.29334 13.858507,2.854814 14.82655,2.409201 15.78496,1.9891 l 1.06329,0 z"
   class="fil49"
   id="_241870896" />
    <path
   style="fill:#458bc9;fill-opacity:0.29803898"
   inkscape:connector-curvature="0"
   d="M 16.5577,1.9891 C 15.30477,2.5824 13.99486,3.24912 12.66539,3.89713 7.737,4.615723 4.94257,5.39158 2.11469,7.99268 l 8.504e-4,-0.584512 c 2.7967,-2.52457 5.58915,-3.27548 10.4698996,-3.96629 1.00972,-0.488416 2.00724,-0.986471 2.98549,-1.45278 l 0.986754,0 z"
   class="fil50"
   id="_241874688" />
    <path
   style="fill:#458bc9;fill-opacity:0.28627499"
   inkscape:connector-curvature="0"
   d="M 16.2668,1.9891 C 15.02492,2.628038 13.7136,3.34777 12.37251,4.04765 7.64907,4.817834 4.88015,5.63933 2.11431,8.07772 l 8.504e-4,-0.583945 c 2.73491,-2.36866 5.49986,-3.16011 10.1713996,-3.9011 1.04203,-0.540575 2.06422,-1.09022 3.05806,-1.60358 l 0.922123,0 z"
   class="fil51"
   id="_241891848" />
    <path
   style="fill:#458bc9;fill-opacity:0.27450998"
   inkscape:connector-curvature="0"
   d="M 15.9715,1.9891 C 14.7438,2.67396 13.43219,3.44585 12.07721,4.19732 7.55872,5.015694 4.81956,5.87744 2.11442,8.17042 l 8.504e-4,-0.583662 c 2.67084,-2.22523 5.40235,-3.05522 9.8734996,-3.84298 1.07123,-0.591599 2.11524,-1.1951 3.12099,-1.75467 l 0.861745,0 z"
   class="fil52"
   id="_241869960" />
    <path
   style="fill:#458bc9;fill-opacity:0.26666703"
   inkscape:connector-curvature="0"
   d="M 15.6767,1.9891 C 14.46175,2.719599 13.14873,3.54619 11.78524,4.34784 7.46433,5.211285 4.75975,6.11243 2.11414,8.27246 l 8.504e-4,-0.585079 c 2.61075,-2.0954 5.30143,-2.96225 9.5738696,-3.79394 1.09759,-0.643757 2.1606,-1.29829 3.17598,-1.90434 l 0.811854,0 z"
   class="fil53"
   id="_241863360" />
    <path
   style="fill:#458bc9;fill-opacity:0.25490202"
   inkscape:connector-curvature="0"
   d="M 15.3813,1.9891 C 14.18109,2.766938 12.86892,3.64484 11.49211,4.49921 7.36537,5.406026 4.69878,6.34006 2.11412,8.37933 l 8.504e-4,-0.585079 c 2.54895,-1.97578 5.19456,-2.87919 9.2759396,-3.75114 1.12225,-0.693648 2.20085,-1.40147 3.22077,-2.05401 l 0.769617,0 z"
   class="fil54"
   id="_241885512" />
    <path
   style="fill:#458bc9;fill-opacity:0.247059"
   inkscape:connector-curvature="0"
   d="M 15.0856,1.9891 C 13.89928,2.812576 12.58569,3.74547 11.19839,4.65144 7.25931,5.596241 4.63978,6.56344 2.11379,8.49187 L 2.1146404,7.90594 C 4.6017904,6.03618 7.2009204,5.103 11.09039,4.19278 12.23645,3.448958 13.33036,2.68813 14.35396,1.98909 l 0.731633,0 z"
   class="fil55"
   id="_241865856" />
    <path
   style="fill:#458bc9;fill-opacity:0.235294"
   inkscape:connector-curvature="0"
   d="M 14.7869,1.9891 C 13.61362,2.859349 12.30343,3.84525 10.90565,4.80224 7.15111,5.782191 4.58033,6.78028 2.11359,8.61064 L 2.11472,8.02301 C 4.54235,6.25161 7.08704,5.28867 10.79141,4.34415 11.9576,3.548454 13.0654,2.7349 14.08928,1.98909 l 0.697616,0 z"
   class="fil56"
   id="_241873800" />
    <path
   style="fill:#458bc9;fill-opacity:0.22352899"
   inkscape:connector-curvature="0"
   d="M 14.4898,1.9891 C 13.33183,2.90442 12.01965,3.94305 10.61337,4.94993 7.03911,5.96503 4.51964,6.99317 2.11356,8.73367 l 8.504e-4,-0.588481 c 2.36441,-1.68465 4.8561,-2.67509 8.3779196,-3.65306 1.18717,-0.846154 2.3046,-1.71158 3.32735,-2.50303 l 0.67012,0 z"
   class="fil57"
   id="_241881264" />
    <path
   style="fill:#458bc9;fill-opacity:0.21568598"
   inkscape:connector-curvature="0"
   d="M 14.1921,1.9891 C 13.04859,2.952043 11.73726,4.04311 10.32077,5.10074 6.91943,6.14617 4.46119,7.19897 2.11322,8.85925 l 8.504e-4,-0.589898 c 2.30432,-1.60472 4.73223,-2.62123 8.0785696,-3.62726 1.20701,-0.896611 2.33521,-1.81533 3.3557,-2.65298 l 0.643757,0 z"
   class="fil58"
   id="_241864608" />
    <path
   style="fill:#458bc9;fill-opacity:0.20392199"
   inkscape:connector-curvature="0"
   d="M 13.8951,1.9891 C 12.76576,2.9957 11.45529,4.14091 10.02689,5.25126 6.79563,6.32447 4.3989,7.39995 2.11301,8.98823 L 2.11414,8.39493 C 4.35638,6.85995 6.72022,5.82444 9.89394,4.79176 11.118524,3.842424 12.254674,2.87239 13.270624,1.98911 l 0.624481,0 z"
   class="fil59"
   id="_241894320" />
    <path
   style="fill:#458bc9;fill-opacity:0.19607801"
   inkscape:connector-curvature="0"
   d="M 13.5966,1.9891 C 12.48285,3.04417 11.17266,4.24211 9.73122,5.40348 6.67004,6.4988 4.33766,7.59441 2.113,9.11749 l 8.504e-4,-0.596701 c 2.17789,-1.46922 4.4737,-2.52372 7.4813,-3.57794 C 10.83703,3.942209 11.98309,2.918319 12.99422,1.989109 l 0.602371,0 z"
   class="fil60"
   id="_241879464" />
    <path
   style="fill:#458bc9;fill-opacity:0.18431402"
   inkscape:connector-curvature="0"
   d="M 13.2978,1.9891 C 12.19879,3.08924 10.88718,4.34019 9.44036,5.55202 6.53991,6.66974 4.27358,7.7832 2.1127,9.24902 l 8.504e-4,-0.598969 c 2.11354,-1.41281 4.33707,-2.48347 7.18196,-3.55725 1.2597296,-1.0511 2.4106196,-2.128 3.4172096,-3.1037 l 0.585079,0 z"
   class="fil61"
   id="_241887192" />
    <path
   style="fill:#458bc9;fill-opacity:0.17254902"
   inkscape:connector-curvature="0"
   d="M 12.9993,1.9891 C 11.9139,3.13516 10.60456,4.43884 9.14639,5.70367 6.40496,6.83811 4.2112,7.96773 2.1124,9.38083 L 2.11353,8.776758 c 2.04834,-1.36122 4.19789,-2.44435 6.88375,-3.53372 1.27476,-1.10241 2.43216,-2.23232 3.4311,-3.25394 l 0.570906,0 z"
   class="fil62"
   id="_241880208" />
    <path
   style="fill:#458bc9;fill-opacity:0.164706"
   inkscape:connector-curvature="0"
   d="M 12.698,1.9891 C 11.62904,3.18109 10.32055,4.53777 8.85246,5.85391 6.26411,7.00224 4.1466,8.14292 2.11243,9.51094 l 8.504e-4,-0.607473 c 1.98003,-1.31444 4.05388,-2.40807 6.58441,-3.51161 1.29205,-1.15457 2.4551196,-2.33606 3.4455596,-3.40276 l 0.554748,0 z"
   class="fil63"
   id="_241874544" />
    <path
   style="fill:#458bc9;fill-opacity:0.152941"
   inkscape:connector-curvature="0"
   d="M 12.4001,1.9891 C 11.34616,3.22757 10.03966,4.6367 8.55995,6.00387 6.11957,7.16411 4.07888,8.31556 2.11217,9.6385 l 8.504e-4,-0.610308 c 1.91256,-1.27107 3.90676,-2.37348 6.28507,-3.48553 1.30736,-1.20503 2.4749596,-2.44038 3.4571796,-3.55356 l 0.544827,0 z"
   class="fil64"
   id="_241864728" />
    <path
   style="fill:#458bc9;fill-opacity:0.14509798"
   inkscape:connector-curvature="0"
   d="M 12.0996,1.9891 C 11.0604,3.2735 9.75531,4.73704 8.26795,6.15495 5.97412,7.32312 4.01167,8.47996 2.11186,9.76549 L 2.11299,9.150647 c 1.84368,-1.23309 3.75284,-2.34003 5.98601,-3.45775 1.31983,-1.25662 2.49396,-2.54498 3.46767,-3.7038 l 0.532921,0 z"
   class="fil65"
   id="_241881048" />
    <path
   style="fill:#458bc9;fill-opacity:0.13333297"
   inkscape:connector-curvature="0"
   d="M 11.7991,1.9891 C 10.77663,3.32027 9.47069,4.83626 7.97284,6.30519 5.82273,7.4779 3.9405,8.63785 2.11184,9.88767 l 8.504e-4,-0.618529 c 1.76998,-1.19851 3.59722,-2.30573 5.68581,-3.42657 1.3357,-1.30821 2.5143696,-2.64845 3.4778796,-3.85347 l 0.522716,0 z"
   class="fil66"
   id="_241863096" />
    <path
   style="fill:#458bc9;fill-opacity:0.12156899"
   inkscape:connector-curvature="0"
   d="M 11.4975,1.9891 C 10.49005,3.36534 9.1878,4.93632 7.68031,6.45657 5.66712,7.62985 3.86851,8.78697 2.11157,10.00446 l 8.504e-4,-0.622214 c 1.69684,-1.16506 3.43876,-2.27058 5.38732,-3.38915 1.34874,-1.35952 2.5308096,-2.7539 3.4841096,-4.00371 l 0.513645,-2.835e-4 z"
   class="fil67"
   id="_241870320" />
    <path
   style="fill:#458bc9;fill-opacity:0.11372501"
   inkscape:connector-curvature="0"
   d="M 11.1981,1.9891 C 10.207094,3.41268 8.90569,5.03412 7.388,6.6085 5.50917,7.77667 3.79475,8.93238 2.11123,10.11898 L 2.11236,9.492231 c 1.62059,-1.13302 3.27321,-2.236 5.08826,-3.34918 1.36433,-1.41082 2.5498,-2.8568 3.49262,-4.15367 l 0.504858,-2.835e-4 z"
   class="fil68"
   id="_241887408" />
    <path
   style="fill:#458bc9;fill-opacity:0.10196102"
   inkscape:connector-curvature="0"
   d="M 10.8971,1.98938 C 9.920834,3.45746 8.62028,5.13305 7.09437,6.75676 5.34537,7.92125 3.71996,9.0693 2.11128,10.22727 l 8.504e-4,-0.634119 c 1.54264,-1.10269 3.10653,-2.19433 4.79005,-3.30043 1.37737,-1.4627 2.56341,-2.96168 3.4948796,-4.30334 l 0.500039,0 z"
   class="fil69"
   id="_241881576" />
    <path
   style="fill:#458bc9;fill-opacity:0.09019602"
   inkscape:connector-curvature="0"
   d="M 10.5975,1.98938 C 9.636258,3.50395 8.33514,5.23226 6.80129,6.90728 5.17985,8.06185 3.6426,9.19997 2.11102,10.32846 L 2.11215,9.687821 C 3.574,8.613191 5.04747,7.535731 6.60399,6.442101 7.9927,4.929231 9.18214,3.377241 10.10256,1.989371 l 0.494936,0 z"
   class="fil70"
   id="_241893912" />
    <path
   style="fill:#458bc9;fill-opacity:0.082353"
   inkscape:connector-curvature="0"
   d="M 10.297,1.98938 C 9.352199,3.54987 8.05391,5.33148 6.50759,7.0595 5.00804,8.19848 3.56178,9.3196 2.11099,10.42002 l 8.504e-4,-0.645175 c 1.38078,-1.0443 2.76013,-2.10475 4.19137,-3.18108 1.40289,-1.56701 2.59601,-3.17173 3.50452,-4.60438 l 0.4892666,0 z"
   class="fil71"
   id="_241889472" />
    <path
   style="fill:#458bc9;fill-opacity:0.070588"
   inkscape:connector-curvature="0"
   d="M 9.9951,1.98938 C 9.066457,3.59636 7.77129,5.43126 6.21561,7.20634 4.83427,8.32973 3.47957,9.43469 2.1107,10.50563 L 2.11183,9.851101 C 3.4087,8.836851 4.69508,7.796521 6.00442,6.743431 7.4195,5.126811 8.61375,3.469081 9.50866,1.989381 l 0.486432,0 z"
   class="fil72"
   id="_241881312" />
    <path
   style="fill:#458bc9;fill-opacity:0.06274498"
   inkscape:connector-curvature="0"
   d="M 9.69463,1.98938 C 8.781011,3.64257 7.48698,5.52905 5.92166,7.35969 c -1.262,1.09759 -2.524,2.17817 -3.81095,3.22105 l 8.504e-4,-0.663033 c 1.20928,-0.982502 2.39871,-1.99789 3.59467,-3.02631 1.42755,-1.66595 2.62379,-3.37668 3.50622,-4.90202 l 0.48218,0 z"
   class="fil73"
   id="_241891224" />
    <path
   style="fill:#458bc9;fill-opacity:0.05097997"
   inkscape:connector-curvature="0"
   d="M 9.39358,1.98938 C 8.496969,3.68764 7.20265,5.62912 5.62968,7.50936 4.47738,8.57889 3.31062,9.63282 2.1107,10.64452 l 8.504e-4,-0.675222 c 1.1197,-0.947352 2.21304,-1.929 3.29504,-2.92568 1.43917,-1.72009 2.63711,-3.48411 3.50622,-5.05425 l 0.480763,0 z"
   class="fil74"
   id="_241866360" />
    <path
   style="fill:#458bc9;fill-opacity:0.03921599"
   inkscape:connector-curvature="0"
   d="M 9.09197,1.98938 C 8.210383,3.7347 6.91833,5.72861 5.33516,7.66074 4.29455,8.69455 3.22048,9.71702 2.11042,10.6947 l 0.00113,-0.687128 c 1.02814,-0.909367 2.02567,-1.8553 2.99598,-2.81399 1.45193,-1.77083 2.65185,-3.58815 3.50764,-5.2042 l 0.476794,0 z"
   class="fil75"
   id="_241880808" />
    <path
   style="fill:#458bc9;fill-opacity:0.03137303"
   inkscape:connector-curvature="0"
   d="M 8.79178,1.98938 C 7.926067,3.78119 6.63543,5.82783 5.04149,7.81069 4.108028,8.808216 3.13006,9.79043 2.11042,10.72985 L 2.11155,10.029682 C 3.045579,9.160567 3.94531,8.256872 4.80904,7.342112 6.27117,5.521392 7.47336,3.651072 8.31611,1.989372 l 0.47566,0 z"
   class="fil76"
   id="_241883016" />
    <path
   style="fill:#458bc9;fill-opacity:0.01960802"
   inkscape:connector-curvature="0"
   d="M 8.49102,1.98938 C 7.642031,3.82711 6.3531,5.92676 4.75008,7.96008 3.918383,8.912251 3.03595,9.84997 2.11042,10.74771 l 0.00113,-0.715475 c 0.837366,-0.822059 1.6376,-1.67417 2.39786,-2.53988 1.47347,-1.87174 2.67708,-3.79451 3.50707,-5.50298 l 0.474526,0 z"
   class="fil77"
   id="_241884168" />
    <path
   style="fill:#458bc9;fill-opacity:0.01176501"
   inkscape:connector-curvature="0"
   d="M 8.18998,1.98938 C 7.356015,3.87218 6.06935,6.02484 4.45755,8.11174 3.725917,9.010052 2.94014,9.89646 2.11043,10.74658 l 0.00113,-0.732199 c 0.738436,-0.769617 1.43974,-1.5656 2.0988,-2.37093 1.48623,-1.9239 2.68842,-3.89968 3.50367,-5.65407 l 0.475944,0 z"
   class="fil78"
   id="_241880664" />
   </g>
   <g
   id="g131">
    <path
   style="fill:#bae8ff;fill-opacity:0.48627499"
   inkscape:connector-curvature="0"
   d="m 20.0741,8.20727 -0.843886,0.423786 c -6.38003,3.40616 -8.35467,4.40454 -12.927,4.14941 -1.17469,-0.06265 -2.61358,-0.367659 -4.19477,-0.682026 l -2.835e-4,0.196444 c 1.54462,0.30728 2.94977,0.602654 4.10151,0.664167 4.6678805,0.259941 6.6626505,-0.751192 13.1178005,-4.19675 l 0.745806,-0.376446 8.5e-4,-0.178585 z"
   class="fil79"
   id="_241869240" />
    <path
   style="fill:#bae8ff;fill-opacity:0.470588"
   inkscape:connector-curvature="0"
   d="m 20.0744,8.13753 c -0.437392,0.204381 -0.862312,0.400825 -1.27419,0.589615 -6.27514,3.27491 -8.30506,4.22652 -12.8442,3.98529 -1.09561,-0.05698 -2.41033,-0.30643 -3.84752,-0.574591 l -2.835e-4,0.193609 c 1.40204,0.263059 2.68757,0.507125 3.75993,0.560134 4.6304605,0.247752 6.6782405,-0.716042 13.0271005,-4.03149 0.380131,-0.176034 0.772735,-0.357737 1.17838,-0.547094 l 8.5e-4,-0.175467 z"
   class="fil80"
   id="_241886496" />
    <path
   style="fill:#bae8ff;fill-opacity:0.45490202"
   inkscape:connector-curvature="0"
   d="m 20.0744,8.09615 c -0.585646,0.254271 -1.15315,0.496354 -1.70081,0.727664 -6.1748,3.14508 -8.25659,4.04595 -12.7632,3.81917 -1.0151,-0.04592 -2.20652,-0.249452 -3.50225,-0.475093 l -2.835e-4,0.191625 c 1.2637,0.221672 2.42592,0.418683 3.41977,0.465739 4.5936105,0.232444 6.6918405,-0.683159 12.9347005,-3.86736 0.519598,-0.218554 1.05592,-0.447313 1.61152,-0.688829 l 5.66e-4,-0.172916 z"
   class="fil81"
   id="_241870056" />
    <path
   style="fill:#bae8ff;fill-opacity:0.43921599"
   inkscape:connector-curvature="0"
   d="m 20.0747,8.08226 c -0.731916,0.295091 -1.44229,0.572607 -2.12857,0.834815 -6.07246,3.01526 -8.21152,3.87275 -12.6832,3.65901 -0.92921,-0.03912 -1.99817,-0.202397 -3.15472,-0.389486 l -2.835e-4,0.192192 c 1.12707,0.183121 2.16939,0.34158 3.07677,0.379564 4.55534,0.221956 6.7077205,-0.647442 12.8434005,-3.7021 0.658781,-0.252571 1.33996,-0.519031 2.04579,-0.805051 l 8.5e-4,-0.168947 z"
   class="fil82"
   id="_241869792" />
    <path
   style="fill:#bae8ff;fill-opacity:0.42352899"
   inkscape:connector-curvature="0"
   d="m 20.0744,8.09303 c -0.874784,0.329391 -1.73086,0.633269 -2.55717,0.919289 -5.9673,2.88769 -8.1622,3.69643 -12.601,3.49488 -0.840201,-0.03175 -1.78954,-0.157042 -2.80804,-0.307563 l -2.835e-4,0.190491 c 0.990723,0.14712 1.91596,0.268445 2.73434,0.300193 4.51849,0.208916 6.7250105,-0.612292 12.7516005,-3.53542 0.801082,-0.277799 1.62711,-0.574024 2.48007,-0.897178 l 5.66e-4,-0.164695 z"
   class="fil83"
   id="_241868232" />
    <path
   style="fill:#bae8ff;fill-opacity:0.40784302"
   inkscape:connector-curvature="0"
   d="m 20.0744,8.12591 c -1.01368,0.356037 -2.01376,0.679474 -2.98521,0.982219 -5.8627,2.75673 -8.11316,3.51983 -12.5194,3.33019 C 3.822,12.41309 2.992,12.318128 2.10815,12.200772 l -2.835e-4,0.192759 c 0.859477,0.115088 1.66538,0.208349 2.39446,0.231594 4.48136,0.194459 6.7386205,-0.579977 12.6606005,-3.37271 0.942817,-0.296792 1.91426,-0.613143 2.91066,-0.966061 l 8.5e-4,-0.160443 z"
   class="fil84"
   id="_241892040" />
    <path
   style="fill:#bae8ff;fill-opacity:0.39215698"
   inkscape:connector-curvature="0"
   d="M 20.0741,8.17977 C 18.92889,8.555649 17.78197,8.89156 16.66142,9.20394 10.90049,11.82971 8.59617,12.54433 4.22172,12.3717 3.568892,12.351857 2.8588,12.283258 2.10818,12.194532 l -2.835e-4,0.191058 c 0.729365,0.08561 1.41904,0.152223 2.05401,0.173766 4.44054,0.18057 6.7536405,-0.547661 12.5684005,-3.21113 1.09135,-0.305863 2.20992,-0.63497 3.34323,-1.01227 l 5.66e-4,-0.156191 z"
   class="fil85"
   id="_241894848" />
    <path
   style="fill:#bae8ff;fill-opacity:0.38039198"
   inkscape:connector-curvature="0"
   d="M 20.0738,8.25291 C 18.80556,8.643813 17.50926,8.983976 16.23592,9.29919 10.57505,11.79683 8.21376,12.46525 3.87332,12.30197 3.321123,12.28666 2.72952,12.23961 2.10816,12.177244 l -2.835e-4,0.194176 c 0.601804,0.06009 1.17611,0.105734 1.71243,0.121041 4.40312,0.167246 6.7692305,-0.513362 12.4757005,-3.04644 1.24726,-0.308981 2.51437,-0.643757 3.77694,-1.04005 l 8.5e-4,-0.153073 z"
   class="fil86"
   id="_241868856" />
    <path
   style="fill:#bae8ff;fill-opacity:0.364706"
   inkscape:connector-curvature="0"
   d="m 20.0733,8.34673 c -1.38248,0.399407 -2.83072,0.736735 -4.26592,1.046 -5.55684,2.36866 -7.97341,2.99144 -12.2807,2.84262 C 3.077099,12.22373 2.602572,12.19396 2.10849,12.15286 l -2.835e-4,0.192475 c 0.476511,0.03997 0.934596,0.06945 1.3717,0.08022 4.36485,0.153923 6.7819905,-0.478779 12.3836005,-2.8789098 1.40629,-0.308981 2.82136,-0.641206 4.20923,-1.05365 l 5.66e-4,-0.14627 z"
   class="fil87"
   id="_241863912" />
    <path
   style="fill:#bae8ff;fill-opacity:0.34902003"
   inkscape:connector-curvature="0"
   d="m 20.0727,8.48166 c -0.128411,0.024945 -0.256539,0.050741 -0.38495,0.077954 -1.37794,0.357454 -2.84064,0.653679 -4.30957,0.930627 -5.45195,2.23798 -7.9238,2.81173 -12.1979,2.67566 -0.345548,-0.0068 -0.703286,-0.02353 -1.07179,-0.04734 l -2.835e-4,0.193609 c 0.354619,0.02296 0.697616,0.0394 1.02871,0.04536 4.3297,0.142018 6.79729,-0.443628 12.2935005,-2.7150603 1.44399,-0.275532 2.88826,-0.568071 4.27272,-0.941116 0.123309,-0.024095 0.246334,-0.047056 0.369076,-0.069166 l 5.66e-4,-0.150522 z"
   class="fil88"
   id="_241871448" />
    <path
   style="fill:#bae8ff;fill-opacity:0.33333297"
   inkscape:connector-curvature="0"
   d="m 20.0721,8.64664 c -0.256256,0.038268 -0.513078,0.080505 -0.771035,0.127277 -1.36915,0.315501 -2.84971,0.570055 -4.35096,0.810437 -5.34792,2.11014 -7.87618,2.63768 -12.1174,2.51267 -0.236129,-0.0045 -0.477645,-0.01304 -0.724262,-0.02438 l -2.835e-4,0.197011 c 0.233862,0.01105 0.462621,0.01786 0.685994,0.02183 4.29058,0.126994 6.81884,-0.41103 12.2033005,-2.5506502 1.47687,-0.241515 2.93447,-0.494653 4.30872,-0.82461 0.255689,-0.04167 0.510527,-0.079088 0.765082,-0.112821 l 8.5e-4,-0.156758 z"
   class="fil89"
   id="_241862952" />
    <path
   style="fill:#bae8ff;fill-opacity:0.317647"
   inkscape:connector-curvature="0"
   d="m 20.0713,8.84082 c -0.3841,0.040819 -0.769901,0.089576 -1.15854,0.146837 -1.35895,0.272697 -2.86077,0.485865 -4.39036,0.692514 -5.24502,1.97918 -7.82997,2.45994 -12.0369,2.34967 -0.124159,-0.0014 -0.250019,-0.0043 -0.377013,-0.0079 l -2.835e-4,0.195877 c 0.116789,0.0034 0.232161,0.0057 0.346399,0.0065 4.25231,0.114805 6.83074,-0.374462 12.1086005,-2.3845403 1.50664,-0.205231 2.98209,-0.419817 4.34529,-0.708672 0.389202,-0.050741 0.776137,-0.092978 1.16194,-0.127844 l 8.5e-4,-0.162428 z"
   class="fil90"
   id="_241889856" />
    <path
   style="fill:#bae8ff;fill-opacity:0.30196102"
   inkscape:connector-curvature="0"
   d="m 20.0701,9.06136 c -0.511377,0.033166 -1.02559,0.079088 -1.54575,0.140034 -1.35186,0.231594 -2.86785,0.402525 -4.43005,0.575158 -5.14269,1.84935 -7.78093,2.28277 -11.9547,2.18413 l -0.030898,-5.67e-4 -2.835e-4,0.198712 0.00397,0 c 4.21575,0.100915 6.84747,-0.340729 12.0164995,-2.2212599 1.5398,-0.170932 3.03141,-0.344981 4.38384,-0.591599 0.522716,-0.051308 1.04061,-0.089009 1.55681,-0.114521 l 5.67e-4,-0.170081 z"
   class="fil91"
   id="_241868328" />
    <path
   style="fill:#bae8ff;fill-opacity:0.28627499"
   inkscape:connector-curvature="0"
   d="m 20.069,9.30741 c -0.638371,0.018142 -1.27986,0.052442 -1.92929,0.108002 -1.34563,0.188507 -2.88061,0.318619 -4.472,0.455251 -4.91081,1.67587 -7.59327,2.08491 -11.559,2.02935 l -2.835e-4,0.197861 c 3.98614,0.06066 6.66208,-0.361706 11.5896005,-2.06167 1.56701,-0.138049 3.07592,-0.269579 4.41956,-0.47481 0.655663,-0.043371 1.30424,-0.067465 1.95083,-0.075403 l 5.66e-4,-0.178585 z"
   class="fil92"
   id="_241892208" />
    <path
   style="fill:#bae8ff;fill-opacity:0.27450998"
   inkscape:connector-curvature="0"
   d="m 20.0679,9.57926 c -0.765365,-0.00567 -1.53413,0.0085 -2.31651,0.04904 -1.33854,0.148254 -2.88628,0.23698 -4.51254,0.339312 -4.66533,1.5004 -7.37869,1.88818 -11.1301,1.86437 l -2.835e-4,0.201263 c 3.77042,0.02296 6.47301,-0.37021 11.1556005,-1.89924 1.5982,-0.103183 3.12184,-0.1944589 4.45641,-0.3574539 0.791728,-0.027497 1.56928,-0.029481 2.34655,-0.012473 l 8.5e-4,-0.184822 z"
   class="fil93"
   id="_241894464" />
    <path
   style="fill:#bae8ff;fill-opacity:0.25882401"
   inkscape:connector-curvature="0"
   d="M 20.0665,9.87179 C 19.173574,9.836356 18.27895,9.82275 17.36476,9.842593 c -1.32918,0.1046 -2.89677,0.15364 -4.55562,0.219972 -4.41984,1.33599 -7.14483,1.69373 -10.7001,1.70053 l -2.835e-4,0.20268 c 3.57227,-0.0043 6.2845,-0.372478 10.7219005,-1.73539 1.62994,-0.06662 3.17003,-0.11934 4.49525,-0.238397 0.925525,-0.00255 1.83177,0.025512 2.73972,0.074269 l 8.5e-4,-0.1944595 z"
   class="fil94"
   id="_241863744" />
    <path
   style="fill:#bae8ff;fill-opacity:0.24313702"
   inkscape:connector-curvature="0"
   d="m 20.0653,10.1873 c -1.02134,-0.07087 -2.04097,-0.11934 -3.08981,-0.131246 -1.31983,0.06378 -2.90329,0.06973 -4.59276,0.101482 -4.18116,1.17611 -6.90416,1.5038 -10.2738,1.53385 l -2.835e-4,0.20353 c 3.38235,-0.02778 6.09429,-0.364257 10.2893005,-1.5656 1.66028,-0.03543 3.21794,-0.04564 4.53238,-0.122458 1.06017,0.02976 2.0937,0.0944 3.13375,0.180003 l 0.0011,-0.199562 z"
   class="fil95"
   id="_241885920" />
    <path
   style="fill:#bae8ff;fill-opacity:0.22745098"
   inkscape:connector-curvature="0"
   d="m 20.0636,10.5221 c -1.14975,-0.109986 -2.29184,-0.200129 -3.47533,-0.252571 -1.31161,0.02126 -2.91207,-0.01417 -4.63301,-0.01701 -3.94588,1.02616 -6.64847,1.31983 -9.84628,1.36405 l -2.835e-4,0.205798 c 3.20716,-0.04365 5.89756,-0.346399 9.8570505,-1.39552 1.69004,8.5e-4 3.26272,0.03061 4.56895,-0.0051 1.19567,0.072 2.35421,0.180853 3.52805,0.30643 l 8.5e-4,-0.206082 z"
   class="fil96"
   id="_241883040" />
    <path
   style="fill:#bae8ff;fill-opacity:0.21176501"
   inkscape:connector-curvature="0"
   d="m 20.0622,10.8739 c -1.28128,-0.15364 -2.54526,-0.29339 -3.85886,-0.39147 -1.30594,-0.01984 -2.9237,-0.09496 -4.67638,-0.132947 -3.71372,0.877052 -6.38003,1.13728 -9.41768,1.19114 l -2.835e-4,0.206932 c 3.04389,-0.05358 5.6997,-0.322587 9.4230605,-1.22288 1.72349,0.03628 3.30893,0.104316 4.6075,0.11197 1.3306,0.120474 2.61216,0.28035 3.9215,0.449865 l 0.0011,-0.212601 z"
   class="fil97"
   id="_241883952" />
    <path
   style="fill:#bae8ff;fill-opacity:0.19607801"
   inkscape:connector-curvature="0"
   d="m 20.0605,11.2415 c -1.41451,-0.197011 -2.79613,-0.390903 -4.24523,-0.545961 -1.29687,-0.0635 -2.93248,-0.178585 -4.71635,-0.252004 -3.48525,0.743822 -6.10365,0.964927 -8.98964,1.02219 l -2.835e-4,0.208916 c 2.88911,-0.05868 5.49532,-0.288571 8.9899205,-1.05224 1.75382,0.07143 3.35655,0.18057 4.64378,0.227342 1.46638,0.18142 2.86899,0.396006 4.31694,0.610024 l 8.5e-4,-0.218271 z"
   class="fil98"
   id="_241876584" />
    <path
   style="fill:#bae8ff;fill-opacity:0.18039198"
   inkscape:connector-curvature="0"
   d="m 20.0588,11.6242 c -1.55199,-0.242649 -3.05041,-0.49607 -4.63103,-0.712357 -1.2912,-0.107151 -2.94212,-0.263059 -4.7566,-0.372194 -3.26272,0.613426 -5.81876,0.795696 -8.5616,0.85154 l -5.669e-4,0.2092 c 2.74228,-0.05613 5.28754,-0.247468 8.5564999,-0.87932 1.78557,0.105734 3.40503,0.254555 4.6812,0.343564 1.6016,0.247468 3.12184,0.523283 4.71125,0.78209 l 8.5e-4,-0.222523 z"
   class="fil99"
   id="_241875960" />
    <path
   style="fill:#bae8ff;fill-opacity:0.164706"
   inkscape:connector-curvature="0"
   d="M 20.0571,12.0196 C 18.36593,11.731312 16.75554,11.414961 15.03942,11.124123 13.75871,10.97842 12.08794,10.778008 10.24398,10.634006 7.19924,11.127808 4.71577,11.269259 2.10956,11.317732 l -2.835e-4,0.212601 c 2.60508,-0.05046 5.07522,-0.199845 8.1225105,-0.71264 1.81477,0.140317 3.45123,0.331375 4.71919,0.461203 1.73539,0.32202 3.36931,0.662183 5.10499,0.966911 l 0.0011,-0.226208 z"
   class="fil100"
   id="_241887312" />
    <path
   style="fill:#bae8ff;fill-opacity:0.152941"
   inkscape:connector-curvature="0"
   d="m 20.0551,12.4267 c -1.83659,-0.332509 -3.55555,-0.717176 -5.4032,-1.0888 -1.27136,-0.189924 -2.9597,-0.428605 -4.83456,-0.60804 -2.83469,0.380415 -5.23141,0.483314 -7.7078,0.518748 l -2.835e-4,0.213452 c 2.471,-0.04025 4.85667,-0.148821 7.69079,-0.545394 1.8453805,0.17405 3.4954505,0.403943 4.7557505,0.578276 1.86721,0.403376 3.61196,0.812988 5.49844,1.16109 l 8.5e-4,-0.229326 z"
   class="fil101"
   id="_241879728" />
    <path
   style="fill:#bae8ff;fill-opacity:0.13725502"
   inkscape:connector-curvature="0"
   d="m 20.0534,12.842 c -1.98768,-0.374746 -3.8101,-0.830847 -5.78701,-1.29148 -1.26654,-0.231027 -2.97018,-0.50996 -4.87906,-0.723695 -2.62605,0.276665 -4.9298,0.33506 -7.27749,0.356037 l -2.835e-4,0.213735 c 2.34003,-0.02353 4.63103,-0.08958 7.25736,-0.380415 1.8768505,0.206932 3.5436405,0.477645 4.7920405,0.693364 2.00044,0.492385 3.85035,0.974282 5.89331,1.36405 l 0.0011,-0.231594 z"
   class="fil102"
   id="_241877736" />
    <path
   style="fill:#bae8ff;fill-opacity:0.12156899"
   inkscape:connector-curvature="0"
   d="m 20.0514,13.2655 c -2.14387,-0.414715 -4.06919,-0.945368 -6.17253,-1.49927 -1.25662,-0.273831 -2.9784,-0.595284 -4.91903,-0.845303 -2.42819,0.183404 -4.62536,0.201546 -6.85002,0.203247 l -2.835e-4,0.214019 c 2.21474,-0.0045 4.39773,-0.03033 6.82479,-0.224507 1.9057605,0.242933 3.5907005,0.552764 4.8277505,0.81072 2.13338,0.589615 4.0845,1.14493 6.28847,1.57325 l 8.5e-4,-0.232161 z"
   class="fil103"
   id="_241871880" />
    <path
   style="fill:#bae8ff;fill-opacity:0.10588199"
   inkscape:connector-curvature="0"
   d="m 20.0497,13.6935 c -2.30772,-0.449014 -4.32913,-1.0562 -6.55946,-1.71555 -1.24868,-0.315784 -2.98606,-0.678624 -4.95872,-0.960108 -2.23628,0.0961 -4.32176,0.07314 -6.4217,0.05301 l -2.835e-4,0.215153 c 2.08775,0.01701 4.15934,0.03146 6.38995,-0.0737 1.9369405,0.277232 3.6388905,0.628733 4.8677205,0.927793 2.26151,0.692797 4.30872,1.32295 6.68136,1.78614 l 0.0011,-0.232728 z"
   class="fil104"
   id="_241874880" />
    <path
   style="fill:#bae8ff;fill-opacity:0.09019602"
   inkscape:connector-curvature="0"
   d="M 20.0478,14.1284 C 17.57028,13.646503 15.45873,12.96249 13.1031,12.19316 11.86349,11.835706 10.10854,11.430629 8.10328,11.11371 6.05097,11.132702 4.0871,11.070623 2.11019,11.025835 l -5.669e-4,0.216853 c 1.9633,0.03997 3.91442,0.09496 5.95709,0.06548 1.9669899,0.313516 3.6862299,0.70442 4.9062699,1.04798 2.38227,0.801649 4.52303,1.51004 7.07368,2.00271 l 0.0011,-0.23046 z"
   class="fil105"
   id="_241866408" />
    <path
   style="fill:#bae8ff;fill-opacity:0.07450998"
   inkscape:connector-curvature="0"
   d="M 20.0458,14.5638 C 17.38913,14.055541 15.19452,13.29159 12.71644,12.40802 11.48278,12.007479 9.71196,11.561583 7.67835,11.20725 5.80406,11.15736 3.96378,11.060413 2.11018,10.991247 l -2.835e-4,0.21657 c 1.83659,0.0669 3.66298,0.158742 5.52395,0.198145 1.99704,0.346966 3.7313005,0.780106 4.9422805,1.16392 2.50728,0.917588 4.73421,1.70676 7.46855,2.22636 l 0.0011,-0.232444 z"
   class="fil106"
   id="_241875432" />
    <path
   style="fill:#bae8ff;fill-opacity:0.05882401"
   inkscape:connector-curvature="0"
   d="m 20.0438,15.0017 -0.04025,-0.0074 c -2.82873,-0.530086 -5.0894,-1.37057 -7.67435,-2.37518 -1.225429,-0.441361 -3.0152595,-0.926092 -5.0806095,-1.31643 -1.70138,-0.109702 -3.41069,-0.241515 -5.13844,-0.336194 L 2.109864,11.18508 c 1.71073,0.09071 3.40304,0.217137 5.09081,0.319186 2.02907,0.381832 3.77977,0.853241 4.97856,1.28156 2.59884,1.02644 4.87821,1.8828 7.75513,2.42507 l 0.108568,0.01956 8.5e-4,-0.228759 z"
   class="fil107"
   id="_241865232" />
    <path
   style="fill:#bae8ff;fill-opacity:0.047059"
   inkscape:connector-curvature="0"
   d="m 20.0418,15.4363 c -0.141451,-0.02324 -0.281484,-0.04847 -0.420384,-0.07569 -2.84149,-0.551913 -5.09648,-1.44286 -7.67945,-2.52684 -1.21892,-0.484164 -3.02319,-1.01028 -5.12285,-1.43577 -1.53357,-0.16016 -3.10852,-0.324005 -4.70898,-0.442495 l -2.835e-4,0.218554 c 1.58119,0.116222 3.138,0.273264 4.65654,0.428038 2.06167,0.417549 3.8273905,0.930061 5.0168305,1.3975 2.60479,1.10723 4.87821,2.01433 7.77413,2.57956 0.159309,0.03062 0.320886,0.05896 0.483597,0.08447 l 8.5e-4,-0.227342 z"
   class="fil108"
   id="_241884528" />
    <path
   style="fill:#bae8ff;fill-opacity:0.03137303"
   inkscape:connector-curvature="0"
   d="m 20.0344,15.8643 c -0.270146,-0.0377 -0.534622,-0.08221 -0.794563,-0.134081 -2.85396,-0.576575 -5.09818,-1.51684 -7.6854,-2.68161 -1.21098,-0.528102 -3.03198,-1.09617 -5.16168,-1.55596 -1.37567,-0.202397 -2.81286,-0.392037 -4.28264,-0.534622 l -2.835e-4,0.221106 c 1.44938,0.140034 2.86842,0.324855 4.22567,0.521866 2.08973,0.450999 3.8724605,1.00461 5.0508405,1.51372 2.6133,1.1866 4.88161,2.14076 7.79369,2.73037 0.267027,0.05386 0.538874,0.09978 0.81639,0.138616 0.01843,-0.06945 0.0309,-0.143152 0.03798,-0.219405 z"
   class="fil109"
   id="_241869408" />
    <path
   style="fill:#bae8ff;fill-opacity:0.01568598"
   inkscape:connector-curvature="0"
   d="M 19.9276,16.2731 C 19.561075,16.22661 19.205322,16.16765 18.85836,16.095082 15.98881,15.498097 13.75734,14.508512 11.16445,13.260962 9.96566,12.69119 8.12538,12.083152 5.9645,11.590762 4.74332,11.353499 3.44616,11.140897 2.11018,10.975919 l -2.835e-4,0.222239 c 1.31359,0.161294 2.59005,0.37021 3.79253,0.601237 2.11921,0.483031 3.92009,1.07775 5.0891105,1.63051 2.61812,1.26597 4.88048,2.27058 7.81126,2.88259 0.32117,0.06662 0.649427,0.122175 0.986754,0.167246 0.05556,-0.06095 0.101198,-0.130112 0.138049,-0.206649 z"
   class="fil110"
   id="_241888272" />
   </g>
  </g><polygon
   style="fill:#ffffff"
   id="polygon165"
   points="21.5742,1.92929 0.801082,1.92929 0.801082,0.884989 21.5742,0.884989 "
   class="fil111" /><path
   inkscape:connector-curvature="0"
   style="fill:url(#linearGradient3257);fill-rule:nonzero"
   id="path167"
   d="m 22.0096,3.8206671 0,13.5264199 c 0,0.453712 -0.185955,0.867651 -0.484731,1.167097 C 21.22666,18.81306 20.813646,19 20.360659,19 l -18.6219,0 C 1.285493,19 0.872762,18.813629 0.574269,18.514467 0.275777,18.215307 0.090105,17.801651 0.090105,17.34709 l 0,-14.6236712 c 0,-0.6451984 0.0615127,-1.7157031 0.47396,-2.20947619 C 0.829108,0.19688327 1.206688,-0.0034092 1.684615,-0.0034092 L 1.694255,-0.00142046 1.754917,0 l 18.6613,0.03750168 0.004,0 0.02778,2.841e-4 0.002,0 c 1.81307,0.02187598 1.59508,1.90236012 1.57864,3.25895082 l -0.01899,0.5238864 z m -1.00008,13.5264199 0,-14.0276397 c 0,-0.4414963 -0.01417,-1.7969545 -0.20183,-2.0685613 -0.108852,-0.098868 -0.138616,-0.2122251 -0.369643,-0.2147818 l -0.0258,-2.841e-4 -18.6669996,-0.0375018 -0.00964,0 -0.051024,-0.001136 0,0.001705 c -0.155057,0 -0.274398,0.0610823 -0.354619,0.15710908 -0.253988,0.3045583 -0.239814,1.1327206 -0.239814,1.5674017 l 0,14.6236713 c 0,0.178133 0.073418,0.340923 0.191058,0.458826 0.117639,0.117903 0.280067,0.19177 0.457518,0.19177 l 18.6218996,0 c 0.176884,0 0.339595,-0.07416 0.457235,-0.192054 0.117923,-0.118188 0.191625,-0.281262 0.191625,-0.458542 z"
   class="fil112" /><path
   style="fill:#a0dfff;fill-opacity:0.21960802"
   inkscape:connector-curvature="0"
   id="path169"
   d="M 19.9862,7.97029 C 14.20599,8.567842 7.8852,8.492723 2.0458,8.27105 L 2.05232,3.14225 C 2.0520365,2.570777 2.463633,2.26945 3.006192,2.26945 l 16.086,-2.835e-4 c 0.586213,2.835e-4 0.911635,0.314367 0.911635,0.889808 l -0.01758,4.81131 z"
   class="fil113" /><path
   inkscape:connector-curvature="0"
   style="fill:url(#linearGradient3253)"
   id="path171"
   d="m 5.26174,5.30823 7.62162,0 c 0.460353,0 0.837366,0.381549 0.837366,0.836799 l 0,6.77547 c 0,0.456384 -0.37758,0.837366 -0.837366,0.837366 -5.51346,0 1.78273,0 -7.62162,0 -0.459503,0 -0.837083,-0.37673 -0.837083,-0.837366 l 0,-6.77547 c 0,-0.460353 0.37673,-0.836799 0.837083,-0.836799 z"
   class="fil114" /><path
   style="fill:#d4d2d2"
   inkscape:connector-curvature="0"
   id="path173"
   d="m 13.6193,5.60134 -9.19459,0 0,-1.01737 c 0,-0.162994 0.37673,-0.296225 0.837083,-0.296225 l 7.52042,0 c 0.460353,0 0.837083,0.135498 0.837083,0.296225 l 0,1.01737 z"
   class="fil115" /><path
   style="fill:#ffffff"
   inkscape:connector-curvature="0"
   id="path175"
   d="m 13.6127,5.02108 -9.18155,0 C 4.482458,4.392347 4.836227,3.90138 5.261713,3.90138 l 7.52014,0 c 0.425486,0 0.779255,0.493802 0.830847,1.1197 z"
   class="fil111" /><path
   inkscape:connector-curvature="0"
   style="fill:url(#linearGradient3248);fill-rule:nonzero"
   id="path177"
   d="m 13.846,5.24927 c 0.05528,0.147687 0.08532,0.306997 0.08532,0.473393 l 0.05102,7.0201 c 0,0.374746 -0.15364,0.715191 -0.400541,0.962659 l 0,0.002 c -0.246901,0.246901 -0.589048,0.400541 -0.964644,0.400541 l -7.1935795,0 c -0.375596,0 -0.717743,-0.15364 -0.964644,-0.400541 l 0,-0.002 c -0.246901,-0.247468 -0.400541,-0.587914 -0.400541,-0.962659 l -0.051024,-7.0201 c 0,-0.166396 0.030048,-0.325705 0.085324,-0.473393 l 9.7533095,0 z m -1.27986,0.108285 -7.19358,0 c -0.099781,0 -0.191625,0.041386 -0.257673,0.107435 L 5.113757,5.4641396 C 5.048276,5.5304716 5.007456,5.6220316 5.007456,5.7226626 L 5.05848,12.742763 c 0,0.100631 0.040819,0.192192 0.106301,0.258523 l 0.00113,-8.51e-4 c 0.066048,0.06605 0.157892,0.107435 0.257673,0.107435 l 7.19358,0 c 0.09978,0 0.191625,-0.04139 0.257673,-0.107435 l 0.0011,8.51e-4 c 0.06548,-0.06633 0.106301,-0.157892 0.106301,-0.258523 l -0.05102,-7.0201004 c 0,-0.100631 -0.04082,-0.192192 -0.106301,-0.258523 l -0.0011,8.504e-4 C 12.757765,5.3989418 12.665921,5.357555 12.56614,5.357555 z"
   class="fil116" /><path
   inkscape:connector-curvature="0"
   style="fill:url(#linearGradient3245)"
   id="path179"
   d="M 13.9433,8 12.94322,8 12.93131,4.3869326 c 0,-0.1022344 -0.04082,-0.1952543 -0.106301,-0.2626422 l -0.0011,8.639e-4 c -0.06605,-0.0671 -0.157892,-0.1091468 -0.257673,-0.1091468 l -7.1935796,0 c -0.099781,0 -0.191625,0.042046 -0.257673,0.1091468 l -0.00113,-8.639e-4 c -0.065481,0.067389 -0.106301,0.1604078 -0.106301,0.2626422 L 5.0194584,8 4.0193784,8 4.0074724,4.3869326 c 0,-0.3807171 0.15364,-0.7265867 0.400541,-0.9779978 l 0,-0.00201 C 4.6549144,3.1560881 4.9970614,3 5.3726574,3 l 7.1935806,0 c 0.375596,0 0.717743,0.1560881 0.964644,0.4069232 l 0,0.00201 c 0.246901,0.2514111 0.400541,0.5972817 0.400541,0.9779979 L 13.943333,8 z"
   class="fil117" /><polygon
   style="fill:#9c9c9c;fill-rule:nonzero"
   id="polygon181"
   points="4.41389,5.84796 4.41389,4.79119 13.2884,4.79119 13.2884,5.84796 "
   class="fil118"
   transform="matrix(0.93395579,0,0,1,0.87762188,0)" /><polygon
   style="fill:#cbcbcb"
   id="polygon183"
   points="11.8308,8.0301 8.01082,8.0301 8.01082,7.06064 11.8308,7.06064 "
   class="fil119" /><polygon
   style="fill:#cbcbcb"
   id="polygon185"
   points="11.8705,9.97696 8.05051,9.97696 8.05051,9.0075 11.8705,9.0075 "
   class="fil119" /><polygon
   style="fill:#cbcbcb"
   id="polygon187"
   points="11.8308,12.0687 8.01082,12.0687 8.01082,11.0992 11.8308,11.0992 "
   class="fil119" /><path
   style="fill:#396da6;fill-opacity:0.43921599"
   inkscape:connector-curvature="0"
   id="path189"
   d="m 2.12233,2.86218 0.050174,12.942 c 0.037418,0.47566 0.638088,0.822909 1.06839,0.821492 l 15.944,-0.0788 c 0.62108,-0.01729 0.904548,-0.433707 0.925525,-0.979951 L 20.097663,2.8788167 c 0,-0.575441 -0.342997,-0.889525 -0.960675,-0.889808 L 3.1274878,1.9892922 c -0.570622,0 -1.00546,0.301327 -1.00518,0.8728 z m 0.995825,0.127277 0.050741,12.0786 c 0.028063,0.01644 0.053009,0.02636 0.069733,0.02721 l 15.8757,-0.07852 0,-0.0082 0,0.523283 -0.01304,-12.5466004 -15.9737006,2.835e-4 0,0.00397 -8.504e-4,0 -0.0085,0 z m 16.0066,12.6041 c -0.0082,0.0099 -0.01247,0.01474 -0.0017,0.0034 l 0.0017,-0.0034 z m -0.02324,-12.7116 0,-0.00312 -0.004,0 0.004,0.00312 z m 0.06435,0.06208 0.0045,0.00454 0.0011,-0.00113 -0.0057,-0.0034 z"
   class="fil120" /><path
   inkscape:connector-curvature="0"
   style="fill:url(#linearGradient3237)"
   id="path191"
   d="m 2.12233,2.86218 -0.019843,13.1518 c 0.037418,0.47566 0.638088,0.822909 1.06839,0.821492 l 15.944,-0.0788 c 0.62108,-0.01729 0.904548,-0.433707 0.925525,-0.979951 l 0.05726,-12.8978003 c 0,-0.575441 -0.342997,-0.889525 -0.960675,-0.889808 L 3.1274879,1.9893922 c -0.570622,0 -1.00546,0.301327 -1.00518,0.8728 z m 0.498054,0 -0.019843,13.1133 c 0.0051,0.06463 0.066332,0.137482 0.149104,0.200979 0.130112,0.100064 0.291973,0.160727 0.41925,0.16101 l 15.9324,-0.0788 c 0.150238,-0.004 0.253421,-0.04507 0.314934,-0.109986 0.07909,-0.08362 0.119907,-0.222239 0.126144,-0.389486 l 0.05726,-12.8802003 -0.002,0 c 0,-0.142018 -0.03033,-0.241232 -0.08788,-0.294524 l 8.51e-4,-8.504e-4 c -0.06888,-0.062647 -0.19531,-0.096379 -0.373612,-0.096379 l -16.0095005,2.835e-4 0,0.00198 -8.504e-4,0 c -0.172632,0 -0.314367,0.037134 -0.401959,0.108852 -0.063497,0.051875 -0.102332,0.13975 -0.102332,0.263342 l 0,5.67e-4 -0.00198,0 z"
   class="fil121" /><path
   style="fill:#ffffff"
   inkscape:connector-curvature="0"
   id="path193"
   d="m 2.06932,16 c 6.65471,0 11.4252,0 18.0799,0 -0.16016,0.433188 -0.16753,0.799835 -0.93658,1 -6.09939,0 -10.3149,0 -16.4143,0 C 2.172725,16.722523 2.082582,16.366651 2.069259,16 z"
   class="fil111" /><path
   style="fill:#396da6"
   inkscape:connector-curvature="0"
   id="path195"
   d="m 20.0716,2.85765 -17.8659,0 8.504e-4,-0.288288 c -5.669e-4,-0.416415 0.475377,-0.636387 1.09674,-0.636387 l 15.7219996,0 c 0.673805,0 1.04827,0.229043 1.04827,0.648576 l -0.002,0.276098 z"
   class="fil122" /><rect
   style="fill:#999999"
   y="-22"
   x="20"
   id="rect197"
   height="22"
   width="1"
   transform="matrix(0,1,-1,0,0,0)"
   class="fil0" /><path
   style="fill:#999999"
   inkscape:connector-curvature="0"
   id="path199"
   d="m 6.37181,20 9.27509,0 c 0.213735,0 0.387218,0.09633 0.387218,0.215159 l 0,1.569193 C 16.034118,21.903179 15.860635,22 15.6469,22 L 6.37181,22 C 6.157791,22 5.984592,21.903423 5.984592,21.784352 l 0,-1.569193 C 5.984592,20.096332 6.157224,20 6.37181,20 z"
   class="fil0" /><path
   id="_241891944"
   class="fil114"
   d="m 9.25865,6.3249818 7.62162,0 c 0.460353,0 0.837366,0.3767263 0.837366,0.8262219 l 0,6.6898283 c 0,0.450616 -0.37758,0.826782 -0.837366,0.826782 -5.51346,0 1.78273,0 -7.62162,0 -0.459503,0 -0.837083,-0.371968 -0.837083,-0.826782 l 0,-6.6898283 c 0,-0.4545341 0.37673,-0.8262219 0.837083,-0.8262219 z"
   style="fill:url(#linearGradient3397)"
   inkscape:connector-curvature="0" /><path
   id="_241884360"
   class="fil115"
   d="m 17.6162,6.6143869 -9.19459,0 0,-1.0045105 c 0,-0.1609338 0.37673,-0.2924807 0.837083,-0.2924807 l 7.52042,0 c 0.460353,0 0.837083,0.1337853 0.837083,0.2924807 l 0,1.0045105 z"
   inkscape:connector-curvature="0"
   style="fill:#d4d2d2" /><path
   id="_241867896"
   class="fil111"
   d="m 17.6096,6.3227114 -9.18155,0 C 8.479358,5.5089032 8.833127,4.8734143 9.258613,4.8734143 l 7.52014,0 c 0.425486,0 0.779255,0.6391585 0.830847,1.4492971 z"
   inkscape:connector-curvature="0"
   style="fill:#ffffff" /><path
   id="_241892352"
   class="fil116"
   d="m 17.8429,6.2667671 c 0.05528,0.1458202 0.08532,0.3031165 0.08532,0.4674093 l 0.05102,6.9313666 c 0,0.370009 -0.153639,0.706151 -0.400541,0.950491 l 0,0.002 c -0.246901,0.24378 -0.589047,0.395478 -0.964644,0.395478 l -7.1935795,0 c -0.375596,0 -0.717743,-0.151698 -0.964644,-0.395478 l 0,-0.002 c -0.246901,-0.24434 -0.400541,-0.580483 -0.400541,-0.950491 L 8.0042665,6.7341764 c 0,-0.1642928 0.030048,-0.3215881 0.085324,-0.4674093 l 9.7533095,0 z m -1.27986,0.1069163 -7.19358,0 c -0.099781,0 -0.191625,0.040863 -0.257673,0.106077 L 9.110657,6.4789207 C 9.045176,6.5444143 9.004356,6.634817 9.004356,6.734176 l 0.051024,6.931367 c 0,0.09936 0.04082,0.189763 0.106301,0.255255 l 0.00113,-8.4e-4 c 0.066048,0.06522 0.157892,0.106077 0.257673,0.106077 l 7.19358,0 c 0.09978,0 0.191625,-0.04087 0.257673,-0.106077 l 0.0011,8.4e-4 c 0.06548,-0.06549 0.106301,-0.155896 0.106301,-0.255255 l -0.05102,-6.931367 c 0,-0.099359 -0.04082,-0.1897627 -0.106301,-0.2552553 l -0.0011,8.397e-4 C 16.754665,6.414547 16.662821,6.3736834 16.56304,6.3736834 z"
   style="fill:url(#linearGradient3392);fill-rule:nonzero"
   inkscape:connector-curvature="0" /><path
   id="_241887888"
   class="fil117"
   d="m 17.9402,8.8996516 -1.00008,0 -0.01191,-3.5114474 c 0,-0.099359 -0.04082,-0.1897627 -0.106301,-0.2552553 l -0.0011,8.397e-4 C 16.754759,5.0685754 16.662917,5.0277115 16.563136,5.0277115 l -7.1935796,0 c -0.099781,0 -0.191625,0.040863 -0.257673,0.1060771 l -0.00113,-8.397e-4 c -0.065481,0.065494 -0.106301,0.1558963 -0.106301,0.2552553 l 0.011906,3.5114474 -1.00008,0 -0.011906,-3.5114474 c 0,-0.3700092 0.15364,-0.706151 0.400541,-0.9504911 l 0,-0.00195 C 8.6518144,4.191978 8.9939614,4.04028 9.3695574,4.04028 l 7.1935806,0 c 0.375596,0 0.717743,0.151698 0.964644,0.3954782 l 0,0.00195 c 0.246901,0.2443401 0.400541,0.5804829 0.400541,0.9504911 l 0.01191,3.5114474 z"
   style="fill:url(#linearGradient3389)"
   inkscape:connector-curvature="0" /><polygon
   id="_241883904"
   class="fil118"
   points="17.2853,5.83719 17.2853,6.89396 8.4108,6.89396 8.4108,5.83719 "
   style="fill:#9c9c9c;fill-rule:nonzero"
   transform="matrix(1,0,0,0.98736007,0,0.05106884)" /><rect
   id="_241877784"
   class="fil123"
   x="9.9945402"
   y="12"
   width="1.0054598"
   height="1"
   style="fill:#7fbcf0" /><rect
   id="_241886448"
   class="fil123"
   x="9.9945402"
   y="10"
   width="1.0054598"
   height="1"
   style="fill:#7fbcf0" /><rect
   id="_241878816"
   class="fil123"
   x="9.9945402"
   y="7.9942226"
   width="1.0054598"
   height="1.0057774"
   style="fill:#7fbcf0" /><polygon
   id="_241869816"
   class="fil119"
   points="12.0077,9.0761 12.0077,8.10664 15.8278,8.10664 15.8278,9.0761 "
   style="fill:#cbcbcb"
   transform="matrix(1.0450774,0,0,1.0443418,-0.54127534,-0.46610276)" /><polygon
   id="_241888704"
   class="fil119"
   points="15.8674,10.0535 15.8674,11.023 12.0474,11.023 12.0474,10.0535 "
   style="fill:#cbcbcb"
   transform="matrix(1.0471202,0,0,1.03146,-0.61507645,-0.36978268)" /><polygon
   id="_241870608"
   class="fil119"
   points="12.0077,13.1147 12.0077,12.1452 15.8278,12.1452 15.8278,13.1147 "
   style="fill:#cbcbcb"
   transform="matrix(1.0450774,0,0,1.0314595,-0.54127534,-0.52728148)" /><rect
   style="fill:#a1d44a"
   id="rect216"
   height="1.0034299"
   width="0.99783993"
   y="6.9965701"
   x="6.0021601"
   class="fil124" /><rect
   style="fill:#9acc43"
   id="rect218"
   height="1"
   width="0.98620987"
   y="9"
   x="6.0137901"
   class="fil125" /><rect
   style="fill:#8cbd38"
   id="rect220"
   height="0.99668956"
   width="0.99840021"
   y="11"
   x="6.0015998"
   class="fil126" />
</svg>