<?xml version="1.0" encoding="UTF-8" standalone="no"?>
<!-- Creator: CorelDRAW -->

<svg
   xmlns:dc="http://purl.org/dc/elements/1.1/"
   xmlns:cc="http://creativecommons.org/ns#"
   xmlns:rdf="http://www.w3.org/1999/02/22-rdf-syntax-ns#"
   xmlns:svg="http://www.w3.org/2000/svg"
   xmlns="http://www.w3.org/2000/svg"
   xmlns:xlink="http://www.w3.org/1999/xlink"
   xmlns:sodipodi="http://sodipodi.sourceforge.net/DTD/sodipodi-0.dtd"
   xmlns:inkscape="http://www.inkscape.org/namespaces/inkscape"
   xml:space="preserve"
   width="22px"
   height="22px"
   style="shape-rendering:geometricPrecision; text-rendering:geometricPrecision; image-rendering:optimizeQuality; fill-rule:evenodd; clip-rule:evenodd"
   viewBox="0 0 22 22"
   id="svg3631"
   version="1.1"
   inkscape:version="0.48.1 r9760"
   sodipodi:docname="preferences-desktop-filetype-association.svg"><metadata
   id="metadata3757"><rdf:RDF><cc:Work
       rdf:about=""><dc:format>image/svg+xml</dc:format><dc:type
         rdf:resource="http://purl.org/dc/dcmitype/StillImage" /><dc:title></dc:title></cc:Work></rdf:RDF></metadata><sodipodi:namedview
   pagecolor="#ffffff"
   bordercolor="#666666"
   borderopacity="1"
   objecttolerance="10"
   gridtolerance="10"
   guidetolerance="10"
   inkscape:pageopacity="0"
   inkscape:pageshadow="2"
   inkscape:window-width="646"
   inkscape:window-height="480"
   id="namedview3755"
   showgrid="false"
   inkscape:zoom="12.090909"
   inkscape:cx="11"
   inkscape:cy="11"
   inkscape:window-x="0"
   inkscape:window-y="24"
   inkscape:window-maximized="0"
   inkscape:current-layer="svg3631" />
 <defs
   id="defs3633">
  <style
   type="text/css"
   id="style3635">
   
    .fil36 {fill:#5481A8}
    .fil37 {fill:#5A93C4}
    .fil19 {fill:#74AFE5}
    .fil20 {fill:#7FBCF0}
    .fil35 {fill:#A3D6FF}
    .fil41 {fill:#DCF995}
    .fil34 {fill:white}
    .fil12 {fill:#C4C4C4}
    .fil21 {fill:#C9C9C9}
    .fil11 {fill:#CBCBCB}
    .fil17 {fill:#4F7FB3;fill-rule:nonzero}
    .fil42 {fill:#88A640;fill-rule:nonzero}
    .fil22 {fill:#BFBFBF;fill-rule:nonzero}
    .fil0 {fill:black;fill-opacity:0.000000}
    .fil23 {fill:#333333;fill-opacity:0.000000}
    .fil1 {fill:black;fill-opacity:0.003922}
    .fil2 {fill:black;fill-opacity:0.007843}
    .fil24 {fill:#333333;fill-opacity:0.011765}
    .fil3 {fill:black;fill-opacity:0.015686}
    .fil4 {fill:black;fill-opacity:0.019608}
    .fil5 {fill:black;fill-opacity:0.023529}
    .fil25 {fill:#333333;fill-opacity:0.027451}
    .fil6 {fill:black;fill-opacity:0.027451}
    .fil7 {fill:black;fill-opacity:0.031373}
    .fil8 {fill:black;fill-opacity:0.035294}
    .fil26 {fill:#333333;fill-opacity:0.039216}
    .fil9 {fill:black;fill-opacity:0.043137}
    .fil27 {fill:#333333;fill-opacity:0.054902}
    .fil28 {fill:#333333;fill-opacity:0.066667}
    .fil29 {fill:#333333;fill-opacity:0.078431}
    .fil30 {fill:#333333;fill-opacity:0.094118}
    .fil31 {fill:#333333;fill-opacity:0.105882}
    .fil32 {fill:#333333;fill-opacity:0.121569}
    .fil39 {fill:black;fill-opacity:0.219608}
    .fil18 {fill:#4C4C4C;fill-rule:nonzero;fill-opacity:0.219608}
    .fil14 {fill:url(#id0)}
    .fil33 {fill:url(#id1)}
    .fil13 {fill:url(#id2)}
    .fil16 {fill:url(#id3)}
    .fil10 {fill:url(#id4)}
    .fil40 {fill:url(#id5)}
    .fil38 {fill:url(#id6)}
    .fil15 {fill:url(#id7);fill-rule:nonzero}
   
  </style>
  <linearGradient
   id="id0"
   gradientUnits="userSpaceOnUse"
   x1="2.83922"
   y1="2.59062"
   x2="17.456"
   y2="2.3304">
   <stop
   offset="0"
   style="stop-color:#BCE6FF"
   id="stop3638" />
   <stop
   offset="1"
   style="stop-color:#BBE6FF"
   id="stop3640" />
  </linearGradient>
  <linearGradient
   id="id1"
   gradientUnits="userSpaceOnUse"
   x1="15.5627"
   y1="20.5257"
   x2="15.5627"
   y2="9.6351">
   <stop
   offset="0"
   style="stop-color:#6CADE6"
   id="stop3643" />
   <stop
   offset="1"
   style="stop-color:#85C2F5"
   id="stop3645" />
  </linearGradient>
  <linearGradient
   id="id2"
   gradientUnits="userSpaceOnUse"
   x1="9.97214"
   y1="3.00222"
   x2="9.97214"
   y2="5.6518">
   <stop
   offset="0"
   style="stop-color:#7BBDF2"
   id="stop3648" />
   <stop
   offset="1"
   style="stop-color:#5C96D2"
   id="stop3650" />
  </linearGradient>
  <linearGradient
   id="id3"
   gradientUnits="userSpaceOnUse"
   x1="10.1006"
   y1="6.3514"
   x2="10.1731"
   y2="1.81363">
   <stop
   offset="0"
   style="stop-color:#4E87B4"
   id="stop3653" />
   <stop
   offset="1"
   style="stop-color:#66A1D1"
   id="stop3655" />
  </linearGradient>
  <linearGradient
   id="id4"
   gradientUnits="userSpaceOnUse"
   x1="9.918"
   y1="5.92053"
   x2="10.3234"
   y2="17.2856">
   <stop
   offset="0"
   style="stop-color:white"
   id="stop3658" />
   <stop
   offset="1"
   style="stop-color:#EBEBEB"
   id="stop3660" />
  </linearGradient>
  <linearGradient
   id="id5"
   gradientUnits="userSpaceOnUse"
   x1="2.96395"
   y1="13.3213"
   x2="13.5957"
   y2="15.6078">
   <stop
   offset="0"
   style="stop-color:#91B837"
   id="stop3663" />
   <stop
   offset="0.580392"
   style="stop-color:#B7DD5F"
   id="stop3665" />
   <stop
   offset="1"
   style="stop-color:#A8CE52"
   id="stop3667" />
  </linearGradient>
  <linearGradient
   id="id6"
   gradientUnits="userSpaceOnUse"
   xlink:href="#id0"
   x1="20.8315"
   y1="9.97725"
   x2="18.8124"
   y2="10.7236">
  </linearGradient>
  <linearGradient
   id="id7"
   gradientUnits="userSpaceOnUse"
   x1="10.0101"
   y1="21.0651"
   x2="10.0101"
   y2="5.88197">
   <stop
   offset="0"
   style="stop-color:#919191"
   id="stop3671" />
   <stop
   offset="1"
   style="stop-color:#B2B2B2"
   id="stop3673" />
  </linearGradient>
 </defs>
 <g
   id="Слой_x0020_1">
  <metadata
   id="CorelCorpID_0Corel-Layer" />
  <g
   id="_110743264">
   <path
   id="_110738152"
   class="fil0"
   d="M10.1496 18.3486c7.05922,-0.293957 10.2165,0.324288 11.589,1.18405l0 2.28192c-0.0637804,0.0127561 -0.130112,0.0243783 -0.199278,0.0354336l-21.6695 0 0 -2.05118c1.34251,-0.633552 4.20101,-1.19737 10.2797,-1.45023z" />
   <g
   id="g3679">
    <path
   id="_110729296"
   class="fil1"
   d="M10.1748 18.5255c7.06687,-0.283469 10.2292,0.37106 11.5638,1.24074l0 2.00809c-0.140317,0.0294807 -0.295658,0.054426 -0.465172,0.0756861l-21.4036 0 0 -1.85275c1.30282,-0.642623 4.14715,-1.22487 10.3049,-1.47177z" />
    <path
   id="_110737792"
   class="fil2"
   d="M10.1998 18.7027c7.05412,-0.271563 10.2417,0.417266 11.5389,1.2895l0 1.7422c-0.22394,0.0501739 -0.491535,0.0875918 -0.798815,0.115655l-21.0699 0 0 -1.66084c1.26824,-0.648009 4.11143,-1.24726 10.3299,-1.48651z" />
    <path
   id="_110738272"
   class="fil3"
   d="M10.2247 18.8799c7.01982,-0.25739 10.2573,0.461203 11.5139,1.32805l0 1.48708c-0.320886,0.0765365 -0.747223,0.125293 -1.26285,0.155057l-6.14503 0c-0.574591,-0.00368509 -1.16477,-0.0045355 -1.76573,0l-12.6427 0 -0.0524417 -0.00935446 0 -1.46865c1.23847,-0.648576 4.09896,-1.26257 10.3548,-1.49218z" />
    <path
   id="_110740120"
   class="fil4"
   d="M10.2497 19.057c6.96199,-0.241515 10.2789,0.502873 11.489,1.35611l0 1.24301c-0.464605,0.119057 -1.19765,0.172916 -2.12658,0.193893l-2.77743 0c-1.76176,-0.0192759 -3.8084,-0.0513078 -5.92194,0l-10.6805 0c-0.131529,-0.0167246 -0.252571,-0.0348666 -0.362273,-0.0549929l0 -1.25095c1.21126,-0.643474 4.11426,-1.26966 10.3798,-1.48708z" />
    <path
   id="_110739112"
   class="fil5"
   d="M10.2746 19.2339c6.88262,-0.223657 10.3137,0.540858 11.464,1.37199l0 1.0117c-1.44994,0.402809 -6.14815,0.085891 -11.1261,0.212318l-0.79598 0.0201263 -9.16256 0c-0.306997,-0.0266461 -0.569488,-0.0598119 -0.784074,-0.099781l0 -1.046c1.18433,-0.632419 4.16019,-1.26739 10.4047,-1.47035z" />
    <path
   id="_110738728"
   class="fil6"
   d="M10.299 19.4114c6.78482,-0.203814 10.3707,0.576292 11.4397,1.37709l0 0.790877c-1.30225,0.401675 -6.08012,0.109135 -11.1165,0.222523 -0.75516,0.0170081 -1.50125,0.0334493 -2.22863,0.0481897l-7.08643 0c-0.607473,-0.0308981 -1.09617,-0.0771035 -1.43719,-0.142018l0 -0.855792c1.15202,-0.615694 4.23871,-1.25463 10.4291,-1.44087z" />
    <path
   id="_110738944"
   class="fil7"
   d="M10.3248 19.5888c6.67143,-0.182554 10.4617,0.608891 11.4139,1.37085l0 0.582528c-1.12027,0.397706 -5.99621,0.131246 -11.106,0.231594 -1.64157,0.0323154 -3.24657,0.0617962 -4.7053,0.0762531l-3.10483 0c-1.35611,-0.0198428 -2.39814,-0.0739853 -2.95261,-0.182554l0 -0.679758c1.10751,-0.592733 4.34756,-1.23224 10.4549,-1.39892z" />
    <path
   id="_110733928"
   class="fil8"
   d="M10.3494 19.7663c6.56995,-0.159309 10.6281,0.644891 11.3892,1.36122l0 0.375029c-0.863729,0.395155 -5.87489,0.156758 -11.0967,0.243216 -4.89522,0.0813555 -9.50782,0.140034 -10.7721,-0.116789l0 -0.517897c1.04118,-0.563819 4.48476,-1.19992 10.4796,-1.34478z" />
    <path
   id="_110742640"
   class="fil9"
   d="M10.3741 19.9432c6.56939,-0.136348 11.0176,0.706687 11.3645,1.3717l0 0.130963c-0.37758,0.41188 -5.63762,0.198145 -11.0867,0.271563 -4.96552,0.0668986 -9.69151,0.110553 -10.782,-0.124443l0 -0.369643c0.937147,-0.529803 4.64435,-1.15882 10.5042,-1.28014z" />
   </g>
  </g>
  <path
   class="fil10"
   d="M1.75354 2.45994l16.734 0c0.631852,0 1.1489,0.520448 1.1489,1.14833l0 15.9893c0,0.628733 -0.517897,1.14918 -1.1489,1.14918 -7.56549,0 -3.82966,0 -16.734,0 -0.630434,0 -1.14861,-0.517047 -1.14861,-1.14918l0 -15.9893c0,-0.631852 0.516763,-1.14833 1.14861,-1.14833z"
   id="path3690" />
  <rect
   class="fil11"
   x="5.20137"
   y="8.98652"
   width="12.196"
   height="0.956707"
   id="rect3692" />
  <rect
   class="fil12"
   x="5.20137"
   y="17.0282"
   width="10.9376"
   height="0.956707"
   id="rect3694" />
  <path
   class="fil13"
   d="M19.4879 6.11725l-19.0315 0 0 -2.65298c0,-0.510527 0.516763,-0.927509 1.14861,-0.927509l16.734 0c0.631852,0 1.1489,0.420667 1.1489,0.927509l0 2.65298z"
   id="path3696" />
  <polygon
   class="fil14"
   points="0.784358,1.93836 19.5111,1.93836 19.5111,2.98266 0.784358,2.98266 "
   id="polygon3698" />
  <path
   class="fil15"
   d="M20.0259 5.88197l0 13.5342c0,0.452699 -0.185955,0.865713 -0.484731,1.16449 -0.298209,0.298209 -0.711223,0.484731 -1.16421,0.484731l-16.734 0c-0.453266,0 -0.865997,-0.185955 -1.16449,-0.484448 -0.298492,-0.298492 -0.484164,-0.711223 -0.484164,-1.16477l0 -13.5342 1.00008 0 0 13.5342c0,0.177735 0.0734184,0.340162 0.191058,0.457802 0.117639,0.117639 0.280067,0.191341 0.457518,0.191341l16.734 0c0.176884,0 0.339595,-0.0739853 0.457235,-0.191625 0.117923,-0.117923 0.191625,-0.280634 0.191625,-0.457518l0 -13.5342 1.00008 0z"
   id="path3700" />
  <path
   class="fil16"
   d="M19.0258 7.1624l0 -2.84432c0,-0.44051 -0.0141734,-1.79294 -0.20183,-2.06394 -0.108852,-0.0986471 -0.138616,-0.211751 -0.369643,-0.214302l-0.0257956 -0.000283469 -16.7791 -0.0374179 -0.00963793 0 -0.0510244 -0.00113387 0 0.00170081c-0.155057,0 -0.274398,0.0609458 -0.354619,0.156758 -0.253988,0.303878 -0.239814,1.13019 -0.239814,1.5639l0 3.43904 -1.00008 0 0 -3.43904c0,-0.643757 0.0615127,-1.71187 0.47396,-2.20454 0.265043,-0.316351 0.642623,-0.516196 1.12055,-0.516196l0.00963793 0.00198428 0.0606623 0.00141734 16.7734 0.0374179 0.00396856 0 0.0277799 0.000283469 0.00198428 0c1.81307,0.0218271 1.59508,1.89811 1.57864,3.25167l-0.0189924 0.522716 0 2.34429 -1.00008 0z"
   id="path3702" />
  <polygon
   class="fil17"
   points="0.872516,5.11151 19.1194,5.11151 19.1194,6.31115 0.872516,6.31115 "
   id="polygon3704" />
  <polygon
   class="fil18"
   points="0.964644,6.27033 19.2115,6.27033 19.2115,7.46997 0.964644,7.46997 "
   id="polygon3706" />
  <rect
   class="fil11"
   x="2.01631"
   y="8.95449"
   width="1.98315"
   height="2.00866"
   id="rect3708" />
  <rect
   class="fil19"
   x="1.99732"
   y="17.0093"
   width="1.98315"
   height="1.9514"
   id="rect3710" />
  <rect
   class="fil20"
   x="1.9976"
   y="13.0486"
   width="1.98315"
   height="1.93241"
   id="rect3712" />
  <rect
   class="fil11"
   x="5.20137"
   y="13.0274"
   width="12.196"
   height="0.956707"
   id="rect3714" />
  <rect
   class="fil21"
   x="3.29901"
   y="12.0664"
   width="14.2624"
   height="0.956707"
   id="rect3716" />
  <rect
   class="fil12"
   x="3.29901"
   y="16.0457"
   width="11.9363"
   height="0.956707"
   id="rect3718" />
  <polygon
   class="fil22"
   points="9.02904,16.353 13.8537,16.3794 13.8537,16.9069 9.02904,16.88 "
   id="polygon3720" />
  <g
   id="_106477592">
   <path
   id="_106478288"
   class="fil23"
   d="M13.9509 20.5265c-9.05455,0.0104883 -5.71416,0.800515 -5.71416,1.0168 0,0.0479062 -0.0365675,0.1046 -0.0252287,0.163561l12.8899 0c0.00963793,-0.013323 0.0153073,-0.0277799 0.0153073,-0.040536 0,-0.216287 1.88875,-1.14947 -7.1658,-1.13983z" />
   <g
   id="g3724">
    <path
   id="_106480160"
   class="fil24"
   d="M13.6272 20.5824c-8.11826,0.00878753 -5.21469,0.728798 -5.21469,0.930627 0,0.0566937 -0.0487566,0.124726 0.0170081,0.193893l11.625 0c0.054426,-0.0286303 0.0771035,-0.0564103 0.0771035,-0.0844737 0,-0.20183 1.61464,-1.04798 -6.50447,-1.04005z" />
    <path
   id="_106478360"
   class="fil25"
   d="M13.3052 20.6391c-7.18309,0.00793712 -4.71607,0.656797 -4.71607,0.844453 0,0.0637804 -0.0609458,0.145419 0.119624,0.223373l10.2128 0c0.164128,-0.0422368 0.225074,-0.0861745 0.225074,-0.127561 0,-0.188507 1.34052,-0.947352 -5.84144,-0.940265z" />
    <path
   id="_106479488"
   class="fil26"
   d="M12.9806 20.6958c-6.24595,0.00623631 -4.2166,0.583378 -4.2166,0.758279 0,0.0717176 -0.0683159,0.170648 0.359438,0.252854l8.48592 0c0.411596,-0.0541425 0.55078,-0.114805 0.55078,-0.171499 0,-0.17405 1.06726,-0.846154 -5.17954,-0.839634z" />
    <path
   id="_106478456"
   class="fil27"
   d="M12.6577 20.7525c-5.31078,0.00566937 -3.71741,0.511661 -3.71741,0.672104 0,0.0836232 -0.0617962,0.208916 0.986754,0.282335l5.87432 0c1.05082,-0.0549929 1.37369,-0.139467 1.37369,-0.214586 0,-0.160443 0.793145,-0.744672 -4.51736,-0.739853z" />
    <path
   id="_106478792"
   class="fil28"
   d="M12.3346 20.8091c-4.3742,0.00481897 -3.2185,0.438809 -3.2185,0.585079 0,0.1046 0.00737018,0.280917 3.11702,0.280917 3.10937,0 3.95609,-0.122175 3.95609,-0.225924 0,-0.145986 0.519881,-0.644891 -3.85461,-0.640072z" />
    <path
   id="_106478384"
   class="fil29"
   d="M12.0117 20.8658c-3.43904,0.00311815 -2.71903,0.367092 -2.71903,0.498905 0,0.0822059 0.157042,0.216853 2.64108,0.216287 2.48404,0 3.27066,-0.0935446 3.27066,-0.1749 0,-0.13238 0.245484,-0.54426 -3.19271,-0.540291z" />
    <path
   id="_106480376"
   class="fil30"
   d="M11.6871 20.9225c-2.50189,0.00226775 -2.22041,0.293673 -2.22041,0.412447 0,0.0600953 0.30813,0.151656 2.16598,0.151089 1.8587,0 2.58495,-0.0649143 2.58495,-0.123876 0,-0.118206 -0.0277799,-0.442211 -2.53052,-0.43966z" />
    <path
   id="_106478936"
   class="fil31"
   d="M11.3643 20.9792c-1.56645,0.000566937 -1.72094,0.221672 -1.72094,0.326272 0,0.0377013 0.456951,0.0870249 1.69004,0.0861745 1.23224,0 1.89924,-0.035717 1.89924,-0.072568 0,-0.1046 -0.301611,-0.34158 -1.86834,-0.339879z" />
   </g>
   <path
   id="_106478096"
   class="fil32"
   d="M11.0414 21.0356c-0.630434,0 -1.22175,0.150238 -1.22175,0.241232 0,0.0294807 2.42791,0.027213 2.42791,0 0,-0.0909934 -0.575725,-0.241232 -1.20616,-0.241232z" />
  </g>
  <path
   class="fil33"
   d="M9.06221 8.10068l9.81992 -0.00113387c0.67749,0.494369 2.54782,1.7765 3.18108,3.06741l-0.0306146 10.856 -12.8794 0.0388352 -0.0909934 -13.9611z"
   id="path3735" />
  <path
   class="fil34"
   d="M11.2086 10.9308l8.88051 0 0 1.04061 -8.88051 0 0 -1.04061zm0 8.05023l8.88051 0 0 1.04061 -8.88051 0 0 -1.04061zm0 -1.95905l8.88051 0 0 1.04061 -8.88051 0 0 -1.04061zm0 -2.11184l8.88051 0 0 1.04061 -8.88051 0 0 -1.04061zm0 -1.89782l8.88051 0 0 1.04061 -8.88051 0 0 -1.04061z"
   id="path3737" />
  <polygon
   class="fil35"
   points="18.4907,8.99077 10.0413,8.96129 10.0413,9.92197 17.0787,9.92197 18.7767,9.18098 "
   id="polygon3739" />
  <path
   class="fil36"
   d="M9.06221 7.96037l9.81992 -0.00141734c0.67749,0.494369 2.54782,1.7765 3.18108,3.06741l-0.0306146 10.9966 -12.8794 0.0388352 -0.0909934 -14.1014zm9.49705 0.994691l-8.49499 0.00113387 0.0790877 12.1064 10.8957 -0.0325989 0.0274965 -9.75104c-0.537173,-0.880454 -1.81335,-1.82214 -2.50728,-2.32388z"
   id="path3741" />
  <path
   class="fil37"
   d="M21.4467 12.8788c-1.06981,0.00708672 -2.26208,-0.00595284 -3.33246,0.00113387 0,-1.08965 -0.000850406,-2.93163 -0.000850406,-4.02214 1.7748,1.25945 2.77601,2.37093 3.18052,3.15104 0.183404,0.354336 0.0515913,0.75431 0.15279,0.869965z"
   id="path3743" />
  <path
   class="fil38"
   d="M21.5722 11.9258c-1.15485,0.00708672 -2.33465,0.0141734 -3.49035,0.0212601 0,-1.08994 -0.0107718,-2.10334 -0.0107718,-3.19384 0.588197,0.161577 1.3683,0.737869 1.80938,1.12991 1.12821,1.00461 1.43605,1.7765 1.69174,2.04267z"
   id="path3745" />
  <path
   class="fil39"
   d="M19.0743 13.5617l-3.99747 0.209483 -4.31978 -3.00732 -0.0317485 3.61309c-2.33748,0.74779 -4.63244,0.810153 -6.88489,-0.837083 -1.72406,-1.26002 -1.70478,-3.61167 -1.45589,-5.3791l-0.213452 -0.0325989c-0.48785,1.45845 -0.994691,9.287 5.7547,11.1956 0.458369,0.129545 1.6753,0.16668 2.71563,0.246901l0.00822059 2.10022 0.92184 -0.0209767 7.50285 -8.08821z"
   id="path3747" />
  <path
   class="fil40"
   d="M17.8974 14.0062l-3.85262 -2.83128 -4.07061 -2.83384 -0.0297642 3.40446c-2.20255,0.704703 -3.43507,1.15995 -5.55825,-0.392321 -1.62484,-1.18773 -2.06762,-2.19631 -1.83376,-3.86141l-0.201263 -0.0308981c-0.459503,1.37426 -1.40374,7.14681 4.95532,8.9457 0.43314,0.122175 1.57864,0.157325 2.55887,0.233011l0.0107718 2.89195 4.11965 -2.76155 3.90166 -2.76382z"
   id="path3749" />
  <path
   class="fil41"
   d="M17.8231 14.388l-0.344698 -0.228476 0.225358 0.143152 0.0841902 -0.122175 -0.0249452 -0.0170081 0.0600953 -0.0870249 -0.142301 -0.0983636 0.022961 0.0130396 0.0841902 -0.122175 -0.0929777 -0.0691663 0.0238114 -0.0348666 -1.18688 -0.787476 1.10298 0.598119 0.0839067 -0.122175 -1.74277 -1.19595 -5.77879 -3.86878 0.00793712 -0.275248 -0.0249452 -0.018142 0.00680325 0.316634 -0.00680325 -0.00510244 0.0170081 0.747223 0.0600953 0.0391187 0.00878753 0.37673 0.0311815 0.0198428 0.00396856 0.187373 0.0600953 0.0391187 0.009071 0.37673 7.43765 4.73279 0.0841902 -0.122175 -1.18717 -0.787192 1.10298 0.597835 0.0841902 -0.122175 -0.0932612 -0.0691663 0.0240948 -0.0348666zm-7.62502 -2.77487l-0.00283469 0.00113387 -0.00226775 0.210334c-2.2017,0.704136 -3.42969,1.24925 -5.42814,-0.457802 -0.16016,-0.136065 -0.313516,-0.277516 -0.458652,-0.420667 -0.950754,-0.770184 -1.60472,-1.63675 -1.85814,-2.5943l0.0178585 0.156191 0.00113387 0 0.000850406 0.0099214 0.00113387 0.00822059 0 0.000850406 0.00198428 0.009071 0.041103 0.185388 -0.00708672 -0.112254 0.0099214 0.125293c0.0541425,0.221106 0.126427,0.446747 0.219405,0.676923 -0.0518748,-0.103183 -0.099214,-0.206365 -0.141167,-0.311532 -0.0260791,-0.0941116 -0.0510244,-0.188223 -0.0711506,-0.28035l-0.00396856 -0.0442211c0.108285,0.39884 0.284603,0.783507 0.521866,1.14918l0.0130396 0.0198428 0.0161577 0.0221106c0.163278,0.232444 0.351501,0.458652 0.562969,0.677207 -0.606056,-0.771318 -1.0049,-1.58487 -1.18802,-2.33692l-0.00822059 -0.113387 0.00510244 0.101198 -0.022961 -0.0980801 -0.0170081 -0.210334 0.0119057 0.185388c-0.0430872,-0.206365 -0.0711506,-0.406777 -0.081072,-0.601237 0.00793712,0.222523 0.0371344,0.439943 0.0850406,0.653112 0.0121892,0.114238 0.0291973,0.225358 0.0521582,0.337611l0 0.00311815 0.00198428 0.0099214c0.0130396,0.0921273 0.0300477,0.18227 0.0501739,0.272413l0.0099214 0.0881587c-0.0311815,-0.090143 -0.0581111,-0.179152 -0.0830563,-0.271279l0.0178585 0.157042 0.00198428 0.0102049 0.00113387 0.009071 0.0430872 0.192192 -0.00708672 -0.11112 0.0099214 0.123025c0.0371344,0.149388 0.0813555,0.30076 0.135498,0.453833l0.00396856 0.0110553c0.0980801,0.325705 0.24435,0.640072 0.430589,0.943667 -0.164128,-0.29254 -0.300477,-0.58593 -0.406777,-0.875635 0.0442211,0.151372 0.0983636,0.304729 0.160443,0.457802 -0.136348,-0.267311 -0.237547,-0.543976 -0.30643,-0.828295 0.164128,1.25321 0.842185,2.93985 2.40608,3.96573 0.159026,0.105167 0.29424,0.266461 0.464605,0.282335 1.95848,0.190491 2.99825,0.194459 4.96354,0.0521582 0.0119057,-1.65177 -0.175467,-0.668136 -0.16838,-1.89329zm-7.75513 -3.2803l-0.0161577 -0.0671821 0.0260791 0.173199 -0.0099214 -0.106017zm0.131246 0.71916l-0.0331658 -0.0912769 -0.0099214 -0.072001 0.0430872 0.163278zm-0.131246 -0.408762l-0.0150238 -0.0600953 0.0249452 0.163278 -0.0099214 -0.103183zm0.072001 0.118206l-0.0150238 -0.0541425 0.0172916 0.0873083 -0.00226775 -0.0331658zm0.636104 1.63987c-0.204381,-0.287721 -0.369643,-0.586213 -0.492668,-0.894627 -0.0501739,-0.18227 -0.0892926,-0.362556 -0.116222,-0.53689l0.0521582 0.149104 0.00396856 0.0121892 0.0110553 0.0308981c0.0980801,0.303595 0.237263,0.599253 0.41273,0.883572 -0.164412,-0.289421 -0.30076,-0.581961 -0.406777,-0.867414 0.120191,0.399691 0.300477,0.811287 0.535756,1.22317zm-0.512795 -0.947636c-0.0470558,-0.121325 -0.0861745,-0.245484 -0.120191,-0.370777l0.00510244 0.0581111c0.140034,0.641206 0.443628,1.32918 0.897462,2.00356l0.022961 0.0360005 0.009071 0.0130396 0.0331658 0.0490401 0.00481897 0.00595284c0.0983636,0.14627 0.202397,0.290555 0.31465,0.433707 -0.731349,-0.757145 -1.18603,-1.59763 -1.28326,-2.51607 -0.0221106,-0.0972297 -0.041103,-0.196444 -0.0541425,-0.295658l-0.00198428 -0.0110553 0 -0.00481897c-0.0198428,-0.102332 -0.0360005,-0.207499 -0.0479062,-0.311532 -0.0490401,-0.215436 -0.0782373,-0.435975 -0.0861745,-0.661332 0.0099214,0.194459 0.0371344,0.396856 0.081072,0.603221l-0.0119057 -0.187373 0.0178585 0.220255 0.0221106 0.0960959 -0.00510244 -0.109135 0.00822059 0.122175c0.0249452,0.103183 0.053859,0.206365 0.0881587,0.310682l-0.00113387 -0.00311815m-0.0170081 0.134364l-0.0201263 -0.0762531 0.0232444 0.115372 -0.00311815 -0.0391187zm0.124159 0.384667c-0.0490401,-0.16838 -0.0830563,-0.340729 -0.106017,-0.515913"
   id="path3751" />
  <path
   class="fil42"
   d="M16.9616 13.8642l-6.57222 -4.31949 -0.0221106 2.20369 -0.00283469 0.305579 -0.229326 0.125293c-1.14805,0.367659 -2.4452,0.268445 -3.6403,0.180286 -1.21211,-0.0892926 -1.226,0.162144 -2.35704,-0.664167l-0.00198428 0c-0.673238,-0.491818 -1.2311,-1.02871 -1.6478,-1.60982 0.11934,0.454967 0.28035,0.933746 0.490968,1.41848 0.811287,1.86607 1.21098,3.42685 3.99152,4.35635l0.00226775 0c0.142018,0.0481897 0.29339,0.0952455 0.447597,0.138333 0.268445,0.0751192 0.928643,0.118206 1.62569,0.161294l0.00311815 0 0.844453 0.0569772 0.392604 0.0260791 0.00198428 0.396573 0.00793712 1.6118c2.56539,-1.35725 4.29143,-2.70542 6.66548,-4.38724zm1.18603 -0.199562l0.471692 0.346682 -0.478779 0.339595c-2.6595,1.88422 -5.32099,3.71741 -8.02868,5.53246l-0.811287 -0.351785 -0.009071 -2.49622 -0.451849 -0.0300477c-0.744105,-0.0459219 -1.29318,-0.0921273 -1.6478,-0.191341 -0.164128,-0.0459219 -0.330524,-0.0969463 -0.491818,-0.152223l0 -0.000850406c-3.05409,-1.0219 -3.606,-2.76977 -4.49666,-4.81812 -0.702152,-1.61691 -0.281484,-3.37384 0.248602,-5.10073 0.324572,0.0490401 -0.202397,-0.0841902 0.122175,-0.0340162 -0.122175,0.859477 -0.11934,1.61577 0.305579,2.41203 0.363407,0.682026 0.968612,1.31529 1.75694,1.89215l-0.00113387 0.00113387c0.978817,0.646025 3.53315,0.493802 4.64492,0.266461l0.0260791 -2.91094 -0.0249452 -0.342714 0.934596 -0.0328824c2.67538,1.86211 5.30483,3.74122 7.93145,5.67136z"
   id="path3753" />
 </g>
</svg>