<?xml version="1.0" encoding="UTF-8" standalone="no"?>
<!-- Creator: CorelDRAW -->

<svg
   xmlns:dc="http://purl.org/dc/elements/1.1/"
   xmlns:cc="http://creativecommons.org/ns#"
   xmlns:rdf="http://www.w3.org/1999/02/22-rdf-syntax-ns#"
   xmlns:svg="http://www.w3.org/2000/svg"
   xmlns="http://www.w3.org/2000/svg"
   xmlns:sodipodi="http://sodipodi.sourceforge.net/DTD/sodipodi-0.dtd"
   xmlns:inkscape="http://www.inkscape.org/namespaces/inkscape"
   xml:space="preserve"
   width="22px"
   height="22px"
   style="shape-rendering:geometricPrecision; text-rendering:geometricPrecision; image-rendering:optimizeQuality; fill-rule:evenodd; clip-rule:evenodd"
   viewBox="0 0 22 22"
   id="svg3042"
   version="1.1"
   inkscape:version="0.48.1 r9760"
   sodipodi:docname="folders-music.svg"><metadata
   id="metadata3105"><rdf:RDF><cc:Work
       rdf:about=""><dc:format>image/svg+xml</dc:format><dc:type
         rdf:resource="http://purl.org/dc/dcmitype/StillImage" /><dc:title></dc:title></cc:Work></rdf:RDF></metadata><sodipodi:namedview
   pagecolor="#ffffff"
   bordercolor="#666666"
   borderopacity="1"
   objecttolerance="10"
   gridtolerance="10"
   guidetolerance="10"
   inkscape:pageopacity="0"
   inkscape:pageshadow="2"
   inkscape:window-width="640"
   inkscape:window-height="480"
   id="namedview3103"
   showgrid="false"
   inkscape:zoom="13.727273"
   inkscape:cx="11"
   inkscape:cy="11"
   inkscape:window-x="0"
   inkscape:window-y="24"
   inkscape:window-maximized="0"
   inkscape:current-layer="svg3042" />
 <defs
   id="defs3044">
  <style
   type="text/css"
   id="style3046">
   
    .fil1 {fill:#B1B5B8;fill-rule:nonzero}
    .fil2 {fill:white;fill-rule:nonzero}
    .fil7 {fill:#0F172E;fill-opacity:0.121569}
    .fil6 {fill:#0F172E;fill-opacity:0.219608}
    .fil11 {fill:#4D708C;fill-opacity:0.439216}
    .fil9 {fill:#B0E2FC;fill-opacity:0.439216}
    .fil5 {fill:#B0E2FC;fill-rule:nonzero;fill-opacity:0.780392}
    .fil4 {fill:url(#id0)}
    .fil10 {fill:url(#id1)}
    .fil0 {fill:url(#id2)}
    .fil8 {fill:url(#id3);fill-rule:nonzero}
    .fil3 {fill:url(#id4);fill-rule:nonzero}
   
  </style>
  <linearGradient
   id="id0"
   gradientUnits="userSpaceOnUse"
   x1="10.7633"
   y1="5.41283"
   x2="10.9918"
   y2="20.5121">
   <stop
   offset="0"
   style="stop-color:#5589C4"
   id="stop3049" />
   <stop
   offset="0.101961"
   style="stop-color:#649FCF"
   id="stop3051" />
   <stop
   offset="0.909804"
   style="stop-color:#9FCFF5"
   id="stop3053" />
   <stop
   offset="1"
   style="stop-color:#8BBEE8"
   id="stop3055" />
  </linearGradient>
  <linearGradient
   id="id1"
   gradientUnits="userSpaceOnUse"
   x1="11.6942"
   y1="7.87533"
   x2="11.8524"
   y2="18.4609">
   <stop
   offset="0"
   style="stop-color:#5981A3"
   id="stop3058" />
   <stop
   offset="1"
   style="stop-color:#76A4CC"
   id="stop3060" />
  </linearGradient>
  <linearGradient
   id="id2"
   gradientUnits="userSpaceOnUse"
   x1="10.3424"
   y1="1.94346"
   x2="11.4439"
   y2="10.7089">
   <stop
   offset="0"
   style="stop-color:#EBEBEB"
   id="stop3063" />
   <stop
   offset="1"
   style="stop-color:#B2B2B2"
   id="stop3065" />
  </linearGradient>
  <linearGradient
   id="id3"
   gradientUnits="userSpaceOnUse"
   x1="11.0609"
   y1="19.8672"
   x2="10.8381"
   y2="6.06906">
   <stop
   offset="0"
   style="stop-color:#567FA3"
   id="stop3068" />
   <stop
   offset="1"
   style="stop-color:#6494BA"
   id="stop3070" />
  </linearGradient>
  <linearGradient
   id="id4"
   gradientUnits="userSpaceOnUse"
   x1="10.8931"
   y1="8.06525"
   x2="10.8931"
   y2="4.72032">
   <stop
   offset="0"
   style="stop-color:#949494"
   id="stop3073" />
   <stop
   offset="1"
   style="stop-color:#ABABAB"
   id="stop3075" />
  </linearGradient>
 </defs>
 <g
   id="Слой_x0020_1">
  <metadata
   id="CorelCorpID_0Corel-Layer" />
  <path
   class="fil0"
   d="M2.4744 2.33692l0.923824 0c0.269862,-0.13238 0.434557,-0.429455 0.670687,-0.940549 0.187656,-0.407061 0.359722,-1.06896 0.807886,-1.06896 2.01093,0 2.7315,0 4.74271,0 0.448164,0 0.593016,0.661899 0.781806,1.06896 0.290839,0.630718 0.662183,0.859477 1.08087,0.940549l7.82969 0c0.544543,0 0.989872,0.446747 0.989872,0.989872l0 8.00827c0,0.542275 -0.447597,0.989872 -0.989872,0.989872l-16.8375 0c-0.542275,0 -0.989872,-0.445329 -0.989872,-0.989872l0 -8.00827c0,-0.57289 0.429171,-0.989872 0.989872,-0.989872z"
   id="path3079" />
  <polygon
   class="fil1"
   points="1.24641,5.04489 1.22487,5.05226 1.23337,4.16302 19.5999,4.11001 19.6549,4.38753 19.6512,4.99103 "
   id="polygon3081" />
  <path
   class="fil2"
   d="M3.08924 2.651c0.0490401,-0.058678 0.100631,-0.129829 0.157042,-0.252004 0.0252287,-0.0549929 0.0581111,-0.135215 0.0915604,-0.21742l0.00198428 0c0.216287,-0.529519 0.466306,-1.14266 1.16761,-1.14266l4.74271 0c0.696766,0 0.927793,0.587914 1.13387,1.11488 0.0323154,0.0824894 0.0640639,0.163278 0.101198,0.243216l0 0.00198428c0.110553,0.240381 0.228476,0.264193 0.351501,0.363123 0.0972297,0.0782373 0.206932,0.12501 0.324855,0.15279l7.78093 0c0.409896,0 0.78294,0.167813 1.05252,0.437392 0.269579,0.269579 0.437392,0.642623 0.437392,1.05252l0 8.00827c0,0.408762 -0.167813,0.780389 -0.437392,1.05053l-0.00198428 0.00198428c-0.270146,0.269579 -0.641773,0.437392 -1.05053,0.437392l-15.8533 0 0 -1.00008 15.8533 0c0.134364,0 0.256823,-0.0547094 0.345548,-0.142301l0.00198428 -0.00198428c0.0875918,-0.0887257 0.142301,-0.211184 0.142301,-0.345548l0 -8.00827c0,-0.134081 -0.0555599,-0.256823 -0.144286,-0.345548 -0.0887257,-0.0887257 -0.211468,-0.144286 -0.345548,-0.144286l-7.82969 0 -0.0938281 -0.00963793c-0.282902,-0.0547094 -0.553614,-0.162144 -0.807035,-0.365958 -0.239248,-0.192475 -0.452983,-0.465455 -0.632419,-0.854374l-0.000850406 0.000283469c-0.0394021,-0.0847571 -0.081639,-0.192192 -0.124443,-0.301611 -0.0881587,-0.225924 -0.187373,-0.344698 -0.204097,-0.344698l-4.74271 0c-0.0340162,0 -0.147404,0.144002 -0.245484,0.383817l0.00170081 0.000566937c-0.0345832,0.0853241 -0.0688829,0.168947 -0.110836,0.259941 -0.128695,0.278366 -0.240098,0.502023 -0.361706,0.682592 -0.152506,0.225641 -0.32117,0.387785 -0.543409,0.496354l-0.158459 0.0382683 0 -1.24953z"
   id="path3083" />
  <path
   class="fil3"
   d="M3.24798 1.97039c0.0266461,-0.0274965 0.054426,-0.0632135 0.0841902,-0.107435 0.0867414,-0.128695 0.176317,-0.310398 0.283469,-0.541992 0.0252287,-0.0549929 0.0581111,-0.135215 0.0915604,-0.21742l0.00198428 0c0.216287,-0.529519 0.466306,-1.14266 1.16761,-1.14266l4.74271 0c0.696766,0 0.927793,0.725963 1.13387,1.25293 0.0323154,0.0824894 0.0640639,0.163278 0.101198,0.243216l-0.0153073 0.0172916c0.110553,0.240381 0.228476,0.397706 0.351501,0.496637 0.0972297,0.0782373 0.206932,-0.00850406 0.324855,0.0192759l7.79624 -0.0153073c0.409896,0 0.78294,0.167813 1.05252,0.437392 0.269579,0.269579 0.437392,0.642623 0.437392,1.05252l0 7.87022c0,0.408762 -0.167813,0.780389 -0.437392,1.05053l-0.00198428 0.00198428c-0.270146,0.269579 -0.641773,0.437392 -1.05053,0.437392l-16.8375 0c-0.409896,0 -0.78294,-0.167813 -1.05252,-0.437392 -0.269579,-0.269579 -0.437392,-0.642623 -0.437392,-1.05252l0 -8.00827c0,-0.816957 0.4184,-1.16137 0.936864,-1.2861 0.402809,-0.0969463 0.850406,-0.0507409 1.32663,-0.0703002zm0.150238 0.866564l-0.923824 0c-0.289421,0 -0.489834,0.199845 -0.489834,0.489834l0 8.00827c0,0.134081 0.0555599,0.256823 0.144286,0.345548 0.0887257,0.0887257 0.211468,0.144286 0.345548,0.144286l16.8375 0c0.134364,0 0.256823,-0.0547094 0.345548,-0.142301l0.00198428 -0.00198428c0.0875918,-0.0887257 0.142301,-0.211184 0.142301,-0.345548l0 -7.87022c0,-0.134081 -0.0555599,-0.256823 -0.144286,-0.345548 -0.0887257,-0.0887257 -0.211468,-0.144286 -0.345548,-0.144286l-7.84499 0.0153073 -0.0938281 -0.00963793c-0.282902,-0.0547094 -0.538307,-0.315501 -0.791728,-0.519315 -0.239248,-0.192475 -0.452983,-0.331942 -0.632419,-0.720861l-0.000850406 0.000283469c-0.0394021,-0.0847571 -0.081639,-0.192192 -0.124443,-0.301611 -0.0881587,-0.225924 -0.187373,-0.478212 -0.204097,-0.478212l-4.74271 0c-0.0340162,0 -0.147404,0.277516 -0.245484,0.51733l0.00170081 0.000566937c-0.0345832,0.0853241 -0.0688829,0.168947 -0.110836,0.259941 -0.128695,0.278366 -0.240098,0.502023 -0.361706,0.682592 -0.152506,0.225641 -0.32117,0.254271 -0.543409,0.36284l-0.218838 0.0527252z"
   id="path3085" />
  <path
   class="fil4"
   d="M1.67672 5.41652l18.4782 0c1.08568,0 1.25038,0.662183 1.25038,1.74503l0 11.3733c0,1.0837 -0.890091,1.97379 -1.97379,1.97379l-17.1076 0c-1.0837,0 -1.97379,-0.888107 -1.97379,-1.97379l0 -11.2591c0,-1.08568 0.240948,-1.85927 1.32663,-1.85927z"
   id="path3087" />
  <path
   class="fil5"
   d="M20.7672 7.37018c0.157042,-1.1197 -0.698467,-1.58629 -1.86324,-1.38134l-2.11694 0 -14.174 0c-1.16477,-0.204948 -2.02028,0.261642 -1.86324,1.38134 0,0.333359 -0.0189924,0.285169 -0.0189924,0.618529 0.248602,-0.831697 0.481897,-0.966911 1.93921,-0.999794l14.117 0 2.05997 0c1.45731,0.0328824 1.69061,0.168097 1.93921,0.999794 0,-0.333359 -0.0189924,-0.285169 -0.0189924,-0.618529z"
   id="path3089" />
  <polygon
   class="fil6"
   points="-0.0274965,20.986 21.7412,20.986 21.7412,21.9858 -0.0274965,21.9858 "
   id="polygon3091" />
  <polygon
   class="fil7"
   points="-0.0274965,19.9862 21.7412,19.9862 21.7412,20.986 -0.0274965,20.986 "
   id="polygon3093" />
  <path
   class="fil8"
   d="M20.4781 4.93802c1.22657,0.0841902 1.30339,0.499755 1.40005,1.81703l0.00198428 0 0 0.0737018 0 12.4692c0,0.743255 -0.207216,1.16392 -0.634119,1.41989 -0.365675,0.218838 -0.834248,0.249736 -1.45901,0.250586l-17.5915 0.0379848c-0.613143,0.000850406 -1.08739,-0.0513078 -1.43435,-0.21572 -0.461203,-0.218554 -0.693931,-0.577142 -0.695065,-1.14947l-0.0379848 -12.7345 -0.000850406 -0.161577c-0.00595284,-1.14266 -0.00822059,-1.59763 0.940265,-1.71017 0.163845,-0.0195593 0.35547,-0.0286303 0.580827,-0.0294807l18.7719 -0.0762531 0.157892 0.00878753zm-19.453 2.24791l0.0371344 12.4553c0.000283469,0.130679 0.0425203,0.208066 0.124726,0.246901 0.197011,0.0932612 0.53859,0.122742 1.00858,0.122175l17.5915 -0.0379848c0.458369,-0.000566937 0.787476,-0.0144569 0.947069,-0.109986 0.0980801,-0.058678 0.145986,-0.223657 0.145986,-0.564386l0 -12.4692 0 -0.0737018 0.00198428 0c-0.0856075,-0.315217 -0.193326,-0.522716 -0.403943,-0.707821 -0.0470558,-0.0413864 -0.0994975,-0.0819224 -0.157892,-0.121892l-18.7719 0.0762531c-0.528386,0.00170081 -0.527819,0.169798 -0.524984,0.73957l0.000850406 0.161577 0 0.00198428 0.000850406 0.281201z"
   id="path3095" />
  <path
   class="fil9"
   d="M11.771 8.62708c0.141734,0.0660482 0.22961,0.175184 0.22961,0.310115l0 0.688829c0.224791,0.289705 1.18745,0.622214 1.5313,0.887824 0.554465,0.429738 1.49955,0.99951 2.02283,1.65092 2.34173,2.55859 -1.75637,5.65038 -1.62144,5.34055 0.416132,-0.953022 0.302461,-0.726814 0.368793,-1.52223 0.0864579,-1.04827 -1.07718,-2.64561 -2.29411,-2.6921l0.103183 2.99144c0,2.831 -5.16366,3.72988 -5.87149,0.917871 -0.283185,-1.13529 0.685711,-2.24621 1.73199,-2.50359 0.969179,-0.239248 2.05231,0.0960959 3.03283,0.358304l0 -6.11669c0,-0.525267 0.525551,-0.372478 0.766499,-0.311249z"
   id="path3097" />
  <path
   class="fil10"
   d="M11.771 7.5825c0.141734,0.0657647 0.22961,0.175467 0.22961,0.310115l0 0.688829c0.224791,0.289421 1.18745,0.622214 1.5313,0.887824 0.554465,0.429455 1.49955,0.999794 2.02283,1.65092 1.75184,1.91398 0.465172,5.16026 -1.50607,6.44182 0.0147404,-0.0983636 -0.00481897,0.130396 0.130112,-0.179152 0.415848,-0.953022 0.455818,-1.71045 0.522149,-2.50615 0.081072,-0.979384 -0.256256,-1.72576 -0.763381,-2.16428 -0.556732,-0.48133 -1.23309,-0.930061 -1.96019,-0.958124l0.0416699 3.48355c0,2.831 -5.07154,3.72988 -5.77936,0.917871 0.228192,-1.54547 0.919572,-1.93581 2.03332,-2.08151 1.11375,-0.145986 2.09909,0.197294 2.7315,0.366525l0 -6.54699c0,-0.525267 0.525551,-0.372478 0.766499,-0.311249z"
   id="path3099" />
  <path
   class="fil11"
   d="M11.771 7.5825c0.141734,0.0657647 0.22961,0.175467 0.22961,0.310115l0 0.688829c0.224791,0.289705 1.18745,0.622214 1.5313,0.887824 0.554465,0.429455 1.49955,0.999794 2.02283,1.65092 0.771318,0.842752 0.953305,1.94374 0.747507,3.02178 -0.0649143,-0.674372 -0.317201,-1.31643 -0.808736,-1.8536 -0.523283,-0.651127 -1.46837,-1.22147 -2.02283,-1.65092 -0.343847,-0.26561 -1.30651,-0.598119 -1.5313,-0.887824l0 -0.688829c0,-0.134648 -0.0878753,-0.24435 -0.22961,-0.310115 -0.190774,-0.0484731 -0.559851,-0.154207 -0.70527,0.0643474l0 -0.921273c0,-0.525267 0.525551,-0.372478 0.766499,-0.311249zm2.74313 9.63c-0.149671,0.128128 -0.305296,0.245484 -0.465455,0.349517 0.0147404,-0.0983636 -0.00481897,0.130396 0.130112,-0.179152 0.301044,-0.690246 0.405077,-1.27788 0.464889,-1.85162 0.0116222,0.162994 0.0107718,0.334493 -0.00396856,0.513645 -0.0323154,0.389202 -0.058678,0.769334 -0.125577,1.16761zm-2.52542 -4.28576l0.0303311 2.31112c0,0.191058 -0.0238114,0.373328 -0.0671821,0.546244l-0.035717 -2.86133 0.072568 0.00396856zm-5.6192 3.60515c-0.0524417,-0.117356 -0.0960959,-0.242366 -0.129829,-0.376163 0.228192,-1.54547 0.919572,-1.93581 2.03332,-2.08151 1.0786,-0.141451 2.03644,0.176034 2.67027,0.3498l0 1.1849c-0.632419,-0.169231 -1.61776,-0.512511 -2.7315,-0.366525 -0.892359,0.116789 -1.51316,0.39062 -1.84226,1.2895z"
   id="path3101" />
 </g>
</svg>