<?xml version="1.0" encoding="UTF-8" standalone="no"?>
<!-- Created with Inkscape (http://www.inkscape.org/) -->

<svg
   xmlns:dc="http://purl.org/dc/elements/1.1/"
   xmlns:cc="http://creativecommons.org/ns#"
   xmlns:rdf="http://www.w3.org/1999/02/22-rdf-syntax-ns#"
   xmlns:svg="http://www.w3.org/2000/svg"
   xmlns="http://www.w3.org/2000/svg"
   xmlns:sodipodi="http://sodipodi.sourceforge.net/DTD/sodipodi-0.dtd"
   xmlns:inkscape="http://www.inkscape.org/namespaces/inkscape"
   width="22"
   height="22"
   id="svg2"
   version="1.1"
   inkscape:version="0.48.3.1 r9886"
   sodipodi:docname="22.svg">
  <defs
     id="defs4">
    <linearGradient
       gradientTransform="matrix(0,-1,1,0,6.649,13.695)"
       y2="0"
       x2="12.697"
       y1="0"
       x1="0"
       gradientUnits="userSpaceOnUse"
       id="LinearGradient_1-67">
      <stop
         id="stop23278"
         stop-color="#eaeaea"
         offset="0" />
      <stop
         id="stop23280"
         stop-color="#cccccc"
         offset="1" />
    </linearGradient>
    <linearGradient
       gradientTransform="translate(6.546,14.274)"
       y2="-13.88"
       x2="0"
       y1="0"
       x1="0"
       gradientUnits="userSpaceOnUse"
       id="LinearGradient-507">
      <stop
         id="stop23273"
         stop-color="#b0b0b0"
         offset="0" />
      <stop
         id="stop23275"
         stop-color="#9f9f9f"
         offset="1" />
    </linearGradient>
  </defs>
  <sodipodi:namedview
     id="base"
     pagecolor="#ffffff"
     bordercolor="#666666"
     borderopacity="1.0"
     inkscape:pageopacity="0.0"
     inkscape:pageshadow="2"
     inkscape:zoom="13.375778"
     inkscape:cx="12.138958"
     inkscape:cy="11.41885"
     inkscape:document-units="px"
     inkscape:current-layer="layer1"
     showgrid="false"
     inkscape:window-width="860"
     inkscape:window-height="523"
     inkscape:window-x="845"
     inkscape:window-y="315"
     inkscape:window-maximized="0" />
  <metadata
     id="metadata7">
    <rdf:RDF>
      <cc:Work
         rdf:about="">
        <dc:format>image/svg+xml</dc:format>
        <dc:type
           rdf:resource="http://purl.org/dc/dcmitype/StillImage" />
        <dc:title />
      </cc:Work>
    </rdf:RDF>
  </metadata>
  <g
     inkscape:label="Layer 1"
     inkscape:groupmode="layer"
     id="layer1"
     transform="translate(0,-1030.3622)">
    <g
       style="fill-rule:evenodd;stroke-width:0.50099999;stroke-linejoin:bevel;overflow:visible"
       id="g23402"
       transform="matrix(1.3335758,0,0,1.3332525,0,1030.3635)">
      <g
         transform="scale(1,-1)"
         font-size="16"
         id="Document"
         style="font-size:16px;fill:none;stroke:#000000;font-family:Times New Roman">
        <g
           transform="translate(0,-16.5)"
           id="Spread">
          <g
             id="MouseOff">
            <g
               id="Group"
               style="stroke:none">
              <g
                 stroke-miterlimit="79.8403193612775"
                 id="Group_1">
                <path
                   style="fill:url(#LinearGradient-507);marker-start:none;marker-end:none"
                   id="path23287"
                   d="M 0,15.292 0,1.209 C 0,0.542 0.542,0 1.209,0 l 14.079,0 c 0.667,0 1.209,0.542 1.209,1.209 l 0,14.083 c 0,0.667 -0.542,1.209 -1.209,1.209 l -14.079,0 C 0.542,16.501 0,15.959 0,15.292 z"
                   inkscape:connector-curvature="0" />
                <path
                   style="fill:url(#LinearGradient_1-67);marker-start:none;marker-end:none"
                   id="path23289"
                   d="m 0.747,15.131 0,-13.761 c 0,-0.341 0.277,-0.618 0.618,-0.618 l 13.765,0 c 0.341,0 0.618,0.277 0.618,0.618 l 0,13.761 c 0,0.341 -0.277,0.618 -0.618,0.618 l -13.765,0 c -0.341,0 -0.618,-0.277 -0.618,-0.618 z"
                   inkscape:connector-curvature="0" />
                <path
                   id="path23291"
                   d="m 1.498,15.75 0,-0.749 13.499,0 0,0.749 -13.499,0 z"
                   inkscape:connector-curvature="0"
                   style="fill:#ffffff;marker-start:none;marker-end:none" />
                <path
                   id="path23293"
                   d="m 1.498,1.501 0,-0.749 13.499,0 0,0.749 -13.499,0 z"
                   inkscape:connector-curvature="0"
                   style="fill:#dcdcdc;marker-start:none;marker-end:none" />
              </g>
              <path
                 id="path23295"
                 stroke-miterlimit="79.8403193612775"
                 d="m 2.998,12.436 0,-8.371 C 2.998,3.892 3.14,3.75 3.313,3.75 l 0.121,0 c 0.173,0 0.315,0.142 0.315,0.315 l 0,8.371 c 0,0.173 -0.142,0.315 -0.315,0.315 l -0.121,0 c -0.173,0 -0.315,-0.142 -0.315,-0.315 z"
                 inkscape:connector-curvature="0"
                 style="fill:#959595;stroke-width:0.183;marker-start:none;marker-end:none" />
              <path
                 id="path23297"
                 stroke-miterlimit="79.8403193612775"
                 d="m 12.747,12.436 0,-8.371 c 0,-0.173 0.142,-0.315 0.315,-0.315 l 0.121,0 c 0.173,0 0.315,0.142 0.315,0.315 l 0,8.371 c 0,0.173 -0.142,0.315 -0.315,0.315 l -0.121,0 c -0.173,0 -0.315,-0.142 -0.315,-0.315 z"
                 inkscape:connector-curvature="0"
                 style="fill:#959595;stroke-width:0.183;marker-start:none;marker-end:none" />
              <path
                 id="path23299"
                 stroke-miterlimit="79.8403193612775"
                 d="m 8.248,12.436 0,-8.371 C 8.248,3.892 8.39,3.75 8.563,3.75 l 0.121,0 c 0.173,0 0.315,0.142 0.315,0.315 l 0,8.371 c 0,0.173 -0.142,0.315 -0.315,0.315 l -0.121,0 c -0.173,0 -0.315,-0.142 -0.315,-0.315 z"
                 inkscape:connector-curvature="0"
                 style="fill:#959595;stroke-width:0.183;marker-start:none;marker-end:none" />
              <g
                 stroke-miterlimit="79.8403193612775"
                 id="Group_2">
                <path
                   id="path23302"
                   d="m 1.498,9.084 0,-0.917 C 1.498,7.799 1.798,7.5 2.166,7.5 l 2.415,0 c 0.368,0 0.668,0.299 0.668,0.667 l 0,0.917 c 0,0.368 -0.3,0.667 -0.668,0.667 l -2.415,0 C 1.798,9.751 1.498,9.452 1.498,9.084 z"
                   inkscape:connector-curvature="0"
                   style="fill:#000000;fill-opacity:0.18039198;marker-start:none;marker-end:none" />
                <path
                   id="path23304"
                   d="m 1.498,10.866 0,-2.231 c 0,-0.211 0.173,-0.384 0.384,-0.384 l 2.983,0 c 0.211,0 0.384,0.173 0.384,0.384 l 0,2.231 c 0,0.211 -0.173,0.384 -0.384,0.384 l -2.983,0 c -0.211,0 -0.384,-0.173 -0.384,-0.384 z"
                   inkscape:connector-curvature="0"
                   style="fill:#7bb0de;marker-start:none;marker-end:none" />
                <path
                   id="path23306"
                   d="m 2.248,10.154 0,-0.805 c 0,-0.19 0.156,-0.346 0.346,-0.346 l 1.559,0 c 0.19,0 0.346,0.156 0.346,0.346 l 0,0.805 c 0,0.19 -0.156,0.346 -0.346,0.346 l -1.559,0 c -0.19,0 -0.346,-0.156 -0.346,-0.346 z"
                   inkscape:connector-curvature="0"
                   style="fill:#a5d4ff;marker-start:none;marker-end:none" />
                <path
                   id="path23308"
                   d="m 2.248,10.154 0,-0.057 c 0,-0.19 0.156,-0.346 0.346,-0.346 l 1.559,0 c 0.19,0 0.346,0.156 0.346,0.346 l 0,0.057 c 0,0.19 -0.156,0.346 -0.346,0.346 l -1.559,0 c -0.19,0 -0.346,-0.156 -0.346,-0.346 z"
                   inkscape:connector-curvature="0"
                   style="fill:#e9f5ff;marker-start:none;marker-end:none" />
                <path
                   id="path23310"
                   d="m 1.5,8.626 0,-10e-4 C 1.5,8.419 1.732,8.251 2.017,8.251 l 2.715,0 c 0.285,0 0.517,0.168 0.517,0.374 l 0,10e-4 C 5.249,8.832 5.017,9 4.732,9 L 2.017,9 C 1.732,9 1.5,8.832 1.5,8.626 z"
                   inkscape:connector-curvature="0"
                   style="fill:#669ccb;marker-start:none;marker-end:none" />
                <path
                   id="path23312"
                   d="m 1.5,10.877 0,-0.001 c 0,-0.206 0.232,-0.374 0.517,-0.374 l 2.715,0 c 0.285,0 0.517,0.168 0.517,0.374 l 0,0.001 c 0,0.206 -0.232,0.374 -0.517,0.374 l -2.715,0 C 1.732,11.251 1.5,11.083 1.5,10.877 z"
                   inkscape:connector-curvature="0"
                   style="fill:#87c2f1;marker-start:none;marker-end:none" />
              </g>
              <g
                 stroke-miterlimit="79.8403193612775"
                 id="Group_3">
                <path
                   id="path23315"
                   d="m 6.747,6.085 0,-0.917 c 0,-0.368 0.3,-0.667 0.668,-0.667 l 2.415,0 c 0.368,0 0.668,0.299 0.668,0.667 l 0,0.917 c 0,0.368 -0.3,0.667 -0.668,0.667 l -2.415,0 C 7.047,6.752 6.747,6.453 6.747,6.085 z"
                   inkscape:connector-curvature="0"
                   style="fill:#000000;fill-opacity:0.18039198;marker-start:none;marker-end:none" />
                <path
                   id="path23317"
                   d="m 6.747,7.867 0,-2.231 c 0,-0.211 0.173,-0.384 0.384,-0.384 l 2.983,0 c 0.211,0 0.384,0.173 0.384,0.384 l 0,2.231 c 0,0.211 -0.173,0.384 -0.384,0.384 l -2.983,0 C 6.92,8.251 6.747,8.078 6.747,7.867 z"
                   inkscape:connector-curvature="0"
                   style="fill:#7bb0de;marker-start:none;marker-end:none" />
                <path
                   id="path23319"
                   d="m 7.497,7.155 0,-0.805 c 0,-0.19 0.156,-0.346 0.346,-0.346 l 1.559,0 c 0.19,0 0.346,0.156 0.346,0.346 l 0,0.805 c 0,0.19 -0.156,0.346 -0.346,0.346 l -1.559,0 c -0.19,0 -0.346,-0.156 -0.346,-0.346 z"
                   inkscape:connector-curvature="0"
                   style="fill:#a5d4ff;marker-start:none;marker-end:none" />
                <path
                   id="path23321"
                   d="m 7.497,7.155 0,-0.057 c 0,-0.19 0.156,-0.346 0.346,-0.346 l 1.559,0 c 0.19,0 0.346,0.156 0.346,0.346 l 0,0.057 c 0,0.19 -0.156,0.346 -0.346,0.346 l -1.559,0 c -0.19,0 -0.346,-0.156 -0.346,-0.346 z"
                   inkscape:connector-curvature="0"
                   style="fill:#e9f5ff;marker-start:none;marker-end:none" />
                <path
                   id="path23323"
                   d="m 6.749,5.627 0,-10e-4 c 0,-0.206 0.232,-0.374 0.517,-0.374 l 2.715,0 c 0.285,0 0.517,0.168 0.517,0.374 l 0,10e-4 c 0,0.206 -0.232,0.374 -0.517,0.374 l -2.715,0 C 6.981,6.001 6.749,5.833 6.749,5.627 z"
                   inkscape:connector-curvature="0"
                   style="fill:#669ccb;marker-start:none;marker-end:none" />
                <path
                   id="path23325"
                   d="m 6.749,7.878 0,-0.001 c 0,-0.206 0.232,-0.374 0.517,-0.374 l 2.715,0 c 0.285,0 0.517,0.168 0.517,0.374 l 0,0.001 c 0,0.206 -0.232,0.374 -0.517,0.374 l -2.715,0 C 6.981,8.252 6.749,8.084 6.749,7.878 z"
                   inkscape:connector-curvature="0"
                   style="fill:#87c2f1;marker-start:none;marker-end:none" />
              </g>
              <g
                 stroke-miterlimit="79.8403193612775"
                 id="Group_4">
                <path
                   id="path23328"
                   d="m 11.247,7.585 0,-0.917 c 0,-0.368 0.3,-0.667 0.668,-0.667 l 2.415,0 c 0.368,0 0.668,0.299 0.668,0.667 l 0,0.917 c 0,0.368 -0.3,0.667 -0.668,0.667 l -2.415,0 c -0.368,0 -0.668,-0.299 -0.668,-0.667 z"
                   inkscape:connector-curvature="0"
                   style="fill:#000000;fill-opacity:0.18039198;marker-start:none;marker-end:none" />
                <path
                   id="path23330"
                   d="m 11.247,9.367 0,-2.231 c 0,-0.211 0.173,-0.384 0.384,-0.384 l 2.983,0 c 0.211,0 0.384,0.173 0.384,0.384 l 0,2.231 c 0,0.211 -0.173,0.384 -0.384,0.384 l -2.983,0 c -0.211,0 -0.384,-0.173 -0.384,-0.384 z"
                   inkscape:connector-curvature="0"
                   style="fill:#7bb0de;marker-start:none;marker-end:none" />
                <path
                   id="path23332"
                   d="m 11.997,8.655 0,-0.805 c 0,-0.19 0.156,-0.346 0.346,-0.346 l 1.559,0 c 0.19,0 0.346,0.156 0.346,0.346 l 0,0.805 c 0,0.19 -0.156,0.346 -0.346,0.346 l -1.559,0 c -0.19,0 -0.346,-0.156 -0.346,-0.346 z"
                   inkscape:connector-curvature="0"
                   style="fill:#a5d4ff;marker-start:none;marker-end:none" />
                <path
                   id="path23334"
                   d="m 11.997,8.655 0,-0.057 c 0,-0.19 0.156,-0.346 0.346,-0.346 l 1.559,0 c 0.19,0 0.346,0.156 0.346,0.346 l 0,0.057 c 0,0.19 -0.156,0.346 -0.346,0.346 l -1.559,0 c -0.19,0 -0.346,-0.156 -0.346,-0.346 z"
                   inkscape:connector-curvature="0"
                   style="fill:#e9f5ff;marker-start:none;marker-end:none" />
                <path
                   id="path23336"
                   d="m 11.249,7.127 0,-10e-4 c 0,-0.206 0.232,-0.374 0.517,-0.374 l 2.715,0 c 0.285,0 0.517,0.168 0.517,0.374 l 0,10e-4 c 0,0.206 -0.232,0.374 -0.517,0.374 l -2.715,0 c -0.285,0 -0.517,-0.168 -0.517,-0.374 z"
                   inkscape:connector-curvature="0"
                   style="fill:#669ccb;marker-start:none;marker-end:none" />
                <path
                   id="path23338"
                   d="m 11.249,9.378 0,-10e-4 c 0,-0.206 0.232,-0.374 0.517,-0.374 l 2.715,0 c 0.285,0 0.517,0.168 0.517,0.374 l 0,10e-4 c 0,0.206 -0.232,0.374 -0.517,0.374 l -2.715,0 c -0.285,0 -0.517,-0.168 -0.517,-0.374 z"
                   inkscape:connector-curvature="0"
                   style="fill:#87c2f1;marker-start:none;marker-end:none" />
              </g>
              <path
                 id="path23340"
                 stroke-miterlimit="79.8403193612775"
                 d="m 1.873,14.251 c 0.207,0 0.375,-0.168 0.375,-0.375 0,-0.207 -0.168,-0.375 -0.375,-0.375 -0.207,0 -0.375,0.168 -0.375,0.375 0,0.207 0.168,0.375 0.375,0.375 z"
                 inkscape:connector-curvature="0"
                 style="fill:#b2b2b2;stroke-width:0.5;marker-start:none;marker-end:none" />
              <path
                 id="path23342"
                 stroke-miterlimit="79.8403193612775"
                 d="m 14.623,14.251 c 0.207,0 0.375,-0.168 0.375,-0.375 0,-0.207 -0.168,-0.375 -0.375,-0.375 -0.207,0 -0.375,0.168 -0.375,0.375 0,0.207 0.168,0.375 0.375,0.375 z"
                 inkscape:connector-curvature="0"
                 style="fill:#b2b2b2;stroke-width:0.5;marker-start:none;marker-end:none" />
              <path
                 id="path23344"
                 stroke-miterlimit="79.8403193612775"
                 d="m 14.623,3.001 c 0.207,0 0.375,-0.168 0.375,-0.375 0,-0.207 -0.168,-0.375 -0.375,-0.375 -0.207,0 -0.375,0.168 -0.375,0.375 0,0.207 0.168,0.375 0.375,0.375 z"
                 inkscape:connector-curvature="0"
                 style="fill:#999999;stroke-width:0.5;marker-start:none;marker-end:none" />
              <path
                 id="path23346"
                 stroke-miterlimit="79.8403193612775"
                 d="m 1.873,3.001 c 0.207,0 0.375,-0.168 0.375,-0.375 0,-0.207 -0.168,-0.375 -0.375,-0.375 -0.207,0 -0.375,0.168 -0.375,0.375 0,0.207 0.168,0.375 0.375,0.375 z"
                 inkscape:connector-curvature="0"
                 style="fill:#999999;stroke-width:0.5;marker-start:none;marker-end:none" />
            </g>
          </g>
        </g>
      </g>
    </g>
  </g>
</svg>
