<?xml version="1.0" encoding="UTF-8"?>
<!DOCTYPE svg PUBLIC "-//W3C//DTD SVG 1.1//EN" "http://www.w3.org/Graphics/SVG/1.1/DTD/svg11.dtd">
<!-- Creator: CorelDRAW -->
<svg xmlns="http://www.w3.org/2000/svg" xml:space="preserve" width="22px" height="22px" style="shape-rendering:geometricPrecision; text-rendering:geometricPrecision; image-rendering:optimizeQuality; fill-rule:evenodd; clip-rule:evenodd"
viewBox="0 0 22 22"
 xmlns:xlink="http://www.w3.org/1999/xlink">
 <defs>
  <style type="text/css">
   <![CDATA[
    .fil30 {fill:#E5E5E5}
    .fil27 {fill:#404040}
    .fil26 {fill:#424242}
    .fil29 {fill:#454545}
    .fil28 {fill:#93CCFA}
    .fil54 {fill:#FFF2A6}
    .fil17 {fill:#CE7EE6}
    .fil18 {fill:#404040;fill-rule:nonzero}
    .fil0 {fill:black;fill-opacity:0.000000}
    .fil19 {fill:#4C4C4C;fill-opacity:0.000000}
    .fil31 {fill:#FFFD94;fill-opacity:0.000000}
    .fil1 {fill:black;fill-opacity:0.003922}
    .fil2 {fill:black;fill-opacity:0.007843}
    .fil3 {fill:black;fill-opacity:0.015686}
    .fil4 {fill:black;fill-opacity:0.019608}
    .fil32 {fill:#FFFD94;fill-opacity:0.019608}
    .fil5 {fill:black;fill-opacity:0.023529}
    .fil6 {fill:black;fill-opacity:0.027451}
    .fil7 {fill:black;fill-opacity:0.031373}
    .fil20 {fill:#4C4C4C;fill-opacity:0.035294}
    .fil8 {fill:black;fill-opacity:0.035294}
    .fil33 {fill:#FFFD94;fill-opacity:0.039216}
    .fil9 {fill:black;fill-opacity:0.043137}
    .fil10 {fill:black;fill-opacity:0.047059}
    .fil11 {fill:black;fill-opacity:0.050980}
    .fil12 {fill:black;fill-opacity:0.054902}
    .fil34 {fill:#FFFD94;fill-opacity:0.058824}
    .fil13 {fill:black;fill-opacity:0.058824}
    .fil21 {fill:#4C4C4C;fill-opacity:0.074510}
    .fil35 {fill:#FFFD94;fill-opacity:0.078431}
    .fil36 {fill:#FFFD94;fill-opacity:0.094118}
    .fil22 {fill:#4C4C4C;fill-opacity:0.109804}
    .fil37 {fill:#FFFD94;fill-opacity:0.113725}
    .fil38 {fill:#FFFD94;fill-opacity:0.133333}
    .fil23 {fill:#4C4C4C;fill-opacity:0.145098}
    .fil39 {fill:#FFFD94;fill-opacity:0.152941}
    .fil40 {fill:#FFFD94;fill-opacity:0.172549}
    .fil24 {fill:#4C4C4C;fill-opacity:0.184314}
    .fil41 {fill:#FFFD94;fill-opacity:0.192157}
    .fil42 {fill:#FFFD94;fill-opacity:0.211765}
    .fil25 {fill:#4C4C4C;fill-opacity:0.219608}
    .fil43 {fill:#FFFD94;fill-opacity:0.231373}
    .fil44 {fill:#FFFD94;fill-opacity:0.247059}
    .fil45 {fill:#FFFD94;fill-opacity:0.266667}
    .fil46 {fill:#FFFD94;fill-opacity:0.286275}
    .fil47 {fill:#FFFD94;fill-opacity:0.305882}
    .fil48 {fill:#FFFD94;fill-opacity:0.325490}
    .fil49 {fill:#FFFD94;fill-opacity:0.345098}
    .fil50 {fill:#FFFD94;fill-opacity:0.364706}
    .fil51 {fill:#FFFD94;fill-opacity:0.384314}
    .fil52 {fill:#FFFD94;fill-opacity:0.400000}
    .fil53 {fill:url(#id0)}
    .fil15 {fill:url(#id1)}
    .fil14 {fill:url(#id2)}
    .fil16 {fill:url(#id3);fill-opacity:0.780392}
   ]]>
  </style>
  <linearGradient id="id0" gradientUnits="userSpaceOnUse" x1="10.9592" y1="-0.0263626" x2="10.9592" y2="2.74794">
   <stop offset="0" style="stop-color:gray"/>
   <stop offset="1" style="stop-color:#B5B5B5"/>
  </linearGradient>
  <linearGradient id="id1" gradientUnits="userSpaceOnUse" x1="10.8143" y1="7.14398" x2="10.8143" y2="8.14972">
   <stop offset="0" style="stop-color:#BEBEBE"/>
   <stop offset="1" style="stop-color:#B7B7B7"/>
  </linearGradient>
  <linearGradient id="id2" gradientUnits="userSpaceOnUse" x1="10.8543" y1="4.92187" x2="10.6068" y2="16.5741">
   <stop offset="0" style="stop-color:whitesmoke"/>
   <stop offset="1" style="stop-color:#EBEBEB"/>
  </linearGradient>
  <linearGradient id="id3" gradientUnits="userSpaceOnUse" xlink:href="#id1" x1="7.54905" y1="-2745.98" x2="7.54905" y2="4110.09">
  </linearGradient>
 </defs>
 <g id="Слой_x0020_1">
  <metadata id="CorelCorpID_0Corel-Layer"/>
  <g id="_123054608">
   <path id="_46298512" class="fil0" d="M10.6153 18.9334c6.3976,-0.253988 9.44064,0.239248 10.8566,0.959258l0 2.1983 -20.9438 0 0 -1.70563c1.15457,-0.6293 3.84327,-1.20417 10.0872,-1.45193z"/>
   <g>
    <path id="_129631616" class="fil1" d="M10.6193 19.0514c6.42765,-0.245767 9.47466,0.283185 10.8526,1.01765l0 1.97663c-0.109419,0.0170081 -0.227058,0.0323154 -0.351785,0.045355l-20.592 0 0 -1.57297c1.11715,-0.634119 3.78714,-1.22543 10.0912,-1.46667z"/>
    <path id="_85202472" class="fil2" d="M10.6227 19.1698c6.44097,-0.236413 9.5081,0.325705 10.8492,1.06953l0 1.72547c-0.430872,0.0728514 -1.00008,0.109702 -1.677,0.126144l-2.48602 0c-1.81051,-0.022394 -3.95524,-0.0663317 -6.17962,0l-10.248 0c-0.128411,-0.0187089 -0.246618,-0.0394021 -0.353202,-0.0623631l0 -1.38588c1.0854,-0.634686 3.75398,-1.24018 10.0946,-1.4729z"/>
    <path id="_128908984" class="fil3" d="M10.6255 19.2881c6.43587,-0.225074 9.54467,0.368509 10.8464,1.11488l0 1.48084c-1.71413,0.312666 -5.96135,0.00935446 -10.4949,0.142868 -0.767917,0.0226775 -1.52336,0.044788 -2.25613,0.0643474l-7.04363 0c-0.468574,-0.0340162 -0.856642,-0.081639 -1.14918,-0.145136l0 -1.18858c1.05904,-0.629867 3.74859,-1.24726 10.0974,-1.46922z"/>
    <path id="_21351496" class="fil4" d="M10.6287 19.4065c6.40923,-0.212035 9.58549,0.409329 10.8432,1.15003l0 1.24641c-1.61747,0.319753 -5.9262,0.0317485 -10.5056,0.154774 -4.70161,0.126427 -8.96753,0.232161 -10.4382,-0.0929777l0 -1.00291c1.03381,-0.620229 3.77183,-1.24584 10.1006,-1.45533z"/>
    <path id="_80115168" class="fil5" d="M10.6321 19.5248c6.36217,-0.197011 9.63822,0.448164 10.8398,1.17611l0 1.02162c-1.50352,0.325139 -5.88339,0.054426 -10.5167,0.16668 -4.72089,0.114521 -9.03981,0.207783 -10.4271,-0.104883l0 -0.83028c1.00716,-0.604922 3.82768,-1.23451 10.104,-1.42925z"/>
    <path id="_86003808" class="fil6" d="M10.6355 19.6432c6.29612,-0.18057 9.70937,0.484448 10.8364,1.19114l0 0.808453c-1.36717,0.328257 -5.8301,0.0765365 -10.5277,0.177735 -4.74526,0.102049 -9.12457,0.183121 -10.4161,-0.114521l0 -0.671821c0.973715,-0.583945 3.91527,-1.21353 10.1074,-1.39098z"/>
    <path id="_85676296" class="fil7" d="M10.638 19.7614c6.21902,-0.161861 9.81737,0.520165 10.8339,1.19794l0 0.603221c-1.19312,0.330524 -5.75923,0.099781 -10.5399,0.189074 -4.77503,0.0895761 -9.22322,0.157325 -10.4039,-0.122175l0 -0.527252c0.927509,-0.557583 4.03348,-1.18263 10.1099,-1.34081z"/>
    <path id="_123149416" class="fil8" d="M10.6414 19.8799c6.14078,-0.142018 9.98518,0.555882 10.8305,1.19709l0 0.40451c-0.958407,0.331375 -5.65832,0.124159 -10.5507,0.201546 -4.81783,0.0762531 -9.34965,0.130679 -10.3931,-0.128411l0 -0.393454c0.856359,-0.526968 4.17493,-1.14436 10.1133,-1.28128z"/>
    <path id="_85834440" class="fil9" d="M10.6448 19.9981c6.12065,-0.121041 10.3151,0.606623 10.8271,1.20417l0 0.189074c-0.556732,0.341863 -5.47321,0.157609 -10.5618,0.22309 -4.87935,0.0626466 -9.51633,0.102899 -10.382,-0.13238l0 -0.270429c0.743822,-0.491818 4.33253,-1.09929 10.1167,-1.21353z"/>
    <path id="_78954192" class="fil10" d="M10.6482 20.1166c6.08097,-0.0966628 10.7418,0.652545 10.7525,1.18972 0.0104883,0.340729 -5.17274,0.187089 -10.5017,0.239248 -4.98083,0.0487566 -9.76634,0.0742688 -10.371,-0.134648l0 -0.150522c0.541992,-0.452983 4.48022,-1.05422 10.1201,-1.1438z"/>
    <path id="_122658880" class="fil11" d="M10.6508 20.2348c5.63366,-0.0643474 10.6182,0.598402 10.6253,1.05819 0.00708672,0.243783 -5.1424,0.149104 -10.3888,0.183971 -5.24644,0.0348666 -10.3446,0.0436542 -10.3446,-0.144852 0,-0.407628 4.47484,-1.03296 10.1082,-1.09731z"/>
    <path id="_124267568" class="fil12" d="M10.6545 20.3533c5.18549,-0.0323154 10.4937,0.543693 10.4974,0.926092 0.00340162,0.146837 -5.11179,0.111403 -10.2755,0.128695 -5.16395,0.0175751 -10.2536,0.0099214 -10.2536,-0.107435 0,-0.35632 4.8459,-0.91532 10.0317,-0.947352z"/>
   </g>
   <path id="_82574984" class="fil13" d="M10.6573 20.4718c4.73846,0 10.3704,0.48955 10.3704,0.794563 0,0.0994975 -20.3253,0.0955289 -20.3253,0.00311815 0,-0.305012 5.21667,-0.797681 9.95485,-0.797681z"/>
  </g>
  <path class="fil14" d="M1.95168 2.92398l0.058678 17.166c0.036284,0.475093 0.82461,0.869682 1.23677,0.868548l15.5247 -0.123592c0.595284,-0.0170081 1.04713,-0.432857 1.06839,-0.976833l0.157325 -18.2211c0,-0.57289 -0.69223,-0.88669 -1.28383,-0.887257l-15.648 0.0904265c-1.36235,-0.303311 -1.60216,1.33145 -1.11403,2.08378z"/>
  <polygon class="fil15" points="3.99436,7.14398 17.6346,7.14398 17.6346,8.15001 3.99436,8.15001 "/>
  <path class="fil16" d="M4.00088 15.0859l14.0127 0 0 1.09731 -14.0127 0 0 -1.09731zm0.0306146 -5.97552l14.0127 0 0 1.00603 -14.0127 0 0 -1.00603zm0.0306146 3.96346l14.0127 0 0 1.00603 -14.0127 0 0 -1.00603z"/>
  <path class="fil17" d="M3.78941 8.94542l14.3319 0c0.400825,0 0.761397,0.284603 0.759129,0.700451l-0.0731349 1.75609c-0.00226775,0.416415 -0.0600953,0.763948 -0.4544,0.763948l-14.5451 0c-0.394021,0 -0.74779,0.158742 -0.758562,-0.261925l0.0121892 -2.57163c-0.0104883,-0.420101 0.327406,-0.386935 0.727947,-0.386935zm0.748074 1.0803l12.4601 0c0.245484,0 0.471125,0.218838 0.44618,0.469424l-0.0201263 0.0887257c-0.0249452,0.250019 -0.207216,0.469141 -0.446463,0.469141l-12.3388 0c-0.238681,0 -0.433707,-0.211468 -0.44618,-0.469141l-0.100915 -0.0887257c-0.0124726,-0.257673 0.200696,-0.469424 0.44618,-0.469424z"/>
  <path class="fil18" d="M8.13186 19.0757l-0.00113387 0.000850406 -1.05564 0 0.0303311 1.61577 -1.03438 0.000283469 -0.0232444 -2.01234 0.631852 -0.609458 0.395439 0 0 0.00113387c2.72555,0 5.46187,-0.00340162 8.18459,-0.00113387l0.729932 0.548512c0,0.674372 0.0161577,1.30707 0.0303311,2.07301l-1.03438 0.000283469 -0.0303311 -1.61605 -6.66888 0 -0.15449 -0.000850406z"/>
  <path class="fil18" d="M20.975 3.7741l0.0303311 15.5911c0,0.452699 -0.185955,0.865713 -0.484731,1.16449 -0.298209,0.298209 -0.711223,0.484731 -1.16421,0.484731l-16.7031 0c-0.453266,0 -0.865997,-0.185955 -1.16449,-0.484448 -0.298492,-0.298492 -0.484164,-0.711223 -0.484164,-1.16477l-0.0909934 -16.6858c0,-0.643757 0.0615127,-1.71187 0.47396,-2.20454 0.265043,-0.316351 0.642623,-0.516196 1.12055,-0.516196l0.00963793 0.00198428 0.0606623 0.00141734 16.7425 0.0374179 0.00396856 0 0.0277799 0.000283469 0.00198428 0c1.81307,0.0218271 1.65574,1.89811 1.6393,3.25167l-0.0189924 0.522716zm-0.969746 15.5911l-0.0303311 -16.0911c0,-0.44051 -0.0748357,-1.79294 -0.262492,-2.06394 -0.108852,-0.0986471 -0.138616,-0.211751 -0.369643,-0.214302l-0.0257956 -0.000283469 -16.7482 -0.0374179 -0.00963793 0 -0.0510244 -0.00113387 0 0.00170081c-0.155057,0 -0.274398,0.0609458 -0.354619,0.156758 -0.253988,0.303878 -0.239814,1.13019 -0.239814,1.5639l0.0909934 16.6858c0,0.177735 0.0734184,0.340162 0.191058,0.457802 0.117639,0.117639 0.280067,0.191341 0.457518,0.191341l16.7031 0c0.176884,0 0.339595,-0.0739853 0.457235,-0.191625 0.117923,-0.117923 0.191625,-0.280634 0.191625,-0.457518z"/>
  <g id="_86359416">
   <path id="_123654048" class="fil19" d="M15.7555 11.5732l0.39062 1.52478 -0.0805051 0.032032 0.170081 0.316351 0.123876 0.49607 0.428321 0.0484731 0.75346 -0.901714 3.21567 -1.22458c0,-1.85502 0,2.52769 0,-1.40175l-3.45917 1.20389 -1.21268 -0.44703 -0.329674 0.353485z"/>
   <g>
    <path id="_46539504" class="fil20" d="M15.7436 11.481c0.130963,0.49522 0.262208,0.990439 0.393454,1.48538 -0.0269295,0.0104883 -0.0535756,0.0212601 -0.0802216,0.0317485 0.0564103,0.10545 0.113104,0.210901 0.169798,0.316634 0.0413864,0.165262 0.0824894,0.330524 0.123876,0.49607 0.142585,0.0158742 0.285453,0.0323154 0.428605,0.0484731 0.25087,-0.300477 0.502023,-0.601237 0.753176,-0.901714 1.07179,-0.408478 2.14359,-0.816673 3.21567,-1.22487 0,-1.85474 -0.00311815,2.56738 -0.00311815,-1.36178 -1.15315,0.401392 -2.30602,0.8025 -3.45917,1.20361 -0.404226,-0.148821 -0.808453,-0.297642 -1.2124,-0.446747 -0.109986,0.117639 -0.219972,0.235562 -0.329674,0.353202z"/>
    <path id="_79554544" class="fil21" d="M15.7314 11.3895c0.131813,0.481897 0.264476,0.96351 0.396573,1.44541 -0.0269295,0.0104883 -0.0535756,0.0212601 -0.0805051,0.0317485 0.0564103,0.10545 0.113104,0.210901 0.169798,0.316634 0.0413864,0.165262 0.0827728,0.330524 0.123876,0.49607 0.142868,0.0158742 0.285736,0.032032 0.428605,0.0484731 0.25087,-0.300477 0.502023,-0.601237 0.753176,-0.901714 1.07179,-0.408478 2.14387,-0.816673 3.21567,-1.22487 0,-1.85474 -0.00595284,2.60734 -0.00595284,-1.32181 -1.15315,0.401392 -2.30602,0.802216 -3.45917,1.20361 -0.404226,-0.149104 -0.808453,-0.297926 -1.2124,-0.446747 -0.109986,0.117639 -0.219972,0.235279 -0.329674,0.353202z"/>
    <path id="_80467728" class="fil22" d="M15.7192 11.2976c0.132947,0.46829 0.266177,0.937147 0.399691,1.40572 -0.0269295,0.0104883 -0.0535756,0.0209767 -0.0802216,0.0317485 0.0564103,0.10545 0.113104,0.210901 0.169798,0.316634 0.041103,0.165262 0.0824894,0.330524 0.123876,0.495787 0.142585,0.0161577 0.285453,0.0323154 0.428321,0.0487566 0.251153,-0.30076 0.502306,-0.601237 0.75346,-0.901714 1.07179,-0.408478 2.14359,-0.816673 3.21567,-1.22487 0,-1.85474 -0.00935446,2.64703 -0.00935446,-1.28213 -1.15315,0.401108 -2.30602,0.8025 -3.45917,1.20361 -0.404226,-0.149104 -0.808453,-0.297926 -1.2124,-0.446747 -0.109986,0.117639 -0.219972,0.235562 -0.329674,0.353202z"/>
    <path id="_124052768" class="fil23" d="M15.7067 11.2061c0.134364,0.455251 0.268445,0.910501 0.403092,1.36604 -0.0269295,0.0104883 -0.053859,0.0212601 -0.0805051,0.032032 0.0564103,0.10545 0.113104,0.210901 0.169798,0.316351 0.0413864,0.165262 0.0827728,0.330524 0.123876,0.49607 0.142868,0.0158742 0.285736,0.0323154 0.428605,0.0484731 0.25087,-0.300477 0.502023,-0.601237 0.753176,-0.901714 1.07179,-0.408478 2.14359,-0.81639 3.21567,-1.22458 0,-1.85474 -0.0124726,2.68643 -0.0124726,-1.24273 -1.15287,0.401108 -2.30602,0.8025 -3.45888,1.20361 -0.40451,-0.149104 -0.808453,-0.297926 -1.21268,-0.446747 -0.109986,0.117639 -0.219972,0.235562 -0.329674,0.353202z"/>
    <path id="_79030672" class="fil24" d="M15.6945 11.1142c0.135215,0.441928 0.270713,0.884139 0.405927,1.32607 -0.0269295,0.0104883 -0.0535756,0.0212601 -0.0802216,0.032032 0.0564103,0.10545 0.113104,0.210901 0.169798,0.316634 0.0413864,0.164979 0.0824894,0.330524 0.123876,0.495787 0.142585,0.0158742 0.285453,0.0323154 0.428321,0.0484731 0.251153,-0.300477 0.502306,-0.600953 0.75346,-0.901714 1.07179,-0.408195 2.14359,-0.81639 3.21567,-1.22458 0,-1.85474 -0.0155908,2.7264 -0.0155908,-1.20276 -1.15287,0.401392 -2.30602,0.8025 -3.45888,1.20361 -0.40451,-0.149104 -0.808453,-0.297926 -1.21268,-0.446747 -0.109986,0.117639 -0.219972,0.235279 -0.329674,0.353202z"/>
   </g>
   <path id="_79934120" class="fil25" d="M15.6821 11.023l0.409045 1.28638 -0.0805051 0.032032 0.170081 0.316634 0.123876 0.495787 0.428321 0.0484731 0.75346 -0.901714 3.21567 -1.22458c0,-1.85502 -0.0184255,2.76609 -0.0184255,-1.16336l-3.45917 1.20389 -1.21268 -0.44703 -0.329674 0.353485z"/>
  </g>
  <polygon class="fil26" points="15.0309,8.6988 15.4734,10.4195 15.3938,10.4529 15.5718,10.7642 15.7112,11.6809 16.1739,11.807 17.0909,11.5873 20.2691,10.2687 20.0971,8.87427 17.3715,9.99907 17.3817,9.98291 17.1572,8.88561 19.9933,7.80984 19.9273,6.4353 16.5055,7.73983 15.351,8.33568 "/>
  <path class="fil27" d="M20.7836 5.90465l0 0.863729 -0.718876 0c-0.145703,0 -0.268728,0.0700168 -0.268728,0.152223l0 2.2068c0,0.0824894 0.120758,0.152223 0.268728,0.152223l0.741837 0 -0.0555599 0.885556c0.703569,-0.169231 0.871099,0.035717 1.22884,-0.429171 0,-1.17554 0,-2.1229 0,-3.29844 -0.178869,-0.491251 -0.420951,-0.685427 -1.19624,-0.532921z"/>
  <rect class="fil28" x="4.07443" y="5.00124" width="7.35975" height="1.03664"/>
  <circle class="fil29" transform="matrix(1.92403 -0.382591 0.382591 1.92403 15.8198 10.7569)" r="1.09022"/>
  <circle class="fil30" cx="15.8414" cy="10.695" r="1.16386"/>
  <path class="fil31" d="M10.6247 7.69391c4.20299,0 7.80559,0.122175 9.31818,0.295658l-0.00340162 0.365391c-1.51429,0.173199 -5.11491,0.295091 -9.31478,0.295091 -3.67659,0 -6.89339,-0.0935446 -8.6543,-0.233011l-0.00170081 -0.489834c1.76062,-0.13975 4.97828,-0.233295 8.656,-0.233295z"/>
  <g id="_85658352">
   <path id="_46474720" class="fil32" d="M10.6641 7.32936c4.27045,0 7.90821,0.131246 9.28161,0.315501l-0.00283469 0.325422c-1.37539,0.183688 -5.01116,0.315217 -9.27878,0.315217 -3.75993,0 -7.02945,-0.102049 -8.69483,-0.252004l-0.00170081 -0.452132c1.66509,-0.150238 4.93519,-0.252004 8.69653,-0.252004z"/>
   <path id="_86625008" class="fil33" d="M10.7035 6.96426c4.36145,0 8.04796,0.143435 9.24505,0.340162l-0.00226775 0.276382c-1.19964,0.196444 -4.88445,0.339879 -9.24278,0.339879 -3.85971,0 -7.19018,-0.112254 -8.73565,-0.274398l-0.00141734 -0.407344c1.5449,-0.162428 4.87623,-0.274681 8.73707,-0.274681z"/>
   <path id="_124161120" class="fil34" d="M10.7423 6.59972c4.49468,0 8.25659,0.159309 9.20933,0.372194l-0.00198428 0.212601c-0.955856,0.212885 -4.71578,0.371627 -9.20734,0.371627 -3.98103,0 -7.38748,-0.12501 -8.77591,-0.301611l-0.00113387 -0.353202c1.38786,-0.176601 4.79487,-0.301611 8.77704,-0.301611z"/>
   <path id="_79393896" class="fil35" d="M10.7814 6.23518c4.74782,0 8.6594,0.186239 9.17276,0.424919l-0.000850406 0.107151c-0.517047,0.238681 -4.42693,0.424353 -9.17191,0.424353 -4.14233,0 -7.64855,-0.141734 -8.81644,-0.336477l-0.000850406 -0.283469c1.16676,-0.194743 4.67383,-0.336477 8.81729,-0.336477z"/>
   <path id="_123169328" class="fil36" d="M10.8208 5.87035c4.97941,0 9.01799,0.214302 9.01799,0.477928 0,0.263909 -4.03858,0.478212 -9.01799,0.478212 -4.39802,0 -8.061,-0.167246 -8.85726,-0.388069l-0.000566937 -0.180003c0.794846,-0.220822 4.45868,-0.388069 8.85783,-0.388069z"/>
   <path id="_124900456" class="fil37" d="M10.86 5.50581c4.86205,0 8.80567,0.214019 8.80567,0.477928 0,0.263909 -3.94362,0.478212 -8.80567,0.478212 -4.86262,0 -8.80567,-0.214302 -8.80567,-0.478212 0,-0.263909 3.94305,-0.477928 8.80567,-0.477928z"/>
   <path id="_122621328" class="fil38" d="M10.8988 5.14099c4.74526,0 8.59392,0.214302 8.59392,0.478212 0,0.263909 -3.84865,0.478212 -8.59392,0.478212 -4.74498,0 -8.59307,-0.214302 -8.59307,-0.478212 0,-0.263909 3.84809,-0.478212 8.59307,-0.478212z"/>
   <path id="_45303112" class="fil39" d="M10.9388 4.77616c4.62763,0 8.38103,0.214019 8.38103,0.477645 0,0.264476 -3.75341,0.478212 -8.38103,0.478212 -4.62819,0 -8.38132,-0.213735 -8.38132,-0.478212 0,-0.263626 3.75312,-0.477645 8.38132,-0.477645z"/>
   <path id="_45689304" class="fil40" d="M10.9773 4.41162c4.51055,0 8.169,0.214302 8.169,0.478212 0,0.263626 -3.65845,0.477928 -8.169,0.477928 -4.51084,0 -8.169,-0.214302 -8.169,-0.477928 0,-0.263909 3.65816,-0.478212 8.169,-0.478212z"/>
   <path id="_83369200" class="fil41" d="M11.0164 4.04708c4.39348,0 7.95668,0.214302 7.95668,0.478212 0,0.263626 -3.5632,0.477928 -7.95668,0.477928 -4.39348,0 -7.9564,-0.214302 -7.9564,-0.477928 0,-0.263909 3.56292,-0.478212 7.9564,-0.478212z"/>
   <path id="_127356384" class="fil42" d="M11.0561 3.68197c4.27612,0 7.74408,0.214019 7.74408,0.477928 0,0.264193 -3.46796,0.478212 -7.74408,0.478212 -4.27612,0 -7.74436,-0.214019 -7.74436,-0.478212 0,-0.263909 3.46824,-0.477928 7.74436,-0.477928z"/>
   <path id="_86461848" class="fil43" d="M11.0944 3.31743c4.15905,0 7.53204,0.214302 7.53204,0.478212 0,0.263909 -3.37299,0.478212 -7.53204,0.478212 -4.15905,0 -7.53204,-0.214302 -7.53204,-0.478212 0,-0.263909 3.37299,-0.478212 7.53204,-0.478212z"/>
   <path id="_78776136" class="fil44" d="M11.1344 2.95261c4.04141,0 7.31916,0.213735 7.31916,0.477645 0,0.264193 -3.27775,0.478212 -7.31916,0.478212 -4.04226,0 -7.32001,-0.214019 -7.32001,-0.478212 0,-0.263909 3.27775,-0.477645 7.32001,-0.477645z"/>
   <path id="_124351184" class="fil45" d="M11.1732 2.58807c3.92434,0 7.10713,0.213735 7.10713,0.477645 0,0.264193 -3.18279,0.478212 -7.10713,0.478212 -3.92462,0 -7.10713,-0.214019 -7.10713,-0.478212 0,-0.263909 3.1825,-0.477645 7.10713,-0.477645z"/>
   <path id="_84217176" class="fil46" d="M11.212 2.22353c3.80698,0 6.89509,0.214302 6.89509,0.477928 0,0.263909 -3.08811,0.478212 -6.89509,0.478212 -3.80755,0 -6.89509,-0.214302 -6.89509,-0.478212 0,-0.263626 3.08754,-0.477928 6.89509,-0.477928z"/>
   <path id="_122387112" class="fil47" d="M11.2517 1.85842c3.68963,0 6.68249,0.214019 6.68249,0.477928 0,0.264193 -2.99286,0.477928 -6.68249,0.477928 -3.69048,0 -6.68306,-0.213735 -6.68306,-0.477928 0,-0.263909 2.99258,-0.477928 6.68306,-0.477928z"/>
   <path id="_79304032" class="fil48" d="M11.2908 1.49388c3.57256,0 6.47045,0.214019 6.47045,0.477645 0,0.264476 -2.8979,0.478212 -6.47045,0.478212 -3.57312,0 -6.47074,-0.213735 -6.47074,-0.478212 0,-0.263626 2.89762,-0.477645 6.47074,-0.477645z"/>
   <path id="_78778920" class="fil49" d="M11.3294 1.12934c3.45605,0 6.25842,0.213735 6.25842,0.477645 0,0.264476 -2.80237,0.478212 -6.25842,0.478212 -3.4552,0 -6.25757,-0.213735 -6.25757,-0.478212 0,-0.263909 2.80237,-0.477645 6.25757,-0.477645z"/>
   <path id="_80345672" class="fil50" d="M13.0333 0.782657c2.52939,0.0569772 4.38129,0.241232 4.38129,0.459503 0,0.264193 -2.70741,0.478212 -6.04582,0.478212 -3.33841,0 -6.04554,-0.214019 -6.04554,-0.478212 0,-0.193609 1.45816,-0.360289 3.55356,-0.435408l4.1565 -0.0240948z"/>
   <path id="_122718720" class="fil51" d="M17.0611 0.759412c0.117639,0.0379848 0.18057,0.0773869 0.18057,0.118206 0,0.264193 -2.61245,0.478212 -5.83378,0.478212 -3.22105,0 -5.83322,-0.214019 -5.83322,-0.478212 0,-0.0175751 0.0119057,-0.0351501 0.0345832,-0.0521582l11.4518 -0.0660482z"/>
   <path id="_126786328" class="fil52" d="M16.232 0.764231c-0.990439,0.136348 -2.76297,0.226775 -4.78495,0.226775 -1.74787,0 -3.31006,-0.0674655 -4.34104,-0.17405l9.12599 -0.0527252z"/>
  </g>
  <rect class="fil53" x="6.9583" y="-0.0263626" width="8.00204" height="2.77431"/>
  <polygon class="fil54" points="7.87844,0.913619 14.0053,0.913619 14.0331,1.80286 7.90622,1.80286 "/>
 </g>
</svg>
