<?xml version="1.0" encoding="UTF-8"?>
<!DOCTYPE svg PUBLIC "-//W3C//DTD SVG 1.1//EN" "http://www.w3.org/Graphics/SVG/1.1/DTD/svg11.dtd">
<!-- Creator: CorelDRAW -->
<svg xmlns="http://www.w3.org/2000/svg" xml:space="preserve" width="22px" height="22px" style="shape-rendering:geometricPrecision; text-rendering:geometricPrecision; image-rendering:optimizeQuality; fill-rule:evenodd; clip-rule:evenodd"
viewBox="0 0 22 22"
 xmlns:xlink="http://www.w3.org/1999/xlink">
 <defs>
  <style type="text/css">
   <![CDATA[
    .fil34 {fill:none}
    .fil43 {fill:#666666}
    .fil48 {fill:#999999}
    .fil42 {fill:#B2B2B2}
    .fil49 {fill:#CCCCCC}
    .fil39 {fill:#E5E5E5}
    .fil40 {fill:white}
    .fil28 {fill:#9D6123}
    .fil41 {fill:#666666;fill-rule:nonzero}
    .fil37 {fill:#BA792F;fill-rule:nonzero}
    .fil27 {fill:#E0F3FF;fill-rule:nonzero}
    .fil36 {fill:#F7C266;fill-rule:nonzero}
    .fil0 {fill:black;fill-opacity:0.000000}
    .fil1 {fill:black;fill-opacity:0.003922}
    .fil2 {fill:black;fill-opacity:0.007843}
    .fil3 {fill:black;fill-opacity:0.015686}
    .fil4 {fill:black;fill-opacity:0.019608}
    .fil5 {fill:black;fill-opacity:0.023529}
    .fil17 {fill:#5790BF;fill-opacity:0.023529}
    .fil6 {fill:black;fill-opacity:0.027451}
    .fil7 {fill:black;fill-opacity:0.031373}
    .fil8 {fill:black;fill-opacity:0.035294}
    .fil18 {fill:#568EBD;fill-opacity:0.039216}
    .fil9 {fill:black;fill-opacity:0.043137}
    .fil10 {fill:black;fill-opacity:0.047059}
    .fil11 {fill:black;fill-opacity:0.050980}
    .fil12 {fill:black;fill-opacity:0.054902}
    .fil19 {fill:#558CBB;fill-opacity:0.058824}
    .fil13 {fill:black;fill-opacity:0.058824}
    .fil20 {fill:#538AB8;fill-opacity:0.074510}
    .fil21 {fill:#5288B6;fill-opacity:0.090196}
    .fil22 {fill:#5186B3;fill-opacity:0.105882}
    .fil35 {fill:#AF6715;fill-opacity:0.121569}
    .fil23 {fill:#4F84B1;fill-opacity:0.121569}
    .fil24 {fill:#4E82AE;fill-opacity:0.137255}
    .fil25 {fill:#4D80AC;fill-opacity:0.152941}
    .fil26 {fill:#4B7EA9;fill-opacity:0.172549}
    .fil30 {fill:#B67429;fill-opacity:0.439216}
    .fil31 {fill:#F7C266;fill-opacity:0.439216}
    .fil16 {fill:#DBF1FF;fill-rule:nonzero;fill-opacity:0.439216}
    .fil32 {fill:#F7C266;fill-rule:nonzero;fill-opacity:0.439216}
    .fil44 {fill:#422306;fill-opacity:0.678431}
    .fil14 {fill:#A3D6FF;fill-opacity:0.780392}
    .fil38 {fill:url(#id0)}
    .fil29 {fill:url(#id1)}
    .fil47 {fill:url(#id2);fill-rule:nonzero}
    .fil46 {fill:url(#id3);fill-rule:nonzero}
    .fil45 {fill:url(#id4);fill-rule:nonzero}
    .fil33 {fill:url(#id5);fill-opacity:0.780392}
    .fil15 {fill:url(#id6);fill-opacity:0.921569}
   ]]>
  </style>
  <linearGradient id="id0" gradientUnits="userSpaceOnUse" x1="11.3226" y1="18.0731" x2="11.3226" y2="18.6673">
   <stop offset="0" style="stop-color:#B2B2B2"/>
   <stop offset="1" style="stop-color:#7F7F7F"/>
  </linearGradient>
  <linearGradient id="id1" gradientUnits="userSpaceOnUse" x1="10.9683" y1="10.7993" x2="10.9683" y2="18.394">
   <stop offset="0" style="stop-color:#E69D45"/>
   <stop offset="1" style="stop-color:#D49242"/>
  </linearGradient>
  <linearGradient id="id2" gradientUnits="userSpaceOnUse" x1="10.9736" y1="8.93465" x2="10.9736" y2="0.0790877">
   <stop offset="0" style="stop-color:#3C73AD"/>
   <stop offset="1" style="stop-color:#5C93C8"/>
  </linearGradient>
  <linearGradient id="id3" gradientUnits="userSpaceOnUse" x1="11.0045" y1="9.60675" x2="11.0045" y2="20.0673">
   <stop offset="0" style="stop-color:#A36714"/>
   <stop offset="1" style="stop-color:#7D4A1D"/>
  </linearGradient>
  <linearGradient id="id4" gradientUnits="userSpaceOnUse" x1="10.8523" y1="18.3875" x2="11.2965" y2="12.1424">
   <stop offset="0" style="stop-color:#7F7F7F"/>
   <stop offset="1" style="stop-color:#999999"/>
  </linearGradient>
  <linearGradient id="id5" gradientUnits="userSpaceOnUse" x1="11.9318" y1="10.009" x2="11.9318" y2="20.6708">
   <stop offset="0" style="stop-color:#8C551E"/>
   <stop offset="1" style="stop-color:#804716"/>
  </linearGradient>
  <linearGradient id="id6" gradientUnits="userSpaceOnUse" x1="10.1139" y1="10.6919" x2="9.76805" y2="3.76333">
   <stop offset="0" style="stop-color:#73B2E6"/>
   <stop offset="1" style="stop-color:#83C3F9"/>
  </linearGradient>
 </defs>
 <g id="Слой_x0020_1">
  <metadata id="CorelCorpID_0Corel-Layer"/>
  <g id="_91306768">
   <path id="_94757248" class="fil0" d="M10.619 18.9334c6.34233,-0.253988 9.359,0.239248 10.7627,0.959258l0 2.1983 -20.7635 0 0 -1.70563c1.14465,-0.6293 3.8101,-1.20417 10.0008,-1.45193z"/>
   <g>
    <path id="_90871072" class="fil1" d="M10.6224 19.0514c6.37237,-0.245767 9.39302,0.283185 10.7593,1.01765l0 1.97663c-0.108568,0.0170081 -0.225358,0.0323154 -0.34895,0.045355l-20.4146 0 0 -1.57297c1.10751,-0.634119 3.75454,-1.22543 10.0042,-1.46667z"/>
    <path id="_91431216" class="fil2" d="M10.6261 19.1698c6.38541,-0.236413 9.4259,0.325705 10.7557,1.06953l0 1.72547c-0.427471,0.0728514 -0.991573,0.109702 -1.66254,0.126144l-2.46476 0c-1.79464,-0.022394 -3.92122,-0.0663317 -6.12632,0l-10.1595 0c-0.127561,-0.0187089 -0.244917,-0.0394021 -0.350367,-0.0623631l0 -1.38588c1.07605,-0.634686 3.72166,-1.24018 10.0079,-1.4729z"/>
    <path id="_94511960" class="fil3" d="M10.6287 19.2881c6.3806,-0.225074 9.46275,0.368509 10.7531,1.11488l0 1.48084c-1.69968,0.312666 -5.91004,0.00935446 -10.4044,0.142868 -0.761397,0.0226775 -1.51032,0.044788 -2.23685,0.0643474l-6.98268 0c-0.464889,-0.0340162 -0.849555,-0.081639 -1.13954,-0.145136l0 -1.18858c1.04997,-0.629867 3.71627,-1.24726 10.0104,-1.46922z"/>
    <path id="_94512208" class="fil4" d="M10.6321 19.4065c6.35395,-0.212035 9.50272,0.409329 10.7497,1.15003l0 1.24641c-1.60358,0.319753 -5.87517,0.0317485 -10.4152,0.154774 -4.66136,0.126427 -8.89043,0.232161 -10.3483,-0.0929777l0 -1.00291c1.02502,-0.620229 3.73923,-1.24584 10.0138,-1.45533z"/>
    <path id="_94192344" class="fil5" d="M10.6352 19.5248c6.30718,-0.197011 9.55516,0.448164 10.7466,1.17611l0 1.02162c-1.49076,0.325139 -5.83265,0.054426 -10.426,0.16668 -4.68063,0.114521 -8.96214,0.207783 -10.3375,-0.104883l0 -0.83028c0.99866,-0.604922 3.79451,-1.23451 10.0169,-1.42925z"/>
    <path id="_94192720" class="fil6" d="M10.6389 19.6432c6.24198,-0.18057 9.62574,0.484448 10.7429,1.19114l0 0.808453c-1.35555,0.328257 -5.77993,0.0765365 -10.437,0.177735 -4.70445,0.102049 -9.04605,0.183121 -10.3265,-0.114521l0 -0.671821c0.965494,-0.583945 3.88125,-1.21353 10.0206,-1.39098z"/>
    <path id="_92330456" class="fil7" d="M10.6411 19.7614c6.16544,-0.161861 9.7329,0.520165 10.7406,1.19794l0 0.603221c-1.18263,0.330524 -5.70991,0.099781 -10.4492,0.189074 -4.73393,0.0895761 -9.14356,0.157325 -10.3143,-0.122175l0 -0.527252c0.919289,-0.557583 3.99861,-1.18263 10.0229,-1.34081z"/>
    <path id="_91421992" class="fil8" d="M10.6448 19.8799c6.08777,-0.142018 9.89901,0.555882 10.7369,1.19709l0 0.40451c-0.950187,0.331375 -5.60956,0.124159 -10.4597,0.201546 -4.77645,0.0762531 -9.26942,0.130679 -10.3038,-0.128411l0 -0.393454c0.848989,-0.526968 4.13893,-1.14436 10.0266,-1.28128z"/>
    <path id="_45298584" class="fil9" d="M10.6476 19.9981c6.06793,-0.121041 10.2264,0.606623 10.7341,1.20417l0 0.189074c-0.551913,0.341863 -5.42616,0.157609 -10.471,0.22309 -4.83683,0.0626466 -9.43384,0.102899 -10.2925,-0.13238l0 -0.270429c0.737302,-0.491818 4.2954,-1.09929 10.0294,-1.21353z"/>
    <path id="_93343392" class="fil10" d="M10.6511 20.1166c6.02881,-0.0966628 10.6496,0.652545 10.6601,1.18972 0.0104883,0.340729 -5.12823,0.187089 -10.411,0.239248 -4.93831,0.0487566 -9.68244,0.0742688 -10.282,-0.134648l0 -0.150522c0.537173,-0.452983 4.44167,-1.05422 10.0328,-1.1438z"/>
    <path id="_45638416" class="fil11" d="M10.6536 20.2348c5.58518,-0.0643474 10.5269,0.598402 10.534,1.05819 0.00708672,0.243783 -5.09818,0.149104 -10.2993,0.183971 -5.20165,0.0348666 -10.2559,0.0436542 -10.2559,-0.144852 0,-0.407628 4.43657,-1.03296 10.0212,-1.09731z"/>
    <path id="_95477456" class="fil12" d="M10.6573 20.3533c5.14099,-0.0323154 10.4036,0.543693 10.407,0.926092 0.00368509,0.146837 -5.06757,0.111403 -10.187,0.128695 -5.11916,0.0175751 -10.1652,0.0099214 -10.1652,-0.107435 0,-0.35632 4.80394,-0.91532 9.94521,-0.947352z"/>
   </g>
   <path id="_119538840" class="fil13" d="M10.6601 20.4718c4.69793,0 10.2811,0.48955 10.2811,0.794563 0,0.0994975 -20.1504,0.0955289 -20.1504,0.00311815 0,-0.305012 5.17217,-0.797681 9.86924,-0.797681z"/>
  </g>
  <path class="fil14" d="M1.66368 3.78034l0.793712 -2.10504c0.163278,-0.365958 0.379848,-0.760546 1.20503,-0.773869l7.21598 0.01389 7.37529 -0.01389c0.508543,0.0172916 1.08568,0.605206 1.03012,0.825177l0.85239 1.68947 0.106584 0.609458c-0.207783,-0.172065 -0.795413,-1.04146 -1.082,-1.04146l-16.5276 -0.0799382c-0.32032,0 -0.759412,0.662183 -0.969463,0.876202z"/>
  <path class="fil15" d="M1.80371 7.69929l-0.00368509 -3.6576c0,-0.2452 0.0986471,-0.470274 0.260508,-0.645742 0.208349,-0.249736 0.554748,-0.408762 0.905115,-0.408762l16.0384 0.0269295c0.62193,0.00170081 1.16562,0.654529 1.15769,1.26229 -0.0439376,3.38773 0.0569772,6.85597 0.0598119,10.246l-18.4136 0.0844737 -0.00793712 -6.83216c0,-0.0249452 0.000850406,-0.0504574 0.00368509,-0.0754027z"/>
  <polygon class="fil16" points="19.9905,3.45038 19.9902,10.1096 18.9133,10.1332 18.9133,3.45038 "/>
  <polygon class="fil16" points="3.14452,3.35173 3.14395,9.93756 1.92192,9.91006 1.92192,3.30128 "/>
  <path class="fil17" d="M19.98 7.12725c0.00226775,2.18157 0.0045355,4.36287 0.00651978,6.54472 -6.13823,0.0274965 -12.2762,0.0552764 -18.4147,0.0833398 -0.00198428,-2.20964 -0.00425203,-4.41871 -0.00623631,-6.62806 2.50983,0.0113387 5.01966,0.022394 7.52949,0.0337328 0.426337,0.0218271 1.50097,0.36284 1.61209,0.522716 0.123309,0.187089 0.408195,-0.40451 1.80853,-0.547094 2.488,-0.00311815 4.97629,-0.00623631 7.4643,-0.00935446z"/>
  <g id="_93173448">
   <path id="_90315144" class="fil18" d="M20.001 7.29478c0.00226775,2.18157 0.0045355,4.36258 0.00651978,6.54444 -6.13823,0.0274965 -12.2759,0.0552764 -18.4144,0.0833398 -0.00198428,-2.20964 -0.00425203,-4.41843 -0.00623631,-6.62778 2.51437,0.0189924 5.02873,0.0374179 7.5431,0.0564103 0.420667,0.036284 1.49615,0.435975 1.60727,0.595851 0.121041,0.190491 0.404226,-0.39884 1.79266,-0.636387 2.49027,-0.0053859 4.98083,-0.0104883 7.4711,-0.0158742z"/>
   <path id="_119525640" class="fil19" d="M20.022 7.4626c0.00226775,2.18157 0.0045355,4.36258 0.00651978,6.54444 -6.13823,0.0274965 -12.2759,0.0552764 -18.4144,0.0833398 -0.00198428,-2.20964 -0.00425203,-4.41843 -0.00623631,-6.62778 2.5189,0.0263626 5.0378,0.0524417 7.55699,0.0788043 0.414715,0.0507409 1.49104,0.50911 1.60216,0.668986 0.119057,0.193893 0.400541,-0.393171 1.77706,-0.725963 2.49254,-0.00737018 4.98536,-0.0144569 7.4779,-0.0218271z"/>
   <path id="_94391096" class="fil20" d="M20.0429 7.63013c0.00226775,2.18157 0.0045355,4.36258 0.00651978,6.54444 -6.13823,0.0274965 -12.2759,0.0552764 -18.4144,0.0833398 -0.00198428,-2.20964 -0.00425203,-4.41843 -0.00623631,-6.62778 2.52344,0.0340162 5.04716,0.0674655 7.5706,0.101198 0.408762,0.0657647 1.48623,0.582811 1.59735,0.742404 0.116789,0.197011 0.39714,-0.387502 1.76147,-0.815256 2.49481,-0.00963793 4.9899,-0.0189924 7.48471,-0.0283469z"/>
   <path id="_124546824" class="fil21" d="M20.0639 7.79765c0.00226775,2.18129 0.0045355,4.36258 0.00651978,6.54416 -6.13823,0.0277799 -12.2759,0.0555599 -18.4144,0.0836232 -0.00198428,-2.20964 -0.00425203,-4.41871 -0.00623631,-6.62778 2.52797,0.0413864 5.05623,0.0824894 7.5842,0.123592 0.403092,0.0802216 1.48141,0.655946 1.59253,0.815539 0.114521,0.200412 0.393454,-0.381832 1.74588,-0.904832 2.49708,-0.0116222 4.99443,-0.022961 7.49151,-0.0342997z"/>
   <path id="_92781184" class="fil22" d="M20.0852 7.96547c0.00198428,2.18157 0.00425203,4.36258 0.00623631,6.54444 -6.13823,0.0274965 -12.2759,0.0552764 -18.4141,0.0833398 -0.00226775,-2.20964 -0.0045355,-4.41843 -0.00651978,-6.62778 2.53279,0.0487566 5.0653,0.0975132 7.59809,0.14627 0.39714,0.0946785 1.4763,0.729081 1.58742,0.888958 0.112537,0.20353 0.389769,-0.376163 1.73001,-0.994408 2.49934,-0.0136065 4.99897,-0.027213 7.49888,-0.0408195z"/>
   <path id="_122559344" class="fil23" d="M20.1061 8.133c0.00198428,2.18129 0.00425203,4.36258 0.00623631,6.54416 -6.13823,0.0277799 -12.2759,0.0555599 -18.4141,0.0836232 -0.00226775,-2.20964 -0.0045355,-4.41871 -0.00651978,-6.62778 2.53733,0.0561268 5.07437,0.112537 7.6117,0.168664 0.39147,0.109135 1.47149,0.802216 1.58261,0.962093 0.110269,0.206932 0.386084,-0.370493 1.71442,-1.08398 2.50161,-0.0155908 5.0035,-0.0311815 7.50568,-0.0467723z"/>
   <path id="_88157200" class="fil24" d="M20.1271 8.30053c0.00198428,2.18129 0.00425203,4.36258 0.00623631,6.54416 -6.13823,0.0277799 -12.2759,0.0555599 -18.4141,0.0836232 -0.00226775,-2.20964 -0.0045355,-4.41871 -0.00651978,-6.62778 2.54186,0.0637804 5.08373,0.127561 7.62531,0.191058 0.385517,0.124159 1.46667,0.875918 1.57779,1.03551 0.107718,0.21005 0.382683,-0.364824 1.69883,-1.17328 2.50388,-0.0178585 5.00804,-0.035717 7.51249,-0.0532921z"/>
   <path id="_88157088" class="fil25" d="M20.1481 8.46834c0.00198428,2.18101 0.00425203,4.36258 0.00623631,6.54416 -6.13823,0.0277799 -12.2759,0.0555599 -18.4141,0.0836232 -0.00226775,-2.20964 -0.0045355,-4.41899 -0.00651978,-6.62778 2.5464,0.0711506 5.0928,0.142585 7.6392,0.213452 0.379564,0.138616 1.46156,0.949053 1.57268,1.10865 0.105734,0.213452 0.378998,-0.359155 1.68324,-1.26285 2.50615,-0.0198428 5.01258,-0.0396856 7.51929,-0.0592449z"/>
  </g>
  <path class="fil26" d="M20.1691 8.63616c0.00198428,2.18129 0.00425203,4.36287 0.00623631,6.54444 -6.13823,0.0277799 -12.2762,0.0555599 -18.4144,0.0836232 -0.00226775,-2.20964 -0.0045355,-4.41899 -0.00651978,-6.62806 2.55093,0.0788043 5.10187,0.157609 7.6528,0.236129 0.373895,0.153073 1.45675,1.02219 1.56786,1.18178 0.10375,0.216853 0.375596,-0.353485 1.66793,-1.35215 2.50841,-0.0221106 5.01711,-0.0439376 7.52609,-0.0657647z"/>
  <path class="fil27" d="M2.00752 4.05417l-0.00963793 -0.00255122c0.0773869,-0.651411 0.452699,-1.14011 1.01085,-1.14861l0 0 15.923 0.0269295 0 -0.000850406 0.00878753 0 0.00170081 0.000850406c0.8385,0 1.24584,1.29659 1.18518,1.63873 0.00935446,0.0844737 0.00765365,0.15364 -0.00481897,0.198995 -0.187373,-0.675789 -0.674372,-0.839634 -1.17044,-0.842185l0 0 -0.009071 0 0 0 -15.923 -0.0269295 0 0c-0.456101,0 -1.00348,0.216853 -1.00348,0.720577l-0.00737018 -0.0175751c0.01389,-0.102899 -0.0167246,-0.258523 -0.00198428,-0.368509l0 -0.00198428 -0.00935446 -0.00255122 0.00651978 -0.0484731c-0.00198428,-0.044788 -0.00226775,-0.0881587 0.00311815,-0.12586z"/>
  <path class="fil28" d="M2.51748 9.54496c0.102616,-0.0323154 0.213452,-0.0498905 0.329107,-0.0498905l6.6411 -0.0368509c-0.000566937,0.0249452 0.0569772,-0.0195593 0.0578276,0.00737018 0.301044,0.310115 1.24811,2.66546 1.19737,3.15132 -0.0507409,0.486149 0.162144,0.311249 0.178869,0.391754 -0.058678,0.197578 -0.218838,-0.243783 -0.274965,-0.600103 -0.0776704,0.548228 -0.122175,1.26994 -0.234145,0.25824 -0.11197,-1.01142 -1.25492,-3.04587 -1.25492,-3.04587 -0.000850406,-0.0269295 -0.000566937,-0.0524417 -0.000283469,-0.0776704l-6.63997 0.00170081z"/>
  <path class="fil28" d="M19.5035 9.4619c-0.102616,-0.032032 -0.213735,-0.049607 -0.329391,-0.049607l-6.74712 -0.0280634c-0.276382,0.309831 -0.506842,0.824894 -0.678057,1.31444 -0.22309,0.637804 -0.560417,1.24868 -0.524133,1.83546 0.0374179,0.600103 -0.0385517,0.311249 -0.0549929,0.391754 0.058678,0.197578 0.094962,-0.243783 0.151089,-0.600103 0.0776704,0.547945 -0.125293,1.26966 -0.013323,0.25824 0.0487566,-0.442495 0.429455,-0.944234 0.742404,-1.5279 0.402242,-0.750341 0.751192,-1.54462 0.751192,-1.54462 0.000850406,-0.0266461 0.000566937,-0.0524417 0.000283469,-0.0773869l6.70205 0.0277799z"/>
  <path class="fil29" d="M1.55426 9.63085c-0.000283469,-0.132947 0.09071,-0.243783 0.183404,-0.299059 0.173199,-0.176034 0.552197,0.0685994 0.844737,0.0685994l6.55351 0.0742688c-0.000566937,0.0249452 0.0158742,-0.00708672 0.0167246,0.0195593 0.710939,1.26597 1.28525,2.02227 1.53923,2.62265 0.452983,1.07066 0.609458,1.12565 0.814689,0.308697 0.148254,-0.591032 0.539441,-1.90973 1.48453,-3.02773l6.34148 -0.00963793c0.519031,-0.000850406 1.0477,-0.54511 1.0409,-0.115088 -0.0654813,3.99776 0.00878753,6.28422 -0.0297642,10.2825 -0.00396856,0.429455 -0.416699,0.790311 -0.924391,0.790311 -6.08777,0 -6.50759,0.00425203 -16.8913,0.00425203 -0.507409,0 -0.922407,-0.355753 -0.924108,-0.790594l-0.049607 -9.92877z"/>
  <path class="fil30" d="M9.31846 9.78477c0.316351,0.545961 0.600953,0.990156 0.835666,1.36717l-8.59307 0 -0.00623631 -1.36717 7.76364 0zm2.6133 1.36717c0.183404,-0.431439 0.429455,-0.906816 0.758562,-1.36717l7.67548 0c-0.00623631,0.463471 -0.0104883,0.918438 -0.01389,1.36717l-8.42015 0z"/>
  <path class="fil31" d="M20.395 18.9771l-0.000850406 0.0714341c-0.00425203,0.430022 -0.416415,0.790877 -0.924391,0.790877 -6.08749,0 -6.50731,0.00425203 -16.8919,0.00425203 -0.507125,0 -0.92269,-0.355186 -0.92269,-0.790027l0 -0.0765365 18.7398 0z"/>
  <path class="fil32" d="M3.8787 20.5279l-0.162711 0c-0.114521,0 -0.229043,-0.00595284 -0.339028,-0.0175751l0 0.0175751 -0.162994 0c-0.225924,0 -0.447313,-0.0235279 -0.644041,-0.0663317 -0.347816,-0.170365 -0.805618,-0.408762 -0.805618,-0.67012 0,-5.81252 -0.0102049,-10.1604 -0.0102049,-10.2165l0.0734184 -0.103183c0.0308981,-0.0187089 0.29339,-0.0337328 0.312666,-0.0479062 0.112821,0.00170081 0.236129,0.009071 0.360856,0.0209767 0.0674655,-0.00765365 0.132096,-0.0144569 0.140884,-0.0209767 0.167246,0.00255122 0.354903,0.0201263 0.540008,0.0385517l-0.0119057 0.0158742 -0.242082 0c-0.0396856,0.0521582 0.168664,0.0941116 0.0822059,0.15279 0.00283469,0.577709 0.0102049,4.85327 0.0102049,10.1604 0,0.172349 0.149671,0.331658 0.387502,0.446747 0.130396,0.0654813 0.290555,0.116789 0.470841,0.151089l0 0.138616z"/>
  <path class="fil32" d="M18.1213 20.3122l0.167813 0c0.120191,0 0.239248,-0.00510244 0.353485,-0.0175751l0.0382683 0c0.236129,0 0.463188,-0.0235279 0.668986,-0.0663317 0.36284,-0.168947 0.836799,-0.407344 0.836799,-0.669269 0,-5.81196 0.009071,-10.1796 0.009071,-10.2361l-0.0745522 -0.103183c-0.032032,-0.0184255 -0.30643,-0.0334493 -0.323154,-0.0479062 -0.120474,0.00170081 -0.248602,0.0110553 -0.379564,0.0218271l-0.0121892 -0.00425203c-0.175184,0.00255122 -0.368793,0.0201263 -0.560984,0.0388352l0.0121892 0.0158742 0.250019 0c0.041103,0.0521582 -0.175184,0.0941116 -0.0867414,0.15279 -0.00311815,0.577709 -0.00935446,4.87311 -0.00935446,10.1796 0,0.172916 -0.153923,0.331658 -0.399124,0.446747 -0.137199,0.0654813 -0.305012,0.115939 -0.490968,0.151089l0 0.137766z"/>
  <path class="fil33" d="M6.44012 9.2819c0.696199,0.624765 1.50295,1.82044 1.65914,3.2426l0 7.68654 2.50445 0.0351501 0.0354336 0 0.00510244 0 0.283752 0 0.00510244 0 0.0351501 0 0.00510244 0 0.0360005 0 0.00510244 0 0.0360005 0 2.80776 0.000850406 0 -7.68654c0.156191,-1.42216 0.953872,-2.64363 1.65007,-3.26839 -0.510527,0 -1.73908,0 -2.24961,0 0,0.0232444 -0.395155,0.0470558 -0.396289,0.072001 0,0 -0.497771,0.896044 -0.852107,1.74815 -0.15449,0.316634 -0.780956,0.63497 -0.828862,1.03041l0.204097 0.0141734 -0.210617 0.0308981 0.201263 0.0430872 -0.207216 0.0124726c-0.0739853,0.544827 -0.137766,0.189641 -0.208066,-0.235846l-0.0102049 0.0637804 -0.009071 -0.0637804c-0.0739853,0.436542 -0.386368,0.799382 -0.462054,0.189641l-0.000566937 -0.00935446c-0.00623631,-0.0737018 -0.0187089,-0.15364 -0.036284,-0.237547l-0.00170081 -0.00481897c-0.0402525,-0.210901 -0.101482,-0.401392 -0.178018,-0.585363 -0.295658,-0.919289 -1.73369,-1.76317 -1.80173,-1.76403 -0.000850406,-0.0252287 -0.36369,-0.0569772 -0.36369,-0.0805051 -0.510527,0 -1.14691,-0.233578 -1.65744,-0.233578z"/>
  <path class="fil34" d="M7.44247 9.31846c0.696199,0.624481 1.50238,1.81959 1.65886,3.24203l0 8.38217m3.80982 0l0 -8.38217c0.156191,-1.42245 0.953872,-2.64391 1.64979,-3.26868"/>
  <path class="fil35" d="M15.4354 9.68471c0,0 0.756578,-0.12671 1.21041,-0.118773 0.454117,0.00822059 1.03098,0.110553 0.964927,0.125293 -0.142585,0.0317485 -2.07839,0.0651978 -2.17534,-0.00651978z"/>
  <path class="fil36" d="M7.14341 10.0552l-0.0623631 -0.0297642 -5.0653 -0.0130396 -0.0924108 0c-0.243783,-0.376163 -0.490117,-0.609174 -0.0377013,-1.01198 1.75382,0 3.6301,0.013323 5.41964,0.0121892l0.225924 0.0552764 -0.385801 0.975416 -0.00198428 0.0119057zm6.97418 -1.03353c1.93439,0.00878753 4.14034,-0.0212601 5.94462,-0.0212601l0.166396 0.156191c0.208633,0.305863 -0.0127561,0.890375 -0.27298,0.890375l-5.24757 -0.0141734c-0.337611,-0.363407 -0.380698,-0.315784 -0.590465,-1.01113z"/>
  <path class="fil37" d="M7.07056 9.69179l0.331091 -0.598686 2.25017 0.377864 0 -0.00935446 0.0445046 0.0535756c-0.0184255,0.085891 -0.12501,0.46007 -0.18142,0.529236l-2.4812 -0.314083c0.0110553,-0.0127561 0.0235279,-0.0260791 0.0368509,-0.0385517z"/>
  <path class="fil37" d="M14.9918 9.69179l-0.330808 -0.598686 -2.25017 0.377864 0 -0.00935446 -0.0445046 0.0535756c0.0184255,0.085891 0.12501,0.46007 0.18142,0.529236l2.48092 -0.314083c-0.0110553,-0.0127561 -0.0235279,-0.0260791 -0.0368509,-0.0385517z"/>
  <g id="_88413896">
   <polygon id="_94348368" class="fil38" points="10.6323,18.0731 12.0128,18.0731 12.0128,18.6673 10.6323,18.6673 "/>
   <rect id="_91992480" class="fil39" x="10.6406" y="17.9322" width="1.39246" height="0.359786"/>
  </g>
  <path class="fil40" d="M10.659 15.7487c0.0178585,0.0481897 0.0360005,0.0966628 0.0541425,0.145136 0,0.00368509 0,0.00708672 0,0.0110553 0.0640639,0 0.128411,0 0.192759,0 0,-0.00396856 0,-0.00737018 0,-0.0110553 0,-0.0243783 0,-0.0484731 0,-0.072568 0.094962,0 0.189924,0 0.285169,0 0,0.0240948 0,0.0481897 0,0.072568 0,0.137482 0,0.275248 0,0.413014 0,0.0240948 0,0.0481897 0,0.072568 -0.00141734,0 -0.00255122,0 -0.00396856,0 0,-0.0243783 0,-0.0484731 0,-0.072568 0,-0.106017 0,-0.212035 0,-0.318052 -0.0952455,0 -0.190491,0 -0.285453,0 0,0.00368509 0,0.00737018 0,0.0113387 0,0.0240948 0,0.0481897 0,0.0722845 -0.0643474,0 -0.128411,0 -0.192759,0 0,-0.00368509 0,-0.00737018 0,-0.0110553 -0.018142,-0.0484731 -0.0360005,-0.0966628 -0.053859,-0.145136 -0.199278,0 -0.398273,0 -0.597552,0 0,-0.0240948 0,-0.0481897 0,-0.0722845 0,-0.00765365 0,-0.0153073 0,-0.0226775 0,-0.0243783 0,-0.0484731 0,-0.072568 0.200412,0 0.400825,0 0.60152,0zm0.246901 0.167813c-0.00141734,0 -0.00283469,0 -0.00425203,0 0,0.0201263 0,0.040536 0,0.0609458 0.00141734,0 0.00283469,0 0.00425203,0 0,-0.0204097 0,-0.0408195 0,-0.0609458z"/>
  <path class="fil41" d="M10.7361 14.8455l0.0382683 0.102616 0.0501739 0 0 -0.00170081 0 -0.0819224 0.0819224 0 0.285453 0 0.0819224 0 0 0.0819224 0 0.485582 0 0.0819224 -0.0819224 0 -0.285453 0 -0.0819224 0 0 -0.0819224 0 -0.00198428 -0.0527252 0 -0.0348666 0.101198 -0.0195593 0.0552764 -0.0575441 0 -0.60152 0 -0.0819224 0 0 -0.0819224 0 -0.630718 0 -0.0819224 0.0819224 0 0.60152 0 0.0561268 0 0.0201263 0.0535756zm-0.104033 0.186806l-0.0286303 -0.0765365 -0.463188 0 0 0.466873 0.461487 0 0.0351501 -0.100915 0.0189924 -0.0552764 0.0578276 0 0.192759 0 0.0819224 0 0 0.0819224 0 0.00170081 0.121608 0 0 -0.321737 -0.121608 0 0 0.00170081 0 0.0819224 -0.0819224 0 -0.192759 0 -0.081639 0 0 -0.0796547z"/>
  <polygon class="fil42" points="10.6598,14.8739 10.7137,15.019 10.7137,15.0301 10.9065,15.0301 10.9065,14.9465 11.1919,14.9465 11.1919,15.432 10.9065,15.432 10.9065,15.3484 10.7137,15.3484 10.6598,15.5046 10.0583,15.5046 10.0583,14.8739 "/>
  <path class="fil40" d="M10.6556 14.8779l0.0541425 0.145136 0 0.0110553 0.192475 0 0 -0.0110553 0 -0.072568 0.285453 0 0 0.072568 0 0.413014 0 0.072568 -0.00396856 0 0 -0.072568 0 -0.317768 -0.285453 0 0 0.0110553 0 0.072568 -0.192759 0 0 -0.0113387 -0.0541425 -0.144852 -0.597268 0 0 -0.072568 0 -0.0226775 0 -0.072568 0.60152 0zm0.246618 0.167813l-0.00396856 0 0 0.0609458 0.00396856 0 0 -0.0609458z"/>
  <path class="fil43" d="M11.1185 17.63c-0.0127561,0.0340162 -0.0255122,0.0683159 -0.0382683,0.102616 -0.0167246,0 -0.0334493,0 -0.0504574,0 0,-0.000566937 0,-0.00113387 0,-0.00170081 0,-0.0274965 0,-0.0547094 0,-0.0819224 -0.027213,0 -0.054426,0 -0.081639,0 -0.094962,0 -0.190207,0 -0.285453,0 -0.027213,0 -0.054426,0 -0.0819224,0 0,0.027213 0,0.054426 0,0.0819224 0,0.161861 0,0.323721 0,0.485582 0,0.027213 0,0.054426 0,0.0819224 0.0274965,0 0.0547094,0 0.0819224,0 0.0952455,0 0.190491,0 0.285453,0 0.027213,0 0.054426,0 0.081639,0 0,-0.0274965 0,-0.0547094 0,-0.0819224 0,-0.000850406 0,-0.00141734 0,-0.00198428 0.0178585,0 0.0354336,0 0.0530086,0 0.0119057,0.0337328 0.0235279,0.0671821 0.0348666,0.100915 0.00680325,0.0184255 0.0130396,0.0371344 0.0195593,0.0555599 0.0192759,0 0.0385517,0 0.0575441,0 0.200696,0 0.401108,0 0.60152,0 0.0274965,0 0.0547094,0 0.0819224,0 0,-0.0274965 0,-0.0547094 0,-0.0819224 0,-0.210334 0,-0.420384 0,-0.630718 0,-0.0274965 0,-0.0547094 0,-0.0819224 -0.027213,0 -0.054426,0 -0.0819224,0 -0.200412,0 -0.400825,0 -0.60152,0 -0.0187089,0 -0.0374179,0 -0.0561268,0 -0.00651978,0.0178585 -0.013323,0.035717 -0.0201263,0.0535756zm0.104033 0.186522c0.00963793,-0.0252287 0.0192759,-0.0507409 0.0286303,-0.0762531 0.15449,0 0.308981,0 0.463188,0 0,0.155624 0,0.311249 0,0.466873 -0.153923,0 -0.307847,0 -0.461487,0 -0.0116222,-0.0337328 -0.0232444,-0.0671821 -0.0351501,-0.100915 -0.00623631,-0.0184255 -0.0127561,-0.0371344 -0.0189924,-0.0552764 -0.0192759,0 -0.0385517,0 -0.0581111,0 -0.0640639,0 -0.128128,0 -0.192475,0 -0.027213,0 -0.054426,0 -0.0819224,0 0,0.027213 0,0.054426 0,0.081639 0,0.000850406 0,0.00141734 0,0.00198428 -0.040536,0 -0.081072,0 -0.121608,0 0,-0.107151 0,-0.214586 0,-0.321737 0.040536,0 0.081072,0 0.121608,0 0,0.000566937 0,0.00113387 0,0.00170081 0,0.027213 0,0.054426 0,0.0819224 0.0274965,0 0.0547094,0 0.0819224,0 0.0643474,0 0.128411,0 0.192475,0 0.0274965,0 0.0547094,0 0.0819224,0 0,-0.0266461 0,-0.0532921 0,-0.0799382z"/>
  <path class="fil42" d="M11.1947 17.6584c-0.0178585,0.0481897 -0.0360005,0.0966628 -0.0541425,0.144852 0,0.00368509 0,0.00737018 0,0.0113387 -0.0640639,0 -0.128128,0 -0.192475,0 0,-0.0280634 0,-0.0558433 0,-0.0836232 -0.094962,0 -0.190207,0 -0.285453,0 0,0.161861 0,0.323721 0,0.485582 0.0952455,0 0.190491,0 0.285453,0 0,-0.0280634 0,-0.0558433 0,-0.0839067 0.0643474,0 0.128411,0 0.192475,0 0.018142,0.0521582 0.036284,0.104316 0.0541425,0.156475 0.200696,0 0.401108,0 0.60152,0 0,-0.210334 0,-0.420384 0,-0.630718 -0.200412,0 -0.400825,0 -0.60152,0z"/>
  <path class="fil40" d="M11.1987 17.6624c-0.0178585,0.0481897 -0.035717,0.0963793 -0.053859,0.144852 0,0.00368509 0,0.00737018 0,0.0113387 -0.0640639,0 -0.128411,0 -0.192759,0 0,-0.00396856 0,-0.00765365 0,-0.0113387 0,-0.0240948 0,-0.0481897 0,-0.0722845 -0.094962,0 -0.190207,0 -0.285453,0 0,0.0240948 0,0.0481897 0,0.0722845 0,0.137766 0,0.275248 0,0.413297 0,0.0240948 0,0.0481897 0,0.0722845 0.00141734,0 0.00283469,0 0.00425203,0 0,-0.0240948 0,-0.0481897 0,-0.0722845 0,-0.106017 0,-0.212035 0,-0.318052 0.094962,0 0.190207,0 0.285169,0 0,0.00368509 0,0.00737018 0,0.0110553 0,0.0243783 0,0.0484731 0,0.072568 0.0643474,0 0.128695,0 0.192759,0 0,-0.00396856 0,-0.00765365 0,-0.0113387 0.018142,-0.0484731 0.0360005,-0.0966628 0.0541425,-0.144852 0.199278,0 0.398273,0 0.597268,0 0,-0.0240948 0,-0.0481897 0,-0.072568 0,-0.00765365 0,-0.0150238 0,-0.0226775 0,-0.0240948 0,-0.0481897 0,-0.0722845 -0.200412,0 -0.400825,0 -0.60152,0zm-0.246618 0.16753c0.00141734,0 0.00283469,0 0.00396856,0 0,0.0204097 0,0.0408195 0,0.0609458 -0.00113387,0 -0.00255122,0 -0.00396856,0 0,-0.0201263 0,-0.040536 0,-0.0609458z"/>
  <path class="fil41" d="M11.125 15.0281l-0.0382683 0.102616 -0.0501739 0 0 -0.00170081 0 -0.0819224 -0.0819224 0 -0.285453 0 -0.0819224 0 0 0.0819224 0 0.485582 0 0.0819224 0.0819224 0 0.285453 0 0.0819224 0 0 -0.0819224 0 -0.00198428 0.0527252 0 0.0351501 0.100915 0.0192759 0.0555599 0.0575441 0 0.60152 0 0.0819224 0 0 -0.0819224 0 -0.630718 0 -0.0819224 -0.0819224 0 -0.60152 0 -0.0561268 0 -0.0201263 0.0535756zm0.104033 0.186522l0.0286303 -0.0765365 0.463188 0 0 0.467156 -0.461487 0 -0.0351501 -0.100915 -0.0189924 -0.0555599 -0.0578276 0 -0.192759 0 -0.0819224 0 0 0.0819224 0 0.00198428 -0.121608 0 0 -0.321737 0.121608 0 0 0.00170081 0 0.081639 0.0819224 0 0.192759 0 0.081639 0 0 -0.0796547z"/>
  <polygon class="fil42" points="11.2013,15.0564 11.1474,15.2013 11.1474,15.2126 10.9546,15.2126 10.9546,15.129 10.6692,15.129 10.6692,15.6146 10.9546,15.6146 10.9546,15.5307 11.1474,15.5307 11.2013,15.6872 11.8028,15.6872 11.8028,15.0564 "/>
  <path class="fil40" d="M11.2055 15.0604l-0.053859 0.144852 0 0.0113387 -0.192759 0 0 -0.0113387 0 -0.0722845 -0.285453 0 0 0.0722845 0 0.413297 0 0.0722845 0.00396856 0 0 -0.0722845 0 -0.318052 0.285453 0 0 0.0113387 0 0.0722845 0.192759 0 0 -0.0110553 0.0541425 -0.145136 0.597268 0 0 -0.0722845 0 -0.022961 0 -0.0722845 -0.60152 0zm-0.246618 0.167813l0.00396856 0 0 0.0606623 -0.00396856 0 0 -0.0606623z"/>
  <path class="fil44" d="M9.94493 13.7729l1.87288 0c0.197011,0 0.848138,-0.479629 0.872233,-0.297926l0.364541 6.36585c0.0104883,0.180853 -0.2435,0.416982 -0.438809,0.415565l-3.33302 0.0195593c-0.193893,0.000850406 -0.375596,-0.151656 -0.358021,-0.335343l0.618812 -6.38485c0.0175751,-0.183404 0.204381,0.217137 0.401392,0.217137z"/>
  <path class="fil45" d="M10.0433 11.595l2.10362 0 0.00170081 0c0.261925,0 0.498338,0.116506 0.666718,0.294524l0.00170081 -0.00170081c0.170932,0.179719 0.274681,0.431723 0.273831,0.702719l0.00255122 0 0 0.00170081 -0.00255122 0 0 0.00425203 -0.0422368 5.34083 0 0.00595284c-0.00226775,0.268728 -0.108568,0.51733 -0.273831,0.693648 -0.170081,0.181987 -0.408195,0.297926 -0.67012,0.297926l-2.10362 0 -0.00170081 0c-0.257956,0 -0.49522,-0.114238 -0.665301,-0.293673l-0.00170081 0.00141734c-0.16838,-0.177168 -0.275532,-0.424636 -0.274681,-0.703569l-0.00226775 0 0 -0.00170081 0.00226775 0 0 -0.00396856 0.0422368 -5.34112 0 -0.00566937c0.00255122,-0.268728 0.107151,-0.518181 0.272413,-0.694498 0.171782,-0.183121 0.409045,-0.297075 0.67097,-0.297075zm1.69968 1.42046l-1.298 0 -0.00623631 2.11184 0.00141734 0 1.29233 -0.0178585 0.00226775 0 0.00170081 0 0.00651978 -2.09398zm-0.470558 2.77091l-0.352068 0.00425203 -0.0153073 0.208916 0.382683 -0.00680325 -0.0153073 -0.206365z"/>
  <path class="fil39" d="M10.2049 12.3054l1.57694 0c0.11197,0 0.202964,0.13323 0.202964,0.287154l-0.0124726 5.11718c0,0.15279 -0.0941116,0.287154 -0.202964,0.287154l-1.57694 0c-0.108285,0 -0.202964,-0.129262 -0.202397,-0.287154l0.0124726 -5.11718c0.000566937,-0.158175 0.0909934,-0.287154 0.202397,-0.287154z"/>
  <path class="fil40" d="M10.2584 12.8987l1.42103 0c0.149671,0 0.27213,0.123876 0.27213,0.274681 0,6.33637 -0.0164412,5.31674 -0.0164412,0.231877 0,-0.150805 -0.122458,-0.274681 -0.271846,-0.274681l-1.42131 0c-0.117073,0 -0.21742,0.0759696 -0.255405,0.181136l0 -0.138333c0,-0.151089 0.122175,-0.274681 0.271846,-0.274681z"/>
  <polygon class="fil43" points="10.0127,16.0378 11.9595,16.0378 11.9595,17.0759 10.0127,17.0759 "/>
  <path class="fil46" d="M21.0138 8.7555l0 10.5141c0,0.452699 -0.185955,0.865713 -0.484731,1.16449 -0.298209,0.298209 -0.711223,0.484731 -1.16421,0.484731l-16.7212 0c-0.453266,0 -0.865997,-0.185955 -1.16449,-0.484448 -0.298492,-0.298492 -0.484164,-0.711223 -0.484164,-1.16477l0 -10.5141 1.00008 0 0 10.5141c0,0.177735 0.0734184,0.340162 0.191058,0.457802 0.117639,0.117639 0.280067,0.191341 0.457518,0.191341l16.7212 0c0.176884,0 0.339595,-0.0739853 0.457235,-0.191625 0.117923,-0.117923 0.191625,-0.280634 0.191625,-0.457518l0 -10.5141 1.00008 0z"/>
  <path class="fil47" d="M11.2047 -0.0113387l-0.462054 0 -6.69099 0c-0.453266,0 -0.865997,0.185955 -1.16449,0.484448 -0.682026,0.682026 -1.32918,2.53591 -1.89215,3.44981l0 5.10215 1.00008 0 0 -5.10215c0.46007,-0.74694 1.02417,-2.16797 1.59905,-2.74284 0.117639,-0.117639 0.280067,-0.191341 0.457518,-0.191341l6.69099 0 0.462054 0 6.69099 0c0.177451,0 0.339879,0.0737018 0.457518,0.191341 0.574874,0.574874 1.13898,1.9959 1.59905,2.74284l0 5.10215 1.00008 0 0 -5.10215c-0.562969,-0.913903 -1.21013,-2.76779 -1.89215,-3.44981 -0.298492,-0.298492 -0.711223,-0.484448 -1.16449,-0.484448l-6.69099 0z"/>
  <rect class="fil48" x="9.93844" y="9.98745" width="2.1726" height="3.03793"/>
  <rect class="fil40" x="10.0162" y="10.0629" width="1.96854" height="0.936864"/>
  <polygon class="fil43" points="10.0631,10.9748 12.01,10.9748 12.01,12.0128 10.0631,12.0128 "/>
  <polygon class="fil40" points="10.0631,13.0509 12.01,13.0509 12.01,14.089 10.0631,14.089 "/>
  <polygon class="fil49" points="10.0124,13.9115 11.9593,13.9115 11.9593,14.9496 10.0124,14.9496 "/>
 </g>
</svg>
