<?xml version="1.0" encoding="UTF-8" standalone="no"?>
<!-- Created with Inkscape (http://www.inkscape.org/) -->

<svg
   xmlns:dc="http://purl.org/dc/elements/1.1/"
   xmlns:cc="http://creativecommons.org/ns#"
   xmlns:rdf="http://www.w3.org/1999/02/22-rdf-syntax-ns#"
   xmlns:svg="http://www.w3.org/2000/svg"
   xmlns="http://www.w3.org/2000/svg"
   xmlns:sodipodi="http://sodipodi.sourceforge.net/DTD/sodipodi-0.dtd"
   xmlns:inkscape="http://www.inkscape.org/namespaces/inkscape"
   width="22"
   height="22"
   id="svg2"
   version="1.1"
   inkscape:version="0.48.3.1 r9886"
   sodipodi:docname="22.svg">
  <defs
     id="defs4">
    <linearGradient
       gradientTransform="translate(6.751,4.5)"
       y2="7.5"
       x2="0"
       y1="0"
       x1="0"
       gradientUnits="userSpaceOnUse"
       id="LinearGradient_9-95">
      <stop
         id="stop152202"
         stop-color="#eeeeee"
         offset="0" />
      <stop
         id="stop152204"
         stop-color="#ffffff"
         offset="1" />
    </linearGradient>
    <linearGradient
       gradientTransform="translate(5.321,13.058)"
       y2="0"
       x2="6.611"
       y1="0"
       x1="0"
       gradientUnits="userSpaceOnUse"
       id="LinearGradient_8-103">
      <stop
         id="stop152195"
         stop-color="#e1f6b3"
         offset="0" />
      <stop
         id="stop152197"
         stop-color="#ffffff"
         offset="0.499931275844574" />
      <stop
         id="stop152199"
         stop-color="#e1f6b3"
         offset="1" />
    </linearGradient>
    <linearGradient
       gradientTransform="matrix(0,-1,1,0,7.62,13.5)"
       y2="0"
       x2="9.333"
       y1="0"
       x1="0"
       gradientUnits="userSpaceOnUse"
       id="LinearGradient_7-015">
      <stop
         id="stop152190"
         stop-color="#bfe26e"
         offset="0" />
      <stop
         id="stop152192"
         stop-color="#9dc444"
         offset="1" />
    </linearGradient>
    <linearGradient
       gradientTransform="matrix(0,-1,1,0,7.899,14.25)"
       y2="0"
       x2="9.863"
       y1="0"
       x1="0"
       gradientUnits="userSpaceOnUse"
       id="LinearGradient_6-908">
      <stop
         id="stop152185"
         stop-color="#9dbb65"
         offset="0" />
      <stop
         id="stop152187"
         stop-color="#92b63e"
         offset="1" />
    </linearGradient>
    <linearGradient
       gradientTransform="matrix(-0.0186181,0.99982667,-1.0001128,-0.00325016,15.425,2.51)"
       y2="0"
       x2="11.709"
       y1="0"
       x1="0"
       gradientUnits="userSpaceOnUse"
       id="LinearGradient_5-30">
      <stop
         id="stop152178"
         stop-color="#ededed"
         offset="0" />
      <stop
         id="stop152180"
         stop-color="#ffffff"
         offset="0.666675209999084" />
      <stop
         id="stop152182"
         stop-color="#ffffff"
         offset="1" />
    </linearGradient>
    <linearGradient
       gradientTransform="matrix(-0.99994314,0.01066376,-0.00838452,-0.99996745,15.751,7.459)"
       y2="0"
       x2="1.5"
       y1="0"
       x1="0"
       gradientUnits="userSpaceOnUse"
       id="LinearGradient_4-66">
      <stop
         id="stop152171"
         stop-color="#dee0e1"
         offset="0" />
      <stop
         id="stop152173"
         stop-color="#949da2"
         offset="0.666695713996887" />
      <stop
         id="stop152175"
         stop-color="#8b8b8b"
         offset="1" />
    </linearGradient>
    <linearGradient
       gradientTransform="matrix(0,-1,1,0,15.045,16.24)"
       y2="0"
       x2="14.942"
       y1="0"
       x1="0"
       gradientUnits="userSpaceOnUse"
       id="LinearGradient_3-47">
      <stop
         id="stop152166"
         stop-color="#b0b0b0"
         offset="0" />
      <stop
         id="stop152168"
         stop-color="#818689"
         offset="1" />
    </linearGradient>
    <linearGradient
       gradientTransform="matrix(0.0186181,0.99982667,-1.0001128,0.00325016,1.077,2.51)"
       y2="0"
       x2="11.709"
       y1="0"
       x1="0"
       gradientUnits="userSpaceOnUse"
       id="LinearGradient_2-057">
      <stop
         id="stop152159"
         stop-color="#ededed"
         offset="0" />
      <stop
         id="stop152161"
         stop-color="#ffffff"
         offset="0.666675209999084" />
      <stop
         id="stop152163"
         stop-color="#ffffff"
         offset="1" />
    </linearGradient>
    <linearGradient
       gradientTransform="matrix(0.99994312,0.01066606,-0.00838682,0.99996743,0.751,7.459)"
       y2="0"
       x2="1.5"
       y1="0"
       x1="0"
       gradientUnits="userSpaceOnUse"
       id="LinearGradient_1-49">
      <stop
         id="stop152152"
         stop-color="#dee0e1"
         offset="0" />
      <stop
         id="stop152154"
         stop-color="#949da2"
         offset="0.666695713996887" />
      <stop
         id="stop152156"
         stop-color="#8b8b8b"
         offset="1" />
    </linearGradient>
    <linearGradient
       gradientTransform="matrix(0,-1,1,0,1.457,16.24)"
       y2="0"
       x2="14.942"
       y1="0"
       x1="0"
       gradientUnits="userSpaceOnUse"
       id="LinearGradient-392">
      <stop
         id="stop152147"
         stop-color="#b0b0b0"
         offset="0" />
      <stop
         id="stop152149"
         stop-color="#818689"
         offset="1" />
    </linearGradient>
  </defs>
  <sodipodi:namedview
     id="base"
     pagecolor="#ffffff"
     bordercolor="#666666"
     borderopacity="1.0"
     inkscape:pageopacity="0.0"
     inkscape:pageshadow="2"
     inkscape:zoom="17.586495"
     inkscape:cx="11.157354"
     inkscape:cy="10.912138"
     inkscape:document-units="px"
     inkscape:current-layer="layer1"
     showgrid="false"
     inkscape:snap-global="false"
     inkscape:window-width="875"
     inkscape:window-height="593"
     inkscape:window-x="507"
     inkscape:window-y="329"
     inkscape:window-maximized="0" />
  <metadata
     id="metadata7">
    <rdf:RDF>
      <cc:Work
         rdf:about="">
        <dc:format>image/svg+xml</dc:format>
        <dc:type
           rdf:resource="http://purl.org/dc/dcmitype/StillImage" />
        <dc:title />
      </cc:Work>
    </rdf:RDF>
  </metadata>
  <g
     inkscape:label="Layer 1"
     inkscape:groupmode="layer"
     id="layer1"
     transform="translate(0,-1030.3622)">
    <g
       style="fill-rule:evenodd;stroke-width:0.50099999;stroke-linejoin:bevel;overflow:visible"
       id="g152345"
       transform="matrix(1.3331717,0,0,1.3333333,0,1030.3622)">
      <g
         transform="scale(1,-1)"
         font-size="16"
         id="Document"
         style="font-size:16px;fill:none;stroke:#000000;font-family:Times New Roman">
        <g
           transform="translate(0,-16.5)"
           id="Spread">
          <g
             id="MouseOff">
            <g
               id="Group"
               style="stroke:none">
              <g
                 id="Group_1">
                <g
                   stroke-miterlimit="79.8403193612775"
                   id="Group_2">
                  <path
                     id="path152212"
                     d="M 2.626,0.75 C 4.075,0.75 5.252,0.582 5.252,0.375 5.252,0.168 4.075,0 2.626,0 1.177,0 0,0.168 0,0.375 0,0.582 1.177,0.75 2.626,0.75 z"
                     inkscape:connector-curvature="0"
                     style="fill:#191919;fill-opacity:0.2;marker-start:none;marker-end:none" />
                  <path
                     style="fill:url(#LinearGradient-392);marker-start:none;marker-end:none"
                     id="path152214"
                     d="m 0.001,0.26 0,15.98 c 0,0.143 0.616,0.26 1.374,0.26 0.759,0 1.376,-0.117 1.376,-0.26 0,0 -10e-4,0 -10e-4,-10e-4 l 0,-15.978 C 2.75,0.26 2.751,0.26 2.751,0.26 2.751,0.116 2.134,0 1.375,0 0.618,0 0.002,0.116 0.001,0.26 z"
                     inkscape:connector-curvature="0" />
                  <path
                     style="fill:url(#LinearGradient_1-49);marker-start:none;marker-end:none"
                     id="path152216"
                     d="M 0.967,0.796 C 0.888,0.811 0.83,0.829 0.788,0.845 l -0.037,0.014 0,14.779 0.037,0.016 c 0.042,0.016 0.1,0.034 0.179,0.05 0.144,0.025 0.329,0.046 0.534,0.046 0.206,0 0.39,-0.021 0.535,-0.046 0.079,-0.016 0.137,-0.034 0.178,-0.05 L 2.251,15.638 2.251,0.859 2.214,0.845 C 2.173,0.829 2.115,0.811 2.036,0.796 1.891,0.769 1.707,0.75 1.501,0.75 1.297,0.75 1.111,0.769 0.967,0.796 z"
                     inkscape:connector-curvature="0" />
                  <path
                     style="fill:url(#LinearGradient_2-057);marker-start:none;marker-end:none"
                     id="path152218"
                     d="m 0.882,13.969 0,-11.438 C 0.882,2.375 1.138,2.25 1.45,2.25 l 0.234,0 c 0.312,0 0.567,0.125 0.567,0.281 l 0,11.438 c 0,0.156 -0.255,0.281 -0.567,0.281 l -0.234,0 c -0.312,0 -0.568,-0.125 -0.568,-0.281 z"
                     inkscape:connector-curvature="0" />
                  <path
                     id="path152220"
                     d="m 1.501,13.964 0,-11.429 C 1.501,2.378 1.668,2.25 1.876,2.25 l 0,0 c 0.207,0 0.375,0.128 0.375,0.285 l 0,11.429 c 0,0.158 -0.168,0.286 -0.375,0.286 l 0,0 c -0.208,0 -0.375,-0.128 -0.375,-0.286 z"
                     inkscape:connector-curvature="0"
                     style="fill:#838181;marker-start:none;marker-end:none" />
                  <path
                     id="path152222"
                     d="m 1.502,15.75 c 0.414,0 0.75,-0.168 0.75,-0.375 C 2.252,15.168 1.916,15 1.502,15 c -0.414,0 -0.75,0.168 -0.75,0.375 0,0.207 0.336,0.375 0.75,0.375 z"
                     inkscape:connector-curvature="0"
                     style="fill:#ffffff;marker-start:none;marker-end:none" />
                  <path
                     id="path152224"
                     d="m 1.502,1.5 c 0.414,0 0.75,-0.168 0.75,-0.375 0,-0.207 -0.336,-0.375 -0.75,-0.375 -0.414,0 -0.75,0.168 -0.75,0.375 0,0.207 0.336,0.375 0.75,0.375 z"
                     inkscape:connector-curvature="0"
                     style="fill:#ffffff;marker-start:none;marker-end:none" />
                </g>
                <g
                   stroke-miterlimit="79.8403193612775"
                   id="Group_3">
                  <path
                     id="path152227"
                     d="M 13.876,0.75 C 12.427,0.75 11.25,0.582 11.25,0.375 11.25,0.168 12.427,0 13.876,0 c 1.449,0 2.626,0.168 2.626,0.375 0,0.207 -1.177,0.375 -2.626,0.375 z"
                     inkscape:connector-curvature="0"
                     style="fill:#191919;fill-opacity:0.2;marker-start:none;marker-end:none" />
                  <path
                     style="fill:url(#LinearGradient_3-47);marker-start:none;marker-end:none"
                     id="path152229"
                     d="m 16.501,0.26 0,15.98 c 0,0.143 -0.616,0.26 -1.374,0.26 -0.759,0 -1.376,-0.117 -1.376,-0.26 0,0 0.001,0 0.001,-10e-4 l 0,-15.978 C 13.752,0.26 13.751,0.26 13.751,0.26 13.751,0.116 14.368,0 15.127,0 15.884,0 16.5,0.116 16.501,0.26 z"
                     inkscape:connector-curvature="0" />
                  <path
                     style="fill:url(#LinearGradient_4-66);marker-start:none;marker-end:none"
                     id="path152231"
                     d="m 15.535,0.796 c 0.079,0.015 0.137,0.033 0.179,0.049 l 0.037,0.014 0,14.779 -0.037,0.016 c -0.042,0.016 -0.1,0.034 -0.179,0.05 -0.144,0.025 -0.329,0.046 -0.534,0.046 -0.206,0 -0.39,-0.021 -0.535,-0.046 -0.079,-0.016 -0.137,-0.034 -0.178,-0.05 l -0.037,-0.016 0,-14.779 0.037,-0.014 c 0.041,-0.016 0.099,-0.034 0.178,-0.049 0.145,-0.027 0.329,-0.046 0.535,-0.046 0.204,0 0.39,0.019 0.534,0.046 z"
                     inkscape:connector-curvature="0" />
                  <path
                     style="fill:url(#LinearGradient_5-30);marker-start:none;marker-end:none"
                     id="path152233"
                     d="m 15.62,13.969 0,-11.438 C 15.62,2.375 15.364,2.25 15.052,2.25 l -0.234,0 c -0.312,0 -0.567,0.125 -0.567,0.281 l 0,11.438 c 0,0.156 0.255,0.281 0.567,0.281 l 0.234,0 c 0.312,0 0.568,-0.125 0.568,-0.281 z"
                     inkscape:connector-curvature="0" />
                  <path
                     id="path152235"
                     d="m 15.001,13.964 0,-11.429 c 0,-0.157 -0.167,-0.285 -0.375,-0.285 l 0,0 c -0.207,0 -0.375,0.128 -0.375,0.285 l 0,11.429 c 0,0.158 0.168,0.286 0.375,0.286 l 0,0 c 0.208,0 0.375,-0.128 0.375,-0.286 z"
                     inkscape:connector-curvature="0"
                     style="fill:#838181;marker-start:none;marker-end:none" />
                  <path
                     id="path152237"
                     d="m 15,15.75 c -0.414,0 -0.75,-0.168 -0.75,-0.375 C 14.25,15.168 14.586,15 15,15 c 0.414,0 0.75,0.168 0.75,0.375 0,0.207 -0.336,0.375 -0.75,0.375 z"
                     inkscape:connector-curvature="0"
                     style="fill:#ffffff;marker-start:none;marker-end:none" />
                  <path
                     id="path152239"
                     d="m 15.001,1.5 c -0.414,0 -0.75,-0.168 -0.75,-0.375 0,-0.207 0.336,-0.375 0.75,-0.375 0.414,0 0.75,0.168 0.75,0.375 0,0.207 -0.336,0.375 -0.75,0.375 z"
                     inkscape:connector-curvature="0"
                     style="fill:#ffffff;marker-start:none;marker-end:none" />
                </g>
                <path
                   style="fill:url(#LinearGradient_6-908);stroke-width:0.12800001;marker-start:none;marker-end:none"
                   id="path152241"
                   stroke-miterlimit="79.8403193612775"
                   d="m 2.251,14.25 0,-12 12,0 0,12 -12,0 z"
                   inkscape:connector-curvature="0" />
                <path
                   style="fill:url(#LinearGradient_7-015);stroke-width:0.12800001;marker-start:none;marker-end:none"
                   id="path152243"
                   stroke-miterlimit="79.8403193612775"
                   d="m 3.001,3 0,10.5 10.5,0 0,-10.5 -10.5,0 z"
                   inkscape:connector-curvature="0" />
                <path
                   id="path152245"
                   stroke-miterlimit="79.8403193612775"
                   d="m 3,13.5 0,-0.749 10.501,0 0,0.749 L 3,13.5 z"
                   inkscape:connector-curvature="0"
                   style="fill:#e6f9ba;stroke-width:0.213;marker-start:none;marker-end:none" />
                <path
                   style="fill:url(#LinearGradient_8-103);stroke-width:0.213;marker-start:none;marker-end:none"
                   id="path152247"
                   stroke-miterlimit="79.8403193612775"
                   d="m 8.626,13.5 c 1.863,0 3.375,-0.232 3.375,-0.517 0,-0.285 -1.512,-0.517 -3.375,-0.517 -1.863,0 -3.375,0.232 -3.375,0.517 0,0.285 1.512,0.517 3.375,0.517 z"
                   inkscape:connector-curvature="0" />
                <path
                   id="path152249"
                   stroke-miterlimit="79.8403193612775"
                   d="M 3,3.751 3,3 l 10.501,0 0,0.751 -10.501,0 z"
                   inkscape:connector-curvature="0"
                   style="fill:#bede76;stroke-width:0.213;marker-start:none;marker-end:none" />
                <path
                   id="path152251"
                   stroke-miterlimit="79.8403193612775"
                   d="m 3.752,14.249 0,-11.999 -1.501,0 0,11.999 1.501,0 z"
                   inkscape:connector-curvature="0"
                   style="fill:#000000;fill-opacity:0.05490202;stroke-width:0.12800001;marker-start:none;marker-end:none" />
                <path
                   id="path152253"
                   stroke-miterlimit="79.8403193612775"
                   d="m 12.751,14.25 0,-11.999 1.499,0 0,11.999 -1.499,0 z"
                   inkscape:connector-curvature="0"
                   style="fill:#000000;fill-opacity:0.05490202;stroke-width:0.12800001;marker-start:none;marker-end:none" />
                <path
                   id="path152255"
                   stroke-miterlimit="79.8403193612775"
                   d="m 3.001,8.733 0,4.767 10.5,0 0,-4.767 C 11.976,8.425 10.176,8.25 8.251,8.25 6.326,8.25 4.525,8.425 3.001,8.733 z"
                   inkscape:connector-curvature="0"
                   style="fill:#ffffff;fill-opacity:0.164706;stroke-width:0.12800001;marker-start:none;marker-end:none" />
              </g>
              <g
                 stroke-miterlimit="79.8403193612775"
                 id="Group_4">
                <path
                   id="path152258"
                   d="m 11.251,4.5 c 0,0.038 0.002,0.076 0.008,0.115 C 10.87,5.165 10.522,5.272 10.193,5.242 9.798,5.207 9.359,4.973 8.744,4.621 8.2,4.309 7.558,3.935 6.87,3.807 6.147,3.673 5.39,3.811 4.627,4.457 4.609,4.471 4.594,4.487 4.579,4.504 4.554,4.501 4.527,4.5 4.501,4.5 4.087,4.5 3.751,4.836 3.751,5.25 3.751,5.664 4.087,6 4.501,6 4.915,6 5.251,5.664 5.251,5.25 5.251,5.148 5.23,5.051 5.193,4.962 5.749,4.523 6.252,4.455 6.733,4.545 7.272,4.645 7.8,4.944 8.372,5.272 8.89,5.569 9.517,5.934 10.125,5.989 10.724,6.043 11.27,5.81 11.752,5.207 c 0.077,0.028 0.161,0.043 0.249,0.043 0.414,0 0.75,-0.336 0.75,-0.75 0,-0.414 -0.336,-0.75 -0.75,-0.75 -0.414,0 -0.75,0.336 -0.75,0.75 z M 6.892,5.102 5.625,5.604 7.267,7.248 C 7.522,7.126 7.839,7.249 8.049,7.46 8.317,7.727 8.317,8.162 8.049,8.43 7.782,8.697 7.347,8.697 7.08,8.43 6.869,8.219 6.814,7.99 6.936,7.735 l -1.694,-1.65 -0.61,1.313 0.647,0 1.316,2.487 1.939,0.646 L 10.15,8.915 9.505,6.976 6.892,5.748 l 0,-0.646 z m 3.573,4.144 -1.601,1.601 C 8.683,11.029 8.678,11.322 8.856,11.5 l 10e-4,0 c 0.177,0.179 0.64,0.399 0.823,0.217 l 1.599,-1.6 c 0.183,-0.183 0.02,-0.7 -0.16,-0.878 L 11.12,9.238 C 10.941,9.06 10.648,9.064 10.465,9.246 z"
                   inkscape:connector-curvature="0"
                   style="fill:#7d9e33;marker-start:none;marker-end:none" />
                <path
                   style="fill:url(#LinearGradient_9-95);marker-start:none;marker-end:none"
                   id="path152260"
                   d="m 11.251,5.25 c 0,0.038 0.002,0.076 0.008,0.115 C 10.87,5.915 10.522,6.022 10.193,5.992 9.798,5.957 9.359,5.723 8.744,5.371 8.2,5.059 7.558,4.685 6.87,4.557 6.147,4.423 5.39,4.561 4.627,5.207 4.609,5.221 4.594,5.237 4.579,5.254 4.554,5.251 4.527,5.25 4.501,5.25 4.087,5.25 3.751,5.586 3.751,6 c 0,0.414 0.336,0.75 0.75,0.75 C 4.915,6.75 5.251,6.414 5.251,6 5.251,5.898 5.23,5.801 5.193,5.712 5.749,5.273 6.252,5.205 6.733,5.295 7.272,5.395 7.8,5.694 8.372,6.022 8.89,6.319 9.517,6.684 10.125,6.739 10.724,6.793 11.27,6.56 11.752,5.957 11.829,5.985 11.913,6 12.001,6 c 0.414,0 0.75,-0.336 0.75,-0.75 0,-0.414 -0.336,-0.75 -0.75,-0.75 -0.414,0 -0.75,0.336 -0.75,0.75 z M 6.892,5.852 5.625,6.354 7.267,7.998 C 7.522,7.876 7.839,7.999 8.049,8.21 8.317,8.477 8.317,8.912 8.049,9.18 7.782,9.447 7.347,9.447 7.08,9.18 6.869,8.969 6.814,8.74 6.936,8.485 l -1.694,-1.65 -0.61,1.313 0.647,0 1.316,2.487 1.939,0.646 L 10.15,9.665 9.505,7.726 6.892,6.498 l 0,-0.646 z m 3.573,4.144 -1.601,1.601 C 8.683,11.779 8.678,12.072 8.856,12.25 l 10e-4,0 c 0.177,0.179 0.64,0.399 0.823,0.217 l 1.599,-1.6 c 0.183,-0.183 0.02,-0.7 -0.16,-0.878 L 11.12,9.988 C 10.941,9.81 10.648,9.814 10.465,9.996 z"
                   inkscape:connector-curvature="0" />
              </g>
            </g>
          </g>
        </g>
      </g>
    </g>
  </g>
</svg>
