<?xml version="1.0" encoding="UTF-8" standalone="no"?>
<!-- Creator: CorelDRAW -->

<svg
   xmlns:dc="http://purl.org/dc/elements/1.1/"
   xmlns:cc="http://creativecommons.org/ns#"
   xmlns:rdf="http://www.w3.org/1999/02/22-rdf-syntax-ns#"
   xmlns:svg="http://www.w3.org/2000/svg"
   xmlns="http://www.w3.org/2000/svg"
   xmlns:xlink="http://www.w3.org/1999/xlink"
   xmlns:sodipodi="http://sodipodi.sourceforge.net/DTD/sodipodi-0.dtd"
   xmlns:inkscape="http://www.inkscape.org/namespaces/inkscape"
   xml:space="preserve"
   width="20px"
   height="22px"
   style="shape-rendering:geometricPrecision; text-rendering:geometricPrecision; image-rendering:optimizeQuality; fill-rule:evenodd; clip-rule:evenodd"
   viewBox="0 0 19.9985 21.9953"
   id="svg6131"
   version="1.1"
   inkscape:version="0.48.2 r9819"
   sodipodi:docname="certificate_22.svg"><metadata
   id="metadata6210"><rdf:RDF><cc:Work
       rdf:about=""><dc:format>image/svg+xml</dc:format><dc:type
         rdf:resource="http://purl.org/dc/dcmitype/StillImage" /><dc:title></dc:title></cc:Work></rdf:RDF></metadata><sodipodi:namedview
   pagecolor="#ffffff"
   bordercolor="#666666"
   borderopacity="1"
   objecttolerance="10"
   gridtolerance="10"
   guidetolerance="10"
   inkscape:pageopacity="0"
   inkscape:pageshadow="2"
   inkscape:window-width="1920"
   inkscape:window-height="1024"
   id="namedview6208"
   showgrid="false"
   inkscape:zoom="29.83064"
   inkscape:cx="10.452735"
   inkscape:cy="12.35064"
   inkscape:window-x="-4"
   inkscape:window-y="-4"
   inkscape:window-maximized="1"
   inkscape:current-layer="svg6131" />
 <defs
   id="defs6133">
  <style
   type="text/css"
   id="style6135">
   
    .fil4 {fill:#7F7F7F}
    .fil6 {fill:#D2D0D2}
    .fil11 {fill:#E8980E}
    .fil9 {fill:#FFF14D}
    .fil0 {fill:black;fill-opacity:0.090196}
    .fil1 {fill:black;fill-opacity:0.164706}
    .fil7 {fill:black;fill-opacity:0.282353}
    .fil10 {fill:black;fill-opacity:0.301961}
    .fil16 {fill:url(#id0)}
    .fil2 {fill:url(#id1)}
    .fil8 {fill:url(#id2)}
    .fil13 {fill:url(#id3)}
    .fil14 {fill:url(#id4)}
    .fil3 {fill:url(#id5)}
    .fil15 {fill:url(#id6)}
    .fil12 {fill:url(#id7)}
    .fil5 {fill:url(#id8)}
   
  </style>
  <linearGradient
   id="id0"
   gradientUnits="userSpaceOnUse"
   x1="13.078"
   y1="14.5526"
   x2="13.078"
   y2="13.0168">
   <stop
   offset="0"
   style="stop-color:white"
   id="stop6138" />
   <stop
   offset="1"
   style="stop-color:#FFFEF4"
   id="stop6140" />
  </linearGradient>
  <linearGradient
   id="id1"
   gradientUnits="userSpaceOnUse"
   x1="9.99924"
   y1="0"
   x2="9.99924"
   y2="20.9969">
   <stop
   offset="0"
   style="stop-color:#BFBFBF"
   id="stop6143" />
   <stop
   offset="1"
   style="stop-color:#8C8B8B"
   id="stop6145" />
  </linearGradient>
  <linearGradient
   id="id2"
   gradientUnits="userSpaceOnUse"
   x1="13.1506"
   y1="13.106"
   x2="13.1506"
   y2="20.8302">
   <stop
   offset="0"
   style="stop-color:#C76C02"
   id="stop6148" />
   <stop
   offset="1"
   style="stop-color:#E8980E"
   id="stop6150" />
  </linearGradient>
  <linearGradient
   id="id3"
   gradientUnits="userSpaceOnUse"
   xlink:href="#id2"
   x1="13.1914"
   y1="9.52385"
   x2="13.1914"
   y2="16.184">
  </linearGradient>
  <linearGradient
   id="id4"
   gradientUnits="userSpaceOnUse"
   x1="13.1914"
   y1="10.7346"
   x2="13.1914"
   y2="14.9739">
   <stop
   offset="0"
   style="stop-color:#FFFEA6"
   id="stop6154" />
   <stop
   offset="1"
   style="stop-color:#FFBD22"
   id="stop6156" />
  </linearGradient>
  <linearGradient
   id="id5"
   gradientUnits="userSpaceOnUse"
   x1="9.99924"
   y1="0.999924"
   x2="9.99924"
   y2="19.997">
   <stop
   offset="0"
   style="stop-color:white"
   id="stop6159" />
   <stop
   offset="1"
   style="stop-color:#E1E1E1"
   id="stop6161" />
  </linearGradient>
  <linearGradient
   id="id6"
   gradientUnits="userSpaceOnUse"
   x1="13.2526"
   y1="11.009"
   x2="13.2526"
   y2="12.674">
   <stop
   offset="0"
   style="stop-color:white"
   id="stop6164" />
   <stop
   offset="1"
   style="stop-color:#FFEDA6"
   id="stop6166" />
  </linearGradient>
  <linearGradient
   id="id7"
   gradientUnits="userSpaceOnUse"
   x1="14.0023"
   y1="8.79714"
   x2="12.3804"
   y2="16.9092">
   <stop
   offset="0"
   style="stop-color:#FFFEA9"
   id="stop6169" />
   <stop
   offset="1"
   style="stop-color:#FFF049"
   id="stop6171" />
  </linearGradient>
  <linearGradient
   id="id8"
   gradientUnits="userSpaceOnUse"
   x1="5.5580907"
   y1="15.89336"
   x2="4.0071406"
   y2="17.224758">
   <stop
   offset="0"
   style="stop-color:white"
   id="stop6174" />
   <stop
   offset="0.490196"
   style="stop-color:#EAEAEA"
   id="stop6176" />
   <stop
   offset="1"
   style="stop-color:#C8C8C8"
   id="stop6178" />
  </linearGradient>
 </defs>
 <g
   id="Layer_x0020_1">
  <metadata
   id="CorelCorpID_0Corel-Layer" />
  <g
   id="Document">
   <g
   id="Spread">
    <g
   id="MouseOff">
     <g
   id="Group">
      <path
   id="_186477912"
   class="fil0"
   d="M19.9985 20.9958l0 0.0011337c0,0.550601 -0.522636,0.998413 -1.16658,0.998413l-11.6662 0c-0.643942,0 -1.16658,-0.447812 -1.16658,-0.998413l0 -0.0011337c0,-0.550601 0.522636,-0.998791 1.16658,-0.998791l11.6662 0c0.643942,0 1.16658,0.44819 1.16658,0.998791z" />
      <path
   id="_186477984"
   class="fil1"
   d="M19.4668 20.7811l0 0.0011337c0,0.43194 -0.522636,0.784143 -1.16658,0.784143l-10.6024 0c-0.643942,0 -1.16658,-0.352203 -1.16658,-0.784143l0 -0.0011337c0,-0.43194 0.522636,-0.784143 1.16658,-0.784143l10.6024 0c0.643942,0 1.16658,0.352203 1.16658,0.784143z" />
      <path
   id="_192048248"
   class="fil2"
   d="M5.97914 20.5143l-0.003779 -0.0011337c-1.50253,-1.20135 -4.05827,-3.48764 -5.4686,-4.85149 -0.295896,-0.301187 -0.471998,-0.619757 -0.504119,-1.01844l-0.0026453 -12.2062c0.00529061,-1.34533 1.10007,-2.43708 2.44653,-2.43708l15.1058 0c1.3491,0 2.44615,1.09704 2.44615,2.44615l0 16.1057c0,1.34533 -1.09062,2.43972 -2.43292,2.44502l-10.568 0c-0.393016,-0.0026453 -0.747865,-0.286448 -1.01844,-0.482579z" />
      <path
   id="_192064424"
   class="fil3"
   d="M7.01912 19.997l-0.137178 -0.0680221 -0.313279 -0.218426 -1.23876 -1.03205c-1.39823,-1.19719 -3.08216,-2.72202 -4.11949,-3.7261 -0.0838939,-0.0838939 -0.134533,-0.154561 -0.165142,-0.215781l-0.045348 -0.162875 0 -12.134c0.0026453,-0.793213 0.650744,-1.4398 1.4466,-1.4398l15.1058 0c0.795858,0 1.44622,0.650367 1.44622,1.44622l0 16.1057c0,0.795858 -0.646588,1.44245 -1.43564,1.44509l-10.5438 0z" />
      <path
   id="_192827584"
   class="fil4"
   d="M6.50178 19.661c-1.40655,-1.1303 -3.80999,-3.28622 -5.13642,-4.57108 -0.256216,-0.262641 -0.398685,-0.532084 -0.425516,-0.862747l0 -0.38508c0,-0.0015116 0,-0.0015116 0,-0.0015116 0.098632,0.9251 0.818532,1.16922 1.67599,1.1492 0.595949,-0.0147381 2.12078,-0.229386 3.02094,-0.0547956 0.598594,0.116015 0.988965,0.721412 0.988965,1.29998 0,0.789056 -0.0026453,1.63706 0.110725,2.37435 0.100144,0.684 -0.136044,1.22931 1.05056,1.46928 -0.0015116,0.0011337 -0.0041569,0.0026453 -0.00529061,0.003779l-0.418714 0c-0.303832,-0.0026453 -0.583856,-0.225229 -0.861235,-0.421359z" />
      <path
   id="_192828088"
   class="fil5"
   d="M6.50178 19.661c-1.40655,-1.12917 -3.80999,-3.28471 -5.13642,-4.57259 -0.256216,-0.259995 -0.398685,-0.529061 -0.425516,-0.862369l0 -0.385458c0,0 0,0 0,0 0.098632,0.926612 0.738795,1.50669 1.59587,1.48666 0.595949,-0.0136044 1.62119,-0.0642431 2.37019,-0.105434 0.566851,-0.0332552 1.13483,0.458393 1.13483,1.03847 0,0.787922 -0.0026453,1.63593 0.110347,2.37435 0.100144,0.682488 0.449324,1.20399 1.63593,1.44509 -0.0015116,0 -0.0041569,0.0026453 -0.00529061,0.0026453l-0.418714 0c-0.303832,-0.0026453 -0.583856,-0.225229 -0.861235,-0.421359z"
   style="fill:url(#id8)" />
      <path
   id="_192828928"
   class="fil6"
   d="M5.99803 3.09538l0 0.806817c0,0.0517724 0.0438364,0.0959867 0.0959867,0.0959867l7.80818 0c0.0517724,0 0.0959867,-0.0442143 0.0959867,-0.0959867l0 -0.806817c0,-0.0517724 -0.0442143,-0.0959867 -0.0959867,-0.0959867l-7.80818 0c-0.0521503,0 -0.0959867,0.0442143 -0.0959867,0.0959867z" />
      <path
   id="_192829288"
   class="fil6"
   d="M2.99977 5.09674l0 0.806439c0,0.0517724 0.0438364,0.0959867 0.0959867,0.0959867l3.80583 0c0.0521503,0 0.0959867,-0.0442143 0.0959867,-0.0959867l0 -0.806439c0,-0.0521503 -0.0438364,-0.0959867 -0.0959867,-0.0959867l-3.80583 0c-0.0521503,0 -0.0959867,0.0438364 -0.0959867,0.0959867z" />
      <path
   id="_192829624"
   class="fil6"
   d="M7.99902 5.09523l0 0.806439c0,0.0521503 0.0438364,0.0959867 0.0959867,0.0959867l3.80621 0c0.0517724,0 0.0959867,-0.0438364 0.0959867,-0.0959867l0 -0.806439c0,-0.0517724 -0.0442143,-0.0959867 -0.0959867,-0.0959867l-3.80621 0c-0.0521503,0 -0.0959867,0.0442143 -0.0959867,0.0959867z" />
      <path
   id="_192829960"
   class="fil6"
   d="M12.9994 5.09523l0 0.806439c0,0.0521503 0.0442143,0.0959867 0.0959867,0.0959867l3.80621 0c0.0521503,0 0.0959867,-0.0438364 0.0959867,-0.0959867l0 -0.806439c0,-0.0517724 -0.0438364,-0.0959867 -0.0959867,-0.0959867l-3.80621 0c-0.0517724,0 -0.0959867,0.0442143 -0.0959867,0.0959867z" />
      <path
   id="_192830296"
   class="fil6"
   d="M2.99826 7.09621l0 0.806817c0,0.0517724 0.0442143,0.0959867 0.0959867,0.0959867l2.80893 0c0.0521503,0 0.0959867,-0.0442143 0.0959867,-0.0959867l0 -0.806817c0,-0.0517724 -0.0438364,-0.0959867 -0.0959867,-0.0959867l-2.80893 0c-0.0517724,0 -0.0959867,0.0442143 -0.0959867,0.0959867z" />
      <path
   id="_192830896"
   class="fil7"
   d="M10.8359 20.6145l-1.22515 -1.67448 -1.66919 -0.133399c-0.834404,-0.0612199 -0.935681,-1.32227 -0.368075,-1.93561l2.74923 -2.89963 5.49921 -0.374499 2.84899 2.87393c0.579699,0.602751 0.496939,1.94392 -0.335953,2.01988l-1.60003 0.274734 -1.15033 1.64916c-0.434585,0.699872 -1.85058,0.824957 -2.39967,-0.300053 -0.176102,0.899781 -1.90122,1.18925 -2.34903,0.499962z" />
      <path
   id="_192828736"
   class="fil8"
   d="M11.0347 20.141l-1.07588 -1.65823 -1.4946 -0.10808c-0.834404,-0.0612199 -1.22931,-1.06379 -0.661326,-1.67712l2.71824 -2.93553c0.312146,-0.335953 0.812108,-0.417202 1.21344,-0.197264l1.20512 0.659814 1.5543 -0.890333c0.397173,-0.228252 0.898647,-0.156073 1.21722,0.173078l2.77568 2.88376c0.579699,0.602373 0.203688,1.61288 -0.629204,1.68884l-1.49195 0.136044 -1.04263 1.67977c-0.434585,0.699872 -1.48515,0.60124 -1.78218,-0.166654l-0.335953 -0.865014 -0.391883 1.07588c-0.281536,0.771673 -1.33059,0.890333 -1.7784,0.201043z" />
      <polygon
   id="_192831592"
   class="fil9"
   points="11.2558,14.4407 8.53753,17.3762 10.5279,17.5214 11.8744,19.596 13.3395,15.5805 " />
      <polygon
   id="_192831928"
   class="fil9"
   points="14.9913,14.2007 17.767,17.0841 15.7804,17.2655 14.474,19.3678 12.9302,15.3817 " />
      <polygon
   id="_192832504"
   class="fil10"
   points="10.837,18.0308 10.4667,16.9791 9.35228,17.0494 9.32394,15.9338 8.24163,15.6591 8.55869,14.59 7.6162,13.9952 8.25108,13.0754 7.53647,12.2183 8.42416,11.5411 8.01111,10.5026 9.06432,10.1304 8.99214,9.01859 10.1081,8.99063 10.3839,7.90946 11.4545,8.22803 12.0505,7.28554 12.9703,7.91739 13.83,7.2058 14.5099,8.09085 15.5487,7.67742 15.9179,8.7295 17.035,8.65883 17.0603,9.77591 18.143,10.0506 17.8256,11.1182 18.7722,11.7168 18.1335,12.6343 18.8482,13.4899 17.9616,14.1701 18.3762,15.2071 17.3214,15.5778 17.3936,16.6911 16.2777,16.7191 16.0018,17.8014 14.9312,17.4813 14.3368,18.4242 13.417,17.7919 12.5542,18.5028 11.8759,17.6188 " />
      <polygon
   id="_192832288"
   class="fil11"
   points="11.108,17.4348 10.78,16.5044 9.79329,16.5668 9.76948,15.5805 8.81075,15.3363 9.09228,14.3901 8.2575,13.8633 8.81868,13.05 8.18683,12.2916 8.97362,11.6915 8.60668,10.7732 9.53858,10.4437 9.47472,9.45998 10.4626,9.43579 10.7067,8.47895 11.6544,8.76011 12.1824,7.92684 12.9956,8.48538 13.7567,7.85504 14.3579,8.6388 15.2766,8.27337 15.6046,9.20414 16.5925,9.14141 16.6151,10.1292 17.5735,10.373 17.2923,11.3185 18.1294,11.8476 17.5656,12.6597 18.1974,13.4166 17.4121,14.0178 17.7787,14.9365 16.8472,15.2645 16.911,16.2497 15.9232,16.2735 15.6791,17.2323 14.7313,16.9496 14.2049,17.7829 13.3901,17.2243 12.6275,17.8535 12.0278,17.0709 " />
      <polygon
   id="_192831376"
   class="fil12"
   points="13.6422,8.85987 13.0357,9.36399 12.3838,8.91618 11.9624,9.58393 11.2051,9.35719 11.0105,10.1224 10.2214,10.1413 10.2732,10.9293 9.52687,11.1919 9.82125,11.9224 9.19205,12.4023 9.6973,13.01 9.25062,13.6607 9.91875,14.0806 9.69352,14.8364 10.4573,15.031 10.4758,15.8189 11.2652,15.7683 11.5263,16.5124 12.261,16.2191 12.7409,16.8468 13.349,16.3431 14.0008,16.7909 14.4207,16.1231 15.178,16.3483 15.3726,15.5842 16.1632,15.5657 16.1099,14.7778 16.8578,14.514 16.563,13.7847 17.1911,13.3047 16.6858,12.6967 17.1325,12.0463 16.4659,11.6265 16.6911,10.8703 15.927,10.6757 15.907,9.88663 15.1194,9.9384 14.8553,9.19583 14.1221,9.48681 " />
      <path
   id="_192833368"
   class="fil13"
   d="M12.3929 15.7456c1.59587,0.438742 3.24881,-0.498451 3.6902,-2.09432 0.441388,-1.5955 -0.497317,-3.24994 -2.09281,-3.68869 -1.59587,-0.438742 -3.24919,0.498451 -3.6902,2.09432 -0.441388,1.59587 0.497317,3.25032 2.09281,3.68869z" />
      <path
   id="_192833944"
   class="fil14"
   d="M12.9461 10.8692c1.09591,-0.134533 2.09584,0.643942 2.23037,1.73834 0.13491,1.09591 -0.643942,2.09584 -1.73948,2.2315 -1.09591,0.13491 -2.09584,-0.643564 -2.23037,-1.73834 -0.13491,-1.09591 0.643942,-2.09546 1.73948,-2.2315z" />
      <path
   id="_192834592"
   class="fil15"
   d="M11.4224 12.4303c1.368,-0.951931 2.49452,-0.949286 3.66072,0.243746 -0.0665105,-0.738417 -0.971582,-1.51576 -1.65445,-1.58756 -0.75051,-0.0774696 -1.71945,0.534351 -2.00627,1.34381z" />
      <path
   id="_192835192"
   class="fil16"
   d="M11.3238 13.0168c1.19983,1.04112 2.27043,1.22402 3.50881,0.391883 -0.142468,0.623914 -1.08798,1.1439 -1.74514,1.09175 -0.721034,-0.0559293 -1.57849,-0.741063 -1.76366,-1.48364z" />
     </g>
    </g>
   </g>
  </g>
 </g>
</svg>