<?xml version="1.0" encoding="UTF-8"?>
<!DOCTYPE svg PUBLIC "-//W3C//DTD SVG 1.1//EN" "http://www.w3.org/Graphics/SVG/1.1/DTD/svg11.dtd">
<!-- Creator: CorelDRAW -->
<svg xmlns="http://www.w3.org/2000/svg" xml:space="preserve" width="22px" height="22px" style="shape-rendering:geometricPrecision; text-rendering:geometricPrecision; image-rendering:optimizeQuality; fill-rule:evenodd; clip-rule:evenodd"
viewBox="0 0 22 22"
 xmlns:xlink="http://www.w3.org/1999/xlink">
 <defs>
  <style type="text/css">
   <![CDATA[
    .fil14 {fill:none}
    .fil28 {fill:white;fill-rule:nonzero}
    .fil18 {fill:#9BBA65;fill-rule:nonzero}
    .fil30 {fill:#C3E671;fill-rule:nonzero}
    .fil17 {fill:#DAFF8F;fill-rule:nonzero}
    .fil0 {fill:black;fill-opacity:0.000000}
    .fil19 {fill:#607A33;fill-opacity:0.000000}
    .fil1 {fill:black;fill-opacity:0.003922}
    .fil2 {fill:black;fill-opacity:0.007843}
    .fil3 {fill:black;fill-opacity:0.015686}
    .fil4 {fill:black;fill-opacity:0.019608}
    .fil5 {fill:black;fill-opacity:0.023529}
    .fil6 {fill:black;fill-opacity:0.027451}
    .fil20 {fill:#607A33;fill-opacity:0.031373}
    .fil7 {fill:black;fill-opacity:0.031373}
    .fil8 {fill:black;fill-opacity:0.035294}
    .fil9 {fill:black;fill-opacity:0.043137}
    .fil10 {fill:black;fill-opacity:0.047059}
    .fil11 {fill:black;fill-opacity:0.050980}
    .fil12 {fill:black;fill-opacity:0.054902}
    .fil13 {fill:black;fill-opacity:0.058824}
    .fil21 {fill:#607A33;fill-opacity:0.062745}
    .fil22 {fill:#607A33;fill-opacity:0.094118}
    .fil23 {fill:#607A33;fill-opacity:0.125490}
    .fil24 {fill:#607A33;fill-opacity:0.156863}
    .fil25 {fill:#607A33;fill-opacity:0.188235}
    .fil26 {fill:#607A33;fill-opacity:0.219608}
    .fil33 {fill:#9BBA65;fill-rule:nonzero;fill-opacity:0.501961}
    .fil32 {fill:#9BBA65;fill-rule:nonzero;fill-opacity:0.780392}
    .fil31 {fill:#DAFF8F;fill-rule:nonzero;fill-opacity:0.780392}
    .fil15 {fill:url(#id0)}
    .fil27 {fill:url(#id1)}
    .fil34 {fill:url(#id2);fill-rule:nonzero}
    .fil29 {fill:url(#id3);fill-rule:nonzero}
    .fil16 {fill:url(#id4);fill-rule:nonzero;fill-opacity:0.501961}
   ]]>
  </style>
  <linearGradient id="id0" gradientUnits="userSpaceOnUse" x1="11.7294" y1="0.715758" x2="11.2752" y2="20.2484">
   <stop offset="0" style="stop-color:#C0E36F"/>
   <stop offset="0.419608" style="stop-color:#ACD156"/>
   <stop offset="1" style="stop-color:#9EC444"/>
  </linearGradient>
  <linearGradient id="id1" gradientUnits="userSpaceOnUse" x1="11.447" y1="18.8852" x2="11.3702" y2="19.614">
   <stop offset="0" style="stop-color:#C4C4C4"/>
   <stop offset="1" style="stop-color:#D4D4D4"/>
  </linearGradient>
  <linearGradient id="id2" gradientUnits="userSpaceOnUse" x1="12.1815" y1="16.1362" x2="11.4652" y2="2.86899">
   <stop offset="0" style="stop-color:#EBEBEB"/>
   <stop offset="1" style="stop-color:white"/>
  </linearGradient>
  <linearGradient id="id3" gradientUnits="userSpaceOnUse" x1="11.4371" y1="20.948" x2="11.3906" y2="17.8815">
   <stop offset="0" style="stop-color:#7F7F7F"/>
   <stop offset="1" style="stop-color:#8F8F8F"/>
  </linearGradient>
  <linearGradient id="id4" gradientUnits="userSpaceOnUse" x1="6.5005" y1="4.02469" x2="5.78163" y2="20.0599">
   <stop offset="0" style="stop-color:#F8FFC4"/>
   <stop offset="1" style="stop-color:#ADD158"/>
  </linearGradient>
 </defs>
 <g id="Слой_x0020_1">
  <metadata id="CorelCorpID_0Corel-Layer"/>
  <g id="_96062920">
   <path id="_94024224" class="fil0" d="M10.744 18.4575c6.84718,-0.293957 9.90978,0.324288 11.2409,1.18405l0 2.28192c-0.0617962,0.0127561 -0.126144,0.0243783 -0.193326,0.0354336l-21.0189 0 0 -2.05118c1.30197,-0.633552 4.07486,-1.19737 9.97129,-1.45023z"/>
   <g>
    <path id="_95546920" class="fil1" d="M10.7684 18.6344c6.85455,-0.283469 9.92197,0.37106 11.2166,1.24074l0 2.00809c-0.136065,0.0294807 -0.286587,0.054426 -0.451282,0.0756861l-20.761 0 0 -1.85275c1.2637,-0.642623 4.0227,-1.22487 9.99567,-1.47177z"/>
    <path id="_120928928" class="fil2" d="M10.7925 18.8115c6.84237,-0.271563 9.93444,0.417266 11.1925,1.2895l0 1.7422c-0.217137,0.0501739 -0.476794,0.0875918 -0.775003,0.115655l-20.4372 0 0 -1.66084c1.23025,-0.648009 3.98784,-1.24726 10.0198,-1.48651z"/>
    <path id="_47139592" class="fil3" d="M10.8169 18.9887c6.80892,-0.25739 9.94918,0.461203 11.1681,1.32805l0 1.48708c-0.311249,0.0765365 -0.724829,0.125293 -1.22487,0.155057l-5.96078 0c-0.557299,-0.00368509 -1.12962,-0.0045355 -1.71272,0l-12.2629 0 -0.0510244 -0.00935446 0 -1.46865c1.20134,-0.648576 3.97593,-1.26257 10.0441,-1.49218z"/>
    <path id="_47097992" class="fil4" d="M10.841 19.1659c6.75307,-0.241515 9.97044,0.502873 11.144,1.35611l0 1.24301c-0.450715,0.119057 -1.16165,0.172916 -2.0628,0.193893l-2.69409 0c-1.70875,-0.0192759 -3.69416,-0.0513078 -5.74392,0l-10.3602 0c-0.127277,-0.0167246 -0.244633,-0.0348666 -0.351218,-0.0549929l0 -1.25095c1.17498,-0.643474 3.99067,-1.26966 10.0682,-1.48708z"/>
    <path id="_92306328" class="fil5" d="M10.8651 19.3428c6.67597,-0.223657 10.0039,0.540858 11.1199,1.37199l0 1.0117c-1.40629,0.402809 -5.96361,0.085891 -10.7919,0.212318l-0.772169 0.0201263 -8.88759 0c-0.297642,-0.0266461 -0.55248,-0.0598119 -0.760546,-0.099781l0 -1.046c1.1489,-0.632419 4.03546,-1.26739 10.0923,-1.47035z"/>
    <path id="_95109008" class="fil6" d="M10.8889 19.5202c6.58101,-0.203814 10.0595,0.576292 11.0961,1.37709l0 0.790877c-1.26314,0.401675 -5.89756,0.109135 -10.7829,0.222523 -0.732483,0.0170081 -1.45589,0.0334493 -2.16145,0.0481897l-6.87383 0c-0.589331,-0.0308981 -1.06329,-0.0771035 -1.3941,-0.142018l0 -0.855792c1.11743,-0.615694 4.11143,-1.25463 10.1161,-1.44087z"/>
    <path id="_92229960" class="fil7" d="M10.9138 19.6977c6.47102,-0.182554 10.1476,0.608891 11.0712,1.37085l0 0.582528c-1.08654,0.397706 -5.81621,0.131246 -10.7727,0.231594 -1.59224,0.0323154 -3.14905,0.0617962 -4.56384,0.0762531l-3.01185 0c-1.31529,-0.0198428 -2.32614,-0.0739853 -2.86388,-0.182554l0 -0.679758c1.07406,-0.592733 4.21716,-1.23224 10.1411,-1.39892z"/>
    <path id="_91291000" class="fil8" d="M10.9376 19.8751c6.37266,-0.159309 10.3092,0.644891 11.0473,1.36122l0 0.375029c-0.83765,0.395155 -5.69857,0.156758 -10.7633,0.243216 -4.74838,0.0813555 -9.22237,0.140034 -10.4489,-0.116789l0 -0.517897c1.00972,-0.563819 4.35011,-1.19992 10.1649,-1.34478z"/>
    <path id="_97183512" class="fil9" d="M10.9617 20.052c6.37209,-0.136348 10.6868,0.706687 11.0232,1.3717l0 0.130963c-0.366241,0.41188 -5.46839,0.198145 -10.7539,0.271563 -4.81613,0.0668986 -9.40039,0.110553 -10.4583,-0.124443l0 -0.369643c0.909084,-0.529803 4.50517,-1.15882 10.189,-1.28014z"/>
    <path id="_94121032" class="fil10" d="M10.9858 20.2292c6.17338,-0.106301 10.905,0.716609 10.9158,1.30651 0.0104883,0.374179 -5.25126,0.205231 -10.661,0.262208 -4.91648,0.0521582 -9.64615,0.0802216 -10.4679,-0.129262l0 -0.230177c0.737018,-0.490968 4.66334,-1.11403 10.2131,-1.20928z"/>
    <path id="_120847232" class="fil11" d="M11.0102 20.4063c5.71898,-0.0708672 10.7789,0.656797 10.786,1.16194 0.00708672,0.267311 -5.22007,0.163561 -10.5459,0.201546 -5.11831,0.0368509 -10.0963,0.0473393 -10.4776,-0.135781l0 -0.0805051c0.358304,-0.446463 4.75717,-1.07945 10.2375,-1.1472z"/>
    <path id="_92095232" class="fil12" d="M11.0343 20.5835c5.2643,-0.0354336 10.653,0.597268 10.6567,1.01709 0.00340162,0.16101 -5.18918,0.122175 -10.4314,0.140884 -5.24219,0.0192759 -10.4093,0.0110553 -10.4093,-0.117923 0,-0.391187 4.91903,-1.00461 10.1839,-1.04005z"/>
   </g>
   <path id="_47129024" class="fil13" d="M11.0581 20.761c4.81046,0 10.5275,0.537457 10.5275,0.872516 0,0.109135 -20.6334,0.104883 -20.6334,0.00311815 0,-0.334776 5.29576,-0.875635 10.1059,-0.875635z"/>
  </g>
  <path class="fil14" d="M1.89442 18.9558l-0.121608 0.132947m20.1742 -0.0144569l-0.136348 -0.120191"/>
  <path class="fil15" d="M1.51882 4.30816l-0.00198428 -2.54753c0,-0.250586 0.0986471,-0.505141 0.262208,-0.684577 0.209483,-0.254838 0.503157,-0.540291 0.856926,-0.540291l17.6592 0.0053859c0.6276,0 1.17725,0.5247 1.16931,1.14691 -0.0909934,6.57562 0.0232444,11.0187 0.00510244,17.598 -0.000850406,0.622497 -0.503724,1.14266 -1.11743,1.14266 -7.3631,0 -5.15771,-0.0045355 -17.7154,-0.0045355 -0.61371,0 -1.118,-0.513929 -1.118,-1.14266l-0.00198428 -14.8957c0,-0.0260791 0.000283469,-0.0518748 0.00198428,-0.0776704z"/>
  <path class="fil16" d="M1.96756 4.2869l-0.00198428 -2.52627 -0.00198428 0c0,-0.18227 0.0368509,-0.369076 0.104316,-0.54511l-0.00170081 -0.000566937c0.0666151,-0.17405 0.166113,-0.338178 0.290555,-0.47481l0.000283469 0.000283469c0.0541425,-0.0649143 0.113104,-0.131813 0.176601,-0.196444 0.0334493,-0.00510244 0.067749,-0.00822059 0.102332,-0.00822059l17.6592 0.0053859c0.07682,0 0.152223,0.00822059 0.225924,0.022961 0.281201,0.292256 0.458369,0.684293 0.458369,1.11063l0 0.013323 -0.00198428 0.00595284c-0.0895761,6.5742 0.0232444,11.0145 0.00510244,17.5921 -0.000566937,0.43399 -0.169514,0.832264 -0.442495,1.12622 -0.0612292,0.0107718 -0.123876,0.0164412 -0.18794,0.0164412 -7.3631,0 -5.15771,-0.0045355 -17.7154,-0.0045355 -0.0805051,0 -0.159309,-0.00878753 -0.235279,-0.0257956 -0.269862,-0.293957 -0.435975,-0.687978 -0.435975,-1.11687l0.00198428 0 -0.00198428 -14.8957 0 -0.00198428 0.000283469 -0.0388352 0 -0.0195593 0.00170081 -0.0385517zm0.994124 -2.52627l0.00198428 2.54753 0 0.0215436 -0.00170081 0.0388352 -0.000283469 0 0 0.0192759 0.00198428 14.8937 0.00198428 0c0,0.179436 0.0705837,0.34158 0.183971,0.457235l0.00198428 0c0.111687,0.114238 0.265043,0.185388 0.432006,0.185388 4.30135,0 7.1162,0.00255122 10.6828,0.00481897l5.10073 -0.000283469c0.165546,0 0.318052,-0.0717176 0.429738,-0.185955 0.116506,-0.11934 0.189357,-0.282335 0.189641,-0.456668 0.018142,-6.57987 -0.0932612,-11.0215 -0.00510244,-17.598l-0.00198428 0 0 -0.013323c0,-0.165546 -0.0754027,-0.320886 -0.193609,-0.435691 -0.122742,-0.11934 -0.288004,-0.195877 -0.461203,-0.199562l0 0.00170081 -0.0144569 0 0 -0.00198428 -15.7274 -0.0053859 0 0.00198428c-0.0600953,0 -0.126427,0.0323154 -0.191341,0.0788043l0 0.00198428c-0.10545,0.0754027 -0.201263,0.178585 -0.280917,0.275815l-0.0155908 0.0195593c-0.0391187,0.0428038 -0.072001,0.0980801 -0.094962,0.158459l-0.00198428 0c-0.0221106,0.0575441 -0.0342997,0.123025 -0.0342997,0.190207l-0.00198428 0zm0 2.6252l0 0.00198428"/>
  <path class="fil14" d="M1.72207 2.99966c0,-0.250586 0.0986471,-0.505141 0.262208,-0.684577 0.209483,-0.255122 0.503157,-0.540291 0.856926,-0.540291l17.0827 0.0053859c0.627316,0 1.17725,0.5247 1.16931,1.14691"/>
  <path class="fil17" d="M1.38928 2.39276c0,-0.167246 0.0340162,-0.339879 0.094962,-0.498905l0.00113387 -0.00255122c0.0612292,-0.161861 0.152506,-0.310965 0.263909,-0.432573 0.117639,-0.141167 0.262492,-0.29424 0.432006,-0.415565l0.00113387 -0.00170081c0.201546,-0.144286 0.433707,-0.243783 0.696766,-0.243783l0 0.00170081 17.0818 0.0053859 0 -0.00198428 0.01389 0 0.00255122 0.00198428c0.406494,0.00425203 0.787192,0.176317 1.06329,0.442495l0.000566937 0.00113387c0.279784,0.271563 0.458936,0.648009 0.458085,1.05876l0.00141734 0 0 0.0127561 -0.0212601 0.00340162c0.0377013,0.128128 0.0578276,0.262775 0.0575441,0.401392l0.00141734 0 0 0.0127561 -0.525551 0.0841902 0 -0.0130396 0.00170081 0c0,-0.414998 -0.597552,-0.844737 -1.00206,-0.849272l0 0.00198428 -0.01389 0 0 -0.00198428 -17.0818 -0.00510244 0 0.00141734c-0.491535,-0.0748357 -1.20531,0.609174 -1.10411,0.995258l-0.385801 -0.1406c0,-0.127561 0.0198428,-0.257956 0.0561268,-0.38325l-0.0938281 -0.0342997z"/>
  <path class="fil18" d="M1.02077 4.2869l-0.00198428 -2.52627 -0.00198428 0c0,-0.18227 0.0368509,-0.369076 0.104316,-0.54511l-0.00170081 -0.000566937c0.0666151,-0.17405 0.166113,-0.338178 0.290555,-0.47481l0.000283469 0.000283469c0.12586,-0.151089 0.277516,-0.311249 0.452132,-0.436258l0.000850406 0.00141734c0.222239,-0.159309 0.479629,-0.269862 0.772735,-0.269862l0 0.00198428 17.6592 0.0053859 0 -0.00198428 0.0144569 0 0.00595284 0.00198428c0.441077,0.00566937 0.852107,0.190207 1.15088,0.481046 0.304162,0.295941 0.498054,0.70442 0.498054,1.1506l0 0.013323 -0.00198428 0.00595284c-0.0895761,6.5742 0.0232444,11.0145 0.00510244,17.5921 -0.000566937,0.448731 -0.181136,0.859477 -0.470841,1.1557 -0.292823,0.299343 -0.698183,0.486999 -1.14465,0.486999l-6.08579 -0.00368509 -11.6296 -0.000850406c-0.44703,0 -0.853808,-0.186522 -1.14691,-0.486432l0.00113387 -0.00113387c-0.291122,-0.297642 -0.472259,-0.707254 -0.472259,-1.15513l0.00198428 0 -0.00198428 -14.8957 0 -0.00198428 0.000283469 -0.0388352 0 -0.0195593 0.00170081 -0.0385517zm0.994124 -2.52627l0.00198428 2.54753 0 0.0215436 -0.00170081 0.0388352 -0.000283469 0 0 0.0192759 0.00198428 14.8937 0.00198428 0c0,0.179436 0.0705837,0.34158 0.183971,0.457235l0.00198428 0c0.111687,0.114238 0.265043,0.185388 0.432006,0.185388 4.30135,0 8.06298,0.00255122 11.6296,0.00481897l6.08579 -0.000283469c0.165546,0 0.318052,-0.0717176 0.429738,-0.185955 0.116506,-0.11934 0.189357,-0.282335 0.189641,-0.456668 0.018142,-6.57987 -0.0932612,-11.0215 -0.00510244,-17.598l-0.00198428 0 0 -0.013323c0,-0.165546 -0.0754027,-0.320886 -0.193609,-0.435691 -0.122742,-0.11934 -0.288004,-0.195877 -0.461203,-0.199562l0 0.00170081 -0.0144569 0 0 -0.00198428 -17.6592 -0.0053859 0 0.00198428c-0.0600953,0 -0.126427,0.0323154 -0.191341,0.0788043l0 0.00198428c-0.10545,0.0754027 -0.201263,0.178585 -0.280917,0.275815l-0.0155908 0.0195593c-0.0391187,0.0428038 -0.072001,0.0980801 -0.094962,0.158459l-0.00198428 0c-0.0221106,0.0575441 -0.0342997,0.123025 -0.0342997,0.190207l-0.00198428 0zm0 2.6252l0 0.00198428"/>
  <g id="_47497016">
   <path id="_95825792" class="fil19" d="M4.80791 17.8923l13.1065 0.0391187c0.454684,0.00113387 0.680892,0.281768 0.826595,0.586497l1.27079 2.07131c0.0671821,0.109419 0.0328824,0.218838 -0.0606623,0.312666 -6.38003,-0.000566937 -5.70225,-0.00481897 -17.2547,-0.00510244 -0.0895761,-0.0929777 -0.121325,-0.200129 -0.0530086,-0.307563l1.33797 -2.11071c0.186522,-0.293957 0.371911,-0.587347 0.826595,-0.586213z"/>
   <g>
    <path id="_47124400" class="fil20" d="M4.89919 17.9144c4.31014,0.0153073 8.61971,0.0306146 12.9299,0.0462054 0.448447,0.00113387 0.67097,0.281484 0.814689,0.586213 0.413864,0.680892 0.828012,1.3615 1.24244,2.04211 0.0666151,0.109702 0.0323154,0.219121 -0.0598119,0.312949 -6.22582,-0.000850406 -5.6586,-0.00481897 -17.0129,-0.00510244 -0.0890091,-0.0929777 -0.120474,-0.200412 -0.0524417,-0.307847 0.441361,-0.696199 0.882438,-1.3924 1.32352,-2.08831 0.185955,-0.29339 0.366241,-0.587347 0.814689,-0.586213z"/>
    <path id="_91863456" class="fil21" d="M4.9899 17.9368c4.25146,0.0175751 8.50236,0.0354336 12.7538,0.0530086 0.441361,0.00170081 0.661332,0.281484 0.8025,0.586213 0.404793,0.67097 0.809303,1.34166 1.2141,2.01291 0.0660482,0.109702 0.0323154,0.218838 -0.0583945,0.312949 -6.07303,-0.000850406 -5.61495,-0.00481897 -16.7726,-0.00510244 -0.0881587,-0.0929777 -0.118773,-0.200412 -0.0510244,-0.307847 0.436542,-0.688829 0.8728,-1.37737 1.30877,-2.06592 0.185672,-0.29254 0.361139,-0.587347 0.802783,-0.586213z"/>
    <path id="_93923728" class="fil22" d="M5.08061 17.9592c4.19278,0.0198428 8.38472,0.0396856 12.5775,0.0598119 0.435124,0.00198428 0.651411,0.281484 0.790594,0.586213 0.395155,0.661332 0.790311,1.32238 1.18575,1.98371 0.0654813,0.109702 0.032032,0.218838 -0.0575441,0.312949 -5.92109,-0.000850406 -5.56988,-0.0045355 -16.5316,-0.00510244 -0.0870249,-0.0932612 -0.117356,-0.200696 -0.049607,-0.307847 0.431723,-0.681459 0.863162,-1.36235 1.29432,-2.04353 0.184822,-0.291689 0.35547,-0.587347 0.790594,-0.586213z"/>
    <path id="_120651432" class="fil23" d="M5.17103 17.9813c4.13411,0.022394 8.26765,0.0445046 12.4015,0.0671821 0.428321,0.00198428 0.64149,0.281484 0.778688,0.586213 0.385517,0.651127 0.771318,1.30282 1.15712,1.95423 0.0646308,0.109419 0.0317485,0.218838 -0.0566937,0.312949 -5.77199,-0.000850406 -5.52282,-0.0045355 -16.2904,-0.00510244 -0.085891,-0.0932612 -0.115939,-0.200979 -0.0481897,-0.307847 0.42662,-0.673805 0.852957,-1.34761 1.27958,-2.02141 0.184255,-0.290839 0.350367,-0.587347 0.778405,-0.586213z"/>
    <path id="_119021496" class="fil24" d="M5.26174 18.0037c4.07543,0.0243783 8.15001,0.0490401 12.2254,0.0739853 0.421518,0.00226775 0.631568,0.281484 0.766499,0.586213 0.376163,0.641773 0.752326,1.28326 1.12877,1.92504 0.0637804,0.109419 0.032032,0.218838 -0.0549929,0.312949 -5.62345,-0.000850406 -5.47661,-0.0045355 -16.0503,-0.00510244 -0.0847571,-0.0935446 -0.114238,-0.200979 -0.0464889,-0.307847 0.421518,-0.666435 0.843036,-1.33287 1.26484,-1.99902 0.183404,-0.290272 0.344698,-0.587347 0.766216,-0.586213z"/>
    <path id="_117579760" class="fil25" d="M5.35274 18.0258c4.01647,0.0269295 8.03237,0.0541425 12.0488,0.0813555 0.414998,0.00226775 0.62193,0.281484 0.754593,0.586213 0.366808,0.631568 0.733617,1.26342 1.10043,1.89555 0.0632135,0.109419 0.032032,0.218554 -0.0541425,0.312666 -5.47661,-0.000566937 -5.43211,-0.00425203 -15.8093,-0.00481897 -0.0836232,-0.0935446 -0.112821,-0.201263 -0.0450715,-0.307847 0.416699,-0.659065 0.833398,-1.31785 1.2501,-1.97663 0.183121,-0.289421 0.339595,-0.58763 0.754593,-0.586497z"/>
   </g>
   <path id="_120058440" class="fil26" d="M5.44316 18.0484l11.8731 0.0878753c0.408478,0.00283469 0.611725,0.281484 0.742404,0.586497l1.07208 1.86636c0.0626466,0.109135 0.0317485,0.218271 -0.0524417,0.312382 -5.33204,-0.000566937 -5.3876,-0.00425203 -15.5695,-0.00481897 -0.0827728,-0.0935446 -0.11112,-0.201263 -0.0436542,-0.307563l1.23536 -1.95452c0.182554,-0.288571 0.33421,-0.587347 0.742688,-0.586213z"/>
  </g>
  <path class="fil27" d="M5.89388 18.1009l11.1466 0.0365675c0.362556,0.00113387 0.542842,0.264476 0.658781,0.550496l0.639505 1.16137c0.151372,0.274681 -0.297075,0.550213 -0.658781,0.550213l-12.5276 0c-0.361706,0 -0.825177,-0.281201 -0.658781,-0.550213l0.741554 -1.19822c0.16668,-0.269012 0.296508,-0.551346 0.658781,-0.550213z"/>
  <path class="fil28" d="M4.73875 18.7988l13.2386 0 0.285736 0.887824c0.0419534,0.129829 0.0374179,0.259941 0.00255122,0.379564l-13.8559 0c-0.0360005,-0.121041 -0.0385517,-0.251153 0.00765365,-0.379564l0.321453 -0.887824z"/>
  <path class="fil29" d="M5.89388 17.9319l11.1466 0.0365675c0.329107,0.000850406 0.577426,0.123025 0.769617,0.308981 0.156475,0.151372 0.261925,0.336477 0.341013,0.524984l0.625332 0.806468c0.0632135,0.115088 0.0926942,0.233578 0.0926942,0.352352 0,0.184255 -0.0703002,0.351501 -0.187656,0.493802l-0.00170081 0.00198428c-0.0875918,0.105734 -0.200979,0.195593 -0.325989,0.264476 -0.198145,0.109135 -0.445896,0.178018 -0.673805,0.178018l-12.5276 0c-0.248035,0 -0.527535,-0.0853241 -0.737869,-0.21572l-0.00198428 0c-0.111403,-0.0691663 -0.211184,-0.155341 -0.287721,-0.254555l-0.00198428 -0.00198428c-0.103466,-0.135498 -0.164128,-0.291122 -0.164128,-0.46177 0,-0.126427 0.0345832,-0.254555 0.11112,-0.377864l0.740137 -0.866847 -0.000566937 -0.000283469 0.0479062 -0.0790877 -0.000566937 -0.000283469c0.220255,-0.365391 0.429171,-0.711223 1.03721,-0.709239zm11.1466 1.03268l-11.1466 -0.0365675c-0.0430872,0 -0.110836,0.111403 -0.181703,0.229043l-0.00198428 0.00170081 -0.0493235 0.081072 -0.00198428 -0.111687 -0.602654 0.758279c0.0323154,0.00822059 0.0651978,0.0130396 0.0960959,0.0130396l12.5276 0c0.0342997,0 0.0711506,-0.00623631 0.107151,-0.0170081l-0.525551 -0.625332 -0.0252287 -0.0527252c-0.035717,-0.0881587 -0.0765365,-0.168097 -0.121892,-0.212035 -0.0172916,-0.0167246 -0.0413864,-0.0277799 -0.0739853,-0.0277799z"/>
  <path class="fil18" d="M5.71331 3.19412c0.00822059,-0.0490401 0.0175751,-0.0960959 0.0286303,-0.141451l0.000850406 0.000283469c0.0484731,-0.200129 0.127561,-0.375029 0.251153,-0.531504l0.00396856 -0.00396856c0.135781,-0.169798 0.304729,-0.297642 0.519881,-0.387218l0.00396856 0c0.129262,-0.0532921 0.276949,-0.0935446 0.449298,-0.122175l0.16016 -0.0116222 9.32697 0.0107718 0.19531 0.0155908c0.158459,0.031465 0.307563,0.0830563 0.444479,0.149104 0.162711,0.0790877 0.303878,0.180003 0.421518,0.295374 0.146553,0.144569 0.257673,0.331658 0.329674,0.518181 0.0663317,0.170648 0.109702,0.362273 0.121325,0.514212l0 0.0742688 -0.00283469 1.19028 -0.0232444 0.218838c-0.0365675,0.16101 -0.0875918,0.300193 -0.149955,0.421234l-1.37766 -2.18923 -5.11377 0.0759696 -2.15918 0.303878c0.13323,0.0532921 2.17534,0.951321 3.37696,1.47999l-2.27852 -0.302744 -0.940549 -0.504291c-0.0099214,-0.0963793 -0.0045355,-0.18879 0.0153073,-0.276665l-0.532354 -0.000566937 -0.170932 -0.0918438c0,0 -1.92362,-0.493519 -2.90045,-0.704703z"/>
  <path class="fil30" d="M9.97725 15.3714l-2.33493 0.134081c-0.00737018,-0.110553 -0.0136065,-0.176317 -0.0136065,-0.176317l3.97735 -4.89862 1.51514 -2.08888c0,0 1.13614,-0.0788043 2.20085,-0.162994 -0.0870249,0.450148 -0.463188,0.844453 -0.795129,1.19199l-0.081639 0.0861745c-0.548228,0.588481 -0.928643,1.046 -1.34478,1.54604l0 0.00396856 -0.43399 0.519315c-0.320603,0.382399 -0.693364,0.822059 -1.14124,1.33542l-0.106301 0.121608 0.404793 0.000850406 -0.737302 0.522433 -1.10921 0 0 0.785775 -0.606056 0.429455c0.0498905,0.116506 0.165829,0.198145 0.333076,0.250586l-0.099781 -0.000283469 0 0.00396856 -0.0053859 0 -0.027213 -0.00396856c-0.268728,-0.00737018 -0.50344,-0.0688829 -0.694782,-0.179152l-0.00396856 0c-0.118773,-0.0691663 -0.219688,-0.151939 -0.302178,-0.248035l-0.284886 0.32032 -0.0391187 0.0428038 -0.01389 0.01389 -0.0232444 0.0195593c-0.0306146,0.0286303 -0.0547094,0.0524417 -0.0714341,0.0700168l0.819508 0 0 0.00311815 0.917588 -0.00198428c0.0325989,0.00595284 0.0666151,0.0107718 0.101765,0.0153073l0 0.343564z"/>
  <path class="fil18" d="M17.8665 13.3293l0.00170081 0.177168 -2.46079 0 -0.633269 -0.655379c0.0323154,-0.141734 0.0830563,-0.287721 0.162144,-0.438242 0.190774,-0.362273 0.530086,-0.598969 0.918155,-0.692797 0.247468,-0.0598119 0.522716,-0.0617962 0.782373,0.00255122 0.269295,0.0668986 0.532638,0.20353 0.748924,0.416699l0.00396856 0.00396856c0.281484,0.279217 0.473676,0.672388 0.476794,1.18603z"/>
  <path class="fil31" d="M9.14385 3.59495c0.13323,0.0532921 0.698183,0.913336 1.89981,1.442l0.216003 0.0286303 -0.135215 -0.119624 4.00768 -0.0450715 0.564953 -1.154 0.643757 -0.151939c0,0 -0.575725,1.20984 -0.564953,2.07414 0.0751192,0.0651978 0.154774,0.121608 0.236129,0.170365 0.270429,0.161294 0.193326,0.273547 0.420951,0.288855l0 0.000283469c0.236696,0.0155908 0.506275,0.00935446 0.822059,-0.16668 0.215153,-0.120191 0.101482,-0.371344 0.236413,-0.633552l-1.07463 -2.11326 -5.11377 0.0759696 -2.15918 0.303878z"/>
  <path class="fil31" d="M17.562 16.448c-0.0464889,0.0581111 -0.0983636,0.112537 -0.155908,0.162711 -0.149104,0.130396 -0.319753,0.223657 -0.516196,0.285736l-0.000850406 -0.00255122c-0.129262,0.0408195 -0.266744,0.0697333 -0.417266,0.0904265l-0.136632 0.00765365 -8.37735 0.0167246 0 0.00283469 -0.305296 0 -0.0150238 -0.00226775 -0.0402525 0c0.0924108,-0.53774 0.0654813,-1.1951 0.0450715,-1.5038 1.26994,-0.072568 7.14057,-0.408478 7.41072,-0.442211 0.303028,-0.0379848 1.40147,0.531787 1.62881,0.607757 0.09071,0.0303311 0.463755,0.374462 0.88017,0.776988z"/>
  <path class="fil32" d="M10.0436 12.984l4.70445 0.00510244c0.00680325,-0.045355 0.0155908,-0.0915604 0.0260791,-0.138049l1.03664 1.07293c0,0 -4.35238,0.799665 -6.25218,1.0511l-1.63448 -0.00283469c-0.167246,-0.0524417 -0.283185,-0.134081 -0.333076,-0.250586l2.45257 -1.73766zm-0.783507 2.02623c-0.459786,0.0476227 -0.86543,0.0555599 -1.16477,0.00226775l1.16477 -0.00226775z"/>
  <path class="fil33" d="M7.59724 17.0093l-0.639505 0.00141734 0 -0.208916c-0.132096,-0.0734184 -0.248602,-0.162428 -0.351501,-0.271279l0.000283469 -0.000283469c-0.207499,-0.219405 -0.330241,-0.504858 -0.39799,-0.79683 -0.0646308,-0.278366 -0.0839067,-0.597552 -0.0867414,-0.799665l0.027213 -0.253704c0.0286303,-0.114521 0.0609458,-0.221672 0.0994975,-0.327973l0.00113387 0.000566937c0.0439376,-0.122458 0.0926942,-0.228759 0.146553,-0.324005l0.00765365 -0.0158742c0.0583945,-0.0989306 0.128411,-0.193893 0.213168,-0.291406 0.0600953,-0.0694498 0.122742,-0.134648 0.190491,-0.199845l0.0119057 -0.013323 -0.000283469 -0.000283469 0.0045355 -0.0045355 4.07486 -4.57944c-0.623914,-0.571473 -1.26512,-1.14918 -1.89584,-1.71725l-0.289138 -0.260508 -0.387785 -0.3498c-0.671537,-0.605489 -1.33996,-1.20814 -2.02482,-1.83631l-0.0053859 -0.00368509 -0.0566937 -0.0515913 -0.0045355 -0.00311815c-0.085891,-0.0765365 -0.171499,-0.15279 -0.276382,-0.287437l-0.00396856 0c-0.16753,-0.215436 -0.277799,-0.468007 -0.274398,-0.788326l-0.00340162 0 0 -0.0045355 0 -0.105167 0.00793712 -0.0938281c0.00793712,-0.0813555 0.0172916,-0.157042 0.0291973,-0.228192 0.976833,0.211184 2.90045,0.704703 2.90045,0.704703l0.170932 0.0918438 -0.364824 -0.000566937c0.396573,0.359438 0.818657,0.739853 1.24216,1.12197l0.387785 0.3498 0.289138 0.260508c0.639222,0.576008 1.28893,1.16109 2.04438,1.85445l0.0274965 0.0274965c0.199278,0.198428 0.341863,0.415848 0.43229,0.645742l0.141167 -0.15279 0.00765365 -0.00793712 0.0283469 -0.0297642c-0.428605,-0.389769 -0.849272,-0.77557 -1.26455,-1.15655l-0.0198428 -0.018142 -0.00396856 0c-0.377297,-0.346399 -0.768767,-0.685994 -1.13444,-1.0032 -0.329107,-0.285453 -0.639222,-0.554465 -0.813555,-0.71179l-0.0703002 -0.0703002 -0.0289138 -0.0317485 -0.0663317 -0.0819224c-0.194176,-0.264476 -0.294524,-0.502023 -0.316634,-0.718026l0.940549 0.504291 2.49452 0.331375c0.122175,0.108285 0.238681,0.213452 0.346682,0.312382l-0.00170081 0.00198428 0.0175751 0.0161577c0.513362,0.470558 1.03693,0.950187 1.72888,1.57637l0.027213 0.0235279c0.429171,0.417266 0.533771,0.797681 0.466589,1.14465 -1.06471,0.0841902 -2.20085,0.162994 -2.20085,0.162994l-1.51514 2.08888 -3.97735 4.89862c0,0 0.0938281,0.950187 -0.031465,1.68012z"/>
  <path class="fil34" d="M16.8704 13.3372c0.00226775,0.284036 0.00595284,0.614277 0.00878753,0.934313 0.00283469,0.399407 -0.0155908,0.893493 -0.0155908,1.26314 -0.0116222,0.162711 -0.0462054,0.267027 -0.113671,0.325989 -0.07682,0.067749 -0.213735,0.107435 -0.414715,0.135215l-8.37735 0.0167246 0 -0.00113387 -0.305296 0c-0.147687,-0.041103 -0.251153,-0.0924108 -0.319753,-0.164695 -0.174333,-0.177735 -0.210901,-0.672388 -0.214869,-0.924675 0.0450715,-0.178585 0.0884422,-0.301327 0.145419,-0.401392 0.0589615,-0.099781 0.140884,-0.190491 0.262775,-0.305863l0.01389 -0.01389 4.23332 -4.75745c0.259941,-0.375312 0.274398,-0.793429 -0.0657647,-1.13217 -0.815256,-0.748357 -1.57438,-1.4301 -2.32586,-2.10731 -0.824043,-0.743538 -1.65404,-1.48991 -2.41203,-2.18498l-0.00226775 -0.00113387 -0.067749 -0.0617962 -0.00113387 -0.000566937c-0.113671,-0.101198 -0.226208,-0.201546 -0.222239,-0.329674l0 -0.0045355 0 -0.105167c0.0178585,-0.180853 0.041103,-0.304162 0.0989306,-0.37758 0.0547094,-0.0680325 0.161577,-0.113671 0.356037,-0.145986l9.32697 0.0107718c0.16101,0.0323154 0.281201,0.0952455 0.361989,0.1749 0.0856075,0.0844737 0.144852,0.273264 0.154207,0.395722l-0.00283469 1.19028c-0.0839067,0.368226 -0.294524,0.379848 -0.472259,0.368226 -0.178302,-0.0113387 -0.458369,-0.104316 -0.583662,-0.348666 -0.0467723,-0.178302 0.0218271,-0.38325 -0.0053859,-0.549646 -0.0317485,-0.202397 -0.176034,-0.255122 -0.218554,-0.260224l-0.0266461 -0.00113387 -4.8201 0.0235279 -0.0306146 0.00170081 -0.0334493 0.00481897c-0.293107,0.0436542 -0.562118,0.114805 -0.357737,0.393171l0.0289138 0.0317485c0.526968,0.47566 1.32181,1.14068 1.95565,1.72264 0.546811,0.501173 1.10156,1.00972 1.7524,1.59848 0.30813,0.299626 -0.156475,0.718309 -0.445329,1.02814 -0.713491,0.766216 -1.18121,1.35725 -1.81392,2.10844 -0.696199,0.83028 -1.53158,1.80881 -2.32132,2.64164 -0.378147,0.266177 -0.337044,0.439376 0.0195593,0.448731l0.0053859 0 5.6311 0.0102049c0.389486,0.00141734 0.488983,-0.0430872 0.483031,-0.373895 -0.0045355,-0.243783 -0.013323,-0.517897 0.100631,-0.734467 0.185105,-0.350934 1.0494,-0.288571 1.0511,0.459503z"/>
 </g>
</svg>
