<?xml version="1.0" encoding="UTF-8"?>
<!DOCTYPE svg PUBLIC "-//W3C//DTD SVG 1.1//EN" "http://www.w3.org/Graphics/SVG/1.1/DTD/svg11.dtd">
<!-- Creator: CorelDRAW -->
<svg xmlns="http://www.w3.org/2000/svg" xml:space="preserve" width="22px" height="22px" style="shape-rendering:geometricPrecision; text-rendering:geometricPrecision; image-rendering:optimizeQuality; fill-rule:evenodd; clip-rule:evenodd"
viewBox="0 0 22 22"
 xmlns:xlink="http://www.w3.org/1999/xlink">
 <defs>
  <style type="text/css">
   <![CDATA[
    .fil16 {fill:none}
    .fil23 {fill:white}
    .fil18 {fill:white}
    .fil0 {fill:black;fill-opacity:0.000000}
    .fil1 {fill:black;fill-opacity:0.003922}
    .fil2 {fill:black;fill-opacity:0.007843}
    .fil3 {fill:black;fill-opacity:0.015686}
    .fil4 {fill:black;fill-opacity:0.019608}
    .fil5 {fill:black;fill-opacity:0.023529}
    .fil6 {fill:black;fill-opacity:0.027451}
    .fil7 {fill:black;fill-opacity:0.031373}
    .fil8 {fill:black;fill-opacity:0.035294}
    .fil9 {fill:black;fill-opacity:0.043137}
    .fil10 {fill:black;fill-opacity:0.047059}
    .fil11 {fill:black;fill-opacity:0.050980}
    .fil12 {fill:black;fill-opacity:0.054902}
    .fil13 {fill:black;fill-opacity:0.058824}
    .fil22 {fill:black;fill-opacity:0.219608}
    .fil20 {fill:#A0DFFF;fill-opacity:0.219608}
    .fil21 {fill:url(#id0)}
    .fil15 {fill:url(#id1)}
    .fil17 {fill:url(#id2)}
    .fil14 {fill:url(#id3)}
    .fil19 {fill:url(#id4);fill-rule:nonzero}
   ]]>
  </style>
  <linearGradient id="id0" gradientUnits="userSpaceOnUse" x1="11.1001" y1="18.7619" x2="11.1001" y2="4.21093">
   <stop offset="0" style="stop-color:#7F7F7F"/>
   <stop offset="1" style="stop-color:#999999"/>
  </linearGradient>
  <linearGradient id="id1" gradientUnits="userSpaceOnUse" x1="11.1942" y1="2.78848" x2="10.7559" y2="11.6647">
   <stop offset="0" style="stop-color:#EDEDED"/>
   <stop offset="1" style="stop-color:#D1CFCF"/>
  </linearGradient>
  <linearGradient id="id2" gradientUnits="userSpaceOnUse" x1="11.1596" y1="17.4965" x2="11.0403" y2="5.47633">
   <stop offset="0" style="stop-color:#2E2E2E"/>
   <stop offset="1" style="stop-color:#4A4A4A"/>
  </linearGradient>
  <linearGradient id="id3" gradientUnits="userSpaceOnUse" x1="11.0649" y1="15.6118" x2="10.9586" y2="8.39067">
   <stop offset="0" style="stop-color:#B0B0B0"/>
   <stop offset="1" style="stop-color:#CCCCCC"/>
  </linearGradient>
  <linearGradient id="id4" gradientUnits="userSpaceOnUse" xlink:href="#id0" x1="11.1766" y1="20.7941" x2="11.1766" y2="2.21219">
  </linearGradient>
 </defs>
 <g id="Слой_x0020_1">
  <metadata id="CorelCorpID_0Corel-Layer"/>
  <g id="_59816048">
   <path id="_61450520" class="fil0" d="M10.5989 18.9334c6.67313,-0.253988 9.84742,0.239248 11.3243,0.959258l0 2.1983 -21.8464 0 0 -1.70563c1.20446,-0.6293 4.00881,-1.20417 10.5221,-1.45193z"/>
   <g>
    <path id="_48227232" class="fil1" d="M10.6029 19.0514c6.7046,-0.245767 9.88285,0.283185 11.3203,1.01765l0 1.97663c-0.114238,0.0170081 -0.23698,0.0323154 -0.367092,0.045355l-21.4793 0 0 -1.57297c1.16534,-0.634119 3.95042,-1.22543 10.526,-1.46667z"/>
    <path id="_122312752" class="fil2" d="M10.6065 19.1698c6.71849,-0.236413 9.91772,0.325705 11.3166,1.06953l0 1.72547c-0.449581,0.0728514 -1.04316,0.109702 -1.74928,0.126144l-2.59317 0c-1.88847,-0.022394 -4.1256,-0.0663317 -6.44579,0l-10.6896 0c-0.134081,-0.0187089 -0.25739,-0.0394021 -0.368509,-0.0623631l0 -1.38588c1.13217,-0.634686 3.91584,-1.24018 10.5297,-1.4729z"/>
    <path id="_62984672" class="fil3" d="M10.6094 19.2881c6.71339,-0.225074 9.95599,0.368509 11.3138,1.11488l0 1.48084c-1.78812,0.312666 -6.21817,0.00935446 -10.947,0.142868 -0.801082,0.0226775 -1.58913,0.044788 -2.35364,0.0643474l-7.34694 0c-0.488983,-0.0340162 -0.893777,-0.081639 -1.19879,-0.145136l0 -1.18858c1.10468,-0.629867 3.91017,-1.24726 10.5326,-1.46922z"/>
    <path id="_63809952" class="fil4" d="M10.6128 19.4065c6.68532,-0.212035 9.99851,0.409329 11.3104,1.15003l0 1.24641c-1.68721,0.319753 -6.1816,0.0317485 -10.9583,0.154774 -4.90429,0.126427 -9.3539,0.232161 -10.888,-0.0929777l0 -1.00291c1.07831,-0.620229 3.93426,-1.24584 10.536,-1.45533z"/>
    <path id="_65512272" class="fil5" d="M10.6162 19.5248c6.63628,-0.197011 10.0535,0.448164 11.307,1.17611l0 1.02162c-1.56843,0.325139 -6.13681,0.054426 -10.97,0.16668 -4.92442,0.114521 -9.4293,0.207783 -10.8764,-0.104883l0 -0.83028c1.05053,-0.604922 3.99266,-1.23451 10.5394,-1.42925z"/>
    <path id="_123677560" class="fil6" d="M10.6199 19.6432c6.5674,-0.18057 10.1278,0.484448 11.3033,1.19114l0 0.808453c-1.42613,0.328257 -6.08125,0.0765365 -10.9813,0.177735 -4.94993,0.102049 -9.51803,0.183121 -10.8651,-0.114521l0 -0.671821c1.01567,-0.583945 4.08393,-1.21353 10.543,-1.39098z"/>
    <path id="_59428856" class="fil7" d="M10.6224 19.7614c6.4869,-0.161861 10.2403,0.520165 11.3008,1.19794l0 0.603221c-1.24443,0.330524 -6.00755,0.099781 -10.994,0.189074 -4.98083,0.0895761 -9.62064,0.157325 -10.8523,-0.122175l0 -0.527252c0.967478,-0.557583 4.20724,-1.18263 10.5456,-1.34081z"/>
    <path id="_63544232" class="fil8" d="M10.6261 19.8799c6.40526,-0.142018 10.4155,0.555882 11.2971,1.19709l0 0.40451c-0.999794,0.331375 -5.9021,0.124159 -11.0054,0.201546 -5.02533,0.0762531 -9.75245,0.130679 -10.841,-0.128411l0 -0.393454c0.89321,-0.526968 4.35493,-1.14436 10.5493,-1.28128z"/>
    <path id="_63038856" class="fil9" d="M10.6295 19.9981c6.38428,-0.121041 10.7596,0.606623 11.2937,1.20417l0 0.189074c-0.580827,0.341863 -5.70906,0.157609 -11.017,0.22309 -5.0894,0.0626466 -9.92622,0.102899 -10.8294,-0.13238l0 -0.270429c0.775854,-0.491818 4.51934,-1.09929 10.5527,-1.21353z"/>
    <path id="_125104312" class="fil10" d="M10.6329 20.1166c6.34318,-0.0966628 11.2049,0.652545 11.216,1.18972 0.0110553,0.340729 -5.39554,0.187089 -10.9541,0.239248 -5.1957,0.0487566 -10.1873,0.0742688 -10.818,-0.134648l0 -0.150522c0.565236,-0.452983 4.67326,-1.05422 10.5561,-1.1438z"/>
    <path id="_60203904" class="fil11" d="M10.6357 20.2348c5.8763,-0.0643474 11.0757,0.598402 11.0831,1.05819 0.00737018,0.243783 -5.36408,0.149104 -10.8364,0.183971 -5.47265,0.0348666 -10.7905,0.0436542 -10.7905,-0.144852 0,-0.407628 4.66788,-1.03296 10.5439,-1.09731z"/>
    <path id="_60204576" class="fil12" d="M10.6394 20.3533c5.40915,-0.0323154 10.9461,0.543693 10.9498,0.926092 0.00368509,0.146837 -5.33204,0.111403 -10.7182,0.128695 -5.38647,0.0175751 -10.6956,0.0099214 -10.6956,-0.107435 0,-0.35632 5.05481,-0.91532 10.464,-0.947352z"/>
   </g>
   <path id="_121621368" class="fil13" d="M10.6425 20.4718c4.94256,0 10.8172,0.48955 10.8172,0.794563 0,0.0994975 -21.2012,0.0955289 -21.2012,0.00311815 0,-0.305012 5.44175,-0.797681 10.384,-0.797681z"/>
  </g>
  <path class="fil14" d="M1.70081 3.55696l18.6219 0c0.631852,0 1.1489,0.520732 1.1489,1.14833l0 14.591c0,0.629017 -0.517897,1.14918 -1.1489,1.14918 -7.56549,0 -5.71756,0 -18.6219,0 -0.630434,0 -1.14861,-0.517047 -1.14861,-1.14918l0 -14.591c0,-0.631852 0.516763,-1.14833 1.14861,-1.14833z"/>
  <path class="fil15" d="M21.4348 9.78307c-5.06502,1.56106 -15.1131,1.15117 -20.9194,0.842469l0 -6.36784c0,-0.631852 0.516763,-1.14861 1.14833,-1.14861l18.6222 0c0.632135,0 1.1489,0.520732 1.1489,1.14861l0 5.52537z"/>
  <path class="fil16" d="M0.999794 19.0403l-0.123309 0.134648m20.4404 -0.0147404l-0.138049 -0.121892"/>
  <path class="fil17" d="M2.12233 4.93576l-0.0198428 13.1518c0.0374179,0.47566 0.638088,0.822909 1.06839,0.821492l15.944 -0.0788043c0.62108,-0.0172916 0.904548,-0.433707 0.925525,-0.979951l0.0572607 -12.8978c0,-0.575441 -0.342997,-0.889525 -0.960675,-0.889808l-16.0095 0.000283469c-0.570622,0 -1.00546,0.301327 -1.00518,0.8728z"/>
  <polygon class="fil18" points="0.801082,2.95856 21.5742,2.95856 21.5742,4.00286 0.801082,4.00286 "/>
  <path class="fil19" d="M22.0096 5.83832l0 13.4962c0,0.452699 -0.185955,0.865713 -0.484731,1.16449 -0.298209,0.298209 -0.711223,0.484731 -1.16421,0.484731l-18.6219 0c-0.453266,0 -0.865997,-0.185955 -1.16449,-0.484448 -0.298492,-0.298492 -0.484164,-0.711223 -0.484164,-1.16477l0 -14.591c0,-0.643757 0.0615127,-1.71187 0.47396,-2.20454 0.265043,-0.316351 0.642623,-0.516196 1.12055,-0.516196l0.00963793 0.00198428 0.0606623 0.00141734 18.6613 0.0374179 0.00396856 0 0.0277799 0.000283469 0.00198428 0c1.81307,0.0218271 1.59508,1.89811 1.57864,3.25167l-0.0189924 0.522716zm-1.00008 13.4962l0 -13.9963c0,-0.44051 -0.0141734,-1.79294 -0.20183,-2.06394 -0.108852,-0.0986471 -0.138616,-0.211751 -0.369643,-0.214302l-0.0257956 -0.000283469 -18.667 -0.0374179 -0.00963793 0 -0.0510244 -0.00113387 0 0.00170081c-0.155057,0 -0.274398,0.0609458 -0.354619,0.156758 -0.253988,0.303878 -0.239814,1.13019 -0.239814,1.5639l0 14.591c0,0.177735 0.0734184,0.340162 0.191058,0.457802 0.117639,0.117639 0.280067,0.191341 0.457518,0.191341l18.6219 0c0.176884,0 0.339595,-0.0739853 0.457235,-0.191625 0.117923,-0.117923 0.191625,-0.280634 0.191625,-0.457518z"/>
  <path class="fil20" d="M19.9862 10.0439c-5.78021,0.597552 -12.101,0.522433 -17.9404,0.30076l0.00651978 -5.1288c-0.000283469,-0.571473 0.411313,-0.8728 0.953872,-0.8728l16.086 -0.000283469c0.586213,0.000283469 0.911635,0.314367 0.911635,0.889808l-0.0175751 4.81131z"/>
  <path class="fil21" d="M2.12233 4.93576l-0.0198428 13.1518c0.0374179,0.47566 0.638088,0.822909 1.06839,0.821492l15.944 -0.0788043c0.62108,-0.0172916 0.904548,-0.433707 0.925525,-0.979951l0.0572607 -12.8978c0,-0.575441 -0.342997,-0.889525 -0.960675,-0.889808l-16.0095 0.000283469c-0.570622,0 -1.00546,0.301327 -1.00518,0.8728zm0.498054 0l-0.0198428 13.1133c0.00510244,0.0646308 0.0663317,0.137482 0.149104,0.200979 0.130112,0.100064 0.291973,0.160727 0.41925,0.16101l15.9324 -0.0788043c0.150238,-0.00396856 0.253421,-0.0450715 0.314934,-0.109986 0.0790877,-0.0836232 0.119907,-0.222239 0.126144,-0.389486l0.0572607 -12.8802 -0.00198428 0c0,-0.142018 -0.0303311,-0.241232 -0.0878753,-0.294524l0.000850406 -0.000850406c-0.0688829,-0.0626466 -0.19531,-0.0963793 -0.373612,-0.0963793l-16.0095 0.000283469 0 0.00198428 -0.000850406 0c-0.172632,0 -0.314367,0.0371344 -0.401959,0.108852 -0.063497,0.0518748 -0.102332,0.13975 -0.102332,0.263342l0 0.000566937 -0.00198428 0z"/>
  <path class="fil18" d="M2.06932 17.9597c6.65471,0 11.4252,0 18.0799,0 -0.16016,0.455818 -0.16753,0.841618 -0.93658,1.05224 -6.09939,0 -10.3149,0 -16.4143,0 -0.625615,-0.291973 -0.715758,-0.666435 -0.729081,-1.05224z"/>
  <path class="fil22" d="M1.97493 4.71663l-0.0198428 12.967c0.0374179,0.47566 0.638088,0.822909 1.06839,0.821492l16.1007 -0.0788043c0.62108,-0.0172916 0.904548,-0.433707 0.925525,-0.979951l0.0572607 -12.713c0,-0.575441 -0.342997,-0.889525 -0.960675,-0.889808l-16.1662 0.000283469c-0.571189,0 -1.00546,0.301327 -1.00518,0.8728zm2.02283 1.45136l14.1006 0 -0.0756861 9.96307 -14.1006 0 0.0756861 -9.96307z"/>
  <polygon class="fil23" points="4.61997,11.1157 5.11604,11.9743 10.2312,9.04066 10.1952,9.03188 10.2335,9.01487 5.26997,6.13653 4.77418,6.99516 8.26566,9.01118 "/>
  <polygon class="fil23" points="14.8251,12.0817 14.8251,11.1862 10.373,11.1862 10.373,12.0817 "/>
 </g>
</svg>
