<?xml version="1.0" encoding="UTF-8" standalone="no"?>
<!-- Creator: CorelDRAW -->

<svg
   xmlns:dc="http://purl.org/dc/elements/1.1/"
   xmlns:cc="http://creativecommons.org/ns#"
   xmlns:rdf="http://www.w3.org/1999/02/22-rdf-syntax-ns#"
   xmlns:svg="http://www.w3.org/2000/svg"
   xmlns="http://www.w3.org/2000/svg"
   xmlns:sodipodi="http://sodipodi.sourceforge.net/DTD/sodipodi-0.dtd"
   xmlns:inkscape="http://www.inkscape.org/namespaces/inkscape"
   xml:space="preserve"
   width="22px"
   height="22px"
   style="shape-rendering:geometricPrecision; text-rendering:geometricPrecision; image-rendering:optimizeQuality; fill-rule:evenodd; clip-rule:evenodd"
   viewBox="0 0 22 22"
   id="svg3419"
   version="1.1"
   inkscape:version="0.48.1 r9760"
   sodipodi:docname="preferences-desktop-theme.svg"><metadata
   id="metadata3562"><rdf:RDF><cc:Work
       rdf:about=""><dc:format>image/svg+xml</dc:format><dc:type
         rdf:resource="http://purl.org/dc/dcmitype/StillImage" /><dc:title></dc:title></cc:Work></rdf:RDF></metadata><sodipodi:namedview
   pagecolor="#ffffff"
   bordercolor="#666666"
   borderopacity="1"
   objecttolerance="10"
   gridtolerance="10"
   guidetolerance="10"
   inkscape:pageopacity="0"
   inkscape:pageshadow="2"
   inkscape:window-width="646"
   inkscape:window-height="480"
   id="namedview3560"
   showgrid="false"
   inkscape:zoom="12.090909"
   inkscape:cx="11"
   inkscape:cy="11"
   inkscape:window-x="0"
   inkscape:window-y="24"
   inkscape:window-maximized="0"
   inkscape:current-layer="svg3419" />
 <defs
   id="defs3421">
  <style
   type="text/css"
   id="style3423">
   
    .fil16 {fill:none}
    .fil25 {fill:#A0BF56}
    .fil38 {fill:#B07129}
    .fil21 {fill:#D0F280}
    .fil44 {fill:#DE953C}
    .fil46 {fill:#FABD52}
    .fil18 {fill:white}
    .fil40 {fill:#806F54;fill-rule:nonzero}
    .fil47 {fill:#9D6222;fill-rule:nonzero}
    .fil49 {fill:#6E6E6E;fill-rule:nonzero}
    .fil0 {fill:black;fill-opacity:0.000000}
    .fil27 {fill:#4C4C4C;fill-opacity:0.000000}
    .fil1 {fill:black;fill-opacity:0.003922}
    .fil2 {fill:black;fill-opacity:0.007843}
    .fil3 {fill:black;fill-opacity:0.015686}
    .fil4 {fill:black;fill-opacity:0.019608}
    .fil5 {fill:black;fill-opacity:0.023529}
    .fil28 {fill:#4C4C4C;fill-opacity:0.023529}
    .fil6 {fill:black;fill-opacity:0.027451}
    .fil7 {fill:black;fill-opacity:0.031373}
    .fil8 {fill:black;fill-opacity:0.035294}
    .fil9 {fill:black;fill-opacity:0.043137}
    .fil10 {fill:black;fill-opacity:0.047059}
    .fil29 {fill:#4C4C4C;fill-opacity:0.047059}
    .fil11 {fill:black;fill-opacity:0.050980}
    .fil12 {fill:black;fill-opacity:0.054902}
    .fil13 {fill:black;fill-opacity:0.058824}
    .fil30 {fill:#4C4C4C;fill-opacity:0.074510}
    .fil31 {fill:#4C4C4C;fill-opacity:0.098039}
    .fil32 {fill:#4C4C4C;fill-opacity:0.121569}
    .fil33 {fill:#4C4C4C;fill-opacity:0.145098}
    .fil34 {fill:#4C4C4C;fill-opacity:0.172549}
    .fil35 {fill:#4C4C4C;fill-opacity:0.196078}
    .fil36 {fill:#4C4C4C;fill-opacity:0.219608}
    .fil20 {fill:#396DA6;fill-opacity:0.439216}
    .fil24 {fill:#7A9A35;fill-opacity:0.501961}
    .fil39 {fill:#99876A;fill-opacity:0.501961}
    .fil45 {fill:#9D6222;fill-opacity:0.501961}
    .fil22 {fill:#EBFFBA;fill-opacity:0.501961}
    .fil41 {fill:#BFB2A4;fill-opacity:0.560784}
    .fil42 {fill:#99876A;fill-opacity:0.800000}
    .fil26 {fill:url(#id0)}
    .fil15 {fill:url(#id1)}
    .fil48 {fill:url(#id2)}
    .fil37 {fill:url(#id3)}
    .fil17 {fill:url(#id4)}
    .fil43 {fill:url(#id5)}
    .fil14 {fill:url(#id6)}
    .fil19 {fill:url(#id7);fill-rule:nonzero}
    .fil23 {fill:url(#id8);fill-rule:nonzero;fill-opacity:0.678431}
   
  </style>
  <linearGradient
   id="id0"
   gradientUnits="userSpaceOnUse"
   x1="10.5966"
   y1="18.771"
   x2="10.5966"
   y2="5.09988">
   <stop
   offset="0"
   style="stop-color:#7F7F7F"
   id="stop3426" />
   <stop
   offset="1"
   style="stop-color:#999999"
   id="stop3428" />
  </linearGradient>
  <linearGradient
   id="id1"
   gradientUnits="userSpaceOnUse"
   x1="10.6686"
   y1="3.69133"
   x2="10.2749"
   y2="11.6596">
   <stop
   offset="0"
   style="stop-color:#EDEDED"
   id="stop3431" />
   <stop
   offset="1"
   style="stop-color:#D1CFCF"
   id="stop3433" />
  </linearGradient>
  <linearGradient
   id="id2"
   gradientUnits="userSpaceOnUse"
   x1="10.6014"
   y1="19.3739"
   x2="17.0027"
   y2="12.0928">
   <stop
   offset="0"
   style="stop-color:#BFBFBF"
   id="stop3436" />
   <stop
   offset="1"
   style="stop-color:#F0F0F0"
   id="stop3438" />
  </linearGradient>
  <linearGradient
   id="id3"
   gradientUnits="userSpaceOnUse"
   x1="9.90638"
   y1="8.5463"
   x2="10.1757"
   y2="17.6961">
   <stop
   offset="0"
   style="stop-color:#F5EADD"
   id="stop3441" />
   <stop
   offset="1"
   style="stop-color:#E4D9CC"
   id="stop3443" />
  </linearGradient>
  <linearGradient
   id="id4"
   gradientUnits="userSpaceOnUse"
   x1="10.5966"
   y1="8.44793"
   x2="10.5966"
   y2="15.4227">
   <stop
   offset="0"
   style="stop-color:#5CA2DA"
   id="stop3446" />
   <stop
   offset="1"
   style="stop-color:#84C1F0"
   id="stop3448" />
  </linearGradient>
  <linearGradient
   id="id5"
   gradientUnits="userSpaceOnUse"
   x1="15.1358"
   y1="13.5444"
   x2="19.7495"
   y2="22.5236">
   <stop
   offset="0"
   style="stop-color:#A0C646"
   id="stop3451" />
   <stop
   offset="1"
   style="stop-color:#83B029"
   id="stop3453" />
  </linearGradient>
  <linearGradient
   id="id6"
   gradientUnits="userSpaceOnUse"
   x1="10.5635"
   y1="16.1946"
   x2="10.4535"
   y2="8.7056">
   <stop
   offset="0"
   style="stop-color:#B0B0B0"
   id="stop3456" />
   <stop
   offset="1"
   style="stop-color:#CCCCCC"
   id="stop3458" />
  </linearGradient>
  <linearGradient
   id="id7"
   gradientUnits="userSpaceOnUse"
   x1="10.7661"
   y1="20.0064"
   x2="10.5802"
   y2="3.89798">
   <stop
   offset="0"
   style="stop-color:#919191"
   id="stop3461" />
   <stop
   offset="1"
   style="stop-color:#C4C4C4"
   id="stop3463" />
  </linearGradient>
  <linearGradient
   id="id8"
   gradientUnits="userSpaceOnUse"
   x1="5.37967"
   y1="12.6319"
   x2="5.28045"
   y2="9.2235">
   <stop
   offset="0"
   style="stop-color:#8FB53F"
   id="stop3466" />
   <stop
   offset="1"
   style="stop-color:#A4C752"
   id="stop3468" />
  </linearGradient>
 </defs>
 <g
   id="Слой_x0020_1">
  <metadata
   id="CorelCorpID_0Corel-Layer" />
  <g
   id="_110300504">
   <path
   id="_110307824"
   class="fil0"
   d="M10.5989 18.9334c6.67313,-0.253988 9.84742,0.239248 11.3243,0.959258l0 2.1983 -21.8464 0 0 -1.70563c1.20446,-0.6293 4.00881,-1.20417 10.5221,-1.45193z" />
   <g
   id="g3474">
    <path
   id="_110308040"
   class="fil1"
   d="M10.6029 19.0514c6.7046,-0.245767 9.88285,0.283185 11.3203,1.01765l0 1.97663c-0.114238,0.0170081 -0.23698,0.0323154 -0.367092,0.045355l-21.4793 0 0 -1.57297c1.16534,-0.634119 3.95042,-1.22543 10.526,-1.46667z" />
    <path
   id="_110308448"
   class="fil2"
   d="M10.6065 19.1698c6.71849,-0.236413 9.91772,0.325705 11.3166,1.06953l0 1.72547c-0.449581,0.0728514 -1.04316,0.109702 -1.74928,0.126144l-2.59317 0c-1.88847,-0.022394 -4.1256,-0.0663317 -6.44579,0l-10.6896 0c-0.134081,-0.0187089 -0.25739,-0.0394021 -0.368509,-0.0623631l0 -1.38588c1.13217,-0.634686 3.91584,-1.24018 10.5297,-1.4729z" />
    <path
   id="_110306312"
   class="fil3"
   d="M10.6094 19.2881c6.71339,-0.225074 9.95599,0.368509 11.3138,1.11488l0 1.48084c-1.78812,0.312666 -6.21817,0.00935446 -10.947,0.142868 -0.801082,0.0226775 -1.58913,0.044788 -2.35364,0.0643474l-7.34694 0c-0.488983,-0.0340162 -0.893777,-0.081639 -1.19879,-0.145136l0 -1.18858c1.10468,-0.629867 3.91017,-1.24726 10.5326,-1.46922z" />
    <path
   id="_110306960"
   class="fil4"
   d="M10.6128 19.4065c6.68532,-0.212035 9.99851,0.409329 11.3104,1.15003l0 1.24641c-1.68721,0.319753 -6.1816,0.0317485 -10.9583,0.154774 -4.90429,0.126427 -9.3539,0.232161 -10.888,-0.0929777l0 -1.00291c1.07831,-0.620229 3.93426,-1.24584 10.536,-1.45533z" />
    <path
   id="_110305760"
   class="fil5"
   d="M10.6162 19.5248c6.63628,-0.197011 10.0535,0.448164 11.307,1.17611l0 1.02162c-1.56843,0.325139 -6.13681,0.054426 -10.97,0.16668 -4.92442,0.114521 -9.4293,0.207783 -10.8764,-0.104883l0 -0.83028c1.05053,-0.604922 3.99266,-1.23451 10.5394,-1.42925z" />
    <path
   id="_110306792"
   class="fil6"
   d="M10.6199 19.6432c6.5674,-0.18057 10.1278,0.484448 11.3033,1.19114l0 0.808453c-1.42613,0.328257 -6.08125,0.0765365 -10.9813,0.177735 -4.94993,0.102049 -9.51803,0.183121 -10.8651,-0.114521l0 -0.671821c1.01567,-0.583945 4.08393,-1.21353 10.543,-1.39098z" />
    <path
   id="_110306576"
   class="fil7"
   d="M10.6224 19.7614c6.4869,-0.161861 10.2403,0.520165 11.3008,1.19794l0 0.603221c-1.24443,0.330524 -6.00755,0.099781 -10.994,0.189074 -4.98083,0.0895761 -9.62064,0.157325 -10.8523,-0.122175l0 -0.527252c0.967478,-0.557583 4.20724,-1.18263 10.5456,-1.34081z" />
    <path
   id="_110298800"
   class="fil8"
   d="M10.6261 19.8799c6.40526,-0.142018 10.4155,0.555882 11.2971,1.19709l0 0.40451c-0.999794,0.331375 -5.9021,0.124159 -11.0054,0.201546 -5.02533,0.0762531 -9.75245,0.130679 -10.841,-0.128411l0 -0.393454c0.89321,-0.526968 4.35493,-1.14436 10.5493,-1.28128z" />
    <path
   id="_110298728"
   class="fil9"
   d="M10.6295 19.9981c6.38428,-0.121041 10.7596,0.606623 11.2937,1.20417l0 0.189074c-0.580827,0.341863 -5.70906,0.157609 -11.017,0.22309 -5.0894,0.0626466 -9.92622,0.102899 -10.8294,-0.13238l0 -0.270429c0.775854,-0.491818 4.51934,-1.09929 10.5527,-1.21353z" />
    <path
   id="_110306240"
   class="fil10"
   d="M10.6329 20.1166c6.34318,-0.0966628 11.2049,0.652545 11.216,1.18972 0.0110553,0.340729 -5.39554,0.187089 -10.9541,0.239248 -5.1957,0.0487566 -10.1873,0.0742688 -10.818,-0.134648l0 -0.150522c0.565236,-0.452983 4.67326,-1.05422 10.5561,-1.1438z" />
    <path
   id="_110297480"
   class="fil11"
   d="M10.6357 20.2348c5.8763,-0.0643474 11.0757,0.598402 11.0831,1.05819 0.00737018,0.243783 -5.36408,0.149104 -10.8364,0.183971 -5.47265,0.0348666 -10.7905,0.0436542 -10.7905,-0.144852 0,-0.407628 4.66788,-1.03296 10.5439,-1.09731z" />
    <path
   id="_110301128"
   class="fil12"
   d="M10.6394 20.3533c5.40915,-0.0323154 10.9461,0.543693 10.9498,0.926092 0.00368509,0.146837 -5.33204,0.111403 -10.7182,0.128695 -5.38647,0.0175751 -10.6956,0.0099214 -10.6956,-0.107435 0,-0.35632 5.05481,-0.91532 10.464,-0.947352z" />
   </g>
   <path
   id="_110301032"
   class="fil13"
   d="M10.6425 20.4718c4.94256,0 10.8172,0.48955 10.8172,0.794563 0,0.0994975 -21.2012,0.0955289 -21.2012,0.00311815 0,-0.305012 5.44175,-0.797681 10.384,-0.797681z" />
  </g>
  <path
   class="fil14"
   d="M1.70081 4.45471l17.615 0c0.631852,0 1.1489,0.521299 1.1489,1.14833l0 13.6932c0,0.62845 -0.517897,1.14918 -1.1489,1.14918 -7.56549,0 -4.71068,0 -17.615,0 -0.630434,0 -1.14861,-0.517047 -1.14861,-1.14918l0 -13.6932c0,-0.631852 0.516763,-1.14833 1.14861,-1.14833z"
   id="path3489" />
  <path
   class="fil15"
   d="M20.4279 9.78307c-5.06502,1.56106 -14.1062,1.15117 -19.9125,0.842469l0 -5.47009c0,-0.631852 0.516763,-1.14861 1.14833,-1.14861l17.6153 0c0.632135,0 1.1489,0.521299 1.1489,1.14861l0 4.62763z"
   id="path3491" />
  <path
   class="fil16"
   d="M0.999794 19.0403l-0.123309 0.134648m20.4404 -0.0147404l-0.138049 -0.121892"
   id="path3493" />
  <path
   class="fil17"
   d="M2.12233 5.8335l-0.0198428 12.2541c0.0374179,0.47566 0.638088,0.822909 1.06839,0.821492l14.9371 -0.0788043c0.62108,-0.0172916 0.904548,-0.433707 0.925525,-0.979951l0.0572607 -12.0001c0,-0.575441 -0.342997,-0.889525 -0.960675,-0.889808l-15.0026 0.000283469c-0.570055,0 -1.00546,0.301327 -1.00518,0.8728z"
   id="path3495" />
  <polygon
   class="fil18"
   points="0.801082,3.85631 20.5673,3.85631 20.5673,4.90061 0.801082,4.90061 "
   id="polygon3497" />
  <path
   class="fil19"
   d="M21.0028 6.73606l0 12.5985c0,0.452699 -0.185955,0.865713 -0.484731,1.16449 -0.298209,0.298209 -0.711223,0.484731 -1.16421,0.484731l-17.615 0c-0.453266,0 -0.865997,-0.185955 -1.16449,-0.484448 -0.298492,-0.298492 -0.484164,-0.711223 -0.484164,-1.16477l0 -13.6932c0,-0.643757 0.0615127,-1.71187 0.47396,-2.20454 0.265043,-0.316351 0.642623,-0.516196 1.12055,-0.516196l0.00963793 0.00198428 0.0606623 0.00141734 17.6544 0.0374179 0.00396856 0 0.0277799 0.000283469 0.00198428 0c1.81307,0.0218271 1.59508,1.89811 1.57864,3.25167l-0.0189924 0.522716zm-1.00008 12.5985l0 -13.0985c0,-0.44051 -0.0141734,-1.79294 -0.20183,-2.06394 -0.108852,-0.0986471 -0.138616,-0.211751 -0.369643,-0.214302l-0.0257956 -0.000283469 -17.6601 -0.0374179 -0.00963793 0 -0.0510244 -0.00113387 0 0.00170081c-0.155057,0 -0.274398,0.0609458 -0.354619,0.156758 -0.253988,0.303878 -0.239814,1.13019 -0.239814,1.5639l0 13.6932c0,0.177735 0.0734184,0.340162 0.191058,0.457802 0.117639,0.117639 0.280067,0.191341 0.457518,0.191341l17.615 0c0.176884,0 0.339595,-0.0739853 0.457235,-0.191625 0.117923,-0.117923 0.191625,-0.280634 0.191625,-0.457518z"
   id="path3499" />
  <path
   class="fil20"
   d="M2.12233 5.8335l0.0501739 12.0443c0.0374179,0.47566 0.638088,0.822909 1.06839,0.821492l14.9371 -0.0788043c0.62108,-0.0172916 0.904548,-0.433707 0.925525,-0.979951l-0.0127561 -11.7903c0,-0.575441 -0.342997,-0.889525 -0.960675,-0.889808l-15.0026 0.000283469c-0.570055,0 -1.00546,0.301327 -1.00518,0.8728zm0.995825 0.127277l0.0507409 11.1809c0.0280634,0.0164412 0.0530086,0.0263626 0.0697333,0.027213l14.8688 -0.0785208 0 -0.00822059 0 0.523283 -0.0130396 -11.6489 -14.9669 0.000283469 0 0.00396856 -0.000850406 0 -0.00850406 0zm14.9997 11.7064c-0.00822059,0.0099214 -0.0124726,0.0147404 -0.00170081,0.00340162l0.00170081 -0.00340162zm-0.0232444 -11.8138l0 -0.00311815 -0.00396856 0 0.00396856 0.00311815zm0.0643474 0.0620796l0.0045355 0.0045355 0.00113387 -0.00113387 -0.00566937 -0.00340162z"
   id="path3501" />
  <path
   class="fil21"
   d="M2.04523 14.248c0.142018,-0.422935 0.122458,-3.44755 0.524984,-3.87757 0.402242,-0.430589 0.397423,-0.977967 1.25917,-0.382683 2.23742,1.54632 -0.100064,4.14715 1.4936,4.15848 1.18206,0.00850406 -0.578276,-2.34117 0.900296,-3.45662 1.91455,-1.67388 2.29751,0.493802 2.94467,0.0351501 0.378998,-0.268161 1.32805,-0.587347 2.19376,-1.10241 0.437392,-0.260791 0.793712,-1.01737 1.16761,-0.93658 1.11346,0.239814 1.31983,0.192475 1.48481,0.721144 0.164979,0.528386 0.575158,1.52931 0.701018,1.97039 0.0827728,0.289421 -0.364824,-1.88932 2.56199,-1.74588 0.593016,0.0286303 1.046,2.57021 1.38106,2.55519l-0.149955 -5.95227c0,-0.476511 -0.244633,-0.737585 -0.685144,-0.738152l-15.0122 -0.0153073c-0.411313,-0.000566937 -0.715758,0.249736 -0.715758,0.724262l-0.0498905 8.04286z"
   id="path3503" />
  <path
   class="fil22"
   d="M2.04523 13.6635l0.00368509 -0.0119057c0.0238114,-3.91073 0.0771035,-1.90859 0.16753,-2.00554 0.179719,-0.72568 0.259374,-0.449298 0.712924,-2.10787 0.248319,-0.227342 0.715475,-0.516763 1.05592,-0.299059 0.340162,0.217987 0.292256,0.305863 0.372194,0.38495 0.134931,0.0924108 0.571189,-0.356037 0.682026,-0.247752 -0.185388,-0.370493 -0.735318,-0.16753 -1.03835,-0.361706 -1.02814,-0.657647 -1.12735,-0.252004 -1.5639,0.257956l-0.00113387 -0.00113387 -0.141167 0.161861c0,1.16676 -0.242082,2.89932 -0.249736,4.2302zm3.47533 -3.14253l0.0155908 -0.0141734c0.596418,-0.521299 1.18065,-0.311815 1.59735,-0.559567 0.65056,-0.386368 1.5982,0.500889 2.03445,0.193042 0.0827728,-0.058678 0.21005,-0.100915 0.365391,-0.135498 -0.117639,0.0552764 -0.225924,0.108285 -0.323721,0.16016l-0.0450715 -0.0394021c-0.85976,-0.910501 -2.32104,-2.02255 -3.27321,0.000566937 -0.0589615,0.0518748 -0.164412,0.173199 -0.288855,0.332225l-0.0819224 0.0626466zm5.9432 -0.968612c0.067749,-0.032032 0.134081,-0.0666151 0.197861,-0.104883 0.132663,-0.0790877 0.23046,-0.241515 0.312949,-0.427754 -0.162428,0.180003 -0.329674,0.392037 -0.51081,0.532638zm0.848138 -1.33315c0.0609458,-0.0884422 0.130679,-0.136348 0.217137,-0.117923 0.832264,0.179436 1.15797,0.198712 1.33797,0.416982 0.272697,0.120191 0.400825,0.306997 0.531504,0.725963 0.0683159,0.219688 0.184538,0.531504 0.302178,0.848138 0.130112,-0.186806 0.0595284,-0.558717 0.296225,-0.709239 0.361139,-0.328824 1.22402,-0.386935 2.28022,-0.336194 0.0935446,0.0045355 0.185388,0.0734184 0.272697,0.185105 0.445329,0.248035 0.731349,1.05649 0.982502,1.76573 0.0785208,0.222806 0.053859,0.433707 0.0493235,0.567504 0.0260791,0.0249452 0.0518748,0.0377013 0.0765365,0.0365675l-0.0158742 -0.475377c-0.1389,0.00623631 0.0226775,-0.336761 -0.109986,-0.713207 -0.468007,-0.676923 -0.728514,-1.86664 -1.16449,-2.04664 -1.48141,-0.0728514 -2.2961,0.608607 -2.66716,1.14124 -0.117639,-0.316634 -0.233862,-0.62845 -0.302178,-0.847855 -0.221106,-0.708672 -0.435124,-0.752609 -1.35101,-0.936013l-0.448164 -0.0926942 0 0.00113387c-0.329107,-0.0691663 -0.398273,0.353202 -0.552764,0.711506 0.0836232,-0.0581111 0.170932,-0.102049 0.265327,-0.124726zm-1.50777 1.18547c-0.119624,0.0615127 -0.242082,0.120474 -0.391187,0.187089 -0.0572607,0.0260791 -0.115372,0.0569772 -0.174333,0.0921273 0.182554,-0.0853241 0.373328,-0.177735 0.56552,-0.279217z"
   id="path3505" />
  <path
   class="fil23"
   d="M2.06875 10.4132c0.0592449,-0.176601 0.129262,-0.316918 0.213452,-0.407344l-0.000283469 -0.00113387c0.0666151,-0.0717176 0.126144,-0.158459 0.179436,-0.23698 0.348666,-0.512795 0.57941,-0.851256 1.57325,-0.215436 1.62824,1.04203 0.430305,1.88818 1.94828,0.728231 1.47574,-1.28213 2.21843,-0.643474 2.76694,-0.171499 0.116506,0.101198 0.184822,0.200979 0.197861,0.191908 0.210901,-0.149388 0.530086,-0.293957 0.908517,-0.464889 0.393454,-0.177168 0.85976,-0.388635 1.31189,-0.65708l0.000850406 0.00141734c0.117073,-0.0697333 0.259941,-0.232728 0.394872,-0.386935 0.309831,-0.35547 0.602654,-0.688262 1.03891,-0.596135l0 -0.00113387 0.448164 0.0924108 0 0.000566937c0.923257,0.185105 1.13954,0.229043 1.36348,0.948203 0.0668986,0.213452 0.177168,0.511944 0.290555,0.81639 0.380131,-0.526401 1.12395,-0.989872 2.58864,-0.918438 0.608607,0.0294807 0.956423,1.01227 1.25463,1.85502 0.130396,0.369076 -0.0569772,0.706971 0.0935446,0.700168l0.0164412 0.495787c-0.33506,0.0153073 -0.788043,-2.52627 -1.38106,-2.5549 -2.9271,-0.143435 -2.47922,2.0353 -2.56199,1.74588 -0.12586,-0.441077 -0.535756,-1.442 -0.701018,-1.97039 -0.164979,-0.528669 -0.37106,-0.48133 -1.48509,-0.721144 -0.373612,-0.0807886 -0.729932,0.675789 -1.16732,0.93658 -0.86543,0.515062 -1.81477,0.834248 -2.19376,1.10241 -0.647159,0.458652 -1.03012,-1.70903 -2.94439,-0.0351501 -1.47886,1.11545 0.281201,3.46399 -0.90058,3.45662 -1.77792,-0.0113387 0.813271,-2.61131 -1.4936,-4.15848 -0.867981,-0.581961 -0.856926,-0.0479062 -1.25917,0.382683 -0.402525,0.429738 -0.382683,3.45492 -0.524984,3.87728l0.0235279 -3.83448zm3.06798 2.66631c-0.0212601,0.164128 -0.0371344,0.312382 -0.0377013,0.429171 0,0.0626466 0.159309,0.141734 0.225641,0.141734 0.00226775,0 0.00368509,-0.0141734 0.00368509,-0.0334493 0.000566937,-0.12501 -0.162994,-0.339028 -0.191625,-0.537457z"
   id="path3507" />
  <path
   class="fil24"
   d="M17.8415 5.23425l-0.0232444 0 -14.9459 -0.018142 -0.0218271 0c-0.4544,0.00850406 -0.792862,0.292823 -0.792295,0.824327l0.0235279 7.27891c0.0873083,0.151089 0.0238114,0.383533 0.109419,0.388635l-0.0663317 -1.66991 0.223657 -5.95993 0.00141734 0 0 -0.00113387c0,-0.12671 0.0348666,-0.218271 0.0915604,-0.272413l0.00198428 0c0.07682,-0.0734184 0.199562,-0.111687 0.348099,-0.111687l0.00141734 0 0 -0.00170081 15.2152 0.0187089c0.153923,0 0.26561,0.0360005 0.32769,0.102616l0 -0.000566937c0.0501739,0.0558433 0.0773869,0.157892 0.0773869,0.301894l0.00141734 0 0.000850406 0.732766 0.181136 -0.772735c0,-0.533771 -0.269012,-0.829429 -0.75516,-0.839634z"
   id="path3509" />
  <path
   class="fil25"
   d="M18.665 5.6929l-16.7791 0c0.0187089,-0.535472 0.377013,-0.562402 0.851256,-0.562402l15.1151 0.0187089c0.498621,0.000566937 0.786058,0.0263626 0.812705,0.543693z"
   id="path3511" />
  <path
   class="fil21"
   d="M5.24814 9.7825c-0.140884,-1.2243 -0.249736,3.61961 -0.12501,3.78374 0.12501,0.164128 0.422085,0.18227 0.422085,-0.219972 0,-0.402242 -0.297075,-3.56377 -0.297075,-3.56377z"
   id="path3513" />
  <path
   class="fil26"
   d="M2.12233 5.8335l-0.0198428 12.2541c0.0374179,0.47566 0.638088,0.822909 1.06839,0.821492l14.9371 -0.0788043c0.62108,-0.0172916 0.904548,-0.433707 0.925525,-0.979951l0.0572607 -12.0001c0,-0.575441 -0.342997,-0.889525 -0.960675,-0.889808l-15.0026 0.000283469c-0.570055,0 -1.00546,0.301327 -1.00518,0.8728zm0.498054 0l-0.0198428 12.2155c0.00510244,0.0646308 0.0663317,0.137482 0.149104,0.200979 0.130112,0.100064 0.291973,0.160727 0.41925,0.16101l14.9255 -0.0788043c0.150238,-0.00396856 0.253421,-0.0450715 0.314934,-0.109986 0.0790877,-0.0836232 0.119907,-0.222239 0.126144,-0.389486l0.0572607 -11.9825 -0.00198428 0c0,-0.142018 -0.0303311,-0.241232 -0.0878753,-0.294524l0.000850406 -0.000850406c-0.0688829,-0.0626466 -0.19531,-0.0963793 -0.373612,-0.0963793l-15.0026 0.000283469 0 0.00198428 -0.000850406 0c-0.172632,0 -0.314367,0.0371344 -0.401959,0.108852 -0.063497,0.0518748 -0.102332,0.13975 -0.102332,0.263342l0 0.000566937 -0.00198428 0z"
   id="path3515" />
  <path
   class="fil18"
   d="M2.06932 17.9597c6.65471,0 10.4183,0 17.073,0 -0.16016,0.455818 -0.16753,0.841618 -0.93658,1.05224 -6.09939,0 -9.30798,0 -15.4074,0 -0.625615,-0.291973 -0.715758,-0.666435 -0.729081,-1.05224z"
   id="path3517" />
  <g
   id="_110303600">
   <path
   id="_110297360"
   class="fil27"
   d="M3.23041 15.438c0.951037,1.73851 1.69571,3.57 2.48517,5.067 0.0941116,0.178302 0.174333,0.344414 0.245484,0.499755l7.87929 0 -0.184538 -0.192192 0.000566937 -0.00141734c-0.505991,-0.52385 -0.819791,-0.849555 -0.594434,-1.11828 0.536606,-0.640923 1.2501,-1.20503 1.74106,-1.59338 0.283752,-0.225358 0.502306,-0.397706 0.598969,-0.537173l0.0153073 -0.00963793 0.141167 -0.0904265 -0.063497 -0.156475 -0.354619 -0.876485 0.035717 -0.022394 -0.0745522 -0.161577 -0.290272 -0.631001 -0.182837 -0.451849 -0.0793712 -0.196727 -0.0286303 0.0184255 -0.291689 -0.633269 -0.0839067 -0.182837 -0.159876 0.101482 -0.802783 -1.74305 0 0 -1.20871 -2.6252 -3.23296 2.04778 0.0527252 -0.10545 -0.544827 0.416699 -5.01796 3.17768z" />
   <g
   id="g3521">
    <path
   id="_110297240"
   class="fil28"
   d="M3.31432 15.2903c0.994975,1.70676 1.78699,3.51189 2.61301,4.98253 0.15279,0.270996 0.273264,0.514212 0.372478,0.731916l8.17722 0c-0.222239,-0.241232 -0.435975,-0.451849 -0.627033,-0.640356 0,-0.000566937 0,-0.00113387 0.000566937,-0.00113387 -0.518748,-0.508826 -0.840201,-0.825177 -0.623064,-1.09872 0.517614,-0.653112 1.21325,-1.23507 1.69202,-1.63476 0.276949,-0.232444 0.490117,-0.410463 0.582245,-0.551913 0.00510244,-0.00311815 0.0102049,-0.00708672 0.0153073,-0.0102049 0.0459219,-0.0311815 0.0924108,-0.0623631 0.138333,-0.0935446 -0.022961,-0.0515913 -0.045355,-0.103183 -0.0674655,-0.154774 -0.126144,-0.287721 -0.252287,-0.576008 -0.377013,-0.863729 0.0107718,-0.00765365 0.022961,-0.0158742 0.0342997,-0.022961 -0.0260791,-0.0532921 -0.0521582,-0.106868 -0.0782373,-0.159026 -0.101765,-0.207499 -0.204381,-0.414431 -0.306146,-0.621363 -0.0649143,-0.148254 -0.129829,-0.297359 -0.194743,-0.445613 -0.0280634,-0.0643474 -0.0566937,-0.129262 -0.0847571,-0.193326 -0.00878753,0.00566937 -0.0184255,0.0124726 -0.0280634,0.0189924 -0.102332,-0.208066 -0.204948,-0.416415 -0.30728,-0.623064 -0.0291973,-0.0606623 -0.0592449,-0.120474 -0.0884422,-0.180286 -0.0530086,0.0351501 -0.105167,0.0700168 -0.156758,0.105167 -0.282618,-0.571756 -0.565236,-1.14408 -0.847288,-1.71499 0,0 0,0 0,0 -0.425203,-0.861178 -0.850406,-1.72321 -1.27561,-2.58382 -1.05592,0.709239 -2.11127,1.41819 -3.16691,2.12857 0.0161577,-0.036284 0.0331658,-0.0711506 0.0498905,-0.106868 -0.177735,0.143152 -0.354619,0.286587 -0.531504,0.430305 -1.6393,1.10071 -3.27661,2.20198 -4.91506,3.30298z" />
    <path
   id="_110299592"
   class="fil29"
   d="M3.39765 15.1435c1.03891,1.6753 1.87798,3.45463 2.74228,4.8989 0.222806,0.372194 0.382683,0.692514 0.506842,0.962376l8.46239 0c-0.373045,-0.442495 -0.749208,-0.793145 -1.06499,-1.0871 0,-0.000850406 0,-0.00141734 0,-0.00141734 -0.530937,-0.492668 -0.860044,-0.799382 -0.65056,-1.07888 0.497771,-0.665301 1.17639,-1.26427 1.64298,-1.67672 0.269862,-0.238681 0.477361,-0.422652 0.565803,-0.565803 0.0045355,-0.00396856 0.00963793,-0.00708672 0.0147404,-0.0102049 0.0450715,-0.0331658 0.0904265,-0.0657647 0.135498,-0.0975132 -0.0246618,-0.0510244 -0.0481897,-0.101765 -0.072001,-0.152223 -0.133514,-0.283752 -0.266461,-0.567788 -0.399691,-0.85154 0.0116222,-0.00822059 0.022961,-0.0167246 0.0342997,-0.0240948 -0.0277799,-0.0524417 -0.0552764,-0.1046 -0.0824894,-0.156758 -0.107718,-0.20353 -0.215153,-0.407344 -0.322871,-0.610308 -0.0688829,-0.14712 -0.137482,-0.293673 -0.205515,-0.439376 -0.0300477,-0.063497 -0.0606623,-0.127277 -0.0898596,-0.191058 -0.00878753,0.00595284 -0.0184255,0.0127561 -0.0274965,0.0198428 -0.108002,-0.204948 -0.216287,-0.409329 -0.324005,-0.61371 -0.0311815,-0.0592449 -0.0623631,-0.117639 -0.0935446,-0.176884 -0.0507409,0.036284 -0.102332,0.0731349 -0.15279,0.109419 -0.297926,-0.562685 -0.595001,-1.12537 -0.891792,-1.68749 0,0 0,0 0,0 -0.447313,-0.847855 -0.895477,-1.69514 -1.34307,-2.54243 -1.03296,0.735885 -2.06677,1.47234 -3.10058,2.20907 0.0153073,-0.036284 0.0311815,-0.072001 0.0470558,-0.107718 -0.173199,0.147687 -0.346399,0.295374 -0.518748,0.443628 -1.60415,1.14266 -3.20773,2.28532 -4.81188,3.42799z" />
    <path
   id="_110297024"
   class="fil30"
   d="M3.48043 14.9969c1.08285,1.64355 1.96897,3.39595 2.87097,4.81443 0.309264,0.485582 0.504291,0.881587 0.651127,1.1934l3.19242 0c0.525834,-0.209483 0.659348,-0.218838 0.797681,0l4.72939 0c-0.101765,-0.134364 -0.202964,-0.260224 -0.303028,-0.37673 -0.413014,-0.480763 -0.833681,-0.850406 -1.18206,-1.1574 0,-0.000566937 0,-0.00113387 0.000850406,-0.00113387 -0.543693,-0.477361 -0.880454,-0.77472 -0.679191,-1.05876 0.479345,-0.67834 1.13926,-1.2946 1.59394,-1.71867 0.262775,-0.246334 0.465172,-0.434841 0.549362,-0.580544 0.00481897,-0.00368509 0.00935446,-0.00765365 0.0144569,-0.0107718 0.0439376,-0.0337328 0.0878753,-0.0674655 0.13238,-0.100631 -0.0255122,-0.0501739 -0.0507409,-0.100631 -0.0756861,-0.150238 -0.1406,-0.2795 -0.282051,-0.559567 -0.422085,-0.838784 0.0107718,-0.00850406 0.022394,-0.0172916 0.0331658,-0.0249452 -0.0286303,-0.0515913 -0.0578276,-0.103183 -0.0864579,-0.153923 -0.112821,-0.200696 -0.226208,-0.401108 -0.338745,-0.600953 -0.072568,-0.144569 -0.145136,-0.289138 -0.217704,-0.432857 -0.0317485,-0.0623631 -0.0637804,-0.125577 -0.094962,-0.18794 -0.00878753,0.00651978 -0.0178585,0.013323 -0.0266461,0.0204097 -0.113387,-0.20183 -0.226491,-0.402809 -0.339879,-0.603505 -0.0325989,-0.0578276 -0.0654813,-0.116506 -0.0980801,-0.173766 -0.0501739,0.0377013 -0.100631,0.0751192 -0.150238,0.112821 -0.311815,-0.553331 -0.623914,-1.10694 -0.93573,-1.66028 0,0 0,0 0,0 -0.470274,-0.833114 -0.940265,-1.66708 -1.40997,-2.50019 -1.01142,0.763098 -2.02283,1.52563 -3.03453,2.28958 0.0141734,-0.0368509 0.0294807,-0.072568 0.0439376,-0.108852 -0.168664,0.152223 -0.337328,0.304162 -0.505425,0.456951 -1.57042,1.18405 -3.13885,2.36866 -4.70926,3.55328z" />
    <path
   id="_110296880"
   class="fil31"
   d="M3.56405 14.8498c1.1265,1.61265 2.05912,3.33898 2.99995,4.73024 0.416982,0.617678 0.639789,1.09107 0.809019,1.42471l2.29808 0 0.60719 -0.269295c0.886123,-0.39147 0.834532,-0.320036 1.15145,0.269295l4.89012 0c-0.218271,-0.319469 -0.453833,-0.611725 -0.67664,-0.857493 -0.42577,-0.46829 -0.856075,-0.826878 -1.21211,-1.12339 0,-0.000566937 0,-0.00141734 0.000850406,-0.00141734 -0.556449,-0.462054 -0.900863,-0.749775 -0.708105,-1.03863 0.460353,-0.690813 1.10326,-1.32408 1.54519,-1.76091 0.255689,-0.252571 0.452983,-0.446747 0.533204,-0.594434 0.0045355,-0.00396856 0.009071,-0.00765365 0.0141734,-0.0116222 0.0425203,-0.0348666 0.085891,-0.0691663 0.129262,-0.10375 -0.0269295,-0.049607 -0.0535756,-0.099214 -0.0796547,-0.148254 -0.148254,-0.274965 -0.296792,-0.550496 -0.444479,-0.826311 0.0102049,-0.00878753 0.0218271,-0.0175751 0.0325989,-0.0260791 -0.0306146,-0.0501739 -0.0612292,-0.101198 -0.0909934,-0.150805 -0.11849,-0.197294 -0.236696,-0.394588 -0.354619,-0.591316 -0.0771035,-0.142018 -0.153357,-0.284603 -0.229043,-0.42577 -0.0337328,-0.0617962 -0.0674655,-0.124159 -0.100064,-0.185388 -0.00878753,0.00651978 -0.0178585,0.013323 -0.0260791,0.0209767 -0.119057,-0.198428 -0.238114,-0.395722 -0.356604,-0.5933 -0.0342997,-0.0572607 -0.0685994,-0.114521 -0.102332,-0.171215 -0.049607,0.0388352 -0.0986471,0.0776704 -0.14712,0.117356 -0.327123,-0.54426 -0.653679,-1.08937 -0.980235,-1.63278 0,0 0,0 0,0 -0.492668,-0.820075 -0.98477,-1.63987 -1.47687,-2.45909 -0.989872,0.790027 -1.97889,1.57977 -2.9682,2.37036 0.0127561,-0.0374179 0.0266461,-0.0737018 0.0408195,-0.109986 -0.164412,0.156475 -0.32854,0.313233 -0.492668,0.470274 -1.53612,1.226 -3.07025,2.452 -4.60608,3.67801z" />
    <path
   id="_110300264"
   class="fil32"
   d="M3.64852 14.7035c1.17073,1.58062 2.14983,3.28087 3.12864,4.64633 0.561551,0.78294 0.790027,1.33542 0.993841,1.65489l1.47659 0c0.329107,-0.149671 0.743538,-0.350084 1.27504,-0.602087 1.00773,-0.478779 0.790027,-0.310682 1.34137,0.536606l0.0433707 0.0654813 4.99358 0 -0.0592449 -0.0955289c-0.294524,-0.470274 -0.647159,-0.903131 -0.972581,-1.24188 -0.438526,-0.456951 -0.878469,-0.80335 -1.24244,-1.08965 0,-0.000850406 0,-0.00141734 0,-0.00141734 -0.567788,-0.446747 -0.921273,-0.725113 -0.735318,-1.01964 0.44051,-0.702719 1.06556,-1.35413 1.49586,-1.80229 0.248885,-0.259657 0.439943,-0.459503 0.516196,-0.609741 0.0045355,-0.00368509 0.009071,-0.00765365 0.0136065,-0.0107718 0.0425203,-0.036284 0.0844737,-0.072568 0.127277,-0.108285 -0.0286303,-0.0481897 -0.0561268,-0.0966628 -0.0841902,-0.145136 -0.155908,-0.271846 -0.311815,-0.542842 -0.467156,-0.814122 0.0107718,-0.00878753 0.0209767,-0.0178585 0.0317485,-0.0266461 -0.0317485,-0.0504574 -0.06293,-0.099214 -0.0946785,-0.149104 -0.123592,-0.194176 -0.247185,-0.386935 -0.371344,-0.580544 -0.0799382,-0.1406 -0.16016,-0.280067 -0.240381,-0.420101 -0.0351501,-0.0609458 -0.0700168,-0.121608 -0.105167,-0.182554 -0.00822059,0.00708672 -0.0164412,0.0144569 -0.0255122,0.0215436 -0.124159,-0.194176 -0.248035,-0.388919 -0.372194,-0.583095 -0.035717,-0.0558433 -0.0714341,-0.11197 -0.107718,-0.168097 -0.0476227,0.0402525 -0.0955289,0.081072 -0.143152,0.121041 -0.341863,-0.535189 -0.683726,-1.07009 -1.02559,-1.60472 0,0 0,0 0,0 -0.514212,-0.805901 -1.02927,-1.6118 -1.54349,-2.4177 -0.966911,0.816673 -1.93467,1.63335 -2.90215,2.45087 0.0127561,-0.0371344 0.0255122,-0.0739853 0.0382683,-0.110836 -0.160443,0.16101 -0.32032,0.32202 -0.479345,0.483031 -1.50182,1.26824 -3.00193,2.53619 -4.50375,3.80415z" />
    <path
   id="_110300000"
   class="fil33"
   d="M3.73186 14.5564c1.21466,1.54944 2.24082,3.22361 3.2579,4.56214 0.805334,1.06074 0.963793,1.69911 1.28581,1.8862l0.536606 0c0.378998,-0.120191 0.959541,-0.429738 1.9531,-0.93573 0.994975,-0.506558 0.781806,-0.332225 1.3564,0.500322 0.0969463,0.1406 0.204381,0.286587 0.319753,0.435408l5.01286 0c-0.1046,-0.205515 -0.223657,-0.407344 -0.353485,-0.602087 -0.30813,-0.462904 -0.672671,-0.886123 -1.00745,-1.2158 -0.451566,-0.445046 -0.900863,-0.779822 -1.27249,-1.0562 0,-0.000566937 0,-0.00113387 0,-0.00113387 -0.580544,-0.431723 -0.941683,-0.700168 -0.763948,-1.00008 0.421234,-0.714908 1.02927,-1.38333 1.44682,-1.84425 0.241799,-0.265894 0.427754,-0.471692 0.500322,-0.623631 0.00396856,-0.00396856 0.00822059,-0.00765365 0.0127561,-0.0116222 0.0413864,-0.0374179 0.0827728,-0.0742688 0.124159,-0.111403 -0.0300477,-0.0476227 -0.058678,-0.0952455 -0.0878753,-0.143152 -0.163561,-0.267311 -0.326556,-0.534055 -0.48955,-0.801366 0.0102049,-0.00963793 0.0204097,-0.0184255 0.0311815,-0.0280634 -0.0337328,-0.0490401 -0.0660482,-0.0972297 -0.099214,-0.145703 -0.129262,-0.191058 -0.257956,-0.380698 -0.386935,-0.570906 -0.0847571,-0.138333 -0.168664,-0.275815 -0.252287,-0.413297 -0.0368509,-0.0603788 -0.0737018,-0.120191 -0.109986,-0.180003 -0.00822059,0.00680325 -0.0164412,0.0144569 -0.0249452,0.0221106 -0.129829,-0.190774 -0.259657,-0.381832 -0.388919,-0.57289 -0.0374179,-0.0552764 -0.0742688,-0.109986 -0.11197,-0.165546 -0.0470558,0.0413864 -0.0935446,0.0836232 -0.140034,0.125577 -0.35717,-0.526401 -0.713491,-1.05224 -1.07009,-1.5775 0,0 0,0 0,0 -0.536606,-0.792578 -1.07378,-1.58431 -1.61039,-2.37632 -0.945368,0.843603 -1.89074,1.68749 -2.83582,2.53166 0.0113387,-0.0374179 0.022961,-0.0751192 0.0348666,-0.11197 -0.155908,0.165546 -0.311249,0.331091 -0.466589,0.496354 -1.46723,1.31019 -2.93333,2.61953 -4.40057,3.92888z" />
    <path
   id="_110297888"
   class="fil34"
   d="M3.81464 14.4101c1.2586,1.51741 2.33181,3.16493 3.3866,4.47739 1.713,2.13197 0.655663,2.56171 3.80585,0.847855 0.982219,-0.534055 0.773586,-0.353769 1.37199,0.463471 0.187089,0.255405 0.408478,0.528952 0.654246,0.805901l4.93405 0c-0.144002,-0.380698 -0.359722,-0.757428 -0.60804,-1.10893 -0.320886,-0.454967 -0.698183,-0.868264 -1.04203,-1.18972 -0.464038,-0.433424 -0.923541,-0.755444 -1.30367,-1.02219 0,-0.000566937 0,-0.00141734 0.000566937,-0.00141734 -0.5933,-0.416132 -0.961809,-0.675222 -0.792295,-0.979668 0.402809,-0.728231 0.99214,-1.41366 1.39778,-1.88592 0.234712,-0.273831 0.415565,-0.483881 0.483597,-0.638655 0.0045355,-0.00368509 0.00850406,-0.00822059 0.0127561,-0.0119057 0.0402525,-0.0382683 0.0802216,-0.0765365 0.121041,-0.114521 -0.0306146,-0.0473393 -0.0612292,-0.0943951 -0.0915604,-0.141451 -0.170648,-0.262775 -0.341863,-0.525834 -0.511944,-0.78861 0.00963793,-0.00963793 0.0198428,-0.0192759 0.0300477,-0.0286303 -0.0342997,-0.0484731 -0.0688829,-0.0960959 -0.103183,-0.143435 -0.134364,-0.187656 -0.268728,-0.374179 -0.402809,-0.561268 -0.0887257,-0.135781 -0.176317,-0.271279 -0.264193,-0.406777 -0.0388352,-0.0592449 -0.0771035,-0.11849 -0.115372,-0.176884 -0.00822059,0.00765365 -0.0158742,0.0150238 -0.0240948,0.0226775 -0.134931,-0.187656 -0.269862,-0.375312 -0.404793,-0.562685 -0.0388352,-0.0541425 -0.0776704,-0.108852 -0.116506,-0.162144 -0.0464889,0.0425203 -0.0918438,0.0853241 -0.137482,0.128411 -0.371344,-0.516763 -0.742404,-1.03381 -1.11403,-1.55001 0,0 0,0 0,0 -0.559567,-0.777838 -1.11857,-1.55624 -1.67728,-2.33408 -0.923824,0.870816 -1.8468,1.74078 -2.76977,2.61245 0.0102049,-0.0382683 0.0209767,-0.0759696 0.0317485,-0.113387 -0.151372,0.169798 -0.302178,0.339879 -0.452983,0.50996 -1.43378,1.35129 -2.86473,2.70259 -4.29823,4.05417z" />
    <path
   id="_110296376"
   class="fil35"
   d="M3.89798 14.2636c1.30254,1.48651 2.42281,3.10767 3.51586,4.39433 1.77395,2.08831 0.726814,2.54725 3.8359,0.745239 0.969463,-0.562685 0.765082,-0.376163 1.38701,0.42662 0.286587,0.369643 0.649143,0.776421 1.0528,1.17498l4.73166 0 -0.0107718 -0.0510244c-0.125577,-0.535756 -0.427187,-1.07633 -0.792578,-1.5639 -0.333643,-0.446747 -0.722562,-0.850973 -1.07661,-1.16364 -0.476511,-0.421234 -0.945084,-0.731916 -1.33344,-0.988455 0,-0.000850406 0,-0.00141734 0,-0.00141734 -0.605489,-0.400258 -0.981652,-0.649994 -0.819791,-0.959825 0.382966,-0.74042 0.955289,-1.44314 1.34874,-1.92815 0.227909,-0.280067 0.402809,-0.495787 0.467156,-0.652545 0.00396856,-0.00425203 0.00765365,-0.00822059 0.0121892,-0.0119057 0.0394021,-0.0402525 0.0782373,-0.0796547 0.11849,-0.11849 -0.0325989,-0.0464889 -0.0643474,-0.0929777 -0.0960959,-0.1389 -0.178302,-0.25909 -0.356604,-0.51733 -0.534905,-0.776421 0.0102049,-0.0102049 0.0198428,-0.0198428 0.0300477,-0.0300477 -0.036284,-0.0470558 -0.072001,-0.0935446 -0.107718,-0.1406 -0.140034,-0.183971 -0.2795,-0.367375 -0.419534,-0.55078 -0.0921273,-0.134081 -0.183971,-0.267311 -0.274965,-0.400258 -0.040536,-0.058678 -0.0807886,-0.116506 -0.120191,-0.174333 -0.00822059,0.00765365 -0.0158742,0.0153073 -0.0235279,0.0235279 -0.1406,-0.184538 -0.281484,-0.368509 -0.421518,-0.553331 -0.040536,-0.0527252 -0.0807886,-0.106301 -0.121608,-0.159026 -0.0445046,0.0439376 -0.0890091,0.0884422 -0.133514,0.132947 -0.386368,-0.507976 -0.772169,-1.0151 -1.15854,-1.52251 0,0 0,0 0,0 -0.581961,-0.764515 -1.16364,-1.52846 -1.74475,-2.29298 -0.900863,0.897745 -1.80229,1.79521 -2.70344,2.69267 0.00935446,-0.0382683 0.0189924,-0.0762531 0.0291973,-0.113954 -0.14712,0.174333 -0.29424,0.34895 -0.44051,0.523283 -1.39863,1.39353 -2.79585,2.78621 -4.19505,4.17889z" />
   </g>
   <path
   id="_110296232"
   class="fil36"
   d="M3.98075 14.1179c1.34648,1.45448 2.51465,3.04984 3.64512,4.30957 1.83574,2.04579 0.798248,2.53478 3.86623,0.642907 0.95699,-0.590182 0.756861,-0.39799 1.40232,0.390053 0.399124,0.486999 0.938281,1.03693 1.52648,1.54434l4.3725 0c-0.000566937,-0.189641 -0.0286303,-0.381832 -0.0793712,-0.574874 -0.140884,-0.533204 -0.457802,-1.06754 -0.837083,-1.54604 -0.346966,-0.439376 -0.748074,-0.833965 -1.11091,-1.13756 -0.48955,-0.409329 -0.968045,-0.707821 -1.36405,-0.954722l0 -0.00141734c-0.618245,-0.385234 -1.00206,-0.625048 -0.848705,-0.940265 0.364257,-0.752326 0.918722,-1.4729 1.29999,-1.96954 0.220822,-0.28687 0.390903,-0.508543 0.450715,-0.667002l0.0121892 -0.0127561 0.115088 -0.121608 -0.100064 -0.136915 -0.556732 -0.763664 0.0286303 -0.0306146 -0.111403 -0.138049 -0.435408 -0.541142 -0.287154 -0.394021 -0.125577 -0.171215 -0.0226775 0.0240948 -0.437392 -0.542842 -0.126144 -0.156758 -0.130396 0.136915 -1.20304 -1.49473 0 0 -1.81165 -2.25131 -2.63739 2.77346 0.0260791 -0.115372 -0.426904 0.536606 -4.09329 4.30447z" />
  </g>
  <path
   class="fil37"
   d="M3.94985 14.9082c1.69684,1.31048 3.87502,2.2085 5.57158,3.51898 2.26718,-2.7488 4.53465,-5.49787 6.80183,-8.24667 -1.61946,-1.47744 -3.23863,-3.57397 -4.8578,-5.05113 -2.96281,2.57163 -5.58348,6.31256 -7.5156,9.77882z"
   id="path3532" />
  <path
   class="fil21"
   d="M4.1993 15.3731l0.946502 0.826311 0.104316 0.0714341c0.168664,-0.26561 0.580544,-1.78869 0.674088,-1.97521 0.0935446,-0.186522 0.791161,-1.99052 1.28978,-2.02368 0.498338,-0.0331658 2.08406,0.134364 2.44945,0.134364 0.365391,0 -0.772735,-1.64355 -0.772735,-1.64355 0,0 -0.690246,-1.12055 -0.490968,-1.35271 0.199278,-0.232444 0.758279,-0.403659 0.924391,-0.76905 0.166113,-0.365391 1.67672,-0.934596 2.14189,-1.10071 0.465455,-0.166113 1.88507,2.15153 2.23005,1.83206 0.344981,-0.319469 0.280067,-1.5296 -0.0714341,-1.74333l-1.85247 -1.90803c-3.1859,2.00327 -6.31653,5.48654 -7.57286,9.65211z"
   id="path3534" />
  <path
   class="fil38"
   d="M8.25602 17.5597c0.44051,0.273831 0.86628,0.559567 1.2654,0.867697l0.170648 -0.206932 -0.89491 -0.672955 -0.00651978 -0.0456384 6.49937 -8.09898 0.167246 -0.0189924 0.317768 0.274114c-0.240665,-0.23783 -0.48133,-0.486149 -0.721144,-0.740704l-0.113387 0.0615127 -6.64054 8.2753 -0.072568 0.0898596 0.0153073 0.113954 0.013323 0.101765z"
   id="path3536" />
  <path
   class="fil39"
   d="M10.0759 6.32844c0,0 2.21701,1.68749 2.23487,1.9497 0.0178585,0.262208 -1.02389,-2.36129 -1.64554,-2.31906 -0.62193,0.0425203 -0.589331,0.36936 -0.589331,0.36936z"
   id="path3538" />
  <path
   class="fil40"
   d="M4.66958 14.8302c0.763664,0.555315 1.49416,0.955573 2.35052,1.44314 0.872516,0.497204 1.64412,1.05989 2.43896,1.63675l6.34686 -7.69447c-0.728798,-0.692797 -1.52449,-1.33599 -2.25499,-2.14331 -0.715191,-0.791161 -1.46015,-1.31614 -2.18157,-2.00129 -1.25832,1.12877 -2.17647,2.23005 -3.2803,3.66695l-0.00170081 0c-1.29233,1.68154 -2.42366,3.33359 -3.41778,5.09223zm1.87741 2.16287c-0.979668,-0.55815 -1.96047,-1.11715 -2.82675,-1.78614l-0.256256 -0.198145 0.157325 -0.283185c1.04033,-1.86919 2.28532,-3.82144 3.67829,-5.63507l-0.000850406 -0.000850406c1.20559,-1.57013 2.52656,-3.03453 3.9215,-4.24551l0.253421 -0.219688 0.247468 0.225074c0.812705,0.742121 1.63335,1.64752 2.45229,2.55207 0.799382,0.881587 1.59961,1.76488 2.4041,2.49963l0.264476 0.241232 -0.227909 0.277799 -6.80126 8.24639 -0.232161 0.281201 -0.289421 -0.222239c-0.828862,-0.640356 -1.78699,-1.18688 -2.74426,-1.73256z"
   id="path3540" />
  <path
   class="fil41"
   d="M3.66638 14.5295l0.045355 0.0345832 0.0360005 -0.0643474 -0.0490401 -0.0269295 -0.0323154 0.0566937zm5.7272 3.33387c0.356604,-0.421801 0.731349,-0.83028 1.11828,-1.2294l5.29406 -6.4183c-0.728798,-0.692797 -1.461,-1.50097 -2.1915,-2.30857 -0.389202,-0.430589 -0.779822,-0.861745 -1.17129,-1.27589 0.989589,1.60868 1.86721,3.65845 -0.211184,3.59552 -1.94488,-0.058678 -3.04672,-0.879603 -3.65476,-1.53612l0.121041 -0.14712c1.18433,1.00263 3.05919,2.70996 2.64079,3.33529l-3.64087 -0.826028c0,0 1.30452,1.30821 2.06053,2.3406 0.756011,1.03296 -1.8896,1.10099 -1.8896,1.10099l-2.7624 -0.830563 -0.0892926 0.148821c1.51514,0.773869 3.91187,1.44172 2.88684,1.85218 -0.816957,0.327406 -2.1331,-0.155908 -3.1774,-0.657364 0.688829,0.473676 1.44059,0.902564 2.1915,1.33032 0.848705,0.483881 1.69826,0.968612 2.47525,1.52563zm5.65293 -5.54238c0.625048,-0.618529 1.22629,-1.25492 1.78047,-1.92702l-0.109135 -0.100348 -0.10375 0.12671 -1.56758 1.90066zm-3.83391 -7.47053l-0.155341 0.0102049c-0.0609458,0.0535756 -0.0379848,0.0853241 0.0206932,0.108002l0.134648 -0.118206zm-3.11674 3.23806l-0.0813555 -0.113387 0.104316 0.0856075 -0.022961 0.0277799z"
   id="path3542" />
  <path
   class="fil42"
   d="M11.6735 13.7766c-0.433424,0.472542 -1.03948,1.10269 -1.1832,1.10269 -0.229326,0 -2.49226,-0.0657647 -2.49226,-0.0657647l2.75503 0.788893c0,0 -1.54235,0.756294 -2.65695,0.558717 -1.1146,-0.197294 -0.85239,0.196727 -0.85239,0.196727l2.49226 2.03757c0,0 3.42458,-1.71669 2.59969,-4.5749l0.175751 -0.187089c0.85806,0.445046 1.74588,0.812988 1.58686,0.890658 -0.672104,0.325705 0.547945,-1.74872 0.547945,-1.74872 0,0 1.96189,-0.813555 2.1212,-1.94403 0.140034,-0.997526 -1.49218,-2.31395 -1.84226,-2.60423 -0.0637804,-0.0527252 0.368509,1.31331 0.0439376,1.67672 -0.714908,0.798815 -2.01206,1.52024 -2.18923,1.36292 -0.462621,-0.41188 -1.00263,-0.919856 -1.6067,-1.52903 0.150238,0.177735 2.03587,2.29354 1.39041,2.87607 -0.926942,-0.310682 -2.69579,-0.906533 -4.66419,-1.57864 0.371911,0.159593 3.02319,1.80711 3.7741,2.74143z"
   id="path3544" />
  <path
   class="fil43"
   d="M11.9632 19.624c0.673238,-0.57289 1.83291,-1.44342 2.28646,-1.59253 0.638088,-0.209483 1.73341,1.36065 2.12488,1.69543 0.39147,0.334493 2.99286,2.88458 4.46633,1.29574 1.34789,-1.45334 -0.604922,-3.24487 -2.01149,-4.09414 -1.59451,-0.962376 -2.96168,-1.05337 -2.66461,-1.83801 0.346115,-0.915037 0.872516,-1.65347 1.21608,-2.1915 0.34895,-0.546811 0.145703,-0.98562 -0.168664,-1.30112l-1.30254 -0.953872 -6.1731 7.70808 1.55653 1.21183c0.196444,0.169798 0.485015,0.0932612 0.67012,0.0600953z"
   id="path3546" />
  <path
   class="fil44"
   d="M11.9632 19.624c0.673521,-0.57289 1.83319,-1.44371 2.28646,-1.59253 0.637804,-0.209483 1.73341,1.36093 2.12431,1.69514 0.392037,0.334776 2.99315,2.88486 4.46662,1.29602l0.0428038 -0.0470558c0.0986471,-0.0680325 0.194743,-0.150238 0.285736,-0.248885 1.34818,-1.45391 -0.604639,-3.24515 -2.01093,-4.09442 -1.59508,-0.962376 -2.96253,-1.0528 -2.66517,-1.83829 0.346115,-0.914753 0.872516,-1.65319 1.21636,-2.19093 0.34895,-0.546811 0.145136,-0.986187 -0.168664,-1.30112l-1.30311 -0.953588 -0.270996 0.337895 -0.0572607 -0.0419534 -6.17281 7.70808 1.55653 1.21183c0.195877,0.169514 0.485015,0.0929777 0.67012,0.0598119z"
   id="path3548" />
  <path
   class="fil45"
   d="M17.6298 11.8411c-0.063497,-0.12671 -0.153357,-0.240665 -0.253988,-0.341863l-0.101765 -0.0745522 -6.20825 7.73671 0.390903 0.304162 0.0337328 0.0260791 6.13936 -7.65053z"
   id="path3550" />
  <path
   class="fil46"
   d="M20.6901 21.2386c0.14712,-0.0802216 0.287154,-0.188507 0.4184,-0.329957 1.34818,-1.45363 -0.604922,-3.24515 -2.01093,-4.09414 -1.59536,-0.962659 -2.96253,-1.0528 -2.66517,-1.83829 0.346115,-0.914753 0.872516,-1.65319 1.21636,-2.19121 0.348666,-0.546811 0.145136,-0.985904 -0.168664,-1.30112l-1.30311 -0.953588 -0.528952 0.660198 1.20871 0.884706c0.3138,0.315217 0.517614,0.75431 0.168664,1.30112 -0.343564,0.538023 -0.869965,1.27646 -1.21636,2.19121 -0.297359,0.785492 1.00518,0.941399 2.59969,1.90378 1.32266,0.798248 3.19497,2.36611 2.28136,3.7673z"
   id="path3552" />
  <path
   class="fil47"
   d="M11.7963 19.2702c0.375029,-0.314367 0.873367,-0.701868 1.32153,-1.0134l0 0.000850406c0.401108,-0.28035 0.777838,-0.507409 1.01283,-0.585079l0.000850406 0c0.710939,-0.233011 1.53612,0.707254 2.10589,1.35583 0.162428,0.183971 0.30076,0.341863 0.382116,0.411596l0.0053859 0.0045355 0.113387 0.100915 0 0.00170081c0.576859,0.517047 2.70769,2.42451 3.82683,1.21806l0.0382683 -0.0419534 0.063497 -0.0569772 0.118773 -0.0921273c0.0311815,-0.0286303 0.0668986,-0.0615127 0.103466,-0.102616l0.00368509 -0.00283469c0.0776704,-0.0830563 0.142018,-0.168664 0.190207,-0.248319l-0.000850406 0c0.215153,-0.35717 0.197294,-0.742971 0.041103,-1.11885 -0.177735,-0.428605 -0.529803,-0.854658 -0.936864,-1.23139 -0.387502,-0.360005 -0.828862,-0.676073 -1.2226,-0.91447 -0.53774,-0.324288 -1.06442,-0.553047 -1.49842,-0.73957l0 -0.00170081c-1.01283,-0.437676 -1.64412,-0.71179 -1.3255,-1.55398 0.312666,-0.824327 0.752893,-1.49756 1.09419,-2.01915l0.000850406 0.000850406 0.157042 -0.242082c0.113387,-0.177735 0.139467,-0.330241 0.112537,-0.456384 -0.0266461,-0.127561 -0.108852,-0.248035 -0.210617,-0.354336l-0.988739 -0.723412 -0.0456384 0.0572607 -0.230177 0.285736 -0.0555599 -0.0419534 -5.70367 7.12272 1.25548 0.976266 0.0144569 0.013323c0.0328824,0.0286303 0.153357,0.0107718 0.256256,-0.009071zm1.60103 0.0144569c-0.460637,0.319753 -0.824043,0.316068 -1.18943,0.626749l-0.17405 0.0822059 -0.044788 0.00822059 0 0.000850406c-0.254555,0.0498905 -0.611725,0.120474 -0.926942,-0.141167l-0.000850406 0.000850406 -1.55738 -1.21098 -0.301894 -0.234712 0.240098 -0.300193 6.17366 -7.7095 0.228759 -0.28687 0.0569772 0.0439376 0.0419534 -0.0527252 0.225074 -0.281484 0.291973 0.213452 1.30396 0.953872 0.0456384 0.0402525c0.199845,0.20268 0.548228,0.452699 0.611725,0.749208 0.0651978,0.30813 0.0195593,0.649994 -0.216287,1.01907l-0.00170081 0.00255122 -0.159876 0.245484 0 0.00198428c-0.324288,0.494653 -0.639505,0.826878 -0.919005,1.56446 -0.0643474,0.170648 0.134931,0.41188 0.73957,0.673521l0.000850406 -0.00198428c0.451849,0.193893 1.00008,0.43229 1.58969,0.787759 0.432006,0.260791 0.917021,0.610024 1.34761,1.00915 0.477645,0.443061 0.895761,0.955573 1.11885,1.49416 0.245767,0.589331 0.163561,1.43577 -0.192759,2.02708l-0.00113387 0c-0.0756861,0.12501 -0.170365,0.25087 -0.28035,0.369643l0.000850406 0.000850406c-0.0490401,0.0547094 -0.108002,0.110836 -0.166963,0.162711l-0.00425203 0.0045355c-0.0484731,0.041103 -0.0975132,0.0819224 -0.145703,0.115939l-0.0107718 0.0116222 -0.00340162 0.0045355c-1.62002,1.74673 -4.33679,-0.138333 -5.03242,-0.762814l-0.000850406 0.00113387 -0.113387 -0.100915c-0.117073,-0.102049 -0.271563,-0.277799 -0.451849,-0.482464l-0.00198428 -0.00170081c-0.43399,-0.493802 -1.06442,-1.21013 -1.30282,-1.13416 -0.163561,0.0535756 -0.471692,0.243783 -0.81639,0.485015l0 0.000850406z"
   id="path3554" />
  <polygon
   class="fil48"
   points="8.80652,17.9869 10.4438,19.2237 10.71,19.199 17.2632,11.032 17.2493,10.6519 15.8105,9.3984 15.4122,9.44319 8.77165,17.7182 "
   id="polygon3556" />
  <path
   class="fil49"
   d="M9.23768 17.5884l1.46638 1.10326 0.045355 -0.00396856 6.02484 -7.5037 -0.00623631 -0.169231 -1.26484 -1.09306 -0.16753 0.0189924 -6.1045 7.60178 0.00651978 0.0459219zm1.04061 1.84737l-1.91653 -1.42783 -0.101198 -0.177735 -0.0351501 -0.267878 -0.0153073 -0.113954 0.072568 -0.0904265 6.64054 -8.2753 0.180286 -0.0986471 0.398273 -0.0445046 0.120474 -0.013323 0.0909934 0.0839067 1.7181 1.44512 0.0819224 0.0756861 0.0045355 0.111403 0.0141734 0.380131 -0.0592449 0.178302 -6.55351 8.16673 -0.0705837 0.0878753 -0.114521 0.0110553 -0.266177 0.0246618 -0.189641 -0.0552764z"
   id="path3558" />
 </g>
</svg>