<?xml version="1.0" encoding="UTF-8" standalone="no"?>
<!-- Creator: CorelDRAW -->

<svg
   xmlns:dc="http://purl.org/dc/elements/1.1/"
   xmlns:cc="http://creativecommons.org/ns#"
   xmlns:rdf="http://www.w3.org/1999/02/22-rdf-syntax-ns#"
   xmlns:svg="http://www.w3.org/2000/svg"
   xmlns="http://www.w3.org/2000/svg"
   xmlns:sodipodi="http://sodipodi.sourceforge.net/DTD/sodipodi-0.dtd"
   xmlns:inkscape="http://www.inkscape.org/namespaces/inkscape"
   xml:space="preserve"
   width="22px"
   height="22px"
   style="shape-rendering:geometricPrecision; text-rendering:geometricPrecision; image-rendering:optimizeQuality; fill-rule:evenodd; clip-rule:evenodd"
   viewBox="0 0 22 22"
   id="svg3833"
   version="1.1"
   inkscape:version="0.48.1 r9760"
   sodipodi:docname="preferences-desktop-font-installer.svg"><metadata
   id="metadata3905"><rdf:RDF><cc:Work
       rdf:about=""><dc:format>image/svg+xml</dc:format><dc:type
         rdf:resource="http://purl.org/dc/dcmitype/StillImage" /><dc:title></dc:title></cc:Work></rdf:RDF></metadata><sodipodi:namedview
   pagecolor="#ffffff"
   bordercolor="#666666"
   borderopacity="1"
   objecttolerance="10"
   gridtolerance="10"
   guidetolerance="10"
   inkscape:pageopacity="0"
   inkscape:pageshadow="2"
   inkscape:window-width="646"
   inkscape:window-height="480"
   id="namedview3903"
   showgrid="false"
   inkscape:zoom="12.090909"
   inkscape:cx="11"
   inkscape:cy="11"
   inkscape:window-x="0"
   inkscape:window-y="24"
   inkscape:window-maximized="0"
   inkscape:current-layer="svg3833" />
 <defs
   id="defs3835">
  <style
   type="text/css"
   id="style3837">
   
    .fil20 {fill:#666666}
    .fil12 {fill:#6B8242}
    .fil13 {fill:#9CD2FF}
    .fil19 {fill:white}
    .fil14 {fill:#6097D0;fill-rule:nonzero}
    .fil0 {fill:black;fill-opacity:0.000000}
    .fil1 {fill:black;fill-opacity:0.003922}
    .fil2 {fill:black;fill-opacity:0.007843}
    .fil3 {fill:black;fill-opacity:0.015686}
    .fil4 {fill:black;fill-opacity:0.019608}
    .fil5 {fill:black;fill-opacity:0.023529}
    .fil6 {fill:black;fill-opacity:0.027451}
    .fil7 {fill:black;fill-opacity:0.031373}
    .fil8 {fill:black;fill-opacity:0.035294}
    .fil9 {fill:black;fill-opacity:0.043137}
    .fil10 {fill:black;fill-opacity:0.047059}
    .fil11 {fill:black;fill-opacity:0.050980}
    .fil15 {fill:#6097D0;fill-opacity:0.780392}
    .fil16 {fill:url(#id0)}
    .fil17 {fill:url(#id1);fill-rule:nonzero}
    .fil18 {fill:url(#id2);fill-rule:nonzero}
   
  </style>
  <linearGradient
   id="id0"
   gradientUnits="userSpaceOnUse"
   x1="18.2531"
   y1="6.63997"
   x2="17.9027"
   y2="21.7307">
   <stop
   offset="0"
   style="stop-color:#FCFCFC"
   id="stop3840" />
   <stop
   offset="1"
   style="stop-color:#DBDBDB"
   id="stop3842" />
  </linearGradient>
  <linearGradient
   id="id1"
   gradientUnits="userSpaceOnUse"
   x1="0.983069"
   y1="10.5119"
   x2="20.9784"
   y2="10.5119">
   <stop
   offset="0"
   style="stop-color:#919191"
   id="stop3845" />
   <stop
   offset="1"
   style="stop-color:#B2B2B2"
   id="stop3847" />
  </linearGradient>
  <linearGradient
   id="id2"
   gradientUnits="userSpaceOnUse"
   x1="10.4781"
   y1="14.4124"
   x2="10.4781"
   y2="6.63657">
   <stop
   offset="0"
   style="stop-color:#383838"
   id="stop3850" />
   <stop
   offset="1"
   style="stop-color:#4F4F4F"
   id="stop3852" />
  </linearGradient>
 </defs>
 <g
   id="Слой_x0020_1">
  <metadata
   id="CorelCorpID_0Corel-Layer" />
  <g
   id="_290874312">
   <path
   id="_290876184"
   class="fil0"
   d="M9.9917 18.1652c6.57817,-0.293957 9.52029,0.324288 10.7993,1.18405l0 2.28192c-0.0592449,0.0127561 -0.121325,0.0243783 -0.185388,0.0354336l-20.1932 0 0 -2.05118c1.25095,-0.633552 3.9147,-1.19737 9.57926,-1.45023z" />
   <g
   id="g3858">
    <path
   id="_290884848"
   class="fil1"
   d="M10.0149 18.3421c6.58554,-0.283469 9.53248,0.37106 10.7761,1.24074l0 2.00809c-0.130963,0.0294807 -0.275532,0.054426 -0.433424,0.0756861l-19.9451 0 0 -1.85275c1.21381,-0.642623 3.86453,-1.22487 9.6025,-1.47177z" />
    <path
   id="_290869128"
   class="fil2"
   d="M10.0385 18.5193c6.57364,-0.271563 9.54382,0.417266 10.7525,1.2895l0 1.7422c-0.208633,0.0501739 -0.458085,0.0875918 -0.744389,0.115655l-19.6342 0 0 -1.66084c1.18178,-0.648009 3.83108,-1.24726 9.62603,-1.48651z" />
    <path
   id="_290878272"
   class="fil3"
   d="M10.0617 18.6965c6.54132,-0.25739 9.55828,0.461203 10.7293,1.32805l0 1.48708c-0.299059,0.0765365 -0.696199,0.125293 -1.17696,0.155057l-5.72635 0c-0.535189,-0.00368509 -1.08512,-0.0045355 -1.64525,0l-11.781 0 -0.0490401 -0.00935446 0 -1.46865c1.154,-0.648576 3.81974,-1.26257 9.64927,-1.49218z" />
    <path
   id="_290878776"
   class="fil4"
   d="M10.085 18.8736c6.48775,-0.241515 9.57869,0.502873 10.706,1.35611l0 1.24301c-0.43314,0.119057 -1.11602,0.172916 -1.98145,0.193893l-2.58835 0c-1.64185,-0.0192759 -3.54903,-0.0513078 -5.51828,0l-9.95287 0c-0.122458,-0.0167246 -0.235279,-0.0348666 -0.337611,-0.0549929l0 -1.25095c1.12877,-0.643474 3.83391,-1.26966 9.67252,-1.48708z" />
    <path
   id="_290877552"
   class="fil5"
   d="M10.1079 19.0505c6.41376,-0.223657 9.611,0.540858 10.6831,1.37199l0 1.0117c-1.35101,0.402809 -5.72947,0.085891 -10.3679,0.212318l-0.741837 0.0201263 -8.53836 0c-0.285736,-0.0266461 -0.530653,-0.0598119 -0.730499,-0.099781l0 -1.046c1.10383,-0.632419 3.87672,-1.26739 9.69548,-1.47035z" />
    <path
   id="_290882568"
   class="fil6"
   d="M10.1309 19.228c6.32248,-0.203814 9.66401,0.576292 10.6601,1.37709l0 0.790877c-1.21325,0.401675 -5.66569,0.109135 -10.3591,0.222523 -0.703569,0.0170081 -1.39892,0.0334493 -2.07669,0.0481897l-6.6034 0c-0.566087,-0.0308981 -1.02162,-0.0771035 -1.33939,-0.142018l0 -0.855792c1.0735,-0.615694 3.94985,-1.25463 9.71844,-1.44087z" />
    <path
   id="_290898168"
   class="fil7"
   d="M10.1547 19.4054c6.21703,-0.182554 9.74905,0.608891 10.6363,1.37085l0 0.582528c-1.04401,0.397706 -5.58773,0.131246 -10.3492,0.231594 -1.52988,0.0323154 -3.02518,0.0617962 -4.38469,0.0762531l-2.89308 0c-1.2637,-0.0198428 -2.23515,-0.0739853 -2.75163,-0.182554l0 -0.679758c1.03183,-0.592733 4.05133,-1.23224 9.74225,-1.39892z" />
    <path
   id="_290870184"
   class="fil8"
   d="M10.1779 19.5829c6.12207,-0.159309 9.90411,0.644891 10.6131,1.36122l0 0.375029c-0.804767,0.395155 -5.47435,0.156758 -10.3404,0.243216 -4.56158,0.0813555 -8.85981,0.140034 -10.0382,-0.116789l0 -0.517897c0.970313,-0.563819 4.17918,-1.19992 9.76549,-1.34478z" />
    <path
   id="_290882904"
   class="fil9"
   d="M10.2012 19.7597c6.1215,-0.136348 10.2667,0.706687 10.5898,1.3717l0 0.130963c-0.352068,0.41188 -5.25324,0.198145 -10.3313,0.271563 -4.62677,0.0668986 -9.03103,0.110553 -10.0473,-0.124443l0 -0.369643c0.873367,-0.529803 4.328,-1.15882 9.78874,-1.28014z" />
    <path
   id="_290879880"
   class="fil10"
   d="M10.2241 19.9369c5.93101,-0.106301 10.4762,0.716609 10.4866,1.30651 0.0102049,0.374179 -5.04461,0.205231 -10.2417,0.262208 -4.72344,0.0521582 -9.26687,0.0802216 -10.0566,-0.129262l0 -0.230177c0.708105,-0.490968 4.47994,-1.11403 9.8117,-1.20928z" />
    <path
   id="_290889216"
   class="fil11"
   d="M10.2477 20.1141c5.49391,-0.0708672 10.3551,0.656797 10.3619,1.16194 0.00680325,0.267311 -5.01484,0.163561 -10.1315,0.201546 -4.91705,0.0368509 -9.69945,0.0473393 -10.0657,-0.135781l0 -0.0805051c0.344414,-0.446463 4.57036,-1.07945 9.83523,-1.1472z" />
   </g>
  </g>
  <path
   class="fil12"
   d="M21.8631 15.9273c-0.155341,0.183971 -0.463755,0.286303 -0.807035,0.401675 -0.362273,0.120474 -0.61371,0.25172 -0.788326,0.392888l0 -6.83868c0.16753,0.115088 0.392604,0.22309 0.694498,0.323721 0.390053,0.130112 0.770751,0.244633 0.897462,0.481046l0.00340162 5.23935z"
   id="path3871" />
  <path
   class="fil13"
   d="M16.3391 1.63108l2.15153 -0.142018c0.212601,0 0.408195,0.0841902 0.560417,0.223373 0.216003,0.177735 0.354052,0.447313 0.354619,0.748357l0.0419534 3.95552c0.000566937,0.171499 -0.0391187,0.274965 0.130963,0.338745 0.049607,0.0187089 0.10375,0.0382683 0.159593,0.0572607 0.353769,0.117923 1.62342,0.477928 1.62342,0.871099l0.0045355 9.97725c-0.127561,0.235562 -0.471692,0.350084 -0.861745,0.480763 -0.154774,0.0515913 -0.289421,0.105167 -0.406777,0.160443l-0.472826 1.35696c-0.0206932,0.533488 -0.502306,0.999794 -1.03012,0.992991 -0.733333,-0.0099214 -1.47404,0.0450715 -2.18951,0.0450715l-9.89306 -0.00481897c-0.528102,0 -0.970313,-0.427471 -0.970313,-0.948486 0,-6.2502 -0.0297642,-6.40497 -0.0297642,-17.0651 0,-0.521299 0.436542,-0.946502 0.969746,-0.949336l9.79157 -0.100064c0.0218271,-0.000283469 0.0436542,0.000850406 0.0657647,0.00198428z"
   id="path3873" />
  <path
   class="fil14"
   d="M16.3187 1.03239l2.13452 -0.140884 0.0374179 -0.00226775c0.178018,0 0.352635,0.0360005 0.517614,0.101765 0.167813,0.0668986 0.318619,0.162144 0.445896,0.278366l-0.000566937 0.000566937c0.167813,0.143435 0.305579,0.32202 0.400541,0.522149 0.0943951,0.200412 0.148538,0.42662 0.149104,0.666435l0.041103 3.82399 0.0119057 0.00396856 -0.000283469 0.000566937c0.596701,0.190207 1.90548,0.608324 1.90548,1.39637l-0.00226775 0 0.0045355 9.62007 -0.0703002 0.283469c-0.239814,0.443345 -0.687128,0.5933 -1.19454,0.763098l-0.0119057 0.0045355 -0.0045355 0.00141734 -0.000283469 -0.00141734 -0.108002 0.0394021 -0.358871 1.03012c-0.0408195,0.388635 -0.229043,0.746373 -0.501173,1.0083 -0.296225,0.285453 -0.699034,0.465172 -1.1265,0.459786 -0.380131,-0.00510244 -0.727947,-0.501456 -1.12225,-0.488133 -0.365958,0.0127561 -0.729081,0.0252287 -1.00943,0.0252287l0 0.354903 -9.89277 -0.157892 0 0.359438c-0.426053,0 -0.817524,-0.53037 -1.10156,-0.808169 -0.288288,-0.281201 -0.468574,-0.67012 -0.468574,-1.09731 0,-3.51926 -0.0558433,-4.38554 -0.0606623,-6.14843 -0.009071,-3.20546 -0.0201263,-5.00804 -0.0201263,-10.2533 0,-0.426337 0.178302,-0.814122 0.464605,-1.09504l0.00226775 -0.00226775c0.281768,-0.275248 0.671537,-0.446747 1.09787,-0.449581l9.79157 -0.100064 0.0212601 0 0.0289138 0.000850406zm2.17505 1.05649l-2.11723 0.13975 -0.0374179 -0.597552 -0.0164412 0.597552 -0.0606623 -0.00170081 -9.77542 0.099781 -0.00255122 0c-0.10375,0.000283469 -0.199562,0.0425203 -0.268161,0.109986l-0.00226775 0.00226775c-0.0623631,0.0609458 -0.101765,0.14627 -0.101765,0.239531 0,6.82904 0.00850406,7.77044 0.0155908,10.2533 0.00737018,2.5926 0.0651978,4.24693 0.0651978,6.14843 0,0.0921273 0.0399691,0.177451 0.103466,0.239531 0.0685994,0.0668986 0.163845,0.109135 0.267027,0.109135l0 0.00226775 9.84203 0.310965 0 -0.00226775c0.371627,0 0.671821,-0.0104883 0.972014,-0.0206932 0.401675,-0.0136065 0.807035,-0.0274965 1.22458,-0.0221106 0.099214,0.00113387 0.201546,-0.0487566 0.282902,-0.126994 0.0830563,-0.0799382 0.138616,-0.185388 0.142585,-0.291973l0.0328824 -0.173199 0.472826 -1.35696 0.0824894 -0.237547 0.226775 -0.107151c0.072568,-0.0342997 0.148538,-0.0674655 0.226775,-0.0980801 0.0583945,-0.022961 0.13975,-0.0521582 0.248035,-0.0881587l0.00198428 -0.00113387 0 -0.000283469 0.00311815 -0.00113387 0.00425203 -0.00198428 0.0045355 -0.00141734 0 0.000566937c0.18142,-0.0606623 0.474526,-0.116222 0.564953,-0.15364l0.0717176 -9.37459 -0.00226775 0c0,-0.0827728 -0.938565,-0.151656 -1.27249,-0.257956l-0.00226775 0 -0.135215 -0.0436542 -0.01389 -0.00481897 -0.0793712 -0.0277799 -0.00963793 -0.00226775 -0.0802216 -0.0294807 -0.0045355 -0.00226775c-0.544543,-0.204664 -0.534338,-0.454117 -0.519598,-0.83765l0.000283469 0 0.00170081 -0.0717176 -0.0419534 -3.94277 0 -0.00226775c0,-0.0541425 -0.0136065,-0.108285 -0.0368509,-0.157892 -0.0238114,-0.0501739 -0.058678,-0.0946785 -0.099781,-0.128695l-0.0235279 -0.0187089c-0.0274965,-0.0249452 -0.0552764,-0.0439376 -0.0802216,-0.053859 -0.0198428,-0.00765365 -0.0450715,-0.0124726 -0.0739853,-0.0127561z"
   id="path3875" />
  <path
   class="fil15"
   d="M16.4585 1.90548l1.3598 0.176884c0.127561,0 1.2637,-0.148821 1.37369,-0.0941116l0.265894 5.70566c0.00793712,0.324005 -0.0572607,0.475377 0.31465,0.738152 0.101482,0.045355 0.216003,0.0895761 0.344981,0.132663 0.236413,0.0788043 0.470558,0.15279 0.644324,0.249736 0.230177,0.128411 0.252571,0.279217 0.252571,0.535189l0.00340162 5.27223c-0.167246,0.106301 -0.398273,0.183971 -0.648293,0.267311 -0.154774,0.0518748 -0.289421,0.10545 -0.406777,0.160443l-0.0765365 1.97266c-0.0564103,0.022961 -0.109986,0.0479062 -0.164979,0.0759696 -0.233011,0.117923 -0.245767,0.153923 -0.245767,0.406211l0 0.249452c0,0.531787 -0.424919,0.999227 -0.953022,0.992424 -0.733333,-0.00963793 -1.4763,0.045355 -2.18951,0.045355l-10.0566 0c-0.214302,0 -0.418967,-0.0714341 -0.581678,-0.191908 -0.000566937,-6.03561 -0.284036,-5.13985 -0.284036,-15.6727 0,-0.521299 0.436542,-0.946218 0.969746,-0.949053l10.0124 -0.0748357c0.0218271,-0.000283469 0.0436542,0.000850406 0.0657647,0.00226775z"
   id="path3877" />
  <path
   class="fil16"
   d="M18.1287 0.616828c0.213168,0 0.408478,0.0839067 0.560417,0.22309 0.216287,0.177735 0.353769,0.447597 0.354903,0.748074l-0.122458 7.75173c0.00850406,0.323154 -0.0564103,0.474243 0.31465,0.737302 0.102332,0.0456384 0.216853,0.0898596 0.344981,0.132947 0.236413,0.0788043 0.379848,0.15364 0.553047,0.250019 0.22961,0.127277 0.252571,0.279217 0.252571,0.535189l0.00425203 6.75392c0.000566937,0.363123 -0.0685994,0.502873 -0.396573,0.648576 -0.136915,0.0609458 -0.296225,0.114521 -0.464038,0.170648 -0.184822,0.0615127 -0.306146,0.109986 -0.435975,0.1749 -0.232444,0.117356 -0.246334,0.153923 -0.246334,0.406211l0 0.250303c0,0.53122 -0.426904,0.998093 -0.953305,0.99214 -0.732766,-0.00822059 -1.47914,0.0473393 -2.18923,0.045355l-13.1521 -0.0445046c-0.525551,-0.00113387 -0.970597,-0.427754 -0.970597,-0.949053 0,-6.2502 0.0612292,-7.24659 0.0612292,-17.9064 0,-0.521015 0.436542,-0.950754 0.97003,-0.949336 5.82811,0.0170081 9.68641,0.0348666 15.5145,0.0289138z"
   id="path3879" />
  <path
   class="fil17"
   d="M17.7624 0.0170081c0.178018,0 0.353202,0.0360005 0.518181,0.101765 0.154207,0.0609458 0.118773,0.149955 0.243783,0.259374 0.179436,0.147404 0.324855,0.331942 0.423219,0.53859l0 0.00226775c0.094962,0.200696 0.148821,0.428321 0.149671,0.668986l0 0.00708672 -0.122175 7.73671c0.00113387,0.0481897 0.000566937,0.0972297 0.000283469,0.141734 -0.000283469,0.0334493 0.355186,0.0572607 0.380698,0.0853241l-0.285736 0.0277799 -0.000283469 0.000850406c0.0360005,0.01389 0.0881587,0.0323154 0.156758,0.0552764l0.177735 0.000850406c0.143435,0.0479062 0.258523,0.0941116 0.36284,0.143152l0.000850406 -0.00198428c0.0850406,0.0396856 0.535756,0.0912769 0.643474,0.151089l-0.35547 -0.000850406c0.247468,0.136915 0.747223,0.305296 0.834248,0.522149l0.000850406 -0.000283469c0.072568,0.180853 0.0847571,0.343847 0.0847571,0.538307l-0.00226775 0 0.00425203 6.75392c0.000283469,0.289138 -0.391187,0.504858 -0.512795,0.710656 -0.128128,0.216853 -0.310965,0.358304 -0.5933,0.483881 -0.0793712,0.0354336 -0.16838,0.0697333 -0.262775,0.103466 -0.110836,0.0399691 -0.183404,0.0646308 -0.255122,0.0884422l-0.00255122 0.00226775c-0.101198,0.0334493 -0.166396,0.0566937 -0.203814,0.0714341l0.000283469 0.000566937 -0.0663317 0.0274965 0 0.162428 0 0.0113387 -0.00226775 0.00481897c-0.00425203,0.418116 -0.173483,0.809303 -0.443345,1.09419l-0.00113387 -0.00113387c-0.27865,0.293957 -0.666151,0.480763 -1.09646,0.480479l0 0.00226775 -0.0099214 0 -0.00481897 -0.00226775c-0.369927,-0.00396856 -0.759129,0.00935446 -1.14408,0.0226775 -0.345548,0.0119057 -0.689112,0.0235279 -1.04033,0.0226775l-12.7859 -0.0445046c-0.426337,-0.000850406 -0.818657,-0.173199 -1.10184,-0.450148 -0.287437,-0.280917 -0.468574,-0.669269 -0.468574,-1.09646 0,-2.43415 0.0178585,-4.64718 0.0379848,-7.1539 0.0235279,-2.94751 0.0232444,-4.43657 0.0232444,-10.7525l0 -0.00255122 0.00226775 0c0.000850406,-0.427187 0.178585,-0.815539 0.462904,-1.09476 0.282335,-0.276949 0.672955,-0.449865 1.10213,-0.449581l0 -0.00226775 0.00255122 0 0 0.00226775 0.571189 0.00170081c5.63847,0.0161577 8.93975,0.0325989 14.5771,0.027213l0 -0.00226775zm0.103183 0.957274c-0.0204097,-0.00793712 -0.0467723,-0.0127561 -0.0776704,-0.0127561l0 -0.00226775c-5.63734,0.0053859 -9.12911,-0.0110553 -14.7676,-0.027213l-0.571189 -0.00170081 0 0.00226775 -0.00255122 0 0 -0.00226775c-0.101765,0 -0.195593,0.0416699 -0.263059,0.107718 -0.0654813,0.0643474 -0.106868,0.150805 -0.106868,0.241515l0.00226775 0 0 0.00255122c0,5.75753 -0.0277799,7.80786 -0.0532921,11.0173 -0.0175751,2.20737 -0.0334493,4.33622 -0.0334493,7.32285 0,0.0918438 0.0402525,0.176884 0.103466,0.238681 0.0708672,0.0691663 0.16668,0.112821 0.267311,0.112821l12.9763 0.0445046c0.316634,0.000566937 0.658498,-0.0110553 1.00291,-0.0226775 0.389202,-0.0136065 0.783224,-0.0269295 1.18632,-0.0226775l0 -0.00226775 0.0099214 0 0 0.00226775c0.0861745,0 0.168664,-0.0416699 0.230177,-0.106868l0 -0.00226775c0.0691663,-0.0728514 0.113387,-0.171499 0.115655,-0.274114l-0.00226775 0 0 -0.0113387 0 -0.250303c0,-0.232728 0.0116222,-0.374179 0.120191,-0.558433 0.106584,-0.180853 0.76735,-0.448164 0.990156,-0.560701l0.00226775 0c0.0850406,-0.0425203 0.162711,-0.0779539 0.242082,-0.109702l0.00226775 0c0.101482,-0.0402525 0.190491,-0.0737018 0.271563,-0.100348l0.000283469 0.00113387 0.229043 -0.0776704c0.0612292,-0.0218271 0.121325,-0.0450715 0.178302,-0.0705837 0.044788,-0.0198428 0.0377013,0.0187089 0.049607,-0.00141734 0.00481897,-0.00850406 -0.00680325,-0.0283469 -0.00680325,-0.101198l-0.00425203 -6.75392 -0.00226775 0 0.00141734 -0.0428038c-0.0470558,-0.0255122 -0.0975132,-0.0510244 -0.16016,-0.0802216l0 -0.00226775c-0.0685994,-0.032032 -0.143435,-0.0623631 -0.234429,-0.0926942l-0.00255122 0c-0.0578276,-0.0192759 -0.126994,-0.044788 -0.205515,-0.0748357l-0.00255122 0c-0.0640639,-0.0246618 -0.128128,-0.0513078 -0.190774,-0.0793712l-0.100631 -0.0583945c-0.572323,-0.40536 -1.10383,-0.665301 -1.10099,-1.09561l-0.000566937 -0.115088 0 -0.0212601 0.147971 -8.00685c-0.00113387,-0.0507409 -0.0147404,-0.102049 -0.0365675,-0.149388l-0.000850406 0.000566937c-0.0249452,-0.0527252 -0.0595284,-0.0975132 -0.0994975,-0.130396l-0.0235279 -0.0212601c-0.0240948,-0.0221106 -0.0515913,-0.0399691 -0.0796547,-0.0510244zm1.1625 18.2395c0.0150238,-0.0283469 0.0260791,-0.0481897 0.0053859,-0.013323 -0.0153073,0.0257956 -0.0136065,0.0249452 -0.0053859,0.013323z"
   id="path3881" />
  <path
   class="fil18"
   d="M16.0188 4.0451l-0.0513078 3.81124 -0.370777 0c-0.222523,-0.880737 -0.472259,-1.51316 -0.736735,-1.89215 -0.26476,-0.380415 -0.560417,-0.416699 -1.02417,-0.635253 -0.255122,-0.119624 -0.190491,-0.163278 -0.832547,-0.188223l-1.00773 -0.0382683 -0.0187089 8.89241c-0.00170081,0.710089 0.0773869,1.17158 0.155624,1.34761 0.0765365,0.179152 0.445046,0.365675 0.670687,0.499472 0.233295,0.136915 0.549079,0.205231 0.949053,0.205231l0.466306 0 0 0.957274 -7.33957 -0.018142 0 -0.956423 0.466306 0c0.406777,0 0.640639,-0.0623631 0.888107,-0.200129 0.176034,-0.0969463 0.494086,-0.298492 0.596985,-0.529236 0.0708672,-0.16101 0.142301,-0.598686 0.142301,-1.30566l0.00226775 -8.90205 -0.958974 0.031465c-0.936013,0.0269295 -1.1934,0.221956 -1.61747,0.618245 -0.59415,0.554181 -0.81724,1.07746 -0.975132,2.11298l-0.486716 0 0.0513078 -3.81039 11.0309 0z"
   id="path3883" />
  <rect
   class="fil19"
   x="6.93248"
   y="17.0259"
   width="7.27094"
   height="0.928326"
   id="rect3885" />
  <path
   class="fil20"
   d="M0.100631 3.81662l2.59969 0c0.19531,0 0.355186,0.239531 0.355186,0.532354l0 0.0476227c0,0.292823 -0.159876,0.532354 -0.355186,0.532354l-2.59969 0c-0.170081,0 -0.168947,-1.08058 0,-1.11233z"
   id="path3887" />
  <rect
   class="fil19"
   x="0.95296"
   y="3.83914"
   width="1.13724"
   height="1.02253"
   id="rect3889" />
  <path
   class="fil20"
   d="M0.0737018 7.91161l2.64788 0c0.198995,0 0.361706,0.221106 0.361706,0.491535l0 0.0439376c0,0.270146 -0.162711,0.491251 -0.361706,0.491251l-2.64788 0c-0.127277,0 -0.126994,-1.01652 0,-1.02672z"
   id="path3891" />
  <rect
   class="fil19"
   x="0.967068"
   y="7.93243"
   width="1.15824"
   height="1.00613"
   id="rect3893" />
  <path
   class="fil20"
   d="M0.132096 11.9383l2.57191 0c0.193326,0 0.351501,0.231027 0.351501,0.513362l0 0.0456384c0,0.282335 -0.158175,0.513362 -0.351501,0.513362l-2.57191 0c-0.262492,0 -0.220255,-1.06074 0,-1.07236z"
   id="path3895" />
  <rect
   class="fil19"
   x="1.03109"
   y="11.9137"
   width="1.12507"
   height="1.05202"
   id="rect3897" />
  <path
   class="fil20"
   d="M0.16668 15.9423l2.56624 0c0.192759,0 0.350651,0.219688 0.350651,0.488133l0 0.0436542c0,0.268445 -0.157892,0.48785 -0.350651,0.48785l-2.56624 0c-0.220255,0 -0.219972,-1.00036 0,-1.01964z"
   id="path3899" />
  <rect
   class="fil19"
   x="1.06587"
   y="15.9415"
   width="1.12264"
   height="1.01937"
   id="rect3901" />
 </g>
</svg>