<?xml version="1.0" encoding="UTF-8"?>
<!DOCTYPE svg PUBLIC "-//W3C//DTD SVG 1.1//EN" "http://www.w3.org/Graphics/SVG/1.1/DTD/svg11.dtd">
<!-- Creator: CorelDRAW -->
<svg xmlns="http://www.w3.org/2000/svg" xml:space="preserve" width="22px" height="22px" style="shape-rendering:geometricPrecision; text-rendering:geometricPrecision; image-rendering:optimizeQuality; fill-rule:evenodd; clip-rule:evenodd"
viewBox="0 0 22 22"
 xmlns:xlink="http://www.w3.org/1999/xlink">
 <defs>
  <style type="text/css">
   <![CDATA[
    .fil27 {fill:#666666}
    .fil25 {fill:#74AFE5}
    .fil26 {fill:#7FBCF0}
    .fil17 {fill:#C4C4C4}
    .fil15 {fill:#C9C9C9}
    .fil16 {fill:#CBCBCB}
    .fil22 {fill:#4F7FB3;fill-rule:nonzero}
    .fil0 {fill:black;fill-opacity:0.000000}
    .fil1 {fill:black;fill-opacity:0.003922}
    .fil2 {fill:black;fill-opacity:0.007843}
    .fil3 {fill:black;fill-opacity:0.015686}
    .fil4 {fill:black;fill-opacity:0.019608}
    .fil5 {fill:black;fill-opacity:0.023529}
    .fil6 {fill:black;fill-opacity:0.027451}
    .fil7 {fill:black;fill-opacity:0.031373}
    .fil8 {fill:black;fill-opacity:0.035294}
    .fil9 {fill:black;fill-opacity:0.043137}
    .fil10 {fill:black;fill-opacity:0.047059}
    .fil11 {fill:black;fill-opacity:0.050980}
    .fil12 {fill:black;fill-opacity:0.054902}
    .fil13 {fill:black;fill-opacity:0.058824}
    .fil24 {fill:black;fill-opacity:0.219608}
    .fil23 {fill:#4C4C4C;fill-rule:nonzero;fill-opacity:0.219608}
    .fil30 {fill:url(#id0)}
    .fil29 {fill:url(#id1)}
    .fil31 {fill:url(#id2)}
    .fil19 {fill:url(#id3)}
    .fil28 {fill:url(#id4)}
    .fil18 {fill:url(#id5)}
    .fil21 {fill:url(#id6)}
    .fil14 {fill:url(#id7)}
    .fil20 {fill:url(#id8);fill-rule:nonzero}
   ]]>
  </style>
  <linearGradient id="id0" gradientUnits="userSpaceOnUse" x1="9.74168" y1="12.5956" x2="12.7827" y2="12.5956">
   <stop offset="0" style="stop-color:#E5E5E5"/>
   <stop offset="0.180392" style="stop-color:white"/>
   <stop offset="0.231373" style="stop-color:white"/>
   <stop offset="0.4" style="stop-color:white"/>
   <stop offset="0.760784" style="stop-color:#E5E5E5"/>
   <stop offset="0.819608" style="stop-color:#CCCCCC"/>
   <stop offset="1" style="stop-color:white"/>
  </linearGradient>
  <linearGradient id="id1" gradientUnits="userSpaceOnUse" x1="12.7844" y1="12.4182" x2="21.8004" y2="12.5979">
   <stop offset="0" style="stop-color:#999999"/>
   <stop offset="0.180392" style="stop-color:white"/>
   <stop offset="0.270588" style="stop-color:white"/>
   <stop offset="0.4" style="stop-color:white"/>
   <stop offset="0.588235" style="stop-color:#CCCCCC"/>
   <stop offset="1" style="stop-color:#CCCCCC"/>
  </linearGradient>
  <linearGradient id="id2" gradientUnits="userSpaceOnUse" x1="11.6982" y1="22.0462" x2="8.96384" y2="7.45041">
   <stop offset="0" style="stop-color:#9D6222"/>
   <stop offset="1" style="stop-color:#C48123"/>
  </linearGradient>
  <linearGradient id="id3" gradientUnits="userSpaceOnUse" x1="2.83922" y1="2.59062" x2="17.456" y2="2.3304">
   <stop offset="0" style="stop-color:#BCE6FF"/>
   <stop offset="1" style="stop-color:#BBE6FF"/>
  </linearGradient>
  <linearGradient id="id4" gradientUnits="userSpaceOnUse" x1="11.0006" y1="12.4522" x2="20.5705" y2="12.4522">
   <stop offset="0" style="stop-color:#333333"/>
   <stop offset="0.321569" style="stop-color:#B3B3B3"/>
   <stop offset="0.568627" style="stop-color:#3D3C3C"/>
   <stop offset="1" style="stop-color:#666666"/>
  </linearGradient>
  <linearGradient id="id5" gradientUnits="userSpaceOnUse" x1="9.97214" y1="3.00222" x2="9.97214" y2="5.6518">
   <stop offset="0" style="stop-color:#7BBDF2"/>
   <stop offset="1" style="stop-color:#5C96D2"/>
  </linearGradient>
  <linearGradient id="id6" gradientUnits="userSpaceOnUse" x1="10.1006" y1="6.3514" x2="10.1731" y2="1.81363">
   <stop offset="0" style="stop-color:#4E87B4"/>
   <stop offset="1" style="stop-color:#66A1D1"/>
  </linearGradient>
  <linearGradient id="id7" gradientUnits="userSpaceOnUse" x1="9.76946" y1="5.98175" x2="10.1748" y2="17.3469">
   <stop offset="0" style="stop-color:white"/>
   <stop offset="1" style="stop-color:#EBEBEB"/>
  </linearGradient>
  <linearGradient id="id8" gradientUnits="userSpaceOnUse" x1="10.0101" y1="21.0651" x2="10.0101" y2="5.88197">
   <stop offset="0" style="stop-color:#919191"/>
   <stop offset="1" style="stop-color:#B2B2B2"/>
  </linearGradient>
 </defs>
 <g id="Слой_x0020_1">
  <metadata id="CorelCorpID_0Corel-Layer"/>
  <g id="_112615176">
   <path id="_112636416" class="fil0" d="M9.84175 19.044c6.38882,-0.253988 9.42788,0.239248 10.8418,0.959258l0 2.1983 -20.9157 0 0 -1.70563c1.15315,-0.6293 3.83788,-1.20417 10.0739,-1.45193z"/>
   <g>
    <path id="_112633704" class="fil1" d="M9.84543 19.1619c6.41915,-0.245767 9.4619,0.283185 10.8381,1.01765l0 1.97663c-0.109419,0.0170081 -0.226775,0.0323154 -0.351501,0.045355l-20.5642 0 0 -1.57297c1.11573,-0.634119 3.78204,-1.22543 10.0776,-1.46667z"/>
    <path id="_112630560" class="fil2" d="M9.84912 19.2804c6.43219,-0.236413 9.49507,0.325705 10.8345,1.06953l0 1.72547c-0.430305,0.0728514 -0.99866,0.109702 -1.67473,0.126144l-2.4829 0c-1.80768,-0.022394 -3.94957,-0.0663317 -6.17111,0l-10.2341 0c-0.128695,-0.0187089 -0.246618,-0.0394021 -0.352918,-0.0623631l0 -1.38588c1.08398,-0.634686 3.74916,-1.24018 10.0813,-1.4729z"/>
    <path id="_112634280" class="fil3" d="M9.85167 19.3986c6.42765,-0.225074 9.53192,0.368509 10.8319,1.11488l0 1.48084c-1.71187,0.312666 -5.95312,0.00935446 -10.4807,0.142868 -0.766783,0.0226775 -1.52138,0.044788 -2.25329,0.0643474l-7.03399 0c-0.468007,-0.0340162 -0.855792,-0.081639 -1.14776,-0.145136l0 -1.18858c1.05762,-0.629867 3.74349,-1.24726 10.0838,-1.46922z"/>
    <path id="_112616544" class="fil4" d="M9.85507 19.5171c6.40044,-0.212035 9.57245,0.409329 10.8285,1.15003l0 1.24641c-1.6152,0.319753 -5.91826,0.0317485 -10.4915,0.154774 -4.69537,0.126427 -8.95562,0.232161 -10.4243,-0.0929777l0 -1.00291c1.03239,-0.620229 3.76673,-1.24584 10.0872,-1.45533z"/>
    <path id="_112639896" class="fil5" d="M9.85819 19.6353c6.35367,-0.197011 9.62518,0.448164 10.8254,1.17611l0 1.02162c-1.50182,0.325139 -5.87545,0.054426 -10.5028,0.16668 -4.71465,0.114521 -9.02763,0.207783 -10.4129,-0.104883l0 -0.83028c1.00575,-0.604922 3.82257,-1.23451 10.0903,-1.42925z"/>
    <path id="_112639008" class="fil6" d="M9.86187 19.7538c6.28733,-0.18057 9.69633,0.484448 10.8217,1.19114l0 0.808453c-1.36547,0.328257 -5.82216,0.0765365 -10.5136,0.177735 -4.73903,0.102049 -9.11267,0.183121 -10.4022,-0.114521l0 -0.671821c0.972581,-0.583945 3.90988,-1.21353 10.094,-1.39098z"/>
    <path id="_112639440" class="fil7" d="M9.86414 19.872c6.21051,-0.161861 9.80405,0.520165 10.8194,1.19794l0 0.603221c-1.19142,0.330524 -5.75158,0.099781 -10.5258,0.189074 -4.76851,0.0895761 -9.21075,0.157325 -10.39,-0.122175l0 -0.527252c0.926092,-0.557583 4.02809,-1.18263 10.0963,-1.34081z"/>
    <path id="_397449424" class="fil8" d="M9.86783 19.9905c6.13256,-0.142018 9.97186,0.555882 10.8157,1.19709l0 0.40451c-0.957274,0.331375 -5.65066,0.124159 -10.5365,0.201546 -4.81131,0.0762531 -9.33689,0.130679 -10.3792,-0.128411l0 -0.393454c0.855225,-0.526968 4.16954,-1.14436 10.1,-1.28128z"/>
    <path id="_112619544" class="fil9" d="M9.87094 20.1087c6.11243,-0.121041 10.3012,0.606623 10.8126,1.20417l0 0.189074c-0.556165,0.341863 -5.46584,0.157609 -10.5476,0.22309 -4.87283,0.0626466 -9.50357,0.102899 -10.3681,-0.13238l0 -0.270429c0.742971,-0.491818 4.32687,-1.09929 10.1031,-1.21353z"/>
    <path id="_397453624" class="fil10" d="M9.87435 20.2272c6.07275,-0.0966628 10.7276,0.652545 10.7381,1.18972 0.0104883,0.340729 -5.16565,0.187089 -10.4875,0.239248 -4.97402,0.0487566 -9.75331,0.0742688 -10.3571,-0.134648l0 -0.150522c0.541142,-0.452983 4.47427,-1.05422 10.1065,-1.1438z"/>
    <path id="_397447648" class="fil11" d="M9.8769 20.3454c5.626,-0.0643474 10.604,0.598402 10.6111,1.05819 0.00708672,0.243783 -5.1356,0.149104 -10.375,0.183971 -5.23963,0.0348666 -10.3307,0.0436542 -10.3307,-0.144852 0,-0.407628 4.46888,-1.03296 10.0946,-1.09731z"/>
    <path id="_397467760" class="fil12" d="M9.88058 20.4639c5.1784,-0.0323154 10.4798,0.543693 10.4832,0.926092 0.00340162,0.146837 -5.1047,0.111403 -10.2616,0.128695 -5.15686,0.0175751 -10.24,0.0099214 -10.24,-0.107435 0,-0.35632 4.83966,-0.91532 10.0183,-0.947352z"/>
   </g>
   <path id="_112643016" class="fil13" d="M9.88342 20.5824c4.73194,0 10.3565,0.48955 10.3565,0.794563 0,0.0994975 -20.2981,0.0955289 -20.2981,0.00311815 0,-0.305012 5.20987,-0.797681 9.94153,-0.797681z"/>
  </g>
  <path class="fil14" d="M1.605 2.52117l16.734 0c0.631852,0 1.1489,0.520448 1.1489,1.14833l0 15.9893c0,0.628733 -0.517897,1.14918 -1.1489,1.14918 -7.56549,0 -3.82966,0 -16.734,0 -0.630434,0 -1.14861,-0.517047 -1.14861,-1.14918l0 -15.9893c0,-0.631852 0.516763,-1.14833 1.14861,-1.14833z"/>
  <rect class="fil15" x="5.20137" y="13.0489" width="14.2624" height="0.956707"/>
  <rect class="fil16" x="5.20137" y="8.91651" width="14.2624" height="0.956707"/>
  <rect class="fil17" x="5.20137" y="17.0282" width="14.2624" height="0.956707"/>
  <path class="fil18" d="M19.4879 6.11725l-19.0315 0 0 -2.65298c0,-0.510527 0.516763,-0.927509 1.14861,-0.927509l16.734 0c0.631852,0 1.1489,0.420667 1.1489,0.927509l0 2.65298z"/>
  <polygon class="fil19" points="0.784358,1.93836 19.5111,1.93836 19.5111,2.98266 0.784358,2.98266 "/>
  <path class="fil20" d="M20.0259 5.88197l0 13.5342c0,0.452699 -0.185955,0.865713 -0.484731,1.16449 -0.298209,0.298209 -0.711223,0.484731 -1.16421,0.484731l-16.734 0c-0.453266,0 -0.865997,-0.185955 -1.16449,-0.484448 -0.298492,-0.298492 -0.484164,-0.711223 -0.484164,-1.16477l0 -13.5342 1.00008 0 0 13.5342c0,0.177735 0.0734184,0.340162 0.191058,0.457802 0.117639,0.117639 0.280067,0.191341 0.457518,0.191341l16.734 0c0.176884,0 0.339595,-0.0739853 0.457235,-0.191625 0.117923,-0.117923 0.191625,-0.280634 0.191625,-0.457518l0 -13.5342 1.00008 0z"/>
  <path class="fil21" d="M19.0258 7.1624l0 -2.84432c0,-0.44051 -0.0141734,-1.79294 -0.20183,-2.06394 -0.108852,-0.0986471 -0.138616,-0.211751 -0.369643,-0.214302l-0.0257956 -0.000283469 -16.7791 -0.0374179 -0.00963793 0 -0.0510244 -0.00113387 0 0.00170081c-0.155057,0 -0.274398,0.0609458 -0.354619,0.156758 -0.253988,0.303878 -0.239814,1.13019 -0.239814,1.5639l0 3.43904 -1.00008 0 0 -3.43904c0,-0.643757 0.0615127,-1.71187 0.47396,-2.20454 0.265043,-0.316351 0.642623,-0.516196 1.12055,-0.516196l0.00963793 0.00198428 0.0606623 0.00141734 16.7734 0.0374179 0.00396856 0 0.0277799 0.000283469 0.00198428 0c1.81307,0.0218271 1.59508,1.89811 1.57864,3.25167l-0.0189924 0.522716 0 2.34429 -1.00008 0z"/>
  <polygon class="fil22" points="0.872516,5.11151 19.1194,5.11151 19.1194,6.31115 0.872516,6.31115 "/>
  <polygon class="fil23" points="0.964644,6.27033 19.2115,6.27033 19.2115,7.46997 0.964644,7.46997 "/>
  <path class="fil24" d="M10.788 11.5791c1.38106,-1.01113 2.88316,-0.963793 4.40283,-0.432857 0.203247,0.0887257 0.401675,0.165829 0.595284,0.232728 0.347816,0.149955 0.695915,0.324005 1.04203,0.513645 0.925242,0.507692 1.97861,0.102332 2.68303,0.0958124l-0.035717 7.78348c-0.129545,-0.0552764 -0.259941,-0.117923 -0.389202,-0.189074 -1.93694,-1.06414 -3.84468,-1.34364 -5.63649,-0.246618 0.422368,1.27788 0.126144,0.44788 0.545394,1.74135l-1.50975 0 -0.236413 -0.536323c-0.383817,-0.945368 -2.31566,-5.51828 -2.89223,-7.60376l0.278366 -0.278366 -0.798531 -2.4367c0.411313,-0.897462 0.771318,-0.715475 1.32947,-0.505708l0.62193 1.86239z"/>
  <rect class="fil16" x="2.01631" y="8.95449" width="1.98315" height="2.00866"/>
  <rect class="fil25" x="1.99732" y="17.0093" width="1.98315" height="1.9514"/>
  <rect class="fil26" x="1.9976" y="13.0486" width="1.98315" height="1.93241"/>
  <polygon class="fil27" points="9.48968,7.0252 22.0816,7.0252 22.0816,17.4155 9.93954,17.263 "/>
  <polygon class="fil28" points="9.48968,7.91331 22.0816,7.91331 22.0816,16.9908 9.93954,16.8576 "/>
  <path class="fil29" d="M12.8528 8.0712l2.90158 0 0 3.05182 -2.90158 0 0 -3.05182zm6.0478 -0.175751l2.90158 0 0 3.05182 -2.90158 0 0 -3.05182zm-0.0348666 6.17338l2.90158 0 0 3.05182 -2.90158 0 0 -3.05182zm-6.08267 -0.175184l2.90158 0 0 3.05182 -2.90158 0 0 -3.05182zm3.0762 -2.84121l2.90158 0 0 3.05182 -2.90158 0 0 -3.05182z"/>
  <path class="fil30" d="M9.88143 11.0173l2.90158 0 0 3.05182 -2.90158 0 0 -3.05182zm-0.13975 3.15699l0 0z"/>
  <path class="fil31" d="M8.8034 6.85144c0.352068,-0.223657 0.609458,0.0402525 1.00631,0.277232 0.841051,5.82868 1.57609,9.21443 2.33351,15.0082 -1.2501,-0.00708672 0.662183,0.732199 -2.11836,-0.0532921 -0.799098,-5.81111 -1.3683,-9.02139 -2.16797,-14.8325 0.399124,-0.54511 0.656513,-0.55078 0.946502,-0.399691z"/>
 </g>
</svg>
