<?xml version="1.0" encoding="UTF-8" standalone="no"?>
<!-- Creator: CorelDRAW -->

<svg
   xmlns:dc="http://purl.org/dc/elements/1.1/"
   xmlns:cc="http://creativecommons.org/ns#"
   xmlns:rdf="http://www.w3.org/1999/02/22-rdf-syntax-ns#"
   xmlns:svg="http://www.w3.org/2000/svg"
   xmlns="http://www.w3.org/2000/svg"
   xmlns:sodipodi="http://sodipodi.sourceforge.net/DTD/sodipodi-0.dtd"
   xmlns:inkscape="http://www.inkscape.org/namespaces/inkscape"
   xml:space="preserve"
   width="22px"
   height="22px"
   style="shape-rendering:geometricPrecision; text-rendering:geometricPrecision; image-rendering:optimizeQuality; fill-rule:evenodd; clip-rule:evenodd"
   viewBox="0 0 22 22"
   id="svg3753"
   version="1.1"
   inkscape:version="0.48.1 r9760"
   sodipodi:docname="nepomuk.svg"><metadata
   id="metadata3845"><rdf:RDF><cc:Work
       rdf:about=""><dc:format>image/svg+xml</dc:format><dc:type
         rdf:resource="http://purl.org/dc/dcmitype/StillImage" /><dc:title></dc:title></cc:Work></rdf:RDF></metadata><sodipodi:namedview
   pagecolor="#ffffff"
   bordercolor="#666666"
   borderopacity="1"
   objecttolerance="10"
   gridtolerance="10"
   guidetolerance="10"
   inkscape:pageopacity="0"
   inkscape:pageshadow="2"
   inkscape:window-width="646"
   inkscape:window-height="480"
   id="namedview3843"
   showgrid="false"
   inkscape:zoom="12.090909"
   inkscape:cx="11"
   inkscape:cy="11"
   inkscape:window-x="0"
   inkscape:window-y="24"
   inkscape:window-maximized="0"
   inkscape:current-layer="svg3753" />
 <defs
   id="defs3755">
  <style
   type="text/css"
   id="style3757">
   
    .fil26 {fill:white}
    .fil22 {fill:#666666}
    .fil23 {fill:#E3A13D}
    .fil27 {fill:#8A5026;fill-rule:nonzero}
    .fil11 {fill:#E3A13D;fill-rule:nonzero}
    .fil0 {fill:#333333;fill-opacity:0.000000}
    .fil12 {fill:#873C00;fill-opacity:0.000000}
    .fil13 {fill:#873C00;fill-opacity:0.007843}
    .fil1 {fill:#333333;fill-opacity:0.011765}
    .fil14 {fill:#873C00;fill-opacity:0.019608}
    .fil2 {fill:#333333;fill-opacity:0.027451}
    .fil15 {fill:#873C00;fill-opacity:0.027451}
    .fil16 {fill:#873C00;fill-opacity:0.035294}
    .fil3 {fill:#333333;fill-opacity:0.039216}
    .fil17 {fill:#873C00;fill-opacity:0.043137}
    .fil4 {fill:#333333;fill-opacity:0.054902}
    .fil18 {fill:#873C00;fill-opacity:0.054902}
    .fil19 {fill:#873C00;fill-opacity:0.062745}
    .fil5 {fill:#333333;fill-opacity:0.066667}
    .fil20 {fill:#873C00;fill-opacity:0.070588}
    .fil6 {fill:#333333;fill-opacity:0.078431}
    .fil21 {fill:#873C00;fill-opacity:0.078431}
    .fil7 {fill:#333333;fill-opacity:0.094118}
    .fil8 {fill:#333333;fill-opacity:0.105882}
    .fil9 {fill:#333333;fill-opacity:0.121569}
    .fil10 {fill:url(#id0)}
    .fil25 {fill:url(#id1)}
    .fil24 {fill:url(#id2)}
    .fil28 {fill:url(#id3)}
   
  </style>
  <linearGradient
   id="id0"
   gradientUnits="userSpaceOnUse"
   x1="15.9343"
   y1="1.36774"
   x2="1.76091"
   y2="20.8752">
   <stop
   offset="0"
   style="stop-color:#FEE868"
   id="stop3760" />
   <stop
   offset="1"
   style="stop-color:#FED716"
   id="stop3762" />
  </linearGradient>
  <linearGradient
   id="id1"
   gradientUnits="userSpaceOnUse"
   x1="11.0465"
   y1="4.40652"
   x2="11.0465"
   y2="16.0605">
   <stop
   offset="0"
   style="stop-color:#B0DBFF"
   id="stop3765" />
   <stop
   offset="1"
   style="stop-color:#DEF3FF"
   id="stop3767" />
  </linearGradient>
  <linearGradient
   id="id2"
   gradientUnits="userSpaceOnUse"
   x1="17.1578"
   y1="16.7085"
   x2="19.8408"
   y2="20.5812">
   <stop
   offset="0"
   style="stop-color:#FFD58C"
   id="stop3770" />
   <stop
   offset="1"
   style="stop-color:#FABD52"
   id="stop3772" />
  </linearGradient>
  <linearGradient
   id="id3"
   gradientUnits="userSpaceOnUse"
   x1="11.5023"
   y1="6.34686"
   x2="11.3257"
   y2="14.8679">
   <stop
   offset="0"
   style="stop-color:#7F7F7F"
   id="stop3775" />
   <stop
   offset="1"
   style="stop-color:#666666"
   id="stop3777" />
  </linearGradient>
 </defs>
 <g
   id="Слой_x0020_1">
  <metadata
   id="CorelCorpID_0Corel-Layer" />
  <g
   id="_251147680">
   <path
   id="_251157856"
   class="fil0"
   d="M17.6978 21.1459c7.92833,0.00935446 5.00294,0.753743 5.00294,0.95699 0,0.0498905 0.0391187,0.110269 0.0170081,0.172349l-11.267 0c-0.0192759,-0.0189924 -0.0280634,-0.0379848 -0.0280634,-0.0566937 0,-0.202964 -1.65347,-1.08172 6.27514,-1.07265z" />
   <g
   id="g3783">
    <path
   id="_251160424"
   class="fil1"
   d="M17.9807 21.1986c7.10854,0.00822059 4.56611,0.685994 4.56611,0.875918 0,0.0578276 0.0510244,0.129545 -0.0325989,0.200696l-10.1249 0c-0.0742688,-0.0331658 -0.103466,-0.0657647 -0.103466,-0.0977967 0,-0.190207 -1.41394,-0.986754 5.69488,-0.978817z" />
    <path
   id="_251143792"
   class="fil2"
   d="M18.2633 21.2519c6.28903,0.00708672 4.129,0.617962 4.129,0.794563 0,0.0651978 0.0626466,0.149955 -0.147404,0.228759l-8.82863 0c-0.197861,-0.0456384 -0.268161,-0.0935446 -0.268161,-0.138616 0,-0.177168 -1.17384,-0.891792 5.11519,-0.884706z" />
    <path
   id="_251157616"
   class="fil3"
   d="M18.5471 21.3052c5.46953,0.00595284 3.69218,0.549362 3.69218,0.713491 0,0.0734184 0.0694498,0.175467 -0.409612,0.256539l-7.19188 0c-0.471975,-0.0549929 -0.625615,-0.119624 -0.625615,-0.179436 0,-0.164128 -0.93488,-0.796547 4.53493,-0.790594z" />
    <path
   id="_251157592"
   class="fil4"
   d="M18.83 21.3585c4.65002,0.00481897 3.25479,0.48133 3.25479,0.632419 0,0.0864579 0.0646308,0.218554 -1.14323,0.284319l-4.49553 0c-1.2158,-0.0504574 -1.57155,-0.140884 -1.57155,-0.220255 0,-0.150805 -0.694782,-0.701301 3.95552,-0.696482z" />
    <path
   id="_251150416"
   class="fil5"
   d="M19.1129 21.4118c3.83023,0.00425203 2.81825,0.413581 2.81825,0.551063 0,0.0983636 -0.00680325,0.264476 -2.72952,0.264476 -2.72243,0 -3.46427,-0.115088 -3.46427,-0.212885 0,-0.137482 -0.454967,-0.606906 3.37554,-0.602654z" />
    <path
   id="_251171488"
   class="fil6"
   d="M19.3958 21.4651c3.01072,0.00311815 2.38085,0.345548 2.38085,0.469991 0,0.0771035 -0.138049,0.203814 -2.31254,0.203247 -2.17505,0 -2.86417,-0.0881587 -2.86417,-0.164695 0,-0.124443 -0.214869,-0.511944 2.79585,-0.508543z" />
    <path
   id="_251164624"
   class="fil7"
   d="M19.6795 21.5184c2.19121,0.00198428 1.94403,0.276949 1.94403,0.388919 0,0.0558433 -0.269295,0.142301 -1.89641,0.141734 -1.62711,0 -2.26321,-0.0606623 -2.26321,-0.116222 0,-0.111403 0.0238114,-0.416699 2.21559,-0.414431z" />
    <path
   id="_251166064"
   class="fil8"
   d="M19.9619 21.5714c1.37199,0.00113387 1.50749,0.2092 1.50749,0.307563 0,0.0354336 -0.400541,0.0822059 -1.47971,0.081639 -1.07945,0 -1.66339,-0.0342997 -1.66339,-0.0685994 0,-0.0983636 0.263909,-0.321453 1.63561,-0.320603z" />
   </g>
   <path
   id="_251147896"
   class="fil9"
   d="M20.2453 21.6253c0.55163,0 1.06981,0.141451 1.06981,0.226775 0,0.0280634 -2.12601,0.0260791 -2.12601,0 0,-0.0853241 0.503724,-0.226775 1.0562,-0.226775z" />
  </g>
  <g
   id="_249954384">
   <path
   id="_249950424"
   class="fil0"
   d="M4.31212 20.3723c-7.50228,0.0141734 -4.73421,1.13756 -4.73421,1.44427 0,0.0754027 -0.0368509,0.166396 -0.0158742,0.260224l10.6613 0c0.0184255,-0.0286303 0.0266461,-0.0572607 0.0266461,-0.0856075 0,-0.30643 1.56446,-1.6325 -5.93782,-1.61889z" />
   <g
   id="g3796">
    <path
   id="_249971280"
   class="fil1"
   d="M4.04425 20.452c-6.72614,0.0121892 -4.32063,1.03523 -4.32063,1.32181 0,0.0873083 -0.0481897,0.195593 0.0308981,0.303028l9.58096 0c0.0703002,-0.0501739 0.0977967,-0.099214 0.0977967,-0.147687 0,-0.28687 1.33769,-1.48934 -5.38902,-1.47716z" />
    <path
   id="_249965880"
   class="fil2"
   d="M3.77694 20.5322c-5.95114,0.0107718 -3.90733,0.932895 -3.90733,1.19936 0,0.0983636 -0.0589615,0.226208 0.13975,0.345265l8.3541 0c0.187089,-0.0688829 0.253704,-0.141167 0.253704,-0.2092 0,-0.267311 1.11091,-1.34591 -4.84023,-1.33542z" />
    <path
   id="_249965088"
   class="fil3"
   d="M3.50849 20.6127c-5.17557,0.009071 -3.49375,0.829146 -3.49375,1.0769 0,0.110836 -0.0657647,0.26476 0.387502,0.387218l6.80551 0c0.446463,-0.0830563 0.591882,-0.18057 0.591882,-0.270713 0,-0.247752 0.884422,-1.20219 -4.29115,-1.1934z" />
    <path
   id="_249977520"
   class="fil4"
   d="M3.24061 20.6932c-4.4,0.00737018 -3.07989,0.72653 -3.07989,0.954439 0,0.130679 -0.0612292,0.329957 1.082,0.429171l4.25373 0c1.1506,-0.0762531 1.48708,-0.212601 1.48708,-0.332509 0,-0.227625 0.657364,-1.05847 -3.74292,-1.0511z" />
    <path
   id="_249962784"
   class="fil5"
   d="M2.97302 20.7737c-3.62443,0.00623631 -2.66659,0.624198 -2.66659,0.831697 0,0.148254 0.00623631,0.399124 2.58268,0.399124 2.57616,0 3.27803,-0.173766 3.27803,-0.321453 0,-0.207499 0.430305,-0.915887 -3.19412,-0.909367z" />
    <path
   id="_249954576"
   class="fil6"
   d="M2.70542 20.8539c-2.84914,0.00481897 -2.25301,0.521582 -2.25301,0.709522 0,0.116222 0.130679,0.307563 2.18838,0.306713 2.05798,0 2.71024,-0.132947 2.71024,-0.248602 0,-0.187656 0.203247,-0.772735 -2.64561,-0.767633z" />
    <path
   id="_249953520"
   class="fil7"
   d="M2.4367 20.9344c-2.07329,0.00311815 -1.83943,0.418116 -1.83943,0.587064 0,0.0841902 0.254838,0.214869 1.79436,0.214019 1.5398,0 2.14189,-0.0915604 2.14189,-0.175467 0,-0.168097 -0.0226775,-0.629017 -2.09682,-0.625615z" />
    <path
   id="_249959784"
   class="fil8"
   d="M2.16967 21.0144c-1.298,0.00170081 -1.42641,0.315784 -1.42641,0.464322 0,0.0535756 0.378998,0.124159 1.40005,0.123309 1.02162,0 1.5741,-0.0518748 1.5741,-0.10375 0,-0.148254 -0.249736,-0.485015 -1.54774,-0.483881z" />
   </g>
   <path
   id="_249950160"
   class="fil9"
   d="M1.90151 21.0957c-0.522149,0 -1.01227,0.213452 -1.01227,0.34243 0,0.0422368 2.01149,0.0391187 2.01149,0 0,-0.128978 -0.476511,-0.34243 -0.999227,-0.34243z" />
  </g>
  <path
   class="fil10"
   d="M8.80113 0.821209l8.47429 6.05007c0.360572,0.25739 0.397423,0.971447 -0.01389,1.6376l-7.30669 11.743c-0.443912,0.714057 0.261642,0.795413 -0.45355,0.966628l-7.41837 0.332225c-0.432573,0.0935446 -1.08455,-0.230743 -1.18036,-1.0083l-0.152223 -6.77377c-0.0841902,-0.636104 -0.728514,-1.04203 -0.318902,-1.70365l6.95802 -10.4138c0.435408,-0.652545 1.02701,-1.05224 1.41167,-0.829996z"
   id="path3807" />
  <path
   class="fil11"
   d="M16.7354 10.583l-5.63252 9.75501c-0.234995,0.407061 -0.616828,0.682026 -1.04033,0.795696l-9.97554 0.707538 -0.00198428 -8.79461c-0.113671,-0.423502 -0.0663317,-0.890942 0.169231,-1.29885l6.20059 -9.69519c0.334493,-0.579126 0.944234,-1.50805 1.57098,-1.73653 0.402525,-0.146837 0.845587,-0.130679 1.27533,0.117356l0.00765365 0.00680325 0.053859 0.0328824 7.8997 5.88878 0.0668986 0.0657647 -0.0385517 -0.049607 0.492385 0.132947c1.61946,0.960959 -0.0416699,2.40296 -0.759412,3.61196l-0.288288 0.46007zm-6.53197 9.23597l5.89246 -10.2049c0.228476,-0.396006 0.917871,-1.61917 0.889525,-1.96019 -0.0464889,-0.145703 -0.0141734,-0.262775 -0.220822,-0.385234l-0.0232444 -0.013323 -7.90452 -5.89161 -0.00850406 -0.00510244 -0.045355 -0.0280634 -0.000850406 0.00255122c-0.139467,-0.0807886 -0.278366,-0.0878753 -0.400258,-0.0433707 -0.386084,0.141167 -0.802216,0.891509 -1.02757,1.28156l-6.20088 9.69548c-0.0924108,0.159876 -0.110553,0.344414 -0.0657647,0.511094l-0.0218271 8.04966 8.728 -0.697049c-0.00170081,-0.129545 0.149388,-0.237547 0.409612,-0.311532z"
   id="path3809" />
  <g
   id="_158511936">
   <path
   id="_251345264"
   class="fil12"
   d="M7.93911 21.4946c-0.414431,-0.578843 -0.786625,-1.20276 -1.11176,-1.86324 0.0941116,-0.266177 0.146837,-0.557866 0.146837,-0.866564 0,-0.95614 -0.504858,-1.76998 -1.20871,-2.06649 -0.367942,-1.49813 -0.51733,-3.10115 -0.406494,-4.75349 0.117073,-1.73369 0.511661,-3.35825 1.12395,-4.81727 0.266744,3.20575 1.64128,6.25417 3.98812,8.23023 0.807886,0.681175 1.67332,1.1866 2.56539,1.52223l-2.10844 3.38858c-0.512228,0.824327 0.302178,0.918155 -0.523567,1.11573l-2.46533 0.110269z" />
   <g
   id="g3813">
    <path
   id="_251345768"
   class="fil13"
   d="M8.29316 21.479c-0.518464,-0.687978 -0.974282,-1.44399 -1.35923,-2.25358 0.0260791,-0.148821 0.0402525,-0.302461 0.0402525,-0.460637 0,-0.81639 -0.368509,-1.5279 -0.913052,-1.90321 -0.427754,-1.5741 -0.608891,-3.27605 -0.490401,-5.03214 0.1046,-1.55001 0.434841,-3.01129 0.946502,-4.34274 0.336761,3.07365 1.69486,5.96872 3.95382,7.87107 0.808169,0.681175 1.6736,1.1866 2.56539,1.52223l-2.10844 3.38858c-0.512228,0.824327 0.302178,0.918155 -0.523567,1.11573l-2.11127 0.0946785z" />
    <path
   id="_251137032"
   class="fil14"
   d="M8.65656 21.4625c-0.6636,-0.831413 -1.23195,-1.77338 -1.68465,-2.79812 -0.0226775,-0.583945 -0.231594,-1.1078 -0.557299,-1.48509 -0.527819,-1.68976 -0.762247,-3.54392 -0.632702,-5.46528 0.0924108,-1.36689 0.362556,-2.66574 0.780389,-3.86283 0.401675,2.93673 1.73936,5.68014 3.90875,7.50653 0.808169,0.681175 1.6736,1.18575 2.56539,1.52194l-2.10844 3.38887c-0.512228,0.824327 0.302178,0.918155 -0.523567,1.11573l-1.74787 0.0782373z" />
    <path
   id="_158475040"
   class="fil15"
   d="M9.03018 21.4458c-2.09313,-2.47752 -3.29419,-6.02966 -3.03708,-9.84657 0.0799382,-1.18348 0.295091,-2.3131 0.625615,-3.37073 0.460637,2.79302 1.77565,5.3808 3.85234,7.12924 0.807886,0.681175 1.67332,1.1866 2.56539,1.52223l-2.10844 3.38858c-0.512228,0.824327 0.302178,0.918155 -0.523567,1.11573l-1.37426 0.0615127z" />
    <path
   id="_251171224"
   class="fil16"
   d="M9.41796 21.4285c-2.19773,-2.44407 -3.47561,-6.05432 -3.21368,-9.9438 0.0674655,-0.99866 0.233295,-1.95905 0.484448,-2.86842 0.515346,2.6442 1.80286,5.07437 3.78232,6.74145 0.808169,0.681175 1.6736,1.18575 2.56539,1.52194l-2.10844 3.38887c-0.512228,0.824327 0.302178,0.918155 -0.523567,1.11573l-0.986471 0.0442211z" />
    <path
   id="_249707712"
   class="fil17"
   d="M9.81794 21.4104c-2.30914,-2.40381 -3.67092,-6.07615 -3.40332,-10.041 0.0552764,-0.814689 0.177168,-1.60216 0.357454,-2.35931 0.561551,2.49027 1.81845,4.76312 3.69898,6.34771 0.807886,0.681175 1.67332,1.1866 2.56539,1.52223l-2.10844 3.38858c-0.512228,0.824327 0.302178,0.918155 -0.523567,1.11573l-0.586497 0.0260791z" />
    <path
   id="_249720264"
   class="fil18"
   d="M10.2369 21.392c-2.43159,-2.35251 -3.88494,-6.08947 -3.61139,-10.1371 0.0425203,-0.628166 0.12586,-1.24074 0.2452,-1.83489 0.603221,2.32869 1.82327,4.4411 3.60034,5.93782 0.808169,0.681175 1.6736,1.18575 2.56539,1.52194l-2.10844 3.38887c-0.512228,0.824327 0.302178,0.918155 -0.523567,1.11573l-0.16753 0.00765365z" />
    <path
   id="_251157208"
   class="fil19"
   d="M10.6207 21.3222c-2.52967,-2.29553 -4.06154,-6.0753 -3.78402,-10.1828 0.0300477,-0.441361 0.0802216,-0.875918 0.149671,-1.30027 0.636104,2.16287 1.81448,4.112 3.48468,5.51857 0.807886,0.681175 1.67332,1.1866 2.56539,1.52223l-2.10844 3.38858c-0.456101,0.7339 0.139467,0.888674 -0.30728,1.05365z" />
    <path
   id="_251151256"
   class="fil20"
   d="M10.7789 21.0413c-2.49339,-2.25273 -4.00343,-5.97382 -3.73101,-10.0169 0.0167246,-0.255972 0.0422368,-0.507409 0.0734184,-0.757712 0.661049,1.99137 1.7901,3.77779 3.34975,5.0911 0.808169,0.681175 1.6736,1.18575 2.56539,1.52194l-2.10844 3.38887c-0.244917,0.394305 -0.186522,0.621647 -0.149104,0.772735z" />
   </g>
   <path
   id="_158519424"
   class="fil21"
   d="M10.7724 20.6099c-2.35988,-2.22438 -3.77665,-5.81054 -3.51501,-9.69888l0.0161577 -0.209483c0.67664,1.81618 1.75269,3.43904 3.19753,4.65626 0.808169,0.681175 1.6736,1.18575 2.56539,1.52194l-2.10844 3.38887c-0.0813555,0.131246 -0.129545,0.243783 -0.155624,0.341296z" />
  </g>
  <polygon
   class="fil22"
   points="14.4283,15.7733 15.7957,14.4059 21.9926,20.7856 21.8087,21.7591 20.6249,22.1531 "
   id="polygon3824" />
  <polygon
   class="fil23"
   points="16.2739,18.233 18.1284,16.378 18.5111,16.3663 21.0946,18.9822 21.1147,19.5001 19.3827,21.3012 18.9604,21.3344 16.2975,18.6383 "
   id="polygon3826" />
  <polygon
   class="fil24"
   points="16.2822,17.6595 17.3321,16.6118 17.7137,16.5985 20.6969,19.5471 20.7165,20.0645 20.1872,20.6918 20.1674,20.1915 17.1856,17.244 16.8029,17.2559 16.3023,17.6595 "
   id="polygon3828" />
  <path
   class="fil25"
   d="M15.0899 5.41794c1.35328,0.936864 2.22069,2.31424 2.54271,3.80642l-0.478779 5.03299 -4.06636 2.32076c-1.68919,0.431156 -3.54846,0.156191 -5.09365,-0.913903 -2.82902,-1.95792 -3.534,-5.842 -1.57524,-8.67131 1.95848,-2.82958 5.842,-3.53514 8.67131,-1.57495z"
   id="path3830" />
  <ellipse
   class="fil26"
   cx="11.5253"
   cy="6.58836"
   rx="2.24001"
   ry="1.56756"
   id="ellipse3832" />
  <ellipse
   class="fil26"
   cx="8.35864"
   cy="8.90011"
   rx="1.15602"
   ry="0.81523"
   id="ellipse3834" />
  <ellipse
   class="fil26"
   cx="11.8359"
   cy="15.3445"
   rx="2.0227"
   ry="0.519856"
   id="ellipse3836" />
  <path
   class="fil27"
   d="M15.9978 17.4798l1.41167 -1.41167 1.16761 0.169514 2.63116 2.57475 0.116789 0.267594 0.0198428 0.517897 0.173199 0.0555599 -0.116506 0.122458 -1.59253 1.66113 -0.257106 0.121325 -0.422085 0.0331658 -0.179719 0.0130396 -0.130112 -0.128978 -2.81087 -2.7556 -0.0113387 -1.24018zm1.69798 -0.572607l-0.998377 0.998377 0.171499 0.547945 2.3817 2.32898 0.0912769 -0.00651978 1.20162 -1.31756 -0.00765365 -0.193042 -2.25528 -2.2017 -0.584796 -0.156475z"
   id="path3838" />
  <g
   id="_251162728">
   <path
   id="_251164528"
   class="fil28"
   d="M11.4141 3.64796c3.8427,0 6.95944,3.11674 6.95944,6.95972 0,3.8427 -3.11674,6.95944 -6.95944,6.95944 -3.84298,0 -6.95972,-3.11674 -6.95972,-6.95944 0,-3.84298 3.11674,-6.95972 6.95972,-6.95972zm0 0.685144c3.46455,0 6.27429,2.80974 6.27429,6.27458 0,3.46455 -2.80974,6.27458 -6.27429,6.27458 -3.46484,0 -6.27486,-2.81002 -6.27486,-6.27458 0,-3.46484 2.81002,-6.27458 6.27486,-6.27458z" />
   <path
   id="_251145424"
   class="fil28"
   d="M11.4141 3.97196c3.66383,0 6.63543,2.9716 6.63543,6.63572 0,3.66383 -2.9716,6.63543 -6.63543,6.63543 -3.66412,0 -6.63572,-2.9716 -6.63572,-6.63543 0,-3.66412 2.9716,-6.63572 6.63572,-6.63572zm0 0.653112c3.30326,0 5.98232,2.67906 5.98232,5.98261 0,3.30326 -2.67906,5.98232 -5.98232,5.98232 -3.30354,0 -5.98261,-2.67906 -5.98261,-5.98232 0,-3.30354 2.67906,-5.98261 5.98261,-5.98261z" />
  </g>
 </g>
</svg>