<?xml version="1.0" encoding="UTF-8"?>
<!DOCTYPE svg PUBLIC "-//W3C//DTD SVG 1.1//EN" "http://www.w3.org/Graphics/SVG/1.1/DTD/svg11.dtd">
<!-- Creator: CorelDRAW -->
<svg xmlns="http://www.w3.org/2000/svg" xml:space="preserve" width="64px" height="64px" style="shape-rendering:geometricPrecision; text-rendering:geometricPrecision; image-rendering:optimizeQuality; fill-rule:evenodd; clip-rule:evenodd"
viewBox="0 0 64 64"
 xmlns:xlink="http://www.w3.org/1999/xlink">
 <defs>
  <style type="text/css">
   <![CDATA[
    .fil131 {fill:none}
    .fil14 {fill:#C9C9C9}
    .fil15 {fill:#E5E5E5}
    .fil134 {fill:white}
    .fil129 {fill:white;fill-rule:nonzero}
    .fil0 {fill:black;fill-opacity:0.000000}
    .fil135 {fill:#95CEFD;fill-rule:nonzero;fill-opacity:0.000000}
    .fil1 {fill:black;fill-opacity:0.003922}
    .fil2 {fill:black;fill-opacity:0.007843}
    .fil94 {fill:#4990D0;fill-opacity:0.011765}
    .fil3 {fill:black;fill-opacity:0.015686}
    .fil126 {fill:#B0E5FF;fill-opacity:0.015686}
    .fil52 {fill:#B8E7FF;fill-opacity:0.015686}
    .fil4 {fill:black;fill-opacity:0.019608}
    .fil93 {fill:#4990D0;fill-opacity:0.019608}
    .fil5 {fill:black;fill-opacity:0.023529}
    .fil6 {fill:black;fill-opacity:0.027451}
    .fil125 {fill:#B0E5FF;fill-opacity:0.031373}
    .fil51 {fill:#B8E7FF;fill-opacity:0.031373}
    .fil92 {fill:#4990D0;fill-opacity:0.031373}
    .fil7 {fill:black;fill-opacity:0.031373}
    .fil8 {fill:black;fill-opacity:0.035294}
    .fil91 {fill:#4990D0;fill-opacity:0.039216}
    .fil9 {fill:black;fill-opacity:0.043137}
    .fil124 {fill:#B0E5FF;fill-opacity:0.047059}
    .fil50 {fill:#B8E7FF;fill-opacity:0.047059}
    .fil10 {fill:black;fill-opacity:0.047059}
    .fil11 {fill:black;fill-opacity:0.050980}
    .fil90 {fill:#4990D0;fill-opacity:0.050980}
    .fil12 {fill:black;fill-opacity:0.054902}
    .fil13 {fill:black;fill-opacity:0.058824}
    .fil123 {fill:#B0E5FF;fill-opacity:0.058824}
    .fil49 {fill:#B8E7FF;fill-opacity:0.058824}
    .fil89 {fill:#4990D0;fill-opacity:0.062745}
    .fil88 {fill:#4990D0;fill-opacity:0.070588}
    .fil122 {fill:#B0E5FF;fill-opacity:0.074510}
    .fil48 {fill:#B8E7FF;fill-opacity:0.074510}
    .fil87 {fill:#4990D0;fill-opacity:0.082353}
    .fil121 {fill:#B0E5FF;fill-opacity:0.090196}
    .fil47 {fill:#B8E7FF;fill-opacity:0.090196}
    .fil86 {fill:#4990D0;fill-opacity:0.090196}
    .fil85 {fill:#4990D0;fill-opacity:0.101961}
    .fil120 {fill:#B0E5FF;fill-opacity:0.105882}
    .fil46 {fill:#B8E7FF;fill-opacity:0.105882}
    .fil84 {fill:#4990D0;fill-opacity:0.113725}
    .fil137 {fill:#B2B2B2;fill-rule:nonzero;fill-opacity:0.121569}
    .fil119 {fill:#B0E5FF;fill-opacity:0.121569}
    .fil45 {fill:#B8E7FF;fill-opacity:0.121569}
    .fil83 {fill:#4990D0;fill-opacity:0.121569}
    .fil82 {fill:#4990D0;fill-opacity:0.133333}
    .fil118 {fill:#B0E5FF;fill-opacity:0.137255}
    .fil44 {fill:#B8E7FF;fill-opacity:0.137255}
    .fil81 {fill:#4990D0;fill-opacity:0.145098}
    .fil117 {fill:#B0E5FF;fill-opacity:0.152941}
    .fil43 {fill:#B8E7FF;fill-opacity:0.152941}
    .fil80 {fill:#4990D0;fill-opacity:0.152941}
    .fil79 {fill:#4990D0;fill-opacity:0.164706}
    .fil116 {fill:#B0E5FF;fill-opacity:0.164706}
    .fil42 {fill:#B8E7FF;fill-opacity:0.164706}
    .fil78 {fill:#4990D0;fill-opacity:0.172549}
    .fil115 {fill:#B0E5FF;fill-opacity:0.180392}
    .fil41 {fill:#B8E7FF;fill-opacity:0.180392}
    .fil77 {fill:#4990D0;fill-opacity:0.184314}
    .fil76 {fill:#4990D0;fill-opacity:0.196078}
    .fil114 {fill:#B0E5FF;fill-opacity:0.196078}
    .fil40 {fill:#B8E7FF;fill-opacity:0.196078}
    .fil75 {fill:#4990D0;fill-opacity:0.203922}
    .fil113 {fill:#B0E5FF;fill-opacity:0.211765}
    .fil39 {fill:#B8E7FF;fill-opacity:0.211765}
    .fil74 {fill:#4990D0;fill-opacity:0.215686}
    .fil127 {fill:#A0DFFF;fill-opacity:0.219608}
    .fil73 {fill:#4990D0;fill-opacity:0.223529}
    .fil112 {fill:#B0E5FF;fill-opacity:0.227451}
    .fil38 {fill:#B8E7FF;fill-opacity:0.227451}
    .fil72 {fill:#4990D0;fill-opacity:0.235294}
    .fil111 {fill:#B0E5FF;fill-opacity:0.243137}
    .fil37 {fill:#B8E7FF;fill-opacity:0.243137}
    .fil71 {fill:#4990D0;fill-opacity:0.247059}
    .fil70 {fill:#4990D0;fill-opacity:0.254902}
    .fil110 {fill:#B0E5FF;fill-opacity:0.258824}
    .fil36 {fill:#B8E7FF;fill-opacity:0.258824}
    .fil69 {fill:#4990D0;fill-opacity:0.266667}
    .fil109 {fill:#B0E5FF;fill-opacity:0.274510}
    .fil35 {fill:#B8E7FF;fill-opacity:0.274510}
    .fil68 {fill:#4990D0;fill-opacity:0.274510}
    .fil67 {fill:#4990D0;fill-opacity:0.286275}
    .fil108 {fill:#B0E5FF;fill-opacity:0.286275}
    .fil34 {fill:#B8E7FF;fill-opacity:0.286275}
    .fil66 {fill:#4990D0;fill-opacity:0.298039}
    .fil107 {fill:#B0E5FF;fill-opacity:0.301961}
    .fil33 {fill:#B8E7FF;fill-opacity:0.301961}
    .fil65 {fill:#4990D0;fill-opacity:0.305882}
    .fil64 {fill:#4990D0;fill-opacity:0.317647}
    .fil106 {fill:#B0E5FF;fill-opacity:0.317647}
    .fil32 {fill:#B8E7FF;fill-opacity:0.317647}
    .fil63 {fill:#4990D0;fill-opacity:0.325490}
    .fil105 {fill:#B0E5FF;fill-opacity:0.333333}
    .fil31 {fill:#B8E7FF;fill-opacity:0.333333}
    .fil62 {fill:#4990D0;fill-opacity:0.337255}
    .fil61 {fill:#4990D0;fill-opacity:0.349020}
    .fil104 {fill:#B0E5FF;fill-opacity:0.349020}
    .fil30 {fill:#B8E7FF;fill-opacity:0.349020}
    .fil60 {fill:#4990D0;fill-opacity:0.356863}
    .fil103 {fill:#B0E5FF;fill-opacity:0.364706}
    .fil29 {fill:#B8E7FF;fill-opacity:0.364706}
    .fil59 {fill:#4990D0;fill-opacity:0.368627}
    .fil58 {fill:#4990D0;fill-opacity:0.380392}
    .fil102 {fill:#B0E5FF;fill-opacity:0.380392}
    .fil28 {fill:#B8E7FF;fill-opacity:0.380392}
    .fil57 {fill:#4990D0;fill-opacity:0.388235}
    .fil101 {fill:#B0E5FF;fill-opacity:0.392157}
    .fil27 {fill:#B8E7FF;fill-opacity:0.392157}
    .fil56 {fill:#4990D0;fill-opacity:0.400000}
    .fil100 {fill:#B0E5FF;fill-opacity:0.407843}
    .fil26 {fill:#B8E7FF;fill-opacity:0.407843}
    .fil55 {fill:#4990D0;fill-opacity:0.407843}
    .fil54 {fill:#4990D0;fill-opacity:0.419608}
    .fil99 {fill:#B0E5FF;fill-opacity:0.423529}
    .fil25 {fill:#B8E7FF;fill-opacity:0.423529}
    .fil53 {fill:#4990D0;fill-opacity:0.431373}
    .fil98 {fill:#B0E5FF;fill-opacity:0.439216}
    .fil24 {fill:#B8E7FF;fill-opacity:0.439216}
    .fil16 {fill:#A4A5A7;fill-opacity:0.439216}
    .fil130 {fill:#A8DEFF;fill-opacity:0.439216}
    .fil128 {fill:#808385;fill-rule:nonzero;fill-opacity:0.439216}
    .fil97 {fill:#B0E5FF;fill-opacity:0.454902}
    .fil23 {fill:#B8E7FF;fill-opacity:0.454902}
    .fil96 {fill:#B0E5FF;fill-opacity:0.470588}
    .fil22 {fill:#B8E7FF;fill-opacity:0.470588}
    .fil95 {fill:#B0E5FF;fill-opacity:0.486275}
    .fil21 {fill:#B8E7FF;fill-opacity:0.486275}
    .fil132 {fill:#396DA6;fill-opacity:0.501961}
    .fil136 {fill:#D1CFCF;fill-rule:nonzero;fill-opacity:0.501961}
    .fil133 {fill:url(#id0)}
    .fil19 {fill:url(#id1)}
    .fil20 {fill:url(#id2)}
    .fil17 {fill:url(#id3)}
    .fil18 {fill:url(#id4)}
    .fil139 {fill:url(#id5);fill-rule:nonzero}
    .fil138 {fill:url(#id6);fill-rule:nonzero}
   ]]>
  </style>
  <linearGradient id="id0" gradientUnits="userSpaceOnUse" x1="31.9941" y1="57.557" x2="31.9941" y2="12.3722">
   <stop offset="0" style="stop-color:#7F7F7F"/>
   <stop offset="1" style="stop-color:#999999"/>
  </linearGradient>
  <linearGradient id="id1" gradientUnits="userSpaceOnUse" x1="31.9823" y1="8.50759" x2="32.2504" y2="30.461">
   <stop offset="0" style="stop-color:#EDEDED"/>
   <stop offset="1" style="stop-color:#D1CFCF"/>
  </linearGradient>
  <linearGradient id="id2" gradientUnits="userSpaceOnUse" x1="32.2209" y1="24.559" x2="31.7685" y2="45.3714">
   <stop offset="0" style="stop-color:#5CA2DA"/>
   <stop offset="1" style="stop-color:#8DC8F4"/>
  </linearGradient>
  <linearGradient id="id3" gradientUnits="userSpaceOnUse" x1="32.463" y1="44.7017" x2="32.176" y2="25.2369">
   <stop offset="0" style="stop-color:#B0B0B0"/>
   <stop offset="1" style="stop-color:#BEBEBE"/>
  </linearGradient>
  <linearGradient id="id4" gradientUnits="userSpaceOnUse" x1="32.4642" y1="44.5706" x2="32.1748" y2="24.9594">
   <stop offset="0" style="stop-color:#B0B0B0"/>
   <stop offset="1" style="stop-color:#CCCCCC"/>
  </linearGradient>
  <linearGradient id="id5" gradientUnits="userSpaceOnUse" x1="3.29059" y1="55.8964" x2="3.88587" y2="13.9265">
   <stop offset="0" style="stop-color:#B8B8B8"/>
   <stop offset="1" style="stop-color:white"/>
  </linearGradient>
  <linearGradient id="id6" gradientUnits="userSpaceOnUse" xlink:href="#id0" x1="32.0543" y1="61.4866" x2="32.0543" y2="6.57646">
  </linearGradient>
 </defs>
 <g id="Слой_x0020_1">
  <metadata id="CorelCorpID_0Corel-Layer"/>
  <g id="_66045840">
   <path id="_65932768" class="fil0" d="M30.8697 54.0774c31.4791,-1.26143 35.7252,3.60477 35.8623,7.55324 0.13701,3.94847 -16.3313,1.70317 -34.6835,2.38468 -18.3534,0.681504 -33.8296,1.25553 -33.8296,-1.67128 0,-2.92799 1.17167,-7.0052 32.6508,-8.26664z"/>
   <g>
    <path id="_63622208" class="fil1" d="M30.9429 54.5629c30.1433,-1.16458 35.3544,3.44059 35.4808,7.15521 0.12638,3.65674 -16.2404,1.58978 -34.3457,2.21932 -18.1065,0.628354 -33.5567,1.15277 -33.5567,-1.55907 0,-2.77444 2.27719,-6.65205 32.4217,-7.81545z"/>
    <path id="_142165496" class="fil2" d="M31.0138 55.0495c28.8086,-1.06773 34.9847,3.2776 35.1004,6.75953 0.116931,3.36382 -16.1494,1.47522 -34.0091,2.0516 -17.8585,0.576385 -33.2851,1.05119 -33.2851,-1.44687 0,-2.61854 3.3839,-6.29653 32.1937,-7.36426z"/>
    <path id="_64379952" class="fil3" d="M31.0846 55.5349c27.474,-0.970878 34.615,3.11224 34.7213,6.3615 0.105119,3.07209 -16.0596,1.36183 -33.6725,1.88624 -17.6128,0.523235 -33.0134,0.948437 -33.0134,-1.33466 0,-2.46499 4.49061,-5.94338 31.9646,-6.91308z"/>
    <path id="_65374416" class="fil4" d="M31.1567 56.0204c26.1381,-0.872845 34.2453,2.94925 34.3398,5.96582 0.0944894,2.77917 -15.9675,1.24726 -33.3347,1.71853 -17.3671,0.472447 -32.7429,0.846861 -32.7429,-1.22246 0,-2.30908 5.59731,-5.58786 31.7378,-6.46189z"/>
    <path id="_142333272" class="fil5" d="M31.2275 56.5082c24.8035,-0.777175 33.8756,2.78507 33.9595,5.56779 0.0850404,2.48743 -15.8766,1.13387 -32.998,1.55317 -17.1191,0.419296 -32.4701,0.744104 -32.4701,-1.11025 0,-2.15554 6.70284,-5.23471 31.5087,-6.0107z"/>
    <path id="_145415376" class="fil6" d="M31.2984 56.9936c23.4688,-0.679142 33.5059,2.62208 33.5792,5.17211 0.0744104,2.19452 -15.7856,1.0193 -32.6602,1.38545 -16.8734,0.367327 -32.1996,0.642528 -32.1996,-0.996863 0,-2.00081 7.80954,-4.88156 31.2807,-5.5607z"/>
    <path id="_141762928" class="fil7" d="M31.3693 57.4779c22.1353,-0.582291 33.1362,2.45672 33.2,4.77407 0.0625992,1.90396 -15.6959,0.905917 -32.3236,1.22009 -16.6278,0.314177 -31.928,0.540952 -31.928,-0.885838 0,-1.84609 8.91625,-4.52604 31.0516,-5.10833z"/>
    <path id="_67164728" class="fil8" d="M31.4402 57.9633c20.8006,-0.484258 32.7665,2.29373 32.8197,4.3784 0.0519691,1.61104 -15.6049,0.791348 -31.9858,1.05238 -16.3821,0.262208 -31.6575,0.439375 -31.6575,-0.77245 0,-1.69136 10.023,-4.17289 30.8236,-4.65833z"/>
    <path id="_141884544" class="fil9" d="M31.511 58.4511c19.466,-0.388587 32.3969,2.12955 32.4394,3.98036 0.0425202,1.31931 -15.514,0.677961 -31.6492,0.887019 -16.1341,0.209058 -31.3846,0.336618 -31.3846,-0.660244 0,-1.53781 11.1285,-3.81973 30.5945,-4.20714z"/>
    <path id="_67532768" class="fil10" d="M31.5831 58.9366c18.1301,-0.290555 32.0272,1.96656 32.0579,3.58469 0.0318902,1.02639 -15.4218,0.563393 -31.3114,0.7193 -15.8884,0.15827 -31.1142,0.235042 -31.1142,-0.548038 0,-1.38191 12.2352,-3.46422 30.3677,-3.75595z"/>
    <path id="_67215896" class="fil11" d="M31.6539 59.422c16.7955,-0.193703 31.6575,1.8012 31.6787,3.18665 0.020079,0.734655 -15.3321,0.450006 -30.9748,0.553944 -15.6427,0.105119 -30.8425,0.132285 -30.8425,-0.435832 0,-1.22836 13.3419,-3.11106 30.1386,-3.30477z"/>
    <path id="_141169536" class="fil12" d="M31.7248 59.9086c15.4608,-0.0968516 31.2878,1.63821 31.2984,2.79098 0.0106301,0.441738 -15.2411,0.335437 -30.6382,0.386225 -15.3947,0.0531503 -30.5708,0.030709 -30.5708,-0.323626 0,-1.07245 14.4486,-2.75555 29.9106,-2.85358z"/>
   </g>
   <path id="_64323328" class="fil13" d="M31.7933 60.3964c14.1273,0 30.9193,1.47403 30.9193,2.39294 0,0.300004 -60.6007,0.288193 -60.6007,0.00944894 0,-0.918909 15.5541,-2.40239 29.6815,-2.40239z"/>
  </g>
  <path class="fil14" d="M4.07013 6.69811l56.5141 0c1.98782,0 3.32248,0.933082 3.29414,3.24098l-0.0543314 4.37604 -62.9937 0 0 -4.37604c0,-1.83546 1.31458,-3.33902 3.2398,-3.24098z"/>
  <path class="fil15" d="M63.1224 7.67962c-0.451187,-0.492526 -0.791348,-0.217326 -1.51655,-0.312996l-0.462998 1.15986 1.69136 0.677961 0.288193 -1.52482z"/>
  <path class="fil16" d="M63.9268 9.08869c-0.451187,-0.492526 -0.689772,-1.23545 -1.41498,-1.33112l-0.49725 1.09135 1.58978 1.25553 0.322445 -1.01576z"/>
  <path class="fil16" d="M0.883475 9.10641c0.451187,-0.492526 0.689772,-1.23545 1.41498,-1.33112l0.49725 1.09135 -2.13192 2.6457 0.219688 -2.40594z"/>
  <path class="fil15" d="M1.83073 7.54497c0.451187,-0.492526 0.792529,-0.217326 1.51655,-0.312996l0.464179 1.15986 -1.69254 0.677961 -0.288193 -1.52482z"/>
  <path class="fil17" d="M4.00044 8.39302l56.6381 0c1.7327,0 3.15122,1.42443 3.15122,3.15122l0 46.8502c0,1.72797 -1.42088,3.15122 -3.15122,3.15122 -20.7546,0 -21.2377,0 -56.6381,0 -1.73034,0 -3.15122,-1.41734 -3.15122,-3.15122l0 -46.8502c0,-1.73388 1.41734,-3.15122 3.15122,-3.15122z"/>
  <path class="fil18" d="M3.99926 7.98435l56.6393 0c1.7327,0 3.15122,1.42561 3.15122,3.15004l0 47.26c0,1.72797 -1.42088,3.1524 -3.15122,3.1524 -20.7546,0 -21.2377,0 -56.6393,0 -1.72916,0 -3.15004,-1.41852 -3.15004,-3.1524l0 -47.26c0,-1.7327 1.41734,-3.15004 3.15004,-3.15004z"/>
  <path class="fil19" d="M63.5866 26.4972c-13.8947,4.28155 -47.012,3.15831 -62.9405,2.31145l0 -17.4699c0,-1.7327 1.41734,-3.15004 3.15004,-3.15004l56.6393 0c1.73388,0 3.15122,1.42561 3.15122,3.15004l0 15.1585z"/>
  <path class="fil20" d="M4.05477 14.3612l0 41.3497c0.105119,1.33466 1.79057,2.3079 2.99767,2.30436l50.2872 -0.167719c1.74215,-0.0484258 2.53704,-1.21655 2.59609,-2.74846l0 -40.6375c0,-1.61341 -0.96261,-2.49452 -2.69531,-2.4957l-50.3664 -0.0531503c-1.61459,-0.00118112 -2.82051,0.84568 -2.81933,2.44846z"/>
  <g id="_67164912">
   <g>
    <path id="_64589840" class="fil21" d="M4.5225 37.8324c1.12797,-0.305909 2.27247,-0.5504 3.42642,-0.713395 3.8528,-0.548038 7.79891,-0.160632 11.5312,1.90987 2.13546,1.19647 4.0654,2.30318 5.80283,3.30477 9.35208,5.55243 12.2364,7.24733 19.5983,5.08353 3.63548,-1.02167 9.07334,-4.47171 14.4592,-6.22212l0 0.392131c-5.34574,1.75632 -10.7446,5.18392 -14.3565,6.20086 -7.51899,2.21459 -10.4352,0.501975 -19.8959,-5.1166 -1.71734,-0.990957 -3.62485,-2.08467 -5.79456,-3.3024 -3.54099,-1.95711 -7.35718,-2.31499 -11.1249,-1.78585 -1.22482,0.172443 -2.44491,0.434651 -3.64611,0.764183l0 -0.514967z"/>
    <path id="_151277488" class="fil22" d="M4.5225 38.3721c1.28151,-0.325988 2.58192,-0.585834 3.8965,-0.754734 3.86698,-0.498431 7.80836,-0.13701 11.5655,1.8449 2.13428,1.14923 4.09848,2.22404 5.88432,3.215 9.20563,5.40715 12.1655,7.11032 19.4353,5.11778 3.58233,-0.892924 8.8442,-4.04533 14.0364,-5.62212l0 0.379139c-5.15794,1.58506 -10.3856,4.72447 -13.9466,5.61621 -7.41978,2.04451 -10.408,0.324807 -19.7176,-5.14849 -1.76459,-0.979146 -3.7028,-2.04215 -5.86897,-3.21146 -3.57524,-1.87207 -7.39261,-2.20396 -11.1793,-1.72443 -1.38073,0.174805 -2.75318,0.447643 -4.10556,0.790167l0 -0.501975z"/>
    <path id="_144735216" class="fil23" d="M4.5225 38.8859c1.43624,-0.333075 2.89374,-0.598826 4.36659,-0.768907 3.87997,-0.448824 7.81781,-0.113387 11.6009,1.77994 2.1331,1.09844 4.12918,2.14373 5.96464,3.12405 9.05917,5.26306 12.0946,6.97568 19.2723,5.15203 3.528,-0.766545 8.61389,-3.62721 13.6136,-5.0351l0 0.368508c-4.97132,1.41734 -10.0289,4.2721 -13.5368,5.04101 -7.32174,1.87443 -10.382,0.146458 -19.538,-5.17802 -1.81301,-0.968516 -3.7843,-2.00081 -5.94574,-3.12051 -3.60713,-1.78821 -7.42686,-2.09412 -11.2336,-1.66419 -1.53427,0.174805 -3.05791,0.448824 -4.56384,0.791348l0 -0.490164z"/>
    <path id="_150673488" class="fil24" d="M4.5225 39.3737c1.59215,-0.327169 3.20437,-0.59174 4.83549,-0.758277 3.89532,-0.399218 7.82726,-0.0897649 11.6364,1.71498 2.13192,1.05119 4.16226,2.06459 6.04614,3.03429 8.91153,5.11778 12.025,6.83985 19.1093,5.18628 3.47012,-0.643709 8.38002,-3.21972 13.1907,-4.4599l0 0.356697c-4.78707,1.25198 -9.67453,3.83154 -13.1269,4.4788 -7.22135,1.70553 -10.3549,-0.030709 -19.3597,-5.20754 -1.86026,-0.957886 -3.86225,-1.95947 -6.02015,-3.03193 -3.64138,-1.70081 -7.46112,-1.98191 -11.2879,-1.60159 -1.68782,0.1689 -3.36382,0.437013 -5.02329,0.765364l0 -0.477171z"/>
    <path id="_141436992" class="fil25" d="M4.5225 39.8332c1.75042,-0.305909 3.51737,-0.558668 5.30676,-0.718119 3.90713,-0.350792 7.83553,-0.0673237 11.6694,1.64884 2.13073,1.00395 4.19415,1.98546 6.12882,2.94334 8.76389,4.97368 11.9529,6.7052 18.9451,5.22172 3.41107,-0.523235 8.1438,-2.82287 12.7679,-3.89887l0 0.347248c-4.60517,1.08899 -9.32256,3.39925 -12.7183,3.92958 -7.12095,1.53545 -10.3265,-0.209058 -19.179,-5.23825 -1.90868,-0.947256 -3.94257,-1.91813 -6.09574,-2.94098 -3.67445,-1.61695 -7.49655,-1.87325 -11.3423,-1.54136 -1.84136,0.159451 -3.66737,0.408666 -5.48274,0.70867l0 -0.461817z"/>
    <path id="_66444248" class="fil26" d="M4.5225 40.2596c1.91105,-0.266932 3.83036,-0.496069 5.77566,-0.646071 3.92249,-0.301185 7.84616,-0.0425202 11.706,1.58506 2.12955,0.953161 4.22486,1.90514 6.20913,2.85358 8.61743,4.82841 11.882,6.56819 18.7821,5.25479 3.34847,-0.406304 7.9064,-2.43783 12.345,-3.35319l0 0.338981c-4.42565,0.929539 -8.97295,2.97878 -12.3084,3.39335 -7.02174,1.36537 -10.2993,-0.385044 -18.9994,-5.26896 -1.95711,-0.934263 -4.02288,-1.87679 -6.17134,-2.85004 -3.70753,-1.53073 -7.53316,-1.76223 -11.3978,-1.47994 -1.99254,0.146458 -3.96619,0.368508 -5.94102,0.621267l0 -0.448824z"/>
    <path id="_141023240" class="fil27" d="M4.5225 40.654c2.0764,-0.21142 4.14572,-0.406304 6.24575,-0.540952 3.93548,-0.251578 7.85679,-0.020079 11.7415,1.51892 2.12719,0.905917 4.25556,1.82601 6.28945,2.76263 8.47097,4.68431 11.8112,6.43354 18.6191,5.29022 3.28232,-0.294098 7.66663,-2.06459 11.9222,-2.82405l0 0.333075c-4.24612,0.773632 -8.62688,2.56775 -11.8986,2.87248 -6.92253,1.19529 -10.2734,-0.564574 -18.8211,-5.29967 -2.00436,-0.924815 -4.10202,-1.83546 -6.24575,-2.76027 -3.74178,-1.44451 -7.56742,-1.6512 -11.4521,-1.41852 -2.14255,0.128742 -4.26383,0.310634 -6.40047,0.500794l0 -0.434651z"/>
    <path id="_66040992" class="fil28" d="M4.5225 41.0143c2.24412,-0.139372 4.46344,-0.287011 6.71583,-0.40158 3.94847,-0.203152 7.86506,0.00236223 11.7757,1.45277 2.12601,0.857491 4.28864,1.74687 6.37094,2.67287 8.32451,4.53903 11.7403,6.29772 18.4561,5.32447 3.21382,-0.185435 7.42568,-1.70553 11.4994,-2.31145l0 0.327169c-4.07013,0.621267 -8.28199,2.17089 -11.4887,2.36814 -6.82331,1.02521 -10.2462,-0.742923 -18.6416,-5.33038 -2.05278,-0.914184 -4.18233,-1.79412 -6.32252,-2.67051 -3.77485,-1.35947 -7.60167,-1.54018 -11.5053,-1.3571 -2.29137,0.108663 -4.55675,0.237404 -6.85993,0.347248l0 -0.421659z"/>
    <path id="_62099736" class="fil29" d="M4.5225 41.3403c2.41657,-0.0484258 4.78234,-0.13701 7.18473,-0.229137 3.96383,-0.153545 7.87569,0.0271657 11.8112,1.38781 2.12601,0.810246 4.32053,1.66774 6.45244,2.5831 8.17805,4.39494 11.6694,6.16189 18.2931,5.35873 3.14177,-0.0803159 7.18119,-1.36065 11.0765,-1.81774l0 0.322445c-3.89532,0.473628 -7.94183,1.78703 -11.0801,1.88034 -6.72292,0.855129 -10.219,-0.918909 -18.4609,-5.35991 -2.10239,-0.903554 -4.26147,-1.75278 -6.39811,-2.57956 -3.80792,-1.27443 -7.6371,-1.43151 -11.5608,-1.29687 -2.43546,0.0838593 -4.84376,0.14764 -7.3182,0.15827l0 -0.407485z"/>
    <path id="_64929048" class="fil30" d="M4.5225 41.6285c2.59491,0.0625992 5.10479,0.0484258 7.65482,-0.0177168 3.97682,-0.105119 7.88514,0.0496069 11.8466,1.32285 2.12365,0.760639 4.35123,1.58742 6.53394,2.49216 8.02923,4.24966 11.5974,6.02606 18.129,5.39298 3.06618,0.020079 6.93434,-1.03112 10.6537,-1.34529l0 0.321264c-3.72406,0.330713 -7.60403,1.41616 -10.6702,1.41143 -6.6237,0.685048 -10.1919,-1.09726 -18.2825,-5.3918 -2.14845,-0.891743 -4.3406,-1.71026 -6.47252,-2.48861 -3.84099,-1.18938 -7.67254,-1.32049 -11.6139,-1.23545 -2.58074,0.0566936 -5.12959,0.0413391 -7.77884,-0.0637803l0 -0.398036z"/>
    <path id="_172666864" class="fil31" d="M4.5225 41.8824c2.77917,0.19016 5.42959,0.263389 8.1249,0.226774 3.99099,-0.0543314 7.89459,0.0744104 11.8809,1.25789 2.12365,0.712213 4.38431,1.50829 6.61544,2.40239 7.88277,4.10438 11.5265,5.89023 17.9648,5.42723 2.98823,0.114568 6.6863,-0.716938 10.232,-0.892924l0 0.318902c-3.55516,0.193703 -7.26977,1.06301 -10.2604,0.96261 -6.52449,0.514967 -10.1647,-1.27561 -18.103,-5.42133 -2.19688,-0.881113 -4.41974,-1.66892 -6.54811,-2.39885 -3.87524,-1.10316 -7.70797,-1.20946 -11.6694,-1.17403 -2.72011,0.0248035 -5.40597,-0.0803159 -8.23711,-0.320083l0 -0.388587z"/>
    <path id="_66527168" class="fil32" d="M4.5225 42.0997c2.96815,0.337799 5.75794,0.512605 8.59499,0.509061 4.00399,-0.0070867 7.90403,0.0968516 11.9163,1.19175 2.12129,0.664969 4.41501,1.42915 6.69457,2.31145 7.7375,3.96028 11.4568,5.75676 17.803,5.46267 2.90673,0.204333 6.43472,-0.419296 9.80918,-0.46536l0 0.321264c-3.38862,0.0614181 -6.93788,0.725206 -9.85051,0.535046 -6.42528,0.344886 -10.1387,-1.45277 -17.9246,-5.45204 -2.24412,-0.870483 -4.50006,-1.62758 -6.6237,-2.30908 -3.90832,-1.01694 -7.74222,-1.09962 -11.7226,-1.11261 -2.8583,-0.00944894 -5.67763,-0.219688 -8.69656,-0.610637l0 -0.381501z"/>
    <path id="_64322136" class="fil33" d="M4.5225 42.2828c3.16539,0.503156 6.08866,0.792529 9.06507,0.82442 4.01698,0.0437013 7.91348,0.120474 11.9505,1.12797 2.12129,0.615362 4.44691,1.34884 6.77725,2.2205 7.58986,3.81619 11.3848,5.62094 17.6388,5.49692 2.82051,0.289374 6.18078,-0.140553 9.38634,-0.0614181l0 0.323626c-3.22327,-0.0649614 -6.61071,0.405123 -9.44067,0.129923 -6.32606,0.175986 -10.1115,-1.62994 -17.7451,-5.48156 -2.29373,-0.859853 -4.57919,-1.58624 -6.6993,-2.21814 -3.94139,-0.933082 -7.77765,-0.989776 -11.7781,-1.05238 -2.99177,-0.0460636 -5.9422,-0.375595 -9.15484,-0.935445l0 -0.374414z"/>
    <path id="_66955336" class="fil34" d="M4.5225 42.4304c3.36973,0.68741 6.42409,1.10434 9.53516,1.17639 4.03115,0.0921271 7.92293,0.144096 11.986,1.06182 2.11892,0.566936 4.4788,1.2697 6.85756,2.13192 7.4434,3.66973 11.3151,5.48393 17.4758,5.52999 2.72956,0.366146 5.9233,0.119293 8.9635,0.315358l0 0.329532c-3.06145,-0.184254 -6.28709,0.102757 -9.03082,-0.250397 -6.22685,0.00472447 -10.0856,-1.80829 -17.5668,-5.51227 -2.33979,-0.849223 -4.65833,-1.5449 -6.77371,-2.12837 -3.97446,-0.846861 -7.81309,-0.878751 -11.8324,-0.990957 -3.12287,-0.0874027 -6.20204,-0.545676 -9.61429,-1.29096l0 -0.372052z"/>
    <path id="_145144840" class="fil35" d="M4.5225 42.545c3.57997,0.887019 6.76189,1.44687 10.0041,1.56026 4.04533,0.141734 7.93356,0.167719 12.0226,0.996863 2.11656,0.519691 4.51069,1.19057 6.93788,2.04097 7.29694,3.52563 11.2442,5.34928 17.3128,5.56542 2.63625,0.438194 5.66346,0.357878 8.54066,0.664969l0 0.335437c-2.902,-0.295279 -5.967,-0.177168 -8.62097,-0.604732 -6.12763,-0.164175 -10.0584,-1.98546 -17.3872,-5.54298 -2.38822,-0.838593 -4.73864,-1.50356 -6.85048,-2.03743 -4.00753,-0.76182 -7.84734,-0.768907 -11.8856,-0.93072 -3.25161,-0.128742 -6.4548,-0.72993 -10.0737,-1.67719l0 -0.370871z"/>
    <path id="_145141704" class="fil36" d="M4.5225 42.6277c3.79847,1.10316 7.10442,1.81892 10.4741,1.97719 4.0595,0.191341 7.94301,0.191341 12.0568,0.931901 2.11538,0.468903 4.54258,1.11025 7.01938,1.95002 7.15048,3.38154 11.1734,5.21345 17.1498,5.59968 2.53704,0.504337 5.40125,0.575204 8.11782,0.98387l0 0.344886c-2.74492,-0.399218 -5.65046,-0.437013 -8.21231,-0.93072 -6.02724,-0.335437 -10.03,-2.16381 -17.2077,-5.57369 -2.43664,-0.827963 -4.81778,-1.46104 -6.92489,-1.94766 -4.04178,-0.675599 -7.88277,-0.657882 -11.9411,-0.869302 -3.37445,-0.174805 -6.69811,-0.931901 -10.532,-2.09294l0 -0.373233z"/>
    <path id="_65400776" class="fil37" d="M4.5225 42.6797c4.02525,1.33466 7.45049,2.21814 10.9442,2.42483 4.07249,0.239767 7.95128,0.213782 12.0911,0.865759 2.11538,0.421659 4.57565,1.03112 7.10206,1.86026 7.00166,3.23626 11.1013,5.07762 16.9856,5.63393 2.43428,0.561031 5.13668,0.771269 7.69498,1.27088l0 0.356697c-2.59137,-0.494888 -5.33865,-0.674418 -7.80128,-1.22836 -5.92921,-0.504337 -10.0041,-2.34097 -17.0293,-5.6044 -2.48507,-0.816152 -4.89809,-1.4197 -7.00166,-1.85672 -4.07367,-0.590558 -7.91585,-0.546857 -11.9931,-0.807884 -3.49729,-0.22205 -6.93906,-1.14686 -10.9927,-2.53822l0 -0.376776z"/>
    <path id="_66494360" class="fil38" d="M4.5225 42.7033c4.25793,1.57915 7.8001,2.64334 11.4131,2.89964 4.08785,0.289374 7.96191,0.237404 12.1277,0.800797 2.11302,0.374414 4.60636,0.95198 7.18237,1.77049 6.8552,3.09098 11.0305,4.94297 16.8226,5.66818 2.3268,0.610637 4.86856,0.942531 7.27214,1.52364l0 0.180711c0,0.0625992 -0.00354335,0.125198 -0.00944894,0.186616 -2.43664,-0.577566 -5.02447,-0.884657 -7.38316,-1.48939 -5.82999,-0.674418 -9.97689,-2.51932 -16.8498,-5.63393 -2.53113,-0.806703 -4.97723,-1.37836 -7.07607,-1.76695 -4.10792,-0.506699 -7.95128,-0.438194 -12.0486,-0.747647 -3.61422,-0.271657 -7.16938,-1.37482 -11.4509,-3.01067l0 -0.381501z"/>
    <path id="_65458144" class="fil39" d="M4.5225 42.6986c4.49769,1.83782 8.15443,3.09453 11.8832,3.40398 4.10084,0.337799 7.97254,0.261027 12.162,0.734655 2.11302,0.325988 4.63825,0.874027 7.26387,1.67955 6.70874,2.94807 10.9596,4.80833 16.6597,5.70361 2.2016,0.648433 4.56502,1.08427 6.80323,1.72797 -0.0259846,0.112206 -0.0625992,0.219688 -0.108663,0.323626l-0.0212601 0.0259846c-2.2394,-0.625992 -4.60754,-1.03938 -6.80678,-1.67482 -5.7296,-0.844499 -9.94973,-2.69649 -16.6703,-5.66464 -2.58074,-0.794892 -5.05636,-1.33702 -7.15166,-1.676 -4.141,-0.420478 -7.98671,-0.327169 -12.1041,-0.686229 -3.7276,-0.323626 -7.39379,-1.61695 -11.9092,-3.50792l0 -0.389769z"/>
    <path id="_66675240" class="fil40" d="M4.5225 42.6678c4.74809,2.11066 8.51231,3.5717 12.3545,3.9343 4.11265,0.387406 7.98081,0.283468 12.1962,0.669693 2.11184,0.276381 4.67014,0.792529 7.34418,1.5886 6.56229,2.80279 10.8899,4.6725 16.4967,5.73787 2.00436,0.654339 4.12092,1.16458 6.13708,1.82601 -0.102757,0.107482 -0.213782,0.207877 -0.331894,0.297641 -1.96065,-0.616543 -4.01225,-1.09608 -5.95165,-1.71853 -5.63038,-1.01458 -9.92374,-2.87484 -16.4908,-5.69535 -2.62917,-0.784262 -5.13668,-1.29569 -7.22725,-1.58624 -4.17525,-0.334256 -8.02215,-0.216144 -12.1584,-0.624811 -3.83863,-0.377957 -7.6123,-1.87089 -12.3687,-4.02879l0 -0.400399z"/>
    <path id="_66627472" class="fil41" d="M4.5225 42.6147c5.00321,2.39176 8.87373,4.06659 12.8234,4.48588 4.128,0.435832 7.99026,0.30709 12.2328,0.604732 2.10947,0.227956 4.70085,0.713395 7.4245,1.49884 6.41583,2.65751 10.819,4.53667 16.3337,5.77212 1.74687,0.625992 3.56107,1.16694 5.3044,1.80357 -0.142915,0.100395 -0.295279,0.188979 -0.455911,0.262208 -1.65238,-0.577566 -3.36264,-1.07836 -5.00794,-1.65947 -5.53117,-1.18466 -9.89658,-3.05201 -16.3124,-5.72605 -2.67641,-0.77245 -5.21581,-1.25317 -7.30166,-1.49529 -4.20832,-0.249216 -8.05758,-0.105119 -12.2127,-0.563393 -3.94611,-0.43347 -7.82254,-2.13664 -12.8281,-4.57092l0 -0.41221z"/>
    <path id="_66337832" class="fil42" d="M4.5225 42.5356c5.2666,2.68704 9.2387,4.58746 13.2935,5.06345 4.141,0.48662 7.9997,0.331894 12.2659,0.540952 2.10947,0.17953 4.73392,0.633079 7.50718,1.40789 6.26937,2.51224 10.7482,4.40084 16.1707,5.80637 1.46695,0.572842 2.96815,1.10316 4.42683,1.68663 -0.199609,0.090946 -0.411029,0.15827 -0.631898,0.199609 -1.3134,-0.504337 -2.65515,-0.972059 -3.96855,-1.47876 -5.43078,-1.35356 -9.86941,-3.22917 -16.1317,-5.75558 -2.72484,-0.76182 -5.29613,-1.21183 -7.37844,-1.40553 -4.24021,-0.162994 -8.09183,0.00472447 -12.2659,-0.501975 -4.05123,-0.490164 -8.02923,-2.41302 -13.2876,-5.1355l0 -0.427564z"/>
    <path id="_65948144" class="fil43" d="M4.5225 42.4375c5.53589,2.99059 9.6072,5.12487 13.7624,5.66109 4.15635,0.535046 8.01033,0.355516 12.3025,0.474809 2.10711,0.131104 4.76463,0.553944 7.58749,1.31813 6.12291,2.36814 10.6773,4.26619 16.0077,5.84062 1.16931,0.493707 2.35397,0.970878 3.51382,1.47876 -0.205514,0.0496069 -0.420478,0.0755915 -0.641346,0.0755915l-0.278744 0c-0.923633,-0.385044 -1.85672,-0.758277 -2.78035,-1.1445 -5.33156,-1.52364 -9.84225,-3.40752 -15.9522,-5.78629 -2.77326,-0.752371 -5.37644,-1.17049 -7.45403,-1.31458 -4.27446,-0.0779537 -8.12727,0.114568 -12.3214,-0.441738 -4.15163,-0.549219 -8.22766,-2.70121 -13.7458,-5.72015l0 -0.441738z"/>
    <path id="_149353072" class="fil44" d="M4.5225 42.323l0.312996 0.174805c5.65046,3.21028 9.74303,5.51345 13.9195,6.09929 4.16934,0.584653 8.01978,0.379139 12.3379,0.411029 2.10593,0.0814971 4.79652,0.473628 7.66781,1.22718 5.97527,2.22286 10.6064,4.12918 15.8447,5.87488 0.855129,0.389769 1.71616,0.775994 2.5642,1.17403l-0.114568 0.00236223 -0.948437 0 -1.70081 -0.765364c-5.23235,-1.69372 -9.81508,-3.58469 -15.7738,-5.81582 -2.82051,-0.741741 -5.45558,-1.12915 -7.52844,-1.226 -4.30753,0.00826782 -8.16152,0.226774 -12.3757,-0.379139 -4.20478,-0.603551 -8.33278,-2.94689 -14.0246,-6.2174l-0.180711 -0.101576 0 -0.458273z"/>
    <path id="_67251184" class="fil45" d="M4.5225 42.2013c0.216144,0.115749 0.434651,0.239767 0.654339,0.370871 5.7485,3.4217 9.8576,5.88905 14.0482,6.52449 4.18352,0.633079 8.02923,0.40158 12.3722,0.344886 2.10475,0.0342524 4.82841,0.395674 7.75049,1.13742 5.82763,2.07758 10.5344,3.99454 15.6805,5.90913 0.542133,0.26457 1.08427,0.52914 1.62167,0.798435l-1.0382 0 -0.796073 -0.385044c-5.13313,-1.8638 -9.78792,-3.76186 -15.5943,-5.84771 -2.86893,-0.728749 -5.53589,-1.08781 -7.60403,-1.13387 -4.34179,0.0933082 -8.19695,0.336618 -12.4301,-0.318902 -4.22486,-0.653158 -8.37058,-3.15831 -14.164,-6.63906 -0.167719,-0.100395 -0.335437,-0.196065 -0.500794,-0.287011l0 -0.473628z"/>
    <path id="_65823928" class="fil46" d="M4.5225 42.0726c0.32835,0.173624 0.660244,0.364965 0.995682,0.575204 5.84889,3.6343 9.97217,6.26346 14.1769,6.94851 4.19651,0.682686 8.03868,0.425202 12.4076,0.278744 2.10357,-0.0141734 4.85911,0.316539 7.83081,1.04647 5.68117,1.93349 10.4635,3.85989 15.5175,5.94456l0.801978 0.420478 -1.01694 0 -0.0118112 -0.00590558c-5.03274,-2.03388 -9.76075,-3.94021 -15.4148,-5.87724 -2.91618,-0.718119 -5.61503,-1.04529 -7.67962,-1.04411 -4.37368,0.178349 -8.2312,0.446462 -12.4844,-0.257483 -4.24375,-0.702765 -8.40719,-3.36973 -14.3033,-7.0619 -0.2752,-0.171262 -0.549219,-0.329532 -0.819695,-0.47599l0 -0.491345z"/>
    <path id="_152717992" class="fil47" d="M4.5225 41.9391c0.439375,0.230318 0.885838,0.488982 1.33702,0.783081 5.9481,3.84572 10.0867,6.63906 14.3045,7.37371 4.21068,0.731111 8.04931,0.447643 12.4431,0.212601 2.10239,-0.0625992 4.89219,0.236223 7.9123,0.957886 5.53471,1.78821 10.3938,3.72288 15.3545,5.97763l0.0767726 0.0425202 -1.15868 0c-4.64061,-2.04688 -9.20563,-3.84572 -14.3931,-5.53353 -2.9646,-0.707489 -5.69416,-1.00513 -7.75521,-0.954342 -4.40793,0.26457 -8.26664,0.557487 -12.5376,-0.196065 -4.26383,-0.75119 -8.44617,-3.58115 -14.4439,-7.48356 -0.385044,-0.249216 -0.764183,-0.473628 -1.13978,-0.674418l0 -0.505518z"/>
    <path id="_62813336" class="fil48" d="M4.5225 41.7997c0.5504,0.283468 1.11025,0.614181 1.67837,0.996863 6.04732,4.05832 10.2001,7.01465 14.4344,7.79773 4.22367,0.780718 8.05758,0.472447 12.4761,0.148821 2.10239,-0.111025 4.92408,0.155907 7.9938,0.865759 5.13668,1.56734 9.86114,3.40752 14.51,5.67763l-1.13978 0c-4.32525,-2.03152 -8.71664,-3.71934 -13.4884,-5.18392 -3.01185,-0.696859 -5.7733,-0.963791 -7.82962,-0.863396 -4.441,0.348429 -8.30207,0.667331 -12.5931,-0.135828 -4.28273,-0.800797 -8.48396,-3.79139 -14.5833,-7.9064 -0.493707,-0.331894 -0.980327,-0.621267 -1.45868,-0.874027l0 -0.523235z"/>
    <path id="_152925232" class="fil49" d="M4.5225 41.6592c0.659063,0.333075 1.33348,0.734655 2.01971,1.21301 6.14653,4.26974 10.3147,7.38907 14.562,8.22175 4.23785,0.829144 8.06703,0.494888 12.5128,0.0826782 2.09884,-0.159451 4.95597,0.0779537 8.07412,0.775994 4.74927,1.35828 9.30838,3.09098 13.6762,5.33392l-1.1197 0c-4.06068,-1.99491 -8.27609,-3.57052 -12.671,-4.83549 -3.06027,-0.686229 -5.85362,-0.92009 -7.9064,-0.77245 -4.47407,0.434651 -8.33632,0.777175 -12.6462,-0.0744104 -4.30163,-0.850404 -8.52176,-4.00281 -14.7226,-8.32806 -0.603551,-0.419296 -1.19647,-0.778356 -1.77876,-1.08072l0 -0.536227z"/>
    <path id="_65264016" class="fil50" d="M4.5225 41.5115c0.767726,0.381501 1.55553,0.85631 2.36105,1.43506 6.24575,4.48234 10.4293,7.76348 14.6907,8.64578 4.25202,0.879932 8.07648,0.51851 12.5482,0.0177168 2.09766,-0.207877 4.98668,-0.00236223 8.15561,0.686229 4.39494,1.16812 8.78515,2.79098 12.9167,4.99022l-1.11025 0c-3.83391,-1.93939 -7.86742,-3.4028 -11.9187,-4.48588 -3.1087,-0.675599 -5.93393,-0.879932 -7.98199,-0.682686 -4.50714,0.520873 -8.37058,0.8882 -12.7017,-0.0129923 -4.31934,-0.900011 -8.55837,-4.21423 -14.862,-8.74971 -0.713395,-0.512605 -1.4138,-0.940169 -2.09766,-1.28978l0 -0.553944z"/>
    <path id="_141468936" class="fil51" d="M4.5225 41.3639c0.876389,0.426383 1.7764,0.972059 2.7024,1.65829 6.34496,4.69376 10.5438,8.1379 14.8195,9.06862 4.26501,0.929539 8.08711,0.543314 12.5824,-0.0460636 2.09648,-0.256302 5.01857,-0.0814971 8.23711,0.595283 4.07013,0.9945 8.28672,2.50633 12.2116,4.64651l-1.10907 0c-3.62957,-1.86971 -7.47883,-3.21972 -11.2123,-4.13627 -3.15594,-0.664969 -6.01307,-0.838593 -8.05758,-0.592921 -4.54021,0.605913 -8.40483,0.999225 -12.7549,0.0484258 -4.33824,-0.949618 -8.59617,-4.42446 -15.0014,-9.17255 -0.825601,-0.611819 -1.6323,-1.10671 -2.41775,-1.50356l0 -0.565755z"/>
    <path id="_67555384" class="fil52" d="M4.5225 41.2103c0.98387,0.470085 1.99845,1.09017 3.04374,1.88624 6.44417,4.90636 10.6584,8.51349 14.9482,9.49382 4.27801,0.977965 8.09656,0.565755 12.6179,-0.112206 2.0953,-0.304728 5.05046,-0.160632 8.31743,0.505518 3.76894,0.83505 7.80718,2.23585 11.5466,4.30281l-1.11261 0c-3.44414,-1.78585 -7.10442,-3.02248 -10.5403,-3.78666 -3.20555,-0.654339 -6.0922,-0.797254 -8.13317,-0.503156 -4.57447,0.690953 -8.44026,1.10907 -12.8092,0.108663 -4.35832,-0.998044 -8.63396,-4.6347 -15.1419,-9.59303 -0.937807,-0.714576 -1.85081,-1.28033 -2.73665,-1.71734l0 -0.584653z"/>
   </g>
   <g>
    <path id="_64005176" class="fil53" d="M59.4681 16.8156c-0.640165,0.0625992 -1.2886,0.100395 -1.94412,0.108663 -4.73982,0.0354335 -9.0261,0.0295279 -12.8765,0.0342524 -21.1798,-0.562212 -27.6145,-0.600007 -37.9871,14.8691 -0.579928,0.853948 -1.25553,1.64884 -2.01026,2.39531l0 -1.3075c0.538589,-0.58111 1.02993,-1.19057 1.46695,-1.83546 10.5934,-15.8069 17.1002,-15.7632 38.5316,-15.1892 3.80674,-0.00354335 8.04222,0.00472447 12.8635,-0.0259846 0.659063,-0.0118112 1.31104,-0.0519691 1.95593,-0.122836l0 1.07364z"/>
    <path id="_64590240" class="fil54" d="M59.4681 16.577c-0.905917,0.151183 -1.82719,0.251578 -2.76381,0.294098 -4.67604,0.157089 -8.94932,0.298823 -12.8293,0.447643 -20.842,-0.347248 -27.3499,-0.193703 -37.7213,14.9978 -0.448824,0.642528 -0.95198,1.2508 -1.50356,1.83073l0 -1.35238c0.344886,-0.399218 0.668512,-0.812608 0.967335,-1.24135 10.5828,-15.5211 17.1569,-15.6663 38.2434,-15.3049 3.83391,-0.142915 8.05758,-0.281106 12.8092,-0.429927 0.948437,-0.0472447 1.88152,-0.157089 2.79807,-0.324807l0 1.08308z"/>
    <path id="_63354792" class="fil55" d="M59.4681 16.2545c-1.16812,0.276381 -2.36223,0.466541 -3.58469,0.564574 -4.61108,0.276381 -8.87255,0.568117 -12.7797,0.859853 -20.5066,-0.133466 -27.0866,0.21142 -37.4568,15.1266 -0.308272,0.429927 -0.641346,0.843317 -0.996863,1.24253l0 -1.40553c0.161813,-0.201971 0.31772,-0.407485 0.467722,-0.615362 10.5722,-15.234 17.2136,-15.5695 37.9564,-15.4183 3.85989,-0.28583 8.07057,-0.568117 12.7549,-0.833869 1.23899,-0.107482 2.452,-0.31772 3.63902,-0.622449l0 1.10198z"/>
    <path id="_144345328" class="fil56" d="M59.4681 15.8459c-1.42797,0.438194 -2.89492,0.748828 -4.40438,0.918909 -4.54612,0.399218 -8.79696,0.839774 -12.7324,1.27443 -20.1699,0.0803159 -26.8208,0.617724 -37.191,15.2565 -0.157089,0.212601 -0.320083,0.420478 -0.490164,0.625992l0 -1.46577c10.5438,-14.9045 17.2597,-15.4277 37.6363,-15.4892 3.88587,-0.424021 8.08475,-0.853948 12.7005,-1.23663 1.53427,-0.187798 3.0272,-0.530321 4.48116,-1.0134l0 1.12915z"/>
    <path id="_66743088" class="fil57" d="M59.4681 15.3486c-1.68545,0.635441 -3.42524,1.09844 -5.22526,1.36419 -4.48116,0.519691 -8.72019,1.10907 -12.684,1.68545 -19.8227,0.295279 -26.5491,1.02521 -36.9087,15.3651l0 -1.52128c10.2521,-13.9537 17.1356,-14.6482 36.8485,-14.9163 3.91304,-0.565755 8.1001,-1.13978 12.6474,-1.64175 1.82128,-0.288193 3.58469,-0.793711 5.29495,-1.48821 0.0177168,0.100395 0.0271657,0.204333 0.0271657,0.309453l0 0.843317z"/>
    <path id="_64940000" class="fil58" d="M59.4681 14.7628c-1.93939,0.868121 -3.95202,1.51301 -6.04496,1.89687 -4.4162,0.640165 -8.64459,1.37836 -12.6356,2.09884 -19.1672,0.500794 -26.0602,1.39962 -36.1375,14.8136l0 -1.50356c9.97453,-13.0549 17.0022,-13.9147 36.0607,-14.3848 3.93902,-0.706308 8.11427,-1.42443 12.5931,-2.04451 2.05632,-0.402761 4.03588,-1.07482 5.95165,-1.97955 0.135828,0.256302 0.212601,0.543314 0.212601,0.84568l0 0.257483z"/>
    <path id="_66620520" class="fil59" d="M59.4232 14.1108c-2.17916,1.12442 -4.44691,1.97483 -6.82213,2.4957 -4.35005,0.76182 -8.56546,1.64884 -12.5848,2.51224 -18.5199,0.699221 -25.5558,1.76341 -35.3662,14.3021l0 -1.48703c9.70996,-12.2068 16.8628,-13.2285 35.2729,-13.8911 3.96619,-0.84568 8.12845,-1.71026 12.5387,-2.44846 2.2205,-0.520873 4.35123,-1.34765 6.40992,-2.43428 0.272838,0.257483 0.468903,0.584653 0.551582,0.950799z"/>
    <path id="_65351432" class="fil60" d="M59.161 13.5013c-2.3516,1.35002 -4.80242,2.39058 -7.37962,3.05082 -4.28509,0.883475 -8.48987,1.91931 -12.5376,2.92681 -17.8786,0.891743 -25.0397,2.1142 -34.5937,13.8297l0 -1.47403c9.4572,-11.4084 16.7163,-12.5836 34.4851,-13.4328 3.99336,-0.987414 8.14262,-1.99727 12.4856,-2.8524 2.29609,-0.628354 4.49651,-1.57797 6.6237,-2.79334 0.231499,0.0956705 0.441738,0.231499 0.618905,0.396855 0.113387,0.105119 0.212601,0.22205 0.297641,0.348429z"/>
    <path id="_64298728" class="fil61" d="M58.659 12.9852c-2.45082,1.52482 -5.00557,2.72129 -7.69852,3.51382 -4.22013,1.00513 -8.4131,2.18979 -12.4879,3.3402 -17.249,1.076 -24.5105,2.452 -33.8225,13.3962l0 -1.46458c9.21626,-10.6584 16.5604,-11.9824 33.6973,-13.0112 4.02052,-1.12679 8.15679,-2.28192 12.4324,-3.25516 2.21696,-0.695678 4.34533,-1.68309 6.40638,-2.91382l0.226774 0c0.467722,0 0.89883,0.14764 1.24608,0.394493z"/>
    <path id="_143278064" class="fil62" d="M57.857 12.6368c-2.4579,1.61341 -5.01738,2.90909 -7.71624,3.81028 -4.15517,1.1256 -8.3375,2.45909 -12.4395,3.75241 -16.6278,1.25198 -23.9696,2.77562 -33.0512,12.9982l0 -1.45395c8.98594,-9.95682 16.3951,-11.4249 32.9095,-12.625 4.04769,-1.26734 8.17215,-2.56775 12.3781,-3.6591 2.04924,-0.727568 4.0217,-1.69608 5.93629,-2.86893l1.539 0c0.152364,0 0.301185,0.0153545 0.4441,0.0460636z"/>
    <path id="_65745520" class="fil63" d="M56.6015 12.5907c-2.32798,1.56498 -4.74218,2.85358 -7.28159,3.8032 -4.09021,1.24608 -8.26073,2.72838 -12.3911,4.16462 -16.0159,1.42206 -23.4192,3.08744 -32.2787,12.6368l0 -1.44569c8.76507,-9.3013 16.2203,-10.9064 32.1217,-12.2718 4.07367,-1.40789 8.18632,-2.85358 12.3238,-4.06304 1.89333,-0.75119 3.72052,-1.70317 5.49928,-2.82405l2.00672 0z"/>
    <path id="_66004560" class="fil64" d="M55.3034 12.5907c-2.18152,1.5012 -4.43864,2.76854 -6.80323,3.75005 -4.02525,1.36773 -8.18514,2.99886 -12.3427,4.57801 -15.4148,1.58388 -22.8582,3.38508 -31.5075,12.3096l0 -1.43978c8.55365,-8.69302 16.0348,-10.4293 31.3339,-11.9517 4.10084,-1.54844 8.20049,-3.13941 12.2706,-4.46698 1.74923,-0.768907 3.44177,-1.70317 5.09298,-2.77917l1.95593 0z"/>
    <path id="_65114544" class="fil65" d="M54.0326 12.5907c-2.04215,1.44451 -4.15044,2.69058 -6.35323,3.69571 -3.96028,1.48939 -8.10719,3.27051 -12.2931,4.99258 -14.8242,1.7386 -22.29,3.66855 -30.7362,12.012l0 -1.43269c8.3505,-8.12727 15.8411,-9.98989 30.546,-11.6635 4.128,-1.68782 8.21585,-3.42524 12.2163,-4.86974 1.61577,-0.783081 3.18311,-1.69963 4.71738,-2.73429l1.90278 0z"/>
    <path id="_66811872" class="fil66" d="M52.7888 12.5907c-1.91223,1.39254 -3.87997,2.61854 -5.93039,3.64375 -3.89532,1.60986 -8.03041,3.53863 -12.2446,5.40479 -14.2419,1.88506 -21.7125,3.93902 -29.9638,11.7462l0 -1.42915c8.15325,-7.60403 15.6344,-9.58594 29.7582,-11.4037 4.15399,-1.82837 8.23002,-3.70989 12.162,-5.27251 1.49411,-0.790167 2.94689,-1.69136 4.36895,-2.6894l1.84963 0z"/>
    <path id="_67199096" class="fil67" d="M51.5723 12.5907c-1.78939,1.34529 -3.62485,2.55121 -5.53353,3.5906 -3.83036,1.73034 -7.95482,3.8091 -12.1962,5.81818 -13.6738,2.02562 -21.129,4.19533 -29.1925,11.5076l0 -1.42561c7.96427,-7.12213 15.4183,-9.21744 28.9716,-11.1686 4.17997,-1.9701 8.24301,-3.99808 12.1076,-5.67881 1.38191,-0.793711 2.7272,-1.67837 4.04651,-2.64334l1.79648 0z"/>
    <path id="_64693296" class="fil68" d="M50.3817 12.5907c-1.67246,1.30277 -3.38626,2.48861 -5.16384,3.53745 -3.7654,1.85199 -7.87805,4.0784 -12.1478,6.23039 -13.1151,2.1579 -20.5384,4.43864 -28.42,11.2974l0 -1.42443c7.78002,-6.67685 15.1892,-8.88082 28.1838,-10.9608 4.20714,-2.10947 8.25719,-4.28273 12.0545,-6.08157 1.27797,-0.793711 2.52405,-1.66419 3.75005,-2.59846l1.74333 0z"/>
    <path id="_141350816" class="fil69" d="M49.216 12.5907c-1.5638,1.2638 -3.16421,2.43074 -4.81778,3.48429 -3.70044,1.97365 -7.80246,4.34887 -12.1005,6.64378 -12.5683,2.2831 -19.9432,4.66896 -27.6476,11.1084l0 -1.42206c7.60049,-6.26937 14.9506,-8.57373 27.396,-10.7753 4.23312,-2.25003 8.27136,-4.56856 12.0001,-6.48433 1.18348,-0.794892 2.33979,-1.64766 3.47839,-2.55476l1.69136 0z"/>
    <path id="_64502440" class="fil70" d="M48.0726 12.5907c-1.46222,1.22718 -2.95515,2.37641 -4.49651,3.43114 -3.6343,2.09412 -7.72332,4.61935 -12.0498,7.05717 -12.0332,2.40003 -19.3443,4.8851 -26.8763,10.9442l0 -1.42443c7.4245,-5.89495 14.7002,-8.29617 26.6082,-10.6112 4.26029,-2.3894 8.28672,-4.85439 11.9458,-6.88709 1.09726,-0.790167 2.17089,-1.62876 3.22799,-2.50987l1.64057 0z"/>
    <path id="_141980600" class="fil71" d="M46.9529 12.5907c-1.36773,1.19411 -2.76027,2.32444 -4.19651,3.37799 -3.56934,2.21578 -7.64773,4.88982 -12.0013,7.47056 -11.5112,2.50987 -18.7431,5.08589 -26.105,10.7978l0 -1.42443c7.25088,-5.55479 14.438,-8.04459 25.8204,-10.4647 4.28745,-2.53113 8.30089,-5.1414 11.8927,-7.29222 1.01694,-0.785443 2.01262,-1.6075 2.99649,-2.46499l1.59333 0z"/>
    <path id="_64929000" class="fil72" d="M45.8533 12.5907c-1.27797,1.1634 -2.57956,2.27483 -3.91776,3.32484 -3.50437,2.33743 -7.57096,5.15912 -11.9529,7.88396 -10.9986,2.61027 -18.1372,5.27487 -25.3326,10.6702l0 -1.42443c7.0808,-5.24534 14.164,-7.82017 25.0338,-10.3395 4.31226,-2.67169 8.31388,-5.42605 11.8372,-7.69616 0.943712,-0.775994 1.86971,-1.58388 2.78389,-2.41893l1.54844 0z"/>
    <path id="_67149768" class="fil73" d="M44.7726 12.5907c-1.19529,1.13505 -2.41066,2.22759 -3.65674,3.27169 -3.44059,2.4579 -7.49537,5.42959 -11.9045,8.29617 -10.5001,2.70712 -17.5313,5.45322 -24.5613,10.5627l0 -1.43151c6.91071,-4.96187 13.8793,-7.61348 24.2448,-10.2261 4.3406,-2.81106 8.32924,-5.7107 11.7852,-8.09892 0.875208,-0.767726 1.73742,-1.56026 2.58665,-2.37404l1.50592 0z"/>
    <path id="_147695448" class="fil74" d="M43.7108 12.5907c-1.11852,1.10671 -2.25357,2.18152 -3.41579,3.21854 -3.37445,2.57956 -7.41741,5.70007 -11.8549,8.70956 -10.0123,2.79452 -16.9242,5.61503 -23.7901,10.4635l0 -1.43269c6.743,-4.70675 13.5817,-7.43041 23.4582,-10.1269 4.36541,-2.95161 8.34341,-5.99771 11.7297,-8.50286 0.81379,-0.758277 1.61459,-1.53545 2.40712,-2.32916l1.46577 0z"/>
    <path id="_65817184" class="fil75" d="M42.6643 12.5907c-1.04411,1.0819 -2.10475,2.13782 -3.18902,3.16539 -3.31067,2.70003 -7.34182,5.96936 -11.8076,9.12295 -9.53516,2.87602 -16.3159,5.76385 -23.0176,10.3797l0 -1.43742c6.57528,-4.47761 13.2734,-7.26623 22.6692,-10.0395 4.39375,-3.09216 8.35876,-6.28354 11.6777,-8.9068 0.755915,-0.747647 1.50238,-1.51065 2.2394,-2.28428l1.42797 0z"/>
    <path id="_67361224" class="fil76" d="M41.6356 12.5907c-0.977965,1.0571 -1.96892,2.09648 -2.98232,3.11224 -3.24453,2.82169 -7.26387,6.23984 -11.7568,9.53634 -9.07098,2.94807 -15.7089,5.89968 -22.2463,10.3029l0 -1.44214c6.40638,-4.26974 12.9533,-7.11741 21.8826,-9.95918 4.41974,-3.2339 8.37176,-6.56937 11.6222,-9.31074 0.703946,-0.737017 1.39726,-1.48348 2.08585,-2.2394l1.3949 0z"/>
    <path id="_65738120" class="fil77" d="M40.621 12.5907c-0.915366,1.03348 -1.84254,2.05396 -2.78744,3.05909 -3.17957,2.94334 -7.18828,6.50914 -11.7084,9.94973 -8.61861,3.01421 -15.1029,6.02015 -21.4751,10.2356l0 -1.44923c6.23512,-4.08312 12.6214,-6.98276 21.0947,-9.88713 4.44691,-3.37327 8.38593,-6.85402 11.569,-9.71351 0.654339,-0.724025 1.30159,-1.45632 1.94176,-2.19452l1.36537 0z"/>
    <path id="_64956072" class="fil78" d="M39.6182 12.5907c-0.85631,1.01222 -1.72325,2.01499 -2.60554,3.00594 -3.11342,3.06382 -7.1115,6.77961 -11.66,10.3631 -8.17687,3.07209 -14.4982,6.12763 -20.7026,10.173l0 -1.45514c6.06385,-3.9154 12.2777,-6.86111 20.3069,-9.81981 4.47289,-3.51382 8.4001,-7.13985 11.5147,-10.1174 0.609456,-0.712213 1.21183,-1.42915 1.80947,-2.14963l1.33702 0z"/>
    <path id="_156225728" class="fil79" d="M38.6296 12.5907c-0.801978,0.989776 -1.61222,1.97483 -2.43664,2.95279 -3.04964,3.18547 -7.03591,7.05009 -11.6127,10.7765 -7.74576,3.12169 -13.8947,6.22094 -19.9302,10.1139l0 -1.46222c5.89023,-3.7654 11.9234,-6.7489 19.5191,-9.75484 4.50006,-3.65438 8.41546,-7.42686 11.4604,-10.5214 0.568117,-0.699221 1.13033,-1.4008 1.68782,-2.10475l1.31222 0z"/>
    <path id="_66303768" class="fil80" d="M37.6505 12.5907c-0.750009,0.969697 -1.50711,1.93585 -2.27837,2.89964 -2.98468,3.30595 -6.95914,7.32056 -11.5631,11.1887 -7.32765,3.16657 -13.2947,6.30126 -19.1589,10.0572l0 -1.46931c5.71424,-3.62957 11.5572,-6.64614 18.7313,-9.69106 4.52722,-3.79493 8.42963,-7.71269 11.4072,-10.9253 0.52914,-0.685048 1.05238,-1.37246 1.57325,-2.05987l1.2886 0z"/>
    <path id="_64496664" class="fil81" d="M36.6831 12.5907c-0.702765,0.948437 -1.41143,1.89805 -2.13073,2.84649 -2.91972,3.4276 -6.88237,7.58986 -11.5159,11.6021 -6.91898,3.20201 -12.697,6.36504 -18.3864,9.99934l0 -1.47758c5.53471,-3.5091 11.1805,-6.55047 17.9447,-9.62728 4.55321,-3.9343 8.44262,-7.99852 11.3517,-11.3281 0.493707,-0.672056 0.981508,-1.34411 1.46695,-2.01499l1.2697 0z"/>
    <path id="_64658448" class="fil82" d="M35.7252 12.5907c-0.657882,0.928358 -1.32049,1.86026 -1.99373,2.79452 -2.85476,3.54808 -6.8056,7.85915 -11.4663,12.0143 -6.52213,3.22799 -12.1029,6.41583 -17.6152,9.94028l0 -1.48821c5.35046,-3.39925 10.793,-6.45953 17.1569,-9.55996 4.57919,-4.07485 8.45798,-8.28317 11.2986,-11.7309 0.459454,-0.659063 0.915366,-1.31458 1.36773,-1.9701l1.25198 0z"/>
    <path id="_141530096" class="fil83" d="M34.7768 12.5907c-0.616543,0.90946 -1.23663,1.82364 -1.86616,2.74019 -2.7898,3.66973 -6.72882,8.12963 -11.4167,12.4277 -6.13708,3.24925 -11.5135,6.45126 -16.8439,9.87768l0 -1.49884c5.16384,-3.29886 10.395,-6.37094 16.3691,-9.48555 4.60636,-4.21659 8.47215,-8.57137 11.2442,-12.136 0.428745,-0.643709 0.853948,-1.28624 1.27679,-1.92522l1.23663 0z"/>
    <path id="_65485648" class="fil84" d="M33.8355 12.5907c-0.575204,0.890562 -1.15631,1.78703 -1.74451,2.68704 -2.72484,3.79139 -6.65323,8.4001 -11.3694,12.8423 -5.76031,3.25988 -10.9265,6.47016 -16.0715,9.80681l0 -1.51065c4.97132,-3.20909 9.98516,-6.28472 15.5813,-9.40641 4.63234,-4.35596 8.48632,-8.85483 11.1911,-12.5399 0.399218,-0.628354 0.796073,-1.25553 1.19057,-1.87916l1.22246 0z"/>
    <path id="_152298256" class="fil85" d="M32.9036 12.5907c-0.53977,0.871664 -1.08308,1.75042 -1.63348,2.63507 -2.65869,3.91068 -6.57646,8.6694 -11.3198,13.2533 -5.39652,3.26343 -10.3454,6.4737 -15.3002,9.73004l0 -1.52246c4.77526,-3.1276 9.56468,-6.1985 14.7935,-9.31783 4.65951,-4.49651 8.5005,-9.14184 11.1368,-12.9439 0.372052,-0.614181 0.742923,-1.226 1.11143,-1.83427l1.21183 0z"/>
    <path id="_65488208" class="fil86" d="M31.9776 12.5907c-0.504337,0.852766 -1.0134,1.7138 -1.52837,2.58192 -2.59373,4.03233 -6.49969,8.93869 -11.2702,13.6667 -5.04219,3.25752 -9.76902,6.46071 -14.5289,9.64146l0 -1.53663c4.57447,-3.05082 9.13476,-6.10756 14.0057,-9.21744 4.68667,-4.63588 8.51467,-9.42649 11.0824,-13.3466 0.348429,-0.600007 0.693316,-1.19647 1.03702,-1.78939l1.20238 0z"/>
    <path id="_66338040" class="fil87" d="M31.0586 12.5907c-0.473628,0.83505 -0.948437,1.67719 -1.42915,2.52877 -2.52995,4.15399 -6.42409,9.20917 -11.223,14.0801 -4.6973,3.24335 -9.19736,6.43 -13.7565,9.53988l0 -1.55081c4.36659,-2.97641 8.69302,-6.01307 13.2179,-9.10287 4.71384,-4.77644 8.53003,-9.71232 11.0293,-13.7506 0.323626,-0.585834 0.646071,-1.16694 0.966154,-1.74451l1.19529 0z"/>
    <path id="_141089984" class="fil88" d="M30.1468 12.5907c-0.4441,0.817333 -0.8882,1.64175 -1.33821,2.47444 -2.46381,4.27564 -6.34614,9.48083 -11.1734,14.4947 -4.36305,3.21972 -8.6316,6.38157 -12.9852,9.42413l0 -1.56616c4.15517,-2.90673 8.24301,-5.91385 12.4301,-8.97295 4.741,-4.91817 8.5442,-9.99934 10.9749,-14.1533 0.302366,-0.571661 0.60237,-1.1386 0.902373,-1.70081l1.18938 0z"/>
    <path id="_64295928" class="fil89" d="M29.2385 12.5907c-0.413391,0.798435 -0.830325,1.60514 -1.2508,2.42247 -2.39885,4.39612 -6.26937,9.74894 -11.1249,14.9057 -4.03706,3.18665 -8.06939,6.31543 -12.2127,9.29303l0 -1.58624c3.93784,-2.83704 7.78238,-5.80401 11.6435,-8.82294 4.76581,-5.05636 8.55719,-10.284 10.9206,-14.5573 0.281106,-0.555125 0.561031,-1.10671 0.839774,-1.65474l1.18466 0z"/>
    <path id="_66253816" class="fil90" d="M28.3374 12.5907c-0.387406,0.780718 -0.777175,1.5697 -1.16931,2.36932 -2.33389,4.51777 -6.1926,10.0194 -11.0765,15.3191 -3.72288,3.14295 -7.51545,6.22803 -11.4415,9.13948l0 -1.60632c3.71343,-2.76618 7.31111,-5.68235 10.8545,-8.6505 4.79415,-5.1981 8.57373,-10.5698 10.8675,-14.9612 0.262208,-0.540952 0.523235,-1.07718 0.783081,-1.60986l1.1823 0z"/>
    <path id="_148799352" class="fil91" d="M27.4409 12.5907c-0.362603,0.763002 -0.727568,1.53427 -1.09371,2.31617 -2.26893,4.63825 -6.11582,10.2899 -11.0281,15.7325 -3.41697,3.08862 -6.96623,6.12055 -10.669,8.9635l0 -1.62876c3.48193,-2.69295 6.8304,-5.54889 10.0678,-8.45325 4.81896,-5.33865 8.58672,-10.8556 10.8119,-15.3651 0.244491,-0.525597 0.487801,-1.04765 0.72993,-1.56498l1.18112 0z"/>
    <path id="_65795656" class="fil92" d="M26.5491 12.5907c-0.338981,0.745285 -0.680323,1.49884 -1.02167,2.26184 -2.20396,4.76108 -6.04023,10.5604 -10.9797,16.147 -3.12169,3.0213 -6.42409,5.98826 -9.89776,8.76271l0 -1.65356c3.24689,-2.61854 6.34024,-5.39889 9.27885,-8.22884 4.8473,-5.4792 8.60207,-11.1427 10.76,-15.7691 0.226774,-0.510242 0.453549,-1.01812 0.679142,-1.5201l1.18112 0z"/>
    <path id="_65726472" class="fil93" d="M25.6609 12.5907c-0.316539,0.727568 -0.63426,1.4634 -0.954342,2.20869 -2.139,4.88156 -5.96346,10.8308 -10.9312,16.5604 -2.83468,2.94216 -5.88669,5.83236 -9.12531,8.53121l0 -1.68191c3.0024,-2.53468 5.8418,-5.22999 8.49223,-7.97136 4.87329,-5.61857 8.61507,-11.4273 10.7045,-16.1719 0.21142,-0.494888 0.42284,-0.987414 0.631898,-1.47522l1.1823 0z"/>
    <path id="_64589992" class="fil94" d="M24.7775 12.5907c-0.29646,0.709851 -0.592921,1.42915 -0.891743,2.15672 -2.07404,5.00203 -5.88669,11.1001 -10.8816,16.9726 -2.5583,2.84885 -5.35755,5.65046 -8.35404,8.26546l0 -1.71616c2.752,-2.44137 5.33274,-5.0351 7.70443,-7.67254 4.89927,-5.76031 8.62924,-11.7143 10.6513,-16.577 0.196065,-0.479533 0.392131,-0.956705 0.587015,-1.42915l1.18466 0z"/>
   </g>
   <g>
    <path id="_65277320" class="fil95" d="M59.4681 30.7433c-2.71893,1.25317 -5.23825,2.41066 -7.56978,3.4713 -16.799,8.1438 -21.9936,10.5297 -34.0303,9.92256 -3.62249,-0.178349 -8.20522,-1.1445 -13.2179,-2.01026l0 0.464179c4.91463,0.85631 9.40641,1.79884 12.9687,1.97365 12.2919,0.621267 17.5408,-1.7953 34.5382,-10.0383 2.24294,-1.02285 4.66423,-2.13428 7.31111,-3.35673l0 -0.426383z"/>
    <path id="_147873224" class="fil96" d="M59.4681 30.7386c-3.10752,1.35002 -6.00834,2.5831 -8.69656,3.70398 -16.5274,7.83317 -21.8672,10.108 -33.8177,9.53161 -3.42878,-0.157089 -7.6749,-0.975603 -12.3037,-1.7386l0 0.461817c4.53785,0.755915 8.69893,1.55435 12.0698,1.70671 12.1927,0.590558 17.5809,-1.71262 34.2961,-9.64382 2.59964,-1.08545 5.39889,-2.27719 8.45207,-3.60713l0 -0.414572z"/>
    <path id="_141909552" class="fil97" d="M59.4681 30.7858c-3.48311,1.43151 -6.76662,2.72129 -9.82335,3.88469 -16.2557,7.52371 -21.742,9.68516 -33.6051,9.14066 -3.22799,-0.135828 -7.13985,-0.819695 -11.3895,-1.48585l0 0.460636c4.1658,0.657882 7.99852,1.32521 11.171,1.45868 12.0923,0.559849 17.6211,-1.63112 34.0551,-9.24933 2.9646,-1.13269 6.14417,-2.38349 9.59185,-3.80792l0 -0.40158z"/>
    <path id="_67227200" class="fil98" d="M59.4681 30.8886c-0.0814971,0.0295279 -0.162994,0.0590558 -0.245672,0.0885838 -3.75005,1.45986 -7.33828,2.75555 -10.7045,3.92131 -15.9841,7.21426 -21.6156,9.26232 -33.3914,8.74853 -3.01893,-0.115749 -6.60126,-0.677961 -10.4765,-1.24962l0 0.459454c3.79847,0.563393 7.30757,1.11379 10.2722,1.22954 11.9931,0.526778 17.6624,-1.55081 33.8142,-8.8572 3.3213,-1.15513 6.86347,-2.43783 10.6608,-3.93076 0.0236223,-0.00826782 0.0472447,-0.0165356 0.070867,-0.0259846l0 -0.383863z"/>
    <path id="_66531456" class="fil99" d="M59.4681 31.0775c-0.421659,0.131104 -0.842136,0.268114 -1.26498,0.411029 -3.72879,1.35947 -7.3619,2.55594 -10.8108,3.63902 -15.7124,6.90363 -21.4916,8.83948 -33.1799,8.3564 -2.79925,-0.0968516 -6.05677,-0.552763 -9.56232,-1.03348l0 0.458273c3.43587,0.474809 6.62725,0.921271 9.37334,1.01694 11.8938,0.496069 17.7014,-1.46813 33.5721,-8.4627 3.4028,-1.07127 6.98749,-2.2583 10.7588,-3.65083 0.372052,-0.121655 0.741741,-0.239767 1.11379,-0.353154l0 -0.381501z"/>
    <path id="_141166776" class="fil100" d="M59.4681 31.3445c-0.760639,0.20079 -1.52128,0.420478 -2.28428,0.65552 -3.70753,1.25789 -7.38671,2.35633 -10.9182,3.35555 -15.4407,6.59299 -21.3652,8.41664 -32.9662,7.96545 -2.57129,-0.0803159 -5.50637,-0.441738 -8.64932,-0.837412l0 0.457092c3.07799,0.392131 5.95401,0.745285 8.47451,0.825601 11.7946,0.464179 17.7427,-1.38663 33.3311,-8.06821 3.48311,-0.989776 7.10914,-2.07995 10.8568,-3.37209 0.718119,-0.214963 1.43742,-0.413391 2.15554,-0.597645l0 -0.383863z"/>
    <path id="_144738704" class="fil101" d="M59.4681 31.6846c-1.09844,0.242129 -2.19924,0.517329 -3.30358,0.825601 -3.68863,1.15749 -7.41151,2.15908 -11.0257,3.07327 -15.1691,6.28354 -21.24,7.99498 -32.7536,7.5745 -2.33389,-0.0661425 -4.95006,-0.344886 -7.73513,-0.662607l0 0.457092c2.72838,0.315358 5.28786,0.589377 7.57568,0.654339 11.6942,0.43347 17.7829,-1.30513 33.0902,-7.6749 3.56343,-0.907098 7.23316,-1.90042 10.9537,-3.09216 1.06773,-0.28583 2.1331,-0.538589 3.19846,-0.763002l0 -0.392131z"/>
    <path id="_64372016" class="fil102" d="M59.4681 32.0957c-1.43506,0.257483 -2.87602,0.563393 -4.32407,0.927177 -3.66619,1.05592 -7.43395,1.95829 -11.132,2.78862 -14.8974,5.97409 -21.1136,7.57214 -32.541,7.18355 -2.08821,-0.0531503 -4.38667,-0.261027 -6.82095,-0.509061l0 0.459454c2.38231,0.245672 4.63234,0.451187 6.67685,0.503156 11.595,0.400399 17.8219,-1.226 32.848,-7.28277 3.64493,-0.823238 7.35718,-1.72089 11.0517,-2.81106 1.41734,-0.337799 2.82877,-0.621267 4.24139,-0.857491l0 -0.40158z"/>
    <path id="_62765312" class="fil103" d="M59.4681 32.5728c-1.77168,0.246853 -3.55044,0.563393 -5.34337,0.960248 -3.64611,0.955524 -7.45875,1.75986 -11.2395,2.50633 -14.6246,5.66346 -20.9873,7.1493 -32.3272,6.79142 -1.83309,-0.0389769 -3.81973,-0.188979 -5.90795,-0.374414l0 0.460636c2.04215,0.184254 3.98391,0.331894 5.77802,0.370871 11.4958,0.36969 17.8632,-1.14214 32.6071,-6.88827 3.72524,-0.74056 7.48001,-1.54018 11.1497,-2.53113 1.76695,-0.367327 3.52563,-0.657882 5.28314,-0.881113l0 -0.414572z"/>
    <path id="_145691568" class="fil104" d="M59.4681 33.1114c-2.10829,0.217326 -4.22367,0.522054 -6.36268,0.933082 -3.62485,0.855129 -7.48238,1.56026 -11.347,2.22404 -14.3529,5.35282 -20.8621,6.72646 -32.1157,6.39929 -1.5697,-0.0295279 -3.24453,-0.131104 -4.99258,-0.263389l0 0.461817c1.70908,0.132285 3.34492,0.23268 4.87919,0.262208 11.3954,0.337799 17.9034,-1.06182 32.3661,-6.4926 3.80556,-0.660244 7.60285,-1.36301 11.2478,-2.25357 2.11774,-0.377957 4.22131,-0.650795 6.32488,-0.839774l0 -0.431108z"/>
    <path id="_66629856" class="fil105" d="M59.4681 33.7103c-2.44491,0.166537 -4.89573,0.439375 -7.38316,0.844499 -3.60359,0.754734 -7.506,1.36183 -11.4533,1.94176 -14.0801,5.04337 -20.7357,6.30362 -31.902,6.00834 -1.29923,-0.020079 -2.6646,-0.0850404 -4.07958,-0.172443l0 0.46536c1.38073,0.0862215 2.71303,0.151183 3.98036,0.171262 11.2962,0.30709 17.9435,-0.979146 32.1252,-6.09929 3.88587,-0.576385 7.72569,-1.18348 11.3446,-1.97365 2.47208,-0.366146 4.91699,-0.603551 7.36781,-0.74056l0 -0.445281z"/>
    <path id="_141991872" class="fil106" d="M59.4681 34.3634c-2.78271,0.101576 -5.56542,0.322445 -8.40247,0.703946 -3.58351,0.653158 -7.52962,1.16222 -11.5596,1.65711 -13.8096,4.73392 -20.6117,5.88078 -31.6905,5.61739 -1.0193,-0.0118112 -2.07758,-0.050788 -3.16539,-0.102757l0 0.468903c1.05946,0.050788 2.0894,0.0885838 3.08153,0.101576 11.197,0.2752 17.9837,-0.89883 31.8831,-5.70598 3.96737,-0.493707 7.8497,-1.00395 11.4427,-1.69254 2.82641,-0.336618 5.61149,-0.517329 8.41073,-0.585834l0 -0.461817z"/>
    <path id="_63151496" class="fil107" d="M59.4681 35.0685c-3.12287,0.0236223 -6.23512,0.173624 -9.42177,0.509061 -3.56225,0.552763 -7.55442,0.963791 -11.6671,1.37482 -13.538,4.42328 -20.4853,5.45912 -31.4779,5.22644 -0.732292,-0.0070867 -1.48466,-0.0259846 -2.25121,-0.0519691l0 0.472447c0.742923,0.0248035 1.47167,0.0437013 2.1827,0.050788 11.0978,0.24331 18.0238,-0.817333 31.6421,-5.31266 4.04769,-0.409848 7.97254,-0.82442 11.5407,-1.41262 3.18075,-0.284649 6.30126,-0.39095 9.45248,-0.377957l0 -0.478352z"/>
    <path id="_66025176" class="fil108" d="M59.4681 35.8221c-3.46658,-0.0661425 -6.90481,-0.00354335 -10.4423,0.266932 -3.53981,0.451187 -7.57686,0.764183 -11.7734,1.09135 -13.2663,4.11383 -20.3589,5.03628 -31.2642,4.83431 -0.440557,-0.00118112 -0.887019,-0.00826782 -1.33821,-0.0177168l0 0.474809c0.43347,0.00944894 0.862215,0.0153545 1.28387,0.0188979 10.9974,0.212601 18.064,-0.735836 31.4012,-4.91817 4.128,-0.32835 8.09538,-0.646071 11.6375,-1.13387 3.53626,-0.213782 6.98867,-0.227956 10.4954,-0.122836l0 -0.493707z"/>
    <path id="_142327696" class="fil109" d="M59.4681 36.6205c-3.81501,-0.164175 -7.57214,-0.205514 -11.4616,-0.0212601 -3.51973,0.351973 -7.60167,0.565755 -11.8809,0.810246 -12.9935,3.8032 -20.2325,4.61226 -31.0516,4.44218l-0.424021 -0.00118112 0 0.478352 0.385044 0.00236223c10.8982,0.180711 18.1042,-0.654339 31.159,-4.52486 4.2095,-0.244491 8.22057,-0.466541 11.7356,-0.853948 3.89296,-0.121655 7.67017,-0.0283468 11.5383,0.174805l0 -0.506699z"/>
    <path id="_62339784" class="fil110" d="M59.4681 37.4568c-4.17052,-0.265751 -8.24183,-0.424021 -12.4809,-0.346067 -3.49965,0.251578 -7.62647,0.367327 -11.9883,0.526778 -12.5281,3.43941 -19.8794,4.16934 -30.3488,4.05832l0 0.481896c10.5202,0.119293 17.8337,-0.635441 30.4043,-4.13745 4.28982,-0.161813 8.34341,-0.287011 11.8336,-0.572842 4.2473,-0.0106301 8.34223,0.203152 12.5801,0.510242l0 -0.520873z"/>
    <path id="_65815536" class="fil111" d="M59.4681 38.3308c-4.53431,-0.372052 -8.91153,-0.661425 -13.5013,-0.70867 -3.47721,0.150002 -7.64891,0.167719 -12.0946,0.24331 -11.895,3.04138 -19.3006,3.71107 -29.222,3.66973l0 0.487801c9.9639,0.0472447 17.3293,-0.647252 29.2645,-3.74768 4.37131,-0.0803159 8.46625,-0.108663 11.9305,-0.294098 4.60045,0.121655 9.0072,0.468903 13.623,0.881113l0 -0.531503z"/>
    <path id="_142259312" class="fil112" d="M59.4681 39.2367c-4.90872,-0.479533 -9.58358,-0.910641 -14.5207,-1.10316 -3.45713,0.0484258 -7.67372,-0.0318902 -12.2009,-0.040158 -11.2702,2.65869 -18.6865,3.26224 -28.0964,3.27642l0 0.491345c9.44421,-0.00944894 16.8191,-0.635441 28.1236,-3.35083 4.45281,0.00118112 8.59026,0.0696859 12.0297,-0.0153545 4.95124,0.272838 9.65917,0.764183 14.6647,1.28151l0 -0.53977z"/>
    <path id="_64529888" class="fil113" d="M59.4681 40.1698c-5.29613,-0.583472 -10.2592,-1.16694 -15.5411,-1.526 -3.43469,-0.0519691 -7.69616,-0.229137 -12.3072,-0.321264 -10.6513,2.29255 -18.0368,2.82169 -26.9696,2.87602l0 0.494888c8.95877,-0.050788 16.303,-0.60237 26.9838,-2.94925 4.53313,0.0850404 8.7131,0.250397 12.1265,0.26457 5.30085,0.442919 10.3005,1.08899 15.7077,1.7079l0 -0.546857z"/>
    <path id="_48177192" class="fil114" d="M59.4681 41.1265c-5.69771,-0.682686 -10.9371,-1.42797 -16.5604,-1.97128 -3.41461,-0.152364 -7.71978,-0.428745 -12.4147,-0.604732 -10.0407,1.94412 -17.3542,2.39412 -25.8428,2.47208l0 0.499612c8.50404,-0.0767726 15.7762,-0.548038 25.844,-2.54413 4.61344,0.167719 8.83594,0.429927 12.2234,0.544495 5.64574,0.630716 10.9265,1.43978 16.7506,2.15554l0 -0.551582z"/>
    <path id="_150476800" class="fil115" d="M59.4681 42.1021c-6.11464,-0.774813 -11.6198,-1.69018 -17.5797,-2.43546 -3.39335,-0.252759 -7.74458,-0.628354 -12.5222,-0.8882 -9.44303,1.61459 -16.6431,1.97955 -24.7161,2.06695l0 0.504337c8.07884,-0.0874027 15.24,-0.474809 24.7042,-2.13664 4.69376,0.250397 8.95995,0.608275 12.3214,0.823238 5.98472,0.837412 11.5348,1.81538 17.7923,2.62208l0 -0.556306z"/>
    <path id="_142746944" class="fil116" d="M59.4681 43.0942c-6.55047,-0.858672 -12.3084,-1.94884 -18.6002,-2.91618 -3.37209,-0.354335 -7.76821,-0.827963 -12.6285,-1.17167 -8.85601,1.30395 -15.9085,1.58033 -23.5893,1.66419l0 0.505518c7.67726,-0.0838593 14.6919,-0.381501 23.5633,-1.72916 4.77526,0.333075 9.08397,0.787805 12.4194,1.10316 6.32016,1.06182 12.1265,2.21341 18.8353,3.10279l0 -0.558668z"/>
    <path id="_63455560" class="fil117" d="M59.4681 44.0982c-7.00639,-0.933082 -13.0029,-2.20278 -19.6195,-3.4087 -3.35201,-0.455911 -7.79183,-1.02639 -12.736,-1.45514 -8.28317,1.0134 -15.1549,1.19765 -22.4625,1.2638l0 0.509061c7.29812,-0.0696859 14.1309,-0.272838 22.4235,-1.32639 4.85557,0.415753 9.20681,0.967335 12.5175,1.38309 6.64851,1.30159 12.6958,2.63153 19.877,3.59296l0 -0.558668z"/>
    <path id="_66125760" class="fil118" d="M59.4681 45.1092c-0.172443,-0.0212601 -0.343705,-0.0448824 -0.513786,-0.0685048 -7.2556,-0.993319 -13.3502,-2.41302 -20.1251,-3.84099 -3.33075,-0.555125 -7.81663,-1.22482 -12.8423,-1.73624 -7.72687,0.741741 -14.3836,0.831506 -21.3369,0.869302l0 0.512605c6.93434,-0.0437013 13.5533,-0.151183 21.2837,-0.929539 4.93589,0.498431 9.32964,1.14686 12.6143,1.66301 6.74418,1.50592 12.8387,2.96933 20.1735,3.98745 0.248035,0.0342524 0.496069,0.0661425 0.746466,0.0980327l0 -0.555125z"/>
    <path id="_144545080" class="fil119" d="M59.4681 46.1132c-0.512605,-0.0566936 -1.01812,-0.121655 -1.51892,-0.193703 -7.29103,-1.04765 -13.3596,-2.58665 -20.1404,-4.20832 -3.30949,-0.65552 -7.83907,-1.42443 -12.9486,-2.01971 -7.18592,0.491345 -13.6006,0.484258 -20.2101,0.485439l0 0.513786c6.58473,-0.00590558 12.9616,-0.0165356 20.1428,-0.540952 5.01738,0.582291 9.45366,1.32639 12.7124,1.94294 6.76308,1.69608 12.8399,3.27642 20.2231,4.35123 0.572842,0.0826782 1.15277,0.157089 1.73979,0.220869l0 -0.551582z"/>
    <path id="_66949592" class="fil120" d="M59.4681 47.11c-0.858672,-0.0850404 -1.69845,-0.188979 -2.52168,-0.311815 -7.33001,-1.10316 -13.3714,-2.76027 -20.1569,-4.57683 -3.28823,-0.755915 -7.86388,-1.62285 -13.0561,-2.302 -6.66032,0.262208 -12.808,0.159451 -19.0833,0.112206l0 0.517329c6.24457,0.040158 12.3533,0.125198 19.003,-0.164175 5.0977,0.663788 9.5765,1.50356 12.8104,2.22168 6.78197,1.88624 12.8411,3.58469 20.2715,4.71384 0.891743,0.13701 1.80238,0.246853 2.7331,0.336618l0 -0.546857z"/>
    <path id="_64534648" class="fil121" d="M59.4681 48.0951c-1.21183,-0.102757 -2.38468,-0.239767 -3.52563,-0.418115 -7.36663,-1.15868 -13.3821,-2.93271 -20.1735,-4.94297 -3.26697,-0.858672 -7.88632,-1.82364 -13.1624,-2.58665 -6.15362,0.0519691 -12.0108,-0.144096 -17.9565,-0.244491l0 0.519691c5.90913,0.0921271 11.7273,0.274019 17.8632,0.196065 5.17802,0.746466 9.69933,1.68427 12.9072,2.50161 6.80087,2.07758 12.8435,3.89296 20.3211,5.07762 1.20474,0.191341 2.44373,0.334256 3.72642,0.440557l0 -0.543314z"/>
    <path id="_63312168" class="fil122" d="M59.4681 49.0671c-1.57443,-0.108663 -3.07799,-0.2752 -4.52958,-0.512605 -7.40442,-1.21183 -13.3927,-3.10516 -20.1888,-5.3103 -3.24689,-0.957886 -7.91112,-2.02089 -13.2698,-2.86893 -5.66227,-0.135828 -11.21,-0.424021 -16.8297,-0.583472l0 0.522054c5.57842,0.150002 11.0836,0.425202 16.7223,0.53977 5.25951,0.829144 9.82335,1.86262 13.0065,2.78153 6.81859,2.26656 12.8446,4.20005 20.3695,5.44022 1.51065,0.249216 3.07681,0.420478 4.71974,0.532684l0 -0.540952z"/>
    <path id="_142362464" class="fil123" d="M59.4681 50.0274c-1.94648,-0.106301 -3.77957,-0.295279 -5.53353,-0.594102 -7.43986,-1.26734 -13.4021,-3.27878 -20.2042,-5.67763 -3.22563,-1.05946 -7.93474,-2.2205 -13.3761,-3.15122 -5.19101,-0.303547 -10.4127,-0.680323 -15.7041,-0.902373l0 0.523235c5.24534,0.214963 10.4222,0.577566 15.5825,0.862215 5.33983,0.910641 9.94619,2.04215 13.1033,3.06145 6.83867,2.45672 12.847,4.50714 20.4191,5.80283 1.81065,0.310634 3.7028,0.505518 5.71306,0.614181l0 -0.538589z"/>
    <path id="_144354168" class="fil124" d="M59.4681 50.9746c-2.3268,-0.0956705 -4.48824,-0.301185 -6.5363,-0.663788 -7.47883,-1.32049 -13.4151,-3.45122 -20.2219,-6.04496 -3.20437,-1.15986 -7.95837,-2.41893 -13.4824,-3.43351 -4.73628,-0.450006 -9.61665,-0.908279 -14.5773,-1.19529l0 0.525597c4.9099,0.278744 9.74303,0.725206 14.4427,1.15868 5.42015,0.9945 10.0702,2.22168 13.2013,3.34138 6.85638,2.64688 12.8482,4.81541 20.4676,6.16661 2.10121,0.373233 4.31934,0.584653 6.70638,0.682686l0 -0.537408z"/>
    <path id="_143132072" class="fil125" d="M59.4681 51.9089c-2.71775,-0.0744104 -5.204,-0.291736 -7.54025,-0.7193 -7.51545,-1.376 -13.4246,-3.62485 -20.2373,-6.4111 -3.18311,-1.26143 -7.98317,-2.61854 -13.5899,-3.71816 -4.2969,-0.575204 -8.82531,-1.10907 -13.4506,-1.46104l0 0.52914c4.57092,0.343705 9.04736,0.865759 13.3029,1.42797 5.50046,1.07718 10.193,2.40003 13.2982,3.62012 6.87528,2.83704 12.8506,5.1225 20.516,6.5304 2.38704,0.438194 4.92644,0.660244 7.70088,0.738198l0 -0.536227z"/>
    <path id="_143104776" class="fil126" d="M59.4681 52.8302c-3.11933,-0.0460636 -5.92803,-0.266932 -8.5442,-0.76182 -7.55324,-1.43151 -13.4352,-3.79847 -20.2526,-6.77961 -3.16303,-1.36183 -8.00679,-2.81696 -13.6974,-4.00044 -3.87643,-0.679142 -8.04104,-1.28033 -12.3238,-1.6949l0 0.532684c4.22367,0.406304 8.33396,0.998044 12.162,1.66419 5.58078,1.15986 10.3159,2.57956 13.3962,3.90123 6.89418,3.0272 12.8529,5.42959 20.5656,6.893 2.66578,0.505518 5.5229,0.732292 8.6942,0.781899l0 -0.536227z"/>
   </g>
  </g>
  <path class="fil127" d="M59.2673 26.7547c-13.6065,3.30004 -40.3021,2.52995 -55.2349,1.75986l0 -12.5269c0,-1.60159 1.14096,-2.44964 2.68704,-2.44727l49.9778 0.0531503c1.65238,0.00118112 2.57011,0.882294 2.57011,2.49452l0 10.6667z"/>
  <path class="fil128" d="M5.35518 57.5594c0.522054,0.388587 1.18348,0.617724 1.72207,0.616543l50.6723 -0.167719c0.611819,-0.0165356 1.08308,-0.193703 1.42088,-0.480715l0.584653 0.672056c-0.48662,0.420478 -1.14214,0.674418 -1.97955,0.69804l-0.0129923 0 -50.6853 0.167719c-0.727568,0.00236223 -1.6075,-0.305909 -2.28664,-0.817333l0.564574 -0.688591z"/>
  <path class="fil129" d="M5.45794 56.5377c0.520873,0.388587 1.1823,0.617724 1.72207,0.616543l50.6723 -0.167719c0.611819,-0.0165356 1.08308,-0.193703 1.4197,-0.480715l0.585834 0.672056c-0.48662,0.420478 -1.14332,0.674418 -1.98073,0.69804l-0.0118112 0 -50.6853 0.167719c-0.727568,0.00236223 -1.60868,-0.305909 -2.28664,-0.817333l0.564574 -0.688591z"/>
  <path class="fil130" d="M4.48943 55.5562c0.647252,0.35906 1.68073,0.435832 2.27129,0.435832l50.4644 0c0.609456,-0.0165356 1.21655,-0.118112 1.66774,-0.347248l-0.0661425 -0.0838593 0.090946 -0.0437013 -0.138191 -0.175986 0.113387 -0.0519691 -0.0661425 -0.0850404 0.090946 -0.0425202 -0.309453 -0.395674c-0.373233,0.165356 -0.879932,0.229137 -1.37128,0.242129l-50.4514 0c-0.491345,0.00236223 -1.4138,-0.0342524 -1.97247,-0.334256l-0.298823 0.396855 0.050788 0.0271657 -0.0755915 0.100395 0.144096 0.0720481 -0.119293 0.15827 0.050788 0.0271657 -0.0755915 0.100395z"/>
  <path class="fil131" d="M4.64651 57.0727l-0.337799 0.368508m56.0735 -0.040158l-0.379139 -0.334256"/>
  <path class="fil132" d="M4.05477 14.3612l0 41.3497c0.105119,1.33466 1.79057,2.3079 2.99767,2.30436l50.2872 -0.167719c1.74215,-0.0484258 2.53704,-1.21655 2.59609,-2.74846l0 -40.6375c0,-1.61341 -0.96261,-2.49452 -2.69531,-2.4957l-50.3664 -0.0531503c-1.61459,-0.00118112 -2.82051,0.84568 -2.81933,2.44846zm2.00081 0l0 41.2092c0.0212601,0.0165356 0.0850404,0.0543314 0.1689,0.118112l0.00118112 -0.00118112c0.271657,0.209058 0.592921,0.335437 0.826782,0.335437l50.24 -0.167719c0.244491,-0.00590558 0.394493,-0.0531503 0.459454,-0.121655 0.107482,-0.113387 0.170081,-0.341343 0.187798,-0.63426l-0.00472447 0 0 -40.6375c0,-0.224412 -0.0188979,-0.357878 -0.0543314,-0.389769l0.00354335 -0.00472447c-0.0826782,-0.070867 -0.301185,-0.108663 -0.643709,-0.108663l-50.3664 -0.0531503 0 0.00826782 -0.0106301 0c-0.349611,0 -0.611819,0.0555125 -0.74056,0.161813l0 0.00826782c-0.0413391,0.0342524 -0.0673237,0.124017 -0.0673237,0.270476l0 0.0070867z"/>
  <path class="fil133" d="M4.05477 14.3612l0 41.3497c0.105119,1.33466 1.79057,2.3079 2.99767,2.30436l50.2872 -0.167719c1.74215,-0.0484258 2.53704,-1.21655 2.59609,-2.74846l0 -40.6375c0,-1.61341 -0.96261,-2.49452 -2.69531,-2.4957l-50.3664 -0.0531503c-1.61459,-0.00118112 -2.82051,0.84568 -2.81933,2.44846zm0.999225 0l0 41.3107c0.0389769,0.290555 0.26457,0.576385 0.566936,0.809065 0.438194,0.335437 0.992138,0.53977 1.43151,0.538589l50.2636 -0.167719c0.535046,-0.0141734 0.918909,-0.177168 1.16222,-0.434651 0.284649,-0.301185 0.434651,-0.767726 0.460636,-1.31813l-0.00236223 0 0 -40.6375c0,-0.516148 -0.129923,-0.892924 -0.375595,-1.12088l0.00118112 -0.00118112c-0.266932,-0.246853 -0.715757,-0.377957 -1.32167,-0.377957l-50.3664 -0.0531503 0 0.00354335 -0.0106301 0c-0.576385,0 -1.05946,0.135828 -1.37364,0.393312l0 0.00472447c-0.270476,0.22205 -0.435832,0.572842 -0.435832,1.04411l0 0.0070867z"/>
  <path class="fil134" d="M5.86425 57.7602c0.40158,0.165356 0.817333,0.256302 1.1882,0.255121l50.2872 -0.167719c0.737017,-0.020079 1.30513,-0.242129 1.71971,-0.605913l-0.70867 -0.70867c-0.242129,0.19016 -0.584653,0.30709 -1.03466,0.318902l-50.2636 0.167719c-0.154726,0 -0.322445,-0.0236223 -0.496069,-0.070867l-0.692135 0.811427z"/>
  <path class="fil135" d="M3.28705 41.632c1.18938,0.533865 2.42483,1.27915 3.7028,2.27956 6.7678,5.29258 11.1427,9.19263 15.5943,10.258 4.43982,1.06182 8.38357,0.608275 13.0868,-0.184254 2.16617,-0.364965 5.25597,-0.249216 8.68711,0.428745 3.60477,0.712213 7.5934,2.04688 11.2832,4.09493l-1.16458 0c-3.37799,-1.74805 -6.9615,-2.90909 -10.2261,-3.55516 -3.36382,-0.664969 -6.38394,-0.780718 -8.48987,-0.426383 -4.76463,0.803159 -8.76625,1.26143 -13.3041,0.175986 -4.5284,-1.08308 -8.9694,-5.01266 -15.8057,-10.3596 -1.15868,-0.905917 -2.28074,-1.59451 -3.36382,-2.09884l0 -0.613z"/>
  <polygon class="fil136" points="63.8476,13.0702 63.8476,57.0432 63.3468,57.0432 63.3468,13.0702 "/>
  <path class="fil137" d="M0.121655 12.169c0,-0.987414 0.406304,-1.88861 1.0571,-2.5394 0.650795,-0.650795 1.55199,-1.0571 2.5394,-1.0571l56.6393 0c0.987414,0 1.88742,0.406304 2.5394,1.05828 0.651977,0.651977 1.05828,1.55435 1.05828,2.53822l-0.892924 0c0,-0.74056 -0.305909,-1.41852 -0.796073,-1.90868 -0.488982,-0.488982 -1.16694,-0.794892 -1.90868,-0.794892l-56.6393 0c-0.742923,0 -1.42088,0.305909 -1.90987,0.793711 -0.487801,0.488982 -0.793711,1.16694 -0.793711,1.90987l-0.892924 0z"/>
  <path class="fil131" d="M0.849223 11.1344c0,-1.7327 1.41734,-3.15004 3.15004,-3.15004l56.6393 0c1.7327,0 3.15122,1.42561 3.15122,3.15004"/>
  <path class="fil129" d="M0.257483 11.7297c0.36969,-2.05987 0.685048,-3.65674 3.10516,-3.70044l56.6393 0c1.99609,0 3.34729,1.52718 3.34729,3.52445l-0.696859 0.12638c0,-1.45159 -1.19883,-2.64925 -2.65043,-2.64925l-56.6393 0c-0.727568,0 -1.39254,0.298823 -1.87207,0.775994l-0.00118112 0.00118112c-0.477171,0.479533 -0.775994,1.14332 -0.775994,1.87207l-0.455911 0.0496069z"/>
  <path class="fil138" d="M3.76894 6.01897l56.5164 0 0.0767726 0 0.00590558 0.00236223c1.0819,0.0129923 2.00317,0.290555 2.66224,0.8882l-0.00118112 0.00118112c0.668512,0.607094 1.05238,1.51537 1.05238,2.77799l0 0.0720481 -0.00236223 0.00590558 -0.0555125 4.37604 -0.0070867 0.494888 -0.0236223 0 0 43.7568c0,0.999225 -0.413391,1.91341 -1.07482,2.5772l0 0.00118112c-0.661425,0.661425 -1.57561,1.07482 -2.57838,1.07482l-56.6416 0c-1.00159,0 -1.91577,-0.413391 -2.5772,-1.07482l0.00118112 0c-0.662607,-0.661425 -1.07482,-1.57561 -1.07482,-2.57838l0 -43.7568 -0.0188979 0 0 -0.500794 0 -4.37604 0.00236223 -0.0118112 0.00472447 -0.193703 0 -0.0118112c0.0484258,-0.964973 0.424021,-1.8449 1.03938,-2.48153l0.00118112 -0.00118112c0.622449,-0.643709 1.49175,-1.04293 2.51578,-1.04411l0.0118112 0 0.165356 0.00472447 0 -0.00236223zm56.5164 1.00159l-56.5164 0 -0.0118112 -0.00236223 -0.177168 -0.00472447c-0.72993,0.00354335 -1.34765,0.287011 -1.78703,0.74056 -0.448824,0.46536 -0.725206,1.11497 -0.760639,1.83664l-0.00472447 0.170081 0.00236223 0 0 3.87524 0.0188979 0 0 0.500794 0 44.2576c0,0.72993 0.298823,1.3949 0.777175,1.87207l0.00118112 0c0.479533,0.479533 1.14332,0.779537 1.87089,0.779537l56.6416 0c0.727568,0 1.39254,-0.300004 1.87207,-0.779537l0.00118112 0c0.478352,-0.479533 0.778356,-1.1445 0.778356,-1.87207l0 -44.2576 0 -0.500794 0.0413391 0 0.0496069 -3.87524 -0.00236223 0 0 -0.0720481c0,-0.960248 -0.263389,-1.62522 -0.720481,-2.03979l-0.00236223 0c-0.46536,-0.421659 -1.15868,-0.620086 -1.99491,-0.630716l0 0.00236223 -0.0767726 0z"/>
  <polygon class="fil139" points="4.08903,13.9289 4.08903,55.894 3.08744,55.894 3.08744,13.9289 "/>
  <polygon class="fil139" points="60.8429,13.9289 60.8429,55.894 59.8413,55.894 59.8413,13.9289 "/>
 </g>
</svg>
