<?xml version="1.0" encoding="UTF-8"?>
<!DOCTYPE svg PUBLIC "-//W3C//DTD SVG 1.1//EN" "http://www.w3.org/Graphics/SVG/1.1/DTD/svg11.dtd">
<!-- Creator: CorelDRAW -->
<svg xmlns="http://www.w3.org/2000/svg" xml:space="preserve" width="64px" height="64px" style="shape-rendering:geometricPrecision; text-rendering:geometricPrecision; image-rendering:optimizeQuality; fill-rule:evenodd; clip-rule:evenodd"
viewBox="0 0 64 64"
 xmlns:xlink="http://www.w3.org/1999/xlink">
 <defs>
  <style type="text/css">
   <![CDATA[
    .fil32 {fill:#5787B4}
    .fil25 {fill:#B0E2FC}
    .fil11 {fill:white;fill-rule:nonzero}
    .fil0 {fill:black;fill-opacity:0.000000}
    .fil15 {fill:#B1B5B8;fill-opacity:0.000000}
    .fil1 {fill:black;fill-opacity:0.011765}
    .fil2 {fill:black;fill-opacity:0.027451}
    .fil3 {fill:black;fill-opacity:0.039216}
    .fil4 {fill:black;fill-opacity:0.054902}
    .fil16 {fill:#B1B5B8;fill-opacity:0.054902}
    .fil5 {fill:black;fill-opacity:0.066667}
    .fil6 {fill:black;fill-opacity:0.078431}
    .fil7 {fill:black;fill-opacity:0.094118}
    .fil8 {fill:black;fill-opacity:0.105882}
    .fil17 {fill:#B1B5B8;fill-opacity:0.109804}
    .fil9 {fill:black;fill-opacity:0.121569}
    .fil36 {fill:#ABD8FC;fill-rule:nonzero;fill-opacity:0.121569}
    .fil18 {fill:#B1B5B8;fill-opacity:0.164706}
    .fil31 {fill:#4272A0;fill-opacity:0.219608}
    .fil34 {fill:#4272A0;fill-rule:nonzero;fill-opacity:0.219608}
    .fil19 {fill:#B1B5B8;fill-opacity:0.223529}
    .fil20 {fill:#B1B5B8;fill-opacity:0.278431}
    .fil21 {fill:#B1B5B8;fill-opacity:0.333333}
    .fil22 {fill:#B1B5B8;fill-opacity:0.388235}
    .fil35 {fill:#91C7ED;fill-rule:nonzero;fill-opacity:0.439216}
    .fil23 {fill:#B1B5B8;fill-opacity:0.443137}
    .fil24 {fill:#B1B5B8;fill-opacity:0.501961}
    .fil29 {fill:#4474A1;fill-opacity:0.580392}
    .fil30 {fill:#91C7ED;fill-opacity:0.780392}
    .fil33 {fill:#91C7ED;fill-rule:nonzero;fill-opacity:0.780392}
    .fil37 {fill:url(#id0)}
    .fil13 {fill:url(#id1)}
    .fil14 {fill:url(#id2)}
    .fil28 {fill:url(#id3)}
    .fil10 {fill:url(#id4)}
    .fil38 {fill:url(#id5);fill-rule:nonzero}
    .fil27 {fill:url(#id6);fill-rule:nonzero}
    .fil12 {fill:url(#id7);fill-rule:nonzero}
    .fil26 {fill:url(#id8);fill-rule:nonzero;fill-opacity:0.501961}
   ]]>
  </style>
  <linearGradient id="id0" gradientUnits="userSpaceOnUse" x1="32.5539" y1="57.6999" x2="31.6622" y2="24.1054">
   <stop offset="0" style="stop-color:#B2E1FF"/>
   <stop offset="1" style="stop-color:#5094D4"/>
  </linearGradient>
  <linearGradient id="id1" gradientUnits="userSpaceOnUse" x1="31.5417" y1="21.6806" x2="31.5417" y2="60.1708">
   <stop offset="0" style="stop-color:#5589C4"/>
   <stop offset="0.0705882" style="stop-color:#5795C9"/>
   <stop offset="0.258824" style="stop-color:#649FCF"/>
   <stop offset="0.909804" style="stop-color:#9FCFF5"/>
   <stop offset="1" style="stop-color:#649DCF"/>
  </linearGradient>
  <linearGradient id="id2" gradientUnits="userSpaceOnUse" xlink:href="#id1" x1="32.2445" y1="21.7219" x2="31.8937" y2="61.0047">
  </linearGradient>
  <linearGradient id="id3" gradientUnits="userSpaceOnUse" x1="31.5323" y1="29.0779" x2="32.685" y2="52.7262">
   <stop offset="0" style="stop-color:#5481A8"/>
   <stop offset="1" style="stop-color:#81B3DE"/>
  </linearGradient>
  <linearGradient id="id4" gradientUnits="userSpaceOnUse" x1="25.8109" y1="25.2298" x2="37.8182" y2="46.1332">
   <stop offset="0" style="stop-color:#E8E8E8"/>
   <stop offset="1" style="stop-color:#D6D6D6"/>
  </linearGradient>
  <linearGradient id="id5" gradientUnits="userSpaceOnUse" x1="32.6142" y1="25.5204" x2="31.6031" y2="56.2838">
   <stop offset="0" style="stop-color:#416991"/>
   <stop offset="1" style="stop-color:#72A1C9"/>
  </linearGradient>
  <linearGradient id="id6" gradientUnits="userSpaceOnUse" x1="31.3681" y1="23.8786" x2="32.5728" y2="58.6625">
   <stop offset="0" style="stop-color:#4E87B4"/>
   <stop offset="1" style="stop-color:#517EA3"/>
  </linearGradient>
  <linearGradient id="id7" gradientUnits="userSpaceOnUse" x1="31.7626" y1="39.3229" x2="31.8665" y2="32.0378">
   <stop offset="0" style="stop-color:#A2A2A2"/>
   <stop offset="1" style="stop-color:#B3B3B3"/>
  </linearGradient>
  <linearGradient id="id8" gradientUnits="userSpaceOnUse" x1="12.8482" y1="60.6669" x2="12.8246" y2="59.3535">
   <stop offset="0" style="stop-color:#A8D8FF"/>
   <stop offset="1" style="stop-color:#71ACE1"/>
  </linearGradient>
 </defs>
 <g id="Слой_x0020_1">
  <metadata id="CorelCorpID_0Corel-Layer"/>
  <g id="_71963120">
   <path id="_49575216" class="fil0" d="M30.4008 53.7881c12.6391,0 27.957,3.95556 32.9543,6.77843 1.15159,0.650795 0.686229,2.86185 0.686229,3.1087 0,0.0118112 -0.0555125,0.0224412 -0.150002,0.0342524l-63.3067 0c-0.216144,-0.0153545 -0.337799,-0.0318902 -0.337799,-0.0484258 0.0744104,0.177168 -0.524416,-1.33112 0.646071,-2.16735 4.45517,-3.18783 17.4758,-7.70561 29.5078,-7.70561z"/>
   <g>
    <path id="_71630784" class="fil1" d="M30.5531 54.3963c12.384,0 27.4834,3.58351 32.4287,6.22567 1.17167,0.616543 0.74056,2.6835 0.74056,2.93744 0,0.0578747 -1.17639,0.108663 -3.19728,0.150002l-56.1243 0c-2.26302,-0.0413391 -3.59532,-0.0921271 -3.59532,-0.150002 0,-0.302366 -0.651977,-1.29569 0.705127,-2.10003 4.56856,-2.73192 17.2337,-7.06308 29.0425,-7.06308z"/>
    <path id="_48909072" class="fil2" d="M30.7043 55.0034c12.1289,0 26.7062,3.22681 31.6008,5.68944 1.19057,0.583472 0.794892,2.50633 0.794892,2.76499 0,0.118112 -4.6784,0.20079 -11.4545,0.251578l-37.7591 0c-7.33001,-0.0519691 -12.4915,-0.135828 -12.4915,-0.251578 0,-0.304728 -0.640165,-1.27915 0.733474,-2.03152 4.55439,-2.53586 16.9892,-6.42291 28.5759,-6.42291z"/>
    <path id="_71580104" class="fil3" d="M30.8555 55.6129c11.8738,0 25.9302,2.87011 30.7728,5.15085 1.20946,0.5504 0.849223,2.32916 0.849223,2.59255 0,0.429927 -60.4921,0.400399 -60.4921,0 0,-0.308272 -0.630716,-1.26261 0.759458,-1.96302 4.54139,-2.33979 16.7459,-5.78039 28.1106,-5.78039z"/>
    <path id="_77889520" class="fil4" d="M31.0079 56.2212c11.6186,0 25.1531,2.51342 29.9437,4.61344 1.22954,0.517329 0.903554,2.15199 0.903554,2.42129 0,0.429927 -59.2791,0.400399 -59.2791,0 0,-0.311815 -0.618905,-1.24726 0.785443,-1.89569 4.5284,-2.14373 16.5037,-5.13904 27.6464,-5.13904z"/>
    <path id="_49584640" class="fil5" d="M31.1579 56.8283c11.3635,0 24.3759,2.15672 29.1145,4.07722 1.24962,0.481896 0.959067,1.97247 0.959067,2.24767 0,0.428745 -58.0672,0.400399 -58.0672,0 0,-0.315358 -0.608275,-1.2319 0.81379,-1.82837 4.51305,-1.94766 16.2593,-4.49651 27.1799,-4.49651z"/>
    <path id="_71801752" class="fil6" d="M31.309 57.4365c11.1084,0 23.5987,1.8012 28.2866,3.53981 1.26852,0.448824 1.0134,1.7953 1.0134,2.0764 0,0.428745 -56.8542,0.400399 -56.8542,0 0,-0.318902 -0.596464,-1.21537 0.839774,-1.75986 4.50006,-1.75278 16.0171,-3.85635 26.7145,-3.85635z"/>
    <path id="_71646336" class="fil7" d="M31.4602 58.0448c10.8545,0 22.8227,1.44451 27.4586,3.0024 1.28742,0.415753 1.06655,1.61813 1.06655,1.90396 0,0.429927 -55.6412,0.400399 -55.6412,0 0,-0.322445 -0.585834,-1.20001 0.86694,-1.69136 4.48588,-1.55671 15.7738,-3.215 26.2491,-3.215z"/>
    <path id="_49484520" class="fil8" d="M31.6114 58.6519c10.5993,0 22.0455,1.08899 26.6306,2.46617 1.30632,0.382682 1.12088,1.43978 1.12088,1.73152 0,0.429927 -54.4294,0.400399 -54.4294,0 0,-0.324807 -0.574023,-1.18348 0.895287,-1.62404 4.47171,-1.35947 15.5293,-2.57365 25.7826,-2.57365z"/>
   </g>
   <path id="_71910944" class="fil9" d="M31.7626 59.2614c10.3442,0 21.2696,0.732292 25.8027,1.92758 1.32521,0.349611 1.17521,1.26261 1.17521,1.56026 0,0.429927 -53.2176,0.400399 -53.2176,0 0,-0.329532 -0.563393,-1.16812 0.921271,-1.55553 4.45872,-1.16458 15.2872,-1.93231 25.3184,-1.93231z"/>
  </g>
  <path class="fil10" d="M57.6161 15.5624c0.940169,0.233861 1.64175,1.0949 1.64175,2.10475l0 40.9399c0,1.19057 -0.976784,2.16735 -2.16735,2.16735l-5.34337 0 -27.0877 0 -5.92803 0.0248035 -6.8493 0 -5.34337 0 -0.131104 0 0 -0.00472447c-1.13151,-0.0685048 -2.03625,-1.01576 -2.03625,-2.16263l0.0248035 -40.8619c0,-1.19293 0.975603,-2.17444 2.16735,-2.16735l2.76618 -0.281106c1.00277,-0.225593 1.85081,-1.14332 2.59728,-2.76027 0.442919,-0.961429 0.825601,-1.79648 1.73979,-1.97247l16.3797 -0.0248035c0.913003,0.175986 1.29569,1.01104 1.7386,1.97247 0.903554,1.95711 1.95711,2.93508 3.21146,3.02366l0 0.00236223 0.0484258 0c0.53977,0.0342524 1.11734,0.00354335 1.73624,0l0.201971 0 20.6329 0z"/>
  <path class="fil11" d="M57.6208 16.0856c0.530321,0.131104 0.990957,0.441738 1.31813,0.859853 0.320083,0.41221 0.513786,0.929539 0.513786,1.48703l0 2.60318 -0.050788 0 0 0.405123 -0.498431 0 0 -2.60318c0,-0.4441 -0.152364,-0.855129 -0.406304,-1.1823 -0.25394,-0.323626 -0.608275,-0.564574 -1.01104,-0.674418l-20.6081 0 -0.201971 0 0 0 -0.548038 0.0070867c-0.414572,0.00826782 -0.811427,0.0165356 -1.18702,-0.0070867l-0.050788 0 -0.248035 0 0 -0.0248035c-0.578747,-0.0637803 -1.1197,-0.448824 -1.62758,-0.799616 -0.568117,-0.394493 -1.08781,-1.32521 -1.55907,-2.34806l-0.00118112 -0.00354335 -0.00354335 -0.00826782 0 0.00236223c-0.408666,-0.885838 -0.664969,-1.65474 -1.43151,-1.81538l-16.3348 0.0248035c-0.768907,0.160632 -1.22482,0.929539 -1.6323,1.81538l-0.00118112 -0.00236223 -0.00354335 0.00826782 0 0.00354335c-0.388587,0.842136 -0.788986,1.73388 -1.25198,2.14018 -0.472447,0.41221 -0.976784,0.936626 -1.51537,1.0571l-0.0271657 0.0070867 -0.0283468 0 -2.76618 -0.0188979 0 0.00236223 -0.0129923 0c-0.522054,0 -0.998044,0.213782 -1.34293,0.558668 -0.248035,0.249216 -0.428745,0.565755 -0.512605,0.917728l0 0.0236223 0.00118112 0 0 0.0129923 0 2.20042 -0.050788 0 0 0.405123 -0.498431 0 0 -2.20042 0 -0.0129923 0.00118112 -0.00236223c0.00118112,-0.167719 0.0188979,-0.330713 0.0531503,-0.488982 0.0248035,-0.624811 0.291736,-1.19411 0.707489,-1.60986 0.434651,-0.435832 1.03466,-0.707489 1.69254,-0.707489l0.0129923 0 0.00236223 0.00118112 2.73665 -0.279925c0.452368,-0.105119 0.87757,-0.300004 1.27206,-0.64489 0.409848,-0.360241 0.770088,-1.19883 1.12797,-1.97365l0 0.00236223 0.00236223 -0.00826782 0.00118112 -0.00354335c0.471266,-1.0193 0.879932,-1.9016 1.91459,-2.10121l0.0283468 -0.00590558 0.0177168 0 16.3797 -0.0248035 0.020079 0 0.0271657 0.00590558c1.03348,0.199609 1.44332,1.08427 1.91341,2.10121l0 0.00354335 0.00236223 0.00826782 0.00118112 -0.00236223c0.432289,0.934263 0.892924,1.73624 1.39017,2.08113 0.48662,0.336618 1.02521,0.758277 1.61222,0.799616l0.0248035 0.00118112 0.00826782 0 0.0129923 0.00236223c0.372052,0.0224412 0.76182,0.0141734 1.16694,0.00826782l0 0 0.552763 -0.00826782 0.00236223 -0.00236223 0.201971 0 20.6329 0 0.0259846 0 0.0330713 0.00826782z"/>
  <path class="fil12" d="M57.7354 15.0781c0.585834,0.145277 1.09962,0.488982 1.4575,0.949618l-0.00118112 0c0.354335,0.453549 0.566936,1.02639 0.566936,1.64057l0 40.9375c0,0.731111 -0.300004,1.39962 -0.784262,1.88388 -0.481896,0.481896 -1.15041,0.784262 -1.8827,0.784262l-5.34455 0 -27.0877 0 -5.92684 0.0248035 -6.85048 0 -5.34337 0 -0.131104 0 -0.500794 0 0 -0.0767726c-0.509061,-0.125198 -0.961429,-0.396855 -1.30868,-0.765364 -0.450006,-0.477171 -0.727568,-1.12324 -0.727568,-1.82601l0.0248035 -40.8607 0 -0.0153545 0.00236223 -0.00236223c0.00354335,-0.726387 0.304728,-1.39017 0.781899,-1.86853l0 -0.00118112c0.478352,-0.478352 1.13978,-0.779537 1.86853,-0.778356l0 -0.00236223 0.0153545 0 0.00236223 0.00236223c1.23072,-0.12638 2.85476,0.00472447 3.84217,-0.863396 1.22009,-1.07009 1.23663,-3.77013 3.16539,-4.14218l0.0933082 -0.0106301 16.3797 -0.0248035 0.0933082 0.0106301c1.16104,0.223231 1.59451,1.15986 2.09294,2.23585l0.00590558 0.0141734 0.00118112 0.00236223c0.887019,1.92522 2.08585,2.77917 3.97918,2.7461l0.00354335 0 0.551582 -0.00826782 0.00590558 -0.00236223 0.203152 0 20.6329 0 0.119293 0.0165356zm0.668512 1.5638c-0.21142,-0.272838 -0.50788,-0.479533 -0.844499,-0.578747l-20.5762 0 -0.203152 0 0 -0.00236223 -0.542133 0.00826782 -0.00354335 0c-2.1768,0.0425202 -3.83863,-1.01576 -4.90164,-3.32484l-0.00590558 -0.0141734 -0.00118112 -0.00236223c-0.374414,-0.806703 -0.700402,-1.51065 -1.32167,-1.66301l-16.2911 0.0248035c-1.00985,0.24331 -1.73624,3.10043 -2.64806,3.90241 -1.44687,1.27088 -2.62917,1.12088 -4.50124,1.10907l0 0.00236223 -0.0153545 0 0 -0.00236223c-0.448824,0 -0.863396,0.188979 -1.16222,0.487801l-0.00118112 -0.00118112c-0.300004,0.300004 -0.48662,0.715757 -0.490164,1.16694l0.00236223 0 0 0.0153545 -0.0248035 40.8607c0,0.439375 0.173624,0.843317 0.453549,1.14096 0.282287,0.301185 0.67678,0.499612 1.11143,0.525597l0.101576 0 5.34337 0 6.85048 0 5.92684 -0.0248035 27.0877 0 5.34455 0c0.458273,0 0.876389,-0.188979 1.17639,-0.488982 0.301185,-0.301185 0.488982,-0.7193 0.488982,-1.17757l0 -40.9375c0,-0.386225 -0.132285,-0.745285 -0.351973,-1.02639l-0.00118112 0z"/>
  <path class="fil13" d="M59.1173 20.881l0 37.9245c0,1.19057 -0.946075,2.16735 -2.10003,2.16735l-5.17802 0 -27.8224 0 -6.1359 0 -6.6367 0 -5.17802 0 -0.127561 0 0 -0.00472447c-1.09608,-0.0685048 -1.97247,-1.01576 -1.97247,-2.16263l0 -37.9268 55.1511 0.00236223z"/>
  <path class="fil14" d="M3.01539 20.751c-1.03702,0.251578 -2.76736,1.04411 -2.4709,3.51382 0.418115,3.4902 1.8142,16.6136 1.8142,19.5451 0,2.93153 0.139372,13.9738 0.139372,13.9738 0,0 -0.278744,4.18942 4.60754,3.91068 3.6591,-0.210239 14.4864,-0.180711 19.6325,-0.154726l0 0.0177168 1.66183 -0.00826782 0.0236223 0 1.13978 0.00826782 0 -0.0129923c6.75835,-0.0271657 23.5881,-0.0696859 27.4692,0.152364 4.88628,0.278744 4.60754,-3.91068 4.60754,-3.91068 0,0 0.139372,-11.0423 0.139372,-13.9738 0,-2.93153 1.39608,-16.0549 1.8142,-19.5451 0.29646,-2.46972 -1.43388,-3.26224 -2.47208,-3.51382l-58.1062 -0.00236223z"/>
  <g id="_49574968">
   <polygon id="_75629696" class="fil15" points="4.37131,18.2258 59.2578,18.2258 59.2578,20.881 4.37131,20.8786 "/>
   <g>
    <polygon id="_73917000" class="fil16" points="4.37131,18.4538 59.2578,18.4538 59.2578,20.881 4.37131,20.8786 "/>
    <polygon id="_72685464" class="fil17" points="4.37131,18.6817 59.2578,18.6817 59.2578,20.881 4.37131,20.8786 "/>
    <polygon id="_49764296" class="fil18" points="4.37131,18.9097 59.2578,18.9097 59.2578,20.881 4.37131,20.8786 "/>
    <polygon id="_72677136" class="fil19" points="4.37131,19.1388 59.2578,19.1388 59.2578,20.881 4.37131,20.8786 "/>
    <polygon id="_72543800" class="fil20" points="4.37131,19.3668 59.2578,19.3668 59.2578,20.881 4.37131,20.8786 "/>
    <polygon id="_71844144" class="fil21" points="4.37131,19.5959 59.2578,19.5959 59.2578,20.881 4.37131,20.8786 "/>
    <polygon id="_76103648" class="fil22" points="4.37131,19.8227 59.2578,19.8227 59.2578,20.881 4.37131,20.8786 "/>
    <polygon id="_49806112" class="fil23" points="4.37131,20.0518 59.2578,20.0518 59.2578,20.881 4.37131,20.8786 "/>
   </g>
   <polygon id="_48909112" class="fil24" points="4.37131,20.2798 59.2578,20.2798 59.2578,20.881 4.37131,20.8786 "/>
  </g>
  <path class="fil25" d="M3.22091 20.9483c-0.805522,0.194884 -2.02207,0.715757 -2.39412,2.08585 -0.12638,0.318902 -0.205514,0.692135 -0.212601,1.12679 0.0259846,-0.144096 0.0614181,-0.279925 0.103938,-0.408666l-0.00354335 0.105119c0.0153545,-0.0874027 0.0354335,-0.171262 0.0566936,-0.252759 0.455911,-1.14686 1.55317,-1.60278 2.29491,-1.78231l57.9846 0c0.98387,0.238586 2.59019,0.96261 2.50042,3.14413l0.0248035 -0.201971c0.0448824,-0.372052 0.0437013,-0.706308 0.00590558,-1.00631 0.0578747,0.269295 0.0838593,0.570479 0.0696859,0.904736l0.0248035 -0.201971c0.297641,-2.46972 -1.43388,-3.26106 -2.4709,-3.51264l-57.9846 0z"/>
  <path class="fil26" d="M60.361 59.3074l0.274019 0c-0.629535,1.00277 -1.86498,1.89687 -4.28864,1.75868 -1.93939,-0.111025 -7.11269,-0.157089 -12.638,-0.1689 -5.3729,-0.0141734 -10.1281,0.00236223 -13.5486,0.0153545l0 0.0153545 -0.308272 -0.00118112 -1.1386 -0.0106301 0 0.00236223 -0.0236223 0 0 -0.00236223 -1.66183 0.0106301 -0.308272 0.00118112 0 -0.0212601c-2.57247,-0.0118112 -6.37449,-0.0236223 -10.0041,-0.00944894 -3.76776,0.0165356 -7.47411,0.0614181 -9.30484,0.166537 -2.42129,0.13701 -3.65674,-0.755915 -4.28627,-1.75632l0.274019 0c-0.102757,-0.121655 -0.193703,-0.249216 -0.274019,-0.377957l0.790167 0c0.604732,0.696859 1.65238,1.24726 3.46303,1.1445 1.82837,-0.105119 5.54889,-0.148821 9.33555,-0.166537 3.77721,-0.0153545 7.74458,-0.00118112 10.3147,0.00944894l0.30709 0.00354335 0 0.0129923 1.35238 -0.0070867 0.00236223 0 0.0236223 0 0.00118112 0 0.832687 0.0070867 0 -0.00944894 0.305909 0c3.37799,-0.0129923 8.31743,-0.030709 13.8557,-0.0177168 5.54534,0.0141734 10.7316,0.0590558 12.6722,0.1689 1.8142,0.103938 2.86185,-0.446462 3.46776,-1.14568l0.786624 0c-0.0803159,0.128742 -0.172443,0.255121 -0.274019,0.377957z"/>
  <path class="fil27" d="M3.16067 21.051c-0.525597,0.133466 -1.22836,0.424021 -1.65829,1.03702 -0.305909,0.43347 -0.484258,1.05001 -0.38032,1.91931 0.250397,2.09294 0.862215,7.73159 1.30868,12.5482 0.291736,3.13941 0.511424,5.90322 0.511424,7.05599 0,1.83546 0.13701,14.0494 0.13701,14.1687l-0.00236223 0.0519691c0,0.00826782 -0.236223,3.60949 4.0843,3.36264l49.6199 0.00354335c4.31934,0.246853 4.0843,-3.35437 4.0843,-3.36264l-0.00236223 -0.0519691c0,-0.119293 0.13701,-12.3368 0.13701,-14.1699 0,-1.15277 0.219688,-3.91776 0.511424,-7.05954 0.446462,-4.81541 1.0571,-10.4505 1.3075,-12.5435 0.103938,-0.868121 -0.0744104,-1.48703 -0.38032,-1.9205 -0.429927,-0.611819 -1.13033,-0.902373 -1.65356,-1.03584l-57.6243 -0.00354335zm-2.47562 0.462998c0.62363,-0.8882 1.60159,-1.27797 2.29727,-1.44569l0.116931 -0.0141734 57.7424 0.00354335 0.115749 0.0141734c0.696859,0.166537 1.67364,0.556306 2.29845,1.44451 0.434651,0.617724 0.693316,1.46458 0.555125,2.61263 -0.25394,2.13192 -0.869302,7.78474 -1.3075,12.5151 -0.28583,3.08272 -0.501975,5.80991 -0.501975,6.96977 0,4.02643 -0.140553,14.0541 -0.141734,14.1769 0.0165356,0.513786 -0.0118112,4.6973 -5.13313,4.40438l-49.5112 -0.00354335c-5.12132,0.292917 -5.14967,-3.8906 -5.13313,-4.40438 -0.00118112,-0.122836 -0.141734,-10.1505 -0.141734,-14.1758 0,-1.15986 -0.216144,-3.88587 -0.501975,-6.96623 -0.438194,-4.73155 -1.05474,-10.3891 -1.30868,-12.5198 -0.138191,-1.14805 0.120474,-1.99373 0.555125,-2.61145z"/>
  <path class="fil28" d="M32.0591 24.7515c8.83475,0 16.0502,7.46702 16.0502,16.303 0,8.83475 -7.16466,15.9994 -16.0006,15.9994 -8.83475,0 -15.9994,-7.16466 -15.9994,-15.9994 0,-8.83594 7.11387,-16.303 15.9498,-16.303zm8.92334 15.6132c0.0070867,3.61422 -0.020079,6.85875 -0.020079,10.4895 0,0.274019 -0.225593,0.50788 -0.499612,0.501975 -1.77876,-0.0212601 -3.65319,0 -5.43432,0 0,-2.39058 -0.0342524,-5.01384 -0.0342524,-7.37608l-0.00236223 -0.0968516c0.00118112,-0.0685048 0,-0.135828 -0.00472447,-0.199609l0 -0.284649c0,-0.276381 -0.226774,-0.501975 -0.500794,-0.501975l-0.354335 0 0 0.00590558 -4.26738 -0.00236223 0 -0.00590558 -0.355516 0c-0.274019,0 -0.499612,0.225593 -0.499612,0.501975l0 0.450006 0.0484258 7.57096c-1.7138,-0.0673237 -3.9154,-0.0153545 -5.62212,-0.0153545 -0.2752,0 -0.474809,-0.20079 -0.474809,-0.47599 0,-0.315358 -0.00826782,-0.631898 -0.00826782,-0.947256l0 -0.00472447 0.0448824 -9.60839 9.02255 -7.7434 8.9694 7.71624 -0.0070867 0.0259846zm-20.001 0.548038c-0.282287,-0.431108 -0.47599,-1.53427 -0.0295279,-1.91813l2.04215 -1.82364 -0.0590558 -4.39612c-0.0070867,-0.213782 0.292917,-0.41221 0.525597,-0.41221l2.64452 0c0.233861,0 0.504337,0.166537 0.531503,0.376776l0.0153545 1.33939 4.65242 -4.01225c0.438194,-0.512605 1.18112,-0.512605 1.62049,0l10.3513 8.92806c0.447643,0.386225 0.223231,1.45041 -0.0519691,1.89687l-10.7423 -9.19263 -0.472447 -0.405123 -0.466541 0.407485 -10.5615 9.21153z"/>
  <path class="fil29" d="M42.1411 41.2765l0 0.0838593 -0.995682 -0.995682 0.0070867 -0.0259846 -9.1324 -7.71624 -8.85956 7.74222 -0.00118112 0 -0.843317 0.980327c-0.0389769,-0.00826782 -0.090946,-0.00236223 -0.155907,0.0188979l0 -0.155907 -0.258665 0.224412c-0.689772,0.138191 -0.820876,-0.261027 -0.814971,-0.610637l10.4564 -9.12058 0.466541 -0.407485 0.472447 0.405123 10.584 9.0568c-0.0980327,0.263389 -0.321264,0.571661 -0.825601,0.605913l-0.0992138 -0.0850404z"/>
  <path class="fil30" d="M20.8255 39.1481l2.27719 -1.81774 -0.0377957 0.734655 0.0165356 0.419296 -2.14373 1.84845c-0.0555125,0.0472447 -0.100395,0.106301 -0.13701,0.172443 -0.135828,-0.437013 -0.175986,-1.01576 0.0248035,-1.3571zm6.40047 -5.56424l0.00590558 0.00472447 3.35319 -2.89137 0.0649614 -0.0661425 0.0106301 -0.0106301 0.643709 -0.553944c0.438194,-0.512605 1.18112,-0.512605 1.62049,0l0.438194 0.377957c0.0236223,0.030709 0.0472447,0.0578747 0.0685048,0.0755915l-0.00118112 0.00118112c0.0685048,0.0578747 0.129923,0.118112 0.185435,0.175986l9.77256 8.42845c0.217326,0.341343 0.157089,0.931901 0.00944894,1.37718 -0.0354335,-0.0649614 -0.0803159,-0.122836 -0.135828,-0.170081l-10.3513 -8.92806c-0.439375,-0.512605 -1.1823,-0.512605 -1.62049,0l-8.18868 7.24851 -0.0295279 -1.30041 4.15399 -3.76894z"/>
  <path class="fil31" d="M41.8257 41.2493c0.00118112,1.64293 -0.00472447,3.22091 -0.00944894,4.80833 -0.00236223,1.01812 -0.0070867,1.17403 -0.0070867,4.27801l0 0.0106301 -0.00354335 0.0153545c-0.00472447,0.255121 -0.0732292,0.498431 -0.187798,0.707489l-0.787805 -0.787805 -0.020079 -0.00118112c0,-3.60831 0.0271657,-6.43118 0.020079,-10.0265l0.995682 0.995682zm-18.9805 -0.995682l-0.00118112 0.00118112 -0.0448824 9.2009 0 0.00472447c0,0.315358 0.00826782,0.631898 0.00826782,0.947256 0,0.236223 0.14764,0.416934 0.361422,0.464179l-0.570479 0.846861c-0.134647,-0.0661425 -0.251578,-0.153545 -0.361422,-0.26457l-0.00236223 0.00236223c-0.268114,-0.268114 -0.426383,-0.633079 -0.426383,-1.04883l0.00354335 0 -0.00826782 -0.938988 -0.00354335 -0.00826782 0 -0.00472447 0.00354335 -0.00354335 0.040158 -8.03514 1.00041 -1.1634 0.00118112 0zm11.9895 11.5797l-0.996863 0.00236223 0.00118112 -0.998044 -0.00354335 -6.58709 0.985051 -0.985051 0.00236223 0.0496069 0 0.284649c0.00472447,0.0637803 0.00590558,0.131104 0.00472447,0.20079l0.00354335 0.0968516 0.00354335 6.90008 -0.699221 1.03702 0.699221 -0.00118112zm-4.67604 -8.01978l-0.31772 0 0.0188979 7.08552 0.00236223 0.961429 -0.998044 -0.998044 0 0.0366146 -0.0188979 -7.13631 0 -0.450006c0,-0.114568 0.040158,-0.220869 0.105119,-0.304728l1.20828 0.805522z"/>
  <path class="fil29" d="M28.9185 43.1521l1.20828 0.805522 3.67327 0.00236223 0 0.00826782 0 0.0118112 0.00354335 0.0956705 0 0.318902 0.985051 -0.985051c-0.0259846,-0.252759 -0.240948,-0.451187 -0.49725,-0.451187l-0.354335 0 0 0.00590558 -4.26856 -0.00236223 0 -0.00590558 -0.355516 0c-0.159451,0 -0.302366,0.0767726 -0.394493,0.196065z"/>
  <path class="fil32" d="M29.8539 51.9727l0 0.0744104 -1.03348 -0.040158c-1.20001,-0.0460636 -2.61736,-0.0342524 -3.93666,-0.0248035l-0.00472447 0 -1.60159 0.00944894 -0.00354335 0.00354335c-0.248035,0 -0.479533,-0.0578747 -0.683867,-0.164175l0.570479 -0.846861c0.0354335,0.0070867 0.0744104,0.0118112 0.113387,0.0118112 1.70671,0 3.86816,-0.0519691 5.58196,0.0153545l0 -0.0366146 0.998044 0.998044zm11.7557 -0.791348c-0.0673237,0.122836 -0.151183,0.23268 -0.248035,0.329532l-0.00236223 -0.00236223c-0.262208,0.26457 -0.635441,0.438194 -1.04647,0.437013l0 0.00354335 -0.0106301 0 -0.0118112 -0.00354335c-1.18584,-0.0129923 -2.43664,-0.00826782 -3.66264,-0.00472447l-1.8012 0.00472447 -0.699221 0.00118112 0.699221 -1.03702 0 0.040158c1.78112,0 3.6969,-0.0212601 5.47566,0 0.274019,0.00590558 0.499612,-0.227956 0.499612,-0.501975l0 -0.0555125 0.020079 0.00118112 0.787805 0.787805z"/>
  <path class="fil33" d="M23.0578 32.013l3.21382 0c0.146458,0.0661425 0.265751,0.184254 0.283468,0.320083l0.00826782 0.681504 -3.6839 0 -0.0236223 -0.670874c-0.00590558,-0.140553 0.0779537,-0.263389 0.201971,-0.330713z"/>
  <polygon class="fil34" points="22.8853,32.2445 22.8853,37.3457 21.8837,38.1867 21.8837,32.2445 "/>
  <polygon class="fil35" points="23.1593,40.393 28.7283,35.4996 32.0071,32.6331 32.3284,32.9189 41.1466,40.3623 41.1454,40.3647 41.1466,41.0556 40.8348,41.4064 31.9965,33.9607 23.2597,41.6344 23.1534,41.5151 "/>
  <polygon class="fil36" points="24.0357,39.9324 24.0357,50.8081 23.0341,50.8081 23.0341,40.7627 "/>
  <polygon class="fil36" points="39.8627,40.0139 39.8627,50.6865 40.8643,50.6865 40.8643,40.8288 "/>
  <path class="fil37" d="M32.1087 24.194c9.22689,0 16.7081,7.48119 16.7081,16.7081 0,9.22807 -7.48119,16.7093 -16.7081,16.7093 -9.22689,0 -16.7093,-7.48119 -16.7093,-16.7093 0,-9.22689 7.48238,-16.7081 16.7093,-16.7081zm0 0.504337c8.94814,0 16.2049,7.2556 16.2049,16.2037 0,8.94932 -7.25678,16.2049 -16.2049,16.2049 -8.94932,0 -16.2049,-7.2556 -16.2049,-16.2049 0,-8.94814 7.2556,-16.2037 16.2049,-16.2037z"/>
  <path class="fil38" d="M32.1087 24.6983c8.94814,0 16.2049,7.2556 16.2049,16.2037 0,8.94932 -7.25678,16.2049 -16.2049,16.2049 -8.94932,0 -16.2049,-7.2556 -16.2049,-16.2049 0,-8.94814 7.2556,-16.2037 16.2049,-16.2037zm10.7505 5.4544c-2.75082,-2.75082 -6.55402,-4.45517 -10.7505,-4.45517 -4.19769,0 -8.00089,1.70199 -10.7529,4.45163l0.00236223 0.00236223c-2.75082,2.75082 -4.45517,6.55402 -4.45517,10.7505 0,4.20005 1.70199,8.00325 4.45045,10.7505l0.00472447 0c2.75082,2.75082 6.55402,4.45517 10.7505,4.45517 4.19651,0 7.9997,-1.70435 10.7505,-4.45517 2.75082,-2.75082 4.45517,-6.55402 4.45517,-10.7505 0,-4.20005 -1.70199,-8.00207 -4.45045,-10.7493l-0.00472447 0z"/>
 </g>
</svg>
