<?xml version="1.0" encoding="UTF-8" standalone="no"?>
<!-- Creator: CorelDRAW -->

<svg
   xmlns:dc="http://purl.org/dc/elements/1.1/"
   xmlns:cc="http://creativecommons.org/ns#"
   xmlns:rdf="http://www.w3.org/1999/02/22-rdf-syntax-ns#"
   xmlns:svg="http://www.w3.org/2000/svg"
   xmlns="http://www.w3.org/2000/svg"
   xmlns:xlink="http://www.w3.org/1999/xlink"
   xmlns:sodipodi="http://sodipodi.sourceforge.net/DTD/sodipodi-0.dtd"
   xmlns:inkscape="http://www.inkscape.org/namespaces/inkscape"
   xml:space="preserve"
   width="24px"
   height="24px"
   style="shape-rendering:geometricPrecision; text-rendering:geometricPrecision; image-rendering:optimizeQuality; fill-rule:evenodd; clip-rule:evenodd"
   viewBox="0 0 24 24"
   id="svg3366"
   version="1.1"
   inkscape:version="0.48.1 r9760"
   sodipodi:docname="folder-remote.svg"><metadata
   id="metadata3445"><rdf:RDF><cc:Work
       rdf:about=""><dc:format>image/svg+xml</dc:format><dc:type
         rdf:resource="http://purl.org/dc/dcmitype/StillImage" /><dc:title></dc:title></cc:Work></rdf:RDF></metadata><sodipodi:namedview
   pagecolor="#ffffff"
   bordercolor="#666666"
   borderopacity="1"
   objecttolerance="10"
   gridtolerance="10"
   guidetolerance="10"
   inkscape:pageopacity="0"
   inkscape:pageshadow="2"
   inkscape:window-width="640"
   inkscape:window-height="480"
   id="namedview3443"
   showgrid="false"
   inkscape:zoom="12.583333"
   inkscape:cx="12"
   inkscape:cy="12"
   inkscape:window-x="0"
   inkscape:window-y="24"
   inkscape:window-maximized="0"
   inkscape:current-layer="svg3366" />
 <defs
   id="defs3368">
  <style
   type="text/css"
   id="style3370">
   
    .fil9 {fill:#6897BD;fill-rule:nonzero}
    .fil1 {fill:#B1B5B8;fill-rule:nonzero}
    .fil2 {fill:white;fill-rule:nonzero}
    .fil7 {fill:#0F172E;fill-opacity:0.121569}
    .fil6 {fill:#0F172E;fill-opacity:0.219608}
    .fil12 {fill:#4D708C;fill-opacity:0.439216}
    .fil10 {fill:#4C789C;fill-rule:nonzero;fill-opacity:0.439216}
    .fil5 {fill:#B0E2FC;fill-rule:nonzero;fill-opacity:0.780392}
    .fil4 {fill:url(#id0)}
    .fil13 {fill:url(#id1)}
    .fil14 {fill:url(#id2)}
    .fil11 {fill:url(#id3)}
    .fil0 {fill:url(#id4)}
    .fil8 {fill:url(#id5);fill-rule:nonzero}
    .fil3 {fill:url(#id6);fill-rule:nonzero}
   
  </style>
  <linearGradient
   id="id0"
   gradientUnits="userSpaceOnUse"
   x1="11.9535"
   y1="7.31883"
   x2="12.2041"
   y2="22.5563">
   <stop
   offset="0"
   style="stop-color:#5589C4"
   id="stop3373" />
   <stop
   offset="0.101961"
   style="stop-color:#649FCF"
   id="stop3375" />
   <stop
   offset="0.909804"
   style="stop-color:#9FCFF5"
   id="stop3377" />
   <stop
   offset="1"
   style="stop-color:#8BBEE8"
   id="stop3379" />
  </linearGradient>
  <linearGradient
   id="id1"
   gradientUnits="userSpaceOnUse"
   x1="10.5909"
   y1="7.69442"
   x2="13.4488"
   y2="21.6433">
   <stop
   offset="0"
   style="stop-color:#5589C4"
   id="stop3382" />
   <stop
   offset="0.0705882"
   style="stop-color:#5795C9"
   id="stop3384" />
   <stop
   offset="0.141176"
   style="stop-color:#649FCF"
   id="stop3386" />
   <stop
   offset="1"
   style="stop-color:#9FD0F5"
   id="stop3388" />
  </linearGradient>
  <linearGradient
   id="id2"
   gradientUnits="userSpaceOnUse"
   xlink:href="#id1"
   x1="10.9302"
   y1="7.81405"
   x2="13.7025"
   y2="21.3439">
  </linearGradient>
  <linearGradient
   id="id3"
   gradientUnits="userSpaceOnUse"
   x1="12.0111"
   y1="10.9183"
   x2="12.1562"
   y2="19.2063">
   <stop
   offset="0"
   style="stop-color:#5981A3"
   id="stop3392" />
   <stop
   offset="1"
   style="stop-color:#76A4CC"
   id="stop3394" />
  </linearGradient>
  <linearGradient
   id="id4"
   gradientUnits="userSpaceOnUse"
   x1="11.4404"
   y1="4.01587"
   x2="12.5272"
   y2="12.665">
   <stop
   offset="0"
   style="stop-color:#EBEBEB"
   id="stop3397" />
   <stop
   offset="1"
   style="stop-color:#B2B2B2"
   id="stop3399" />
  </linearGradient>
  <linearGradient
   id="id5"
   gradientUnits="userSpaceOnUse"
   x1="12.1383"
   y1="21.2274"
   x2="11.9354"
   y2="8.65963">
   <stop
   offset="0"
   style="stop-color:#567FA3"
   id="stop3402" />
   <stop
   offset="1"
   style="stop-color:#6494BA"
   id="stop3404" />
  </linearGradient>
  <linearGradient
   id="id6"
   gradientUnits="userSpaceOnUse"
   x1="11.9813"
   y1="10.0795"
   x2="11.9813"
   y2="6.7346">
   <stop
   offset="0"
   style="stop-color:#949494"
   id="stop3407" />
   <stop
   offset="1"
   style="stop-color:#ABABAB"
   id="stop3409" />
  </linearGradient>
 </defs>
 <g
   id="Слой_x0020_1">
  <metadata
   id="CorelCorpID_0Corel-Layer" />
  <path
   class="fil0"
   d="M2.44717 4.35122l0.923818 0c0.26986,-0.132379 0.434555,-0.429452 0.670682,-0.940543 0.187655,-0.407058 0.359719,-1.06895 0.80788,-1.06895 2.01091,0 3.89937,0 5.91057,0 0.448161,0 0.593013,0.661895 0.781801,1.06895 0.290837,0.630714 0.662178,0.859471 1.08086,0.940543l8.89802 0c0.54454,0 0.989866,0.445893 0.989866,0.989866l0 8.00822c0,0.543689 -0.446177,0.989866 -0.989866,0.989866l-19.0736 0c-0.543689,0 -0.989866,-0.445326 -0.989866,-0.989866l0 -8.00822c0,-0.572886 0.429169,-0.989866 0.989866,-0.989866z"
   id="path3413" />
  <polygon
   class="fil1"
   points="1.26143,6.9285 1.23903,6.93473 1.24895,6.16994 22.183,6.1243 22.2402,6.36298 22.2366,6.88201 "
   id="polygon3415" />
  <path
   class="fil2"
   d="M1.84395 4.77982c0.0490398,-0.0586776 1.31869,-0.244348 1.3751,-0.366523 0.0252285,-0.0549926 0.0581107,-0.135214 0.0915598,-0.217419l0.00198427 0c0.216285,-0.529516 0.466303,-1.14265 1.1676,-1.14265l5.91057 0c0.696761,0 0.927787,0.58791 1.13387,1.11487 0.0323152,0.0824888 0.0640635,0.34753 0.101198,0.427468l0 0.00198427c0.110552,0.24038 0.228474,0.264191 0.351499,0.363121 0.0972291,0.0782368 0.206931,0.125009 0.324853,0.152789l8.84927 0c0.409893,0 0.782935,0.167812 1.05251,0.437389 0.269577,0.269577 0.437389,0.642619 0.437389,1.05251l0 7.82397c0,0.408759 -0.167812,0.780384 -0.437389,1.05053l-0.00198427 0.00198427c-0.270144,0.269577 -0.641769,0.437389 -1.05053,0.437389l-18.0894 0 0 -1.00007 18.0894 0c0.134363,0 0.256821,-0.0547091 0.345546,-0.1423l0.00198427 -0.00198427c0.0875912,-0.0887251 0.1423,-0.211183 0.1423,-0.345546l0 -7.82397c0,-0.13408 -0.0555595,-0.256821 -0.144285,-0.345546 -0.0887251,-0.0887251 -0.211466,-0.144285 -0.345546,-0.144285l-8.89802 0 -0.0938275 -0.00963787c-0.2829,-0.0547091 -0.553611,-0.346396 -0.80703,-0.550209 -0.239246,-0.192474 -0.45298,-0.465452 -0.632414,-0.854369l-0.0008504 0.000283467c-0.0394019,-0.0847566 -0.0816384,-0.19219 -0.124442,-0.301609 -0.0881582,-0.225923 -0.187372,-0.344696 -0.204096,-0.344696l-5.91057 0c-0.034016,0 -0.147403,0.144001 -0.245482,0.383814l0.0017008 0.000566934c-0.0345829,0.0853235 -0.0688824,0.168946 -0.110836,0.259939 -0.128694,0.278364 -0.240096,0.50202 -0.361704,0.682588 -0.152505,0.22564 -1.53922,0.502303 -1.76146,0.610871l-0.158458 0.038268 0 -1.24952z"
   id="path3417" />
  <path
   class="fil3"
   d="M3.22075 3.98469c0.0266459,-0.0274963 0.0544256,-0.0632131 0.0841896,-0.107434 0.0867408,-0.128694 0.176316,-0.310396 0.283467,-0.541989 0.0252285,-0.0549926 0.0581107,-0.135214 0.0915598,-0.217419l0.00198427 0c0.216285,-0.529516 0.466303,-1.14265 1.1676,-1.14265l5.91057 0c0.696761,0 0.927787,0.772164 1.13387,1.29913 0.0323152,0.0824888 0.0640635,0.163277 0.101198,0.243215l0 0.00198427c0.110552,0.24038 0.228474,0.397704 0.351499,0.496634 0.0972291,0.0782368 0.206931,-0.008504 0.324853,0.0192757l8.60378 0c1.14436,0 1.766,0.734462 1.766,1.85869l-0.0306144 7.45518c0,0.408759 -0.167812,0.780384 -0.437389,1.05053l-0.00198427 0.00198427c-0.270144,0.269577 -0.641769,0.437389 -1.05053,0.437389l-19.0736 0c-0.409893,0 -0.782935,-0.167812 -1.05251,-0.437389 -0.269577,-0.269577 -0.437389,-0.642619 -0.437389,-1.05251l0 -7.70094c-0.0357168,-1.25973 1.15343,-1.70874 2.26348,-1.66367zm0.150237 0.866558l-0.923818 0c-0.145135,0 -0.270144,0.0507406 -0.355467,0.135214l0.0008504 0.00113387c-0.0839062,0.0839062 -0.135214,0.514776 -0.135214,0.660761l0 7.70094c0,0.13408 0.0555595,0.256821 0.144285,0.345546 0.0887251,0.0887251 0.211466,0.144285 0.345546,0.144285l19.0736 0c0.134363,0 0.256821,-0.0547091 0.345546,-0.1423l0.00198427 -0.00198427c0.0875912,-0.0887251 0.1423,-0.211183 0.1423,-0.345546l0.0306144 -7.45518c0,-0.581107 -0.172631,-0.858621 -0.765927,-0.858621l-8.65254 0 -0.0938275 -0.00963787c-0.2829,-0.0547091 -0.553611,-0.162143 -0.80703,-0.365956 -0.239246,-0.192474 -0.45298,-0.516193 -0.632414,-0.905109l-0.0008504 0.000283467c-0.0394019,-0.0847566 -0.0816384,-0.19219 -0.124442,-0.301609 -0.0881582,-0.225923 -0.187372,-0.478208 -0.204096,-0.478208l-5.91057 0c-0.034016,0 -0.147403,0.277514 -0.245482,0.517327l0.0017008 0.000566934c-0.0345829,0.0853235 -0.0688824,0.168946 -0.110836,0.259939 -0.128694,0.278364 -0.240096,0.50202 -0.361704,0.682588 -0.152505,0.22564 -0.321168,0.25427 -0.543406,0.362838l-0.218836 0.0527248z"
   id="path3419" />
  <path
   class="fil4"
   d="M1.64127 7.4308l20.8751 -0.0762526c1.08568,-0.00396854 1.05988,0.318333 1.05988,1.40146l0 12.5564c0,1.08398 -0.509106,1.17072 -1.59308,1.17242l-19.6947 0.0379846c-1.08398,0.0017008 -1.62937,-0.163277 -1.63135,-0.867125l-0.0379846 -12.8238c-0.00283467,-1.08568 -0.0634966,-1.39721 1.02218,-1.40118z"
   id="path3421" />
  <path
   class="fil5"
   d="M22.9761 9.38445c0.157041,-1.11969 -0.698462,-1.58628 -1.86323,-1.38133l-2.11693 0 -16.114 0c-1.16477,-0.204946 -2.02027,0.26164 -1.86323,1.38133 0,0.333357 -0.0189923,0.285168 -0.0189923,0.618525 0.2486,-0.831692 0.481894,-0.966905 1.9392,-0.999787l16.057 0 2.05995 0c1.4573,0.0328821 1.6906,0.168096 1.9392,0.999787 0,-0.333357 -0.0189923,-0.285168 -0.0189923,-0.618525z"
   id="path3423" />
  <polygon
   class="fil6"
   points="0.388633,22.6949 24.3081,22.6949 24.3081,23.5847 0.388633,23.5847 "
   id="polygon3425" />
  <polygon
   class="fil7"
   points="0.0459216,22.0004 23.9654,22.0004 23.9654,23.0002 0.0459216,23.0002 "
   id="polygon3427" />
  <path
   class="fil8"
   d="M22.5597 6.86528c1.22656,0.0841896 1.30338,0.499752 1.40004,1.81702l0.00198427 0 0 0.0737014 0 12.5564c0,0.74325 -0.207214,1.16391 -0.634115,1.41989 -0.365672,0.218836 -0.834243,0.249734 -1.459,0.250585l-19.5802 0.0379846c-0.613139,0.0008504 -1.08738,-0.0513075 -1.43434,-0.215718 -0.4612,-0.218553 -0.693927,-0.577138 -0.695061,-1.14946l-0.0379846 -12.8218 -0.0008504 -0.161576c-0.0059528,-1.14265 -0.00822054,-1.59762 0.940259,-1.71016l0 2.15095 0.0575438 0 0.0371342 12.5426c0.000283467,0.130678 0.04252,0.208065 0.124725,0.2469 0.197009,0.0932606 0.538587,0.122741 1.00857,0.122174l19.5802 -0.0379846c0.458366,-0.000566934 0.787471,-0.0144568 0.947063,-0.109985 0.0980795,-0.0586776 0.145985,-0.223655 0.145985,-0.564382l0 -12.5564 0 -0.0737014 0.00198427 0c-0.085607,-0.315215 -0.193324,-0.522713 -0.40394,-0.707817l0 -1.10921z"
   id="path3429" />
  <path
   class="fil9"
   d="M1.64127 6.93275l20.7605 -0.0762526 0.157891 0.00878747 0 1.10921c-0.0470555,-0.0413862 -0.0994968,-0.0819219 -0.157891,-0.121891l-20.7605 0.0762526c-0.528382,0.0017008 -0.527815,0.169797 -0.524981,0.739565l0.0008504 0.161576 0 0.00198427 0.0008504 0.281199 -0.0575438 0 0 -2.15095c0.163844,-0.0195592 0.355467,-0.0286301 0.580823,-0.0294805z"
   id="path3431" />
  <path
   class="fil10"
   d="M22.6357 22.9475c-0.226207,0.0283467 -0.480193,0.0351499 -0.767061,0.0354333l-19.5802 0.0379846c-0.287435,0.000283467 -0.54454,-0.0107717 -0.772164,-0.0399688l0 -1.00659c0.195309,0.0374176 0.454397,0.0507406 0.772164,0.0504571l19.5802 -0.0379846c0.325987,-0.000283467 0.586493,-0.00793707 0.767061,-0.0462051l0 1.00687z"
   id="path3433" />
  <path
   class="fil11"
   d="M12.0836 10.094c2.49281,0 4.55815,1.83772 4.9139,4.23188l0 0.848983 0 0.62391c-0.355751,2.39416 -2.42109,4.23188 -4.9139,4.23188 -2.74339,0 -4.96832,-2.22493 -4.96832,-4.96832 0,-2.74339 2.22493,-4.96832 4.96832,-4.96832zm4.9139 4.23188c0.0357168,0.240096 0.0544256,0.485862 0.0544256,0.736447 0,0.250585 -0.0187088,0.49635 -0.0544256,0.736447l0 -1.47289z"
   id="path3435" />
  <path
   class="fil12"
   d="M12.0836 10.094c2.49281,0 4.55815,1.83772 4.9139,4.23188l0 0.479059c0.0198427,0.0745518 0.0379846,0.149387 0.0544256,0.225356 -0.0017008,-0.239529 -0.0201261,-0.474523 -0.0544256,-0.704415l0 0.479059c-0.567501,-2.1192 -2.50188,-3.68053 -4.79966,-3.68053 -2.74339,0 -4.96832,2.22493 -4.96832,4.96832l0.000566934 0.034016c-0.0748352,-0.342995 -0.114804,-0.699029 -0.114804,-1.06442 0,-2.74339 2.22493,-4.96832 4.96832,-4.96832z"
   id="path3437" />
  <path
   class="fil13"
   d="M11.9042 15.0708l0.164127 -0.190206 0.136914 -0.185954 0.480193 -0.197576 0.125009 0.187938 0.325136 -0.132096 0.350365 0.043087 0.300191 0.160726 0.517043 0.0456382 0.264475 0.193891 0.242364 0.238963 0.23301 0.171497 0.401672 0.00708667 0.201261 -0.0306144 0.055276 0.0887251 0.195025 0.0113387 0.0918432 0.427184 -0.26901 0.220821 -0.00708667 0.49635 -0.128127 0.336759 -0.139466 0.352916 -0.414712 0.173482 -0.0527248 0.379562c0,0 -0.492665,0.751187 -0.682305,0.862589 -0.189923,0.111686 -0.508823,0.36709 -0.508823,0.36709l-0.160159 0.314365 -0.265325 0.317483 -0.0453547 0.00907094 -0.1766 -0.183686 0.0513075 -0.29764 0.0484728 -0.407625 -0.0487563 -0.405924 0.0150237 -0.719155 -0.166678 -0.278081c0,0 -0.244348,0.0238112 -0.399121,-0.0907094 -0.155623,-0.113954 -0.515059,-0.570052 -0.515059,-0.570052l-0.316632 -0.269293 -0.0093544 -0.245766 0.00283467 -0.344979 0.283467 -0.30501 -0.215718 -0.422366 0.0360003 -0.129828z"
   id="path3439" />
  <path
   class="fil14"
   d="M10.8984 10.6391c0.0283467,-0.00793707 0.0561264,-0.0161576 0.0830558,-0.0232443l0.385798 0.0683155 0.102048 -0.0705832 -0.173198 -0.0702998c0.184253,-0.0342995 0.366239,-0.0569768 0.549359,-0.0700163l-0.0229608 0.0802211 0.446744 0.0762526 -0.524981 0.0833392 -0.151088 0.138899 0.269293 0.127844 0.355467 0.185104c-0.832542,0.739848 -0.165828,0.270427 -0.639501,1.24669l-0.339593 0.512791 -0.191624 0.26164 -0.125859 0.324286 0.000283467 0.0008504 -0.380412 0.0130395 -0.0235277 0.103465 0.0737014 0.211183 0.288286 0.19134 0.114237 0.0629296 0.335058 -0.164694 0.076536 0.16923 -0.0901424 0.0674651 -0.0912763 0.586776 0.339026 -0.0320317 0.11282 0.0365672 -0.203529 0.291687 -0.539154 -0.228758 -0.186521 -0.172915 -0.178301 0.0714336 -0.273262 -0.0450712c0,0 -0.167529,-0.130678 -0.205513,-0.11934 -0.038268,0.0107717 -0.22564,0.0986464 -0.22564,0.0986464l-0.691092 -0.163844 -0.0300475 -0.128977 -0.348664 -0.577705 -0.176033 -0.182836 0.0368507 0.222521 0.337609 0.40961 -0.142867 0.0260789 -0.378712 -0.409893 0.0357168 -0.352916 -0.192474 -0.0949614 0.0138899 -0.428885 0.255404 -0.539437 0.0269293 -0.175749c0.408476,-0.561548 0.949614,-1.03012 1.59507,-1.35327 0.220254,-0.104883 0.450996,-0.192757 0.692793,-0.262774z"
   id="path3441" />
 </g>
</svg>