<?xml version="1.0" encoding="UTF-8" standalone="no"?>
<!-- Created with Inkscape (http://www.inkscape.org/) -->

<svg
   xmlns:dc="http://purl.org/dc/elements/1.1/"
   xmlns:cc="http://creativecommons.org/ns#"
   xmlns:rdf="http://www.w3.org/1999/02/22-rdf-syntax-ns#"
   xmlns:svg="http://www.w3.org/2000/svg"
   xmlns="http://www.w3.org/2000/svg"
   xmlns:sodipodi="http://sodipodi.sourceforge.net/DTD/sodipodi-0.dtd"
   xmlns:inkscape="http://www.inkscape.org/namespaces/inkscape"
   width="72"
   height="72"
   id="svg2"
   version="1.1"
   inkscape:version="0.48.3.1 r9886"
   sodipodi:docname="72.svg">
  <defs
     id="defs4">
    <linearGradient
       gradientTransform="translate(27,35.626)"
       y2="-15.752"
       x2="0"
       y1="0"
       x1="0"
       gradientUnits="userSpaceOnUse"
       id="LinearGradient_15-10">
      <stop
         id="stop7370"
         stop-color="#cee9ff"
         offset="0" />
      <stop
         id="stop7372"
         stop-color="#68acf9"
         offset="1" />
    </linearGradient>
    <linearGradient
       gradientTransform="translate(31.875,30)"
       y2="-6.376"
       x2="0.375"
       y1="0"
       x1="0"
       gradientUnits="userSpaceOnUse"
       id="LinearGradient_14-7">
      <stop
         id="stop7365"
         stop-color="#88b9e6"
         offset="0" />
      <stop
         id="stop7367"
         stop-color="#6499d4"
         offset="1" />
    </linearGradient>
    <linearGradient
       gradientTransform="translate(23.251,35.626)"
       y2="-12.377"
       x2="-0.751"
       y1="0"
       x1="0"
       gradientUnits="userSpaceOnUse"
       id="LinearGradient_13-3">
      <stop
         id="stop7360"
         stop-color="#8fc4ff"
         offset="0" />
      <stop
         id="stop7362"
         stop-color="#4785b6"
         offset="1" />
    </linearGradient>
    <linearGradient
       gradientTransform="translate(28.5,36)"
       y2="-8.25"
       x2="0.75"
       y1="0"
       x1="0"
       gradientUnits="userSpaceOnUse"
       id="LinearGradient_12-8">
      <stop
         id="stop7355"
         stop-color="#c3e4ff"
         offset="0" />
      <stop
         id="stop7357"
         stop-color="#9ad2ff"
         offset="1" />
    </linearGradient>
    <linearGradient
       gradientTransform="translate(26.584,31.5)"
       y2="-12.12"
       x2="0.017"
       y1="0"
       x1="0"
       gradientUnits="userSpaceOnUse"
       id="LinearGradient_11-83">
      <stop
         id="stop7350"
         stop-color="#7ec3fa"
         offset="0" />
      <stop
         id="stop7352"
         stop-color="#5f9cdd"
         offset="1" />
    </linearGradient>
    <linearGradient
       gradientTransform="translate(26.609,36.359)"
       y2="-16.828"
       x2="0"
       y1="0"
       x1="0"
       gradientUnits="userSpaceOnUse"
       id="LinearGradient_10-77">
      <stop
         id="stop7345"
         stop-color="#69a2d1"
         offset="0" />
      <stop
         id="stop7347"
         stop-color="#558cb8"
         offset="1" />
    </linearGradient>
    <linearGradient
       gradientTransform="translate(25.77,16.979)"
       y2="21.335"
       x2="0"
       y1="0"
       x1="0"
       gradientUnits="userSpaceOnUse"
       id="LinearGradient_9-8">
      <stop
         id="stop7340"
         stop-color="#ffffff"
         offset="0" />
      <stop
         id="stop7342"
         stop-color="#dbdbdb"
         offset="1" />
    </linearGradient>
    <linearGradient
       gradientTransform="translate(35.571,19.607)"
       y2="17.571"
       x2="-1.714"
       y1="0"
       x1="0"
       gradientUnits="userSpaceOnUse"
       id="LinearGradient_8-0">
      <stop
         id="stop7335"
         stop-color="#7db3e4"
         offset="0" />
      <stop
         id="stop7337"
         stop-color="#7aacd4"
         offset="1" />
    </linearGradient>
    <linearGradient
       gradientTransform="translate(27.822,42.145)"
       y2="9.459"
       x2="0"
       y1="0"
       x1="0"
       gradientUnits="userSpaceOnUse"
       id="LinearGradient_7-8">
      <stop
         id="stop7328"
         stop-color="#5d90be"
         offset="0" />
      <stop
         id="stop7330"
         stop-color="#95c3f7"
         offset="0.652173936367035" />
      <stop
         id="stop7332"
         stop-color="#cee9ff"
         offset="1" />
    </linearGradient>
    <linearGradient
       gradientTransform="translate(50.443,38.444)"
       y2="-23.033"
       x2="-0.823"
       y1="0"
       x1="0"
       gradientUnits="userSpaceOnUse"
       id="LinearGradient_6-98">
      <stop
         id="stop7323"
         stop-color="#daedfc"
         offset="0" />
      <stop
         id="stop7325"
         stop-color="#b4deff"
         offset="1" />
    </linearGradient>
    <linearGradient
       gradientTransform="translate(5.612,41.322)"
       y2="-28.79"
       x2="1.646"
       y1="0"
       x1="0"
       gradientUnits="userSpaceOnUse"
       id="LinearGradient_5-43">
      <stop
         id="stop7318"
         stop-color="#a5d7fe"
         offset="0" />
      <stop
         id="stop7320"
         stop-color="#7fc3fc"
         offset="1" />
    </linearGradient>
    <linearGradient
       gradientTransform="translate(38.927,26.927)"
       y2="-17.274"
       x2="2.057"
       y1="0"
       x1="0"
       gradientUnits="userSpaceOnUse"
       id="LinearGradient_4-41">
      <stop
         id="stop7313"
         stop-color="#b6ddfc"
         offset="0" />
      <stop
         id="stop7315"
         stop-color="#9ad2ff"
         offset="1" />
    </linearGradient>
    <linearGradient
       gradientTransform="translate(26.177,52.016)"
       y2="-16.451"
       x2="0"
       y1="0"
       x1="0"
       gradientUnits="userSpaceOnUse"
       id="LinearGradient_3-8">
      <stop
         id="stop7308"
         stop-color="#8cbaed"
         offset="0" />
      <stop
         id="stop7310"
         stop-color="#497ea9"
         offset="1" />
    </linearGradient>
    <linearGradient
       gradientTransform="translate(11.371,26.104)"
       y2="-14.806"
       x2="-0.412"
       y1="0"
       x1="0"
       gradientUnits="userSpaceOnUse"
       id="LinearGradient_2-9">
      <stop
         id="stop7303"
         stop-color="#79b7ef"
         offset="0" />
      <stop
         id="stop7305"
         stop-color="#6ba6e8"
         offset="1" />
    </linearGradient>
    <linearGradient
       gradientTransform="translate(20.75,2.334)"
       y2="34.166"
       x2="-0.834"
       y1="0"
       x1="0"
       gradientUnits="userSpaceOnUse"
       id="LinearGradient_1-8">
      <stop
         id="stop7298"
         stop-color="#65a1e0"
         offset="0" />
      <stop
         id="stop7300"
         stop-color="#6ca6d7"
         offset="1" />
    </linearGradient>
    <linearGradient
       gradientTransform="translate(51.583,37.333)"
       y2="-32.5"
       x2="0"
       y1="0"
       x1="0"
       gradientUnits="userSpaceOnUse"
       id="LinearGradient-1">
      <stop
         id="stop7293"
         stop-color="#7ab9ee"
         offset="0" />
      <stop
         id="stop7295"
         stop-color="#7ab9ee"
         offset="1" />
    </linearGradient>
  </defs>
  <sodipodi:namedview
     id="base"
     pagecolor="#ffffff"
     bordercolor="#666666"
     borderopacity="1.0"
     inkscape:pageopacity="0.0"
     inkscape:pageshadow="2"
     inkscape:zoom="5.845865"
     inkscape:cx="38.632335"
     inkscape:cy="34.769102"
     inkscape:document-units="px"
     inkscape:current-layer="layer1"
     showgrid="false"
     inkscape:snap-page="true"
     inkscape:snap-grids="false"
     inkscape:snap-to-guides="false"
     inkscape:window-width="995"
     inkscape:window-height="665"
     inkscape:window-x="386"
     inkscape:window-y="256"
     inkscape:window-maximized="0" />
  <metadata
     id="metadata7">
    <rdf:RDF>
      <cc:Work
         rdf:about="">
        <dc:format>image/svg+xml</dc:format>
        <dc:type
           rdf:resource="http://purl.org/dc/dcmitype/StillImage" />
        <dc:title />
      </cc:Work>
    </rdf:RDF>
  </metadata>
  <g
     inkscape:label="Layer 1"
     inkscape:groupmode="layer"
     id="layer1"
     transform="translate(0,-980.36218)">
    <g
       style="fill-rule:evenodd;stroke-width:0.50099999;stroke-linejoin:bevel;overflow:visible"
       id="g7552"
       transform="matrix(1.3333333,0,0,1.3333333,1.0000018,980.36218)">
      <g
         transform="scale(1,-1)"
         font-size="16"
         id="Document"
         style="font-size:16px;fill:none;stroke:#000000;font-family:Times New Roman">
        <g
           transform="translate(0,-54)"
           id="Spread">
          <g
             id="MouseOff">
            <g
               id="Group"
               style="stroke:none">
              <path
                 id="path7378"
                 stroke-miterlimit="79.8403193612775"
                 d="m 27.001,2.25 c 3.053,0 5.533,-0.253 5.533,-0.563 0,-0.309 -2.48,-0.562 -5.533,-0.562 -3.055,0 -5.534,0.253 -5.534,0.562 0,0.31 2.479,0.563 5.534,0.563 z"
                 inkscape:connector-curvature="0"
                 style="fill:#000000;fill-opacity:0.03921599;stroke-width:0.124;marker-start:none;marker-end:none" />
              <path
                 id="path7380"
                 stroke-miterlimit="79.8403193612775"
                 d="m 19.764,1.655 c 0,-0.326 3.242,-0.593 7.237,-0.593 3.992,0 7.235,0.267 7.235,0.593 0,0.328 -3.243,0.595 -7.235,0.595 -3.995,0 -7.237,-0.267 -7.237,-0.595 z"
                 inkscape:connector-curvature="0"
                 style="fill:#000000;fill-opacity:0.03921599;stroke-width:0.124;marker-start:none;marker-end:none" />
              <path
                 id="path7382"
                 stroke-miterlimit="79.8403193612775"
                 d="M 18.061,1.624 C 18.061,1.28 22.066,1 27.001,1 c 4.932,0 8.938,0.28 8.938,0.624 0,0.345 -4.006,0.626 -8.938,0.626 -4.935,0 -8.94,-0.281 -8.94,-0.626 z"
                 inkscape:connector-curvature="0"
                 style="fill:#000000;fill-opacity:0.03921599;stroke-width:0.124;marker-start:none;marker-end:none" />
              <path
                 id="path7384"
                 stroke-miterlimit="79.8403193612775"
                 d="m 16.358,1.593 c 0,-0.361 4.768,-0.656 10.643,-0.656 5.873,0 10.641,0.295 10.641,0.656 0,0.362 -4.768,0.657 -10.641,0.657 -5.875,0 -10.643,-0.295 -10.643,-0.657 z"
                 inkscape:connector-curvature="0"
                 style="fill:#000000;fill-opacity:0.03921599;stroke-width:0.124;marker-start:none;marker-end:none" />
              <path
                 id="path7386"
                 stroke-miterlimit="79.8403193612775"
                 d="m 14.655,1.562 c 0,-0.379 5.531,-0.687 12.346,-0.687 6.812,0 12.343,0.308 12.343,0.687 0,0.379 -5.531,0.688 -12.343,0.688 -6.815,0 -12.346,-0.309 -12.346,-0.688 z"
                 inkscape:connector-curvature="0"
                 style="fill:#000000;fill-opacity:0.03921599;stroke-width:0.124;marker-start:none;marker-end:none" />
              <path
                 id="path7388"
                 stroke-miterlimit="79.8403193612775"
                 d="m 12.952,1.531 c 0,-0.397 6.294,-0.719 14.049,-0.719 7.752,0 14.046,0.322 14.046,0.719 0,0.396 -6.294,0.719 -14.046,0.719 -7.755,0 -14.049,-0.323 -14.049,-0.719 z"
                 inkscape:connector-curvature="0"
                 style="fill:#000000;fill-opacity:0.03921599;stroke-width:0.124;marker-start:none;marker-end:none" />
              <path
                 id="path7390"
                 stroke-miterlimit="79.8403193612775"
                 d="M 27.001,2.25 C 35.694,2.25 42.75,1.914 42.75,1.5 42.75,1.086 35.694,0.75 27.001,0.75 18.306,0.75 11.25,1.086 11.25,1.5 c 0,0.414 7.056,0.75 15.751,0.75 z"
                 inkscape:connector-curvature="0"
                 style="fill:#000000;fill-opacity:0.035294;stroke-width:0.124;marker-start:none;marker-end:none" />
              <g
                 id="Group_1">
                <g
                   stroke-miterlimit="79.8403193612775"
                   id="Group_2">
                  <path
                     style="fill:url(#LinearGradient-1);marker-start:none;marker-end:none"
                     id="path7394"
                     d="m 24.637,1.605 9.348,16.191 -8.589,21.412 25.224,0 C 52.306,35.743 53.25,31.856 53.25,27.75 53.25,13.26 41.49,1.5 27,1.5 c -0.797,0 -1.585,0.035 -2.363,0.105 z"
                     inkscape:connector-curvature="0" />
                  <path
                     style="fill:url(#LinearGradient_1-8);marker-start:none;marker-end:none"
                     id="path7396"
                     d="m 0.75,27.75 c 0,5.591 1.751,10.777 4.733,15.035 L 14.166,27.75 35.419,20.04 24.768,1.594 C 11.322,2.727 0.75,14.011 0.75,27.75 z"
                     inkscape:connector-curvature="0" />
                  <path
                     id="path7398"
                     d="M 11.025,32.951 5.41,42.678 C 10.148,49.517 18.054,54 27,54 37.465,54 46.505,47.866 50.721,39 l -9.554,0 -30.142,-6.049 z"
                     inkscape:connector-curvature="0"
                     style="fill:#6c9dcc;marker-start:none;marker-end:none" />
                </g>
                <path
                   style="fill:url(#LinearGradient_2-9);stroke-width:0.121;marker-start:none;marker-end:none"
                   id="path7400"
                   stroke-miterlimit="79.8403193612775"
                   d="m 1.5,27.75 c 0,5.323 1.633,10.267 4.426,14.356 L 17.54,21.991 36.372,21.602 25.233,2.31 C 11.979,3.219 1.5,14.267 1.5,27.75 z"
                   inkscape:connector-curvature="0" />
                <path
                   style="fill:url(#LinearGradient_3-8);stroke-width:0.121;marker-start:none;marker-end:none"
                   id="path7402"
                   stroke-miterlimit="79.8403193612775"
                   d="M 16.712,23.397 5.917,42.092 C 10.509,48.826 18.241,53.25 27,53.25 c 10.095,0 18.827,-5.878 22.958,-14.395 L 27,38.855 16.712,23.397 z"
                   inkscape:connector-curvature="0" />
                <path
                   style="fill:url(#LinearGradient_4-41);stroke-width:0.121;marker-start:none;marker-end:none"
                   id="path7404"
                   stroke-miterlimit="79.8403193612775"
                   d="m 25.02,2.326 11.851,20.523 -9.751,16.006 22.838,0 C 51.586,35.497 52.5,31.729 52.5,27.75 52.5,13.674 41.075,2.25 27,2.25 c -0.667,0 -1.327,0.025 -1.98,0.076 z"
                   inkscape:connector-curvature="0" />
                <path
                   style="fill:url(#LinearGradient_5-43);stroke-width:0.121;marker-start:none;marker-end:none"
                   id="path7406"
                   stroke-miterlimit="79.8403193612775"
                   d="m 23.848,2.472 c -0.412,0.022 -0.812,0.08 -1.162,0.145 -0.439,0.071 -0.87,0.156 -1.25,0.272 -0.395,0.058 -0.778,0.153 -1.114,0.249 -0.426,0.111 -0.845,0.237 -1.212,0.386 -0.38,0.095 -0.745,0.222 -1.064,0.347 -0.411,0.15 -0.814,0.314 -1.168,0.498 -0.362,0.127 -0.706,0.286 -1.01,0.438 C 15.475,4.994 15.09,5.194 14.753,5.411 14.41,5.568 14.087,5.756 13.799,5.934 13.428,6.156 13.064,6.39 12.746,6.638 12.423,6.824 12.12,7.039 11.851,7.242 11.502,7.497 11.163,7.762 10.867,8.039 10.565,8.252 10.287,8.491 10.036,8.718 9.712,9.003 9.398,9.298 9.126,9.604 8.849,9.84 8.593,10.103 8.364,10.352 8.068,10.665 7.781,10.988 7.536,11.319 7.282,11.579 7.054,11.861 6.847,12.131 6.58,12.473 6.323,12.822 6.106,13.178 5.878,13.458 5.677,13.758 5.496,14.047 5.259,14.415 5.033,14.788 4.848,15.17 4.647,15.466 4.476,15.782 4.321,16.086 4.117,16.48 3.924,16.88 3.769,17.288 3.601,17.597 3.461,17.922 3.336,18.238 3.164,18.661 3.005,19.09 2.885,19.526 2.748,19.841 2.643,20.17 2.549,20.492 2.287,21.371 2.072,22.271 2.232,21.661 2.023,22.628 1.967,22.881 1.965,22.883 1.967,22.869 1.97,22.852 1.974,22.836 1.965,22.875 1.958,22.914 1.965,22.883 1.865,23.388 1.785,23.886 1.767,24.042 1.663,24.822 1.619,25.236 1.584,25.666 1.528,26.344 1.5,27.043 1.5,27.75 c 0,0.754 0.032,1.499 0.088,2.13 0.015,0.19 0.023,0.273 0.147,1.35 -0.006,0.145 0.179,1.26 0.133,0.864 0.3,1.479 0.299,1.471 0.218,1.059 0.138,0.694 0.315,1.374 0.521,2.025 0.014,0.071 0.036,0.14 0.048,0.177 0.017,0.056 0.034,0.11 0.051,0.137 0.167,0.552 0.36,1.092 0.858,2.308 C 3.552,37.784 3.59,37.87 3.653,38.016 3.622,37.941 3.592,37.869 3.564,37.8 c 0.031,0.042 0.41,0.807 1.581,3.089 -0.865,-1.45 -0.114,-0.101 0.757,1.175 0.006,0.016 0.015,0.028 0.024,0.042 L 6.302,41.32 C 3.74,37.423 2.25,32.759 2.25,27.75 2.25,14.881 12.084,4.299 24.643,3.11 L 25.481,3.057 25.02,2.326 c -0.396,0.029 -0.79,0.069 -1.172,0.146 z"
                   inkscape:connector-curvature="0" />
                <path
                   style="fill:url(#LinearGradient_6-98);stroke-width:0.121;marker-start:none;marker-end:none"
                   id="path7408"
                   stroke-miterlimit="79.8403193612775"
                   d="m 25.02,2.326 0.49,0.718 C 26.002,3.014 26.499,3 27,3 c 13.662,0 24.75,11.086 24.75,24.75 0,3.709 -0.818,7.228 -2.282,10.387 l -0.362,0.695 0.852,0.023 c 0.081,-0.168 0.161,-0.337 0.217,-0.52 0.21,-0.393 0.435,-0.924 0.617,-1.477 0.111,-0.204 0.256,-0.603 0.372,-1.015 0.173,-0.442 0.344,-1.009 0.466,-1.594 0.092,-0.221 0.189,-0.611 0.261,-1.01 0.104,-0.465 0.194,-0.918 0.271,-1.342 -10e-4,0.005 -0.002,0.013 -0.002,0.021 0.005,-0.033 0.01,-0.064 0.012,-0.074 0.091,-0.495 0.103,-0.62 0,0 -10e-4,0.014 -0.012,0.075 -0.01,0.053 0.098,-0.793 0.154,-1.23 0.182,-1.445 0.002,0.029 -10e-4,0.056 -0.004,0.084 0.029,-0.221 0.052,-0.444 0.004,-0.084 C 52.451,29.567 52.5,28.663 52.5,27.75 52.5,13.674 41.075,2.25 27,2.25 c -0.667,0 -1.327,0.025 -1.98,0.076 z"
                   inkscape:connector-curvature="0" />
                <path
                   style="fill:url(#LinearGradient_7-8);stroke-width:0.121;marker-start:none;marker-end:none"
                   id="path7410"
                   stroke-miterlimit="79.8403193612775"
                   d="M 27,51.604 C 18.174,51.604 9.964,47.219 5.284,40.529 9.847,47.447 18.098,52.427 27,52.427 c 8.9,0 17.152,-4.98 21.715,-11.899 C 44.035,47.219 35.824,51.604 27,51.604 z"
                   inkscape:connector-curvature="0" />
                <path
                   id="path7412"
                   stroke-miterlimit="79.8403193612775"
                   d="M 4.772,18.489 C 8.968,11.599 17.351,7.646 27,7.646 c 0.118,0 0.235,0 0.353,0.001 L 25.478,3.795 C 15.814,4.366 7.737,10.347 4.772,18.489 z"
                   inkscape:connector-curvature="0"
                   style="fill:#4481b0;fill-opacity:0.14509798;stroke-width:0.043;marker-start:none;marker-end:none" />
                <path
                   id="path7414"
                   stroke-miterlimit="79.8403193612775"
                   d="m 25.478,3.795 1.875,3.852 C 36.851,7.761 45.081,11.683 49.227,18.49 46.107,9.924 37.329,3.75 27,3.75 c -0.512,0 -1.018,0.013 -1.522,0.045 z"
                   inkscape:connector-curvature="0"
                   style="fill:#629fe2;fill-opacity:0.14509798;stroke-width:0.043;marker-start:none;marker-end:none" />
                <path
                   id="path7416"
                   stroke-miterlimit="79.8403193612775"
                   d="m 16.979,21.986 -1.606,2.78 C 15.129,25.719 15,26.72 15,27.75 c 0,6.624 5.375,12 12,12 1.102,0 2.172,-0.15 3.187,-0.429 l -2.331,0 C 26.083,37.183 23.888,34.934 22.285,32.465 20.155,29.18 18.431,25.762 16.979,21.986 z"
                   inkscape:connector-curvature="0"
                   style="fill:#5087ba;stroke-width:0.057;marker-start:none;marker-end:none" />
                <path
                   id="path7418"
                   stroke-miterlimit="79.8403193612775"
                   d="m 15.37,24.778 2.227,-2.381 c 2.949,-0.501 5.316,-1.001 8.008,-1.096 3.775,-0.133 7.54,0.209 11.31,0.739 L 35.102,18.9 C 32.966,16.943 30.122,15.75 27,15.75 c -5.6,0 -10.306,3.84 -11.63,9.028 z"
                   inkscape:connector-curvature="0"
                   style="fill:#588fc5;stroke-width:0.057;marker-start:none;marker-end:none" />
                <path
                   style="fill:url(#LinearGradient_8-0);stroke-width:0.057;marker-start:none;marker-end:none"
                   id="path7420"
                   stroke-miterlimit="79.8403193612775"
                   d="m 35.131,18.926 1.928,4.071 c -1.542,3.511 -2.309,7.27 -4.488,10.324 -1.597,2.24 -4.316,3.699 -6.087,5.576 l 3.701,0.424 c 5.08,-1.396 8.814,-6.051 8.814,-11.571 0,-3.488 -1.49,-6.631 -3.868,-8.824 z"
                   inkscape:connector-curvature="0" />
                <path
                   style="fill:url(#LinearGradient_9-8);stroke-width:0.054;marker-start:none;marker-end:none"
                   id="path7422"
                   stroke-miterlimit="79.8403193612775"
                   d="M 15.75,27.75 C 15.75,33.96 20.79,39 27,39 33.21,39 38.25,33.96 38.25,27.75 38.25,21.539 33.21,16.5 27,16.5 c -6.21,0 -11.25,5.039 -11.25,11.25 z"
                   inkscape:connector-curvature="0" />
                <path
                   id="path7424"
                   stroke-miterlimit="79.8403193612775"
                   d="m 18,27.375 c 0,5.175 4.032,9.375 9,9.375 4.967,0 9,-4.2 9,-9.375 C 36,22.201 31.967,18 27,18 c -4.968,0 -9,4.201 -9,9.375 z"
                   inkscape:connector-curvature="0"
                   style="fill:#000000;fill-opacity:0.164706;stroke-width:0.046;marker-start:none;marker-end:none" />
                <path
                   style="fill:url(#LinearGradient_10-77);stroke-width:0.043;marker-start:none;marker-end:none"
                   id="path7426"
                   stroke-miterlimit="79.8403193612775"
                   d="m 18,27.75 c 0,4.968 4.032,9.001 9,9.001 4.967,0 9,-4.033 9,-9.001 0,-4.968 -4.033,-9.002 -9,-9.002 -4.968,0 -9,4.034 -9,9.002 z"
                   inkscape:connector-curvature="0" />
                <path
                   style="fill:url(#LinearGradient_11-83);stroke-width:0.044;marker-start:none;marker-end:none"
                   id="path7428"
                   stroke-miterlimit="79.8403193612775"
                   d="m 17.833,27.75 c 0,5.06 4.106,9.167 9.167,9.167 5.06,0 9.167,-4.107 9.167,-9.167 0,-5.061 -4.107,-9.168 -9.167,-9.168 -5.061,0 -9.167,4.107 -9.167,9.168 z"
                   inkscape:connector-curvature="0" />
                <path
                   style="fill:url(#LinearGradient_12-8);stroke-width:0.038;marker-start:none;marker-end:none"
                   id="path7430"
                   stroke-miterlimit="79.8403193612775"
                   d="m 34.583,25.625 c -2.076,1.864 -5.537,2.779 -7.583,2.125 -3.939,-2.064 -7.896,2.228 -4.071,6.743 0.516,0.31 1.074,0.567 1.673,0.758 4.139,1.324 8.575,-0.962 9.898,-5.103 0.489,-1.524 0.487,-3.088 0.083,-4.523 z"
                   inkscape:connector-curvature="0" />
                <path
                   style="fill:url(#LinearGradient_13-3);stroke-width:0.038;marker-start:none;marker-end:none"
                   id="path7432"
                   stroke-miterlimit="79.8403193612775"
                   d="m 21.025,22.616 c -10e-4,0.002 -0.003,0.003 -0.003,0.004 -0.037,0.043 -0.073,0.086 -0.102,0.133 -0.133,0.15 -0.254,0.31 -0.37,0.475 -0.006,0.009 -0.011,0.017 -0.013,0.021 -0.145,0.205 -0.279,0.419 -0.403,0.639 -0.005,0.01 -0.011,0.021 -0.013,0.03 -0.126,0.218 -0.236,0.445 -0.338,0.679 -0.107,0.243 -0.202,0.494 -0.283,0.754 -1.324,4.141 0.961,8.575 5.102,9.9 1.072,0.344 2.166,0.444 3.219,0.332 -9.915,-1.72 -5.896,-9.817 -0.821,-7.833 2.85,1.663 3.458,-2.241 3.354,-3.438 -0.219,-2.502 -5.047,-5.372 -9.329,-1.696 z"
                   inkscape:connector-curvature="0" />
                <path
                   style="fill:url(#LinearGradient_14-7);stroke-width:0.038;marker-start:none;marker-end:none"
                   id="path7434"
                   stroke-miterlimit="79.8403193612775"
                   d="m 20.429,23.405 c 3.562,-3.604 7.292,-1.438 8.096,-0.429 1.116,1.399 1.188,4.514 -1.479,4.789 2.07,6.299 7.701,3.966 7.824,0.315 0.147,-3.458 -2.017,-6.726 -5.472,-7.831 -3.435,-1.098 -7.073,0.288 -8.969,3.156 z"
                   inkscape:connector-curvature="0" />
                <path
                   style="fill:url(#LinearGradient_15-10);stroke-width:0.04;marker-start:none;marker-end:none"
                   id="path7436"
                   stroke-miterlimit="79.8403193612775"
                   d="m 18.75,27.75 c 0,4.554 3.695,8.25 8.25,8.25 4.554,0 8.25,-3.696 8.25,-8.25 0,-4.555 -3.696,-8.251 -8.25,-8.251 -4.555,0 -8.25,3.696 -8.25,8.251 z m 15.75,0 c 0,4.139 -3.361,7.5 -7.5,7.5 -4.141,0 -7.5,-3.361 -7.5,-7.5 0,-4.141 3.359,-7.501 7.5,-7.501 4.139,0 7.5,3.36 7.5,7.501 z"
                   inkscape:connector-curvature="0" />
                <g
                   stroke-miterlimit="79.8403193612775"
                   id="Group_3"
                   style="fill:#ffffff">
                  <path
                     id="path7439"
                     d="m 27,36.584 c 1.61,0 2.917,-0.56 2.917,-1.25 0,-0.69 -1.307,-1.25 -2.917,-1.25 -1.61,0 -2.917,0.56 -2.917,1.25 0,0.69 1.307,1.25 2.917,1.25 z"
                     inkscape:connector-curvature="0"
                     style="fill-opacity:0;marker-start:none;marker-end:none" />
                  <path
                     id="path7441"
                     d="m 24.43,35.472 c 0,-0.613 1.151,-1.111 2.57,-1.111 1.418,0 2.569,0.498 2.569,1.111 0,0.614 -1.151,1.112 -2.569,1.112 -1.419,0 -2.57,-0.498 -2.57,-1.112 z"
                     inkscape:connector-curvature="0"
                     style="fill-opacity:0.03921599;marker-start:none;marker-end:none" />
                  <path
                     id="path7443"
                     d="m 24.777,35.611 c 0,-0.537 0.996,-0.972 2.223,-0.972 1.226,0 2.222,0.435 2.222,0.972 0,0.537 -0.996,0.973 -2.222,0.973 -1.227,0 -2.223,-0.436 -2.223,-0.973 z"
                     inkscape:connector-curvature="0"
                     style="fill-opacity:0.07843101;marker-start:none;marker-end:none" />
                  <path
                     id="path7445"
                     d="m 25.125,35.75 c 0,-0.46 0.84,-0.833 1.875,-0.833 1.035,0 1.875,0.373 1.875,0.833 0,0.46 -0.84,0.834 -1.875,0.834 -1.035,0 -1.875,-0.374 -1.875,-0.834 z"
                     inkscape:connector-curvature="0"
                     style="fill-opacity:0.117647;marker-start:none;marker-end:none" />
                  <path
                     id="path7447"
                     d="m 25.472,35.889 c 0,-0.384 0.684,-0.694 1.528,-0.694 0.843,0 1.527,0.31 1.527,0.694 0,0.383 -0.684,0.695 -1.527,0.695 -0.844,0 -1.528,-0.312 -1.528,-0.695 z"
                     inkscape:connector-curvature="0"
                     style="fill-opacity:0.15686298;marker-start:none;marker-end:none" />
                  <path
                     id="path7449"
                     d="m 25.819,36.028 c 0,-0.307 0.529,-0.555 1.181,-0.555 0.651,0 1.18,0.248 1.18,0.555 0,0.306 -0.529,0.556 -1.18,0.556 -0.652,0 -1.181,-0.25 -1.181,-0.556 z"
                     inkscape:connector-curvature="0"
                     style="fill-opacity:0.19607801;marker-start:none;marker-end:none" />
                  <path
                     id="path7451"
                     d="m 27,36.584 c 0.46,0 0.833,-0.187 0.833,-0.417 0,-0.23 -0.373,-0.416 -0.833,-0.416 -0.46,0 -0.833,0.186 -0.833,0.416 0,0.23 0.373,0.417 0.833,0.417 z"
                     inkscape:connector-curvature="0"
                     style="fill-opacity:0.235294;marker-start:none;marker-end:none" />
                </g>
                <path
                   id="path7453"
                   stroke-miterlimit="79.8403193612775"
                   d="M 15.75,27.75 C 15.75,33.96 20.79,39 27,39 33.21,39 38.25,33.96 38.25,27.75 38.25,21.539 33.21,16.5 27,16.5 c -6.21,0 -11.25,5.039 -11.25,11.25 z m 21.75,0 c 0,5.796 -4.704,10.5 -10.5,10.5 -5.796,0 -10.5,-4.704 -10.5,-10.5 0,-5.797 4.704,-10.5 10.5,-10.5 5.796,0 10.5,4.703 10.5,10.5 z"
                   inkscape:connector-curvature="0"
                   style="fill:#ffffff;stroke-width:0.054;marker-start:none;marker-end:none" />
              </g>
            </g>
          </g>
        </g>
      </g>
    </g>
  </g>
</svg>
