<?xml version="1.0" encoding="UTF-8" standalone="no"?>
<!-- Created with Inkscape (http://www.inkscape.org/) -->

<svg
   xmlns:dc="http://purl.org/dc/elements/1.1/"
   xmlns:cc="http://creativecommons.org/ns#"
   xmlns:rdf="http://www.w3.org/1999/02/22-rdf-syntax-ns#"
   xmlns:svg="http://www.w3.org/2000/svg"
   xmlns="http://www.w3.org/2000/svg"
   xmlns:sodipodi="http://sodipodi.sourceforge.net/DTD/sodipodi-0.dtd"
   xmlns:inkscape="http://www.inkscape.org/namespaces/inkscape"
   width="72"
   height="72"
   id="svg2"
   version="1.1"
   inkscape:version="0.48.3.1 r9886"
   sodipodi:docname="72.svg">
  <defs
     id="defs4">
    <linearGradient
       gradientTransform="matrix(0,-1,1,0,36.845,51.059)"
       y2="0"
       x2="5.039"
       y1="0"
       x1="0"
       gradientUnits="userSpaceOnUse"
       id="LinearGradient_20-7">
      <stop
         id="stop19300"
         stop-color="#b2b2b2"
         offset="0" />
      <stop
         id="stop19302"
         stop-color="#818689"
         offset="1" />
    </linearGradient>
    <linearGradient
       gradientTransform="translate(36.376,46.5)"
       y2="-2.998"
       x2="0"
       y1="0"
       x1="0"
       gradientUnits="userSpaceOnUse"
       id="LinearGradient_19-9">
      <stop
         id="stop19295"
         stop-color="#7f7f7f"
         offset="0" />
      <stop
         id="stop19297"
         stop-color="#ffffff"
         offset="1" />
    </linearGradient>
    <linearGradient
       gradientTransform="matrix(0,-1,1,0,27.845,51.059)"
       y2="0"
       x2="5.039"
       y1="0"
       x1="0"
       gradientUnits="userSpaceOnUse"
       id="LinearGradient_18-6">
      <stop
         id="stop19290"
         stop-color="#b2b2b2"
         offset="0" />
      <stop
         id="stop19292"
         stop-color="#818689"
         offset="1" />
    </linearGradient>
    <linearGradient
       gradientTransform="translate(27.376,46.5)"
       y2="-2.998"
       x2="0"
       y1="0"
       x1="0"
       gradientUnits="userSpaceOnUse"
       id="LinearGradient_17-60">
      <stop
         id="stop19285"
         stop-color="#7f7f7f"
         offset="0" />
      <stop
         id="stop19287"
         stop-color="#ffffff"
         offset="1" />
    </linearGradient>
    <linearGradient
       gradientTransform="matrix(0,-1,1,0,18.845,51.059)"
       y2="0"
       x2="5.039"
       y1="0"
       x1="0"
       gradientUnits="userSpaceOnUse"
       id="LinearGradient_16-3">
      <stop
         id="stop19280"
         stop-color="#b2b2b2"
         offset="0" />
      <stop
         id="stop19282"
         stop-color="#818689"
         offset="1" />
    </linearGradient>
    <linearGradient
       gradientTransform="translate(18.376,46.5)"
       y2="-2.998"
       x2="0"
       y1="0"
       x1="0"
       gradientUnits="userSpaceOnUse"
       id="LinearGradient_15-89">
      <stop
         id="stop19275"
         stop-color="#7f7f7f"
         offset="0" />
      <stop
         id="stop19277"
         stop-color="#ffffff"
         offset="1" />
    </linearGradient>
    <linearGradient
       gradientTransform="matrix(0,-1,1,0,9.845,51.059)"
       y2="0"
       x2="5.039"
       y1="0"
       x1="0"
       gradientUnits="userSpaceOnUse"
       id="LinearGradient_14-90">
      <stop
         id="stop19270"
         stop-color="#b2b2b2"
         offset="0" />
      <stop
         id="stop19272"
         stop-color="#818689"
         offset="1" />
    </linearGradient>
    <linearGradient
       gradientTransform="translate(9.376,46.5)"
       y2="-2.998"
       x2="0"
       y1="0"
       x1="0"
       gradientUnits="userSpaceOnUse"
       id="LinearGradient_13-56">
      <stop
         id="stop19265"
         stop-color="#7f7f7f"
         offset="0" />
      <stop
         id="stop19267"
         stop-color="#ffffff"
         offset="1" />
    </linearGradient>
    <linearGradient
       gradientTransform="matrix(0,-1,1,0,45.845,51.059)"
       y2="0"
       x2="5.039"
       y1="0"
       x1="0"
       gradientUnits="userSpaceOnUse"
       id="LinearGradient_12-58">
      <stop
         id="stop19260"
         stop-color="#b2b2b2"
         offset="0" />
      <stop
         id="stop19262"
         stop-color="#818689"
         offset="1" />
    </linearGradient>
    <linearGradient
       gradientTransform="translate(45.376,46.5)"
       y2="-2.998"
       x2="0"
       y1="0"
       x1="0"
       gradientUnits="userSpaceOnUse"
       id="LinearGradient_11-73">
      <stop
         id="stop19255"
         stop-color="#7f7f7f"
         offset="0" />
      <stop
         id="stop19257"
         stop-color="#ffffff"
         offset="1" />
    </linearGradient>
    <linearGradient
       gradientTransform="translate(36.001,30.75)"
       y2="-20.25"
       x2="0"
       y1="0"
       x1="0"
       gradientUnits="userSpaceOnUse"
       id="LinearGradient_10-13">
      <stop
         id="stop19250"
         stop-color="#9a9898"
         offset="0" />
      <stop
         id="stop19252"
         stop-color="#5a5a5a"
         offset="1" />
    </linearGradient>
    <linearGradient
       gradientTransform="translate(36.001,31.5)"
       y2="-20.25"
       x2="0"
       y1="0"
       x1="0"
       gradientUnits="userSpaceOnUse"
       id="LinearGradient_9-54">
      <stop
         id="stop19245"
         stop-color="#6d6a6a"
         offset="0" />
      <stop
         id="stop19247"
         stop-color="#5a5a5a"
         offset="1" />
    </linearGradient>
    <linearGradient
       gradientTransform="translate(49.501,49.5)"
       y2="0.75"
       x2="-3"
       y1="0"
       x1="0"
       gradientUnits="userSpaceOnUse"
       id="LinearGradient_8-01">
      <stop
         id="stop19238"
         stop-color="#8ac9fc"
         offset="0" />
      <stop
         id="stop19240"
         stop-color="#dcf2ff"
         offset="0.544333338737488" />
      <stop
         id="stop19242"
         stop-color="#8acafc"
         offset="1" />
    </linearGradient>
    <linearGradient
       gradientTransform="matrix(0.97014268,0.24253489,-0.24253489,0.97014268,5.253,49.5)"
       y2="0"
       x2="3.092"
       y1="0"
       x1="0"
       gradientUnits="userSpaceOnUse"
       id="LinearGradient_7-48">
      <stop
         id="stop19231"
         stop-color="#8ac9fc"
         offset="0" />
      <stop
         id="stop19233"
         stop-color="#dcf2ff"
         offset="0.544333338737488" />
      <stop
         id="stop19235"
         stop-color="#8acafc"
         offset="1" />
    </linearGradient>
    <linearGradient
       gradientTransform="matrix(0,-1,1,0,27.375,47.798)"
       y2="0"
       x2="6.98"
       y1="0"
       x1="0"
       gradientUnits="userSpaceOnUse"
       id="LinearGradient_6-338">
      <stop
         id="stop19226"
         stop-color="#8ac9fc"
         offset="0" />
      <stop
         id="stop19228"
         stop-color="#5f9ad5"
         offset="1" />
    </linearGradient>
    <linearGradient
       gradientTransform="matrix(0,-1,1,0,24.923,49.093)"
       y2="0"
       x2="8.938"
       y1="0"
       x1="0"
       gradientUnits="userSpaceOnUse"
       id="LinearGradient_5-810">
      <stop
         id="stop19217"
         stop-color="#b7e3fe"
         offset="0" />
      <stop
         id="stop19219"
         stop-color="#99cffb"
         offset="0.181818187236786" />
      <stop
         id="stop19221"
         stop-color="#71a8e1"
         offset="0.893030285835266" />
      <stop
         id="stop19223"
         stop-color="#80b7f1"
         offset="1" />
    </linearGradient>
    <linearGradient
       gradientTransform="matrix(0,-1,1,0,27.373,49.125)"
       y2="0"
       x2="8.25"
       y1="0"
       x1="0"
       gradientUnits="userSpaceOnUse"
       id="LinearGradient_4-93">
      <stop
         id="stop19212"
         stop-color="#8ac9fc"
         offset="0" />
      <stop
         id="stop19214"
         stop-color="#5f9ad5"
         offset="1" />
    </linearGradient>
    <linearGradient
       gradientTransform="matrix(0,-1,1,0,13.694,50.572)"
       y2="0"
       x2="10.288"
       y1="0"
       x1="0"
       gradientUnits="userSpaceOnUse"
       id="LinearGradient_3-26">
      <stop
         id="stop19203"
         stop-color="#66a1d1"
         offset="0" />
      <stop
         id="stop19205"
         stop-color="#659ecf"
         offset="0.101944446563721" />
      <stop
         id="stop19207"
         stop-color="#639ccc"
         offset="0.90194445848465" />
      <stop
         id="stop19209"
         stop-color="#4f7fb3"
         offset="1" />
    </linearGradient>
    <linearGradient
       gradientTransform="matrix(0,1,-1,0,15.309,2.661)"
       y2="0"
       x2="35.292"
       y1="0"
       x1="0"
       gradientUnits="userSpaceOnUse"
       id="LinearGradient_2-87">
      <stop
         id="stop19198"
         stop-color="#dadada"
         offset="0" />
      <stop
         id="stop19200"
         stop-color="#fcfcfc"
         offset="1" />
    </linearGradient>
    <linearGradient
       gradientTransform="translate(24.751,2.25)"
       y2="35.25"
       x2="0"
       y1="0"
       x1="0"
       gradientUnits="userSpaceOnUse"
       id="LinearGradient_1-83">
      <stop
         id="stop19191"
         stop-color="#dadada"
         offset="0" />
      <stop
         id="stop19193"
         stop-color="#f9f9f9"
         offset="3.37078645825386E-02" />
      <stop
         id="stop19195"
         stop-color="#fcfcfc"
         offset="1" />
    </linearGradient>
    <linearGradient
       gradientTransform="matrix(0,-1,1,0,21.988,47.354)"
       y2="0"
       x2="45.321"
       y1="0"
       x1="0"
       gradientUnits="userSpaceOnUse"
       id="LinearGradient-90">
      <stop
         id="stop19186"
         stop-color="#cccccc"
         offset="0" />
      <stop
         id="stop19188"
         stop-color="#878b8e"
         offset="1" />
    </linearGradient>
  </defs>
  <sodipodi:namedview
     id="base"
     pagecolor="#ffffff"
     bordercolor="#666666"
     borderopacity="1.0"
     inkscape:pageopacity="0.0"
     inkscape:pageshadow="2"
     inkscape:zoom="3.260274"
     inkscape:cx="66"
     inkscape:cy="59"
     inkscape:document-units="px"
     inkscape:current-layer="layer1"
     showgrid="false"
     inkscape:snap-page="true"
     inkscape:snap-grids="false"
     inkscape:snap-to-guides="false"
     inkscape:window-width="995"
     inkscape:window-height="665"
     inkscape:window-x="386"
     inkscape:window-y="256"
     inkscape:window-maximized="0">
    <inkscape:grid
       type="xygrid"
       id="grid11920"
       empspacing="5"
       visible="true"
       enabled="true"
       snapvisiblegridlinesonly="true" />
  </sodipodi:namedview>
  <metadata
     id="metadata7">
    <rdf:RDF>
      <cc:Work
         rdf:about="">
        <dc:format>image/svg+xml</dc:format>
        <dc:type
           rdf:resource="http://purl.org/dc/dcmitype/StillImage" />
        <dc:title />
      </cc:Work>
    </rdf:RDF>
  </metadata>
  <g
     inkscape:label="Layer 1"
     inkscape:groupmode="layer"
     id="layer1"
     transform="translate(0,-980.3622)">
    <g
       style="fill-rule:evenodd;stroke-width:0.50099999;stroke-linejoin:bevel;overflow:visible"
       id="g19552"
       transform="matrix(1.3332769,0,0,1.333358,-0.9997884,980.36087)">
      <g
         transform="scale(1,-1)"
         font-size="16"
         id="Document"
         style="font-size:16px;fill:none;stroke:#000000;font-family:Times New Roman">
        <g
           transform="translate(0,-54)"
           id="Spread">
          <g
             id="MouseOff">
            <g
               id="Group"
               style="stroke:none">
              <g
                 stroke-miterlimit="79.8403193612775"
                 id="Group_1"
                 style="fill:#494a4f">
                <path
                   id="path19309"
                   d="m 3.751,1.126 0,-0.002 C 3.751,0.504 4.411,0 5.221,0 l 44.31,0 c 0.81,0 1.47,0.504 1.47,1.124 l 0,0.002 c 0,0.62 -0.66,1.124 -1.47,1.124 l -44.31,0 c -0.81,0 -1.47,-0.504 -1.47,-1.124 z"
                   inkscape:connector-curvature="0"
                   style="fill-opacity:0.05490202;marker-start:none;marker-end:none" />
                <path
                   id="path19311"
                   d="m 3.959,1.171 0,0 c 0,-0.595 0.657,-1.078 1.469,-1.078 l 43.896,0 c 0.811,0 1.469,0.483 1.469,1.078 l 0,0 c 0,0.595 -0.658,1.079 -1.469,1.079 l -43.896,0 C 4.616,2.25 3.959,1.766 3.959,1.171 z"
                   inkscape:connector-curvature="0"
                   style="fill-opacity:0.07450998;marker-start:none;marker-end:none" />
                <path
                   id="path19313"
                   d="m 4.165,1.218 0,0 c 0,-0.57 0.659,-1.031 1.469,-1.031 l 43.483,0 c 0.81,0 1.47,0.461 1.47,1.031 l 0,0 c 0,0.569 -0.66,1.032 -1.47,1.032 l -43.483,0 C 4.824,2.25 4.165,1.787 4.165,1.218 z"
                   inkscape:connector-curvature="0"
                   style="fill-opacity:0.09411801;marker-start:none;marker-end:none" />
                <path
                   id="path19315"
                   d="m 4.373,1.266 0,-0.002 C 4.373,0.722 5.031,0.28 5.842,0.28 l 43.067,0 c 0.812,0 1.47,0.442 1.47,0.984 l 0,0.002 c 0,0.543 -0.658,0.984 -1.47,0.984 l -43.067,0 C 5.031,2.25 4.373,1.809 4.373,1.266 z"
                   inkscape:connector-curvature="0"
                   style="fill-opacity:0.10980398;marker-start:none;marker-end:none" />
                <path
                   id="path19317"
                   d="m 4.58,1.312 0,0 c 0,-0.52 0.658,-0.939 1.468,-0.939 l 42.655,0 c 0.811,0 1.469,0.419 1.469,0.939 l 0,0 c 0,0.515 -0.658,0.938 -1.469,0.938 l -42.655,0 C 5.238,2.25 4.58,1.827 4.58,1.312 z"
                   inkscape:connector-curvature="0"
                   style="fill-opacity:0.129412;marker-start:none;marker-end:none" />
                <path
                   id="path19319"
                   d="m 4.788,1.359 0,-10e-4 c 0,-0.491 0.658,-0.891 1.468,-0.891 l 42.239,0 c 0.811,0 1.469,0.4 1.469,0.891 l 0,10e-4 c 0,0.491 -0.658,0.891 -1.469,0.891 l -42.239,0 c -0.81,0 -1.468,-0.4 -1.468,-0.891 z"
                   inkscape:connector-curvature="0"
                   style="fill-opacity:0.14902003;marker-start:none;marker-end:none" />
                <path
                   id="path19321"
                   d="m 4.994,1.406 0,-0.002 c 0,-0.465 0.659,-0.843 1.47,-0.843 l 41.824,0 c 0.811,0 1.47,0.378 1.47,0.843 l 0,0.002 c 0,0.465 -0.659,0.844 -1.47,0.844 l -41.824,0 c -0.811,0 -1.47,-0.379 -1.47,-0.844 z"
                   inkscape:connector-curvature="0"
                   style="fill-opacity:0.164706;marker-start:none;marker-end:none" />
              </g>
              <path
                 style="fill:url(#LinearGradient-90);stroke-width:0.183;marker-start:none;marker-end:none"
                 id="path19323"
                 stroke-miterlimit="79.8403193612775"
                 d="m 3.75,43.557 0,-39.865 C 3.75,2.069 5.069,0.75 6.692,0.75 l 41.367,0 c 1.623,0 2.942,1.319 2.942,2.942 l 0,39.865 c 0,1.623 -1.319,2.942 -2.942,2.942 l -41.367,0 C 5.069,46.499 3.75,45.18 3.75,43.557 z"
                 inkscape:connector-curvature="0" />
              <path
                 style="fill:url(#LinearGradient_1-83);stroke-width:0.183;marker-start:none;marker-end:none"
                 id="path19325"
                 stroke-miterlimit="79.8403193612775"
                 d="m 4.501,41.886 0,-38.021 C 4.501,2.56 5.561,1.5 6.866,1.5 l 41.019,0 c 1.305,0 2.365,1.06 2.365,2.365 l 0,38.021 c 0,1.305 -1.06,2.365 -2.365,2.365 l -41.019,0 c -1.305,0 -2.365,-1.06 -2.365,-2.365 z"
                 inkscape:connector-curvature="0" />
              <path
                 style="fill:url(#LinearGradient_2-87);stroke-width:0.183;marker-start:none;marker-end:none"
                 id="path19327"
                 stroke-miterlimit="79.8403193612775"
                 d="m 5.251,44.065 0,-40.129 c 0,-0.93 0.755,-1.685 1.685,-1.685 l 40.881,0 c 0.93,0 1.685,0.755 1.685,1.685 l 0,40.129 c 0,0.93 -0.755,1.685 -1.685,1.685 l -40.881,0 c -0.93,0 -1.685,-0.755 -1.685,-1.685 z"
                 inkscape:connector-curvature="0" />
              <path
                 id="path19329"
                 stroke-miterlimit="79.8403193612775"
                 d="m 3.752,40.109 0,-0.717 c 0,-1.043 0.848,-1.891 1.892,-1.891 l 43.465,0 c 1.044,0 1.892,0.848 1.892,1.891 l 0,0.717 C 51.001,41.152 50.153,42 49.109,42 L 5.644,42 C 4.6,42 3.752,41.152 3.752,40.109 z"
                 inkscape:connector-curvature="0"
                 style="fill:#000000;fill-opacity:0.09019602;stroke-width:0.183;marker-start:none;marker-end:none" />
              <path
                 style="fill:url(#LinearGradient_3-26);stroke-width:0.183;marker-start:none;marker-end:none"
                 id="path19331"
                 stroke-miterlimit="79.8403193612775"
                 d="m 3.751,48.32 0,-6.639 c 0,-1.479 1.201,-2.68 2.68,-2.68 l 41.891,0 c 1.479,0 2.68,1.201 2.68,2.68 l 0,6.639 c 0,1.479 -1.201,2.68 -2.68,2.68 L 6.431,51 c -1.479,0 -2.68,-1.201 -2.68,-2.68 z"
                 inkscape:connector-curvature="0" />
              <path
                 style="fill:url(#LinearGradient_4-93);stroke-width:0.183;marker-start:none;marker-end:none"
                 id="path19333"
                 stroke-miterlimit="79.8403193612775"
                 d="m 4.501,48.17 0,-5.589 c 0,-1.148 0.932,-2.08 2.08,-2.08 l 41.589,0 c 1.148,0 2.08,0.932 2.08,2.08 l 0,5.589 c 0,1.148 -0.932,2.08 -2.08,2.08 l -41.589,0 c -1.148,0 -2.08,-0.932 -2.08,-2.08 z"
                 inkscape:connector-curvature="0" />
              <path
                 style="fill:url(#LinearGradient_5-810);stroke-width:0.183;marker-start:none;marker-end:none"
                 id="path19335"
                 stroke-miterlimit="79.8403193612775"
                 d="m 4.501,47.681 0,-6.111 c 0,-1.004 0.815,-1.819 1.819,-1.819 l 42.113,0 c 1.004,0 1.819,0.815 1.819,1.819 l 0,6.111 c 0,1.004 -0.815,1.819 -1.819,1.819 l -42.113,0 c -1.004,0 -1.819,-0.815 -1.819,-1.819 z"
                 inkscape:connector-curvature="0" />
              <path
                 style="fill:url(#LinearGradient_6-338);stroke-width:0.183;marker-start:none;marker-end:none"
                 id="path19337"
                 stroke-miterlimit="79.8403193612775"
                 d="m 5.251,47.495 0,-5.739 c 0,-0.692 0.563,-1.255 1.255,-1.255 l 41.741,0 c 0.692,0 1.255,0.563 1.255,1.255 l 0,5.739 c 0,0.692 -0.563,1.255 -1.255,1.255 l -41.741,0 c -0.692,0 -1.255,-0.563 -1.255,-1.255 z"
                 inkscape:connector-curvature="0" />
              <path
                 style="fill:url(#LinearGradient_7-48);stroke-width:0.183;marker-start:none;marker-end:none"
                 id="path19339"
                 stroke-miterlimit="79.8403193612775"
                 d="m 6.32,49.5 6.434,0 0,0.75 -6.17,0 c -1.148,0 -2.08,-0.932 -2.08,-2.08 L 4.505,47.773 C 4.553,48.734 5.349,49.5 6.32,49.5 z"
                 inkscape:connector-curvature="0" />
              <path
                 style="fill:url(#LinearGradient_8-01);stroke-width:0.183;marker-start:none;marker-end:none"
                 id="path19341"
                 stroke-miterlimit="79.8403193612775"
                 d="m 48.434,49.5 -6.434,0 0,0.75 6.17,0 c 1.148,0 2.08,-0.932 2.08,-2.08 L 50.249,47.773 C 50.201,48.734 49.405,49.5 48.434,49.5 z"
                 inkscape:connector-curvature="0" />
              <path
                 id="path19343"
                 stroke-miterlimit="79.8403193612775"
                 d="m 21.675,7.5 -0.231,0.01 c -0.986,0.04 -1.852,0.157 -2.596,0.355 -0.752,0.199 -1.387,0.515 -1.896,0.953 -0.516,0.444 -0.897,1.037 -1.147,1.769 -0.248,0.734 -0.368,1.641 -0.368,2.715 l 0,1.545 c 0.009,0.816 -0.078,1.457 -0.245,1.931 -0.165,0.458 -0.469,0.814 -0.925,1.072 -0.464,0.264 -1.153,0.474 -2.079,0.622 l -0.187,0.03 0,1.974 0.19,0.028 c 0.796,0.115 1.429,0.295 1.909,0.534 0.469,0.234 0.802,0.555 1.012,0.964 0.214,0.412 0.326,0.961 0.325,1.658 l 0,1.987 c 0.001,1.07 0.129,1.979 0.393,2.717 0.263,0.738 0.654,1.339 1.181,1.792 0.522,0.447 1.157,0.774 1.902,0.978 0.741,0.205 1.584,0.322 2.532,0.357 l 0.23,0.009 0,-2.029 -0.203,-0.017 c -1.086,-0.089 -1.831,-0.418 -2.28,-0.946 -0.451,-0.529 -0.695,-1.364 -0.685,-2.547 l 0,-1.517 c 0.004,-0.691 -0.043,-1.328 -0.146,-1.906 -0.102,-0.588 -0.292,-1.11 -0.575,-1.564 -0.286,-0.462 -0.694,-0.837 -1.214,-1.123 -0.264,-0.145 -0.56,-0.262 -0.91,-0.36 l 0.051,-0.013 c 0.337,-0.1 0.638,-0.222 0.902,-0.366 0.523,-0.285 0.932,-0.651 1.211,-1.108 0.275,-0.446 0.459,-0.963 0.552,-1.547 0.093,-0.575 0.134,-1.219 0.129,-1.926 l 0,-1.569 c -0.006,-0.706 0.092,-1.299 0.28,-1.787 0.187,-0.477 0.491,-0.849 0.915,-1.121 0.424,-0.272 1.007,-0.447 1.769,-0.507 l 0.204,-0.017 0,-2.03 z m 11.402,0 0,2.03 0.203,0.017 c 0.762,0.06 1.345,0.235 1.769,0.507 0.424,0.272 0.728,0.644 0.915,1.121 0.188,0.488 0.286,1.081 0.281,1.787 l 0,1.569 c -0.007,0.707 0.035,1.351 0.128,1.926 0.093,0.584 0.277,1.101 0.552,1.547 0.279,0.457 0.688,0.823 1.211,1.108 0.263,0.144 0.565,0.266 0.901,0.366 l 0.045,0.015 c -0.343,0.096 -0.639,0.213 -0.903,0.358 -0.52,0.286 -0.928,0.661 -1.215,1.123 -0.282,0.455 -0.472,0.976 -0.575,1.564 -0.102,0.578 -0.149,1.215 -0.144,1.906 l 0,1.517 c 0.009,1.183 -0.235,2.018 -0.686,2.547 -0.449,0.528 -1.194,0.857 -2.28,0.946 l -0.202,0.017 0,2.029 0.229,-0.009 c 0.947,-0.035 1.791,-0.152 2.532,-0.357 0.745,-0.204 1.38,-0.531 1.902,-0.978 0.526,-0.453 0.918,-1.053 1.181,-1.792 0.264,-0.738 0.392,-1.647 0.394,-2.717 l 0,-1.987 c -0.003,-0.697 0.109,-1.246 0.324,-1.658 0.21,-0.409 0.544,-0.731 1.011,-0.964 0.48,-0.239 1.114,-0.419 1.91,-0.534 l 0.191,-0.028 0,-1.974 -0.188,-0.03 c -0.926,-0.148 -1.615,-0.358 -2.08,-0.622 -0.455,-0.258 -0.76,-0.614 -0.923,-1.072 -0.168,-0.474 -0.255,-1.115 -0.245,-1.931 l 0,-1.545 c 0,-1.074 -0.121,-1.981 -0.369,-2.715 C 38.696,9.855 38.315,9.262 37.799,8.818 37.29,8.38 36.655,8.064 35.902,7.865 35.159,7.667 34.292,7.55 33.307,7.51 L 33.077,7.5 z m -12.076,4.5 0,3.75 3.75,0 0,-3.75 -3.75,0 z m 4.5,0 0,3.75 3.75,0 0,-3.75 -3.75,0 z m 4.5,0 0,3.75 3.75,0 0,-3.75 -3.75,0 z"
                 inkscape:connector-curvature="0"
                 style="fill:#eeeeee;fill-rule:nonzero;stroke-width:0.28099999;marker-start:none;marker-end:none" />
              <path
                 style="fill:url(#LinearGradient_9-54);fill-rule:nonzero;stroke-width:0.28099999;marker-start:none;marker-end:none"
                 id="path19345"
                 stroke-miterlimit="79.8403193612775"
                 d="m 21.675,9 -0.231,0.01 c -0.986,0.04 -1.852,0.157 -2.596,0.355 -0.752,0.199 -1.387,0.515 -1.896,0.953 -0.516,0.444 -0.897,1.037 -1.147,1.769 -0.248,0.734 -0.368,1.641 -0.368,2.715 l 0,1.545 c 0.009,0.816 -0.078,1.457 -0.245,1.931 -0.165,0.458 -0.469,0.814 -0.925,1.072 -0.464,0.264 -1.153,0.474 -2.079,0.622 l -0.187,0.03 0,1.974 0.19,0.028 c 0.796,0.115 1.429,0.295 1.909,0.534 0.469,0.234 0.802,0.555 1.012,0.964 0.214,0.412 0.326,0.961 0.325,1.658 l 0,1.987 c 0.001,1.07 0.129,1.979 0.393,2.717 0.263,0.738 0.654,1.339 1.181,1.792 0.522,0.447 1.157,0.774 1.902,0.978 0.741,0.205 1.584,0.322 2.532,0.357 l 0.23,0.009 0,-2.029 -0.203,-0.017 c -1.086,-0.089 -1.831,-0.418 -2.28,-0.946 -0.451,-0.529 -0.695,-1.364 -0.685,-2.547 l 0,-1.517 c 0.004,-0.691 -0.043,-1.328 -0.146,-1.906 -0.102,-0.588 -0.292,-1.11 -0.575,-1.564 -0.286,-0.462 -0.694,-0.837 -1.214,-1.123 -0.264,-0.145 -0.56,-0.262 -0.91,-0.36 l 0.051,-0.013 c 0.337,-0.1 0.638,-0.222 0.902,-0.366 0.523,-0.285 0.932,-0.651 1.211,-1.108 0.275,-0.446 0.459,-0.963 0.552,-1.547 0.093,-0.575 0.134,-1.219 0.129,-1.926 l 0,-1.569 c -0.006,-0.706 0.092,-1.299 0.28,-1.787 0.187,-0.477 0.491,-0.849 0.915,-1.121 0.424,-0.272 1.007,-0.447 1.769,-0.507 l 0.204,-0.017 0,-2.03 z m 11.402,0 0,2.03 0.203,0.017 c 0.762,0.06 1.345,0.235 1.769,0.507 0.424,0.272 0.728,0.644 0.915,1.121 0.188,0.488 0.286,1.081 0.281,1.787 l 0,1.569 c -0.007,0.707 0.035,1.351 0.128,1.926 0.093,0.584 0.277,1.101 0.552,1.547 0.279,0.457 0.688,0.823 1.211,1.108 0.263,0.144 0.565,0.266 0.901,0.366 l 0.045,0.015 c -0.343,0.096 -0.639,0.213 -0.903,0.358 -0.52,0.286 -0.928,0.661 -1.215,1.123 -0.282,0.455 -0.472,0.976 -0.575,1.564 -0.102,0.578 -0.149,1.215 -0.144,1.906 l 0,1.517 c 0.009,1.183 -0.235,2.018 -0.686,2.547 -0.449,0.528 -1.194,0.857 -2.28,0.946 l -0.202,0.017 0,2.029 0.229,-0.009 c 0.947,-0.035 1.791,-0.152 2.532,-0.357 0.745,-0.204 1.38,-0.531 1.902,-0.978 0.526,-0.453 0.918,-1.053 1.181,-1.792 0.264,-0.738 0.392,-1.647 0.394,-2.717 l 0,-1.987 c -0.003,-0.697 0.109,-1.246 0.324,-1.658 0.21,-0.409 0.544,-0.731 1.011,-0.964 0.48,-0.239 1.114,-0.419 1.91,-0.534 l 0.191,-0.028 0,-1.974 -0.188,-0.03 c -0.926,-0.148 -1.615,-0.358 -2.08,-0.622 -0.455,-0.258 -0.76,-0.614 -0.923,-1.072 -0.168,-0.474 -0.255,-1.115 -0.245,-1.931 l 0,-1.545 c 0,-1.074 -0.121,-1.981 -0.369,-2.715 -0.25,-0.732 -0.631,-1.325 -1.147,-1.769 C 37.29,9.88 36.655,9.564 35.902,9.365 35.159,9.167 34.292,9.05 33.307,9.01 L 33.077,9 z m -12.076,4.5 0,3.75 3.75,0 0,-3.75 -3.75,0 z m 4.5,0 0,3.75 3.75,0 0,-3.75 -3.75,0 z m 4.5,0 0,3.75 3.75,0 0,-3.75 -3.75,0 z"
                 inkscape:connector-curvature="0" />
              <path
                 style="fill:url(#LinearGradient_10-13);fill-rule:nonzero;stroke-width:0.28099999;marker-start:none;marker-end:none"
                 id="path19347"
                 stroke-miterlimit="79.8403193612775"
                 d="m 21.675,8.25 -0.231,0.01 c -0.986,0.04 -1.852,0.157 -2.596,0.355 -0.752,0.199 -1.387,0.515 -1.896,0.953 -0.516,0.444 -0.897,1.037 -1.147,1.769 -0.248,0.734 -0.368,1.641 -0.368,2.715 l 0,1.545 c 0.009,0.816 -0.078,1.457 -0.245,1.931 -0.165,0.458 -0.469,0.814 -0.925,1.072 -0.464,0.264 -1.153,0.474 -2.079,0.622 l -0.187,0.03 0,1.974 0.19,0.028 c 0.796,0.115 1.429,0.295 1.909,0.534 0.469,0.234 0.802,0.555 1.012,0.964 0.214,0.412 0.326,0.961 0.325,1.658 l 0,1.987 c 0.001,1.07 0.129,1.979 0.393,2.717 0.263,0.738 0.654,1.339 1.181,1.792 0.522,0.447 1.157,0.774 1.902,0.978 0.741,0.205 1.584,0.322 2.532,0.357 l 0.23,0.009 0,-2.029 -0.203,-0.017 c -1.086,-0.089 -1.831,-0.418 -2.28,-0.946 -0.451,-0.529 -0.695,-1.364 -0.685,-2.547 l 0,-1.517 c 0.004,-0.691 -0.043,-1.328 -0.146,-1.906 -0.102,-0.588 -0.292,-1.11 -0.575,-1.564 -0.286,-0.462 -0.694,-0.837 -1.214,-1.123 -0.264,-0.145 -0.56,-0.262 -0.91,-0.36 l 0.051,-0.013 c 0.337,-0.1 0.638,-0.222 0.902,-0.366 0.523,-0.285 0.932,-0.651 1.211,-1.108 0.275,-0.446 0.459,-0.963 0.552,-1.547 0.093,-0.575 0.134,-1.219 0.129,-1.926 l 0,-1.569 c -0.006,-0.706 0.092,-1.299 0.28,-1.787 0.187,-0.477 0.491,-0.849 0.915,-1.121 0.424,-0.272 1.007,-0.447 1.769,-0.507 l 0.204,-0.017 0,-2.03 z m 11.402,0 0,2.03 0.203,0.017 c 0.762,0.06 1.345,0.235 1.769,0.507 0.424,0.272 0.728,0.644 0.915,1.121 0.188,0.488 0.286,1.081 0.281,1.787 l 0,1.569 c -0.007,0.707 0.035,1.351 0.128,1.926 0.093,0.584 0.277,1.101 0.552,1.547 0.279,0.457 0.688,0.823 1.211,1.108 0.263,0.144 0.565,0.266 0.901,0.366 l 0.045,0.015 c -0.343,0.096 -0.639,0.213 -0.903,0.358 -0.52,0.286 -0.928,0.661 -1.215,1.123 -0.282,0.455 -0.472,0.976 -0.575,1.564 -0.102,0.578 -0.149,1.215 -0.144,1.906 l 0,1.517 c 0.009,1.183 -0.235,2.018 -0.686,2.547 -0.449,0.528 -1.194,0.857 -2.28,0.946 l -0.202,0.017 0,2.029 0.229,-0.009 c 0.947,-0.035 1.791,-0.152 2.532,-0.357 0.745,-0.204 1.38,-0.531 1.902,-0.978 0.526,-0.453 0.918,-1.053 1.181,-1.792 0.264,-0.738 0.392,-1.647 0.394,-2.717 l 0,-1.987 c -0.003,-0.697 0.109,-1.246 0.324,-1.658 0.21,-0.409 0.544,-0.731 1.011,-0.964 0.48,-0.239 1.114,-0.419 1.91,-0.534 l 0.191,-0.028 0,-1.974 -0.188,-0.03 C 41.637,19.074 40.948,18.864 40.483,18.6 40.028,18.342 39.723,17.986 39.56,17.528 39.392,17.054 39.305,16.413 39.315,15.597 l 0,-1.545 c 0,-1.074 -0.121,-1.981 -0.369,-2.715 C 38.696,10.605 38.315,10.012 37.799,9.568 37.29,9.13 36.655,8.814 35.902,8.615 35.159,8.417 34.292,8.3 33.307,8.26 l -0.23,-0.01 z m -12.076,4.5 0,3.75 3.75,0 0,-3.75 -3.75,0 z m 4.5,0 0,3.75 3.75,0 0,-3.75 -3.75,0 z m 4.5,0 0,3.75 3.75,0 0,-3.75 -3.75,0 z"
                 inkscape:connector-curvature="0" />
              <g
                 id="Group_2">
                <path
                   id="path19350"
                   stroke-miterlimit="79.8403193612775"
                   d="m 45.376,46.5 c 1.449,0 2.625,-1.176 2.625,-2.625 0,-1.449 -1.176,-2.625 -2.625,-2.625 -1.449,0 -2.625,1.176 -2.625,2.625 0,1.449 1.176,2.625 2.625,2.625 z"
                   inkscape:connector-curvature="0"
                   style="fill:#92c9f7;stroke-width:0.36700001;marker-start:none;marker-end:none" />
                <path
                   id="path19352"
                   stroke-miterlimit="79.8403193612775"
                   d="m 45.377,47.25 c 1.448,0 2.624,-1.176 2.624,-2.625 0,-1.449 -1.176,-2.625 -2.624,-2.625 -1.448,0 -2.624,1.176 -2.624,2.625 0,1.449 1.176,2.625 2.624,2.625 z"
                   inkscape:connector-curvature="0"
                   style="fill:#5a94c4;stroke-width:0.36700001;marker-start:none;marker-end:none" />
                <path
                   style="fill:url(#LinearGradient_11-73);stroke-width:0.36700001;marker-start:none;marker-end:none"
                   id="path19354"
                   stroke-miterlimit="79.8403193612775"
                   d="m 45.376,46.5 c 1.035,0 1.875,-0.84 1.875,-1.875 0,-1.035 -0.84,-1.875 -1.875,-1.875 -1.035,0 -1.875,0.84 -1.875,1.875 0,1.035 0.84,1.875 1.875,1.875 z"
                   inkscape:connector-curvature="0" />
                <path
                   style="fill:url(#LinearGradient_12-58);stroke-width:2.12400007;marker-start:none;marker-end:none"
                   id="path19356"
                   stroke-miterlimit="79.8403193612775"
                   d="m 43.502,52.18 0,-6.861 c 0,-1.004 0.815,-1.819 1.819,-1.819 l 0.111,0 c 1.004,0 1.819,0.815 1.819,1.819 l 0,6.861 c 0,1.004 -0.815,1.819 -1.819,1.819 l -0.111,0 c -1.004,0 -1.819,-0.815 -1.819,-1.819 z"
                   inkscape:connector-curvature="0" />
                <path
                   id="path19358"
                   stroke-miterlimit="79.8403193612775"
                   d="m 44.251,49.029 0,-3.559 c 0,-0.673 0.504,-1.22 1.124,-1.22 l 10e-4,0 c 0.62,0 1.124,0.547 1.124,1.22 l 0,3.559 c 0,0.673 -0.504,1.22 -1.124,1.22 l -10e-4,0 c -0.62,0 -1.124,-0.547 -1.124,-1.22 z"
                   inkscape:connector-curvature="0"
                   style="fill:#cccccc;stroke-width:2.12400007;marker-start:none;marker-end:none" />
                <path
                   id="path19360"
                   stroke-miterlimit="79.8403193612775"
                   d="m 44.251,52.083 0,-5.917 C 44.251,45.523 44.755,45 45.375,45 l 10e-4,0 c 0.62,0 1.124,0.523 1.124,1.166 l 0,5.917 c 0,0.643 -0.504,1.166 -1.124,1.166 l -10e-4,0 c -0.62,0 -1.124,-0.523 -1.124,-1.166 z"
                   inkscape:connector-curvature="0"
                   style="fill:#7a7a7a;stroke-width:2.12400007;marker-start:none;marker-end:none" />
                <path
                   id="path19362"
                   stroke-miterlimit="79.8403193612775"
                   d="m 44.251,50.679 0,-3.109 c 0,-0.59 0.48,-1.07 1.07,-1.07 l 0.109,0 c 0.59,0 1.07,0.48 1.07,1.07 l 0,3.109 c 0,0.59 -0.48,1.07 -1.07,1.07 l -0.109,0 c -0.59,0 -1.07,-0.48 -1.07,-1.07 z"
                   inkscape:connector-curvature="0"
                   style="fill:#bababa;stroke-width:2.12400007;marker-start:none;marker-end:none" />
                <path
                   id="path19364"
                   stroke-miterlimit="79.8403193612775"
                   d="m 44.252,49.97 0,-0.939 C 44.252,48.462 44.714,48 45.283,48 l 0.189,0 c 0.569,0 1.031,0.462 1.031,1.031 l 0,0.939 c 0,0.569 -0.462,1.031 -1.031,1.031 l -0.189,0 c -0.569,0 -1.031,-0.462 -1.031,-1.031 z"
                   inkscape:connector-curvature="0"
                   style="fill:#ffffff;stroke-width:2.12400007;marker-start:none;marker-end:none" />
              </g>
              <g
                 id="Group_3">
                <path
                   id="path19367"
                   stroke-miterlimit="79.8403193612775"
                   d="m 9.376,46.5 c 1.449,0 2.625,-1.176 2.625,-2.625 0,-1.449 -1.176,-2.625 -2.625,-2.625 -1.449,0 -2.625,1.176 -2.625,2.625 0,1.449 1.176,2.625 2.625,2.625 z"
                   inkscape:connector-curvature="0"
                   style="fill:#92c9f7;stroke-width:0.36700001;marker-start:none;marker-end:none" />
                <path
                   id="path19369"
                   stroke-miterlimit="79.8403193612775"
                   d="m 9.377,47.25 c 1.448,0 2.624,-1.176 2.624,-2.625 0,-1.449 -1.176,-2.625 -2.624,-2.625 -1.448,0 -2.624,1.176 -2.624,2.625 0,1.449 1.176,2.625 2.624,2.625 z"
                   inkscape:connector-curvature="0"
                   style="fill:#5a94c4;stroke-width:0.36700001;marker-start:none;marker-end:none" />
                <path
                   style="fill:url(#LinearGradient_13-56);stroke-width:0.36700001;marker-start:none;marker-end:none"
                   id="path19371"
                   stroke-miterlimit="79.8403193612775"
                   d="m 9.376,46.5 c 1.035,0 1.875,-0.84 1.875,-1.875 0,-1.035 -0.84,-1.875 -1.875,-1.875 -1.035,0 -1.875,0.84 -1.875,1.875 0,1.035 0.84,1.875 1.875,1.875 z"
                   inkscape:connector-curvature="0" />
                <path
                   style="fill:url(#LinearGradient_14-90);stroke-width:2.12400007;marker-start:none;marker-end:none"
                   id="path19373"
                   stroke-miterlimit="79.8403193612775"
                   d="m 7.502,52.18 0,-6.861 c 0,-1.004 0.815,-1.819 1.819,-1.819 l 0.111,0 c 1.004,0 1.819,0.815 1.819,1.819 l 0,6.861 c 0,1.004 -0.815,1.819 -1.819,1.819 l -0.111,0 c -1.004,0 -1.819,-0.815 -1.819,-1.819 z"
                   inkscape:connector-curvature="0" />
                <path
                   id="path19375"
                   stroke-miterlimit="79.8403193612775"
                   d="m 8.251,49.029 0,-3.559 c 0,-0.673 0.504,-1.22 1.124,-1.22 l 10e-4,0 c 0.62,0 1.124,0.547 1.124,1.22 l 0,3.559 c 0,0.673 -0.504,1.22 -1.124,1.22 l -10e-4,0 c -0.62,0 -1.124,-0.547 -1.124,-1.22 z"
                   inkscape:connector-curvature="0"
                   style="fill:#cccccc;stroke-width:2.12400007;marker-start:none;marker-end:none" />
                <path
                   id="path19377"
                   stroke-miterlimit="79.8403193612775"
                   d="m 8.251,52.083 0,-5.917 C 8.251,45.523 8.755,45 9.375,45 l 10e-4,0 c 0.62,0 1.124,0.523 1.124,1.166 l 0,5.917 c 0,0.643 -0.504,1.166 -1.124,1.166 l -10e-4,0 c -0.62,0 -1.124,-0.523 -1.124,-1.166 z"
                   inkscape:connector-curvature="0"
                   style="fill:#7a7a7a;stroke-width:2.12400007;marker-start:none;marker-end:none" />
                <path
                   id="path19379"
                   stroke-miterlimit="79.8403193612775"
                   d="m 8.251,50.679 0,-3.109 c 0,-0.59 0.48,-1.07 1.07,-1.07 l 0.109,0 c 0.59,0 1.07,0.48 1.07,1.07 l 0,3.109 c 0,0.59 -0.48,1.07 -1.07,1.07 l -0.109,0 c -0.59,0 -1.07,-0.48 -1.07,-1.07 z"
                   inkscape:connector-curvature="0"
                   style="fill:#bababa;stroke-width:2.12400007;marker-start:none;marker-end:none" />
                <path
                   id="path19381"
                   stroke-miterlimit="79.8403193612775"
                   d="m 8.252,49.97 0,-0.939 C 8.252,48.462 8.714,48 9.283,48 l 0.189,0 c 0.569,0 1.031,0.462 1.031,1.031 l 0,0.939 c 0,0.569 -0.462,1.031 -1.031,1.031 l -0.189,0 c -0.569,0 -1.031,-0.462 -1.031,-1.031 z"
                   inkscape:connector-curvature="0"
                   style="fill:#ffffff;stroke-width:2.12400007;marker-start:none;marker-end:none" />
              </g>
              <g
                 id="Group_4">
                <path
                   id="path19384"
                   stroke-miterlimit="79.8403193612775"
                   d="m 18.376,46.5 c 1.449,0 2.625,-1.176 2.625,-2.625 0,-1.449 -1.176,-2.625 -2.625,-2.625 -1.449,0 -2.625,1.176 -2.625,2.625 0,1.449 1.176,2.625 2.625,2.625 z"
                   inkscape:connector-curvature="0"
                   style="fill:#92c9f7;stroke-width:0.36700001;marker-start:none;marker-end:none" />
                <path
                   id="path19386"
                   stroke-miterlimit="79.8403193612775"
                   d="m 18.377,47.25 c 1.448,0 2.624,-1.176 2.624,-2.625 0,-1.449 -1.176,-2.625 -2.624,-2.625 -1.448,0 -2.624,1.176 -2.624,2.625 0,1.449 1.176,2.625 2.624,2.625 z"
                   inkscape:connector-curvature="0"
                   style="fill:#5a94c4;stroke-width:0.36700001;marker-start:none;marker-end:none" />
                <path
                   style="fill:url(#LinearGradient_15-89);stroke-width:0.36700001;marker-start:none;marker-end:none"
                   id="path19388"
                   stroke-miterlimit="79.8403193612775"
                   d="m 18.376,46.5 c 1.035,0 1.875,-0.84 1.875,-1.875 0,-1.035 -0.84,-1.875 -1.875,-1.875 -1.035,0 -1.875,0.84 -1.875,1.875 0,1.035 0.84,1.875 1.875,1.875 z"
                   inkscape:connector-curvature="0" />
                <path
                   style="fill:url(#LinearGradient_16-3);stroke-width:2.12400007;marker-start:none;marker-end:none"
                   id="path19390"
                   stroke-miterlimit="79.8403193612775"
                   d="m 16.502,52.18 0,-6.861 c 0,-1.004 0.815,-1.819 1.819,-1.819 l 0.111,0 c 1.004,0 1.819,0.815 1.819,1.819 l 0,6.861 c 0,1.004 -0.815,1.819 -1.819,1.819 l -0.111,0 c -1.004,0 -1.819,-0.815 -1.819,-1.819 z"
                   inkscape:connector-curvature="0" />
                <path
                   id="path19392"
                   stroke-miterlimit="79.8403193612775"
                   d="m 17.251,49.029 0,-3.559 c 0,-0.673 0.504,-1.22 1.124,-1.22 l 0.001,0 c 0.62,0 1.124,0.547 1.124,1.22 l 0,3.559 c 0,0.673 -0.504,1.22 -1.124,1.22 l -0.001,0 c -0.62,0 -1.124,-0.547 -1.124,-1.22 z"
                   inkscape:connector-curvature="0"
                   style="fill:#cccccc;stroke-width:2.12400007;marker-start:none;marker-end:none" />
                <path
                   id="path19394"
                   stroke-miterlimit="79.8403193612775"
                   d="m 17.251,52.083 0,-5.917 C 17.251,45.523 17.755,45 18.375,45 l 0.001,0 c 0.62,0 1.124,0.523 1.124,1.166 l 0,5.917 c 0,0.643 -0.504,1.166 -1.124,1.166 l -0.001,0 c -0.62,0 -1.124,-0.523 -1.124,-1.166 z"
                   inkscape:connector-curvature="0"
                   style="fill:#7a7a7a;stroke-width:2.12400007;marker-start:none;marker-end:none" />
                <path
                   id="path19396"
                   stroke-miterlimit="79.8403193612775"
                   d="m 17.251,50.679 0,-3.109 c 0,-0.59 0.48,-1.07 1.07,-1.07 l 0.109,0 c 0.59,0 1.07,0.48 1.07,1.07 l 0,3.109 c 0,0.59 -0.48,1.07 -1.07,1.07 l -0.109,0 c -0.59,0 -1.07,-0.48 -1.07,-1.07 z"
                   inkscape:connector-curvature="0"
                   style="fill:#bababa;stroke-width:2.12400007;marker-start:none;marker-end:none" />
                <path
                   id="path19398"
                   stroke-miterlimit="79.8403193612775"
                   d="m 17.252,49.97 0,-0.939 C 17.252,48.462 17.714,48 18.283,48 l 0.189,0 c 0.569,0 1.031,0.462 1.031,1.031 l 0,0.939 c 0,0.569 -0.462,1.031 -1.031,1.031 l -0.189,0 c -0.569,0 -1.031,-0.462 -1.031,-1.031 z"
                   inkscape:connector-curvature="0"
                   style="fill:#ffffff;stroke-width:2.12400007;marker-start:none;marker-end:none" />
              </g>
              <g
                 id="Group_5">
                <path
                   id="path19401"
                   stroke-miterlimit="79.8403193612775"
                   d="m 27.376,46.5 c 1.449,0 2.625,-1.176 2.625,-2.625 0,-1.449 -1.176,-2.625 -2.625,-2.625 -1.449,0 -2.625,1.176 -2.625,2.625 0,1.449 1.176,2.625 2.625,2.625 z"
                   inkscape:connector-curvature="0"
                   style="fill:#92c9f7;stroke-width:0.36700001;marker-start:none;marker-end:none" />
                <path
                   id="path19403"
                   stroke-miterlimit="79.8403193612775"
                   d="m 27.377,47.25 c 1.448,0 2.624,-1.176 2.624,-2.625 0,-1.449 -1.176,-2.625 -2.624,-2.625 -1.448,0 -2.624,1.176 -2.624,2.625 0,1.449 1.176,2.625 2.624,2.625 z"
                   inkscape:connector-curvature="0"
                   style="fill:#5a94c4;stroke-width:0.36700001;marker-start:none;marker-end:none" />
                <path
                   style="fill:url(#LinearGradient_17-60);stroke-width:0.36700001;marker-start:none;marker-end:none"
                   id="path19405"
                   stroke-miterlimit="79.8403193612775"
                   d="m 27.376,46.5 c 1.035,0 1.875,-0.84 1.875,-1.875 0,-1.035 -0.84,-1.875 -1.875,-1.875 -1.035,0 -1.875,0.84 -1.875,1.875 0,1.035 0.84,1.875 1.875,1.875 z"
                   inkscape:connector-curvature="0" />
                <path
                   style="fill:url(#LinearGradient_18-6);stroke-width:2.12400007;marker-start:none;marker-end:none"
                   id="path19407"
                   stroke-miterlimit="79.8403193612775"
                   d="m 25.502,52.18 0,-6.861 c 0,-1.004 0.815,-1.819 1.819,-1.819 l 0.111,0 c 1.004,0 1.819,0.815 1.819,1.819 l 0,6.861 c 0,1.004 -0.815,1.819 -1.819,1.819 l -0.111,0 c -1.004,0 -1.819,-0.815 -1.819,-1.819 z"
                   inkscape:connector-curvature="0" />
                <path
                   id="path19409"
                   stroke-miterlimit="79.8403193612775"
                   d="m 26.251,49.029 0,-3.559 c 0,-0.673 0.504,-1.22 1.124,-1.22 l 0.001,0 c 0.62,0 1.124,0.547 1.124,1.22 l 0,3.559 c 0,0.673 -0.504,1.22 -1.124,1.22 l -0.001,0 c -0.62,0 -1.124,-0.547 -1.124,-1.22 z"
                   inkscape:connector-curvature="0"
                   style="fill:#cccccc;stroke-width:2.12400007;marker-start:none;marker-end:none" />
                <path
                   id="path19411"
                   stroke-miterlimit="79.8403193612775"
                   d="m 26.251,52.083 0,-5.917 C 26.251,45.523 26.755,45 27.375,45 l 0.001,0 c 0.62,0 1.124,0.523 1.124,1.166 l 0,5.917 c 0,0.643 -0.504,1.166 -1.124,1.166 l -0.001,0 c -0.62,0 -1.124,-0.523 -1.124,-1.166 z"
                   inkscape:connector-curvature="0"
                   style="fill:#7a7a7a;stroke-width:2.12400007;marker-start:none;marker-end:none" />
                <path
                   id="path19413"
                   stroke-miterlimit="79.8403193612775"
                   d="m 26.251,50.679 0,-3.109 c 0,-0.59 0.48,-1.07 1.07,-1.07 l 0.109,0 c 0.59,0 1.07,0.48 1.07,1.07 l 0,3.109 c 0,0.59 -0.48,1.07 -1.07,1.07 l -0.109,0 c -0.59,0 -1.07,-0.48 -1.07,-1.07 z"
                   inkscape:connector-curvature="0"
                   style="fill:#bababa;stroke-width:2.12400007;marker-start:none;marker-end:none" />
                <path
                   id="path19415"
                   stroke-miterlimit="79.8403193612775"
                   d="m 26.252,49.97 0,-0.939 C 26.252,48.462 26.714,48 27.283,48 l 0.189,0 c 0.569,0 1.031,0.462 1.031,1.031 l 0,0.939 c 0,0.569 -0.462,1.031 -1.031,1.031 l -0.189,0 c -0.569,0 -1.031,-0.462 -1.031,-1.031 z"
                   inkscape:connector-curvature="0"
                   style="fill:#ffffff;stroke-width:2.12400007;marker-start:none;marker-end:none" />
              </g>
              <g
                 id="Group_6">
                <path
                   id="path19418"
                   stroke-miterlimit="79.8403193612775"
                   d="m 36.376,46.5 c 1.449,0 2.625,-1.176 2.625,-2.625 0,-1.449 -1.176,-2.625 -2.625,-2.625 -1.449,0 -2.625,1.176 -2.625,2.625 0,1.449 1.176,2.625 2.625,2.625 z"
                   inkscape:connector-curvature="0"
                   style="fill:#92c9f7;stroke-width:0.36700001;marker-start:none;marker-end:none" />
                <path
                   id="path19420"
                   stroke-miterlimit="79.8403193612775"
                   d="m 36.377,47.25 c 1.448,0 2.624,-1.176 2.624,-2.625 0,-1.449 -1.176,-2.625 -2.624,-2.625 -1.448,0 -2.624,1.176 -2.624,2.625 0,1.449 1.176,2.625 2.624,2.625 z"
                   inkscape:connector-curvature="0"
                   style="fill:#5a94c4;stroke-width:0.36700001;marker-start:none;marker-end:none" />
                <path
                   style="fill:url(#LinearGradient_19-9);stroke-width:0.36700001;marker-start:none;marker-end:none"
                   id="path19422"
                   stroke-miterlimit="79.8403193612775"
                   d="m 36.376,46.5 c 1.035,0 1.875,-0.84 1.875,-1.875 0,-1.035 -0.84,-1.875 -1.875,-1.875 -1.035,0 -1.875,0.84 -1.875,1.875 0,1.035 0.84,1.875 1.875,1.875 z"
                   inkscape:connector-curvature="0" />
                <path
                   style="fill:url(#LinearGradient_20-7);stroke-width:2.12400007;marker-start:none;marker-end:none"
                   id="path19424"
                   stroke-miterlimit="79.8403193612775"
                   d="m 34.502,52.18 0,-6.861 c 0,-1.004 0.815,-1.819 1.819,-1.819 l 0.111,0 c 1.004,0 1.819,0.815 1.819,1.819 l 0,6.861 c 0,1.004 -0.815,1.819 -1.819,1.819 l -0.111,0 c -1.004,0 -1.819,-0.815 -1.819,-1.819 z"
                   inkscape:connector-curvature="0" />
                <path
                   id="path19426"
                   stroke-miterlimit="79.8403193612775"
                   d="m 35.251,49.029 0,-3.559 c 0,-0.673 0.504,-1.22 1.124,-1.22 l 10e-4,0 c 0.62,0 1.124,0.547 1.124,1.22 l 0,3.559 c 0,0.673 -0.504,1.22 -1.124,1.22 l -10e-4,0 c -0.62,0 -1.124,-0.547 -1.124,-1.22 z"
                   inkscape:connector-curvature="0"
                   style="fill:#cccccc;stroke-width:2.12400007;marker-start:none;marker-end:none" />
                <path
                   id="path19428"
                   stroke-miterlimit="79.8403193612775"
                   d="m 35.251,52.083 0,-5.917 C 35.251,45.523 35.755,45 36.375,45 l 10e-4,0 c 0.62,0 1.124,0.523 1.124,1.166 l 0,5.917 c 0,0.643 -0.504,1.166 -1.124,1.166 l -10e-4,0 c -0.62,0 -1.124,-0.523 -1.124,-1.166 z"
                   inkscape:connector-curvature="0"
                   style="fill:#7a7a7a;stroke-width:2.12400007;marker-start:none;marker-end:none" />
                <path
                   id="path19430"
                   stroke-miterlimit="79.8403193612775"
                   d="m 35.251,50.679 0,-3.109 c 0,-0.59 0.48,-1.07 1.07,-1.07 l 0.109,0 c 0.59,0 1.07,0.48 1.07,1.07 l 0,3.109 c 0,0.59 -0.48,1.07 -1.07,1.07 l -0.109,0 c -0.59,0 -1.07,-0.48 -1.07,-1.07 z"
                   inkscape:connector-curvature="0"
                   style="fill:#bababa;stroke-width:2.12400007;marker-start:none;marker-end:none" />
                <path
                   id="path19432"
                   stroke-miterlimit="79.8403193612775"
                   d="m 35.252,49.97 0,-0.939 C 35.252,48.462 35.714,48 36.283,48 l 0.189,0 c 0.569,0 1.031,0.462 1.031,1.031 l 0,0.939 c 0,0.569 -0.462,1.031 -1.031,1.031 l -0.189,0 c -0.569,0 -1.031,-0.462 -1.031,-1.031 z"
                   inkscape:connector-curvature="0"
                   style="fill:#ffffff;stroke-width:2.12400007;marker-start:none;marker-end:none" />
              </g>
            </g>
          </g>
        </g>
      </g>
    </g>
  </g>
</svg>
