<?xml version="1.0" encoding="UTF-8" standalone="no"?>
<!-- Creator: CorelDRAW -->

<svg
   xmlns:dc="http://purl.org/dc/elements/1.1/"
   xmlns:cc="http://creativecommons.org/ns#"
   xmlns:rdf="http://www.w3.org/1999/02/22-rdf-syntax-ns#"
   xmlns:svg="http://www.w3.org/2000/svg"
   xmlns="http://www.w3.org/2000/svg"
   xmlns:xlink="http://www.w3.org/1999/xlink"
   xmlns:sodipodi="http://sodipodi.sourceforge.net/DTD/sodipodi-0.dtd"
   xmlns:inkscape="http://www.inkscape.org/namespaces/inkscape"
   xml:space="preserve"
   width="64px"
   height="64px"
   style="shape-rendering:geometricPrecision; text-rendering:geometricPrecision; image-rendering:optimizeQuality; fill-rule:evenodd; clip-rule:evenodd"
   viewBox="0 0 64 64"
   id="svg4264"
   version="1.1"
   inkscape:version="0.48.1 r9760"
   sodipodi:docname="camera-photo.svg"><metadata
   id="metadata4703"><rdf:RDF><cc:Work
       rdf:about=""><dc:format>image/svg+xml</dc:format><dc:type
         rdf:resource="http://purl.org/dc/dcmitype/StillImage" /><dc:title></dc:title></cc:Work></rdf:RDF></metadata><sodipodi:namedview
   pagecolor="#ffffff"
   bordercolor="#666666"
   borderopacity="1"
   objecttolerance="10"
   gridtolerance="10"
   guidetolerance="10"
   inkscape:pageopacity="0"
   inkscape:pageshadow="2"
   inkscape:window-width="646"
   inkscape:window-height="480"
   id="namedview4701"
   showgrid="false"
   inkscape:zoom="4.15625"
   inkscape:cx="32"
   inkscape:cy="32"
   inkscape:window-x="0"
   inkscape:window-y="24"
   inkscape:window-maximized="0"
   inkscape:current-layer="svg4264" />
 <defs
   id="defs4266">
  <style
   type="text/css"
   id="style4268">
   
    .fil55 {fill:none}
    .fil65 {fill:none}
    .fil56 {fill:none}
    .fil66 {fill:none}
    .fil57 {fill:none}
    .fil67 {fill:none}
    .fil68 {fill:none}
    .fil58 {fill:none}
    .fil69 {fill:none}
    .fil59 {fill:none}
    .fil70 {fill:none}
    .fil71 {fill:none}
    .fil60 {fill:none}
    .fil72 {fill:none}
    .fil61 {fill:none}
    .fil73 {fill:none}
    .fil74 {fill:none}
    .fil62 {fill:none}
    .fil75 {fill:none}
    .fil63 {fill:none}
    .fil76 {fill:none}
    .fil64 {fill:none}
    .fil105 {fill:#191919}
    .fil133 {fill:#333333}
    .fil134 {fill:#4C4C4C}
    .fil80 {fill:#525151}
    .fil157 {fill:#76C8CC}
    .fil132 {fill:#7F7F7F}
    .fil193 {fill:#808385}
    .fil126 {fill:#999999}
    .fil135 {fill:#CC99FF}
    .fil15 {fill:#CCCCCC}
    .fil14 {fill:#DEDEDE}
    .fil77 {fill:#E5E5E5}
    .fil127 {fill:#ECEDED}
    .fil79 {fill:white}
    .fil168 {fill:#C2FFFF}
    .fil136 {fill:#333333;fill-rule:nonzero}
    .fil130 {fill:#808385;fill-rule:nonzero}
    .fil78 {fill:#999999;fill-rule:nonzero}
    .fil128 {fill:#999EA1;fill-rule:nonzero}
    .fil131 {fill:#B2B2B2;fill-rule:nonzero}
    .fil129 {fill:white;fill-rule:nonzero}
    .fil0 {fill:black;fill-opacity:0.000000}
    .fil95 {fill:#191919;fill-opacity:0.000000}
    .fil116 {fill:#333333;fill-opacity:0.000000}
    .fil17 {fill:#4C4C4C;fill-opacity:0.000000}
    .fil141 {fill:#6EE6C6;fill-opacity:0.000000}
    .fil106 {fill:#828282;fill-opacity:0.000000}
    .fil41 {fill:#B2B2B2;fill-opacity:0.000000}
    .fil158 {fill:#F8EBB3;fill-opacity:0.000000}
    .fil169 {fill:#FFF9A3;fill-opacity:0.000000}
    .fil27 {fill:white;fill-opacity:0.000000}
    .fil1 {fill:black;fill-opacity:0.003922}
    .fil2 {fill:black;fill-opacity:0.007843}
    .fil3 {fill:black;fill-opacity:0.015686}
    .fil42 {fill:#B2B2B2;fill-opacity:0.015686}
    .fil28 {fill:white;fill-opacity:0.015686}
    .fil142 {fill:#76E8C0;fill-opacity:0.015686}
    .fil4 {fill:black;fill-opacity:0.019608}
    .fil96 {fill:#191919;fill-opacity:0.023529}
    .fil18 {fill:#4C4C4C;fill-opacity:0.023529}
    .fil5 {fill:black;fill-opacity:0.023529}
    .fil107 {fill:#828282;fill-opacity:0.023529}
    .fil170 {fill:#FFF9A3;fill-opacity:0.023529}
    .fil6 {fill:black;fill-opacity:0.027451}
    .fil43 {fill:#B2B2B2;fill-opacity:0.031373}
    .fil29 {fill:white;fill-opacity:0.031373}
    .fil7 {fill:black;fill-opacity:0.031373}
    .fil143 {fill:#7EEAB9;fill-opacity:0.035294}
    .fil117 {fill:#333333;fill-opacity:0.035294}
    .fil8 {fill:black;fill-opacity:0.035294}
    .fil191 {fill:#5A2B89;fill-opacity:0.039216}
    .fil9 {fill:black;fill-opacity:0.043137}
    .fil97 {fill:#191919;fill-opacity:0.043137}
    .fil19 {fill:#4C4C4C;fill-opacity:0.043137}
    .fil10 {fill:black;fill-opacity:0.047059}
    .fil44 {fill:#B2B2B2;fill-opacity:0.047059}
    .fil30 {fill:white;fill-opacity:0.047059}
    .fil108 {fill:#828282;fill-opacity:0.047059}
    .fil159 {fill:#F8EBB3;fill-opacity:0.047059}
    .fil171 {fill:#FFF9A3;fill-opacity:0.047059}
    .fil11 {fill:black;fill-opacity:0.050980}
    .fil144 {fill:#86ECB3;fill-opacity:0.050980}
    .fil12 {fill:black;fill-opacity:0.054902}
    .fil13 {fill:black;fill-opacity:0.058824}
    .fil45 {fill:#B2B2B2;fill-opacity:0.062745}
    .fil31 {fill:white;fill-opacity:0.062745}
    .fil98 {fill:#191919;fill-opacity:0.066667}
    .fil20 {fill:#4C4C4C;fill-opacity:0.066667}
    .fil145 {fill:#8EEEAC;fill-opacity:0.066667}
    .fil118 {fill:#333333;fill-opacity:0.070588}
    .fil109 {fill:#828282;fill-opacity:0.074510}
    .fil172 {fill:#FFF9A3;fill-opacity:0.074510}
    .fil46 {fill:#B2B2B2;fill-opacity:0.078431}
    .fil32 {fill:white;fill-opacity:0.078431}
    .fil190 {fill:#562884;fill-opacity:0.078431}
    .fil146 {fill:#96F0A5;fill-opacity:0.086275}
    .fil99 {fill:#191919;fill-opacity:0.090196}
    .fil21 {fill:#4C4C4C;fill-opacity:0.090196}
    .fil47 {fill:#B2B2B2;fill-opacity:0.094118}
    .fil33 {fill:white;fill-opacity:0.094118}
    .fil110 {fill:#828282;fill-opacity:0.098039}
    .fil160 {fill:#F8EBB3;fill-opacity:0.098039}
    .fil173 {fill:#FFF9A3;fill-opacity:0.098039}
    .fil147 {fill:#9EF29F;fill-opacity:0.101961}
    .fil119 {fill:#333333;fill-opacity:0.105882}
    .fil48 {fill:#B2B2B2;fill-opacity:0.105882}
    .fil34 {fill:white;fill-opacity:0.105882}
    .fil100 {fill:#191919;fill-opacity:0.109804}
    .fil22 {fill:#4C4C4C;fill-opacity:0.109804}
    .fil189 {fill:#52257F;fill-opacity:0.113725}
    .fil148 {fill:#A5F498;fill-opacity:0.117647}
    .fil111 {fill:#828282;fill-opacity:0.121569}
    .fil174 {fill:#FFF9A3;fill-opacity:0.121569}
    .fil49 {fill:#B2B2B2;fill-opacity:0.121569}
    .fil35 {fill:white;fill-opacity:0.121569}
    .fil101 {fill:#191919;fill-opacity:0.133333}
    .fil23 {fill:#4C4C4C;fill-opacity:0.133333}
    .fil149 {fill:#ADF692;fill-opacity:0.137255}
    .fil50 {fill:#B2B2B2;fill-opacity:0.137255}
    .fil36 {fill:white;fill-opacity:0.137255}
    .fil120 {fill:#333333;fill-opacity:0.141176}
    .fil112 {fill:#828282;fill-opacity:0.145098}
    .fil161 {fill:#F8EBB3;fill-opacity:0.145098}
    .fil175 {fill:#FFF9A3;fill-opacity:0.145098}
    .fil150 {fill:#B5F88B;fill-opacity:0.152941}
    .fil51 {fill:#B2B2B2;fill-opacity:0.152941}
    .fil37 {fill:white;fill-opacity:0.152941}
    .fil188 {fill:#4D2179;fill-opacity:0.152941}
    .fil102 {fill:#191919;fill-opacity:0.156863}
    .fil24 {fill:#4C4C4C;fill-opacity:0.156863}
    .fil52 {fill:#B2B2B2;fill-opacity:0.168627}
    .fil151 {fill:#BDFA84;fill-opacity:0.168627}
    .fil38 {fill:white;fill-opacity:0.168627}
    .fil113 {fill:#828282;fill-opacity:0.172549}
    .fil176 {fill:#FFF9A3;fill-opacity:0.172549}
    .fil103 {fill:#191919;fill-opacity:0.176471}
    .fil121 {fill:#333333;fill-opacity:0.176471}
    .fil25 {fill:#4C4C4C;fill-opacity:0.176471}
    .fil156 {fill:#BBE6FF;fill-opacity:0.180392}
    .fil53 {fill:#B2B2B2;fill-opacity:0.184314}
    .fil39 {fill:white;fill-opacity:0.184314}
    .fil152 {fill:#C5FC7E;fill-opacity:0.184314}
    .fil187 {fill:#491E74;fill-opacity:0.192157}
    .fil114 {fill:#828282;fill-opacity:0.196078}
    .fil162 {fill:#F8EBB3;fill-opacity:0.196078}
    .fil177 {fill:#FFF9A3;fill-opacity:0.196078}
    .fil104 {fill:#191919;fill-opacity:0.200000}
    .fil26 {fill:#4C4C4C;fill-opacity:0.200000}
    .fil54 {fill:#B2B2B2;fill-opacity:0.200000}
    .fil40 {fill:white;fill-opacity:0.200000}
    .fil153 {fill:#CDFE77;fill-opacity:0.203922}
    .fil122 {fill:#333333;fill-opacity:0.211765}
    .fil115 {fill:#828282;fill-opacity:0.219608}
    .fil154 {fill:#D4FF70;fill-opacity:0.219608}
    .fil178 {fill:#FFF9A3;fill-opacity:0.219608}
    .fil186 {fill:#451B6F;fill-opacity:0.231373}
    .fil163 {fill:#F8EBB3;fill-opacity:0.243137}
    .fil123 {fill:#333333;fill-opacity:0.247059}
    .fil185 {fill:#401869;fill-opacity:0.270588}
    .fil124 {fill:#333333;fill-opacity:0.286275}
    .fil164 {fill:#F8EBB3;fill-opacity:0.294118}
    .fil184 {fill:#3C1564;fill-opacity:0.305882}
    .fil125 {fill:#333333;fill-opacity:0.321569}
    .fil165 {fill:#F8EBB3;fill-opacity:0.341176}
    .fil183 {fill:#38125F;fill-opacity:0.345098}
    .fil182 {fill:#330E59;fill-opacity:0.384314}
    .fil166 {fill:#F8EBB3;fill-opacity:0.392157}
    .fil181 {fill:#2F0B54;fill-opacity:0.423529}
    .fil167 {fill:#F8EBB3;fill-opacity:0.439216}
    .fil180 {fill:#2B084F;fill-opacity:0.462745}
    .fil179 {fill:#28064A;fill-opacity:0.501961}
    .fil139 {fill:black;fill-opacity:0.760784}
    .fil192 {fill:url(#id2)}
    .fil138 {fill:url(#id3)}
    .fil137 {fill:url(#id4)}
    .fil16 {fill:url(#id5)}
    .fil81 {fill:url(#id6);fill-opacity:0.000000}
    .fil82 {fill:url(#id7);fill-opacity:0.015686}
    .fil83 {fill:url(#id8);fill-opacity:0.031373}
    .fil84 {fill:url(#id9);fill-opacity:0.047059}
    .fil85 {fill:url(#id10);fill-opacity:0.062745}
    .fil86 {fill:url(#id11);fill-opacity:0.078431}
    .fil87 {fill:url(#id12);fill-opacity:0.094118}
    .fil88 {fill:url(#id13);fill-opacity:0.105882}
    .fil89 {fill:url(#id14);fill-opacity:0.121569}
    .fil90 {fill:url(#id15);fill-opacity:0.137255}
    .fil91 {fill:url(#id16);fill-opacity:0.152941}
    .fil92 {fill:url(#id17);fill-opacity:0.168627}
    .fil93 {fill:url(#id18);fill-opacity:0.184314}
    .fil94 {fill:url(#id19);fill-opacity:0.200000}
    .fil140 {fill:url(#id20);fill-opacity:0.439216}
    .fil155 {fill:url(#id21);fill-opacity:0.501961}
   
  </style>
   <mask
   id="id0">
  <linearGradient
   id="id1"
   gradientUnits="userSpaceOnUse"
   x1="38.1749"
   y1="41.0958"
   x2="36.2284"
   y2="38.4146">
   <stop
   offset="0"
   style="stop-opacity:1; stop-color:white"
   id="stop4272" />
   <stop
   offset="1"
   style="stop-opacity:0; stop-color:white"
   id="stop4274" />
  </linearGradient>
    <rect
   style="fill:url(#id1)"
   x="34.9741"
   y="37.5276"
   width="4.45635"
   height="4.45635"
   id="rect4276" />
   </mask>
  <linearGradient
   id="id2"
   gradientUnits="userSpaceOnUse"
   x1="37.4603"
   y1="31.4331"
   x2="37.4603"
   y2="41.3521">
   <stop
   offset="0"
   style="stop-color:#FF99FF"
   id="stop4279" />
   <stop
   offset="1"
   style="stop-color:#BBE6FF"
   id="stop4281" />
  </linearGradient>
  <linearGradient
   id="id3"
   gradientUnits="userSpaceOnUse"
   x1="37.0304"
   y1="26.9543"
   x2="38.0284"
   y2="54.107">
   <stop
   offset="0"
   style="stop-color:#5C5A5A"
   id="stop4284" />
   <stop
   offset="1"
   style="stop-color:#737272"
   id="stop4286" />
  </linearGradient>
  <linearGradient
   id="id4"
   gradientUnits="userSpaceOnUse"
   xlink:href="#id3"
   x1="36.9134"
   y1="24.2294"
   x2="38.1454"
   y2="57.0113">
  </linearGradient>
  <linearGradient
   id="id5"
   gradientUnits="userSpaceOnUse"
   x1="31.9327"
   y1="21.7396"
   x2="31.9327"
   y2="52.8703">
   <stop
   offset="0"
   style="stop-color:#DBD8D8"
   id="stop4290" />
   <stop
   offset="1"
   style="stop-color:#B2B2B2"
   id="stop4292" />
  </linearGradient>
  <linearGradient
   id="id6"
   gradientUnits="userSpaceOnUse"
   x1="58.8574"
   y1="26.9141"
   x2="58.8574"
   y2="58.6909">
   <stop
   offset="0"
   style="stop-color:#666666"
   id="stop4295" />
   <stop
   offset="1"
   style="stop-color:#4C4C4C"
   id="stop4297" />
  </linearGradient>
  <linearGradient
   id="id7"
   gradientUnits="userSpaceOnUse"
   xlink:href="#id6"
   x1="58.8574"
   y1="26.9141"
   x2="58.8574"
   y2="58.6909">
  </linearGradient>
  <linearGradient
   id="id8"
   gradientUnits="userSpaceOnUse"
   xlink:href="#id6"
   x1="58.8574"
   y1="26.9141"
   x2="58.8574"
   y2="58.6909">
  </linearGradient>
  <linearGradient
   id="id9"
   gradientUnits="userSpaceOnUse"
   xlink:href="#id6"
   x1="58.8574"
   y1="26.9141"
   x2="58.8574"
   y2="58.6909">
  </linearGradient>
  <linearGradient
   id="id10"
   gradientUnits="userSpaceOnUse"
   xlink:href="#id6"
   x1="58.8574"
   y1="26.9141"
   x2="58.8574"
   y2="58.6909">
  </linearGradient>
  <linearGradient
   id="id11"
   gradientUnits="userSpaceOnUse"
   xlink:href="#id6"
   x1="58.8574"
   y1="26.9141"
   x2="58.8574"
   y2="58.6909">
  </linearGradient>
  <linearGradient
   id="id12"
   gradientUnits="userSpaceOnUse"
   xlink:href="#id6"
   x1="58.8574"
   y1="26.9141"
   x2="58.8574"
   y2="58.6909">
  </linearGradient>
  <linearGradient
   id="id13"
   gradientUnits="userSpaceOnUse"
   xlink:href="#id6"
   x1="58.8574"
   y1="26.9141"
   x2="58.8574"
   y2="58.6909">
  </linearGradient>
  <linearGradient
   id="id14"
   gradientUnits="userSpaceOnUse"
   xlink:href="#id6"
   x1="58.8574"
   y1="26.9141"
   x2="58.8574"
   y2="58.6909">
  </linearGradient>
  <linearGradient
   id="id15"
   gradientUnits="userSpaceOnUse"
   xlink:href="#id6"
   x1="58.8574"
   y1="26.9141"
   x2="58.8574"
   y2="58.6909">
  </linearGradient>
  <linearGradient
   id="id16"
   gradientUnits="userSpaceOnUse"
   xlink:href="#id6"
   x1="58.8574"
   y1="26.9141"
   x2="58.8574"
   y2="58.6909">
  </linearGradient>
  <linearGradient
   id="id17"
   gradientUnits="userSpaceOnUse"
   xlink:href="#id6"
   x1="58.8574"
   y1="26.9141"
   x2="58.8574"
   y2="58.6909">
  </linearGradient>
  <linearGradient
   id="id18"
   gradientUnits="userSpaceOnUse"
   xlink:href="#id6"
   x1="58.8574"
   y1="26.9141"
   x2="58.8574"
   y2="58.6909">
  </linearGradient>
  <linearGradient
   id="id19"
   gradientUnits="userSpaceOnUse"
   xlink:href="#id6"
   x1="58.8574"
   y1="26.9141"
   x2="58.8574"
   y2="58.6909">
  </linearGradient>
  <linearGradient
   id="id20"
   gradientUnits="userSpaceOnUse"
   x1="36.2993"
   y1="31.2701"
   x2="38.1087"
   y2="50.6168">
   <stop
   offset="0"
   style="stop-color:#A100A1"
   id="stop4313" />
   <stop
   offset="1"
   style="stop-color:#2467D4"
   id="stop4315" />
  </linearGradient>
  <linearGradient
   id="id21"
   gradientUnits="userSpaceOnUse"
   x1="37.7142"
   y1="36.7186"
   x2="38.2457"
   y2="45.5533">
   <stop
   offset="0"
   style="stop-color:#333333"
   id="stop4318" />
   <stop
   offset="1"
   style="stop-color:#333333"
   id="stop4320" />
  </linearGradient>
 </defs>
 <g
   id="Слой_x0020_1">
  <metadata
   id="CorelCorpID_0Corel-Layer" />
  <g
   id="_105726408">
   <path
   id="_105822240"
   class="fil0"
   d="M30.6098 54.0101c31.048,-1.24844 35.2363,3.56697 35.3709,7.47529 0.135828,3.9095 -16.1069,1.68663 -34.2087,2.36105 -18.1018,0.674418 -33.3666,1.24253 -33.3666,-1.65474 0,-2.89728 1.15631,-6.93316 32.2043,-8.1816z" />
   <g
   id="g4326">
    <path
   id="_105822312"
   class="fil1"
   d="M30.6819 54.4908c29.7311,-1.15159 34.8701,3.40516 34.9953,7.08316 0.124017,3.61894 -16.0171,1.57207 -33.8756,2.1957 -17.8585,0.622449 -33.0984,1.14214 -33.0984,-1.54372 0,-2.74373 2.24885,-6.58236 31.9787,-7.73513z" />
    <path
   id="_105822384"
   class="fil2"
   d="M30.7527 54.9715c28.4141,-1.0571 34.5051,3.24335 34.6197,6.68985 0.114568,3.32957 -15.9285,1.45986 -33.5437,2.03034 -17.6152,0.571661 -32.8303,1.04056 -32.8303,-1.43269 0,-2.59019 3.33902,-6.23039 31.7543,-7.28749z" />
    <path
   id="_105822456"
   class="fil3"
   d="M30.8224 55.4523c27.0972,-0.960248 34.1402,3.08153 34.2441,6.29772 0.103938,3.04019 -15.8376,1.34647 -33.2095,1.86616 -17.373,0.51851 -32.5622,0.938988 -32.5622,-1.32167 0,-2.43783 4.42919,-5.88196 31.5276,-6.84221z" />
    <path
   id="_105822528"
   class="fil4"
   d="M30.8933 55.9318c25.7814,-0.863396 33.7764,2.91972 33.8697,5.9044 0.0933082,2.752 -15.7502,1.23545 -32.8788,1.70081 -17.1297,0.467722 -32.2953,0.838593 -32.2953,-1.20828 0,-2.28546 5.52172,-5.53235 31.3043,-6.39693z" />
    <path
   id="_105822600"
   class="fil5"
   d="M30.963 56.4137c24.4645,-0.766545 33.4114,2.75791 33.4941,5.51227 0.0826782,2.46263 -15.6592,1.12206 -32.5445,1.53663 -16.8876,0.414572 -32.0283,0.737017 -32.0283,-1.09844 0,-2.13192 6.61307,-5.18038 31.0787,-5.95047z" />
    <path
   id="_105822216"
   class="fil6"
   d="M31.0327 56.8968c23.1487,-0.672056 33.0477,2.59491 33.1197,5.11896 0.0732292,2.17207 -15.5695,1.00749 -32.2138,1.37128 -16.6419,0.363784 -31.7591,0.636622 -31.7591,-0.987414 0,-1.97955 7.70324,-4.83077 30.8531,-5.50282z" />
    <path
   id="_105822672"
   class="fil7"
   d="M31.1024 57.3751c21.8329,-0.575204 32.6827,2.43192 32.7453,4.72565 0.0625992,1.88388 -15.4809,0.896468 -31.8807,1.2071 -16.401,0.311815 -31.4909,0.535046 -31.4909,-0.875208 0,-1.82719 8.7946,-4.48116 30.6264,-5.05754z" />
    <path
   id="_105822744"
   class="fil8"
   d="M31.1732 57.8582c20.5148,-0.480715 32.3177,2.26893 32.3697,4.33234 0.0519691,1.59451 -15.3911,0.783081 -31.5488,1.04293 -16.1565,0.259846 -31.2228,0.43347 -31.2228,-0.765364 0,-1.67482 9.88477,-4.13037 30.4019,-4.6099z" />
    <path
   id="_105822816"
   class="fil9"
   d="M31.2429 58.3389c19.1991,-0.382682 31.9528,2.10829 31.9941,3.94139 0.0425202,1.30395 -15.3002,0.669693 -31.2146,0.87757 -15.9144,0.207877 -30.9571,0.333075 -30.9571,-0.654339 0,-1.52128 10.9785,-3.77957 30.1775,-4.16462z" />
    <path
   id="_105822888"
   class="fil10"
   d="M31.3138 58.8196c17.8821,-0.288193 31.5878,1.9453 31.6197,3.54689 0.030709,1.01694 -15.2128,0.557487 -30.885,0.713395 -15.6699,0.155907 -30.6878,0.231499 -30.6878,-0.543314 0,-1.36773 12.0687,-3.42878 29.9531,-3.71697z" />
    <path
   id="_105822960"
   class="fil11"
   d="M31.3835 59.3003c16.5663,-0.191341 31.2228,1.78467 31.2441,3.15476 0.0212601,0.726387 -15.1218,0.4441 -30.5508,0.549219 -15.4277,0.102757 -30.4197,0.129923 -30.4197,-0.432289 0,-1.21537 13.1588,-3.07917 29.7264,-3.27169z" />
    <path
   id="_105823032"
   class="fil12"
   d="M31.4543 59.7811c15.2494,-0.0968516 30.859,1.62167 30.8685,2.76145 0.0106301,0.437013 -15.0333,0.331894 -30.2201,0.382682 -15.1821,0.0519691 -30.1504,0.0295279 -30.1504,-0.320083 0,-1.06182 14.2502,-2.72838 29.5019,-2.82405z" />
   </g>
   <path
   id="_105725592"
   class="fil13"
   d="M31.5216 60.2641c13.9336,0 30.4953,1.45986 30.4953,2.36932 0,0.29646 -59.7716,0.284649 -59.7716,0.00826782 0,-0.90946 15.3415,-2.37759 29.2763,-2.37759z" />
  </g>
  <path
   class="fil14"
   d="M12.6533 13.0761c0,0 2.31145,-2.09058 4.94888,-2.08585l41.547 0.0685048c0.84568,0.00118112 2.75555,0.694497 3.44768,1.94648 0.571661,1.03584 -1.19175,3.51619 -1.22009,3.58705 -0.0625992,0.150002 -41.1596,2.16381 -48.4908,-2.33743 -0.448824,-0.276381 0.00236223,-0.840955 -0.23268,-1.17875z"
   id="path4341" />
  <path
   class="fil15"
   d="M1.26616 15.6734c-0.0318902,-0.108663 2.40594,-2.40357 4.99731,-2.67759 2.59019,-0.274019 52.1841,-0.120474 53.6676,0.0437013 1.48466,0.165356 2.04097,4.66069 1.9701,4.82368 -0.070867,0.162994 -56.5861,3.63666 -60.635,-2.18979z"
   id="path4343" />
  <path
   class="fil16"
   d="M63.0291 22.8711l-0.938988 35.6497c-0.0330713,1.33348 0.178349,2.56539 -1.17285,2.57247l-36.1174 0.207877c-0.256302,0 -0.512605,-0.0425202 -0.750009,-0.116931l0 0.134647c0,0 -20.6495,0.305909 -21.8329,-0.0874027 -1.18348,-0.394493 -1.38191,-2.0764 -1.38191,-2.0764l0.178349 -1.75042 1.16576 -0.381501 -0.988595 -1.13387 -0.139372 -29.1181 0.940169 -1.60868 -0.943712 -0.943712 -0.0118112 -8.35286c0,0 0.892924,0.24331 1.48585,0.24331l8.59617 -0.00472447 0.00590558 -0.00472447c0.62363,-0.0814971 1.00277,-0.230318 1.08781,-0.650795 0,-0.969697 0.559849,-0.614181 0.559849,-1.58624 0,-0.292917 0.360241,-0.544495 0.787805,-0.542133l49.3412 -0.335437 0.128742 9.88595z"
   id="path4345" />
  <g
   id="_107607304">
   <path
   id="_105713384"
   class="fil17"
   d="M0.977965 17.8171l2.80043 0 0 43.4025 -1.97365 0c-0.830325,-0.415753 -0.969697,-2.06459 -0.969697,-2.06459l-0.00118112 -0.992138 1.24135 -0.60237 -1.00631 -1.84963 -0.206695 -29.0602 1.39726 -1.13033 -1.28151 -1.39017 0 -6.31307z" />
   <g
   id="g4349">
    <path
   id="_107607160"
   class="fil18"
   d="M0.977965 17.8313l2.57247 0c0,14.4651 0,28.9338 0,43.4025l-1.71498 0 -0.00590558 -0.00236223c-0.788986,-0.274019 -0.724025,-1.87561 -0.752371,-2.13782l0.0366146 -1.12442 0.961429 -0.408666 -1.09017 -1.83782 -0.112206 -29.0815 1.38663 -1.12088 -1.28151 -1.39017 0 -6.2989z" />
    <path
   id="_107609056"
   class="fil19"
   d="M0.977965 17.8455l2.34334 0c0,14.4663 0,28.935 0,43.4049l-1.43742 0 -0.0543314 -0.0188979c-0.620086,-0.287011 -0.864578,-1.25553 -0.95198,-1.76223l0 -1.32758 1.19765 -0.58111 -1.0134 -1.82837 -0.141734 -29.1287 1.33939 -1.08308 -1.28151 -1.39017 0 -6.28472z" />
    <path
   id="_107609320"
   class="fil20"
   d="M0.977965 17.862l2.11302 0c0,14.4651 0,28.9326 0,43.4025l-1.15159 0c-0.0484258,-0.0106301 -0.0850404,-0.0212601 -0.109844,-0.0330713 -0.542133,-0.250397 -0.797254,-1.02285 -0.910641,-1.55081l0 -1.55907 1.15631 -0.561031 -1.15631 -1.79057 0 -29.1653 1.34057 -1.08427 -1.28151 -1.39017 0 -6.26819z" />
    <path
   id="_107612056"
   class="fil21"
   d="M0.977965 17.8762l1.88506 0c0,14.4651 0,28.935 0,43.4037l-0.838593 0c-0.0897649,-0.0153545 -0.157089,-0.030709 -0.194884,-0.0484258 -0.485439,-0.224412 -0.741741,-0.868121 -0.870483,-1.38073l0 -1.74805 1.11616 -0.542133 -1.11616 -1.72797 0 -29.261 1.30041 -1.05119 -1.28151 -1.39017 0 -6.25401z" />
    <path
   id="_107613352"
   class="fil22"
   d="M0.999225 17.8927c0.544495,0 1.08899,0 1.63348,0 0,14.4651 0,28.9326 0,43.4013l-0.511424 0c-0.141734,-0.0188979 -0.242129,-0.0389769 -0.291736,-0.0625992 -0.440557,-0.204333 -0.690953,-0.750009 -0.830325,-1.2319l0 -1.91695 1.076 -0.522054 -1.076 -1.66656 0 -29.3543 1.26025 -1.0193 -1.26025 -1.36773 0 -6.25992z" />
    <path
   id="_107611456"
   class="fil23"
   d="M1.0382 17.9081c0.455911,0 0.910641,0 1.36537,0 0,14.4663 0,28.9326 0,43.4013l-0.152364 0c-0.212601,-0.0224412 -0.357878,-0.0484258 -0.421659,-0.0779537 -0.40158,-0.185435 -0.64489,-0.65552 -0.791348,-1.10198l0 -2.06577 1.03702 -0.503156 -1.03702 -1.60514 0 -29.4476 1.22127 -0.987414 -1.22127 -1.32521 0 -6.28709z" />
    <path
   id="_107612248"
   class="fil24"
   d="M1.07954 17.9223c0.364965,0 0.728749,0 1.0949,0l0 7.506 -1.0949 -1.1882 0 -6.31779zm1.0949 7.66663l0 35.7123c-0.170081,-0.020079 -0.289374,-0.0437013 -0.344886,-0.0696859 -0.366146,-0.1689 -0.601189,-0.576385 -0.750009,-0.985051l0 -2.20278 0.995682 -0.483077 -0.995682 -1.54136 0 -29.5445 1.0949 -0.885838z" />
    <path
   id="_107609992"
   class="fil25"
   d="M1.11852 17.9388c0.276381,0 0.551582,0 0.826782,0l0 7.24025 -0.826782 -0.896468 0 -6.34378zm0.826782 7.83553l0 31.5842 -0.826782 -1.27915 0 -29.6366 0.826782 -0.668512zm0 31.8488l0 3.64256c-0.0519691,-0.0106301 -0.090946,-0.0224412 -0.115749,-0.0342524 -0.335437,-0.154726 -0.561031,-0.510242 -0.711032,-0.883475l0 -2.32326 0.826782 -0.40158z" />
   </g>
   <path
   id="_107613280"
   class="fil26"
   d="M1.15749 17.953l0.557487 0 0 6.97568 -0.557487 -0.603551 0 -6.37213zm0.557487 8.00797l0 31.0409 -0.557487 -0.862215 0 -29.7287 0.557487 -0.450006zm0 31.7744l0 3.43233c-0.246853,-0.159451 -0.427564,-0.432289 -0.557487,-0.726387l0 -2.43546 0.557487 -0.270476z" />
  </g>
  <g
   id="_106125072">
   <polygon
   id="_107613088"
   class="fil27"
   points="2.40594,15.7526 6.4737,15.7526 6.4737,61.1039 2.40594,61.1039 " />
   <g
   id="g4362">
    <path
   id="_107183664"
   class="fil28"
   d="M2.50751 15.9522c1.27206,0 2.54294,0 3.81265,0 0,15.0557 0,30.1138 0,45.1706 -1.2697,0 -2.54058,0 -3.81265,0 0,-15.0569 0,-30.1149 0,-45.1706z" />
    <path
   id="_108001504"
   class="fil29"
   d="M2.60791 16.153c1.18584,0 2.37286,0 3.55752,0 0,14.9943 0,29.9945 0,44.9911 -1.18466,0 -2.37168,0 -3.55752,0 0,-14.9966 0,-29.9968 0,-44.9911z" />
    <path
   id="_105718496"
   class="fil30"
   d="M2.70712 16.3526c1.1008,0 2.20396,0 3.30358,0 0,14.9364 0,29.8764 0,44.8151 -1.09962,0 -2.20278,0 -3.30358,0 0,-14.9388 0,-29.8787 0,-44.8151z" />
    <path
   id="_107130680"
   class="fil31"
   d="M2.80751 16.5522c1.01694,0 2.0327,0 3.04846,0 0,14.8762 0,29.7571 0,44.6368 -1.01576,0 -2.03152,0 -3.04846,0 0,-14.8797 0,-29.7606 0,-44.6368z" />
    <path
   id="_105716264"
   class="fil32"
   d="M2.90673 16.753c0.931901,0 1.8638,0 2.79452,0 0,14.8171 0,29.6378 0,44.4584 -0.93072,0 -1.86262,0 -2.79452,0 0,-14.8207 0,-29.6413 0,-44.4584z" />
    <path
   id="_107999224"
   class="fil33"
   d="M3.00712 16.9526c0.846861,0 1.69372,0 2.54058,0 0,14.7581 0,29.5197 0,44.2801 -0.846861,0 -1.69372,0 -2.54058,0 0,-14.7604 0,-29.522 0,-44.2801z" />
    <path
   id="_107610424"
   class="fil34"
   d="M3.10516 17.1522c0.76182,0 1.52364,0 2.28428,0 0,14.6978 0,29.4004 0,44.1041 -0.760639,0 -1.52246,0 -2.28428,0 0,-14.7037 0,-29.4063 0,-44.1041z" />
    <path
   id="_107612968"
   class="fil35"
   d="M3.20555 17.3506c0.67678,0 1.35356,0 2.03034,0 0,14.6411 0,29.2834 0,43.9269 -0.67678,0 -1.35356,0 -2.03034,0 0,-14.6435 0,-29.2858 0,-43.9269z" />
    <path
   id="_107614888"
   class="fil36"
   d="M3.30477 17.5526c0.592921,0 1.18466,0 1.7764,0 0,14.5797 0,29.163 0,43.7462 -0.59174,0 -1.18348,0 -1.7764,0 0,-14.5833 0,-29.1665 0,-43.7462z" />
    <path
   id="_107609704"
   class="fil37"
   d="M3.40516 17.751c0.50788,0 1.01458,0 1.52246,0 0,14.5218 0,29.046 0,43.569 -0.50788,0 -1.01458,0 -1.52246,0 0,-14.523 0,-29.0472 0,-43.569z" />
    <path
   id="_107615056"
   class="fil38"
   d="M3.50437 17.9506c0.424021,0 0.84568,0 1.26734,0 0,14.4628 0,28.9267 0,43.3931 -0.421659,0 -0.843317,0 -1.26734,0 0,-14.4663 0,-28.9303 0,-43.3931z" />
    <path
   id="_107607736"
   class="fil39"
   d="M3.60477 18.1514c0.337799,0 0.675599,0 1.01222,0 0,14.4014 0,28.8074 0,43.2135 -0.336618,0 -0.674418,0 -1.01222,0 0,-14.4061 0,-28.8122 0,-43.2135z" />
   </g>
   <polygon
   id="_106148928"
   class="fil40"
   points="3.7028,18.3498 4.46108,18.3498 4.46108,61.3874 3.7028,61.3874 " />
  </g>
  <g
   id="_4698272">
   <polygon
   id="_4699256"
   class="fil41"
   points="6.56347,22.8168 13.0242,22.8168 13.0242,61.7145 6.56347,61.7145 " />
   <g
   id="g4379">
    <path
   id="_4699184"
   class="fil42"
   d="M6.7241 22.9893c2.01853,0 4.03824,0 6.05559,0 0,12.912 0,25.8275 0,38.7418 -2.01735,0 -4.03706,0 -6.05559,0 0,-12.9143 0,-25.8298 0,-38.7418z" />
    <path
   id="_4699112"
   class="fil43"
   d="M6.88237 23.1617c1.88388,0 3.76776,0 5.65046,0 0,12.86 0,25.7247 0,38.5859 -1.8827,0 -3.76658,0 -5.65046,0 0,-12.8612 0,-25.7259 0,-38.5859z" />
    <path
   id="_4699040"
   class="fil44"
   d="M7.04064 23.333c1.74923,0 3.49847,0 5.24652,0 0,12.8092 0,25.6231 0,38.4359 -1.74805,0 -3.49729,0 -5.24652,0 0,-12.8128 0,-25.6267 0,-38.4359z" />
    <path
   id="_4698968"
   class="fil45"
   d="M7.19891 23.5019c1.61459,0 3.22917,0 4.8414,0 0,12.7596 0,25.5239 0,38.2847 -1.61222,0 -3.22681,0 -4.8414,0 0,-12.7608 0,-25.5251 0,-38.2847z" />
    <path
   id="_4698896"
   class="fil46"
   d="M7.35718 23.6755c1.47994,0 2.95988,0 4.43746,0 0,12.7076 0,25.42 0,38.13 -1.47758,0 -2.95752,0 -4.43746,0 0,-12.71 0,-25.4224 0,-38.13z" />
    <path
   id="_4698824"
   class="fil47"
   d="M7.51545 23.8468c1.34529,0 2.6894,0 4.03351,0 0,12.658 0,25.3184 0,37.9776 -1.34411,0 -2.68822,0 -4.03351,0 0,-12.6592 0,-25.3196 0,-37.9776z" />
    <path
   id="_4698752"
   class="fil48"
   d="M7.67372 24.0168c1.21064,0 2.42011,0 3.63075,0 0,12.6072 0,25.2157 0,37.8276 -1.21064,0 -2.42011,0 -3.63075,0 0,-12.612 0,-25.2204 0,-37.8276z" />
    <path
   id="_4698680"
   class="fil49"
   d="M7.83199 24.1893c1.07482,0 2.15081,0 3.22563,0 0,12.5553 0,25.1141 0,37.6729 -1.07482,0 -2.15081,0 -3.22563,0 0,-12.5588 0,-25.1176 0,-37.6729z" />
    <path
   id="_4698608"
   class="fil50"
   d="M7.99026 24.3605c0.940169,0 1.88152,0 2.82169,0 0,12.5057 0,25.0137 0,37.5217 -0.940169,0 -1.88152,0 -2.82169,0 0,-12.508 0,-25.0161 0,-37.5217z" />
    <path
   id="_4698536"
   class="fil51"
   d="M8.14853 24.5306c0.805522,0 1.61104,0 2.41775,0 0,12.4549 0,24.9121 0,37.3694 -0.806703,0 -1.61222,0 -2.41775,0 0,-12.4572 0,-24.9145 0,-37.3694z" />
    <path
   id="_4698464"
   class="fil52"
   d="M8.3068 24.7031c0.670874,0 1.34175,0 2.01262,0 0,12.4041 0,24.8105 0,37.217 -0.670874,0 -1.34175,0 -2.01262,0 0,-12.4065 0,-24.8129 0,-37.217z" />
    <path
   id="_4698392"
   class="fil53"
   d="M8.46506 24.8743c0.536227,0 1.07245,0 1.60868,0 0,12.3521 0,24.7078 0,37.0646 -0.536227,0 -1.07245,0 -1.60868,0 0,-12.3568 0,-24.7125 0,-37.0646z" />
   </g>
   <polygon
   id="_4698296"
   class="fil54"
   points="8.62215,25.0456 9.82689,25.0456 9.82689,61.9578 8.62215,61.9578 " />
  </g>
  <g
   id="_105820176">
   <g
   id="g4395">
    <path
   id="_105721064"
   class="fil17"
   d="M60.1555 13.6254l0 47.7384 1.19765 0c0.957886,-0.131104 1.72443,-1.25553 1.72089,-2.58546l-0.0779537 -37.1001 -0.030709 0 0 -8.0186c-0.060237,-0.0177168 -0.122836,-0.0271657 -0.187798,-0.0271657l-2.62208 -0.0070867z" />
    <g
   id="g4398">
     <path
   id="_105714896"
   class="fil18"
   d="M60.3976 13.6254l0 47.7561 0.181892 0 0.0460636 0 0.0460636 0 0.0437013 0 0.0472447 0 0.0448824 0 0.0448824 0 0.0460636 0 0.0448824 0 0.227956 -0.00354335c1.04175,-0.0070867 1.90632,-1.18702 1.90278,-2.59964l-0.0779537 -37.1001 -0.030709 0 0 -8.01624c-0.0590558,-0.0177168 -0.122836,-0.0295279 -0.187798,-0.0295279l-2.37995 -0.0070867z" />
     <path
   id="_105713312"
   class="fil19"
   d="M60.6456 13.6254l0 47.7573 0.525597 -0.00472447c1.04175,-0.0070867 1.90632,-1.18702 1.90278,-2.59964l-0.0779537 -37.1001 -0.030709 0 0 -8.01742c-0.0590558,-0.0177168 -0.122836,-0.0283468 -0.187798,-0.0283468l-2.13192 -0.0070867z" />
     <path
   id="_105714320"
   class="fil20"
   d="M60.8889 13.6277l0 47.7514 0.282287 -0.00118112c1.04175,-0.0070867 1.90632,-1.18702 1.90278,-2.59964l-0.0779537 -37.1001 -0.030709 0 0 -8.01742c-0.0590558,-0.0177168 -0.122836,-0.0283468 -0.187798,-0.0283468l-1.88861 -0.00472447z" />
     <path
   id="_105717608"
   class="fil21"
   d="M61.1358 13.6277l0 47.7502 0.0354335 0c1.04175,-0.0070867 1.90632,-1.18702 1.90278,-2.59964l-0.0779537 -37.1001 -0.030709 0 0 -8.01624c-0.0590558,-0.0188979 -0.122836,-0.0295279 -0.187798,-0.0295279l-1.64175 -0.00472447z" />
     <path
   id="_107613064"
   class="fil22"
   d="M61.3815 13.6289l0 47.7301c0.944894,-0.148821 1.69608,-1.26261 1.69254,-2.58074l-0.0779537 -37.1001 -0.030709 0 0 -8.01742c-0.060237,-0.0177168 -0.122836,-0.0283468 -0.187798,-0.0283468l-1.39608 -0.00354335z" />
     <path
   id="_107610280"
   class="fil23"
   d="M61.6283 13.6289l0 47.6711c0.826782,-0.288193 1.44923,-1.32167 1.44569,-2.52168l-0.0779537 -37.1001 -0.030709 0 0 -8.01624c-0.060237,-0.0188979 -0.122836,-0.0295279 -0.187798,-0.0295279l-1.14923 -0.00354335z" />
     <path
   id="_105714872"
   class="fil24"
   d="M61.8716 13.6289l0 47.56c0.600007,-0.333075 1.0571,-1.07482 1.17285,-1.95593l0 -14.5549 -0.0484258 -22.9999 -0.030709 0 0 -8.0186c-0.0590558,-0.0177168 -0.122836,-0.0271657 -0.187798,-0.0271657l-0.905917 -0.00354335z" />
     <path
   id="_107614288"
   class="fil25"
   d="M62.1185 13.6313l0 47.3923c0.425202,-0.340162 0.748828,-0.895287 0.885838,-1.54726l0 -35.3603 -0.00590558 -2.43783 -0.0330713 0 0 -8.01978c-0.060237,-0.0188979 -0.122836,-0.0259846 -0.187798,-0.0259846l-0.659063 -0.00118112z" />
    </g>
    <path
   id="_105718640"
   class="fil26"
   d="M62.3665 13.6313l0 47.1573c0.266932,-0.29646 0.474809,-0.688591 0.594102,-1.13505l0 -45.9927c-0.0578747,-0.0177168 -0.119293,-0.0283468 -0.183073,-0.0283468l-0.411029 -0.00118112z" />
   </g>
   <g
   id="g4409">
    <path
   id="_107132840"
   class="fil27"
   d="M57.2712 13.6171l0 47.7927 3.90005 -0.0318902c0.155907,-0.00236223 0.308272,-0.0295279 0.452368,-0.0779537l0 -47.6711 -4.35242 -0.0118112z" />
    <g
   id="g4412">
     <path
   id="_4699424"
   class="fil28"
   d="M57.433 13.6171l0 47.7904 3.73823 -0.0295279c0.116931,0 0.233861,-0.0165356 0.344886,-0.0460636l0 -47.7029 -4.08312 -0.0118112z" />
     <path
   id="_105819936"
   class="fil29"
   d="M57.5983 13.6171l0 47.7892 3.57288 -0.0283468c0.0791348,0 0.160632,-0.0106301 0.236223,-0.0224412l0 -47.7266 -3.8091 -0.0118112z" />
     <polygon
   id="_105819864"
   class="fil30"
   points="57.7661,13.6171 57.7661,61.4039 61.1712,61.3779 61.3035,61.3708 61.3035,13.6277 " />
     <polygon
   id="_105819792"
   class="fil31"
   points="57.9326,13.6195 57.9326,61.4039 61.1712,61.3779 61.1948,61.3779 61.1948,13.6277 " />
     <polygon
   id="_105819720"
   class="fil32"
   points="58.0968,13.6195 58.0968,61.4027 61.0885,61.3779 61.0885,13.6277 " />
     <polygon
   id="_105819648"
   class="fil33"
   points="58.261,13.6195 58.261,61.4015 60.9811,61.3791 60.9811,13.6277 " />
     <polygon
   id="_105819576"
   class="fil34"
   points="58.4299,13.6206 58.4299,61.3992 60.8771,61.3791 60.8771,13.6277 " />
     <polygon
   id="_4699808"
   class="fil35"
   points="58.5964,13.6206 58.5964,61.398 60.7685,61.3815 60.7685,13.6277 " />
     <polygon
   id="_4699736"
   class="fil36"
   points="58.7594,13.6206 58.7594,61.398 60.661,61.3815 60.661,13.6254 " />
     <polygon
   id="_4699664"
   class="fil37"
   points="58.9247,13.6206 58.9247,61.3956 60.5559,61.3826 60.5559,13.6254 " />
     <polygon
   id="_4699592"
   class="fil38"
   points="59.0925,13.623 59.0925,61.3956 60.4484,61.3826 60.4484,13.6254 " />
     <polygon
   id="_4699520"
   class="fil39"
   points="59.259,13.623 59.259,61.3933 60.3421,61.385 60.3421,13.6254 " />
    </g>
    <polygon
   id="_105820008"
   class="fil40"
   points="59.4232,13.623 59.4232,61.3921 60.2358,61.3874 60.2358,13.6254 " />
   </g>
  </g>
  <g
   id="_105978864">
   <g
   id="g4428">
    <path
   id="_105981696"
   class="fil55"
   d="M59.2932 16.3443l0.910641 -0.00472447c1.35592,-0.00826782 2.46499,1.11734 2.46972,2.46735" />
    <g
   id="g4431">
     <path
   id="_105981624"
   class="fil56"
   d="M59.6098 16.3431l0.594102 -0.00354335c1.35592,-0.00826782 2.46499,1.11734 2.46972,2.46735" />
     <path
   id="_105981552"
   class="fil57"
   d="M59.9299 16.3408l0.274019 -0.00118112c1.35592,-0.00826782 2.46499,1.11734 2.46972,2.46735" />
     <path
   id="_105981480"
   class="fil58"
   d="M60.2476 16.3396c1.33584,0.0165356 2.42129,1.13151 2.42601,2.46735" />
     <path
   id="_105981408"
   class="fil59"
   d="M60.5665 16.3644c1.18466,0.172443 2.10239,1.21537 2.10711,2.44255" />
     <path
   id="_105981336"
   class="fil60"
   d="M60.8866 16.4352c1.02639,0.297641 1.78349,1.25671 1.78703,2.37168" />
     <path
   id="_105981264"
   class="fil61"
   d="M61.2043 16.551c0.861034,0.385044 1.46577,1.26025 1.46931,2.25593" />
     <path
   id="_105981192"
   class="fil62"
   d="M61.522 16.7234c0.688591,0.440557 1.14805,1.21537 1.15159,2.08349" />
     <path
   id="_105981120"
   class="fil63"
   d="M61.8421 16.9667c0.506699,0.45473 0.827963,1.11379 0.831506,1.84018" />
    </g>
    <path
   id="_105981024"
   class="fil64"
   d="M62.1622 17.3128c0.31772,0.416934 0.509061,0.935445 0.511424,1.49411" />
   </g>
   <g
   id="g4442">
    <path
   id="_105980928"
   class="fil55"
   d="M55.5491 16.3656l4.65478 -0.0259846c0.354335,-0.00118112 0.689772,0.0732292 0.995682,0.207877" />
    <g
   id="g4445">
     <path
   id="_105980856"
   class="fil65"
   d="M55.7617 16.3644l4.44218 -0.0248035c0.301185,-0.00118112 0.589377,0.0519691 0.85631,0.152364" />
     <path
   id="_105980784"
   class="fil66"
   d="M55.9767 16.3632l4.22722 -0.0236223c0.249216,-0.00118112 0.488982,0.0354335 0.716938,0.105119" />
     <path
   id="_105980712"
   class="fil67"
   d="M56.1928 16.3608l4.01107 -0.0212601c0.199609,-0.00118112 0.393312,0.0212601 0.578747,0.0673237" />
     <path
   id="_105980640"
   class="fil68"
   d="M56.4078 16.3608l3.79611 -0.0212601c0.151183,-0.00118112 0.29646,0.0141734 0.439375,0.0389769" />
     <path
   id="_105980568"
   class="fil69"
   d="M56.6227 16.3597l3.58115 -0.020079c0.102757,0 0.203152,0.00472447 0.301185,0.0165356" />
     <polyline
   id="_105980496"
   class="fil70"
   points="56.8353,16.3585 60.2039,16.3396 60.3657,16.3443 " />
     <polyline
   id="_105980424"
   class="fil71"
   points="57.055,16.3561 60.2039,16.3396 60.2299,16.3396 " />
     <line
   id="_105980352"
   class="fil72"
   x1="57.2688"
   y1="16.3549"
   x2="60.0893"
   y2="16.3396" />
     <line
   id="_105980280"
   class="fil73"
   x1="57.4826"
   y1="16.3549"
   x2="59.9523"
   y2="16.3408" />
     <line
   id="_105980208"
   class="fil74"
   x1="57.6976"
   y1="16.3537"
   x2="59.8129"
   y2="16.3408" />
     <line
   id="_105980136"
   class="fil75"
   x1="57.9137"
   y1="16.3514"
   x2="59.6748"
   y2="16.3431" />
     <line
   id="_105980064"
   class="fil76"
   x1="58.1287"
   y1="16.3502"
   x2="59.5354"
   y2="16.3431" />
    </g>
    <line
   id="_105979968"
   class="fil64"
   x1="58.3448"
   y1="16.3502"
   x2="59.3984"
   y2="16.3443" />
   </g>
   <g
   id="g4460">
    <path
   id="_105979872"
   class="fil55"
   d="M51.1955 12.5033l0.314177 0c0.427564,0 0.787805,0.248035 0.787805,0.543314l0 2.7083c-0.0259846,0.36969 0.271657,0.590558 0.631898,0.624811l4.72565 -0.0259846" />
    <g
   id="g4463">
     <path
   id="_105979800"
   class="fil65"
   d="M51.44 12.5033l0.0696859 0c0.427564,0 0.787805,0.248035 0.787805,0.543314l0 2.7083c-0.0259846,0.36969 0.271657,0.590558 0.631898,0.624811l4.5662 -0.0248035" />
     <path
   id="_105979728"
   class="fil66"
   d="M51.6869 12.5175c0.346067,0.0566936 0.610637,0.276381 0.610637,0.52914l0 2.7083c-0.0259846,0.36969 0.271657,0.590558 0.631898,0.624811l4.40793 -0.0248035" />
     <path
   id="_105979656"
   class="fil67"
   d="M51.9325 12.5919c0.217326,0.0968516 0.364965,0.265751 0.364965,0.45473l0 2.7083c-0.0259846,0.36969 0.271657,0.590558 0.631898,0.624811l4.24966 -0.0236223" />
     <path
   id="_105979584"
   class="fil68"
   d="M52.1782 12.7643c0.0755915,0.0826782 0.119293,0.178349 0.119293,0.282287l0 2.7083c-0.0259846,0.36969 0.271657,0.590558 0.631898,0.624811l4.09139 -0.0236223" />
     <path
   id="_105979512"
   class="fil69"
   d="M52.4251 16.1482c0.115749,0.133466 0.298823,0.212601 0.504337,0.231499l3.93312 -0.0212601" />
     <path
   id="_105979440"
   class="fil70"
   d="M52.6707 16.3195c0.0779537,0.0318902 0.166537,0.050788 0.258665,0.060237l3.77485 -0.020079" />
     <polyline
   id="_105979368"
   class="fil71"
   points="52.9152,16.3785 52.9294,16.3797 56.546,16.3597 " />
     <line
   id="_105979296"
   class="fil72"
   x1="53.1609"
   y1="16.3785"
   x2="56.3877"
   y2="16.3608" />
     <line
   id="_105979224"
   class="fil73"
   x1="53.4077"
   y1="16.3774"
   x2="56.2294"
   y2="16.3608" />
     <line
   id="_105979152"
   class="fil74"
   x1="53.6534"
   y1="16.375"
   x2="56.0712"
   y2="16.3632" />
     <line
   id="_105979080"
   class="fil75"
   x1="53.9003"
   y1="16.375"
   x2="55.9129"
   y2="16.3632" />
     <line
   id="_105979008"
   class="fil76"
   x1="54.1459"
   y1="16.3738"
   x2="55.7546"
   y2="16.3644" />
    </g>
    <line
   id="_105978912"
   class="fil64"
   x1="54.394"
   y1="16.3726"
   x2="55.5975"
   y2="16.3644" />
   </g>
  </g>
  <polygon
   class="fil77"
   points="0.921271,58.0271 63.1059,58.0035 62.6122,59.0677 0.87757,59.0039 "
   id="polygon4478" />
  <polygon
   class="fil77"
   points="24.507,16.538 37.5761,16.4352 37.5761,21.214 24.507,21.3156 "
   id="polygon4480" />
  <path
   class="fil78"
   d="M24.5035 16.0396l13.0691 -0.102757 0.504337 -0.00354335 0 0.501975 0 4.21777 0 0.494888 -0.498431 0.00354335 -13.0691 0.101576 -0.503156 0.00472447 0 -0.503156 0 -4.21659 0 -0.493707 0.49725 -0.00472447zm12.5718 0.897649l-12.0675 0.0956705 0 3.21972 12.0675 -0.0944894 0 -3.22091z"
   id="path4482" />
  <rect
   class="fil79"
   x="24.9667"
   y="17.316"
   width="11.8955"
   height="1.40961"
   id="rect4484" />
  <polygon
   class="fil80"
   points="2.3705,24.6924 63.1638,25.022 63.0209,55.8149 62.1634,57.2617 1.30159,57.0397 0.98387,55.9755 1.00867,26.0484 "
   id="polygon4486" />
  <g
   id="_107058936">
   <polygon
   id="_107059920"
   class="fil81"
   points="58.1027,24.7468 58.1027,57.4153 61.3472,57.4094 61.3472,24.7468 " />
   <g
   id="g4490">
    <polygon
   id="_107059848"
   class="fil82"
   points="58.2243,24.7468 58.2243,57.4153 61.2681,57.4094 61.2681,24.7468 " />
    <polygon
   id="_107059776"
   class="fil83"
   points="58.3484,24.7468 58.3484,57.4153 61.1878,57.4094 61.1878,24.7468 " />
    <polygon
   id="_107059704"
   class="fil84"
   points="58.4724,24.7468 58.4724,57.4129 61.1086,57.4094 61.1086,24.7468 " />
    <polygon
   id="_107059632"
   class="fil85"
   points="58.5964,24.7468 58.5964,57.4129 61.0283,57.4094 61.0283,24.7468 " />
    <polygon
   id="_107059560"
   class="fil86"
   points="58.7192,24.7468 58.7192,57.4129 60.9492,57.4094 60.9492,24.7468 " />
    <polygon
   id="_107059488"
   class="fil87"
   points="58.8409,24.7468 58.8409,57.4129 60.8689,57.4094 60.8689,24.7468 " />
    <polygon
   id="_107059416"
   class="fil88"
   points="58.9673,24.7468 58.9673,57.4129 60.7909,57.4094 60.7909,24.7468 " />
    <polygon
   id="_107059344"
   class="fil89"
   points="59.0901,24.7468 59.0901,57.4129 60.7106,57.4094 60.7106,24.7468 " />
    <polygon
   id="_107059272"
   class="fil90"
   points="59.2141,24.7468 59.2141,57.4129 60.6315,57.4117 60.6315,24.7468 " />
    <polygon
   id="_107059200"
   class="fil91"
   points="59.337,24.7468 59.337,57.4129 60.5511,57.4117 60.5511,24.7468 " />
    <polygon
   id="_107059128"
   class="fil92"
   points="59.461,24.7468 59.461,57.4129 60.472,57.4117 60.472,24.7468 " />
    <polygon
   id="_107059056"
   class="fil93"
   points="59.5838,24.7468 59.5838,57.4117 60.3917,57.4117 60.3917,24.7468 " />
   </g>
   <polygon
   id="_107058960"
   class="fil94"
   points="59.709,24.7468 59.709,57.4117 60.3137,57.4117 60.3137,24.7468 " />
  </g>
  <g
   id="_105820704">
   <polygon
   id="_105820560"
   class="fil95"
   points="4.21777,24.7007 4.21777,56.9865 1.65711,56.9889 1.09844,56.3594 0.98387,55.9755 1.00867,26.0484 2.3705,24.6924 " />
   <g
   id="g4507">
    <polygon
   id="_105820344"
   class="fil96"
   points="3.90123,24.6995 3.90123,56.9865 1.65711,56.9889 1.09844,56.3594 0.98387,55.9755 1.00867,26.0484 2.3705,24.6924 " />
    <polygon
   id="_105820272"
   class="fil97"
   points="3.58115,24.6983 3.58115,56.9877 1.65711,56.9889 1.09844,56.3594 0.98387,55.9755 1.00867,26.0484 2.3705,24.6924 " />
    <polygon
   id="_105820200"
   class="fil98"
   points="3.26224,24.696 3.26224,56.9877 1.65711,56.9889 1.09844,56.3594 0.98387,55.9755 1.00867,26.0484 2.3705,24.6924 " />
    <polygon
   id="_105820104"
   class="fil99"
   points="2.94452,24.6948 2.94452,56.9877 1.65711,56.9889 1.09844,56.3594 0.98387,55.9755 1.00867,26.0484 2.3705,24.6924 " />
    <polygon
   id="_107058864"
   class="fil100"
   points="2.62444,24.6936 2.62444,56.9877 1.65711,56.9889 1.09844,56.3594 0.98387,55.9755 1.00867,26.0484 2.3705,24.6924 " />
    <polygon
   id="_107058264"
   class="fil101"
   points="2.30672,24.7562 2.30672,56.9889 1.65711,56.9889 1.09844,56.3594 0.98387,55.9755 1.00867,26.0484 " />
    <polygon
   id="_107058792"
   class="fil102"
   points="1.98782,25.0739 1.98782,56.9889 1.65711,56.9889 1.09844,56.3594 0.98387,55.9755 1.00867,26.0484 " />
    <polygon
   id="_107058720"
   class="fil103"
   points="1.66892,25.3905 1.66892,56.9889 1.65711,56.9889 1.09844,56.3594 0.98387,55.9755 1.00867,26.0484 " />
   </g>
   <polygon
   id="_105820416"
   class="fil104"
   points="1.34884,25.7094 1.34884,56.6416 1.09844,56.3594 0.98387,55.9755 1.00867,26.0484 " />
  </g>
  <g
   id="_106150128">
   <polygon
   id="_106150824"
   class="fil95"
   points="59.4468,24.0062 59.4468,57.2287 62.0334,57.2251 63.0303,55.6944 63.0303,25.5405 61.7039,24.0062 " />
   <g
   id="g4520">
    <polygon
   id="_106150752"
   class="fil96"
   points="59.722,24.0062 59.722,57.2275 62.0334,57.2251 62.9795,55.77 62.9795,25.4826 61.7039,24.0062 " />
    <polygon
   id="_106150680"
   class="fil97"
   points="59.9972,24.0062 59.9972,57.2275 62.0334,57.2251 62.9335,55.8432 62.9335,25.4259 61.7039,24.0062 " />
    <polygon
   id="_106150608"
   class="fil98"
   points="60.2736,24.0062 60.2736,57.2275 62.0334,57.2251 62.8838,55.9176 62.8838,25.3704 61.7039,24.0062 " />
    <polygon
   id="_106150536"
   class="fil99"
   points="60.5476,24.0062 60.5476,57.2275 62.0334,57.2251 62.8378,55.992 62.8378,25.3172 61.7039,24.0062 " />
    <polygon
   id="_106150464"
   class="fil100"
   points="60.8252,24.0062 60.8252,57.2275 62.0334,57.2251 62.7882,56.0653 62.7882,25.2582 61.7039,24.0062 " />
    <polygon
   id="_106150392"
   class="fil101"
   points="61.1004,24.0062 61.1004,57.2275 62.0334,57.2251 62.7409,56.1397 62.7409,25.2039 61.7039,24.0062 " />
    <polygon
   id="_106150320"
   class="fil102"
   points="61.3756,24.0062 61.3756,57.2251 62.0334,57.2251 62.6937,56.2153 62.6937,25.1483 61.7039,24.0062 " />
    <polygon
   id="_106150248"
   class="fil103"
   points="61.6519,24.0062 61.6519,57.2251 62.0334,57.2251 62.6453,56.2885 62.6453,25.0916 61.7039,24.0062 " />
   </g>
   <polygon
   id="_106150152"
   class="fil104"
   points="61.9283,24.2637 61.9283,57.2251 62.0334,57.2251 62.598,56.3605 62.598,25.0385 " />
  </g>
  <polygon
   class="fil105"
   points="1.04175,24.0865 63.0197,24.0405 62.9736,25.1873 1.51537,25.0444 "
   id="polygon4531" />
  <polygon
   class="fil106"
   points="3.50555,25.5027 11.9057,25.5027 11.9057,56.7893 3.50555,56.7893 "
   id="polygon4533" />
  <g
   id="_106149864">
   <path
   id="_106478576"
   class="fil107"
   d="M4.16107 25.5381c2.52995,0 5.0599,0 7.58868,0 0,10.4269 0,20.8562 0,31.2854 -2.52877,0 -5.05872,0 -7.58868,0 0,-10.4293 0,-20.8585 0,-31.2854z" />
   <path
   id="_106478480"
   class="fil108"
   d="M4.81305 25.5735c2.25948,0 4.51777,0 6.77607,0 0,10.4269 0,20.8562 0,31.2854 -2.2583,0 -4.51659,0 -6.77607,0 0,-10.4293 0,-20.8585 0,-31.2854z" />
   <path
   id="_106478744"
   class="fil109"
   d="M5.46739 25.609c1.989,0 3.97682,0 5.96464,0 0,10.4269 0,20.8562 0,31.2854 -1.98782,0 -3.97564,0 -5.96464,0 0,-10.4293 0,-20.8585 0,-31.2854z" />
   <path
   id="_106478816"
   class="fil110"
   d="M6.12055 25.6444c1.71853,0 3.43587,0 5.15203,0 0,10.4269 0,20.8562 0,31.2854 -1.71616,0 -3.43351,0 -5.15203,0 0,-10.4293 0,-20.8585 0,-31.2854z" />
   <path
   id="_106478888"
   class="fil111"
   d="M6.77371 25.6822c1.44569,0 2.89256,0 4.33942,0 0,10.4269 0,20.8562 0,31.2854 -1.44687,0 -2.89374,0 -4.33942,0 0,-10.4293 0,-20.8585 0,-31.2854z" />
   <path
   id="_106478960"
   class="fil112"
   d="M7.42686 25.7176c1.17521,0 2.3516,0 3.52682,0 0,10.4269 0,20.8562 0,31.2854 -1.17521,0 -2.3516,0 -3.52682,0 0,-10.4293 0,-20.8585 0,-31.2854z" />
   <path
   id="_106479032"
   class="fil113"
   d="M8.0812 25.7531c0.904736,0 1.81065,0 2.71539,0 0,10.4269 0,20.8562 0,31.2854 -0.904736,0 -1.81065,0 -2.71539,0 0,-10.4293 0,-20.8585 0,-31.2854z" />
   <path
   id="_106479104"
   class="fil114"
   d="M8.73318 25.7885c0.63426,0 1.26852,0 1.90278,0 0,10.4269 0,20.8562 0,31.2854 -0.63426,0 -1.26852,0 -1.90278,0 0,-10.4293 0,-20.8585 0,-31.2854z" />
  </g>
  <polygon
   class="fil115"
   points="9.38515,25.8239 10.4765,25.8239 10.4765,57.1105 9.38515,57.1105 "
   id="polygon4544" />
  <polygon
   class="fil116"
   points="20.9188,24.2873 9.13003,24.2873 9.13003,56.8885 20.9188,56.8885 "
   id="polygon4546" />
  <g
   id="_106149552">
   <path
   id="_106478456"
   class="fil117"
   d="M20.2101 24.3546c-3.56815,0 -7.13631,0 -10.7045,0 0,10.8651 0,21.7326 0,32.6 3.56815,0 7.13631,0 10.7045,0 0,-10.8675 0,-21.7349 0,-32.6z" />
   <path
   id="_106478192"
   class="fil118"
   d="M19.5014 24.4231c-3.20791,0 -6.41465,0 -9.62256,0 0,10.8651 0,21.7326 0,32.6 3.20791,0 6.41465,0 9.62256,0 0,-10.8675 0,-21.7349 0,-32.6z" />
   <path
   id="_106479320"
   class="fil119"
   d="M18.7916 24.4905c-2.84531,0 -5.6918,0 -8.53829,0 0,10.8651 0,21.7326 0,32.6 2.84649,0 5.69298,0 8.53829,0 0,-10.8675 0,-21.7349 0,-32.6z" />
   <path
   id="_106479392"
   class="fil120"
   d="M18.0829 24.5578c-2.48507,0 -4.97014,0 -7.45639,0 0,10.8663 0,21.7337 0,32.6012 2.48625,0 4.97132,0 7.45639,0 0,-10.8675 0,-21.7349 0,-32.6012z" />
   <path
   id="_106479464"
   class="fil121"
   d="M17.373 24.6263c-2.12365,0 -4.24848,0 -6.37213,0 0,10.8651 0,21.7326 0,32.6 2.12365,0 4.24848,0 6.37213,0 0,-10.8675 0,-21.7349 0,-32.6z" />
   <path
   id="_106479536"
   class="fil122"
   d="M16.6644 24.6936c-1.76341,0 -3.52682,0 -5.29022,0 0,10.8663 0,21.7337 0,32.6012 1.76341,0 3.52682,0 5.29022,0 0,-10.8675 0,-21.7349 0,-32.6012z" />
   <path
   id="_106479608"
   class="fil123"
   d="M15.9545 24.7609c-1.4008,0 -2.80397,0 -4.20596,0 0,10.8663 0,21.7337 0,32.6012 1.40199,0 2.80515,0 4.20596,0 0,-10.8675 0,-21.7349 0,-32.6012z" />
   <path
   id="_106479680"
   class="fil124"
   d="M15.2459 24.8294c-1.04056,0 -2.08231,0 -3.12405,0 0,10.8663 0,21.7337 0,32.6012 1.04175,0 2.08349,0 3.12405,0 0,-10.8675 0,-21.7349 0,-32.6012z" />
  </g>
  <polygon
   class="fil125"
   points="14.5348,24.8968 12.495,24.8968 12.495,57.4991 14.5348,57.4991 "
   id="polygon4557" />
  <polygon
   class="fil105"
   points="0.959067,57.0054 62.9783,57.0078 62.9653,57.9834 0.964973,57.9834 "
   id="polygon4559" />
  <path
   class="fil15"
   d="M4.08785 11.8962l8.00325 0c0.415753,0 0.755915,0.229137 0.755915,0.506699l0 1.46104c0,0.0803159 -0.030709,0.15827 -0.0814971,0.226774 0.0862215,0.0330713 0.132285,0.351973 0.132285,0.491345 0,0.140553 -2.15318,0.4441 -4.80833,0.4441 -2.65515,0 -4.73392,-0.161813 -4.73392,-0.406304 0,-0.090946 -0.0236223,-0.614181 -0.0236223,-0.755915l0 -1.67364c0,-0.278744 0.340162,-0.294098 0.755915,-0.294098z"
   id="path4561" />
  <rect
   class="fil79"
   x="6.1442"
   y="11.9003"
   width="3.83938"
   height="4.12998"
   id="rect4563" />
  <rect
   class="fil126"
   x="9.98319"
   y="12.0019"
   width="1.01689"
   height="4.12998"
   id="rect4565" />
  <rect
   class="fil126"
   x="4.87789"
   y="12.1834"
   width="1.24081"
   height="4.12998"
   id="rect4567" />
  <path
   class="fil127"
   d="M8.23947 11.6623c2.65515,0 4.80951,0.261027 4.80951,0.584653 0,0.322445 -2.15436,0.584653 -4.80951,0.584653 -2.65515,0 -4.80951,-0.262208 -4.80951,-0.584653 0,-0.323626 2.15436,-0.584653 4.80951,-0.584653z"
   id="path4569" />
  <path
   class="fil128"
   d="M12.9911 12.6474l0.0118112 1.37128 0.0118112 1.45395 0.00236223 0.00354335c0,0.302366 -0.768907,0.690953 -2.06814,0.827963 -0.770088,0.0803159 -1.76105,0.141734 -2.88547,0.141734 -1.31458,0 -2.45909,-0.0484258 -3.28705,-0.127561 -1.09844,-0.102757 -1.74451,-0.386225 -1.74451,-0.805522l0.00236223 0 -0.00944894 -0.263389c-0.0070867,-0.17953 -0.0153545,-0.395674 -0.0141734,-0.496069l0 -0.00236223 0.0259846 -2.38231 -0.00236223 0 0 -0.00472447 0.00236223 -0.0177168c0.020079,-0.582291 0.803159,-0.959067 1.9016,-1.15041 0.8882,-0.155907 2.04451,-0.231499 3.10161,-0.220869l0.00590558 0 0.408666 0.00944894 0.00590558 0c1.7327,0.0590558 3.10043,0.287011 3.80792,0.531503 0.226774,0.0779537 0.408666,0.1689 0.531503,0.261027 0.284649,0.213782 0.374414,0.477171 0.24331,0.775994l-0.00354335 0.00944894 -0.0484258 0.0850404zm-0.985051 1.37836l-0.0129923 -1.54726 -0.0484258 -0.0177168 -0.00236223 -0.00118112c-0.628354,-0.218507 -1.88506,-0.42284 -3.51264,-0.478352l-0.402761 -0.00944894c-0.990957,-0.00944894 -2.0764,0.0614181 -2.91618,0.209058 -0.630716,0.109844 -1.07718,0.193703 -1.07718,0.20079l-0.0259846 2.37877 0 0.00236223 0.0141734 0.446462 0 0.00472447 0.00944894 0.283468 0.00236223 0.0153545c0,0.172443 0.310634,-0.236223 0.837412,-0.186616 0.767726,0.0732292 1.87561,0.118112 3.19256,0.118112 1.11852,0 2.06577,-0.0578747 2.78389,-0.132285 0.733474,-0.0767726 1.16812,0.305909 1.16812,0.164175l0.00236223 0 -0.0118112 -1.45041z"
   id="path4571" />
  <path
   class="fil129"
   d="M1.34765 18.1644c0.00590558,0 0.0850404,-1.22127 0.635441,-1.22127l0 0.00236223 10.8958 -0.00472447c0.505518,-0.0661425 0.661425,-0.576385 0.701583,-1.17167 0.0271657,0.900011 0.0803159,2.1142 -0.701583,2.21696l-10.8698 0.030709 -0.0259846 -0.0791348c-0.17953,0 -0.39095,0.144096 -0.597645,0.338981 -0.445281,0.0685048 -0.0460636,0.0295279 -0.0519691,0.0295279l0.0141734 -0.141734zm12.2399 -2.91263c-0.00826782,-0.322445 -0.0224412,-0.627173 -0.00826782,-0.862215l0 -0.00118112c0,-0.609456 0.641346,-1.38545 1.24726,-1.38191l0 -0.00354335 0.00472447 0 0 0.00354335 46.5525 0.0531503 0 -0.00236223c0.343705,0 0.667331,0.109844 0.910641,0.278744 0.316539,0.220869 0.514967,0.546857 0.514967,0.928358l0.0177168 0.474809 -0.154726 0c-0.0897649,-0.15827 -0.218507,-0.297641 -0.377957,-0.408666 -0.24331,-0.1689 -0.566936,-0.278744 -0.910641,-0.278744l0 0.00236223 -46.5525 -0.0531503 0 -0.00354335 -0.00472447 0 0 0.00354335c-0.675599,-0.00472447 -1.15868,0.597645 -1.23899,1.2508z"
   id="path4573" />
  <polygon
   class="fil130"
   points="62.2673,12.5116 62.2638,12.5116 62.2673,12.5293 "
   id="polygon4575" />
  <polygon
   class="fil130"
   points="12.4974,13.8155 12.4927,13.8143 12.4738,13.8628 "
   id="polygon4577" />
  <polygon
   class="fil130"
   points="12.4927,13.8143 12.4974,13.8155 12.4986,13.8143 12.4974,13.8049 "
   id="polygon4579" />
  <polygon
   class="fil131"
   points="19.5628,20.3069 20.5042,16.551 20.705,16.2593 21.4302,15.2459 52.5538,15.0935 52.868,15.0935 53.0688,15.3427 54.792,20.6188 54.577,20.6873 51.7802,15.8612 21.9794,16.0136 20.3022,20.4168 "
   id="polygon4581" />
  <polygon
   class="fil129"
   points="20.5951,16.3691 21.3357,15.2848 21.5365,14.9931 21.8837,14.9931 52.1475,14.9931 52.4629,14.9931 52.6625,15.2423 53.566,16.3691 52.7073,16.3691 52.6625,16.3136 52.4629,16.0644 52.1475,16.0644 21.8837,16.0644 21.5365,16.0644 21.3357,16.3561 21.3262,16.3691 "
   id="polygon4583" />
  <g
   id="_106124760">
   <polygon
   id="_106125000"
   class="fil132"
   points="25.1708,16.9514 25.8511,16.9514 25.8511,20.7404 26.3295,20.7404 26.3295,20.8302 25.1708,20.8302 " />
   <polygon
   id="_106124928"
   class="fil132"
   points="27.2909,16.9219 27.9712,16.9219 27.9712,20.7097 28.4507,20.7097 28.4507,20.8006 27.2909,20.8006 " />
   <polygon
   id="_106124856"
   class="fil132"
   points="29.3319,16.936 30.0122,16.936 30.0122,20.7239 30.4917,20.7239 30.4917,20.8148 29.3319,20.8148 " />
   <polygon
   id="_106124784"
   class="fil132"
   points="31.452,16.9219 32.1323,16.9219 32.1323,20.7097 32.6118,20.7097 32.6118,20.8006 31.452,20.8006 " />
  </g>
  <polygon
   class="fil133"
   points="43.0399,16.0585 49.0435,16.0585 49.0435,21.0818 43.0399,21.0818 "
   id="polygon4590" />
  <polygon
   class="fil134"
   points="43.9966,16.0065 48.2345,16.0585 48.2345,20.0672 43.9966,20.0152 "
   id="polygon4592" />
  <path
   class="fil135"
   d="M47.6191 16.1423c0.240948,0.174805 0.383863,0.950799 0.383863,1.18348 0,0.617724 -0.526778,1.06773 -1.76459,1.06773 -1.23899,0 -2.24176,-0.500794 -2.24176,-1.11852 0,-0.231499 0.142915,-1.00749 0.383863,-1.18348 0.162994,-0.120474 3.07563,-0.0696859 3.23862,0.050788z"
   id="path4594" />
  <path
   class="fil105"
   d="M46.1179 18.9014c1.04175,0 1.88388,0.271657 1.88388,0.609456 0,0.336618 -0.842136,0.609456 -1.88388,0.609456 -1.03938,0 -1.8827,-0.272838 -1.8827,-0.609456 0,-0.337799 0.843317,-0.609456 1.8827,-0.609456z"
   id="path4596" />
  <polygon
   class="fil79"
   points="1.10907,23.02 62.9842,23.0141 61.2834,24.0475 1.11143,24.0594 "
   id="polygon4598" />
  <g
   id="_106124016">
   <polygon
   id="_106124256"
   class="fil132"
   points="33.2685,17.4097 33.9488,17.4097 33.9488,21.1987 34.4272,21.1987 34.4272,21.2896 33.2685,21.2896 " />
   <polygon
   id="_106124184"
   class="fil132"
   points="35.3886,17.3801 36.0689,17.3801 36.0689,21.1692 36.5485,21.1692 36.5485,21.2601 35.3886,21.2601 " />
   <polygon
   id="_106124112"
   class="fil132"
   points="37.4296,17.3943 38.1099,17.3943 38.1099,21.1833 38.5895,21.1833 38.5895,21.2743 37.4296,21.2743 " />
  </g>
  <path
   class="fil134"
   d="M1.48939 24.9712l61.496 0.0885838 -0.242129 0.96261 -49.4557 0.050788c-1.22482,0.393312 -2.37404,0.793711 -3.7028,0.803159 -1.3323,0.00944894 -2.8583,-0.618905 -4.22131,-0.745285 -1.53191,-0.139372 -2.87366,-0.0437013 -4.3536,-0.0413391l0.479533 -1.11852z"
   id="path4604" />
  <path
   class="fil136"
   d="M37.5288 21.3877c5.48274,0 10.4517,2.15081 14.0506,5.6233 3.60713,3.48311 5.8418,8.29617 5.8418,13.61 0,5.31384 -2.23467,10.1257 -5.84299,13.6088 -3.59768,3.47248 -8.56664,5.6233 -14.0494,5.6233 -5.48156,0 -10.4517,-2.15081 -14.0494,-5.6233 -3.60713,-3.48311 -5.8418,-8.2938 -5.8418,-13.6088 0,-5.31384 2.23467,-10.1269 5.8418,-13.61 3.59768,-3.47248 8.56782,-5.6233 14.0494,-5.6233zm12.7254 6.9993c-3.25398,-3.13941 -7.75285,-5.08353 -12.7254,-5.08353 -4.97132,0 -9.47138,1.94412 -12.7254,5.08353 -3.24217,3.12996 -5.25006,7.45757 -5.25006,12.234 0,4.77644 2.0079,9.10287 5.25006,12.2316 3.25398,3.14059 7.75403,5.08471 12.7254,5.08471 4.97132,0 9.47138,-1.94412 12.7254,-5.08471 3.24335,-3.12996 5.25125,-7.45521 5.25125,-12.2316 0,-4.77644 -2.0079,-9.10405 -5.25125,-12.234z"
   id="path4606" />
  <ellipse
   class="fil137"
   cx="37.5293"
   cy="40.6204"
   rx="18.648"
   ry="17.9987"
   id="ellipse4608" />
  <path
   class="fil136"
   d="M37.5288 24.142c4.62643,0 8.82058,1.83309 11.8561,4.79297 3.04256,2.96697 4.92644,7.0678 4.92644,11.595 0,4.52722 -1.88388,8.62806 -4.92644,11.5962 -3.03547,2.95988 -7.22962,4.79297 -11.8561,4.79297 -4.62407,0 -8.8194,-1.83309 -11.8549,-4.79297 -3.04256,-2.96697 -4.92644,-7.0678 -4.92644,-11.5962 0,-4.52722 1.8827,-8.62806 4.92644,-11.595 3.03547,-2.95988 7.22844,-4.79297 11.8549,-4.79297zm10.5226 6.16307c-2.69058,-2.62326 -6.41228,-4.2473 -10.5226,-4.2473 -4.11029,0 -7.83081,1.62404 -10.5214,4.2473 -2.6835,2.61617 -4.34415,6.23275 -4.34415,10.2249 0,3.99218 1.66183,7.60994 4.34415,10.2261 2.69058,2.62326 6.4111,4.2473 10.5214,4.2473 4.11029,0 7.83199,-1.62404 10.5226,-4.2473 2.6835,-2.61736 4.34415,-6.23512 4.34415,-10.2261 0,-3.99218 -1.66183,-7.60876 -4.34415,-10.2249z"
   id="path4610" />
  <ellipse
   class="fil138"
   cx="37.5292"
   cy="40.5306"
   rx="15.2928"
   ry="14.9123"
   id="ellipse4612" />
  <path
   class="fil139"
   d="M37.5442 28.3185c7.05717,0 12.7809,5.68826 12.7809,12.7029 0,7.01465 -5.72369,12.7029 -12.7809,12.7029 -7.05717,0 -12.7809,-5.68826 -12.7809,-12.7029 0,-7.01465 5.72369,-12.7029 12.7809,-12.7029z"
   id="path4614" />
  <path
   class="fil140"
   d="M37.3953 28.9078c6.6863,0 12.1076,5.38944 12.1076,12.0344 0,6.64614 -5.42133,12.0356 -12.1076,12.0356 -6.6863,0 -12.1088,-5.38944 -12.1088,-12.0356 0,-6.64496 5.42251,-12.0344 12.1088,-12.0344z"
   id="path4616" />
  <path
   class="fil140"
   d="M37.3953 28.9078c6.6863,0 12.1076,5.38944 12.1076,12.0344 0,6.64614 -5.42133,12.0356 -12.1076,12.0356 -6.6863,0 -12.1088,-5.38944 -12.1088,-12.0356 0,-6.64496 5.42251,-12.0344 12.1088,-12.0344z"
   id="path4618" />
  <g
   id="_106089240">
   <path
   id="_106090224"
   class="fil141"
   d="M37.752 30.9275c6.73237,0 12.1915,5.34574 12.1915,11.9364 0,6.59063 -5.45912,11.9364 -12.1915,11.9364 -6.73237,0 -12.1927,-5.34574 -12.1927,-11.9364 0,-6.59063 5.4603,-11.9364 12.1927,-11.9364z" />
   <g
   id="g4622">
    <path
   id="_106090152"
   class="fil142"
   d="M37.7178 32.0402c6.32016,0 11.4474,5.01975 11.4474,11.2076 0,6.18787 -5.12723,11.2088 -11.4474,11.2088 -6.32252,0 -11.4486,-5.02093 -11.4486,-11.2088 0,-6.18787 5.12605,-11.2076 11.4486,-11.2076z" />
    <path
   id="_106090080"
   class="fil143"
   d="M37.6812 33.154c5.91031,0 10.7021,4.69376 10.7021,10.4801 0,5.78629 -4.79179,10.4801 -10.7021,10.4801 -5.91149,0 -10.7056,-4.69376 -10.7056,-10.4801 0,-5.78629 4.79415,-10.4801 10.7056,-10.4801z" />
    <path
   id="_106090008"
   class="fil144"
   d="M37.6481 34.2666c5.4981,0 9.958,4.36777 9.958,9.75248 0,5.38353 -4.4599,9.75248 -9.958,9.75248 -5.50164,0 -9.96154,-4.36895 -9.96154,-9.75248 0,-5.38471 4.4599,-9.75248 9.96154,-9.75248z" />
    <path
   id="_106089936"
   class="fil145"
   d="M37.6103 35.3804c5.08707,0 9.21507,4.04178 9.21507,9.02373 0,4.98195 -4.128,9.02373 -9.21507,9.02373 -5.09061,0 -9.21744,-4.04178 -9.21744,-9.02373 0,-4.98195 4.12682,-9.02373 9.21744,-9.02373z" />
    <path
   id="_106089864"
   class="fil146"
   d="M37.5737 36.4941c4.67722,0 8.47215,3.71579 8.47215,8.29617 0,4.57919 -3.79493,8.29498 -8.47215,8.29498 -4.67959,0 -8.47333,-3.71579 -8.47333,-8.29498 0,-4.58037 3.79375,-8.29617 8.47333,-8.29617z" />
    <path
   id="_106089792"
   class="fil147"
   d="M37.5371 37.6079c4.26619,0 7.72805,3.38981 7.72805,7.56742 0,4.17761 -3.46185,7.56742 -7.72805,7.56742 -4.26856,0 -7.72923,-3.38981 -7.72923,-7.56742 0,-4.17761 3.46067,-7.56742 7.72923,-7.56742z" />
    <path
   id="_106089720"
   class="fil148"
   d="M37.5028 38.7229c3.85517,0 6.98394,3.06145 6.98394,6.83749 0,3.77603 -3.12878,6.83867 -6.98394,6.83867 -3.85871,0 -6.98631,-3.06264 -6.98631,-6.83867 0,-3.77603 3.1276,-6.83749 6.98631,-6.83749z" />
    <path
   id="_106089648"
   class="fil149"
   d="M37.465 39.8355c3.44532,0 6.24102,2.73665 6.24102,6.10992 0,3.37445 -2.7957,6.1111 -6.24102,6.1111 -3.4465,0 -6.2422,-2.73665 -6.2422,-6.1111 0,-3.37327 2.7957,-6.10992 6.2422,-6.10992z" />
    <path
   id="_106089576"
   class="fil150"
   d="M37.4296 40.9493c3.03429,0 5.49692,2.41066 5.49692,5.38117 0,2.97287 -2.46263,5.38353 -5.49692,5.38353 -3.03665,0 -5.4981,-2.41066 -5.4981,-5.38353 0,-2.97051 2.46145,-5.38117 5.4981,-5.38117z" />
    <path
   id="_106089504"
   class="fil151"
   d="M37.3918 42.0631c2.62444,0 4.75281,2.08467 4.75281,4.6536 0,2.57011 -2.12837,4.6536 -4.75281,4.6536 -2.62562,0 -4.754,-2.08349 -4.754,-4.6536 0,-2.56893 2.12837,-4.6536 4.754,-4.6536z" />
    <path
   id="_106089432"
   class="fil152"
   d="M37.3587 43.1769c2.21223,0 4.00871,1.7575 4.00871,3.92485 0,2.16853 -1.79648,3.92603 -4.00871,3.92603 -2.21578,0 -4.01107,-1.7575 -4.01107,-3.92603 0,-2.16735 1.7953,-3.92485 4.01107,-3.92485z" />
    <path
   id="_106089360"
   class="fil153"
   d="M37.3209 44.2895c1.80238,0 3.26579,1.43269 3.26579,3.19728 0,1.76695 -1.4634,3.19846 -3.26579,3.19846 -1.80357,0 -3.26579,-1.43151 -3.26579,-3.19846 0,-1.76459 1.46222,-3.19728 3.26579,-3.19728z" />
   </g>
   <path
   id="_106089264"
   class="fil154"
   d="M37.2843 45.4045c1.39254,0 2.52287,1.10553 2.52287,2.46972 0,1.36301 -1.13033,2.46972 -2.52287,2.46972 -1.39254,0 -2.52287,-1.10671 -2.52287,-2.46972 0,-1.36419 1.13033,-2.46972 2.52287,-2.46972z" />
  </g>
  <path
   class="fil155"
   d="M37.5583 36.2662c2.38704,0 4.32171,1.92404 4.32171,4.2969 0,2.37168 -1.93467,4.29572 -4.32171,4.29572 -2.38704,0 -4.32171,-1.92404 -4.32171,-4.29572 0,-2.37286 1.93467,-4.2969 4.32171,-4.2969z"
   id="path4637" />
  <path
   class="fil156"
   d="M37.5583 38.117c1.35828,0 2.46027,1.0949 2.46027,2.44609 0,1.35002 -1.10198,2.44609 -2.46027,2.44609 -1.35947,0 -2.46145,-1.09608 -2.46145,-2.44609 0,-1.3512 1.10198,-2.44609 2.46145,-2.44609z"
   id="path4639" />
  <path
   class="fil157"
   style="mask:url(#id0)"
   d="M37.2016 38.5694c0.654339,0 1.18584,0.531503 1.18584,1.18584 0,0.654339 -0.531503,1.18584 -1.18584,1.18584 -0.654339,0 -1.18466,-0.531503 -1.18466,-1.18584 0,-0.654339 0.530321,-1.18584 1.18466,-1.18584z"
   id="path4641"
   mask="url(#id0)" />
  <path
   class="fil158"
   d="M38.5871 46.836c4.70557,0 8.52058,1.32285 8.52058,2.95397 0,1.62994 -3.81501,2.95279 -8.52058,2.95279 -4.70557,0 -8.52176,-1.32285 -8.52176,-2.95279 0,-1.63112 3.81619,-2.95397 8.52176,-2.95397z"
   id="path4643" />
  <g
   id="_106032304">
   <path
   id="_106088880"
   class="fil159"
   d="M38.0001 44.7277c5.12487,0 9.2824,2.00317 9.2824,4.47289 0,2.46735 -4.15753,4.47053 -9.2824,4.47053 -5.12605,0 -9.28122,-2.00317 -9.28122,-4.47053 0,-2.46972 4.15517,-4.47289 9.28122,-4.47289z" />
   <path
   id="_106088808"
   class="fil160"
   d="M37.9257 45.2132c4.6288,0 8.38475,1.80829 8.38475,4.03942 0,2.23113 -3.75595,4.03942 -8.38475,4.03942 -4.63116,0 -8.38475,-1.80829 -8.38475,-4.03942 0,-2.23113 3.75359,-4.03942 8.38475,-4.03942z" />
   <path
   id="_106088736"
   class="fil161"
   d="M37.8513 45.6974c4.13509,0 7.4871,1.61577 7.4871,3.60831 0,1.99136 -3.35201,3.60713 -7.4871,3.60713 -4.13509,0 -7.48828,-1.61577 -7.48828,-3.60713 0,-1.99254 3.35319,-3.60831 7.48828,-3.60831z" />
   <path
   id="_106088664"
   class="fil162"
   d="M37.7757 46.1817c3.63902,0 6.59063,1.42325 6.59063,3.17602 0,1.75396 -2.95161,3.17602 -6.59063,3.17602 -3.63902,0 -6.59063,-1.42206 -6.59063,-3.17602 0,-1.75278 2.95161,-3.17602 6.59063,-3.17602z" />
   <path
   id="_106088592"
   class="fil163"
   d="M37.7024 46.6683c3.14413,0 5.69298,1.22718 5.69298,2.74255 0,1.51419 -2.54885,2.74373 -5.69298,2.74373 -3.14413,0 -5.69416,-1.22954 -5.69416,-2.74373 0,-1.51537 2.55003,-2.74255 5.69416,-2.74255z" />
   <path
   id="_106088520"
   class="fil164"
   d="M37.6257 47.1525c2.64925,0 4.7977,1.03466 4.7977,2.31026 0,1.27797 -2.14845,2.31263 -4.7977,2.31263 -2.64806,0 -4.79533,-1.03466 -4.79533,-2.31263 0,-1.27561 2.14727,-2.31026 4.79533,-2.31026z" />
   <path
   id="_106032400"
   class="fil165"
   d="M37.5524 47.638c2.15318,0 3.90005,0.840955 3.90005,1.87916 0,1.03702 -1.74687,1.87916 -3.90005,1.87916 -2.15199,0 -3.89887,-0.842136 -3.89887,-1.87916 0,-1.0382 1.74687,-1.87916 3.89887,-1.87916z" />
   <path
   id="_106032328"
   class="fil166"
   d="M37.4768 48.1222c1.65947,0 3.00358,0.647252 3.00358,1.44687 0,0.799616 -1.34411,1.44805 -3.00358,1.44805 -1.65593,0 -3.00122,-0.648433 -3.00122,-1.44805 0,-0.799616 1.34529,-1.44687 3.00122,-1.44687z" />
  </g>
  <path
   class="fil167"
   d="M38.0261 49.4652c0.974421,0 1.76341,0.274019 1.76341,0.610637 0,0.337799 -0.788986,0.610637 -1.76341,0.610637 -0.97324,0 -1.76223,-0.272838 -1.76223,-0.610637 0,-0.336618 0.788986,-0.610637 1.76223,-0.610637z"
   id="path4654" />
  <ellipse
   class="fil168"
   cx="36.9846"
   cy="48.7851"
   rx="3.50448"
   ry="3.19288"
   id="ellipse4656" />
  <g
   id="_106031392">
   <path
   id="_106032088"
   class="fil169"
   d="M37.8595 27.422c4.9914,0 9.03909,3.61067 9.03909,8.06112 0,4.45045 -4.04769,8.05994 -9.03909,8.05994 -4.99258,0 -9.04145,-3.60949 -9.04145,-8.05994 0,-4.45045 4.04887,-8.06112 9.04145,-8.06112z" />
   <g
   id="g4660">
    <path
   id="_106032016"
   class="fil170"
   d="M37.8099 27.7681c4.69258,0 8.49577,3.39217 8.49577,7.5745 0,4.18352 -3.8032,7.57568 -8.49577,7.57568 -4.6914,0 -8.49695,-3.39217 -8.49695,-7.57568 0,-4.18233 3.80556,-7.5745 8.49695,-7.5745z" />
    <path
   id="_106031944"
   class="fil171"
   d="M37.7615 28.1129c4.39021,0 7.95246,3.17484 7.95246,7.09024 0,3.9154 -3.56225,7.09143 -7.95246,7.09143 -4.39257,0 -7.95364,-3.17602 -7.95364,-7.09143 0,-3.9154 3.56107,-7.09024 7.95364,-7.09024z" />
    <path
   id="_106031872"
   class="fil172"
   d="M37.7119 28.4578c4.09139,0 7.40915,2.9587 7.40915,6.60717 0,3.64729 -3.31776,6.60599 -7.40915,6.60599 -4.09257,0 -7.41033,-2.9587 -7.41033,-6.60599 0,-3.64847 3.31776,-6.60717 7.41033,-6.60717z" />
    <path
   id="_106031800"
   class="fil173"
   d="M37.6623 28.8027c3.7902,0 6.86583,2.74137 6.86583,6.12291 0,3.38036 -3.07563,6.12173 -6.86583,6.12173 -3.79257,0 -6.86701,-2.74137 -6.86701,-6.12173 0,-3.38154 3.07445,-6.12291 6.86701,-6.12291z" />
    <path
   id="_106031728"
   class="fil174"
   d="M37.6127 29.1488c3.49138,0 6.32252,2.52405 6.32252,5.63747 0,3.11224 -2.83114,5.63747 -6.32252,5.63747 -3.49138,0 -6.3237,-2.52523 -6.3237,-5.63747 0,-3.11342 2.83232,-5.63747 6.3237,-5.63747z" />
    <path
   id="_106031656"
   class="fil175"
   d="M37.5631 29.4937c3.1902,0 5.7792,2.3079 5.7792,5.15321 0,2.84531 -2.58901,5.15321 -5.7792,5.15321 -3.19138,0 -5.7792,-2.3079 -5.7792,-5.15321 0,-2.84531 2.58783,-5.15321 5.7792,-5.15321z" />
    <path
   id="_106031584"
   class="fil176"
   d="M37.5135 29.8397c2.89137,0 5.23589,2.09058 5.23589,4.66896 0,2.5772 -2.34452,4.66777 -5.23589,4.66777 -2.89137,0 -5.23707,-2.09058 -5.23707,-4.66777 0,-2.57838 2.3457,-4.66896 5.23707,-4.66896z" />
    <path
   id="_106031512"
   class="fil177"
   d="M37.4638 30.1846c2.59019,0 4.69258,1.87325 4.69258,4.18352 0,2.31026 -2.10239,4.1847 -4.69258,4.1847 -2.59137,0 -4.69258,-1.87443 -4.69258,-4.1847 0,-2.31026 2.10121,-4.18352 4.69258,-4.18352z" />
   </g>
   <path
   id="_106031416"
   class="fil178"
   d="M37.4142 30.5307c2.29137,0 4.14926,1.65711 4.14926,3.69926 0,2.04333 -1.8579,3.70044 -4.14926,3.70044 -2.29255,0 -4.15044,-1.65711 -4.15044,-3.70044 0,-2.04215 1.8579,-3.69926 4.15044,-3.69926z" />
  </g>
  <g
   id="_105996520">
   <path
   id="_106031320"
   class="fil179"
   d="M37.1615 28.4389c6.87528,0 12.449,5.62212 12.449,12.5541 0,6.93198 -5.57369,12.5588 -12.449,12.5588 -6.8741,0 -12.449,-5.62684 -12.449,-12.5588 0,-6.93198 5.57487,-12.5541 12.449,-12.5541zm0 0.467722c6.61898,0 11.9848,5.41306 11.9848,12.0864 0,6.67449 -5.36581,12.0911 -11.9848,12.0911 -6.6178,0 -11.986,-5.4166 -11.986,-12.0911 0,-6.67331 5.36818,-12.0864 11.986,-12.0864z" />
   <g
   id="g4673">
    <path
   id="_106031248"
   class="fil180"
   d="M37.1627 28.5984c6.78552,0 12.2883,5.55007 12.2883,12.3935 0,6.84339 -5.50282,12.397 -12.2883,12.397 -6.7867,0 -12.2907,-5.55361 -12.2907,-12.397 0,-6.84339 5.504,-12.3935 12.2907,-12.3935zm0 0.460636c6.53394,0 11.8301,5.34455 11.8301,11.9328 0,6.58827 -5.29613,11.9364 -11.8301,11.9364 -6.53276,0 -11.8324,-5.3481 -11.8324,-11.9364 0,-6.58827 5.29967,-11.9328 11.8324,-11.9328z" />
    <path
   id="_106031176"
   class="fil181"
   d="M37.1627 28.759c6.69693,0 12.1277,5.47802 12.1277,12.2328 0,6.75481 -5.43078,12.2364 -12.1277,12.2364 -6.69811,0 -12.1301,-5.48156 -12.1301,-12.2364 0,-6.75481 5.43196,-12.2328 12.1301,-12.2328zm0 0.455911c6.4489,0 11.6765,5.27369 11.6765,11.7769 0,6.50323 -5.22762,11.7816 -11.6765,11.7816 -6.44772,0 -11.6789,-5.27841 -11.6789,-11.7816 0,-6.50323 5.23117,-11.7769 11.6789,-11.7769z" />
    <path
   id="_106031104"
   class="fil182"
   d="M37.1627 28.9196c6.60953,0 11.9683,5.40715 11.9683,12.0722 0,6.66622 -5.35873,12.0757 -11.9683,12.0757 -6.60953,0 -11.9706,-5.40952 -11.9706,-12.0757 0,-6.66504 5.36109,-12.0722 11.9706,-12.0722zm0 0.450006c6.36386,0 11.523,5.204 11.523,11.6222 0,6.41701 -5.15912,11.6257 -11.523,11.6257 -6.36386,0 -11.5253,-5.20873 -11.5253,-11.6257 0,-6.41819 5.16148,-11.6222 11.5253,-11.6222z" />
    <path
   id="_106031032"
   class="fil183"
   d="M37.1627 29.0803c6.52213,0 11.8088,5.33511 11.8088,11.9116 0,6.57646 -5.28668,11.9139 -11.8088,11.9139 -6.52213,0 -11.8112,-5.33747 -11.8112,-11.9139 0,-6.57646 5.28904,-11.9116 11.8112,-11.9116zm0 0.4441c6.27882,0 11.3694,5.1355 11.3694,11.4675 0,6.33197 -5.09061,11.471 -11.3694,11.471 -6.27882,0 -11.3718,-5.13904 -11.3718,-11.471 0,-6.33197 5.09298,-11.4675 11.3718,-11.4675z" />
    <path
   id="_106030960"
   class="fil184"
   d="M37.1627 29.2421c6.43354,0 11.6494,5.26188 11.6494,11.7498 0,6.48788 -5.21581,11.7545 -11.6494,11.7545 -6.43354,0 -11.6517,-5.2666 -11.6517,-11.7545 0,-6.48788 5.21817,-11.7498 11.6517,-11.7498zm0 0.437013c6.19378,0 11.2159,5.06699 11.2159,11.3127 0,6.24693 -5.02211,11.3163 -11.2159,11.3163 -6.19378,0 -11.2182,-5.06935 -11.2182,-11.3163 0,-6.24575 5.02447,-11.3127 11.2182,-11.3127z" />
    <path
   id="_106030888"
   class="fil185"
   d="M37.1627 29.4027c6.34496,0 11.4899,5.18983 11.4899,11.5891 0,6.39929 -5.14495,11.5927 -11.4899,11.5927 -6.34496,0 -11.4923,-5.19337 -11.4923,-11.5927 0,-6.39929 5.14731,-11.5891 11.4923,-11.5891zm0 0.431108c6.10874,0 11.0623,4.99731 11.0623,11.158 0,6.16071 -4.9536,11.1616 -11.0623,11.1616 -6.10874,0 -11.0647,-5.00085 -11.0647,-11.1616 0,-6.16071 4.95597,-11.158 11.0647,-11.158z" />
    <path
   id="_106030816"
   class="fil186"
   d="M37.1627 29.5645c6.25756,0 11.3305,5.11896 11.3305,11.4273 0,6.31071 -5.0729,11.432 -11.3305,11.432 -6.25756,0 -11.3328,-5.12132 -11.3328,-11.432 0,-6.30835 5.07526,-11.4273 11.3328,-11.4273zm0 0.426383c6.0237,0 10.9088,4.92644 10.9088,11.0009 0,6.07567 -4.8851,11.0068 -10.9088,11.0068 -6.0237,0 -10.9112,-4.93116 -10.9112,-11.0068 0,-6.07448 4.88746,-11.0009 10.9112,-11.0009z" />
    <path
   id="_106030744"
   class="fil187"
   d="M37.1627 29.7252c6.16897,0 11.171,5.04691 11.171,11.2667 0,6.22212 -5.00203,11.2714 -11.171,11.2714 -6.17015,0 -11.1734,-5.04927 -11.1734,-11.2714 0,-6.21976 5.00321,-11.2667 11.1734,-11.2667zm0 0.420478c5.93984,0 10.7553,4.85675 10.7553,10.8462 0,5.99062 -4.81541,10.8521 -10.7553,10.8521 -5.93866,0 -10.7576,-4.86148 -10.7576,-10.8521 0,-5.98944 4.81896,-10.8462 10.7576,-10.8462z" />
    <path
   id="_106030672"
   class="fil188"
   d="M37.1627 29.887c6.08039,0 11.0116,4.97368 11.0116,11.1049 0,6.13354 -4.93116,11.1108 -11.0116,11.1108 -6.08157,0 -11.0139,-4.97723 -11.0139,-11.1108 0,-6.13118 4.93234,-11.1049 11.0139,-11.1049zm0 0.413391c5.8548,0 10.6017,4.78825 10.6017,10.6915 0,5.9044 -4.74691,10.6974 -10.6017,10.6974 -5.8548,0 -10.6041,-4.79297 -10.6041,-10.6974 0,-5.90322 4.74927,-10.6915 10.6041,-10.6915z" />
    <path
   id="_106030600"
   class="fil189"
   d="M37.1627 30.0464c5.99299,0 10.8509,4.90282 10.8509,10.9454 0,6.04378 -4.85793,10.949 -10.8509,10.949 -5.99299,0 -10.8545,-4.90518 -10.8545,-10.949 0,-6.04259 4.86148,-10.9454 10.8545,-10.9454zm0 0.408666c5.76857,0 10.447,4.71974 10.447,10.5367 0,5.81936 -4.6784,10.5426 -10.447,10.5426 -5.76976,0 -10.4505,-4.72329 -10.4505,-10.5426 0,-5.817 4.68077,-10.5367 10.4505,-10.5367z" />
    <path
   id="_106030528"
   class="fil190"
   d="M37.1627 30.2082c5.9044,0 10.6927,4.82959 10.6927,10.7836 0,5.95519 -4.78825,10.7883 -10.6927,10.7883 -5.90558,0 -10.695,-4.83313 -10.695,-10.7883 0,-5.95401 4.78943,-10.7836 10.695,-10.7836zm0 0.40158c5.68472,0 10.2946,4.65006 10.2946,10.382 0,5.73432 -4.6099,10.3867 -10.2946,10.3867 -5.68472,0 -10.297,-4.65242 -10.297,-10.3867 0,-5.73196 4.61226,-10.382 10.297,-10.382z" />
    <path
   id="_106030456"
   class="fil191"
   d="M37.1627 30.3689c5.81582,0 10.532,4.75872 10.532,10.623 0,5.86661 -4.7162,10.6277 -10.532,10.6277 -5.817,0 -10.5344,-4.76108 -10.5344,-10.6277 0,-5.86425 4.71738,-10.623 10.5344,-10.623zm0 0.395674c5.59968,0 10.1411,4.58037 10.1411,10.2273 0,5.6481 -4.54139,10.232 -10.1411,10.232 -5.59968,0 -10.1434,-4.58391 -10.1434,-10.232 0,-5.64692 4.54376,-10.2273 10.1434,-10.2273z" />
   </g>
  </g>
  <path
   class="fil192"
   d="M41.456 32.4547c2.28074,2.04333 2.35987,5.29495 0.178349,7.26269 -2.18152,1.96656 -5.80047,1.90632 -8.0812,-0.13701 -2.28074,-2.04215 -2.36105,-5.29495 -0.17953,-7.26151 2.1827,-1.96774 5.80165,-1.90632 8.08238,0.135828z"
   id="path4687" />
  <ellipse
   class="fil168"
   cx="37.2998"
   cy="43.6182"
   rx="1.44459"
   ry="1.31615"
   id="ellipse4689" />
  <rect
   class="fil193"
   x="10.014"
   y="57.7935"
   width="1.00019"
   height="3.8441"
   id="rect4691" />
  <path
   class="fil105"
   d="M14.5171 15.853l3.02956 0c0.295279,0 0.535046,0.242129 0.535046,0.535046l0 3.09689c0,0.294098 -0.240948,0.535046 -0.535046,0.535046l-3.02956 0c-0.294098,0 -0.535046,-0.239767 -0.535046,-0.535046l0 -3.09689c0,-0.294098 0.239767,-0.535046 0.535046,-0.535046z"
   id="path4693" />
  <polygon
   class="fil135"
   points="14.3352,17.1227 17.5254,17.1227 17.5254,18.292 14.3742,18.292 "
   id="polygon4695" />
  <path
   class="fil130"
   d="M63.0669 56.9995l-0.0212601 2.0327c0.00118112,0.807884 -0.334256,1.55081 -0.871664,2.08821l0 -0.00118112c-0.536227,0.537408 -1.28269,0.87757 -2.09294,0.881113l-56.2353 -0.0070867c-0.601189,-0.0259846 -1.00513,-0.0625992 -1.14923,-0.109844 -1.51301,-0.504337 -1.70908,-2.50042 -1.70908,-2.50397l-0.0141734 -0.121655 -0.00118112 -1.23781 0.996863 0 0.00118112 1.2012c0.0578747,0.311815 0.310634,1.47522 1.0382,1.71734 0.114568,0.0377957 0.434651,0.0673237 0.918909,0.0874027l56.1491 -0.0224412c0.536227,-0.00236223 1.03348,-0.229137 1.39136,-0.588196l0 -0.00118112c0.35906,-0.35906 0.58111,-0.851585 0.58111,-1.38191l0.0212601 -2.0327 0.996863 0z"
   id="path4697" />
  <path
   class="fil128"
   d="M1.17639 24.572l-0.145277 -0.353154 -0.0118112 -8.35286 0.100395 -0.298823c0.00354335,-0.00472447 1.23781,-1.69372 2.08703,-1.69372l0.105119 0.0118112 0.246853 0.0543314 -0.0342524 -0.00118112 -0.852766 1.32285c-0.25394,0.261027 -0.517329,0.59174 -0.65552,0.771269l0.0118112 7.97844 -0.851585 0.561031zm11.0553 -10.6938c0.00944894,-0.0318902 0.0165356,-0.0519691 0.0118112,-0.0590558l-0.258665 -0.373233 0.349611 -0.292917c0.0070867,-0.00590558 2.43783,-2.20633 5.26778,-2.2016l41.1147 0.0933082 0 -0.00236223c2.13664,-0.172443 4.04414,1.5449 4.24257,1.9264l0.0070867 0.494888 0.0519691 9.47728 0 0.0153545 -0.00236223 0.113387 -1.02167 -0.0696859 0.00236223 -0.107482 -0.0236223 -9.17492 -0.0318902 -0.107482 -0.0212601 -0.0696859 -0.0212601 -0.0496069c-0.226774,-0.402761 -0.662607,-0.716938 -1.14568,-0.944894 -0.746466,-0.354335 -1.5886,-0.501975 -2.03625,-0.501975l0 -0.00236223 -41.1147 -0.0933082c-1.91931,-0.00236223 -3.67918,1.21301 -4.34651,1.73624 -0.153545,0.0129923 -0.583472,0.0992138 -1.02403,0.193703z"
   id="path4699" />
 </g>
</svg>