<?xml version="1.0" encoding="UTF-8"?>
<!DOCTYPE svg PUBLIC "-//W3C//DTD SVG 1.1//EN" "http://www.w3.org/Graphics/SVG/1.1/DTD/svg11.dtd">
<!-- Creator: CorelDRAW -->
<svg xmlns="http://www.w3.org/2000/svg" xml:space="preserve" width="64px" height="64px" style="shape-rendering:geometricPrecision; text-rendering:geometricPrecision; image-rendering:optimizeQuality; fill-rule:evenodd; clip-rule:evenodd"
viewBox="0 0 64 64"
 xmlns:xlink="http://www.w3.org/1999/xlink">
 <defs>
  <style type="text/css">
   <![CDATA[
    .fil25 {fill:none}
    .fil57 {fill:white}
    .fil14 {fill:#C9C9C9}
    .fil15 {fill:#E5E5E5}
    .fil29 {fill:white}
    .fil24 {fill:white;fill-rule:nonzero}
    .fil0 {fill:black;fill-opacity:0.000000}
    .fil35 {fill:#FFF9C9;fill-opacity:0.000000}
    .fil30 {fill:#95CEFD;fill-rule:nonzero;fill-opacity:0.000000}
    .fil45 {fill:#FFF9C9;fill-opacity:0.003922}
    .fil1 {fill:black;fill-opacity:0.003922}
    .fil36 {fill:#FFF9C9;fill-opacity:0.003922}
    .fil46 {fill:#FFF9C9;fill-opacity:0.007843}
    .fil2 {fill:black;fill-opacity:0.007843}
    .fil37 {fill:#FFF9C9;fill-opacity:0.011765}
    .fil47 {fill:#FFF9C9;fill-opacity:0.011765}
    .fil3 {fill:black;fill-opacity:0.015686}
    .fil48 {fill:#FFF9C9;fill-opacity:0.015686}
    .fil38 {fill:#FFF9C9;fill-opacity:0.015686}
    .fil4 {fill:black;fill-opacity:0.019608}
    .fil49 {fill:#FFF9C9;fill-opacity:0.019608}
    .fil39 {fill:#FFF9C9;fill-opacity:0.023529}
    .fil5 {fill:black;fill-opacity:0.023529}
    .fil50 {fill:#FFF9C9;fill-opacity:0.023529}
    .fil51 {fill:#FFF9C9;fill-opacity:0.027451}
    .fil6 {fill:black;fill-opacity:0.027451}
    .fil40 {fill:#FFF9C9;fill-opacity:0.027451}
    .fil52 {fill:#FFF9C9;fill-opacity:0.031373}
    .fil7 {fill:black;fill-opacity:0.031373}
    .fil41 {fill:#FFF9C9;fill-opacity:0.031373}
    .fil53 {fill:#FFF9C9;fill-opacity:0.035294}
    .fil8 {fill:black;fill-opacity:0.035294}
    .fil54 {fill:#FFF9C9;fill-opacity:0.039216}
    .fil42 {fill:#FFF9C9;fill-opacity:0.039216}
    .fil9 {fill:black;fill-opacity:0.043137}
    .fil55 {fill:#FFF9C9;fill-opacity:0.043137}
    .fil43 {fill:#FFF9C9;fill-opacity:0.043137}
    .fil10 {fill:black;fill-opacity:0.047059}
    .fil56 {fill:#FFF9C9;fill-opacity:0.047059}
    .fil44 {fill:#FFF9C9;fill-opacity:0.050980}
    .fil11 {fill:black;fill-opacity:0.050980}
    .fil12 {fill:black;fill-opacity:0.054902}
    .fil13 {fill:black;fill-opacity:0.058824}
    .fil32 {fill:#B2B2B2;fill-rule:nonzero;fill-opacity:0.121569}
    .fil21 {fill:black;fill-opacity:0.219608}
    .fil27 {fill:#4A7FB8;fill-opacity:0.219608}
    .fil22 {fill:#A0DFFF;fill-opacity:0.219608}
    .fil16 {fill:#A4A5A7;fill-opacity:0.439216}
    .fil23 {fill:#808385;fill-rule:nonzero;fill-opacity:0.439216}
    .fil26 {fill:#333333;fill-opacity:0.501961}
    .fil31 {fill:#D1CFCF;fill-rule:nonzero;fill-opacity:0.501961}
    .fil28 {fill:url(#id0)}
    .fil19 {fill:url(#id1)}
    .fil20 {fill:url(#id2)}
    .fil17 {fill:url(#id3)}
    .fil18 {fill:url(#id4)}
    .fil34 {fill:url(#id5);fill-rule:nonzero}
    .fil33 {fill:url(#id6);fill-rule:nonzero}
   ]]>
  </style>
  <linearGradient id="id0" gradientUnits="userSpaceOnUse" x1="31.9941" y1="57.557" x2="31.9941" y2="12.3722">
   <stop offset="0" style="stop-color:#7F7F7F"/>
   <stop offset="1" style="stop-color:#999999"/>
  </linearGradient>
  <linearGradient id="id1" gradientUnits="userSpaceOnUse" x1="31.9823" y1="8.50759" x2="32.2504" y2="30.461">
   <stop offset="0" style="stop-color:#EDEDED"/>
   <stop offset="1" style="stop-color:#D1CFCF"/>
  </linearGradient>
  <linearGradient id="id2" gradientUnits="userSpaceOnUse" x1="32.1795" y1="53.69" x2="31.811" y2="16.8475">
   <stop offset="0" style="stop-color:#2E2E2E"/>
   <stop offset="1" style="stop-color:#4A4A4A"/>
  </linearGradient>
  <linearGradient id="id3" gradientUnits="userSpaceOnUse" x1="32.463" y1="44.7017" x2="32.176" y2="25.2369">
   <stop offset="0" style="stop-color:#B0B0B0"/>
   <stop offset="1" style="stop-color:#BEBEBE"/>
  </linearGradient>
  <linearGradient id="id4" gradientUnits="userSpaceOnUse" x1="32.4642" y1="44.5706" x2="32.1748" y2="24.9594">
   <stop offset="0" style="stop-color:#B0B0B0"/>
   <stop offset="1" style="stop-color:#CCCCCC"/>
  </linearGradient>
  <linearGradient id="id5" gradientUnits="userSpaceOnUse" x1="3.29059" y1="55.8964" x2="3.88587" y2="13.9265">
   <stop offset="0" style="stop-color:#B8B8B8"/>
   <stop offset="1" style="stop-color:white"/>
  </linearGradient>
  <linearGradient id="id6" gradientUnits="userSpaceOnUse" xlink:href="#id0" x1="32.0543" y1="61.4866" x2="32.0543" y2="6.57646">
  </linearGradient>
 </defs>
 <g id="Слой_x0020_1">
  <metadata id="CorelCorpID_0Corel-Layer"/>
  <g id="_60565688">
   <path id="_63229904" class="fil0" d="M30.8697 54.0774c31.4791,-1.26143 35.7252,3.60477 35.8623,7.55324 0.13701,3.94847 -16.3313,1.70317 -34.6835,2.38468 -18.3534,0.681504 -33.8296,1.25553 -33.8296,-1.67128 0,-2.92799 1.17167,-7.0052 32.6508,-8.26664z"/>
   <g>
    <path id="_57921520" class="fil1" d="M30.9429 54.5629c30.1433,-1.16458 35.3544,3.44059 35.4808,7.15521 0.12638,3.65674 -16.2404,1.58978 -34.3457,2.21932 -18.1065,0.628354 -33.5567,1.15277 -33.5567,-1.55907 0,-2.77444 2.27719,-6.65205 32.4217,-7.81545z"/>
    <path id="_58559832" class="fil2" d="M31.0138 55.0495c28.8086,-1.06773 34.9847,3.2776 35.1004,6.75953 0.116931,3.36382 -16.1494,1.47522 -34.0091,2.0516 -17.8585,0.576385 -33.2851,1.05119 -33.2851,-1.44687 0,-2.61854 3.3839,-6.29653 32.1937,-7.36426z"/>
    <path id="_47418088" class="fil3" d="M31.0846 55.5349c27.474,-0.970878 34.615,3.11224 34.7213,6.3615 0.105119,3.07209 -16.0596,1.36183 -33.6725,1.88624 -17.6128,0.523235 -33.0134,0.948437 -33.0134,-1.33466 0,-2.46499 4.49061,-5.94338 31.9646,-6.91308z"/>
    <path id="_123259016" class="fil4" d="M31.1567 56.0204c26.1381,-0.872845 34.2453,2.94925 34.3398,5.96582 0.0944894,2.77917 -15.9675,1.24726 -33.3347,1.71853 -17.3671,0.472447 -32.7429,0.846861 -32.7429,-1.22246 0,-2.30908 5.59731,-5.58786 31.7378,-6.46189z"/>
    <path id="_62948152" class="fil5" d="M31.2275 56.5082c24.8035,-0.777175 33.8756,2.78507 33.9595,5.56779 0.0850404,2.48743 -15.8766,1.13387 -32.998,1.55317 -17.1191,0.419296 -32.4701,0.744104 -32.4701,-1.11025 0,-2.15554 6.70284,-5.23471 31.5087,-6.0107z"/>
    <path id="_122023136" class="fil6" d="M31.2984 56.9936c23.4688,-0.679142 33.5059,2.62208 33.5792,5.17211 0.0744104,2.19452 -15.7856,1.0193 -32.6602,1.38545 -16.8734,0.367327 -32.1996,0.642528 -32.1996,-0.996863 0,-2.00081 7.80954,-4.88156 31.2807,-5.5607z"/>
    <path id="_65100552" class="fil7" d="M31.3693 57.4779c22.1353,-0.582291 33.1362,2.45672 33.2,4.77407 0.0625992,1.90396 -15.6959,0.905917 -32.3236,1.22009 -16.6278,0.314177 -31.928,0.540952 -31.928,-0.885838 0,-1.84609 8.91625,-4.52604 31.0516,-5.10833z"/>
    <path id="_65752968" class="fil8" d="M31.4402 57.9633c20.8006,-0.484258 32.7665,2.29373 32.8197,4.3784 0.0519691,1.61104 -15.6049,0.791348 -31.9858,1.05238 -16.3821,0.262208 -31.6575,0.439375 -31.6575,-0.77245 0,-1.69136 10.023,-4.17289 30.8236,-4.65833z"/>
    <path id="_63571976" class="fil9" d="M31.511 58.4511c19.466,-0.388587 32.3969,2.12955 32.4394,3.98036 0.0425202,1.31931 -15.514,0.677961 -31.6492,0.887019 -16.1341,0.209058 -31.3846,0.336618 -31.3846,-0.660244 0,-1.53781 11.1285,-3.81973 30.5945,-4.20714z"/>
    <path id="_121085936" class="fil10" d="M31.5831 58.9366c18.1301,-0.290555 32.0272,1.96656 32.0579,3.58469 0.0318902,1.02639 -15.4218,0.563393 -31.3114,0.7193 -15.8884,0.15827 -31.1142,0.235042 -31.1142,-0.548038 0,-1.38191 12.2352,-3.46422 30.3677,-3.75595z"/>
    <path id="_58285912" class="fil11" d="M31.6539 59.422c16.7955,-0.193703 31.6575,1.8012 31.6787,3.18665 0.020079,0.734655 -15.3321,0.450006 -30.9748,0.553944 -15.6427,0.105119 -30.8425,0.132285 -30.8425,-0.435832 0,-1.22836 13.3419,-3.11106 30.1386,-3.30477z"/>
    <path id="_62518344" class="fil12" d="M31.7248 59.9086c15.4608,-0.0968516 31.2878,1.63821 31.2984,2.79098 0.0106301,0.441738 -15.2411,0.335437 -30.6382,0.386225 -15.3947,0.0531503 -30.5708,0.030709 -30.5708,-0.323626 0,-1.07245 14.4486,-2.75555 29.9106,-2.85358z"/>
   </g>
   <path id="_63012704" class="fil13" d="M31.7933 60.3964c14.1273,0 30.9193,1.47403 30.9193,2.39294 0,0.300004 -60.6007,0.288193 -60.6007,0.00944894 0,-0.918909 15.5541,-2.40239 29.6815,-2.40239z"/>
  </g>
  <path class="fil14" d="M4.07013 6.69811l56.5141 0c1.98782,0 3.32248,0.933082 3.29414,3.24098l-0.0543314 4.37604 -62.9937 0 0 -4.37604c0,-1.83546 1.31458,-3.33902 3.2398,-3.24098z"/>
  <path class="fil15" d="M63.1224 7.67962c-0.451187,-0.492526 -0.791348,-0.217326 -1.51655,-0.312996l-0.462998 1.15986 1.69136 0.677961 0.288193 -1.52482z"/>
  <path class="fil16" d="M63.9268 9.08869c-0.451187,-0.492526 -0.689772,-1.23545 -1.41498,-1.33112l-0.49725 1.09135 1.58978 1.25553 0.322445 -1.01576z"/>
  <path class="fil16" d="M0.883475 9.10641c0.451187,-0.492526 0.689772,-1.23545 1.41498,-1.33112l0.49725 1.09135 -2.13192 2.6457 0.219688 -2.40594z"/>
  <path class="fil15" d="M1.83073 7.54497c0.451187,-0.492526 0.792529,-0.217326 1.51655,-0.312996l0.464179 1.15986 -1.69254 0.677961 -0.288193 -1.52482z"/>
  <path class="fil17" d="M4.00044 8.39302l56.6381 0c1.7327,0 3.15122,1.42443 3.15122,3.15122l0 46.8502c0,1.72797 -1.42088,3.15122 -3.15122,3.15122 -20.7546,0 -21.2377,0 -56.6381,0 -1.73034,0 -3.15122,-1.41734 -3.15122,-3.15122l0 -46.8502c0,-1.73388 1.41734,-3.15122 3.15122,-3.15122z"/>
  <path class="fil18" d="M3.99926 7.98435l56.6393 0c1.7327,0 3.15122,1.42561 3.15122,3.15004l0 47.26c0,1.72797 -1.42088,3.1524 -3.15122,3.1524 -20.7546,0 -21.2377,0 -56.6393,0 -1.72916,0 -3.15004,-1.41852 -3.15004,-3.1524l0 -47.26c0,-1.7327 1.41734,-3.15004 3.15004,-3.15004z"/>
  <path class="fil19" d="M63.5866 26.4972c-13.8947,4.28155 -47.012,3.15831 -62.9405,2.31145l0 -17.4699c0,-1.7327 1.41734,-3.15004 3.15004,-3.15004l56.6393 0c1.73388,0 3.15122,1.42561 3.15122,3.15004l0 15.1585z"/>
  <path class="fil20" d="M4.05477 14.9695l0 40.7414c0.105119,1.33466 1.79057,2.3079 2.99767,2.30436l50.2872 -0.167719c1.74215,-0.0484258 2.53704,-1.21655 2.59609,-2.74846l0 -40.0292c0,-1.61341 -0.96261,-2.49452 -2.69531,-2.4957l-50.3664 -0.0531503c-1.61459,-0.00236223 -2.82051,0.84568 -2.81933,2.44846z"/>
  <path class="fil21" d="M5.054 16.3289l0.20079 39.1682c0.105119,1.32758 0.875208,2.0953 2.0764,2.09176l48.7967 -0.470085c1.73388,-0.0484258 2.32326,-0.40158 2.38349,-1.9264l0 -39.2686c0,-1.60514 -0.959067,-2.48153 -2.68468,-2.48271l-48.8758 0.249216c-1.61222,0.00826782 -1.89805,1.04411 -1.89687,2.63862zm50.9853 -0.342524l-48.1104 0 0.201971 38.0343 47.9593 0 -0.050788 -38.0343z"/>
  <path class="fil22" d="M59.2673 26.7547c-13.6065,3.30004 -40.3021,2.52995 -55.2349,1.75986l0 -12.5269c0,-1.60159 1.14096,-2.44964 2.68704,-2.44727l49.9778 0.0531503c1.65238,0.00118112 2.57011,0.882294 2.57011,2.49452l0 10.6667z"/>
  <path class="fil23" d="M5.35518 57.5594c0.522054,0.388587 1.18348,0.617724 1.72207,0.616543l50.6723 -0.167719c0.611819,-0.0165356 1.08308,-0.193703 1.42088,-0.480715l0.584653 0.672056c-0.48662,0.420478 -1.14214,0.674418 -1.97955,0.69804l-0.0129923 0 -50.6853 0.167719c-0.727568,0.00236223 -1.6075,-0.305909 -2.28664,-0.817333l0.564574 -0.688591z"/>
  <path class="fil24" d="M5.45794 56.5377c0.520873,0.388587 1.1823,0.617724 1.72207,0.616543l50.6723 -0.167719c0.611819,-0.0165356 1.08308,-0.193703 1.4197,-0.480715l0.585834 0.672056c-0.48662,0.420478 -1.14332,0.674418 -1.98073,0.69804l-0.0118112 0 -50.6853 0.167719c-0.727568,0.00236223 -1.60868,-0.305909 -2.28664,-0.817333l0.564574 -0.688591z"/>
  <path class="fil25" d="M4.64651 57.0727l-0.337799 0.368508m56.0735 -0.040158l-0.379139 -0.334256"/>
  <path class="fil26" d="M4.05477 14.3612l0 41.3497c0.105119,1.33466 1.79057,2.3079 2.99767,2.30436l50.2872 -0.167719c1.74215,-0.0484258 2.53704,-1.21655 2.59609,-2.74846l0 -40.6375c0,-1.61341 -0.96261,-2.49452 -2.69531,-2.4957l-50.3664 -0.0531503c-1.61459,-0.00118112 -2.82051,0.84568 -2.81933,2.44846zm2.00081 0l0 41.2092c0.0212601,0.0165356 0.0850404,0.0543314 0.1689,0.118112l0.00118112 -0.00118112c0.271657,0.209058 0.592921,0.335437 0.826782,0.335437l50.24 -0.167719c0.244491,-0.00590558 0.394493,-0.0531503 0.459454,-0.121655 0.107482,-0.113387 0.170081,-0.341343 0.187798,-0.63426l-0.00472447 0 0 -40.6375c0,-0.224412 -0.0188979,-0.357878 -0.0543314,-0.389769l0.00354335 -0.00472447c-0.0826782,-0.070867 -0.301185,-0.108663 -0.643709,-0.108663l-50.3664 -0.0531503 0 0.00826782 -0.0106301 0c-0.349611,0 -0.611819,0.0555125 -0.74056,0.161813l0 0.00826782c-0.0413391,0.0342524 -0.0673237,0.124017 -0.0673237,0.270476l0 0.0070867z"/>
  <path class="fil27" d="M4.05477 16.7837l0.0897649 0 0 -1.0134 -0.0897649 0 0 1.0134zm0 1.04765l0 1.0134 0.0897649 0 0 -1.0134 -0.0897649 0zm0 1.98428l0 1.0134 0.0897649 0 0 -1.0134 -0.0897649 0zm0 2.06105l0 1.0134 0.0897649 0 0 -1.0134 -0.0897649 0zm0 2.03506l0 1.0134 0.0897649 0 0 -1.0134 -0.0897649 0zm0 2.06105l0 1.0134 0.0897649 0 0 -1.0134 -0.0897649 0zm0 1.98428l0 1.0134 0.0897649 0 0 -1.0134 -0.0897649 0zm0 2.06105l0 1.0134 0.0897649 0 0 -1.0134 -0.0897649 0zm0 1.98428l0 1.0134 0.0897649 0 0 -1.0134 -0.0897649 0zm0 2.06105l0 1.0134 0.0897649 0 0 -1.0134 -0.0897649 0zm0 1.98428l0 1.0134 0.0897649 0 0 -1.0134 -0.0897649 0zm0 2.06105l0 1.0134 0.0897649 0 0 -1.0134 -0.0897649 0zm0 1.92404l0 1.0134 0.0897649 0 0 -1.0134 -0.0897649 0zm0 2.06105l0 1.0134 0.0897649 0 0 -1.0134 -0.0897649 0zm0 1.98428l0 1.0134 0.0897649 0 0 -1.0134 -0.0897649 0zm0 2.06105l0 1.0134 0.0897649 0 0 -1.0134 -0.0897649 0zm0 1.98428l0 1.0134 0.0897649 0 0 -1.0134 -0.0897649 0zm0 2.06105l0 1.0134 0.0897649 0 0 -1.0134 -0.0897649 0zm0 1.98428l0 0.748828c0.00826782,0.0897649 0.0248035,0.178349 0.0460636,0.26457l0.0437013 0 0 -1.0134 -0.0897649 0zm44.938 -31.263l-1.01576 0 0 -1.0134 1.01576 0 0 1.0134zm-0.0248035 -4.04533l-1.01576 0 0 -0.874027 1.01576 0 0 0.874027zm3.98509 0.0767726l-1.01576 0 0 -0.950799 1.01576 0 0 0.950799zm2.05987 2.11184l-1.05474 0 0 -1.05592 1.05474 0 0 1.05592zm-2.00908 -0.050788l-1.01576 0 0 -1.0134 1.01576 0 0 1.0134zm1.95829 -2.01026l-1.05474 0 0 -1.00159 1.05474 0 0 1.00159zm-3.9343 1.98428l-1.05474 0 0 -1.05592 1.05474 0 0 1.05592zm-2.00908 -0.050788l-1.01576 0 0 -1.0134 1.01576 0 0 1.0134zm1.95829 -2.01026l-1.05474 0 0 -0.924815 1.05474 0 0 0.924815zm2.00081 4.07131l-1.01576 0 0 -1.0134 1.01576 0 0 1.0134zm2.05987 2.11184l-1.05474 0 0 -1.05592 1.05474 0 0 1.05592zm-2.00908 -0.050788l-1.01576 0 0 -1.0134 1.01576 0 0 1.0134zm1.95829 -2.01026l-1.05474 0 0 -1.05592 1.05474 0 0 1.05592zm-3.9343 1.98428l-1.05474 0 0 -1.05592 1.05474 0 0 1.05592zm-2.00908 -0.050788l-1.01576 0 0 -1.0134 1.01576 0 0 1.0134zm1.95829 -2.01026l-1.05474 0 0 -1.05592 1.05474 0 0 1.05592zm-10.0454 -0.050788l-1.01576 0 0 -1.0134 1.01576 0 0 1.0134zm-0.0248035 -4.04533l-1.01576 0 0 -0.874027 1.01576 0 0 0.874027zm3.98509 0.0767726l-1.01576 0 0 -0.950799 1.01576 0 0 0.950799zm2.05987 2.11184l-1.05474 0 0 -1.05592 1.05474 0 0 1.05592zm-2.00908 -0.050788l-1.01576 0 0 -1.0134 1.01576 0 0 1.0134zm1.95829 -2.01026l-1.05474 0 0 -1.00159 1.05474 0 0 1.00159zm-3.9343 1.98428l-1.05474 0 0 -1.05592 1.05474 0 0 1.05592zm-2.00908 -0.050788l-1.01576 0 0 -1.0134 1.01576 0 0 1.0134zm1.95829 -2.01026l-1.05474 0 0 -0.924815 1.05474 0 0 0.924815zm2.00081 4.07131l-1.01576 0 0 -1.0134 1.01576 0 0 1.0134zm2.05987 2.11184l-1.05474 0 0 -1.05592 1.05474 0 0 1.05592zm-2.00908 -0.050788l-1.01576 0 0 -1.0134 1.01576 0 0 1.0134zm1.95829 -2.01026l-1.05474 0 0 -1.05592 1.05474 0 0 1.05592zm-3.9343 1.98428l-1.05474 0 0 -1.05592 1.05474 0 0 1.05592zm-2.00908 -0.050788l-1.01576 0 0 -1.0134 1.01576 0 0 1.0134zm1.95829 -2.01026l-1.05474 0 0 -1.05592 1.05474 0 0 1.05592zm-9.99579 -0.050788l-1.01576 0 0 -1.0134 1.01576 0 0 1.0134zm-0.0248035 -4.04533l-1.01576 0 0 -0.874027 1.01576 0 0 0.874027zm3.98509 0.0767726l-1.01576 0 0 -0.950799 1.01576 0 0 0.950799zm2.05987 2.11184l-1.05474 0 0 -1.05592 1.05474 0 0 1.05592zm-2.00908 -0.050788l-1.01576 0 0 -1.0134 1.01576 0 0 1.0134zm1.95829 -2.01026l-1.05474 0 0 -1.00159 1.05474 0 0 1.00159zm-3.9343 1.98428l-1.05474 0 0 -1.05592 1.05474 0 0 1.05592zm-2.00908 -0.050788l-1.01576 0 0 -1.0134 1.01576 0 0 1.0134zm1.95829 -2.01026l-1.05474 0 0 -0.924815 1.05474 0 0 0.924815zm2.00081 4.07131l-1.01576 0 0 -1.0134 1.01576 0 0 1.0134zm2.05987 2.11184l-1.05474 0 0 -1.05592 1.05474 0 0 1.05592zm-2.00908 -0.050788l-1.01576 0 0 -1.0134 1.01576 0 0 1.0134zm1.95829 -2.01026l-1.05474 0 0 -1.05592 1.05474 0 0 1.05592zm-3.9343 1.98428l-1.05474 0 0 -1.05592 1.05474 0 0 1.05592zm-2.00908 -0.050788l-1.01576 0 0 -1.0134 1.01576 0 0 1.0134zm1.95829 -2.01026l-1.05474 0 0 -1.05592 1.05474 0 0 1.05592zm-10.0454 -0.050788l-1.01576 0 0 -1.0134 1.01576 0 0 1.0134zm-0.0248035 -4.04533l-1.01576 0 0 -0.874027 1.01576 0 0 0.874027zm3.98509 0.0767726l-1.01576 0 0 -0.950799 1.01576 0 0 0.950799zm2.05987 2.11184l-1.05474 0 0 -1.05592 1.05474 0 0 1.05592zm-2.00908 -0.050788l-1.01576 0 0 -1.0134 1.01576 0 0 1.0134zm1.95829 -2.01026l-1.05474 0 0 -1.00159 1.05474 0 0 1.00159zm-3.9343 1.98428l-1.05474 0 0 -1.05592 1.05474 0 0 1.05592zm-2.00908 -0.050788l-1.01576 0 0 -1.0134 1.01576 0 0 1.0134zm1.95829 -2.01026l-1.05474 0 0 -0.924815 1.05474 0 0 0.924815zm2.00081 4.07131l-1.01576 0 0 -1.0134 1.01576 0 0 1.0134zm2.05987 2.11184l-1.05474 0 0 -1.05592 1.05474 0 0 1.05592zm-2.00908 -0.050788l-1.01576 0 0 -1.0134 1.01576 0 0 1.0134zm1.95829 -2.01026l-1.05474 0 0 -1.05592 1.05474 0 0 1.05592zm-3.9343 1.98428l-1.05474 0 0 -1.05592 1.05474 0 0 1.05592zm-2.00908 -0.050788l-1.01576 0 0 -1.0134 1.01576 0 0 1.0134zm1.95829 -2.01026l-1.05474 0 0 -1.05592 1.05474 0 0 1.05592zm-9.91902 -0.204333l-1.01576 0 0 -1.0134 1.01576 0 0 1.0134zm-0.0248035 -4.04533l-1.01576 0 0 -0.720481 1.01576 0 0 0.720481zm3.98509 0.0767726l-1.01576 0 0 -0.797254 1.01576 0 0 0.797254zm2.05987 2.11184l-1.05474 0 0 -1.05592 1.05474 0 0 1.05592zm-2.00908 -0.050788l-1.01576 0 0 -1.0134 1.01576 0 0 1.0134zm1.95829 -2.01026l-1.05474 0 0 -0.848042 1.05474 0 0 0.848042zm-3.9343 1.98428l-1.05474 0 0 -1.05592 1.05474 0 0 1.05592zm-2.00908 -0.050788l-1.01576 0 0 -1.0134 1.01576 0 0 1.0134zm1.95829 -2.01026l-1.05474 0 0 -0.771269 1.05474 0 0 0.771269zm2.00081 4.07131l-1.01576 0 0 -1.0134 1.01576 0 0 1.0134zm2.05987 2.11184l-1.05474 0 0 -1.05592 1.05474 0 0 1.05592zm-2.00908 -0.050788l-1.01576 0 0 -1.0134 1.01576 0 0 1.0134zm1.95829 -2.01026l-1.05474 0 0 -1.05592 1.05474 0 0 1.05592zm-3.9343 1.98428l-1.05474 0 0 -1.05592 1.05474 0 0 1.05592zm-2.00908 -0.050788l-1.01576 0 0 -1.0134 1.01576 0 0 1.0134zm1.95829 -2.01026l-1.05474 0 0 -1.05592 1.05474 0 0 1.05592zm-10.0454 -0.050788l-1.01576 0 0 -1.0134 1.01576 0 0 1.0134zm-0.0248035 -4.04533l-1.01576 0 0 -0.720481 1.01576 0 0 0.720481zm3.98509 0.0767726l-1.01576 0 0 -0.797254 1.01576 0 0 0.797254zm2.05987 2.11184l-1.05474 0 0 -1.05592 1.05474 0 0 1.05592zm-2.00908 -0.050788l-1.01576 0 0 -1.0134 1.01576 0 0 1.0134zm1.95829 -2.01026l-1.05474 0 0 -0.848042 1.05474 0 0 0.848042zm-3.9343 1.98428l-1.05474 0 0 -1.05592 1.05474 0 0 1.05592zm-2.00908 -0.050788l-1.01576 0 0 -1.0134 1.01576 0 0 1.0134zm1.95829 -2.01026l-1.05474 0 0 -0.771269 1.05474 0 0 0.771269zm2.00081 4.07131l-1.01576 0 0 -1.0134 1.01576 0 0 1.0134zm2.05987 2.11184l-1.05474 0 0 -1.05592 1.05474 0 0 1.05592zm-2.00908 -0.050788l-1.01576 0 0 -1.0134 1.01576 0 0 1.0134zm1.95829 -2.01026l-1.05474 0 0 -1.05592 1.05474 0 0 1.05592zm-3.9343 1.98428l-1.05474 0 0 -1.05592 1.05474 0 0 1.05592zm-2.00908 -0.050788l-1.01576 0 0 -1.0134 1.01576 0 0 1.0134zm1.95829 -2.01026l-1.05474 0 0 -1.05592 1.05474 0 0 1.05592zm13.962 24.3653l-1.01576 0 0 -1.0134 1.01576 0 0 1.0134zm31.126 4.1469l-0.0118112 0 0 -1.0134 0.0106301 0 0.00118112 1.0134zm-31.126 -20.268l-1.01576 0 0 -1.0134 1.01576 0 0 1.0134zm16.023 0l-1.01576 0 0 -1.0134 1.01576 0 0 1.0134zm8.03632 0l-1.01576 0 0 -1.0134 1.01576 0 0 1.0134zm0 8.09065l-1.01576 0 0 -1.0134 1.01576 0 0 1.0134zm-0.0248035 -4.04533l-1.01576 0 0 -1.0134 1.01576 0 0 1.0134zm3.98509 0.0767726l-1.01576 0 0 -1.0134 1.01576 0 0 1.0134zm2.05987 2.11184l-1.05474 0 0 -1.05592 1.05474 0 0 1.05592zm-2.00908 -0.050788l-1.01576 0 0 -1.0134 1.01576 0 0 1.0134zm1.95829 -2.01026l-1.05474 0 0 -1.05592 1.05474 0 0 1.05592zm-3.9343 1.98428l-1.05474 0 0 -1.05592 1.05474 0 0 1.05592zm-2.00908 -0.050788l-1.01576 0 0 -1.0134 1.01576 0 0 1.0134zm1.95829 -2.01026l-1.05474 0 0 -1.05592 1.05474 0 0 1.05592zm2.00081 4.07131l-1.01576 0 0 -1.0134 1.01576 0 0 1.0134zm2.05987 2.11184l-1.05474 0 0 -1.05592 1.05474 0 0 1.05592zm-2.00908 -0.050788l-1.01576 0 0 -1.0134 1.01576 0 0 1.0134zm1.95829 -2.01026l-1.05474 0 0 -1.05592 1.05474 0 0 1.05592zm-3.9343 1.98428l-1.05474 0 0 -1.05592 1.05474 0 0 1.05592zm-2.00908 -0.050788l-1.01576 0 0 -1.0134 1.01576 0 0 1.0134zm1.95829 -2.01026l-1.05474 0 0 -1.05592 1.05474 0 0 1.05592zm-2.03388 -12.1868l-1.01576 0 0 -1.0134 1.01576 0 0 1.0134zm3.98509 0.0767726l-1.01576 0 0 -1.0134 1.01576 0 0 1.0134zm2.05987 2.11184l-1.05474 0 0 -1.05592 1.05474 0 0 1.05592zm-2.00908 -0.050788l-1.01576 0 0 -1.0134 1.01576 0 0 1.0134zm1.95829 -2.01026l-1.05474 0 0 -1.05592 1.05474 0 0 1.05592zm-3.9343 1.98428l-1.05474 0 0 -1.05592 1.05474 0 0 1.05592zm-2.00908 -0.050788l-1.01576 0 0 -1.0134 1.01576 0 0 1.0134zm1.95829 -2.01026l-1.05474 0 0 -1.05592 1.05474 0 0 1.05592zm2.00081 4.07131l-1.01576 0 0 -1.0134 1.01576 0 0 1.0134zm2.05987 2.11184l-1.05474 0 0 -1.05592 1.05474 0 0 1.05592zm-2.00908 -0.050788l-1.01576 0 0 -1.0134 1.01576 0 0 1.0134zm1.95829 -2.01026l-1.05474 0 0 -1.05592 1.05474 0 0 1.05592zm-3.9343 1.98428l-1.05474 0 0 -1.05592 1.05474 0 0 1.05592zm-2.00908 -0.050788l-1.01576 0 0 -1.0134 1.01576 0 0 1.0134zm1.95829 -2.01026l-1.05474 0 0 -1.05592 1.05474 0 0 1.05592zm-10.0454 8.03986l-1.01576 0 0 -1.0134 1.01576 0 0 1.0134zm-0.0248035 -4.04533l-1.01576 0 0 -1.0134 1.01576 0 0 1.0134zm3.98509 0.0767726l-1.01576 0 0 -1.0134 1.01576 0 0 1.0134zm2.05987 2.11184l-1.05474 0 0 -1.05592 1.05474 0 0 1.05592zm-2.00908 -0.050788l-1.01576 0 0 -1.0134 1.01576 0 0 1.0134zm1.95829 -2.01026l-1.05474 0 0 -1.05592 1.05474 0 0 1.05592zm-3.9343 1.98428l-1.05474 0 0 -1.05592 1.05474 0 0 1.05592zm-2.00908 -0.050788l-1.01576 0 0 -1.0134 1.01576 0 0 1.0134zm1.95829 -2.01026l-1.05474 0 0 -1.05592 1.05474 0 0 1.05592zm2.00081 4.07131l-1.01576 0 0 -1.0134 1.01576 0 0 1.0134zm2.05987 2.11184l-1.05474 0 0 -1.05592 1.05474 0 0 1.05592zm-2.00908 -0.050788l-1.01576 0 0 -1.0134 1.01576 0 0 1.0134zm1.95829 -2.01026l-1.05474 0 0 -1.05592 1.05474 0 0 1.05592zm-3.9343 1.98428l-1.05474 0 0 -1.05592 1.05474 0 0 1.05592zm-2.00908 -0.050788l-1.01576 0 0 -1.0134 1.01576 0 0 1.0134zm1.95829 -2.01026l-1.05474 0 0 -1.05592 1.05474 0 0 1.05592zm-2.03388 -12.1868l-1.01576 0 0 -1.0134 1.01576 0 0 1.0134zm3.98509 0.0767726l-1.01576 0 0 -1.0134 1.01576 0 0 1.0134zm2.05987 2.11184l-1.05474 0 0 -1.05592 1.05474 0 0 1.05592zm-2.00908 -0.050788l-1.01576 0 0 -1.0134 1.01576 0 0 1.0134zm1.95829 -2.01026l-1.05474 0 0 -1.05592 1.05474 0 0 1.05592zm-3.9343 1.98428l-1.05474 0 0 -1.05592 1.05474 0 0 1.05592zm-2.00908 -0.050788l-1.01576 0 0 -1.0134 1.01576 0 0 1.0134zm1.95829 -2.01026l-1.05474 0 0 -1.05592 1.05474 0 0 1.05592zm2.00081 4.07131l-1.01576 0 0 -1.0134 1.01576 0 0 1.0134zm2.05987 2.11184l-1.05474 0 0 -1.05592 1.05474 0 0 1.05592zm-2.00908 -0.050788l-1.01576 0 0 -1.0134 1.01576 0 0 1.0134zm1.95829 -2.01026l-1.05474 0 0 -1.05592 1.05474 0 0 1.05592zm-3.9343 1.98428l-1.05474 0 0 -1.05592 1.05474 0 0 1.05592zm-2.00908 -0.050788l-1.01576 0 0 -1.0134 1.01576 0 0 1.0134zm1.95829 -2.01026l-1.05474 0 0 -1.05592 1.05474 0 0 1.05592zm-9.99579 -0.050788l-1.01576 0 0 -1.0134 1.01576 0 0 1.0134zm0 8.09065l-1.01576 0 0 -1.0134 1.01576 0 0 1.0134zm-0.0248035 -4.04533l-1.01576 0 0 -1.0134 1.01576 0 0 1.0134zm3.98509 0.0767726l-1.01576 0 0 -1.0134 1.01576 0 0 1.0134zm2.05987 2.11184l-1.05474 0 0 -1.05592 1.05474 0 0 1.05592zm-2.00908 -0.050788l-1.01576 0 0 -1.0134 1.01576 0 0 1.0134zm1.95829 -2.01026l-1.05474 0 0 -1.05592 1.05474 0 0 1.05592zm-3.9343 1.98428l-1.05474 0 0 -1.05592 1.05474 0 0 1.05592zm-2.00908 -0.050788l-1.01576 0 0 -1.0134 1.01576 0 0 1.0134zm1.95829 -2.01026l-1.05474 0 0 -1.05592 1.05474 0 0 1.05592zm2.00081 4.07131l-1.01576 0 0 -1.0134 1.01576 0 0 1.0134zm2.05987 2.11184l-1.05474 0 0 -1.05592 1.05474 0 0 1.05592zm-2.00908 -0.050788l-1.01576 0 0 -1.0134 1.01576 0 0 1.0134zm1.95829 -2.01026l-1.05474 0 0 -1.05592 1.05474 0 0 1.05592zm-3.9343 1.98428l-1.05474 0 0 -1.05592 1.05474 0 0 1.05592zm-2.00908 -0.050788l-1.01576 0 0 -1.0134 1.01576 0 0 1.0134zm1.95829 -2.01026l-1.05474 0 0 -1.05592 1.05474 0 0 1.05592zm-2.03388 -12.1868l-1.01576 0 0 -1.0134 1.01576 0 0 1.0134zm3.98509 0.0767726l-1.01576 0 0 -1.0134 1.01576 0 0 1.0134zm2.05987 2.11184l-1.05474 0 0 -1.05592 1.05474 0 0 1.05592zm-2.00908 -0.050788l-1.01576 0 0 -1.0134 1.01576 0 0 1.0134zm1.95829 -2.01026l-1.05474 0 0 -1.05592 1.05474 0 0 1.05592zm-3.9343 1.98428l-1.05474 0 0 -1.05592 1.05474 0 0 1.05592zm-2.00908 -0.050788l-1.01576 0 0 -1.0134 1.01576 0 0 1.0134zm1.95829 -2.01026l-1.05474 0 0 -1.05592 1.05474 0 0 1.05592zm2.00081 4.07131l-1.01576 0 0 -1.0134 1.01576 0 0 1.0134zm2.05987 2.11184l-1.05474 0 0 -1.05592 1.05474 0 0 1.05592zm-2.00908 -0.050788l-1.01576 0 0 -1.0134 1.01576 0 0 1.0134zm1.95829 -2.01026l-1.05474 0 0 -1.05592 1.05474 0 0 1.05592zm-3.9343 1.98428l-1.05474 0 0 -1.05592 1.05474 0 0 1.05592zm-2.00908 -0.050788l-1.01576 0 0 -1.0134 1.01576 0 0 1.0134zm1.95829 -2.01026l-1.05474 0 0 -1.05592 1.05474 0 0 1.05592zm-10.0454 8.03986l-1.01576 0 0 -1.0134 1.01576 0 0 1.0134zm-0.0248035 -4.04533l-1.01576 0 0 -1.0134 1.01576 0 0 1.0134zm3.98509 0.0767726l-1.01576 0 0 -1.0134 1.01576 0 0 1.0134zm2.05987 2.11184l-1.05474 0 0 -1.05592 1.05474 0 0 1.05592zm-2.00908 -0.050788l-1.01576 0 0 -1.0134 1.01576 0 0 1.0134zm1.95829 -2.01026l-1.05474 0 0 -1.05592 1.05474 0 0 1.05592zm-3.9343 1.98428l-1.05474 0 0 -1.05592 1.05474 0 0 1.05592zm-2.00908 -0.050788l-1.01576 0 0 -1.0134 1.01576 0 0 1.0134zm1.95829 -2.01026l-1.05474 0 0 -1.05592 1.05474 0 0 1.05592zm2.00081 4.07131l-1.01576 0 0 -1.0134 1.01576 0 0 1.0134zm2.05987 2.11184l-1.05474 0 0 -1.05592 1.05474 0 0 1.05592zm-2.00908 -0.050788l-1.01576 0 0 -1.0134 1.01576 0 0 1.0134zm1.95829 -2.01026l-1.05474 0 0 -1.05592 1.05474 0 0 1.05592zm-3.9343 1.98428l-1.05474 0 0 -1.05592 1.05474 0 0 1.05592zm-2.00908 -0.050788l-1.01576 0 0 -1.0134 1.01576 0 0 1.0134zm1.95829 -2.01026l-1.05474 0 0 -1.05592 1.05474 0 0 1.05592zm-2.03388 -12.1868l-1.01576 0 0 -1.0134 1.01576 0 0 1.0134zm3.98509 0.0767726l-1.01576 0 0 -1.0134 1.01576 0 0 1.0134zm2.05987 2.11184l-1.05474 0 0 -1.05592 1.05474 0 0 1.05592zm-2.00908 -0.050788l-1.01576 0 0 -1.0134 1.01576 0 0 1.0134zm1.95829 -2.01026l-1.05474 0 0 -1.05592 1.05474 0 0 1.05592zm-3.9343 1.98428l-1.05474 0 0 -1.05592 1.05474 0 0 1.05592zm-2.00908 -0.050788l-1.01576 0 0 -1.0134 1.01576 0 0 1.0134zm1.95829 -2.01026l-1.05474 0 0 -1.05592 1.05474 0 0 1.05592zm2.00081 4.07131l-1.01576 0 0 -1.0134 1.01576 0 0 1.0134zm2.05987 2.11184l-1.05474 0 0 -1.05592 1.05474 0 0 1.05592zm-2.00908 -0.050788l-1.01576 0 0 -1.0134 1.01576 0 0 1.0134zm1.95829 -2.01026l-1.05474 0 0 -1.05592 1.05474 0 0 1.05592zm-3.9343 1.98428l-1.05474 0 0 -1.05592 1.05474 0 0 1.05592zm-2.00908 -0.050788l-1.01576 0 0 -1.0134 1.01576 0 0 1.0134zm1.95829 -2.01026l-1.05474 0 0 -1.05592 1.05474 0 0 1.05592zm14.014 16.0703l-1.01576 0 0 -1.0134 1.01576 0 0 1.0134zm8.03632 0l-1.01576 0 0 -1.0134 1.01576 0 0 1.0134zm0 8.09065l-1.01576 0 0 -1.0134 1.01576 0 0 1.0134zm-0.0248035 -4.04533l-1.01576 0 0 -1.0134 1.01576 0 0 1.0134zm3.98509 0.0767726l-1.01576 0 0 -1.0134 1.01576 0 0 1.0134zm2.05987 2.11184l-1.05474 0 0 -1.05592 1.05474 0 0 1.05592zm-2.00908 -0.050788l-1.01576 0 0 -1.0134 1.01576 0 0 1.0134zm1.95829 -2.01026l-1.05474 0 0 -1.05592 1.05474 0 0 1.05592zm-3.9343 1.98428l-1.05474 0 0 -1.05592 1.05474 0 0 1.05592zm-2.00908 -0.050788l-1.01576 0 0 -1.0134 1.01576 0 0 1.0134zm1.95829 -2.01026l-1.05474 0 0 -1.05592 1.05474 0 0 1.05592zm2.00081 4.07131l-1.01576 0 0 -1.0134 1.01576 0 0 1.0134zm2.00908 0.050788l-1.05474 0 0 -1.05592 1.05474 0 0 1.05592zm-3.98509 -0.0767726l-1.05474 0 0 -1.05592 1.05474 0 0 1.05592zm-2.03388 -12.1868l-1.01576 0 0 -1.0134 1.01576 0 0 1.0134zm3.98509 0.0767726l-1.01576 0 0 -1.0134 1.01576 0 0 1.0134zm2.05987 2.11184l-1.05474 0 0 -1.05592 1.05474 0 0 1.05592zm-2.00908 -0.050788l-1.01576 0 0 -1.0134 1.01576 0 0 1.0134zm1.95829 -2.01026l-1.05474 0 0 -1.05592 1.05474 0 0 1.05592zm-3.9343 1.98428l-1.05474 0 0 -1.05592 1.05474 0 0 1.05592zm-2.00908 -0.050788l-1.01576 0 0 -1.0134 1.01576 0 0 1.0134zm1.95829 -2.01026l-1.05474 0 0 -1.05592 1.05474 0 0 1.05592zm2.00081 4.07131l-1.01576 0 0 -1.0134 1.01576 0 0 1.0134zm2.05987 2.11184l-1.05474 0 0 -1.05592 1.05474 0 0 1.05592zm-2.00908 -0.050788l-1.01576 0 0 -1.0134 1.01576 0 0 1.0134zm1.95829 -2.01026l-1.05474 0 0 -1.05592 1.05474 0 0 1.05592zm-3.9343 1.98428l-1.05474 0 0 -1.05592 1.05474 0 0 1.05592zm-2.00908 -0.050788l-1.01576 0 0 -1.0134 1.01576 0 0 1.0134zm1.95829 -2.01026l-1.05474 0 0 -1.05592 1.05474 0 0 1.05592zm-10.0454 8.03986l-1.01576 0 0 -1.0134 1.01576 0 0 1.0134zm-0.0248035 -4.04533l-1.01576 0 0 -1.0134 1.01576 0 0 1.0134zm3.98509 0.0767726l-1.01576 0 0 -1.0134 1.01576 0 0 1.0134zm2.05987 2.11184l-1.05474 0 0 -1.05592 1.05474 0 0 1.05592zm-2.00908 -0.050788l-1.01576 0 0 -1.0134 1.01576 0 0 1.0134zm1.95829 -2.01026l-1.05474 0 0 -1.05592 1.05474 0 0 1.05592zm-3.9343 1.98428l-1.05474 0 0 -1.05592 1.05474 0 0 1.05592zm-2.00908 -0.050788l-1.01576 0 0 -1.0134 1.01576 0 0 1.0134zm1.95829 -2.01026l-1.05474 0 0 -1.05592 1.05474 0 0 1.05592zm2.00081 4.07131l-1.01576 0 0 -1.0134 1.01576 0 0 1.0134zm2.00908 0.050788l-1.05474 0 0 -1.05592 1.05474 0 0 1.05592zm-3.98509 -0.0767726l-1.05474 0 0 -1.05592 1.05474 0 0 1.05592zm-2.03388 -12.1868l-1.01576 0 0 -1.0134 1.01576 0 0 1.0134zm3.98509 0.0767726l-1.01576 0 0 -1.0134 1.01576 0 0 1.0134zm2.05987 2.11184l-1.05474 0 0 -1.05592 1.05474 0 0 1.05592zm-2.00908 -0.050788l-1.01576 0 0 -1.0134 1.01576 0 0 1.0134zm1.95829 -2.01026l-1.05474 0 0 -1.05592 1.05474 0 0 1.05592zm-3.9343 1.98428l-1.05474 0 0 -1.05592 1.05474 0 0 1.05592zm-2.00908 -0.050788l-1.01576 0 0 -1.0134 1.01576 0 0 1.0134zm1.95829 -2.01026l-1.05474 0 0 -1.05592 1.05474 0 0 1.05592zm2.00081 4.07131l-1.01576 0 0 -1.0134 1.01576 0 0 1.0134zm2.05987 2.11184l-1.05474 0 0 -1.05592 1.05474 0 0 1.05592zm-2.00908 -0.050788l-1.01576 0 0 -1.0134 1.01576 0 0 1.0134zm1.95829 -2.01026l-1.05474 0 0 -1.05592 1.05474 0 0 1.05592zm-3.9343 1.98428l-1.05474 0 0 -1.05592 1.05474 0 0 1.05592zm-2.00908 -0.050788l-1.01576 0 0 -1.0134 1.01576 0 0 1.0134zm1.95829 -2.01026l-1.05474 0 0 -1.05592 1.05474 0 0 1.05592zm-9.99579 -0.050788l-1.01576 0 0 -1.0134 1.01576 0 0 1.0134zm0 8.09065l-1.01576 0 0 -1.0134 1.01576 0 0 1.0134zm-0.0248035 -4.04533l-1.01576 0 0 -1.0134 1.01576 0 0 1.0134zm3.98509 0.0767726l-1.01576 0 0 -1.0134 1.01576 0 0 1.0134zm2.05987 2.11184l-1.05474 0 0 -1.05592 1.05474 0 0 1.05592zm-2.00908 -0.050788l-1.01576 0 0 -1.0134 1.01576 0 0 1.0134zm1.95829 -2.01026l-1.05474 0 0 -1.05592 1.05474 0 0 1.05592zm-3.9343 1.98428l-1.05474 0 0 -1.05592 1.05474 0 0 1.05592zm-2.00908 -0.050788l-1.01576 0 0 -1.0134 1.01576 0 0 1.0134zm1.95829 -2.01026l-1.05474 0 0 -1.05592 1.05474 0 0 1.05592zm2.00081 4.07131l-1.01576 0 0 -1.0134 1.01576 0 0 1.0134zm2.00908 0.050788l-1.05474 0 0 -1.05592 1.05474 0 0 1.05592zm-3.98509 -0.0767726l-1.05474 0 0 -1.05592 1.05474 0 0 1.05592zm-2.03388 -12.1868l-1.01576 0 0 -1.0134 1.01576 0 0 1.0134zm3.98509 0.0767726l-1.01576 0 0 -1.0134 1.01576 0 0 1.0134zm2.05987 2.11184l-1.05474 0 0 -1.05592 1.05474 0 0 1.05592zm-2.00908 -0.050788l-1.01576 0 0 -1.0134 1.01576 0 0 1.0134zm1.95829 -2.01026l-1.05474 0 0 -1.05592 1.05474 0 0 1.05592zm-3.9343 1.98428l-1.05474 0 0 -1.05592 1.05474 0 0 1.05592zm-2.00908 -0.050788l-1.01576 0 0 -1.0134 1.01576 0 0 1.0134zm1.95829 -2.01026l-1.05474 0 0 -1.05592 1.05474 0 0 1.05592zm2.00081 4.07131l-1.01576 0 0 -1.0134 1.01576 0 0 1.0134zm2.05987 2.11184l-1.05474 0 0 -1.05592 1.05474 0 0 1.05592zm-2.00908 -0.050788l-1.01576 0 0 -1.0134 1.01576 0 0 1.0134zm1.95829 -2.01026l-1.05474 0 0 -1.05592 1.05474 0 0 1.05592zm-3.9343 1.98428l-1.05474 0 0 -1.05592 1.05474 0 0 1.05592zm-2.00908 -0.050788l-1.01576 0 0 -1.0134 1.01576 0 0 1.0134zm1.95829 -2.01026l-1.05474 0 0 -1.05592 1.05474 0 0 1.05592zm-10.0454 8.03986l-1.01576 0 0 -1.0134 1.01576 0 0 1.0134zm-0.0248035 -4.04533l-1.01576 0 0 -1.0134 1.01576 0 0 1.0134zm3.98509 0.0767726l-1.01576 0 0 -1.0134 1.01576 0 0 1.0134zm2.05987 2.11184l-1.05474 0 0 -1.05592 1.05474 0 0 1.05592zm-2.00908 -0.050788l-1.01576 0 0 -1.0134 1.01576 0 0 1.0134zm1.95829 -2.01026l-1.05474 0 0 -1.05592 1.05474 0 0 1.05592zm-3.9343 1.98428l-1.05474 0 0 -1.05592 1.05474 0 0 1.05592zm-2.00908 -0.050788l-1.01576 0 0 -1.0134 1.01576 0 0 1.0134zm1.95829 -2.01026l-1.05474 0 0 -1.05592 1.05474 0 0 1.05592zm2.00081 4.07131l-1.01576 0 0 -1.0134 1.01576 0 0 1.0134zm2.00908 0.050788l-1.05474 0 0 -1.05592 1.05474 0 0 1.05592zm-3.98509 -0.0767726l-1.05474 0 0 -1.05592 1.05474 0 0 1.05592zm-2.03388 -12.1868l-1.01576 0 0 -1.0134 1.01576 0 0 1.0134zm3.98509 0.0767726l-1.01576 0 0 -1.0134 1.01576 0 0 1.0134zm2.05987 2.11184l-1.05474 0 0 -1.05592 1.05474 0 0 1.05592zm-2.00908 -0.050788l-1.01576 0 0 -1.0134 1.01576 0 0 1.0134zm1.95829 -2.01026l-1.05474 0 0 -1.05592 1.05474 0 0 1.05592zm-3.9343 1.98428l-1.05474 0 0 -1.05592 1.05474 0 0 1.05592zm-2.00908 -0.050788l-1.01576 0 0 -1.0134 1.01576 0 0 1.0134zm1.95829 -2.01026l-1.05474 0 0 -1.05592 1.05474 0 0 1.05592zm2.00081 4.07131l-1.01576 0 0 -1.0134 1.01576 0 0 1.0134zm2.05987 2.11184l-1.05474 0 0 -1.05592 1.05474 0 0 1.05592zm-2.00908 -0.050788l-1.01576 0 0 -1.0134 1.01576 0 0 1.0134zm1.95829 -2.01026l-1.05474 0 0 -1.05592 1.05474 0 0 1.05592zm-3.9343 1.98428l-1.05474 0 0 -1.05592 1.05474 0 0 1.05592zm-2.00908 -0.050788l-1.01576 0 0 -1.0134 1.01576 0 0 1.0134zm1.95829 -2.01026l-1.05474 0 0 -1.05592 1.05474 0 0 1.05592zm-17.9553 -16.3254l-1.01458 0 -0.00118112 -0.229137 0 -0.784262 1.01576 0 0 1.0134zm8.03632 0l-1.01576 0 0 -1.0134 1.01576 0 0 1.0134zm0 8.09065l-1.01576 0 0 -1.0134 1.01576 0 0 1.0134zm-0.0248035 -4.04533l-1.01576 0 0 -1.0134 1.01576 0 0 1.0134zm3.98509 0.0767726l-1.01576 0 0 -1.0134 1.01576 0 0 1.0134zm2.05987 2.11184l-1.05474 0 0 -1.05592 1.05474 0 0 1.05592zm-2.00908 -0.050788l-1.01576 0 0 -1.0134 1.01576 0 0 1.0134zm1.95829 -2.01026l-1.05474 0 0 -1.05592 1.05474 0 0 1.05592zm-3.9343 1.98428l-1.05474 0 0 -1.05592 1.05474 0 0 1.05592zm-2.00908 -0.050788l-1.01576 0 0 -1.0134 1.01576 0 0 1.0134zm1.95829 -2.01026l-1.05474 0 0 -1.05592 1.05474 0 0 1.05592zm2.00081 4.07131l-1.01576 0 0 -1.0134 1.01576 0 0 1.0134zm2.05987 2.11184l-1.05474 0 0 -1.05592 1.05474 0 0 1.05592zm-2.00908 -0.050788l-1.01576 0 0 -1.0134 1.01576 0 0 1.0134zm1.95829 -2.01026l-1.05474 0 0 -1.05592 1.05474 0 0 1.05592zm-3.9343 1.98428l-1.05474 0 0 -1.05592 1.05474 0 0 1.05592zm-2.00908 -0.050788l-1.01576 0 0 -1.0134 1.01576 0 0 1.0134zm1.95829 -2.01026l-1.05474 0 0 -1.05592 1.05474 0 0 1.05592zm-2.03388 -12.1868l-1.01576 0 0 -1.0134 1.01576 0 0 1.0134zm3.98509 0.0767726l-1.01576 0 0 -1.0134 1.01576 0 0 1.0134zm2.05987 2.11184l-1.05474 0 0 -1.05592 1.05474 0 0 1.05592zm-2.00908 -0.050788l-1.01576 0 0 -1.0134 1.01576 0 0 1.0134zm1.95829 -2.01026l-1.05474 0 0 -1.05592 1.05474 0 0 1.05592zm-3.9343 1.98428l-1.05474 0 0 -1.05592 1.05474 0 0 1.05592zm-2.00908 -0.050788l-1.01576 0 0 -1.0134 1.01576 0 0 1.0134zm1.95829 -2.01026l-1.05474 0 0 -1.05592 1.05474 0 0 1.05592zm2.00081 4.07131l-1.01576 0 0 -1.0134 1.01576 0 0 1.0134zm2.05987 2.11184l-1.05474 0 0 -1.05592 1.05474 0 0 1.05592zm-2.00908 -0.050788l-1.01576 0 0 -1.0134 1.01576 0 0 1.0134zm1.95829 -2.01026l-1.05474 0 0 -1.05592 1.05474 0 0 1.05592zm-3.9343 1.98428l-1.05474 0 0 -1.05592 1.05474 0 0 1.05592zm-2.00908 -0.050788l-1.01576 0 0 -1.0134 1.01576 0 0 1.0134zm1.95829 -2.01026l-1.05474 0 0 -1.05592 1.05474 0 0 1.05592zm-10.0454 8.03986l-0.972059 0 -0.00472447 -1.0134 0.976784 0 0 1.0134zm-0.0248035 -4.04533l-0.968516 0 -0.00472447 -1.0134 0.97324 0 0 1.0134zm3.98509 0.0767726l-1.01576 0 0 -1.0134 1.01576 0 0 1.0134zm2.05987 2.11184l-1.05474 0 0 -1.05592 1.05474 0 0 1.05592zm-2.00908 -0.050788l-1.01576 0 0 -1.0134 1.01576 0 0 1.0134zm1.95829 -2.01026l-1.05474 0 0 -1.05592 1.05474 0 0 1.05592zm-3.9343 1.98428l-1.05474 0 0 -1.05592 1.05474 0 0 1.05592zm-2.00908 -0.050788l-1.00867 0 -0.00472447 -1.0134 1.0134 0 0 1.0134zm1.95829 -2.01026l-1.05474 0 0 -1.05592 1.05474 0 0 1.05592zm2.00081 4.07131l-1.01576 0 0 -1.0134 1.01576 0 0 1.0134zm2.05987 2.11184l-1.05474 0 0 -1.05592 1.05474 0 0 1.05592zm-2.00908 -0.050788l-1.01576 0 0 -1.0134 1.01576 0 0 1.0134zm1.95829 -2.01026l-1.05474 0 0 -1.05592 1.05474 0 0 1.05592zm-3.9343 1.98428l-1.05474 0 0 -1.05592 1.05474 0 0 1.05592zm-2.00908 -0.050788l-1.01104 0 -0.00472447 -0.816152 0 -0.197247 1.01576 0 0 1.0134zm1.95829 -2.01026l-1.05474 0 0 -1.05592 1.05474 0 0 1.05592zm-2.03388 -12.1868l-1.01104 0 -0.00472447 -0.855129 0 -0.15827 1.01576 0 0 1.0134zm3.98509 0.0767726l-1.01576 0 0 -1.0134 1.01576 0 0 1.0134zm2.05987 2.11184l-1.05474 0 0 -1.05592 1.05474 0 0 1.05592zm-2.00908 -0.050788l-1.01576 0 0 -1.0134 1.01576 0 0 1.0134zm1.95829 -2.01026l-1.05474 0 0 -1.05592 1.05474 0 0 1.05592zm-3.9343 1.98428l-1.05474 0 0 -1.05592 1.05474 0 0 1.05592zm-2.00908 -0.050788l-1.01576 0 0 -1.0134 1.01576 0 0 1.0134zm1.95829 -2.01026l-1.05474 0 0 -1.05592 1.05474 0 0 1.05592zm2.00081 4.07131l-1.01576 0 0 -1.0134 1.01576 0 0 1.0134zm2.05987 2.11184l-1.05474 0 0 -1.05592 1.05474 0 0 1.05592zm-2.00908 -0.050788l-1.01576 0 0 -1.0134 1.01576 0 0 1.0134zm1.95829 -2.01026l-1.05474 0 0 -1.05592 1.05474 0 0 1.05592zm-3.9343 1.98428l-1.05474 0 0 -1.05592 1.05474 0 0 1.05592zm-2.00908 -0.050788l-1.01576 0 0 -1.0134 1.01576 0 0 1.0134zm1.95829 -2.01026l-1.05474 0 0 -1.05592 1.05474 0 0 1.05592zm-2.00908 16.0703l-0.928358 0 -0.00590558 -1.0134 0.934263 0 0 1.0134zm8.03632 0l-1.01576 0 0 -1.0134 1.01576 0 0 1.0134zm0 8.09065l-1.01576 0 0 -1.0134 1.01576 0 0 1.0134zm-0.0248035 -4.04533l-1.01576 0 0 -1.0134 1.01576 0 0 1.0134zm3.98509 0.0767726l-1.01576 0 0 -1.0134 1.01576 0 0 1.0134zm2.05987 2.11184l-1.05474 0 0 -1.05592 1.05474 0 0 1.05592zm-2.00908 -0.050788l-1.01576 0 0 -1.0134 1.01576 0 0 1.0134zm1.95829 -2.01026l-1.05474 0 0 -1.05592 1.05474 0 0 1.05592zm-3.9343 1.98428l-1.05474 0 0 -1.05592 1.05474 0 0 1.05592zm-2.00908 -0.050788l-1.01576 0 0 -1.0134 1.01576 0 0 1.0134zm1.95829 -2.01026l-1.05474 0 0 -1.05592 1.05474 0 0 1.05592zm2.00081 4.07131l-1.01576 0 0 -1.0134 1.01576 0 0 1.0134zm2.00908 0.050788l-1.05474 0 0 -1.05592 1.05474 0 0 1.05592zm-3.98509 -0.0767726l-1.05474 0 0 -1.05592 1.05474 0 0 1.05592zm-2.03388 -12.1868l-1.01576 0 0 -1.0134 1.01576 0 0 1.0134zm3.98509 0.0767726l-1.01576 0 0 -1.0134 1.01576 0 0 1.0134zm2.05987 2.11184l-1.05474 0 0 -1.05592 1.05474 0 0 1.05592zm-2.00908 -0.050788l-1.01576 0 0 -1.0134 1.01576 0 0 1.0134zm1.95829 -2.01026l-1.05474 0 0 -1.05592 1.05474 0 0 1.05592zm-3.9343 1.98428l-1.05474 0 0 -1.05592 1.05474 0 0 1.05592zm-2.00908 -0.050788l-1.01576 0 0 -1.0134 1.01576 0 0 1.0134zm1.95829 -2.01026l-1.05474 0 0 -1.05592 1.05474 0 0 1.05592zm2.00081 4.07131l-1.01576 0 0 -1.0134 1.01576 0 0 1.0134zm2.05987 2.11184l-1.05474 0 0 -1.05592 1.05474 0 0 1.05592zm-2.00908 -0.050788l-1.01576 0 0 -1.0134 1.01576 0 0 1.0134zm1.95829 -2.01026l-1.05474 0 0 -1.05592 1.05474 0 0 1.05592zm-3.9343 1.98428l-1.05474 0 0 -1.05592 1.05474 0 0 1.05592zm-2.00908 -0.050788l-1.01576 0 0 -1.0134 1.01576 0 0 1.0134zm1.95829 -2.01026l-1.05474 0 0 -1.05592 1.05474 0 0 1.05592zm-10.0454 8.03986l-0.885838 0 -0.00590558 -1.0134 0.891743 0 0 1.0134zm-0.0248035 -4.04533l-0.882294 0 -0.00590558 -1.0134 0.8882 0 0 1.0134zm3.98509 0.0767726l-1.01576 0 0 -1.0134 1.01576 0 0 1.0134zm2.05987 2.11184l-1.05474 0 0 -1.05592 1.05474 0 0 1.05592zm-2.00908 -0.050788l-1.01576 0 0 -1.0134 1.01576 0 0 1.0134zm1.95829 -2.01026l-1.05474 0 0 -1.05592 1.05474 0 0 1.05592zm-3.9343 1.98428l-1.05474 0 0 -1.05592 1.05474 0 0 1.05592zm-2.00908 -0.050788l-0.922452 0 -0.00590558 -1.0134 0.928358 0 0 1.0134zm1.95829 -2.01026l-1.05474 0 0 -1.05592 1.05474 0 0 1.05592zm2.00081 4.07131l-1.01576 0 0 -1.0134 1.01576 0 0 1.0134zm2.00908 0.050788l-1.05474 0 0 -1.05592 1.05474 0 0 1.05592zm-3.98509 -0.0767726l-1.05474 0 0 -1.05592 1.05474 0 0 1.05592zm-2.03388 -12.1868l-0.925996 0 -0.00472447 -1.0134 0.93072 0 0 1.0134zm3.98509 0.0767726l-1.01576 0 0 -1.0134 1.01576 0 0 1.0134zm2.05987 2.11184l-1.05474 0 0 -1.05592 1.05474 0 0 1.05592zm-2.00908 -0.050788l-1.01576 0 0 -1.0134 1.01576 0 0 1.0134zm1.95829 -2.01026l-1.05474 0 0 -1.05592 1.05474 0 0 1.05592zm-3.9343 1.98428l-1.05474 0 0 -1.05592 1.05474 0 0 1.05592zm-2.00908 -0.050788l-0.964973 0 -0.00590558 -1.0134 0.970878 0 0 1.0134zm1.95829 -2.01026l-1.05474 0 0 -1.05592 1.05474 0 0 1.05592zm2.00081 4.07131l-1.01576 0 0 -1.0134 1.01576 0 0 1.0134zm2.05987 2.11184l-1.05474 0 0 -1.05592 1.05474 0 0 1.05592zm-2.00908 -0.050788l-1.01576 0 0 -1.0134 1.01576 0 0 1.0134zm1.95829 -2.01026l-1.05474 0 0 -1.05592 1.05474 0 0 1.05592zm-3.9343 1.98428l-1.05474 0 0 -1.05592 1.05474 0 0 1.05592zm-2.00908 -0.050788l-0.968516 0 -0.00590558 -1.0134 0.974421 0 0 1.0134zm1.95829 -2.01026l-1.05474 0 0 -1.05592 1.05474 0 0 1.05592z"/>
  <path class="fil28" d="M4.05477 14.3612l0 41.3497c0.105119,1.33466 1.79057,2.3079 2.99767,2.30436l50.2872 -0.167719c1.74215,-0.0484258 2.53704,-1.21655 2.59609,-2.74846l0 -40.6375c0,-1.61341 -0.96261,-2.49452 -2.69531,-2.4957l-50.3664 -0.0531503c-1.61459,-0.00118112 -2.82051,0.84568 -2.81933,2.44846zm0.999225 0l0 41.3107c0.0389769,0.290555 0.26457,0.576385 0.566936,0.809065 0.438194,0.335437 0.992138,0.53977 1.43151,0.538589l50.2636 -0.167719c0.535046,-0.0141734 0.918909,-0.177168 1.16222,-0.434651 0.284649,-0.301185 0.434651,-0.767726 0.460636,-1.31813l-0.00236223 0 0 -40.6375c0,-0.516148 -0.129923,-0.892924 -0.375595,-1.12088l0.00118112 -0.00118112c-0.266932,-0.246853 -0.715757,-0.377957 -1.32167,-0.377957l-50.3664 -0.0531503 0 0.00354335 -0.0106301 0c-0.576385,0 -1.05946,0.135828 -1.37364,0.393312l0 0.00472447c-0.270476,0.22205 -0.435832,0.572842 -0.435832,1.04411l0 0.0070867z"/>
  <path class="fil29" d="M5.86425 57.7602c0.40158,0.165356 0.817333,0.256302 1.1882,0.255121l50.2872 -0.167719c0.737017,-0.020079 1.30513,-0.242129 1.71971,-0.605913l-0.70867 -0.70867c-0.242129,0.19016 -0.584653,0.30709 -1.03466,0.318902l-50.2636 0.167719c-0.154726,0 -0.322445,-0.0236223 -0.496069,-0.070867l-0.692135 0.811427z"/>
  <path class="fil30" d="M3.28705 41.632c1.18938,0.533865 2.42483,1.27915 3.7028,2.27956 6.7678,5.29258 11.1427,9.19263 15.5943,10.258 4.43982,1.06182 8.38357,0.608275 13.0868,-0.184254 2.16617,-0.364965 5.25597,-0.249216 8.68711,0.428745 3.60477,0.712213 7.5934,2.04688 11.2832,4.09493l-1.16458 0c-3.37799,-1.74805 -6.9615,-2.90909 -10.2261,-3.55516 -3.36382,-0.664969 -6.38394,-0.780718 -8.48987,-0.426383 -4.76463,0.803159 -8.76625,1.26143 -13.3041,0.175986 -4.5284,-1.08308 -8.9694,-5.01266 -15.8057,-10.3596 -1.15868,-0.905917 -2.28074,-1.59451 -3.36382,-2.09884l0 -0.613z"/>
  <polygon class="fil31" points="63.8476,13.0702 63.8476,57.0432 63.3468,57.0432 63.3468,13.0702 "/>
  <path class="fil32" d="M0.121655 12.169c0,-0.987414 0.406304,-1.88861 1.0571,-2.5394 0.650795,-0.650795 1.55199,-1.0571 2.5394,-1.0571l56.6393 0c0.987414,0 1.88742,0.406304 2.5394,1.05828 0.651977,0.651977 1.05828,1.55435 1.05828,2.53822l-0.892924 0c0,-0.74056 -0.305909,-1.41852 -0.796073,-1.90868 -0.488982,-0.488982 -1.16694,-0.794892 -1.90868,-0.794892l-56.6393 0c-0.742923,0 -1.42088,0.305909 -1.90987,0.793711 -0.487801,0.488982 -0.793711,1.16694 -0.793711,1.90987l-0.892924 0z"/>
  <path class="fil25" d="M0.849223 11.1344c0,-1.7327 1.41734,-3.15004 3.15004,-3.15004l56.6393 0c1.7327,0 3.15122,1.42561 3.15122,3.15004"/>
  <path class="fil24" d="M0.257483 11.7297c0.36969,-2.05987 0.685048,-3.65674 3.10516,-3.70044l56.6393 0c1.99609,0 3.34729,1.52718 3.34729,3.52445l-0.696859 0.12638c0,-1.45159 -1.19883,-2.64925 -2.65043,-2.64925l-56.6393 0c-0.727568,0 -1.39254,0.298823 -1.87207,0.775994l-0.00118112 0.00118112c-0.477171,0.479533 -0.775994,1.14332 -0.775994,1.87207l-0.455911 0.0496069z"/>
  <path class="fil33" d="M3.76894 6.01897l56.5164 0 0.0767726 0 0.00590558 0.00236223c1.0819,0.0129923 2.00317,0.290555 2.66224,0.8882l-0.00118112 0.00118112c0.668512,0.607094 1.05238,1.51537 1.05238,2.77799l0 0.0720481 -0.00236223 0.00590558 -0.0555125 4.37604 -0.0070867 0.494888 -0.0236223 0 0 43.7568c0,0.999225 -0.413391,1.91341 -1.07482,2.5772l0 0.00118112c-0.661425,0.661425 -1.57561,1.07482 -2.57838,1.07482l-56.6416 0c-1.00159,0 -1.91577,-0.413391 -2.5772,-1.07482l0.00118112 0c-0.662607,-0.661425 -1.07482,-1.57561 -1.07482,-2.57838l0 -43.7568 -0.0188979 0 0 -0.500794 0 -4.37604 0.00236223 -0.0118112 0.00472447 -0.193703 0 -0.0118112c0.0484258,-0.964973 0.424021,-1.8449 1.03938,-2.48153l0.00118112 -0.00118112c0.622449,-0.643709 1.49175,-1.04293 2.51578,-1.04411l0.0118112 0 0.165356 0.00472447 0 -0.00236223zm56.5164 1.00159l-56.5164 0 -0.0118112 -0.00236223 -0.177168 -0.00472447c-0.72993,0.00354335 -1.34765,0.287011 -1.78703,0.74056 -0.448824,0.46536 -0.725206,1.11497 -0.760639,1.83664l-0.00472447 0.170081 0.00236223 0 0 3.87524 0.0188979 0 0 0.500794 0 44.2576c0,0.72993 0.298823,1.3949 0.777175,1.87207l0.00118112 0c0.479533,0.479533 1.14332,0.779537 1.87089,0.779537l56.6416 0c0.727568,0 1.39254,-0.300004 1.87207,-0.779537l0.00118112 0c0.478352,-0.479533 0.778356,-1.1445 0.778356,-1.87207l0 -44.2576 0 -0.500794 0.0413391 0 0.0496069 -3.87524 -0.00236223 0 0 -0.0720481c0,-0.960248 -0.263389,-1.62522 -0.720481,-2.03979l-0.00236223 0c-0.46536,-0.421659 -1.15868,-0.620086 -1.99491,-0.630716l0 0.00236223 -0.0767726 0z"/>
  <polygon class="fil34" points="4.08903,13.9289 4.08903,55.894 3.08744,55.894 3.08744,13.9289 "/>
  <polygon class="fil34" points="60.8429,13.9289 60.8429,55.894 59.8413,55.894 59.8413,13.9289 "/>
  <g id="_62981952">
   <g>
    <path id="_58087440" class="fil35" d="M24.9157 24.9605c5.24652,0 9.50209,1.58033 9.50209,3.52918 0,1.94884 -4.25556,3.52918 -9.50209,3.52918 -5.24888,0 -9.50563,-1.58033 -9.50563,-3.52918 0,-1.94884 4.25675,-3.52918 9.50563,-3.52918z"/>
    <g>
     <path id="_63476680" class="fil36" d="M24.9251 25.3787c4.79533,0 8.68475,1.44451 8.68475,3.22563 0,1.78112 -3.88942,3.22563 -8.68475,3.22563 -4.7977,0 -8.68711,-1.44451 -8.68711,-3.22563 0,-1.78112 3.88942,-3.22563 8.68711,-3.22563z"/>
     <path id="_123350360" class="fil37" d="M24.9334 25.7968c4.34415,0 7.8686,1.30868 7.8686,2.92208 0,1.61341 -3.52445,2.92208 -7.8686,2.92208 -4.34651,0 -7.87096,-1.30868 -7.87096,-2.92208 0,-1.61341 3.52445,-2.92208 7.87096,-2.92208z"/>
     <path id="_65147936" class="fil38" d="M24.9416 26.2149c3.89414,0 7.05245,1.17285 7.05245,2.61854 0,1.44569 -3.15831,2.61854 -7.05245,2.61854 -3.89414,0 -7.05245,-1.17285 -7.05245,-2.61854 0,-1.44569 3.15831,-2.61854 7.05245,-2.61854z"/>
     <path id="_123711680" class="fil39" d="M24.9511 26.6318c3.44177,0 6.23393,1.03702 6.23393,2.31617 0,1.27797 -2.79216,2.31499 -6.23393,2.31499 -3.44414,0 -6.2363,-1.03702 -6.2363,-2.31499 0,-1.27915 2.79216,-2.31617 6.2363,-2.31617z"/>
     <path id="_59420440" class="fil40" d="M24.9594 27.0499c2.99177,0 5.41778,0.901192 5.41778,2.01262 0,1.11025 -2.42601,2.01144 -5.41778,2.01144 -2.99177,0 -5.41778,-0.901192 -5.41778,-2.01144 0,-1.11143 2.42601,-2.01262 5.41778,-2.01262z"/>
     <path id="_122306496" class="fil41" d="M24.9688 27.4681c2.5394,0 4.60045,0.765364 4.60045,1.70908 0,0.942531 -2.06105,1.7079 -4.60045,1.7079 -2.54176,0 -4.60163,-0.765364 -4.60163,-1.7079 0,-0.943712 2.05987,-1.70908 4.60163,-1.70908z"/>
     <path id="_121889816" class="fil42" d="M24.9771 27.8862c2.0894,0 3.78312,0.629535 3.78312,1.40553 0,0.775994 -1.69372,1.40435 -3.78312,1.40435 -2.0894,0 -3.7843,-0.628354 -3.7843,-1.40435 0,-0.775994 1.6949,-1.40553 3.7843,-1.40553z"/>
     <path id="_124021480" class="fil43" d="M24.9853 28.3043c1.63821,0 2.96697,0.493707 2.96697,1.10198 0,0.608275 -1.32876,1.1008 -2.96697,1.1008 -1.63821,0 -2.96697,-0.492526 -2.96697,-1.1008 0,-0.608275 1.32876,-1.10198 2.96697,-1.10198z"/>
    </g>
    <path id="_61337056" class="fil44" d="M24.9948 28.7224c1.18702,0 2.14963,0.356697 2.14963,0.798435 0,0.440557 -0.96261,0.798435 -2.14963,0.798435 -1.18702,0 -2.15081,-0.357878 -2.15081,-0.798435 0,-0.441738 0.963791,-0.798435 2.15081,-0.798435z"/>
   </g>
   <g>
    <path id="_122493184" class="fil35" d="M24.6216 33.7776c5.90677,-0.360241 10.61,-2.47208 10.5001,-4.71738 -0.109844,-2.2453 -4.9914,-3.77367 -10.8982,-3.41343 -5.91031,0.360241 -10.6123,2.47326 -10.5025,4.71738 0.109844,2.2453 4.99022,3.77367 10.9005,3.41343z"/>
    <g>
     <path id="_123259416" class="fil45" d="M24.6098 33.3843c5.51227,-0.335437 9.9013,-2.29019 9.79973,-4.36423 -0.101576,-2.07404 -4.65596,-3.48311 -10.1682,-3.14768 -5.51345,0.336618 -9.90367,2.29019 -9.80091,4.36423 0.101576,2.07522 4.65478,3.48429 10.1694,3.14768z"/>
     <path id="_58782440" class="fil46" d="M24.5979 32.991c5.1166,-0.311815 9.19145,-2.10829 9.09814,-4.01225 -0.0933082,-1.90278 -4.31934,-3.19256 -9.43594,-2.88074 -5.12014,0.311815 -9.195,2.10829 -9.10169,4.01107 0.0933082,1.90396 4.31934,3.19374 9.43949,2.88193z"/>
     <path id="_21418368" class="fil47" d="M24.5849 32.5976c4.72211,-0.287011 8.48396,-1.92522 8.39892,-3.6591 -0.0850404,-1.73152 -3.98391,-2.90319 -8.70601,-2.61617 -4.72447,0.288193 -8.48632,1.9264 -8.40128,3.6591 0.0850404,1.7327 3.98509,2.90437 8.70837,2.61617z"/>
     <path id="_124693672" class="fil48" d="M24.5731 32.2043c4.32643,-0.263389 7.77411,-1.74451 7.69734,-3.30713 -0.0755915,-1.56026 -3.64729,-2.61381 -7.9749,-2.34924 -4.32879,0.263389 -7.77647,1.74451 -7.6997,3.30477 0.0767726,1.56262 3.64847,2.61499 7.97726,2.3516z"/>
     <path id="_121574528" class="fil49" d="M24.5601 31.811c3.93194,-0.239767 7.06544,-1.56144 6.99812,-2.95279 -0.0685048,-1.39136 -3.31303,-2.32444 -7.24497,-2.08467 -3.93312,0.239767 -7.0678,1.56144 -6.9993,2.95279 0.0673237,1.39136 3.31303,2.32444 7.24615,2.08467z"/>
     <path id="_47371720" class="fil50" d="M24.5483 31.4177c3.53626,-0.214963 6.35677,-1.37954 6.29653,-2.60082 -0.0590558,-1.21891 -2.9776,-2.03388 -6.51386,-1.81892 -3.53745,0.216144 -6.35913,1.38073 -6.2989,2.60082 0.060237,1.22009 2.9776,2.03506 6.51622,1.81892z"/>
     <path id="_59568912" class="fil51" d="M24.5353 31.0244c3.14177,-0.191341 5.6481,-1.19765 5.59731,-2.24767 -0.0519691,-1.04883 -2.64216,-1.74451 -5.78275,-1.55317 -3.14413,0.191341 -5.65046,1.19765 -5.59849,2.24648 0.050788,1.05001 2.64098,1.74569 5.78393,1.55435z"/>
     <path id="_47405824" class="fil52" d="M24.5235 30.6311c2.7461,-0.166537 4.93943,-1.01576 4.89573,-1.89451 -0.0425202,-0.878751 -2.30554,-1.45514 -5.05164,-1.28742 -2.74846,0.166537 -4.94061,1.01576 -4.89809,1.89451 0.0437013,0.878751 2.30554,1.45514 5.054,1.28742z"/>
     <path id="_62368320" class="fil53" d="M24.5105 30.239c2.3516,-0.144096 4.23076,-0.833869 4.19651,-1.54254 -0.0354335,-0.707489 -1.97128,-1.16576 -4.32171,-1.02167 -2.35278,0.142915 -4.23312,0.832687 -4.19769,1.54136 0.0342524,0.707489 1.9701,1.16576 4.32289,1.02285z"/>
     <path id="_57981456" class="fil54" d="M24.4987 29.8445c1.95593,-0.119293 3.52091,-0.651977 3.49492,-1.18938 -0.0259846,-0.536227 -1.63467,-0.875208 -3.5906,-0.755915 -1.95711,0.119293 -3.52327,0.650795 -3.49611,1.1882 0.0259846,0.537408 1.63348,0.876389 3.59178,0.757096z"/>
     <path id="_59036224" class="fil55" d="M24.4857 29.4523c1.56144,-0.0956705 2.81342,-0.470085 2.7957,-0.836231 -0.0177168,-0.367327 -1.29923,-0.587015 -2.86067,-0.491345 -1.56262,0.0944894 -2.81342,0.468903 -2.7957,0.83505 0.0177168,0.367327 1.29923,0.587015 2.86067,0.492526z"/>
     <path id="_48245800" class="fil56" d="M24.4739 29.0578c1.16576,-0.070867 2.10475,-0.287011 2.09412,-0.483077 -0.00944894,-0.196065 -0.963791,-0.29646 -2.12837,-0.225593 -1.16812,0.070867 -2.10593,0.287011 -2.09648,0.483077 0.00944894,0.196065 0.963791,0.297641 2.13073,0.225593z"/>
    </g>
    <path id="_122336680" class="fil44" d="M24.4609 28.6645c0.771269,-0.0460636 1.3949,-0.105119 1.39372,-0.129923 -0.00118112,-0.0248035 -0.627173,-0.0070867 -1.39844,0.040158 -0.771269,0.0472447 -1.39608,0.105119 -1.3949,0.129923 0.00118112,0.0248035 0.628354,0.0070867 1.39962,-0.040158z"/>
   </g>
   <g>
    <path id="_47436240" class="fil35" d="M25.5322 32.378c4.15044,-0.298823 7.45403,-2.04924 7.37608,-3.91068 -0.0767726,-1.86026 -3.50555,-3.1276 -7.656,-2.82877 -4.15163,0.297641 -7.45521,2.04924 -7.37844,3.9095 0.0779537,1.86144 3.50674,3.12878 7.65836,2.82996z"/>
    <g>
     <path id="_21422224" class="fil45" d="M25.5239 32.052c3.87288,-0.278744 6.9556,-1.89805 6.88473,-3.61776 -0.0720481,-1.71971 -3.27051,-2.88783 -7.14339,-2.60909 -3.87406,0.278744 -6.95678,1.89805 -6.88591,3.61776 0.0720481,1.71971 3.27051,2.88783 7.14458,2.60909z"/>
     <path id="_58270200" class="fil46" d="M25.5157 31.726c3.59414,-0.258665 6.45717,-1.74805 6.3922,-3.32603 -0.0661425,-1.57679 -3.03547,-2.64688 -6.62961,-2.38822 -3.5965,0.258665 -6.45953,1.74805 -6.39457,3.32484 0.0661425,1.57797 3.03547,2.64806 6.63197,2.3894z"/>
     <path id="_58847448" class="fil47" d="M25.5062 31.4c3.31776,-0.238586 5.9611,-1.59687 5.90086,-3.03311 -0.0590558,-1.43624 -2.79925,-2.40712 -6.11582,-2.16853 -3.31894,0.238586 -5.96228,1.59687 -5.90204,3.03311 0.0590558,1.43624 2.79925,2.40712 6.117,2.16853z"/>
     <path id="_64457184" class="fil48" d="M25.498 31.074c3.04019,-0.218507 5.46267,-1.44687 5.40833,-2.74137 -0.0531503,-1.2945 -2.56302,-2.16617 -5.60322,-1.94766 -3.04019,0.218507 -5.46267,1.44569 -5.40952,2.74019 0.0543314,1.2945 2.5642,2.16735 5.6044,1.94884z"/>
     <path id="_124293104" class="fil49" d="M25.4897 30.748c2.76145,-0.198428 4.96305,-1.29569 4.91581,-2.44846 -0.0484258,-1.15277 -2.3268,-1.9264 -5.08943,-1.72797 -2.76381,0.198428 -4.96542,1.2945 -4.91817,2.44727 0.0484258,1.15395 2.32798,1.92758 5.09179,1.72916z"/>
     <path id="_121913000" class="fil50" d="M25.4802 30.422c2.48507,-0.178349 4.46698,-1.1445 4.42446,-2.15554 -0.0425202,-1.01222 -2.09176,-1.68663 -4.57683,-1.50829 -2.48507,0.178349 -4.46698,1.1445 -4.42446,2.15554 0.0413391,1.01104 2.09176,1.68663 4.57683,1.50829z"/>
     <path id="_121990592" class="fil51" d="M25.472 30.096c2.20751,-0.159451 3.96855,-0.993319 3.93194,-1.8638 -0.0354335,-0.869302 -1.85553,-1.44569 -4.06304,-1.28742 -2.20751,0.15827 -3.96855,0.993319 -3.93312,1.86262 0.0366146,0.870483 1.85672,1.44687 4.06422,1.2886z"/>
     <path id="_59820664" class="fil52" d="M25.4637 29.7701c1.92876,-0.139372 3.47012,-0.842136 3.43941,-1.57089 -0.0295279,-0.728749 -1.62049,-1.20592 -3.54926,-1.06773 -1.92995,0.139372 -3.4713,0.842136 -3.44059,1.57089 0.0295279,0.728749 1.61931,1.20592 3.55044,1.06773z"/>
     <path id="_46187464" class="fil53" d="M25.4543 29.4441c1.65238,-0.119293 2.97287,-0.690953 2.94807,-1.27797 -0.0248035,-0.587015 -1.38427,-0.966154 -3.03665,-0.848042 -1.65238,0.119293 -2.97287,0.690953 -2.94807,1.27797 0.0236223,0.587015 1.38427,0.967335 3.03665,0.848042z"/>
     <path id="_124016936" class="fil54" d="M25.446 29.1181c1.37364,-0.0992138 2.47444,-0.540952 2.45554,-0.986233 -0.0188979,-0.445281 -1.14805,-0.726387 -2.52287,-0.627173 -1.37482,0.0992138 -2.47444,0.53977 -2.45672,0.985051 0.0188979,0.445281 1.14923,0.726387 2.52405,0.628354z"/>
     <path id="_122723760" class="fil55" d="M25.4377 28.7921c1.09608,-0.0791348 1.97601,-0.389769 1.96302,-0.693316 -0.0129923,-0.303547 -0.913003,-0.48662 -2.00908,-0.407485 -1.09726,0.0791348 -1.97719,0.389769 -1.9642,0.693316 0.0129923,0.303547 0.911822,0.48662 2.01026,0.407485z"/>
     <path id="_58848776" class="fil56" d="M25.4283 28.4661c0.819695,-0.0590558 1.47876,-0.238586 1.47167,-0.40158 -0.00590558,-0.161813 -0.67678,-0.245672 -1.49529,-0.186616 -0.820876,0.0590558 -1.47994,0.238586 -1.47285,0.400399 0.0070867,0.162994 0.67678,0.246853 1.49648,0.187798z"/>
    </g>
    <path id="_123375352" class="fil44" d="M25.42 28.1401c0.540952,-0.0389769 0.980327,-0.0874027 0.979146,-0.108663 -0.00118112,-0.020079 -0.440557,-0.00590558 -0.982689,0.0330713 -0.542133,0.0389769 -0.980327,0.0874027 -0.980327,0.108663 0.00118112,0.020079 0.441738,0.00590558 0.98387,-0.0330713z"/>
   </g>
   <g>
    <path id="_46798960" class="fil35" d="M17.3234 19.3231c4.36068,2.91382 7.09261,6.48315 6.09929,7.97018 -0.992138,1.48585 -5.33511,0.325988 -9.69579,-2.58783 -4.36305,-2.91618 -7.09497,-6.48551 -6.10283,-7.97136 0.993319,-1.48585 5.33629,-0.327169 9.69933,2.58901z"/>
    <g>
     <path id="_61653992" class="fil45" d="M17.1557 19.5865c4.06895,2.72011 6.62607,6.03905 5.70834,7.41269 -0.917728,1.37246 -4.96305,0.279925 -9.032,-2.44019 -4.07131,-2.72011 -6.62843,-6.04023 -5.7107,-7.41269 0.917728,-1.37364 4.96305,-0.279925 9.03436,2.44019z"/>
     <path id="_120457496" class="fil46" d="M16.9868 19.8499c3.77721,2.52523 6.15834,5.59495 5.31621,6.8552 -0.840955,1.25907 -4.58864,0.23268 -8.36585,-2.29137 -3.77957,-2.52641 -6.16189,-5.59613 -5.31975,-6.8552 0.842136,-1.26025 4.58982,-0.233861 8.36939,2.29137z"/>
     <path id="_58294984" class="fil47" d="M16.8179 20.1132c3.48548,2.33034 5.6918,5.14967 4.92526,6.29653 -0.766545,1.14686 -4.21541,0.187798 -7.70206,-2.14255 -3.48666,-2.33034 -5.69298,-5.15085 -4.92644,-6.29772 0.766545,-1.14686 4.21541,-0.186616 7.70324,2.14373z"/>
     <path id="_121927576" class="fil48" d="M16.649 20.3778c3.19492,2.13428 5.22526,4.70439 4.53431,5.73787 -0.690953,1.03348 -3.84217,0.140553 -7.03709,-1.99373 -3.19492,-2.13546 -5.22644,-4.70557 -4.53549,-5.73905 0.690953,-1.03466 3.84335,-0.141734 7.03828,1.99491z"/>
     <path id="_59305712" class="fil49" d="M16.4801 20.64c2.90319,1.94058 4.75754,4.26029 4.14218,5.18156 -0.615362,0.92009 -3.46776,0.0933082 -6.37094,-1.84609 -2.90437,-1.94058 -4.7599,-4.26147 -4.14454,-5.18156 0.615362,-0.921271 3.47012,-0.0944894 6.37331,1.84609z"/>
     <path id="_64084680" class="fil50" d="M16.3112 20.9034c2.61145,1.74569 4.291,3.81619 3.75123,4.62407 -0.53977,0.806703 -3.09571,0.0472447 -5.70598,-1.69845 -2.61263,-1.74569 -4.29218,-3.81619 -3.75241,-4.62289 0.53977,-0.807884 3.09571,-0.0484258 5.70716,1.69726z"/>
     <path id="_122511536" class="fil51" d="M16.1435 21.168c2.31853,1.54963 3.82328,3.36973 3.3591,4.0654 -0.464179,0.694497 -2.72247,0 -5.04101,-1.54963 -2.32089,-1.55081 -3.82564,-3.37209 -3.36146,-4.06659 0.464179,-0.694497 2.72247,0 5.04337,1.55081z"/>
     <path id="_64460680" class="fil52" d="M15.9746 21.4314c2.0268,1.35474 3.35673,2.92563 2.96815,3.50674 -0.388587,0.582291 -2.34924,-0.0460636 -4.37604,-1.4008 -2.02916,-1.35474 -3.3591,-2.92563 -2.96933,-3.50792 0.388587,-0.58111 2.34806,0.0460636 4.37722,1.40199z"/>
     <path id="_120940088" class="fil53" d="M15.8057 21.6936c1.73506,1.15986 2.89019,2.48153 2.57602,2.95043 -0.312996,0.468903 -1.97483,-0.0933082 -3.71107,-1.25317 -1.73624,-1.15986 -2.89137,-2.48153 -2.57838,-2.95043 0.314177,-0.468903 1.97601,0.0933082 3.71343,1.25317z"/>
     <path id="_58551400" class="fil54" d="M15.6368 21.9581c1.44332,0.964973 2.42247,2.03625 2.18507,2.39176 -0.237404,0.355516 -1.60159,-0.139372 -3.0461,-1.10434 -1.44451,-0.966154 -2.42365,-2.03625 -2.18625,-2.39176 0.237404,-0.355516 1.60159,0.138191 3.04728,1.10434z"/>
     <path id="_127099152" class="fil55" d="M15.4679 22.2215c1.15277,0.770088 1.95593,1.59096 1.79412,1.83427 -0.161813,0.242129 -1.22836,-0.185435 -2.38113,-0.955524 -1.15395,-0.771269 -1.95711,-1.59215 -1.79412,-1.83546 0.161813,-0.242129 1.22836,0.185435 2.38113,0.956705z"/>
     <path id="_64094216" class="fil56" d="M15.299 22.4849c0.861034,0.575204 1.48939,1.14686 1.40317,1.27679 -0.0874027,0.128742 -0.85631,-0.23268 -1.71616,-0.807884 -0.862215,-0.575204 -1.49057,-1.14686 -1.40317,-1.27679 0.0862215,-0.129923 0.855129,0.231499 1.71616,0.807884z"/>
    </g>
    <path id="_123749456" class="fil44" d="M15.1301 22.7471c0.569298,0.381501 1.02167,0.702765 1.01104,0.7193 -0.0106301,0.0165356 -0.481896,-0.278744 -1.05119,-0.659063 -0.569298,-0.38032 -1.02167,-0.702765 -1.01104,-0.7193 0.0106301,-0.0165356 0.481896,0.278744 1.05119,0.659063z"/>
   </g>
   <g>
    <path id="_65201968" class="fil35" d="M16.8203 19.9278c4.36186,2.915 7.09379,6.48433 6.10047,7.97018 -0.993319,1.48585 -5.33629,0.325988 -9.69697,-2.58783 -4.36305,-2.91618 -7.09497,-6.48551 -6.10165,-7.97018 0.993319,-1.48703 5.33629,-0.32835 9.69815,2.58783z"/>
    <g>
     <path id="_58917264" class="fil45" d="M16.6526 20.1912c4.06895,2.72011 6.62607,6.03905 5.70834,7.41269 -0.917728,1.37246 -4.96187,0.279925 -9.032,-2.44019 -4.07013,-2.72011 -6.62725,-6.03905 -5.7107,-7.41269 0.917728,-1.37246 4.96305,-0.279925 9.03436,2.44019z"/>
     <path id="_65103368" class="fil46" d="M16.4837 20.4546c3.77721,2.52523 6.15952,5.59495 5.31739,6.8552 -0.842136,1.25907 -4.58982,0.23268 -8.36703,-2.29137 -3.77957,-2.52523 -6.16071,-5.59495 -5.31975,-6.8552 0.843317,-1.26025 4.58982,-0.233861 8.36939,2.29137z"/>
     <path id="_62368344" class="fil47" d="M16.3148 20.718c3.48666,2.33034 5.69298,5.14967 4.92644,6.29772 -0.766545,1.14568 -4.21659,0.186616 -7.70206,-2.14373 -3.48784,-2.33034 -5.69416,-5.15085 -4.92762,-6.29653 0.766545,-1.14805 4.21659,-0.187798 7.70324,2.14255z"/>
     <path id="_121770232" class="fil48" d="M16.147 20.9825c3.19374,2.13428 5.22408,4.70439 4.53313,5.73905 -0.690953,1.03348 -3.84217,0.140553 -7.03591,-1.99491 -3.1961,-2.13546 -5.22644,-4.70557 -4.53549,-5.73905 0.690953,-1.03466 3.84217,-0.140553 7.03828,1.99491z"/>
     <path id="_121730008" class="fil49" d="M15.977 21.2447c2.90319,1.94058 4.75872,4.26029 4.14336,5.18156 -0.615362,0.921271 -3.46894,0.0944894 -6.37213,-1.84609 -2.90319,-1.94058 -4.75872,-4.26029 -4.14454,-5.18156 0.616543,-0.921271 3.47012,-0.0944894 6.37331,1.84609z"/>
     <path id="_58715336" class="fil50" d="M15.8092 21.5093c2.61027,1.74451 4.291,3.81501 3.75123,4.62289 -0.53977,0.807884 -3.09571,0.0472447 -5.70716,-1.69726 -2.61145,-1.74569 -4.29218,-3.81619 -3.75241,-4.62407 0.53977,-0.807884 3.09571,-0.0472447 5.70834,1.69845z"/>
     <path id="_59743736" class="fil51" d="M15.6403 21.7727c2.31853,1.54963 3.82446,3.36973 3.3591,4.0654 -0.464179,0.694497 -2.72129,0 -5.04101,-1.54963 -2.31971,-1.55081 -3.82564,-3.37091 -3.36146,-4.0654 0.46536,-0.695678 2.72247,-0.00118112 5.04337,1.54963z"/>
     <path id="_47377608" class="fil52" d="M15.4715 22.0361c2.0268,1.35474 3.35673,2.92563 2.96815,3.50792 -0.388587,0.58111 -2.34924,-0.0460636 -4.37604,-1.4008 -2.02916,-1.35592 -3.35792,-2.92681 -2.96933,-3.5091 0.388587,-0.58111 2.34924,0.0460636 4.37722,1.40199z"/>
     <path id="_58129984" class="fil53" d="M15.3026 22.2995c1.73624,1.15986 2.89019,2.48035 2.5772,2.94925 -0.312996,0.468903 -1.97601,-0.0921271 -3.71107,-1.25198 -1.73742,-1.16104 -2.89137,-2.48271 -2.57838,-2.95043 0.312996,-0.468903 1.97601,0.0921271 3.71225,1.25317z"/>
     <path id="_122302448" class="fil54" d="M15.1337 22.5629c1.44451,0.964973 2.42365,2.03625 2.18507,2.39176 -0.237404,0.355516 -1.60159,-0.139372 -3.04492,-1.10316 -1.44569,-0.966154 -2.42483,-2.03743 -2.18743,-2.39294 0.238586,-0.355516 1.60278,0.138191 3.04728,1.10434z"/>
     <path id="_62376424" class="fil55" d="M14.9659 22.8263c1.15159,0.770088 1.95593,1.59215 1.79294,1.83427 -0.161813,0.242129 -1.22836,-0.185435 -2.38113,-0.955524 -1.15277,-0.771269 -1.95593,-1.59215 -1.79412,-1.83546 0.161813,-0.242129 1.22836,0.185435 2.38231,0.956705z"/>
     <path id="_62362488" class="fil56" d="M14.797 23.0897c0.859853,0.575204 1.48821,1.14686 1.40199,1.27679 -0.0862215,0.129923 -0.855129,-0.23268 -1.71616,-0.807884 -0.861034,-0.575204 -1.48939,-1.14686 -1.40317,-1.27679 0.0862215,-0.129923 0.855129,0.23268 1.71734,0.807884z"/>
    </g>
    <path id="_62429016" class="fil44" d="M14.627 23.353c0.569298,0.38032 1.02285,0.701583 1.01104,0.718119 -0.0106301,0.0165356 -0.480715,-0.278744 -1.05001,-0.659063 -0.570479,-0.38032 -1.02285,-0.702765 -1.01222,-0.7193 0.0118112,-0.0153545 0.481896,0.278744 1.05119,0.660244z"/>
   </g>
   <g>
    <path id="_63716560" class="fil35" d="M16.4282 30.3795c3.91776,-2.09648 6.51504,-4.87919 5.80165,-6.21386 -0.714576,-1.33466 -4.47171,-0.716938 -8.38829,1.37954 -3.91895,2.09648 -6.5174,4.87919 -5.80283,6.21386 0.714576,1.33466 4.47053,0.716938 8.38947,-1.37954z"/>
    <g>
     <path id="_57950568" class="fil45" d="M16.3089 30.1433c3.65438,-1.95593 6.08393,-4.54258 5.42487,-5.77566 -0.660244,-1.23309 -4.15989,-0.647252 -7.81545,1.30868 -3.65674,1.95711 -6.0863,4.54376 -5.42723,5.77566 0.660244,1.23427 4.16107,0.647252 7.81781,-1.30868z"/>
     <path id="_47635512" class="fil46" d="M16.1872 29.9071c3.39335,-1.81538 5.65519,-4.20596 5.04927,-5.33865 -0.604732,-1.13033 -3.84926,-0.576385 -7.24143,1.24017 -3.39453,1.81538 -5.65637,4.20596 -5.05164,5.33747 0.605913,1.13269 3.85044,0.577566 7.24379,-1.23899z"/>
     <path id="_65253088" class="fil47" d="M16.0679 29.6708c3.13114,-1.67482 5.22408,-3.86934 4.6725,-4.90045 -0.551582,-1.02993 -3.53863,-0.505518 -6.66977,1.16931 -3.13232,1.676 -5.22526,3.87052 -4.67368,4.90045 0.5504,1.03112 3.53863,0.506699 6.67095,-1.16931z"/>
     <path id="_123700344" class="fil48" d="M15.9474 29.4346c2.86893,-1.53545 4.79297,-3.5339 4.29572,-4.46226 -0.496069,-0.928358 -3.22681,-0.435832 -6.09574,1.09844 -2.87011,1.53663 -4.79415,3.53508 -4.29808,4.46344 0.49725,0.928358 3.22799,0.435832 6.09811,-1.09962z"/>
     <path id="_61673176" class="fil49" d="M15.827 29.1984c2.60672,-1.3949 4.36305,-3.19728 3.92013,-4.02407 -0.442919,-0.826782 -2.91618,-0.366146 -5.5229,1.02875 -2.60909,1.39608 -4.36541,3.19846 -3.92249,4.02525 0.442919,0.826782 2.91618,0.366146 5.52526,-1.02993z"/>
     <path id="_123649280" class="fil50" d="M15.7065 28.9633c2.34452,-1.25553 3.93194,-2.86185 3.54453,-3.58705 -0.388587,-0.725206 -2.60554,-0.29646 -4.95124,0.959067 -2.3457,1.25553 -3.93312,2.86185 -3.54571,3.58705 0.388587,0.725206 2.60554,0.295279 4.95242,-0.959067z"/>
     <path id="_62988896" class="fil51" d="M15.586 28.7271c2.08231,-1.11497 3.50201,-2.52523 3.16776,-3.15004 -0.333075,-0.62363 -2.29373,-0.225593 -4.37722,0.889381 -2.08467,1.11497 -3.50319,2.52523 -3.17012,3.14886 0.334256,0.624811 2.29491,0.226774 4.37958,-0.8882z"/>
     <path id="_46800616" class="fil52" d="M15.4655 28.4909c1.82128,-0.974421 3.07209,-2.18861 2.79216,-2.71184 -0.279925,-0.522054 -1.98428,-0.154726 -3.80438,0.819695 -1.82246,0.974421 -3.07327,2.18861 -2.79334,2.71066 0.278744,0.523235 1.9831,0.155907 3.80556,-0.818514z"/>
     <path id="_65037424" class="fil53" d="M15.3451 28.2547c1.55907,-0.833869 2.64098,-1.85199 2.41538,-2.27365 -0.224412,-0.420478 -1.67246,-0.0850404 -3.23154,0.748828 -1.56026,0.83505 -2.64216,1.85317 -2.41775,2.27483 0.225593,0.420478 1.67364,0.0850404 3.2339,-0.750009z"/>
     <path id="_63266760" class="fil54" d="M15.2246 28.0185c1.29687,-0.693316 2.21105,-1.51655 2.03979,-1.83546 -0.171262,-0.318902 -1.36183,-0.0153545 -2.65869,0.679142 -1.29805,0.694497 -2.21223,1.51655 -2.04097,1.83546 0.171262,0.318902 1.36183,0.0153545 2.65988,-0.679142z"/>
     <path id="_58466376" class="fil55" d="M15.1041 27.7822c1.03466,-0.552763 1.77994,-1.17994 1.66419,-1.39726 -0.116931,-0.218507 -1.05119,0.0543314 -2.08703,0.608275 -1.03584,0.553944 -1.77994,1.17994 -1.66419,1.39844 0.116931,0.217326 1.05119,-0.0543314 2.08703,-0.609456z"/>
     <path id="_59842808" class="fil56" d="M14.9836 27.546c0.77245,-0.413391 1.35002,-0.843317 1.28742,-0.960248 -0.0614181,-0.115749 -0.74056,0.125198 -1.51301,0.53977 -0.773632,0.413391 -1.3512,0.843317 -1.2886,0.960248 0.0625992,0.115749 0.74056,-0.125198 1.51419,-0.53977z"/>
    </g>
    <path id="_64460104" class="fil44" d="M14.8632 27.311c0.511424,-0.274019 0.918909,-0.50788 0.911822,-0.522054 -0.00826782,-0.0153545 -0.429927,0.194884 -0.94135,0.467722 -0.511424,0.274019 -0.92009,0.50788 -0.911822,0.523235 0.00826782,0.0141734 0.429927,-0.194884 0.94135,-0.468903z"/>
   </g>
   <g>
    <path id="_123111464" class="fil35" d="M15.7242 29.6732c3.91776,-2.0953 6.51504,-4.87801 5.80165,-6.21267 -0.714576,-1.33466 -4.47053,-0.716938 -8.38829,1.37836 -3.91895,2.09766 -6.5174,4.87919 -5.80283,6.21386 0.714576,1.33584 4.47053,0.718119 8.38947,-1.37954z"/>
    <g>
     <path id="_47428888" class="fil45" d="M15.6049 29.437c3.65438,-1.95475 6.08393,-4.54139 5.42487,-5.77566 -0.660244,-1.2319 -4.15989,-0.646071 -7.81545,1.30986 -3.65674,1.95593 -6.0863,4.54258 -5.42605,5.77566 0.659063,1.23309 4.15989,0.647252 7.81663,-1.30986z"/>
     <path id="_47978352" class="fil46" d="M15.4844 29.2008c3.39217,-1.81538 5.65401,-4.20596 5.04809,-5.33747 -0.604732,-1.13151 -3.84808,-0.576385 -7.24143,1.23899 -3.39453,1.81656 -5.65637,4.20714 -5.05164,5.33865 0.605913,1.13151 3.85044,0.576385 7.24497,-1.24017z"/>
     <path id="_46557984" class="fil47" d="M15.364 28.9657c3.13114,-1.676 5.22408,-3.87052 4.6725,-4.90045 -0.551582,-1.02993 -3.53745,-0.506699 -6.66977,1.16931 -3.13232,1.676 -5.22526,3.87052 -4.67368,4.90045 0.551582,1.02993 3.53863,0.506699 6.67095,-1.16931z"/>
     <path id="_48197352" class="fil48" d="M15.2435 28.7295c2.86893,-1.53545 4.79297,-3.5339 4.29572,-4.46344 -0.496069,-0.928358 -3.22681,-0.435832 -6.09574,1.09962 -2.87011,1.53545 -4.79415,3.5339 -4.29808,4.46226 0.49725,0.929539 3.22799,0.437013 6.09811,-1.09844z"/>
     <path id="_123773608" class="fil49" d="M15.123 28.4933c2.60672,-1.3949 4.36305,-3.19728 3.92013,-4.02407 -0.442919,-0.827963 -2.91618,-0.366146 -5.5229,1.02875 -2.60909,1.3949 -4.36541,3.19728 -3.92249,4.02407 0.442919,0.827963 2.91618,0.367327 5.52526,-1.02875z"/>
     <path id="_124711624" class="fil50" d="M15.0025 28.257c2.34452,-1.25435 3.93194,-2.86067 3.54453,-3.58705 -0.388587,-0.725206 -2.60554,-0.295279 -4.95124,0.959067 -2.3457,1.25553 -3.93312,2.86185 -3.54571,3.58705 0.388587,0.726387 2.60554,0.29646 4.95242,-0.959067z"/>
     <path id="_48252120" class="fil51" d="M14.8821 28.0208c2.08349,-1.11379 3.50201,-2.52405 3.16776,-3.14886 -0.333075,-0.62363 -2.29373,-0.225593 -4.37722,0.889381 -2.08467,1.11497 -3.50319,2.52523 -3.17012,3.14886 0.334256,0.624811 2.29491,0.225593 4.37958,-0.889381z"/>
     <path id="_120238088" class="fil52" d="M14.7616 27.7846c1.82128,-0.97324 3.07209,-2.18861 2.79216,-2.71066 -0.279925,-0.522054 -1.98428,-0.155907 -3.80438,0.818514 -1.82246,0.975603 -3.07327,2.18979 -2.79334,2.71184 0.279925,0.522054 1.9831,0.155907 3.80556,-0.819695z"/>
     <path id="_62376648" class="fil53" d="M14.6411 27.5496c1.55907,-0.833869 2.64098,-1.85199 2.41538,-2.27365 -0.224412,-0.420478 -1.67246,-0.0850404 -3.23154,0.748828 -1.56026,0.83505 -2.64216,1.85317 -2.41657,2.27365 0.224412,0.421659 1.67246,0.0862215 3.23272,-0.748828z"/>
     <path id="_58981272" class="fil54" d="M14.5207 27.3133c1.29687,-0.694497 2.21105,-1.51655 2.03979,-1.83546 -0.171262,-0.320083 -1.36183,-0.0153545 -2.65869,0.677961 -1.29805,0.694497 -2.21223,1.51655 -2.04097,1.83664 0.171262,0.318902 1.36183,0.0153545 2.65988,-0.679142z"/>
     <path id="_64345976" class="fil55" d="M14.4002 27.0771c1.03466,-0.553944 1.77994,-1.17994 1.66419,-1.39844 -0.116931,-0.217326 -1.05119,0.0555125 -2.08585,0.609456 -1.03702,0.553944 -1.78112,1.17994 -1.66537,1.39844 0.116931,0.217326 1.05119,-0.0555125 2.08703,-0.609456z"/>
     <path id="_59799640" class="fil56" d="M14.2797 26.8409c0.77245,-0.413391 1.35002,-0.843317 1.28742,-0.960248 -0.0614181,-0.115749 -0.739379,0.125198 -1.51301,0.538589 -0.773632,0.414572 -1.35002,0.844499 -1.2886,0.960248 0.0625992,0.116931 0.74056,-0.124017 1.51419,-0.538589z"/>
    </g>
    <path id="_122011504" class="fil44" d="M14.1592 26.6058c0.511424,-0.274019 0.918909,-0.50788 0.911822,-0.523235 -0.00826782,-0.0141734 -0.429927,0.194884 -0.94135,0.468903 -0.511424,0.274019 -0.918909,0.50788 -0.911822,0.522054 0.00826782,0.0153545 0.429927,-0.194884 0.94135,-0.467722z"/>
   </g>
   <polygon id="_64314072" class="fil57" points="9.52098,28.3752 10.4293,29.9472 19.7979,24.5743 19.7317,24.559 19.8014,24.5271 10.7104,19.2557 9.80327,20.8278 16.1978,24.5212 "/>
   <rect id="_62264768" class="fil57" transform="matrix(-5.24433E-014 -0.64668 -1.23612 9.76429E-014 29.9929 29.9336)" width="2.77799" height="7.9997"/>
  </g>
 </g>
</svg>
