<?xml version="1.0" encoding="UTF-8" standalone="no"?>
<!-- Creator: CorelDRAW -->

<svg
   xmlns:dc="http://purl.org/dc/elements/1.1/"
   xmlns:cc="http://creativecommons.org/ns#"
   xmlns:rdf="http://www.w3.org/1999/02/22-rdf-syntax-ns#"
   xmlns:svg="http://www.w3.org/2000/svg"
   xmlns="http://www.w3.org/2000/svg"
   xmlns:xlink="http://www.w3.org/1999/xlink"
   xmlns:sodipodi="http://sodipodi.sourceforge.net/DTD/sodipodi-0.dtd"
   xmlns:inkscape="http://www.inkscape.org/namespaces/inkscape"
   xml:space="preserve"
   width="64px"
   height="64px"
   style="shape-rendering:geometricPrecision; text-rendering:geometricPrecision; image-rendering:optimizeQuality; fill-rule:evenodd; clip-rule:evenodd"
   viewBox="0 0 64 64"
   id="svg3262"
   version="1.1"
   inkscape:version="0.48.1 r9760"
   sodipodi:docname="gdm.svg"><metadata
   id="metadata3430"><rdf:RDF><cc:Work
       rdf:about=""><dc:format>image/svg+xml</dc:format><dc:type
         rdf:resource="http://purl.org/dc/dcmitype/StillImage" /><dc:title></dc:title></cc:Work></rdf:RDF></metadata><sodipodi:namedview
   pagecolor="#ffffff"
   bordercolor="#666666"
   borderopacity="1"
   objecttolerance="10"
   gridtolerance="10"
   guidetolerance="10"
   inkscape:pageopacity="0"
   inkscape:pageshadow="2"
   inkscape:window-width="646"
   inkscape:window-height="480"
   id="namedview3428"
   showgrid="false"
   inkscape:zoom="4.15625"
   inkscape:cx="32"
   inkscape:cy="32"
   inkscape:window-x="0"
   inkscape:window-y="24"
   inkscape:window-maximized="0"
   inkscape:current-layer="svg3262" />
 <defs
   id="defs3264">
  <style
   type="text/css"
   id="style3266">
   
    .fil37 {fill:#7F7F7F}
    .fil41 {fill:white}
    .fil43 {fill:#727272}
    .fil38 {fill:#7F7F7F}
    .fil39 {fill:#B2B2B2}
    .fil30 {fill:white}
    .fil42 {fill:#858585;fill-rule:nonzero}
    .fil26 {fill:#CFEDFF;fill-rule:nonzero}
    .fil31 {fill:white;fill-rule:nonzero}
    .fil0 {fill:black;fill-opacity:0.000000}
    .fil1 {fill:black;fill-opacity:0.003922}
    .fil2 {fill:black;fill-opacity:0.007843}
    .fil3 {fill:black;fill-opacity:0.015686}
    .fil4 {fill:black;fill-opacity:0.019608}
    .fil5 {fill:black;fill-opacity:0.023529}
    .fil6 {fill:black;fill-opacity:0.027451}
    .fil7 {fill:black;fill-opacity:0.031373}
    .fil8 {fill:black;fill-opacity:0.035294}
    .fil9 {fill:black;fill-opacity:0.043137}
    .fil10 {fill:black;fill-opacity:0.047059}
    .fil11 {fill:black;fill-opacity:0.050980}
    .fil12 {fill:black;fill-opacity:0.054902}
    .fil13 {fill:black;fill-opacity:0.058824}
    .fil36 {fill:#666666;fill-opacity:0.200000}
    .fil25 {fill:white;fill-opacity:0.219608}
    .fil33 {fill:#727272;fill-opacity:0.270588}
    .fil32 {fill:#CCCCCC;fill-opacity:0.501961}
    .fil22 {fill:#BBE6FF;fill-rule:nonzero;fill-opacity:0.501961}
    .fil29 {fill:#E5E5E5;fill-opacity:0.709804}
    .fil40 {fill:#575757;fill-opacity:0.780392}
    .fil19 {fill:#BBE6FF;fill-rule:nonzero;fill-opacity:0.780392}
    .fil14 {fill:url(#id0)}
    .fil24 {fill:url(#id1)}
    .fil44 {fill:url(#id2);fill-rule:nonzero}
    .fil28 {fill:url(#id3);fill-rule:nonzero}
    .fil15 {fill:url(#id4);fill-opacity:0.501961}
    .fil20 {fill:url(#id5);fill-rule:nonzero;fill-opacity:0.501961}
    .fil17 {fill:url(#id6);fill-rule:nonzero;fill-opacity:0.501961}
    .fil18 {fill:url(#id7);fill-rule:nonzero;fill-opacity:0.501961}
    .fil23 {fill:url(#id8);fill-rule:nonzero;fill-opacity:0.501961}
    .fil21 {fill:url(#id9);fill-rule:nonzero;fill-opacity:0.501961}
    .fil16 {fill:url(#id10);fill-rule:nonzero;fill-opacity:0.501961}
    .fil27 {fill:url(#id11);fill-opacity:0.670588}
    .fil35 {fill:url(#id12);fill-opacity:0.709804}
    .fil34 {fill:url(#id13);fill-opacity:0.709804}
   
  </style>
  <linearGradient
   id="id0"
   gradientUnits="userSpaceOnUse"
   x1="31.9102"
   y1="14.9742"
   x2="31.9102"
   y2="60.9586">
   <stop
   offset="0"
   style="stop-color:#7BBDF2"
   id="stop3269" />
   <stop
   offset="1"
   style="stop-color:#5C96D2"
   id="stop3271" />
  </linearGradient>
  <linearGradient
   id="id1"
   gradientUnits="userSpaceOnUse"
   x1="31.6846"
   y1="53.794"
   x2="32.3118"
   y2="32.4039">
   <stop
   offset="0"
   style="stop-color:#E5E5E5"
   id="stop3274" />
   <stop
   offset="1"
   style="stop-color:white"
   id="stop3276" />
  </linearGradient>
  <linearGradient
   id="id2"
   gradientUnits="userSpaceOnUse"
   x1="31.1602"
   y1="21.866"
   x2="32.7949"
   y2="2.00436">
   <stop
   offset="0"
   style="stop-color:#999999"
   id="stop3279" />
   <stop
   offset="1"
   style="stop-color:#CCCCCC"
   id="stop3281" />
  </linearGradient>
  <linearGradient
   id="id3"
   gradientUnits="userSpaceOnUse"
   x1="31.9079"
   y1="50.9073"
   x2="31.9079"
   y2="25.0267">
   <stop
   offset="0"
   style="stop-color:#4E87B4"
   id="stop3284" />
   <stop
   offset="1"
   style="stop-color:#66A1D1"
   id="stop3286" />
  </linearGradient>
  <linearGradient
   id="id4"
   gradientUnits="userSpaceOnUse"
   x1="16.6667"
   y1="18.5601"
   x2="16.6667"
   y2="68.3749">
   <stop
   offset="0"
   style="stop-color:#BBE6FF"
   id="stop3289" />
   <stop
   offset="1"
   style="stop-color:#84C5FA"
   id="stop3291" />
  </linearGradient>
  <linearGradient
   id="id5"
   gradientUnits="userSpaceOnUse"
   xlink:href="#id3"
   x1="31.9988"
   y1="47.9014"
   x2="31.9988"
   y2="53.2613">
  </linearGradient>
  <linearGradient
   id="id6"
   gradientUnits="userSpaceOnUse"
   xlink:href="#id3"
   x1="31.9988"
   y1="32.9095"
   x2="31.9988"
   y2="38.1158">
  </linearGradient>
  <linearGradient
   id="id7"
   gradientUnits="userSpaceOnUse"
   xlink:href="#id3"
   x1="15.3427"
   y1="28.6444"
   x2="15.4443"
   y2="37.5808">
  </linearGradient>
  <linearGradient
   id="id8"
   gradientUnits="userSpaceOnUse"
   xlink:href="#id4"
   x1="15.4337"
   y1="56.4397"
   x2="14.9754"
   y2="61.7972">
  </linearGradient>
  <linearGradient
   id="id9"
   gradientUnits="userSpaceOnUse"
   xlink:href="#id3"
   x1="15.3403"
   y1="58.3141"
   x2="15.4466"
   y2="67.9615">
  </linearGradient>
  <linearGradient
   id="id10"
   gradientUnits="userSpaceOnUse"
   xlink:href="#id3"
   x1="8.00443"
   y1="31.0445"
   x2="8.00443"
   y2="31.0445">
  </linearGradient>
  <linearGradient
   id="id11"
   gradientUnits="userSpaceOnUse"
   xlink:href="#id3"
   x1="35.9733"
   y1="17.8821"
   x2="36.0441"
   y2="14.7663">
  </linearGradient>
  <linearGradient
   id="id12"
   gradientUnits="userSpaceOnUse"
   x1="27.3889"
   y1="7.24143"
   x2="27.1125"
   y2="15.2447">
   <stop
   offset="0"
   style="stop-color:white"
   id="stop3301" />
   <stop
   offset="1"
   style="stop-color:white"
   id="stop3303" />
  </linearGradient>
  <linearGradient
   id="id13"
   gradientUnits="userSpaceOnUse"
   xlink:href="#id12"
   x1="37.0564"
   y1="7.28513"
   x2="36.8036"
   y2="15.2766">
  </linearGradient>
 </defs>
 <g
   id="Слой_x0020_1">
  <metadata
   id="CorelCorpID_0Corel-Layer" />
  <g
   id="_290880408">
   <path
   id="_291285784"
   class="fil0"
   d="M30.6098 54.0101c31.048,-1.24844 35.2363,3.56697 35.3709,7.47529 0.135828,3.9095 -16.1069,1.68663 -34.2087,2.36105 -18.1018,0.674418 -33.3666,1.24253 -33.3666,-1.65474 0,-2.89728 1.15749,-6.93316 32.2043,-8.1816z" />
   <g
   id="g3310">
    <path
   id="_291298912"
   class="fil1"
   d="M30.6819 54.4908c29.7311,-1.15159 34.8713,3.40516 34.9953,7.08316 0.124017,3.61894 -16.0159,1.57207 -33.8744,2.1957 -17.8608,0.622449 -33.0996,1.14214 -33.0996,-1.54372 0,-2.74373 2.24885,-6.58236 31.9787,-7.73513z" />
    <path
   id="_290884872"
   class="fil2"
   d="M30.7527 54.9715c28.4141,-1.0571 34.5051,3.24335 34.6197,6.68985 0.114568,3.32957 -15.9285,1.45986 -33.5437,2.03034 -17.6152,0.571661 -32.8303,1.04056 -32.8303,-1.43269 0,-2.59019 3.33902,-6.23039 31.7543,-7.28749z" />
    <path
   id="_291291496"
   class="fil3"
   d="M30.8224 55.4523c27.0972,-0.960248 34.1402,3.08153 34.2453,6.29772 0.103938,3.04019 -15.8388,1.34647 -33.2106,1.86616 -17.373,0.51851 -32.5622,0.938988 -32.5622,-1.32167 0,-2.43783 4.42919,-5.88196 31.5276,-6.84221z" />
    <path
   id="_290877192"
   class="fil4"
   d="M30.8921 55.9318c25.7826,-0.863396 33.7764,2.91972 33.8709,5.9044 0.0933082,2.752 -15.749,1.23545 -32.8788,1.70081 -17.1297,0.467722 -32.2953,0.838593 -32.2953,-1.20828 0,-2.28546 5.52172,-5.53235 31.3031,-6.39693z" />
    <path
   id="_291297424"
   class="fil5"
   d="M30.9618 56.4137c24.4657,-0.766545 33.4114,2.75791 33.4965,5.51227 0.0826782,2.46263 -15.6604,1.12206 -32.5457,1.53663 -16.8876,0.414572 -32.0283,0.737017 -32.0283,-1.09844 0,-2.13192 6.61307,-5.18038 31.0775,-5.95047z" />
    <path
   id="_291288208"
   class="fil6"
   d="M31.0327 56.8968c23.1487,-0.672056 33.0477,2.59491 33.1197,5.11896 0.0732292,2.17207 -15.5695,1.00749 -32.2138,1.37128 -16.6431,0.363784 -31.7591,0.636622 -31.7591,-0.987414 0,-1.97955 7.70443,-4.83077 30.8531,-5.50282z" />
    <path
   id="_291301048"
   class="fil7"
   d="M31.1024 57.3751c21.8329,-0.575204 32.6827,2.43192 32.7441,4.72565 0.0637803,1.88388 -15.4797,0.896468 -31.8795,1.2071 -16.3998,0.311815 -31.4909,0.535046 -31.4909,-0.875208 0,-1.82719 8.79342,-4.48116 30.6264,-5.05754z" />
    <path
   id="_291287752"
   class="fil8"
   d="M31.1732 57.8582c20.516,-0.480715 32.3177,2.26893 32.3697,4.33234 0.0519691,1.59451 -15.3911,0.783081 -31.5488,1.04293 -16.1565,0.259846 -31.2228,0.43347 -31.2228,-0.765364 0,-1.67482 9.88477,-4.13037 30.4019,-4.6099z" />
    <path
   id="_290877552"
   class="fil9"
   d="M31.2429 58.3389c19.1979,-0.382682 31.9528,2.10829 31.9941,3.94139 0.0413391,1.30395 -15.3002,0.669693 -31.2157,0.87757 -15.9132,0.207877 -30.9547,0.333075 -30.9547,-0.654339 0,-1.52128 10.9773,-3.77957 30.1764,-4.16462z" />
    <path
   id="_104742896"
   class="fil10"
   d="M31.3138 58.8196c17.8821,-0.288193 31.5878,1.9453 31.6197,3.54689 0.030709,1.01694 -15.2128,0.557487 -30.885,0.713395 -15.6699,0.155907 -30.6878,0.231499 -30.6878,-0.543314 0,-1.36773 12.0687,-3.42878 29.9531,-3.71697z" />
    <path
   id="_104732720"
   class="fil11"
   d="M31.3823 59.3003c16.5663,-0.191341 31.224,1.78467 31.2453,3.15476 0.0212601,0.726387 -15.1207,0.4441 -30.5508,0.549219 -15.4277,0.102757 -30.4197,0.129923 -30.4197,-0.432289 0,-1.21537 13.16,-3.07917 29.7252,-3.27169z" />
    <path
   id="_294397032"
   class="fil12"
   d="M31.4531 59.7811c15.2506,-0.0968516 30.8602,1.62167 30.8697,2.76145 0.0106301,0.437013 -15.0333,0.331894 -30.2189,0.382682 -15.1833,0.0519691 -30.1516,0.0295279 -30.1516,-0.320083 0,-1.06182 14.249,-2.72838 29.5008,-2.82405z" />
   </g>
   <path
   id="_290887128"
   class="fil13"
   d="M31.5205 60.2641c13.9348,0 30.4964,1.45986 30.4964,2.36932 0,0.29646 -59.7716,0.284649 -59.7716,0.00826782 0,-0.90946 15.3415,-2.37759 29.2752,-2.37759z" />
  </g>
  <path
   class="fil14"
   d="M2.93744 14.5903l57.9043 -0.0850404c1.36655,-0.00118112 2.48035,1.06537 2.48153,2.35042l0.0389769 42.1399c0.00236223,1.28624 -1.1197,2.3457 -2.48153,2.34806l-57.9043 0.0850404c-1.35828,0 -2.48153,-1.05592 -2.48153,-2.34806l-0.040158 -42.1399c0,-1.29214 1.11616,-2.34688 2.48271,-2.35042zm20.881 4.00281l16.6715 0c1.2638,0 2.24767,1.44332 2.24767,2.70712l0 0c0,1.2638 -1.05001,2.67641 -2.31026,2.67641l-16.6726 0c-1.30632,0 -2.50987,-2.21696 -2.48743,-2.71657 0,-1.2638 1.28742,-2.66696 2.55121,-2.66696z"
   id="path3325" />
  <path
   class="fil15"
   d="M2.93744 14.5903l57.9043 -0.0850404c1.36655,-0.00118112 2.48035,1.06537 2.48153,2.35042l0.0389769 42.1399c0.00236223,1.28624 -1.1197,2.3457 -2.48153,2.34806l-57.9043 0.0850404c-1.35828,0 -2.48153,-1.05592 -2.48153,-2.34806l-0.040158 -42.1399c0,-1.29214 1.11616,-2.34688 2.48271,-2.35042zm57.9043 1.40907l-57.9043 0.0850404c-0.278744,0 -0.537408,0.109844 -0.722844,0.282287l-0.00590558 0.00590558c-0.155907,0.150002 -0.25394,0.351973 -0.25394,0.568117l-0.00590558 0 0.040158 42.1399 0.00590558 0c0,0.216144 0.0980327,0.419296 0.255121,0.566936l0.00590558 0.00590558c0.177168,0.1689 0.434651,0.2752 0.720481,0.2752l0 0.00590558 57.9043 -0.0850404c0.276381,0 0.535046,-0.109844 0.721662,-0.282287l0.00590558 -0.00590558c0.159451,-0.153545 0.259846,-0.356697 0.259846,-0.565755l-0.0389769 -42.1399c0,-0.212601 -0.103938,-0.420478 -0.269295,-0.576385 -0.177168,-0.167719 -0.432289,-0.274019 -0.718119,-0.274019l0 -0.00590558z"
   id="path3327" />
  <path
   class="fil16"
   d="M8.00207 31.0445l0 0.00118112c0.00118112,0 0.00354335,-0.00472447 0.00354335,-0.00118112l-0.00354335 0z"
   id="path3329" />
  <polygon
   class="fil17"
   points="55.9696,32.0886 8.00207,32.0886 8.02687,38.9379 55.9944,38.9379 "
   id="polygon3331" />
  <path
   class="fil18"
   d="M7.92411 30.0901l48.1222 0c0.524416,0 1.00277,0.216144 1.34884,0.562212l0.00472447 0.00472447c0.344886,0.344886 0.558668,0.825601 0.561031,1.34765l0 0.00354335 0.0248035 7.00993 0.00354335 0 0 0.00236223c0,0.525597 -0.218507,1.00513 -0.564574,1.3512 -0.0885838,0.0885838 -0.185435,0.167719 -0.289374,0.237404 -0.680323,-0.707489 -1.92404,-1.46104 -1.92404,-1.46104l-47.6274 0 -0.964973 1.24844 -0.0248035 -0.0236223c-0.344886,-0.344886 -0.562212,-0.825601 -0.562212,-1.35474l0.00354335 0 -0.0248035 -7.00993 -0.00354335 0c0,-0.527959 0.214963,-1.01104 0.561031,-1.3571 0.346067,-0.346067 0.827963,-0.561031 1.35592,-0.561031z"
   id="path3333" />
  <path
   class="fil19"
   d="M57.1353 40.6092c-0.304728,0.205514 -0.673237,0.327169 -1.06182,0.327169l-0.00236223 0 -48.1211 0c-0.510242,0 -0.986233,-0.206695 -1.33112,-0.53977l0.964973 -1.24844 47.6274 0c0,0 1.24372,0.753553 1.92404,1.46104z"
   id="path3335" />
  <polygon
   class="fil20"
   points="55.9696,47.0557 8.00207,47.0557 8.02687,54.1081 55.9944,54.1081 "
   id="polygon3337" />
  <path
   class="fil21"
   d="M7.92411 45.0572l48.1222 0c0.524416,0 1.00395,0.218507 1.35002,0.561031l0.00472447 0.00472447c0.342524,0.344886 0.557487,0.825601 0.559849,1.34884l0 0.00354335 0.0248035 7.21308 0.00354335 0 0 0.00236223c0,0.525597 -0.218507,1.00513 -0.564574,1.3512 -0.0767726,0.0767726 -0.15827,0.146458 -0.246853,0.209058 -0.669693,-0.7193 -1.96656,-1.50474 -1.96656,-1.50474l-47.6274 0 -0.996863 1.28978c-0.340162,-0.343705 -0.555125,-0.819695 -0.555125,-1.34765l0.00354335 0 -0.0248035 -7.21308 -0.00354335 0c0,-0.527959 0.214963,-1.01104 0.561031,-1.3571 0.346067,-0.346067 0.827963,-0.561031 1.35592,-0.561031z"
   id="path3339" />
  <path
   class="fil22"
   d="M57.1779 55.7511c-0.312996,0.223231 -0.696859,0.355516 -1.10434,0.355516l-0.00236223 0 -48.1211 0c-0.525597,0 -1.00867,-0.216144 -1.35592,-0.563393l-0.0070867 -0.0070867 0.996863 -1.28978 47.6274 0c0,0 1.29687,0.785443 1.96656,1.50474z"
   id="path3341" />
  <path
   class="fil23"
   d="M0.496069 59.1456c0.145277,0.0283468 0.282287,0.0425202 0.402761,0.0425202l1.10434 0c0.0259846,0.174805 0.115749,0.336618 0.246853,0.459454l0.00590558 0.00590558c0.177168,0.1689 0.434651,0.2752 0.720481,0.2752l0 0.00590558 57.9043 -0.0850404c0.276381,0 0.535046,-0.109844 0.721662,-0.282287l0.00590558 -0.00590558c0.101576,-0.0980327 0.178349,-0.217326 0.22205,-0.344886l1.5201 0.00118112c-0.118112,1.18348 -1.18702,2.12365 -2.46972,2.12601l-57.9043 0.0850404c-1.33584,0 -2.44373,-1.02048 -2.48035,-2.2831z"
   id="path3343" />
  <path
   class="fil24"
   d="M7.92411 46.0565l48.1222 0c0.505518,0 0.916547,0.416934 0.918909,0.918909l0.0248035 7.21308c0.00118112,0.49725 -0.421659,0.918909 -0.918909,0.918909l-48.1211 0c-0.498431,0 -0.918909,-0.41221 -0.918909,-0.918909l-0.0248035 -7.21308c0,-0.506699 0.41221,-0.918909 0.917728,-0.918909zm0 -14.9671l48.1222 0c0.505518,0 0.916547,0.418115 0.918909,0.918909l0.0248035 7.00993c0.00118112,0.49725 -0.421659,0.918909 -0.918909,0.918909l-48.1211 0c-0.49725,0 -0.918909,-0.41221 -0.918909,-0.918909l-0.0248035 -7.00993c0,-0.505518 0.41221,-0.918909 0.917728,-0.918909z"
   id="path3345" />
  <path
   class="fil25"
   d="M0.901192 26.1924c20.3447,1.8012 41.2399,1.43151 62.6653,-0.132285l-0.204333 -9.08161c-0.0153545,-0.791348 -0.420478,-1.49884 -1.06301,-1.9264l-60.322 0c-0.763002,0.402761 -1.29805,1.17403 -1.27915,2.0516l0.203152 9.08869zm22.9562 -7.47647l16.6715 0c1.2638,0 2.24767,1.44332 2.24767,2.70712l0 0c0,1.2638 -1.08781,2.55357 -2.34924,2.55357l-16.6726 0c-1.17403,0 -2.10593,-1.11379 -2.23113,-2.28664 -0.0295279,-0.274019 -0.00826782,-0.551582 0.0614181,-0.819695 0.266932,-1.01576 1.20592,-2.07404 2.27247,-2.15436z"
   id="path3347" />
  <path
   class="fil26"
   d="M42.6241 19.466c0.506699,0.636622 0.820876,1.48466 0.820876,2.27601 0,0.811427 -0.355516,1.63112 -0.905917,2.22995 -0.545676,0.594102 -1.29687,0.990957 -2.11184,0.990957l-16.6726 0c-0.817333,0 -1.53781,-0.394493 -2.05751,-0.985051l0.00118112 -0.00118112c-0.52914,-0.60237 -0.857491,-1.42325 -0.857491,-2.23467 0,-0.759458 0.309453,-1.56498 0.805522,-2.19097 -0.0885838,0.268114 -0.13701,0.544495 -0.13701,0.811427l0 0c0,0.669693 0.274019,1.34647 0.721662,1.83427 0.0791348,0.333075 0.244491,0.648433 0.46536,0.89883l0.00236223 0c0.279925,0.31772 0.653158,0.530321 1.05592,0.530321l16.6726 0c0.419296,0 0.825601,-0.22205 1.13151,-0.555125 0.24331,-0.265751 0.425202,-0.597645 0.504337,-0.944894 0.435832,-0.480715 0.713395,-1.12442 0.713395,-1.76341l0 0c0,-0.295279 -0.0531503,-0.601189 -0.152364,-0.896468z"
   id="path3349" />
  <path
   class="fil26"
   d="M0.609456 18.2778c0,-1.99491 0.938988,-3.60949 2.88547,-3.60949l0 0.00236223 56.6983 0.0141734 0 -0.00236223 0.0437013 0 0.0070867 0.00236223c2.02562,0.0248035 2.97169,1.51537 2.97169,3.5965l0 0.0366146 -0.155907 0.134647 0 -0.0354335c0,-1.34884 -1.52364,-2.38468 -2.82287,-2.40121l0 0.00236223 -0.0437013 0 0 -0.00236223 -56.6983 -0.0141734 0 0.00236223c-1.21773,0 -2.82877,1.07127 -2.82877,2.34215l-0.0566936 -0.0685048z"
   id="path3351" />
  <path
   class="fil27"
   d="M44.1289 14.8998l-2.80633 4.01344c-0.244491,-0.124017 -0.512605,-0.197247 -0.793711,-0.197247l-16.6715 0c-0.452368,0 -0.881113,0.184254 -1.2449,0.479533l-3.28587 -4.55084 24.8023 0.255121z"
   id="path3353" />
  <path
   class="fil28"
   d="M2.93744 14.0919l57.9043 -0.0850404 0 -0.00236223c0.812608,0 1.55553,0.320083 2.09294,0.829144 0.545676,0.517329 0.885838,1.23663 0.887019,2.02207l0.0389769 42.1399c0.00118112,0.784262 -0.340162,1.50238 -0.883475,2.01735l-0.00118112 0.00236223c-0.537408,0.506699 -1.28151,0.825601 -2.0953,0.826782l-57.9043 0.0850404 0 0.00236223c-0.810246,0 -1.55435,-0.31772 -2.09294,-0.829144l-0.00118112 0.00118112c-0.546857,-0.516148 -0.8882,-1.23427 -0.8882,-2.02089l0.00236223 0 -0.040158 -42.1399 -0.00236223 0c0,-0.787805 0.340162,-1.50238 0.885838,-2.01971l0.00118112 -0.00236223c0.536227,-0.506699 1.28033,-0.82442 2.09648,-0.826782zm57.9043 0.911822l-57.9043 0.0850404c-0.549219,0.00118112 -1.05001,0.216144 -1.41143,0.557487l-0.00118112 -0.00118112c-0.350792,0.333075 -0.569298,0.793711 -0.569298,1.29569l-0.00236223 0 0.040158 42.1399 0.00236223 0c0,0.500794 0.219688,0.961429 0.571661,1.29332l0.00118112 0.00236223c0.357878,0.338981 0.858672,0.551582 1.40789,0.551582l0 0.00236223 57.9043 -0.0850404c0.546857,0 1.04765,-0.216144 1.41025,-0.557487l0.00118112 0.00118112c0.351973,-0.335437 0.571661,-0.796073 0.571661,-1.29332l-0.0389769 -42.1399c0,-0.498431 -0.223231,-0.963791 -0.577566,-1.29923 -0.356697,-0.337799 -0.855129,-0.5504 -1.40553,-0.5504l0 -0.00236223zm-37.0233 3.08862l16.6715 0c0.76182,0 1.43624,0.402761 1.92404,0.990957l0.00236223 0c0.50788,0.611819 0.822057,1.44214 0.822057,2.21696 0,0.771269 -0.330713,1.17994 -0.852766,1.78349 -0.504337,0.584653 -1.19647,0.985051 -1.95829,0.985051l-16.6726 0 -0.00944894 -0.00236223 -0.0519691 -0.00118112 -0.0118112 0c-0.814971,-0.0354335 -1.55199,-0.675599 -2.07522,-1.37718 -0.764183,-1.35828 -0.840955,-2.15199 0.116931,-3.5965l0.00236223 -0.00236223c0.565755,-0.590558 1.32758,-0.996863 2.09294,-0.996863zm16.6715 1.00159l-16.6715 0c-0.480715,0 -0.982689,0.278744 -1.37246,0.685048 -0.745285,1.09726 -0.604732,1.34647 -0.0389769,2.31145 0.374414,0.501975 0.861034,0.957886 1.31695,0.977965l0.030709 0.00118112 0 -0.00236223 16.6726 0c0.450006,0 0.879932,-0.258665 1.20474,-0.635441 0.370871,-0.427564 0.604732,-0.594102 0.604732,-1.13151 0,-0.546857 -0.225593,-1.13978 -0.590558,-1.57915l0.00118112 -0.00118112c-0.308272,-0.370871 -0.715757,-0.625992 -1.15749,-0.625992z"
   id="path3355" />
  <path
   class="fil29"
   d="M25.4708 2.62444l13.1175 0.0755915c0.41221,0.00118112 0.75119,0.367327 0.750009,0.787805l-0.102757 17.053c-0.00118112,0.419296 -0.349611,0.790167 -0.750009,0.786624l-13.1187 -0.0767726c-0.400399,-0.00354335 -0.753553,-0.355516 -0.750009,-0.786624l0.103938 -17.053c0.00354335,-0.43347 0.337799,-0.787805 0.750009,-0.786624z"
   id="path3357" />
  <polygon
   class="fil30"
   points="25.9858,3.28941 38.3426,3.28941 39.0914,3.41225 39.0914,6.13945 25.2357,6.13945 25.2357,3.41225 "
   id="polygon3359" />
  <g
   id="_290875104">
   <polygon
   id="_290896032"
   class="fil31"
   points="-26.4393,24.9605 -26.4393,23.8845 -25.2759,23.8845 -25.2759,24.9605 " />
   <path
   id="_290877312"
   class="fil31"
   d="M-19.8794 29.9012l-1.16222 0 0 -2.24412c0,-0.473628 -0.0248035,-0.781899 -0.0744104,-0.921271 -0.050788,-0.13701 -0.132285,-0.245672 -0.244491,-0.324807 -0.111025,-0.0755915 -0.245672,-0.114568 -0.40158,-0.114568 -0.201971,0 -0.382682,0.0543314 -0.543314,0.165356 -0.159451,0.109844 -0.269295,0.256302 -0.32835,0.437013 -0.0590558,0.183073 -0.0897649,0.520873 -0.0897649,1.01222l0 1.99018 -1.16222 0 0 -4.39612 1.07954 0 0 0.646071c0.383863,-0.496069 0.868121,-0.745285 1.44923,-0.745285 0.255121,0 0.491345,0.0448824 0.703946,0.138191 0.21142,0.0933082 0.372052,0.210239 0.480715,0.354335 0.108663,0.144096 0.186616,0.305909 0.229137,0.488982 0.0437013,0.183073 0.0637803,0.442919 0.0637803,0.781899l0 2.73192z" />
   <polygon
   id="_290874072"
   class="fil31"
   points="-26.4393,29.9531 -26.4393,25.557 -25.2759,25.557 -25.2759,29.9531 " />
   <path
   id="_290866752"
   class="fil31"
   d="M-29.2126 30.0323l0.00354335 -0.150002 0 -0.641346c-0.348429,0.474809 -0.786624,0.712213 -1.31695,0.712213 -0.589377,0 -1.05828,-0.250397 -1.40317,-0.748828 -0.269295,-0.395674 -0.405123,-0.884657 -0.405123,-1.47285 0,-0.739379 0.178349,-1.30041 0.532684,-1.69136 0.354335,-0.387406 0.794892,-0.582291 1.32285,-0.582291 0.542133,0 0.990957,0.237404 1.34529,0.714576l0 -0.615362 1.08781 0 0 3.94611c0,0.194884 -0.00472447,0.370871 -0.0177168,0.52914l-1.14923 0zm-1.92995 -2.36814c0,0.46536 0.090946,0.807884 0.272838,1.02403 0.17953,0.217326 0.40158,0.325988 0.667331,0.325988 0.284649,0 0.523235,-0.112206 0.720481,-0.334256 0.196065,-0.22205 0.292917,-0.551582 0.292917,-0.987414 0,-0.45473 -0.0944894,-0.793711 -0.282287,-1.0134 -0.185435,-0.220869 -0.42284,-0.330713 -0.709851,-0.330713 -0.278744,0 -0.509061,0.108663 -0.688591,0.323626 -0.181892,0.217326 -0.272838,0.546857 -0.272838,0.992138z" />
   <path
   id="_290885496"
   class="fil31"
   d="M-37.5217 27.6925c0,-0.385044 0.0968516,-0.759458 0.28583,-1.12206 0.19016,-0.360241 0.461817,-0.636622 0.809065,-0.825601 0.350792,-0.191341 0.739379,-0.287011 1.17167,-0.287011 0.662607,0 1.20828,0.216144 1.63348,0.647252 0.425202,0.43347 0.636622,0.979146 0.636622,1.63939 0,0.662607 -0.213782,1.21419 -0.642528,1.65238 -0.353154,0.361422 -0.781899,0.571661 -1.28387,0.635441l-0.663788 0c-0.28583,-0.0366146 -0.559849,-0.120474 -0.825601,-0.252759 -0.366146,-0.181892 -0.64489,-0.448824 -0.83505,-0.801978 -0.188979,-0.350792 -0.28583,-0.779537 -0.28583,-1.28506zm1.19293 0.0625992c0,0.437013 0.102757,0.768907 0.310634,1.00159 0.206695,0.23268 0.461817,0.347248 0.765364,0.347248 0.304728,0 0.558668,-0.114568 0.763002,-0.347248 0.206695,-0.23268 0.310634,-0.568117 0.310634,-1.01104 0,-0.428745 -0.103938,-0.760639 -0.310634,-0.993319 -0.204333,-0.231499 -0.458273,-0.347248 -0.763002,-0.347248 -0.303547,0 -0.558668,0.115749 -0.765364,0.347248 -0.207877,0.23268 -0.310634,0.568117 -0.310634,1.00277z" />
   <polygon
   id="_290888808"
   class="fil31"
   points="-39.9135,29.9531 -39.9135,23.8845 -38.7501,23.8845 -38.7501,29.9531 " />
  </g>
  <path
   class="fil32"
   d="M56.9653 47.0333l-0.0377957 -0.00118112 -48.9679 0c-0.505518,0 -0.918909,0.413391 -0.918909,0.918909l0.0224412 6.47488c-0.0212601,-0.0755915 -0.0318902,-0.155907 -0.0318902,-0.237404l-0.0248035 -7.21308c0,-0.506699 0.41221,-0.918909 0.917728,-0.918909l48.1222 0c0.505518,0 0.916547,0.416934 0.918909,0.918909l0 0.0578747z"
   id="path3368" />
  <path
   class="fil33"
   d="M26.0082 19.062l11.9127 0c0.405123,0 0.734655,0.0188979 0.734655,0.0366146l0 0.784262c0,0.0177168 -0.331894,0.0366146 -0.734655,0.0366146l-11.9127 0c-0.40158,0 -0.735836,-0.0153545 -0.735836,-0.0366146l0 -0.784262c0,-0.0212601 0.330713,-0.0366146 0.735836,-0.0366146z"
   id="path3370" />
  <path
   class="fil30"
   d="M25.9692 17.6412l11.9116 0c0.405123,0 0.734655,0.0283468 0.734655,0.0555125l0 1.21064c0,0.0259846 -0.333075,0.0543314 -0.734655,0.0543314l-11.9116 0c-0.402761,0 -0.737017,-0.0248035 -0.737017,-0.0543314l0 -1.21064c0,-0.0295279 0.330713,-0.0555125 0.737017,-0.0555125z"
   id="path3372" />
  <path
   class="fil34"
   d="M34.5229 2.66224l4.32525 0.0377957c0.269295,0 0.491345,0.364965 0.490164,0.787805l-0.0673237 15.6238c-0.00118112,0.420478 -0.227956,0.787805 -0.490164,0.786624l-1.10671 -0.00944894c0.167719,-0.060237 0.302366,-0.395674 0.303547,-0.777175l0.0484258 -15.6238c0.00118112,-0.424021 -0.161813,-0.786624 -0.356697,-0.787805l-3.1465 -0.0377957z"
   id="path3374" />
  <path
   class="fil35"
   d="M25.2287 2.62444l1.20828 0.00944894c-0.185435,0.0566936 -0.329532,0.386225 -0.329532,0.777175l-0.0555125 15.6238c0,0.429927 0.181892,0.784262 0.39095,0.786624l3.44177 0.0389769 -4.73037 -0.0389769c-0.288193,-0.00354335 -0.53977,-0.355516 -0.537408,-0.786624l0.0744104 -15.6238c0.00236223,-0.43347 0.242129,-0.787805 0.537408,-0.786624z"
   id="path3376" />
  <path
   class="fil36"
   d="M25.9468 6.2174l11.7793 0c0.400399,0 0.703946,0.0153545 0.726387,0.0354335l0.915366 0.775994c0.0236223,0.0188979 -0.9945,1.80711 -1.00513,1.78939l-1.15868 -1.77049 -11.0375 -0.0165356 -1.0323 1.45868c-0.0118112,0.0188979 -1.31931,-1.44214 -1.28624,-1.46104l1.37246 -0.775994c0.0342524,-0.020079 0.32835,-0.0354335 0.726387,-0.0354335z"
   id="path3378" />
  <ellipse
   class="fil37"
   cx="32.0166"
   cy="10.5055"
   rx="3.41057"
   ry="3.41052"
   id="ellipse3380" />
  <ellipse
   class="fil38"
   cx="32.0011"
   cy="10.5625"
   rx="3.54636"
   ry="3.5463"
   id="ellipse3382" />
  <path
   class="fil39"
   d="M35.5056 10.0159c0.0283468,0.178349 0.0425202,0.360241 0.0425202,0.546857 0,1.95947 -1.58742,3.54689 -3.54689,3.54689 -1.95829,0 -3.54689,-1.58742 -3.54689,-3.54689 0,-0.109844 0.00590558,-0.217326 0.0153545,-0.323626 0.263389,1.69726 1.7327,2.99886 3.50437,2.99886 1.84963,0 3.36855,-1.41498 3.53154,-3.22209z"
   id="path3384" />
  <path
   class="fil40"
   d="M32.1299 11.5088c1.74805,0 2.91145,-1.01812 2.91145,-2.27247 0,-1.25317 -1.1634,-1.53427 -2.91145,-1.53427 -1.74569,0 -3.16185,0.281106 -3.16185,1.53427 0,1.25435 1.41616,2.27247 3.16185,2.27247z"
   id="path3386" />
  <path
   class="fil41"
   d="M32.1453 8.12254c1.19883,0 1.99609,0.721662 1.99609,1.60986 0,0.8882 -0.797254,1.08781 -1.99609,1.08781 -1.19765,0 -2.16971,-0.199609 -2.16971,-1.08781 0,-0.8882 0.972059,-1.60986 2.16971,-1.60986z"
   id="path3388" />
  <path
   class="fil30"
   d="M31.8913 13.9974c1.4634,0 2.43783,-0.814971 2.43783,0.320083 0,1.13387 -0.974421,1.38781 -2.43783,1.38781 -1.4634,0 -2.64925,-0.25394 -2.64925,-1.38781 0,-1.13505 1.18584,-0.320083 2.64925,-0.320083z"
   id="path3390" />
  <path
   class="fil32"
   d="M56.9605 31.9126l-48.9337 0c-0.505518,0 -0.918909,0.41221 -0.918909,0.918909l0.0224412 6.56347c-0.0590558,-0.114568 -0.0944894,-0.242129 -0.0992138,-0.376776l0 -0.00944894 0 -0.0129923 0 -0.0141734 -0.0248035 -6.97331 0 -0.0236223 0.00118112 -0.0236223c0.0248035,-0.484258 0.427564,-0.871664 0.916547,-0.871664l48.1222 0c0.473628,0 0.864578,0.366146 0.914184,0.823238z"
   id="path3392" />
  <g
   id="_290877048">
   <polygon
   id="_290870376"
   class="fil31"
   points="18.2081,35.1441 18.2081,34.3374 19.0798,34.3374 19.0798,35.1441 " />
   <path
   id="_104742320"
   class="fil31"
   d="M23.1251 38.8469l-0.871664 0 0 -1.68191c0,-0.355516 -0.0188979,-0.585834 -0.0555125,-0.690953 -0.0377957,-0.102757 -0.0992138,-0.184254 -0.183073,-0.24331 -0.0838593,-0.0566936 -0.184254,-0.0862215 -0.301185,-0.0862215 -0.151183,0 -0.287011,0.0413391 -0.407485,0.124017 -0.119293,0.0826782 -0.201971,0.192522 -0.245672,0.32835 -0.0448824,0.13701 -0.0673237,0.389769 -0.0673237,0.758277l0 1.49175 -0.871664 0 0 -3.29532 0.809065 0 0 0.484258c0.288193,-0.372052 0.650795,-0.558668 1.08663,-0.558668 0.191341,0 0.368508,0.0342524 0.527959,0.103938 0.15827,0.0696859 0.278744,0.157089 0.360241,0.265751 0.0814971,0.107482 0.139372,0.229137 0.171262,0.366146 0.0330713,0.13701 0.0484258,0.331894 0.0484258,0.585834l0 2.04806z" />
   <polygon
   id="_104736632"
   class="fil31"
   points="18.2081,38.8859 18.2081,35.5906 19.0798,35.5906 19.0798,38.8859 " />
   <path
   id="_103013608"
   class="fil31"
   d="M16.1293 38.945l0.00236223 -0.112206 0 -0.480715c-0.261027,0.355516 -0.589377,0.533865 -0.987414,0.533865 -0.441738,0 -0.792529,-0.187798 -1.05119,-0.561031 -0.201971,-0.29646 -0.303547,-0.663788 -0.303547,-1.10434 0,-0.553944 0.133466,-0.974421 0.399218,-1.26734 0.265751,-0.290555 0.595283,-0.437013 0.990957,-0.437013 0.406304,0 0.742923,0.178349 1.00867,0.536227l0 -0.461817 0.814971 0 0 2.95752c0,0.146458 -0.00354335,0.278744 -0.0129923,0.396855l-0.861034 0zm-1.44687 -1.77522c0,0.349611 0.0685048,0.605913 0.204333,0.767726 0.134647,0.162994 0.301185,0.244491 0.500794,0.244491 0.212601,0 0.392131,-0.0838593 0.53977,-0.250397 0.146458,-0.166537 0.219688,-0.413391 0.219688,-0.74056 0,-0.340162 -0.070867,-0.594102 -0.21142,-0.759458 -0.139372,-0.165356 -0.31772,-0.248035 -0.532684,-0.248035 -0.209058,0 -0.381501,0.0814971 -0.516148,0.24331 -0.135828,0.162994 -0.204333,0.409848 -0.204333,0.742923z" />
   <path
   id="_290879280"
   class="fil31"
   d="M9.9013 37.191c0,-0.288193 0.0720481,-0.569298 0.213782,-0.840955 0.142915,-0.269295 0.346067,-0.477171 0.607094,-0.618905 0.262208,-0.142915 0.553944,-0.214963 0.87757,-0.214963 0.49725,0 0.905917,0.161813 1.22482,0.485439 0.318902,0.324807 0.477171,0.733474 0.477171,1.22836 0,0.49725 -0.160632,0.910641 -0.481896,1.23899 -0.26457,0.270476 -0.585834,0.428745 -0.96261,0.47599l-0.49725 0c-0.213782,-0.0271657 -0.419296,-0.0897649 -0.618905,-0.188979 -0.274019,-0.13701 -0.483077,-0.336618 -0.625992,-0.601189 -0.141734,-0.263389 -0.213782,-0.584653 -0.213782,-0.963791zm0.894105 0.0472447c0,0.327169 0.0767726,0.576385 0.23268,0.75119 0.154726,0.173624 0.346067,0.259846 0.574023,0.259846 0.227956,0 0.418115,-0.0862215 0.571661,-0.259846 0.154726,-0.174805 0.23268,-0.426383 0.23268,-0.758277 0,-0.321264 -0.0779537,-0.570479 -0.23268,-0.744104 -0.153545,-0.173624 -0.343705,-0.261027 -0.571661,-0.261027 -0.227956,0 -0.419296,0.0874027 -0.574023,0.261027 -0.155907,0.173624 -0.23268,0.425202 -0.23268,0.75119z" />
   <polygon
   id="_290897688"
   class="fil31"
   points="8.10837,38.8859 8.10837,34.3374 8.98003,34.3374 8.98003,38.8859 " />
  </g>
  <g
   id="_105482760">
   <polygon
   id="_294403008"
   class="fil42"
   points="18.2837,33.9193 18.2837,33.1126 19.1554,33.1126 19.1554,33.9193 " />
   <path
   id="_290894088"
   class="fil42"
   d="M23.2007 37.6221l-0.871664 0 0 -1.68191c0,-0.355516 -0.0188979,-0.585834 -0.0555125,-0.690953 -0.0377957,-0.102757 -0.0992138,-0.184254 -0.183073,-0.24331 -0.0838593,-0.0566936 -0.184254,-0.0862215 -0.301185,-0.0862215 -0.151183,0 -0.287011,0.0413391 -0.407485,0.124017 -0.119293,0.0826782 -0.201971,0.192522 -0.245672,0.32835 -0.0448824,0.13701 -0.0673237,0.389769 -0.0673237,0.758277l0 1.49175 -0.871664 0 0 -3.29532 0.809065 0 0 0.484258c0.288193,-0.372052 0.650795,-0.558668 1.08663,-0.558668 0.191341,0 0.368508,0.0342524 0.527959,0.103938 0.15827,0.0696859 0.278744,0.157089 0.360241,0.265751 0.0814971,0.107482 0.139372,0.229137 0.171262,0.366146 0.0330713,0.13701 0.0484258,0.331894 0.0484258,0.585834l0 2.04806z" />
   <polygon
   id="_105483720"
   class="fil42"
   points="18.2837,37.6611 18.2837,34.3658 19.1554,34.3658 19.1554,37.6611 " />
   <path
   id="_290881848"
   class="fil42"
   d="M13.9797 37.8784l0.995682 0.120474c0.0177168,0.116931 0.0555125,0.196065 0.114568,0.239767 0.0826782,0.0625992 0.213782,0.0933082 0.39095,0.0933082 0.227956,0 0.398036,-0.0342524 0.512605,-0.102757 0.0755915,-0.0460636 0.134647,-0.119293 0.173624,-0.220869 0.0259846,-0.0720481 0.040158,-0.205514 0.040158,-0.400399l0 -0.480715c-0.261027,0.355516 -0.589377,0.533865 -0.987414,0.533865 -0.441738,0 -0.792529,-0.187798 -1.05119,-0.561031 -0.201971,-0.29646 -0.303547,-0.663788 -0.303547,-1.10434 0,-0.553944 0.133466,-0.974421 0.399218,-1.26734 0.265751,-0.290555 0.595283,-0.437013 0.990957,-0.437013 0.406304,0 0.742923,0.178349 1.00867,0.536227l0 -0.461817 0.814971 0 0 2.95752c0,0.388587 -0.0318902,0.679142 -0.0968516,0.871664 -0.0625992,0.192522 -0.153545,0.342524 -0.268114,0.453549 -0.116931,0.108663 -0.271657,0.194884 -0.464179,0.257483 -0.193703,0.0614181 -0.438194,0.0921271 -0.734655,0.0921271 -0.558668,0 -0.954342,-0.0956705 -1.1882,-0.287011 -0.233861,-0.191341 -0.349611,-0.43347 -0.349611,-0.727568 0,-0.0295279 0.00118112,-0.0637803 0.00236223,-0.105119zm0.778356 -1.93349c0,0.349611 0.0685048,0.605913 0.204333,0.767726 0.134647,0.162994 0.301185,0.244491 0.500794,0.244491 0.212601,0 0.392131,-0.0838593 0.53977,-0.250397 0.146458,-0.166537 0.219688,-0.413391 0.219688,-0.74056 0,-0.340162 -0.070867,-0.594102 -0.21142,-0.759458 -0.139372,-0.165356 -0.31772,-0.248035 -0.532684,-0.248035 -0.209058,0 -0.381501,0.0814971 -0.516148,0.24331 -0.135828,0.162994 -0.204333,0.409848 -0.204333,0.742923z" />
   <path
   id="_290875440"
   class="fil42"
   d="M9.97689 35.9662c0,-0.288193 0.0720481,-0.569298 0.213782,-0.840955 0.142915,-0.269295 0.346067,-0.477171 0.607094,-0.618905 0.262208,-0.142915 0.553944,-0.214963 0.87757,-0.214963 0.49725,0 0.905917,0.161813 1.22482,0.485439 0.318902,0.324807 0.477171,0.733474 0.477171,1.22836 0,0.49725 -0.160632,0.910641 -0.481896,1.23899 -0.321264,0.32835 -0.726387,0.491345 -1.21419,0.491345 -0.303547,0 -0.590558,-0.0685048 -0.864578,-0.204333 -0.274019,-0.13701 -0.483077,-0.336618 -0.625992,-0.601189 -0.141734,-0.263389 -0.213782,-0.584653 -0.213782,-0.963791zm0.894105 0.0472447c0,0.327169 0.0767726,0.576385 0.23268,0.75119 0.154726,0.173624 0.346067,0.259846 0.574023,0.259846 0.227956,0 0.418115,-0.0862215 0.571661,-0.259846 0.154726,-0.174805 0.23268,-0.426383 0.23268,-0.758277 0,-0.321264 -0.0779537,-0.570479 -0.23268,-0.744104 -0.153545,-0.173624 -0.343705,-0.261027 -0.571661,-0.261027 -0.227956,0 -0.419296,0.0874027 -0.574023,0.261027 -0.155907,0.173624 -0.23268,0.425202 -0.23268,0.75119z" />
   <polygon
   id="_290881872"
   class="fil42"
   points="8.18396,37.6611 8.18396,33.1126 9.05562,33.1126 9.05562,37.6611 " />
  </g>
  <circle
   class="fil30"
   cx="9.43181"
   cy="51.7961"
   r="1.45455"
   id="circle3408" />
  <g
   id="_290878824">
   <path
   id="_290877576"
   class="fil30"
   d="M14.1616 50.3404c0.803159,0 1.45514,0.651977 1.45514,1.45514 0,0.801978 -0.651977,1.45395 -1.45514,1.45395 -0.801978,0 -1.45395,-0.651977 -1.45395,-1.45395 0,-0.803159 0.651977,-1.45514 1.45395,-1.45514z" />
   <path
   id="_290867256"
   class="fil30"
   d="M18.892 50.3404c0.803159,0 1.45514,0.651977 1.45514,1.45514 0,0.801978 -0.651977,1.45395 -1.45514,1.45395 -0.801978,0 -1.45395,-0.651977 -1.45395,-1.45395 0,-0.803159 0.651977,-1.45514 1.45395,-1.45514z" />
   <path
   id="_290871048"
   class="fil30"
   d="M23.6176 50.3404c0.803159,0 1.45514,0.651977 1.45514,1.45514 0,0.801978 -0.651977,1.45395 -1.45514,1.45395 -0.801978,0 -1.45395,-0.651977 -1.45395,-1.45395 0,-0.803159 0.651977,-1.45514 1.45395,-1.45514z" />
   <path
   id="_290868600"
   class="fil30"
   d="M28.3468 50.3404c0.803159,0 1.45514,0.651977 1.45514,1.45514 0,0.801978 -0.651977,1.45395 -1.45514,1.45395 -0.801978,0 -1.45395,-0.651977 -1.45395,-1.45395 0,-0.803159 0.651977,-1.45514 1.45395,-1.45514z" />
  </g>
  <circle
   class="fil30"
   cx="33.0766"
   cy="51.7961"
   r="1.45455"
   id="circle3415" />
  <circle
   class="fil43"
   cx="9.43181"
   cy="50.5713"
   r="1.45455"
   id="circle3417" />
  <g
   id="_294402048">
   <path
   id="_104746616"
   class="fil43"
   d="M14.1616 49.1156c0.803159,0 1.45514,0.651977 1.45514,1.45514 0,0.801978 -0.651977,1.45395 -1.45514,1.45395 -0.801978,0 -1.45395,-0.651977 -1.45395,-1.45395 0,-0.803159 0.651977,-1.45514 1.45395,-1.45514z" />
   <path
   id="_290871576"
   class="fil43"
   d="M18.892 49.1156c0.803159,0 1.45514,0.651977 1.45514,1.45514 0,0.801978 -0.651977,1.45395 -1.45514,1.45395 -0.801978,0 -1.45395,-0.651977 -1.45395,-1.45395 0,-0.803159 0.651977,-1.45514 1.45395,-1.45514z" />
   <path
   id="_290866704"
   class="fil43"
   d="M23.6176 49.1156c0.803159,0 1.45514,0.651977 1.45514,1.45514 0,0.801978 -0.651977,1.45395 -1.45514,1.45395 -0.801978,0 -1.45395,-0.651977 -1.45395,-1.45395 0,-0.803159 0.651977,-1.45514 1.45395,-1.45514z" />
   <path
   id="_290879952"
   class="fil43"
   d="M28.3468 49.1156c0.803159,0 1.45514,0.651977 1.45514,1.45514 0,0.801978 -0.651977,1.45395 -1.45514,1.45395 -0.801978,0 -1.45395,-0.651977 -1.45395,-1.45395 0,-0.803159 0.651977,-1.45514 1.45395,-1.45514z" />
  </g>
  <circle
   class="fil43"
   cx="33.0766"
   cy="50.5713"
   r="1.45455"
   id="circle3424" />
  <path
   class="fil44"
   d="M25.3137 1.96302l13.4352 0.0755915 0 -0.00236223c0.346067,0 0.663788,0.153545 0.889381,0.39095l0.00236223 0.00118112c0.218507,0.23268 0.357878,0.555125 0.356697,0.89883l-0.101576 17.2951 0.00236223 0 0 0.00236223 -0.00236223 0.00236223c-0.00118112,0.336618 -0.141734,0.656701 -0.360241,0.8882l-0.00472447 0.00354335c-0.227956,0.237404 -0.543314,0.39095 -0.882294,0.39095l-0.00236223 0 -0.00236223 -0.00236223 -13.4387 -0.0779537c-0.337799,-0.00118112 -0.660244,-0.152364 -0.887019,-0.389769l-0.00236223 -0.00236223c-0.219688,-0.230318 -0.35906,-0.549219 -0.357878,-0.894105l0.105119 -17.2975c0.00118112,-0.348429 0.140553,-0.669693 0.35906,-0.89883l0.00236223 -0.00236223c0.226774,-0.236223 0.542133,-0.383863 0.887019,-0.383863l0.00236223 0.00236223zm13.4328 1.07245l-13.4352 -0.0755915 0 0.00236223c-0.0625992,0 -0.122836,0.0283468 -0.166537,0.0720481 -0.0519691,0.0543314 -0.0850404,0.133466 -0.0850404,0.216144l-0.105119 17.2975c0,0.0755915 0.0318902,0.14764 0.0814971,0.199609l0.00236223 0.00236223c0.0472447,0.0496069 0.112206,0.0826782 0.171262,0.0826782l13.4364 0.0779537 0 -0.00236223 0.00236223 0c0.0555125,0 0.113387,-0.030709 0.160632,-0.0779537l-0.00118112 0c0.0531503,-0.0566936 0.0897649,-0.134647 0.090946,-0.205514l-0.00236223 0 0 -0.00236223 0.00236223 -0.00236223 0.101576 -17.2975c0,-0.0744104 -0.0342524,-0.152364 -0.0874027,-0.209058l0.00118112 0c-0.0437013,-0.0448824 -0.105119,-0.0755915 -0.165356,-0.0755915l-0.00236223 -0.00236223z"
   id="path3426" />
 </g>
</svg>