<?xml version="1.0" encoding="UTF-8"?>
<!DOCTYPE svg PUBLIC "-//W3C//DTD SVG 1.1//EN" "http://www.w3.org/Graphics/SVG/1.1/DTD/svg11.dtd">
<!-- Creator: CorelDRAW -->
<svg xmlns="http://www.w3.org/2000/svg" xml:space="preserve" width="64px" height="64px" style="shape-rendering:geometricPrecision; text-rendering:geometricPrecision; image-rendering:optimizeQuality; fill-rule:evenodd; clip-rule:evenodd"
viewBox="0 0 64 64"
 xmlns:xlink="http://www.w3.org/1999/xlink">
 <defs>
  <style type="text/css">
   <![CDATA[
    .fil85 {fill:none}
    .fil114 {fill:#7F7F7F}
    .fil70 {fill:#E5E5E5}
    .fil119 {fill:#FFF5BA}
    .fil31 {fill:white}
    .fil113 {fill:#454545}
    .fil121 {fill:#4C4C4C}
    .fil81 {fill:#7A9A35}
    .fil84 {fill:#85A839}
    .fil79 {fill:#92B640}
    .fil74 {fill:#A2BF69}
    .fil86 {fill:#A5CE53}
    .fil75 {fill:#A5CF50}
    .fil90 {fill:#A7CF49}
    .fil117 {fill:#B2B2B2}
    .fil158 {fill:#FFF2A6}
    .fil157 {fill:#8A8787}
    .fil88 {fill:#E070E0}
    .fil48 {fill:#E8E8E8}
    .fil94 {fill:#FF94FF}
    .fil120 {fill:#FFEBFF}
    .fil29 {fill:#333333;fill-rule:nonzero}
    .fil159 {fill:#666666;fill-rule:nonzero}
    .fil122 {fill:#333333;fill-rule:nonzero}
    .fil17 {fill:#404040;fill-rule:nonzero}
    .fil112 {fill:#454545;fill-rule:nonzero}
    .fil82 {fill:#7A9A35;fill-rule:nonzero}
    .fil28 {fill:#E9DFA3;fill-rule:nonzero}
    .fil109 {fill:#FFF2A6;fill-rule:nonzero}
    .fil59 {fill:#4C4C4C;fill-opacity:0.000000}
    .fil49 {fill:white;fill-opacity:0.000000}
    .fil0 {fill:black;fill-opacity:0.000000}
    .fil147 {fill:#FFF2A6;fill-opacity:0.000000}
    .fil123 {fill:#FFFD94;fill-opacity:0.000000}
    .fil18 {fill:#292929;fill-opacity:0.000000}
    .fil38 {fill:#6C2E80;fill-opacity:0.000000}
    .fil98 {fill:#403F3F;fill-rule:nonzero;fill-opacity:0.000000}
    .fil1 {fill:black;fill-opacity:0.003922}
    .fil2 {fill:black;fill-opacity:0.007843}
    .fil60 {fill:#4C4C4C;fill-opacity:0.011765}
    .fil99 {fill:#403F3F;fill-opacity:0.011765}
    .fil39 {fill:#6C2E80;fill-opacity:0.011765}
    .fil3 {fill:black;fill-opacity:0.015686}
    .fil4 {fill:black;fill-opacity:0.019608}
    .fil124 {fill:#FFFD94;fill-opacity:0.019608}
    .fil5 {fill:black;fill-opacity:0.023529}
    .fil19 {fill:#292929;fill-opacity:0.023529}
    .fil61 {fill:#4C4C4C;fill-opacity:0.027451}
    .fil100 {fill:#403F3F;fill-opacity:0.027451}
    .fil40 {fill:#6C2E80;fill-opacity:0.027451}
    .fil6 {fill:black;fill-opacity:0.027451}
    .fil7 {fill:black;fill-opacity:0.031373}
    .fil8 {fill:black;fill-opacity:0.035294}
    .fil125 {fill:#FFFD94;fill-opacity:0.039216}
    .fil62 {fill:#4C4C4C;fill-opacity:0.039216}
    .fil101 {fill:#403F3F;fill-opacity:0.039216}
    .fil41 {fill:#6C2E80;fill-opacity:0.039216}
    .fil9 {fill:black;fill-opacity:0.043137}
    .fil10 {fill:black;fill-opacity:0.047059}
    .fil50 {fill:white;fill-opacity:0.047059}
    .fil20 {fill:#292929;fill-opacity:0.047059}
    .fil11 {fill:black;fill-opacity:0.050980}
    .fil63 {fill:#4C4C4C;fill-opacity:0.054902}
    .fil102 {fill:#403F3F;fill-opacity:0.054902}
    .fil42 {fill:#6C2E80;fill-opacity:0.054902}
    .fil12 {fill:black;fill-opacity:0.054902}
    .fil148 {fill:#FFF5B0;fill-opacity:0.054902}
    .fil126 {fill:#FFFD94;fill-opacity:0.058824}
    .fil13 {fill:black;fill-opacity:0.058824}
    .fil64 {fill:#4C4C4C;fill-opacity:0.066667}
    .fil103 {fill:#403F3F;fill-opacity:0.066667}
    .fil43 {fill:#6C2E80;fill-opacity:0.066667}
    .fil21 {fill:#292929;fill-opacity:0.074510}
    .fil127 {fill:#FFFD94;fill-opacity:0.078431}
    .fil65 {fill:#4C4C4C;fill-opacity:0.078431}
    .fil104 {fill:#403F3F;fill-opacity:0.078431}
    .fil44 {fill:#6C2E80;fill-opacity:0.078431}
    .fil66 {fill:#4C4C4C;fill-opacity:0.094118}
    .fil105 {fill:#403F3F;fill-opacity:0.094118}
    .fil45 {fill:#6C2E80;fill-opacity:0.094118}
    .fil128 {fill:#FFFD94;fill-opacity:0.094118}
    .fil51 {fill:white;fill-opacity:0.098039}
    .fil22 {fill:#292929;fill-opacity:0.098039}
    .fil67 {fill:#4C4C4C;fill-opacity:0.105882}
    .fil106 {fill:#403F3F;fill-opacity:0.105882}
    .fil46 {fill:#6C2E80;fill-opacity:0.105882}
    .fil149 {fill:#FFF5BA;fill-opacity:0.109804}
    .fil129 {fill:#FFFD94;fill-opacity:0.113725}
    .fil68 {fill:#4C4C4C;fill-opacity:0.121569}
    .fil47 {fill:#6C2E80;fill-opacity:0.121569}
    .fil107 {fill:#403F3F;fill-rule:nonzero;fill-opacity:0.121569}
    .fil23 {fill:#292929;fill-opacity:0.121569}
    .fil130 {fill:#FFFD94;fill-opacity:0.133333}
    .fil52 {fill:white;fill-opacity:0.145098}
    .fil24 {fill:#292929;fill-opacity:0.145098}
    .fil131 {fill:#FFFD94;fill-opacity:0.152941}
    .fil150 {fill:#FFF7C4;fill-opacity:0.164706}
    .fil25 {fill:#292929;fill-opacity:0.172549}
    .fil132 {fill:#FFFD94;fill-opacity:0.172549}
    .fil133 {fill:#FFFD94;fill-opacity:0.192157}
    .fil53 {fill:white;fill-opacity:0.196078}
    .fil26 {fill:#292929;fill-opacity:0.196078}
    .fil134 {fill:#FFFD94;fill-opacity:0.211765}
    .fil27 {fill:#292929;fill-opacity:0.219608}
    .fil151 {fill:#FFF7CF;fill-opacity:0.223529}
    .fil135 {fill:#FFFD94;fill-opacity:0.231373}
    .fil54 {fill:white;fill-opacity:0.243137}
    .fil136 {fill:#FFFD94;fill-opacity:0.247059}
    .fil137 {fill:#FFFD94;fill-opacity:0.266667}
    .fil152 {fill:#FFFAD9;fill-opacity:0.278431}
    .fil138 {fill:#FFFD94;fill-opacity:0.286275}
    .fil55 {fill:white;fill-opacity:0.294118}
    .fil139 {fill:#FFFD94;fill-opacity:0.305882}
    .fil33 {fill:black;fill-rule:nonzero;fill-opacity:0.321569}
    .fil32 {fill:#404040;fill-rule:nonzero;fill-opacity:0.321569}
    .fil140 {fill:#FFFD94;fill-opacity:0.325490}
    .fil153 {fill:#FFFAE3;fill-opacity:0.333333}
    .fil56 {fill:white;fill-opacity:0.341176}
    .fil141 {fill:#FFFD94;fill-opacity:0.345098}
    .fil142 {fill:#FFFD94;fill-opacity:0.364706}
    .fil143 {fill:#FFFD94;fill-opacity:0.384314}
    .fil154 {fill:#FFFCED;fill-opacity:0.388235}
    .fil57 {fill:white;fill-opacity:0.392157}
    .fil144 {fill:#FFFD94;fill-opacity:0.400000}
    .fil145 {fill:#FFFD94;fill-opacity:0.419608}
    .fil58 {fill:white;fill-opacity:0.439216}
    .fil16 {fill:#E9DFA3;fill-opacity:0.439216}
    .fil146 {fill:#FFFD94;fill-opacity:0.439216}
    .fil15 {fill:#E9DFA3;fill-rule:nonzero;fill-opacity:0.439216}
    .fil155 {fill:#FFFFF5;fill-opacity:0.443137}
    .fil97 {fill:#4C4C4C;fill-opacity:0.501961}
    .fil72 {fill:#999999;fill-opacity:0.501961}
    .fil156 {fill:white;fill-opacity:0.501961}
    .fil115 {fill:#4C4C4C;fill-opacity:0.501961}
    .fil80 {fill:#6A872B;fill-opacity:0.501961}
    .fil91 {fill:#6A872B;fill-opacity:0.690196}
    .fil87 {fill:#6A872B;fill-opacity:0.729412}
    .fil118 {fill:#575757;fill-opacity:0.780392}
    .fil34 {fill:#74AFE9;fill-opacity:0.780392}
    .fil92 {fill:#7A9A35;fill-opacity:0.780392}
    .fil96 {fill:#878787;fill-opacity:0.780392}
    .fil93 {fill:#FF99FF;fill-opacity:0.780392}
    .fil111 {fill:#9756AD;fill-rule:nonzero;fill-opacity:0.780392}
    .fil110 {fill:#FFF2A6;fill-rule:nonzero;fill-opacity:0.921569}
    .fil89 {fill:url(#id2)}
    .fil83 {fill:url(#id3)}
    .fil71 {fill:url(#id4)}
    .fil14 {fill:url(#id5)}
    .fil116 {fill:url(#id6)}
    .fil77 {fill:url(#id7)}
    .fil76 {fill:url(#id8)}
    .fil30 {fill:url(#id9)}
    .fil69 {fill:url(#id10)}
    .fil95 {fill:url(#id11);fill-rule:nonzero}
    .fil78 {fill:url(#id12);fill-rule:nonzero}
    .fil108 {fill:url(#id13);fill-opacity:0.678431}
    .fil73 {fill:url(#id14);fill-opacity:0.780392}
    .fil37 {fill:url(#id15);fill-rule:nonzero;fill-opacity:0.780392}
    .fil36 {fill:url(#id16);fill-rule:nonzero;fill-opacity:0.780392}
    .fil35 {fill:url(#id17);fill-rule:nonzero;fill-opacity:0.780392}
   ]]>
  </style>
    <mask id="id0">
  <linearGradient id="id1" gradientUnits="userSpaceOnUse" x1="53.018" y1="56.0853" x2="43.5431" y2="44.312">
   <stop offset="0" style="stop-opacity:1; stop-color:white"/>
   <stop offset="1" style="stop-opacity:0; stop-color:white"/>
  </linearGradient>
     <rect style="fill:url(#id1)" x="38.9698" y="40.6552" width="18.6215" height="19.0868"/>
    </mask>
  <linearGradient id="id2" gradientUnits="userSpaceOnUse" x1="42.558" y1="16.9089" x2="42.558" y2="18.9805">
   <stop offset="0" style="stop-color:#D67FF2"/>
   <stop offset="1" style="stop-color:#B575DD"/>
  </linearGradient>
  <linearGradient id="id3" gradientUnits="userSpaceOnUse" xlink:href="#id2" x1="41.3214" y1="12.1005" x2="41.3214" y2="13.8935">
  </linearGradient>
  <linearGradient id="id4" gradientUnits="userSpaceOnUse" x1="46.2821" y1="9.17019" x2="46.6707" y2="18.7998">
   <stop offset="0" style="stop-color:#83C3F9"/>
   <stop offset="0.639216" style="stop-color:#BEE4FE"/>
   <stop offset="1" style="stop-color:#BEE4FE"/>
  </linearGradient>
  <linearGradient id="id5" gradientUnits="userSpaceOnUse" x1="32.2846" y1="7.0619" x2="32.2846" y2="55.679">
   <stop offset="0" style="stop-color:#575757"/>
   <stop offset="1" style="stop-color:#454545"/>
  </linearGradient>
  <linearGradient id="id6" gradientUnits="userSpaceOnUse" x1="48.147" y1="37.3446" x2="48.0112" y2="40.8241">
   <stop offset="0" style="stop-color:#B2B2B2"/>
   <stop offset="1" style="stop-color:#666666"/>
  </linearGradient>
  <linearGradient id="id7" gradientUnits="userSpaceOnUse" x1="46.3671" y1="15.8152" x2="46.5856" y2="18.9475">
   <stop offset="0" style="stop-color:#B8DE60"/>
   <stop offset="1" style="stop-color:#AADB4F"/>
  </linearGradient>
  <linearGradient id="id8" gradientUnits="userSpaceOnUse" x1="46.5844" y1="18.3061" x2="46.3683" y2="16.0018">
   <stop offset="0" style="stop-color:#8CAB57"/>
   <stop offset="1" style="stop-color:#B2CF56"/>
  </linearGradient>
  <linearGradient id="id9" gradientUnits="userSpaceOnUse" x1="32.3307" y1="16.4671" x2="31.6917" y2="46.6021">
   <stop offset="0" style="stop-color:whitesmoke"/>
   <stop offset="1" style="stop-color:#EBEBEB"/>
  </linearGradient>
  <linearGradient id="id10" gradientUnits="userSpaceOnUse" x1="51.192" y1="51.6219" x2="47.0274" y2="47.7703">
   <stop offset="0" style="stop-color:#B3B3B3"/>
   <stop offset="0.478431" style="stop-color:#D6D6D6"/>
   <stop offset="1" style="stop-color:#F0F0F0"/>
  </linearGradient>
  <linearGradient id="id11" gradientUnits="userSpaceOnUse" x1="46.4769" y1="7.98199" x2="46.4769" y2="19.8522">
   <stop offset="0" style="stop-color:#BEBEBE"/>
   <stop offset="1" style="stop-color:#B7B7B7"/>
  </linearGradient>
  <linearGradient id="id12" gradientUnits="userSpaceOnUse" x1="41.9273" y1="16.7931" x2="42.343" y2="13.0431">
   <stop offset="0" style="stop-color:#92B640"/>
   <stop offset="1" style="stop-color:#A7CF49"/>
  </linearGradient>
  <linearGradient id="id13" gradientUnits="userSpaceOnUse" xlink:href="#id2" x1="29.6071" y1="33.1941" x2="29.437" y2="45.6643">
  </linearGradient>
  <linearGradient id="id14" gradientUnits="userSpaceOnUse" x1="44.2517" y1="13.147" x2="44.3131" y2="14.8903">
   <stop offset="0" style="stop-color:#9AA6BC"/>
   <stop offset="1" style="stop-color:#9AA56B"/>
  </linearGradient>
  <linearGradient id="id15" gradientUnits="userSpaceOnUse" xlink:href="#id11" x1="19.0632" y1="-148.034" x2="24.3097" y2="341.203">
  </linearGradient>
  <linearGradient id="id16" gradientUnits="userSpaceOnUse" xlink:href="#id11" x1="19.0632" y1="-165.31" x2="24.3097" y2="323.927">
  </linearGradient>
  <linearGradient id="id17" gradientUnits="userSpaceOnUse" xlink:href="#id11" x1="16.0325" y1="-61.9378" x2="19.3042" y2="126.566">
  </linearGradient>
 </defs>
 <g id="Слой_x0020_1">
  <metadata id="CorelCorpID_0Corel-Layer"/>
  <g id="_85821728">
   <path id="_78851016" class="fil0" d="M30.7586 54.0101c21.39,-0.959067 28.5689,1.65829 30.8035,4.69494l0 4.17407c-3.44296,1.90278 -16.003,0.395674 -29.7618,0.967335 -2.15672,0.0897649 -4.26619,0.177168 -6.30835,0.255121l-19.0904 0c-1.8827,-0.204333 -3.24807,-0.52914 -3.96383,-1.01458l0 -3.1772c1.55671,-2.42956 7.30521,-4.95715 28.3208,-5.89968z"/>
   <g>
    <path id="_79674000" class="fil1" d="M30.8224 54.4908c21.664,-0.935445 28.7744,1.89451 30.7397,4.96187l0 3.25398c-2.98468,2.00436 -15.7738,0.519691 -29.7334,1.06301 -3.15713,0.122836 -6.22212,0.240948 -9.10995,0.331894l-14.8478 0c-2.80397,-0.196065 -4.72565,-0.582291 -5.43314,-1.24844l0 -2.14018c1.14686,-2.48625 6.35795,-5.27014 28.3846,-6.22212z"/>
    <path id="_80132776" class="fil2" d="M30.8862 54.9715c22.0042,-0.913003 29.0838,2.16735 30.676,5.24416l0 2.28546c-2.36932,2.14373 -15.4655,0.67678 -29.7098,1.19057 -4.741,0.171262 -9.28712,0.334256 -13.3301,0.409848l-7.93474 0c-4.71148,-0.134647 -7.77765,-0.589377 -8.14971,-1.62285l0 -0.70867c0.415753,-2.5394 4.52604,-5.80637 28.4484,-6.79851z"/>
    <path id="_85739016" class="fil3" d="M30.9488 55.4523c22.6692,-0.895287 29.6921,2.5583 30.6134,5.63629l0 1.10671c-1.32758,2.42011 -14.9305,0.928358 -29.685,1.42088 -15.5848,0.51851 -29.2114,0.938988 -29.2114,-1.32167 0,-2.43783 3.97328,-5.88196 28.283,-6.84221z"/>
    <path id="_85737912" class="fil4" d="M31.0126 55.9318c23.1286,-0.863396 30.3004,2.91972 30.3842,5.9044 0.0838593,2.752 -14.1285,1.23545 -29.4949,1.70081 -15.3675,0.467722 -28.9716,0.838593 -28.9716,-1.20828 0,-2.28546 4.95242,-5.53235 28.0822,-6.39693z"/>
    <path id="_85740584" class="fil5" d="M31.074 56.4137c21.9487,-0.766545 29.9744,2.75791 30.05,5.51227 0.0744104,2.46263 -14.0494,1.12206 -29.1972,1.53663 -15.149,0.414572 -28.7318,0.737017 -28.7318,-1.09844 0,-2.13192 5.93157,-5.18038 27.8791,-5.95047z"/>
    <path id="_84061624" class="fil6" d="M31.1378 56.8968c20.7664,-0.672056 29.6472,2.59491 29.7122,5.11896 0.0661425,2.17207 -13.9679,1.00749 -28.8996,1.37128 -14.9305,0.363784 -28.4909,0.636622 -28.4909,-0.987414 0,-1.97955 6.91071,-4.83077 27.6783,-5.50282z"/>
    <path id="_124937288" class="fil7" d="M31.2004 57.3751c19.5865,-0.575204 29.3189,2.43192 29.3756,4.72565 0.0566936,1.88388 -13.8876,0.896468 -28.5996,1.2071 -14.7132,0.311815 -28.2511,0.535046 -28.2511,-0.875208 0,-1.82719 7.88868,-4.48116 27.4751,-5.05754z"/>
    <path id="_86189016" class="fil8" d="M31.2642 57.8582c18.4042,-0.480715 28.9917,2.26893 29.0389,4.33234 0.0460636,1.59451 -13.8084,0.783081 -28.3031,1.04293 -14.4935,0.259846 -28.0102,0.43347 -28.0102,-0.765364 0,-1.67482 8.86783,-4.13037 27.2744,-4.6099z"/>
    <path id="_126822480" class="fil9" d="M31.3256 58.3389c17.2242,-0.382682 28.6657,2.10829 28.7035,3.94139 0.0366146,1.30395 -13.7269,0.669693 -28.0043,0.87757 -14.2762,0.207877 -27.7704,0.333075 -27.7704,-0.654339 0,-1.52128 9.84815,-3.77957 27.0712,-4.16462z"/>
    <path id="_83175296" class="fil10" d="M31.3894 58.8196c16.0431,-0.288193 28.3385,1.9453 28.3669,3.54689 0.0271657,1.01694 -13.6478,0.557487 -27.7066,0.713395 -14.0577,0.155907 -27.5307,0.231499 -27.5307,-0.543314 0,-1.36773 10.8261,-3.42878 26.8704,-3.71697z"/>
    <path id="_80256392" class="fil11" d="M31.452 59.3003c14.862,-0.191341 28.0114,1.78467 28.0291,3.15476 0.0188979,0.726387 -13.5651,0.4441 -27.4066,0.549219 -13.8403,0.102757 -27.2885,0.129923 -27.2885,-0.432289 0,-1.21537 11.8041,-3.07917 26.6661,-3.27169z"/>
    <path id="_80885416" class="fil12" d="M31.5157 59.7811c13.6809,-0.0968516 27.6842,1.62167 27.6925,2.76145 0.00944894,0.437013 -13.486,0.331894 -27.1102,0.382682 -13.6206,0.0519691 -27.0476,0.0295279 -27.0476,-0.320083 0,-1.06182 12.7832,-2.72838 26.4653,-2.82405z"/>
   </g>
   <path id="_84223720" class="fil13" d="M31.576 60.2641c12.5009,0 27.357,1.45986 27.357,2.36932 0,0.29646 -53.6203,0.284649 -53.6203,0.00826782 0,-0.90946 13.7636,-2.37759 26.2633,-2.37759z"/>
  </g>
  <path class="fil14" d="M4.85557 3.91186c0,-0.680323 0.26457,-1.30513 0.701583,-1.79057 0.558668,-0.692135 1.40671,-1.13505 2.3516,-1.13505l48.5238 0.0129923c1.676,0 3.13705,1.36773 3.12051,3.04846 -0.0236223,2.33979 0.140553,5.10833 0.142915,7.39143l0.030709 47.2151c0.00118112,1.67955 -1.34411,3.10161 -2.9835,3.10161 -19.6502,0 -15.4041,-0.0118112 -48.9195,-0.0118112 -1.63821,0 -2.98232,-1.39608 -2.9835,-3.10279 0.00590558,-16.1187 0.0318902,-38.6119 0.0153545,-54.7294z"/>
  <path class="fil15" d="M59.1716 4.29808l0.00118112 0.0543314 0.00118112 0.0968516 -0.0366146 0.0271657 -0.0460636 0.0330713 0.00118112 0.0897649 -0.00236223 0.00236223 0.00118112 0.0519691 0.00118112 0.0980327 -0.0366146 0.0271657 -0.0519691 0.0377957c0,-0.770088 -0.503156,-1.54136 -0.911822,-2.04924 -0.266932,-0.331894 -0.601189,-0.582291 -0.975603,-0.714576l0.0472447 -0.134647 -0.0472447 -0.0177168 0.105119 -0.294098 -0.0224412 -0.00826782c0.0614181,-0.159451 0.115749,-0.320083 0.155907,-0.447643 0.419296,0.159451 0.793711,0.445281 1.0949,0.823238 0.462998,0.575204 0.706308,1.36183 0.722844,2.22641l0.00118112 0.0968516 -0.00236223 0.00118112z"/>
  <path class="fil16" d="M5.57133 2.27601l0.00118112 -0.00236223m-0.050788 -0.150002l0.00118112 -0.00236223m0.0389769 0.344886l0.00236223 -0.00236223m0.0472447 0.154726l0.00236223 -0.00236223m1.88742 -0.9945l-0.0295279 0.00590558 0.070867 0.336618c-0.206695,0.0448824 -0.40158,0.113387 -0.588196,0.20079 -0.376776,0.178349 -0.707489,0.440557 -0.969697,0.759458l-0.00944894 0.00944894c-0.203152,0.220869 -0.366146,0.47599 -0.474809,0.752371 -0.105119,0.261027 -0.161813,0.548038 -0.161813,0.84568l-0.484258 0c0,-0.0543314 0.00472447,-0.105119 0.0118112,-0.152364l-0.0614181 0c0,-0.0696859 0.0070867,-0.132285 0.0188979,-0.19016l-0.00944894 0c0,-0.0543314 0.00590558,-0.105119 0.0129923,-0.152364l-0.0625992 0c0,-0.356697 0.184254,-0.540952 0.311815,-0.859853 0.131104,-0.32835 0.207877,-0.792529 0.446462,-1.05592 0.305909,-0.373233 0.695678,-0.679142 1.13742,-0.885838 0.218507,-0.105119 0.450006,-0.185435 0.690953,-0.239767l0.0330713 0.155907 0.0165356 -0.00354335 0.100395 0.473628z"/>
  <path class="fil17" d="M4.01816 3.43941c0,-0.394493 0.0767726,-0.779537 0.214963,-1.13269 0.139372,-0.353154 0.342524,-0.683867 0.598826,-0.970878 0.329532,-0.409848 0.750009,-0.744104 1.22482,-0.974421 0.461817,-0.22205 0.977965,-0.348429 1.51537,-0.348429l0 0.00236223 48.8604 0.0129923 0 -0.00236223 0.030709 0 0.00354335 0.00236223c0.957886,0.00944894 1.85553,0.403942 2.50751,1.03466 0.660244,0.635441 1.07954,1.51537 1.07954,2.48389l0 0.0283468 -0.00236223 0.00354335c-0.170081,18.1821 -0.040158,36.6831 -0.0283468,54.8723l0.00236223 0 0 0.00236223c0,0.969697 -0.39095,1.86853 -1.01576,2.52168 -0.631898,0.661425 -1.50711,1.07836 -2.46617,1.07836l-0.00236223 0 0 -0.00236223 -16.9089 -0.00472447 -32.1453 -0.00472447c-0.959067,0 -1.83309,-0.409848 -2.46499,-1.06655 -0.627173,-0.650795 -1.0193,-1.55199 -1.0193,-2.53704l0.00236223 0c0.00944894,-18.2424 0.0318902,-36.7564 0.0153545,-54.9987l-0.00236223 0zm1.14568 -0.768907c-0.0921271,0.237404 -0.144096,0.498431 -0.144096,0.768907l-0.00236223 0c0.0165356,18.2424 -0.00590558,36.7564 -0.0153545,54.9987l0.00236223 0c0,0.7193 0.283468,1.37482 0.735836,1.8449 0.447643,0.46536 1.06773,0.757096 1.74687,0.757096 15.1927,0 24.2034,0.00590558 32.1453,0.00944894l16.9089 0.00472447 0 -0.00236223 0.00236223 0c0.67678,0 1.29569,-0.29646 1.74333,-0.764183 0.452368,-0.473628 0.737017,-1.12797 0.737017,-1.83427l0 -0.00236223 0.00236223 0c-0.0118112,-18.188 -0.155907,-36.6938 0.0283468,-54.8759l-0.00236223 0 0 -0.0283468c0,-0.686229 -0.298823,-1.31222 -0.770088,-1.76577 -0.47599,-0.459454 -1.12679,-0.748828 -1.81892,-0.755915l0 0.00236223 -0.030709 0 0 -0.00236223 -48.8604 -0.0129923 0 0.00236223c-0.387406,0 -0.757096,0.0885838 -1.08072,0.244491 -0.340162,0.165356 -0.643709,0.407485 -0.882294,0.702765l-0.0188979 0.0212601c-0.180711,0.199609 -0.327169,0.435832 -0.426383,0.68741z"/>
  <g id="_81031512">
   <path id="_84704552" class="fil18" d="M5.37054 10.3206l0.120474 49.1475c0.100395,1.59805 1.69254,2.76499 2.83232,2.76027l48.988 -0.20079c1.64648,-0.0578747 2.39649,-1.4575 2.45318,-3.29295l-0.120474 -48.2935c0,-1.93113 -0.90946,-4.38076 -2.54767,-4.38194l-49.0612 -0.0637803c-1.52837,-0.00236223 -2.66578,2.40594 -2.6646,4.32525z"/>
   <g>
    <path id="_125909304" class="fil19" d="M5.5229 10.1789c0.0472447,16.349 0.0956705,32.6957 0.142915,49.0435 0.0992138,1.59923 1.69254,2.76499 2.83232,2.76145 16.2285,-0.0755915 32.4535,-0.152364 48.6821,-0.226774 1.64766,-0.0590558 2.39767,-1.45868 2.45436,-3.29295 -0.0484258,-16.0986 -0.0944894,-32.1949 -0.141734,-48.2923 0,-1.93231 -0.844499,-4.20005 -2.48271,-4.20241 -16.3219,-0.00826782 -32.6425,-0.0165356 -48.9632,-0.0248035 -1.52955,-0.00118112 -2.52523,2.31499 -2.52405,4.2343z"/>
    <path id="_84340032" class="fil20" d="M5.67409 10.036c0.0555125,16.3136 0.109844,32.626 0.164175,48.9408 0.100395,1.59805 1.69254,2.76499 2.8335,2.76027 16.1258,-0.0850404 32.2516,-0.1689 48.3774,-0.252759 1.64766,-0.0590558 2.39767,-1.45868 2.45436,-3.29295 -0.0543314,-16.0974 -0.109844,-32.1937 -0.164175,-48.2923 0,-1.93113 -0.778356,-4.01934 -2.41657,-4.0217 -16.2888,0.00472447 -32.5776,0.00944894 -48.8663,0.0141734 -1.52837,0 -2.38231,2.22522 -2.38231,4.14454z"/>
    <path id="_44684120" class="fil21" d="M5.82645 9.8954c0.0625992,16.2793 0.124017,32.5575 0.186616,48.8356 0.0992138,1.59923 1.69254,2.76499 2.83232,2.76145 16.0254,-0.0933082 32.0496,-0.185435 48.075,-0.278744 1.64648,-0.0578747 2.39767,-1.4575 2.45318,-3.29295 -0.0614181,-16.0974 -0.122836,-32.1949 -0.185435,-48.2923 0,-1.93113 -0.713395,-3.83863 -2.3516,-3.84099 -16.2569,0.0177168 -32.5126,0.0354335 -48.7683,0.0519691 -1.52837,0.00236223 -2.24176,2.13546 -2.24176,4.05596z"/>
    <path id="_123434296" class="fil22" d="M5.97881 9.75366c0.0696859,16.2451 0.139372,32.489 0.207877,48.7329 0.0992138,1.59923 1.69254,2.76499 2.83232,2.76145 15.9238,-0.101576 31.8465,-0.203152 47.7703,-0.304728 1.64766,-0.0578747 2.39767,-1.4575 2.45436,-3.29177 -0.0696859,-16.0986 -0.138191,-32.1949 -0.206695,-48.2923 0,-1.93113 -0.649614,-3.6591 -2.28782,-3.66146 -16.2238,0.030709 -32.4465,0.0614181 -48.6703,0.0921271 -1.52718,0.00236223 -2.10121,2.04451 -2.10003,3.96383z"/>
    <path id="_122295784" class="fil23" d="M6.13118 9.61075c0.0767726,16.2108 0.152364,32.4193 0.229137,48.6301 0.100395,1.59805 1.69254,2.76499 2.83232,2.76027 15.8222,-0.109844 31.6445,-0.220869 47.4667,-0.330713 1.64648,-0.0578747 2.39767,-1.4575 2.45436,-3.29177 -0.0767726,-16.0974 -0.153545,-32.1949 -0.229137,-48.2923 0,-1.93113 -0.583472,-3.47839 -2.22168,-3.47957 -16.1919,0.0425202 -32.3815,0.0862215 -48.5734,0.129923 -1.52718,0.00354335 -1.95947,1.95357 -1.95829,3.87406z"/>
    <path id="_87055792" class="fil24" d="M6.28236 9.4702c0.0838593,16.1754 0.167719,32.3496 0.251578,48.5262 0.100395,1.59805 1.69254,2.76499 2.83232,2.76027 15.7218,-0.119293 31.4413,-0.238586 47.1632,-0.356697 1.64648,-0.0578747 2.39649,-1.4575 2.45318,-3.29177 -0.0826782,-16.0974 -0.166537,-32.1937 -0.249216,-48.2923 0,-1.93113 -0.519691,-3.2965 -2.1579,-3.29886 -16.1589,0.0566936 -32.3165,0.112206 -48.4742,0.1689 -1.52837,0.00472447 -1.81892,1.8638 -1.81892,3.7843z"/>
    <path id="_87058840" class="fil25" d="M6.43472 9.32846c0.090946,16.1411 0.183073,32.2823 0.272838,48.4222 0.100395,1.59923 1.69372,2.76499 2.8335,2.76145 15.6203,-0.127561 31.2382,-0.255121 46.8585,-0.382682 1.64648,-0.0566936 2.39767,-1.4575 2.45436,-3.29177 -0.090946,-16.0974 -0.181892,-32.1949 -0.272838,-48.2923 0,-1.93113 -0.453549,-3.11579 -2.09176,-3.11815 -16.1258,0.0696859 -32.2516,0.138191 -48.3774,0.206695 -1.52718,0.0070867 -1.67719,1.77404 -1.67719,3.69453z"/>
    <path id="_83009336" class="fil26" d="M6.58709 9.18555c0.0980327,16.1057 0.196065,32.2126 0.294098,48.3195 0.100395,1.59805 1.69254,2.76499 2.83232,2.76027 15.5187,-0.135828 31.0362,-0.271657 46.5549,-0.408666 1.64766,-0.0566936 2.39767,-1.4575 2.45436,-3.29177 -0.0980327,-16.0974 -0.196065,-32.1937 -0.294098,-48.2911 0,-1.93113 -0.388587,-2.93626 -2.0268,-2.93862 -16.0927,0.0826782 -32.1854,0.164175 -48.2793,0.246853 -1.52718,0.0070867 -1.53663,1.68427 -1.53545,3.60359z"/>
   </g>
   <path id="_81031536" class="fil27" d="M6.73827 9.04381l0.316539 48.2179c0.0992138,1.59687 1.69254,2.76381 2.83232,2.76027l46.2514 -0.43347c1.64648,-0.0590558 2.39767,-1.45868 2.45318,-3.29295l-0.314177 -48.2923c0,-1.93113 -0.323626,-2.75555 -1.96184,-2.75791l-48.1837 0.28583c-1.52718,0.00826782 -1.3949,1.59333 -1.39372,3.51264z"/>
  </g>
  <path class="fil28" d="M7.34182 0.998044c0.28583,-0.0531503 0.473628,-0.0791348 0.707489,-0.0791348l48.5793 0c0.214963,0 0.424021,0.0224412 0.627173,0.0614181 0.109844,0.0224412 0.218507,0.0496069 0.324807,0.0814971l-0.0366146 0.090946 0.0366146 0.0106301 -0.115749 0.281106 0.0755915 0.0212601 -0.0354335 0.090946 0.0354335 0.0106301c-0.0484258,0.127561 -0.115749,0.287011 -0.192522,0.447643 -0.140553,-0.0389769 -0.283468,-0.0685048 -0.432289,-0.0862215 -0.105119,-0.0141734 -0.166537,-0.020079 -0.277562,-0.020079l-48.5793 0c-0.229137,0 -0.500794,0.0283468 -0.714576,0.0803159l0.0578747 -0.0141734 -0.020079 -0.0956705 -0.0377957 0.00826782 0.0377957 -0.00944894 -0.0791348 -0.375595 0.020079 -0.00354335 -0.020079 -0.0980327 0.0992138 -0.020079 -0.060237 -0.281106 0.020079 -0.00472447 -0.020079 -0.0968516z"/>
  <path class="fil29" d="M7.23316 6.16543l0.0897649 51.2782c0.0354335,0.481896 0.322445,0.938988 0.70867,1.28269 0.429927,0.385044 1.37954,0.628354 1.84845,0.627173l44.4525 -0.262208c0.62363,-0.0177168 1.56616,-0.227956 1.86853,-0.562212 0.351973,-0.389769 0.530321,-0.961429 0.556306,-1.62404l0.00236223 -50.8683 -0.00236223 0.804341c0,-0.640165 -0.172443,-1.93113 -0.498431,-2.2453 -0.331894,-0.320083 -1.32994,-0.490164 -2.00081,-0.490164l-44.4903 0.175986c-0.650795,0 -1.21064,0.177168 -1.58978,0.519691l-0.402761 0.00118112c-0.337799,0.304728 -0.540952,1.5697 -0.540952,2.16853l-0.00118112 -0.805522zm-0.788986 51.3101l-0.090946 -51.3101 -0.00236223 0.805522c0,-0.86694 0.278744,-2.68822 0.801978,-3.16067l0.00236223 0.00118112c0.543314,-0.491345 1.71144,-0.746466 2.57838,-0.746466l44.5588 -0.141734c0.907098,0.00118112 2.10947,0.25394 2.61027,0.735836 0.504337,0.485439 0.737017,1.48939 0.737017,2.37759l-0.00118112 0.804341 -0.00354335 50.0805 0 0.0153545c-0.0318902,0.864578 -0.283468,1.63112 -0.780718,2.18034 -0.46536,0.511424 -1.61341,0.827963 -2.49688,0.852766l-0.0118112 0 -44.4655 0.262208c-0.679142,0.00236223 -1.84845,-0.32835 -2.43428,-0.851585 -0.543314,-0.485439 -0.947256,-1.14568 -1.00159,-1.87325l0 -0.0318902z"/>
  <path class="fil30" d="M7.02765 6.51386l0.157089 50.0829c0.0968516,1.26852 2.20042,2.32208 3.30122,2.31853l43.6576 -0.127561c1.5886,-0.0448824 2.79452,-1.15513 2.85122,-2.60672l-0.0649614 -49.6612c0,-1.52955 -1.36301,-2.36696 -2.94216,-2.36814l-43.986 0.0389769c-1.46813,0.00118112 -2.97523,0.803159 -2.97405,2.32326z"/>
  <path class="fil31" d="M7.02765 6.51386l0.0897649 49.9483c0.0224412,0.301185 0.160632,0.589377 0.368508,0.855129l0.679142 -0.760639c-0.0295279,-0.0590558 -0.0484258,-0.115749 -0.0519691,-0.1689l-0.0897649 -49.8738 0.00354335 0c0,-0.366146 0.173624,-0.656701 0.435832,-0.862215 0.392131,-0.305909 0.964973,-0.46536 1.539,-0.46536l43.986 -0.0389769c0.601189,0 1.14805,0.155907 1.51183,0.448824 0.26457,0.212601 0.431108,0.524416 0.431108,0.923633l0.00354335 0 -0.00354335 49.49c-0.0118112,0.334256 -0.125198,0.641346 -0.311815,0.894105 0.26457,0.193703 0.525597,0.403942 0.773632,0.627173 0.320083,-0.415753 0.512605,-0.925996 0.533865,-1.48585l0.00354335 -49.5254c0,-1.52955 -1.36301,-2.36696 -2.94216,-2.36814l-43.986 0.0389769c-1.46813,0.00118112 -2.97523,0.803159 -2.97405,2.32326z"/>
  <polygon class="fil32" points="33.8189,58.6885 31.165,58.6885 26.8031,58.6885 25.179,62.0677 23.353,62.0677 26.0873,57.759 26.098,57.5346 26.4511,57.5346 31.165,57.5346 33.8189,57.5346 37.9564,57.5346 38.3095,57.5346 38.9473,57.759 41.5517,62.0736 39.5745,62.0724 38.0757,58.6885 "/>
  <path class="fil33" d="M26.1641 59.8377l-0.985051 2.22995 -1.82601 0 1.32285 -2.22641 1.48821 -0.00354335zm14.1014 -0.040158l1.28624 2.27601 -1.97719 -0.00118112 -0.924815 -2.27011 1.61577 -0.00472447z"/>
  <g id="_84807544">
   <polygon id="_79734328" class="fil34" points="10.9808,7.84144 28.9515,7.84144 28.9515,8.88436 10.9808,8.88436 "/>
   <path id="_80812464" class="fil34" d="M24.6724 20.9967l6.55992 0 0 1.10907 -6.55992 0 0 -1.10907zm-13.7045 0l12.0639 0 0 1.10907 -12.0639 0 0 -1.10907z"/>
  </g>
  <g id="_126564384">
   <path id="_123105560" class="fil35" d="M11.0387 13.0714l4.64297 0 0 1.00159 -4.64297 0 0 -1.00159zm6.38512 0l19.7424 0 0 1.00159 -19.7424 0 0 -1.00159zm-6.38512 1.95829l9.95091 0 0 1.00159 -9.95091 0 0 -1.00159zm11.6931 0l14.4344 0 0 1.00159 -1.95357 0 0 -0.724025 -1.74333 0 0 0.724025 -10.7375 0 0 -1.00159zm-11.6931 -4.00871l11.6919 0 0 1.00159 -11.6919 0 0 -1.00159zm13.434 0l5.42959 0 0 1.00159 -5.42959 0 0 -1.00159zm7.13276 0l5.5607 0 0 1.00159 -5.5607 0 0 -1.00159z"/>
   <path id="_123250432" class="fil36" d="M11.0387 25.981l18.7561 0 0 1.00159 -5.29849 0 0 -0.0259846 -1.74215 0 0 0.0259846 -11.7155 0 0 -1.00159zm20.4995 0l9.05917 0 0 1.00159 -9.05917 0 0 -1.00159zm10.8013 0l10.6702 0 0 1.00159 -10.6702 0 0 -1.00159zm-31.3008 8.01978l26.8385 0 0 1.00159 -26.8385 0 0 -1.00159zm28.5807 0l13.3903 0 0 1.00159 -13.3903 0 0 -1.00159zm-28.5807 -2.05042l9.71469 0 0 1.00159 -9.71469 0 0 -1.00159zm11.4568 0l7.37962 0 0 0.93072 1.74333 0 0 -0.93072 12.5801 0 0 1.00159 -21.703 0 0 -1.00159zm23.4452 0l7.06898 0 0 1.00159 -7.06898 0 0 -1.00159zm-34.902 -1.96065l8.03396 0 0 1.00159 -8.03396 0 0 -1.00159zm9.77729 0l15.4608 0 0 1.00159 -15.4608 0 0 -1.00159zm17.203 0l14.9907 0 0 1.00159 -14.9907 0 0 -1.00159zm-26.9803 -2.05042l11.7155 0 0 1.00159 -11.7155 0 0 -1.00159zm13.4576 0l18.0227 0 0 1.00159 -4.50006 0 0 -0.00944894 -1.74215 0 0 0.00944894 -11.7805 0 0 -1.00159zm19.7636 0l8.74971 0 0 1.00159 -8.74971 0 0 -1.00159zm-33.2213 -4.00871l3.63312 0 0 1.00159 -3.63312 0 0 -1.00159zm5.37644 0l9.77965 0 0 1.00159 -9.77965 0 0 -1.00159zm11.5218 0l16.1813 0 0 1.00159 -16.1813 0 0 -1.00159zm17.9246 0l7.14812 0 0 1.00159 -7.14812 0 0 -1.00159z"/>
   <path id="_84447448" class="fil37" d="M11.0387 43.2572l41.971 0 0 1.00159 -41.971 0 0 -1.00159zm0 8.01978l22.3574 0 0 1.00159 -22.3574 0 0 -1.00159zm24.0995 0l17.8715 0 0 1.00159 -17.8715 0 0 -1.00159zm-24.0995 1.95829l6.35441 0 0 1.00159 -6.35441 0 0 -1.00159zm8.09656 0l33.8744 0 0 1.00159 -33.8744 0 0 -1.00159zm-8.09656 -4.00871l15.2364 0 0 1.00159 -15.2364 0 0 -1.00159zm16.9786 0l24.9924 0 0 1.00159 -24.9924 0 0 -1.00159zm-16.9786 -4.01107l41.971 0 0 1.00159 -41.971 0 0 -1.00159zm0 -4.00871l41.971 0 0 1.00159 -41.971 0 0 -1.00159z"/>
  </g>
  <g id="_83770232">
   <path id="_85479256" class="fil38" d="M54.4483 40.9529l0 5.06227c0,1.08899 -0.822057,1.98073 -1.82601,1.98073l-40.81 0c-1.00395,0 -1.82601,-0.890562 -1.82601,-1.98073l0 -5.06227 0.383863 0 0 2.93508c0,1.09017 0.822057,1.98073 1.82601,1.98073l39.7611 0c1.00513,0 1.82483,-0.890562 1.82483,-1.98073l0 -2.93508 0.66615 0zm-40.6422 0c0.0118112,0.144096 0.0484258,0.279925 0.101576,0.403942 0.00472447,-0.141734 0.0330713,-0.277562 0.0803159,-0.403942l-0.181892 0z"/>
   <path id="_79824008" class="fil39" d="M54.3869 40.9529l0 4.97486c0,1.08899 -0.823238,1.98073 -1.82601,1.98073 -13.5651,0 -27.1303,0 -40.6942,0 -1.00395,0 -1.82601,-0.890562 -1.82601,-1.98073l0 -4.97486 0.329532 0 0 2.93508c0,1.09017 0.822057,1.98073 1.82601,1.98073l39.7611 0c1.00513,0 1.82483,-0.890562 1.82483,-1.98073l0 -2.93508 0.604732 0zm-40.5808 0c0.0118112,0.144096 0.0472447,0.278744 0.100395,0.402761l0 -0.0389769c0,-0.12638 0.0177168,-0.248035 0.0519691,-0.363784l-0.152364 0z"/>
   <path id="_80516408" class="fil40" d="M54.3231 40.9529l0 4.88746c0,1.08899 -0.820876,1.98073 -1.82483,1.98073 -13.5262,0 -27.0511,0 -40.5773,0 -1.00395,0 -1.82601,-0.890562 -1.82601,-1.98073l0 -4.88746 0.2752 0 0 2.93508c0,1.09017 0.822057,1.98073 1.82601,1.98073l39.7611 0c1.00513,0 1.82483,-0.890562 1.82483,-1.98073l0 -2.93508 0.540952 0zm-40.517 0c0.0118112,0.144096 0.0472447,0.278744 0.100395,0.402761l0 -0.127561c0,-0.0944894 0.0106301,-0.185435 0.0295279,-0.2752l-0.129923 0z"/>
   <path id="_46740584" class="fil41" d="M54.2617 40.9529l0 4.80006c0,1.08899 -0.822057,1.98191 -1.82601,1.98191 -13.4872,0 -26.9732,0 -40.4615,0 -1.00277,0 -1.82483,-0.891743 -1.82483,-1.98191l0 -4.80006 0.220869 0 0 2.93508c0,1.09017 0.822057,1.98073 1.82601,1.98073l39.7611 0c1.00513,0 1.82483,-0.890562 1.82483,-1.98073l0 -2.93508 0.479533 0zm-40.4556 0c0.0118112,0.144096 0.0472447,0.278744 0.100395,0.402761l0 -0.213782c0,-0.0637803 0.00472447,-0.127561 0.0141734,-0.188979l-0.114568 0z"/>
   <path id="_79488472" class="fil42" d="M54.1991 40.9529l0 4.71266c0,1.09017 -0.822057,1.98073 -1.82601,1.98073 -13.447,0 -26.8952,0 -40.3422,0 -1.00513,0 -1.82719,-0.890562 -1.82719,-1.98073l0 -4.71266 0.166537 0 0 2.93508c0,1.09017 0.822057,1.98073 1.82601,1.98073l39.7611 0c1.00513,0 1.82483,-0.890562 1.82483,-1.98073l0 -2.93508 0.416934 0zm-40.393 0c0.0118112,0.144096 0.0472447,0.278744 0.100395,0.402761l0 -0.301185 0.00472447 -0.101576 -0.105119 0z"/>
   <path id="_85842184" class="fil43" d="M54.1377 40.9529l0 4.62525c0,1.09017 -0.822057,1.98191 -1.82601,1.98191 -13.4104,0 -26.8173,0 -40.2277,0 -1.00395,0 -1.82601,-0.891743 -1.82601,-1.98191l0 -4.62525 0.112206 0 0 2.93508c0,1.09017 0.822057,1.98073 1.82601,1.98073l39.7611 0c1.00513,0 1.82483,-0.890562 1.82483,-1.98073l0 -2.93508 0.355516 0zm-40.3316 0c0.0118112,0.144096 0.0472447,0.278744 0.100395,0.402761l0 -0.388587 0 -0.0141734 -0.100395 0z"/>
   <path id="_46344224" class="fil44" d="M54.0739 40.9529l0 4.53785c0,1.09017 -0.820876,1.98191 -1.82483,1.98191 -13.3702,0 -26.7393,0 -40.1107,0 -1.00395,0 -1.82601,-0.891743 -1.82601,-1.98191l0 -4.53785 0.0578747 0 0 2.93508c0,1.09017 0.822057,1.98073 1.82601,1.98073l39.7611 0c1.00513,0 1.82483,-0.890562 1.82483,-1.98073l0 -2.93508 0.291736 0zm-40.2678 0c0.0118112,0.144096 0.0472447,0.278744 0.100395,0.402761l0 -0.402761 -0.100395 0z"/>
   <path id="_79331536" class="fil45" d="M54.0125 40.9529l0 5.07998c0,1.16812 -0.820876,2.12365 -1.82601,2.12365 -13.3313,0 -26.6614,0 -39.9926,0 -1.00395,0 -1.82719,-0.955524 -1.82719,-2.12365l0 -5.07998 0.00354335 0 0 3.45477c0,1.16812 0.822057,2.12365 1.82601,2.12365l39.7611 0c1.00513,0 1.82483,-0.955524 1.82483,-2.12365l0 -3.45477 0.230318 0zm-40.2111 0l0 0.187798c0,0.197247 0.0389769,0.385044 0.105119,0.552763l0 -0.603551c0,-0.0460636 0.00118112,-0.090946 0.00590558,-0.13701l-0.111025 0z"/>
   <path id="_46747192" class="fil46" d="M53.9499 40.9529l0 4.36305c0,1.09135 -0.822057,1.98191 -1.82601,1.98191 -13.2923,0 -26.5834,0 -39.8769,0 -1.00395,0 -1.82483,-0.890562 -1.82483,-1.98191l0 -0.963791c0.193703,0.868121 0.916547,1.51655 1.77404,1.51655l39.7611 0c1.00513,0 1.82483,-0.890562 1.82483,-1.98073l0 -2.93508 0.167719 0zm-40.1438 0c0.0118112,0.144096 0.0472447,0.278744 0.100395,0.402761l0 -0.402761 -0.100395 0z"/>
   <path id="_86009968" class="fil47" d="M53.8873 40.9529l0 4.27682c0,1.09017 -0.819695,1.98191 -1.82364,1.98191l-39.7623 0c-1.00395,0 -1.82601,-0.891743 -1.82601,-1.98191l0 -0.681504c0.252759,0.767726 0.929539,1.32049 1.72089,1.32049l39.7611 0c1.00513,0 1.82483,-0.890562 1.82483,-1.98073l0 -2.93508 0.105119 0zm-40.0812 0c0.0106301,0.142915 0.0472447,0.277562 0.100395,0.40158l0 -0.40158 -0.100395 0z"/>
  </g>
  <g id="_80313712">
   <path id="_45705736" class="fil48" d="M45.1104 58.3495c2.52759,-1.26734 3.89296,-5.88669 4.35832,-6.58709 0.555125,-0.83505 5.82527,-5.17211 6.82331,-5.89495 0.31772,-0.230318 0.506699,-0.488982 0.615362,-0.733474l0.0070867 10.9584c-0.0472447,1.23899 -0.663788,2.39294 -2.01853,2.43192l-9.78555 -0.174805z"/>
   <g>
    <path id="_124052768" class="fil49" d="M29.2799 58.7322c2.26184,-3.47603 5.84062,-7.43749 10.4009,-10.7009 5.83236,-4.17052 12.4832,-7.3808 17.1888,-8.71074l0 2.92681c-0.792529,1.28978 -2.02562,3.2835 -2.602,4.15044 -0.887019,1.33584 -7.98789,9.56823 -9.20799,10.6785 -0.331894,0.302366 -0.999225,0.720481 -1.68309,1.17994 -1.38545,0.112206 -2.76027,0.225593 -4.45281,0.355516 -2.29373,0.0448824 -5.10597,0.090946 -9.64382,0.120474z"/>
    <g>
     <path id="_86614864" class="fil50" d="M30.7303 58.7228c2.24058,-3.29886 5.69535,-7.06662 10.0348,-10.2533 5.504,-4.03942 11.6623,-7.20481 16.1045,-8.65404l0 2.43192c-0.792529,1.28978 -2.02562,3.2835 -2.602,4.15044 -0.887019,1.33584 -7.98789,9.56823 -9.20799,10.6785 -0.331894,0.302366 -0.999225,0.720481 -1.68309,1.17994 -1.38545,0.112206 -2.76145,0.225593 -4.45399,0.355516 -2.03743,0.040158 -4.48706,0.0803159 -8.19223,0.111025z"/>
     <path id="_80885488" class="fil51" d="M32.1925 58.7098c2.21578,-3.12169 5.53944,-6.69457 9.65799,-9.80209 5.17093,-3.90123 10.8462,-7.01111 15.0191,-8.56546l0 1.90514c-0.297641,0.483077 -0.351973,1.48348 -0.714576,2.06695 -0.603551,0.975603 -1.52718,1.54254 -1.88742,2.08349 -0.885838,1.33584 -7.98789,9.56823 -9.20799,10.6785 -0.331894,0.302366 -0.999225,0.720481 -1.68309,1.17994 -1.38545,0.112206 -2.76145,0.225593 -4.45399,0.355516 -1.75632,0.0354335 -3.81973,0.0696859 -6.73,0.0980327z"/>
     <path id="_45337224" class="fil52" d="M33.6654 58.6921c2.1827,-2.94334 5.3729,-6.32606 9.26822,-9.34854 4.83313,-3.75005 10.036,-6.79378 13.936,-8.4438l0 1.34765c-0.310634,0.501975 -1.40671,-0.831506 -1.78585,-0.22205 -0.590558,0.950799 -0.46536,3.84335 -0.816152,4.37249 -0.885838,1.33584 -7.98789,9.56823 -9.20799,10.6785 -0.331894,0.302366 -0.999225,0.7193 -1.68309,1.17994 -1.38663,0.112206 -2.76381,0.225593 -4.4599,0.355516 -1.44332,0.0283468 -3.09335,0.0578747 -5.25125,0.0803159z"/>
     <path id="_123993080" class="fil53" d="M35.1536 58.6743c2.14609,-2.77326 5.19691,-5.96228 8.86428,-8.89381 4.49061,-3.58941 9.22925,-6.55284 12.8517,-8.28672l0 0.753553c-0.322445,0.525597 -1.02167,0.440557 -1.41498,1.07482 -0.575204,0.925996 -0.844499,2.56066 -1.18702,3.07563 -0.885838,1.33584 -7.98789,9.56823 -9.20799,10.6785 -0.330713,0.302366 -0.996863,0.7193 -1.68073,1.17875 -1.39017,0.111025 -2.76854,0.225593 -4.4658,0.356697 -1.09135,0.0224412 -2.30318,0.0437013 -3.7595,0.0625992z"/>
     <path id="_81552576" class="fil54" d="M43.3765 58.2562c-1.38663,0.112206 -2.76263,0.225593 -4.45872,0.355516 -0.694497,0.0129923 -1.4386,0.0259846 -2.26184,0.0413391 2.10121,-2.602 5.00794,-5.60204 8.44617,-8.43436 4.14454,-3.41579 8.42609,-6.28472 11.7675,-8.08238l0 0.111025c-0.372052,0.604732 -0.201971,1.47522 -0.654339,2.20042 -0.511424,0.822057 -1.64175,1.48939 -1.94766,1.95002 -0.885838,1.33584 -7.98789,9.56823 -9.20799,10.6785 -0.331894,0.302366 -0.999225,0.720481 -1.68309,1.17994z"/>
     <path id="_124993824" class="fil55" d="M43.3765 58.2562c-1.38663,0.112206 -2.76145,0.225593 -4.45399,0.355516l-0.746466 0.0141734c2.05042,-2.4331 4.80478,-5.24062 8.00915,-7.97018 3.55634,-3.02484 7.15521,-5.64101 10.108,-7.47411 0.300004,0.178349 0.556306,0.348429 -0.112206,1.35356 -0.66615,1.00513 -10.3454,11.8336 -11.1214,12.5411 -0.775994,0.706308 -0.999225,0.720481 -1.68309,1.17994z"/>
     <path id="_82918192" class="fil56" d="M43.3765 58.2562c-1.15041,0.0933082 -2.29373,0.187798 -3.61894,0.290555 1.98073,-2.25357 4.56029,-4.85675 7.50954,-7.45403 2.85594,-2.51105 5.69062,-4.75163 8.15443,-6.50441 -0.45473,0.727568 -0.878751,1.39726 -1.15395,1.80947 -0.887019,1.33584 -7.98789,9.56823 -9.20799,10.6785 -0.331894,0.302366 -0.999225,0.720481 -1.68309,1.17994z"/>
     <path id="_45273216" class="fil57" d="M43.3765 58.2562l-1.9701 0.159451c1.89333,-2.06695 4.27564,-4.44927 6.94615,-6.88355 2.0268,-1.84609 4.0158,-3.55044 5.84299,-5.0292 -1.14214,1.60868 -7.94301,9.48673 -9.13594,10.5734 -0.331894,0.302366 -0.999225,0.7193 -1.68309,1.17994z"/>
    </g>
    <path id="_45411520" class="fil58" d="M43.3753 58.2574l-0.294098 0.0236223c1.78821,-1.88388 3.96028,-4.04887 6.35559,-6.31189 0.386225,-0.364965 0.768907,-0.724025 1.15041,-1.07836 -2.2642,2.64806 -4.83785,5.55715 -5.52763,6.18551 -0.331894,0.302366 -1.00041,0.720481 -1.68427,1.18112z"/>
   </g>
   <g>
    <path id="_45967896" class="fil59" d="M50.2164 58.6306c1.69136,-1.74569 4.7599,-5.21345 6.8493,-8.1816l0 -7.22135c-2.56657,2.81814 -9.15247,10.0997 -12.0604,13.7836 -0.598826,0.757096 -1.19647,1.26143 -1.78585,1.61931l6.99694 0z"/>
    <g>
     <path id="_79811384" class="fil60" d="M49.5207 58.6306c1.71498,-1.72916 5.29613,-5.67054 7.54497,-8.88436l0 -6.51858c-2.56657,2.81814 -9.15247,10.0997 -12.0604,13.7836 -0.598826,0.757096 -1.19647,1.26143 -1.78703,1.61931l6.30244 0z"/>
     <path id="_125046504" class="fil61" d="M48.8179 58.6306c1.67128,-1.64648 5.85007,-6.12409 8.24774,-9.57886l0 -5.82409c-2.56657,2.81814 -9.15247,10.0997 -12.0604,13.7836 -0.598826,0.757096 -1.19647,1.26143 -1.78585,1.61931l5.59849 0z"/>
     <path id="_84182368" class="fil62" d="M48.1057 58.6306l0.070867 -0.0661425c1.59333,-1.54254 6.39339,-6.55992 8.88909,-10.2072l0 -5.12959c-2.56657,2.81814 -9.15247,10.0997 -12.0604,13.7836 -0.598826,0.757096 -1.19647,1.26143 -1.78585,1.61931l4.88628 0z"/>
     <path id="_86571984" class="fil63" d="M47.3805 58.6306c0.109844,-0.0956705 0.219688,-0.196065 0.325988,-0.301185 1.64884,-1.59451 6.88119,-6.96623 9.35917,-10.6619l0 -4.43982c-2.56657,2.81814 -9.15247,10.0997 -12.0604,13.7836 -0.598826,0.757096 -1.19647,1.26143 -1.78585,1.61931l4.16107 0z"/>
     <path id="_124059416" class="fil64" d="M46.6411 58.6306c0.198428,-0.166537 0.399218,-0.342524 0.595283,-0.533865 1.70435,-1.65002 7.40442,-7.40324 9.82925,-11.1238l-0.155907 -5.59968c-0.281106,0.308272 -0.453549,2.52405 -0.819695,2.92799 -2.98704,3.29414 -8.49695,9.43004 -11.0848,12.71 -0.598826,0.757096 -1.19647,1.26143 -1.78703,1.61931l3.42288 0z"/>
     <path id="_81117672" class="fil65" d="M45.8888 58.6306c0.291736,-0.229137 0.587015,-0.483077 0.879932,-0.768907 1.76223,-1.70435 7.96781,-7.86151 10.297,-11.5832l0 -3.05082c-2.56657,2.81814 -9.15247,10.0997 -12.0604,13.7836 -0.598826,0.757096 -1.19647,1.26143 -1.78585,1.61931l2.66932 0z"/>
     <path id="_86836512" class="fil66" d="M45.1234 58.6306c0.386225,-0.288193 0.779537,-0.620086 1.17639,-1.00159 1.82483,-1.76695 8.59617,-8.37412 10.7659,-12.0604l0.030709 -4.98195c-0.239767,0.26457 -0.546857,3.20909 -0.852766,3.54453 -2.94689,3.24689 -8.60326,9.54224 -11.2383,12.8801 -0.598826,0.757096 -1.19647,1.26143 -1.78703,1.61931l1.90514 0z"/>
     <path id="_122321904" class="fil67" d="M44.3521 58.6306c0.478352,-0.338981 0.97324,-0.747647 1.47876,-1.23663 1.89215,-1.83191 9.31074,-8.95405 11.2348,-12.5576l0 -4.24966c-0.259846,0.28583 -0.562212,3.2587 -0.896468,3.62839 -2.96697,3.27051 -8.55129,9.48555 -11.1639,12.7962 -0.598826,0.757096 -1.19647,1.26143 -1.78585,1.61931l1.13269 0z"/>
    </g>
    <path id="_84625824" class="fil68" d="M43.6281 58.6306c0.548038,-0.400399 1.13033,-0.885838 1.73388,-1.46931 1.97483,-1.91223 10.1907,-9.67453 11.7037,-13.1057l-0.219688 -3.31185c-0.159451,0.177168 -0.148821,2.88547 -0.337799,3.09453 -2.84885,3.1335 -8.77806,9.72059 -11.5029,13.173 -0.513786,0.648433 -1.02521,1.18938 -1.53309,1.61931l0.155907 0z"/>
   </g>
   <path id="_85674728" class="fil69" d="M41.6426 58.6011c0.566936,0.124017 1.28151,0.0377957 2.0138,-0.224412 0.450006,-0.161813 0.972059,-0.590558 1.48585,-0.972059 0.479533,-0.265751 0.964973,-0.649614 1.45514,-1.26025 2.73074,-3.40044 9.79382,-10.9702 9.79382,-10.9702 0,0 0.459454,-2.55003 0.408666,-3.52918 -0.0519691,-0.979146 0.0555125,0.127561 -0.0472447,0.488982 -0.0696859,0.24331 -0.0614181,1.31458 -0.36969,2.2205 0.145277,-0.83505 0.337799,-2.08821 0.304728,-2.70948 -0.0519691,-0.979146 0.0720481,0.127561 -0.030709,0.488982 -0.103938,0.360241 -0.0980327,2.51932 -1.12797,3.29177 -1.03112,0.773632 -4.65833,2.37168 -7.0808,2.37168 -2.42129,0 -3.09098,0.876389 -3.04019,1.95829 0.0519691,1.0819 0.514967,3.96737 0.361422,4.58628 -0.109844,0.438194 0.0153545,1.8142 -0.915366,2.79807 -0.348429,0.259846 -0.817333,0.865759 -1.45159,1.00395 -2.03861,0.4441 -1.95593,0.413391 -1.75986,0.457092z"/>
   <path id="_84302272" class="fil31" d="M45.3561 49.8042c-0.00472447,-0.0874027 -0.00472447,-0.173624 0.00118112,-0.258665 0.0637803,-0.995682 0.927177,-1.76577 3.23626,-1.76577 2.16617,0 4.92408,-1.1445 6.40992,-1.99491 1.60632,-0.505518 2.10593,-2.28782 1.80475,-4.99731 -0.0779537,-0.70867 -0.0779537,-0.368508 -0.132285,0.0271657 0.102757,2.41184 -0.382682,3.98863 -1.79057,4.57683 -1.48585,0.851585 -4.36777,2.0894 -6.53512,2.0894 -2.0953,0 -2.92326,0.63426 -3.10516,1.49648 -0.00118112,0.0566936 -0.00118112,0.113387 0.00118112,0.171262l0.109844 0.65552z"/>
   <path id="_80382632" class="fil31" d="M45.2935 49.6164c-0.00354335,-0.0874027 -0.00354335,-0.173624 0.00118112,-0.258665 0.0637803,-0.995682 0.928358,-1.76577 3.23626,-1.76577 2.16735,0 4.92408,-1.1445 6.4111,-1.99491 1.46813,-0.615362 1.9642,-2.40121 1.80357,-4.99731 -0.0437013,-0.711032 -0.0779537,-0.368508 -0.131104,0.0271657 0.102757,2.41184 -0.383863,3.98863 -1.79057,4.57683 -1.48703,0.851585 -4.36895,2.0894 -6.53512,2.0894 -2.09648,0 -2.92326,0.63426 -3.10634,1.49648 -0.00118112,0.0566936 0,0.113387 0.00236223,0.171262l0.108663 0.65552z"/>
   <path id="_82179824" class="fil70" style="mask:url(#id0)" d="M40.5206 58.2917c0,0 -0.8882,0.24331 -0.321264,0.36969 0.568117,0.125198 2.64098,-0.0732292 3.51264,-0.336618 0.851585,-0.257483 1.73506,-0.617724 2.63035,-1.73388 2.73074,-3.40044 9.79264,-10.9702 9.79264,-10.9702 0,0 0.461817,-2.55121 0.411029,-3.52918 -0.050788,-0.979146 0.0543314,0.127561 -0.0484258,0.488982 -0.102757,0.360241 -0.0366146,2.51814 -1.06537,3.29177 -0.186616,0.140553 -0.460636,0.308272 -0.798435,0.490164 -2.08349,2.25475 -6.64378,7.22725 -8.71428,9.80563 -0.231499,0.289374 -0.464179,0.52914 -0.695678,0.728749 -0.327169,0.551582 -0.934263,1.05474 -2.0764,1.30395 -2.8335,0.617724 -2.6268,0.090946 -2.6268,0.090946z"/>
  </g>
  <polygon class="fil71" points="52.4569,8.61861 52.4569,19.3514 40.4958,19.3514 40.4958,8.61861 "/>
  <path class="fil72" d="M40.9576 14.8974l0 -0.356697c1.39136,-0.231499 5.01738,-0.342524 4.99258,-0.379139 0,0 0.921271,-0.265751 1.20238,-0.0933082 0.281106,0.171262 0.00236223,0.216144 0.00236223,0.216144l1.08427 -0.244491 0.424021 0.340162c0,0 2.4709,0.447643 2.64216,0.462998 0.172443,0.0153545 -1.9831,0.333075 -1.9831,0.333075 0,0 -6.45362,-0.0118112 -8.36467,-0.278744z"/>
  <path class="fil73" d="M42.1045 16.0573l-0.0389769 -0.406304 -1.5697 0.148821 0 -1.28387 1.62876 -0.402761 0.315358 0 1.26852 -1.42325 1.58978 1.22364 1.20238 -0.142915 2.26656 0.89883 0.68741 -0.413391 0.902373 0.451187 1.33584 -0.00354335 0.344886 0.348429 -3.88942 0.0460636 -4.78707 0.304728c0,0 -0.725206,1.11379 -1.25671,0.654339z"/>
  <path class="fil74" d="M45.2132 15.1218c1.77286,0.144096 1.96302,-0.531503 3.93312,-0.555125 2.19688,-0.0259846 2.17207,0.439375 3.31067,0.441738l0 0.989776 -7.24379 0 0 -0.876389z"/>
  <path class="fil75" d="M40.4958 15.0899c0.918909,-0.225593 1.93467,-0.548038 3.70044,-0.633079 5.05754,-0.245672 4.16698,1.05828 7.87214,0.656701l0.388587 -0.0425202 0 1.23781 -8.65286 0 -3.30831 0.261027 0 -1.47994z"/>
  <path class="fil76" d="M52.4569 16.2911c-0.376776,-0.0283468 -0.816152,-0.100395 -1.23899,-0.113387 -7.11269,-0.22205 -6.61425,0.818514 -10.7222,0.712213l0 1.46222 11.9612 0 0 -2.06105z"/>
  <path class="fil77" d="M52.4569 15.7218c-0.314177,-0.0330713 -0.654339,-0.0779537 -0.985051,-0.0874027 -7.28159,-0.22205 -6.7678,0.819695 -10.9761,0.712213l0 3.00476 11.9612 0 0 -3.62957z"/>
  <polygon class="fil78" points="42.1541,10.9017 41.743,12.9226 42.0548,14.9742 43.0092,14.0069 42.2344,15.4903 42.3171,18.9546 41.7785,18.925 41.9604,15.6722 41.26,13.4128 41.9604,14.4935 41.5033,12.9462 41.5033,12.9049 42.1115,10.8828 "/>
  <path class="fil79" d="M42.6017 18.1939c0,0 -0.398036,0.162994 0.76182,0.0448824 0.0980327,-0.00944894 1.02285,-1.33112 1.13269,-1.32285 0.0437013,0.00354335 -0.343705,-0.763002 -0.771269,-1.45159 -0.184254,-0.297641 0.344886,0.809065 0.255121,0.946075 -0.265751,0.398036 -1.21183,1.10316 -1.39372,1.43978 -0.183073,0.335437 0.0153545,0.343705 0.0153545,0.343705z"/>
  <path class="fil80" d="M42.5049 18.4963c0,0 1.31695,-0.35906 1.63348,-1.43506 -0.297641,0.0921271 -0.419296,0.0283468 -0.457092,-0.0874027 -0.302366,0.367327 -1.03938,0.931901 -1.19057,1.21183 -0.164175,0.303547 0.0141734,0.310634 0.0141734,0.310634z"/>
  <path class="fil81" d="M42.6159 19.3514c0.224412,-0.396855 0.705127,-0.990957 1.62285,-1.1634 1.41616,-0.265751 2.33979,0.256302 3.81265,-0.0413391 1.47403,-0.300004 -1.77522,0.725206 -3.31776,1.1008l-0.400399 0.103938 -1.71734 0z"/>
  <path class="fil82" d="M44.6509 19.3514c0.0224412,-0.376776 0.160632,-1.07954 0.722844,-1.34884 0.453549,-0.217326 0.901192,0.0779537 1.04647,-0.35906 0.439375,-1.32403 1.39726,-1.04175 1.4008,-1.04529l-0.0850404 -0.00118112c-0.00354335,0.00236223 -0.696859,-0.161813 -1.11734,1.10434 -0.122836,0.372052 -0.321264,0.379139 -0.689772,0.569298 -0.594102,0.30709 -0.883475,0.775994 -1.01576,1.08072l-0.262208 0z"/>
  <path class="fil83" d="M41.2292 13.4789c-0.1689,-0.0531503 -0.524416,-0.167719 -0.733474,-0.309453l0 -0.548038c0.020079,-0.00826782 0.040158,-0.0141734 0.0614181,-0.0165356 -0.0531503,-0.140553 -0.030709,-0.248035 0.113387,-0.290555 0.0425202,-0.0129923 0.0850404,-0.0165356 0.125198,-0.0141734 0.0177168,-0.0413391 0.0448824,-0.0814971 0.0814971,-0.113387l0 0c0.0259846,-0.0248035 0.0531503,-0.0437013 0.0826782,-0.0543314l0 -0.00118112c0.0767726,-0.0318902 0.146458,-0.020079 0.212601,0.0224412l0.00118112 0c0.0248035,0.0177168 0.0496069,0.040158 0.070867,0.0685048l0.00826782 -0.0070867 0 0c0.0389769,-0.030709 0.0850404,-0.0448824 0.13701,-0.0425202 0.0271657,0.00118112 0.0555125,0.00944894 0.0826782,0.0212601l0 0c0.135828,0.0637803 0.206695,0.155907 0.231499,0.26457 0.101576,-0.0448824 0.207877,-0.0413391 0.315358,0.0389769l0.00118112 0c0.0318902,0.0224412 0.0555125,0.0484258 0.0732292,0.0767726 0.0448824,0.0685048 0.0531503,0.142915 0.0295279,0.219688l-0.00118112 0.00118112c-0.0177168,0.0590558 -0.0543314,0.119293 -0.102757,0.175986 -0.116931,0.138191 -0.315358,0.277562 -0.467722,0.372052l0.165356 0.162994 -0.0637803 0.00118112c0.050788,0.0968516 0.0448824,0.201971 -0.142915,0.281106 -0.248035,0.105119 -0.28583,-0.127561 -0.281106,-0.309453z"/>
  <path class="fil84" d="M42.1021 17.2301l0.775994 -3.03901 -0.484258 2.99177c0,0 -0.218507,0.0933082 -0.291736,0.0472447z"/>
  <path class="fil85" d="M40.7178 13.5179c0,0 0.318902,-0.852766 -0.22205,-0.989776"/>
  <path class="fil79" d="M41.9875 17.5089c0,0 -0.0767726,-0.646071 -0.131104,-0.759458 -0.0543314,-0.108663 -0.100395,-0.775994 -1.36065,-0.923633l0 0.166537c0.238586,0.210239 0.601189,0.600007 0.722844,1.17403 0.060237,0.284649 0.191341,0.344886 0.21142,0.598826 0.0118112,0.206695 0.0330713,0.633079 0.165356,0.690953 0.133466,0.0566936 0.362603,-0.0696859 0.343705,-0.157089 -0.0165356,-0.0874027 0.0484258,-0.790167 0.0484258,-0.790167z"/>
  <path class="fil86" d="M40.4958 15.8683c0.23268,0.167719 0.716938,0.566936 0.85631,1.23072 0.060237,0.283468 0.191341,0.344886 0.21142,0.597645 0.00590558,0.106301 0.0153545,0.413391 0.0413391,0.557487 0.578747,0.337799 0.321264,-0.7193 0.0318902,-1.33821 -0.17953,-0.382682 -0.648433,-1.00159 -1.14096,-1.12206l0 0.0744104z"/>
  <path class="fil87" d="M41.8623 17.5526c0,0 0.171262,-0.0791348 0.135828,-0.152364 -0.0212601,-0.040158 -0.0826782,-0.829144 -0.263389,-0.980327 0.0685048,0.255121 -0.0259846,1.11379 -0.546857,0.484258 0.0779537,0.118112 0.144096,0.261027 0.17953,0.427564 0.0389769,0.181892 0.122836,0.22205 0.135828,0.385044 0.00944894,0.133466 0.0224412,0.409848 0.108663,0.447643 0.0850404,0.0354335 0.23268,-0.0448824 0.220869,-0.101576 -0.0106301,-0.0566936 0.0295279,-0.510242 0.0295279,-0.510242z"/>
  <path class="fil88" d="M40.4958 12.0498l0.040158 -0.00118112c0.251578,-0.0153545 0.112206,-0.288193 0.0295279,-0.420478l0.00236223 0 0.0484258 -0.0259846 0.0318902 -0.0224412c0.111025,-0.0767726 0.383863,-0.265751 0.510242,-0.438194 0.0980327,-0.134647 0.120474,-0.266932 -0.0141734,-0.366146 -0.060237,-0.0448824 -0.0755915,-0.0354335 -0.134647,-0.0295279 0.00826782,-0.124017 -0.0330713,-0.206695 -0.148821,-0.21142 -0.0366146,-0.00118112 -0.0673237,0.00472447 -0.0980327,0.0153545 -0.0224412,-0.030709 -0.0519691,-0.0566936 -0.0862215,-0.0755915l0 0c-0.0248035,-0.0141734 -0.0496069,-0.0236223 -0.0720481,-0.0271657l-0.00236223 0c-0.0460636,0.00354335 -0.0814971,0.0188979 -0.106301,0.0437013l0 1.55907z"/>
  <path class="fil88" d="M42.5875 17.3234c-0.1689,-0.0744104 -0.531503,-0.236223 -0.716938,-0.408666 -0.152364,-0.139372 -0.207877,-0.290555 -0.0590558,-0.432289 0.0685048,-0.0637803 0.139372,-0.0956705 0.214963,-0.0980327 -0.0366146,-0.145277 0,-0.249216 0.14764,-0.277562 0.0448824,-0.0070867 0.0862215,-0.0070867 0.12638,0 0.0224412,-0.0413391 0.0543314,-0.0755915 0.0944894,-0.105119l0 0c0.0283468,-0.0212601 0.0590558,-0.0354335 0.0885838,-0.0448824l0.00118112 0c0.0791348,-0.0236223 0.148821,-0.00472447 0.207877,0.0448824l0.00118112 0c0.0224412,0.020079 0.0437013,0.0448824 0.0625992,0.0755915l0.00826782 -0.00590558 0 0c0.0425202,-0.0271657 0.0897649,-0.0366146 0.140553,-0.0283468 0.0271657,0.00472447 0.0543314,0.0153545 0.0814971,0.030709l0 0c0.127561,0.0767726 0.186616,0.174805 0.198428,0.287011 0.105119,-0.0342524 0.210239,-0.0188979 0.30709,0.0732292l0.00118112 0c0.0283468,0.0259846 0.0484258,0.0531503 0.0637803,0.0826782 0.0366146,0.0720481 0.0342524,0.14764 0.00236223,0.22205l0 0.00118112c-0.0248035,0.0555125 -0.0696859,0.112206 -0.124017,0.162994 -0.133466,0.125198 -0.348429,0.242129 -0.509061,0.320083l0.142915 0.17953 -0.0625992 -0.00472447c0.040158,0.101576 0.0188979,0.205514 -0.177168,0.26457 -0.257483,0.0791348 -0.268114,-0.15827 -0.242129,-0.338981z"/>
  <path class="fil89" d="M41.9426 18.3416c-0.0389769,-0.220869 -0.120474,-0.701583 -0.0625992,-1.0134 0.0484258,-0.25394 0.178349,-0.420478 0.448824,-0.374414 0.124017,0.020079 0.21142,0.0685048 0.269295,0.140553 0.139372,-0.140553 0.283468,-0.184254 0.42284,-0.0555125 0.0413391,0.0377957 0.0732292,0.0803159 0.0944894,0.124017 0.060237,-0.0070867 0.124017,-0.00118112 0.187798,0.0177168l0 -0.00118112c0.0460636,0.0129923 0.0838593,0.0330713 0.115749,0.0555125l0 0.00118112c0.0862215,0.0625992 0.116931,0.144096 0.103938,0.239767l-0.00118112 0.00118112c-0.00472447,0.0366146 -0.0188979,0.0767726 -0.0389769,0.116931l0.0129923 0.00354335 0 0c0.060237,0.0236223 0.106301,0.0637803 0.135828,0.120474 0.0141734,0.030709 0.0236223,0.0649614 0.0236223,0.103938l0 0c0.00472447,0.181892 -0.0625992,0.314177 -0.180711,0.406304 0.116931,0.0803159 0.175986,0.196065 0.144096,0.360241l0 0c-0.00944894,0.0472447 -0.0248035,0.0874027 -0.0484258,0.125198 -0.0555125,0.0897649 -0.142915,0.142915 -0.250397,0.165356l-0.00118112 0c-0.0826782,0.0165356 -0.178349,0.0141734 -0.277562,-0.00354335 -0.239767,-0.0413391 -0.527959,-0.167719 -0.737017,-0.271657l-0.0980327 0.274019 -0.040158 -0.0661425c-0.0874027,0.113387 -0.219688,0.1689 -0.431108,0.0188979 -0.279925,-0.199609 -0.0177168,-0.382682 0.207877,-0.488982z"/>
  <path class="fil90" d="M41.7289 12.2813c-0.337799,-0.270476 -0.437013,-0.937807 -0.499612,-1.31458 0.194884,0.185435 0.570479,1.06537 0.611819,0.937807 0.040158,-0.127561 -0.112206,0.376776 -0.112206,0.376776z"/>
  <path class="fil88" d="M41.1844 19.3514c-0.00826782,-0.0425202 -0.030709,-0.0814971 -0.0637803,-0.119293 0.115749,-0.0165356 0.194884,-0.0696859 0.210239,-0.1689l0 -0.00118112c0.00472447,-0.0283468 0.00236223,-0.0555125 -0.00590558,-0.0826782 -0.0212601,-0.0649614 -0.0779537,-0.115749 -0.157089,-0.154726l-0.00236223 0 -0.00590558 -0.00118112 0.0259846 -0.0248035 0.00236223 -0.00118112c0.0543314,-0.0555125 0.0791348,-0.124017 0.0685048,-0.20079 -0.00354335,-0.0295279 -0.0141734,-0.0614181 -0.0318902,-0.0933082l-0.00118112 0c-0.0614181,-0.109844 -0.154726,-0.153545 -0.265751,-0.153545 0.0248035,-0.103938 0.0685048,-0.172443 -0.0259846,-0.276381l0 -0.00118112c-0.0188979,-0.0224412 -0.0425202,-0.0389769 -0.0649614,-0.0496069 -0.0460636,-0.0236223 -0.0944894,-0.0283468 -0.142915,-0.0165356l-0.227956 0.191341 0 1.15395 0.688591 0z"/>
  <path class="fil88" d="M45.7494 18.4691l-0.102757 0.108663 0 0c0,0.0177168 -0.0212601,0.0354335 -0.0472447,0.0543314l-0.00118112 0.00354335c-0.00944894,0.020079 -0.0271657,0.0437013 -0.050788,0.0696859l0.774813 -0.201971c0.0803159,0.0118112 0.145277,0.0448824 0.192522,0.100395 0.0248035,0.0295279 0.040158,0.0649614 0.050788,0.105119l-0.00118112 0.00118112c0.0413391,0.196065 -0.0850404,0.263389 -0.218507,0.39095 0.127561,0.0472447 0.214963,0.127561 0.240948,0.250397l-2.26538 0c-0.0944894,-0.246853 -0.262208,-0.711032 -0.245672,-1.04056 0.0141734,-0.28583 0.148821,-0.493707 0.500794,-0.504337 0.159451,-0.00590558 0.171262,0.0248035 0.259846,0.0897649 0.150002,-0.184254 0.324807,-0.261027 0.525597,-0.152364 0.0578747,0.0318902 0.105119,0.0720481 0.140553,0.113387 0.0779537,-0.020079 0.15827,-0.0283468 0.240948,-0.0212601l0.00118112 -0.00118112c0.0590558,0.00472447 0.112206,0.0177168 0.154726,0.0354335l0.00118112 0.00118112c0.269295,0.183073 0.0496069,0.451187 -0.151183,0.597645zm-0.207877 0.244491l0.0413391 0.0377957 -0.113387 0.0330713 0.0720481 -0.070867z"/>
  <path class="fil88" d="M40.4958 15.5388c0.0448824,0.0236223 0.0980327,0.0295279 0.159451,0.0129923 0.0342524,-0.00944894 0.0625992,-0.0224412 0.0850404,-0.0377957 0.0377957,0.0153545 0.0779537,0.0248035 0.121655,0.0271657l0 0c0.030709,0.00354335 0.0590558,0.00118112 0.0838593,-0.00236223l0.00118112 0c0.0649614,-0.0118112 0.102757,-0.0413391 0.113387,-0.0862215l0 0c0.00472447,-0.0177168 0.00472447,-0.0366146 -0.00118112,-0.0578747l0.00944894 0 0 0c0.0425202,0.00118112 0.0803159,-0.00826782 0.109844,-0.0271657 0.0153545,-0.0118112 0.0283468,-0.0248035 0.0366146,-0.0413391l0 0c0.0413391,-0.0791348 0.0248035,-0.148821 -0.0295279,-0.21142 0.0885838,-0.0129923 0.150002,-0.0543314 0.162994,-0.131104l0 0c0.00354335,-0.0224412 0.00236223,-0.0437013 -0.00354335,-0.0637803 -0.0177168,-0.0496069 -0.060237,-0.0897649 -0.124017,-0.119293l-0.00236223 0 -0.0212601 -0.00944894 0.040158 -0.0283468 0.00118112 0c0.040158,-0.0377957 0.060237,-0.0826782 0.0519691,-0.133466 -0.00472447,-0.0212601 -0.0141734,-0.0425202 -0.0283468,-0.0625992l0 0c-0.0484258,-0.0744104 -0.122836,-0.106301 -0.210239,-0.107482 0.0177168,-0.0696859 0.0519691,-0.113387 -0.0224412,-0.185435l-0.00118112 0c-0.0165356,-0.0141734 -0.0330713,-0.0271657 -0.0519691,-0.0342524 -0.0354335,-0.0153545 -0.0732292,-0.0188979 -0.109844,-0.0129923l-0.274019 0.196065 -0.00826782 0.00118112 -0.0165356 0.0555125c0.0165356,-0.0165356 0.0366146,-0.0342524 0.0590558,-0.050788l-0.040158 -0.0118112 0.00826782 -0.0283468c0.00590558,-0.0129923 0.0118112,-0.0259846 0.0070867,-0.0342524l0.0129923 -0.0614181c0.040158,-0.0862215 0.0531503,-0.22205 -0.113387,-0.257483l0 0 -0.00590558 0 0 1.50356z"/>
  <g id="_46547248">
   <path id="_85748800" class="fil84" d="M44.3545 19.3514c-0.101576,-0.0956705 -0.24331,-0.129923 -0.511424,-0.322445 -0.0732292,-0.0519691 -0.120474,-0.109844 -0.193703,-0.15827 -0.159451,-0.105119 -0.330713,-0.201971 -0.594102,-0.265751 -0.14764,0.0944894 -0.434651,0.295279 -0.556306,0.512605 -0.050788,0.090946 -0.0826782,0.167719 -0.105119,0.233861l-0.765364 0 -0.00590558 -0.107482c-0.00472447,-0.204333 -0.20079,-0.331894 0.0129923,-0.531503 0.0283468,-0.0956705 0.12638,-0.347248 0.411029,-0.48662 0.186616,-0.0921271 0.585834,-0.131104 0.799616,-0.150002 0.418115,-0.0389769 0.555125,-0.0625992 0.601189,-0.0732292l0.00826782 0.00236223c0.783081,0.242129 1.12324,0.799616 1.26025,1.34647l-0.361422 0zm-2.35515 -0.934263c-0.167719,0.030709 -0.287011,0.186616 -0.341343,0.2752l0.00118112 -0.00118112c0.103938,-0.0874027 0.216144,-0.191341 0.340162,-0.274019z"/>
   <path id="_46379360" class="fil80" d="M43.2643 18.5057c0,0 -0.408666,0.251578 -0.596464,0.532684 -0.204333,-0.00944894 -0.483077,0.225593 -0.680323,0.142915l-0.0968516 -0.040158c-0.13701,-0.0566936 -0.216144,-0.340162 0.0366146,-0.552763 0.251578,-0.212601 0.40158,-0.457092 0.803159,-0.35906 0.402761,0.0992138 0.533865,0.276381 0.533865,0.276381z"/>
   <path id="_46645104" class="fil79" d="M43.4686 17.9943c0,0 0.703946,-0.477171 1.06419,-0.333075 0.441738,0.17953 0.746466,0.41221 0.624811,0.9945 -0.0354335,0.178349 -0.105119,0.420478 -0.181892,0.695678l-0.621267 0c-0.101576,-0.0956705 -0.24331,-0.131104 -0.511424,-0.322445 -0.0732292,-0.0519691 -0.120474,-0.109844 -0.193703,-0.15827 -0.186616,-0.122836 -0.388587,-0.235042 -0.731111,-0.292917 -0.107482,-0.0177168 -0.592921,-0.191341 -0.889381,-0.165356 -0.252759,0.0224412 -0.403942,0.338981 -0.403942,0.338981 0,0 0.0649614,-0.350792 0.421659,-0.525597 0.186616,-0.0921271 0.585834,-0.131104 0.799616,-0.150002 0.621267,-0.0566936 0.622449,-0.0814971 0.622449,-0.0814971z"/>
   <path id="_83109368" class="fil86" d="M44.7986 19.3514c-0.0980327,-0.558668 -0.46536,-1.1197 -1.34293,-1.34647l-0.00826782 -0.00236223c-0.0448824,0.0118112 -0.181892,0.0354335 -0.601189,0.0732292 -0.213782,0.0188979 -0.613,0.0578747 -0.799616,0.150002 -0.356697,0.174805 -0.421659,0.525597 -0.421659,0.525597 0,0 0.151183,-0.316539 0.403942,-0.338981 0.29646,-0.0259846 0.781899,0.14764 0.889381,0.165356 0.342524,0.0578747 0.544495,0.170081 0.731111,0.292917 0.0732292,0.0484258 0.120474,0.106301 0.193703,0.15827 0.268114,0.191341 0.409848,0.226774 0.511424,0.322445l0.4441 0z"/>
   <path id="_80541080" class="fil84" d="M41.8446 18.3675c-0.180711,0.175986 -0.219688,0.383863 -0.219688,0.383863 0,0 0.0437013,-0.0944894 0.12638,-0.183073 0.0141734,-0.0448824 0.0413391,-0.119293 0.0933082,-0.20079zm2.50987 0.98387c-0.101576,-0.0956705 -0.24331,-0.131104 -0.511424,-0.322445 -0.0732292,-0.0519691 -0.120474,-0.109844 -0.193703,-0.15827 -0.186616,-0.122836 -0.388587,-0.235042 -0.731111,-0.292917 -0.107482,-0.0177168 -0.592921,-0.191341 -0.889381,-0.165356 -0.0980327,0.00944894 -0.181892,0.0625992 -0.246853,0.125198 0.0614181,-0.0968516 0.187798,-0.251578 0.364965,-0.266932 0.295279,-0.0259846 0.779537,0.146458 0.887019,0.164175 0.343705,0.0590558 0.544495,0.171262 0.731111,0.292917 0.0720481,0.0496069 0.121655,0.107482 0.193703,0.159451 0.368508,0.262208 0.498431,0.229137 0.613,0.464179l-0.217326 0z"/>
   <path id="_46503056" class="fil80" d="M43.4686 17.9943c0,0 0.290555,-0.197247 0.592921,-0.300004 -0.070867,0.212601 0.7193,1.28033 0.191341,0.737017 -0.527959,-0.543314 -1.78231,-0.284649 -2.18034,-0.217326 0.196065,-0.0838593 0.569298,-0.119293 0.773632,-0.138191 0.621267,-0.0566936 0.622449,-0.0814971 0.622449,-0.0814971z"/>
  </g>
  <g id="_123559768">
   <path id="_81967424" class="fil84" d="M40.4958 18.2967c0.0862215,0.0129923 0.164175,0.00472447 0.250397,0.0212601 0.191341,0.0342524 0.385044,0.0838593 0.615362,0.219688 0.0283468,0.164175 0.0696859,0.498431 -0.0141734,0.728749l-0.0330713 0.0850404 0.937807 0c-0.00236223,-0.0755915 -0.0070867,-0.152364 -0.0177168,-0.229137 0.0472447,0.0696859 0.060237,0.151183 0.0566936,0.229137l0.0637803 0c0.0295279,-0.108663 0.0413391,-0.244491 -0.00472447,-0.393312 -0.0578747,-0.188979 -0.302366,-0.48662 -0.434651,-0.643709 -0.257483,-0.309453 -0.334256,-0.419296 -0.356697,-0.458273l-0.00944894 -0.00472447c-0.36969,-0.185435 -0.726387,-0.235042 -1.05356,-0.201971l0 0.647252z"/>
   <path id="_80348592" class="fil91" d="M41.2942 18.3274c0,0 0.0862215,0.451187 -0.00236223,0.770088 0.0637803,0.0566936 0.101576,0.154726 0.140553,0.25394l0.718119 0 0.00118112 -0.0614181c-0.00944894,-0.31772 0.0767726,-0.585834 -0.276381,-0.791348 -0.351973,-0.205514 -0.58111,-0.171262 -0.58111,-0.171262z"/>
   <path id="_83277072" class="fil79" d="M41.5493 17.8349c0,0 -0.114568,-0.804341 -0.474809,-0.949618 -0.203152,-0.0803159 -0.394493,-0.133466 -0.578747,-0.121655l0 1.53309c0.0862215,0.0129923 0.164175,0.00472447 0.250397,0.0212601 0.224412,0.0413391 0.448824,0.100395 0.72993,0.292917 0.0885838,0.060237 0.557487,0.270476 0.74056,0.488982 0.0614181,0.0720481 0.0779537,0.165356 0.0744104,0.251578l0.0637803 0c0.0295279,-0.108663 0.040158,-0.244491 -0.00472447,-0.393312 -0.0578747,-0.188979 -0.302366,-0.48662 -0.434651,-0.643709 -0.383863,-0.459454 -0.366146,-0.479533 -0.366146,-0.479533z"/>
   <path id="_85735872" class="fil86" d="M40.4958 17.575c0.322445,-0.0129923 0.67678,0.0649614 1.05356,0.276381l0.00944894 0.00472447c0.0224412,0.0389769 0.0980327,0.14764 0.356697,0.458273 0.132285,0.157089 0.376776,0.45473 0.434651,0.643709 0.0460636,0.148821 0.0342524,0.284649 0.00590558,0.393312l-0.0649614 0c0.00354335,-0.0862215 -0.0129923,-0.178349 -0.0744104,-0.251578 -0.183073,-0.218507 -0.651977,-0.428745 -0.74056,-0.488982 -0.281106,-0.192522 -0.505518,-0.251578 -0.72993,-0.292917 -0.0862215,-0.0165356 -0.164175,-0.00826782 -0.250397,-0.0212601l0 -0.721662z"/>
   <path id="_85824984" class="fil84" d="M42.3797 19.1931c-0.00354335,0.0566936 -0.0129923,0.109844 -0.0248035,0.15827l-0.0413391 0c0.0224412,-0.040158 0.0472447,-0.0933082 0.0661425,-0.15827zm-1.88388 -1.07836l0.0248035 0.00354335c0.0897649,0.0129923 0.1689,0.00590558 0.256302,0.0224412 0.223231,0.0413391 0.448824,0.101576 0.731111,0.292917 0.0874027,0.0614181 0.555125,0.270476 0.739379,0.488982 0.108663,0.128742 0.0767726,0.321264 0.0437013,0.428745l0 0c0.00354335,-0.0862215 -0.0141734,-0.178349 -0.0744104,-0.251578 -0.183073,-0.218507 -0.651977,-0.428745 -0.74056,-0.488982 -0.281106,-0.192522 -0.505518,-0.251578 -0.72993,-0.292917 -0.0862215,-0.0165356 -0.164175,-0.00826782 -0.250397,-0.0212601l0 -0.181892z"/>
   <path id="_86249024" class="fil92" d="M41.5493 17.8349c0,0 -0.0460636,-0.331894 -0.175986,-0.607094 -0.0744104,0.12638 -0.677961,0.25394 -0.87757,0.324807l0 0.0519691c0.0389769,0.00354335 0.0956705,0.00354335 0.174805,0.00236223 0.785443,-0.0165356 1.44805,1.01104 1.6701,1.32639 -0.0696859,-0.19016 -0.298823,-0.467722 -0.425202,-0.618905 -0.383863,-0.459454 -0.366146,-0.479533 -0.366146,-0.479533z"/>
  </g>
  <g id="_124135984">
   <path id="_86499720" class="fil79" d="M43.4568 15.8045c0,0 -0.279925,-0.290555 -0.48662,-0.292917 -0.256302,-0.00354335 -0.448824,0.0354335 -0.485439,0.2752 -0.0248035,0.15827 -0.0212601,0.45473 -0.0661425,0.731111 0.375595,-0.446462 0.295279,-0.314177 0.674418,-0.381501 0.0460636,-0.00826782 0.0803159,-0.0224412 0.12638,-0.0295279 0.114568,-0.0153545 0.236223,-0.0259846 0.420478,0.0070867 0.0590558,0.00944894 0.335437,0.0212601 0.480715,0.0791348 0.12638,0.0484258 0.150002,0.191341 0.150002,0.191341 0,0 0.0259846,-0.141734 -0.127561,-0.263389 -0.0791348,-0.0649614 -0.276381,-0.144096 -0.381501,-0.185435 -0.308272,-0.120474 -0.304728,-0.131104 -0.304728,-0.131104z"/>
   <path id="_85867168" class="fil86" d="M42.4387 16.3597c0.0578747,-0.28583 0.333075,-0.62363 1.02285,-0.548038l0.00590558 0.00118112c0.020079,0.0106301 0.0862215,0.0413391 0.294098,0.122836 0.105119,0.0413391 0.302366,0.120474 0.381501,0.185435 0.153545,0.121655 0.127561,0.263389 0.127561,0.263389 0,0 -0.0236223,-0.142915 -0.150002,-0.191341 -0.145277,-0.0578747 -0.421659,-0.0696859 -0.480715,-0.0791348 -0.184254,-0.0330713 -0.305909,-0.0224412 -0.420478,-0.0070867 -0.0460636,0.0070867 -0.0803159,0.0212601 -0.12638,0.0295279 -0.379139,0.0673237 -0.298823,-0.0649614 -0.674418,0.381501 0.0070867,-0.0531503 0.0141734,-0.106301 0.020079,-0.15827z"/>
   <path id="_83861160" class="fil84" d="M44.2234 16.2061c0.0625992,0.0933082 0.0472447,0.178349 0.0472447,0.178349 0,0 -0.00590558,-0.0425202 -0.0342524,-0.0885838 0.00118112,-0.0188979 0,-0.050788 -0.0129923,-0.0897649zm0.00354335 0.0732292c-0.0236223,-0.0342524 -0.0566936,-0.0673237 -0.106301,-0.0862215 -0.145277,-0.0578747 -0.421659,-0.0696859 -0.480715,-0.0791348 -0.184254,-0.0330713 -0.305909,-0.0224412 -0.420478,-0.0070867 -0.0460636,0.0070867 -0.0803159,0.0212601 -0.12638,0.0295279 -0.379139,0.0673237 -0.298823,-0.0649614 -0.674418,0.381501 0.0070867,-0.0460636 0.0129923,-0.090946 0.0165356,-0.13701 0.315358,-0.368508 0.263389,-0.255121 0.622449,-0.31772 0.0448824,-0.0070867 0.0814971,-0.0212601 0.125198,-0.0283468 0.115749,-0.0165356 0.238586,-0.0271657 0.42284,0.0070867 0.0566936,0.0106301 0.333075,0.0212601 0.479533,0.0791348 0.0874027,0.0330713 0.12638,0.113387 0.141734,0.15827z"/>
   <path id="_86251864" class="fil84" d="M43.4568 15.8045c0,0 -0.114568,-0.118112 -0.251578,-0.205514 0,0.090946 -0.582291,0.367327 -0.220869,0.245672 0.360241,-0.119293 0.956705,0.178349 1.14805,0.266932 -0.0862215,-0.0637803 -0.270476,-0.135828 -0.370871,-0.175986 -0.308272,-0.120474 -0.304728,-0.131104 -0.304728,-0.131104z"/>
  </g>
  <path class="fil79" d="M40.5926 14.862l-0.0578747 -0.0177168c0,0 1.52246,0.90946 1.50592,1.30986 -0.0165356,0.40158 0.625992,-0.84568 -1.44805,-1.29214z"/>
  <path class="fil93" d="M41.3521 12.3403c0,0 -0.108663,0.252759 -0.0165356,0.29646 0.0897649,0.0413391 0.140553,0.135828 0.162994,-0.0496069 0.0224412,-0.186616 -0.0295279,-0.151183 -0.0295279,-0.151183 0,0 -0.113387,-0.0933082 -0.116931,-0.0956705z"/>
  <path class="fil93" d="M42.6678 10.1777c0.00118112,0.00944894 -0.0070867,0.020079 -0.0177168,0.0318902l0.00118112 0.00236223c-0.00354335,0.0118112 -0.00944894,0.0271657 -0.0188979,0.0448824l0.354335 -0.1689c0.0389769,0.00118112 0.0744104,0.0153545 0.101576,0.0425202 0.0141734,0.0153545 0.0259846,0.0342524 0.0330713,0.0566936l0 0c0.0389769,0.108663 -0.0165356,0.154726 -0.0696859,0.236223 0.0850404,0.0236223 0.141734,0.0803159 0.153545,0.185435l0 0c0.00354335,0.030709 0.00118112,0.0578747 -0.00590558,0.0862215 -0.0153545,0.0649614 -0.0566936,0.114568 -0.115749,0.151183l-0.00118112 0c-0.0448824,0.0283468 -0.101576,0.0460636 -0.164175,0.0566936 -0.14764,0.0248035 -0.342524,0.00944894 -0.484258,-0.00944894l-0.0637803 0.100395 -0.0448824 -0.0389769c-0.0318902,0.13701 -0.0992138,0.386225 -0.336618,0.250397 -0.216144,-0.121655 0.0437013,-0.304728 0.183073,-0.383863l-0.00236223 -0.00236223 -0.0283468 -0.0448824 -0.0188979 -0.0318902c-0.060237,-0.116931 -0.209058,-0.40158 -0.23268,-0.610637 -0.0188979,-0.161813 0.0259846,-0.288193 0.194884,-0.31772 0.0744104,-0.0141734 0.0838593,0.00118112 0.132285,0.0330713 0.0555125,-0.114568 0.132285,-0.170081 0.238586,-0.122836 0.0318902,0.0141734 0.0578747,0.0330713 0.0779537,0.0555125 0.0354335,-0.0165356 0.0744104,-0.0271657 0.114568,-0.0283468l0 0c0.0283468,-0.00236223 0.0566936,0.00118112 0.0779537,0.00826782l0.00118112 0.00118112c0.145277,0.0838593 0.0649614,0.249216 -0.0177168,0.346067l-0.0413391 0.070867zm-0.0377957 0.0814971l-0.0271657 0.0448824 0.0519691 -0.0259846 -0.0248035 -0.0188979z"/>
  <g id="_83954824">
   <path id="_122325936" class="fil84" d="M46.1203 19.3514c0.0791348,-0.0625992 0.161813,-0.121655 0.219688,-0.161813 0.246853,-0.172443 0.323626,-0.236223 0.347248,-0.261027l0.00826782 0c0.607094,-0.131104 1.05592,0.115749 1.36655,0.42284l-1.94176 0z"/>
   <path id="_124293792" class="fil80" d="M46.7781 19.3113l-0.0188979 0.040158 -0.498431 0 0.070867 -0.0236223c0.290555,-0.0814971 0.446462,-0.0165356 0.446462,-0.0165356z"/>
   <path id="_46567744" class="fil79" d="M46.699 18.9168c0,0 0.248035,-0.5504 0.532684,-0.587015 0.350792,-0.0448824 0.636622,-0.00826782 0.798435,0.40158 0.0590558,0.150002 0.12638,0.372052 0.206695,0.620086l-2.11656 0c0.0791348,-0.0625992 0.160632,-0.121655 0.218507,-0.161813 0.36969,-0.256302 0.360241,-0.272838 0.360241,-0.272838z"/>
   <path id="_125057976" class="fil86" d="M48.1352 19.3514c-0.28583,-0.344886 -0.759458,-0.603551 -1.43978,-0.42284l-0.00826782 0c-0.0224412,0.0248035 -0.0992138,0.0874027 -0.348429,0.261027 -0.0578747,0.040158 -0.139372,0.0992138 -0.218507,0.161813l2.01499 0z"/>
   <path id="_46712928" class="fil84" d="M46.5962 19.3514l0.00944894 -0.00354335c0.238586,-0.0850404 0.409848,-0.0862215 0.577566,-0.0755915 0.0649614,0.00472447 0.119293,0.0248035 0.186616,0.030709 0.30709,0.030709 0.39095,-0.0224412 0.530321,0.0484258l-1.30395 0z"/>
   <path id="_124281264" class="fil84" d="M46.699 18.9168c0,0 0.100395,-0.226774 0.250397,-0.399218 0.0413391,0.157089 0.97324,0.548038 0.420478,0.395674 -0.414572,-0.115749 -0.902373,0.196065 -1.21419,0.438194l-0.0366146 0c0.0791348,-0.0625992 0.160632,-0.120474 0.219688,-0.161813 0.36969,-0.256302 0.360241,-0.272838 0.360241,-0.272838z"/>
  </g>
  <path class="fil94" d="M45.6076 18.0333c0.107482,-0.0637803 0.226774,-0.0696859 0.266932,-0.00944894 0.040158,0.0566936 -0.0141734,0.155907 -0.122836,0.220869 -0.106301,0.0649614 -0.225593,0.0696859 -0.266932,0.0118112 -0.040158,-0.0590558 0.0165356,-0.159451 0.122836,-0.223231z"/>
  <path class="fil95" d="M52.9577 8.48278l0 10.8686 0 0.500794 -0.500794 0 -11.9612 0 -0.500794 0 0 -0.500794 0 -10.8686 0 -0.500794 0.500794 0 11.9612 0 0.500794 0 0 0.500794zm-1.00159 10.3678l0 -9.86705 -10.9596 0 0 9.86705 10.9596 0z"/>
  <g id="_84907448">
   <path id="_46386968" class="fil38" d="M54.4046 35.3685l0 2.78035c0,0.709851 -0.787805,1.2886 -1.75278,1.2886l-38.1583 0c-0.963791,0 -1.7516,-0.578747 -1.7516,-1.2886l0 -0.442919c0.240948,0.499612 0.891743,0.858672 1.6512,0.858672l38.1583 0c0.963791,0 1.7516,-0.578747 1.7516,-1.2886l0 -1.9075 0.101576 0z"/>
   <g>
    <path id="_81938112" class="fil39" d="M54.4129 35.2174c0,0.927177 0,1.85435 0,2.78035 0,0.709851 -0.788986,1.28978 -1.75278,1.28978 -12.7194,0 -25.4377,0 -38.1572,0 -0.964973,0 -1.7516,-0.579928 -1.7516,-1.28978 0,-0.14764 0,-0.295279 0,-0.442919 0.240948,0.499612 0.890562,0.859853 1.65002,0.859853 12.7206,0 25.4377,0 38.1583,0 0.963791,0 1.75278,-0.579928 1.75278,-1.28978 0,-0.635441 0,-1.27206 0,-1.9075 0.0330713,0 0.0661425,0 0.100395,0z"/>
    <path id="_126500184" class="fil40" d="M54.4188 35.0674c0,0.927177 0,1.85435 0,2.78035 0,0.709851 -0.787805,1.28978 -1.7516,1.28978 -12.7194,0 -25.4377,0 -38.1572,0 -0.964973,0 -1.7516,-0.579928 -1.7516,-1.28978 0,-0.14764 0,-0.294098 0,-0.441738 0.240948,0.498431 0.890562,0.858672 1.65002,0.858672 12.7206,0 25.4377,0 38.1583,0 0.963791,0 1.75278,-0.579928 1.75278,-1.2886 0,-0.636622 0,-1.27324 0,-1.90868 0.0330713,0 0.0661425,0 0.0992138,0z"/>
    <path id="_123940280" class="fil41" d="M54.427 34.9162c0,0.927177 0,1.85435 0,2.78153 0,0.70867 -0.787805,1.2886 -1.7516,1.2886 -12.7194,0 -25.4377,0 -38.1572,0 -0.964973,0 -1.75278,-0.579928 -1.75278,-1.2886 0,-0.14764 0,-0.295279 0,-0.442919 0.240948,0.498431 0.891743,0.858672 1.6512,0.858672 12.7206,0 25.4377,0 38.1583,0 0.963791,0 1.7516,-0.579928 1.7516,-1.2886 0,-0.636622 0,-1.27324 0,-1.90868 0.0342524,0 0.0673237,0 0.100395,0z"/>
    <path id="_128896312" class="fil42" d="M54.4353 34.7662c0,0.927177 0,1.85435 0,2.78153 0,0.70867 -0.787805,1.2886 -1.7516,1.2886 -12.7194,0 -25.4377,0 -38.1572,0 -0.963791,0 -1.75278,-0.579928 -1.75278,-1.2886 0,-0.14764 0,-0.295279 0,-0.442919 0.242129,0.498431 0.892924,0.858672 1.6512,0.858672 12.7206,0 25.4377,0 38.1583,0 0.963791,0 1.7516,-0.579928 1.7516,-1.2886 0,-0.636622 0,-1.27324 0,-1.90868 0.0342524,0 0.0673237,0 0.100395,0z"/>
    <path id="_124073424" class="fil43" d="M54.4424 34.6162c0,0.927177 0,1.85435 0,2.78153 0,0.70867 -0.788986,1.2886 -1.75278,1.2886 -12.7183,0 -25.4365,0 -38.156,0 -0.964973,0 -1.75278,-0.579928 -1.75278,-1.2886 0,-0.14764 0,-0.295279 0,-0.442919 0.240948,0.499612 0.891743,0.858672 1.6512,0.858672 12.7206,0 25.4377,0 38.1572,0 0.963791,0 1.75278,-0.579928 1.75278,-1.2886 0,-0.636622 0,-1.27324 0,-1.90868 0.0330713,0 0.0673237,0 0.100395,0z"/>
    <path id="_124281552" class="fil44" d="M54.4507 34.4674c0,0.925996 0,1.85317 0,2.78035 0,0.70867 -0.787805,1.2886 -1.75278,1.2886 -12.7194,0 -25.4377,0 -38.156,0 -0.963791,0 -1.75278,-0.579928 -1.75278,-1.2886 0,-0.14764 0,-0.295279 0,-0.442919 0.242129,0.499612 0.891743,0.858672 1.6512,0.858672 12.7206,0 25.4365,0 38.1572,0 0.963791,0 1.75278,-0.579928 1.75278,-1.2886 0,-0.636622 0,-1.27324 0,-1.9075 0.0330713,0 0.0673237,0 0.100395,0z"/>
    <path id="_122667872" class="fil45" d="M54.4589 34.3162c0,0.925996 0,1.85317 0,2.78035 0,0.70867 -0.787805,1.2886 -1.75278,1.2886 -12.7194,0 -25.4377,0 -38.1572,0 -0.963791,0 -1.7516,-0.579928 -1.7516,-1.2886 0,-0.14764 0,-0.295279 0,-0.442919 0.242129,0.499612 0.891743,0.858672 1.65002,0.858672 12.7206,0 25.4377,0 38.1583,0 0.963791,0 1.75278,-0.579928 1.75278,-1.2886 0,-0.636622 0,-1.27206 0,-1.9075 0.0330713,0 0.0661425,0 0.100395,0z"/>
    <path id="_83352472" class="fil46" d="M54.466 34.1662c0,0.927177 0,1.85317 0,2.78035 0,0.70867 -0.787805,1.2886 -1.75278,1.2886 -12.7194,0 -25.4377,0 -38.1572,0 -0.963791,0 -1.7516,-0.579928 -1.7516,-1.2886 0,-0.14764 0,-0.295279 0,-0.442919 0.242129,0.499612 0.891743,0.858672 1.65002,0.858672 12.7206,0 25.4377,0 38.1583,0 0.963791,0 1.75278,-0.578747 1.75278,-1.2886 0,-0.636622 0,-1.27206 0,-1.9075 0.0330713,0 0.0661425,0 0.100395,0z"/>
   </g>
   <path id="_83980128" class="fil47" d="M54.4731 34.0173l0 2.78153c0,0.70867 -0.788986,1.28742 -1.75278,1.28742l-38.1583 0c-0.963791,0 -1.7516,-0.578747 -1.7516,-1.28742l0 -0.4441c0.240948,0.499612 0.891743,0.858672 1.6512,0.858672l38.1583 0c0.963791,0 1.7516,-0.578747 1.7516,-1.2886l0 -1.9075 0.101576 0z"/>
  </g>
  <polygon class="fil96" points="9.90839,39.0395 54.3101,39.0395 54.3101,40.0623 9.90839,40.0623 "/>
  <path class="fil97" d="M47.7006 36.3902c1.73979,-0.346067 3.42996,0.783081 3.77603,2.52287 0.346067,1.73979 -0.783081,3.43114 -2.52405,3.77721 -1.7386,0.346067 -3.42878,-0.784262 -3.77485,-2.52405 -0.346067,-1.73979 0.783081,-3.42996 2.52287,-3.77603z"/>
  <g id="_86624408">
   <path id="_78845800" class="fil98" d="M51.7837 40.1887l2.5205 -2.25003 0 -2.27011 -3.72052 3.31776 0 0.875208 0 0.00472447c0.505518,0.0933082 0.890562,0.17953 1.06419,0.251578 0.0389769,0.0165356 0.0850404,0.0413391 0.135828,0.070867zm1.41498 -6.70874c0.522054,0.248035 0.917728,0.72993 1.05474,1.31104l-3.70989 3.22917c-0.134647,-0.506699 -0.589377,-0.882294 -1.12442,-0.882294l-0.432289 0 4.21186 -3.65792z"/>
   <g>
    <path id="_83165944" class="fil99" d="M51.6987 40.1414l2.60554 -2.32562 0 -2.27011 -3.72052 3.31776 0 0.998044 0 0.00472447c0.505518,0.0933082 0.890562,0.17953 1.06419,0.251578l0.050788 0.0236223zm1.40671 -6.70284c0.537408,0.219688 0.954342,0.682686 1.12088,1.25317l-3.71225 3.23272c-0.162994,-0.457092 -0.594102,-0.786624 -1.0949,-0.786624l-0.572842 0 4.25911 -3.69926z"/>
    <path id="_87092056" class="fil100" d="M51.6077 40.1025l2.69649 -2.40712 0 -2.26893 -3.72052 3.31658 0 1.11852 0 0.00472447c0.470085,0.0862215 0.83505,0.166537 1.02403,0.236223zm1.40199 -6.6993c0.552763,0.191341 0.993319,0.635441 1.18702,1.19529l-3.71816 3.23744c-0.185435,-0.411029 -0.590558,-0.69804 -1.05946,-0.69804l-0.709851 0 4.30045 -3.73469z"/>
    <path id="_45861928" class="fil101" d="M51.5073 40.0706l2.79688 -2.49688 0 -2.26893 -3.72052 3.31658 0 1.24017 0 0.00472447c0.398036,0.0732292 0.720481,0.142915 0.923633,0.204333zm1.4008 -6.70048c0.569298,0.161813 1.0323,0.588196 1.25435,1.13742l-3.72642 3.24453c-0.199609,-0.364965 -0.58111,-0.614181 -1.01694,-0.614181l-0.848042 0 4.33706 -3.76776z"/>
    <path id="_45840432" class="fil102" d="M51.4046 40.041l2.89964 -2.58901 0 -2.21223 -0.00118112 -0.0566936 -3.71934 3.31658 0 1.36183 0 0.00472447c0.335437,0.0614181 0.617724,0.120474 0.820876,0.174805zm1.39608 -6.69693c0.585834,0.128742 1.07482,0.533865 1.32403,1.076l-3.73587 3.25161c-0.209058,-0.321264 -0.566936,-0.533865 -0.969697,-0.533865l-0.986233 0 4.36777 -3.79375z"/>
    <path id="_46374544" class="fil103" d="M51.2995 40.0139l3.00476 -2.68232 0 -2.09176c0,-0.0578747 -0.00236223,-0.113387 -0.00826782,-0.171262l-3.71225 3.31067 0 1.4823 0 0.00472447c0.282287,0.0519691 0.524416,0.101576 0.715757,0.14764zm1.38781 -6.69103c0.605913,0.0933082 1.1197,0.480715 1.39726,1.0134l-3.74768 3.26224c-0.213782,-0.279925 -0.546857,-0.460636 -0.917728,-0.460636l-1.12442 0 4.39257 -3.81501z"/>
    <path id="_46263008" class="fil104" d="M51.192 39.9879l3.11224 -2.77799 0 -1.9701c0,-0.0956705 -0.0070867,-0.188979 -0.020079,-0.281106l-3.70162 3.30004 0.00118112 0.0720481 0 1.53073 0 0.00472447c0.230318,0.0425202 0.437013,0.0826782 0.608275,0.121655zm1.37364 -6.67922c0.625992,0.0543314 1.16694,0.421659 1.47285,0.946075l-3.7595 3.27287c-0.213782,-0.238586 -0.520873,-0.389769 -0.859853,-0.389769l-1.26261 0 4.40911 -3.82918z"/>
    <path id="_84578096" class="fil105" d="M51.0821 39.9643l3.22209 -2.87602 0 -1.84845c0,-0.132285 -0.0141734,-0.261027 -0.0389769,-0.386225l-3.69453 3.29414c0.00944894,0.0590558 0.0129923,0.120474 0.0129923,0.183073l0 1.53073 0 0.00472447c0.184254,0.0330713 0.350792,0.0673237 0.498431,0.0980327zm1.35356 -6.66268c0.647252,0.0118112 1.22009,0.357878 1.55435,0.875208l-3.77485 3.28587c-0.207877,-0.20079 -0.488982,-0.324807 -0.796073,-0.324807l-1.40199 0 4.41856 -3.83627z"/>
    <path id="_86855840" class="fil106" d="M50.9723 39.9418l3.33193 -2.97405 0 -1.72797c0,-0.167719 -0.0212601,-0.330713 -0.0614181,-0.48662l-3.69217 3.29295c0.0224412,0.090946 0.0330713,0.186616 0.0330713,0.284649l0 1.53073 0 0.00472447 0.388587 0.0755915zm1.32639 -6.64142l0.103938 0c0.629535,0 1.19057,0.316539 1.53663,0.800797l-3.79139 3.30122c-0.199609,-0.165356 -0.453549,-0.26457 -0.728749,-0.26457l-1.53781 0 4.41738 -3.83745z"/>
   </g>
   <path id="_122700656" class="fil107" d="M50.8636 39.9194l3.44059 -3.07209 0 -1.6075c0,-0.203152 -0.030709,-0.399218 -0.0885838,-0.582291l-3.69335 3.29177c0.040158,0.120474 0.0614181,0.248035 0.0614181,0.381501l0 1.53073 0 0.00472447 0.279925 0.0531503zm1.29687 -6.61898l0.242129 0c0.597645,0 1.13269,0.284649 1.4823,0.728749l-3.81028 3.31776c-0.186616,-0.132285 -0.413391,-0.209058 -0.65552,-0.209058l-1.676 0 4.41738 -3.83745z"/>
  </g>
  <path class="fil108" d="M11.712 32.3425l40.4615 0c1.07245,0 1.95475,0.903554 1.94884,1.98546l-0.0590558 9.80681c-0.00590558,1.08308 -0.887019,1.98664 -1.94884,1.98664l-40.1367 0c-1.06182,0 -1.9205,-0.892924 -1.94884,-1.98664l-0.265751 -9.80681c-0.0283468,-1.09253 0.876389,-1.98546 1.94884,-1.98546zm3.46422 4.9229l34.2063 0c0.656701,0 1.19411,0.558668 1.19411,1.22127l0 1.5697c0,0.662607 -0.545676,1.22127 -1.19411,1.22127l-34.2063 0c-0.647252,0 -1.19411,-0.549219 -1.19411,-1.22127l0 -1.5697c0,-0.672056 0.537408,-1.22127 1.19411,-1.22127z"/>
  <path class="fil109" d="M10.0997 35.639c0,-0.146458 0.0141734,-0.289374 0.0413391,-0.428745l-0.0767726 0c0,-0.604732 0.244491,-1.15868 0.636622,-1.55789 0.394493,-0.40158 0.937807,-0.651977 1.53663,-0.651977l39.428 0c0.598826,0 1.14214,0.250397 1.53663,0.651977 0.392131,0.399218 0.636622,0.953161 0.636622,1.55789l-0.00590558 0c0.0271657,0.139372 0.0413391,0.282287 0.0413391,0.428745l-0.542133 0c0,-0.459454 -0.184254,-0.878751 -0.479533,-1.17875 -0.295279,-0.301185 -0.702765,-0.487801 -1.15159,-0.487801l-39.428 0c-0.448824,0 -0.85631,0.186616 -1.15159,0.487801 -0.295279,0.300004 -0.479533,0.7193 -0.479533,1.17875l-0.542133 0z"/>
  <path class="fil110" d="M50.4148 40.7143c0,0.161813 -0.0283468,0.31772 -0.0767726,0.464179l0.112206 0c0,0.399218 -0.160632,0.764183 -0.420478,1.03112l-0.00118112 0.00118112c-0.261027,0.265751 -0.620086,0.432289 -1.01576,0.432289l-33.3229 0c-0.395674,0 -0.754734,-0.166537 -1.01576,-0.432289l-0.00118112 -0.00118112c-0.257483,-0.265751 -0.419296,-0.630716 -0.419296,-1.03112l0.040158 0c-0.0484258,-0.146458 -0.0755915,-0.302366 -0.0755915,-0.464179l0.540952 0c0,0.25394 0.102757,0.485439 0.26457,0.651977l0.00118112 0.00118112c0.162994,0.165356 0.385044,0.268114 0.629535,0.268114l33.3229 0c0.245672,0 0.467722,-0.102757 0.629535,-0.268114l0.00118112 -0.00118112c0.161813,-0.165356 0.263389,-0.396855 0.263389,-0.651977l0.543314 0z"/>
  <path class="fil111" d="M12.2376 31.987l39.428 0c0.657882,0 1.25789,0.2752 1.69018,0.716938 0.431108,0.438194 0.700402,1.04529 0.700402,1.71026l-0.0649614 9.64264c0,0.664969 -0.269295,1.27088 -0.700402,1.71144 -0.432289,0.441738 -1.0323,0.716938 -1.69018,0.716938l-39.2473 0c-0.657882,0 -1.25789,-0.2752 -1.69018,-0.716938 -0.431108,-0.440557 -0.700402,-1.04647 -0.700402,-1.71144l-0.115749 -9.64264c0,-0.664969 0.269295,-1.27206 0.700402,-1.71026 0.432289,-0.441738 1.0323,-0.716938 1.69018,-0.716938zm39.428 0.977965l-39.428 0c-0.388587,0 -0.741741,0.161813 -0.995682,0.421659 -0.256302,0.261027 -0.418115,0.625992 -0.418115,1.02757l0.116931 9.64264c0,0.40158 0.159451,0.767726 0.415753,1.02875 0.255121,0.259846 0.609456,0.421659 0.996863,0.421659l39.2473 0c0.387406,0 0.741741,-0.161813 0.996863,-0.421659 0.256302,-0.261027 0.415753,-0.627173 0.415753,-1.02875l0.0661425 -9.64264c0,-0.40158 -0.161813,-0.766545 -0.418115,-1.02757 -0.25394,-0.259846 -0.607094,-0.421659 -0.995682,-0.421659zm-36.0465 3.6839l33.3229 0c0.453549,0 0.869302,0.191341 1.16931,0.498431l0.00236223 0.00236223c0.29646,0.304728 0.481896,0.724025 0.481896,1.17994l0 1.53309c0,0.455911 -0.185435,0.875208 -0.481896,1.17994l-0.00236223 0.00236223c-0.300004,0.30709 -0.715757,0.498431 -1.16931,0.498431l-33.3229 0c-0.45473,0 -0.870483,-0.191341 -1.17049,-0.498431l-0.00236223 -0.00236223c-0.29646,-0.304728 -0.481896,-0.724025 -0.481896,-1.17994l0 -1.53309c0,-0.455911 0.185435,-0.875208 0.481896,-1.17994l1.17285 -0.500794zm33.3229 0.977965l-33.3229 0c-0.185435,0 -0.354335,0.0767726 -0.474809,0.20079l-0.00118112 0.00236223c-0.124017,0.125198 -0.20079,0.303547 -0.20079,0.499612l0 1.53309c0,0.194884 0.0767726,0.374414 0.20079,0.499612l0.00118112 0.00236223c0.120474,0.124017 0.289374,0.20079 0.474809,0.20079l33.3229 0c0.184254,0 0.353154,-0.0767726 0.473628,-0.20079l0.00236223 -0.00236223c0.122836,-0.125198 0.199609,-0.304728 0.199609,-0.499612l0 -1.53309c0,-0.196065 -0.0767726,-0.374414 -0.199609,-0.499612l-0.00236223 -0.00236223c-0.120474,-0.124017 -0.289374,-0.20079 -0.473628,-0.20079z"/>
  <path class="fil31" d="M50.4927 40.7379l0.493707 0.517329c-0.0826782,0.17953 -0.196065,0.342524 -0.330713,0.481896l-0.00236223 0.00118112c-0.303547,0.311815 -0.724025,0.505518 -1.18702,0.505518l-0.294098 0 -0.167719 -0.63426 0.461817 0c0.287011,0 0.548038,-0.120474 0.735836,-0.312996l0.00118112 -0.00118112c0.145277,-0.14764 0.248035,-0.341343 0.289374,-0.557487z"/>
  <path class="fil112" d="M49.8786 39.7387l9.43949 -8.43199 0.106301 -2.26302 -10.7092 9.4513 1.1634 1.24372zm-1.91695 -1.689l11.5029 -9.86351 0.105119 -2.21696 -12.7714 10.8427 1.1634 1.23781z"/>
  <circle class="fil113" transform="matrix(0.768703 -0.152856 0.152856 0.768708 48.1041 39.1686)" r="4.54258"/>
  <circle class="fil70" transform="matrix(0.227967 -0.0453312 0.0453309 0.227968 48.1254 38.0937)" r="4.54258"/>
  <ellipse class="fil114" cx="48.0889" cy="39.0496" rx="2.06753" ry="2.06754"/>
  <path class="fil115" d="M48.186 37.3623c1.22836,0 2.22286,0.9945 2.22286,2.22286 0,1.22718 -0.9945,2.22286 -2.22286,2.22286 -1.22718,0 -2.22286,-0.995682 -2.22286,-2.22286 0,-1.22836 0.995682,-2.22286 2.22286,-2.22286z"/>
  <ellipse class="fil116" cx="48.0795" cy="39.0842" rx="2.14984" ry="2.14985"/>
  <path class="fil117" d="M50.2046 38.7524c0.0165356,0.108663 0.0248035,0.218507 0.0248035,0.331894 0,1.18702 -0.96261,2.14963 -2.14963,2.14963 -1.18702,0 -2.14963,-0.96261 -2.14963,-2.14963 0,-0.0661425 0.00236223,-0.131104 0.00826782,-0.196065 0.159451,1.02875 1.05001,1.81774 2.12483,1.81774 1.12088,0 2.04215,-0.857491 2.14136,-1.95357z"/>
  <path class="fil118" d="M48.1447 40.6068c1.05946,0 1.76459,-0.616543 1.76459,-1.37718 0,-0.759458 -0.705127,-0.93072 -1.76459,-0.93072 -1.05828,0 -1.91695,0.171262 -1.91695,0.93072 0,0.760639 0.858672,1.37718 1.91695,1.37718z"/>
  <path class="fil119" d="M48.1908 36.5863c1.0571,0 1.76105,0.635441 1.76105,1.4197 0,0.783081 -0.703946,0.959067 -1.76105,0.959067 -1.05592,0 -1.91341,-0.175986 -1.91341,-0.959067 0,-0.784262 0.857491,-1.4197 1.91341,-1.4197z"/>
  <polygon class="fil119" points="49.1404,37.9918 49.7498,38.5564 47.6699,40.7603 47.0616,40.1958 "/>
  <ellipse class="fil120" cx="48.1654" cy="40.4295" rx="1.10549" ry="0.59061"/>
  <polygon class="fil121" points="48.8782,37.6398 49.399,38.1607 47.4301,40.2336 46.9081,39.7115 "/>
  <path class="fil121" d="M58.5102 25.4885l0 2.14136 -1.26143 0c-0.255121,0 -0.471266,0.172443 -0.471266,0.376776l0 5.46857c0,0.204333 0.21142,0.377957 0.471266,0.377957l1.30159 0 -0.0980327 2.19452c1.23427,-0.419296 1.52837,0.0874027 2.15554,-1.06419 0,-2.91263 0,-5.26069 0,-8.17333 -0.314177,-1.21773 -0.738198,-1.69963 -2.09766,-1.32167z"/>
  <polygon class="fil122" points="59.7468,24.5353 59.7468,36.0855 58.6649,36.0855 58.6649,24.5353 "/>
  <path class="fil122" d="M59.3145 25.8381l0 1.65711 0 0.440557 -0.441738 0 -1.87798 0 0.00944894 0.00354335 -0.040158 5.26778 0.030709 0.00236223 1.87798 0 0.459454 0 -0.020079 0.460636 -0.0720481 1.80238c0.194884,-0.0354335 0.367327,-0.0543314 0.525597,-0.070867l0.00236223 0c0.382682,-0.0389769 0.118112,-0.0685048 0.399218,-0.531503l0 -8.01033c-0.12638,-0.466541 -0.291736,-0.787805 -0.530321,-0.937807 -0.193703,-0.121655 0.0566936,-0.151183 -0.322445,-0.0838593zm-0.882294 1.21537l0 -1.5638 0 -0.333075 0.324807 -0.090946c0.806703,-0.224412 0.883475,-0.180711 1.34884,0.113387 0.459454,0.291736 0.744104,0.804341 0.928358,1.52128l0.0153545 0.108663 0 8.17569 -0.0555125 0.210239c-0.523235,0.959067 -0.447643,1.01104 -1.13387,1.08072 -0.261027,0.0271657 -0.570479,0.0614181 -0.943712,0.187798l-0.609456 0.206695 0.0295279 -0.641346 0.0767726 -1.93585 -1.41852 0c-0.229137,0 -0.445281,-0.0803159 -0.605913,-0.209058 -0.19016,-0.151183 -0.30709,-0.36969 -0.30709,-0.610637l0 -5.40007c0,-0.24331 0.118112,-0.458273 0.304728,-0.608275 0.160632,-0.129923 0.379139,-0.21142 0.608275,-0.21142l1.43742 0z"/>
  <polygon class="fil17" points="26.268,58.1984 20.9991,63.752 19.466,63.3315 19.675,61.9366 20.6117,62.024 25.3208,57.0338 25.5405,56.8094 25.8924,56.8094 30.7634,56.8094 34.1496,56.8094 39.0206,56.8094 39.3725,56.8094 39.5922,57.0338 44.3013,62.024 45.238,61.9366 45.447,63.3315 43.8324,63.752 38.6509,58.2881 "/>
  <g id="_85859976">
   <path id="_78958312" class="fil123" d="M30.1693 26.0318c14.9777,0 27.1232,0.576385 27.1232,1.28624 0,0.709851 -12.1454,1.28624 -27.1232,1.28624 -14.9766,0 -27.122,-0.576385 -27.122,-1.28624 0,-0.709851 12.1454,-1.28624 27.122,-1.28624z"/>
   <g>
    <path id="_80779968" class="fil124" d="M30.2756 25.0503c14.6612,0 26.5503,0.576385 26.5503,1.28624 0,0.709851 -11.8891,1.28742 -26.5503,1.28742 -14.6612,0 -26.5503,-0.577566 -26.5503,-1.28742 0,-0.709851 11.8891,-1.28624 26.5503,-1.28624z"/>
    <path id="_78888600" class="fil125" d="M30.3819 24.0688c14.3447,0 25.9787,0.576385 25.9787,1.28624 0,0.709851 -11.634,1.28624 -25.9787,1.28624 -14.347,0 -25.9798,-0.576385 -25.9798,-1.28624 0,-0.709851 11.6328,-1.28624 25.9798,-1.28624z"/>
    <path id="_84217176" class="fil126" d="M30.487 23.0873c14.0293,0 25.4082,0.576385 25.4082,1.28624 0,0.709851 -11.3789,1.28742 -25.4082,1.28742 -14.0305,0 -25.4082,-0.577566 -25.4082,-1.28742 0,-0.709851 11.3777,-1.28624 25.4082,-1.28624z"/>
    <path id="_79640544" class="fil127" d="M30.5921 22.1058c13.7139,0 24.8377,0.577566 24.8377,1.28742 0,0.709851 -11.1238,1.28624 -24.8377,1.28624 -13.7151,0 -24.8377,-0.576385 -24.8377,-1.28624 0,-0.709851 11.1226,-1.28742 24.8377,-1.28742z"/>
    <path id="_78799504" class="fil128" d="M30.6972 21.1243c13.3986,0 24.266,0.576385 24.266,1.28624 0,0.709851 -10.8675,1.28742 -24.266,1.28742 -13.3998,0 -24.266,-0.577566 -24.266,-1.28742 0,-0.709851 10.8663,-1.28624 24.266,-1.28624z"/>
    <path id="_82202488" class="fil129" d="M30.8023 20.1439c13.0832,0 23.6944,0.576385 23.6944,1.28624 0,0.709851 -10.6112,1.28624 -23.6944,1.28624 -13.0844,0 -23.6932,-0.576385 -23.6932,-1.28624 0,-0.709851 10.6088,-1.28624 23.6932,-1.28624z"/>
    <path id="_86823464" class="fil130" d="M30.9075 19.1624c12.7679,0 23.1239,0.576385 23.1239,1.28624 0,0.709851 -10.356,1.28742 -23.1239,1.28742 -12.7679,0 -23.1227,-0.577566 -23.1227,-1.28742 0,-0.709851 10.3549,-1.28624 23.1227,-1.28624z"/>
    <path id="_46685088" class="fil131" d="M31.0149 18.1809c12.4525,0 22.5511,0.575204 22.5511,1.28506 0,0.711032 -10.0985,1.28624 -22.5511,1.28624 -12.4525,0 -22.5522,-0.575204 -22.5522,-1.28624 0,-0.709851 10.0997,-1.28506 22.5522,-1.28506z"/>
    <path id="_129306512" class="fil132" d="M31.1189 17.1994c12.1372,0 21.9806,0.576385 21.9806,1.28624 0,0.709851 -9.84343,1.28742 -21.9806,1.28742 -12.1383,0 -21.9806,-0.577566 -21.9806,-1.28742 0,-0.709851 9.84225,-1.28624 21.9806,-1.28624z"/>
    <path id="_85767424" class="fil133" d="M31.224 16.2191c11.8218,0 21.4101,0.576385 21.4101,1.28624 0,0.709851 -9.58831,1.28624 -21.4101,1.28624 -11.8218,0 -21.4089,-0.576385 -21.4089,-1.28624 0,-0.709851 9.58713,-1.28624 21.4089,-1.28624z"/>
    <path id="_123598216" class="fil134" d="M31.3315 15.2364c11.5053,0 20.8373,0.575204 20.8373,1.28624 0,0.711032 -9.332,1.28624 -20.8373,1.28624 -11.5076,0 -20.8384,-0.575204 -20.8384,-1.28624 0,-0.711032 9.33082,-1.28624 20.8384,-1.28624z"/>
    <path id="_80347912" class="fil135" d="M31.4342 14.2561c11.1899,0 20.2668,0.576385 20.2668,1.28624 0,0.709851 -9.07688,1.28624 -20.2668,1.28624 -11.1923,0 -20.2668,-0.576385 -20.2668,-1.28624 0,-0.709851 9.07452,-1.28624 20.2668,-1.28624z"/>
    <path id="_86437760" class="fil136" d="M31.5405 13.2734c10.8745,0 19.6951,0.575204 19.6951,1.28624 0,0.711032 -8.82058,1.28624 -19.6951,1.28624 -10.8757,0 -19.6963,-0.575204 -19.6963,-1.28624 0,-0.711032 8.82058,-1.28624 19.6963,-1.28624z"/>
    <path id="_83986512" class="fil137" d="M31.6457 12.2931c10.5604,0 19.1235,0.575204 19.1235,1.28506 0,0.711032 -8.5631,1.28624 -19.1235,1.28624 -10.5604,0 -19.1235,-0.575204 -19.1235,-1.28624 0,-0.709851 8.5631,-1.28506 19.1235,-1.28506z"/>
    <path id="_84309520" class="fil138" d="M31.7496 11.3116c10.245,0 18.553,0.576385 18.553,1.28624 0,0.711032 -8.30798,1.28742 -18.553,1.28742 -10.245,0 -18.553,-0.576385 -18.553,-1.28742 0,-0.709851 8.30798,-1.28624 18.553,-1.28624z"/>
    <path id="_78929864" class="fil139" d="M31.8571 10.33c9.92847,0 17.9813,0.575204 17.9813,1.28506 0,0.711032 -8.05285,1.28624 -17.9813,1.28624 -9.92965,0 -17.9825,-0.575204 -17.9825,-1.28624 0,-0.709851 8.05285,-1.28506 17.9825,-1.28506z"/>
    <path id="_79510920" class="fil140" d="M31.9622 9.34854c9.61311,0 17.4108,0.575204 17.4108,1.28624 0,0.711032 -7.79773,1.28624 -17.4108,1.28624 -9.61429,0 -17.4108,-0.575204 -17.4108,-1.28624 0,-0.711032 7.79655,-1.28624 17.4108,-1.28624z"/>
    <path id="_44694128" class="fil141" d="M32.0661 8.36821c9.29893,0 16.8404,0.575204 16.8404,1.28506 0,0.711032 -7.54143,1.28624 -16.8404,1.28624 -9.29657,0 -16.838,-0.575204 -16.838,-1.28624 0,-0.709851 7.54143,-1.28506 16.838,-1.28506z"/>
    <path id="_122316032" class="fil142" d="M32.1724 7.38552c8.98239,0 16.2675,0.576385 16.2675,1.28624 0,0.711032 -7.28513,1.28624 -16.2675,1.28624 -8.98358,0 -16.2675,-0.575204 -16.2675,-1.28624 0,-0.709851 7.28395,-1.28624 16.2675,-1.28624z"/>
    <path id="_124633352" class="fil143" d="M32.2776 6.4052c8.66822,0 15.697,0.575204 15.697,1.28506 0,0.711032 -7.02883,1.28624 -15.697,1.28624 -8.66704,0 -15.697,-0.575204 -15.697,-1.28624 0,-0.709851 7.03001,-1.28506 15.697,-1.28506z"/>
    <path id="_80935656" class="fil144" d="M32.3827 5.42369c8.35286,0 15.1254,0.575204 15.1254,1.28624 0,0.711032 -6.77252,1.28624 -15.1254,1.28624 -8.3505,0 -15.1254,-0.575204 -15.1254,-1.28624 0,-0.711032 6.77489,-1.28624 15.1254,-1.28624z"/>
    <path id="_83308136" class="fil145" d="M32.489 4.44218c8.03632,0 14.5537,0.575204 14.5537,1.28506 0,0.711032 -6.5174,1.28624 -14.5537,1.28624 -8.0375,0 -14.5537,-0.575204 -14.5537,-1.28624 0,-0.709851 6.51622,-1.28506 14.5537,-1.28506z"/>
   </g>
   <path id="_79597968" class="fil146" d="M32.5941 3.46185c7.72096,0 13.9832,0.576385 13.9832,1.28624 0,0.709851 -6.26228,1.28624 -13.9832,1.28624 -7.72214,0 -13.9844,-0.576385 -13.9844,-1.28624 0,-0.709851 6.26228,-1.28624 13.9844,-1.28624z"/>
  </g>
  <ellipse class="fil31" cx="31.2023" cy="4.70989" rx="2.40169" ry="2.00138"/>
  <g id="_79833320">
   <path id="_79334088" class="fil147" d="M31.7142 1.94766c3.33547,0 6.03905,3.18193 6.03905,7.1056 0,3.92485 -2.70358,7.10678 -6.03905,7.10678 -3.33547,0 -6.03905,-3.18193 -6.03905,-7.10678 0,-3.92367 2.70358,-7.1056 6.03905,-7.1056z"/>
   <g>
    <path id="_79050488" class="fil148" d="M31.811 2.10829c3.065,0 5.55125,2.91618 5.55125,6.51386 0,3.5965 -2.48625,6.51268 -5.55125,6.51268 -3.06736,0 -5.55361,-2.91618 -5.55361,-6.51268 0,-3.59768 2.48625,-6.51386 5.55361,-6.51386z"/>
    <path id="_124137376" class="fil149" d="M31.9067 2.26893c2.7957,0 5.06581,2.65043 5.06581,5.91976 0,3.27051 -2.27011,5.92212 -5.06581,5.92212 -2.79925,0 -5.06817,-2.65161 -5.06817,-5.92212 0,-3.26933 2.26893,-5.91976 5.06817,-5.91976z"/>
    <path id="_46601512" class="fil150" d="M32.0012 2.42838c2.52877,0 4.58037,2.38586 4.58037,5.3292 0,2.94216 -2.0516,5.32802 -4.58037,5.32802 -2.52877,0 -4.58155,-2.38586 -4.58155,-5.32802 0,-2.94334 2.05278,-5.3292 4.58155,-5.3292z"/>
    <path id="_123061824" class="fil151" d="M32.0957 2.58901c2.26066,0 4.09493,2.12129 4.09493,4.73746 0,2.61381 -1.83427,4.7351 -4.09493,4.7351 -2.26066,0 -4.09375,-2.12129 -4.09375,-4.7351 0,-2.61617 1.83309,-4.73746 4.09375,-4.73746z"/>
    <path id="_86263120" class="fil152" d="M32.1913 2.74964c1.99254,0 3.60713,1.85553 3.60713,4.14336 0,2.289 -1.61459,4.14336 -3.60713,4.14336 -1.99136,0 -3.60831,-1.85435 -3.60831,-4.14336 0,-2.28782 1.61695,-4.14336 3.60831,-4.14336z"/>
    <path id="_86379096" class="fil153" d="M32.287 2.91027c1.72325,0 3.12169,1.59096 3.12169,3.55162 0,1.96065 -1.39844,3.55044 -3.12169,3.55044 -1.72325,0 -3.12169,-1.58978 -3.12169,-3.55044 0,-1.96065 1.39844,-3.55162 3.12169,-3.55162z"/>
    <path id="_84220328" class="fil154" d="M32.3815 3.06972c1.45632,0 2.63625,1.32639 2.63625,2.95988 0,1.63348 -1.17994,2.95752 -2.63625,2.95752 -1.45395,0 -2.63507,-1.32403 -2.63507,-2.95752 0,-1.63348 1.18112,-2.95988 2.63507,-2.95988z"/>
    <path id="_46117584" class="fil155" d="M32.4772 3.23154c1.18702,0 2.14963,1.05946 2.14963,2.36578 0,1.30632 -0.96261,2.36578 -2.14963,2.36578 -1.18584,0 -2.14963,-1.05946 -2.14963,-2.36578 0,-1.30632 0.963791,-2.36578 2.14963,-2.36578z"/>
   </g>
   <path id="_86140744" class="fil156" d="M32.5728 3.39099c0.917728,0 1.66301,0.794892 1.66301,1.77404 0,0.979146 -0.745285,1.77404 -1.66301,1.77404 -0.918909,0 -1.66301,-0.794892 -1.66301,-1.77404 0,-0.979146 0.744104,-1.77404 1.66301,-1.77404z"/>
  </g>
  <ellipse class="fil31" cx="32.6022" cy="3.96386" rx="2.40169" ry="1.4707"/>
  <path class="fil157" d="M45.6974 1.58033c0.13701,0.0389769 0.220869,0.216144 0.220869,0.360241l0 2.602c0,0.175986 -0.148821,0.324807 -0.324807,0.324807l-28.1165 0c-0.174805,0 -0.324807,-0.146458 -0.324807,-0.324807l0 -2.66696c0,-0.0685048 0.0236223,-0.133466 0.0590558,-0.185435l1.17521 -1.11616 26.2326 -0.129923 1.07836 1.13623z"/>
  <rect class="fil158" x="17.5864" y="2.95064" width="28.5768" height="1.42073"/>
  <path class="fil31" d="M17.8927 1.06064l27.1503 0c0.0685048,0.386225 -0.00354335,0.526778 0.0259846,0.859853l-27.4421 0c0.0318902,-0.335437 0.196065,-0.474809 0.265751,-0.859853z"/>
  <path class="fil159" d="M45.9596 1.21183c0.113387,0.0625992 0.203152,0.155907 0.269295,0.262208l0.00354335 0.00590558c0.0814971,0.139372 0.131104,0.309453 0.131104,0.460636l0 2.38468c0,0.205514 -0.0862215,0.40158 -0.227956,0.540952l0 0.00118112c-0.13701,0.13701 -0.331894,0.227956 -0.542133,0.227956l-28.1165 0c-0.206695,0 -0.402761,-0.0874027 -0.543314,-0.227956 -0.138191,-0.138191 -0.226774,-0.331894 -0.226774,-0.542133l0 -2.44964c0,-0.0755915 0.0141734,-0.154726 0.0354335,-0.226774l0.00472447 -0.00826782c0.0236223,-0.0720481 0.0590558,-0.142915 0.0992138,-0.201971l0.0590558 -0.0696859 1.17521 -1.11616 0.303547 -0.121655 26.2326 -0.129923 0.191341 0 0.132285 0.138191 1.0193 1.07245zm-0.48662 2.99295l0 -2.26184 -0.0968516 -0.0578747 -0.947256 -0.995682 -25.8641 0.12638 -0.967335 0.918909 0 2.27011 27.8755 0z"/>
 </g>
</svg>
