<?xml version="1.0" encoding="UTF-8" standalone="no"?>
<!-- Creator: CorelDRAW -->

<svg
   xmlns:dc="http://purl.org/dc/elements/1.1/"
   xmlns:cc="http://creativecommons.org/ns#"
   xmlns:rdf="http://www.w3.org/1999/02/22-rdf-syntax-ns#"
   xmlns:svg="http://www.w3.org/2000/svg"
   xmlns="http://www.w3.org/2000/svg"
   xmlns:xlink="http://www.w3.org/1999/xlink"
   xmlns:sodipodi="http://sodipodi.sourceforge.net/DTD/sodipodi-0.dtd"
   xmlns:inkscape="http://www.inkscape.org/namespaces/inkscape"
   xml:space="preserve"
   width="64px"
   height="64px"
   style="shape-rendering:geometricPrecision; text-rendering:geometricPrecision; image-rendering:optimizeQuality; fill-rule:evenodd; clip-rule:evenodd"
   viewBox="0 0 64 64"
   id="svg4260"
   version="1.1"
   inkscape:version="0.48.1 r9760"
   sodipodi:docname="preferences-desktop-filetype-association.svg"><metadata
   id="metadata4537"><rdf:RDF><cc:Work
       rdf:about=""><dc:format>image/svg+xml</dc:format><dc:type
         rdf:resource="http://purl.org/dc/dcmitype/StillImage" /><dc:title></dc:title></cc:Work></rdf:RDF></metadata><sodipodi:namedview
   pagecolor="#ffffff"
   bordercolor="#666666"
   borderopacity="1"
   objecttolerance="10"
   gridtolerance="10"
   guidetolerance="10"
   inkscape:pageopacity="0"
   inkscape:pageshadow="2"
   inkscape:window-width="646"
   inkscape:window-height="480"
   id="namedview4535"
   showgrid="false"
   inkscape:zoom="4.15625"
   inkscape:cx="32"
   inkscape:cy="32"
   inkscape:window-x="0"
   inkscape:window-y="24"
   inkscape:window-maximized="0"
   inkscape:current-layer="svg4260" />
 <defs
   id="defs4262">
  <style
   type="text/css"
   id="style4264">
   
    .fil23 {fill:none}
    .fil35 {fill:#538CBA}
    .fil61 {fill:#5A93C4}
    .fil55 {fill:#73AEE4}
    .fil57 {fill:#82BDF0}
    .fil36 {fill:#91CAFA}
    .fil60 {fill:#A3D6FF}
    .fil16 {fill:#BFBFBF}
    .fil74 {fill:#DCF995}
    .fil18 {fill:#C9C9C9}
    .fil17 {fill:#CFCFCF}
    .fil26 {fill:white;fill-rule:nonzero}
    .fil34 {fill:#4F7FB3;fill-rule:nonzero}
    .fil63 {fill:#5481A8;fill-rule:nonzero}
    .fil75 {fill:#88A640;fill-rule:nonzero}
    .fil30 {fill:#8AC9FC;fill-rule:nonzero}
    .fil54 {fill:#BFBFBF;fill-rule:nonzero}
    .fil22 {fill:#CCCCCC;fill-rule:nonzero}
    .fil21 {fill:white;fill-rule:nonzero}
    .fil19 {fill:#BFBFBF;fill-rule:nonzero}
    .fil56 {fill:#C9C9C9;fill-rule:nonzero}
    .fil53 {fill:#CFCFCF;fill-rule:nonzero}
    .fil0 {fill:black;fill-opacity:0.000000}
    .fil38 {fill:#333333;fill-opacity:0.000000}
    .fil1 {fill:black;fill-opacity:0.003922}
    .fil2 {fill:black;fill-opacity:0.007843}
    .fil39 {fill:#333333;fill-opacity:0.011765}
    .fil3 {fill:black;fill-opacity:0.015686}
    .fil4 {fill:black;fill-opacity:0.019608}
    .fil5 {fill:black;fill-opacity:0.023529}
    .fil66 {fill:#DCF995;fill-opacity:0.023529}
    .fil40 {fill:#333333;fill-opacity:0.027451}
    .fil6 {fill:black;fill-opacity:0.027451}
    .fil7 {fill:black;fill-opacity:0.031373}
    .fil8 {fill:black;fill-opacity:0.035294}
    .fil41 {fill:#333333;fill-opacity:0.039216}
    .fil9 {fill:black;fill-opacity:0.043137}
    .fil10 {fill:black;fill-opacity:0.047059}
    .fil67 {fill:#DCF995;fill-opacity:0.047059}
    .fil11 {fill:black;fill-opacity:0.050980}
    .fil42 {fill:#333333;fill-opacity:0.054902}
    .fil12 {fill:black;fill-opacity:0.054902}
    .fil13 {fill:black;fill-opacity:0.058824}
    .fil43 {fill:#333333;fill-opacity:0.066667}
    .fil68 {fill:#DCF995;fill-opacity:0.074510}
    .fil44 {fill:#333333;fill-opacity:0.078431}
    .fil45 {fill:#333333;fill-opacity:0.094118}
    .fil69 {fill:#DCF995;fill-opacity:0.098039}
    .fil46 {fill:#333333;fill-opacity:0.105882}
    .fil47 {fill:#333333;fill-opacity:0.121569}
    .fil70 {fill:#DCF995;fill-opacity:0.121569}
    .fil71 {fill:#DCF995;fill-opacity:0.145098}
    .fil72 {fill:#DCF995;fill-opacity:0.172549}
    .fil73 {fill:#DCF995;fill-opacity:0.196078}
    .fil33 {fill:#191919;fill-rule:nonzero;fill-opacity:0.219608}
    .fil52 {fill:#ABD9FF;fill-rule:nonzero;fill-opacity:0.219608}
    .fil64 {fill:black;fill-opacity:0.321569}
    .fil58 {fill:#4C4C4C;fill-opacity:0.321569}
    .fil27 {fill:#A4A5A7;fill-opacity:0.439216}
    .fil14 {fill:url(#id0)}
    .fil31 {fill:url(#id1)}
    .fil32 {fill:url(#id2)}
    .fil29 {fill:url(#id3)}
    .fil28 {fill:url(#id4)}
    .fil15 {fill:url(#id5)}
    .fil59 {fill:url(#id6)}
    .fil65 {fill:url(#id7)}
    .fil62 {fill:url(#id8)}
    .fil37 {fill:url(#id9);fill-rule:nonzero}
    .fil20 {fill:url(#id10);fill-rule:nonzero}
    .fil24 {fill:url(#id11);fill-rule:nonzero}
    .fil25 {fill:url(#id12);fill-rule:nonzero}
    .fil51 {fill:url(#id13);fill-rule:nonzero}
    .fil48 {fill:url(#id14);fill-rule:nonzero}
    .fil50 {fill:url(#id15);fill-rule:nonzero}
    .fil49 {fill:url(#id16);fill-rule:nonzero}
   
  </style>
  <linearGradient
   id="id0"
   gradientUnits="userSpaceOnUse"
   x1="30.6181"
   y1="1.78349"
   x2="29.222"
   y2="61.222">
   <stop
   offset="0"
   style="stop-color:#EDEDED"
   id="stop4267" />
   <stop
   offset="1"
   style="stop-color:#D1CFCF"
   id="stop4269" />
  </linearGradient>
  <linearGradient
   id="id1"
   gradientUnits="userSpaceOnUse"
   x1="57.9657"
   y1="2.83704"
   x2="57.9657"
   y2="6.3922">
   <stop
   offset="0"
   style="stop-color:#6FAFE4"
   id="stop4272" />
   <stop
   offset="1"
   style="stop-color:#528BC7"
   id="stop4274" />
  </linearGradient>
  <linearGradient
   id="id2"
   gradientUnits="userSpaceOnUse"
   xlink:href="#id1"
   x1="2.06814"
   y1="2.83704"
   x2="2.06814"
   y2="6.3922">
  </linearGradient>
  <linearGradient
   id="id3"
   gradientUnits="userSpaceOnUse"
   x1="30.3098"
   y1="4.66896"
   x2="30.3098"
   y2="14.6234">
   <stop
   offset="0"
   style="stop-color:#7BBDF2"
   id="stop4278" />
   <stop
   offset="1"
   style="stop-color:#5C96D2"
   id="stop4280" />
  </linearGradient>
  <linearGradient
   id="id4"
   gradientUnits="userSpaceOnUse"
   xlink:href="#id1"
   x1="3.06264"
   y1="3.44532"
   x2="3.06264"
   y2="9.00484">
  </linearGradient>
  <linearGradient
   id="id5"
   gradientUnits="userSpaceOnUse"
   x1="29.6508"
   y1="15.0073"
   x2="30.4031"
   y2="55.6129">
   <stop
   offset="0"
   style="stop-color:white"
   id="stop4284" />
   <stop
   offset="1"
   style="stop-color:#E6E6E6"
   id="stop4286" />
  </linearGradient>
  <linearGradient
   id="id6"
   gradientUnits="userSpaceOnUse"
   x1="46.4604"
   y1="59.9889"
   x2="46.4604"
   y2="27.0405">
   <stop
   offset="0"
   style="stop-color:#6CADE6"
   id="stop4289" />
   <stop
   offset="1"
   style="stop-color:#85C2F5"
   id="stop4291" />
  </linearGradient>
  <linearGradient
   id="id7"
   gradientUnits="userSpaceOnUse"
   x1="19.681"
   y1="43.9316"
   x2="44.1206"
   y2="49.1876">
   <stop
   offset="0"
   style="stop-color:#91B837"
   id="stop4294" />
   <stop
   offset="0.580392"
   style="stop-color:#B7DD5F"
   id="stop4296" />
   <stop
   offset="1"
   style="stop-color:#A8CE52"
   id="stop4298" />
  </linearGradient>
  <linearGradient
   id="id8"
   gradientUnits="userSpaceOnUse"
   x1="61.2551"
   y1="27.7492"
   x2="57.0243"
   y2="29.5693">
   <stop
   offset="0"
   style="stop-color:#BCE6FF"
   id="stop4301" />
   <stop
   offset="1"
   style="stop-color:#BBE6FF"
   id="stop4303" />
  </linearGradient>
  <linearGradient
   id="id9"
   gradientUnits="userSpaceOnUse"
   x1="29.9425"
   y1="61.0448"
   x2="29.9425"
   y2="15.0616">
   <stop
   offset="0"
   style="stop-color:#919191"
   id="stop4306" />
   <stop
   offset="1"
   style="stop-color:#B2B2B2"
   id="stop4308" />
  </linearGradient>
  <linearGradient
   id="id10"
   gradientUnits="userSpaceOnUse"
   xlink:href="#id9"
   x1="30.0287"
   y1="58.7511"
   x2="30.0287"
   y2="11.7049">
  </linearGradient>
  <linearGradient
   id="id11"
   gradientUnits="userSpaceOnUse"
   x1="12.5836"
   y1="10.819"
   x2="12.5305"
   y2="7.71978">
   <stop
   offset="0"
   style="stop-color:#7F7F7F"
   id="stop4312" />
   <stop
   offset="1"
   style="stop-color:#999999"
   id="stop4314" />
  </linearGradient>
  <linearGradient
   id="id12"
   gradientUnits="userSpaceOnUse"
   xlink:href="#id11"
   x1="12.9202"
   y1="10.734"
   x2="12.8683"
   y2="7.63592">
  </linearGradient>
  <linearGradient
   id="id13"
   gradientUnits="userSpaceOnUse"
   x1="29.8232"
   y1="13.4258"
   x2="29.9767"
   y2="3.60359">
   <stop
   offset="0"
   style="stop-color:#4E87B4"
   id="stop4318" />
   <stop
   offset="1"
   style="stop-color:#66A1D1"
   id="stop4320" />
  </linearGradient>
  <linearGradient
   id="id14"
   gradientUnits="userSpaceOnUse"
   xlink:href="#id8"
   x1="11.9553"
   y1="4.82841"
   x2="48.1282"
   y2="4.48824">
  </linearGradient>
  <linearGradient
   id="id15"
   gradientUnits="userSpaceOnUse"
   x1="2.36932"
   y1="5.00203"
   x2="0.963791"
   y2="6.62725">
   <stop
   offset="0"
   style="stop-color:#BCE6FF"
   id="stop4324" />
   <stop
   offset="1"
   style="stop-color:#6FAFE4"
   id="stop4326" />
  </linearGradient>
  <linearGradient
   id="id16"
   gradientUnits="userSpaceOnUse"
   x1="58.9306"
   y1="6.59772"
   x2="57.6669"
   y2="5.20873">
   <stop
   offset="0"
   style="stop-color:#6FAFE4"
   id="stop4329" />
   <stop
   offset="1"
   style="stop-color:#BCE6FF"
   id="stop4331" />
  </linearGradient>
 </defs>
 <g
   id="Слой_x0020_1">
  <metadata
   id="CorelCorpID_0Corel-Layer" />
  <g
   id="_245980016">
   <path
   id="_245971472"
   class="fil0"
   d="M55.2869 54.7967c3.37918,-0.142915 6.41937,-0.205514 9.16074,-0.199609l0 9.89776c-2.60318,-0.00354335 -5.30676,0.030709 -8.05522,0.138191 -17.1982,0.674418 -31.7012,1.24253 -31.7012,-1.65474 0,-2.89728 1.09844,-6.93316 30.5957,-8.1816z" />
   <g
   id="g4337">
    <path
   id="_245973128"
   class="fil1"
   d="M55.3566 55.2775c3.34965,-0.13701 6.36622,-0.192522 9.09106,-0.17953l0 9.32964c-2.59491,-0.00354335 -5.28904,0.0283468 -8.02687,0.128742 -16.9679,0.622449 -31.4472,1.14214 -31.4472,-1.54372 0,-2.74373 2.13664,-6.58236 30.3831,-7.73513z" />
    <path
   id="_245978192"
   class="fil2"
   d="M55.4239 55.7582c3.31894,-0.129923 6.31661,-0.17953 9.02373,-0.15827l0 8.76034c-2.58783,-0.00354335 -5.27487,0.0248035 -8.00207,0.118112 -16.7352,0.571661 -31.1909,1.04056 -31.1909,-1.43269 0,-2.59019 3.17248,-6.23039 30.1693,-7.28749z" />
    <path
   id="_245977376"
   class="fil3"
   d="M55.4901 56.2389c3.28823,-0.122836 6.26464,-0.162994 8.95759,-0.134647l0 8.19105c-2.57956,-0.00354335 -5.25833,0.0224412 -7.97372,0.107482 -16.5073,0.51851 -30.9382,0.938988 -30.9382,-1.32167 0,-2.43783 4.20832,-5.88196 29.9543,-6.84221z" />
    <path
   id="_245970584"
   class="fil4"
   d="M55.5562 56.7184c3.25634,-0.114568 6.21031,-0.146458 8.89145,-0.109844l0 7.61939c-2.57365,-0.00354335 -5.24416,0.0188979 -7.9501,0.0956705 -16.2734,0.467722 -30.6819,0.838593 -30.6819,-1.20828 0,-2.28546 5.24534,-5.53235 29.7405,-6.39693z" />
    <path
   id="_245975480"
   class="fil5"
   d="M55.6223 57.2003c3.21972,-0.106301 6.1548,-0.128742 8.82531,-0.0838593l0 7.04654c-2.56539,-0.00354335 -5.2288,0.0165356 -7.92293,0.0862215 -16.0431,0.414572 -30.4279,0.737017 -30.4279,-1.09844 0,-2.13192 6.28236,-5.18038 29.5256,-5.95047z" />
    <path
   id="_245978576"
   class="fil6"
   d="M55.6908 57.6834c3.17957,-0.0968516 6.09338,-0.111025 8.7568,-0.0578747l0 6.47134c-2.55948,-0.00236223 -5.21345,0.0153545 -7.89695,0.0767726 -15.8128,0.363784 -30.174,0.636622 -30.174,-0.987414 0,-1.97955 7.31938,-4.83077 29.3141,-5.50282z" />
    <path
   id="_245978072"
   class="fil7"
   d="M55.7558 58.1617c3.13705,-0.0874027 6.03196,-0.0921271 8.69184,-0.0295279l0 5.89614c-2.55357,-0.00236223 -5.19928,0.0129923 -7.86978,0.0661425 -15.5825,0.311815 -29.9189,0.535046 -29.9189,-0.875208 0,-1.82719 8.35522,-4.48116 29.0968,-5.05754z" />
    <path
   id="_245982392"
   class="fil8"
   d="M55.8231 58.6448c3.08626,-0.0755915 5.96464,-0.0696859 8.62452,0l0 5.31857c-2.54649,-0.00118112 -5.1851,0.0118112 -7.84498,0.0566936 -15.3498,0.259846 -29.6638,0.43347 -29.6638,-0.765364 0,-1.67482 9.39106,-4.13037 28.8842,-4.6099z" />
    <path
   id="_245970152"
   class="fil9"
   d="M55.8905 59.1255c3.03075,-0.0637803 5.89141,-0.0472447 8.55719,0.030709l0 4.741c-2.5394,0 -5.17093,0.0106301 -7.81781,0.0472447 -15.1195,0.207877 -29.4122,0.333075 -29.4122,-0.654339 0,-1.52128 10.4304,-3.77957 28.6728,-4.16462z" />
    <path
   id="_245970224"
   class="fil10"
   d="M55.9566 59.6062c2.96815,-0.050788 5.81346,-0.0224412 8.49105,0.0637803l0 4.15989c-2.53231,0.00118112 -5.15558,0.00944894 -7.79419,0.0366146 -14.8856,0.155907 -29.1547,0.231499 -29.1547,-0.543314 0,-1.36773 11.4663,-3.42878 28.4578,-3.71697z" />
    <path
   id="_245969552"
   class="fil11"
   d="M56.0227 60.087c2.89492,-0.0354335 5.72842,0.00236223 8.42491,0.0968516l0 3.57997c-2.52641,0.00236223 -5.14258,0.00826782 -7.76702,0.0271657 -14.6577,0.102757 -28.8996,0.129923 -28.8996,-0.432289 0,-1.21537 12.5021,-3.07917 28.2417,-3.27169z" />
    <path
   id="_245982968"
   class="fil12"
   d="M56.0901 60.5677c2.8087,-0.0188979 5.63157,0.030709 8.35758,0.131104l0 2.99649c-2.5205,0.00354335 -5.12841,0.0070867 -7.74104,0.0165356 -14.425,0.0519691 -28.6456,0.0295279 -28.6456,-0.320083 0,-1.06182 13.538,-2.72838 28.0291,-2.82405z" />
   </g>
   <path
   id="_245975552"
   class="fil13"
   d="M56.1538 61.0508c2.71303,0 5.52881,0.0614181 8.2938,0.166537l0 2.4142c-16.2345,0.030709 -36.1079,-0.040158 -36.1079,-0.203152 0,-0.90946 14.5738,-2.37759 27.8141,-2.37759z" />
  </g>
  <g
   id="_151446576">
   <path
   id="_245977856"
   class="fil0"
   d="M28.7944 52.7085c29.6838,-1.24844 33.6878,3.56697 33.8166,7.47529 0.129923,3.9095 -15.3994,1.68663 -32.7051,2.36105 -17.3069,0.674418 -31.9008,1.24253 -31.9008,-1.65474 0,-2.89728 1.10553,-6.93316 30.7894,-8.1816z" />
   <g
   id="g4354">
    <path
   id="_245974904"
   class="fil1"
   d="M28.863 53.1892c28.4248,-1.15159 33.3382,3.40516 33.4575,7.08316 0.119293,3.61894 -15.312,1.57207 -32.3862,2.1957 -17.0742,0.622449 -31.6445,1.14214 -31.6445,-1.54372 0,-2.74373 2.14963,-6.58236 30.5732,-7.73513z" />
    <path
   id="_245978432"
   class="fil2"
   d="M28.9315 53.67c27.1657,-1.0571 32.9886,3.24335 33.0984,6.68985 0.108663,3.32957 -15.2281,1.45986 -32.0697,2.03034 -16.8415,0.571661 -31.3882,1.04056 -31.3882,-1.43269 0,-2.59019 3.19256,-6.23039 30.3594,-7.28749z" />
    <path
   id="_151448136"
   class="fil3"
   d="M28.9976 54.1507c25.9066,-0.960248 32.6402,3.08153 32.7394,6.29772 0.100395,3.04019 -15.1407,1.34647 -31.7496,1.86616 -16.61,0.51851 -31.1319,0.938988 -31.1319,-1.32167 0,-2.43783 4.2343,-5.88196 30.1421,-6.84221z" />
    <path
   id="_151442736"
   class="fil4"
   d="M29.0649 54.6302c24.6487,-0.863396 32.2917,2.91972 32.3815,5.9044 0.0897649,2.752 -15.0569,1.23545 -31.4342,1.70081 -16.3762,0.467722 -30.8756,0.838593 -30.8756,-1.20828 0,-2.28546 5.27841,-5.53235 29.9283,-6.39693z" />
    <path
   id="_151444440"
   class="fil5"
   d="M29.1311 55.1121c23.3908,-0.766545 31.9433,2.75791 32.0236,5.51227 0.0791348,2.46263 -14.9707,1.12206 -31.1153,1.53663 -16.1447,0.414572 -30.6205,0.737017 -30.6205,-1.09844 0,-2.13192 6.32252,-5.18038 29.7122,-5.95047z" />
    <path
   id="_151445352"
   class="fil6"
   d="M29.1996 55.5952c22.1306,-0.672056 31.5949,2.59491 31.6634,5.11896 0.0696859,2.17207 -14.8856,1.00749 -30.7976,1.37128 -15.912,0.363784 -30.3642,0.636622 -30.3642,-0.987414 0,-1.97955 7.36544,-4.83077 29.4984,-5.50282z" />
    <path
   id="_151445208"
   class="fil7"
   d="M29.2657 56.0735c20.8727,-0.575204 31.2464,2.43192 31.3055,4.72565 0.060237,1.88388 -14.7994,0.896468 -30.4787,1.2071 -15.6805,0.311815 -30.1079,0.535046 -30.1079,-0.875208 0,-1.82719 8.40837,-4.48116 29.2811,-5.05754z" />
    <path
   id="_151442496"
   class="fil8"
   d="M29.333 56.5566c19.6136,-0.480715 30.898,2.26893 30.9476,4.33234 0.0496069,1.59451 -14.7155,0.783081 -30.1622,1.04293 -15.4478,0.259846 -29.8515,0.43347 -29.8515,-0.765364 0,-1.67482 9.45012,-4.13037 29.0661,-4.6099z" />
    <path
   id="_151442184"
   class="fil9"
   d="M29.4004 57.0373c18.3546,-0.382682 30.5484,2.10829 30.5874,3.94139 0.040158,1.30395 -14.6281,0.669693 -29.8433,0.87757 -15.2151,0.207877 -29.5964,0.333075 -29.5964,-0.654339 0,-1.52128 10.4954,-3.77957 28.8523,-4.16462z" />
    <path
   id="_151447464"
   class="fil10"
   d="M29.4677 57.518c17.0967,-0.288193 30.2,1.9453 30.2295,3.54689 0.0295279,1.01694 -14.5443,0.557487 -29.5279,0.713395 -14.9801,0.155907 -29.3389,0.231499 -29.3389,-0.543314 0,-1.36773 11.5383,-3.42878 28.6374,-3.71697z" />
    <path
   id="_151443072"
   class="fil11"
   d="M29.5338 57.9987c15.8376,-0.191341 29.8515,1.78467 29.8716,3.15476 0.020079,0.726387 -14.4581,0.4441 -29.209,0.549219 -14.7498,0.102757 -29.0826,0.129923 -29.0826,-0.432289 0,-1.21537 12.5813,-3.07917 28.42,-3.27169z" />
    <path
   id="_151442784"
   class="fil12"
   d="M29.6012 58.4795c14.5797,-0.0968516 29.5031,1.62167 29.5126,2.76145 0.0106301,0.437013 -14.373,0.331894 -28.8913,0.382682 -14.5159,0.0519691 -28.8263,0.0295279 -28.8263,-0.320083 0,-1.06182 13.6242,-2.72838 28.2051,-2.82405z" />
   </g>
   <path
   id="_151440600"
   class="fil13"
   d="M29.6661 58.9625c13.3218,0 29.1559,1.45986 29.1559,2.36932 0,0.29646 -57.146,0.284649 -57.146,0.00826782 0,-0.90946 14.6671,-2.37759 27.9901,-2.37759z" />
  </g>
  <path
   class="fil14"
   d="M3.38981 2.46853l53.0133 0.201971c1.67364,0.00590558 3.04964,1.38427 3.0461,3.0461l0.0531503 51.7813c-0.00472447,1.66537 -1.37246,3.0461 -3.04492,3.0461 -20.0589,0 -18.6487,-0.101576 -52.8597,-0.101576 -1.67246,0 -3.05201,-1.3701 -3.0461,-3.0461l-0.206695 -51.8829c-0.00590558,-1.67364 1.3701,-3.05082 3.04492,-3.04492z"
   id="path4369" />
  <path
   class="fil15"
   d="M2.56893 14.5703l-0.0366146 41.6143c0.102757,1.29096 1.22364,2.23231 2.3894,2.22759l50.0581 -0.00354335c1.68191,-0.0484258 2.452,-1.17639 2.50869,-2.65751l0.0342524 -39.5981c0,-1.56026 -0.93072,-2.41184 -2.60554,-2.41302l-49.6234 -1.53663c-1.55553,0.00826782 -2.7272,0.418115 -2.72484,2.36696z"
   id="path4371" />
  <g
   id="_151444992">
   <polygon
   id="_151445040"
   class="fil16"
   points="20.9932,44.9498 40.6517,44.9498 40.6517,46.0151 20.9932,46.0151 " />
   <path
   id="_151440744"
   class="fil16"
   d="M21.0499 47.9982l6.87528 0 0 1.05474 -6.87528 0 0 -1.05474zm8.83475 0l17.0164 0 0 1.05474 -17.0164 0 0 -1.05474z" />
   <path
   id="_151445232"
   class="fil16"
   d="M20.9932 50.8707l14.8844 0 0 1.08781 -14.8844 0 0 -1.08781zm17.7132 0l5.87251 0 0 1.08781 -5.87251 0 0 -1.08781z" />
  </g>
  <g
   id="_151442424">
   <polygon
   id="_151444392"
   class="fil17"
   points="20.9412,18.0061 40.7521,18.0061 40.7013,18.9664 20.992,18.9664 " />
   <path
   id="_151441128"
   class="fil17"
   d="M21.0487 20.953l7.89813 0 0 1.05474 -7.89813 0 0 -1.05474zm9.8576 0l12.6876 0 0 1.05474 -12.6876 0 0 -1.05474zm14.6057 0l4.14336 0 0 1.05474 -4.14336 0 0 -1.05474z" />
   <path
   id="_151446912"
   class="fil17"
   d="M21.0924 24.0806l15.7183 0 0 1.08781 -15.7183 0 0 -1.08781zm18.5471 0l10.0159 0 0 1.08781 -10.0159 0 0 -1.08781z" />
  </g>
  <g
   id="_151441104">
   <polygon
   id="_151443600"
   class="fil18"
   points="21.0936,32.0366 38.1383,31.987 38.1383,32.9626 21.0936,33.0122 " />
   <path
   id="_151443240"
   class="fil18"
   d="M21.1503 34.941l11.6482 0 0 1.05474 -11.6482 0 0 -1.05474zm13.6076 0l8.26073 0 0 1.05474 -8.26073 0 0 -1.05474zm10.3052 0l4.69376 0 0 1.05474 -4.69376 0 0 -1.05474z" />
   <path
   id="_151444104"
   class="fil18"
   d="M21.1444 37.9658l2.95515 0 0 1.08781 -2.95515 0 0 -1.08781zm5.78393 0l12.482 0 0 1.08781 -12.482 0 0 -1.08781zm14.471 0l8.35758 0 0 1.08781 -8.35758 0 0 -1.08781z" />
  </g>
  <path
   class="fil19"
   d="M3.2835 57.0042c0.0850404,0.0129923 0.171262,0.0188979 0.257483,0.0188979l0.00236223 0 53.5589 0.060237c0.24331,-0.0070867 0.462998,-0.040158 0.659063,-0.0968516 0.223231,0.244491 0.464179,0.513786 0.711032,0.797254 -0.38032,0.178349 -0.826782,0.282287 -1.34175,0.29646l-0.0141734 0 -53.5707 -0.060237 -0.00236223 0c-0.315358,0 -0.628354,-0.0555125 -0.923633,-0.159451l0.663788 -0.85631z"
   id="path4385" />
  <path
   class="fil20"
   d="M3.06736 14.5703l-0.0366146 41.5753c0.0389769,0.49725 0.272838,0.934263 0.608275,1.24608 0.287011,0.268114 0.646071,0.446462 1.02285,0.503156l-0.663788 0.85631c-0.383863,-0.134647 -0.739379,-0.349611 -1.03938,-0.629535 -0.510242,-0.473628 -0.864578,-1.1386 -0.924815,-1.89805l0 -0.0389769 0.0366146 -41.6143c-0.00118112,-1.15749 0.36969,-1.87798 0.987414,-2.31735 0.584653,-0.416934 1.36301,-0.544495 2.23349,-0.548038l0.0165356 0 49.6234 1.53663c0.960248,0.00354335 1.72443,0.263389 2.25711,0.754734l0.00236223 0.00236223c0.544495,0.505518 0.832687,1.2319 0.832687,2.15436l-0.00236223 0 -0.0342524 39.5981 0 0.0177168c-0.0330713,0.895287 -0.304728,1.69018 -0.840955,2.25948 -0.225593,0.238586 -0.494888,0.435832 -0.810246,0.582291 -0.246853,-0.283468 -0.487801,-0.552763 -0.711032,-0.797254 0.330713,-0.0956705 0.594102,-0.258665 0.793711,-0.470085 0.361422,-0.385044 0.546857,-0.953161 0.571661,-1.60986l0.0342524 -39.5804 -0.00236223 0c0,-0.631898 -0.175986,-1.11143 -0.509061,-1.42206 -0.348429,-0.321264 -0.889381,-0.492526 -1.59569,-0.492526l-0.0141734 0 -49.6234 -1.53663c-0.675599,0.00354335 -1.25907,0.0897649 -1.64293,0.363784 -0.355516,0.252759 -0.569298,0.716938 -0.569298,1.50474z"
   id="path4387" />
  <path
   class="fil21"
   d="M4.66187 58.0094c0.0850404,0.0129923 0.171262,0.0188979 0.257483,0.0188979l0.00236223 0 50.0439 -0.00354335c0.24331,-0.0070867 0.462998,-0.040158 0.659063,-0.0968516 0.223231,0.244491 0.464179,0.513786 0.711032,0.797254 -0.38032,0.178349 -0.826782,0.282287 -1.34175,0.29646l-0.0141734 0 -50.0557 0.00354335 -0.00236223 0c-0.315358,0 -0.628354,-0.0555125 -0.923633,-0.159451l0.663788 -0.85631z"
   id="path4389" />
  <path
   class="fil22"
   d="M57.2818 15.0545l-52.9944 0c0.466541,-1.0571 1.32758,-1.33939 2.36341,-1.33702l48.5108 0.0791348c0.964973,0.00236223 1.68191,0.434651 2.1201,1.25789z"
   id="path4391" />
  <path
   class="fil23"
   d="M4.2343 57.1023l-0.331894 0.362603m55.0578 -0.040158l-0.372052 -0.32835"
   id="path4393" />
  <path
   class="fil23"
   d="M5.13313 57.4247l-0.327169 0.357878m54.1908 -0.0389769l-0.366146 -0.323626"
   id="path4395" />
  <path
   class="fil24"
   d="M4.53431 8.76153l0 0.272838 0.613 1.40435 0.614181 -1.40435 0 -0.272838c0,-0.0685048 0.0188979,-0.124017 0.0578747,-0.166537 0.0389769,-0.0437013 0.090946,-0.0649614 0.152364,-0.0649614 0.0614181,0 0.111025,0.0212601 0.151183,0.0637803 0.0389769,0.0413391 0.0578747,0.0968516 0.0578747,0.167719l0 0.309453c0,0.0212601 -0.00236223,0.0413391 -0.00826782,0.0614181 -0.00472447,0.0188979 -0.0106301,0.0389769 -0.0212601,0.0614181l-0.660244 1.51183c-0.030709,0.070867 -0.0625992,0.116931 -0.0944894,0.144096 -0.0318902,0.0248035 -0.0720481,0.0366146 -0.120474,0.0366146l-0.257483 0c-0.0496069,0 -0.0897649,-0.0118112 -0.120474,-0.0366146 -0.030709,-0.0248035 -0.0614181,-0.0720481 -0.0944894,-0.144096l-0.660244 -1.50947c-0.0118112,-0.0259846 -0.0188979,-0.0460636 -0.0224412,-0.0637803 -0.00472447,-0.0188979 -0.00590558,-0.0377957 -0.00590558,-0.0614181l0 -0.309453c0,-0.070867 0.0177168,-0.127561 0.0566936,-0.1689 0.0389769,-0.0413391 0.0885838,-0.0625992 0.152364,-0.0625992 0.0614181,0 0.112206,0.0212601 0.151183,0.0649614 0.0389769,0.0425202 0.0590558,0.0980327 0.0590558,0.166537zm14.6352 -1.10907l1.41262 0c0.115749,0 0.212601,0.0413391 0.29646,0.121655 0.0814971,0.0814971 0.122836,0.180711 0.122836,0.297641l0 0.986233c0,0.116931 -0.0413391,0.216144 -0.122836,0.297641 -0.0838593,0.0814971 -0.180711,0.121655 -0.29646,0.121655l-1.22836 0 0 0.989776 1.41262 0c0.070867,0 0.127561,0.0188979 0.170081,0.0590558 0.0437013,0.0389769 0.0649614,0.0897649 0.0649614,0.151183 0,0.0614181 -0.0212601,0.111025 -0.0661425,0.151183 -0.0448824,0.0389769 -0.100395,0.0578747 -0.1689,0.0578747l-1.83191 0 0 -1.40907c0,-0.115749 0.0413391,-0.213782 0.122836,-0.29646 0.0803159,-0.0814971 0.17953,-0.122836 0.29646,-0.122836l1.22836 0 0 -0.986233 -1.41262 0c-0.0720481,0 -0.128742,-0.0188979 -0.171262,-0.0566936 -0.0425202,-0.0389769 -0.0637803,-0.0897649 -0.0637803,-0.152364 0,-0.0625992 0.0212601,-0.113387 0.0661425,-0.152364 0.0448824,-0.0377957 0.100395,-0.0578747 0.1689,-0.0578747zm-2.90082 0.419296l0 2.39531 1.22836 0 0 -2.39531 -1.22836 0zm0.0437013 -0.419296l1.1386 0c0.148821,0 0.263389,0.040158 0.344886,0.119293 0.0803159,0.0803159 0.120474,0.193703 0.120474,0.344886l0 2.30672c0,0.148821 -0.040158,0.26457 -0.120474,0.343705 -0.0814971,0.0803159 -0.196065,0.119293 -0.344886,0.119293l-1.1386 0c-0.148821,0 -0.263389,-0.0389769 -0.342524,-0.119293 -0.0803159,-0.0791348 -0.120474,-0.194884 -0.120474,-0.343705l0 -2.30672c0,-0.151183 0.040158,-0.26457 0.120474,-0.344886 0.0791348,-0.0791348 0.193703,-0.119293 0.342524,-0.119293zm-1.95239 2.41302l0.409848 0c0.0614181,0 0.112206,0.0212601 0.151183,0.0625992 0.0389769,0.0437013 0.0578747,0.0980327 0.0578747,0.166537l0 0.309453c0,0.0720481 -0.0188979,0.128742 -0.0578747,0.171262 -0.0377957,0.0425202 -0.0885838,0.0625992 -0.151183,0.0625992l-0.409848 0c-0.0614181,0 -0.112206,-0.0212601 -0.151183,-0.0649614 -0.0389769,-0.0448824 -0.0578747,-0.100395 -0.0578747,-0.1689l0 -0.309453c0,-0.070867 0.0188979,-0.127561 0.0578747,-0.1689 0.0377957,-0.040158 0.0885838,-0.060237 0.151183,-0.060237zm-2.4709 -1.99373l0 2.39531 1.22718 0 0 -2.39531 -1.22718 0zm0.0437013 -0.419296l1.13742 0c0.150002,0 0.26457,0.040158 0.344886,0.119293 0.0803159,0.0803159 0.120474,0.193703 0.120474,0.344886l0 2.30672c0,0.148821 -0.040158,0.26457 -0.120474,0.343705 -0.0803159,0.0803159 -0.194884,0.119293 -0.344886,0.119293l-1.13742 0c-0.148821,0 -0.263389,-0.0389769 -0.343705,-0.119293 -0.0791348,-0.0791348 -0.119293,-0.194884 -0.119293,-0.343705l0 -2.30672c0,-0.151183 0.040158,-0.26457 0.119293,-0.344886 0.0803159,-0.0791348 0.194884,-0.119293 0.343705,-0.119293zm-1.62404 2.41302l0.409848 0c0.0614181,0 0.112206,0.0212601 0.151183,0.0625992 0.0389769,0.0437013 0.0578747,0.0980327 0.0578747,0.166537l0 0.309453c0,0.0720481 -0.0188979,0.128742 -0.0566936,0.171262 -0.0389769,0.0425202 -0.0897649,0.0625992 -0.152364,0.0625992l-0.409848 0c-0.0614181,0 -0.112206,-0.0212601 -0.151183,-0.0649614 -0.0389769,-0.0448824 -0.0578747,-0.100395 -0.0578747,-0.1689l0 -0.309453c0,-0.070867 0.0188979,-0.127561 0.0578747,-0.1689 0.0377957,-0.040158 0.0885838,-0.060237 0.151183,-0.060237zm-2.87484 -2.41302l1.41262 0c0.115749,0 0.213782,0.0413391 0.29646,0.121655 0.0814971,0.0814971 0.122836,0.180711 0.122836,0.297641l0 0.986233c0,0.116931 -0.0413391,0.216144 -0.122836,0.297641 -0.0826782,0.0814971 -0.180711,0.121655 -0.29646,0.121655l-1.22718 0 0 0.989776 1.41262 0c0.0696859,0 0.12638,0.0188979 0.1689,0.0590558 0.0437013,0.0389769 0.0649614,0.0897649 0.0649614,0.151183 0,0.0614181 -0.0212601,0.111025 -0.0661425,0.151183 -0.0437013,0.0389769 -0.100395,0.0578747 -0.167719,0.0578747l-1.83191 0 0 -1.40907c0,-0.115749 0.040158,-0.213782 0.121655,-0.29646 0.0814971,-0.0814971 0.17953,-0.122836 0.297641,-0.122836l1.22718 0 0 -0.986233 -1.41262 0c-0.0720481,0 -0.128742,-0.0188979 -0.171262,-0.0566936 -0.0425202,-0.0389769 -0.0625992,-0.0897649 -0.0625992,-0.152364 0,-0.0625992 0.0212601,-0.113387 0.0649614,-0.152364 0.0448824,-0.0377957 0.100395,-0.0578747 0.1689,-0.0578747z"
   id="path4397" />
  <path
   class="fil25"
   d="M4.87093 8.67648l0 0.272838 0.613 1.40435 0.614181 -1.40435 0 -0.272838c0,-0.0685048 0.020079,-0.124017 0.0578747,-0.166537 0.040158,-0.0425202 0.090946,-0.0637803 0.152364,-0.0637803 0.0614181,0 0.112206,0.020079 0.151183,0.0625992 0.0389769,0.0425202 0.0578747,0.0980327 0.0578747,0.167719l0 0.310634c0,0.0212601 -0.00236223,0.040158 -0.0070867,0.0614181 -0.00590558,0.0188979 -0.0118112,0.0377957 -0.0212601,0.060237l-0.660244 1.51301c-0.030709,0.0696859 -0.0625992,0.116931 -0.0956705,0.142915 -0.0318902,0.0248035 -0.0720481,0.0366146 -0.120474,0.0366146l-0.256302 0c-0.0496069,0 -0.0897649,-0.0118112 -0.120474,-0.0354335 -0.030709,-0.0248035 -0.0625992,-0.0732292 -0.0956705,-0.144096l-0.660244 -1.51065c-0.0118112,-0.0259846 -0.0177168,-0.0460636 -0.0224412,-0.0625992 -0.00472447,-0.0188979 -0.00590558,-0.0389769 -0.00590558,-0.0614181l0 -0.310634c0,-0.070867 0.0188979,-0.127561 0.0566936,-0.167719 0.0389769,-0.0425202 0.0897649,-0.0625992 0.152364,-0.0625992 0.0614181,0 0.113387,0.0212601 0.152364,0.0637803 0.0377957,0.0425202 0.0578747,0.0980327 0.0578747,0.166537zm14.6352 -1.10907l1.41262 0c0.115749,0 0.213782,0.0413391 0.29646,0.122836 0.0814971,0.0814971 0.122836,0.17953 0.122836,0.29646l0 0.987414c0,0.116931 -0.0413391,0.216144 -0.122836,0.29646 -0.0826782,0.0814971 -0.180711,0.122836 -0.29646,0.122836l-1.22718 0 0 0.989776 1.41262 0c0.0696859,0 0.12638,0.0188979 0.1689,0.0578747 0.0437013,0.0389769 0.0649614,0.0897649 0.0649614,0.151183 0,0.0614181 -0.0212601,0.112206 -0.0661425,0.151183 -0.0437013,0.0389769 -0.0992138,0.0578747 -0.167719,0.0578747l-1.83191 0 0 -1.40789c0,-0.116931 0.040158,-0.214963 0.121655,-0.29646 0.0814971,-0.0826782 0.17953,-0.122836 0.297641,-0.122836l1.22718 0 0 -0.987414 -1.41262 0c-0.0720481,0 -0.128742,-0.0177168 -0.171262,-0.0566936 -0.0425202,-0.0389769 -0.0625992,-0.0885838 -0.0625992,-0.152364 0,-0.0614181 0.0212601,-0.112206 0.0649614,-0.151183 0.0448824,-0.0389769 0.100395,-0.0590558 0.1689,-0.0590558zm-2.89964 0.419296l0 2.39649 1.22718 0 0 -2.39649 -1.22718 0zm0.0437013 -0.419296l1.13742 0c0.148821,0 0.263389,0.040158 0.344886,0.120474 0.0803159,0.0791348 0.120474,0.193703 0.120474,0.343705l0 2.30672c0,0.150002 -0.040158,0.26457 -0.120474,0.343705 -0.0814971,0.0803159 -0.196065,0.119293 -0.344886,0.119293l-1.13742 0c-0.150002,0 -0.26457,-0.0389769 -0.343705,-0.119293 -0.0791348,-0.0791348 -0.119293,-0.193703 -0.119293,-0.343705l0 -2.30672c0,-0.150002 0.040158,-0.26457 0.119293,-0.343705 0.0791348,-0.0803159 0.193703,-0.120474 0.343705,-0.120474zm-1.95239 2.41302l0.408666 0c0.0614181,0 0.112206,0.0212601 0.151183,0.0637803 0.0389769,0.0425202 0.0578747,0.0968516 0.0578747,0.165356l0 0.310634c0,0.070867 -0.0188979,0.127561 -0.0566936,0.170081 -0.0389769,0.0425202 -0.0885838,0.0637803 -0.152364,0.0637803l-0.408666 0c-0.0614181,0 -0.113387,-0.0212601 -0.151183,-0.0661425 -0.040158,-0.0448824 -0.0590558,-0.100395 -0.0590558,-0.167719l0 -0.310634c0,-0.070867 0.0188979,-0.127561 0.0578747,-0.167719 0.0377957,-0.040158 0.0885838,-0.0614181 0.152364,-0.0614181zm-2.4709 -1.99373l0 2.39649 1.22718 0 0 -2.39649 -1.22718 0zm0.0425202 -0.419296l1.1386 0c0.148821,0 0.263389,0.040158 0.344886,0.120474 0.0803159,0.0791348 0.120474,0.193703 0.120474,0.343705l0 2.30672c0,0.150002 -0.040158,0.26457 -0.120474,0.343705 -0.0814971,0.0803159 -0.196065,0.119293 -0.344886,0.119293l-1.1386 0c-0.148821,0 -0.263389,-0.0389769 -0.342524,-0.119293 -0.0791348,-0.0791348 -0.119293,-0.193703 -0.119293,-0.343705l0 -2.30672c0,-0.150002 0.040158,-0.26457 0.119293,-0.343705 0.0791348,-0.0803159 0.193703,-0.120474 0.342524,-0.120474zm-1.62285 2.41302l0.408666 0c0.0614181,0 0.113387,0.0212601 0.151183,0.0637803 0.0389769,0.0425202 0.0578747,0.0968516 0.0578747,0.165356l0 0.310634c0,0.070867 -0.0188979,0.127561 -0.0566936,0.170081 -0.0389769,0.0425202 -0.0885838,0.0637803 -0.152364,0.0637803l-0.408666 0c-0.0614181,0 -0.113387,-0.0212601 -0.151183,-0.0661425 -0.0389769,-0.0448824 -0.0578747,-0.100395 -0.0578747,-0.167719l0 -0.310634c0,-0.070867 0.0188979,-0.127561 0.0566936,-0.167719 0.0389769,-0.040158 0.0885838,-0.0614181 0.152364,-0.0614181zm-2.87602 -2.41302l1.41262 0c0.115749,0 0.213782,0.0413391 0.29646,0.122836 0.0814971,0.0814971 0.122836,0.17953 0.122836,0.29646l0 0.987414c0,0.116931 -0.0413391,0.216144 -0.122836,0.29646 -0.0826782,0.0814971 -0.180711,0.122836 -0.29646,0.122836l-1.22718 0 0 0.989776 1.41262 0c0.0696859,0 0.12638,0.0188979 0.1689,0.0578747 0.0437013,0.0389769 0.0649614,0.0897649 0.0649614,0.151183 0,0.0614181 -0.0212601,0.112206 -0.0661425,0.151183 -0.0437013,0.0389769 -0.0992138,0.0578747 -0.167719,0.0578747l-1.83191 0 0 -1.40789c0,-0.116931 0.0413391,-0.214963 0.121655,-0.29646 0.0814971,-0.0826782 0.17953,-0.122836 0.297641,-0.122836l1.22718 0 0 -0.987414 -1.41262 0c-0.0720481,0 -0.127561,-0.0177168 -0.171262,-0.0566936 -0.0425202,-0.0389769 -0.0625992,-0.0885838 -0.0625992,-0.152364 0,-0.0614181 0.0212601,-0.112206 0.0661425,-0.151183 0.0437013,-0.0389769 0.0992138,-0.0590558 0.167719,-0.0590558z"
   id="path4399" />
  <path
   class="fil26"
   d="M6.58709 10.9501l0.0129923 0.0354335 -0.00118112 0c0.0496069,0.121655 0.12638,0.224412 0.224412,0.311815 0.0862215,0.0767726 0.183073,0.134647 0.290555,0.172443 0.103938,0.0389769 0.21142,0.0578747 0.320083,0.0578747l1.41262 0c0.140553,0 0.278744,-0.0283468 0.413391,-0.0826782l0.00472447 0c0.122836,-0.0519691 0.238586,-0.128742 0.343705,-0.231499 0.0803159,-0.0779537 0.145277,-0.166537 0.196065,-0.263389l-3.21736 0zm4.34179 0c0.0484258,0.0956705 0.112206,0.181892 0.186616,0.257483l0.00236223 0.00590558c0.207877,0.207877 0.481896,0.314177 0.814971,0.314177l1.13742 0c0.146458,0 0.28583,-0.0236223 0.41221,-0.0661425 0.152364,-0.0519691 0.28583,-0.134647 0.399218,-0.245672l0.00590558 -0.00236223c0.0755915,-0.0755915 0.140553,-0.164175 0.19016,-0.263389l-3.14886 0zm4.37958 0c0.0496069,0.100395 0.113387,0.187798 0.188979,0.263389 0.108663,0.108663 0.24331,0.192522 0.403942,0.248035 0.12638,0.0425202 0.265751,0.0661425 0.411029,0.0661425l1.1386 0c0.145277,0 0.284649,-0.0236223 0.411029,-0.0661425 0.157089,-0.0543314 0.294098,-0.13701 0.405123,-0.248035 0.0413391,-0.0413391 0.0791348,-0.0862215 0.113387,-0.135828 0.0460636,0.0838593 0.107482,0.160632 0.186616,0.227956l0 -0.00118112c0.0814971,0.0720481 0.174805,0.12638 0.277562,0.162994l0 0.00118112c0.106301,0.0389769 0.213782,0.0590558 0.323626,0.0590558l1.41262 0c0.14764,0 0.288193,-0.0283468 0.418115,-0.0826782l0 -0.00236223c0.127561,-0.0519691 0.242129,-0.128742 0.344886,-0.229137l0.00236223 -0.00236223c0.0814971,-0.0803159 0.146458,-0.167719 0.197247,-0.261027l-6.23512 0z"
   id="path4401" />
  <path
   class="fil27"
   d="M1.49529 11.0694c0.435832,-0.47599 0.667331,-1.19411 1.36773,-1.28624l0.480715 1.05474 -2.05987 2.55712 0.21142 -2.32562z"
   id="path4403" />
  <path
   class="fil23"
   d="M1.50947 6.88591c0,-0.653158 0.259846,-1.25553 0.68741,-1.72325 0.546857,-0.664969 1.37718,-1.09253 2.30082,-1.09253l51.9833 0c1.64175,0 3.07917,1.30513 3.05437,2.93626"
   id="path4405" />
  <path
   class="fil28"
   d="M1.55671 8.06112l-0.0791348 -2.22522c-0.0224412,-0.65552 0.337799,-1.24017 0.765364,-1.7079 0.346067,-0.420478 1.09253,-0.809065 1.61577,-0.990957l0.0177168 0.196065 -0.134647 0 0 0.992138 0.22205 0 0.269295 3.04964 0.438194 0.0874027c-0.429927,0.805522 -2.33152,1.85081 -3.0461,0.695678 -0.020079,-0.0330713 -0.0437013,-0.0637803 -0.0685048,-0.0968516z"
   id="path4407" />
  <path
   class="fil29"
   d="M60.0598 14.8289l-59.494 -0.196065 -0.00826782 -7.33946c0,-0.0673237 0.00354335,-0.134647 0.00944894,-0.204333l-0.00944894 -0.459454c0,-0.139372 0.0118112,-0.274019 0.0342524,-0.408666 0.119293,-0.297641 0.294098,-0.571661 0.513786,-0.811427 0.35906,-0.438194 0.838593,-0.77245 1.38899,-0.947256l54.8853 0.196065c1.73152,0.778356 2.44019,2.72247 2.67995,10.1706z"
   id="path4409" />
  <path
   class="fil30"
   d="M0.667331 6.30008c-0.0980327,-1.61813 0.855129,-3.63902 2.63862,-3.63902l54.5156 -0.00826782 0.452368 0.101576 -0.553944 0.512605c1.90632,-0.00236223 2.1142,1.48466 1.71144,3.50792l0.00118112 0 0 0.0413391 -0.0129923 -0.00236223c0.00826782,0.119293 0.0118112,0.238586 0.0118112,0.361422l0.00118112 0 0 0.040158 -0.284649 -0.0248035 0 -0.040158 0.00236223 0c0,-1.34884 -1.22127,-2.39176 -2.52405,-2.41184l0 0.00354335 -0.0448824 0 -53.1739 -0.197247c-0.367327,0 -0.763002,0.236223 -1.06064,0.236223 -0.537408,0.251578 -1.07718,0.793711 -1.30159,1.35238l0 0.00236223c-0.0897649,0.229137 -0.139372,0.478352 -0.139372,0.735836l-0.238586 -0.170081c-0.00826782,-0.134647 -0.00826782,-0.269295 0,-0.40158z"
   id="path4411" />
  <path
   class="fil31"
   d="M59.2118 6.3922l0.0366146 -1.01694c0.0236223,-0.673237 -0.347248,-1.27561 -0.787805,-1.75632 -0.355516,-0.432289 -1.09608,-0.595283 -1.63467,-0.781899l-0.0318902 0.309453 0.36969 0 -0.0118112 1.16812 -0.459454 -0.14764 -0.0342524 0.343705c0.921271,0.181892 2.11184,0.654339 2.55357,1.88152z"
   id="path4413" />
  <path
   class="fil32"
   d="M0.967335 6.3922l-0.214963 -1.04175c-0.135828,-0.660244 0.347248,-1.27561 0.787805,-1.75632 0.355516,-0.432289 1.27443,-0.570479 1.81301,-0.757096l0.0318902 0.309453 -0.36969 0 0.0118112 1.16812 0.459454 -0.14764 0.0342524 0.343705c-0.921271,0.181892 -2.11184,0.654339 -2.55357,1.88152z"
   id="path4415" />
  <polygon
   class="fil33"
   points="-0.146458,14.7002 60.0007,14.699 60.0007,16.0112 -0.146458,16.0124 "
   id="polygon4417" />
  <polygon
   class="fil34"
   points="0.503156,13.9549 59.8129,13.9549 59.8129,15.1124 0.503156,15.1124 "
   id="polygon4419" />
  <path
   class="fil35"
   d="M3.98391 6.9993l5.04573 0 0 4.97014 -5.04573 0 0 -4.97014zm3.94021 1.30868l-2.93626 0 0 2.65751 2.93626 0 0 -2.65751z"
   id="path4421" />
  <rect
   class="fil36"
   x="3.9921"
   y="12.0192"
   width="5.14253"
   height="0.951051"
   id="rect4423" />
  <path
   class="fil37"
   d="M59.957 15.0616l0.0437013 42.4363c-0.00236223,0.969697 -0.403942,1.86026 -1.04529,2.50279l0 0.00118112c-0.641346,0.641346 -1.52718,1.04293 -2.49806,1.04293 -8.11191,0 -13.0525,-0.020079 -18.6416,-0.0425202 -6.62843,-0.0271657 -14.2679,-0.0590558 -34.2181,-0.0590558l-0.0106301 0 0 -0.00236223c-0.967335,-0.00236223 -1.85435,-0.40158 -2.49334,-1.03938 -0.640165,-0.638984 -1.04175,-1.52482 -1.04056,-2.49452l-0.00236223 0 0 -0.0106301 0.00236223 0 -0.1689 -42.3348 0.996863 0 0.1689 42.3324 0.00236223 0.00236223 0 0.0106301 -0.00236223 0c0,0.694497 0.287011,1.32876 0.747647,1.78821 0.460636,0.459454 1.09726,0.747647 1.78939,0.748828l0 -0.00236223 0.0106301 0c18.7998,0 27.0641,0.0354335 34.2229,0.0637803 4.9666,0.0188979 9.35208,0.0377957 18.6368,0.0377957 0.696859,0 1.3323,-0.288193 1.79175,-0.747647 0.461817,-0.461817 0.753553,-1.10316 0.754734,-1.79766l-0.0437013 -42.4363 0.996863 0z"
   id="path4425" />
  <g
   id="_249357064">
   <path
   id="_249348616"
   class="fil38"
   d="M46.764 60.5204c-21.4609,0.0366146 -13.5427,2.77562 -13.5427,3.52563 0,0.165356 -0.0874027,0.362603 -0.060237,0.566936l30.552 0c0.0224412,-0.0472447 0.0366146,-0.0968516 0.0366146,-0.140553 0,-0.750009 4.47643,-3.98509 -16.9856,-3.95202z" />
   <g
   id="g4429">
    <path
   id="_249343120"
   class="fil39"
   d="M45.9974 60.7141c-19.2428,0.030709 -12.3604,2.52641 -12.3604,3.22681 0,0.196065 -0.114568,0.431108 0.0413391,0.672056l27.5531 0c0.128742,-0.0992138 0.183073,-0.196065 0.183073,-0.292917 0,-0.700402 3.82682,-3.63312 -15.4171,-3.60595z" />
    <path
   id="_249346024"
   class="fil40"
   d="M45.2332 60.9114c-17.0246,0.0271657 -11.1769,2.27719 -11.1769,2.92681 0,0.220869 -0.145277,0.503156 0.283468,0.774813l24.2058 0c0.389769,-0.146458 0.533865,-0.298823 0.533865,-0.442919 0,-0.653158 3.1772,-3.2835 -13.8462,-3.2587z" />
    <path
   id="_249344968"
   class="fil41"
   d="M44.4643 61.1074c-14.8041,0.0224412 -9.99343,2.02207 -9.99343,2.62799 0,0.249216 -0.161813,0.592921 0.851585,0.87757l20.1132 0c0.975603,-0.187798 1.30513,-0.398036 1.30513,-0.595283 0,-0.60237 2.52995,-2.93271 -12.2765,-2.91027z" />
    <path
   id="_249356104"
   class="fil42"
   d="M43.699 61.3035c-12.5872,0.020079 -8.80995,1.77404 -8.80995,2.33034 0,0.290555 -0.146458,0.724025 2.33861,0.979146l13.923 0c2.49098,-0.191341 3.25634,-0.484258 3.25634,-0.744104 0,-0.556306 1.87916,-2.58192 -10.708,-2.56539z" />
    <path
   id="_249363256"
   class="fil43"
   d="M42.9336 61.5008c-10.3678,0.0165356 -7.62883,1.52128 -7.62883,2.02798 0,0.362603 0.0177168,0.97324 7.38789,0.97324 7.37017,0 9.37689,-0.42284 9.37689,-0.783081 0,-0.505518 1.2319,-2.23467 -9.13594,-2.21814z" />
    <path
   id="_249363856"
   class="fil44"
   d="M42.1682 61.6968c-8.15089,0.0106301 -6.44417,1.27324 -6.44417,1.72916 0,0.284649 0.372052,0.752371 6.25874,0.750009 5.88787,0 7.75285,-0.323626 7.75285,-0.605913 0,-0.459454 0.582291,-1.88742 -7.56742,-1.87325z" />
    <path
   id="_249355720"
   class="fil45"
   d="M41.3993 61.8929c-5.93039,0.00826782 -5.26306,1.01812 -5.26306,1.43033 0,0.207877 0.72993,0.525597 5.13432,0.523235 4.40438,0 6.12645,-0.224412 6.12645,-0.428745 0,-0.409848 -0.0661425,-1.53309 -5.99771,-1.52482z" />
    <path
   id="_249346048"
   class="fil46"
   d="M40.634 62.0901c-3.71343,0.00236223 -4.07958,0.768907 -4.07958,1.13151 0,0.129923 1.08308,0.301185 4.00635,0.298823 2.9209,0 4.50124,-0.125198 4.50124,-0.251578 0,-0.362603 -0.714576,-1.18466 -4.42801,-1.17875z" />
   </g>
   <path
   id="_249361912"
   class="fil47"
   d="M39.8686 62.2862c-1.49411,0 -2.8961,0.519691 -2.8961,0.83505 0,0.102757 5.75558,0.0944894 5.75558,0 0,-0.315358 -1.36537,-0.83505 -2.85948,-0.83505z" />
  </g>
  <g
   id="_249362944">
   <path
   id="_249336064"
   class="fil48"
   d="M2.64216 4.16816c0.244491,-0.0673237 0.50788,-0.105119 0.788986,-0.105119l53.0924 0 0.0472447 0 0.00590558 0.00236223c0.312996,0.00354335 0.60237,0.050788 0.865759,0.133466l0 1.02639c-0.277562,-0.101576 -0.572842,-0.15827 -0.871664,-0.162994l0 0.00236223 -0.0472447 0 -53.0924 0c-0.262208,0 -0.540952,0.118112 -0.788986,0.19016l0 -1.08663z" />
   <path
   id="_249343576"
   class="fil49"
   d="M57.4424 4.19887c1.32167,0.415753 2.01617,1.75632 2.0138,3.36855l0.00236223 0 0 0.0413391 -0.294098 -0.0248035 0 -0.0413391 0.00236223 0c0,-1.07718 -0.757096,-1.96538 -1.72443,-2.31735l-0.303547 -0.461817 0.303547 -0.564574z" />
   <path
   id="_249361168"
   class="fil50"
   d="M0.613 7.28277c-0.0850404,-1.41025 0.679142,-2.73901 2.02916,-3.11461l0.164175 0.493707 -0.164175 0.592921c-0.108663,0.0318902 -0.210239,0.0543314 -0.303547,0.0543314 -0.549219,0.257483 -1.10789,0.816152 -1.33821,1.39136l0.00236223 0.00118112c-0.0933082,0.236223 -0.145277,0.492526 -0.145277,0.758277l-0.244491 -0.177168z" />
  </g>
  <path
   class="fil51"
   d="M3.38981 1.9701l52.9625 0.0484258c0.97324,0.00236223 1.91459,0.558668 2.55594,1.20001l0 0.00118112c0.641346,0.643709 1.04175,1.52955 1.03938,2.49688l0.00944894 9.345 -0.996863 0 -0.00944894 -9.345c0.00118112,-0.692135 -0.288193,-1.32994 -0.748828,-1.79175 -0.462998,-0.462998 -1.15395,-0.908279 -1.84963,-0.90946l-52.9625 -0.0484258 0 0.00236223 -0.0212601 0 0 -0.00236223c-0.688591,0.00118112 -1.32049,0.289374 -1.77876,0.747647l-0.00118112 0c-0.455911,0.455911 -0.744104,1.08899 -0.745285,1.77758l0.00236223 0 0 0.0212601 -0.00236223 0 0.0377957 9.54815 -0.996863 0 -0.0377957 -9.54579 -0.00236223 -0.00236223 0 -0.0212601 0.00236223 0c0.00236223,-0.963791 0.40158,-1.84609 1.03702,-2.48271l0 -0.00118112c0.635441,-0.635441 1.51774,-1.03584 2.48507,-1.0382l0 -0.00236223 0.0212601 0 0 0.00236223z"
   id="path4444" />
  <polygon
   class="fil52"
   points="0.809065,12.9344 59.4574,12.9344 59.4574,14.0919 0.809065,14.0919 "
   id="polygon4446" />
  <path
   class="fil35"
   d="M10.0336 6.9993l5.04573 0 0 4.97014 -5.04573 0 0 -4.97014zm3.94021 1.30868l-2.93626 0 0 2.65751 2.93626 0 0 -2.65751z"
   id="path4448" />
  <rect
   class="fil36"
   x="10.0418"
   y="12.0192"
   width="5.14253"
   height="0.951051"
   id="rect4450" />
  <path
   class="fil35"
   d="M16.0856 6.9993l5.04573 0 0 4.97014 -5.04573 0 0 -4.97014zm3.94021 1.30868l-2.93626 0 0 2.65751 2.93626 0 0 -2.65751z"
   id="path4452" />
  <rect
   class="fil36"
   x="16.0938"
   y="12.0192"
   width="5.14253"
   height="0.951051"
   id="rect4454" />
  <path
   class="fil53"
   d="M6.68985 17.9955l8.65522 0 0.65552 0 0 0.65552 0 8.71074 0 0.656701 -0.65552 0 -8.65522 0 -0.656701 0 0 -0.656701 0 -8.71074 0 -0.65552 0.656701 0zm8.20286 0.980327l-7.85207 0 0 7.98553 7.85207 0 0 -7.98553z"
   id="path4456" />
  <rect
   class="fil17"
   x="8.05112"
   y="20.0385"
   width="5.94811"
   height="6.04698"
   id="rect4458" />
  <path
   class="fil54"
   d="M6.68985 44.9852l8.65522 0 0.65552 0 0 0.65552 0 8.71074 0 0.656701 -0.65552 0 -8.65522 0 -0.656701 0 0 -0.656701 0 -8.71074 0 -0.65552 0.656701 0zm8.23002 1.00513l-7.85325 0 -0.0259846 7.96073 7.85207 0 0.0271657 -7.96073z"
   id="path4460" />
  <rect
   class="fil55"
   x="8.05112"
   y="47.0282"
   width="5.94811"
   height="6.04698"
   id="rect4462" />
  <path
   class="fil56"
   d="M6.68985 31.9976l8.65522 0 0.65552 0 0 0.65552 0 8.71074 0 0.656701 -0.65552 0 -8.65522 0 -0.656701 0 0 -0.656701 0 -8.71074 0 -0.65552 0.656701 0zm8.20286 1.00749l-7.85207 0 0 7.95837 7.85207 0 0 -7.95837z"
   id="path4464" />
  <rect
   class="fil57"
   x="8.05112"
   y="34.0406"
   width="5.94811"
   height="6.04698"
   id="rect4466" />
  <polygon
   class="fil54"
   points="31.1744,49.7616 43.471,49.829 43.471,51.1731 31.1744,51.1046 "
   id="polygon4468" />
  <polygon
   class="fil54"
   points="24.5601,44.4183 33.6925,44.4183 33.6925,45.7624 24.5601,45.7624 "
   id="polygon4470" />
  <polygon
   class="fil54"
   points="42.2297,23.9424 52.001,23.9424 52.001,25.2783 42.2297,25.2783 "
   id="polygon4472" />
  <polygon
   class="fil54"
   points="44.3155,32.998 52.3365,32.998 52.3365,34.3339 44.3155,34.3339 "
   id="polygon4474" />
  <polygon
   class="fil54"
   points="34.1945,32.998 42.7139,32.998 42.7139,34.3339 34.1945,34.3339 "
   id="polygon4476" />
  <polygon
   class="fil54"
   points="42.5651,35.6874 52.3365,35.6874 52.3365,37.0233 42.5651,37.0233 "
   id="polygon4478" />
  <polygon
   class="fil54"
   points="45.2769,46.4545 55.1794,46.4581 55.1794,47.8081 45.2769,47.8045 "
   id="polygon4480" />
  <polygon
   class="fil54"
   points="47.3238,46.4545 45.6974,46.4545 45.6974,47.8045 47.3238,47.8045 "
   id="polygon4482" />
  <polygon
   class="fil54"
   points="23.9223,46.4545 45.7021,46.4545 45.7021,47.8045 23.9223,47.8045 "
   id="polygon4484" />
  <polygon
   class="fil54"
   points="23.9223,43.8041 33.0996,43.8041 33.0996,45.1553 23.9223,45.1553 "
   id="polygon4486" />
  <polygon
   class="fil54"
   points="44.1431,49.2419 55.1794,49.2797 55.1794,50.6298 44.1431,50.5931 "
   id="polygon4488" />
  <polygon
   class="fil54"
   points="30.5697,49.1746 42.9265,49.2419 42.9265,50.5931 30.5697,50.5246 "
   id="polygon4490" />
  <polygon
   class="fil58"
   points="25.3172,28.6468 59.1822,28.6468 59.1822,60.485 25.3172,60.485 "
   id="polygon4492" />
  <path
   class="fil59"
   d="M29.3933 24.5283l25.4094 -0.170081c1.8142,1.32521 7.11032,5.37054 8.80641,8.82885l-0.0803159 29.3815 -34.2158 0.103938 0.0803159 -38.1442z"
   id="path4494" />
  <path
   class="fil21"
   d="M32.0803 49.9707l20.9471 0 0 1.00159 -20.9471 0 0 -1.00159zm0.0519691 7.98907l5.32329 0 0 0.437013 1.55081 0 0 -0.437013 12.7773 0.050788 0 1.0134 -6.20086 -0.0248035 -0.0519691 -0.0212601 -13.3986 0.420478 0 -0.426383 0 -0.575204 0 -0.437013zm20.9093 0.050788l8.03278 0.0271657 0 1.01222 -8.03278 -0.0259846 0 -1.0134zm-20.9093 -2.0138l19.5888 0 0 1.01222 -19.5888 0 0 -1.01222zm21.266 0l-1.68191 0 0 1.01222 1.68191 0 0 -1.01222zm-2.11774 0l9.79382 0.00236223 0 1.01222 -9.79382 -0.00236223 0 -1.01222zm-19.1483 -1.99018l18.0345 0 0 1.00159 -18.0345 0 0 -1.00159zm19.277 0l9.66508 0 0 1.00159 -9.66508 0 0 -1.00159zm-19.277 -2.01735l9.38043 0 0 1.00159 -9.38043 0 0 -1.00159zm10.6218 0l8.81113 0 0 1.00159 -8.81113 0 0 -1.00159zm10.4659 0l7.85443 0 0 1.00159 -7.85443 0 0 -1.00159zm-21.0877 -18.0238l15.1644 0 0 1.00159 -15.1644 0 0 -1.00159zm0 10.0064l5.32329 0 0 0.437013 1.55081 0 0 -0.437013 12.7773 0.050788 0 1.0134 -6.20086 -0.0248035 -0.0519691 -0.0212601 -13.3986 0.420478 0 -0.426383 0 -0.575204 0 -0.437013zm20.9093 0.050788l8.03278 0.0271657 0 1.01222 -8.03278 -0.0259846 0 -1.0134zm-20.9093 -2.0138l19.5888 0 0 1.01222 -19.5888 0 0 -1.01222zm21.266 0l-1.68191 0 0 1.01222 1.68191 0 0 -1.01222zm-2.11774 0l9.79382 0.00236223 0 1.01222 -9.79382 -0.00236223 0 -1.01222zm-19.1483 -1.99018l18.0345 0 0 1.00159 -18.0345 0 0 -1.00159zm19.277 0l9.66508 0 0 1.00159 -9.66508 0 0 -1.00159zm-19.277 -2.01735l9.38043 0 0 1.00159 -9.38043 0 0 -1.00159zm10.6218 0l8.81113 0 0 1.00159 -8.81113 0 0 -1.00159zm10.4659 0l7.85443 0 0 1.00159 -7.85443 0 0 -1.00159zm-4.68195 -4.03588l12.5364 0 0 1.00159 -12.5364 0 0 -1.00159zm-16.4057 -3.98273l13.4506 0 0 1.00159 -13.4506 0 0 -1.00159zm0 1.96538l10.6608 0 0 1.00159 -10.6608 0 0 -1.00159zm12.3202 0l5.367 0 0 1.00159 -5.367 0 0 -1.00159zm6.61071 0l10.0111 0 0 1.00159 -10.0111 0 0 -1.00159zm3.20673 18.0227l6.80441 0 0 1.00159 -6.80441 0 0 -1.00159zm-22.1896 -4.01698l10.6608 0 0 1.00159 -10.6608 0 0 -1.00159zm12.3202 0l11.1521 0 0 1.00159 -11.1521 0 0 -1.00159zm12.3946 0l4.27919 0 0 1.00159 -4.27919 0 0 -1.00159z"
   id="path4496" />
  <polygon
   class="fil60"
   points="54.5463,24.7338 29.9803,24.7338 29.9803,25.857 49.1522,25.857 54.6219,24.9901 "
   id="polygon4498" />
  <path
   class="fil61"
   d="M63.3858 35.163c-2.86657,0.0188979 -6.06031,-0.0153545 -8.92806,0.00354335 0,-2.91972 -0.00118112,-7.85325 -0.00118112,-10.7753 4.754,3.37327 7.43631,6.35205 8.5194,8.44144 0.491345,0.949618 0.138191,2.02089 0.409848,2.33034z"
   id="path4500" />
  <path
   class="fil62"
   d="M63.5205 32.9839c-2.86539,0.0188979 -5.86897,0.0377957 -8.73672,0.0566936 0,-2.91972 -0.0271657,-5.84062 -0.0271657,-8.76271 5.72605,4.89455 7.88041,7.71387 8.76389,8.70601z"
   id="path4502" />
  <path
   class="fil63"
   d="M29.3909 24.0298l25.4094 -0.170081 0.297641 0.0956705c0.915366,0.668512 2.71303,2.0268 4.48943,3.64729 1.79766,1.64175 3.58823,3.56815 4.46935,5.36581l0.050788 0.218507 -0.0803159 29.3815 -0.00236223 0.496069 -0.496069 0.00236223 -34.2158 0.103938 -0.498431 0.00118112 0 -0.499612 0.0803159 -38.1442 0.00118112 -0.494888 0.494888 -0.00354335zm25.2476 0.827963l-24.7479 0.165356 -0.0779537 37.1497 33.2189 -0.101576 0.0791348 -28.7673c-0.832687,-1.6323 -2.50633,-3.41815 -4.19651,-4.96187 -1.66656,-1.5201 -3.34492,-2.80043 -4.27564,-3.48429z"
   id="path4504" />
  <path
   class="fil64"
   d="M56.5542 45.4033l-8.882 0.46536 -9.59894 -6.68276 -0.070867 8.02805c-5.19337,1.66183 -10.8332,1.86971 -15.8411,-1.79175 -3.83154,-2.80279 -5.95637,-6.18905 -5.40361,-10.1163l-0.474809 -0.0732292c-1.08427,3.24098 0.501975,18.7302 15.4986,22.9727 1.02167,0.288193 3.72288,0.370871 6.03433,0.549219l0.0188979 4.66659 2.04806 -0.0460636 16.6715 -17.9719z"
   id="path4506" />
  <path
   class="fil65"
   d="M54.5806 45.4789l-9.08515 -6.67567 -9.59894 -6.68276 -0.070867 8.02805c-5.19337,1.66183 -10.8332,1.86853 -15.8411,-1.79175 -3.83154,-2.80279 -5.95637,-6.19023 -5.40361,-10.1163l-0.474809 -0.0732292c-1.08427,3.2398 0.501975,18.729 15.4986,22.9727 1.02167,0.288193 3.72288,0.370871 6.03433,0.549219l0.0259846 6.81977 9.71469 -6.5115 9.2009 -6.51858z"
   id="path4508" />
  <g
   id="_156584440">
   <g
   id="g4511">
    <path
   id="_156587512"
   class="fil66"
   d="M23.3389 48.2758l0.0165356 -8.04459c4.08666,1.62522 8.41428,1.21537 12.4702,-0.0814971l0.070867 -8.02923 9.59894 6.68276 1.22954 0.903554 -0.020079 11.3517 -1.32639 0.937807 -9.71351 6.51268 -0.0259846 -6.81977c-2.31026,-0.177168 -5.01266,-0.259846 -6.03315,-0.549219 -2.39412,-0.67678 -4.47171,-1.66892 -6.26701,-2.86421z" />
    <path
   id="_156586432"
   class="fil67"
   d="M24.1964 48.8156l0.0141734 -8.27609c3.83154,1.25435 7.84025,0.817333 11.6151,-0.389769l0.070867 -8.02923 9.13948 6.36268 -0.0259846 13.7612 -9.345 6.26464 -0.0259846 -6.81977c-2.31026,-0.177168 -5.01266,-0.259846 -6.03315,-0.549219 -2.02207,-0.571661 -3.81737,-1.3701 -5.40952,-2.32444z" />
    <path
   id="_156589096"
   class="fil68"
   d="M25.0468 49.3022l0.0153545 -8.50995c3.5717,0.935445 7.26741,0.474809 10.7635,-0.642528l0.070867 -8.02923 7.44576 5.18274 -0.0295279 16.0797 -7.64773 5.12605 -0.0259846 -6.81977c-2.31026,-0.177168 -5.01266,-0.259846 -6.03315,-0.549219 -1.6701,-0.472447 -3.18429,-1.09726 -4.55911,-1.83782z" />
    <path
   id="_156587440"
   class="fil69"
   d="M25.8995 49.7357l0.0165356 -8.74735c3.30358,0.661425 6.69221,0.191341 9.90957,-0.838593l0.070867 -8.02923 5.75322 4.00517 -0.0330713 18.3935 -5.95165 3.98981 -0.0259846 -6.81977c-2.31026,-0.177168 -5.01266,-0.259846 -6.03315,-0.549219 -1.3323,-0.376776 -2.56302,-0.851585 -3.70634,-1.40435z" />
    <path
   id="_156585280"
   class="fil70"
   d="M26.757 50.1278l0.0165356 -8.99302c3.03075,0.428745 6.11228,-0.0448824 9.05208,-0.985051l0.070867 -8.02923 4.06659 2.82996 -0.0377957 20.7014 -4.26029 2.85712 -0.0259846 -6.81977c-2.31026,-0.177168 -5.01266,-0.259846 -6.03315,-0.549219 -1.00513,-0.284649 -1.95357,-0.624811 -2.84885,-1.01222z" />
    <path
   id="_156588208"
   class="fil71"
   d="M27.6122 50.4774l0.0165356 -9.24578c2.75318,0.237404 5.53471,-0.230318 8.19695,-1.0819l0.070867 -8.02923 2.37168 1.6512 -0.0425202 23.02 -2.56066 1.71734 -0.0259846 -6.81977c-2.31026,-0.177168 -5.01266,-0.259846 -6.03315,-0.549219 -0.692135,-0.194884 -1.35592,-0.419296 -1.99373,-0.662607z" />
    <path
   id="_156583192"
   class="fil72"
   d="M28.4637 50.7821l0.0177168 -9.49854c2.47208,0.0862215 4.95597,-0.370871 7.34418,-1.13387l0.070867 -8.02923 0.682686 0.47599 -0.0460636 25.3291 -0.868121 0.583472 -0.0259846 -6.81977c-2.31026,-0.177168 -5.01266,-0.259846 -6.03315,-0.549219 -0.389769,-0.109844 -0.768907,-0.231499 -1.14214,-0.357878z" />
    <path
   id="_156583024"
   class="fil73"
   d="M29.3177 51.0538l0.0188979 -9.76075c1.86144,-0.0271657 3.72052,-0.347248 5.53471,-0.857491l-0.020079 11.197c-2.10711,-0.141734 -4.3406,-0.236223 -5.24534,-0.492526l-0.288193 -0.0862215z" />
   </g>
   <g
   id="g4521">
    <path
   id="_156587416"
   class="fil66"
   d="M29.4748 51.101l0.0188979 -9.81154c2.13546,-0.050788 4.26974,-0.480715 6.33197,-1.13978l0.070867 -8.02923 1.07009 0.745285 -0.0448824 24.7999 -1.25671 0.843317 -0.0259846 -6.81977c-2.31026,-0.177168 -5.01266,-0.259846 -6.03315,-0.549219l-0.131104 -0.0389769z" />
    <path
   id="_156588496"
   class="fil67"
   d="M29.7476 51.1766l0.0188979 -9.89658c2.04569,-0.0791348 4.0843,-0.499612 6.05913,-1.13033l0.070867 -8.02923 0.52914 0.368508 -0.0448824 25.5405 -0.715757 0.479533 -0.0259846 -6.81977c-2.20987,-0.170081 -4.77998,-0.251578 -5.89141,-0.512605z" />
    <path
   id="_156587128"
   class="fil68"
   d="M30.0193 51.2309l0.0177168 -9.9639c1.95239,-0.103938 3.90123,-0.514967 5.78865,-1.11734l0.0590558 -6.60008 -0.0460636 24.8424 -0.173624 0.116931 -0.0259846 -6.81977c-2.04569,-0.157089 -4.39848,-0.238586 -5.61975,-0.458273z" />
    <path
   id="_156587176"
   class="fil69"
   d="M30.2921 51.2758l0.0177168 -10.0241c1.69136,-0.114568 3.37799,-0.45473 5.02211,-0.949618l-0.0212601 11.3623c-1.81892,-0.131104 -3.81501,-0.213782 -5.01857,-0.388587z" />
    <path
   id="_156582736"
   class="fil70"
   d="M30.5673 51.3113l0.0177168 -10.0797c1.4138,-0.116931 2.82405,-0.387406 4.20832,-0.773632l-0.0212601 11.1698c-1.52837,-0.103938 -3.11461,-0.180711 -4.20478,-0.316539z" />
    <path
   id="_156587152"
   class="fil71"
   d="M30.8401 51.3432l0.0177168 -10.1352c1.13978,-0.111025 2.27365,-0.320083 3.39335,-0.604732l-0.020079 10.9891c-1.2319,-0.0791348 -2.45554,-0.148821 -3.39099,-0.249216z" />
    <path
   id="_156586000"
   class="fil72"
   d="M31.1106 51.3715l0.0177168 -10.1919c0.864578,-0.0968516 1.72797,-0.248035 2.5831,-0.446462l-0.0212601 10.8261c-0.928358,-0.0590558 -1.82955,-0.115749 -2.57956,-0.187798z" />
    <path
   id="_156582760"
   class="fil73"
   d="M31.3846 51.3963l0.0177168 -10.2486c0.590558,-0.0744104 1.17994,-0.173624 1.76695,-0.294098l-0.0188979 10.6702c-0.627173,-0.0389769 -1.22836,-0.0803159 -1.76577,-0.127561z" />
   </g>
  </g>
  <path
   class="fil74"
   d="M54.6219 45.3738l-5.16857 -3.79611 -13.6289 -9.12531 0.0188979 -0.648433 -0.0578747 -0.0425202 0.0389769 1.76223 18.599 12.1383 0.198428 -0.288193zm-18.7939 -5.31621l-0.00826782 0.00118112 -0.00236223 0.496069c-5.19455,1.66183 -10.8261,2.08231 -15.5376,-1.94412 -0.377957,-0.323626 -0.738198,-0.65552 -1.0819,-0.9945 -2.83468,-2.29373 -4.54848,-4.95597 -4.65478,-7.95837 0.15827,3.07799 2.12601,6.9367 5.73668,10.023 4.71148,4.02761 10.343,3.60713 15.5376,1.9453l0.0106301 -1.56852z"
   id="path4531" />
  <path
   class="fil75"
   d="M53.729 45.473l-8.5194 -6.25992 -8.82294 -6.14299 -0.0625992 7.08198 -0.00354335 0.360241 -0.344886 0.111025c-2.65279,0.848042 -5.42487,1.32639 -8.17569,1.12324 -2.77208,-0.204333 -5.52526,-1.09726 -8.11073,-2.98704 -2.0327,-1.48703 -3.60595,-3.1465 -4.57801,-4.96423 -0.283468,-0.530321 -0.514967,-1.07364 -0.693316,-1.62994 0.197247,1.93231 0.733474,4.31226 1.79057,6.74418 1.96065,4.51069 5.72369,9.16665 12.4466,11.4167l0 0.00118112c0.330713,0.108663 0.692135,0.22205 1.08427,0.331894 0.683867,0.192522 2.27129,0.292917 3.95202,0.398036 0.673237,0.0413391 1.36773,0.0862215 1.98428,0.133466l0.459454 0.0354335 0.00236223 0.462998 0.0224412 5.88787 8.94224 -5.99417 0.00118112 0.00118112 8.6257 -6.1111zm-7.93829 -7.07253l9.08515 6.67567 0.556306 0.408666 -0.564574 0.400399 -9.2009 6.51858 -0.00944894 0.00826782 -9.71469 6.5115 -0.77245 0.517329 -0.00354335 -0.931901 -0.0248035 -6.35441 -1.51183 -0.100395c-1.73506,-0.108663 -3.37327,-0.21142 -4.15989,-0.43347 -0.361422,-0.101576 -0.74056,-0.220869 -1.12915,-0.349611l-0.00236223 0c-7.04654,-2.35751 -10.9903,-7.23552 -13.0443,-11.9624 -2.05751,-4.73155 -2.21578,-9.35445 -1.71144,-11.1379l0.00354335 -0.0118112 0.0425202 -0.138191 0.127561 -0.413391 0.426383 0.0649614 0.474809 0.0732292 0.487801 0.0755915 -0.0696859 0.487801c-0.252759,1.79175 0.0874027,3.46776 0.914184,5.0162 0.896468,1.67719 2.37286,3.22563 4.28982,4.6288 2.42011,1.76931 4.99494,2.60436 7.59104,2.7957 2.50042,0.184254 5.02683,-0.223231 7.45993,-0.967335l0.0673237 -7.66545 0.00826782 -0.946075 0.775994 0.53977 9.59894 6.68276 0.00944894 0.0070867z"
   id="path4533" />
 </g>
</svg>