<?xml version="1.0" encoding="UTF-8"?>
<!DOCTYPE svg PUBLIC "-//W3C//DTD SVG 1.1//EN" "http://www.w3.org/Graphics/SVG/1.1/DTD/svg11.dtd">
<!-- Creator: CorelDRAW -->
<svg xmlns="http://www.w3.org/2000/svg" xml:space="preserve" width="64px" height="64px" style="shape-rendering:geometricPrecision; text-rendering:geometricPrecision; image-rendering:optimizeQuality; fill-rule:evenodd; clip-rule:evenodd"
viewBox="0 0 64 64"
 xmlns:xlink="http://www.w3.org/1999/xlink">
 <defs>
  <style type="text/css">
   <![CDATA[
    .fil10 {fill:#BDE06B}
    .fil19 {fill:#83A14F;fill-rule:nonzero}
    .fil16 {fill:#9BBA65;fill-rule:nonzero}
    .fil18 {fill:#DAFF8F;fill-rule:nonzero}
    .fil0 {fill:#333333;fill-opacity:0.000000}
    .fil1 {fill:#333333;fill-opacity:0.011765}
    .fil2 {fill:#333333;fill-opacity:0.027451}
    .fil3 {fill:#333333;fill-opacity:0.039216}
    .fil4 {fill:#333333;fill-opacity:0.054902}
    .fil5 {fill:#333333;fill-opacity:0.066667}
    .fil6 {fill:#333333;fill-opacity:0.078431}
    .fil7 {fill:#333333;fill-opacity:0.094118}
    .fil8 {fill:#333333;fill-opacity:0.105882}
    .fil9 {fill:#333333;fill-opacity:0.121569}
    .fil12 {fill:#DAFF8F;fill-opacity:0.121569}
    .fil14 {fill:#DAFF8F;fill-opacity:0.439216}
    .fil20 {fill:#9BBA65;fill-rule:nonzero;fill-opacity:0.439216}
    .fil13 {fill:#DAFF8F;fill-rule:nonzero;fill-opacity:0.439216}
    .fil17 {fill:#9BBA65;fill-rule:nonzero;fill-opacity:0.501961}
    .fil11 {fill:url(#id0)}
    .fil21 {fill:url(#id1)}
    .fil15 {fill:url(#id2);fill-rule:nonzero}
   ]]>
  </style>
  <linearGradient id="id0" gradientUnits="userSpaceOnUse" x1="32.7075" y1="3.61304" x2="31.3256" y2="61.7523">
   <stop offset="0" style="stop-color:#C0E36F"/>
   <stop offset="0.419608" style="stop-color:#ACD156"/>
   <stop offset="1" style="stop-color:#9EC444"/>
  </linearGradient>
  <linearGradient id="id1" gradientUnits="userSpaceOnUse" x1="32.7252" y1="45.4553" x2="32.4228" y2="11.5076">
   <stop offset="0" style="stop-color:#333333"/>
   <stop offset="1" style="stop-color:#666666"/>
  </linearGradient>
  <linearGradient id="id2" gradientUnits="userSpaceOnUse" x1="31.6929" y1="3.70516" x2="32.3709" y2="29.4039">
   <stop offset="0" style="stop-color:#F8FFC4"/>
   <stop offset="1" style="stop-color:#C0E670"/>
  </linearGradient>
 </defs>
 <g id="Слой_x0020_1">
  <metadata id="CorelCorpID_0Corel-Layer"/>
  <g id="_206455280">
   <path id="_206461856" class="fil0" d="M43.1923 61.1748c17.5502,0.020079 11.0753,1.58152 11.0753,2.0079 0,0.105119 0.0862215,0.231499 0.0377957,0.361422l-24.9405 0c-0.0425202,-0.040158 -0.0614181,-0.0791348 -0.0614181,-0.118112 0,-0.426383 -3.66028,-2.27011 13.8888,-2.25121z"/>
   <g>
    <path id="_206461808" class="fil1" d="M43.8194 61.2858c15.7348,0.0177168 10.1068,1.4386 10.1068,1.83782 0,0.120474 0.113387,0.271657 -0.0720481,0.420478l-22.4117 0c-0.164175,-0.0696859 -0.229137,-0.138191 -0.229137,-0.205514 0,-0.398036 -3.12878,-2.06932 12.6061,-2.05278z"/>
    <path id="_206461448" class="fil2" d="M44.4454 61.398c13.9206,0.0141734 9.13948,1.29569 9.13948,1.66656 0,0.13701 0.138191,0.314177 -0.325988,0.479533l-19.5428 0c-0.438194,-0.0956705 -0.594102,-0.196065 -0.594102,-0.290555 0,-0.372052 -2.59728,-1.87089 11.3234,-1.85553z"/>
    <path id="_206461664" class="fil3" d="M45.0738 61.509c12.1064,0.0129923 8.17215,1.15277 8.17215,1.49766 0,0.153545 0.153545,0.367327 -0.905917,0.537408l-15.9203 0c-1.04529,-0.114568 -1.38545,-0.250397 -1.38545,-0.375595 0,-0.344886 -2.06814,-1.67128 10.0395,-1.65947z"/>
    <path id="_206461592" class="fil4" d="M45.6998 61.6212c10.2923,0.0106301 7.20481,1.00985 7.20481,1.32639 0,0.181892 0.142915,0.458273 -2.53113,0.596464l-9.95091 0c-2.69058,-0.106301 -3.47839,-0.295279 -3.47839,-0.461817 0,-0.316539 -1.53781,-1.47167 8.75562,-1.46104z"/>
    <path id="_206461520" class="fil5" d="M46.3258 61.7323c8.47806,0.00944894 6.23748,0.868121 6.23748,1.15631 0,0.206695 -0.0141734,0.555125 -6.04141,0.555125 -6.02606,0 -7.66781,-0.240948 -7.66781,-0.446462 0,-0.288193 -1.00749,-1.27324 7.47175,-1.26498z"/>
    <path id="_206461424" class="fil6" d="M46.9518 61.8445c6.66386,0.0070867 5.27014,0.725206 5.27014,0.986233 0,0.161813 -0.304728,0.427564 -5.11896,0.426383 -4.81423,0 -6.33905,-0.184254 -6.33905,-0.346067 0,-0.261027 -0.477171,-1.07364 6.18787,-1.06655z"/>
    <path id="_206453672" class="fil7" d="M47.5801 61.9567c4.84967,0.00354335 4.30281,0.58111 4.30281,0.816152 0,0.116931 -0.596464,0.298823 -4.19769,0.297641 -3.60123,0 -5.0103,-0.127561 -5.0103,-0.244491 0,-0.233861 0.0543314,-0.874027 4.90518,-0.869302z"/>
    <path id="_206453168" class="fil8" d="M48.2049 62.0677c3.03665,0.00236223 3.33666,0.439375 3.33666,0.646071 0,0.0732292 -0.885838,0.171262 -3.27524,0.170081 -2.3894,0 -3.68272,-0.070867 -3.68272,-0.142915 0,-0.206695 0.585834,-0.675599 3.6213,-0.673237z"/>
   </g>
   <path id="_206457296" class="fil9" d="M48.8321 62.1811c1.22127,0 2.36814,0.29646 2.36814,0.474809 0,0.0590558 -4.70557,0.0555125 -4.70557,0 0,-0.178349 1.11497,-0.474809 2.33743,-0.474809z"/>
  </g>
  <ellipse class="fil10" cx="31.7998" cy="26.7255" rx="31.2271" ry="25.9835"/>
  <path class="fil11" d="M32.0165 3.1276c17.2431,0 31.2275,11.634 31.2275,25.9822 0,9.04381 -5.55715,17.0093 -13.9844,21.664 -2.16971,1.49411 -4.40438,3.16067 -2.4768,6.13 1.38073,2.13192 3.13587,4.36186 5.44377,5.06935 -1.42443,0.26457 -8.67648,-0.65552 -10.0513,-1.08427 -4.30399,-1.33821 -6.7867,-2.92326 -9.83752,-5.7981l-0.321264 0.00354335c-17.2419,0 -31.2264,-11.6375 -31.2264,-25.9846 0,-14.3482 13.9844,-25.9822 31.2264,-25.9822z"/>
  <path class="fil12" d="M62.6677 32.7016c-2.76263,4.45754 -9.60366,13.0313 -17.1297,13.7659 -13.6206,1.32758 -10.3383,2.05987 -24.4751,-0.262208 -7.28985,-1.19647 -12.4927,-3.2835 -17.8242,-7.21544 4.83195,9.15011 15.8187,15.5423 28.5984,15.5423l0.321264 -0.00354335c3.05082,2.87484 5.53353,4.4599 9.83752,5.7981 1.37482,0.428745 8.62688,1.34884 10.0513,1.08427 -2.3079,-0.707489 -4.06304,-2.93744 -5.44377,-5.06935 -1.92758,-2.96933 0.30709,-4.63588 2.4768,-6.13 7.11032,-3.92721 12.1785,-10.2108 13.5876,-17.5101z"/>
  <path class="fil13" d="M32.0165 3.1276c1.71498,0 3.39689,0.115749 5.03746,0.337799 -2.43901,-0.223231 -4.93825,-0.290555 -7.47175,-0.186616 -0.741741,0.030709 -1.47758,0.0755915 -2.20987,0.134647 1.51537,-0.187798 3.06618,-0.28583 4.64415,-0.28583zm31.0209 26.6944c-0.798435,8.15089 -6.02252,16.6679 -13.7777,20.9518 -2.16971,1.49411 -4.40438,3.16067 -2.4768,6.13 1.38073,2.13192 3.13587,4.36186 5.44377,5.06935 -1.42443,0.26457 -8.67648,-0.65552 -10.0513,-1.08427 -4.30399,-1.33821 -6.7867,-2.92326 -9.83752,-5.7981l-0.321264 0.00354335c-16.4116,0 -30.2094,-12.1088 -31.4685,-25.4968l1.85317 1.62522c0.610637,5.87015 3.7406,11.158 8.49223,15.1112 5.38944,4.4847 12.8576,7.26033 21.1231,7.26033l0 0.00590558 0.309453 -0.00354335 1.03702 0.403942c1.45277,1.36773 2.75909,2.42483 4.19178,3.28232 1.42797,0.857491 3.02602,1.54254 5.06581,2.1768 0.611819,0.19016 2.64806,0.503156 4.72211,0.742923 -0.672056,-0.791348 -1.27324,-1.64648 -1.8142,-2.48389 -1.34647,-2.07522 -1.20238,-3.75713 -0.325988,-5.20636 0.742923,-1.2319 1.98782,-2.12955 3.20791,-2.96933l0.128742 -0.0814971c4.07131,-2.24885 7.43395,-5.30676 9.74658,-8.8879 1.80238,-2.79334 2.96933,-5.91385 3.33547,-9.22216l1.41616 -1.52955z"/>
  <path class="fil14" d="M1.08427 30.8283c16.2758,0.980327 45.3183,2.09884 61.2952,-0.205514 -0.0283468,-0.448824 -0.0673237,-2.07995 -0.119293,-2.52877 -0.493707,-14.8077 -15.4762,-25.681 -32.2539,-24.8153 -12.7005,0.65552 -23.8656,8.00561 -27.696,18.1609 -1.25435,3.32603 -1.4634,6.19732 -1.226,9.3887z"/>
  <path class="fil15" d="M0.152364 28.6055c0.353154,-6.9178 3.86343,-13.1541 9.35917,-17.7262 5.76739,-4.7977 13.7281,-7.76939 22.505,-7.76939 8.78042,0 16.74,2.97169 22.5062,7.76939 5.80165,4.82604 9.38988,11.5029 9.38988,18.8813l-0.00118112 0 0.00118112 0.238586 -0.0885838 0c-0.294098,-7.00048 -3.81855,-13.3124 -9.3698,-17.9294 -5.76621,-4.7977 -13.7258,-7.76939 -22.5062,-7.76939 -8.77688,0 -16.7376,2.97169 -22.505,7.76939 -5.24298,4.36186 -8.67885,10.2367 -9.29067,16.7742 0.0106301,-0.216144 0.0248035,-0.431108 0.0425202,-0.646071l-0.0425202 0.407485zm1.3323 0.334256c-0.0177168,0.350792 -0.0271657,0.703946 -0.0271657,1.05946l-0.0472447 0 0.0118112 -0.238586 -0.0118112 0c0.0153545,-0.354335 0.040158,-0.70867 0.0744104,-1.05946l-0.0165356 0.41221 0.0165356 -0.173624z"/>
  <path class="fil16" d="M63.5063 25.8629c0.0755915,0.527959 0.13701,1.07127 0.177168,1.61695 0.040158,0.546857 0.0614181,1.09253 0.0614181,1.62994 0,4.53667 -1.36891,8.80877 -3.77839,12.5423 -2.49098,3.85871 -6.09929,7.14458 -10.4552,9.55405 -1.02875,0.70867 -2.06932,1.45868 -2.59846,2.33743 -0.492526,0.814971 -0.546857,1.80238 0.288193,3.08862 0.674418,1.04293 1.44096,2.10829 2.31145,2.99059 0.84568,0.858672 1.79648,1.54844 2.8583,1.87325l-0.0543314 0.967335c-0.694497,0.128742 -2.58428,0.0070867 -4.5662,-0.206695 -2.38468,-0.256302 -4.94652,-0.648433 -5.72369,-0.890562 -2.18625,-0.680323 -3.91895,-1.42679 -5.49574,-2.37286 -1.52718,-0.915366 -2.89964,-2.01026 -4.39021,-3.40162l-0.120474 0.00118112 -0.00354335 0.00236223c-8.56192,0 -16.3384,-2.83586 -22.0444,-7.44104 -5.73668,-4.62762 -9.3887,-11.0505 -9.66154,-18.1821 -0.0755915,-0.527959 -0.13701,-1.07127 -0.177168,-1.61695 -0.040158,-0.546857 -0.0614181,-1.09253 -0.0614181,-1.62994 0,-7.32765 3.56697,-13.9608 9.32846,-18.755 5.73905,-4.77407 13.6608,-7.72923 22.3987,-7.72923 8.5631,0 16.3396,2.83586 22.0455,7.43986 5.73668,4.62762 9.3887,11.0505 9.66154,18.1821zm-0.819695 1.68782c-0.0366146,-0.516148 -0.0956705,-1.0382 -0.171262,-1.55553l-0.00354335 -0.0543314c-0.249216,-6.84693 -3.76422,-13.023 -9.29303,-17.4829 -5.53353,-4.46462 -13.0891,-7.21544 -21.4196,-7.21544 -8.50168,0 -16.1978,2.86421 -21.7609,7.49301 -5.53708,4.60754 -8.96468,10.9702 -8.96468,17.9896 0,0.531503 0.020079,1.05474 0.0566936,1.55907 0.0366146,0.516148 0.0956705,1.0382 0.171262,1.55553l0.00354335 0.0543314c0.249216,6.84693 3.76422,13.023 9.29303,17.4829 5.53471,4.46698 13.0891,7.21662 21.4184,7.21662l0 0.00236223 0.31772 -0.00354335 0.346067 0.134647c1.50238,1.41498 2.86185,2.51224 4.36305,3.41107 1.49884,0.900011 3.16421,1.61577 5.28077,2.27365 0.728749,0.226774 3.20673,0.60237 5.53235,0.852766 0.807884,0.0874027 1.59451,0.159451 2.27837,0.205514 -0.471266,-0.334256 -0.915366,-0.724025 -1.33348,-1.14805 -0.927177,-0.938988 -1.7327,-2.05751 -2.43664,-3.1465 -1.09017,-1.67955 -0.992138,-3.01421 -0.30709,-4.1469 0.640165,-1.06182 1.78939,-1.88742 2.91854,-2.6646l0.0437013 -0.0283468c4.21659,-2.32916 7.70324,-5.50046 10.1056,-9.22216 2.3079,-3.57524 3.61776,-7.66309 3.61776,-12.0037 0,-0.531503 -0.020079,-1.05474 -0.0566936,-1.55907z"/>
  <path class="fil17" d="M32.6319 8.65286c1.21537,0 2.32208,0.491345 3.12405,1.28151 0.807884,0.793711 1.30986,1.89333 1.30986,3.09925l0 19.9762c0,1.20592 -0.501975,2.30436 -1.30868,3.10043 -0.801978,0.790167 -1.90987,1.28151 -3.12524,1.28151 -1.21064,0 -2.3516,-0.500794 -3.18429,-1.29687l-0.00354335 0c-0.831506,-0.796073 -1.36183,-1.89451 -1.36183,-3.10161l0 -19.9762c0,-1.20474 0.530321,-2.29609 1.36183,-3.0839l-0.00118112 -0.00118112c0.831506,-0.787805 1.97719,-1.27915 3.18902,-1.27915zm1.72561 2.70358c-0.441738,-0.434651 -1.05356,-0.705127 -1.72561,-0.705127 -0.689772,0 -1.34175,0.278744 -1.8142,0.726387l-0.00354335 0c-0.447643,0.42284 -0.733474,1.00395 -0.733474,1.63939l0 19.9762c0,0.638984 0.291736,1.23072 0.745285,1.66537l-0.00118112 0.00118112c0.470085,0.451187 1.1197,0.733474 1.80711,0.733474 0.673237,0 1.28506,-0.270476 1.72679,-0.705127 0.437013,-0.431108 0.70867,-1.02639 0.70867,-1.67837l0 -19.9762c0,-0.651977 -0.272838,-1.24726 -0.709851,-1.67719zm-1.72561 28.1177c1.21537,0 2.32208,0.491345 3.12405,1.28151 0.807884,0.796073 1.30986,1.89451 1.30986,3.09925l0 0.38032c0,1.20474 -0.501975,2.30318 -1.30986,3.09925 -0.801978,0.790167 -1.90868,1.28151 -3.12405,1.28151 -1.21064,0 -2.3516,-0.500794 -3.18429,-1.29687l-0.00354335 0c-0.831506,-0.796073 -1.36183,-1.89451 -1.36183,-3.10161l0 -0.379139c0,-1.20474 0.530321,-2.29609 1.36183,-3.0839l-0.00118112 -0.00118112c0.831506,-0.787805 1.97719,-1.27915 3.18902,-1.27915zm1.72561 2.70358c-0.441738,-0.434651 -1.05356,-0.705127 -1.72561,-0.705127 -0.689772,0 -1.34175,0.278744 -1.8142,0.726387l-0.00354335 0c-0.447643,0.42284 -0.733474,1.00395 -0.733474,1.63939l0 0.379139c0,0.638984 0.291736,1.23072 0.745285,1.66537l-0.00118112 0.00118112c0.470085,0.451187 1.1197,0.733474 1.80711,0.733474 0.672056,0 1.28387,-0.270476 1.72561,-0.705127 0.437013,-0.429927 0.709851,-1.02521 0.709851,-1.67719l0 -0.38032c0,-0.651977 -0.272838,-1.24726 -0.709851,-1.67719z"/>
  <path class="fil18" d="M28.7141 46.4191l2.21814 -0.437013c0.459454,0.393312 1.06301,0.635441 1.69963,0.635441 0.672056,0 1.28387,-0.270476 1.72561,-0.705127 0.0555125,-0.0543314 0.108663,-0.112206 0.15827,-0.171262l1.93113 0.718119c-0.192522,0.320083 -0.425202,0.613 -0.690953,0.875208 -0.801978,0.790167 -1.90868,1.28151 -3.12405,1.28151 -1.21064,0 -2.3516,-0.500794 -3.18429,-1.29687l-0.00354335 0c-0.279925,-0.268114 -0.526778,-0.570479 -0.72993,-0.900011z"/>
  <path class="fil19" d="M28.1366 44.8813c0.4441,-0.341343 1.17521,-0.876389 1.96538,-1.34529 0.0755915,-0.516148 0.336618,-0.982689 0.712213,-1.33702l0.00354335 0c0.472447,-0.447643 1.12442,-0.726387 1.8142,-0.726387 0.672056,0 1.28387,0.270476 1.72561,0.705127 0.379139,0.373233 0.63426,0.868121 0.695678,1.4197l1.01458 0.510242c0,0 0.432289,0.343705 0.963791,0.673237 0.0224412,-0.17953 0.0342524,-0.361422 0.0342524,-0.545676l0 -0.38032c0,-1.20474 -0.501975,-2.30318 -1.30986,-3.09925 -0.801978,-0.790167 -1.90868,-1.28151 -3.12405,-1.28151 -1.21183,0 -2.35751,0.491345 -3.18902,1.27915l0.00118112 0.00118112c-0.831506,0.787805 -1.36183,1.87916 -1.36183,3.0839l0 0.379139c0,0.225593 0.0188979,0.447643 0.0543314,0.663788z"/>
  <path class="fil20" d="M32.6319 8.65286c1.21537,0 2.32208,0.491345 3.12405,1.28151 0.785443,0.771269 1.28151,1.83309 1.30868,3.00004 -0.748828,0.138191 -1.42679,-0.0590558 -1.47167,-0.458273 -0.0165356,-0.146458 -0.26457,-0.187798 -0.640165,-0.164175 -0.119293,-0.363784 -0.325988,-0.690953 -0.595283,-0.955524 -0.441738,-0.434651 -1.05356,-0.705127 -1.72561,-0.705127 -0.689772,0 -1.34175,0.278744 -1.8142,0.726387l-0.00354335 0c-0.447643,0.42284 -0.733474,1.00395 -0.733474,1.63939l0 0.148821c-0.592921,-0.0779537 -1.35356,-0.204333 -1.99491,-0.316539 0.0460636,-1.1386 0.565755,-2.16499 1.35828,-2.91618l-0.00118112 -0.00118112c0.831506,-0.787805 1.97719,-1.27915 3.18902,-1.27915z"/>
  <path class="fil18" d="M36.728 34.6823c-0.226774,0.538589 -0.559849,1.02167 -0.970878,1.42797 -0.801978,0.790167 -1.90987,1.28151 -3.12524,1.28151 -1.21064,0 -2.3516,-0.500794 -3.18429,-1.29687l-0.00354335 0c-0.468903,-0.448824 -0.840955,-0.992138 -1.07718,-1.59805 0.0519691,-1.33584 0.616543,-2.49688 0.616543,-2.49688l-0.135828 0.101576c0.0342524,0.0177168 0.524416,0.0106301 1.23309,-0.00944894l0 0.901192c0,0.638984 0.291736,1.23072 0.745285,1.66537l-0.00118112 0.00118112c0.470085,0.451187 1.1197,0.733474 1.80711,0.733474 0.673237,0 1.28506,-0.270476 1.72679,-0.705127 0.437013,-0.431108 0.70867,-1.02639 0.70867,-1.67837l0 -1.10434 1.00041 -0.0413391c0,0 0.327169,1.37836 0.660244,2.81814z"/>
  <path class="fil21" d="M32.6319 9.65209l0 0c1.88979,0 3.43469,1.52364 3.43469,3.38154l0 19.9762c0,1.85908 -1.5449,3.38272 -3.43469,3.38272l0 0c-1.88624,0 -3.55044,-1.539 -3.55044,-3.39925l0 -19.9762c0,-1.86026 1.66419,-3.365 3.55044,-3.365zm0 30.8212l0 0c1.88979,0 3.43469,1.52482 3.43469,3.38154l0 0.38032c0,1.85199 -1.5449,3.07563 -3.43469,3.07563l0 0c-1.88624,0 -3.55044,-1.23309 -3.55044,-3.09335l0 -0.379139c0,-1.86026 1.66419,-3.365 3.55044,-3.365z"/>
 </g>
</svg>
