<?xml version="1.0" encoding="UTF-8" standalone="no"?>
<!-- Creator: CorelDRAW -->

<svg
   xmlns:dc="http://purl.org/dc/elements/1.1/"
   xmlns:cc="http://creativecommons.org/ns#"
   xmlns:rdf="http://www.w3.org/1999/02/22-rdf-syntax-ns#"
   xmlns:svg="http://www.w3.org/2000/svg"
   xmlns="http://www.w3.org/2000/svg"
   xmlns:xlink="http://www.w3.org/1999/xlink"
   xmlns:sodipodi="http://sodipodi.sourceforge.net/DTD/sodipodi-0.dtd"
   xmlns:inkscape="http://www.inkscape.org/namespaces/inkscape"
   xml:space="preserve"
   width="64px"
   height="64px"
   style="shape-rendering:geometricPrecision; text-rendering:geometricPrecision; image-rendering:optimizeQuality; fill-rule:evenodd; clip-rule:evenodd"
   viewBox="0 0 64 64"
   id="svg5651"
   version="1.1"
   inkscape:version="0.48.1 r9760"
   sodipodi:docname="preferences-desktop-keyboard-shortcut.svg"><metadata
   id="metadata5851"><rdf:RDF><cc:Work
       rdf:about=""><dc:format>image/svg+xml</dc:format><dc:type
         rdf:resource="http://purl.org/dc/dcmitype/StillImage" /><dc:title></dc:title></cc:Work></rdf:RDF></metadata><sodipodi:namedview
   pagecolor="#ffffff"
   bordercolor="#666666"
   borderopacity="1"
   objecttolerance="10"
   gridtolerance="10"
   guidetolerance="10"
   inkscape:pageopacity="0"
   inkscape:pageshadow="2"
   inkscape:window-width="646"
   inkscape:window-height="480"
   id="namedview5849"
   showgrid="false"
   inkscape:zoom="4.15625"
   inkscape:cx="32"
   inkscape:cy="32"
   inkscape:window-x="0"
   inkscape:window-y="24"
   inkscape:window-maximized="0"
   inkscape:current-layer="svg5651" />
 <defs
   id="defs5653">
  <style
   type="text/css"
   id="style5655">
   
    .fil16 {fill:#E5E5E5}
    .fil9 {fill:#B5E2FF}
    .fil59 {fill:#999999;fill-rule:nonzero}
    .fil13 {fill:#CCCCCC;fill-rule:nonzero}
    .fil11 {fill:white;fill-rule:nonzero}
    .fil18 {fill:#6EAEE4;fill-rule:nonzero}
    .fil56 {fill:#999999;fill-rule:nonzero}
    .fil40 {fill:white;fill-rule:nonzero}
    .fil0 {fill:#C4FFFF;fill-opacity:0.000000}
    .fil54 {fill:#C4FFFF;fill-rule:nonzero;fill-opacity:0.000000}
    .fil20 {fill:#99FFFF;fill-opacity:0.003922}
    .fil21 {fill:#99FFFF;fill-opacity:0.007843}
    .fil22 {fill:#99FFFF;fill-opacity:0.007843}
    .fil23 {fill:#99FFFF;fill-opacity:0.011765}
    .fil24 {fill:#99FFFF;fill-opacity:0.015686}
    .fil53 {fill:#C0FCFF;fill-opacity:0.015686}
    .fil25 {fill:#99FFFF;fill-opacity:0.015686}
    .fil26 {fill:#99FFFF;fill-opacity:0.019608}
    .fil27 {fill:#99FFFF;fill-opacity:0.019608}
    .fil28 {fill:#99FFFF;fill-opacity:0.023529}
    .fil29 {fill:#99FFFF;fill-opacity:0.027451}
    .fil30 {fill:#99FFFF;fill-opacity:0.027451}
    .fil52 {fill:#BCF8FF;fill-opacity:0.031373}
    .fil31 {fill:#99FFFF;fill-opacity:0.031373}
    .fil32 {fill:#99FFFF;fill-opacity:0.035294}
    .fil33 {fill:#99FFFF;fill-opacity:0.035294}
    .fil34 {fill:#99FFFF;fill-opacity:0.039216}
    .fil35 {fill:#99FFFF;fill-opacity:0.039216}
    .fil36 {fill:#99FFFF;fill-opacity:0.043137}
    .fil37 {fill:#99FFFF;fill-opacity:0.047059}
    .fil51 {fill:#B8F4FF;fill-opacity:0.047059}
    .fil50 {fill:#B4F0FF;fill-opacity:0.062745}
    .fil49 {fill:#B0ECFF;fill-opacity:0.078431}
    .fil48 {fill:#ACE8FF;fill-opacity:0.094118}
    .fil47 {fill:#A8E5FF;fill-opacity:0.105882}
    .fil1 {fill:#C3FCFF;fill-opacity:0.109804}
    .fil46 {fill:#A4E1FF;fill-opacity:0.121569}
    .fil45 {fill:#A0DDFF;fill-opacity:0.137255}
    .fil44 {fill:#9CD9FF;fill-opacity:0.152941}
    .fil43 {fill:#98D5FF;fill-opacity:0.168627}
    .fil42 {fill:#94D1FF;fill-opacity:0.184314}
    .fil41 {fill:#8FCDFF;fill-rule:nonzero;fill-opacity:0.200000}
    .fil38 {fill:#CCCCCC;fill-opacity:0.219608}
    .fil2 {fill:#C1F9FF;fill-opacity:0.223529}
    .fil3 {fill:#BFF6FF;fill-opacity:0.333333}
    .fil4 {fill:#BEF3FF;fill-opacity:0.443137}
    .fil12 {fill:#999999;fill-opacity:0.501961}
    .fil5 {fill:#BCEFFF;fill-opacity:0.556863}
    .fil6 {fill:#BAECFF;fill-opacity:0.666667}
    .fil7 {fill:#B9E9FF;fill-opacity:0.776471}
    .fil8 {fill:#B7E6FF;fill-opacity:0.890196}
    .fil14 {fill:url(#id0)}
    .fil17 {fill:url(#id1)}
    .fil15 {fill:url(#id2)}
    .fil10 {fill:url(#id3)}
    .fil39 {fill:url(#id4)}
    .fil19 {fill:url(#id5)}
    .fil57 {fill:url(#id6);fill-rule:nonzero}
    .fil55 {fill:url(#id7);fill-rule:nonzero}
    .fil58 {fill:url(#id8);fill-rule:nonzero}
   
  </style>
  <linearGradient
   id="id0"
   gradientUnits="userSpaceOnUse"
   x1="24.4527"
   y1="42.7777"
   x2="23.907"
   y2="57.9751">
   <stop
   offset="0"
   style="stop-color:#CCCCCC"
   id="stop5658" />
   <stop
   offset="1"
   style="stop-color:white"
   id="stop5660" />
  </linearGradient>
  <linearGradient
   id="id1"
   gradientUnits="userSpaceOnUse"
   x1="49.7002"
   y1="14.5183"
   x2="49.7002"
   y2="35.5469">
   <stop
   offset="0"
   style="stop-color:#E5E5E5"
   id="stop5663" />
   <stop
   offset="1"
   style="stop-color:#B2B2B2"
   id="stop5665" />
  </linearGradient>
  <linearGradient
   id="id2"
   gradientUnits="userSpaceOnUse"
   xlink:href="#id1"
   x1="18.9581"
   y1="14.7498"
   x2="18.9581"
   y2="35.2079">
  </linearGradient>
  <linearGradient
   id="id3"
   gradientUnits="userSpaceOnUse"
   xlink:href="#id1"
   x1="24.572"
   y1="39.6147"
   x2="24.572"
   y2="60.374">
  </linearGradient>
  <linearGradient
   id="id4"
   gradientUnits="userSpaceOnUse"
   x1="49.5939"
   y1="18.1821"
   x2="49.5939"
   y2="31.7118">
   <stop
   offset="0"
   style="stop-color:#E5E5E5"
   id="stop5670" />
   <stop
   offset="1"
   style="stop-color:white"
   id="stop5672" />
  </linearGradient>
  <linearGradient
   id="id5"
   gradientUnits="userSpaceOnUse"
   xlink:href="#id4"
   x1="18.8577"
   y1="18.0699"
   x2="18.8577"
   y2="31.8913">
  </linearGradient>
  <linearGradient
   id="id6"
   gradientUnits="userSpaceOnUse"
   x1="15.8211"
   y1="28.9551"
   x2="15.4183"
   y2="21.4361">
   <stop
   offset="0"
   style="stop-color:white"
   id="stop5676" />
   <stop
   offset="1"
   style="stop-color:#CCCCCC"
   id="stop5678" />
  </linearGradient>
  <linearGradient
   id="id7"
   gradientUnits="userSpaceOnUse"
   x1="18.3014"
   y1="55.366"
   x2="18.1313"
   y2="53.031">
   <stop
   offset="0"
   style="stop-color:white"
   id="stop5681" />
   <stop
   offset="1"
   style="stop-color:#7F7F7F"
   id="stop5683" />
  </linearGradient>
  <linearGradient
   id="id8"
   gradientUnits="userSpaceOnUse"
   xlink:href="#id6"
   x1="49.4793"
   y1="27.9086"
   x2="49.3187"
   y2="22.2782">
  </linearGradient>
 </defs>
 <g
   id="Слой_x0020_1">
  <metadata
   id="CorelCorpID_0Corel-Layer" />
  <path
   class="fil0"
   d="M3.47721 8.03868l29.574 0c3.06972,0 5.5796,2.15672 5.5796,4.79415l0 23.4936c0,2.63743 -2.50987,4.79533 -5.5796,4.79533l-29.574 0c-3.06972,0 -5.58078,-2.1579 -5.58078,-4.79533l0 -23.4936c0,-2.63743 2.51105,-4.79415 5.58078,-4.79415z"
   id="path5688" />
  <g
   id="_110132856">
   <path
   id="_104744336"
   class="fil1"
   d="M4.05714 8.68475c9.47256,0 18.9451,0 28.4153,0 2.94925,0 5.36109,2.07286 5.36109,4.60636 0,7.52608 0,15.0498 0,22.5723 0,2.53468 -2.41184,4.60754 -5.36109,4.60754 -9.4702,0 -18.9428,0 -28.4153,0 -2.94925,0 -5.36227,-2.07286 -5.36227,-4.60754 0,-7.52253 0,-15.0462 0,-22.5723 0,-2.5335 2.41302,-4.60636 5.36227,-4.60636z" />
   <path
   id="_104746568"
   class="fil2"
   d="M4.63588 9.33319c9.08751,0 18.1727,0 27.2578,0 2.82877,0 5.1414,1.98782 5.1414,4.41856 0,7.21899 0,14.4356 0,21.6522 0,2.43074 -2.31263,4.41974 -5.1414,4.41974 -9.08515,0 -18.1703,0 -27.2578,0 -2.82877,0 -5.14258,-1.989 -5.14258,-4.41974 0,-7.21662 0,-14.4332 0,-21.6522 0,-2.43074 2.31381,-4.41856 5.14258,-4.41856z" />
   <path
   id="_104745728"
   class="fil3"
   d="M5.21581 9.98044c8.70011,0 17.4002,0 26.0991,0 2.70712,0 4.9229,1.90396 4.9229,4.23076 0,6.9119 0,13.8226 0,20.7321 0,2.32798 -2.21578,4.23194 -4.9229,4.23194 -8.69893,0 -17.399,0 -26.0991,0 -2.70948,0 -4.92526,-1.90396 -4.92526,-4.23194 0,-6.90953 0,-13.8202 0,-20.7321 0,-2.3268 2.21578,-4.23076 4.92526,-4.23076z" />
   <path
   id="_104733896"
   class="fil4"
   d="M5.79456 10.6289c8.31388,0 16.6278,0 24.9416,0 2.58665,0 4.70439,1.81892 4.70439,4.04296 0,6.60481 0,13.2084 0,19.8121 0,2.22404 -2.11774,4.04414 -4.70439,4.04414 -8.31388,0 -16.6278,0 -24.9416,0 -2.58901,0 -4.70675,-1.8201 -4.70675,-4.04414 0,-6.60362 0,-13.2072 0,-19.8121 0,-2.22404 2.11774,-4.04296 4.70675,-4.04296z" />
   <path
   id="_104735912"
   class="fil5"
   d="M6.37331 11.2761c7.92884,0 15.8565,0 23.783,0 2.46735,0 4.48588,1.73388 4.48588,3.85517 0,6.2989 0,12.5966 0,18.892 0,2.12129 -2.01853,3.85635 -4.48588,3.85635 -7.92648,0 -15.8541,0 -23.783,0 -2.46853,0 -4.48706,-1.73506 -4.48706,-3.85635 0,-6.29535 0,-12.5931 0,-18.892 0,-2.12129 2.01853,-3.85517 4.48706,-3.85517z" />
   <path
   id="_104742056"
   class="fil6"
   d="M6.95205 11.9246c7.54261,0 15.084,0 22.6255,0 2.34806,0 4.26738,1.64884 4.26738,3.66737 0,5.99181 0,11.9824 0,17.9719 0,2.01735 -1.91931,3.66855 -4.26738,3.66855 -7.54143,0 -15.0829,0 -22.6255,0 -2.34806,0 -4.26856,-1.6512 -4.26856,-3.66855 0,-5.98944 0,-11.9801 0,-17.9719 0,-2.01853 1.9205,-3.66737 4.26856,-3.66737z" />
   <path
   id="_104731496"
   class="fil7"
   d="M7.53198 12.5718c7.15521,0 14.3116,0 21.4668,0 2.22641,0 4.04887,1.56498 4.04887,3.47957 0,5.68472 0,11.3694 0,17.0518 0,1.91459 -1.82246,3.48075 -4.04887,3.48075 -7.15521,0 -14.3116,0 -21.4668,0 -2.22877,0 -4.05123,-1.56616 -4.05123,-3.48075 0,-5.68235 0,-11.3671 0,-17.0518 0,-1.91459 1.82246,-3.47957 4.05123,-3.47957z" />
   <path
   id="_104745632"
   class="fil8"
   d="M8.11073 13.2202c6.77016,0 13.5391,0 20.3081,0 2.10711,0 3.83036,1.47994 3.83036,3.29177 0,5.37763 0,10.7553 0,16.1317 0,1.81065 -1.72325,3.29295 -3.83036,3.29295 -6.76898,0 -13.538,0 -20.3081,0 -2.10829,0 -3.83154,-1.4823 -3.83154,-3.29295 0,-5.37644 0,-10.7541 0,-16.1317 0,-1.81183 1.72325,-3.29177 3.83154,-3.29177z" />
  </g>
  <rect
   class="fil9"
   x="5.07523"
   y="13.8684"
   width="26.3766"
   height="21.422"
   rx="12.6261"
   ry="12.6261"
   id="rect5699" />
  <path
   class="fil0"
   d="M35.1737 8.03868l24.3121 0c2.52405,0 4.58746,2.15672 4.58746,4.79415l0 23.4936c0,2.63743 -2.06341,4.79533 -4.58746,4.79533l-24.3121 0c-2.52287,0 -4.58746,-2.1579 -4.58746,-4.79533l0 -23.4936c0,-2.63743 2.06459,-4.79415 4.58746,-4.79415z"
   id="path5701" />
  <g
   id="_104730704">
   <path
   id="_104736224"
   class="fil1"
   d="M35.6497 8.68475c7.78592,0 15.573,0 23.3601,0 2.42483,0 4.40793,2.07286 4.40793,4.60636 0,7.52608 0,15.0498 0,22.5723 0,2.53468 -1.9831,4.60754 -4.40793,4.60754 -7.7871,0 -15.5742,0 -23.3601,0 -2.42365,0 -4.40675,-2.07286 -4.40675,-4.60754 0,-7.52253 0,-15.0462 0,-22.5723 0,-2.5335 1.9831,-4.60636 4.40675,-4.60636z" />
   <path
   id="_104737688"
   class="fil2"
   d="M36.1256 9.33319c7.46938,0 14.9376,0 22.4081,0 2.32562,0 4.2284,1.98782 4.2284,4.41856 0,7.21899 0,14.4356 0,21.6522 0,2.43074 -1.90278,4.41974 -4.2284,4.41974 -7.47056,0 -14.9388,0 -22.4081,0 -2.32562,0 -4.22722,-1.989 -4.22722,-4.41974 0,-7.21662 0,-14.4332 0,-21.6522 0,-2.43074 1.9016,-4.41856 4.22722,-4.41856z" />
   <path
   id="_104742248"
   class="fil3"
   d="M36.6016 9.98044c7.15166,0 14.3033,0 21.4562,0 2.22759,0 4.04769,1.90396 4.04769,4.23076 0,6.9119 0,13.8226 0,20.7321 0,2.32798 -1.8201,4.23194 -4.04769,4.23194 -7.15284,0 -14.3045,0 -21.4562,0 -2.22641,0 -4.04769,-1.90396 -4.04769,-4.23194 0,-6.90953 0,-13.8202 0,-20.7321 0,-2.3268 1.82128,-4.23076 4.04769,-4.23076z" />
   <path
   id="_104735144"
   class="fil4"
   d="M37.0776 10.6289c6.83394,0 13.6691,0 20.5042,0 2.12837,0 3.86816,1.81892 3.86816,4.04296 0,6.60481 0,13.2084 0,19.8121 0,2.22404 -1.73979,4.04414 -3.86816,4.04414 -6.83512,0 -13.6702,0 -20.5042,0 -2.12719,0 -3.86816,-1.8201 -3.86816,-4.04414 0,-6.60362 0,-13.2072 0,-19.8121 0,-2.22404 1.74097,-4.04296 3.86816,-4.04296z" />
   <path
   id="_104738792"
   class="fil5"
   d="M37.5536 11.2761c6.5174,0 13.0336,0 19.551,0 2.03034,0 3.68981,1.73388 3.68981,3.85517 0,6.2989 0,12.5966 0,18.892 0,2.12129 -1.65947,3.85635 -3.68981,3.85635 -6.5174,0 -13.0336,0 -19.551,0 -2.02916,0 -3.68863,-1.73506 -3.68863,-3.85635 0,-6.29535 0,-12.5931 0,-18.892 0,-2.12129 1.65947,-3.85517 3.68863,-3.85517z" />
   <path
   id="_104739872"
   class="fil6"
   d="M38.0296 11.9246c6.19968,0 12.3994,0 18.599,0 1.93113,0 3.51028,1.64884 3.51028,3.66737 0,5.99181 0,11.9824 0,17.9719 0,2.01735 -1.57915,3.66855 -3.51028,3.66855 -6.19968,0 -12.3994,0 -18.599,0 -1.92995,0 -3.5091,-1.6512 -3.5091,-3.66855 0,-5.98944 0,-11.9801 0,-17.9719 0,-2.01853 1.57915,-3.66737 3.5091,-3.66737z" />
   <path
   id="_104730440"
   class="fil7"
   d="M38.5056 12.5718c5.88196,0 11.7651,0 17.6471,0 1.83309,0 3.32957,1.56498 3.32957,3.47957 0,5.68472 0,11.3694 0,17.0518 0,1.91459 -1.49648,3.48075 -3.32957,3.48075 -5.88196,0 -11.7651,0 -17.6471,0 -1.83073,0 -3.32839,-1.56616 -3.32839,-3.48075 0,-5.68235 0,-11.3671 0,-17.0518 0,-1.91459 1.49766,-3.47957 3.32839,-3.47957z" />
   <path
   id="_104736872"
   class="fil8"
   d="M38.9816 13.2202c5.56542,0 11.1297,0 16.6951,0 1.73388,0 3.15004,1.47994 3.15004,3.29177 0,5.37763 0,10.7553 0,16.1317 0,1.81065 -1.41616,3.29295 -3.15004,3.29295 -5.56542,0 -11.1297,0 -16.6951,0 -1.7327,0 -3.14886,-1.4823 -3.14886,-3.29295 0,-5.37644 0,-10.7541 0,-16.1317 0,-1.81183 1.41616,-3.29177 3.14886,-3.29177z" />
  </g>
  <rect
   class="fil9"
   x="36.4878"
   y="13.8684"
   width="21.6838"
   height="21.422"
   rx="12.6261"
   ry="12.6261"
   id="rect5712" />
  <path
   class="fil10"
   d="M5.71188 38.4643l37.7201 0.0803159c1.72443,0.00354335 3.13468,1.41616 3.13468,3.13468l0 16.7104c0,1.71734 -1.41734,3.13823 -3.13468,3.1335l-37.7201 -0.0803159c-1.71734,-0.00354335 -3.13468,-1.41025 -3.13468,-3.1335l0 -16.7104c0,-1.72443 1.41025,-3.13823 3.13468,-3.13468z"
   id="path5714" />
  <path
   class="fil11"
   d="M26.6023 53.0062l-2.64216 -1.05119 0.244491 -0.284649 -3.00358 -1.67128 20.105 -5.54062 0.695678 -0.53977 3.74296 -3.1713c-0.367327,-0.641346 -1.38899,-1.60396 -2.09294,-1.86262l-2.81814 3.90005 -21.6404 6.09811 -10.9478 -6.03315 -3.05437 -3.7654c-0.706308,0.258665 -2.0079,1.28033 -2.37641,1.9205l4.64888 2.64216 0.186616 1.02048 10.1127 4.97368 -3.83154 2.02916 -0.165356 0.119293 -1.45514 -0.255121 -3.11106 1.67128c0.588196,1.19883 1.16458,0.140553 1.61104,1.82719l2.18152 -3.27642 2.09648 1.75278 4.8603 -2.79334 4.33352 2.13192 -0.53977 -1.16812 2.0705 2.3268c-1.839,1.20946 -0.13701,-0.153545 0.788986,-1.00041z"
   id="path5716" />
  <path
   class="fil12"
   d="M4.47525 60.7047l2.64925 -3.26933c4.85321,-0.990957 34.5524,-0.0826782 34.5524,-0.0826782l3.47603 3.39689c-0.535046,0.424021 -1.20828,0.67678 -1.93821,0.67678l-36.7434 0c-0.757096,0 -1.45395,-0.270476 -1.99609,-0.721662z"
   id="path5718" />
  <path
   class="fil13"
   d="M45.8427 59.748l-3.14886 -2.65043 -19.3195 -4.29927 0.245672 -0.284649 -3.00476 -1.67128 6.3048 -3.6213 -3.58351 0 -4.72801 2.50515 -4.50124 -2.50515 -3.56343 0 6.63315 3.26343 -3.83036 2.02916 -0.165356 0.119293 -6.91898 4.75872 -3.47721 2.29727c0.589377,1.19883 1.16458,0.140553 1.61104,1.82719l2.70358 -3.33075 7.40324 -3.83391 4.86148 -2.79098 4.33234 2.13192 17.9317 4.4162 2.27837 3.68745c-1.839,1.20946 1.00985,-1.20001 1.93585,-2.04806z"
   id="path5720" />
  <path
   class="fil14"
   d="M8.44853 43.0151l31.4638 0c1.25789,0 2.28782,0.960248 2.28782,2.1331l0 10.4564c0,1.17285 -1.02993,2.1331 -2.28782,2.1331l-31.4638 0c-1.25789,0 -2.289,-0.960248 -2.289,-2.1331l0 -10.4564c0,-1.17285 1.02993,-2.1331 2.289,-2.1331z"
   id="path5722" />
  <path
   class="fil15"
   d="M5.67054 13.6289l26.6306 -0.0153545c1.72561,0.0141734 3.1465,1.41734 3.13587,3.13468l0.0555125 16.3467c0.00590558,1.71498 -1.4138,3.15122 -3.13587,3.13468l-26.7913 0.114568c-1.72207,-0.0165356 -3.14531,-1.41143 -3.13468,-3.13587l0.105119 -16.4435c0.0106301,-1.72561 1.40907,-3.15004 3.13468,-3.13587z"
   id="path5724" />
  <path
   class="fil12"
   d="M33.989 35.2422c-0.575204,0.68741 -1.43742,1.12324 -2.39412,1.11497l-25.1649 -0.231499c-0.532684,-0.00472447 -1.03702,-0.140553 -1.4764,-0.38032l3.64138 -4.49415c4.85321,-0.989776 21.2259,-0.0826782 21.2259,-0.0826782l4.16816 4.07367z"
   id="path5726" />
  <path
   class="fil16"
   d="M6.43 14.4982l25.1649 0.230318c0.496069,0.00472447 0.967335,0.124017 1.38545,0.331894l-4.97014 5.63393 -16.2888 0 -7.45049 -5.33511c0.562212,-0.538589 1.32285,-0.868121 2.15908,-0.861034z"
   id="path5728" />
  <path
   class="fil17"
   d="M41.2387 13.6041l16.923 0c1.72443,0 3.13468,1.42206 3.13468,3.13468l0 16.59c0,1.71262 -1.4197,3.1335 -3.13468,3.1335l-16.923 0c-1.7138,0 -3.1335,-1.41143 -3.1335,-3.1335l0 -16.59c0,-1.72325 1.41025,-3.13468 3.1335,-3.13468z"
   id="path5730" />
  <path
   class="fil18"
   d="M40.7568 13.1033l17.5656 0c0.998044,0 1.90632,0.41221 2.5642,1.07009 0.659063,0.659063 1.07127,1.57207 1.07127,2.56539l0 16.59c0,0.992138 -0.413391,1.90396 -1.07245,2.56302l-0.00118112 0c-0.659063,0.657882 -1.56852,1.07127 -2.56184,1.07127l-17.5656 0c-0.993319,0 -1.90514,-0.411029 -2.5642,-1.07009 -0.657882,-0.657882 -1.07009,-1.56734 -1.07009,-2.5642l0 -16.59c0,-0.999225 0.411029,-1.90868 1.06891,-2.56657l0 0.00118112c0.657882,-0.659063 1.5697,-1.07009 2.56539,-1.07009zm17.5656 1.00159l-17.5656 0c-0.724025,0 -1.38545,0.297641 -1.85908,0.77245l0 0.00118112c-0.47599,0.47599 -0.773632,1.13623 -0.773632,1.86026l0 16.59c0,0.721662 0.298823,1.38191 0.774813,1.8579 0.477171,0.477171 1.13742,0.774813 1.8579,0.774813l17.5656 0c0.720481,0 1.37954,-0.298823 1.85672,-0.775994 0.477171,-0.477171 0.777175,-1.13742 0.777175,-1.85672l0 -16.59c0,-0.720481 -0.298823,-1.38191 -0.775994,-1.85908 -0.47599,-0.47599 -1.13505,-0.774813 -1.8579,-0.774813z"
   id="path5732" />
  <path
   class="fil12"
   d="M39.2426 35.6201l2.93744 -3.62603c4.85321,-0.989776 15.3026,-0.0826782 15.3026,-0.0826782l3.02366 2.95515c-0.555125,0.884657 -1.54018,1.4764 -2.65515,1.4764l-16.6124 0c-0.757096,0 -1.45277,-0.274019 -1.99609,-0.722844z"
   id="path5734" />
  <path
   class="fil11"
   d="M26.6023 27.9476l-2.64216 -1.05119 0.244491 -0.284649 -3.00358 -1.67128 9.28358 -5.33156 0.694497 -0.540952 3.74296 -3.1713c-0.367327,-0.641346 -1.38899,-1.60396 -2.09294,-1.86144l-2.81814 3.89887 -10.8178 5.89023 -10.9478 -6.03315 -3.05437 -3.7654c-0.706308,0.257483 -2.0079,1.27915 -2.37641,1.9205l4.64888 2.64216 0.186616 1.02048 10.1127 4.97368 -3.83154 2.02916 -0.165356 0.119293 -1.45514 -0.255121 -3.11106 1.67128c0.588196,1.19883 1.16458,0.140553 1.61104,1.82719l2.18152 -3.27642 2.09648 1.7516 4.8603 -2.79216 4.33352 2.13192 -0.53977 -1.16812 2.0705 2.3268c-1.839,1.20946 -0.13701,-0.153545 0.788986,-1.00041z"
   id="path5736" />
  <path
   class="fil13"
   d="M34.8524 34.465l-3.14886 -2.65043 -7.66427 -3.98627 0.245672 -0.284649 -3.00476 -1.67128 6.30598 -3.6213 -3.58469 0 -4.72801 2.50515 -4.50124 -2.50515 -3.56343 0 6.63315 3.26343 -3.83036 2.02916 -0.165356 0.119293 -6.91898 4.75872 -3.47603 2.29727c0.588196,1.19883 1.16458,0.140553 1.61104,1.82719l2.7024 -3.33075 7.40324 -3.83391 4.86148 -2.79098 4.33234 2.13192 6.27646 4.10438 2.27837 3.68627c-1.83782,1.20946 1.00985,-1.20001 1.93585,-2.04806z"
   id="path5738" />
  <path
   class="fil19"
   d="M8.92688 17.3482l19.8758 -0.0460636c1.30986,0.0141734 2.37995,1.18466 2.37995,2.60436l-0.00236223 10.1316c0,1.4197 -1.07482,2.61972 -2.37995,2.60436l-19.7707 -0.184254c-1.29214,-0.0129923 -2.36814,-1.17167 -2.38113,-2.60318l-0.102757 -9.90248c-0.0129923,-1.43269 1.07127,-2.61854 2.38113,-2.60436z"
   id="path5740" />
  <path
   class="fil20"
   d="M3.15949 25.9527c-0.0720481,2.91382 6.78197,5.24888 15.3073,5.21463 8.52294,-0.0342524 15.4939,-2.42601 15.5659,-5.33983 0.0720481,-2.915 -6.78079,-5.25125 -15.3026,-5.21581 -8.52648,0.0342524 -15.4974,2.42601 -15.5707,5.34101z"
   id="path5742" />
  <g
   id="_110120352">
   <path
   id="_104735240"
   class="fil21"
   d="M4.68549 25.8015c-0.290555,2.79807 6.48079,5.1981 14.1569,5.16621 7.67372,-0.0318902 13.3502,-2.48507 13.6395,-5.28314 0.290555,-2.79925 -5.69653,-5.04337 -13.3691,-5.0103 -7.67726,0.0318902 -14.1368,2.32798 -14.4273,5.12723z" />
   <path
   id="_104745536"
   class="fil22"
   d="M6.20795 25.6515c-0.50788,2.68232 6.18078,5.14613 13.0076,5.1166 6.82567,-0.0295279 11.2076,-2.54294 11.7155,-5.22408 0.509061,-2.6835 -4.61462,-4.83549 -11.4391,-4.80478 -6.82686,0.0295279 -12.775,2.22877 -13.284,4.91227z" />
   <path
   id="_104744096"
   class="fil23"
   d="M7.73395 25.5015c-0.725206,2.56539 5.8796,5.09534 11.8572,5.06817 5.97645,-0.0271657 9.06507,-2.602 9.79028,-5.16739 0.726387,-2.56775 -3.53036,-4.62762 -9.50681,-4.59927 -5.97881,0.0271657 -11.4131,2.13073 -12.1407,4.69848z" />
   <path
   id="_104745440"
   class="fil24"
   d="M9.25759 25.3515c-0.942531,2.44964 5.5796,5.04455 10.708,5.01975 5.12841,-0.0248035 6.92253,-2.66106 7.86506,-5.11069 0.944894,-2.45082 -2.44727,-4.41856 -7.5745,-4.39257 -5.12959,0.0248035 -10.0525,2.03152 -10.9986,4.48352z" />
   <path
   id="_104741504"
   class="fil25"
   d="M10.7836 25.2015c-1.16104,2.33389 5.27841,4.99376 9.5576,4.97132 4.27919,-0.0224412 4.7788,-2.71893 5.93984,-5.054 1.1634,-2.33507 -1.36419,-4.21068 -5.64338,-4.18706 -4.27919,0.0224412 -8.69066,1.93467 -9.85406,4.26974z" />
   <path
   id="_104743760"
   class="fil26"
   d="M12.3072 25.0527c-1.37954,2.21814 4.97723,4.94179 8.40719,4.92171 3.43114,-0.020079 2.63625,-2.77681 4.01462,-4.99494 1.38191,-2.21932 -0.281106,-4.00281 -3.71107,-3.98273 -3.42996,0.020079 -7.33001,1.83664 -8.71074,4.05596z" />
   <path
   id="_104734376"
   class="fil27"
   d="M13.8309 24.9015c-1.59687,2.10121 4.67722,4.89101 7.25796,4.87329 2.58192,-0.0177168 0.493707,-2.83586 2.0894,-4.93825 1.59923,-2.10357 0.801978,-3.79493 -1.77876,-3.77603 -2.58192,0.0177168 -5.96818,1.73742 -7.5686,3.84099z" />
   <path
   id="_104745392"
   class="fil28"
   d="M15.3557 24.7527c-1.81538,1.98546 4.37604,4.84022 6.10756,4.82486 1.73388,-0.0153545 -1.65002,-2.89492 0.164175,-4.88156 1.81774,-1.98664 1.88506,-3.58587 0.152364,-3.57052 -1.73152,0.0153545 -4.60636,1.63939 -6.42409,3.62721z" />
   <path
   id="_104741456"
   class="fil29"
   d="M16.8793 24.5991c-2.03152,1.87089 4.07722,4.78943 4.95833,4.77644 0.884657,-0.0129923 -3.79257,-2.95279 -1.75986,-4.8225 2.03506,-1.87207 2.96815,-3.37918 2.08349,-3.365 -0.882294,0.0129923 -3.24571,1.54018 -5.28195,3.41107z" />
   <path
   id="_104744912"
   class="fil30"
   d="M18.4042 24.4503c-2.25003,1.75514 3.77603,4.73864 3.80792,4.72801 0.0366146,-0.0106301 -5.93629,-3.01185 -3.68508,-4.76581 2.25357,-1.75514 4.05123,-3.17012 4.01462,-3.15949 -0.0318902,0.0106301 -1.88388,1.44214 -4.13745,3.19728z" />
   <path
   id="_104744960"
   class="fil31"
   d="M19.9278 24.2991c-2.46735,1.63821 3.47603,4.68785 2.65869,4.67959 -0.812608,-0.00826782 -8.07884,-3.0709 -5.61031,-4.70911 2.4709,-1.63939 5.13432,-2.96224 5.94692,-2.95279 0.816152,0.00826782 -0.522054,1.34293 -2.99531,2.98232z" />
   <path
   id="_104731736"
   class="fil32"
   d="M21.4514 24.1503c-2.68586,1.52246 3.17484,4.63588 1.50829,4.62998 -1.66065,-0.00590558 -10.2214,-3.12878 -7.53553,-4.65006 2.6894,-1.52364 6.2174,-2.75436 7.87923,-2.74846 1.66537,0.00590558 0.838593,1.2449 -1.85199,2.76854z" />
   <path
   id="_104731856"
   class="fil33"
   d="M22.9774 24.0003c-2.90437,1.40671 2.87366,4.5851 0.357878,4.58155 -2.50987,-0.00354335 -12.3651,-3.18665 -9.46075,-4.59336 2.90791,-1.40789 7.30048,-2.54649 9.81036,-2.54294 2.51578,0.00354335 2.20042,1.14805 -0.707489,2.55476z" />
   <path
   id="_104732744"
   class="fil34"
   d="M24.5011 23.8503c-3.12169,1.29096 2.57365,4.53431 -0.791348,4.53313 -3.35792,-0.00118112 -14.5077,-3.24571 -11.386,-4.53667 3.12642,-1.29096 8.38357,-2.33743 11.7427,-2.33625 3.365,0.00118112 3.56107,1.04883 0.434651,2.33979z" />
   <path
   id="_104737928"
   class="fil35"
   d="M26.0271 23.7003c-3.33902,1.17403 2.27247,4.48352 -1.94176,4.4847 -4.20714,0.00118112 -16.6502,-3.30477 -13.3112,-4.47998 3.34374,-1.17521 9.46783,-2.12955 13.675,-2.13073 4.21304,-0.00118112 4.9229,0.950799 1.57797,2.12601z" />
   <path
   id="_104730800"
   class="fil36"
   d="M27.5496 23.5503c-3.55634,1.05828 1.97247,4.43155 -3.09098,4.43509 -5.05518,0.00354335 -18.7939,-3.36264 -15.2364,-4.42092 3.56225,-1.05946 10.5509,-1.92168 15.6061,-1.92522 5.06345,-0.00354335 6.28472,0.851585 2.72129,1.91105z" />
  </g>
  <path
   class="fil37"
   d="M29.0732 23.4015c-3.77485,0.942531 1.67128,4.38076 -4.24139,4.38667 -5.9044,0.00590558 -20.9365,-3.4217 -17.1616,-4.36423 3.78076,-0.943712 11.634,-1.7138 17.5384,-1.71971 5.91267,-0.00590558 7.64537,0.753553 3.86461,1.69726z"
   id="path5761" />
  <path
   class="fil38"
   d="M30.448 18.8459c0.452368,0.435832 0.734655,1.04293 0.734655,1.71026l-0.00236223 9.27177c0,0.526778 -0.177168,1.02167 -0.474809,1.42325l0.00118112 -9.75721c0,-0.503156 -0.070867,-0.881113 -0.239767,-1.09844 -0.144096,-0.184254 -0.361422,-0.0814971 -0.781899,-0.0826782l-0.00354335 0 -21.0652 -0.0118112 -0.00472447 0c-0.432289,-0.00236223 -0.707489,0.0779537 -0.844499,0.242129l0 0.00118112c-0.161813,0.192522 -0.279925,0.441738 -0.279925,0.937807l0.102757 9.84815 0.00472447 0.213782c-0.565755,-0.434651 -0.938988,-1.11616 -0.946075,-1.88388l-0.102757 -9.32374c-0.00236223,-0.266932 0.040158,-0.526778 0.121655,-0.767726l0.00236223 -0.00236223c0.411029,-0.491345 1.02639,-0.735836 1.89333,-0.72993l0.00472447 0 21.0664 -0.090946 0.00236223 0c0.300004,0.00118112 0.570479,0.0366146 0.811427,0.100395z"
   id="path5763" />
  <path
   class="fil11"
   d="M56.3381 20.2467l-0.0224412 -0.31772 0.694497 -0.53977 3.74296 -3.17248c-0.367327,-0.641346 -1.38899,-1.60396 -2.09294,-1.86144l-2.81814 3.90005 -3.65792 1.99136 4.15399 0zm-12.1631 0l-0.420478 -1.92522 -3.05555 -3.76422c-0.705127,0.257483 -2.0079,1.27915 -2.37523,1.9205l4.64888 2.64098 0.187798 1.02048 0.218507 0.107482 0.796073 0z"
   id="path5765" />
  <path
   class="fil13"
   d="M60.9161 33.8555l-3.14886 -2.65161 0.0165356 -0.30709 -0.185435 -0.522054 -0.896468 1.84136 2.27837 3.68508c-1.83782,1.21064 1.01104,-1.19883 1.93585,-2.04569zm-18.8187 -1.80947l-0.885838 -0.131104 -3.47603 2.29845c0.588196,1.19883 1.16576,0.139372 1.61222,1.82719l2.7024 -3.33075 3.15594 -0.663788 -3.1087 0z"
   id="path5767" />
  <path
   class="fil39"
   d="M43.7769 17.4297l11.634 0c1.2071,0 2.1957,0.989776 2.1957,2.19333l0 10.6466c0,1.20592 -0.989776,2.19452 -2.1957,2.19452l-11.634 0c-1.20474,0 -2.19452,-0.987414 -2.19452,-2.19452l0 -10.6466c0,-1.20474 0.987414,-2.19333 2.19452,-2.19333z"
   id="path5769" />
  <path
   class="fil40"
   d="M43.7769 16.9289l11.634 0c0.74056,0 1.41498,0.304728 1.90278,0.792529l-0.00118112 0.00118112c0.490164,0.488982 0.794892,1.16222 0.794892,1.90042l0 10.6466c0,0.738198 -0.304728,1.41498 -0.792529,1.90278l-0.00118112 0c-0.488982,0.487801 -1.1634,0.792529 -1.90278,0.792529l-11.634 0c-0.738198,0 -1.41498,-0.304728 -1.90278,-0.792529 -0.487801,-0.487801 -0.792529,-1.16222 -0.792529,-1.90278l0 -10.6466c0,-0.738198 0.304728,-1.4138 0.792529,-1.90042l0 -0.00118112c0.487801,-0.487801 1.16222,-0.792529 1.90278,-0.792529zm11.634 1.00159l-11.634 0c-0.46536,0 -0.890562,0.191341 -1.19647,0.49725l-0.00118112 0c-0.304728,0.303547 -0.496069,0.72993 -0.496069,1.19529l0 10.6466c0,0.46536 0.191341,0.890562 0.49725,1.19647 0.305909,0.305909 0.731111,0.49725 1.19647,0.49725l11.634 0c0.466541,0 0.891743,-0.191341 1.19883,-0.49725l-0.00118112 0c0.305909,-0.305909 0.49725,-0.731111 0.49725,-1.19647l0 -10.6466c0,-0.46536 -0.191341,-0.889381 -0.49725,-1.19529l-0.00118112 0c-0.305909,-0.305909 -0.731111,-0.49725 -1.19647,-0.49725z"
   id="path5771" />
  <path
   class="fil20"
   d="M41.6131 24.5094c-0.0366146,3.80792 3.37563,6.85993 7.61939,6.81386 4.24257,-0.0448824 7.71269,-3.17012 7.74931,-6.97686 0.0354335,-3.8091 -3.37563,-6.86111 -7.6182,-6.81623 -4.24375,0.0448824 -7.71506,3.17012 -7.75049,6.97922z"
   id="path5773" />
  <g
   id="_110121672">
   <path
   id="_104736320"
   class="fil21"
   d="M42.2367 24.4243c-0.107482,3.65674 3.21028,6.79378 7.08906,6.75008 3.87761,-0.0413391 6.85048,-3.24571 6.95914,-6.90127 0.106301,-3.65792 -2.95043,-6.58945 -6.82804,-6.54811 -3.87879,0.0425202 -7.11269,3.04256 -7.22017,6.6993z" />
   <path
   id="_104736824"
   class="fil22"
   d="M42.8616 24.3416c-0.17953,3.50437 3.04374,6.72646 6.55756,6.6863 3.51264,-0.0389769 5.98944,-3.32366 6.16897,-6.82686 0.178349,-3.50674 -2.52523,-6.31779 -6.03905,-6.27882 -3.51382,0.0389769 -6.50914,2.91263 -6.68748,6.41937z" />
   <path
   id="_104743952"
   class="fil23"
   d="M43.4864 24.2578c-0.250397,3.35319 2.87838,6.65914 6.02724,6.62252 3.14886,-0.0354335 5.12723,-3.39925 5.37881,-6.75126 0.249216,-3.35437 -2.10003,-6.04614 -5.24888,-6.0107 -3.14886,0.0366146 -5.90677,2.78507 -6.15716,6.13945z" />
   <path
   id="_104731208"
   class="fil24"
   d="M44.1112 24.1739c-0.322445,3.20201 2.71184,6.59299 5.49574,6.55992 2.78389,-0.0330713 4.26619,-3.47603 4.58864,-6.67685 0.321264,-3.20319 -1.67482,-5.77448 -4.45872,-5.74141 -2.78507,0.0330713 -5.3044,2.65633 -5.62566,5.85834z" />
   <path
   id="_104737856"
   class="fil25"
   d="M44.7324 24.0912c-0.393312,3.04964 2.54531,6.52567 4.96542,6.49496 2.41893,-0.0283468 3.40398,-3.55162 3.79729,-6.60126 0.393312,-3.05201 -1.24844,-5.50164 -3.66855,-5.4733 -2.41893,0.0295279 -4.70085,2.52759 -5.09416,5.5796z" />
   <path
   id="_104742464"
   class="fil26"
   d="M45.3561 24.0074c-0.464179,2.89846 2.37995,6.45953 4.43509,6.43236 2.05396,-0.0259846 2.54176,-3.62957 3.00712,-6.52685 0.46536,-2.90082 -0.823238,-5.22999 -2.87838,-5.204 -2.05514,0.0259846 -4.09848,2.39885 -4.56384,5.29849z" />
   <path
   id="_104735816"
   class="fil27"
   d="M45.9821 23.9235c-0.536227,2.74728 2.21341,6.3922 3.90359,6.36858 1.69018,-0.0224412 1.68073,-3.70516 2.21696,-6.45126 0.536227,-2.74846 -0.398036,-4.95833 -2.08821,-4.93589 -1.69018,0.0236223 -3.49611,2.27129 -4.03233,5.01857z" />
   <path
   id="_104746520"
   class="fil28"
   d="M46.6057 23.8408c-0.607094,2.59491 2.04806,6.32488 3.37327,6.3048 1.32521,-0.020079 0.818514,-3.78194 1.42679,-6.37685 0.608275,-2.59728 0.0271657,-4.68667 -1.29923,-4.66659 -1.32521,0.020079 -2.89256,2.14136 -3.50083,4.73864z" />
   <path
   id="_104731952"
   class="fil29"
   d="M47.2305 23.757c-0.680323,2.44491 1.88152,6.25874 2.84059,6.24102 0.961429,-0.0165356 -0.0413391,-3.85871 0.637803,-6.30244 0.679142,-2.44491 0.451187,-4.41383 -0.509061,-4.3973 -0.960248,0.0177168 -2.29019,2.0138 -2.96933,4.45872z" />
   <path
   id="_104737616"
   class="fil30"
   d="M47.8541 23.6743c-0.75119,2.29255 1.71616,6.19141 2.31026,6.17724 0.596464,-0.0141734 -0.903554,-3.93548 -0.152364,-6.22803 0.75119,-2.29373 0.876389,-4.14218 0.279925,-4.128 -0.595283,0.0141734 -1.68663,1.88388 -2.43783,4.17879z" />
   <path
   id="_104733488"
   class="fil31"
   d="M48.4801 23.5904c-0.823238,2.14136 1.54963,6.12409 1.77876,6.11346 0.23268,-0.0106301 -1.76459,-4.01107 -0.942531,-6.15244 0.822057,-2.14136 1.30159,-3.87052 1.07009,-3.85989 -0.230318,0.0118112 -1.08427,1.75632 -1.90632,3.89887z" />
   <path
   id="_104732312"
   class="fil32"
   d="M49.1038 23.5066c-0.894105,1.99018 1.38427,6.05795 1.24844,6.05086 -0.132285,-0.00826782 -2.6268,-4.08903 -1.7327,-6.07803 0.894105,-1.99018 1.72679,-3.59886 1.86026,-3.5906 0.133466,0.00826782 -0.481896,1.62758 -1.376,3.61776z" />
   <path
   id="_104744024"
   class="fil33"
   d="M49.725 23.4239c-0.964973,1.83782 1.21773,5.99062 0.718119,5.9859 -0.49725,-0.00354335 -3.48902,-4.16462 -2.52405,-6.00244 0.966154,-1.839 2.15318,-3.32603 2.65043,-3.32248 0.499612,0.00472447 0.121655,1.49884 -0.844499,3.33902z" />
   <path
   id="_104743736"
   class="fil34"
   d="M50.3498 23.3401c-1.03702,1.68663 1.05119,5.92448 0.186616,5.9233 -0.862215,-0.00118112 -4.35005,-4.24139 -3.31421,-5.92803 1.0382,-1.68782 2.57838,-3.05437 3.44059,-3.05319 0.863396,0.00118112 0.724025,1.3701 -0.312996,3.05791z" />
   <path
   id="_104745056"
   class="fil35"
   d="M50.9746 23.2562c-1.10789,1.53545 0.885838,5.85716 -0.343705,5.85952 -1.226,0.00236223 -5.21227,-4.31698 -4.10438,-5.85243 1.10907,-1.53545 3.00358,-2.78271 4.23076,-2.78507 1.22836,-0.00118112 1.32639,1.24253 0.217326,2.77799z" />
   <path
   id="_104734712"
   class="fil36"
   d="M51.5995 23.1735c-1.17994,1.38309 0.7193,5.78984 -0.875208,5.79574 -1.59096,0.00472447 -6.0733,-4.39494 -4.89455,-5.77802 1.18112,-1.38427 3.42878,-2.51105 5.01975,-2.51578 1.59333,-0.00472447 1.92995,1.11261 0.750009,2.49806z" />
  </g>
  <path
   class="fil37"
   d="M52.2231 23.0908c-1.2508,1.2319 0.553944,5.72369 -1.40553,5.73196 -1.95593,0.00826782 -6.93552,-4.47053 -5.68472,-5.70243 1.25198,-1.23309 3.85398,-2.2394 5.80991,-2.24767 1.95829,-0.0070867 2.53231,0.985051 1.28033,2.21814z"
   id="path5792" />
  <path
   class="fil41"
   d="M39.9595 13.297l19.6538 0c0.548038,0 1.04883,0.429927 1.41143,1.12206 0.361422,0.690953 0.587015,1.6453 0.587015,2.69413l0 15.6876c0,1.04883 -0.225593,2.00199 -0.587015,2.69413 -0.362603,0.690953 -0.863396,1.12088 -1.41143,1.12088l-19.6538 0c-0.549219,0 -1.04765,-0.429927 -1.41025,-1.12088 -0.362603,-0.692135 -0.587015,-1.6453 -0.587015,-2.69413l0 -15.6876c0,-1.04883 0.224412,-2.00317 0.587015,-2.69413 0.362603,-0.692135 0.861034,-1.12206 1.41025,-1.12206zm19.6538 1.22718l-19.6538 0c-0.372052,0 -0.712213,0.292917 -0.956705,0.759458 -0.245672,0.467722 -0.398036,1.11734 -0.398036,1.82955l0 15.6876c0,0.711032 0.152364,1.36065 0.398036,1.82837 0.244491,0.467722 0.584653,0.759458 0.956705,0.759458l19.6538 0c0.373233,0 0.713395,-0.291736 0.957886,-0.759458 0.244491,-0.467722 0.398036,-1.11734 0.398036,-1.82837l0 -15.6876c0,-0.712213 -0.153545,-1.36183 -0.398036,-1.82955 -0.244491,-0.466541 -0.584653,-0.759458 -0.957886,-0.759458z"
   id="path5794" />
  <g
   id="_110123496">
   <path
   id="_105485232"
   class="fil42"
   d="M40.0895 13.4813c6.46307,0 12.9273,0 19.3916,0 0.540952,0 1.03466,0.42284 1.39254,1.10434 0.356697,0.679142 0.578747,1.61931 0.578747,2.65161 0,5.14731 0,10.2934 0,15.4396 0,1.0323 -0.22205,1.9701 -0.578747,2.65043 -0.357878,0.680323 -0.851585,1.10316 -1.39254,1.10316 -6.46425,0 -12.9285,0 -19.3916,0 -0.542133,0 -1.03348,-0.42284 -1.39136,-1.10316 -0.357878,-0.680323 -0.578747,-1.61813 -0.578747,-2.65043 0,-5.14613 0,-10.2923 0,-15.4396 0,-1.0323 0.220869,-1.97247 0.578747,-2.65161 0.357878,-0.681504 0.849223,-1.10434 1.39136,-1.10434zm19.3916 1.2071c-6.46425,0 -12.9285,0 -19.3916,0 -0.367327,0 -0.702765,0.288193 -0.943712,0.747647 -0.242129,0.460636 -0.392131,1.09962 -0.392131,1.8012 0,5.14731 0,10.2934 0,15.4396 0,0.700402 0.150002,1.33821 0.392131,1.79884 0.240948,0.460636 0.576385,0.747647 0.943712,0.747647 6.46307,0 12.9273,0 19.3916,0 0.368508,0 0.703946,-0.287011 0.944894,-0.747647 0.240948,-0.460636 0.393312,-1.09844 0.393312,-1.79884 0,-5.14613 0,-10.2923 0,-15.4396 0,-0.701583 -0.152364,-1.34057 -0.393312,-1.8012 -0.240948,-0.459454 -0.576385,-0.747647 -0.944894,-0.747647z" />
   <path
   id="_104735696"
   class="fil43"
   d="M40.2194 13.6643c6.37567,0 12.7525,0 19.1294,0 0.533865,0 1.02048,0.416934 1.37364,1.08663 0.351973,0.669693 0.571661,1.59333 0.571661,2.60909 0,5.06581 0,10.1293 0,15.1939 0,1.01576 -0.219688,1.93703 -0.571661,2.60791 -0.353154,0.668512 -0.839774,1.08545 -1.37364,1.08545 -6.37685,0 -12.7537,0 -19.1294,0 -0.533865,0 -1.0193,-0.416934 -1.37246,-1.08545 -0.351973,-0.670874 -0.570479,-1.59215 -0.570479,-2.60791 0,-5.06463 0,-10.1281 0,-15.1939 0,-1.01576 0.218507,-1.93939 0.570479,-2.60909 0.353154,-0.669693 0.838593,-1.08663 1.37246,-1.08663zm19.1294 1.1882c-6.37685,0 -12.7537,0 -19.1294,0 -0.361422,0 -0.693316,0.284649 -0.93072,0.735836 -0.238586,0.453549 -0.387406,1.0819 -0.387406,1.77168 0,5.06581 0,10.1293 0,15.1939 0,0.688591 0.148821,1.31695 0.387406,1.76931 0.237404,0.452368 0.569298,0.735836 0.93072,0.735836 6.37567,0 12.7525,0 19.1294,0 0.363784,0 0.694497,-0.283468 0.931901,-0.735836 0.238586,-0.452368 0.387406,-1.08072 0.387406,-1.76931 0,-5.06463 0,-10.1281 0,-15.1939 0,-0.689772 -0.148821,-1.31813 -0.387406,-1.77168 -0.237404,-0.451187 -0.568117,-0.735836 -0.931901,-0.735836z" />
   <path
   id="_104735768"
   class="fil44"
   d="M40.3505 13.8486c6.28709,0 12.5765,0 18.866,0 0.525597,0 1.00631,0.409848 1.35474,1.06891 0.347248,0.657882 0.563393,1.56734 0.563393,2.56657 0,4.98313 0,9.9639 0,14.9459 0,0.999225 -0.216144,1.90632 -0.563393,2.56539 -0.348429,0.657882 -0.829144,1.06773 -1.35474,1.06773 -6.28945,0 -12.5789,0 -18.866,0 -0.527959,0 -1.00631,-0.409848 -1.35474,-1.06773 -0.347248,-0.659063 -0.563393,-1.56616 -0.563393,-2.56539 0,-4.98195 0,-9.96272 0,-14.9459 0,-0.999225 0.216144,-1.90868 0.563393,-2.56657 0.348429,-0.659063 0.826782,-1.06891 1.35474,-1.06891zm18.866 1.16931c-6.28945,0 -12.5789,0 -18.866,0 -0.357878,0 -0.683867,0.278744 -0.918909,0.722844 -0.235042,0.446462 -0.381501,1.06419 -0.381501,1.74333 0,4.98313 0,9.9639 0,14.9459 0,0.677961 0.146458,1.29687 0.381501,1.74097 0.235042,0.445281 0.561031,0.724025 0.918909,0.724025 6.28709,0 12.5765,0 18.866,0 0.357878,0 0.685048,-0.278744 0.918909,-0.724025 0.235042,-0.4441 0.382682,-1.06301 0.382682,-1.74097 0,-4.98195 0,-9.96272 0,-14.9459 0,-0.679142 -0.14764,-1.29687 -0.382682,-1.74333 -0.233861,-0.4441 -0.561031,-0.722844 -0.918909,-0.722844z" />
   <path
   id="_104745296"
   class="fil45"
   d="M40.4804 14.0317c6.20086,0 12.4017,0 18.6038,0 0.51851,0 0.993319,0.402761 1.33584,1.05119 0.342524,0.648433 0.556306,1.54136 0.556306,2.52405 0,4.90045 0,9.79973 0,14.699 0,0.982689 -0.213782,1.87443 -0.556306,2.52405 -0.342524,0.647252 -0.817333,1.05001 -1.33584,1.05001 -6.20204,0 -12.4029,0 -18.6038,0 -0.519691,0 -0.992138,-0.402761 -1.33466,-1.05001 -0.343705,-0.649614 -0.556306,-1.54136 -0.556306,-2.52405 0,-4.89927 0,-9.79855 0,-14.699 0,-0.982689 0.212601,-1.87561 0.556306,-2.52405 0.342524,-0.648433 0.814971,-1.05119 1.33466,-1.05119zm18.6038 1.15041c-6.20204,0 -12.4029,0 -18.6038,0 -0.351973,0 -0.674418,0.274019 -0.905917,0.711032 -0.23268,0.438194 -0.376776,1.04765 -0.376776,1.7138 0,4.90045 0,9.79973 0,14.699 0,0.66615 0.144096,1.27561 0.376776,1.71262 0.231499,0.438194 0.553944,0.711032 0.905917,0.711032 6.20086,0 12.4017,0 18.6038,0 0.353154,0 0.675599,-0.272838 0.907098,-0.711032 0.231499,-0.437013 0.375595,-1.04647 0.375595,-1.71262 0,-4.89927 0,-9.79855 0,-14.699 0,-0.66615 -0.144096,-1.27561 -0.375595,-1.7138 -0.231499,-0.437013 -0.553944,-0.711032 -0.907098,-0.711032z" />
   <path
   id="_104745848"
   class="fil46"
   d="M40.6103 14.2159c6.11346,0 12.2269,0 18.3416,0 0.511424,0 0.979146,0.395674 1.31695,1.03348 0.337799,0.636622 0.548038,1.51537 0.548038,2.48153 0,4.81778 0,9.63437 0,14.4521 0,0.966154 -0.210239,1.84254 -0.548038,2.48035 -0.337799,0.636622 -0.805522,1.0323 -1.31695,1.0323 -6.11464,0 -12.2281,0 -18.3416,0 -0.512605,0 -0.977965,-0.395674 -1.31576,-1.0323 -0.337799,-0.637803 -0.548038,-1.51419 -0.548038,-2.48035 0,-4.81778 0,-9.63437 0,-14.4521 0,-0.966154 0.210239,-1.8449 0.548038,-2.48153 0.337799,-0.637803 0.803159,-1.03348 1.31576,-1.03348zm18.3416 1.13033c-6.11464,0 -12.2281,0 -18.3416,0 -0.347248,0 -0.664969,0.270476 -0.892924,0.699221 -0.229137,0.431108 -0.370871,1.02993 -0.370871,1.68545 0,4.81778 0,9.63437 0,14.4521 0,0.654339 0.141734,1.25317 0.370871,1.68427 0.227956,0.428745 0.545676,0.69804 0.892924,0.69804 6.11346,0 12.2269,0 18.3416,0 0.348429,0 0.66615,-0.269295 0.894105,-0.69804 0.227956,-0.431108 0.370871,-1.02993 0.370871,-1.68427 0,-4.81778 0,-9.63437 0,-14.4521 0,-0.65552 -0.142915,-1.25435 -0.370871,-1.68545 -0.227956,-0.428745 -0.545676,-0.699221 -0.894105,-0.699221z" />
   <path
   id="_104745104"
   class="fil47"
   d="M40.7403 14.4002c6.02606,0 12.0521,0 18.0794,0 0.504337,0 0.964973,0.388587 1.29805,1.01576 0.333075,0.624811 0.53977,1.48939 0.53977,2.43901 0,4.7351 0,9.46901 0,14.2041 0,0.949618 -0.206695,1.81301 -0.53977,2.43783 -0.333075,0.625992 -0.793711,1.01576 -1.29805,1.01576 -6.02724,0 -12.0533,0 -18.0794,0 -0.504337,0 -0.963791,-0.389769 -1.29687,-1.01576 -0.333075,-0.624811 -0.53977,-1.48821 -0.53977,-2.43783 0,-4.7351 0,-9.46901 0,-14.2041 0,-0.949618 0.206695,-1.8142 0.53977,-2.43901 0.333075,-0.627173 0.792529,-1.01576 1.29687,-1.01576zm18.0794 1.11025c-6.02724,0 -12.0533,0 -18.0794,0 -0.342524,0 -0.65552,0.265751 -0.879932,0.68741 -0.225593,0.424021 -0.366146,1.01222 -0.366146,1.65711 0,4.7351 0,9.46901 0,14.2041 0,0.643709 0.140553,1.2319 0.366146,1.65593 0.224412,0.421659 0.537408,0.686229 0.879932,0.686229 6.02606,0 12.0521,0 18.0794,0 0.343705,0 0.656701,-0.26457 0.881113,-0.686229 0.224412,-0.424021 0.366146,-1.01222 0.366146,-1.65593 0,-4.7351 0,-9.46901 0,-14.2041 0,-0.64489 -0.141734,-1.23309 -0.366146,-1.65711 -0.224412,-0.421659 -0.537408,-0.68741 -0.881113,-0.68741z" />
   <path
   id="_104733032"
   class="fil48"
   d="M40.8714 14.5833c5.93747,0 11.8773,0 17.816,0 0.496069,0 0.950799,0.382682 1.27915,0.998044 0.327169,0.615362 0.532684,1.4634 0.532684,2.39649 0,4.6536 0,9.30602 0,13.9573 0,0.933082 -0.205514,1.78112 -0.532684,2.39649 -0.32835,0.614181 -0.783081,0.996863 -1.27915,0.996863 -5.93866,0 -11.8785,0 -17.816,0 -0.498431,0 -0.949618,-0.382682 -1.27915,-0.996863 -0.32835,-0.615362 -0.532684,-1.4634 -0.532684,-2.39649 0,-4.65124 0,-9.30366 0,-13.9573 0,-0.933082 0.204333,-1.78112 0.532684,-2.39649 0.329532,-0.615362 0.780718,-0.998044 1.27915,-0.998044zm17.816 1.09253c-5.93866,0 -11.8785,0 -17.816,0 -0.337799,0 -0.646071,0.259846 -0.868121,0.675599 -0.22205,0.415753 -0.360241,0.993319 -0.360241,1.6264 0,4.6536 0,9.30602 0,13.9573 0,0.633079 0.138191,1.21183 0.360241,1.6264 0.22205,0.416934 0.530321,0.675599 0.868121,0.675599 5.93747,0 11.8773,0 17.816,0 0.337799,0 0.646071,-0.258665 0.868121,-0.675599 0.22205,-0.414572 0.360241,-0.993319 0.360241,-1.6264 0,-4.65124 0,-9.30366 0,-13.9573 0,-0.633079 -0.138191,-1.21064 -0.360241,-1.6264 -0.22205,-0.415753 -0.530321,-0.675599 -0.868121,-0.675599z" />
   <path
   id="_104732552"
   class="fil49"
   d="M41.0013 14.7675c5.85007,0 11.7025,0 17.5538,0 0.488982,0 0.936626,0.375595 1.26025,0.980327 0.322445,0.603551 0.524416,1.43742 0.524416,2.35397 0,4.57092 0,9.14066 0,13.7092 0,0.916547 -0.201971,1.75042 -0.524416,2.35397 -0.323626,0.603551 -0.771269,0.980327 -1.26025,0.980327 -5.85125,0 -11.7037,0 -17.5538,0 -0.490164,0 -0.935445,-0.376776 -1.26025,-0.980327 -0.323626,-0.603551 -0.524416,-1.43742 -0.524416,-2.35397 0,-4.56856 0,-9.1383 0,-13.7092 0,-0.916547 0.20079,-1.75042 0.524416,-2.35397 0.324807,-0.604732 0.770088,-0.980327 1.26025,-0.980327zm17.5538 1.07245c-5.85125,0 -11.7037,0 -17.5538,0 -0.333075,0 -0.636622,0.255121 -0.855129,0.663788 -0.218507,0.408666 -0.355516,0.975603 -0.355516,1.59805 0,4.57092 0,9.14066 0,13.7092 0,0.622449 0.13701,1.19057 0.355516,1.59805 0.218507,0.409848 0.522054,0.663788 0.855129,0.663788 5.85007,0 11.7025,0 17.5538,0 0.333075,0 0.636622,-0.25394 0.855129,-0.663788 0.218507,-0.407485 0.355516,-0.975603 0.355516,-1.59805 0,-4.56856 0,-9.1383 0,-13.7092 0,-0.622449 -0.13701,-1.18938 -0.355516,-1.59805 -0.218507,-0.408666 -0.522054,-0.663788 -0.855129,-0.663788z" />
   <path
   id="_104741480"
   class="fil50"
   d="M41.1312 14.9518c5.76267,0 11.5277,0 17.2916,0 0.481896,0 0.922452,0.368508 1.24135,0.96261 0.31772,0.59174 0.516148,1.41143 0.516148,2.31145 0,4.48824 0,8.97531 0,13.4624 0,0.900011 -0.198428,1.71853 -0.516148,2.31145 -0.318902,0.59174 -0.759458,0.961429 -1.24135,0.961429 -5.76385,0 -11.5289,0 -17.2916,0 -0.483077,0 -0.921271,-0.36969 -1.24135,-0.961429 -0.31772,-0.592921 -0.516148,-1.41143 -0.516148,-2.31145 0,-4.48706 0,-8.97413 0,-13.4624 0,-0.900011 0.198428,-1.71971 0.516148,-2.31145 0.320083,-0.594102 0.758277,-0.96261 1.24135,-0.96261zm17.2916 1.05238c-5.76385,0 -11.5289,0 -17.2916,0 -0.32835,0 -0.627173,0.251578 -0.842136,0.651977 -0.214963,0.40158 -0.349611,0.957886 -0.349611,1.5697 0,4.48824 0,8.97531 0,13.4624 0,0.610637 0.134647,1.16812 0.349611,1.56852 0.214963,0.40158 0.513786,0.653158 0.842136,0.653158 5.76267,0 11.5277,0 17.2916,0 0.32835,0 0.627173,-0.251578 0.842136,-0.653158 0.214963,-0.400399 0.350792,-0.957886 0.350792,-1.56852 0,-4.48706 0,-8.97413 0,-13.4624 0,-0.611819 -0.135828,-1.16812 -0.350792,-1.5697 -0.214963,-0.400399 -0.513786,-0.651977 -0.842136,-0.651977z" />
   <path
   id="_104740832"
   class="fil51"
   d="M41.2611 15.1348c5.67645,0 11.3529,0 17.0293,0 0.474809,0 0.90946,0.361422 1.22246,0.944894 0.312996,0.582291 0.509061,1.38545 0.509061,2.26893 0,4.40557 0,8.81113 0,13.2155 0,0.883475 -0.196065,1.68663 -0.509061,2.27011 -0.312996,0.58111 -0.747647,0.943712 -1.22246,0.943712 -5.67645,0 -11.3529,0 -17.0293,0 -0.474809,0 -0.907098,-0.362603 -1.22127,-0.943712 -0.314177,-0.583472 -0.509061,-1.38663 -0.509061,-2.27011 0,-4.40438 0,-8.80995 0,-13.2155 0,-0.883475 0.194884,-1.68663 0.509061,-2.26893 0.314177,-0.583472 0.746466,-0.944894 1.22127,-0.944894zm17.0293 1.03348c-5.67645,0 -11.3529,0 -17.0293,0 -0.322445,0 -0.617724,0.246853 -0.829144,0.640165 -0.212601,0.393312 -0.344886,0.94135 -0.344886,1.54018 0,4.40557 0,8.81113 0,13.2155 0,0.598826 0.132285,1.14686 0.344886,1.54018 0.21142,0.394493 0.506699,0.640165 0.829144,0.640165 5.67645,0 11.3529,0 17.0293,0 0.323626,0 0.617724,-0.245672 0.830325,-0.640165 0.21142,-0.393312 0.343705,-0.94135 0.343705,-1.54018 0,-4.40438 0,-8.80995 0,-13.2155 0,-0.598826 -0.132285,-1.14686 -0.343705,-1.54018 -0.212601,-0.393312 -0.506699,-0.640165 -0.830325,-0.640165z" />
   <path
   id="_104744528"
   class="fil52"
   d="M41.3922 15.3191c5.58786,0 11.1769,0 16.766,0 0.466541,0 0.895287,0.354335 1.20356,0.927177 0.308272,0.570479 0.500794,1.35947 0.500794,2.22641 0,4.32289 0,8.64578 0,12.9675 0,0.86694 -0.192522,1.65593 -0.500794,2.22759 -0.308272,0.570479 -0.737017,0.925996 -1.20356,0.925996 -5.58905,0 -11.1781,0 -16.766,0 -0.468903,0 -0.894105,-0.355516 -1.20356,-0.925996 -0.309453,-0.571661 -0.501975,-1.36065 -0.501975,-2.22759 0,-4.32171 0,-8.64459 0,-12.9675 0,-0.86694 0.192522,-1.65593 0.501975,-2.22641 0.309453,-0.572842 0.734655,-0.927177 1.20356,-0.927177zm16.766 1.01458c-5.58905,0 -11.1781,0 -16.766,0 -0.318902,0 -0.608275,0.240948 -0.817333,0.627173 -0.209058,0.386225 -0.338981,0.923633 -0.338981,1.51183 0,4.32289 0,8.64578 0,12.9675 0,0.588196 0.129923,1.12679 0.338981,1.51183 0.209058,0.387406 0.498431,0.628354 0.817333,0.628354 5.58786,0 11.1769,0 16.766,0 0.31772,0 0.608275,-0.240948 0.817333,-0.628354 0.207877,-0.385044 0.338981,-0.923633 0.338981,-1.51183 0,-4.32171 0,-8.64459 0,-12.9675 0,-0.588196 -0.131104,-1.1256 -0.338981,-1.51183 -0.209058,-0.386225 -0.499612,-0.627173 -0.817333,-0.627173z" />
   <path
   id="_104739416"
   class="fil53"
   d="M41.5222 15.5022c5.50046,0 11.0021,0 16.5037,0 0.459454,0 0.881113,0.348429 1.18466,0.90946 0.303547,0.561031 0.493707,1.33348 0.493707,2.18389 0,4.24139 0,8.4816 0,12.7218 0,0.850404 -0.19016,1.62285 -0.493707,2.18507 -0.303547,0.558668 -0.725206,0.908279 -1.18466,0.908279 -5.50164,0 -11.0033,0 -16.5037,0 -0.460636,0 -0.879932,-0.349611 -1.18466,-0.908279 -0.303547,-0.562212 -0.493707,-1.33466 -0.493707,-2.18507 0,-4.24021 0,-8.48042 0,-12.7218 0,-0.850404 0.19016,-1.62285 0.493707,-2.18389 0.304728,-0.561031 0.724025,-0.90946 1.18466,-0.90946zm16.5037 0.995682c-5.50164,0 -11.0033,0 -16.5037,0 -0.312996,0 -0.598826,0.237404 -0.804341,0.615362 -0.205514,0.379139 -0.334256,0.905917 -0.334256,1.4823 0,4.24139 0,8.4816 0,12.7218 0,0.576385 0.128742,1.10434 0.334256,1.4823 0.205514,0.379139 0.491345,0.616543 0.804341,0.616543 5.50046,0 11.0021,0 16.5037,0 0.312996,0 0.598826,-0.237404 0.804341,-0.616543 0.205514,-0.377957 0.333075,-0.905917 0.333075,-1.4823 0,-4.24021 0,-8.48042 0,-12.7218 0,-0.576385 -0.127561,-1.10316 -0.333075,-1.4823 -0.205514,-0.377957 -0.491345,-0.615362 -0.804341,-0.615362z" />
  </g>
  <path
   class="fil54"
   d="M41.6521 15.6864l16.2415 0c0.452368,0 0.86694,0.341343 1.16576,0.891743 0.298823,0.549219 0.485439,1.3075 0.485439,2.14136l0 12.4738c0,0.833869 -0.186616,1.59215 -0.485439,2.14255 -0.298823,0.549219 -0.713395,0.891743 -1.16576,0.891743l-16.2415 0c-0.453549,0 -0.865759,-0.342524 -1.16576,-0.891743 -0.298823,-0.5504 -0.485439,-1.30868 -0.485439,-2.14255l0 -12.4738c0,-0.833869 0.186616,-1.59215 0.485439,-2.14136 0.300004,-0.5504 0.712213,-0.891743 1.16576,-0.891743zm16.2415 0.975603l-16.2415 0c-0.308272,0 -0.589377,0.23268 -0.791348,0.603551 -0.201971,0.372052 -0.32835,0.8882 -0.32835,1.45395l0 12.4738c0,0.565755 0.12638,1.08308 0.32835,1.45395 0.201971,0.372052 0.483077,0.604732 0.791348,0.604732l16.2415 0c0.308272,0 0.589377,-0.23268 0.791348,-0.604732 0.201971,-0.370871 0.32835,-0.8882 0.32835,-1.45395l0 -12.4738c0,-0.565755 -0.12638,-1.0819 -0.32835,-1.45395 -0.201971,-0.370871 -0.483077,-0.603551 -0.791348,-0.603551z"
   id="path5809" />
  <g
   id="_104735168">
   <path
   id="_290891544"
   class="fil38"
   d="M30.3689 43.934c0.452368,0.435832 0.734655,1.04293 0.734655,1.71026l-0.00236223 9.27177c0,0.526778 -0.177168,1.02167 -0.474809,1.42325l0.00118112 -9.75721c0,-0.503156 -0.070867,-0.881113 -0.239767,-1.09844 -0.144096,-0.184254 -0.361422,-0.0814971 -0.781899,-0.0826782l-0.00354335 0 -21.0652 -0.0118112 -0.00472447 0c-0.432289,-0.00236223 -0.707489,0.0779537 -0.844499,0.242129l0 0.00118112c-0.161813,0.192522 -0.279925,0.441738 -0.279925,0.937807l0.102757 9.84815 0.00472447 0.213782c-0.565755,-0.434651 -0.938988,-1.11616 -0.946075,-1.88388l-0.102757 -9.32374c-0.00236223,-0.266932 0.040158,-0.526778 0.121655,-0.767726l0.00236223 -0.00236223c0.411029,-0.491345 1.02639,-0.735836 1.89333,-0.72993l0.00472447 0 21.0664 -0.090946 0.00236223 0c0.300004,0.00118112 0.570479,0.0366146 0.811427,0.100395z" />
   <path
   id="_294391848"
   class="fil40"
   d="M8.84775 41.9379l30.6382 -0.0460636 0.00354335 0c0.798435,0.00826782 1.52482,0.368508 2.04451,0.936626 0.513786,0.561031 0.832687,1.32994 0.832687,2.16617l-0.00236223 0 -0.00236223 10.0513 0.00236223 0 0 0.0330713 -0.00236223 0.00590558c-0.00944894,0.82442 -0.32835,1.5886 -0.831506,2.14018l-0.00118112 -0.00118112c-0.516148,0.568117 -1.23545,0.925996 -2.02089,0.924815l0 0.00236223 -0.0248035 0 -0.00354335 -0.00236223 -30.5319 -0.103938c-0.791348,-0.00826782 -1.51774,-0.364965 -2.03979,-0.934263l-0.00236223 -0.00118112c-0.506699,-0.555125 -0.829144,-1.31931 -0.83505,-2.16263l-0.102757 -9.90367 -0.00236223 -0.00354335 0 -0.0531503 0.00236223 -0.00354335c0.00826782,-0.82442 0.324807,-1.58033 0.827963,-2.12837 0.512605,-0.558668 1.226,-0.911822 2.0079,-0.916547l0.00236223 -0.00236223 0.0413391 0 0 0.00236223zm30.6382 0.950799l-30.6382 0.0460636 0 0.00236223 -0.0413391 0 0 -0.00236223c-0.487801,0.00472447 -0.942531,0.233861 -1.27561,0.595283 -0.342524,0.373233 -0.559849,0.891743 -0.565755,1.45632l0.00236223 0 0 0.0531503 -0.00236223 0 0.102757 9.90012c0.00472447,0.583472 0.227956,1.11261 0.577566,1.49648l-0.00118112 0.00118112c0.342524,0.372052 0.810246,0.605913 1.31104,0.610637l30.5283 0.103938 0 -0.00236223 0.0248035 0 0 0.00236223c0.492526,0 0.949618,-0.230318 1.28269,-0.597645l0 -0.00236223c0.346067,-0.379139 0.566936,-0.905917 0.574023,-1.47285l-0.00236223 0 0 -0.0330713 0.00236223 0 0.00236223 -10.0513 -0.00236223 0c0,-0.582291 -0.217326,-1.11143 -0.565755,-1.49293 -0.338981,-0.370871 -0.806703,-0.607094 -1.3134,-0.613z" />
  </g>
  <path
   class="fil55"
   d="M9.89304 53.116c0.0838593,0.338981 0.226774,0.594102 0.427564,0.767726 0.233861,0.197247 0.546857,0.298823 0.942531,0.298823 0.419296,0 0.737017,-0.0897649 0.949618,-0.269295 0.21142,-0.175986 0.318902,-0.383863 0.318902,-0.620086 0,-0.0637803 -0.00826782,-0.121655 -0.0236223,-0.177168l1.32403 0 0.00118112 0.172443c0,0.36969 -0.102757,0.716938 -0.308272,1.03702 -0.205514,0.321264 -0.496069,0.563393 -0.870483,0.7193 -0.375595,0.15827 -0.843317,0.235042 -1.40435,0.235042 -0.814971,0 -1.44096,-0.187798 -1.87679,-0.563393 -0.428745,-0.368508 -0.68741,-0.902373 -0.777175,-1.60041l1.29687 0zm9.27531 0l0 2.05042 -1.23545 0 0 -2.05042 1.23545 0zm-2.96697 0l0 2.05042 -1.28624 0 0 -2.05042 1.28624 0zm4.04178 2.05042l0 -2.05042 1.33702 0 0 2.05042 -1.33702 0zm3.9343 -2.05042l0 2.05042 -1.23663 0 0 -2.05042 1.23663 0zm2.71303 0l0 0.245672c0,0.38032 0.00944894,0.607094 0.0248035,0.668512 0.0129923,0.060237 0.050788,0.115749 0.107482,0.154726 0.0555125,0.040158 0.129923,0.0637803 0.21142,0.0637803 0.114568,0 0.282287,-0.0425202 0.496069,-0.120474l0.106301 0.957886c-0.289374,0.122836 -0.611819,0.184254 -0.979146,0.184254 -0.219688,0 -0.421659,-0.0354335 -0.597645,-0.109844 -0.17953,-0.0744104 -0.310634,-0.173624 -0.393312,-0.290555 -0.0874027,-0.120474 -0.145277,-0.281106 -0.177168,-0.481896 -0.0224412,-0.140553 -0.0377957,-0.434651 -0.0377957,-0.870483l0 -0.40158 1.23899 0z"
   id="path5814" />
  <path
   class="fil56"
   d="M8.53829 51.6857l1.26852 -0.122836c0.0755915,0.425202 0.229137,0.737017 0.462998,0.937807 0.233861,0.198428 0.548038,0.298823 0.942531,0.298823 0.420478,0 0.738198,-0.0897649 0.948437,-0.268114 0.212601,-0.177168 0.318902,-0.383863 0.318902,-0.621267 0,-0.153545 -0.0448824,-0.281106 -0.134647,-0.389769 -0.0885838,-0.106301 -0.244491,-0.199609 -0.467722,-0.277562 -0.151183,-0.0543314 -0.499612,-0.14764 -1.04293,-0.282287 -0.696859,-0.173624 -1.1882,-0.386225 -1.46695,-0.638984 -0.396855,-0.353154 -0.595283,-0.786624 -0.595283,-1.29569 0,-0.329532 0.0933082,-0.635441 0.279925,-0.922452 0.186616,-0.284649 0.453549,-0.503156 0.803159,-0.653158 0.351973,-0.148821 0.773632,-0.224412 1.2697,-0.224412 0.810246,0 1.41852,0.175986 1.82837,0.531503 0.408666,0.355516 0.62363,0.829144 0.64489,1.42206l-1.30277 0.0566936c-0.0543314,-0.331894 -0.174805,-0.570479 -0.35906,-0.714576 -0.181892,-0.146458 -0.457092,-0.218507 -0.82442,-0.218507 -0.377957,0 -0.674418,0.0779537 -0.887019,0.233861 -0.139372,0.0992138 -0.207877,0.231499 -0.207877,0.399218 0,0.153545 0.0649614,0.283468 0.193703,0.39095 0.164175,0.139372 0.563393,0.283468 1.19529,0.432289 0.635441,0.150002 1.10316,0.303547 1.40671,0.462998 0.302366,0.161813 0.53977,0.377957 0.712213,0.65552 0.171262,0.277562 0.257483,0.621267 0.257483,1.02875 0,0.368508 -0.102757,0.715757 -0.308272,1.03702 -0.205514,0.321264 -0.496069,0.563393 -0.870483,0.718119 -0.376776,0.15827 -0.843317,0.236223 -1.40435,0.236223 -0.814971,0 -1.44096,-0.187798 -1.87798,-0.564574 -0.437013,-0.375595 -0.696859,-0.924815 -0.783081,-1.64766zm7.61348 -4.35005l0 2.3705c0.399218,-0.466541 0.82442,-0.700402 1.37718,-0.700402 0.28583,0 0.542133,0.0555125 0.77245,0.160632 0.227956,0.103938 0.400399,0.238586 0.514967,0.402761 0.115749,0.165356 0.194884,0.347248 0.237404,0.546857 0.0437013,0.197247 0.0649614,0.509061 0.0649614,0.927177l0 2.74019 -1.23545 0 0 -2.46853c0,-0.487801 -0.0248035,-0.799616 -0.070867,-0.93072 -0.0472447,-0.133466 -0.131104,-0.236223 -0.249216,-0.312996 -0.119293,-0.0803159 -0.266932,-0.118112 -0.446462,-0.118112 -0.204333,0 -0.387406,0.050788 -0.549219,0.150002 -0.159451,0.0992138 -0.229137,0.250397 -0.301185,0.450006 -0.0744104,0.201971 -0.114568,0.499612 -0.114568,0.889381l0 2.34097 -1.28624 0 0 -6.44772 1.28624 0zm4.0406 1.1445l0 -1.1445 1.33702 0 0 1.1445 -1.33702 0zm0 5.30321l0 -4.67014 1.33702 0 0 4.67014 -1.33702 0zm2.01262 -4.67014l0.685048 0 0 -0.351973c0,-0.393312 0.0437013,-0.688591 0.127561,-0.879932 0.0814971,-0.192522 0.237404,-0.353154 0.460636,-0.473628 0.223231,-0.121655 0.509061,-0.181892 0.850404,-0.181892 0.351973,0 0.69804,0.0531503 1.03466,0.157089l-0.167719 0.863396c-0.196065,-0.0472447 -0.383863,-0.070867 -0.565755,-0.070867 -0.183073,0 -0.308272,0.0437013 -0.386225,0.12638 -0.0755915,0.0814971 -0.115749,0.248035 -0.115749,0.481896l0 0.329532 0.923633 0 0 0.970878 -0.923633 0 0 3.69926 -1.23781 0 0 -3.69926 -0.685048 0 0 -0.970878zm5.47802 0l0 0.986233 -0.843317 0 0 1.88152c0,0.379139 0.00944894,0.603551 0.0248035,0.66615 0.0153545,0.0614181 0.050788,0.115749 0.107482,0.155907 0.0555125,0.040158 0.129923,0.0625992 0.21142,0.0625992 0.114568,0 0.281106,-0.0413391 0.496069,-0.119293l0.106301 0.957886c-0.288193,0.122836 -0.611819,0.184254 -0.979146,0.184254 -0.219688,0 -0.421659,-0.0366146 -0.597645,-0.109844 -0.17953,-0.0744104 -0.310634,-0.174805 -0.393312,-0.291736 -0.0862215,-0.119293 -0.142915,-0.281106 -0.177168,-0.481896 -0.0212601,-0.142915 -0.0377957,-0.43347 -0.0377957,-0.870483l0 -2.03506 -0.568117 0 0 -0.986233 0.568117 0 0 -0.929539 1.23899 -0.720481 0 1.65002 0.843317 0z"
   id="path5816" />
  <path
   class="fil57"
   d="M12.5328 24.7905l1.43506 3.03193c-0.204333,0.742923 -0.542133,1.29569 -1.01812,1.65474 -0.472447,0.35906 -1.076,0.53977 -1.80593,0.53977 -0.902373,0 -1.64766,-0.309453 -2.22759,-0.924815 -0.579928,-0.615362 -0.976784,-4.07249 -0.976784,-5.14022 0,-1.13387 0.294098,-2.01262 0.87757,-2.63862 0.582291,-0.624811 1.3512,-0.938988 2.30554,-0.938988 0.831506,0 1.50711,0.248035 2.02562,0.738198 0.309453,0.289374 0.540952,0.707489 0.69804,1.25198l-1.36065 0.324807c-0.0791348,-0.351973 -0.248035,-0.630716 -0.504337,-0.836231 -0.25394,-0.203152 -0.563393,-0.305909 -0.928358,-0.305909 -0.504337,0 -0.915366,0.180711 -1.22718,0.543314 -0.312996,0.35906 -0.471266,0.947256 -0.471266,1.7575 0,0.861034 0.261027,4.08548 0.569298,4.44809 0.30709,0.363784 0.711032,0.548038 1.20474,0.548038 0.366146,0 0.680323,-0.118112 0.943712,-0.348429 0.261027,-0.230318 0.346067,-3.20791 0.460636,-3.70516zm4.75872 -2.42601l0 1.03938 -0.891743 0 0.105119 4.59573c0.00944894,0.399218 0.00944894,0.637803 0.0259846,0.702765 0.0153545,0.0661425 0.0555125,0.120474 0.115749,0.164175 0.0590558,0.0413391 0.133466,0.0661425 0.218507,0.0661425 0.122836,0 0.29646,-0.0437013 0.526778,-0.12638l0.109844 1.01104c-0.302366,0.128742 -0.646071,0.194884 -1.02993,0.194884 -0.235042,0 -0.447643,-0.040158 -0.63426,-0.118112 -0.188979,-0.0767726 -0.327169,-0.183073 -0.415753,-0.30709 -0.0874027,-0.124017 -0.150002,-0.295279 -0.184254,-0.50788 -0.0236223,-0.148821 -0.0318902,-0.458273 -0.040158,-0.918909l-0.103938 -4.75636 -0.600007 0 0 -1.03938 0.600007 0 0 -0.980327 1.30632 -0.758277 0 1.7386 0.891743 0zm2.25711 7.53671l-1.30395 0 -0.105119 -7.53671 1.21064 0 0 0.700402c0.206695,-0.331894 0.393312,-0.549219 0.559849,-0.654339 0.165356,-0.103938 0.351973,-0.157089 0.562212,-0.157089 0.297641,0 0.583472,0.0814971 0.858672,0.245672l-0.405123 1.13505c-0.217326,-0.140553 -0.421659,-0.21142 -0.610637,-0.21142 -0.183073,0 -0.336618,0.0496069 -0.464179,0.150002 -0.125198,0.100395 -0.226774,0.283468 -0.298823,0.544495 -0.070867,0.261027 -0.00354335,3.4276 -0.00354335,4.26265l0 1.52128zm2.44727 0l-0.103938 -9.41114 1.30277 0 0.105119 9.41114 -1.30395 0z"
   id="path5818" />
  <path
   class="fil18"
   d="M12.4277 25.7318l1.33112 0.420478c-0.204333,0.742923 -0.543314,1.2945 -1.01812,1.65474 -0.473628,0.360241 -1.07718,0.53977 -1.80711,0.53977 -0.902373,0 -1.6453,-0.309453 -2.22641,-0.924815 -0.579928,-0.616543 -0.871664,-1.46104 -0.871664,-2.52995 0,-1.13269 0.292917,-2.01026 0.876389,-2.63743 0.584653,-0.624811 1.35238,-0.938988 2.30554,-0.938988 0.831506,0 1.50711,0.245672 2.02562,0.737017 0.310634,0.290555 0.542133,0.707489 0.69804,1.25317l-1.36065 0.324807c-0.0779537,-0.353154 -0.245672,-0.631898 -0.504337,-0.836231 -0.25394,-0.204333 -0.563393,-0.305909 -0.927177,-0.305909 -0.504337,0 -0.914184,0.180711 -1.22836,0.543314 -0.312996,0.360241 -0.470085,0.947256 -0.470085,1.7575 0,0.861034 0.154726,1.47285 0.464179,1.83664 0.308272,0.366146 0.709851,0.548038 1.20474,0.548038 0.366146,0 0.677961,-0.115749 0.942531,-0.347248 0.263389,-0.23268 0.451187,-0.598826 0.565755,-1.0949zm4.75872 -2.42601l0 1.0382 -0.891743 0 0 1.98546c0,0.402761 0.00826782,0.636622 0.0259846,0.702765 0.0177168,0.0673237 0.0555125,0.120474 0.115749,0.164175 0.060237,0.0437013 0.134647,0.0661425 0.219688,0.0661425 0.122836,0 0.29646,-0.0437013 0.526778,-0.125198l0.109844 1.00985c-0.303547,0.128742 -0.646071,0.194884 -1.02993,0.194884 -0.235042,0 -0.446462,-0.040158 -0.63426,-0.116931 -0.188979,-0.0791348 -0.327169,-0.181892 -0.415753,-0.308272 -0.0885838,-0.124017 -0.148821,-0.292917 -0.184254,-0.50788 -0.0259846,-0.148821 -0.040158,-0.457092 -0.040158,-0.917728l0 -2.14727 -0.600007 0 0 -1.0382 0.600007 0 0 -0.980327 1.30632 -0.759458 0 1.73979 0.891743 0zm2.15318 4.92526l-1.30395 0 0 -4.92526 1.20946 0 0 0.700402c0.206695,-0.331894 0.393312,-0.549219 0.559849,-0.654339 0.165356,-0.105119 0.353154,-0.15827 0.562212,-0.15827 0.297641,0 0.583472,0.0826782 0.858672,0.246853l-0.403942 1.13505c-0.217326,-0.140553 -0.42284,-0.21142 -0.610637,-0.21142 -0.184254,0 -0.337799,0.0484258 -0.464179,0.150002 -0.127561,0.0992138 -0.225593,0.281106 -0.300004,0.544495 -0.0720481,0.262208 -0.107482,0.81379 -0.107482,1.6512l0 1.52128zm2.44727 0l0 -6.79969 1.30395 0 0 6.79969 -1.30395 0z"
   id="path5820" />
  <path
   class="fil58"
   d="M51.0302 27.0901l1.33112 0.420478c-0.205514,0.742923 -0.543314,1.2945 -1.01812,1.65593 -0.474809,0.35906 -1.07718,0.53977 -1.80711,0.53977 -0.902373,0 -1.6453,-0.309453 -2.22641,-0.925996 -0.579928,-0.616543 -0.871664,-1.46104 -0.871664,-2.52995 0,-1.13269 0.187798,-4.20478 0.771269,-4.83077 0.583472,-0.624811 1.35238,-0.938988 2.30554,-0.938988 0.831506,0 1.50711,0.248035 2.02562,0.738198 0.309453,0.289374 0.542133,0.707489 0.69804,1.25198l-1.35947 0.324807c-0.0791348,-0.351973 -0.249216,-0.630716 -0.504337,-0.836231 -0.255121,-0.203152 -0.564574,-0.305909 -0.928358,-0.305909 -0.504337,0 -0.915366,0.180711 -1.22836,0.543314 -0.312996,0.35906 -0.366146,3.14059 -0.366146,3.95084 0,0.861034 0.154726,1.47285 0.464179,1.83664 0.309453,0.366146 0.711032,0.548038 1.20592,0.548038 0.366146,0 0.677961,-0.115749 0.942531,-0.347248 0.262208,-0.23268 0.451187,-0.598826 0.565755,-1.0949z"
   id="path5822" />
  <path
   class="fil18"
   d="M51.1329 25.8369l1.33112 0.420478c-0.204333,0.742923 -0.543314,1.29332 -1.01812,1.65474 -0.473628,0.35906 -1.07718,0.53977 -1.80711,0.53977 -0.902373,0 -1.6453,-0.309453 -2.22641,-0.924815 -0.579928,-0.617724 -0.871664,-1.46104 -0.871664,-2.52995 0,-1.13269 0.292917,-2.01144 0.876389,-2.63743 0.584653,-0.625992 1.35238,-0.940169 2.30554,-0.940169 0.831506,0 1.50711,0.246853 2.02562,0.738198 0.311815,0.290555 0.542133,0.707489 0.69804,1.25198l-1.35947 0.325988c-0.0791348,-0.353154 -0.246853,-0.631898 -0.504337,-0.836231 -0.255121,-0.205514 -0.564574,-0.30709 -0.928358,-0.30709 -0.504337,0 -0.914184,0.180711 -1.22836,0.543314 -0.312996,0.361422 -0.470085,0.947256 -0.470085,1.75868 0,0.859853 0.154726,1.47285 0.464179,1.83664 0.309453,0.366146 0.709851,0.548038 1.20474,0.548038 0.366146,0 0.679142,-0.115749 0.942531,-0.348429 0.263389,-0.231499 0.451187,-0.597645 0.565755,-1.09371z"
   id="path5824" />
  <path
   class="fil41"
   d="M5.26069 12.9214l27.2153 0c0.759458,0 1.45277,0.427564 1.95475,1.11497 0.500794,0.68741 0.812608,1.63467 0.812608,2.67641l0 15.5872c0,1.04293 -0.311815,1.99018 -0.812608,2.67759 -0.501975,0.68741 -1.19529,1.11379 -1.95475,1.11379l-27.2153 0c-0.760639,0 -1.45159,-0.426383 -1.95357,-1.11379 -0.501975,-0.68741 -0.81379,-1.63467 -0.81379,-2.67759l0 -15.5872c0,-1.04175 0.311815,-1.989 0.81379,-2.67641 0.501975,-0.68741 1.19293,-1.11497 1.95357,-1.11497zm27.2153 1.22009l-27.2153 0c-0.516148,0 -0.987414,0.290555 -1.32639,0.754734 -0.338981,0.464179 -0.5504,1.10907 -0.5504,1.81656l0 15.5872c0,0.707489 0.21142,1.35356 0.5504,1.81774 0.338981,0.464179 0.810246,0.754734 1.32639,0.754734l27.2153 0c0.517329,0 0.987414,-0.290555 1.32639,-0.754734 0.338981,-0.464179 0.551582,-1.11025 0.551582,-1.81774l0 -15.5872c0,-0.707489 -0.212601,-1.35238 -0.551582,-1.81656 -0.338981,-0.464179 -0.809065,-0.754734 -1.32639,-0.754734z"
   id="path5826" />
  <g
   id="_110120304">
   <path
   id="_290884488"
   class="fil42"
   d="M5.44259 13.1045c8.9505,0 17.901,0 26.8503,0 0.748828,0 1.43269,0.420478 1.92876,1.09726 0.493707,0.67678 0.801978,1.60868 0.801978,2.63389 0,5.11424 0,10.2273 0,15.3415 0,1.02639 -0.308272,1.95711 -0.801978,2.63389 -0.496069,0.67678 -1.17994,1.09608 -1.92876,1.09608 -8.94932,0 -17.8998,0 -26.8503,0 -0.75119,0 -1.43269,-0.419296 -1.92758,-1.09608 -0.496069,-0.67678 -0.803159,-1.6075 -0.803159,-2.63389 0,-5.11424 0,-10.2273 0,-15.3415 0,-1.02521 0.30709,-1.95711 0.803159,-2.63389 0.494888,-0.67678 1.17639,-1.09726 1.92758,-1.09726zm26.8503 1.20001c-8.94932,0 -17.8998,0 -26.8503,0 -0.510242,0 -0.974421,0.28583 -1.30868,0.742923 -0.335437,0.457092 -0.543314,1.09135 -0.543314,1.78821 0,5.11424 0,10.2273 0,15.3415 0,0.696859 0.207877,1.3323 0.543314,1.78821 0.334256,0.457092 0.798435,0.742923 1.30868,0.742923 8.9505,0 17.901,0 26.8503,0 0.510242,0 0.974421,-0.28583 1.30868,-0.742923 0.334256,-0.455911 0.544495,-1.09135 0.544495,-1.78821 0,-5.11424 0,-10.2273 0,-15.3415 0,-0.696859 -0.210239,-1.33112 -0.544495,-1.78821 -0.334256,-0.457092 -0.798435,-0.742923 -1.30868,-0.742923z" />
   <path
   id="_290883960"
   class="fil43"
   d="M5.62212 13.2864c8.83003,0 17.6601,0 26.4877,0 0.739379,0 1.4138,0.414572 1.90278,1.07954 0.48662,0.66615 0.790167,1.58388 0.790167,2.59255 0,5.03156 0,10.0643 0,15.0959 0,1.00985 -0.303547,1.9264 -0.790167,2.59137 -0.488982,0.66615 -1.1634,1.07954 -1.90278,1.07954 -8.82767,0 -17.6577,0 -26.4877,0 -0.74056,0 -1.41262,-0.413391 -1.9016,-1.07954 -0.487801,-0.664969 -0.791348,-1.58152 -0.791348,-2.59137 0,-5.03156 0,-10.0643 0,-15.0959 0,-1.00867 0.303547,-1.9264 0.791348,-2.59255 0.488982,-0.664969 1.16104,-1.07954 1.9016,-1.07954zm26.4877 1.1823c-8.82767,0 -17.6577,0 -26.4877,0 -0.501975,0 -0.960248,0.281106 -1.29096,0.72993 -0.329532,0.450006 -0.535046,1.07482 -0.535046,1.75986 0,5.03156 0,10.0643 0,15.0959 0,0.685048 0.205514,1.31104 0.535046,1.75986 0.330713,0.448824 0.788986,0.72993 1.29096,0.72993 8.83003,0 17.6601,0 26.4877,0 0.503156,0 0.961429,-0.281106 1.29096,-0.72993 0.329532,-0.448824 0.536227,-1.07482 0.536227,-1.75986 0,-5.03156 0,-10.0643 0,-15.0959 0,-0.685048 -0.206695,-1.30986 -0.536227,-1.75986 -0.329532,-0.448824 -0.787805,-0.72993 -1.29096,-0.72993z" />
   <path
   id="_290883048"
   class="fil44"
   d="M5.80283 13.4695c8.70837,0 17.4167,0 26.1239,0 0.728749,0 1.39372,0.407485 1.87561,1.06182 0.480715,0.65552 0.780718,1.55789 0.780718,2.55003 0,4.95006 0,9.90012 0,14.8502 0,0.993319 -0.300004,1.89451 -0.780718,2.55003 -0.481896,0.654339 -1.14686,1.06064 -1.87561,1.06064 -8.70719,0 -17.4156,0 -26.1239,0 -0.72993,0 -1.39372,-0.406304 -1.87561,-1.06064 -0.481896,-0.65552 -0.780718,-1.55671 -0.780718,-2.55003 0,-4.95006 0,-9.90012 0,-14.8502 0,-0.992138 0.298823,-1.89451 0.780718,-2.55003 0.481896,-0.654339 1.14568,-1.06182 1.87561,-1.06182zm26.1239 1.16222c-8.70719,0 -17.4156,0 -26.1239,0 -0.496069,0 -0.948437,0.276381 -1.27324,0.7193 -0.325988,0.441738 -0.527959,1.05592 -0.527959,1.73034 0,4.95006 0,9.90012 0,14.8502 0,0.674418 0.201971,1.28978 0.527959,1.73034 0.324807,0.442919 0.777175,0.7193 1.27324,0.7193 8.70837,0 17.4167,0 26.1239,0 0.496069,0 0.947256,-0.276381 1.27324,-0.7193 0.324807,-0.440557 0.52914,-1.05592 0.52914,-1.73034 0,-4.95006 0,-9.90012 0,-14.8502 0,-0.674418 -0.204333,-1.2886 -0.52914,-1.73034 -0.325988,-0.442919 -0.777175,-0.7193 -1.27324,-0.7193z" />
   <path
   id="_290870112"
   class="fil45"
   d="M5.98236 13.6513c8.5879,0 17.1758,0 25.7625,0 0.716938,0 1.37364,0.400399 1.84845,1.04529 0.474809,0.643709 0.768907,1.53191 0.768907,2.50751 0,4.86856 0,9.73713 0,14.6045 0,0.976784 -0.294098,1.8638 -0.768907,2.50751 -0.474809,0.643709 -1.13151,1.04411 -1.84845,1.04411 -8.58672,0 -17.1746,0 -25.7625,0 -0.7193,0 -1.37364,-0.400399 -1.84845,-1.04411 -0.474809,-0.643709 -0.770088,-1.53073 -0.770088,-2.50751 0,-4.86738 0,-9.73595 0,-14.6045 0,-0.975603 0.295279,-1.8638 0.770088,-2.50751 0.474809,-0.64489 1.12915,-1.04529 1.84845,-1.04529zm25.7625 1.14332c-8.58672,0 -17.1746,0 -25.7625,0 -0.487801,0 -0.934263,0.272838 -1.25553,0.707489 -0.320083,0.434651 -0.520873,1.03938 -0.520873,1.70199 0,4.86856 0,9.73713 0,14.6045 0,0.662607 0.20079,1.26852 0.520873,1.70317 0.321264,0.43347 0.767726,0.706308 1.25553,0.706308 8.5879,0 17.1758,0 25.7625,0 0.487801,0 0.933082,-0.272838 1.25435,-0.706308 0.320083,-0.434651 0.520873,-1.04056 0.520873,-1.70317 0,-4.86738 0,-9.73595 0,-14.6045 0,-0.662607 -0.20079,-1.26734 -0.520873,-1.70199 -0.321264,-0.434651 -0.766545,-0.707489 -1.25435,-0.707489z" />
   <path
   id="_290869584"
   class="fil46"
   d="M6.16307 13.8344c8.46625,0 16.9325,0 25.3987,0 0.707489,0 1.35356,0.393312 1.82246,1.02639 0.467722,0.63426 0.758277,1.50711 0.758277,2.46617 0,4.78589 0,9.57295 0,14.3588 0,0.960248 -0.290555,1.83309 -0.758277,2.46499 -0.468903,0.633079 -1.11497,1.02639 -1.82246,1.02639 -8.46625,0 -16.9325,0 -25.3987,0 -0.709851,0 -1.35474,-0.393312 -1.82364,-1.02639 -0.467722,-0.631898 -0.758277,-1.50474 -0.758277,-2.46499 0,-4.78589 0,-9.57295 0,-14.3588 0,-0.959067 0.290555,-1.83191 0.758277,-2.46617 0.468903,-0.633079 1.11379,-1.02639 1.82364,-1.02639zm25.3987 1.12442c-8.46625,0 -16.9325,0 -25.3987,0 -0.481896,0 -0.921271,0.266932 -1.23781,0.694497 -0.316539,0.427564 -0.513786,1.02167 -0.513786,1.67364 0,4.78589 0,9.57295 0,14.3588 0,0.651977 0.197247,1.24726 0.513786,1.67482 0.316539,0.426383 0.755915,0.693316 1.23781,0.693316 8.46625,0 16.9325,0 25.3987,0 0.480715,0 0.92009,-0.266932 1.23663,-0.693316 0.315358,-0.427564 0.513786,-1.02285 0.513786,-1.67482 0,-4.78589 0,-9.57295 0,-14.3588 0,-0.651977 -0.198428,-1.24608 -0.513786,-1.67364 -0.316539,-0.427564 -0.755915,-0.694497 -1.23663,-0.694497z" />
   <path
   id="_290871744"
   class="fil47"
   d="M6.34378 14.0175c8.34459,0 16.6904,0 25.035,0 0.696859,0 1.33466,0.386225 1.79648,1.00867 0.460636,0.622449 0.747647,1.48112 0.747647,2.42365 0,4.70439 0,9.40878 0,14.1132 0,0.943712 -0.287011,1.80238 -0.747647,2.42247 -0.461817,0.622449 -1.09962,1.00867 -1.79648,1.00867 -8.34459,0 -16.6904,0 -25.035,0 -0.700402,0 -1.33584,-0.386225 -1.79766,-1.00867 -0.461817,-0.620086 -0.747647,-1.47876 -0.747647,-2.42247 0,-4.70439 0,-9.40878 0,-14.1132 0,-0.942531 0.28583,-1.8012 0.747647,-2.42365 0.461817,-0.622449 1.09726,-1.00867 1.79766,-1.00867zm25.035 1.10434c-8.34459,0 -16.6904,0 -25.035,0 -0.474809,0 -0.908279,0.262208 -1.22009,0.682686 -0.311815,0.420478 -0.506699,1.00513 -0.506699,1.6453 0,4.70439 0,9.40878 0,14.1132 0,0.640165 0.194884,1.226 0.506699,1.64648 0.311815,0.419296 0.745285,0.681504 1.22009,0.681504 8.34459,0 16.6904,0 25.035,0 0.473628,0 0.907098,-0.262208 1.21891,-0.681504 0.310634,-0.420478 0.506699,-1.00631 0.506699,-1.64648 0,-4.70439 0,-9.40878 0,-14.1132 0,-0.640165 -0.196065,-1.22482 -0.506699,-1.6453 -0.311815,-0.420478 -0.745285,-0.682686 -1.21891,-0.682686z" />
   <path
   id="_290893320"
   class="fil48"
   d="M6.52331 14.1994c8.2253,0 16.4482,0 24.6712,0 0.68741,0 1.31576,0.38032 1.77049,0.992138 0.45473,0.611819 0.737017,1.45395 0.737017,2.38113 0,4.62289 0,9.24578 0,13.8675 0,0.928358 -0.282287,1.77049 -0.737017,2.38113 -0.45473,0.611819 -1.08308,0.990957 -1.77049,0.990957 -8.22294,0 -16.4459,0 -24.6712,0 -0.688591,0 -1.31576,-0.379139 -1.77049,-0.990957 -0.45473,-0.610637 -0.738198,-1.45277 -0.738198,-2.38113 0,-4.62171 0,-9.2446 0,-13.8675 0,-0.927177 0.283468,-1.76931 0.738198,-2.38113 0.45473,-0.611819 1.0819,-0.992138 1.77049,-0.992138zm24.6712 1.08545c-8.22294,0 -16.4459,0 -24.6712,0 -0.467722,0 -0.895287,0.258665 -1.20238,0.672056 -0.30709,0.41221 -0.498431,0.986233 -0.498431,1.61577 0,4.62289 0,9.24578 0,13.8675 0,0.629535 0.191341,1.20356 0.498431,1.61695 0.30709,0.413391 0.734655,0.670874 1.20238,0.670874 8.2253,0 16.4482,0 24.6712,0 0.468903,0 0.894105,-0.257483 1.2012,-0.670874 0.308272,-0.413391 0.499612,-0.987414 0.499612,-1.61695 0,-4.62171 0,-9.2446 0,-13.8675 0,-0.629535 -0.191341,-1.20356 -0.499612,-1.61577 -0.30709,-0.413391 -0.732292,-0.672056 -1.2012,-0.672056z" />
   <path
   id="_290887320"
   class="fil49"
   d="M6.70402 14.3825c8.10364,0 16.2061,0 24.3074,0 0.677961,0 1.29687,0.373233 1.74451,0.974421 0.447643,0.600007 0.726387,1.42797 0.726387,2.33861 0,4.54139 0,9.08161 0,13.6218 0,0.911822 -0.278744,1.73979 -0.726387,2.33861 -0.447643,0.601189 -1.06655,0.97324 -1.74451,0.97324 -8.10128,0 -16.2037,0 -24.3074,0 -0.679142,0 -1.29687,-0.372052 -1.74451,-0.97324 -0.448824,-0.598826 -0.727568,-1.42679 -0.727568,-2.33861 0,-4.54021 0,-9.08043 0,-13.6218 0,-0.910641 0.278744,-1.7386 0.727568,-2.33861 0.447643,-0.601189 1.06537,-0.974421 1.74451,-0.974421zm24.3074 1.06537c-8.10128,0 -16.2037,0 -24.3074,0 -0.460636,0 -0.882294,0.25394 -1.18466,0.660244 -0.302366,0.405123 -0.491345,0.969697 -0.491345,1.58742 0,4.54139 0,9.08161 0,13.6218 0,0.617724 0.188979,1.1823 0.491345,1.5886 0.302366,0.405123 0.724025,0.660244 1.18466,0.660244 8.10364,0 16.2061,0 24.3074,0 0.461817,0 0.881113,-0.255121 1.18348,-0.660244 0.303547,-0.406304 0.492526,-0.970878 0.492526,-1.5886 0,-4.54021 0,-9.08043 0,-13.6218 0,-0.617724 -0.188979,-1.1823 -0.492526,-1.58742 -0.302366,-0.406304 -0.721662,-0.660244 -1.18348,-0.660244z" />
   <path
   id="_290890872"
   class="fil50"
   d="M6.88473 14.5655c7.98199,0 15.9628,0 23.9436,0 0.668512,0 1.27679,0.366146 1.71853,0.955524 0.440557,0.590558 0.715757,1.40317 0.715757,2.29727 0,4.45872 0,8.91743 0,13.3761 0,0.895287 -0.2752,1.7079 -0.715757,2.29727 -0.441738,0.589377 -1.05001,0.954342 -1.71853,0.954342 -7.98081,0 -15.9616,0 -23.9436,0 -0.669693,0 -1.27797,-0.364965 -1.71971,-0.954342 -0.441738,-0.589377 -0.715757,-1.40199 -0.715757,-2.29727 0,-4.45872 0,-8.91743 0,-13.3761 0,-0.894105 0.274019,-1.70671 0.715757,-2.29727 0.441738,-0.589377 1.05001,-0.955524 1.71971,-0.955524zm23.9436 1.04647c-7.98081,0 -15.9616,0 -23.9436,0 -0.45473,0 -0.869302,0.248035 -1.16694,0.647252 -0.298823,0.398036 -0.484258,0.95198 -0.484258,1.55907 0,4.45872 0,8.91743 0,13.3761 0,0.607094 0.185435,1.16104 0.484258,1.56026 0.297641,0.398036 0.712213,0.647252 1.16694,0.647252 7.98199,0 15.9628,0 23.9436,0 0.45473,0 0.869302,-0.249216 1.16576,-0.647252 0.298823,-0.399218 0.485439,-0.953161 0.485439,-1.56026 0,-4.45872 0,-8.91743 0,-13.3761 0,-0.607094 -0.186616,-1.16104 -0.485439,-1.55907 -0.29646,-0.399218 -0.711032,-0.647252 -1.16576,-0.647252z" />
   <path
   id="_290867448"
   class="fil51"
   d="M7.06426 14.7474c7.86151,0 15.7218,0 23.581,0 0.657882,0 1.25789,0.35906 1.69254,0.938988 0.434651,0.578747 0.703946,1.37718 0.703946,2.25475 0,4.37722 0,8.75444 0,13.1305 0,0.878751 -0.269295,1.67719 -0.703946,2.25475 -0.434651,0.578747 -1.03466,0.937807 -1.69254,0.937807 -7.85915,0 -15.7195,0 -23.581,0 -0.659063,0 -1.25789,-0.35906 -1.69254,-0.937807 -0.434651,-0.577566 -0.705127,-1.376 -0.705127,-2.25475 0,-4.37604 0,-8.75326 0,-13.1305 0,-0.87757 0.270476,-1.676 0.705127,-2.25475 0.434651,-0.579928 1.03348,-0.938988 1.69254,-0.938988zm23.581 1.02757c-7.85915,0 -15.7195,0 -23.581,0 -0.446462,0 -0.855129,0.244491 -1.14923,0.635441 -0.292917,0.39095 -0.477171,0.935445 -0.477171,1.53073 0,4.37722 0,8.75444 0,13.1305 0,0.595283 0.184254,1.13978 0.477171,1.53191 0.294098,0.389769 0.702765,0.635441 1.14923,0.635441 7.86151,0 15.7218,0 23.581,0 0.447643,0 0.85631,-0.245672 1.14805,-0.635441 0.294098,-0.392131 0.477171,-0.936626 0.477171,-1.53191 0,-4.37604 0,-8.75326 0,-13.1305 0,-0.595283 -0.183073,-1.13978 -0.477171,-1.53073 -0.291736,-0.39095 -0.700402,-0.635441 -1.14805,-0.635441z" />
   <path
   id="_290873760"
   class="fil52"
   d="M7.24497 14.9305c7.73986,0 15.4785,0 23.2172,0 0.647252,0 1.23899,0.351973 1.66537,0.921271 0.428745,0.568117 0.694497,1.3512 0.694497,2.21223 0,4.29572 0,8.59026 0,12.8848 0,0.862215 -0.265751,1.6453 -0.694497,2.21341 -0.426383,0.566936 -1.01812,0.918909 -1.66537,0.918909 -7.73868,0 -15.4774,0 -23.2172,0 -0.648433,0 -1.23899,-0.351973 -1.66656,-0.918909 -0.428745,-0.568117 -0.694497,-1.3512 -0.694497,-2.21341 0,-4.29454 0,-8.58908 0,-12.8848 0,-0.861034 0.265751,-1.64411 0.694497,-2.21223 0.427564,-0.569298 1.01812,-0.921271 1.66656,-0.921271zm23.2172 1.00749c-7.73868,0 -15.4774,0 -23.2172,0 -0.440557,0 -0.843317,0.239767 -1.13151,0.624811 -0.289374,0.382682 -0.470085,0.916547 -0.470085,1.5012 0,4.29572 0,8.59026 0,12.8848 0,0.584653 0.180711,1.11852 0.470085,1.50238 0.288193,0.383863 0.690953,0.624811 1.13151,0.624811 7.73986,0 15.4785,0 23.2172,0 0.440557,0 0.842136,-0.240948 1.13151,-0.624811 0.288193,-0.383863 0.468903,-0.917728 0.468903,-1.50238 0,-4.29454 0,-8.58908 0,-12.8848 0,-0.584653 -0.180711,-1.11852 -0.468903,-1.5012 -0.289374,-0.385044 -0.690953,-0.624811 -1.13151,-0.624811z" />
   <path
   id="_290872872"
   class="fil53"
   d="M7.4245 15.1124c7.61939,0 15.2376,0 22.8546,0 0.637803,0 1.22009,0.346067 1.63939,0.903554 0.421659,0.557487 0.682686,1.32639 0.682686,2.17089 0,4.21304 0,8.42727 0,12.6391 0,0.84568 -0.261027,1.61459 -0.682686,2.17089 -0.419296,0.557487 -1.00159,0.902373 -1.63939,0.902373 -7.61702,0 -15.2352,0 -22.8546,0 -0.637803,0 -1.21891,-0.344886 -1.64057,-0.902373 -0.420478,-0.556306 -0.682686,-1.32521 -0.682686,-2.17089 0,-4.21186 0,-8.42609 0,-12.6391 0,-0.844499 0.262208,-1.61341 0.682686,-2.17089 0.421659,-0.557487 1.00277,-0.903554 1.64057,-0.903554zm22.8546 0.989776c-7.61702,0 -15.2352,0 -22.8546,0 -0.432289,0 -0.829144,0.235042 -1.11379,0.611819 -0.283468,0.375595 -0.461817,0.900011 -0.461817,1.47285 0,4.21304 0,8.42727 0,12.6391 0,0.572842 0.178349,1.09726 0.461817,1.47403 0.284649,0.375595 0.681504,0.611819 1.11379,0.611819 7.61939,0 15.2376,0 22.8546,0 0.43347,0 0.829144,-0.236223 1.11379,-0.611819 0.284649,-0.376776 0.460636,-0.901192 0.460636,-1.47403 0,-4.21186 0,-8.42609 0,-12.6391 0,-0.572842 -0.175986,-1.09726 -0.460636,-1.47285 -0.284649,-0.376776 -0.680323,-0.611819 -1.11379,-0.611819z" />
  </g>
  <path
   class="fil54"
   d="M7.60403 15.2955l22.4908 0c0.627173,0 1.20001,0.338981 1.61459,0.885838 0.414572,0.546857 0.672056,1.30041 0.672056,2.12837l0 12.3935c0,0.829144 -0.257483,1.5827 -0.672056,2.12837 -0.414572,0.546857 -0.987414,0.885838 -1.61459,0.885838l-22.4908 0c-0.628354,0 -1.20001,-0.338981 -1.61459,-0.885838 -0.414572,-0.545676 -0.672056,-1.29923 -0.672056,-2.12837l0 -12.3935c0,-0.827963 0.257483,-1.58152 0.672056,-2.12837 0.414572,-0.546857 0.986233,-0.885838 1.61459,-0.885838zm22.4908 0.969697l-22.4908 0c-0.426383,0 -0.816152,0.230318 -1.09608,0.600007 -0.279925,0.368508 -0.45473,0.882294 -0.45473,1.44451l0 12.3935c0,0.562212 0.174805,1.076 0.45473,1.44569 0.279925,0.368508 0.669693,0.600007 1.09608,0.600007l22.4908 0c0.426383,0 0.816152,-0.231499 1.09608,-0.600007 0.279925,-0.36969 0.45473,-0.883475 0.45473,-1.44569l0 -12.3935c0,-0.562212 -0.174805,-1.076 -0.45473,-1.44451 -0.279925,-0.36969 -0.669693,-0.600007 -1.09608,-0.600007z"
   id="path5841" />
  <path
   class="fil18"
   d="M5.67054 13.0088l26.6306 -0.0153545 0.00354335 0c0.999225,0.0070867 1.91459,0.420478 2.57247,1.07836 0.65552,0.65552 1.06182,1.56144 1.05828,2.55476l0.0555125 16.714 0.00236223 0 0 0.040158 -0.00236223 0.00354335c-0.00944894,0.976784 -0.416934,1.87561 -1.06537,2.52523 -0.649614,0.650795 -1.54608,1.06182 -2.52877,1.06419l0 0.00236223 -0.040158 0 0 -0.00236223 -26.7889 0.114568 -0.00590558 0c-1.00041,-0.00944894 -1.91577,-0.421659 -2.57365,-1.07954 -0.65552,-0.65552 -1.06064,-1.56026 -1.05592,-2.55712l0.105119 -16.8085 -0.00236223 0 0 -0.0070867 0.00236223 -0.00354335c0.0070867,-0.993319 0.416934,-1.90514 1.07009,-2.56184 0.654339,-0.659063 1.56144,-1.06655 2.55712,-1.06182l0 -0.00236223 0.00590558 0 0 0.00236223zm26.6306 0.981508l-26.6306 0.0153545 0 0.00236223 -0.00590558 0 -0.00236223 -0.00236223c-0.718119,-0.00472447 -1.37482,0.291736 -1.84845,0.768907 -0.474809,0.477171 -0.77245,1.13978 -0.779537,1.86144l0.00236223 0 0 0.0070867 -0.00236223 0.00236223 -0.105119 16.8108c-0.00354335,0.715757 0.289374,1.3701 0.765364,1.84609 0.480715,0.480715 1.14568,0.781899 1.86853,0.788986l26.7913 -0.114568 0.00236223 -0.00236223 0.040158 0 0 0.00236223c0.705127,-0.00118112 1.3512,-0.300004 1.82246,-0.771269 0.470085,-0.471266 0.767726,-1.12206 0.774813,-1.82483l-0.00236223 0 0 -0.040158 0.00236223 0 -0.0555125 -16.714 0 -0.00236223c0.00354335,-0.714576 -0.291736,-1.3701 -0.767726,-1.84609 -0.478352,-0.478352 -1.14568,-0.780718 -1.86971,-0.787805z"
   id="path5843" />
  <path
   class="fil59"
   d="M5.71188 37.9658l37.7201 0.0803159c0.999225,0.00118112 1.90987,0.41221 2.56657,1.06891 0.657882,0.657882 1.06891,1.56734 1.06891,2.5642l0 16.7104 0 0.00826782 -0.00236223 0c-0.00236223,0.992138 -0.413391,1.9016 -1.06891,2.55712l0 -0.00118112c-0.65552,0.657882 -1.56498,1.07009 -2.55594,1.07009l-0.00826782 0 0 -0.00236223 -37.7201 -0.0803159c-0.996863,-0.00236223 -1.90868,-0.41221 -2.56657,-1.07009 -0.657882,-0.656701 -1.06891,-1.56616 -1.06891,-2.56184l0 -16.7104 0 -0.0070867 0.00236223 0c0.00118112,-0.996863 0.411029,-1.90632 1.06655,-2.56184 0.65552,-0.65552 1.5638,-1.06537 2.56066,-1.06419l0 -0.00236223 0.00590558 0 0 0.00236223zm37.7201 1.07718l-37.7201 -0.0803159 0 0.00236223 -0.00590558 0 0 -0.00236223c-0.7193,0 -1.37836,0.297641 -1.85435,0.773632 -0.47599,0.47599 -0.775994,1.13623 -0.775994,1.85553l0.00236223 0 0 0.0070867 0 16.7104c0,0.722844 0.297641,1.38191 0.77245,1.85553l0.00118112 0c0.478352,0.478352 1.14096,0.778356 1.86026,0.779537l37.7201 0.0803159 0 -0.00236223 0.00826782 0c0.718119,0 1.376,-0.297641 1.84963,-0.77245l0 -0.00118112c0.477171,-0.477171 0.777175,-1.13623 0.778356,-1.85081l-0.00236223 0 0 -0.00826782 0 -16.7104c0,-0.722844 -0.297641,-1.38191 -0.773632,-1.8579 -0.478352,-0.478352 -1.1386,-0.778356 -1.86026,-0.778356z"
   id="path5845" />
  <path
   class="fil40"
   d="M8.92688 16.8498l19.8758 -0.0460636 0.00354335 0c0.798435,0.00826782 1.52482,0.368508 2.04451,0.936626 0.513786,0.561031 0.832687,1.32994 0.832687,2.16617l-0.00236223 0 -0.00236223 10.1316 0.00236223 0 0 0.0330713 -0.00236223 0.00590558c-0.00944894,0.82442 -0.32835,1.5886 -0.831506,2.14018l-0.00118112 -0.00118112c-0.516148,0.568117 -1.23545,0.925996 -2.02089,0.924815l0 0.00236223 -0.0248035 0 -0.00354335 -0.00236223 -19.7695 -0.184254c-0.791348,-0.00826782 -1.51774,-0.364965 -2.03979,-0.934263l-0.00236223 -0.00118112c-0.506699,-0.555125 -0.829144,-1.31931 -0.83505,-2.16263l-0.102757 -9.90367 -0.00236223 -0.00354335 0 -0.0531503 0.00236223 -0.00354335c0.00826782,-0.82442 0.324807,-1.58033 0.827963,-2.12837 0.512605,-0.558668 1.226,-0.911822 2.0079,-0.916547l0.00236223 -0.00236223 0.0413391 0 0 0.00236223zm19.8758 0.950799l-19.8758 0.0460636 0 0.00236223 -0.0413391 0 0 -0.00236223c-0.487801,0.00472447 -0.942531,0.233861 -1.27561,0.595283 -0.342524,0.373233 -0.559849,0.891743 -0.565755,1.45632l0.00236223 0 0 0.0531503 -0.00236223 0 0.102757 9.90012c0.00472447,0.583472 0.227956,1.11261 0.577566,1.49648l-0.00118112 0.00118112c0.342524,0.372052 0.810246,0.605913 1.31104,0.610637l19.766 0.184254 0 -0.00236223 0.0248035 0 0 0.00236223c0.492526,0 0.949618,-0.230318 1.28269,-0.597645l0 -0.00236223c0.346067,-0.379139 0.566936,-0.905917 0.574023,-1.47285l-0.00236223 0 0 -0.0330713 0.00236223 0 0.00236223 -10.1316 -0.00236223 0c0,-0.582291 -0.217326,-1.11143 -0.565755,-1.49293 -0.338981,-0.370871 -0.806703,-0.607094 -1.3134,-0.613z"
   id="path5847" />
 </g>
</svg>