<?xml version="1.0" encoding="UTF-8" standalone="no"?>
<!-- Creator: CorelDRAW -->

<svg
   xmlns:dc="http://purl.org/dc/elements/1.1/"
   xmlns:cc="http://creativecommons.org/ns#"
   xmlns:rdf="http://www.w3.org/1999/02/22-rdf-syntax-ns#"
   xmlns:svg="http://www.w3.org/2000/svg"
   xmlns="http://www.w3.org/2000/svg"
   xmlns:xlink="http://www.w3.org/1999/xlink"
   xmlns:sodipodi="http://sodipodi.sourceforge.net/DTD/sodipodi-0.dtd"
   xmlns:inkscape="http://www.inkscape.org/namespaces/inkscape"
   xml:space="preserve"
   width="16px"
   height="16px"
   style="shape-rendering:geometricPrecision; text-rendering:geometricPrecision; image-rendering:optimizeQuality; fill-rule:evenodd; clip-rule:evenodd"
   viewBox="0 0 16 16"
   id="svg2"
   version="1.1"
   inkscape:version="0.48.1 r9760"
   sodipodi:docname="camera-photo.svg"><metadata
   id="metadata176"><rdf:RDF><cc:Work
       rdf:about=""><dc:format>image/svg+xml</dc:format><dc:type
         rdf:resource="http://purl.org/dc/dcmitype/StillImage" /><dc:title></dc:title></cc:Work></rdf:RDF></metadata><sodipodi:namedview
   pagecolor="#ffffff"
   bordercolor="#666666"
   borderopacity="1"
   objecttolerance="10"
   gridtolerance="10"
   guidetolerance="10"
   inkscape:pageopacity="0"
   inkscape:pageshadow="2"
   inkscape:window-width="646"
   inkscape:window-height="480"
   id="namedview174"
   showgrid="false"
   inkscape:zoom="16.625"
   inkscape:cx="8"
   inkscape:cy="8"
   inkscape:window-x="0"
   inkscape:window-y="24"
   inkscape:window-maximized="0"
   inkscape:current-layer="svg2" />
 <defs
   id="defs4">
  <style
   type="text/css"
   id="style6">
   
    .fil15 {fill:#333333}
    .fil12 {fill:#4C4C4C}
    .fil36 {fill:#76C8CC}
    .fil13 {fill:#7F7F7F}
    .fil11 {fill:white}
    .fil47 {fill:#C2FFFF}
    .fil0 {fill:black;fill-opacity:0.000000}
    .fil20 {fill:#6EE6C6;fill-opacity:0.000000}
    .fil37 {fill:#F8EBB3;fill-opacity:0.000000}
    .fil48 {fill:#FFF9A3;fill-opacity:0.000000}
    .fil1 {fill:black;fill-opacity:0.003922}
    .fil2 {fill:black;fill-opacity:0.007843}
    .fil3 {fill:black;fill-opacity:0.015686}
    .fil21 {fill:#76E8C0;fill-opacity:0.015686}
    .fil4 {fill:black;fill-opacity:0.019608}
    .fil5 {fill:black;fill-opacity:0.023529}
    .fil49 {fill:#FFF9A3;fill-opacity:0.023529}
    .fil6 {fill:black;fill-opacity:0.027451}
    .fil7 {fill:black;fill-opacity:0.031373}
    .fil22 {fill:#7EEAB9;fill-opacity:0.035294}
    .fil8 {fill:black;fill-opacity:0.035294}
    .fil70 {fill:#5A2B89;fill-opacity:0.039216}
    .fil9 {fill:black;fill-opacity:0.043137}
    .fil38 {fill:#F8EBB3;fill-opacity:0.047059}
    .fil50 {fill:#FFF9A3;fill-opacity:0.047059}
    .fil23 {fill:#86ECB3;fill-opacity:0.050980}
    .fil24 {fill:#8EEEAC;fill-opacity:0.066667}
    .fil51 {fill:#FFF9A3;fill-opacity:0.074510}
    .fil69 {fill:#562884;fill-opacity:0.078431}
    .fil25 {fill:#96F0A5;fill-opacity:0.086275}
    .fil39 {fill:#F8EBB3;fill-opacity:0.098039}
    .fil52 {fill:#FFF9A3;fill-opacity:0.098039}
    .fil26 {fill:#9EF29F;fill-opacity:0.101961}
    .fil68 {fill:#52257F;fill-opacity:0.113725}
    .fil27 {fill:#A5F498;fill-opacity:0.117647}
    .fil53 {fill:#FFF9A3;fill-opacity:0.121569}
    .fil28 {fill:#ADF692;fill-opacity:0.137255}
    .fil40 {fill:#F8EBB3;fill-opacity:0.145098}
    .fil54 {fill:#FFF9A3;fill-opacity:0.145098}
    .fil29 {fill:#B5F88B;fill-opacity:0.152941}
    .fil67 {fill:#4D2179;fill-opacity:0.152941}
    .fil30 {fill:#BDFA84;fill-opacity:0.168627}
    .fil55 {fill:#FFF9A3;fill-opacity:0.172549}
    .fil35 {fill:#BBE6FF;fill-opacity:0.180392}
    .fil31 {fill:#C5FC7E;fill-opacity:0.184314}
    .fil66 {fill:#491E74;fill-opacity:0.192157}
    .fil41 {fill:#F8EBB3;fill-opacity:0.196078}
    .fil56 {fill:#FFF9A3;fill-opacity:0.196078}
    .fil32 {fill:#CDFE77;fill-opacity:0.203922}
    .fil33 {fill:#D4FF70;fill-opacity:0.219608}
    .fil57 {fill:#FFF9A3;fill-opacity:0.219608}
    .fil65 {fill:#451B6F;fill-opacity:0.231373}
    .fil42 {fill:#F8EBB3;fill-opacity:0.243137}
    .fil64 {fill:#401869;fill-opacity:0.270588}
    .fil43 {fill:#F8EBB3;fill-opacity:0.294118}
    .fil63 {fill:#3C1564;fill-opacity:0.305882}
    .fil44 {fill:#F8EBB3;fill-opacity:0.341176}
    .fil62 {fill:#38125F;fill-opacity:0.345098}
    .fil61 {fill:#330E59;fill-opacity:0.384314}
    .fil45 {fill:#F8EBB3;fill-opacity:0.392157}
    .fil60 {fill:#2F0B54;fill-opacity:0.423529}
    .fil46 {fill:#F8EBB3;fill-opacity:0.439216}
    .fil72 {fill:white;fill-opacity:0.439216}
    .fil59 {fill:#2B084F;fill-opacity:0.462745}
    .fil58 {fill:#28064A;fill-opacity:0.501961}
    .fil18 {fill:black;fill-opacity:0.760784}
    .fil71 {fill:url(#id2)}
    .fil17 {fill:url(#id3)}
    .fil16 {fill:url(#id4)}
    .fil10 {fill:url(#id5)}
    .fil73 {fill:url(#id6);fill-rule:nonzero}
    .fil14 {fill:url(#id7);fill-rule:nonzero}
    .fil19 {fill:url(#id8);fill-opacity:0.439216}
    .fil34 {fill:url(#id9);fill-opacity:0.501961}
   
  </style>
   <mask
   id="id0">
  <linearGradient
   id="id1"
   gradientUnits="userSpaceOnUse"
   x1="9.77422"
   y1="9.13897"
   x2="9.10694"
   y2="8.21997">
   <stop
   offset="0"
   style="stop-opacity:1; stop-color:white"
   id="stop10" />
   <stop
   offset="1"
   style="stop-opacity:0; stop-color:white"
   id="stop12" />
  </linearGradient>
    <rect
   style="fill:url(#id1)"
   x="8.78407"
   y="8.02296"
   width="1.31302"
   height="1.31302"
   id="rect14" />
   </mask>
  <linearGradient
   id="id2"
   gradientUnits="userSpaceOnUse"
   x1="9.68918"
   y1="5.58486"
   x2="9.68918"
   y2="9.50691">
   <stop
   offset="0"
   style="stop-color:#FF99FF"
   id="stop17" />
   <stop
   offset="1"
   style="stop-color:#BBE6FF"
   id="stop19" />
  </linearGradient>
  <linearGradient
   id="id3"
   gradientUnits="userSpaceOnUse"
   x1="9.42414"
   y1="5.16533"
   x2="9.72518"
   y2="13.3507">
   <stop
   offset="0"
   style="stop-color:#5C5A5A"
   id="stop22" />
   <stop
   offset="1"
   style="stop-color:#666666"
   id="stop24" />
  </linearGradient>
  <linearGradient
   id="id4"
   gradientUnits="userSpaceOnUse"
   xlink:href="#id3"
   x1="9.40373"
   y1="4.64829"
   x2="9.74531"
   y2="13.7323">
  </linearGradient>
  <linearGradient
   id="id5"
   gradientUnits="userSpaceOnUse"
   x1="8.30047"
   y1="12.7968"
   x2="7.37411"
   y2="4.1012">
   <stop
   offset="0"
   style="stop-color:#CCCCCC"
   id="stop28" />
   <stop
   offset="1"
   style="stop-color:#E5E5E5"
   id="stop30" />
  </linearGradient>
  <linearGradient
   id="id6"
   gradientUnits="userSpaceOnUse"
   x1="2.04635"
   y1="5.16477"
   x2="1.96924"
   y2="1.98767">
   <stop
   offset="0"
   style="stop-color:#929394"
   id="stop33" />
   <stop
   offset="1"
   style="stop-color:#ADADAD"
   id="stop35" />
  </linearGradient>
  <linearGradient
   id="id7"
   gradientUnits="userSpaceOnUse"
   x1="8.11679"
   y1="13.9605"
   x2="7.88435"
   y2="3.06456">
   <stop
   offset="0"
   style="stop-color:#808385"
   id="stop38" />
   <stop
   offset="1"
   style="stop-color:#ADADAD"
   id="stop40" />
  </linearGradient>
  <linearGradient
   id="id8"
   gradientUnits="userSpaceOnUse"
   x1="9.13075"
   y1="5.7694"
   x2="9.75097"
   y2="12.4059">
   <stop
   offset="0"
   style="stop-color:#A100A1"
   id="stop43" />
   <stop
   offset="1"
   style="stop-color:#2467D4"
   id="stop45" />
  </linearGradient>
  <linearGradient
   id="id9"
   gradientUnits="userSpaceOnUse"
   x1="9.61604"
   y1="7.63773"
   x2="9.7986"
   y2="10.6686">
   <stop
   offset="0"
   style="stop-color:#333333"
   id="stop48" />
   <stop
   offset="1"
   style="stop-color:#333333"
   id="stop50" />
  </linearGradient>
 </defs>
 <g
   id="Слой_x0020_1">
  <metadata
   id="CorelCorpID_0Corel-Layer" />
  <g
   id="_110306432">
   <path
   id="_110314352"
   class="fil0"
   d="M7.38119 13.8303c3.97052,-0.162426 6.24392,0.0649139 7.53398,0.46035l0 1.74984 -14.9353 0 0 -1.20899c1.00943,-0.438523 3.09517,-0.824888 7.40132,-1.0012z" />
   <g
   id="g56">
    <path
   id="_110299664"
   class="fil1"
   d="M7.3656 13.868c3.99461,-0.157608 6.27482,0.0915598 7.54957,0.504004l0 1.66849 -14.9353 0 0 -1.1676c0.996669,-0.441641 3.07647,-0.835093 7.38573,-1.00489z" />
    <path
   id="_110320904"
   class="fil2"
   d="M7.35001 13.9063c4.00992,-0.151655 6.30317,0.119906 7.56516,0.547091l0 1.58713 -14.9353 0 0 -1.12962c0.989583,-0.442208 3.07221,-0.841896 7.37014,-1.00461z" />
    <path
   id="_110316128"
   class="fil3"
   d="M7.33385 13.9446c4.01502,-0.144852 6.32981,0.14882 7.58132,0.58791l0 1.50804 -14.9353 0 0 -1.0973c0.987882,-0.440507 3.08469,-0.844731 7.35398,-0.998654z" />
    <path
   id="_110312792"
   class="fil4"
   d="M7.31855 13.9826c4.00595,-0.136631 6.35362,0.178017 7.59663,0.625328l0 1.3887c-1.52959,0.111402 -4.35944,-0.0411027 -7.33981,0.0416696l-0.0830558 0.00226773 -7.37694 0 -0.135497 -0.0164411 0 -1.05421c0.991,-0.436539 3.11502,-0.843314 7.33867,-0.987315z" />
    <path
   id="_110298440"
   class="fil5"
   d="M7.30296 14.0208c3.98214,-0.127277 6.37687,0.206647 7.61222,0.65821l0 1.21522c-1.49104,0.115654 -4.35859,-0.0269293 -7.36645,0.0481894 -3.24314,0.0810715 -6.2374,0.147686 -7.56885,-0.0218269l0 -0.930622c0.998937,-0.429169 3.16632,-0.836227 7.32308,-0.969173z" />
    <path
   id="_110314448"
   class="fil6"
   d="M7.28765 14.0591c3.94161,-0.116505 6.40011,0.234427 7.62752,0.685423l0 1.04769c-1.44738,0.118206 -4.35547,-0.0130395 -7.39281,0.0541422 -3.22954,0.0717171 -6.23684,0.128977 -7.54248,-0.0286301l0 -0.813833c1.01028,-0.419247 3.23691,-0.824605 7.30777,-0.944795z" />
    <path
   id="_110297168"
   class="fil7"
   d="M7.27177 14.0971c3.88463,-0.104316 6.42704,0.261073 7.6434,0.706399l0 0.886684c-1.39636,0.119056 -4.3498,0.00113387 -7.41974,0.0603784 -3.21565,0.0620792 -6.23684,0.109418 -7.51556,-0.0345829l0 -0.705265c1.02417,-0.406491 3.32875,-0.80703 7.2919,-0.913613z" />
    <path
   id="_110315984"
   class="fil8"
   d="M7.25618 14.1354c3.80951,-0.0907094 6.45907,0.286018 7.65899,0.720006l0 0.734179c-1.3374,0.117639 -4.34073,0.0144568 -7.44639,0.0649139 -3.20204,0.0521579 -6.2391,0.089859 -7.48891,-0.0394019l0 -0.604351c1.03919,-0.391184 3.44015,-0.784069 7.27631,-0.875345z" />
    <path
   id="_110307344"
   class="fil9"
   d="M7.24031 14.1736c3.71653,-0.0759691 6.50074,0.308412 7.67486,0.725675l0 0.590745c-1.26823,0.11282 -4.3274,0.0269293 -7.47304,0.068599 -3.18957,0.0422366 -6.24336,0.0694494 -7.46226,-0.0436539l0 -0.51024c1.05365,-0.373042 3.57055,-0.756006 7.26044,-0.831125z" />
   </g>
  </g>
  <path
   class="fil10"
   d="M0.594713 2.77571l14.4852 0c0.111969,0 0.203529,0.0918432 0.203529,0.203529l0 10.9396c0,0.111686 -0.0918432,0.203529 -0.203529,0.203529l-14.4852 0c-0.111686,0 -0.203529,-0.0915598 -0.203529,-0.203529l0 -10.9396c0,-0.111969 0.0915598,-0.203529 0.203529,-0.203529z"
   id="path67" />
  <path
   class="fil11"
   d="M0.594713 12.6939l14.4852 0c0.111969,0 0.203529,0.0116221 0.203529,0.025512l0 1.37737c0,0.0138899 -0.0918432,0.025512 -0.203529,0.025512l-14.4852 0c-0.111686,0 -0.203529,-0.0116221 -0.203529,-0.025512l0 -1.37737c0,-0.0138899 0.0915598,-0.025512 0.203529,-0.025512z"
   id="path69" />
  <rect
   class="fil11"
   x="0.821604"
   y="4.08311"
   width="14.3396"
   height="0.978045"
   id="rect71" />
  <polygon
   class="fil11"
   points="13.9406,4.44901 13.9406,14.5713 12.8014,14.5713 12.8014,4.44901 "
   id="polygon73" />
  <polygon
   class="fil11"
   points="3.03593,4.44901 3.03593,14.5713 1.89668,14.5713 1.89668,4.44901 "
   id="polygon75" />
  <rect
   class="fil12"
   x="0.635533"
   y="6.53051"
   width="14.8922"
   height="6.55092"
   id="rect77" />
  <polygon
   class="fil13"
   points="1.89668,6.53051 3.03593,6.53051 3.03593,13.0814 1.89668,13.0814 "
   id="polygon79" />
  <path
   class="fil14"
   d="M1.40344 2.03699l13.2447 0c0.375594,0 0.666997,0.153639 0.913897,0.400539l0 0.00198427c0.2469,0.247467 0.400539,0.58791 0.400539,0.962653l0.051024 10.221c0,0.374743 -0.153639,0.715187 -0.400539,0.962653l0 0.00198427c-0.2469,0.2469 -0.589044,0.400539 -0.964638,0.400539l-13.2447 0c-0.375594,0 -0.717738,-0.153639 -0.964638,-0.400539l0 -0.00198427c-0.2469,-0.247467 -0.400539,-0.58791 -0.400539,-0.962653l-0.051024 -10.221c0,-0.374743 0.153639,-0.715187 0.400539,-0.962653l0 -0.00198427c0.2469,-0.2469 0.639785,-0.400539 1.01538,-0.400539zm13.194 1.00007l-13.2447 0c-0.0997803,0 -0.191624,0.0413862 -0.257671,0.107434l-0.00113387 -0.0008504c-0.0654808,0.0663312 -0.1063,0.157891 -0.1063,0.258522l0.051024 10.221c0,0.100631 0.0408192,0.19219 0.1063,0.258522l0.00113387 -0.0008504c0.0660478,0.0660478 0.157891,0.107434 0.257671,0.107434l13.2447 0c0.0997803,0 0.191624,-0.0413862 0.257671,-0.107434l0.00113387 0.0008504c0.0654808,-0.0663312 0.1063,-0.157891 0.1063,-0.258522l-0.051024 -10.221c0,-0.100631 -0.0408192,-0.19219 -0.1063,-0.258522l-0.00113387 0.0008504c-0.0660478,-0.0660478 -0.157891,-0.107434 -0.257671,-0.107434z"
   id="path81" />
  <ellipse
   class="fil15"
   cx="9.57461"
   cy="9.19025"
   rx="5.46177"
   ry="5.27183"
   id="ellipse83" />
  <ellipse
   class="fil16"
   cx="9.57461"
   cy="9.19025"
   rx="5.16707"
   ry="4.98738"
   id="ellipse85" />
  <ellipse
   class="fil17"
   cx="9.57462"
   cy="9.25805"
   rx="4.61008"
   ry="4.49558"
   id="ellipse87" />
  <path
   class="fil18"
   d="M9.55793 4.75629c2.42081,0 4.38381,1.95139 4.38381,4.35745 0,2.40607 -1.96301,4.35717 -4.38381,4.35717 -2.42052,0 -4.38353,-1.9511 -4.38353,-4.35717 0,-2.40607 1.96301,-4.35745 4.38353,-4.35745z"
   id="path89" />
  <path
   class="fil19"
   d="M9.50691 4.95868c2.29325,0 4.15307,1.84849 4.15307,4.12813 0,2.27936 -1.85983,4.12813 -4.15307,4.12813 -2.29325,0 -4.15307,-1.84877 -4.15307,-4.12813 0,-2.27964 1.85983,-4.12813 4.15307,-4.12813z"
   id="path91" />
  <path
   class="fil19"
   d="M9.50691 4.95868c2.29325,0 4.15307,1.84849 4.15307,4.12813 0,2.27936 -1.85983,4.12813 -4.15307,4.12813 -2.29325,0 -4.15307,-1.84877 -4.15307,-4.12813 0,-2.27964 1.85983,-4.12813 4.15307,-4.12813z"
   id="path93" />
  <g
   id="_307844032">
   <path
   id="_307870312"
   class="fil20"
   d="M9.62937 5.65148c2.30912,0 4.1817,1.83375 4.1817,4.09411 0,2.26065 -1.87258,4.09439 -4.1817,4.09439 -2.3094,0 -4.18199,-1.83375 -4.18199,-4.09439 0,-2.26036 1.87258,-4.09411 4.18199,-4.09411z" />
   <g
   id="g97">
    <path
   id="_307843480"
   class="fil21"
   d="M9.61775 6.03302c2.16767,0 3.92602,1.72178 3.92602,3.84466 0,2.12232 -1.75834,3.84438 -3.92602,3.84438 -2.16852,0 -3.92687,-1.72206 -3.92687,-3.84438 0,-2.12288 1.75834,-3.84466 3.92687,-3.84466z" />
    <path
   id="_307842280"
   class="fil22"
   d="M9.60499 6.41514c2.02707,0 3.6709,1.61009 3.6709,3.59464 0,1.98483 -1.64382,3.59493 -3.6709,3.59493 -2.02764,0 -3.67175,-1.61009 -3.67175,-3.59493 0,-1.98455 1.64411,-3.59464 3.67175,-3.59464z" />
    <path
   id="_307840864"
   class="fil23"
   d="M9.59337 6.79697c1.88619,0 3.41606,1.49812 3.41606,3.34519 0,1.8465 -1.52987,3.34491 -3.41606,3.34491 -1.88676,0 -3.41663,-1.49841 -3.41663,-3.34491 0,-1.84707 1.52987,-3.34519 3.41663,-3.34519z" />
    <path
   id="_307872352"
   class="fil24"
   d="M9.58061 7.1788c1.74502,0 3.16094,1.38644 3.16094,3.09546 0,1.70874 -1.41592,3.09489 -3.16094,3.09489 -1.74616,0 -3.16151,-1.38615 -3.16151,-3.09489 0,-1.70902 1.41535,-3.09546 3.16151,-3.09546z" />
    <path
   id="_307843360"
   class="fil25"
   d="M9.56842 7.56091c1.60414,0 2.90553,1.27447 2.90553,2.84544 0,1.57097 -1.3014,2.84516 -2.90553,2.84516 -1.60527,0 -2.90639,-1.27418 -2.90639,-2.84516 0,-1.57097 1.30111,-2.84544 2.90639,-2.84544z" />
    <path
   id="_307840528"
   class="fil26"
   d="M9.55567 7.94274c1.46326,0 2.65041,1.16278 2.65041,2.59599 0,1.43292 -1.18716,2.59542 -2.65041,2.59542 -1.46411,0 -2.65126,-1.1625 -2.65126,-2.59542 0,-1.43321 1.18716,-2.59599 2.65126,-2.59599z" />
    <path
   id="_307842352"
   class="fil27"
   d="M9.54376 8.32514c1.32237,0 2.39558,1.05053 2.39558,2.3454 0,1.29544 -1.07321,2.34597 -2.39558,2.34597 -1.32322,0 -2.39614,-1.05053 -2.39614,-2.34597 0,-1.29488 1.07292,-2.3454 2.39614,-2.3454z" />
    <path
   id="_307840264"
   class="fil28"
   d="M9.531 8.70725c1.18177,0 2.14046,0.938559 2.14046,2.09539 0,1.15768 -0.958685,2.09652 -2.14046,2.09652 -1.18234,0 -2.14102,-0.938842 -2.14102,-2.09652 0,-1.15683 0.958685,-2.09539 2.14102,-2.09539z" />
    <path
   id="_307869760"
   class="fil29"
   d="M9.51853 9.08908c1.04089,0 1.88534,0.826589 1.88534,1.84594 0,1.01935 -0.844448,1.8465 -1.88534,1.8465 -1.04117,0 -1.88562,-0.827156 -1.88562,-1.8465 0,-1.01935 0.844448,-1.84594 1.88562,-1.84594z" />
    <path
   id="_307840960"
   class="fil30"
   d="M9.50578 9.47091c0.900007,0 1.63022,0.715187 1.63022,1.5962 0,0.881865 -0.73021,1.59649 -1.63022,1.59649 -0.900574,0 -1.6305,-0.71462 -1.6305,-1.59649 0,-0.881015 0.729927,-1.5962 1.6305,-1.5962z" />
    <path
   id="_307841248"
   class="fil31"
   d="M9.49444 9.85302c0.758841,0 1.3751,0.602934 1.3751,1.34647 0,0.743533 -0.616257,1.34675 -1.3751,1.34675 -0.759974,0 -1.37566,-0.603217 -1.37566,-1.34675 0,-0.743533 0.61569,-1.34647 1.37566,-1.34647z" />
    <path
   id="_307872208"
   class="fil32"
   d="M9.48168 10.2349c0.617958,0 1.11998,0.491531 1.11998,1.09673 0,0.606052 -0.50202,1.09702 -1.11998,1.09702 -0.618808,0 -1.12054,-0.490964 -1.12054,-1.09702 0,-0.605202 0.501736,-1.09673 1.12054,-1.09673z" />
   </g>
   <path
   id="_307844296"
   class="fil33"
   d="M9.46892 10.6172c0.477642,0 0.865141,0.379279 0.865141,0.846999 0,0.46772 -0.387499,0.846999 -0.865141,0.846999 -0.477642,0 -0.865141,-0.379279 -0.865141,-0.846999 0,-0.46772 0.387499,-0.846999 0.865141,-0.846999z" />
  </g>
  <path
   class="fil34"
   d="M9.56275 7.48267c0.818652,0 1.48253,0.659911 1.48253,1.47374 0,0.81355 -0.663879,1.47346 -1.48253,1.47346 -0.818652,0 -1.48253,-0.659911 -1.48253,-1.47346 0,-0.813833 0.663879,-1.47374 1.48253,-1.47374z"
   id="path112" />
  <path
   class="fil35"
   d="M9.56275 8.11736c0.466019,0 0.844164,0.375877 0.844164,0.839062 0,0.463185 -0.378145,0.839062 -0.844164,0.839062 -0.466019,0 -0.844164,-0.375877 -0.844164,-0.839062 0,-0.463185 0.378145,-0.839062 0.844164,-0.839062z"
   id="path114" />
  <path
   class="fil36"
   style="mask:url(#id0)"
   d="M9.44058 8.27298c0.224506,0 0.406491,0.181986 0.406491,0.406491 0,0.224506 -0.181986,0.406491 -0.406491,0.406491 -0.224222,0 -0.406491,-0.181986 -0.406491,-0.406491 0,-0.224506 0.182269,-0.406491 0.406491,-0.406491z"
   id="path116"
   mask="url(#id0)" />
  <path
   class="fil37"
   d="M9.91567 11.1085c1.61378,0 2.92254,0.453547 2.92254,1.01283 0,0.55928 -1.30877,1.01283 -2.92254,1.01283 -1.61406,0 -2.92283,-0.453547 -2.92283,-1.01283 0,-0.55928 1.30877,-1.01283 2.92283,-1.01283z"
   id="path118" />
  <g
   id="_307844872">
   <path
   id="_307870720"
   class="fil38"
   d="M9.71441 10.3851c1.75778,0 3.18362,0.687124 3.18362,1.53412 0,0.846432 -1.42584,1.53356 -3.18362,1.53356 -1.75834,0 -3.18362,-0.687124 -3.18362,-1.53356 0,-0.846999 1.42527,-1.53412 3.18362,-1.53412z" />
   <path
   id="_307841992"
   class="fil39"
   d="M9.68861 10.5515c1.58798,0 2.87605,0.620225 2.87605,1.38559 0,0.765077 -1.28807,1.38559 -2.87605,1.38559 -1.58826,0 -2.87577,-0.620509 -2.87577,-1.38559 0,-0.76536 1.28751,-1.38559 2.87577,-1.38559z" />
   <path
   id="_307870648"
   class="fil40"
   d="M9.66338 10.7176c1.41818,0 2.56821,0.554461 2.56821,1.23762 0,0.683155 -1.15002,1.23733 -2.56821,1.23733 -1.41818,0 -2.56821,-0.554178 -2.56821,-1.23733 0,-0.683155 1.15002,-1.23762 2.56821,-1.23762z" />
   <path
   id="_307870624"
   class="fil41"
   d="M9.6373 10.884c1.24839,0 2.26093,0.48813 2.26093,1.08936 0,0.601517 -1.01254,1.08908 -2.26093,1.08908 -1.2481,0 -2.26036,-0.487563 -2.26036,-1.08908 0,-0.601233 1.01226,-1.08936 2.26036,-1.08936z" />
   <path
   id="_307870960"
   class="fil42"
   d="M9.61208 11.0507c1.07831,0 1.95309,0.420948 1.95309,0.940826 0,0.519311 -0.874779,0.940826 -1.95309,0.940826 -1.07831,0 -1.9528,-0.421515 -1.9528,-0.940826 0,-0.519878 0.874495,-0.940826 1.9528,-0.940826z" />
   <path
   id="_307843216"
   class="fil43"
   d="M9.586 11.2171c0.908795,0 1.64552,0.3549 1.64552,0.79229 0,0.43824 -0.73673,0.79314 -1.64552,0.79314 -0.908228,0 -1.64467,-0.3549 -1.64467,-0.79314 0,-0.437389 0.736447,-0.79229 1.64467,-0.79229z" />
   <path
   id="_307844560"
   class="fil44"
   d="M9.56077 11.3832c0.738714,0 1.33768,0.288853 1.33768,0.644604 0,0.355751 -0.598965,0.644604 -1.33768,0.644604 -0.738148,0 -1.33711,-0.288853 -1.33711,-0.644604 0,-0.355751 0.598965,-0.644604 1.33711,-0.644604z" />
   <path
   id="_307843336"
   class="fil45"
   d="M9.53497 11.5496c0.569201,0 1.03012,0.221955 1.03012,0.496067 0,0.274396 -0.460917,0.496634 -1.03012,0.496634 -0.568067,0 -1.02955,-0.222238 -1.02955,-0.496634 0,-0.274112 0.461484,-0.496067 1.02955,-0.496067z" />
  </g>
  <path
   class="fil46"
   d="M9.72348 12.0099c0.333924,0 0.604635,0.0938275 0.604635,0.209765 0,0.115654 -0.270711,0.209482 -0.604635,0.209482 -0.333924,0 -0.604635,-0.0938275 -0.604635,-0.209482 0,-0.115938 0.270711,-0.209765 0.604635,-0.209765z"
   id="path129" />
  <ellipse
   class="fil47"
   cx="9.36608"
   cy="11.7768"
   rx="1.20202"
   ry="1.09519"
   id="ellipse131" />
  <g
   id="_307872688">
   <path
   id="_307872280"
   class="fil48"
   d="M9.66622 4.44929c1.71214,0 3.10056,1.23818 3.10056,2.76465 0,1.52647 -1.38842,2.76465 -3.10056,2.76465 -1.71271,0 -3.10113,-1.23818 -3.10113,-2.76465 0,-1.52647 1.38842,-2.76465 3.10113,-2.76465z" />
   <g
   id="g135">
    <path
   id="_307840288"
   class="fil49"
   d="M9.64921 4.56778c1.60924,0 2.91404,1.16335 2.91404,2.59826 0,1.43491 -1.3048,2.59826 -2.91404,2.59826 -1.60924,0 -2.91432,-1.16335 -2.91432,-2.59826 0,-1.43491 1.30508,-2.59826 2.91432,-2.59826z" />
    <path
   id="_307871704"
   class="fil50"
   d="M9.63249 4.68599c1.50606,0 2.72752,1.08908 2.72752,2.43215 0,1.34307 -1.22146,2.43243 -2.72752,2.43243 -1.50663,0 -2.72808,-1.08936 -2.72808,-2.43243 0,-1.34307 1.22146,-2.43215 2.72808,-2.43215z" />
    <path
   id="_307871272"
   class="fil51"
   d="M9.61548 4.8042c1.40316,0 2.54128,1.01509 2.54128,2.26632 0,1.25122 -1.13812,2.26632 -2.54128,2.26632 -1.40373,0 -2.54185,-1.01509 -2.54185,-2.26632 0,-1.25122 1.13812,-2.26632 2.54185,-2.26632z" />
    <path
   id="_307871536"
   class="fil52"
   d="M9.59847 4.92268c1.30026,0 2.35504,0.940543 2.35504,2.10021 0,1.15938 -1.05478,2.09992 -2.35504,2.09992 -1.30083,0 -2.35533,-0.940543 -2.35533,-2.09992 0,-1.15966 1.0545,-2.10021 2.35533,-2.10021z" />
    <path
   id="_307844776"
   class="fil53"
   d="M9.58146 5.04146c1.19736,0 2.16852,0.865708 2.16852,1.93353 0,1.06754 -0.971157,1.93381 -2.16852,1.93381 -1.19765,0 -2.16909,-0.866275 -2.16909,-1.93381 0,-1.06782 0.971441,-1.93353 2.16909,-1.93353z" />
    <path
   id="_307871776"
   class="fil54"
   d="M9.56445 5.15995c1.09447,0 1.98228,0.791156 1.98228,1.76742 0,0.975976 -0.887818,1.76742 -1.98228,1.76742 -1.09475,0 -1.98228,-0.791439 -1.98228,-1.76742 0,-0.97626 0.887535,-1.76742 1.98228,-1.76742z" />
    <path
   id="_307870192"
   class="fil55"
   d="M9.54773 5.27815c0.991283,0 1.79548,0.717171 1.79548,1.60159 0,0.884133 -0.804195,1.6013 -1.79548,1.6013 -0.992134,0 -1.79633,-0.717171 -1.79633,-1.6013 0,-0.884416 0.804195,-1.60159 1.79633,-1.60159z" />
    <path
   id="_307840192"
   class="fil56"
   d="M9.53072 5.39664c0.888385,0 1.60924,0.642336 1.60924,1.43519 0,0.79229 -0.720856,1.43519 -1.60924,1.43519 -0.888952,0 -1.60981,-0.642903 -1.60981,-1.43519 0,-0.792857 0.720856,-1.43519 1.60981,-1.43519z" />
   </g>
   <path
   id="_307872736"
   class="fil57"
   d="M9.51343 5.51541c0.78577,0 1.42329,0.568351 1.42329,1.26908 0,0.70073 -0.637517,1.26908 -1.42329,1.26908 -0.786053,0 -1.42357,-0.568351 -1.42357,-1.26908 0,-0.70073 0.637517,-1.26908 1.42357,-1.26908z" />
  </g>
  <g
   id="_307844272">
   <path
   id="_307841752"
   class="fil58"
   d="M9.42697 4.79768c2.35816,0 4.26958,1.92871 4.26958,4.30643 0,2.37772 -1.91142,4.30756 -4.26958,4.30756 -2.35788,0 -4.27043,-1.92984 -4.27043,-4.30756 0,-2.37772 1.91255,-4.30643 4.27043,-4.30643zm0 0.160442c2.27029,0 4.11055,1.85671 4.11055,4.14599 0,2.28928 -1.84027,4.1474 -4.11055,4.1474 -2.27,0 -4.1114,-1.85812 -4.1114,-4.1474 0,-2.28928 1.8414,-4.14599 4.1114,-4.14599z" />
   <g
   id="g148">
    <path
   id="_307841728"
   class="fil59"
   d="M9.42726 4.85267c2.32755,0 4.21458,1.90376 4.21458,4.25087 0,2.34739 -1.88704,4.25229 -4.21458,4.25229 -2.32783,0 -4.21572,-1.9049 -4.21572,-4.25229 0,-2.34711 1.88789,-4.25087 4.21572,-4.25087zm0 0.158174c2.24081,0 4.05754,1.8329 4.05754,4.09269 0,2.26008 -1.81674,4.09439 -4.05754,4.09439 -2.24081,0 -4.05868,-1.83431 -4.05868,-4.09439 0,-2.2598 1.81787,-4.09269 4.05868,-4.09269z" />
    <path
   id="_307841680"
   class="fil60"
   d="M9.42726 4.90766c2.29721,0 4.15988,1.8791 4.15988,4.19588 0,2.31706 -1.86266,4.19729 -4.15988,4.19729 -2.2975,0 -4.16073,-1.88024 -4.16073,-4.19729 0,-2.31677 1.86323,-4.19588 4.16073,-4.19588zm0 0.15619c2.21189,0 4.00482,1.80909 4.00482,4.03969 0,2.2306 -1.79293,4.0411 -4.00482,4.0411 -2.21189,0 -4.00595,-1.8105 -4.00595,-4.0411 0,-2.2306 1.79406,-4.03969 4.00595,-4.03969z" />
    <path
   id="_307871152"
   class="fil61"
   d="M9.42726 4.96294c2.26688,0 4.10517,1.85444 4.10517,4.1406 0,2.28644 -1.83828,4.14202 -4.10517,4.14202 -2.26717,0 -4.10602,-1.85557 -4.10602,-4.14202 0,-2.28616 1.83885,-4.1406 4.10602,-4.1406zm0 0.154206c2.18269,0 3.95238,1.78499 3.95238,3.98639 0,2.2014 -1.76968,3.98781 -3.95238,3.98781 -2.18269,0 -3.95351,-1.78641 -3.95351,-3.98781 0,-2.2014 1.77082,-3.98639 3.95351,-3.98639z" />
    <path
   id="_307871584"
   class="fil62"
   d="M9.42726 5.01793c2.23684,0 4.05017,1.82978 4.05017,4.08561 0,2.25583 -1.81334,4.08674 -4.05017,4.08674 -2.23712,0 -4.05131,-1.83091 -4.05131,-4.08674 0,-2.25583 1.81419,-4.08561 4.05131,-4.08561zm0 0.152222c2.15321,0 3.89965,1.76175 3.89965,3.93339 0,2.17192 -1.74644,3.9348 -3.89965,3.9348 -2.15378,0 -3.90079,-1.76288 -3.90079,-3.9348 0,-2.17164 1.74701,-3.93339 3.90079,-3.93339z" />
    <path
   id="_307871872"
   class="fil63"
   d="M9.42726 5.07321c2.20651,0 3.99575,1.80512 3.99575,4.03033 0,2.2255 -1.78924,4.03175 -3.99575,4.03175 -2.20679,0 -3.9966,-1.80625 -3.9966,-4.03175 0,-2.22521 1.78981,-4.03033 3.9966,-4.03033zm0 0.150237c2.1243,0 3.84664,1.73765 3.84664,3.88009 0,2.14273 -1.72234,3.88179 -3.84664,3.88179 -2.12458,0 -3.84806,-1.73907 -3.84806,-3.88179 0,-2.14244 1.72348,-3.88009 3.84806,-3.88009z" />
    <path
   id="_307844056"
   class="fil64"
   d="M9.42726 5.12848c2.17617,0 3.94104,1.78017 3.94104,3.97505 0,2.19488 -1.76486,3.97647 -3.94104,3.97647 -2.17646,0 -3.94189,-1.78159 -3.94189,-3.97647 0,-2.19488 1.76543,-3.97505 3.94189,-3.97505zm0 0.14797c2.0951,0 3.79392,1.71412 3.79392,3.82709 0,2.11353 -1.69882,3.8285 -3.79392,3.8285 -2.09567,0 -3.79505,-1.71497 -3.79505,-3.8285 0,-2.11296 1.69938,-3.82709 3.79505,-3.82709z" />
    <path
   id="_307843960"
   class="fil65"
   d="M9.42726 5.18376c2.14613,0 3.88605,1.75579 3.88605,3.92006 0,2.16455 -1.73992,3.9212 -3.88605,3.9212 -2.14641,0 -3.88718,-1.75664 -3.88718,-3.9212 0,-2.16427 1.74077,-3.92006 3.88718,-3.92006zm0 0.146269c2.06619,0 3.74148,1.69003 3.74148,3.77379 0,2.08376 -1.67529,3.77521 -3.74148,3.77521 -2.06619,0 -3.74261,-1.69145 -3.74261,-3.77521 0,-2.08376 1.67642,-3.77379 3.74261,-3.77379z" />
    <path
   id="_307841416"
   class="fil66"
   d="M9.42726 5.23903c2.11608,0 3.83134,1.73085 3.83134,3.86479 0,2.13422 -1.71526,3.86592 -3.83134,3.86592 -2.11636,0 -3.83247,-1.7317 -3.83247,-3.86592 0,-2.13394 1.71611,-3.86479 3.83247,-3.86479zm0 0.144001c2.03699,0 3.68875,1.66622 3.68875,3.72079 0,2.05457 -1.65176,3.7222 -3.68875,3.7222 -2.03728,0 -3.68989,-1.66764 -3.68989,-3.7222 0,-2.05457 1.65261,-3.72079 3.68989,-3.72079z" />
    <path
   id="_307843912"
   class="fil67"
   d="M9.42726 5.29431c2.08547,0 3.77691,1.70619 3.77691,3.80951 0,2.10389 -1.69145,3.81093 -3.77691,3.81093 -2.08575,0 -3.77776,-1.70704 -3.77776,-3.81093 0,-2.10332 1.69201,-3.80951 3.77776,-3.80951zm0 0.142017c2.00808,0 3.63603,1.64241 3.63603,3.66749 0,2.02537 -1.62795,3.66919 -3.63603,3.66919 -2.00808,0 -3.63716,-1.64382 -3.63716,-3.66919 0,-2.02509 1.62908,-3.66749 3.63716,-3.66749z" />
    <path
   id="_307844008"
   class="fil68"
   d="M9.42726 5.3493c2.05542,0 3.72192,1.68153 3.72192,3.75452 0,2.07299 -1.6665,3.75565 -3.72192,3.75565 -2.0557,0 -3.72305,-1.68266 -3.72305,-3.75565 0,-2.07299 1.66735,-3.75452 3.72305,-3.75452zm0 0.140033c1.9786,0 3.5833,1.61888 3.5833,3.61449 0,1.99589 -1.60471,3.6159 -3.5833,3.6159 -1.97888,0 -3.58444,-1.62001 -3.58444,-3.6159 0,-1.99561 1.60556,-3.61449 3.58444,-3.61449z" />
    <path
   id="_307843720"
   class="fil69"
   d="M9.42726 5.40458c2.02537,0 3.66721,1.65686 3.66721,3.69924 0,2.04266 -1.64184,3.70038 -3.66721,3.70038 -2.02565,0 -3.66834,-1.65771 -3.66834,-3.70038 0,-2.04238 1.64269,-3.69924 3.66834,-3.69924zm0 0.138048c1.94968,0 3.53086,1.59478 3.53086,3.56119 0,1.96669 -1.58118,3.56261 -3.53086,3.56261 -1.94997,0 -3.532,-1.59592 -3.532,-3.56261 0,-1.96641 1.58203,-3.56119 3.532,-3.56119z" />
    <path
   id="_307840672"
   class="fil70"
   d="M9.42726 5.45957c1.99476,0 3.6125,1.63249 3.6125,3.64425 0,2.01233 -1.61775,3.64538 -3.6125,3.64538 -1.99504,0 -3.61363,-1.63305 -3.61363,-3.64538 0,-2.01176 1.6186,-3.64425 3.61363,-3.64425zm0 0.136064c1.92049,0 3.47814,1.57126 3.47814,3.50819 0,1.93721 -1.55765,3.5096 -3.47814,3.5096 -1.92077,0 -3.47927,-1.57239 -3.47927,-3.5096 0,-1.93693 1.5585,-3.50819 3.47927,-3.50819z" />
   </g>
  </g>
  <path
   class="fil71"
   d="M11.2701 5.98824c0.901991,0.80788 0.933456,2.09425 0.0705832,2.87209 -0.862589,0.778116 -2.2941,0.754305 -3.19609,-0.0535752 -0.901991,-0.808164 -0.933456,-2.09425 -0.0705832,-2.87237 0.862873,-0.778116 2.2941,-0.754022 3.19609,0.0538587z"
   id="path162" />
  <path
   class="fil72"
   d="M11.5362 5.93154c0.938275,0.840479 0.970874,2.17844 0.0734179,2.98774 -0.897456,0.809298 -2.38622,0.784353 -3.3245,-0.0561264 -0.938275,-0.840479 -0.971157,-2.17844 -0.0737014,-2.98774 0.897456,-0.809298 2.38651,-0.784353 3.32478,0.0561264z"
   id="path164" />
  <ellipse
   class="fil47"
   cx="9.47418"
   cy="10.0045"
   rx="0.49549"
   ry="0.451454"
   id="ellipse166" />
  <rect
   class="fil15"
   x="13.678"
   y="3.97316"
   width="1.35101"
   height="1.43187"
   id="rect168" />
  <rect
   class="fil11"
   x="0.574304"
   y="2.59202"
   width="2.48204"
   height="1.93863"
   id="rect170" />
  <path
   class="fil73"
   d="M0.101481 5.11913l0 -0.000283467 -0.000283467 0 -0.0204096 -1.08171 0.000283467 0 0 -0.354333c0,-0.452696 0.185954,-0.865708 0.484728,-1.16448 0.298207,-0.298207 0.711218,-0.484728 1.1642,-0.484728l1.12338 0 0 -0.000283467 1.08143 0 0 0.000283467 0.000283467 0 0 1.00007 -0.000283467 0 0 0.354333c0,0.452696 -0.165545,0.947346 -0.464319,1.24612 -0.298207,0.298207 -0.792573,0.484728 -1.24555,0.484728l-1.12338 0 0 0.000283467 -1.00007 0zm2.7519 -2.08547l-1.12338 0c-0.176883,0 -0.339593,0.0739848 -0.457232,0.191624 -0.117922,0.117922 -0.191624,0.280632 -0.191624,0.457515l0 0.354333 1.12338 0c0.176883,0 0.339593,-0.0739848 0.457232,-0.191624 0.117922,-0.117922 0.191624,-0.280632 0.191624,-0.457515l0 -0.354333z"
   id="path172" />
 </g>
</svg>