<?xml version="1.0" encoding="UTF-8" standalone="no"?>
<!-- Creator: CorelDRAW -->

<svg
   xmlns:dc="http://purl.org/dc/elements/1.1/"
   xmlns:cc="http://creativecommons.org/ns#"
   xmlns:rdf="http://www.w3.org/1999/02/22-rdf-syntax-ns#"
   xmlns:svg="http://www.w3.org/2000/svg"
   xmlns="http://www.w3.org/2000/svg"
   xmlns:sodipodi="http://sodipodi.sourceforge.net/DTD/sodipodi-0.dtd"
   xmlns:inkscape="http://www.inkscape.org/namespaces/inkscape"
   xml:space="preserve"
   width="16px"
   height="16px"
   style="shape-rendering:geometricPrecision; text-rendering:geometricPrecision; image-rendering:optimizeQuality; fill-rule:evenodd; clip-rule:evenodd"
   viewBox="0 0 15.997 16"
   id="svg3046"
   version="1.1"
   inkscape:version="0.48.2 r9819"
   sodipodi:docname="manage16.svg"><metadata
   id="metadata3105"><rdf:RDF><cc:Work
       rdf:about=""><dc:format>image/svg+xml</dc:format><dc:type
         rdf:resource="http://purl.org/dc/dcmitype/StillImage" /><dc:title></dc:title></cc:Work></rdf:RDF></metadata><sodipodi:namedview
   pagecolor="#ffffff"
   bordercolor="#666666"
   borderopacity="1"
   objecttolerance="10"
   gridtolerance="10"
   guidetolerance="10"
   inkscape:pageopacity="0"
   inkscape:pageshadow="2"
   inkscape:window-width="1920"
   inkscape:window-height="1024"
   id="namedview3103"
   showgrid="false"
   inkscape:zoom="11.091602"
   inkscape:cx="9.6245734"
   inkscape:cy="5.0170648"
   inkscape:window-x="-4"
   inkscape:window-y="-4"
   inkscape:window-maximized="1"
   inkscape:current-layer="svg3046" />
 <defs
   id="defs3048">
  <style
   type="text/css"
   id="style3050">
   
    .fil3 {fill:#191919}
    .fil0 {fill:#8B8B8B}
    .fil10 {fill:#999999}
    .fil9 {fill:#E5E5E5}
    .fil4 {fill:#F7F7F7}
    .fil7 {fill:url(#id0)}
    .fil6 {fill:url(#id1)}
    .fil1 {fill:url(#id2)}
    .fil5 {fill:url(#id3)}
    .fil8 {fill:url(#id4)}
    .fil2 {fill:url(#id5)}
   
  </style>
  <linearGradient
   id="id0"
   gradientUnits="userSpaceOnUse"
   x1="2.99863"
   y1="8.49776"
   x2="6.99731"
   y2="8.49776">
   <stop
   offset="0"
   style="stop-color:#5F9DD6"
   id="stop3053" />
   <stop
   offset="1"
   style="stop-color:#8FCDFE"
   id="stop3055" />
  </linearGradient>
  <linearGradient
   id="id1"
   gradientUnits="userSpaceOnUse"
   x1="2.99863"
   y1="4.49946"
   x2="6.99731"
   y2="4.49946">
   <stop
   offset="0"
   style="stop-color:#F8C017"
   id="stop3058" />
   <stop
   offset="1"
   style="stop-color:#FFDC2A"
   id="stop3060" />
  </linearGradient>
  <linearGradient
   id="id2"
   gradientUnits="userSpaceOnUse"
   x1="7.99811"
   y1="1.21926"
   x2="7.99811"
   y2="11.7798">
   <stop
   offset="0"
   style="stop-color:#C9C9C9"
   id="stop3063" />
   <stop
   offset="0.439216"
   style="stop-color:#BABABA"
   id="stop3065" />
   <stop
   offset="1"
   style="stop-color:#B0B0B0"
   id="stop3067" />
  </linearGradient>
  <linearGradient
   id="id3"
   gradientUnits="userSpaceOnUse"
   x1="12.668959"
   y1="4.8266249"
   x2="7.9660883"
   y2="4.8011332">
   <stop
   offset="0"
   style="stop-color:#7B7AEA"
   id="stop3070" />
   <stop
   offset="1.2"
   style="stop-color:#908DF4"
   id="stop3072" />
   <stop
   offset="1"
   style="stop-color:#A5A1FF"
   id="stop3074" />
  </linearGradient>
  <linearGradient
   id="id4"
   gradientUnits="userSpaceOnUse"
   x1="12.920667"
   y1="8.4076014"
   x2="8.1674919"
   y2="8.4076014">
   <stop
   offset="0"
   style="stop-color:#D26934"
   id="stop3077" />
   <stop
   offset="1.18824"
   style="stop-color:#E5773B"
   id="stop3079" />
   <stop
   offset="1"
   style="stop-color:#F98643"
   id="stop3081" />
  </linearGradient>
  <linearGradient
   id="id5"
   gradientUnits="userSpaceOnUse"
   x1="8.01096"
   y1="3.09123"
   x2="7.98677"
   y2="2.57344">
   <stop
   offset="0"
   style="stop-color:#BBBBBB"
   id="stop3084" />
   <stop
   offset="1"
   style="stop-color:white"
   id="stop3086" />
  </linearGradient>
 </defs>
 <g
   id="Layer_x0020_1"
   transform="matrix(1.0001913,0,0,0.99999688,-0.0015,5.0219565e-5)">
  <metadata
   id="CorelCorpID_0Corel-Layer" />
  <g
   id="_178176704">
   <path
   id="_178166720"
   class="fil0"
   d="m 3.99868,15 0,-0.0015 c 0,-0.530637 0.442576,-0.96641 0.998913,-0.997402 l 0.00113,-2.00236 6.00104,0 0,2.00236 c 0.556338,0.03099 1.00005,0.466764 1.00005,0.997402 l 0,0.0015 c 0,0.551802 -0.477347,1.00005 -1.06392,1.00005 l -5.87329,0 C 4.47603,16.00005 3.998683,15.551805 3.998683,15 z"
   inkscape:connector-curvature="0"
   style="fill:#8b8b8b" />
   <path
   id="_178167104"
   class="fil0"
   d="m 0,2.11197 0,8.86512 c 0,1.16559 0.945623,2.11197 2.11197,2.11197 l 11.773,0 c 1.16559,0 2.11197,-0.946379 2.11197,-2.11197 l 0,-8.86512 C 15.99694,0.94563 15.050561,0 13.88497,0 L 2.11197,0 C 0.94563,0 0,0.945623 0,2.11197 z"
   inkscape:connector-curvature="0"
   style="fill:#8b8b8b" />
   <path
   id="_178167608"
   class="fil1"
   d="m 0.997402,2.08551 0,8.8277 c 0,0.598668 0.487929,1.0866 1.0866,1.0866 l 11.8278,0 c 0.598668,0 1.0866,-0.487929 1.0866,-1.0866 l 0,-8.8277 c 0,-0.598668 -0.487929,-1.0866 -1.0866,-1.0866 l -11.8278,0 c -0.598668,0 -1.0866,0.487929 -1.0866,1.0866 z"
   style="fill:url(#id2)"
   inkscape:connector-curvature="0" />
   <path
   id="_178168016"
   class="fil2"
   d="m 0.998913,4.66538 0,-2.67057 c 0,-0.549157 0.465253,-0.99589 1.03709,-0.99589 l 11.9254,0 c 0.571834,0 1.03709,0.446733 1.03709,0.99589 l 0,2.67057 -13.9995,0 z"
   style="fill:url(#id5)"
   inkscape:connector-curvature="0" />
   <path
   id="_178168760"
   class="fil3"
   d="m 1.99896,2.63353 0,7.72901 c 0,0.351868 0.313318,0.636084 0.6958,0.636084 l 10.6063,0 c 0.383994,0 0.697312,-0.284216 0.697312,-0.636084 l 0,-7.72901 c 0,-0.352246 -0.313318,-0.634573 -0.697312,-0.634573 l -10.6063,0 c -0.382482,0 -0.6958,0.282326 -0.6958,0.634573 z"
   inkscape:connector-curvature="0"
   style="fill:#191919" />
   <path
   id="_178169120"
   class="fil4"
   d="m 2.00009,11.4971 0,0.0015 c 0,0.274767 0.275901,0.498512 0.616053,0.498512 l 10.7666,0 c 0.339774,0 0.615675,-0.223745 0.615675,-0.498512 l 0,-0.0015 c 0,-0.274389 -0.275901,-0.498512 -0.615675,-0.498512 l -10.7666,0 c -0.340152,0 -0.616053,0.224122 -0.616053,0.498512 z"
   inkscape:connector-curvature="0"
   style="fill:#f7f7f7" />
   <polygon
   id="_178168664"
   class="fil5"
   points="8,2.9975 12.9957,2.9975 12.9957,5.99877 8,5.99877 "
   style="fill:url(#id3)" />
   <polygon
   id="_178169936"
   class="fil6"
   points="6.99731,2.99863 2.99863,2.99863 2.99863,5.99991 6.99731,5.99991 "
   style="fill:url(#id1)" />
   <polygon
   id="_178170536"
   class="fil7"
   points="6.99731,6.99731 2.99863,6.99731 2.99863,9.99858 6.99731,9.99858 "
   style="fill:url(#id0)" />
   <polygon
   id="_178171136"
   class="fil8"
   points="12.9999,6.99731 7.99849,6.99731 7.99849,9.99858 12.9999,9.99858 "
   style="fill:url(#id4)" />
   <path
   id="_178171880"
   class="fil9"
   d="m 5.99726,14.2811 0,0.436151 c 0,0.156092 0.126612,0.282704 0.282704,0.282704 l 3.43591,0 c 0.156092,0 0.282704,-0.126612 0.282704,-0.282704 l 0,-0.436151 c 0,-0.156092 -0.126612,-0.282704 -0.282704,-0.282704 l -3.43591,0 c -0.156092,0 -0.282704,0.126612 -0.282704,0.282704 z"
   inkscape:connector-curvature="0"
   style="fill:#e5e5e5" />
   <path
   id="_178172240"
   class="fil10"
   d="m 5.99877,13.2811 0,0.436151 c 0,0.156092 0.126612,0.282704 0.282704,0.282704 l 3.43591,0 c 0.155714,0 0.282704,-0.126612 0.282704,-0.282704 l 0,-0.436151 c 0,-0.155714 -0.12699,-0.282326 -0.282704,-0.282326 l -3.43591,0 c -0.156092,0 -0.282704,0.126612 -0.282704,0.282326 z"
   inkscape:connector-curvature="0"
   style="fill:#999999" />
  </g>
 </g>
</svg>