<?xml version="1.0" encoding="UTF-8"?>
<!DOCTYPE svg PUBLIC "-//W3C//DTD SVG 1.1//EN" "http://www.w3.org/Graphics/SVG/1.1/DTD/svg11.dtd">
<!-- Creator: CorelDRAW -->
<svg xmlns="http://www.w3.org/2000/svg" xml:space="preserve" width="16px" height="16px" style="shape-rendering:geometricPrecision; text-rendering:geometricPrecision; image-rendering:optimizeQuality; fill-rule:evenodd; clip-rule:evenodd"
viewBox="0 0 16 16"
 xmlns:xlink="http://www.w3.org/1999/xlink">
 <defs>
  <style type="text/css">
   <![CDATA[
    .fil14 {fill:none}
    .fil23 {fill:white}
    .fil16 {fill:#B565CF}
    .fil24 {fill:#C271DD}
    .fil21 {fill:white;fill-rule:nonzero}
    .fil19 {fill:#9756AD;fill-rule:nonzero}
    .fil18 {fill:#FFD6F9;fill-rule:nonzero}
    .fil0 {fill:black;fill-opacity:0.000000}
    .fil1 {fill:black;fill-opacity:0.003922}
    .fil2 {fill:black;fill-opacity:0.007843}
    .fil3 {fill:black;fill-opacity:0.015686}
    .fil4 {fill:black;fill-opacity:0.019608}
    .fil5 {fill:black;fill-opacity:0.023529}
    .fil6 {fill:black;fill-opacity:0.027451}
    .fil7 {fill:black;fill-opacity:0.031373}
    .fil8 {fill:black;fill-opacity:0.035294}
    .fil9 {fill:black;fill-opacity:0.043137}
    .fil10 {fill:black;fill-opacity:0.047059}
    .fil11 {fill:black;fill-opacity:0.050980}
    .fil12 {fill:black;fill-opacity:0.054902}
    .fil13 {fill:black;fill-opacity:0.058824}
    .fil15 {fill:url(#id0)}
    .fil20 {fill:url(#id1)}
    .fil22 {fill:url(#id2);fill-rule:nonzero}
    .fil17 {fill:url(#id3);fill-rule:nonzero;fill-opacity:0.501961}
   ]]>
  </style>
  <linearGradient id="id0" gradientUnits="userSpaceOnUse" x1="8.84161" y1="0.422082" x2="8.84161" y2="14.704">
   <stop offset="0" style="stop-color:#D67FF2"/>
   <stop offset="1" style="stop-color:#C57CE7"/>
  </linearGradient>
  <linearGradient id="id1" gradientUnits="userSpaceOnUse" x1="8.37134" y1="15.1669" x2="8.34696" y2="12.9267">
   <stop offset="0" style="stop-color:#7F7F7F"/>
   <stop offset="1" style="stop-color:#8F8F8F"/>
  </linearGradient>
  <linearGradient id="id2" gradientUnits="userSpaceOnUse" x1="8.60634" y1="9.43689" x2="8.41868" y2="3.36107">
   <stop offset="0" style="stop-color:#F3F3F3"/>
   <stop offset="1" style="stop-color:white"/>
  </linearGradient>
  <linearGradient id="id3" gradientUnits="userSpaceOnUse" x1="4.49578" y1="2.2014" x2="4.29566" y2="14.941">
   <stop offset="0" style="stop-color:#FFD6F9"/>
   <stop offset="1" style="stop-color:#B575DD"/>
  </linearGradient>
 </defs>
 <g id="Слой_x0020_1">
  <metadata id="CorelCorpID_0Corel-Layer"/>
  <g id="_96308560">
   <path id="_99235696" class="fil0" d="M8.26249 13.8303c4.10176,-0.162426 6.45057,0.0649139 7.78315,0.46035l0 1.74984 -15.4288 0 0 -1.20899c1.04259,-0.438523 3.19722,-0.824888 7.64567,-1.0012z"/>
   <g>
    <path id="_97156384" class="fil1" d="M8.24662 13.868c4.12671,-0.157608 6.48232,0.0915598 7.79902,0.504004l0 1.66849 -15.4288 0 0 -1.1676c1.02955,-0.441641 3.17795,-0.835093 7.62979,-1.00489z"/>
    <path id="_93077648" class="fil2" d="M8.23046 13.9063c4.14258,-0.151655 6.51152,0.119906 7.81518,0.547091l0 1.58713 -15.4288 0 0 -1.12962c1.02218,-0.442208 3.17369,-0.841896 7.61363,-1.00461z"/>
    <path id="_47529232" class="fil3" d="M8.21402 13.9446c4.14769,-0.144852 6.53873,0.14882 7.83162,0.58791l0 1.50804 -15.4288 0 0 -1.0973c1.02048,-0.440507 3.18673,-0.844731 7.59719,-0.998654z"/>
    <path id="_118265592" class="fil4" d="M8.19814 13.9826c4.13805,-0.136631 6.56339,0.178017 7.84749,0.625328l0 1.3887c-1.58004,0.111402 -4.50344,-0.0411027 -7.58245,0.0416696l-0.085607 0.00226773 -7.62072 0 -0.140033 -0.0164411 0 -1.05421c1.02388,-0.436539 3.21792,-0.843314 7.58132,-0.987315z"/>
    <path id="_94539848" class="fil5" d="M8.1817 14.0208c4.11395,-0.127277 6.58777,0.206647 7.86394,0.65821l0 1.21522c-1.54036,0.115654 -4.50259,-0.0269293 -7.60995,0.0481894 -3.35029,0.0810715 -6.4432,0.147686 -7.81886,-0.0218269l0 -0.930622c1.0321,-0.429169 3.27092,-0.836227 7.56488,-0.969173z"/>
    <path id="_97519640" class="fil6" d="M8.16611 14.0591c4.072,-0.116505 6.61158,0.234427 7.87953,0.685423l0 1.04769c-1.495,0.118206 -4.49947,-0.0130395 -7.63716,0.0541422 -3.33612,0.0717171 -6.44263,0.128977 -7.79165,-0.0286301l0 -0.813833c1.04372,-0.419247 3.34377,-0.824605 7.54929,-0.944795z"/>
    <path id="_115353824" class="fil7" d="M8.14967 14.0971c4.01304,-0.104316 6.63936,0.261073 7.89597,0.706399l0 0.886684c-1.44256,0.119056 -4.4938,0.00113387 -7.66494,0.0603784 -3.32195,0.0620792 -6.44292,0.109418 -7.76387,-0.0345829l0 -0.705265c1.05818,-0.406491 3.43874,-0.80703 7.53285,-0.913613z"/>
    <path id="_46240528" class="fil8" d="M8.13351 14.1354c3.93537,-0.0907094 6.67281,0.286018 7.91213,0.720006l0 0.734179c-1.38162,0.117639 -4.48416,0.0144568 -7.69244,0.0649139 -3.30777,0.0521579 -6.44518,0.089859 -7.73638,-0.0394019l0 -0.604351c1.07349,-0.391184 3.55382,-0.784069 7.51669,-0.875345z"/>
    <path id="_119665136" class="fil9" d="M8.11736 14.1736c3.83927,-0.0759691 6.71533,0.308412 7.92828,0.725675l0 0.590745c-1.31018,0.11282 -4.47055,0.0269293 -7.71993,0.068599 -3.29502,0.0422366 -6.44972,0.0694494 -7.70888,-0.0436539l0 -0.51024c1.08823,-0.373042 3.68847,-0.756006 7.50053,-0.831125z"/>
    <path id="_94148400" class="fil10" d="M8.10148 14.2116c3.72504,-0.0592446 6.77287,0.328821 7.94416,0.723691l0 0.456665c-1.22514,0.104032 -4.45043,0.0385515 -7.74686,0.0705832 -3.28198,0.0320317 -6.45681,0.0493232 -7.68195,-0.0459216l0 -0.423783c1.10155,-0.352633 3.84183,-0.723407 7.48466,-0.781234z"/>
    <path id="_94537992" class="fil11" d="M8.08447 14.2499c3.59549,-0.0411027 6.85479,0.346113 7.96117,0.713202l0 0.33364c-1.11941,0.0904259 -4.42208,0.0479059 -7.77521,0.0700163 -3.26922,0.0215435 -6.46474,0.0280632 -7.6536,-0.047339l0 -0.344412c1.11204,-0.330239 4.01304,-0.685706 7.46765,-0.725108z"/>
    <path id="_94187024" class="fil12" d="M8.0686 14.2881c3.45178,-0.02126 6.97215,0.361704 7.97704,0.694777l0 0.222521c-0.983913,0.0691659 -4.37956,0.0541422 -7.80271,0.0654808 -3.25732,0.0110552 -6.47665,0.0068032 -7.62611,-0.0470555l0 -0.271278c1.11799,-0.305861 4.19956,-0.644037 7.45178,-0.664446z"/>
   </g>
   <path id="_47427000" class="fil13" d="M8.05187 14.3264c3.30239,0 7.15555,0.375594 7.99376,0.668698l0 0.125009c-1.5242,0.0720006 -13.1208,0.0720006 -15.4288,0.00963787l0 -0.204946c1.11828,-0.279782 4.40111,-0.598398 7.43505,-0.598398z"/>
  </g>
  <path class="fil14" d="M1.43973 13.6469l-0.0873078 0.0955283m14.484 -0.0104883l-0.097796 -0.0864574"/>
  <path class="fil15" d="M1.82468 3.13061l-0.0017008 -1.82921c0,-0.179718 0.0711502,-0.362554 0.188505,-0.491248 0.150237,-0.18312 0.361137,-0.388066 0.615123,-0.388066l12.3773 0.00396854c0.450429,0 0.845298,0.376727 0.839629,0.823471 -0.0654808,4.72086 0.0164411,7.91071 0.0034016,12.6344 -0.000566934,0.447027 -0.36142,0.820353 -0.802211,0.820353 -5.28637,0 -3.40189,-0.00311813 -12.4175,-0.00311813 -0.440507,0 -0.802495,-0.369074 -0.802495,-0.820353l-0.0017008 -10.6944c0,-0.0189923 0.000283467,-0.0374176 0.0017008,-0.055843z"/>
  <rect class="fil16" x="5.47488" y="9.9494" width="6.61583" height="1.03777"/>
  <path class="fil17" d="M1.89356 3.0484l-0.00141733 -1.81362 -0.00141733 0c0,-0.130962 0.0263624,-0.265041 0.0748352,-0.391468l-0.00113387 -0.000283467c0.0479059,-0.125009 0.11934,-0.242931 0.208632,-0.341011l0.441641 0.000283467c0.0391184,-0.046772 0.081355,-0.0946779 0.126993,-0.141166 0.0238112,-0.00368507 0.0484728,-0.0059528 0.0734179,-0.0059528l11.5008 0.00396854c0.0549926,0 0.343562,0.0059528 0.396287,0.0164411 0.202112,0.209765 0.329105,0.491248 0.329105,0.797392l0 0.00963787 -0.00141733 0.004252c-0.0640635,4.72001 0.0167245,7.90787 0.00368507,12.6301 -0.000283467,0.31153 -0.121607,0.597548 -0.317483,0.808731 -0.0442208,0.0076536 -0.323436,0.0116221 -0.369357,0.0116221 -5.28637,0 -2.52541,-0.00311813 -11.5411,-0.00311813 -0.0578272,0 -0.555878,-0.00623627 -0.610587,-0.0184253 -0.193608,-0.211183 -0.312947,-0.494083 -0.312947,-0.801928l0.00141733 0 -0.00141733 -10.6944 0.668982 -0.00141733 -0.668698 -0.0280632 0.668982 -0.0138899 -0.667848 -0.0277797zm1.15541 -1.81362l0.00141733 1.82893 0 0.0153072 -0.00113387 0.0280632 -0.000283467 0 0 0.0138899 0.00141733 10.6929 0.00141733 0c0,0.128694 0.0507406,0.245199 0.132096,0.328255l0.00141733 0c0.0802211,0.0819219 0.190206,0.132946 0.310113,0.132946 3.08809,0 5.03522,0.00198427 7.59606,0.00368507l2.558 -0.000283467c0.119056,0 0.228474,-0.051591 0.308695,-0.133513 0.0836227,-0.085607 0.135781,-0.202679 0.136064,-0.327971 0.0130395,-4.72397 -0.0668982,-7.91298 -0.00368507,-12.6344l-0.00141733 0 0 -0.00963787c0,-0.118773 -0.0541422,-0.230459 -0.138899,-0.312664 -0.0881582,-0.0858904 -0.206931,-0.140883 -0.331089,-0.143434l0 0.00113387 -0.0104883 0 0 -0.00141733 -10.1138 -0.00368507 0 0.00141733c-0.043087,0 -0.0907094,0.0232443 -0.137481,0.0564099l0.22734 0.00141733c-0.0756856,0.0541422 -0.371625,0.12841 -0.428885,0.198143l-0.0113387 0.0141733c-0.0280632,0.0306144 -0.051591,0.0702998 -0.068032,0.11367l-0.00141733 0c-0.0158741,0.0413862 -0.0246616,0.0881582 -0.0246616,0.136631l-0.00141733 0zm0 1.88477l0 0.00141733"/>
  <path class="fil14" d="M1.31585 2.1912c0,-0.180001 0.0708667,-0.362838 0.188505,-0.491531 0.150237,-0.18312 0.361137,-0.387783 0.615123,-0.387783l12.2642 0.00368507c0.450712,0 0.845298,0.376727 0.839629,0.823471"/>
  <path class="fil18" d="M1.3527 1.93268c0,-0.12019 0.0246616,-0.244065 0.0683155,-0.358302l0.0008504 -0.0017008c0.0439374,-0.116221 0.109418,-0.223372 0.189356,-0.31068 0.0844731,-0.101481 0.188505,-0.211183 0.310113,-0.298491l0.0008504 -0.00113387c0.144852,-0.103465 0.31153,-0.174899 0.500319,-0.174899l0 0.00113387 11.9629 0.00396854 0 -0.00141733 0.00992134 0 0.0017008 0.00141733c0.291971,0.00283467 0.565233,0.126426 0.763376,0.317483l0.000566934 0.0008504c0.200694,0.195025 0.329388,0.465452 0.328821,0.760258l0.00113387 0 0 0.00907094 -0.0153072 0.0025512c0.0269293,0.0918432 0.0413862,0.188505 0.0411027,0.288002l0.00113387 0 0 0.0093544 -0.116221 0.0187088c0.00453547,0.0391184 0.00708667,0.0790872 0.00708667,0.11934l0.00113387 0 0 0.00907094 -0.0153072 0.0025512c0.0269293,0.0918432 0.0413862,0.188505 0.0411027,0.288002l0.00113387 0 0 0.0093544 -0.377294 0.0603784 0 -0.0093544 0.00113387 0c0,-0.297924 -0.428885,-0.606619 -0.719439,-0.609737l0 0.00141733 -0.00992134 0 0 -0.00141733 -11.9629 -0.00368507 0 0.00113387c-0.352916,-0.0538587 -0.865141,0.437106 -0.792573,0.714336l-0.276947 -0.100914c0,-0.0915598 0.0141733,-0.185104 0.0402523,-0.274963l-0.0674651 -0.0246616c0,-0.12019 0.0246616,-0.244065 0.0683155,-0.358302l0.0008504 -0.0017008c0.0102048,-0.0269293 0.0215435,-0.0535752 0.0337325,-0.0790872l-0.0218269 -0.00793707z"/>
  <path class="fil19" d="M0.988165 3.21536l-0.00141733 -1.81759 -0.00198427 0c0,-0.14797 0.029764,-0.299624 0.0841896,-0.441641l-0.00113387 -0.000283467c0.0538587,-0.141733 0.135214,-0.274396 0.236411,-0.385515l0.000283467 0.000283467c0.0943944,-0.11282 0.209482,-0.23301 0.346396,-0.331373l0 -0.00198427c0.180285,-0.129261 0.392035,-0.21912 0.637517,-0.21912l0 0.00198427 12.3773 0.00396854 0 -0.00198427 0.0102048 0 0.0059528 0.00198427c0.35405,0.004252 0.683438,0.152222 0.922968,0.384948 0.244348,0.237829 0.400539,0.566934 0.400539,0.926936l0 0.00963787 -0.00198427 0.0059528c-0.0391184,2.83467 0,4.94026 0.0144568,7.33414 0.00963787,1.59053 0.0195592,3.2318 0.0144568,5.11714 -0.0008504,0.359152 -0.146269,0.689675 -0.379846,0.928354 -0.235561,0.240663 -0.561264,0.392035 -0.9207,0.392035l0 -0.00198427 -4.42605 -0.00113387 -7.9915 0c-0.358869,0 -0.68599,-0.150237 -0.922401,-0.391751 -0.234144,-0.239246 -0.380412,-0.568351 -0.380412,-0.928637l0.00198427 0 -0.0266459 -10.5172 0 -0.0116221 0.00141733 -0.0555595zm0.994685 -1.81759l0.00141733 1.82893 -0.498051 0 0.498051 0.0116221 -0.00141733 0.055843 0.0266459 10.5056 0.00198427 0c0,0.0907094 0.0354333,0.172348 0.0912763,0.229608 0.0547091,0.055843 0.130111,0.0907094 0.211466,0.0907094l7.9915 0.00396854 4.42605 0.00113387 0 -0.00198427c0.0805046,0 0.155056,-0.0351499 0.209765,-0.0909928 0.0578272,-0.0592446 0.0946779,-0.14145 0.0946779,-0.229325 0.00481894,-1.8825 -0.0051024,-3.52321 -0.0144568,-5.11317 -0.0147403,-2.39785 -0.0538587,-4.50741 -0.0144568,-7.34406l-0.00198427 0 0 -0.00963787c0,-0.0790872 -0.0374176,-0.155056 -0.0960952,-0.212033 -0.0632131,-0.0612288 -0.146836,-0.100914 -0.233293,-0.103749l0 0.00198427 -0.0102048 0 0 -0.00198427 -12.3773 -0.00396854 0 0.00198427c-0.00822054,0 -0.0294805,0.0130395 -0.055276,0.0314648l-0.0008504 -0.00141733c-0.0609454,0.0439374 -0.121891,0.110269 -0.174332,0.174332l-0.0155907 0.0195592c-0.0161576,0.0175749 -0.0306144,0.0419531 -0.0408192,0.0691659l-0.00198427 0.00198427c-0.0093544,0.0246616 -0.0147403,0.0538587 -0.0147403,0.0844731l-0.00198427 0z"/>
  <path class="fil20" d="M4.39232 12.9805l8.00255 0.0371342c0.260223,0.00113387 0.389767,0.266175 0.472823,0.554461l0.459216 0.987315c0.124158,0.267309 -0.213451,0.554461 -0.473106,0.554461l-8.99412 0c-0.259656,0 -0.592446,-0.283467 -0.472823,-0.554461l0.532351 -1.02445c0.135214,-0.260506 0.212884,-0.555311 0.473106,-0.554461z"/>
  <path class="fil21" d="M4.25824 13.012l6.91489 0 1.22174 0.00566934c0.260223,0.00113387 0.389767,0.266175 0.472823,0.554461l0.229325 0.493232 -9.45333 0 0.27553 -0.530366c0.108568,-0.209198 0.180001,-0.440507 0.339026,-0.522996z"/>
  <path class="fil22" d="M10.6207 9.39239c0.0323152,-0.00793707 0.0629296,-0.0164411 0.0912763,-0.0252285l0.343562 0 0 -4.20268 0 -0.998654 0 -0.760541c0.147403,0.0294805 0.280916,0.0612288 0.399121,0.0938275 0.251152,0.0694494 0.435688,0.146836 0.53802,0.229041l0.00113387 0.000566934c0.0609454,0.0714336 0.0439374,0.140883 0.0439374,0.226207l0 5.37141 0 0.0660478 -1.41705 0zm-4.66586 -4.22791l0 4.20268 0.356034 0 0.129261 0.0252285 -1.47006 0c0.00113387,-0.0895755 0.0164411,-0.182269 0.0164411,-0.267876l0 0 -0.0133229 -5.29261c0.0354333,-0.187372 0.357735,-0.263908 0.522146,-0.31153 0.131812,-0.0385515 0.286018,-0.0754022 0.459216,-0.109985l0 1.75409 0.000283467 0z"/>
  <rect class="fil23" x="5.80313" y="10.9367" width="5.30281" height="1.03777"/>
  <rect class="fil23" x="5.04543" y="8.96209" width="6.91886" height="1.03777"/>
  <rect class="fil23" x="5.24754" y="5.97463" width="6.66657" height="1.03777"/>
  <rect class="fil23" x="4.99497" y="3.0382" width="7.04528" height="1.03777"/>
  <rect class="fil23" transform="matrix(2.04468E-014 -0.406215 1 1.39353E-014 7.98639 11.9294)" width="6.86868" height="1.03777"/>
  <rect class="fil24" x="5.0202" y="2.00014" width="7.04528" height="1.03777"/>
 </g>
</svg>
