<?xml version="1.0" encoding="UTF-8"?>
<!DOCTYPE svg PUBLIC "-//W3C//DTD SVG 1.1//EN" "http://www.w3.org/Graphics/SVG/1.1/DTD/svg11.dtd">
<!-- Creator: CorelDRAW -->
<svg xmlns="http://www.w3.org/2000/svg" xml:space="preserve" width="16px" height="16px" style="shape-rendering:geometricPrecision; text-rendering:geometricPrecision; image-rendering:optimizeQuality; fill-rule:evenodd; clip-rule:evenodd"
viewBox="0 0 16 16"
 xmlns:xlink="http://www.w3.org/1999/xlink">
 <defs>
  <style type="text/css">
   <![CDATA[
    .fil16 {fill:none}
    .fil15 {fill:#78B6EB;fill-rule:nonzero}
    .fil0 {fill:black;fill-opacity:0.000000}
    .fil1 {fill:black;fill-opacity:0.003922}
    .fil2 {fill:black;fill-opacity:0.007843}
    .fil3 {fill:black;fill-opacity:0.015686}
    .fil4 {fill:black;fill-opacity:0.019608}
    .fil5 {fill:black;fill-opacity:0.023529}
    .fil6 {fill:black;fill-opacity:0.027451}
    .fil7 {fill:black;fill-opacity:0.031373}
    .fil8 {fill:black;fill-opacity:0.035294}
    .fil9 {fill:black;fill-opacity:0.043137}
    .fil10 {fill:black;fill-opacity:0.047059}
    .fil11 {fill:black;fill-opacity:0.050980}
    .fil12 {fill:black;fill-opacity:0.054902}
    .fil13 {fill:black;fill-opacity:0.058824}
    .fil19 {fill:url(#id0)}
    .fil14 {fill:url(#id1)}
    .fil17 {fill:url(#id2)}
    .fil18 {fill:url(#id3);fill-rule:nonzero}
   ]]>
  </style>
  <linearGradient id="id0" gradientUnits="userSpaceOnUse" x1="8.25597" y1="14.1098" x2="7.95039" y2="1.97973">
   <stop offset="0" style="stop-color:#F3F3F3"/>
   <stop offset="1" style="stop-color:white"/>
  </linearGradient>
  <linearGradient id="id1" gradientUnits="userSpaceOnUse" x1="8.13181" y1="13.6827" x2="7.92261" y2="2.21473">
   <stop offset="0" style="stop-color:#6FADE3"/>
   <stop offset="1" style="stop-color:#8FCDFF"/>
  </linearGradient>
  <linearGradient id="id2" gradientUnits="userSpaceOnUse" x1="2.99766" y1="1.63192" x2="13.0568" y2="1.23365">
   <stop offset="0" style="stop-color:#BCE6FF"/>
   <stop offset="1" style="stop-color:#BBE6FF"/>
  </linearGradient>
  <linearGradient id="id3" gradientUnits="userSpaceOnUse" x1="8" y1="13.0355" x2="8" y2="1.9185">
   <stop offset="0" style="stop-color:#4E87B4"/>
   <stop offset="1" style="stop-color:#66A1D1"/>
  </linearGradient>
 </defs>
 <g id="Слой_x0020_1">
  <metadata id="CorelCorpID_0Corel-Layer"/>
  <g id="_204529848">
   <path id="_204537096" class="fil0" d="M7.94132 13.8303c4.27099,-0.162426 6.71675,0.0649139 8.10432,0.46035l0 1.74984 -16.0658 0 0 -1.20899c1.08568,-0.438523 3.32932,-0.824888 7.96145,-1.0012z"/>
   <g>
    <path id="_204534936" class="fil1" d="M7.9246 13.868c4.29707,-0.157608 6.74991,0.0915598 8.12104,0.504004l0 1.66849 -16.0658 0 0 -1.1676c1.07207,-0.441641 3.30919,-0.835093 7.94472,-1.00489z"/>
    <path id="_204536952" class="fil2" d="M7.90787 13.9063c4.31351,-0.151655 6.78024,0.119906 8.13776,0.547091l0 1.58713 -16.0658 0 0 -1.12962c1.06442,-0.442208 3.30466,-0.841896 7.928,-1.00461z"/>
    <path id="_204533832" class="fil3" d="M7.89058 13.9446c4.3189,-0.144852 6.80887,0.14882 8.15506,0.58791l0 1.50804 -16.0658 0 0 -1.0973c1.06272,-0.440507 3.31826,-0.844731 7.91071,-0.998654z"/>
    <path id="_204533520" class="fil4" d="M7.87414 13.9826c4.30898,-0.136631 6.83438,0.178017 8.1715,0.625328l0 1.3887c-1.64524,0.111402 -4.68939,-0.0411027 -7.8954,0.0416696l-0.089292 0.00226773 -7.93537 0 -0.145702 -0.0164411 0 -1.05421c1.06612,-0.436539 3.35086,-0.843314 7.89427,-0.987315z"/>
    <path id="_204536640" class="fil5" d="M7.85713 14.0208c4.28375,-0.127277 6.85961,0.206647 8.18851,0.65821l0 1.21522c-1.60386,0.115654 -4.68854,-0.0269293 -7.92403,0.0481894 -3.48863,0.0810715 -6.70938,0.147686 -8.14173,-0.0218269l0 -0.930622c1.07462,-0.429169 3.40585,-0.836227 7.87726,-0.969173z"/>
    <path id="_204537528" class="fil6" d="M7.84069 14.0591c4.2401,-0.116505 6.88456,0.234427 8.20495,0.685423l0 1.04769c-1.5568,0.118206 -4.68514,-0.0130395 -7.95238,0.0541422 -3.47389,0.0717171 -6.70881,0.128977 -8.11339,-0.0286301l0 -0.813833c1.08681,-0.419247 3.48182,-0.824605 7.86082,-0.944795z"/>
    <path id="_204530328" class="fil7" d="M7.82368 14.0971c4.17858,-0.104316 6.91347,0.261073 8.22195,0.706399l0 0.886684c-1.50209,0.119056 -4.67919,0.00113387 -7.98129,0.0603784 -3.45915,0.0620792 -6.70909,0.109418 -8.08447,-0.0345829l0 -0.705265c1.10184,-0.406491 3.58075,-0.80703 7.84381,-0.913613z"/>
    <path id="_204530232" class="fil8" d="M7.80696 14.1354c4.0978,-0.0907094 6.94805,0.286018 8.23868,0.720006l0 0.734179c-1.43859,0.117639 -4.66927,0.0144568 -8.00992,0.0649139 -3.44441,0.0521579 -6.71136,0.089859 -8.05584,-0.0394019l0 -0.604351c1.11771,-0.391184 3.70066,-0.784069 7.82709,-0.875345z"/>
    <path id="_204531384" class="fil9" d="M7.78995 14.1736c3.99773,-0.0759691 6.99256,0.308412 8.25569,0.725675l0 0.590745c-1.36433,0.11282 -4.65509,0.0269293 -8.03855,0.068599 -3.43108,0.0422366 -6.71618,0.0694494 -8.02721,-0.0436539l0 -0.51024c1.1333,-0.373042 3.84069,-0.756006 7.81008,-0.831125z"/>
    <path id="_204532896" class="fil10" d="M7.77351 14.2116c3.87896,-0.0592446 7.05237,0.328821 8.27213,0.723691l0 0.456665c-1.2756,0.104032 -4.63412,0.0385515 -8.06661,0.0705832 -3.41748,0.0320317 -6.72355,0.0493232 -7.99915,-0.0459216l0 -0.423783c1.14691,-0.352633 4.00057,-0.723407 7.79364,-0.781234z"/>
    <path id="_204535704" class="fil11" d="M7.75594 14.2499c3.74375,-0.0411027 7.13769,0.346113 8.2897,0.713202l0 0.33364c-1.16562,0.0904259 -4.60463,0.0479059 -8.0961,0.0700163 -3.40415,0.0215435 -6.73177,0.0280632 -7.96967,-0.047339l0 -0.344412c1.15796,-0.330239 4.17858,-0.685706 7.77606,-0.725108z"/>
    <path id="_204530520" class="fil12" d="M7.73921 14.2881c3.59436,-0.02126 7.26015,0.361704 8.30643,0.694777l0 0.222521c-1.02445,0.0691659 -4.56041,0.0541422 -8.12473,0.0654808 -3.39196,0.0110552 -6.74424,0.0068032 -7.94104,-0.0470555l0 -0.271278c1.1642,-0.305861 4.37304,-0.644037 7.75934,-0.664446z"/>
   </g>
   <path id="_204535440" class="fil13" d="M7.72192 14.3264c3.43874,0 7.45092,0.375594 8.32372,0.668698l0 0.125009c-1.58713,0.0720006 -13.6625,0.0720006 -16.0658,0.00963787l0 -0.204946c1.16448,-0.279782 4.58281,-0.598398 7.74205,-0.598398z"/>
  </g>
  <path class="fil14" d="M1.24158 1.25916l13.5713 0c0.46035,0 0.837077,0.379846 0.837077,0.836794l0 11.7049c0,0.457799 -0.377578,0.837361 -0.837077,0.837361 -5.51371,0 -4.16696,0 -13.5713,0 -0.4595,0 -0.837077,-0.376727 -0.837077,-0.837361l0 -11.7049c0,-0.46035 0.376727,-0.836794 0.837077,-0.836794z"/>
  <path class="fil15" d="M15.4237 13.9454c-0.23301,0.256537 -0.621926,0.243215 -0.887818,0.243215l-13.4253 0 -0.00708667 0 -0.00198427 -0.0025512c-0.296506,-0.00396854 -0.67947,0.0158741 -0.8847,-0.358302 0.153072,-0.251435 0.317483,-0.504004 0.481327,-0.724825 0.121324,0.0422366 0.292538,-0.0342995 0.405358,-0.0331656l0 -0.0025512 0.00708667 0 13.4253 0 0.280632 -0.0462051c0.186805,0.270994 0.398554,0.58706 0.607186,0.924385z"/>
  <path class="fil16" d="M0.730777 13.6141l-0.089859 0.0980795m14.8962 -0.0104883l-0.100631 -0.0890086"/>
  <path class="fil17" d="M15.6434 1.99249l-15.2324 0c0.0513075,-0.629013 0.405074,-1.11969 0.830558,-1.11969l13.571 0c0.425484,0 0.77925,0.494366 0.830841,1.11969z"/>
  <path class="fil18" d="M1.40316 -0.0342995l13.2444 0c0.375594,0 0.666997,0.153639 0.913897,0.400539l0 0.00198427c0.2469,0.247467 0.400539,0.58791 0.400539,0.962653l0.051024 12.2923c0,0.374743 -0.153639,0.715187 -0.400539,0.962653l0 0.00198427c-0.2469,0.2469 -0.589044,0.400539 -0.964638,0.400539l-13.2444 0c-0.375594,0 -0.717738,-0.153639 -0.964638,-0.400539l0 -0.00198427c-0.2469,-0.247467 -0.400539,-0.58791 -0.400539,-0.962653l-0.051024 -12.2923c0,-0.374743 0.153639,-0.715187 0.400539,-0.962653l0 -0.00198427c0.2469,-0.2469 0.639785,-0.400539 1.01538,-0.400539zm13.1937 1.00007l-13.2444 0c-0.0997803,0 -0.191624,0.0413862 -0.257671,0.107434l-0.00113387 -0.0008504c-0.0654808,0.0663312 -0.1063,0.157891 -0.1063,0.258522l0.051024 12.2923c0,0.100631 0.0408192,0.19219 0.1063,0.258522l0.00113387 -0.0008504c0.0660478,0.0660478 0.157891,0.107434 0.257671,0.107434l13.2444 0c0.0997803,0 0.191624,-0.0413862 0.257671,-0.107434l0.00113387 0.0008504c0.0654808,-0.0663312 0.1063,-0.157891 0.1063,-0.258522l-0.051024 -12.2923c0,-0.100631 -0.0408192,-0.19219 -0.1063,-0.258522l-0.00113387 0.0008504c-0.0660478,-0.0660478 -0.157891,-0.107434 -0.257671,-0.107434z"/>
  <path class="fil19" d="M8.13691 9.51031c-0.663312,0.13493 -1.11402,3.45489 -1.38048,4.19417 -0.303309,0.538587 -1.26058,0.43994 -1.31444,-0.234144 0.236695,-1.63419 1.44341,-4.9122 1.04854,-6.64531 -0.789172,-0.759974 -2.52229,-1.12962 -2.71618,-1.21352 -0.519595,-0.229041 -0.578839,-0.507973 -0.43909,-0.742683 0.186805,-0.315782 0.429169,-0.262207 0.740132,-0.203813 3.43562,0.320601 4.62051,0.138332 8.05584,0 0.310963,-0.0583942 0.553327,-0.111969 0.739848,0.203813 0.140033,0.234711 0.0805046,0.513642 -0.43909,0.742683 -0.600383,0.259656 -2.01658,0.385231 -2.68443,1.32322l0.0946779 -0.303593c-0.506272,1.66367 0.7441,5.099 0.988732,6.78421 -0.0544256,0.674084 -0.991567,0.827723 -1.29544,0.289136 -0.266459,-0.739281 -0.73588,-4.05924 -1.39863,-4.19417zm0.0745518 -7.66381c0.777549,0 1.40741,0.630147 1.40741,1.40713 0,0.777266 -0.629863,1.40741 -1.40741,1.40741 -0.776699,0 -1.40685,-0.630147 -1.40685,-1.40741 0,-0.776982 0.630147,-1.40713 1.40685,-1.40713z"/>
 </g>
</svg>
