<?xml version="1.0" encoding="UTF-8" standalone="no"?>
<!-- Created with Inkscape (http://www.inkscape.org/) -->

<svg
   xmlns:dc="http://purl.org/dc/elements/1.1/"
   xmlns:cc="http://creativecommons.org/ns#"
   xmlns:rdf="http://www.w3.org/1999/02/22-rdf-syntax-ns#"
   xmlns:svg="http://www.w3.org/2000/svg"
   xmlns="http://www.w3.org/2000/svg"
   xmlns:sodipodi="http://sodipodi.sourceforge.net/DTD/sodipodi-0.dtd"
   xmlns:inkscape="http://www.inkscape.org/namespaces/inkscape"
   width="16"
   height="16"
   id="svg2"
   version="1.1"
   inkscape:version="0.48.3.1 r9886"
   sodipodi:docname="16.svg">
  <defs
     id="defs4">
    <linearGradient
       gradientTransform="matrix(0,-1,1,0,4.8,5.999)"
       y2="0"
       x2="0.75"
       y1="0"
       x1="0"
       gradientUnits="userSpaceOnUse"
       id="LinearGradient_8-88">
      <stop
         id="stop117654"
         stop-color="#b6b4fb"
         offset="0" />
      <stop
         id="stop117656"
         stop-color="#8481e8"
         offset="1" />
    </linearGradient>
    <linearGradient
       gradientTransform="translate(7.503,6)"
       y2="-0.563"
       x2="0"
       y1="0"
       x1="0"
       gradientUnits="userSpaceOnUse"
       id="LinearGradient_7-280">
      <stop
         id="stop117649"
         stop-color="#ffffff"
         offset="0" />
      <stop
         id="stop117651"
         stop-color="#a4a3a3"
         offset="1" />
    </linearGradient>
    <linearGradient
       gradientTransform="translate(6.418,7.5)"
       y2="1.5"
       x2="0"
       y1="0"
       x1="0"
       gradientUnits="userSpaceOnUse"
       id="LinearGradient_6-18">
      <stop
         id="stop117644"
         stop-color="#d97138"
         offset="0" />
      <stop
         id="stop117646"
         stop-color="#ff8e47"
         offset="1" />
    </linearGradient>
    <linearGradient
       gradientTransform="matrix(0,1,-1,0,9.417,7.501)"
       y2="0"
       x2="1.499"
       y1="0"
       x1="0"
       gradientUnits="userSpaceOnUse"
       id="LinearGradient_5-081">
      <stop
         id="stop117639"
         stop-color="#9dc444"
         offset="0" />
      <stop
         id="stop117641"
         stop-color="#c9e785"
         offset="1" />
    </linearGradient>
    <linearGradient
       gradientTransform="translate(7.919,7.5)"
       y2="1.5"
       x2="0"
       y1="0"
       x1="0"
       gradientUnits="userSpaceOnUse"
       id="LinearGradient_4-266">
      <stop
         id="stop117634"
         stop-color="#f7c019"
         offset="0" />
      <stop
         id="stop117636"
         stop-color="#fee369"
         offset="1" />
    </linearGradient>
    <linearGradient
       gradientTransform="translate(4.919,7.5)"
       y2="1.501"
       x2="0"
       y1="0"
       x1="0"
       gradientUnits="userSpaceOnUse"
       id="LinearGradient_3-181">
      <stop
         id="stop117629"
         stop-color="#b877df"
         offset="0" />
      <stop
         id="stop117631"
         stop-color="#da92f2"
         offset="1" />
    </linearGradient>
    <linearGradient
       gradientTransform="translate(3.419,7.501)"
       y2="1.5"
       x2="0"
       y1="0"
       x1="0"
       gradientUnits="userSpaceOnUse"
       id="LinearGradient_2-702">
      <stop
         id="stop117624"
         stop-color="#6ca2de"
         offset="0" />
      <stop
         id="stop117626"
         stop-color="#9ed4ff"
         offset="1" />
    </linearGradient>
    <linearGradient
       gradientTransform="matrix(0,-1,1,0,5.373,11.097)"
       y2="0"
       x2="7.944"
       y1="0"
       x1="0"
       gradientUnits="userSpaceOnUse"
       id="LinearGradient_1-021">
      <stop
         id="stop117619"
         stop-color="#e2e2e2"
         offset="0" />
      <stop
         id="stop117621"
         stop-color="#c5c4c4"
         offset="1" />
    </linearGradient>
    <linearGradient
       gradientTransform="matrix(0,-1,1,0,5.233,11.911)"
       y2="0"
       x2="9.573"
       y1="0"
       x1="0"
       gradientUnits="userSpaceOnUse"
       id="LinearGradient-585">
      <stop
         id="stop117614"
         stop-color="#878b8e"
         offset="0" />
      <stop
         id="stop117616"
         stop-color="#818689"
         offset="1" />
    </linearGradient>
  </defs>
  <sodipodi:namedview
     id="base"
     pagecolor="#ffffff"
     bordercolor="#666666"
     borderopacity="1.0"
     inkscape:pageopacity="0.0"
     inkscape:pageshadow="2"
     inkscape:zoom="12.165038"
     inkscape:cx="9.1033714"
     inkscape:cy="9.2020147"
     inkscape:document-units="px"
     inkscape:current-layer="layer1"
     showgrid="false"
     inkscape:snap-page="true"
     inkscape:snap-grids="false"
     inkscape:snap-to-guides="false"
     inkscape:window-width="901"
     inkscape:window-height="665"
     inkscape:window-x="520"
     inkscape:window-y="200"
     inkscape:window-maximized="0">
    <inkscape:grid
       type="xygrid"
       id="grid11920"
       empspacing="5"
       visible="true"
       enabled="true"
       snapvisiblegridlinesonly="true" />
  </sodipodi:namedview>
  <metadata
     id="metadata7">
    <rdf:RDF>
      <cc:Work
         rdf:about="">
        <dc:format>image/svg+xml</dc:format>
        <dc:type
           rdf:resource="http://purl.org/dc/dcmitype/StillImage" />
        <dc:title />
      </cc:Work>
    </rdf:RDF>
  </metadata>
  <g
     inkscape:label="Layer 1"
     inkscape:groupmode="layer"
     id="layer1"
     transform="translate(0,-1036.3622)">
    <g
       style="fill-rule:evenodd;stroke-width:0.50099999;stroke-linejoin:bevel;overflow:visible"
       id="g117761"
       transform="matrix(1.3332148,0,0,1.3334701,-0.9999111,1036.3609)">
      <g
         transform="scale(1,-1)"
         font-size="16"
         id="Document"
         style="font-size:16px;fill:none;stroke:#000000;font-family:Times New Roman">
        <g
           transform="translate(0,-12)"
           id="Spread">
          <g
             id="MouseOff">
            <g
               id="Group"
               style="stroke:none">
              <g
                 stroke-miterlimit="79.8403193612775"
                 id="Group_1">
                <path
                   style="fill:url(#LinearGradient-585);marker-start:none;marker-end:none"
                   id="path117663"
                   d="m 0.75,11.138 0,-8.027 C 0.75,2.636 1.136,2.25 1.611,2.25 l 9.529,0 c 0.475,0 0.861,0.386 0.861,0.861 l 0,8.027 c 0,0.475 -0.386,0.861 -0.861,0.861 l -9.529,0 c -0.475,0 -0.861,-0.386 -0.861,-0.861 z"
                   inkscape:connector-curvature="0" />
                <path
                   style="fill:url(#LinearGradient_1-021);marker-start:none;marker-end:none"
                   id="path117665"
                   d="m 1.5,10.729 0,-7.211 c 0,-0.287 0.233,-0.52 0.52,-0.52 l 8.711,0 c 0.287,0 0.52,0.233 0.52,0.52 l 0,7.211 c 0,0.287 -0.233,0.52 -0.52,0.52 l -8.711,0 c -0.287,0 -0.52,-0.233 -0.52,-0.52 z"
                   inkscape:connector-curvature="0" />
                <path
                   id="path117667"
                   d="m 2.25,10.326 0,-6.403 C 2.25,3.828 2.328,3.75 2.423,3.75 l 7.905,0 c 0.095,0 0.173,0.078 0.173,0.173 l 0,6.403 c 0,0.095 -0.078,0.173 -0.173,0.173 l -7.905,0 c -0.095,0 -0.173,-0.078 -0.173,-0.173 z"
                   inkscape:connector-curvature="0"
                   style="fill:#2e2c2c;marker-start:none;marker-end:none" />
              </g>
              <g
                 stroke-miterlimit="79.8403193612775"
                 id="Group_2">
                <path
                   style="fill:url(#LinearGradient_2-702);marker-start:none;marker-end:none"
                   id="path117670"
                   d="m 3.001,9 0,-1.501 0.751,0 0,1.501 -0.751,0 z"
                   inkscape:connector-curvature="0" />
                <path
                   style="fill:url(#LinearGradient_3-181);marker-start:none;marker-end:none"
                   id="path117672"
                   d="m 4.5,9 0,-1.501 0.751,0 L 5.251,9 4.5,9 z"
                   inkscape:connector-curvature="0" />
                <path
                   style="fill:url(#LinearGradient_4-266);marker-start:none;marker-end:none"
                   id="path117674"
                   d="m 7.5,9 0,-1.501 0.751,0 L 8.251,9 7.5,9 z"
                   inkscape:connector-curvature="0" />
                <path
                   style="fill:url(#LinearGradient_5-081);marker-start:none;marker-end:none"
                   id="path117676"
                   d="m 9.001,9 0,-1.501 0.749,0 0,1.501 -0.749,0 z"
                   inkscape:connector-curvature="0" />
                <path
                   style="fill:url(#LinearGradient_6-18);marker-start:none;marker-end:none"
                   id="path117678"
                   d="m 6.002,9 0,-1.501 0.749,0 0,1.501 -0.749,0 z"
                   inkscape:connector-curvature="0" />
              </g>
              <path
                 id="path117680"
                 stroke-miterlimit="79.8403193612775"
                 d="m 2.249,8.426 10e-4,1.9 c 0,0.095 0.071,0.173 0.159,0.173 l 7.933,0 c 0.087,0 0.159,-0.078 0.159,-0.173 l 0,-1.826 C 9.114,8.337 7.607,8.249 6.032,8.249 c -1.32,0 -2.59,0.062 -3.783,0.177 z"
                 inkscape:connector-curvature="0"
                 style="fill:#ffffff;fill-opacity:0.10980398;stroke-width:0.077;marker-start:none;marker-end:none" />
              <path
                 style="fill:url(#LinearGradient_7-280);stroke-width:0.106;marker-start:none;marker-end:none"
                 id="path117682"
                 stroke-miterlimit="79.8403193612775"
                 d="m 6.75,5.744 0,-0.241 c 0,-0.14 0.115,-0.255 0.255,-0.255 l 0.991,0 c 0.14,0 0.255,0.115 0.255,0.255 l 0,0.241 c 0,0.14 -0.115,0.255 -0.255,0.255 l -0.991,0 C 6.865,5.999 6.75,5.884 6.75,5.744 z"
                 inkscape:connector-curvature="0" />
              <path
                 style="fill:url(#LinearGradient_8-88);stroke-width:0.086;marker-start:none;marker-end:none"
                 id="path117684"
                 stroke-miterlimit="79.8403193612775"
                 d="m 3.002,5.694 0,-0.141 c 0,-0.168 0.137,-0.305 0.305,-0.305 l 2.389,0 c 0.168,0 0.305,0.137 0.305,0.305 l 0,0.141 c 0,0.168 -0.137,0.305 -0.305,0.305 l -2.389,0 C 3.139,5.999 3.002,5.862 3.002,5.694 z"
                 inkscape:connector-curvature="0" />
            </g>
          </g>
        </g>
      </g>
    </g>
  </g>
</svg>
