<?xml version="1.0" encoding="UTF-8" standalone="no"?>
<!-- Created with Inkscape (http://www.inkscape.org/) -->

<svg
   xmlns:dc="http://purl.org/dc/elements/1.1/"
   xmlns:cc="http://creativecommons.org/ns#"
   xmlns:rdf="http://www.w3.org/1999/02/22-rdf-syntax-ns#"
   xmlns:svg="http://www.w3.org/2000/svg"
   xmlns="http://www.w3.org/2000/svg"
   xmlns:sodipodi="http://sodipodi.sourceforge.net/DTD/sodipodi-0.dtd"
   xmlns:inkscape="http://www.inkscape.org/namespaces/inkscape"
   width="16"
   height="16"
   id="svg2"
   version="1.1"
   inkscape:version="0.48.3.1 r9886"
   sodipodi:docname="16.svg">
  <defs
     id="defs4">
    <linearGradient
       gradientTransform="translate(7.997,3.704)"
       y2="1.546"
       x2="0"
       y1="0"
       x1="0"
       gradientUnits="userSpaceOnUse"
       id="LinearGradient_5-66">
      <stop
         id="stop24585"
         stop-color="#ffffff"
         offset="0" />
      <stop
         id="stop24587"
         stop-color="#858585"
         offset="1" />
    </linearGradient>
    <linearGradient
       gradientTransform="translate(7.028,5.723)"
       y2="-2.529"
       x2="0"
       y1="0"
       x1="0"
       gradientUnits="userSpaceOnUse"
       id="LinearGradient_4-85">
      <stop
         id="stop24580"
         stop-color="#fefefe"
         offset="0" />
      <stop
         id="stop24582"
         stop-color="#a4a4a4"
         offset="1" />
    </linearGradient>
    <linearGradient
       gradientTransform="translate(7.028,5.723)"
       y2="-2.529"
       x2="0"
       y1="0"
       x1="0"
       gradientUnits="userSpaceOnUse"
       id="LinearGradient_3-69">
      <stop
         id="stop24575"
         stop-color="#676767"
         offset="0" />
      <stop
         id="stop24577"
         stop-color="#5f5f5f"
         offset="1" />
    </linearGradient>
    <linearGradient
       gradientTransform="matrix(0,-1,1,0,4.92,9.612)"
       y2="0"
       x2="7.22"
       y1="0"
       x1="0"
       gradientUnits="userSpaceOnUse"
       id="LinearGradient_2-44">
      <stop
         id="stop24570"
         stop-color="#e2e2e2"
         offset="0" />
      <stop
         id="stop24572"
         stop-color="#c5c4c4"
         offset="1" />
    </linearGradient>
    <linearGradient
       gradientTransform="matrix(0,-1,1,0,4.782,10.419)"
       y2="0"
       x2="8.837"
       y1="0"
       x1="0"
       gradientUnits="userSpaceOnUse"
       id="LinearGradient_1-839">
      <stop
         id="stop24565"
         stop-color="#878b8e"
         offset="0" />
      <stop
         id="stop24567"
         stop-color="#818689"
         offset="1" />
    </linearGradient>
    <linearGradient
       gradientTransform="matrix(0,-1,1,0,5.086,11.926)"
       y2="0"
       x2="8.102"
       y1="0"
       x1="0"
       gradientUnits="userSpaceOnUse"
       id="LinearGradient-85">
      <stop
         id="stop24560"
         stop-color="#878b8e"
         offset="0" />
      <stop
         id="stop24562"
         stop-color="#818689"
         offset="1" />
    </linearGradient>
  </defs>
  <sodipodi:namedview
     id="base"
     pagecolor="#ffffff"
     bordercolor="#666666"
     borderopacity="1.0"
     inkscape:pageopacity="0.0"
     inkscape:pageshadow="2"
     inkscape:zoom="20.180998"
     inkscape:cx="8.2985828"
     inkscape:cy="7.6257247"
     inkscape:document-units="px"
     inkscape:current-layer="layer1"
     showgrid="false"
     inkscape:window-width="860"
     inkscape:window-height="523"
     inkscape:window-x="845"
     inkscape:window-y="315"
     inkscape:window-maximized="0" />
  <metadata
     id="metadata7">
    <rdf:RDF>
      <cc:Work
         rdf:about="">
        <dc:format>image/svg+xml</dc:format>
        <dc:type
           rdf:resource="http://purl.org/dc/dcmitype/StillImage" />
        <dc:title />
      </cc:Work>
    </rdf:RDF>
  </metadata>
  <g
     inkscape:label="Layer 1"
     inkscape:groupmode="layer"
     id="layer1"
     transform="translate(0,-1036.3622)">
    <g
       style="fill-rule:evenodd;stroke-width:0.50099999;stroke-linejoin:bevel;overflow:visible"
       id="g24698"
       transform="matrix(1.3332062,0,0,1.3333333,0,1036.3622)">
      <g
         transform="scale(1,-1)"
         font-size="16"
         id="Document"
         style="font-size:16px;fill:none;stroke:#000000;font-family:Times New Roman">
        <g
           transform="translate(0,-12)"
           id="Spread">
          <g
             id="MouseOff">
            <g
               id="Group">
              <g
                 id="Group_1"
                 style="stroke:none">
                <path
                   style="fill:url(#LinearGradient-85);stroke-width:0.041;marker-start:none;marker-end:none"
                   id="path24594"
                   stroke-miterlimit="79.8403193612775"
                   d="m 1.5,11.277 0,-6.805 C 1.5,4.073 1.824,3.749 2.223,3.749 l 7.555,0 c 0.399,0 0.723,0.324 0.723,0.723 l 0,6.805 C 10.501,11.676 10.177,12 9.778,12 L 2.223,12 C 1.824,12 1.5,11.676 1.5,11.277 z"
                   inkscape:connector-curvature="0" />
                <path
                   id="path24596"
                   stroke-miterlimit="79.8403193612775"
                   d="m 2.251,10.828 0,-1.407 c 0,-0.232 0.19,-0.422 0.422,-0.422 l 6.655,0 c 0.232,0 0.422,0.19 0.422,0.422 l 0,1.407 c 0,0.232 -0.19,0.422 -0.422,0.422 l -6.655,0 c -0.232,0 -0.422,-0.19 -0.422,-0.422 z"
                   inkscape:connector-curvature="0"
                   style="fill:#c6c5c5;stroke-width:0.041;marker-start:none;marker-end:none" />
                <path
                   style="fill:url(#LinearGradient_1-839);stroke-width:0.041;marker-start:none;marker-end:none"
                   id="path24598"
                   stroke-miterlimit="79.8403193612775"
                   d="M 0,9.639 0,2.362 C 0,1.887 0.386,1.501 0.861,1.501 l 10.279,0 c 0.475,0 0.861,0.386 0.861,0.861 l 0,7.277 c 0,0.475 -0.386,0.861 -0.861,0.861 l -10.279,0 C 0.386,10.5 0,10.114 0,9.639 z"
                   inkscape:connector-curvature="0" />
                <path
                   style="fill:url(#LinearGradient_2-44);stroke-width:0.041;marker-start:none;marker-end:none"
                   id="path24600"
                   stroke-miterlimit="79.8403193612775"
                   d="m 0.75,9.23 0,-6.459 c 0,-0.287 0.233,-0.52 0.52,-0.52 l 9.461,0 c 0.287,0 0.52,0.233 0.52,0.52 l 0,6.459 c 0,0.287 -0.233,0.52 -0.52,0.52 l -9.461,0 C 0.983,9.75 0.75,9.517 0.75,9.23 z"
                   inkscape:connector-curvature="0" />
                <path
                   id="path24602"
                   stroke-miterlimit="79.8403193612775"
                   d="m 1.5,8.826 0,-5.653 C 1.5,3.078 1.578,3 1.673,3 l 8.655,0 c 0.095,0 0.173,0.078 0.173,0.173 l 0,5.653 c 0,0.095 -0.078,0.173 -0.173,0.173 l -8.655,0 C 1.578,8.999 1.5,8.921 1.5,8.826 z"
                   inkscape:connector-curvature="0"
                   style="fill:#48494f;stroke-width:0.041;marker-start:none;marker-end:none" />
                <path
                   id="path24604"
                   stroke-miterlimit="79.8403193612775"
                   d="M 1.499,6.927 1.5,8.827 C 1.5,8.922 1.578,9 1.673,9 l 8.655,0 c 0.095,0 0.173,-0.078 0.173,-0.173 l 0,-1.826 C 8.988,6.838 7.344,6.75 5.626,6.75 4.186,6.75 2.8,6.812 1.499,6.927 z"
                   inkscape:connector-curvature="0"
                   style="fill:#ffffff;fill-opacity:0.10980398;stroke-width:0.077;marker-start:none;marker-end:none" />
              </g>
              <g
                 stroke-miterlimit="79.8403193612775"
                 id="Group_2"
                 style="fill:#909090;stroke:none">
                <path
                   id="path24607"
                   d="m 4.502,8.25 0,-0.749 1.499,0 0,0.749 -1.499,0 z"
                   inkscape:connector-curvature="0"
                   style="marker-start:none;marker-end:none" />
                <path
                   id="path24609"
                   d="m 2.251,8.249 0,-0.749 1.499,0 0,0.749 -1.499,0 z"
                   inkscape:connector-curvature="0"
                   style="marker-start:none;marker-end:none" />
                <path
                   id="path24611"
                   d="m 2.251,6.749 0,-0.749 1.499,0 0,0.749 -1.499,0 z"
                   inkscape:connector-curvature="0"
                   style="marker-start:none;marker-end:none" />
                <path
                   id="path24613"
                   d="m 2.252,5.249 0,-0.749 1.499,0 0,0.749 -1.499,0 z"
                   inkscape:connector-curvature="0"
                   style="marker-start:none;marker-end:none" />
              </g>
              <path
                 id="path24615"
                 stroke-miterlimit="79.8403193612775"
                 d="M 4.455,1.577 4.472,1.701 4.352,1.695 C 4.235,1.688 3.583,1.663 3.336,2.304 L 3.052,3.091 C 2.827,3.718 3.308,4.122 3.438,4.218 L 3.529,4.285 3.44,4.364 C 3.334,4.46 2.885,4.902 3.154,5.516 L 3.507,6.269 C 3.79,6.893 4.443,6.818 4.582,6.796 L 4.694,6.779 4.688,6.9 C 4.679,7.044 4.668,7.692 5.306,7.917 L 6.083,8.2 C 6.712,8.425 7.116,7.943 7.212,7.811 L 7.277,7.722 7.359,7.815 c 0.082,0.09 0.54,0.567 1.154,0.278 L 9.257,7.746 C 9.879,7.473 9.807,6.816 9.789,6.681 L 9.771,6.557 9.892,6.564 c 0.149,0.01 0.789,0.016 1.016,-0.616 L 11.193,5.169 C 11.417,4.537 10.93,4.134 10.809,4.043 L 10.714,3.972 10.799,3.897 C 10.895,3.813 11.376,3.358 11.085,2.74 L 10.737,1.991 C 10.605,1.702 10.391,1.564 10.188,1.501 l -5.742,0 c 0.003,0.035 0.007,0.061 0.009,0.076 z"
                 inkscape:connector-curvature="0"
                 style="fill:#000000;fill-opacity:0.41960802;stroke:none;stroke-width:0.76800001;marker-start:none;marker-end:none" />
              <path
                 id="path24617"
                 stroke-miterlimit="79.8403193612775"
                 d="m 0.002,1.125 0,-10e-4 c 0,-0.206 0.24,-0.374 0.534,-0.374 l 10.931,0 c 0.294,0 0.534,0.168 0.534,0.374 l 0,10e-4 c 0,0.206 -0.24,0.374 -0.534,0.374 l -10.931,0 C 0.242,1.499 0.002,1.331 0.002,1.125 z"
                 inkscape:connector-curvature="0"
                 style="fill:#000000;fill-opacity:0.164706;stroke:none;stroke-width:0.76800001;marker-start:none;marker-end:none" />
              <g
                 id="Group_3">
                <path
                   style="fill:url(#LinearGradient_3-69);stroke:none;stroke-width:0.76800001;marker-start:none;marker-end:none"
                   id="path24620"
                   stroke-miterlimit="79.8403193612775"
                   d="M 7.785,1.192 7.715,1.286 7.638,1.199 C 7.542,1.09 7.098,0.64 6.484,0.912 L 5.735,1.264 C 5.104,1.547 5.191,2.224 5.205,2.327 L 5.222,2.451 5.102,2.445 C 4.985,2.438 4.333,2.413 4.086,3.054 L 3.802,3.841 C 3.577,4.468 4.058,4.872 4.188,4.968 L 4.279,5.035 4.19,5.114 C 4.084,5.21 3.635,5.652 3.904,6.266 L 4.257,7.019 C 4.54,7.643 5.193,7.568 5.332,7.546 L 5.444,7.529 5.438,7.65 C 5.429,7.794 5.418,8.442 6.056,8.667 L 6.833,8.95 C 7.462,9.175 7.866,8.693 7.962,8.561 L 8.027,8.472 8.109,8.565 c 0.082,0.09 0.54,0.567 1.154,0.278 l 0.744,-0.347 c 0.622,-0.273 0.55,-0.93 0.532,-1.065 l -0.018,-0.124 0.121,0.007 c 0.149,0.01 0.789,0.016 1.016,-0.616 L 11.943,5.919 C 12.167,5.287 11.68,4.884 11.559,4.793 L 11.464,4.722 11.549,4.647 C 11.645,4.563 12.126,4.108 11.835,3.49 L 11.487,2.741 C 11.205,2.122 10.544,2.196 10.424,2.212 l -0.125,0.017 0.007,-0.12 C 10.313,1.994 10.339,1.342 9.699,1.093 L 8.91,0.809 C 8.282,0.584 7.877,1.07 7.785,1.192 z"
                   inkscape:connector-curvature="0" />
                <path
                   style="fill:url(#LinearGradient_4-85);stroke:none;stroke-width:0.76800001;marker-start:none;marker-end:none"
                   id="path24622"
                   stroke-miterlimit="79.8403193612775"
                   d="M 5.948,2.225 6.026,2.766 C 5.867,2.902 5.728,3.056 5.605,3.225 l 0,-10e-4 -0.546,-0.03 C 4.96,3.188 4.831,3.208 4.789,3.317 L 4.508,4.095 c -0.039,0.109 0.046,0.211 0.126,0.27 l 0.439,0.325 0,0 C 5.058,4.897 5.067,5.106 5.1,5.312 l 0,0 -0.41,0.362 C 4.616,5.741 4.541,5.85 4.588,5.957 L 4.939,6.706 C 4.987,6.812 5.12,6.821 5.218,6.805 l 0.541,-0.079 0,0 c 0.136,0.16 0.29,0.299 0.459,0.421 l 0,10e-4 -0.031,0.546 C 6.181,7.793 6.201,7.923 6.309,7.961 L 7.088,8.245 C 7.197,8.284 7.299,8.199 7.358,8.118 l 0.324,-0.437 0,-0.001 C 7.889,7.695 8.099,7.686 8.305,7.653 l 0.362,0.411 c 0.067,0.073 0.176,0.148 0.278,0.1 L 9.698,7.813 C 9.805,7.766 9.81,7.632 9.797,7.535 L 9.719,6.994 C 9.878,6.854 10.018,6.701 10.14,6.535 l 0.547,0.031 c 0.096,0.006 0.227,-0.014 0.266,-0.123 l 0.285,-0.778 c 0.039,-0.11 -0.046,-0.21 -0.127,-0.271 l -0.438,-0.325 -10e-4,0 C 10.687,4.862 10.678,4.654 10.645,4.448 l 0,0 0.408,-0.362 C 11.129,4.019 11.204,3.91 11.156,3.808 L 10.806,3.055 C 10.759,2.952 10.625,2.942 10.527,2.955 L 9.986,3.034 9.987,3.033 C 9.847,2.873 9.694,2.732 9.527,2.612 L 9.558,2.066 C 9.564,1.967 9.544,1.838 9.436,1.796 L 8.657,1.515 C 8.548,1.476 8.447,1.561 8.387,1.641 L 8.062,2.08 C 7.855,2.065 7.647,2.074 7.44,2.107 L 7.078,1.697 C 7.012,1.623 6.902,1.548 6.796,1.595 L 6.048,1.946 C 5.941,1.994 5.935,2.127 5.948,2.225 z"
                   inkscape:connector-curvature="0" />
                <path
                   style="fill:url(#LinearGradient_5-66);stroke:none;stroke-width:0.76499999;marker-start:none;marker-end:none"
                   id="path24624"
                   stroke-miterlimit="79.8403193612775"
                   d="m 7.873,6.755 c 1.035,0 1.875,-0.84 1.875,-1.875 0,-1.035 -0.84,-1.875 -1.875,-1.875 -1.035,0 -1.875,0.84 -1.875,1.875 0,1.035 0.84,1.875 1.875,1.875 z"
                   inkscape:connector-curvature="0" />
                <path
                   id="path24626"
                   stroke-miterlimit="79.8403193612775"
                   d="M 8.212,6.482 C 8.804,6.338 9.228,5.961 9.158,5.641 9.088,5.321 8.548,5.178 7.956,5.322 7.364,5.466 6.94,5.843 7.01,6.163 7.08,6.483 7.62,6.626 8.212,6.482 z"
                   inkscape:connector-curvature="0"
                   style="fill:#ffffff;stroke:none;stroke-width:1.01300001;marker-start:none;marker-end:none" />
                <path
                   id="path24628"
                   stroke-miterlimit="79.8403193612775"
                   d="M 6.824,5.014 8.182,3.633"
                   inkscape:connector-curvature="0"
                   style="fill:none;stroke:#ffffff;stroke-width:0.75;stroke-linecap:round;stroke-linejoin:round;stroke-miterlimit:79.84031677" />
                <path
                   id="path24630"
                   stroke-miterlimit="79.8403193612775"
                   d="M 7.237,5.502 8.595,4.121"
                   inkscape:connector-curvature="0"
                   style="fill:none;stroke:#767676;stroke-width:0.75;stroke-linecap:round;stroke-linejoin:round;stroke-miterlimit:79.84031677" />
              </g>
            </g>
          </g>
        </g>
      </g>
    </g>
  </g>
</svg>
